<?xml version="1.0" ?>
<svg xmlns="http://www.w3.org/2000/svg" version="1.1" width="224" height="224">
  <defs/>
  <g>
    <path d="M 135.91680908203125 118.27767944335938 C 165.73770141601562 114.74869537353516 165.67359924316406 108.96168518066406 167.3350372314453 113.8004150390625" stroke-width="3.0" fill="none" stroke="rgb(0, 0, 0)" stroke-opacity="1.0" stroke-linecap="round" stroke-linejoin="round"/>
    <path d="M 107.82981872558594 157.0845489501953 C 56.27253341674805 183.3380584716797 74.59390258789062 182.31861877441406 153.6746063232422 152.02235412597656" stroke-width="3.0" fill="none" stroke="rgb(0, 0, 0)" stroke-opacity="1.0" stroke-linecap="round" stroke-linejoin="round"/>
    <path d="M 140.98545837402344 147.83489990234375 C 148.93038940429688 156.78173828125 106.95401763916016 126.80974578857422 144.00636291503906 86.10752868652344" stroke-width="3.0" fill="none" stroke="rgb(0, 0, 0)" stroke-opacity="1.0" stroke-linecap="round" stroke-linejoin="round"/>
    <path d="M 144.46690368652344 137.30413818359375 C 179.04869079589844 104.8735122680664 169.8444366455078 118.03263092041016 191.94004821777344 129.21717834472656" stroke-width="3.0" fill="none" stroke="rgb(0, 0, 0)" stroke-opacity="1.0" stroke-linecap="round" stroke-linejoin="round"/>
    <path d="M 162.4947509765625 72.94280242919922 C 226.27796936035156 82.396240234375 222.2017822265625 162.16297912597656 158.47877502441406 154.70875549316406" stroke-width="3.0" fill="none" stroke="rgb(0, 0, 0)" stroke-opacity="1.0" stroke-linecap="round" stroke-linejoin="round"/>
    <path d="M 94.25959014892578 177.62530517578125 C 100.87466430664062 162.94400024414062 100.87104034423828 190.445068359375 109.75244903564453 154.756103515625" stroke-width="3.0" fill="none" stroke="rgb(0, 0, 0)" stroke-opacity="1.0" stroke-linecap="round" stroke-linejoin="round"/>
    <path d="M 96.09908294677734 121.10700225830078 C 133.87615966796875 127.39142608642578 92.6549301147461 95.52613067626953 114.9212417602539 129.95382690429688" stroke-width="3.0" fill="none" stroke="rgb(0, 0, 0)" stroke-opacity="1.0" stroke-linecap="round" stroke-linejoin="round"/>
    <path d="M 72.70454406738281 190.1121826171875 C 174.34483337402344 184.30953979492188 149.8206787109375 186.4575653076172 47.78695297241211 186.28871154785156" stroke-width="3.0" fill="none" stroke="rgb(0, 0, 0)" stroke-opacity="1.0" stroke-linecap="round" stroke-linejoin="round"/>
    <path d="M 177.7023468017578 181.7235870361328 C 165.9326934814453 223.2008819580078 122.74419403076172 182.1049346923828 157.7996368408203 171.7197265625" stroke-width="3.0" fill="none" stroke="rgb(0, 0, 0)" stroke-opacity="1.0" stroke-linecap="round" stroke-linejoin="round"/>
    <path d="M 153.77374267578125 81.24162292480469 C 192.84719848632812 75.63118743896484 221.96170043945312 126.96927642822266 180.57785034179688 146.76220703125" stroke-width="3.0" fill="none" stroke="rgb(0, 0, 0)" stroke-opacity="1.0" stroke-linecap="round" stroke-linejoin="round"/>
    <path d="M 183.73880004882812 187.98252868652344 C 179.2730712890625 152.04566955566406 176.12953186035156 198.18511962890625 180.24331665039062 178.22201538085938" stroke-width="3.0" fill="none" stroke="rgb(0, 0, 0)" stroke-opacity="1.0" stroke-linecap="round" stroke-linejoin="round"/>
    <path d="M 139.19427490234375 159.759033203125 C 124.622802734375 147.70680236816406 134.0785675048828 149.0488739013672 135.8224639892578 149.88433837890625" stroke-width="3.0" fill="none" stroke="rgb(0, 0, 0)" stroke-opacity="1.0" stroke-linecap="round" stroke-linejoin="round"/>
    <path d="M 157.3162384033203 146.84193420410156 C 168.0569610595703 119.62893676757812 168.20008850097656 104.18255615234375 174.48435974121094 147.01986694335938" stroke-width="3.0" fill="none" stroke="rgb(0, 0, 0)" stroke-opacity="1.0" stroke-linecap="round" stroke-linejoin="round"/>
    <path d="M 148.42724609375 176.8966064453125 C 153.53956604003906 214.4646453857422 190.1061248779297 174.30348205566406 154.2909698486328 171.1528778076172" stroke-width="3.0" fill="none" stroke="rgb(0, 0, 0)" stroke-opacity="1.0" stroke-linecap="round" stroke-linejoin="round"/>
    <path d="M 81.8079833984375 60.84298324584961 C 127.84364318847656 40.41550827026367 188.09408569335938 87.81490325927734 161.04400634765625 41.02720260620117" stroke-width="3.0" fill="none" stroke="rgb(0, 0, 0)" stroke-opacity="1.0" stroke-linecap="round" stroke-linejoin="round"/>
    <path d="M 64.28059387207031 23.75168800354004 C 81.79342651367188 25.314037322998047 77.11002349853516 28.568485260009766 100.94935607910156 114.49635314941406" stroke-width="3.0" fill="none" stroke="rgb(0, 0, 0)" stroke-opacity="1.0" stroke-linecap="round" stroke-linejoin="round"/>
    <path d="M 62.834877014160156 23.66800880432129 C 117.09587097167969 24.76764678955078 70.59518432617188 29.707265853881836 62.7335090637207 23.78884506225586" stroke-width="3.0" fill="none" stroke="rgb(0, 0, 0)" stroke-opacity="1.0" stroke-linecap="round" stroke-linejoin="round"/>
    <path d="M 45.16135025024414 188.90841674804688 C 138.86627197265625 189.66958618164062 90.47465515136719 184.68087768554688 52.766788482666016 173.4872283935547" stroke-width="3.0" fill="none" stroke="rgb(0, 0, 0)" stroke-opacity="1.0" stroke-linecap="round" stroke-linejoin="round"/>
    <path d="M 139.3620147705078 189.85064697265625 C 139.7566375732422 135.97438049316406 205.01065063476562 184.4718475341797 163.98077392578125 167.5496063232422" stroke-width="3.0" fill="none" stroke="rgb(0, 0, 0)" stroke-opacity="1.0" stroke-linecap="round" stroke-linejoin="round"/>
    <path d="M 57.83660125732422 182.7332763671875 C 114.09539031982422 186.2426300048828 106.18553924560547 165.52008056640625 59.63467025756836 173.0030059814453" stroke-width="3.0" fill="none" stroke="rgb(0, 0, 0)" stroke-opacity="1.0" stroke-linecap="round" stroke-linejoin="round"/>
    <path d="M 46.81534194946289 186.37969970703125 C 127.9787826538086 179.52694702148438 117.55947875976562 180.0730438232422 54.3134880065918 179.4248504638672" stroke-width="3.0" fill="none" stroke="rgb(0, 0, 0)" stroke-opacity="1.0" stroke-linecap="round" stroke-linejoin="round"/>
    <path d="M 104.36245727539062 189.07077026367188 C 102.00535583496094 166.88255310058594 109.42669677734375 174.55931091308594 77.05484771728516 187.16065979003906" stroke-width="3.0" fill="none" stroke="rgb(0, 0, 0)" stroke-opacity="1.0" stroke-linecap="round" stroke-linejoin="round"/>
    <path d="M 180.23582458496094 91.61601257324219 C 176.0326385498047 104.2890853881836 180.1251220703125 57.418575286865234 174.51547241210938 117.74444580078125" stroke-width="3.0" fill="none" stroke="rgb(0, 0, 0)" stroke-opacity="1.0" stroke-linecap="round" stroke-linejoin="round"/>
    <path d="M 101.7835693359375 169.7274169921875 C 33.79881286621094 169.8161163330078 55.222965240478516 171.52957153320312 70.2961196899414 173.55877685546875" stroke-width="3.0" fill="none" stroke="rgb(0, 0, 0)" stroke-opacity="1.0" stroke-linecap="round" stroke-linejoin="round"/>
    <path d="M 71.25995635986328 71.07323455810547 C 76.08111572265625 63.56949996948242 62.91259002685547 35.96110916137695 162.37001037597656 52.836692810058594" stroke-width="3.0" fill="none" stroke="rgb(0, 0, 0)" stroke-opacity="1.0" stroke-linecap="round" stroke-linejoin="round"/>
    <path d="M 131.13230895996094 153.70391845703125 C 154.48373413085938 151.3163299560547 124.92279052734375 141.65721130371094 126.1796875 163.07298278808594" stroke-width="3.0" fill="none" stroke="rgb(0, 0, 0)" stroke-opacity="1.0" stroke-linecap="round" stroke-linejoin="round"/>
    <path d="M 157.0160369873047 58.95382308959961 C 160.76535034179688 36.88727569580078 220.61965942382812 39.62511444091797 145.54322814941406 45.48826599121094" stroke-width="3.0" fill="none" stroke="rgb(0, 0, 0)" stroke-opacity="1.0" stroke-linecap="round" stroke-linejoin="round"/>
    <path d="M 50.770606994628906 175.1583709716797 C 53.63080596923828 183.7400360107422 39.99382400512695 193.4870147705078 53.483707427978516 172.4460906982422" stroke-width="3.0" fill="none" stroke="rgb(0, 0, 0)" stroke-opacity="1.0" stroke-linecap="round" stroke-linejoin="round"/>
    <path d="M 189.92710876464844 96.38558197021484 C 163.9683837890625 121.4273910522461 160.2663116455078 116.37155151367188 181.7316436767578 87.92412567138672" stroke-width="3.0" fill="none" stroke="rgb(0, 0, 0)" stroke-opacity="1.0" stroke-linecap="round" stroke-linejoin="round"/>
    <path d="M 141.6619110107422 56.49714279174805 C 116.14114379882812 101.78467559814453 97.59431457519531 149.86209106445312 114.36702728271484 116.97518920898438" stroke-width="3.0" fill="none" stroke="rgb(0, 0, 0)" stroke-opacity="1.0" stroke-linecap="round" stroke-linejoin="round"/>
    <path d="M 171.42042541503906 39.71821594238281 C 146.4650421142578 76.47754669189453 118.18638610839844 -1.0632834434509277 165.64736938476562 120.2212142944336" stroke-width="3.0" fill="none" stroke="rgb(0, 0, 0)" stroke-opacity="1.0" stroke-linecap="round" stroke-linejoin="round"/>
    <path d="M 56.032012939453125 187.6736602783203 C 106.8729248046875 180.0817108154297 132.76449584960938 181.95089721679688 52.26634216308594 182.69627380371094" stroke-width="3.0" fill="none" stroke="rgb(0, 0, 0)" stroke-opacity="1.0" stroke-linecap="round" stroke-linejoin="round"/>
    <path d="M 93.32705688476562 56.2874870300293 C 112.80762481689453 156.71530151367188 130.9014892578125 131.48617553710938 57.21401596069336 115.68199920654297" stroke-width="3.0" fill="none" stroke="rgb(0, 0, 0)" stroke-opacity="1.0" stroke-linecap="round" stroke-linejoin="round"/>
    <path d="M 184.9980926513672 138.75291442871094 C 163.3214111328125 107.55863952636719 170.19322204589844 115.50122833251953 186.09059143066406 114.81295776367188" stroke-width="3.0" fill="none" stroke="rgb(0, 0, 0)" stroke-opacity="1.0" stroke-linecap="round" stroke-linejoin="round"/>
    <path d="M 82.71463775634766 31.57004165649414 C 33.9202766418457 30.033367156982422 58.14262771606445 29.864561080932617 79.11280822753906 34.98250961303711" stroke-width="3.0" fill="none" stroke="rgb(0, 0, 0)" stroke-opacity="1.0" stroke-linecap="round" stroke-linejoin="round"/>
    <path d="M 42.18510818481445 148.7578582763672 C 60.475643157958984 156.49607849121094 89.35209655761719 142.97755432128906 89.56068420410156 122.86353302001953" stroke-width="3.0" fill="none" stroke="rgb(0, 0, 0)" stroke-opacity="1.0" stroke-linecap="round" stroke-linejoin="round"/>
    <path d="M 163.24716186523438 118.0757827758789 C 122.22632598876953 129.6597137451172 141.10342407226562 121.2469711303711 136.1002655029297 127.25484466552734" stroke-width="3.0" fill="none" stroke="rgb(0, 0, 0)" stroke-opacity="1.0" stroke-linecap="round" stroke-linejoin="round"/>
    <path d="M 48.163909912109375 150.96241760253906 C 17.95206069946289 142.88050842285156 3.1039278507232666 99.75154876708984 42.27268600463867 76.98981475830078" stroke-width="3.0" fill="none" stroke="rgb(0, 0, 0)" stroke-opacity="1.0" stroke-linecap="round" stroke-linejoin="round"/>
    <path d="M 178.29937744140625 179.68638610839844 C 174.23423767089844 191.69711303710938 193.36903381347656 193.40231323242188 168.07398986816406 168.4737091064453" stroke-width="3.0" fill="none" stroke="rgb(0, 0, 0)" stroke-opacity="1.0" stroke-linecap="round" stroke-linejoin="round"/>
    <path d="M 170.78970336914062 155.8876190185547 C 93.40531921386719 140.98593139648438 178.9611358642578 157.1676483154297 131.12998962402344 152.22674560546875" stroke-width="3.0" fill="none" stroke="rgb(0, 0, 0)" stroke-opacity="1.0" stroke-linecap="round" stroke-linejoin="round"/>
    <path d="M 31.146928787231445 84.55233001708984 C 84.3367919921875 45.645015716552734 106.09893798828125 131.2167205810547 85.1300048828125 111.88894653320312" stroke-width="3.0" fill="none" stroke="rgb(0, 0, 0)" stroke-opacity="1.0" stroke-linecap="round" stroke-linejoin="round"/>
    <path d="M 103.22421264648438 112.3866195678711 C 91.38072204589844 152.57994079589844 94.31022644042969 115.72261810302734 75.81666564941406 91.46533203125" stroke-width="3.0" fill="none" stroke="rgb(0, 0, 0)" stroke-opacity="1.0" stroke-linecap="round" stroke-linejoin="round"/>
    <path d="M 66.4068374633789 176.7015380859375 C 106.24139404296875 144.86805725097656 129.3610382080078 156.43203735351562 146.6532440185547 150.6657257080078" stroke-width="3.0" fill="none" stroke="rgb(0, 0, 0)" stroke-opacity="1.0" stroke-linecap="round" stroke-linejoin="round"/>
    <path d="M 82.53052520751953 32.33403778076172 C 92.06871032714844 58.65586471557617 91.55699157714844 38.23970413208008 77.43921661376953 73.12631225585938" stroke-width="3.0" fill="none" stroke="rgb(0, 0, 0)" stroke-opacity="1.0" stroke-linecap="round" stroke-linejoin="round"/>
    <path d="M 126.62651824951172 155.28965759277344 C 206.35568237304688 159.4064483642578 130.5585174560547 143.68472290039062 134.18826293945312 188.23211669921875" stroke-width="3.0" fill="none" stroke="rgb(0, 0, 0)" stroke-opacity="1.0" stroke-linecap="round" stroke-linejoin="round"/>
    <path d="M 105.3871078491211 118.2232894897461 C 122.57861328125 167.2690887451172 124.26915740966797 116.66615295410156 99.4428482055664 132.58401489257812" stroke-width="3.0" fill="none" stroke="rgb(0, 0, 0)" stroke-opacity="1.0" stroke-linecap="round" stroke-linejoin="round"/>
    <path d="M 175.40426635742188 55.81605911254883 C 173.5797119140625 45.13467025756836 191.89527893066406 48.76776123046875 174.15126037597656 40.382144927978516" stroke-width="3.0" fill="none" stroke="rgb(0, 0, 0)" stroke-opacity="1.0" stroke-linecap="round" stroke-linejoin="round"/>
    <path d="M 94.52143859863281 56.88031005859375 C 72.20748138427734 63.28828430175781 87.53419494628906 42.681453704833984 59.55311584472656 118.05030822753906" stroke-width="3.0" fill="none" stroke="rgb(0, 0, 0)" stroke-opacity="1.0" stroke-linecap="round" stroke-linejoin="round"/>
  </g>
</svg>
