<?xml version="1.0" ?>
<svg xmlns="http://www.w3.org/2000/svg" version="1.1" width="224" height="224">
  <defs/>
  <g>
    <path d="M 136.11427307128906 120.22722625732422 C 198.12765502929688 110.9683837890625 172.28431701660156 107.52730560302734 174.3219757080078 127.05595397949219" stroke-width="3.0" fill="none" stroke="rgb(0, 0, 0)" stroke-opacity="1.0" stroke-linecap="round" stroke-linejoin="round"/>
    <path d="M 121.05155944824219 161.13853454589844 C 48.794837951660156 168.13812255859375 73.89054870605469 180.4574737548828 159.01072692871094 158.5940399169922" stroke-width="3.0" fill="none" stroke="rgb(0, 0, 0)" stroke-opacity="1.0" stroke-linecap="round" stroke-linejoin="round"/>
    <path d="M 172.8421173095703 149.27908325195312 C 143.5279083251953 154.71524047851562 99.44474029541016 128.63076782226562 141.7091827392578 69.17049407958984" stroke-width="3.0" fill="none" stroke="rgb(0, 0, 0)" stroke-opacity="1.0" stroke-linecap="round" stroke-linejoin="round"/>
    <path d="M 147.62109375 140.6005096435547 C 175.62619018554688 97.57241821289062 154.8516845703125 120.32599639892578 193.07308959960938 126.26766204833984" stroke-width="3.0" fill="none" stroke="rgb(0, 0, 0)" stroke-opacity="1.0" stroke-linecap="round" stroke-linejoin="round"/>
    <path d="M 154.35202026367188 78.52346801757812 C 225.91400146484375 66.3984375 233.4014434814453 169.2689208984375 147.38592529296875 157.0927734375" stroke-width="3.0" fill="none" stroke="rgb(0, 0, 0)" stroke-opacity="1.0" stroke-linecap="round" stroke-linejoin="round"/>
    <path d="M 105.29206848144531 155.62327575683594 C 49.95069885253906 174.94529724121094 82.4367904663086 182.6552734375 120.40782165527344 153.99575805664062" stroke-width="3.0" fill="none" stroke="rgb(0, 0, 0)" stroke-opacity="1.0" stroke-linecap="round" stroke-linejoin="round"/>
    <path d="M 93.81333923339844 127.22135925292969 C 143.35858154296875 120.68916320800781 87.21676635742188 99.96977233886719 113.83128356933594 120.5985107421875" stroke-width="3.0" fill="none" stroke="rgb(0, 0, 0)" stroke-opacity="1.0" stroke-linecap="round" stroke-linejoin="round"/>
    <path d="M 55.74730682373047 171.03627014160156 C 168.34910583496094 145.259033203125 191.14614868164062 158.35955810546875 52.45872497558594 171.52197265625" stroke-width="3.0" fill="none" stroke="rgb(0, 0, 0)" stroke-opacity="1.0" stroke-linecap="round" stroke-linejoin="round"/>
    <path d="M 181.6145477294922 185.89541625976562 C 153.3254852294922 225.69981384277344 134.50155639648438 160.16017150878906 147.8834991455078 188.45626831054688" stroke-width="3.0" fill="none" stroke="rgb(0, 0, 0)" stroke-opacity="1.0" stroke-linecap="round" stroke-linejoin="round"/>
    <path d="M 154.05197143554688 86.66503143310547 C 200.56427001953125 73.73529052734375 223.40341186523438 139.72799682617188 169.7576141357422 148.37490844726562" stroke-width="3.0" fill="none" stroke="rgb(0, 0, 0)" stroke-opacity="1.0" stroke-linecap="round" stroke-linejoin="round"/>
    <path d="M 177.9039764404297 182.61776733398438 C 181.52552795410156 161.83639526367188 168.29525756835938 224.03790283203125 180.4281768798828 176.12100219726562" stroke-width="3.0" fill="none" stroke="rgb(0, 0, 0)" stroke-opacity="1.0" stroke-linecap="round" stroke-linejoin="round"/>
    <path d="M 104.11959838867188 167.15061950683594 C 80.35380554199219 164.49122619628906 88.74945068359375 159.21046447753906 125.73246765136719 150.4500274658203" stroke-width="3.0" fill="none" stroke="rgb(0, 0, 0)" stroke-opacity="1.0" stroke-linecap="round" stroke-linejoin="round"/>
    <path d="M 157.69981384277344 147.13783264160156 C 177.46249389648438 96.00959777832031 166.26678466796875 80.14673614501953 167.82774353027344 149.6934356689453" stroke-width="3.0" fill="none" stroke="rgb(0, 0, 0)" stroke-opacity="1.0" stroke-linecap="round" stroke-linejoin="round"/>
    <path d="M 145.6431427001953 178.53524780273438 C 165.63124084472656 226.36328125 187.0751190185547 148.48443603515625 140.72703552246094 179.49267578125" stroke-width="3.0" fill="none" stroke="rgb(0, 0, 0)" stroke-opacity="1.0" stroke-linecap="round" stroke-linejoin="round"/>
    <path d="M 89.67963409423828 55.49371337890625 C 124.92467498779297 37.047218322753906 191.79974365234375 90.50657653808594 164.81919860839844 39.123470306396484" stroke-width="3.0" fill="none" stroke="rgb(0, 0, 0)" stroke-opacity="1.0" stroke-linecap="round" stroke-linejoin="round"/>
    <path d="M 65.7059555053711 28.063161849975586 C 73.63867950439453 27.960678100585938 82.65373992919922 29.27751350402832 109.950439453125 121.04248046875" stroke-width="3.0" fill="none" stroke="rgb(0, 0, 0)" stroke-opacity="1.0" stroke-linecap="round" stroke-linejoin="round"/>
    <path d="M 61.217185974121094 24.46925163269043 C 127.54124450683594 25.640995025634766 28.07762908935547 31.865190505981445 70.67589569091797 22.619741439819336" stroke-width="3.0" fill="none" stroke="rgb(0, 0, 0)" stroke-opacity="1.0" stroke-linecap="round" stroke-linejoin="round"/>
    <path d="M 75.12178802490234 189.69569396972656 C 183.8128662109375 209.11949157714844 140.5958251953125 189.5216827392578 47.51299285888672 182.21096801757812" stroke-width="3.0" fill="none" stroke="rgb(0, 0, 0)" stroke-opacity="1.0" stroke-linecap="round" stroke-linejoin="round"/>
    <path d="M 140.261474609375 188.73583984375 C 142.0543975830078 136.55392456054688 214.89376831054688 190.253662109375 161.46981811523438 166.06689453125" stroke-width="3.0" fill="none" stroke="rgb(0, 0, 0)" stroke-opacity="1.0" stroke-linecap="round" stroke-linejoin="round"/>
    <path d="M 52.390743255615234 183.8488006591797 C 134.0879669189453 204.91510009765625 126.54051971435547 204.7535858154297 57.57474136352539 178.2671356201172" stroke-width="3.0" fill="none" stroke="rgb(0, 0, 0)" stroke-opacity="1.0" stroke-linecap="round" stroke-linejoin="round"/>
    <path d="M 42.837398529052734 190.90826416015625 C 204.48033142089844 204.47836303710938 166.5736541748047 155.28280639648438 60.89067459106445 172.14346313476562" stroke-width="3.0" fill="none" stroke="rgb(0, 0, 0)" stroke-opacity="1.0" stroke-linecap="round" stroke-linejoin="round"/>
    <path d="M 101.16654205322266 188.56631469726562 C 109.5037612915039 138.76759338378906 127.85196685791016 155.8414764404297 77.16886138916016 172.25489807128906" stroke-width="3.0" fill="none" stroke="rgb(0, 0, 0)" stroke-opacity="1.0" stroke-linecap="round" stroke-linejoin="round"/>
    <path d="M 188.14862060546875 92.62942504882812 C 181.91455078125 90.15897369384766 150.91329956054688 63.80081558227539 172.5076446533203 111.68577575683594" stroke-width="3.0" fill="none" stroke="rgb(0, 0, 0)" stroke-opacity="1.0" stroke-linecap="round" stroke-linejoin="round"/>
    <path d="M 113.48853302001953 159.1558837890625 C 47.37407684326172 188.99392700195312 30.5075740814209 186.2341766357422 91.69221496582031 189.8408203125" stroke-width="3.0" fill="none" stroke="rgb(0, 0, 0)" stroke-opacity="1.0" stroke-linecap="round" stroke-linejoin="round"/>
    <path d="M 66.0893783569336 111.99858093261719 C 86.01245880126953 57.86468505859375 60.49959945678711 35.73334503173828 170.3865203857422 48.89952850341797" stroke-width="3.0" fill="none" stroke="rgb(0, 0, 0)" stroke-opacity="1.0" stroke-linecap="round" stroke-linejoin="round"/>
    <path d="M 131.6476593017578 154.7754669189453 C 176.28543090820312 157.64276123046875 126.14396667480469 145.12586975097656 120.33338165283203 169.9276885986328" stroke-width="3.0" fill="none" stroke="rgb(0, 0, 0)" stroke-opacity="1.0" stroke-linecap="round" stroke-linejoin="round"/>
    <path d="M 150.81300354003906 62.66682815551758 C 181.94229125976562 31.058874130249023 208.9495391845703 36.011146545410156 139.7426300048828 49.040740966796875" stroke-width="3.0" fill="none" stroke="rgb(0, 0, 0)" stroke-opacity="1.0" stroke-linecap="round" stroke-linejoin="round"/>
    <path d="M 57.688880920410156 169.16680908203125 C 51.39593505859375 170.8321075439453 39.13546371459961 204.99488830566406 52.64548110961914 177.15675354003906" stroke-width="3.0" fill="none" stroke="rgb(0, 0, 0)" stroke-opacity="1.0" stroke-linecap="round" stroke-linejoin="round"/>
    <path d="M 179.74200439453125 93.61760711669922 C 170.56771850585938 115.94415283203125 157.54226684570312 117.51062774658203 188.42080688476562 101.8454818725586" stroke-width="3.0" fill="none" stroke="rgb(0, 0, 0)" stroke-opacity="1.0" stroke-linecap="round" stroke-linejoin="round"/>
    <path d="M 149.36302185058594 41.694053649902344 C 107.32118225097656 104.81366729736328 100.5497817993164 154.3927001953125 98.65245819091797 123.66767883300781" stroke-width="3.0" fill="none" stroke="rgb(0, 0, 0)" stroke-opacity="1.0" stroke-linecap="round" stroke-linejoin="round"/>
    <path d="M 176.85545349121094 38.21708679199219 C 130.05194091796875 57.22683334350586 125.00450897216797 2.1146042346954346 165.1446990966797 121.19212341308594" stroke-width="3.0" fill="none" stroke="rgb(0, 0, 0)" stroke-opacity="1.0" stroke-linecap="round" stroke-linejoin="round"/>
    <path d="M 52.77614212036133 173.2659912109375 C 135.6378173828125 166.15797424316406 123.27617645263672 180.39125061035156 55.3145637512207 174.44851684570312" stroke-width="3.0" fill="none" stroke="rgb(0, 0, 0)" stroke-opacity="1.0" stroke-linecap="round" stroke-linejoin="round"/>
    <path d="M 86.26541137695312 60.96622085571289 C 109.8194808959961 138.50509643554688 136.4480438232422 124.3995590209961 53.845794677734375 115.23766326904297" stroke-width="3.0" fill="none" stroke="rgb(0, 0, 0)" stroke-opacity="1.0" stroke-linecap="round" stroke-linejoin="round"/>
    <path d="M 182.00558471679688 142.1455078125 C 166.56927490234375 108.3745346069336 157.4061737060547 126.96783447265625 194.69297790527344 110.8457260131836" stroke-width="3.0" fill="none" stroke="rgb(0, 0, 0)" stroke-opacity="1.0" stroke-linecap="round" stroke-linejoin="round"/>
    <path d="M 79.39065551757812 26.426061630249023 C 78.25443267822266 41.24031066894531 26.69639015197754 14.102898597717285 92.61540985107422 25.452329635620117" stroke-width="3.0" fill="none" stroke="rgb(0, 0, 0)" stroke-opacity="1.0" stroke-linecap="round" stroke-linejoin="round"/>
    <path d="M 38.66750717163086 145.1471405029297 C 64.76693725585938 158.9213104248047 91.26554107666016 139.05218505859375 98.17658996582031 113.2122802734375" stroke-width="3.0" fill="none" stroke="rgb(0, 0, 0)" stroke-opacity="1.0" stroke-linecap="round" stroke-linejoin="round"/>
    <path d="M 149.37022399902344 89.00065612792969 C 109.45193481445312 107.58389282226562 114.01123046875 128.92398071289062 159.34439086914062 116.48565673828125" stroke-width="3.0" fill="none" stroke="rgb(0, 0, 0)" stroke-opacity="1.0" stroke-linecap="round" stroke-linejoin="round"/>
    <path d="M 44.97808837890625 148.2906951904297 C 14.117410659790039 135.11500549316406 6.484061241149902 96.45421600341797 42.644412994384766 78.7013168334961" stroke-width="3.0" fill="none" stroke="rgb(0, 0, 0)" stroke-opacity="1.0" stroke-linecap="round" stroke-linejoin="round"/>
    <path d="M 183.47589111328125 188.20799255371094 C 157.37193298339844 146.64218139648438 187.42324829101562 173.3165283203125 173.8351287841797 166.64915466308594" stroke-width="3.0" fill="none" stroke="rgb(0, 0, 0)" stroke-opacity="1.0" stroke-linecap="round" stroke-linejoin="round"/>
    <path d="M 165.92909240722656 159.33775329589844 C 68.83610534667969 156.1961212158203 146.26812744140625 167.8944549560547 127.0546875 161.76522827148438" stroke-width="3.0" fill="none" stroke="rgb(0, 0, 0)" stroke-opacity="1.0" stroke-linecap="round" stroke-linejoin="round"/>
    <path d="M 31.31735610961914 83.46202087402344 C 98.73187255859375 43.984073638916016 100.623291015625 133.05589294433594 104.35455322265625 113.50001525878906" stroke-width="3.0" fill="none" stroke="rgb(0, 0, 0)" stroke-opacity="1.0" stroke-linecap="round" stroke-linejoin="round"/>
    <path d="M 113.83039855957031 130.93551635742188 C 78.72820281982422 130.5414276123047 102.44659423828125 110.6535873413086 74.97948455810547 88.28559875488281" stroke-width="3.0" fill="none" stroke="rgb(0, 0, 0)" stroke-opacity="1.0" stroke-linecap="round" stroke-linejoin="round"/>
    <path d="M 69.14232635498047 187.61524963378906 C 99.8937759399414 148.91549682617188 109.76756286621094 146.72113037109375 148.39808654785156 153.22576904296875" stroke-width="3.0" fill="none" stroke="rgb(0, 0, 0)" stroke-opacity="1.0" stroke-linecap="round" stroke-linejoin="round"/>
    <path d="M 82.20116424560547 31.14484977722168 C 94.71903228759766 69.38589477539062 96.7368392944336 20.24458885192871 75.66178894042969 83.1493911743164" stroke-width="3.0" fill="none" stroke="rgb(0, 0, 0)" stroke-opacity="1.0" stroke-linecap="round" stroke-linejoin="round"/>
    <path d="M 138.32408142089844 151.88504028320312 C 221.35145568847656 177.80422973632812 122.70002746582031 151.63783264160156 153.65301513671875 187.5662841796875" stroke-width="3.0" fill="none" stroke="rgb(0, 0, 0)" stroke-opacity="1.0" stroke-linecap="round" stroke-linejoin="round"/>
    <path d="M 110.70747375488281 117.55633544921875 C 109.36292266845703 168.71847534179688 131.7247314453125 126.1163101196289 93.43899536132812 119.56942749023438" stroke-width="3.0" fill="none" stroke="rgb(0, 0, 0)" stroke-opacity="1.0" stroke-linecap="round" stroke-linejoin="round"/>
    <path d="M 176.88839721679688 54.65542221069336 C 170.9794464111328 55.85264205932617 194.71603393554688 8.873088836669922 159.31826782226562 59.112979888916016" stroke-width="3.0" fill="none" stroke="rgb(0, 0, 0)" stroke-opacity="1.0" stroke-linecap="round" stroke-linejoin="round"/>
    <path d="M 80.74913787841797 44.488319396972656 C 68.16319274902344 56.926918029785156 83.01005554199219 41.445640563964844 57.02201461791992 117.28836059570312" stroke-width="3.0" fill="none" stroke="rgb(0, 0, 0)" stroke-opacity="1.0" stroke-linecap="round" stroke-linejoin="round"/>
  </g>
</svg>
