<?xml version="1.0" ?>
<svg xmlns="http://www.w3.org/2000/svg" version="1.1" width="224" height="224">
  <defs/>
  <g>
    <path d="M 136.4756622314453 118.00446319580078 C 182.3726348876953 104.824462890625 177.4744873046875 109.41436004638672 183.33534240722656 102.74476623535156" stroke-width="3.0" fill="none" stroke="rgb(0, 0, 0)" stroke-opacity="1.0" stroke-linecap="round" stroke-linejoin="round"/>
    <path d="M 106.3868408203125 151.55978393554688 C 60.07365036010742 180.02798461914062 70.51295471191406 173.06985473632812 157.43077087402344 156.746826171875" stroke-width="3.0" fill="none" stroke="rgb(0, 0, 0)" stroke-opacity="1.0" stroke-linecap="round" stroke-linejoin="round"/>
    <path d="M 161.87350463867188 150.44198608398438 C 151.59963989257812 153.062255859375 108.16573333740234 132.45779418945312 144.75 83.28468322753906" stroke-width="3.0" fill="none" stroke="rgb(0, 0, 0)" stroke-opacity="1.0" stroke-linecap="round" stroke-linejoin="round"/>
    <path d="M 154.7770233154297 144.56065368652344 C 179.73223876953125 93.12918853759766 157.5282440185547 112.59721374511719 190.53143310546875 131.66258239746094" stroke-width="3.0" fill="none" stroke="rgb(0, 0, 0)" stroke-opacity="1.0" stroke-linecap="round" stroke-linejoin="round"/>
    <path d="M 154.17039489746094 74.19344329833984 C 226.33226013183594 67.79318237304688 231.18028259277344 164.74351501464844 148.6931915283203 153.5432586669922" stroke-width="3.0" fill="none" stroke="rgb(0, 0, 0)" stroke-opacity="1.0" stroke-linecap="round" stroke-linejoin="round"/>
    <path d="M 98.6095199584961 176.2244415283203 C 81.31298828125 176.22183227539062 96.78389739990234 198.18954467773438 106.88105010986328 152.71762084960938" stroke-width="3.0" fill="none" stroke="rgb(0, 0, 0)" stroke-opacity="1.0" stroke-linecap="round" stroke-linejoin="round"/>
    <path d="M 93.5174331665039 124.06095886230469 C 143.9261932373047 128.52102661132812 82.83379364013672 100.04498291015625 110.9791488647461 127.20448303222656" stroke-width="3.0" fill="none" stroke="rgb(0, 0, 0)" stroke-opacity="1.0" stroke-linecap="round" stroke-linejoin="round"/>
    <path d="M 53.1502685546875 174.85926818847656 C 207.78466796875 143.72650146484375 191.08523559570312 140.6890106201172 57.77909851074219 171.0050506591797" stroke-width="3.0" fill="none" stroke="rgb(0, 0, 0)" stroke-opacity="1.0" stroke-linecap="round" stroke-linejoin="round"/>
    <path d="M 185.613525390625 180.57655334472656 C 155.7067413330078 236.30523681640625 126.36264038085938 153.47962951660156 146.10174560546875 187.95628356933594" stroke-width="3.0" fill="none" stroke="rgb(0, 0, 0)" stroke-opacity="1.0" stroke-linecap="round" stroke-linejoin="round"/>
    <path d="M 156.7882080078125 81.87220764160156 C 195.44837951660156 71.68231964111328 218.36602783203125 128.35781860351562 179.25575256347656 146.95787048339844" stroke-width="3.0" fill="none" stroke="rgb(0, 0, 0)" stroke-opacity="1.0" stroke-linecap="round" stroke-linejoin="round"/>
    <path d="M 186.16049194335938 183.01513671875 C 181.5468292236328 152.49342346191406 174.12185668945312 232.39466857910156 184.8131866455078 167.51063537597656" stroke-width="3.0" fill="none" stroke="rgb(0, 0, 0)" stroke-opacity="1.0" stroke-linecap="round" stroke-linejoin="round"/>
    <path d="M 141.68292236328125 148.32192993164062 C 111.0861587524414 152.7365264892578 131.05772399902344 153.019775390625 146.786865234375 151.99876403808594" stroke-width="3.0" fill="none" stroke="rgb(0, 0, 0)" stroke-opacity="1.0" stroke-linecap="round" stroke-linejoin="round"/>
    <path d="M 164.77529907226562 145.7928466796875 C 175.43829345703125 115.9705810546875 153.9930419921875 85.59403991699219 174.294189453125 145.66598510742188" stroke-width="3.0" fill="none" stroke="rgb(0, 0, 0)" stroke-opacity="1.0" stroke-linecap="round" stroke-linejoin="round"/>
    <path d="M 144.65399169921875 176.81964111328125 C 162.86441040039062 228.26768493652344 197.37298583984375 151.82110595703125 141.9651336669922 174.51412963867188" stroke-width="3.0" fill="none" stroke="rgb(0, 0, 0)" stroke-opacity="1.0" stroke-linecap="round" stroke-linejoin="round"/>
    <path d="M 88.1794662475586 54.862003326416016 C 133.09902954101562 38.529354095458984 185.72117614746094 90.79109954833984 166.99366760253906 37.76926803588867" stroke-width="3.0" fill="none" stroke="rgb(0, 0, 0)" stroke-opacity="1.0" stroke-linecap="round" stroke-linejoin="round"/>
    <path d="M 62.14775085449219 28.952621459960938 C 81.0538101196289 28.776931762695312 78.53821563720703 30.5661563873291 109.84620666503906 106.05291748046875" stroke-width="3.0" fill="none" stroke="rgb(0, 0, 0)" stroke-opacity="1.0" stroke-linecap="round" stroke-linejoin="round"/>
    <path d="M 60.670684814453125 27.83057403564453 C 144.4307403564453 19.985233306884766 43.63500213623047 36.795318603515625 71.53297424316406 25.95298957824707" stroke-width="3.0" fill="none" stroke="rgb(0, 0, 0)" stroke-opacity="1.0" stroke-linecap="round" stroke-linejoin="round"/>
    <path d="M 42.14473342895508 188.5622100830078 C 191.869384765625 189.74539184570312 117.17947387695312 190.9745635986328 51.51165008544922 186.9411163330078" stroke-width="3.0" fill="none" stroke="rgb(0, 0, 0)" stroke-opacity="1.0" stroke-linecap="round" stroke-linejoin="round"/>
    <path d="M 133.37060546875 191.01905822753906 C 151.5241241455078 132.4000701904297 209.63052368164062 194.22279357910156 167.87533569335938 164.43569946289062" stroke-width="3.0" fill="none" stroke="rgb(0, 0, 0)" stroke-opacity="1.0" stroke-linecap="round" stroke-linejoin="round"/>
    <path d="M 53.87162399291992 182.6236114501953 C 140.33474731445312 180.50807189941406 122.72914123535156 192.1087646484375 56.75419235229492 183.94674682617188" stroke-width="3.0" fill="none" stroke="rgb(0, 0, 0)" stroke-opacity="1.0" stroke-linecap="round" stroke-linejoin="round"/>
    <path d="M 54.15657043457031 180.38279724121094 C 147.35581970214844 194.48568725585938 112.77928924560547 177.45582580566406 62.330326080322266 174.23858642578125" stroke-width="3.0" fill="none" stroke="rgb(0, 0, 0)" stroke-opacity="1.0" stroke-linecap="round" stroke-linejoin="round"/>
    <path d="M 101.54782104492188 188.30604553222656 C 95.6516342163086 161.84019470214844 117.47663116455078 159.092529296875 75.9361343383789 174.71725463867188" stroke-width="3.0" fill="none" stroke="rgb(0, 0, 0)" stroke-opacity="1.0" stroke-linecap="round" stroke-linejoin="round"/>
    <path d="M 181.03140258789062 94.23747253417969 C 174.43991088867188 95.5934066772461 188.3271942138672 66.06795501708984 175.39219665527344 99.81912994384766" stroke-width="3.0" fill="none" stroke="rgb(0, 0, 0)" stroke-opacity="1.0" stroke-linecap="round" stroke-linejoin="round"/>
    <path d="M 115.21156311035156 159.1280059814453 C 48.903499603271484 193.38433837890625 40.07232666015625 194.4957275390625 61.84267044067383 183.7144317626953" stroke-width="3.0" fill="none" stroke="rgb(0, 0, 0)" stroke-opacity="1.0" stroke-linecap="round" stroke-linejoin="round"/>
    <path d="M 70.21819305419922 83.73721313476562 C 78.24175262451172 57.20954895019531 66.34107971191406 40.28142547607422 166.4638214111328 45.756927490234375" stroke-width="3.0" fill="none" stroke="rgb(0, 0, 0)" stroke-opacity="1.0" stroke-linecap="round" stroke-linejoin="round"/>
    <path d="M 124.30281066894531 162.56846618652344 C 162.9219207763672 167.506591796875 124.52383422851562 144.4661407470703 130.01849365234375 161.29681396484375" stroke-width="3.0" fill="none" stroke="rgb(0, 0, 0)" stroke-opacity="1.0" stroke-linecap="round" stroke-linejoin="round"/>
    <path d="M 151.9617919921875 63.26348876953125 C 179.72286987304688 32.61825180053711 221.10775756835938 27.491832733154297 140.98818969726562 49.197021484375" stroke-width="3.0" fill="none" stroke="rgb(0, 0, 0)" stroke-opacity="1.0" stroke-linecap="round" stroke-linejoin="round"/>
    <path d="M 51.89269256591797 178.45660400390625 C 60.433868408203125 191.23182678222656 38.73533248901367 198.5192413330078 49.838172912597656 179.67184448242188" stroke-width="3.0" fill="none" stroke="rgb(0, 0, 0)" stroke-opacity="1.0" stroke-linecap="round" stroke-linejoin="round"/>
    <path d="M 187.94322204589844 98.34915161132812 C 170.50523376464844 117.73667907714844 170.9220428466797 136.27230834960938 182.0679168701172 88.31263732910156" stroke-width="3.0" fill="none" stroke="rgb(0, 0, 0)" stroke-opacity="1.0" stroke-linecap="round" stroke-linejoin="round"/>
    <path d="M 140.1257781982422 57.400489807128906 C 112.29351043701172 110.53916931152344 86.5815200805664 158.15194702148438 104.8177261352539 122.80111694335938" stroke-width="3.0" fill="none" stroke="rgb(0, 0, 0)" stroke-opacity="1.0" stroke-linecap="round" stroke-linejoin="round"/>
    <path d="M 178.3524932861328 36.57146453857422 C 151.06521606445312 69.78763580322266 114.00313568115234 -10.22525405883789 168.4327392578125 118.51016235351562" stroke-width="3.0" fill="none" stroke="rgb(0, 0, 0)" stroke-opacity="1.0" stroke-linecap="round" stroke-linejoin="round"/>
    <path d="M 75.87972259521484 182.00027465820312 C 94.65997314453125 150.2216339111328 83.7391128540039 172.3840789794922 56.70671463012695 190.1632080078125" stroke-width="3.0" fill="none" stroke="rgb(0, 0, 0)" stroke-opacity="1.0" stroke-linecap="round" stroke-linejoin="round"/>
    <path d="M 86.55475616455078 58.278194427490234 C 114.5746078491211 143.9395294189453 143.87484741210938 124.07171630859375 53.666648864746094 115.60704040527344" stroke-width="3.0" fill="none" stroke="rgb(0, 0, 0)" stroke-opacity="1.0" stroke-linecap="round" stroke-linejoin="round"/>
    <path d="M 183.41390991210938 143.3211212158203 C 164.85049438476562 110.18229675292969 167.94540405273438 120.80936431884766 194.3287811279297 110.41368103027344" stroke-width="3.0" fill="none" stroke="rgb(0, 0, 0)" stroke-opacity="1.0" stroke-linecap="round" stroke-linejoin="round"/>
    <path d="M 81.97418212890625 29.819595336914062 C 77.51304626464844 42.50823974609375 29.520416259765625 17.159259796142578 87.23059844970703 26.000072479248047" stroke-width="3.0" fill="none" stroke="rgb(0, 0, 0)" stroke-opacity="1.0" stroke-linecap="round" stroke-linejoin="round"/>
    <path d="M 43.024452209472656 149.46533203125 C 62.32099533081055 159.28793334960938 91.80413818359375 143.37100219726562 94.06725311279297 111.78208923339844" stroke-width="3.0" fill="none" stroke="rgb(0, 0, 0)" stroke-opacity="1.0" stroke-linecap="round" stroke-linejoin="round"/>
    <path d="M 170.1071319580078 113.06281280517578 C 124.38459014892578 147.82589721679688 125.64990234375 143.65235900878906 166.75048828125 109.44330596923828" stroke-width="3.0" fill="none" stroke="rgb(0, 0, 0)" stroke-opacity="1.0" stroke-linecap="round" stroke-linejoin="round"/>
    <path d="M 44.41913604736328 149.77330017089844 C 16.162311553955078 136.02078247070312 6.055679798126221 92.07713317871094 44.72266387939453 75.78760528564453" stroke-width="3.0" fill="none" stroke="rgb(0, 0, 0)" stroke-opacity="1.0" stroke-linecap="round" stroke-linejoin="round"/>
    <path d="M 184.86009216308594 181.7462615966797 C 169.94039916992188 163.23623657226562 189.6905975341797 171.85365295410156 172.30728149414062 162.75018310546875" stroke-width="3.0" fill="none" stroke="rgb(0, 0, 0)" stroke-opacity="1.0" stroke-linecap="round" stroke-linejoin="round"/>
    <path d="M 169.0809783935547 153.5504608154297 C 75.87468719482422 144.78758239746094 145.71807861328125 152.4886016845703 112.89753723144531 160.22528076171875" stroke-width="3.0" fill="none" stroke="rgb(0, 0, 0)" stroke-opacity="1.0" stroke-linecap="round" stroke-linejoin="round"/>
    <path d="M 30.84465789794922 82.82244873046875 C 89.8000717163086 45.68838882446289 109.04730987548828 138.2304229736328 99.8104476928711 115.77440643310547" stroke-width="3.0" fill="none" stroke="rgb(0, 0, 0)" stroke-opacity="1.0" stroke-linecap="round" stroke-linejoin="round"/>
    <path d="M 111.47095489501953 128.69717407226562 C 90.13134765625 141.9757080078125 97.6041030883789 105.83251953125 72.19034576416016 87.01457214355469" stroke-width="3.0" fill="none" stroke="rgb(0, 0, 0)" stroke-opacity="1.0" stroke-linecap="round" stroke-linejoin="round"/>
    <path d="M 69.68070983886719 184.1995086669922 C 100.02423858642578 144.00912475585938 114.63340759277344 153.22120666503906 132.2724151611328 151.5515899658203" stroke-width="3.0" fill="none" stroke="rgb(0, 0, 0)" stroke-opacity="1.0" stroke-linecap="round" stroke-linejoin="round"/>
    <path d="M 84.0854721069336 34.074798583984375 C 98.22186279296875 69.66466522216797 82.55178833007812 26.431859970092773 74.31126403808594 68.8437271118164" stroke-width="3.0" fill="none" stroke="rgb(0, 0, 0)" stroke-opacity="1.0" stroke-linecap="round" stroke-linejoin="round"/>
    <path d="M 142.250244140625 153.50852966308594 C 232.1956024169922 180.88133239746094 144.4641571044922 148.95928955078125 146.99989318847656 183.4481658935547" stroke-width="3.0" fill="none" stroke="rgb(0, 0, 0)" stroke-opacity="1.0" stroke-linecap="round" stroke-linejoin="round"/>
    <path d="M 109.01782989501953 120.18687438964844 C 120.07633972167969 161.0399627685547 125.73858642578125 119.80108642578125 91.29717254638672 121.63877868652344" stroke-width="3.0" fill="none" stroke="rgb(0, 0, 0)" stroke-opacity="1.0" stroke-linecap="round" stroke-linejoin="round"/>
    <path d="M 176.79183959960938 53.6282958984375 C 170.39739990234375 48.571067810058594 195.02798461914062 25.014442443847656 166.51995849609375 48.622432708740234" stroke-width="3.0" fill="none" stroke="rgb(0, 0, 0)" stroke-opacity="1.0" stroke-linecap="round" stroke-linejoin="round"/>
    <path d="M 92.37052917480469 55.316715240478516 C 89.37706756591797 60.93641662597656 87.0676040649414 41.61613082885742 58.119449615478516 114.15097045898438" stroke-width="3.0" fill="none" stroke="rgb(0, 0, 0)" stroke-opacity="1.0" stroke-linecap="round" stroke-linejoin="round"/>
  </g>
</svg>
