<?xml version="1.0" ?>
<svg xmlns="http://www.w3.org/2000/svg" version="1.1" width="224" height="224">
  <defs/>
  <g>
    <path d="M 136.27784729003906 127.20616149902344 C 152.61187744140625 123.0594711303711 164.79920959472656 116.47901916503906 176.87167358398438 109.41657257080078" stroke-width="3.0" fill="none" stroke="rgb(0, 0, 0)" stroke-opacity="1.0" stroke-linecap="round" stroke-linejoin="round"/>
    <path d="M 110.81331634521484 150.9974822998047 C 53.462284088134766 176.95469665527344 77.53408813476562 185.48440551757812 150.7087860107422 151.66725158691406" stroke-width="3.0" fill="none" stroke="rgb(0, 0, 0)" stroke-opacity="1.0" stroke-linecap="round" stroke-linejoin="round"/>
    <path d="M 147.02928161621094 140.8467254638672 C 155.20298767089844 149.53997802734375 103.83070373535156 128.9154510498047 146.62222290039062 81.27377319335938" stroke-width="3.0" fill="none" stroke="rgb(0, 0, 0)" stroke-opacity="1.0" stroke-linecap="round" stroke-linejoin="round"/>
    <path d="M 145.47921752929688 140.63229370117188 C 172.28475952148438 107.12995147705078 167.28048706054688 117.87445831298828 195.66224670410156 128.5904083251953" stroke-width="3.0" fill="none" stroke="rgb(0, 0, 0)" stroke-opacity="1.0" stroke-linecap="round" stroke-linejoin="round"/>
    <path d="M 193.1772918701172 85.2691650390625 C 220.94410705566406 104.89865112304688 211.34573364257812 156.5419158935547 156.10643005371094 152.4705047607422" stroke-width="3.0" fill="none" stroke="rgb(0, 0, 0)" stroke-opacity="1.0" stroke-linecap="round" stroke-linejoin="round"/>
    <path d="M 97.12580871582031 172.15663146972656 C 112.40882110595703 163.64559936523438 99.2584457397461 177.84494018554688 109.70100402832031 152.5491943359375" stroke-width="3.0" fill="none" stroke="rgb(0, 0, 0)" stroke-opacity="1.0" stroke-linecap="round" stroke-linejoin="round"/>
    <path d="M 96.11618041992188 118.87796020507812 C 131.65394592285156 139.92596435546875 102.66402435302734 92.67993927001953 111.93374633789062 127.1371841430664" stroke-width="3.0" fill="none" stroke="rgb(0, 0, 0)" stroke-opacity="1.0" stroke-linecap="round" stroke-linejoin="round"/>
    <path d="M 101.97832489013672 192.5207977294922 C 166.97918701171875 190.29896545410156 144.99728393554688 191.78009033203125 47.49418640136719 189.92604064941406" stroke-width="3.0" fill="none" stroke="rgb(0, 0, 0)" stroke-opacity="1.0" stroke-linecap="round" stroke-linejoin="round"/>
    <path d="M 182.1825714111328 184.28564453125 C 156.81338500976562 220.40748596191406 125.82563781738281 182.04660034179688 156.707275390625 168.17430114746094" stroke-width="3.0" fill="none" stroke="rgb(0, 0, 0)" stroke-opacity="1.0" stroke-linecap="round" stroke-linejoin="round"/>
    <path d="M 155.11749267578125 79.30899047851562 C 201.15333557128906 73.70733642578125 211.02955627441406 117.94219970703125 204.3825225830078 125.39146423339844" stroke-width="3.0" fill="none" stroke="rgb(0, 0, 0)" stroke-opacity="1.0" stroke-linecap="round" stroke-linejoin="round"/>
    <path d="M 180.57725524902344 172.95303344726562 C 181.44874572753906 180.98065185546875 168.8791046142578 201.7043914794922 182.0503387451172 181.91151428222656" stroke-width="3.0" fill="none" stroke="rgb(0, 0, 0)" stroke-opacity="1.0" stroke-linecap="round" stroke-linejoin="round"/>
    <path d="M 136.33407592773438 148.74148559570312 C 124.51910400390625 149.7412109375 134.0713653564453 150.76864624023438 131.1104278564453 149.43115234375" stroke-width="3.0" fill="none" stroke="rgb(0, 0, 0)" stroke-opacity="1.0" stroke-linecap="round" stroke-linejoin="round"/>
    <path d="M 159.2436065673828 146.88963317871094 C 169.11932373046875 120.05941772460938 166.93099975585938 102.9004135131836 174.33580017089844 146.96652221679688" stroke-width="3.0" fill="none" stroke="rgb(0, 0, 0)" stroke-opacity="1.0" stroke-linecap="round" stroke-linejoin="round"/>
    <path d="M 152.00030517578125 191.35986328125 C 175.9224853515625 203.16506958007812 178.9020538330078 156.59410095214844 148.09384155273438 170.47674560546875" stroke-width="3.0" fill="none" stroke="rgb(0, 0, 0)" stroke-opacity="1.0" stroke-linecap="round" stroke-linejoin="round"/>
    <path d="M 82.57733917236328 56.558738708496094 C 142.4887237548828 32.18985366821289 190.2462158203125 85.67438507080078 160.69688415527344 40.693485260009766" stroke-width="3.0" fill="none" stroke="rgb(0, 0, 0)" stroke-opacity="1.0" stroke-linecap="round" stroke-linejoin="round"/>
    <path d="M 77.67182922363281 38.92431640625 C 71.77774810791016 12.791857719421387 80.37357330322266 23.909029006958008 104.0032730102539 109.64437866210938" stroke-width="3.0" fill="none" stroke="rgb(0, 0, 0)" stroke-opacity="1.0" stroke-linecap="round" stroke-linejoin="round"/>
    <path d="M 64.32740020751953 25.086528778076172 C 113.90913391113281 26.21417999267578 81.83319854736328 32.12432861328125 62.24671173095703 26.568960189819336" stroke-width="3.0" fill="none" stroke="rgb(0, 0, 0)" stroke-opacity="1.0" stroke-linecap="round" stroke-linejoin="round"/>
    <path d="M 57.419185638427734 188.671630859375 C 98.25079345703125 195.57373046875 73.1689682006836 176.88267517089844 65.13551330566406 175.67022705078125" stroke-width="3.0" fill="none" stroke="rgb(0, 0, 0)" stroke-opacity="1.0" stroke-linecap="round" stroke-linejoin="round"/>
    <path d="M 144.0515899658203 175.52813720703125 C 153.4722137451172 142.4619598388672 204.03797912597656 186.8863067626953 163.69845581054688 162.908447265625" stroke-width="3.0" fill="none" stroke="rgb(0, 0, 0)" stroke-opacity="1.0" stroke-linecap="round" stroke-linejoin="round"/>
    <path d="M 69.76808166503906 174.96070861816406 C 104.25676727294922 168.4072265625 103.59420013427734 169.7315216064453 75.4843521118164 181.61476135253906" stroke-width="3.0" fill="none" stroke="rgb(0, 0, 0)" stroke-opacity="1.0" stroke-linecap="round" stroke-linejoin="round"/>
    <path d="M 52.3494987487793 178.82473754882812 C 115.27101135253906 172.45089721679688 112.67475128173828 187.27586364746094 51.1334342956543 182.58494567871094" stroke-width="3.0" fill="none" stroke="rgb(0, 0, 0)" stroke-opacity="1.0" stroke-linecap="round" stroke-linejoin="round"/>
    <path d="M 97.70943450927734 186.61715698242188 C 93.9228744506836 164.14418029785156 111.7059097290039 154.5912322998047 88.04608917236328 179.14013671875" stroke-width="3.0" fill="none" stroke="rgb(0, 0, 0)" stroke-opacity="1.0" stroke-linecap="round" stroke-linejoin="round"/>
    <path d="M 175.08563232421875 85.83494567871094 C 170.8095703125 127.5351333618164 176.0045166015625 70.7205810546875 172.7788848876953 99.99114990234375" stroke-width="3.0" fill="none" stroke="rgb(0, 0, 0)" stroke-opacity="1.0" stroke-linecap="round" stroke-linejoin="round"/>
    <path d="M 99.33444213867188 168.40194702148438 C 35.181396484375 173.127197265625 52.071746826171875 180.5045928955078 68.75951385498047 179.81689453125" stroke-width="3.0" fill="none" stroke="rgb(0, 0, 0)" stroke-opacity="1.0" stroke-linecap="round" stroke-linejoin="round"/>
    <path d="M 71.61565399169922 72.2706527709961 C 80.48725128173828 64.83179473876953 66.52947235107422 42.10424041748047 139.70034790039062 46.168800354003906" stroke-width="3.0" fill="none" stroke="rgb(0, 0, 0)" stroke-opacity="1.0" stroke-linecap="round" stroke-linejoin="round"/>
    <path d="M 127.66461181640625 150.94046020507812 C 156.28968811035156 145.83547973632812 122.3017578125 137.4912567138672 128.2871856689453 159.86703491210938" stroke-width="3.0" fill="none" stroke="rgb(0, 0, 0)" stroke-opacity="1.0" stroke-linecap="round" stroke-linejoin="round"/>
    <path d="M 161.02491760253906 60.13848114013672 C 167.51573181152344 32.39570236206055 220.13937377929688 35.96513748168945 142.78822326660156 46.501583099365234" stroke-width="3.0" fill="none" stroke="rgb(0, 0, 0)" stroke-opacity="1.0" stroke-linecap="round" stroke-linejoin="round"/>
    <path d="M 55.87173080444336 178.7425994873047 C 43.488319396972656 182.204833984375 47.93211364746094 204.6360626220703 61.162818908691406 173.3080291748047" stroke-width="3.0" fill="none" stroke="rgb(0, 0, 0)" stroke-opacity="1.0" stroke-linecap="round" stroke-linejoin="round"/>
    <path d="M 176.3603973388672 110.07227325439453 C 168.0999298095703 132.4895477294922 165.8695831298828 122.7416000366211 185.78057861328125 95.72447967529297" stroke-width="3.0" fill="none" stroke="rgb(0, 0, 0)" stroke-opacity="1.0" stroke-linecap="round" stroke-linejoin="round"/>
    <path d="M 149.49258422851562 48.64339065551758 C 115.5262451171875 96.81877899169922 100.11705017089844 136.77723693847656 110.20988464355469 120.42129516601562" stroke-width="3.0" fill="none" stroke="rgb(0, 0, 0)" stroke-opacity="1.0" stroke-linecap="round" stroke-linejoin="round"/>
    <path d="M 169.10926818847656 42.267337799072266 C 146.98876953125 80.25790405273438 123.82044219970703 16.211776733398438 167.16493225097656 114.36363220214844" stroke-width="3.0" fill="none" stroke="rgb(0, 0, 0)" stroke-opacity="1.0" stroke-linecap="round" stroke-linejoin="round"/>
    <path d="M 84.71764373779297 178.60560607910156 C 94.15069580078125 179.13880920410156 114.77812194824219 187.22137451171875 54.025089263916016 176.07913208007812" stroke-width="3.0" fill="none" stroke="rgb(0, 0, 0)" stroke-opacity="1.0" stroke-linecap="round" stroke-linejoin="round"/>
    <path d="M 83.23548126220703 54.634647369384766 C 107.12163543701172 137.5148162841797 109.98078155517578 154.05226135253906 71.78997802734375 89.04928588867188" stroke-width="3.0" fill="none" stroke="rgb(0, 0, 0)" stroke-opacity="1.0" stroke-linecap="round" stroke-linejoin="round"/>
    <path d="M 184.99923706054688 142.47914123535156 C 161.19290161132812 112.81861877441406 174.51092529296875 101.76931762695312 177.87843322753906 112.69658660888672" stroke-width="3.0" fill="none" stroke="rgb(0, 0, 0)" stroke-opacity="1.0" stroke-linecap="round" stroke-linejoin="round"/>
    <path d="M 81.3399658203125 31.61274528503418 C 23.673124313354492 30.03108024597168 69.98158264160156 30.985673904418945 80.76985931396484 35.49759292602539" stroke-width="3.0" fill="none" stroke="rgb(0, 0, 0)" stroke-opacity="1.0" stroke-linecap="round" stroke-linejoin="round"/>
    <path d="M 44.11368179321289 149.4973602294922 C 59.168556213378906 156.83241271972656 85.22529602050781 147.04205322265625 96.53746032714844 114.70643615722656" stroke-width="3.0" fill="none" stroke="rgb(0, 0, 0)" stroke-opacity="1.0" stroke-linecap="round" stroke-linejoin="round"/>
    <path d="M 162.18521118164062 123.54957580566406 C 133.3378448486328 157.21707153320312 148.93218994140625 127.55339050292969 147.1072235107422 141.86460876464844" stroke-width="3.0" fill="none" stroke="rgb(0, 0, 0)" stroke-opacity="1.0" stroke-linecap="round" stroke-linejoin="round"/>
    <path d="M 46.797454833984375 150.40179443359375 C 20.86515235900879 142.66285705566406 1.4478936195373535 102.61954498291016 38.21535110473633 80.10896301269531" stroke-width="3.0" fill="none" stroke="rgb(0, 0, 0)" stroke-opacity="1.0" stroke-linecap="round" stroke-linejoin="round"/>
    <path d="M 179.01206970214844 188.3955078125 C 178.25804138183594 188.16842651367188 195.84228515625 196.66256713867188 171.91412353515625 165.2044219970703" stroke-width="3.0" fill="none" stroke="rgb(0, 0, 0)" stroke-opacity="1.0" stroke-linecap="round" stroke-linejoin="round"/>
    <path d="M 168.064697265625 153.67112731933594 C 99.63285064697266 135.71292114257812 166.22483825683594 158.50131225585938 132.8462371826172 156.29827880859375" stroke-width="3.0" fill="none" stroke="rgb(0, 0, 0)" stroke-opacity="1.0" stroke-linecap="round" stroke-linejoin="round"/>
    <path d="M 28.241262435913086 84.1043472290039 C 79.3478775024414 50.12830352783203 115.17710876464844 126.24603271484375 92.0916519165039 118.50135040283203" stroke-width="3.0" fill="none" stroke="rgb(0, 0, 0)" stroke-opacity="1.0" stroke-linecap="round" stroke-linejoin="round"/>
    <path d="M 109.1130142211914 113.61054229736328 C 89.25999450683594 111.8341064453125 98.01679992675781 93.0342788696289 78.12273406982422 83.70429229736328" stroke-width="3.0" fill="none" stroke="rgb(0, 0, 0)" stroke-opacity="1.0" stroke-linecap="round" stroke-linejoin="round"/>
    <path d="M 77.02359008789062 174.1157989501953 C 102.56526184082031 143.69671630859375 132.51968383789062 150.3360595703125 144.7967529296875 151.211181640625" stroke-width="3.0" fill="none" stroke="rgb(0, 0, 0)" stroke-opacity="1.0" stroke-linecap="round" stroke-linejoin="round"/>
    <path d="M 85.39291381835938 34.41841506958008 C 91.83702850341797 58.460697174072266 98.47002410888672 51.33263397216797 79.39873504638672 66.96851348876953" stroke-width="3.0" fill="none" stroke="rgb(0, 0, 0)" stroke-opacity="1.0" stroke-linecap="round" stroke-linejoin="round"/>
    <path d="M 129.23138427734375 150.17990112304688 C 194.3980712890625 157.48873901367188 132.54444885253906 136.8822479248047 135.02456665039062 188.5159454345703" stroke-width="3.0" fill="none" stroke="rgb(0, 0, 0)" stroke-opacity="1.0" stroke-linecap="round" stroke-linejoin="round"/>
    <path d="M 112.36842346191406 124.13911437988281 C 121.57263946533203 159.0243377685547 123.51675415039062 120.52911376953125 101.38835144042969 131.32606506347656" stroke-width="3.0" fill="none" stroke="rgb(0, 0, 0)" stroke-opacity="1.0" stroke-linecap="round" stroke-linejoin="round"/>
    <path d="M 178.05882263183594 53.60137176513672 C 172.61990356445312 43.95952606201172 185.91278076171875 36.949153900146484 176.76625061035156 38.78894805908203" stroke-width="3.0" fill="none" stroke="rgb(0, 0, 0)" stroke-opacity="1.0" stroke-linecap="round" stroke-linejoin="round"/>
    <path d="M 84.54208374023438 54.379478454589844 C 76.0276870727539 81.28182220458984 85.78852844238281 41.89281463623047 62.89640808105469 115.00350952148438" stroke-width="3.0" fill="none" stroke="rgb(0, 0, 0)" stroke-opacity="1.0" stroke-linecap="round" stroke-linejoin="round"/>
  </g>
</svg>
