<?xml version="1.0" ?>
<svg xmlns="http://www.w3.org/2000/svg" version="1.1" width="224" height="224">
  <defs/>
  <g>
    <path d="M 129.7149658203125 122.97855377197266 C 189.3155517578125 106.30668640136719 167.94309997558594 101.69354248046875 164.42990112304688 110.66291046142578" stroke-width="3.0" fill="none" stroke="rgb(0, 0, 0)" stroke-opacity="1.0" stroke-linecap="round" stroke-linejoin="round"/>
    <path d="M 122.13987731933594 152.16876220703125 C 58.15644073486328 166.73208618164062 78.5575942993164 182.9641876220703 152.68905639648438 158.05960083007812" stroke-width="3.0" fill="none" stroke="rgb(0, 0, 0)" stroke-opacity="1.0" stroke-linecap="round" stroke-linejoin="round"/>
    <path d="M 177.01954650878906 147.61734008789062 C 151.34896850585938 155.29339599609375 105.48831939697266 124.39592742919922 149.37693786621094 68.25653076171875" stroke-width="3.0" fill="none" stroke="rgb(0, 0, 0)" stroke-opacity="1.0" stroke-linecap="round" stroke-linejoin="round"/>
    <path d="M 148.84979248046875 141.1622314453125 C 178.4383544921875 101.638671875 150.47149658203125 127.23118591308594 192.2563018798828 130.0718231201172" stroke-width="3.0" fill="none" stroke="rgb(0, 0, 0)" stroke-opacity="1.0" stroke-linecap="round" stroke-linejoin="round"/>
    <path d="M 156.87857055664062 77.1712417602539 C 222.2623291015625 68.09268188476562 237.82899475097656 169.2105255126953 144.09710693359375 153.9575653076172" stroke-width="3.0" fill="none" stroke="rgb(0, 0, 0)" stroke-opacity="1.0" stroke-linecap="round" stroke-linejoin="round"/>
    <path d="M 112.59300994873047 160.0922393798828 C 48.12321090698242 182.21241760253906 79.3252944946289 189.3716583251953 124.90814971923828 154.16201782226562" stroke-width="3.0" fill="none" stroke="rgb(0, 0, 0)" stroke-opacity="1.0" stroke-linecap="round" stroke-linejoin="round"/>
    <path d="M 95.46769714355469 124.68572235107422 C 134.77366638183594 126.52185821533203 79.81800079345703 102.73418426513672 115.34477233886719 115.00631713867188" stroke-width="3.0" fill="none" stroke="rgb(0, 0, 0)" stroke-opacity="1.0" stroke-linecap="round" stroke-linejoin="round"/>
    <path d="M 56.96099090576172 178.31729125976562 C 161.58152770996094 143.73182678222656 186.81689453125 157.2086639404297 57.417301177978516 172.90191650390625" stroke-width="3.0" fill="none" stroke="rgb(0, 0, 0)" stroke-opacity="1.0" stroke-linecap="round" stroke-linejoin="round"/>
    <path d="M 181.1033477783203 184.7742919921875 C 152.85105895996094 227.2895050048828 131.830810546875 161.61398315429688 150.65341186523438 186.58822631835938" stroke-width="3.0" fill="none" stroke="rgb(0, 0, 0)" stroke-opacity="1.0" stroke-linecap="round" stroke-linejoin="round"/>
    <path d="M 161.02264404296875 84.32955932617188 C 202.1078338623047 77.60448455810547 223.19775390625 139.75277709960938 169.07583618164062 147.9711456298828" stroke-width="3.0" fill="none" stroke="rgb(0, 0, 0)" stroke-opacity="1.0" stroke-linecap="round" stroke-linejoin="round"/>
    <path d="M 181.6803741455078 187.6375732421875 C 182.51077270507812 161.3451690673828 169.07276916503906 221.49484252929688 179.43765258789062 169.07106018066406" stroke-width="3.0" fill="none" stroke="rgb(0, 0, 0)" stroke-opacity="1.0" stroke-linecap="round" stroke-linejoin="round"/>
    <path d="M 87.49307250976562 176.37246704101562 C 72.52465057373047 170.774658203125 89.88824462890625 143.93113708496094 122.63668060302734 158.91758728027344" stroke-width="3.0" fill="none" stroke="rgb(0, 0, 0)" stroke-opacity="1.0" stroke-linecap="round" stroke-linejoin="round"/>
    <path d="M 160.74681091308594 143.3740234375 C 178.43231201171875 92.45303344726562 163.5189666748047 87.96490478515625 177.46707153320312 141.01075744628906" stroke-width="3.0" fill="none" stroke="rgb(0, 0, 0)" stroke-opacity="1.0" stroke-linecap="round" stroke-linejoin="round"/>
    <path d="M 144.21148681640625 178.5062255859375 C 164.9673309326172 224.83889770507812 185.88453674316406 153.75552368164062 148.8956756591797 186.19381713867188" stroke-width="3.0" fill="none" stroke="rgb(0, 0, 0)" stroke-opacity="1.0" stroke-linecap="round" stroke-linejoin="round"/>
    <path d="M 83.24248504638672 59.256961822509766 C 133.91891479492188 33.3270378112793 189.2054443359375 89.53064727783203 165.57864379882812 39.33976745605469" stroke-width="3.0" fill="none" stroke="rgb(0, 0, 0)" stroke-opacity="1.0" stroke-linecap="round" stroke-linejoin="round"/>
    <path d="M 63.9547119140625 28.04912567138672 C 77.16829681396484 24.765514373779297 78.2035140991211 29.226280212402344 110.62860107421875 121.98163604736328" stroke-width="3.0" fill="none" stroke="rgb(0, 0, 0)" stroke-opacity="1.0" stroke-linecap="round" stroke-linejoin="round"/>
    <path d="M 59.901248931884766 25.07221221923828 C 123.84506225585938 28.26416778564453 36.10490798950195 29.24410629272461 75.23827362060547 23.862140655517578" stroke-width="3.0" fill="none" stroke="rgb(0, 0, 0)" stroke-opacity="1.0" stroke-linecap="round" stroke-linejoin="round"/>
    <path d="M 58.363670349121094 183.43751525878906 C 199.68209838867188 165.76708984375 162.87469482421875 167.01019287109375 56.503387451171875 191.1103057861328" stroke-width="3.0" fill="none" stroke="rgb(0, 0, 0)" stroke-opacity="1.0" stroke-linecap="round" stroke-linejoin="round"/>
    <path d="M 143.5454559326172 187.76780700683594 C 144.5300750732422 134.2611846923828 212.84896850585938 193.96566772460938 161.98162841796875 165.63023376464844" stroke-width="3.0" fill="none" stroke="rgb(0, 0, 0)" stroke-opacity="1.0" stroke-linecap="round" stroke-linejoin="round"/>
    <path d="M 49.277523040771484 190.2208251953125 C 168.61181640625 182.5233917236328 170.75848388671875 176.01824951171875 53.68283462524414 176.25006103515625" stroke-width="3.0" fill="none" stroke="rgb(0, 0, 0)" stroke-opacity="1.0" stroke-linecap="round" stroke-linejoin="round"/>
    <path d="M 51.809181213378906 197.68992614746094 C 206.14781188964844 200.16246032714844 172.54934692382812 165.2692108154297 55.861534118652344 177.18780517578125" stroke-width="3.0" fill="none" stroke="rgb(0, 0, 0)" stroke-opacity="1.0" stroke-linecap="round" stroke-linejoin="round"/>
    <path d="M 100.5445785522461 184.3509979248047 C 112.69520568847656 142.6244354248047 130.25274658203125 159.64208984375 76.97425842285156 171.47726440429688" stroke-width="3.0" fill="none" stroke="rgb(0, 0, 0)" stroke-opacity="1.0" stroke-linecap="round" stroke-linejoin="round"/>
    <path d="M 193.10995483398438 89.61076354980469 C 178.81881713867188 77.44182586669922 143.94705200195312 60.23412322998047 174.59193420410156 110.34246063232422" stroke-width="3.0" fill="none" stroke="rgb(0, 0, 0)" stroke-opacity="1.0" stroke-linecap="round" stroke-linejoin="round"/>
    <path d="M 111.16307067871094 155.1702117919922 C 38.21586227416992 180.9554443359375 12.323527336120605 160.872314453125 83.8593978881836 174.30137634277344" stroke-width="3.0" fill="none" stroke="rgb(0, 0, 0)" stroke-opacity="1.0" stroke-linecap="round" stroke-linejoin="round"/>
    <path d="M 67.03186798095703 110.66740417480469 C 86.44721984863281 55.30373001098633 52.81962203979492 37.708648681640625 171.89866638183594 49.29277801513672" stroke-width="3.0" fill="none" stroke="rgb(0, 0, 0)" stroke-opacity="1.0" stroke-linecap="round" stroke-linejoin="round"/>
    <path d="M 113.28419494628906 158.4334716796875 C 159.30047607421875 153.76075744628906 124.10936737060547 148.05953979492188 117.119384765625 161.1798095703125" stroke-width="3.0" fill="none" stroke="rgb(0, 0, 0)" stroke-opacity="1.0" stroke-linecap="round" stroke-linejoin="round"/>
    <path d="M 156.16513061523438 61.861061096191406 C 182.90438842773438 31.831310272216797 212.06301879882812 35.5937385559082 147.2224578857422 49.36420822143555" stroke-width="3.0" fill="none" stroke="rgb(0, 0, 0)" stroke-opacity="1.0" stroke-linecap="round" stroke-linejoin="round"/>
    <path d="M 56.87501525878906 175.75454711914062 C 59.62559509277344 163.740966796875 42.753841400146484 213.0683135986328 49.4656867980957 179.632080078125" stroke-width="3.0" fill="none" stroke="rgb(0, 0, 0)" stroke-opacity="1.0" stroke-linecap="round" stroke-linejoin="round"/>
    <path d="M 176.8647918701172 91.60366821289062 C 172.95599365234375 120.35684204101562 160.8463592529297 124.13861846923828 186.88673400878906 99.13499450683594" stroke-width="3.0" fill="none" stroke="rgb(0, 0, 0)" stroke-opacity="1.0" stroke-linecap="round" stroke-linejoin="round"/>
    <path d="M 150.38674926757812 42.73140335083008 C 109.48291778564453 107.95255279541016 99.72794342041016 154.0568389892578 103.8199234008789 124.62345123291016" stroke-width="3.0" fill="none" stroke="rgb(0, 0, 0)" stroke-opacity="1.0" stroke-linecap="round" stroke-linejoin="round"/>
    <path d="M 177.20660400390625 39.872413635253906 C 129.97633361816406 59.7895622253418 130.98345947265625 -3.3450734615325928 165.39305114746094 123.15361785888672" stroke-width="3.0" fill="none" stroke="rgb(0, 0, 0)" stroke-opacity="1.0" stroke-linecap="round" stroke-linejoin="round"/>
    <path d="M 64.06482696533203 173.09950256347656 C 127.4576644897461 172.41845703125 115.35005950927734 174.32650756835938 59.07246780395508 172.07969665527344" stroke-width="3.0" fill="none" stroke="rgb(0, 0, 0)" stroke-opacity="1.0" stroke-linecap="round" stroke-linejoin="round"/>
    <path d="M 91.08671569824219 57.52284240722656 C 111.43025970458984 144.09298706054688 136.85235595703125 127.96577453613281 54.211708068847656 113.25784301757812" stroke-width="3.0" fill="none" stroke="rgb(0, 0, 0)" stroke-opacity="1.0" stroke-linecap="round" stroke-linejoin="round"/>
    <path d="M 184.65316772460938 136.2027130126953 C 172.38446044921875 105.08484649658203 156.1475372314453 126.99280548095703 193.90452575683594 111.14788818359375" stroke-width="3.0" fill="none" stroke="rgb(0, 0, 0)" stroke-opacity="1.0" stroke-linecap="round" stroke-linejoin="round"/>
    <path d="M 87.07058715820312 27.009536743164062 C 76.78665161132812 42.87544631958008 25.54426383972168 12.641313552856445 93.0045394897461 26.718059539794922" stroke-width="3.0" fill="none" stroke="rgb(0, 0, 0)" stroke-opacity="1.0" stroke-linecap="round" stroke-linejoin="round"/>
    <path d="M 39.68376159667969 147.8544158935547 C 59.258419036865234 158.157470703125 91.59407806396484 136.63702392578125 98.63617706298828 111.9289779663086" stroke-width="3.0" fill="none" stroke="rgb(0, 0, 0)" stroke-opacity="1.0" stroke-linecap="round" stroke-linejoin="round"/>
    <path d="M 142.1822967529297 72.79390716552734 C 118.39546203613281 104.29666137695312 120.34498596191406 151.84690856933594 159.03611755371094 121.9501724243164" stroke-width="3.0" fill="none" stroke="rgb(0, 0, 0)" stroke-opacity="1.0" stroke-linecap="round" stroke-linejoin="round"/>
    <path d="M 42.773521423339844 149.54591369628906 C 13.959811210632324 137.52255249023438 9.59133529663086 100.30615234375 39.663448333740234 80.00537872314453" stroke-width="3.0" fill="none" stroke="rgb(0, 0, 0)" stroke-opacity="1.0" stroke-linecap="round" stroke-linejoin="round"/>
    <path d="M 182.92942810058594 188.18690490722656 C 149.2412567138672 147.4770050048828 187.26307678222656 174.56297302246094 171.44558715820312 167.8005828857422" stroke-width="3.0" fill="none" stroke="rgb(0, 0, 0)" stroke-opacity="1.0" stroke-linecap="round" stroke-linejoin="round"/>
    <path d="M 163.27943420410156 158.36793518066406 C 55.302642822265625 145.3456268310547 145.41957092285156 166.75369262695312 131.41490173339844 156.8148193359375" stroke-width="3.0" fill="none" stroke="rgb(0, 0, 0)" stroke-opacity="1.0" stroke-linecap="round" stroke-linejoin="round"/>
    <path d="M 30.873579025268555 83.33028411865234 C 97.38386535644531 42.53192138671875 100.66439819335938 134.97207641601562 104.63787078857422 111.78351593017578" stroke-width="3.0" fill="none" stroke="rgb(0, 0, 0)" stroke-opacity="1.0" stroke-linecap="round" stroke-linejoin="round"/>
    <path d="M 114.85144805908203 128.54116821289062 C 76.08882141113281 136.24386596679688 105.07801055908203 111.96187591552734 74.45557403564453 86.4761962890625" stroke-width="3.0" fill="none" stroke="rgb(0, 0, 0)" stroke-opacity="1.0" stroke-linecap="round" stroke-linejoin="round"/>
    <path d="M 76.41452026367188 182.1325225830078 C 87.68443298339844 146.09872436523438 111.6016845703125 143.8352508544922 147.99246215820312 151.79847717285156" stroke-width="3.0" fill="none" stroke="rgb(0, 0, 0)" stroke-opacity="1.0" stroke-linecap="round" stroke-linejoin="round"/>
    <path d="M 80.54936218261719 29.137121200561523 C 95.84144592285156 72.22923278808594 95.58555603027344 19.123611450195312 73.86373901367188 82.06068420410156" stroke-width="3.0" fill="none" stroke="rgb(0, 0, 0)" stroke-opacity="1.0" stroke-linecap="round" stroke-linejoin="round"/>
    <path d="M 150.23416137695312 154.97532653808594 C 224.05905151367188 180.7959442138672 122.71317291259766 149.57777404785156 155.86610412597656 187.46563720703125" stroke-width="3.0" fill="none" stroke="rgb(0, 0, 0)" stroke-opacity="1.0" stroke-linecap="round" stroke-linejoin="round"/>
    <path d="M 115.626220703125 111.89897918701172 C 112.64051818847656 160.7277069091797 138.7598876953125 118.9970474243164 98.55155181884766 117.11302947998047" stroke-width="3.0" fill="none" stroke="rgb(0, 0, 0)" stroke-opacity="1.0" stroke-linecap="round" stroke-linejoin="round"/>
    <path d="M 178.304931640625 54.996543884277344 C 172.1934356689453 54.71513366699219 193.88340759277344 8.791417121887207 157.65142822265625 62.92768096923828" stroke-width="3.0" fill="none" stroke="rgb(0, 0, 0)" stroke-opacity="1.0" stroke-linecap="round" stroke-linejoin="round"/>
    <path d="M 80.41243743896484 43.40394592285156 C 68.32426452636719 57.35460662841797 84.20487976074219 45.37144470214844 55.31501388549805 115.63521575927734" stroke-width="3.0" fill="none" stroke="rgb(0, 0, 0)" stroke-opacity="1.0" stroke-linecap="round" stroke-linejoin="round"/>
  </g>
</svg>
