<?xml version="1.0" ?>
<svg xmlns="http://www.w3.org/2000/svg" version="1.1" width="224" height="224">
  <defs/>
  <g>
    <path d="M 131.22738647460938 118.7063980102539 C 184.85484313964844 119.0298080444336 172.53680419921875 107.23112487792969 182.47975158691406 104.06222534179688" stroke-width="3.0" fill="none" stroke="rgb(0, 0, 0)" stroke-opacity="1.0" stroke-linecap="round" stroke-linejoin="round"/>
    <path d="M 104.0523910522461 156.10174560546875 C 58.94209671020508 179.59483337402344 70.99250030517578 173.28836059570312 153.5625457763672 153.94744873046875" stroke-width="3.0" fill="none" stroke="rgb(0, 0, 0)" stroke-opacity="1.0" stroke-linecap="round" stroke-linejoin="round"/>
    <path d="M 157.91261291503906 153.84730529785156 C 153.70921325683594 152.53311157226562 106.72554779052734 126.17655944824219 145.5086212158203 79.38264465332031" stroke-width="3.0" fill="none" stroke="rgb(0, 0, 0)" stroke-opacity="1.0" stroke-linecap="round" stroke-linejoin="round"/>
    <path d="M 152.09315490722656 144.42417907714844 C 182.87461853027344 98.40929412841797 155.8107147216797 113.55783081054688 189.8886260986328 129.15655517578125" stroke-width="3.0" fill="none" stroke="rgb(0, 0, 0)" stroke-opacity="1.0" stroke-linecap="round" stroke-linejoin="round"/>
    <path d="M 156.1273193359375 75.5064926147461 C 228.24838256835938 74.03585815429688 227.8118438720703 169.51974487304688 154.45433044433594 155.28143310546875" stroke-width="3.0" fill="none" stroke="rgb(0, 0, 0)" stroke-opacity="1.0" stroke-linecap="round" stroke-linejoin="round"/>
    <path d="M 102.38264465332031 170.27911376953125 C 88.83433532714844 163.4142303466797 93.22222137451172 189.3098907470703 110.22447967529297 156.36781311035156" stroke-width="3.0" fill="none" stroke="rgb(0, 0, 0)" stroke-opacity="1.0" stroke-linecap="round" stroke-linejoin="round"/>
    <path d="M 86.59049224853516 117.15030670166016 C 140.79103088378906 127.35153198242188 89.03540802001953 99.25885009765625 105.83745574951172 120.9055404663086" stroke-width="3.0" fill="none" stroke="rgb(0, 0, 0)" stroke-opacity="1.0" stroke-linecap="round" stroke-linejoin="round"/>
    <path d="M 52.03318405151367 173.21815490722656 C 216.16329956054688 152.47547912597656 189.13584899902344 146.44187927246094 63.96664047241211 164.5948486328125" stroke-width="3.0" fill="none" stroke="rgb(0, 0, 0)" stroke-opacity="1.0" stroke-linecap="round" stroke-linejoin="round"/>
    <path d="M 181.75086975097656 174.65713500976562 C 165.58311462402344 233.23182678222656 119.79545593261719 161.4439697265625 150.0445556640625 189.72756958007812" stroke-width="3.0" fill="none" stroke="rgb(0, 0, 0)" stroke-opacity="1.0" stroke-linecap="round" stroke-linejoin="round"/>
    <path d="M 157.00697326660156 85.83382415771484 C 195.19329833984375 75.89704132080078 222.25546264648438 128.207763671875 178.7315216064453 148.36187744140625" stroke-width="3.0" fill="none" stroke="rgb(0, 0, 0)" stroke-opacity="1.0" stroke-linecap="round" stroke-linejoin="round"/>
    <path d="M 179.283203125 171.1156463623047 C 174.25799560546875 154.43206787109375 195.42584228515625 194.95556640625 180.2132110595703 169.1600799560547" stroke-width="3.0" fill="none" stroke="rgb(0, 0, 0)" stroke-opacity="1.0" stroke-linecap="round" stroke-linejoin="round"/>
    <path d="M 146.48904418945312 157.36322021484375 C 106.16423797607422 157.33029174804688 122.24779510498047 152.2838897705078 137.6478271484375 152.78030395507812" stroke-width="3.0" fill="none" stroke="rgb(0, 0, 0)" stroke-opacity="1.0" stroke-linecap="round" stroke-linejoin="round"/>
    <path d="M 163.05191040039062 149.0131378173828 C 169.89138793945312 108.46475982666016 159.6212158203125 87.71524047851562 173.6181182861328 148.81362915039062" stroke-width="3.0" fill="none" stroke="rgb(0, 0, 0)" stroke-opacity="1.0" stroke-linecap="round" stroke-linejoin="round"/>
    <path d="M 142.5355987548828 176.21807861328125 C 159.82281494140625 222.7223358154297 194.1772003173828 158.22857666015625 144.61595153808594 172.7581024169922" stroke-width="3.0" fill="none" stroke="rgb(0, 0, 0)" stroke-opacity="1.0" stroke-linecap="round" stroke-linejoin="round"/>
    <path d="M 90.12535095214844 55.59884262084961 C 122.74146270751953 36.981346130371094 196.74583435058594 89.87248992919922 165.155517578125 39.05936813354492" stroke-width="3.0" fill="none" stroke="rgb(0, 0, 0)" stroke-opacity="1.0" stroke-linecap="round" stroke-linejoin="round"/>
    <path d="M 61.67746353149414 26.986919403076172 C 81.36758422851562 30.065744400024414 81.73231506347656 26.678133010864258 101.39329528808594 119.04913330078125" stroke-width="3.0" fill="none" stroke="rgb(0, 0, 0)" stroke-opacity="1.0" stroke-linecap="round" stroke-linejoin="round"/>
    <path d="M 63.202938079833984 23.803647994995117 C 124.49783325195312 26.126873016357422 45.72590255737305 34.51457977294922 65.64972686767578 25.03020668029785" stroke-width="3.0" fill="none" stroke="rgb(0, 0, 0)" stroke-opacity="1.0" stroke-linecap="round" stroke-linejoin="round"/>
    <path d="M 47.62812423706055 189.49972534179688 C 181.8955841064453 190.90399169921875 114.25587463378906 190.2971954345703 66.30073547363281 187.3006591796875" stroke-width="3.0" fill="none" stroke="rgb(0, 0, 0)" stroke-opacity="1.0" stroke-linecap="round" stroke-linejoin="round"/>
    <path d="M 132.58790588378906 190.4198455810547 C 141.35159301757812 141.90213012695312 207.45211791992188 197.1788787841797 165.31829833984375 162.55979919433594" stroke-width="3.0" fill="none" stroke="rgb(0, 0, 0)" stroke-opacity="1.0" stroke-linecap="round" stroke-linejoin="round"/>
    <path d="M 53.41057205200195 182.8855438232422 C 119.92546081542969 183.06846618652344 101.18726348876953 199.7543487548828 54.807029724121094 175.78602600097656" stroke-width="3.0" fill="none" stroke="rgb(0, 0, 0)" stroke-opacity="1.0" stroke-linecap="round" stroke-linejoin="round"/>
    <path d="M 50.868526458740234 190.23056030273438 C 125.7232437133789 192.8109588623047 102.88184356689453 178.53521728515625 57.012779235839844 177.69717407226562" stroke-width="3.0" fill="none" stroke="rgb(0, 0, 0)" stroke-opacity="1.0" stroke-linecap="round" stroke-linejoin="round"/>
    <path d="M 99.90811920166016 187.38717651367188 C 97.63850402832031 166.23484802246094 120.7700424194336 170.93899536132812 56.023067474365234 184.35940551757812" stroke-width="3.0" fill="none" stroke="rgb(0, 0, 0)" stroke-opacity="1.0" stroke-linecap="round" stroke-linejoin="round"/>
    <path d="M 182.1165313720703 93.6839828491211 C 176.98912048339844 102.9605941772461 193.90306091308594 69.53642272949219 175.56268310546875 110.0761947631836" stroke-width="3.0" fill="none" stroke="rgb(0, 0, 0)" stroke-opacity="1.0" stroke-linecap="round" stroke-linejoin="round"/>
    <path d="M 115.81208801269531 164.8461151123047 C 31.628925323486328 179.68345642089844 37.9185905456543 196.1041717529297 59.94271469116211 190.2932586669922" stroke-width="3.0" fill="none" stroke="rgb(0, 0, 0)" stroke-opacity="1.0" stroke-linecap="round" stroke-linejoin="round"/>
    <path d="M 69.33394622802734 83.43096160888672 C 82.30978393554688 59.51173400878906 60.363075256347656 35.206180572509766 169.7713623046875 49.583248138427734" stroke-width="3.0" fill="none" stroke="rgb(0, 0, 0)" stroke-opacity="1.0" stroke-linecap="round" stroke-linejoin="round"/>
    <path d="M 135.39419555664062 158.86708068847656 C 158.2786407470703 159.0470733642578 124.01280975341797 141.22740173339844 127.80033874511719 162.2622833251953" stroke-width="3.0" fill="none" stroke="rgb(0, 0, 0)" stroke-opacity="1.0" stroke-linecap="round" stroke-linejoin="round"/>
    <path d="M 157.6500244140625 60.23930358886719 C 177.52613830566406 31.061296463012695 219.05477905273438 25.59046745300293 146.9939727783203 50.30005645751953" stroke-width="3.0" fill="none" stroke="rgb(0, 0, 0)" stroke-opacity="1.0" stroke-linecap="round" stroke-linejoin="round"/>
    <path d="M 58.0825309753418 178.16455078125 C 56.559139251708984 186.06776428222656 37.56536865234375 199.273193359375 51.20164108276367 175.40692138671875" stroke-width="3.0" fill="none" stroke="rgb(0, 0, 0)" stroke-opacity="1.0" stroke-linecap="round" stroke-linejoin="round"/>
    <path d="M 187.7611846923828 102.10881805419922 C 173.77845764160156 113.83135223388672 177.24078369140625 126.9831771850586 177.18443298339844 86.88619995117188" stroke-width="3.0" fill="none" stroke="rgb(0, 0, 0)" stroke-opacity="1.0" stroke-linecap="round" stroke-linejoin="round"/>
    <path d="M 142.1615447998047 59.50553894042969 C 113.2068099975586 107.912353515625 95.74256896972656 163.281982421875 107.24474334716797 113.5162353515625" stroke-width="3.0" fill="none" stroke="rgb(0, 0, 0)" stroke-opacity="1.0" stroke-linecap="round" stroke-linejoin="round"/>
    <path d="M 178.99549865722656 36.17335510253906 C 156.4860382080078 71.35381317138672 118.09658813476562 -3.1931698322296143 170.17604064941406 117.99261474609375" stroke-width="3.0" fill="none" stroke="rgb(0, 0, 0)" stroke-opacity="1.0" stroke-linecap="round" stroke-linejoin="round"/>
    <path d="M 58.0615119934082 173.8804473876953 C 118.91554260253906 169.9049072265625 117.61248779296875 184.68772888183594 43.30893325805664 187.2064666748047" stroke-width="3.0" fill="none" stroke="rgb(0, 0, 0)" stroke-opacity="1.0" stroke-linecap="round" stroke-linejoin="round"/>
    <path d="M 91.67143249511719 57.278656005859375 C 113.35848236083984 138.53158569335938 130.0052032470703 117.04557800292969 52.158599853515625 112.7302017211914" stroke-width="3.0" fill="none" stroke="rgb(0, 0, 0)" stroke-opacity="1.0" stroke-linecap="round" stroke-linejoin="round"/>
    <path d="M 182.30857849121094 142.5424346923828 C 166.1554718017578 115.96380615234375 170.0117950439453 122.51734924316406 195.39378356933594 108.94184875488281" stroke-width="3.0" fill="none" stroke="rgb(0, 0, 0)" stroke-opacity="1.0" stroke-linecap="round" stroke-linejoin="round"/>
    <path d="M 79.49286651611328 30.280452728271484 C 76.96133422851562 36.32269287109375 55.4243278503418 21.441951751708984 85.20155334472656 27.194435119628906" stroke-width="3.0" fill="none" stroke="rgb(0, 0, 0)" stroke-opacity="1.0" stroke-linecap="round" stroke-linejoin="round"/>
    <path d="M 42.2786750793457 147.1414794921875 C 64.79822540283203 156.39971923828125 87.03596496582031 142.98475646972656 92.52865600585938 117.94800567626953" stroke-width="3.0" fill="none" stroke="rgb(0, 0, 0)" stroke-opacity="1.0" stroke-linecap="round" stroke-linejoin="round"/>
    <path d="M 172.44471740722656 117.57402038574219 C 124.85930633544922 137.5395965576172 141.21897888183594 134.1067657470703 144.20443725585938 131.57521057128906" stroke-width="3.0" fill="none" stroke="rgb(0, 0, 0)" stroke-opacity="1.0" stroke-linecap="round" stroke-linejoin="round"/>
    <path d="M 45.67326354980469 148.39405822753906 C 15.129354476928711 140.64723205566406 5.664122581481934 94.47209930419922 45.4691162109375 76.1329116821289" stroke-width="3.0" fill="none" stroke="rgb(0, 0, 0)" stroke-opacity="1.0" stroke-linecap="round" stroke-linejoin="round"/>
    <path d="M 184.1452178955078 178.68527221679688 C 158.05581665039062 178.46556091308594 193.77487182617188 173.15475463867188 166.64425659179688 162.54653930664062" stroke-width="3.0" fill="none" stroke="rgb(0, 0, 0)" stroke-opacity="1.0" stroke-linecap="round" stroke-linejoin="round"/>
    <path d="M 175.9318389892578 156.5976104736328 C 81.33828735351562 145.1123809814453 172.19821166992188 153.2171630859375 126.05636596679688 158.36834716796875" stroke-width="3.0" fill="none" stroke="rgb(0, 0, 0)" stroke-opacity="1.0" stroke-linecap="round" stroke-linejoin="round"/>
    <path d="M 28.89342498779297 84.6868667602539 C 93.94374084472656 43.000267028808594 109.64752197265625 142.08482360839844 90.10572052001953 119.54869079589844" stroke-width="3.0" fill="none" stroke="rgb(0, 0, 0)" stroke-opacity="1.0" stroke-linecap="round" stroke-linejoin="round"/>
    <path d="M 110.44918060302734 122.84393310546875 C 91.00050354003906 148.63052368164062 97.96219635009766 103.81129455566406 70.60900115966797 85.06187438964844" stroke-width="3.0" fill="none" stroke="rgb(0, 0, 0)" stroke-opacity="1.0" stroke-linecap="round" stroke-linejoin="round"/>
    <path d="M 71.48416137695312 190.1295166015625 C 89.76921844482422 143.0941619873047 118.20491790771484 150.243896484375 140.97607421875 150.68804931640625" stroke-width="3.0" fill="none" stroke="rgb(0, 0, 0)" stroke-opacity="1.0" stroke-linecap="round" stroke-linejoin="round"/>
    <path d="M 85.0718002319336 34.937618255615234 C 97.5820083618164 69.63038635253906 85.4112777709961 27.298179626464844 70.76516723632812 71.2138671875" stroke-width="3.0" fill="none" stroke="rgb(0, 0, 0)" stroke-opacity="1.0" stroke-linecap="round" stroke-linejoin="round"/>
    <path d="M 148.4804229736328 147.0888214111328 C 222.23678588867188 182.21221923828125 141.3051300048828 148.07028198242188 145.16014099121094 181.10693359375" stroke-width="3.0" fill="none" stroke="rgb(0, 0, 0)" stroke-opacity="1.0" stroke-linecap="round" stroke-linejoin="round"/>
    <path d="M 112.31815338134766 114.91471862792969 C 127.15863800048828 169.3258056640625 123.6457290649414 123.7842788696289 103.17881774902344 125.44559478759766" stroke-width="3.0" fill="none" stroke="rgb(0, 0, 0)" stroke-opacity="1.0" stroke-linecap="round" stroke-linejoin="round"/>
    <path d="M 176.70086669921875 53.37443542480469 C 171.498291015625 43.90850067138672 190.427001953125 35.08955383300781 163.1714630126953 46.047027587890625" stroke-width="3.0" fill="none" stroke="rgb(0, 0, 0)" stroke-opacity="1.0" stroke-linecap="round" stroke-linejoin="round"/>
    <path d="M 95.00416564941406 55.36319351196289 C 87.54875946044922 62.531986236572266 89.8675308227539 47.21680450439453 54.81332015991211 115.02259826660156" stroke-width="3.0" fill="none" stroke="rgb(0, 0, 0)" stroke-opacity="1.0" stroke-linecap="round" stroke-linejoin="round"/>
  </g>
</svg>
