<?xml version="1.0" ?>
<svg xmlns="http://www.w3.org/2000/svg" version="1.1" width="224" height="224">
  <defs/>
  <g>
    <path d="M 131.88980102539062 119.81206512451172 C 182.6507568359375 110.11976623535156 174.83950805664062 107.55045318603516 185.99307250976562 103.89225006103516" stroke-width="3.0" fill="none" stroke="rgb(0, 0, 0)" stroke-opacity="1.0" stroke-linecap="round" stroke-linejoin="round"/>
    <path d="M 95.65563201904297 152.38861083984375 C 59.62535858154297 179.79200744628906 70.67422485351562 173.94252014160156 156.88174438476562 156.50306701660156" stroke-width="3.0" fill="none" stroke="rgb(0, 0, 0)" stroke-opacity="1.0" stroke-linecap="round" stroke-linejoin="round"/>
    <path d="M 155.18003845214844 153.6631317138672 C 149.19400024414062 153.15843200683594 102.15187072753906 128.8632049560547 143.4880828857422 70.91704559326172" stroke-width="3.0" fill="none" stroke="rgb(0, 0, 0)" stroke-opacity="1.0" stroke-linecap="round" stroke-linejoin="round"/>
    <path d="M 148.6863250732422 145.8889923095703 C 181.85720825195312 92.49514770507812 158.14874267578125 110.5679702758789 189.58560180664062 129.04074096679688" stroke-width="3.0" fill="none" stroke="rgb(0, 0, 0)" stroke-opacity="1.0" stroke-linecap="round" stroke-linejoin="round"/>
    <path d="M 152.76275634765625 74.84532165527344 C 230.0519561767578 72.09241485595703 229.16807556152344 166.9833221435547 147.54336547851562 158.05198669433594" stroke-width="3.0" fill="none" stroke="rgb(0, 0, 0)" stroke-opacity="1.0" stroke-linecap="round" stroke-linejoin="round"/>
    <path d="M 98.44888305664062 167.023681640625 C 94.49207305908203 166.96047973632812 101.01885223388672 192.5924835205078 110.912353515625 153.5235137939453" stroke-width="3.0" fill="none" stroke="rgb(0, 0, 0)" stroke-opacity="1.0" stroke-linecap="round" stroke-linejoin="round"/>
    <path d="M 89.4710693359375 121.90355682373047 C 138.2197265625 129.47213745117188 84.7434310913086 94.29931640625 108.07067108154297 126.13851165771484" stroke-width="3.0" fill="none" stroke="rgb(0, 0, 0)" stroke-opacity="1.0" stroke-linecap="round" stroke-linejoin="round"/>
    <path d="M 53.78376770019531 174.10888671875 C 209.0859375 153.18141174316406 189.8302764892578 149.4120635986328 64.0982894897461 169.46983337402344" stroke-width="3.0" fill="none" stroke="rgb(0, 0, 0)" stroke-opacity="1.0" stroke-linecap="round" stroke-linejoin="round"/>
    <path d="M 182.52401733398438 176.8986358642578 C 160.98646545410156 237.0546875 120.6369857788086 158.39295959472656 149.03321838378906 189.1298370361328" stroke-width="3.0" fill="none" stroke="rgb(0, 0, 0)" stroke-opacity="1.0" stroke-linecap="round" stroke-linejoin="round"/>
    <path d="M 157.07154846191406 83.8858871459961 C 194.4556884765625 77.67216491699219 220.77796936035156 126.66766357421875 179.17001342773438 147.1029510498047" stroke-width="3.0" fill="none" stroke="rgb(0, 0, 0)" stroke-opacity="1.0" stroke-linecap="round" stroke-linejoin="round"/>
    <path d="M 180.566650390625 176.46566772460938 C 176.95391845703125 149.5049285888672 191.14776611328125 206.0997772216797 176.3186492919922 172.92320251464844" stroke-width="3.0" fill="none" stroke="rgb(0, 0, 0)" stroke-opacity="1.0" stroke-linecap="round" stroke-linejoin="round"/>
    <path d="M 150.27044677734375 152.46334838867188 C 100.46276092529297 147.63909912109375 117.4832763671875 144.87974548339844 142.03338623046875 151.9388885498047" stroke-width="3.0" fill="none" stroke="rgb(0, 0, 0)" stroke-opacity="1.0" stroke-linecap="round" stroke-linejoin="round"/>
    <path d="M 164.74693298339844 148.24002075195312 C 167.8349609375 108.23021697998047 155.903076171875 83.3305435180664 173.43980407714844 148.6152801513672" stroke-width="3.0" fill="none" stroke="rgb(0, 0, 0)" stroke-opacity="1.0" stroke-linecap="round" stroke-linejoin="round"/>
    <path d="M 141.17095947265625 173.75811767578125 C 160.9713134765625 227.87802124023438 194.78787231445312 155.90750122070312 142.43820190429688 173.145751953125" stroke-width="3.0" fill="none" stroke="rgb(0, 0, 0)" stroke-opacity="1.0" stroke-linecap="round" stroke-linejoin="round"/>
    <path d="M 86.50530242919922 56.00872802734375 C 125.34127807617188 36.255126953125 191.5966796875 90.41000366210938 165.3731231689453 38.329750061035156" stroke-width="3.0" fill="none" stroke="rgb(0, 0, 0)" stroke-opacity="1.0" stroke-linecap="round" stroke-linejoin="round"/>
    <path d="M 61.888336181640625 26.710092544555664 C 80.40345764160156 29.559720993041992 78.85346221923828 30.106014251708984 106.41693115234375 111.0252456665039" stroke-width="3.0" fill="none" stroke="rgb(0, 0, 0)" stroke-opacity="1.0" stroke-linecap="round" stroke-linejoin="round"/>
    <path d="M 62.571495056152344 26.023754119873047 C 131.94082641601562 23.982601165771484 37.46832275390625 33.81782531738281 67.87947082519531 25.727481842041016" stroke-width="3.0" fill="none" stroke="rgb(0, 0, 0)" stroke-opacity="1.0" stroke-linecap="round" stroke-linejoin="round"/>
    <path d="M 48.2112922668457 192.48670959472656 C 179.52951049804688 197.80441284179688 110.97566223144531 197.12229919433594 57.92367172241211 190.10968017578125" stroke-width="3.0" fill="none" stroke="rgb(0, 0, 0)" stroke-opacity="1.0" stroke-linecap="round" stroke-linejoin="round"/>
    <path d="M 127.52091217041016 194.9915771484375 C 154.04531860351562 133.70574951171875 209.5366668701172 192.570068359375 164.6825714111328 166.94366455078125" stroke-width="3.0" fill="none" stroke="rgb(0, 0, 0)" stroke-opacity="1.0" stroke-linecap="round" stroke-linejoin="round"/>
    <path d="M 59.62716293334961 179.88418579101562 C 132.65859985351562 174.42691040039062 115.80199432373047 187.6660614013672 58.11677551269531 176.62399291992188" stroke-width="3.0" fill="none" stroke="rgb(0, 0, 0)" stroke-opacity="1.0" stroke-linecap="round" stroke-linejoin="round"/>
    <path d="M 49.33961486816406 189.0140838623047 C 139.148681640625 193.12026977539062 113.82440185546875 174.3377685546875 59.175376892089844 176.25904846191406" stroke-width="3.0" fill="none" stroke="rgb(0, 0, 0)" stroke-opacity="1.0" stroke-linecap="round" stroke-linejoin="round"/>
    <path d="M 101.43524932861328 191.88519287109375 C 100.59788513183594 160.84628295898438 118.00103759765625 159.4989471435547 65.63683319091797 181.93551635742188" stroke-width="3.0" fill="none" stroke="rgb(0, 0, 0)" stroke-opacity="1.0" stroke-linecap="round" stroke-linejoin="round"/>
    <path d="M 182.31114196777344 93.56568908691406 C 177.7316436767578 103.14561462402344 194.11387634277344 72.93576049804688 175.57028198242188 108.19307708740234" stroke-width="3.0" fill="none" stroke="rgb(0, 0, 0)" stroke-opacity="1.0" stroke-linecap="round" stroke-linejoin="round"/>
    <path d="M 116.85809326171875 162.57275390625 C 44.35664367675781 187.77235412597656 46.27195739746094 197.9019775390625 63.06013488769531 178.29583740234375" stroke-width="3.0" fill="none" stroke="rgb(0, 0, 0)" stroke-opacity="1.0" stroke-linecap="round" stroke-linejoin="round"/>
    <path d="M 71.81664276123047 85.64887237548828 C 83.98487091064453 60.519920349121094 63.06572341918945 36.63736343383789 168.04006958007812 49.18608093261719" stroke-width="3.0" fill="none" stroke="rgb(0, 0, 0)" stroke-opacity="1.0" stroke-linecap="round" stroke-linejoin="round"/>
    <path d="M 133.51766967773438 164.23899841308594 C 150.95643615722656 168.93417358398438 121.52544403076172 149.6550750732422 129.48097229003906 163.99472045898438" stroke-width="3.0" fill="none" stroke="rgb(0, 0, 0)" stroke-opacity="1.0" stroke-linecap="round" stroke-linejoin="round"/>
    <path d="M 147.07257080078125 62.135398864746094 C 179.55287170410156 32.528160095214844 218.7583770751953 25.3255615234375 148.51315307617188 49.86886978149414" stroke-width="3.0" fill="none" stroke="rgb(0, 0, 0)" stroke-opacity="1.0" stroke-linecap="round" stroke-linejoin="round"/>
    <path d="M 52.257118225097656 175.51602172851562 C 55.921142578125 190.80946350097656 34.661888122558594 203.7577667236328 52.49256134033203 175.43142700195312" stroke-width="3.0" fill="none" stroke="rgb(0, 0, 0)" stroke-opacity="1.0" stroke-linecap="round" stroke-linejoin="round"/>
    <path d="M 188.83999633789062 99.03958129882812 C 174.08934020996094 112.62771606445312 174.3981170654297 128.29202270507812 177.82984924316406 89.25249481201172" stroke-width="3.0" fill="none" stroke="rgb(0, 0, 0)" stroke-opacity="1.0" stroke-linecap="round" stroke-linejoin="round"/>
    <path d="M 138.7939910888672 58.35447692871094 C 111.68158721923828 108.64733123779297 89.21878051757812 161.8693389892578 95.8620834350586 111.74291229248047" stroke-width="3.0" fill="none" stroke="rgb(0, 0, 0)" stroke-opacity="1.0" stroke-linecap="round" stroke-linejoin="round"/>
    <path d="M 176.24417114257812 36.23525619506836 C 148.98057556152344 70.86824035644531 114.1531982421875 -9.145973205566406 169.03907775878906 121.00457000732422" stroke-width="3.0" fill="none" stroke="rgb(0, 0, 0)" stroke-opacity="1.0" stroke-linecap="round" stroke-linejoin="round"/>
    <path d="M 65.86654663085938 177.36289978027344 C 109.80754089355469 160.0327911376953 104.42507934570312 187.339599609375 49.767459869384766 186.54937744140625" stroke-width="3.0" fill="none" stroke="rgb(0, 0, 0)" stroke-opacity="1.0" stroke-linecap="round" stroke-linejoin="round"/>
    <path d="M 86.91095733642578 60.72563934326172 C 114.10002899169922 142.7460479736328 135.67242431640625 122.81600189208984 52.830238342285156 115.57621765136719" stroke-width="3.0" fill="none" stroke="rgb(0, 0, 0)" stroke-opacity="1.0" stroke-linecap="round" stroke-linejoin="round"/>
    <path d="M 184.85235595703125 142.75167846679688 C 167.38113403320312 111.38976287841797 165.26416015625 118.3693618774414 195.45321655273438 110.73882293701172" stroke-width="3.0" fill="none" stroke="rgb(0, 0, 0)" stroke-opacity="1.0" stroke-linecap="round" stroke-linejoin="round"/>
    <path d="M 78.0126953125 29.339523315429688 C 73.52728271484375 39.49101257324219 45.46974563598633 20.110593795776367 83.08570861816406 25.411174774169922" stroke-width="3.0" fill="none" stroke="rgb(0, 0, 0)" stroke-opacity="1.0" stroke-linecap="round" stroke-linejoin="round"/>
    <path d="M 41.95313262939453 146.34425354003906 C 63.62746810913086 157.51287841796875 94.16043853759766 144.17388916015625 94.11563110351562 110.63673400878906" stroke-width="3.0" fill="none" stroke="rgb(0, 0, 0)" stroke-opacity="1.0" stroke-linecap="round" stroke-linejoin="round"/>
    <path d="M 168.47421264648438 111.59515380859375 C 132.75250244140625 143.8578643798828 140.7549285888672 136.47586059570312 148.1532745361328 129.3634796142578" stroke-width="3.0" fill="none" stroke="rgb(0, 0, 0)" stroke-opacity="1.0" stroke-linecap="round" stroke-linejoin="round"/>
    <path d="M 46.64122772216797 148.38287353515625 C 12.8308744430542 136.8907012939453 3.8009140491485596 94.8071517944336 44.83762741088867 76.15451049804688" stroke-width="3.0" fill="none" stroke="rgb(0, 0, 0)" stroke-opacity="1.0" stroke-linecap="round" stroke-linejoin="round"/>
    <path d="M 179.31126403808594 183.57215881347656 C 165.0106658935547 170.45887756347656 190.35186767578125 169.8671875 169.64349365234375 162.22543334960938" stroke-width="3.0" fill="none" stroke="rgb(0, 0, 0)" stroke-opacity="1.0" stroke-linecap="round" stroke-linejoin="round"/>
    <path d="M 173.8959197998047 156.02420043945312 C 82.65544128417969 141.66116333007812 173.29588317871094 149.18130493164062 124.60154724121094 162.20103454589844" stroke-width="3.0" fill="none" stroke="rgb(0, 0, 0)" stroke-opacity="1.0" stroke-linecap="round" stroke-linejoin="round"/>
    <path d="M 31.33452796936035 82.37369537353516 C 95.81993103027344 44.587974548339844 113.4831771850586 136.86077880859375 91.64257049560547 110.68585205078125" stroke-width="3.0" fill="none" stroke="rgb(0, 0, 0)" stroke-opacity="1.0" stroke-linecap="round" stroke-linejoin="round"/>
    <path d="M 111.5097885131836 124.59036254882812 C 90.71598052978516 146.64451599121094 102.40031433105469 106.0128402709961 72.35784912109375 85.86261749267578" stroke-width="3.0" fill="none" stroke="rgb(0, 0, 0)" stroke-opacity="1.0" stroke-linecap="round" stroke-linejoin="round"/>
    <path d="M 67.6209716796875 185.77023315429688 C 89.8001708984375 142.61268615722656 117.311279296875 148.6608428955078 132.09326171875 148.70736694335938" stroke-width="3.0" fill="none" stroke="rgb(0, 0, 0)" stroke-opacity="1.0" stroke-linecap="round" stroke-linejoin="round"/>
    <path d="M 82.89153289794922 31.975542068481445 C 98.84947967529297 70.14676666259766 80.28327178955078 24.338258743286133 73.09979248046875 69.32713317871094" stroke-width="3.0" fill="none" stroke="rgb(0, 0, 0)" stroke-opacity="1.0" stroke-linecap="round" stroke-linejoin="round"/>
    <path d="M 144.45806884765625 151.15646362304688 C 225.46592712402344 187.3971710205078 143.477294921875 148.9999237060547 145.95556640625 185.2960662841797" stroke-width="3.0" fill="none" stroke="rgb(0, 0, 0)" stroke-opacity="1.0" stroke-linecap="round" stroke-linejoin="round"/>
    <path d="M 109.62995910644531 119.4629898071289 C 118.08094024658203 164.2240447998047 127.12464141845703 121.45018005371094 93.8580322265625 121.94647216796875" stroke-width="3.0" fill="none" stroke="rgb(0, 0, 0)" stroke-opacity="1.0" stroke-linecap="round" stroke-linejoin="round"/>
    <path d="M 176.2129364013672 54.1196174621582 C 171.90296936035156 44.214412689208984 190.2740020751953 34.208946228027344 159.56915283203125 43.21712875366211" stroke-width="3.0" fill="none" stroke="rgb(0, 0, 0)" stroke-opacity="1.0" stroke-linecap="round" stroke-linejoin="round"/>
    <path d="M 91.67757415771484 55.58513641357422 C 83.19344329833984 61.020263671875 88.77302551269531 44.70915985107422 56.35711669921875 118.60244750976562" stroke-width="3.0" fill="none" stroke="rgb(0, 0, 0)" stroke-opacity="1.0" stroke-linecap="round" stroke-linejoin="round"/>
  </g>
</svg>
