<?xml version="1.0" ?>
<svg xmlns="http://www.w3.org/2000/svg" version="1.1" width="224" height="224">
  <defs/>
  <g>
    <path d="M 137.46517944335938 123.05180358886719 C 154.58319091796875 121.4194107055664 166.0618133544922 120.83165740966797 181.49343872070312 108.12855529785156" stroke-width="3.0" fill="none" stroke="rgb(0, 0, 0)" stroke-opacity="1.0" stroke-linecap="round" stroke-linejoin="round"/>
    <path d="M 108.19738006591797 153.04269409179688 C 53.33535385131836 183.61814880371094 72.17691040039062 185.0102081298828 149.85325622558594 153.3611297607422" stroke-width="3.0" fill="none" stroke="rgb(0, 0, 0)" stroke-opacity="1.0" stroke-linecap="round" stroke-linejoin="round"/>
    <path d="M 151.5148468017578 138.6674346923828 C 155.42990112304688 142.6143341064453 111.80712890625 132.179931640625 144.35350036621094 85.82089233398438" stroke-width="3.0" fill="none" stroke="rgb(0, 0, 0)" stroke-opacity="1.0" stroke-linecap="round" stroke-linejoin="round"/>
    <path d="M 146.22268676757812 134.4674072265625 C 175.63914489746094 110.38450622558594 163.7986602783203 117.11483001708984 192.77978515625 128.2618408203125" stroke-width="3.0" fill="none" stroke="rgb(0, 0, 0)" stroke-opacity="1.0" stroke-linecap="round" stroke-linejoin="round"/>
    <path d="M 199.58126831054688 97.20075225830078 C 204.66831970214844 96.21583557128906 218.2682647705078 157.09640502929688 158.5265350341797 149.36900329589844" stroke-width="3.0" fill="none" stroke="rgb(0, 0, 0)" stroke-opacity="1.0" stroke-linecap="round" stroke-linejoin="round"/>
    <path d="M 100.84746551513672 167.56150817871094 C 111.5631332397461 171.84861755371094 101.39405059814453 176.5973358154297 106.85968017578125 154.5395050048828" stroke-width="3.0" fill="none" stroke="rgb(0, 0, 0)" stroke-opacity="1.0" stroke-linecap="round" stroke-linejoin="round"/>
    <path d="M 95.90074157714844 108.79151916503906 C 139.83226013183594 135.87869262695312 93.6242904663086 80.18612670898438 116.30867004394531 134.01956176757812" stroke-width="3.0" fill="none" stroke="rgb(0, 0, 0)" stroke-opacity="1.0" stroke-linecap="round" stroke-linejoin="round"/>
    <path d="M 124.97737884521484 189.20582580566406 C 174.6844482421875 185.4877471923828 137.30691528320312 191.29931640625 45.80961227416992 189.67105102539062" stroke-width="3.0" fill="none" stroke="rgb(0, 0, 0)" stroke-opacity="1.0" stroke-linecap="round" stroke-linejoin="round"/>
    <path d="M 178.64230346679688 181.63858032226562 C 161.4577178955078 215.3669891357422 132.8756561279297 189.05276489257812 150.37081909179688 167.20823669433594" stroke-width="3.0" fill="none" stroke="rgb(0, 0, 0)" stroke-opacity="1.0" stroke-linecap="round" stroke-linejoin="round"/>
    <path d="M 153.7890167236328 80.63481903076172 C 203.12078857421875 69.59795379638672 203.98487854003906 114.6317138671875 202.94239807128906 107.39617156982422" stroke-width="3.0" fill="none" stroke="rgb(0, 0, 0)" stroke-opacity="1.0" stroke-linecap="round" stroke-linejoin="round"/>
    <path d="M 177.05751037597656 169.2866668701172 C 174.30401611328125 187.97645568847656 176.58001708984375 204.2303466796875 178.46206665039062 177.62062072753906" stroke-width="3.0" fill="none" stroke="rgb(0, 0, 0)" stroke-opacity="1.0" stroke-linecap="round" stroke-linejoin="round"/>
    <path d="M 125.33586883544922 146.03895568847656 C 124.04951477050781 148.40052795410156 133.38926696777344 145.71754455566406 130.0192413330078 147.92974853515625" stroke-width="3.0" fill="none" stroke="rgb(0, 0, 0)" stroke-opacity="1.0" stroke-linecap="round" stroke-linejoin="round"/>
    <path d="M 155.3773956298828 141.82937622070312 C 173.62942504882812 113.37065124511719 166.8583984375 109.8934555053711 174.09347534179688 143.6048583984375" stroke-width="3.0" fill="none" stroke="rgb(0, 0, 0)" stroke-opacity="1.0" stroke-linecap="round" stroke-linejoin="round"/>
    <path d="M 158.8653564453125 197.42208862304688 C 176.39779663085938 196.04481506347656 177.54014587402344 164.07772827148438 154.2396240234375 164.3036346435547" stroke-width="3.0" fill="none" stroke="rgb(0, 0, 0)" stroke-opacity="1.0" stroke-linecap="round" stroke-linejoin="round"/>
    <path d="M 92.39727020263672 54.23748779296875 C 151.92796325683594 33.755184173583984 179.2180633544922 88.94795227050781 171.8417510986328 45.15890884399414" stroke-width="3.0" fill="none" stroke="rgb(0, 0, 0)" stroke-opacity="1.0" stroke-linecap="round" stroke-linejoin="round"/>
    <path d="M 69.80664825439453 43.07558822631836 C 77.46732330322266 23.24098777770996 78.40568542480469 30.489418029785156 106.34536743164062 107.8070297241211" stroke-width="3.0" fill="none" stroke="rgb(0, 0, 0)" stroke-opacity="1.0" stroke-linecap="round" stroke-linejoin="round"/>
    <path d="M 61.91170120239258 21.716283798217773 C 131.9534912109375 27.41779899597168 102.594482421875 20.605525970458984 69.04255676269531 28.896617889404297" stroke-width="3.0" fill="none" stroke="rgb(0, 0, 0)" stroke-opacity="1.0" stroke-linecap="round" stroke-linejoin="round"/>
    <path d="M 56.228614807128906 171.95816040039062 C 72.61279296875 172.45526123046875 72.1546401977539 167.83416748046875 77.22566223144531 184.83953857421875" stroke-width="3.0" fill="none" stroke="rgb(0, 0, 0)" stroke-opacity="1.0" stroke-linecap="round" stroke-linejoin="round"/>
    <path d="M 146.55816650390625 172.36129760742188 C 162.96673583984375 146.0165252685547 196.04379272460938 181.82435607910156 164.97653198242188 162.85198974609375" stroke-width="3.0" fill="none" stroke="rgb(0, 0, 0)" stroke-opacity="1.0" stroke-linecap="round" stroke-linejoin="round"/>
    <path d="M 73.00418853759766 181.2459259033203 C 104.12130737304688 173.84756469726562 99.58111572265625 174.70028686523438 96.76663970947266 172.78684997558594" stroke-width="3.0" fill="none" stroke="rgb(0, 0, 0)" stroke-opacity="1.0" stroke-linecap="round" stroke-linejoin="round"/>
    <path d="M 56.43656539916992 175.25225830078125 C 117.47962951660156 167.71957397460938 111.21016693115234 184.27386474609375 49.51811218261719 182.56150817871094" stroke-width="3.0" fill="none" stroke="rgb(0, 0, 0)" stroke-opacity="1.0" stroke-linecap="round" stroke-linejoin="round"/>
    <path d="M 94.81853485107422 188.0998077392578 C 96.0340347290039 171.4932098388672 117.97491455078125 151.46389770507812 95.1124267578125 176.95802307128906" stroke-width="3.0" fill="none" stroke="rgb(0, 0, 0)" stroke-opacity="1.0" stroke-linecap="round" stroke-linejoin="round"/>
    <path d="M 174.5845947265625 79.98355865478516 C 170.7613067626953 131.30239868164062 177.4473419189453 69.36038208007812 169.10765075683594 105.18567657470703" stroke-width="3.0" fill="none" stroke="rgb(0, 0, 0)" stroke-opacity="1.0" stroke-linecap="round" stroke-linejoin="round"/>
    <path d="M 96.77708435058594 175.514404296875 C 39.05055618286133 189.21493530273438 49.632205963134766 184.44200134277344 77.52528381347656 187.6011199951172" stroke-width="3.0" fill="none" stroke="rgb(0, 0, 0)" stroke-opacity="1.0" stroke-linecap="round" stroke-linejoin="round"/>
    <path d="M 85.11224365234375 58.01833724975586 C 80.93970489501953 67.43807220458984 73.8408432006836 45.509525299072266 116.08795928955078 49.1812858581543" stroke-width="3.0" fill="none" stroke="rgb(0, 0, 0)" stroke-opacity="1.0" stroke-linecap="round" stroke-linejoin="round"/>
    <path d="M 108.92091369628906 148.8361358642578 C 151.0247802734375 139.7689971923828 123.64517974853516 144.9854278564453 126.69422912597656 159.1361541748047" stroke-width="3.0" fill="none" stroke="rgb(0, 0, 0)" stroke-opacity="1.0" stroke-linecap="round" stroke-linejoin="round"/>
    <path d="M 162.25242614746094 51.659339904785156 C 167.72088623046875 32.36360168457031 208.4840545654297 48.17827606201172 145.38685607910156 47.05069351196289" stroke-width="3.0" fill="none" stroke="rgb(0, 0, 0)" stroke-opacity="1.0" stroke-linecap="round" stroke-linejoin="round"/>
    <path d="M 54.487030029296875 171.21189880371094 C 45.755149841308594 180.84808349609375 41.151695251464844 197.89666748046875 52.87977981567383 178.57455444335938" stroke-width="3.0" fill="none" stroke="rgb(0, 0, 0)" stroke-opacity="1.0" stroke-linecap="round" stroke-linejoin="round"/>
    <path d="M 159.17901611328125 114.18058776855469 C 170.41943359375 130.26551818847656 168.69252014160156 123.03572082519531 186.1184844970703 90.13060760498047" stroke-width="3.0" fill="none" stroke="rgb(0, 0, 0)" stroke-opacity="1.0" stroke-linecap="round" stroke-linejoin="round"/>
    <path d="M 140.366943359375 54.881874084472656 C 120.9462890625 98.83946990966797 106.81597137451172 123.56962585449219 115.88565826416016 110.60443878173828" stroke-width="3.0" fill="none" stroke="rgb(0, 0, 0)" stroke-opacity="1.0" stroke-linecap="round" stroke-linejoin="round"/>
    <path d="M 164.8671875 49.1768798828125 C 143.74978637695312 77.74817657470703 128.92169189453125 27.344696044921875 162.3102264404297 110.93636322021484" stroke-width="3.0" fill="none" stroke="rgb(0, 0, 0)" stroke-opacity="1.0" stroke-linecap="round" stroke-linejoin="round"/>
    <path d="M 96.71953582763672 190.3213653564453 C 97.03079223632812 186.7501678466797 107.32601928710938 176.39434814453125 71.00529479980469 186.98934936523438" stroke-width="3.0" fill="none" stroke="rgb(0, 0, 0)" stroke-opacity="1.0" stroke-linecap="round" stroke-linejoin="round"/>
    <path d="M 84.13221740722656 54.11444091796875 C 104.51335144042969 132.55801391601562 100.85075378417969 155.47019958496094 71.533203125 75.70531463623047" stroke-width="3.0" fill="none" stroke="rgb(0, 0, 0)" stroke-opacity="1.0" stroke-linecap="round" stroke-linejoin="round"/>
    <path d="M 185.73458862304688 139.22116088867188 C 159.90875244140625 103.37673950195312 162.91221618652344 100.08161163330078 178.93536376953125 117.29764556884766" stroke-width="3.0" fill="none" stroke="rgb(0, 0, 0)" stroke-opacity="1.0" stroke-linecap="round" stroke-linejoin="round"/>
    <path d="M 78.0844497680664 29.016448974609375 C 24.799118041992188 18.24322509765625 66.73561096191406 28.90779685974121 76.54165649414062 35.11836624145508" stroke-width="3.0" fill="none" stroke="rgb(0, 0, 0)" stroke-opacity="1.0" stroke-linecap="round" stroke-linejoin="round"/>
    <path d="M 44.703025817871094 148.72708129882812 C 60.01638412475586 156.5314178466797 89.36285400390625 146.8084716796875 93.59593963623047 117.29854583740234" stroke-width="3.0" fill="none" stroke="rgb(0, 0, 0)" stroke-opacity="1.0" stroke-linecap="round" stroke-linejoin="round"/>
    <path d="M 159.11227416992188 124.98149108886719 C 137.21388244628906 153.19281005859375 153.25389099121094 127.99744415283203 151.5669403076172 136.22384643554688" stroke-width="3.0" fill="none" stroke="rgb(0, 0, 0)" stroke-opacity="1.0" stroke-linecap="round" stroke-linejoin="round"/>
    <path d="M 46.057350158691406 149.82354736328125 C 23.754446029663086 141.501953125 5.83832311630249 114.33768463134766 29.556734085083008 85.83549499511719" stroke-width="3.0" fill="none" stroke="rgb(0, 0, 0)" stroke-opacity="1.0" stroke-linecap="round" stroke-linejoin="round"/>
    <path d="M 178.59768676757812 191.49925231933594 C 180.90380859375 173.7855224609375 188.8635711669922 192.1151885986328 170.44619750976562 165.90309143066406" stroke-width="3.0" fill="none" stroke="rgb(0, 0, 0)" stroke-opacity="1.0" stroke-linecap="round" stroke-linejoin="round"/>
    <path d="M 157.5221710205078 150.77589416503906 C 79.63260650634766 137.10594177246094 175.812255859375 143.22140502929688 136.60902404785156 158.22573852539062" stroke-width="3.0" fill="none" stroke="rgb(0, 0, 0)" stroke-opacity="1.0" stroke-linecap="round" stroke-linejoin="round"/>
    <path d="M 33.10377502441406 82.42826843261719 C 78.9034423828125 49.142669677734375 114.9075698852539 121.62632751464844 94.3362808227539 116.57785034179688" stroke-width="3.0" fill="none" stroke="rgb(0, 0, 0)" stroke-opacity="1.0" stroke-linecap="round" stroke-linejoin="round"/>
    <path d="M 98.20098114013672 115.14856719970703 C 93.6326904296875 85.89260864257812 92.8316650390625 82.73253631591797 79.41220092773438 79.99822235107422" stroke-width="3.0" fill="none" stroke="rgb(0, 0, 0)" stroke-opacity="1.0" stroke-linecap="round" stroke-linejoin="round"/>
    <path d="M 77.43212127685547 176.08676147460938 C 105.22660064697266 140.30076599121094 124.21774291992188 138.57615661621094 138.00863647460938 153.06898498535156" stroke-width="3.0" fill="none" stroke="rgb(0, 0, 0)" stroke-opacity="1.0" stroke-linecap="round" stroke-linejoin="round"/>
    <path d="M 80.4909439086914 29.953754425048828 C 88.69996643066406 54.4337158203125 99.92472839355469 53.8216667175293 85.46212768554688 57.95860290527344" stroke-width="3.0" fill="none" stroke="rgb(0, 0, 0)" stroke-opacity="1.0" stroke-linecap="round" stroke-linejoin="round"/>
    <path d="M 109.99068450927734 153.6700439453125 C 173.20181274414062 152.89894104003906 130.79525756835938 149.1582794189453 129.5006561279297 185.39822387695312" stroke-width="3.0" fill="none" stroke="rgb(0, 0, 0)" stroke-opacity="1.0" stroke-linecap="round" stroke-linejoin="round"/>
    <path d="M 115.83501434326172 134.85447692871094 C 114.34359741210938 143.1303253173828 109.75648498535156 136.11529541015625 114.38758850097656 134.20858764648438" stroke-width="3.0" fill="none" stroke="rgb(0, 0, 0)" stroke-opacity="1.0" stroke-linecap="round" stroke-linejoin="round"/>
    <path d="M 175.88232421875 57.915679931640625 C 171.27752685546875 52.7152214050293 173.0760955810547 54.933326721191406 178.51675415039062 37.27157211303711" stroke-width="3.0" fill="none" stroke="rgb(0, 0, 0)" stroke-opacity="1.0" stroke-linecap="round" stroke-linejoin="round"/>
    <path d="M 87.19287109375 60.80281066894531 C 64.02645111083984 66.96926879882812 85.57421112060547 35.739967346191406 72.77045440673828 81.1714859008789" stroke-width="3.0" fill="none" stroke="rgb(0, 0, 0)" stroke-opacity="1.0" stroke-linecap="round" stroke-linejoin="round"/>
  </g>
</svg>
