<?xml version="1.0" ?>
<svg xmlns="http://www.w3.org/2000/svg" version="1.1" width="224" height="224">
  <defs/>
  <g>
    <path d="M 134.56358337402344 119.51762390136719 C 198.4063720703125 111.64637756347656 176.39573669433594 114.76142883300781 176.32899475097656 125.69839477539062" stroke-width="3.0" fill="none" stroke="rgb(0, 0, 0)" stroke-opacity="1.0" stroke-linecap="round" stroke-linejoin="round"/>
    <path d="M 122.03025817871094 164.77627563476562 C 53.09330368041992 175.5884552001953 75.960205078125 182.3043975830078 161.2761993408203 159.0783233642578" stroke-width="3.0" fill="none" stroke="rgb(0, 0, 0)" stroke-opacity="1.0" stroke-linecap="round" stroke-linejoin="round"/>
    <path d="M 176.54754638671875 152.2598114013672 C 140.14479064941406 157.07359313964844 97.64224243164062 130.06561279296875 143.45111083984375 73.3481216430664" stroke-width="3.0" fill="none" stroke="rgb(0, 0, 0)" stroke-opacity="1.0" stroke-linecap="round" stroke-linejoin="round"/>
    <path d="M 150.19602966308594 143.90594482421875 C 178.30215454101562 99.63451385498047 156.24771118164062 120.51314544677734 195.68336486816406 122.67333984375" stroke-width="3.0" fill="none" stroke="rgb(0, 0, 0)" stroke-opacity="1.0" stroke-linecap="round" stroke-linejoin="round"/>
    <path d="M 152.93460083007812 77.47450256347656 C 226.9322967529297 65.05917358398438 228.6359405517578 167.76197814941406 146.9229278564453 156.31935119628906" stroke-width="3.0" fill="none" stroke="rgb(0, 0, 0)" stroke-opacity="1.0" stroke-linecap="round" stroke-linejoin="round"/>
    <path d="M 97.81031036376953 160.50433349609375 C 48.789310455322266 170.62619018554688 83.73209381103516 204.90248107910156 114.29252624511719 152.84864807128906" stroke-width="3.0" fill="none" stroke="rgb(0, 0, 0)" stroke-opacity="1.0" stroke-linecap="round" stroke-linejoin="round"/>
    <path d="M 98.22863006591797 126.98408508300781 C 142.68862915039062 124.68150329589844 82.32572174072266 99.64923095703125 110.33379364013672 123.58434295654297" stroke-width="3.0" fill="none" stroke="rgb(0, 0, 0)" stroke-opacity="1.0" stroke-linecap="round" stroke-linejoin="round"/>
    <path d="M 51.71250534057617 179.21731567382812 C 178.84127807617188 148.92123413085938 197.13922119140625 157.36105346679688 53.24055480957031 174.42083740234375" stroke-width="3.0" fill="none" stroke="rgb(0, 0, 0)" stroke-opacity="1.0" stroke-linecap="round" stroke-linejoin="round"/>
    <path d="M 183.59255981445312 184.17677307128906 C 148.36529541015625 230.9097442626953 126.85025787353516 165.32508850097656 145.1647186279297 184.7841033935547" stroke-width="3.0" fill="none" stroke="rgb(0, 0, 0)" stroke-opacity="1.0" stroke-linecap="round" stroke-linejoin="round"/>
    <path d="M 154.2153778076172 83.6998062133789 C 198.21572875976562 72.96966552734375 221.99232482910156 139.45436096191406 168.86996459960938 154.27798461914062" stroke-width="3.0" fill="none" stroke="rgb(0, 0, 0)" stroke-opacity="1.0" stroke-linecap="round" stroke-linejoin="round"/>
    <path d="M 183.92236328125 186.4725799560547 C 182.84214782714844 166.09341430664062 164.86578369140625 229.96246337890625 182.45745849609375 169.16363525390625" stroke-width="3.0" fill="none" stroke="rgb(0, 0, 0)" stroke-opacity="1.0" stroke-linecap="round" stroke-linejoin="round"/>
    <path d="M 114.48023223876953 170.4902801513672 C 92.82390594482422 172.57838439941406 110.51034545898438 172.5470733642578 141.3663787841797 154.63064575195312" stroke-width="3.0" fill="none" stroke="rgb(0, 0, 0)" stroke-opacity="1.0" stroke-linecap="round" stroke-linejoin="round"/>
    <path d="M 164.65432739257812 146.5166473388672 C 177.78741455078125 101.6911392211914 168.74269104003906 76.99114990234375 172.13706970214844 148.02035522460938" stroke-width="3.0" fill="none" stroke="rgb(0, 0, 0)" stroke-opacity="1.0" stroke-linecap="round" stroke-linejoin="round"/>
    <path d="M 143.68458557128906 180.8498077392578 C 166.96188354492188 225.7025909423828 187.04306030273438 149.8280487060547 148.40850830078125 180.16917419433594" stroke-width="3.0" fill="none" stroke="rgb(0, 0, 0)" stroke-opacity="1.0" stroke-linecap="round" stroke-linejoin="round"/>
    <path d="M 89.3918685913086 55.749473571777344 C 132.945556640625 36.37727355957031 190.23716735839844 90.48833465576172 164.52301025390625 40.626197814941406" stroke-width="3.0" fill="none" stroke="rgb(0, 0, 0)" stroke-opacity="1.0" stroke-linecap="round" stroke-linejoin="round"/>
    <path d="M 63.112911224365234 29.925817489624023 C 75.67980194091797 29.552875518798828 82.7957534790039 29.463916778564453 107.51756286621094 123.18788146972656" stroke-width="3.0" fill="none" stroke="rgb(0, 0, 0)" stroke-opacity="1.0" stroke-linecap="round" stroke-linejoin="round"/>
    <path d="M 63.975364685058594 27.031814575195312 C 126.10951232910156 22.63854217529297 36.38179016113281 36.132503509521484 68.334716796875 25.04551887512207" stroke-width="3.0" fill="none" stroke="rgb(0, 0, 0)" stroke-opacity="1.0" stroke-linecap="round" stroke-linejoin="round"/>
    <path d="M 59.204261779785156 190.559814453125 C 198.69598388671875 214.26023864746094 132.95968627929688 210.83656311035156 50.229549407958984 184.66506958007812" stroke-width="3.0" fill="none" stroke="rgb(0, 0, 0)" stroke-opacity="1.0" stroke-linecap="round" stroke-linejoin="round"/>
    <path d="M 137.15939331054688 187.4171905517578 C 142.4194793701172 135.86363220214844 218.20367431640625 187.13436889648438 161.98040771484375 165.8403778076172" stroke-width="3.0" fill="none" stroke="rgb(0, 0, 0)" stroke-opacity="1.0" stroke-linecap="round" stroke-linejoin="round"/>
    <path d="M 51.02394485473633 184.7010040283203 C 131.71566772460938 209.1669464111328 123.16279602050781 207.70069885253906 45.65321731567383 192.08673095703125" stroke-width="3.0" fill="none" stroke="rgb(0, 0, 0)" stroke-opacity="1.0" stroke-linecap="round" stroke-linejoin="round"/>
    <path d="M 53.65327835083008 186.37330627441406 C 204.304931640625 195.1377410888672 161.077392578125 159.51834106445312 63.119956970214844 170.66490173339844" stroke-width="3.0" fill="none" stroke="rgb(0, 0, 0)" stroke-opacity="1.0" stroke-linecap="round" stroke-linejoin="round"/>
    <path d="M 93.67694854736328 186.53790283203125 C 103.71839904785156 139.71632385253906 117.19544219970703 153.98374938964844 68.73724365234375 171.1530303955078" stroke-width="3.0" fill="none" stroke="rgb(0, 0, 0)" stroke-opacity="1.0" stroke-linecap="round" stroke-linejoin="round"/>
    <path d="M 189.32803344726562 91.68407440185547 C 185.01388549804688 92.98121643066406 156.4502716064453 64.87398529052734 176.26356506347656 106.66222381591797" stroke-width="3.0" fill="none" stroke="rgb(0, 0, 0)" stroke-opacity="1.0" stroke-linecap="round" stroke-linejoin="round"/>
    <path d="M 112.36469268798828 160.18768310546875 C 49.43851089477539 190.77146911621094 30.407333374023438 176.9367218017578 71.78509521484375 182.28485107421875" stroke-width="3.0" fill="none" stroke="rgb(0, 0, 0)" stroke-opacity="1.0" stroke-linecap="round" stroke-linejoin="round"/>
    <path d="M 63.6361198425293 109.8497085571289 C 87.83210754394531 59.27359390258789 63.83263397216797 35.53309631347656 169.14993286132812 51.151344299316406" stroke-width="3.0" fill="none" stroke="rgb(0, 0, 0)" stroke-opacity="1.0" stroke-linecap="round" stroke-linejoin="round"/>
    <path d="M 128.2764892578125 157.9231719970703 C 176.91500854492188 164.131591796875 121.96388244628906 145.74853515625 122.16972351074219 163.8274688720703" stroke-width="3.0" fill="none" stroke="rgb(0, 0, 0)" stroke-opacity="1.0" stroke-linecap="round" stroke-linejoin="round"/>
    <path d="M 149.485595703125 62.83079147338867 C 183.7081756591797 33.374305725097656 208.79318237304688 33.05156707763672 146.63963317871094 50.70775604248047" stroke-width="3.0" fill="none" stroke="rgb(0, 0, 0)" stroke-opacity="1.0" stroke-linecap="round" stroke-linejoin="round"/>
    <path d="M 56.964229583740234 178.41351318359375 C 51.36164093017578 175.12957763671875 39.513675689697266 201.32403564453125 51.95577621459961 175.7086944580078" stroke-width="3.0" fill="none" stroke="rgb(0, 0, 0)" stroke-opacity="1.0" stroke-linecap="round" stroke-linejoin="round"/>
    <path d="M 178.96435546875 90.18538665771484 C 168.4425048828125 117.5652084350586 157.88394165039062 119.80975341796875 189.28884887695312 102.44075012207031" stroke-width="3.0" fill="none" stroke="rgb(0, 0, 0)" stroke-opacity="1.0" stroke-linecap="round" stroke-linejoin="round"/>
    <path d="M 149.33111572265625 47.15925979614258 C 108.58812713623047 105.36909484863281 98.46954345703125 154.31346130371094 103.43656158447266 114.14479064941406" stroke-width="3.0" fill="none" stroke="rgb(0, 0, 0)" stroke-opacity="1.0" stroke-linecap="round" stroke-linejoin="round"/>
    <path d="M 179.8484649658203 37.999122619628906 C 130.41342163085938 63.594303131103516 124.8396224975586 1.3772567510604858 166.82899475097656 121.50980377197266" stroke-width="3.0" fill="none" stroke="rgb(0, 0, 0)" stroke-opacity="1.0" stroke-linecap="round" stroke-linejoin="round"/>
    <path d="M 57.60175704956055 180.8480682373047 C 121.33686065673828 172.60682678222656 110.25553894042969 183.69398498535156 55.3103141784668 178.0941162109375" stroke-width="3.0" fill="none" stroke="rgb(0, 0, 0)" stroke-opacity="1.0" stroke-linecap="round" stroke-linejoin="round"/>
    <path d="M 85.56362915039062 55.39511489868164 C 103.32240295410156 123.31315612792969 119.88615417480469 119.59190368652344 52.78513717651367 113.72348022460938" stroke-width="3.0" fill="none" stroke="rgb(0, 0, 0)" stroke-opacity="1.0" stroke-linecap="round" stroke-linejoin="round"/>
    <path d="M 187.0143585205078 137.832763671875 C 166.50979614257812 109.4815444946289 158.40708923339844 112.63239288330078 194.70596313476562 109.92957305908203" stroke-width="3.0" fill="none" stroke="rgb(0, 0, 0)" stroke-opacity="1.0" stroke-linecap="round" stroke-linejoin="round"/>
    <path d="M 80.66374206542969 27.323802947998047 C 77.12184143066406 43.19599533081055 29.799068450927734 14.560266494750977 92.51642608642578 27.49074935913086" stroke-width="3.0" fill="none" stroke="rgb(0, 0, 0)" stroke-opacity="1.0" stroke-linecap="round" stroke-linejoin="round"/>
    <path d="M 39.990257263183594 145.8025665283203 C 60.13718032836914 159.32192993164062 90.76734161376953 140.12648010253906 93.09649658203125 117.93587493896484" stroke-width="3.0" fill="none" stroke="rgb(0, 0, 0)" stroke-opacity="1.0" stroke-linecap="round" stroke-linejoin="round"/>
    <path d="M 153.31484985351562 92.14617919921875 C 110.70388793945312 111.85012817382812 116.94886016845703 125.84074401855469 158.8458251953125 116.72032928466797" stroke-width="3.0" fill="none" stroke="rgb(0, 0, 0)" stroke-opacity="1.0" stroke-linecap="round" stroke-linejoin="round"/>
    <path d="M 45.412635803222656 148.7650604248047 C 13.995399475097656 135.7473907470703 6.401398181915283 95.4790267944336 41.89973068237305 76.1480484008789" stroke-width="3.0" fill="none" stroke="rgb(0, 0, 0)" stroke-opacity="1.0" stroke-linecap="round" stroke-linejoin="round"/>
    <path d="M 182.83291625976562 179.08163452148438 C 156.49952697753906 150.46990966796875 188.6979217529297 171.2932586669922 173.20054626464844 164.18597412109375" stroke-width="3.0" fill="none" stroke="rgb(0, 0, 0)" stroke-opacity="1.0" stroke-linecap="round" stroke-linejoin="round"/>
    <path d="M 169.47813415527344 156.8291473388672 C 78.12055969238281 154.57937622070312 146.9789581298828 160.90501403808594 127.56896209716797 156.03468322753906" stroke-width="3.0" fill="none" stroke="rgb(0, 0, 0)" stroke-opacity="1.0" stroke-linecap="round" stroke-linejoin="round"/>
    <path d="M 29.882843017578125 82.65599822998047 C 98.39649963378906 41.460418701171875 101.42890930175781 130.3418426513672 98.65967559814453 110.78215026855469" stroke-width="3.0" fill="none" stroke="rgb(0, 0, 0)" stroke-opacity="1.0" stroke-linecap="round" stroke-linejoin="round"/>
    <path d="M 109.92670440673828 132.82546997070312 C 80.7173843383789 140.7129364013672 103.88056945800781 116.8843002319336 76.6489486694336 85.0147933959961" stroke-width="3.0" fill="none" stroke="rgb(0, 0, 0)" stroke-opacity="1.0" stroke-linecap="round" stroke-linejoin="round"/>
    <path d="M 58.698097229003906 182.92575073242188 C 100.86809539794922 148.2423553466797 114.01472473144531 147.86386108398438 148.3566436767578 152.8639678955078" stroke-width="3.0" fill="none" stroke="rgb(0, 0, 0)" stroke-opacity="1.0" stroke-linecap="round" stroke-linejoin="round"/>
    <path d="M 83.642333984375 34.131710052490234 C 98.6551742553711 72.22237396240234 97.16581726074219 25.57128143310547 75.24681091308594 82.67137908935547" stroke-width="3.0" fill="none" stroke="rgb(0, 0, 0)" stroke-opacity="1.0" stroke-linecap="round" stroke-linejoin="round"/>
    <path d="M 139.19569396972656 153.6512451171875 C 224.7295684814453 177.57102966308594 134.81675720214844 153.56118774414062 150.3763427734375 186.80401611328125" stroke-width="3.0" fill="none" stroke="rgb(0, 0, 0)" stroke-opacity="1.0" stroke-linecap="round" stroke-linejoin="round"/>
    <path d="M 113.13494873046875 116.66791534423828 C 115.69509887695312 164.3309783935547 135.70706176757812 128.2780303955078 93.52737426757812 127.14481353759766" stroke-width="3.0" fill="none" stroke="rgb(0, 0, 0)" stroke-opacity="1.0" stroke-linecap="round" stroke-linejoin="round"/>
    <path d="M 176.8004913330078 51.68616485595703 C 170.89346313476562 54.271175384521484 196.43544006347656 9.209859848022461 158.08450317382812 61.05404281616211" stroke-width="3.0" fill="none" stroke="rgb(0, 0, 0)" stroke-opacity="1.0" stroke-linecap="round" stroke-linejoin="round"/>
    <path d="M 83.24404907226562 44.44709396362305 C 67.17322540283203 63.193443298339844 87.86729431152344 41.87030029296875 56.57183837890625 114.14517211914062" stroke-width="3.0" fill="none" stroke="rgb(0, 0, 0)" stroke-opacity="1.0" stroke-linecap="round" stroke-linejoin="round"/>
  </g>
</svg>
