<?xml version="1.0" ?>
<svg xmlns="http://www.w3.org/2000/svg" version="1.1" width="224" height="224">
  <defs/>
  <g>
    <path d="M 134.88653564453125 118.47261047363281 C 168.28660583496094 115.50442504882812 161.10350036621094 101.53466033935547 173.2549285888672 108.7708969116211" stroke-width="3.0" fill="none" stroke="rgb(0, 0, 0)" stroke-opacity="1.0" stroke-linecap="round" stroke-linejoin="round"/>
    <path d="M 105.38412475585938 154.38751220703125 C 55.53923416137695 183.93251037597656 73.68307495117188 182.34564208984375 152.86839294433594 152.72755432128906" stroke-width="3.0" fill="none" stroke="rgb(0, 0, 0)" stroke-opacity="1.0" stroke-linecap="round" stroke-linejoin="round"/>
    <path d="M 144.98170471191406 149.19424438476562 C 154.39923095703125 153.34176635742188 110.28337097167969 127.78021240234375 145.78024291992188 86.38530731201172" stroke-width="3.0" fill="none" stroke="rgb(0, 0, 0)" stroke-opacity="1.0" stroke-linecap="round" stroke-linejoin="round"/>
    <path d="M 145.79945373535156 142.99012756347656 C 177.709228515625 102.61576080322266 168.78121948242188 119.46513366699219 192.8408660888672 129.05299377441406" stroke-width="3.0" fill="none" stroke="rgb(0, 0, 0)" stroke-opacity="1.0" stroke-linecap="round" stroke-linejoin="round"/>
    <path d="M 152.1020050048828 75.12727355957031 C 230.03192138671875 72.82469177246094 226.33197021484375 160.5541534423828 158.32504272460938 155.41131591796875" stroke-width="3.0" fill="none" stroke="rgb(0, 0, 0)" stroke-opacity="1.0" stroke-linecap="round" stroke-linejoin="round"/>
    <path d="M 94.64533996582031 175.76890563964844 C 98.31103515625 161.108642578125 100.54064178466797 183.18832397460938 108.86991882324219 154.64381408691406" stroke-width="3.0" fill="none" stroke="rgb(0, 0, 0)" stroke-opacity="1.0" stroke-linecap="round" stroke-linejoin="round"/>
    <path d="M 97.26612854003906 121.120849609375 C 135.5806121826172 126.85104370117188 87.59657287597656 90.79662322998047 111.87083435058594 130.66641235351562" stroke-width="3.0" fill="none" stroke="rgb(0, 0, 0)" stroke-opacity="1.0" stroke-linecap="round" stroke-linejoin="round"/>
    <path d="M 81.88560485839844 191.350341796875 C 198.41966247558594 180.92034912109375 175.77708435058594 175.1809539794922 49.92816925048828 185.81137084960938" stroke-width="3.0" fill="none" stroke="rgb(0, 0, 0)" stroke-opacity="1.0" stroke-linecap="round" stroke-linejoin="round"/>
    <path d="M 181.49017333984375 180.8616485595703 C 166.41925048828125 221.5136260986328 125.12496948242188 181.86428833007812 157.50485229492188 169.22161865234375" stroke-width="3.0" fill="none" stroke="rgb(0, 0, 0)" stroke-opacity="1.0" stroke-linecap="round" stroke-linejoin="round"/>
    <path d="M 152.6618194580078 84.70340728759766 C 193.21180725097656 76.10295867919922 221.3734588623047 122.19922637939453 182.02426147460938 147.7058563232422" stroke-width="3.0" fill="none" stroke="rgb(0, 0, 0)" stroke-opacity="1.0" stroke-linecap="round" stroke-linejoin="round"/>
    <path d="M 185.2347869873047 185.072265625 C 178.48199462890625 154.4565887451172 177.35972595214844 202.72413635253906 181.66209411621094 180.61837768554688" stroke-width="3.0" fill="none" stroke="rgb(0, 0, 0)" stroke-opacity="1.0" stroke-linecap="round" stroke-linejoin="round"/>
    <path d="M 139.83921813964844 154.95127868652344 C 123.06756591796875 149.31411743164062 131.73483276367188 147.23463439941406 141.68467712402344 149.86895751953125" stroke-width="3.0" fill="none" stroke="rgb(0, 0, 0)" stroke-opacity="1.0" stroke-linecap="round" stroke-linejoin="round"/>
    <path d="M 161.1590118408203 147.6939239501953 C 165.8504638671875 117.3640365600586 164.17568969726562 103.82744598388672 175.92726135253906 147.5662078857422" stroke-width="3.0" fill="none" stroke="rgb(0, 0, 0)" stroke-opacity="1.0" stroke-linecap="round" stroke-linejoin="round"/>
    <path d="M 149.59461975097656 174.3590850830078 C 151.09796142578125 214.5703125 191.85369873046875 174.98927307128906 156.59451293945312 169.58843994140625" stroke-width="3.0" fill="none" stroke="rgb(0, 0, 0)" stroke-opacity="1.0" stroke-linecap="round" stroke-linejoin="round"/>
    <path d="M 88.5987319946289 58.526790618896484 C 126.04121398925781 38.72674560546875 189.00152587890625 89.71786499023438 165.44204711914062 38.419132232666016" stroke-width="3.0" fill="none" stroke="rgb(0, 0, 0)" stroke-opacity="1.0" stroke-linecap="round" stroke-linejoin="round"/>
    <path d="M 63.58346939086914 25.206933975219727 C 83.92030334472656 26.1292781829834 80.04965209960938 26.750577926635742 98.6429214477539 111.61477661132812" stroke-width="3.0" fill="none" stroke="rgb(0, 0, 0)" stroke-opacity="1.0" stroke-linecap="round" stroke-linejoin="round"/>
    <path d="M 64.60892486572266 23.219057083129883 C 127.69526672363281 27.19137954711914 71.72142028808594 29.644433975219727 64.41654968261719 25.40882682800293" stroke-width="3.0" fill="none" stroke="rgb(0, 0, 0)" stroke-opacity="1.0" stroke-linecap="round" stroke-linejoin="round"/>
    <path d="M 46.1105842590332 191.83526611328125 C 147.29544067382812 192.21800231933594 96.1495590209961 181.9019317626953 55.5184211730957 173.802734375" stroke-width="3.0" fill="none" stroke="rgb(0, 0, 0)" stroke-opacity="1.0" stroke-linecap="round" stroke-linejoin="round"/>
    <path d="M 135.5640106201172 185.11444091796875 C 141.0968475341797 132.08363342285156 202.96499633789062 179.48944091796875 167.5556182861328 161.37445068359375" stroke-width="3.0" fill="none" stroke="rgb(0, 0, 0)" stroke-opacity="1.0" stroke-linecap="round" stroke-linejoin="round"/>
    <path d="M 51.679954528808594 182.70228576660156 C 115.84050750732422 183.75558471679688 107.7252426147461 167.9167022705078 56.36575698852539 173.9518585205078" stroke-width="3.0" fill="none" stroke="rgb(0, 0, 0)" stroke-opacity="1.0" stroke-linecap="round" stroke-linejoin="round"/>
    <path d="M 52.18148422241211 183.4701690673828 C 122.73421478271484 172.79196166992188 113.88540649414062 171.40650939941406 52.87065505981445 180.55709838867188" stroke-width="3.0" fill="none" stroke="rgb(0, 0, 0)" stroke-opacity="1.0" stroke-linecap="round" stroke-linejoin="round"/>
    <path d="M 102.7113265991211 185.32469177246094 C 96.82485961914062 168.81256103515625 111.86117553710938 185.68304443359375 76.77626037597656 183.96205139160156" stroke-width="3.0" fill="none" stroke="rgb(0, 0, 0)" stroke-opacity="1.0" stroke-linecap="round" stroke-linejoin="round"/>
    <path d="M 178.25558471679688 87.47395324707031 C 176.74427795410156 103.97154998779297 182.6603240966797 58.38554000854492 175.52420043945312 116.90200805664062" stroke-width="3.0" fill="none" stroke="rgb(0, 0, 0)" stroke-opacity="1.0" stroke-linecap="round" stroke-linejoin="round"/>
    <path d="M 104.76152801513672 169.608154296875 C 33.881553649902344 171.92698669433594 54.164329528808594 177.28932189941406 68.26668548583984 175.39991760253906" stroke-width="3.0" fill="none" stroke="rgb(0, 0, 0)" stroke-opacity="1.0" stroke-linecap="round" stroke-linejoin="round"/>
    <path d="M 71.83837890625 73.73126983642578 C 81.02754974365234 63.66950225830078 63.70943832397461 36.35599136352539 167.3871612548828 51.08034896850586" stroke-width="3.0" fill="none" stroke="rgb(0, 0, 0)" stroke-opacity="1.0" stroke-linecap="round" stroke-linejoin="round"/>
    <path d="M 132.1329803466797 156.63832092285156 C 153.3102569580078 154.493896484375 127.6811752319336 142.3267059326172 130.78729248046875 159.58238220214844" stroke-width="3.0" fill="none" stroke="rgb(0, 0, 0)" stroke-opacity="1.0" stroke-linecap="round" stroke-linejoin="round"/>
    <path d="M 157.148681640625 59.589927673339844 C 163.5688018798828 38.132476806640625 222.0550079345703 35.65686798095703 144.2966766357422 44.65380859375" stroke-width="3.0" fill="none" stroke="rgb(0, 0, 0)" stroke-opacity="1.0" stroke-linecap="round" stroke-linejoin="round"/>
    <path d="M 55.58525085449219 176.79547119140625 C 51.18364334106445 184.48487854003906 38.074859619140625 199.03334045410156 51.289302825927734 174.00411987304688" stroke-width="3.0" fill="none" stroke="rgb(0, 0, 0)" stroke-opacity="1.0" stroke-linecap="round" stroke-linejoin="round"/>
    <path d="M 185.20457458496094 90.5787582397461 C 161.03167724609375 122.81915283203125 158.70350646972656 119.68321990966797 177.2272186279297 86.61014556884766" stroke-width="3.0" fill="none" stroke="rgb(0, 0, 0)" stroke-opacity="1.0" stroke-linecap="round" stroke-linejoin="round"/>
    <path d="M 139.66799926757812 56.59150314331055 C 114.94976806640625 101.45454406738281 96.47036743164062 150.14366149902344 112.33084106445312 116.67655181884766" stroke-width="3.0" fill="none" stroke="rgb(0, 0, 0)" stroke-opacity="1.0" stroke-linecap="round" stroke-linejoin="round"/>
    <path d="M 176.6415252685547 37.561241149902344 C 144.70033264160156 72.5002670288086 119.3640365600586 -9.812088012695312 164.063232421875 119.40625762939453" stroke-width="3.0" fill="none" stroke="rgb(0, 0, 0)" stroke-opacity="1.0" stroke-linecap="round" stroke-linejoin="round"/>
    <path d="M 58.226497650146484 187.75543212890625 C 107.76663970947266 184.48086547851562 130.61927795410156 185.2344512939453 52.60102844238281 181.0234375" stroke-width="3.0" fill="none" stroke="rgb(0, 0, 0)" stroke-opacity="1.0" stroke-linecap="round" stroke-linejoin="round"/>
    <path d="M 90.96207427978516 55.83926773071289 C 114.72740936279297 154.61512756347656 130.0363006591797 129.45892333984375 52.850975036621094 114.45306396484375" stroke-width="3.0" fill="none" stroke="rgb(0, 0, 0)" stroke-opacity="1.0" stroke-linecap="round" stroke-linejoin="round"/>
    <path d="M 184.68260192871094 139.9322967529297 C 163.44850158691406 107.7158432006836 171.03292846679688 114.9050064086914 184.58534240722656 111.00617980957031" stroke-width="3.0" fill="none" stroke="rgb(0, 0, 0)" stroke-opacity="1.0" stroke-linecap="round" stroke-linejoin="round"/>
    <path d="M 81.18045043945312 30.342506408691406 C 36.12165451049805 23.84268569946289 56.824615478515625 29.085926055908203 76.09587097167969 33.50314712524414" stroke-width="3.0" fill="none" stroke="rgb(0, 0, 0)" stroke-opacity="1.0" stroke-linecap="round" stroke-linejoin="round"/>
    <path d="M 41.83344650268555 147.89329528808594 C 62.72846603393555 157.8210906982422 88.31208801269531 143.78662109375 90.98822784423828 119.16686248779297" stroke-width="3.0" fill="none" stroke="rgb(0, 0, 0)" stroke-opacity="1.0" stroke-linecap="round" stroke-linejoin="round"/>
    <path d="M 163.8934783935547 117.09957122802734 C 126.5719223022461 138.0323486328125 143.25083923339844 130.1426544189453 138.2178192138672 131.10630798339844" stroke-width="3.0" fill="none" stroke="rgb(0, 0, 0)" stroke-opacity="1.0" stroke-linecap="round" stroke-linejoin="round"/>
    <path d="M 46.939300537109375 149.0498046875 C 16.969369888305664 141.3013916015625 -0.08543747663497925 95.14678955078125 41.52894592285156 75.87960815429688" stroke-width="3.0" fill="none" stroke="rgb(0, 0, 0)" stroke-opacity="1.0" stroke-linecap="round" stroke-linejoin="round"/>
    <path d="M 183.43435668945312 178.51611328125 C 174.8750762939453 192.22235107421875 196.63824462890625 185.60464477539062 172.05001831054688 163.2119598388672" stroke-width="3.0" fill="none" stroke="rgb(0, 0, 0)" stroke-opacity="1.0" stroke-linecap="round" stroke-linejoin="round"/>
    <path d="M 170.44186401367188 156.04481506347656 C 95.99880981445312 138.57244873046875 181.4506072998047 156.4300994873047 132.6117706298828 154.47433471679688" stroke-width="3.0" fill="none" stroke="rgb(0, 0, 0)" stroke-opacity="1.0" stroke-linecap="round" stroke-linejoin="round"/>
    <path d="M 27.86680793762207 82.40936279296875 C 88.15824890136719 46.0153923034668 110.97488403320312 133.4403533935547 84.78079223632812 113.13005828857422" stroke-width="3.0" fill="none" stroke="rgb(0, 0, 0)" stroke-opacity="1.0" stroke-linecap="round" stroke-linejoin="round"/>
    <path d="M 105.70074462890625 115.97090148925781 C 93.02536010742188 152.53082275390625 97.62005615234375 114.8936996459961 72.79127502441406 86.87728118896484" stroke-width="3.0" fill="none" stroke="rgb(0, 0, 0)" stroke-opacity="1.0" stroke-linecap="round" stroke-linejoin="round"/>
    <path d="M 69.49760437011719 180.65892028808594 C 106.02997589111328 141.3688201904297 126.07941436767578 152.41314697265625 145.1070098876953 149.0868682861328" stroke-width="3.0" fill="none" stroke="rgb(0, 0, 0)" stroke-opacity="1.0" stroke-linecap="round" stroke-linejoin="round"/>
    <path d="M 84.3761215209961 34.29862976074219 C 94.27449798583984 61.70854568481445 92.76716613769531 38.00752258300781 75.89874267578125 70.29684448242188" stroke-width="3.0" fill="none" stroke="rgb(0, 0, 0)" stroke-opacity="1.0" stroke-linecap="round" stroke-linejoin="round"/>
    <path d="M 133.96080017089844 151.38906860351562 C 204.44847106933594 157.8319549560547 132.54408264160156 139.88780212402344 136.6337890625 186.10218811035156" stroke-width="3.0" fill="none" stroke="rgb(0, 0, 0)" stroke-opacity="1.0" stroke-linecap="round" stroke-linejoin="round"/>
    <path d="M 103.4232406616211 113.33479309082031 C 124.75538635253906 165.01087951660156 122.60208892822266 116.99772644042969 97.34796905517578 131.18701171875" stroke-width="3.0" fill="none" stroke="rgb(0, 0, 0)" stroke-opacity="1.0" stroke-linecap="round" stroke-linejoin="round"/>
    <path d="M 176.4334259033203 54.39106369018555 C 172.20260620117188 40.7859001159668 190.258056640625 41.767024993896484 177.93580627441406 40.059974670410156" stroke-width="3.0" fill="none" stroke="rgb(0, 0, 0)" stroke-opacity="1.0" stroke-linecap="round" stroke-linejoin="round"/>
    <path d="M 94.75638580322266 55.71352005004883 C 77.93856048583984 68.97509002685547 94.2515869140625 48.91111373901367 54.87704086303711 117.16641998291016" stroke-width="3.0" fill="none" stroke="rgb(0, 0, 0)" stroke-opacity="1.0" stroke-linecap="round" stroke-linejoin="round"/>
  </g>
</svg>
