<?xml version="1.0" ?>
<svg xmlns="http://www.w3.org/2000/svg" version="1.1" width="224" height="224">
  <defs/>
  <g>
    <path d="M 147.5901641845703 135.6922149658203 C 160.25262451171875 127.78697204589844 163.8974151611328 124.13822174072266 183.05352783203125 111.9134292602539" stroke-width="3.0" fill="none" stroke="rgb(0, 0, 0)" stroke-opacity="1.0" stroke-linecap="round" stroke-linejoin="round"/>
    <path d="M 104.98509979248047 154.093505859375 C 66.96647644042969 182.36318969726562 78.41132354736328 180.3573455810547 142.9943389892578 153.33497619628906" stroke-width="3.0" fill="none" stroke="rgb(0, 0, 0)" stroke-opacity="1.0" stroke-linecap="round" stroke-linejoin="round"/>
    <path d="M 146.1734619140625 136.61988830566406 C 159.996337890625 144.87548828125 123.31885528564453 135.13145446777344 129.4589385986328 101.6561508178711" stroke-width="3.0" fill="none" stroke="rgb(0, 0, 0)" stroke-opacity="1.0" stroke-linecap="round" stroke-linejoin="round"/>
    <path d="M 158.07568359375 141.32394409179688 C 164.2981719970703 111.6566390991211 165.44650268554688 116.31554412841797 187.4417724609375 138.81600952148438" stroke-width="3.0" fill="none" stroke="rgb(0, 0, 0)" stroke-opacity="1.0" stroke-linecap="round" stroke-linejoin="round"/>
    <path d="M 198.9241943359375 96.08120727539062 C 198.8572998046875 90.49659729003906 220.3319091796875 134.38449096679688 180.6338348388672 147.45506286621094" stroke-width="3.0" fill="none" stroke="rgb(0, 0, 0)" stroke-opacity="1.0" stroke-linecap="round" stroke-linejoin="round"/>
    <path d="M 106.89425659179688 164.25099182128906 C 115.0901107788086 161.47657775878906 92.55903625488281 158.60769653320312 112.61614227294922 154.54989624023438" stroke-width="3.0" fill="none" stroke="rgb(0, 0, 0)" stroke-opacity="1.0" stroke-linecap="round" stroke-linejoin="round"/>
    <path d="M 104.6312026977539 116.51579284667969 C 133.43760681152344 124.55551147460938 108.83642578125 103.94283294677734 111.22702026367188 119.0427017211914" stroke-width="3.0" fill="none" stroke="rgb(0, 0, 0)" stroke-opacity="1.0" stroke-linecap="round" stroke-linejoin="round"/>
    <path d="M 114.91384887695312 183.57742309570312 C 162.95828247070312 180.2997283935547 130.83319091796875 189.850830078125 49.55237579345703 184.36851501464844" stroke-width="3.0" fill="none" stroke="rgb(0, 0, 0)" stroke-opacity="1.0" stroke-linecap="round" stroke-linejoin="round"/>
    <path d="M 178.61964416503906 188.88255310058594 C 159.296875 214.73098754882812 134.40614318847656 189.45091247558594 147.65769958496094 168.76287841796875" stroke-width="3.0" fill="none" stroke="rgb(0, 0, 0)" stroke-opacity="1.0" stroke-linecap="round" stroke-linejoin="round"/>
    <path d="M 155.9625701904297 81.9853286743164 C 201.4650115966797 72.19000244140625 208.08486938476562 119.22730255126953 202.58419799804688 100.64698028564453" stroke-width="3.0" fill="none" stroke="rgb(0, 0, 0)" stroke-opacity="1.0" stroke-linecap="round" stroke-linejoin="round"/>
    <path d="M 174.7215118408203 169.42149353027344 C 182.759765625 178.87527465820312 184.32066345214844 186.7189178466797 182.04251098632812 180.61154174804688" stroke-width="3.0" fill="none" stroke="rgb(0, 0, 0)" stroke-opacity="1.0" stroke-linecap="round" stroke-linejoin="round"/>
    <path d="M 126.30680084228516 144.98379516601562 C 114.78247833251953 140.55751037597656 128.53863525390625 147.44944763183594 120.70669555664062 142.66407775878906" stroke-width="3.0" fill="none" stroke="rgb(0, 0, 0)" stroke-opacity="1.0" stroke-linecap="round" stroke-linejoin="round"/>
    <path d="M 170.83236694335938 145.69989013671875 C 169.3885040283203 108.03787994384766 164.692138671875 115.71397399902344 174.60858154296875 145.60142517089844" stroke-width="3.0" fill="none" stroke="rgb(0, 0, 0)" stroke-opacity="1.0" stroke-linecap="round" stroke-linejoin="round"/>
    <path d="M 168.92681884765625 197.278076171875 C 179.33084106445312 189.08079528808594 179.5941162109375 171.47683715820312 165.925537109375 164.74818420410156" stroke-width="3.0" fill="none" stroke="rgb(0, 0, 0)" stroke-opacity="1.0" stroke-linecap="round" stroke-linejoin="round"/>
    <path d="M 90.43943786621094 50.30553436279297 C 156.34893798828125 35.1947135925293 165.0003204345703 74.72857666015625 163.88902282714844 44.519718170166016" stroke-width="3.0" fill="none" stroke="rgb(0, 0, 0)" stroke-opacity="1.0" stroke-linecap="round" stroke-linejoin="round"/>
    <path d="M 82.28262329101562 45.708011627197266 C 81.64777374267578 44.024261474609375 79.72265625 36.80859375 107.77070617675781 111.50619506835938" stroke-width="3.0" fill="none" stroke="rgb(0, 0, 0)" stroke-opacity="1.0" stroke-linecap="round" stroke-linejoin="round"/>
    <path d="M 65.23381042480469 25.427318572998047 C 123.05853271484375 26.819408416748047 99.83489227294922 19.733192443847656 72.70703887939453 32.09490203857422" stroke-width="3.0" fill="none" stroke="rgb(0, 0, 0)" stroke-opacity="1.0" stroke-linecap="round" stroke-linejoin="round"/>
    <path d="M 52.893245697021484 173.73184204101562 C 73.9205551147461 174.42811584472656 79.00315856933594 160.37249755859375 63.01023483276367 181.96250915527344" stroke-width="3.0" fill="none" stroke="rgb(0, 0, 0)" stroke-opacity="1.0" stroke-linecap="round" stroke-linejoin="round"/>
    <path d="M 145.9012908935547 171.50193786621094 C 162.8865203857422 146.61253356933594 196.5189971923828 182.35641479492188 161.5835723876953 162.8864288330078" stroke-width="3.0" fill="none" stroke="rgb(0, 0, 0)" stroke-opacity="1.0" stroke-linecap="round" stroke-linejoin="round"/>
    <path d="M 80.10008239746094 174.50682067871094 C 103.44509887695312 172.22549438476562 102.99130249023438 179.0811309814453 96.69281768798828 170.320068359375" stroke-width="3.0" fill="none" stroke="rgb(0, 0, 0)" stroke-opacity="1.0" stroke-linecap="round" stroke-linejoin="round"/>
    <path d="M 53.279117584228516 173.14700317382812 C 117.9738540649414 163.27694702148438 112.88829040527344 183.2987518310547 44.290157318115234 188.31536865234375" stroke-width="3.0" fill="none" stroke="rgb(0, 0, 0)" stroke-opacity="1.0" stroke-linecap="round" stroke-linejoin="round"/>
    <path d="M 101.9925537109375 184.13998413085938 C 95.51875305175781 174.2320556640625 113.19087982177734 144.04940795898438 99.38172149658203 174.66351318359375" stroke-width="3.0" fill="none" stroke="rgb(0, 0, 0)" stroke-opacity="1.0" stroke-linecap="round" stroke-linejoin="round"/>
    <path d="M 174.88670349121094 82.77530670166016 C 165.7965850830078 134.21339416503906 166.22100830078125 74.97419738769531 168.05184936523438 111.46148681640625" stroke-width="3.0" fill="none" stroke="rgb(0, 0, 0)" stroke-opacity="1.0" stroke-linecap="round" stroke-linejoin="round"/>
    <path d="M 71.45611572265625 170.47398376464844 C 44.8206787109375 181.19793701171875 53.81673812866211 183.3108673095703 66.73503112792969 182.42323303222656" stroke-width="3.0" fill="none" stroke="rgb(0, 0, 0)" stroke-opacity="1.0" stroke-linecap="round" stroke-linejoin="round"/>
    <path d="M 84.7843246459961 51.72637176513672 C 75.85626220703125 62.95744705200195 79.7232894897461 48.26194763183594 111.79158020019531 47.51466751098633" stroke-width="3.0" fill="none" stroke="rgb(0, 0, 0)" stroke-opacity="1.0" stroke-linecap="round" stroke-linejoin="round"/>
    <path d="M 107.66124725341797 153.13746643066406 C 144.93380737304688 147.2002716064453 122.11763763427734 136.73626708984375 131.1209716796875 157.90484619140625" stroke-width="3.0" fill="none" stroke="rgb(0, 0, 0)" stroke-opacity="1.0" stroke-linecap="round" stroke-linejoin="round"/>
    <path d="M 175.5435333251953 40.43992233276367 C 175.09596252441406 44.74419403076172 213.57350158691406 43.79029846191406 145.7662811279297 45.03994369506836" stroke-width="3.0" fill="none" stroke="rgb(0, 0, 0)" stroke-opacity="1.0" stroke-linecap="round" stroke-linejoin="round"/>
    <path d="M 53.01768493652344 174.82553100585938 C 44.75956344604492 180.76954650878906 45.56990051269531 198.15098571777344 52.73233413696289 176.96484375" stroke-width="3.0" fill="none" stroke="rgb(0, 0, 0)" stroke-opacity="1.0" stroke-linecap="round" stroke-linejoin="round"/>
    <path d="M 163.88597106933594 125.53892517089844 C 172.57420349121094 128.17901611328125 167.5943145751953 120.39833068847656 186.86212158203125 92.7352523803711" stroke-width="3.0" fill="none" stroke="rgb(0, 0, 0)" stroke-opacity="1.0" stroke-linecap="round" stroke-linejoin="round"/>
    <path d="M 141.2572784423828 50.74831771850586 C 119.07662200927734 93.1641616821289 111.54244232177734 119.1857681274414 113.94989013671875 112.34860229492188" stroke-width="3.0" fill="none" stroke="rgb(0, 0, 0)" stroke-opacity="1.0" stroke-linecap="round" stroke-linejoin="round"/>
    <path d="M 154.3538360595703 45.80559158325195 C 139.5756072998047 70.86289978027344 136.8074493408203 37.25171661376953 165.4342041015625 115.71062469482422" stroke-width="3.0" fill="none" stroke="rgb(0, 0, 0)" stroke-opacity="1.0" stroke-linecap="round" stroke-linejoin="round"/>
    <path d="M 98.84244537353516 185.6520538330078 C 95.97814178466797 177.3349609375 109.5392074584961 181.29222106933594 79.27455139160156 182.6209716796875" stroke-width="3.0" fill="none" stroke="rgb(0, 0, 0)" stroke-opacity="1.0" stroke-linecap="round" stroke-linejoin="round"/>
    <path d="M 84.58932495117188 65.9764633178711 C 77.0094985961914 136.07809448242188 83.7039566040039 157.0435333251953 68.80923461914062 73.5721664428711" stroke-width="3.0" fill="none" stroke="rgb(0, 0, 0)" stroke-opacity="1.0" stroke-linecap="round" stroke-linejoin="round"/>
    <path d="M 177.36158752441406 144.55340576171875 C 152.83448791503906 115.72441101074219 161.01878356933594 99.37638092041016 175.68267822265625 121.64584350585938" stroke-width="3.0" fill="none" stroke="rgb(0, 0, 0)" stroke-opacity="1.0" stroke-linecap="round" stroke-linejoin="round"/>
    <path d="M 80.24237060546875 33.43096923828125 C 20.746522903442383 24.835206985473633 65.28076934814453 24.793256759643555 73.7403564453125 32.04417037963867" stroke-width="3.0" fill="none" stroke="rgb(0, 0, 0)" stroke-opacity="1.0" stroke-linecap="round" stroke-linejoin="round"/>
    <path d="M 44.87983703613281 149.9540557861328 C 69.97270202636719 155.92312622070312 61.230812072753906 145.6891632080078 73.30743408203125 140.48777770996094" stroke-width="3.0" fill="none" stroke="rgb(0, 0, 0)" stroke-opacity="1.0" stroke-linecap="round" stroke-linejoin="round"/>
    <path d="M 163.6521453857422 143.5014190673828 C 173.12744140625 148.18165588378906 149.39999389648438 134.4789276123047 161.09823608398438 142.71469116210938" stroke-width="3.0" fill="none" stroke="rgb(0, 0, 0)" stroke-opacity="1.0" stroke-linecap="round" stroke-linejoin="round"/>
    <path d="M 43.3203125 149.2833251953125 C 22.253164291381836 139.78538513183594 7.367193222045898 117.2690658569336 29.218605041503906 88.17886352539062" stroke-width="3.0" fill="none" stroke="rgb(0, 0, 0)" stroke-opacity="1.0" stroke-linecap="round" stroke-linejoin="round"/>
    <path d="M 183.38365173339844 185.46449279785156 C 181.19808959960938 168.02024841308594 183.8135223388672 180.6824493408203 174.29579162597656 170.84349060058594" stroke-width="3.0" fill="none" stroke="rgb(0, 0, 0)" stroke-opacity="1.0" stroke-linecap="round" stroke-linejoin="round"/>
    <path d="M 155.62095642089844 153.16802978515625 C 88.79442596435547 146.0425262451172 170.5652313232422 144.32908630371094 133.90048217773438 159.52809143066406" stroke-width="3.0" fill="none" stroke="rgb(0, 0, 0)" stroke-opacity="1.0" stroke-linecap="round" stroke-linejoin="round"/>
    <path d="M 31.9379940032959 83.22431945800781 C 74.67664337158203 44.57653045654297 113.73609161376953 120.96012878417969 97.92977905273438 122.9220199584961" stroke-width="3.0" fill="none" stroke="rgb(0, 0, 0)" stroke-opacity="1.0" stroke-linecap="round" stroke-linejoin="round"/>
    <path d="M 98.40030670166016 107.85737609863281 C 90.82592010498047 85.8885726928711 91.38813018798828 85.4773941040039 79.13726043701172 76.14450073242188" stroke-width="3.0" fill="none" stroke="rgb(0, 0, 0)" stroke-opacity="1.0" stroke-linecap="round" stroke-linejoin="round"/>
    <path d="M 78.12499237060547 171.18218994140625 C 99.46725463867188 147.73117065429688 128.9807586669922 150.71424865722656 122.65819549560547 154.92364501953125" stroke-width="3.0" fill="none" stroke="rgb(0, 0, 0)" stroke-opacity="1.0" stroke-linecap="round" stroke-linejoin="round"/>
    <path d="M 78.580322265625 27.533918380737305 C 85.72998809814453 52.91279602050781 81.52204895019531 57.40450668334961 94.15984344482422 48.53609848022461" stroke-width="3.0" fill="none" stroke="rgb(0, 0, 0)" stroke-opacity="1.0" stroke-linecap="round" stroke-linejoin="round"/>
    <path d="M 113.24861907958984 155.3518524169922 C 158.2700958251953 156.4966278076172 130.1790771484375 150.7975311279297 133.6232452392578 181.6711883544922" stroke-width="3.0" fill="none" stroke="rgb(0, 0, 0)" stroke-opacity="1.0" stroke-linecap="round" stroke-linejoin="round"/>
    <path d="M 109.83667755126953 146.1556396484375 C 113.42839813232422 138.8091583251953 115.23575592041016 133.58837890625 111.4022445678711 141.25706481933594" stroke-width="3.0" fill="none" stroke="rgb(0, 0, 0)" stroke-opacity="1.0" stroke-linecap="round" stroke-linejoin="round"/>
    <path d="M 169.48895263671875 54.679298400878906 C 165.45819091796875 48.777320861816406 163.1998748779297 52.655635833740234 175.67666625976562 38.7172737121582" stroke-width="3.0" fill="none" stroke="rgb(0, 0, 0)" stroke-opacity="1.0" stroke-linecap="round" stroke-linejoin="round"/>
    <path d="M 86.89258575439453 56.44080352783203 C 79.23062896728516 40.62847900390625 83.16996765136719 32.680885314941406 70.32837677001953 71.78034210205078" stroke-width="3.0" fill="none" stroke="rgb(0, 0, 0)" stroke-opacity="1.0" stroke-linecap="round" stroke-linejoin="round"/>
  </g>
</svg>
