<?xml version="1.0" ?>
<svg xmlns="http://www.w3.org/2000/svg" version="1.1" width="224" height="224">
  <defs/>
  <g>
    <path d="M 135.0850067138672 119.18067169189453 C 196.69985961914062 110.62940216064453 174.87525939941406 113.44267272949219 178.56777954101562 124.43964385986328" stroke-width="3.0" fill="none" stroke="rgb(0, 0, 0)" stroke-opacity="1.0" stroke-linecap="round" stroke-linejoin="round"/>
    <path d="M 121.92532348632812 165.5145721435547 C 52.432098388671875 174.8708953857422 73.19953155517578 178.94515991210938 161.8404083251953 156.9649200439453" stroke-width="3.0" fill="none" stroke="rgb(0, 0, 0)" stroke-opacity="1.0" stroke-linecap="round" stroke-linejoin="round"/>
    <path d="M 176.53543090820312 151.41845703125 C 143.6099395751953 155.77410888671875 100.7762222290039 126.38407135009766 143.03213500976562 72.41120147705078" stroke-width="3.0" fill="none" stroke="rgb(0, 0, 0)" stroke-opacity="1.0" stroke-linecap="round" stroke-linejoin="round"/>
    <path d="M 149.71127319335938 142.26632690429688 C 178.7136993408203 98.87699127197266 157.1492156982422 118.45503997802734 195.92706298828125 122.62140655517578" stroke-width="3.0" fill="none" stroke="rgb(0, 0, 0)" stroke-opacity="1.0" stroke-linecap="round" stroke-linejoin="round"/>
    <path d="M 152.263916015625 77.18036651611328 C 226.6752166748047 68.84262084960938 229.6969757080078 168.36207580566406 147.8191680908203 154.85340881347656" stroke-width="3.0" fill="none" stroke="rgb(0, 0, 0)" stroke-opacity="1.0" stroke-linecap="round" stroke-linejoin="round"/>
    <path d="M 94.9796371459961 159.1781463623047 C 49.685028076171875 168.90744018554688 87.46305084228516 209.09400939941406 113.3716049194336 153.35543823242188" stroke-width="3.0" fill="none" stroke="rgb(0, 0, 0)" stroke-opacity="1.0" stroke-linecap="round" stroke-linejoin="round"/>
    <path d="M 98.6181640625 127.30792999267578 C 141.64857482910156 125.76298522949219 81.91156768798828 100.60795593261719 109.58348846435547 125.1343994140625" stroke-width="3.0" fill="none" stroke="rgb(0, 0, 0)" stroke-opacity="1.0" stroke-linecap="round" stroke-linejoin="round"/>
    <path d="M 51.905826568603516 179.03729248046875 C 179.69973754882812 148.95449829101562 198.7837677001953 157.61231994628906 52.98746109008789 174.34771728515625" stroke-width="3.0" fill="none" stroke="rgb(0, 0, 0)" stroke-opacity="1.0" stroke-linecap="round" stroke-linejoin="round"/>
    <path d="M 184.4377899169922 183.63815307617188 C 148.61973571777344 231.199462890625 127.7070541381836 165.59278869628906 146.32908630371094 183.8675079345703" stroke-width="3.0" fill="none" stroke="rgb(0, 0, 0)" stroke-opacity="1.0" stroke-linecap="round" stroke-linejoin="round"/>
    <path d="M 156.4244384765625 83.72450256347656 C 199.9933319091797 72.33731079101562 223.14328002929688 138.2180938720703 168.83135986328125 153.59457397460938" stroke-width="3.0" fill="none" stroke="rgb(0, 0, 0)" stroke-opacity="1.0" stroke-linecap="round" stroke-linejoin="round"/>
    <path d="M 185.0358123779297 187.6628875732422 C 183.97219848632812 163.57835388183594 166.20619201660156 230.89657592773438 182.8715057373047 170.7847137451172" stroke-width="3.0" fill="none" stroke="rgb(0, 0, 0)" stroke-opacity="1.0" stroke-linecap="round" stroke-linejoin="round"/>
    <path d="M 114.00126647949219 169.57395935058594 C 93.14155578613281 169.4420623779297 109.82546997070312 172.0436553955078 142.29391479492188 155.29693603515625" stroke-width="3.0" fill="none" stroke="rgb(0, 0, 0)" stroke-opacity="1.0" stroke-linecap="round" stroke-linejoin="round"/>
    <path d="M 162.26651000976562 146.44442749023438 C 175.4073486328125 101.14279174804688 164.30201721191406 77.74224853515625 171.9852752685547 146.2837371826172" stroke-width="3.0" fill="none" stroke="rgb(0, 0, 0)" stroke-opacity="1.0" stroke-linecap="round" stroke-linejoin="round"/>
    <path d="M 143.2584991455078 180.54246520996094 C 167.87110900878906 224.6498260498047 190.01687622070312 148.02943420410156 146.94822692871094 179.4819793701172" stroke-width="3.0" fill="none" stroke="rgb(0, 0, 0)" stroke-opacity="1.0" stroke-linecap="round" stroke-linejoin="round"/>
    <path d="M 88.946533203125 54.406131744384766 C 130.22650146484375 36.062294006347656 186.60069274902344 90.32349395751953 163.19700622558594 38.76295852661133" stroke-width="3.0" fill="none" stroke="rgb(0, 0, 0)" stroke-opacity="1.0" stroke-linecap="round" stroke-linejoin="round"/>
    <path d="M 61.346675872802734 29.262632369995117 C 78.5997085571289 25.49736213684082 85.60597229003906 26.105045318603516 106.52091217041016 123.23478698730469" stroke-width="3.0" fill="none" stroke="rgb(0, 0, 0)" stroke-opacity="1.0" stroke-linecap="round" stroke-linejoin="round"/>
    <path d="M 63.38386917114258 27.164501190185547 C 128.92556762695312 23.637052536010742 36.905113220214844 36.9727668762207 68.07603454589844 25.948381423950195" stroke-width="3.0" fill="none" stroke="rgb(0, 0, 0)" stroke-opacity="1.0" stroke-linecap="round" stroke-linejoin="round"/>
    <path d="M 58.414276123046875 188.28875732421875 C 200.0976104736328 213.67733764648438 131.22743225097656 212.55426025390625 47.0560417175293 188.62644958496094" stroke-width="3.0" fill="none" stroke="rgb(0, 0, 0)" stroke-opacity="1.0" stroke-linecap="round" stroke-linejoin="round"/>
    <path d="M 138.1202392578125 188.45254516601562 C 142.0986328125 135.32652282714844 219.27655029296875 186.74972534179688 163.0504150390625 164.36680603027344" stroke-width="3.0" fill="none" stroke="rgb(0, 0, 0)" stroke-opacity="1.0" stroke-linecap="round" stroke-linejoin="round"/>
    <path d="M 46.341651916503906 185.43373107910156 C 133.6338348388672 208.47659301757812 125.78152465820312 206.1147003173828 46.137393951416016 193.00662231445312" stroke-width="3.0" fill="none" stroke="rgb(0, 0, 0)" stroke-opacity="1.0" stroke-linecap="round" stroke-linejoin="round"/>
    <path d="M 55.452720642089844 185.4334716796875 C 201.99163818359375 193.10789489746094 158.58486938476562 162.3020782470703 63.317543029785156 169.6323699951172" stroke-width="3.0" fill="none" stroke="rgb(0, 0, 0)" stroke-opacity="1.0" stroke-linecap="round" stroke-linejoin="round"/>
    <path d="M 97.73859405517578 186.71173095703125 C 103.16020202636719 146.8492889404297 115.99288940429688 158.79681396484375 66.6643295288086 170.36648559570312" stroke-width="3.0" fill="none" stroke="rgb(0, 0, 0)" stroke-opacity="1.0" stroke-linecap="round" stroke-linejoin="round"/>
    <path d="M 188.8343963623047 93.31269836425781 C 185.21363830566406 92.42586517333984 157.31594848632812 62.44546890258789 176.6362762451172 106.5744400024414" stroke-width="3.0" fill="none" stroke="rgb(0, 0, 0)" stroke-opacity="1.0" stroke-linecap="round" stroke-linejoin="round"/>
    <path d="M 105.28337097167969 158.1305694580078 C 48.08945846557617 189.79690551757812 29.320579528808594 177.09683227539062 72.90170288085938 181.8290557861328" stroke-width="3.0" fill="none" stroke="rgb(0, 0, 0)" stroke-opacity="1.0" stroke-linecap="round" stroke-linejoin="round"/>
    <path d="M 64.89810180664062 108.56678771972656 C 87.45626068115234 56.51611328125 60.73617172241211 33.040740966796875 167.89877319335938 48.950355529785156" stroke-width="3.0" fill="none" stroke="rgb(0, 0, 0)" stroke-opacity="1.0" stroke-linecap="round" stroke-linejoin="round"/>
    <path d="M 128.43548583984375 156.51515197753906 C 176.82496643066406 162.78945922851562 121.55570983886719 145.07208251953125 123.4177017211914 162.5981903076172" stroke-width="3.0" fill="none" stroke="rgb(0, 0, 0)" stroke-opacity="1.0" stroke-linecap="round" stroke-linejoin="round"/>
    <path d="M 150.0216064453125 62.85547637939453 C 183.1356658935547 32.10967254638672 207.81231689453125 30.927955627441406 142.66331481933594 48.464630126953125" stroke-width="3.0" fill="none" stroke="rgb(0, 0, 0)" stroke-opacity="1.0" stroke-linecap="round" stroke-linejoin="round"/>
    <path d="M 55.096134185791016 184.38453674316406 C 51.39565658569336 178.51220703125 39.18595504760742 201.22349548339844 53.03164291381836 174.0137481689453" stroke-width="3.0" fill="none" stroke="rgb(0, 0, 0)" stroke-opacity="1.0" stroke-linecap="round" stroke-linejoin="round"/>
    <path d="M 179.3594512939453 92.33529663085938 C 169.22581481933594 119.05065155029297 157.34010314941406 118.24404907226562 188.54466247558594 103.53357696533203" stroke-width="3.0" fill="none" stroke="rgb(0, 0, 0)" stroke-opacity="1.0" stroke-linecap="round" stroke-linejoin="round"/>
    <path d="M 148.7173309326172 46.37300109863281 C 109.76637268066406 106.12637329101562 99.93124389648438 155.17898559570312 104.42963409423828 114.33244323730469" stroke-width="3.0" fill="none" stroke="rgb(0, 0, 0)" stroke-opacity="1.0" stroke-linecap="round" stroke-linejoin="round"/>
    <path d="M 181.52236938476562 36.98636245727539 C 129.12677001953125 62.48396301269531 123.42138671875 1.1874898672103882 166.38392639160156 121.82038879394531" stroke-width="3.0" fill="none" stroke="rgb(0, 0, 0)" stroke-opacity="1.0" stroke-linecap="round" stroke-linejoin="round"/>
    <path d="M 58.23863983154297 180.61166381835938 C 119.87877655029297 170.36659240722656 108.72295379638672 184.32484436035156 55.23624038696289 179.0782012939453" stroke-width="3.0" fill="none" stroke="rgb(0, 0, 0)" stroke-opacity="1.0" stroke-linecap="round" stroke-linejoin="round"/>
    <path d="M 87.44152069091797 55.936790466308594 C 104.79476165771484 124.31536102294922 121.73046112060547 119.58440399169922 52.84132766723633 115.21304321289062" stroke-width="3.0" fill="none" stroke="rgb(0, 0, 0)" stroke-opacity="1.0" stroke-linecap="round" stroke-linejoin="round"/>
    <path d="M 185.07455444335938 139.48965454101562 C 169.49612426757812 108.75318145751953 161.96182250976562 113.88636779785156 193.4464111328125 110.29168701171875" stroke-width="3.0" fill="none" stroke="rgb(0, 0, 0)" stroke-opacity="1.0" stroke-linecap="round" stroke-linejoin="round"/>
    <path d="M 82.95684051513672 28.22522735595703 C 80.36548614501953 43.541221618652344 31.920122146606445 15.278416633605957 92.35382843017578 26.546098709106445" stroke-width="3.0" fill="none" stroke="rgb(0, 0, 0)" stroke-opacity="1.0" stroke-linecap="round" stroke-linejoin="round"/>
    <path d="M 39.56179428100586 146.4528350830078 C 59.698036193847656 158.25933837890625 92.11363220214844 140.94644165039062 90.20221710205078 122.48571014404297" stroke-width="3.0" fill="none" stroke="rgb(0, 0, 0)" stroke-opacity="1.0" stroke-linecap="round" stroke-linejoin="round"/>
    <path d="M 152.34129333496094 95.2210693359375 C 108.47491455078125 112.0611801147461 113.91304016113281 123.99436950683594 156.81468200683594 115.03023529052734" stroke-width="3.0" fill="none" stroke="rgb(0, 0, 0)" stroke-opacity="1.0" stroke-linecap="round" stroke-linejoin="round"/>
    <path d="M 45.14448165893555 147.985595703125 C 12.984243392944336 136.37948608398438 5.083164215087891 93.79737091064453 41.07571792602539 76.04197692871094" stroke-width="3.0" fill="none" stroke="rgb(0, 0, 0)" stroke-opacity="1.0" stroke-linecap="round" stroke-linejoin="round"/>
    <path d="M 182.0664520263672 179.82156372070312 C 157.3074493408203 150.0222625732422 189.08319091796875 170.38543701171875 173.2018585205078 163.9622802734375" stroke-width="3.0" fill="none" stroke="rgb(0, 0, 0)" stroke-opacity="1.0" stroke-linecap="round" stroke-linejoin="round"/>
    <path d="M 169.0810089111328 155.2954864501953 C 77.78669738769531 153.771240234375 146.59251403808594 162.40760803222656 127.11527252197266 156.43624877929688" stroke-width="3.0" fill="none" stroke="rgb(0, 0, 0)" stroke-opacity="1.0" stroke-linecap="round" stroke-linejoin="round"/>
    <path d="M 29.888330459594727 81.43883514404297 C 97.66919708251953 42.40203857421875 100.81490325927734 131.04736328125 98.12154388427734 111.3642349243164" stroke-width="3.0" fill="none" stroke="rgb(0, 0, 0)" stroke-opacity="1.0" stroke-linecap="round" stroke-linejoin="round"/>
    <path d="M 110.30255126953125 130.7691650390625 C 82.37371826171875 137.69046020507812 105.60145568847656 114.62415313720703 76.01558685302734 86.8729476928711" stroke-width="3.0" fill="none" stroke="rgb(0, 0, 0)" stroke-opacity="1.0" stroke-linecap="round" stroke-linejoin="round"/>
    <path d="M 57.43325424194336 184.0890350341797 C 101.21505737304688 149.38119506835938 114.87306213378906 149.41900634765625 147.56588745117188 154.06866455078125" stroke-width="3.0" fill="none" stroke="rgb(0, 0, 0)" stroke-opacity="1.0" stroke-linecap="round" stroke-linejoin="round"/>
    <path d="M 84.19831848144531 33.760498046875 C 96.77852630615234 73.82801055908203 96.75244140625 26.1484375 74.70767974853516 83.37032318115234" stroke-width="3.0" fill="none" stroke="rgb(0, 0, 0)" stroke-opacity="1.0" stroke-linecap="round" stroke-linejoin="round"/>
    <path d="M 138.64315795898438 149.84371948242188 C 224.63519287109375 177.67825317382812 132.95721435546875 153.0582275390625 149.50746154785156 186.64955139160156" stroke-width="3.0" fill="none" stroke="rgb(0, 0, 0)" stroke-opacity="1.0" stroke-linecap="round" stroke-linejoin="round"/>
    <path d="M 112.10327911376953 115.96270751953125 C 114.32162475585938 165.1038818359375 134.54676818847656 128.91903686523438 92.82432556152344 127.61156463623047" stroke-width="3.0" fill="none" stroke="rgb(0, 0, 0)" stroke-opacity="1.0" stroke-linecap="round" stroke-linejoin="round"/>
    <path d="M 176.1254425048828 54.11024475097656 C 169.81527709960938 53.63435363769531 195.12278747558594 8.862401962280273 156.8611297607422 60.30661392211914" stroke-width="3.0" fill="none" stroke="rgb(0, 0, 0)" stroke-opacity="1.0" stroke-linecap="round" stroke-linejoin="round"/>
    <path d="M 78.61749267578125 43.59292221069336 C 69.40284729003906 64.32789611816406 84.79714965820312 40.446189880371094 56.537315368652344 114.08051300048828" stroke-width="3.0" fill="none" stroke="rgb(0, 0, 0)" stroke-opacity="1.0" stroke-linecap="round" stroke-linejoin="round"/>
  </g>
</svg>
