<?xml version="1.0" ?>
<svg xmlns="http://www.w3.org/2000/svg" version="1.1" width="224" height="224">
  <defs/>
  <g>
    <path d="M 139.11117553710938 130.29922485351562 C 198.75189208984375 114.93976593017578 169.52882385253906 101.27904510498047 165.7279052734375 116.22398376464844" stroke-width="3.0" fill="none" stroke="rgb(0, 0, 0)" stroke-opacity="1.0" stroke-linecap="round" stroke-linejoin="round"/>
    <path d="M 119.33304595947266 156.5956573486328 C 56.503196716308594 172.3046875 76.95399475097656 184.24313354492188 155.13868713378906 157.4886474609375" stroke-width="3.0" fill="none" stroke="rgb(0, 0, 0)" stroke-opacity="1.0" stroke-linecap="round" stroke-linejoin="round"/>
    <path d="M 174.12074279785156 147.44479370117188 C 147.97100830078125 157.51443481445312 101.09740447998047 124.10411834716797 145.7421875 65.24089813232422" stroke-width="3.0" fill="none" stroke="rgb(0, 0, 0)" stroke-opacity="1.0" stroke-linecap="round" stroke-linejoin="round"/>
    <path d="M 150.2752227783203 139.4625244140625 C 182.20413208007812 102.892333984375 151.44992065429688 123.66222381591797 192.68357849121094 130.0420684814453" stroke-width="3.0" fill="none" stroke="rgb(0, 0, 0)" stroke-opacity="1.0" stroke-linecap="round" stroke-linejoin="round"/>
    <path d="M 155.29222106933594 77.00678253173828 C 223.19818115234375 62.41880416870117 230.7283477783203 165.79461669921875 143.24386596679688 158.19215393066406" stroke-width="3.0" fill="none" stroke="rgb(0, 0, 0)" stroke-opacity="1.0" stroke-linecap="round" stroke-linejoin="round"/>
    <path d="M 101.63179016113281 154.67324829101562 C 44.5892219543457 176.15289306640625 81.55559539794922 191.5521697998047 128.5569610595703 161.5270538330078" stroke-width="3.0" fill="none" stroke="rgb(0, 0, 0)" stroke-opacity="1.0" stroke-linecap="round" stroke-linejoin="round"/>
    <path d="M 93.15695190429688 120.89370727539062 C 135.9835968017578 124.42118072509766 82.89081573486328 103.22380065917969 114.61300659179688 114.08116149902344" stroke-width="3.0" fill="none" stroke="rgb(0, 0, 0)" stroke-opacity="1.0" stroke-linecap="round" stroke-linejoin="round"/>
    <path d="M 57.49586868286133 175.26780700683594 C 163.1087188720703 141.2364501953125 188.2547149658203 155.6041717529297 54.62438201904297 170.06195068359375" stroke-width="3.0" fill="none" stroke="rgb(0, 0, 0)" stroke-opacity="1.0" stroke-linecap="round" stroke-linejoin="round"/>
    <path d="M 183.29074096679688 184.7918243408203 C 144.498291015625 229.59375 129.41537475585938 165.08543395996094 145.91473388671875 189.1110382080078" stroke-width="3.0" fill="none" stroke="rgb(0, 0, 0)" stroke-opacity="1.0" stroke-linecap="round" stroke-linejoin="round"/>
    <path d="M 158.075439453125 84.61571502685547 C 201.21829223632812 77.93582153320312 224.16696166992188 140.58558654785156 168.65789794921875 149.45362854003906" stroke-width="3.0" fill="none" stroke="rgb(0, 0, 0)" stroke-opacity="1.0" stroke-linecap="round" stroke-linejoin="round"/>
    <path d="M 178.17933654785156 183.10574340820312 C 180.61077880859375 160.2877960205078 170.85882568359375 223.11631774902344 181.71311950683594 175.28836059570312" stroke-width="3.0" fill="none" stroke="rgb(0, 0, 0)" stroke-opacity="1.0" stroke-linecap="round" stroke-linejoin="round"/>
    <path d="M 91.97340393066406 173.7143096923828 C 81.36001586914062 165.9891357421875 87.0037841796875 147.00633239746094 126.2628173828125 156.10549926757812" stroke-width="3.0" fill="none" stroke="rgb(0, 0, 0)" stroke-opacity="1.0" stroke-linecap="round" stroke-linejoin="round"/>
    <path d="M 164.51504516601562 145.52989196777344 C 174.14352416992188 86.26277923583984 168.6109161376953 83.40795135498047 175.43939208984375 147.62066650390625" stroke-width="3.0" fill="none" stroke="rgb(0, 0, 0)" stroke-opacity="1.0" stroke-linecap="round" stroke-linejoin="round"/>
    <path d="M 141.11441040039062 177.83763122558594 C 166.33348083496094 223.2161407470703 190.6448516845703 153.0071563720703 140.66883850097656 179.72210693359375" stroke-width="3.0" fill="none" stroke="rgb(0, 0, 0)" stroke-opacity="1.0" stroke-linecap="round" stroke-linejoin="round"/>
    <path d="M 88.0220947265625 54.68082809448242 C 126.6311264038086 31.345502853393555 189.91281127929688 93.70929718017578 164.5941162109375 38.635658264160156" stroke-width="3.0" fill="none" stroke="rgb(0, 0, 0)" stroke-opacity="1.0" stroke-linecap="round" stroke-linejoin="round"/>
    <path d="M 66.81552124023438 27.209228515625 C 78.26070404052734 23.2209529876709 83.95482635498047 25.769847869873047 107.17161560058594 123.60627746582031" stroke-width="3.0" fill="none" stroke="rgb(0, 0, 0)" stroke-opacity="1.0" stroke-linecap="round" stroke-linejoin="round"/>
    <path d="M 61.95199966430664 26.58491325378418 C 118.3836669921875 30.403654098510742 36.3346061706543 33.8890380859375 74.60397338867188 27.375532150268555" stroke-width="3.0" fill="none" stroke="rgb(0, 0, 0)" stroke-opacity="1.0" stroke-linecap="round" stroke-linejoin="round"/>
    <path d="M 66.63433837890625 183.52020263671875 C 201.96954345703125 184.466552734375 158.42440795898438 177.90744018554688 52.055999755859375 189.01492309570312" stroke-width="3.0" fill="none" stroke="rgb(0, 0, 0)" stroke-opacity="1.0" stroke-linecap="round" stroke-linejoin="round"/>
    <path d="M 138.89479064941406 191.6748046875 C 144.31439208984375 134.1947479248047 216.1314239501953 187.7071533203125 160.70602416992188 165.111572265625" stroke-width="3.0" fill="none" stroke="rgb(0, 0, 0)" stroke-opacity="1.0" stroke-linecap="round" stroke-linejoin="round"/>
    <path d="M 50.688148498535156 183.1834259033203 C 150.87034606933594 189.852294921875 147.65447998046875 187.9644012451172 53.32277297973633 177.1890411376953" stroke-width="3.0" fill="none" stroke="rgb(0, 0, 0)" stroke-opacity="1.0" stroke-linecap="round" stroke-linejoin="round"/>
    <path d="M 45.035037994384766 190.17872619628906 C 211.56007385253906 201.86544799804688 179.4462432861328 161.55543518066406 65.52169036865234 183.37930297851562" stroke-width="3.0" fill="none" stroke="rgb(0, 0, 0)" stroke-opacity="1.0" stroke-linecap="round" stroke-linejoin="round"/>
    <path d="M 99.35218048095703 189.0627899169922 C 113.7970199584961 145.69541931152344 131.17367553710938 159.16712951660156 79.42962646484375 170.64488220214844" stroke-width="3.0" fill="none" stroke="rgb(0, 0, 0)" stroke-opacity="1.0" stroke-linecap="round" stroke-linejoin="round"/>
    <path d="M 192.98976135253906 85.03304290771484 C 178.3896942138672 78.03585815429688 148.33987426757812 52.236446380615234 171.82745361328125 113.9592514038086" stroke-width="3.0" fill="none" stroke="rgb(0, 0, 0)" stroke-opacity="1.0" stroke-linecap="round" stroke-linejoin="round"/>
    <path d="M 113.75540161132812 155.5795440673828 C 51.51457595825195 197.8100128173828 22.790225982666016 190.7201690673828 99.28584289550781 180.9505157470703" stroke-width="3.0" fill="none" stroke="rgb(0, 0, 0)" stroke-opacity="1.0" stroke-linecap="round" stroke-linejoin="round"/>
    <path d="M 65.98420715332031 111.04827117919922 C 85.97369384765625 57.019737243652344 56.74925994873047 35.60752487182617 172.45904541015625 44.87569808959961" stroke-width="3.0" fill="none" stroke="rgb(0, 0, 0)" stroke-opacity="1.0" stroke-linecap="round" stroke-linejoin="round"/>
    <path d="M 127.18341827392578 160.99058532714844 C 171.9893035888672 154.90672302246094 128.3346710205078 143.01162719726562 118.32752990722656 166.0819091796875" stroke-width="3.0" fill="none" stroke="rgb(0, 0, 0)" stroke-opacity="1.0" stroke-linecap="round" stroke-linejoin="round"/>
    <path d="M 157.56922912597656 63.18235778808594 C 180.77114868164062 28.935245513916016 206.57583618164062 32.32706832885742 144.69705200195312 47.69705581665039" stroke-width="3.0" fill="none" stroke="rgb(0, 0, 0)" stroke-opacity="1.0" stroke-linecap="round" stroke-linejoin="round"/>
    <path d="M 57.09719467163086 180.95640563964844 C 50.16720199584961 169.75772094726562 43.322120666503906 210.05284118652344 55.3424072265625 173.75531005859375" stroke-width="3.0" fill="none" stroke="rgb(0, 0, 0)" stroke-opacity="1.0" stroke-linecap="round" stroke-linejoin="round"/>
    <path d="M 174.99502563476562 90.5018310546875 C 172.99679565429688 119.6212387084961 160.6350555419922 125.36918640136719 187.54786682128906 99.4354248046875" stroke-width="3.0" fill="none" stroke="rgb(0, 0, 0)" stroke-opacity="1.0" stroke-linecap="round" stroke-linejoin="round"/>
    <path d="M 151.43878173828125 45.63575744628906 C 109.85437774658203 108.65619659423828 97.37804412841797 151.4853973388672 102.6631851196289 121.781494140625" stroke-width="3.0" fill="none" stroke="rgb(0, 0, 0)" stroke-opacity="1.0" stroke-linecap="round" stroke-linejoin="round"/>
    <path d="M 178.54884338378906 43.5401611328125 C 130.98023986816406 61.500038146972656 135.854248046875 -3.9133002758026123 166.8477325439453 123.39127349853516" stroke-width="3.0" fill="none" stroke="rgb(0, 0, 0)" stroke-opacity="1.0" stroke-linecap="round" stroke-linejoin="round"/>
    <path d="M 59.31199264526367 169.86964416503906 C 127.84866333007812 163.66766357421875 115.1275863647461 176.2500762939453 59.10916519165039 176.34552001953125" stroke-width="3.0" fill="none" stroke="rgb(0, 0, 0)" stroke-opacity="1.0" stroke-linecap="round" stroke-linejoin="round"/>
    <path d="M 84.67425537109375 62.34160614013672 C 108.42423248291016 142.8833465576172 138.94424438476562 123.68102264404297 52.40578842163086 114.23729705810547" stroke-width="3.0" fill="none" stroke="rgb(0, 0, 0)" stroke-opacity="1.0" stroke-linecap="round" stroke-linejoin="round"/>
    <path d="M 188.08177185058594 137.00643920898438 C 172.01023864746094 103.37322998046875 156.43666076660156 126.16915893554688 196.14141845703125 112.32644653320312" stroke-width="3.0" fill="none" stroke="rgb(0, 0, 0)" stroke-opacity="1.0" stroke-linecap="round" stroke-linejoin="round"/>
    <path d="M 88.17969512939453 28.581003189086914 C 83.24152374267578 42.95990753173828 29.122814178466797 13.607784271240234 92.38681030273438 28.375144958496094" stroke-width="3.0" fill="none" stroke="rgb(0, 0, 0)" stroke-opacity="1.0" stroke-linecap="round" stroke-linejoin="round"/>
    <path d="M 39.052921295166016 145.80572509765625 C 65.22068786621094 158.49005126953125 90.56148529052734 138.703857421875 94.12530517578125 113.02352905273438" stroke-width="3.0" fill="none" stroke="rgb(0, 0, 0)" stroke-opacity="1.0" stroke-linecap="round" stroke-linejoin="round"/>
    <path d="M 150.820068359375 72.5923843383789 C 127.67159271240234 105.30924224853516 131.88217163085938 149.3308563232422 158.3170928955078 124.71163940429688" stroke-width="3.0" fill="none" stroke="rgb(0, 0, 0)" stroke-opacity="1.0" stroke-linecap="round" stroke-linejoin="round"/>
    <path d="M 44.77519226074219 148.03065490722656 C 13.850944519042969 136.62115478515625 8.320846557617188 96.46711730957031 36.986629486083984 80.14241027832031" stroke-width="3.0" fill="none" stroke="rgb(0, 0, 0)" stroke-opacity="1.0" stroke-linecap="round" stroke-linejoin="round"/>
    <path d="M 185.44046020507812 187.81918334960938 C 152.92604064941406 145.9810333251953 191.94129943847656 168.17230224609375 173.65135192871094 170.1084747314453" stroke-width="3.0" fill="none" stroke="rgb(0, 0, 0)" stroke-opacity="1.0" stroke-linecap="round" stroke-linejoin="round"/>
    <path d="M 163.98001098632812 156.2200469970703 C 58.96521759033203 142.4270477294922 144.9899139404297 165.62815856933594 127.00962829589844 157.29019165039062" stroke-width="3.0" fill="none" stroke="rgb(0, 0, 0)" stroke-opacity="1.0" stroke-linecap="round" stroke-linejoin="round"/>
    <path d="M 29.625410079956055 83.42144775390625 C 88.25080108642578 46.52268600463867 94.22113037109375 141.3072052001953 102.61649322509766 113.09981536865234" stroke-width="3.0" fill="none" stroke="rgb(0, 0, 0)" stroke-opacity="1.0" stroke-linecap="round" stroke-linejoin="round"/>
    <path d="M 109.82535552978516 129.7718048095703 C 83.19682312011719 132.09674072265625 108.74884796142578 109.21125793457031 78.96007537841797 86.43486785888672" stroke-width="3.0" fill="none" stroke="rgb(0, 0, 0)" stroke-opacity="1.0" stroke-linecap="round" stroke-linejoin="round"/>
    <path d="M 74.52436065673828 184.42691040039062 C 89.19983673095703 149.17520141601562 112.4790267944336 149.5403594970703 145.38519287109375 152.8290557861328" stroke-width="3.0" fill="none" stroke="rgb(0, 0, 0)" stroke-opacity="1.0" stroke-linecap="round" stroke-linejoin="round"/>
    <path d="M 83.06884002685547 33.76838302612305 C 95.72190856933594 71.44103240966797 97.46592712402344 20.576021194458008 73.71710968017578 79.9317855834961" stroke-width="3.0" fill="none" stroke="rgb(0, 0, 0)" stroke-opacity="1.0" stroke-linecap="round" stroke-linejoin="round"/>
    <path d="M 144.6104736328125 149.7661590576172 C 221.78443908691406 180.30320739746094 121.9804916381836 149.6394500732422 153.0026397705078 192.1446075439453" stroke-width="3.0" fill="none" stroke="rgb(0, 0, 0)" stroke-opacity="1.0" stroke-linecap="round" stroke-linejoin="round"/>
    <path d="M 113.44113159179688 112.33311462402344 C 110.28050994873047 168.30502319335938 134.95127868652344 124.77770233154297 87.57186126708984 120.67793273925781" stroke-width="3.0" fill="none" stroke="rgb(0, 0, 0)" stroke-opacity="1.0" stroke-linecap="round" stroke-linejoin="round"/>
    <path d="M 177.25294494628906 48.10008239746094 C 172.13763427734375 55.187774658203125 197.1656494140625 6.413613796234131 156.9248504638672 58.33706283569336" stroke-width="3.0" fill="none" stroke="rgb(0, 0, 0)" stroke-opacity="1.0" stroke-linecap="round" stroke-linejoin="round"/>
    <path d="M 81.15476989746094 47.52766799926758 C 67.44769287109375 60.353145599365234 84.0645751953125 43.48841857910156 55.250545501708984 116.87841033935547" stroke-width="3.0" fill="none" stroke="rgb(0, 0, 0)" stroke-opacity="1.0" stroke-linecap="round" stroke-linejoin="round"/>
  </g>
</svg>
