<?xml version="1.0" ?>
<svg xmlns="http://www.w3.org/2000/svg" version="1.1" width="224" height="224">
  <defs/>
  <g>
    <path d="M 136.6531219482422 118.90235137939453 C 195.4961395263672 110.5751724243164 172.45602416992188 109.14202880859375 175.1692657470703 116.64546203613281" stroke-width="3.0" fill="none" stroke="rgb(0, 0, 0)" stroke-opacity="1.0" stroke-linecap="round" stroke-linejoin="round"/>
    <path d="M 120.33458709716797 168.12925720214844 C 51.4224967956543 172.62205505371094 74.88484954833984 179.3209991455078 164.71946716308594 158.1385498046875" stroke-width="3.0" fill="none" stroke="rgb(0, 0, 0)" stroke-opacity="1.0" stroke-linecap="round" stroke-linejoin="round"/>
    <path d="M 171.47308349609375 151.68148803710938 C 148.3444061279297 155.30142211914062 109.41602325439453 126.82245635986328 145.707763671875 82.9169692993164" stroke-width="3.0" fill="none" stroke="rgb(0, 0, 0)" stroke-opacity="1.0" stroke-linecap="round" stroke-linejoin="round"/>
    <path d="M 148.1005096435547 141.61837768554688 C 177.2300262451172 96.82270812988281 154.79544067382812 115.69454956054688 193.70947265625 128.7291717529297" stroke-width="3.0" fill="none" stroke="rgb(0, 0, 0)" stroke-opacity="1.0" stroke-linecap="round" stroke-linejoin="round"/>
    <path d="M 154.6539764404297 78.79655456542969 C 227.6158447265625 67.85127258300781 231.9037628173828 169.98696899414062 148.65577697753906 157.25900268554688" stroke-width="3.0" fill="none" stroke="rgb(0, 0, 0)" stroke-opacity="1.0" stroke-linecap="round" stroke-linejoin="round"/>
    <path d="M 89.71229553222656 177.5109405517578 C 52.90713882446289 166.1927490234375 91.533935546875 206.39413452148438 107.61795806884766 153.7122344970703" stroke-width="3.0" fill="none" stroke="rgb(0, 0, 0)" stroke-opacity="1.0" stroke-linecap="round" stroke-linejoin="round"/>
    <path d="M 100.31195068359375 118.98529815673828 C 139.9397735595703 126.02217102050781 77.6812744140625 102.66374969482422 107.26097106933594 122.91614532470703" stroke-width="3.0" fill="none" stroke="rgb(0, 0, 0)" stroke-opacity="1.0" stroke-linecap="round" stroke-linejoin="round"/>
    <path d="M 55.818389892578125 173.64088439941406 C 183.83807373046875 150.80618286132812 202.1278076171875 157.27316284179688 54.56049346923828 172.69532775878906" stroke-width="3.0" fill="none" stroke="rgb(0, 0, 0)" stroke-opacity="1.0" stroke-linecap="round" stroke-linejoin="round"/>
    <path d="M 184.27490234375 183.60052490234375 C 149.96327209472656 232.9085693359375 127.18403625488281 163.28390502929688 145.24624633789062 183.01377868652344" stroke-width="3.0" fill="none" stroke="rgb(0, 0, 0)" stroke-opacity="1.0" stroke-linecap="round" stroke-linejoin="round"/>
    <path d="M 157.41334533691406 86.30397033691406 C 199.08065795898438 75.89839172363281 225.04246520996094 139.83920288085938 168.45758056640625 152.80606079101562" stroke-width="3.0" fill="none" stroke="rgb(0, 0, 0)" stroke-opacity="1.0" stroke-linecap="round" stroke-linejoin="round"/>
    <path d="M 184.56182861328125 186.9705047607422 C 185.3677215576172 152.4032440185547 167.81549072265625 231.5037384033203 181.5743408203125 171.53970336914062" stroke-width="3.0" fill="none" stroke="rgb(0, 0, 0)" stroke-opacity="1.0" stroke-linecap="round" stroke-linejoin="round"/>
    <path d="M 113.1960220336914 170.74363708496094 C 95.36424255371094 172.2561798095703 108.42070007324219 171.71958923339844 145.5246124267578 156.84283447265625" stroke-width="3.0" fill="none" stroke="rgb(0, 0, 0)" stroke-opacity="1.0" stroke-linecap="round" stroke-linejoin="round"/>
    <path d="M 158.32447814941406 146.215087890625 C 173.40899658203125 100.85929107666016 166.51596069335938 79.73418426513672 171.0684051513672 147.28675842285156" stroke-width="3.0" fill="none" stroke="rgb(0, 0, 0)" stroke-opacity="1.0" stroke-linecap="round" stroke-linejoin="round"/>
    <path d="M 140.45516967773438 178.13226318359375 C 168.22393798828125 226.75137329101562 191.70816040039062 150.4909210205078 140.22354125976562 174.5526885986328" stroke-width="3.0" fill="none" stroke="rgb(0, 0, 0)" stroke-opacity="1.0" stroke-linecap="round" stroke-linejoin="round"/>
    <path d="M 89.4126968383789 55.59988021850586 C 132.43768310546875 37.61641311645508 188.0417938232422 87.7402572631836 162.98907470703125 39.61994171142578" stroke-width="3.0" fill="none" stroke="rgb(0, 0, 0)" stroke-opacity="1.0" stroke-linecap="round" stroke-linejoin="round"/>
    <path d="M 60.86198043823242 28.024906158447266 C 76.38273620605469 29.73243522644043 84.46057891845703 28.84767723083496 105.23239135742188 115.7340087890625" stroke-width="3.0" fill="none" stroke="rgb(0, 0, 0)" stroke-opacity="1.0" stroke-linecap="round" stroke-linejoin="round"/>
    <path d="M 61.76857376098633 28.26175880432129 C 141.15347290039062 25.483739852905273 38.550533294677734 34.99359893798828 69.59173583984375 24.821556091308594" stroke-width="3.0" fill="none" stroke="rgb(0, 0, 0)" stroke-opacity="1.0" stroke-linecap="round" stroke-linejoin="round"/>
    <path d="M 60.006046295166016 180.7752227783203 C 208.77896118164062 202.24562072753906 138.79904174804688 196.97756958007812 48.142242431640625 186.33493041992188" stroke-width="3.0" fill="none" stroke="rgb(0, 0, 0)" stroke-opacity="1.0" stroke-linecap="round" stroke-linejoin="round"/>
    <path d="M 136.384521484375 190.25543212890625 C 141.07493591308594 136.00440979003906 215.6952667236328 191.9689483642578 163.87399291992188 166.20042419433594" stroke-width="3.0" fill="none" stroke="rgb(0, 0, 0)" stroke-opacity="1.0" stroke-linecap="round" stroke-linejoin="round"/>
    <path d="M 42.48138427734375 192.80166625976562 C 146.87342834472656 210.11343383789062 139.04132080078125 208.5063934326172 52.04695510864258 194.21319580078125" stroke-width="3.0" fill="none" stroke="rgb(0, 0, 0)" stroke-opacity="1.0" stroke-linecap="round" stroke-linejoin="round"/>
    <path d="M 50.88703155517578 182.1117401123047 C 196.95509338378906 184.20936584472656 157.1404571533203 161.49497985839844 65.3328628540039 173.9486083984375" stroke-width="3.0" fill="none" stroke="rgb(0, 0, 0)" stroke-opacity="1.0" stroke-linecap="round" stroke-linejoin="round"/>
    <path d="M 95.9793472290039 189.12466430664062 C 93.24191284179688 156.15591430664062 115.9206314086914 170.120849609375 67.88189697265625 177.26730346679688" stroke-width="3.0" fill="none" stroke="rgb(0, 0, 0)" stroke-opacity="1.0" stroke-linecap="round" stroke-linejoin="round"/>
    <path d="M 188.90914916992188 93.69561004638672 C 187.42059326171875 96.81029510498047 162.3485870361328 65.71018981933594 174.5330352783203 109.42769622802734" stroke-width="3.0" fill="none" stroke="rgb(0, 0, 0)" stroke-opacity="1.0" stroke-linecap="round" stroke-linejoin="round"/>
    <path d="M 106.24787139892578 153.66351318359375 C 47.99378204345703 191.12413024902344 34.139522552490234 183.55712890625 74.3490219116211 187.02557373046875" stroke-width="3.0" fill="none" stroke="rgb(0, 0, 0)" stroke-opacity="1.0" stroke-linecap="round" stroke-linejoin="round"/>
    <path d="M 63.989013671875 98.54350280761719 C 85.41322326660156 57.35102844238281 64.01604461669922 37.81939697265625 166.39881896972656 50.18627166748047" stroke-width="3.0" fill="none" stroke="rgb(0, 0, 0)" stroke-opacity="1.0" stroke-linecap="round" stroke-linejoin="round"/>
    <path d="M 124.10093688964844 151.2985382080078 C 181.56349182128906 159.66676330566406 123.88692474365234 154.012451171875 122.28763580322266 160.74276733398438" stroke-width="3.0" fill="none" stroke="rgb(0, 0, 0)" stroke-opacity="1.0" stroke-linecap="round" stroke-linejoin="round"/>
    <path d="M 150.73419189453125 63.60369873046875 C 185.33871459960938 31.419065475463867 210.06678771972656 26.91121482849121 149.55372619628906 48.84379196166992" stroke-width="3.0" fill="none" stroke="rgb(0, 0, 0)" stroke-opacity="1.0" stroke-linecap="round" stroke-linejoin="round"/>
    <path d="M 47.264915466308594 183.7888946533203 C 50.706581115722656 178.34909057617188 37.143253326416016 198.91299438476562 50.04158401489258 174.80126953125" stroke-width="3.0" fill="none" stroke="rgb(0, 0, 0)" stroke-opacity="1.0" stroke-linecap="round" stroke-linejoin="round"/>
    <path d="M 180.31735229492188 91.14373779296875 C 168.3271026611328 115.36266326904297 162.13380432128906 127.11947631835938 188.4785919189453 94.52415466308594" stroke-width="3.0" fill="none" stroke="rgb(0, 0, 0)" stroke-opacity="1.0" stroke-linecap="round" stroke-linejoin="round"/>
    <path d="M 147.4260711669922 45.121337890625 C 110.5516357421875 107.06743621826172 98.9773178100586 155.9976043701172 103.65657806396484 116.26338195800781" stroke-width="3.0" fill="none" stroke="rgb(0, 0, 0)" stroke-opacity="1.0" stroke-linecap="round" stroke-linejoin="round"/>
    <path d="M 179.1165313720703 37.814186096191406 C 131.28753662109375 64.58216857910156 123.4865493774414 -1.9904441833496094 168.4224395751953 119.84774017333984" stroke-width="3.0" fill="none" stroke="rgb(0, 0, 0)" stroke-opacity="1.0" stroke-linecap="round" stroke-linejoin="round"/>
    <path d="M 55.58930969238281 178.81753540039062 C 116.37779998779297 171.21102905273438 105.05613708496094 185.28457641601562 52.38623046875 177.51907348632812" stroke-width="3.0" fill="none" stroke="rgb(0, 0, 0)" stroke-opacity="1.0" stroke-linecap="round" stroke-linejoin="round"/>
    <path d="M 85.76624298095703 62.56930923461914 C 104.13265991210938 128.3814697265625 125.95861053466797 121.05042266845703 53.792823791503906 112.35775756835938" stroke-width="3.0" fill="none" stroke="rgb(0, 0, 0)" stroke-opacity="1.0" stroke-linecap="round" stroke-linejoin="round"/>
    <path d="M 181.016845703125 142.5468292236328 C 169.4965362548828 115.54769897460938 167.7709503173828 119.03572845458984 195.5437774658203 112.63994598388672" stroke-width="3.0" fill="none" stroke="rgb(0, 0, 0)" stroke-opacity="1.0" stroke-linecap="round" stroke-linejoin="round"/>
    <path d="M 80.48389434814453 28.05382537841797 C 78.13288879394531 42.77092361450195 26.625341415405273 16.472572326660156 92.20516204833984 27.371501922607422" stroke-width="3.0" fill="none" stroke="rgb(0, 0, 0)" stroke-opacity="1.0" stroke-linecap="round" stroke-linejoin="round"/>
    <path d="M 42.09120559692383 147.85006713867188 C 60.856929779052734 159.3307647705078 84.44002532958984 141.34371948242188 93.08016967773438 120.8291244506836" stroke-width="3.0" fill="none" stroke="rgb(0, 0, 0)" stroke-opacity="1.0" stroke-linecap="round" stroke-linejoin="round"/>
    <path d="M 161.07127380371094 104.38540649414062 C 119.22441864013672 122.43807983398438 120.8271713256836 123.98084259033203 162.46414184570312 112.40531921386719" stroke-width="3.0" fill="none" stroke="rgb(0, 0, 0)" stroke-opacity="1.0" stroke-linecap="round" stroke-linejoin="round"/>
    <path d="M 45.321712493896484 149.7957000732422 C 14.923650741577148 136.49903869628906 7.011984825134277 92.70105743408203 43.373939514160156 77.00692749023438" stroke-width="3.0" fill="none" stroke="rgb(0, 0, 0)" stroke-opacity="1.0" stroke-linecap="round" stroke-linejoin="round"/>
    <path d="M 183.56483459472656 182.35516357421875 C 160.02223205566406 157.2218017578125 190.49093627929688 174.5928955078125 172.72523498535156 164.67825317382812" stroke-width="3.0" fill="none" stroke="rgb(0, 0, 0)" stroke-opacity="1.0" stroke-linecap="round" stroke-linejoin="round"/>
    <path d="M 168.60838317871094 151.6412353515625 C 83.8271255493164 151.36251831054688 148.7907257080078 163.29066467285156 124.97870635986328 159.899658203125" stroke-width="3.0" fill="none" stroke="rgb(0, 0, 0)" stroke-opacity="1.0" stroke-linecap="round" stroke-linejoin="round"/>
    <path d="M 31.4976806640625 82.78959655761719 C 88.5490951538086 46.9304084777832 99.91464233398438 137.6130828857422 94.24015808105469 113.71253967285156" stroke-width="3.0" fill="none" stroke="rgb(0, 0, 0)" stroke-opacity="1.0" stroke-linecap="round" stroke-linejoin="round"/>
    <path d="M 112.18712615966797 127.34477233886719 C 81.27989196777344 136.47959899902344 111.23162078857422 107.18571472167969 77.52336120605469 87.6622314453125" stroke-width="3.0" fill="none" stroke="rgb(0, 0, 0)" stroke-opacity="1.0" stroke-linecap="round" stroke-linejoin="round"/>
    <path d="M 60.98984909057617 188.91534423828125 C 102.7506103515625 147.09976196289062 113.00975036621094 145.41354370117188 147.15809631347656 153.49464416503906" stroke-width="3.0" fill="none" stroke="rgb(0, 0, 0)" stroke-opacity="1.0" stroke-linecap="round" stroke-linejoin="round"/>
    <path d="M 83.74478912353516 33.799346923828125 C 98.43452453613281 70.37479400634766 94.02898406982422 24.308090209960938 75.1025161743164 85.09209442138672" stroke-width="3.0" fill="none" stroke="rgb(0, 0, 0)" stroke-opacity="1.0" stroke-linecap="round" stroke-linejoin="round"/>
    <path d="M 136.02923583984375 154.459228515625 C 226.8757781982422 177.63560485839844 139.5122833251953 149.1630859375 146.99722290039062 189.0178985595703" stroke-width="3.0" fill="none" stroke="rgb(0, 0, 0)" stroke-opacity="1.0" stroke-linecap="round" stroke-linejoin="round"/>
    <path d="M 110.7606201171875 117.37907409667969 C 118.95405578613281 162.7896728515625 134.010498046875 127.07190704345703 92.47476959228516 122.61522674560547" stroke-width="3.0" fill="none" stroke="rgb(0, 0, 0)" stroke-opacity="1.0" stroke-linecap="round" stroke-linejoin="round"/>
    <path d="M 176.84950256347656 52.225276947021484 C 170.98670959472656 54.852256774902344 193.17076110839844 9.309103965759277 158.61932373046875 61.061180114746094" stroke-width="3.0" fill="none" stroke="rgb(0, 0, 0)" stroke-opacity="1.0" stroke-linecap="round" stroke-linejoin="round"/>
    <path d="M 79.44060516357422 45.62092208862305 C 72.8042221069336 59.846309661865234 85.43295288085938 38.55345916748047 56.346397399902344 117.15018463134766" stroke-width="3.0" fill="none" stroke="rgb(0, 0, 0)" stroke-opacity="1.0" stroke-linecap="round" stroke-linejoin="round"/>
  </g>
</svg>
