<?xml version="1.0" ?>
<svg xmlns="http://www.w3.org/2000/svg" version="1.1" width="224" height="224">
  <defs/>
  <g>
    <path d="M 133.82066345214844 126.27059936523438 C 191.96102905273438 106.04886627197266 171.866455078125 104.26729583740234 166.20712280273438 112.60533142089844" stroke-width="3.0" fill="none" stroke="rgb(0, 0, 0)" stroke-opacity="1.0" stroke-linecap="round" stroke-linejoin="round"/>
    <path d="M 121.69759368896484 153.1664581298828 C 50.761470794677734 166.3511962890625 73.00347900390625 185.89910888671875 151.71763610839844 153.7334747314453" stroke-width="3.0" fill="none" stroke="rgb(0, 0, 0)" stroke-opacity="1.0" stroke-linecap="round" stroke-linejoin="round"/>
    <path d="M 176.79769897460938 147.97731018066406 C 151.8595733642578 156.69700622558594 108.46611785888672 127.88542938232422 146.65516662597656 74.3717269897461" stroke-width="3.0" fill="none" stroke="rgb(0, 0, 0)" stroke-opacity="1.0" stroke-linecap="round" stroke-linejoin="round"/>
    <path d="M 154.10769653320312 144.0797882080078 C 179.2022705078125 101.04009246826172 160.0844268798828 116.39506530761719 191.2450408935547 128.5244903564453" stroke-width="3.0" fill="none" stroke="rgb(0, 0, 0)" stroke-opacity="1.0" stroke-linecap="round" stroke-linejoin="round"/>
    <path d="M 153.70411682128906 74.0858383178711 C 224.88462829589844 62.84905242919922 233.88914489746094 172.8052215576172 141.66844177246094 158.58042907714844" stroke-width="3.0" fill="none" stroke="rgb(0, 0, 0)" stroke-opacity="1.0" stroke-linecap="round" stroke-linejoin="round"/>
    <path d="M 118.65873718261719 163.67662048339844 C 45.382545471191406 179.79371643066406 75.0994873046875 182.61053466796875 122.30717468261719 152.7926483154297" stroke-width="3.0" fill="none" stroke="rgb(0, 0, 0)" stroke-opacity="1.0" stroke-linecap="round" stroke-linejoin="round"/>
    <path d="M 94.03076171875 127.06600952148438 C 134.8908233642578 125.19259643554688 80.72991180419922 102.6562271118164 110.52503204345703 110.43716430664062" stroke-width="3.0" fill="none" stroke="rgb(0, 0, 0)" stroke-opacity="1.0" stroke-linecap="round" stroke-linejoin="round"/>
    <path d="M 58.298011779785156 180.4141387939453 C 165.8258056640625 146.5019989013672 192.4603271484375 159.17311096191406 51.3662223815918 176.42271423339844" stroke-width="3.0" fill="none" stroke="rgb(0, 0, 0)" stroke-opacity="1.0" stroke-linecap="round" stroke-linejoin="round"/>
    <path d="M 182.34950256347656 183.7615509033203 C 152.4691162109375 224.69839477539062 126.8658676147461 166.45501708984375 156.2785186767578 178.55093383789062" stroke-width="3.0" fill="none" stroke="rgb(0, 0, 0)" stroke-opacity="1.0" stroke-linecap="round" stroke-linejoin="round"/>
    <path d="M 156.3370819091797 85.71919250488281 C 203.35179138183594 77.84049224853516 220.59896850585938 138.4111328125 172.7916259765625 149.05685424804688" stroke-width="3.0" fill="none" stroke="rgb(0, 0, 0)" stroke-opacity="1.0" stroke-linecap="round" stroke-linejoin="round"/>
    <path d="M 182.83590698242188 187.5546417236328 C 183.56776428222656 154.0939483642578 167.7510528564453 219.568603515625 183.9231414794922 175.3022003173828" stroke-width="3.0" fill="none" stroke="rgb(0, 0, 0)" stroke-opacity="1.0" stroke-linecap="round" stroke-linejoin="round"/>
    <path d="M 86.95560455322266 179.69908142089844 C 80.87252044677734 181.70761108398438 104.30626678466797 149.95286560058594 128.2410125732422 152.89028930664062" stroke-width="3.0" fill="none" stroke="rgb(0, 0, 0)" stroke-opacity="1.0" stroke-linecap="round" stroke-linejoin="round"/>
    <path d="M 163.7628173828125 148.30030822753906 C 178.29869079589844 89.68695068359375 167.74029541015625 88.7778549194336 175.7718505859375 144.9107208251953" stroke-width="3.0" fill="none" stroke="rgb(0, 0, 0)" stroke-opacity="1.0" stroke-linecap="round" stroke-linejoin="round"/>
    <path d="M 150.7998046875 180.109130859375 C 169.000732421875 212.62037658691406 180.99461364746094 150.65538024902344 146.42221069335938 183.47897338867188" stroke-width="3.0" fill="none" stroke="rgb(0, 0, 0)" stroke-opacity="1.0" stroke-linecap="round" stroke-linejoin="round"/>
    <path d="M 85.3459243774414 58.40169143676758 C 129.35284423828125 29.801372528076172 187.39244079589844 93.51773834228516 164.09750366210938 38.71725845336914" stroke-width="3.0" fill="none" stroke="rgb(0, 0, 0)" stroke-opacity="1.0" stroke-linecap="round" stroke-linejoin="round"/>
    <path d="M 60.16934585571289 29.02278709411621 C 80.34028625488281 27.662288665771484 77.94145202636719 29.31563949584961 111.49434661865234 124.4505615234375" stroke-width="3.0" fill="none" stroke="rgb(0, 0, 0)" stroke-opacity="1.0" stroke-linecap="round" stroke-linejoin="round"/>
    <path d="M 61.111656188964844 28.304317474365234 C 125.52671813964844 28.413179397583008 32.070247650146484 32.66440963745117 75.54981231689453 33.15605926513672" stroke-width="3.0" fill="none" stroke="rgb(0, 0, 0)" stroke-opacity="1.0" stroke-linecap="round" stroke-linejoin="round"/>
    <path d="M 49.44731903076172 181.28509521484375 C 206.3717803955078 178.71240234375 171.1748046875 178.6033477783203 53.10139846801758 184.8466796875" stroke-width="3.0" fill="none" stroke="rgb(0, 0, 0)" stroke-opacity="1.0" stroke-linecap="round" stroke-linejoin="round"/>
    <path d="M 138.61790466308594 187.64527893066406 C 143.55906677246094 136.36399841308594 218.14613342285156 191.41159057617188 160.6422119140625 164.8114013671875" stroke-width="3.0" fill="none" stroke="rgb(0, 0, 0)" stroke-opacity="1.0" stroke-linecap="round" stroke-linejoin="round"/>
    <path d="M 46.95830535888672 193.2238006591797 C 178.259521484375 199.47328186035156 180.34210205078125 197.5646514892578 49.52488327026367 182.42169189453125" stroke-width="3.0" fill="none" stroke="rgb(0, 0, 0)" stroke-opacity="1.0" stroke-linecap="round" stroke-linejoin="round"/>
    <path d="M 46.13597106933594 188.21104431152344 C 206.46453857421875 193.1313934326172 176.1745147705078 170.63461303710938 49.1504020690918 184.0304412841797" stroke-width="3.0" fill="none" stroke="rgb(0, 0, 0)" stroke-opacity="1.0" stroke-linecap="round" stroke-linejoin="round"/>
    <path d="M 98.63504028320312 189.4161834716797 C 106.97235107421875 133.0211181640625 122.79205322265625 158.41419982910156 77.7140121459961 175.78846740722656" stroke-width="3.0" fill="none" stroke="rgb(0, 0, 0)" stroke-opacity="1.0" stroke-linecap="round" stroke-linejoin="round"/>
    <path d="M 192.58697509765625 86.21597290039062 C 176.5325469970703 74.53868103027344 134.2439422607422 60.5427131652832 171.4990692138672 104.36720275878906" stroke-width="3.0" fill="none" stroke="rgb(0, 0, 0)" stroke-opacity="1.0" stroke-linecap="round" stroke-linejoin="round"/>
    <path d="M 116.54020690917969 157.55624389648438 C 45.581363677978516 188.20484924316406 21.583538055419922 170.12718200683594 85.5167007446289 175.18197631835938" stroke-width="3.0" fill="none" stroke="rgb(0, 0, 0)" stroke-opacity="1.0" stroke-linecap="round" stroke-linejoin="round"/>
    <path d="M 65.62762451171875 111.4317626953125 C 87.3853759765625 57.98922348022461 54.063777923583984 37.86592102050781 169.6551513671875 45.92406463623047" stroke-width="3.0" fill="none" stroke="rgb(0, 0, 0)" stroke-opacity="1.0" stroke-linecap="round" stroke-linejoin="round"/>
    <path d="M 115.91638946533203 159.66539001464844 C 161.95213317871094 157.46011352539062 131.36514282226562 158.00193786621094 116.36760711669922 165.1348114013672" stroke-width="3.0" fill="none" stroke="rgb(0, 0, 0)" stroke-opacity="1.0" stroke-linecap="round" stroke-linejoin="round"/>
    <path d="M 153.0382843017578 62.244869232177734 C 185.15432739257812 31.765039443969727 201.26376342773438 27.085493087768555 154.7728271484375 47.11845397949219" stroke-width="3.0" fill="none" stroke="rgb(0, 0, 0)" stroke-opacity="1.0" stroke-linecap="round" stroke-linejoin="round"/>
    <path d="M 57.08734893798828 175.25547790527344 C 49.66960525512695 159.8310546875 32.987937927246094 211.2917022705078 51.68792724609375 186.22906494140625" stroke-width="3.0" fill="none" stroke="rgb(0, 0, 0)" stroke-opacity="1.0" stroke-linecap="round" stroke-linejoin="round"/>
    <path d="M 166.67958068847656 86.17118835449219 C 170.62399291992188 119.64203643798828 163.78988647460938 130.121337890625 185.24696350097656 96.40299987792969" stroke-width="3.0" fill="none" stroke="rgb(0, 0, 0)" stroke-opacity="1.0" stroke-linecap="round" stroke-linejoin="round"/>
    <path d="M 150.94155883789062 51.196170806884766 C 108.19026184082031 108.3529052734375 92.55179595947266 149.16494750976562 108.04876708984375 120.41180419921875" stroke-width="3.0" fill="none" stroke="rgb(0, 0, 0)" stroke-opacity="1.0" stroke-linecap="round" stroke-linejoin="round"/>
    <path d="M 177.42649841308594 37.198490142822266 C 126.3343276977539 61.336204528808594 131.79971313476562 -0.18892090022563934 166.72149658203125 118.96173858642578" stroke-width="3.0" fill="none" stroke="rgb(0, 0, 0)" stroke-opacity="1.0" stroke-linecap="round" stroke-linejoin="round"/>
    <path d="M 60.82831954956055 169.29302978515625 C 126.85246276855469 167.31585693359375 114.3246841430664 164.86431884765625 57.1649055480957 169.97738647460938" stroke-width="3.0" fill="none" stroke="rgb(0, 0, 0)" stroke-opacity="1.0" stroke-linecap="round" stroke-linejoin="round"/>
    <path d="M 88.28335571289062 59.22649383544922 C 105.65267944335938 144.4350128173828 138.99974060058594 122.3996810913086 52.73397445678711 117.82117462158203" stroke-width="3.0" fill="none" stroke="rgb(0, 0, 0)" stroke-opacity="1.0" stroke-linecap="round" stroke-linejoin="round"/>
    <path d="M 183.40530395507812 137.01089477539062 C 164.39292907714844 111.31173706054688 147.05718994140625 124.06890869140625 196.0615692138672 111.48302459716797" stroke-width="3.0" fill="none" stroke="rgb(0, 0, 0)" stroke-opacity="1.0" stroke-linecap="round" stroke-linejoin="round"/>
    <path d="M 83.32665252685547 28.605562210083008 C 77.35392761230469 46.91434097290039 29.5887508392334 12.799809455871582 90.21878814697266 28.09137725830078" stroke-width="3.0" fill="none" stroke="rgb(0, 0, 0)" stroke-opacity="1.0" stroke-linecap="round" stroke-linejoin="round"/>
    <path d="M 41.559200286865234 147.30113220214844 C 62.42021942138672 157.91993713378906 91.74504852294922 138.10189819335938 97.41046142578125 112.19071197509766" stroke-width="3.0" fill="none" stroke="rgb(0, 0, 0)" stroke-opacity="1.0" stroke-linecap="round" stroke-linejoin="round"/>
    <path d="M 148.0662384033203 76.83644104003906 C 123.8446044921875 103.67707824707031 126.25453186035156 163.2234649658203 162.11721801757812 122.85650634765625" stroke-width="3.0" fill="none" stroke="rgb(0, 0, 0)" stroke-opacity="1.0" stroke-linecap="round" stroke-linejoin="round"/>
    <path d="M 44.060157775878906 148.692626953125 C 14.753612518310547 133.92771911621094 8.849029541015625 99.0482177734375 39.81504440307617 78.82923126220703" stroke-width="3.0" fill="none" stroke="rgb(0, 0, 0)" stroke-opacity="1.0" stroke-linecap="round" stroke-linejoin="round"/>
    <path d="M 183.66407775878906 182.62538146972656 C 152.55471801757812 144.3615264892578 191.44451904296875 175.84207153320312 177.10597229003906 166.73915100097656" stroke-width="3.0" fill="none" stroke="rgb(0, 0, 0)" stroke-opacity="1.0" stroke-linecap="round" stroke-linejoin="round"/>
    <path d="M 157.39886474609375 158.9750518798828 C 49.30160140991211 146.268310546875 144.49163818359375 167.36712646484375 132.12704467773438 157.79246520996094" stroke-width="3.0" fill="none" stroke="rgb(0, 0, 0)" stroke-opacity="1.0" stroke-linecap="round" stroke-linejoin="round"/>
    <path d="M 28.96075439453125 84.4376220703125 C 96.5790023803711 42.56058883666992 99.54969024658203 138.24307250976562 102.96713256835938 111.3921127319336" stroke-width="3.0" fill="none" stroke="rgb(0, 0, 0)" stroke-opacity="1.0" stroke-linecap="round" stroke-linejoin="round"/>
    <path d="M 111.78495025634766 131.6923370361328 C 76.29429626464844 136.3980712890625 106.3513412475586 112.19938659667969 72.90965270996094 87.3230209350586" stroke-width="3.0" fill="none" stroke="rgb(0, 0, 0)" stroke-opacity="1.0" stroke-linecap="round" stroke-linejoin="round"/>
    <path d="M 75.43158721923828 190.82308959960938 C 86.18521881103516 150.32911682128906 114.81414031982422 146.58250427246094 146.5085906982422 153.14181518554688" stroke-width="3.0" fill="none" stroke="rgb(0, 0, 0)" stroke-opacity="1.0" stroke-linecap="round" stroke-linejoin="round"/>
    <path d="M 79.9441909790039 29.027963638305664 C 97.82066345214844 73.92687225341797 95.32138061523438 19.99381446838379 74.24110412597656 81.06442260742188" stroke-width="3.0" fill="none" stroke="rgb(0, 0, 0)" stroke-opacity="1.0" stroke-linecap="round" stroke-linejoin="round"/>
    <path d="M 146.2294158935547 153.131103515625 C 218.74212646484375 180.41319274902344 124.7632064819336 146.08909606933594 147.57603454589844 190.1058807373047" stroke-width="3.0" fill="none" stroke="rgb(0, 0, 0)" stroke-opacity="1.0" stroke-linecap="round" stroke-linejoin="round"/>
    <path d="M 114.78765869140625 114.85363006591797 C 112.58995819091797 163.76150512695312 132.8562469482422 125.2025146484375 85.48529815673828 115.53022003173828" stroke-width="3.0" fill="none" stroke="rgb(0, 0, 0)" stroke-opacity="1.0" stroke-linecap="round" stroke-linejoin="round"/>
    <path d="M 176.63107299804688 53.57029724121094 C 170.43865966796875 57.22279357910156 191.8881378173828 3.885586738586426 160.40040588378906 60.186283111572266" stroke-width="3.0" fill="none" stroke="rgb(0, 0, 0)" stroke-opacity="1.0" stroke-linecap="round" stroke-linejoin="round"/>
    <path d="M 78.65204620361328 51.03048324584961 C 71.31330108642578 61.54520034790039 87.50345611572266 47.78962707519531 55.48572540283203 120.11346435546875" stroke-width="3.0" fill="none" stroke="rgb(0, 0, 0)" stroke-opacity="1.0" stroke-linecap="round" stroke-linejoin="round"/>
  </g>
</svg>
