<?xml version="1.0" ?>
<svg xmlns="http://www.w3.org/2000/svg" version="1.1" width="224" height="224">
  <defs/>
  <g>
    <path d="M 132.1595458984375 125.36831665039062 C 193.84059143066406 109.46719360351562 168.24485778808594 102.46727752685547 163.85528564453125 109.93314361572266" stroke-width="3.0" fill="none" stroke="rgb(0, 0, 0)" stroke-opacity="1.0" stroke-linecap="round" stroke-linejoin="round"/>
    <path d="M 120.65857696533203 149.18333435058594 C 55.406707763671875 164.9620819091797 79.38735961914062 184.67465209960938 153.9117889404297 160.2412872314453" stroke-width="3.0" fill="none" stroke="rgb(0, 0, 0)" stroke-opacity="1.0" stroke-linecap="round" stroke-linejoin="round"/>
    <path d="M 177.21641540527344 147.1950225830078 C 151.8573760986328 154.68218994140625 104.37957763671875 122.71424102783203 147.93536376953125 69.05934143066406" stroke-width="3.0" fill="none" stroke="rgb(0, 0, 0)" stroke-opacity="1.0" stroke-linecap="round" stroke-linejoin="round"/>
    <path d="M 148.18650817871094 140.2372283935547 C 176.91278076171875 97.11231231689453 153.81845092773438 123.06454467773438 193.197265625 128.13795471191406" stroke-width="3.0" fill="none" stroke="rgb(0, 0, 0)" stroke-opacity="1.0" stroke-linecap="round" stroke-linejoin="round"/>
    <path d="M 154.63824462890625 78.13957977294922 C 223.85690307617188 66.37351989746094 237.970703125 170.2053680419922 141.91790771484375 152.8783721923828" stroke-width="3.0" fill="none" stroke="rgb(0, 0, 0)" stroke-opacity="1.0" stroke-linecap="round" stroke-linejoin="round"/>
    <path d="M 113.78238677978516 162.1731414794922 C 46.69198989868164 180.04129028320312 77.73339080810547 185.8685302734375 124.92322540283203 154.40762329101562" stroke-width="3.0" fill="none" stroke="rgb(0, 0, 0)" stroke-opacity="1.0" stroke-linecap="round" stroke-linejoin="round"/>
    <path d="M 95.28182983398438 125.80362701416016 C 135.1309356689453 126.27185821533203 79.82095336914062 103.24583435058594 114.90254974365234 115.30899810791016" stroke-width="3.0" fill="none" stroke="rgb(0, 0, 0)" stroke-opacity="1.0" stroke-linecap="round" stroke-linejoin="round"/>
    <path d="M 56.54848861694336 178.6730499267578 C 160.58590698242188 145.15097045898438 184.75567626953125 157.4306182861328 57.2593994140625 172.50747680664062" stroke-width="3.0" fill="none" stroke="rgb(0, 0, 0)" stroke-opacity="1.0" stroke-linecap="round" stroke-linejoin="round"/>
    <path d="M 181.50146484375 184.3107147216797 C 150.8653106689453 226.5098419189453 131.67047119140625 162.67320251464844 154.25552368164062 184.1782989501953" stroke-width="3.0" fill="none" stroke="rgb(0, 0, 0)" stroke-opacity="1.0" stroke-linecap="round" stroke-linejoin="round"/>
    <path d="M 159.47767639160156 83.77826690673828 C 199.65380859375 79.88658142089844 222.3665771484375 142.15553283691406 170.06723022460938 145.32269287109375" stroke-width="3.0" fill="none" stroke="rgb(0, 0, 0)" stroke-opacity="1.0" stroke-linecap="round" stroke-linejoin="round"/>
    <path d="M 181.80723571777344 187.69081115722656 C 181.432861328125 160.76515197753906 168.53656005859375 221.70851135253906 180.77813720703125 167.76568603515625" stroke-width="3.0" fill="none" stroke="rgb(0, 0, 0)" stroke-opacity="1.0" stroke-linecap="round" stroke-linejoin="round"/>
    <path d="M 86.70934295654297 177.35470581054688 C 71.39804077148438 172.79879760742188 92.19324493408203 145.05157470703125 123.0422134399414 159.08074951171875" stroke-width="3.0" fill="none" stroke="rgb(0, 0, 0)" stroke-opacity="1.0" stroke-linecap="round" stroke-linejoin="round"/>
    <path d="M 161.86997985839844 143.6783447265625 C 178.73841857910156 92.56394958496094 164.35142517089844 87.4917221069336 178.33763122558594 141.26548767089844" stroke-width="3.0" fill="none" stroke="rgb(0, 0, 0)" stroke-opacity="1.0" stroke-linecap="round" stroke-linejoin="round"/>
    <path d="M 146.9784393310547 176.72085571289062 C 165.68499755859375 219.8055877685547 183.6474609375 151.921142578125 147.6089324951172 185.67127990722656" stroke-width="3.0" fill="none" stroke="rgb(0, 0, 0)" stroke-opacity="1.0" stroke-linecap="round" stroke-linejoin="round"/>
    <path d="M 83.5950927734375 58.53922653198242 C 131.62423706054688 33.63001251220703 187.81153869628906 91.69801330566406 164.18727111816406 39.756072998046875" stroke-width="3.0" fill="none" stroke="rgb(0, 0, 0)" stroke-opacity="1.0" stroke-linecap="round" stroke-linejoin="round"/>
    <path d="M 65.28559875488281 29.83535385131836 C 78.94586181640625 26.2567081451416 78.4129638671875 28.974401473999023 111.06666564941406 121.59503173828125" stroke-width="3.0" fill="none" stroke="rgb(0, 0, 0)" stroke-opacity="1.0" stroke-linecap="round" stroke-linejoin="round"/>
    <path d="M 59.70433807373047 25.2377986907959 C 123.85442352294922 30.332006454467773 35.3702392578125 30.694242477416992 75.15210723876953 24.08574867248535" stroke-width="3.0" fill="none" stroke="rgb(0, 0, 0)" stroke-opacity="1.0" stroke-linecap="round" stroke-linejoin="round"/>
    <path d="M 56.66120529174805 181.73007202148438 C 200.2174530029297 165.27743530273438 165.3141632080078 169.2411346435547 56.299842834472656 189.63876342773438" stroke-width="3.0" fill="none" stroke="rgb(0, 0, 0)" stroke-opacity="1.0" stroke-linecap="round" stroke-linejoin="round"/>
    <path d="M 146.40087890625 186.6746368408203 C 144.7349090576172 131.9022216796875 217.09185791015625 191.12245178222656 161.3118896484375 165.76254272460938" stroke-width="3.0" fill="none" stroke="rgb(0, 0, 0)" stroke-opacity="1.0" stroke-linecap="round" stroke-linejoin="round"/>
    <path d="M 50.33257293701172 191.97891235351562 C 169.8370361328125 181.14712524414062 172.3983612060547 178.51266479492188 54.069026947021484 175.9888916015625" stroke-width="3.0" fill="none" stroke="rgb(0, 0, 0)" stroke-opacity="1.0" stroke-linecap="round" stroke-linejoin="round"/>
    <path d="M 48.95983123779297 200.9683074951172 C 205.24520874023438 199.04454040527344 172.73046875 166.2423553466797 55.301090240478516 179.46568298339844" stroke-width="3.0" fill="none" stroke="rgb(0, 0, 0)" stroke-opacity="1.0" stroke-linecap="round" stroke-linejoin="round"/>
    <path d="M 102.25125885009766 183.59210205078125 C 110.17410278320312 138.68470764160156 128.8098602294922 160.42579650878906 78.40106964111328 174.35076904296875" stroke-width="3.0" fill="none" stroke="rgb(0, 0, 0)" stroke-opacity="1.0" stroke-linecap="round" stroke-linejoin="round"/>
    <path d="M 194.11749267578125 87.49844360351562 C 180.2481231689453 75.11698913574219 144.32521057128906 59.81791305541992 175.61932373046875 108.62813568115234" stroke-width="3.0" fill="none" stroke="rgb(0, 0, 0)" stroke-opacity="1.0" stroke-linecap="round" stroke-linejoin="round"/>
    <path d="M 111.12623596191406 156.35211181640625 C 40.34120178222656 183.78536987304688 14.176688194274902 163.2028350830078 84.15331268310547 175.7119903564453" stroke-width="3.0" fill="none" stroke="rgb(0, 0, 0)" stroke-opacity="1.0" stroke-linecap="round" stroke-linejoin="round"/>
    <path d="M 66.25226593017578 109.15799713134766 C 85.92591857910156 55.4940185546875 52.6416130065918 36.70986557006836 172.33607482910156 47.821067810058594" stroke-width="3.0" fill="none" stroke="rgb(0, 0, 0)" stroke-opacity="1.0" stroke-linecap="round" stroke-linejoin="round"/>
    <path d="M 112.15625 156.28518676757812 C 160.33998107910156 152.58790588378906 125.09376525878906 148.4081268310547 117.53301239013672 161.4940185546875" stroke-width="3.0" fill="none" stroke="rgb(0, 0, 0)" stroke-opacity="1.0" stroke-linecap="round" stroke-linejoin="round"/>
    <path d="M 153.6643524169922 61.77435302734375 C 182.234619140625 30.993513107299805 211.89862060546875 35.73969268798828 149.01129150390625 50.45197296142578" stroke-width="3.0" fill="none" stroke="rgb(0, 0, 0)" stroke-opacity="1.0" stroke-linecap="round" stroke-linejoin="round"/>
    <path d="M 54.47127914428711 174.58099365234375 C 54.98246383666992 160.9381866455078 38.691123962402344 212.65611267089844 53.31835174560547 182.09507751464844" stroke-width="3.0" fill="none" stroke="rgb(0, 0, 0)" stroke-opacity="1.0" stroke-linecap="round" stroke-linejoin="round"/>
    <path d="M 172.1741943359375 89.1571044921875 C 167.90280151367188 118.85856628417969 160.61959838867188 125.17585754394531 188.00384521484375 100.09825134277344" stroke-width="3.0" fill="none" stroke="rgb(0, 0, 0)" stroke-opacity="1.0" stroke-linecap="round" stroke-linejoin="round"/>
    <path d="M 150.24942016601562 42.266197204589844 C 108.31449890136719 106.61742401123047 100.55545806884766 154.2135009765625 102.97178649902344 123.41679382324219" stroke-width="3.0" fill="none" stroke="rgb(0, 0, 0)" stroke-opacity="1.0" stroke-linecap="round" stroke-linejoin="round"/>
    <path d="M 176.8275604248047 40.05253219604492 C 126.64278411865234 63.08226776123047 129.22689819335938 -0.9969109296798706 166.4294891357422 121.68421173095703" stroke-width="3.0" fill="none" stroke="rgb(0, 0, 0)" stroke-opacity="1.0" stroke-linecap="round" stroke-linejoin="round"/>
    <path d="M 63.82937240600586 173.61166381835938 C 127.50039672851562 172.713134765625 115.2138671875 175.37948608398438 59.10795211791992 174.000244140625" stroke-width="3.0" fill="none" stroke="rgb(0, 0, 0)" stroke-opacity="1.0" stroke-linecap="round" stroke-linejoin="round"/>
    <path d="M 90.57463836669922 57.93659591674805 C 108.7352294921875 147.4833526611328 136.209716796875 128.6533660888672 54.16987991333008 115.15917205810547" stroke-width="3.0" fill="none" stroke="rgb(0, 0, 0)" stroke-opacity="1.0" stroke-linecap="round" stroke-linejoin="round"/>
    <path d="M 186.2550811767578 136.8895721435547 C 171.49703979492188 105.90916442871094 155.59176635742188 126.2099838256836 196.27706909179688 113.9375" stroke-width="3.0" fill="none" stroke="rgb(0, 0, 0)" stroke-opacity="1.0" stroke-linecap="round" stroke-linejoin="round"/>
    <path d="M 85.8459243774414 26.791866302490234 C 75.95370483398438 43.281471252441406 24.593759536743164 12.982757568359375 93.8346176147461 27.901504516601562" stroke-width="3.0" fill="none" stroke="rgb(0, 0, 0)" stroke-opacity="1.0" stroke-linecap="round" stroke-linejoin="round"/>
    <path d="M 40.18355941772461 147.17669677734375 C 61.67037582397461 157.8131866455078 94.20572662353516 138.5439910888672 100.42689514160156 112.87753295898438" stroke-width="3.0" fill="none" stroke="rgb(0, 0, 0)" stroke-opacity="1.0" stroke-linecap="round" stroke-linejoin="round"/>
    <path d="M 145.0321044921875 74.48648834228516 C 115.2995376586914 105.24726104736328 115.33368682861328 153.13685607910156 160.1441192626953 120.65941619873047" stroke-width="3.0" fill="none" stroke="rgb(0, 0, 0)" stroke-opacity="1.0" stroke-linecap="round" stroke-linejoin="round"/>
    <path d="M 42.580589294433594 148.2779541015625 C 12.090349197387695 137.7371826171875 8.670750617980957 101.87924194335938 39.06417465209961 78.66639709472656" stroke-width="3.0" fill="none" stroke="rgb(0, 0, 0)" stroke-opacity="1.0" stroke-linecap="round" stroke-linejoin="round"/>
    <path d="M 183.63107299804688 186.93844604492188 C 151.80487060546875 144.0660400390625 187.67019653320312 174.76380920410156 171.8314208984375 168.4271240234375" stroke-width="3.0" fill="none" stroke="rgb(0, 0, 0)" stroke-opacity="1.0" stroke-linecap="round" stroke-linejoin="round"/>
    <path d="M 163.34988403320312 158.3547821044922 C 53.50177764892578 144.50912475585938 144.4239501953125 167.9424285888672 131.15203857421875 157.474853515625" stroke-width="3.0" fill="none" stroke="rgb(0, 0, 0)" stroke-opacity="1.0" stroke-linecap="round" stroke-linejoin="round"/>
    <path d="M 32.394256591796875 83.3334732055664 C 98.51019287109375 40.5539436340332 99.97702026367188 134.406005859375 103.3375244140625 112.05345916748047" stroke-width="3.0" fill="none" stroke="rgb(0, 0, 0)" stroke-opacity="1.0" stroke-linecap="round" stroke-linejoin="round"/>
    <path d="M 115.79943084716797 128.099609375 C 76.45996856689453 133.90945434570312 105.63004302978516 110.62322998046875 74.09396362304688 86.68384552001953" stroke-width="3.0" fill="none" stroke="rgb(0, 0, 0)" stroke-opacity="1.0" stroke-linecap="round" stroke-linejoin="round"/>
    <path d="M 77.06421661376953 186.3403778076172 C 88.36482238769531 146.18502807617188 111.00897979736328 144.2495880126953 146.8753204345703 153.26864624023438" stroke-width="3.0" fill="none" stroke="rgb(0, 0, 0)" stroke-opacity="1.0" stroke-linecap="round" stroke-linejoin="round"/>
    <path d="M 81.75597381591797 27.97863006591797 C 97.97277069091797 73.18172454833984 96.18486785888672 20.755203247070312 72.90922546386719 81.65733337402344" stroke-width="3.0" fill="none" stroke="rgb(0, 0, 0)" stroke-opacity="1.0" stroke-linecap="round" stroke-linejoin="round"/>
    <path d="M 151.33055114746094 153.6658172607422 C 225.6132354736328 179.94134521484375 124.55738830566406 149.79408264160156 154.54238891601562 188.63865661621094" stroke-width="3.0" fill="none" stroke="rgb(0, 0, 0)" stroke-opacity="1.0" stroke-linecap="round" stroke-linejoin="round"/>
    <path d="M 116.23028564453125 110.67694091796875 C 111.72276306152344 163.2799530029297 135.10418701171875 120.34453582763672 97.15847778320312 116.39754486083984" stroke-width="3.0" fill="none" stroke="rgb(0, 0, 0)" stroke-opacity="1.0" stroke-linecap="round" stroke-linejoin="round"/>
    <path d="M 176.67019653320312 55.51789474487305 C 170.53607177734375 56.92516326904297 192.65682983398438 10.81688117980957 157.2172088623047 62.115928649902344" stroke-width="3.0" fill="none" stroke="rgb(0, 0, 0)" stroke-opacity="1.0" stroke-linecap="round" stroke-linejoin="round"/>
    <path d="M 82.91757202148438 45.016746520996094 C 70.20521545410156 57.87773132324219 85.19412231445312 45.88533020019531 54.82578659057617 116.27925872802734" stroke-width="3.0" fill="none" stroke="rgb(0, 0, 0)" stroke-opacity="1.0" stroke-linecap="round" stroke-linejoin="round"/>
  </g>
</svg>
