<?xml version="1.0" ?>
<svg xmlns="http://www.w3.org/2000/svg" version="1.1" width="224" height="224">
  <defs/>
  <g>
    <path d="M 149.2608184814453 134.69114685058594 C 157.86862182617188 126.02251434326172 164.59356689453125 126.84051513671875 179.8767852783203 115.05220031738281" stroke-width="3.0" fill="none" stroke="rgb(0, 0, 0)" stroke-opacity="1.0" stroke-linecap="round" stroke-linejoin="round"/>
    <path d="M 112.08790588378906 154.00901794433594 C 97.3466796875 169.966796875 101.40546417236328 170.39404296875 129.64027404785156 158.62303161621094" stroke-width="3.0" fill="none" stroke="rgb(0, 0, 0)" stroke-opacity="1.0" stroke-linecap="round" stroke-linejoin="round"/>
    <path d="M 149.3796844482422 135.03651428222656 C 160.85675048828125 143.49168395996094 141.265380859375 134.07510375976562 142.07325744628906 113.84947204589844" stroke-width="3.0" fill="none" stroke="rgb(0, 0, 0)" stroke-opacity="1.0" stroke-linecap="round" stroke-linejoin="round"/>
    <path d="M 164.30935668945312 139.2466583251953 C 170.505126953125 111.01464080810547 170.84091186523438 127.10194396972656 193.07470703125 140.18057250976562" stroke-width="3.0" fill="none" stroke="rgb(0, 0, 0)" stroke-opacity="1.0" stroke-linecap="round" stroke-linejoin="round"/>
    <path d="M 197.139404296875 96.80307006835938 C 193.76547241210938 93.12425231933594 212.95069885253906 110.75666046142578 196.92886352539062 136.9302215576172" stroke-width="3.0" fill="none" stroke="rgb(0, 0, 0)" stroke-opacity="1.0" stroke-linecap="round" stroke-linejoin="round"/>
    <path d="M 109.56351470947266 156.67127990722656 C 120.0956039428711 162.6618194580078 91.2911605834961 168.298583984375 117.1129379272461 154.3062744140625" stroke-width="3.0" fill="none" stroke="rgb(0, 0, 0)" stroke-opacity="1.0" stroke-linecap="round" stroke-linejoin="round"/>
    <path d="M 114.43602752685547 107.42620849609375 C 119.78491973876953 107.19467163085938 120.20637512207031 100.32401275634766 116.73979949951172 113.09781646728516" stroke-width="3.0" fill="none" stroke="rgb(0, 0, 0)" stroke-opacity="1.0" stroke-linecap="round" stroke-linejoin="round"/>
    <path d="M 102.35809326171875 188.9435577392578 C 127.39900207519531 186.47927856445312 116.13544464111328 187.24761962890625 67.51197052001953 191.33116149902344" stroke-width="3.0" fill="none" stroke="rgb(0, 0, 0)" stroke-opacity="1.0" stroke-linecap="round" stroke-linejoin="round"/>
    <path d="M 174.7001953125 190.594482421875 C 157.4134521484375 208.5770263671875 137.28677368164062 192.4886932373047 146.31417846679688 168.932373046875" stroke-width="3.0" fill="none" stroke="rgb(0, 0, 0)" stroke-opacity="1.0" stroke-linecap="round" stroke-linejoin="round"/>
    <path d="M 154.5037841796875 79.90767669677734 C 203.20687866210938 70.85692596435547 203.57513427734375 122.3565673828125 201.1055908203125 102.93791961669922" stroke-width="3.0" fill="none" stroke="rgb(0, 0, 0)" stroke-opacity="1.0" stroke-linecap="round" stroke-linejoin="round"/>
    <path d="M 168.05943298339844 168.34498596191406 C 179.79498291015625 177.8903350830078 187.44383239746094 182.83030700683594 180.43121337890625 182.01632690429688" stroke-width="3.0" fill="none" stroke="rgb(0, 0, 0)" stroke-opacity="1.0" stroke-linecap="round" stroke-linejoin="round"/>
    <path d="M 122.4244155883789 134.05767822265625 C 117.87989807128906 126.20928955078125 128.38658142089844 133.67462158203125 109.29297637939453 136.6511688232422" stroke-width="3.0" fill="none" stroke="rgb(0, 0, 0)" stroke-opacity="1.0" stroke-linecap="round" stroke-linejoin="round"/>
    <path d="M 164.7149200439453 144.38839721679688 C 168.8677520751953 114.70066833496094 169.7797393798828 116.83042907714844 178.91334533691406 142.67259216308594" stroke-width="3.0" fill="none" stroke="rgb(0, 0, 0)" stroke-opacity="1.0" stroke-linecap="round" stroke-linejoin="round"/>
    <path d="M 170.6559295654297 192.9349365234375 C 175.4405059814453 183.49252319335938 177.64462280273438 178.57711791992188 166.54000854492188 167.14540100097656" stroke-width="3.0" fill="none" stroke="rgb(0, 0, 0)" stroke-opacity="1.0" stroke-linecap="round" stroke-linejoin="round"/>
    <path d="M 98.68073272705078 51.928260803222656 C 157.9757537841797 46.27634811401367 168.3443603515625 61.33232116699219 161.0453338623047 48.27099609375" stroke-width="3.0" fill="none" stroke="rgb(0, 0, 0)" stroke-opacity="1.0" stroke-linecap="round" stroke-linejoin="round"/>
    <path d="M 80.09597778320312 47.47398376464844 C 82.1094970703125 42.75273132324219 80.15711975097656 36.46359634399414 106.8871841430664 107.9493408203125" stroke-width="3.0" fill="none" stroke="rgb(0, 0, 0)" stroke-opacity="1.0" stroke-linecap="round" stroke-linejoin="round"/>
    <path d="M 63.637271881103516 23.68204116821289 C 92.82970428466797 24.002161026000977 106.50666046142578 21.59886360168457 74.36906433105469 30.122085571289062" stroke-width="3.0" fill="none" stroke="rgb(0, 0, 0)" stroke-opacity="1.0" stroke-linecap="round" stroke-linejoin="round"/>
    <path d="M 67.2611083984375 183.07083129882812 C 66.26913452148438 170.53515625 77.28340911865234 173.3662872314453 75.45651245117188 184.68434143066406" stroke-width="3.0" fill="none" stroke="rgb(0, 0, 0)" stroke-opacity="1.0" stroke-linecap="round" stroke-linejoin="round"/>
    <path d="M 147.10997009277344 168.0815887451172 C 154.4088134765625 153.64036560058594 193.2481689453125 176.8367156982422 164.29371643066406 168.19004821777344" stroke-width="3.0" fill="none" stroke="rgb(0, 0, 0)" stroke-opacity="1.0" stroke-linecap="round" stroke-linejoin="round"/>
    <path d="M 72.96873474121094 180.2124481201172 C 92.71581268310547 179.41104125976562 100.26935577392578 180.7328643798828 95.7403335571289 180.01710510253906" stroke-width="3.0" fill="none" stroke="rgb(0, 0, 0)" stroke-opacity="1.0" stroke-linecap="round" stroke-linejoin="round"/>
    <path d="M 68.2434310913086 174.37741088867188 C 121.61443328857422 160.9166259765625 113.91595458984375 179.68080139160156 43.449771881103516 189.84030151367188" stroke-width="3.0" fill="none" stroke="rgb(0, 0, 0)" stroke-opacity="1.0" stroke-linecap="round" stroke-linejoin="round"/>
    <path d="M 110.00900268554688 179.2318878173828 C 108.2843017578125 181.47647094726562 111.07678985595703 145.7732391357422 112.02459716796875 179.41476440429688" stroke-width="3.0" fill="none" stroke="rgb(0, 0, 0)" stroke-opacity="1.0" stroke-linecap="round" stroke-linejoin="round"/>
    <path d="M 177.62918090820312 85.14505004882812 C 163.88381958007812 128.96925354003906 166.5701141357422 89.32837677001953 170.3481903076172 115.5456771850586" stroke-width="3.0" fill="none" stroke="rgb(0, 0, 0)" stroke-opacity="1.0" stroke-linecap="round" stroke-linejoin="round"/>
    <path d="M 66.74888610839844 183.56594848632812 C 39.8615608215332 188.03378295898438 52.88016891479492 173.1266632080078 60.73469543457031 187.41871643066406" stroke-width="3.0" fill="none" stroke="rgb(0, 0, 0)" stroke-opacity="1.0" stroke-linecap="round" stroke-linejoin="round"/>
    <path d="M 84.01326751708984 61.46818923950195 C 82.54562377929688 61.079654693603516 92.42041015625 47.382301330566406 109.52151489257812 50.44773864746094" stroke-width="3.0" fill="none" stroke="rgb(0, 0, 0)" stroke-opacity="1.0" stroke-linecap="round" stroke-linejoin="round"/>
    <path d="M 108.64793395996094 154.58270263671875 C 146.2525177001953 148.79971313476562 125.17855834960938 142.0767822265625 131.83132934570312 156.79954528808594" stroke-width="3.0" fill="none" stroke="rgb(0, 0, 0)" stroke-opacity="1.0" stroke-linecap="round" stroke-linejoin="round"/>
    <path d="M 177.51583862304688 40.419063568115234 C 173.01243591308594 37.98273849487305 195.32830810546875 42.48097610473633 144.08546447753906 46.626304626464844" stroke-width="3.0" fill="none" stroke="rgb(0, 0, 0)" stroke-opacity="1.0" stroke-linecap="round" stroke-linejoin="round"/>
    <path d="M 58.83073043823242 185.60601806640625 C 51.586326599121094 184.4672088623047 45.92025375366211 195.0301513671875 53.504119873046875 182.54000854492188" stroke-width="3.0" fill="none" stroke="rgb(0, 0, 0)" stroke-opacity="1.0" stroke-linecap="round" stroke-linejoin="round"/>
    <path d="M 166.3933563232422 124.42243957519531 C 163.0631561279297 123.72119903564453 166.60533142089844 118.95441436767578 186.5355987548828 90.90299224853516" stroke-width="3.0" fill="none" stroke="rgb(0, 0, 0)" stroke-opacity="1.0" stroke-linecap="round" stroke-linejoin="round"/>
    <path d="M 141.1138458251953 52.65174865722656 C 123.53755950927734 97.13514709472656 120.7877197265625 104.05435943603516 117.95652770996094 126.36695098876953" stroke-width="3.0" fill="none" stroke="rgb(0, 0, 0)" stroke-opacity="1.0" stroke-linecap="round" stroke-linejoin="round"/>
    <path d="M 138.2142333984375 56.14493179321289 C 147.20574951171875 61.622501373291016 140.6138916015625 51.75588607788086 154.86618041992188 100.44428253173828" stroke-width="3.0" fill="none" stroke="rgb(0, 0, 0)" stroke-opacity="1.0" stroke-linecap="round" stroke-linejoin="round"/>
    <path d="M 101.5143051147461 177.6638641357422 C 98.9212646484375 171.46551513671875 101.50923156738281 180.475830078125 81.93655395507812 179.0023193359375" stroke-width="3.0" fill="none" stroke="rgb(0, 0, 0)" stroke-opacity="1.0" stroke-linecap="round" stroke-linejoin="round"/>
    <path d="M 74.13849639892578 75.7799072265625 C 55.32746124267578 109.18718719482422 53.7443733215332 115.11871337890625 57.8790397644043 94.0252685546875" stroke-width="3.0" fill="none" stroke="rgb(0, 0, 0)" stroke-opacity="1.0" stroke-linecap="round" stroke-linejoin="round"/>
    <path d="M 187.90719604492188 140.8944091796875 C 158.5596923828125 116.2152328491211 158.95074462890625 103.38349151611328 175.12008666992188 118.43412780761719" stroke-width="3.0" fill="none" stroke="rgb(0, 0, 0)" stroke-opacity="1.0" stroke-linecap="round" stroke-linejoin="round"/>
    <path d="M 67.5018539428711 27.917003631591797 C 38.48750305175781 23.113624572753906 78.57356262207031 20.822093963623047 68.22889709472656 30.384660720825195" stroke-width="3.0" fill="none" stroke="rgb(0, 0, 0)" stroke-opacity="1.0" stroke-linecap="round" stroke-linejoin="round"/>
    <path d="M 48.0642204284668 144.74258422851562 C 68.38240051269531 147.407470703125 60.32453918457031 144.51953125 59.38193130493164 145.26524353027344" stroke-width="3.0" fill="none" stroke="rgb(0, 0, 0)" stroke-opacity="1.0" stroke-linecap="round" stroke-linejoin="round"/>
    <path d="M 159.02423095703125 144.5240936279297 C 168.63604736328125 144.52828979492188 144.5780792236328 140.44960021972656 160.82191467285156 141.69863891601562" stroke-width="3.0" fill="none" stroke="rgb(0, 0, 0)" stroke-opacity="1.0" stroke-linecap="round" stroke-linejoin="round"/>
    <path d="M 38.999629974365234 144.5290069580078 C 25.72110939025879 134.96922302246094 20.04236602783203 118.80658721923828 25.257051467895508 105.87773132324219" stroke-width="3.0" fill="none" stroke="rgb(0, 0, 0)" stroke-opacity="1.0" stroke-linecap="round" stroke-linejoin="round"/>
    <path d="M 180.67440795898438 188.3606414794922 C 183.60707092285156 168.573974609375 185.77487182617188 192.53968811035156 178.46897888183594 170.75393676757812" stroke-width="3.0" fill="none" stroke="rgb(0, 0, 0)" stroke-opacity="1.0" stroke-linecap="round" stroke-linejoin="round"/>
    <path d="M 148.4080047607422 154.78146362304688 C 121.80049133300781 154.6466827392578 149.58303833007812 153.0005340576172 132.75836181640625 156.71339416503906" stroke-width="3.0" fill="none" stroke="rgb(0, 0, 0)" stroke-opacity="1.0" stroke-linecap="round" stroke-linejoin="round"/>
    <path d="M 33.71346664428711 87.55237579345703 C 81.87554931640625 59.112770080566406 103.11583709716797 116.87081146240234 95.46929931640625 114.21073150634766" stroke-width="3.0" fill="none" stroke="rgb(0, 0, 0)" stroke-opacity="1.0" stroke-linecap="round" stroke-linejoin="round"/>
    <path d="M 92.7625961303711 103.94202423095703 C 90.71849060058594 95.08950805664062 84.076904296875 90.69487762451172 70.39444732666016 86.32976531982422" stroke-width="3.0" fill="none" stroke="rgb(0, 0, 0)" stroke-opacity="1.0" stroke-linecap="round" stroke-linejoin="round"/>
    <path d="M 96.50296783447266 172.41368103027344 C 106.96623229980469 152.66802978515625 123.92317199707031 144.55946350097656 118.77252197265625 161.8155517578125" stroke-width="3.0" fill="none" stroke="rgb(0, 0, 0)" stroke-opacity="1.0" stroke-linecap="round" stroke-linejoin="round"/>
    <path d="M 77.84679412841797 31.05171012878418 C 85.8820571899414 48.875362396240234 85.99030303955078 51.869625091552734 91.15430450439453 51.27082443237305" stroke-width="3.0" fill="none" stroke="rgb(0, 0, 0)" stroke-opacity="1.0" stroke-linecap="round" stroke-linejoin="round"/>
    <path d="M 112.87042236328125 159.75779724121094 C 133.83404541015625 168.6237335205078 117.6262435913086 155.0236358642578 114.95101165771484 187.5230712890625" stroke-width="3.0" fill="none" stroke="rgb(0, 0, 0)" stroke-opacity="1.0" stroke-linecap="round" stroke-linejoin="round"/>
    <path d="M 104.06083679199219 140.69195556640625 C 98.70372009277344 145.7593231201172 104.46361541748047 140.09104919433594 104.93606567382812 147.08026123046875" stroke-width="3.0" fill="none" stroke="rgb(0, 0, 0)" stroke-opacity="1.0" stroke-linecap="round" stroke-linejoin="round"/>
    <path d="M 170.9603271484375 61.228050231933594 C 161.16883850097656 57.322731018066406 162.0457000732422 47.52690887451172 177.7121124267578 37.17082595825195" stroke-width="3.0" fill="none" stroke="rgb(0, 0, 0)" stroke-opacity="1.0" stroke-linecap="round" stroke-linejoin="round"/>
    <path d="M 88.41166687011719 54.53675842285156 C 78.86164093017578 41.3409423828125 80.69820404052734 31.151552200317383 73.64176940917969 63.67629623413086" stroke-width="3.0" fill="none" stroke="rgb(0, 0, 0)" stroke-opacity="1.0" stroke-linecap="round" stroke-linejoin="round"/>
  </g>
</svg>
