<?xml version="1.0" ?>
<svg xmlns="http://www.w3.org/2000/svg" version="1.1" width="224" height="224">
  <defs/>
  <g>
    <path d="M 134.23268127441406 115.45951080322266 C 161.22442626953125 114.84204864501953 160.3269805908203 108.77580261230469 170.98377990722656 116.1764144897461" stroke-width="3.0" fill="none" stroke="rgb(0, 0, 0)" stroke-opacity="1.0" stroke-linecap="round" stroke-linejoin="round"/>
    <path d="M 107.51319122314453 155.1810302734375 C 59.11606979370117 178.94361877441406 77.94274139404297 180.6163330078125 154.97560119628906 152.63909912109375" stroke-width="3.0" fill="none" stroke="rgb(0, 0, 0)" stroke-opacity="1.0" stroke-linecap="round" stroke-linejoin="round"/>
    <path d="M 146.09278869628906 144.00839233398438 C 154.7562255859375 150.53062438964844 104.87645721435547 121.10903930664062 146.3311309814453 84.80045318603516" stroke-width="3.0" fill="none" stroke="rgb(0, 0, 0)" stroke-opacity="1.0" stroke-linecap="round" stroke-linejoin="round"/>
    <path d="M 148.96844482421875 140.12051391601562 C 179.01657104492188 107.0895767211914 167.89772033691406 119.91617584228516 192.3195343017578 128.7683563232422" stroke-width="3.0" fill="none" stroke="rgb(0, 0, 0)" stroke-opacity="1.0" stroke-linecap="round" stroke-linejoin="round"/>
    <path d="M 173.09420776367188 75.69932556152344 C 225.9880828857422 84.46782684326172 220.14195251464844 163.5439453125 157.84774780273438 154.03565979003906" stroke-width="3.0" fill="none" stroke="rgb(0, 0, 0)" stroke-opacity="1.0" stroke-linecap="round" stroke-linejoin="round"/>
    <path d="M 88.59651947021484 175.5559539794922 C 101.27745056152344 172.21934509277344 95.9568862915039 192.9116973876953 110.46604919433594 156.46719360351562" stroke-width="3.0" fill="none" stroke="rgb(0, 0, 0)" stroke-opacity="1.0" stroke-linecap="round" stroke-linejoin="round"/>
    <path d="M 95.50540924072266 116.57172393798828 C 132.798095703125 126.64402770996094 95.48920440673828 98.15667724609375 114.0545425415039 129.16986083984375" stroke-width="3.0" fill="none" stroke="rgb(0, 0, 0)" stroke-opacity="1.0" stroke-linecap="round" stroke-linejoin="round"/>
    <path d="M 74.46070861816406 188.85873413085938 C 175.54269409179688 190.18275451660156 147.30345153808594 186.3904266357422 49.22963333129883 189.22872924804688" stroke-width="3.0" fill="none" stroke="rgb(0, 0, 0)" stroke-opacity="1.0" stroke-linecap="round" stroke-linejoin="round"/>
    <path d="M 180.78758239746094 181.42782592773438 C 165.4764404296875 221.9644775390625 125.99925231933594 181.9483642578125 159.6991424560547 172.05517578125" stroke-width="3.0" fill="none" stroke="rgb(0, 0, 0)" stroke-opacity="1.0" stroke-linecap="round" stroke-linejoin="round"/>
    <path d="M 155.88845825195312 83.23506927490234 C 196.86070251464844 74.93832397460938 219.3179168701172 130.97280883789062 179.60342407226562 148.22096252441406" stroke-width="3.0" fill="none" stroke="rgb(0, 0, 0)" stroke-opacity="1.0" stroke-linecap="round" stroke-linejoin="round"/>
    <path d="M 184.59266662597656 184.53736877441406 C 180.60586547851562 158.50306701660156 173.69171142578125 196.89279174804688 178.16929626464844 180.15777587890625" stroke-width="3.0" fill="none" stroke="rgb(0, 0, 0)" stroke-opacity="1.0" stroke-linecap="round" stroke-linejoin="round"/>
    <path d="M 140.4358673095703 153.44390869140625 C 123.94312286376953 151.18115234375 134.27598571777344 150.01821899414062 133.14883422851562 148.84999084472656" stroke-width="3.0" fill="none" stroke="rgb(0, 0, 0)" stroke-opacity="1.0" stroke-linecap="round" stroke-linejoin="round"/>
    <path d="M 162.53350830078125 147.8267059326172 C 168.31446838378906 119.54354095458984 165.506103515625 105.43113708496094 175.20155334472656 146.54949951171875" stroke-width="3.0" fill="none" stroke="rgb(0, 0, 0)" stroke-opacity="1.0" stroke-linecap="round" stroke-linejoin="round"/>
    <path d="M 149.06341552734375 182.00949096679688 C 160.87677001953125 215.27500915527344 189.00076293945312 166.79583740234375 156.6749267578125 174.51560974121094" stroke-width="3.0" fill="none" stroke="rgb(0, 0, 0)" stroke-opacity="1.0" stroke-linecap="round" stroke-linejoin="round"/>
    <path d="M 84.07435607910156 58.84041213989258 C 138.31544494628906 36.27595520019531 189.87998962402344 88.18266296386719 162.74510192871094 41.88897705078125" stroke-width="3.0" fill="none" stroke="rgb(0, 0, 0)" stroke-opacity="1.0" stroke-linecap="round" stroke-linejoin="round"/>
    <path d="M 63.31879425048828 23.60529136657715 C 82.83356475830078 27.221189498901367 79.51203918457031 27.54865837097168 102.60174560546875 114.5822982788086" stroke-width="3.0" fill="none" stroke="rgb(0, 0, 0)" stroke-opacity="1.0" stroke-linecap="round" stroke-linejoin="round"/>
    <path d="M 62.31095504760742 24.100038528442383 C 116.75614166259766 26.4202880859375 77.30535125732422 33.03376007080078 62.026649475097656 25.60675048828125" stroke-width="3.0" fill="none" stroke="rgb(0, 0, 0)" stroke-opacity="1.0" stroke-linecap="round" stroke-linejoin="round"/>
    <path d="M 47.0601806640625 190.18359375 C 137.6000518798828 191.51052856445312 89.5057373046875 187.49557495117188 52.542598724365234 180.97348022460938" stroke-width="3.0" fill="none" stroke="rgb(0, 0, 0)" stroke-opacity="1.0" stroke-linecap="round" stroke-linejoin="round"/>
    <path d="M 142.53306579589844 186.9129638671875 C 145.494873046875 137.60906982421875 203.59132385253906 186.23568725585938 170.01553344726562 167.15391540527344" stroke-width="3.0" fill="none" stroke="rgb(0, 0, 0)" stroke-opacity="1.0" stroke-linecap="round" stroke-linejoin="round"/>
    <path d="M 59.63302230834961 187.41500854492188 C 121.79830932617188 182.1833038330078 120.21683502197266 166.38304138183594 58.968414306640625 171.0640869140625" stroke-width="3.0" fill="none" stroke="rgb(0, 0, 0)" stroke-opacity="1.0" stroke-linecap="round" stroke-linejoin="round"/>
    <path d="M 49.043540954589844 187.60421752929688 C 126.54920196533203 174.89468383789062 117.74412536621094 181.6717529296875 47.915992736816406 181.13438415527344" stroke-width="3.0" fill="none" stroke="rgb(0, 0, 0)" stroke-opacity="1.0" stroke-linecap="round" stroke-linejoin="round"/>
    <path d="M 102.99101257324219 187.2291717529297 C 102.00812530517578 164.6973876953125 107.20196533203125 169.09304809570312 77.26197052001953 187.0306854248047" stroke-width="3.0" fill="none" stroke="rgb(0, 0, 0)" stroke-opacity="1.0" stroke-linecap="round" stroke-linejoin="round"/>
    <path d="M 174.75901794433594 86.97801971435547 C 175.89820861816406 107.61441802978516 173.11192321777344 58.79804992675781 174.2217559814453 112.34111785888672" stroke-width="3.0" fill="none" stroke="rgb(0, 0, 0)" stroke-opacity="1.0" stroke-linecap="round" stroke-linejoin="round"/>
    <path d="M 101.264892578125 174.4999542236328 C 29.631500244140625 171.6148681640625 50.95380783081055 176.04733276367188 68.05878448486328 173.55690002441406" stroke-width="3.0" fill="none" stroke="rgb(0, 0, 0)" stroke-opacity="1.0" stroke-linecap="round" stroke-linejoin="round"/>
    <path d="M 69.15433502197266 70.713623046875 C 79.34101104736328 63.15562057495117 59.2079963684082 40.2747688293457 157.3809814453125 48.56666946411133" stroke-width="3.0" fill="none" stroke="rgb(0, 0, 0)" stroke-opacity="1.0" stroke-linecap="round" stroke-linejoin="round"/>
    <path d="M 130.05099487304688 151.8665771484375 C 157.40679931640625 145.24191284179688 125.71839904785156 142.05116271972656 127.17024993896484 161.13153076171875" stroke-width="3.0" fill="none" stroke="rgb(0, 0, 0)" stroke-opacity="1.0" stroke-linecap="round" stroke-linejoin="round"/>
    <path d="M 155.81109619140625 58.821083068847656 C 159.86781311035156 36.438568115234375 220.1533660888672 46.614585876464844 137.10313415527344 42.60245132446289" stroke-width="3.0" fill="none" stroke="rgb(0, 0, 0)" stroke-opacity="1.0" stroke-linecap="round" stroke-linejoin="round"/>
    <path d="M 52.1322135925293 172.8497772216797 C 46.793540954589844 180.45706176757812 39.14146423339844 204.7409210205078 53.641056060791016 176.96707153320312" stroke-width="3.0" fill="none" stroke="rgb(0, 0, 0)" stroke-opacity="1.0" stroke-linecap="round" stroke-linejoin="round"/>
    <path d="M 182.5965118408203 104.58636474609375 C 174.16995239257812 129.1184539794922 171.0703125 126.70167541503906 182.54864501953125 89.66727447509766" stroke-width="3.0" fill="none" stroke="rgb(0, 0, 0)" stroke-opacity="1.0" stroke-linecap="round" stroke-linejoin="round"/>
    <path d="M 141.0422821044922 58.306522369384766 C 120.39347076416016 104.78752899169922 99.9501724243164 150.89195251464844 110.22393035888672 114.02741241455078" stroke-width="3.0" fill="none" stroke="rgb(0, 0, 0)" stroke-opacity="1.0" stroke-linecap="round" stroke-linejoin="round"/>
    <path d="M 173.86497497558594 42.32197952270508 C 152.30686950683594 77.3780288696289 119.89207458496094 2.610780715942383 166.94061279296875 119.93529510498047" stroke-width="3.0" fill="none" stroke="rgb(0, 0, 0)" stroke-opacity="1.0" stroke-linecap="round" stroke-linejoin="round"/>
    <path d="M 58.564231872558594 181.92098999023438 C 105.60694885253906 174.98681640625 136.37399291992188 185.97918701171875 50.03599166870117 181.33123779296875" stroke-width="3.0" fill="none" stroke="rgb(0, 0, 0)" stroke-opacity="1.0" stroke-linecap="round" stroke-linejoin="round"/>
    <path d="M 92.97882843017578 57.12705993652344 C 111.24114227294922 152.10369873046875 129.655517578125 133.76316833496094 57.433631896972656 116.32113647460938" stroke-width="3.0" fill="none" stroke="rgb(0, 0, 0)" stroke-opacity="1.0" stroke-linecap="round" stroke-linejoin="round"/>
    <path d="M 184.78497314453125 140.56541442871094 C 162.77723693847656 104.42023468017578 167.3467559814453 106.21878051757812 185.63697814941406 115.71658325195312" stroke-width="3.0" fill="none" stroke="rgb(0, 0, 0)" stroke-opacity="1.0" stroke-linecap="round" stroke-linejoin="round"/>
    <path d="M 80.08705139160156 31.871906280517578 C 34.936805725097656 28.272733688354492 61.41756057739258 25.61754608154297 78.85877227783203 35.437870025634766" stroke-width="3.0" fill="none" stroke="rgb(0, 0, 0)" stroke-opacity="1.0" stroke-linecap="round" stroke-linejoin="round"/>
    <path d="M 43.87615203857422 146.20164489746094 C 63.61742401123047 155.73851013183594 84.4333724975586 143.32228088378906 92.26994323730469 121.66580963134766" stroke-width="3.0" fill="none" stroke="rgb(0, 0, 0)" stroke-opacity="1.0" stroke-linecap="round" stroke-linejoin="round"/>
    <path d="M 165.05780029296875 118.3886947631836 C 122.0982666015625 135.6885223388672 135.620849609375 126.44144439697266 141.63772583007812 134.66024780273438" stroke-width="3.0" fill="none" stroke="rgb(0, 0, 0)" stroke-opacity="1.0" stroke-linecap="round" stroke-linejoin="round"/>
    <path d="M 47.97218704223633 148.8577880859375 C 22.35991096496582 140.89108276367188 4.152688503265381 96.52007293701172 41.38877868652344 78.34851837158203" stroke-width="3.0" fill="none" stroke="rgb(0, 0, 0)" stroke-opacity="1.0" stroke-linecap="round" stroke-linejoin="round"/>
    <path d="M 176.87542724609375 186.61349487304688 C 171.5190887451172 186.0343475341797 195.50978088378906 190.4987335205078 171.16665649414062 169.37261962890625" stroke-width="3.0" fill="none" stroke="rgb(0, 0, 0)" stroke-opacity="1.0" stroke-linecap="round" stroke-linejoin="round"/>
    <path d="M 172.54554748535156 156.45822143554688 C 97.85668182373047 136.40301513671875 179.19505310058594 156.150634765625 131.23524475097656 151.57334899902344" stroke-width="3.0" fill="none" stroke="rgb(0, 0, 0)" stroke-opacity="1.0" stroke-linecap="round" stroke-linejoin="round"/>
    <path d="M 30.260318756103516 83.25428771972656 C 81.55589294433594 51.19053268432617 103.84883117675781 133.10183715820312 90.25137329101562 113.57283020019531" stroke-width="3.0" fill="none" stroke="rgb(0, 0, 0)" stroke-opacity="1.0" stroke-linecap="round" stroke-linejoin="round"/>
    <path d="M 103.48118591308594 114.3918685913086 C 93.82286834716797 156.69488525390625 105.22225189208984 111.97425842285156 75.64012908935547 89.30622100830078" stroke-width="3.0" fill="none" stroke="rgb(0, 0, 0)" stroke-opacity="1.0" stroke-linecap="round" stroke-linejoin="round"/>
    <path d="M 73.41581726074219 177.54664611816406 C 103.53903198242188 144.4652099609375 132.05686950683594 154.7866973876953 149.81100463867188 149.2956085205078" stroke-width="3.0" fill="none" stroke="rgb(0, 0, 0)" stroke-opacity="1.0" stroke-linecap="round" stroke-linejoin="round"/>
    <path d="M 82.6932373046875 29.190584182739258 C 91.70985412597656 62.558746337890625 94.28649139404297 36.61116027832031 75.31646728515625 70.56964111328125" stroke-width="3.0" fill="none" stroke="rgb(0, 0, 0)" stroke-opacity="1.0" stroke-linecap="round" stroke-linejoin="round"/>
    <path d="M 132.44976806640625 153.8090057373047 C 205.2151336669922 159.03680419921875 136.04925537109375 144.45384216308594 137.4784698486328 186.99478149414062" stroke-width="3.0" fill="none" stroke="rgb(0, 0, 0)" stroke-opacity="1.0" stroke-linecap="round" stroke-linejoin="round"/>
    <path d="M 109.41345977783203 118.46533203125 C 123.7021255493164 163.61166381835938 122.58733367919922 118.15613555908203 97.75213623046875 126.5544204711914" stroke-width="3.0" fill="none" stroke="rgb(0, 0, 0)" stroke-opacity="1.0" stroke-linecap="round" stroke-linejoin="round"/>
    <path d="M 178.5503692626953 57.6583366394043 C 165.9788818359375 48.720184326171875 189.9498748779297 44.229827880859375 176.1571502685547 38.201541900634766" stroke-width="3.0" fill="none" stroke="rgb(0, 0, 0)" stroke-opacity="1.0" stroke-linecap="round" stroke-linejoin="round"/>
    <path d="M 95.75019073486328 50.15147018432617 C 75.42378997802734 62.749385833740234 86.93826293945312 40.74968338012695 60.26129913330078 113.66311645507812" stroke-width="3.0" fill="none" stroke="rgb(0, 0, 0)" stroke-opacity="1.0" stroke-linecap="round" stroke-linejoin="round"/>
  </g>
</svg>
