<?xml version="1.0" ?>
<svg xmlns="http://www.w3.org/2000/svg" version="1.1" width="224" height="224">
  <defs/>
  <g>
    <path d="M 134.7489471435547 116.46672058105469 C 159.69723510742188 115.13868713378906 162.1112060546875 106.69534301757812 171.709228515625 115.69512176513672" stroke-width="3.0" fill="none" stroke="rgb(0, 0, 0)" stroke-opacity="1.0" stroke-linecap="round" stroke-linejoin="round"/>
    <path d="M 105.59599304199219 158.2653045654297 C 59.4407958984375 177.329345703125 77.42144012451172 179.57276916503906 152.7398681640625 152.0990447998047" stroke-width="3.0" fill="none" stroke="rgb(0, 0, 0)" stroke-opacity="1.0" stroke-linecap="round" stroke-linejoin="round"/>
    <path d="M 149.1457977294922 141.2032470703125 C 157.65887451171875 147.4884796142578 109.7713623046875 127.97354888916016 149.1196746826172 87.02537536621094" stroke-width="3.0" fill="none" stroke="rgb(0, 0, 0)" stroke-opacity="1.0" stroke-linecap="round" stroke-linejoin="round"/>
    <path d="M 148.5140380859375 140.54415893554688 C 173.31373596191406 107.45137023925781 168.99359130859375 119.08727264404297 191.8029022216797 128.63014221191406" stroke-width="3.0" fill="none" stroke="rgb(0, 0, 0)" stroke-opacity="1.0" stroke-linecap="round" stroke-linejoin="round"/>
    <path d="M 173.30718994140625 75.83035278320312 C 226.60504150390625 88.09339141845703 216.66607666015625 159.87644958496094 160.29074096679688 153.19757080078125" stroke-width="3.0" fill="none" stroke="rgb(0, 0, 0)" stroke-opacity="1.0" stroke-linecap="round" stroke-linejoin="round"/>
    <path d="M 90.60771179199219 172.7565460205078 C 107.83545684814453 164.54534912109375 92.829833984375 180.7743377685547 107.92183685302734 155.50396728515625" stroke-width="3.0" fill="none" stroke="rgb(0, 0, 0)" stroke-opacity="1.0" stroke-linecap="round" stroke-linejoin="round"/>
    <path d="M 90.12727355957031 120.11470031738281 C 135.97544860839844 125.92364501953125 103.43404388427734 94.0622329711914 111.5094223022461 129.5740509033203" stroke-width="3.0" fill="none" stroke="rgb(0, 0, 0)" stroke-opacity="1.0" stroke-linecap="round" stroke-linejoin="round"/>
    <path d="M 92.35375213623047 190.1333465576172 C 165.15353393554688 188.82542419433594 138.95779418945312 189.83116149902344 48.805267333984375 190.21405029296875" stroke-width="3.0" fill="none" stroke="rgb(0, 0, 0)" stroke-opacity="1.0" stroke-linecap="round" stroke-linejoin="round"/>
    <path d="M 178.77830505371094 182.67071533203125 C 162.44515991210938 220.70916748046875 130.35194396972656 183.0822296142578 162.31546020507812 167.96148681640625" stroke-width="3.0" fill="none" stroke="rgb(0, 0, 0)" stroke-opacity="1.0" stroke-linecap="round" stroke-linejoin="round"/>
    <path d="M 157.86900329589844 84.27802276611328 C 199.0806121826172 76.46440124511719 217.1464080810547 124.30763244628906 185.16262817382812 148.3713836669922" stroke-width="3.0" fill="none" stroke="rgb(0, 0, 0)" stroke-opacity="1.0" stroke-linecap="round" stroke-linejoin="round"/>
    <path d="M 183.19534301757812 186.66378784179688 C 180.7495880126953 165.79083251953125 170.30950927734375 198.09727478027344 182.0531768798828 180.26022338867188" stroke-width="3.0" fill="none" stroke="rgb(0, 0, 0)" stroke-opacity="1.0" stroke-linecap="round" stroke-linejoin="round"/>
    <path d="M 137.59097290039062 150.4662628173828 C 124.02052307128906 149.16848754882812 134.4168243408203 150.40126037597656 133.27223205566406 149.90292358398438" stroke-width="3.0" fill="none" stroke="rgb(0, 0, 0)" stroke-opacity="1.0" stroke-linecap="round" stroke-linejoin="round"/>
    <path d="M 160.6312255859375 146.65586853027344 C 166.64862060546875 115.37317657470703 165.4937744140625 104.88986206054688 175.0369110107422 147.02423095703125" stroke-width="3.0" fill="none" stroke="rgb(0, 0, 0)" stroke-opacity="1.0" stroke-linecap="round" stroke-linejoin="round"/>
    <path d="M 149.7046356201172 183.5796661376953 C 165.9093780517578 212.90504455566406 185.31324768066406 164.4254150390625 156.58058166503906 171.99368286132812" stroke-width="3.0" fill="none" stroke="rgb(0, 0, 0)" stroke-opacity="1.0" stroke-linecap="round" stroke-linejoin="round"/>
    <path d="M 87.17315673828125 55.230350494384766 C 139.5880126953125 37.814231872558594 188.4070281982422 90.43922424316406 167.1037139892578 39.96870803833008" stroke-width="3.0" fill="none" stroke="rgb(0, 0, 0)" stroke-opacity="1.0" stroke-linecap="round" stroke-linejoin="round"/>
    <path d="M 68.21260070800781 31.08584213256836 C 73.94934844970703 17.14421272277832 74.73356628417969 29.800338745117188 104.54722595214844 109.90603637695312" stroke-width="3.0" fill="none" stroke="rgb(0, 0, 0)" stroke-opacity="1.0" stroke-linecap="round" stroke-linejoin="round"/>
    <path d="M 63.54804992675781 26.22645378112793 C 116.41905212402344 24.554073333740234 80.23155212402344 31.485042572021484 61.459449768066406 27.8072509765625" stroke-width="3.0" fill="none" stroke="rgb(0, 0, 0)" stroke-opacity="1.0" stroke-linecap="round" stroke-linejoin="round"/>
    <path d="M 48.06294631958008 189.88247680664062 C 126.59300994873047 188.83688354492188 84.449951171875 179.73057556152344 53.751121520996094 181.65151977539062" stroke-width="3.0" fill="none" stroke="rgb(0, 0, 0)" stroke-opacity="1.0" stroke-linecap="round" stroke-linejoin="round"/>
    <path d="M 142.91600036621094 185.94232177734375 C 152.9468536376953 138.59637451171875 204.0700225830078 186.6250762939453 165.2929229736328 164.3876953125" stroke-width="3.0" fill="none" stroke="rgb(0, 0, 0)" stroke-opacity="1.0" stroke-linecap="round" stroke-linejoin="round"/>
    <path d="M 56.83821105957031 189.89212036132812 C 118.90316772460938 176.6437530517578 116.11212158203125 186.27796936035156 47.34927749633789 183.70582580566406" stroke-width="3.0" fill="none" stroke="rgb(0, 0, 0)" stroke-opacity="1.0" stroke-linecap="round" stroke-linejoin="round"/>
    <path d="M 56.80238723754883 185.35079956054688 C 115.7821273803711 166.58706665039062 108.9092788696289 176.98614501953125 54.42232131958008 185.61917114257812" stroke-width="3.0" fill="none" stroke="rgb(0, 0, 0)" stroke-opacity="1.0" stroke-linecap="round" stroke-linejoin="round"/>
    <path d="M 101.15937042236328 187.55450439453125 C 94.50209045410156 171.3740692138672 106.45721435546875 170.23814392089844 82.3741455078125 189.69253540039062" stroke-width="3.0" fill="none" stroke="rgb(0, 0, 0)" stroke-opacity="1.0" stroke-linecap="round" stroke-linejoin="round"/>
    <path d="M 175.74942016601562 85.73617553710938 C 174.52239990234375 107.48047637939453 178.57835388183594 57.82623291015625 173.71282958984375 108.31524658203125" stroke-width="3.0" fill="none" stroke="rgb(0, 0, 0)" stroke-opacity="1.0" stroke-linecap="round" stroke-linejoin="round"/>
    <path d="M 100.11463928222656 171.35418701171875 C 30.63275718688965 174.1719970703125 51.5450325012207 178.41978454589844 69.4072036743164 181.6871337890625" stroke-width="3.0" fill="none" stroke="rgb(0, 0, 0)" stroke-opacity="1.0" stroke-linecap="round" stroke-linejoin="round"/>
    <path d="M 70.61073303222656 71.65457916259766 C 77.62008666992188 63.91692352294922 60.0558967590332 40.91094207763672 146.42784118652344 48.24656295776367" stroke-width="3.0" fill="none" stroke="rgb(0, 0, 0)" stroke-opacity="1.0" stroke-linecap="round" stroke-linejoin="round"/>
    <path d="M 131.06753540039062 148.5244903564453 C 158.92967224121094 145.35450744628906 125.05033874511719 141.23646545410156 126.36188507080078 159.9870147705078" stroke-width="3.0" fill="none" stroke="rgb(0, 0, 0)" stroke-opacity="1.0" stroke-linecap="round" stroke-linejoin="round"/>
    <path d="M 156.98922729492188 59.427146911621094 C 166.83880615234375 35.24815368652344 218.0095977783203 42.23858642578125 138.74046325683594 44.294830322265625" stroke-width="3.0" fill="none" stroke="rgb(0, 0, 0)" stroke-opacity="1.0" stroke-linecap="round" stroke-linejoin="round"/>
    <path d="M 52.16932678222656 173.6139373779297 C 47.635555267333984 182.60397338867188 40.9545783996582 206.39852905273438 52.33892822265625 178.24163818359375" stroke-width="3.0" fill="none" stroke="rgb(0, 0, 0)" stroke-opacity="1.0" stroke-linecap="round" stroke-linejoin="round"/>
    <path d="M 182.91790771484375 104.50202178955078 C 165.0633087158203 125.40292358398438 163.27474975585938 121.00956726074219 185.26132202148438 95.03607940673828" stroke-width="3.0" fill="none" stroke="rgb(0, 0, 0)" stroke-opacity="1.0" stroke-linecap="round" stroke-linejoin="round"/>
    <path d="M 144.11558532714844 56.90602111816406 C 117.57051849365234 100.92171478271484 97.81110382080078 146.1637420654297 112.53507232666016 114.58737182617188" stroke-width="3.0" fill="none" stroke="rgb(0, 0, 0)" stroke-opacity="1.0" stroke-linecap="round" stroke-linejoin="round"/>
    <path d="M 175.46728515625 43.55498123168945 C 154.3220672607422 74.00640869140625 122.12627410888672 4.395874977111816 166.29690551757812 121.90865325927734" stroke-width="3.0" fill="none" stroke="rgb(0, 0, 0)" stroke-opacity="1.0" stroke-linecap="round" stroke-linejoin="round"/>
    <path d="M 66.38520050048828 177.251708984375 C 99.85307312011719 180.3472900390625 127.90684509277344 184.24334716796875 51.39268112182617 183.21859741210938" stroke-width="3.0" fill="none" stroke="rgb(0, 0, 0)" stroke-opacity="1.0" stroke-linecap="round" stroke-linejoin="round"/>
    <path d="M 91.96842193603516 56.114723205566406 C 113.13939666748047 145.1942596435547 127.47151184082031 134.54522705078125 57.61482238769531 114.73683166503906" stroke-width="3.0" fill="none" stroke="rgb(0, 0, 0)" stroke-opacity="1.0" stroke-linecap="round" stroke-linejoin="round"/>
    <path d="M 184.46322631835938 140.66746520996094 C 160.64434814453125 109.30348205566406 171.64239501953125 102.9161605834961 177.4915008544922 115.17805480957031" stroke-width="3.0" fill="none" stroke="rgb(0, 0, 0)" stroke-opacity="1.0" stroke-linecap="round" stroke-linejoin="round"/>
    <path d="M 79.79413604736328 31.820533752441406 C 26.177711486816406 33.95028305053711 62.333221435546875 26.38434410095215 77.14595794677734 39.81050491333008" stroke-width="3.0" fill="none" stroke="rgb(0, 0, 0)" stroke-opacity="1.0" stroke-linecap="round" stroke-linejoin="round"/>
    <path d="M 42.90227127075195 147.1486053466797 C 59.216827392578125 153.76390075683594 91.17169952392578 145.64297485351562 95.54312896728516 120.14881896972656" stroke-width="3.0" fill="none" stroke="rgb(0, 0, 0)" stroke-opacity="1.0" stroke-linecap="round" stroke-linejoin="round"/>
    <path d="M 163.66917419433594 117.45939636230469 C 115.97703552246094 138.4564208984375 148.45729064941406 125.66947174072266 142.4935302734375 136.37533569335938" stroke-width="3.0" fill="none" stroke="rgb(0, 0, 0)" stroke-opacity="1.0" stroke-linecap="round" stroke-linejoin="round"/>
    <path d="M 46.9409294128418 149.43014526367188 C 18.225265502929688 143.60873413085938 0.7701407074928284 100.26766204833984 39.22795486450195 77.55267333984375" stroke-width="3.0" fill="none" stroke="rgb(0, 0, 0)" stroke-opacity="1.0" stroke-linecap="round" stroke-linejoin="round"/>
    <path d="M 177.67880249023438 187.5081024169922 C 175.20042419433594 182.49757385253906 194.98199462890625 194.8571319580078 171.56361389160156 164.83837890625" stroke-width="3.0" fill="none" stroke="rgb(0, 0, 0)" stroke-opacity="1.0" stroke-linecap="round" stroke-linejoin="round"/>
    <path d="M 172.8603057861328 155.54684448242188 C 99.96624755859375 134.18362426757812 173.40126037597656 159.61932373046875 131.01795959472656 154.62744140625" stroke-width="3.0" fill="none" stroke="rgb(0, 0, 0)" stroke-opacity="1.0" stroke-linecap="round" stroke-linejoin="round"/>
    <path d="M 30.793758392333984 83.06861877441406 C 84.53340148925781 48.27040100097656 107.92254638671875 128.46054077148438 96.65565490722656 113.46460723876953" stroke-width="3.0" fill="none" stroke="rgb(0, 0, 0)" stroke-opacity="1.0" stroke-linecap="round" stroke-linejoin="round"/>
    <path d="M 108.59233093261719 111.4685287475586 C 95.83372497558594 135.37242126464844 100.2574691772461 107.80580139160156 72.08455657958984 88.01802062988281" stroke-width="3.0" fill="none" stroke="rgb(0, 0, 0)" stroke-opacity="1.0" stroke-linecap="round" stroke-linejoin="round"/>
    <path d="M 75.89830017089844 176.32763671875 C 101.64881896972656 143.6975555419922 131.67889404296875 154.34332275390625 149.00637817382812 149.6677703857422" stroke-width="3.0" fill="none" stroke="rgb(0, 0, 0)" stroke-opacity="1.0" stroke-linecap="round" stroke-linejoin="round"/>
    <path d="M 80.86754608154297 33.563331604003906 C 90.57353973388672 65.88106536865234 100.40505981445312 38.548526763916016 76.91061401367188 70.8860092163086" stroke-width="3.0" fill="none" stroke="rgb(0, 0, 0)" stroke-opacity="1.0" stroke-linecap="round" stroke-linejoin="round"/>
    <path d="M 130.7053680419922 151.20758056640625 C 203.1439208984375 156.1756591796875 128.43899536132812 144.04554748535156 137.91778564453125 189.0030059814453" stroke-width="3.0" fill="none" stroke="rgb(0, 0, 0)" stroke-opacity="1.0" stroke-linecap="round" stroke-linejoin="round"/>
    <path d="M 106.0417709350586 122.3374252319336 C 121.39115142822266 157.27903747558594 126.41675567626953 120.45945739746094 97.35324096679688 124.65792083740234" stroke-width="3.0" fill="none" stroke="rgb(0, 0, 0)" stroke-opacity="1.0" stroke-linecap="round" stroke-linejoin="round"/>
    <path d="M 177.4431915283203 56.40412521362305 C 168.4315185546875 47.14594268798828 194.44857788085938 32.13467788696289 174.977294921875 41.42924118041992" stroke-width="3.0" fill="none" stroke="rgb(0, 0, 0)" stroke-opacity="1.0" stroke-linecap="round" stroke-linejoin="round"/>
    <path d="M 96.99573516845703 51.99692153930664 C 76.88899993896484 62.28404235839844 89.76900482177734 40.293704986572266 57.23777389526367 115.82373809814453" stroke-width="3.0" fill="none" stroke="rgb(0, 0, 0)" stroke-opacity="1.0" stroke-linecap="round" stroke-linejoin="round"/>
  </g>
</svg>
