<?xml version="1.0" ?>
<svg xmlns="http://www.w3.org/2000/svg" version="1.1" width="224" height="224">
  <defs/>
  <g>
    <path d="M 146.16871643066406 134.2865753173828 C 158.1378936767578 127.64495086669922 162.47210693359375 122.89070129394531 181.6369171142578 110.1540298461914" stroke-width="3.0" fill="none" stroke="rgb(0, 0, 0)" stroke-opacity="1.0" stroke-linecap="round" stroke-linejoin="round"/>
    <path d="M 106.26136779785156 154.09640502929688 C 67.35731506347656 171.8515167236328 81.01593017578125 175.27174377441406 136.99652099609375 156.7727813720703" stroke-width="3.0" fill="none" stroke="rgb(0, 0, 0)" stroke-opacity="1.0" stroke-linecap="round" stroke-linejoin="round"/>
    <path d="M 146.03268432617188 139.12364196777344 C 160.7167510986328 151.33670043945312 127.05569458007812 135.98333740234375 127.66810607910156 103.73933410644531" stroke-width="3.0" fill="none" stroke="rgb(0, 0, 0)" stroke-opacity="1.0" stroke-linecap="round" stroke-linejoin="round"/>
    <path d="M 158.63848876953125 143.6536102294922 C 172.6875457763672 111.5828857421875 164.47337341308594 123.29412841796875 184.75254821777344 142.0921630859375" stroke-width="3.0" fill="none" stroke="rgb(0, 0, 0)" stroke-opacity="1.0" stroke-linecap="round" stroke-linejoin="round"/>
    <path d="M 198.06121826171875 94.71484375 C 197.78736877441406 91.50897216796875 219.72740173339844 123.209716796875 188.43832397460938 140.19473266601562" stroke-width="3.0" fill="none" stroke="rgb(0, 0, 0)" stroke-opacity="1.0" stroke-linecap="round" stroke-linejoin="round"/>
    <path d="M 107.43292236328125 165.60365295410156 C 114.05778503417969 158.44296264648438 93.62542724609375 166.23422241210938 116.77046966552734 157.35426330566406" stroke-width="3.0" fill="none" stroke="rgb(0, 0, 0)" stroke-opacity="1.0" stroke-linecap="round" stroke-linejoin="round"/>
    <path d="M 108.62855529785156 114.1491928100586 C 125.5963363647461 115.97651672363281 110.60942840576172 101.84008026123047 111.97964477539062 113.14492797851562" stroke-width="3.0" fill="none" stroke="rgb(0, 0, 0)" stroke-opacity="1.0" stroke-linecap="round" stroke-linejoin="round"/>
    <path d="M 105.03165435791016 188.53195190429688 C 139.580078125 186.7888641357422 121.3923110961914 182.69105529785156 56.96217346191406 184.62648010253906" stroke-width="3.0" fill="none" stroke="rgb(0, 0, 0)" stroke-opacity="1.0" stroke-linecap="round" stroke-linejoin="round"/>
    <path d="M 175.7254638671875 189.03482055664062 C 160.89353942871094 211.24110412597656 136.35519409179688 187.49993896484375 147.0747528076172 168.90948486328125" stroke-width="3.0" fill="none" stroke="rgb(0, 0, 0)" stroke-opacity="1.0" stroke-linecap="round" stroke-linejoin="round"/>
    <path d="M 153.21533203125 81.03106689453125 C 203.53453063964844 71.81707763671875 205.66287231445312 120.59215545654297 202.5940399169922 100.9455337524414" stroke-width="3.0" fill="none" stroke="rgb(0, 0, 0)" stroke-opacity="1.0" stroke-linecap="round" stroke-linejoin="round"/>
    <path d="M 171.82972717285156 163.64910888671875 C 180.30740356445312 179.16558837890625 191.14794921875 182.203369140625 181.15872192382812 167.1300048828125" stroke-width="3.0" fill="none" stroke="rgb(0, 0, 0)" stroke-opacity="1.0" stroke-linecap="round" stroke-linejoin="round"/>
    <path d="M 126.84188079833984 140.70663452148438 C 116.48223876953125 137.24371337890625 133.9669189453125 140.3873291015625 118.60903930664062 142.40908813476562" stroke-width="3.0" fill="none" stroke="rgb(0, 0, 0)" stroke-opacity="1.0" stroke-linecap="round" stroke-linejoin="round"/>
    <path d="M 170.6937713623047 144.64915466308594 C 167.07891845703125 110.31560516357422 161.64288330078125 116.4576187133789 173.6818389892578 143.68161010742188" stroke-width="3.0" fill="none" stroke="rgb(0, 0, 0)" stroke-opacity="1.0" stroke-linecap="round" stroke-linejoin="round"/>
    <path d="M 170.3867950439453 196.1162109375 C 181.7198028564453 187.697021484375 181.13050842285156 173.36590576171875 167.55078125 164.7958526611328" stroke-width="3.0" fill="none" stroke="rgb(0, 0, 0)" stroke-opacity="1.0" stroke-linecap="round" stroke-linejoin="round"/>
    <path d="M 87.82464599609375 49.94623565673828 C 157.3861541748047 45.798065185546875 168.41311645507812 67.50363159179688 164.5008544921875 44.39841079711914" stroke-width="3.0" fill="none" stroke="rgb(0, 0, 0)" stroke-opacity="1.0" stroke-linecap="round" stroke-linejoin="round"/>
    <path d="M 84.54151153564453 46.23621368408203 C 83.43174743652344 42.66694641113281 81.14585876464844 35.704498291015625 106.39859771728516 107.50643157958984" stroke-width="3.0" fill="none" stroke="rgb(0, 0, 0)" stroke-opacity="1.0" stroke-linecap="round" stroke-linejoin="round"/>
    <path d="M 63.74810028076172 24.04607582092285 C 111.5674057006836 32.470680236816406 103.04725646972656 19.834518432617188 71.1313247680664 32.68686294555664" stroke-width="3.0" fill="none" stroke="rgb(0, 0, 0)" stroke-opacity="1.0" stroke-linecap="round" stroke-linejoin="round"/>
    <path d="M 49.577754974365234 176.45541381835938 C 73.7321548461914 178.94113159179688 84.3026123046875 165.86752319335938 67.62628936767578 183.9590606689453" stroke-width="3.0" fill="none" stroke="rgb(0, 0, 0)" stroke-opacity="1.0" stroke-linecap="round" stroke-linejoin="round"/>
    <path d="M 147.9155731201172 169.88485717773438 C 159.7351531982422 148.6978302001953 199.04835510253906 179.33145141601562 164.47512817382812 162.7698211669922" stroke-width="3.0" fill="none" stroke="rgb(0, 0, 0)" stroke-opacity="1.0" stroke-linecap="round" stroke-linejoin="round"/>
    <path d="M 80.40907287597656 180.27684020996094 C 103.18714141845703 179.58895874023438 105.4343490600586 179.04949951171875 97.63269805908203 172.58055114746094" stroke-width="3.0" fill="none" stroke="rgb(0, 0, 0)" stroke-opacity="1.0" stroke-linecap="round" stroke-linejoin="round"/>
    <path d="M 60.336490631103516 173.87762451171875 C 121.0470199584961 166.28431701660156 115.71583557128906 183.42303466796875 45.08840560913086 188.4305877685547" stroke-width="3.0" fill="none" stroke="rgb(0, 0, 0)" stroke-opacity="1.0" stroke-linecap="round" stroke-linejoin="round"/>
    <path d="M 98.82064819335938 188.2734375 C 97.32503509521484 175.45550537109375 113.94363403320312 146.1967010498047 101.16515350341797 164.91311645507812" stroke-width="3.0" fill="none" stroke="rgb(0, 0, 0)" stroke-opacity="1.0" stroke-linecap="round" stroke-linejoin="round"/>
    <path d="M 174.63613891601562 85.23857879638672 C 166.5873565673828 135.73165893554688 165.30870056152344 82.77751922607422 169.9530029296875 111.62947845458984" stroke-width="3.0" fill="none" stroke="rgb(0, 0, 0)" stroke-opacity="1.0" stroke-linecap="round" stroke-linejoin="round"/>
    <path d="M 74.31849670410156 174.42335510253906 C 34.65061569213867 177.629150390625 48.506656646728516 186.94064331054688 55.47486877441406 185.796142578125" stroke-width="3.0" fill="none" stroke="rgb(0, 0, 0)" stroke-opacity="1.0" stroke-linecap="round" stroke-linejoin="round"/>
    <path d="M 87.67740631103516 49.135894775390625 C 77.55570220947266 58.65841293334961 85.79589080810547 51.29591369628906 113.3006591796875 49.34606170654297" stroke-width="3.0" fill="none" stroke="rgb(0, 0, 0)" stroke-opacity="1.0" stroke-linecap="round" stroke-linejoin="round"/>
    <path d="M 108.2075424194336 151.40664672851562 C 143.5428009033203 145.1944580078125 118.51395416259766 140.69151306152344 130.29391479492188 156.96409606933594" stroke-width="3.0" fill="none" stroke="rgb(0, 0, 0)" stroke-opacity="1.0" stroke-linecap="round" stroke-linejoin="round"/>
    <path d="M 176.46075439453125 35.859737396240234 C 174.95523071289062 41.43811798095703 204.29940795898438 41.62519454956055 144.6821746826172 45.27647399902344" stroke-width="3.0" fill="none" stroke="rgb(0, 0, 0)" stroke-opacity="1.0" stroke-linecap="round" stroke-linejoin="round"/>
    <path d="M 59.77213668823242 179.3178253173828 C 47.788116455078125 184.52902221679688 40.54319381713867 192.4890899658203 48.87559509277344 177.70423889160156" stroke-width="3.0" fill="none" stroke="rgb(0, 0, 0)" stroke-opacity="1.0" stroke-linecap="round" stroke-linejoin="round"/>
    <path d="M 164.49227905273438 121.37445068359375 C 168.09800720214844 128.1676025390625 168.87222290039062 121.30436706542969 186.6406707763672 90.88966369628906" stroke-width="3.0" fill="none" stroke="rgb(0, 0, 0)" stroke-opacity="1.0" stroke-linecap="round" stroke-linejoin="round"/>
    <path d="M 142.79969787597656 51.408424377441406 C 118.86578369140625 91.86011505126953 112.36111450195312 116.4836196899414 115.223388671875 108.77271270751953" stroke-width="3.0" fill="none" stroke="rgb(0, 0, 0)" stroke-opacity="1.0" stroke-linecap="round" stroke-linejoin="round"/>
    <path d="M 148.01052856445312 48.546592712402344 C 138.5997314453125 67.70558166503906 139.73785400390625 44.2274284362793 164.0983428955078 110.6332015991211" stroke-width="3.0" fill="none" stroke="rgb(0, 0, 0)" stroke-opacity="1.0" stroke-linecap="round" stroke-linejoin="round"/>
    <path d="M 97.72308349609375 184.15260314941406 C 95.79122924804688 175.06642150878906 106.44554138183594 175.50450134277344 83.4328384399414 178.43336486816406" stroke-width="3.0" fill="none" stroke="rgb(0, 0, 0)" stroke-opacity="1.0" stroke-linecap="round" stroke-linejoin="round"/>
    <path d="M 75.82780456542969 66.54647064208984 C 54.4598274230957 122.77569580078125 63.09126281738281 142.43850708007812 52.0624885559082 75.4808120727539" stroke-width="3.0" fill="none" stroke="rgb(0, 0, 0)" stroke-opacity="1.0" stroke-linecap="round" stroke-linejoin="round"/>
    <path d="M 178.9785919189453 143.63632202148438 C 154.86148071289062 119.65994262695312 162.878662109375 103.0105209350586 172.37161254882812 121.19625854492188" stroke-width="3.0" fill="none" stroke="rgb(0, 0, 0)" stroke-opacity="1.0" stroke-linecap="round" stroke-linejoin="round"/>
    <path d="M 75.25790405273438 32.73680877685547 C 36.49403381347656 23.895614624023438 74.34701538085938 22.12112045288086 72.54633331298828 32.614498138427734" stroke-width="3.0" fill="none" stroke="rgb(0, 0, 0)" stroke-opacity="1.0" stroke-linecap="round" stroke-linejoin="round"/>
    <path d="M 42.81536102294922 146.36061096191406 C 66.79993438720703 153.66305541992188 58.151214599609375 141.59982299804688 59.362918853759766 146.2950439453125" stroke-width="3.0" fill="none" stroke="rgb(0, 0, 0)" stroke-opacity="1.0" stroke-linecap="round" stroke-linejoin="round"/>
    <path d="M 166.05010986328125 145.58229064941406 C 172.06700134277344 143.15528869628906 138.50531005859375 141.99838256835938 161.18870544433594 143.3660430908203" stroke-width="3.0" fill="none" stroke="rgb(0, 0, 0)" stroke-opacity="1.0" stroke-linecap="round" stroke-linejoin="round"/>
    <path d="M 45.23915481567383 147.04345703125 C 21.846405029296875 139.34518432617188 4.986452579498291 113.06011962890625 26.222862243652344 88.3844985961914" stroke-width="3.0" fill="none" stroke="rgb(0, 0, 0)" stroke-opacity="1.0" stroke-linecap="round" stroke-linejoin="round"/>
    <path d="M 185.3114013671875 182.86480712890625 C 182.22547912597656 171.49026489257812 188.19715881347656 176.3058624267578 176.0464324951172 170.15396118164062" stroke-width="3.0" fill="none" stroke="rgb(0, 0, 0)" stroke-opacity="1.0" stroke-linecap="round" stroke-linejoin="round"/>
    <path d="M 153.9551239013672 154.48818969726562 C 105.42662048339844 149.79928588867188 171.3858184814453 150.36947631835938 134.28712463378906 157.38385009765625" stroke-width="3.0" fill="none" stroke="rgb(0, 0, 0)" stroke-opacity="1.0" stroke-linecap="round" stroke-linejoin="round"/>
    <path d="M 30.296350479125977 84.87117767333984 C 72.4569091796875 51.358375549316406 110.12127685546875 124.9775390625 97.06580352783203 116.79654693603516" stroke-width="3.0" fill="none" stroke="rgb(0, 0, 0)" stroke-opacity="1.0" stroke-linecap="round" stroke-linejoin="round"/>
    <path d="M 94.13108825683594 104.05774688720703 C 89.27156066894531 87.27263641357422 90.29134368896484 88.56819152832031 76.0271224975586 82.59607696533203" stroke-width="3.0" fill="none" stroke="rgb(0, 0, 0)" stroke-opacity="1.0" stroke-linecap="round" stroke-linejoin="round"/>
    <path d="M 78.18206024169922 170.91468811035156 C 100.44364166259766 147.52317810058594 116.2905502319336 149.00811767578125 110.70452117919922 156.4380645751953" stroke-width="3.0" fill="none" stroke="rgb(0, 0, 0)" stroke-opacity="1.0" stroke-linecap="round" stroke-linejoin="round"/>
    <path d="M 75.75322723388672 27.502304077148438 C 87.82810974121094 45.47739028930664 82.20789337158203 53.61554718017578 95.41986846923828 51.64063262939453" stroke-width="3.0" fill="none" stroke="rgb(0, 0, 0)" stroke-opacity="1.0" stroke-linecap="round" stroke-linejoin="round"/>
    <path d="M 113.73698425292969 159.64996337890625 C 146.87744140625 161.1506805419922 124.0394287109375 156.1669158935547 127.44023895263672 185.02488708496094" stroke-width="3.0" fill="none" stroke="rgb(0, 0, 0)" stroke-opacity="1.0" stroke-linecap="round" stroke-linejoin="round"/>
    <path d="M 107.98389434814453 142.99472045898438 C 107.75822448730469 147.95223999023438 115.9836196899414 141.14208984375 106.00870513916016 146.6126251220703" stroke-width="3.0" fill="none" stroke="rgb(0, 0, 0)" stroke-opacity="1.0" stroke-linecap="round" stroke-linejoin="round"/>
    <path d="M 171.4028778076172 54.73989486694336 C 168.5772705078125 49.133304595947266 167.51547241210938 54.68019485473633 171.63023376464844 39.43231201171875" stroke-width="3.0" fill="none" stroke="rgb(0, 0, 0)" stroke-opacity="1.0" stroke-linecap="round" stroke-linejoin="round"/>
    <path d="M 90.02468872070312 54.99261474609375 C 80.58447265625 41.03644561767578 78.64961242675781 30.44684410095215 73.61231231689453 73.6292495727539" stroke-width="3.0" fill="none" stroke="rgb(0, 0, 0)" stroke-opacity="1.0" stroke-linecap="round" stroke-linejoin="round"/>
  </g>
</svg>
