<?xml version="1.0" ?>
<svg xmlns="http://www.w3.org/2000/svg" version="1.1" width="224" height="224">
  <defs/>
  <g>
    <path d="M 131.43955993652344 116.86446380615234 C 183.94381713867188 108.4884033203125 180.15675354003906 116.86959838867188 184.78436279296875 106.47296142578125" stroke-width="3.0" fill="none" stroke="rgb(0, 0, 0)" stroke-opacity="1.0" stroke-linecap="round" stroke-linejoin="round"/>
    <path d="M 111.99517822265625 158.73439025878906 C 57.13881301879883 180.9979705810547 70.93030548095703 176.75245666503906 157.4658203125 158.90899658203125" stroke-width="3.0" fill="none" stroke="rgb(0, 0, 0)" stroke-opacity="1.0" stroke-linecap="round" stroke-linejoin="round"/>
    <path d="M 159.682861328125 148.87872314453125 C 146.99183654785156 153.6118621826172 102.44573211669922 133.95306396484375 145.3839111328125 80.20266723632812" stroke-width="3.0" fill="none" stroke="rgb(0, 0, 0)" stroke-opacity="1.0" stroke-linecap="round" stroke-linejoin="round"/>
    <path d="M 146.08154296875 143.29916381835938 C 177.598876953125 91.45626831054688 159.26559448242188 110.98622131347656 191.2779083251953 129.1068115234375" stroke-width="3.0" fill="none" stroke="rgb(0, 0, 0)" stroke-opacity="1.0" stroke-linecap="round" stroke-linejoin="round"/>
    <path d="M 152.79867553710938 74.29315185546875 C 225.07838439941406 66.20207977294922 231.51519775390625 168.4563446044922 150.55050659179688 155.2166748046875" stroke-width="3.0" fill="none" stroke="rgb(0, 0, 0)" stroke-opacity="1.0" stroke-linecap="round" stroke-linejoin="round"/>
    <path d="M 94.31399536132812 180.17202758789062 C 72.56752014160156 175.77438354492188 87.2259292602539 196.74307250976562 106.64627838134766 152.4394073486328" stroke-width="3.0" fill="none" stroke="rgb(0, 0, 0)" stroke-opacity="1.0" stroke-linecap="round" stroke-linejoin="round"/>
    <path d="M 93.19608306884766 126.39332580566406 C 145.46884155273438 130.45379638671875 83.05463409423828 96.58769226074219 114.01347351074219 125.12287139892578" stroke-width="3.0" fill="none" stroke="rgb(0, 0, 0)" stroke-opacity="1.0" stroke-linecap="round" stroke-linejoin="round"/>
    <path d="M 53.42549133300781 175.84524536132812 C 198.5237274169922 141.49169921875 185.78732299804688 139.89146423339844 54.41014099121094 168.42630004882812" stroke-width="3.0" fill="none" stroke="rgb(0, 0, 0)" stroke-opacity="1.0" stroke-linecap="round" stroke-linejoin="round"/>
    <path d="M 184.1312255859375 180.41989135742188 C 148.54550170898438 236.46871948242188 121.25657653808594 155.9805908203125 144.960693359375 186.4225311279297" stroke-width="3.0" fill="none" stroke="rgb(0, 0, 0)" stroke-opacity="1.0" stroke-linecap="round" stroke-linejoin="round"/>
    <path d="M 154.05868530273438 80.98755645751953 C 195.72967529296875 68.98536682128906 220.713134765625 131.4274444580078 178.67398071289062 147.56033325195312" stroke-width="3.0" fill="none" stroke="rgb(0, 0, 0)" stroke-opacity="1.0" stroke-linecap="round" stroke-linejoin="round"/>
    <path d="M 187.333984375 182.30369567871094 C 180.93704223632812 148.77110290527344 171.57911682128906 230.37405395507812 183.22242736816406 166.9298858642578" stroke-width="3.0" fill="none" stroke="rgb(0, 0, 0)" stroke-opacity="1.0" stroke-linecap="round" stroke-linejoin="round"/>
    <path d="M 141.40927124023438 152.00338745117188 C 108.50908660888672 148.8191680908203 130.3813018798828 156.1138153076172 147.55914306640625 154.78555297851562" stroke-width="3.0" fill="none" stroke="rgb(0, 0, 0)" stroke-opacity="1.0" stroke-linecap="round" stroke-linejoin="round"/>
    <path d="M 160.8827362060547 144.60069274902344 C 173.2216033935547 112.20575714111328 156.51071166992188 81.76876068115234 174.81674194335938 146.6402130126953" stroke-width="3.0" fill="none" stroke="rgb(0, 0, 0)" stroke-opacity="1.0" stroke-linecap="round" stroke-linejoin="round"/>
    <path d="M 144.99855041503906 177.0167694091797 C 162.76878356933594 225.8493194580078 198.3320770263672 150.5821075439453 142.2329864501953 172.8784637451172" stroke-width="3.0" fill="none" stroke="rgb(0, 0, 0)" stroke-opacity="1.0" stroke-linecap="round" stroke-linejoin="round"/>
    <path d="M 88.04756164550781 55.52726745605469 C 138.06307983398438 38.53053283691406 187.99330139160156 88.17571258544922 162.84519958496094 37.48619842529297" stroke-width="3.0" fill="none" stroke="rgb(0, 0, 0)" stroke-opacity="1.0" stroke-linecap="round" stroke-linejoin="round"/>
    <path d="M 61.60798645019531 27.74424171447754 C 82.22884368896484 28.927217483520508 79.47315216064453 29.617422103881836 106.56840515136719 109.1996078491211" stroke-width="3.0" fill="none" stroke="rgb(0, 0, 0)" stroke-opacity="1.0" stroke-linecap="round" stroke-linejoin="round"/>
    <path d="M 60.62999725341797 27.624181747436523 C 143.46128845214844 20.767654418945312 41.98393630981445 35.57416915893555 72.1195297241211 26.163965225219727" stroke-width="3.0" fill="none" stroke="rgb(0, 0, 0)" stroke-opacity="1.0" stroke-linecap="round" stroke-linejoin="round"/>
    <path d="M 43.81990432739258 189.11325073242188 C 192.07101440429688 187.00636291503906 117.20346069335938 190.28953552246094 46.56215286254883 189.2542266845703" stroke-width="3.0" fill="none" stroke="rgb(0, 0, 0)" stroke-opacity="1.0" stroke-linecap="round" stroke-linejoin="round"/>
    <path d="M 133.1161346435547 190.81103515625 C 151.88229370117188 132.64971923828125 214.10726928710938 193.27098083496094 169.28271484375 163.89308166503906" stroke-width="3.0" fill="none" stroke="rgb(0, 0, 0)" stroke-opacity="1.0" stroke-linecap="round" stroke-linejoin="round"/>
    <path d="M 55.617408752441406 180.3133544921875 C 145.93035888671875 178.2917938232422 131.39202880859375 189.5228729248047 54.09177017211914 181.7384490966797" stroke-width="3.0" fill="none" stroke="rgb(0, 0, 0)" stroke-opacity="1.0" stroke-linecap="round" stroke-linejoin="round"/>
    <path d="M 58.47571563720703 176.62158203125 C 144.0325469970703 197.95240783691406 109.92308044433594 178.20248413085938 62.56413650512695 172.02162170410156" stroke-width="3.0" fill="none" stroke="rgb(0, 0, 0)" stroke-opacity="1.0" stroke-linecap="round" stroke-linejoin="round"/>
    <path d="M 99.35716247558594 188.58978271484375 C 95.44815063476562 162.79359436035156 118.87996673583984 160.22703552246094 81.3585205078125 178.8865203857422" stroke-width="3.0" fill="none" stroke="rgb(0, 0, 0)" stroke-opacity="1.0" stroke-linecap="round" stroke-linejoin="round"/>
    <path d="M 179.6149139404297 92.58549499511719 C 174.68035888671875 95.86930847167969 185.12635803222656 63.663665771484375 175.3951416015625 100.78833770751953" stroke-width="3.0" fill="none" stroke="rgb(0, 0, 0)" stroke-opacity="1.0" stroke-linecap="round" stroke-linejoin="round"/>
    <path d="M 119.55350494384766 160.52481079101562 C 59.531673431396484 197.889892578125 41.08906173706055 191.0955047607422 60.340065002441406 181.9916534423828" stroke-width="3.0" fill="none" stroke="rgb(0, 0, 0)" stroke-opacity="1.0" stroke-linecap="round" stroke-linejoin="round"/>
    <path d="M 67.67005920410156 82.18683624267578 C 79.93327331542969 55.65470886230469 67.3712387084961 40.206687927246094 166.26663208007812 50.17212677001953" stroke-width="3.0" fill="none" stroke="rgb(0, 0, 0)" stroke-opacity="1.0" stroke-linecap="round" stroke-linejoin="round"/>
    <path d="M 126.53040313720703 163.08802795410156 C 163.80465698242188 169.10418701171875 125.401611328125 143.36021423339844 129.86363220214844 160.2538299560547" stroke-width="3.0" fill="none" stroke="rgb(0, 0, 0)" stroke-opacity="1.0" stroke-linecap="round" stroke-linejoin="round"/>
    <path d="M 154.35479736328125 63.66724395751953 C 178.5231475830078 29.543731689453125 220.9169921875 26.571563720703125 142.8556671142578 49.31729507446289" stroke-width="3.0" fill="none" stroke="rgb(0, 0, 0)" stroke-opacity="1.0" stroke-linecap="round" stroke-linejoin="round"/>
    <path d="M 53.082054138183594 173.04705810546875 C 57.27260208129883 188.24281311035156 38.98784637451172 193.8219451904297 50.147552490234375 178.02822875976562" stroke-width="3.0" fill="none" stroke="rgb(0, 0, 0)" stroke-opacity="1.0" stroke-linecap="round" stroke-linejoin="round"/>
    <path d="M 185.3115997314453 94.35074615478516 C 169.24954223632812 116.47238159179688 172.35858154296875 136.78712463378906 182.2552032470703 88.02938842773438" stroke-width="3.0" fill="none" stroke="rgb(0, 0, 0)" stroke-opacity="1.0" stroke-linecap="round" stroke-linejoin="round"/>
    <path d="M 140.16249084472656 56.825660705566406 C 116.0863265991211 114.43318176269531 88.70759582519531 158.70301818847656 103.00113677978516 119.29978942871094" stroke-width="3.0" fill="none" stroke="rgb(0, 0, 0)" stroke-opacity="1.0" stroke-linecap="round" stroke-linejoin="round"/>
    <path d="M 177.29974365234375 34.838523864746094 C 151.6235809326172 67.84304809570312 115.62676239013672 -12.484047889709473 165.317626953125 125.50952911376953" stroke-width="3.0" fill="none" stroke="rgb(0, 0, 0)" stroke-opacity="1.0" stroke-linecap="round" stroke-linejoin="round"/>
    <path d="M 72.017333984375 180.60052490234375 C 91.69358825683594 149.6608428955078 85.56366729736328 173.03411865234375 54.19895553588867 187.6465606689453" stroke-width="3.0" fill="none" stroke="rgb(0, 0, 0)" stroke-opacity="1.0" stroke-linecap="round" stroke-linejoin="round"/>
    <path d="M 85.69780731201172 58.63401794433594 C 112.79474639892578 145.80471801757812 141.91517639160156 125.71174621582031 54.42962646484375 117.38450622558594" stroke-width="3.0" fill="none" stroke="rgb(0, 0, 0)" stroke-opacity="1.0" stroke-linecap="round" stroke-linejoin="round"/>
    <path d="M 184.98464965820312 142.31007385253906 C 165.12974548339844 110.378662109375 167.6709442138672 119.2729721069336 191.59400939941406 105.68657684326172" stroke-width="3.0" fill="none" stroke="rgb(0, 0, 0)" stroke-opacity="1.0" stroke-linecap="round" stroke-linejoin="round"/>
    <path d="M 81.42145538330078 28.893802642822266 C 76.79068756103516 42.092411041259766 30.419898986816406 17.257169723510742 88.46165466308594 25.56109619140625" stroke-width="3.0" fill="none" stroke="rgb(0, 0, 0)" stroke-opacity="1.0" stroke-linecap="round" stroke-linejoin="round"/>
    <path d="M 43.94942092895508 147.85159301757812 C 58.65496063232422 156.0409698486328 91.63543701171875 140.24842834472656 94.54390716552734 116.71686553955078" stroke-width="3.0" fill="none" stroke="rgb(0, 0, 0)" stroke-opacity="1.0" stroke-linecap="round" stroke-linejoin="round"/>
    <path d="M 169.2731475830078 115.88504791259766 C 121.40082550048828 141.01705932617188 117.2003402709961 133.51422119140625 167.4918670654297 114.07455444335938" stroke-width="3.0" fill="none" stroke="rgb(0, 0, 0)" stroke-opacity="1.0" stroke-linecap="round" stroke-linejoin="round"/>
    <path d="M 45.86359786987305 148.63815307617188 C 12.555306434631348 136.1577606201172 3.1673762798309326 92.44052124023438 43.204463958740234 75.66535186767578" stroke-width="3.0" fill="none" stroke="rgb(0, 0, 0)" stroke-opacity="1.0" stroke-linecap="round" stroke-linejoin="round"/>
    <path d="M 185.05160522460938 181.40640258789062 C 170.048095703125 163.57508850097656 192.05580139160156 171.575927734375 172.58047485351562 166.3509521484375" stroke-width="3.0" fill="none" stroke="rgb(0, 0, 0)" stroke-opacity="1.0" stroke-linecap="round" stroke-linejoin="round"/>
    <path d="M 170.6134033203125 151.48760986328125 C 87.04255676269531 145.0363311767578 151.75588989257812 151.17807006835938 112.57557678222656 158.7491912841797" stroke-width="3.0" fill="none" stroke="rgb(0, 0, 0)" stroke-opacity="1.0" stroke-linecap="round" stroke-linejoin="round"/>
    <path d="M 28.88643455505371 82.63919830322266 C 91.99922180175781 44.843204498291016 109.42205810546875 136.78160095214844 98.05022430419922 116.58665466308594" stroke-width="3.0" fill="none" stroke="rgb(0, 0, 0)" stroke-opacity="1.0" stroke-linecap="round" stroke-linejoin="round"/>
    <path d="M 112.8916244506836 128.02114868164062 C 86.46156311035156 142.62448120117188 97.7904281616211 105.60598754882812 71.27799224853516 87.97911834716797" stroke-width="3.0" fill="none" stroke="rgb(0, 0, 0)" stroke-opacity="1.0" stroke-linecap="round" stroke-linejoin="round"/>
    <path d="M 72.49461364746094 183.62918090820312 C 99.3671875 140.98046875 110.0768814086914 150.96054077148438 131.83224487304688 151.53030395507812" stroke-width="3.0" fill="none" stroke="rgb(0, 0, 0)" stroke-opacity="1.0" stroke-linecap="round" stroke-linejoin="round"/>
    <path d="M 83.38998413085938 32.880035400390625 C 99.48738861083984 72.88420867919922 79.59925842285156 28.57579803466797 73.90863800048828 68.00383758544922" stroke-width="3.0" fill="none" stroke="rgb(0, 0, 0)" stroke-opacity="1.0" stroke-linecap="round" stroke-linejoin="round"/>
    <path d="M 142.61965942382812 152.80819702148438 C 231.68617248535156 181.18521118164062 142.24876403808594 149.0009765625 148.4971160888672 182.44888305664062" stroke-width="3.0" fill="none" stroke="rgb(0, 0, 0)" stroke-opacity="1.0" stroke-linecap="round" stroke-linejoin="round"/>
    <path d="M 110.56375885009766 118.91729736328125 C 115.96467590332031 166.35476684570312 123.21239471435547 121.4388427734375 89.73941802978516 123.1440658569336" stroke-width="3.0" fill="none" stroke="rgb(0, 0, 0)" stroke-opacity="1.0" stroke-linecap="round" stroke-linejoin="round"/>
    <path d="M 176.36016845703125 56.61003494262695 C 169.376708984375 47.81482696533203 192.82371520996094 23.6741886138916 166.31533813476562 48.358951568603516" stroke-width="3.0" fill="none" stroke="rgb(0, 0, 0)" stroke-opacity="1.0" stroke-linecap="round" stroke-linejoin="round"/>
    <path d="M 92.18143463134766 56.021549224853516 C 89.15849304199219 61.4367790222168 85.62456512451172 40.01981735229492 58.07002258300781 113.64373779296875" stroke-width="3.0" fill="none" stroke="rgb(0, 0, 0)" stroke-opacity="1.0" stroke-linecap="round" stroke-linejoin="round"/>
  </g>
</svg>
