<?xml version="1.0" ?>
<svg xmlns="http://www.w3.org/2000/svg" version="1.1" width="224" height="224">
  <defs/>
  <g>
    <path d="M 134.72972106933594 113.0405502319336 C 194.4163055419922 106.41973114013672 180.7090301513672 111.5761489868164 178.51564025878906 110.3156509399414" stroke-width="3.0" fill="none" stroke="rgb(0, 0, 0)" stroke-opacity="1.0" stroke-linecap="round" stroke-linejoin="round"/>
    <path d="M 116.36502838134766 162.50152587890625 C 48.20579147338867 165.84738159179688 71.3032455444336 174.98593139648438 166.20298767089844 158.97166442871094" stroke-width="3.0" fill="none" stroke="rgb(0, 0, 0)" stroke-opacity="1.0" stroke-linecap="round" stroke-linejoin="round"/>
    <path d="M 165.44480895996094 153.55482482910156 C 150.2989959716797 153.610107421875 111.72010040283203 129.60577392578125 145.37359619140625 77.98971557617188" stroke-width="3.0" fill="none" stroke="rgb(0, 0, 0)" stroke-opacity="1.0" stroke-linecap="round" stroke-linejoin="round"/>
    <path d="M 149.13792419433594 141.71348571777344 C 181.16119384765625 97.82795715332031 154.39981079101562 118.92314147949219 192.82484436035156 121.70983123779297" stroke-width="3.0" fill="none" stroke="rgb(0, 0, 0)" stroke-opacity="1.0" stroke-linecap="round" stroke-linejoin="round"/>
    <path d="M 154.56748962402344 78.96017456054688 C 223.70729064941406 66.34121704101562 232.39553833007812 168.241455078125 150.19615173339844 152.6410675048828" stroke-width="3.0" fill="none" stroke="rgb(0, 0, 0)" stroke-opacity="1.0" stroke-linecap="round" stroke-linejoin="round"/>
    <path d="M 98.34880065917969 177.42677307128906 C 66.5510482788086 169.36915588378906 92.36116790771484 205.16842651367188 108.72102355957031 154.4320068359375" stroke-width="3.0" fill="none" stroke="rgb(0, 0, 0)" stroke-opacity="1.0" stroke-linecap="round" stroke-linejoin="round"/>
    <path d="M 99.65716552734375 110.83733367919922 C 141.6928253173828 121.08394622802734 77.54183197021484 99.3768081665039 106.53495788574219 126.40157318115234" stroke-width="3.0" fill="none" stroke="rgb(0, 0, 0)" stroke-opacity="1.0" stroke-linecap="round" stroke-linejoin="round"/>
    <path d="M 60.9881477355957 173.6358642578125 C 173.2633514404297 141.27218627929688 200.91380310058594 154.74822998046875 57.520957946777344 171.99461364746094" stroke-width="3.0" fill="none" stroke="rgb(0, 0, 0)" stroke-opacity="1.0" stroke-linecap="round" stroke-linejoin="round"/>
    <path d="M 183.1516876220703 182.82284545898438 C 149.6987762451172 236.23663330078125 125.63291931152344 159.40054321289062 147.10289001464844 184.4197998046875" stroke-width="3.0" fill="none" stroke="rgb(0, 0, 0)" stroke-opacity="1.0" stroke-linecap="round" stroke-linejoin="round"/>
    <path d="M 157.91961669921875 84.73225402832031 C 196.26441955566406 72.2375259399414 221.09060668945312 136.7222137451172 177.07864379882812 148.8610076904297" stroke-width="3.0" fill="none" stroke="rgb(0, 0, 0)" stroke-opacity="1.0" stroke-linecap="round" stroke-linejoin="round"/>
    <path d="M 184.6225128173828 185.68399047851562 C 186.23658752441406 152.40182495117188 171.9937286376953 235.2062530517578 182.19544982910156 171.0205841064453" stroke-width="3.0" fill="none" stroke="rgb(0, 0, 0)" stroke-opacity="1.0" stroke-linecap="round" stroke-linejoin="round"/>
    <path d="M 129.52378845214844 157.77369689941406 C 95.52214050292969 172.4499053955078 105.9448471069336 168.86793518066406 145.28982543945312 158.39942932128906" stroke-width="3.0" fill="none" stroke="rgb(0, 0, 0)" stroke-opacity="1.0" stroke-linecap="round" stroke-linejoin="round"/>
    <path d="M 158.5818634033203 146.43870544433594 C 172.24607849121094 101.28669738769531 165.1147003173828 79.06922149658203 171.56985473632812 147.77525329589844" stroke-width="3.0" fill="none" stroke="rgb(0, 0, 0)" stroke-opacity="1.0" stroke-linecap="round" stroke-linejoin="round"/>
    <path d="M 141.3784942626953 179.2069854736328 C 165.60643005371094 225.97723388671875 194.07864379882812 149.61660766601562 142.40757751464844 174.35784912109375" stroke-width="3.0" fill="none" stroke="rgb(0, 0, 0)" stroke-opacity="1.0" stroke-linecap="round" stroke-linejoin="round"/>
    <path d="M 88.9208984375 56.165199279785156 C 132.8529510498047 42.892704010009766 188.69232177734375 85.53527069091797 163.9569854736328 38.50002670288086" stroke-width="3.0" fill="none" stroke="rgb(0, 0, 0)" stroke-opacity="1.0" stroke-linecap="round" stroke-linejoin="round"/>
    <path d="M 66.83121490478516 27.42255210876465 C 81.35871887207031 27.104455947875977 80.2352294921875 29.263626098632812 106.9992904663086 112.27992248535156" stroke-width="3.0" fill="none" stroke="rgb(0, 0, 0)" stroke-opacity="1.0" stroke-linecap="round" stroke-linejoin="round"/>
    <path d="M 61.625038146972656 27.568878173828125 C 140.56019592285156 22.480958938598633 35.51400375366211 35.028873443603516 64.03730010986328 23.144289016723633" stroke-width="3.0" fill="none" stroke="rgb(0, 0, 0)" stroke-opacity="1.0" stroke-linecap="round" stroke-linejoin="round"/>
    <path d="M 63.742576599121094 182.13848876953125 C 210.53309631347656 202.24598693847656 136.472412109375 201.4420623779297 45.92938995361328 187.88259887695312" stroke-width="3.0" fill="none" stroke="rgb(0, 0, 0)" stroke-opacity="1.0" stroke-linecap="round" stroke-linejoin="round"/>
    <path d="M 138.6052703857422 189.22161865234375 C 145.99781799316406 133.40213012695312 218.06103515625 197.38670349121094 167.69088745117188 166.78285217285156" stroke-width="3.0" fill="none" stroke="rgb(0, 0, 0)" stroke-opacity="1.0" stroke-linecap="round" stroke-linejoin="round"/>
    <path d="M 47.05821990966797 184.80360412597656 C 170.0927734375 196.56649780273438 156.22268676757812 197.81951904296875 47.20567321777344 193.50390625" stroke-width="3.0" fill="none" stroke="rgb(0, 0, 0)" stroke-opacity="1.0" stroke-linecap="round" stroke-linejoin="round"/>
    <path d="M 52.41468048095703 182.54241943359375 C 199.21290588378906 189.54859924316406 155.09352111816406 169.6221160888672 65.37202453613281 171.7012939453125" stroke-width="3.0" fill="none" stroke="rgb(0, 0, 0)" stroke-opacity="1.0" stroke-linecap="round" stroke-linejoin="round"/>
    <path d="M 100.49623107910156 186.37493896484375 C 96.17808532714844 168.9318084716797 121.76411437988281 170.97230529785156 71.8123779296875 183.08779907226562" stroke-width="3.0" fill="none" stroke="rgb(0, 0, 0)" stroke-opacity="1.0" stroke-linecap="round" stroke-linejoin="round"/>
    <path d="M 187.62496948242188 91.42373657226562 C 188.59442138671875 99.24067687988281 166.26107788085938 67.35515594482422 176.96043395996094 108.56595611572266" stroke-width="3.0" fill="none" stroke="rgb(0, 0, 0)" stroke-opacity="1.0" stroke-linecap="round" stroke-linejoin="round"/>
    <path d="M 108.29228210449219 152.7627410888672 C 61.702667236328125 198.4214324951172 44.84794616699219 185.09056091308594 74.51801300048828 182.53074645996094" stroke-width="3.0" fill="none" stroke="rgb(0, 0, 0)" stroke-opacity="1.0" stroke-linecap="round" stroke-linejoin="round"/>
    <path d="M 67.59188079833984 93.04469299316406 C 81.11917114257812 57.494041442871094 68.12189483642578 36.877315521240234 167.89822387695312 50.70096206665039" stroke-width="3.0" fill="none" stroke="rgb(0, 0, 0)" stroke-opacity="1.0" stroke-linecap="round" stroke-linejoin="round"/>
    <path d="M 123.62738800048828 157.5269317626953 C 181.41616821289062 161.86416625976562 125.2643814086914 152.51812744140625 126.50395202636719 161.48904418945312" stroke-width="3.0" fill="none" stroke="rgb(0, 0, 0)" stroke-opacity="1.0" stroke-linecap="round" stroke-linejoin="round"/>
    <path d="M 156.36865234375 63.09249496459961 C 180.80323791503906 27.378358840942383 216.15853881835938 27.495834350585938 145.08543395996094 52.36375045776367" stroke-width="3.0" fill="none" stroke="rgb(0, 0, 0)" stroke-opacity="1.0" stroke-linecap="round" stroke-linejoin="round"/>
    <path d="M 50.586116790771484 184.53504943847656 C 56.90898895263672 188.264892578125 36.282562255859375 197.47747802734375 53.2120475769043 174.539306640625" stroke-width="3.0" fill="none" stroke="rgb(0, 0, 0)" stroke-opacity="1.0" stroke-linecap="round" stroke-linejoin="round"/>
    <path d="M 178.96485900878906 87.37542724609375 C 170.61709594726562 118.18302154541016 166.2751007080078 133.4405975341797 186.1988067626953 92.27494812011719" stroke-width="3.0" fill="none" stroke="rgb(0, 0, 0)" stroke-opacity="1.0" stroke-linecap="round" stroke-linejoin="round"/>
    <path d="M 148.0164794921875 42.90253448486328 C 113.4317855834961 110.74275207519531 95.3896255493164 154.20066833496094 105.14130401611328 118.81743621826172" stroke-width="3.0" fill="none" stroke="rgb(0, 0, 0)" stroke-opacity="1.0" stroke-linecap="round" stroke-linejoin="round"/>
    <path d="M 176.92523193359375 36.5369873046875 C 134.3790740966797 65.94815063476562 121.21470642089844 -0.8552671670913696 167.69918823242188 119.77381134033203" stroke-width="3.0" fill="none" stroke="rgb(0, 0, 0)" stroke-opacity="1.0" stroke-linecap="round" stroke-linejoin="round"/>
    <path d="M 54.182735443115234 176.5948944091797 C 110.3118896484375 159.97164916992188 92.98950958251953 170.6483154296875 51.02021789550781 181.64210510253906" stroke-width="3.0" fill="none" stroke="rgb(0, 0, 0)" stroke-opacity="1.0" stroke-linecap="round" stroke-linejoin="round"/>
    <path d="M 85.88497161865234 57.95940399169922 C 109.20800018310547 140.8683319091797 137.96714782714844 122.57846069335938 52.76614761352539 117.0418472290039" stroke-width="3.0" fill="none" stroke="rgb(0, 0, 0)" stroke-opacity="1.0" stroke-linecap="round" stroke-linejoin="round"/>
    <path d="M 183.7471923828125 142.15200805664062 C 167.35012817382812 111.38623046875 166.55606079101562 121.05014038085938 186.93626403808594 105.64327239990234" stroke-width="3.0" fill="none" stroke="rgb(0, 0, 0)" stroke-opacity="1.0" stroke-linecap="round" stroke-linejoin="round"/>
    <path d="M 80.68973541259766 28.570438385009766 C 81.29669189453125 41.51778030395508 30.294158935546875 13.351547241210938 89.02911376953125 26.046554565429688" stroke-width="3.0" fill="none" stroke="rgb(0, 0, 0)" stroke-opacity="1.0" stroke-linecap="round" stroke-linejoin="round"/>
    <path d="M 40.69423294067383 146.69822692871094 C 63.88774490356445 156.83273315429688 85.76447296142578 141.89031982421875 95.36966705322266 120.4878158569336" stroke-width="3.0" fill="none" stroke="rgb(0, 0, 0)" stroke-opacity="1.0" stroke-linecap="round" stroke-linejoin="round"/>
    <path d="M 169.0363311767578 112.88800811767578 C 120.39295196533203 128.1095733642578 120.08499145507812 127.27083587646484 168.53250122070312 117.13114166259766" stroke-width="3.0" fill="none" stroke="rgb(0, 0, 0)" stroke-opacity="1.0" stroke-linecap="round" stroke-linejoin="round"/>
    <path d="M 44.58644485473633 148.07293701171875 C 14.032445907592773 135.4307098388672 5.20731782913208 94.57312774658203 42.25026321411133 77.42424011230469" stroke-width="3.0" fill="none" stroke="rgb(0, 0, 0)" stroke-opacity="1.0" stroke-linecap="round" stroke-linejoin="round"/>
    <path d="M 182.75668334960938 182.6925506591797 C 166.612548828125 158.71282958984375 189.12307739257812 177.10836791992188 173.52090454101562 161.903076171875" stroke-width="3.0" fill="none" stroke="rgb(0, 0, 0)" stroke-opacity="1.0" stroke-linecap="round" stroke-linejoin="round"/>
    <path d="M 174.3748321533203 155.07565307617188 C 92.90216064453125 148.33668518066406 156.07241821289062 156.84446716308594 120.54914855957031 156.80462646484375" stroke-width="3.0" fill="none" stroke="rgb(0, 0, 0)" stroke-opacity="1.0" stroke-linecap="round" stroke-linejoin="round"/>
    <path d="M 30.024858474731445 83.10799407958984 C 91.33000183105469 45.32413864135742 106.37226867675781 137.48971557617188 95.22483825683594 116.03357696533203" stroke-width="3.0" fill="none" stroke="rgb(0, 0, 0)" stroke-opacity="1.0" stroke-linecap="round" stroke-linejoin="round"/>
    <path d="M 113.43122863769531 130.81106567382812 C 77.67353820800781 139.1050262451172 107.08755493164062 104.23977661132812 74.59708404541016 86.38843536376953" stroke-width="3.0" fill="none" stroke="rgb(0, 0, 0)" stroke-opacity="1.0" stroke-linecap="round" stroke-linejoin="round"/>
    <path d="M 53.84990692138672 186.96339416503906 C 97.83151245117188 145.38101196289062 115.85194396972656 146.9219512939453 147.13674926757812 154.06170654296875" stroke-width="3.0" fill="none" stroke="rgb(0, 0, 0)" stroke-opacity="1.0" stroke-linecap="round" stroke-linejoin="round"/>
    <path d="M 83.90110778808594 34.515159606933594 C 97.84972381591797 68.3324966430664 93.00636291503906 23.126075744628906 79.32624816894531 79.23900604248047" stroke-width="3.0" fill="none" stroke="rgb(0, 0, 0)" stroke-opacity="1.0" stroke-linecap="round" stroke-linejoin="round"/>
    <path d="M 142.6011199951172 151.95323181152344 C 227.2811279296875 179.52151489257812 139.39613342285156 147.3646240234375 147.87799072265625 187.3780059814453" stroke-width="3.0" fill="none" stroke="rgb(0, 0, 0)" stroke-opacity="1.0" stroke-linecap="round" stroke-linejoin="round"/>
    <path d="M 115.20487976074219 116.31795501708984 C 113.64053344726562 162.04571533203125 132.42112731933594 122.38117980957031 93.27214813232422 126.4230728149414" stroke-width="3.0" fill="none" stroke="rgb(0, 0, 0)" stroke-opacity="1.0" stroke-linecap="round" stroke-linejoin="round"/>
    <path d="M 174.4686279296875 51.05413818359375 C 170.64453125 50.44408416748047 191.23643493652344 9.510622024536133 160.98977661132812 55.82978439331055" stroke-width="3.0" fill="none" stroke="rgb(0, 0, 0)" stroke-opacity="1.0" stroke-linecap="round" stroke-linejoin="round"/>
    <path d="M 85.77788543701172 51.40940475463867 C 82.55847930908203 60.2700080871582 84.47989654541016 35.851444244384766 57.02241897583008 117.53639221191406" stroke-width="3.0" fill="none" stroke="rgb(0, 0, 0)" stroke-opacity="1.0" stroke-linecap="round" stroke-linejoin="round"/>
  </g>
</svg>
