<?xml version="1.0" ?>
<svg xmlns="http://www.w3.org/2000/svg" version="1.1" width="224" height="224">
  <defs/>
  <g>
    <path d="M 135.6732940673828 115.6624755859375 C 179.3179168701172 109.36710357666016 163.16534423828125 101.72002410888672 175.76808166503906 111.8173599243164" stroke-width="3.0" fill="none" stroke="rgb(0, 0, 0)" stroke-opacity="1.0" stroke-linecap="round" stroke-linejoin="round"/>
    <path d="M 96.08039093017578 159.13760375976562 C 49.20956802368164 186.53561401367188 66.92903900146484 182.39382934570312 160.48585510253906 155.5700225830078" stroke-width="3.0" fill="none" stroke="rgb(0, 0, 0)" stroke-opacity="1.0" stroke-linecap="round" stroke-linejoin="round"/>
    <path d="M 148.3690948486328 147.72396850585938 C 153.14205932617188 151.5373992919922 104.67300415039062 123.3716049194336 145.1645050048828 81.73977661132812" stroke-width="3.0" fill="none" stroke="rgb(0, 0, 0)" stroke-opacity="1.0" stroke-linecap="round" stroke-linejoin="round"/>
    <path d="M 154.53599548339844 145.14761352539062 C 177.66949462890625 94.2940673828125 157.31756591796875 108.9314956665039 191.5061492919922 130.10092163085938" stroke-width="3.0" fill="none" stroke="rgb(0, 0, 0)" stroke-opacity="1.0" stroke-linecap="round" stroke-linejoin="round"/>
    <path d="M 152.54457092285156 77.04550170898438 C 228.4331817626953 67.5790786743164 225.4347686767578 166.67019653320312 159.46224975585938 156.5802459716797" stroke-width="3.0" fill="none" stroke="rgb(0, 0, 0)" stroke-opacity="1.0" stroke-linecap="round" stroke-linejoin="round"/>
    <path d="M 87.4364242553711 175.19842529296875 C 86.38418579101562 168.5267333984375 90.05884552001953 197.2577667236328 107.54907989501953 156.2639923095703" stroke-width="3.0" fill="none" stroke="rgb(0, 0, 0)" stroke-opacity="1.0" stroke-linecap="round" stroke-linejoin="round"/>
    <path d="M 96.59593963623047 121.29226684570312 C 141.5065460205078 117.64810943603516 85.91938781738281 96.07194519042969 105.9189682006836 128.80137634277344" stroke-width="3.0" fill="none" stroke="rgb(0, 0, 0)" stroke-opacity="1.0" stroke-linecap="round" stroke-linejoin="round"/>
    <path d="M 56.29170608520508 190.00144958496094 C 234.52676391601562 178.78854370117188 214.04034423828125 166.8434600830078 52.57405471801758 183.2124481201172" stroke-width="3.0" fill="none" stroke="rgb(0, 0, 0)" stroke-opacity="1.0" stroke-linecap="round" stroke-linejoin="round"/>
    <path d="M 177.25189208984375 176.6778564453125 C 169.95680236816406 231.64480590820312 124.8707046508789 163.71824645996094 151.1058349609375 194.16876220703125" stroke-width="3.0" fill="none" stroke="rgb(0, 0, 0)" stroke-opacity="1.0" stroke-linecap="round" stroke-linejoin="round"/>
    <path d="M 157.9213104248047 86.48422241210938 C 197.532958984375 72.6126937866211 220.72476196289062 125.01669311523438 178.1542510986328 151.0844268798828" stroke-width="3.0" fill="none" stroke="rgb(0, 0, 0)" stroke-opacity="1.0" stroke-linecap="round" stroke-linejoin="round"/>
    <path d="M 181.51219177246094 187.79257202148438 C 183.33984375 156.1513214111328 186.14266967773438 198.88548278808594 171.6683349609375 182.86375427246094" stroke-width="3.0" fill="none" stroke="rgb(0, 0, 0)" stroke-opacity="1.0" stroke-linecap="round" stroke-linejoin="round"/>
    <path d="M 137.85891723632812 161.63768005371094 C 110.63590240478516 166.02810668945312 129.74476623535156 159.20883178710938 141.5722198486328 155.9646759033203" stroke-width="3.0" fill="none" stroke="rgb(0, 0, 0)" stroke-opacity="1.0" stroke-linecap="round" stroke-linejoin="round"/>
    <path d="M 166.04698181152344 149.4278564453125 C 170.39166259765625 112.28752136230469 165.36708068847656 91.42176818847656 173.91575622558594 147.83270263671875" stroke-width="3.0" fill="none" stroke="rgb(0, 0, 0)" stroke-opacity="1.0" stroke-linecap="round" stroke-linejoin="round"/>
    <path d="M 152.28131103515625 174.51480102539062 C 153.26661682128906 208.1579132080078 183.48715209960938 164.97618103027344 155.1473846435547 173.76983642578125" stroke-width="3.0" fill="none" stroke="rgb(0, 0, 0)" stroke-opacity="1.0" stroke-linecap="round" stroke-linejoin="round"/>
    <path d="M 87.1540756225586 57.33717727661133 C 121.56544494628906 37.85293197631836 192.8586883544922 86.62871551513672 160.68292236328125 42.00273895263672" stroke-width="3.0" fill="none" stroke="rgb(0, 0, 0)" stroke-opacity="1.0" stroke-linecap="round" stroke-linejoin="round"/>
    <path d="M 63.34324645996094 25.370180130004883 C 83.70562744140625 24.412599563598633 77.51895141601562 24.448143005371094 100.65593719482422 108.67333221435547" stroke-width="3.0" fill="none" stroke="rgb(0, 0, 0)" stroke-opacity="1.0" stroke-linecap="round" stroke-linejoin="round"/>
    <path d="M 61.60542678833008 23.70988655090332 C 123.38636016845703 26.835294723510742 55.00666046142578 31.79315757751465 60.601741790771484 25.146923065185547" stroke-width="3.0" fill="none" stroke="rgb(0, 0, 0)" stroke-opacity="1.0" stroke-linecap="round" stroke-linejoin="round"/>
    <path d="M 45.106510162353516 194.2466278076172 C 174.9936981201172 190.68524169921875 112.3790512084961 192.2334442138672 63.827423095703125 191.46823120117188" stroke-width="3.0" fill="none" stroke="rgb(0, 0, 0)" stroke-opacity="1.0" stroke-linecap="round" stroke-linejoin="round"/>
    <path d="M 140.8101043701172 184.61663818359375 C 146.2579345703125 136.80447387695312 197.42144775390625 185.83921813964844 175.80372619628906 164.43870544433594" stroke-width="3.0" fill="none" stroke="rgb(0, 0, 0)" stroke-opacity="1.0" stroke-linecap="round" stroke-linejoin="round"/>
    <path d="M 52.73799514770508 188.5184326171875 C 126.31175231933594 181.8647918701172 113.60186004638672 164.91246032714844 55.853057861328125 173.6026611328125" stroke-width="3.0" fill="none" stroke="rgb(0, 0, 0)" stroke-opacity="1.0" stroke-linecap="round" stroke-linejoin="round"/>
    <path d="M 51.27211380004883 185.88609313964844 C 130.18898010253906 181.8463897705078 109.22756958007812 168.5726776123047 54.49287414550781 179.80413818359375" stroke-width="3.0" fill="none" stroke="rgb(0, 0, 0)" stroke-opacity="1.0" stroke-linecap="round" stroke-linejoin="round"/>
    <path d="M 99.36831665039062 192.15478515625 C 102.52029418945312 175.50350952148438 118.57990264892578 174.2045440673828 73.55636596679688 182.83409118652344" stroke-width="3.0" fill="none" stroke="rgb(0, 0, 0)" stroke-opacity="1.0" stroke-linecap="round" stroke-linejoin="round"/>
    <path d="M 183.36416625976562 89.58707427978516 C 182.87916564941406 103.51399230957031 195.1063690185547 67.26246643066406 182.28585815429688 118.30036163330078" stroke-width="3.0" fill="none" stroke="rgb(0, 0, 0)" stroke-opacity="1.0" stroke-linecap="round" stroke-linejoin="round"/>
    <path d="M 99.52710723876953 170.59808349609375 C 43.7200813293457 185.35360717773438 52.19279861450195 191.10606384277344 58.011207580566406 174.58172607421875" stroke-width="3.0" fill="none" stroke="rgb(0, 0, 0)" stroke-opacity="1.0" stroke-linecap="round" stroke-linejoin="round"/>
    <path d="M 71.2435531616211 73.96586608886719 C 83.94037628173828 61.81950378417969 59.71323013305664 36.646724700927734 164.34295654296875 51.747867584228516" stroke-width="3.0" fill="none" stroke="rgb(0, 0, 0)" stroke-opacity="1.0" stroke-linecap="round" stroke-linejoin="round"/>
    <path d="M 124.4283218383789 156.4335479736328 C 151.24244689941406 156.33145141601562 121.51058959960938 143.4610137939453 122.51660919189453 162.47593688964844" stroke-width="3.0" fill="none" stroke="rgb(0, 0, 0)" stroke-opacity="1.0" stroke-linecap="round" stroke-linejoin="round"/>
    <path d="M 161.41781616210938 59.81034469604492 C 170.51287841796875 26.042926788330078 221.81842041015625 28.68758201599121 141.78517150878906 49.89363479614258" stroke-width="3.0" fill="none" stroke="rgb(0, 0, 0)" stroke-opacity="1.0" stroke-linecap="round" stroke-linejoin="round"/>
    <path d="M 57.85588073730469 177.69351196289062 C 52.066383361816406 185.38714599609375 35.67832946777344 199.35597229003906 53.80876922607422 176.5205841064453" stroke-width="3.0" fill="none" stroke="rgb(0, 0, 0)" stroke-opacity="1.0" stroke-linecap="round" stroke-linejoin="round"/>
    <path d="M 182.26290893554688 93.94429016113281 C 173.404052734375 120.24791717529297 173.69699096679688 125.27104187011719 174.21090698242188 86.97704315185547" stroke-width="3.0" fill="none" stroke="rgb(0, 0, 0)" stroke-opacity="1.0" stroke-linecap="round" stroke-linejoin="round"/>
    <path d="M 140.97543334960938 57.97134017944336 C 113.33297729492188 105.28666687011719 97.19285583496094 157.3611602783203 111.97576141357422 118.4809341430664" stroke-width="3.0" fill="none" stroke="rgb(0, 0, 0)" stroke-opacity="1.0" stroke-linecap="round" stroke-linejoin="round"/>
    <path d="M 168.41514587402344 37.78667449951172 C 164.42013549804688 69.51471710205078 119.50167846679688 -6.594972133636475 166.40969848632812 117.22232055664062" stroke-width="3.0" fill="none" stroke="rgb(0, 0, 0)" stroke-opacity="1.0" stroke-linecap="round" stroke-linejoin="round"/>
    <path d="M 49.42151641845703 189.72573852539062 C 114.46573638916016 186.38046264648438 134.59690856933594 193.7772216796875 53.670467376708984 179.2281494140625" stroke-width="3.0" fill="none" stroke="rgb(0, 0, 0)" stroke-opacity="1.0" stroke-linecap="round" stroke-linejoin="round"/>
    <path d="M 90.55848693847656 57.210262298583984 C 115.22472381591797 146.68130493164062 129.53436279296875 127.82796478271484 53.6675910949707 116.0788345336914" stroke-width="3.0" fill="none" stroke="rgb(0, 0, 0)" stroke-opacity="1.0" stroke-linecap="round" stroke-linejoin="round"/>
    <path d="M 182.6808624267578 142.29141235351562 C 165.49205017089844 105.4483413696289 172.25782775878906 125.6378173828125 192.04287719726562 101.92086791992188" stroke-width="3.0" fill="none" stroke="rgb(0, 0, 0)" stroke-opacity="1.0" stroke-linecap="round" stroke-linejoin="round"/>
    <path d="M 81.42427062988281 29.508543014526367 C 66.01593780517578 37.51884078979492 61.08754348754883 15.407829284667969 80.8901596069336 32.05873489379883" stroke-width="3.0" fill="none" stroke="rgb(0, 0, 0)" stroke-opacity="1.0" stroke-linecap="round" stroke-linejoin="round"/>
    <path d="M 41.717655181884766 147.97177124023438 C 61.38411331176758 157.52809143066406 88.52655029296875 142.908935546875 91.74384307861328 112.99436950683594" stroke-width="3.0" fill="none" stroke="rgb(0, 0, 0)" stroke-opacity="1.0" stroke-linecap="round" stroke-linejoin="round"/>
    <path d="M 166.73448181152344 114.19094848632812 C 129.18199157714844 143.2418670654297 143.69326782226562 134.92234802246094 142.59266662597656 133.8921661376953" stroke-width="3.0" fill="none" stroke="rgb(0, 0, 0)" stroke-opacity="1.0" stroke-linecap="round" stroke-linejoin="round"/>
    <path d="M 48.67440414428711 150.68270874023438 C 15.131021499633789 139.80661010742188 4.199118614196777 97.31150817871094 43.069461822509766 77.08467864990234" stroke-width="3.0" fill="none" stroke="rgb(0, 0, 0)" stroke-opacity="1.0" stroke-linecap="round" stroke-linejoin="round"/>
    <path d="M 180.7869415283203 182.09091186523438 C 164.8325958251953 198.8734130859375 189.8495330810547 180.31512451171875 169.28086853027344 157.76608276367188" stroke-width="3.0" fill="none" stroke="rgb(0, 0, 0)" stroke-opacity="1.0" stroke-linecap="round" stroke-linejoin="round"/>
    <path d="M 169.29290771484375 156.87046813964844 C 89.4417724609375 149.14459228515625 181.04696655273438 156.2415313720703 126.12965393066406 159.99961853027344" stroke-width="3.0" fill="none" stroke="rgb(0, 0, 0)" stroke-opacity="1.0" stroke-linecap="round" stroke-linejoin="round"/>
    <path d="M 31.03510093688965 81.77372741699219 C 95.47771453857422 40.66502380371094 125.38641357421875 144.14907836914062 84.57067108154297 119.13983154296875" stroke-width="3.0" fill="none" stroke="rgb(0, 0, 0)" stroke-opacity="1.0" stroke-linecap="round" stroke-linejoin="round"/>
    <path d="M 113.69157409667969 121.68502807617188 C 91.31167602539062 153.28965759277344 98.07515716552734 100.46299743652344 72.1047134399414 82.76235961914062" stroke-width="3.0" fill="none" stroke="rgb(0, 0, 0)" stroke-opacity="1.0" stroke-linecap="round" stroke-linejoin="round"/>
    <path d="M 71.86824798583984 181.23826599121094 C 103.29541778564453 144.94296264648438 122.53475189208984 152.82623291015625 139.974365234375 150.9769287109375" stroke-width="3.0" fill="none" stroke="rgb(0, 0, 0)" stroke-opacity="1.0" stroke-linecap="round" stroke-linejoin="round"/>
    <path d="M 84.72543334960938 34.9738883972168 C 92.4495620727539 62.56740188598633 91.36389923095703 29.019695281982422 74.85855102539062 68.23494720458984" stroke-width="3.0" fill="none" stroke="rgb(0, 0, 0)" stroke-opacity="1.0" stroke-linecap="round" stroke-linejoin="round"/>
    <path d="M 144.7727508544922 146.85971069335938 C 209.88414001464844 174.64122009277344 143.9418182373047 157.6674346923828 153.7086944580078 184.75148010253906" stroke-width="3.0" fill="none" stroke="rgb(0, 0, 0)" stroke-opacity="1.0" stroke-linecap="round" stroke-linejoin="round"/>
    <path d="M 110.07846069335938 111.44744110107422 C 121.41389465332031 166.65420532226562 122.25639343261719 121.62016296386719 107.81270599365234 128.099853515625" stroke-width="3.0" fill="none" stroke="rgb(0, 0, 0)" stroke-opacity="1.0" stroke-linecap="round" stroke-linejoin="round"/>
    <path d="M 175.80560302734375 55.717010498046875 C 170.4016571044922 43.840858459472656 188.51019287109375 36.90888214111328 169.09303283691406 47.05893325805664" stroke-width="3.0" fill="none" stroke="rgb(0, 0, 0)" stroke-opacity="1.0" stroke-linecap="round" stroke-linejoin="round"/>
    <path d="M 92.16763305664062 56.266048431396484 C 80.85852813720703 66.95223236083984 87.830078125 45.44588851928711 57.88489532470703 112.54051208496094" stroke-width="3.0" fill="none" stroke="rgb(0, 0, 0)" stroke-opacity="1.0" stroke-linecap="round" stroke-linejoin="round"/>
  </g>
</svg>
