<?xml version="1.0" ?>
<svg xmlns="http://www.w3.org/2000/svg" version="1.1" width="224" height="224">
  <defs/>
  <g>
    <path d="M 134.89932250976562 106.87728881835938 C 159.17642211914062 113.82217407226562 160.31517028808594 109.22990417480469 171.51583862304688 116.2227554321289" stroke-width="3.0" fill="none" stroke="rgb(0, 0, 0)" stroke-opacity="1.0" stroke-linecap="round" stroke-linejoin="round"/>
    <path d="M 103.08676147460938 154.2801513671875 C 58.25393295288086 176.97361755371094 76.52310180664062 179.0618896484375 153.32762145996094 152.5499725341797" stroke-width="3.0" fill="none" stroke="rgb(0, 0, 0)" stroke-opacity="1.0" stroke-linecap="round" stroke-linejoin="round"/>
    <path d="M 148.484375 141.1100616455078 C 157.43617248535156 146.71311950683594 109.10139465332031 128.0345916748047 147.90895080566406 86.0179214477539" stroke-width="3.0" fill="none" stroke="rgb(0, 0, 0)" stroke-opacity="1.0" stroke-linecap="round" stroke-linejoin="round"/>
    <path d="M 148.9336700439453 139.62826538085938 C 175.30857849121094 106.62789916992188 169.52786254882812 118.22138214111328 191.0892791748047 130.07644653320312" stroke-width="3.0" fill="none" stroke="rgb(0, 0, 0)" stroke-opacity="1.0" stroke-linecap="round" stroke-linejoin="round"/>
    <path d="M 173.94920349121094 76.36637115478516 C 226.83949279785156 85.89557647705078 218.0900421142578 161.42941284179688 160.91165161132812 152.221923828125" stroke-width="3.0" fill="none" stroke="rgb(0, 0, 0)" stroke-opacity="1.0" stroke-linecap="round" stroke-linejoin="round"/>
    <path d="M 88.71011352539062 175.85939025878906 C 107.31983947753906 165.36428833007812 95.23064422607422 185.0885467529297 107.17679595947266 154.70950317382812" stroke-width="3.0" fill="none" stroke="rgb(0, 0, 0)" stroke-opacity="1.0" stroke-linecap="round" stroke-linejoin="round"/>
    <path d="M 91.0539321899414 119.68246459960938 C 135.87841796875 127.94355773925781 102.13645935058594 92.6430435180664 113.67790222167969 130.22967529296875" stroke-width="3.0" fill="none" stroke="rgb(0, 0, 0)" stroke-opacity="1.0" stroke-linecap="round" stroke-linejoin="round"/>
    <path d="M 87.58354187011719 192.6315155029297 C 167.18853759765625 191.73361206054688 138.41748046875 187.62184143066406 49.61982345581055 188.89797973632812" stroke-width="3.0" fill="none" stroke="rgb(0, 0, 0)" stroke-opacity="1.0" stroke-linecap="round" stroke-linejoin="round"/>
    <path d="M 179.86532592773438 183.0668182373047 C 162.9249267578125 219.64334106445312 125.87106323242188 180.20591735839844 161.48336791992188 171.6493377685547" stroke-width="3.0" fill="none" stroke="rgb(0, 0, 0)" stroke-opacity="1.0" stroke-linecap="round" stroke-linejoin="round"/>
    <path d="M 156.2520751953125 82.90798950195312 C 199.03402709960938 76.56294250488281 220.188720703125 126.94686889648438 182.3182830810547 147.9115753173828" stroke-width="3.0" fill="none" stroke="rgb(0, 0, 0)" stroke-opacity="1.0" stroke-linecap="round" stroke-linejoin="round"/>
    <path d="M 183.74038696289062 186.49981689453125 C 180.6416778564453 163.63412475585938 172.631103515625 199.7693634033203 181.6900634765625 182.09735107421875" stroke-width="3.0" fill="none" stroke="rgb(0, 0, 0)" stroke-opacity="1.0" stroke-linecap="round" stroke-linejoin="round"/>
    <path d="M 138.0199737548828 149.6040496826172 C 123.99734497070312 149.05868530273438 134.39889526367188 150.36685180664062 133.27085876464844 149.90016174316406" stroke-width="3.0" fill="none" stroke="rgb(0, 0, 0)" stroke-opacity="1.0" stroke-linecap="round" stroke-linejoin="round"/>
    <path d="M 161.57571411132812 144.7122039794922 C 170.3904266357422 118.0417251586914 168.52703857421875 104.33971405029297 176.06011962890625 145.30770874023438" stroke-width="3.0" fill="none" stroke="rgb(0, 0, 0)" stroke-opacity="1.0" stroke-linecap="round" stroke-linejoin="round"/>
    <path d="M 147.92601013183594 182.44973754882812 C 165.0025634765625 214.7134552001953 186.54542541503906 167.0070037841797 154.60653686523438 172.9338836669922" stroke-width="3.0" fill="none" stroke="rgb(0, 0, 0)" stroke-opacity="1.0" stroke-linecap="round" stroke-linejoin="round"/>
    <path d="M 84.82169342041016 56.41715621948242 C 136.79603576660156 40.58952713012695 183.99720764160156 92.83920288085938 163.59339904785156 41.52302932739258" stroke-width="3.0" fill="none" stroke="rgb(0, 0, 0)" stroke-opacity="1.0" stroke-linecap="round" stroke-linejoin="round"/>
    <path d="M 65.47884368896484 30.13747787475586 C 75.58969116210938 18.063751220703125 77.12015533447266 28.045055389404297 105.24749755859375 113.1525650024414" stroke-width="3.0" fill="none" stroke="rgb(0, 0, 0)" stroke-opacity="1.0" stroke-linecap="round" stroke-linejoin="round"/>
    <path d="M 62.14394760131836 25.7032527923584 C 115.90979766845703 24.201461791992188 77.67497253417969 32.15815734863281 62.99633026123047 26.740337371826172" stroke-width="3.0" fill="none" stroke="rgb(0, 0, 0)" stroke-opacity="1.0" stroke-linecap="round" stroke-linejoin="round"/>
    <path d="M 43.85021209716797 192.62896728515625 C 131.90260314941406 193.75253295898438 87.24143981933594 181.5142364501953 50.45092010498047 179.66424560546875" stroke-width="3.0" fill="none" stroke="rgb(0, 0, 0)" stroke-opacity="1.0" stroke-linecap="round" stroke-linejoin="round"/>
    <path d="M 141.8040771484375 186.91983032226562 C 149.5640869140625 137.4639434814453 208.1071014404297 185.73960876464844 165.19970703125 167.35226440429688" stroke-width="3.0" fill="none" stroke="rgb(0, 0, 0)" stroke-opacity="1.0" stroke-linecap="round" stroke-linejoin="round"/>
    <path d="M 57.968902587890625 188.1809539794922 C 122.55606079101562 178.86660766601562 116.83190155029297 181.9474639892578 52.47056579589844 177.3357391357422" stroke-width="3.0" fill="none" stroke="rgb(0, 0, 0)" stroke-opacity="1.0" stroke-linecap="round" stroke-linejoin="round"/>
    <path d="M 56.08009338378906 185.09555053710938 C 118.0755844116211 167.23915100097656 110.98003387451172 177.91232299804688 46.60087203979492 188.06581115722656" stroke-width="3.0" fill="none" stroke="rgb(0, 0, 0)" stroke-opacity="1.0" stroke-linecap="round" stroke-linejoin="round"/>
    <path d="M 102.98179626464844 189.36256408691406 C 98.26519012451172 165.5099639892578 104.53912353515625 165.7175750732422 79.83396911621094 185.91539001464844" stroke-width="3.0" fill="none" stroke="rgb(0, 0, 0)" stroke-opacity="1.0" stroke-linecap="round" stroke-linejoin="round"/>
    <path d="M 177.71473693847656 85.69929504394531 C 176.1697998046875 107.37400817871094 178.73562622070312 57.976436614990234 173.27818298339844 109.27672576904297" stroke-width="3.0" fill="none" stroke="rgb(0, 0, 0)" stroke-opacity="1.0" stroke-linecap="round" stroke-linejoin="round"/>
    <path d="M 101.65693664550781 172.6564178466797 C 31.599117279052734 176.5100555419922 53.310855865478516 176.07640075683594 70.70179748535156 178.39686584472656" stroke-width="3.0" fill="none" stroke="rgb(0, 0, 0)" stroke-opacity="1.0" stroke-linecap="round" stroke-linejoin="round"/>
    <path d="M 70.15564727783203 69.40545654296875 C 77.86923217773438 61.605934143066406 58.573028564453125 40.62474822998047 147.12490844726562 48.12669372558594" stroke-width="3.0" fill="none" stroke="rgb(0, 0, 0)" stroke-opacity="1.0" stroke-linecap="round" stroke-linejoin="round"/>
    <path d="M 131.39906311035156 150.47108459472656 C 160.8401336669922 144.22354125976562 125.71966552734375 140.8483428955078 125.51396179199219 159.76834106445312" stroke-width="3.0" fill="none" stroke="rgb(0, 0, 0)" stroke-opacity="1.0" stroke-linecap="round" stroke-linejoin="round"/>
    <path d="M 157.16574096679688 57.57317352294922 C 164.14210510253906 34.467262268066406 218.23931884765625 43.26187515258789 138.920654296875 45.32942581176758" stroke-width="3.0" fill="none" stroke="rgb(0, 0, 0)" stroke-opacity="1.0" stroke-linecap="round" stroke-linejoin="round"/>
    <path d="M 53.32967758178711 177.04420471191406 C 44.28143310546875 180.43399047851562 41.92593765258789 207.0071563720703 54.57068634033203 179.72418212890625" stroke-width="3.0" fill="none" stroke="rgb(0, 0, 0)" stroke-opacity="1.0" stroke-linecap="round" stroke-linejoin="round"/>
    <path d="M 183.08773803710938 104.16423034667969 C 166.0367889404297 125.21002197265625 165.22357177734375 122.78131866455078 184.57418823242188 93.33819580078125" stroke-width="3.0" fill="none" stroke="rgb(0, 0, 0)" stroke-opacity="1.0" stroke-linecap="round" stroke-linejoin="round"/>
    <path d="M 142.12045288085938 55.73261260986328 C 115.57728576660156 98.86991882324219 97.67707061767578 146.14584350585938 112.3153305053711 114.4498062133789" stroke-width="3.0" fill="none" stroke="rgb(0, 0, 0)" stroke-opacity="1.0" stroke-linecap="round" stroke-linejoin="round"/>
    <path d="M 174.0086212158203 39.880008697509766 C 155.1057891845703 73.12910461425781 123.07902526855469 9.705391883850098 166.66751098632812 123.86377716064453" stroke-width="3.0" fill="none" stroke="rgb(0, 0, 0)" stroke-opacity="1.0" stroke-linecap="round" stroke-linejoin="round"/>
    <path d="M 64.30065155029297 178.66612243652344 C 102.36092376708984 180.56822204589844 132.55294799804688 186.37742614746094 51.588401794433594 184.51800537109375" stroke-width="3.0" fill="none" stroke="rgb(0, 0, 0)" stroke-opacity="1.0" stroke-linecap="round" stroke-linejoin="round"/>
    <path d="M 90.61004638671875 57.3238410949707 C 115.1290054321289 147.2829132080078 129.4945831298828 135.88645935058594 54.397911071777344 117.23120880126953" stroke-width="3.0" fill="none" stroke="rgb(0, 0, 0)" stroke-opacity="1.0" stroke-linecap="round" stroke-linejoin="round"/>
    <path d="M 184.62648010253906 139.70391845703125 C 162.9918975830078 108.1387710571289 173.19215393066406 103.77924346923828 176.25299072265625 118.317138671875" stroke-width="3.0" fill="none" stroke="rgb(0, 0, 0)" stroke-opacity="1.0" stroke-linecap="round" stroke-linejoin="round"/>
    <path d="M 84.2751693725586 31.11224365234375 C 27.753787994384766 34.634605407714844 62.57683563232422 27.090686798095703 78.9170913696289 36.27022171020508" stroke-width="3.0" fill="none" stroke="rgb(0, 0, 0)" stroke-opacity="1.0" stroke-linecap="round" stroke-linejoin="round"/>
    <path d="M 42.497066497802734 147.65704345703125 C 58.592567443847656 155.29324340820312 86.16083526611328 142.62355041503906 92.08966827392578 120.70067596435547" stroke-width="3.0" fill="none" stroke="rgb(0, 0, 0)" stroke-opacity="1.0" stroke-linecap="round" stroke-linejoin="round"/>
    <path d="M 164.49069213867188 117.9820556640625 C 117.68029022216797 137.2492218017578 141.94638061523438 126.57659912109375 139.91856384277344 136.40882873535156" stroke-width="3.0" fill="none" stroke="rgb(0, 0, 0)" stroke-opacity="1.0" stroke-linecap="round" stroke-linejoin="round"/>
    <path d="M 45.24872970581055 148.99703979492188 C 18.568391799926758 142.71563720703125 0.6883739829063416 100.91106414794922 40.27599334716797 77.28038787841797" stroke-width="3.0" fill="none" stroke="rgb(0, 0, 0)" stroke-opacity="1.0" stroke-linecap="round" stroke-linejoin="round"/>
    <path d="M 177.01031494140625 187.78329467773438 C 172.95741271972656 186.3083038330078 193.69400024414062 194.81741333007812 172.5632781982422 165.27516174316406" stroke-width="3.0" fill="none" stroke="rgb(0, 0, 0)" stroke-opacity="1.0" stroke-linecap="round" stroke-linejoin="round"/>
    <path d="M 170.40191650390625 155.79232788085938 C 98.52006530761719 135.8299560546875 174.57595825195312 159.0268096923828 129.90684509277344 153.35264587402344" stroke-width="3.0" fill="none" stroke="rgb(0, 0, 0)" stroke-opacity="1.0" stroke-linecap="round" stroke-linejoin="round"/>
    <path d="M 30.93169403076172 82.06462097167969 C 84.38716888427734 48.537933349609375 105.9564208984375 129.85418701171875 92.93897247314453 115.2154541015625" stroke-width="3.0" fill="none" stroke="rgb(0, 0, 0)" stroke-opacity="1.0" stroke-linecap="round" stroke-linejoin="round"/>
    <path d="M 112.72335052490234 114.47813415527344 C 97.60118865966797 142.4746551513672 103.2103271484375 108.00647735595703 75.32498168945312 83.67435455322266" stroke-width="3.0" fill="none" stroke="rgb(0, 0, 0)" stroke-opacity="1.0" stroke-linecap="round" stroke-linejoin="round"/>
    <path d="M 74.35941314697266 175.733642578125 C 102.2319564819336 143.57562255859375 130.77761840820312 155.07862854003906 147.53480529785156 148.48277282714844" stroke-width="3.0" fill="none" stroke="rgb(0, 0, 0)" stroke-opacity="1.0" stroke-linecap="round" stroke-linejoin="round"/>
    <path d="M 82.66226196289062 31.783174514770508 C 92.59225463867188 65.08892822265625 99.96758270263672 38.134063720703125 75.28374481201172 69.90460968017578" stroke-width="3.0" fill="none" stroke="rgb(0, 0, 0)" stroke-opacity="1.0" stroke-linecap="round" stroke-linejoin="round"/>
    <path d="M 129.95542907714844 152.57180786132812 C 204.62953186035156 156.18899536132812 132.67288208007812 144.73681640625 136.53323364257812 189.79722595214844" stroke-width="3.0" fill="none" stroke="rgb(0, 0, 0)" stroke-opacity="1.0" stroke-linecap="round" stroke-linejoin="round"/>
    <path d="M 107.24855041503906 121.1029052734375 C 121.29106903076172 155.72169494628906 125.72811889648438 118.38683319091797 99.3770751953125 125.30635070800781" stroke-width="3.0" fill="none" stroke="rgb(0, 0, 0)" stroke-opacity="1.0" stroke-linecap="round" stroke-linejoin="round"/>
    <path d="M 177.43814086914062 53.275081634521484 C 169.42095947265625 45.576698303222656 194.51683044433594 30.538429260253906 174.1451416015625 40.75857162475586" stroke-width="3.0" fill="none" stroke="rgb(0, 0, 0)" stroke-opacity="1.0" stroke-linecap="round" stroke-linejoin="round"/>
    <path d="M 96.631103515625 49.17367935180664 C 73.65583038330078 59.74896240234375 89.4160385131836 39.740840911865234 57.531982421875 111.62639617919922" stroke-width="3.0" fill="none" stroke="rgb(0, 0, 0)" stroke-opacity="1.0" stroke-linecap="round" stroke-linejoin="round"/>
  </g>
</svg>
