<?xml version="1.0" ?>
<svg xmlns="http://www.w3.org/2000/svg" version="1.1" width="224" height="224">
  <defs/>
  <g>
    <path d="M 135.0502166748047 117.32227325439453 C 195.944580078125 107.23778533935547 181.02719116210938 105.84902954101562 183.53164672851562 113.0674057006836" stroke-width="3.0" fill="none" stroke="rgb(0, 0, 0)" stroke-opacity="1.0" stroke-linecap="round" stroke-linejoin="round"/>
    <path d="M 119.80473327636719 166.5105743408203 C 50.55550765991211 171.15771484375 73.72843170166016 178.1148681640625 164.16830444335938 158.84498596191406" stroke-width="3.0" fill="none" stroke="rgb(0, 0, 0)" stroke-opacity="1.0" stroke-linecap="round" stroke-linejoin="round"/>
    <path d="M 168.0896759033203 150.23007202148438 C 150.43807983398438 153.9233856201172 111.90230560302734 126.50466918945312 146.17459106445312 82.89283752441406" stroke-width="3.0" fill="none" stroke="rgb(0, 0, 0)" stroke-opacity="1.0" stroke-linecap="round" stroke-linejoin="round"/>
    <path d="M 149.2757568359375 139.44317626953125 C 179.14805603027344 98.82443237304688 153.35350036621094 119.41121673583984 192.35281372070312 126.54422760009766" stroke-width="3.0" fill="none" stroke="rgb(0, 0, 0)" stroke-opacity="1.0" stroke-linecap="round" stroke-linejoin="round"/>
    <path d="M 154.48817443847656 76.76811218261719 C 224.94593811035156 66.2555160522461 231.0640411376953 170.3987579345703 148.97828674316406 158.19366455078125" stroke-width="3.0" fill="none" stroke="rgb(0, 0, 0)" stroke-opacity="1.0" stroke-linecap="round" stroke-linejoin="round"/>
    <path d="M 95.29463958740234 180.828369140625 C 56.06760787963867 166.74002075195312 92.07936096191406 202.43910217285156 108.01033020019531 153.97653198242188" stroke-width="3.0" fill="none" stroke="rgb(0, 0, 0)" stroke-opacity="1.0" stroke-linecap="round" stroke-linejoin="round"/>
    <path d="M 99.28421020507812 117.46951293945312 C 141.19479370117188 123.66867065429688 78.41720581054688 102.46173858642578 107.41251373291016 125.505615234375" stroke-width="3.0" fill="none" stroke="rgb(0, 0, 0)" stroke-opacity="1.0" stroke-linecap="round" stroke-linejoin="round"/>
    <path d="M 57.3797607421875 174.057373046875 C 183.10748291015625 150.53053283691406 200.91094970703125 156.38720703125 55.556880950927734 173.2615966796875" stroke-width="3.0" fill="none" stroke="rgb(0, 0, 0)" stroke-opacity="1.0" stroke-linecap="round" stroke-linejoin="round"/>
    <path d="M 183.8905792236328 183.47898864746094 C 149.37283325195312 231.8536376953125 126.79270935058594 160.5990447998047 145.73043823242188 183.4248046875" stroke-width="3.0" fill="none" stroke="rgb(0, 0, 0)" stroke-opacity="1.0" stroke-linecap="round" stroke-linejoin="round"/>
    <path d="M 156.87156677246094 85.18976593017578 C 197.75765991210938 73.89996337890625 223.343994140625 139.0272674560547 172.56239318847656 149.516357421875" stroke-width="3.0" fill="none" stroke="rgb(0, 0, 0)" stroke-opacity="1.0" stroke-linecap="round" stroke-linejoin="round"/>
    <path d="M 185.04200744628906 186.58177185058594 C 186.005615234375 150.66307067871094 167.53594970703125 232.42446899414062 181.16835021972656 171.5716552734375" stroke-width="3.0" fill="none" stroke="rgb(0, 0, 0)" stroke-opacity="1.0" stroke-linecap="round" stroke-linejoin="round"/>
    <path d="M 115.28556060791016 168.07276916503906 C 94.90888214111328 171.90948486328125 106.71186828613281 170.31703186035156 144.6656036376953 155.9114990234375" stroke-width="3.0" fill="none" stroke="rgb(0, 0, 0)" stroke-opacity="1.0" stroke-linecap="round" stroke-linejoin="round"/>
    <path d="M 158.4861297607422 144.5811309814453 C 171.71234130859375 100.79718017578125 163.1502685546875 80.45252227783203 170.71041870117188 144.41360473632812" stroke-width="3.0" fill="none" stroke="rgb(0, 0, 0)" stroke-opacity="1.0" stroke-linecap="round" stroke-linejoin="round"/>
    <path d="M 141.55577087402344 177.52947998046875 C 165.43099975585938 225.12850952148438 192.02627563476562 151.36981201171875 141.44065856933594 176.915771484375" stroke-width="3.0" fill="none" stroke="rgb(0, 0, 0)" stroke-opacity="1.0" stroke-linecap="round" stroke-linejoin="round"/>
    <path d="M 89.56370544433594 54.69809341430664 C 135.0992431640625 37.80581283569336 191.38992309570312 87.70120239257812 164.6845703125 38.93709182739258" stroke-width="3.0" fill="none" stroke="rgb(0, 0, 0)" stroke-opacity="1.0" stroke-linecap="round" stroke-linejoin="round"/>
    <path d="M 62.23283386230469 25.184192657470703 C 76.6234359741211 28.9207706451416 81.87042999267578 30.139572143554688 106.5172348022461 114.05123138427734" stroke-width="3.0" fill="none" stroke="rgb(0, 0, 0)" stroke-opacity="1.0" stroke-linecap="round" stroke-linejoin="round"/>
    <path d="M 60.721656799316406 24.5245361328125 C 139.81900024414062 20.682958602905273 38.50631332397461 33.76565933227539 71.05122375488281 24.753395080566406" stroke-width="3.0" fill="none" stroke="rgb(0, 0, 0)" stroke-opacity="1.0" stroke-linecap="round" stroke-linejoin="round"/>
    <path d="M 61.929908752441406 180.01951599121094 C 207.16995239257812 202.20623779296875 136.74960327148438 198.36151123046875 48.57692337036133 184.3966064453125" stroke-width="3.0" fill="none" stroke="rgb(0, 0, 0)" stroke-opacity="1.0" stroke-linecap="round" stroke-linejoin="round"/>
    <path d="M 137.290771484375 191.4961700439453 C 145.20669555664062 133.78443908691406 218.29013061523438 193.77589416503906 163.28482055664062 166.67613220214844" stroke-width="3.0" fill="none" stroke="rgb(0, 0, 0)" stroke-opacity="1.0" stroke-linecap="round" stroke-linejoin="round"/>
    <path d="M 43.02244567871094 193.68833923339844 C 160.2791290283203 209.73443603515625 148.05044555664062 213.96473693847656 51.778106689453125 199.59046936035156" stroke-width="3.0" fill="none" stroke="rgb(0, 0, 0)" stroke-opacity="1.0" stroke-linecap="round" stroke-linejoin="round"/>
    <path d="M 49.86986541748047 182.16432189941406 C 200.32888793945312 182.37094116210938 160.5202178955078 162.3370819091797 69.20806884765625 174.91741943359375" stroke-width="3.0" fill="none" stroke="rgb(0, 0, 0)" stroke-opacity="1.0" stroke-linecap="round" stroke-linejoin="round"/>
    <path d="M 97.2446517944336 192.41015625 C 94.23265838623047 160.0523223876953 118.6142349243164 173.09161376953125 70.28801727294922 181.09585571289062" stroke-width="3.0" fill="none" stroke="rgb(0, 0, 0)" stroke-opacity="1.0" stroke-linecap="round" stroke-linejoin="round"/>
    <path d="M 188.3834686279297 94.60841369628906 C 188.47021484375 98.6015853881836 167.6454315185547 66.0670394897461 178.1226348876953 108.45296478271484" stroke-width="3.0" fill="none" stroke="rgb(0, 0, 0)" stroke-opacity="1.0" stroke-linecap="round" stroke-linejoin="round"/>
    <path d="M 109.27035522460938 152.27452087402344 C 52.486812591552734 193.41424560546875 36.6986198425293 183.5816650390625 75.72196197509766 184.72879028320312" stroke-width="3.0" fill="none" stroke="rgb(0, 0, 0)" stroke-opacity="1.0" stroke-linecap="round" stroke-linejoin="round"/>
    <path d="M 65.05470275878906 95.68119049072266 C 84.59019470214844 57.729225158691406 65.326416015625 38.0522346496582 166.9789276123047 49.823829650878906" stroke-width="3.0" fill="none" stroke="rgb(0, 0, 0)" stroke-opacity="1.0" stroke-linecap="round" stroke-linejoin="round"/>
    <path d="M 119.58529663085938 152.82150268554688 C 182.18045043945312 159.41627502441406 124.45866394042969 154.80435180664062 124.66677856445312 161.7212371826172" stroke-width="3.0" fill="none" stroke="rgb(0, 0, 0)" stroke-opacity="1.0" stroke-linecap="round" stroke-linejoin="round"/>
    <path d="M 154.1806182861328 63.567413330078125 C 183.16709899902344 29.346654891967773 209.8584442138672 26.26162338256836 148.7212371826172 51.92811584472656" stroke-width="3.0" fill="none" stroke="rgb(0, 0, 0)" stroke-opacity="1.0" stroke-linecap="round" stroke-linejoin="round"/>
    <path d="M 47.34422302246094 185.7419891357422 C 52.09809112548828 180.26905822753906 38.02690505981445 199.49761962890625 51.13485336303711 173.76991271972656" stroke-width="3.0" fill="none" stroke="rgb(0, 0, 0)" stroke-opacity="1.0" stroke-linecap="round" stroke-linejoin="round"/>
    <path d="M 181.25180053710938 87.36664581298828 C 173.04432678222656 117.96942901611328 165.57635498046875 130.42361450195312 188.65150451660156 93.71965789794922" stroke-width="3.0" fill="none" stroke="rgb(0, 0, 0)" stroke-opacity="1.0" stroke-linecap="round" stroke-linejoin="round"/>
    <path d="M 147.3443145751953 44.551116943359375 C 112.57864379882812 109.03264617919922 97.21088409423828 152.9319305419922 104.04463195800781 117.60797119140625" stroke-width="3.0" fill="none" stroke="rgb(0, 0, 0)" stroke-opacity="1.0" stroke-linecap="round" stroke-linejoin="round"/>
    <path d="M 177.65863037109375 35.159019470214844 C 136.11767578125 64.09331512451172 125.01119232177734 -1.0382835865020752 167.85252380371094 120.7713623046875" stroke-width="3.0" fill="none" stroke="rgb(0, 0, 0)" stroke-opacity="1.0" stroke-linecap="round" stroke-linejoin="round"/>
    <path d="M 50.86857604980469 173.78318786621094 C 114.2745590209961 165.78733825683594 101.96185302734375 181.828125 52.74002456665039 178.42007446289062" stroke-width="3.0" fill="none" stroke="rgb(0, 0, 0)" stroke-opacity="1.0" stroke-linecap="round" stroke-linejoin="round"/>
    <path d="M 86.53040313720703 59.93947219848633 C 107.01985931396484 131.92074584960938 132.1852264404297 121.93701171875 53.44344711303711 116.47798156738281" stroke-width="3.0" fill="none" stroke="rgb(0, 0, 0)" stroke-opacity="1.0" stroke-linecap="round" stroke-linejoin="round"/>
    <path d="M 179.63198852539062 142.3484344482422 C 168.23085021972656 114.3088150024414 168.32957458496094 121.72262573242188 188.72344970703125 110.91130828857422" stroke-width="3.0" fill="none" stroke="rgb(0, 0, 0)" stroke-opacity="1.0" stroke-linecap="round" stroke-linejoin="round"/>
    <path d="M 76.88639831542969 27.86869239807129 C 78.88904571533203 41.80867004394531 29.131235122680664 12.903852462768555 91.935546875 25.006986618041992" stroke-width="3.0" fill="none" stroke="rgb(0, 0, 0)" stroke-opacity="1.0" stroke-linecap="round" stroke-linejoin="round"/>
    <path d="M 41.18486785888672 147.5294189453125 C 63.82194137573242 159.4298095703125 86.79657745361328 143.9551239013672 95.15056610107422 121.48975372314453" stroke-width="3.0" fill="none" stroke="rgb(0, 0, 0)" stroke-opacity="1.0" stroke-linecap="round" stroke-linejoin="round"/>
    <path d="M 167.35552978515625 114.97867584228516 C 124.00262451171875 131.97142028808594 125.2006607055664 132.75283813476562 166.50839233398438 116.29178619384766" stroke-width="3.0" fill="none" stroke="rgb(0, 0, 0)" stroke-opacity="1.0" stroke-linecap="round" stroke-linejoin="round"/>
    <path d="M 44.502071380615234 149.63885498046875 C 14.251002311706543 137.5608673095703 6.324258327484131 93.15961456298828 42.39467239379883 75.9223403930664" stroke-width="3.0" fill="none" stroke="rgb(0, 0, 0)" stroke-opacity="1.0" stroke-linecap="round" stroke-linejoin="round"/>
    <path d="M 182.392578125 181.05284118652344 C 163.06204223632812 158.43150329589844 191.46142578125 174.84922790527344 173.5989532470703 162.42950439453125" stroke-width="3.0" fill="none" stroke="rgb(0, 0, 0)" stroke-opacity="1.0" stroke-linecap="round" stroke-linejoin="round"/>
    <path d="M 169.59896850585938 149.83779907226562 C 90.34627532958984 149.41712951660156 155.6173553466797 157.75735473632812 125.0782699584961 159.9254150390625" stroke-width="3.0" fill="none" stroke="rgb(0, 0, 0)" stroke-opacity="1.0" stroke-linecap="round" stroke-linejoin="round"/>
    <path d="M 30.331968307495117 82.85658264160156 C 92.16779327392578 43.36589813232422 101.25621795654297 135.5612030029297 93.57920837402344 115.14503479003906" stroke-width="3.0" fill="none" stroke="rgb(0, 0, 0)" stroke-opacity="1.0" stroke-linecap="round" stroke-linejoin="round"/>
    <path d="M 110.22598266601562 129.74551391601562 C 80.95947265625 140.37867736816406 111.29930877685547 106.65138244628906 74.44546508789062 85.45941162109375" stroke-width="3.0" fill="none" stroke="rgb(0, 0, 0)" stroke-opacity="1.0" stroke-linecap="round" stroke-linejoin="round"/>
    <path d="M 57.032535552978516 187.84054565429688 C 100.17555236816406 146.67079162597656 114.06317901611328 146.8953857421875 146.30862426757812 155.27549743652344" stroke-width="3.0" fill="none" stroke="rgb(0, 0, 0)" stroke-opacity="1.0" stroke-linecap="round" stroke-linejoin="round"/>
    <path d="M 82.91228485107422 30.316375732421875 C 97.53702545166016 69.94487762451172 95.16710662841797 24.239540100097656 71.87490844726562 82.98381805419922" stroke-width="3.0" fill="none" stroke="rgb(0, 0, 0)" stroke-opacity="1.0" stroke-linecap="round" stroke-linejoin="round"/>
    <path d="M 138.92822265625 151.78163146972656 C 223.64425659179688 180.2823944091797 140.26551818847656 146.5481414794922 147.30722045898438 188.5816650390625" stroke-width="3.0" fill="none" stroke="rgb(0, 0, 0)" stroke-opacity="1.0" stroke-linecap="round" stroke-linejoin="round"/>
    <path d="M 109.38106536865234 115.98584747314453 C 114.78343963623047 163.13430786132812 132.2080841064453 122.3251724243164 91.35528564453125 122.77593231201172" stroke-width="3.0" fill="none" stroke="rgb(0, 0, 0)" stroke-opacity="1.0" stroke-linecap="round" stroke-linejoin="round"/>
    <path d="M 176.71624755859375 54.72291564941406 C 171.15524291992188 53.39484786987305 190.64915466308594 7.938912868499756 164.05966186523438 57.31419372558594" stroke-width="3.0" fill="none" stroke="rgb(0, 0, 0)" stroke-opacity="1.0" stroke-linecap="round" stroke-linejoin="round"/>
    <path d="M 81.1127700805664 45.320865631103516 C 70.9253158569336 54.61742401123047 85.74236297607422 36.65211486816406 57.04658508300781 120.23088836669922" stroke-width="3.0" fill="none" stroke="rgb(0, 0, 0)" stroke-opacity="1.0" stroke-linecap="round" stroke-linejoin="round"/>
  </g>
</svg>
