<?xml version="1.0" ?>
<svg xmlns="http://www.w3.org/2000/svg" version="1.1" width="224" height="224">
  <defs/>
  <g>
    <path d="M 139.84732055664062 124.00395965576172 C 198.24937438964844 116.53305053710938 171.57176208496094 106.89366149902344 173.19198608398438 121.15845489501953" stroke-width="3.0" fill="none" stroke="rgb(0, 0, 0)" stroke-opacity="1.0" stroke-linecap="round" stroke-linejoin="round"/>
    <path d="M 117.09771728515625 155.77432250976562 C 50.31844711303711 165.56027221679688 75.5898666381836 182.05889892578125 156.65542602539062 156.53977966308594" stroke-width="3.0" fill="none" stroke="rgb(0, 0, 0)" stroke-opacity="1.0" stroke-linecap="round" stroke-linejoin="round"/>
    <path d="M 175.34596252441406 150.23275756835938 C 143.603271484375 157.69296264648438 97.6281509399414 127.29210662841797 145.798583984375 71.87510681152344" stroke-width="3.0" fill="none" stroke="rgb(0, 0, 0)" stroke-opacity="1.0" stroke-linecap="round" stroke-linejoin="round"/>
    <path d="M 151.7630615234375 143.49278259277344 C 178.4938507080078 100.58366394042969 152.6064910888672 120.9134750366211 190.4488983154297 128.64187622070312" stroke-width="3.0" fill="none" stroke="rgb(0, 0, 0)" stroke-opacity="1.0" stroke-linecap="round" stroke-linejoin="round"/>
    <path d="M 156.9639129638672 78.34671783447266 C 223.66302490234375 68.65243530273438 232.80770874023438 168.643310546875 146.17556762695312 156.49114990234375" stroke-width="3.0" fill="none" stroke="rgb(0, 0, 0)" stroke-opacity="1.0" stroke-linecap="round" stroke-linejoin="round"/>
    <path d="M 105.42155456542969 158.498046875 C 47.96977233886719 170.8706512451172 83.90267944335938 186.4118194580078 128.31114196777344 161.50509643554688" stroke-width="3.0" fill="none" stroke="rgb(0, 0, 0)" stroke-opacity="1.0" stroke-linecap="round" stroke-linejoin="round"/>
    <path d="M 93.2508773803711 124.14081573486328 C 134.9890899658203 124.05694580078125 82.47694396972656 103.60868835449219 114.99115753173828 116.99615478515625" stroke-width="3.0" fill="none" stroke="rgb(0, 0, 0)" stroke-opacity="1.0" stroke-linecap="round" stroke-linejoin="round"/>
    <path d="M 58.093265533447266 169.64785766601562 C 163.9020538330078 140.13919067382812 190.2427978515625 156.12615966796875 56.870147705078125 168.95945739746094" stroke-width="3.0" fill="none" stroke="rgb(0, 0, 0)" stroke-opacity="1.0" stroke-linecap="round" stroke-linejoin="round"/>
    <path d="M 180.810791015625 185.065673828125 C 150.15859985351562 226.38560485839844 134.1757049560547 161.5211944580078 144.49151611328125 190.4539031982422" stroke-width="3.0" fill="none" stroke="rgb(0, 0, 0)" stroke-opacity="1.0" stroke-linecap="round" stroke-linejoin="round"/>
    <path d="M 157.25274658203125 85.7671127319336 C 200.40057373046875 74.35860443115234 222.55068969726562 139.39039611816406 168.88197326660156 150.30856323242188" stroke-width="3.0" fill="none" stroke="rgb(0, 0, 0)" stroke-opacity="1.0" stroke-linecap="round" stroke-linejoin="round"/>
    <path d="M 177.90354919433594 182.968994140625 C 180.7097625732422 160.00701904296875 166.2279815673828 218.8320770263672 180.44615173339844 175.58131408691406" stroke-width="3.0" fill="none" stroke="rgb(0, 0, 0)" stroke-opacity="1.0" stroke-linecap="round" stroke-linejoin="round"/>
    <path d="M 95.77584075927734 170.7803955078125 C 85.32074737548828 167.28204345703125 89.290283203125 152.84031677246094 126.4996337890625 151.9653778076172" stroke-width="3.0" fill="none" stroke="rgb(0, 0, 0)" stroke-opacity="1.0" stroke-linecap="round" stroke-linejoin="round"/>
    <path d="M 159.00555419921875 147.2194366455078 C 181.01158142089844 93.37825012207031 173.6783447265625 83.73121643066406 175.87115478515625 149.1494903564453" stroke-width="3.0" fill="none" stroke="rgb(0, 0, 0)" stroke-opacity="1.0" stroke-linecap="round" stroke-linejoin="round"/>
    <path d="M 141.90896606445312 179.10360717773438 C 165.64169311523438 222.30145263671875 189.62908935546875 153.3172607421875 139.9365234375 181.27735900878906" stroke-width="3.0" fill="none" stroke="rgb(0, 0, 0)" stroke-opacity="1.0" stroke-linecap="round" stroke-linejoin="round"/>
    <path d="M 91.33141326904297 55.9902458190918 C 123.91685485839844 34.441062927246094 193.28311157226562 92.72846221923828 163.31045532226562 39.159515380859375" stroke-width="3.0" fill="none" stroke="rgb(0, 0, 0)" stroke-opacity="1.0" stroke-linecap="round" stroke-linejoin="round"/>
    <path d="M 66.38951873779297 27.365955352783203 C 74.1108627319336 26.06549835205078 81.15776062011719 29.803035736083984 110.22769927978516 121.30130767822266" stroke-width="3.0" fill="none" stroke="rgb(0, 0, 0)" stroke-opacity="1.0" stroke-linecap="round" stroke-linejoin="round"/>
    <path d="M 61.65022277832031 26.283838272094727 C 117.69043731689453 29.802032470703125 34.737884521484375 33.323936462402344 73.43848419189453 28.41868019104004" stroke-width="3.0" fill="none" stroke="rgb(0, 0, 0)" stroke-opacity="1.0" stroke-linecap="round" stroke-linejoin="round"/>
    <path d="M 73.365966796875 189.08786010742188 C 198.11859130859375 190.74737548828125 153.81954956054688 182.7518310546875 54.24092102050781 183.81642150878906" stroke-width="3.0" fill="none" stroke="rgb(0, 0, 0)" stroke-opacity="1.0" stroke-linecap="round" stroke-linejoin="round"/>
    <path d="M 139.21481323242188 189.90362548828125 C 145.2351531982422 135.19088745117188 213.74705505371094 189.78692626953125 160.56980895996094 166.05319213867188" stroke-width="3.0" fill="none" stroke="rgb(0, 0, 0)" stroke-opacity="1.0" stroke-linecap="round" stroke-linejoin="round"/>
    <path d="M 52.00590133666992 184.69395446777344 C 145.11825561523438 194.3109893798828 136.2006378173828 197.70494079589844 53.26670455932617 178.3736572265625" stroke-width="3.0" fill="none" stroke="rgb(0, 0, 0)" stroke-opacity="1.0" stroke-linecap="round" stroke-linejoin="round"/>
    <path d="M 45.55591583251953 187.47840881347656 C 209.40640258789062 204.4034881591797 174.9967803955078 156.58544921875 64.10228729248047 177.00469970703125" stroke-width="3.0" fill="none" stroke="rgb(0, 0, 0)" stroke-opacity="1.0" stroke-linecap="round" stroke-linejoin="round"/>
    <path d="M 97.33519744873047 185.5918426513672 C 109.86143493652344 138.46542358398438 127.95207214355469 157.1350860595703 77.4864273071289 171.52017211914062" stroke-width="3.0" fill="none" stroke="rgb(0, 0, 0)" stroke-opacity="1.0" stroke-linecap="round" stroke-linejoin="round"/>
    <path d="M 190.24436950683594 90.55522155761719 C 178.8507080078125 85.04877471923828 149.49200439453125 55.80795669555664 171.73126220703125 113.17192840576172" stroke-width="3.0" fill="none" stroke="rgb(0, 0, 0)" stroke-opacity="1.0" stroke-linecap="round" stroke-linejoin="round"/>
    <path d="M 112.22921752929688 155.48757934570312 C 53.28474426269531 197.41473388671875 24.76941680908203 188.2584686279297 92.15164947509766 179.7793426513672" stroke-width="3.0" fill="none" stroke="rgb(0, 0, 0)" stroke-opacity="1.0" stroke-linecap="round" stroke-linejoin="round"/>
    <path d="M 65.56209564208984 111.09227752685547 C 85.31460571289062 58.43018341064453 59.499603271484375 34.04262161254883 176.15408325195312 46.181427001953125" stroke-width="3.0" fill="none" stroke="rgb(0, 0, 0)" stroke-opacity="1.0" stroke-linecap="round" stroke-linejoin="round"/>
    <path d="M 129.35426330566406 160.8815460205078 C 177.01634216308594 160.17156982421875 129.06735229492188 145.84170532226562 118.81795501708984 166.6056671142578" stroke-width="3.0" fill="none" stroke="rgb(0, 0, 0)" stroke-opacity="1.0" stroke-linecap="round" stroke-linejoin="round"/>
    <path d="M 153.17137145996094 64.64788055419922 C 183.34799194335938 32.22549819946289 210.90086364746094 35.85140609741211 141.94692993164062 47.63267135620117" stroke-width="3.0" fill="none" stroke="rgb(0, 0, 0)" stroke-opacity="1.0" stroke-linecap="round" stroke-linejoin="round"/>
    <path d="M 57.79471969604492 174.26458740234375 C 48.98298645019531 166.83273315429688 39.42517852783203 208.8992462158203 51.76000213623047 174.67510986328125" stroke-width="3.0" fill="none" stroke="rgb(0, 0, 0)" stroke-opacity="1.0" stroke-linecap="round" stroke-linejoin="round"/>
    <path d="M 181.7581329345703 93.57427978515625 C 172.604248046875 118.64446258544922 159.89588928222656 123.7987289428711 191.421142578125 101.5782470703125" stroke-width="3.0" fill="none" stroke="rgb(0, 0, 0)" stroke-opacity="1.0" stroke-linecap="round" stroke-linejoin="round"/>
    <path d="M 149.84512329101562 43.5145378112793 C 107.23526763916016 105.83666229248047 95.123291015625 148.49205017089844 101.71504211425781 122.18949127197266" stroke-width="3.0" fill="none" stroke="rgb(0, 0, 0)" stroke-opacity="1.0" stroke-linecap="round" stroke-linejoin="round"/>
    <path d="M 176.6587677001953 37.88713455200195 C 128.161376953125 59.10178756713867 129.95034790039062 -0.9144459962844849 165.97769165039062 123.64580535888672" stroke-width="3.0" fill="none" stroke="rgb(0, 0, 0)" stroke-opacity="1.0" stroke-linecap="round" stroke-linejoin="round"/>
    <path d="M 57.328495025634766 168.405517578125 C 129.80731201171875 163.98178100585938 118.68172454833984 180.56932067871094 56.09598159790039 173.2729949951172" stroke-width="3.0" fill="none" stroke="rgb(0, 0, 0)" stroke-opacity="1.0" stroke-linecap="round" stroke-linejoin="round"/>
    <path d="M 85.61297607421875 61.13075637817383 C 108.45143127441406 143.77291870117188 140.38832092285156 121.95619201660156 58.039161682128906 115.23163604736328" stroke-width="3.0" fill="none" stroke="rgb(0, 0, 0)" stroke-opacity="1.0" stroke-linecap="round" stroke-linejoin="round"/>
    <path d="M 182.1372528076172 138.85528564453125 C 168.10655212402344 107.59750366210938 156.09963989257812 128.458251953125 195.80642700195312 112.44132995605469" stroke-width="3.0" fill="none" stroke="rgb(0, 0, 0)" stroke-opacity="1.0" stroke-linecap="round" stroke-linejoin="round"/>
    <path d="M 79.2488021850586 28.658660888671875 C 79.16490173339844 45.135833740234375 28.36977767944336 13.814075469970703 90.73676300048828 25.83360481262207" stroke-width="3.0" fill="none" stroke="rgb(0, 0, 0)" stroke-opacity="1.0" stroke-linecap="round" stroke-linejoin="round"/>
    <path d="M 39.04338455200195 145.19984436035156 C 66.19049072265625 159.99122619628906 88.08043670654297 139.02078247070312 96.56173706054688 111.90878295898438" stroke-width="3.0" fill="none" stroke="rgb(0, 0, 0)" stroke-opacity="1.0" stroke-linecap="round" stroke-linejoin="round"/>
    <path d="M 149.02711486816406 70.18879699707031 C 116.35065460205078 103.31627655029297 116.22966003417969 136.7197265625 160.6575927734375 120.619873046875" stroke-width="3.0" fill="none" stroke="rgb(0, 0, 0)" stroke-opacity="1.0" stroke-linecap="round" stroke-linejoin="round"/>
    <path d="M 45.68926239013672 147.9640655517578 C 14.528888702392578 135.84779357910156 7.850439071655273 96.12477111816406 36.86779022216797 77.51228332519531" stroke-width="3.0" fill="none" stroke="rgb(0, 0, 0)" stroke-opacity="1.0" stroke-linecap="round" stroke-linejoin="round"/>
    <path d="M 184.03256225585938 185.51409912109375 C 153.33689880371094 146.8201446533203 187.94024658203125 172.67356872558594 174.83261108398438 167.37704467773438" stroke-width="3.0" fill="none" stroke="rgb(0, 0, 0)" stroke-opacity="1.0" stroke-linecap="round" stroke-linejoin="round"/>
    <path d="M 163.95448303222656 158.00758361816406 C 65.55586242675781 153.7949981689453 146.8210906982422 166.9059600830078 123.44783782958984 157.3853759765625" stroke-width="3.0" fill="none" stroke="rgb(0, 0, 0)" stroke-opacity="1.0" stroke-linecap="round" stroke-linejoin="round"/>
    <path d="M 31.8742733001709 80.36566925048828 C 94.97913360595703 43.765750885009766 97.65359497070312 137.30386352539062 100.82474517822266 113.58240509033203" stroke-width="3.0" fill="none" stroke="rgb(0, 0, 0)" stroke-opacity="1.0" stroke-linecap="round" stroke-linejoin="round"/>
    <path d="M 108.7240219116211 131.38714599609375 C 84.42604064941406 136.0230712890625 108.13015747070312 110.44217681884766 75.00662994384766 88.40113067626953" stroke-width="3.0" fill="none" stroke="rgb(0, 0, 0)" stroke-opacity="1.0" stroke-linecap="round" stroke-linejoin="round"/>
    <path d="M 71.13983154296875 189.44175720214844 C 92.42345428466797 149.45933532714844 113.16619110107422 147.1383819580078 147.52452087402344 150.4591064453125" stroke-width="3.0" fill="none" stroke="rgb(0, 0, 0)" stroke-opacity="1.0" stroke-linecap="round" stroke-linejoin="round"/>
    <path d="M 81.77522277832031 34.63931655883789 C 96.55979919433594 69.90702819824219 102.7302474975586 23.276926040649414 74.53136444091797 82.15260314941406" stroke-width="3.0" fill="none" stroke="rgb(0, 0, 0)" stroke-opacity="1.0" stroke-linecap="round" stroke-linejoin="round"/>
    <path d="M 140.26303100585938 152.35855102539062 C 222.92071533203125 177.3046417236328 120.14726257324219 151.85702514648438 152.6556854248047 190.12814331054688" stroke-width="3.0" fill="none" stroke="rgb(0, 0, 0)" stroke-opacity="1.0" stroke-linecap="round" stroke-linejoin="round"/>
    <path d="M 117.7840805053711 113.38800048828125 C 108.47527313232422 166.74319458007812 134.85220336914062 120.88644409179688 90.55419158935547 120.17570495605469" stroke-width="3.0" fill="none" stroke="rgb(0, 0, 0)" stroke-opacity="1.0" stroke-linecap="round" stroke-linejoin="round"/>
    <path d="M 178.78158569335938 54.13741683959961 C 171.74337768554688 53.70945358276367 199.58644104003906 3.804171562194824 166.60293579101562 58.7401008605957" stroke-width="3.0" fill="none" stroke="rgb(0, 0, 0)" stroke-opacity="1.0" stroke-linecap="round" stroke-linejoin="round"/>
    <path d="M 78.70632934570312 47.188316345214844 C 71.5316390991211 60.366268157958984 86.29499053955078 44.57917404174805 55.93223190307617 117.44998931884766" stroke-width="3.0" fill="none" stroke="rgb(0, 0, 0)" stroke-opacity="1.0" stroke-linecap="round" stroke-linejoin="round"/>
  </g>
</svg>
