<?xml version="1.0" ?>
<svg xmlns="http://www.w3.org/2000/svg" version="1.1" width="224" height="224">
  <defs/>
  <g>
    <path d="M 133.5686798095703 111.5106201171875 C 158.9189910888672 113.27224731445312 160.6884002685547 106.55011749267578 171.33676147460938 115.9869384765625" stroke-width="3.0" fill="none" stroke="rgb(0, 0, 0)" stroke-opacity="1.0" stroke-linecap="round" stroke-linejoin="round"/>
    <path d="M 103.84671020507812 155.67587280273438 C 58.8944206237793 177.79774475097656 77.41761016845703 180.05735778808594 153.8736114501953 153.57212829589844" stroke-width="3.0" fill="none" stroke="rgb(0, 0, 0)" stroke-opacity="1.0" stroke-linecap="round" stroke-linejoin="round"/>
    <path d="M 149.82691955566406 139.80023193359375 C 158.07510375976562 145.3142547607422 109.271728515625 127.78241729736328 147.57260131835938 85.81121826171875" stroke-width="3.0" fill="none" stroke="rgb(0, 0, 0)" stroke-opacity="1.0" stroke-linecap="round" stroke-linejoin="round"/>
    <path d="M 148.33775329589844 139.9303436279297 C 172.640869140625 106.39958953857422 167.50770568847656 119.48080444335938 191.65225219726562 131.1255340576172" stroke-width="3.0" fill="none" stroke="rgb(0, 0, 0)" stroke-opacity="1.0" stroke-linecap="round" stroke-linejoin="round"/>
    <path d="M 173.8460693359375 77.61058044433594 C 227.7294158935547 89.10381317138672 219.2006072998047 161.916748046875 161.18511962890625 153.13717651367188" stroke-width="3.0" fill="none" stroke="rgb(0, 0, 0)" stroke-opacity="1.0" stroke-linecap="round" stroke-linejoin="round"/>
    <path d="M 89.4881820678711 175.32691955566406 C 107.27622985839844 164.7903594970703 93.70549774169922 183.08154296875 108.62680053710938 155.68946838378906" stroke-width="3.0" fill="none" stroke="rgb(0, 0, 0)" stroke-opacity="1.0" stroke-linecap="round" stroke-linejoin="round"/>
    <path d="M 91.66608428955078 120.53666687011719 C 135.473388671875 127.80892944335938 102.60372161865234 92.98313903808594 112.08198547363281 131.73318481445312" stroke-width="3.0" fill="none" stroke="rgb(0, 0, 0)" stroke-opacity="1.0" stroke-linecap="round" stroke-linejoin="round"/>
    <path d="M 89.33143615722656 190.67520141601562 C 165.5775909423828 188.53704833984375 138.5797576904297 186.64633178710938 47.86507797241211 188.02256774902344" stroke-width="3.0" fill="none" stroke="rgb(0, 0, 0)" stroke-opacity="1.0" stroke-linecap="round" stroke-linejoin="round"/>
    <path d="M 180.57699584960938 182.99769592285156 C 162.2054901123047 219.3167266845703 127.28857421875 181.4150390625 162.4219512939453 170.4198455810547" stroke-width="3.0" fill="none" stroke="rgb(0, 0, 0)" stroke-opacity="1.0" stroke-linecap="round" stroke-linejoin="round"/>
    <path d="M 156.108154296875 83.98534393310547 C 198.3903045654297 77.36244201660156 217.88897705078125 125.38226318359375 182.5966796875 145.3166046142578" stroke-width="3.0" fill="none" stroke="rgb(0, 0, 0)" stroke-opacity="1.0" stroke-linecap="round" stroke-linejoin="round"/>
    <path d="M 183.50216674804688 187.85055541992188 C 180.6580810546875 164.5894317626953 172.6494140625 198.85618591308594 183.0526885986328 181.53456115722656" stroke-width="3.0" fill="none" stroke="rgb(0, 0, 0)" stroke-opacity="1.0" stroke-linecap="round" stroke-linejoin="round"/>
    <path d="M 137.91998291015625 149.8335418701172 C 124.0196762084961 149.13742065429688 134.41485595703125 150.3937530517578 133.2720184326172 149.9021453857422" stroke-width="3.0" fill="none" stroke="rgb(0, 0, 0)" stroke-opacity="1.0" stroke-linecap="round" stroke-linejoin="round"/>
    <path d="M 161.44102478027344 145.84852600097656 C 168.21453857421875 116.19203186035156 168.084228515625 103.62930297851562 176.55467224121094 145.7785186767578" stroke-width="3.0" fill="none" stroke="rgb(0, 0, 0)" stroke-opacity="1.0" stroke-linecap="round" stroke-linejoin="round"/>
    <path d="M 149.66622924804688 183.4111785888672 C 164.95294189453125 214.41290283203125 185.37002563476562 164.7912139892578 156.10304260253906 172.19769287109375" stroke-width="3.0" fill="none" stroke="rgb(0, 0, 0)" stroke-opacity="1.0" stroke-linecap="round" stroke-linejoin="round"/>
    <path d="M 86.86035919189453 57.75796127319336 C 138.3229522705078 40.631839752197266 186.01828002929688 92.92158508300781 166.56849670410156 39.748538970947266" stroke-width="3.0" fill="none" stroke="rgb(0, 0, 0)" stroke-opacity="1.0" stroke-linecap="round" stroke-linejoin="round"/>
    <path d="M 66.38238525390625 30.778154373168945 C 73.31234741210938 19.267921447753906 73.97479248046875 30.870784759521484 103.5828857421875 113.32291412353516" stroke-width="3.0" fill="none" stroke="rgb(0, 0, 0)" stroke-opacity="1.0" stroke-linecap="round" stroke-linejoin="round"/>
    <path d="M 62.89347457885742 26.33922004699707 C 117.06815338134766 24.48002052307129 79.4583740234375 31.586870193481445 61.71084976196289 27.855419158935547" stroke-width="3.0" fill="none" stroke="rgb(0, 0, 0)" stroke-opacity="1.0" stroke-linecap="round" stroke-linejoin="round"/>
    <path d="M 46.351234436035156 194.34698486328125 C 128.60630798339844 192.3867645263672 85.49534606933594 180.53964233398438 51.21862030029297 180.22982788085938" stroke-width="3.0" fill="none" stroke="rgb(0, 0, 0)" stroke-opacity="1.0" stroke-linecap="round" stroke-linejoin="round"/>
    <path d="M 141.88299560546875 186.78329467773438 C 150.41796875 137.35848999023438 205.40640258789062 185.93223571777344 163.8177490234375 166.38671875" stroke-width="3.0" fill="none" stroke="rgb(0, 0, 0)" stroke-opacity="1.0" stroke-linecap="round" stroke-linejoin="round"/>
    <path d="M 57.215023040771484 187.4954071044922 C 120.09734344482422 176.6690673828125 116.34990692138672 183.82460021972656 48.04684829711914 179.7178497314453" stroke-width="3.0" fill="none" stroke="rgb(0, 0, 0)" stroke-opacity="1.0" stroke-linecap="round" stroke-linejoin="round"/>
    <path d="M 56.49679183959961 184.76986694335938 C 115.60213470458984 165.51287841796875 109.741943359375 177.46145629882812 49.61296844482422 187.98715209960938" stroke-width="3.0" fill="none" stroke="rgb(0, 0, 0)" stroke-opacity="1.0" stroke-linecap="round" stroke-linejoin="round"/>
    <path d="M 103.3083724975586 188.32630920410156 C 96.17818450927734 167.86172485351562 105.14710998535156 168.3292999267578 82.40757751464844 188.8966064453125" stroke-width="3.0" fill="none" stroke="rgb(0, 0, 0)" stroke-opacity="1.0" stroke-linecap="round" stroke-linejoin="round"/>
    <path d="M 176.39137268066406 85.64205932617188 C 174.91912841796875 107.3094253540039 179.18695068359375 57.9930419921875 175.6669921875 109.22081756591797" stroke-width="3.0" fill="none" stroke="rgb(0, 0, 0)" stroke-opacity="1.0" stroke-linecap="round" stroke-linejoin="round"/>
    <path d="M 100.44493865966797 173.01512145996094 C 30.990459442138672 175.13140869140625 52.381160736083984 176.2387237548828 69.97834777832031 180.36485290527344" stroke-width="3.0" fill="none" stroke="rgb(0, 0, 0)" stroke-opacity="1.0" stroke-linecap="round" stroke-linejoin="round"/>
    <path d="M 69.95556640625 70.1076889038086 C 78.40489959716797 63.416255950927734 58.957252502441406 41.92322540283203 146.23521423339844 48.8830680847168" stroke-width="3.0" fill="none" stroke="rgb(0, 0, 0)" stroke-opacity="1.0" stroke-linecap="round" stroke-linejoin="round"/>
    <path d="M 130.72059631347656 148.6636505126953 C 160.59494018554688 144.9770965576172 126.97044372558594 142.4715118408203 126.51360321044922 160.5597686767578" stroke-width="3.0" fill="none" stroke="rgb(0, 0, 0)" stroke-opacity="1.0" stroke-linecap="round" stroke-linejoin="round"/>
    <path d="M 156.44015502929688 57.78272247314453 C 164.80795288085938 34.46040344238281 218.0815887451172 43.0579833984375 138.0464324951172 46.39033508300781" stroke-width="3.0" fill="none" stroke="rgb(0, 0, 0)" stroke-opacity="1.0" stroke-linecap="round" stroke-linejoin="round"/>
    <path d="M 54.20012664794922 176.10107421875 C 46.2294807434082 182.44845581054688 42.05332946777344 207.81405639648438 53.25233840942383 179.1291046142578" stroke-width="3.0" fill="none" stroke="rgb(0, 0, 0)" stroke-opacity="1.0" stroke-linecap="round" stroke-linejoin="round"/>
    <path d="M 182.41200256347656 103.89445495605469 C 164.80430603027344 124.69027709960938 163.4271697998047 121.15956115722656 185.1612548828125 93.47010803222656" stroke-width="3.0" fill="none" stroke="rgb(0, 0, 0)" stroke-opacity="1.0" stroke-linecap="round" stroke-linejoin="round"/>
    <path d="M 144.37843322753906 57.13619613647461 C 119.7772445678711 103.22949981689453 99.46087646484375 148.30313110351562 112.73983764648438 114.80463409423828" stroke-width="3.0" fill="none" stroke="rgb(0, 0, 0)" stroke-opacity="1.0" stroke-linecap="round" stroke-linejoin="round"/>
    <path d="M 175.01052856445312 41.11888122558594 C 156.54241943359375 73.97503662109375 124.21199035644531 9.532815933227539 167.31895446777344 123.54347229003906" stroke-width="3.0" fill="none" stroke="rgb(0, 0, 0)" stroke-opacity="1.0" stroke-linecap="round" stroke-linejoin="round"/>
    <path d="M 65.48471069335938 175.22459411621094 C 101.71743774414062 179.169921875 130.81809997558594 185.50099182128906 50.723995208740234 184.23587036132812" stroke-width="3.0" fill="none" stroke="rgb(0, 0, 0)" stroke-opacity="1.0" stroke-linecap="round" stroke-linejoin="round"/>
    <path d="M 93.69384765625 55.15382385253906 C 115.56243896484375 145.9691162109375 129.07778930664062 135.9269256591797 56.64512634277344 112.56050872802734" stroke-width="3.0" fill="none" stroke="rgb(0, 0, 0)" stroke-opacity="1.0" stroke-linecap="round" stroke-linejoin="round"/>
    <path d="M 186.58001708984375 138.85191345214844 C 163.2697296142578 107.99527740478516 173.30162048339844 103.91293334960938 175.4393310546875 117.28064727783203" stroke-width="3.0" fill="none" stroke="rgb(0, 0, 0)" stroke-opacity="1.0" stroke-linecap="round" stroke-linejoin="round"/>
    <path d="M 82.2805404663086 31.02423095703125 C 26.983217239379883 33.72990036010742 62.55125427246094 25.679086685180664 77.46437072753906 37.874267578125" stroke-width="3.0" fill="none" stroke="rgb(0, 0, 0)" stroke-opacity="1.0" stroke-linecap="round" stroke-linejoin="round"/>
    <path d="M 43.07108688354492 146.76840209960938 C 57.33931350708008 154.4679718017578 88.260498046875 142.996337890625 92.86872100830078 119.27189636230469" stroke-width="3.0" fill="none" stroke="rgb(0, 0, 0)" stroke-opacity="1.0" stroke-linecap="round" stroke-linejoin="round"/>
    <path d="M 163.8677215576172 117.10594177246094 C 116.07157135009766 137.26695251464844 146.50369262695312 126.6024169921875 141.71475219726562 136.51116943359375" stroke-width="3.0" fill="none" stroke="rgb(0, 0, 0)" stroke-opacity="1.0" stroke-linecap="round" stroke-linejoin="round"/>
    <path d="M 46.09101867675781 149.0169677734375 C 19.250938415527344 142.4222412109375 1.1594634056091309 100.46173095703125 40.69767379760742 78.47911071777344" stroke-width="3.0" fill="none" stroke="rgb(0, 0, 0)" stroke-opacity="1.0" stroke-linecap="round" stroke-linejoin="round"/>
    <path d="M 177.1876678466797 187.94973754882812 C 173.20457458496094 185.33566284179688 192.74061584472656 195.58338928222656 171.31732177734375 165.89503479003906" stroke-width="3.0" fill="none" stroke="rgb(0, 0, 0)" stroke-opacity="1.0" stroke-linecap="round" stroke-linejoin="round"/>
    <path d="M 171.90985107421875 156.27984619140625 C 98.16638946533203 135.5968780517578 173.58900451660156 159.92979431152344 130.24835205078125 153.3930206298828" stroke-width="3.0" fill="none" stroke="rgb(0, 0, 0)" stroke-opacity="1.0" stroke-linecap="round" stroke-linejoin="round"/>
    <path d="M 30.27798843383789 82.20901489257812 C 83.7303237915039 48.200836181640625 105.29563903808594 129.94580078125 94.15120697021484 113.3967514038086" stroke-width="3.0" fill="none" stroke="rgb(0, 0, 0)" stroke-opacity="1.0" stroke-linecap="round" stroke-linejoin="round"/>
    <path d="M 110.65145874023438 112.99122619628906 C 95.99658966064453 140.29380798339844 101.26100158691406 108.44979858398438 73.58473205566406 85.02676391601562" stroke-width="3.0" fill="none" stroke="rgb(0, 0, 0)" stroke-opacity="1.0" stroke-linecap="round" stroke-linejoin="round"/>
    <path d="M 75.0018539428711 175.31497192382812 C 101.17066192626953 143.05091857910156 131.04940795898438 154.37013244628906 148.9539031982422 149.44480895996094" stroke-width="3.0" fill="none" stroke="rgb(0, 0, 0)" stroke-opacity="1.0" stroke-linecap="round" stroke-linejoin="round"/>
    <path d="M 82.5703353881836 31.962684631347656 C 91.56993865966797 64.99961853027344 99.2950668334961 37.588134765625 75.98115539550781 70.26210021972656" stroke-width="3.0" fill="none" stroke="rgb(0, 0, 0)" stroke-opacity="1.0" stroke-linecap="round" stroke-linejoin="round"/>
    <path d="M 130.18914794921875 151.327392578125 C 203.88214111328125 155.4060821533203 130.61985778808594 143.9480743408203 136.5143585205078 188.31935119628906" stroke-width="3.0" fill="none" stroke="rgb(0, 0, 0)" stroke-opacity="1.0" stroke-linecap="round" stroke-linejoin="round"/>
    <path d="M 107.9682846069336 120.70964050292969 C 123.09497833251953 154.84652709960938 126.76583099365234 119.9520263671875 97.79896545410156 123.67086791992188" stroke-width="3.0" fill="none" stroke="rgb(0, 0, 0)" stroke-opacity="1.0" stroke-linecap="round" stroke-linejoin="round"/>
    <path d="M 177.4263916015625 54.032920837402344 C 168.87120056152344 46.00566482543945 194.49072265625 31.467178344726562 175.12460327148438 42.294212341308594" stroke-width="3.0" fill="none" stroke="rgb(0, 0, 0)" stroke-opacity="1.0" stroke-linecap="round" stroke-linejoin="round"/>
    <path d="M 96.24679565429688 48.553192138671875 C 75.69754791259766 61.215572357177734 89.79905700683594 40.0234375 56.70856475830078 112.3370132446289" stroke-width="3.0" fill="none" stroke="rgb(0, 0, 0)" stroke-opacity="1.0" stroke-linecap="round" stroke-linejoin="round"/>
  </g>
</svg>
