<?xml version="1.0" ?>
<svg xmlns="http://www.w3.org/2000/svg" version="1.1" width="224" height="224">
  <defs/>
  <g>
    <path d="M 133.0601348876953 111.63101959228516 C 178.26486206054688 107.62288665771484 163.32933044433594 104.47322082519531 173.5543975830078 113.09517669677734" stroke-width="3.0" fill="none" stroke="rgb(0, 0, 0)" stroke-opacity="1.0" stroke-linecap="round" stroke-linejoin="round"/>
    <path d="M 104.27757263183594 155.0913848876953 C 49.29306411743164 181.88800048828125 64.52943420410156 177.66807556152344 160.2877197265625 153.34912109375" stroke-width="3.0" fill="none" stroke="rgb(0, 0, 0)" stroke-opacity="1.0" stroke-linecap="round" stroke-linejoin="round"/>
    <path d="M 146.31329345703125 153.65093994140625 C 151.25216674804688 151.6455841064453 107.1018295288086 130.20687866210938 144.1042938232422 79.72759246826172" stroke-width="3.0" fill="none" stroke="rgb(0, 0, 0)" stroke-opacity="1.0" stroke-linecap="round" stroke-linejoin="round"/>
    <path d="M 154.63485717773438 146.47592163085938 C 178.70167541503906 96.99121856689453 154.8199462890625 108.78068542480469 187.90818786621094 130.8417510986328" stroke-width="3.0" fill="none" stroke="rgb(0, 0, 0)" stroke-opacity="1.0" stroke-linecap="round" stroke-linejoin="round"/>
    <path d="M 153.26524353027344 74.76814270019531 C 227.61752319335938 69.72747802734375 224.7600555419922 164.13331604003906 156.63348388671875 154.28729248046875" stroke-width="3.0" fill="none" stroke="rgb(0, 0, 0)" stroke-opacity="1.0" stroke-linecap="round" stroke-linejoin="round"/>
    <path d="M 88.68868255615234 174.8709259033203 C 88.9732666015625 168.3766632080078 92.6211166381836 199.37570190429688 109.5796890258789 157.61032104492188" stroke-width="3.0" fill="none" stroke="rgb(0, 0, 0)" stroke-opacity="1.0" stroke-linecap="round" stroke-linejoin="round"/>
    <path d="M 95.32328033447266 117.00572967529297 C 142.2368621826172 120.64503479003906 83.06151580810547 95.25730895996094 107.21623992919922 124.4952163696289" stroke-width="3.0" fill="none" stroke="rgb(0, 0, 0)" stroke-opacity="1.0" stroke-linecap="round" stroke-linejoin="round"/>
    <path d="M 55.6535758972168 183.0388946533203 C 237.34646606445312 181.311279296875 216.71241760253906 167.83560180664062 55.83316421508789 183.1920623779297" stroke-width="3.0" fill="none" stroke="rgb(0, 0, 0)" stroke-opacity="1.0" stroke-linecap="round" stroke-linejoin="round"/>
    <path d="M 179.27621459960938 175.43243408203125 C 168.5381317138672 229.79214477539062 120.25360107421875 166.0057830810547 150.4567413330078 195.6954803466797" stroke-width="3.0" fill="none" stroke="rgb(0, 0, 0)" stroke-opacity="1.0" stroke-linecap="round" stroke-linejoin="round"/>
    <path d="M 153.9460906982422 81.8613510131836 C 195.33628845214844 73.75764465332031 220.2018585205078 126.75235748291016 180.54888916015625 148.385498046875" stroke-width="3.0" fill="none" stroke="rgb(0, 0, 0)" stroke-opacity="1.0" stroke-linecap="round" stroke-linejoin="round"/>
    <path d="M 177.1325225830078 179.34532165527344 C 180.05850219726562 157.71067810058594 189.86260986328125 198.41119384765625 183.31643676757812 168.71116638183594" stroke-width="3.0" fill="none" stroke="rgb(0, 0, 0)" stroke-opacity="1.0" stroke-linecap="round" stroke-linejoin="round"/>
    <path d="M 137.85765075683594 163.11651611328125 C 109.55574798583984 167.33477783203125 133.17750549316406 161.87696838378906 147.75634765625 157.79144287109375" stroke-width="3.0" fill="none" stroke="rgb(0, 0, 0)" stroke-opacity="1.0" stroke-linecap="round" stroke-linejoin="round"/>
    <path d="M 166.13284301757812 148.16038513183594 C 166.63815307617188 111.67024993896484 164.50347900390625 90.93543243408203 174.54649353027344 147.8564453125" stroke-width="3.0" fill="none" stroke="rgb(0, 0, 0)" stroke-opacity="1.0" stroke-linecap="round" stroke-linejoin="round"/>
    <path d="M 149.4077606201172 173.44869995117188 C 157.9219512939453 212.05592346191406 180.7038116455078 164.48785400390625 151.0009002685547 172.3291473388672" stroke-width="3.0" fill="none" stroke="rgb(0, 0, 0)" stroke-opacity="1.0" stroke-linecap="round" stroke-linejoin="round"/>
    <path d="M 86.90414428710938 55.432899475097656 C 121.43492889404297 36.670326232910156 201.47291564941406 86.74881744384766 159.62033081054688 42.78786087036133" stroke-width="3.0" fill="none" stroke="rgb(0, 0, 0)" stroke-opacity="1.0" stroke-linecap="round" stroke-linejoin="round"/>
    <path d="M 61.2407341003418 24.31007957458496 C 80.59066009521484 23.57655143737793 74.920654296875 25.57305145263672 99.75798797607422 108.29902648925781" stroke-width="3.0" fill="none" stroke="rgb(0, 0, 0)" stroke-opacity="1.0" stroke-linecap="round" stroke-linejoin="round"/>
    <path d="M 61.91870880126953 25.851383209228516 C 115.0267105102539 26.28561019897461 44.68647003173828 31.76755714416504 61.58088684082031 24.849382400512695" stroke-width="3.0" fill="none" stroke="rgb(0, 0, 0)" stroke-opacity="1.0" stroke-linecap="round" stroke-linejoin="round"/>
    <path d="M 47.443668365478516 190.6435089111328 C 179.03770446777344 189.30104064941406 115.52902221679688 186.87193298339844 66.0011215209961 185.6207733154297" stroke-width="3.0" fill="none" stroke="rgb(0, 0, 0)" stroke-opacity="1.0" stroke-linecap="round" stroke-linejoin="round"/>
    <path d="M 134.17306518554688 188.32937622070312 C 148.23324584960938 137.07659912109375 198.35107421875 184.70159912109375 176.43536376953125 162.55947875976562" stroke-width="3.0" fill="none" stroke="rgb(0, 0, 0)" stroke-opacity="1.0" stroke-linecap="round" stroke-linejoin="round"/>
    <path d="M 50.76945495605469 189.33779907226562 C 126.86192321777344 182.10055541992188 117.07533264160156 163.6540985107422 54.77274703979492 175.37646484375" stroke-width="3.0" fill="none" stroke="rgb(0, 0, 0)" stroke-opacity="1.0" stroke-linecap="round" stroke-linejoin="round"/>
    <path d="M 51.472286224365234 189.06666564941406 C 132.13516235351562 186.7154083251953 107.96717071533203 170.45843505859375 54.97251510620117 179.2367401123047" stroke-width="3.0" fill="none" stroke="rgb(0, 0, 0)" stroke-opacity="1.0" stroke-linecap="round" stroke-linejoin="round"/>
    <path d="M 102.68789672851562 186.15228271484375 C 100.10469818115234 168.9524688720703 116.00183868408203 170.3623504638672 73.07548522949219 185.92391967773438" stroke-width="3.0" fill="none" stroke="rgb(0, 0, 0)" stroke-opacity="1.0" stroke-linecap="round" stroke-linejoin="round"/>
    <path d="M 184.19366455078125 95.1580810546875 C 180.59475708007812 100.96011352539062 197.500244140625 67.73991394042969 177.32595825195312 117.45018768310547" stroke-width="3.0" fill="none" stroke="rgb(0, 0, 0)" stroke-opacity="1.0" stroke-linecap="round" stroke-linejoin="round"/>
    <path d="M 100.66352844238281 173.53732299804688 C 40.337162017822266 183.4260711669922 50.98297882080078 189.00595092773438 61.97211456298828 173.45428466796875" stroke-width="3.0" fill="none" stroke="rgb(0, 0, 0)" stroke-opacity="1.0" stroke-linecap="round" stroke-linejoin="round"/>
    <path d="M 68.65037536621094 70.21369934082031 C 78.89652252197266 58.272544860839844 55.15935516357422 35.56065368652344 167.4105682373047 50.28929901123047" stroke-width="3.0" fill="none" stroke="rgb(0, 0, 0)" stroke-opacity="1.0" stroke-linecap="round" stroke-linejoin="round"/>
    <path d="M 127.09770202636719 154.79953002929688 C 150.18331909179688 151.3528594970703 129.7110595703125 141.1019744873047 123.31588745117188 165.03829956054688" stroke-width="3.0" fill="none" stroke="rgb(0, 0, 0)" stroke-opacity="1.0" stroke-linecap="round" stroke-linejoin="round"/>
    <path d="M 161.7891387939453 59.3984489440918 C 174.04116821289062 26.475215911865234 223.52163696289062 28.10039520263672 140.60528564453125 49.8148193359375" stroke-width="3.0" fill="none" stroke="rgb(0, 0, 0)" stroke-opacity="1.0" stroke-linecap="round" stroke-linejoin="round"/>
    <path d="M 56.033966064453125 175.91896057128906 C 51.94660186767578 185.91110229492188 38.356510162353516 202.7717742919922 52.76259994506836 176.24729919433594" stroke-width="3.0" fill="none" stroke="rgb(0, 0, 0)" stroke-opacity="1.0" stroke-linecap="round" stroke-linejoin="round"/>
    <path d="M 183.82554626464844 94.62703704833984 C 170.53909301757812 119.05634307861328 172.32359313964844 124.55132293701172 178.51553344726562 88.89314270019531" stroke-width="3.0" fill="none" stroke="rgb(0, 0, 0)" stroke-opacity="1.0" stroke-linecap="round" stroke-linejoin="round"/>
    <path d="M 140.2216796875 57.62617111206055 C 114.36975860595703 107.14900970458984 95.81974792480469 154.83843994140625 114.7243881225586 116.68201446533203" stroke-width="3.0" fill="none" stroke="rgb(0, 0, 0)" stroke-opacity="1.0" stroke-linecap="round" stroke-linejoin="round"/>
    <path d="M 168.68032836914062 38.21624755859375 C 160.98797607421875 67.68934631347656 115.1981430053711 -3.397879123687744 166.55845642089844 118.19198608398438" stroke-width="3.0" fill="none" stroke="rgb(0, 0, 0)" stroke-opacity="1.0" stroke-linecap="round" stroke-linejoin="round"/>
    <path d="M 46.672908782958984 186.07875061035156 C 114.09020233154297 186.2946014404297 126.99334716796875 199.029541015625 54.536895751953125 183.51466369628906" stroke-width="3.0" fill="none" stroke="rgb(0, 0, 0)" stroke-opacity="1.0" stroke-linecap="round" stroke-linejoin="round"/>
    <path d="M 94.03785705566406 54.02042007446289 C 116.69037628173828 146.8077392578125 128.86537170410156 130.3752899169922 54.57914733886719 114.65078735351562" stroke-width="3.0" fill="none" stroke="rgb(0, 0, 0)" stroke-opacity="1.0" stroke-linecap="round" stroke-linejoin="round"/>
    <path d="M 184.0207061767578 141.34591674804688 C 166.65892028808594 104.53356170654297 170.9967041015625 121.85131072998047 190.22442626953125 107.49801635742188" stroke-width="3.0" fill="none" stroke="rgb(0, 0, 0)" stroke-opacity="1.0" stroke-linecap="round" stroke-linejoin="round"/>
    <path d="M 79.43390655517578 29.475645065307617 C 59.495506286621094 35.82468795776367 56.83554458618164 14.381213188171387 78.65067291259766 31.058141708374023" stroke-width="3.0" fill="none" stroke="rgb(0, 0, 0)" stroke-opacity="1.0" stroke-linecap="round" stroke-linejoin="round"/>
    <path d="M 42.164886474609375 147.49937438964844 C 58.852073669433594 156.83216857910156 90.65033721923828 142.22784423828125 89.88720703125 116.7038345336914" stroke-width="3.0" fill="none" stroke="rgb(0, 0, 0)" stroke-opacity="1.0" stroke-linecap="round" stroke-linejoin="round"/>
    <path d="M 168.01040649414062 115.72205352783203 C 125.06620025634766 140.13198852539062 137.20172119140625 130.92892456054688 142.44168090820312 130.93081665039062" stroke-width="3.0" fill="none" stroke="rgb(0, 0, 0)" stroke-opacity="1.0" stroke-linecap="round" stroke-linejoin="round"/>
    <path d="M 49.648494720458984 150.12771606445312 C 16.393362045288086 139.26901245117188 3.9759249687194824 93.77384948730469 42.21098709106445 76.31793212890625" stroke-width="3.0" fill="none" stroke="rgb(0, 0, 0)" stroke-opacity="1.0" stroke-linecap="round" stroke-linejoin="round"/>
    <path d="M 182.1373291015625 183.3113555908203 C 171.1554718017578 200.89425659179688 197.25753784179688 184.75723266601562 169.93280029296875 164.4093780517578" stroke-width="3.0" fill="none" stroke="rgb(0, 0, 0)" stroke-opacity="1.0" stroke-linecap="round" stroke-linejoin="round"/>
    <path d="M 171.36656188964844 158.30345153808594 C 86.0713119506836 150.2137451171875 177.70208740234375 157.46664428710938 125.85417175292969 157.54795837402344" stroke-width="3.0" fill="none" stroke="rgb(0, 0, 0)" stroke-opacity="1.0" stroke-linecap="round" stroke-linejoin="round"/>
    <path d="M 28.713096618652344 83.92628479003906 C 93.89195251464844 40.43407440185547 124.95767974853516 149.2346649169922 82.62199401855469 122.99330139160156" stroke-width="3.0" fill="none" stroke="rgb(0, 0, 0)" stroke-opacity="1.0" stroke-linecap="round" stroke-linejoin="round"/>
    <path d="M 113.46076965332031 127.13233947753906 C 96.52809143066406 154.0967559814453 105.25122833251953 96.05232238769531 71.37688446044922 83.44263458251953" stroke-width="3.0" fill="none" stroke="rgb(0, 0, 0)" stroke-opacity="1.0" stroke-linecap="round" stroke-linejoin="round"/>
    <path d="M 70.69610595703125 180.1945343017578 C 99.08154296875 145.644775390625 120.92520141601562 158.50962829589844 136.9798583984375 150.0929718017578" stroke-width="3.0" fill="none" stroke="rgb(0, 0, 0)" stroke-opacity="1.0" stroke-linecap="round" stroke-linejoin="round"/>
    <path d="M 83.97164916992188 33.320526123046875 C 94.19285583496094 60.973201751708984 91.71723937988281 28.694747924804688 77.37411499023438 65.78003692626953" stroke-width="3.0" fill="none" stroke="rgb(0, 0, 0)" stroke-opacity="1.0" stroke-linecap="round" stroke-linejoin="round"/>
    <path d="M 145.566650390625 148.64080810546875 C 206.7381134033203 169.8097686767578 134.93319702148438 150.45736694335938 152.79495239257812 180.2569122314453" stroke-width="3.0" fill="none" stroke="rgb(0, 0, 0)" stroke-opacity="1.0" stroke-linecap="round" stroke-linejoin="round"/>
    <path d="M 111.3419189453125 115.73947143554688 C 122.83143615722656 168.8551025390625 122.70899963378906 122.69699096679688 105.87751007080078 126.3145523071289" stroke-width="3.0" fill="none" stroke="rgb(0, 0, 0)" stroke-opacity="1.0" stroke-linecap="round" stroke-linejoin="round"/>
    <path d="M 177.70362854003906 54.43328094482422 C 171.4799041748047 46.944580078125 187.4655303955078 36.285743713378906 166.92193603515625 46.55342102050781" stroke-width="3.0" fill="none" stroke="rgb(0, 0, 0)" stroke-opacity="1.0" stroke-linecap="round" stroke-linejoin="round"/>
    <path d="M 91.98191833496094 54.39604187011719 C 80.96891021728516 64.82389068603516 88.20401763916016 45.243080139160156 59.23268127441406 113.5011978149414" stroke-width="3.0" fill="none" stroke="rgb(0, 0, 0)" stroke-opacity="1.0" stroke-linecap="round" stroke-linejoin="round"/>
  </g>
</svg>
