<?xml version="1.0" ?>
<svg xmlns="http://www.w3.org/2000/svg" version="1.1" width="224" height="224">
  <defs/>
  <g>
    <path d="M 136.10520935058594 116.9148178100586 C 186.37966918945312 114.25577545166016 170.21900939941406 108.00088500976562 175.76263427734375 112.8183364868164" stroke-width="3.0" fill="none" stroke="rgb(0, 0, 0)" stroke-opacity="1.0" stroke-linecap="round" stroke-linejoin="round"/>
    <path d="M 107.09679412841797 155.21304321289062 C 54.86849594116211 173.59320068359375 62.12013244628906 165.33270263671875 153.423828125 146.13873291015625" stroke-width="3.0" fill="none" stroke="rgb(0, 0, 0)" stroke-opacity="1.0" stroke-linecap="round" stroke-linejoin="round"/>
    <path d="M 151.50172424316406 153.74847412109375 C 152.13916015625 149.0060577392578 104.75112915039062 129.0189208984375 144.0267791748047 77.2652816772461" stroke-width="3.0" fill="none" stroke="rgb(0, 0, 0)" stroke-opacity="1.0" stroke-linecap="round" stroke-linejoin="round"/>
    <path d="M 152.25523376464844 142.4919891357422 C 179.49562072753906 98.18301391601562 158.57073974609375 108.7612075805664 191.4466094970703 126.20806121826172" stroke-width="3.0" fill="none" stroke="rgb(0, 0, 0)" stroke-opacity="1.0" stroke-linecap="round" stroke-linejoin="round"/>
    <path d="M 152.1465606689453 73.07137298583984 C 228.6999053955078 71.51647186279297 223.71653747558594 164.89862060546875 154.5738067626953 155.5103302001953" stroke-width="3.0" fill="none" stroke="rgb(0, 0, 0)" stroke-opacity="1.0" stroke-linecap="round" stroke-linejoin="round"/>
    <path d="M 95.04569244384766 172.1321258544922 C 85.75304412841797 167.4754180908203 87.81686401367188 194.6007080078125 109.98331451416016 155.9020538330078" stroke-width="3.0" fill="none" stroke="rgb(0, 0, 0)" stroke-opacity="1.0" stroke-linecap="round" stroke-linejoin="round"/>
    <path d="M 90.6343765258789 114.582275390625 C 144.84970092773438 121.53804016113281 89.27616119384766 104.94457244873047 109.72308349609375 123.48601531982422" stroke-width="3.0" fill="none" stroke="rgb(0, 0, 0)" stroke-opacity="1.0" stroke-linecap="round" stroke-linejoin="round"/>
    <path d="M 51.869834899902344 177.78924560546875 C 229.95603942871094 163.78787231445312 210.56149291992188 159.38211059570312 52.56437683105469 174.1865692138672" stroke-width="3.0" fill="none" stroke="rgb(0, 0, 0)" stroke-opacity="1.0" stroke-linecap="round" stroke-linejoin="round"/>
    <path d="M 182.23062133789062 176.17306518554688 C 168.11561584472656 228.9340362548828 120.50814056396484 164.0194549560547 151.50799560546875 193.87887573242188" stroke-width="3.0" fill="none" stroke="rgb(0, 0, 0)" stroke-opacity="1.0" stroke-linecap="round" stroke-linejoin="round"/>
    <path d="M 153.55703735351562 83.083740234375 C 194.40447998046875 75.69500732421875 219.88232421875 127.36647033691406 178.83538818359375 149.718505859375" stroke-width="3.0" fill="none" stroke="rgb(0, 0, 0)" stroke-opacity="1.0" stroke-linecap="round" stroke-linejoin="round"/>
    <path d="M 175.87794494628906 174.59339904785156 C 173.785400390625 159.0452880859375 187.53945922851562 198.73008728027344 181.9759521484375 166.902587890625" stroke-width="3.0" fill="none" stroke="rgb(0, 0, 0)" stroke-opacity="1.0" stroke-linecap="round" stroke-linejoin="round"/>
    <path d="M 133.83627319335938 165.504150390625 C 111.54673767089844 174.62474060058594 134.48690795898438 162.96463012695312 145.8623046875 155.23849487304688" stroke-width="3.0" fill="none" stroke="rgb(0, 0, 0)" stroke-opacity="1.0" stroke-linecap="round" stroke-linejoin="round"/>
    <path d="M 163.4070281982422 147.19740295410156 C 174.09051513671875 114.26314544677734 164.20266723632812 92.79898071289062 173.715576171875 146.96424865722656" stroke-width="3.0" fill="none" stroke="rgb(0, 0, 0)" stroke-opacity="1.0" stroke-linecap="round" stroke-linejoin="round"/>
    <path d="M 143.49794006347656 178.2007598876953 C 157.94825744628906 215.6241912841797 194.9105987548828 158.8592529296875 149.81600952148438 172.27464294433594" stroke-width="3.0" fill="none" stroke="rgb(0, 0, 0)" stroke-opacity="1.0" stroke-linecap="round" stroke-linejoin="round"/>
    <path d="M 86.81236267089844 54.40873336791992 C 107.96276092529297 39.03227615356445 196.110107421875 83.92068481445312 161.40171813964844 42.78873062133789" stroke-width="3.0" fill="none" stroke="rgb(0, 0, 0)" stroke-opacity="1.0" stroke-linecap="round" stroke-linejoin="round"/>
    <path d="M 61.46485137939453 26.094768524169922 C 83.15658569335938 31.590965270996094 76.0400390625 26.61060333251953 100.5550537109375 110.2735366821289" stroke-width="3.0" fill="none" stroke="rgb(0, 0, 0)" stroke-opacity="1.0" stroke-linecap="round" stroke-linejoin="round"/>
    <path d="M 63.42742919921875 25.080039978027344 C 129.26548767089844 31.15425682067871 49.042415618896484 35.140010833740234 62.47895431518555 25.94573211669922" stroke-width="3.0" fill="none" stroke="rgb(0, 0, 0)" stroke-opacity="1.0" stroke-linecap="round" stroke-linejoin="round"/>
    <path d="M 44.49225997924805 190.52256774902344 C 181.2122802734375 187.80882263183594 116.17603302001953 195.79324340820312 67.55109405517578 187.81646728515625" stroke-width="3.0" fill="none" stroke="rgb(0, 0, 0)" stroke-opacity="1.0" stroke-linecap="round" stroke-linejoin="round"/>
    <path d="M 132.54124450683594 190.93116760253906 C 139.2906494140625 144.419189453125 201.9852294921875 190.6160430908203 171.870849609375 165.38336181640625" stroke-width="3.0" fill="none" stroke="rgb(0, 0, 0)" stroke-opacity="1.0" stroke-linecap="round" stroke-linejoin="round"/>
    <path d="M 48.71843719482422 184.98440551757812 C 122.07933044433594 182.68960571289062 112.53742218017578 181.92408752441406 54.661319732666016 177.1897430419922" stroke-width="3.0" fill="none" stroke="rgb(0, 0, 0)" stroke-opacity="1.0" stroke-linecap="round" stroke-linejoin="round"/>
    <path d="M 48.10557174682617 189.15103149414062 C 130.6345672607422 189.67208862304688 107.66295623779297 178.804931640625 56.144561767578125 183.9467315673828" stroke-width="3.0" fill="none" stroke="rgb(0, 0, 0)" stroke-opacity="1.0" stroke-linecap="round" stroke-linejoin="round"/>
    <path d="M 100.88420104980469 188.03921508789062 C 100.14081573486328 162.5264892578125 114.95384979248047 162.23255920410156 67.38681030273438 177.92391967773438" stroke-width="3.0" fill="none" stroke="rgb(0, 0, 0)" stroke-opacity="1.0" stroke-linecap="round" stroke-linejoin="round"/>
    <path d="M 184.57345581054688 95.26248931884766 C 181.73931884765625 103.36644744873047 196.2323455810547 68.83094024658203 175.09303283691406 115.08110809326172" stroke-width="3.0" fill="none" stroke="rgb(0, 0, 0)" stroke-opacity="1.0" stroke-linecap="round" stroke-linejoin="round"/>
    <path d="M 97.5150375366211 161.59132385253906 C 31.913522720336914 174.6868133544922 49.57291030883789 184.62728881835938 63.675968170166016 180.732421875" stroke-width="3.0" fill="none" stroke="rgb(0, 0, 0)" stroke-opacity="1.0" stroke-linecap="round" stroke-linejoin="round"/>
    <path d="M 71.59305572509766 75.04731750488281 C 87.07117462158203 58.49008560180664 63.10224914550781 30.47126007080078 165.1182098388672 50.089210510253906" stroke-width="3.0" fill="none" stroke="rgb(0, 0, 0)" stroke-opacity="1.0" stroke-linecap="round" stroke-linejoin="round"/>
    <path d="M 130.3115234375 154.47145080566406 C 152.98291015625 154.3016357421875 128.4311065673828 142.1887969970703 120.76470184326172 163.86651611328125" stroke-width="3.0" fill="none" stroke="rgb(0, 0, 0)" stroke-opacity="1.0" stroke-linecap="round" stroke-linejoin="round"/>
    <path d="M 156.72080993652344 58.75288772583008 C 177.0935516357422 31.172380447387695 219.6991729736328 26.28651237487793 143.42935180664062 51.17597198486328" stroke-width="3.0" fill="none" stroke="rgb(0, 0, 0)" stroke-opacity="1.0" stroke-linecap="round" stroke-linejoin="round"/>
    <path d="M 58.342708587646484 176.50599670410156 C 53.05010223388672 184.96128845214844 39.115509033203125 201.35557556152344 50.41511535644531 175.38720703125" stroke-width="3.0" fill="none" stroke="rgb(0, 0, 0)" stroke-opacity="1.0" stroke-linecap="round" stroke-linejoin="round"/>
    <path d="M 188.37191772460938 99.10908508300781 C 172.84303283691406 120.84345245361328 175.71475219726562 127.38526153564453 178.4964141845703 89.61660766601562" stroke-width="3.0" fill="none" stroke="rgb(0, 0, 0)" stroke-opacity="1.0" stroke-linecap="round" stroke-linejoin="round"/>
    <path d="M 139.32334899902344 58.20037078857422 C 113.36605072021484 108.2755355834961 97.78234100341797 163.267333984375 108.13648223876953 115.21988677978516" stroke-width="3.0" fill="none" stroke="rgb(0, 0, 0)" stroke-opacity="1.0" stroke-linecap="round" stroke-linejoin="round"/>
    <path d="M 175.6376953125 36.62250518798828 C 159.61651611328125 70.6633071899414 112.80473327636719 -6.563945770263672 167.01510620117188 117.91851806640625" stroke-width="3.0" fill="none" stroke="rgb(0, 0, 0)" stroke-opacity="1.0" stroke-linecap="round" stroke-linejoin="round"/>
    <path d="M 63.65486526489258 174.2576904296875 C 109.02106475830078 171.7338104248047 118.43977355957031 194.90184020996094 49.63660430908203 184.63929748535156" stroke-width="3.0" fill="none" stroke="rgb(0, 0, 0)" stroke-opacity="1.0" stroke-linecap="round" stroke-linejoin="round"/>
    <path d="M 92.4352798461914 52.933048248291016 C 112.8737564086914 142.78500366210938 129.48080444335938 118.63463592529297 53.570823669433594 116.46222686767578" stroke-width="3.0" fill="none" stroke="rgb(0, 0, 0)" stroke-opacity="1.0" stroke-linecap="round" stroke-linejoin="round"/>
    <path d="M 185.0746612548828 141.535400390625 C 164.9106903076172 105.70636749267578 170.8662872314453 125.61485290527344 191.90579223632812 109.73629760742188" stroke-width="3.0" fill="none" stroke="rgb(0, 0, 0)" stroke-opacity="1.0" stroke-linecap="round" stroke-linejoin="round"/>
    <path d="M 80.00398254394531 32.16130065917969 C 60.19301223754883 35.63669967651367 56.74750900268555 22.709075927734375 86.57598114013672 30.286100387573242" stroke-width="3.0" fill="none" stroke="rgb(0, 0, 0)" stroke-opacity="1.0" stroke-linecap="round" stroke-linejoin="round"/>
    <path d="M 40.98430633544922 148.2611846923828 C 60.67390823364258 156.82833862304688 89.20384216308594 141.59266662597656 95.2004623413086 116.64187622070312" stroke-width="3.0" fill="none" stroke="rgb(0, 0, 0)" stroke-opacity="1.0" stroke-linecap="round" stroke-linejoin="round"/>
    <path d="M 167.0073699951172 116.67659759521484 C 120.64083099365234 134.24501037597656 133.99234008789062 127.37407684326172 142.20095825195312 126.54878234863281" stroke-width="3.0" fill="none" stroke="rgb(0, 0, 0)" stroke-opacity="1.0" stroke-linecap="round" stroke-linejoin="round"/>
    <path d="M 45.91522216796875 149.4307403564453 C 12.911179542541504 142.0603790283203 2.7346112728118896 95.31665802001953 42.67522048950195 75.86406707763672" stroke-width="3.0" fill="none" stroke="rgb(0, 0, 0)" stroke-opacity="1.0" stroke-linecap="round" stroke-linejoin="round"/>
    <path d="M 185.17396545410156 185.8661651611328 C 169.75665283203125 189.74037170410156 196.9060821533203 184.36903381347656 170.48049926757812 163.84605407714844" stroke-width="3.0" fill="none" stroke="rgb(0, 0, 0)" stroke-opacity="1.0" stroke-linecap="round" stroke-linejoin="round"/>
    <path d="M 176.93931579589844 155.83644104003906 C 83.63832092285156 152.672119140625 175.19418334960938 160.3834228515625 129.2783203125 159.9528350830078" stroke-width="3.0" fill="none" stroke="rgb(0, 0, 0)" stroke-opacity="1.0" stroke-linecap="round" stroke-linejoin="round"/>
    <path d="M 32.062774658203125 84.09907531738281 C 94.2464370727539 36.697994232177734 120.21849822998047 142.42001342773438 91.4697036743164 115.05039978027344" stroke-width="3.0" fill="none" stroke="rgb(0, 0, 0)" stroke-opacity="1.0" stroke-linecap="round" stroke-linejoin="round"/>
    <path d="M 109.24944305419922 120.54884338378906 C 91.2931900024414 146.85948181152344 102.37171936035156 98.29092407226562 66.59569549560547 80.4688949584961" stroke-width="3.0" fill="none" stroke="rgb(0, 0, 0)" stroke-opacity="1.0" stroke-linecap="round" stroke-linejoin="round"/>
    <path d="M 68.28462219238281 186.1724395751953 C 89.58704376220703 142.24159240722656 114.55665588378906 154.32261657714844 136.506103515625 154.8408966064453" stroke-width="3.0" fill="none" stroke="rgb(0, 0, 0)" stroke-opacity="1.0" stroke-linecap="round" stroke-linejoin="round"/>
    <path d="M 85.322021484375 37.15296936035156 C 95.20606994628906 65.8619155883789 83.01663970947266 29.487884521484375 68.35675811767578 66.57291412353516" stroke-width="3.0" fill="none" stroke="rgb(0, 0, 0)" stroke-opacity="1.0" stroke-linecap="round" stroke-linejoin="round"/>
    <path d="M 145.0203094482422 144.88818359375 C 215.24362182617188 173.16468811035156 125.54827880859375 148.56776428222656 149.30642700195312 175.26451110839844" stroke-width="3.0" fill="none" stroke="rgb(0, 0, 0)" stroke-opacity="1.0" stroke-linecap="round" stroke-linejoin="round"/>
    <path d="M 114.04853057861328 115.17626190185547 C 127.83389282226562 169.64158630371094 127.22554779052734 121.94719696044922 107.5556869506836 124.23411560058594" stroke-width="3.0" fill="none" stroke="rgb(0, 0, 0)" stroke-opacity="1.0" stroke-linecap="round" stroke-linejoin="round"/>
    <path d="M 175.76669311523438 52.74284744262695 C 169.32711791992188 45.0810546875 188.16793823242188 34.97471618652344 165.4984893798828 44.01128387451172" stroke-width="3.0" fill="none" stroke="rgb(0, 0, 0)" stroke-opacity="1.0" stroke-linecap="round" stroke-linejoin="round"/>
    <path d="M 91.54117584228516 56.18156433105469 C 80.74885559082031 61.671199798583984 90.40083312988281 46.01355743408203 58.08894348144531 112.47993469238281" stroke-width="3.0" fill="none" stroke="rgb(0, 0, 0)" stroke-opacity="1.0" stroke-linecap="round" stroke-linejoin="round"/>
  </g>
</svg>
