<?xml version="1.0" ?>
<svg xmlns="http://www.w3.org/2000/svg" version="1.1" width="224" height="224">
  <defs/>
  <g>
    <path d="M 138.49057006835938 119.98933410644531 C 200.4094696044922 115.43647766113281 175.8548126220703 108.72216796875 175.5349578857422 123.33165740966797" stroke-width="3.0" fill="none" stroke="rgb(0, 0, 0)" stroke-opacity="1.0" stroke-linecap="round" stroke-linejoin="round"/>
    <path d="M 116.97290802001953 156.8074951171875 C 48.59403610229492 164.8917694091797 74.1117935180664 180.66708374023438 156.41629028320312 155.73419189453125" stroke-width="3.0" fill="none" stroke="rgb(0, 0, 0)" stroke-opacity="1.0" stroke-linecap="round" stroke-linejoin="round"/>
    <path d="M 175.26991271972656 148.30313110351562 C 144.3615264892578 155.4243621826172 98.10871887207031 126.36309051513672 146.65757751464844 70.4844970703125" stroke-width="3.0" fill="none" stroke="rgb(0, 0, 0)" stroke-opacity="1.0" stroke-linecap="round" stroke-linejoin="round"/>
    <path d="M 150.2567138671875 142.60435485839844 C 177.6085205078125 98.5181655883789 154.03057861328125 119.94766235351562 190.4660186767578 128.4929962158203" stroke-width="3.0" fill="none" stroke="rgb(0, 0, 0)" stroke-opacity="1.0" stroke-linecap="round" stroke-linejoin="round"/>
    <path d="M 157.27911376953125 77.3785629272461 C 223.5579376220703 69.11312103271484 232.28826904296875 168.3878173828125 145.9925537109375 156.45538330078125" stroke-width="3.0" fill="none" stroke="rgb(0, 0, 0)" stroke-opacity="1.0" stroke-linecap="round" stroke-linejoin="round"/>
    <path d="M 105.61054992675781 159.14471435546875 C 46.99522018432617 170.007568359375 83.23348236083984 183.17135620117188 128.32736206054688 161.38973999023438" stroke-width="3.0" fill="none" stroke="rgb(0, 0, 0)" stroke-opacity="1.0" stroke-linecap="round" stroke-linejoin="round"/>
    <path d="M 93.97218322753906 128.28091430664062 C 138.4943084716797 123.94569396972656 84.31366729736328 102.57925415039062 115.75447082519531 121.46477508544922" stroke-width="3.0" fill="none" stroke="rgb(0, 0, 0)" stroke-opacity="1.0" stroke-linecap="round" stroke-linejoin="round"/>
    <path d="M 59.36514663696289 171.65380859375 C 167.72543334960938 142.36065673828125 190.7832489013672 156.28236389160156 54.8380126953125 168.53887939453125" stroke-width="3.0" fill="none" stroke="rgb(0, 0, 0)" stroke-opacity="1.0" stroke-linecap="round" stroke-linejoin="round"/>
    <path d="M 181.6337127685547 184.64285278320312 C 150.7317352294922 225.39633178710938 134.73583984375 160.64144897460938 145.73988342285156 191.5869903564453" stroke-width="3.0" fill="none" stroke="rgb(0, 0, 0)" stroke-opacity="1.0" stroke-linecap="round" stroke-linejoin="round"/>
    <path d="M 157.71104431152344 85.40736389160156 C 200.24424743652344 73.42041015625 222.47267150878906 140.03016662597656 169.2104949951172 149.16661071777344" stroke-width="3.0" fill="none" stroke="rgb(0, 0, 0)" stroke-opacity="1.0" stroke-linecap="round" stroke-linejoin="round"/>
    <path d="M 177.9639434814453 182.89944458007812 C 181.96461486816406 160.4774932861328 168.3152618408203 219.86236572265625 181.67295837402344 174.25523376464844" stroke-width="3.0" fill="none" stroke="rgb(0, 0, 0)" stroke-opacity="1.0" stroke-linecap="round" stroke-linejoin="round"/>
    <path d="M 96.61671447753906 168.81640625 C 85.65371704101562 168.67918395996094 91.39965057373047 155.9685821533203 125.71074676513672 155.36273193359375" stroke-width="3.0" fill="none" stroke="rgb(0, 0, 0)" stroke-opacity="1.0" stroke-linecap="round" stroke-linejoin="round"/>
    <path d="M 160.2897186279297 148.57003784179688 C 180.6383819580078 94.6653823852539 171.2390899658203 82.22235107421875 174.38735961914062 148.9103546142578" stroke-width="3.0" fill="none" stroke="rgb(0, 0, 0)" stroke-opacity="1.0" stroke-linecap="round" stroke-linejoin="round"/>
    <path d="M 143.62803649902344 178.0762176513672 C 166.3317413330078 222.43582153320312 189.58995056152344 152.52212524414062 143.49844360351562 183.4175262451172" stroke-width="3.0" fill="none" stroke="rgb(0, 0, 0)" stroke-opacity="1.0" stroke-linecap="round" stroke-linejoin="round"/>
    <path d="M 91.78215789794922 55.36173629760742 C 122.52125549316406 35.06064224243164 195.9741668701172 92.19384765625 164.9929962158203 36.403404235839844" stroke-width="3.0" fill="none" stroke="rgb(0, 0, 0)" stroke-opacity="1.0" stroke-linecap="round" stroke-linejoin="round"/>
    <path d="M 66.76615905761719 27.170005798339844 C 74.43656158447266 25.559200286865234 80.7127685546875 29.95102310180664 110.48870849609375 120.95704650878906" stroke-width="3.0" fill="none" stroke="rgb(0, 0, 0)" stroke-opacity="1.0" stroke-linecap="round" stroke-linejoin="round"/>
    <path d="M 61.450233459472656 26.0046443939209 C 121.49180603027344 29.095035552978516 33.99652099609375 34.20509719848633 72.3298110961914 27.381725311279297" stroke-width="3.0" fill="none" stroke="rgb(0, 0, 0)" stroke-opacity="1.0" stroke-linecap="round" stroke-linejoin="round"/>
    <path d="M 76.51316833496094 190.07371520996094 C 196.97402954101562 192.45950317382812 152.8525848388672 183.7572784423828 53.40635681152344 184.83180236816406" stroke-width="3.0" fill="none" stroke="rgb(0, 0, 0)" stroke-opacity="1.0" stroke-linecap="round" stroke-linejoin="round"/>
    <path d="M 140.00482177734375 189.29771423339844 C 143.77166748046875 134.0198974609375 212.0666046142578 189.61940002441406 160.95045471191406 165.40882873535156" stroke-width="3.0" fill="none" stroke="rgb(0, 0, 0)" stroke-opacity="1.0" stroke-linecap="round" stroke-linejoin="round"/>
    <path d="M 55.95644760131836 180.61875915527344 C 145.4969482421875 193.69415283203125 135.57740783691406 198.46470642089844 53.32957077026367 178.6364288330078" stroke-width="3.0" fill="none" stroke="rgb(0, 0, 0)" stroke-opacity="1.0" stroke-linecap="round" stroke-linejoin="round"/>
    <path d="M 44.91838836669922 192.39158630371094 C 208.48280334472656 206.13626098632812 173.72015380859375 157.71066284179688 63.45346450805664 178.29580688476562" stroke-width="3.0" fill="none" stroke="rgb(0, 0, 0)" stroke-opacity="1.0" stroke-linecap="round" stroke-linejoin="round"/>
    <path d="M 99.00117492675781 186.18002319335938 C 110.06864166259766 137.9895782470703 127.2576675415039 156.42935180664062 77.31173706054688 171.36337280273438" stroke-width="3.0" fill="none" stroke="rgb(0, 0, 0)" stroke-opacity="1.0" stroke-linecap="round" stroke-linejoin="round"/>
    <path d="M 188.48863220214844 93.39569854736328 C 180.28311157226562 86.78382110595703 150.9382781982422 58.6151237487793 173.21188354492188 112.50652313232422" stroke-width="3.0" fill="none" stroke="rgb(0, 0, 0)" stroke-opacity="1.0" stroke-linecap="round" stroke-linejoin="round"/>
    <path d="M 110.23633575439453 154.48931884765625 C 48.50983810424805 194.01048278808594 26.83454704284668 191.59085083007812 92.59256744384766 184.31320190429688" stroke-width="3.0" fill="none" stroke="rgb(0, 0, 0)" stroke-opacity="1.0" stroke-linecap="round" stroke-linejoin="round"/>
    <path d="M 65.75758361816406 111.24016571044922 C 85.9548110961914 60.87283706665039 61.549835205078125 37.69045639038086 173.02186584472656 49.501991271972656" stroke-width="3.0" fill="none" stroke="rgb(0, 0, 0)" stroke-opacity="1.0" stroke-linecap="round" stroke-linejoin="round"/>
    <path d="M 129.3294677734375 160.3013458251953 C 176.43377685546875 160.10589599609375 128.1450653076172 145.88832092285156 117.02611541748047 164.79527282714844" stroke-width="3.0" fill="none" stroke="rgb(0, 0, 0)" stroke-opacity="1.0" stroke-linecap="round" stroke-linejoin="round"/>
    <path d="M 149.18238830566406 63.46426010131836 C 181.431396484375 30.926193237304688 211.42929077148438 37.5349235534668 143.33847045898438 48.40248489379883" stroke-width="3.0" fill="none" stroke="rgb(0, 0, 0)" stroke-opacity="1.0" stroke-linecap="round" stroke-linejoin="round"/>
    <path d="M 58.38093566894531 170.95875549316406 C 52.91651153564453 167.79986572265625 42.340110778808594 209.73916625976562 53.245086669921875 174.22125244140625" stroke-width="3.0" fill="none" stroke="rgb(0, 0, 0)" stroke-opacity="1.0" stroke-linecap="round" stroke-linejoin="round"/>
    <path d="M 182.27011108398438 94.62368774414062 C 170.46571350097656 115.73590087890625 158.55271911621094 121.20230865478516 190.72518920898438 101.11308288574219" stroke-width="3.0" fill="none" stroke="rgb(0, 0, 0)" stroke-opacity="1.0" stroke-linecap="round" stroke-linejoin="round"/>
    <path d="M 150.71414184570312 44.16051483154297 C 108.73333740234375 107.44915771484375 96.27949523925781 150.0143585205078 100.60533142089844 122.24520874023438" stroke-width="3.0" fill="none" stroke="rgb(0, 0, 0)" stroke-opacity="1.0" stroke-linecap="round" stroke-linejoin="round"/>
    <path d="M 176.5631866455078 38.31547164916992 C 128.59742736816406 59.54792404174805 129.61102294921875 -0.7069039344787598 165.43515014648438 122.58271026611328" stroke-width="3.0" fill="none" stroke="rgb(0, 0, 0)" stroke-opacity="1.0" stroke-linecap="round" stroke-linejoin="round"/>
    <path d="M 55.49070739746094 169.734130859375 C 129.62448120117188 166.81661987304688 118.83641052246094 182.1668243408203 54.96417236328125 174.1368865966797" stroke-width="3.0" fill="none" stroke="rgb(0, 0, 0)" stroke-opacity="1.0" stroke-linecap="round" stroke-linejoin="round"/>
    <path d="M 87.8770751953125 59.24082565307617 C 109.2594985961914 144.14366149902344 140.48443603515625 122.79947662353516 60.07291030883789 116.31722259521484" stroke-width="3.0" fill="none" stroke="rgb(0, 0, 0)" stroke-opacity="1.0" stroke-linecap="round" stroke-linejoin="round"/>
    <path d="M 182.30665588378906 140.04380798339844 C 168.62823486328125 107.5948715209961 156.7730255126953 129.9894561767578 196.80801391601562 112.60668182373047" stroke-width="3.0" fill="none" stroke="rgb(0, 0, 0)" stroke-opacity="1.0" stroke-linecap="round" stroke-linejoin="round"/>
    <path d="M 79.27841186523438 29.267274856567383 C 79.17521667480469 45.918785095214844 29.04852294921875 12.852439880371094 94.59966278076172 26.7965145111084" stroke-width="3.0" fill="none" stroke="rgb(0, 0, 0)" stroke-opacity="1.0" stroke-linecap="round" stroke-linejoin="round"/>
    <path d="M 37.56332778930664 145.49073791503906 C 65.57019805908203 159.50672912597656 88.94232177734375 138.88478088378906 96.87094116210938 113.59650421142578" stroke-width="3.0" fill="none" stroke="rgb(0, 0, 0)" stroke-opacity="1.0" stroke-linecap="round" stroke-linejoin="round"/>
    <path d="M 150.39877319335938 76.44209289550781 C 109.9847640991211 99.0738296508789 116.26435852050781 128.59898376464844 160.92800903320312 118.4212875366211" stroke-width="3.0" fill="none" stroke="rgb(0, 0, 0)" stroke-opacity="1.0" stroke-linecap="round" stroke-linejoin="round"/>
    <path d="M 45.10157775878906 148.20733642578125 C 14.235142707824707 136.34744262695312 8.308144569396973 97.79879760742188 38.85964584350586 76.73438262939453" stroke-width="3.0" fill="none" stroke="rgb(0, 0, 0)" stroke-opacity="1.0" stroke-linecap="round" stroke-linejoin="round"/>
    <path d="M 182.46861267089844 187.3452606201172 C 154.3641357421875 146.81402587890625 187.3821258544922 173.24859619140625 174.45924377441406 167.18109130859375" stroke-width="3.0" fill="none" stroke="rgb(0, 0, 0)" stroke-opacity="1.0" stroke-linecap="round" stroke-linejoin="round"/>
    <path d="M 164.9156036376953 158.7118377685547 C 65.52186584472656 153.31393432617188 146.7030792236328 166.05230712890625 123.74052429199219 157.3643341064453" stroke-width="3.0" fill="none" stroke="rgb(0, 0, 0)" stroke-opacity="1.0" stroke-linecap="round" stroke-linejoin="round"/>
    <path d="M 33.21564483642578 81.72648620605469 C 95.2942123413086 44.4423828125 99.2635269165039 136.1153564453125 102.28205871582031 113.03112030029297" stroke-width="3.0" fill="none" stroke="rgb(0, 0, 0)" stroke-opacity="1.0" stroke-linecap="round" stroke-linejoin="round"/>
    <path d="M 109.10721588134766 129.7705841064453 C 84.35131072998047 136.48629760742188 106.3596420288086 110.70191955566406 73.46346282958984 86.21055603027344" stroke-width="3.0" fill="none" stroke="rgb(0, 0, 0)" stroke-opacity="1.0" stroke-linecap="round" stroke-linejoin="round"/>
    <path d="M 69.65410614013672 187.6565399169922 C 92.04862976074219 148.12403869628906 109.5648422241211 147.8820037841797 146.8544464111328 154.4955596923828" stroke-width="3.0" fill="none" stroke="rgb(0, 0, 0)" stroke-opacity="1.0" stroke-linecap="round" stroke-linejoin="round"/>
    <path d="M 83.7844009399414 34.58121871948242 C 96.70990753173828 71.91946411132812 102.90673828125 24.564682006835938 75.70923614501953 83.01924896240234" stroke-width="3.0" fill="none" stroke="rgb(0, 0, 0)" stroke-opacity="1.0" stroke-linecap="round" stroke-linejoin="round"/>
    <path d="M 139.78619384765625 153.48648071289062 C 224.748291015625 175.63092041015625 121.66446685791016 151.4198760986328 153.99571228027344 189.20298767089844" stroke-width="3.0" fill="none" stroke="rgb(0, 0, 0)" stroke-opacity="1.0" stroke-linecap="round" stroke-linejoin="round"/>
    <path d="M 117.57593536376953 115.44223022460938 C 110.21559143066406 164.57235717773438 135.15762329101562 120.63103485107422 90.71183776855469 120.8303451538086" stroke-width="3.0" fill="none" stroke="rgb(0, 0, 0)" stroke-opacity="1.0" stroke-linecap="round" stroke-linejoin="round"/>
    <path d="M 178.1685028076172 54.98406982421875 C 172.1985321044922 54.19476318359375 200.33799743652344 5.23072624206543 169.58685302734375 60.474456787109375" stroke-width="3.0" fill="none" stroke="rgb(0, 0, 0)" stroke-opacity="1.0" stroke-linecap="round" stroke-linejoin="round"/>
    <path d="M 80.3415298461914 50.22403335571289 C 72.48869323730469 59.45404052734375 86.90265655517578 44.400672912597656 54.75321960449219 115.30055236816406" stroke-width="3.0" fill="none" stroke="rgb(0, 0, 0)" stroke-opacity="1.0" stroke-linecap="round" stroke-linejoin="round"/>
  </g>
</svg>
