<?xml version="1.0" ?>
<svg xmlns="http://www.w3.org/2000/svg" version="1.1" width="224" height="224">
  <defs/>
  <g>
    <path d="M 134.71609497070312 119.18307495117188 C 179.535400390625 107.18899536132812 173.35899353027344 97.97740936279297 179.2161407470703 115.1217269897461" stroke-width="3.0" fill="none" stroke="rgb(0, 0, 0)" stroke-opacity="1.0" stroke-linecap="round" stroke-linejoin="round"/>
    <path d="M 101.44374084472656 154.6664581298828 C 55.043643951416016 190.1033935546875 74.84465789794922 187.1603546142578 152.27757263183594 152.9221649169922" stroke-width="3.0" fill="none" stroke="rgb(0, 0, 0)" stroke-opacity="1.0" stroke-linecap="round" stroke-linejoin="round"/>
    <path d="M 146.01132202148438 148.70326232910156 C 151.84375 155.1573944091797 106.80867767333984 129.93338012695312 147.6527557373047 86.24674987792969" stroke-width="3.0" fill="none" stroke="rgb(0, 0, 0)" stroke-opacity="1.0" stroke-linecap="round" stroke-linejoin="round"/>
    <path d="M 151.41197204589844 144.0669403076172 C 174.74472045898438 97.70106506347656 166.09498596191406 116.75782775878906 189.35772705078125 125.29486083984375" stroke-width="3.0" fill="none" stroke="rgb(0, 0, 0)" stroke-opacity="1.0" stroke-linecap="round" stroke-linejoin="round"/>
    <path d="M 153.60121154785156 74.83658599853516 C 227.11981201171875 70.10723876953125 224.27183532714844 161.5100860595703 158.31875610351562 154.06854248046875" stroke-width="3.0" fill="none" stroke="rgb(0, 0, 0)" stroke-opacity="1.0" stroke-linecap="round" stroke-linejoin="round"/>
    <path d="M 93.55984497070312 171.55677795410156 C 98.752685546875 156.88414001464844 107.09904479980469 191.45738220214844 109.95545196533203 156.5809326171875" stroke-width="3.0" fill="none" stroke="rgb(0, 0, 0)" stroke-opacity="1.0" stroke-linecap="round" stroke-linejoin="round"/>
    <path d="M 98.09353637695312 126.05470275878906 C 141.44924926757812 123.10161590576172 86.77657318115234 99.212158203125 109.98979949951172 128.5522918701172" stroke-width="3.0" fill="none" stroke="rgb(0, 0, 0)" stroke-opacity="1.0" stroke-linecap="round" stroke-linejoin="round"/>
    <path d="M 64.57170867919922 190.7352752685547 C 236.79051208496094 187.57322692871094 211.80194091796875 176.4984588623047 49.643428802490234 187.47789001464844" stroke-width="3.0" fill="none" stroke="rgb(0, 0, 0)" stroke-opacity="1.0" stroke-linecap="round" stroke-linejoin="round"/>
    <path d="M 180.11167907714844 178.89903259277344 C 159.34869384765625 226.50399780273438 130.5243682861328 171.98974609375 152.56114196777344 186.52821350097656" stroke-width="3.0" fill="none" stroke="rgb(0, 0, 0)" stroke-opacity="1.0" stroke-linecap="round" stroke-linejoin="round"/>
    <path d="M 156.8693084716797 83.22826385498047 C 193.0489959716797 75.40664672851562 221.10708618164062 125.67253112792969 180.532958984375 145.15008544921875" stroke-width="3.0" fill="none" stroke="rgb(0, 0, 0)" stroke-opacity="1.0" stroke-linecap="round" stroke-linejoin="round"/>
    <path d="M 184.9178466796875 189.2593994140625 C 180.31048583984375 154.75146484375 183.86489868164062 203.49554443359375 183.620849609375 181.64312744140625" stroke-width="3.0" fill="none" stroke="rgb(0, 0, 0)" stroke-opacity="1.0" stroke-linecap="round" stroke-linejoin="round"/>
    <path d="M 140.18850708007812 159.46665954589844 C 119.04859924316406 162.8973388671875 138.1014862060547 160.51487731933594 139.66891479492188 158.69290161132812" stroke-width="3.0" fill="none" stroke="rgb(0, 0, 0)" stroke-opacity="1.0" stroke-linecap="round" stroke-linejoin="round"/>
    <path d="M 161.8431854248047 146.40243530273438 C 168.84608459472656 115.5896224975586 166.4654998779297 97.10494232177734 174.71218872070312 147.12843322753906" stroke-width="3.0" fill="none" stroke="rgb(0, 0, 0)" stroke-opacity="1.0" stroke-linecap="round" stroke-linejoin="round"/>
    <path d="M 148.21580505371094 176.52667236328125 C 153.8131866455078 217.8231201171875 191.77467346191406 171.36244201660156 156.49485778808594 170.07460021972656" stroke-width="3.0" fill="none" stroke="rgb(0, 0, 0)" stroke-opacity="1.0" stroke-linecap="round" stroke-linejoin="round"/>
    <path d="M 79.9161148071289 56.77696990966797 C 134.6886749267578 37.93217086791992 194.49920654296875 89.91184997558594 158.47093200683594 42.07590103149414" stroke-width="3.0" fill="none" stroke="rgb(0, 0, 0)" stroke-opacity="1.0" stroke-linecap="round" stroke-linejoin="round"/>
    <path d="M 69.4390640258789 24.688949584960938 C 85.79359436035156 27.635374069213867 77.18366241455078 26.229007720947266 100.13239288330078 107.89337158203125" stroke-width="3.0" fill="none" stroke="rgb(0, 0, 0)" stroke-opacity="1.0" stroke-linecap="round" stroke-linejoin="round"/>
    <path d="M 63.915428161621094 23.632871627807617 C 125.69757843017578 28.32289695739746 67.05461883544922 29.721858978271484 61.71486282348633 25.927331924438477" stroke-width="3.0" fill="none" stroke="rgb(0, 0, 0)" stroke-opacity="1.0" stroke-linecap="round" stroke-linejoin="round"/>
    <path d="M 48.66816711425781 192.79383850097656 C 172.20877075195312 191.62014770507812 112.93376922607422 182.63409423828125 63.26065444946289 177.1653289794922" stroke-width="3.0" fill="none" stroke="rgb(0, 0, 0)" stroke-opacity="1.0" stroke-linecap="round" stroke-linejoin="round"/>
    <path d="M 137.0875701904297 186.68212890625 C 142.27264404296875 138.49574279785156 200.25709533691406 184.16184997558594 172.1185760498047 160.93353271484375" stroke-width="3.0" fill="none" stroke="rgb(0, 0, 0)" stroke-opacity="1.0" stroke-linecap="round" stroke-linejoin="round"/>
    <path d="M 51.58692932128906 187.03526306152344 C 124.76005554199219 175.3992462158203 116.51545715332031 166.91481018066406 56.859230041503906 173.90916442871094" stroke-width="3.0" fill="none" stroke="rgb(0, 0, 0)" stroke-opacity="1.0" stroke-linecap="round" stroke-linejoin="round"/>
    <path d="M 48.259674072265625 191.87353515625 C 125.642333984375 180.2247314453125 104.20455169677734 165.65829467773438 58.49917221069336 182.829345703125" stroke-width="3.0" fill="none" stroke="rgb(0, 0, 0)" stroke-opacity="1.0" stroke-linecap="round" stroke-linejoin="round"/>
    <path d="M 98.6748275756836 191.2659454345703 C 97.62396240234375 171.8135986328125 116.3961181640625 184.6331024169922 76.17601776123047 176.3787078857422" stroke-width="3.0" fill="none" stroke="rgb(0, 0, 0)" stroke-opacity="1.0" stroke-linecap="round" stroke-linejoin="round"/>
    <path d="M 181.3356475830078 86.9322280883789 C 179.97256469726562 104.11133575439453 187.0208740234375 58.99761962890625 176.3605194091797 114.70738983154297" stroke-width="3.0" fill="none" stroke="rgb(0, 0, 0)" stroke-opacity="1.0" stroke-linecap="round" stroke-linejoin="round"/>
    <path d="M 106.6683578491211 166.1781463623047 C 37.21923828125 175.11436462402344 57.08518600463867 180.63510131835938 60.88100051879883 173.60302734375" stroke-width="3.0" fill="none" stroke="rgb(0, 0, 0)" stroke-opacity="1.0" stroke-linecap="round" stroke-linejoin="round"/>
    <path d="M 72.00418853759766 75.94061279296875 C 84.8936538696289 60.20978546142578 60.88691711425781 34.93642807006836 170.58555603027344 52.63267517089844" stroke-width="3.0" fill="none" stroke="rgb(0, 0, 0)" stroke-opacity="1.0" stroke-linecap="round" stroke-linejoin="round"/>
    <path d="M 130.3049774169922 151.3832244873047 C 148.66542053222656 152.8759765625 125.78881072998047 141.0692901611328 126.05686950683594 161.387451171875" stroke-width="3.0" fill="none" stroke="rgb(0, 0, 0)" stroke-opacity="1.0" stroke-linecap="round" stroke-linejoin="round"/>
    <path d="M 159.40513610839844 60.026432037353516 C 158.28524780273438 33.82378387451172 224.6866912841797 37.789161682128906 141.39381408691406 46.883575439453125" stroke-width="3.0" fill="none" stroke="rgb(0, 0, 0)" stroke-opacity="1.0" stroke-linecap="round" stroke-linejoin="round"/>
    <path d="M 57.12065887451172 176.5723876953125 C 52.55268859863281 189.00025939941406 40.227603912353516 207.9310302734375 52.23783493041992 178.80421447753906" stroke-width="3.0" fill="none" stroke="rgb(0, 0, 0)" stroke-opacity="1.0" stroke-linecap="round" stroke-linejoin="round"/>
    <path d="M 177.64878845214844 84.79069519042969 C 163.24624633789062 119.23247528076172 171.20265197753906 124.95857238769531 173.12591552734375 83.98387908935547" stroke-width="3.0" fill="none" stroke="rgb(0, 0, 0)" stroke-opacity="1.0" stroke-linecap="round" stroke-linejoin="round"/>
    <path d="M 139.5426025390625 56.95408630371094 C 115.09822845458984 105.07401275634766 97.29656982421875 153.4647216796875 113.61274719238281 122.24468994140625" stroke-width="3.0" fill="none" stroke="rgb(0, 0, 0)" stroke-opacity="1.0" stroke-linecap="round" stroke-linejoin="round"/>
    <path d="M 174.7598876953125 37.7527961730957 C 154.5341796875 76.22394561767578 122.41448211669922 -9.018558502197266 164.73013305664062 116.54094696044922" stroke-width="3.0" fill="none" stroke="rgb(0, 0, 0)" stroke-opacity="1.0" stroke-linecap="round" stroke-linejoin="round"/>
    <path d="M 53.79534912109375 186.94577026367188 C 122.87470245361328 185.4903106689453 157.7432861328125 181.69308471679688 51.45542526245117 182.35806274414062" stroke-width="3.0" fill="none" stroke="rgb(0, 0, 0)" stroke-opacity="1.0" stroke-linecap="round" stroke-linejoin="round"/>
    <path d="M 92.28057098388672 54.10292053222656 C 108.84363555908203 153.7001495361328 126.4380874633789 126.05537414550781 51.34371566772461 114.3475112915039" stroke-width="3.0" fill="none" stroke="rgb(0, 0, 0)" stroke-opacity="1.0" stroke-linecap="round" stroke-linejoin="round"/>
    <path d="M 188.65162658691406 138.42691040039062 C 162.93380737304688 101.66967010498047 173.9514923095703 120.1809310913086 185.7313690185547 107.44571685791016" stroke-width="3.0" fill="none" stroke="rgb(0, 0, 0)" stroke-opacity="1.0" stroke-linecap="round" stroke-linejoin="round"/>
    <path d="M 84.81998443603516 29.191326141357422 C 46.05562973022461 31.7445011138916 62.89023208618164 21.64486312866211 77.43021392822266 37.29283905029297" stroke-width="3.0" fill="none" stroke="rgb(0, 0, 0)" stroke-opacity="1.0" stroke-linecap="round" stroke-linejoin="round"/>
    <path d="M 40.67200469970703 146.61041259765625 C 64.8441162109375 155.999755859375 88.16340637207031 144.9527130126953 96.1357650756836 116.53621673583984" stroke-width="3.0" fill="none" stroke="rgb(0, 0, 0)" stroke-opacity="1.0" stroke-linecap="round" stroke-linejoin="round"/>
    <path d="M 168.9872589111328 112.48797607421875 C 130.28720092773438 142.4835968017578 145.64956665039062 132.9297332763672 142.48690795898438 133.4302215576172" stroke-width="3.0" fill="none" stroke="rgb(0, 0, 0)" stroke-opacity="1.0" stroke-linecap="round" stroke-linejoin="round"/>
    <path d="M 46.516014099121094 148.8081512451172 C 17.18411636352539 142.61532592773438 4.154582500457764 95.24694061279297 44.26089859008789 78.7010498046875" stroke-width="3.0" fill="none" stroke="rgb(0, 0, 0)" stroke-opacity="1.0" stroke-linecap="round" stroke-linejoin="round"/>
    <path d="M 182.56724548339844 177.26075744628906 C 174.68673706054688 201.07542419433594 198.29281616210938 184.52804565429688 169.67601013183594 158.57249450683594" stroke-width="3.0" fill="none" stroke="rgb(0, 0, 0)" stroke-opacity="1.0" stroke-linecap="round" stroke-linejoin="round"/>
    <path d="M 169.83897399902344 156.67466735839844 C 94.67053985595703 142.08677673339844 184.99827575683594 156.7082977294922 134.116943359375 157.21115112304688" stroke-width="3.0" fill="none" stroke="rgb(0, 0, 0)" stroke-opacity="1.0" stroke-linecap="round" stroke-linejoin="round"/>
    <path d="M 32.07588577270508 82.29403686523438 C 95.73123931884766 48.454105377197266 122.76993560791016 139.5537872314453 88.67716979980469 112.27294921875" stroke-width="3.0" fill="none" stroke="rgb(0, 0, 0)" stroke-opacity="1.0" stroke-linecap="round" stroke-linejoin="round"/>
    <path d="M 108.24494934082031 116.62784576416016 C 95.73393249511719 158.97084045410156 107.10411834716797 106.51417541503906 72.17866516113281 87.51715850830078" stroke-width="3.0" fill="none" stroke="rgb(0, 0, 0)" stroke-opacity="1.0" stroke-linecap="round" stroke-linejoin="round"/>
    <path d="M 71.35197448730469 180.18272399902344 C 99.94747161865234 139.29434204101562 120.08467864990234 154.0410614013672 143.54330444335938 147.41017150878906" stroke-width="3.0" fill="none" stroke="rgb(0, 0, 0)" stroke-opacity="1.0" stroke-linecap="round" stroke-linejoin="round"/>
    <path d="M 85.69153594970703 34.51536560058594 C 92.13690185546875 61.79158401489258 91.14547729492188 31.60210609436035 79.40897369384766 71.80237579345703" stroke-width="3.0" fill="none" stroke="rgb(0, 0, 0)" stroke-opacity="1.0" stroke-linecap="round" stroke-linejoin="round"/>
    <path d="M 140.80648803710938 146.41932678222656 C 210.24708557128906 174.5762939453125 142.2470703125 157.69285583496094 143.88392639160156 189.0181427001953" stroke-width="3.0" fill="none" stroke="rgb(0, 0, 0)" stroke-opacity="1.0" stroke-linecap="round" stroke-linejoin="round"/>
    <path d="M 105.8302001953125 114.56253814697266 C 123.27733612060547 164.4627685546875 118.96006774902344 123.53019714355469 105.86150360107422 131.86920166015625" stroke-width="3.0" fill="none" stroke="rgb(0, 0, 0)" stroke-opacity="1.0" stroke-linecap="round" stroke-linejoin="round"/>
    <path d="M 177.62388610839844 54.3432502746582 C 171.66407775878906 44.45549774169922 188.41326904296875 34.7186279296875 175.0727081298828 43.517906188964844" stroke-width="3.0" fill="none" stroke="rgb(0, 0, 0)" stroke-opacity="1.0" stroke-linecap="round" stroke-linejoin="round"/>
    <path d="M 94.38288116455078 53.80487060546875 C 79.8085708618164 65.2068862915039 92.7496337890625 48.91289520263672 53.375762939453125 117.21913146972656" stroke-width="3.0" fill="none" stroke="rgb(0, 0, 0)" stroke-opacity="1.0" stroke-linecap="round" stroke-linejoin="round"/>
  </g>
</svg>
