<?xml version="1.0" ?>
<svg xmlns="http://www.w3.org/2000/svg" version="1.1" width="224" height="224">
  <defs/>
  <g>
    <path d="M 140.8717041015625 127.25241088867188 C 154.67572021484375 121.0922622680664 162.5142822265625 122.06925964355469 183.0581817626953 106.58887481689453" stroke-width="3.0" fill="none" stroke="rgb(0, 0, 0)" stroke-opacity="1.0" stroke-linecap="round" stroke-linejoin="round"/>
    <path d="M 104.32884979248047 154.98947143554688 C 61.06693649291992 172.57522583007812 81.8836669921875 181.72879028320312 148.5509033203125 155.41746520996094" stroke-width="3.0" fill="none" stroke="rgb(0, 0, 0)" stroke-opacity="1.0" stroke-linecap="round" stroke-linejoin="round"/>
    <path d="M 144.6192169189453 137.14007568359375 C 158.51455688476562 144.6502685546875 114.0229721069336 131.35304260253906 138.41973876953125 84.602783203125" stroke-width="3.0" fill="none" stroke="rgb(0, 0, 0)" stroke-opacity="1.0" stroke-linecap="round" stroke-linejoin="round"/>
    <path d="M 155.909912109375 140.89892578125 C 172.43142700195312 111.0013198852539 166.30789184570312 112.47210693359375 188.59112548828125 134.8528594970703" stroke-width="3.0" fill="none" stroke="rgb(0, 0, 0)" stroke-opacity="1.0" stroke-linecap="round" stroke-linejoin="round"/>
    <path d="M 201.29840087890625 100.2605972290039 C 200.1879119873047 93.19166564941406 218.66053771972656 140.14158630371094 173.1356201171875 151.70936584472656" stroke-width="3.0" fill="none" stroke="rgb(0, 0, 0)" stroke-opacity="1.0" stroke-linecap="round" stroke-linejoin="round"/>
    <path d="M 105.28205871582031 166.29470825195312 C 115.93102264404297 165.48350524902344 93.5369644165039 159.3338623046875 110.92074584960938 152.9153594970703" stroke-width="3.0" fill="none" stroke="rgb(0, 0, 0)" stroke-opacity="1.0" stroke-linecap="round" stroke-linejoin="round"/>
    <path d="M 97.63810729980469 113.4212875366211 C 139.36480712890625 140.49090576171875 98.14790344238281 88.23954010009766 112.44401550292969 128.79296875" stroke-width="3.0" fill="none" stroke="rgb(0, 0, 0)" stroke-opacity="1.0" stroke-linecap="round" stroke-linejoin="round"/>
    <path d="M 126.90876007080078 186.29425048828125 C 167.5912322998047 179.58935546875 130.75611877441406 188.69949340820312 50.52195358276367 188.9763946533203" stroke-width="3.0" fill="none" stroke="rgb(0, 0, 0)" stroke-opacity="1.0" stroke-linecap="round" stroke-linejoin="round"/>
    <path d="M 177.14048767089844 185.59884643554688 C 162.1634979248047 217.4577178955078 131.5780487060547 189.2451934814453 147.46461486816406 168.69976806640625" stroke-width="3.0" fill="none" stroke="rgb(0, 0, 0)" stroke-opacity="1.0" stroke-linecap="round" stroke-linejoin="round"/>
    <path d="M 156.51895141601562 79.737548828125 C 202.93113708496094 71.59303283691406 204.40647888183594 116.57222747802734 202.49481201171875 102.67001342773438" stroke-width="3.0" fill="none" stroke="rgb(0, 0, 0)" stroke-opacity="1.0" stroke-linecap="round" stroke-linejoin="round"/>
    <path d="M 176.77398681640625 168.6421661376953 C 179.4325408935547 181.78256225585938 180.74525451660156 192.8341522216797 181.15164184570312 177.6121368408203" stroke-width="3.0" fill="none" stroke="rgb(0, 0, 0)" stroke-opacity="1.0" stroke-linecap="round" stroke-linejoin="round"/>
    <path d="M 130.3203125 148.40838623046875 C 113.71521759033203 148.9120635986328 129.58946228027344 145.9415740966797 119.9384994506836 145.05287170410156" stroke-width="3.0" fill="none" stroke="rgb(0, 0, 0)" stroke-opacity="1.0" stroke-linecap="round" stroke-linejoin="round"/>
    <path d="M 164.76011657714844 147.2607879638672 C 168.84104919433594 109.35345458984375 165.09490966796875 116.26400756835938 172.4185333251953 146.06910705566406" stroke-width="3.0" fill="none" stroke="rgb(0, 0, 0)" stroke-opacity="1.0" stroke-linecap="round" stroke-linejoin="round"/>
    <path d="M 168.3063507080078 196.84365844726562 C 177.630126953125 188.92166137695312 179.37008666992188 172.98451232910156 164.70425415039062 165.0546417236328" stroke-width="3.0" fill="none" stroke="rgb(0, 0, 0)" stroke-opacity="1.0" stroke-linecap="round" stroke-linejoin="round"/>
    <path d="M 92.34326934814453 55.07753372192383 C 152.54669189453125 34.89152908325195 167.40255737304688 77.3691635131836 169.30564880371094 45.291465759277344" stroke-width="3.0" fill="none" stroke="rgb(0, 0, 0)" stroke-opacity="1.0" stroke-linecap="round" stroke-linejoin="round"/>
    <path d="M 79.5720443725586 46.28510665893555 C 78.39446258544922 44.800357818603516 79.99717712402344 35.49506378173828 107.76605987548828 111.58799743652344" stroke-width="3.0" fill="none" stroke="rgb(0, 0, 0)" stroke-opacity="1.0" stroke-linecap="round" stroke-linejoin="round"/>
    <path d="M 61.862003326416016 21.19489860534668 C 132.66429138183594 23.76140022277832 99.62458038330078 22.098665237426758 71.79177856445312 30.908496856689453" stroke-width="3.0" fill="none" stroke="rgb(0, 0, 0)" stroke-opacity="1.0" stroke-linecap="round" stroke-linejoin="round"/>
    <path d="M 52.749088287353516 176.7104034423828 C 75.41776275634766 175.19383239746094 76.646728515625 163.64630126953125 66.14693450927734 185.37046813964844" stroke-width="3.0" fill="none" stroke="rgb(0, 0, 0)" stroke-opacity="1.0" stroke-linecap="round" stroke-linejoin="round"/>
    <path d="M 146.11553955078125 172.06277465820312 C 162.70318603515625 147.15357971191406 200.22076416015625 184.07212829589844 162.1893310546875 163.01539611816406" stroke-width="3.0" fill="none" stroke="rgb(0, 0, 0)" stroke-opacity="1.0" stroke-linecap="round" stroke-linejoin="round"/>
    <path d="M 74.38538360595703 175.75128173828125 C 106.53309631347656 174.63893127441406 103.44632720947266 177.3624725341797 97.80220031738281 170.22508239746094" stroke-width="3.0" fill="none" stroke="rgb(0, 0, 0)" stroke-opacity="1.0" stroke-linecap="round" stroke-linejoin="round"/>
    <path d="M 53.49934768676758 174.16554260253906 C 113.78302001953125 165.13092041015625 108.58975219726562 184.76092529296875 45.59067153930664 188.40309143066406" stroke-width="3.0" fill="none" stroke="rgb(0, 0, 0)" stroke-opacity="1.0" stroke-linecap="round" stroke-linejoin="round"/>
    <path d="M 94.87599182128906 184.34811401367188 C 94.09651184082031 172.2100830078125 111.45398712158203 141.916748046875 99.46752166748047 175.2459259033203" stroke-width="3.0" fill="none" stroke="rgb(0, 0, 0)" stroke-opacity="1.0" stroke-linecap="round" stroke-linejoin="round"/>
    <path d="M 170.88148498535156 80.43833923339844 C 165.39317321777344 130.3265838623047 169.8575439453125 67.46754455566406 169.06314086914062 107.82775115966797" stroke-width="3.0" fill="none" stroke="rgb(0, 0, 0)" stroke-opacity="1.0" stroke-linecap="round" stroke-linejoin="round"/>
    <path d="M 77.7917251586914 174.58740234375 C 42.65974426269531 181.0555419921875 53.821434020996094 186.3279571533203 67.19795989990234 180.6961212158203" stroke-width="3.0" fill="none" stroke="rgb(0, 0, 0)" stroke-opacity="1.0" stroke-linecap="round" stroke-linejoin="round"/>
    <path d="M 93.90764617919922 59.365352630615234 C 78.292724609375 60.515567779541016 75.49368286132812 49.582733154296875 112.78324127197266 48.997474670410156" stroke-width="3.0" fill="none" stroke="rgb(0, 0, 0)" stroke-opacity="1.0" stroke-linecap="round" stroke-linejoin="round"/>
    <path d="M 104.53348541259766 152.01722717285156 C 148.64390563964844 148.86776733398438 122.77813720703125 139.51026916503906 128.0030059814453 162.6820831298828" stroke-width="3.0" fill="none" stroke="rgb(0, 0, 0)" stroke-opacity="1.0" stroke-linecap="round" stroke-linejoin="round"/>
    <path d="M 170.69973754882812 41.05874252319336 C 171.3580780029297 35.69327163696289 211.9407958984375 42.89480972290039 139.47262573242188 43.98895263671875" stroke-width="3.0" fill="none" stroke="rgb(0, 0, 0)" stroke-opacity="1.0" stroke-linecap="round" stroke-linejoin="round"/>
    <path d="M 57.1788444519043 173.9788360595703 C 43.4874153137207 179.61993408203125 48.52350997924805 201.28599548339844 53.23160934448242 178.97412109375" stroke-width="3.0" fill="none" stroke="rgb(0, 0, 0)" stroke-opacity="1.0" stroke-linecap="round" stroke-linejoin="round"/>
    <path d="M 163.6257781982422 120.0124282836914 C 169.52499389648438 126.63203430175781 168.11366271972656 121.68362426757812 182.60720825195312 88.63438415527344" stroke-width="3.0" fill="none" stroke="rgb(0, 0, 0)" stroke-opacity="1.0" stroke-linecap="round" stroke-linejoin="round"/>
    <path d="M 139.94459533691406 53.86650085449219 C 120.13443756103516 95.91181945800781 108.4541244506836 119.16553497314453 113.73341369628906 117.53193664550781" stroke-width="3.0" fill="none" stroke="rgb(0, 0, 0)" stroke-opacity="1.0" stroke-linecap="round" stroke-linejoin="round"/>
    <path d="M 155.48085021972656 49.49163055419922 C 146.81216430664062 73.24226379394531 133.44285583496094 33.09333038330078 165.77716064453125 110.85237884521484" stroke-width="3.0" fill="none" stroke="rgb(0, 0, 0)" stroke-opacity="1.0" stroke-linecap="round" stroke-linejoin="round"/>
    <path d="M 102.42733764648438 183.33900451660156 C 95.67318725585938 175.25637817382812 105.42803955078125 179.66954040527344 76.91250610351562 185.6260223388672" stroke-width="3.0" fill="none" stroke="rgb(0, 0, 0)" stroke-opacity="1.0" stroke-linecap="round" stroke-linejoin="round"/>
    <path d="M 83.6949462890625 64.65484619140625 C 100.7572021484375 138.3170623779297 99.5665054321289 161.58834838867188 70.53919219970703 68.02214050292969" stroke-width="3.0" fill="none" stroke="rgb(0, 0, 0)" stroke-opacity="1.0" stroke-linecap="round" stroke-linejoin="round"/>
    <path d="M 183.577880859375 141.6844024658203 C 153.46400451660156 109.18103790283203 161.13870239257812 99.19388580322266 174.4912109375 115.55496215820312" stroke-width="3.0" fill="none" stroke="rgb(0, 0, 0)" stroke-opacity="1.0" stroke-linecap="round" stroke-linejoin="round"/>
    <path d="M 78.67573547363281 27.237060546875 C 15.668275833129883 22.96703338623047 62.997764587402344 28.06928253173828 75.05343627929688 32.795631408691406" stroke-width="3.0" fill="none" stroke="rgb(0, 0, 0)" stroke-opacity="1.0" stroke-linecap="round" stroke-linejoin="round"/>
    <path d="M 45.80384063720703 148.2465057373047 C 60.840003967285156 154.60447692871094 89.03284454345703 149.28746032714844 90.9321060180664 118.7056884765625" stroke-width="3.0" fill="none" stroke="rgb(0, 0, 0)" stroke-opacity="1.0" stroke-linecap="round" stroke-linejoin="round"/>
    <path d="M 158.392333984375 141.1750030517578 C 166.5880584716797 151.6887969970703 146.19482421875 136.63714599609375 157.56057739257812 142.62542724609375" stroke-width="3.0" fill="none" stroke="rgb(0, 0, 0)" stroke-opacity="1.0" stroke-linecap="round" stroke-linejoin="round"/>
    <path d="M 47.063880920410156 148.93861389160156 C 21.696073532104492 141.94552612304688 3.788971424102783 113.55271911621094 29.05231475830078 86.22508239746094" stroke-width="3.0" fill="none" stroke="rgb(0, 0, 0)" stroke-opacity="1.0" stroke-linecap="round" stroke-linejoin="round"/>
    <path d="M 183.80079650878906 185.92208862304688 C 183.55369567871094 167.12767028808594 186.97540283203125 187.4901580810547 173.13607788085938 167.37277221679688" stroke-width="3.0" fill="none" stroke="rgb(0, 0, 0)" stroke-opacity="1.0" stroke-linecap="round" stroke-linejoin="round"/>
    <path d="M 152.04440307617188 155.493896484375 C 80.78706359863281 148.76202392578125 172.42250061035156 150.0314483642578 133.62686157226562 155.18797302246094" stroke-width="3.0" fill="none" stroke="rgb(0, 0, 0)" stroke-opacity="1.0" stroke-linecap="round" stroke-linejoin="round"/>
    <path d="M 32.32030487060547 83.67636108398438 C 79.05641174316406 43.52229309082031 115.53529357910156 118.96269989013672 94.16575622558594 115.46160125732422" stroke-width="3.0" fill="none" stroke="rgb(0, 0, 0)" stroke-opacity="1.0" stroke-linecap="round" stroke-linejoin="round"/>
    <path d="M 93.1504135131836 111.67791748046875 C 86.04009246826172 85.89122009277344 92.30487060546875 79.44792938232422 86.18045043945312 77.4370346069336" stroke-width="3.0" fill="none" stroke="rgb(0, 0, 0)" stroke-opacity="1.0" stroke-linecap="round" stroke-linejoin="round"/>
    <path d="M 77.049560546875 171.98526000976562 C 102.8066635131836 145.09645080566406 127.6911849975586 146.20323181152344 128.13438415527344 155.1055908203125" stroke-width="3.0" fill="none" stroke="rgb(0, 0, 0)" stroke-opacity="1.0" stroke-linecap="round" stroke-linejoin="round"/>
    <path d="M 80.1877670288086 29.204723358154297 C 88.60945892333984 55.681396484375 93.54800415039062 58.805328369140625 95.22224426269531 54.64667510986328" stroke-width="3.0" fill="none" stroke="rgb(0, 0, 0)" stroke-opacity="1.0" stroke-linecap="round" stroke-linejoin="round"/>
    <path d="M 110.10884094238281 154.17335510253906 C 165.12054443359375 159.4865264892578 134.11984252929688 153.60897827148438 132.22401428222656 181.98460388183594" stroke-width="3.0" fill="none" stroke="rgb(0, 0, 0)" stroke-opacity="1.0" stroke-linecap="round" stroke-linejoin="round"/>
    <path d="M 113.1982421875 144.67262268066406 C 117.01471710205078 142.6903839111328 121.1071548461914 139.0966033935547 115.09046173095703 139.31947326660156" stroke-width="3.0" fill="none" stroke="rgb(0, 0, 0)" stroke-opacity="1.0" stroke-linecap="round" stroke-linejoin="round"/>
    <path d="M 177.9933624267578 56.049949645996094 C 175.06997680664062 49.146446228027344 169.88121032714844 55.42730712890625 178.41017150878906 36.00497817993164" stroke-width="3.0" fill="none" stroke="rgb(0, 0, 0)" stroke-opacity="1.0" stroke-linecap="round" stroke-linejoin="round"/>
    <path d="M 84.99781799316406 55.786678314208984 C 67.83129119873047 47.91047668457031 81.42240905761719 36.897560119628906 69.73611450195312 72.443115234375" stroke-width="3.0" fill="none" stroke="rgb(0, 0, 0)" stroke-opacity="1.0" stroke-linecap="round" stroke-linejoin="round"/>
  </g>
</svg>
