<?xml version="1.0" ?>
<svg xmlns="http://www.w3.org/2000/svg" version="1.1" width="224" height="224">
  <defs/>
  <g>
    <path d="M 135.92486572265625 118.70660400390625 C 160.18637084960938 116.1456527709961 163.73643493652344 108.94605255126953 172.10501098632812 115.81571960449219" stroke-width="3.0" fill="none" stroke="rgb(0, 0, 0)" stroke-opacity="1.0" stroke-linecap="round" stroke-linejoin="round"/>
    <path d="M 104.80225372314453 157.2003631591797 C 57.67036437988281 175.05751037597656 77.568359375 179.653564453125 152.52830505371094 151.85574340820312" stroke-width="3.0" fill="none" stroke="rgb(0, 0, 0)" stroke-opacity="1.0" stroke-linecap="round" stroke-linejoin="round"/>
    <path d="M 149.1560516357422 142.20370483398438 C 156.61146545410156 148.2764434814453 107.48310089111328 126.86653137207031 147.29083251953125 86.69197082519531" stroke-width="3.0" fill="none" stroke="rgb(0, 0, 0)" stroke-opacity="1.0" stroke-linecap="round" stroke-linejoin="round"/>
    <path d="M 149.3059539794922 140.84024047851562 C 172.87648010253906 105.7177963256836 168.84886169433594 118.11831665039062 190.46913146972656 129.8269500732422" stroke-width="3.0" fill="none" stroke="rgb(0, 0, 0)" stroke-opacity="1.0" stroke-linecap="round" stroke-linejoin="round"/>
    <path d="M 173.45101928710938 79.38126373291016 C 226.26025390625 86.93436431884766 214.23562622070312 158.28704833984375 159.80606079101562 153.2079620361328" stroke-width="3.0" fill="none" stroke="rgb(0, 0, 0)" stroke-opacity="1.0" stroke-linecap="round" stroke-linejoin="round"/>
    <path d="M 92.38333129882812 173.21514892578125 C 109.67655181884766 164.16026306152344 95.7896728515625 181.5388946533203 107.36043548583984 155.39825439453125" stroke-width="3.0" fill="none" stroke="rgb(0, 0, 0)" stroke-opacity="1.0" stroke-linecap="round" stroke-linejoin="round"/>
    <path d="M 89.4647216796875 122.30393981933594 C 135.23330688476562 126.74796295166016 102.64370727539062 93.02227783203125 112.38746643066406 125.24600219726562" stroke-width="3.0" fill="none" stroke="rgb(0, 0, 0)" stroke-opacity="1.0" stroke-linecap="round" stroke-linejoin="round"/>
    <path d="M 95.42757415771484 190.05816650390625 C 165.78163146972656 190.0740966796875 139.7718048095703 190.5640411376953 50.205440521240234 189.98263549804688" stroke-width="3.0" fill="none" stroke="rgb(0, 0, 0)" stroke-opacity="1.0" stroke-linecap="round" stroke-linejoin="round"/>
    <path d="M 178.07406616210938 182.35546875 C 162.8468017578125 220.39797973632812 129.6929931640625 181.49412536621094 161.3753204345703 168.51959228515625" stroke-width="3.0" fill="none" stroke="rgb(0, 0, 0)" stroke-opacity="1.0" stroke-linecap="round" stroke-linejoin="round"/>
    <path d="M 156.9129180908203 84.70263671875 C 197.38047790527344 76.30606842041016 213.29721069335938 124.11286926269531 186.1248779296875 147.67686462402344" stroke-width="3.0" fill="none" stroke="rgb(0, 0, 0)" stroke-opacity="1.0" stroke-linecap="round" stroke-linejoin="round"/>
    <path d="M 181.71487426757812 183.46388244628906 C 181.70533752441406 166.21714782714844 171.2804412841797 197.98130798339844 181.05416870117188 181.2724609375" stroke-width="3.0" fill="none" stroke="rgb(0, 0, 0)" stroke-opacity="1.0" stroke-linecap="round" stroke-linejoin="round"/>
    <path d="M 137.563232421875 150.5395050048828 C 124.01371002197266 149.2509765625 134.41510009765625 150.419921875 133.27223205566406 149.90493774414062" stroke-width="3.0" fill="none" stroke="rgb(0, 0, 0)" stroke-opacity="1.0" stroke-linecap="round" stroke-linejoin="round"/>
    <path d="M 162.29092407226562 147.4586944580078 C 167.7735595703125 116.73522186279297 164.1468505859375 107.2194595336914 175.4718017578125 148.3795928955078" stroke-width="3.0" fill="none" stroke="rgb(0, 0, 0)" stroke-opacity="1.0" stroke-linecap="round" stroke-linejoin="round"/>
    <path d="M 148.93569946289062 185.3074493408203 C 165.59909057617188 213.0324249267578 185.69940185546875 163.3355712890625 156.72972106933594 170.92532348632812" stroke-width="3.0" fill="none" stroke="rgb(0, 0, 0)" stroke-opacity="1.0" stroke-linecap="round" stroke-linejoin="round"/>
    <path d="M 88.227294921875 54.78255844116211 C 138.4672393798828 37.12504196166992 188.78306579589844 88.68523406982422 164.34442138671875 39.86653137207031" stroke-width="3.0" fill="none" stroke="rgb(0, 0, 0)" stroke-opacity="1.0" stroke-linecap="round" stroke-linejoin="round"/>
    <path d="M 69.07366943359375 31.727819442749023 C 73.5975570678711 16.95920753479004 76.36392211914062 28.419631958007812 102.30460357666016 108.08680725097656" stroke-width="3.0" fill="none" stroke="rgb(0, 0, 0)" stroke-opacity="1.0" stroke-linecap="round" stroke-linejoin="round"/>
    <path d="M 61.7206916809082 25.46973419189453 C 116.40463256835938 25.191587448120117 81.49638366699219 31.039794921875 63.292789459228516 28.034042358398438" stroke-width="3.0" fill="none" stroke="rgb(0, 0, 0)" stroke-opacity="1.0" stroke-linecap="round" stroke-linejoin="round"/>
    <path d="M 47.288265228271484 189.45762634277344 C 125.06929779052734 190.47059631347656 82.84497833251953 181.330810546875 57.735206604003906 175.94302368164062" stroke-width="3.0" fill="none" stroke="rgb(0, 0, 0)" stroke-opacity="1.0" stroke-linecap="round" stroke-linejoin="round"/>
    <path d="M 144.17955017089844 183.2447967529297 C 155.91058349609375 139.86007690429688 205.60345458984375 186.97389221191406 164.36618041992188 165.1829071044922" stroke-width="3.0" fill="none" stroke="rgb(0, 0, 0)" stroke-opacity="1.0" stroke-linecap="round" stroke-linejoin="round"/>
    <path d="M 54.64179611206055 188.5642547607422 C 116.23799133300781 176.09161376953125 116.15110778808594 189.79042053222656 47.60281753540039 188.48574829101562" stroke-width="3.0" fill="none" stroke="rgb(0, 0, 0)" stroke-opacity="1.0" stroke-linecap="round" stroke-linejoin="round"/>
    <path d="M 56.75355529785156 185.663330078125 C 116.7201919555664 167.75732421875 108.56234741210938 176.53236389160156 54.826053619384766 185.3485870361328" stroke-width="3.0" fill="none" stroke="rgb(0, 0, 0)" stroke-opacity="1.0" stroke-linecap="round" stroke-linejoin="round"/>
    <path d="M 101.78328704833984 187.17803955078125 C 96.91309356689453 172.19422912597656 107.8130111694336 170.3511962890625 81.62283325195312 187.37095642089844" stroke-width="3.0" fill="none" stroke="rgb(0, 0, 0)" stroke-opacity="1.0" stroke-linecap="round" stroke-linejoin="round"/>
    <path d="M 175.7219696044922 86.00524139404297 C 174.33775329589844 107.8077392578125 179.55616760253906 57.99352264404297 174.57994079589844 107.72450256347656" stroke-width="3.0" fill="none" stroke="rgb(0, 0, 0)" stroke-opacity="1.0" stroke-linecap="round" stroke-linejoin="round"/>
    <path d="M 99.15087890625 169.5753173828125 C 29.686264038085938 171.2835693359375 50.624664306640625 178.58917236328125 69.05353546142578 182.29202270507812" stroke-width="3.0" fill="none" stroke="rgb(0, 0, 0)" stroke-opacity="1.0" stroke-linecap="round" stroke-linejoin="round"/>
    <path d="M 70.58916473388672 69.23296356201172 C 77.74339294433594 64.12700653076172 61.24332809448242 40.44645309448242 144.2029571533203 46.571632385253906" stroke-width="3.0" fill="none" stroke="rgb(0, 0, 0)" stroke-opacity="1.0" stroke-linecap="round" stroke-linejoin="round"/>
    <path d="M 131.50198364257812 148.4307403564453 C 158.46420288085938 145.9788360595703 124.30860900878906 141.33062744140625 126.9613265991211 160.7566375732422" stroke-width="3.0" fill="none" stroke="rgb(0, 0, 0)" stroke-opacity="1.0" stroke-linecap="round" stroke-linejoin="round"/>
    <path d="M 157.17617797851562 59.6160888671875 C 166.9019317626953 35.38835906982422 218.0448760986328 43.14269256591797 138.24258422851562 44.18061447143555" stroke-width="3.0" fill="none" stroke="rgb(0, 0, 0)" stroke-opacity="1.0" stroke-linecap="round" stroke-linejoin="round"/>
    <path d="M 52.8295783996582 175.0399169921875 C 46.08228302001953 181.97080993652344 38.019554138183594 205.34010314941406 52.39292907714844 177.5587921142578" stroke-width="3.0" fill="none" stroke="rgb(0, 0, 0)" stroke-opacity="1.0" stroke-linecap="round" stroke-linejoin="round"/>
    <path d="M 183.49798583984375 108.3656005859375 C 167.98959350585938 128.6183319091797 164.86782836914062 122.42581176757812 185.44515991210938 95.63850402832031" stroke-width="3.0" fill="none" stroke="rgb(0, 0, 0)" stroke-opacity="1.0" stroke-linecap="round" stroke-linejoin="round"/>
    <path d="M 144.56202697753906 57.29213333129883 C 117.38056945800781 100.72085571289062 97.71483612060547 146.00601196289062 112.66754913330078 114.7441635131836" stroke-width="3.0" fill="none" stroke="rgb(0, 0, 0)" stroke-opacity="1.0" stroke-linecap="round" stroke-linejoin="round"/>
    <path d="M 174.31729125976562 44.08085632324219 C 155.26284790039062 75.5619125366211 123.52590942382812 3.835015058517456 165.50830078125 122.16426849365234" stroke-width="3.0" fill="none" stroke="rgb(0, 0, 0)" stroke-opacity="1.0" stroke-linecap="round" stroke-linejoin="round"/>
    <path d="M 68.11363983154297 176.59837341308594 C 98.19200897216797 177.6105194091797 124.18722534179688 181.59535217285156 52.326663970947266 181.86891174316406" stroke-width="3.0" fill="none" stroke="rgb(0, 0, 0)" stroke-opacity="1.0" stroke-linecap="round" stroke-linejoin="round"/>
    <path d="M 89.17913818359375 58.027183532714844 C 112.833740234375 141.58253479003906 128.30055236816406 130.0087890625 59.152976989746094 118.49547576904297" stroke-width="3.0" fill="none" stroke="rgb(0, 0, 0)" stroke-opacity="1.0" stroke-linecap="round" stroke-linejoin="round"/>
    <path d="M 185.45433044433594 140.53001403808594 C 159.56881713867188 108.48332214355469 169.98629760742188 101.37877655029297 177.2312469482422 115.89682006835938" stroke-width="3.0" fill="none" stroke="rgb(0, 0, 0)" stroke-opacity="1.0" stroke-linecap="round" stroke-linejoin="round"/>
    <path d="M 78.69903564453125 32.688758850097656 C 25.788509368896484 35.84423065185547 64.12925720214844 26.435808181762695 77.60871887207031 38.45521545410156" stroke-width="3.0" fill="none" stroke="rgb(0, 0, 0)" stroke-opacity="1.0" stroke-linecap="round" stroke-linejoin="round"/>
    <path d="M 42.383846282958984 148.2586669921875 C 60.28173065185547 153.68177795410156 89.6893310546875 146.26461791992188 95.66199493408203 118.26274871826172" stroke-width="3.0" fill="none" stroke="rgb(0, 0, 0)" stroke-opacity="1.0" stroke-linecap="round" stroke-linejoin="round"/>
    <path d="M 162.14186096191406 115.97954559326172 C 116.87259674072266 143.3131561279297 146.52020263671875 128.55311584472656 141.17469787597656 138.3590850830078" stroke-width="3.0" fill="none" stroke="rgb(0, 0, 0)" stroke-opacity="1.0" stroke-linecap="round" stroke-linejoin="round"/>
    <path d="M 47.49392318725586 149.2117462158203 C 18.539737701416016 144.5366973876953 1.098892331123352 98.80712890625 38.525596618652344 78.0525131225586" stroke-width="3.0" fill="none" stroke="rgb(0, 0, 0)" stroke-opacity="1.0" stroke-linecap="round" stroke-linejoin="round"/>
    <path d="M 178.5709991455078 187.58726501464844 C 175.25450134277344 185.05821228027344 195.65927124023438 194.92349243164062 171.60238647460938 165.0828857421875" stroke-width="3.0" fill="none" stroke="rgb(0, 0, 0)" stroke-opacity="1.0" stroke-linecap="round" stroke-linejoin="round"/>
    <path d="M 172.33628845214844 155.9675750732422 C 99.5765151977539 135.91500854492188 174.46633911132812 159.66343688964844 131.2261962890625 155.4606170654297" stroke-width="3.0" fill="none" stroke="rgb(0, 0, 0)" stroke-opacity="1.0" stroke-linecap="round" stroke-linejoin="round"/>
    <path d="M 29.40652847290039 82.84044647216797 C 84.57183837890625 48.0382080078125 108.07009887695312 127.97481536865234 99.36643981933594 113.88416290283203" stroke-width="3.0" fill="none" stroke="rgb(0, 0, 0)" stroke-opacity="1.0" stroke-linecap="round" stroke-linejoin="round"/>
    <path d="M 109.51067352294922 111.3447036743164 C 96.55423736572266 131.09605407714844 100.78658294677734 106.1519546508789 70.95824432373047 89.3181381225586" stroke-width="3.0" fill="none" stroke="rgb(0, 0, 0)" stroke-opacity="1.0" stroke-linecap="round" stroke-linejoin="round"/>
    <path d="M 76.19149017333984 176.87953186035156 C 102.53226470947266 142.8843994140625 131.51889038085938 151.6905975341797 149.1385498046875 148.38206481933594" stroke-width="3.0" fill="none" stroke="rgb(0, 0, 0)" stroke-opacity="1.0" stroke-linecap="round" stroke-linejoin="round"/>
    <path d="M 82.48648834228516 34.8349723815918 C 90.53131103515625 65.57817840576172 102.42002868652344 39.62741470336914 76.78482055664062 71.7928237915039" stroke-width="3.0" fill="none" stroke="rgb(0, 0, 0)" stroke-opacity="1.0" stroke-linecap="round" stroke-linejoin="round"/>
    <path d="M 131.79095458984375 150.74058532714844 C 202.47044372558594 155.84725952148438 129.06455993652344 143.6190643310547 138.80255126953125 188.47889709472656" stroke-width="3.0" fill="none" stroke="rgb(0, 0, 0)" stroke-opacity="1.0" stroke-linecap="round" stroke-linejoin="round"/>
    <path d="M 104.97574615478516 122.91361236572266 C 118.69368743896484 160.33355712890625 122.00065612792969 124.33980560302734 98.2295913696289 128.3269805908203" stroke-width="3.0" fill="none" stroke="rgb(0, 0, 0)" stroke-opacity="1.0" stroke-linecap="round" stroke-linejoin="round"/>
    <path d="M 178.10423278808594 55.66522979736328 C 168.74281311035156 46.046722412109375 192.80303955078125 30.322036743164062 175.23719787597656 41.71762466430664" stroke-width="3.0" fill="none" stroke="rgb(0, 0, 0)" stroke-opacity="1.0" stroke-linecap="round" stroke-linejoin="round"/>
    <path d="M 97.22850799560547 52.46590805053711 C 77.630126953125 61.72682189941406 91.58336639404297 41.4630126953125 58.79490661621094 118.32366943359375" stroke-width="3.0" fill="none" stroke="rgb(0, 0, 0)" stroke-opacity="1.0" stroke-linecap="round" stroke-linejoin="round"/>
  </g>
</svg>
