<?xml version="1.0" ?>
<svg xmlns="http://www.w3.org/2000/svg" version="1.1" width="224" height="224">
  <defs/>
  <g>
    <path d="M 135.90826416015625 117.71906280517578 C 183.64894104003906 107.00074768066406 175.6774139404297 108.47765350341797 185.22328186035156 100.7655029296875" stroke-width="3.0" fill="none" stroke="rgb(0, 0, 0)" stroke-opacity="1.0" stroke-linecap="round" stroke-linejoin="round"/>
    <path d="M 108.14007568359375 151.78123474121094 C 60.512550354003906 180.27597045898438 69.79580688476562 172.2194366455078 156.43087768554688 157.70220947265625" stroke-width="3.0" fill="none" stroke="rgb(0, 0, 0)" stroke-opacity="1.0" stroke-linecap="round" stroke-linejoin="round"/>
    <path d="M 159.22784423828125 155.43821716308594 C 152.44876098632812 151.77609252929688 105.98033905029297 128.35589599609375 144.9889373779297 79.11033630371094" stroke-width="3.0" fill="none" stroke="rgb(0, 0, 0)" stroke-opacity="1.0" stroke-linecap="round" stroke-linejoin="round"/>
    <path d="M 150.7543182373047 145.34823608398438 C 180.6468963623047 94.61959075927734 154.66673278808594 115.54906463623047 189.45228576660156 132.09080505371094" stroke-width="3.0" fill="none" stroke="rgb(0, 0, 0)" stroke-opacity="1.0" stroke-linecap="round" stroke-linejoin="round"/>
    <path d="M 152.70286560058594 72.15699005126953 C 222.67930603027344 72.79460906982422 231.28030395507812 165.77955627441406 150.7629852294922 151.51385498046875" stroke-width="3.0" fill="none" stroke="rgb(0, 0, 0)" stroke-opacity="1.0" stroke-linecap="round" stroke-linejoin="round"/>
    <path d="M 97.55440521240234 170.2265167236328 C 85.93528747558594 174.13754272460938 99.91432189941406 198.85430908203125 107.72919464111328 153.47207641601562" stroke-width="3.0" fill="none" stroke="rgb(0, 0, 0)" stroke-opacity="1.0" stroke-linecap="round" stroke-linejoin="round"/>
    <path d="M 94.86637115478516 124.30924987792969 C 142.6968536376953 131.76820373535156 83.87683868408203 96.92926788330078 113.302734375 122.07532501220703" stroke-width="3.0" fill="none" stroke="rgb(0, 0, 0)" stroke-opacity="1.0" stroke-linecap="round" stroke-linejoin="round"/>
    <path d="M 52.36313247680664 174.36114501953125 C 213.65257263183594 147.4481964111328 200.7195587158203 145.6419677734375 56.37105178833008 170.15011596679688" stroke-width="3.0" fill="none" stroke="rgb(0, 0, 0)" stroke-opacity="1.0" stroke-linecap="round" stroke-linejoin="round"/>
    <path d="M 182.22177124023438 176.7364044189453 C 152.93423461914062 236.78469848632812 126.3377456665039 154.5619354248047 143.7255096435547 190.32484436035156" stroke-width="3.0" fill="none" stroke="rgb(0, 0, 0)" stroke-opacity="1.0" stroke-linecap="round" stroke-linejoin="round"/>
    <path d="M 156.9719696044922 83.3504409790039 C 197.20237731933594 73.35078430175781 219.02932739257812 126.06086730957031 178.91632080078125 144.76866149902344" stroke-width="3.0" fill="none" stroke="rgb(0, 0, 0)" stroke-opacity="1.0" stroke-linecap="round" stroke-linejoin="round"/>
    <path d="M 181.99676513671875 182.79640197753906 C 176.25143432617188 154.47564697265625 174.00924682617188 233.3407745361328 180.8483428955078 166.81503295898438" stroke-width="3.0" fill="none" stroke="rgb(0, 0, 0)" stroke-opacity="1.0" stroke-linecap="round" stroke-linejoin="round"/>
    <path d="M 141.63270568847656 149.23388671875 C 110.54027557373047 150.26785278320312 130.67529296875 150.85488891601562 143.5430450439453 152.73133850097656" stroke-width="3.0" fill="none" stroke="rgb(0, 0, 0)" stroke-opacity="1.0" stroke-linecap="round" stroke-linejoin="round"/>
    <path d="M 163.2891082763672 147.1777801513672 C 171.4761962890625 116.72675323486328 152.29620361328125 85.74763488769531 173.65359497070312 144.9439697265625" stroke-width="3.0" fill="none" stroke="rgb(0, 0, 0)" stroke-opacity="1.0" stroke-linecap="round" stroke-linejoin="round"/>
    <path d="M 145.08876037597656 175.2460174560547 C 158.07962036132812 227.5000457763672 194.54962158203125 147.8631591796875 145.1331329345703 177.1522674560547" stroke-width="3.0" fill="none" stroke="rgb(0, 0, 0)" stroke-opacity="1.0" stroke-linecap="round" stroke-linejoin="round"/>
    <path d="M 86.68356323242188 55.064453125 C 131.49549865722656 37.2889518737793 184.9849090576172 90.56417083740234 163.31578063964844 37.768836975097656" stroke-width="3.0" fill="none" stroke="rgb(0, 0, 0)" stroke-opacity="1.0" stroke-linecap="round" stroke-linejoin="round"/>
    <path d="M 60.4799919128418 30.17251205444336 C 80.39200592041016 30.738990783691406 76.3856430053711 32.68716812133789 105.56600952148438 105.70350646972656" stroke-width="3.0" fill="none" stroke="rgb(0, 0, 0)" stroke-opacity="1.0" stroke-linecap="round" stroke-linejoin="round"/>
    <path d="M 60.424678802490234 28.204124450683594 C 144.55014038085938 20.151948928833008 44.125762939453125 36.40080642700195 71.8575439453125 26.317121505737305" stroke-width="3.0" fill="none" stroke="rgb(0, 0, 0)" stroke-opacity="1.0" stroke-linecap="round" stroke-linejoin="round"/>
    <path d="M 45.88249969482422 188.7229766845703 C 191.0205535888672 189.899658203125 116.70680236816406 189.07106018066406 50.7273063659668 187.5630340576172" stroke-width="3.0" fill="none" stroke="rgb(0, 0, 0)" stroke-opacity="1.0" stroke-linecap="round" stroke-linejoin="round"/>
    <path d="M 131.9701690673828 188.78016662597656 C 151.49057006835938 131.40586853027344 204.42259216308594 193.92355346679688 166.3384246826172 165.56698608398438" stroke-width="3.0" fill="none" stroke="rgb(0, 0, 0)" stroke-opacity="1.0" stroke-linecap="round" stroke-linejoin="round"/>
    <path d="M 55.46662902832031 184.69375610351562 C 145.1597900390625 179.60340881347656 124.72441864013672 195.0247344970703 55.4110221862793 185.0394744873047" stroke-width="3.0" fill="none" stroke="rgb(0, 0, 0)" stroke-opacity="1.0" stroke-linecap="round" stroke-linejoin="round"/>
    <path d="M 52.44590759277344 180.3994140625 C 145.0548095703125 194.44168090820312 112.06427001953125 174.9881134033203 62.031490325927734 170.70343017578125" stroke-width="3.0" fill="none" stroke="rgb(0, 0, 0)" stroke-opacity="1.0" stroke-linecap="round" stroke-linejoin="round"/>
    <path d="M 101.17489624023438 187.71286010742188 C 94.5632553100586 165.81756591796875 119.76461029052734 165.4257049560547 74.58306121826172 179.05374145507812" stroke-width="3.0" fill="none" stroke="rgb(0, 0, 0)" stroke-opacity="1.0" stroke-linecap="round" stroke-linejoin="round"/>
    <path d="M 180.47738647460938 93.76787567138672 C 176.01966857910156 98.0857925415039 192.46495056152344 71.43389892578125 174.16873168945312 99.16266632080078" stroke-width="3.0" fill="none" stroke="rgb(0, 0, 0)" stroke-opacity="1.0" stroke-linecap="round" stroke-linejoin="round"/>
    <path d="M 119.23394012451172 163.38986206054688 C 47.592891693115234 192.42518615722656 39.54758071899414 193.533935546875 64.57685852050781 182.252685546875" stroke-width="3.0" fill="none" stroke="rgb(0, 0, 0)" stroke-opacity="1.0" stroke-linecap="round" stroke-linejoin="round"/>
    <path d="M 67.84381103515625 83.34519958496094 C 76.42681121826172 56.134586334228516 62.97853469848633 39.81224822998047 164.2224578857422 47.72043228149414" stroke-width="3.0" fill="none" stroke="rgb(0, 0, 0)" stroke-opacity="1.0" stroke-linecap="round" stroke-linejoin="round"/>
    <path d="M 122.73214721679688 162.92237854003906 C 155.47047424316406 167.43524169921875 122.25394439697266 145.1717987060547 129.0091552734375 162.01174926757812" stroke-width="3.0" fill="none" stroke="rgb(0, 0, 0)" stroke-opacity="1.0" stroke-linecap="round" stroke-linejoin="round"/>
    <path d="M 151.25753784179688 62.28992462158203 C 180.33534240722656 31.562870025634766 218.86752319335938 23.570926666259766 142.69200134277344 50.05681610107422" stroke-width="3.0" fill="none" stroke="rgb(0, 0, 0)" stroke-opacity="1.0" stroke-linecap="round" stroke-linejoin="round"/>
    <path d="M 50.26797866821289 177.89785766601562 C 56.219207763671875 189.0305938720703 33.6963005065918 199.32891845703125 52.70069122314453 177.49981689453125" stroke-width="3.0" fill="none" stroke="rgb(0, 0, 0)" stroke-opacity="1.0" stroke-linecap="round" stroke-linejoin="round"/>
    <path d="M 186.42079162597656 100.35216522216797 C 168.4677734375 116.92318725585938 169.02508544921875 134.49989318847656 181.69906616210938 88.63672637939453" stroke-width="3.0" fill="none" stroke="rgb(0, 0, 0)" stroke-opacity="1.0" stroke-linecap="round" stroke-linejoin="round"/>
    <path d="M 140.92367553710938 59.67702102661133 C 109.10404205322266 106.70079803466797 89.47544860839844 161.91265869140625 106.38813781738281 124.01484680175781" stroke-width="3.0" fill="none" stroke="rgb(0, 0, 0)" stroke-opacity="1.0" stroke-linecap="round" stroke-linejoin="round"/>
    <path d="M 180.96229553222656 34.01696014404297 C 150.81182861328125 67.99116516113281 112.9483642578125 -8.462898254394531 167.8887176513672 120.06995391845703" stroke-width="3.0" fill="none" stroke="rgb(0, 0, 0)" stroke-opacity="1.0" stroke-linecap="round" stroke-linejoin="round"/>
    <path d="M 78.12017059326172 184.54458618164062 C 102.50541687011719 153.7481231689453 86.69507598876953 173.5880584716797 54.70235061645508 188.53643798828125" stroke-width="3.0" fill="none" stroke="rgb(0, 0, 0)" stroke-opacity="1.0" stroke-linecap="round" stroke-linejoin="round"/>
    <path d="M 84.26543426513672 60.508758544921875 C 114.92513275146484 143.83135986328125 142.47158813476562 126.67521667480469 54.6195182800293 116.35204315185547" stroke-width="3.0" fill="none" stroke="rgb(0, 0, 0)" stroke-opacity="1.0" stroke-linecap="round" stroke-linejoin="round"/>
    <path d="M 183.35414123535156 143.08236694335938 C 161.89910888671875 113.83455657958984 165.98486328125 118.69902038574219 195.3536376953125 108.61236572265625" stroke-width="3.0" fill="none" stroke="rgb(0, 0, 0)" stroke-opacity="1.0" stroke-linecap="round" stroke-linejoin="round"/>
    <path d="M 77.36949157714844 28.711339950561523 C 76.04291534423828 42.492088317871094 31.590984344482422 19.439617156982422 86.78140258789062 25.944841384887695" stroke-width="3.0" fill="none" stroke="rgb(0, 0, 0)" stroke-opacity="1.0" stroke-linecap="round" stroke-linejoin="round"/>
    <path d="M 43.057159423828125 148.5863800048828 C 60.25189971923828 157.0513153076172 92.1168212890625 141.6239471435547 94.20215606689453 111.94190979003906" stroke-width="3.0" fill="none" stroke="rgb(0, 0, 0)" stroke-opacity="1.0" stroke-linecap="round" stroke-linejoin="round"/>
    <path d="M 171.07373046875 112.40968322753906 C 122.36644744873047 146.2190399169922 128.9077911376953 146.0914306640625 169.71627807617188 110.99439239501953" stroke-width="3.0" fill="none" stroke="rgb(0, 0, 0)" stroke-opacity="1.0" stroke-linecap="round" stroke-linejoin="round"/>
    <path d="M 43.15238952636719 148.39686584472656 C 12.559410095214844 136.8662109375 3.060865879058838 91.50081634521484 43.99966049194336 75.63134002685547" stroke-width="3.0" fill="none" stroke="rgb(0, 0, 0)" stroke-opacity="1.0" stroke-linecap="round" stroke-linejoin="round"/>
    <path d="M 180.1706085205078 182.65098571777344 C 167.2412567138672 165.0350341796875 186.71388244628906 172.3021697998047 169.51022338867188 160.88320922851562" stroke-width="3.0" fill="none" stroke="rgb(0, 0, 0)" stroke-opacity="1.0" stroke-linecap="round" stroke-linejoin="round"/>
    <path d="M 175.755615234375 153.1492919921875 C 76.67867279052734 140.1372528076172 157.6310272216797 154.27870178222656 118.37371063232422 160.67140197753906" stroke-width="3.0" fill="none" stroke="rgb(0, 0, 0)" stroke-opacity="1.0" stroke-linecap="round" stroke-linejoin="round"/>
    <path d="M 29.77560806274414 82.38692474365234 C 91.6562728881836 45.329776763916016 111.79408264160156 137.17501831054688 99.3572006225586 116.28733825683594" stroke-width="3.0" fill="none" stroke="rgb(0, 0, 0)" stroke-opacity="1.0" stroke-linecap="round" stroke-linejoin="round"/>
    <path d="M 112.55525970458984 131.0511932373047 C 94.15941619873047 141.24607849121094 98.26468658447266 105.13748931884766 74.05075073242188 86.68902587890625" stroke-width="3.0" fill="none" stroke="rgb(0, 0, 0)" stroke-opacity="1.0" stroke-linecap="round" stroke-linejoin="round"/>
    <path d="M 67.33749389648438 190.2714385986328 C 95.29225158691406 142.2775421142578 111.68351745605469 153.14537048339844 131.45559692382812 149.2969207763672" stroke-width="3.0" fill="none" stroke="rgb(0, 0, 0)" stroke-opacity="1.0" stroke-linecap="round" stroke-linejoin="round"/>
    <path d="M 82.25311279296875 32.47389221191406 C 97.89795684814453 71.21343994140625 83.81473541259766 26.544408798217773 70.13189697265625 68.54200744628906" stroke-width="3.0" fill="none" stroke="rgb(0, 0, 0)" stroke-opacity="1.0" stroke-linecap="round" stroke-linejoin="round"/>
    <path d="M 140.5230255126953 153.82498168945312 C 231.6425018310547 179.82266235351562 145.6691436767578 145.33111572265625 147.3222198486328 184.37640380859375" stroke-width="3.0" fill="none" stroke="rgb(0, 0, 0)" stroke-opacity="1.0" stroke-linecap="round" stroke-linejoin="round"/>
    <path d="M 110.40869140625 120.00841522216797 C 123.11365509033203 160.04254150390625 124.28533172607422 122.54197692871094 90.06729888916016 123.1981201171875" stroke-width="3.0" fill="none" stroke="rgb(0, 0, 0)" stroke-opacity="1.0" stroke-linecap="round" stroke-linejoin="round"/>
    <path d="M 178.45094299316406 53.74842834472656 C 170.7642364501953 51.96138000488281 194.46116638183594 30.025583267211914 160.59971618652344 49.96617889404297" stroke-width="3.0" fill="none" stroke="rgb(0, 0, 0)" stroke-opacity="1.0" stroke-linecap="round" stroke-linejoin="round"/>
    <path d="M 91.42341613769531 56.16333770751953 C 88.1319580078125 63.08114242553711 85.84449005126953 41.082759857177734 58.567344665527344 116.19054412841797" stroke-width="3.0" fill="none" stroke="rgb(0, 0, 0)" stroke-opacity="1.0" stroke-linecap="round" stroke-linejoin="round"/>
  </g>
</svg>
