<?xml version="1.0" ?>
<svg xmlns="http://www.w3.org/2000/svg" version="1.1" width="224" height="224">
  <defs/>
  <g>
    <path d="M 139.34646606445312 126.06367492675781 C 153.24000549316406 120.95447540283203 168.62985229492188 119.15239715576172 172.910400390625 109.7802734375" stroke-width="3.0" fill="none" stroke="rgb(0, 0, 0)" stroke-opacity="1.0" stroke-linecap="round" stroke-linejoin="round"/>
    <path d="M 108.69200134277344 151.76434326171875 C 54.28715515136719 184.0409393310547 70.80520629882812 183.09225463867188 148.54649353027344 151.37432861328125" stroke-width="3.0" fill="none" stroke="rgb(0, 0, 0)" stroke-opacity="1.0" stroke-linecap="round" stroke-linejoin="round"/>
    <path d="M 148.36343383789062 139.9837188720703 C 156.1249237060547 146.22341918945312 112.96566772460938 129.89048767089844 147.3491973876953 87.6432876586914" stroke-width="3.0" fill="none" stroke="rgb(0, 0, 0)" stroke-opacity="1.0" stroke-linecap="round" stroke-linejoin="round"/>
    <path d="M 146.9725341796875 138.4109649658203 C 178.68722534179688 107.6087646484375 168.41921997070312 115.8386459350586 191.3577423095703 131.2245330810547" stroke-width="3.0" fill="none" stroke="rgb(0, 0, 0)" stroke-opacity="1.0" stroke-linecap="round" stroke-linejoin="round"/>
    <path d="M 196.5128936767578 91.74209594726562 C 208.33181762695312 98.47836303710938 213.51123046875 157.81829833984375 149.7805938720703 154.4646759033203" stroke-width="3.0" fill="none" stroke="rgb(0, 0, 0)" stroke-opacity="1.0" stroke-linecap="round" stroke-linejoin="round"/>
    <path d="M 104.55255889892578 167.6136932373047 C 112.47574615478516 169.25363159179688 102.93354034423828 175.625244140625 109.17054748535156 154.3693389892578" stroke-width="3.0" fill="none" stroke="rgb(0, 0, 0)" stroke-opacity="1.0" stroke-linecap="round" stroke-linejoin="round"/>
    <path d="M 96.50000762939453 112.96766662597656 C 134.984130859375 134.26222229003906 100.01228332519531 81.293701171875 112.50615692138672 132.4031982421875" stroke-width="3.0" fill="none" stroke="rgb(0, 0, 0)" stroke-opacity="1.0" stroke-linecap="round" stroke-linejoin="round"/>
    <path d="M 120.8809814453125 190.93185424804688 C 173.7240447998047 188.94593811035156 141.98081970214844 190.4746856689453 46.19306564331055 191.09303283691406" stroke-width="3.0" fill="none" stroke="rgb(0, 0, 0)" stroke-opacity="1.0" stroke-linecap="round" stroke-linejoin="round"/>
    <path d="M 183.33111572265625 181.7318572998047 C 162.85804748535156 219.0153045654297 131.94871520996094 188.32994079589844 150.99685668945312 169.17373657226562" stroke-width="3.0" fill="none" stroke="rgb(0, 0, 0)" stroke-opacity="1.0" stroke-linecap="round" stroke-linejoin="round"/>
    <path d="M 152.60166931152344 77.92041778564453 C 202.06163024902344 67.76738739013672 204.15249633789062 115.01483917236328 203.85816955566406 113.9229507446289" stroke-width="3.0" fill="none" stroke="rgb(0, 0, 0)" stroke-opacity="1.0" stroke-linecap="round" stroke-linejoin="round"/>
    <path d="M 179.4156036376953 170.31080627441406 C 179.89483642578125 189.9069061279297 173.79539489746094 206.8251190185547 180.94027709960938 174.9384307861328" stroke-width="3.0" fill="none" stroke="rgb(0, 0, 0)" stroke-opacity="1.0" stroke-linecap="round" stroke-linejoin="round"/>
    <path d="M 127.83285522460938 147.33053588867188 C 125.34231567382812 148.95751953125 134.2418975830078 146.65391540527344 129.64369201660156 147.39540100097656" stroke-width="3.0" fill="none" stroke="rgb(0, 0, 0)" stroke-opacity="1.0" stroke-linecap="round" stroke-linejoin="round"/>
    <path d="M 159.39671325683594 144.55628967285156 C 168.53053283691406 113.23678588867188 166.00347900390625 109.9307861328125 174.49058532714844 146.2590789794922" stroke-width="3.0" fill="none" stroke="rgb(0, 0, 0)" stroke-opacity="1.0" stroke-linecap="round" stroke-linejoin="round"/>
    <path d="M 149.85015869140625 194.50894165039062 C 180.07460021972656 201.730224609375 174.77676391601562 158.3350830078125 151.28765869140625 168.3761749267578" stroke-width="3.0" fill="none" stroke="rgb(0, 0, 0)" stroke-opacity="1.0" stroke-linecap="round" stroke-linejoin="round"/>
    <path d="M 87.01773071289062 55.79344940185547 C 150.5601348876953 35.469669342041016 180.3418426513672 89.97421264648438 166.62393188476562 40.62818145751953" stroke-width="3.0" fill="none" stroke="rgb(0, 0, 0)" stroke-opacity="1.0" stroke-linecap="round" stroke-linejoin="round"/>
    <path d="M 74.0370864868164 36.358394622802734 C 73.18343353271484 20.221176147460938 80.57918548583984 26.987667083740234 106.52888488769531 108.71398162841797" stroke-width="3.0" fill="none" stroke="rgb(0, 0, 0)" stroke-opacity="1.0" stroke-linecap="round" stroke-linejoin="round"/>
    <path d="M 62.81510925292969 23.4161434173584 C 125.18915557861328 27.291933059692383 96.2468032836914 20.671127319335938 69.45843505859375 30.757841110229492" stroke-width="3.0" fill="none" stroke="rgb(0, 0, 0)" stroke-opacity="1.0" stroke-linecap="round" stroke-linejoin="round"/>
    <path d="M 57.95574188232422 184.3296356201172 C 85.78352355957031 181.78111267089844 72.066650390625 161.51513671875 65.36260986328125 187.28977966308594" stroke-width="3.0" fill="none" stroke="rgb(0, 0, 0)" stroke-opacity="1.0" stroke-linecap="round" stroke-linejoin="round"/>
    <path d="M 147.14154052734375 173.19064331054688 C 162.0972137451172 146.3834228515625 197.5145721435547 181.05459594726562 161.44558715820312 163.73736572265625" stroke-width="3.0" fill="none" stroke="rgb(0, 0, 0)" stroke-opacity="1.0" stroke-linecap="round" stroke-linejoin="round"/>
    <path d="M 70.02295684814453 179.63841247558594 C 103.45173645019531 172.43748474121094 97.41268920898438 171.9674835205078 96.27316284179688 174.82460021972656" stroke-width="3.0" fill="none" stroke="rgb(0, 0, 0)" stroke-opacity="1.0" stroke-linecap="round" stroke-linejoin="round"/>
    <path d="M 55.781654357910156 175.50132751464844 C 120.29444122314453 162.97064208984375 114.39385986328125 183.9625701904297 50.5629997253418 182.0025177001953" stroke-width="3.0" fill="none" stroke="rgb(0, 0, 0)" stroke-opacity="1.0" stroke-linecap="round" stroke-linejoin="round"/>
    <path d="M 91.83751678466797 187.7508087158203 C 97.2863998413086 168.75039672851562 114.76507568359375 144.4822235107422 90.19525146484375 183.20147705078125" stroke-width="3.0" fill="none" stroke="rgb(0, 0, 0)" stroke-opacity="1.0" stroke-linecap="round" stroke-linejoin="round"/>
    <path d="M 174.35720825195312 79.67688751220703 C 169.7144317626953 133.52171325683594 175.53591918945312 73.27312469482422 169.01597595214844 115.76798248291016" stroke-width="3.0" fill="none" stroke="rgb(0, 0, 0)" stroke-opacity="1.0" stroke-linecap="round" stroke-linejoin="round"/>
    <path d="M 98.2116928100586 177.2119598388672 C 30.3753662109375 180.04486083984375 40.71343994140625 183.71942138671875 70.50840759277344 189.43797302246094" stroke-width="3.0" fill="none" stroke="rgb(0, 0, 0)" stroke-opacity="1.0" stroke-linecap="round" stroke-linejoin="round"/>
    <path d="M 80.54443359375 55.93516540527344 C 79.43002319335938 69.12150573730469 70.59063720703125 46.13188171386719 122.72966766357422 51.882469177246094" stroke-width="3.0" fill="none" stroke="rgb(0, 0, 0)" stroke-opacity="1.0" stroke-linecap="round" stroke-linejoin="round"/>
    <path d="M 110.6971206665039 153.50506591796875 C 159.1906280517578 147.00656127929688 124.60005187988281 151.95225524902344 125.81513214111328 160.20582580566406" stroke-width="3.0" fill="none" stroke="rgb(0, 0, 0)" stroke-opacity="1.0" stroke-linecap="round" stroke-linejoin="round"/>
    <path d="M 157.81051635742188 51.977333068847656 C 165.6188201904297 32.168399810791016 214.59140014648438 43.336570739746094 140.27410888671875 48.393009185791016" stroke-width="3.0" fill="none" stroke="rgb(0, 0, 0)" stroke-opacity="1.0" stroke-linecap="round" stroke-linejoin="round"/>
    <path d="M 52.582393646240234 175.81842041015625 C 47.73865509033203 183.62709045410156 40.90599822998047 199.01919555664062 56.935176849365234 179.1035919189453" stroke-width="3.0" fill="none" stroke="rgb(0, 0, 0)" stroke-opacity="1.0" stroke-linecap="round" stroke-linejoin="round"/>
    <path d="M 164.96412658691406 111.43376922607422 C 159.56094360351562 132.69288635253906 170.014892578125 124.65595245361328 185.67344665527344 88.94947052001953" stroke-width="3.0" fill="none" stroke="rgb(0, 0, 0)" stroke-opacity="1.0" stroke-linecap="round" stroke-linejoin="round"/>
    <path d="M 139.4873046875 54.67048263549805 C 121.04547882080078 100.1331558227539 105.51530456542969 126.43500518798828 114.6154556274414 114.36288452148438" stroke-width="3.0" fill="none" stroke="rgb(0, 0, 0)" stroke-opacity="1.0" stroke-linecap="round" stroke-linejoin="round"/>
    <path d="M 161.22889709472656 51.02998352050781 C 145.3902130126953 76.30109405517578 126.92857360839844 24.48920249938965 163.1077117919922 112.73693084716797" stroke-width="3.0" fill="none" stroke="rgb(0, 0, 0)" stroke-opacity="1.0" stroke-linecap="round" stroke-linejoin="round"/>
    <path d="M 91.24311065673828 189.1429901123047 C 98.5291519165039 189.67576599121094 110.5580062866211 185.81829833984375 69.34160614013672 189.00245666503906" stroke-width="3.0" fill="none" stroke="rgb(0, 0, 0)" stroke-opacity="1.0" stroke-linecap="round" stroke-linejoin="round"/>
    <path d="M 83.23341369628906 55.106929779052734 C 104.28524017333984 132.6208953857422 104.71015930175781 151.09803771972656 70.91902160644531 83.89389038085938" stroke-width="3.0" fill="none" stroke="rgb(0, 0, 0)" stroke-opacity="1.0" stroke-linecap="round" stroke-linejoin="round"/>
    <path d="M 183.8862762451172 141.87783813476562 C 160.3837432861328 105.08384704589844 168.68756103515625 97.3511962890625 176.2130584716797 116.2431869506836" stroke-width="3.0" fill="none" stroke="rgb(0, 0, 0)" stroke-opacity="1.0" stroke-linecap="round" stroke-linejoin="round"/>
    <path d="M 76.73973846435547 33.41946029663086 C 28.30634117126465 16.964548110961914 63.18389129638672 34.99549865722656 76.82197570800781 34.70553207397461" stroke-width="3.0" fill="none" stroke="rgb(0, 0, 0)" stroke-opacity="1.0" stroke-linecap="round" stroke-linejoin="round"/>
    <path d="M 43.26273727416992 148.7977752685547 C 60.37583541870117 157.5898895263672 85.97671508789062 146.1709442138672 93.121337890625 119.66737365722656" stroke-width="3.0" fill="none" stroke="rgb(0, 0, 0)" stroke-opacity="1.0" stroke-linecap="round" stroke-linejoin="round"/>
    <path d="M 159.673828125 126.76673889160156 C 137.81375122070312 155.52261352539062 150.998779296875 127.98362731933594 147.95111083984375 138.4900360107422" stroke-width="3.0" fill="none" stroke="rgb(0, 0, 0)" stroke-opacity="1.0" stroke-linecap="round" stroke-linejoin="round"/>
    <path d="M 47.033504486083984 150.5110626220703 C 22.53846549987793 143.2419891357422 3.406874656677246 109.97157287597656 32.93914794921875 82.1585922241211" stroke-width="3.0" fill="none" stroke="rgb(0, 0, 0)" stroke-opacity="1.0" stroke-linecap="round" stroke-linejoin="round"/>
    <path d="M 179.37149047851562 191.7062530517578 C 180.2016143798828 172.94749450683594 189.4672393798828 187.20823669433594 169.41619873046875 165.12667846679688" stroke-width="3.0" fill="none" stroke="rgb(0, 0, 0)" stroke-opacity="1.0" stroke-linecap="round" stroke-linejoin="round"/>
    <path d="M 155.2964630126953 156.65969848632812 C 71.92057037353516 143.640869140625 159.8513641357422 147.74789428710938 131.88894653320312 156.9844512939453" stroke-width="3.0" fill="none" stroke="rgb(0, 0, 0)" stroke-opacity="1.0" stroke-linecap="round" stroke-linejoin="round"/>
    <path d="M 36.34149932861328 79.48985290527344 C 75.57477569580078 50.76583480834961 117.51783752441406 126.01191711425781 94.07050323486328 116.9873046875" stroke-width="3.0" fill="none" stroke="rgb(0, 0, 0)" stroke-opacity="1.0" stroke-linecap="round" stroke-linejoin="round"/>
    <path d="M 98.07432556152344 117.29132843017578 C 86.9524917602539 88.27684783935547 93.26162719726562 88.64765167236328 81.30418395996094 83.6458969116211" stroke-width="3.0" fill="none" stroke="rgb(0, 0, 0)" stroke-opacity="1.0" stroke-linecap="round" stroke-linejoin="round"/>
    <path d="M 79.2854995727539 171.09767150878906 C 105.57408905029297 144.7581329345703 133.5723419189453 142.72146606445312 147.47898864746094 150.694091796875" stroke-width="3.0" fill="none" stroke="rgb(0, 0, 0)" stroke-opacity="1.0" stroke-linecap="round" stroke-linejoin="round"/>
    <path d="M 83.39539337158203 33.70355987548828 C 86.32343292236328 60.177913665771484 95.60783386230469 55.83586883544922 82.37265014648438 58.531227111816406" stroke-width="3.0" fill="none" stroke="rgb(0, 0, 0)" stroke-opacity="1.0" stroke-linecap="round" stroke-linejoin="round"/>
    <path d="M 115.33566284179688 153.647705078125 C 187.6322479248047 158.7355194091797 135.55075073242188 151.7330322265625 138.66107177734375 187.99143981933594" stroke-width="3.0" fill="none" stroke="rgb(0, 0, 0)" stroke-opacity="1.0" stroke-linecap="round" stroke-linejoin="round"/>
    <path d="M 115.53926086425781 135.9071807861328 C 123.1034164428711 142.39889526367188 120.77299499511719 120.79425048828125 101.45846557617188 126.57469177246094" stroke-width="3.0" fill="none" stroke="rgb(0, 0, 0)" stroke-opacity="1.0" stroke-linecap="round" stroke-linejoin="round"/>
    <path d="M 178.68157958984375 54.81134033203125 C 173.89154052734375 49.25210189819336 173.20350646972656 53.386661529541016 177.21249389648438 37.821231842041016" stroke-width="3.0" fill="none" stroke="rgb(0, 0, 0)" stroke-opacity="1.0" stroke-linecap="round" stroke-linejoin="round"/>
    <path d="M 83.29131317138672 59.30511474609375 C 67.04740142822266 71.23839569091797 87.82636260986328 36.122920989990234 66.12146759033203 102.10934448242188" stroke-width="3.0" fill="none" stroke="rgb(0, 0, 0)" stroke-opacity="1.0" stroke-linecap="round" stroke-linejoin="round"/>
  </g>
</svg>
