<?xml version="1.0" ?>
<svg xmlns="http://www.w3.org/2000/svg" version="1.1" width="224" height="224">
  <defs/>
  <g>
    <path d="M 131.6834716796875 117.9704818725586 C 183.63534545898438 114.32368469238281 172.84727478027344 105.92693328857422 184.83255004882812 103.99336242675781" stroke-width="3.0" fill="none" stroke="rgb(0, 0, 0)" stroke-opacity="1.0" stroke-linecap="round" stroke-linejoin="round"/>
    <path d="M 97.25608825683594 151.4947052001953 C 64.19155883789062 177.7822723388672 74.35558319091797 173.49327087402344 155.8400421142578 156.0537109375" stroke-width="3.0" fill="none" stroke="rgb(0, 0, 0)" stroke-opacity="1.0" stroke-linecap="round" stroke-linejoin="round"/>
    <path d="M 155.94654846191406 152.18467712402344 C 149.19229125976562 153.27537536621094 101.90647888183594 129.1824188232422 143.06036376953125 73.35826873779297" stroke-width="3.0" fill="none" stroke="rgb(0, 0, 0)" stroke-opacity="1.0" stroke-linecap="round" stroke-linejoin="round"/>
    <path d="M 148.8575897216797 144.09268188476562 C 181.96560668945312 93.63137817382812 156.56935119628906 111.89849853515625 186.41351318359375 129.92578125" stroke-width="3.0" fill="none" stroke="rgb(0, 0, 0)" stroke-opacity="1.0" stroke-linecap="round" stroke-linejoin="round"/>
    <path d="M 155.23194885253906 76.74405670166016 C 229.15740966796875 76.11198425292969 228.49954223632812 166.20968627929688 148.03579711914062 158.42930603027344" stroke-width="3.0" fill="none" stroke="rgb(0, 0, 0)" stroke-opacity="1.0" stroke-linecap="round" stroke-linejoin="round"/>
    <path d="M 98.04815673828125 164.98599243164062 C 95.47738647460938 161.91795349121094 98.92667388916016 185.41537475585938 112.9907455444336 152.98031616210938" stroke-width="3.0" fill="none" stroke="rgb(0, 0, 0)" stroke-opacity="1.0" stroke-linecap="round" stroke-linejoin="round"/>
    <path d="M 89.47356414794922 119.22972106933594 C 140.0013427734375 127.77233123779297 88.29736328125 97.44408416748047 108.56217193603516 127.64754486083984" stroke-width="3.0" fill="none" stroke="rgb(0, 0, 0)" stroke-opacity="1.0" stroke-linecap="round" stroke-linejoin="round"/>
    <path d="M 56.362789154052734 175.51893615722656 C 212.61160278320312 154.47811889648438 193.13265991210938 150.5508270263672 63.8679084777832 170.03257751464844" stroke-width="3.0" fill="none" stroke="rgb(0, 0, 0)" stroke-opacity="1.0" stroke-linecap="round" stroke-linejoin="round"/>
    <path d="M 182.350341796875 176.8751678466797 C 162.13421630859375 238.2302703857422 119.32105255126953 159.61289978027344 149.34498596191406 189.125" stroke-width="3.0" fill="none" stroke="rgb(0, 0, 0)" stroke-opacity="1.0" stroke-linecap="round" stroke-linejoin="round"/>
    <path d="M 157.85008239746094 86.05168151855469 C 194.2781219482422 78.88692474365234 220.39190673828125 125.48759460449219 180.34735107421875 147.04302978515625" stroke-width="3.0" fill="none" stroke="rgb(0, 0, 0)" stroke-opacity="1.0" stroke-linecap="round" stroke-linejoin="round"/>
    <path d="M 178.82339477539062 174.92312622070312 C 174.1044464111328 150.92079162597656 192.45425415039062 201.09994506835938 175.1299285888672 174.30772399902344" stroke-width="3.0" fill="none" stroke="rgb(0, 0, 0)" stroke-opacity="1.0" stroke-linecap="round" stroke-linejoin="round"/>
    <path d="M 150.92237854003906 152.02365112304688 C 99.22319793701172 150.85414123535156 115.79933166503906 144.04644775390625 140.6881866455078 151.62478637695312" stroke-width="3.0" fill="none" stroke="rgb(0, 0, 0)" stroke-opacity="1.0" stroke-linecap="round" stroke-linejoin="round"/>
    <path d="M 164.49818420410156 148.54330444335938 C 167.7188262939453 107.66998291015625 156.9022979736328 82.13905334472656 175.50735473632812 148.80014038085938" stroke-width="3.0" fill="none" stroke="rgb(0, 0, 0)" stroke-opacity="1.0" stroke-linecap="round" stroke-linejoin="round"/>
    <path d="M 142.32479858398438 176.6136932373047 C 160.57766723632812 225.2554168701172 193.0890350341797 155.3306121826172 145.50180053710938 178.2214813232422" stroke-width="3.0" fill="none" stroke="rgb(0, 0, 0)" stroke-opacity="1.0" stroke-linecap="round" stroke-linejoin="round"/>
    <path d="M 85.99642181396484 57.43426513671875 C 124.92007446289062 35.87514877319336 190.2195281982422 89.5765151977539 161.1134490966797 42.013973236083984" stroke-width="3.0" fill="none" stroke="rgb(0, 0, 0)" stroke-opacity="1.0" stroke-linecap="round" stroke-linejoin="round"/>
    <path d="M 61.99962615966797 26.867996215820312 C 77.9042739868164 31.276531219482422 78.5475845336914 31.307069778442383 105.73081970214844 117.38717651367188" stroke-width="3.0" fill="none" stroke="rgb(0, 0, 0)" stroke-opacity="1.0" stroke-linecap="round" stroke-linejoin="round"/>
    <path d="M 63.48698806762695 25.185728073120117 C 132.76817321777344 25.509130477905273 41.29393005371094 35.575992584228516 66.14949798583984 25.66668128967285" stroke-width="3.0" fill="none" stroke="rgb(0, 0, 0)" stroke-opacity="1.0" stroke-linecap="round" stroke-linejoin="round"/>
    <path d="M 48.26433563232422 185.20687866210938 C 181.35238647460938 187.76956176757812 113.22341918945312 190.94818115234375 66.07376098632812 181.26922607421875" stroke-width="3.0" fill="none" stroke="rgb(0, 0, 0)" stroke-opacity="1.0" stroke-linecap="round" stroke-linejoin="round"/>
    <path d="M 130.24461364746094 187.4678955078125 C 149.56011962890625 135.85067749023438 204.96096801757812 196.299560546875 163.84207153320312 165.48345947265625" stroke-width="3.0" fill="none" stroke="rgb(0, 0, 0)" stroke-opacity="1.0" stroke-linecap="round" stroke-linejoin="round"/>
    <path d="M 58.14219665527344 181.51324462890625 C 134.2093505859375 175.5028533935547 116.71417236328125 190.57933044433594 58.49742126464844 175.59530639648438" stroke-width="3.0" fill="none" stroke="rgb(0, 0, 0)" stroke-opacity="1.0" stroke-linecap="round" stroke-linejoin="round"/>
    <path d="M 51.972557067871094 189.70079040527344 C 134.56564331054688 194.7906494140625 111.48954772949219 173.528076171875 59.88143539428711 174.8030242919922" stroke-width="3.0" fill="none" stroke="rgb(0, 0, 0)" stroke-opacity="1.0" stroke-linecap="round" stroke-linejoin="round"/>
    <path d="M 98.97602081298828 189.38487243652344 C 100.28163146972656 160.31944274902344 117.78744506835938 158.47125244140625 60.22010040283203 179.81585693359375" stroke-width="3.0" fill="none" stroke="rgb(0, 0, 0)" stroke-opacity="1.0" stroke-linecap="round" stroke-linejoin="round"/>
    <path d="M 182.91738891601562 94.11442565917969 C 178.02545166015625 104.02969360351562 194.78038024902344 72.34416198730469 174.96543884277344 107.382080078125" stroke-width="3.0" fill="none" stroke="rgb(0, 0, 0)" stroke-opacity="1.0" stroke-linecap="round" stroke-linejoin="round"/>
    <path d="M 118.00418853759766 164.56643676757812 C 40.62983322143555 185.52835083007812 42.602783203125 193.5533905029297 63.17445373535156 179.64344787597656" stroke-width="3.0" fill="none" stroke="rgb(0, 0, 0)" stroke-opacity="1.0" stroke-linecap="round" stroke-linejoin="round"/>
    <path d="M 72.36442565917969 83.11537170410156 C 84.41004180908203 61.203372955322266 62.75490188598633 37.691837310791016 169.00437927246094 51.61408615112305" stroke-width="3.0" fill="none" stroke="rgb(0, 0, 0)" stroke-opacity="1.0" stroke-linecap="round" stroke-linejoin="round"/>
    <path d="M 133.3091278076172 163.76077270507812 C 149.26840209960938 165.60789489746094 117.89085388183594 144.22862243652344 127.05982971191406 160.88758850097656" stroke-width="3.0" fill="none" stroke="rgb(0, 0, 0)" stroke-opacity="1.0" stroke-linecap="round" stroke-linejoin="round"/>
    <path d="M 153.25515747070312 63.870994567871094 C 177.89111328125 31.17378044128418 215.06358337402344 23.665420532226562 146.58099365234375 51.87308883666992" stroke-width="3.0" fill="none" stroke="rgb(0, 0, 0)" stroke-opacity="1.0" stroke-linecap="round" stroke-linejoin="round"/>
    <path d="M 56.81489181518555 178.11012268066406 C 57.08588409423828 187.03805541992188 35.239646911621094 198.37977600097656 53.780426025390625 174.95582580566406" stroke-width="3.0" fill="none" stroke="rgb(0, 0, 0)" stroke-opacity="1.0" stroke-linecap="round" stroke-linejoin="round"/>
    <path d="M 186.90467834472656 102.18201446533203 C 172.9142608642578 112.74653625488281 174.12371826171875 126.92932891845703 174.44569396972656 86.2546157836914" stroke-width="3.0" fill="none" stroke="rgb(0, 0, 0)" stroke-opacity="1.0" stroke-linecap="round" stroke-linejoin="round"/>
    <path d="M 140.12503051757812 57.7120361328125 C 111.65230560302734 108.7569580078125 92.28028106689453 165.7855682373047 100.19548034667969 115.60283660888672" stroke-width="3.0" fill="none" stroke="rgb(0, 0, 0)" stroke-opacity="1.0" stroke-linecap="round" stroke-linejoin="round"/>
    <path d="M 173.56898498535156 36.93496322631836 C 152.2433624267578 74.44340515136719 117.0651626586914 -6.0000319480896 169.58114624023438 119.76568603515625" stroke-width="3.0" fill="none" stroke="rgb(0, 0, 0)" stroke-opacity="1.0" stroke-linecap="round" stroke-linejoin="round"/>
    <path d="M 65.99370574951172 178.36813354492188 C 106.68001556396484 161.8157196044922 103.923583984375 189.37777709960938 42.26706314086914 190.23829650878906" stroke-width="3.0" fill="none" stroke="rgb(0, 0, 0)" stroke-opacity="1.0" stroke-linecap="round" stroke-linejoin="round"/>
    <path d="M 91.70927429199219 56.88985061645508 C 117.60563659667969 141.54940795898438 137.51112365722656 121.87884521484375 52.76555252075195 116.8884506225586" stroke-width="3.0" fill="none" stroke="rgb(0, 0, 0)" stroke-opacity="1.0" stroke-linecap="round" stroke-linejoin="round"/>
    <path d="M 187.92185974121094 142.0542755126953 C 168.28289794921875 115.27962493896484 168.71827697753906 122.47706604003906 193.1143341064453 110.85823822021484" stroke-width="3.0" fill="none" stroke="rgb(0, 0, 0)" stroke-opacity="1.0" stroke-linecap="round" stroke-linejoin="round"/>
    <path d="M 79.78245544433594 30.34025001525879 C 75.95870971679688 41.73836135864258 49.072723388671875 24.263202667236328 83.47286224365234 28.688026428222656" stroke-width="3.0" fill="none" stroke="rgb(0, 0, 0)" stroke-opacity="1.0" stroke-linecap="round" stroke-linejoin="round"/>
    <path d="M 40.544219970703125 147.3072509765625 C 65.0864486694336 158.18453979492188 88.23152160644531 143.45236206054688 89.83153533935547 111.89312744140625" stroke-width="3.0" fill="none" stroke="rgb(0, 0, 0)" stroke-opacity="1.0" stroke-linecap="round" stroke-linejoin="round"/>
    <path d="M 169.79347229003906 113.21790313720703 C 131.83154296875 142.9365692138672 142.46487426757812 137.0264434814453 147.4132080078125 130.81846618652344" stroke-width="3.0" fill="none" stroke="rgb(0, 0, 0)" stroke-opacity="1.0" stroke-linecap="round" stroke-linejoin="round"/>
    <path d="M 45.472442626953125 149.0148162841797 C 13.65588665008545 138.12551879882812 3.6831765174865723 92.40540313720703 44.143096923828125 76.8281021118164" stroke-width="3.0" fill="none" stroke="rgb(0, 0, 0)" stroke-opacity="1.0" stroke-linecap="round" stroke-linejoin="round"/>
    <path d="M 185.69662475585938 183.1883087158203 C 162.71099853515625 174.6385498046875 191.5753936767578 171.87835693359375 168.40017700195312 161.8170166015625" stroke-width="3.0" fill="none" stroke="rgb(0, 0, 0)" stroke-opacity="1.0" stroke-linecap="round" stroke-linejoin="round"/>
    <path d="M 174.20046997070312 156.0133056640625 C 85.32991027832031 138.3977813720703 174.08132934570312 150.56411743164062 126.9086685180664 165.0305938720703" stroke-width="3.0" fill="none" stroke="rgb(0, 0, 0)" stroke-opacity="1.0" stroke-linecap="round" stroke-linejoin="round"/>
    <path d="M 29.853225708007812 83.48883056640625 C 93.21607208251953 45.4753303527832 109.24893951416016 138.72557067871094 87.91536712646484 114.27837371826172" stroke-width="3.0" fill="none" stroke="rgb(0, 0, 0)" stroke-opacity="1.0" stroke-linecap="round" stroke-linejoin="round"/>
    <path d="M 108.77955627441406 121.65217590332031 C 88.2980728149414 145.58729553222656 102.42501831054688 101.72027587890625 76.1904525756836 85.42452239990234" stroke-width="3.0" fill="none" stroke="rgb(0, 0, 0)" stroke-opacity="1.0" stroke-linecap="round" stroke-linejoin="round"/>
    <path d="M 70.60513305664062 186.23831176757812 C 87.8034896850586 141.13824462890625 115.98677825927734 147.4191131591797 131.79234313964844 150.46939086914062" stroke-width="3.0" fill="none" stroke="rgb(0, 0, 0)" stroke-opacity="1.0" stroke-linecap="round" stroke-linejoin="round"/>
    <path d="M 81.84131622314453 34.82716369628906 C 96.44142150878906 73.18315124511719 81.7813949584961 28.746553421020508 71.0067138671875 70.82659149169922" stroke-width="3.0" fill="none" stroke="rgb(0, 0, 0)" stroke-opacity="1.0" stroke-linecap="round" stroke-linejoin="round"/>
    <path d="M 144.15589904785156 151.78262329101562 C 224.71751403808594 188.2034912109375 144.45791625976562 149.9461212158203 145.75611877441406 184.98757934570312" stroke-width="3.0" fill="none" stroke="rgb(0, 0, 0)" stroke-opacity="1.0" stroke-linecap="round" stroke-linejoin="round"/>
    <path d="M 108.333984375 120.51436614990234 C 118.63459014892578 170.3946990966797 125.0339126586914 122.84776306152344 94.37283325195312 119.42317199707031" stroke-width="3.0" fill="none" stroke="rgb(0, 0, 0)" stroke-opacity="1.0" stroke-linecap="round" stroke-linejoin="round"/>
    <path d="M 176.61233520507812 54.00323486328125 C 171.6074981689453 44.2562370300293 188.67385864257812 34.72621536254883 160.67140197753906 43.7633171081543" stroke-width="3.0" fill="none" stroke="rgb(0, 0, 0)" stroke-opacity="1.0" stroke-linecap="round" stroke-linejoin="round"/>
    <path d="M 91.32870483398438 55.16401672363281 C 82.29069519042969 64.69573974609375 84.9588623046875 42.95227813720703 55.391353607177734 117.3093490600586" stroke-width="3.0" fill="none" stroke="rgb(0, 0, 0)" stroke-opacity="1.0" stroke-linecap="round" stroke-linejoin="round"/>
  </g>
</svg>
