<?xml version="1.0" ?>
<svg xmlns="http://www.w3.org/2000/svg" version="1.1" width="224" height="224">
  <defs/>
  <g>
    <path d="M 133.46432495117188 111.10714721679688 C 193.98582458496094 104.55488586425781 181.2667999267578 111.76443481445312 178.90298461914062 110.1131820678711" stroke-width="3.0" fill="none" stroke="rgb(0, 0, 0)" stroke-opacity="1.0" stroke-linecap="round" stroke-linejoin="round"/>
    <path d="M 115.46147918701172 161.94387817382812 C 47.34487533569336 165.08546447753906 70.76933288574219 175.3716278076172 165.68409729003906 159.1563720703125" stroke-width="3.0" fill="none" stroke="rgb(0, 0, 0)" stroke-opacity="1.0" stroke-linecap="round" stroke-linejoin="round"/>
    <path d="M 165.7577667236328 153.95159912109375 C 149.53404235839844 150.6113739013672 108.58574676513672 129.1483612060547 144.1667938232422 76.28236389160156" stroke-width="3.0" fill="none" stroke="rgb(0, 0, 0)" stroke-opacity="1.0" stroke-linecap="round" stroke-linejoin="round"/>
    <path d="M 148.07008361816406 140.89724731445312 C 181.22140502929688 97.50021362304688 154.10133361816406 118.12751007080078 192.8566436767578 119.46549224853516" stroke-width="3.0" fill="none" stroke="rgb(0, 0, 0)" stroke-opacity="1.0" stroke-linecap="round" stroke-linejoin="round"/>
    <path d="M 154.23440551757812 79.20018768310547 C 223.343505859375 64.65821838378906 230.5369415283203 167.3086395263672 149.2627716064453 153.1105499267578" stroke-width="3.0" fill="none" stroke="rgb(0, 0, 0)" stroke-opacity="1.0" stroke-linecap="round" stroke-linejoin="round"/>
    <path d="M 98.99765014648438 182.10084533691406 C 67.49559783935547 175.13034057617188 92.77359771728516 206.9923095703125 109.53302764892578 154.4604034423828" stroke-width="3.0" fill="none" stroke="rgb(0, 0, 0)" stroke-opacity="1.0" stroke-linecap="round" stroke-linejoin="round"/>
    <path d="M 97.96240234375 111.32850646972656 C 141.0382537841797 120.60871887207031 74.80518341064453 97.69229888916016 104.42902374267578 126.56927490234375" stroke-width="3.0" fill="none" stroke="rgb(0, 0, 0)" stroke-opacity="1.0" stroke-linecap="round" stroke-linejoin="round"/>
    <path d="M 63.24393844604492 174.25619506835938 C 175.1899871826172 141.281005859375 201.74098205566406 154.34645080566406 58.765625 172.2318572998047" stroke-width="3.0" fill="none" stroke="rgb(0, 0, 0)" stroke-opacity="1.0" stroke-linecap="round" stroke-linejoin="round"/>
    <path d="M 182.82846069335938 182.97950744628906 C 152.1484375 235.9133758544922 126.35914611816406 157.49278259277344 147.09027099609375 183.87266540527344" stroke-width="3.0" fill="none" stroke="rgb(0, 0, 0)" stroke-opacity="1.0" stroke-linecap="round" stroke-linejoin="round"/>
    <path d="M 155.9201202392578 84.61505126953125 C 196.47921752929688 72.64167785644531 222.25372314453125 135.9260711669922 176.98870849609375 149.3587646484375" stroke-width="3.0" fill="none" stroke="rgb(0, 0, 0)" stroke-opacity="1.0" stroke-linecap="round" stroke-linejoin="round"/>
    <path d="M 185.64129638671875 185.75103759765625 C 183.62026977539062 148.7361602783203 168.07736206054688 233.10641479492188 180.77647399902344 169.58261108398438" stroke-width="3.0" fill="none" stroke="rgb(0, 0, 0)" stroke-opacity="1.0" stroke-linecap="round" stroke-linejoin="round"/>
    <path d="M 127.59844970703125 157.09469604492188 C 96.5007095336914 172.1967315673828 109.30547332763672 171.1409912109375 145.14027404785156 158.86007690429688" stroke-width="3.0" fill="none" stroke="rgb(0, 0, 0)" stroke-opacity="1.0" stroke-linecap="round" stroke-linejoin="round"/>
    <path d="M 160.0966339111328 147.08372497558594 C 173.55149841308594 102.69300842285156 165.3864288330078 79.12194061279297 171.77865600585938 148.61373901367188" stroke-width="3.0" fill="none" stroke="rgb(0, 0, 0)" stroke-opacity="1.0" stroke-linecap="round" stroke-linejoin="round"/>
    <path d="M 141.26470947265625 177.45071411132812 C 165.03753662109375 226.5426025390625 192.55860900878906 151.037109375 142.04962158203125 175.7916259765625" stroke-width="3.0" fill="none" stroke="rgb(0, 0, 0)" stroke-opacity="1.0" stroke-linecap="round" stroke-linejoin="round"/>
    <path d="M 88.5979232788086 55.73747634887695 C 137.2415313720703 42.67164993286133 190.25177001953125 86.8589859008789 164.83853149414062 39.81007385253906" stroke-width="3.0" fill="none" stroke="rgb(0, 0, 0)" stroke-opacity="1.0" stroke-linecap="round" stroke-linejoin="round"/>
    <path d="M 66.30840301513672 29.4694766998291 C 81.01670837402344 28.513395309448242 81.27323913574219 28.653995513916016 107.54182434082031 113.44149017333984" stroke-width="3.0" fill="none" stroke="rgb(0, 0, 0)" stroke-opacity="1.0" stroke-linecap="round" stroke-linejoin="round"/>
    <path d="M 59.64431381225586 25.396387100219727 C 143.7712860107422 23.549007415771484 34.98058319091797 37.15581512451172 63.65492248535156 24.557113647460938" stroke-width="3.0" fill="none" stroke="rgb(0, 0, 0)" stroke-opacity="1.0" stroke-linecap="round" stroke-linejoin="round"/>
    <path d="M 64.2439956665039 182.3794403076172 C 209.37066650390625 199.66659545898438 135.0985870361328 199.2479705810547 44.77986526489258 186.3461151123047" stroke-width="3.0" fill="none" stroke="rgb(0, 0, 0)" stroke-opacity="1.0" stroke-linecap="round" stroke-linejoin="round"/>
    <path d="M 139.9613494873047 190.15074157714844 C 146.82998657226562 132.97865295410156 215.68702697753906 197.2900848388672 166.86050415039062 166.95372009277344" stroke-width="3.0" fill="none" stroke="rgb(0, 0, 0)" stroke-opacity="1.0" stroke-linecap="round" stroke-linejoin="round"/>
    <path d="M 49.039058685302734 184.31214904785156 C 170.17823791503906 195.97271728515625 156.17721557617188 197.77972412109375 50.89790344238281 195.16952514648438" stroke-width="3.0" fill="none" stroke="rgb(0, 0, 0)" stroke-opacity="1.0" stroke-linecap="round" stroke-linejoin="round"/>
    <path d="M 51.944114685058594 180.66485595703125 C 198.82821655273438 187.79067993164062 154.90908813476562 168.42369079589844 66.05955505371094 171.1158447265625" stroke-width="3.0" fill="none" stroke="rgb(0, 0, 0)" stroke-opacity="1.0" stroke-linecap="round" stroke-linejoin="round"/>
    <path d="M 101.4036865234375 187.22128295898438 C 96.74476623535156 168.6098175048828 120.90269470214844 168.28562927246094 71.63417053222656 182.33578491210938" stroke-width="3.0" fill="none" stroke="rgb(0, 0, 0)" stroke-opacity="1.0" stroke-linecap="round" stroke-linejoin="round"/>
    <path d="M 187.03456115722656 92.01746368408203 C 188.36273193359375 97.70054626464844 165.20152282714844 65.24634552001953 177.09222412109375 106.96417999267578" stroke-width="3.0" fill="none" stroke="rgb(0, 0, 0)" stroke-opacity="1.0" stroke-linecap="round" stroke-linejoin="round"/>
    <path d="M 114.22241973876953 155.34861755371094 C 63.241146087646484 199.07156372070312 47.608951568603516 186.2637176513672 75.09469604492188 182.51742553710938" stroke-width="3.0" fill="none" stroke="rgb(0, 0, 0)" stroke-opacity="1.0" stroke-linecap="round" stroke-linejoin="round"/>
    <path d="M 66.37369537353516 92.36669158935547 C 79.18775177001953 57.393009185791016 66.90081787109375 38.74677658081055 168.61831665039062 49.97555160522461" stroke-width="3.0" fill="none" stroke="rgb(0, 0, 0)" stroke-opacity="1.0" stroke-linecap="round" stroke-linejoin="round"/>
    <path d="M 124.06590270996094 161.29525756835938 C 181.7876739501953 162.0786590576172 126.10419464111328 148.91383361816406 126.45094299316406 160.93289184570312" stroke-width="3.0" fill="none" stroke="rgb(0, 0, 0)" stroke-opacity="1.0" stroke-linecap="round" stroke-linejoin="round"/>
    <path d="M 154.91921997070312 63.06373596191406 C 179.87522888183594 26.348588943481445 217.4163360595703 27.145803451538086 144.25437927246094 51.71581268310547" stroke-width="3.0" fill="none" stroke="rgb(0, 0, 0)" stroke-opacity="1.0" stroke-linecap="round" stroke-linejoin="round"/>
    <path d="M 50.722267150878906 183.26815795898438 C 56.153011322021484 187.30462646484375 37.25947570800781 197.5513153076172 51.93391799926758 173.16278076171875" stroke-width="3.0" fill="none" stroke="rgb(0, 0, 0)" stroke-opacity="1.0" stroke-linecap="round" stroke-linejoin="round"/>
    <path d="M 179.01348876953125 87.70394897460938 C 173.21640014648438 118.9030990600586 167.19952392578125 133.6942901611328 184.9151153564453 91.39569854736328" stroke-width="3.0" fill="none" stroke="rgb(0, 0, 0)" stroke-opacity="1.0" stroke-linecap="round" stroke-linejoin="round"/>
    <path d="M 148.12428283691406 43.10588836669922 C 110.65269470214844 107.94764709472656 94.82170867919922 154.0978546142578 104.69754791259766 116.69241333007812" stroke-width="3.0" fill="none" stroke="rgb(0, 0, 0)" stroke-opacity="1.0" stroke-linecap="round" stroke-linejoin="round"/>
    <path d="M 176.44253540039062 36.48064422607422 C 132.44827270507812 66.4013442993164 119.09200286865234 -0.16806034743785858 167.19277954101562 120.19373321533203" stroke-width="3.0" fill="none" stroke="rgb(0, 0, 0)" stroke-opacity="1.0" stroke-linecap="round" stroke-linejoin="round"/>
    <path d="M 51.4372673034668 179.4301300048828 C 110.97859954833984 160.80859375 93.91582489013672 171.45867919921875 52.722843170166016 181.9503173828125" stroke-width="3.0" fill="none" stroke="rgb(0, 0, 0)" stroke-opacity="1.0" stroke-linecap="round" stroke-linejoin="round"/>
    <path d="M 85.95819854736328 58.5911979675293 C 109.4324951171875 139.77456665039062 138.50816345214844 121.58654022216797 53.585838317871094 118.19091033935547" stroke-width="3.0" fill="none" stroke="rgb(0, 0, 0)" stroke-opacity="1.0" stroke-linecap="round" stroke-linejoin="round"/>
    <path d="M 184.223388671875 140.2467041015625 C 168.3663330078125 110.88373565673828 169.13644409179688 123.48470306396484 189.6235809326172 106.50442504882812" stroke-width="3.0" fill="none" stroke="rgb(0, 0, 0)" stroke-opacity="1.0" stroke-linecap="round" stroke-linejoin="round"/>
    <path d="M 82.70274353027344 28.823734283447266 C 80.62318420410156 42.15437698364258 30.643537521362305 13.114940643310547 88.77230834960938 26.430553436279297" stroke-width="3.0" fill="none" stroke="rgb(0, 0, 0)" stroke-opacity="1.0" stroke-linecap="round" stroke-linejoin="round"/>
    <path d="M 40.59614181518555 146.80712890625 C 62.7782096862793 156.9495391845703 87.65534210205078 142.1949462890625 94.47734832763672 119.84370422363281" stroke-width="3.0" fill="none" stroke="rgb(0, 0, 0)" stroke-opacity="1.0" stroke-linecap="round" stroke-linejoin="round"/>
    <path d="M 169.55661010742188 111.693359375 C 119.2964096069336 126.78980255126953 119.25309753417969 126.65513610839844 168.00582885742188 115.98760223388672" stroke-width="3.0" fill="none" stroke="rgb(0, 0, 0)" stroke-opacity="1.0" stroke-linecap="round" stroke-linejoin="round"/>
    <path d="M 44.388587951660156 147.95164489746094 C 14.223395347595215 136.7606964111328 6.674867153167725 96.22795867919922 42.55265808105469 76.7799301147461" stroke-width="3.0" fill="none" stroke="rgb(0, 0, 0)" stroke-opacity="1.0" stroke-linecap="round" stroke-linejoin="round"/>
    <path d="M 182.7493438720703 182.68272399902344 C 167.0256805419922 158.32781982421875 189.30923461914062 176.3307647705078 172.97442626953125 162.26449584960938" stroke-width="3.0" fill="none" stroke="rgb(0, 0, 0)" stroke-opacity="1.0" stroke-linecap="round" stroke-linejoin="round"/>
    <path d="M 173.1597442626953 155.2757568359375 C 92.7655258178711 147.0297393798828 155.75924682617188 154.25518798828125 118.8785171508789 154.38255310058594" stroke-width="3.0" fill="none" stroke="rgb(0, 0, 0)" stroke-opacity="1.0" stroke-linecap="round" stroke-linejoin="round"/>
    <path d="M 29.862445831298828 83.33859252929688 C 93.18516540527344 45.521297454833984 109.57025146484375 136.72232055664062 97.70523071289062 115.57923126220703" stroke-width="3.0" fill="none" stroke="rgb(0, 0, 0)" stroke-opacity="1.0" stroke-linecap="round" stroke-linejoin="round"/>
    <path d="M 112.41019439697266 128.78347778320312 C 77.13240051269531 140.02919006347656 105.93657684326172 104.15479278564453 75.27584838867188 85.05736541748047" stroke-width="3.0" fill="none" stroke="rgb(0, 0, 0)" stroke-opacity="1.0" stroke-linecap="round" stroke-linejoin="round"/>
    <path d="M 54.73304748535156 187.3463897705078 C 97.01739501953125 146.49581909179688 117.19214630126953 148.96908569335938 147.77362060546875 154.0758056640625" stroke-width="3.0" fill="none" stroke="rgb(0, 0, 0)" stroke-opacity="1.0" stroke-linecap="round" stroke-linejoin="round"/>
    <path d="M 85.3943862915039 36.05490493774414 C 99.32119750976562 68.81587219238281 93.2022933959961 24.443950653076172 80.46874237060547 79.80669403076172" stroke-width="3.0" fill="none" stroke="rgb(0, 0, 0)" stroke-opacity="1.0" stroke-linecap="round" stroke-linejoin="round"/>
    <path d="M 142.84454345703125 152.54649353027344 C 230.0367889404297 179.20252990722656 139.8040008544922 149.61215209960938 148.4356231689453 187.15963745117188" stroke-width="3.0" fill="none" stroke="rgb(0, 0, 0)" stroke-opacity="1.0" stroke-linecap="round" stroke-linejoin="round"/>
    <path d="M 113.2749252319336 118.38261413574219 C 111.48389434814453 164.73536682128906 132.7255096435547 121.75952911376953 94.46925354003906 127.73204040527344" stroke-width="3.0" fill="none" stroke="rgb(0, 0, 0)" stroke-opacity="1.0" stroke-linecap="round" stroke-linejoin="round"/>
    <path d="M 177.9092559814453 52.11268997192383 C 173.1580352783203 50.8801383972168 192.53692626953125 12.187039375305176 161.10321044921875 55.61744689941406" stroke-width="3.0" fill="none" stroke="rgb(0, 0, 0)" stroke-opacity="1.0" stroke-linecap="round" stroke-linejoin="round"/>
    <path d="M 88.13006591796875 53.613037109375 C 86.14677429199219 65.00248718261719 84.57791137695312 37.465606689453125 56.836341857910156 118.1220932006836" stroke-width="3.0" fill="none" stroke="rgb(0, 0, 0)" stroke-opacity="1.0" stroke-linecap="round" stroke-linejoin="round"/>
  </g>
</svg>
