<?xml version="1.0" ?>
<svg xmlns="http://www.w3.org/2000/svg" version="1.1" width="224" height="224">
  <defs/>
  <g>
    <path d="M 137.5458221435547 126.5947265625 C 196.8459930419922 111.72188568115234 170.9837646484375 104.49442291259766 167.3399200439453 111.82209777832031" stroke-width="3.0" fill="none" stroke="rgb(0, 0, 0)" stroke-opacity="1.0" stroke-linecap="round" stroke-linejoin="round"/>
    <path d="M 120.40652465820312 151.12747192382812 C 54.55567932128906 168.68435668945312 74.80714416503906 182.5735321044922 154.75930786132812 155.7783660888672" stroke-width="3.0" fill="none" stroke="rgb(0, 0, 0)" stroke-opacity="1.0" stroke-linecap="round" stroke-linejoin="round"/>
    <path d="M 176.80564880371094 147.8862762451172 C 147.06961059570312 156.8960418701172 103.88758850097656 130.0420684814453 149.84356689453125 64.9253921508789" stroke-width="3.0" fill="none" stroke="rgb(0, 0, 0)" stroke-opacity="1.0" stroke-linecap="round" stroke-linejoin="round"/>
    <path d="M 148.9316864013672 140.75062561035156 C 178.6879425048828 101.45733642578125 150.33787536621094 125.7094955444336 192.10739135742188 127.77519989013672" stroke-width="3.0" fill="none" stroke="rgb(0, 0, 0)" stroke-opacity="1.0" stroke-linecap="round" stroke-linejoin="round"/>
    <path d="M 156.67832946777344 78.38662719726562 C 221.43914794921875 65.69670104980469 235.15615844726562 167.07717895507812 143.5634002685547 156.61093139648438" stroke-width="3.0" fill="none" stroke="rgb(0, 0, 0)" stroke-opacity="1.0" stroke-linecap="round" stroke-linejoin="round"/>
    <path d="M 105.8447494506836 154.1578369140625 C 47.884315490722656 182.5723876953125 78.79338073730469 189.359375 126.05572509765625 154.806396484375" stroke-width="3.0" fill="none" stroke="rgb(0, 0, 0)" stroke-opacity="1.0" stroke-linecap="round" stroke-linejoin="round"/>
    <path d="M 94.65760040283203 125.15583801269531 C 133.56871032714844 127.5892333984375 79.4441909790039 104.86727905273438 113.69808959960938 111.70746612548828" stroke-width="3.0" fill="none" stroke="rgb(0, 0, 0)" stroke-opacity="1.0" stroke-linecap="round" stroke-linejoin="round"/>
    <path d="M 53.202789306640625 173.78785705566406 C 155.1855926513672 136.80125427246094 182.27569580078125 153.21986389160156 58.126094818115234 172.04432678222656" stroke-width="3.0" fill="none" stroke="rgb(0, 0, 0)" stroke-opacity="1.0" stroke-linecap="round" stroke-linejoin="round"/>
    <path d="M 181.95411682128906 183.26535034179688 C 151.9101104736328 226.4080352783203 130.08236694335938 160.2510528564453 146.13778686523438 187.43838500976562" stroke-width="3.0" fill="none" stroke="rgb(0, 0, 0)" stroke-opacity="1.0" stroke-linecap="round" stroke-linejoin="round"/>
    <path d="M 157.560791015625 84.94461059570312 C 202.43679809570312 78.57913208007812 222.70909118652344 137.10159301757812 168.47438049316406 150.0426025390625" stroke-width="3.0" fill="none" stroke="rgb(0, 0, 0)" stroke-opacity="1.0" stroke-linecap="round" stroke-linejoin="round"/>
    <path d="M 182.01539611816406 184.95933532714844 C 182.2140655517578 159.61090087890625 166.80215454101562 218.92160034179688 178.70399475097656 172.07855224609375" stroke-width="3.0" fill="none" stroke="rgb(0, 0, 0)" stroke-opacity="1.0" stroke-linecap="round" stroke-linejoin="round"/>
    <path d="M 89.07917022705078 176.25979614257812 C 80.457763671875 176.2748565673828 97.30382537841797 152.0298309326172 123.83160400390625 162.2787628173828" stroke-width="3.0" fill="none" stroke="rgb(0, 0, 0)" stroke-opacity="1.0" stroke-linecap="round" stroke-linejoin="round"/>
    <path d="M 161.39183044433594 145.0463409423828 C 176.50830078125 89.95613098144531 163.54580688476562 87.52714538574219 175.5273895263672 144.4366455078125" stroke-width="3.0" fill="none" stroke="rgb(0, 0, 0)" stroke-opacity="1.0" stroke-linecap="round" stroke-linejoin="round"/>
    <path d="M 143.4519500732422 177.54791259765625 C 164.7611083984375 222.16152954101562 187.15591430664062 151.70457458496094 143.25987243652344 182.66714477539062" stroke-width="3.0" fill="none" stroke="rgb(0, 0, 0)" stroke-opacity="1.0" stroke-linecap="round" stroke-linejoin="round"/>
    <path d="M 85.2091064453125 59.17487335205078 C 131.76333618164062 33.898109436035156 187.0519561767578 91.5024185180664 164.64561462402344 40.00413513183594" stroke-width="3.0" fill="none" stroke="rgb(0, 0, 0)" stroke-opacity="1.0" stroke-linecap="round" stroke-linejoin="round"/>
    <path d="M 62.532047271728516 27.621501922607422 C 76.12116241455078 25.84392738342285 82.65536499023438 26.55979347229004 110.66506958007812 120.7316665649414" stroke-width="3.0" fill="none" stroke="rgb(0, 0, 0)" stroke-opacity="1.0" stroke-linecap="round" stroke-linejoin="round"/>
    <path d="M 61.5915412902832 25.387853622436523 C 122.46210479736328 28.874765396118164 35.405643463134766 30.62117576599121 74.91194152832031 26.016691207885742" stroke-width="3.0" fill="none" stroke="rgb(0, 0, 0)" stroke-opacity="1.0" stroke-linecap="round" stroke-linejoin="round"/>
    <path d="M 61.89926528930664 180.89149475097656 C 200.96469116210938 170.1884002685547 159.008056640625 165.09335327148438 51.71103286743164 183.5475616455078" stroke-width="3.0" fill="none" stroke="rgb(0, 0, 0)" stroke-opacity="1.0" stroke-linecap="round" stroke-linejoin="round"/>
    <path d="M 138.80763244628906 189.7532196044922 C 142.402099609375 134.19949340820312 211.64096069335938 192.3006134033203 160.95945739746094 167.00967407226562" stroke-width="3.0" fill="none" stroke="rgb(0, 0, 0)" stroke-opacity="1.0" stroke-linecap="round" stroke-linejoin="round"/>
    <path d="M 49.041099548339844 190.68719482421875 C 162.96847534179688 183.7099151611328 164.36123657226562 175.2633514404297 53.538509368896484 175.78810119628906" stroke-width="3.0" fill="none" stroke="rgb(0, 0, 0)" stroke-opacity="1.0" stroke-linecap="round" stroke-linejoin="round"/>
    <path d="M 45.484413146972656 197.30165100097656 C 203.31326293945312 199.38833618164062 170.0808563232422 164.36607360839844 57.66294860839844 180.85311889648438" stroke-width="3.0" fill="none" stroke="rgb(0, 0, 0)" stroke-opacity="1.0" stroke-linecap="round" stroke-linejoin="round"/>
    <path d="M 97.0987319946289 188.69146728515625 C 113.07532501220703 144.8317108154297 130.8228759765625 158.98619079589844 76.15607452392578 169.61138916015625" stroke-width="3.0" fill="none" stroke="rgb(0, 0, 0)" stroke-opacity="1.0" stroke-linecap="round" stroke-linejoin="round"/>
    <path d="M 193.74710083007812 87.71746063232422 C 179.54782104492188 77.63127899169922 144.80087280273438 60.92164993286133 174.11337280273438 112.37458038330078" stroke-width="3.0" fill="none" stroke="rgb(0, 0, 0)" stroke-opacity="1.0" stroke-linecap="round" stroke-linejoin="round"/>
    <path d="M 112.55670928955078 153.41622924804688 C 36.23068618774414 183.2106170654297 10.836639404296875 175.895263671875 84.00357818603516 175.5583038330078" stroke-width="3.0" fill="none" stroke="rgb(0, 0, 0)" stroke-opacity="1.0" stroke-linecap="round" stroke-linejoin="round"/>
    <path d="M 66.03247833251953 109.58111572265625 C 87.75128173828125 56.6937255859375 56.0675048828125 39.90761184692383 171.05841064453125 46.90393829345703" stroke-width="3.0" fill="none" stroke="rgb(0, 0, 0)" stroke-opacity="1.0" stroke-linecap="round" stroke-linejoin="round"/>
    <path d="M 121.73827362060547 162.9114990234375 C 160.95004272460938 154.05331420898438 123.16516876220703 144.613037109375 116.59165954589844 162.82754516601562" stroke-width="3.0" fill="none" stroke="rgb(0, 0, 0)" stroke-opacity="1.0" stroke-linecap="round" stroke-linejoin="round"/>
    <path d="M 155.3523712158203 62.06050109863281 C 180.785888671875 29.26113510131836 208.03504943847656 33.626792907714844 147.08734130859375 49.17465591430664" stroke-width="3.0" fill="none" stroke="rgb(0, 0, 0)" stroke-opacity="1.0" stroke-linecap="round" stroke-linejoin="round"/>
    <path d="M 55.30680847167969 176.31617736816406 C 54.05517578125 162.16668701171875 49.00379180908203 209.9787139892578 51.64725875854492 175.98094177246094" stroke-width="3.0" fill="none" stroke="rgb(0, 0, 0)" stroke-opacity="1.0" stroke-linecap="round" stroke-linejoin="round"/>
    <path d="M 175.1840362548828 90.77081298828125 C 176.70030212402344 122.00753021240234 161.56011962890625 124.66047668457031 185.97047424316406 98.950927734375" stroke-width="3.0" fill="none" stroke="rgb(0, 0, 0)" stroke-opacity="1.0" stroke-linecap="round" stroke-linejoin="round"/>
    <path d="M 148.49740600585938 45.03836441040039 C 108.80335235595703 107.38469696044922 95.69817352294922 150.10621643066406 104.34215545654297 124.33375549316406" stroke-width="3.0" fill="none" stroke="rgb(0, 0, 0)" stroke-opacity="1.0" stroke-linecap="round" stroke-linejoin="round"/>
    <path d="M 175.7792205810547 41.607147216796875 C 132.5272674560547 61.60283660888672 134.56344604492188 -4.8676018714904785 165.86978149414062 123.0279769897461" stroke-width="3.0" fill="none" stroke="rgb(0, 0, 0)" stroke-opacity="1.0" stroke-linecap="round" stroke-linejoin="round"/>
    <path d="M 61.49516296386719 172.0381622314453 C 127.25431823730469 170.9022674560547 115.0367660522461 175.37510681152344 59.0689811706543 173.1339111328125" stroke-width="3.0" fill="none" stroke="rgb(0, 0, 0)" stroke-opacity="1.0" stroke-linecap="round" stroke-linejoin="round"/>
    <path d="M 86.85128021240234 60.181217193603516 C 108.77305603027344 140.30335998535156 134.30931091308594 123.3678970336914 53.23387908935547 116.4752426147461" stroke-width="3.0" fill="none" stroke="rgb(0, 0, 0)" stroke-opacity="1.0" stroke-linecap="round" stroke-linejoin="round"/>
    <path d="M 185.547607421875 136.66143798828125 C 172.45921325683594 105.27774810791016 156.0191192626953 127.29844665527344 194.38296508789062 107.72441101074219" stroke-width="3.0" fill="none" stroke="rgb(0, 0, 0)" stroke-opacity="1.0" stroke-linecap="round" stroke-linejoin="round"/>
    <path d="M 87.86103057861328 26.785890579223633 C 75.68287658691406 44.36078643798828 25.83134651184082 12.904781341552734 93.17733001708984 26.67229652404785" stroke-width="3.0" fill="none" stroke="rgb(0, 0, 0)" stroke-opacity="1.0" stroke-linecap="round" stroke-linejoin="round"/>
    <path d="M 39.681358337402344 146.43101501464844 C 64.99073791503906 158.38961791992188 94.20592498779297 139.80413818359375 100.87754821777344 116.62460327148438" stroke-width="3.0" fill="none" stroke="rgb(0, 0, 0)" stroke-opacity="1.0" stroke-linecap="round" stroke-linejoin="round"/>
    <path d="M 147.7108154296875 74.13484954833984 C 123.0415267944336 102.05692291259766 130.5263671875 145.71693420410156 162.3015594482422 123.56898498535156" stroke-width="3.0" fill="none" stroke="rgb(0, 0, 0)" stroke-opacity="1.0" stroke-linecap="round" stroke-linejoin="round"/>
    <path d="M 45.600189208984375 148.6181640625 C 13.03381061553955 134.7010040283203 7.750446319580078 100.27334594726562 37.6222038269043 80.49268341064453" stroke-width="3.0" fill="none" stroke="rgb(0, 0, 0)" stroke-opacity="1.0" stroke-linecap="round" stroke-linejoin="round"/>
    <path d="M 182.91600036621094 187.07627868652344 C 152.7627410888672 148.44712829589844 189.05169677734375 172.38327026367188 171.54440307617188 167.50189208984375" stroke-width="3.0" fill="none" stroke="rgb(0, 0, 0)" stroke-opacity="1.0" stroke-linecap="round" stroke-linejoin="round"/>
    <path d="M 163.59445190429688 157.53271484375 C 60.238677978515625 145.6686248779297 146.90980529785156 166.3831787109375 129.928466796875 156.5543670654297" stroke-width="3.0" fill="none" stroke="rgb(0, 0, 0)" stroke-opacity="1.0" stroke-linecap="round" stroke-linejoin="round"/>
    <path d="M 30.647884368896484 84.76140594482422 C 95.35958099365234 45.422855377197266 99.53543853759766 136.94386291503906 104.94894409179688 113.63407897949219" stroke-width="3.0" fill="none" stroke="rgb(0, 0, 0)" stroke-opacity="1.0" stroke-linecap="round" stroke-linejoin="round"/>
    <path d="M 113.10958099365234 129.35791015625 C 78.0204849243164 139.7319793701172 106.51763153076172 113.87969970703125 73.32308197021484 89.54396057128906" stroke-width="3.0" fill="none" stroke="rgb(0, 0, 0)" stroke-opacity="1.0" stroke-linecap="round" stroke-linejoin="round"/>
    <path d="M 74.13911437988281 184.06434631347656 C 87.68760681152344 147.7322540283203 112.26322174072266 146.70143127441406 145.01934814453125 152.13946533203125" stroke-width="3.0" fill="none" stroke="rgb(0, 0, 0)" stroke-opacity="1.0" stroke-linecap="round" stroke-linejoin="round"/>
    <path d="M 85.12383270263672 32.1094856262207 C 94.00698852539062 72.11470794677734 94.73794555664062 18.90175437927246 75.36214447021484 84.5562515258789" stroke-width="3.0" fill="none" stroke="rgb(0, 0, 0)" stroke-opacity="1.0" stroke-linecap="round" stroke-linejoin="round"/>
    <path d="M 147.5157470703125 155.64768981933594 C 218.9542236328125 182.156494140625 119.84149169921875 147.2966766357422 152.50698852539062 191.03451538085938" stroke-width="3.0" fill="none" stroke="rgb(0, 0, 0)" stroke-opacity="1.0" stroke-linecap="round" stroke-linejoin="round"/>
    <path d="M 114.15943908691406 118.72862243652344 C 110.93401336669922 167.54580688476562 132.6785430908203 124.19585418701172 93.70135498046875 120.45366668701172" stroke-width="3.0" fill="none" stroke="rgb(0, 0, 0)" stroke-opacity="1.0" stroke-linecap="round" stroke-linejoin="round"/>
    <path d="M 177.9119415283203 51.23161697387695 C 171.44668579101562 55.76609802246094 194.60963439941406 9.739758491516113 155.29364013671875 63.825138092041016" stroke-width="3.0" fill="none" stroke="rgb(0, 0, 0)" stroke-opacity="1.0" stroke-linecap="round" stroke-linejoin="round"/>
    <path d="M 79.4686508178711 46.44950485229492 C 69.22803497314453 58.79682540893555 85.09716796875 45.85759353637695 56.10655975341797 115.8358383178711" stroke-width="3.0" fill="none" stroke="rgb(0, 0, 0)" stroke-opacity="1.0" stroke-linecap="round" stroke-linejoin="round"/>
  </g>
</svg>
