<?xml version="1.0" ?>
<svg xmlns="http://www.w3.org/2000/svg" version="1.1" width="224" height="224">
  <defs/>
  <g>
    <path d="M 133.4553985595703 115.20826721191406 C 180.1114044189453 108.83868408203125 167.72332763671875 101.08396911621094 176.24005126953125 112.15619659423828" stroke-width="3.0" fill="none" stroke="rgb(0, 0, 0)" stroke-opacity="1.0" stroke-linecap="round" stroke-linejoin="round"/>
    <path d="M 99.55125427246094 158.48292541503906 C 49.96295928955078 186.13511657714844 68.92056274414062 183.5687713623047 157.58241271972656 157.48045349121094" stroke-width="3.0" fill="none" stroke="rgb(0, 0, 0)" stroke-opacity="1.0" stroke-linecap="round" stroke-linejoin="round"/>
    <path d="M 147.310546875 147.22352600097656 C 153.37075805664062 154.17544555664062 105.37802124023438 123.9095230102539 145.8638916015625 79.079833984375" stroke-width="3.0" fill="none" stroke="rgb(0, 0, 0)" stroke-opacity="1.0" stroke-linecap="round" stroke-linejoin="round"/>
    <path d="M 152.95497131347656 145.77601623535156 C 176.11676025390625 97.39002227783203 163.51173400878906 113.57330322265625 190.2357635498047 126.67890930175781" stroke-width="3.0" fill="none" stroke="rgb(0, 0, 0)" stroke-opacity="1.0" stroke-linecap="round" stroke-linejoin="round"/>
    <path d="M 153.19390869140625 77.33293914794922 C 228.8981475830078 67.49246978759766 225.0928497314453 167.28976440429688 158.78831481933594 155.2661895751953" stroke-width="3.0" fill="none" stroke="rgb(0, 0, 0)" stroke-opacity="1.0" stroke-linecap="round" stroke-linejoin="round"/>
    <path d="M 88.30132293701172 173.85626220703125 C 88.21945190429688 166.99090576171875 94.76557159423828 198.62106323242188 106.51521301269531 157.74269104003906" stroke-width="3.0" fill="none" stroke="rgb(0, 0, 0)" stroke-opacity="1.0" stroke-linecap="round" stroke-linejoin="round"/>
    <path d="M 95.42417907714844 121.12037658691406 C 140.43423461914062 117.41500854492188 83.29720306396484 100.06787109375 105.07666778564453 132.32440185546875" stroke-width="3.0" fill="none" stroke="rgb(0, 0, 0)" stroke-opacity="1.0" stroke-linecap="round" stroke-linejoin="round"/>
    <path d="M 60.61632537841797 195.19781494140625 C 238.31390380859375 194.16322326660156 216.63729858398438 182.23130798339844 46.5667724609375 187.7901153564453" stroke-width="3.0" fill="none" stroke="rgb(0, 0, 0)" stroke-opacity="1.0" stroke-linecap="round" stroke-linejoin="round"/>
    <path d="M 181.4609832763672 177.69349670410156 C 160.14247131347656 230.4775390625 124.34622192382812 172.02618408203125 153.63421630859375 188.79051208496094" stroke-width="3.0" fill="none" stroke="rgb(0, 0, 0)" stroke-opacity="1.0" stroke-linecap="round" stroke-linejoin="round"/>
    <path d="M 156.20425415039062 86.09676361083984 C 193.93214416503906 76.4649429321289 219.87586975097656 128.56362915039062 179.22637939453125 148.01681518554688" stroke-width="3.0" fill="none" stroke="rgb(0, 0, 0)" stroke-opacity="1.0" stroke-linecap="round" stroke-linejoin="round"/>
    <path d="M 179.7330780029297 186.23452758789062 C 181.59791564941406 155.40943908691406 184.64613342285156 203.29942321777344 183.47425842285156 179.8861083984375" stroke-width="3.0" fill="none" stroke="rgb(0, 0, 0)" stroke-opacity="1.0" stroke-linecap="round" stroke-linejoin="round"/>
    <path d="M 139.4412384033203 160.09410095214844 C 115.86467742919922 166.05865478515625 136.35252380371094 165.78070068359375 141.3194122314453 157.96572875976562" stroke-width="3.0" fill="none" stroke="rgb(0, 0, 0)" stroke-opacity="1.0" stroke-linecap="round" stroke-linejoin="round"/>
    <path d="M 163.05654907226562 149.68446350097656 C 170.81243896484375 114.20619201660156 165.1175537109375 93.73284912109375 175.1354217529297 149.16098022460938" stroke-width="3.0" fill="none" stroke="rgb(0, 0, 0)" stroke-opacity="1.0" stroke-linecap="round" stroke-linejoin="round"/>
    <path d="M 148.98114013671875 174.97789001464844 C 155.47471618652344 209.18930053710938 190.7748565673828 169.833740234375 153.496826171875 170.04966735839844" stroke-width="3.0" fill="none" stroke="rgb(0, 0, 0)" stroke-opacity="1.0" stroke-linecap="round" stroke-linejoin="round"/>
    <path d="M 82.29535675048828 58.38583755493164 C 126.87271881103516 37.576148986816406 189.67918395996094 85.29420471191406 160.63462829589844 43.131126403808594" stroke-width="3.0" fill="none" stroke="rgb(0, 0, 0)" stroke-opacity="1.0" stroke-linecap="round" stroke-linejoin="round"/>
    <path d="M 66.20213317871094 28.194421768188477 C 84.89047241210938 26.366962432861328 78.78421783447266 24.695743560791016 100.48246002197266 111.4639663696289" stroke-width="3.0" fill="none" stroke="rgb(0, 0, 0)" stroke-opacity="1.0" stroke-linecap="round" stroke-linejoin="round"/>
    <path d="M 63.38809585571289 24.533658981323242 C 122.67586517333984 27.142471313476562 63.76604080200195 32.201778411865234 63.56328582763672 26.083606719970703" stroke-width="3.0" fill="none" stroke="rgb(0, 0, 0)" stroke-opacity="1.0" stroke-linecap="round" stroke-linejoin="round"/>
    <path d="M 44.59248733520508 191.85830688476562 C 173.4860382080078 186.7496795654297 111.24056243896484 187.25326538085938 64.3154067993164 188.53321838378906" stroke-width="3.0" fill="none" stroke="rgb(0, 0, 0)" stroke-opacity="1.0" stroke-linecap="round" stroke-linejoin="round"/>
    <path d="M 138.42529296875 188.9192352294922 C 140.2865447998047 139.75680541992188 197.33535766601562 187.15951538085938 175.6250457763672 162.2592315673828" stroke-width="3.0" fill="none" stroke="rgb(0, 0, 0)" stroke-opacity="1.0" stroke-linecap="round" stroke-linejoin="round"/>
    <path d="M 54.324432373046875 191.2050323486328 C 127.5765609741211 179.00033569335938 114.66765594482422 161.09373474121094 51.3420295715332 174.17645263671875" stroke-width="3.0" fill="none" stroke="rgb(0, 0, 0)" stroke-opacity="1.0" stroke-linecap="round" stroke-linejoin="round"/>
    <path d="M 51.3713264465332 186.584716796875 C 125.5660629272461 179.79611206054688 104.65093231201172 167.0118408203125 52.82781219482422 177.7056121826172" stroke-width="3.0" fill="none" stroke="rgb(0, 0, 0)" stroke-opacity="1.0" stroke-linecap="round" stroke-linejoin="round"/>
    <path d="M 95.5820541381836 188.42068481445312 C 98.53263854980469 168.6761016845703 118.67660522460938 174.1840057373047 74.47183990478516 183.37564086914062" stroke-width="3.0" fill="none" stroke="rgb(0, 0, 0)" stroke-opacity="1.0" stroke-linecap="round" stroke-linejoin="round"/>
    <path d="M 181.45770263671875 90.149658203125 C 176.47532653808594 103.45826721191406 186.71661376953125 64.01142883300781 175.82960510253906 118.16692352294922" stroke-width="3.0" fill="none" stroke="rgb(0, 0, 0)" stroke-opacity="1.0" stroke-linecap="round" stroke-linejoin="round"/>
    <path d="M 102.84281921386719 172.72154235839844 C 47.313316345214844 186.37562561035156 57.765079498291016 187.23818969726562 56.53325653076172 178.3906707763672" stroke-width="3.0" fill="none" stroke="rgb(0, 0, 0)" stroke-opacity="1.0" stroke-linecap="round" stroke-linejoin="round"/>
    <path d="M 70.68074798583984 74.90513610839844 C 81.01358795166016 60.66328048706055 55.12417984008789 39.01662063598633 165.90670776367188 50.37253952026367" stroke-width="3.0" fill="none" stroke="rgb(0, 0, 0)" stroke-opacity="1.0" stroke-linecap="round" stroke-linejoin="round"/>
    <path d="M 127.46917724609375 152.83148193359375 C 151.64463806152344 156.693115234375 124.67252349853516 147.62448120117188 123.70927429199219 162.54518127441406" stroke-width="3.0" fill="none" stroke="rgb(0, 0, 0)" stroke-opacity="1.0" stroke-linecap="round" stroke-linejoin="round"/>
    <path d="M 159.21072387695312 58.42273712158203 C 165.97927856445312 31.45989227294922 219.32383728027344 33.290924072265625 141.31015014648438 49.98063278198242" stroke-width="3.0" fill="none" stroke="rgb(0, 0, 0)" stroke-opacity="1.0" stroke-linecap="round" stroke-linejoin="round"/>
    <path d="M 57.49101638793945 175.67181396484375 C 54.458595275878906 188.13070678710938 39.93629837036133 202.48236083984375 53.857913970947266 176.79403686523438" stroke-width="3.0" fill="none" stroke="rgb(0, 0, 0)" stroke-opacity="1.0" stroke-linecap="round" stroke-linejoin="round"/>
    <path d="M 187.00668334960938 92.29096221923828 C 173.43460083007812 122.65267181396484 171.4664306640625 126.2629623413086 176.22740173339844 89.14160919189453" stroke-width="3.0" fill="none" stroke="rgb(0, 0, 0)" stroke-opacity="1.0" stroke-linecap="round" stroke-linejoin="round"/>
    <path d="M 142.59100341796875 60.34516525268555 C 114.30142211914062 106.1297607421875 95.56298828125 155.08119201660156 113.30776977539062 118.84603118896484" stroke-width="3.0" fill="none" stroke="rgb(0, 0, 0)" stroke-opacity="1.0" stroke-linecap="round" stroke-linejoin="round"/>
    <path d="M 171.61045837402344 37.984615325927734 C 155.8636932373047 74.2865982055664 115.61714935302734 -7.885702133178711 168.1376495361328 113.51973724365234" stroke-width="3.0" fill="none" stroke="rgb(0, 0, 0)" stroke-opacity="1.0" stroke-linecap="round" stroke-linejoin="round"/>
    <path d="M 50.064735412597656 189.2000732421875 C 120.27974700927734 193.36915588378906 149.4718017578125 190.31690979003906 55.04746627807617 178.67506408691406" stroke-width="3.0" fill="none" stroke="rgb(0, 0, 0)" stroke-opacity="1.0" stroke-linecap="round" stroke-linejoin="round"/>
    <path d="M 92.15648651123047 58.844459533691406 C 113.28483581542969 151.9761199951172 129.39964294433594 129.0560760498047 54.35676193237305 115.52641296386719" stroke-width="3.0" fill="none" stroke="rgb(0, 0, 0)" stroke-opacity="1.0" stroke-linecap="round" stroke-linejoin="round"/>
    <path d="M 184.91659545898438 141.0233917236328 C 162.13406372070312 104.8009262084961 171.9324188232422 119.17507934570312 187.85171508789062 103.03074645996094" stroke-width="3.0" fill="none" stroke="rgb(0, 0, 0)" stroke-opacity="1.0" stroke-linecap="round" stroke-linejoin="round"/>
    <path d="M 83.76142883300781 29.36420440673828 C 57.8004150390625 38.10552215576172 59.40403747558594 19.626317977905273 78.76113891601562 36.160888671875" stroke-width="3.0" fill="none" stroke="rgb(0, 0, 0)" stroke-opacity="1.0" stroke-linecap="round" stroke-linejoin="round"/>
    <path d="M 41.88466262817383 148.3011932373047 C 61.82478713989258 158.3263702392578 89.61963653564453 143.4463348388672 93.66716766357422 117.88371276855469" stroke-width="3.0" fill="none" stroke="rgb(0, 0, 0)" stroke-opacity="1.0" stroke-linecap="round" stroke-linejoin="round"/>
    <path d="M 167.6759033203125 114.486572265625 C 128.90602111816406 142.94581604003906 143.11013793945312 135.13629150390625 142.57859802246094 133.4171905517578" stroke-width="3.0" fill="none" stroke="rgb(0, 0, 0)" stroke-opacity="1.0" stroke-linecap="round" stroke-linejoin="round"/>
    <path d="M 48.1102294921875 150.87631225585938 C 15.901970863342285 139.96217346191406 3.2935783863067627 92.76740264892578 42.428531646728516 75.92021942138672" stroke-width="3.0" fill="none" stroke="rgb(0, 0, 0)" stroke-opacity="1.0" stroke-linecap="round" stroke-linejoin="round"/>
    <path d="M 180.5569305419922 177.2466583251953 C 173.1068115234375 201.73703002929688 197.37130737304688 186.57107543945312 168.56417846679688 159.19915771484375" stroke-width="3.0" fill="none" stroke="rgb(0, 0, 0)" stroke-opacity="1.0" stroke-linecap="round" stroke-linejoin="round"/>
    <path d="M 169.2689666748047 159.89620971679688 C 97.02485656738281 150.8924102783203 188.73434448242188 159.03573608398438 128.9065704345703 160.3233184814453" stroke-width="3.0" fill="none" stroke="rgb(0, 0, 0)" stroke-opacity="1.0" stroke-linecap="round" stroke-linejoin="round"/>
    <path d="M 30.645294189453125 81.19043731689453 C 90.37699127197266 44.66423034667969 120.55580139160156 145.70953369140625 90.5313491821289 114.68045806884766" stroke-width="3.0" fill="none" stroke="rgb(0, 0, 0)" stroke-opacity="1.0" stroke-linecap="round" stroke-linejoin="round"/>
    <path d="M 111.37905883789062 119.6332778930664 C 95.71197509765625 157.8389434814453 100.4165267944336 103.77149963378906 72.84049987792969 85.43006896972656" stroke-width="3.0" fill="none" stroke="rgb(0, 0, 0)" stroke-opacity="1.0" stroke-linecap="round" stroke-linejoin="round"/>
    <path d="M 70.29659271240234 182.06822204589844 C 103.99198913574219 144.41490173339844 122.45616149902344 156.49481201171875 148.39035034179688 153.47308349609375" stroke-width="3.0" fill="none" stroke="rgb(0, 0, 0)" stroke-opacity="1.0" stroke-linecap="round" stroke-linejoin="round"/>
    <path d="M 85.32846069335938 34.61024475097656 C 93.27783203125 63.9783935546875 91.4642105102539 32.28550338745117 72.2169418334961 65.61563873291016" stroke-width="3.0" fill="none" stroke="rgb(0, 0, 0)" stroke-opacity="1.0" stroke-linecap="round" stroke-linejoin="round"/>
    <path d="M 144.88238525390625 147.43374633789062 C 213.86062622070312 173.8270263671875 143.30520629882812 158.0995635986328 149.55113220214844 186.92311096191406" stroke-width="3.0" fill="none" stroke="rgb(0, 0, 0)" stroke-opacity="1.0" stroke-linecap="round" stroke-linejoin="round"/>
    <path d="M 109.87580108642578 116.98567962646484 C 119.6725082397461 165.4298858642578 119.91357421875 121.01612854003906 107.10008239746094 132.49842834472656" stroke-width="3.0" fill="none" stroke="rgb(0, 0, 0)" stroke-opacity="1.0" stroke-linecap="round" stroke-linejoin="round"/>
    <path d="M 176.75064086914062 54.04832458496094 C 168.1329803466797 46.17928695678711 189.0330810546875 34.92820358276367 172.56333923339844 43.479705810546875" stroke-width="3.0" fill="none" stroke="rgb(0, 0, 0)" stroke-opacity="1.0" stroke-linecap="round" stroke-linejoin="round"/>
    <path d="M 92.97974395751953 55.80278015136719 C 79.35335540771484 67.09590911865234 86.6705322265625 44.33137893676758 58.7601203918457 113.97600555419922" stroke-width="3.0" fill="none" stroke="rgb(0, 0, 0)" stroke-opacity="1.0" stroke-linecap="round" stroke-linejoin="round"/>
  </g>
</svg>
