<?xml version="1.0" ?>
<svg xmlns="http://www.w3.org/2000/svg" version="1.1" width="224" height="224">
  <defs/>
  <g>
    <path d="M 132.05899047851562 117.69113159179688 C 183.17832946777344 106.28499603271484 179.05145263671875 112.88810729980469 183.80641174316406 104.41801452636719" stroke-width="3.0" fill="none" stroke="rgb(0, 0, 0)" stroke-opacity="1.0" stroke-linecap="round" stroke-linejoin="round"/>
    <path d="M 108.20027160644531 155.9664306640625 C 58.382720947265625 178.35891723632812 69.33343505859375 172.2130126953125 157.2210693359375 158.27308654785156" stroke-width="3.0" fill="none" stroke="rgb(0, 0, 0)" stroke-opacity="1.0" stroke-linecap="round" stroke-linejoin="round"/>
    <path d="M 162.07615661621094 150.06126403808594 C 149.2045135498047 154.02513122558594 105.95545959472656 134.15121459960938 144.8113250732422 82.1106948852539" stroke-width="3.0" fill="none" stroke="rgb(0, 0, 0)" stroke-opacity="1.0" stroke-linecap="round" stroke-linejoin="round"/>
    <path d="M 151.49581909179688 143.3458709716797 C 178.41236877441406 92.39019775390625 157.34092712402344 112.08934783935547 188.59890747070312 131.91934204101562" stroke-width="3.0" fill="none" stroke="rgb(0, 0, 0)" stroke-opacity="1.0" stroke-linecap="round" stroke-linejoin="round"/>
    <path d="M 152.67103576660156 74.5094985961914 C 225.90264892578125 67.69485473632812 231.4969940185547 167.1855010986328 149.2146453857422 155.3154754638672" stroke-width="3.0" fill="none" stroke="rgb(0, 0, 0)" stroke-opacity="1.0" stroke-linecap="round" stroke-linejoin="round"/>
    <path d="M 96.6087646484375 179.09646606445312 C 75.9179916381836 177.50254821777344 88.7962875366211 196.77957153320312 104.0870132446289 150.89219665527344" stroke-width="3.0" fill="none" stroke="rgb(0, 0, 0)" stroke-opacity="1.0" stroke-linecap="round" stroke-linejoin="round"/>
    <path d="M 92.77307891845703 126.32487487792969 C 144.4088592529297 129.73487854003906 83.40379333496094 98.51892852783203 112.76116180419922 125.8653793334961" stroke-width="3.0" fill="none" stroke="rgb(0, 0, 0)" stroke-opacity="1.0" stroke-linecap="round" stroke-linejoin="round"/>
    <path d="M 50.23057174682617 174.16798400878906 C 200.83480834960938 141.77940368652344 187.9241485595703 140.17921447753906 57.7747688293457 171.3680419921875" stroke-width="3.0" fill="none" stroke="rgb(0, 0, 0)" stroke-opacity="1.0" stroke-linecap="round" stroke-linejoin="round"/>
    <path d="M 185.74705505371094 180.89483642578125 C 151.97752380371094 235.4039306640625 123.65628051757812 154.40444946289062 144.79302978515625 187.82615661621094" stroke-width="3.0" fill="none" stroke="rgb(0, 0, 0)" stroke-opacity="1.0" stroke-linecap="round" stroke-linejoin="round"/>
    <path d="M 156.93801879882812 82.30261993408203 C 196.14617919921875 70.88406372070312 220.4869384765625 130.60789489746094 179.7272186279297 147.6053466796875" stroke-width="3.0" fill="none" stroke="rgb(0, 0, 0)" stroke-opacity="1.0" stroke-linecap="round" stroke-linejoin="round"/>
    <path d="M 186.03521728515625 182.7447967529297 C 182.1409912109375 151.64541625976562 173.39608764648438 231.5950927734375 182.7672576904297 169.02276611328125" stroke-width="3.0" fill="none" stroke="rgb(0, 0, 0)" stroke-opacity="1.0" stroke-linecap="round" stroke-linejoin="round"/>
    <path d="M 141.47471618652344 150.5183563232422 C 109.52152252197266 150.89772033691406 130.54969787597656 154.80294799804688 147.20169067382812 152.8103485107422" stroke-width="3.0" fill="none" stroke="rgb(0, 0, 0)" stroke-opacity="1.0" stroke-linecap="round" stroke-linejoin="round"/>
    <path d="M 162.1881561279297 143.04904174804688 C 173.65235900878906 114.63240814208984 154.15908813476562 84.30036926269531 174.52305603027344 144.79026794433594" stroke-width="3.0" fill="none" stroke="rgb(0, 0, 0)" stroke-opacity="1.0" stroke-linecap="round" stroke-linejoin="round"/>
    <path d="M 144.4247589111328 177.09059143066406 C 164.60147094726562 224.422119140625 200.38954162597656 147.8939971923828 143.31300354003906 171.45559692382812" stroke-width="3.0" fill="none" stroke="rgb(0, 0, 0)" stroke-opacity="1.0" stroke-linecap="round" stroke-linejoin="round"/>
    <path d="M 89.7625503540039 56.08412551879883 C 139.10499572753906 37.25373840332031 189.00193786621094 88.48383331298828 164.05361938476562 38.4156494140625" stroke-width="3.0" fill="none" stroke="rgb(0, 0, 0)" stroke-opacity="1.0" stroke-linecap="round" stroke-linejoin="round"/>
    <path d="M 62.21427536010742 30.324501037597656 C 81.45986938476562 30.114482879638672 78.84249114990234 30.73124885559082 108.46039581298828 107.61260223388672" stroke-width="3.0" fill="none" stroke="rgb(0, 0, 0)" stroke-opacity="1.0" stroke-linecap="round" stroke-linejoin="round"/>
    <path d="M 60.79938507080078 27.602102279663086 C 144.08522033691406 20.02308464050293 42.33081817626953 36.290122985839844 71.18834686279297 25.706562042236328" stroke-width="3.0" fill="none" stroke="rgb(0, 0, 0)" stroke-opacity="1.0" stroke-linecap="round" stroke-linejoin="round"/>
    <path d="M 46.50730514526367 191.3003692626953 C 191.8599090576172 190.97586059570312 117.21739959716797 191.7069854736328 48.30317306518555 185.74069213867188" stroke-width="3.0" fill="none" stroke="rgb(0, 0, 0)" stroke-opacity="1.0" stroke-linecap="round" stroke-linejoin="round"/>
    <path d="M 131.93118286132812 188.8498077392578 C 151.44906616210938 132.75950622558594 212.72557067871094 193.9476318359375 166.95298767089844 165.01173400878906" stroke-width="3.0" fill="none" stroke="rgb(0, 0, 0)" stroke-opacity="1.0" stroke-linecap="round" stroke-linejoin="round"/>
    <path d="M 54.248443603515625 180.64646911621094 C 142.397705078125 180.04043579101562 126.32140350341797 192.62940979003906 54.973609924316406 185.0109405517578" stroke-width="3.0" fill="none" stroke="rgb(0, 0, 0)" stroke-opacity="1.0" stroke-linecap="round" stroke-linejoin="round"/>
    <path d="M 57.11032485961914 178.1012725830078 C 146.10751342773438 195.65542602539062 111.94451141357422 177.24717712402344 63.76149368286133 173.00669860839844" stroke-width="3.0" fill="none" stroke="rgb(0, 0, 0)" stroke-opacity="1.0" stroke-linecap="round" stroke-linejoin="round"/>
    <path d="M 101.44847869873047 188.56985473632812 C 96.82572174072266 162.6734619140625 119.23310852050781 159.96726989746094 79.16586303710938 176.6747589111328" stroke-width="3.0" fill="none" stroke="rgb(0, 0, 0)" stroke-opacity="1.0" stroke-linecap="round" stroke-linejoin="round"/>
    <path d="M 180.91168212890625 93.6519775390625 C 174.53994750976562 95.98035430908203 186.67340087890625 64.92124938964844 175.09532165527344 100.06588745117188" stroke-width="3.0" fill="none" stroke="rgb(0, 0, 0)" stroke-opacity="1.0" stroke-linecap="round" stroke-linejoin="round"/>
    <path d="M 116.4659194946289 159.1921844482422 C 55.1407470703125 196.9188995361328 42.85138702392578 196.50767517089844 61.86521911621094 184.858154296875" stroke-width="3.0" fill="none" stroke="rgb(0, 0, 0)" stroke-opacity="1.0" stroke-linecap="round" stroke-linejoin="round"/>
    <path d="M 67.9157943725586 84.15087890625 C 78.42276000976562 56.463897705078125 66.61013793945312 41.37440490722656 166.6732635498047 48.29842758178711" stroke-width="3.0" fill="none" stroke="rgb(0, 0, 0)" stroke-opacity="1.0" stroke-linecap="round" stroke-linejoin="round"/>
    <path d="M 125.32447814941406 162.158447265625 C 162.85972595214844 167.55313110351562 124.7086410522461 143.69837951660156 130.48362731933594 160.7293701171875" stroke-width="3.0" fill="none" stroke="rgb(0, 0, 0)" stroke-opacity="1.0" stroke-linecap="round" stroke-linejoin="round"/>
    <path d="M 153.26260375976562 64.4165267944336 C 179.19497680664062 31.25657844543457 220.23223876953125 26.82599639892578 141.7207489013672 48.96371078491211" stroke-width="3.0" fill="none" stroke="rgb(0, 0, 0)" stroke-opacity="1.0" stroke-linecap="round" stroke-linejoin="round"/>
    <path d="M 53.582298278808594 175.2425079345703 C 58.46265411376953 189.91000366210938 38.29812240600586 197.34939575195312 48.5423583984375 177.70021057128906" stroke-width="3.0" fill="none" stroke="rgb(0, 0, 0)" stroke-opacity="1.0" stroke-linecap="round" stroke-linejoin="round"/>
    <path d="M 188.48509216308594 97.69931030273438 C 171.64817810058594 118.34130859375 172.589599609375 137.45223999023438 181.495849609375 87.91290283203125" stroke-width="3.0" fill="none" stroke="rgb(0, 0, 0)" stroke-opacity="1.0" stroke-linecap="round" stroke-linejoin="round"/>
    <path d="M 139.3811798095703 56.60444259643555 C 115.28501892089844 113.75640869140625 87.78863525390625 159.01780700683594 103.80130767822266 121.0365219116211" stroke-width="3.0" fill="none" stroke="rgb(0, 0, 0)" stroke-opacity="1.0" stroke-linecap="round" stroke-linejoin="round"/>
    <path d="M 176.89544677734375 34.98445129394531 C 151.33290100097656 69.98340606689453 113.31290435791016 -10.590813636779785 166.24441528320312 123.77425384521484" stroke-width="3.0" fill="none" stroke="rgb(0, 0, 0)" stroke-opacity="1.0" stroke-linecap="round" stroke-linejoin="round"/>
    <path d="M 73.38038635253906 181.41949462890625 C 94.47164154052734 150.3784637451172 88.68499755859375 173.965576171875 57.41061019897461 189.53733825683594" stroke-width="3.0" fill="none" stroke="rgb(0, 0, 0)" stroke-opacity="1.0" stroke-linecap="round" stroke-linejoin="round"/>
    <path d="M 86.32099914550781 58.27324295043945 C 112.54963684082031 146.0068359375 141.93624877929688 124.83602905273438 54.355003356933594 117.1256332397461" stroke-width="3.0" fill="none" stroke="rgb(0, 0, 0)" stroke-opacity="1.0" stroke-linecap="round" stroke-linejoin="round"/>
    <path d="M 184.16390991210938 142.99819946289062 C 166.91900634765625 107.89215087890625 168.53518676757812 119.21575164794922 193.02365112304688 108.52694702148438" stroke-width="3.0" fill="none" stroke="rgb(0, 0, 0)" stroke-opacity="1.0" stroke-linecap="round" stroke-linejoin="round"/>
    <path d="M 81.57251739501953 28.926401138305664 C 77.26721954345703 41.146759033203125 29.2412166595459 16.77692222595215 87.72703552246094 25.2736759185791" stroke-width="3.0" fill="none" stroke="rgb(0, 0, 0)" stroke-opacity="1.0" stroke-linecap="round" stroke-linejoin="round"/>
    <path d="M 43.4093132019043 149.04502868652344 C 61.273067474365234 158.28675842285156 93.4806900024414 143.1529541015625 94.5376205444336 112.45951843261719" stroke-width="3.0" fill="none" stroke="rgb(0, 0, 0)" stroke-opacity="1.0" stroke-linecap="round" stroke-linejoin="round"/>
    <path d="M 169.45013427734375 114.94290924072266 C 121.37239074707031 144.21180725097656 114.09554290771484 133.74635314941406 165.13980102539062 107.98921966552734" stroke-width="3.0" fill="none" stroke="rgb(0, 0, 0)" stroke-opacity="1.0" stroke-linecap="round" stroke-linejoin="round"/>
    <path d="M 44.94939041137695 149.40196228027344 C 13.560633659362793 137.153076171875 4.936565399169922 94.02638244628906 44.57201385498047 75.3456039428711" stroke-width="3.0" fill="none" stroke="rgb(0, 0, 0)" stroke-opacity="1.0" stroke-linecap="round" stroke-linejoin="round"/>
    <path d="M 184.3348388671875 182.01242065429688 C 169.67926025390625 164.246826171875 191.46621704101562 171.82711791992188 172.50253295898438 165.36459350585938" stroke-width="3.0" fill="none" stroke="rgb(0, 0, 0)" stroke-opacity="1.0" stroke-linecap="round" stroke-linejoin="round"/>
    <path d="M 168.1644744873047 152.0925750732422 C 82.95954895019531 146.71080017089844 149.7541961669922 152.0614471435547 112.77812957763672 159.27386474609375" stroke-width="3.0" fill="none" stroke="rgb(0, 0, 0)" stroke-opacity="1.0" stroke-linecap="round" stroke-linejoin="round"/>
    <path d="M 30.839921951293945 83.1957015991211 C 90.96217346191406 45.50822830200195 108.78907775878906 137.66665649414062 99.66649627685547 116.50890350341797" stroke-width="3.0" fill="none" stroke="rgb(0, 0, 0)" stroke-opacity="1.0" stroke-linecap="round" stroke-linejoin="round"/>
    <path d="M 112.54916381835938 129.34068298339844 C 89.5140151977539 140.9459686279297 98.87069702148438 104.3742446899414 72.04823303222656 87.25119018554688" stroke-width="3.0" fill="none" stroke="rgb(0, 0, 0)" stroke-opacity="1.0" stroke-linecap="round" stroke-linejoin="round"/>
    <path d="M 70.49012756347656 183.22311401367188 C 98.51654815673828 140.3092498779297 110.98664093017578 149.8737030029297 131.62232971191406 151.5641632080078" stroke-width="3.0" fill="none" stroke="rgb(0, 0, 0)" stroke-opacity="1.0" stroke-linecap="round" stroke-linejoin="round"/>
    <path d="M 84.03364562988281 34.92652130126953 C 98.78636932373047 72.04364776611328 80.37477111816406 28.44734764099121 74.08269500732422 68.55846405029297" stroke-width="3.0" fill="none" stroke="rgb(0, 0, 0)" stroke-opacity="1.0" stroke-linecap="round" stroke-linejoin="round"/>
    <path d="M 142.78076171875 152.52578735351562 C 231.81216430664062 180.41990661621094 143.12667846679688 148.6342315673828 147.70684814453125 181.8455047607422" stroke-width="3.0" fill="none" stroke="rgb(0, 0, 0)" stroke-opacity="1.0" stroke-linecap="round" stroke-linejoin="round"/>
    <path d="M 109.40573120117188 119.18965148925781 C 117.31964874267578 163.8180389404297 124.08360290527344 120.78327941894531 89.6077651977539 124.15621948242188" stroke-width="3.0" fill="none" stroke="rgb(0, 0, 0)" stroke-opacity="1.0" stroke-linecap="round" stroke-linejoin="round"/>
    <path d="M 176.60311889648438 54.564144134521484 C 169.47738647460938 48.33669662475586 194.42529296875 24.73857879638672 166.7121124267578 48.10780334472656" stroke-width="3.0" fill="none" stroke="rgb(0, 0, 0)" stroke-opacity="1.0" stroke-linecap="round" stroke-linejoin="round"/>
    <path d="M 92.82740020751953 55.51652145385742 C 89.57249450683594 61.03099060058594 87.53648376464844 41.89328384399414 60.01616668701172 113.22953796386719" stroke-width="3.0" fill="none" stroke="rgb(0, 0, 0)" stroke-opacity="1.0" stroke-linecap="round" stroke-linejoin="round"/>
  </g>
</svg>
