<?xml version="1.0" ?>
<svg xmlns="http://www.w3.org/2000/svg" version="1.1" width="224" height="224">
  <defs/>
  <g>
    <path d="M 138.3579559326172 123.74505615234375 C 153.122314453125 121.2926254272461 165.54039001464844 117.81143951416016 181.56175231933594 109.57572937011719" stroke-width="3.0" fill="none" stroke="rgb(0, 0, 0)" stroke-opacity="1.0" stroke-linecap="round" stroke-linejoin="round"/>
    <path d="M 109.53269958496094 154.33103942871094 C 52.683292388916016 178.5248565673828 71.080322265625 181.23040771484375 150.92340087890625 154.23170471191406" stroke-width="3.0" fill="none" stroke="rgb(0, 0, 0)" stroke-opacity="1.0" stroke-linecap="round" stroke-linejoin="round"/>
    <path d="M 149.11151123046875 142.06178283691406 C 156.7344512939453 146.7480010986328 112.72480010986328 130.24810791015625 148.26756286621094 87.84026336669922" stroke-width="3.0" fill="none" stroke="rgb(0, 0, 0)" stroke-opacity="1.0" stroke-linecap="round" stroke-linejoin="round"/>
    <path d="M 146.20132446289062 138.1016845703125 C 177.6813201904297 109.79563903808594 166.68357849121094 115.3707504272461 191.91952514648438 130.61752319335938" stroke-width="3.0" fill="none" stroke="rgb(0, 0, 0)" stroke-opacity="1.0" stroke-linecap="round" stroke-linejoin="round"/>
    <path d="M 198.71055603027344 94.18480682373047 C 205.54656982421875 98.56044006347656 217.220458984375 156.03903198242188 154.41127014160156 152.56747436523438" stroke-width="3.0" fill="none" stroke="rgb(0, 0, 0)" stroke-opacity="1.0" stroke-linecap="round" stroke-linejoin="round"/>
    <path d="M 103.47595977783203 166.28758239746094 C 112.38434600830078 171.57186889648438 100.706298828125 175.46473693847656 107.13616943359375 154.63587951660156" stroke-width="3.0" fill="none" stroke="rgb(0, 0, 0)" stroke-opacity="1.0" stroke-linecap="round" stroke-linejoin="round"/>
    <path d="M 95.45173645019531 110.61778259277344 C 134.92327880859375 135.7443389892578 94.51277160644531 80.74472045898438 114.98338317871094 133.66114807128906" stroke-width="3.0" fill="none" stroke="rgb(0, 0, 0)" stroke-opacity="1.0" stroke-linecap="round" stroke-linejoin="round"/>
    <path d="M 122.35139465332031 188.44493103027344 C 174.28857421875 186.13449096679688 138.55538940429688 190.89175415039062 49.85439682006836 189.8599090576172" stroke-width="3.0" fill="none" stroke="rgb(0, 0, 0)" stroke-opacity="1.0" stroke-linecap="round" stroke-linejoin="round"/>
    <path d="M 180.28903198242188 182.38099670410156 C 165.8901824951172 218.37867736816406 131.32948303222656 189.68080139160156 149.72116088867188 167.44931030273438" stroke-width="3.0" fill="none" stroke="rgb(0, 0, 0)" stroke-opacity="1.0" stroke-linecap="round" stroke-linejoin="round"/>
    <path d="M 154.17970275878906 80.48606872558594 C 202.3397979736328 70.84346008300781 205.6130828857422 115.61981201171875 203.80389404296875 110.31005859375" stroke-width="3.0" fill="none" stroke="rgb(0, 0, 0)" stroke-opacity="1.0" stroke-linecap="round" stroke-linejoin="round"/>
    <path d="M 177.87208557128906 170.07815551757812 C 176.98619079589844 189.1226043701172 174.8123779296875 205.55262756347656 180.94020080566406 177.01077270507812" stroke-width="3.0" fill="none" stroke="rgb(0, 0, 0)" stroke-opacity="1.0" stroke-linecap="round" stroke-linejoin="round"/>
    <path d="M 126.22259521484375 147.0642547607422 C 125.63400268554688 146.15455627441406 133.94143676757812 145.1840362548828 129.99009704589844 148.0204620361328" stroke-width="3.0" fill="none" stroke="rgb(0, 0, 0)" stroke-opacity="1.0" stroke-linecap="round" stroke-linejoin="round"/>
    <path d="M 156.47195434570312 145.07977294921875 C 172.07928466796875 115.18323516845703 164.87374877929688 110.05413055419922 174.53717041015625 145.3960723876953" stroke-width="3.0" fill="none" stroke="rgb(0, 0, 0)" stroke-opacity="1.0" stroke-linecap="round" stroke-linejoin="round"/>
    <path d="M 152.30506896972656 194.82220458984375 C 175.4454803466797 198.02481079101562 175.91896057128906 160.6431121826172 152.74551391601562 167.66676330566406" stroke-width="3.0" fill="none" stroke="rgb(0, 0, 0)" stroke-opacity="1.0" stroke-linecap="round" stroke-linejoin="round"/>
    <path d="M 87.9877700805664 52.91092300415039 C 150.49658203125 35.36299133300781 177.44461059570312 89.38259887695312 168.0514373779297 40.200477600097656" stroke-width="3.0" fill="none" stroke="rgb(0, 0, 0)" stroke-opacity="1.0" stroke-linecap="round" stroke-linejoin="round"/>
    <path d="M 75.82769012451172 39.04633331298828 C 74.39425659179688 22.334585189819336 80.24356842041016 28.33688735961914 104.7757568359375 106.62301635742188" stroke-width="3.0" fill="none" stroke="rgb(0, 0, 0)" stroke-opacity="1.0" stroke-linecap="round" stroke-linejoin="round"/>
    <path d="M 65.14665985107422 25.370819091796875 C 129.781005859375 29.820398330688477 102.53567504882812 28.3936824798584 68.75423431396484 32.4028205871582" stroke-width="3.0" fill="none" stroke="rgb(0, 0, 0)" stroke-opacity="1.0" stroke-linecap="round" stroke-linejoin="round"/>
    <path d="M 56.711185455322266 182.96046447753906 C 81.73262786865234 177.89865112304688 74.15570831298828 161.82701110839844 68.0741195678711 185.1185760498047" stroke-width="3.0" fill="none" stroke="rgb(0, 0, 0)" stroke-opacity="1.0" stroke-linecap="round" stroke-linejoin="round"/>
    <path d="M 147.6829376220703 171.86045837402344 C 162.62594604492188 144.16409301757812 195.6639862060547 182.7381134033203 163.6280059814453 162.14913940429688" stroke-width="3.0" fill="none" stroke="rgb(0, 0, 0)" stroke-opacity="1.0" stroke-linecap="round" stroke-linejoin="round"/>
    <path d="M 73.4945068359375 179.3964080810547 C 108.115478515625 176.53050231933594 101.04835510253906 177.1898651123047 97.75889587402344 175.67091369628906" stroke-width="3.0" fill="none" stroke="rgb(0, 0, 0)" stroke-opacity="1.0" stroke-linecap="round" stroke-linejoin="round"/>
    <path d="M 57.01478958129883 173.68040466308594 C 120.24493408203125 168.38809204101562 115.01573181152344 185.8762664794922 50.37470626831055 182.4989013671875" stroke-width="3.0" fill="none" stroke="rgb(0, 0, 0)" stroke-opacity="1.0" stroke-linecap="round" stroke-linejoin="round"/>
    <path d="M 98.3827896118164 186.23779296875 C 97.41631317138672 169.05372619628906 117.31776428222656 150.0995330810547 94.4719467163086 178.06300354003906" stroke-width="3.0" fill="none" stroke="rgb(0, 0, 0)" stroke-opacity="1.0" stroke-linecap="round" stroke-linejoin="round"/>
    <path d="M 174.48031616210938 79.9227066040039 C 167.21554565429688 131.723876953125 172.6698455810547 71.33279418945312 166.56336975097656 111.44296264648438" stroke-width="3.0" fill="none" stroke="rgb(0, 0, 0)" stroke-opacity="1.0" stroke-linecap="round" stroke-linejoin="round"/>
    <path d="M 96.18482971191406 174.5696258544922 C 33.256019592285156 185.07884216308594 44.659881591796875 177.471923828125 74.03962707519531 190.19175720214844" stroke-width="3.0" fill="none" stroke="rgb(0, 0, 0)" stroke-opacity="1.0" stroke-linecap="round" stroke-linejoin="round"/>
    <path d="M 82.7940673828125 58.00352478027344 C 81.49271392822266 66.02051544189453 71.24391174316406 44.182861328125 117.32963562011719 48.890071868896484" stroke-width="3.0" fill="none" stroke="rgb(0, 0, 0)" stroke-opacity="1.0" stroke-linecap="round" stroke-linejoin="round"/>
    <path d="M 115.72081756591797 151.76736450195312 C 155.62255859375 146.23886108398438 123.29376983642578 146.5439453125 127.43486022949219 159.50656127929688" stroke-width="3.0" fill="none" stroke="rgb(0, 0, 0)" stroke-opacity="1.0" stroke-linecap="round" stroke-linejoin="round"/>
    <path d="M 159.16256713867188 51.277652740478516 C 167.3019561767578 33.95276641845703 214.8950958251953 47.68540573120117 138.49459838867188 47.77781677246094" stroke-width="3.0" fill="none" stroke="rgb(0, 0, 0)" stroke-opacity="1.0" stroke-linecap="round" stroke-linejoin="round"/>
    <path d="M 52.14285659790039 176.71798706054688 C 46.208648681640625 183.9306182861328 41.18193435668945 202.84751892089844 56.53384780883789 177.82290649414062" stroke-width="3.0" fill="none" stroke="rgb(0, 0, 0)" stroke-opacity="1.0" stroke-linecap="round" stroke-linejoin="round"/>
    <path d="M 163.7140655517578 107.80245208740234 C 164.08555603027344 134.4460906982422 164.49844360351562 121.83654022216797 185.92494201660156 89.29115295410156" stroke-width="3.0" fill="none" stroke="rgb(0, 0, 0)" stroke-opacity="1.0" stroke-linecap="round" stroke-linejoin="round"/>
    <path d="M 145.30755615234375 55.198787689208984 C 120.69029998779297 99.19441986083984 106.52677917480469 125.70629119873047 114.80583953857422 108.83902740478516" stroke-width="3.0" fill="none" stroke="rgb(0, 0, 0)" stroke-opacity="1.0" stroke-linecap="round" stroke-linejoin="round"/>
    <path d="M 161.33062744140625 50.62861251831055 C 146.07354736328125 78.61769104003906 128.02920532226562 25.882402420043945 162.45945739746094 112.31649017333984" stroke-width="3.0" fill="none" stroke="rgb(0, 0, 0)" stroke-opacity="1.0" stroke-linecap="round" stroke-linejoin="round"/>
    <path d="M 95.97724914550781 188.35279846191406 C 97.3377914428711 191.59066772460938 106.3045654296875 182.0855712890625 69.99407196044922 188.7539825439453" stroke-width="3.0" fill="none" stroke="rgb(0, 0, 0)" stroke-opacity="1.0" stroke-linecap="round" stroke-linejoin="round"/>
    <path d="M 85.40391540527344 53.84872055053711 C 103.79266357421875 133.06922912597656 103.11466217041016 153.21298217773438 70.0314712524414 78.84957885742188" stroke-width="3.0" fill="none" stroke="rgb(0, 0, 0)" stroke-opacity="1.0" stroke-linecap="round" stroke-linejoin="round"/>
    <path d="M 184.92015075683594 142.8068389892578 C 159.47445678710938 101.9654312133789 162.32830810546875 98.39016723632812 177.89100646972656 117.49740600585938" stroke-width="3.0" fill="none" stroke="rgb(0, 0, 0)" stroke-opacity="1.0" stroke-linecap="round" stroke-linejoin="round"/>
    <path d="M 79.8561019897461 31.82100486755371 C 27.082733154296875 15.667572021484375 66.5570068359375 29.879592895507812 78.00406646728516 34.678470611572266" stroke-width="3.0" fill="none" stroke="rgb(0, 0, 0)" stroke-opacity="1.0" stroke-linecap="round" stroke-linejoin="round"/>
    <path d="M 44.72476577758789 149.3977813720703 C 62.98172378540039 158.54966735839844 85.18968963623047 147.83700561523438 91.99517822265625 118.2294921875" stroke-width="3.0" fill="none" stroke="rgb(0, 0, 0)" stroke-opacity="1.0" stroke-linecap="round" stroke-linejoin="round"/>
    <path d="M 159.94723510742188 125.398681640625 C 137.7831573486328 155.24459838867188 149.06959533691406 127.87094116210938 148.08859252929688 138.9156951904297" stroke-width="3.0" fill="none" stroke="rgb(0, 0, 0)" stroke-opacity="1.0" stroke-linecap="round" stroke-linejoin="round"/>
    <path d="M 45.837806701660156 149.92210388183594 C 22.441720962524414 141.92933654785156 2.5961363315582275 112.42503356933594 29.499441146850586 84.56954956054688" stroke-width="3.0" fill="none" stroke="rgb(0, 0, 0)" stroke-opacity="1.0" stroke-linecap="round" stroke-linejoin="round"/>
    <path d="M 175.3925018310547 189.46580505371094 C 183.0790252685547 175.89599609375 189.00186157226562 190.86798095703125 169.97055053710938 165.8691864013672" stroke-width="3.0" fill="none" stroke="rgb(0, 0, 0)" stroke-opacity="1.0" stroke-linecap="round" stroke-linejoin="round"/>
    <path d="M 159.14532470703125 150.9499969482422 C 78.57273864746094 139.98912048339844 169.2831268310547 145.9121551513672 135.36985778808594 157.7953338623047" stroke-width="3.0" fill="none" stroke="rgb(0, 0, 0)" stroke-opacity="1.0" stroke-linecap="round" stroke-linejoin="round"/>
    <path d="M 32.4498176574707 81.47004699707031 C 78.50008392333984 51.144561767578125 118.3121109008789 124.0810775756836 94.6181869506836 117.93180847167969" stroke-width="3.0" fill="none" stroke="rgb(0, 0, 0)" stroke-opacity="1.0" stroke-linecap="round" stroke-linejoin="round"/>
    <path d="M 100.92572021484375 115.43241119384766 C 95.38996124267578 85.75374603271484 92.12440490722656 87.4181137084961 79.70086669921875 81.28636932373047" stroke-width="3.0" fill="none" stroke="rgb(0, 0, 0)" stroke-opacity="1.0" stroke-linecap="round" stroke-linejoin="round"/>
    <path d="M 77.46489715576172 172.17872619628906 C 105.1115493774414 144.52694702148438 127.71761322021484 145.80648803710938 141.6265411376953 153.91867065429688" stroke-width="3.0" fill="none" stroke="rgb(0, 0, 0)" stroke-opacity="1.0" stroke-linecap="round" stroke-linejoin="round"/>
    <path d="M 82.02420806884766 26.765649795532227 C 88.11859130859375 54.34511184692383 99.50248718261719 52.874019622802734 85.9751968383789 59.434532165527344" stroke-width="3.0" fill="none" stroke="rgb(0, 0, 0)" stroke-opacity="1.0" stroke-linecap="round" stroke-linejoin="round"/>
    <path d="M 111.26007843017578 153.0894775390625 C 178.01583862304688 150.4854736328125 132.1421356201172 150.81161499023438 134.0321807861328 186.89276123046875" stroke-width="3.0" fill="none" stroke="rgb(0, 0, 0)" stroke-opacity="1.0" stroke-linecap="round" stroke-linejoin="round"/>
    <path d="M 118.43006134033203 136.72633361816406 C 118.77303314208984 142.8114471435547 109.46249389648438 132.4463653564453 108.65078735351562 130.04367065429688" stroke-width="3.0" fill="none" stroke="rgb(0, 0, 0)" stroke-opacity="1.0" stroke-linecap="round" stroke-linejoin="round"/>
    <path d="M 175.29510498046875 55.43511962890625 C 174.0679931640625 48.17766571044922 171.4986114501953 51.16332244873047 180.6782989501953 39.52412414550781" stroke-width="3.0" fill="none" stroke="rgb(0, 0, 0)" stroke-opacity="1.0" stroke-linecap="round" stroke-linejoin="round"/>
    <path d="M 85.78199768066406 61.49348449707031 C 66.77520751953125 67.64102172851562 86.18099975585938 34.21371078491211 70.47591400146484 87.54915618896484" stroke-width="3.0" fill="none" stroke="rgb(0, 0, 0)" stroke-opacity="1.0" stroke-linecap="round" stroke-linejoin="round"/>
  </g>
</svg>
