<?xml version="1.0" ?>
<svg xmlns="http://www.w3.org/2000/svg" version="1.1" width="224" height="224">
  <defs/>
  <g>
    <path d="M 134.9842529296875 114.07294464111328 C 184.14773559570312 111.31076049804688 168.6393585205078 105.10879516601562 173.9490203857422 111.98900604248047" stroke-width="3.0" fill="none" stroke="rgb(0, 0, 0)" stroke-opacity="1.0" stroke-linecap="round" stroke-linejoin="round"/>
    <path d="M 107.01245880126953 153.01156616210938 C 52.64261245727539 172.4778289794922 63.423194885253906 168.5128936767578 156.07826232910156 147.66845703125" stroke-width="3.0" fill="none" stroke="rgb(0, 0, 0)" stroke-opacity="1.0" stroke-linecap="round" stroke-linejoin="round"/>
    <path d="M 149.3041229248047 154.78436279296875 C 152.6875457763672 148.72940063476562 106.3691177368164 129.5526580810547 144.4158935546875 78.85946655273438" stroke-width="3.0" fill="none" stroke="rgb(0, 0, 0)" stroke-opacity="1.0" stroke-linecap="round" stroke-linejoin="round"/>
    <path d="M 150.5870361328125 143.75088500976562 C 177.5441436767578 98.21688842773438 155.41879272460938 109.9140625 191.022705078125 127.12615966796875" stroke-width="3.0" fill="none" stroke="rgb(0, 0, 0)" stroke-opacity="1.0" stroke-linecap="round" stroke-linejoin="round"/>
    <path d="M 152.53347778320312 74.54857635498047 C 229.38003540039062 72.43323516845703 225.5567169189453 166.74392700195312 155.54908752441406 156.20896911621094" stroke-width="3.0" fill="none" stroke="rgb(0, 0, 0)" stroke-opacity="1.0" stroke-linecap="round" stroke-linejoin="round"/>
    <path d="M 92.7132568359375 173.43907165527344 C 86.60713195800781 168.0761260986328 88.75444030761719 195.98619079589844 109.18460845947266 155.343017578125" stroke-width="3.0" fill="none" stroke="rgb(0, 0, 0)" stroke-opacity="1.0" stroke-linecap="round" stroke-linejoin="round"/>
    <path d="M 90.493896484375 116.06160736083984 C 145.2672119140625 121.1760482788086 89.554931640625 103.56060791015625 110.42554473876953 123.29711151123047" stroke-width="3.0" fill="none" stroke="rgb(0, 0, 0)" stroke-opacity="1.0" stroke-linecap="round" stroke-linejoin="round"/>
    <path d="M 53.41501235961914 178.24441528320312 C 229.4326629638672 163.93258666992188 209.87953186035156 159.19366455078125 53.753448486328125 174.86766052246094" stroke-width="3.0" fill="none" stroke="rgb(0, 0, 0)" stroke-opacity="1.0" stroke-linecap="round" stroke-linejoin="round"/>
    <path d="M 180.65408325195312 176.30799865722656 C 166.15487670898438 231.5723114013672 118.94176483154297 168.39617919921875 150.31903076171875 196.18759155273438" stroke-width="3.0" fill="none" stroke="rgb(0, 0, 0)" stroke-opacity="1.0" stroke-linecap="round" stroke-linejoin="round"/>
    <path d="M 153.5198211669922 84.6718978881836 C 194.25469970703125 76.47271728515625 220.45834350585938 128.4276123046875 180.7620391845703 149.09408569335938" stroke-width="3.0" fill="none" stroke="rgb(0, 0, 0)" stroke-opacity="1.0" stroke-linecap="round" stroke-linejoin="round"/>
    <path d="M 176.31224060058594 176.9281005859375 C 175.95452880859375 157.79209899902344 186.06781005859375 198.6308135986328 179.23516845703125 168.25306701660156" stroke-width="3.0" fill="none" stroke="rgb(0, 0, 0)" stroke-opacity="1.0" stroke-linecap="round" stroke-linejoin="round"/>
    <path d="M 133.9036102294922 162.56260681152344 C 110.13011932373047 166.26593017578125 132.57904052734375 159.48622131347656 148.89918518066406 158.13450622558594" stroke-width="3.0" fill="none" stroke="rgb(0, 0, 0)" stroke-opacity="1.0" stroke-linecap="round" stroke-linejoin="round"/>
    <path d="M 160.48190307617188 147.98934936523438 C 169.1622772216797 110.89271545410156 164.74375915527344 90.31769561767578 173.2880859375 147.4055633544922" stroke-width="3.0" fill="none" stroke="rgb(0, 0, 0)" stroke-opacity="1.0" stroke-linecap="round" stroke-linejoin="round"/>
    <path d="M 147.93426513671875 172.80789184570312 C 160.2797393798828 213.97703552246094 191.66261291503906 164.4033660888672 151.03091430664062 174.51751708984375" stroke-width="3.0" fill="none" stroke="rgb(0, 0, 0)" stroke-opacity="1.0" stroke-linecap="round" stroke-linejoin="round"/>
    <path d="M 86.60649108886719 55.67017364501953 C 107.45736694335938 38.71452713012695 193.3209991455078 80.8972396850586 157.7154541015625 42.25869369506836" stroke-width="3.0" fill="none" stroke="rgb(0, 0, 0)" stroke-opacity="1.0" stroke-linecap="round" stroke-linejoin="round"/>
    <path d="M 61.9788818359375 29.977327346801758 C 84.066650390625 29.28511619567871 77.20736694335938 24.55020523071289 103.29324340820312 108.67645263671875" stroke-width="3.0" fill="none" stroke="rgb(0, 0, 0)" stroke-opacity="1.0" stroke-linecap="round" stroke-linejoin="round"/>
    <path d="M 62.22669982910156 24.810510635375977 C 121.25782012939453 30.612401962280273 46.73533630371094 35.16395568847656 63.066993713378906 26.530887603759766" stroke-width="3.0" fill="none" stroke="rgb(0, 0, 0)" stroke-opacity="1.0" stroke-linecap="round" stroke-linejoin="round"/>
    <path d="M 45.28803634643555 191.03924560546875 C 181.8528594970703 187.97494506835938 117.06849670410156 191.4706573486328 66.55517578125 185.6367645263672" stroke-width="3.0" fill="none" stroke="rgb(0, 0, 0)" stroke-opacity="1.0" stroke-linecap="round" stroke-linejoin="round"/>
    <path d="M 134.2316131591797 188.0101776123047 C 144.47833251953125 142.0408172607422 201.008544921875 188.3657684326172 173.03457641601562 163.82008361816406" stroke-width="3.0" fill="none" stroke="rgb(0, 0, 0)" stroke-opacity="1.0" stroke-linecap="round" stroke-linejoin="round"/>
    <path d="M 44.19565200805664 186.91445922851562 C 125.11942291259766 185.67550659179688 116.5972671508789 177.36102294921875 50.827537536621094 175.7879638671875" stroke-width="3.0" fill="none" stroke="rgb(0, 0, 0)" stroke-opacity="1.0" stroke-linecap="round" stroke-linejoin="round"/>
    <path d="M 48.2515983581543 188.14381408691406 C 130.39132690429688 187.45388793945312 107.43824005126953 174.8885040283203 56.04972839355469 181.1517791748047" stroke-width="3.0" fill="none" stroke="rgb(0, 0, 0)" stroke-opacity="1.0" stroke-linecap="round" stroke-linejoin="round"/>
    <path d="M 101.58592224121094 188.74642944335938 C 103.02131652832031 166.94677734375 116.4131088256836 166.0323944091797 68.7332992553711 179.65618896484375" stroke-width="3.0" fill="none" stroke="rgb(0, 0, 0)" stroke-opacity="1.0" stroke-linecap="round" stroke-linejoin="round"/>
    <path d="M 185.18765258789062 95.87047576904297 C 181.6129608154297 103.19931030273438 197.80882263183594 71.21725463867188 175.61326599121094 116.40851593017578" stroke-width="3.0" fill="none" stroke="rgb(0, 0, 0)" stroke-opacity="1.0" stroke-linecap="round" stroke-linejoin="round"/>
    <path d="M 97.84925842285156 166.77980041503906 C 33.53376007080078 177.75997924804688 47.65110778808594 185.32763671875 62.19899368286133 177.69850158691406" stroke-width="3.0" fill="none" stroke="rgb(0, 0, 0)" stroke-opacity="1.0" stroke-linecap="round" stroke-linejoin="round"/>
    <path d="M 69.81752014160156 74.4027328491211 C 83.6304702758789 58.0316276550293 59.35738754272461 32.792510986328125 167.7898406982422 50.10185241699219" stroke-width="3.0" fill="none" stroke="rgb(0, 0, 0)" stroke-opacity="1.0" stroke-linecap="round" stroke-linejoin="round"/>
    <path d="M 129.40237426757812 154.80975341796875 C 154.26153564453125 154.90255737304688 131.99693298339844 145.54100036621094 124.42510223388672 166.84793090820312" stroke-width="3.0" fill="none" stroke="rgb(0, 0, 0)" stroke-opacity="1.0" stroke-linecap="round" stroke-linejoin="round"/>
    <path d="M 157.42315673828125 59.107208251953125 C 176.1580810546875 30.15563201904297 220.55087280273438 26.888750076293945 143.19754028320312 51.12306213378906" stroke-width="3.0" fill="none" stroke="rgb(0, 0, 0)" stroke-opacity="1.0" stroke-linecap="round" stroke-linejoin="round"/>
    <path d="M 59.1888542175293 177.36227416992188 C 52.62645721435547 186.27244567871094 35.20237350463867 201.00128173828125 50.981597900390625 176.5671844482422" stroke-width="3.0" fill="none" stroke="rgb(0, 0, 0)" stroke-opacity="1.0" stroke-linecap="round" stroke-linejoin="round"/>
    <path d="M 185.85009765625 96.79022979736328 C 171.1470184326172 119.43234252929688 175.9694366455078 127.02545166015625 179.6748504638672 87.18060302734375" stroke-width="3.0" fill="none" stroke="rgb(0, 0, 0)" stroke-opacity="1.0" stroke-linecap="round" stroke-linejoin="round"/>
    <path d="M 139.8581085205078 58.55827713012695 C 114.58306121826172 108.34010314941406 97.9327621459961 160.1399383544922 108.18991088867188 113.99028015136719" stroke-width="3.0" fill="none" stroke="rgb(0, 0, 0)" stroke-opacity="1.0" stroke-linecap="round" stroke-linejoin="round"/>
    <path d="M 173.52125549316406 37.68002700805664 C 160.1719207763672 71.04141235351562 112.14163970947266 -3.752631425857544 167.0582275390625 117.269287109375" stroke-width="3.0" fill="none" stroke="rgb(0, 0, 0)" stroke-opacity="1.0" stroke-linecap="round" stroke-linejoin="round"/>
    <path d="M 61.46299743652344 172.6417999267578 C 113.12928771972656 171.30111694335938 123.36731719970703 194.39907836914062 51.89524841308594 184.41900634765625" stroke-width="3.0" fill="none" stroke="rgb(0, 0, 0)" stroke-opacity="1.0" stroke-linecap="round" stroke-linejoin="round"/>
    <path d="M 90.5551528930664 55.132259368896484 C 111.67308807373047 146.672119140625 127.72846221923828 122.98712158203125 53.67784881591797 111.8194580078125" stroke-width="3.0" fill="none" stroke="rgb(0, 0, 0)" stroke-opacity="1.0" stroke-linecap="round" stroke-linejoin="round"/>
    <path d="M 185.86622619628906 140.6822509765625 C 164.58938598632812 104.12030029296875 170.12738037109375 123.83633422851562 191.13381958007812 108.66290283203125" stroke-width="3.0" fill="none" stroke="rgb(0, 0, 0)" stroke-opacity="1.0" stroke-linecap="round" stroke-linejoin="round"/>
    <path d="M 79.50198364257812 32.823516845703125 C 56.72936248779297 36.253936767578125 54.6125602722168 16.453466415405273 82.80818939208984 31.53655433654785" stroke-width="3.0" fill="none" stroke="rgb(0, 0, 0)" stroke-opacity="1.0" stroke-linecap="round" stroke-linejoin="round"/>
    <path d="M 41.920597076416016 147.819580078125 C 60.17382049560547 157.42071533203125 89.55320739746094 141.9150390625 93.71804809570312 116.71736907958984" stroke-width="3.0" fill="none" stroke="rgb(0, 0, 0)" stroke-opacity="1.0" stroke-linecap="round" stroke-linejoin="round"/>
    <path d="M 167.89759826660156 115.99961853027344 C 120.4136734008789 134.34869384765625 134.3651123046875 128.7703399658203 141.3087158203125 126.97579956054688" stroke-width="3.0" fill="none" stroke="rgb(0, 0, 0)" stroke-opacity="1.0" stroke-linecap="round" stroke-linejoin="round"/>
    <path d="M 47.808074951171875 149.17022705078125 C 14.931982040405273 141.35520935058594 5.475147247314453 98.96793365478516 43.64552688598633 76.64411926269531" stroke-width="3.0" fill="none" stroke="rgb(0, 0, 0)" stroke-opacity="1.0" stroke-linecap="round" stroke-linejoin="round"/>
    <path d="M 185.87046813964844 187.6071014404297 C 170.47509765625 191.76119995117188 200.68182373046875 180.52536010742188 174.55386352539062 159.8200225830078" stroke-width="3.0" fill="none" stroke="rgb(0, 0, 0)" stroke-opacity="1.0" stroke-linecap="round" stroke-linejoin="round"/>
    <path d="M 175.05027770996094 155.14678955078125 C 85.05509185791016 151.8636932373047 177.08279418945312 157.10130310058594 130.23875427246094 160.60121154785156" stroke-width="3.0" fill="none" stroke="rgb(0, 0, 0)" stroke-opacity="1.0" stroke-linecap="round" stroke-linejoin="round"/>
    <path d="M 29.89454460144043 82.79995727539062 C 95.82130432128906 36.80394744873047 122.98934936523438 142.7657928466797 91.02281188964844 115.37115478515625" stroke-width="3.0" fill="none" stroke="rgb(0, 0, 0)" stroke-opacity="1.0" stroke-linecap="round" stroke-linejoin="round"/>
    <path d="M 108.96366119384766 121.17378234863281 C 92.21240234375 147.45059204101562 102.7024154663086 97.2403793334961 66.46366882324219 79.8180160522461" stroke-width="3.0" fill="none" stroke="rgb(0, 0, 0)" stroke-opacity="1.0" stroke-linecap="round" stroke-linejoin="round"/>
    <path d="M 69.16436004638672 183.0991973876953 C 91.23843383789062 140.48065185546875 114.47925567626953 151.135009765625 135.4514923095703 152.3367462158203" stroke-width="3.0" fill="none" stroke="rgb(0, 0, 0)" stroke-opacity="1.0" stroke-linecap="round" stroke-linejoin="round"/>
    <path d="M 86.161865234375 38.735042572021484 C 95.78392791748047 63.80251693725586 87.67778015136719 30.58643913269043 70.81392669677734 64.9052505493164" stroke-width="3.0" fill="none" stroke="rgb(0, 0, 0)" stroke-opacity="1.0" stroke-linecap="round" stroke-linejoin="round"/>
    <path d="M 146.6232147216797 147.6442108154297 C 214.9388427734375 173.028564453125 127.43586730957031 148.63804626464844 151.2015838623047 177.39334106445312" stroke-width="3.0" fill="none" stroke="rgb(0, 0, 0)" stroke-opacity="1.0" stroke-linecap="round" stroke-linejoin="round"/>
    <path d="M 113.05011749267578 115.60728454589844 C 130.06158447265625 167.95962524414062 128.89370727539062 121.82661437988281 107.5865478515625 125.23223876953125" stroke-width="3.0" fill="none" stroke="rgb(0, 0, 0)" stroke-opacity="1.0" stroke-linecap="round" stroke-linejoin="round"/>
    <path d="M 175.33987426757812 52.516319274902344 C 170.4361572265625 47.32588577270508 188.81930541992188 37.09392547607422 165.4697723388672 44.27833557128906" stroke-width="3.0" fill="none" stroke="rgb(0, 0, 0)" stroke-opacity="1.0" stroke-linecap="round" stroke-linejoin="round"/>
    <path d="M 90.04993438720703 53.63587188720703 C 78.51395416259766 59.8922004699707 88.36820220947266 43.835357666015625 58.70555114746094 114.01492309570312" stroke-width="3.0" fill="none" stroke="rgb(0, 0, 0)" stroke-opacity="1.0" stroke-linecap="round" stroke-linejoin="round"/>
  </g>
</svg>
