<?xml version="1.0" ?>
<svg xmlns="http://www.w3.org/2000/svg" version="1.1" width="224" height="224">
  <defs/>
  <g>
    <path d="M 147.85179138183594 135.09133911132812 C 159.90188598632812 127.7856216430664 161.5619659423828 121.72187042236328 181.95664978027344 109.90071105957031" stroke-width="3.0" fill="none" stroke="rgb(0, 0, 0)" stroke-opacity="1.0" stroke-linecap="round" stroke-linejoin="round"/>
    <path d="M 104.27867889404297 153.05242919921875 C 67.45835876464844 182.33941650390625 79.34854888916016 180.67991638183594 141.8533477783203 154.14073181152344" stroke-width="3.0" fill="none" stroke="rgb(0, 0, 0)" stroke-opacity="1.0" stroke-linecap="round" stroke-linejoin="round"/>
    <path d="M 146.09280395507812 136.32957458496094 C 161.5011444091797 146.22140502929688 126.83492279052734 134.4738006591797 128.95794677734375 102.4930419921875" stroke-width="3.0" fill="none" stroke="rgb(0, 0, 0)" stroke-opacity="1.0" stroke-linecap="round" stroke-linejoin="round"/>
    <path d="M 158.30409240722656 139.82093811035156 C 165.2776641845703 113.07940673828125 168.81695556640625 116.18850708007812 187.90345764160156 139.34141540527344" stroke-width="3.0" fill="none" stroke="rgb(0, 0, 0)" stroke-opacity="1.0" stroke-linecap="round" stroke-linejoin="round"/>
    <path d="M 198.5943145751953 96.31747436523438 C 198.71409606933594 91.7255859375 220.67982482910156 129.923583984375 181.8720703125 147.32896423339844" stroke-width="3.0" fill="none" stroke="rgb(0, 0, 0)" stroke-opacity="1.0" stroke-linecap="round" stroke-linejoin="round"/>
    <path d="M 107.34907531738281 161.7810516357422 C 114.86666107177734 160.36996459960938 92.03108215332031 159.78192138671875 112.79997253417969 158.0375213623047" stroke-width="3.0" fill="none" stroke="rgb(0, 0, 0)" stroke-opacity="1.0" stroke-linecap="round" stroke-linejoin="round"/>
    <path d="M 105.76911926269531 117.58955383300781 C 131.8497772216797 123.5807113647461 108.75150299072266 101.91517639160156 112.47434997558594 117.55030059814453" stroke-width="3.0" fill="none" stroke="rgb(0, 0, 0)" stroke-opacity="1.0" stroke-linecap="round" stroke-linejoin="round"/>
    <path d="M 108.83650970458984 181.82460021972656 C 159.08753967285156 176.6917266845703 128.21774291992188 188.79859924316406 52.66151428222656 185.61154174804688" stroke-width="3.0" fill="none" stroke="rgb(0, 0, 0)" stroke-opacity="1.0" stroke-linecap="round" stroke-linejoin="round"/>
    <path d="M 176.90859985351562 189.02610778808594 C 158.8227081298828 214.44142150878906 134.5006561279297 189.6236572265625 147.4359893798828 169.00453186035156" stroke-width="3.0" fill="none" stroke="rgb(0, 0, 0)" stroke-opacity="1.0" stroke-linecap="round" stroke-linejoin="round"/>
    <path d="M 156.58328247070312 79.79112243652344 C 200.47372436523438 70.4704818725586 207.1957550048828 120.68701934814453 202.16160583496094 101.1622085571289" stroke-width="3.0" fill="none" stroke="rgb(0, 0, 0)" stroke-opacity="1.0" stroke-linecap="round" stroke-linejoin="round"/>
    <path d="M 175.0642547607422 168.82720947265625 C 182.80282592773438 179.00526428222656 184.8726806640625 186.82882690429688 179.04840087890625 179.20506286621094" stroke-width="3.0" fill="none" stroke="rgb(0, 0, 0)" stroke-opacity="1.0" stroke-linecap="round" stroke-linejoin="round"/>
    <path d="M 124.25267028808594 143.52691650390625 C 115.07740783691406 138.95584106445312 128.69754028320312 147.33978271484375 118.99919128417969 140.9402313232422" stroke-width="3.0" fill="none" stroke="rgb(0, 0, 0)" stroke-opacity="1.0" stroke-linecap="round" stroke-linejoin="round"/>
    <path d="M 170.75682067871094 145.52403259277344 C 169.2165985107422 108.07865142822266 165.31948852539062 115.1577377319336 175.11582946777344 145.80015563964844" stroke-width="3.0" fill="none" stroke="rgb(0, 0, 0)" stroke-opacity="1.0" stroke-linecap="round" stroke-linejoin="round"/>
    <path d="M 168.40219116210938 196.8370819091797 C 178.60321044921875 189.42259216308594 178.4016571044922 171.83889770507812 165.5543670654297 164.99610900878906" stroke-width="3.0" fill="none" stroke="rgb(0, 0, 0)" stroke-opacity="1.0" stroke-linecap="round" stroke-linejoin="round"/>
    <path d="M 91.06902313232422 52.97572326660156 C 161.44775390625 37.770145416259766 168.10328674316406 75.62762451171875 163.6967010498047 43.79167556762695" stroke-width="3.0" fill="none" stroke="rgb(0, 0, 0)" stroke-opacity="1.0" stroke-linecap="round" stroke-linejoin="round"/>
    <path d="M 83.83174896240234 45.588218688964844 C 80.70620727539062 45.31163787841797 80.36878204345703 36.48890686035156 106.93500518798828 109.35160827636719" stroke-width="3.0" fill="none" stroke="rgb(0, 0, 0)" stroke-opacity="1.0" stroke-linecap="round" stroke-linejoin="round"/>
    <path d="M 65.92733001708984 24.887775421142578 C 122.09989929199219 27.553096771240234 100.03209686279297 19.943880081176758 71.57095336914062 32.0008430480957" stroke-width="3.0" fill="none" stroke="rgb(0, 0, 0)" stroke-opacity="1.0" stroke-linecap="round" stroke-linejoin="round"/>
    <path d="M 53.35013198852539 175.061767578125 C 74.45634460449219 177.45460510253906 80.0690689086914 163.00778198242188 62.64147186279297 178.8416290283203" stroke-width="3.0" fill="none" stroke="rgb(0, 0, 0)" stroke-opacity="1.0" stroke-linecap="round" stroke-linejoin="round"/>
    <path d="M 145.37086486816406 170.52857971191406 C 162.81460571289062 147.4202117919922 196.61935424804688 182.6407928466797 162.16827392578125 162.92385864257812" stroke-width="3.0" fill="none" stroke="rgb(0, 0, 0)" stroke-opacity="1.0" stroke-linecap="round" stroke-linejoin="round"/>
    <path d="M 76.26538848876953 175.99343872070312 C 101.80692291259766 175.70895385742188 101.80831909179688 180.49835205078125 95.05619049072266 171.9696807861328" stroke-width="3.0" fill="none" stroke="rgb(0, 0, 0)" stroke-opacity="1.0" stroke-linecap="round" stroke-linejoin="round"/>
    <path d="M 52.111228942871094 171.221435546875 C 117.5521240234375 161.58290100097656 113.7713623046875 185.11221313476562 45.94263458251953 187.90003967285156" stroke-width="3.0" fill="none" stroke="rgb(0, 0, 0)" stroke-opacity="1.0" stroke-linecap="round" stroke-linejoin="round"/>
    <path d="M 103.71243286132812 182.91172790527344 C 96.2131118774414 173.12376403808594 112.99321746826172 143.5540313720703 100.09683990478516 175.0131072998047" stroke-width="3.0" fill="none" stroke="rgb(0, 0, 0)" stroke-opacity="1.0" stroke-linecap="round" stroke-linejoin="round"/>
    <path d="M 175.16961669921875 85.54396057128906 C 164.79481506347656 135.17857360839844 165.60739135742188 76.98702239990234 169.92527770996094 111.95130920410156" stroke-width="3.0" fill="none" stroke="rgb(0, 0, 0)" stroke-opacity="1.0" stroke-linecap="round" stroke-linejoin="round"/>
    <path d="M 72.21060180664062 170.75489807128906 C 44.6185188293457 180.45077514648438 54.18291091918945 182.2298583984375 65.56227111816406 184.80299377441406" stroke-width="3.0" fill="none" stroke="rgb(0, 0, 0)" stroke-opacity="1.0" stroke-linecap="round" stroke-linejoin="round"/>
    <path d="M 85.673583984375 51.16819763183594 C 76.07992553710938 63.28461456298828 82.60063934326172 50.42906188964844 112.12782287597656 48.89099884033203" stroke-width="3.0" fill="none" stroke="rgb(0, 0, 0)" stroke-opacity="1.0" stroke-linecap="round" stroke-linejoin="round"/>
    <path d="M 110.34471130371094 154.7247772216797 C 144.8286590576172 147.12451171875 120.22467803955078 137.50393676757812 131.64866638183594 156.9177703857422" stroke-width="3.0" fill="none" stroke="rgb(0, 0, 0)" stroke-opacity="1.0" stroke-linecap="round" stroke-linejoin="round"/>
    <path d="M 174.968994140625 39.65135955810547 C 175.0168914794922 43.9959602355957 211.97515869140625 44.43891143798828 146.3045196533203 46.42946243286133" stroke-width="3.0" fill="none" stroke="rgb(0, 0, 0)" stroke-opacity="1.0" stroke-linecap="round" stroke-linejoin="round"/>
    <path d="M 53.43379211425781 173.32546997070312 C 43.51300811767578 180.0509490966797 44.43788146972656 196.73367309570312 52.370361328125 176.56629943847656" stroke-width="3.0" fill="none" stroke="rgb(0, 0, 0)" stroke-opacity="1.0" stroke-linecap="round" stroke-linejoin="round"/>
    <path d="M 165.50990295410156 122.72832489013672 C 173.06243896484375 128.9580078125 167.98680114746094 120.82015991210938 185.67088317871094 92.67313385009766" stroke-width="3.0" fill="none" stroke="rgb(0, 0, 0)" stroke-opacity="1.0" stroke-linecap="round" stroke-linejoin="round"/>
    <path d="M 142.8471221923828 50.076602935791016 C 118.44361114501953 92.32430267333984 112.38098907470703 119.69660949707031 114.72805786132812 112.70535278320312" stroke-width="3.0" fill="none" stroke="rgb(0, 0, 0)" stroke-opacity="1.0" stroke-linecap="round" stroke-linejoin="round"/>
    <path d="M 155.1417999267578 46.4265251159668 C 137.1513214111328 70.76861572265625 136.0146942138672 39.30942153930664 166.30482482910156 113.44353485107422" stroke-width="3.0" fill="none" stroke="rgb(0, 0, 0)" stroke-opacity="1.0" stroke-linecap="round" stroke-linejoin="round"/>
    <path d="M 99.12686920166016 182.3125457763672 C 96.75537109375 175.86094665527344 108.60619354248047 177.47984313964844 79.28929901123047 179.6248016357422" stroke-width="3.0" fill="none" stroke="rgb(0, 0, 0)" stroke-opacity="1.0" stroke-linecap="round" stroke-linejoin="round"/>
    <path d="M 82.78273010253906 66.79878234863281 C 72.31884765625 135.29379272460938 81.10926818847656 156.75689697265625 69.62711334228516 72.17302703857422" stroke-width="3.0" fill="none" stroke="rgb(0, 0, 0)" stroke-opacity="1.0" stroke-linecap="round" stroke-linejoin="round"/>
    <path d="M 177.32907104492188 146.09803771972656 C 152.89849853515625 117.26335906982422 162.8378448486328 99.57523345947266 176.56141662597656 120.80904388427734" stroke-width="3.0" fill="none" stroke="rgb(0, 0, 0)" stroke-opacity="1.0" stroke-linecap="round" stroke-linejoin="round"/>
    <path d="M 80.61400604248047 34.49076461791992 C 25.0395565032959 23.107990264892578 67.38746643066406 23.608163833618164 75.40709686279297 31.31229591369629" stroke-width="3.0" fill="none" stroke="rgb(0, 0, 0)" stroke-opacity="1.0" stroke-linecap="round" stroke-linejoin="round"/>
    <path d="M 44.98569107055664 149.35043334960938 C 67.94517517089844 155.82762145996094 59.29536819458008 142.7096405029297 67.59677124023438 145.53921508789062" stroke-width="3.0" fill="none" stroke="rgb(0, 0, 0)" stroke-opacity="1.0" stroke-linecap="round" stroke-linejoin="round"/>
    <path d="M 163.58299255371094 142.87899780273438 C 175.22503662109375 146.81246948242188 149.8896484375 134.52310180664062 163.58767700195312 140.39134216308594" stroke-width="3.0" fill="none" stroke="rgb(0, 0, 0)" stroke-opacity="1.0" stroke-linecap="round" stroke-linejoin="round"/>
    <path d="M 43.21290588378906 148.822998046875 C 23.01272964477539 139.90016174316406 8.089836120605469 116.37664031982422 28.338905334472656 87.44985961914062" stroke-width="3.0" fill="none" stroke="rgb(0, 0, 0)" stroke-opacity="1.0" stroke-linecap="round" stroke-linejoin="round"/>
    <path d="M 183.0402374267578 185.8614044189453 C 184.12232971191406 165.54470825195312 184.15745544433594 178.488037109375 175.12449645996094 172.13502502441406" stroke-width="3.0" fill="none" stroke="rgb(0, 0, 0)" stroke-opacity="1.0" stroke-linecap="round" stroke-linejoin="round"/>
    <path d="M 156.0265655517578 150.3165283203125 C 88.27401733398438 146.91409301757812 168.16845703125 143.7198944091797 131.8035888671875 160.11398315429688" stroke-width="3.0" fill="none" stroke="rgb(0, 0, 0)" stroke-opacity="1.0" stroke-linecap="round" stroke-linejoin="round"/>
    <path d="M 31.371234893798828 83.2259292602539 C 75.06209564208984 45.719757080078125 113.46550750732422 120.75324249267578 97.92796325683594 121.81352233886719" stroke-width="3.0" fill="none" stroke="rgb(0, 0, 0)" stroke-opacity="1.0" stroke-linecap="round" stroke-linejoin="round"/>
    <path d="M 97.84475708007812 108.01045989990234 C 92.09562683105469 85.39569091796875 91.3224105834961 87.145263671875 76.6673812866211 77.54010772705078" stroke-width="3.0" fill="none" stroke="rgb(0, 0, 0)" stroke-opacity="1.0" stroke-linecap="round" stroke-linejoin="round"/>
    <path d="M 77.0705795288086 170.7879638671875 C 99.28453826904297 145.37181091308594 128.5794219970703 147.0348358154297 121.89537048339844 155.13697814941406" stroke-width="3.0" fill="none" stroke="rgb(0, 0, 0)" stroke-opacity="1.0" stroke-linecap="round" stroke-linejoin="round"/>
    <path d="M 77.1563720703125 28.27180290222168 C 88.47509765625 50.36677169799805 83.07737731933594 58.00629425048828 96.61707305908203 52.502357482910156" stroke-width="3.0" fill="none" stroke="rgb(0, 0, 0)" stroke-opacity="1.0" stroke-linecap="round" stroke-linejoin="round"/>
    <path d="M 113.35641479492188 158.5977783203125 C 157.55551147460938 158.50990295410156 129.0541534423828 151.3680419921875 131.6873016357422 181.73289489746094" stroke-width="3.0" fill="none" stroke="rgb(0, 0, 0)" stroke-opacity="1.0" stroke-linecap="round" stroke-linejoin="round"/>
    <path d="M 109.28312683105469 145.2412872314453 C 113.20055389404297 138.72482299804688 114.31136322021484 133.30136108398438 111.6701431274414 142.34454345703125" stroke-width="3.0" fill="none" stroke="rgb(0, 0, 0)" stroke-opacity="1.0" stroke-linecap="round" stroke-linejoin="round"/>
    <path d="M 168.28976440429688 55.45774841308594 C 163.94996643066406 49.875850677490234 164.64047241210938 55.4482307434082 176.793212890625 40.057716369628906" stroke-width="3.0" fill="none" stroke="rgb(0, 0, 0)" stroke-opacity="1.0" stroke-linecap="round" stroke-linejoin="round"/>
    <path d="M 87.6662368774414 55.735008239746094 C 80.11654663085938 39.50220489501953 84.22480773925781 31.936107635498047 70.44342803955078 71.73428344726562" stroke-width="3.0" fill="none" stroke="rgb(0, 0, 0)" stroke-opacity="1.0" stroke-linecap="round" stroke-linejoin="round"/>
  </g>
</svg>
