<?xml version="1.0" ?>
<svg xmlns="http://www.w3.org/2000/svg" version="1.1" width="224" height="224">
  <defs/>
  <g>
    <path d="M 136.69725036621094 116.95559692382812 C 199.1139678955078 112.18511199951172 174.02130126953125 107.58099365234375 175.7225799560547 125.3074951171875" stroke-width="3.0" fill="none" stroke="rgb(0, 0, 0)" stroke-opacity="1.0" stroke-linecap="round" stroke-linejoin="round"/>
    <path d="M 117.96576690673828 158.67539978027344 C 48.42637252807617 167.3878631591797 73.31318664550781 181.3542022705078 156.6934356689453 155.96160888671875" stroke-width="3.0" fill="none" stroke="rgb(0, 0, 0)" stroke-opacity="1.0" stroke-linecap="round" stroke-linejoin="round"/>
    <path d="M 173.58750915527344 148.69049072265625 C 143.11184692382812 155.62158203125 97.57571411132812 127.47988891601562 141.96510314941406 69.4089584350586" stroke-width="3.0" fill="none" stroke="rgb(0, 0, 0)" stroke-opacity="1.0" stroke-linecap="round" stroke-linejoin="round"/>
    <path d="M 147.6107940673828 140.18800354003906 C 177.97970581054688 98.74335479736328 155.5467987060547 120.00820922851562 193.07298278808594 128.68968200683594" stroke-width="3.0" fill="none" stroke="rgb(0, 0, 0)" stroke-opacity="1.0" stroke-linecap="round" stroke-linejoin="round"/>
    <path d="M 152.952392578125 77.22623443603516 C 223.9900360107422 65.45902252197266 231.2075653076172 168.4998321533203 146.12554931640625 157.30482482910156" stroke-width="3.0" fill="none" stroke="rgb(0, 0, 0)" stroke-opacity="1.0" stroke-linecap="round" stroke-linejoin="round"/>
    <path d="M 107.69255065917969 160.1431121826172 C 49.222625732421875 174.58187866210938 82.60054016113281 182.4001922607422 125.59615325927734 156.94448852539062" stroke-width="3.0" fill="none" stroke="rgb(0, 0, 0)" stroke-opacity="1.0" stroke-linecap="round" stroke-linejoin="round"/>
    <path d="M 92.12930297851562 129.55169677734375 C 137.189208984375 120.28653717041016 85.11917877197266 100.17841339111328 115.65148162841797 118.37379455566406" stroke-width="3.0" fill="none" stroke="rgb(0, 0, 0)" stroke-opacity="1.0" stroke-linecap="round" stroke-linejoin="round"/>
    <path d="M 58.742156982421875 170.98773193359375 C 167.5244903564453 141.91087341308594 189.10617065429688 155.03689575195312 52.545326232910156 168.4861602783203" stroke-width="3.0" fill="none" stroke="rgb(0, 0, 0)" stroke-opacity="1.0" stroke-linecap="round" stroke-linejoin="round"/>
    <path d="M 180.26966857910156 185.62290954589844 C 149.70399475097656 226.31333923339844 133.47727966308594 161.93212890625 145.9729766845703 192.08909606933594" stroke-width="3.0" fill="none" stroke="rgb(0, 0, 0)" stroke-opacity="1.0" stroke-linecap="round" stroke-linejoin="round"/>
    <path d="M 155.9566650390625 86.74158477783203 C 200.5467987060547 72.5177001953125 222.36680603027344 139.2218017578125 169.3164825439453 148.69129943847656" stroke-width="3.0" fill="none" stroke="rgb(0, 0, 0)" stroke-opacity="1.0" stroke-linecap="round" stroke-linejoin="round"/>
    <path d="M 178.0663299560547 182.68975830078125 C 181.39877319335938 161.2177734375 166.85516357421875 221.04592895507812 180.63491821289062 173.44212341308594" stroke-width="3.0" fill="none" stroke="rgb(0, 0, 0)" stroke-opacity="1.0" stroke-linecap="round" stroke-linejoin="round"/>
    <path d="M 98.1460189819336 167.89840698242188 C 80.65663146972656 166.569091796875 86.85694885253906 156.2161865234375 121.0795669555664 152.9193115234375" stroke-width="3.0" fill="none" stroke="rgb(0, 0, 0)" stroke-opacity="1.0" stroke-linecap="round" stroke-linejoin="round"/>
    <path d="M 158.69859313964844 149.2664337158203 C 178.10289001464844 94.04129791259766 169.727783203125 80.58316802978516 172.88136291503906 147.78167724609375" stroke-width="3.0" fill="none" stroke="rgb(0, 0, 0)" stroke-opacity="1.0" stroke-linecap="round" stroke-linejoin="round"/>
    <path d="M 143.18658447265625 179.6844482421875 C 163.86541748046875 225.44224548339844 184.94973754882812 149.75079345703125 145.06068420410156 183.1172637939453" stroke-width="3.0" fill="none" stroke="rgb(0, 0, 0)" stroke-opacity="1.0" stroke-linecap="round" stroke-linejoin="round"/>
    <path d="M 88.15875244140625 57.2455940246582 C 123.80317687988281 35.80233383178711 192.6595458984375 88.58528137207031 162.26956176757812 38.56428527832031" stroke-width="3.0" fill="none" stroke="rgb(0, 0, 0)" stroke-opacity="1.0" stroke-linecap="round" stroke-linejoin="round"/>
    <path d="M 66.99723052978516 27.11186408996582 C 75.1161117553711 25.119516372680664 81.80911254882812 28.84244155883789 110.81078338623047 120.30340576171875" stroke-width="3.0" fill="none" stroke="rgb(0, 0, 0)" stroke-opacity="1.0" stroke-linecap="round" stroke-linejoin="round"/>
    <path d="M 60.4367561340332 26.085525512695312 C 125.74835205078125 27.043182373046875 27.464303970336914 32.865142822265625 70.6290283203125 25.134300231933594" stroke-width="3.0" fill="none" stroke="rgb(0, 0, 0)" stroke-opacity="1.0" stroke-linecap="round" stroke-linejoin="round"/>
    <path d="M 78.25128936767578 188.39199829101562 C 194.5319366455078 195.22621154785156 151.88848876953125 179.53517150878906 48.4301643371582 180.8439483642578" stroke-width="3.0" fill="none" stroke="rgb(0, 0, 0)" stroke-opacity="1.0" stroke-linecap="round" stroke-linejoin="round"/>
    <path d="M 141.1759490966797 189.93214416503906 C 143.61729431152344 135.69094848632812 213.66458129882812 189.60049438476562 161.27947998046875 165.10162353515625" stroke-width="3.0" fill="none" stroke="rgb(0, 0, 0)" stroke-opacity="1.0" stroke-linecap="round" stroke-linejoin="round"/>
    <path d="M 55.3022575378418 182.00460815429688 C 143.9259490966797 195.78785705566406 136.8985595703125 198.03273010253906 57.00211715698242 175.3333740234375" stroke-width="3.0" fill="none" stroke="rgb(0, 0, 0)" stroke-opacity="1.0" stroke-linecap="round" stroke-linejoin="round"/>
    <path d="M 44.436161041259766 192.84884643554688 C 210.25936889648438 202.47488403320312 174.97886657714844 156.5270538330078 63.06826400756836 176.09686279296875" stroke-width="3.0" fill="none" stroke="rgb(0, 0, 0)" stroke-opacity="1.0" stroke-linecap="round" stroke-linejoin="round"/>
    <path d="M 98.6087875366211 185.09983825683594 C 110.27368927001953 136.11817932128906 124.50416564941406 153.16856384277344 76.99748229980469 170.52777099609375" stroke-width="3.0" fill="none" stroke="rgb(0, 0, 0)" stroke-opacity="1.0" stroke-linecap="round" stroke-linejoin="round"/>
    <path d="M 188.87203979492188 90.46346282958984 C 182.02406311035156 88.83039855957031 147.8289031982422 66.49701690673828 169.91390991210938 115.03099822998047" stroke-width="3.0" fill="none" stroke="rgb(0, 0, 0)" stroke-opacity="1.0" stroke-linecap="round" stroke-linejoin="round"/>
    <path d="M 109.62326049804688 153.99192810058594 C 37.089752197265625 184.4215850830078 20.271535873413086 183.7940673828125 92.54673767089844 186.09764099121094" stroke-width="3.0" fill="none" stroke="rgb(0, 0, 0)" stroke-opacity="1.0" stroke-linecap="round" stroke-linejoin="round"/>
    <path d="M 63.61668395996094 109.7504653930664 C 86.11087036132812 60.115848541259766 62.33987045288086 36.50210952758789 169.6868133544922 48.09201431274414" stroke-width="3.0" fill="none" stroke="rgb(0, 0, 0)" stroke-opacity="1.0" stroke-linecap="round" stroke-linejoin="round"/>
    <path d="M 130.62974548339844 158.14625549316406 C 175.90980529785156 159.06332397460938 126.87376403808594 145.6984100341797 117.63177490234375 164.77786254882812" stroke-width="3.0" fill="none" stroke="rgb(0, 0, 0)" stroke-opacity="1.0" stroke-linecap="round" stroke-linejoin="round"/>
    <path d="M 149.6388397216797 62.94282531738281 C 180.1033935546875 28.8315372467041 207.53814697265625 34.46989059448242 143.18789672851562 49.81901931762695" stroke-width="3.0" fill="none" stroke="rgb(0, 0, 0)" stroke-opacity="1.0" stroke-linecap="round" stroke-linejoin="round"/>
    <path d="M 58.51664733886719 171.49002075195312 C 48.50202178955078 167.91775512695312 37.894683837890625 205.5467987060547 56.67527389526367 176.98008728027344" stroke-width="3.0" fill="none" stroke="rgb(0, 0, 0)" stroke-opacity="1.0" stroke-linecap="round" stroke-linejoin="round"/>
    <path d="M 181.78172302246094 91.61953735351562 C 168.5675048828125 113.61469268798828 157.82537841796875 119.48067474365234 189.0604248046875 100.3650894165039" stroke-width="3.0" fill="none" stroke="rgb(0, 0, 0)" stroke-opacity="1.0" stroke-linecap="round" stroke-linejoin="round"/>
    <path d="M 147.41781616210938 40.21028518676758 C 106.6583480834961 104.24179077148438 99.68417358398438 152.53611755371094 100.54248046875 122.80032348632812" stroke-width="3.0" fill="none" stroke="rgb(0, 0, 0)" stroke-opacity="1.0" stroke-linecap="round" stroke-linejoin="round"/>
    <path d="M 177.86441040039062 39.336151123046875 C 124.7372817993164 58.580074310302734 125.28823852539062 0.5648651719093323 163.81309509277344 123.78060150146484" stroke-width="3.0" fill="none" stroke="rgb(0, 0, 0)" stroke-opacity="1.0" stroke-linecap="round" stroke-linejoin="round"/>
    <path d="M 54.16111755371094 167.92124938964844 C 135.0963897705078 161.510986328125 122.48735809326172 181.36978149414062 53.886131286621094 174.75531005859375" stroke-width="3.0" fill="none" stroke="rgb(0, 0, 0)" stroke-opacity="1.0" stroke-linecap="round" stroke-linejoin="round"/>
    <path d="M 86.52305603027344 61.250831604003906 C 110.9394760131836 142.08493041992188 141.01541137695312 122.2814712524414 56.05160903930664 115.1788558959961" stroke-width="3.0" fill="none" stroke="rgb(0, 0, 0)" stroke-opacity="1.0" stroke-linecap="round" stroke-linejoin="round"/>
    <path d="M 179.2103729248047 141.1237030029297 C 165.92568969726562 109.0480728149414 155.57168579101562 126.42598724365234 194.62420654296875 109.02818298339844" stroke-width="3.0" fill="none" stroke="rgb(0, 0, 0)" stroke-opacity="1.0" stroke-linecap="round" stroke-linejoin="round"/>
    <path d="M 79.58638000488281 27.361927032470703 C 80.20405578613281 42.548152923583984 28.233015060424805 14.872706413269043 89.38455200195312 26.789331436157227" stroke-width="3.0" fill="none" stroke="rgb(0, 0, 0)" stroke-opacity="1.0" stroke-linecap="round" stroke-linejoin="round"/>
    <path d="M 37.975608825683594 145.43600463867188 C 64.20989227294922 159.29458618164062 89.81970977783203 138.43727111816406 97.08748626708984 115.11412811279297" stroke-width="3.0" fill="none" stroke="rgb(0, 0, 0)" stroke-opacity="1.0" stroke-linecap="round" stroke-linejoin="round"/>
    <path d="M 148.41893005371094 86.45687103271484 C 106.96021270751953 102.77690124511719 112.91883850097656 125.5238037109375 157.65138244628906 116.44413757324219" stroke-width="3.0" fill="none" stroke="rgb(0, 0, 0)" stroke-opacity="1.0" stroke-linecap="round" stroke-linejoin="round"/>
    <path d="M 44.602882385253906 148.7909698486328 C 14.871498107910156 136.13587951660156 8.023597717285156 97.048583984375 41.3537483215332 78.27410888671875" stroke-width="3.0" fill="none" stroke="rgb(0, 0, 0)" stroke-opacity="1.0" stroke-linecap="round" stroke-linejoin="round"/>
    <path d="M 183.4453887939453 185.99136352539062 C 156.8112335205078 146.00213623046875 186.96768188476562 174.29043579101562 174.16200256347656 167.0259246826172" stroke-width="3.0" fill="none" stroke="rgb(0, 0, 0)" stroke-opacity="1.0" stroke-linecap="round" stroke-linejoin="round"/>
    <path d="M 164.33518981933594 157.90504455566406 C 67.58076477050781 154.07907104492188 147.0177459716797 169.13592529296875 126.99272155761719 161.46249389648438" stroke-width="3.0" fill="none" stroke="rgb(0, 0, 0)" stroke-opacity="1.0" stroke-linecap="round" stroke-linejoin="round"/>
    <path d="M 30.35398292541504 83.91951751708984 C 97.44489288330078 46.70227813720703 101.1581039428711 134.3975372314453 106.17533111572266 111.17222595214844" stroke-width="3.0" fill="none" stroke="rgb(0, 0, 0)" stroke-opacity="1.0" stroke-linecap="round" stroke-linejoin="round"/>
    <path d="M 110.57295227050781 131.4329833984375 C 82.94356536865234 133.3040771484375 105.14716339111328 109.45355987548828 73.51104736328125 87.6427001953125" stroke-width="3.0" fill="none" stroke="rgb(0, 0, 0)" stroke-opacity="1.0" stroke-linecap="round" stroke-linejoin="round"/>
    <path d="M 68.77059173583984 184.9596405029297 C 95.41850280761719 147.85946655273438 108.47590637207031 146.91510009765625 147.91278076171875 154.45303344726562" stroke-width="3.0" fill="none" stroke="rgb(0, 0, 0)" stroke-opacity="1.0" stroke-linecap="round" stroke-linejoin="round"/>
    <path d="M 81.60664367675781 34.226871490478516 C 94.73403930664062 71.73680877685547 96.7950439453125 21.103561401367188 74.08218383789062 81.20228576660156" stroke-width="3.0" fill="none" stroke="rgb(0, 0, 0)" stroke-opacity="1.0" stroke-linecap="round" stroke-linejoin="round"/>
    <path d="M 140.212158203125 151.75119018554688 C 224.6864013671875 175.56182861328125 123.72635650634766 151.1742401123047 153.8633575439453 188.8607940673828" stroke-width="3.0" fill="none" stroke="rgb(0, 0, 0)" stroke-opacity="1.0" stroke-linecap="round" stroke-linejoin="round"/>
    <path d="M 114.77871704101562 116.4287338256836 C 112.18693542480469 165.95811462402344 131.98114013671875 125.76445770263672 92.95431518554688 121.01263427734375" stroke-width="3.0" fill="none" stroke="rgb(0, 0, 0)" stroke-opacity="1.0" stroke-linecap="round" stroke-linejoin="round"/>
    <path d="M 177.90060424804688 51.92131423950195 C 169.19772338867188 54.17058563232422 193.6481475830078 5.50523042678833 162.96182250976562 62.6185188293457" stroke-width="3.0" fill="none" stroke="rgb(0, 0, 0)" stroke-opacity="1.0" stroke-linecap="round" stroke-linejoin="round"/>
    <path d="M 78.28128051757812 44.64287567138672 C 68.98433685302734 57.53306198120117 82.89727783203125 41.80903244018555 56.02733612060547 113.45657348632812" stroke-width="3.0" fill="none" stroke="rgb(0, 0, 0)" stroke-opacity="1.0" stroke-linecap="round" stroke-linejoin="round"/>
  </g>
</svg>
