<?xml version="1.0" ?>
<svg xmlns="http://www.w3.org/2000/svg" version="1.1" width="224" height="224">
  <defs/>
  <g>
    <path d="M 115.23043823242188 104.38080596923828 C 97.65299987792969 107.78726959228516 55.459747314453125 94.23262023925781 110.87857055664062 97.59783935546875" stroke-width="3.0" fill="none" stroke="rgb(0, 0, 0)" stroke-opacity="1.0" stroke-linecap="round" stroke-linejoin="round"/>
    <path d="M 88.620361328125 126.56219482421875 C 143.83486938476562 134.34825134277344 101.90125274658203 115.21038818359375 118.653076171875 99.65412902832031" stroke-width="3.0" fill="none" stroke="rgb(0, 0, 0)" stroke-opacity="1.0" stroke-linecap="round" stroke-linejoin="round"/>
    <path d="M 99.75749206542969 104.4953384399414 C 103.28982543945312 107.10107421875 128.3253936767578 98.36206817626953 111.30257415771484 159.5993194580078" stroke-width="3.0" fill="none" stroke="rgb(0, 0, 0)" stroke-opacity="1.0" stroke-linecap="round" stroke-linejoin="round"/>
    <path d="M 118.01917266845703 71.85188293457031 C 116.31615447998047 105.61316680908203 106.38702392578125 98.32331848144531 114.0119400024414 96.11735534667969" stroke-width="3.0" fill="none" stroke="rgb(0, 0, 0)" stroke-opacity="1.0" stroke-linecap="round" stroke-linejoin="round"/>
    <path d="M 97.90892791748047 59.833656311035156 C 99.49809265136719 92.08747100830078 92.43556213378906 39.66840744018555 82.87161254882812 97.75827026367188" stroke-width="3.0" fill="none" stroke="rgb(0, 0, 0)" stroke-opacity="1.0" stroke-linecap="round" stroke-linejoin="round"/>
    <path d="M 88.50965118408203 130.8518524169922 C 91.90528106689453 173.0573272705078 92.69805908203125 141.1433563232422 88.8924560546875 174.48245239257812" stroke-width="3.0" fill="none" stroke="rgb(0, 0, 0)" stroke-opacity="1.0" stroke-linecap="round" stroke-linejoin="round"/>
    <path d="M 119.4151382446289 99.9036636352539 C 123.6447982788086 56.818973541259766 119.27645111083984 78.52043151855469 112.86177062988281 66.90715789794922" stroke-width="3.0" fill="none" stroke="rgb(0, 0, 0)" stroke-opacity="1.0" stroke-linecap="round" stroke-linejoin="round"/>
    <path d="M 106.5315170288086 193.33567810058594 C 114.59420776367188 238.1796112060547 101.44638061523438 200.0175018310547 108.1847152709961 211.2554168701172" stroke-width="3.0" fill="none" stroke="rgb(0, 0, 0)" stroke-opacity="1.0" stroke-linecap="round" stroke-linejoin="round"/>
    <path d="M 88.21493530273438 170.2864990234375 C 92.97266387939453 227.36233520507812 80.42503356933594 202.6739044189453 91.56328582763672 209.14541625976562" stroke-width="3.0" fill="none" stroke="rgb(0, 0, 0)" stroke-opacity="1.0" stroke-linecap="round" stroke-linejoin="round"/>
    <path d="M 105.92925262451172 37.45030212402344 C 128.59173583984375 73.5179443359375 83.5632095336914 59.342288970947266 92.71980285644531 56.68202209472656" stroke-width="3.0" fill="none" stroke="rgb(0, 0, 0)" stroke-opacity="1.0" stroke-linecap="round" stroke-linejoin="round"/>
    <path d="M 112.669921875 151.7572784423828 C 109.1402587890625 176.7158203125 110.81282806396484 157.31280517578125 105.4773941040039 130.50698852539062" stroke-width="3.0" fill="none" stroke="rgb(0, 0, 0)" stroke-opacity="1.0" stroke-linecap="round" stroke-linejoin="round"/>
    <path d="M 85.53201293945312 74.07717895507812 C 86.51200103759766 105.4703598022461 97.53265380859375 101.92967224121094 84.84809112548828 86.04401397705078" stroke-width="3.0" fill="none" stroke="rgb(0, 0, 0)" stroke-opacity="1.0" stroke-linecap="round" stroke-linejoin="round"/>
    <path d="M 88.19366455078125 122.52501678466797 C 96.06231689453125 101.0296401977539 80.37117004394531 107.87158203125 115.44368743896484 112.05770111083984" stroke-width="3.0" fill="none" stroke="rgb(0, 0, 0)" stroke-opacity="1.0" stroke-linecap="round" stroke-linejoin="round"/>
    <path d="M 108.16463470458984 154.02757263183594 C 114.19641876220703 172.29754638671875 99.94859313964844 220.43528747558594 106.7082748413086 213.66014099121094" stroke-width="3.0" fill="none" stroke="rgb(0, 0, 0)" stroke-opacity="1.0" stroke-linecap="round" stroke-linejoin="round"/>
    <path d="M 101.70587158203125 68.48844146728516 C 71.85166931152344 21.792377471923828 132.13577270507812 40.591304779052734 106.96919250488281 50.18341827392578" stroke-width="3.0" fill="none" stroke="rgb(0, 0, 0)" stroke-opacity="1.0" stroke-linecap="round" stroke-linejoin="round"/>
    <path d="M 98.35612487792969 49.991085052490234 C 81.62377166748047 44.31501388549805 131.24386596679688 28.203092575073242 105.6097640991211 67.85112762451172" stroke-width="3.0" fill="none" stroke="rgb(0, 0, 0)" stroke-opacity="1.0" stroke-linecap="round" stroke-linejoin="round"/>
  </g>
</svg>
