<?xml version="1.0" ?>
<svg xmlns="http://www.w3.org/2000/svg" version="1.1" width="224" height="224">
  <defs/>
  <g>
    <path d="M 92.77578735351562 89.2555160522461 C 115.6065673828125 61.798458099365234 112.74024963378906 119.52526092529297 86.9183120727539 148.80621337890625" stroke-width="3.0" fill="none" stroke="rgb(0, 0, 0)" stroke-opacity="1.0" stroke-linecap="round" stroke-linejoin="round"/>
    <path d="M 142.70155334472656 150.00173950195312 C 105.27040100097656 162.86770629882812 101.49067687988281 169.93252563476562 110.95762634277344 128.7251434326172" stroke-width="3.0" fill="none" stroke="rgb(0, 0, 0)" stroke-opacity="1.0" stroke-linecap="round" stroke-linejoin="round"/>
    <path d="M 145.34237670898438 145.8649139404297 C 143.56190490722656 129.25462341308594 146.7809295654297 110.85065460205078 139.01585388183594 126.44906616210938" stroke-width="3.0" fill="none" stroke="rgb(0, 0, 0)" stroke-opacity="1.0" stroke-linecap="round" stroke-linejoin="round"/>
    <path d="M 28.142892837524414 81.22738647460938 C 16.189983367919922 121.5318603515625 32.84917449951172 142.85214233398438 25.46830177307129 146.28819274902344" stroke-width="3.0" fill="none" stroke="rgb(0, 0, 0)" stroke-opacity="1.0" stroke-linecap="round" stroke-linejoin="round"/>
    <path d="M 193.5833282470703 137.68765258789062 C 203.12376403808594 134.8823699951172 192.39382934570312 138.353759765625 203.1533660888672 136.29055786132812" stroke-width="3.0" fill="none" stroke="rgb(0, 0, 0)" stroke-opacity="1.0" stroke-linecap="round" stroke-linejoin="round"/>
    <path d="M 144.94277954101562 131.6449432373047 C 136.44070434570312 146.6195831298828 151.9378662109375 144.00962829589844 143.68930053710938 141.5774688720703" stroke-width="3.0" fill="none" stroke="rgb(0, 0, 0)" stroke-opacity="1.0" stroke-linecap="round" stroke-linejoin="round"/>
    <path d="M 100.28486633300781 90.51457214355469 C 121.32262420654297 91.87571716308594 89.69340515136719 69.04434204101562 97.90570068359375 83.06976318359375" stroke-width="3.0" fill="none" stroke="rgb(0, 0, 0)" stroke-opacity="1.0" stroke-linecap="round" stroke-linejoin="round"/>
    <path d="M 179.9000701904297 178.80540466308594 C 143.0354766845703 207.6123504638672 175.3839569091797 194.16514587402344 115.78555297851562 206.4999542236328" stroke-width="3.0" fill="none" stroke="rgb(0, 0, 0)" stroke-opacity="1.0" stroke-linecap="round" stroke-linejoin="round"/>
    <path d="M 109.39556121826172 206.01654052734375 C 78.49913024902344 202.56103515625 45.790157318115234 193.86134338378906 27.649261474609375 136.570068359375" stroke-width="3.0" fill="none" stroke="rgb(0, 0, 0)" stroke-opacity="1.0" stroke-linecap="round" stroke-linejoin="round"/>
    <path d="M 98.49235534667969 83.52223205566406 C 64.15377044677734 74.42598724365234 97.4438705444336 86.2293930053711 88.42992401123047 98.95149230957031" stroke-width="3.0" fill="none" stroke="rgb(0, 0, 0)" stroke-opacity="1.0" stroke-linecap="round" stroke-linejoin="round"/>
    <path d="M 18.113866806030273 110.56488800048828 C 16.720333099365234 173.85865783691406 60.4647216796875 192.48793029785156 58.89362716674805 189.33999633789062" stroke-width="3.0" fill="none" stroke="rgb(0, 0, 0)" stroke-opacity="1.0" stroke-linecap="round" stroke-linejoin="round"/>
    <path d="M 96.2306137084961 115.55670928955078 C 121.60826110839844 80.2073974609375 88.62925720214844 153.92274475097656 86.4973373413086 87.91132354736328" stroke-width="3.0" fill="none" stroke="rgb(0, 0, 0)" stroke-opacity="1.0" stroke-linecap="round" stroke-linejoin="round"/>
    <path d="M 132.53070068359375 146.33302307128906 C 122.95246887207031 141.86859130859375 169.61204528808594 100.3778305053711 113.73758697509766 93.71517181396484" stroke-width="3.0" fill="none" stroke="rgb(0, 0, 0)" stroke-opacity="1.0" stroke-linecap="round" stroke-linejoin="round"/>
    <path d="M 187.20199584960938 167.48777770996094 C 164.82992553710938 193.4761199951172 203.9340362548828 166.2528076171875 207.64398193359375 116.48699188232422" stroke-width="3.0" fill="none" stroke="rgb(0, 0, 0)" stroke-opacity="1.0" stroke-linecap="round" stroke-linejoin="round"/>
    <path d="M 18.344104766845703 103.87602233886719 C 23.862031936645508 57.10517120361328 51.88943862915039 33.228511810302734 36.2977180480957 61.5928840637207" stroke-width="3.0" fill="none" stroke="rgb(0, 0, 0)" stroke-opacity="1.0" stroke-linecap="round" stroke-linejoin="round"/>
    <path d="M 38.59611129760742 49.91100311279297 C 105.65943145751953 -25.111534118652344 216.37557983398438 32.45395278930664 208.2059783935547 121.1719741821289" stroke-width="3.0" fill="none" stroke="rgb(0, 0, 0)" stroke-opacity="1.0" stroke-linecap="round" stroke-linejoin="round"/>
  </g>
</svg>
