<?xml version="1.0" ?>
<svg xmlns="http://www.w3.org/2000/svg" version="1.1" width="512" height="512">
  <defs/>
  <g>
    <rect x="0.0" y="0.0" width="512.0" height="512.0" stroke-width="2.0" fill="rgb(255, 255, 255)" opacity="1"/>
    <path d="M 222.33306884765625 382.4036865234375 Q 222.3594207763672 382.3778991699219 222.35159301757812 382.3875732421875" stroke-width="6.89661169052124" fill="none" stroke="rgb(0, 0, 0)" stroke-opacity="1" stroke-linecap="round" stroke-linejoin="round"/>
    <path d="M 481.5504150390625 289.3190612792969 Q 477.34130859375 298.40777587890625 477.3406677246094 298.40771484375" stroke-width="1.0" fill="none" stroke="rgb(0, 0, 0)" stroke-opacity="1" stroke-linecap="round" stroke-linejoin="round"/>
    <path d="M 347.0758361816406 325.4895935058594 Q 357.050048828125 327.8428955078125 350.7720947265625 330.0718994140625" stroke-width="2.321922540664673" fill="none" stroke="rgb(0, 0, 0)" stroke-opacity="1" stroke-linecap="round" stroke-linejoin="round"/>
    <path d="M 428.09356689453125 326.2765808105469 Q 428.0721130371094 326.6587829589844 428.4729919433594 335.45391845703125" stroke-width="2.1037983894348145" fill="none" stroke="rgb(0, 0, 0)" stroke-opacity="1" stroke-linecap="round" stroke-linejoin="round"/>
    <path d="M 102.10934448242188 320.23175048828125 Q 94.52587127685547 315.4296875 90.16263580322266 313.86334228515625" stroke-width="5.854055404663086" fill="none" stroke="rgb(0, 0, 0)" stroke-opacity="1" stroke-linecap="round" stroke-linejoin="round"/>
    <path d="M 490.4535827636719 48.151817321777344 Q 490.483642578125 72.13349151611328 490.4654235839844 72.143798828125" stroke-width="2.900343894958496" fill="none" stroke="rgb(0, 0, 0)" stroke-opacity="1" stroke-linecap="round" stroke-linejoin="round"/>
    <path d="M 183.91268920898438 483.4410705566406 Q 182.1715545654297 483.44744873046875 182.1677703857422 483.4374694824219" stroke-width="1.7342369556427002" fill="none" stroke="rgb(0, 0, 0)" stroke-opacity="1" stroke-linecap="round" stroke-linejoin="round"/>
    <path d="M 73.73237609863281 360.4075622558594 Q 73.73939514160156 360.4003601074219 95.6562728881836 366.936279296875" stroke-width="6.420061111450195" fill="none" stroke="rgb(0, 0, 0)" stroke-opacity="1" stroke-linecap="round" stroke-linejoin="round"/>
    <path d="M 219.1067657470703 423.4573974609375 Q 219.07968139648438 423.46295166015625 219.04391479492188 423.4728698730469" stroke-width="7.900886058807373" fill="none" stroke="rgb(0, 0, 0)" stroke-opacity="1" stroke-linecap="round" stroke-linejoin="round"/>
    <path d="M 7.918112277984619 476.1363830566406 Q 7.9221086502075195 476.1444396972656 7.909709453582764 476.13714599609375" stroke-width="2.815894842147827" fill="none" stroke="rgb(0, 0, 0)" stroke-opacity="1" stroke-linecap="round" stroke-linejoin="round"/>
    <path d="M 271.6411437988281 3.806724786758423 Q 271.76385498046875 3.7985081672668457 271.76287841796875 3.802138566970825" stroke-width="1.0" fill="none" stroke="rgb(0, 0, 0)" stroke-opacity="1" stroke-linecap="round" stroke-linejoin="round"/>
    <path d="M 305.737548828125 247.51295471191406 Q 301.983154296875 260.2763977050781 301.9642028808594 260.2800598144531" stroke-width="1.0" fill="none" stroke="rgb(0, 0, 0)" stroke-opacity="1" stroke-linecap="round" stroke-linejoin="round"/>
    <path d="M 268.74603271484375 441.12078857421875 Q 268.7747802734375 441.1208190917969 268.76165771484375 441.11053466796875" stroke-width="3.7110280990600586" fill="none" stroke="rgb(0, 0, 0)" stroke-opacity="1" stroke-linecap="round" stroke-linejoin="round"/>
    <path d="M 376.9330749511719 41.05891418457031 Q 379.3720397949219 46.76152038574219 381.8601379394531 36.06874465942383" stroke-width="1.0738725662231445" fill="none" stroke="rgb(0, 0, 0)" stroke-opacity="1" stroke-linecap="round" stroke-linejoin="round"/>
    <path d="M 10.71662712097168 221.16360473632812 Q 18.382905960083008 200.05284118652344 14.244863510131836 217.87391662597656" stroke-width="1.7325835227966309" fill="none" stroke="rgb(0, 0, 0)" stroke-opacity="1" stroke-linecap="round" stroke-linejoin="round"/>
    <path d="M 427.0242919921875 403.3250427246094 Q 427.0169982910156 403.3184509277344 427.0519104003906 403.3191223144531" stroke-width="2.2710113525390625" fill="none" stroke="rgb(0, 0, 0)" stroke-opacity="1" stroke-linecap="round" stroke-linejoin="round"/>
    <path d="M 285.62347412109375 168.8236541748047 Q 285.6349182128906 168.8153533935547 285.63848876953125 168.78872680664062" stroke-width="3.86767578125" fill="none" stroke="rgb(0, 0, 0)" stroke-opacity="1" stroke-linecap="round" stroke-linejoin="round"/>
    <path d="M 338.3993225097656 374.18768310546875 Q 330.98077392578125 370.447998046875 330.97369384765625 370.4588928222656" stroke-width="3.21950101852417" fill="none" stroke="rgb(0, 0, 0)" stroke-opacity="1" stroke-linecap="round" stroke-linejoin="round"/>
    <path d="M 509.4916687011719 479.8722839355469 Q 506.8134765625 484.6048889160156 506.4989318847656 484.9943542480469" stroke-width="7.903895378112793" fill="none" stroke="rgb(0, 0, 0)" stroke-opacity="1" stroke-linecap="round" stroke-linejoin="round"/>
    <path d="M 340.0186462402344 264.4489440917969 Q 334.07257080078125 275.986083984375 351.76324462890625 281.8460693359375" stroke-width="2.0307607650756836" fill="none" stroke="rgb(0, 0, 0)" stroke-opacity="1" stroke-linecap="round" stroke-linejoin="round"/>
    <path d="M 71.91871643066406 93.46757507324219 Q 71.92963409423828 93.45861053466797 71.91758728027344 93.4703598022461" stroke-width="3.2606327533721924" fill="none" stroke="rgb(0, 0, 0)" stroke-opacity="1" stroke-linecap="round" stroke-linejoin="round"/>
    <path d="M 380.3063049316406 314.6841125488281 Q 380.32635498046875 314.6824035644531 380.31317138671875 314.68353271484375" stroke-width="2.1289923191070557" fill="none" stroke="rgb(0, 0, 0)" stroke-opacity="1" stroke-linecap="round" stroke-linejoin="round"/>
    <path d="M 131.48678588867188 388.51202392578125 Q 133.7666778564453 382.6186828613281 138.82740783691406 380.1215515136719" stroke-width="1.7236833572387695" fill="none" stroke="rgb(0, 0, 0)" stroke-opacity="1" stroke-linecap="round" stroke-linejoin="round"/>
    <path d="M 350.6481018066406 285.39703369140625 Q 350.5111389160156 281.1676940917969 350.4992370605469 281.1543273925781" stroke-width="1.3071024417877197" fill="none" stroke="rgb(0, 0, 0)" stroke-opacity="1" stroke-linecap="round" stroke-linejoin="round"/>
    <path d="M 139.39356994628906 129.2615509033203 Q 139.39784240722656 129.26193237304688 139.41525268554688 129.26870727539062" stroke-width="3.2663280963897705" fill="none" stroke="rgb(0, 0, 0)" stroke-opacity="1" stroke-linecap="round" stroke-linejoin="round"/>
    <path d="M 473.9371643066406 305.18072509765625 Q 484.7240295410156 298.5040283203125 484.72674560546875 298.4746398925781" stroke-width="2.0707614421844482" fill="none" stroke="rgb(0, 0, 0)" stroke-opacity="1" stroke-linecap="round" stroke-linejoin="round"/>
    <path d="M 245.76075744628906 406.94696044921875 Q 245.76995849609375 402.3946533203125 245.79098510742188 402.3765869140625" stroke-width="6.3481645584106445" fill="none" stroke="rgb(0, 0, 0)" stroke-opacity="1" stroke-linecap="round" stroke-linejoin="round"/>
    <path d="M 293.4165954589844 210.25045776367188 Q 293.4073486328125 210.25894165039062 293.4449768066406 210.25721740722656" stroke-width="5.40155029296875" fill="none" stroke="rgb(0, 0, 0)" stroke-opacity="1" stroke-linecap="round" stroke-linejoin="round"/>
    <path d="M 78.34883880615234 369.58087158203125 Q 78.32759094238281 369.5755615234375 78.32418823242188 369.58612060546875" stroke-width="2.1882596015930176" fill="none" stroke="rgb(0, 0, 0)" stroke-opacity="1" stroke-linecap="round" stroke-linejoin="round"/>
    <path d="M 231.30636596679688 29.29593849182129 Q 239.75547790527344 34.3913688659668 254.42471313476562 22.570003509521484" stroke-width="2.62685489654541" fill="none" stroke="rgb(0, 0, 0)" stroke-opacity="1" stroke-linecap="round" stroke-linejoin="round"/>
    <path d="M 27.056503295898438 391.7525939941406 Q 21.164995193481445 386.880615234375 20.613136291503906 385.9735107421875" stroke-width="4.564226150512695" fill="none" stroke="rgb(0, 0, 0)" stroke-opacity="1" stroke-linecap="round" stroke-linejoin="round"/>
    <path d="M 243.3643035888672 298.6955261230469 Q 230.2891082763672 271.921875 230.29489135742188 271.92236328125" stroke-width="5.451884746551514" fill="none" stroke="rgb(0, 0, 0)" stroke-opacity="1" stroke-linecap="round" stroke-linejoin="round"/>
    <path d="M 139.4991455078125 309.63653564453125 Q 148.66542053222656 303.96044921875 163.5254669189453 305.8343811035156" stroke-width="6.96439266204834" fill="none" stroke="rgb(0, 0, 0)" stroke-opacity="1" stroke-linecap="round" stroke-linejoin="round"/>
    <path d="M 317.7820739746094 229.22451782226562 Q 317.7860107421875 229.24542236328125 332.6350402832031 238.55079650878906" stroke-width="4.435137748718262" fill="none" stroke="rgb(0, 0, 0)" stroke-opacity="1" stroke-linecap="round" stroke-linejoin="round"/>
    <path d="M 390.69976806640625 107.5980224609375 Q 390.69219970703125 107.58626556396484 390.4232177734375 107.33697509765625" stroke-width="3.102254629135132" fill="none" stroke="rgb(0, 0, 0)" stroke-opacity="1" stroke-linecap="round" stroke-linejoin="round"/>
    <path d="M 270.0315246582031 41.67026138305664 Q 267.6328125 25.937429428100586 249.9945068359375 44.58648681640625" stroke-width="1.0" fill="none" stroke="rgb(0, 0, 0)" stroke-opacity="1" stroke-linecap="round" stroke-linejoin="round"/>
    <path d="M 91.01536560058594 434.3621826171875 Q 91.01358032226562 434.36053466796875 80.43922424316406 430.1356201171875" stroke-width="4.187252998352051" fill="none" stroke="rgb(0, 0, 0)" stroke-opacity="1" stroke-linecap="round" stroke-linejoin="round"/>
    <path d="M 219.3511962890625 490.5470886230469 Q 217.6016387939453 483.666259765625 217.5894317626953 483.637939453125" stroke-width="3.3916609287261963" fill="none" stroke="rgb(0, 0, 0)" stroke-opacity="1" stroke-linecap="round" stroke-linejoin="round"/>
    <path d="M 436.2172546386719 133.3192901611328 Q 436.20794677734375 133.31689453125 435.2417907714844 115.20496368408203" stroke-width="2.131042718887329" fill="none" stroke="rgb(0, 0, 0)" stroke-opacity="1" stroke-linecap="round" stroke-linejoin="round"/>
    <path d="M 288.62884521484375 390.3109130859375 Q 288.6236572265625 390.3186950683594 275.2386779785156 384.14898681640625" stroke-width="1.0" fill="none" stroke="rgb(0, 0, 0)" stroke-opacity="1" stroke-linecap="round" stroke-linejoin="round"/>
    <path d="M 407.546630859375 84.2088623046875 Q 407.547119140625 84.21119689941406 393.6355895996094 77.63396453857422" stroke-width="3.033428430557251" fill="none" stroke="rgb(0, 0, 0)" stroke-opacity="1" stroke-linecap="round" stroke-linejoin="round"/>
    <path d="M 424.93365478515625 28.72012710571289 Q 413.589599609375 30.80452537536621 437.26031494140625 33.92275619506836" stroke-width="2.076892375946045" fill="none" stroke="rgb(0, 0, 0)" stroke-opacity="1" stroke-linecap="round" stroke-linejoin="round"/>
    <path d="M 351.001953125 159.79624938964844 Q 350.999267578125 159.79608154296875 351.00262451171875 159.7534942626953" stroke-width="3.8681728839874268" fill="none" stroke="rgb(0, 0, 0)" stroke-opacity="1" stroke-linecap="round" stroke-linejoin="round"/>
    <path d="M 169.34085083007812 310.2197265625 Q 164.5594482421875 310.2886962890625 167.71971130371094 313.59564208984375" stroke-width="6.835505962371826" fill="none" stroke="rgb(0, 0, 0)" stroke-opacity="1" stroke-linecap="round" stroke-linejoin="round"/>
    <path d="M 424.6134033203125 367.110107421875 Q 423.7990417480469 354.48016357421875 423.7880859375 354.47821044921875" stroke-width="1.3860359191894531" fill="none" stroke="rgb(0, 0, 0)" stroke-opacity="1" stroke-linecap="round" stroke-linejoin="round"/>
    <path d="M 220.62759399414062 248.83404541015625 Q 220.6492156982422 248.64967346191406 223.26051330566406 240.81785583496094" stroke-width="3.958956003189087" fill="none" stroke="rgb(0, 0, 0)" stroke-opacity="1" stroke-linecap="round" stroke-linejoin="round"/>
    <path d="M 487.4051513671875 177.0110626220703 Q 487.4173583984375 177.00184631347656 487.4625549316406 177.40469360351562" stroke-width="1.8991533517837524" fill="none" stroke="rgb(0, 0, 0)" stroke-opacity="1" stroke-linecap="round" stroke-linejoin="round"/>
    <path d="M 121.8419418334961 54.78001022338867 Q 121.84902954101562 54.774776458740234 114.98706817626953 35.75068664550781" stroke-width="2.3778347969055176" fill="none" stroke="rgb(0, 0, 0)" stroke-opacity="1" stroke-linecap="round" stroke-linejoin="round"/>
    <path d="M 455.8794860839844 190.80908203125 Q 455.8858642578125 190.8248748779297 455.8848571777344 190.81881713867188" stroke-width="2.243335247039795" fill="none" stroke="rgb(0, 0, 0)" stroke-opacity="1" stroke-linecap="round" stroke-linejoin="round"/>
    <path d="M 190.49462890625 255.45387268066406 Q 190.4925079345703 255.46282958984375 216.94134521484375 254.11036682128906" stroke-width="3.8649468421936035" fill="none" stroke="rgb(0, 0, 0)" stroke-opacity="1" stroke-linecap="round" stroke-linejoin="round"/>
    <path d="M 366.6270446777344 299.5031433105469 Q 366.6111145019531 299.4946594238281 365.49029541015625 286.5247802734375" stroke-width="3.7739996910095215" fill="none" stroke="rgb(0, 0, 0)" stroke-opacity="1" stroke-linecap="round" stroke-linejoin="round"/>
    <path d="M 453.24090576171875 371.72210693359375 Q 454.3858642578125 371.65234375 454.3998718261719 371.67657470703125" stroke-width="2.476747751235962" fill="none" stroke="rgb(0, 0, 0)" stroke-opacity="1" stroke-linecap="round" stroke-linejoin="round"/>
    <path d="M 281.9847106933594 390.80303955078125 Q 281.38812255859375 380.6593322753906 265.97674560546875 358.65301513671875" stroke-width="3.918720006942749" fill="none" stroke="rgb(0, 0, 0)" stroke-opacity="1" stroke-linecap="round" stroke-linejoin="round"/>
    <path d="M 247.50067138671875 338.9022216796875 Q 227.5240020751953 312.00543212890625 227.27767944335938 311.1097412109375" stroke-width="5.705482006072998" fill="none" stroke="rgb(0, 0, 0)" stroke-opacity="1" stroke-linecap="round" stroke-linejoin="round"/>
    <path d="M 164.4782257080078 308.1744384765625 Q 160.53005981445312 301.7947692871094 157.54595947265625 310.65777587890625" stroke-width="5.113156318664551" fill="none" stroke="rgb(0, 0, 0)" stroke-opacity="1" stroke-linecap="round" stroke-linejoin="round"/>
    <path d="M 237.29495239257812 453.341064453125 Q 237.2450714111328 453.37493896484375 217.1909942626953 458.42724609375" stroke-width="1.0391665697097778" fill="none" stroke="rgb(0, 0, 0)" stroke-opacity="1" stroke-linecap="round" stroke-linejoin="round"/>
    <path d="M 446.3106994628906 254.549560546875 Q 446.3075866699219 254.55807495117188 446.2994079589844 254.55645751953125" stroke-width="3.2587976455688477" fill="none" stroke="rgb(0, 0, 0)" stroke-opacity="1" stroke-linecap="round" stroke-linejoin="round"/>
    <path d="M 497.06396484375 175.1780548095703 Q 496.08544921875 174.85198974609375 496.6072692871094 174.64906311035156" stroke-width="1.4692490100860596" fill="none" stroke="rgb(0, 0, 0)" stroke-opacity="1" stroke-linecap="round" stroke-linejoin="round"/>
    <path d="M 62.366764068603516 346.69464111328125 Q 60.43000030517578 359.3562316894531 59.864959716796875 351.0162048339844" stroke-width="1.9248237609863281" fill="none" stroke="rgb(0, 0, 0)" stroke-opacity="1" stroke-linecap="round" stroke-linejoin="round"/>
    <path d="M 20.354747772216797 243.3590850830078 Q 12.568889617919922 244.1685028076172 12.57194709777832 244.17266845703125" stroke-width="1.6841790676116943" fill="none" stroke="rgb(0, 0, 0)" stroke-opacity="1" stroke-linecap="round" stroke-linejoin="round"/>
    <path d="M 487.2358703613281 493.11529541015625 Q 488.55767822265625 475.96356201171875 487.9977111816406 474.322509765625" stroke-width="6.814879417419434" fill="none" stroke="rgb(0, 0, 0)" stroke-opacity="1" stroke-linecap="round" stroke-linejoin="round"/>
    <path d="M 464.90521240234375 0.0 Q 464.92041015625 0.0 456.2855224609375 0.0" stroke-width="1.0" fill="none" stroke="rgb(0, 0, 0)" stroke-opacity="1" stroke-linecap="round" stroke-linejoin="round"/>
    <path d="M 136.24896240234375 455.7752685546875 Q 136.25106811523438 455.7635803222656 136.24842834472656 455.7659606933594" stroke-width="4.100950241088867" fill="none" stroke="rgb(0, 0, 0)" stroke-opacity="1" stroke-linecap="round" stroke-linejoin="round"/>
    <path d="M 100.43440246582031 235.01702880859375 Q 74.13610076904297 248.01937866210938 74.07351684570312 248.04351806640625" stroke-width="5.213257312774658" fill="none" stroke="rgb(0, 0, 0)" stroke-opacity="1" stroke-linecap="round" stroke-linejoin="round"/>
  </g>
</svg>
