<?xml version="1.0" ?>
<svg xmlns="http://www.w3.org/2000/svg" version="1.1" width="224" height="224">
  <defs/>
  <g>
    <path d="M 109.7425308227539 180.04647827148438 C 102.52090454101562 146.90524291992188 106.03800201416016 156.89744567871094 92.61181640625 124.77911376953125" stroke-width="3.0" fill="none" stroke="rgb(0, 0, 0)" stroke-opacity="1.0" stroke-linecap="round" stroke-linejoin="round"/>
    <path d="M 126.41864776611328 153.50979614257812 C 124.68257141113281 111.10961151123047 128.21875 132.3206787109375 127.2120361328125 173.75094604492188" stroke-width="3.0" fill="none" stroke="rgb(0, 0, 0)" stroke-opacity="1.0" stroke-linecap="round" stroke-linejoin="round"/>
    <path d="M 43.000667572021484 171.84478759765625 C 44.70317077636719 155.94985961914062 44.67646408081055 144.54176330566406 43.595340728759766 164.90914916992188" stroke-width="3.0" fill="none" stroke="rgb(0, 0, 0)" stroke-opacity="1.0" stroke-linecap="round" stroke-linejoin="round"/>
    <path d="M 125.29784393310547 119.52558135986328 C 127.94943237304688 140.3385009765625 136.9931640625 138.5200958251953 126.36344909667969 160.11976623535156" stroke-width="3.0" fill="none" stroke="rgb(0, 0, 0)" stroke-opacity="1.0" stroke-linecap="round" stroke-linejoin="round"/>
    <path d="M 58.56401824951172 127.39020538330078 C 75.6791000366211 85.387451171875 59.45711135864258 98.0174789428711 63.27767562866211 110.9360580444336" stroke-width="3.0" fill="none" stroke="rgb(0, 0, 0)" stroke-opacity="1.0" stroke-linecap="round" stroke-linejoin="round"/>
    <path d="M 124.2283706665039 106.60197448730469 C 133.65577697753906 135.00257873535156 118.50956726074219 139.9003448486328 127.00994873046875 114.36371612548828" stroke-width="3.0" fill="none" stroke="rgb(0, 0, 0)" stroke-opacity="1.0" stroke-linecap="round" stroke-linejoin="round"/>
    <path d="M 58.30217742919922 125.41712951660156 C 68.60823059082031 95.22280883789062 46.7801399230957 88.11734771728516 61.26054000854492 116.6036605834961" stroke-width="3.0" fill="none" stroke="rgb(0, 0, 0)" stroke-opacity="1.0" stroke-linecap="round" stroke-linejoin="round"/>
    <path d="M 200.6754150390625 176.8858642578125 C 202.3527374267578 185.78579711914062 201.58116149902344 189.10626220703125 121.5604019165039 185.9189910888672" stroke-width="3.0" fill="none" stroke="rgb(0, 0, 0)" stroke-opacity="1.0" stroke-linecap="round" stroke-linejoin="round"/>
    <path d="M 131.5230712890625 187.16651916503906 C 127.43013000488281 197.25987243652344 138.9928436279297 194.75453186035156 60.88254928588867 190.05274963378906" stroke-width="3.0" fill="none" stroke="rgb(0, 0, 0)" stroke-opacity="1.0" stroke-linecap="round" stroke-linejoin="round"/>
    <path d="M 35.227596282958984 86.42269134521484 C 54.990997314453125 88.96009826660156 64.95996856689453 109.449951171875 59.61336898803711 117.6711196899414" stroke-width="3.0" fill="none" stroke="rgb(0, 0, 0)" stroke-opacity="1.0" stroke-linecap="round" stroke-linejoin="round"/>
    <path d="M 99.76246643066406 182.4325714111328 C 149.3329620361328 187.3275146484375 120.41096496582031 187.29385375976562 130.0043487548828 181.69322204589844" stroke-width="3.0" fill="none" stroke="rgb(0, 0, 0)" stroke-opacity="1.0" stroke-linecap="round" stroke-linejoin="round"/>
    <path d="M 127.07492065429688 177.38059997558594 C 122.12705993652344 142.38656616210938 136.27639770507812 169.48336791992188 124.67428588867188 104.26256561279297" stroke-width="3.0" fill="none" stroke="rgb(0, 0, 0)" stroke-opacity="1.0" stroke-linecap="round" stroke-linejoin="round"/>
    <path d="M 42.87478256225586 162.45816040039062 C 49.48358917236328 117.25396728515625 63.686668395996094 143.7628173828125 63.24287796020508 99.79305267333984" stroke-width="3.0" fill="none" stroke="rgb(0, 0, 0)" stroke-opacity="1.0" stroke-linecap="round" stroke-linejoin="round"/>
    <path d="M 27.76311492919922 167.60829162597656 C 33.9966926574707 178.41062927246094 53.650917053222656 191.4100799560547 42.547157287597656 183.8548126220703" stroke-width="3.0" fill="none" stroke="rgb(0, 0, 0)" stroke-opacity="1.0" stroke-linecap="round" stroke-linejoin="round"/>
    <path d="M 52.173377990722656 61.53011703491211 C 93.5378646850586 72.34918212890625 90.26985931396484 4.903141498565674 88.40815734863281 86.70787811279297" stroke-width="3.0" fill="none" stroke="rgb(0, 0, 0)" stroke-opacity="1.0" stroke-linecap="round" stroke-linejoin="round"/>
    <path d="M 73.35551452636719 60.776954650878906 C 102.51900482177734 99.2190933227539 43.180049896240234 84.1358871459961 79.60956573486328 62.41073226928711" stroke-width="3.0" fill="none" stroke="rgb(0, 0, 0)" stroke-opacity="1.0" stroke-linecap="round" stroke-linejoin="round"/>
    <path d="M 47.2277946472168 83.4451675415039 C 36.933719635009766 10.091752052307129 51.125553131103516 83.14117431640625 90.53939056396484 70.145751953125" stroke-width="3.0" fill="none" stroke="rgb(0, 0, 0)" stroke-opacity="1.0" stroke-linecap="round" stroke-linejoin="round"/>
    <path d="M 111.82988739013672 193.42282104492188 C 38.648963928222656 208.32374572753906 36.617130279541016 179.96885681152344 47.9886589050293 139.95513916015625" stroke-width="3.0" fill="none" stroke="rgb(0, 0, 0)" stroke-opacity="1.0" stroke-linecap="round" stroke-linejoin="round"/>
    <path d="M 104.70752716064453 176.2802276611328 C 109.38656616210938 177.0668182373047 105.79322052001953 185.91156005859375 104.2158432006836 140.42367553710938" stroke-width="3.0" fill="none" stroke="rgb(0, 0, 0)" stroke-opacity="1.0" stroke-linecap="round" stroke-linejoin="round"/>
    <path d="M 126.31731414794922 171.36048889160156 C 210.922119140625 173.1107635498047 198.3484649658203 172.14068603515625 199.39804077148438 180.869873046875" stroke-width="3.0" fill="none" stroke="rgb(0, 0, 0)" stroke-opacity="1.0" stroke-linecap="round" stroke-linejoin="round"/>
    <path d="M 25.344045639038086 165.64207458496094 C 37.553016662597656 188.072265625 48.300174713134766 194.14505004882812 21.38665771484375 172.50067138671875" stroke-width="3.0" fill="none" stroke="rgb(0, 0, 0)" stroke-opacity="1.0" stroke-linecap="round" stroke-linejoin="round"/>
    <path d="M 46.438934326171875 185.78924560546875 C 36.03509521484375 145.8822479248047 46.55856704711914 140.32740783691406 60.80157470703125 118.13658142089844" stroke-width="3.0" fill="none" stroke="rgb(0, 0, 0)" stroke-opacity="1.0" stroke-linecap="round" stroke-linejoin="round"/>
    <path d="M 39.8296012878418 98.71720886230469 C 57.54659652709961 84.06755828857422 80.40401458740234 121.20177459716797 53.534523010253906 98.31771087646484" stroke-width="3.0" fill="none" stroke="rgb(0, 0, 0)" stroke-opacity="1.0" stroke-linecap="round" stroke-linejoin="round"/>
    <path d="M 45.69969940185547 181.73899841308594 C 20.471942901611328 180.81581115722656 22.791807174682617 160.4558563232422 27.743501663208008 176.01724243164062" stroke-width="3.0" fill="none" stroke="rgb(0, 0, 0)" stroke-opacity="1.0" stroke-linecap="round" stroke-linejoin="round"/>
    <path d="M 55.59346389770508 73.51685333251953 C 53.15665054321289 105.31175231933594 15.86329174041748 46.47162628173828 86.4103012084961 70.8279037475586" stroke-width="3.0" fill="none" stroke="rgb(0, 0, 0)" stroke-opacity="1.0" stroke-linecap="round" stroke-linejoin="round"/>
    <path d="M 44.65353012084961 163.9727020263672 C 55.364925384521484 120.76280212402344 113.6167221069336 131.10086059570312 93.40950012207031 175.53662109375" stroke-width="3.0" fill="none" stroke="rgb(0, 0, 0)" stroke-opacity="1.0" stroke-linecap="round" stroke-linejoin="round"/>
    <path d="M 87.17556762695312 66.29695129394531 C 83.89881896972656 102.7701187133789 48.69144821166992 60.42688751220703 90.06414031982422 45.233341217041016" stroke-width="3.0" fill="none" stroke="rgb(0, 0, 0)" stroke-opacity="1.0" stroke-linecap="round" stroke-linejoin="round"/>
    <path d="M 30.03897476196289 165.93698120117188 C 29.032819747924805 180.9993133544922 53.38955307006836 184.03402709960938 49.077598571777344 186.87200927734375" stroke-width="3.0" fill="none" stroke="rgb(0, 0, 0)" stroke-opacity="1.0" stroke-linecap="round" stroke-linejoin="round"/>
    <path d="M 127.39068603515625 144.770751953125 C 139.59100341796875 106.99358367919922 101.4460220336914 47.01312255859375 63.90480422973633 78.88726806640625" stroke-width="3.0" fill="none" stroke="rgb(0, 0, 0)" stroke-opacity="1.0" stroke-linecap="round" stroke-linejoin="round"/>
    <path d="M 67.38972473144531 82.25846099853516 C 13.307333946228027 68.06266021728516 76.92240142822266 114.86539459228516 53.40472412109375 132.1265869140625" stroke-width="3.0" fill="none" stroke="rgb(0, 0, 0)" stroke-opacity="1.0" stroke-linecap="round" stroke-linejoin="round"/>
    <path d="M 55.233741760253906 88.05844116210938 C 72.21035766601562 75.99333190917969 22.266769409179688 114.24768829345703 85.63538360595703 91.4859390258789" stroke-width="3.0" fill="none" stroke="rgb(0, 0, 0)" stroke-opacity="1.0" stroke-linecap="round" stroke-linejoin="round"/>
    <path d="M 32.00359344482422 165.97434997558594 C 27.26825714111328 158.27322387695312 -1.4727773666381836 184.11524963378906 65.31303405761719 189.60047912597656" stroke-width="3.0" fill="none" stroke="rgb(0, 0, 0)" stroke-opacity="1.0" stroke-linecap="round" stroke-linejoin="round"/>
  </g>
</svg>
