<?xml version="1.0" ?>
<svg xmlns="http://www.w3.org/2000/svg" version="1.1" width="224" height="224">
  <defs/>
  <g>
    <path d="M 95.71466064453125 144.67132568359375 C 98.26891326904297 131.52545166015625 95.14029693603516 137.57383728027344 91.96401977539062 117.40509033203125" stroke-width="3.0" fill="none" stroke="rgb(0, 0, 0)" stroke-opacity="1.0" stroke-linecap="round" stroke-linejoin="round"/>
    <path d="M 106.97341918945312 160.52621459960938 C 105.18389129638672 160.15968322753906 109.8748550415039 158.57000732421875 104.90478515625 142.76426696777344" stroke-width="3.0" fill="none" stroke="rgb(0, 0, 0)" stroke-opacity="1.0" stroke-linecap="round" stroke-linejoin="round"/>
    <path d="M 62.25241470336914 149.4684600830078 C 54.40827178955078 140.83970642089844 56.978275299072266 140.9698028564453 59.5628776550293 146.18698120117188" stroke-width="3.0" fill="none" stroke="rgb(0, 0, 0)" stroke-opacity="1.0" stroke-linecap="round" stroke-linejoin="round"/>
    <path d="M 119.85237121582031 120.88914489746094 C 118.82435607910156 130.12765502929688 111.6470718383789 131.27394104003906 112.30120849609375 144.10308837890625" stroke-width="3.0" fill="none" stroke="rgb(0, 0, 0)" stroke-opacity="1.0" stroke-linecap="round" stroke-linejoin="round"/>
    <path d="M 72.07588958740234 112.9432373046875 C 54.700645446777344 99.04010772705078 59.51882553100586 102.6337890625 67.063232421875 107.0269775390625" stroke-width="3.0" fill="none" stroke="rgb(0, 0, 0)" stroke-opacity="1.0" stroke-linecap="round" stroke-linejoin="round"/>
    <path d="M 113.11438751220703 136.16070556640625 C 110.85841369628906 146.77442932128906 110.93000793457031 149.36717224121094 113.0554428100586 141.01145935058594" stroke-width="3.0" fill="none" stroke="rgb(0, 0, 0)" stroke-opacity="1.0" stroke-linecap="round" stroke-linejoin="round"/>
    <path d="M 62.57830047607422 116.23219299316406 C 55.70640563964844 99.37627410888672 53.113338470458984 96.52360534667969 67.00395965576172 114.7886734008789" stroke-width="3.0" fill="none" stroke="rgb(0, 0, 0)" stroke-opacity="1.0" stroke-linecap="round" stroke-linejoin="round"/>
    <path d="M 165.21884155273438 182.0491485595703 C 177.80792236328125 185.56642150878906 175.63262939453125 181.1807403564453 157.62869262695312 180.77481079101562" stroke-width="3.0" fill="none" stroke="rgb(0, 0, 0)" stroke-opacity="1.0" stroke-linecap="round" stroke-linejoin="round"/>
    <path d="M 128.45846557617188 193.50392150878906 C 96.83186340332031 187.4548797607422 117.38656616210938 192.62408447265625 110.01396179199219 188.56065368652344" stroke-width="3.0" fill="none" stroke="rgb(0, 0, 0)" stroke-opacity="1.0" stroke-linecap="round" stroke-linejoin="round"/>
    <path d="M 43.25153350830078 84.30284881591797 C 68.54336547851562 112.03558349609375 77.35771179199219 105.01093292236328 65.95050811767578 106.12460327148438" stroke-width="3.0" fill="none" stroke="rgb(0, 0, 0)" stroke-opacity="1.0" stroke-linecap="round" stroke-linejoin="round"/>
    <path d="M 111.8343734741211 159.147705078125 C 131.94886779785156 164.7416229248047 128.41400146484375 160.18910217285156 131.3540802001953 172.6392364501953" stroke-width="3.0" fill="none" stroke="rgb(0, 0, 0)" stroke-opacity="1.0" stroke-linecap="round" stroke-linejoin="round"/>
    <path d="M 127.97412109375 158.53443908691406 C 135.3988037109375 137.95411682128906 128.0183563232422 123.39522552490234 120.05791473388672 94.43527221679688" stroke-width="3.0" fill="none" stroke="rgb(0, 0, 0)" stroke-opacity="1.0" stroke-linecap="round" stroke-linejoin="round"/>
    <path d="M 45.987247467041016 148.18727111816406 C 56.110496520996094 126.99197387695312 48.59503173828125 131.7927703857422 56.70475769042969 120.86263275146484" stroke-width="3.0" fill="none" stroke="rgb(0, 0, 0)" stroke-opacity="1.0" stroke-linecap="round" stroke-linejoin="round"/>
    <path d="M 34.07300567626953 183.76942443847656 C 40.3828010559082 186.5880126953125 44.16893768310547 188.8849639892578 50.219261169433594 190.13211059570312" stroke-width="3.0" fill="none" stroke="rgb(0, 0, 0)" stroke-opacity="1.0" stroke-linecap="round" stroke-linejoin="round"/>
    <path d="M 72.56353759765625 56.871337890625 C 98.85317993164062 34.365272521972656 89.59497833251953 38.03368377685547 91.6483383178711 70.88155364990234" stroke-width="3.0" fill="none" stroke="rgb(0, 0, 0)" stroke-opacity="1.0" stroke-linecap="round" stroke-linejoin="round"/>
    <path d="M 72.95862579345703 74.84379577636719 C 62.90946960449219 81.31788635253906 74.31838989257812 54.91343307495117 75.33739471435547 71.36521911621094" stroke-width="3.0" fill="none" stroke="rgb(0, 0, 0)" stroke-opacity="1.0" stroke-linecap="round" stroke-linejoin="round"/>
    <path d="M 43.39964294433594 67.29997253417969 C 40.84436798095703 35.9843864440918 35.078704833984375 47.22730255126953 70.05310821533203 62.59272003173828" stroke-width="3.0" fill="none" stroke="rgb(0, 0, 0)" stroke-opacity="1.0" stroke-linecap="round" stroke-linejoin="round"/>
    <path d="M 68.94418334960938 196.44815063476562 C 48.19805908203125 193.57203674316406 41.40268325805664 174.7698974609375 44.291133880615234 151.8931884765625" stroke-width="3.0" fill="none" stroke="rgb(0, 0, 0)" stroke-opacity="1.0" stroke-linecap="round" stroke-linejoin="round"/>
    <path d="M 98.21609497070312 159.72166442871094 C 94.83647155761719 157.65135192871094 102.1239013671875 162.56387329101562 94.11309051513672 150.73129272460938" stroke-width="3.0" fill="none" stroke="rgb(0, 0, 0)" stroke-opacity="1.0" stroke-linecap="round" stroke-linejoin="round"/>
    <path d="M 130.84487915039062 178.2621307373047 C 157.75601196289062 178.27044677734375 168.41375732421875 181.16632080078125 200.07933044433594 178.83815002441406" stroke-width="3.0" fill="none" stroke="rgb(0, 0, 0)" stroke-opacity="1.0" stroke-linecap="round" stroke-linejoin="round"/>
    <path d="M 63.61066818237305 195.53163146972656 C 71.91751861572266 196.65390014648438 58.37537384033203 197.99217224121094 49.469295501708984 190.9165496826172" stroke-width="3.0" fill="none" stroke="rgb(0, 0, 0)" stroke-opacity="1.0" stroke-linecap="round" stroke-linejoin="round"/>
    <path d="M 44.42363357543945 170.8044891357422 C 44.5672721862793 157.57015991210938 41.545780181884766 137.85032653808594 54.127593994140625 126.9886474609375" stroke-width="3.0" fill="none" stroke="rgb(0, 0, 0)" stroke-opacity="1.0" stroke-linecap="round" stroke-linejoin="round"/>
    <path d="M 70.20269775390625 109.19221496582031 C 68.98601531982422 108.18186950683594 80.38722229003906 109.63436889648438 67.78641510009766 106.3241195678711" stroke-width="3.0" fill="none" stroke="rgb(0, 0, 0)" stroke-opacity="1.0" stroke-linecap="round" stroke-linejoin="round"/>
    <path d="M 47.19025421142578 181.54635620117188 C 22.043489456176758 174.12623596191406 39.92048263549805 161.5768280029297 33.96437072753906 164.4420166015625" stroke-width="3.0" fill="none" stroke="rgb(0, 0, 0)" stroke-opacity="1.0" stroke-linecap="round" stroke-linejoin="round"/>
    <path d="M 45.80874252319336 78.3062744140625 C 38.79464340209961 74.1128921508789 49.049598693847656 49.806339263916016 69.5677490234375 59.078346252441406" stroke-width="3.0" fill="none" stroke="rgb(0, 0, 0)" stroke-opacity="1.0" stroke-linecap="round" stroke-linejoin="round"/>
    <path d="M 78.0985107421875 139.7963104248047 C 89.27552795410156 147.60475158691406 87.40912628173828 140.94467163085938 91.12284088134766 148.4728240966797" stroke-width="3.0" fill="none" stroke="rgb(0, 0, 0)" stroke-opacity="1.0" stroke-linecap="round" stroke-linejoin="round"/>
    <path d="M 90.62850189208984 50.41171646118164 C 83.50324249267578 60.91908264160156 98.70714569091797 74.95281219482422 85.03246307373047 62.79236602783203" stroke-width="3.0" fill="none" stroke="rgb(0, 0, 0)" stroke-opacity="1.0" stroke-linecap="round" stroke-linejoin="round"/>
    <path d="M 45.0689697265625 187.0704345703125 C 29.716020584106445 182.677734375 29.701316833496094 185.84239196777344 45.8187370300293 188.1349334716797" stroke-width="3.0" fill="none" stroke="rgb(0, 0, 0)" stroke-opacity="1.0" stroke-linecap="round" stroke-linejoin="round"/>
    <path d="M 119.16986083984375 124.86363220214844 C 122.21066284179688 109.38540649414062 126.82304382324219 91.48060607910156 105.21375274658203 81.5904541015625" stroke-width="3.0" fill="none" stroke="rgb(0, 0, 0)" stroke-opacity="1.0" stroke-linecap="round" stroke-linejoin="round"/>
    <path d="M 59.195045471191406 89.0880355834961 C 34.60020446777344 95.53572082519531 68.75535583496094 88.32587432861328 55.75014114379883 122.80123901367188" stroke-width="3.0" fill="none" stroke="rgb(0, 0, 0)" stroke-opacity="1.0" stroke-linecap="round" stroke-linejoin="round"/>
    <path d="M 62.242767333984375 83.06546020507812 C 77.00176239013672 82.10236358642578 58.03516387939453 89.02495574951172 67.50357818603516 83.49504089355469" stroke-width="3.0" fill="none" stroke="rgb(0, 0, 0)" stroke-opacity="1.0" stroke-linecap="round" stroke-linejoin="round"/>
    <path d="M 32.35061264038086 164.49395751953125 C 18.964025497436523 155.52108764648438 7.662235260009766 178.8023681640625 38.156620025634766 185.70742797851562" stroke-width="3.0" fill="none" stroke="rgb(0, 0, 0)" stroke-opacity="1.0" stroke-linecap="round" stroke-linejoin="round"/>
  </g>
</svg>
