<?xml version="1.0" ?>
<svg xmlns="http://www.w3.org/2000/svg" version="1.1" width="224" height="224">
  <defs/>
  <g>
    <path d="M 109.89962005615234 180.94662475585938 C 105.8560562133789 140.94210815429688 105.94091033935547 161.55140686035156 95.12995910644531 123.03739166259766" stroke-width="3.0" fill="none" stroke="rgb(0, 0, 0)" stroke-opacity="1.0" stroke-linecap="round" stroke-linejoin="round"/>
    <path d="M 127.26220703125 166.5755615234375 C 132.1079864501953 135.08349609375 133.3214569091797 147.2771453857422 126.93338775634766 166.92677307128906" stroke-width="3.0" fill="none" stroke="rgb(0, 0, 0)" stroke-opacity="1.0" stroke-linecap="round" stroke-linejoin="round"/>
    <path d="M 44.80486297607422 164.57186889648438 C 47.39573669433594 157.64979553222656 44.300010681152344 146.74176025390625 43.998619079589844 164.46510314941406" stroke-width="3.0" fill="none" stroke="rgb(0, 0, 0)" stroke-opacity="1.0" stroke-linecap="round" stroke-linejoin="round"/>
    <path d="M 128.2521514892578 127.68384552001953 C 121.29398345947266 137.46246337890625 139.1182861328125 136.06552124023438 126.7007827758789 164.51937866210938" stroke-width="3.0" fill="none" stroke="rgb(0, 0, 0)" stroke-opacity="1.0" stroke-linecap="round" stroke-linejoin="round"/>
    <path d="M 58.038230895996094 123.932373046875 C 65.7283706665039 85.02279663085938 56.175018310546875 100.73731231689453 60.40113067626953 108.2525634765625" stroke-width="3.0" fill="none" stroke="rgb(0, 0, 0)" stroke-opacity="1.0" stroke-linecap="round" stroke-linejoin="round"/>
    <path d="M 124.35340881347656 104.97875213623047 C 135.61854553222656 134.12486267089844 122.2676773071289 143.02493286132812 128.82635498046875 128.04547119140625" stroke-width="3.0" fill="none" stroke="rgb(0, 0, 0)" stroke-opacity="1.0" stroke-linecap="round" stroke-linejoin="round"/>
    <path d="M 57.23614501953125 123.58655548095703 C 66.31390380859375 91.69310760498047 50.06739044189453 92.94449615478516 61.48219680786133 111.95594024658203" stroke-width="3.0" fill="none" stroke="rgb(0, 0, 0)" stroke-opacity="1.0" stroke-linecap="round" stroke-linejoin="round"/>
    <path d="M 200.343505859375 180.76528930664062 C 199.9997100830078 189.3789825439453 197.9976043701172 190.17393493652344 115.27147674560547 184.82313537597656" stroke-width="3.0" fill="none" stroke="rgb(0, 0, 0)" stroke-opacity="1.0" stroke-linecap="round" stroke-linejoin="round"/>
    <path d="M 129.52984619140625 183.839111328125 C 123.78661346435547 201.9884033203125 133.66171264648438 195.3112030029297 81.22338104248047 190.31939697265625" stroke-width="3.0" fill="none" stroke="rgb(0, 0, 0)" stroke-opacity="1.0" stroke-linecap="round" stroke-linejoin="round"/>
    <path d="M 35.26221466064453 89.9391860961914 C 56.10699462890625 88.71022033691406 62.109092712402344 111.46388244628906 61.3839225769043 108.7401123046875" stroke-width="3.0" fill="none" stroke="rgb(0, 0, 0)" stroke-opacity="1.0" stroke-linecap="round" stroke-linejoin="round"/>
    <path d="M 100.86028289794922 183.88375854492188 C 153.30242919921875 184.04281616210938 113.56002044677734 198.2051239013672 123.09879302978516 183.5676727294922" stroke-width="3.0" fill="none" stroke="rgb(0, 0, 0)" stroke-opacity="1.0" stroke-linecap="round" stroke-linejoin="round"/>
    <path d="M 129.15606689453125 183.23619079589844 C 121.42461395263672 138.33737182617188 136.33242797851562 170.76312255859375 125.3970947265625 106.26183319091797" stroke-width="3.0" fill="none" stroke="rgb(0, 0, 0)" stroke-opacity="1.0" stroke-linecap="round" stroke-linejoin="round"/>
    <path d="M 43.39385986328125 157.24404907226562 C 49.489036560058594 119.2662353515625 61.67280197143555 140.04734802246094 62.33086013793945 98.8691177368164" stroke-width="3.0" fill="none" stroke="rgb(0, 0, 0)" stroke-opacity="1.0" stroke-linecap="round" stroke-linejoin="round"/>
    <path d="M 31.47566032409668 166.6667938232422 C 24.755386352539062 183.39810180664062 50.64247512817383 188.4755096435547 23.032081604003906 175.2533416748047" stroke-width="3.0" fill="none" stroke="rgb(0, 0, 0)" stroke-opacity="1.0" stroke-linecap="round" stroke-linejoin="round"/>
    <path d="M 41.088165283203125 67.68801879882812 C 99.48371887207031 61.43706130981445 91.37342834472656 8.45314884185791 88.27603912353516 87.60196685791016" stroke-width="3.0" fill="none" stroke="rgb(0, 0, 0)" stroke-opacity="1.0" stroke-linecap="round" stroke-linejoin="round"/>
    <path d="M 74.12474822998047 59.33479690551758 C 108.51681518554688 90.65377807617188 38.898460388183594 90.76957702636719 77.23754119873047 56.11566925048828" stroke-width="3.0" fill="none" stroke="rgb(0, 0, 0)" stroke-opacity="1.0" stroke-linecap="round" stroke-linejoin="round"/>
    <path d="M 43.0124626159668 78.96346282958984 C 35.816795349121094 3.934342622756958 53.994834899902344 79.92298889160156 86.7505874633789 66.775146484375" stroke-width="3.0" fill="none" stroke="rgb(0, 0, 0)" stroke-opacity="1.0" stroke-linecap="round" stroke-linejoin="round"/>
    <path d="M 113.31181335449219 193.91270446777344 C 40.982139587402344 205.2296142578125 36.64552688598633 175.9791717529297 50.28336715698242 153.21876525878906" stroke-width="3.0" fill="none" stroke="rgb(0, 0, 0)" stroke-opacity="1.0" stroke-linecap="round" stroke-linejoin="round"/>
    <path d="M 110.14862823486328 182.71536254882812 C 108.35335540771484 175.0394744873047 109.04136657714844 182.94757080078125 105.30806732177734 136.18753051757812" stroke-width="3.0" fill="none" stroke="rgb(0, 0, 0)" stroke-opacity="1.0" stroke-linecap="round" stroke-linejoin="round"/>
    <path d="M 129.0969696044922 175.18333435058594 C 207.67916870117188 173.87889099121094 201.14369201660156 174.3578338623047 200.2089385986328 181.43536376953125" stroke-width="3.0" fill="none" stroke="rgb(0, 0, 0)" stroke-opacity="1.0" stroke-linecap="round" stroke-linejoin="round"/>
    <path d="M 22.968679428100586 171.845458984375 C 20.806913375854492 189.1991424560547 71.58171844482422 195.308349609375 29.91874885559082 175.9765625" stroke-width="3.0" fill="none" stroke="rgb(0, 0, 0)" stroke-opacity="1.0" stroke-linecap="round" stroke-linejoin="round"/>
    <path d="M 47.52199172973633 185.15673828125 C 34.948020935058594 142.446044921875 45.98092269897461 135.34280395507812 59.27589416503906 117.63931274414062" stroke-width="3.0" fill="none" stroke="rgb(0, 0, 0)" stroke-opacity="1.0" stroke-linecap="round" stroke-linejoin="round"/>
    <path d="M 39.38688659667969 98.87184143066406 C 55.66428756713867 80.65034484863281 67.36895751953125 118.85449981689453 51.344364166259766 95.52333068847656" stroke-width="3.0" fill="none" stroke="rgb(0, 0, 0)" stroke-opacity="1.0" stroke-linecap="round" stroke-linejoin="round"/>
    <path d="M 46.33417892456055 182.40345764160156 C 23.795652389526367 178.11805725097656 14.467876434326172 150.01951599121094 38.1591682434082 182.66351318359375" stroke-width="3.0" fill="none" stroke="rgb(0, 0, 0)" stroke-opacity="1.0" stroke-linecap="round" stroke-linejoin="round"/>
    <path d="M 58.51738357543945 59.3579216003418 C 62.731563568115234 90.84343719482422 36.82429504394531 49.9387092590332 90.7121353149414 71.01979064941406" stroke-width="3.0" fill="none" stroke="rgb(0, 0, 0)" stroke-opacity="1.0" stroke-linecap="round" stroke-linejoin="round"/>
    <path d="M 45.8719367980957 157.4775848388672 C 52.80528259277344 118.26712799072266 115.58448028564453 130.3638916015625 98.9251480102539 176.8286590576172" stroke-width="3.0" fill="none" stroke="rgb(0, 0, 0)" stroke-opacity="1.0" stroke-linecap="round" stroke-linejoin="round"/>
    <path d="M 90.50193786621094 60.09458541870117 C 84.88275146484375 91.15672302246094 56.33879470825195 59.11857986450195 89.86082458496094 43.89860153198242" stroke-width="3.0" fill="none" stroke="rgb(0, 0, 0)" stroke-opacity="1.0" stroke-linecap="round" stroke-linejoin="round"/>
    <path d="M 23.911409378051758 165.8607635498047 C 9.195996284484863 178.07469177246094 45.04853820800781 188.6010284423828 47.59006118774414 183.68287658691406" stroke-width="3.0" fill="none" stroke="rgb(0, 0, 0)" stroke-opacity="1.0" stroke-linecap="round" stroke-linejoin="round"/>
    <path d="M 127.39020538330078 162.3695831298828 C 143.7406463623047 102.94181823730469 99.49024963378906 45.9188346862793 56.107398986816406 81.98677062988281" stroke-width="3.0" fill="none" stroke="rgb(0, 0, 0)" stroke-opacity="1.0" stroke-linecap="round" stroke-linejoin="round"/>
    <path d="M 71.30469512939453 79.38321685791016 C 6.072267055511475 71.2939224243164 77.71051025390625 110.28081512451172 56.72700881958008 127.1503677368164" stroke-width="3.0" fill="none" stroke="rgb(0, 0, 0)" stroke-opacity="1.0" stroke-linecap="round" stroke-linejoin="round"/>
    <path d="M 57.420982360839844 85.58616638183594 C 69.91302490234375 81.77122497558594 18.619400024414062 117.08404541015625 86.96712493896484 92.1039047241211" stroke-width="3.0" fill="none" stroke="rgb(0, 0, 0)" stroke-opacity="1.0" stroke-linecap="round" stroke-linejoin="round"/>
    <path d="M 30.27286148071289 171.63905334472656 C 28.74919319152832 153.83154296875 7.1352667808532715 177.4987335205078 46.97342300415039 185.72946166992188" stroke-width="3.0" fill="none" stroke="rgb(0, 0, 0)" stroke-opacity="1.0" stroke-linecap="round" stroke-linejoin="round"/>
  </g>
</svg>
