<?xml version="1.0" ?>
<svg xmlns="http://www.w3.org/2000/svg" version="1.1" width="224" height="224">
  <defs/>
  <g>
    <path d="M 109.21389770507812 181.5919189453125 C 104.69573211669922 145.1712188720703 106.90752410888672 158.03956604003906 92.15913391113281 125.27775573730469" stroke-width="3.0" fill="none" stroke="rgb(0, 0, 0)" stroke-opacity="1.0" stroke-linecap="round" stroke-linejoin="round"/>
    <path d="M 128.14889526367188 147.0673828125 C 119.94432067871094 113.26029205322266 131.0608367919922 142.14781188964844 127.01239776611328 158.02366638183594" stroke-width="3.0" fill="none" stroke="rgb(0, 0, 0)" stroke-opacity="1.0" stroke-linecap="round" stroke-linejoin="round"/>
    <path d="M 43.71787643432617 169.6777801513672 C 43.32061004638672 155.73272705078125 43.60274887084961 143.70816040039062 44.497982025146484 163.97840881347656" stroke-width="3.0" fill="none" stroke="rgb(0, 0, 0)" stroke-opacity="1.0" stroke-linecap="round" stroke-linejoin="round"/>
    <path d="M 126.66615295410156 114.57520294189453 C 131.3925323486328 140.48724365234375 135.54774475097656 140.3310546875 125.68128967285156 159.05972290039062" stroke-width="3.0" fill="none" stroke="rgb(0, 0, 0)" stroke-opacity="1.0" stroke-linecap="round" stroke-linejoin="round"/>
    <path d="M 60.85629653930664 121.94295501708984 C 75.5345687866211 84.05084228515625 53.270599365234375 99.43511962890625 60.83684158325195 109.627685546875" stroke-width="3.0" fill="none" stroke="rgb(0, 0, 0)" stroke-opacity="1.0" stroke-linecap="round" stroke-linejoin="round"/>
    <path d="M 121.59748077392578 95.65892028808594 C 133.2193603515625 138.60687255859375 121.0148696899414 151.97166442871094 124.20138549804688 111.22762298583984" stroke-width="3.0" fill="none" stroke="rgb(0, 0, 0)" stroke-opacity="1.0" stroke-linecap="round" stroke-linejoin="round"/>
    <path d="M 60.5008659362793 122.55951690673828 C 67.22054290771484 95.1244888305664 52.9652099609375 91.54255676269531 60.663883209228516 118.3802719116211" stroke-width="3.0" fill="none" stroke="rgb(0, 0, 0)" stroke-opacity="1.0" stroke-linecap="round" stroke-linejoin="round"/>
    <path d="M 199.40411376953125 178.2666015625 C 197.6962432861328 187.9304962158203 200.0148162841797 191.5832061767578 132.00018310546875 186.0515594482422" stroke-width="3.0" fill="none" stroke="rgb(0, 0, 0)" stroke-opacity="1.0" stroke-linecap="round" stroke-linejoin="round"/>
    <path d="M 127.54358673095703 193.4042510986328 C 128.2105712890625 199.38775634765625 135.76760864257812 197.46331787109375 60.942623138427734 188.40731811523438" stroke-width="3.0" fill="none" stroke="rgb(0, 0, 0)" stroke-opacity="1.0" stroke-linecap="round" stroke-linejoin="round"/>
    <path d="M 36.51348114013672 92.11811065673828 C 55.49764633178711 86.98332977294922 60.6129035949707 107.2282943725586 59.33918762207031 123.27600860595703" stroke-width="3.0" fill="none" stroke="rgb(0, 0, 0)" stroke-opacity="1.0" stroke-linecap="round" stroke-linejoin="round"/>
    <path d="M 104.36885833740234 182.36805725097656 C 146.0268096923828 180.5106964111328 123.4387435913086 193.14430236816406 131.66607666015625 186.14097595214844" stroke-width="3.0" fill="none" stroke="rgb(0, 0, 0)" stroke-opacity="1.0" stroke-linecap="round" stroke-linejoin="round"/>
    <path d="M 128.16217041015625 181.14999389648438 C 120.47154998779297 135.70909118652344 135.80413818359375 163.55075073242188 123.33654022216797 105.48979187011719" stroke-width="3.0" fill="none" stroke="rgb(0, 0, 0)" stroke-opacity="1.0" stroke-linecap="round" stroke-linejoin="round"/>
    <path d="M 43.79534149169922 160.05152893066406 C 49.126399993896484 114.56688690185547 65.7564468383789 141.75135803222656 61.068992614746094 101.33363342285156" stroke-width="3.0" fill="none" stroke="rgb(0, 0, 0)" stroke-opacity="1.0" stroke-linecap="round" stroke-linejoin="round"/>
    <path d="M 27.289772033691406 167.58128356933594 C 20.82111167907715 182.28900146484375 61.77950668334961 189.45774841308594 38.486175537109375 187.83358764648438" stroke-width="3.0" fill="none" stroke="rgb(0, 0, 0)" stroke-opacity="1.0" stroke-linecap="round" stroke-linejoin="round"/>
    <path d="M 54.13838195800781 60.082096099853516 C 91.81970977783203 68.2314453125 90.88396453857422 4.583481788635254 86.49565887451172 86.86349487304688" stroke-width="3.0" fill="none" stroke="rgb(0, 0, 0)" stroke-opacity="1.0" stroke-linecap="round" stroke-linejoin="round"/>
    <path d="M 71.79951477050781 61.55390930175781 C 106.46357727050781 101.74144744873047 41.47956848144531 74.30134582519531 73.56759643554688 63.16388702392578" stroke-width="3.0" fill="none" stroke="rgb(0, 0, 0)" stroke-opacity="1.0" stroke-linecap="round" stroke-linejoin="round"/>
    <path d="M 47.23030471801758 81.08312225341797 C 33.94256591796875 11.075019836425781 54.31581497192383 84.45122528076172 86.75267028808594 62.57510757446289" stroke-width="3.0" fill="none" stroke="rgb(0, 0, 0)" stroke-opacity="1.0" stroke-linecap="round" stroke-linejoin="round"/>
    <path d="M 112.290283203125 194.85997009277344 C 39.9141731262207 206.76197814941406 38.8256721496582 177.83180236816406 47.227474212646484 139.62478637695312" stroke-width="3.0" fill="none" stroke="rgb(0, 0, 0)" stroke-opacity="1.0" stroke-linecap="round" stroke-linejoin="round"/>
    <path d="M 99.81072235107422 179.79605102539062 C 106.70198059082031 173.67837524414062 104.95896911621094 179.9263916015625 103.12169647216797 136.86614990234375" stroke-width="3.0" fill="none" stroke="rgb(0, 0, 0)" stroke-opacity="1.0" stroke-linecap="round" stroke-linejoin="round"/>
    <path d="M 128.09898376464844 171.3064422607422 C 211.41650390625 172.0823211669922 197.13455200195312 171.92547607421875 200.62843322753906 179.9619903564453" stroke-width="3.0" fill="none" stroke="rgb(0, 0, 0)" stroke-opacity="1.0" stroke-linecap="round" stroke-linejoin="round"/>
    <path d="M 26.296932220458984 168.02813720703125 C 47.863929748535156 188.90516662597656 33.57631301879883 191.32513427734375 29.140623092651367 174.5745391845703" stroke-width="3.0" fill="none" stroke="rgb(0, 0, 0)" stroke-opacity="1.0" stroke-linecap="round" stroke-linejoin="round"/>
    <path d="M 46.44927978515625 183.16847229003906 C 38.62632751464844 145.79612731933594 45.197147369384766 135.4884490966797 59.00802993774414 118.93307495117188" stroke-width="3.0" fill="none" stroke="rgb(0, 0, 0)" stroke-opacity="1.0" stroke-linecap="round" stroke-linejoin="round"/>
    <path d="M 42.2056770324707 101.25343322753906 C 59.7187385559082 76.05810546875 79.16381072998047 123.32470703125 56.14419937133789 95.78024291992188" stroke-width="3.0" fill="none" stroke="rgb(0, 0, 0)" stroke-opacity="1.0" stroke-linecap="round" stroke-linejoin="round"/>
    <path d="M 44.311824798583984 179.7283477783203 C 26.822860717773438 178.52796936035156 32.464324951171875 150.49069213867188 34.86760330200195 170.1377716064453" stroke-width="3.0" fill="none" stroke="rgb(0, 0, 0)" stroke-opacity="1.0" stroke-linecap="round" stroke-linejoin="round"/>
    <path d="M 53.39234161376953 69.57606506347656 C 50.04178237915039 110.99073791503906 18.50432014465332 41.988311767578125 88.07308197021484 67.71563720703125" stroke-width="3.0" fill="none" stroke="rgb(0, 0, 0)" stroke-opacity="1.0" stroke-linecap="round" stroke-linejoin="round"/>
    <path d="M 43.37125015258789 160.97894287109375 C 49.2487678527832 111.97279357910156 116.3714828491211 126.80579376220703 94.23658752441406 177.63294982910156" stroke-width="3.0" fill="none" stroke="rgb(0, 0, 0)" stroke-opacity="1.0" stroke-linecap="round" stroke-linejoin="round"/>
    <path d="M 86.74002075195312 60.97391891479492 C 75.78346252441406 112.28878784179688 59.8507194519043 59.473880767822266 87.05587005615234 44.54922866821289" stroke-width="3.0" fill="none" stroke="rgb(0, 0, 0)" stroke-opacity="1.0" stroke-linecap="round" stroke-linejoin="round"/>
    <path d="M 34.934410095214844 164.4993133544922 C 31.42034149169922 180.05836486816406 52.50696563720703 177.4251251220703 43.09614562988281 189.1147003173828" stroke-width="3.0" fill="none" stroke="rgb(0, 0, 0)" stroke-opacity="1.0" stroke-linecap="round" stroke-linejoin="round"/>
    <path d="M 126.85088348388672 138.0356903076172 C 138.0247344970703 110.1243896484375 106.39395904541016 47.129024505615234 61.866615295410156 76.18997192382812" stroke-width="3.0" fill="none" stroke="rgb(0, 0, 0)" stroke-opacity="1.0" stroke-linecap="round" stroke-linejoin="round"/>
    <path d="M 56.74696350097656 78.93925476074219 C 20.324419021606445 71.01730346679688 79.47618103027344 110.87814331054688 51.81874084472656 131.65431213378906" stroke-width="3.0" fill="none" stroke="rgb(0, 0, 0)" stroke-opacity="1.0" stroke-linecap="round" stroke-linejoin="round"/>
    <path d="M 61.80379104614258 86.57756042480469 C 70.3387680053711 68.55188751220703 31.81328010559082 114.71089172363281 84.34044647216797 92.83389282226562" stroke-width="3.0" fill="none" stroke="rgb(0, 0, 0)" stroke-opacity="1.0" stroke-linecap="round" stroke-linejoin="round"/>
    <path d="M 31.48882484436035 167.04251098632812 C 24.659183502197266 155.9676055908203 1.6705553531646729 183.07339477539062 65.98117065429688 196.89297485351562" stroke-width="3.0" fill="none" stroke="rgb(0, 0, 0)" stroke-opacity="1.0" stroke-linecap="round" stroke-linejoin="round"/>
  </g>
</svg>
