<?xml version="1.0" ?>
<svg xmlns="http://www.w3.org/2000/svg" version="1.1" width="224" height="224">
  <defs/>
  <g>
    <path d="M 109.66162872314453 178.87115478515625 C 103.42019653320312 150.53460693359375 102.8241958618164 153.61434936523438 91.88479614257812 123.23929595947266" stroke-width="3.0" fill="none" stroke="rgb(0, 0, 0)" stroke-opacity="1.0" stroke-linecap="round" stroke-linejoin="round"/>
    <path d="M 130.13526916503906 149.2073974609375 C 128.38690185546875 122.45518493652344 129.39146423339844 129.82749938964844 130.72073364257812 134.82957458496094" stroke-width="3.0" fill="none" stroke="rgb(0, 0, 0)" stroke-opacity="1.0" stroke-linecap="round" stroke-linejoin="round"/>
    <path d="M 45.660579681396484 165.38702392578125 C 44.233367919921875 133.677001953125 51.192474365234375 134.4158172607422 46.304203033447266 162.84776306152344" stroke-width="3.0" fill="none" stroke="rgb(0, 0, 0)" stroke-opacity="1.0" stroke-linecap="round" stroke-linejoin="round"/>
    <path d="M 129.10984802246094 120.66499328613281 C 123.13851165771484 134.96112060546875 127.9472885131836 139.81674194335938 130.52825927734375 140.3229217529297" stroke-width="3.0" fill="none" stroke="rgb(0, 0, 0)" stroke-opacity="1.0" stroke-linecap="round" stroke-linejoin="round"/>
    <path d="M 58.7467041015625 122.86476135253906 C 63.975128173828125 97.28168487548828 67.350830078125 90.71507263183594 62.6005973815918 112.56377410888672" stroke-width="3.0" fill="none" stroke="rgb(0, 0, 0)" stroke-opacity="1.0" stroke-linecap="round" stroke-linejoin="round"/>
    <path d="M 127.12288665771484 117.64399719238281 C 126.43307495117188 141.96217346191406 128.448486328125 138.87100219726562 127.19203186035156 121.27232360839844" stroke-width="3.0" fill="none" stroke="rgb(0, 0, 0)" stroke-opacity="1.0" stroke-linecap="round" stroke-linejoin="round"/>
    <path d="M 59.09374237060547 121.97327423095703 C 72.45032501220703 87.65130615234375 39.12880325317383 83.7365951538086 61.03385925292969 109.1126480102539" stroke-width="3.0" fill="none" stroke="rgb(0, 0, 0)" stroke-opacity="1.0" stroke-linecap="round" stroke-linejoin="round"/>
    <path d="M 198.3361358642578 179.71705627441406 C 199.123779296875 185.02989196777344 201.5898895263672 188.77432250976562 127.280517578125 183.06927490234375" stroke-width="3.0" fill="none" stroke="rgb(0, 0, 0)" stroke-opacity="1.0" stroke-linecap="round" stroke-linejoin="round"/>
    <path d="M 130.78585815429688 189.82215881347656 C 129.73353576660156 201.07432556152344 131.1302490234375 192.8632354736328 68.64388275146484 196.30430603027344" stroke-width="3.0" fill="none" stroke="rgb(0, 0, 0)" stroke-opacity="1.0" stroke-linecap="round" stroke-linejoin="round"/>
    <path d="M 35.73283386230469 90.34123992919922 C 58.70090103149414 84.62297821044922 63.10515213012695 105.54098510742188 58.76017379760742 123.4688720703125" stroke-width="3.0" fill="none" stroke="rgb(0, 0, 0)" stroke-opacity="1.0" stroke-linecap="round" stroke-linejoin="round"/>
    <path d="M 101.65283203125 180.56959533691406 C 146.49440002441406 184.01144409179688 123.1996078491211 181.76268005371094 125.64582061767578 183.6560516357422" stroke-width="3.0" fill="none" stroke="rgb(0, 0, 0)" stroke-opacity="1.0" stroke-linecap="round" stroke-linejoin="round"/>
    <path d="M 133.49771118164062 186.8322296142578 C 120.92469024658203 142.0609588623047 140.96644592285156 172.85691833496094 125.45854949951172 104.02294921875" stroke-width="3.0" fill="none" stroke="rgb(0, 0, 0)" stroke-opacity="1.0" stroke-linecap="round" stroke-linejoin="round"/>
    <path d="M 44.10074996948242 155.11541748046875 C 52.6931266784668 120.47032928466797 61.7783088684082 131.23004150390625 67.69129180908203 99.46033477783203" stroke-width="3.0" fill="none" stroke="rgb(0, 0, 0)" stroke-opacity="1.0" stroke-linecap="round" stroke-linejoin="round"/>
    <path d="M 20.677614212036133 168.83348083496094 C 30.0627498626709 187.84710693359375 53.215850830078125 187.02774047851562 47.837181091308594 189.1634521484375" stroke-width="3.0" fill="none" stroke="rgb(0, 0, 0)" stroke-opacity="1.0" stroke-linecap="round" stroke-linejoin="round"/>
    <path d="M 66.6271743774414 61.31452941894531 C 96.39149475097656 51.167327880859375 84.9541244506836 24.489503860473633 91.04029846191406 77.70722198486328" stroke-width="3.0" fill="none" stroke="rgb(0, 0, 0)" stroke-opacity="1.0" stroke-linecap="round" stroke-linejoin="round"/>
    <path d="M 88.20970916748047 62.36935043334961 C 98.70667266845703 112.58690643310547 44.78053283691406 66.19148254394531 73.3822250366211 79.86921691894531" stroke-width="3.0" fill="none" stroke="rgb(0, 0, 0)" stroke-opacity="1.0" stroke-linecap="round" stroke-linejoin="round"/>
    <path d="M 49.082454681396484 101.24661254882812 C 32.29808044433594 7.825077533721924 40.48095703125 68.91474914550781 87.09322357177734 68.47293853759766" stroke-width="3.0" fill="none" stroke="rgb(0, 0, 0)" stroke-opacity="1.0" stroke-linecap="round" stroke-linejoin="round"/>
    <path d="M 104.1523666381836 194.7629852294922 C 42.86932373046875 205.8915557861328 44.712589263916016 182.2374267578125 46.229957580566406 149.95240783691406" stroke-width="3.0" fill="none" stroke="rgb(0, 0, 0)" stroke-opacity="1.0" stroke-linecap="round" stroke-linejoin="round"/>
    <path d="M 97.73755645751953 178.19129943847656 C 101.60562896728516 169.50677490234375 101.29299926757812 177.70986938476562 102.90055847167969 138.83609008789062" stroke-width="3.0" fill="none" stroke="rgb(0, 0, 0)" stroke-opacity="1.0" stroke-linecap="round" stroke-linejoin="round"/>
    <path d="M 131.5491485595703 172.9864501953125 C 209.7592010498047 172.0563201904297 197.1400604248047 174.88043212890625 199.35256958007812 182.02264404296875" stroke-width="3.0" fill="none" stroke="rgb(0, 0, 0)" stroke-opacity="1.0" stroke-linecap="round" stroke-linejoin="round"/>
    <path d="M 50.41022872924805 189.0098419189453 C 56.872589111328125 190.692138671875 42.947269439697266 184.71629333496094 50.503482818603516 187.57470703125" stroke-width="3.0" fill="none" stroke="rgb(0, 0, 0)" stroke-opacity="1.0" stroke-linecap="round" stroke-linejoin="round"/>
    <path d="M 46.884910583496094 185.13284301757812 C 37.03313064575195 147.9138946533203 44.552757263183594 135.94430541992188 59.45913314819336 120.08474731445312" stroke-width="3.0" fill="none" stroke="rgb(0, 0, 0)" stroke-opacity="1.0" stroke-linecap="round" stroke-linejoin="round"/>
    <path d="M 35.90113830566406 96.63207244873047 C 57.785579681396484 77.93241119384766 56.562198638916016 120.34239196777344 62.1559944152832 104.39958953857422" stroke-width="3.0" fill="none" stroke="rgb(0, 0, 0)" stroke-opacity="1.0" stroke-linecap="round" stroke-linejoin="round"/>
    <path d="M 45.728939056396484 183.5123748779297 C 19.787307739257812 172.90638732910156 31.78206443786621 165.62106323242188 30.56078338623047 165.89645385742188" stroke-width="3.0" fill="none" stroke="rgb(0, 0, 0)" stroke-opacity="1.0" stroke-linecap="round" stroke-linejoin="round"/>
    <path d="M 54.0859375 66.36744689941406 C 52.0423583984375 109.08432006835938 21.325714111328125 47.30844497680664 77.23172760009766 64.6860580444336" stroke-width="3.0" fill="none" stroke="rgb(0, 0, 0)" stroke-opacity="1.0" stroke-linecap="round" stroke-linejoin="round"/>
    <path d="M 45.02914810180664 172.8988494873047 C 52.255126953125 113.24577331542969 106.36787414550781 136.40682983398438 96.05096435546875 161.15235900878906" stroke-width="3.0" fill="none" stroke="rgb(0, 0, 0)" stroke-opacity="1.0" stroke-linecap="round" stroke-linejoin="round"/>
    <path d="M 78.63508605957031 55.11360549926758 C 67.59000396728516 86.5293960571289 57.647216796875 59.14714431762695 86.9312973022461 47.37272262573242" stroke-width="3.0" fill="none" stroke="rgb(0, 0, 0)" stroke-opacity="1.0" stroke-linecap="round" stroke-linejoin="round"/>
    <path d="M 35.04709243774414 179.81097412109375 C 35.17098617553711 187.16827392578125 59.04077911376953 186.60394287109375 31.2592830657959 178.90841674804688" stroke-width="3.0" fill="none" stroke="rgb(0, 0, 0)" stroke-opacity="1.0" stroke-linecap="round" stroke-linejoin="round"/>
    <path d="M 126.3845443725586 132.47706604003906 C 140.1018524169922 119.05049133300781 110.65455627441406 53.26816177368164 66.74760437011719 74.4246826171875" stroke-width="3.0" fill="none" stroke="rgb(0, 0, 0)" stroke-opacity="1.0" stroke-linecap="round" stroke-linejoin="round"/>
    <path d="M 56.97407913208008 78.4880599975586 C 18.467037200927734 67.21338653564453 80.2135238647461 117.71971130371094 50.83766174316406 133.10997009277344" stroke-width="3.0" fill="none" stroke="rgb(0, 0, 0)" stroke-opacity="1.0" stroke-linecap="round" stroke-linejoin="round"/>
    <path d="M 58.87714385986328 85.50141906738281 C 80.444091796875 78.27387237548828 27.51190757751465 113.01642608642578 87.41187286376953 90.54512786865234" stroke-width="3.0" fill="none" stroke="rgb(0, 0, 0)" stroke-opacity="1.0" stroke-linecap="round" stroke-linejoin="round"/>
    <path d="M 31.192317962646484 166.3136749267578 C 17.44771957397461 153.13511657714844 10.631649017333984 184.24131774902344 52.67597198486328 191.73507690429688" stroke-width="3.0" fill="none" stroke="rgb(0, 0, 0)" stroke-opacity="1.0" stroke-linecap="round" stroke-linejoin="round"/>
  </g>
</svg>
