<?xml version="1.0" ?>
<svg xmlns="http://www.w3.org/2000/svg" version="1.1" width="224" height="224">
  <defs/>
  <g>
    <path d="M 108.44775390625 181.73550415039062 C 103.07357025146484 141.26785278320312 106.37066650390625 154.3767547607422 91.10067749023438 119.9566421508789" stroke-width="3.0" fill="none" stroke="rgb(0, 0, 0)" stroke-opacity="1.0" stroke-linecap="round" stroke-linejoin="round"/>
    <path d="M 128.2313690185547 152.56979370117188 C 118.6589584350586 125.74063873291016 126.49847412109375 131.30494689941406 129.606689453125 143.8673095703125" stroke-width="3.0" fill="none" stroke="rgb(0, 0, 0)" stroke-opacity="1.0" stroke-linecap="round" stroke-linejoin="round"/>
    <path d="M 46.24394226074219 171.8331298828125 C 41.89558029174805 153.86355590820312 44.23179626464844 139.0114288330078 43.921875 154.9285888671875" stroke-width="3.0" fill="none" stroke="rgb(0, 0, 0)" stroke-opacity="1.0" stroke-linecap="round" stroke-linejoin="round"/>
    <path d="M 124.31279754638672 121.56021881103516 C 119.82762908935547 130.67337036132812 130.73585510253906 140.33717346191406 125.80433654785156 155.40220642089844" stroke-width="3.0" fill="none" stroke="rgb(0, 0, 0)" stroke-opacity="1.0" stroke-linecap="round" stroke-linejoin="round"/>
    <path d="M 60.93393325805664 121.58954620361328 C 76.02729797363281 93.79884338378906 59.57152557373047 85.94981384277344 60.945274353027344 106.55810546875" stroke-width="3.0" fill="none" stroke="rgb(0, 0, 0)" stroke-opacity="1.0" stroke-linecap="round" stroke-linejoin="round"/>
    <path d="M 125.98627471923828 118.7706069946289 C 132.28932189941406 148.1713409423828 119.40790557861328 144.83969116210938 124.3993148803711 109.9540023803711" stroke-width="3.0" fill="none" stroke="rgb(0, 0, 0)" stroke-opacity="1.0" stroke-linecap="round" stroke-linejoin="round"/>
    <path d="M 57.965267181396484 123.9479751586914 C 74.66200256347656 88.79381561279297 44.88776779174805 83.4218521118164 61.51802062988281 107.36502075195312" stroke-width="3.0" fill="none" stroke="rgb(0, 0, 0)" stroke-opacity="1.0" stroke-linecap="round" stroke-linejoin="round"/>
    <path d="M 199.0187225341797 179.68392944335938 C 202.78269958496094 186.3479766845703 201.9586639404297 190.30157470703125 132.5689239501953 186.16346740722656" stroke-width="3.0" fill="none" stroke="rgb(0, 0, 0)" stroke-opacity="1.0" stroke-linecap="round" stroke-linejoin="round"/>
    <path d="M 130.7028045654297 186.76617431640625 C 128.6386260986328 203.26177978515625 137.80438232421875 195.01931762695312 74.64083862304688 190.24826049804688" stroke-width="3.0" fill="none" stroke="rgb(0, 0, 0)" stroke-opacity="1.0" stroke-linecap="round" stroke-linejoin="round"/>
    <path d="M 35.28581237792969 93.11843872070312 C 58.901588439941406 86.92974090576172 73.72756958007812 108.9896240234375 60.37865447998047 121.00300598144531" stroke-width="3.0" fill="none" stroke="rgb(0, 0, 0)" stroke-opacity="1.0" stroke-linecap="round" stroke-linejoin="round"/>
    <path d="M 98.79928588867188 183.3332977294922 C 148.09327697753906 180.7591094970703 122.64710998535156 185.783203125 129.92039489746094 181.459716796875" stroke-width="3.0" fill="none" stroke="rgb(0, 0, 0)" stroke-opacity="1.0" stroke-linecap="round" stroke-linejoin="round"/>
    <path d="M 128.7577667236328 185.03883361816406 C 118.31184387207031 143.0654296875 140.54019165039062 169.1558837890625 121.88687133789062 100.88783264160156" stroke-width="3.0" fill="none" stroke="rgb(0, 0, 0)" stroke-opacity="1.0" stroke-linecap="round" stroke-linejoin="round"/>
    <path d="M 46.26858139038086 159.6828155517578 C 50.4768180847168 109.947509765625 63.23236846923828 138.16305541992188 70.33320617675781 95.5898208618164" stroke-width="3.0" fill="none" stroke="rgb(0, 0, 0)" stroke-opacity="1.0" stroke-linecap="round" stroke-linejoin="round"/>
    <path d="M 21.305587768554688 172.54876708984375 C 27.610149383544922 187.0201416015625 56.512535095214844 189.75360107421875 48.556732177734375 186.4629364013672" stroke-width="3.0" fill="none" stroke="rgb(0, 0, 0)" stroke-opacity="1.0" stroke-linecap="round" stroke-linejoin="round"/>
    <path d="M 52.14963150024414 61.00669479370117 C 91.61951446533203 69.55455780029297 89.14009857177734 9.468281745910645 86.80989074707031 86.2897720336914" stroke-width="3.0" fill="none" stroke="rgb(0, 0, 0)" stroke-opacity="1.0" stroke-linecap="round" stroke-linejoin="round"/>
    <path d="M 68.85143280029297 65.6228256225586 C 102.35717010498047 99.72437286376953 41.368011474609375 67.85088348388672 67.33384704589844 75.82794189453125" stroke-width="3.0" fill="none" stroke="rgb(0, 0, 0)" stroke-opacity="1.0" stroke-linecap="round" stroke-linejoin="round"/>
    <path d="M 46.07115936279297 89.96372985839844 C 35.672760009765625 8.01111125946045 47.898231506347656 81.01042175292969 88.65718841552734 65.9813232421875" stroke-width="3.0" fill="none" stroke="rgb(0, 0, 0)" stroke-opacity="1.0" stroke-linecap="round" stroke-linejoin="round"/>
    <path d="M 106.99205017089844 197.477294921875 C 49.0086784362793 211.37351989746094 38.741798400878906 171.16156005859375 51.3073844909668 136.9805145263672" stroke-width="3.0" fill="none" stroke="rgb(0, 0, 0)" stroke-opacity="1.0" stroke-linecap="round" stroke-linejoin="round"/>
    <path d="M 96.27777862548828 180.76686096191406 C 99.8290023803711 167.7255096435547 107.411865234375 176.1927490234375 98.0490493774414 134.1095733642578" stroke-width="3.0" fill="none" stroke="rgb(0, 0, 0)" stroke-opacity="1.0" stroke-linecap="round" stroke-linejoin="round"/>
    <path d="M 128.27369689941406 177.5589599609375 C 211.8180389404297 177.65235900878906 200.46945190429688 179.05780029296875 200.343505859375 180.4499969482422" stroke-width="3.0" fill="none" stroke="rgb(0, 0, 0)" stroke-opacity="1.0" stroke-linecap="round" stroke-linejoin="round"/>
    <path d="M 31.028648376464844 183.3853759765625 C 48.13097381591797 192.52818298339844 39.54918670654297 184.17266845703125 47.32787322998047 188.2164764404297" stroke-width="3.0" fill="none" stroke="rgb(0, 0, 0)" stroke-opacity="1.0" stroke-linecap="round" stroke-linejoin="round"/>
    <path d="M 48.53350067138672 183.2451629638672 C 39.614742279052734 150.2162322998047 46.51699447631836 136.28695678710938 62.63022994995117 120.17557525634766" stroke-width="3.0" fill="none" stroke="rgb(0, 0, 0)" stroke-opacity="1.0" stroke-linecap="round" stroke-linejoin="round"/>
    <path d="M 40.086036682128906 100.2614517211914 C 69.46407318115234 76.33965301513672 65.2704849243164 116.39656829833984 66.34332275390625 96.69113159179688" stroke-width="3.0" fill="none" stroke="rgb(0, 0, 0)" stroke-opacity="1.0" stroke-linecap="round" stroke-linejoin="round"/>
    <path d="M 48.58800506591797 178.1756591796875 C 22.50640296936035 173.43438720703125 36.35320281982422 166.2071075439453 31.66645050048828 165.50759887695312" stroke-width="3.0" fill="none" stroke="rgb(0, 0, 0)" stroke-opacity="1.0" stroke-linecap="round" stroke-linejoin="round"/>
    <path d="M 53.128074645996094 72.109375 C 53.358158111572266 106.37188720703125 19.6908016204834 46.83692169189453 81.80780029296875 66.74742889404297" stroke-width="3.0" fill="none" stroke="rgb(0, 0, 0)" stroke-opacity="1.0" stroke-linecap="round" stroke-linejoin="round"/>
    <path d="M 46.416194915771484 165.3662872314453 C 48.73680877685547 112.54268646240234 111.08113861083984 132.06692504882812 96.69341278076172 175.6067352294922" stroke-width="3.0" fill="none" stroke="rgb(0, 0, 0)" stroke-opacity="1.0" stroke-linecap="round" stroke-linejoin="round"/>
    <path d="M 86.04910278320312 63.47639846801758 C 61.42259979248047 105.61668395996094 54.127098083496094 59.596580505371094 86.21064758300781 47.91667938232422" stroke-width="3.0" fill="none" stroke="rgb(0, 0, 0)" stroke-opacity="1.0" stroke-linecap="round" stroke-linejoin="round"/>
    <path d="M 23.38096046447754 163.67315673828125 C 25.688941955566406 181.50550842285156 59.60087585449219 189.4470977783203 41.06496810913086 187.87660217285156" stroke-width="3.0" fill="none" stroke="rgb(0, 0, 0)" stroke-opacity="1.0" stroke-linecap="round" stroke-linejoin="round"/>
    <path d="M 123.98735046386719 139.68556213378906 C 138.165283203125 114.29251098632812 106.70909881591797 48.25614547729492 62.90975570678711 75.3598861694336" stroke-width="3.0" fill="none" stroke="rgb(0, 0, 0)" stroke-opacity="1.0" stroke-linecap="round" stroke-linejoin="round"/>
    <path d="M 58.496604919433594 78.17839050292969 C 18.979434967041016 73.50010681152344 79.94206237792969 107.33544158935547 55.34309005737305 129.22885131835938" stroke-width="3.0" fill="none" stroke="rgb(0, 0, 0)" stroke-opacity="1.0" stroke-linecap="round" stroke-linejoin="round"/>
    <path d="M 59.84613800048828 84.91580200195312 C 72.32918548583984 78.51056671142578 23.659128189086914 109.08308410644531 87.0624771118164 92.06391906738281" stroke-width="3.0" fill="none" stroke="rgb(0, 0, 0)" stroke-opacity="1.0" stroke-linecap="round" stroke-linejoin="round"/>
    <path d="M 31.952590942382812 163.65692138671875 C 17.781150817871094 159.47607421875 6.541277885437012 173.39651489257812 63.346168518066406 194.69366455078125" stroke-width="3.0" fill="none" stroke="rgb(0, 0, 0)" stroke-opacity="1.0" stroke-linecap="round" stroke-linejoin="round"/>
  </g>
</svg>
