<?xml version="1.0" ?>
<svg xmlns="http://www.w3.org/2000/svg" version="1.1" width="224" height="224">
  <defs/>
  <g>
    <path d="M 94.05953216552734 140.42918395996094 C 95.71482849121094 128.84979248046875 93.5339126586914 142.57247924804688 90.30352020263672 123.90113830566406" stroke-width="3.0" fill="none" stroke="rgb(0, 0, 0)" stroke-opacity="1.0" stroke-linecap="round" stroke-linejoin="round"/>
    <path d="M 110.37077331542969 143.42303466796875 C 107.87529754638672 155.27122497558594 106.59208679199219 155.66128540039062 111.31336975097656 141.16317749023438" stroke-width="3.0" fill="none" stroke="rgb(0, 0, 0)" stroke-opacity="1.0" stroke-linecap="round" stroke-linejoin="round"/>
    <path d="M 44.012176513671875 153.72947692871094 C 47.35447692871094 137.9005889892578 45.5881233215332 145.5478973388672 44.26342010498047 150.0212860107422" stroke-width="3.0" fill="none" stroke="rgb(0, 0, 0)" stroke-opacity="1.0" stroke-linecap="round" stroke-linejoin="round"/>
    <path d="M 120.36727142333984 121.69227600097656 C 114.51610565185547 128.86514282226562 119.32217407226562 131.6215362548828 111.76433563232422 139.7545166015625" stroke-width="3.0" fill="none" stroke="rgb(0, 0, 0)" stroke-opacity="1.0" stroke-linecap="round" stroke-linejoin="round"/>
    <path d="M 69.8909683227539 108.56526184082031 C 54.93913650512695 100.73648834228516 53.98589324951172 108.4820785522461 65.85677337646484 107.3458480834961" stroke-width="3.0" fill="none" stroke="rgb(0, 0, 0)" stroke-opacity="1.0" stroke-linecap="round" stroke-linejoin="round"/>
    <path d="M 114.85906982421875 135.45933532714844 C 109.47833251953125 143.3458251953125 108.66204071044922 150.2237548828125 110.95774841308594 141.41053771972656" stroke-width="3.0" fill="none" stroke="rgb(0, 0, 0)" stroke-opacity="1.0" stroke-linecap="round" stroke-linejoin="round"/>
    <path d="M 63.362430572509766 120.57084655761719 C 58.25840759277344 105.2701187133789 53.33292007446289 95.70143127441406 62.77238845825195 113.18316650390625" stroke-width="3.0" fill="none" stroke="rgb(0, 0, 0)" stroke-opacity="1.0" stroke-linecap="round" stroke-linejoin="round"/>
    <path d="M 194.8246307373047 188.71995544433594 C 207.50210571289062 186.8903350830078 210.3313751220703 191.36851501464844 131.0417022705078 186.88507080078125" stroke-width="3.0" fill="none" stroke="rgb(0, 0, 0)" stroke-opacity="1.0" stroke-linecap="round" stroke-linejoin="round"/>
    <path d="M 127.75335693359375 190.81494140625 C 106.8124771118164 194.99302673339844 125.1011962890625 186.66400146484375 87.5797119140625 193.72865295410156" stroke-width="3.0" fill="none" stroke="rgb(0, 0, 0)" stroke-opacity="1.0" stroke-linecap="round" stroke-linejoin="round"/>
    <path d="M 38.20145797729492 81.24718475341797 C 53.91450881958008 111.4584732055664 91.87217712402344 106.6772232055664 59.58351516723633 108.07632446289062" stroke-width="3.0" fill="none" stroke="rgb(0, 0, 0)" stroke-opacity="1.0" stroke-linecap="round" stroke-linejoin="round"/>
    <path d="M 100.54861450195312 161.8495330810547 C 122.77274322509766 166.0982666015625 123.89116668701172 166.460693359375 127.98234558105469 170.67457580566406" stroke-width="3.0" fill="none" stroke="rgb(0, 0, 0)" stroke-opacity="1.0" stroke-linecap="round" stroke-linejoin="round"/>
    <path d="M 127.24437713623047 161.1588897705078 C 128.77833557128906 142.95663452148438 131.96714782714844 119.9434585571289 121.69310760498047 96.31661987304688" stroke-width="3.0" fill="none" stroke="rgb(0, 0, 0)" stroke-opacity="1.0" stroke-linecap="round" stroke-linejoin="round"/>
    <path d="M 43.82789611816406 149.9547119140625 C 50.601707458496094 126.29400634765625 49.775787353515625 138.6602020263672 57.292579650878906 119.9497299194336" stroke-width="3.0" fill="none" stroke="rgb(0, 0, 0)" stroke-opacity="1.0" stroke-linecap="round" stroke-linejoin="round"/>
    <path d="M 27.268817901611328 182.58718872070312 C 42.19187545776367 191.1121826171875 45.415252685546875 185.85638427734375 57.74605941772461 193.4492645263672" stroke-width="3.0" fill="none" stroke="rgb(0, 0, 0)" stroke-opacity="1.0" stroke-linecap="round" stroke-linejoin="round"/>
    <path d="M 64.73516845703125 61.309364318847656 C 99.54337310791016 35.97228240966797 88.11871337890625 35.564453125 89.70592498779297 68.2879867553711" stroke-width="3.0" fill="none" stroke="rgb(0, 0, 0)" stroke-opacity="1.0" stroke-linecap="round" stroke-linejoin="round"/>
    <path d="M 82.4295425415039 72.889404296875 C 67.04884338378906 94.02398681640625 67.84097290039062 62.126094818115234 78.93562316894531 73.06024932861328" stroke-width="3.0" fill="none" stroke="rgb(0, 0, 0)" stroke-opacity="1.0" stroke-linecap="round" stroke-linejoin="round"/>
    <path d="M 43.21773910522461 73.9224624633789 C 42.49653625488281 35.30314254760742 31.278104782104492 47.346614837646484 70.31807708740234 60.63289260864258" stroke-width="3.0" fill="none" stroke="rgb(0, 0, 0)" stroke-opacity="1.0" stroke-linecap="round" stroke-linejoin="round"/>
    <path d="M 103.78218078613281 192.27328491210938 C 42.42003631591797 203.1187744140625 38.182918548583984 178.90281677246094 47.14252853393555 137.644775390625" stroke-width="3.0" fill="none" stroke="rgb(0, 0, 0)" stroke-opacity="1.0" stroke-linecap="round" stroke-linejoin="round"/>
    <path d="M 94.25518798828125 160.06300354003906 C 93.24552154541016 160.15142822265625 98.97574615478516 158.4265594482422 92.3074722290039 145.9170379638672" stroke-width="3.0" fill="none" stroke="rgb(0, 0, 0)" stroke-opacity="1.0" stroke-linecap="round" stroke-linejoin="round"/>
    <path d="M 129.28489685058594 174.87423706054688 C 174.14376831054688 175.71827697753906 207.23187255859375 171.0984344482422 201.97299194335938 184.5886993408203" stroke-width="3.0" fill="none" stroke="rgb(0, 0, 0)" stroke-opacity="1.0" stroke-linecap="round" stroke-linejoin="round"/>
    <path d="M 60.74715805053711 193.196044921875 C 69.91470336914062 195.12266540527344 56.99464416503906 193.90785217285156 50.49415969848633 189.87889099121094" stroke-width="3.0" fill="none" stroke="rgb(0, 0, 0)" stroke-opacity="1.0" stroke-linecap="round" stroke-linejoin="round"/>
    <path d="M 44.05669403076172 171.45089721679688 C 43.582340240478516 156.43325805664062 40.63649368286133 138.37879943847656 56.20808410644531 123.60955810546875" stroke-width="3.0" fill="none" stroke="rgb(0, 0, 0)" stroke-opacity="1.0" stroke-linecap="round" stroke-linejoin="round"/>
    <path d="M 59.315185546875 104.87393188476562 C 57.2867317199707 109.82620239257812 77.1261978149414 119.44190216064453 60.15055465698242 106.1939926147461" stroke-width="3.0" fill="none" stroke="rgb(0, 0, 0)" stroke-opacity="1.0" stroke-linecap="round" stroke-linejoin="round"/>
    <path d="M 46.040287017822266 182.8014678955078 C 22.268823623657227 170.8787384033203 35.46804428100586 164.19686889648438 30.01795196533203 166.040771484375" stroke-width="3.0" fill="none" stroke="rgb(0, 0, 0)" stroke-opacity="1.0" stroke-linecap="round" stroke-linejoin="round"/>
    <path d="M 50.16630554199219 73.51980590820312 C 37.888736724853516 99.65369415283203 37.87333679199219 48.12449645996094 70.2827377319336 58.535152435302734" stroke-width="3.0" fill="none" stroke="rgb(0, 0, 0)" stroke-opacity="1.0" stroke-linecap="round" stroke-linejoin="round"/>
    <path d="M 66.38062286376953 130.8542022705078 C 89.91410827636719 139.56967163085938 91.20027160644531 144.8698272705078 94.09845733642578 148.8297882080078" stroke-width="3.0" fill="none" stroke="rgb(0, 0, 0)" stroke-opacity="1.0" stroke-linecap="round" stroke-linejoin="round"/>
    <path d="M 90.30367279052734 50.33350372314453 C 80.42596435546875 56.71715545654297 98.73942565917969 74.22020721435547 83.49360656738281 57.25864028930664" stroke-width="3.0" fill="none" stroke="rgb(0, 0, 0)" stroke-opacity="1.0" stroke-linecap="round" stroke-linejoin="round"/>
    <path d="M 48.92328643798828 189.76507568359375 C 31.106372833251953 186.6221160888672 37.856536865234375 188.01284790039062 48.74174499511719 189.54745483398438" stroke-width="3.0" fill="none" stroke="rgb(0, 0, 0)" stroke-opacity="1.0" stroke-linecap="round" stroke-linejoin="round"/>
    <path d="M 116.91545867919922 125.7705307006836 C 127.4919204711914 111.51783752441406 130.01243591308594 81.95726776123047 89.07662200927734 74.7376937866211" stroke-width="3.0" fill="none" stroke="rgb(0, 0, 0)" stroke-opacity="1.0" stroke-linecap="round" stroke-linejoin="round"/>
    <path d="M 49.313079833984375 84.25370788574219 C 22.709537506103516 86.94073486328125 67.38931274414062 90.15037536621094 53.86909484863281 127.09453582763672" stroke-width="3.0" fill="none" stroke="rgb(0, 0, 0)" stroke-opacity="1.0" stroke-linecap="round" stroke-linejoin="round"/>
    <path d="M 54.835601806640625 81.91560363769531 C 71.62928009033203 82.9610595703125 54.42363739013672 94.56321716308594 64.86441040039062 82.1781005859375" stroke-width="3.0" fill="none" stroke="rgb(0, 0, 0)" stroke-opacity="1.0" stroke-linecap="round" stroke-linejoin="round"/>
    <path d="M 32.618045806884766 166.07662963867188 C 18.13067054748535 153.30197143554688 6.455047607421875 178.5693817138672 39.336822509765625 187.29812622070312" stroke-width="3.0" fill="none" stroke="rgb(0, 0, 0)" stroke-opacity="1.0" stroke-linecap="round" stroke-linejoin="round"/>
  </g>
</svg>
