<?xml version="1.0" ?>
<svg xmlns="http://www.w3.org/2000/svg" version="1.1" width="224" height="224">
  <defs/>
  <g>
    <path d="M 110.48284912109375 180.12982177734375 C 101.67147064208984 147.68577575683594 106.09459686279297 156.40065002441406 92.55132293701172 124.97252655029297" stroke-width="3.0" fill="none" stroke="rgb(0, 0, 0)" stroke-opacity="1.0" stroke-linecap="round" stroke-linejoin="round"/>
    <path d="M 129.65081787109375 154.8203887939453 C 123.36639404296875 110.6656723022461 125.1218490600586 132.09274291992188 125.0302963256836 173.73240661621094" stroke-width="3.0" fill="none" stroke="rgb(0, 0, 0)" stroke-opacity="1.0" stroke-linecap="round" stroke-linejoin="round"/>
    <path d="M 44.374725341796875 170.83038330078125 C 44.68987274169922 156.34072875976562 42.44745635986328 144.6109161376953 43.801700592041016 165.6420135498047" stroke-width="3.0" fill="none" stroke="rgb(0, 0, 0)" stroke-opacity="1.0" stroke-linecap="round" stroke-linejoin="round"/>
    <path d="M 126.53509521484375 119.27105712890625 C 129.94586181640625 137.2256317138672 138.02340698242188 136.26502990722656 126.11256408691406 163.85296630859375" stroke-width="3.0" fill="none" stroke="rgb(0, 0, 0)" stroke-opacity="1.0" stroke-linecap="round" stroke-linejoin="round"/>
    <path d="M 59.49349594116211 126.99917602539062 C 76.39308166503906 84.98657989501953 60.694740295410156 97.25939178466797 62.170692443847656 108.9776382446289" stroke-width="3.0" fill="none" stroke="rgb(0, 0, 0)" stroke-opacity="1.0" stroke-linecap="round" stroke-linejoin="round"/>
    <path d="M 125.5367431640625 106.58562469482422 C 131.75050354003906 133.09103393554688 118.98715209960938 139.8623046875 128.12017822265625 114.55521392822266" stroke-width="3.0" fill="none" stroke="rgb(0, 0, 0)" stroke-opacity="1.0" stroke-linecap="round" stroke-linejoin="round"/>
    <path d="M 58.484344482421875 125.32415771484375 C 69.3202133178711 93.55918884277344 47.24679946899414 86.31283569335938 62.71480941772461 115.29315948486328" stroke-width="3.0" fill="none" stroke="rgb(0, 0, 0)" stroke-opacity="1.0" stroke-linecap="round" stroke-linejoin="round"/>
    <path d="M 200.93115234375 177.32806396484375 C 203.3307342529297 187.11705017089844 202.9474334716797 188.29953002929688 121.80546569824219 184.5841522216797" stroke-width="3.0" fill="none" stroke="rgb(0, 0, 0)" stroke-opacity="1.0" stroke-linecap="round" stroke-linejoin="round"/>
    <path d="M 130.57749938964844 187.07455444335938 C 124.2553939819336 198.84423828125 139.57571411132812 193.91664123535156 61.7470817565918 188.7288360595703" stroke-width="3.0" fill="none" stroke="rgb(0, 0, 0)" stroke-opacity="1.0" stroke-linecap="round" stroke-linejoin="round"/>
    <path d="M 33.12660598754883 87.57902526855469 C 53.49581527709961 90.11339569091797 62.13955307006836 110.86700439453125 58.766719818115234 118.60969543457031" stroke-width="3.0" fill="none" stroke="rgb(0, 0, 0)" stroke-opacity="1.0" stroke-linecap="round" stroke-linejoin="round"/>
    <path d="M 100.25733947753906 178.5594024658203 C 149.326904296875 188.07461547851562 119.98746490478516 187.2662811279297 128.39117431640625 181.73175048828125" stroke-width="3.0" fill="none" stroke="rgb(0, 0, 0)" stroke-opacity="1.0" stroke-linecap="round" stroke-linejoin="round"/>
    <path d="M 125.42987823486328 178.88153076171875 C 121.04763793945312 141.52305603027344 138.48165893554688 170.93716430664062 124.97232818603516 105.07019805908203" stroke-width="3.0" fill="none" stroke="rgb(0, 0, 0)" stroke-opacity="1.0" stroke-linecap="round" stroke-linejoin="round"/>
    <path d="M 42.64434814453125 163.0848846435547 C 50.35695266723633 118.40440368652344 63.721065521240234 144.1255340576172 62.846744537353516 99.876953125" stroke-width="3.0" fill="none" stroke="rgb(0, 0, 0)" stroke-opacity="1.0" stroke-linecap="round" stroke-linejoin="round"/>
    <path d="M 27.204627990722656 165.4065399169922 C 31.885066986083984 180.1995849609375 50.12967300415039 192.92173767089844 40.89580154418945 184.4882354736328" stroke-width="3.0" fill="none" stroke="rgb(0, 0, 0)" stroke-opacity="1.0" stroke-linecap="round" stroke-linejoin="round"/>
    <path d="M 51.9130859375 60.771514892578125 C 94.50138092041016 70.54023742675781 92.7961196899414 4.877102851867676 89.53471374511719 85.08889770507812" stroke-width="3.0" fill="none" stroke="rgb(0, 0, 0)" stroke-opacity="1.0" stroke-linecap="round" stroke-linejoin="round"/>
    <path d="M 73.22543334960938 59.32650375366211 C 99.22069549560547 98.31671905517578 40.224159240722656 84.03079986572266 79.80455017089844 61.27363967895508" stroke-width="3.0" fill="none" stroke="rgb(0, 0, 0)" stroke-opacity="1.0" stroke-linecap="round" stroke-linejoin="round"/>
    <path d="M 47.38676834106445 84.92169952392578 C 35.52008819580078 11.136627197265625 50.676666259765625 81.90686798095703 92.17730712890625 69.98455810546875" stroke-width="3.0" fill="none" stroke="rgb(0, 0, 0)" stroke-opacity="1.0" stroke-linecap="round" stroke-linejoin="round"/>
    <path d="M 110.45079040527344 191.71780395507812 C 38.9790153503418 208.3628387451172 37.449546813964844 180.21505737304688 47.591590881347656 138.62417602539062" stroke-width="3.0" fill="none" stroke="rgb(0, 0, 0)" stroke-opacity="1.0" stroke-linecap="round" stroke-linejoin="round"/>
    <path d="M 103.365234375 174.434326171875 C 108.28814697265625 175.182861328125 103.68416595458984 186.8439178466797 103.0561294555664 140.70443725585938" stroke-width="3.0" fill="none" stroke="rgb(0, 0, 0)" stroke-opacity="1.0" stroke-linecap="round" stroke-linejoin="round"/>
    <path d="M 127.85546112060547 171.26271057128906 C 212.25660705566406 173.2019805908203 199.46714782714844 170.6476287841797 199.21376037597656 182.3153533935547" stroke-width="3.0" fill="none" stroke="rgb(0, 0, 0)" stroke-opacity="1.0" stroke-linecap="round" stroke-linejoin="round"/>
    <path d="M 25.55259132385254 166.8926544189453 C 36.045501708984375 187.36593627929688 44.54642105102539 195.29330444335938 23.534961700439453 172.31625366210938" stroke-width="3.0" fill="none" stroke="rgb(0, 0, 0)" stroke-opacity="1.0" stroke-linecap="round" stroke-linejoin="round"/>
    <path d="M 48.78993225097656 183.40032958984375 C 34.72370147705078 143.97169494628906 45.68551254272461 140.25657653808594 60.689754486083984 118.15084075927734" stroke-width="3.0" fill="none" stroke="rgb(0, 0, 0)" stroke-opacity="1.0" stroke-linecap="round" stroke-linejoin="round"/>
    <path d="M 37.92922592163086 95.72447967529297 C 56.348793029785156 81.85680389404297 80.09850311279297 120.59813690185547 54.71143341064453 96.23612213134766" stroke-width="3.0" fill="none" stroke="rgb(0, 0, 0)" stroke-opacity="1.0" stroke-linecap="round" stroke-linejoin="round"/>
    <path d="M 46.912811279296875 179.41607666015625 C 22.022480010986328 176.98580932617188 23.040700912475586 159.96005249023438 25.26487159729004 178.52171325683594" stroke-width="3.0" fill="none" stroke="rgb(0, 0, 0)" stroke-opacity="1.0" stroke-linecap="round" stroke-linejoin="round"/>
    <path d="M 54.80815124511719 73.59514617919922 C 53.80659866333008 105.27165985107422 17.230846405029297 45.056243896484375 86.44976806640625 70.20059204101562" stroke-width="3.0" fill="none" stroke="rgb(0, 0, 0)" stroke-opacity="1.0" stroke-linecap="round" stroke-linejoin="round"/>
    <path d="M 43.63252639770508 163.4761962890625 C 58.463375091552734 121.07588195800781 116.59506225585938 129.5108184814453 93.45272064208984 174.83900451660156" stroke-width="3.0" fill="none" stroke="rgb(0, 0, 0)" stroke-opacity="1.0" stroke-linecap="round" stroke-linejoin="round"/>
    <path d="M 89.14997863769531 65.3984146118164 C 84.59564971923828 101.31459045410156 50.51055908203125 63.21903991699219 88.73029327392578 45.65573501586914" stroke-width="3.0" fill="none" stroke="rgb(0, 0, 0)" stroke-opacity="1.0" stroke-linecap="round" stroke-linejoin="round"/>
    <path d="M 30.989572525024414 165.89471435546875 C 25.921886444091797 182.6833038330078 53.24883270263672 183.1038360595703 49.82831954956055 186.91351318359375" stroke-width="3.0" fill="none" stroke="rgb(0, 0, 0)" stroke-opacity="1.0" stroke-linecap="round" stroke-linejoin="round"/>
    <path d="M 125.47340393066406 144.15969848632812 C 139.4159393310547 107.05708312988281 101.4442367553711 48.153411865234375 65.39226531982422 79.4776382446289" stroke-width="3.0" fill="none" stroke="rgb(0, 0, 0)" stroke-opacity="1.0" stroke-linecap="round" stroke-linejoin="round"/>
    <path d="M 69.0607681274414 84.43230438232422 C 12.322118759155273 70.41387176513672 77.13906860351562 114.341064453125 53.45743179321289 131.02957153320312" stroke-width="3.0" fill="none" stroke="rgb(0, 0, 0)" stroke-opacity="1.0" stroke-linecap="round" stroke-linejoin="round"/>
    <path d="M 55.669090270996094 88.07754516601562 C 75.38633728027344 77.69804382324219 23.721309661865234 112.32846069335938 86.88970947265625 88.54818725585938" stroke-width="3.0" fill="none" stroke="rgb(0, 0, 0)" stroke-opacity="1.0" stroke-linecap="round" stroke-linejoin="round"/>
    <path d="M 30.048280715942383 167.17898559570312 C 28.229963302612305 158.70115661621094 -1.2871193885803223 185.9117889404297 64.78981018066406 189.6466064453125" stroke-width="3.0" fill="none" stroke="rgb(0, 0, 0)" stroke-opacity="1.0" stroke-linecap="round" stroke-linejoin="round"/>
  </g>
</svg>
