<?xml version="1.0" ?>
<svg xmlns="http://www.w3.org/2000/svg" version="1.1" width="224" height="224">
  <defs/>
  <g>
    <path d="M 98.81167602539062 145.86244201660156 C 96.66152954101562 131.04920959472656 95.01111602783203 138.50120544433594 91.62027740478516 121.77267456054688" stroke-width="3.0" fill="none" stroke="rgb(0, 0, 0)" stroke-opacity="1.0" stroke-linecap="round" stroke-linejoin="round"/>
    <path d="M 106.0501480102539 156.70608520507812 C 104.83148193359375 161.3899383544922 107.74872589111328 157.60716247558594 104.75787353515625 144.8448486328125" stroke-width="3.0" fill="none" stroke="rgb(0, 0, 0)" stroke-opacity="1.0" stroke-linecap="round" stroke-linejoin="round"/>
    <path d="M 62.15582275390625 149.1805419921875 C 54.93341827392578 136.57864379882812 56.896968841552734 141.26097106933594 60.63536834716797 144.35829162597656" stroke-width="3.0" fill="none" stroke="rgb(0, 0, 0)" stroke-opacity="1.0" stroke-linecap="round" stroke-linejoin="round"/>
    <path d="M 119.29887390136719 120.86698150634766 C 118.77761840820312 130.72784423828125 111.59156799316406 129.24609375 109.85155487060547 142.38478088378906" stroke-width="3.0" fill="none" stroke="rgb(0, 0, 0)" stroke-opacity="1.0" stroke-linecap="round" stroke-linejoin="round"/>
    <path d="M 71.47322845458984 111.4957046508789 C 54.62848663330078 98.96014404296875 60.36359405517578 102.21420288085938 67.34197235107422 107.04875946044922" stroke-width="3.0" fill="none" stroke="rgb(0, 0, 0)" stroke-opacity="1.0" stroke-linecap="round" stroke-linejoin="round"/>
    <path d="M 112.63478088378906 134.22525024414062 C 108.92008209228516 144.70303344726562 107.9405517578125 146.44252014160156 109.99857330322266 140.56158447265625" stroke-width="3.0" fill="none" stroke="rgb(0, 0, 0)" stroke-opacity="1.0" stroke-linecap="round" stroke-linejoin="round"/>
    <path d="M 62.21042251586914 118.0877685546875 C 59.4011116027832 97.13530731201172 56.990821838378906 93.61679077148438 67.83148193359375 114.94695281982422" stroke-width="3.0" fill="none" stroke="rgb(0, 0, 0)" stroke-opacity="1.0" stroke-linecap="round" stroke-linejoin="round"/>
    <path d="M 164.87879943847656 183.84597778320312 C 180.34039306640625 181.94461059570312 178.53062438964844 178.97158813476562 157.83262634277344 181.42100524902344" stroke-width="3.0" fill="none" stroke="rgb(0, 0, 0)" stroke-opacity="1.0" stroke-linecap="round" stroke-linejoin="round"/>
    <path d="M 129.4192352294922 193.44793701171875 C 95.42411041259766 193.08096313476562 116.86827087402344 195.18121337890625 103.23892211914062 192.1509246826172" stroke-width="3.0" fill="none" stroke="rgb(0, 0, 0)" stroke-opacity="1.0" stroke-linecap="round" stroke-linejoin="round"/>
    <path d="M 41.52274703979492 82.61389923095703 C 68.4778823852539 112.26988983154297 77.01017761230469 104.26726531982422 66.08877563476562 104.02244567871094" stroke-width="3.0" fill="none" stroke="rgb(0, 0, 0)" stroke-opacity="1.0" stroke-linecap="round" stroke-linejoin="round"/>
    <path d="M 111.77987670898438 161.04977416992188 C 135.07411193847656 166.41671752929688 129.8913116455078 159.87423706054688 125.79815673828125 169.88714599609375" stroke-width="3.0" fill="none" stroke="rgb(0, 0, 0)" stroke-opacity="1.0" stroke-linecap="round" stroke-linejoin="round"/>
    <path d="M 128.75509643554688 157.08978271484375 C 134.92149353027344 140.46994018554688 129.5204620361328 123.31262969970703 121.49211883544922 96.1900405883789" stroke-width="3.0" fill="none" stroke="rgb(0, 0, 0)" stroke-opacity="1.0" stroke-linecap="round" stroke-linejoin="round"/>
    <path d="M 46.22098922729492 149.70907592773438 C 53.95423889160156 126.01309204101562 49.86745071411133 132.576416015625 56.79301452636719 120.42939758300781" stroke-width="3.0" fill="none" stroke="rgb(0, 0, 0)" stroke-opacity="1.0" stroke-linecap="round" stroke-linejoin="round"/>
    <path d="M 29.276996612548828 183.9330291748047 C 38.672393798828125 189.34677124023438 42.927032470703125 188.4364013671875 51.41200637817383 191.39820861816406" stroke-width="3.0" fill="none" stroke="rgb(0, 0, 0)" stroke-opacity="1.0" stroke-linecap="round" stroke-linejoin="round"/>
    <path d="M 71.09844970703125 57.16435241699219 C 98.63359832763672 37.40742111206055 88.1633071899414 39.58064270019531 91.03351593017578 75.41889953613281" stroke-width="3.0" fill="none" stroke="rgb(0, 0, 0)" stroke-opacity="1.0" stroke-linecap="round" stroke-linejoin="round"/>
    <path d="M 75.05280303955078 73.6396484375 C 65.26470184326172 82.68740844726562 74.28714752197266 55.41514587402344 76.80531311035156 71.17607116699219" stroke-width="3.0" fill="none" stroke="rgb(0, 0, 0)" stroke-opacity="1.0" stroke-linecap="round" stroke-linejoin="round"/>
    <path d="M 44.53837203979492 69.90693664550781 C 41.843685150146484 35.283599853515625 35.500892639160156 47.108585357666016 68.49958038330078 62.883609771728516" stroke-width="3.0" fill="none" stroke="rgb(0, 0, 0)" stroke-opacity="1.0" stroke-linecap="round" stroke-linejoin="round"/>
    <path d="M 83.3875961303711 197.62181091308594 C 46.8088264465332 193.80917358398438 39.43827438354492 175.61380004882812 46.407249450683594 149.30172729492188" stroke-width="3.0" fill="none" stroke="rgb(0, 0, 0)" stroke-opacity="1.0" stroke-linecap="round" stroke-linejoin="round"/>
    <path d="M 98.84709930419922 158.41134643554688 C 93.70501708984375 157.9746551513672 105.06393432617188 159.41864013671875 92.57263946533203 150.29580688476562" stroke-width="3.0" fill="none" stroke="rgb(0, 0, 0)" stroke-opacity="1.0" stroke-linecap="round" stroke-linejoin="round"/>
    <path d="M 131.25514221191406 177.68478393554688 C 156.677978515625 179.96595764160156 172.58477783203125 181.88787841796875 198.5968780517578 186.41030883789062" stroke-width="3.0" fill="none" stroke="rgb(0, 0, 0)" stroke-opacity="1.0" stroke-linecap="round" stroke-linejoin="round"/>
    <path d="M 62.500308990478516 195.36167907714844 C 72.47966766357422 196.28460693359375 59.386253356933594 196.43197631835938 53.19771957397461 191.74769592285156" stroke-width="3.0" fill="none" stroke="rgb(0, 0, 0)" stroke-opacity="1.0" stroke-linecap="round" stroke-linejoin="round"/>
    <path d="M 43.90873718261719 168.37384033203125 C 44.1123161315918 158.5740509033203 43.8257942199707 139.1575164794922 53.800689697265625 126.55835723876953" stroke-width="3.0" fill="none" stroke="rgb(0, 0, 0)" stroke-opacity="1.0" stroke-linecap="round" stroke-linejoin="round"/>
    <path d="M 68.81877899169922 109.95487213134766 C 68.01759338378906 108.00060272216797 83.24705505371094 111.29817962646484 66.93526458740234 107.80974578857422" stroke-width="3.0" fill="none" stroke="rgb(0, 0, 0)" stroke-opacity="1.0" stroke-linecap="round" stroke-linejoin="round"/>
    <path d="M 47.5101203918457 181.78424072265625 C 23.3215274810791 174.80816650390625 37.88081359863281 159.9355926513672 33.592464447021484 165.8644561767578" stroke-width="3.0" fill="none" stroke="rgb(0, 0, 0)" stroke-opacity="1.0" stroke-linecap="round" stroke-linejoin="round"/>
    <path d="M 46.15302276611328 77.77611541748047 C 37.600799560546875 80.18209075927734 49.084312438964844 49.45635223388672 73.19894409179688 58.054264068603516" stroke-width="3.0" fill="none" stroke="rgb(0, 0, 0)" stroke-opacity="1.0" stroke-linecap="round" stroke-linejoin="round"/>
    <path d="M 75.11238098144531 142.846435546875 C 89.13803100585938 146.1026153564453 85.95610809326172 146.2797393798828 91.9342269897461 149.435791015625" stroke-width="3.0" fill="none" stroke="rgb(0, 0, 0)" stroke-opacity="1.0" stroke-linecap="round" stroke-linejoin="round"/>
    <path d="M 90.9709701538086 48.188655853271484 C 83.92252349853516 61.5040168762207 98.8261489868164 75.5274429321289 85.09236907958984 63.374542236328125" stroke-width="3.0" fill="none" stroke="rgb(0, 0, 0)" stroke-opacity="1.0" stroke-linecap="round" stroke-linejoin="round"/>
    <path d="M 42.474525451660156 189.38827514648438 C 29.513450622558594 185.30967712402344 31.995431900024414 186.91683959960938 47.74971008300781 187.6319580078125" stroke-width="3.0" fill="none" stroke="rgb(0, 0, 0)" stroke-opacity="1.0" stroke-linecap="round" stroke-linejoin="round"/>
    <path d="M 118.01972961425781 123.44799041748047 C 124.48768615722656 113.024169921875 127.40433502197266 87.10941314697266 101.93769836425781 77.72352600097656" stroke-width="3.0" fill="none" stroke="rgb(0, 0, 0)" stroke-opacity="1.0" stroke-linecap="round" stroke-linejoin="round"/>
    <path d="M 54.00893783569336 89.12124633789062 C 30.251489639282227 91.608154296875 66.93017578125 87.7404556274414 55.44413757324219 122.21826171875" stroke-width="3.0" fill="none" stroke="rgb(0, 0, 0)" stroke-opacity="1.0" stroke-linecap="round" stroke-linejoin="round"/>
    <path d="M 59.9677619934082 84.66162109375 C 75.37064361572266 84.7232666015625 56.99033737182617 90.36293029785156 67.97158813476562 83.56483459472656" stroke-width="3.0" fill="none" stroke="rgb(0, 0, 0)" stroke-opacity="1.0" stroke-linecap="round" stroke-linejoin="round"/>
    <path d="M 32.27339553833008 165.79420471191406 C 19.114347457885742 153.3220672607422 6.471518039703369 178.39053344726562 38.15032958984375 187.6161346435547" stroke-width="3.0" fill="none" stroke="rgb(0, 0, 0)" stroke-opacity="1.0" stroke-linecap="round" stroke-linejoin="round"/>
  </g>
</svg>
