<?xml version="1.0" ?>
<svg xmlns="http://www.w3.org/2000/svg" version="1.1" width="224" height="224">
  <defs/>
  <g>
    <path d="M 104.06519317626953 162.0263671875 C 108.95077514648438 148.63394165039062 99.86641693115234 157.73707580566406 92.66869354248047 129.84820556640625" stroke-width="3.0" fill="none" stroke="rgb(0, 0, 0)" stroke-opacity="1.0" stroke-linecap="round" stroke-linejoin="round"/>
    <path d="M 131.03221130371094 141.39712524414062 C 121.12648010253906 126.90037536621094 127.96575927734375 126.45002746582031 129.4857177734375 137.34518432617188" stroke-width="3.0" fill="none" stroke="rgb(0, 0, 0)" stroke-opacity="1.0" stroke-linecap="round" stroke-linejoin="round"/>
    <path d="M 43.15802001953125 157.94984436035156 C 47.99886703491211 134.65834045410156 49.32159423828125 136.9368438720703 44.53903579711914 159.78302001953125" stroke-width="3.0" fill="none" stroke="rgb(0, 0, 0)" stroke-opacity="1.0" stroke-linecap="round" stroke-linejoin="round"/>
    <path d="M 128.10997009277344 121.1162109375 C 124.00383758544922 132.90501403808594 127.64668273925781 128.92518615722656 129.81492614746094 134.59889221191406" stroke-width="3.0" fill="none" stroke="rgb(0, 0, 0)" stroke-opacity="1.0" stroke-linecap="round" stroke-linejoin="round"/>
    <path d="M 59.293312072753906 116.38642883300781 C 69.30217742919922 105.08755493164062 58.35438919067383 93.36675262451172 57.765804290771484 109.36945343017578" stroke-width="3.0" fill="none" stroke="rgb(0, 0, 0)" stroke-opacity="1.0" stroke-linecap="round" stroke-linejoin="round"/>
    <path d="M 127.28916931152344 123.31285858154297 C 132.19155883789062 140.86671447753906 126.59468078613281 126.27751922607422 128.38641357421875 118.59435272216797" stroke-width="3.0" fill="none" stroke="rgb(0, 0, 0)" stroke-opacity="1.0" stroke-linecap="round" stroke-linejoin="round"/>
    <path d="M 59.42955780029297 120.66029357910156 C 63.93667221069336 105.30284881591797 46.41922378540039 89.99348449707031 62.46721267700195 108.3244400024414" stroke-width="3.0" fill="none" stroke="rgb(0, 0, 0)" stroke-opacity="1.0" stroke-linecap="round" stroke-linejoin="round"/>
    <path d="M 198.80538940429688 184.1418914794922 C 197.6818389892578 184.79473876953125 201.8743438720703 190.85421752929688 133.1731719970703 186.406005859375" stroke-width="3.0" fill="none" stroke="rgb(0, 0, 0)" stroke-opacity="1.0" stroke-linecap="round" stroke-linejoin="round"/>
    <path d="M 130.99301147460938 190.5907440185547 C 127.93533325195312 197.13421630859375 127.86631774902344 189.36985778808594 74.01889038085938 195.34877014160156" stroke-width="3.0" fill="none" stroke="rgb(0, 0, 0)" stroke-opacity="1.0" stroke-linecap="round" stroke-linejoin="round"/>
    <path d="M 35.49321746826172 90.6885986328125 C 65.64806365966797 89.50740814208984 57.4440803527832 100.45851135253906 58.46091079711914 124.13981628417969" stroke-width="3.0" fill="none" stroke="rgb(0, 0, 0)" stroke-opacity="1.0" stroke-linecap="round" stroke-linejoin="round"/>
    <path d="M 108.1189956665039 178.03724670410156 C 143.15989685058594 177.49095153808594 123.49461364746094 175.44061279296875 125.511962890625 173.74301147460938" stroke-width="3.0" fill="none" stroke="rgb(0, 0, 0)" stroke-opacity="1.0" stroke-linecap="round" stroke-linejoin="round"/>
    <path d="M 127.73188781738281 180.7820587158203 C 120.01483154296875 148.80482482910156 139.98104858398438 169.36441040039062 125.8724136352539 105.11211395263672" stroke-width="3.0" fill="none" stroke="rgb(0, 0, 0)" stroke-opacity="1.0" stroke-linecap="round" stroke-linejoin="round"/>
    <path d="M 45.81363296508789 152.25857543945312 C 51.863304138183594 120.71565246582031 57.90889358520508 134.56231689453125 64.73284149169922 104.53944396972656" stroke-width="3.0" fill="none" stroke="rgb(0, 0, 0)" stroke-opacity="1.0" stroke-linecap="round" stroke-linejoin="round"/>
    <path d="M 19.99721336364746 174.2565155029297 C 34.70554733276367 193.83740234375 54.786476135253906 186.11453247070312 53.03488540649414 188.9800262451172" stroke-width="3.0" fill="none" stroke="rgb(0, 0, 0)" stroke-opacity="1.0" stroke-linecap="round" stroke-linejoin="round"/>
    <path d="M 62.16629409790039 67.32109069824219 C 100.64545440673828 38.61967849731445 88.743408203125 31.985050201416016 88.95917510986328 74.19611358642578" stroke-width="3.0" fill="none" stroke="rgb(0, 0, 0)" stroke-opacity="1.0" stroke-linecap="round" stroke-linejoin="round"/>
    <path d="M 90.78269958496094 73.63639068603516 C 85.1071548461914 103.30368041992188 53.60495376586914 66.50373840332031 74.61288452148438 79.58934020996094" stroke-width="3.0" fill="none" stroke="rgb(0, 0, 0)" stroke-opacity="1.0" stroke-linecap="round" stroke-linejoin="round"/>
    <path d="M 50.383392333984375 100.38896942138672 C 33.8641357421875 10.72586727142334 38.90102005004883 66.57160186767578 87.22351837158203 65.26729583740234" stroke-width="3.0" fill="none" stroke="rgb(0, 0, 0)" stroke-opacity="1.0" stroke-linecap="round" stroke-linejoin="round"/>
    <path d="M 106.89124298095703 193.48934936523438 C 44.994808197021484 204.4632110595703 41.66830825805664 178.7177734375 44.738040924072266 149.43174743652344" stroke-width="3.0" fill="none" stroke="rgb(0, 0, 0)" stroke-opacity="1.0" stroke-linecap="round" stroke-linejoin="round"/>
    <path d="M 103.18013000488281 176.0531768798828 C 105.61087036132812 164.37791442871094 105.85408020019531 173.5026092529297 102.90372467041016 143.5827178955078" stroke-width="3.0" fill="none" stroke="rgb(0, 0, 0)" stroke-opacity="1.0" stroke-linecap="round" stroke-linejoin="round"/>
    <path d="M 126.73981475830078 173.61561584472656 C 207.55923461914062 175.25491333007812 198.42115783691406 174.02365112304688 200.00242614746094 182.23484802246094" stroke-width="3.0" fill="none" stroke="rgb(0, 0, 0)" stroke-opacity="1.0" stroke-linecap="round" stroke-linejoin="round"/>
    <path d="M 52.36924743652344 188.72845458984375 C 65.4630126953125 195.89244079589844 49.913631439208984 186.68478393554688 52.258724212646484 187.59690856933594" stroke-width="3.0" fill="none" stroke="rgb(0, 0, 0)" stroke-opacity="1.0" stroke-linecap="round" stroke-linejoin="round"/>
    <path d="M 43.79421615600586 166.50393676757812 C 41.15793228149414 151.85433959960938 45.41653823852539 135.1513214111328 57.74951171875 121.41472625732422" stroke-width="3.0" fill="none" stroke="rgb(0, 0, 0)" stroke-opacity="1.0" stroke-linecap="round" stroke-linejoin="round"/>
    <path d="M 41.76074981689453 99.59260559082031 C 55.16100311279297 77.0778579711914 68.68204498291016 122.63948822021484 61.058319091796875 107.56173706054688" stroke-width="3.0" fill="none" stroke="rgb(0, 0, 0)" stroke-opacity="1.0" stroke-linecap="round" stroke-linejoin="round"/>
    <path d="M 46.1828498840332 181.43861389160156 C 24.056535720825195 172.2176971435547 33.541114807128906 159.437255859375 33.04771423339844 169.51809692382812" stroke-width="3.0" fill="none" stroke="rgb(0, 0, 0)" stroke-opacity="1.0" stroke-linecap="round" stroke-linejoin="round"/>
    <path d="M 62.32420349121094 59.787437438964844 C 54.25383377075195 112.68548583984375 17.295516967773438 47.52646255493164 78.95846557617188 61.681610107421875" stroke-width="3.0" fill="none" stroke="rgb(0, 0, 0)" stroke-opacity="1.0" stroke-linecap="round" stroke-linejoin="round"/>
    <path d="M 47.15095138549805 164.33702087402344 C 63.60808181762695 109.39586639404297 101.20140075683594 139.94886779785156 98.30416107177734 158.22972106933594" stroke-width="3.0" fill="none" stroke="rgb(0, 0, 0)" stroke-opacity="1.0" stroke-linecap="round" stroke-linejoin="round"/>
    <path d="M 86.49594116210938 48.20693588256836 C 70.24006652832031 71.33662414550781 62.08561706542969 58.71397399902344 89.84712982177734 45.062320709228516" stroke-width="3.0" fill="none" stroke="rgb(0, 0, 0)" stroke-opacity="1.0" stroke-linecap="round" stroke-linejoin="round"/>
    <path d="M 46.990230560302734 188.47711181640625 C 42.12370681762695 187.05052185058594 53.85040283203125 189.1912078857422 43.38267517089844 188.10488891601562" stroke-width="3.0" fill="none" stroke="rgb(0, 0, 0)" stroke-opacity="1.0" stroke-linecap="round" stroke-linejoin="round"/>
    <path d="M 126.37748718261719 131.29559326171875 C 134.5803680419922 121.80455780029297 120.34886169433594 56.370887756347656 68.36219787597656 73.86983489990234" stroke-width="3.0" fill="none" stroke="rgb(0, 0, 0)" stroke-opacity="1.0" stroke-linecap="round" stroke-linejoin="round"/>
    <path d="M 60.39836120605469 77.07331085205078 C 13.520831108093262 59.85219955444336 78.73844909667969 110.70587921142578 52.56379318237305 131.70822143554688" stroke-width="3.0" fill="none" stroke="rgb(0, 0, 0)" stroke-opacity="1.0" stroke-linecap="round" stroke-linejoin="round"/>
    <path d="M 57.32182312011719 89.64572143554688 C 81.41962432861328 83.7183609008789 25.461458206176758 107.83330535888672 84.85272979736328 85.99585723876953" stroke-width="3.0" fill="none" stroke="rgb(0, 0, 0)" stroke-opacity="1.0" stroke-linecap="round" stroke-linejoin="round"/>
    <path d="M 32.69639587402344 166.92921447753906 C 16.422897338867188 151.0601043701172 4.760036468505859 182.64540100097656 45.16086959838867 188.10069274902344" stroke-width="3.0" fill="none" stroke="rgb(0, 0, 0)" stroke-opacity="1.0" stroke-linecap="round" stroke-linejoin="round"/>
  </g>
</svg>
