<?xml version="1.0" ?>
<svg xmlns="http://www.w3.org/2000/svg" version="1.1" width="224" height="224">
  <defs/>
  <g>
    <path d="M 97.8094711303711 160.03790283203125 C 100.47615814208984 131.94898986816406 98.05137634277344 149.96533203125 93.73709106445312 124.24497985839844" stroke-width="3.0" fill="none" stroke="rgb(0, 0, 0)" stroke-opacity="1.0" stroke-linecap="round" stroke-linejoin="round"/>
    <path d="M 116.77471160888672 136.48558044433594 C 115.37300872802734 138.64097595214844 114.76577758789062 142.26809692382812 117.17650604248047 136.44981384277344" stroke-width="3.0" fill="none" stroke="rgb(0, 0, 0)" stroke-opacity="1.0" stroke-linecap="round" stroke-linejoin="round"/>
    <path d="M 43.168190002441406 157.79273986816406 C 45.16362762451172 140.02882385253906 48.75779724121094 142.60806274414062 43.85698699951172 151.96585083007812" stroke-width="3.0" fill="none" stroke="rgb(0, 0, 0)" stroke-opacity="1.0" stroke-linecap="round" stroke-linejoin="round"/>
    <path d="M 126.96453094482422 120.20086669921875 C 121.67105865478516 130.66233825683594 121.83187866210938 127.79419708251953 117.04403686523438 136.82870483398438" stroke-width="3.0" fill="none" stroke="rgb(0, 0, 0)" stroke-opacity="1.0" stroke-linecap="round" stroke-linejoin="round"/>
    <path d="M 63.03271484375 111.53399658203125 C 54.77643585205078 102.67987060546875 72.79985809326172 99.77932739257812 65.90262603759766 105.25267028808594" stroke-width="3.0" fill="none" stroke="rgb(0, 0, 0)" stroke-opacity="1.0" stroke-linecap="round" stroke-linejoin="round"/>
    <path d="M 121.72508239746094 129.15304565429688 C 115.16419982910156 137.0129852294922 116.46562957763672 141.5870361328125 117.09265899658203 135.64682006835938" stroke-width="3.0" fill="none" stroke="rgb(0, 0, 0)" stroke-opacity="1.0" stroke-linecap="round" stroke-linejoin="round"/>
    <path d="M 63.42273712158203 106.88011169433594 C 61.88386535644531 110.93920135498047 55.452171325683594 98.15314483642578 63.21441650390625 106.72420501708984" stroke-width="3.0" fill="none" stroke="rgb(0, 0, 0)" stroke-opacity="1.0" stroke-linecap="round" stroke-linejoin="round"/>
    <path d="M 199.6565399169922 182.4583740234375 C 195.53724670410156 186.8718719482422 205.02244567871094 189.5512237548828 130.74472045898438 185.6612548828125" stroke-width="3.0" fill="none" stroke="rgb(0, 0, 0)" stroke-opacity="1.0" stroke-linecap="round" stroke-linejoin="round"/>
    <path d="M 132.542724609375 189.88279724121094 C 126.7342300415039 200.57032775878906 131.0801239013672 190.64068603515625 69.94445037841797 194.9616241455078" stroke-width="3.0" fill="none" stroke="rgb(0, 0, 0)" stroke-opacity="1.0" stroke-linecap="round" stroke-linejoin="round"/>
    <path d="M 34.17926788330078 90.15485382080078 C 69.0384521484375 94.7917709350586 69.77084350585938 107.19171905517578 61.574676513671875 112.62922668457031" stroke-width="3.0" fill="none" stroke="rgb(0, 0, 0)" stroke-opacity="1.0" stroke-linecap="round" stroke-linejoin="round"/>
    <path d="M 105.20771789550781 179.29908752441406 C 143.8319854736328 183.1648406982422 125.22314453125 178.01979064941406 129.53770446777344 182.32864379882812" stroke-width="3.0" fill="none" stroke="rgb(0, 0, 0)" stroke-opacity="1.0" stroke-linecap="round" stroke-linejoin="round"/>
    <path d="M 127.65740966796875 183.0133819580078 C 119.07231140136719 148.1101531982422 140.87905883789062 156.01025390625 122.68150329589844 99.33527374267578" stroke-width="3.0" fill="none" stroke="rgb(0, 0, 0)" stroke-opacity="1.0" stroke-linecap="round" stroke-linejoin="round"/>
    <path d="M 43.83525848388672 151.72479248046875 C 53.74864196777344 118.93272399902344 61.216583251953125 135.52391052246094 61.808082580566406 108.65189361572266" stroke-width="3.0" fill="none" stroke="rgb(0, 0, 0)" stroke-opacity="1.0" stroke-linecap="round" stroke-linejoin="round"/>
    <path d="M 23.27559471130371 178.74864196777344 C 40.464080810546875 194.75921630859375 45.47172927856445 185.76988220214844 56.35663604736328 191.6870880126953" stroke-width="3.0" fill="none" stroke="rgb(0, 0, 0)" stroke-opacity="1.0" stroke-linecap="round" stroke-linejoin="round"/>
    <path d="M 63.67120361328125 64.70428466796875 C 98.17455291748047 35.92853927612305 83.56563568115234 39.337745666503906 92.40059661865234 72.80127716064453" stroke-width="3.0" fill="none" stroke="rgb(0, 0, 0)" stroke-opacity="1.0" stroke-linecap="round" stroke-linejoin="round"/>
    <path d="M 77.87018585205078 73.21265411376953 C 73.74788665771484 95.07289123535156 58.782554626464844 66.99787139892578 79.35509490966797 71.09523010253906" stroke-width="3.0" fill="none" stroke="rgb(0, 0, 0)" stroke-opacity="1.0" stroke-linecap="round" stroke-linejoin="round"/>
    <path d="M 47.21825408935547 99.73030090332031 C 39.6068229675293 15.23341178894043 35.25798416137695 61.56553268432617 75.60221862792969 62.59988021850586" stroke-width="3.0" fill="none" stroke="rgb(0, 0, 0)" stroke-opacity="1.0" stroke-linecap="round" stroke-linejoin="round"/>
    <path d="M 103.21717834472656 194.2764129638672 C 43.33494567871094 201.67254638671875 40.15391159057617 178.225341796875 44.206939697265625 154.51702880859375" stroke-width="3.0" fill="none" stroke="rgb(0, 0, 0)" stroke-opacity="1.0" stroke-linecap="round" stroke-linejoin="round"/>
    <path d="M 97.28414916992188 177.63006591796875 C 101.34302520751953 167.0166778564453 94.73452758789062 169.96658325195312 99.51258850097656 144.8227996826172" stroke-width="3.0" fill="none" stroke="rgb(0, 0, 0)" stroke-opacity="1.0" stroke-linecap="round" stroke-linejoin="round"/>
    <path d="M 128.93125915527344 174.15261840820312 C 202.052734375 173.58912658691406 198.80596923828125 171.1859588623047 201.24554443359375 181.80438232421875" stroke-width="3.0" fill="none" stroke="rgb(0, 0, 0)" stroke-opacity="1.0" stroke-linecap="round" stroke-linejoin="round"/>
    <path d="M 53.735511779785156 189.4027099609375 C 73.75332641601562 197.33334350585938 55.831275939941406 192.33473205566406 51.57061767578125 190.513916015625" stroke-width="3.0" fill="none" stroke="rgb(0, 0, 0)" stroke-opacity="1.0" stroke-linecap="round" stroke-linejoin="round"/>
    <path d="M 43.492469787597656 168.4702911376953 C 39.442447662353516 152.26577758789062 43.05624008178711 137.89634704589844 58.79194259643555 122.88899993896484" stroke-width="3.0" fill="none" stroke="rgb(0, 0, 0)" stroke-opacity="1.0" stroke-linecap="round" stroke-linejoin="round"/>
    <path d="M 40.314510345458984 97.7685775756836 C 59.211124420166016 82.70138549804688 69.75011444091797 119.19314575195312 65.22423553466797 102.23711395263672" stroke-width="3.0" fill="none" stroke="rgb(0, 0, 0)" stroke-opacity="1.0" stroke-linecap="round" stroke-linejoin="round"/>
    <path d="M 46.002296447753906 180.76966857910156 C 22.380760192871094 170.8920135498047 32.62456512451172 164.63308715820312 31.90252685546875 166.15367126464844" stroke-width="3.0" fill="none" stroke="rgb(0, 0, 0)" stroke-opacity="1.0" stroke-linecap="round" stroke-linejoin="round"/>
    <path d="M 58.79885482788086 66.80908203125 C 54.308448791503906 111.27202606201172 20.26287269592285 52.420684814453125 73.83329772949219 59.02031326293945" stroke-width="3.0" fill="none" stroke="rgb(0, 0, 0)" stroke-opacity="1.0" stroke-linecap="round" stroke-linejoin="round"/>
    <path d="M 52.21591567993164 140.43434143066406 C 77.89761352539062 119.73558044433594 102.99994659423828 150.33184814453125 97.89640045166016 160.63150024414062" stroke-width="3.0" fill="none" stroke="rgb(0, 0, 0)" stroke-opacity="1.0" stroke-linecap="round" stroke-linejoin="round"/>
    <path d="M 87.94681549072266 46.8214225769043 C 81.44207763671875 57.74872589111328 80.13776397705078 61.987483978271484 81.83877563476562 57.252811431884766" stroke-width="3.0" fill="none" stroke="rgb(0, 0, 0)" stroke-opacity="1.0" stroke-linecap="round" stroke-linejoin="round"/>
    <path d="M 50.15861511230469 189.62274169921875 C 36.686195373535156 188.48912048339844 48.53636932373047 189.4505615234375 48.3282470703125 189.79248046875" stroke-width="3.0" fill="none" stroke="rgb(0, 0, 0)" stroke-opacity="1.0" stroke-linecap="round" stroke-linejoin="round"/>
    <path d="M 125.72511291503906 123.3289566040039 C 128.44873046875 117.58184814453125 126.96821594238281 75.04967498779297 83.25574493408203 71.66712188720703" stroke-width="3.0" fill="none" stroke="rgb(0, 0, 0)" stroke-opacity="1.0" stroke-linecap="round" stroke-linejoin="round"/>
    <path d="M 57.240074157714844 75.43921661376953 C 17.600688934326172 84.70130920410156 79.43544006347656 95.44052124023438 52.528663635253906 133.55422973632812" stroke-width="3.0" fill="none" stroke="rgb(0, 0, 0)" stroke-opacity="1.0" stroke-linecap="round" stroke-linejoin="round"/>
    <path d="M 59.43107986450195 83.59892272949219 C 81.70193481445312 88.33011627197266 33.564231872558594 95.4447021484375 72.88394165039062 86.3786392211914" stroke-width="3.0" fill="none" stroke="rgb(0, 0, 0)" stroke-opacity="1.0" stroke-linecap="round" stroke-linejoin="round"/>
    <path d="M 30.968862533569336 165.73069763183594 C 17.11163902282715 152.66062927246094 3.158475399017334 183.3705291748047 50.141544342041016 189.6183624267578" stroke-width="3.0" fill="none" stroke="rgb(0, 0, 0)" stroke-opacity="1.0" stroke-linecap="round" stroke-linejoin="round"/>
  </g>
</svg>
