<?xml version="1.0" ?>
<svg xmlns="http://www.w3.org/2000/svg" version="1.1" width="224" height="224">
  <defs/>
  <g>
    <path d="M 99.43622589111328 157.55686950683594 C 96.47859191894531 132.459228515625 100.77059936523438 146.58197021484375 93.11640930175781 122.4750747680664" stroke-width="3.0" fill="none" stroke="rgb(0, 0, 0)" stroke-opacity="1.0" stroke-linecap="round" stroke-linejoin="round"/>
    <path d="M 117.04376220703125 137.345458984375 C 115.5942611694336 139.8162841796875 114.41106414794922 143.2283477783203 116.88880920410156 137.22373962402344" stroke-width="3.0" fill="none" stroke="rgb(0, 0, 0)" stroke-opacity="1.0" stroke-linecap="round" stroke-linejoin="round"/>
    <path d="M 43.65166091918945 153.98773193359375 C 46.918277740478516 140.32179260253906 42.19601058959961 142.94114685058594 42.85317611694336 150.864990234375" stroke-width="3.0" fill="none" stroke="rgb(0, 0, 0)" stroke-opacity="1.0" stroke-linecap="round" stroke-linejoin="round"/>
    <path d="M 125.7410888671875 119.94926452636719 C 121.52660369873047 132.4470672607422 120.81904602050781 127.66156768798828 116.57177734375 140.32974243164062" stroke-width="3.0" fill="none" stroke="rgb(0, 0, 0)" stroke-opacity="1.0" stroke-linecap="round" stroke-linejoin="round"/>
    <path d="M 62.97175598144531 112.29762268066406 C 54.05029296875 102.69355773925781 70.78790283203125 99.09748840332031 65.75262451171875 104.5748062133789" stroke-width="3.0" fill="none" stroke="rgb(0, 0, 0)" stroke-opacity="1.0" stroke-linecap="round" stroke-linejoin="round"/>
    <path d="M 121.26445007324219 129.3191680908203 C 115.74569702148438 136.73086547851562 115.95404815673828 139.2076416015625 117.45591735839844 135.333984375" stroke-width="3.0" fill="none" stroke="rgb(0, 0, 0)" stroke-opacity="1.0" stroke-linecap="round" stroke-linejoin="round"/>
    <path d="M 65.5743179321289 108.93778991699219 C 61.99082946777344 111.82933807373047 55.649417877197266 99.8441162109375 65.36695861816406 109.19600677490234" stroke-width="3.0" fill="none" stroke="rgb(0, 0, 0)" stroke-opacity="1.0" stroke-linecap="round" stroke-linejoin="round"/>
    <path d="M 200.85586547851562 183.06591796875 C 201.03414916992188 185.25332641601562 206.56723022460938 188.5241241455078 132.1417999267578 184.04168701171875" stroke-width="3.0" fill="none" stroke="rgb(0, 0, 0)" stroke-opacity="1.0" stroke-linecap="round" stroke-linejoin="round"/>
    <path d="M 131.6442108154297 188.426513671875 C 130.25758361816406 201.89871215820312 131.44822692871094 193.0660400390625 73.84176635742188 195.24961853027344" stroke-width="3.0" fill="none" stroke="rgb(0, 0, 0)" stroke-opacity="1.0" stroke-linecap="round" stroke-linejoin="round"/>
    <path d="M 34.054954528808594 90.99203491210938 C 67.69026947021484 97.22404479980469 70.11577606201172 109.31292724609375 63.30996322631836 111.05597686767578" stroke-width="3.0" fill="none" stroke="rgb(0, 0, 0)" stroke-opacity="1.0" stroke-linecap="round" stroke-linejoin="round"/>
    <path d="M 102.91921997070312 179.2198944091797 C 145.5244140625 185.05490112304688 126.3379898071289 179.59506225585938 131.3557586669922 182.01104736328125" stroke-width="3.0" fill="none" stroke="rgb(0, 0, 0)" stroke-opacity="1.0" stroke-linecap="round" stroke-linejoin="round"/>
    <path d="M 125.45735931396484 180.5030059814453 C 118.65160369873047 152.47265625 140.71533203125 154.20140075683594 122.88359832763672 97.90869903564453" stroke-width="3.0" fill="none" stroke="rgb(0, 0, 0)" stroke-opacity="1.0" stroke-linecap="round" stroke-linejoin="round"/>
    <path d="M 46.02306365966797 155.24588012695312 C 53.3994255065918 117.88397216796875 61.55243682861328 134.09263610839844 62.063133239746094 108.8174057006836" stroke-width="3.0" fill="none" stroke="rgb(0, 0, 0)" stroke-opacity="1.0" stroke-linecap="round" stroke-linejoin="round"/>
    <path d="M 24.760700225830078 178.887451171875 C 43.908390045166016 192.88668823242188 47.03351974487305 186.46092224121094 56.718116760253906 192.17576599121094" stroke-width="3.0" fill="none" stroke="rgb(0, 0, 0)" stroke-opacity="1.0" stroke-linecap="round" stroke-linejoin="round"/>
    <path d="M 65.91860961914062 63.03303146362305 C 97.02289581298828 35.04368209838867 83.90254211425781 39.12370681762695 91.41465759277344 72.99097442626953" stroke-width="3.0" fill="none" stroke="rgb(0, 0, 0)" stroke-opacity="1.0" stroke-linecap="round" stroke-linejoin="round"/>
    <path d="M 79.01461791992188 72.37953186035156 C 72.7620849609375 92.89276123046875 64.76090240478516 62.413089752197266 78.6045150756836 71.35969543457031" stroke-width="3.0" fill="none" stroke="rgb(0, 0, 0)" stroke-opacity="1.0" stroke-linecap="round" stroke-linejoin="round"/>
    <path d="M 46.037940979003906 99.61550903320312 C 44.10704040527344 15.604018211364746 36.70283889770508 59.895713806152344 74.4712142944336 62.085899353027344" stroke-width="3.0" fill="none" stroke="rgb(0, 0, 0)" stroke-opacity="1.0" stroke-linecap="round" stroke-linejoin="round"/>
    <path d="M 105.4335708618164 194.13511657714844 C 43.47172164916992 201.95872497558594 40.930633544921875 178.19886779785156 46.565277099609375 147.0264129638672" stroke-width="3.0" fill="none" stroke="rgb(0, 0, 0)" stroke-opacity="1.0" stroke-linecap="round" stroke-linejoin="round"/>
    <path d="M 99.14253997802734 178.41798400878906 C 105.97122955322266 167.6703643798828 99.01675415039062 166.34571838378906 97.70327758789062 143.807861328125" stroke-width="3.0" fill="none" stroke="rgb(0, 0, 0)" stroke-opacity="1.0" stroke-linecap="round" stroke-linejoin="round"/>
    <path d="M 128.2783966064453 171.8357391357422 C 204.6348419189453 172.4145965576172 199.53466796875 170.89239501953125 200.19113159179688 183.1659698486328" stroke-width="3.0" fill="none" stroke="rgb(0, 0, 0)" stroke-opacity="1.0" stroke-linecap="round" stroke-linejoin="round"/>
    <path d="M 48.983612060546875 188.2449188232422 C 73.05460357666016 197.8228302001953 58.20476531982422 190.7868194580078 56.23627853393555 189.463623046875" stroke-width="3.0" fill="none" stroke="rgb(0, 0, 0)" stroke-opacity="1.0" stroke-linecap="round" stroke-linejoin="round"/>
    <path d="M 45.263980865478516 169.97698974609375 C 38.97524642944336 149.6601104736328 41.462310791015625 137.50051879882812 56.69486999511719 121.41836547851562" stroke-width="3.0" fill="none" stroke="rgb(0, 0, 0)" stroke-opacity="1.0" stroke-linecap="round" stroke-linejoin="round"/>
    <path d="M 37.685237884521484 94.30625915527344 C 58.28925323486328 83.78377532958984 67.08198547363281 120.7951889038086 63.047279357910156 106.82855224609375" stroke-width="3.0" fill="none" stroke="rgb(0, 0, 0)" stroke-opacity="1.0" stroke-linecap="round" stroke-linejoin="round"/>
    <path d="M 47.245269775390625 179.5910186767578 C 23.43173599243164 173.78396606445312 36.72653579711914 165.9606475830078 30.762941360473633 167.27037048339844" stroke-width="3.0" fill="none" stroke="rgb(0, 0, 0)" stroke-opacity="1.0" stroke-linecap="round" stroke-linejoin="round"/>
    <path d="M 56.10556411743164 65.47167205810547 C 57.70430374145508 108.54220581054688 24.568828582763672 53.02519989013672 75.516357421875 58.05970001220703" stroke-width="3.0" fill="none" stroke="rgb(0, 0, 0)" stroke-opacity="1.0" stroke-linecap="round" stroke-linejoin="round"/>
    <path d="M 55.33994674682617 136.60069274902344 C 78.63899230957031 117.43586730957031 102.82479095458984 148.9503173828125 101.7588882446289 161.91741943359375" stroke-width="3.0" fill="none" stroke="rgb(0, 0, 0)" stroke-opacity="1.0" stroke-linecap="round" stroke-linejoin="round"/>
    <path d="M 87.17029571533203 47.780845642089844 C 81.60358428955078 55.04411315917969 84.64751434326172 63.60620880126953 80.85919189453125 58.66477966308594" stroke-width="3.0" fill="none" stroke="rgb(0, 0, 0)" stroke-opacity="1.0" stroke-linecap="round" stroke-linejoin="round"/>
    <path d="M 49.59002685546875 189.1150360107422 C 37.04264450073242 188.44992065429688 48.71677017211914 188.36119079589844 48.17546081542969 189.20033264160156" stroke-width="3.0" fill="none" stroke="rgb(0, 0, 0)" stroke-opacity="1.0" stroke-linecap="round" stroke-linejoin="round"/>
    <path d="M 125.27372741699219 121.94662475585938 C 127.90666961669922 115.5113296508789 128.0182342529297 74.9901123046875 83.1806640625 70.76122283935547" stroke-width="3.0" fill="none" stroke="rgb(0, 0, 0)" stroke-opacity="1.0" stroke-linecap="round" stroke-linejoin="round"/>
    <path d="M 54.553932189941406 75.58751678466797 C 20.66705894470215 87.85999298095703 79.27537536621094 93.42623138427734 51.319190979003906 133.93527221679688" stroke-width="3.0" fill="none" stroke="rgb(0, 0, 0)" stroke-opacity="1.0" stroke-linecap="round" stroke-linejoin="round"/>
    <path d="M 60.090606689453125 83.79865264892578 C 82.08502197265625 92.7286148071289 34.46957778930664 96.12836456298828 72.39202117919922 85.69612121582031" stroke-width="3.0" fill="none" stroke="rgb(0, 0, 0)" stroke-opacity="1.0" stroke-linecap="round" stroke-linejoin="round"/>
    <path d="M 33.568809509277344 167.7528533935547 C 17.692584991455078 152.3866424560547 3.742657423019409 183.5235595703125 50.18732452392578 188.53317260742188" stroke-width="3.0" fill="none" stroke="rgb(0, 0, 0)" stroke-opacity="1.0" stroke-linecap="round" stroke-linejoin="round"/>
  </g>
</svg>
