<?xml version="1.0" ?>
<svg xmlns="http://www.w3.org/2000/svg" version="1.1" width="224" height="224">
  <defs/>
  <g>
    <path d="M 103.41323852539062 168.98565673828125 C 106.11863708496094 151.74545288085938 107.53997039794922 150.86550903320312 94.35811614990234 117.32275390625" stroke-width="3.0" fill="none" stroke="rgb(0, 0, 0)" stroke-opacity="1.0" stroke-linecap="round" stroke-linejoin="round"/>
    <path d="M 129.06141662597656 142.6704559326172 C 118.99542999267578 128.5106201171875 127.90867614746094 130.4224853515625 130.0209503173828 139.5224609375" stroke-width="3.0" fill="none" stroke="rgb(0, 0, 0)" stroke-opacity="1.0" stroke-linecap="round" stroke-linejoin="round"/>
    <path d="M 42.74863052368164 164.46316528320312 C 52.627540588378906 137.0788116455078 43.907562255859375 134.6556854248047 45.63257598876953 163.63365173339844" stroke-width="3.0" fill="none" stroke="rgb(0, 0, 0)" stroke-opacity="1.0" stroke-linecap="round" stroke-linejoin="round"/>
    <path d="M 127.82870483398438 119.6158218383789 C 128.76873779296875 138.1745147705078 124.87720489501953 132.55870056152344 126.153564453125 137.6729736328125" stroke-width="3.0" fill="none" stroke="rgb(0, 0, 0)" stroke-opacity="1.0" stroke-linecap="round" stroke-linejoin="round"/>
    <path d="M 60.011817932128906 118.573486328125 C 69.25167846679688 95.4490737915039 58.38344955444336 84.03759002685547 58.96660232543945 108.5607681274414" stroke-width="3.0" fill="none" stroke="rgb(0, 0, 0)" stroke-opacity="1.0" stroke-linecap="round" stroke-linejoin="round"/>
    <path d="M 127.13062286376953 121.19819641113281 C 121.5963363647461 140.3607940673828 129.7158660888672 140.63104248046875 127.09488677978516 114.4847183227539" stroke-width="3.0" fill="none" stroke="rgb(0, 0, 0)" stroke-opacity="1.0" stroke-linecap="round" stroke-linejoin="round"/>
    <path d="M 60.212867736816406 121.69648742675781 C 62.2114372253418 86.74141693115234 39.53740310668945 80.45320892333984 61.092926025390625 108.71764373779297" stroke-width="3.0" fill="none" stroke="rgb(0, 0, 0)" stroke-opacity="1.0" stroke-linecap="round" stroke-linejoin="round"/>
    <path d="M 199.29208374023438 178.49136352539062 C 201.13980102539062 186.6005859375 201.19224548339844 190.0909423828125 131.35874938964844 184.32452392578125" stroke-width="3.0" fill="none" stroke="rgb(0, 0, 0)" stroke-opacity="1.0" stroke-linecap="round" stroke-linejoin="round"/>
    <path d="M 132.34812927246094 188.84536743164062 C 130.28213500976562 201.08677673339844 129.4576416015625 189.05142211914062 70.19442749023438 195.09091186523438" stroke-width="3.0" fill="none" stroke="rgb(0, 0, 0)" stroke-opacity="1.0" stroke-linecap="round" stroke-linejoin="round"/>
    <path d="M 35.95594787597656 89.27323913574219 C 60.09151077270508 83.23248291015625 60.384212493896484 103.16307067871094 58.23776626586914 120.15474700927734" stroke-width="3.0" fill="none" stroke="rgb(0, 0, 0)" stroke-opacity="1.0" stroke-linecap="round" stroke-linejoin="round"/>
    <path d="M 107.47282409667969 179.47586059570312 C 140.71641540527344 180.71234130859375 119.72283935546875 186.76312255859375 128.0494384765625 176.77928161621094" stroke-width="3.0" fill="none" stroke="rgb(0, 0, 0)" stroke-opacity="1.0" stroke-linecap="round" stroke-linejoin="round"/>
    <path d="M 128.28916931152344 181.9302215576172 C 118.2574234008789 144.42205810546875 139.13975524902344 170.42677307128906 123.65818786621094 101.41690826416016" stroke-width="3.0" fill="none" stroke="rgb(0, 0, 0)" stroke-opacity="1.0" stroke-linecap="round" stroke-linejoin="round"/>
    <path d="M 45.82487869262695 152.11221313476562 C 52.6609001159668 114.62225341796875 65.61750793457031 136.61465454101562 53.96327590942383 103.4664077758789" stroke-width="3.0" fill="none" stroke="rgb(0, 0, 0)" stroke-opacity="1.0" stroke-linecap="round" stroke-linejoin="round"/>
    <path d="M 19.33281898498535 172.89527893066406 C 32.75907897949219 191.66043090820312 57.52625274658203 187.4402618408203 54.38032531738281 188.64730834960938" stroke-width="3.0" fill="none" stroke="rgb(0, 0, 0)" stroke-opacity="1.0" stroke-linecap="round" stroke-linejoin="round"/>
    <path d="M 66.46163177490234 60.169673919677734 C 99.07919311523438 47.42815399169922 87.93599700927734 34.27798080444336 91.46086883544922 70.62423706054688" stroke-width="3.0" fill="none" stroke="rgb(0, 0, 0)" stroke-opacity="1.0" stroke-linecap="round" stroke-linejoin="round"/>
    <path d="M 88.65560150146484 66.35569763183594 C 94.0703125 111.08879852294922 45.187232971191406 68.74308776855469 73.5442123413086 82.70584106445312" stroke-width="3.0" fill="none" stroke="rgb(0, 0, 0)" stroke-opacity="1.0" stroke-linecap="round" stroke-linejoin="round"/>
    <path d="M 47.970787048339844 101.03020477294922 C 37.04844284057617 7.093415260314941 41.92807388305664 64.1951675415039 91.14022064208984 68.50910949707031" stroke-width="3.0" fill="none" stroke="rgb(0, 0, 0)" stroke-opacity="1.0" stroke-linecap="round" stroke-linejoin="round"/>
    <path d="M 108.30255126953125 193.91873168945312 C 43.91237258911133 203.47767639160156 42.478363037109375 179.85003662109375 45.77885055541992 146.9701385498047" stroke-width="3.0" fill="none" stroke="rgb(0, 0, 0)" stroke-opacity="1.0" stroke-linecap="round" stroke-linejoin="round"/>
    <path d="M 102.21954345703125 177.41000366210938 C 110.53592681884766 164.23486328125 98.00061798095703 170.1494598388672 101.79132080078125 138.39898681640625" stroke-width="3.0" fill="none" stroke="rgb(0, 0, 0)" stroke-opacity="1.0" stroke-linecap="round" stroke-linejoin="round"/>
    <path d="M 127.57645416259766 171.36614990234375 C 209.21163940429688 172.25619506835938 200.0619354248047 172.07057189941406 201.42633056640625 181.6588134765625" stroke-width="3.0" fill="none" stroke="rgb(0, 0, 0)" stroke-opacity="1.0" stroke-linecap="round" stroke-linejoin="round"/>
    <path d="M 52.38950729370117 187.8759307861328 C 62.77286911010742 195.8129425048828 48.68413543701172 186.30923461914062 52.29707336425781 186.5557861328125" stroke-width="3.0" fill="none" stroke="rgb(0, 0, 0)" stroke-opacity="1.0" stroke-linecap="round" stroke-linejoin="round"/>
    <path d="M 44.90412139892578 174.42227172851562 C 39.39615249633789 148.27796936035156 46.50507354736328 138.70399475097656 59.69146728515625 120.54104614257812" stroke-width="3.0" fill="none" stroke="rgb(0, 0, 0)" stroke-opacity="1.0" stroke-linecap="round" stroke-linejoin="round"/>
    <path d="M 38.99573516845703 98.72260284423828 C 61.27574157714844 74.2411117553711 67.56964874267578 120.83470153808594 57.26169967651367 107.86917114257812" stroke-width="3.0" fill="none" stroke="rgb(0, 0, 0)" stroke-opacity="1.0" stroke-linecap="round" stroke-linejoin="round"/>
    <path d="M 47.68701171875 181.578369140625 C 22.522674560546875 175.81317138671875 35.15321731567383 165.49485778808594 30.818073272705078 166.33094787597656" stroke-width="3.0" fill="none" stroke="rgb(0, 0, 0)" stroke-opacity="1.0" stroke-linecap="round" stroke-linejoin="round"/>
    <path d="M 56.05515670776367 60.97932434082031 C 47.049293518066406 109.97976684570312 23.520519256591797 53.895538330078125 79.54771423339844 61.47528839111328" stroke-width="3.0" fill="none" stroke="rgb(0, 0, 0)" stroke-opacity="1.0" stroke-linecap="round" stroke-linejoin="round"/>
    <path d="M 45.719879150390625 168.37631225585938 C 56.66000747680664 110.41358947753906 104.5206527709961 138.79562377929688 96.46119689941406 158.78273010253906" stroke-width="3.0" fill="none" stroke="rgb(0, 0, 0)" stroke-opacity="1.0" stroke-linecap="round" stroke-linejoin="round"/>
    <path d="M 81.28408813476562 57.27808380126953 C 66.29218292236328 86.11729431152344 57.2400016784668 63.58670425415039 90.85737609863281 44.90790557861328" stroke-width="3.0" fill="none" stroke="rgb(0, 0, 0)" stroke-opacity="1.0" stroke-linecap="round" stroke-linejoin="round"/>
    <path d="M 40.20143508911133 187.82252502441406 C 42.54130554199219 185.1004638671875 51.48290252685547 189.37509155273438 35.11528778076172 185.37457275390625" stroke-width="3.0" fill="none" stroke="rgb(0, 0, 0)" stroke-opacity="1.0" stroke-linecap="round" stroke-linejoin="round"/>
    <path d="M 124.53135681152344 129.72134399414062 C 137.6006317138672 122.1740951538086 114.99125671386719 57.18949508666992 63.62186050415039 72.78224182128906" stroke-width="3.0" fill="none" stroke="rgb(0, 0, 0)" stroke-opacity="1.0" stroke-linecap="round" stroke-linejoin="round"/>
    <path d="M 59.621856689453125 77.57698822021484 C 10.457991600036621 68.74171447753906 81.44930267333984 111.22637176513672 49.36643981933594 137.74343872070312" stroke-width="3.0" fill="none" stroke="rgb(0, 0, 0)" stroke-opacity="1.0" stroke-linecap="round" stroke-linejoin="round"/>
    <path d="M 57.43532180786133 87.73519134521484 C 78.1541976928711 80.12055206298828 26.685665130615234 110.55384826660156 87.38347625732422 91.29815673828125" stroke-width="3.0" fill="none" stroke="rgb(0, 0, 0)" stroke-opacity="1.0" stroke-linecap="round" stroke-linejoin="round"/>
    <path d="M 31.35306167602539 165.2654266357422 C 16.894580841064453 156.18496704101562 7.385714530944824 180.70924377441406 43.45743942260742 187.97015380859375" stroke-width="3.0" fill="none" stroke="rgb(0, 0, 0)" stroke-opacity="1.0" stroke-linecap="round" stroke-linejoin="round"/>
  </g>
</svg>
