<?xml version="1.0" ?>
<svg xmlns="http://www.w3.org/2000/svg" version="1.1" width="224" height="224">
  <defs/>
  <g>
    <path d="M 94.06414031982422 139.71441650390625 C 88.74713897705078 132.63720703125 94.89225769042969 144.18023681640625 88.15986633300781 124.826416015625" stroke-width="3.0" fill="none" stroke="rgb(0, 0, 0)" stroke-opacity="1.0" stroke-linecap="round" stroke-linejoin="round"/>
    <path d="M 113.68292999267578 141.06800842285156 C 109.74111938476562 150.68214416503906 109.36412048339844 149.1949462890625 114.62803649902344 139.0146942138672" stroke-width="3.0" fill="none" stroke="rgb(0, 0, 0)" stroke-opacity="1.0" stroke-linecap="round" stroke-linejoin="round"/>
    <path d="M 45.221336364746094 152.99285888671875 C 46.784610748291016 138.34678649902344 46.01383590698242 145.82403564453125 45.09711456298828 151.0113525390625" stroke-width="3.0" fill="none" stroke="rgb(0, 0, 0)" stroke-opacity="1.0" stroke-linecap="round" stroke-linejoin="round"/>
    <path d="M 121.53678131103516 119.89130401611328 C 120.02613067626953 131.96583557128906 122.0214614868164 126.3583755493164 113.40145874023438 141.94216918945312" stroke-width="3.0" fill="none" stroke="rgb(0, 0, 0)" stroke-opacity="1.0" stroke-linecap="round" stroke-linejoin="round"/>
    <path d="M 68.08702087402344 113.3086929321289 C 54.02666473388672 100.84528350830078 62.22764587402344 103.77633666992188 63.59561538696289 110.02959442138672" stroke-width="3.0" fill="none" stroke="rgb(0, 0, 0)" stroke-opacity="1.0" stroke-linecap="round" stroke-linejoin="round"/>
    <path d="M 114.51708221435547 137.43614196777344 C 110.31417846679688 143.74513244628906 112.53516387939453 150.3831024169922 112.33566284179688 145.2571563720703" stroke-width="3.0" fill="none" stroke="rgb(0, 0, 0)" stroke-opacity="1.0" stroke-linecap="round" stroke-linejoin="round"/>
    <path d="M 66.42133331298828 114.1373519897461 C 60.63679122924805 111.81446075439453 61.77315139770508 95.28105163574219 63.85380554199219 113.60213470458984" stroke-width="3.0" fill="none" stroke="rgb(0, 0, 0)" stroke-opacity="1.0" stroke-linecap="round" stroke-linejoin="round"/>
    <path d="M 200.2349853515625 184.11233520507812 C 197.79066467285156 183.81317138671875 204.6104736328125 188.6756591796875 134.2234344482422 187.05123901367188" stroke-width="3.0" fill="none" stroke="rgb(0, 0, 0)" stroke-opacity="1.0" stroke-linecap="round" stroke-linejoin="round"/>
    <path d="M 129.77720642089844 189.48800659179688 C 127.62333679199219 197.2225799560547 128.63558959960938 189.6700897216797 85.5102310180664 195.21160888671875" stroke-width="3.0" fill="none" stroke="rgb(0, 0, 0)" stroke-opacity="1.0" stroke-linecap="round" stroke-linejoin="round"/>
    <path d="M 41.1016845703125 80.52595520019531 C 59.817298889160156 109.85388946533203 83.49351501464844 114.49654388427734 63.15259552001953 112.10591125488281" stroke-width="3.0" fill="none" stroke="rgb(0, 0, 0)" stroke-opacity="1.0" stroke-linecap="round" stroke-linejoin="round"/>
    <path d="M 108.39826202392578 175.99664306640625 C 123.4114761352539 176.84185791015625 133.44692993164062 170.20204162597656 133.91314697265625 177.3803253173828" stroke-width="3.0" fill="none" stroke="rgb(0, 0, 0)" stroke-opacity="1.0" stroke-linecap="round" stroke-linejoin="round"/>
    <path d="M 127.83740234375 172.44046020507812 C 129.66624450683594 147.99440002441406 138.63722229003906 128.61456298828125 121.60166931152344 95.45970916748047" stroke-width="3.0" fill="none" stroke="rgb(0, 0, 0)" stroke-opacity="1.0" stroke-linecap="round" stroke-linejoin="round"/>
    <path d="M 44.265804290771484 152.7310791015625 C 49.699951171875 123.02088928222656 55.35195541381836 137.8212890625 58.77263641357422 119.5221176147461" stroke-width="3.0" fill="none" stroke="rgb(0, 0, 0)" stroke-opacity="1.0" stroke-linecap="round" stroke-linejoin="round"/>
    <path d="M 27.365352630615234 182.4443817138672 C 43.79578399658203 192.6242218017578 50.248260498046875 185.43582153320312 55.0380973815918 191.7012176513672" stroke-width="3.0" fill="none" stroke="rgb(0, 0, 0)" stroke-opacity="1.0" stroke-linecap="round" stroke-linejoin="round"/>
    <path d="M 66.15406799316406 63.617034912109375 C 97.1954116821289 36.20051193237305 88.64934539794922 38.811729431152344 89.4813232421875 69.4178695678711" stroke-width="3.0" fill="none" stroke="rgb(0, 0, 0)" stroke-opacity="1.0" stroke-linecap="round" stroke-linejoin="round"/>
    <path d="M 82.74878692626953 72.33236694335938 C 62.89149856567383 90.5065689086914 64.78278350830078 58.50993728637695 80.21221923828125 74.9151382446289" stroke-width="3.0" fill="none" stroke="rgb(0, 0, 0)" stroke-opacity="1.0" stroke-linecap="round" stroke-linejoin="round"/>
    <path d="M 43.08844757080078 78.27144622802734 C 44.736820220947266 33.69872283935547 32.669036865234375 48.70880889892578 70.55297088623047 64.6883544921875" stroke-width="3.0" fill="none" stroke="rgb(0, 0, 0)" stroke-opacity="1.0" stroke-linecap="round" stroke-linejoin="round"/>
    <path d="M 106.57789611816406 193.8745574951172 C 41.059906005859375 204.07131958007812 38.84896469116211 181.38218688964844 47.85440444946289 139.6750030517578" stroke-width="3.0" fill="none" stroke="rgb(0, 0, 0)" stroke-opacity="1.0" stroke-linecap="round" stroke-linejoin="round"/>
    <path d="M 99.39715576171875 177.85972595214844 C 105.89993286132812 167.37440490722656 107.86512756347656 152.5537567138672 95.91205596923828 141.8892822265625" stroke-width="3.0" fill="none" stroke="rgb(0, 0, 0)" stroke-opacity="1.0" stroke-linecap="round" stroke-linejoin="round"/>
    <path d="M 133.28111267089844 174.7217559814453 C 196.42747497558594 174.1238555908203 205.5692901611328 170.79373168945312 199.57154846191406 184.61007690429688" stroke-width="3.0" fill="none" stroke="rgb(0, 0, 0)" stroke-opacity="1.0" stroke-linecap="round" stroke-linejoin="round"/>
    <path d="M 58.65995788574219 193.3647003173828 C 67.6516342163086 196.43565368652344 55.66030502319336 192.8399200439453 50.50344467163086 189.7165985107422" stroke-width="3.0" fill="none" stroke="rgb(0, 0, 0)" stroke-opacity="1.0" stroke-linecap="round" stroke-linejoin="round"/>
    <path d="M 44.086666107177734 168.95733642578125 C 40.76036071777344 153.35012817382812 40.777217864990234 141.78628540039062 57.83448028564453 120.23394012451172" stroke-width="3.0" fill="none" stroke="rgb(0, 0, 0)" stroke-opacity="1.0" stroke-linecap="round" stroke-linejoin="round"/>
    <path d="M 60.691627502441406 107.48209381103516 C 62.08832931518555 106.4784927368164 65.79361724853516 122.63218688964844 62.36298370361328 109.28878784179688" stroke-width="3.0" fill="none" stroke="rgb(0, 0, 0)" stroke-opacity="1.0" stroke-linecap="round" stroke-linejoin="round"/>
    <path d="M 45.0748405456543 181.38414001464844 C 22.82612419128418 171.98817443847656 34.862545013427734 168.4285430908203 29.389816284179688 166.0758514404297" stroke-width="3.0" fill="none" stroke="rgb(0, 0, 0)" stroke-opacity="1.0" stroke-linecap="round" stroke-linejoin="round"/>
    <path d="M 54.85157775878906 69.35118103027344 C 47.00133514404297 98.91907501220703 32.655208587646484 53.86035919189453 71.22163391113281 60.63752746582031" stroke-width="3.0" fill="none" stroke="rgb(0, 0, 0)" stroke-opacity="1.0" stroke-linecap="round" stroke-linejoin="round"/>
    <path d="M 63.631324768066406 125.98556518554688 C 86.81936645507812 126.8323745727539 97.54395294189453 148.0984344482422 103.19376373291016 150.2489776611328" stroke-width="3.0" fill="none" stroke="rgb(0, 0, 0)" stroke-opacity="1.0" stroke-linecap="round" stroke-linejoin="round"/>
    <path d="M 89.14422607421875 49.233367919921875 C 81.5234375 52.95844268798828 90.61444854736328 72.46089935302734 86.79652404785156 52.99586486816406" stroke-width="3.0" fill="none" stroke="rgb(0, 0, 0)" stroke-opacity="1.0" stroke-linecap="round" stroke-linejoin="round"/>
    <path d="M 45.875282287597656 189.03822326660156 C 32.17286682128906 187.2387237548828 41.89187240600586 187.9870147705078 45.72258758544922 188.4305419921875" stroke-width="3.0" fill="none" stroke="rgb(0, 0, 0)" stroke-opacity="1.0" stroke-linecap="round" stroke-linejoin="round"/>
    <path d="M 122.39897155761719 118.90901947021484 C 126.39765167236328 108.27376556396484 128.61044311523438 81.12887573242188 89.34385681152344 75.138671875" stroke-width="3.0" fill="none" stroke="rgb(0, 0, 0)" stroke-opacity="1.0" stroke-linecap="round" stroke-linejoin="round"/>
    <path d="M 50.249427795410156 85.29615783691406 C 23.340993881225586 87.02796173095703 70.01668548583984 88.5876693725586 56.37984848022461 126.7847671508789" stroke-width="3.0" fill="none" stroke="rgb(0, 0, 0)" stroke-opacity="1.0" stroke-linecap="round" stroke-linejoin="round"/>
    <path d="M 54.13199234008789 82.51852416992188 C 77.94879150390625 83.27731323242188 50.55107116699219 92.3185806274414 65.77421569824219 81.87687683105469" stroke-width="3.0" fill="none" stroke="rgb(0, 0, 0)" stroke-opacity="1.0" stroke-linecap="round" stroke-linejoin="round"/>
    <path d="M 31.615076065063477 167.21548461914062 C 18.17273712158203 154.6119842529297 4.5663933753967285 180.4144287109375 41.52198028564453 188.2558135986328" stroke-width="3.0" fill="none" stroke="rgb(0, 0, 0)" stroke-opacity="1.0" stroke-linecap="round" stroke-linejoin="round"/>
  </g>
</svg>
