<?xml version="1.0" ?>
<svg xmlns="http://www.w3.org/2000/svg" version="1.1" width="224" height="224">
  <defs/>
  <g>
    <path d="M 100.55792999267578 150.66041564941406 C 95.43611907958984 132.69837951660156 101.52721405029297 141.9013214111328 94.75598907470703 121.69349670410156" stroke-width="3.0" fill="none" stroke="rgb(0, 0, 0)" stroke-opacity="1.0" stroke-linecap="round" stroke-linejoin="round"/>
    <path d="M 115.56747436523438 140.54934692382812 C 114.97188568115234 144.37942504882812 114.26138305664062 146.8667449951172 115.68814086914062 139.21908569335938" stroke-width="3.0" fill="none" stroke="rgb(0, 0, 0)" stroke-opacity="1.0" stroke-linecap="round" stroke-linejoin="round"/>
    <path d="M 44.903324127197266 151.50347900390625 C 47.156463623046875 138.7544403076172 45.35422134399414 145.48660278320312 44.76811218261719 151.4622802734375" stroke-width="3.0" fill="none" stroke="rgb(0, 0, 0)" stroke-opacity="1.0" stroke-linecap="round" stroke-linejoin="round"/>
    <path d="M 122.89306640625 121.87905883789062 C 120.59876251220703 135.23057556152344 120.91806030273438 123.39422607421875 114.70632934570312 141.59165954589844" stroke-width="3.0" fill="none" stroke="rgb(0, 0, 0)" stroke-opacity="1.0" stroke-linecap="round" stroke-linejoin="round"/>
    <path d="M 70.9015884399414 110.05194091796875 C 53.4361686706543 103.20091247558594 64.17706298828125 103.18086242675781 63.99357223510742 112.08221435546875" stroke-width="3.0" fill="none" stroke="rgb(0, 0, 0)" stroke-opacity="1.0" stroke-linecap="round" stroke-linejoin="round"/>
    <path d="M 117.27442932128906 134.8149871826172 C 114.94709014892578 141.80230712890625 116.1988296508789 145.52651977539062 115.36260986328125 140.64340209960938" stroke-width="3.0" fill="none" stroke="rgb(0, 0, 0)" stroke-opacity="1.0" stroke-linecap="round" stroke-linejoin="round"/>
    <path d="M 67.19719696044922 110.8689956665039 C 61.99622344970703 114.58157348632812 55.68058776855469 101.79037475585938 65.68009185791016 110.88607788085938" stroke-width="3.0" fill="none" stroke="rgb(0, 0, 0)" stroke-opacity="1.0" stroke-linecap="round" stroke-linejoin="round"/>
    <path d="M 197.86453247070312 183.03306579589844 C 198.2828369140625 184.72012329101562 203.94732666015625 188.1280517578125 131.960205078125 184.24864196777344" stroke-width="3.0" fill="none" stroke="rgb(0, 0, 0)" stroke-opacity="1.0" stroke-linecap="round" stroke-linejoin="round"/>
    <path d="M 131.62295532226562 189.90789794921875 C 127.57159423828125 201.30885314941406 121.15887451171875 192.17697143554688 77.92172241210938 196.11105346679688" stroke-width="3.0" fill="none" stroke="rgb(0, 0, 0)" stroke-opacity="1.0" stroke-linecap="round" stroke-linejoin="round"/>
    <path d="M 35.52403259277344 86.26018524169922 C 63.59298324584961 105.43881225585938 77.54972839355469 116.80673217773438 58.887935638427734 112.92823028564453" stroke-width="3.0" fill="none" stroke="rgb(0, 0, 0)" stroke-opacity="1.0" stroke-linecap="round" stroke-linejoin="round"/>
    <path d="M 105.18102264404297 177.8480987548828 C 137.7886962890625 180.9424591064453 125.09111785888672 173.09507751464844 126.93692016601562 181.1430206298828" stroke-width="3.0" fill="none" stroke="rgb(0, 0, 0)" stroke-opacity="1.0" stroke-linecap="round" stroke-linejoin="round"/>
    <path d="M 126.78266906738281 176.72396850585938 C 118.95639038085938 153.1990966796875 140.9180908203125 150.75621032714844 119.53945922851562 95.44184875488281" stroke-width="3.0" fill="none" stroke="rgb(0, 0, 0)" stroke-opacity="1.0" stroke-linecap="round" stroke-linejoin="round"/>
    <path d="M 45.981651306152344 153.57630920410156 C 51.790157318115234 121.24404907226562 59.78858184814453 139.22857666015625 59.62333297729492 118.26589965820312" stroke-width="3.0" fill="none" stroke="rgb(0, 0, 0)" stroke-opacity="1.0" stroke-linecap="round" stroke-linejoin="round"/>
    <path d="M 23.858766555786133 180.59703063964844 C 45.15573501586914 192.8802490234375 50.73353576660156 185.2953338623047 57.523841857910156 191.82269287109375" stroke-width="3.0" fill="none" stroke="rgb(0, 0, 0)" stroke-opacity="1.0" stroke-linecap="round" stroke-linejoin="round"/>
    <path d="M 63.036590576171875 63.11968994140625 C 98.55964660644531 34.11185073852539 89.26734161376953 36.06607437133789 90.03882598876953 70.20649719238281" stroke-width="3.0" fill="none" stroke="rgb(0, 0, 0)" stroke-opacity="1.0" stroke-linecap="round" stroke-linejoin="round"/>
    <path d="M 80.93708038330078 74.3095932006836 C 69.79985046386719 93.06548309326172 63.327152252197266 58.62416458129883 82.32169342041016 72.59873962402344" stroke-width="3.0" fill="none" stroke="rgb(0, 0, 0)" stroke-opacity="1.0" stroke-linecap="round" stroke-linejoin="round"/>
    <path d="M 44.186851501464844 92.2179946899414 C 43.231040954589844 24.436742782592773 34.239295959472656 58.4957160949707 74.39231872558594 61.92582321166992" stroke-width="3.0" fill="none" stroke="rgb(0, 0, 0)" stroke-opacity="1.0" stroke-linecap="round" stroke-linejoin="round"/>
    <path d="M 103.71790313720703 194.62513732910156 C 42.4067268371582 201.83746337890625 39.44255065917969 179.08338928222656 48.4172477722168 137.04270935058594" stroke-width="3.0" fill="none" stroke="rgb(0, 0, 0)" stroke-opacity="1.0" stroke-linecap="round" stroke-linejoin="round"/>
    <path d="M 97.29435729980469 177.4264678955078 C 102.93949127197266 166.744140625 105.23143768310547 157.56907653808594 99.44337463378906 143.5774383544922" stroke-width="3.0" fill="none" stroke="rgb(0, 0, 0)" stroke-opacity="1.0" stroke-linecap="round" stroke-linejoin="round"/>
    <path d="M 129.12635803222656 173.07717895507812 C 203.758544921875 176.08526611328125 203.8167724609375 174.37832641601562 199.25372314453125 182.34828186035156" stroke-width="3.0" fill="none" stroke="rgb(0, 0, 0)" stroke-opacity="1.0" stroke-linecap="round" stroke-linejoin="round"/>
    <path d="M 48.97697067260742 188.04052734375 C 71.18620300292969 197.08480834960938 56.371578216552734 190.62295532226562 55.52692794799805 189.7964630126953" stroke-width="3.0" fill="none" stroke="rgb(0, 0, 0)" stroke-opacity="1.0" stroke-linecap="round" stroke-linejoin="round"/>
    <path d="M 45.1733512878418 168.05174255371094 C 43.788536071777344 145.93893432617188 42.50690460205078 141.63491821289062 60.66246795654297 122.185546875" stroke-width="3.0" fill="none" stroke="rgb(0, 0, 0)" stroke-opacity="1.0" stroke-linecap="round" stroke-linejoin="round"/>
    <path d="M 41.86429214477539 97.1042251586914 C 61.894386291503906 87.38216400146484 60.79983901977539 121.45126342773438 61.62052917480469 106.7699966430664" stroke-width="3.0" fill="none" stroke="rgb(0, 0, 0)" stroke-opacity="1.0" stroke-linecap="round" stroke-linejoin="round"/>
    <path d="M 44.323646545410156 180.9398956298828 C 24.21985626220703 173.21270751953125 34.79173278808594 162.50303649902344 32.031158447265625 167.50030517578125" stroke-width="3.0" fill="none" stroke="rgb(0, 0, 0)" stroke-opacity="1.0" stroke-linecap="round" stroke-linejoin="round"/>
    <path d="M 58.977420806884766 65.51673126220703 C 57.751609802246094 105.68931579589844 16.238170623779297 51.39305114746094 75.07665252685547 57.75057601928711" stroke-width="3.0" fill="none" stroke="rgb(0, 0, 0)" stroke-opacity="1.0" stroke-linecap="round" stroke-linejoin="round"/>
    <path d="M 61.89398193359375 127.92706298828125 C 79.5592269897461 125.97605895996094 105.0950927734375 144.89930725097656 104.35152435302734 156.5419921875" stroke-width="3.0" fill="none" stroke="rgb(0, 0, 0)" stroke-opacity="1.0" stroke-linecap="round" stroke-linejoin="round"/>
    <path d="M 89.91165161132812 48.57396697998047 C 82.88349914550781 51.47356033325195 93.90381622314453 66.99837493896484 86.9237289428711 53.77278137207031" stroke-width="3.0" fill="none" stroke="rgb(0, 0, 0)" stroke-opacity="1.0" stroke-linecap="round" stroke-linejoin="round"/>
    <path d="M 47.121665954589844 188.78211975097656 C 36.87391662597656 187.31080627441406 45.8574333190918 188.51258850097656 47.351051330566406 187.93348693847656" stroke-width="3.0" fill="none" stroke="rgb(0, 0, 0)" stroke-opacity="1.0" stroke-linecap="round" stroke-linejoin="round"/>
    <path d="M 123.71532440185547 121.66551971435547 C 126.1274642944336 114.85881042480469 126.63060760498047 83.06305694580078 88.84869384765625 74.07781982421875" stroke-width="3.0" fill="none" stroke="rgb(0, 0, 0)" stroke-opacity="1.0" stroke-linecap="round" stroke-linejoin="round"/>
    <path d="M 55.10771942138672 74.64067077636719 C 24.045515060424805 95.08013916015625 76.04285430908203 89.52047729492188 53.67827224731445 129.04762268066406" stroke-width="3.0" fill="none" stroke="rgb(0, 0, 0)" stroke-opacity="1.0" stroke-linecap="round" stroke-linejoin="round"/>
    <path d="M 57.12090301513672 84.92436218261719 C 89.3523178100586 96.31350708007812 43.16233825683594 97.18341064453125 67.43102264404297 82.43187713623047" stroke-width="3.0" fill="none" stroke="rgb(0, 0, 0)" stroke-opacity="1.0" stroke-linecap="round" stroke-linejoin="round"/>
    <path d="M 32.94633865356445 164.80921936035156 C 19.476200103759766 154.15223693847656 3.9706876277923584 181.97976684570312 46.81353759765625 187.89810180664062" stroke-width="3.0" fill="none" stroke="rgb(0, 0, 0)" stroke-opacity="1.0" stroke-linecap="round" stroke-linejoin="round"/>
  </g>
</svg>
