<?xml version="1.0" ?>
<svg xmlns="http://www.w3.org/2000/svg" version="1.1" width="224" height="224">
  <defs/>
  <g>
    <path d="M 110.47050476074219 177.73324584960938 C 103.59321594238281 145.30628967285156 106.42802429199219 156.0433807373047 88.43138122558594 125.10658264160156" stroke-width="3.0" fill="none" stroke="rgb(0, 0, 0)" stroke-opacity="1.0" stroke-linecap="round" stroke-linejoin="round"/>
    <path d="M 129.8544464111328 148.66249084472656 C 123.78497314453125 115.69941711425781 138.8994140625 144.06838989257812 128.08827209472656 163.81301879882812" stroke-width="3.0" fill="none" stroke="rgb(0, 0, 0)" stroke-opacity="1.0" stroke-linecap="round" stroke-linejoin="round"/>
    <path d="M 45.13395309448242 168.1549072265625 C 42.64855194091797 156.31578063964844 43.78126525878906 143.7147216796875 44.150203704833984 164.45848083496094" stroke-width="3.0" fill="none" stroke="rgb(0, 0, 0)" stroke-opacity="1.0" stroke-linecap="round" stroke-linejoin="round"/>
    <path d="M 127.95915222167969 119.85224914550781 C 131.9213104248047 140.22064208984375 138.94876098632812 134.2071533203125 129.72390747070312 161.55072021484375" stroke-width="3.0" fill="none" stroke="rgb(0, 0, 0)" stroke-opacity="1.0" stroke-linecap="round" stroke-linejoin="round"/>
    <path d="M 58.559043884277344 126.38847351074219 C 79.02249145507812 85.09477996826172 61.07466125488281 102.48358917236328 64.0444107055664 110.77509307861328" stroke-width="3.0" fill="none" stroke="rgb(0, 0, 0)" stroke-opacity="1.0" stroke-linecap="round" stroke-linejoin="round"/>
    <path d="M 125.29777526855469 104.13809204101562 C 141.2435302734375 135.77696228027344 123.02454376220703 155.13427734375 125.86656188964844 116.91107177734375" stroke-width="3.0" fill="none" stroke="rgb(0, 0, 0)" stroke-opacity="1.0" stroke-linecap="round" stroke-linejoin="round"/>
    <path d="M 58.242347717285156 119.70148468017578 C 68.48884582519531 91.86929321289062 48.45589065551758 88.97891235351562 59.28478240966797 117.73773193359375" stroke-width="3.0" fill="none" stroke="rgb(0, 0, 0)" stroke-opacity="1.0" stroke-linecap="round" stroke-linejoin="round"/>
    <path d="M 200.02056884765625 180.17417907714844 C 200.76010131835938 186.6515350341797 200.665771484375 191.60511779785156 130.21600341796875 185.4584503173828" stroke-width="3.0" fill="none" stroke="rgb(0, 0, 0)" stroke-opacity="1.0" stroke-linecap="round" stroke-linejoin="round"/>
    <path d="M 134.3951416015625 186.98410034179688 C 129.99913024902344 200.1990966796875 141.03721618652344 198.42369079589844 65.95337677001953 188.33245849609375" stroke-width="3.0" fill="none" stroke="rgb(0, 0, 0)" stroke-opacity="1.0" stroke-linecap="round" stroke-linejoin="round"/>
    <path d="M 34.260833740234375 90.44671630859375 C 56.52027893066406 84.8677749633789 61.9317512512207 106.42863464355469 59.16096496582031 121.23200988769531" stroke-width="3.0" fill="none" stroke="rgb(0, 0, 0)" stroke-opacity="1.0" stroke-linecap="round" stroke-linejoin="round"/>
    <path d="M 101.87523651123047 177.78201293945312 C 148.32752990722656 182.54933166503906 127.1230697631836 193.22511291503906 130.6522674560547 187.07069396972656" stroke-width="3.0" fill="none" stroke="rgb(0, 0, 0)" stroke-opacity="1.0" stroke-linecap="round" stroke-linejoin="round"/>
    <path d="M 130.7416534423828 179.8971405029297 C 123.18314361572266 139.95457458496094 135.6245574951172 165.68087768554688 124.71522521972656 102.96820831298828" stroke-width="3.0" fill="none" stroke="rgb(0, 0, 0)" stroke-opacity="1.0" stroke-linecap="round" stroke-linejoin="round"/>
    <path d="M 44.19539260864258 160.9146270751953 C 49.566829681396484 114.10328674316406 65.34332275390625 140.92518615722656 63.018306732177734 100.04106140136719" stroke-width="3.0" fill="none" stroke="rgb(0, 0, 0)" stroke-opacity="1.0" stroke-linecap="round" stroke-linejoin="round"/>
    <path d="M 25.37047004699707 167.08755493164062 C 23.818862915039062 183.3587188720703 55.27872085571289 192.4375 47.383419036865234 180.39352416992188" stroke-width="3.0" fill="none" stroke="rgb(0, 0, 0)" stroke-opacity="1.0" stroke-linecap="round" stroke-linejoin="round"/>
    <path d="M 53.649112701416016 60.177223205566406 C 90.67255401611328 70.32300567626953 89.98170471191406 3.4787819385528564 88.36200714111328 87.59757232666016" stroke-width="3.0" fill="none" stroke="rgb(0, 0, 0)" stroke-opacity="1.0" stroke-linecap="round" stroke-linejoin="round"/>
    <path d="M 74.65589141845703 59.25477600097656 C 108.97193908691406 98.44011688232422 45.44831085205078 75.52538299560547 76.41658782958984 65.41827392578125" stroke-width="3.0" fill="none" stroke="rgb(0, 0, 0)" stroke-opacity="1.0" stroke-linecap="round" stroke-linejoin="round"/>
    <path d="M 46.97212219238281 84.78395080566406 C 29.602859497070312 8.620843887329102 54.46661376953125 84.82345581054688 89.0567398071289 67.02447509765625" stroke-width="3.0" fill="none" stroke="rgb(0, 0, 0)" stroke-opacity="1.0" stroke-linecap="round" stroke-linejoin="round"/>
    <path d="M 112.55101776123047 194.78392028808594 C 41.52796936035156 206.47178649902344 41.77168273925781 177.6953125 45.47975540161133 142.74859619140625" stroke-width="3.0" fill="none" stroke="rgb(0, 0, 0)" stroke-opacity="1.0" stroke-linecap="round" stroke-linejoin="round"/>
    <path d="M 105.48271942138672 177.79766845703125 C 109.79239654541016 177.78797912597656 106.74190521240234 183.65469360351562 102.97135162353516 141.7858123779297" stroke-width="3.0" fill="none" stroke="rgb(0, 0, 0)" stroke-opacity="1.0" stroke-linecap="round" stroke-linejoin="round"/>
    <path d="M 130.4073944091797 171.20822143554688 C 208.49449157714844 174.3839569091797 193.07510375976562 171.76190185546875 200.79183959960938 180.11904907226562" stroke-width="3.0" fill="none" stroke="rgb(0, 0, 0)" stroke-opacity="1.0" stroke-linecap="round" stroke-linejoin="round"/>
    <path d="M 21.555625915527344 173.01048278808594 C 34.90604019165039 195.154296875 48.674739837646484 181.6028594970703 30.724037170410156 173.28875732421875" stroke-width="3.0" fill="none" stroke="rgb(0, 0, 0)" stroke-opacity="1.0" stroke-linecap="round" stroke-linejoin="round"/>
    <path d="M 46.99394226074219 181.92349243164062 C 38.82105255126953 145.9545440673828 46.722164154052734 138.4393310546875 60.40185546875 118.65426635742188" stroke-width="3.0" fill="none" stroke="rgb(0, 0, 0)" stroke-opacity="1.0" stroke-linecap="round" stroke-linejoin="round"/>
    <path d="M 39.0333251953125 99.1983642578125 C 57.175601959228516 79.55144500732422 78.18431854248047 123.33724212646484 56.37797164916992 96.79481506347656" stroke-width="3.0" fill="none" stroke="rgb(0, 0, 0)" stroke-opacity="1.0" stroke-linecap="round" stroke-linejoin="round"/>
    <path d="M 43.382686614990234 183.50274658203125 C 21.95880889892578 179.14781188964844 22.27879524230957 153.59291076660156 24.903499603271484 173.39865112304688" stroke-width="3.0" fill="none" stroke="rgb(0, 0, 0)" stroke-opacity="1.0" stroke-linecap="round" stroke-linejoin="round"/>
    <path d="M 54.00934600830078 70.2909164428711 C 53.935420989990234 108.88275909423828 20.194305419921875 45.84633255004883 86.1226806640625 70.71455383300781" stroke-width="3.0" fill="none" stroke="rgb(0, 0, 0)" stroke-opacity="1.0" stroke-linecap="round" stroke-linejoin="round"/>
    <path d="M 45.30265426635742 161.9856719970703 C 49.8856086730957 117.0865707397461 116.57672882080078 129.57952880859375 94.76335906982422 173.46914672851562" stroke-width="3.0" fill="none" stroke="rgb(0, 0, 0)" stroke-opacity="1.0" stroke-linecap="round" stroke-linejoin="round"/>
    <path d="M 88.98943328857422 63.249427795410156 C 84.58917236328125 103.00904846191406 56.29177474975586 52.71665954589844 86.86766052246094 44.83860397338867" stroke-width="3.0" fill="none" stroke="rgb(0, 0, 0)" stroke-opacity="1.0" stroke-linecap="round" stroke-linejoin="round"/>
    <path d="M 28.067956924438477 168.5836639404297 C 28.211936950683594 184.38882446289062 57.42849349975586 180.76980590820312 48.1601676940918 187.0765838623047" stroke-width="3.0" fill="none" stroke="rgb(0, 0, 0)" stroke-opacity="1.0" stroke-linecap="round" stroke-linejoin="round"/>
    <path d="M 126.51310729980469 138.1778564453125 C 138.65322875976562 109.81024169921875 105.9759521484375 51.0921516418457 69.18130493164062 80.14166259765625" stroke-width="3.0" fill="none" stroke="rgb(0, 0, 0)" stroke-opacity="1.0" stroke-linecap="round" stroke-linejoin="round"/>
    <path d="M 58.49805450439453 82.48052215576172 C 16.823955535888672 65.70213317871094 78.22260284423828 107.75891876220703 50.931339263916016 131.65699768066406" stroke-width="3.0" fill="none" stroke="rgb(0, 0, 0)" stroke-opacity="1.0" stroke-linecap="round" stroke-linejoin="round"/>
    <path d="M 62.83789825439453 85.24842071533203 C 70.8251953125 71.15267181396484 28.309326171875 115.70853424072266 86.43778991699219 92.1827621459961" stroke-width="3.0" fill="none" stroke="rgb(0, 0, 0)" stroke-opacity="1.0" stroke-linecap="round" stroke-linejoin="round"/>
    <path d="M 32.64534378051758 167.18637084960938 C 23.33439064025879 156.16079711914062 -0.4465618133544922 180.4876708984375 66.77918243408203 194.22006225585938" stroke-width="3.0" fill="none" stroke="rgb(0, 0, 0)" stroke-opacity="1.0" stroke-linecap="round" stroke-linejoin="round"/>
  </g>
</svg>
