<?xml version="1.0" ?>
<svg xmlns="http://www.w3.org/2000/svg" version="1.1" width="224" height="224">
  <defs/>
  <g>
    <path d="M 109.1656723022461 179.96505737304688 C 103.21831512451172 148.98756408691406 105.22811126708984 154.70675659179688 93.32201385498047 120.57843780517578" stroke-width="3.0" fill="none" stroke="rgb(0, 0, 0)" stroke-opacity="1.0" stroke-linecap="round" stroke-linejoin="round"/>
    <path d="M 128.99085998535156 152.65567016601562 C 125.1137924194336 120.73198699951172 127.84542083740234 128.85235595703125 128.9837646484375 138.84568786621094" stroke-width="3.0" fill="none" stroke="rgb(0, 0, 0)" stroke-opacity="1.0" stroke-linecap="round" stroke-linejoin="round"/>
    <path d="M 43.80583572387695 178.8333740234375 C 43.82646560668945 151.86373901367188 46.67836380004883 137.2845001220703 42.64884948730469 156.10922241210938" stroke-width="3.0" fill="none" stroke="rgb(0, 0, 0)" stroke-opacity="1.0" stroke-linecap="round" stroke-linejoin="round"/>
    <path d="M 126.30682373046875 124.82820892333984 C 120.7038803100586 133.04995727539062 130.75900268554688 139.7301025390625 128.68228149414062 144.3018798828125" stroke-width="3.0" fill="none" stroke="rgb(0, 0, 0)" stroke-opacity="1.0" stroke-linecap="round" stroke-linejoin="round"/>
    <path d="M 61.08102798461914 123.72908020019531 C 59.82056427001953 90.36380004882812 66.93375396728516 87.3705062866211 58.51675033569336 113.12156677246094" stroke-width="3.0" fill="none" stroke="rgb(0, 0, 0)" stroke-opacity="1.0" stroke-linecap="round" stroke-linejoin="round"/>
    <path d="M 126.79290771484375 123.44860076904297 C 124.5885238647461 140.6973114013672 122.93406677246094 136.0318145751953 126.91715240478516 112.9991455078125" stroke-width="3.0" fill="none" stroke="rgb(0, 0, 0)" stroke-opacity="1.0" stroke-linecap="round" stroke-linejoin="round"/>
    <path d="M 57.099849700927734 121.88661193847656 C 73.02680969238281 99.3058090209961 42.76216506958008 93.04515075683594 64.06841278076172 107.46994018554688" stroke-width="3.0" fill="none" stroke="rgb(0, 0, 0)" stroke-opacity="1.0" stroke-linecap="round" stroke-linejoin="round"/>
    <path d="M 198.51055908203125 178.5618896484375 C 203.15802001953125 188.2239532470703 201.86375427246094 193.1804656982422 128.1707000732422 184.10247802734375" stroke-width="3.0" fill="none" stroke="rgb(0, 0, 0)" stroke-opacity="1.0" stroke-linecap="round" stroke-linejoin="round"/>
    <path d="M 130.47352600097656 190.5661163330078 C 130.5318603515625 202.10867309570312 128.03225708007812 193.05563354492188 70.40017700195312 194.10400390625" stroke-width="3.0" fill="none" stroke="rgb(0, 0, 0)" stroke-opacity="1.0" stroke-linecap="round" stroke-linejoin="round"/>
    <path d="M 37.08012771606445 89.68695068359375 C 54.02888488769531 90.63351440429688 62.35295867919922 110.58088684082031 58.59543228149414 122.97639465332031" stroke-width="3.0" fill="none" stroke="rgb(0, 0, 0)" stroke-opacity="1.0" stroke-linecap="round" stroke-linejoin="round"/>
    <path d="M 101.41606903076172 179.55274963378906 C 146.37281799316406 183.39512634277344 121.55326080322266 181.60238647460938 128.81455993652344 181.98338317871094" stroke-width="3.0" fill="none" stroke="rgb(0, 0, 0)" stroke-opacity="1.0" stroke-linecap="round" stroke-linejoin="round"/>
    <path d="M 130.70562744140625 186.69647216796875 C 118.03038787841797 146.55824279785156 142.50503540039062 172.6539764404297 123.81790924072266 105.47419738769531" stroke-width="3.0" fill="none" stroke="rgb(0, 0, 0)" stroke-opacity="1.0" stroke-linecap="round" stroke-linejoin="round"/>
    <path d="M 45.13542175292969 156.0098876953125 C 48.988037109375 117.71611022949219 67.94641876220703 137.708251953125 65.75391387939453 99.9894790649414" stroke-width="3.0" fill="none" stroke="rgb(0, 0, 0)" stroke-opacity="1.0" stroke-linecap="round" stroke-linejoin="round"/>
    <path d="M 23.41136932373047 170.32383728027344 C 28.40961456298828 184.43875122070312 57.43198776245117 186.88768005371094 46.69130325317383 187.73977661132812" stroke-width="3.0" fill="none" stroke="rgb(0, 0, 0)" stroke-opacity="1.0" stroke-linecap="round" stroke-linejoin="round"/>
    <path d="M 59.06561279296875 60.77629089355469 C 89.19486236572266 61.12285232543945 90.69713592529297 14.383567810058594 86.67189025878906 78.96842956542969" stroke-width="3.0" fill="none" stroke="rgb(0, 0, 0)" stroke-opacity="1.0" stroke-linecap="round" stroke-linejoin="round"/>
    <path d="M 78.8769302368164 60.70405197143555 C 101.02715301513672 102.99282836914062 36.98276138305664 67.21940612792969 68.41770935058594 75.12818145751953" stroke-width="3.0" fill="none" stroke="rgb(0, 0, 0)" stroke-opacity="1.0" stroke-linecap="round" stroke-linejoin="round"/>
    <path d="M 47.43218231201172 97.68152618408203 C 38.49305725097656 6.722768783569336 42.18967819213867 79.41675567626953 87.34690856933594 67.47040557861328" stroke-width="3.0" fill="none" stroke="rgb(0, 0, 0)" stroke-opacity="1.0" stroke-linecap="round" stroke-linejoin="round"/>
    <path d="M 106.05170440673828 196.1120147705078 C 47.45942306518555 203.7066650390625 42.286617279052734 174.19744873046875 50.57622528076172 144.3863983154297" stroke-width="3.0" fill="none" stroke="rgb(0, 0, 0)" stroke-opacity="1.0" stroke-linecap="round" stroke-linejoin="round"/>
    <path d="M 94.64562225341797 177.74127197265625 C 99.20587158203125 166.69400024414062 106.94812774658203 176.3083038330078 102.18626403808594 135.9784393310547" stroke-width="3.0" fill="none" stroke="rgb(0, 0, 0)" stroke-opacity="1.0" stroke-linecap="round" stroke-linejoin="round"/>
    <path d="M 129.05165100097656 170.40277099609375 C 211.24148559570312 171.6505126953125 199.27015686035156 171.71385192871094 200.96591186523438 181.3104705810547" stroke-width="3.0" fill="none" stroke="rgb(0, 0, 0)" stroke-opacity="1.0" stroke-linecap="round" stroke-linejoin="round"/>
    <path d="M 34.84838104248047 181.8716278076172 C 59.41489028930664 189.23211669921875 42.595947265625 185.6416778564453 48.009639739990234 186.50991821289062" stroke-width="3.0" fill="none" stroke="rgb(0, 0, 0)" stroke-opacity="1.0" stroke-linecap="round" stroke-linejoin="round"/>
    <path d="M 49.198604583740234 187.3339080810547 C 36.947654724121094 149.2384490966797 44.68517303466797 135.10556030273438 58.9113655090332 120.62129211425781" stroke-width="3.0" fill="none" stroke="rgb(0, 0, 0)" stroke-opacity="1.0" stroke-linecap="round" stroke-linejoin="round"/>
    <path d="M 38.65003204345703 97.74333190917969 C 59.50165557861328 72.08523559570312 63.593666076660156 119.09601593017578 62.1362419128418 98.907470703125" stroke-width="3.0" fill="none" stroke="rgb(0, 0, 0)" stroke-opacity="1.0" stroke-linecap="round" stroke-linejoin="round"/>
    <path d="M 48.75495529174805 184.11990356445312 C 23.456401824951172 175.73260498046875 37.262142181396484 166.7379608154297 32.51807403564453 167.03855895996094" stroke-width="3.0" fill="none" stroke="rgb(0, 0, 0)" stroke-opacity="1.0" stroke-linecap="round" stroke-linejoin="round"/>
    <path d="M 52.6380615234375 72.45270538330078 C 55.914695739746094 107.8109359741211 25.586448669433594 40.345985412597656 79.23848724365234 68.9575424194336" stroke-width="3.0" fill="none" stroke="rgb(0, 0, 0)" stroke-opacity="1.0" stroke-linecap="round" stroke-linejoin="round"/>
    <path d="M 45.60834884643555 169.37721252441406 C 47.792747497558594 113.65980529785156 107.04524230957031 134.81494140625 98.47068786621094 165.4481201171875" stroke-width="3.0" fill="none" stroke="rgb(0, 0, 0)" stroke-opacity="1.0" stroke-linecap="round" stroke-linejoin="round"/>
    <path d="M 74.21633911132812 55.43001937866211 C 56.024169921875 93.45829772949219 56.28218078613281 64.73004913330078 83.68315887451172 48.21975326538086" stroke-width="3.0" fill="none" stroke="rgb(0, 0, 0)" stroke-opacity="1.0" stroke-linecap="round" stroke-linejoin="round"/>
    <path d="M 21.93397331237793 173.62838745117188 C 28.10028648376465 190.7745819091797 59.4307975769043 193.1265106201172 47.75690841674805 185.36968994140625" stroke-width="3.0" fill="none" stroke="rgb(0, 0, 0)" stroke-opacity="1.0" stroke-linecap="round" stroke-linejoin="round"/>
    <path d="M 126.51995849609375 135.4970245361328 C 136.04049682617188 112.81086730957031 110.9802474975586 50.22271728515625 57.85624694824219 75.13240051269531" stroke-width="3.0" fill="none" stroke="rgb(0, 0, 0)" stroke-opacity="1.0" stroke-linecap="round" stroke-linejoin="round"/>
    <path d="M 57.38459777832031 77.4665756225586 C 18.541772842407227 64.69722747802734 77.08596801757812 113.09030151367188 53.207557678222656 131.99786376953125" stroke-width="3.0" fill="none" stroke="rgb(0, 0, 0)" stroke-opacity="1.0" stroke-linecap="round" stroke-linejoin="round"/>
    <path d="M 57.489376068115234 84.31806182861328 C 81.08399200439453 77.44596099853516 21.9563045501709 106.76322937011719 86.27677917480469 87.87706756591797" stroke-width="3.0" fill="none" stroke="rgb(0, 0, 0)" stroke-opacity="1.0" stroke-linecap="round" stroke-linejoin="round"/>
    <path d="M 32.797550201416016 166.39666748046875 C 17.0813045501709 156.20510864257812 8.344128608703613 182.28253173828125 62.203514099121094 191.34881591796875" stroke-width="3.0" fill="none" stroke="rgb(0, 0, 0)" stroke-opacity="1.0" stroke-linecap="round" stroke-linejoin="round"/>
  </g>
</svg>
