<?xml version="1.0" ?>
<svg xmlns="http://www.w3.org/2000/svg" version="1.1" width="224" height="224">
  <defs/>
  <g>
    <path d="M 102.12234497070312 176.71817016601562 C 103.6844482421875 138.37051391601562 102.84793853759766 162.58157348632812 91.92681121826172 123.35980987548828" stroke-width="3.0" fill="none" stroke="rgb(0, 0, 0)" stroke-opacity="1.0" stroke-linecap="round" stroke-linejoin="round"/>
    <path d="M 130.36978149414062 149.43446350097656 C 122.92681121826172 110.781005859375 129.2162322998047 138.8789825439453 126.64494323730469 160.4321746826172" stroke-width="3.0" fill="none" stroke="rgb(0, 0, 0)" stroke-opacity="1.0" stroke-linecap="round" stroke-linejoin="round"/>
    <path d="M 44.9837760925293 169.78384399414062 C 41.17874526977539 154.19558715820312 47.70043182373047 140.24671936035156 45.15546798706055 161.6025390625" stroke-width="3.0" fill="none" stroke="rgb(0, 0, 0)" stroke-opacity="1.0" stroke-linecap="round" stroke-linejoin="round"/>
    <path d="M 126.9595718383789 113.44329833984375 C 129.093994140625 146.58929443359375 131.01715087890625 141.68553161621094 124.72345733642578 164.0323944091797" stroke-width="3.0" fill="none" stroke="rgb(0, 0, 0)" stroke-opacity="1.0" stroke-linecap="round" stroke-linejoin="round"/>
    <path d="M 60.67910385131836 119.4209976196289 C 78.4225082397461 87.52787780761719 47.94823455810547 91.3140640258789 60.13741683959961 109.8991470336914" stroke-width="3.0" fill="none" stroke="rgb(0, 0, 0)" stroke-opacity="1.0" stroke-linecap="round" stroke-linejoin="round"/>
    <path d="M 122.5705795288086 100.04381561279297 C 139.73597717285156 144.6314239501953 115.15734100341797 153.94631958007812 129.17689514160156 115.31698608398438" stroke-width="3.0" fill="none" stroke="rgb(0, 0, 0)" stroke-opacity="1.0" stroke-linecap="round" stroke-linejoin="round"/>
    <path d="M 57.98670959472656 125.09623718261719 C 65.72784423828125 98.86617279052734 52.730369567871094 96.9565200805664 60.81083297729492 120.21751403808594" stroke-width="3.0" fill="none" stroke="rgb(0, 0, 0)" stroke-opacity="1.0" stroke-linecap="round" stroke-linejoin="round"/>
    <path d="M 200.25596618652344 178.58045959472656 C 200.18756103515625 187.670166015625 197.3965301513672 192.56460571289062 128.30569458007812 184.0571746826172" stroke-width="3.0" fill="none" stroke="rgb(0, 0, 0)" stroke-opacity="1.0" stroke-linecap="round" stroke-linejoin="round"/>
    <path d="M 131.89369201660156 192.62722778320312 C 129.1715850830078 198.27432250976562 135.89442443847656 194.79910278320312 70.27659606933594 188.40390014648438" stroke-width="3.0" fill="none" stroke="rgb(0, 0, 0)" stroke-opacity="1.0" stroke-linecap="round" stroke-linejoin="round"/>
    <path d="M 34.54973220825195 90.00939178466797 C 60.24293518066406 90.59408569335938 71.6558609008789 105.80290222167969 57.8836669921875 122.63056182861328" stroke-width="3.0" fill="none" stroke="rgb(0, 0, 0)" stroke-opacity="1.0" stroke-linecap="round" stroke-linejoin="round"/>
    <path d="M 106.42078399658203 179.46665954589844 C 148.7130889892578 182.61671447753906 129.1495819091797 195.08602905273438 130.75851440429688 184.36264038085938" stroke-width="3.0" fill="none" stroke="rgb(0, 0, 0)" stroke-opacity="1.0" stroke-linecap="round" stroke-linejoin="round"/>
    <path d="M 124.20182800292969 180.89926147460938 C 121.9864730834961 141.92967224121094 141.5392303466797 171.26382446289062 125.96328735351562 105.1325912475586" stroke-width="3.0" fill="none" stroke="rgb(0, 0, 0)" stroke-opacity="1.0" stroke-linecap="round" stroke-linejoin="round"/>
    <path d="M 45.42027282714844 160.46092224121094 C 48.51020050048828 110.76593017578125 58.04730224609375 139.06396484375 62.160255432128906 103.72604370117188" stroke-width="3.0" fill="none" stroke="rgb(0, 0, 0)" stroke-opacity="1.0" stroke-linecap="round" stroke-linejoin="round"/>
    <path d="M 21.76864242553711 166.8745880126953 C 15.235278129577637 186.53860473632812 58.16708755493164 192.79708862304688 44.458740234375 186.27279663085938" stroke-width="3.0" fill="none" stroke="rgb(0, 0, 0)" stroke-opacity="1.0" stroke-linecap="round" stroke-linejoin="round"/>
    <path d="M 54.13510513305664 59.86184310913086 C 93.44013977050781 73.0151596069336 91.34060668945312 4.839727401733398 87.93123626708984 86.20561218261719" stroke-width="3.0" fill="none" stroke="rgb(0, 0, 0)" stroke-opacity="1.0" stroke-linecap="round" stroke-linejoin="round"/>
    <path d="M 74.21330261230469 65.26736450195312 C 109.36995697021484 102.5430908203125 39.0362663269043 73.24934387207031 71.97492218017578 69.16016387939453" stroke-width="3.0" fill="none" stroke="rgb(0, 0, 0)" stroke-opacity="1.0" stroke-linecap="round" stroke-linejoin="round"/>
    <path d="M 44.767005920410156 85.36632537841797 C 37.604827880859375 4.663036346435547 54.369178771972656 85.31137084960938 87.52536010742188 65.46524810791016" stroke-width="3.0" fill="none" stroke="rgb(0, 0, 0)" stroke-opacity="1.0" stroke-linecap="round" stroke-linejoin="round"/>
    <path d="M 116.79330444335938 193.3201904296875 C 42.006168365478516 207.38282775878906 38.22056198120117 174.86532592773438 49.966461181640625 136.97857666015625" stroke-width="3.0" fill="none" stroke="rgb(0, 0, 0)" stroke-opacity="1.0" stroke-linecap="round" stroke-linejoin="round"/>
    <path d="M 102.45672607421875 176.03810119628906 C 103.53470611572266 177.47743225097656 107.47415161132812 175.89193725585938 102.96764373779297 139.19503784179688" stroke-width="3.0" fill="none" stroke="rgb(0, 0, 0)" stroke-opacity="1.0" stroke-linecap="round" stroke-linejoin="round"/>
    <path d="M 127.69219970703125 172.30410766601562 C 210.7211151123047 174.01611328125 197.1749725341797 174.00259399414062 200.83364868164062 181.0463409423828" stroke-width="3.0" fill="none" stroke="rgb(0, 0, 0)" stroke-opacity="1.0" stroke-linecap="round" stroke-linejoin="round"/>
    <path d="M 29.111347198486328 174.92446899414062 C 49.584259033203125 194.00027465820312 51.85476303100586 184.01210021972656 36.883399963378906 179.73878479003906" stroke-width="3.0" fill="none" stroke="rgb(0, 0, 0)" stroke-opacity="1.0" stroke-linecap="round" stroke-linejoin="round"/>
    <path d="M 48.43629455566406 188.85906982421875 C 36.893497467041016 145.66683959960938 44.674930572509766 137.0413055419922 61.00469970703125 117.8402099609375" stroke-width="3.0" fill="none" stroke="rgb(0, 0, 0)" stroke-opacity="1.0" stroke-linecap="round" stroke-linejoin="round"/>
    <path d="M 41.823429107666016 98.35124969482422 C 58.101200103759766 76.2771987915039 66.53553009033203 124.20555114746094 55.53107833862305 93.9468994140625" stroke-width="3.0" fill="none" stroke="rgb(0, 0, 0)" stroke-opacity="1.0" stroke-linecap="round" stroke-linejoin="round"/>
    <path d="M 40.82087326049805 186.14483642578125 C 18.681640625 180.50526428222656 22.98059844970703 162.76095581054688 32.57194519042969 176.98696899414062" stroke-width="3.0" fill="none" stroke="rgb(0, 0, 0)" stroke-opacity="1.0" stroke-linecap="round" stroke-linejoin="round"/>
    <path d="M 54.741050720214844 66.60945129394531 C 55.66000747680664 106.92900848388672 22.62363624572754 40.01631164550781 87.8832015991211 70.54232025146484" stroke-width="3.0" fill="none" stroke="rgb(0, 0, 0)" stroke-opacity="1.0" stroke-linecap="round" stroke-linejoin="round"/>
    <path d="M 43.59368896484375 169.23341369628906 C 52.23967742919922 114.47874450683594 109.79780578613281 134.0279541015625 96.34046936035156 173.3239288330078" stroke-width="3.0" fill="none" stroke="rgb(0, 0, 0)" stroke-opacity="1.0" stroke-linecap="round" stroke-linejoin="round"/>
    <path d="M 86.58668518066406 63.420875549316406 C 63.35451126098633 111.97946166992188 60.50981140136719 54.89836883544922 86.38561248779297 48.75136184692383" stroke-width="3.0" fill="none" stroke="rgb(0, 0, 0)" stroke-opacity="1.0" stroke-linecap="round" stroke-linejoin="round"/>
    <path d="M 28.90254020690918 169.94895935058594 C 29.006498336791992 182.83758544921875 62.559417724609375 182.90821838378906 44.715240478515625 183.68203735351562" stroke-width="3.0" fill="none" stroke="rgb(0, 0, 0)" stroke-opacity="1.0" stroke-linecap="round" stroke-linejoin="round"/>
    <path d="M 127.44984436035156 138.93621826171875 C 138.8763427734375 111.02042388916016 109.00690460205078 48.7266960144043 62.14739227294922 76.39275360107422" stroke-width="3.0" fill="none" stroke="rgb(0, 0, 0)" stroke-opacity="1.0" stroke-linecap="round" stroke-linejoin="round"/>
    <path d="M 58.55999755859375 76.92766571044922 C 15.315919876098633 72.89047241210938 80.54373168945312 103.36094665527344 52.955936431884766 129.59564208984375" stroke-width="3.0" fill="none" stroke="rgb(0, 0, 0)" stroke-opacity="1.0" stroke-linecap="round" stroke-linejoin="round"/>
    <path d="M 54.74287033081055 87.1740951538086 C 73.72333526611328 74.35733795166016 28.875993728637695 107.70968627929688 86.71914672851562 90.88569641113281" stroke-width="3.0" fill="none" stroke="rgb(0, 0, 0)" stroke-opacity="1.0" stroke-linecap="round" stroke-linejoin="round"/>
    <path d="M 30.868440628051758 169.08226013183594 C 18.51100730895996 159.31112670898438 1.8010693788528442 180.99620056152344 66.6569595336914 195.08657836914062" stroke-width="3.0" fill="none" stroke="rgb(0, 0, 0)" stroke-opacity="1.0" stroke-linecap="round" stroke-linejoin="round"/>
  </g>
</svg>
