<?xml version="1.0" ?>
<svg xmlns="http://www.w3.org/2000/svg" version="1.1" width="224" height="224">
  <defs/>
  <g>
    <path d="M 103.97238159179688 158.84727478027344 C 108.72914123535156 145.72030639648438 98.55646514892578 158.7196807861328 90.65150451660156 124.04608917236328" stroke-width="3.0" fill="none" stroke="rgb(0, 0, 0)" stroke-opacity="1.0" stroke-linecap="round" stroke-linejoin="round"/>
    <path d="M 122.69966125488281 139.67044067382812 C 120.77750396728516 142.01235961914062 122.08979034423828 145.4502410888672 122.13646697998047 138.8944549560547" stroke-width="3.0" fill="none" stroke="rgb(0, 0, 0)" stroke-opacity="1.0" stroke-linecap="round" stroke-linejoin="round"/>
    <path d="M 44.26704025268555 161.60975646972656 C 52.99892044067383 142.8383026123047 47.3254280090332 139.03868103027344 44.63255310058594 153.83419799804688" stroke-width="3.0" fill="none" stroke="rgb(0, 0, 0)" stroke-opacity="1.0" stroke-linecap="round" stroke-linejoin="round"/>
    <path d="M 126.46772003173828 121.82806396484375 C 126.53096008300781 135.3469696044922 121.75314331054688 129.51136779785156 122.85511016845703 139.17776489257812" stroke-width="3.0" fill="none" stroke="rgb(0, 0, 0)" stroke-opacity="1.0" stroke-linecap="round" stroke-linejoin="round"/>
    <path d="M 62.020965576171875 110.9706802368164 C 61.77034378051758 109.11575317382812 65.68170166015625 101.42076110839844 59.61046600341797 109.64632415771484" stroke-width="3.0" fill="none" stroke="rgb(0, 0, 0)" stroke-opacity="1.0" stroke-linecap="round" stroke-linejoin="round"/>
    <path d="M 127.38264465332031 124.55252838134766 C 123.29959106445312 143.8878631591797 122.27139282226562 136.23828125 123.03640747070312 135.21871948242188" stroke-width="3.0" fill="none" stroke="rgb(0, 0, 0)" stroke-opacity="1.0" stroke-linecap="round" stroke-linejoin="round"/>
    <path d="M 62.9870491027832 106.93335723876953 C 60.30065155029297 110.82377624511719 52.84311294555664 92.9726791381836 64.20563507080078 102.09124755859375" stroke-width="3.0" fill="none" stroke="rgb(0, 0, 0)" stroke-opacity="1.0" stroke-linecap="round" stroke-linejoin="round"/>
    <path d="M 200.06411743164062 181.3855743408203 C 199.88621520996094 184.7620849609375 202.7660369873047 190.59011840820312 133.52076721191406 184.62066650390625" stroke-width="3.0" fill="none" stroke="rgb(0, 0, 0)" stroke-opacity="1.0" stroke-linecap="round" stroke-linejoin="round"/>
    <path d="M 130.18145751953125 190.10861206054688 C 125.5225830078125 198.39501953125 124.92461395263672 188.0658416748047 70.79059600830078 194.30946350097656" stroke-width="3.0" fill="none" stroke="rgb(0, 0, 0)" stroke-opacity="1.0" stroke-linecap="round" stroke-linejoin="round"/>
    <path d="M 34.247886657714844 90.52615356445312 C 66.13444519042969 93.92264556884766 64.55426025390625 109.37295532226562 61.82073211669922 117.13727569580078" stroke-width="3.0" fill="none" stroke="rgb(0, 0, 0)" stroke-opacity="1.0" stroke-linecap="round" stroke-linejoin="round"/>
    <path d="M 108.25037384033203 178.8591766357422 C 142.64222717285156 179.29330444335938 124.9499740600586 173.44549560546875 126.85005187988281 179.64698791503906" stroke-width="3.0" fill="none" stroke="rgb(0, 0, 0)" stroke-opacity="1.0" stroke-linecap="round" stroke-linejoin="round"/>
    <path d="M 126.16244506835938 176.99647521972656 C 123.6543960571289 147.17236328125 137.74969482421875 163.97378540039062 125.52583312988281 101.60171508789062" stroke-width="3.0" fill="none" stroke="rgb(0, 0, 0)" stroke-opacity="1.0" stroke-linecap="round" stroke-linejoin="round"/>
    <path d="M 45.228641510009766 150.5843048095703 C 54.898704528808594 123.68871307373047 61.61767578125 139.1199188232422 60.93080139160156 102.75103759765625" stroke-width="3.0" fill="none" stroke="rgb(0, 0, 0)" stroke-opacity="1.0" stroke-linecap="round" stroke-linejoin="round"/>
    <path d="M 21.42818832397461 176.6959228515625 C 38.57464599609375 193.44482421875 48.95325469970703 187.0590057373047 55.7589111328125 191.28250122070312" stroke-width="3.0" fill="none" stroke="rgb(0, 0, 0)" stroke-opacity="1.0" stroke-linecap="round" stroke-linejoin="round"/>
    <path d="M 65.76334381103516 62.82411575317383 C 100.90320587158203 38.12728500366211 86.17219543457031 41.61695098876953 90.42244720458984 75.3108139038086" stroke-width="3.0" fill="none" stroke="rgb(0, 0, 0)" stroke-opacity="1.0" stroke-linecap="round" stroke-linejoin="round"/>
    <path d="M 80.51238250732422 74.63249206542969 C 78.85201263427734 92.50570678710938 59.076900482177734 69.78665924072266 80.95233154296875 71.80658721923828" stroke-width="3.0" fill="none" stroke="rgb(0, 0, 0)" stroke-opacity="1.0" stroke-linecap="round" stroke-linejoin="round"/>
    <path d="M 50.132694244384766 102.46672058105469 C 37.604190826416016 13.20923900604248 40.30345916748047 63.757171630859375 78.73492431640625 61.71944808959961" stroke-width="3.0" fill="none" stroke="rgb(0, 0, 0)" stroke-opacity="1.0" stroke-linecap="round" stroke-linejoin="round"/>
    <path d="M 103.98932647705078 193.4300537109375 C 45.012451171875 205.47288513183594 44.36338424682617 179.29322814941406 46.3665771484375 152.46156311035156" stroke-width="3.0" fill="none" stroke="rgb(0, 0, 0)" stroke-opacity="1.0" stroke-linecap="round" stroke-linejoin="round"/>
    <path d="M 102.64569854736328 178.07237243652344 C 109.91193389892578 167.18495178222656 102.53700256347656 178.8108673095703 103.42874145507812 145.96389770507812" stroke-width="3.0" fill="none" stroke="rgb(0, 0, 0)" stroke-opacity="1.0" stroke-linecap="round" stroke-linejoin="round"/>
    <path d="M 131.4205322265625 173.77474975585938 C 203.68524169921875 177.06210327148438 199.27081298828125 172.85589599609375 199.8096466064453 183.31338500976562" stroke-width="3.0" fill="none" stroke="rgb(0, 0, 0)" stroke-opacity="1.0" stroke-linecap="round" stroke-linejoin="round"/>
    <path d="M 54.142181396484375 191.0444793701172 C 71.26041412353516 196.6708526611328 54.5975456237793 191.73521423339844 52.018524169921875 188.8242645263672" stroke-width="3.0" fill="none" stroke="rgb(0, 0, 0)" stroke-opacity="1.0" stroke-linecap="round" stroke-linejoin="round"/>
    <path d="M 44.68071746826172 166.51217651367188 C 41.41364669799805 147.23483276367188 44.32969284057617 140.088623046875 60.22142028808594 122.9124526977539" stroke-width="3.0" fill="none" stroke="rgb(0, 0, 0)" stroke-opacity="1.0" stroke-linecap="round" stroke-linejoin="round"/>
    <path d="M 39.910221099853516 99.58518981933594 C 58.6356201171875 81.06343841552734 63.97821807861328 121.81622314453125 62.1550407409668 107.20574951171875" stroke-width="3.0" fill="none" stroke="rgb(0, 0, 0)" stroke-opacity="1.0" stroke-linecap="round" stroke-linejoin="round"/>
    <path d="M 45.36420440673828 180.38726806640625 C 23.449893951416016 172.02853393554688 34.765846252441406 165.0260772705078 29.318058013916016 165.9149932861328" stroke-width="3.0" fill="none" stroke="rgb(0, 0, 0)" stroke-opacity="1.0" stroke-linecap="round" stroke-linejoin="round"/>
    <path d="M 59.075469970703125 64.97889709472656 C 57.35017013549805 110.48426818847656 20.509675979614258 48.42921447753906 76.1357650756836 58.843788146972656" stroke-width="3.0" fill="none" stroke="rgb(0, 0, 0)" stroke-opacity="1.0" stroke-linecap="round" stroke-linejoin="round"/>
    <path d="M 46.22080993652344 148.2608642578125 C 71.47439575195312 114.735107421875 100.18164825439453 149.55332946777344 97.45889282226562 156.43040466308594" stroke-width="3.0" fill="none" stroke="rgb(0, 0, 0)" stroke-opacity="1.0" stroke-linecap="round" stroke-linejoin="round"/>
    <path d="M 89.6172103881836 49.951934814453125 C 82.14564514160156 62.0048942565918 85.72907257080078 70.50614929199219 88.48198699951172 58.6968879699707" stroke-width="3.0" fill="none" stroke="rgb(0, 0, 0)" stroke-opacity="1.0" stroke-linecap="round" stroke-linejoin="round"/>
    <path d="M 52.022945404052734 190.0746307373047 C 40.14451599121094 188.20327758789062 49.610652923583984 189.28189086914062 47.518821716308594 189.241943359375" stroke-width="3.0" fill="none" stroke="rgb(0, 0, 0)" stroke-opacity="1.0" stroke-linecap="round" stroke-linejoin="round"/>
    <path d="M 127.00357818603516 126.36033630371094 C 128.7902069091797 110.95183563232422 131.16493225097656 76.54214477539062 79.28746032714844 73.4963150024414" stroke-width="3.0" fill="none" stroke="rgb(0, 0, 0)" stroke-opacity="1.0" stroke-linecap="round" stroke-linejoin="round"/>
    <path d="M 57.50099563598633 74.6949234008789 C 16.018192291259766 72.13706970214844 80.00333404541016 104.1385498046875 52.53266906738281 134.45684814453125" stroke-width="3.0" fill="none" stroke="rgb(0, 0, 0)" stroke-opacity="1.0" stroke-linecap="round" stroke-linejoin="round"/>
    <path d="M 55.4665641784668 89.94210815429688 C 82.19541931152344 91.27239990234375 33.43694305419922 97.99763488769531 78.13299560546875 86.25120544433594" stroke-width="3.0" fill="none" stroke="rgb(0, 0, 0)" stroke-opacity="1.0" stroke-linecap="round" stroke-linejoin="round"/>
    <path d="M 32.65048599243164 167.95835876464844 C 18.125478744506836 153.3250732421875 4.279250144958496 185.22027587890625 50.04085922241211 189.26943969726562" stroke-width="3.0" fill="none" stroke="rgb(0, 0, 0)" stroke-opacity="1.0" stroke-linecap="round" stroke-linejoin="round"/>
  </g>
</svg>
