<?xml version="1.0" ?>
<svg xmlns="http://www.w3.org/2000/svg" version="1.1" width="224" height="224">
  <defs/>
  <g>
    <path d="M 105.23847961425781 161.14222717285156 C 110.24910736083984 147.6337127685547 104.25540924072266 153.8020782470703 94.82749938964844 125.76387023925781" stroke-width="3.0" fill="none" stroke="rgb(0, 0, 0)" stroke-opacity="1.0" stroke-linecap="round" stroke-linejoin="round"/>
    <path d="M 130.8735809326172 141.32862854003906 C 121.68238830566406 129.57513427734375 128.7129364013672 126.72731018066406 128.6051483154297 139.04112243652344" stroke-width="3.0" fill="none" stroke="rgb(0, 0, 0)" stroke-opacity="1.0" stroke-linecap="round" stroke-linejoin="round"/>
    <path d="M 43.17997360229492 157.98590087890625 C 47.732261657714844 135.0948028564453 51.32081985473633 138.5285186767578 43.778324127197266 160.12062072753906" stroke-width="3.0" fill="none" stroke="rgb(0, 0, 0)" stroke-opacity="1.0" stroke-linecap="round" stroke-linejoin="round"/>
    <path d="M 128.96444702148438 122.63737487792969 C 122.97392272949219 134.759033203125 125.72064971923828 129.61183166503906 129.5069580078125 134.62417602539062" stroke-width="3.0" fill="none" stroke="rgb(0, 0, 0)" stroke-opacity="1.0" stroke-linecap="round" stroke-linejoin="round"/>
    <path d="M 59.70154571533203 116.64652252197266 C 70.64720153808594 105.8839340209961 59.31721878051758 93.42024993896484 58.10062789916992 109.43021392822266" stroke-width="3.0" fill="none" stroke="rgb(0, 0, 0)" stroke-opacity="1.0" stroke-linecap="round" stroke-linejoin="round"/>
    <path d="M 127.9456558227539 123.62616729736328 C 132.1856689453125 140.86703491210938 126.22039031982422 126.24337005615234 128.66159057617188 120.39569854736328" stroke-width="3.0" fill="none" stroke="rgb(0, 0, 0)" stroke-opacity="1.0" stroke-linecap="round" stroke-linejoin="round"/>
    <path d="M 59.89677810668945 120.54113006591797 C 63.032203674316406 106.59727478027344 46.0042610168457 90.01470184326172 63.90058517456055 106.98059844970703" stroke-width="3.0" fill="none" stroke="rgb(0, 0, 0)" stroke-opacity="1.0" stroke-linecap="round" stroke-linejoin="round"/>
    <path d="M 198.6291046142578 183.90943908691406 C 200.39022827148438 184.63038635253906 201.5423126220703 192.1233673095703 133.738525390625 187.61451721191406" stroke-width="3.0" fill="none" stroke="rgb(0, 0, 0)" stroke-opacity="1.0" stroke-linecap="round" stroke-linejoin="round"/>
    <path d="M 131.462646484375 193.21966552734375 C 128.1526641845703 198.96763610839844 127.81327819824219 191.4359588623047 74.23543548583984 195.56178283691406" stroke-width="3.0" fill="none" stroke="rgb(0, 0, 0)" stroke-opacity="1.0" stroke-linecap="round" stroke-linejoin="round"/>
    <path d="M 35.16347885131836 89.66667938232422 C 68.86307525634766 89.87979125976562 61.17575454711914 99.13201141357422 57.979148864746094 123.29032135009766" stroke-width="3.0" fill="none" stroke="rgb(0, 0, 0)" stroke-opacity="1.0" stroke-linecap="round" stroke-linejoin="round"/>
    <path d="M 109.51058959960938 176.390380859375 C 142.74887084960938 177.59927368164062 123.248291015625 175.83712768554688 125.48124694824219 174.53004455566406" stroke-width="3.0" fill="none" stroke="rgb(0, 0, 0)" stroke-opacity="1.0" stroke-linecap="round" stroke-linejoin="round"/>
    <path d="M 129.52732849121094 178.77853393554688 C 119.82316589355469 146.7712860107422 140.53341674804688 169.80404663085938 126.09668731689453 105.2474136352539" stroke-width="3.0" fill="none" stroke="rgb(0, 0, 0)" stroke-opacity="1.0" stroke-linecap="round" stroke-linejoin="round"/>
    <path d="M 44.63180923461914 151.5482940673828 C 51.227535247802734 121.63065338134766 57.09609603881836 135.0925750732422 65.90309143066406 106.4022445678711" stroke-width="3.0" fill="none" stroke="rgb(0, 0, 0)" stroke-opacity="1.0" stroke-linecap="round" stroke-linejoin="round"/>
    <path d="M 20.2878360748291 174.60960388183594 C 34.72062683105469 194.5505828857422 54.58901596069336 187.593017578125 53.72699737548828 189.7832489013672" stroke-width="3.0" fill="none" stroke="rgb(0, 0, 0)" stroke-opacity="1.0" stroke-linecap="round" stroke-linejoin="round"/>
    <path d="M 62.30229949951172 66.32572937011719 C 100.35318756103516 40.144264221191406 86.59754180908203 33.06802749633789 89.7307357788086 75.5599594116211" stroke-width="3.0" fill="none" stroke="rgb(0, 0, 0)" stroke-opacity="1.0" stroke-linecap="round" stroke-linejoin="round"/>
    <path d="M 89.75411224365234 71.77039337158203 C 82.81503295898438 100.74649810791016 55.64270782470703 67.26156616210938 73.91443634033203 79.7441635131836" stroke-width="3.0" fill="none" stroke="rgb(0, 0, 0)" stroke-opacity="1.0" stroke-linecap="round" stroke-linejoin="round"/>
    <path d="M 50.54706954956055 99.08604431152344 C 33.321102142333984 11.790709495544434 37.34590530395508 66.21196746826172 87.5270767211914 65.07770538330078" stroke-width="3.0" fill="none" stroke="rgb(0, 0, 0)" stroke-opacity="1.0" stroke-linecap="round" stroke-linejoin="round"/>
    <path d="M 107.44219207763672 194.4696044921875 C 45.93865966796875 203.99057006835938 41.67920684814453 177.40936279296875 43.583900451660156 148.7282257080078" stroke-width="3.0" fill="none" stroke="rgb(0, 0, 0)" stroke-opacity="1.0" stroke-linecap="round" stroke-linejoin="round"/>
    <path d="M 103.59025573730469 176.3710479736328 C 105.07586669921875 164.38674926757812 104.6268539428711 173.86390686035156 102.51423645019531 141.76132202148438" stroke-width="3.0" fill="none" stroke="rgb(0, 0, 0)" stroke-opacity="1.0" stroke-linecap="round" stroke-linejoin="round"/>
    <path d="M 126.95773315429688 172.8084259033203 C 210.0330352783203 174.0158233642578 201.4166259765625 174.2621307373047 200.43435668945312 182.52914428710938" stroke-width="3.0" fill="none" stroke="rgb(0, 0, 0)" stroke-opacity="1.0" stroke-linecap="round" stroke-linejoin="round"/>
    <path d="M 51.44871139526367 188.61181640625 C 65.3182144165039 196.51646423339844 49.93977737426758 186.84320068359375 51.83212661743164 189.17388916015625" stroke-width="3.0" fill="none" stroke="rgb(0, 0, 0)" stroke-opacity="1.0" stroke-linecap="round" stroke-linejoin="round"/>
    <path d="M 43.184120178222656 166.71405029296875 C 40.09511184692383 150.78985595703125 44.398677825927734 133.91879272460938 60.532386779785156 122.03704071044922" stroke-width="3.0" fill="none" stroke="rgb(0, 0, 0)" stroke-opacity="1.0" stroke-linecap="round" stroke-linejoin="round"/>
    <path d="M 41.63544845581055 98.0890884399414 C 55.59563064575195 78.05935668945312 66.45960998535156 123.04647064208984 59.94385528564453 107.6895980834961" stroke-width="3.0" fill="none" stroke="rgb(0, 0, 0)" stroke-opacity="1.0" stroke-linecap="round" stroke-linejoin="round"/>
    <path d="M 45.83517837524414 181.07022094726562 C 23.62872314453125 172.1234588623047 32.765647888183594 159.1656036376953 31.46102523803711 168.4463348388672" stroke-width="3.0" fill="none" stroke="rgb(0, 0, 0)" stroke-opacity="1.0" stroke-linecap="round" stroke-linejoin="round"/>
    <path d="M 62.7099494934082 59.28825378417969 C 55.120018005371094 112.63008880615234 18.24211883544922 46.817481994628906 79.10540771484375 61.88883590698242" stroke-width="3.0" fill="none" stroke="rgb(0, 0, 0)" stroke-opacity="1.0" stroke-linecap="round" stroke-linejoin="round"/>
    <path d="M 47.27281188964844 162.98765563964844 C 62.78358840942383 110.49058532714844 99.8705825805664 142.08023071289062 99.11150360107422 157.8037109375" stroke-width="3.0" fill="none" stroke="rgb(0, 0, 0)" stroke-opacity="1.0" stroke-linecap="round" stroke-linejoin="round"/>
    <path d="M 85.9146499633789 47.84591293334961 C 71.14279174804688 71.78836059570312 63.69281768798828 58.18966293334961 90.29467010498047 43.178348541259766" stroke-width="3.0" fill="none" stroke="rgb(0, 0, 0)" stroke-opacity="1.0" stroke-linecap="round" stroke-linejoin="round"/>
    <path d="M 46.860939025878906 189.2642822265625 C 41.93901443481445 187.7318115234375 53.22084045410156 190.6003875732422 42.820960998535156 188.80311584472656" stroke-width="3.0" fill="none" stroke="rgb(0, 0, 0)" stroke-opacity="1.0" stroke-linecap="round" stroke-linejoin="round"/>
    <path d="M 127.32164764404297 130.46266174316406 C 136.02426147460938 121.5978775024414 121.11265563964844 58.74763870239258 70.53775024414062 72.95133972167969" stroke-width="3.0" fill="none" stroke="rgb(0, 0, 0)" stroke-opacity="1.0" stroke-linecap="round" stroke-linejoin="round"/>
    <path d="M 60.449703216552734 75.80247497558594 C 13.646055221557617 60.1667594909668 79.14278411865234 110.7403793334961 52.25519561767578 130.29637145996094" stroke-width="3.0" fill="none" stroke="rgb(0, 0, 0)" stroke-opacity="1.0" stroke-linecap="round" stroke-linejoin="round"/>
    <path d="M 60.79707717895508 89.15251922607422 C 84.05630493164062 84.77287292480469 27.877666473388672 110.12447357177734 86.42848205566406 87.6106185913086" stroke-width="3.0" fill="none" stroke="rgb(0, 0, 0)" stroke-opacity="1.0" stroke-linecap="round" stroke-linejoin="round"/>
    <path d="M 32.03189468383789 167.41409301757812 C 16.49983024597168 150.74835205078125 5.380587577819824 182.167236328125 46.00332260131836 188.57237243652344" stroke-width="3.0" fill="none" stroke="rgb(0, 0, 0)" stroke-opacity="1.0" stroke-linecap="round" stroke-linejoin="round"/>
  </g>
</svg>
