<?xml version="1.0" ?>
<svg xmlns="http://www.w3.org/2000/svg" version="1.1" width="224" height="224">
  <defs/>
  <g>
    <path d="M 105.53032684326172 155.82009887695312 C 106.96578979492188 146.0678253173828 102.53660583496094 153.78048706054688 95.31220245361328 122.19445037841797" stroke-width="3.0" fill="none" stroke="rgb(0, 0, 0)" stroke-opacity="1.0" stroke-linecap="round" stroke-linejoin="round"/>
    <path d="M 128.90353393554688 134.6920166015625 C 128.72543334960938 134.8902130126953 129.85250854492188 132.21469116210938 129.31723022460938 133.78712463378906" stroke-width="3.0" fill="none" stroke="rgb(0, 0, 0)" stroke-opacity="1.0" stroke-linecap="round" stroke-linejoin="round"/>
    <path d="M 46.147396087646484 159.4582977294922 C 44.472625732421875 136.44210815429688 49.67921447753906 140.94268798828125 46.63496017456055 156.95289611816406" stroke-width="3.0" fill="none" stroke="rgb(0, 0, 0)" stroke-opacity="1.0" stroke-linecap="round" stroke-linejoin="round"/>
    <path d="M 128.38095092773438 114.37291717529297 C 128.60780334472656 132.33677673339844 131.4227752685547 132.75685119628906 128.3043212890625 136.19764709472656" stroke-width="3.0" fill="none" stroke="rgb(0, 0, 0)" stroke-opacity="1.0" stroke-linecap="round" stroke-linejoin="round"/>
    <path d="M 61.4219970703125 117.5345458984375 C 58.35015106201172 109.03498077392578 62.3609619140625 101.08882141113281 58.9847412109375 110.5111083984375" stroke-width="3.0" fill="none" stroke="rgb(0, 0, 0)" stroke-opacity="1.0" stroke-linecap="round" stroke-linejoin="round"/>
    <path d="M 128.3865203857422 124.82171630859375 C 128.36590576171875 144.02908325195312 125.33104705810547 135.150634765625 127.69634246826172 127.81424713134766" stroke-width="3.0" fill="none" stroke="rgb(0, 0, 0)" stroke-opacity="1.0" stroke-linecap="round" stroke-linejoin="round"/>
    <path d="M 67.35091400146484 107.60726165771484 C 65.3091812133789 104.67910766601562 49.21660614013672 94.51734924316406 66.77208709716797 105.67475128173828" stroke-width="3.0" fill="none" stroke="rgb(0, 0, 0)" stroke-opacity="1.0" stroke-linecap="round" stroke-linejoin="round"/>
    <path d="M 201.1863250732422 181.44300842285156 C 200.8136444091797 184.60072326660156 202.81980895996094 189.27120971679688 131.79515075683594 184.70603942871094" stroke-width="3.0" fill="none" stroke="rgb(0, 0, 0)" stroke-opacity="1.0" stroke-linecap="round" stroke-linejoin="round"/>
    <path d="M 132.9271697998047 189.6319580078125 C 127.68525695800781 198.11822509765625 125.69520568847656 189.00497436523438 82.66156768798828 194.2552490234375" stroke-width="3.0" fill="none" stroke="rgb(0, 0, 0)" stroke-opacity="1.0" stroke-linecap="round" stroke-linejoin="round"/>
    <path d="M 33.464412689208984 88.18253326416016 C 63.59524917602539 95.72978210449219 67.05695343017578 112.59732055664062 59.44815444946289 120.2105484008789" stroke-width="3.0" fill="none" stroke="rgb(0, 0, 0)" stroke-opacity="1.0" stroke-linecap="round" stroke-linejoin="round"/>
    <path d="M 109.97811126708984 179.3135528564453 C 137.33828735351562 180.9322967529297 120.60985565185547 174.3868408203125 126.9426498413086 175.42132568359375" stroke-width="3.0" fill="none" stroke="rgb(0, 0, 0)" stroke-opacity="1.0" stroke-linecap="round" stroke-linejoin="round"/>
    <path d="M 127.85877990722656 179.7613067626953 C 119.44999694824219 146.5084228515625 138.71351623535156 168.48370361328125 125.90086364746094 104.87979125976562" stroke-width="3.0" fill="none" stroke="rgb(0, 0, 0)" stroke-opacity="1.0" stroke-linecap="round" stroke-linejoin="round"/>
    <path d="M 47.18722152709961 153.58811950683594 C 50.89624786376953 122.12005615234375 59.88739776611328 136.9468231201172 68.40431213378906 106.10409545898438" stroke-width="3.0" fill="none" stroke="rgb(0, 0, 0)" stroke-opacity="1.0" stroke-linecap="round" stroke-linejoin="round"/>
    <path d="M 19.68485450744629 175.86404418945312 C 36.52907180786133 194.20303344726562 50.045291900634766 186.61509704589844 55.61708450317383 190.73452758789062" stroke-width="3.0" fill="none" stroke="rgb(0, 0, 0)" stroke-opacity="1.0" stroke-linecap="round" stroke-linejoin="round"/>
    <path d="M 64.17992401123047 65.9950180053711 C 98.1595687866211 37.69777297973633 84.06083679199219 38.6444091796875 88.51165008544922 71.99028015136719" stroke-width="3.0" fill="none" stroke="rgb(0, 0, 0)" stroke-opacity="1.0" stroke-linecap="round" stroke-linejoin="round"/>
    <path d="M 84.96649169921875 74.6706771850586 C 78.71656799316406 95.05671691894531 61.590904235839844 65.02976989746094 76.89710235595703 77.35994720458984" stroke-width="3.0" fill="none" stroke="rgb(0, 0, 0)" stroke-opacity="1.0" stroke-linecap="round" stroke-linejoin="round"/>
    <path d="M 48.18281936645508 99.24987030029297 C 38.32481384277344 12.95198917388916 38.14884567260742 64.10983276367188 80.94654846191406 65.66698455810547" stroke-width="3.0" fill="none" stroke="rgb(0, 0, 0)" stroke-opacity="1.0" stroke-linecap="round" stroke-linejoin="round"/>
    <path d="M 103.53602600097656 193.37750244140625 C 43.8370361328125 201.9663848876953 44.08845138549805 179.3578643798828 46.585784912109375 154.61239624023438" stroke-width="3.0" fill="none" stroke="rgb(0, 0, 0)" stroke-opacity="1.0" stroke-linecap="round" stroke-linejoin="round"/>
    <path d="M 102.4280014038086 178.01187133789062 C 108.53372192382812 166.49253845214844 100.82610321044922 178.68466186523438 105.83670806884766 141.8118896484375" stroke-width="3.0" fill="none" stroke="rgb(0, 0, 0)" stroke-opacity="1.0" stroke-linecap="round" stroke-linejoin="round"/>
    <path d="M 127.39546966552734 174.31076049804688 C 204.0563507080078 172.62135314941406 199.9348602294922 173.40164184570312 201.26258850097656 181.5289764404297" stroke-width="3.0" fill="none" stroke="rgb(0, 0, 0)" stroke-opacity="1.0" stroke-linecap="round" stroke-linejoin="round"/>
    <path d="M 53.906944274902344 189.6134796142578 C 71.32188415527344 197.31004333496094 54.720115661621094 190.6634521484375 50.860191345214844 190.20364379882812" stroke-width="3.0" fill="none" stroke="rgb(0, 0, 0)" stroke-opacity="1.0" stroke-linecap="round" stroke-linejoin="round"/>
    <path d="M 45.659400939941406 168.50611877441406 C 41.51902389526367 150.56631469726562 45.608150482177734 136.361328125 60.48025894165039 119.92984008789062" stroke-width="3.0" fill="none" stroke="rgb(0, 0, 0)" stroke-opacity="1.0" stroke-linecap="round" stroke-linejoin="round"/>
    <path d="M 37.31741714477539 94.94525909423828 C 59.338741302490234 83.55933380126953 60.748146057128906 123.10628509521484 61.322818756103516 105.50436401367188" stroke-width="3.0" fill="none" stroke="rgb(0, 0, 0)" stroke-opacity="1.0" stroke-linecap="round" stroke-linejoin="round"/>
    <path d="M 47.36052703857422 180.74525451660156 C 22.91852378845215 171.8380126953125 33.72678756713867 163.5522918701172 30.420578002929688 165.9045867919922" stroke-width="3.0" fill="none" stroke="rgb(0, 0, 0)" stroke-opacity="1.0" stroke-linecap="round" stroke-linejoin="round"/>
    <path d="M 62.352989196777344 60.008155822753906 C 54.13351821899414 111.70490264892578 19.47612762451172 52.96648025512695 72.01732635498047 61.412742614746094" stroke-width="3.0" fill="none" stroke="rgb(0, 0, 0)" stroke-opacity="1.0" stroke-linecap="round" stroke-linejoin="round"/>
    <path d="M 48.197261810302734 151.5363006591797 C 68.34300994873047 114.29296875 99.8389892578125 144.23388671875 98.63261413574219 156.69564819335938" stroke-width="3.0" fill="none" stroke="rgb(0, 0, 0)" stroke-opacity="1.0" stroke-linecap="round" stroke-linejoin="round"/>
    <path d="M 86.71895599365234 57.92127990722656 C 72.12133026123047 62.06664276123047 77.3039779663086 70.11526489257812 86.67477416992188 49.478572845458984" stroke-width="3.0" fill="none" stroke="rgb(0, 0, 0)" stroke-opacity="1.0" stroke-linecap="round" stroke-linejoin="round"/>
    <path d="M 53.51490783691406 188.94854736328125 C 41.691707611083984 188.24298095703125 50.203514099121094 189.04739379882812 46.69247817993164 189.13421630859375" stroke-width="3.0" fill="none" stroke="rgb(0, 0, 0)" stroke-opacity="1.0" stroke-linecap="round" stroke-linejoin="round"/>
    <path d="M 126.11900329589844 127.6214599609375 C 131.17054748535156 115.7303466796875 127.20991516113281 69.00109100341797 72.17276000976562 72.88500213623047" stroke-width="3.0" fill="none" stroke="rgb(0, 0, 0)" stroke-opacity="1.0" stroke-linecap="round" stroke-linejoin="round"/>
    <path d="M 63.6690673828125 79.18345642089844 C 11.49283504486084 65.66218566894531 78.29314422607422 109.73103332519531 51.32942199707031 131.9681396484375" stroke-width="3.0" fill="none" stroke="rgb(0, 0, 0)" stroke-opacity="1.0" stroke-linecap="round" stroke-linejoin="round"/>
    <path d="M 53.19215774536133 88.79776000976562 C 85.46237182617188 92.55818939208984 36.59747314453125 95.44988250732422 80.02098083496094 86.4266586303711" stroke-width="3.0" fill="none" stroke="rgb(0, 0, 0)" stroke-opacity="1.0" stroke-linecap="round" stroke-linejoin="round"/>
    <path d="M 33.302433013916016 166.78179931640625 C 15.33220100402832 150.7303924560547 4.0450592041015625 184.8973388671875 48.65679168701172 189.8988800048828" stroke-width="3.0" fill="none" stroke="rgb(0, 0, 0)" stroke-opacity="1.0" stroke-linecap="round" stroke-linejoin="round"/>
  </g>
</svg>
