<?xml version="1.0" ?>
<svg xmlns="http://www.w3.org/2000/svg" version="1.1" width="224" height="224">
  <defs/>
  <g>
    <path d="M 93.31429290771484 141.08226013183594 C 89.24995422363281 131.69874572753906 94.06511688232422 144.7136688232422 87.89488983154297 123.13765716552734" stroke-width="3.0" fill="none" stroke="rgb(0, 0, 0)" stroke-opacity="1.0" stroke-linecap="round" stroke-linejoin="round"/>
    <path d="M 112.55341339111328 141.04449462890625 C 110.84226989746094 151.92413330078125 110.45594787597656 151.26913452148438 113.16886901855469 138.70774841308594" stroke-width="3.0" fill="none" stroke="rgb(0, 0, 0)" stroke-opacity="1.0" stroke-linecap="round" stroke-linejoin="round"/>
    <path d="M 43.03757858276367 153.83001708984375 C 45.29140090942383 137.72938537597656 45.72917556762695 145.6708221435547 43.45824432373047 150.42425537109375" stroke-width="3.0" fill="none" stroke="rgb(0, 0, 0)" stroke-opacity="1.0" stroke-linecap="round" stroke-linejoin="round"/>
    <path d="M 122.00239562988281 119.77017974853516 C 119.06648254394531 130.62705993652344 121.66931915283203 126.17621612548828 112.29926300048828 140.49932861328125" stroke-width="3.0" fill="none" stroke="rgb(0, 0, 0)" stroke-opacity="1.0" stroke-linecap="round" stroke-linejoin="round"/>
    <path d="M 67.8423080444336 113.20394897460938 C 54.249088287353516 100.6348648071289 61.508155822753906 104.11796569824219 63.61552810668945 109.89932250976562" stroke-width="3.0" fill="none" stroke="rgb(0, 0, 0)" stroke-opacity="1.0" stroke-linecap="round" stroke-linejoin="round"/>
    <path d="M 114.73980712890625 137.75698852539062 C 109.27222442626953 143.81495666503906 110.0004653930664 150.4029998779297 111.98839569091797 144.90869140625" stroke-width="3.0" fill="none" stroke="rgb(0, 0, 0)" stroke-opacity="1.0" stroke-linecap="round" stroke-linejoin="round"/>
    <path d="M 64.85198974609375 113.29976654052734 C 60.77296829223633 111.58674621582031 59.133941650390625 96.06794738769531 61.302635192871094 114.23312377929688" stroke-width="3.0" fill="none" stroke="rgb(0, 0, 0)" stroke-opacity="1.0" stroke-linecap="round" stroke-linejoin="round"/>
    <path d="M 199.41688537597656 184.2703094482422 C 198.5213165283203 185.4820098876953 205.4125518798828 187.21290588378906 134.7337646484375 186.7238311767578" stroke-width="3.0" fill="none" stroke="rgb(0, 0, 0)" stroke-opacity="1.0" stroke-linecap="round" stroke-linejoin="round"/>
    <path d="M 130.5244598388672 189.5948028564453 C 128.00770568847656 196.83103942871094 128.56944274902344 188.24905395507812 86.5241470336914 196.2678680419922" stroke-width="3.0" fill="none" stroke="rgb(0, 0, 0)" stroke-opacity="1.0" stroke-linecap="round" stroke-linejoin="round"/>
    <path d="M 40.73798370361328 80.94799041748047 C 57.875328063964844 110.92686462402344 84.19703674316406 116.14647674560547 62.639644622802734 113.24061584472656" stroke-width="3.0" fill="none" stroke="rgb(0, 0, 0)" stroke-opacity="1.0" stroke-linecap="round" stroke-linejoin="round"/>
    <path d="M 109.09197235107422 174.19570922851562 C 122.84512329101562 176.68128967285156 131.17263793945312 169.4984130859375 133.0673370361328 175.86077880859375" stroke-width="3.0" fill="none" stroke="rgb(0, 0, 0)" stroke-opacity="1.0" stroke-linecap="round" stroke-linejoin="round"/>
    <path d="M 129.8780059814453 172.5979766845703 C 131.29061889648438 145.97918701171875 139.76576232910156 125.51805877685547 121.8467025756836 95.1856918334961" stroke-width="3.0" fill="none" stroke="rgb(0, 0, 0)" stroke-opacity="1.0" stroke-linecap="round" stroke-linejoin="round"/>
    <path d="M 45.08627700805664 153.1789093017578 C 51.36975860595703 125.11790466308594 55.32210922241211 139.0352783203125 56.07951736450195 118.28367614746094" stroke-width="3.0" fill="none" stroke="rgb(0, 0, 0)" stroke-opacity="1.0" stroke-linecap="round" stroke-linejoin="round"/>
    <path d="M 26.195072174072266 181.40863037109375 C 44.93592071533203 193.12872314453125 48.295082092285156 187.91311645507812 54.540103912353516 192.6278533935547" stroke-width="3.0" fill="none" stroke="rgb(0, 0, 0)" stroke-opacity="1.0" stroke-linecap="round" stroke-linejoin="round"/>
    <path d="M 66.13459777832031 63.45983123779297 C 94.96173095703125 35.833457946777344 86.69449615478516 38.106441497802734 89.02375030517578 69.61527252197266" stroke-width="3.0" fill="none" stroke="rgb(0, 0, 0)" stroke-opacity="1.0" stroke-linecap="round" stroke-linejoin="round"/>
    <path d="M 85.07296752929688 72.12100219726562 C 65.78792572021484 92.25675964355469 65.49000549316406 60.474830627441406 80.46700286865234 76.28276062011719" stroke-width="3.0" fill="none" stroke="rgb(0, 0, 0)" stroke-opacity="1.0" stroke-linecap="round" stroke-linejoin="round"/>
    <path d="M 42.34031677246094 77.46512603759766 C 45.24594497680664 32.133514404296875 33.795230865478516 46.76120376586914 70.8538818359375 65.17884063720703" stroke-width="3.0" fill="none" stroke="rgb(0, 0, 0)" stroke-opacity="1.0" stroke-linecap="round" stroke-linejoin="round"/>
    <path d="M 106.7022476196289 194.04942321777344 C 42.21143341064453 204.27915954589844 39.943241119384766 180.57615661621094 48.627525329589844 139.84559631347656" stroke-width="3.0" fill="none" stroke="rgb(0, 0, 0)" stroke-opacity="1.0" stroke-linecap="round" stroke-linejoin="round"/>
    <path d="M 97.354736328125 174.38816833496094 C 109.34100341796875 166.5708770751953 110.44149017333984 153.6356658935547 96.2063980102539 141.95716857910156" stroke-width="3.0" fill="none" stroke="rgb(0, 0, 0)" stroke-opacity="1.0" stroke-linecap="round" stroke-linejoin="round"/>
    <path d="M 133.1768341064453 174.83236694335938 C 194.8343048095703 173.84738159179688 206.12185668945312 171.8293914794922 199.01512145996094 185.21685791015625" stroke-width="3.0" fill="none" stroke="rgb(0, 0, 0)" stroke-opacity="1.0" stroke-linecap="round" stroke-linejoin="round"/>
    <path d="M 59.28618240356445 192.71148681640625 C 67.52227020263672 196.43385314941406 55.13423538208008 192.98605346679688 51.39554214477539 190.0778350830078" stroke-width="3.0" fill="none" stroke="rgb(0, 0, 0)" stroke-opacity="1.0" stroke-linecap="round" stroke-linejoin="round"/>
    <path d="M 45.60051345825195 170.02273559570312 C 41.91116714477539 155.11866760253906 42.578224182128906 143.567626953125 57.20201110839844 120.78707122802734" stroke-width="3.0" fill="none" stroke="rgb(0, 0, 0)" stroke-opacity="1.0" stroke-linecap="round" stroke-linejoin="round"/>
    <path d="M 60.778892517089844 107.34829711914062 C 61.12664031982422 106.75694274902344 65.11851501464844 122.77556610107422 61.0791130065918 109.42577362060547" stroke-width="3.0" fill="none" stroke="rgb(0, 0, 0)" stroke-opacity="1.0" stroke-linecap="round" stroke-linejoin="round"/>
    <path d="M 47.510643005371094 179.61228942871094 C 23.58454704284668 170.32485961914062 35.78380584716797 165.82493591308594 30.50341796875 163.99676513671875" stroke-width="3.0" fill="none" stroke="rgb(0, 0, 0)" stroke-opacity="1.0" stroke-linecap="round" stroke-linejoin="round"/>
    <path d="M 53.7600212097168 68.85847473144531 C 46.25615310668945 97.00021362304688 32.01048278808594 53.14967346191406 71.76509094238281 61.138397216796875" stroke-width="3.0" fill="none" stroke="rgb(0, 0, 0)" stroke-opacity="1.0" stroke-linecap="round" stroke-linejoin="round"/>
    <path d="M 61.346351623535156 127.20719909667969 C 86.73749542236328 129.1544952392578 97.6985092163086 148.0264434814453 103.65393829345703 152.21920776367188" stroke-width="3.0" fill="none" stroke="rgb(0, 0, 0)" stroke-opacity="1.0" stroke-linecap="round" stroke-linejoin="round"/>
    <path d="M 88.18608093261719 51.519935607910156 C 79.90006256103516 53.70494079589844 93.76201629638672 72.24678802490234 88.89447784423828 53.506568908691406" stroke-width="3.0" fill="none" stroke="rgb(0, 0, 0)" stroke-opacity="1.0" stroke-linecap="round" stroke-linejoin="round"/>
    <path d="M 46.19277572631836 188.4519500732422 C 32.70592498779297 185.7344207763672 41.933509826660156 187.63070678710938 46.54010009765625 189.1314697265625" stroke-width="3.0" fill="none" stroke="rgb(0, 0, 0)" stroke-opacity="1.0" stroke-linecap="round" stroke-linejoin="round"/>
    <path d="M 122.58792877197266 119.32769012451172 C 125.88391876220703 110.0708999633789 127.64561462402344 82.2791519165039 90.02532196044922 73.3527603149414" stroke-width="3.0" fill="none" stroke="rgb(0, 0, 0)" stroke-opacity="1.0" stroke-linecap="round" stroke-linejoin="round"/>
    <path d="M 49.90781021118164 85.88986206054688 C 22.1826229095459 86.7738037109375 69.26193237304688 88.10393524169922 54.25663375854492 125.07244110107422" stroke-width="3.0" fill="none" stroke="rgb(0, 0, 0)" stroke-opacity="1.0" stroke-linecap="round" stroke-linejoin="round"/>
    <path d="M 55.140106201171875 80.89990997314453 C 77.05232238769531 86.87139892578125 51.37523651123047 92.14913940429688 65.94456481933594 81.46446990966797" stroke-width="3.0" fill="none" stroke="rgb(0, 0, 0)" stroke-opacity="1.0" stroke-linecap="round" stroke-linejoin="round"/>
    <path d="M 33.43892288208008 165.71438598632812 C 19.207469940185547 151.8385009765625 4.933405876159668 180.29031372070312 41.54890823364258 187.85960388183594" stroke-width="3.0" fill="none" stroke="rgb(0, 0, 0)" stroke-opacity="1.0" stroke-linecap="round" stroke-linejoin="round"/>
  </g>
</svg>
