<?xml version="1.0" ?>
<svg xmlns="http://www.w3.org/2000/svg" version="1.1" width="224" height="224">
  <defs/>
  <g>
    <path d="M 94.76240539550781 141.94888305664062 C 94.1286849975586 126.86813354492188 93.88412475585938 142.18386840820312 90.81773376464844 124.00851440429688" stroke-width="3.0" fill="none" stroke="rgb(0, 0, 0)" stroke-opacity="1.0" stroke-linecap="round" stroke-linejoin="round"/>
    <path d="M 110.85075378417969 142.161376953125 C 107.98306274414062 153.851318359375 108.32816314697266 155.4038848876953 112.05445861816406 140.52450561523438" stroke-width="3.0" fill="none" stroke="rgb(0, 0, 0)" stroke-opacity="1.0" stroke-linecap="round" stroke-linejoin="round"/>
    <path d="M 43.969757080078125 153.23489379882812 C 47.81166458129883 137.80360412597656 45.54243850708008 145.4178009033203 44.22974395751953 149.99810791015625" stroke-width="3.0" fill="none" stroke="rgb(0, 0, 0)" stroke-opacity="1.0" stroke-linecap="round" stroke-linejoin="round"/>
    <path d="M 120.08551025390625 118.96190643310547 C 114.08394622802734 130.546630859375 119.2698745727539 131.32339477539062 113.11042785644531 138.90345764160156" stroke-width="3.0" fill="none" stroke="rgb(0, 0, 0)" stroke-opacity="1.0" stroke-linecap="round" stroke-linejoin="round"/>
    <path d="M 70.2430419921875 112.20301818847656 C 56.12481689453125 98.90789794921875 55.018985748291016 107.2861328125 65.39610290527344 106.28951263427734" stroke-width="3.0" fill="none" stroke="rgb(0, 0, 0)" stroke-opacity="1.0" stroke-linecap="round" stroke-linejoin="round"/>
    <path d="M 114.84014892578125 136.63563537597656 C 109.99230194091797 143.73556518554688 109.80286407470703 151.18609619140625 111.02081298828125 142.50601196289062" stroke-width="3.0" fill="none" stroke="rgb(0, 0, 0)" stroke-opacity="1.0" stroke-linecap="round" stroke-linejoin="round"/>
    <path d="M 62.48557662963867 120.1184310913086 C 61.113712310791016 101.99102783203125 53.3104248046875 95.83643341064453 64.20748901367188 112.73998260498047" stroke-width="3.0" fill="none" stroke="rgb(0, 0, 0)" stroke-opacity="1.0" stroke-linecap="round" stroke-linejoin="round"/>
    <path d="M 193.36590576171875 185.80975341796875 C 202.4940185546875 185.1063232421875 208.21864318847656 188.48114013671875 131.3444061279297 186.34617614746094" stroke-width="3.0" fill="none" stroke="rgb(0, 0, 0)" stroke-opacity="1.0" stroke-linecap="round" stroke-linejoin="round"/>
    <path d="M 127.62044525146484 191.29771423339844 C 120.2823486328125 198.50096130371094 128.73284912109375 188.9342041015625 86.21819305419922 194.82192993164062" stroke-width="3.0" fill="none" stroke="rgb(0, 0, 0)" stroke-opacity="1.0" stroke-linecap="round" stroke-linejoin="round"/>
    <path d="M 40.62860870361328 82.09841918945312 C 55.86714172363281 110.98487854003906 89.5569076538086 107.57775115966797 58.175071716308594 106.6151351928711" stroke-width="3.0" fill="none" stroke="rgb(0, 0, 0)" stroke-opacity="1.0" stroke-linecap="round" stroke-linejoin="round"/>
    <path d="M 105.60348510742188 162.4143524169922 C 122.92292785644531 164.82040405273438 125.59617614746094 162.89671325683594 128.01622009277344 170.99578857421875" stroke-width="3.0" fill="none" stroke="rgb(0, 0, 0)" stroke-opacity="1.0" stroke-linecap="round" stroke-linejoin="round"/>
    <path d="M 128.0356903076172 167.7794189453125 C 130.68141174316406 145.05682373046875 134.18360900878906 119.79210662841797 120.25629425048828 96.95272827148438" stroke-width="3.0" fill="none" stroke="rgb(0, 0, 0)" stroke-opacity="1.0" stroke-linecap="round" stroke-linejoin="round"/>
    <path d="M 44.866729736328125 149.9869842529297 C 51.10055160522461 126.75321960449219 51.953311920166016 140.8653106689453 58.45880126953125 117.2452392578125" stroke-width="3.0" fill="none" stroke="rgb(0, 0, 0)" stroke-opacity="1.0" stroke-linecap="round" stroke-linejoin="round"/>
    <path d="M 27.28150749206543 182.46803283691406 C 41.819332122802734 193.3660125732422 45.616390228271484 185.775390625 58.320648193359375 192.09893798828125" stroke-width="3.0" fill="none" stroke="rgb(0, 0, 0)" stroke-opacity="1.0" stroke-linecap="round" stroke-linejoin="round"/>
    <path d="M 67.47313690185547 60.6853141784668 C 97.49581146240234 35.633201599121094 89.08193969726562 35.2114143371582 90.95490264892578 71.20285034179688" stroke-width="3.0" fill="none" stroke="rgb(0, 0, 0)" stroke-opacity="1.0" stroke-linecap="round" stroke-linejoin="round"/>
    <path d="M 80.91571807861328 72.1921157836914 C 68.75659942626953 93.99311828613281 66.57401275634766 60.5461540222168 80.56456756591797 73.99724578857422" stroke-width="3.0" fill="none" stroke="rgb(0, 0, 0)" stroke-opacity="1.0" stroke-linecap="round" stroke-linejoin="round"/>
    <path d="M 44.594459533691406 74.0103988647461 C 44.10565948486328 37.80780029296875 35.39960479736328 48.34086990356445 68.83796691894531 63.27847671508789" stroke-width="3.0" fill="none" stroke="rgb(0, 0, 0)" stroke-opacity="1.0" stroke-linecap="round" stroke-linejoin="round"/>
    <path d="M 103.16259002685547 192.74264526367188 C 41.97817611694336 202.27880859375 38.559532165527344 179.41305541992188 47.8045539855957 138.158447265625" stroke-width="3.0" fill="none" stroke="rgb(0, 0, 0)" stroke-opacity="1.0" stroke-linecap="round" stroke-linejoin="round"/>
    <path d="M 98.27250671386719 163.750244140625 C 100.4427261352539 164.2334747314453 103.34883117675781 155.36355590820312 92.51337432861328 145.85861206054688" stroke-width="3.0" fill="none" stroke="rgb(0, 0, 0)" stroke-opacity="1.0" stroke-linecap="round" stroke-linejoin="round"/>
    <path d="M 129.02015686035156 174.60035705566406 C 185.83819580078125 176.24563598632812 209.89642333984375 169.83963012695312 198.10263061523438 186.6593475341797" stroke-width="3.0" fill="none" stroke="rgb(0, 0, 0)" stroke-opacity="1.0" stroke-linecap="round" stroke-linejoin="round"/>
    <path d="M 60.85030746459961 192.15713500976562 C 69.64016723632812 195.97210693359375 58.31605911254883 192.9178466796875 51.94866943359375 187.7930908203125" stroke-width="3.0" fill="none" stroke="rgb(0, 0, 0)" stroke-opacity="1.0" stroke-linecap="round" stroke-linejoin="round"/>
    <path d="M 44.08673095703125 170.82618713378906 C 42.51673126220703 155.45724487304688 40.435752868652344 139.55772399902344 55.894100189208984 121.24429321289062" stroke-width="3.0" fill="none" stroke="rgb(0, 0, 0)" stroke-opacity="1.0" stroke-linecap="round" stroke-linejoin="round"/>
    <path d="M 59.56998825073242 104.57191467285156 C 58.27326965332031 110.07587432861328 74.82233428955078 121.70610809326172 58.521541595458984 107.01139068603516" stroke-width="3.0" fill="none" stroke="rgb(0, 0, 0)" stroke-opacity="1.0" stroke-linecap="round" stroke-linejoin="round"/>
    <path d="M 47.12067413330078 181.1552276611328 C 21.477577209472656 171.75442504882812 36.458106994628906 166.38153076171875 30.57095718383789 165.61138916015625" stroke-width="3.0" fill="none" stroke="rgb(0, 0, 0)" stroke-opacity="1.0" stroke-linecap="round" stroke-linejoin="round"/>
    <path d="M 51.63022232055664 74.10713195800781 C 41.364479064941406 98.84449005126953 36.37477493286133 47.97661209106445 70.00523376464844 58.962894439697266" stroke-width="3.0" fill="none" stroke="rgb(0, 0, 0)" stroke-opacity="1.0" stroke-linecap="round" stroke-linejoin="round"/>
    <path d="M 66.33122253417969 132.6313018798828 C 89.74488830566406 137.22998046875 91.38004302978516 145.14479064941406 96.13993835449219 151.38465881347656" stroke-width="3.0" fill="none" stroke="rgb(0, 0, 0)" stroke-opacity="1.0" stroke-linecap="round" stroke-linejoin="round"/>
    <path d="M 89.74031066894531 48.909759521484375 C 81.5377426147461 56.08867263793945 97.16756439208984 78.32731628417969 83.71597290039062 56.275634765625" stroke-width="3.0" fill="none" stroke="rgb(0, 0, 0)" stroke-opacity="1.0" stroke-linecap="round" stroke-linejoin="round"/>
    <path d="M 49.46662139892578 189.62139892578125 C 31.27418327331543 185.64120483398438 38.29951477050781 187.93638610839844 48.15676498413086 189.0419464111328" stroke-width="3.0" fill="none" stroke="rgb(0, 0, 0)" stroke-opacity="1.0" stroke-linecap="round" stroke-linejoin="round"/>
    <path d="M 117.57970428466797 124.04927825927734 C 125.65400695800781 110.2291030883789 128.55931091308594 85.04052734375 89.40543365478516 75.68135070800781" stroke-width="3.0" fill="none" stroke="rgb(0, 0, 0)" stroke-opacity="1.0" stroke-linecap="round" stroke-linejoin="round"/>
    <path d="M 50.124271392822266 86.58795928955078 C 24.24116325378418 91.08336639404297 68.92222595214844 89.49620056152344 54.762596130371094 125.58525085449219" stroke-width="3.0" fill="none" stroke="rgb(0, 0, 0)" stroke-opacity="1.0" stroke-linecap="round" stroke-linejoin="round"/>
    <path d="M 55.773468017578125 82.5116195678711 C 78.80310821533203 87.18841552734375 49.44812774658203 93.54857635498047 66.98816680908203 83.42550659179688" stroke-width="3.0" fill="none" stroke="rgb(0, 0, 0)" stroke-opacity="1.0" stroke-linecap="round" stroke-linejoin="round"/>
    <path d="M 32.118614196777344 165.56842041015625 C 17.276721954345703 152.5526580810547 5.989124298095703 179.0666046142578 39.231849670410156 187.63174438476562" stroke-width="3.0" fill="none" stroke="rgb(0, 0, 0)" stroke-opacity="1.0" stroke-linecap="round" stroke-linejoin="round"/>
  </g>
</svg>
