<?xml version="1.0" ?>
<svg xmlns="http://www.w3.org/2000/svg" version="1.1" width="224" height="224">
  <defs/>
  <g>
    <path d="M 101.06295776367188 149.7480010986328 C 92.09149932861328 133.31646728515625 98.52831268310547 142.69493103027344 93.38421630859375 122.11527252197266" stroke-width="3.0" fill="none" stroke="rgb(0, 0, 0)" stroke-opacity="1.0" stroke-linecap="round" stroke-linejoin="round"/>
    <path d="M 113.24309539794922 141.0548858642578 C 113.21221923828125 143.8963165283203 111.74821472167969 143.4722900390625 114.93504333496094 137.9710235595703" stroke-width="3.0" fill="none" stroke="rgb(0, 0, 0)" stroke-opacity="1.0" stroke-linecap="round" stroke-linejoin="round"/>
    <path d="M 43.65874099731445 151.005859375 C 46.49783706665039 138.5373077392578 44.783531188964844 145.3300018310547 43.70680236816406 151.12770080566406" stroke-width="3.0" fill="none" stroke="rgb(0, 0, 0)" stroke-opacity="1.0" stroke-linecap="round" stroke-linejoin="round"/>
    <path d="M 123.43589782714844 120.78184509277344 C 119.3515625 133.0886688232422 121.26030731201172 123.44530487060547 113.13721466064453 140.70040893554688" stroke-width="3.0" fill="none" stroke="rgb(0, 0, 0)" stroke-opacity="1.0" stroke-linecap="round" stroke-linejoin="round"/>
    <path d="M 70.18717956542969 111.75504302978516 C 53.824432373046875 102.73326110839844 63.83344268798828 103.31812286376953 64.47960662841797 111.58259582519531" stroke-width="3.0" fill="none" stroke="rgb(0, 0, 0)" stroke-opacity="1.0" stroke-linecap="round" stroke-linejoin="round"/>
    <path d="M 116.58403778076172 133.95440673828125 C 111.2512435913086 139.5008087158203 114.40727996826172 144.60879516601562 113.6768569946289 140.98648071289062" stroke-width="3.0" fill="none" stroke="rgb(0, 0, 0)" stroke-opacity="1.0" stroke-linecap="round" stroke-linejoin="round"/>
    <path d="M 67.28517150878906 110.65388488769531 C 62.259193420410156 113.45687866210938 56.35708236694336 100.29531860351562 66.30570220947266 109.7983627319336" stroke-width="3.0" fill="none" stroke="rgb(0, 0, 0)" stroke-opacity="1.0" stroke-linecap="round" stroke-linejoin="round"/>
    <path d="M 198.6127471923828 182.51890563964844 C 198.31007385253906 183.35179138183594 202.40652465820312 188.92283630371094 130.89645385742188 184.3363800048828" stroke-width="3.0" fill="none" stroke="rgb(0, 0, 0)" stroke-opacity="1.0" stroke-linecap="round" stroke-linejoin="round"/>
    <path d="M 129.70433044433594 190.70726013183594 C 133.70375061035156 201.803466796875 124.02445220947266 190.82005310058594 78.63890075683594 196.5013885498047" stroke-width="3.0" fill="none" stroke="rgb(0, 0, 0)" stroke-opacity="1.0" stroke-linecap="round" stroke-linejoin="round"/>
    <path d="M 36.52883529663086 86.9729232788086 C 61.91807174682617 107.34455871582031 78.8333969116211 117.74063873291016 64.01024627685547 112.63969421386719" stroke-width="3.0" fill="none" stroke="rgb(0, 0, 0)" stroke-opacity="1.0" stroke-linecap="round" stroke-linejoin="round"/>
    <path d="M 105.28247833251953 178.6797332763672 C 137.718017578125 181.0221710205078 124.83930206298828 172.96099853515625 128.05740356445312 180.9703826904297" stroke-width="3.0" fill="none" stroke="rgb(0, 0, 0)" stroke-opacity="1.0" stroke-linecap="round" stroke-linejoin="round"/>
    <path d="M 126.98381805419922 176.67164611816406 C 119.91673278808594 151.77479553222656 141.0984344482422 153.21636962890625 120.5003890991211 93.84544372558594" stroke-width="3.0" fill="none" stroke="rgb(0, 0, 0)" stroke-opacity="1.0" stroke-linecap="round" stroke-linejoin="round"/>
    <path d="M 43.867733001708984 154.41030883789062 C 52.214439392089844 122.1785659790039 56.81634521484375 137.22528076171875 59.541439056396484 116.17379760742188" stroke-width="3.0" fill="none" stroke="rgb(0, 0, 0)" stroke-opacity="1.0" stroke-linecap="round" stroke-linejoin="round"/>
    <path d="M 24.953004837036133 180.7436065673828 C 43.423213958740234 194.1323699951172 50.40312576293945 183.86947631835938 57.327247619628906 191.8807830810547" stroke-width="3.0" fill="none" stroke="rgb(0, 0, 0)" stroke-opacity="1.0" stroke-linecap="round" stroke-linejoin="round"/>
    <path d="M 64.73056030273438 63.39927673339844 C 99.04798889160156 35.03468322753906 87.44624328613281 35.55072021484375 90.37001037597656 68.48123168945312" stroke-width="3.0" fill="none" stroke="rgb(0, 0, 0)" stroke-opacity="1.0" stroke-linecap="round" stroke-linejoin="round"/>
    <path d="M 82.28755187988281 73.90800476074219 C 72.48837280273438 92.46034240722656 66.02720642089844 59.03049850463867 83.10958862304688 72.56380462646484" stroke-width="3.0" fill="none" stroke="rgb(0, 0, 0)" stroke-opacity="1.0" stroke-linecap="round" stroke-linejoin="round"/>
    <path d="M 46.119388580322266 90.81669616699219 C 43.704124450683594 25.29966163635254 36.1200065612793 56.30513000488281 73.7037124633789 63.185115814208984" stroke-width="3.0" fill="none" stroke="rgb(0, 0, 0)" stroke-opacity="1.0" stroke-linecap="round" stroke-linejoin="round"/>
    <path d="M 104.32066345214844 195.4304656982422 C 43.150577545166016 201.7913818359375 40.953468322753906 179.11285400390625 48.4791145324707 137.13565063476562" stroke-width="3.0" fill="none" stroke="rgb(0, 0, 0)" stroke-opacity="1.0" stroke-linecap="round" stroke-linejoin="round"/>
    <path d="M 99.69296264648438 177.19482421875 C 103.60482788085938 167.65631103515625 104.01206970214844 158.61070251464844 97.7979965209961 144.34512329101562" stroke-width="3.0" fill="none" stroke="rgb(0, 0, 0)" stroke-opacity="1.0" stroke-linecap="round" stroke-linejoin="round"/>
    <path d="M 129.62171936035156 175.41726684570312 C 201.13743591308594 175.09292602539062 199.48580932617188 173.26809692382812 197.4517059326172 182.34378051757812" stroke-width="3.0" fill="none" stroke="rgb(0, 0, 0)" stroke-opacity="1.0" stroke-linecap="round" stroke-linejoin="round"/>
    <path d="M 51.004798889160156 188.90965270996094 C 71.74604797363281 195.94229125976562 54.39321517944336 192.04588317871094 55.28596115112305 190.62339782714844" stroke-width="3.0" fill="none" stroke="rgb(0, 0, 0)" stroke-opacity="1.0" stroke-linecap="round" stroke-linejoin="round"/>
    <path d="M 45.185874938964844 168.10487365722656 C 43.37168502807617 145.56524658203125 41.805946350097656 140.59036254882812 57.6029167175293 118.99246215820312" stroke-width="3.0" fill="none" stroke="rgb(0, 0, 0)" stroke-opacity="1.0" stroke-linecap="round" stroke-linejoin="round"/>
    <path d="M 38.33964157104492 95.00035095214844 C 61.78526306152344 87.74746704101562 60.776641845703125 121.77349090576172 62.34801483154297 106.07461547851562" stroke-width="3.0" fill="none" stroke="rgb(0, 0, 0)" stroke-opacity="1.0" stroke-linecap="round" stroke-linejoin="round"/>
    <path d="M 44.085662841796875 180.7162628173828 C 23.260986328125 173.9029541015625 34.07252883911133 162.48085021972656 32.642276763916016 167.2508087158203" stroke-width="3.0" fill="none" stroke="rgb(0, 0, 0)" stroke-opacity="1.0" stroke-linecap="round" stroke-linejoin="round"/>
    <path d="M 59.06747055053711 64.60252380371094 C 58.1060676574707 104.73200988769531 18.077062606811523 52.721839904785156 72.92521667480469 57.56111145019531" stroke-width="3.0" fill="none" stroke="rgb(0, 0, 0)" stroke-opacity="1.0" stroke-linecap="round" stroke-linejoin="round"/>
    <path d="M 63.1315803527832 128.31517028808594 C 78.90423583984375 128.37362670898438 103.37347412109375 145.136962890625 103.84327697753906 156.09861755371094" stroke-width="3.0" fill="none" stroke="rgb(0, 0, 0)" stroke-opacity="1.0" stroke-linecap="round" stroke-linejoin="round"/>
    <path d="M 90.14215087890625 49.48819351196289 C 81.97794342041016 52.917076110839844 93.59017944335938 67.00536346435547 88.26069641113281 52.892608642578125" stroke-width="3.0" fill="none" stroke="rgb(0, 0, 0)" stroke-opacity="1.0" stroke-linecap="round" stroke-linejoin="round"/>
    <path d="M 48.30282974243164 188.0251007080078 C 37.93672561645508 186.3911895751953 49.14973831176758 186.53819274902344 47.77260971069336 188.65911865234375" stroke-width="3.0" fill="none" stroke="rgb(0, 0, 0)" stroke-opacity="1.0" stroke-linecap="round" stroke-linejoin="round"/>
    <path d="M 123.17037963867188 119.2659683227539 C 126.94189453125 113.98478698730469 127.43474578857422 81.53527069091797 89.09477996826172 72.85635375976562" stroke-width="3.0" fill="none" stroke="rgb(0, 0, 0)" stroke-opacity="1.0" stroke-linecap="round" stroke-linejoin="round"/>
    <path d="M 54.38541793823242 73.96538543701172 C 25.655750274658203 95.85969543457031 75.24286651611328 89.9546890258789 54.751190185546875 128.3826904296875" stroke-width="3.0" fill="none" stroke="rgb(0, 0, 0)" stroke-opacity="1.0" stroke-linecap="round" stroke-linejoin="round"/>
    <path d="M 56.85575866699219 83.00464630126953 C 78.06639862060547 92.15415954589844 42.85478210449219 95.14359283447266 66.89900207519531 82.1680908203125" stroke-width="3.0" fill="none" stroke="rgb(0, 0, 0)" stroke-opacity="1.0" stroke-linecap="round" stroke-linejoin="round"/>
    <path d="M 30.46583366394043 166.8572540283203 C 16.93502426147461 154.6348876953125 2.4232964515686035 181.38461303710938 45.26369094848633 187.2735137939453" stroke-width="3.0" fill="none" stroke="rgb(0, 0, 0)" stroke-opacity="1.0" stroke-linecap="round" stroke-linejoin="round"/>
  </g>
</svg>
