<?xml version="1.0" ?>
<svg xmlns="http://www.w3.org/2000/svg" version="1.1" width="224" height="224">
  <defs/>
  <g>
    <path d="M 108.0253677368164 179.911865234375 C 105.04532623291016 147.30860900878906 105.41822814941406 153.1461944580078 92.23486328125 122.48577880859375" stroke-width="3.0" fill="none" stroke="rgb(0, 0, 0)" stroke-opacity="1.0" stroke-linecap="round" stroke-linejoin="round"/>
    <path d="M 130.15621948242188 149.998046875 C 127.18402099609375 120.8324966430664 129.29641723632812 128.59254455566406 130.1851806640625 135.2666473388672" stroke-width="3.0" fill="none" stroke="rgb(0, 0, 0)" stroke-opacity="1.0" stroke-linecap="round" stroke-linejoin="round"/>
    <path d="M 46.832008361816406 164.17990112304688 C 46.34139633178711 152.80633544921875 51.82395935058594 140.0321502685547 46.4161376953125 155.07778930664062" stroke-width="3.0" fill="none" stroke="rgb(0, 0, 0)" stroke-opacity="1.0" stroke-linecap="round" stroke-linejoin="round"/>
    <path d="M 127.44017791748047 124.63567352294922 C 123.18421936035156 136.4359130859375 129.85098266601562 137.96266174316406 130.2886505126953 141.57723999023438" stroke-width="3.0" fill="none" stroke="rgb(0, 0, 0)" stroke-opacity="1.0" stroke-linecap="round" stroke-linejoin="round"/>
    <path d="M 58.8053092956543 122.06105041503906 C 63.10664367675781 92.36089324951172 71.47476196289062 88.44810485839844 64.4477767944336 112.16389465332031" stroke-width="3.0" fill="none" stroke="rgb(0, 0, 0)" stroke-opacity="1.0" stroke-linecap="round" stroke-linejoin="round"/>
    <path d="M 128.44403076171875 122.03614807128906 C 125.38838958740234 141.23545837402344 126.54483032226562 137.5059814453125 127.93525695800781 115.06786346435547" stroke-width="3.0" fill="none" stroke="rgb(0, 0, 0)" stroke-opacity="1.0" stroke-linecap="round" stroke-linejoin="round"/>
    <path d="M 60.12701416015625 121.77144622802734 C 76.82938385009766 92.54862976074219 41.0109977722168 90.30052947998047 61.61014938354492 109.61172485351562" stroke-width="3.0" fill="none" stroke="rgb(0, 0, 0)" stroke-opacity="1.0" stroke-linecap="round" stroke-linejoin="round"/>
    <path d="M 199.79673767089844 176.30764770507812 C 203.49978637695312 187.46397399902344 201.8158721923828 193.2056427001953 129.01744079589844 184.02731323242188" stroke-width="3.0" fill="none" stroke="rgb(0, 0, 0)" stroke-opacity="1.0" stroke-linecap="round" stroke-linejoin="round"/>
    <path d="M 129.74107360839844 193.6062774658203 C 126.7913589477539 202.0839385986328 129.77975463867188 193.0902099609375 72.52781677246094 194.47789001464844" stroke-width="3.0" fill="none" stroke="rgb(0, 0, 0)" stroke-opacity="1.0" stroke-linecap="round" stroke-linejoin="round"/>
    <path d="M 34.52948760986328 89.3807601928711 C 61.48216247558594 81.63774108886719 65.02919006347656 103.21683502197266 60.068912506103516 124.79593658447266" stroke-width="3.0" fill="none" stroke="rgb(0, 0, 0)" stroke-opacity="1.0" stroke-linecap="round" stroke-linejoin="round"/>
    <path d="M 103.62344360351562 180.54925537109375 C 144.9914093017578 182.47264099121094 122.75171661376953 179.14712524414062 127.62886047363281 181.7614288330078" stroke-width="3.0" fill="none" stroke="rgb(0, 0, 0)" stroke-opacity="1.0" stroke-linecap="round" stroke-linejoin="round"/>
    <path d="M 130.40679931640625 187.89305114746094 C 116.66290283203125 141.06753540039062 140.5366973876953 171.41246032714844 123.988525390625 103.76871490478516" stroke-width="3.0" fill="none" stroke="rgb(0, 0, 0)" stroke-opacity="1.0" stroke-linecap="round" stroke-linejoin="round"/>
    <path d="M 46.756744384765625 154.800537109375 C 51.77629470825195 121.34830474853516 59.70747756958008 132.17172241210938 65.27167510986328 93.47065734863281" stroke-width="3.0" fill="none" stroke="rgb(0, 0, 0)" stroke-opacity="1.0" stroke-linecap="round" stroke-linejoin="round"/>
    <path d="M 20.945791244506836 169.37318420410156 C 25.83348846435547 185.54986572265625 56.317710876464844 184.46572875976562 43.03289031982422 186.02549743652344" stroke-width="3.0" fill="none" stroke="rgb(0, 0, 0)" stroke-opacity="1.0" stroke-linecap="round" stroke-linejoin="round"/>
    <path d="M 62.9895133972168 61.240970611572266 C 94.34154510498047 59.67502975463867 87.96128845214844 18.79180335998535 89.0529556274414 73.62693786621094" stroke-width="3.0" fill="none" stroke="rgb(0, 0, 0)" stroke-opacity="1.0" stroke-linecap="round" stroke-linejoin="round"/>
    <path d="M 78.24207305908203 63.10702896118164 C 101.31098937988281 106.2511215209961 39.706668853759766 64.14839935302734 69.94644927978516 77.46454620361328" stroke-width="3.0" fill="none" stroke="rgb(0, 0, 0)" stroke-opacity="1.0" stroke-linecap="round" stroke-linejoin="round"/>
    <path d="M 51.04728317260742 97.14231872558594 C 34.86482620239258 8.952778816223145 41.427406311035156 71.55110931396484 88.42070007324219 67.55274200439453" stroke-width="3.0" fill="none" stroke="rgb(0, 0, 0)" stroke-opacity="1.0" stroke-linecap="round" stroke-linejoin="round"/>
    <path d="M 106.35902404785156 195.2149200439453 C 46.303688049316406 200.42591857910156 45.9210205078125 176.82110595703125 52.81110382080078 154.65164184570312" stroke-width="3.0" fill="none" stroke="rgb(0, 0, 0)" stroke-opacity="1.0" stroke-linecap="round" stroke-linejoin="round"/>
    <path d="M 98.17244720458984 178.8286590576172 C 99.6982421875 168.6536865234375 103.10879516601562 177.8639373779297 106.07040405273438 136.85067749023438" stroke-width="3.0" fill="none" stroke="rgb(0, 0, 0)" stroke-opacity="1.0" stroke-linecap="round" stroke-linejoin="round"/>
    <path d="M 129.53485107421875 172.83990478515625 C 210.155517578125 174.8253173828125 198.86668395996094 174.4798583984375 201.22817993164062 182.99937438964844" stroke-width="3.0" fill="none" stroke="rgb(0, 0, 0)" stroke-opacity="1.0" stroke-linecap="round" stroke-linejoin="round"/>
    <path d="M 47.10264587402344 183.61497497558594 C 56.209800720214844 191.06419372558594 43.66101837158203 182.85984802246094 48.91581726074219 184.8948516845703" stroke-width="3.0" fill="none" stroke="rgb(0, 0, 0)" stroke-opacity="1.0" stroke-linecap="round" stroke-linejoin="round"/>
    <path d="M 48.8537483215332 186.57888793945312 C 37.24663162231445 149.65077209472656 44.473907470703125 133.84117126464844 59.23990249633789 119.53864288330078" stroke-width="3.0" fill="none" stroke="rgb(0, 0, 0)" stroke-opacity="1.0" stroke-linecap="round" stroke-linejoin="round"/>
    <path d="M 42.791259765625 94.85877227783203 C 61.153350830078125 80.79705047607422 59.33852767944336 121.770263671875 57.72846603393555 103.39873504638672" stroke-width="3.0" fill="none" stroke="rgb(0, 0, 0)" stroke-opacity="1.0" stroke-linecap="round" stroke-linejoin="round"/>
    <path d="M 48.66913986206055 186.5637969970703 C 21.67502784729004 173.1591033935547 32.318695068359375 164.68502807617188 31.072355270385742 166.20703125" stroke-width="3.0" fill="none" stroke="rgb(0, 0, 0)" stroke-opacity="1.0" stroke-linecap="round" stroke-linejoin="round"/>
    <path d="M 58.20875549316406 67.69535827636719 C 54.409183502197266 105.6926498413086 22.4298095703125 42.613670349121094 82.47607421875 66.5885238647461" stroke-width="3.0" fill="none" stroke="rgb(0, 0, 0)" stroke-opacity="1.0" stroke-linecap="round" stroke-linejoin="round"/>
    <path d="M 47.2197151184082 171.78953552246094 C 56.43657684326172 116.5166015625 104.71501922607422 134.3747100830078 99.48849487304688 160.82913208007812" stroke-width="3.0" fill="none" stroke="rgb(0, 0, 0)" stroke-opacity="1.0" stroke-linecap="round" stroke-linejoin="round"/>
    <path d="M 78.2358627319336 53.573211669921875 C 65.55242919921875 95.55374908447266 59.47153854370117 66.14791870117188 85.61979675292969 46.48114013671875" stroke-width="3.0" fill="none" stroke="rgb(0, 0, 0)" stroke-opacity="1.0" stroke-linecap="round" stroke-linejoin="round"/>
    <path d="M 28.366973876953125 179.963623046875 C 36.125518798828125 189.69114685058594 51.09759521484375 190.03526306152344 52.80799865722656 180.03038024902344" stroke-width="3.0" fill="none" stroke="rgb(0, 0, 0)" stroke-opacity="1.0" stroke-linecap="round" stroke-linejoin="round"/>
    <path d="M 127.7100601196289 133.30740356445312 C 135.87539672851562 116.99665069580078 109.86174011230469 55.54279708862305 63.03120422363281 71.5223159790039" stroke-width="3.0" fill="none" stroke="rgb(0, 0, 0)" stroke-opacity="1.0" stroke-linecap="round" stroke-linejoin="round"/>
    <path d="M 55.63824462890625 77.62899780273438 C 22.518693923950195 65.6733169555664 80.99676513671875 113.37886810302734 52.53853988647461 131.8564910888672" stroke-width="3.0" fill="none" stroke="rgb(0, 0, 0)" stroke-opacity="1.0" stroke-linecap="round" stroke-linejoin="round"/>
    <path d="M 56.47500228881836 85.13963317871094 C 80.46538543701172 75.3866195678711 28.03394317626953 108.90043640136719 83.52288818359375 86.93458557128906" stroke-width="3.0" fill="none" stroke="rgb(0, 0, 0)" stroke-opacity="1.0" stroke-linecap="round" stroke-linejoin="round"/>
    <path d="M 32.32422637939453 166.3734893798828 C 16.055200576782227 154.12234497070312 10.69299030303955 183.8470916748047 56.13008499145508 189.62551879882812" stroke-width="3.0" fill="none" stroke="rgb(0, 0, 0)" stroke-opacity="1.0" stroke-linecap="round" stroke-linejoin="round"/>
  </g>
</svg>
