<?xml version="1.0" ?>
<svg xmlns="http://www.w3.org/2000/svg" version="1.1" width="224" height="224">
  <defs/>
  <g>
    <path d="M 108.2981185913086 178.5509033203125 C 104.04036712646484 147.9747314453125 105.7219009399414 158.140625 89.33296203613281 121.02153015136719" stroke-width="3.0" fill="none" stroke="rgb(0, 0, 0)" stroke-opacity="1.0" stroke-linecap="round" stroke-linejoin="round"/>
    <path d="M 126.09217071533203 155.0269012451172 C 123.73609161376953 102.17406463623047 132.0848388671875 123.52586364746094 124.7122802734375 166.55770874023438" stroke-width="3.0" fill="none" stroke="rgb(0, 0, 0)" stroke-opacity="1.0" stroke-linecap="round" stroke-linejoin="round"/>
    <path d="M 48.133094787597656 169.94451904296875 C 43.96994400024414 155.93551635742188 43.441986083984375 146.1643524169922 45.768341064453125 164.51829528808594" stroke-width="3.0" fill="none" stroke="rgb(0, 0, 0)" stroke-opacity="1.0" stroke-linecap="round" stroke-linejoin="round"/>
    <path d="M 128.09803771972656 118.36859893798828 C 130.7852783203125 132.3101806640625 136.23626708984375 130.28807067871094 125.3997573852539 153.9715118408203" stroke-width="3.0" fill="none" stroke="rgb(0, 0, 0)" stroke-opacity="1.0" stroke-linecap="round" stroke-linejoin="round"/>
    <path d="M 60.72554016113281 125.18443298339844 C 77.87531280517578 85.39179229736328 65.83023071289062 97.39197540283203 68.00066375732422 110.953369140625" stroke-width="3.0" fill="none" stroke="rgb(0, 0, 0)" stroke-opacity="1.0" stroke-linecap="round" stroke-linejoin="round"/>
    <path d="M 126.12653350830078 108.43734741210938 C 132.05833435058594 130.4324951171875 120.16519165039062 139.28012084960938 125.30670928955078 111.25245666503906" stroke-width="3.0" fill="none" stroke="rgb(0, 0, 0)" stroke-opacity="1.0" stroke-linecap="round" stroke-linejoin="round"/>
    <path d="M 61.59201431274414 123.57422637939453 C 66.08219909667969 95.765625 46.22315979003906 85.5926742553711 63.23023223876953 112.56974029541016" stroke-width="3.0" fill="none" stroke="rgb(0, 0, 0)" stroke-opacity="1.0" stroke-linecap="round" stroke-linejoin="round"/>
    <path d="M 196.006591796875 177.5592498779297 C 207.8724365234375 185.95584106445312 200.75209045410156 191.6626739501953 118.86493682861328 182.76861572265625" stroke-width="3.0" fill="none" stroke="rgb(0, 0, 0)" stroke-opacity="1.0" stroke-linecap="round" stroke-linejoin="round"/>
    <path d="M 128.15176391601562 194.03103637695312 C 124.32279968261719 198.06289672851562 131.01478576660156 197.2393341064453 69.05998992919922 189.5834503173828" stroke-width="3.0" fill="none" stroke="rgb(0, 0, 0)" stroke-opacity="1.0" stroke-linecap="round" stroke-linejoin="round"/>
    <path d="M 33.90231704711914 88.35560607910156 C 59.088111877441406 88.2224349975586 67.01243591308594 107.59412384033203 65.91741943359375 114.97008514404297" stroke-width="3.0" fill="none" stroke="rgb(0, 0, 0)" stroke-opacity="1.0" stroke-linecap="round" stroke-linejoin="round"/>
    <path d="M 99.91564178466797 179.1998291015625 C 150.23568725585938 183.76312255859375 115.94731140136719 193.47845458984375 133.0772705078125 183.9099884033203" stroke-width="3.0" fill="none" stroke="rgb(0, 0, 0)" stroke-opacity="1.0" stroke-linecap="round" stroke-linejoin="round"/>
    <path d="M 127.43293762207031 179.9492645263672 C 115.99161529541016 135.21145629882812 132.34201049804688 165.3578338623047 124.43983459472656 103.77352142333984" stroke-width="3.0" fill="none" stroke="rgb(0, 0, 0)" stroke-opacity="1.0" stroke-linecap="round" stroke-linejoin="round"/>
    <path d="M 43.87503433227539 163.48681640625 C 49.69789505004883 116.70850372314453 58.16939926147461 140.6446533203125 65.78816986083984 97.97103118896484" stroke-width="3.0" fill="none" stroke="rgb(0, 0, 0)" stroke-opacity="1.0" stroke-linecap="round" stroke-linejoin="round"/>
    <path d="M 26.495777130126953 165.66993713378906 C 28.760562896728516 182.04522705078125 48.27998352050781 191.6136932373047 36.734798431396484 181.9459686279297" stroke-width="3.0" fill="none" stroke="rgb(0, 0, 0)" stroke-opacity="1.0" stroke-linecap="round" stroke-linejoin="round"/>
    <path d="M 51.734256744384766 62.31172180175781 C 98.1721420288086 70.64033508300781 88.8377914428711 4.042241096496582 90.70743560791016 86.98238372802734" stroke-width="3.0" fill="none" stroke="rgb(0, 0, 0)" stroke-opacity="1.0" stroke-linecap="round" stroke-linejoin="round"/>
    <path d="M 72.45506286621094 62.84202575683594 C 105.42929077148438 98.38325500488281 41.444271087646484 83.37075805664062 74.73713684082031 61.4615478515625" stroke-width="3.0" fill="none" stroke="rgb(0, 0, 0)" stroke-opacity="1.0" stroke-linecap="round" stroke-linejoin="round"/>
    <path d="M 46.697574615478516 82.4017562866211 C 37.31679916381836 15.642658233642578 50.400142669677734 81.30049133300781 86.72689056396484 70.14864349365234" stroke-width="3.0" fill="none" stroke="rgb(0, 0, 0)" stroke-opacity="1.0" stroke-linecap="round" stroke-linejoin="round"/>
    <path d="M 113.67264556884766 195.69168090820312 C 42.26810073852539 206.7366943359375 40.12664031982422 178.0516815185547 50.073341369628906 141.3496551513672" stroke-width="3.0" fill="none" stroke="rgb(0, 0, 0)" stroke-opacity="1.0" stroke-linecap="round" stroke-linejoin="round"/>
    <path d="M 104.169677734375 174.33868408203125 C 105.65304565429688 178.5723876953125 106.28441619873047 186.9756317138672 103.2226791381836 137.36569213867188" stroke-width="3.0" fill="none" stroke="rgb(0, 0, 0)" stroke-opacity="1.0" stroke-linecap="round" stroke-linejoin="round"/>
    <path d="M 129.84169006347656 174.47666931152344 C 209.05860900878906 177.47970581054688 202.7245330810547 175.74334716796875 200.21255493164062 181.9306640625" stroke-width="3.0" fill="none" stroke="rgb(0, 0, 0)" stroke-opacity="1.0" stroke-linecap="round" stroke-linejoin="round"/>
    <path d="M 21.604949951171875 171.41659545898438 C 26.494558334350586 183.07269287109375 46.12635803222656 187.6753387451172 26.42214012145996 170.32736206054688" stroke-width="3.0" fill="none" stroke="rgb(0, 0, 0)" stroke-opacity="1.0" stroke-linecap="round" stroke-linejoin="round"/>
    <path d="M 52.45644760131836 188.0929718017578 C 35.12712097167969 149.92982482910156 46.90932083129883 136.4472198486328 62.30754852294922 118.17169189453125" stroke-width="3.0" fill="none" stroke="rgb(0, 0, 0)" stroke-opacity="1.0" stroke-linecap="round" stroke-linejoin="round"/>
    <path d="M 38.62275695800781 97.41374206542969 C 57.074913024902344 82.53846740722656 84.30155944824219 120.07577514648438 58.03377914428711 95.47500610351562" stroke-width="3.0" fill="none" stroke="rgb(0, 0, 0)" stroke-opacity="1.0" stroke-linecap="round" stroke-linejoin="round"/>
    <path d="M 43.03494644165039 184.38148498535156 C 27.167259216308594 170.97518920898438 19.409914016723633 156.5268096923828 28.847272872924805 179.6698760986328" stroke-width="3.0" fill="none" stroke="rgb(0, 0, 0)" stroke-opacity="1.0" stroke-linecap="round" stroke-linejoin="round"/>
    <path d="M 57.95962142944336 64.43955993652344 C 59.022315979003906 110.14309692382812 23.253511428833008 46.59703063964844 85.79106903076172 73.61859893798828" stroke-width="3.0" fill="none" stroke="rgb(0, 0, 0)" stroke-opacity="1.0" stroke-linecap="round" stroke-linejoin="round"/>
    <path d="M 44.74764633178711 166.33294677734375 C 51.03507995605469 117.99473571777344 114.97396087646484 128.40650939941406 92.79219818115234 175.23782348632812" stroke-width="3.0" fill="none" stroke="rgb(0, 0, 0)" stroke-opacity="1.0" stroke-linecap="round" stroke-linejoin="round"/>
    <path d="M 87.98246765136719 64.46629333496094 C 87.69442749023438 106.60020446777344 51.49082565307617 63.1794319152832 91.01689147949219 45.46758270263672" stroke-width="3.0" fill="none" stroke="rgb(0, 0, 0)" stroke-opacity="1.0" stroke-linecap="round" stroke-linejoin="round"/>
    <path d="M 24.68492889404297 165.420654296875 C 19.436443328857422 184.00677490234375 55.706058502197266 178.14019775390625 51.298561096191406 188.84176635742188" stroke-width="3.0" fill="none" stroke="rgb(0, 0, 0)" stroke-opacity="1.0" stroke-linecap="round" stroke-linejoin="round"/>
    <path d="M 126.84730529785156 159.6862030029297 C 142.83456420898438 107.50531768798828 103.92188262939453 53.910316467285156 65.67765808105469 80.64366149902344" stroke-width="3.0" fill="none" stroke="rgb(0, 0, 0)" stroke-opacity="1.0" stroke-linecap="round" stroke-linejoin="round"/>
    <path d="M 70.88134765625 77.5306396484375 C 11.806981086730957 71.85407257080078 80.96623229980469 111.2149429321289 55.54722213745117 130.23440551757812" stroke-width="3.0" fill="none" stroke="rgb(0, 0, 0)" stroke-opacity="1.0" stroke-linecap="round" stroke-linejoin="round"/>
    <path d="M 53.552616119384766 87.80375671386719 C 75.69615173339844 77.30945587158203 21.653459548950195 111.20508575439453 91.49295806884766 91.58238983154297" stroke-width="3.0" fill="none" stroke="rgb(0, 0, 0)" stroke-opacity="1.0" stroke-linecap="round" stroke-linejoin="round"/>
    <path d="M 30.98980712890625 167.6173095703125 C 26.39893341064453 151.89500427246094 -0.5558807849884033 184.56321716308594 53.429420471191406 189.09298706054688" stroke-width="3.0" fill="none" stroke="rgb(0, 0, 0)" stroke-opacity="1.0" stroke-linecap="round" stroke-linejoin="round"/>
  </g>
</svg>
