<?xml version="1.0" ?>
<svg xmlns="http://www.w3.org/2000/svg" version="1.1" width="224" height="224">
  <defs/>
  <g>
    <path d="M 108.39036560058594 180.36851501464844 C 101.56553649902344 147.2728729248047 107.81620788574219 155.63612365722656 91.137939453125 120.13443756103516" stroke-width="3.0" fill="none" stroke="rgb(0, 0, 0)" stroke-opacity="1.0" stroke-linecap="round" stroke-linejoin="round"/>
    <path d="M 128.47149658203125 147.03179931640625 C 126.0733642578125 111.29491424560547 136.52723693847656 139.96630859375 127.2978515625 160.3224639892578" stroke-width="3.0" fill="none" stroke="rgb(0, 0, 0)" stroke-opacity="1.0" stroke-linecap="round" stroke-linejoin="round"/>
    <path d="M 44.303077697753906 168.4589080810547 C 43.56642532348633 155.69960021972656 44.0008544921875 143.642822265625 43.913818359375 163.95591735839844" stroke-width="3.0" fill="none" stroke="rgb(0, 0, 0)" stroke-opacity="1.0" stroke-linecap="round" stroke-linejoin="round"/>
    <path d="M 128.80458068847656 116.85297393798828 C 132.07972717285156 140.16929626464844 136.87234497070312 135.8358154296875 125.38522338867188 158.98992919921875" stroke-width="3.0" fill="none" stroke="rgb(0, 0, 0)" stroke-opacity="1.0" stroke-linecap="round" stroke-linejoin="round"/>
    <path d="M 60.60426712036133 122.86975860595703 C 75.48687744140625 83.99944305419922 55.209346771240234 100.54564666748047 62.64291000366211 109.51173400878906" stroke-width="3.0" fill="none" stroke="rgb(0, 0, 0)" stroke-opacity="1.0" stroke-linecap="round" stroke-linejoin="round"/>
    <path d="M 123.86151885986328 101.17300415039062 C 136.67425537109375 134.8007354736328 120.9197006225586 154.6884002685547 127.78221130371094 112.5529556274414" stroke-width="3.0" fill="none" stroke="rgb(0, 0, 0)" stroke-opacity="1.0" stroke-linecap="round" stroke-linejoin="round"/>
    <path d="M 60.35554885864258 119.9560317993164 C 71.52703857421875 92.38121795654297 52.145389556884766 88.75145721435547 61.28889083862305 117.46538543701172" stroke-width="3.0" fill="none" stroke="rgb(0, 0, 0)" stroke-opacity="1.0" stroke-linecap="round" stroke-linejoin="round"/>
    <path d="M 202.49032592773438 179.19219970703125 C 201.31895446777344 185.7976531982422 201.7770233154297 188.70974731445312 130.95941162109375 185.72958374023438" stroke-width="3.0" fill="none" stroke="rgb(0, 0, 0)" stroke-opacity="1.0" stroke-linecap="round" stroke-linejoin="round"/>
    <path d="M 131.39334106445312 188.73745727539062 C 130.03802490234375 199.08636474609375 135.72393798828125 198.3031005859375 65.30635070800781 187.1119842529297" stroke-width="3.0" fill="none" stroke="rgb(0, 0, 0)" stroke-opacity="1.0" stroke-linecap="round" stroke-linejoin="round"/>
    <path d="M 34.80504608154297 91.0771484375 C 57.59128189086914 85.8572006225586 61.96614074707031 105.82661437988281 60.52247619628906 123.04524993896484" stroke-width="3.0" fill="none" stroke="rgb(0, 0, 0)" stroke-opacity="1.0" stroke-linecap="round" stroke-linejoin="round"/>
    <path d="M 103.03260803222656 180.9862518310547 C 147.99037170410156 178.4665069580078 124.98759460449219 192.68812561035156 129.0670623779297 180.93601989746094" stroke-width="3.0" fill="none" stroke="rgb(0, 0, 0)" stroke-opacity="1.0" stroke-linecap="round" stroke-linejoin="round"/>
    <path d="M 124.70560455322266 181.5371856689453 C 122.18453979492188 140.81829833984375 137.07997131347656 165.97166442871094 124.80277252197266 104.86768341064453" stroke-width="3.0" fill="none" stroke="rgb(0, 0, 0)" stroke-opacity="1.0" stroke-linecap="round" stroke-linejoin="round"/>
    <path d="M 43.2537841796875 159.87887573242188 C 49.242794036865234 112.8602066040039 66.36739349365234 139.6556854248047 62.80835723876953 100.8653564453125" stroke-width="3.0" fill="none" stroke="rgb(0, 0, 0)" stroke-opacity="1.0" stroke-linecap="round" stroke-linejoin="round"/>
    <path d="M 29.48019027709961 164.0171661376953 C 24.07634162902832 183.26478576660156 57.628318786621094 193.37039184570312 45.58026123046875 181.7737274169922" stroke-width="3.0" fill="none" stroke="rgb(0, 0, 0)" stroke-opacity="1.0" stroke-linecap="round" stroke-linejoin="round"/>
    <path d="M 54.70917892456055 60.531253814697266 C 92.6412353515625 70.7923583984375 90.25225067138672 3.9054174423217773 87.78424072265625 87.25739288330078" stroke-width="3.0" fill="none" stroke="rgb(0, 0, 0)" stroke-opacity="1.0" stroke-linecap="round" stroke-linejoin="round"/>
    <path d="M 74.06583404541016 58.26498794555664 C 109.7427978515625 98.2497787475586 46.69573974609375 72.66606140136719 76.07089233398438 62.87207794189453" stroke-width="3.0" fill="none" stroke="rgb(0, 0, 0)" stroke-opacity="1.0" stroke-linecap="round" stroke-linejoin="round"/>
    <path d="M 48.85700225830078 80.87505340576172 C 34.38894271850586 8.112914085388184 57.83137512207031 83.66548919677734 88.22759246826172 65.43916320800781" stroke-width="3.0" fill="none" stroke="rgb(0, 0, 0)" stroke-opacity="1.0" stroke-linecap="round" stroke-linejoin="round"/>
    <path d="M 112.25992584228516 195.71246337890625 C 41.50017166137695 207.3292694091797 40.709228515625 177.33596801757812 48.234683990478516 141.90382385253906" stroke-width="3.0" fill="none" stroke="rgb(0, 0, 0)" stroke-opacity="1.0" stroke-linecap="round" stroke-linejoin="round"/>
    <path d="M 99.8550796508789 178.22567749023438 C 107.77165222167969 177.20751953125 105.14562225341797 181.40797424316406 104.80950164794922 137.89572143554688" stroke-width="3.0" fill="none" stroke="rgb(0, 0, 0)" stroke-opacity="1.0" stroke-linecap="round" stroke-linejoin="round"/>
    <path d="M 127.17825317382812 171.55787658691406 C 211.29124450683594 173.1092529296875 196.7425994873047 171.36094665527344 201.52806091308594 180.47195434570312" stroke-width="3.0" fill="none" stroke="rgb(0, 0, 0)" stroke-opacity="1.0" stroke-linecap="round" stroke-linejoin="round"/>
    <path d="M 24.35801887512207 170.46595764160156 C 40.29304504394531 191.8610382080078 34.53315353393555 188.69406127929688 24.076387405395508 177.51156616210938" stroke-width="3.0" fill="none" stroke="rgb(0, 0, 0)" stroke-opacity="1.0" stroke-linecap="round" stroke-linejoin="round"/>
    <path d="M 45.56171798706055 182.30987548828125 C 37.086978912353516 145.1864471435547 44.479862213134766 135.45278930664062 60.296844482421875 119.96173858642578" stroke-width="3.0" fill="none" stroke="rgb(0, 0, 0)" stroke-opacity="1.0" stroke-linecap="round" stroke-linejoin="round"/>
    <path d="M 39.00764846801758 99.08342742919922 C 56.41750717163086 78.23267364501953 78.42585754394531 123.00074768066406 56.9980354309082 95.52906799316406" stroke-width="3.0" fill="none" stroke="rgb(0, 0, 0)" stroke-opacity="1.0" stroke-linecap="round" stroke-linejoin="round"/>
    <path d="M 43.92506790161133 179.6739959716797 C 25.100698471069336 179.04193115234375 28.164819717407227 153.3849639892578 32.2835807800293 169.682373046875" stroke-width="3.0" fill="none" stroke="rgb(0, 0, 0)" stroke-opacity="1.0" stroke-linecap="round" stroke-linejoin="round"/>
    <path d="M 56.11453628540039 70.69937896728516 C 52.76361083984375 109.2200698852539 19.425716400146484 43.15740203857422 87.60356140136719 67.88395690917969" stroke-width="3.0" fill="none" stroke="rgb(0, 0, 0)" stroke-opacity="1.0" stroke-linecap="round" stroke-linejoin="round"/>
    <path d="M 42.652896881103516 161.3154296875 C 47.76403045654297 116.14608764648438 118.16881561279297 130.2452850341797 96.01714324951172 180.14735412597656" stroke-width="3.0" fill="none" stroke="rgb(0, 0, 0)" stroke-opacity="1.0" stroke-linecap="round" stroke-linejoin="round"/>
    <path d="M 89.44338989257812 60.63390350341797 C 82.87130737304688 103.5702896118164 59.95298767089844 50.375404357910156 86.91130065917969 46.5068473815918" stroke-width="3.0" fill="none" stroke="rgb(0, 0, 0)" stroke-opacity="1.0" stroke-linecap="round" stroke-linejoin="round"/>
    <path d="M 32.69224548339844 166.9830780029297 C 33.21695327758789 182.81805419921875 51.411293029785156 180.4320831298828 42.91948318481445 186.7985382080078" stroke-width="3.0" fill="none" stroke="rgb(0, 0, 0)" stroke-opacity="1.0" stroke-linecap="round" stroke-linejoin="round"/>
    <path d="M 127.72895050048828 139.58729553222656 C 138.85789489746094 110.6339111328125 106.22816467285156 50.15644836425781 66.47840118408203 76.79429626464844" stroke-width="3.0" fill="none" stroke="rgb(0, 0, 0)" stroke-opacity="1.0" stroke-linecap="round" stroke-linejoin="round"/>
    <path d="M 58.165061950683594 79.44489288330078 C 18.953657150268555 69.28865051269531 78.9529800415039 108.71918487548828 51.97724914550781 133.39280700683594" stroke-width="3.0" fill="none" stroke="rgb(0, 0, 0)" stroke-opacity="1.0" stroke-linecap="round" stroke-linejoin="round"/>
    <path d="M 62.53865432739258 86.16136932373047 C 70.1831283569336 66.75553131103516 33.20702362060547 112.90532684326172 84.98088073730469 90.9081039428711" stroke-width="3.0" fill="none" stroke="rgb(0, 0, 0)" stroke-opacity="1.0" stroke-linecap="round" stroke-linejoin="round"/>
    <path d="M 33.74974822998047 165.38397216796875 C 25.756872177124023 156.83261108398438 0.8731940388679504 183.04251098632812 67.09905242919922 195.50917053222656" stroke-width="3.0" fill="none" stroke="rgb(0, 0, 0)" stroke-opacity="1.0" stroke-linecap="round" stroke-linejoin="round"/>
  </g>
</svg>
