<?xml version="1.0" ?>
<svg xmlns="http://www.w3.org/2000/svg" version="1.1" width="224" height="224">
  <defs/>
  <g>
    <path d="M 101.81813049316406 178.27943420410156 C 105.55996704101562 132.04200744628906 102.51133728027344 163.9412841796875 88.95165252685547 126.10977172851562" stroke-width="3.0" fill="none" stroke="rgb(0, 0, 0)" stroke-opacity="1.0" stroke-linecap="round" stroke-linejoin="round"/>
    <path d="M 129.2783966064453 148.83836364746094 C 122.5732192993164 111.6795883178711 130.10321044921875 137.86526489257812 125.42090606689453 160.03665161132812" stroke-width="3.0" fill="none" stroke="rgb(0, 0, 0)" stroke-opacity="1.0" stroke-linecap="round" stroke-linejoin="round"/>
    <path d="M 44.38410568237305 170.1162109375 C 41.591705322265625 154.29736328125 47.51516342163086 140.15147399902344 43.49195098876953 160.06301879882812" stroke-width="3.0" fill="none" stroke="rgb(0, 0, 0)" stroke-opacity="1.0" stroke-linecap="round" stroke-linejoin="round"/>
    <path d="M 127.71988677978516 112.7959213256836 C 127.07343292236328 145.86111450195312 129.20159912109375 141.5482177734375 124.8240737915039 164.65985107421875" stroke-width="3.0" fill="none" stroke="rgb(0, 0, 0)" stroke-opacity="1.0" stroke-linecap="round" stroke-linejoin="round"/>
    <path d="M 58.6625862121582 118.50524139404297 C 78.82759857177734 90.06837463378906 50.0715446472168 92.77117156982422 61.368247985839844 110.66607666015625" stroke-width="3.0" fill="none" stroke="rgb(0, 0, 0)" stroke-opacity="1.0" stroke-linecap="round" stroke-linejoin="round"/>
    <path d="M 122.19400024414062 102.69185638427734 C 141.53189086914062 148.36004638671875 116.0061264038086 156.2378692626953 128.70396423339844 116.20574188232422" stroke-width="3.0" fill="none" stroke="rgb(0, 0, 0)" stroke-opacity="1.0" stroke-linecap="round" stroke-linejoin="round"/>
    <path d="M 57.10932159423828 124.42034149169922 C 66.2507553100586 99.26948547363281 53.11760711669922 97.49858093261719 60.838077545166016 121.09835052490234" stroke-width="3.0" fill="none" stroke="rgb(0, 0, 0)" stroke-opacity="1.0" stroke-linecap="round" stroke-linejoin="round"/>
    <path d="M 201.21434020996094 179.1715850830078 C 202.18704223632812 188.0204315185547 198.6316375732422 192.3719482421875 126.73172760009766 184.19210815429688" stroke-width="3.0" fill="none" stroke="rgb(0, 0, 0)" stroke-opacity="1.0" stroke-linecap="round" stroke-linejoin="round"/>
    <path d="M 131.27117919921875 193.0612030029297 C 128.61508178710938 197.3888702392578 137.11459350585938 193.44410705566406 69.4603042602539 188.8164825439453" stroke-width="3.0" fill="none" stroke="rgb(0, 0, 0)" stroke-opacity="1.0" stroke-linecap="round" stroke-linejoin="round"/>
    <path d="M 34.643978118896484 92.9428482055664 C 60.89581298828125 88.95414733886719 74.15376281738281 107.10301208496094 60.180904388427734 122.7450180053711" stroke-width="3.0" fill="none" stroke="rgb(0, 0, 0)" stroke-opacity="1.0" stroke-linecap="round" stroke-linejoin="round"/>
    <path d="M 103.60113525390625 180.13461303710938 C 151.3390350341797 181.64901733398438 127.51092529296875 193.16702270507812 129.94900512695312 185.00643920898438" stroke-width="3.0" fill="none" stroke="rgb(0, 0, 0)" stroke-opacity="1.0" stroke-linecap="round" stroke-linejoin="round"/>
    <path d="M 124.62659454345703 181.7550506591797 C 120.96936798095703 141.460693359375 141.47195434570312 173.598876953125 123.7873764038086 106.4478988647461" stroke-width="3.0" fill="none" stroke="rgb(0, 0, 0)" stroke-opacity="1.0" stroke-linecap="round" stroke-linejoin="round"/>
    <path d="M 45.58728790283203 161.6488800048828 C 52.77780532836914 115.4417724609375 62.158809661865234 143.99818420410156 63.00743865966797 104.28438568115234" stroke-width="3.0" fill="none" stroke="rgb(0, 0, 0)" stroke-opacity="1.0" stroke-linecap="round" stroke-linejoin="round"/>
    <path d="M 24.408599853515625 166.8108673095703 C 17.185394287109375 186.79501342773438 58.41348648071289 194.69351196289062 43.243736267089844 190.61685180664062" stroke-width="3.0" fill="none" stroke="rgb(0, 0, 0)" stroke-opacity="1.0" stroke-linecap="round" stroke-linejoin="round"/>
    <path d="M 53.31195831298828 59.63462829589844 C 91.26587677001953 71.91140747070312 89.32160186767578 6.225921154022217 88.70699310302734 87.9905014038086" stroke-width="3.0" fill="none" stroke="rgb(0, 0, 0)" stroke-opacity="1.0" stroke-linecap="round" stroke-linejoin="round"/>
    <path d="M 69.97280883789062 67.78665161132812 C 105.49479675292969 100.52006530761719 40.76150894165039 72.25826263427734 73.77057647705078 71.94113159179688" stroke-width="3.0" fill="none" stroke="rgb(0, 0, 0)" stroke-opacity="1.0" stroke-linecap="round" stroke-linejoin="round"/>
    <path d="M 47.035606384277344 82.58631134033203 C 36.28453826904297 6.892611026763916 55.17679977416992 83.3160171508789 90.11894989013672 63.450897216796875" stroke-width="3.0" fill="none" stroke="rgb(0, 0, 0)" stroke-opacity="1.0" stroke-linecap="round" stroke-linejoin="round"/>
    <path d="M 115.52996826171875 193.01995849609375 C 41.447391510009766 207.51222229003906 36.524085998535156 174.61634826660156 48.459312438964844 135.10638427734375" stroke-width="3.0" fill="none" stroke="rgb(0, 0, 0)" stroke-opacity="1.0" stroke-linecap="round" stroke-linejoin="round"/>
    <path d="M 101.97610473632812 175.38043212890625 C 105.30460357666016 175.26829528808594 111.03610229492188 174.7389373779297 102.60674285888672 139.0027313232422" stroke-width="3.0" fill="none" stroke="rgb(0, 0, 0)" stroke-opacity="1.0" stroke-linecap="round" stroke-linejoin="round"/>
    <path d="M 128.3238525390625 172.46170043945312 C 213.07080078125 174.7648162841797 200.9745635986328 174.4919891357422 201.278564453125 180.68507385253906" stroke-width="3.0" fill="none" stroke="rgb(0, 0, 0)" stroke-opacity="1.0" stroke-linecap="round" stroke-linejoin="round"/>
    <path d="M 31.002819061279297 175.9394989013672 C 49.2961311340332 193.43136596679688 50.13692855834961 183.92019653320312 39.782588958740234 182.19989013671875" stroke-width="3.0" fill="none" stroke="rgb(0, 0, 0)" stroke-opacity="1.0" stroke-linecap="round" stroke-linejoin="round"/>
    <path d="M 48.24576950073242 187.89772033691406 C 36.868350982666016 147.66500854492188 45.1730842590332 136.78887939453125 61.401798248291016 118.84571838378906" stroke-width="3.0" fill="none" stroke="rgb(0, 0, 0)" stroke-opacity="1.0" stroke-linecap="round" stroke-linejoin="round"/>
    <path d="M 43.916744232177734 102.37142944335938 C 62.04069137573242 74.51261138916016 68.23294067382812 123.46257781982422 54.567298889160156 96.09651947021484" stroke-width="3.0" fill="none" stroke="rgb(0, 0, 0)" stroke-opacity="1.0" stroke-linecap="round" stroke-linejoin="round"/>
    <path d="M 41.64932632446289 185.67149353027344 C 21.02138328552246 178.64759826660156 25.332786560058594 160.76495361328125 27.39480209350586 177.43812561035156" stroke-width="3.0" fill="none" stroke="rgb(0, 0, 0)" stroke-opacity="1.0" stroke-linecap="round" stroke-linejoin="round"/>
    <path d="M 55.24661636352539 68.4114990234375 C 53.9728889465332 108.9146728515625 20.565454483032227 41.892539978027344 89.2569351196289 69.60667419433594" stroke-width="3.0" fill="none" stroke="rgb(0, 0, 0)" stroke-opacity="1.0" stroke-linecap="round" stroke-linejoin="round"/>
    <path d="M 45.25384521484375 169.36392211914062 C 54.07241439819336 114.26396179199219 110.76093292236328 132.30018615722656 95.92301177978516 170.82260131835938" stroke-width="3.0" fill="none" stroke="rgb(0, 0, 0)" stroke-opacity="1.0" stroke-linecap="round" stroke-linejoin="round"/>
    <path d="M 88.98441314697266 63.3394889831543 C 64.51705932617188 111.60231018066406 62.27556228637695 54.62788009643555 86.410400390625 48.20158386230469" stroke-width="3.0" fill="none" stroke="rgb(0, 0, 0)" stroke-opacity="1.0" stroke-linecap="round" stroke-linejoin="round"/>
    <path d="M 29.42741584777832 166.58299255371094 C 23.88929557800293 183.84226989746094 62.9189567565918 183.03224182128906 45.945945739746094 184.512451171875" stroke-width="3.0" fill="none" stroke="rgb(0, 0, 0)" stroke-opacity="1.0" stroke-linecap="round" stroke-linejoin="round"/>
    <path d="M 126.8957290649414 139.58786010742188 C 137.80238342285156 111.5771713256836 109.13723754882812 49.191856384277344 63.35152053833008 77.70804595947266" stroke-width="3.0" fill="none" stroke="rgb(0, 0, 0)" stroke-opacity="1.0" stroke-linecap="round" stroke-linejoin="round"/>
    <path d="M 59.56889343261719 76.75823974609375 C 12.33732795715332 74.24542999267578 79.89804077148438 104.47758483886719 52.492801666259766 131.3470458984375" stroke-width="3.0" fill="none" stroke="rgb(0, 0, 0)" stroke-opacity="1.0" stroke-linecap="round" stroke-linejoin="round"/>
    <path d="M 54.801605224609375 85.92752838134766 C 76.83013153076172 77.18780517578125 29.88090705871582 108.5321044921875 86.29122924804688 92.43307495117188" stroke-width="3.0" fill="none" stroke="rgb(0, 0, 0)" stroke-opacity="1.0" stroke-linecap="round" stroke-linejoin="round"/>
    <path d="M 30.476388931274414 165.1987762451172 C 19.427982330322266 159.16595458984375 3.4745500087738037 178.9654541015625 68.80168151855469 195.61968994140625" stroke-width="3.0" fill="none" stroke="rgb(0, 0, 0)" stroke-opacity="1.0" stroke-linecap="round" stroke-linejoin="round"/>
  </g>
</svg>
