<?xml version="1.0" ?>
<svg xmlns="http://www.w3.org/2000/svg" version="1.1" width="224" height="224">
  <defs/>
  <g>
    <path d="M 107.89569854736328 179.2235870361328 C 103.04744720458984 149.060546875 104.09912109375 155.27127075195312 91.91816711425781 121.36710357666016" stroke-width="3.0" fill="none" stroke="rgb(0, 0, 0)" stroke-opacity="1.0" stroke-linecap="round" stroke-linejoin="round"/>
    <path d="M 128.8931884765625 150.08590698242188 C 125.23553466796875 120.7450180053711 127.88346099853516 128.86474609375 128.66195678710938 137.35232543945312" stroke-width="3.0" fill="none" stroke="rgb(0, 0, 0)" stroke-opacity="1.0" stroke-linecap="round" stroke-linejoin="round"/>
    <path d="M 45.04111099243164 173.33624267578125 C 41.47062301635742 152.1542205810547 48.441829681396484 137.9202880859375 44.12045669555664 156.32745361328125" stroke-width="3.0" fill="none" stroke="rgb(0, 0, 0)" stroke-opacity="1.0" stroke-linecap="round" stroke-linejoin="round"/>
    <path d="M 126.45294189453125 125.19451141357422 C 120.47924041748047 134.2040252685547 129.6811981201172 140.52371215820312 128.6565399169922 143.35122680664062" stroke-width="3.0" fill="none" stroke="rgb(0, 0, 0)" stroke-opacity="1.0" stroke-linecap="round" stroke-linejoin="round"/>
    <path d="M 57.51502990722656 123.09732055664062 C 59.26300048828125 89.7220230102539 70.1138916015625 87.64185333251953 62.79332733154297 113.30342102050781" stroke-width="3.0" fill="none" stroke="rgb(0, 0, 0)" stroke-opacity="1.0" stroke-linecap="round" stroke-linejoin="round"/>
    <path d="M 126.09867858886719 123.56885528564453 C 124.45923614501953 141.08355712890625 123.6390151977539 136.71194458007812 127.04133605957031 113.17005920410156" stroke-width="3.0" fill="none" stroke="rgb(0, 0, 0)" stroke-opacity="1.0" stroke-linecap="round" stroke-linejoin="round"/>
    <path d="M 58.04767608642578 120.82909393310547 C 75.46954345703125 96.19141387939453 42.36864471435547 93.00255584716797 63.58538055419922 108.2612533569336" stroke-width="3.0" fill="none" stroke="rgb(0, 0, 0)" stroke-opacity="1.0" stroke-linecap="round" stroke-linejoin="round"/>
    <path d="M 198.6002960205078 177.74563598632812 C 202.62893676757812 187.70315551757812 200.9750213623047 192.8679962158203 127.31095886230469 183.73841857910156" stroke-width="3.0" fill="none" stroke="rgb(0, 0, 0)" stroke-opacity="1.0" stroke-linecap="round" stroke-linejoin="round"/>
    <path d="M 130.30471801757812 190.93142700195312 C 128.69129943847656 203.53721618652344 128.6516876220703 193.64813232421875 72.16817474365234 194.33042907714844" stroke-width="3.0" fill="none" stroke="rgb(0, 0, 0)" stroke-opacity="1.0" stroke-linecap="round" stroke-linejoin="round"/>
    <path d="M 34.334774017333984 89.53916931152344 C 56.474517822265625 89.41725158691406 63.60810470581055 108.42013549804688 58.27140808105469 122.66065216064453" stroke-width="3.0" fill="none" stroke="rgb(0, 0, 0)" stroke-opacity="1.0" stroke-linecap="round" stroke-linejoin="round"/>
    <path d="M 101.44578552246094 180.86659240722656 C 145.71212768554688 184.20204162597656 121.52115631103516 181.79400634765625 128.65310668945312 182.0366668701172" stroke-width="3.0" fill="none" stroke="rgb(0, 0, 0)" stroke-opacity="1.0" stroke-linecap="round" stroke-linejoin="round"/>
    <path d="M 131.31411743164062 186.87112426757812 C 116.04150390625 144.77548217773438 139.9414825439453 172.13771057128906 124.1114273071289 103.707763671875" stroke-width="3.0" fill="none" stroke="rgb(0, 0, 0)" stroke-opacity="1.0" stroke-linecap="round" stroke-linejoin="round"/>
    <path d="M 44.142173767089844 154.54490661621094 C 48.236045837402344 118.21455383300781 64.8632583618164 136.9468536376953 62.9074821472168 100.20706176757812" stroke-width="3.0" fill="none" stroke="rgb(0, 0, 0)" stroke-opacity="1.0" stroke-linecap="round" stroke-linejoin="round"/>
    <path d="M 20.727741241455078 169.0915985107422 C 26.86937141418457 185.518798828125 56.36206817626953 185.91403198242188 43.46308517456055 185.92919921875" stroke-width="3.0" fill="none" stroke="rgb(0, 0, 0)" stroke-opacity="1.0" stroke-linecap="round" stroke-linejoin="round"/>
    <path d="M 58.79739761352539 59.886024475097656 C 89.94721984863281 60.89522933959961 91.39177703857422 17.507946014404297 89.015380859375 78.02590942382812" stroke-width="3.0" fill="none" stroke="rgb(0, 0, 0)" stroke-opacity="1.0" stroke-linecap="round" stroke-linejoin="round"/>
    <path d="M 78.16932678222656 62.63665008544922 C 102.84500122070312 104.38062286376953 39.671390533447266 64.66709899902344 69.1413803100586 76.16744232177734" stroke-width="3.0" fill="none" stroke="rgb(0, 0, 0)" stroke-opacity="1.0" stroke-linecap="round" stroke-linejoin="round"/>
    <path d="M 47.56758499145508 97.25630950927734 C 37.724185943603516 3.843496561050415 43.756038665771484 76.62195587158203 88.20161437988281 69.8703842163086" stroke-width="3.0" fill="none" stroke="rgb(0, 0, 0)" stroke-opacity="1.0" stroke-linecap="round" stroke-linejoin="round"/>
    <path d="M 104.86053466796875 196.163330078125 C 49.873111724853516 202.8509063720703 46.995094299316406 173.55519104003906 53.45816421508789 149.3399658203125" stroke-width="3.0" fill="none" stroke="rgb(0, 0, 0)" stroke-opacity="1.0" stroke-linecap="round" stroke-linejoin="round"/>
    <path d="M 95.92425537109375 176.0287322998047 C 97.16614532470703 166.53543090820312 103.45143127441406 174.02655029296875 102.21397399902344 135.53265380859375" stroke-width="3.0" fill="none" stroke="rgb(0, 0, 0)" stroke-opacity="1.0" stroke-linecap="round" stroke-linejoin="round"/>
    <path d="M 129.070556640625 173.30018615722656 C 209.92520141601562 172.0205841064453 199.93023681640625 173.76715087890625 200.5304412841797 181.38673400878906" stroke-width="3.0" fill="none" stroke="rgb(0, 0, 0)" stroke-opacity="1.0" stroke-linecap="round" stroke-linejoin="round"/>
    <path d="M 34.66958999633789 181.89125061035156 C 60.3631591796875 187.82080078125 44.35202407836914 182.66696166992188 48.421443939208984 185.33340454101562" stroke-width="3.0" fill="none" stroke="rgb(0, 0, 0)" stroke-opacity="1.0" stroke-linecap="round" stroke-linejoin="round"/>
    <path d="M 47.767547607421875 190.04928588867188 C 37.095523834228516 149.8260955810547 44.92802429199219 135.1985626220703 60.03497314453125 122.45378112792969" stroke-width="3.0" fill="none" stroke="rgb(0, 0, 0)" stroke-opacity="1.0" stroke-linecap="round" stroke-linejoin="round"/>
    <path d="M 40.923126220703125 97.44640350341797 C 60.364315032958984 72.64698028564453 62.52815246582031 118.92453002929688 61.12923812866211 99.76102447509766" stroke-width="3.0" fill="none" stroke="rgb(0, 0, 0)" stroke-opacity="1.0" stroke-linecap="round" stroke-linejoin="round"/>
    <path d="M 48.68178939819336 184.91725158691406 C 23.0417423248291 174.50588989257812 35.54887771606445 164.4256134033203 31.68868064880371 166.59056091308594" stroke-width="3.0" fill="none" stroke="rgb(0, 0, 0)" stroke-opacity="1.0" stroke-linecap="round" stroke-linejoin="round"/>
    <path d="M 55.899139404296875 69.24405670166016 C 54.56782531738281 105.31900024414062 25.692819595336914 43.9667854309082 82.92357635498047 68.53860473632812" stroke-width="3.0" fill="none" stroke="rgb(0, 0, 0)" stroke-opacity="1.0" stroke-linecap="round" stroke-linejoin="round"/>
    <path d="M 42.03731918334961 169.84503173828125 C 50.74778366088867 112.92349243164062 106.85681915283203 132.59805297851562 96.08470916748047 163.25543212890625" stroke-width="3.0" fill="none" stroke="rgb(0, 0, 0)" stroke-opacity="1.0" stroke-linecap="round" stroke-linejoin="round"/>
    <path d="M 74.45027160644531 55.869197845458984 C 57.83857345581055 95.30606079101562 55.8406867980957 63.939510345458984 84.56997680664062 46.367374420166016" stroke-width="3.0" fill="none" stroke="rgb(0, 0, 0)" stroke-opacity="1.0" stroke-linecap="round" stroke-linejoin="round"/>
    <path d="M 23.34019660949707 175.26161193847656 C 33.63687515258789 190.39114379882812 59.47804641723633 194.39785766601562 47.95658874511719 186.6776580810547" stroke-width="3.0" fill="none" stroke="rgb(0, 0, 0)" stroke-opacity="1.0" stroke-linecap="round" stroke-linejoin="round"/>
    <path d="M 126.62846374511719 134.96539306640625 C 136.2566680908203 114.4613037109375 111.0788345336914 54.33427429199219 57.89424133300781 76.29256439208984" stroke-width="3.0" fill="none" stroke="rgb(0, 0, 0)" stroke-opacity="1.0" stroke-linecap="round" stroke-linejoin="round"/>
    <path d="M 57.27741622924805 76.96760559082031 C 18.086687088012695 64.25688171386719 76.49848937988281 113.8767318725586 50.696434020996094 131.12083435058594" stroke-width="3.0" fill="none" stroke="rgb(0, 0, 0)" stroke-opacity="1.0" stroke-linecap="round" stroke-linejoin="round"/>
    <path d="M 57.80236053466797 85.97314453125 C 80.22388458251953 76.95117950439453 20.383811950683594 106.00116729736328 86.16998291015625 89.3779067993164" stroke-width="3.0" fill="none" stroke="rgb(0, 0, 0)" stroke-opacity="1.0" stroke-linecap="round" stroke-linejoin="round"/>
    <path d="M 31.037900924682617 163.8610076904297 C 18.418657302856445 156.32369995117188 9.577082633972168 183.4499053955078 59.90846633911133 194.47279357910156" stroke-width="3.0" fill="none" stroke="rgb(0, 0, 0)" stroke-opacity="1.0" stroke-linecap="round" stroke-linejoin="round"/>
  </g>
</svg>
