<?xml version="1.0" ?>
<svg xmlns="http://www.w3.org/2000/svg" version="1.1" width="224" height="224">
  <defs/>
  <g>
    <path d="M 107.07090759277344 179.17173767089844 C 104.26480102539062 147.0659637451172 107.17464447021484 156.75933837890625 92.34098052978516 124.177978515625" stroke-width="3.0" fill="none" stroke="rgb(0, 0, 0)" stroke-opacity="1.0" stroke-linecap="round" stroke-linejoin="round"/>
    <path d="M 125.02992248535156 154.67416381835938 C 127.6419677734375 107.5429458618164 133.60208129882812 128.26683044433594 125.76034545898438 170.3114013671875" stroke-width="3.0" fill="none" stroke="rgb(0, 0, 0)" stroke-opacity="1.0" stroke-linecap="round" stroke-linejoin="round"/>
    <path d="M 47.286834716796875 171.0794677734375 C 45.047157287597656 156.74057006835938 43.294315338134766 145.09469604492188 43.62116241455078 165.85214233398438" stroke-width="3.0" fill="none" stroke="rgb(0, 0, 0)" stroke-opacity="1.0" stroke-linecap="round" stroke-linejoin="round"/>
    <path d="M 126.85716247558594 119.54144287109375 C 127.577392578125 138.6859588623047 137.04234313964844 139.1997528076172 126.63750457763672 163.41848754882812" stroke-width="3.0" fill="none" stroke="rgb(0, 0, 0)" stroke-opacity="1.0" stroke-linecap="round" stroke-linejoin="round"/>
    <path d="M 58.96255874633789 125.29936218261719 C 78.23807525634766 83.2500228881836 67.31917572021484 98.11727142333984 65.37492370605469 110.26850891113281" stroke-width="3.0" fill="none" stroke="rgb(0, 0, 0)" stroke-opacity="1.0" stroke-linecap="round" stroke-linejoin="round"/>
    <path d="M 125.26512145996094 108.67479705810547 C 129.9724578857422 135.0769805908203 120.2208251953125 148.89236450195312 125.98546600341797 108.9311752319336" stroke-width="3.0" fill="none" stroke="rgb(0, 0, 0)" stroke-opacity="1.0" stroke-linecap="round" stroke-linejoin="round"/>
    <path d="M 56.17104721069336 126.76402282714844 C 62.48986053466797 94.68247985839844 46.261905670166016 85.26539611816406 63.84498596191406 112.2838363647461" stroke-width="3.0" fill="none" stroke="rgb(0, 0, 0)" stroke-opacity="1.0" stroke-linecap="round" stroke-linejoin="round"/>
    <path d="M 199.1796875 176.6483917236328 C 205.79238891601562 186.87664794921875 203.8457794189453 187.3171844482422 121.75244140625 182.01089477539062" stroke-width="3.0" fill="none" stroke="rgb(0, 0, 0)" stroke-opacity="1.0" stroke-linecap="round" stroke-linejoin="round"/>
    <path d="M 131.13345336914062 188.55857849121094 C 127.1337661743164 199.72793579101562 138.91632080078125 194.00502014160156 60.95903015136719 188.694580078125" stroke-width="3.0" fill="none" stroke="rgb(0, 0, 0)" stroke-opacity="1.0" stroke-linecap="round" stroke-linejoin="round"/>
    <path d="M 32.4566650390625 87.65221405029297 C 54.5547981262207 88.3366928100586 61.434661865234375 110.58981323242188 62.17845916748047 119.21280670166016" stroke-width="3.0" fill="none" stroke="rgb(0, 0, 0)" stroke-opacity="1.0" stroke-linecap="round" stroke-linejoin="round"/>
    <path d="M 97.88417053222656 178.15020751953125 C 152.11460876464844 185.6326141357422 119.26813507080078 189.22511291503906 129.47442626953125 180.99391174316406" stroke-width="3.0" fill="none" stroke="rgb(0, 0, 0)" stroke-opacity="1.0" stroke-linecap="round" stroke-linejoin="round"/>
    <path d="M 128.59423828125 176.64205932617188 C 118.86311340332031 134.00901794433594 134.51950073242188 166.82530212402344 124.54898071289062 102.88750457763672" stroke-width="3.0" fill="none" stroke="rgb(0, 0, 0)" stroke-opacity="1.0" stroke-linecap="round" stroke-linejoin="round"/>
    <path d="M 44.94459915161133 162.90713500976562 C 49.02738952636719 115.42535400390625 61.85795593261719 141.11660766601562 66.24886322021484 98.02731323242188" stroke-width="3.0" fill="none" stroke="rgb(0, 0, 0)" stroke-opacity="1.0" stroke-linecap="round" stroke-linejoin="round"/>
    <path d="M 27.749727249145508 166.29901123046875 C 30.120725631713867 181.05538940429688 49.51348114013672 192.74942016601562 38.98771667480469 184.06365966796875" stroke-width="3.0" fill="none" stroke="rgb(0, 0, 0)" stroke-opacity="1.0" stroke-linecap="round" stroke-linejoin="round"/>
    <path d="M 55.13631057739258 58.7418327331543 C 94.89268493652344 70.81769561767578 90.03284454345703 6.642210006713867 89.53406524658203 86.35321044921875" stroke-width="3.0" fill="none" stroke="rgb(0, 0, 0)" stroke-opacity="1.0" stroke-linecap="round" stroke-linejoin="round"/>
    <path d="M 74.15925598144531 61.26966857910156 C 100.84817504882812 100.90100860595703 39.990997314453125 84.93733978271484 71.1898193359375 58.39065933227539" stroke-width="3.0" fill="none" stroke="rgb(0, 0, 0)" stroke-opacity="1.0" stroke-linecap="round" stroke-linejoin="round"/>
    <path d="M 47.2115592956543 83.13784790039062 C 36.182979583740234 9.737698554992676 50.02459716796875 80.14652252197266 90.6369400024414 69.8339614868164" stroke-width="3.0" fill="none" stroke="rgb(0, 0, 0)" stroke-opacity="1.0" stroke-linecap="round" stroke-linejoin="round"/>
    <path d="M 112.21988677978516 193.82655334472656 C 40.0347785949707 207.17312622070312 38.63328552246094 179.34559631347656 48.31477355957031 137.750732421875" stroke-width="3.0" fill="none" stroke="rgb(0, 0, 0)" stroke-opacity="1.0" stroke-linecap="round" stroke-linejoin="round"/>
    <path d="M 104.13043212890625 172.0874481201172 C 109.30276489257812 174.62693786621094 107.08843994140625 186.1270751953125 103.26075744628906 137.17913818359375" stroke-width="3.0" fill="none" stroke="rgb(0, 0, 0)" stroke-opacity="1.0" stroke-linecap="round" stroke-linejoin="round"/>
    <path d="M 128.63087463378906 174.27169799804688 C 207.41383361816406 175.46932983398438 199.86154174804688 175.49221801757812 199.52439880371094 182.60411071777344" stroke-width="3.0" fill="none" stroke="rgb(0, 0, 0)" stroke-opacity="1.0" stroke-linecap="round" stroke-linejoin="round"/>
    <path d="M 25.12181282043457 167.45799255371094 C 34.74800491333008 185.576904296875 42.82999801635742 193.40899658203125 23.509159088134766 171.68536376953125" stroke-width="3.0" fill="none" stroke="rgb(0, 0, 0)" stroke-opacity="1.0" stroke-linecap="round" stroke-linejoin="round"/>
    <path d="M 52.220577239990234 184.1669921875 C 34.90922927856445 145.2871551513672 46.50114059448242 140.859130859375 59.998470306396484 117.14173126220703" stroke-width="3.0" fill="none" stroke="rgb(0, 0, 0)" stroke-opacity="1.0" stroke-linecap="round" stroke-linejoin="round"/>
    <path d="M 39.75318145751953 94.22152709960938 C 53.9073600769043 83.40972137451172 79.31332397460938 124.2118911743164 55.77069854736328 97.24126434326172" stroke-width="3.0" fill="none" stroke="rgb(0, 0, 0)" stroke-opacity="1.0" stroke-linecap="round" stroke-linejoin="round"/>
    <path d="M 44.69642639160156 182.2782440185547 C 23.084243774414062 176.02203369140625 22.73888397216797 158.78585815429688 28.991958618164062 176.26556396484375" stroke-width="3.0" fill="none" stroke="rgb(0, 0, 0)" stroke-opacity="1.0" stroke-linecap="round" stroke-linejoin="round"/>
    <path d="M 53.013221740722656 70.9588851928711 C 58.67982482910156 106.93209838867188 21.584735870361328 44.93798828125 86.90326690673828 70.61284637451172" stroke-width="3.0" fill="none" stroke="rgb(0, 0, 0)" stroke-opacity="1.0" stroke-linecap="round" stroke-linejoin="round"/>
    <path d="M 46.49927520751953 165.39743041992188 C 57.23625564575195 120.62554931640625 118.04121398925781 128.623046875 93.92854309082031 176.76039123535156" stroke-width="3.0" fill="none" stroke="rgb(0, 0, 0)" stroke-opacity="1.0" stroke-linecap="round" stroke-linejoin="round"/>
    <path d="M 86.60844421386719 63.40658950805664 C 84.80069732666016 101.76183319091797 53.98393630981445 66.01107025146484 87.34693908691406 44.54893493652344" stroke-width="3.0" fill="none" stroke="rgb(0, 0, 0)" stroke-opacity="1.0" stroke-linecap="round" stroke-linejoin="round"/>
    <path d="M 24.453813552856445 172.20494079589844 C 18.917484283447266 185.23374938964844 52.91898727416992 183.00921630859375 57.070106506347656 186.24400329589844" stroke-width="3.0" fill="none" stroke="rgb(0, 0, 0)" stroke-opacity="1.0" stroke-linecap="round" stroke-linejoin="round"/>
    <path d="M 127.11767578125 153.3773651123047 C 140.96392822265625 103.9753646850586 103.9665756225586 48.27438735961914 63.64090347290039 80.82840728759766" stroke-width="3.0" fill="none" stroke="rgb(0, 0, 0)" stroke-opacity="1.0" stroke-linecap="round" stroke-linejoin="round"/>
    <path d="M 69.9737777709961 79.2499008178711 C 8.559292793273926 69.70874786376953 78.40493774414062 112.71150970458984 55.34343719482422 128.28346252441406" stroke-width="3.0" fill="none" stroke="rgb(0, 0, 0)" stroke-opacity="1.0" stroke-linecap="round" stroke-linejoin="round"/>
    <path d="M 58.22365951538086 88.71941375732422 C 79.41510772705078 80.77101135253906 25.905567169189453 112.17196655273438 90.61891174316406 91.6615982055664" stroke-width="3.0" fill="none" stroke="rgb(0, 0, 0)" stroke-opacity="1.0" stroke-linecap="round" stroke-linejoin="round"/>
    <path d="M 32.209014892578125 167.54196166992188 C 28.110286712646484 156.72401428222656 -1.4265903234481812 189.14247131347656 63.23002243041992 187.81687927246094" stroke-width="3.0" fill="none" stroke="rgb(0, 0, 0)" stroke-opacity="1.0" stroke-linecap="round" stroke-linejoin="round"/>
  </g>
</svg>
