<?xml version="1.0" ?>
<svg xmlns="http://www.w3.org/2000/svg" version="1.1" width="224" height="224">
  <defs/>
  <g>
    <path d="M 109.86048889160156 178.71058654785156 C 101.29303741455078 152.64561462402344 101.47224426269531 154.34588623046875 93.02135467529297 120.35738372802734" stroke-width="3.0" fill="none" stroke="rgb(0, 0, 0)" stroke-opacity="1.0" stroke-linecap="round" stroke-linejoin="round"/>
    <path d="M 130.7264404296875 149.73976135253906 C 125.0020751953125 123.99729919433594 129.2051544189453 129.97044372558594 130.4696044921875 135.7067108154297" stroke-width="3.0" fill="none" stroke="rgb(0, 0, 0)" stroke-opacity="1.0" stroke-linecap="round" stroke-linejoin="round"/>
    <path d="M 44.09383773803711 166.382568359375 C 47.289146423339844 134.0026397705078 46.53795623779297 131.4840087890625 43.074092864990234 156.43295288085938" stroke-width="3.0" fill="none" stroke="rgb(0, 0, 0)" stroke-opacity="1.0" stroke-linecap="round" stroke-linejoin="round"/>
    <path d="M 128.69601440429688 119.23847961425781 C 121.98941802978516 135.75796508789062 126.77664947509766 139.903564453125 129.9345245361328 139.9613494873047" stroke-width="3.0" fill="none" stroke="rgb(0, 0, 0)" stroke-opacity="1.0" stroke-linecap="round" stroke-linejoin="round"/>
    <path d="M 58.20915603637695 122.6503677368164 C 64.34432220458984 97.52262878417969 67.75689697265625 90.98674011230469 61.37372589111328 112.6096420288086" stroke-width="3.0" fill="none" stroke="rgb(0, 0, 0)" stroke-opacity="1.0" stroke-linecap="round" stroke-linejoin="round"/>
    <path d="M 126.2392807006836 116.70999908447266 C 125.43328857421875 141.7696533203125 133.0457000732422 140.95574951171875 129.30819702148438 122.252197265625" stroke-width="3.0" fill="none" stroke="rgb(0, 0, 0)" stroke-opacity="1.0" stroke-linecap="round" stroke-linejoin="round"/>
    <path d="M 59.39519119262695 123.16099548339844 C 71.14557647705078 88.95369720458984 43.31209182739258 83.55442810058594 62.838722229003906 108.89089965820312" stroke-width="3.0" fill="none" stroke="rgb(0, 0, 0)" stroke-opacity="1.0" stroke-linecap="round" stroke-linejoin="round"/>
    <path d="M 199.92831420898438 179.61474609375 C 198.88519287109375 186.54824829101562 202.57489013671875 187.65948486328125 127.1279067993164 184.14181518554688" stroke-width="3.0" fill="none" stroke="rgb(0, 0, 0)" stroke-opacity="1.0" stroke-linecap="round" stroke-linejoin="round"/>
    <path d="M 129.46241760253906 192.78729248046875 C 124.99653625488281 200.8632049560547 126.51380157470703 191.5941925048828 69.73060607910156 194.11175537109375" stroke-width="3.0" fill="none" stroke="rgb(0, 0, 0)" stroke-opacity="1.0" stroke-linecap="round" stroke-linejoin="round"/>
    <path d="M 36.08445739746094 90.5477066040039 C 60.35029983520508 82.46746063232422 62.60863494873047 103.70307159423828 57.7327995300293 123.6915054321289" stroke-width="3.0" fill="none" stroke="rgb(0, 0, 0)" stroke-opacity="1.0" stroke-linecap="round" stroke-linejoin="round"/>
    <path d="M 104.64950561523438 178.15235900878906 C 147.57640075683594 183.2063446044922 123.19808959960938 180.9485321044922 124.48245239257812 181.6963348388672" stroke-width="3.0" fill="none" stroke="rgb(0, 0, 0)" stroke-opacity="1.0" stroke-linecap="round" stroke-linejoin="round"/>
    <path d="M 131.65240478515625 187.84007263183594 C 117.58763885498047 146.277587890625 141.1719970703125 173.05039978027344 124.56190490722656 104.791259765625" stroke-width="3.0" fill="none" stroke="rgb(0, 0, 0)" stroke-opacity="1.0" stroke-linecap="round" stroke-linejoin="round"/>
    <path d="M 46.59672927856445 156.12698364257812 C 52.6054573059082 119.05697631835938 62.18940353393555 130.41502380371094 65.91080474853516 98.48114013671875" stroke-width="3.0" fill="none" stroke="rgb(0, 0, 0)" stroke-opacity="1.0" stroke-linecap="round" stroke-linejoin="round"/>
    <path d="M 19.90373420715332 169.6501922607422 C 31.975317001342773 187.63893127441406 58.21530532836914 184.29905700683594 52.980838775634766 187.7187042236328" stroke-width="3.0" fill="none" stroke="rgb(0, 0, 0)" stroke-opacity="1.0" stroke-linecap="round" stroke-linejoin="round"/>
    <path d="M 66.14636993408203 60.99365997314453 C 96.80298614501953 50.521873474121094 85.39156341552734 27.24346160888672 92.32927703857422 74.12598419189453" stroke-width="3.0" fill="none" stroke="rgb(0, 0, 0)" stroke-opacity="1.0" stroke-linecap="round" stroke-linejoin="round"/>
    <path d="M 88.94247436523438 64.44097900390625 C 97.96406555175781 111.29717254638672 46.33431625366211 66.30692291259766 73.90656280517578 80.02059936523438" stroke-width="3.0" fill="none" stroke="rgb(0, 0, 0)" stroke-opacity="1.0" stroke-linecap="round" stroke-linejoin="round"/>
    <path d="M 49.736995697021484 99.5785140991211 C 33.04338836669922 8.02846622467041 40.431724548339844 67.39595794677734 87.32377624511719 65.74774932861328" stroke-width="3.0" fill="none" stroke="rgb(0, 0, 0)" stroke-opacity="1.0" stroke-linecap="round" stroke-linejoin="round"/>
    <path d="M 108.52011108398438 194.52972412109375 C 43.715065002441406 203.04470825195312 43.69977951049805 179.69659423828125 48.03807830810547 149.4339599609375" stroke-width="3.0" fill="none" stroke="rgb(0, 0, 0)" stroke-opacity="1.0" stroke-linecap="round" stroke-linejoin="round"/>
    <path d="M 97.72370910644531 178.47926330566406 C 101.99029541015625 169.16270446777344 101.47942352294922 176.1402130126953 100.25906372070312 138.9311065673828" stroke-width="3.0" fill="none" stroke="rgb(0, 0, 0)" stroke-opacity="1.0" stroke-linecap="round" stroke-linejoin="round"/>
    <path d="M 130.38458251953125 172.97610473632812 C 210.99697875976562 175.6378936767578 199.5709228515625 176.08848571777344 197.97296142578125 182.18283081054688" stroke-width="3.0" fill="none" stroke="rgb(0, 0, 0)" stroke-opacity="1.0" stroke-linecap="round" stroke-linejoin="round"/>
    <path d="M 51.95830535888672 186.4479217529297 C 59.43499755859375 193.63653564453125 45.05859375 186.48446655273438 50.814823150634766 188.276611328125" stroke-width="3.0" fill="none" stroke="rgb(0, 0, 0)" stroke-opacity="1.0" stroke-linecap="round" stroke-linejoin="round"/>
    <path d="M 46.29198455810547 177.25918579101562 C 41.03768539428711 147.7797393798828 45.79506301879883 136.10379028320312 59.62389373779297 120.3597412109375" stroke-width="3.0" fill="none" stroke="rgb(0, 0, 0)" stroke-opacity="1.0" stroke-linecap="round" stroke-linejoin="round"/>
    <path d="M 34.978424072265625 99.18191528320312 C 56.432987213134766 72.43814849853516 57.6230583190918 118.27669525146484 63.006065368652344 104.331787109375" stroke-width="3.0" fill="none" stroke="rgb(0, 0, 0)" stroke-opacity="1.0" stroke-linecap="round" stroke-linejoin="round"/>
    <path d="M 42.381954193115234 183.59706115722656 C 20.80306053161621 173.47434997558594 33.71706771850586 163.59701538085938 29.679658889770508 163.9663848876953" stroke-width="3.0" fill="none" stroke="rgb(0, 0, 0)" stroke-opacity="1.0" stroke-linecap="round" stroke-linejoin="round"/>
    <path d="M 57.11568832397461 67.38239288330078 C 53.606082916259766 109.61367797851562 21.273046493530273 46.86995315551758 80.2701416015625 62.771610260009766" stroke-width="3.0" fill="none" stroke="rgb(0, 0, 0)" stroke-opacity="1.0" stroke-linecap="round" stroke-linejoin="round"/>
    <path d="M 46.778350830078125 173.01229858398438 C 49.80106735229492 112.88074493408203 104.28324127197266 137.46519470214844 95.66260528564453 158.7754364013672" stroke-width="3.0" fill="none" stroke="rgb(0, 0, 0)" stroke-opacity="1.0" stroke-linecap="round" stroke-linejoin="round"/>
    <path d="M 79.40802001953125 55.58123779296875 C 69.3092041015625 85.76432800292969 61.53064727783203 59.32152557373047 87.06013488769531 46.55038070678711" stroke-width="3.0" fill="none" stroke="rgb(0, 0, 0)" stroke-opacity="1.0" stroke-linecap="round" stroke-linejoin="round"/>
    <path d="M 36.10016632080078 178.34397888183594 C 38.22657012939453 179.05941772460938 58.29450225830078 182.0149688720703 28.352764129638672 180.4186248779297" stroke-width="3.0" fill="none" stroke="rgb(0, 0, 0)" stroke-opacity="1.0" stroke-linecap="round" stroke-linejoin="round"/>
    <path d="M 127.30502319335938 133.46176147460938 C 138.77406311035156 122.2906494140625 108.82015228271484 52.86467742919922 65.368408203125 70.92675018310547" stroke-width="3.0" fill="none" stroke="rgb(0, 0, 0)" stroke-opacity="1.0" stroke-linecap="round" stroke-linejoin="round"/>
    <path d="M 56.98678207397461 77.93804168701172 C 19.4309024810791 65.40705871582031 81.89250183105469 116.02691650390625 51.1458625793457 134.31320190429688" stroke-width="3.0" fill="none" stroke="rgb(0, 0, 0)" stroke-opacity="1.0" stroke-linecap="round" stroke-linejoin="round"/>
    <path d="M 60.280120849609375 88.11659240722656 C 81.0003662109375 78.82594299316406 27.867664337158203 114.23841857910156 89.34037780761719 89.7891845703125" stroke-width="3.0" fill="none" stroke="rgb(0, 0, 0)" stroke-opacity="1.0" stroke-linecap="round" stroke-linejoin="round"/>
    <path d="M 31.451358795166016 165.46282958984375 C 18.24078941345215 153.14120483398438 9.406505584716797 184.5661163330078 52.33463668823242 190.24700927734375" stroke-width="3.0" fill="none" stroke="rgb(0, 0, 0)" stroke-opacity="1.0" stroke-linecap="round" stroke-linejoin="round"/>
  </g>
</svg>
