<?xml version="1.0" ?>
<svg xmlns="http://www.w3.org/2000/svg" version="1.1" width="224" height="224">
  <defs/>
  <g>
    <path d="M 109.34943389892578 182.87315368652344 C 105.78121185302734 133.6642608642578 102.33792114257812 162.8148193359375 95.19046020507812 121.79920196533203" stroke-width="3.0" fill="none" stroke="rgb(0, 0, 0)" stroke-opacity="1.0" stroke-linecap="round" stroke-linejoin="round"/>
    <path d="M 127.93604278564453 150.81646728515625 C 120.55534362792969 123.03717041015625 136.60597229003906 132.5220489501953 128.7270965576172 154.63815307617188" stroke-width="3.0" fill="none" stroke="rgb(0, 0, 0)" stroke-opacity="1.0" stroke-linecap="round" stroke-linejoin="round"/>
    <path d="M 44.87281036376953 170.89349365234375 C 40.30204391479492 155.0497589111328 45.32025146484375 140.20066833496094 44.11159133911133 157.36236572265625" stroke-width="3.0" fill="none" stroke="rgb(0, 0, 0)" stroke-opacity="1.0" stroke-linecap="round" stroke-linejoin="round"/>
    <path d="M 128.34268188476562 127.66800689697266 C 122.97064208984375 143.352783203125 124.5792236328125 142.1888427734375 127.66326904296875 156.87039184570312" stroke-width="3.0" fill="none" stroke="rgb(0, 0, 0)" stroke-opacity="1.0" stroke-linecap="round" stroke-linejoin="round"/>
    <path d="M 61.40412902832031 121.48193359375 C 77.10015869140625 95.68215942382812 53.8851432800293 89.37535858154297 60.54148864746094 110.01000213623047" stroke-width="3.0" fill="none" stroke="rgb(0, 0, 0)" stroke-opacity="1.0" stroke-linecap="round" stroke-linejoin="round"/>
    <path d="M 124.2512435913086 104.00357055664062 C 130.84375 154.18536376953125 120.3958740234375 150.89007568359375 124.55149841308594 113.98138427734375" stroke-width="3.0" fill="none" stroke="rgb(0, 0, 0)" stroke-opacity="1.0" stroke-linecap="round" stroke-linejoin="round"/>
    <path d="M 58.26606750488281 126.28455352783203 C 68.24344635009766 99.34761810302734 54.65311813354492 97.0988540649414 60.820865631103516 120.40616607666016" stroke-width="3.0" fill="none" stroke="rgb(0, 0, 0)" stroke-opacity="1.0" stroke-linecap="round" stroke-linejoin="round"/>
    <path d="M 198.81475830078125 174.36456298828125 C 206.7789764404297 187.00306701660156 203.38088989257812 186.12503051757812 129.19041442871094 182.88108825683594" stroke-width="3.0" fill="none" stroke="rgb(0, 0, 0)" stroke-opacity="1.0" stroke-linecap="round" stroke-linejoin="round"/>
    <path d="M 129.3179473876953 191.14181518554688 C 125.98606872558594 200.0502166748047 133.38650512695312 195.55857849121094 70.06163787841797 190.21116638183594" stroke-width="3.0" fill="none" stroke="rgb(0, 0, 0)" stroke-opacity="1.0" stroke-linecap="round" stroke-linejoin="round"/>
    <path d="M 36.690147399902344 92.52760314941406 C 58.55067443847656 90.21749114990234 71.98473358154297 109.16499328613281 58.98017501831055 121.49657440185547" stroke-width="3.0" fill="none" stroke="rgb(0, 0, 0)" stroke-opacity="1.0" stroke-linecap="round" stroke-linejoin="round"/>
    <path d="M 101.34770965576172 181.50390625 C 149.03964233398438 184.9075469970703 124.87017059326172 189.09396362304688 128.2216033935547 184.7814483642578" stroke-width="3.0" fill="none" stroke="rgb(0, 0, 0)" stroke-opacity="1.0" stroke-linecap="round" stroke-linejoin="round"/>
    <path d="M 128.1126251220703 182.47752380371094 C 119.49365997314453 139.94515991210938 140.29208374023438 179.7554473876953 119.48963165283203 95.64275360107422" stroke-width="3.0" fill="none" stroke="rgb(0, 0, 0)" stroke-opacity="1.0" stroke-linecap="round" stroke-linejoin="round"/>
    <path d="M 43.24610137939453 158.62599182128906 C 51.70679473876953 112.13526153564453 62.765403747558594 143.57472229003906 69.35220336914062 98.19087219238281" stroke-width="3.0" fill="none" stroke="rgb(0, 0, 0)" stroke-opacity="1.0" stroke-linecap="round" stroke-linejoin="round"/>
    <path d="M 21.676660537719727 166.1844024658203 C 22.65663719177246 188.80621337890625 56.8909912109375 192.77774047851562 47.574886322021484 187.59471130371094" stroke-width="3.0" fill="none" stroke="rgb(0, 0, 0)" stroke-opacity="1.0" stroke-linecap="round" stroke-linejoin="round"/>
    <path d="M 53.53837585449219 61.607383728027344 C 93.15120697021484 68.37105560302734 93.93941497802734 4.120795249938965 87.32482147216797 84.85865783691406" stroke-width="3.0" fill="none" stroke="rgb(0, 0, 0)" stroke-opacity="1.0" stroke-linecap="round" stroke-linejoin="round"/>
    <path d="M 69.72831726074219 70.56069946289062 C 103.51631164550781 97.6269302368164 38.60887908935547 71.45844268798828 68.24468994140625 75.59829711914062" stroke-width="3.0" fill="none" stroke="rgb(0, 0, 0)" stroke-opacity="1.0" stroke-linecap="round" stroke-linejoin="round"/>
    <path d="M 46.52330780029297 87.91206359863281 C 36.43582534790039 5.451297760009766 48.612789154052734 81.710205078125 87.16728973388672 64.36188507080078" stroke-width="3.0" fill="none" stroke="rgb(0, 0, 0)" stroke-opacity="1.0" stroke-linecap="round" stroke-linejoin="round"/>
    <path d="M 110.66935729980469 196.17529296875 C 47.05099868774414 207.18641662597656 38.21672058105469 170.68618774414062 49.491302490234375 136.65672302246094" stroke-width="3.0" fill="none" stroke="rgb(0, 0, 0)" stroke-opacity="1.0" stroke-linecap="round" stroke-linejoin="round"/>
    <path d="M 97.42615509033203 176.8993377685547 C 102.66455078125 171.3295135498047 113.11186218261719 178.28515625 99.04374694824219 139.83294677734375" stroke-width="3.0" fill="none" stroke="rgb(0, 0, 0)" stroke-opacity="1.0" stroke-linecap="round" stroke-linejoin="round"/>
    <path d="M 127.10311889648438 172.2901611328125 C 211.85272216796875 172.08924865722656 198.42788696289062 173.2072296142578 201.32174682617188 182.09765625" stroke-width="3.0" fill="none" stroke="rgb(0, 0, 0)" stroke-opacity="1.0" stroke-linecap="round" stroke-linejoin="round"/>
    <path d="M 27.47015953063965 175.34835815429688 C 35.88334274291992 196.8620147705078 42.59785842895508 181.60861206054688 44.512420654296875 189.3387451171875" stroke-width="3.0" fill="none" stroke="rgb(0, 0, 0)" stroke-opacity="1.0" stroke-linecap="round" stroke-linejoin="round"/>
    <path d="M 47.183982849121094 186.40972900390625 C 35.70869445800781 151.1409454345703 44.57548904418945 135.19113159179688 61.25304412841797 119.5149917602539" stroke-width="3.0" fill="none" stroke="rgb(0, 0, 0)" stroke-opacity="1.0" stroke-linecap="round" stroke-linejoin="round"/>
    <path d="M 41.31406784057617 102.23323059082031 C 65.97579956054688 77.52606964111328 67.27118682861328 121.84081268310547 66.69218444824219 97.0198974609375" stroke-width="3.0" fill="none" stroke="rgb(0, 0, 0)" stroke-opacity="1.0" stroke-linecap="round" stroke-linejoin="round"/>
    <path d="M 47.67184829711914 183.56710815429688 C 22.980445861816406 176.5180206298828 30.860254287719727 167.93765258789062 21.857852935791016 170.73052978515625" stroke-width="3.0" fill="none" stroke="rgb(0, 0, 0)" stroke-opacity="1.0" stroke-linecap="round" stroke-linejoin="round"/>
    <path d="M 55.23848342895508 73.14787292480469 C 51.208709716796875 104.24419403076172 17.128965377807617 46.92245864868164 87.04174041748047 67.02999877929688" stroke-width="3.0" fill="none" stroke="rgb(0, 0, 0)" stroke-opacity="1.0" stroke-linecap="round" stroke-linejoin="round"/>
    <path d="M 46.286678314208984 167.10165405273438 C 57.62342834472656 112.42514038085938 113.47986602783203 129.08074951171875 91.6010971069336 173.4324188232422" stroke-width="3.0" fill="none" stroke="rgb(0, 0, 0)" stroke-opacity="1.0" stroke-linecap="round" stroke-linejoin="round"/>
    <path d="M 88.97968292236328 61.80250549316406 C 66.06507873535156 111.11727142333984 60.81113815307617 57.10514450073242 84.6928939819336 46.76184844970703" stroke-width="3.0" fill="none" stroke="rgb(0, 0, 0)" stroke-opacity="1.0" stroke-linecap="round" stroke-linejoin="round"/>
    <path d="M 28.70285987854004 165.09335327148438 C 21.55039405822754 187.72152709960938 60.5241584777832 190.0114288330078 45.77851104736328 185.64462280273438" stroke-width="3.0" fill="none" stroke="rgb(0, 0, 0)" stroke-opacity="1.0" stroke-linecap="round" stroke-linejoin="round"/>
    <path d="M 124.62408447265625 141.6569366455078 C 141.59031677246094 113.63420867919922 107.67623901367188 50.149478912353516 64.02127075195312 76.1044692993164" stroke-width="3.0" fill="none" stroke="rgb(0, 0, 0)" stroke-opacity="1.0" stroke-linecap="round" stroke-linejoin="round"/>
    <path d="M 62.250030517578125 78.58817291259766 C 14.70136833190918 78.48521423339844 81.41486358642578 103.12461853027344 56.37662887573242 127.82404327392578" stroke-width="3.0" fill="none" stroke="rgb(0, 0, 0)" stroke-opacity="1.0" stroke-linecap="round" stroke-linejoin="round"/>
    <path d="M 58.23768615722656 83.57091522216797 C 76.75244903564453 79.9219970703125 26.888425827026367 108.83554077148438 84.93220520019531 90.36701965332031" stroke-width="3.0" fill="none" stroke="rgb(0, 0, 0)" stroke-opacity="1.0" stroke-linecap="round" stroke-linejoin="round"/>
    <path d="M 32.09650421142578 166.57681274414062 C 24.503746032714844 158.75836181640625 7.319919109344482 175.15179443359375 67.48698425292969 196.5415496826172" stroke-width="3.0" fill="none" stroke="rgb(0, 0, 0)" stroke-opacity="1.0" stroke-linecap="round" stroke-linejoin="round"/>
  </g>
</svg>
