<?xml version="1.0" ?>
<svg xmlns="http://www.w3.org/2000/svg" version="1.1" width="224" height="224">
  <defs/>
  <g>
    <path d="M 92.93157196044922 143.61386108398438 C 95.6619873046875 131.3701934814453 96.17595672607422 141.24920654296875 92.48130798339844 123.2260513305664" stroke-width="3.0" fill="none" stroke="rgb(0, 0, 0)" stroke-opacity="1.0" stroke-linecap="round" stroke-linejoin="round"/>
    <path d="M 105.6195297241211 147.6486358642578 C 114.48848724365234 155.54891967773438 108.34207916259766 158.4204559326172 110.23096466064453 145.43634033203125" stroke-width="3.0" fill="none" stroke="rgb(0, 0, 0)" stroke-opacity="1.0" stroke-linecap="round" stroke-linejoin="round"/>
    <path d="M 44.2637825012207 154.85008239746094 C 48.84262466430664 139.09898376464844 47.519107818603516 145.9803924560547 44.713069915771484 149.91371154785156" stroke-width="3.0" fill="none" stroke="rgb(0, 0, 0)" stroke-opacity="1.0" stroke-linecap="round" stroke-linejoin="round"/>
    <path d="M 120.13671112060547 118.42217254638672 C 117.43661499023438 133.58087158203125 113.7953872680664 131.40029907226562 112.30764770507812 140.0583953857422" stroke-width="3.0" fill="none" stroke="rgb(0, 0, 0)" stroke-opacity="1.0" stroke-linecap="round" stroke-linejoin="round"/>
    <path d="M 64.83861541748047 114.90128326416016 C 57.574031829833984 95.66053771972656 59.73908615112305 100.44364166259766 69.2138671875 104.20030212402344" stroke-width="3.0" fill="none" stroke="rgb(0, 0, 0)" stroke-opacity="1.0" stroke-linecap="round" stroke-linejoin="round"/>
    <path d="M 114.06608581542969 136.70748901367188 C 113.01527404785156 143.72488403320312 110.31249237060547 144.17333984375 112.30369567871094 142.93002319335938" stroke-width="3.0" fill="none" stroke="rgb(0, 0, 0)" stroke-opacity="1.0" stroke-linecap="round" stroke-linejoin="round"/>
    <path d="M 60.93815994262695 114.47988891601562 C 62.61531066894531 94.35050201416016 54.940460205078125 91.94230651855469 59.5256462097168 116.06273651123047" stroke-width="3.0" fill="none" stroke="rgb(0, 0, 0)" stroke-opacity="1.0" stroke-linecap="round" stroke-linejoin="round"/>
    <path d="M 194.4847869873047 188.07730102539062 C 206.52914428710938 195.0507049560547 210.0824737548828 189.8223876953125 132.9452362060547 185.0234375" stroke-width="3.0" fill="none" stroke="rgb(0, 0, 0)" stroke-opacity="1.0" stroke-linecap="round" stroke-linejoin="round"/>
    <path d="M 132.6616668701172 190.6308135986328 C 90.74124908447266 196.75086975097656 117.43101501464844 193.29173278808594 87.07268524169922 197.06410217285156" stroke-width="3.0" fill="none" stroke="rgb(0, 0, 0)" stroke-opacity="1.0" stroke-linecap="round" stroke-linejoin="round"/>
    <path d="M 43.27104187011719 82.67573547363281 C 55.537235260009766 110.66411590576172 84.9731674194336 92.7399673461914 62.24174118041992 102.2064208984375" stroke-width="3.0" fill="none" stroke="rgb(0, 0, 0)" stroke-opacity="1.0" stroke-linecap="round" stroke-linejoin="round"/>
    <path d="M 103.08819580078125 158.12750244140625 C 130.4792938232422 165.9151153564453 126.24031829833984 161.9104766845703 128.77476501464844 170.19491577148438" stroke-width="3.0" fill="none" stroke="rgb(0, 0, 0)" stroke-opacity="1.0" stroke-linecap="round" stroke-linejoin="round"/>
    <path d="M 126.99072265625 159.5651397705078 C 131.27867126464844 141.1352996826172 129.8325958251953 124.08523559570312 121.2757339477539 96.89696502685547" stroke-width="3.0" fill="none" stroke="rgb(0, 0, 0)" stroke-opacity="1.0" stroke-linecap="round" stroke-linejoin="round"/>
    <path d="M 45.444339752197266 150.07347106933594 C 55.004390716552734 128.104736328125 47.884429931640625 134.47119140625 57.63328552246094 124.03074645996094" stroke-width="3.0" fill="none" stroke="rgb(0, 0, 0)" stroke-opacity="1.0" stroke-linecap="round" stroke-linejoin="round"/>
    <path d="M 27.526277542114258 182.11825561523438 C 39.70246124267578 191.4481964111328 46.13100051879883 187.3957061767578 58.98868942260742 192.69459533691406" stroke-width="3.0" fill="none" stroke="rgb(0, 0, 0)" stroke-opacity="1.0" stroke-linecap="round" stroke-linejoin="round"/>
    <path d="M 69.76502227783203 59.47292709350586 C 94.72505187988281 37.76021194458008 84.41766357421875 37.78617477416992 89.974609375 72.68120574951172" stroke-width="3.0" fill="none" stroke="rgb(0, 0, 0)" stroke-opacity="1.0" stroke-linecap="round" stroke-linejoin="round"/>
    <path d="M 80.14006042480469 74.15309143066406 C 66.40229797363281 84.9885482788086 67.98611450195312 58.67917251586914 80.3906478881836 72.56546020507812" stroke-width="3.0" fill="none" stroke="rgb(0, 0, 0)" stroke-opacity="1.0" stroke-linecap="round" stroke-linejoin="round"/>
    <path d="M 43.37674331665039 71.01605224609375 C 42.21086502075195 37.990928649902344 34.484458923339844 46.431922912597656 70.65827178955078 63.588680267333984" stroke-width="3.0" fill="none" stroke="rgb(0, 0, 0)" stroke-opacity="1.0" stroke-linecap="round" stroke-linejoin="round"/>
    <path d="M 103.75083923339844 196.13235473632812 C 43.84461975097656 202.3118438720703 40.50080871582031 178.80136108398438 49.75188446044922 143.48475646972656" stroke-width="3.0" fill="none" stroke="rgb(0, 0, 0)" stroke-opacity="1.0" stroke-linecap="round" stroke-linejoin="round"/>
    <path d="M 97.40972137451172 159.6675262451172 C 92.92658996582031 156.01651000976562 104.3584976196289 160.52870178222656 90.63557434082031 147.5694580078125" stroke-width="3.0" fill="none" stroke="rgb(0, 0, 0)" stroke-opacity="1.0" stroke-linecap="round" stroke-linejoin="round"/>
    <path d="M 133.7845916748047 171.38046264648438 C 164.75924682617188 174.64248657226562 188.17164611816406 176.08084106445312 197.47288513183594 178.5066375732422" stroke-width="3.0" fill="none" stroke="rgb(0, 0, 0)" stroke-opacity="1.0" stroke-linecap="round" stroke-linejoin="round"/>
    <path d="M 63.10811996459961 195.4879608154297 C 72.2716293334961 197.28453063964844 57.921878814697266 195.61495971679688 53.03860092163086 189.76089477539062" stroke-width="3.0" fill="none" stroke="rgb(0, 0, 0)" stroke-opacity="1.0" stroke-linecap="round" stroke-linejoin="round"/>
    <path d="M 47.34111785888672 168.48768615722656 C 42.830116271972656 159.55821228027344 42.69572448730469 139.16880798339844 54.885807037353516 127.20576477050781" stroke-width="3.0" fill="none" stroke="rgb(0, 0, 0)" stroke-opacity="1.0" stroke-linecap="round" stroke-linejoin="round"/>
    <path d="M 61.79572296142578 101.87218475341797 C 53.902713775634766 107.2001953125 74.25205993652344 114.4645004272461 62.69324493408203 106.58531951904297" stroke-width="3.0" fill="none" stroke="rgb(0, 0, 0)" stroke-opacity="1.0" stroke-linecap="round" stroke-linejoin="round"/>
    <path d="M 46.7467041015625 181.6983184814453 C 21.55225944519043 170.2104949951172 33.872432708740234 162.65625 29.750232696533203 164.7937774658203" stroke-width="3.0" fill="none" stroke="rgb(0, 0, 0)" stroke-opacity="1.0" stroke-linecap="round" stroke-linejoin="round"/>
    <path d="M 51.08198928833008 73.36392974853516 C 37.446617126464844 88.78775024414062 46.904808044433594 48.91386413574219 68.46927642822266 61.35965347290039" stroke-width="3.0" fill="none" stroke="rgb(0, 0, 0)" stroke-opacity="1.0" stroke-linecap="round" stroke-linejoin="round"/>
    <path d="M 65.16641235351562 133.7589569091797 C 88.91897583007812 141.94532775878906 88.47117614746094 148.3404998779297 92.072265625 148.00503540039062" stroke-width="3.0" fill="none" stroke="rgb(0, 0, 0)" stroke-opacity="1.0" stroke-linecap="round" stroke-linejoin="round"/>
    <path d="M 87.42736053466797 50.37877655029297 C 79.57063293457031 56.062644958496094 95.13929748535156 77.50686645507812 83.51142120361328 57.53113555908203" stroke-width="3.0" fill="none" stroke="rgb(0, 0, 0)" stroke-opacity="1.0" stroke-linecap="round" stroke-linejoin="round"/>
    <path d="M 47.35231399536133 189.10101318359375 C 31.73932647705078 185.80184936523438 37.57136154174805 188.700439453125 48.07041931152344 189.00686645507812" stroke-width="3.0" fill="none" stroke="rgb(0, 0, 0)" stroke-opacity="1.0" stroke-linecap="round" stroke-linejoin="round"/>
    <path d="M 118.18719482421875 126.29307556152344 C 125.16368103027344 110.68264770507812 127.88556671142578 83.29216766357422 94.32493591308594 75.08894348144531" stroke-width="3.0" fill="none" stroke="rgb(0, 0, 0)" stroke-opacity="1.0" stroke-linecap="round" stroke-linejoin="round"/>
    <path d="M 54.882389068603516 86.20820617675781 C 24.637939453125 90.42561340332031 68.55042266845703 85.57691955566406 57.729427337646484 123.4100112915039" stroke-width="3.0" fill="none" stroke="rgb(0, 0, 0)" stroke-opacity="1.0" stroke-linecap="round" stroke-linejoin="round"/>
    <path d="M 57.10682678222656 79.56379699707031 C 76.3997802734375 81.64405822753906 53.00481414794922 93.25318145751953 68.05360412597656 79.90837860107422" stroke-width="3.0" fill="none" stroke="rgb(0, 0, 0)" stroke-opacity="1.0" stroke-linecap="round" stroke-linejoin="round"/>
    <path d="M 32.28807067871094 165.97047424316406 C 17.043371200561523 153.36817932128906 7.274562835693359 177.81556701660156 39.761356353759766 187.1049041748047" stroke-width="3.0" fill="none" stroke="rgb(0, 0, 0)" stroke-opacity="1.0" stroke-linecap="round" stroke-linejoin="round"/>
  </g>
</svg>
