<?xml version="1.0" ?>
<svg xmlns="http://www.w3.org/2000/svg" version="1.1" width="224" height="224">
  <defs/>
  <g>
    <path d="M 100.9830093383789 154.0674285888672 C 92.23528289794922 132.6470489501953 99.24935913085938 143.83547973632812 93.66454315185547 125.63239288330078" stroke-width="3.0" fill="none" stroke="rgb(0, 0, 0)" stroke-opacity="1.0" stroke-linecap="round" stroke-linejoin="round"/>
    <path d="M 115.67273712158203 139.92178344726562 C 116.84741973876953 142.8369598388672 117.02182006835938 147.24412536621094 116.68672943115234 139.47445678710938" stroke-width="3.0" fill="none" stroke="rgb(0, 0, 0)" stroke-opacity="1.0" stroke-linecap="round" stroke-linejoin="round"/>
    <path d="M 44.42185592651367 151.0780792236328 C 50.19725036621094 139.80455017089844 47.857295989990234 146.14906311035156 46.314544677734375 151.75144958496094" stroke-width="3.0" fill="none" stroke="rgb(0, 0, 0)" stroke-opacity="1.0" stroke-linecap="round" stroke-linejoin="round"/>
    <path d="M 122.47319793701172 119.19111633300781 C 121.91790008544922 136.9632110595703 122.61932373046875 128.79209899902344 117.53551483154297 139.57485961914062" stroke-width="3.0" fill="none" stroke="rgb(0, 0, 0)" stroke-opacity="1.0" stroke-linecap="round" stroke-linejoin="round"/>
    <path d="M 65.96473693847656 112.29560089111328 C 50.98385238647461 105.12957763671875 66.57444763183594 104.74917602539062 67.35163116455078 110.45258331298828" stroke-width="3.0" fill="none" stroke="rgb(0, 0, 0)" stroke-opacity="1.0" stroke-linecap="round" stroke-linejoin="round"/>
    <path d="M 121.41171264648438 131.33558654785156 C 116.10391998291016 138.37002563476562 113.991943359375 140.23614501953125 118.22003936767578 139.49708557128906" stroke-width="3.0" fill="none" stroke="rgb(0, 0, 0)" stroke-opacity="1.0" stroke-linecap="round" stroke-linejoin="round"/>
    <path d="M 66.4148941040039 110.27068328857422 C 61.92901611328125 114.28205108642578 55.628662109375 101.78987121582031 66.37004852294922 109.81159973144531" stroke-width="3.0" fill="none" stroke="rgb(0, 0, 0)" stroke-opacity="1.0" stroke-linecap="round" stroke-linejoin="round"/>
    <path d="M 197.96597290039062 183.4606475830078 C 199.23814392089844 184.32713317871094 204.17654418945312 189.50914001464844 132.89830017089844 185.8505096435547" stroke-width="3.0" fill="none" stroke="rgb(0, 0, 0)" stroke-opacity="1.0" stroke-linecap="round" stroke-linejoin="round"/>
    <path d="M 129.75401306152344 190.8161163330078 C 125.80384826660156 202.1842041015625 126.95223999023438 190.49905395507812 74.79478454589844 195.6721649169922" stroke-width="3.0" fill="none" stroke="rgb(0, 0, 0)" stroke-opacity="1.0" stroke-linecap="round" stroke-linejoin="round"/>
    <path d="M 35.44837188720703 89.07656860351562 C 64.2951431274414 102.37077331542969 70.31742858886719 111.39600372314453 65.21070098876953 111.49514770507812" stroke-width="3.0" fill="none" stroke="rgb(0, 0, 0)" stroke-opacity="1.0" stroke-linecap="round" stroke-linejoin="round"/>
    <path d="M 102.14021301269531 177.89553833007812 C 142.9253692626953 178.97044372558594 124.09459686279297 176.44833374023438 129.723876953125 180.44735717773438" stroke-width="3.0" fill="none" stroke="rgb(0, 0, 0)" stroke-opacity="1.0" stroke-linecap="round" stroke-linejoin="round"/>
    <path d="M 128.27249145507812 177.02841186523438 C 118.75354766845703 153.22178649902344 143.34841918945312 149.9969024658203 121.69876861572266 96.5479736328125" stroke-width="3.0" fill="none" stroke="rgb(0, 0, 0)" stroke-opacity="1.0" stroke-linecap="round" stroke-linejoin="round"/>
    <path d="M 44.492942810058594 156.65512084960938 C 53.10007095336914 121.02384185791016 64.43982696533203 134.25201416015625 62.19832992553711 113.19235229492188" stroke-width="3.0" fill="none" stroke="rgb(0, 0, 0)" stroke-opacity="1.0" stroke-linecap="round" stroke-linejoin="round"/>
    <path d="M 22.833646774291992 179.96336364746094 C 40.312740325927734 195.734375 46.5455207824707 185.6583709716797 56.697811126708984 191.93118286132812" stroke-width="3.0" fill="none" stroke="rgb(0, 0, 0)" stroke-opacity="1.0" stroke-linecap="round" stroke-linejoin="round"/>
    <path d="M 65.0429458618164 63.19681930541992 C 96.91320037841797 35.31608963012695 85.26539611816406 37.685237884521484 92.18208312988281 72.69538116455078" stroke-width="3.0" fill="none" stroke="rgb(0, 0, 0)" stroke-opacity="1.0" stroke-linecap="round" stroke-linejoin="round"/>
    <path d="M 78.4176025390625 70.1561508178711 C 67.31462860107422 94.24510955810547 64.38442993164062 57.29418182373047 76.30152130126953 70.78116607666016" stroke-width="3.0" fill="none" stroke="rgb(0, 0, 0)" stroke-opacity="1.0" stroke-linecap="round" stroke-linejoin="round"/>
    <path d="M 47.926544189453125 94.74903106689453 C 41.261314392089844 17.52060890197754 37.85789108276367 57.137046813964844 75.1566162109375 61.3554801940918" stroke-width="3.0" fill="none" stroke="rgb(0, 0, 0)" stroke-opacity="1.0" stroke-linecap="round" stroke-linejoin="round"/>
    <path d="M 104.21045684814453 194.4932861328125 C 44.687339782714844 202.16078186035156 40.35922622680664 176.49346923828125 47.25508499145508 146.52938842773438" stroke-width="3.0" fill="none" stroke="rgb(0, 0, 0)" stroke-opacity="1.0" stroke-linecap="round" stroke-linejoin="round"/>
    <path d="M 98.849853515625 176.85191345214844 C 106.99507904052734 163.59996032714844 101.91007995605469 160.933837890625 97.9561538696289 145.72340393066406" stroke-width="3.0" fill="none" stroke="rgb(0, 0, 0)" stroke-opacity="1.0" stroke-linecap="round" stroke-linejoin="round"/>
    <path d="M 127.52254486083984 172.4415740966797 C 205.17489624023438 171.73373413085938 201.28079223632812 172.85494995117188 198.33824157714844 184.5625" stroke-width="3.0" fill="none" stroke="rgb(0, 0, 0)" stroke-opacity="1.0" stroke-linecap="round" stroke-linejoin="round"/>
    <path d="M 47.696815490722656 188.8051300048828 C 71.75559997558594 197.79092407226562 57.137203216552734 191.573974609375 56.11580276489258 191.93467712402344" stroke-width="3.0" fill="none" stroke="rgb(0, 0, 0)" stroke-opacity="1.0" stroke-linecap="round" stroke-linejoin="round"/>
    <path d="M 44.70740509033203 168.40740966796875 C 43.848548889160156 144.99234008789062 41.3515739440918 138.0083770751953 59.18906021118164 124.00272369384766" stroke-width="3.0" fill="none" stroke="rgb(0, 0, 0)" stroke-opacity="1.0" stroke-linecap="round" stroke-linejoin="round"/>
    <path d="M 38.549129486083984 97.66133880615234 C 58.31066131591797 87.60527038574219 62.38862991333008 121.9901351928711 61.69028854370117 107.1968994140625" stroke-width="3.0" fill="none" stroke="rgb(0, 0, 0)" stroke-opacity="1.0" stroke-linecap="round" stroke-linejoin="round"/>
    <path d="M 45.4139289855957 181.93409729003906 C 22.86420440673828 169.83743286132812 32.09395980834961 162.7086639404297 29.84546661376953 165.6374969482422" stroke-width="3.0" fill="none" stroke="rgb(0, 0, 0)" stroke-opacity="1.0" stroke-linecap="round" stroke-linejoin="round"/>
    <path d="M 58.17302322387695 64.91217803955078 C 57.15581512451172 109.69722747802734 21.055126190185547 52.23662567138672 74.53690338134766 58.11415100097656" stroke-width="3.0" fill="none" stroke="rgb(0, 0, 0)" stroke-opacity="1.0" stroke-linecap="round" stroke-linejoin="round"/>
    <path d="M 58.22452926635742 139.6071319580078 C 79.23530578613281 126.07882690429688 104.66964721679688 149.75169372558594 101.38530731201172 160.29673767089844" stroke-width="3.0" fill="none" stroke="rgb(0, 0, 0)" stroke-opacity="1.0" stroke-linecap="round" stroke-linejoin="round"/>
    <path d="M 88.31805419921875 45.224830627441406 C 81.41400909423828 53.250030517578125 86.71342468261719 67.98490905761719 82.62071990966797 53.72429275512695" stroke-width="3.0" fill="none" stroke="rgb(0, 0, 0)" stroke-opacity="1.0" stroke-linecap="round" stroke-linejoin="round"/>
    <path d="M 48.7765998840332 188.9656524658203 C 36.86915588378906 187.84498596191406 47.78494644165039 190.853515625 48.08597946166992 189.329345703125" stroke-width="3.0" fill="none" stroke="rgb(0, 0, 0)" stroke-opacity="1.0" stroke-linecap="round" stroke-linejoin="round"/>
    <path d="M 122.7604751586914 122.17925262451172 C 125.76760864257812 113.64787292480469 128.31915283203125 77.93113708496094 83.73223876953125 71.64602661132812" stroke-width="3.0" fill="none" stroke="rgb(0, 0, 0)" stroke-opacity="1.0" stroke-linecap="round" stroke-linejoin="round"/>
    <path d="M 54.57923889160156 75.93579864501953 C 20.331012725830078 98.06493377685547 77.15026092529297 96.01220703125 52.615474700927734 134.76171875" stroke-width="3.0" fill="none" stroke="rgb(0, 0, 0)" stroke-opacity="1.0" stroke-linecap="round" stroke-linejoin="round"/>
    <path d="M 57.41413879394531 85.5833969116211 C 83.63740539550781 99.7184829711914 32.85489273071289 97.03294372558594 72.46471405029297 87.97089385986328" stroke-width="3.0" fill="none" stroke="rgb(0, 0, 0)" stroke-opacity="1.0" stroke-linecap="round" stroke-linejoin="round"/>
    <path d="M 31.020034790039062 166.95394897460938 C 19.74473762512207 155.4884033203125 4.896315574645996 182.71214294433594 46.96626663208008 190.33860778808594" stroke-width="3.0" fill="none" stroke="rgb(0, 0, 0)" stroke-opacity="1.0" stroke-linecap="round" stroke-linejoin="round"/>
  </g>
</svg>
