<?xml version="1.0" ?>
<svg xmlns="http://www.w3.org/2000/svg" version="1.1" width="224" height="224">
  <defs/>
  <g>
    <path d="M 98.88668060302734 143.65985107421875 C 89.95023345947266 132.5014190673828 98.12553405761719 142.30682373046875 90.11515045166016 122.85511779785156" stroke-width="3.0" fill="none" stroke="rgb(0, 0, 0)" stroke-opacity="1.0" stroke-linecap="round" stroke-linejoin="round"/>
    <path d="M 112.06204223632812 140.27780151367188 C 110.46897888183594 147.53370666503906 109.89031219482422 147.02365112304688 113.3848876953125 137.26492309570312" stroke-width="3.0" fill="none" stroke="rgb(0, 0, 0)" stroke-opacity="1.0" stroke-linecap="round" stroke-linejoin="round"/>
    <path d="M 44.31779479980469 152.4106903076172 C 46.68124008178711 138.71710205078125 45.12175369262695 145.4425811767578 45.41585922241211 151.0845184326172" stroke-width="3.0" fill="none" stroke="rgb(0, 0, 0)" stroke-opacity="1.0" stroke-linecap="round" stroke-linejoin="round"/>
    <path d="M 123.04161071777344 117.7572021484375 C 118.0997314453125 135.60113525390625 121.93667602539062 125.09111785888672 113.45281982421875 138.2620086669922" stroke-width="3.0" fill="none" stroke="rgb(0, 0, 0)" stroke-opacity="1.0" stroke-linecap="round" stroke-linejoin="round"/>
    <path d="M 69.43696594238281 114.7031478881836 C 53.89426803588867 103.58820343017578 66.65062713623047 103.03059387207031 64.57044219970703 110.33110046386719" stroke-width="3.0" fill="none" stroke="rgb(0, 0, 0)" stroke-opacity="1.0" stroke-linecap="round" stroke-linejoin="round"/>
    <path d="M 114.51114654541016 136.17684936523438 C 111.30517578125 143.77345275878906 110.17720794677734 148.43626403808594 111.66568756103516 142.82080078125" stroke-width="3.0" fill="none" stroke="rgb(0, 0, 0)" stroke-opacity="1.0" stroke-linecap="round" stroke-linejoin="round"/>
    <path d="M 67.55313873291016 115.30400848388672 C 63.14474868774414 115.37602996826172 61.248924255371094 97.64646911621094 66.68692779541016 114.06700897216797" stroke-width="3.0" fill="none" stroke="rgb(0, 0, 0)" stroke-opacity="1.0" stroke-linecap="round" stroke-linejoin="round"/>
    <path d="M 200.2825927734375 182.55215454101562 C 195.82192993164062 186.3975830078125 206.64926147460938 189.801513671875 132.75559997558594 187.2740478515625" stroke-width="3.0" fill="none" stroke="rgb(0, 0, 0)" stroke-opacity="1.0" stroke-linecap="round" stroke-linejoin="round"/>
    <path d="M 132.4064483642578 190.7316131591797 C 130.74496459960938 201.1790313720703 124.38732147216797 190.12815856933594 78.61687469482422 195.2312774658203" stroke-width="3.0" fill="none" stroke="rgb(0, 0, 0)" stroke-opacity="1.0" stroke-linecap="round" stroke-linejoin="round"/>
    <path d="M 38.400726318359375 83.89678192138672 C 60.16191864013672 109.99286651611328 83.55839538574219 116.33126068115234 65.6616439819336 113.46858978271484" stroke-width="3.0" fill="none" stroke="rgb(0, 0, 0)" stroke-opacity="1.0" stroke-linecap="round" stroke-linejoin="round"/>
    <path d="M 106.03453063964844 178.69264221191406 C 136.0012664794922 180.84190368652344 130.7549591064453 174.03472900390625 130.6493682861328 179.81471252441406" stroke-width="3.0" fill="none" stroke="rgb(0, 0, 0)" stroke-opacity="1.0" stroke-linecap="round" stroke-linejoin="round"/>
    <path d="M 126.94987487792969 179.1554718017578 C 119.80484771728516 157.43374633789062 143.13134765625 144.08389282226562 121.16227722167969 96.55387878417969" stroke-width="3.0" fill="none" stroke="rgb(0, 0, 0)" stroke-opacity="1.0" stroke-linecap="round" stroke-linejoin="round"/>
    <path d="M 43.860572814941406 153.2963409423828 C 50.38872528076172 123.02220153808594 56.59474182128906 134.05458068847656 58.28303527832031 119.8891372680664" stroke-width="3.0" fill="none" stroke="rgb(0, 0, 0)" stroke-opacity="1.0" stroke-linecap="round" stroke-linejoin="round"/>
    <path d="M 26.643415451049805 182.2206573486328 C 43.947391510009766 193.8418731689453 48.10354995727539 188.1753692626953 58.49953842163086 191.30227661132812" stroke-width="3.0" fill="none" stroke="rgb(0, 0, 0)" stroke-opacity="1.0" stroke-linecap="round" stroke-linejoin="round"/>
    <path d="M 64.40476989746094 64.06846618652344 C 98.20722961425781 35.28839874267578 87.59866333007812 34.672489166259766 91.54556274414062 70.00042724609375" stroke-width="3.0" fill="none" stroke="rgb(0, 0, 0)" stroke-opacity="1.0" stroke-linecap="round" stroke-linejoin="round"/>
    <path d="M 82.84264373779297 72.860595703125 C 71.55072021484375 93.09901428222656 66.52719116210938 59.718143463134766 81.7420425415039 74.93806457519531" stroke-width="3.0" fill="none" stroke="rgb(0, 0, 0)" stroke-opacity="1.0" stroke-linecap="round" stroke-linejoin="round"/>
    <path d="M 43.730621337890625 84.34852600097656 C 45.97805404663086 29.856718063354492 32.55525207519531 51.199161529541016 72.1475830078125 61.718177795410156" stroke-width="3.0" fill="none" stroke="rgb(0, 0, 0)" stroke-opacity="1.0" stroke-linecap="round" stroke-linejoin="round"/>
    <path d="M 105.9665298461914 193.84866333007812 C 42.976253509521484 201.97962951660156 38.49645233154297 177.64051818847656 47.61141586303711 140.5302734375" stroke-width="3.0" fill="none" stroke="rgb(0, 0, 0)" stroke-opacity="1.0" stroke-linecap="round" stroke-linejoin="round"/>
    <path d="M 101.48796844482422 176.1389923095703 C 104.77894592285156 167.027587890625 105.666748046875 156.75521850585938 98.00181579589844 141.13075256347656" stroke-width="3.0" fill="none" stroke="rgb(0, 0, 0)" stroke-opacity="1.0" stroke-linecap="round" stroke-linejoin="round"/>
    <path d="M 129.0735321044922 171.72779846191406 C 201.3749237060547 175.21041870117188 202.41400146484375 172.34579467773438 199.857177734375 182.6280975341797" stroke-width="3.0" fill="none" stroke="rgb(0, 0, 0)" stroke-opacity="1.0" stroke-linecap="round" stroke-linejoin="round"/>
    <path d="M 58.915611267089844 192.209228515625 C 68.62879180908203 195.04489135742188 56.3270149230957 192.00946044921875 54.22946548461914 187.40650939941406" stroke-width="3.0" fill="none" stroke="rgb(0, 0, 0)" stroke-opacity="1.0" stroke-linecap="round" stroke-linejoin="round"/>
    <path d="M 42.750953674316406 162.0596923828125 C 42.1009635925293 147.84744262695312 39.747005462646484 139.91732788085938 58.34879684448242 119.92159271240234" stroke-width="3.0" fill="none" stroke="rgb(0, 0, 0)" stroke-opacity="1.0" stroke-linecap="round" stroke-linejoin="round"/>
    <path d="M 52.6004524230957 98.20983123779297 C 69.68582153320312 102.95658111572266 65.46519470214844 122.6432113647461 61.67066192626953 108.6341781616211" stroke-width="3.0" fill="none" stroke="rgb(0, 0, 0)" stroke-opacity="1.0" stroke-linecap="round" stroke-linejoin="round"/>
    <path d="M 44.79463577270508 179.22994995117188 C 24.968456268310547 170.30433654785156 32.86342239379883 162.24440002441406 31.02403450012207 166.59263610839844" stroke-width="3.0" fill="none" stroke="rgb(0, 0, 0)" stroke-opacity="1.0" stroke-linecap="round" stroke-linejoin="round"/>
    <path d="M 59.03242492675781 71.634765625 C 51.332401275634766 104.18304443359375 24.794918060302734 53.64388656616211 70.40251922607422 55.64113235473633" stroke-width="3.0" fill="none" stroke="rgb(0, 0, 0)" stroke-opacity="1.0" stroke-linecap="round" stroke-linejoin="round"/>
    <path d="M 62.627288818359375 126.97113800048828 C 82.85838317871094 129.26429748535156 96.88174438476562 147.6782989501953 99.64746856689453 148.79730224609375" stroke-width="3.0" fill="none" stroke="rgb(0, 0, 0)" stroke-opacity="1.0" stroke-linecap="round" stroke-linejoin="round"/>
    <path d="M 89.44123077392578 47.42367172241211 C 81.7365951538086 54.00914001464844 95.04234313964844 63.46977996826172 88.12459564208984 51.732269287109375" stroke-width="3.0" fill="none" stroke="rgb(0, 0, 0)" stroke-opacity="1.0" stroke-linecap="round" stroke-linejoin="round"/>
    <path d="M 46.983890533447266 189.96791076660156 C 32.22123718261719 187.75633239746094 40.164588928222656 187.80364990234375 44.35174560546875 189.83583068847656" stroke-width="3.0" fill="none" stroke="rgb(0, 0, 0)" stroke-opacity="1.0" stroke-linecap="round" stroke-linejoin="round"/>
    <path d="M 123.08442687988281 118.80514526367188 C 127.8050308227539 112.06765747070312 127.46736907958984 82.68030548095703 90.31790161132812 74.31556701660156" stroke-width="3.0" fill="none" stroke="rgb(0, 0, 0)" stroke-opacity="1.0" stroke-linecap="round" stroke-linejoin="round"/>
    <path d="M 50.947818756103516 81.47498321533203 C 18.23047637939453 93.73412322998047 70.5201187133789 88.0078353881836 55.49617385864258 126.3767318725586" stroke-width="3.0" fill="none" stroke="rgb(0, 0, 0)" stroke-opacity="1.0" stroke-linecap="round" stroke-linejoin="round"/>
    <path d="M 57.8052978515625 84.44850158691406 C 81.54087829589844 90.0801010131836 46.121788024902344 96.44975280761719 69.8364486694336 82.96663665771484" stroke-width="3.0" fill="none" stroke="rgb(0, 0, 0)" stroke-opacity="1.0" stroke-linecap="round" stroke-linejoin="round"/>
    <path d="M 32.07239532470703 166.56967163085938 C 17.263164520263672 152.42929077148438 5.009984016418457 180.413818359375 43.765586853027344 189.21566772460938" stroke-width="3.0" fill="none" stroke="rgb(0, 0, 0)" stroke-opacity="1.0" stroke-linecap="round" stroke-linejoin="round"/>
  </g>
</svg>
