<?xml version="1.0" ?>
<svg xmlns="http://www.w3.org/2000/svg" version="1.1" width="224" height="224">
  <defs/>
  <g>
    <path d="M 99.42379760742188 162.080810546875 C 103.31934356689453 133.6039276123047 100.9398193359375 148.88418579101562 93.7275619506836 126.89424133300781" stroke-width="3.0" fill="none" stroke="rgb(0, 0, 0)" stroke-opacity="1.0" stroke-linecap="round" stroke-linejoin="round"/>
    <path d="M 118.92848205566406 137.5218505859375 C 118.82357788085938 139.5868377685547 117.01107788085938 141.82342529296875 119.0972671508789 137.22337341308594" stroke-width="3.0" fill="none" stroke="rgb(0, 0, 0)" stroke-opacity="1.0" stroke-linecap="round" stroke-linejoin="round"/>
    <path d="M 43.088050842285156 160.90219116210938 C 49.00345993041992 142.87542724609375 48.0675048828125 141.56748962402344 42.95208740234375 152.79464721679688" stroke-width="3.0" fill="none" stroke="rgb(0, 0, 0)" stroke-opacity="1.0" stroke-linecap="round" stroke-linejoin="round"/>
    <path d="M 126.30447387695312 118.77239990234375 C 122.9372329711914 133.7174530029297 122.33100128173828 129.70828247070312 118.97450256347656 136.26454162597656" stroke-width="3.0" fill="none" stroke="rgb(0, 0, 0)" stroke-opacity="1.0" stroke-linecap="round" stroke-linejoin="round"/>
    <path d="M 62.664306640625 110.73160552978516 C 55.46610641479492 103.87653350830078 70.16682434082031 100.09333038330078 65.38155364990234 106.9163589477539" stroke-width="3.0" fill="none" stroke="rgb(0, 0, 0)" stroke-opacity="1.0" stroke-linecap="round" stroke-linejoin="round"/>
    <path d="M 124.31422424316406 127.63140869140625 C 118.59062194824219 141.94384765625 116.67523193359375 139.77590942382812 120.90062713623047 136.6722869873047" stroke-width="3.0" fill="none" stroke="rgb(0, 0, 0)" stroke-opacity="1.0" stroke-linecap="round" stroke-linejoin="round"/>
    <path d="M 62.945472717285156 106.63825225830078 C 60.90779113769531 109.79035186767578 54.51547622680664 93.67828369140625 62.96033477783203 104.8574447631836" stroke-width="3.0" fill="none" stroke="rgb(0, 0, 0)" stroke-opacity="1.0" stroke-linecap="round" stroke-linejoin="round"/>
    <path d="M 197.75210571289062 182.0962371826172 C 197.6029815673828 185.7938232421875 203.6813507080078 190.50779724121094 134.6203155517578 185.92262268066406" stroke-width="3.0" fill="none" stroke="rgb(0, 0, 0)" stroke-opacity="1.0" stroke-linecap="round" stroke-linejoin="round"/>
    <path d="M 131.21405029296875 189.9595184326172 C 127.81147003173828 199.7241973876953 133.6992950439453 190.54608154296875 69.65949249267578 195.37411499023438" stroke-width="3.0" fill="none" stroke="rgb(0, 0, 0)" stroke-opacity="1.0" stroke-linecap="round" stroke-linejoin="round"/>
    <path d="M 35.531768798828125 88.06858825683594 C 68.390869140625 96.21105194091797 69.04936218261719 107.27317810058594 60.12809753417969 115.44923400878906" stroke-width="3.0" fill="none" stroke="rgb(0, 0, 0)" stroke-opacity="1.0" stroke-linecap="round" stroke-linejoin="round"/>
    <path d="M 104.86795043945312 176.97373962402344 C 141.5443115234375 179.58566284179688 125.73297119140625 173.77239990234375 131.71128845214844 179.61795043945312" stroke-width="3.0" fill="none" stroke="rgb(0, 0, 0)" stroke-opacity="1.0" stroke-linecap="round" stroke-linejoin="round"/>
    <path d="M 125.82349395751953 180.0167694091797 C 119.06490325927734 146.9480438232422 141.3608856201172 158.10191345214844 123.87019348144531 99.83849334716797" stroke-width="3.0" fill="none" stroke="rgb(0, 0, 0)" stroke-opacity="1.0" stroke-linecap="round" stroke-linejoin="round"/>
    <path d="M 45.72160339355469 150.50552368164062 C 51.088897705078125 118.80183410644531 59.537506103515625 136.9088592529297 58.7894172668457 106.68386840820312" stroke-width="3.0" fill="none" stroke="rgb(0, 0, 0)" stroke-opacity="1.0" stroke-linecap="round" stroke-linejoin="round"/>
    <path d="M 21.343263626098633 178.24839782714844 C 40.443199157714844 194.429443359375 46.638038635253906 186.48736572265625 56.20722579956055 192.13681030273438" stroke-width="3.0" fill="none" stroke="rgb(0, 0, 0)" stroke-opacity="1.0" stroke-linecap="round" stroke-linejoin="round"/>
    <path d="M 64.7265396118164 63.3544807434082 C 99.09102630615234 34.85731506347656 86.09339141845703 39.36475372314453 91.14857482910156 73.02519989013672" stroke-width="3.0" fill="none" stroke="rgb(0, 0, 0)" stroke-opacity="1.0" stroke-linecap="round" stroke-linejoin="round"/>
    <path d="M 78.41706085205078 71.33570098876953 C 75.6864242553711 96.64237976074219 57.85441589355469 69.18478393554688 75.79898834228516 71.16680145263672" stroke-width="3.0" fill="none" stroke="rgb(0, 0, 0)" stroke-opacity="1.0" stroke-linecap="round" stroke-linejoin="round"/>
    <path d="M 47.2509880065918 96.39949798583984 C 40.25962448120117 17.16870880126953 37.671852111816406 62.7202262878418 76.00762939453125 61.951438903808594" stroke-width="3.0" fill="none" stroke="rgb(0, 0, 0)" stroke-opacity="1.0" stroke-linecap="round" stroke-linejoin="round"/>
    <path d="M 103.8871078491211 193.8906707763672 C 45.134090423583984 205.27847290039062 42.51008605957031 178.25628662109375 42.382659912109375 154.1749725341797" stroke-width="3.0" fill="none" stroke="rgb(0, 0, 0)" stroke-opacity="1.0" stroke-linecap="round" stroke-linejoin="round"/>
    <path d="M 98.80188751220703 177.0229034423828 C 107.79542541503906 160.7818145751953 97.96943664550781 170.9250030517578 101.1102066040039 144.3325653076172" stroke-width="3.0" fill="none" stroke="rgb(0, 0, 0)" stroke-opacity="1.0" stroke-linecap="round" stroke-linejoin="round"/>
    <path d="M 128.63449096679688 173.86683654785156 C 203.3295135498047 174.58876037597656 201.72073364257812 173.36163330078125 201.0128173828125 181.7265625" stroke-width="3.0" fill="none" stroke="rgb(0, 0, 0)" stroke-opacity="1.0" stroke-linecap="round" stroke-linejoin="round"/>
    <path d="M 53.38471984863281 190.71847534179688 C 73.10069274902344 196.86270141601562 53.27702331542969 193.6918487548828 52.12133026123047 188.8848114013672" stroke-width="3.0" fill="none" stroke="rgb(0, 0, 0)" stroke-opacity="1.0" stroke-linecap="round" stroke-linejoin="round"/>
    <path d="M 43.436004638671875 167.9972381591797 C 42.369972229003906 150.80007934570312 43.67365646362305 136.9784698486328 57.84029769897461 119.93193817138672" stroke-width="3.0" fill="none" stroke="rgb(0, 0, 0)" stroke-opacity="1.0" stroke-linecap="round" stroke-linejoin="round"/>
    <path d="M 34.883331298828125 93.87911224365234 C 57.86116027832031 81.61860656738281 67.90418243408203 120.93543243408203 63.04682922363281 103.87691497802734" stroke-width="3.0" fill="none" stroke="rgb(0, 0, 0)" stroke-opacity="1.0" stroke-linecap="round" stroke-linejoin="round"/>
    <path d="M 45.39268493652344 180.71762084960938 C 23.730682373046875 172.61468505859375 35.048316955566406 164.14468383789062 31.955135345458984 166.6000213623047" stroke-width="3.0" fill="none" stroke="rgb(0, 0, 0)" stroke-opacity="1.0" stroke-linecap="round" stroke-linejoin="round"/>
    <path d="M 58.71538543701172 65.73932647705078 C 55.46465301513672 112.63591766357422 20.08405113220215 52.52836608886719 73.80316162109375 58.524417877197266" stroke-width="3.0" fill="none" stroke="rgb(0, 0, 0)" stroke-opacity="1.0" stroke-linecap="round" stroke-linejoin="round"/>
    <path d="M 49.543235778808594 140.2208709716797 C 77.06809997558594 112.73949432373047 101.68347930908203 147.36138916015625 99.5355453491211 159.50271606445312" stroke-width="3.0" fill="none" stroke="rgb(0, 0, 0)" stroke-opacity="1.0" stroke-linecap="round" stroke-linejoin="round"/>
    <path d="M 88.7688217163086 49.74483871459961 C 84.30207061767578 61.4286994934082 83.5010986328125 64.72067260742188 86.42291259765625 56.73139190673828" stroke-width="3.0" fill="none" stroke="rgb(0, 0, 0)" stroke-opacity="1.0" stroke-linecap="round" stroke-linejoin="round"/>
    <path d="M 51.41139221191406 188.97796630859375 C 37.88298797607422 187.8306427001953 49.1201286315918 190.28720092773438 48.17919158935547 188.53213500976562" stroke-width="3.0" fill="none" stroke="rgb(0, 0, 0)" stroke-opacity="1.0" stroke-linecap="round" stroke-linejoin="round"/>
    <path d="M 125.47570037841797 123.44966125488281 C 128.56503295898438 116.590087890625 127.57610321044922 76.7346420288086 83.0849380493164 70.13761901855469" stroke-width="3.0" fill="none" stroke="rgb(0, 0, 0)" stroke-opacity="1.0" stroke-linecap="round" stroke-linejoin="round"/>
    <path d="M 57.73716354370117 76.74529266357422 C 16.258031845092773 81.03648376464844 80.33726501464844 96.62641143798828 51.731170654296875 129.08941650390625" stroke-width="3.0" fill="none" stroke="rgb(0, 0, 0)" stroke-opacity="1.0" stroke-linecap="round" stroke-linejoin="round"/>
    <path d="M 60.42667770385742 87.39493560791016 C 82.0963363647461 89.65621948242188 34.75543975830078 98.93500518798828 75.09235382080078 88.45367431640625" stroke-width="3.0" fill="none" stroke="rgb(0, 0, 0)" stroke-opacity="1.0" stroke-linecap="round" stroke-linejoin="round"/>
    <path d="M 32.2126579284668 165.2602081298828 C 17.863771438598633 154.23114013671875 3.5121521949768066 184.06471252441406 50.11331558227539 189.63038635253906" stroke-width="3.0" fill="none" stroke="rgb(0, 0, 0)" stroke-opacity="1.0" stroke-linecap="round" stroke-linejoin="round"/>
  </g>
</svg>
