<?xml version="1.0" ?>
<svg xmlns="http://www.w3.org/2000/svg" version="1.1" width="224" height="224">
  <defs/>
  <g>
    <path d="M 104.72962188720703 157.55160522460938 C 107.01469421386719 149.95962524414062 103.1715087890625 156.16004943847656 91.62274932861328 124.45014190673828" stroke-width="3.0" fill="none" stroke="rgb(0, 0, 0)" stroke-opacity="1.0" stroke-linecap="round" stroke-linejoin="round"/>
    <path d="M 129.68406677246094 137.44810485839844 C 126.63552856445312 131.76002502441406 129.07066345214844 130.8751220703125 129.36961364746094 133.64678955078125" stroke-width="3.0" fill="none" stroke="rgb(0, 0, 0)" stroke-opacity="1.0" stroke-linecap="round" stroke-linejoin="round"/>
    <path d="M 45.856327056884766 160.6250457763672 C 44.842926025390625 136.79640197753906 49.97597122192383 141.621337890625 44.483848571777344 156.376953125" stroke-width="3.0" fill="none" stroke="rgb(0, 0, 0)" stroke-opacity="1.0" stroke-linecap="round" stroke-linejoin="round"/>
    <path d="M 127.52136993408203 117.4228515625 C 124.12074279785156 134.57861328125 129.15380859375 133.71701049804688 129.31361389160156 132.9153594970703" stroke-width="3.0" fill="none" stroke="rgb(0, 0, 0)" stroke-opacity="1.0" stroke-linecap="round" stroke-linejoin="round"/>
    <path d="M 60.104488372802734 118.52556610107422 C 64.09200286865234 108.96046447753906 65.1895751953125 100.25770568847656 62.08561706542969 111.18025970458984" stroke-width="3.0" fill="none" stroke="rgb(0, 0, 0)" stroke-opacity="1.0" stroke-linecap="round" stroke-linejoin="round"/>
    <path d="M 127.04679870605469 123.90196228027344 C 131.59307861328125 140.7117919921875 124.87541961669922 126.13097381591797 129.13436889648438 120.86195373535156" stroke-width="3.0" fill="none" stroke="rgb(0, 0, 0)" stroke-opacity="1.0" stroke-linecap="round" stroke-linejoin="round"/>
    <path d="M 60.7606201171875 113.58539581298828 C 63.21807861328125 109.97245788574219 48.410797119140625 92.25546264648438 69.05917358398438 105.4099349975586" stroke-width="3.0" fill="none" stroke="rgb(0, 0, 0)" stroke-opacity="1.0" stroke-linecap="round" stroke-linejoin="round"/>
    <path d="M 202.24574279785156 183.00115966796875 C 198.57818603515625 184.65371704101562 204.08309936523438 188.03933715820312 133.00286865234375 185.08909606933594" stroke-width="3.0" fill="none" stroke="rgb(0, 0, 0)" stroke-opacity="1.0" stroke-linecap="round" stroke-linejoin="round"/>
    <path d="M 130.78257751464844 190.1648406982422 C 130.42637634277344 200.36724853515625 130.56190490722656 193.83010864257812 76.08354949951172 195.488525390625" stroke-width="3.0" fill="none" stroke="rgb(0, 0, 0)" stroke-opacity="1.0" stroke-linecap="round" stroke-linejoin="round"/>
    <path d="M 33.33903121948242 88.26219177246094 C 66.61749267578125 93.13621520996094 71.53015899658203 110.88131713867188 61.10173797607422 120.7007064819336" stroke-width="3.0" fill="none" stroke="rgb(0, 0, 0)" stroke-opacity="1.0" stroke-linecap="round" stroke-linejoin="round"/>
    <path d="M 111.77159881591797 178.36253356933594 C 141.93801879882812 179.9356689453125 122.84772491455078 175.7628173828125 126.51980590820312 175.5599365234375" stroke-width="3.0" fill="none" stroke="rgb(0, 0, 0)" stroke-opacity="1.0" stroke-linecap="round" stroke-linejoin="round"/>
    <path d="M 129.14047241210938 181.57595825195312 C 120.85771942138672 139.55039978027344 140.74034118652344 169.92141723632812 125.652099609375 105.37799072265625" stroke-width="3.0" fill="none" stroke="rgb(0, 0, 0)" stroke-opacity="1.0" stroke-linecap="round" stroke-linejoin="round"/>
    <path d="M 46.66550064086914 152.36903381347656 C 50.629249572753906 122.3251724243164 60.588600158691406 136.7955322265625 67.94723510742188 105.48229217529297" stroke-width="3.0" fill="none" stroke="rgb(0, 0, 0)" stroke-opacity="1.0" stroke-linecap="round" stroke-linejoin="round"/>
    <path d="M 20.525299072265625 175.45526123046875 C 38.115657806396484 193.37551879882812 51.38652420043945 187.22311401367188 55.80248260498047 190.54354858398438" stroke-width="3.0" fill="none" stroke="rgb(0, 0, 0)" stroke-opacity="1.0" stroke-linecap="round" stroke-linejoin="round"/>
    <path d="M 60.61249542236328 64.80458068847656 C 100.71839141845703 36.58057403564453 89.36064147949219 34.16801452636719 90.00198364257812 71.47613525390625" stroke-width="3.0" fill="none" stroke="rgb(0, 0, 0)" stroke-opacity="1.0" stroke-linecap="round" stroke-linejoin="round"/>
    <path d="M 84.67154693603516 72.82487487792969 C 77.47358703613281 94.30510711669922 56.944698333740234 66.02716064453125 75.35089111328125 77.57952880859375" stroke-width="3.0" fill="none" stroke="rgb(0, 0, 0)" stroke-opacity="1.0" stroke-linecap="round" stroke-linejoin="round"/>
    <path d="M 50.160972595214844 102.50057983398438 C 39.331939697265625 9.642931938171387 35.034324645996094 66.26273345947266 80.96534729003906 63.37603759765625" stroke-width="3.0" fill="none" stroke="rgb(0, 0, 0)" stroke-opacity="1.0" stroke-linecap="round" stroke-linejoin="round"/>
    <path d="M 106.76544189453125 195.54034423828125 C 43.07392120361328 201.42665100097656 42.284854888916016 180.2320556640625 47.72899627685547 156.6463165283203" stroke-width="3.0" fill="none" stroke="rgb(0, 0, 0)" stroke-opacity="1.0" stroke-linecap="round" stroke-linejoin="round"/>
    <path d="M 105.81259155273438 177.2212371826172 C 107.95829772949219 162.6166229248047 104.33779907226562 175.58584594726562 105.82499694824219 141.60960388183594" stroke-width="3.0" fill="none" stroke="rgb(0, 0, 0)" stroke-opacity="1.0" stroke-linecap="round" stroke-linejoin="round"/>
    <path d="M 127.09385681152344 174.0684356689453 C 207.48536682128906 172.13070678710938 200.15164184570312 169.58749389648438 202.90216064453125 181.28221130371094" stroke-width="3.0" fill="none" stroke="rgb(0, 0, 0)" stroke-opacity="1.0" stroke-linecap="round" stroke-linejoin="round"/>
    <path d="M 54.104393005371094 189.65005493164062 C 70.85323333740234 197.20021057128906 53.93587875366211 189.9661102294922 54.369022369384766 190.01400756835938" stroke-width="3.0" fill="none" stroke="rgb(0, 0, 0)" stroke-opacity="1.0" stroke-linecap="round" stroke-linejoin="round"/>
    <path d="M 43.88009262084961 174.2568817138672 C 39.49638366699219 152.74952697753906 44.84443283081055 134.25222778320312 61.70752716064453 120.47245788574219" stroke-width="3.0" fill="none" stroke="rgb(0, 0, 0)" stroke-opacity="1.0" stroke-linecap="round" stroke-linejoin="round"/>
    <path d="M 43.19425582885742 95.60912322998047 C 61.21412658691406 83.21057891845703 61.7693977355957 122.81159210205078 62.38596725463867 103.7845458984375" stroke-width="3.0" fill="none" stroke="rgb(0, 0, 0)" stroke-opacity="1.0" stroke-linecap="round" stroke-linejoin="round"/>
    <path d="M 47.53435516357422 179.09703063964844 C 22.13201332092285 170.44241333007812 33.139869689941406 165.43113708496094 30.244949340820312 166.6443328857422" stroke-width="3.0" fill="none" stroke="rgb(0, 0, 0)" stroke-opacity="1.0" stroke-linecap="round" stroke-linejoin="round"/>
    <path d="M 59.55247116088867 61.47281265258789 C 56.368499755859375 109.96585083007812 21.597803115844727 52.69710922241211 77.74668884277344 60.29328536987305" stroke-width="3.0" fill="none" stroke="rgb(0, 0, 0)" stroke-opacity="1.0" stroke-linecap="round" stroke-linejoin="round"/>
    <path d="M 50.00320816040039 154.95188903808594 C 66.2965087890625 116.67522430419922 102.31149291992188 144.63632202148438 102.0147933959961 157.68251037597656" stroke-width="3.0" fill="none" stroke="rgb(0, 0, 0)" stroke-opacity="1.0" stroke-linecap="round" stroke-linejoin="round"/>
    <path d="M 89.1971206665039 58.68755340576172 C 71.24010467529297 62.122406005859375 70.33685302734375 59.577945709228516 88.17212677001953 47.10795593261719" stroke-width="3.0" fill="none" stroke="rgb(0, 0, 0)" stroke-opacity="1.0" stroke-linecap="round" stroke-linejoin="round"/>
    <path d="M 53.493526458740234 189.81707763671875 C 42.43630599975586 187.35716247558594 50.067604064941406 189.54888916015625 44.80678176879883 188.62034606933594" stroke-width="3.0" fill="none" stroke="rgb(0, 0, 0)" stroke-opacity="1.0" stroke-linecap="round" stroke-linejoin="round"/>
    <path d="M 129.75018310546875 133.23573303222656 C 132.2781524658203 120.586181640625 124.24567413330078 65.57429504394531 69.9089584350586 73.20523834228516" stroke-width="3.0" fill="none" stroke="rgb(0, 0, 0)" stroke-opacity="1.0" stroke-linecap="round" stroke-linejoin="round"/>
    <path d="M 60.103519439697266 78.59354400634766 C 10.553604125976562 65.73686218261719 79.20240020751953 108.90264129638672 52.988868713378906 133.14944458007812" stroke-width="3.0" fill="none" stroke="rgb(0, 0, 0)" stroke-opacity="1.0" stroke-linecap="round" stroke-linejoin="round"/>
    <path d="M 55.15426254272461 85.27567291259766 C 86.4856948852539 88.70594787597656 34.09881591796875 99.75261688232422 79.3673324584961 84.6081314086914" stroke-width="3.0" fill="none" stroke="rgb(0, 0, 0)" stroke-opacity="1.0" stroke-linecap="round" stroke-linejoin="round"/>
    <path d="M 30.887012481689453 166.03228759765625 C 15.475863456726074 151.09861755371094 5.717623233795166 183.2981414794922 46.653724670410156 189.93231201171875" stroke-width="3.0" fill="none" stroke="rgb(0, 0, 0)" stroke-opacity="1.0" stroke-linecap="round" stroke-linejoin="round"/>
  </g>
</svg>
