<?xml version="1.0" ?>
<svg xmlns="http://www.w3.org/2000/svg" version="1.1" width="224" height="224">
  <defs/>
  <g>
    <path d="M 103.93346405029297 160.3242950439453 C 105.77963256835938 134.36671447753906 100.5078125 151.8688507080078 93.5409927368164 125.6351318359375" stroke-width="3.0" fill="none" stroke="rgb(0, 0, 0)" stroke-opacity="1.0" stroke-linecap="round" stroke-linejoin="round"/>
    <path d="M 119.96112060546875 138.48341369628906 C 119.50965881347656 139.28012084960938 118.98944091796875 142.6451416015625 120.18907165527344 137.67079162597656" stroke-width="3.0" fill="none" stroke="rgb(0, 0, 0)" stroke-opacity="1.0" stroke-linecap="round" stroke-linejoin="round"/>
    <path d="M 42.67853546142578 161.11878967285156 C 49.88776397705078 143.3068084716797 47.42094039916992 140.91824340820312 43.733604431152344 153.46864318847656" stroke-width="3.0" fill="none" stroke="rgb(0, 0, 0)" stroke-opacity="1.0" stroke-linecap="round" stroke-linejoin="round"/>
    <path d="M 128.5916290283203 119.72932434082031 C 123.52867126464844 134.7860565185547 122.88272857666016 130.8639373779297 119.58909606933594 137.5901641845703" stroke-width="3.0" fill="none" stroke="rgb(0, 0, 0)" stroke-opacity="1.0" stroke-linecap="round" stroke-linejoin="round"/>
    <path d="M 63.206722259521484 110.08917236328125 C 57.13931655883789 103.2756576538086 69.58959197998047 99.1796875 63.3885612487793 106.89398956298828" stroke-width="3.0" fill="none" stroke="rgb(0, 0, 0)" stroke-opacity="1.0" stroke-linecap="round" stroke-linejoin="round"/>
    <path d="M 124.87720489501953 127.35909271240234 C 119.24828338623047 142.28416442871094 117.827880859375 140.8495330810547 119.9119873046875 136.0219268798828" stroke-width="3.0" fill="none" stroke="rgb(0, 0, 0)" stroke-opacity="1.0" stroke-linecap="round" stroke-linejoin="round"/>
    <path d="M 62.896427154541016 107.17804718017578 C 60.30376434326172 110.49531555175781 53.50001907348633 93.32787322998047 62.799007415771484 104.65890502929688" stroke-width="3.0" fill="none" stroke="rgb(0, 0, 0)" stroke-opacity="1.0" stroke-linecap="round" stroke-linejoin="round"/>
    <path d="M 201.59182739257812 181.58253479003906 C 198.32041931152344 183.74302673339844 201.8008270263672 189.3722381591797 132.78123474121094 185.9625244140625" stroke-width="3.0" fill="none" stroke="rgb(0, 0, 0)" stroke-opacity="1.0" stroke-linecap="round" stroke-linejoin="round"/>
    <path d="M 131.5523223876953 190.9371337890625 C 126.34262084960938 198.13714599609375 132.03724670410156 188.7802276611328 69.87651062011719 195.80096435546875" stroke-width="3.0" fill="none" stroke="rgb(0, 0, 0)" stroke-opacity="1.0" stroke-linecap="round" stroke-linejoin="round"/>
    <path d="M 34.23490524291992 86.92085266113281 C 68.47073364257812 94.95793914794922 67.4684066772461 106.9322509765625 59.71614456176758 114.76364135742188" stroke-width="3.0" fill="none" stroke="rgb(0, 0, 0)" stroke-opacity="1.0" stroke-linecap="round" stroke-linejoin="round"/>
    <path d="M 105.33055877685547 177.19296264648438 C 142.27874755859375 179.0322723388672 126.06306457519531 174.13597106933594 130.69578552246094 179.55227661132812" stroke-width="3.0" fill="none" stroke="rgb(0, 0, 0)" stroke-opacity="1.0" stroke-linecap="round" stroke-linejoin="round"/>
    <path d="M 127.88329315185547 175.36961364746094 C 120.956787109375 149.0851593017578 141.31890869140625 161.30694580078125 123.01744842529297 101.34390258789062" stroke-width="3.0" fill="none" stroke="rgb(0, 0, 0)" stroke-opacity="1.0" stroke-linecap="round" stroke-linejoin="round"/>
    <path d="M 46.654335021972656 149.8883514404297 C 51.39591979980469 119.38204193115234 60.618247985839844 138.32586669921875 60.77402114868164 105.28120422363281" stroke-width="3.0" fill="none" stroke="rgb(0, 0, 0)" stroke-opacity="1.0" stroke-linecap="round" stroke-linejoin="round"/>
    <path d="M 22.162029266357422 177.54653930664062 C 39.30434799194336 194.10923767089844 47.857093811035156 186.24185180664062 55.934391021728516 192.43145751953125" stroke-width="3.0" fill="none" stroke="rgb(0, 0, 0)" stroke-opacity="1.0" stroke-linecap="round" stroke-linejoin="round"/>
    <path d="M 64.83358764648438 62.549659729003906 C 99.9599838256836 34.6495246887207 87.3328857421875 39.61705780029297 90.9937515258789 70.17200469970703" stroke-width="3.0" fill="none" stroke="rgb(0, 0, 0)" stroke-opacity="1.0" stroke-linecap="round" stroke-linejoin="round"/>
    <path d="M 78.41181945800781 73.2586441040039 C 75.87447357177734 96.69102478027344 56.4236946105957 69.42666625976562 76.75254821777344 72.70402526855469" stroke-width="3.0" fill="none" stroke="rgb(0, 0, 0)" stroke-opacity="1.0" stroke-linecap="round" stroke-linejoin="round"/>
    <path d="M 47.60255813598633 95.22541809082031 C 39.24209976196289 16.01103401184082 37.788299560546875 62.867462158203125 76.36544036865234 61.81333541870117" stroke-width="3.0" fill="none" stroke="rgb(0, 0, 0)" stroke-opacity="1.0" stroke-linecap="round" stroke-linejoin="round"/>
    <path d="M 105.37318420410156 194.4490203857422 C 44.18083572387695 204.61563110351562 40.01304626464844 178.32656860351562 44.159523010253906 155.1820831298828" stroke-width="3.0" fill="none" stroke="rgb(0, 0, 0)" stroke-opacity="1.0" stroke-linecap="round" stroke-linejoin="round"/>
    <path d="M 100.23817443847656 177.04441833496094 C 109.3260726928711 163.49375915527344 102.08114624023438 171.71424865722656 103.78196716308594 144.89431762695312" stroke-width="3.0" fill="none" stroke="rgb(0, 0, 0)" stroke-opacity="1.0" stroke-linecap="round" stroke-linejoin="round"/>
    <path d="M 129.34909057617188 173.83941650390625 C 203.24615478515625 174.02928161621094 198.84555053710938 172.62159729003906 198.85739135742188 182.93743896484375" stroke-width="3.0" fill="none" stroke="rgb(0, 0, 0)" stroke-opacity="1.0" stroke-linecap="round" stroke-linejoin="round"/>
    <path d="M 54.02042770385742 190.7125244140625 C 72.13896179199219 197.72691345214844 54.3261833190918 192.8661651611328 52.251670837402344 188.93067932128906" stroke-width="3.0" fill="none" stroke="rgb(0, 0, 0)" stroke-opacity="1.0" stroke-linecap="round" stroke-linejoin="round"/>
    <path d="M 43.69687271118164 168.2921600341797 C 40.39841079711914 148.452880859375 43.316226959228516 138.72647094726562 58.76972579956055 120.84466552734375" stroke-width="3.0" fill="none" stroke="rgb(0, 0, 0)" stroke-opacity="1.0" stroke-linecap="round" stroke-linejoin="round"/>
    <path d="M 39.3958740234375 93.67576599121094 C 58.126827239990234 83.29732513427734 66.03544616699219 121.64388275146484 60.89743423461914 105.98780822753906" stroke-width="3.0" fill="none" stroke="rgb(0, 0, 0)" stroke-opacity="1.0" stroke-linecap="round" stroke-linejoin="round"/>
    <path d="M 44.38228225708008 182.58633422851562 C 21.586084365844727 174.2837371826172 32.95380401611328 164.4749298095703 31.18963623046875 165.96531677246094" stroke-width="3.0" fill="none" stroke="rgb(0, 0, 0)" stroke-opacity="1.0" stroke-linecap="round" stroke-linejoin="round"/>
    <path d="M 60.016387939453125 63.385440826416016 C 55.49127960205078 109.76728820800781 19.701509475708008 51.155574798583984 75.4903793334961 58.367919921875" stroke-width="3.0" fill="none" stroke="rgb(0, 0, 0)" stroke-opacity="1.0" stroke-linecap="round" stroke-linejoin="round"/>
    <path d="M 48.4765739440918 142.75375366210938 C 75.47479248046875 112.69097137451172 99.1257095336914 148.8450927734375 98.04869842529297 159.5623016357422" stroke-width="3.0" fill="none" stroke="rgb(0, 0, 0)" stroke-opacity="1.0" stroke-linecap="round" stroke-linejoin="round"/>
    <path d="M 87.9952621459961 50.63266372680664 C 83.64900970458984 60.37957000732422 84.32377624511719 64.70880889892578 86.24322509765625 56.976749420166016" stroke-width="3.0" fill="none" stroke="rgb(0, 0, 0)" stroke-opacity="1.0" stroke-linecap="round" stroke-linejoin="round"/>
    <path d="M 51.474945068359375 189.6947784423828 C 38.45048141479492 188.6965789794922 49.65190887451172 190.26473999023438 48.18449020385742 189.3201446533203" stroke-width="3.0" fill="none" stroke="rgb(0, 0, 0)" stroke-opacity="1.0" stroke-linecap="round" stroke-linejoin="round"/>
    <path d="M 126.33968353271484 124.07389068603516 C 128.241943359375 116.1129379272461 127.68839263916016 78.38434600830078 81.0838394165039 70.68864440917969" stroke-width="3.0" fill="none" stroke="rgb(0, 0, 0)" stroke-opacity="1.0" stroke-linecap="round" stroke-linejoin="round"/>
    <path d="M 56.52943801879883 76.54254913330078 C 18.329448699951172 78.49748229980469 80.45428466796875 97.96188354492188 51.46419906616211 130.40306091308594" stroke-width="3.0" fill="none" stroke="rgb(0, 0, 0)" stroke-opacity="1.0" stroke-linecap="round" stroke-linejoin="round"/>
    <path d="M 58.75212478637695 87.21928405761719 C 83.78129577636719 91.2647476196289 37.60636520385742 104.49215698242188 76.836669921875 92.9422836303711" stroke-width="3.0" fill="none" stroke="rgb(0, 0, 0)" stroke-opacity="1.0" stroke-linecap="round" stroke-linejoin="round"/>
    <path d="M 30.73506736755371 166.15908813476562 C 19.324411392211914 153.23748779296875 4.9964919090271 183.56236267089844 50.512725830078125 190.14649963378906" stroke-width="3.0" fill="none" stroke="rgb(0, 0, 0)" stroke-opacity="1.0" stroke-linecap="round" stroke-linejoin="round"/>
  </g>
</svg>
