<?xml version="1.0" ?>
<svg xmlns="http://www.w3.org/2000/svg" version="1.1" width="224" height="224">
  <defs/>
  <g>
    <path d="M 104.83576965332031 162.45394897460938 C 103.30378723144531 152.8311004638672 100.65383911132812 155.9541473388672 91.64285278320312 122.35271453857422" stroke-width="3.0" fill="none" stroke="rgb(0, 0, 0)" stroke-opacity="1.0" stroke-linecap="round" stroke-linejoin="round"/>
    <path d="M 129.2018585205078 138.99093627929688 C 123.46430969238281 130.07437133789062 126.64198303222656 132.18585205078125 131.0238037109375 140.87498474121094" stroke-width="3.0" fill="none" stroke="rgb(0, 0, 0)" stroke-opacity="1.0" stroke-linecap="round" stroke-linejoin="round"/>
    <path d="M 45.066307067871094 158.79151916503906 C 44.64141845703125 136.3764190673828 48.13482666015625 140.569580078125 43.74083709716797 158.56399536132812" stroke-width="3.0" fill="none" stroke="rgb(0, 0, 0)" stroke-opacity="1.0" stroke-linecap="round" stroke-linejoin="round"/>
    <path d="M 127.70038604736328 118.1524887084961 C 124.49473571777344 137.0883026123047 125.93810272216797 131.85171508789062 128.69833374023438 132.3233184814453" stroke-width="3.0" fill="none" stroke="rgb(0, 0, 0)" stroke-opacity="1.0" stroke-linecap="round" stroke-linejoin="round"/>
    <path d="M 62.33626174926758 119.17386627197266 C 69.20881652832031 108.5124740600586 58.505279541015625 97.19820404052734 58.45956802368164 110.77824401855469" stroke-width="3.0" fill="none" stroke="rgb(0, 0, 0)" stroke-opacity="1.0" stroke-linecap="round" stroke-linejoin="round"/>
    <path d="M 128.00962829589844 123.98945617675781 C 132.67300415039062 140.5995635986328 127.11204528808594 125.70360565185547 128.88865661621094 120.52713012695312" stroke-width="3.0" fill="none" stroke="rgb(0, 0, 0)" stroke-opacity="1.0" stroke-linecap="round" stroke-linejoin="round"/>
    <path d="M 61.56048583984375 115.18710327148438 C 64.36136627197266 109.88768768310547 46.52336120605469 91.87166595458984 67.49850463867188 104.970458984375" stroke-width="3.0" fill="none" stroke="rgb(0, 0, 0)" stroke-opacity="1.0" stroke-linecap="round" stroke-linejoin="round"/>
    <path d="M 202.5300750732422 182.77777099609375 C 200.4361114501953 187.3042449951172 205.11904907226562 192.35414123535156 131.5037078857422 186.42105102539062" stroke-width="3.0" fill="none" stroke="rgb(0, 0, 0)" stroke-opacity="1.0" stroke-linecap="round" stroke-linejoin="round"/>
    <path d="M 130.76986694335938 190.79708862304688 C 131.30020141601562 201.1920928955078 127.30484008789062 193.36676025390625 72.39270782470703 197.33645629882812" stroke-width="3.0" fill="none" stroke="rgb(0, 0, 0)" stroke-opacity="1.0" stroke-linecap="round" stroke-linejoin="round"/>
    <path d="M 34.21958541870117 90.03900146484375 C 73.24667358398438 87.96813201904297 70.05238342285156 98.78715515136719 58.806732177734375 120.02053833007812" stroke-width="3.0" fill="none" stroke="rgb(0, 0, 0)" stroke-opacity="1.0" stroke-linecap="round" stroke-linejoin="round"/>
    <path d="M 113.13324737548828 178.3834228515625 C 141.49765014648438 179.10047912597656 122.63530731201172 176.56552124023438 125.89313507080078 175.42916870117188" stroke-width="3.0" fill="none" stroke="rgb(0, 0, 0)" stroke-opacity="1.0" stroke-linecap="round" stroke-linejoin="round"/>
    <path d="M 127.85517883300781 180.58995056152344 C 118.77035522460938 142.480224609375 140.00596618652344 169.1824188232422 126.15734100341797 105.26671600341797" stroke-width="3.0" fill="none" stroke="rgb(0, 0, 0)" stroke-opacity="1.0" stroke-linecap="round" stroke-linejoin="round"/>
    <path d="M 43.008392333984375 151.8085174560547 C 52.45529556274414 125.38615417480469 56.81254577636719 134.4875946044922 68.90953826904297 105.2410888671875" stroke-width="3.0" fill="none" stroke="rgb(0, 0, 0)" stroke-opacity="1.0" stroke-linecap="round" stroke-linejoin="round"/>
    <path d="M 20.07497787475586 173.99176025390625 C 34.71866226196289 195.68258666992188 50.60165786743164 187.18463134765625 52.17805480957031 191.4186248779297" stroke-width="3.0" fill="none" stroke="rgb(0, 0, 0)" stroke-opacity="1.0" stroke-linecap="round" stroke-linejoin="round"/>
    <path d="M 63.05543899536133 66.5296859741211 C 104.62444305419922 38.111419677734375 88.71741485595703 32.159141540527344 87.29573059082031 76.11036682128906" stroke-width="3.0" fill="none" stroke="rgb(0, 0, 0)" stroke-opacity="1.0" stroke-linecap="round" stroke-linejoin="round"/>
    <path d="M 89.163330078125 73.93964385986328 C 81.28827667236328 97.8193130493164 61.72130584716797 69.36358642578125 76.59095764160156 81.23223114013672" stroke-width="3.0" fill="none" stroke="rgb(0, 0, 0)" stroke-opacity="1.0" stroke-linecap="round" stroke-linejoin="round"/>
    <path d="M 50.036556243896484 98.15099334716797 C 35.92569351196289 10.938076972961426 35.226802825927734 66.09062194824219 87.3433609008789 62.734893798828125" stroke-width="3.0" fill="none" stroke="rgb(0, 0, 0)" stroke-opacity="1.0" stroke-linecap="round" stroke-linejoin="round"/>
    <path d="M 108.30001831054688 195.7029266357422 C 44.28974533081055 206.18922424316406 41.287864685058594 179.99685668945312 44.63611602783203 151.00469970703125" stroke-width="3.0" fill="none" stroke="rgb(0, 0, 0)" stroke-opacity="1.0" stroke-linecap="round" stroke-linejoin="round"/>
    <path d="M 108.30883026123047 177.50819396972656 C 106.39517211914062 171.24229431152344 106.90987396240234 175.3073272705078 105.05103302001953 145.63565063476562" stroke-width="3.0" fill="none" stroke="rgb(0, 0, 0)" stroke-opacity="1.0" stroke-linecap="round" stroke-linejoin="round"/>
    <path d="M 127.24542236328125 172.51625061035156 C 207.17108154296875 174.33103942871094 198.7870635986328 173.84303283691406 202.05332946777344 181.33616638183594" stroke-width="3.0" fill="none" stroke="rgb(0, 0, 0)" stroke-opacity="1.0" stroke-linecap="round" stroke-linejoin="round"/>
    <path d="M 51.04589080810547 191.34095764160156 C 68.75415802001953 196.15151977539062 49.52939987182617 188.58001708984375 52.399383544921875 190.8146209716797" stroke-width="3.0" fill="none" stroke="rgb(0, 0, 0)" stroke-opacity="1.0" stroke-linecap="round" stroke-linejoin="round"/>
    <path d="M 43.529083251953125 171.02630615234375 C 39.92377471923828 150.33529663085938 44.41559600830078 134.48641967773438 61.039241790771484 120.07933807373047" stroke-width="3.0" fill="none" stroke="rgb(0, 0, 0)" stroke-opacity="1.0" stroke-linecap="round" stroke-linejoin="round"/>
    <path d="M 37.25733947753906 94.97099304199219 C 57.39408874511719 76.18951416015625 65.28850555419922 121.8362808227539 61.250701904296875 106.47783660888672" stroke-width="3.0" fill="none" stroke="rgb(0, 0, 0)" stroke-opacity="1.0" stroke-linecap="round" stroke-linejoin="round"/>
    <path d="M 43.527503967285156 181.869140625 C 24.337411880493164 175.2783203125 35.67949676513672 160.12217712402344 33.372215270996094 168.33885192871094" stroke-width="3.0" fill="none" stroke="rgb(0, 0, 0)" stroke-opacity="1.0" stroke-linecap="round" stroke-linejoin="round"/>
    <path d="M 62.378108978271484 60.23284149169922 C 56.81632995605469 112.27408599853516 18.107309341430664 48.271697998046875 78.33519744873047 58.920555114746094" stroke-width="3.0" fill="none" stroke="rgb(0, 0, 0)" stroke-opacity="1.0" stroke-linecap="round" stroke-linejoin="round"/>
    <path d="M 45.55058288574219 161.27857971191406 C 63.2122688293457 111.2448959350586 99.88606262207031 142.2897491455078 96.65188598632812 157.31915283203125" stroke-width="3.0" fill="none" stroke="rgb(0, 0, 0)" stroke-opacity="1.0" stroke-linecap="round" stroke-linejoin="round"/>
    <path d="M 83.41140747070312 48.84836959838867 C 72.09848022460938 67.72877502441406 65.7247085571289 55.73518371582031 91.45237731933594 44.228843688964844" stroke-width="3.0" fill="none" stroke="rgb(0, 0, 0)" stroke-opacity="1.0" stroke-linecap="round" stroke-linejoin="round"/>
    <path d="M 49.15299606323242 190.0963897705078 C 41.15020751953125 189.02061462402344 51.37288284301758 189.97145080566406 44.776973724365234 187.81048583984375" stroke-width="3.0" fill="none" stroke="rgb(0, 0, 0)" stroke-opacity="1.0" stroke-linecap="round" stroke-linejoin="round"/>
    <path d="M 128.33409118652344 132.060791015625 C 134.73533630371094 121.52405548095703 122.62004089355469 61.700645446777344 70.08273315429688 77.46805572509766" stroke-width="3.0" fill="none" stroke="rgb(0, 0, 0)" stroke-opacity="1.0" stroke-linecap="round" stroke-linejoin="round"/>
    <path d="M 60.97189712524414 75.20745849609375 C 13.123058319091797 67.672119140625 80.48063659667969 108.95582580566406 52.484413146972656 129.79393005371094" stroke-width="3.0" fill="none" stroke="rgb(0, 0, 0)" stroke-opacity="1.0" stroke-linecap="round" stroke-linejoin="round"/>
    <path d="M 58.89334487915039 85.09435272216797 C 82.98580932617188 80.25857543945312 29.554079055786133 106.265625 84.03634643554688 86.91995239257812" stroke-width="3.0" fill="none" stroke="rgb(0, 0, 0)" stroke-opacity="1.0" stroke-linecap="round" stroke-linejoin="round"/>
    <path d="M 31.692211151123047 165.96461486816406 C 17.097505569458008 154.17259216308594 7.905826568603516 180.97718811035156 47.44057846069336 189.95960998535156" stroke-width="3.0" fill="none" stroke="rgb(0, 0, 0)" stroke-opacity="1.0" stroke-linecap="round" stroke-linejoin="round"/>
  </g>
</svg>
