<?xml version="1.0" ?>
<svg xmlns="http://www.w3.org/2000/svg" version="1.1" width="224" height="224">
  <defs/>
  <g>
    <path d="M 93.9306640625 143.609619140625 C 94.79026794433594 121.63495635986328 93.83466339111328 126.57595825195312 91.72631072998047 118.61007690429688" stroke-width="3.0" fill="none" stroke="rgb(0, 0, 0)" stroke-opacity="1.0" stroke-linecap="round" stroke-linejoin="round"/>
    <path d="M 106.20626831054688 162.1056671142578 C 103.41968536376953 161.97300720214844 113.08467102050781 162.95816040039062 107.80803680419922 138.22515869140625" stroke-width="3.0" fill="none" stroke="rgb(0, 0, 0)" stroke-opacity="1.0" stroke-linecap="round" stroke-linejoin="round"/>
    <path d="M 60.91289520263672 141.64491271972656 C 58.452980041503906 135.085693359375 60.23722457885742 138.8885040283203 62.86328887939453 145.0370330810547" stroke-width="3.0" fill="none" stroke="rgb(0, 0, 0)" stroke-opacity="1.0" stroke-linecap="round" stroke-linejoin="round"/>
    <path d="M 117.7787857055664 120.40540313720703 C 118.77818298339844 131.91912841796875 113.88290405273438 132.89845275878906 112.7264175415039 146.42098999023438" stroke-width="3.0" fill="none" stroke="rgb(0, 0, 0)" stroke-opacity="1.0" stroke-linecap="round" stroke-linejoin="round"/>
    <path d="M 73.34395599365234 110.85053253173828 C 51.552398681640625 96.94673156738281 61.358280181884766 99.16481018066406 75.66159057617188 106.73199462890625" stroke-width="3.0" fill="none" stroke="rgb(0, 0, 0)" stroke-opacity="1.0" stroke-linecap="round" stroke-linejoin="round"/>
    <path d="M 114.9889144897461 134.267333984375 C 113.22855377197266 149.6328582763672 115.52908325195312 154.4495391845703 113.1745834350586 145.12716674804688" stroke-width="3.0" fill="none" stroke="rgb(0, 0, 0)" stroke-opacity="1.0" stroke-linecap="round" stroke-linejoin="round"/>
    <path d="M 63.088897705078125 117.99332427978516 C 62.00629806518555 91.72149658203125 54.35348129272461 105.78550720214844 69.8685531616211 114.11299133300781" stroke-width="3.0" fill="none" stroke="rgb(0, 0, 0)" stroke-opacity="1.0" stroke-linecap="round" stroke-linejoin="round"/>
    <path d="M 154.305419921875 176.2327117919922 C 172.77330017089844 178.90541076660156 171.05064392089844 182.93222045898438 162.75648498535156 178.0360107421875" stroke-width="3.0" fill="none" stroke="rgb(0, 0, 0)" stroke-opacity="1.0" stroke-linecap="round" stroke-linejoin="round"/>
    <path d="M 113.78978729248047 194.4622344970703 C 85.6418685913086 192.18380737304688 84.9447021484375 192.38043212890625 93.28874206542969 194.08251953125" stroke-width="3.0" fill="none" stroke="rgb(0, 0, 0)" stroke-opacity="1.0" stroke-linecap="round" stroke-linejoin="round"/>
    <path d="M 44.51124572753906 89.87435913085938 C 69.34786224365234 110.56375885009766 79.87854766845703 102.28375244140625 74.0957260131836 106.15901184082031" stroke-width="3.0" fill="none" stroke="rgb(0, 0, 0)" stroke-opacity="1.0" stroke-linecap="round" stroke-linejoin="round"/>
    <path d="M 107.92809295654297 159.72488403320312 C 132.69924926757812 168.23472595214844 134.82083129882812 161.8077850341797 132.04916381835938 168.81813049316406" stroke-width="3.0" fill="none" stroke="rgb(0, 0, 0)" stroke-opacity="1.0" stroke-linecap="round" stroke-linejoin="round"/>
    <path d="M 130.97593688964844 154.31809997558594 C 128.6593017578125 116.41162109375 131.23976135253906 117.91034698486328 116.59188842773438 92.20291900634766" stroke-width="3.0" fill="none" stroke="rgb(0, 0, 0)" stroke-opacity="1.0" stroke-linecap="round" stroke-linejoin="round"/>
    <path d="M 46.252838134765625 145.48519897460938 C 53.9975700378418 124.12852478027344 50.85691833496094 132.4915313720703 58.568885803222656 119.60676574707031" stroke-width="3.0" fill="none" stroke="rgb(0, 0, 0)" stroke-opacity="1.0" stroke-linecap="round" stroke-linejoin="round"/>
    <path d="M 29.515066146850586 182.76788330078125 C 40.800025939941406 186.7147979736328 42.099876403808594 188.22088623046875 52.63677978515625 189.61007690429688" stroke-width="3.0" fill="none" stroke="rgb(0, 0, 0)" stroke-opacity="1.0" stroke-linecap="round" stroke-linejoin="round"/>
    <path d="M 71.67613983154297 58.37040710449219 C 93.52372741699219 34.24324035644531 89.54161071777344 34.985233306884766 91.15957641601562 70.58849334716797" stroke-width="3.0" fill="none" stroke="rgb(0, 0, 0)" stroke-opacity="1.0" stroke-linecap="round" stroke-linejoin="round"/>
    <path d="M 71.07274627685547 71.22399139404297 C 61.83365249633789 75.20807647705078 70.77661895751953 50.696693420410156 72.18441009521484 69.55406951904297" stroke-width="3.0" fill="none" stroke="rgb(0, 0, 0)" stroke-opacity="1.0" stroke-linecap="round" stroke-linejoin="round"/>
    <path d="M 45.55601501464844 69.84575653076172 C 37.1749267578125 37.94596481323242 39.417232513427734 48.149234771728516 62.6496467590332 60.727725982666016" stroke-width="3.0" fill="none" stroke="rgb(0, 0, 0)" stroke-opacity="1.0" stroke-linecap="round" stroke-linejoin="round"/>
    <path d="M 64.5063247680664 196.1112060546875 C 47.9493522644043 195.3928985595703 38.72988510131836 174.45175170898438 46.36402130126953 160.1424560546875" stroke-width="3.0" fill="none" stroke="rgb(0, 0, 0)" stroke-opacity="1.0" stroke-linecap="round" stroke-linejoin="round"/>
    <path d="M 98.78658294677734 161.53121948242188 C 99.46356201171875 159.3772430419922 105.73645782470703 168.34141540527344 98.12562561035156 157.21270751953125" stroke-width="3.0" fill="none" stroke="rgb(0, 0, 0)" stroke-opacity="1.0" stroke-linecap="round" stroke-linejoin="round"/>
    <path d="M 130.4014434814453 178.21591186523438 C 161.17144775390625 178.7429962158203 163.79937744140625 180.42552185058594 194.3135223388672 178.3883819580078" stroke-width="3.0" fill="none" stroke="rgb(0, 0, 0)" stroke-opacity="1.0" stroke-linecap="round" stroke-linejoin="round"/>
    <path d="M 65.88339233398438 196.6958465576172 C 74.40160369873047 196.3678741455078 59.63323211669922 199.07284545898438 52.11568832397461 189.86337280273438" stroke-width="3.0" fill="none" stroke="rgb(0, 0, 0)" stroke-opacity="1.0" stroke-linecap="round" stroke-linejoin="round"/>
    <path d="M 44.13998794555664 172.5738067626953 C 45.42232894897461 156.3263397216797 42.10886001586914 142.31895446777344 52.924781799316406 129.10836791992188" stroke-width="3.0" fill="none" stroke="rgb(0, 0, 0)" stroke-opacity="1.0" stroke-linecap="round" stroke-linejoin="round"/>
    <path d="M 73.05598449707031 104.69404602050781 C 72.41686248779297 105.15312194824219 82.49372863769531 104.19432830810547 70.7533187866211 105.77114868164062" stroke-width="3.0" fill="none" stroke="rgb(0, 0, 0)" stroke-opacity="1.0" stroke-linecap="round" stroke-linejoin="round"/>
    <path d="M 38.98569107055664 176.34515380859375 C 23.673080444335938 168.9762725830078 34.63975143432617 166.59423828125 27.27060890197754 163.7450714111328" stroke-width="3.0" fill="none" stroke="rgb(0, 0, 0)" stroke-opacity="1.0" stroke-linecap="round" stroke-linejoin="round"/>
    <path d="M 44.99029541015625 77.3162841796875 C 43.40598678588867 68.30377197265625 47.95296859741211 57.10591125488281 71.54109191894531 56.98741912841797" stroke-width="3.0" fill="none" stroke="rgb(0, 0, 0)" stroke-opacity="1.0" stroke-linecap="round" stroke-linejoin="round"/>
    <path d="M 80.19529724121094 133.73158264160156 C 91.99816131591797 145.6205291748047 86.390380859375 143.78662109375 87.3891372680664 147.5809783935547" stroke-width="3.0" fill="none" stroke="rgb(0, 0, 0)" stroke-opacity="1.0" stroke-linecap="round" stroke-linejoin="round"/>
    <path d="M 89.01543426513672 51.17441940307617 C 83.79216766357422 66.12985229492188 96.74531555175781 71.75593566894531 84.00838470458984 61.938758850097656" stroke-width="3.0" fill="none" stroke="rgb(0, 0, 0)" stroke-opacity="1.0" stroke-linecap="round" stroke-linejoin="round"/>
    <path d="M 50.354305267333984 188.26556396484375 C 30.851499557495117 181.905029296875 34.327632904052734 184.7173614501953 45.33753967285156 183.39047241210938" stroke-width="3.0" fill="none" stroke="rgb(0, 0, 0)" stroke-opacity="1.0" stroke-linecap="round" stroke-linejoin="round"/>
    <path d="M 117.44620513916016 126.0989990234375 C 118.94813537597656 108.20297241210938 117.20931243896484 107.0317611694336 112.21611022949219 94.85621643066406" stroke-width="3.0" fill="none" stroke="rgb(0, 0, 0)" stroke-opacity="1.0" stroke-linecap="round" stroke-linejoin="round"/>
    <path d="M 61.3430061340332 93.3572998046875 C 52.38052749633789 99.44979858398438 66.70551300048828 105.25398254394531 56.31519317626953 123.70032501220703" stroke-width="3.0" fill="none" stroke="rgb(0, 0, 0)" stroke-opacity="1.0" stroke-linecap="round" stroke-linejoin="round"/>
    <path d="M 71.78775787353516 90.30958557128906 C 81.27410125732422 86.65870666503906 68.0966796875 99.74580383300781 76.57459259033203 84.55357360839844" stroke-width="3.0" fill="none" stroke="rgb(0, 0, 0)" stroke-opacity="1.0" stroke-linecap="round" stroke-linejoin="round"/>
    <path d="M 29.61754608154297 164.6319122314453 C 19.861474990844727 156.84132385253906 9.162123680114746 176.2140655517578 37.58454513549805 185.2779998779297" stroke-width="3.0" fill="none" stroke="rgb(0, 0, 0)" stroke-opacity="1.0" stroke-linecap="round" stroke-linejoin="round"/>
  </g>
</svg>
