<?xml version="1.0" ?>
<svg xmlns="http://www.w3.org/2000/svg" version="1.1" width="224" height="224">
  <defs/>
  <g>
    <path d="M 109.30870819091797 180.23448181152344 C 105.17977142333984 143.5283203125 104.81334686279297 162.91244506835938 94.80401611328125 121.26093292236328" stroke-width="3.0" fill="none" stroke="rgb(0, 0, 0)" stroke-opacity="1.0" stroke-linecap="round" stroke-linejoin="round"/>
    <path d="M 127.75270080566406 167.25411987304688 C 132.6505126953125 138.68092346191406 134.831298828125 152.12551879882812 127.73784637451172 162.846923828125" stroke-width="3.0" fill="none" stroke="rgb(0, 0, 0)" stroke-opacity="1.0" stroke-linecap="round" stroke-linejoin="round"/>
    <path d="M 43.488365173339844 165.1407928466797 C 48.44499588012695 156.25059509277344 46.50586700439453 146.59967041015625 42.304935455322266 155.90963745117188" stroke-width="3.0" fill="none" stroke="rgb(0, 0, 0)" stroke-opacity="1.0" stroke-linecap="round" stroke-linejoin="round"/>
    <path d="M 126.81764221191406 122.1380386352539 C 122.48892211914062 139.66012573242188 142.487548828125 134.27830505371094 127.38021850585938 160.54673767089844" stroke-width="3.0" fill="none" stroke="rgb(0, 0, 0)" stroke-opacity="1.0" stroke-linecap="round" stroke-linejoin="round"/>
    <path d="M 58.74827194213867 124.0318603515625 C 65.19540405273438 84.82120513916016 55.889400482177734 100.74127960205078 60.4737434387207 108.0739517211914" stroke-width="3.0" fill="none" stroke="rgb(0, 0, 0)" stroke-opacity="1.0" stroke-linecap="round" stroke-linejoin="round"/>
    <path d="M 123.58589935302734 105.1005859375 C 135.1887969970703 132.95245361328125 124.056396484375 141.77197265625 128.806884765625 127.31698608398438" stroke-width="3.0" fill="none" stroke="rgb(0, 0, 0)" stroke-opacity="1.0" stroke-linecap="round" stroke-linejoin="round"/>
    <path d="M 58.1661376953125 124.54132080078125 C 66.71211242675781 91.28262329101562 49.8695068359375 92.15103149414062 60.85419845581055 111.48448944091797" stroke-width="3.0" fill="none" stroke="rgb(0, 0, 0)" stroke-opacity="1.0" stroke-linecap="round" stroke-linejoin="round"/>
    <path d="M 199.56483459472656 180.2051239013672 C 198.76390075683594 189.7860107421875 198.6349639892578 189.06234741210938 112.5778579711914 184.28878784179688" stroke-width="3.0" fill="none" stroke="rgb(0, 0, 0)" stroke-opacity="1.0" stroke-linecap="round" stroke-linejoin="round"/>
    <path d="M 133.07212829589844 184.75531005859375 C 128.199462890625 201.2640380859375 135.24261474609375 193.60626220703125 79.2619857788086 187.59742736816406" stroke-width="3.0" fill="none" stroke="rgb(0, 0, 0)" stroke-opacity="1.0" stroke-linecap="round" stroke-linejoin="round"/>
    <path d="M 32.97415542602539 87.2055435180664 C 56.366241455078125 86.68276977539062 61.458717346191406 111.31700897216797 61.14193344116211 107.4497299194336" stroke-width="3.0" fill="none" stroke="rgb(0, 0, 0)" stroke-opacity="1.0" stroke-linecap="round" stroke-linejoin="round"/>
    <path d="M 100.37229919433594 185.74899291992188 C 153.75961303710938 189.03025817871094 115.42405700683594 192.62376403808594 122.88595581054688 185.8781280517578" stroke-width="3.0" fill="none" stroke="rgb(0, 0, 0)" stroke-opacity="1.0" stroke-linecap="round" stroke-linejoin="round"/>
    <path d="M 128.36148071289062 184.27349853515625 C 120.70884704589844 140.2713165283203 137.0738525390625 175.2703399658203 124.89973449707031 107.49345397949219" stroke-width="3.0" fill="none" stroke="rgb(0, 0, 0)" stroke-opacity="1.0" stroke-linecap="round" stroke-linejoin="round"/>
    <path d="M 43.38261413574219 158.1045379638672 C 51.39714813232422 121.30029296875 62.480892181396484 142.55215454101562 61.81562423706055 101.33714294433594" stroke-width="3.0" fill="none" stroke="rgb(0, 0, 0)" stroke-opacity="1.0" stroke-linecap="round" stroke-linejoin="round"/>
    <path d="M 29.054718017578125 167.1590576171875 C 26.113609313964844 183.1126251220703 50.42411804199219 189.2581024169922 23.335235595703125 174.631103515625" stroke-width="3.0" fill="none" stroke="rgb(0, 0, 0)" stroke-opacity="1.0" stroke-linecap="round" stroke-linejoin="round"/>
    <path d="M 44.55418395996094 64.49728393554688 C 98.54745483398438 59.245025634765625 91.62203979492188 8.66064453125 85.91228485107422 86.14557647705078" stroke-width="3.0" fill="none" stroke="rgb(0, 0, 0)" stroke-opacity="1.0" stroke-linecap="round" stroke-linejoin="round"/>
    <path d="M 72.56487274169922 58.112709045410156 C 105.78457641601562 90.86253356933594 41.04000473022461 91.72499084472656 77.1304931640625 53.95557403564453" stroke-width="3.0" fill="none" stroke="rgb(0, 0, 0)" stroke-opacity="1.0" stroke-linecap="round" stroke-linejoin="round"/>
    <path d="M 44.40581512451172 84.30656433105469 C 36.881587982177734 7.432626724243164 51.28184509277344 84.41780090332031 86.2053451538086 65.61626434326172" stroke-width="3.0" fill="none" stroke="rgb(0, 0, 0)" stroke-opacity="1.0" stroke-linecap="round" stroke-linejoin="round"/>
    <path d="M 116.28025817871094 190.91148376464844 C 39.75218963623047 204.1977081298828 37.79191589355469 178.19606018066406 45.50600051879883 153.98448181152344" stroke-width="3.0" fill="none" stroke="rgb(0, 0, 0)" stroke-opacity="1.0" stroke-linecap="round" stroke-linejoin="round"/>
    <path d="M 111.89727783203125 183.5576934814453 C 111.55793762207031 174.86441040039062 111.87104797363281 181.29580688476562 106.60289001464844 135.8560333251953" stroke-width="3.0" fill="none" stroke="rgb(0, 0, 0)" stroke-opacity="1.0" stroke-linecap="round" stroke-linejoin="round"/>
    <path d="M 129.5026092529297 173.99063110351562 C 207.00717163085938 171.2968292236328 196.0592041015625 172.5233154296875 200.92015075683594 181.51039123535156" stroke-width="3.0" fill="none" stroke="rgb(0, 0, 0)" stroke-opacity="1.0" stroke-linecap="round" stroke-linejoin="round"/>
    <path d="M 23.32047462463379 170.36773681640625 C 19.903743743896484 190.20034790039062 79.19385528564453 194.89088439941406 30.61336326599121 174.7568817138672" stroke-width="3.0" fill="none" stroke="rgb(0, 0, 0)" stroke-opacity="1.0" stroke-linecap="round" stroke-linejoin="round"/>
    <path d="M 46.373966217041016 182.89320373535156 C 33.15634536743164 141.69537353515625 46.268516540527344 136.0653533935547 60.43521499633789 120.5450439453125" stroke-width="3.0" fill="none" stroke="rgb(0, 0, 0)" stroke-opacity="1.0" stroke-linecap="round" stroke-linejoin="round"/>
    <path d="M 38.9708137512207 97.1627197265625 C 53.722835540771484 80.7160873413086 64.75263977050781 121.18753051757812 51.74757385253906 95.07953643798828" stroke-width="3.0" fill="none" stroke="rgb(0, 0, 0)" stroke-opacity="1.0" stroke-linecap="round" stroke-linejoin="round"/>
    <path d="M 46.90447235107422 181.72152709960938 C 24.8863582611084 177.44064331054688 15.871431350708008 147.72169494628906 39.68280029296875 183.60372924804688" stroke-width="3.0" fill="none" stroke="rgb(0, 0, 0)" stroke-opacity="1.0" stroke-linecap="round" stroke-linejoin="round"/>
    <path d="M 54.223289489746094 61.177677154541016 C 58.55963897705078 91.70856475830078 35.81424331665039 50.295860290527344 90.11112213134766 70.61954498291016" stroke-width="3.0" fill="none" stroke="rgb(0, 0, 0)" stroke-opacity="1.0" stroke-linecap="round" stroke-linejoin="round"/>
    <path d="M 45.192378997802734 159.02293395996094 C 53.99779510498047 121.00621032714844 113.58208465576172 131.5078125 95.7979736328125 177.46661376953125" stroke-width="3.0" fill="none" stroke="rgb(0, 0, 0)" stroke-opacity="1.0" stroke-linecap="round" stroke-linejoin="round"/>
    <path d="M 89.47972106933594 61.182579040527344 C 84.234375 92.26701354980469 53.1344108581543 58.272579193115234 88.73137664794922 42.94667053222656" stroke-width="3.0" fill="none" stroke="rgb(0, 0, 0)" stroke-opacity="1.0" stroke-linecap="round" stroke-linejoin="round"/>
    <path d="M 23.029022216796875 164.53973388671875 C 5.861375331878662 175.99290466308594 44.11390686035156 190.34637451171875 47.12455368041992 184.5326690673828" stroke-width="3.0" fill="none" stroke="rgb(0, 0, 0)" stroke-opacity="1.0" stroke-linecap="round" stroke-linejoin="round"/>
    <path d="M 127.63871002197266 162.72557067871094 C 140.1143798828125 102.34534454345703 99.39690399169922 46.41706848144531 51.8984260559082 81.38131713867188" stroke-width="3.0" fill="none" stroke="rgb(0, 0, 0)" stroke-opacity="1.0" stroke-linecap="round" stroke-linejoin="round"/>
    <path d="M 73.38595581054688 79.27848815917969 C 10.276004791259766 73.42542266845703 80.38370513916016 109.46509552001953 56.75193786621094 125.99323272705078" stroke-width="3.0" fill="none" stroke="rgb(0, 0, 0)" stroke-opacity="1.0" stroke-linecap="round" stroke-linejoin="round"/>
    <path d="M 55.90428924560547 84.9190444946289 C 70.76005554199219 82.91556549072266 14.454997062683105 115.98039245605469 87.01366424560547 91.46118927001953" stroke-width="3.0" fill="none" stroke="rgb(0, 0, 0)" stroke-opacity="1.0" stroke-linecap="round" stroke-linejoin="round"/>
    <path d="M 31.115478515625 172.58724975585938 C 29.30940055847168 154.68856811523438 8.362297058105469 175.17539978027344 48.004608154296875 184.50221252441406" stroke-width="3.0" fill="none" stroke="rgb(0, 0, 0)" stroke-opacity="1.0" stroke-linecap="round" stroke-linejoin="round"/>
  </g>
</svg>
