<?xml version="1.0" ?>
<svg xmlns="http://www.w3.org/2000/svg" version="1.1" width="224" height="224">
  <defs/>
  <g>
    <path d="M 60.32331466674805 93.86212158203125 C 60.044620513916016 94.0529556274414 66.99189758300781 98.07516479492188 50.42477798461914 84.32940673828125" stroke-width="3.0" fill="none" stroke="rgb(0, 0, 0)" stroke-opacity="1.0" stroke-linecap="round" stroke-linejoin="round"/>
    <path d="M 182.22853088378906 124.12989044189453 C 177.4767303466797 115.61441040039062 203.4783935546875 88.53431701660156 174.89369201660156 128.52639770507812" stroke-width="3.0" fill="none" stroke="rgb(0, 0, 0)" stroke-opacity="1.0" stroke-linecap="round" stroke-linejoin="round"/>
    <path d="M 54.18875503540039 106.0882339477539 C 50.26190948486328 107.8149185180664 54.495330810546875 125.91726684570312 63.66001510620117 133.8362579345703" stroke-width="3.0" fill="none" stroke="rgb(0, 0, 0)" stroke-opacity="1.0" stroke-linecap="round" stroke-linejoin="round"/>
    <path d="M 186.20338439941406 92.26396179199219 C 136.88291931152344 93.68067932128906 177.7725830078125 83.52629089355469 187.57676696777344 105.00418853759766" stroke-width="3.0" fill="none" stroke="rgb(0, 0, 0)" stroke-opacity="1.0" stroke-linecap="round" stroke-linejoin="round"/>
    <path d="M 177.5958709716797 70.48139190673828 C 194.95323181152344 112.33645629882812 189.3710479736328 101.69038391113281 183.03663635253906 70.68997192382812" stroke-width="3.0" fill="none" stroke="rgb(0, 0, 0)" stroke-opacity="1.0" stroke-linecap="round" stroke-linejoin="round"/>
    <path d="M 120.70895385742188 106.76610565185547 C 149.55018615722656 112.32865905761719 114.30225372314453 92.50968170166016 135.5699005126953 101.78865051269531" stroke-width="3.0" fill="none" stroke="rgb(0, 0, 0)" stroke-opacity="1.0" stroke-linecap="round" stroke-linejoin="round"/>
    <path d="M 178.01332092285156 87.90740203857422 C 194.0701904296875 82.82073974609375 192.91275024414062 74.1908950805664 142.47169494628906 85.22482299804688" stroke-width="3.0" fill="none" stroke="rgb(0, 0, 0)" stroke-opacity="1.0" stroke-linecap="round" stroke-linejoin="round"/>
    <path d="M 64.52269744873047 191.0081329345703 C 38.685848236083984 162.82711791992188 50.62810134887695 169.85885620117188 48.437583923339844 170.0992889404297" stroke-width="3.0" fill="none" stroke="rgb(0, 0, 0)" stroke-opacity="1.0" stroke-linecap="round" stroke-linejoin="round"/>
    <path d="M 54.80649948120117 181.88180541992188 C 87.98361206054688 210.63760375976562 120.64569091796875 195.84158325195312 133.45437622070312 176.8623046875" stroke-width="3.0" fill="none" stroke="rgb(0, 0, 0)" stroke-opacity="1.0" stroke-linecap="round" stroke-linejoin="round"/>
    <path d="M 83.6895523071289 26.300216674804688 C 91.73796081542969 81.52120208740234 82.01994323730469 6.28835391998291 82.90308380126953 53.07993698120117" stroke-width="3.0" fill="none" stroke="rgb(0, 0, 0)" stroke-opacity="1.0" stroke-linecap="round" stroke-linejoin="round"/>
    <path d="M 48.07235336303711 91.21744537353516 C 63.32902526855469 145.05276489257812 78.50720977783203 151.7205352783203 72.5810546875 145.62062072753906" stroke-width="3.0" fill="none" stroke="rgb(0, 0, 0)" stroke-opacity="1.0" stroke-linecap="round" stroke-linejoin="round"/>
    <path d="M 151.8283233642578 72.50308227539062 C 198.95941162109375 60.41395568847656 189.56687927246094 94.36898803710938 142.88084411621094 83.82093048095703" stroke-width="3.0" fill="none" stroke="rgb(0, 0, 0)" stroke-opacity="1.0" stroke-linecap="round" stroke-linejoin="round"/>
    <path d="M 150.95913696289062 97.6477279663086 C 182.3788604736328 103.61259460449219 174.59963989257812 100.7864990234375 194.8311004638672 113.75267791748047" stroke-width="3.0" fill="none" stroke="rgb(0, 0, 0)" stroke-opacity="1.0" stroke-linecap="round" stroke-linejoin="round"/>
    <path d="M 110.31934356689453 154.20767211914062 C 147.77767944335938 153.06532287597656 119.82376861572266 143.7877197265625 103.80461883544922 157.37901306152344" stroke-width="3.0" fill="none" stroke="rgb(0, 0, 0)" stroke-opacity="1.0" stroke-linecap="round" stroke-linejoin="round"/>
    <path d="M 179.3058624267578 10.18891429901123 C 187.22544860839844 22.10236167907715 172.7952880859375 71.13080596923828 180.766357421875 54.12527084350586" stroke-width="3.0" fill="none" stroke="rgb(0, 0, 0)" stroke-opacity="1.0" stroke-linecap="round" stroke-linejoin="round"/>
    <path d="M 133.41839599609375 29.668771743774414 C 126.22689819335938 45.521705627441406 136.18780517578125 50.69355010986328 128.4261932373047 66.28590393066406" stroke-width="3.0" fill="none" stroke="rgb(0, 0, 0)" stroke-opacity="1.0" stroke-linecap="round" stroke-linejoin="round"/>
    <path d="M 88.5922622680664 44.34583282470703 C 70.48229217529297 -2.417125940322876 89.23900604248047 -0.6952513456344604 114.88056182861328 29.198535919189453" stroke-width="3.0" fill="none" stroke="rgb(0, 0, 0)" stroke-opacity="1.0" stroke-linecap="round" stroke-linejoin="round"/>
    <path d="M 46.68889236450195 169.041259765625 C 39.90061569213867 154.51470947265625 37.679168701171875 146.36312866210938 47.145591735839844 169.63662719726562" stroke-width="3.0" fill="none" stroke="rgb(0, 0, 0)" stroke-opacity="1.0" stroke-linecap="round" stroke-linejoin="round"/>
    <path d="M 37.06270980834961 100.99927520751953 C 21.684293746948242 133.68423461914062 41.77435302734375 145.75643920898438 43.77891159057617 164.5669403076172" stroke-width="3.0" fill="none" stroke="rgb(0, 0, 0)" stroke-opacity="1.0" stroke-linecap="round" stroke-linejoin="round"/>
    <path d="M 78.88516998291016 148.68785095214844 C 112.03858947753906 160.63726806640625 92.92936706542969 154.25213623046875 96.79411315917969 150.73095703125" stroke-width="3.0" fill="none" stroke="rgb(0, 0, 0)" stroke-opacity="1.0" stroke-linecap="round" stroke-linejoin="round"/>
    <path d="M 88.87484741210938 197.5214385986328 C 69.51486206054688 202.94874572753906 48.125431060791016 176.71763610839844 48.58171081542969 170.44741821289062" stroke-width="3.0" fill="none" stroke="rgb(0, 0, 0)" stroke-opacity="1.0" stroke-linecap="round" stroke-linejoin="round"/>
    <path d="M 48.728057861328125 169.95533752441406 C 64.2114486694336 195.6094512939453 46.063350677490234 172.1270751953125 40.041988372802734 151.91615295410156" stroke-width="3.0" fill="none" stroke="rgb(0, 0, 0)" stroke-opacity="1.0" stroke-linecap="round" stroke-linejoin="round"/>
    <path d="M 81.25517272949219 58.29899978637695 C 62.54973602294922 57.42655563354492 47.144412994384766 71.25994873046875 32.188743591308594 105.923095703125" stroke-width="3.0" fill="none" stroke="rgb(0, 0, 0)" stroke-opacity="1.0" stroke-linecap="round" stroke-linejoin="round"/>
    <path d="M 157.5138702392578 139.53634643554688 C 111.50395202636719 154.4296875 106.28022766113281 154.91439819335938 144.6577606201172 148.71051025390625" stroke-width="3.0" fill="none" stroke="rgb(0, 0, 0)" stroke-opacity="1.0" stroke-linecap="round" stroke-linejoin="round"/>
    <path d="M 149.92970275878906 24.668577194213867 C 137.9015655517578 41.19915771484375 136.9312286376953 1.1915550231933594 135.1463623046875 80.72859954833984" stroke-width="3.0" fill="none" stroke="rgb(0, 0, 0)" stroke-opacity="1.0" stroke-linecap="round" stroke-linejoin="round"/>
    <path d="M 146.07643127441406 94.58301544189453 C 128.75656127929688 107.04398345947266 132.27626037597656 109.514404296875 121.54624938964844 103.5302963256836" stroke-width="3.0" fill="none" stroke="rgb(0, 0, 0)" stroke-opacity="1.0" stroke-linecap="round" stroke-linejoin="round"/>
    <path d="M 132.48304748535156 77.66352844238281 C 142.98684692382812 56.445194244384766 132.45223999023438 66.19300079345703 136.43190002441406 71.97486114501953" stroke-width="3.0" fill="none" stroke="rgb(0, 0, 0)" stroke-opacity="1.0" stroke-linecap="round" stroke-linejoin="round"/>
    <path d="M 136.55284118652344 172.65032958984375 C 131.52804565429688 180.8377685546875 140.11012268066406 174.65701293945312 145.4136962890625 148.12222290039062" stroke-width="3.0" fill="none" stroke="rgb(0, 0, 0)" stroke-opacity="1.0" stroke-linecap="round" stroke-linejoin="round"/>
    <path d="M 194.60572814941406 95.80113220214844 C 165.6835479736328 73.6493148803711 162.4351043701172 82.92243957519531 186.77085876464844 95.52188110351562" stroke-width="3.0" fill="none" stroke="rgb(0, 0, 0)" stroke-opacity="1.0" stroke-linecap="round" stroke-linejoin="round"/>
    <path d="M 153.95896911621094 76.40258026123047 C 122.2255859375 61.75876235961914 203.0078582763672 81.17561340332031 181.0409393310547 66.40364074707031" stroke-width="3.0" fill="none" stroke="rgb(0, 0, 0)" stroke-opacity="1.0" stroke-linecap="round" stroke-linejoin="round"/>
    <path d="M 112.09601593017578 82.3287124633789 C 93.10428619384766 72.31394958496094 139.5090789794922 80.61714172363281 108.34992980957031 84.14790344238281" stroke-width="3.0" fill="none" stroke="rgb(0, 0, 0)" stroke-opacity="1.0" stroke-linecap="round" stroke-linejoin="round"/>
    <path d="M 164.17172241210938 132.05276489257812 C 146.72607421875 155.08758544921875 113.97247314453125 148.48817443847656 96.4725570678711 154.61334228515625" stroke-width="3.0" fill="none" stroke="rgb(0, 0, 0)" stroke-opacity="1.0" stroke-linecap="round" stroke-linejoin="round"/>
    <path d="M 120.91429138183594 88.75312042236328 C 142.3141326904297 98.9736328125 124.9468002319336 69.22232818603516 126.99676513671875 104.73418426513672" stroke-width="3.0" fill="none" stroke="rgb(0, 0, 0)" stroke-opacity="1.0" stroke-linecap="round" stroke-linejoin="round"/>
    <path d="M 186.58055114746094 112.02442169189453 C 170.24700927734375 86.71307373046875 184.40066528320312 88.36502075195312 150.07676696777344 91.41065979003906" stroke-width="3.0" fill="none" stroke="rgb(0, 0, 0)" stroke-opacity="1.0" stroke-linecap="round" stroke-linejoin="round"/>
    <path d="M 86.87454223632812 9.220870018005371 C 105.25556182861328 15.658108711242676 120.67083740234375 36.39702606201172 129.1814727783203 31.760116577148438" stroke-width="3.0" fill="none" stroke="rgb(0, 0, 0)" stroke-opacity="1.0" stroke-linecap="round" stroke-linejoin="round"/>
    <path d="M 56.39431381225586 123.49964141845703 C 53.99671936035156 118.02737426757812 60.93730163574219 129.22824096679688 68.47621154785156 136.61221313476562" stroke-width="3.0" fill="none" stroke="rgb(0, 0, 0)" stroke-opacity="1.0" stroke-linecap="round" stroke-linejoin="round"/>
    <path d="M 129.5492401123047 103.56521606445312 C 129.0412139892578 89.29689025878906 119.78865814208984 120.78150939941406 106.813232421875 91.0129165649414" stroke-width="3.0" fill="none" stroke="rgb(0, 0, 0)" stroke-opacity="1.0" stroke-linecap="round" stroke-linejoin="round"/>
    <path d="M 31.88990020751953 132.73526000976562 C 27.010738372802734 101.37541198730469 38.639678955078125 100.58804321289062 52.931297302246094 77.08092498779297" stroke-width="3.0" fill="none" stroke="rgb(0, 0, 0)" stroke-opacity="1.0" stroke-linecap="round" stroke-linejoin="round"/>
    <path d="M 82.55887603759766 197.42974853515625 C 69.85501861572266 190.6934051513672 68.33726501464844 196.35464477539062 105.139404296875 198.2512664794922" stroke-width="3.0" fill="none" stroke="rgb(0, 0, 0)" stroke-opacity="1.0" stroke-linecap="round" stroke-linejoin="round"/>
    <path d="M 165.7447052001953 128.9403839111328 C 199.63243103027344 114.5827407836914 179.2930908203125 95.910400390625 156.6650390625 91.04229736328125" stroke-width="3.0" fill="none" stroke="rgb(0, 0, 0)" stroke-opacity="1.0" stroke-linecap="round" stroke-linejoin="round"/>
    <path d="M 149.67555236816406 69.5748062133789 C 136.0161895751953 85.042724609375 172.29476928710938 77.87239074707031 145.01754760742188 70.84175109863281" stroke-width="3.0" fill="none" stroke="rgb(0, 0, 0)" stroke-opacity="1.0" stroke-linecap="round" stroke-linejoin="round"/>
    <path d="M 139.33688354492188 74.32551574707031 C 148.82981872558594 41.94158172607422 201.11703491210938 112.20604705810547 177.49142456054688 40.61505126953125" stroke-width="3.0" fill="none" stroke="rgb(0, 0, 0)" stroke-opacity="1.0" stroke-linecap="round" stroke-linejoin="round"/>
    <path d="M 156.66485595703125 100.69581604003906 C 168.73117065429688 105.44310760498047 175.80552673339844 103.86748504638672 179.90982055664062 116.90711212158203" stroke-width="3.0" fill="none" stroke="rgb(0, 0, 0)" stroke-opacity="1.0" stroke-linecap="round" stroke-linejoin="round"/>
    <path d="M 177.51002502441406 20.36825180053711 C 167.70571899414062 43.04998779296875 177.29495239257812 20.119142532348633 162.63609313964844 35.4748420715332" stroke-width="3.0" fill="none" stroke="rgb(0, 0, 0)" stroke-opacity="1.0" stroke-linecap="round" stroke-linejoin="round"/>
    <path d="M 121.11306762695312 102.51883697509766 C 145.69737243652344 92.76719665527344 130.17556762695312 109.00751495361328 119.8916015625 103.61284637451172" stroke-width="3.0" fill="none" stroke="rgb(0, 0, 0)" stroke-opacity="1.0" stroke-linecap="round" stroke-linejoin="round"/>
    <path d="M 67.83148956298828 130.04388427734375 C 50.584815979003906 119.58411407470703 59.57658767700195 111.1575927734375 57.721736907958984 115.77983093261719" stroke-width="3.0" fill="none" stroke="rgb(0, 0, 0)" stroke-opacity="1.0" stroke-linecap="round" stroke-linejoin="round"/>
    <path d="M 125.58051300048828 75.45553588867188 C 131.5706787109375 39.420654296875 122.75468444824219 51.51791763305664 128.2482147216797 30.539274215698242" stroke-width="3.0" fill="none" stroke="rgb(0, 0, 0)" stroke-opacity="1.0" stroke-linecap="round" stroke-linejoin="round"/>
    <path d="M 157.65542602539062 21.424715042114258 C 147.1037139892578 31.105833053588867 164.78057861328125 9.651561737060547 179.1475067138672 9.581977844238281" stroke-width="3.0" fill="none" stroke="rgb(0, 0, 0)" stroke-opacity="1.0" stroke-linecap="round" stroke-linejoin="round"/>
  </g>
</svg>
