<?xml version="1.0" ?>
<svg xmlns="http://www.w3.org/2000/svg" version="1.1" width="224" height="224">
  <defs/>
  <g>
    <path d="M 64.40090942382812 97.87474060058594 C 64.35078430175781 96.91386413574219 62.098758697509766 95.98788452148438 59.13753890991211 89.90496826171875" stroke-width="3.0" fill="none" stroke="rgb(0, 0, 0)" stroke-opacity="1.0" stroke-linecap="round" stroke-linejoin="round"/>
    <path d="M 181.12022399902344 130.30886840820312 C 175.08865356445312 122.0676040649414 169.443603515625 125.36724853515625 183.0229034423828 127.18608093261719" stroke-width="3.0" fill="none" stroke="rgb(0, 0, 0)" stroke-opacity="1.0" stroke-linecap="round" stroke-linejoin="round"/>
    <path d="M 53.47035598754883 110.99161529541016 C 46.872745513916016 109.73626708984375 50.88780975341797 94.1123046875 50.0588264465332 104.42019653320312" stroke-width="3.0" fill="none" stroke="rgb(0, 0, 0)" stroke-opacity="1.0" stroke-linecap="round" stroke-linejoin="round"/>
    <path d="M 173.72286987304688 98.59020233154297 C 168.20877075195312 114.0091552734375 164.872802734375 95.75821685791016 176.5242919921875 112.98056030273438" stroke-width="3.0" fill="none" stroke="rgb(0, 0, 0)" stroke-opacity="1.0" stroke-linecap="round" stroke-linejoin="round"/>
    <path d="M 179.23458862304688 80.03878021240234 C 177.2912139892578 83.23814392089844 175.4741668701172 77.61944580078125 190.58053588867188 88.93702697753906" stroke-width="3.0" fill="none" stroke="rgb(0, 0, 0)" stroke-opacity="1.0" stroke-linecap="round" stroke-linejoin="round"/>
    <path d="M 129.56640625 109.36359405517578 C 122.7835464477539 117.00834655761719 125.50321197509766 112.41302490234375 129.58351135253906 111.80155944824219" stroke-width="3.0" fill="none" stroke="rgb(0, 0, 0)" stroke-opacity="1.0" stroke-linecap="round" stroke-linejoin="round"/>
    <path d="M 176.01718139648438 80.7810287475586 C 182.122802734375 89.37723541259766 178.8845672607422 85.15309143066406 159.72213745117188 85.53154754638672" stroke-width="3.0" fill="none" stroke="rgb(0, 0, 0)" stroke-opacity="1.0" stroke-linecap="round" stroke-linejoin="round"/>
    <path d="M 58.464298248291016 174.0270233154297 C 58.96017074584961 164.1051483154297 53.94944381713867 176.5763702392578 59.6723518371582 164.16119384765625" stroke-width="3.0" fill="none" stroke="rgb(0, 0, 0)" stroke-opacity="1.0" stroke-linecap="round" stroke-linejoin="round"/>
    <path d="M 77.8415756225586 189.1146240234375 C 77.26854705810547 188.7769317626953 84.23983764648438 189.60409545898438 84.42830657958984 186.6315460205078" stroke-width="3.0" fill="none" stroke="rgb(0, 0, 0)" stroke-opacity="1.0" stroke-linecap="round" stroke-linejoin="round"/>
    <path d="M 80.9178466796875 51.773765563964844 C 82.79962158203125 73.57532501220703 91.97523498535156 82.84542083740234 85.02420043945312 71.56175231933594" stroke-width="3.0" fill="none" stroke="rgb(0, 0, 0)" stroke-opacity="1.0" stroke-linecap="round" stroke-linejoin="round"/>
    <path d="M 75.34341430664062 145.17532348632812 C 77.0184555053711 147.49105834960938 77.43605041503906 150.51133728027344 82.70542907714844 153.08103942871094" stroke-width="3.0" fill="none" stroke="rgb(0, 0, 0)" stroke-opacity="1.0" stroke-linecap="round" stroke-linejoin="round"/>
    <path d="M 174.470458984375 93.031494140625 C 182.90208435058594 87.80509948730469 179.29457092285156 95.1604232788086 157.3641815185547 95.74967193603516" stroke-width="3.0" fill="none" stroke="rgb(0, 0, 0)" stroke-opacity="1.0" stroke-linecap="round" stroke-linejoin="round"/>
    <path d="M 154.2857666015625 105.32723236083984 C 179.4043731689453 105.23478698730469 162.58299255371094 99.48715209960938 174.21902465820312 104.56375885009766" stroke-width="3.0" fill="none" stroke="rgb(0, 0, 0)" stroke-opacity="1.0" stroke-linecap="round" stroke-linejoin="round"/>
    <path d="M 83.66133117675781 174.44166564941406 C 90.44970703125 182.23004150390625 99.9982681274414 181.28233337402344 97.84970092773438 185.14431762695312" stroke-width="3.0" fill="none" stroke="rgb(0, 0, 0)" stroke-opacity="1.0" stroke-linecap="round" stroke-linejoin="round"/>
    <path d="M 169.5963134765625 24.370929718017578 C 166.0023193359375 18.194238662719727 173.5782928466797 32.73661422729492 172.29681396484375 46.576683044433594" stroke-width="3.0" fill="none" stroke="rgb(0, 0, 0)" stroke-opacity="1.0" stroke-linecap="round" stroke-linejoin="round"/>
    <path d="M 127.26740264892578 35.679908752441406 C 126.26364135742188 45.3010368347168 129.01092529296875 46.836524963378906 131.5182647705078 52.82761764526367" stroke-width="3.0" fill="none" stroke="rgb(0, 0, 0)" stroke-opacity="1.0" stroke-linecap="round" stroke-linejoin="round"/>
    <path d="M 77.85608673095703 21.90833854675293 C 72.19302368164062 -0.7861979603767395 80.57952880859375 10.35075855255127 100.01766967773438 42.42405319213867" stroke-width="3.0" fill="none" stroke="rgb(0, 0, 0)" stroke-opacity="1.0" stroke-linecap="round" stroke-linejoin="round"/>
    <path d="M 47.023677825927734 165.09149169921875 C 45.54246520996094 155.747314453125 41.069637298583984 158.0322265625 46.559600830078125 156.67535400390625" stroke-width="3.0" fill="none" stroke="rgb(0, 0, 0)" stroke-opacity="1.0" stroke-linecap="round" stroke-linejoin="round"/>
    <path d="M 50.11222457885742 140.44802856445312 C 55.727684020996094 139.44236755371094 39.92261505126953 145.6241455078125 45.945037841796875 143.42538452148438" stroke-width="3.0" fill="none" stroke="rgb(0, 0, 0)" stroke-opacity="1.0" stroke-linecap="round" stroke-linejoin="round"/>
    <path d="M 73.47850799560547 164.50921630859375 C 75.42556762695312 162.2238311767578 77.8457260131836 161.33453369140625 75.45642852783203 163.01181030273438" stroke-width="3.0" fill="none" stroke="rgb(0, 0, 0)" stroke-opacity="1.0" stroke-linecap="round" stroke-linejoin="round"/>
    <path d="M 75.04793548583984 187.02584838867188 C 62.84324264526367 172.71095275878906 72.49693298339844 189.07876586914062 63.729942321777344 176.9261474609375" stroke-width="3.0" fill="none" stroke="rgb(0, 0, 0)" stroke-opacity="1.0" stroke-linecap="round" stroke-linejoin="round"/>
    <path d="M 44.45753860473633 158.28836059570312 C 49.251285552978516 161.7542266845703 38.32060623168945 150.56912231445312 43.64142608642578 158.0553436279297" stroke-width="3.0" fill="none" stroke="rgb(0, 0, 0)" stroke-opacity="1.0" stroke-linecap="round" stroke-linejoin="round"/>
    <path d="M 62.996490478515625 72.84153747558594 C 50.65493392944336 84.50479888916016 57.195709228515625 71.63664245605469 42.30773162841797 102.06743621826172" stroke-width="3.0" fill="none" stroke="rgb(0, 0, 0)" stroke-opacity="1.0" stroke-linecap="round" stroke-linejoin="round"/>
    <path d="M 148.6387481689453 165.4152374267578 C 128.37686157226562 142.3179473876953 137.70321655273438 130.8687286376953 135.0043487548828 148.43873596191406" stroke-width="3.0" fill="none" stroke="rgb(0, 0, 0)" stroke-opacity="1.0" stroke-linecap="round" stroke-linejoin="round"/>
    <path d="M 141.8131561279297 48.95794677734375 C 139.19821166992188 53.711585998535156 138.05810546875 67.48432159423828 139.13711547851562 77.35848999023438" stroke-width="3.0" fill="none" stroke="rgb(0, 0, 0)" stroke-opacity="1.0" stroke-linecap="round" stroke-linejoin="round"/>
    <path d="M 147.08299255371094 103.6111068725586 C 135.7877655029297 112.53643035888672 122.2662124633789 105.12860870361328 123.08749389648438 101.57682037353516" stroke-width="3.0" fill="none" stroke="rgb(0, 0, 0)" stroke-opacity="1.0" stroke-linecap="round" stroke-linejoin="round"/>
    <path d="M 146.08570861816406 65.89187622070312 C 139.36993408203125 58.50441360473633 152.89505004882812 51.42747116088867 152.34385681152344 53.38310241699219" stroke-width="3.0" fill="none" stroke="rgb(0, 0, 0)" stroke-opacity="1.0" stroke-linecap="round" stroke-linejoin="round"/>
    <path d="M 100.74906921386719 183.2182159423828 C 97.01107025146484 178.02207946777344 77.61631774902344 179.3869171142578 123.27857971191406 181.66796875" stroke-width="3.0" fill="none" stroke="rgb(0, 0, 0)" stroke-opacity="1.0" stroke-linecap="round" stroke-linejoin="round"/>
    <path d="M 184.2613983154297 86.90345001220703 C 187.5194549560547 84.17112731933594 179.23635864257812 96.13017272949219 183.42214965820312 82.06829833984375" stroke-width="3.0" fill="none" stroke="rgb(0, 0, 0)" stroke-opacity="1.0" stroke-linecap="round" stroke-linejoin="round"/>
    <path d="M 178.93820190429688 91.27061462402344 C 171.62811279296875 89.43606567382812 174.317138671875 92.38971710205078 174.2734832763672 93.2839584350586" stroke-width="3.0" fill="none" stroke="rgb(0, 0, 0)" stroke-opacity="1.0" stroke-linecap="round" stroke-linejoin="round"/>
    <path d="M 108.4841537475586 78.25707244873047 C 102.53756713867188 68.57723236083984 127.46702575683594 78.79093170166016 109.69143676757812 81.59101867675781" stroke-width="3.0" fill="none" stroke="rgb(0, 0, 0)" stroke-opacity="1.0" stroke-linecap="round" stroke-linejoin="round"/>
    <path d="M 122.36324310302734 150.4639892578125 C 113.34535217285156 138.5549774169922 119.05138397216797 146.54026794433594 117.62755584716797 148.43017578125" stroke-width="3.0" fill="none" stroke="rgb(0, 0, 0)" stroke-opacity="1.0" stroke-linecap="round" stroke-linejoin="round"/>
    <path d="M 126.18013000488281 94.07229614257812 C 141.4550018310547 100.97583770751953 135.92874145507812 86.23859405517578 132.27491760253906 98.71721649169922" stroke-width="3.0" fill="none" stroke="rgb(0, 0, 0)" stroke-opacity="1.0" stroke-linecap="round" stroke-linejoin="round"/>
    <path d="M 172.42156982421875 109.5340347290039 C 169.9115447998047 93.42036437988281 177.49673461914062 100.84168243408203 154.93922424316406 100.20368194580078" stroke-width="3.0" fill="none" stroke="rgb(0, 0, 0)" stroke-opacity="1.0" stroke-linecap="round" stroke-linejoin="round"/>
    <path d="M 83.2126235961914 13.094406127929688 C 101.25251770019531 23.024003982543945 108.59172821044922 28.75041961669922 108.32762145996094 33.283599853515625" stroke-width="3.0" fill="none" stroke="rgb(0, 0, 0)" stroke-opacity="1.0" stroke-linecap="round" stroke-linejoin="round"/>
    <path d="M 52.97118377685547 109.25331115722656 C 52.92063903808594 110.45435333251953 66.35780334472656 117.87977600097656 57.427757263183594 115.93939971923828" stroke-width="3.0" fill="none" stroke="rgb(0, 0, 0)" stroke-opacity="1.0" stroke-linecap="round" stroke-linejoin="round"/>
    <path d="M 114.70084381103516 104.51105499267578 C 102.28567504882812 110.14673614501953 113.83602905273438 112.88874053955078 106.85093688964844 109.03749084472656" stroke-width="3.0" fill="none" stroke="rgb(0, 0, 0)" stroke-opacity="1.0" stroke-linecap="round" stroke-linejoin="round"/>
    <path d="M 38.29252243041992 113.68037414550781 C 43.49956130981445 101.28457641601562 39.48870849609375 101.59510040283203 40.931880950927734 108.39832305908203" stroke-width="3.0" fill="none" stroke="rgb(0, 0, 0)" stroke-opacity="1.0" stroke-linecap="round" stroke-linejoin="round"/>
    <path d="M 83.79205322265625 179.42483520507812 C 80.24568176269531 186.20645141601562 80.90226745605469 193.84373474121094 83.96185302734375 182.68556213378906" stroke-width="3.0" fill="none" stroke="rgb(0, 0, 0)" stroke-opacity="1.0" stroke-linecap="round" stroke-linejoin="round"/>
    <path d="M 167.18910217285156 123.42591094970703 C 166.34951782226562 118.50117492675781 165.69662475585938 107.6278076171875 150.42446899414062 104.6990737915039" stroke-width="3.0" fill="none" stroke="rgb(0, 0, 0)" stroke-opacity="1.0" stroke-linecap="round" stroke-linejoin="round"/>
    <path d="M 143.01495361328125 81.31895446777344 C 153.672607421875 76.2380142211914 135.8361053466797 80.74111938476562 151.16424560546875 82.42928314208984" stroke-width="3.0" fill="none" stroke="rgb(0, 0, 0)" stroke-opacity="1.0" stroke-linecap="round" stroke-linejoin="round"/>
    <path d="M 163.6776123046875 75.36344146728516 C 169.98500061035156 76.33155822753906 173.67352294921875 77.36443328857422 176.76316833496094 74.6163330078125" stroke-width="3.0" fill="none" stroke="rgb(0, 0, 0)" stroke-opacity="1.0" stroke-linecap="round" stroke-linejoin="round"/>
    <path d="M 144.493896484375 111.41373443603516 C 150.30056762695312 119.70613098144531 145.6105499267578 120.78534698486328 147.7626495361328 123.98017883300781" stroke-width="3.0" fill="none" stroke="rgb(0, 0, 0)" stroke-opacity="1.0" stroke-linecap="round" stroke-linejoin="round"/>
    <path d="M 169.00799560546875 25.267250061035156 C 177.61538696289062 38.62807846069336 166.5273895263672 33.17538833618164 174.45655822753906 41.06336975097656" stroke-width="3.0" fill="none" stroke="rgb(0, 0, 0)" stroke-opacity="1.0" stroke-linecap="round" stroke-linejoin="round"/>
    <path d="M 119.26834869384766 114.96847534179688 C 132.34620666503906 102.73164367675781 122.2914810180664 107.55320739746094 113.715576171875 112.4153823852539" stroke-width="3.0" fill="none" stroke="rgb(0, 0, 0)" stroke-opacity="1.0" stroke-linecap="round" stroke-linejoin="round"/>
    <path d="M 53.59043884277344 109.72901916503906 C 48.01970672607422 106.62812805175781 46.26640701293945 100.24015045166016 58.7319450378418 118.43621826171875" stroke-width="3.0" fill="none" stroke="rgb(0, 0, 0)" stroke-opacity="1.0" stroke-linecap="round" stroke-linejoin="round"/>
    <path d="M 122.92809295654297 74.83734130859375 C 122.85083770751953 58.930450439453125 120.48966217041016 62.90143585205078 106.67802429199219 59.66615676879883" stroke-width="3.0" fill="none" stroke="rgb(0, 0, 0)" stroke-opacity="1.0" stroke-linecap="round" stroke-linejoin="round"/>
    <path d="M 159.67083740234375 46.5644645690918 C 162.09652709960938 33.5440559387207 156.8893280029297 29.064998626708984 169.02394104003906 21.383953094482422" stroke-width="3.0" fill="none" stroke="rgb(0, 0, 0)" stroke-opacity="1.0" stroke-linecap="round" stroke-linejoin="round"/>
  </g>
</svg>
