<?xml version="1.0" ?>
<svg xmlns="http://www.w3.org/2000/svg" version="1.1" width="224" height="224">
  <defs/>
  <g>
    <path d="M 58.67688751220703 89.40406799316406 C 64.60043334960938 91.67916870117188 59.71488571166992 92.4557876586914 52.65103530883789 78.09835052490234" stroke-width="3.0" fill="none" stroke="rgb(0, 0, 0)" stroke-opacity="1.0" stroke-linecap="round" stroke-linejoin="round"/>
    <path d="M 184.84304809570312 121.97525787353516 C 182.98098754882812 108.72789001464844 197.24578857421875 100.31110382080078 177.16445922851562 126.68461608886719" stroke-width="3.0" fill="none" stroke="rgb(0, 0, 0)" stroke-opacity="1.0" stroke-linecap="round" stroke-linejoin="round"/>
    <path d="M 64.46232604980469 118.30721282958984 C 65.67835998535156 103.98829650878906 54.14569091796875 116.81160736083984 68.68687438964844 122.7331771850586" stroke-width="3.0" fill="none" stroke="rgb(0, 0, 0)" stroke-opacity="1.0" stroke-linecap="round" stroke-linejoin="round"/>
    <path d="M 184.25537109375 99.00691986083984 C 150.61048889160156 85.85693359375 175.35592651367188 77.96009063720703 196.1500701904297 112.49285888671875" stroke-width="3.0" fill="none" stroke="rgb(0, 0, 0)" stroke-opacity="1.0" stroke-linecap="round" stroke-linejoin="round"/>
    <path d="M 185.17469787597656 72.82796478271484 C 178.4412384033203 102.67019653320312 178.10499572753906 93.83748626708984 180.23989868164062 59.459007263183594" stroke-width="3.0" fill="none" stroke="rgb(0, 0, 0)" stroke-opacity="1.0" stroke-linecap="round" stroke-linejoin="round"/>
    <path d="M 125.96281433105469 104.44530487060547 C 145.25973510742188 111.82140350341797 98.42266845703125 101.43682098388672 135.39852905273438 100.99437713623047" stroke-width="3.0" fill="none" stroke="rgb(0, 0, 0)" stroke-opacity="1.0" stroke-linecap="round" stroke-linejoin="round"/>
    <path d="M 165.9300537109375 99.03630828857422 C 198.25045776367188 83.44786834716797 185.4801025390625 72.61128997802734 155.45455932617188 86.13496398925781" stroke-width="3.0" fill="none" stroke="rgb(0, 0, 0)" stroke-opacity="1.0" stroke-linecap="round" stroke-linejoin="round"/>
    <path d="M 56.84247970581055 181.77273559570312 C 38.0321159362793 155.82757568359375 49.65031433105469 164.88131713867188 46.05462646484375 168.91903686523438" stroke-width="3.0" fill="none" stroke="rgb(0, 0, 0)" stroke-opacity="1.0" stroke-linecap="round" stroke-linejoin="round"/>
    <path d="M 56.41815185546875 182.4231414794922 C 92.43978881835938 209.79637145996094 112.13565063476562 197.30191040039062 133.6192169189453 180.02867126464844" stroke-width="3.0" fill="none" stroke="rgb(0, 0, 0)" stroke-opacity="1.0" stroke-linecap="round" stroke-linejoin="round"/>
    <path d="M 85.72813415527344 31.521608352661133 C 96.97410583496094 63.165000915527344 83.16464233398438 6.820825099945068 85.9352035522461 50.328453063964844" stroke-width="3.0" fill="none" stroke="rgb(0, 0, 0)" stroke-opacity="1.0" stroke-linecap="round" stroke-linejoin="round"/>
    <path d="M 65.53520965576172 112.23224639892578 C 55.88888168334961 135.31382751464844 103.62474060058594 155.7428436279297 99.34408569335938 154.36709594726562" stroke-width="3.0" fill="none" stroke="rgb(0, 0, 0)" stroke-opacity="1.0" stroke-linecap="round" stroke-linejoin="round"/>
    <path d="M 145.19790649414062 74.10527801513672 C 203.30111694335938 65.80801391601562 185.60365295410156 84.8785629272461 153.5893096923828 86.54397583007812" stroke-width="3.0" fill="none" stroke="rgb(0, 0, 0)" stroke-opacity="1.0" stroke-linecap="round" stroke-linejoin="round"/>
    <path d="M 151.20608520507812 95.78463745117188 C 179.78280639648438 102.5156478881836 176.98202514648438 102.83545684814453 189.27813720703125 111.46957397460938" stroke-width="3.0" fill="none" stroke="rgb(0, 0, 0)" stroke-opacity="1.0" stroke-linecap="round" stroke-linejoin="round"/>
    <path d="M 112.58953857421875 155.75833129882812 C 145.36900329589844 142.99685668945312 115.83141326904297 153.71400451660156 117.1635971069336 148.54379272460938" stroke-width="3.0" fill="none" stroke="rgb(0, 0, 0)" stroke-opacity="1.0" stroke-linecap="round" stroke-linejoin="round"/>
    <path d="M 178.04014587402344 6.3779377937316895 C 189.45603942871094 11.225292205810547 175.5897216796875 65.60968780517578 179.05438232421875 47.163856506347656" stroke-width="3.0" fill="none" stroke="rgb(0, 0, 0)" stroke-opacity="1.0" stroke-linecap="round" stroke-linejoin="round"/>
    <path d="M 130.41326904296875 32.73267364501953 C 125.09666442871094 54.86848831176758 133.7941436767578 37.14377975463867 125.68083953857422 72.2143783569336" stroke-width="3.0" fill="none" stroke="rgb(0, 0, 0)" stroke-opacity="1.0" stroke-linecap="round" stroke-linejoin="round"/>
    <path d="M 90.05851745605469 48.42502975463867 C 74.92951965332031 -8.72150993347168 82.71857452392578 -2.0282068252563477 107.61176300048828 38.598716735839844" stroke-width="3.0" fill="none" stroke="rgb(0, 0, 0)" stroke-opacity="1.0" stroke-linecap="round" stroke-linejoin="round"/>
    <path d="M 44.566741943359375 166.1232452392578 C 39.567771911621094 153.58970642089844 38.33566665649414 146.2379150390625 41.70613479614258 157.29054260253906" stroke-width="3.0" fill="none" stroke="rgb(0, 0, 0)" stroke-opacity="1.0" stroke-linecap="round" stroke-linejoin="round"/>
    <path d="M 34.37779235839844 104.46476745605469 C 23.031631469726562 124.87535095214844 38.43215560913086 143.36282348632812 39.855674743652344 151.3970489501953" stroke-width="3.0" fill="none" stroke="rgb(0, 0, 0)" stroke-opacity="1.0" stroke-linecap="round" stroke-linejoin="round"/>
    <path d="M 88.51720428466797 149.0996856689453 C 104.8916244506836 158.32839965820312 119.5898666381836 146.87193298339844 106.52091979980469 160.04022216796875" stroke-width="3.0" fill="none" stroke="rgb(0, 0, 0)" stroke-opacity="1.0" stroke-linecap="round" stroke-linejoin="round"/>
    <path d="M 80.9599838256836 197.80078125 C 66.2146224975586 197.30555725097656 51.110008239746094 178.97628784179688 49.38081741333008 174.30177307128906" stroke-width="3.0" fill="none" stroke="rgb(0, 0, 0)" stroke-opacity="1.0" stroke-linecap="round" stroke-linejoin="round"/>
    <path d="M 44.0175895690918 163.2356719970703 C 58.076839447021484 193.5655517578125 46.0217170715332 161.1846160888672 37.40003204345703 148.57968139648438" stroke-width="3.0" fill="none" stroke="rgb(0, 0, 0)" stroke-opacity="1.0" stroke-linecap="round" stroke-linejoin="round"/>
    <path d="M 81.32242584228516 54.469974517822266 C 55.629573822021484 57.66082763671875 48.96857452392578 71.19886016845703 32.20450210571289 106.67166137695312" stroke-width="3.0" fill="none" stroke="rgb(0, 0, 0)" stroke-opacity="1.0" stroke-linecap="round" stroke-linejoin="round"/>
    <path d="M 149.97193908691406 141.93563842773438 C 130.37965393066406 157.8292236328125 119.1097183227539 147.9759979248047 129.23275756835938 151.30918884277344" stroke-width="3.0" fill="none" stroke="rgb(0, 0, 0)" stroke-opacity="1.0" stroke-linecap="round" stroke-linejoin="round"/>
    <path d="M 140.72181701660156 31.649768829345703 C 147.53648376464844 70.89970397949219 136.56509399414062 56.386497497558594 137.3048095703125 75.35498046875" stroke-width="3.0" fill="none" stroke="rgb(0, 0, 0)" stroke-opacity="1.0" stroke-linecap="round" stroke-linejoin="round"/>
    <path d="M 146.9183807373047 97.30754852294922 C 114.84541320800781 109.6098861694336 131.40679931640625 107.44068145751953 136.69554138183594 102.56143188476562" stroke-width="3.0" fill="none" stroke="rgb(0, 0, 0)" stroke-opacity="1.0" stroke-linecap="round" stroke-linejoin="round"/>
    <path d="M 136.86753845214844 71.06671142578125 C 147.8740692138672 56.68810272216797 134.67274475097656 62.82428741455078 136.77554321289062 69.84854125976562" stroke-width="3.0" fill="none" stroke="rgb(0, 0, 0)" stroke-opacity="1.0" stroke-linecap="round" stroke-linejoin="round"/>
    <path d="M 136.40151977539062 175.62643432617188 C 125.36949920654297 186.73020935058594 139.30718994140625 179.6703643798828 146.59841918945312 147.1844940185547" stroke-width="3.0" fill="none" stroke="rgb(0, 0, 0)" stroke-opacity="1.0" stroke-linecap="round" stroke-linejoin="round"/>
    <path d="M 192.00357055664062 95.5978775024414 C 170.9046173095703 72.12451934814453 154.18936157226562 84.43595123291016 182.4886932373047 86.86236572265625" stroke-width="3.0" fill="none" stroke="rgb(0, 0, 0)" stroke-opacity="1.0" stroke-linecap="round" stroke-linejoin="round"/>
    <path d="M 149.96829223632812 76.8480453491211 C 160.84747314453125 64.32841491699219 199.5146484375 78.69192504882812 178.2835235595703 65.59485626220703" stroke-width="3.0" fill="none" stroke="rgb(0, 0, 0)" stroke-opacity="1.0" stroke-linecap="round" stroke-linejoin="round"/>
    <path d="M 113.03494262695312 82.79873657226562 C 85.84271240234375 72.86843872070312 135.56776428222656 74.74695587158203 112.64794158935547 80.3448486328125" stroke-width="3.0" fill="none" stroke="rgb(0, 0, 0)" stroke-opacity="1.0" stroke-linecap="round" stroke-linejoin="round"/>
    <path d="M 153.299072265625 138.27456665039062 C 140.81483459472656 164.07846069335938 117.03665924072266 144.67816162109375 102.23381805419922 159.12950134277344" stroke-width="3.0" fill="none" stroke="rgb(0, 0, 0)" stroke-opacity="1.0" stroke-linecap="round" stroke-linejoin="round"/>
    <path d="M 125.77001953125 89.97022247314453 C 141.4103546142578 100.426025390625 133.09422302246094 74.5685806274414 128.60084533691406 105.68869018554688" stroke-width="3.0" fill="none" stroke="rgb(0, 0, 0)" stroke-opacity="1.0" stroke-linecap="round" stroke-linejoin="round"/>
    <path d="M 186.8321533203125 111.16938781738281 C 181.53451538085938 78.86767578125 185.94818115234375 95.30499267578125 141.51185607910156 83.51163482666016" stroke-width="3.0" fill="none" stroke="rgb(0, 0, 0)" stroke-opacity="1.0" stroke-linecap="round" stroke-linejoin="round"/>
    <path d="M 86.27141571044922 7.740328788757324 C 102.41038513183594 15.94972038269043 116.55050659179688 33.656009674072266 116.97545623779297 30.178272247314453" stroke-width="3.0" fill="none" stroke="rgb(0, 0, 0)" stroke-opacity="1.0" stroke-linecap="round" stroke-linejoin="round"/>
    <path d="M 62.829368591308594 119.46023559570312 C 61.2999153137207 112.09487915039062 69.26600646972656 132.19203186035156 64.63288879394531 120.16180419921875" stroke-width="3.0" fill="none" stroke="rgb(0, 0, 0)" stroke-opacity="1.0" stroke-linecap="round" stroke-linejoin="round"/>
    <path d="M 137.63995361328125 102.93901062011719 C 112.52525329589844 93.57762908935547 122.78726959228516 113.82666015625 111.15914154052734 88.47032928466797" stroke-width="3.0" fill="none" stroke="rgb(0, 0, 0)" stroke-opacity="1.0" stroke-linecap="round" stroke-linejoin="round"/>
    <path d="M 31.657047271728516 128.97987365722656 C 26.33171272277832 115.88554382324219 34.82345199584961 108.31953430175781 35.40203857421875 102.96051788330078" stroke-width="3.0" fill="none" stroke="rgb(0, 0, 0)" stroke-opacity="1.0" stroke-linecap="round" stroke-linejoin="round"/>
    <path d="M 84.94203186035156 196.91604614257812 C 70.9306640625 196.2852783203125 66.18352508544922 196.06910705566406 96.49211883544922 198.5354766845703" stroke-width="3.0" fill="none" stroke="rgb(0, 0, 0)" stroke-opacity="1.0" stroke-linecap="round" stroke-linejoin="round"/>
    <path d="M 154.8695526123047 137.65184020996094 C 206.12789916992188 110.3804931640625 180.0979461669922 98.55317687988281 156.26266479492188 91.46961212158203" stroke-width="3.0" fill="none" stroke="rgb(0, 0, 0)" stroke-opacity="1.0" stroke-linecap="round" stroke-linejoin="round"/>
    <path d="M 159.41741943359375 71.12500762939453 C 127.24101257324219 78.41856384277344 175.66232299804688 83.5909194946289 148.4252471923828 70.27772521972656" stroke-width="3.0" fill="none" stroke="rgb(0, 0, 0)" stroke-opacity="1.0" stroke-linecap="round" stroke-linejoin="round"/>
    <path d="M 140.2270050048828 79.68009185791016 C 145.200439453125 43.41716384887695 197.9092254638672 111.40245056152344 179.94793701171875 46.51420211791992" stroke-width="3.0" fill="none" stroke="rgb(0, 0, 0)" stroke-opacity="1.0" stroke-linecap="round" stroke-linejoin="round"/>
    <path d="M 158.49365234375 98.17841339111328 C 164.744873046875 102.93413543701172 172.38356018066406 102.61029052734375 182.85104370117188 119.85047912597656" stroke-width="3.0" fill="none" stroke="rgb(0, 0, 0)" stroke-opacity="1.0" stroke-linecap="round" stroke-linejoin="round"/>
    <path d="M 175.8024444580078 17.041412353515625 C 166.53070068359375 39.75048828125 173.3700408935547 21.727893829345703 162.08258056640625 35.28822326660156" stroke-width="3.0" fill="none" stroke="rgb(0, 0, 0)" stroke-opacity="1.0" stroke-linecap="round" stroke-linejoin="round"/>
    <path d="M 118.8843002319336 102.78661346435547 C 141.2350311279297 103.28833770751953 129.2924346923828 112.17517852783203 114.3442153930664 98.56910705566406" stroke-width="3.0" fill="none" stroke="rgb(0, 0, 0)" stroke-opacity="1.0" stroke-linecap="round" stroke-linejoin="round"/>
    <path d="M 71.02146911621094 130.36830139160156 C 52.34729766845703 93.92426300048828 54.39925003051758 103.43663787841797 64.2411880493164 120.8775405883789" stroke-width="3.0" fill="none" stroke="rgb(0, 0, 0)" stroke-opacity="1.0" stroke-linecap="round" stroke-linejoin="round"/>
    <path d="M 123.66368103027344 77.37464904785156 C 126.81559753417969 42.499080657958984 117.75057983398438 57.763057708740234 121.35892486572266 31.115568161010742" stroke-width="3.0" fill="none" stroke="rgb(0, 0, 0)" stroke-opacity="1.0" stroke-linecap="round" stroke-linejoin="round"/>
    <path d="M 146.1006317138672 30.680082321166992 C 143.66610717773438 40.486976623535156 157.92041015625 10.564864158630371 177.2935791015625 7.885095119476318" stroke-width="3.0" fill="none" stroke="rgb(0, 0, 0)" stroke-opacity="1.0" stroke-linecap="round" stroke-linejoin="round"/>
  </g>
</svg>
