<?xml version="1.0" ?>
<svg xmlns="http://www.w3.org/2000/svg" version="1.1" width="224" height="224">
  <defs/>
  <g>
    <path d="M 54.19743347167969 113.67806243896484 C 58.08501052856445 117.96794891357422 55.66157913208008 100.96285247802734 45.45290756225586 85.53157806396484" stroke-width="3.0" fill="none" stroke="rgb(0, 0, 0)" stroke-opacity="1.0" stroke-linecap="round" stroke-linejoin="round"/>
    <path d="M 184.2692108154297 124.97299194335938 C 182.0655517578125 104.86190032958984 184.75267028808594 116.1587142944336 182.64007568359375 119.08578491210938" stroke-width="3.0" fill="none" stroke="rgb(0, 0, 0)" stroke-opacity="1.0" stroke-linecap="round" stroke-linejoin="round"/>
    <path d="M 52.668731689453125 105.66877746582031 C 59.202972412109375 114.30730438232422 53.402198791503906 108.72991180419922 56.10680389404297 116.48008728027344" stroke-width="3.0" fill="none" stroke="rgb(0, 0, 0)" stroke-opacity="1.0" stroke-linecap="round" stroke-linejoin="round"/>
    <path d="M 182.85809326171875 92.4119873046875 C 158.8524932861328 82.6610336303711 170.7627716064453 84.56104278564453 195.0337677001953 113.09237670898438" stroke-width="3.0" fill="none" stroke="rgb(0, 0, 0)" stroke-opacity="1.0" stroke-linecap="round" stroke-linejoin="round"/>
    <path d="M 182.834716796875 73.4971694946289 C 176.95843505859375 97.1114501953125 186.47775268554688 94.50482940673828 182.96194458007812 63.2922477722168" stroke-width="3.0" fill="none" stroke="rgb(0, 0, 0)" stroke-opacity="1.0" stroke-linecap="round" stroke-linejoin="round"/>
    <path d="M 126.56929779052734 101.81635284423828 C 150.81153869628906 98.40464782714844 100.9736099243164 99.65044403076172 134.88296508789062 102.41023254394531" stroke-width="3.0" fill="none" stroke="rgb(0, 0, 0)" stroke-opacity="1.0" stroke-linecap="round" stroke-linejoin="round"/>
    <path d="M 168.6128692626953 100.1783447265625 C 203.59024047851562 78.54167175292969 173.8136749267578 69.37914276123047 156.74905395507812 86.04632568359375" stroke-width="3.0" fill="none" stroke="rgb(0, 0, 0)" stroke-opacity="1.0" stroke-linecap="round" stroke-linejoin="round"/>
    <path d="M 54.844234466552734 180.3267059326172 C 36.371826171875 157.74658203125 48.29138946533203 160.9805450439453 45.4637336730957 163.3052978515625" stroke-width="3.0" fill="none" stroke="rgb(0, 0, 0)" stroke-opacity="1.0" stroke-linecap="round" stroke-linejoin="round"/>
    <path d="M 60.49080276489258 188.3107147216797 C 90.61373901367188 205.76351928710938 108.34394836425781 197.81671142578125 125.63218688964844 186.10939025878906" stroke-width="3.0" fill="none" stroke="rgb(0, 0, 0)" stroke-opacity="1.0" stroke-linecap="round" stroke-linejoin="round"/>
    <path d="M 85.54662322998047 40.23330307006836 C 92.23005676269531 61.842674255371094 82.2885513305664 25.55022430419922 85.21224212646484 57.375484466552734" stroke-width="3.0" fill="none" stroke="rgb(0, 0, 0)" stroke-opacity="1.0" stroke-linecap="round" stroke-linejoin="round"/>
    <path d="M 61.38234329223633 121.29373168945312 C 51.57583999633789 136.02098083496094 97.1353530883789 156.15670776367188 96.06314849853516 149.50355529785156" stroke-width="3.0" fill="none" stroke="rgb(0, 0, 0)" stroke-opacity="1.0" stroke-linecap="round" stroke-linejoin="round"/>
    <path d="M 145.8430633544922 69.89524841308594 C 212.56239318847656 73.61041259765625 186.836181640625 84.87242126464844 147.81423950195312 85.17823028564453" stroke-width="3.0" fill="none" stroke="rgb(0, 0, 0)" stroke-opacity="1.0" stroke-linecap="round" stroke-linejoin="round"/>
    <path d="M 152.04457092285156 95.55236053466797 C 179.2090301513672 99.21148681640625 182.21185302734375 98.69080352783203 187.8264923095703 114.998291015625" stroke-width="3.0" fill="none" stroke="rgb(0, 0, 0)" stroke-opacity="1.0" stroke-linecap="round" stroke-linejoin="round"/>
    <path d="M 111.985107421875 156.7748565673828 C 143.28857421875 146.75746154785156 112.58360290527344 155.4069061279297 126.57293701171875 151.08103942871094" stroke-width="3.0" fill="none" stroke="rgb(0, 0, 0)" stroke-opacity="1.0" stroke-linecap="round" stroke-linejoin="round"/>
    <path d="M 175.97828674316406 7.231997966766357 C 192.27012634277344 1.1245627403259277 171.84800720214844 57.755191802978516 179.15904235839844 54.05419158935547" stroke-width="3.0" fill="none" stroke="rgb(0, 0, 0)" stroke-opacity="1.0" stroke-linecap="round" stroke-linejoin="round"/>
    <path d="M 131.851318359375 31.34434700012207 C 123.65809631347656 56.01127624511719 132.55101013183594 35.16550827026367 125.69863891601562 71.61548614501953" stroke-width="3.0" fill="none" stroke="rgb(0, 0, 0)" stroke-opacity="1.0" stroke-linecap="round" stroke-linejoin="round"/>
    <path d="M 88.3567886352539 52.18784713745117 C 71.99486541748047 -6.64896297454834 84.58988952636719 -2.258143901824951 113.60372924804688 36.19502639770508" stroke-width="3.0" fill="none" stroke="rgb(0, 0, 0)" stroke-opacity="1.0" stroke-linecap="round" stroke-linejoin="round"/>
    <path d="M 44.21083450317383 161.44482421875 C 41.13707733154297 154.6848602294922 37.25995635986328 146.5838165283203 39.25784683227539 149.5412139892578" stroke-width="3.0" fill="none" stroke="rgb(0, 0, 0)" stroke-opacity="1.0" stroke-linecap="round" stroke-linejoin="round"/>
    <path d="M 33.76743698120117 104.37397003173828 C 22.468181610107422 129.67984008789062 35.294334411621094 142.4116668701172 42.93128967285156 156.2616729736328" stroke-width="3.0" fill="none" stroke="rgb(0, 0, 0)" stroke-opacity="1.0" stroke-linecap="round" stroke-linejoin="round"/>
    <path d="M 88.40106201171875 147.0270233154297 C 102.37469482421875 158.5452423095703 109.16417694091797 151.533935546875 106.34008026123047 157.14447021484375" stroke-width="3.0" fill="none" stroke="rgb(0, 0, 0)" stroke-opacity="1.0" stroke-linecap="round" stroke-linejoin="round"/>
    <path d="M 76.27806091308594 197.85440063476562 C 56.52355194091797 188.4239044189453 54.867889404296875 183.76519775390625 47.74666213989258 172.55413818359375" stroke-width="3.0" fill="none" stroke="rgb(0, 0, 0)" stroke-opacity="1.0" stroke-linecap="round" stroke-linejoin="round"/>
    <path d="M 44.76504135131836 166.03799438476562 C 61.9053840637207 188.04489135742188 43.09016036987305 162.70912170410156 40.381309509277344 154.84896850585938" stroke-width="3.0" fill="none" stroke="rgb(0, 0, 0)" stroke-opacity="1.0" stroke-linecap="round" stroke-linejoin="round"/>
    <path d="M 80.2854995727539 52.31785583496094 C 56.99498748779297 60.22459030151367 50.45374298095703 73.29586029052734 33.10260009765625 108.55462646484375" stroke-width="3.0" fill="none" stroke="rgb(0, 0, 0)" stroke-opacity="1.0" stroke-linecap="round" stroke-linejoin="round"/>
    <path d="M 153.32147216796875 141.19773864746094 C 135.56494140625 158.02406311035156 119.93896484375 155.54034423828125 132.86862182617188 152.74942016601562" stroke-width="3.0" fill="none" stroke="rgb(0, 0, 0)" stroke-opacity="1.0" stroke-linecap="round" stroke-linejoin="round"/>
    <path d="M 140.08767700195312 31.27295684814453 C 149.10842895507812 59.52713394165039 131.89166259765625 57.288944244384766 136.0645751953125 74.56192779541016" stroke-width="3.0" fill="none" stroke="rgb(0, 0, 0)" stroke-opacity="1.0" stroke-linecap="round" stroke-linejoin="round"/>
    <path d="M 147.8533477783203 97.8847885131836 C 118.5089111328125 106.3865966796875 131.718017578125 110.6568832397461 139.78810119628906 102.13786315917969" stroke-width="3.0" fill="none" stroke="rgb(0, 0, 0)" stroke-opacity="1.0" stroke-linecap="round" stroke-linejoin="round"/>
    <path d="M 135.85366821289062 76.53199768066406 C 142.89224243164062 52.60987854003906 138.31716918945312 63.342994689941406 135.40255737304688 69.54716491699219" stroke-width="3.0" fill="none" stroke="rgb(0, 0, 0)" stroke-opacity="1.0" stroke-linecap="round" stroke-linejoin="round"/>
    <path d="M 132.42291259765625 181.632080078125 C 112.271728515625 192.51950073242188 139.14808654785156 187.88648986816406 145.0129852294922 150.8211212158203" stroke-width="3.0" fill="none" stroke="rgb(0, 0, 0)" stroke-opacity="1.0" stroke-linecap="round" stroke-linejoin="round"/>
    <path d="M 194.40350341796875 93.5871810913086 C 171.23428344726562 76.1855239868164 147.51368713378906 82.24156951904297 183.88563537597656 80.33934020996094" stroke-width="3.0" fill="none" stroke="rgb(0, 0, 0)" stroke-opacity="1.0" stroke-linecap="round" stroke-linejoin="round"/>
    <path d="M 147.43040466308594 76.15679168701172 C 164.17250061035156 58.4622917175293 193.776123046875 80.87556457519531 178.96377563476562 67.04368591308594" stroke-width="3.0" fill="none" stroke="rgb(0, 0, 0)" stroke-opacity="1.0" stroke-linecap="round" stroke-linejoin="round"/>
    <path d="M 107.68965911865234 80.98834991455078 C 92.3533935546875 71.2558822631836 138.1680908203125 75.26119232177734 109.15226745605469 84.36278533935547" stroke-width="3.0" fill="none" stroke="rgb(0, 0, 0)" stroke-opacity="1.0" stroke-linecap="round" stroke-linejoin="round"/>
    <path d="M 153.4180450439453 141.31556701660156 C 136.1606903076172 158.21368408203125 123.02567291259766 147.0874786376953 102.0272216796875 153.40451049804688" stroke-width="3.0" fill="none" stroke="rgb(0, 0, 0)" stroke-opacity="1.0" stroke-linecap="round" stroke-linejoin="round"/>
    <path d="M 122.20047760009766 89.93984985351562 C 141.1031036376953 98.43050384521484 131.37387084960938 74.58952331542969 127.54369354248047 103.81379699707031" stroke-width="3.0" fill="none" stroke="rgb(0, 0, 0)" stroke-opacity="1.0" stroke-linecap="round" stroke-linejoin="round"/>
    <path d="M 185.4127197265625 113.21389770507812 C 178.4186553955078 76.96510314941406 186.71795654296875 94.36852264404297 140.4571990966797 83.1056900024414" stroke-width="3.0" fill="none" stroke="rgb(0, 0, 0)" stroke-opacity="1.0" stroke-linecap="round" stroke-linejoin="round"/>
    <path d="M 85.50912475585938 9.6113920211792 C 109.51587677001953 14.354181289672852 113.97167205810547 33.98926544189453 124.33836364746094 31.636146545410156" stroke-width="3.0" fill="none" stroke="rgb(0, 0, 0)" stroke-opacity="1.0" stroke-linecap="round" stroke-linejoin="round"/>
    <path d="M 57.94237518310547 117.37812042236328 C 49.90742111206055 109.63597106933594 59.16702651977539 121.53308868408203 55.64612579345703 111.10551452636719" stroke-width="3.0" fill="none" stroke="rgb(0, 0, 0)" stroke-opacity="1.0" stroke-linecap="round" stroke-linejoin="round"/>
    <path d="M 127.85831451416016 107.4120864868164 C 104.001953125 97.76609802246094 119.83645629882812 113.5235366821289 110.02703857421875 92.03719329833984" stroke-width="3.0" fill="none" stroke="rgb(0, 0, 0)" stroke-opacity="1.0" stroke-linecap="round" stroke-linejoin="round"/>
    <path d="M 29.695486068725586 130.80091857910156 C 28.79062271118164 117.9418716430664 34.88713836669922 104.23133850097656 31.13471031188965 111.28511047363281" stroke-width="3.0" fill="none" stroke="rgb(0, 0, 0)" stroke-opacity="1.0" stroke-linecap="round" stroke-linejoin="round"/>
    <path d="M 80.07276916503906 196.31040954589844 C 76.5571517944336 196.75454711914062 72.61192321777344 201.5352325439453 95.54378509521484 198.49461364746094" stroke-width="3.0" fill="none" stroke="rgb(0, 0, 0)" stroke-opacity="1.0" stroke-linecap="round" stroke-linejoin="round"/>
    <path d="M 150.46966552734375 141.74777221679688 C 207.37252807617188 112.9887466430664 180.30255126953125 93.46910095214844 155.99884033203125 91.36724090576172" stroke-width="3.0" fill="none" stroke="rgb(0, 0, 0)" stroke-opacity="1.0" stroke-linecap="round" stroke-linejoin="round"/>
    <path d="M 156.20655822753906 67.46350860595703 C 125.50139617919922 78.6636962890625 170.84637451171875 85.70113372802734 147.01817321777344 72.81535339355469" stroke-width="3.0" fill="none" stroke="rgb(0, 0, 0)" stroke-opacity="1.0" stroke-linecap="round" stroke-linejoin="round"/>
    <path d="M 141.34449768066406 75.70572662353516 C 147.7407989501953 45.56499099731445 199.14781188964844 103.70531463623047 174.9246368408203 49.5660285949707" stroke-width="3.0" fill="none" stroke="rgb(0, 0, 0)" stroke-opacity="1.0" stroke-linecap="round" stroke-linejoin="round"/>
    <path d="M 154.89649963378906 95.61854553222656 C 167.23870849609375 102.22518920898438 183.38211059570312 101.3753433227539 185.15541076660156 115.88043975830078" stroke-width="3.0" fill="none" stroke="rgb(0, 0, 0)" stroke-opacity="1.0" stroke-linecap="round" stroke-linejoin="round"/>
    <path d="M 179.01129150390625 15.878876686096191 C 168.15512084960938 42.097225189208984 172.984375 22.391942977905273 158.3418731689453 37.053565979003906" stroke-width="3.0" fill="none" stroke="rgb(0, 0, 0)" stroke-opacity="1.0" stroke-linecap="round" stroke-linejoin="round"/>
    <path d="M 120.2378921508789 101.9543685913086 C 144.8721160888672 103.70809936523438 130.1199493408203 114.07805633544922 111.95377349853516 95.92878723144531" stroke-width="3.0" fill="none" stroke="rgb(0, 0, 0)" stroke-opacity="1.0" stroke-linecap="round" stroke-linejoin="round"/>
    <path d="M 60.584171295166016 111.89759826660156 C 54.56365966796875 104.01447296142578 49.33648681640625 103.86264038085938 61.23182678222656 127.42961120605469" stroke-width="3.0" fill="none" stroke="rgb(0, 0, 0)" stroke-opacity="1.0" stroke-linecap="round" stroke-linejoin="round"/>
    <path d="M 123.94677734375 76.33309173583984 C 127.45127868652344 42.81560134887695 120.17426300048828 53.778133392333984 124.37698364257812 30.06534767150879" stroke-width="3.0" fill="none" stroke="rgb(0, 0, 0)" stroke-opacity="1.0" stroke-linecap="round" stroke-linejoin="round"/>
    <path d="M 145.69976806640625 29.82841682434082 C 144.1873016357422 34.98486328125 153.7054443359375 13.822402954101562 178.2537841796875 6.4173970222473145" stroke-width="3.0" fill="none" stroke="rgb(0, 0, 0)" stroke-opacity="1.0" stroke-linecap="round" stroke-linejoin="round"/>
  </g>
</svg>
