<?xml version="1.0" ?>
<svg xmlns="http://www.w3.org/2000/svg" version="1.1" width="224" height="224">
  <defs/>
  <g>
    <path d="M 60.98289108276367 95.78842163085938 C 66.66116333007812 85.15198516845703 57.60513687133789 77.8487777709961 74.9396743774414 60.25189208984375" stroke-width="3.0" fill="none" stroke="rgb(0, 0, 0)" stroke-opacity="1.0" stroke-linecap="round" stroke-linejoin="round"/>
    <path d="M 195.93145751953125 113.03968048095703 C 181.60597229003906 104.11639404296875 192.5077362060547 100.0410385131836 177.81788635253906 126.98947143554688" stroke-width="3.0" fill="none" stroke="rgb(0, 0, 0)" stroke-opacity="1.0" stroke-linecap="round" stroke-linejoin="round"/>
    <path d="M 59.74530029296875 119.49590301513672 C 50.32853698730469 89.1904296875 58.86899185180664 113.521484375 59.681793212890625 112.40390014648438" stroke-width="3.0" fill="none" stroke="rgb(0, 0, 0)" stroke-opacity="1.0" stroke-linecap="round" stroke-linejoin="round"/>
    <path d="M 188.33226013183594 92.4913558959961 C 148.64259338378906 76.14299011230469 181.8303985595703 76.00274658203125 189.46414184570312 98.15782928466797" stroke-width="3.0" fill="none" stroke="rgb(0, 0, 0)" stroke-opacity="1.0" stroke-linecap="round" stroke-linejoin="round"/>
    <path d="M 176.56568908691406 47.48258972167969 C 193.46258544921875 90.77925872802734 181.89553833007812 99.11137390136719 179.74293518066406 54.61561965942383" stroke-width="3.0" fill="none" stroke="rgb(0, 0, 0)" stroke-opacity="1.0" stroke-linecap="round" stroke-linejoin="round"/>
    <path d="M 129.856201171875 101.06917572021484 C 149.93753051757812 114.82232666015625 97.64410400390625 101.42772674560547 136.08370971679688 101.94406127929688" stroke-width="3.0" fill="none" stroke="rgb(0, 0, 0)" stroke-opacity="1.0" stroke-linecap="round" stroke-linejoin="round"/>
    <path d="M 181.71221923828125 92.46435546875 C 164.982421875 89.42913818359375 186.77786254882812 72.3565444946289 151.2391815185547 88.3897705078125" stroke-width="3.0" fill="none" stroke="rgb(0, 0, 0)" stroke-opacity="1.0" stroke-linecap="round" stroke-linejoin="round"/>
    <path d="M 66.50883483886719 190.69076538085938 C 42.954917907714844 167.26820373535156 46.101139068603516 166.7698516845703 62.577674865722656 189.01486206054688" stroke-width="3.0" fill="none" stroke="rgb(0, 0, 0)" stroke-opacity="1.0" stroke-linecap="round" stroke-linejoin="round"/>
    <path d="M 56.7209358215332 183.40879821777344 C 83.47541046142578 213.9081573486328 138.44085693359375 197.6390838623047 137.24424743652344 160.90736389160156" stroke-width="3.0" fill="none" stroke="rgb(0, 0, 0)" stroke-opacity="1.0" stroke-linecap="round" stroke-linejoin="round"/>
    <path d="M 81.97628021240234 12.608182907104492 C 96.32044982910156 74.5194091796875 89.19873809814453 12.46474838256836 82.04574584960938 51.15929412841797" stroke-width="3.0" fill="none" stroke="rgb(0, 0, 0)" stroke-opacity="1.0" stroke-linecap="round" stroke-linejoin="round"/>
    <path d="M 60.302330017089844 93.06004333496094 C 45.34645080566406 127.2276840209961 77.68482208251953 130.67897033691406 60.186302185058594 119.33103942871094" stroke-width="3.0" fill="none" stroke="rgb(0, 0, 0)" stroke-opacity="1.0" stroke-linecap="round" stroke-linejoin="round"/>
    <path d="M 145.17689514160156 74.31777954101562 C 195.21554565429688 61.41359329223633 206.2362518310547 88.40802764892578 138.02545166015625 84.73612976074219" stroke-width="3.0" fill="none" stroke="rgb(0, 0, 0)" stroke-opacity="1.0" stroke-linecap="round" stroke-linejoin="round"/>
    <path d="M 151.63011169433594 96.59537506103516 C 190.04574584960938 100.07283782958984 177.095947265625 100.64826965332031 187.3892822265625 112.2518539428711" stroke-width="3.0" fill="none" stroke="rgb(0, 0, 0)" stroke-opacity="1.0" stroke-linecap="round" stroke-linejoin="round"/>
    <path d="M 120.94609069824219 153.23065185546875 C 176.8696746826172 156.38771057128906 97.8702163696289 147.2123565673828 100.05252838134766 153.8135528564453" stroke-width="3.0" fill="none" stroke="rgb(0, 0, 0)" stroke-opacity="1.0" stroke-linecap="round" stroke-linejoin="round"/>
    <path d="M 178.6023406982422 8.66292667388916 C 191.3362579345703 16.728313446044922 168.47181701660156 88.2651138305664 184.7736358642578 61.221527099609375" stroke-width="3.0" fill="none" stroke="rgb(0, 0, 0)" stroke-opacity="1.0" stroke-linecap="round" stroke-linejoin="round"/>
    <path d="M 149.58474731445312 27.202537536621094 C 109.72178649902344 31.44327735900879 133.08656311035156 25.791423797607422 130.2703857421875 63.79071807861328" stroke-width="3.0" fill="none" stroke="rgb(0, 0, 0)" stroke-opacity="1.0" stroke-linecap="round" stroke-linejoin="round"/>
    <path d="M 105.67145538330078 47.18057632446289 C 64.25304412841797 -6.174763202667236 84.85262298583984 2.867779493331909 121.70877838134766 34.34843444824219" stroke-width="3.0" fill="none" stroke="rgb(0, 0, 0)" stroke-opacity="1.0" stroke-linecap="round" stroke-linejoin="round"/>
    <path d="M 41.83732604980469 158.51611328125 C 43.39995193481445 159.92100524902344 39.56024169921875 157.6752166748047 49.17751693725586 176.05758666992188" stroke-width="3.0" fill="none" stroke="rgb(0, 0, 0)" stroke-opacity="1.0" stroke-linecap="round" stroke-linejoin="round"/>
    <path d="M 60.29984664916992 63.533504486083984 C 17.822179794311523 119.78638458251953 38.979793548583984 140.8362274169922 42.60708236694336 163.5745849609375" stroke-width="3.0" fill="none" stroke="rgb(0, 0, 0)" stroke-opacity="1.0" stroke-linecap="round" stroke-linejoin="round"/>
    <path d="M 68.78308868408203 133.7850799560547 C 136.70408630371094 169.97943115234375 111.34529113769531 148.79803466796875 89.5037841796875 142.56761169433594" stroke-width="3.0" fill="none" stroke="rgb(0, 0, 0)" stroke-opacity="1.0" stroke-linecap="round" stroke-linejoin="round"/>
    <path d="M 83.76659393310547 199.22393798828125 C 66.64354705810547 200.54905700683594 48.691036224365234 175.7776336669922 37.07577896118164 149.6737823486328" stroke-width="3.0" fill="none" stroke="rgb(0, 0, 0)" stroke-opacity="1.0" stroke-linecap="round" stroke-linejoin="round"/>
    <path d="M 46.1927604675293 170.1815185546875 C 68.6908950805664 202.82064819335938 49.6773567199707 175.01918029785156 38.00021743774414 147.5193634033203" stroke-width="3.0" fill="none" stroke="rgb(0, 0, 0)" stroke-opacity="1.0" stroke-linecap="round" stroke-linejoin="round"/>
    <path d="M 79.7220458984375 54.78459167480469 C 59.489566802978516 57.20045852661133 62.416648864746094 66.00489044189453 34.71824645996094 111.68577575683594" stroke-width="3.0" fill="none" stroke="rgb(0, 0, 0)" stroke-opacity="1.0" stroke-linecap="round" stroke-linejoin="round"/>
    <path d="M 145.008544921875 144.06777954101562 C 113.64846801757812 161.0222625732422 73.56793975830078 151.48780822753906 139.4216766357422 150.8576202392578" stroke-width="3.0" fill="none" stroke="rgb(0, 0, 0)" stroke-opacity="1.0" stroke-linecap="round" stroke-linejoin="round"/>
    <path d="M 148.40740966796875 28.788360595703125 C 142.16375732421875 37.026512145996094 137.8029022216797 10.837682723999023 136.9114532470703 75.05803680419922" stroke-width="3.0" fill="none" stroke="rgb(0, 0, 0)" stroke-opacity="1.0" stroke-linecap="round" stroke-linejoin="round"/>
    <path d="M 144.50698852539062 98.0020523071289 C 129.16619873046875 110.18306732177734 126.00716400146484 101.54649353027344 118.26439666748047 101.77912902832031" stroke-width="3.0" fill="none" stroke="rgb(0, 0, 0)" stroke-opacity="1.0" stroke-linecap="round" stroke-linejoin="round"/>
    <path d="M 136.64120483398438 72.28887176513672 C 147.9502716064453 55.44980239868164 134.78248596191406 69.21142578125 136.4691162109375 68.49073028564453" stroke-width="3.0" fill="none" stroke="rgb(0, 0, 0)" stroke-opacity="1.0" stroke-linecap="round" stroke-linejoin="round"/>
    <path d="M 137.75572204589844 165.4797821044922 C 135.96249389648438 170.69700622558594 141.00401306152344 163.99436950683594 146.31886291503906 143.6049346923828" stroke-width="3.0" fill="none" stroke="rgb(0, 0, 0)" stroke-opacity="1.0" stroke-linecap="round" stroke-linejoin="round"/>
    <path d="M 194.2404022216797 96.20276641845703 C 159.739013671875 68.0568618774414 184.76898193359375 60.82594299316406 182.52513122558594 94.76285552978516" stroke-width="3.0" fill="none" stroke="rgb(0, 0, 0)" stroke-opacity="1.0" stroke-linecap="round" stroke-linejoin="round"/>
    <path d="M 153.0146026611328 77.19232177734375 C 120.59660339355469 58.56123733520508 207.72564697265625 86.53508758544922 181.6116180419922 61.16848373413086" stroke-width="3.0" fill="none" stroke="rgb(0, 0, 0)" stroke-opacity="1.0" stroke-linecap="round" stroke-linejoin="round"/>
    <path d="M 112.63551330566406 81.85054779052734 C 87.29461669921875 73.43302917480469 134.63742065429688 74.93668365478516 109.87181091308594 83.33121490478516" stroke-width="3.0" fill="none" stroke="rgb(0, 0, 0)" stroke-opacity="1.0" stroke-linecap="round" stroke-linejoin="round"/>
    <path d="M 166.60116577148438 129.6309356689453 C 155.1074981689453 155.53060913085938 87.81021881103516 150.5409698486328 93.82644653320312 148.04159545898438" stroke-width="3.0" fill="none" stroke="rgb(0, 0, 0)" stroke-opacity="1.0" stroke-linecap="round" stroke-linejoin="round"/>
    <path d="M 124.79121398925781 89.8575668334961 C 140.76693725585938 99.6263198852539 134.11959838867188 72.69876861572266 127.46620178222656 108.10092163085938" stroke-width="3.0" fill="none" stroke="rgb(0, 0, 0)" stroke-opacity="1.0" stroke-linecap="round" stroke-linejoin="round"/>
    <path d="M 186.13723754882812 108.14533233642578 C 171.073486328125 90.1817855834961 168.30418395996094 94.7212142944336 145.0693359375 85.62638854980469" stroke-width="3.0" fill="none" stroke="rgb(0, 0, 0)" stroke-opacity="1.0" stroke-linecap="round" stroke-linejoin="round"/>
    <path d="M 90.21452331542969 25.405115127563477 C 123.84449005126953 28.404537200927734 84.26188659667969 31.277042388916016 149.5323486328125 29.332233428955078" stroke-width="3.0" fill="none" stroke="rgb(0, 0, 0)" stroke-opacity="1.0" stroke-linecap="round" stroke-linejoin="round"/>
    <path d="M 55.5637321472168 105.8536376953125 C 58.26101303100586 95.49028015136719 50.40635299682617 118.31781005859375 71.35455322265625 136.1408233642578" stroke-width="3.0" fill="none" stroke="rgb(0, 0, 0)" stroke-opacity="1.0" stroke-linecap="round" stroke-linejoin="round"/>
    <path d="M 136.17356872558594 104.62909698486328 C 129.224365234375 90.10433959960938 122.79889678955078 121.10165405273438 112.75798034667969 88.71565246582031" stroke-width="3.0" fill="none" stroke="rgb(0, 0, 0)" stroke-opacity="1.0" stroke-linecap="round" stroke-linejoin="round"/>
    <path d="M 38.27490997314453 149.8858184814453 C 17.78757095336914 122.13777160644531 40.3898811340332 71.20075225830078 67.14839935302734 59.1088752746582" stroke-width="3.0" fill="none" stroke="rgb(0, 0, 0)" stroke-opacity="1.0" stroke-linecap="round" stroke-linejoin="round"/>
    <path d="M 99.15562438964844 198.46827697753906 C 87.0620346069336 197.43443298339844 82.34089660644531 203.10592651367188 109.84048461914062 196.34129333496094" stroke-width="3.0" fill="none" stroke="rgb(0, 0, 0)" stroke-opacity="1.0" stroke-linecap="round" stroke-linejoin="round"/>
    <path d="M 168.72604370117188 128.49168395996094 C 196.93536376953125 113.35871887207031 191.9008331298828 85.68903350830078 153.8450164794922 89.34589385986328" stroke-width="3.0" fill="none" stroke="rgb(0, 0, 0)" stroke-opacity="1.0" stroke-linecap="round" stroke-linejoin="round"/>
    <path d="M 158.13482666015625 70.62108612060547 C 125.5177993774414 81.11604309082031 165.74806213378906 83.0582275390625 152.47073364257812 72.76861572265625" stroke-width="3.0" fill="none" stroke="rgb(0, 0, 0)" stroke-opacity="1.0" stroke-linecap="round" stroke-linejoin="round"/>
    <path d="M 141.08335876464844 79.44308471679688 C 144.25779724121094 38.517032623291016 202.24964904785156 115.36236572265625 177.94456481933594 45.21104049682617" stroke-width="3.0" fill="none" stroke="rgb(0, 0, 0)" stroke-opacity="1.0" stroke-linecap="round" stroke-linejoin="round"/>
    <path d="M 153.7379150390625 97.78909301757812 C 175.2793731689453 103.33769226074219 181.82557678222656 103.96540832519531 182.827392578125 123.7342300415039" stroke-width="3.0" fill="none" stroke="rgb(0, 0, 0)" stroke-opacity="1.0" stroke-linecap="round" stroke-linejoin="round"/>
    <path d="M 180.06704711914062 13.677470207214355 C 174.08790588378906 45.900604248046875 172.99066162109375 19.281795501708984 159.27658081054688 38.651878356933594" stroke-width="3.0" fill="none" stroke="rgb(0, 0, 0)" stroke-opacity="1.0" stroke-linecap="round" stroke-linejoin="round"/>
    <path d="M 119.28119659423828 101.23284912109375 C 142.62425231933594 95.52143096923828 129.7327880859375 112.71070098876953 128.74908447265625 103.78568267822266" stroke-width="3.0" fill="none" stroke="rgb(0, 0, 0)" stroke-opacity="1.0" stroke-linecap="round" stroke-linejoin="round"/>
    <path d="M 60.132781982421875 92.43441772460938 C 55.2642707824707 106.03535461425781 55.76673126220703 111.4420166015625 58.669395446777344 104.09909057617188" stroke-width="3.0" fill="none" stroke="rgb(0, 0, 0)" stroke-opacity="1.0" stroke-linecap="round" stroke-linejoin="round"/>
    <path d="M 124.57376861572266 77.37042236328125 C 129.87014770507812 47.21335220336914 117.98856353759766 56.03092956542969 120.6474380493164 36.66244125366211" stroke-width="3.0" fill="none" stroke="rgb(0, 0, 0)" stroke-opacity="1.0" stroke-linecap="round" stroke-linejoin="round"/>
    <path d="M 137.5514678955078 32.38188171386719 C 143.9551239013672 40.917625427246094 157.92897033691406 8.632075309753418 180.1702423095703 8.872489929199219" stroke-width="3.0" fill="none" stroke="rgb(0, 0, 0)" stroke-opacity="1.0" stroke-linecap="round" stroke-linejoin="round"/>
  </g>
</svg>
