<?xml version="1.0" ?>
<svg xmlns="http://www.w3.org/2000/svg" version="1.1" width="224" height="224">
  <defs/>
  <g>
    <path d="M 54.925384521484375 120.30069732666016 C 57.30891799926758 119.23039245605469 46.48129653930664 111.60588073730469 43.93928146362305 95.26419067382812" stroke-width="3.0" fill="none" stroke="rgb(0, 0, 0)" stroke-opacity="1.0" stroke-linecap="round" stroke-linejoin="round"/>
    <path d="M 181.53028869628906 125.8946762084961 C 186.01087951660156 107.77847290039062 184.69027709960938 113.0323486328125 188.03750610351562 119.37882995605469" stroke-width="3.0" fill="none" stroke="rgb(0, 0, 0)" stroke-opacity="1.0" stroke-linecap="round" stroke-linejoin="round"/>
    <path d="M 49.59785461425781 107.3540267944336 C 52.60649871826172 111.8388671875 47.7537727355957 106.84675598144531 49.80467224121094 111.38148498535156" stroke-width="3.0" fill="none" stroke="rgb(0, 0, 0)" stroke-opacity="1.0" stroke-linecap="round" stroke-linejoin="round"/>
    <path d="M 182.57518005371094 98.81749725341797 C 157.3326873779297 92.59163665771484 171.88294982910156 80.375732421875 194.66168212890625 113.22447204589844" stroke-width="3.0" fill="none" stroke="rgb(0, 0, 0)" stroke-opacity="1.0" stroke-linecap="round" stroke-linejoin="round"/>
    <path d="M 185.6703338623047 71.52003479003906 C 180.9381866455078 77.70618438720703 174.67886352539062 76.24909973144531 185.62335205078125 69.42755126953125" stroke-width="3.0" fill="none" stroke="rgb(0, 0, 0)" stroke-opacity="1.0" stroke-linecap="round" stroke-linejoin="round"/>
    <path d="M 128.4217987060547 96.0853271484375 C 129.95010375976562 111.53752899169922 114.91818237304688 100.4354019165039 134.81765747070312 105.48751831054688" stroke-width="3.0" fill="none" stroke="rgb(0, 0, 0)" stroke-opacity="1.0" stroke-linecap="round" stroke-linejoin="round"/>
    <path d="M 171.95506286621094 94.42024993896484 C 200.69822692871094 57.180641174316406 183.23184204101562 62.866615295410156 164.05763244628906 82.64690399169922" stroke-width="3.0" fill="none" stroke="rgb(0, 0, 0)" stroke-opacity="1.0" stroke-linecap="round" stroke-linejoin="round"/>
    <path d="M 53.981422424316406 182.4640655517578 C 35.47288513183594 154.0487518310547 43.21636962890625 162.6726531982422 41.26031494140625 157.15269470214844" stroke-width="3.0" fill="none" stroke="rgb(0, 0, 0)" stroke-opacity="1.0" stroke-linecap="round" stroke-linejoin="round"/>
    <path d="M 68.63270568847656 189.1848907470703 C 90.76643371582031 198.6478271484375 115.02950286865234 194.71728515625 105.11566925048828 194.7508544921875" stroke-width="3.0" fill="none" stroke="rgb(0, 0, 0)" stroke-opacity="1.0" stroke-linecap="round" stroke-linejoin="round"/>
    <path d="M 88.14653015136719 23.81438446044922 C 93.25850677490234 57.305908203125 88.91492462158203 27.121469497680664 91.53492736816406 49.57746505737305" stroke-width="3.0" fill="none" stroke="rgb(0, 0, 0)" stroke-opacity="1.0" stroke-linecap="round" stroke-linejoin="round"/>
    <path d="M 59.837799072265625 127.63034057617188 C 70.33650207519531 139.28636169433594 83.17256164550781 143.89295959472656 84.87265014648438 143.915771484375" stroke-width="3.0" fill="none" stroke="rgb(0, 0, 0)" stroke-opacity="1.0" stroke-linecap="round" stroke-linejoin="round"/>
    <path d="M 167.65704345703125 81.3705825805664 C 187.4747772216797 70.45586395263672 171.7523651123047 83.42056274414062 144.69358825683594 86.19713592529297" stroke-width="3.0" fill="none" stroke="rgb(0, 0, 0)" stroke-opacity="1.0" stroke-linecap="round" stroke-linejoin="round"/>
    <path d="M 156.83779907226562 101.14810943603516 C 173.91055297851562 103.15457153320312 169.17942810058594 101.78132629394531 192.17633056640625 108.2666015625" stroke-width="3.0" fill="none" stroke="rgb(0, 0, 0)" stroke-opacity="1.0" stroke-linecap="round" stroke-linejoin="round"/>
    <path d="M 93.36061096191406 158.7941131591797 C 108.20767974853516 173.19873046875 97.54129791259766 185.08824157714844 111.98818969726562 191.7620849609375" stroke-width="3.0" fill="none" stroke="rgb(0, 0, 0)" stroke-opacity="1.0" stroke-linecap="round" stroke-linejoin="round"/>
    <path d="M 172.16404724121094 9.608680725097656 C 189.33392333984375 1.220122218132019 174.24839782714844 30.395919799804688 187.00242614746094 60.87339401245117" stroke-width="3.0" fill="none" stroke="rgb(0, 0, 0)" stroke-opacity="1.0" stroke-linecap="round" stroke-linejoin="round"/>
    <path d="M 132.6022186279297 33.63969039916992 C 126.36840057373047 65.36720275878906 131.17384338378906 33.22576141357422 131.6463165283203 67.04554748535156" stroke-width="3.0" fill="none" stroke="rgb(0, 0, 0)" stroke-opacity="1.0" stroke-linecap="round" stroke-linejoin="round"/>
    <path d="M 95.90364074707031 49.28691482543945 C 69.70653533935547 0.1657021939754486 87.30305480957031 5.989389419555664 106.931640625 39.148868560791016" stroke-width="3.0" fill="none" stroke="rgb(0, 0, 0)" stroke-opacity="1.0" stroke-linecap="round" stroke-linejoin="round"/>
    <path d="M 48.17667770385742 167.52210998535156 C 39.11800765991211 157.79930114746094 44.80073928833008 159.93800354003906 44.319664001464844 164.44544982910156" stroke-width="3.0" fill="none" stroke="rgb(0, 0, 0)" stroke-opacity="1.0" stroke-linecap="round" stroke-linejoin="round"/>
    <path d="M 30.612611770629883 107.4658432006836 C 25.842313766479492 131.86410522460938 36.79255676269531 140.35182189941406 42.02445602416992 160.3730926513672" stroke-width="3.0" fill="none" stroke="rgb(0, 0, 0)" stroke-opacity="1.0" stroke-linecap="round" stroke-linejoin="round"/>
    <path d="M 84.97046661376953 150.64991760253906 C 94.84680938720703 157.99952697753906 95.84349822998047 161.7913055419922 86.88562774658203 152.25994873046875" stroke-width="3.0" fill="none" stroke="rgb(0, 0, 0)" stroke-opacity="1.0" stroke-linecap="round" stroke-linejoin="round"/>
    <path d="M 73.47642517089844 193.39649963378906 C 50.34288787841797 180.89950561523438 69.38613891601562 192.62844848632812 49.25099563598633 176.10194396972656" stroke-width="3.0" fill="none" stroke="rgb(0, 0, 0)" stroke-opacity="1.0" stroke-linecap="round" stroke-linejoin="round"/>
    <path d="M 41.983795166015625 154.5664825439453 C 49.82143783569336 169.04574584960938 42.99365997314453 155.98818969726562 35.70882034301758 145.4479522705078" stroke-width="3.0" fill="none" stroke="rgb(0, 0, 0)" stroke-opacity="1.0" stroke-linecap="round" stroke-linejoin="round"/>
    <path d="M 73.86302185058594 57.59907150268555 C 46.7579231262207 66.25885772705078 51.90653610229492 72.10578155517578 32.155540466308594 104.98139953613281" stroke-width="3.0" fill="none" stroke="rgb(0, 0, 0)" stroke-opacity="1.0" stroke-linecap="round" stroke-linejoin="round"/>
    <path d="M 146.95372009277344 157.722900390625 C 145.9138641357422 161.54608154296875 126.02174377441406 148.6522216796875 139.12002563476562 162.0186309814453" stroke-width="3.0" fill="none" stroke="rgb(0, 0, 0)" stroke-opacity="1.0" stroke-linecap="round" stroke-linejoin="round"/>
    <path d="M 142.1982879638672 31.403127670288086 C 148.28443908691406 52.82534408569336 133.7699737548828 51.478477478027344 137.28309631347656 80.0468521118164" stroke-width="3.0" fill="none" stroke="rgb(0, 0, 0)" stroke-opacity="1.0" stroke-linecap="round" stroke-linejoin="round"/>
    <path d="M 143.58807373046875 99.13965606689453 C 132.3998565673828 115.8145523071289 121.45726776123047 103.7087173461914 128.44703674316406 101.82881164550781" stroke-width="3.0" fill="none" stroke="rgb(0, 0, 0)" stroke-opacity="1.0" stroke-linecap="round" stroke-linejoin="round"/>
    <path d="M 136.97235107421875 73.85693359375 C 143.44512939453125 47.65888214111328 147.63832092285156 57.59376525878906 145.81561279296875 48.76861572265625" stroke-width="3.0" fill="none" stroke="rgb(0, 0, 0)" stroke-opacity="1.0" stroke-linecap="round" stroke-linejoin="round"/>
    <path d="M 114.6392822265625 191.52703857421875 C 99.73567962646484 189.82493591308594 112.95111083984375 205.42372131347656 134.49383544921875 172.19482421875" stroke-width="3.0" fill="none" stroke="rgb(0, 0, 0)" stroke-opacity="1.0" stroke-linecap="round" stroke-linejoin="round"/>
    <path d="M 191.19590759277344 89.74504852294922 C 154.7766876220703 78.50325012207031 151.11019897460938 88.68336486816406 183.73947143554688 82.9717788696289" stroke-width="3.0" fill="none" stroke="rgb(0, 0, 0)" stroke-opacity="1.0" stroke-linecap="round" stroke-linejoin="round"/>
    <path d="M 168.2588653564453 77.79418182373047 C 195.207275390625 75.22734069824219 200.0498809814453 67.3505859375 165.6332550048828 73.83040618896484" stroke-width="3.0" fill="none" stroke="rgb(0, 0, 0)" stroke-opacity="1.0" stroke-linecap="round" stroke-linejoin="round"/>
    <path d="M 108.5694580078125 78.60490417480469 C 91.06488800048828 69.6951675415039 140.94876098632812 76.66926574707031 106.79037475585938 80.06477355957031" stroke-width="3.0" fill="none" stroke="rgb(0, 0, 0)" stroke-opacity="1.0" stroke-linecap="round" stroke-linejoin="round"/>
    <path d="M 135.5536651611328 156.7046661376953 C 139.89642333984375 154.60894775390625 126.871826171875 156.39549255371094 104.7833251953125 137.5694122314453" stroke-width="3.0" fill="none" stroke="rgb(0, 0, 0)" stroke-opacity="1.0" stroke-linecap="round" stroke-linejoin="round"/>
    <path d="M 123.60198974609375 87.93566131591797 C 137.4529266357422 98.80796813964844 135.1385040283203 78.8712158203125 128.08779907226562 95.22230529785156" stroke-width="3.0" fill="none" stroke="rgb(0, 0, 0)" stroke-opacity="1.0" stroke-linecap="round" stroke-linejoin="round"/>
    <path d="M 188.44825744628906 95.7695083618164 C 169.03768920898438 84.7069091796875 183.7051544189453 96.91705322265625 140.5752410888672 83.80152893066406" stroke-width="3.0" fill="none" stroke="rgb(0, 0, 0)" stroke-opacity="1.0" stroke-linecap="round" stroke-linejoin="round"/>
    <path d="M 84.68794250488281 12.234066009521484 C 112.30033874511719 20.398454666137695 116.60419464111328 37.370445251464844 124.3395004272461 32.11603927612305" stroke-width="3.0" fill="none" stroke="rgb(0, 0, 0)" stroke-opacity="1.0" stroke-linecap="round" stroke-linejoin="round"/>
    <path d="M 52.542884826660156 114.20260620117188 C 49.30477523803711 109.10518646240234 56.13592529296875 123.88024139404297 51.36442565917969 113.41009521484375" stroke-width="3.0" fill="none" stroke="rgb(0, 0, 0)" stroke-opacity="1.0" stroke-linecap="round" stroke-linejoin="round"/>
    <path d="M 120.24667358398438 102.31645965576172 C 93.7369613647461 88.73738861083984 123.0616455078125 103.22532653808594 106.06131744384766 87.46714782714844" stroke-width="3.0" fill="none" stroke="rgb(0, 0, 0)" stroke-opacity="1.0" stroke-linecap="round" stroke-linejoin="round"/>
    <path d="M 30.123226165771484 116.39291381835938 C 33.9266242980957 98.0293197631836 33.05439758300781 102.61664581298828 30.510345458984375 115.71549987792969" stroke-width="3.0" fill="none" stroke="rgb(0, 0, 0)" stroke-opacity="1.0" stroke-linecap="round" stroke-linejoin="round"/>
    <path d="M 84.6846923828125 195.23001098632812 C 71.91610717773438 195.37393188476562 72.19572448730469 189.7958984375 92.51129913330078 196.00238037109375" stroke-width="3.0" fill="none" stroke="rgb(0, 0, 0)" stroke-opacity="1.0" stroke-linecap="round" stroke-linejoin="round"/>
    <path d="M 158.5403594970703 135.47389221191406 C 207.77296447753906 112.04106903076172 177.8148193359375 96.57862854003906 150.75868225097656 93.1353988647461" stroke-width="3.0" fill="none" stroke="rgb(0, 0, 0)" stroke-opacity="1.0" stroke-linecap="round" stroke-linejoin="round"/>
    <path d="M 151.75152587890625 76.65557098388672 C 127.0610580444336 65.90448760986328 161.88229370117188 89.6974105834961 152.5814666748047 71.53156280517578" stroke-width="3.0" fill="none" stroke="rgb(0, 0, 0)" stroke-opacity="1.0" stroke-linecap="round" stroke-linejoin="round"/>
    <path d="M 144.4727020263672 78.03024291992188 C 148.93704223632812 53.992279052734375 181.08360290527344 93.71533203125 186.3617706298828 60.07564163208008" stroke-width="3.0" fill="none" stroke="rgb(0, 0, 0)" stroke-opacity="1.0" stroke-linecap="round" stroke-linejoin="round"/>
    <path d="M 147.25210571289062 98.15238952636719 C 156.281982421875 98.73563385009766 171.0904541015625 108.3699951171875 184.9581756591797 113.0156021118164" stroke-width="3.0" fill="none" stroke="rgb(0, 0, 0)" stroke-opacity="1.0" stroke-linecap="round" stroke-linejoin="round"/>
    <path d="M 176.06163024902344 19.147127151489258 C 172.66261291503906 45.60850524902344 175.27554321289062 27.839080810546875 166.06297302246094 41.64147186279297" stroke-width="3.0" fill="none" stroke="rgb(0, 0, 0)" stroke-opacity="1.0" stroke-linecap="round" stroke-linejoin="round"/>
    <path d="M 125.84752655029297 104.04057312011719 C 155.08468627929688 110.55736541748047 127.19064331054688 95.89466094970703 112.0630111694336 102.2578353881836" stroke-width="3.0" fill="none" stroke="rgb(0, 0, 0)" stroke-opacity="1.0" stroke-linecap="round" stroke-linejoin="round"/>
    <path d="M 51.99626922607422 112.0821762084961 C 53.725250244140625 112.23819732666016 45.144351959228516 108.53607177734375 59.713443756103516 129.1912078857422" stroke-width="3.0" fill="none" stroke="rgb(0, 0, 0)" stroke-opacity="1.0" stroke-linecap="round" stroke-linejoin="round"/>
    <path d="M 123.32281494140625 81.62245178222656 C 130.6687774658203 60.17356872558594 113.67957305908203 54.68305587768555 123.14883422851562 33.11668014526367" stroke-width="3.0" fill="none" stroke="rgb(0, 0, 0)" stroke-opacity="1.0" stroke-linecap="round" stroke-linejoin="round"/>
    <path d="M 146.5631561279297 31.905582427978516 C 150.75291442871094 32.92509460449219 152.82847595214844 18.001041412353516 173.60107421875 8.485233306884766" stroke-width="3.0" fill="none" stroke="rgb(0, 0, 0)" stroke-opacity="1.0" stroke-linecap="round" stroke-linejoin="round"/>
  </g>
</svg>
