<?xml version="1.0" ?>
<svg xmlns="http://www.w3.org/2000/svg" version="1.1" width="224" height="224">
  <defs/>
  <g>
    <path d="M 52.20746994018555 117.26197052001953 C 53.432861328125 118.93730926513672 42.34701919555664 106.36756134033203 39.98117446899414 96.11526489257812" stroke-width="3.0" fill="none" stroke="rgb(0, 0, 0)" stroke-opacity="1.0" stroke-linecap="round" stroke-linejoin="round"/>
    <path d="M 181.26797485351562 125.1839599609375 C 177.9814453125 115.66619873046875 181.98577880859375 113.72932434082031 185.20013427734375 121.3259048461914" stroke-width="3.0" fill="none" stroke="rgb(0, 0, 0)" stroke-opacity="1.0" stroke-linecap="round" stroke-linejoin="round"/>
    <path d="M 49.69430160522461 115.51051330566406 C 47.30609130859375 110.34457397460938 47.86762237548828 105.62860870361328 54.164817810058594 122.1122055053711" stroke-width="3.0" fill="none" stroke="rgb(0, 0, 0)" stroke-opacity="1.0" stroke-linecap="round" stroke-linejoin="round"/>
    <path d="M 180.4779510498047 98.26456451416016 C 154.11839294433594 89.81404113769531 170.0851593017578 82.56639099121094 196.39773559570312 110.88043975830078" stroke-width="3.0" fill="none" stroke="rgb(0, 0, 0)" stroke-opacity="1.0" stroke-linecap="round" stroke-linejoin="round"/>
    <path d="M 180.648681640625 75.30990600585938 C 177.04708862304688 99.18030548095703 173.10716247558594 91.34938049316406 184.78884887695312 65.89053344726562" stroke-width="3.0" fill="none" stroke="rgb(0, 0, 0)" stroke-opacity="1.0" stroke-linecap="round" stroke-linejoin="round"/>
    <path d="M 131.50711059570312 101.27594757080078 C 145.21827697753906 105.97404479980469 103.18560791015625 104.71727752685547 132.07452392578125 107.61626434326172" stroke-width="3.0" fill="none" stroke="rgb(0, 0, 0)" stroke-opacity="1.0" stroke-linecap="round" stroke-linejoin="round"/>
    <path d="M 167.99591064453125 100.24449920654297 C 193.85951232910156 71.30500793457031 182.6288299560547 75.2785415649414 151.06805419921875 86.7756576538086" stroke-width="3.0" fill="none" stroke="rgb(0, 0, 0)" stroke-opacity="1.0" stroke-linecap="round" stroke-linejoin="round"/>
    <path d="M 51.68730545043945 180.44839477539062 C 36.55320358276367 149.4101104736328 48.187744140625 162.43890380859375 44.59490966796875 154.70571899414062" stroke-width="3.0" fill="none" stroke="rgb(0, 0, 0)" stroke-opacity="1.0" stroke-linecap="round" stroke-linejoin="round"/>
    <path d="M 65.17340850830078 190.6785430908203 C 81.33831787109375 204.28884887695312 109.13619232177734 195.0433349609375 111.57884216308594 193.82078552246094" stroke-width="3.0" fill="none" stroke="rgb(0, 0, 0)" stroke-opacity="1.0" stroke-linecap="round" stroke-linejoin="round"/>
    <path d="M 87.28457641601562 26.73343849182129 C 87.47197723388672 57.378929138183594 90.22187042236328 14.183340072631836 86.40111541748047 42.04384231567383" stroke-width="3.0" fill="none" stroke="rgb(0, 0, 0)" stroke-opacity="1.0" stroke-linecap="round" stroke-linejoin="round"/>
    <path d="M 56.73383331298828 126.99876403808594 C 64.78646087646484 143.9531707763672 89.71622467041016 151.6619873046875 98.20057678222656 146.415283203125" stroke-width="3.0" fill="none" stroke="rgb(0, 0, 0)" stroke-opacity="1.0" stroke-linecap="round" stroke-linejoin="round"/>
    <path d="M 150.47909545898438 68.27877044677734 C 206.98031616210938 78.9637680053711 184.09046936035156 83.91011810302734 146.37191772460938 86.627197265625" stroke-width="3.0" fill="none" stroke="rgb(0, 0, 0)" stroke-opacity="1.0" stroke-linecap="round" stroke-linejoin="round"/>
    <path d="M 145.70106506347656 99.95869445800781 C 174.87237548828125 100.45367431640625 173.14117431640625 101.15827178955078 183.72531127929688 108.8233413696289" stroke-width="3.0" fill="none" stroke="rgb(0, 0, 0)" stroke-opacity="1.0" stroke-linecap="round" stroke-linejoin="round"/>
    <path d="M 101.7938232421875 152.1622772216797 C 130.97471618652344 150.3197021484375 114.22394561767578 184.4866485595703 115.19798278808594 180.829833984375" stroke-width="3.0" fill="none" stroke="rgb(0, 0, 0)" stroke-opacity="1.0" stroke-linecap="round" stroke-linejoin="round"/>
    <path d="M 171.09193420410156 9.421274185180664 C 192.77566528320312 -1.819580316543579 173.71046447753906 53.217105865478516 185.6973876953125 60.715003967285156" stroke-width="3.0" fill="none" stroke="rgb(0, 0, 0)" stroke-opacity="1.0" stroke-linecap="round" stroke-linejoin="round"/>
    <path d="M 128.81356811523438 30.44132423400879 C 128.88052368164062 51.958736419677734 135.95899963378906 41.19287872314453 131.39601135253906 66.74983978271484" stroke-width="3.0" fill="none" stroke="rgb(0, 0, 0)" stroke-opacity="1.0" stroke-linecap="round" stroke-linejoin="round"/>
    <path d="M 92.72000122070312 44.11294937133789 C 76.25350189208984 -5.075325012207031 84.76622009277344 1.517836093902588 104.10006713867188 36.40367126464844" stroke-width="3.0" fill="none" stroke="rgb(0, 0, 0)" stroke-opacity="1.0" stroke-linecap="round" stroke-linejoin="round"/>
    <path d="M 44.41029357910156 161.9866180419922 C 42.29448699951172 151.56832885742188 38.17323684692383 152.1909942626953 41.37097930908203 153.41305541992188" stroke-width="3.0" fill="none" stroke="rgb(0, 0, 0)" stroke-opacity="1.0" stroke-linecap="round" stroke-linejoin="round"/>
    <path d="M 32.66548538208008 109.25364685058594 C 25.90969467163086 127.505615234375 37.64028549194336 141.63169860839844 41.295074462890625 156.01719665527344" stroke-width="3.0" fill="none" stroke="rgb(0, 0, 0)" stroke-opacity="1.0" stroke-linecap="round" stroke-linejoin="round"/>
    <path d="M 83.77991485595703 145.9853515625 C 100.39200592041016 154.32904052734375 103.88204956054688 151.4396209716797 97.53799438476562 149.60415649414062" stroke-width="3.0" fill="none" stroke="rgb(0, 0, 0)" stroke-opacity="1.0" stroke-linecap="round" stroke-linejoin="round"/>
    <path d="M 74.25309753417969 197.14114379882812 C 49.65995788574219 181.86001586914062 61.63176727294922 183.13075256347656 45.864479064941406 171.79788208007812" stroke-width="3.0" fill="none" stroke="rgb(0, 0, 0)" stroke-opacity="1.0" stroke-linecap="round" stroke-linejoin="round"/>
    <path d="M 43.8848876953125 162.41796875 C 58.98977279663086 184.46664428710938 41.79212951660156 162.15545654296875 38.25660705566406 148.6385498046875" stroke-width="3.0" fill="none" stroke="rgb(0, 0, 0)" stroke-opacity="1.0" stroke-linecap="round" stroke-linejoin="round"/>
    <path d="M 82.92098236083984 56.7399787902832 C 60.15750503540039 56.9661865234375 45.72197723388672 75.96924591064453 32.52392578125 108.39187622070312" stroke-width="3.0" fill="none" stroke="rgb(0, 0, 0)" stroke-opacity="1.0" stroke-linecap="round" stroke-linejoin="round"/>
    <path d="M 146.6147918701172 142.2952423095703 C 141.90977478027344 162.48236083984375 119.99954986572266 151.95445251464844 132.9230194091797 161.2606964111328" stroke-width="3.0" fill="none" stroke="rgb(0, 0, 0)" stroke-opacity="1.0" stroke-linecap="round" stroke-linejoin="round"/>
    <path d="M 140.07518005371094 31.001535415649414 C 151.38165283203125 68.57695770263672 137.04959106445312 55.62686538696289 138.7338409423828 81.48564910888672" stroke-width="3.0" fill="none" stroke="rgb(0, 0, 0)" stroke-opacity="1.0" stroke-linecap="round" stroke-linejoin="round"/>
    <path d="M 143.37741088867188 101.96234130859375 C 117.45503234863281 104.72306823730469 108.92112731933594 101.29486846923828 131.7449951171875 109.99016571044922" stroke-width="3.0" fill="none" stroke="rgb(0, 0, 0)" stroke-opacity="1.0" stroke-linecap="round" stroke-linejoin="round"/>
    <path d="M 139.7401885986328 75.50929260253906 C 151.939697265625 56.25785446166992 146.9619140625 56.1234016418457 135.93060302734375 74.29421997070312" stroke-width="3.0" fill="none" stroke="rgb(0, 0, 0)" stroke-opacity="1.0" stroke-linecap="round" stroke-linejoin="round"/>
    <path d="M 123.7459716796875 185.7158966064453 C 91.58464813232422 198.83778381347656 126.10116577148438 199.24368286132812 140.09487915039062 158.28663635253906" stroke-width="3.0" fill="none" stroke="rgb(0, 0, 0)" stroke-opacity="1.0" stroke-linecap="round" stroke-linejoin="round"/>
    <path d="M 192.6099853515625 96.05318450927734 C 158.44631958007812 70.28841400146484 135.8638458251953 99.14826965332031 184.07749938964844 85.80973815917969" stroke-width="3.0" fill="none" stroke="rgb(0, 0, 0)" stroke-opacity="1.0" stroke-linecap="round" stroke-linejoin="round"/>
    <path d="M 159.13253784179688 69.70697784423828 C 186.86097717285156 65.7352066040039 191.05978393554688 78.78850555419922 169.4197998046875 74.01620483398438" stroke-width="3.0" fill="none" stroke="rgb(0, 0, 0)" stroke-opacity="1.0" stroke-linecap="round" stroke-linejoin="round"/>
    <path d="M 109.96605682373047 81.63154602050781 C 85.0501937866211 73.76688385009766 140.33668518066406 74.6529769897461 109.12154388427734 82.27894592285156" stroke-width="3.0" fill="none" stroke="rgb(0, 0, 0)" stroke-opacity="1.0" stroke-linecap="round" stroke-linejoin="round"/>
    <path d="M 142.1748809814453 154.1133575439453 C 133.62301635742188 160.04403686523438 121.99237823486328 161.0341796875 109.47269439697266 145.8311309814453" stroke-width="3.0" fill="none" stroke="rgb(0, 0, 0)" stroke-opacity="1.0" stroke-linecap="round" stroke-linejoin="round"/>
    <path d="M 124.16297149658203 88.70191192626953 C 140.39968872070312 103.23477935791016 132.53689575195312 72.43275451660156 128.99142456054688 102.34635925292969" stroke-width="3.0" fill="none" stroke="rgb(0, 0, 0)" stroke-opacity="1.0" stroke-linecap="round" stroke-linejoin="round"/>
    <path d="M 187.00242614746094 106.88912963867188 C 180.7641143798828 82.91815948486328 185.30694580078125 94.7632064819336 141.47206115722656 85.49002838134766" stroke-width="3.0" fill="none" stroke="rgb(0, 0, 0)" stroke-opacity="1.0" stroke-linecap="round" stroke-linejoin="round"/>
    <path d="M 86.23184204101562 7.944306373596191 C 112.00667572021484 19.305675506591797 116.76220703125 34.69245529174805 123.44892120361328 30.497333526611328" stroke-width="3.0" fill="none" stroke="rgb(0, 0, 0)" stroke-opacity="1.0" stroke-linecap="round" stroke-linejoin="round"/>
    <path d="M 50.78234100341797 117.83085632324219 C 46.571197509765625 109.729736328125 55.10441589355469 123.61492919921875 53.549415588378906 121.35694122314453" stroke-width="3.0" fill="none" stroke="rgb(0, 0, 0)" stroke-opacity="1.0" stroke-linecap="round" stroke-linejoin="round"/>
    <path d="M 111.35107421875 103.27886199951172 C 98.7144775390625 87.05582427978516 112.45574188232422 110.2098159790039 102.856201171875 88.09278106689453" stroke-width="3.0" fill="none" stroke="rgb(0, 0, 0)" stroke-opacity="1.0" stroke-linecap="round" stroke-linejoin="round"/>
    <path d="M 32.33456039428711 126.9276123046875 C 30.423322677612305 105.95843505859375 36.20751190185547 103.26885223388672 30.934452056884766 116.70407104492188" stroke-width="3.0" fill="none" stroke="rgb(0, 0, 0)" stroke-opacity="1.0" stroke-linecap="round" stroke-linejoin="round"/>
    <path d="M 86.65265655517578 198.40834045410156 C 72.77510833740234 198.44813537597656 70.40443420410156 196.81471252441406 93.45756530761719 198.2609100341797" stroke-width="3.0" fill="none" stroke="rgb(0, 0, 0)" stroke-opacity="1.0" stroke-linecap="round" stroke-linejoin="round"/>
    <path d="M 147.28579711914062 144.57269287109375 C 208.51800537109375 112.23749542236328 178.15892028808594 99.34175109863281 151.33607482910156 92.52641296386719" stroke-width="3.0" fill="none" stroke="rgb(0, 0, 0)" stroke-opacity="1.0" stroke-linecap="round" stroke-linejoin="round"/>
    <path d="M 155.72203063964844 75.50543975830078 C 123.86465454101562 77.66685485839844 181.16864013671875 82.5962905883789 150.75506591796875 69.63066864013672" stroke-width="3.0" fill="none" stroke="rgb(0, 0, 0)" stroke-opacity="1.0" stroke-linecap="round" stroke-linejoin="round"/>
    <path d="M 146.43812561035156 75.4914779663086 C 148.79324340820312 50.50402069091797 185.79046630859375 102.0995101928711 183.53286743164062 52.33066940307617" stroke-width="3.0" fill="none" stroke="rgb(0, 0, 0)" stroke-opacity="1.0" stroke-linecap="round" stroke-linejoin="round"/>
    <path d="M 149.1511993408203 98.78909301757812 C 160.75184631347656 102.27278900146484 173.31605529785156 108.58232879638672 183.86166381835938 118.17707824707031" stroke-width="3.0" fill="none" stroke="rgb(0, 0, 0)" stroke-opacity="1.0" stroke-linecap="round" stroke-linejoin="round"/>
    <path d="M 178.87864685058594 14.831375122070312 C 171.4041290283203 39.160987854003906 174.4730682373047 21.571645736694336 159.80154418945312 37.7340087890625" stroke-width="3.0" fill="none" stroke="rgb(0, 0, 0)" stroke-opacity="1.0" stroke-linecap="round" stroke-linejoin="round"/>
    <path d="M 131.71401977539062 103.52423858642578 C 146.5715789794922 105.96556091308594 121.68250274658203 116.26555633544922 108.07955169677734 99.76239013671875" stroke-width="3.0" fill="none" stroke="rgb(0, 0, 0)" stroke-opacity="1.0" stroke-linecap="round" stroke-linejoin="round"/>
    <path d="M 51.890380859375 117.91437530517578 C 51.70896530151367 116.88456726074219 44.91037368774414 109.77603149414062 60.038028717041016 130.21237182617188" stroke-width="3.0" fill="none" stroke="rgb(0, 0, 0)" stroke-opacity="1.0" stroke-linecap="round" stroke-linejoin="round"/>
    <path d="M 122.53325653076172 74.88821411132812 C 124.98030853271484 56.36331558227539 116.44428253173828 52.851139068603516 122.40699768066406 32.89308547973633" stroke-width="3.0" fill="none" stroke="rgb(0, 0, 0)" stroke-opacity="1.0" stroke-linecap="round" stroke-linejoin="round"/>
    <path d="M 144.0506591796875 30.871036529541016 C 144.0133514404297 40.918758392333984 151.24266052246094 16.724971771240234 173.85726928710938 8.00206184387207" stroke-width="3.0" fill="none" stroke="rgb(0, 0, 0)" stroke-opacity="1.0" stroke-linecap="round" stroke-linejoin="round"/>
  </g>
</svg>
