<?xml version="1.0" ?>
<svg xmlns="http://www.w3.org/2000/svg" version="1.1" width="224" height="224">
  <defs/>
  <g>
    <path d="M 55.8707160949707 109.46847534179688 C 55.43229675292969 115.82179260253906 56.9715576171875 100.39385986328125 45.84601593017578 84.91361236572266" stroke-width="3.0" fill="none" stroke="rgb(0, 0, 0)" stroke-opacity="1.0" stroke-linecap="round" stroke-linejoin="round"/>
    <path d="M 186.7125244140625 121.13188171386719 C 180.67013549804688 104.45359802246094 183.74591064453125 114.27094268798828 179.0901336669922 128.30104064941406" stroke-width="3.0" fill="none" stroke="rgb(0, 0, 0)" stroke-opacity="1.0" stroke-linecap="round" stroke-linejoin="round"/>
    <path d="M 57.19546127319336 105.39653778076172 C 55.498050689697266 113.75273895263672 53.74319076538086 108.44813537597656 59.54219436645508 116.78092193603516" stroke-width="3.0" fill="none" stroke="rgb(0, 0, 0)" stroke-opacity="1.0" stroke-linecap="round" stroke-linejoin="round"/>
    <path d="M 180.78866577148438 91.46442413330078 C 156.83445739746094 82.41973876953125 172.74920654296875 83.37664031982422 196.16848754882812 113.48189544677734" stroke-width="3.0" fill="none" stroke="rgb(0, 0, 0)" stroke-opacity="1.0" stroke-linecap="round" stroke-linejoin="round"/>
    <path d="M 181.8040771484375 72.26715087890625 C 177.1520538330078 95.99987030029297 187.1669464111328 91.45668029785156 182.67652893066406 59.757266998291016" stroke-width="3.0" fill="none" stroke="rgb(0, 0, 0)" stroke-opacity="1.0" stroke-linecap="round" stroke-linejoin="round"/>
    <path d="M 125.24095916748047 102.40750885009766 C 154.02098083496094 93.166748046875 106.58291625976562 94.70026397705078 133.76596069335938 102.37197875976562" stroke-width="3.0" fill="none" stroke="rgb(0, 0, 0)" stroke-opacity="1.0" stroke-linecap="round" stroke-linejoin="round"/>
    <path d="M 168.5363006591797 98.45531463623047 C 205.9571990966797 83.56241607666016 175.96868896484375 67.67378234863281 157.895263671875 83.66332244873047" stroke-width="3.0" fill="none" stroke="rgb(0, 0, 0)" stroke-opacity="1.0" stroke-linecap="round" stroke-linejoin="round"/>
    <path d="M 56.58662796020508 183.97824096679688 C 39.81809997558594 155.3770751953125 45.23691940307617 163.56251525878906 45.8825569152832 166.5649871826172" stroke-width="3.0" fill="none" stroke="rgb(0, 0, 0)" stroke-opacity="1.0" stroke-linecap="round" stroke-linejoin="round"/>
    <path d="M 61.725643157958984 187.42572021484375 C 88.92119598388672 209.4586181640625 109.46914672851562 199.4689483642578 125.91787719726562 183.4913787841797" stroke-width="3.0" fill="none" stroke="rgb(0, 0, 0)" stroke-opacity="1.0" stroke-linecap="round" stroke-linejoin="round"/>
    <path d="M 84.9928970336914 38.82341384887695 C 95.2428970336914 56.29799270629883 80.55481719970703 20.213340759277344 85.12217712402344 56.352962493896484" stroke-width="3.0" fill="none" stroke="rgb(0, 0, 0)" stroke-opacity="1.0" stroke-linecap="round" stroke-linejoin="round"/>
    <path d="M 61.742984771728516 120.09495544433594 C 58.12134552001953 130.83544921875 102.36477661132812 154.02178955078125 99.42632293701172 148.25228881835938" stroke-width="3.0" fill="none" stroke="rgb(0, 0, 0)" stroke-opacity="1.0" stroke-linecap="round" stroke-linejoin="round"/>
    <path d="M 144.30902099609375 72.8277359008789 C 213.50172424316406 66.70760345458984 185.98936462402344 81.35588073730469 150.85418701171875 84.20105743408203" stroke-width="3.0" fill="none" stroke="rgb(0, 0, 0)" stroke-opacity="1.0" stroke-linecap="round" stroke-linejoin="round"/>
    <path d="M 149.5026092529297 93.93546295166016 C 184.81773376464844 98.38225555419922 184.1035614013672 95.54981994628906 188.71241760253906 113.35525512695312" stroke-width="3.0" fill="none" stroke="rgb(0, 0, 0)" stroke-opacity="1.0" stroke-linecap="round" stroke-linejoin="round"/>
    <path d="M 110.85975646972656 157.0328369140625 C 142.87615966796875 144.87518310546875 113.40353393554688 156.7411651611328 124.49530029296875 152.41717529296875" stroke-width="3.0" fill="none" stroke="rgb(0, 0, 0)" stroke-opacity="1.0" stroke-linecap="round" stroke-linejoin="round"/>
    <path d="M 177.10630798339844 7.986782550811768 C 190.47581481933594 3.545747995376587 174.6394500732422 61.787506103515625 182.23802185058594 56.03156661987305" stroke-width="3.0" fill="none" stroke="rgb(0, 0, 0)" stroke-opacity="1.0" stroke-linecap="round" stroke-linejoin="round"/>
    <path d="M 131.47207641601562 30.506834030151367 C 123.60458374023438 55.2664909362793 135.61575317382812 30.208370208740234 124.7033920288086 76.36479187011719" stroke-width="3.0" fill="none" stroke="rgb(0, 0, 0)" stroke-opacity="1.0" stroke-linecap="round" stroke-linejoin="round"/>
    <path d="M 89.1742935180664 51.08682632446289 C 71.0011978149414 -5.233990669250488 83.5303955078125 0.7411295771598816 113.52820587158203 30.418895721435547" stroke-width="3.0" fill="none" stroke="rgb(0, 0, 0)" stroke-opacity="1.0" stroke-linecap="round" stroke-linejoin="round"/>
    <path d="M 44.06800842285156 162.04364013671875 C 41.060211181640625 154.0118865966797 36.28629684448242 148.1871795654297 40.80528259277344 152.24606323242188" stroke-width="3.0" fill="none" stroke="rgb(0, 0, 0)" stroke-opacity="1.0" stroke-linecap="round" stroke-linejoin="round"/>
    <path d="M 36.52486801147461 100.98352813720703 C 22.75557518005371 127.72259521484375 36.89756393432617 141.3627166748047 40.92933654785156 155.8503875732422" stroke-width="3.0" fill="none" stroke="rgb(0, 0, 0)" stroke-opacity="1.0" stroke-linecap="round" stroke-linejoin="round"/>
    <path d="M 88.17985534667969 145.5048065185547 C 103.07748413085938 161.23268127441406 115.93655395507812 142.5377197265625 107.96826171875 158.4156036376953" stroke-width="3.0" fill="none" stroke="rgb(0, 0, 0)" stroke-opacity="1.0" stroke-linecap="round" stroke-linejoin="round"/>
    <path d="M 78.04794311523438 198.18551635742188 C 59.406551361083984 190.54286193847656 56.088539123535156 181.07791137695312 50.77524185180664 172.8977813720703" stroke-width="3.0" fill="none" stroke="rgb(0, 0, 0)" stroke-opacity="1.0" stroke-linecap="round" stroke-linejoin="round"/>
    <path d="M 45.49956130981445 164.6787109375 C 59.57305908203125 194.24281311035156 44.91706848144531 164.109375 41.17508316040039 153.94528198242188" stroke-width="3.0" fill="none" stroke="rgb(0, 0, 0)" stroke-opacity="1.0" stroke-linecap="round" stroke-linejoin="round"/>
    <path d="M 80.46871948242188 54.10660934448242 C 55.570289611816406 61.0219612121582 53.730533599853516 73.35295104980469 32.980918884277344 107.25486755371094" stroke-width="3.0" fill="none" stroke="rgb(0, 0, 0)" stroke-opacity="1.0" stroke-linecap="round" stroke-linejoin="round"/>
    <path d="M 153.01275634765625 139.22206115722656 C 139.9022979736328 158.111083984375 119.27088928222656 146.9387664794922 132.94265747070312 152.4459686279297" stroke-width="3.0" fill="none" stroke="rgb(0, 0, 0)" stroke-opacity="1.0" stroke-linecap="round" stroke-linejoin="round"/>
    <path d="M 138.34877014160156 30.207950592041016 C 148.5253143310547 63.969451904296875 130.6162872314453 53.495452880859375 134.7887725830078 73.69599151611328" stroke-width="3.0" fill="none" stroke="rgb(0, 0, 0)" stroke-opacity="1.0" stroke-linecap="round" stroke-linejoin="round"/>
    <path d="M 146.74478149414062 97.78485870361328 C 116.86162567138672 106.56292724609375 131.83258056640625 107.52311706542969 134.19618225097656 102.21216583251953" stroke-width="3.0" fill="none" stroke="rgb(0, 0, 0)" stroke-opacity="1.0" stroke-linecap="round" stroke-linejoin="round"/>
    <path d="M 136.21861267089844 70.26791381835938 C 143.5951385498047 54.846195220947266 135.65396118164062 64.18602752685547 135.2720489501953 69.15876007080078" stroke-width="3.0" fill="none" stroke="rgb(0, 0, 0)" stroke-opacity="1.0" stroke-linecap="round" stroke-linejoin="round"/>
    <path d="M 133.59613037109375 176.4736328125 C 116.27733612060547 186.1051788330078 140.16224670410156 185.42274475097656 145.98204040527344 148.6405487060547" stroke-width="3.0" fill="none" stroke="rgb(0, 0, 0)" stroke-opacity="1.0" stroke-linecap="round" stroke-linejoin="round"/>
    <path d="M 194.77943420410156 95.94776153564453 C 167.36122131347656 74.3372573852539 150.35501098632812 80.15694427490234 183.92657470703125 82.01142883300781" stroke-width="3.0" fill="none" stroke="rgb(0, 0, 0)" stroke-opacity="1.0" stroke-linecap="round" stroke-linejoin="round"/>
    <path d="M 147.7952117919922 76.1509017944336 C 170.12474060058594 62.68128204345703 200.0745391845703 77.42792510986328 178.29197692871094 63.49903106689453" stroke-width="3.0" fill="none" stroke="rgb(0, 0, 0)" stroke-opacity="1.0" stroke-linecap="round" stroke-linejoin="round"/>
    <path d="M 110.53034973144531 79.85363006591797 C 94.01111602783203 71.47883605957031 140.04689025878906 78.26995849609375 108.19304656982422 81.33238983154297" stroke-width="3.0" fill="none" stroke="rgb(0, 0, 0)" stroke-opacity="1.0" stroke-linecap="round" stroke-linejoin="round"/>
    <path d="M 150.38059997558594 141.72476196289062 C 130.14431762695312 156.44027709960938 121.69998931884766 146.87472534179688 103.30268859863281 156.6628875732422" stroke-width="3.0" fill="none" stroke="rgb(0, 0, 0)" stroke-opacity="1.0" stroke-linecap="round" stroke-linejoin="round"/>
    <path d="M 124.93233489990234 86.01258850097656 C 144.17062377929688 95.91107177734375 131.49278259277344 69.10363006591797 130.50758361816406 103.4876480102539" stroke-width="3.0" fill="none" stroke="rgb(0, 0, 0)" stroke-opacity="1.0" stroke-linecap="round" stroke-linejoin="round"/>
    <path d="M 186.459228515625 113.42073822021484 C 177.85096740722656 76.2098617553711 184.51034545898438 93.73211669921875 140.4021759033203 82.17061614990234" stroke-width="3.0" fill="none" stroke="rgb(0, 0, 0)" stroke-opacity="1.0" stroke-linecap="round" stroke-linejoin="round"/>
    <path d="M 86.85134887695312 8.623363494873047 C 108.78357696533203 13.416552543640137 116.8863525390625 33.63471603393555 124.92281341552734 29.157230377197266" stroke-width="3.0" fill="none" stroke="rgb(0, 0, 0)" stroke-opacity="1.0" stroke-linecap="round" stroke-linejoin="round"/>
    <path d="M 61.18624496459961 118.7192611694336 C 48.80044937133789 109.15633392333984 66.05239868164062 116.47280883789062 58.314823150634766 115.12796783447266" stroke-width="3.0" fill="none" stroke="rgb(0, 0, 0)" stroke-opacity="1.0" stroke-linecap="round" stroke-linejoin="round"/>
    <path d="M 130.39700317382812 106.44715881347656 C 112.98497772216797 96.52837371826172 119.4614028930664 111.1806411743164 111.34798431396484 90.33051300048828" stroke-width="3.0" fill="none" stroke="rgb(0, 0, 0)" stroke-opacity="1.0" stroke-linecap="round" stroke-linejoin="round"/>
    <path d="M 31.232648849487305 131.99774169921875 C 27.96133041381836 114.55724334716797 35.05217361450195 103.54065704345703 31.491785049438477 111.91149139404297" stroke-width="3.0" fill="none" stroke="rgb(0, 0, 0)" stroke-opacity="1.0" stroke-linecap="round" stroke-linejoin="round"/>
    <path d="M 77.09760284423828 196.9791259765625 C 73.80377960205078 192.43902587890625 68.36196899414062 195.4712371826172 92.77831268310547 199.88389587402344" stroke-width="3.0" fill="none" stroke="rgb(0, 0, 0)" stroke-opacity="1.0" stroke-linecap="round" stroke-linejoin="round"/>
    <path d="M 151.76394653320312 139.7803192138672 C 211.15060424804688 113.79222869873047 184.38699340820312 92.67002868652344 154.3262939453125 88.79985809326172" stroke-width="3.0" fill="none" stroke="rgb(0, 0, 0)" stroke-opacity="1.0" stroke-linecap="round" stroke-linejoin="round"/>
    <path d="M 156.95559692382812 68.37263488769531 C 126.94318389892578 79.90789031982422 174.06585693359375 85.03585052490234 145.11895751953125 69.56012725830078" stroke-width="3.0" fill="none" stroke="rgb(0, 0, 0)" stroke-opacity="1.0" stroke-linecap="round" stroke-linejoin="round"/>
    <path d="M 140.2421112060547 77.5682144165039 C 147.63702392578125 43.7246208190918 195.8809051513672 105.95866394042969 178.6494598388672 48.701904296875" stroke-width="3.0" fill="none" stroke="rgb(0, 0, 0)" stroke-opacity="1.0" stroke-linecap="round" stroke-linejoin="round"/>
    <path d="M 157.0571746826172 94.79298400878906 C 167.61634826660156 100.5538330078125 184.0314483642578 100.33793640136719 186.5674591064453 112.71836853027344" stroke-width="3.0" fill="none" stroke="rgb(0, 0, 0)" stroke-opacity="1.0" stroke-linecap="round" stroke-linejoin="round"/>
    <path d="M 176.71966552734375 14.46500301361084 C 171.29788208007812 46.740447998046875 173.3009490966797 21.652650833129883 157.53916931152344 39.4774284362793" stroke-width="3.0" fill="none" stroke="rgb(0, 0, 0)" stroke-opacity="1.0" stroke-linecap="round" stroke-linejoin="round"/>
    <path d="M 115.17416381835938 95.56874084472656 C 141.81027221679688 105.80271911621094 130.88514709472656 114.99125671386719 114.67398834228516 96.1781997680664" stroke-width="3.0" fill="none" stroke="rgb(0, 0, 0)" stroke-opacity="1.0" stroke-linecap="round" stroke-linejoin="round"/>
    <path d="M 57.78981399536133 117.33317565917969 C 57.599273681640625 102.02476501464844 49.938472747802734 107.94054412841797 61.745689392089844 126.83729553222656" stroke-width="3.0" fill="none" stroke="rgb(0, 0, 0)" stroke-opacity="1.0" stroke-linecap="round" stroke-linejoin="round"/>
    <path d="M 124.23564910888672 78.57974243164062 C 129.2115936279297 37.35493469238281 120.5406723022461 52.141357421875 125.41998291015625 32.81617736816406" stroke-width="3.0" fill="none" stroke="rgb(0, 0, 0)" stroke-opacity="1.0" stroke-linecap="round" stroke-linejoin="round"/>
    <path d="M 149.59295654296875 29.925752639770508 C 145.83457946777344 37.52366638183594 155.31002807617188 13.365150451660156 177.70640563964844 8.107307434082031" stroke-width="3.0" fill="none" stroke="rgb(0, 0, 0)" stroke-opacity="1.0" stroke-linecap="round" stroke-linejoin="round"/>
  </g>
</svg>
