<?xml version="1.0" ?>
<svg xmlns="http://www.w3.org/2000/svg" version="1.1" width="224" height="224">
  <defs/>
  <g>
    <path d="M 55.346290588378906 119.3984603881836 C 58.286903381347656 118.5743637084961 49.10367965698242 111.06990814208984 42.46707534790039 95.75131225585938" stroke-width="3.0" fill="none" stroke="rgb(0, 0, 0)" stroke-opacity="1.0" stroke-linecap="round" stroke-linejoin="round"/>
    <path d="M 184.7481231689453 123.53101348876953 C 181.54000854492188 107.88151550292969 182.91343688964844 112.03851318359375 188.4461212158203 117.79581451416016" stroke-width="3.0" fill="none" stroke="rgb(0, 0, 0)" stroke-opacity="1.0" stroke-linecap="round" stroke-linejoin="round"/>
    <path d="M 49.33568572998047 106.91751861572266 C 54.148399353027344 110.51687622070312 51.4555549621582 106.06399536132812 50.85809326171875 112.07157897949219" stroke-width="3.0" fill="none" stroke="rgb(0, 0, 0)" stroke-opacity="1.0" stroke-linecap="round" stroke-linejoin="round"/>
    <path d="M 184.43890380859375 99.66425323486328 C 158.79847717285156 93.07482147216797 173.77687072753906 82.47135925292969 195.39999389648438 111.09130859375" stroke-width="3.0" fill="none" stroke="rgb(0, 0, 0)" stroke-opacity="1.0" stroke-linecap="round" stroke-linejoin="round"/>
    <path d="M 183.19728088378906 71.03282928466797 C 180.21865844726562 80.8154067993164 173.78981018066406 75.6302719116211 184.6581268310547 70.44420623779297" stroke-width="3.0" fill="none" stroke="rgb(0, 0, 0)" stroke-opacity="1.0" stroke-linecap="round" stroke-linejoin="round"/>
    <path d="M 130.52139282226562 99.19403076171875 C 128.02835083007812 111.66848754882812 117.06034851074219 100.89989471435547 132.77700805664062 104.13404083251953" stroke-width="3.0" fill="none" stroke="rgb(0, 0, 0)" stroke-opacity="1.0" stroke-linecap="round" stroke-linejoin="round"/>
    <path d="M 174.58505249023438 84.85438537597656 C 200.80799865722656 65.05550384521484 187.77723693847656 68.7649917602539 162.92625427246094 85.7599868774414" stroke-width="3.0" fill="none" stroke="rgb(0, 0, 0)" stroke-opacity="1.0" stroke-linecap="round" stroke-linejoin="round"/>
    <path d="M 54.93143081665039 182.9857635498047 C 39.65088653564453 153.4875946044922 51.23329544067383 160.7520751953125 43.98271179199219 161.59263610839844" stroke-width="3.0" fill="none" stroke="rgb(0, 0, 0)" stroke-opacity="1.0" stroke-linecap="round" stroke-linejoin="round"/>
    <path d="M 66.16407012939453 190.50962829589844 C 93.63948822021484 199.2844696044922 116.11344909667969 197.12510681152344 99.12128448486328 189.03094482421875" stroke-width="3.0" fill="none" stroke="rgb(0, 0, 0)" stroke-opacity="1.0" stroke-linecap="round" stroke-linejoin="round"/>
    <path d="M 90.77782440185547 24.169544219970703 C 91.27745056152344 56.669410705566406 93.5321044921875 29.68529510498047 91.93396759033203 51.07783508300781" stroke-width="3.0" fill="none" stroke="rgb(0, 0, 0)" stroke-opacity="1.0" stroke-linecap="round" stroke-linejoin="round"/>
    <path d="M 61.25706481933594 128.3283233642578 C 69.1113052368164 143.46922302246094 79.58626556396484 146.49615478515625 82.38040924072266 149.42880249023438" stroke-width="3.0" fill="none" stroke="rgb(0, 0, 0)" stroke-opacity="1.0" stroke-linecap="round" stroke-linejoin="round"/>
    <path d="M 164.5254364013672 76.72432708740234 C 188.181396484375 70.9691390991211 171.24208068847656 81.59620666503906 149.28497314453125 89.2004165649414" stroke-width="3.0" fill="none" stroke="rgb(0, 0, 0)" stroke-opacity="1.0" stroke-linecap="round" stroke-linejoin="round"/>
    <path d="M 157.70594787597656 100.60391998291016 C 171.89930725097656 102.96556091308594 165.29965209960938 103.22705078125 185.50811767578125 105.88072967529297" stroke-width="3.0" fill="none" stroke="rgb(0, 0, 0)" stroke-opacity="1.0" stroke-linecap="round" stroke-linejoin="round"/>
    <path d="M 88.64863586425781 164.2681884765625 C 99.39356994628906 182.7235870361328 94.84158325195312 186.818603515625 101.3348617553711 191.13162231445312" stroke-width="3.0" fill="none" stroke="rgb(0, 0, 0)" stroke-opacity="1.0" stroke-linecap="round" stroke-linejoin="round"/>
    <path d="M 172.76513671875 8.132545471191406 C 182.4263153076172 -0.1128992810845375 181.65164184570312 23.754043579101562 183.19561767578125 64.19198608398438" stroke-width="3.0" fill="none" stroke="rgb(0, 0, 0)" stroke-opacity="1.0" stroke-linecap="round" stroke-linejoin="round"/>
    <path d="M 129.9386444091797 35.5384635925293 C 126.30540466308594 64.82831573486328 126.6007308959961 42.8070068359375 128.74533081054688 61.22517013549805" stroke-width="3.0" fill="none" stroke="rgb(0, 0, 0)" stroke-opacity="1.0" stroke-linecap="round" stroke-linejoin="round"/>
    <path d="M 98.58439636230469 46.640533447265625 C 69.94178771972656 -1.5685932636260986 88.50897979736328 4.7182769775390625 105.24362182617188 43.0938835144043" stroke-width="3.0" fill="none" stroke="rgb(0, 0, 0)" stroke-opacity="1.0" stroke-linecap="round" stroke-linejoin="round"/>
    <path d="M 47.244503021240234 168.29859924316406 C 39.736263275146484 160.50198364257812 52.865970611572266 161.95289611816406 45.01652526855469 164.10494995117188" stroke-width="3.0" fill="none" stroke="rgb(0, 0, 0)" stroke-opacity="1.0" stroke-linecap="round" stroke-linejoin="round"/>
    <path d="M 32.943138122558594 109.23611450195312 C 27.50177001953125 128.51663208007812 37.23249816894531 139.29945373535156 43.981651306152344 158.12249755859375" stroke-width="3.0" fill="none" stroke="rgb(0, 0, 0)" stroke-opacity="1.0" stroke-linecap="round" stroke-linejoin="round"/>
    <path d="M 76.75416564941406 154.46429443359375 C 89.60995483398438 163.29576110839844 89.8940200805664 166.24827575683594 83.36750030517578 160.12030029296875" stroke-width="3.0" fill="none" stroke="rgb(0, 0, 0)" stroke-opacity="1.0" stroke-linecap="round" stroke-linejoin="round"/>
    <path d="M 76.64176177978516 195.63787841796875 C 49.15159225463867 178.08404541015625 70.48454284667969 192.2600555419922 47.95249938964844 174.3982696533203" stroke-width="3.0" fill="none" stroke="rgb(0, 0, 0)" stroke-opacity="1.0" stroke-linecap="round" stroke-linejoin="round"/>
    <path d="M 44.39360427856445 156.7187957763672 C 44.87078857421875 169.35372924804688 39.85285568237305 156.1795196533203 37.86299514770508 145.02593994140625" stroke-width="3.0" fill="none" stroke="rgb(0, 0, 0)" stroke-opacity="1.0" stroke-linecap="round" stroke-linejoin="round"/>
    <path d="M 65.79222869873047 60.06428146362305 C 45.91387939453125 72.77088165283203 49.654483795166016 73.61820983886719 33.08283615112305 104.30461883544922" stroke-width="3.0" fill="none" stroke="rgb(0, 0, 0)" stroke-opacity="1.0" stroke-linecap="round" stroke-linejoin="round"/>
    <path d="M 143.39321899414062 159.0379638671875 C 135.64561462402344 160.79771423339844 127.04854583740234 151.74972534179688 138.0070037841797 164.52020263671875" stroke-width="3.0" fill="none" stroke="rgb(0, 0, 0)" stroke-opacity="1.0" stroke-linecap="round" stroke-linejoin="round"/>
    <path d="M 140.6417999267578 32.61753463745117 C 152.15866088867188 57.15009689331055 132.7377166748047 49.00483703613281 138.67221069335938 84.91986083984375" stroke-width="3.0" fill="none" stroke="rgb(0, 0, 0)" stroke-opacity="1.0" stroke-linecap="round" stroke-linejoin="round"/>
    <path d="M 144.4108123779297 99.41734313964844 C 132.18869018554688 112.69967651367188 112.75496673583984 104.52913665771484 127.84284210205078 102.87992858886719" stroke-width="3.0" fill="none" stroke="rgb(0, 0, 0)" stroke-opacity="1.0" stroke-linecap="round" stroke-linejoin="round"/>
    <path d="M 138.70449829101562 75.63951873779297 C 143.16690063476562 52.04822540283203 150.53939819335938 55.60169982910156 149.31085205078125 46.23052215576172" stroke-width="3.0" fill="none" stroke="rgb(0, 0, 0)" stroke-opacity="1.0" stroke-linecap="round" stroke-linejoin="round"/>
    <path d="M 111.57801818847656 192.8942413330078 C 87.58089447021484 184.8225860595703 106.9130630493164 210.2613983154297 133.00328063964844 179.8434600830078" stroke-width="3.0" fill="none" stroke="rgb(0, 0, 0)" stroke-opacity="1.0" stroke-linecap="round" stroke-linejoin="round"/>
    <path d="M 186.9427490234375 87.923583984375 C 155.51296997070312 83.352294921875 157.43682861328125 86.96315002441406 177.2565460205078 79.70842742919922" stroke-width="3.0" fill="none" stroke="rgb(0, 0, 0)" stroke-opacity="1.0" stroke-linecap="round" stroke-linejoin="round"/>
    <path d="M 168.74270629882812 86.04173278808594 C 190.4164581298828 72.12483215332031 196.21473693847656 82.20134735107422 163.7523651123047 80.66264343261719" stroke-width="3.0" fill="none" stroke="rgb(0, 0, 0)" stroke-opacity="1.0" stroke-linecap="round" stroke-linejoin="round"/>
    <path d="M 110.8006591796875 77.600830078125 C 88.70291900634766 68.60157775878906 138.7637939453125 70.30460357666016 106.67078399658203 77.12239074707031" stroke-width="3.0" fill="none" stroke="rgb(0, 0, 0)" stroke-opacity="1.0" stroke-linecap="round" stroke-linejoin="round"/>
    <path d="M 137.106689453125 157.77783203125 C 139.99896240234375 157.40548706054688 127.65982055664062 158.9143524169922 104.95474243164062 141.31777954101562" stroke-width="3.0" fill="none" stroke="rgb(0, 0, 0)" stroke-opacity="1.0" stroke-linecap="round" stroke-linejoin="round"/>
    <path d="M 123.83374786376953 90.18363189697266 C 138.42320251464844 104.83472442626953 137.42910766601562 74.31669616699219 129.13096618652344 97.06243896484375" stroke-width="3.0" fill="none" stroke="rgb(0, 0, 0)" stroke-opacity="1.0" stroke-linecap="round" stroke-linejoin="round"/>
    <path d="M 186.67617797851562 93.01576232910156 C 171.80999755859375 85.74484252929688 185.32656860351562 96.8729019165039 141.78176879882812 88.87953186035156" stroke-width="3.0" fill="none" stroke="rgb(0, 0, 0)" stroke-opacity="1.0" stroke-linecap="round" stroke-linejoin="round"/>
    <path d="M 86.90978240966797 8.293814659118652 C 110.28844451904297 18.608497619628906 116.05169677734375 35.86565399169922 123.75225067138672 33.20695877075195" stroke-width="3.0" fill="none" stroke="rgb(0, 0, 0)" stroke-opacity="1.0" stroke-linecap="round" stroke-linejoin="round"/>
    <path d="M 52.03797912597656 112.47025299072266 C 49.11735916137695 109.57952117919922 61.30894470214844 120.8729019165039 52.27253723144531 113.07012939453125" stroke-width="3.0" fill="none" stroke="rgb(0, 0, 0)" stroke-opacity="1.0" stroke-linecap="round" stroke-linejoin="round"/>
    <path d="M 117.94098663330078 106.78255462646484 C 90.69475555419922 105.52012634277344 124.67343139648438 112.36839294433594 98.07810974121094 99.47185516357422" stroke-width="3.0" fill="none" stroke="rgb(0, 0, 0)" stroke-opacity="1.0" stroke-linecap="round" stroke-linejoin="round"/>
    <path d="M 31.103395462036133 118.7054672241211 C 36.39196014404297 96.92156982421875 35.098148345947266 105.90103912353516 31.5551700592041 114.11112213134766" stroke-width="3.0" fill="none" stroke="rgb(0, 0, 0)" stroke-opacity="1.0" stroke-linecap="round" stroke-linejoin="round"/>
    <path d="M 85.20697784423828 195.89524841308594 C 74.15117645263672 196.39923095703125 74.77183532714844 195.78506469726562 90.45076751708984 197.07472229003906" stroke-width="3.0" fill="none" stroke="rgb(0, 0, 0)" stroke-opacity="1.0" stroke-linecap="round" stroke-linejoin="round"/>
    <path d="M 164.45587158203125 132.24801635742188 C 204.8046875 111.82054901123047 176.6368408203125 96.4894027709961 152.14297485351562 95.11061096191406" stroke-width="3.0" fill="none" stroke="rgb(0, 0, 0)" stroke-opacity="1.0" stroke-linecap="round" stroke-linejoin="round"/>
    <path d="M 152.8544921875 76.84141540527344 C 131.97438049316406 64.44876861572266 160.6544189453125 92.71067810058594 152.38720703125 71.37523651123047" stroke-width="3.0" fill="none" stroke="rgb(0, 0, 0)" stroke-opacity="1.0" stroke-linecap="round" stroke-linejoin="round"/>
    <path d="M 145.44261169433594 77.5385971069336 C 147.97509765625 56.10462951660156 171.331787109375 78.46295166015625 186.46165466308594 65.51954650878906" stroke-width="3.0" fill="none" stroke="rgb(0, 0, 0)" stroke-opacity="1.0" stroke-linecap="round" stroke-linejoin="round"/>
    <path d="M 149.78968811035156 100.14122772216797 C 154.9077911376953 99.24246978759766 169.3711395263672 109.80166625976562 183.56484985351562 113.36296844482422" stroke-width="3.0" fill="none" stroke="rgb(0, 0, 0)" stroke-opacity="1.0" stroke-linecap="round" stroke-linejoin="round"/>
    <path d="M 176.98428344726562 16.664480209350586 C 173.70323181152344 43.27902603149414 174.6775360107422 26.665607452392578 163.27841186523438 35.51436996459961" stroke-width="3.0" fill="none" stroke="rgb(0, 0, 0)" stroke-opacity="1.0" stroke-linecap="round" stroke-linejoin="round"/>
    <path d="M 125.88189697265625 105.6674575805664 C 147.92758178710938 109.18655395507812 132.5449676513672 92.30606079101562 112.7918472290039 110.70051574707031" stroke-width="3.0" fill="none" stroke="rgb(0, 0, 0)" stroke-opacity="1.0" stroke-linecap="round" stroke-linejoin="round"/>
    <path d="M 48.12554931640625 106.12223052978516 C 51.12300491333008 112.0537109375 47.362281799316406 106.49571990966797 62.37242126464844 128.72865295410156" stroke-width="3.0" fill="none" stroke="rgb(0, 0, 0)" stroke-opacity="1.0" stroke-linecap="round" stroke-linejoin="round"/>
    <path d="M 124.13845825195312 82.55866241455078 C 130.91455078125 60.39811706542969 114.16741943359375 49.03812026977539 116.95689392089844 37.76396560668945" stroke-width="3.0" fill="none" stroke="rgb(0, 0, 0)" stroke-opacity="1.0" stroke-linecap="round" stroke-linejoin="round"/>
    <path d="M 147.64486694335938 33.47095489501953 C 152.83201599121094 29.953384399414062 149.94642639160156 20.119247436523438 173.73731994628906 6.90261173248291" stroke-width="3.0" fill="none" stroke="rgb(0, 0, 0)" stroke-opacity="1.0" stroke-linecap="round" stroke-linejoin="round"/>
  </g>
</svg>
