<?xml version="1.0" ?>
<svg xmlns="http://www.w3.org/2000/svg" version="1.1" width="224" height="224">
  <defs/>
  <g>
    <path d="M 55.61795425415039 116.19223022460938 C 59.145729064941406 117.3930435180664 50.27017593383789 111.14986419677734 46.69529342651367 95.02314758300781" stroke-width="3.0" fill="none" stroke="rgb(0, 0, 0)" stroke-opacity="1.0" stroke-linecap="round" stroke-linejoin="round"/>
    <path d="M 180.78790283203125 128.46910095214844 C 180.8543701171875 109.49095153808594 180.8175811767578 112.2016372680664 185.5735321044922 123.0248031616211" stroke-width="3.0" fill="none" stroke="rgb(0, 0, 0)" stroke-opacity="1.0" stroke-linecap="round" stroke-linejoin="round"/>
    <path d="M 54.412757873535156 110.61317443847656 C 53.543399810791016 118.18119812011719 52.921783447265625 108.5186538696289 53.12428665161133 112.09354400634766" stroke-width="3.0" fill="none" stroke="rgb(0, 0, 0)" stroke-opacity="1.0" stroke-linecap="round" stroke-linejoin="round"/>
    <path d="M 185.71449279785156 100.67984008789062 C 158.18966674804688 93.74417877197266 174.1810760498047 83.74893188476562 195.4477081298828 113.00822448730469" stroke-width="3.0" fill="none" stroke="rgb(0, 0, 0)" stroke-opacity="1.0" stroke-linecap="round" stroke-linejoin="round"/>
    <path d="M 180.58645629882812 76.45995330810547 C 186.05653381347656 80.26184844970703 180.55796813964844 72.87017059326172 182.17701721191406 75.16357421875" stroke-width="3.0" fill="none" stroke="rgb(0, 0, 0)" stroke-opacity="1.0" stroke-linecap="round" stroke-linejoin="round"/>
    <path d="M 130.8498992919922 101.41742706298828 C 123.97895812988281 112.5384521484375 118.26746368408203 107.14273071289062 136.4160614013672 106.51864624023438" stroke-width="3.0" fill="none" stroke="rgb(0, 0, 0)" stroke-opacity="1.0" stroke-linecap="round" stroke-linejoin="round"/>
    <path d="M 168.8686981201172 85.97189331054688 C 192.62774658203125 79.87566375732422 185.10110473632812 79.6617660522461 160.57167053222656 84.8862533569336" stroke-width="3.0" fill="none" stroke="rgb(0, 0, 0)" stroke-opacity="1.0" stroke-linecap="round" stroke-linejoin="round"/>
    <path d="M 54.16248321533203 183.3466339111328 C 36.10859298706055 157.623046875 50.73273468017578 162.7965850830078 44.37043762207031 163.35403442382812" stroke-width="3.0" fill="none" stroke="rgb(0, 0, 0)" stroke-opacity="1.0" stroke-linecap="round" stroke-linejoin="round"/>
    <path d="M 68.84622955322266 192.76707458496094 C 92.78639221191406 195.1186981201172 109.61424255371094 198.58534240722656 94.36682891845703 186.05844116210938" stroke-width="3.0" fill="none" stroke="rgb(0, 0, 0)" stroke-opacity="1.0" stroke-linecap="round" stroke-linejoin="round"/>
    <path d="M 92.7905044555664 34.79780578613281 C 91.06267547607422 53.85625457763672 94.84883117675781 31.308019638061523 92.40767669677734 51.75943374633789" stroke-width="3.0" fill="none" stroke="rgb(0, 0, 0)" stroke-opacity="1.0" stroke-linecap="round" stroke-linejoin="round"/>
    <path d="M 60.92211151123047 127.07881164550781 C 69.645263671875 146.19761657714844 77.82747650146484 147.87240600585938 80.79698944091797 151.41998291015625" stroke-width="3.0" fill="none" stroke="rgb(0, 0, 0)" stroke-opacity="1.0" stroke-linecap="round" stroke-linejoin="round"/>
    <path d="M 163.49473571777344 82.10173797607422 C 189.4466094970703 71.64546203613281 179.26400756835938 90.26342010498047 155.7232666015625 87.93794250488281" stroke-width="3.0" fill="none" stroke="rgb(0, 0, 0)" stroke-opacity="1.0" stroke-linecap="round" stroke-linejoin="round"/>
    <path d="M 154.1876220703125 102.92769622802734 C 173.36639404296875 99.49663543701172 163.22288513183594 102.77699279785156 186.7041015625 104.97486114501953" stroke-width="3.0" fill="none" stroke="rgb(0, 0, 0)" stroke-opacity="1.0" stroke-linecap="round" stroke-linejoin="round"/>
    <path d="M 83.2722396850586 166.0890655517578 C 86.15716552734375 184.22970581054688 94.53498077392578 186.53701782226562 98.31246948242188 190.2644805908203" stroke-width="3.0" fill="none" stroke="rgb(0, 0, 0)" stroke-opacity="1.0" stroke-linecap="round" stroke-linejoin="round"/>
    <path d="M 172.44345092773438 9.82647705078125 C 181.97862243652344 0.39192646741867065 183.75747680664062 24.357091903686523 180.3487091064453 55.578731536865234" stroke-width="3.0" fill="none" stroke="rgb(0, 0, 0)" stroke-opacity="1.0" stroke-linecap="round" stroke-linejoin="round"/>
    <path d="M 129.0881805419922 31.23462677001953 C 125.87541198730469 49.863826751708984 125.31945037841797 31.456104278564453 128.95468139648438 66.6095962524414" stroke-width="3.0" fill="none" stroke="rgb(0, 0, 0)" stroke-opacity="1.0" stroke-linecap="round" stroke-linejoin="round"/>
    <path d="M 100.05256652832031 44.54939270019531 C 67.39090728759766 -6.7249650955200195 85.11736297607422 3.799476146697998 105.72422790527344 42.01216125488281" stroke-width="3.0" fill="none" stroke="rgb(0, 0, 0)" stroke-opacity="1.0" stroke-linecap="round" stroke-linejoin="round"/>
    <path d="M 50.13412094116211 170.7957000732422 C 35.09758758544922 159.43028259277344 48.419029235839844 162.95144653320312 44.542442321777344 163.3724822998047" stroke-width="3.0" fill="none" stroke="rgb(0, 0, 0)" stroke-opacity="1.0" stroke-linecap="round" stroke-linejoin="round"/>
    <path d="M 31.698938369750977 115.47232055664062 C 28.44571304321289 132.0377960205078 34.884552001953125 140.05972290039062 42.22391128540039 153.1627197265625" stroke-width="3.0" fill="none" stroke="rgb(0, 0, 0)" stroke-opacity="1.0" stroke-linecap="round" stroke-linejoin="round"/>
    <path d="M 78.46693420410156 158.85147094726562 C 84.76507568359375 167.76303100585938 85.10166931152344 168.33688354492188 80.76644134521484 162.22972106933594" stroke-width="3.0" fill="none" stroke="rgb(0, 0, 0)" stroke-opacity="1.0" stroke-linecap="round" stroke-linejoin="round"/>
    <path d="M 74.58167266845703 193.8601837158203 C 44.55684280395508 179.62025451660156 70.20133972167969 193.87362670898438 47.84237289428711 175.6846160888672" stroke-width="3.0" fill="none" stroke="rgb(0, 0, 0)" stroke-opacity="1.0" stroke-linecap="round" stroke-linejoin="round"/>
    <path d="M 41.872840881347656 158.20098876953125 C 46.53889083862305 165.4661102294922 40.337799072265625 155.49864196777344 38.43329620361328 147.4551239013672" stroke-width="3.0" fill="none" stroke="rgb(0, 0, 0)" stroke-opacity="1.0" stroke-linecap="round" stroke-linejoin="round"/>
    <path d="M 64.38004302978516 61.64902114868164 C 48.09600067138672 74.19031524658203 49.11784744262695 74.57756805419922 34.1524772644043 106.90271759033203" stroke-width="3.0" fill="none" stroke="rgb(0, 0, 0)" stroke-opacity="1.0" stroke-linecap="round" stroke-linejoin="round"/>
    <path d="M 144.21536254882812 162.10658264160156 C 127.81639862060547 162.20584106445312 124.3621597290039 153.15475463867188 137.08865356445312 169.64141845703125" stroke-width="3.0" fill="none" stroke="rgb(0, 0, 0)" stroke-opacity="1.0" stroke-linecap="round" stroke-linejoin="round"/>
    <path d="M 136.71681213378906 30.967510223388672 C 150.26507568359375 54.55958557128906 132.02267456054688 50.69554138183594 138.7053985595703 82.93386840820312" stroke-width="3.0" fill="none" stroke="rgb(0, 0, 0)" stroke-opacity="1.0" stroke-linecap="round" stroke-linejoin="round"/>
    <path d="M 145.09164428710938 98.01993560791016 C 131.92156982421875 111.87232971191406 112.08077239990234 104.60834503173828 127.93099212646484 105.68830871582031" stroke-width="3.0" fill="none" stroke="rgb(0, 0, 0)" stroke-opacity="1.0" stroke-linecap="round" stroke-linejoin="round"/>
    <path d="M 138.8015899658203 72.5548095703125 C 139.291015625 50.8415412902832 147.22828674316406 47.98062515258789 146.236572265625 49.4879150390625" stroke-width="3.0" fill="none" stroke="rgb(0, 0, 0)" stroke-opacity="1.0" stroke-linecap="round" stroke-linejoin="round"/>
    <path d="M 104.76749420166016 193.47308349609375 C 85.30609893798828 178.1112518310547 96.72553253173828 208.75006103515625 125.99261474609375 183.79051208496094" stroke-width="3.0" fill="none" stroke="rgb(0, 0, 0)" stroke-opacity="1.0" stroke-linecap="round" stroke-linejoin="round"/>
    <path d="M 187.27932739257812 94.00787353515625 C 163.94732666015625 81.7293472290039 166.8785858154297 91.582275390625 173.4388427734375 80.37525939941406" stroke-width="3.0" fill="none" stroke="rgb(0, 0, 0)" stroke-opacity="1.0" stroke-linecap="round" stroke-linejoin="round"/>
    <path d="M 174.2042694091797 85.3345718383789 C 184.63844299316406 81.2496566772461 190.8254852294922 93.48124694824219 166.52120971679688 83.97142791748047" stroke-width="3.0" fill="none" stroke="rgb(0, 0, 0)" stroke-opacity="1.0" stroke-linecap="round" stroke-linejoin="round"/>
    <path d="M 109.232666015625 75.69974517822266 C 85.20645904541016 70.65278625488281 138.93447875976562 67.11238861083984 105.56720733642578 76.65543365478516" stroke-width="3.0" fill="none" stroke="rgb(0, 0, 0)" stroke-opacity="1.0" stroke-linecap="round" stroke-linejoin="round"/>
    <path d="M 134.01393127441406 160.8380889892578 C 139.4027557373047 160.24884033203125 127.25733947753906 162.9245147705078 110.88091278076172 146.04974365234375" stroke-width="3.0" fill="none" stroke="rgb(0, 0, 0)" stroke-opacity="1.0" stroke-linecap="round" stroke-linejoin="round"/>
    <path d="M 122.95122528076172 87.66536712646484 C 142.29135131835938 97.64122009277344 131.30262756347656 75.60806274414062 129.0130615234375 95.94184112548828" stroke-width="3.0" fill="none" stroke="rgb(0, 0, 0)" stroke-opacity="1.0" stroke-linecap="round" stroke-linejoin="round"/>
    <path d="M 188.9562530517578 96.1899642944336 C 174.57162475585938 86.58219146728516 184.2338409423828 99.62703704833984 143.56057739257812 85.49311828613281" stroke-width="3.0" fill="none" stroke="rgb(0, 0, 0)" stroke-opacity="1.0" stroke-linecap="round" stroke-linejoin="round"/>
    <path d="M 83.52259063720703 11.008829116821289 C 108.8968276977539 18.503095626831055 114.50862884521484 37.15266799926758 123.27887725830078 29.77243423461914" stroke-width="3.0" fill="none" stroke="rgb(0, 0, 0)" stroke-opacity="1.0" stroke-linecap="round" stroke-linejoin="round"/>
    <path d="M 54.53837203979492 108.55949401855469 C 50.56228256225586 109.37493896484375 58.63884353637695 122.08682250976562 54.69131088256836 113.09562683105469" stroke-width="3.0" fill="none" stroke="rgb(0, 0, 0)" stroke-opacity="1.0" stroke-linecap="round" stroke-linejoin="round"/>
    <path d="M 121.70147705078125 100.58702850341797 C 101.68241882324219 93.588134765625 135.3756866455078 97.31318664550781 108.22148132324219 93.02251434326172" stroke-width="3.0" fill="none" stroke="rgb(0, 0, 0)" stroke-opacity="1.0" stroke-linecap="round" stroke-linejoin="round"/>
    <path d="M 30.26639175415039 118.34378814697266 C 34.886932373046875 94.34820556640625 33.234466552734375 104.27849578857422 33.04880905151367 109.98126983642578" stroke-width="3.0" fill="none" stroke="rgb(0, 0, 0)" stroke-opacity="1.0" stroke-linecap="round" stroke-linejoin="round"/>
    <path d="M 84.9246597290039 195.6489715576172 C 75.28350067138672 192.89915466308594 75.63410949707031 196.05078125 87.81575012207031 195.01100158691406" stroke-width="3.0" fill="none" stroke="rgb(0, 0, 0)" stroke-opacity="1.0" stroke-linecap="round" stroke-linejoin="round"/>
    <path d="M 167.4922332763672 134.9059295654297 C 198.60650634765625 105.6945571899414 174.38128662109375 96.10591888427734 150.21690368652344 95.22157287597656" stroke-width="3.0" fill="none" stroke="rgb(0, 0, 0)" stroke-opacity="1.0" stroke-linecap="round" stroke-linejoin="round"/>
    <path d="M 151.10475158691406 77.11326599121094 C 134.64376831054688 63.44069290161133 153.40957641601562 89.85906982421875 152.27349853515625 72.25633239746094" stroke-width="3.0" fill="none" stroke="rgb(0, 0, 0)" stroke-opacity="1.0" stroke-linecap="round" stroke-linejoin="round"/>
    <path d="M 143.21275329589844 74.41551208496094 C 157.48858642578125 63.095882415771484 164.7887420654297 78.68571472167969 181.0752716064453 68.62419128417969" stroke-width="3.0" fill="none" stroke="rgb(0, 0, 0)" stroke-opacity="1.0" stroke-linecap="round" stroke-linejoin="round"/>
    <path d="M 149.38803100585938 100.853271484375 C 155.135498046875 102.37100982666016 170.7786865234375 102.59059143066406 183.39297485351562 115.10836791992188" stroke-width="3.0" fill="none" stroke="rgb(0, 0, 0)" stroke-opacity="1.0" stroke-linecap="round" stroke-linejoin="round"/>
    <path d="M 177.3131103515625 18.76249885559082 C 173.41958618164062 42.6744270324707 173.69772338867188 28.007848739624023 162.2357177734375 38.410682678222656" stroke-width="3.0" fill="none" stroke="rgb(0, 0, 0)" stroke-opacity="1.0" stroke-linecap="round" stroke-linejoin="round"/>
    <path d="M 122.19176483154297 107.8831787109375 C 147.79251098632812 115.13434600830078 136.3089141845703 93.99362182617188 118.29183959960938 107.86720275878906" stroke-width="3.0" fill="none" stroke="rgb(0, 0, 0)" stroke-opacity="1.0" stroke-linecap="round" stroke-linejoin="round"/>
    <path d="M 50.15927505493164 105.21404266357422 C 56.94721984863281 107.07891845703125 46.68141555786133 106.94026947021484 61.885643005371094 124.83728790283203" stroke-width="3.0" fill="none" stroke="rgb(0, 0, 0)" stroke-opacity="1.0" stroke-linecap="round" stroke-linejoin="round"/>
    <path d="M 120.29505157470703 78.35918426513672 C 128.63087463378906 64.47063446044922 112.2820816040039 50.5218505859375 113.94390869140625 38.395877838134766" stroke-width="3.0" fill="none" stroke="rgb(0, 0, 0)" stroke-opacity="1.0" stroke-linecap="round" stroke-linejoin="round"/>
    <path d="M 147.12232971191406 33.57175827026367 C 155.58673095703125 29.333528518676758 150.5765838623047 20.64767837524414 174.97866821289062 7.7724151611328125" stroke-width="3.0" fill="none" stroke="rgb(0, 0, 0)" stroke-opacity="1.0" stroke-linecap="round" stroke-linejoin="round"/>
  </g>
</svg>
