<?xml version="1.0" ?>
<svg xmlns="http://www.w3.org/2000/svg" version="1.1" width="224" height="224">
  <defs/>
  <g>
    <path d="M 60.5766487121582 99.21119689941406 C 57.59638977050781 90.97930145263672 61.02305221557617 101.17176818847656 51.148563385009766 84.87342071533203" stroke-width="3.0" fill="none" stroke="rgb(0, 0, 0)" stroke-opacity="1.0" stroke-linecap="round" stroke-linejoin="round"/>
    <path d="M 183.22088623046875 124.4229736328125 C 178.2627410888672 115.25106811523438 204.0727081298828 86.61427307128906 175.39500427246094 128.8203125" stroke-width="3.0" fill="none" stroke="rgb(0, 0, 0)" stroke-opacity="1.0" stroke-linecap="round" stroke-linejoin="round"/>
    <path d="M 57.58244323730469 108.59100341796875 C 58.312068939208984 107.03331756591797 56.17567825317383 127.83248138427734 64.97370910644531 132.69256591796875" stroke-width="3.0" fill="none" stroke="rgb(0, 0, 0)" stroke-opacity="1.0" stroke-linecap="round" stroke-linejoin="round"/>
    <path d="M 186.4613494873047 95.65909576416016 C 135.9946746826172 92.05508422851562 180.7963409423828 84.23180389404297 188.62591552734375 103.7511215209961" stroke-width="3.0" fill="none" stroke="rgb(0, 0, 0)" stroke-opacity="1.0" stroke-linecap="round" stroke-linejoin="round"/>
    <path d="M 180.60385131835938 70.51680755615234 C 190.59213256835938 106.08924865722656 179.08843994140625 105.11612701416016 176.7237091064453 72.00536346435547" stroke-width="3.0" fill="none" stroke="rgb(0, 0, 0)" stroke-opacity="1.0" stroke-linecap="round" stroke-linejoin="round"/>
    <path d="M 122.3939208984375 103.10603332519531 C 142.68980407714844 114.84821319580078 107.25030517578125 91.92403411865234 136.99468994140625 97.57422637939453" stroke-width="3.0" fill="none" stroke="rgb(0, 0, 0)" stroke-opacity="1.0" stroke-linecap="round" stroke-linejoin="round"/>
    <path d="M 182.00152587890625 91.41539764404297 C 183.5436248779297 79.0737533569336 185.44883728027344 68.83876037597656 141.8378143310547 86.818603515625" stroke-width="3.0" fill="none" stroke="rgb(0, 0, 0)" stroke-opacity="1.0" stroke-linecap="round" stroke-linejoin="round"/>
    <path d="M 65.72508239746094 189.5840301513672 C 39.0908088684082 162.26315307617188 50.689571380615234 169.41824340820312 48.412994384765625 170.3959197998047" stroke-width="3.0" fill="none" stroke="rgb(0, 0, 0)" stroke-opacity="1.0" stroke-linecap="round" stroke-linejoin="round"/>
    <path d="M 53.151790618896484 181.98475646972656 C 93.88575744628906 209.30032348632812 123.90975189208984 197.40872192382812 135.35385131835938 175.48507690429688" stroke-width="3.0" fill="none" stroke="rgb(0, 0, 0)" stroke-opacity="1.0" stroke-linecap="round" stroke-linejoin="round"/>
    <path d="M 83.74394989013672 26.70814323425293 C 96.44468688964844 81.86573791503906 84.03166961669922 12.849365234375 85.06437683105469 52.15288543701172" stroke-width="3.0" fill="none" stroke="rgb(0, 0, 0)" stroke-opacity="1.0" stroke-linecap="round" stroke-linejoin="round"/>
    <path d="M 48.31142044067383 87.21160125732422 C 67.22766876220703 143.7578887939453 78.91414642333984 146.477294921875 74.34489440917969 140.92027282714844" stroke-width="3.0" fill="none" stroke="rgb(0, 0, 0)" stroke-opacity="1.0" stroke-linecap="round" stroke-linejoin="round"/>
    <path d="M 149.3025360107422 68.60209655761719 C 200.8810272216797 59.92581558227539 192.1632537841797 89.70164489746094 143.08370971679688 81.4090805053711" stroke-width="3.0" fill="none" stroke="rgb(0, 0, 0)" stroke-opacity="1.0" stroke-linecap="round" stroke-linejoin="round"/>
    <path d="M 149.75009155273438 95.33097839355469 C 181.4827423095703 102.40625762939453 176.66552734375 99.01535034179688 195.99993896484375 113.08868408203125" stroke-width="3.0" fill="none" stroke="rgb(0, 0, 0)" stroke-opacity="1.0" stroke-linecap="round" stroke-linejoin="round"/>
    <path d="M 117.20907592773438 151.82101440429688 C 149.83370971679688 158.2669677734375 115.92088317871094 144.36306762695312 104.66399383544922 157.5307159423828" stroke-width="3.0" fill="none" stroke="rgb(0, 0, 0)" stroke-opacity="1.0" stroke-linecap="round" stroke-linejoin="round"/>
    <path d="M 179.72621154785156 7.857596397399902 C 187.01930236816406 25.32172393798828 171.31419372558594 71.1058120727539 180.07290649414062 53.590919494628906" stroke-width="3.0" fill="none" stroke="rgb(0, 0, 0)" stroke-opacity="1.0" stroke-linecap="round" stroke-linejoin="round"/>
    <path d="M 133.644775390625 29.748050689697266 C 122.57383728027344 35.13810348510742 134.4983367919922 43.70934295654297 126.2205581665039 65.64364624023438" stroke-width="3.0" fill="none" stroke="rgb(0, 0, 0)" stroke-opacity="1.0" stroke-linecap="round" stroke-linejoin="round"/>
    <path d="M 95.13594818115234 46.75414276123047 C 70.2497787475586 -4.710281848907471 87.328125 1.5976688861846924 115.07538604736328 29.224416732788086" stroke-width="3.0" fill="none" stroke="rgb(0, 0, 0)" stroke-opacity="1.0" stroke-linecap="round" stroke-linejoin="round"/>
    <path d="M 46.32138442993164 164.12745666503906 C 41.154327392578125 154.04432678222656 38.41355514526367 146.2555694580078 49.3515739440918 168.6920928955078" stroke-width="3.0" fill="none" stroke="rgb(0, 0, 0)" stroke-opacity="1.0" stroke-linecap="round" stroke-linejoin="round"/>
    <path d="M 36.4293327331543 100.57752227783203 C 19.243301391601562 131.50344848632812 41.8606071472168 144.20547485351562 44.925025939941406 164.3247833251953" stroke-width="3.0" fill="none" stroke="rgb(0, 0, 0)" stroke-opacity="1.0" stroke-linecap="round" stroke-linejoin="round"/>
    <path d="M 77.1082992553711 144.29029846191406 C 114.2679214477539 158.12142944335938 91.92822265625 152.6608123779297 97.39540100097656 148.89523315429688" stroke-width="3.0" fill="none" stroke="rgb(0, 0, 0)" stroke-opacity="1.0" stroke-linecap="round" stroke-linejoin="round"/>
    <path d="M 91.49919128417969 195.96206665039062 C 68.92217254638672 202.1476593017578 48.69169998168945 176.04510498046875 48.59524917602539 169.70541381835938" stroke-width="3.0" fill="none" stroke="rgb(0, 0, 0)" stroke-opacity="1.0" stroke-linecap="round" stroke-linejoin="round"/>
    <path d="M 49.657257080078125 172.6305389404297 C 67.86292266845703 190.5163116455078 46.1324348449707 171.683837890625 41.29194641113281 155.0274200439453" stroke-width="3.0" fill="none" stroke="rgb(0, 0, 0)" stroke-opacity="1.0" stroke-linecap="round" stroke-linejoin="round"/>
    <path d="M 80.03731536865234 52.046722412109375 C 60.98088836669922 54.17180252075195 47.33348846435547 70.67304992675781 31.15007781982422 106.89814758300781" stroke-width="3.0" fill="none" stroke="rgb(0, 0, 0)" stroke-opacity="1.0" stroke-linecap="round" stroke-linejoin="round"/>
    <path d="M 158.24310302734375 138.6453399658203 C 111.23670959472656 153.8607940673828 105.87592315673828 154.3852081298828 147.54766845703125 148.6367645263672" stroke-width="3.0" fill="none" stroke="rgb(0, 0, 0)" stroke-opacity="1.0" stroke-linecap="round" stroke-linejoin="round"/>
    <path d="M 151.4617919921875 27.495676040649414 C 137.15858459472656 36.05512237548828 129.77745056152344 10.117682456970215 137.63658142089844 79.91622161865234" stroke-width="3.0" fill="none" stroke="rgb(0, 0, 0)" stroke-opacity="1.0" stroke-linecap="round" stroke-linejoin="round"/>
    <path d="M 143.87954711914062 92.45667266845703 C 136.38009643554688 107.03746032714844 130.4784393310547 100.59121704101562 117.67021942138672 102.06947326660156" stroke-width="3.0" fill="none" stroke="rgb(0, 0, 0)" stroke-opacity="1.0" stroke-linecap="round" stroke-linejoin="round"/>
    <path d="M 138.8664093017578 79.49622344970703 C 134.88516235351562 55.48003005981445 130.79225158691406 65.64342498779297 137.2294158935547 74.8260498046875" stroke-width="3.0" fill="none" stroke="rgb(0, 0, 0)" stroke-opacity="1.0" stroke-linecap="round" stroke-linejoin="round"/>
    <path d="M 136.38507080078125 167.8316650390625 C 127.00593566894531 178.92535400390625 141.280029296875 174.12294006347656 145.65098571777344 145.6554412841797" stroke-width="3.0" fill="none" stroke="rgb(0, 0, 0)" stroke-opacity="1.0" stroke-linecap="round" stroke-linejoin="round"/>
    <path d="M 196.2823028564453 95.42671966552734 C 171.7776641845703 70.82783508300781 166.22547912597656 83.84844207763672 186.77964782714844 96.18428802490234" stroke-width="3.0" fill="none" stroke="rgb(0, 0, 0)" stroke-opacity="1.0" stroke-linecap="round" stroke-linejoin="round"/>
    <path d="M 155.23367309570312 73.6973876953125 C 119.30396270751953 60.247188568115234 203.82525634765625 84.03514099121094 179.65069580078125 65.06232452392578" stroke-width="3.0" fill="none" stroke="rgb(0, 0, 0)" stroke-opacity="1.0" stroke-linecap="round" stroke-linejoin="round"/>
    <path d="M 110.86273956298828 82.34416961669922 C 90.40416717529297 70.27335357666016 128.2041473388672 76.32786560058594 107.6793212890625 81.56208038330078" stroke-width="3.0" fill="none" stroke="rgb(0, 0, 0)" stroke-opacity="1.0" stroke-linecap="round" stroke-linejoin="round"/>
    <path d="M 165.90509033203125 128.40899658203125 C 152.31497192382812 156.56979370117188 112.8476791381836 146.85394287109375 99.24195098876953 152.557861328125" stroke-width="3.0" fill="none" stroke="rgb(0, 0, 0)" stroke-opacity="1.0" stroke-linecap="round" stroke-linejoin="round"/>
    <path d="M 118.83891296386719 89.38565063476562 C 138.35928344726562 99.82684326171875 125.50067138671875 66.911376953125 125.4947509765625 104.41333770751953" stroke-width="3.0" fill="none" stroke="rgb(0, 0, 0)" stroke-opacity="1.0" stroke-linecap="round" stroke-linejoin="round"/>
    <path d="M 185.755615234375 112.87506866455078 C 165.63330078125 86.58740234375 184.69729614257812 88.15528106689453 153.508056640625 89.71756744384766" stroke-width="3.0" fill="none" stroke="rgb(0, 0, 0)" stroke-opacity="1.0" stroke-linecap="round" stroke-linejoin="round"/>
    <path d="M 83.2217788696289 9.195070266723633 C 108.55337524414062 13.986932754516602 112.179443359375 36.071380615234375 128.5355224609375 28.14253044128418" stroke-width="3.0" fill="none" stroke="rgb(0, 0, 0)" stroke-opacity="1.0" stroke-linecap="round" stroke-linejoin="round"/>
    <path d="M 60.36530685424805 119.1125259399414 C 58.008522033691406 115.53284454345703 62.563629150390625 127.72240447998047 69.55950927734375 134.3236541748047" stroke-width="3.0" fill="none" stroke="rgb(0, 0, 0)" stroke-opacity="1.0" stroke-linecap="round" stroke-linejoin="round"/>
    <path d="M 128.4613037109375 103.71888732910156 C 137.7704620361328 90.62007904052734 115.37530517578125 120.04966735839844 109.73033142089844 92.77608489990234" stroke-width="3.0" fill="none" stroke="rgb(0, 0, 0)" stroke-opacity="1.0" stroke-linecap="round" stroke-linejoin="round"/>
    <path d="M 32.52594757080078 131.2222442626953 C 26.293954849243164 104.10514831542969 36.27483367919922 98.46984100341797 51.021846771240234 75.54405975341797" stroke-width="3.0" fill="none" stroke="rgb(0, 0, 0)" stroke-opacity="1.0" stroke-linecap="round" stroke-linejoin="round"/>
    <path d="M 82.75184631347656 196.0740203857422 C 68.43975067138672 191.56314086914062 68.96678924560547 200.2606658935547 104.85065460205078 195.6750030517578" stroke-width="3.0" fill="none" stroke="rgb(0, 0, 0)" stroke-opacity="1.0" stroke-linecap="round" stroke-linejoin="round"/>
    <path d="M 167.2549591064453 130.1108856201172 C 201.6551513671875 112.69973754882812 181.05517578125 95.81790161132812 155.58277893066406 90.31085205078125" stroke-width="3.0" fill="none" stroke="rgb(0, 0, 0)" stroke-opacity="1.0" stroke-linecap="round" stroke-linejoin="round"/>
    <path d="M 151.4297332763672 69.76966094970703 C 139.11111450195312 84.35150909423828 171.65037536621094 75.244873046875 146.98915100097656 70.3728256225586" stroke-width="3.0" fill="none" stroke="rgb(0, 0, 0)" stroke-opacity="1.0" stroke-linecap="round" stroke-linejoin="round"/>
    <path d="M 139.21328735351562 74.26372528076172 C 143.35435485839844 39.028350830078125 199.94300842285156 113.06627655029297 177.9502716064453 41.91048812866211" stroke-width="3.0" fill="none" stroke="rgb(0, 0, 0)" stroke-opacity="1.0" stroke-linecap="round" stroke-linejoin="round"/>
    <path d="M 157.03054809570312 96.9514389038086 C 169.46546936035156 104.85340118408203 175.7160186767578 100.11367797851562 182.2490234375 117.1886978149414" stroke-width="3.0" fill="none" stroke="rgb(0, 0, 0)" stroke-opacity="1.0" stroke-linecap="round" stroke-linejoin="round"/>
    <path d="M 176.9462127685547 16.92974090576172 C 163.49432373046875 40.58685302734375 173.38648986816406 20.569072723388672 157.70245361328125 36.7464714050293" stroke-width="3.0" fill="none" stroke="rgb(0, 0, 0)" stroke-opacity="1.0" stroke-linecap="round" stroke-linejoin="round"/>
    <path d="M 116.01947784423828 101.99653625488281 C 143.6175994873047 92.00022888183594 132.96473693847656 110.40970611572266 121.49482727050781 105.48845672607422" stroke-width="3.0" fill="none" stroke="rgb(0, 0, 0)" stroke-opacity="1.0" stroke-linecap="round" stroke-linejoin="round"/>
    <path d="M 67.09602355957031 125.48565673828125 C 51.9931640625 116.13038635253906 59.236907958984375 111.78901672363281 58.16636276245117 115.42945098876953" stroke-width="3.0" fill="none" stroke="rgb(0, 0, 0)" stroke-opacity="1.0" stroke-linecap="round" stroke-linejoin="round"/>
    <path d="M 125.00306701660156 74.2012939453125 C 128.7346649169922 36.48336410522461 125.02706146240234 53.33501434326172 126.27108001708984 28.762319564819336" stroke-width="3.0" fill="none" stroke="rgb(0, 0, 0)" stroke-opacity="1.0" stroke-linecap="round" stroke-linejoin="round"/>
    <path d="M 155.2046356201172 23.112899780273438 C 147.58599853515625 31.344179153442383 166.02490234375 10.166668891906738 181.13047790527344 8.054777145385742" stroke-width="3.0" fill="none" stroke="rgb(0, 0, 0)" stroke-opacity="1.0" stroke-linecap="round" stroke-linejoin="round"/>
  </g>
</svg>
