<?xml version="1.0" ?>
<svg xmlns="http://www.w3.org/2000/svg" version="1.1" width="224" height="224">
  <defs/>
  <g>
    <path d="M 56.53232192993164 106.50521850585938 C 52.92615509033203 114.23255157470703 55.47478103637695 102.62825012207031 45.37516403198242 84.40635681152344" stroke-width="3.0" fill="none" stroke="rgb(0, 0, 0)" stroke-opacity="1.0" stroke-linecap="round" stroke-linejoin="round"/>
    <path d="M 186.11233520507812 122.02288818359375 C 180.55471801757812 101.40084838867188 188.31689453125 106.69220733642578 179.4195556640625 126.50823974609375" stroke-width="3.0" fill="none" stroke="rgb(0, 0, 0)" stroke-opacity="1.0" stroke-linecap="round" stroke-linejoin="round"/>
    <path d="M 56.78363800048828 116.00712585449219 C 56.24855422973633 112.29821014404297 52.841094970703125 118.86888885498047 57.269527435302734 123.35466766357422" stroke-width="3.0" fill="none" stroke="rgb(0, 0, 0)" stroke-opacity="1.0" stroke-linecap="round" stroke-linejoin="round"/>
    <path d="M 179.478759765625 92.8335189819336 C 154.20420837402344 87.26143646240234 173.85641479492188 83.32708740234375 195.49160766601562 113.9498062133789" stroke-width="3.0" fill="none" stroke="rgb(0, 0, 0)" stroke-opacity="1.0" stroke-linecap="round" stroke-linejoin="round"/>
    <path d="M 181.7066650390625 71.50106048583984 C 176.61962890625 95.83171081542969 186.72987365722656 92.06109619140625 181.7880401611328 60.76057815551758" stroke-width="3.0" fill="none" stroke="rgb(0, 0, 0)" stroke-opacity="1.0" stroke-linecap="round" stroke-linejoin="round"/>
    <path d="M 123.29541778564453 102.62264251708984 C 152.78070068359375 101.06778717041016 111.40396118164062 95.9244155883789 140.83840942382812 99.41756439208984" stroke-width="3.0" fill="none" stroke="rgb(0, 0, 0)" stroke-opacity="1.0" stroke-linecap="round" stroke-linejoin="round"/>
    <path d="M 166.01220703125 98.55343627929688 C 199.10787963867188 81.12702941894531 178.03758239746094 67.09667205810547 154.0446319580078 84.83722686767578" stroke-width="3.0" fill="none" stroke="rgb(0, 0, 0)" stroke-opacity="1.0" stroke-linecap="round" stroke-linejoin="round"/>
    <path d="M 56.75654983520508 182.0118865966797 C 37.76396179199219 156.08546447753906 45.461334228515625 164.4906768798828 48.19654846191406 170.75030517578125" stroke-width="3.0" fill="none" stroke="rgb(0, 0, 0)" stroke-opacity="1.0" stroke-linecap="round" stroke-linejoin="round"/>
    <path d="M 57.30154037475586 183.7228546142578 C 92.71134185791016 208.93695068359375 106.2519760131836 197.76412963867188 130.0537872314453 180.1616973876953" stroke-width="3.0" fill="none" stroke="rgb(0, 0, 0)" stroke-opacity="1.0" stroke-linecap="round" stroke-linejoin="round"/>
    <path d="M 85.82725524902344 33.6530647277832 C 94.60889434814453 64.352783203125 81.98113250732422 20.598766326904297 86.09384155273438 53.45784378051758" stroke-width="3.0" fill="none" stroke="rgb(0, 0, 0)" stroke-opacity="1.0" stroke-linecap="round" stroke-linejoin="round"/>
    <path d="M 58.29082107543945 124.1944580078125 C 51.41427993774414 132.33497619628906 104.85923767089844 151.22120666503906 98.37784576416016 153.5049285888672" stroke-width="3.0" fill="none" stroke="rgb(0, 0, 0)" stroke-opacity="1.0" stroke-linecap="round" stroke-linejoin="round"/>
    <path d="M 143.6801300048828 71.7787857055664 C 207.984619140625 67.7919692993164 186.40243530273438 83.59268188476562 148.27200317382812 83.90824127197266" stroke-width="3.0" fill="none" stroke="rgb(0, 0, 0)" stroke-opacity="1.0" stroke-linecap="round" stroke-linejoin="round"/>
    <path d="M 151.825927734375 93.98789978027344 C 185.82569885253906 98.92845153808594 179.60162353515625 96.14749145507812 190.0851287841797 112.33696746826172" stroke-width="3.0" fill="none" stroke="rgb(0, 0, 0)" stroke-opacity="1.0" stroke-linecap="round" stroke-linejoin="round"/>
    <path d="M 114.62830352783203 158.0228271484375 C 144.60997009277344 145.16896057128906 115.82962799072266 159.0901641845703 126.3005142211914 152.88844299316406" stroke-width="3.0" fill="none" stroke="rgb(0, 0, 0)" stroke-opacity="1.0" stroke-linecap="round" stroke-linejoin="round"/>
    <path d="M 176.77066040039062 9.263801574707031 C 189.9574737548828 3.809218645095825 173.20797729492188 60.0360221862793 179.14988708496094 51.81242370605469" stroke-width="3.0" fill="none" stroke="rgb(0, 0, 0)" stroke-opacity="1.0" stroke-linecap="round" stroke-linejoin="round"/>
    <path d="M 133.0542449951172 32.618289947509766 C 126.46744537353516 57.76724624633789 134.74041748046875 35.1146354675293 127.14259338378906 69.84146881103516" stroke-width="3.0" fill="none" stroke="rgb(0, 0, 0)" stroke-opacity="1.0" stroke-linecap="round" stroke-linejoin="round"/>
    <path d="M 86.94331359863281 50.033145904541016 C 75.6514892578125 -5.757075786590576 83.85630798339844 2.343843460083008 113.20924377441406 31.76911735534668" stroke-width="3.0" fill="none" stroke="rgb(0, 0, 0)" stroke-opacity="1.0" stroke-linecap="round" stroke-linejoin="round"/>
    <path d="M 44.05861282348633 165.24786376953125 C 40.54681396484375 153.23728942871094 36.265567779541016 147.46034240722656 40.68309783935547 155.46437072753906" stroke-width="3.0" fill="none" stroke="rgb(0, 0, 0)" stroke-opacity="1.0" stroke-linecap="round" stroke-linejoin="round"/>
    <path d="M 34.956539154052734 101.26079559326172 C 23.862096786499023 126.31553649902344 36.08665084838867 144.12887573242188 41.79366683959961 156.91207885742188" stroke-width="3.0" fill="none" stroke="rgb(0, 0, 0)" stroke-opacity="1.0" stroke-linecap="round" stroke-linejoin="round"/>
    <path d="M 85.45021057128906 144.32574462890625 C 107.04867553710938 160.92803955078125 123.3622817993164 141.15052795410156 112.2916488647461 158.79925537109375" stroke-width="3.0" fill="none" stroke="rgb(0, 0, 0)" stroke-opacity="1.0" stroke-linecap="round" stroke-linejoin="round"/>
    <path d="M 79.8370590209961 197.13548278808594 C 63.121238708496094 193.4800262451172 54.85487365722656 180.66604614257812 49.84909439086914 173.75489807128906" stroke-width="3.0" fill="none" stroke="rgb(0, 0, 0)" stroke-opacity="1.0" stroke-linecap="round" stroke-linejoin="round"/>
    <path d="M 43.794185638427734 164.8480682373047 C 60.21930694580078 192.8431396484375 44.3470458984375 163.62738037109375 40.51262283325195 153.81643676757812" stroke-width="3.0" fill="none" stroke="rgb(0, 0, 0)" stroke-opacity="1.0" stroke-linecap="round" stroke-linejoin="round"/>
    <path d="M 78.80501556396484 54.640384674072266 C 53.61351776123047 60.024559020996094 51.45893859863281 72.02787780761719 32.293846130371094 107.18577575683594" stroke-width="3.0" fill="none" stroke="rgb(0, 0, 0)" stroke-opacity="1.0" stroke-linecap="round" stroke-linejoin="round"/>
    <path d="M 154.94290161132812 140.78387451171875 C 140.6670379638672 160.0663299560547 119.55268096923828 148.47364807128906 130.6085968017578 152.3104705810547" stroke-width="3.0" fill="none" stroke="rgb(0, 0, 0)" stroke-opacity="1.0" stroke-linecap="round" stroke-linejoin="round"/>
    <path d="M 139.85667419433594 31.32681655883789 C 150.18663024902344 67.8279800415039 131.78472900390625 55.45381546020508 136.624755859375 74.60920715332031" stroke-width="3.0" fill="none" stroke="rgb(0, 0, 0)" stroke-opacity="1.0" stroke-linecap="round" stroke-linejoin="round"/>
    <path d="M 147.13221740722656 97.79293823242188 C 116.33283233642578 108.45103454589844 129.64901733398438 108.01010131835938 139.87332153320312 100.66407775878906" stroke-width="3.0" fill="none" stroke="rgb(0, 0, 0)" stroke-opacity="1.0" stroke-linecap="round" stroke-linejoin="round"/>
    <path d="M 136.02919006347656 73.33914184570312 C 145.51348876953125 58.02214050292969 136.7238311767578 65.6404800415039 138.89418029785156 66.96981811523438" stroke-width="3.0" fill="none" stroke="rgb(0, 0, 0)" stroke-opacity="1.0" stroke-linecap="round" stroke-linejoin="round"/>
    <path d="M 136.39369201660156 175.74169921875 C 121.33134460449219 187.1378631591797 140.5674591064453 183.90383911132812 148.61798095703125 147.08529663085938" stroke-width="3.0" fill="none" stroke="rgb(0, 0, 0)" stroke-opacity="1.0" stroke-linecap="round" stroke-linejoin="round"/>
    <path d="M 194.3258514404297 94.64991760253906 C 166.5780029296875 74.94087219238281 150.46456909179688 81.41698455810547 183.87588500976562 83.94539642333984" stroke-width="3.0" fill="none" stroke="rgb(0, 0, 0)" stroke-opacity="1.0" stroke-linecap="round" stroke-linejoin="round"/>
    <path d="M 147.62635803222656 76.75982666015625 C 165.6759033203125 64.00755310058594 202.4542694091797 77.20001220703125 177.77972412109375 65.89677429199219" stroke-width="3.0" fill="none" stroke="rgb(0, 0, 0)" stroke-opacity="1.0" stroke-linecap="round" stroke-linejoin="round"/>
    <path d="M 113.62061309814453 80.1104965209961 C 88.94015502929688 67.86324310302734 131.92222595214844 76.05608367919922 110.14495849609375 77.89971923828125" stroke-width="3.0" fill="none" stroke="rgb(0, 0, 0)" stroke-opacity="1.0" stroke-linecap="round" stroke-linejoin="round"/>
    <path d="M 151.12496948242188 144.3695526123047 C 127.54581451416016 161.03512573242188 116.4892578125 149.0402374267578 102.56664276123047 155.1697998046875" stroke-width="3.0" fill="none" stroke="rgb(0, 0, 0)" stroke-opacity="1.0" stroke-linecap="round" stroke-linejoin="round"/>
    <path d="M 125.34247589111328 90.17405700683594 C 141.2510223388672 101.24674987792969 129.46597290039062 74.37309265136719 127.06591796875 104.01702880859375" stroke-width="3.0" fill="none" stroke="rgb(0, 0, 0)" stroke-opacity="1.0" stroke-linecap="round" stroke-linejoin="round"/>
    <path d="M 188.53549194335938 113.19923400878906 C 174.899658203125 75.98661041259766 178.41355895996094 96.03116607666016 142.14686584472656 83.1754150390625" stroke-width="3.0" fill="none" stroke="rgb(0, 0, 0)" stroke-opacity="1.0" stroke-linecap="round" stroke-linejoin="round"/>
    <path d="M 86.33323669433594 9.401002883911133 C 108.03770446777344 13.571745872497559 112.60733032226562 32.8460693359375 123.1418228149414 29.588172912597656" stroke-width="3.0" fill="none" stroke="rgb(0, 0, 0)" stroke-opacity="1.0" stroke-linecap="round" stroke-linejoin="round"/>
    <path d="M 59.20736312866211 125.48497009277344 C 51.27333068847656 112.75855255126953 64.65880584716797 126.40225982666016 56.543785095214844 121.06278228759766" stroke-width="3.0" fill="none" stroke="rgb(0, 0, 0)" stroke-opacity="1.0" stroke-linecap="round" stroke-linejoin="round"/>
    <path d="M 131.88800048828125 104.29473876953125 C 122.15254211425781 91.53035736083984 119.57598114013672 111.8238525390625 112.8551025390625 88.93757629394531" stroke-width="3.0" fill="none" stroke="rgb(0, 0, 0)" stroke-opacity="1.0" stroke-linecap="round" stroke-linejoin="round"/>
    <path d="M 31.357376098632812 132.66555786132812 C 25.45706558227539 116.2858657836914 34.921974182128906 101.36157989501953 32.13822937011719 109.258544921875" stroke-width="3.0" fill="none" stroke="rgb(0, 0, 0)" stroke-opacity="1.0" stroke-linecap="round" stroke-linejoin="round"/>
    <path d="M 79.47706604003906 195.7624969482422 C 71.91382598876953 195.3312530517578 69.00243377685547 195.0004425048828 93.38145446777344 198.17613220214844" stroke-width="3.0" fill="none" stroke="rgb(0, 0, 0)" stroke-opacity="1.0" stroke-linecap="round" stroke-linejoin="round"/>
    <path d="M 153.016357421875 142.31056213378906 C 208.24862670898438 112.65644073486328 181.8673553466797 94.43976593017578 153.3446044921875 89.00159454345703" stroke-width="3.0" fill="none" stroke="rgb(0, 0, 0)" stroke-opacity="1.0" stroke-linecap="round" stroke-linejoin="round"/>
    <path d="M 157.05258178710938 69.72749328613281 C 123.20086669921875 79.83454132080078 168.81324768066406 85.47406768798828 145.3924102783203 70.52230072021484" stroke-width="3.0" fill="none" stroke="rgb(0, 0, 0)" stroke-opacity="1.0" stroke-linecap="round" stroke-linejoin="round"/>
    <path d="M 140.18313598632812 78.28177642822266 C 148.49366760253906 44.406856536865234 194.50819396972656 107.80323791503906 175.88385009765625 48.81924057006836" stroke-width="3.0" fill="none" stroke="rgb(0, 0, 0)" stroke-opacity="1.0" stroke-linecap="round" stroke-linejoin="round"/>
    <path d="M 157.70037841796875 96.64895629882812 C 166.48365783691406 101.13957977294922 181.7015838623047 100.02752685546875 185.9989776611328 113.14938354492188" stroke-width="3.0" fill="none" stroke="rgb(0, 0, 0)" stroke-opacity="1.0" stroke-linecap="round" stroke-linejoin="round"/>
    <path d="M 178.63369750976562 16.029743194580078 C 170.334716796875 43.28380584716797 175.1951446533203 22.469385147094727 162.74700927734375 36.62755584716797" stroke-width="3.0" fill="none" stroke="rgb(0, 0, 0)" stroke-opacity="1.0" stroke-linecap="round" stroke-linejoin="round"/>
    <path d="M 118.00912475585938 99.85103607177734 C 143.79808044433594 104.23300170898438 129.4422149658203 115.28377532958984 116.72566223144531 95.468994140625" stroke-width="3.0" fill="none" stroke="rgb(0, 0, 0)" stroke-opacity="1.0" stroke-linecap="round" stroke-linejoin="round"/>
    <path d="M 56.66008758544922 124.79952239990234 C 56.669132232666016 103.47872924804688 49.662635803222656 110.5771713256836 58.56889724731445 128.18267822265625" stroke-width="3.0" fill="none" stroke="rgb(0, 0, 0)" stroke-opacity="1.0" stroke-linecap="round" stroke-linejoin="round"/>
    <path d="M 124.78329467773438 76.68374633789062 C 130.33197021484375 34.971580505371094 122.24889373779297 46.81301498413086 126.72428894042969 33.07984924316406" stroke-width="3.0" fill="none" stroke="rgb(0, 0, 0)" stroke-opacity="1.0" stroke-linecap="round" stroke-linejoin="round"/>
    <path d="M 148.0194091796875 30.40013313293457 C 143.75698852539062 35.83521270751953 157.2933349609375 12.746309280395508 178.08177185058594 8.315746307373047" stroke-width="3.0" fill="none" stroke="rgb(0, 0, 0)" stroke-opacity="1.0" stroke-linecap="round" stroke-linejoin="round"/>
  </g>
</svg>
