<?xml version="1.0" ?>
<svg xmlns="http://www.w3.org/2000/svg" version="1.1" width="224" height="224">
  <defs/>
  <g>
    <path d="M 61.94924545288086 90.37601470947266 C 77.86422729492188 78.86259460449219 64.03270721435547 75.21802520751953 78.16165161132812 60.65190887451172" stroke-width="3.0" fill="none" stroke="rgb(0, 0, 0)" stroke-opacity="1.0" stroke-linecap="round" stroke-linejoin="round"/>
    <path d="M 195.66981506347656 114.1499252319336 C 179.33795166015625 102.57438659667969 193.79122924804688 100.39652252197266 178.49295043945312 126.52621459960938" stroke-width="3.0" fill="none" stroke="rgb(0, 0, 0)" stroke-opacity="1.0" stroke-linecap="round" stroke-linejoin="round"/>
    <path d="M 59.80883026123047 118.43904876708984 C 50.15996551513672 91.82247924804688 57.06023025512695 115.89282989501953 60.701904296875 109.74215698242188" stroke-width="3.0" fill="none" stroke="rgb(0, 0, 0)" stroke-opacity="1.0" stroke-linecap="round" stroke-linejoin="round"/>
    <path d="M 187.74888610839844 92.5108413696289 C 147.36178588867188 77.66400909423828 181.4048614501953 76.84536743164062 190.25013732910156 97.59800720214844" stroke-width="3.0" fill="none" stroke="rgb(0, 0, 0)" stroke-opacity="1.0" stroke-linecap="round" stroke-linejoin="round"/>
    <path d="M 174.3817138671875 48.774322509765625 C 193.67294311523438 86.63130950927734 181.34400939941406 99.16879272460938 180.57998657226562 53.66745376586914" stroke-width="3.0" fill="none" stroke="rgb(0, 0, 0)" stroke-opacity="1.0" stroke-linecap="round" stroke-linejoin="round"/>
    <path d="M 129.96241760253906 97.22113800048828 C 152.89955139160156 105.67350006103516 96.32188415527344 95.51679992675781 137.17860412597656 101.22090148925781" stroke-width="3.0" fill="none" stroke="rgb(0, 0, 0)" stroke-opacity="1.0" stroke-linecap="round" stroke-linejoin="round"/>
    <path d="M 183.8788604736328 97.38783264160156 C 160.572998046875 91.21831512451172 190.88018798828125 70.17066192626953 150.44338989257812 88.44674682617188" stroke-width="3.0" fill="none" stroke="rgb(0, 0, 0)" stroke-opacity="1.0" stroke-linecap="round" stroke-linejoin="round"/>
    <path d="M 65.0379867553711 190.9646759033203 C 44.387351989746094 166.29624938964844 43.266212463378906 172.2528839111328 64.66394805908203 190.9985809326172" stroke-width="3.0" fill="none" stroke="rgb(0, 0, 0)" stroke-opacity="1.0" stroke-linecap="round" stroke-linejoin="round"/>
    <path d="M 58.79179000854492 181.8915557861328 C 81.41020202636719 212.7751922607422 139.91845703125 193.25868225097656 138.9307861328125 163.1630859375" stroke-width="3.0" fill="none" stroke="rgb(0, 0, 0)" stroke-opacity="1.0" stroke-linecap="round" stroke-linejoin="round"/>
    <path d="M 84.312255859375 15.74499797821045 C 94.90928649902344 71.4730453491211 88.49708557128906 13.483407020568848 84.52052307128906 51.65203857421875" stroke-width="3.0" fill="none" stroke="rgb(0, 0, 0)" stroke-opacity="1.0" stroke-linecap="round" stroke-linejoin="round"/>
    <path d="M 60.32941436767578 92.0527114868164 C 44.65019226074219 124.53434753417969 79.4228515625 127.04681396484375 60.14749526977539 115.12434387207031" stroke-width="3.0" fill="none" stroke="rgb(0, 0, 0)" stroke-opacity="1.0" stroke-linecap="round" stroke-linejoin="round"/>
    <path d="M 146.4114532470703 75.48719024658203 C 195.6544647216797 61.28729248046875 205.681640625 86.66142272949219 141.5272674560547 86.06172180175781" stroke-width="3.0" fill="none" stroke="rgb(0, 0, 0)" stroke-opacity="1.0" stroke-linecap="round" stroke-linejoin="round"/>
    <path d="M 150.5814208984375 96.67052459716797 C 187.9619598388672 101.77970886230469 182.24899291992188 105.21746063232422 188.2571563720703 112.10589599609375" stroke-width="3.0" fill="none" stroke="rgb(0, 0, 0)" stroke-opacity="1.0" stroke-linecap="round" stroke-linejoin="round"/>
    <path d="M 129.471923828125 153.275146484375 C 177.5239715576172 157.36720275878906 95.1136703491211 145.39439392089844 96.69602966308594 151.3118133544922" stroke-width="3.0" fill="none" stroke="rgb(0, 0, 0)" stroke-opacity="1.0" stroke-linecap="round" stroke-linejoin="round"/>
    <path d="M 178.702392578125 6.65867805480957 C 190.94296264648438 16.34383201599121 166.17164611816406 88.64326477050781 185.48875427246094 62.31604766845703" stroke-width="3.0" fill="none" stroke="rgb(0, 0, 0)" stroke-opacity="1.0" stroke-linecap="round" stroke-linejoin="round"/>
    <path d="M 147.30105590820312 28.920454025268555 C 108.62312316894531 28.447174072265625 132.48593139648438 19.30294418334961 127.74705505371094 68.12934112548828" stroke-width="3.0" fill="none" stroke="rgb(0, 0, 0)" stroke-opacity="1.0" stroke-linecap="round" stroke-linejoin="round"/>
    <path d="M 107.74559020996094 46.043949127197266 C 60.8722038269043 -6.000272750854492 84.3212890625 0.4241994023323059 119.10951232910156 30.33609390258789" stroke-width="3.0" fill="none" stroke="rgb(0, 0, 0)" stroke-opacity="1.0" stroke-linecap="round" stroke-linejoin="round"/>
    <path d="M 42.758758544921875 158.9576873779297 C 42.530208587646484 159.8191375732422 38.977386474609375 157.91952514648438 52.717193603515625 176.37864685058594" stroke-width="3.0" fill="none" stroke="rgb(0, 0, 0)" stroke-opacity="1.0" stroke-linecap="round" stroke-linejoin="round"/>
    <path d="M 59.35795211791992 64.32457733154297 C 15.57402515411377 115.24671173095703 37.936466217041016 143.00180053710938 46.20680236816406 163.18113708496094" stroke-width="3.0" fill="none" stroke="rgb(0, 0, 0)" stroke-opacity="1.0" stroke-linecap="round" stroke-linejoin="round"/>
    <path d="M 69.39437866210938 132.16122436523438 C 142.6246795654297 168.2554473876953 115.46695709228516 149.88565063476562 88.43954467773438 143.60098266601562" stroke-width="3.0" fill="none" stroke="rgb(0, 0, 0)" stroke-opacity="1.0" stroke-linecap="round" stroke-linejoin="round"/>
    <path d="M 84.4019775390625 197.2725372314453 C 65.94857788085938 198.01333618164062 43.714054107666016 177.69091796875 38.749332427978516 149.64979553222656" stroke-width="3.0" fill="none" stroke="rgb(0, 0, 0)" stroke-opacity="1.0" stroke-linecap="round" stroke-linejoin="round"/>
    <path d="M 47.93147277832031 170.4416046142578 C 73.11669158935547 198.35777282714844 47.35393524169922 177.65682983398438 37.9595832824707 148.00390625" stroke-width="3.0" fill="none" stroke="rgb(0, 0, 0)" stroke-opacity="1.0" stroke-linecap="round" stroke-linejoin="round"/>
    <path d="M 81.04732513427734 55.78915786743164 C 59.55709457397461 59.971435546875 60.501739501953125 64.15361785888672 35.80589294433594 107.53726196289062" stroke-width="3.0" fill="none" stroke="rgb(0, 0, 0)" stroke-opacity="1.0" stroke-linecap="round" stroke-linejoin="round"/>
    <path d="M 147.67796325683594 147.39112854003906 C 113.01244354248047 158.4296875 67.27030944824219 148.8257293701172 143.8820037841797 150.87380981445312" stroke-width="3.0" fill="none" stroke="rgb(0, 0, 0)" stroke-opacity="1.0" stroke-linecap="round" stroke-linejoin="round"/>
    <path d="M 150.595703125 26.476491928100586 C 144.13731384277344 39.30891036987305 142.34056091308594 14.26109790802002 136.59738159179688 74.72108459472656" stroke-width="3.0" fill="none" stroke="rgb(0, 0, 0)" stroke-opacity="1.0" stroke-linecap="round" stroke-linejoin="round"/>
    <path d="M 143.98536682128906 98.517822265625 C 123.00670623779297 110.99853515625 126.75603485107422 105.16073608398438 122.15992736816406 99.50177001953125" stroke-width="3.0" fill="none" stroke="rgb(0, 0, 0)" stroke-opacity="1.0" stroke-linecap="round" stroke-linejoin="round"/>
    <path d="M 136.1536865234375 68.86196899414062 C 145.81765747070312 55.33453369140625 132.6361541748047 62.31927490234375 137.67640686035156 67.39459991455078" stroke-width="3.0" fill="none" stroke="rgb(0, 0, 0)" stroke-opacity="1.0" stroke-linecap="round" stroke-linejoin="round"/>
    <path d="M 140.2563934326172 163.8592071533203 C 136.228271484375 170.30218505859375 140.89761352539062 164.1505889892578 150.6923828125 142.29501342773438" stroke-width="3.0" fill="none" stroke="rgb(0, 0, 0)" stroke-opacity="1.0" stroke-linecap="round" stroke-linejoin="round"/>
    <path d="M 193.7500457763672 96.43370056152344 C 164.65255737304688 69.6098861694336 192.4693603515625 59.91224670410156 179.75296020507812 94.77327728271484" stroke-width="3.0" fill="none" stroke="rgb(0, 0, 0)" stroke-opacity="1.0" stroke-linecap="round" stroke-linejoin="round"/>
    <path d="M 153.37979125976562 77.70976257324219 C 120.67927551269531 57.5680046081543 204.76136779785156 91.82220458984375 181.87501525878906 62.646018981933594" stroke-width="3.0" fill="none" stroke="rgb(0, 0, 0)" stroke-opacity="1.0" stroke-linecap="round" stroke-linejoin="round"/>
    <path d="M 116.13438415527344 81.99226379394531 C 89.44090270996094 74.50433349609375 136.14845275878906 72.36114501953125 111.22502136230469 83.8544692993164" stroke-width="3.0" fill="none" stroke="rgb(0, 0, 0)" stroke-opacity="1.0" stroke-linecap="round" stroke-linejoin="round"/>
    <path d="M 166.8015594482422 129.45132446289062 C 155.11550903320312 155.2140350341797 88.11619567871094 149.72769165039062 93.08650970458984 145.80410766601562" stroke-width="3.0" fill="none" stroke="rgb(0, 0, 0)" stroke-opacity="1.0" stroke-linecap="round" stroke-linejoin="round"/>
    <path d="M 125.28227233886719 89.43982696533203 C 141.05519104003906 95.38178253173828 131.29525756835938 72.96876525878906 128.53363037109375 105.93665313720703" stroke-width="3.0" fill="none" stroke="rgb(0, 0, 0)" stroke-opacity="1.0" stroke-linecap="round" stroke-linejoin="round"/>
    <path d="M 184.36355590820312 110.15013885498047 C 171.28155517578125 91.28060150146484 168.5170440673828 94.87152862548828 141.8378448486328 85.3191146850586" stroke-width="3.0" fill="none" stroke="rgb(0, 0, 0)" stroke-opacity="1.0" stroke-linecap="round" stroke-linejoin="round"/>
    <path d="M 91.54670715332031 20.54722023010254 C 120.98612976074219 28.28117561340332 83.62378692626953 25.06379508972168 146.6915740966797 29.98579216003418" stroke-width="3.0" fill="none" stroke="rgb(0, 0, 0)" stroke-opacity="1.0" stroke-linecap="round" stroke-linejoin="round"/>
    <path d="M 58.62361526489258 104.97151184082031 C 63.00820541381836 93.87052917480469 52.63865280151367 118.33367156982422 73.40608215332031 135.6042022705078" stroke-width="3.0" fill="none" stroke="rgb(0, 0, 0)" stroke-opacity="1.0" stroke-linecap="round" stroke-linejoin="round"/>
    <path d="M 130.02931213378906 106.74247741699219 C 132.78692626953125 89.78095245361328 125.76644134521484 119.25318145751953 112.71432495117188 91.6834716796875" stroke-width="3.0" fill="none" stroke="rgb(0, 0, 0)" stroke-opacity="1.0" stroke-linecap="round" stroke-linejoin="round"/>
    <path d="M 37.55771255493164 151.60458374023438 C 15.718688011169434 121.55152893066406 39.58302688598633 71.61847686767578 68.32464599609375 59.26188278198242" stroke-width="3.0" fill="none" stroke="rgb(0, 0, 0)" stroke-opacity="1.0" stroke-linecap="round" stroke-linejoin="round"/>
    <path d="M 99.00334167480469 198.87892150878906 C 85.8041000366211 195.4394073486328 86.54914093017578 197.917724609375 105.15106964111328 197.10398864746094" stroke-width="3.0" fill="none" stroke="rgb(0, 0, 0)" stroke-opacity="1.0" stroke-linecap="round" stroke-linejoin="round"/>
    <path d="M 166.6160125732422 129.41018676757812 C 197.88038635253906 114.03282928466797 192.95689392089844 84.92427062988281 154.314453125 89.1062240600586" stroke-width="3.0" fill="none" stroke="rgb(0, 0, 0)" stroke-opacity="1.0" stroke-linecap="round" stroke-linejoin="round"/>
    <path d="M 158.2458953857422 72.27169036865234 C 131.57957458496094 82.46176147460938 167.9828643798828 85.03956604003906 153.30270385742188 71.87425994873047" stroke-width="3.0" fill="none" stroke="rgb(0, 0, 0)" stroke-opacity="1.0" stroke-linecap="round" stroke-linejoin="round"/>
    <path d="M 141.76614379882812 78.7038803100586 C 142.03298950195312 39.278324127197266 202.10012817382812 117.08607482910156 178.7515106201172 43.164878845214844" stroke-width="3.0" fill="none" stroke="rgb(0, 0, 0)" stroke-opacity="1.0" stroke-linecap="round" stroke-linejoin="round"/>
    <path d="M 154.54295349121094 97.066650390625 C 172.04835510253906 104.41864013671875 178.3937530517578 105.79513549804688 184.56263732910156 121.80474853515625" stroke-width="3.0" fill="none" stroke="rgb(0, 0, 0)" stroke-opacity="1.0" stroke-linecap="round" stroke-linejoin="round"/>
    <path d="M 176.6185302734375 12.73606014251709 C 173.8642120361328 48.7628059387207 175.81605529785156 21.682544708251953 159.7064971923828 40.130863189697266" stroke-width="3.0" fill="none" stroke="rgb(0, 0, 0)" stroke-opacity="1.0" stroke-linecap="round" stroke-linejoin="round"/>
    <path d="M 119.91656494140625 100.37834930419922 C 143.96066284179688 90.39239501953125 133.16783142089844 113.78412628173828 132.5832977294922 102.53446960449219" stroke-width="3.0" fill="none" stroke="rgb(0, 0, 0)" stroke-opacity="1.0" stroke-linecap="round" stroke-linejoin="round"/>
    <path d="M 63.673152923583984 92.07915496826172 C 51.58409118652344 106.53455352783203 54.726318359375 109.85615539550781 62.08296585083008 97.34196472167969" stroke-width="3.0" fill="none" stroke="rgb(0, 0, 0)" stroke-opacity="1.0" stroke-linecap="round" stroke-linejoin="round"/>
    <path d="M 125.00853729248047 76.44257354736328 C 129.39532470703125 48.32597351074219 114.72335052490234 49.76918411254883 118.8197021484375 34.14687728881836" stroke-width="3.0" fill="none" stroke="rgb(0, 0, 0)" stroke-opacity="1.0" stroke-linecap="round" stroke-linejoin="round"/>
    <path d="M 138.42962646484375 29.64451026916504 C 145.7048797607422 44.253944396972656 156.29238891601562 9.32509994506836 178.23907470703125 7.06604528427124" stroke-width="3.0" fill="none" stroke="rgb(0, 0, 0)" stroke-opacity="1.0" stroke-linecap="round" stroke-linejoin="round"/>
  </g>
</svg>
