<?xml version="1.0" ?>
<svg xmlns="http://www.w3.org/2000/svg" version="1.1" width="224" height="224">
  <defs/>
  <g>
    <path d="M 67.16356658935547 71.74789428710938 C 69.01254272460938 73.32540130615234 74.18396759033203 75.05928039550781 60.89725112915039 68.67753601074219" stroke-width="3.0" fill="none" stroke="rgb(0, 0, 0)" stroke-opacity="1.0" stroke-linecap="round" stroke-linejoin="round"/>
    <path d="M 184.81092834472656 123.77557373046875 C 180.12705993652344 112.69538879394531 197.71054077148438 89.61499786376953 175.64474487304688 130.3902587890625" stroke-width="3.0" fill="none" stroke="rgb(0, 0, 0)" stroke-opacity="1.0" stroke-linecap="round" stroke-linejoin="round"/>
    <path d="M 59.80890655517578 121.91696166992188 C 58.22355270385742 112.96355438232422 56.0705451965332 121.84504699707031 69.12804412841797 127.32722473144531" stroke-width="3.0" fill="none" stroke="rgb(0, 0, 0)" stroke-opacity="1.0" stroke-linecap="round" stroke-linejoin="round"/>
    <path d="M 181.91326904296875 93.18751525878906 C 144.828369140625 84.29817199707031 175.8278350830078 72.9980239868164 190.86672973632812 110.00282287597656" stroke-width="3.0" fill="none" stroke="rgb(0, 0, 0)" stroke-opacity="1.0" stroke-linecap="round" stroke-linejoin="round"/>
    <path d="M 180.6938934326172 65.91429901123047 C 175.09291076660156 108.95735931396484 178.5757293701172 96.87726593017578 184.0714569091797 72.75628662109375" stroke-width="3.0" fill="none" stroke="rgb(0, 0, 0)" stroke-opacity="1.0" stroke-linecap="round" stroke-linejoin="round"/>
    <path d="M 126.87445068359375 104.76226806640625 C 146.45223999023438 112.79732513427734 104.1952896118164 96.34024810791016 138.00953674316406 102.92808532714844" stroke-width="3.0" fill="none" stroke="rgb(0, 0, 0)" stroke-opacity="1.0" stroke-linecap="round" stroke-linejoin="round"/>
    <path d="M 172.6700439453125 87.38671875 C 193.0991668701172 92.15465545654297 181.68600463867188 72.27819061279297 159.88912963867188 85.35011291503906" stroke-width="3.0" fill="none" stroke="rgb(0, 0, 0)" stroke-opacity="1.0" stroke-linecap="round" stroke-linejoin="round"/>
    <path d="M 63.75782012939453 188.8951416015625 C 34.7205924987793 159.50106811523438 47.43796920776367 166.8648681640625 48.945438385009766 173.46417236328125" stroke-width="3.0" fill="none" stroke="rgb(0, 0, 0)" stroke-opacity="1.0" stroke-linecap="round" stroke-linejoin="round"/>
    <path d="M 53.79823684692383 181.36630249023438 C 88.08758544921875 210.82440185546875 119.17903900146484 196.95257568359375 133.57406616210938 180.2230224609375" stroke-width="3.0" fill="none" stroke="rgb(0, 0, 0)" stroke-opacity="1.0" stroke-linecap="round" stroke-linejoin="round"/>
    <path d="M 86.459228515625 27.91713523864746 C 94.62738800048828 76.77628326416016 84.3758544921875 7.837403774261475 86.96321868896484 51.55972671508789" stroke-width="3.0" fill="none" stroke="rgb(0, 0, 0)" stroke-opacity="1.0" stroke-linecap="round" stroke-linejoin="round"/>
    <path d="M 45.880859375 90.45669555664062 C 65.52017211914062 140.24896240234375 92.21527099609375 156.5264892578125 84.5677490234375 147.78868103027344" stroke-width="3.0" fill="none" stroke="rgb(0, 0, 0)" stroke-opacity="1.0" stroke-linecap="round" stroke-linejoin="round"/>
    <path d="M 151.59056091308594 75.2646713256836 C 204.5784912109375 65.55083465576172 185.80307006835938 85.57996368408203 145.3026885986328 86.3449478149414" stroke-width="3.0" fill="none" stroke="rgb(0, 0, 0)" stroke-opacity="1.0" stroke-linecap="round" stroke-linejoin="round"/>
    <path d="M 153.8240203857422 94.8427963256836 C 191.70025634765625 101.2147445678711 175.5834197998047 102.54288482666016 196.3970489501953 113.46747589111328" stroke-width="3.0" fill="none" stroke="rgb(0, 0, 0)" stroke-opacity="1.0" stroke-linecap="round" stroke-linejoin="round"/>
    <path d="M 115.80843353271484 152.93917846679688 C 144.94334411621094 150.1158905029297 123.02641296386719 156.9681396484375 108.38754272460938 151.5888214111328" stroke-width="3.0" fill="none" stroke="rgb(0, 0, 0)" stroke-opacity="1.0" stroke-linecap="round" stroke-linejoin="round"/>
    <path d="M 179.98788452148438 9.195150375366211 C 187.994384765625 28.555805206298828 174.78973388671875 70.67106628417969 178.75448608398438 52.53150177001953" stroke-width="3.0" fill="none" stroke="rgb(0, 0, 0)" stroke-opacity="1.0" stroke-linecap="round" stroke-linejoin="round"/>
    <path d="M 134.9698028564453 30.077686309814453 C 125.98516082763672 45.941925048828125 139.286865234375 45.545021057128906 126.5941390991211 67.92552947998047" stroke-width="3.0" fill="none" stroke="rgb(0, 0, 0)" stroke-opacity="1.0" stroke-linecap="round" stroke-linejoin="round"/>
    <path d="M 92.00157165527344 42.61794662475586 C 71.95985412597656 -1.5883911848068237 87.65229034423828 -0.6946408748626709 114.99873352050781 32.919063568115234" stroke-width="3.0" fill="none" stroke="rgb(0, 0, 0)" stroke-opacity="1.0" stroke-linecap="round" stroke-linejoin="round"/>
    <path d="M 45.96158218383789 170.21839904785156 C 39.909568786621094 154.10179138183594 37.6578369140625 145.36778259277344 47.34609603881836 170.3629150390625" stroke-width="3.0" fill="none" stroke="rgb(0, 0, 0)" stroke-opacity="1.0" stroke-linecap="round" stroke-linejoin="round"/>
    <path d="M 36.657005310058594 96.15816497802734 C 19.480117797851562 130.27149963378906 42.04282760620117 145.68458557128906 44.09981155395508 160.90870666503906" stroke-width="3.0" fill="none" stroke="rgb(0, 0, 0)" stroke-opacity="1.0" stroke-linecap="round" stroke-linejoin="round"/>
    <path d="M 86.53963470458984 150.52166748046875 C 109.41179656982422 161.83262634277344 103.83236694335938 157.92062377929688 98.17057037353516 150.4272003173828" stroke-width="3.0" fill="none" stroke="rgb(0, 0, 0)" stroke-opacity="1.0" stroke-linecap="round" stroke-linejoin="round"/>
    <path d="M 87.67115020751953 197.6209259033203 C 67.61459350585938 201.51243591308594 49.01498794555664 177.6734161376953 47.3152961730957 171.249267578125" stroke-width="3.0" fill="none" stroke="rgb(0, 0, 0)" stroke-opacity="1.0" stroke-linecap="round" stroke-linejoin="round"/>
    <path d="M 50.096527099609375 171.1602783203125 C 63.689693450927734 195.52821350097656 48.193851470947266 167.76844787597656 37.3354377746582 147.7110595703125" stroke-width="3.0" fill="none" stroke="rgb(0, 0, 0)" stroke-opacity="1.0" stroke-linecap="round" stroke-linejoin="round"/>
    <path d="M 81.06674194335938 57.166839599609375 C 62.695838928222656 57.631202697753906 48.163307189941406 72.22019958496094 30.935258865356445 109.5069808959961" stroke-width="3.0" fill="none" stroke="rgb(0, 0, 0)" stroke-opacity="1.0" stroke-linecap="round" stroke-linejoin="round"/>
    <path d="M 153.10000610351562 140.5237579345703 C 118.90190887451172 158.64906311035156 116.3857650756836 160.31114196777344 144.88528442382812 149.79025268554688" stroke-width="3.0" fill="none" stroke="rgb(0, 0, 0)" stroke-opacity="1.0" stroke-linecap="round" stroke-linejoin="round"/>
    <path d="M 143.9103240966797 29.555118560791016 C 144.9454803466797 40.10944747924805 137.02890014648438 24.365198135375977 136.2775421142578 82.66289520263672" stroke-width="3.0" fill="none" stroke="rgb(0, 0, 0)" stroke-opacity="1.0" stroke-linecap="round" stroke-linejoin="round"/>
    <path d="M 146.17572021484375 91.73676300048828 C 129.77667236328125 106.49250030517578 133.6562957763672 111.82575225830078 118.40264892578125 102.5622787475586" stroke-width="3.0" fill="none" stroke="rgb(0, 0, 0)" stroke-opacity="1.0" stroke-linecap="round" stroke-linejoin="round"/>
    <path d="M 135.73521423339844 75.4870376586914 C 144.61703491210938 58.50191116333008 131.04275512695312 61.731239318847656 135.90660095214844 76.23286437988281" stroke-width="3.0" fill="none" stroke="rgb(0, 0, 0)" stroke-opacity="1.0" stroke-linecap="round" stroke-linejoin="round"/>
    <path d="M 135.2876434326172 177.18182373046875 C 128.34722900390625 180.98403930664062 138.7366180419922 179.76161193847656 146.2386016845703 146.06195068359375" stroke-width="3.0" fill="none" stroke="rgb(0, 0, 0)" stroke-opacity="1.0" stroke-linecap="round" stroke-linejoin="round"/>
    <path d="M 196.51417541503906 94.33442687988281 C 168.25636291503906 73.50110626220703 167.0950469970703 82.75503540039062 183.4276885986328 87.30457305908203" stroke-width="3.0" fill="none" stroke="rgb(0, 0, 0)" stroke-opacity="1.0" stroke-linecap="round" stroke-linejoin="round"/>
    <path d="M 151.51588439941406 77.98626708984375 C 123.14381408691406 59.937042236328125 196.77967834472656 86.6453857421875 182.7917938232422 66.28414916992188" stroke-width="3.0" fill="none" stroke="rgb(0, 0, 0)" stroke-opacity="1.0" stroke-linecap="round" stroke-linejoin="round"/>
    <path d="M 108.80934143066406 75.64932250976562 C 79.27679443359375 69.75279998779297 149.9690704345703 70.81221008300781 104.72378540039062 81.44934844970703" stroke-width="3.0" fill="none" stroke="rgb(0, 0, 0)" stroke-opacity="1.0" stroke-linecap="round" stroke-linejoin="round"/>
    <path d="M 161.7019500732422 131.31753540039062 C 141.80763244628906 161.363525390625 120.15798950195312 147.29405212402344 102.53535461425781 155.6444549560547" stroke-width="3.0" fill="none" stroke="rgb(0, 0, 0)" stroke-opacity="1.0" stroke-linecap="round" stroke-linejoin="round"/>
    <path d="M 122.79397583007812 87.14299774169922 C 144.04306030273438 99.14495849609375 124.75141906738281 69.79090881347656 128.45126342773438 107.24258422851562" stroke-width="3.0" fill="none" stroke="rgb(0, 0, 0)" stroke-opacity="1.0" stroke-linecap="round" stroke-linejoin="round"/>
    <path d="M 188.31015014648438 110.80351257324219 C 168.3216552734375 90.96743774414062 176.04315185546875 87.28971099853516 148.3109588623047 86.05307006835938" stroke-width="3.0" fill="none" stroke="rgb(0, 0, 0)" stroke-opacity="1.0" stroke-linecap="round" stroke-linejoin="round"/>
    <path d="M 87.35395050048828 9.229143142700195 C 103.67731475830078 11.920145988464355 116.10092163085938 32.75419998168945 121.03108215332031 29.160232543945312" stroke-width="3.0" fill="none" stroke="rgb(0, 0, 0)" stroke-opacity="1.0" stroke-linecap="round" stroke-linejoin="round"/>
    <path d="M 60.892879486083984 124.05341339111328 C 58.2813835144043 120.03165435791016 59.43936538696289 133.11122131347656 61.129119873046875 126.28500366210938" stroke-width="3.0" fill="none" stroke="rgb(0, 0, 0)" stroke-opacity="1.0" stroke-linecap="round" stroke-linejoin="round"/>
    <path d="M 134.39437866210938 104.38868713378906 C 123.35430908203125 87.44970703125 116.08163452148438 117.52442169189453 108.32554626464844 87.25038146972656" stroke-width="3.0" fill="none" stroke="rgb(0, 0, 0)" stroke-opacity="1.0" stroke-linecap="round" stroke-linejoin="round"/>
    <path d="M 30.67601203918457 131.33811950683594 C 26.691505432128906 103.23853302001953 36.09392547607422 96.30608367919922 48.80890655517578 79.42266082763672" stroke-width="3.0" fill="none" stroke="rgb(0, 0, 0)" stroke-opacity="1.0" stroke-linecap="round" stroke-linejoin="round"/>
    <path d="M 79.76903533935547 197.62071228027344 C 69.7768783569336 194.7974395751953 65.9491958618164 193.68853759765625 102.26477813720703 197.24929809570312" stroke-width="3.0" fill="none" stroke="rgb(0, 0, 0)" stroke-opacity="1.0" stroke-linecap="round" stroke-linejoin="round"/>
    <path d="M 163.6864776611328 134.2824249267578 C 201.40818786621094 116.98400115966797 180.49758911132812 94.11064147949219 157.20794677734375 90.7610855102539" stroke-width="3.0" fill="none" stroke="rgb(0, 0, 0)" stroke-opacity="1.0" stroke-linecap="round" stroke-linejoin="round"/>
    <path d="M 150.8475799560547 68.89461517333984 C 133.69773864746094 89.8501205444336 177.9615478515625 75.20420837402344 149.97402954101562 74.3035659790039" stroke-width="3.0" fill="none" stroke="rgb(0, 0, 0)" stroke-opacity="1.0" stroke-linecap="round" stroke-linejoin="round"/>
    <path d="M 140.95614624023438 76.66702270507812 C 151.17660522460938 43.448753356933594 196.4237060546875 113.63856506347656 179.30360412597656 48.270790100097656" stroke-width="3.0" fill="none" stroke="rgb(0, 0, 0)" stroke-opacity="1.0" stroke-linecap="round" stroke-linejoin="round"/>
    <path d="M 158.8162841796875 96.73661041259766 C 171.76075744628906 102.97516632080078 177.3716583251953 101.5323257446289 184.20169067382812 118.96578979492188" stroke-width="3.0" fill="none" stroke="rgb(0, 0, 0)" stroke-opacity="1.0" stroke-linecap="round" stroke-linejoin="round"/>
    <path d="M 176.18312072753906 17.628440856933594 C 167.50035095214844 40.682987213134766 182.91844177246094 18.655282974243164 162.40528869628906 32.7724494934082" stroke-width="3.0" fill="none" stroke="rgb(0, 0, 0)" stroke-opacity="1.0" stroke-linecap="round" stroke-linejoin="round"/>
    <path d="M 119.7909164428711 103.69359588623047 C 146.36183166503906 100.37960815429688 135.89805603027344 111.44100952148438 121.21295166015625 103.31614685058594" stroke-width="3.0" fill="none" stroke="rgb(0, 0, 0)" stroke-opacity="1.0" stroke-linecap="round" stroke-linejoin="round"/>
    <path d="M 73.76756286621094 136.20315551757812 C 52.93348693847656 119.77630615234375 61.161285400390625 113.33660888671875 59.058589935302734 118.01687622070312" stroke-width="3.0" fill="none" stroke="rgb(0, 0, 0)" stroke-opacity="1.0" stroke-linecap="round" stroke-linejoin="round"/>
    <path d="M 126.77513122558594 73.68585968017578 C 133.9292449951172 36.77030563354492 123.65103912353516 52.024845123291016 127.30540466308594 30.6474666595459" stroke-width="3.0" fill="none" stroke="rgb(0, 0, 0)" stroke-opacity="1.0" stroke-linecap="round" stroke-linejoin="round"/>
    <path d="M 154.8540496826172 25.385372161865234 C 146.855224609375 34.77288055419922 164.1630401611328 8.440195083618164 176.54652404785156 10.531217575073242" stroke-width="3.0" fill="none" stroke="rgb(0, 0, 0)" stroke-opacity="1.0" stroke-linecap="round" stroke-linejoin="round"/>
  </g>
</svg>
