<?xml version="1.0" ?>
<svg xmlns="http://www.w3.org/2000/svg" version="1.1" width="224" height="224">
  <defs/>
  <g>
    <path d="M 52.7874641418457 119.52323913574219 C 56.395538330078125 118.9474868774414 45.38850021362305 108.26102447509766 42.555179595947266 93.81269836425781" stroke-width="3.0" fill="none" stroke="rgb(0, 0, 0)" stroke-opacity="1.0" stroke-linecap="round" stroke-linejoin="round"/>
    <path d="M 179.8624267578125 126.9482421875 C 181.72369384765625 110.15097045898438 185.7099151611328 117.77630615234375 186.03457641601562 119.24669647216797" stroke-width="3.0" fill="none" stroke="rgb(0, 0, 0)" stroke-opacity="1.0" stroke-linecap="round" stroke-linejoin="round"/>
    <path d="M 49.47199249267578 111.62053680419922 C 51.39662551879883 113.37716674804688 48.14052200317383 106.01386260986328 50.91412353515625 115.53990936279297" stroke-width="3.0" fill="none" stroke="rgb(0, 0, 0)" stroke-opacity="1.0" stroke-linecap="round" stroke-linejoin="round"/>
    <path d="M 185.5794677734375 96.66004180908203 C 155.9897918701172 94.96699523925781 175.90719604492188 80.44225311279297 195.30763244628906 114.44950866699219" stroke-width="3.0" fill="none" stroke="rgb(0, 0, 0)" stroke-opacity="1.0" stroke-linecap="round" stroke-linejoin="round"/>
    <path d="M 186.97430419921875 76.85169982910156 C 182.1216278076172 93.26102447509766 179.83255004882812 84.41163635253906 184.28868103027344 65.49563598632812" stroke-width="3.0" fill="none" stroke="rgb(0, 0, 0)" stroke-opacity="1.0" stroke-linecap="round" stroke-linejoin="round"/>
    <path d="M 129.1573486328125 100.29459381103516 C 133.181396484375 115.22299194335938 113.23307800292969 99.72745513916016 132.53919982910156 109.57125854492188" stroke-width="3.0" fill="none" stroke="rgb(0, 0, 0)" stroke-opacity="1.0" stroke-linecap="round" stroke-linejoin="round"/>
    <path d="M 164.02357482910156 96.82306671142578 C 202.4885711669922 66.52467346191406 183.0767364501953 68.04090118408203 157.3953094482422 82.96553039550781" stroke-width="3.0" fill="none" stroke="rgb(0, 0, 0)" stroke-opacity="1.0" stroke-linecap="round" stroke-linejoin="round"/>
    <path d="M 52.046730041503906 180.17019653320312 C 37.57648468017578 151.0433349609375 44.83991241455078 158.14901733398438 40.64101791381836 155.30813598632812" stroke-width="3.0" fill="none" stroke="rgb(0, 0, 0)" stroke-opacity="1.0" stroke-linecap="round" stroke-linejoin="round"/>
    <path d="M 69.03894805908203 189.7256317138672 C 87.18437957763672 198.59864807128906 110.61209106445312 193.70912170410156 103.49690246582031 193.3255157470703" stroke-width="3.0" fill="none" stroke="rgb(0, 0, 0)" stroke-opacity="1.0" stroke-linecap="round" stroke-linejoin="round"/>
    <path d="M 91.39273071289062 20.778854370117188 C 97.29776000976562 66.08584594726562 87.02584838867188 25.478593826293945 90.33018493652344 58.746673583984375" stroke-width="3.0" fill="none" stroke="rgb(0, 0, 0)" stroke-opacity="1.0" stroke-linecap="round" stroke-linejoin="round"/>
    <path d="M 58.19910430908203 129.19949340820312 C 66.30116271972656 141.79409790039062 83.56275939941406 147.9973602294922 82.59815979003906 146.66477966308594" stroke-width="3.0" fill="none" stroke="rgb(0, 0, 0)" stroke-opacity="1.0" stroke-linecap="round" stroke-linejoin="round"/>
    <path d="M 161.865234375 77.89383697509766 C 200.35792541503906 77.57594299316406 180.34597778320312 86.23226928710938 145.49903869628906 86.0751953125" stroke-width="3.0" fill="none" stroke="rgb(0, 0, 0)" stroke-opacity="1.0" stroke-linecap="round" stroke-linejoin="round"/>
    <path d="M 149.87265014648438 100.87267303466797 C 176.26617431640625 102.94358825683594 172.8167266845703 100.09351348876953 187.73902893066406 106.84671020507812" stroke-width="3.0" fill="none" stroke="rgb(0, 0, 0)" stroke-opacity="1.0" stroke-linecap="round" stroke-linejoin="round"/>
    <path d="M 95.99828338623047 155.4684600830078 C 115.05196380615234 163.65927124023438 102.5908432006836 186.24514770507812 111.74593353271484 189.38372802734375" stroke-width="3.0" fill="none" stroke="rgb(0, 0, 0)" stroke-opacity="1.0" stroke-linecap="round" stroke-linejoin="round"/>
    <path d="M 171.21507263183594 9.496824264526367 C 191.63134765625 0.6020416021347046 177.19277954101562 47.950374603271484 184.2844696044922 59.949493408203125" stroke-width="3.0" fill="none" stroke="rgb(0, 0, 0)" stroke-opacity="1.0" stroke-linecap="round" stroke-linejoin="round"/>
    <path d="M 137.08987426757812 32.076141357421875 C 135.10353088378906 69.94987487792969 134.6947021484375 39.292789459228516 133.5697479248047 64.93576049804688" stroke-width="3.0" fill="none" stroke="rgb(0, 0, 0)" stroke-opacity="1.0" stroke-linecap="round" stroke-linejoin="round"/>
    <path d="M 93.4527816772461 49.54024887084961 C 74.20267486572266 -4.751220226287842 84.57866668701172 3.8306665420532227 101.93770599365234 42.48225402832031" stroke-width="3.0" fill="none" stroke="rgb(0, 0, 0)" stroke-opacity="1.0" stroke-linecap="round" stroke-linejoin="round"/>
    <path d="M 43.15019989013672 161.81149291992188 C 41.13969039916992 154.62327575683594 42.710205078125 160.87168884277344 43.26399612426758 161.48133850097656" stroke-width="3.0" fill="none" stroke="rgb(0, 0, 0)" stroke-opacity="1.0" stroke-linecap="round" stroke-linejoin="round"/>
    <path d="M 32.256080627441406 104.47116088867188 C 24.167573928833008 127.83641815185547 34.86020278930664 143.05003356933594 41.393760681152344 151.6536102294922" stroke-width="3.0" fill="none" stroke="rgb(0, 0, 0)" stroke-opacity="1.0" stroke-linecap="round" stroke-linejoin="round"/>
    <path d="M 86.63441467285156 145.73292541503906 C 96.2911605834961 158.02149963378906 98.6434555053711 158.21710205078125 90.28736877441406 150.60247802734375" stroke-width="3.0" fill="none" stroke="rgb(0, 0, 0)" stroke-opacity="1.0" stroke-linecap="round" stroke-linejoin="round"/>
    <path d="M 74.16300964355469 194.34231567382812 C 48.8548698425293 178.0052032470703 67.08811950683594 187.34397888183594 47.69538879394531 172.72183227539062" stroke-width="3.0" fill="none" stroke="rgb(0, 0, 0)" stroke-opacity="1.0" stroke-linecap="round" stroke-linejoin="round"/>
    <path d="M 43.7314338684082 161.9271697998047 C 54.51877212524414 171.5867462158203 39.11530303955078 157.98008728027344 36.9647216796875 146.56837463378906" stroke-width="3.0" fill="none" stroke="rgb(0, 0, 0)" stroke-opacity="1.0" stroke-linecap="round" stroke-linejoin="round"/>
    <path d="M 84.68878936767578 53.91880416870117 C 55.88090133666992 56.015438079833984 47.54469680786133 73.84058380126953 31.49539566040039 106.08938598632812" stroke-width="3.0" fill="none" stroke="rgb(0, 0, 0)" stroke-opacity="1.0" stroke-linecap="round" stroke-linejoin="round"/>
    <path d="M 150.32611083984375 157.82479858398438 C 144.24459838867188 158.49037170410156 129.07220458984375 144.3053741455078 139.38368225097656 161.3896942138672" stroke-width="3.0" fill="none" stroke="rgb(0, 0, 0)" stroke-opacity="1.0" stroke-linecap="round" stroke-linejoin="round"/>
    <path d="M 143.3327178955078 32.16706085205078 C 151.2907257080078 55.365264892578125 135.96096801757812 55.86009216308594 139.59368896484375 79.17378234863281" stroke-width="3.0" fill="none" stroke="rgb(0, 0, 0)" stroke-opacity="1.0" stroke-linecap="round" stroke-linejoin="round"/>
    <path d="M 146.3676300048828 100.44241333007812 C 128.6957550048828 116.52435302734375 119.84485626220703 103.40975952148438 128.3517303466797 103.33937072753906" stroke-width="3.0" fill="none" stroke="rgb(0, 0, 0)" stroke-opacity="1.0" stroke-linecap="round" stroke-linejoin="round"/>
    <path d="M 139.32093811035156 72.59364318847656 C 148.26431274414062 47.86452102661133 151.2423858642578 60.54008102416992 155.9378204345703 50.62987518310547" stroke-width="3.0" fill="none" stroke="rgb(0, 0, 0)" stroke-opacity="1.0" stroke-linecap="round" stroke-linejoin="round"/>
    <path d="M 119.77961730957031 186.80538940429688 C 97.40393829345703 190.61392211914062 112.86725616455078 201.78451538085938 135.0008544921875 169.39781188964844" stroke-width="3.0" fill="none" stroke="rgb(0, 0, 0)" stroke-opacity="1.0" stroke-linecap="round" stroke-linejoin="round"/>
    <path d="M 193.49322509765625 93.55232238769531 C 166.09336853027344 74.21342468261719 151.82467651367188 102.92257690429688 185.41551208496094 86.14082336425781" stroke-width="3.0" fill="none" stroke="rgb(0, 0, 0)" stroke-opacity="1.0" stroke-linecap="round" stroke-linejoin="round"/>
    <path d="M 167.5657196044922 71.43162536621094 C 192.8893280029297 71.21118927001953 196.50914001464844 72.36639404296875 164.4905548095703 71.47909545898438" stroke-width="3.0" fill="none" stroke="rgb(0, 0, 0)" stroke-opacity="1.0" stroke-linecap="round" stroke-linejoin="round"/>
    <path d="M 107.55870056152344 79.29074096679688 C 85.29782104492188 72.08220672607422 146.5789794921875 75.35138702392578 104.06486511230469 81.75395202636719" stroke-width="3.0" fill="none" stroke="rgb(0, 0, 0)" stroke-opacity="1.0" stroke-linecap="round" stroke-linejoin="round"/>
    <path d="M 139.68536376953125 156.9884796142578 C 138.0406951904297 150.46786499023438 125.7874755859375 152.4282684326172 110.7374038696289 139.8025360107422" stroke-width="3.0" fill="none" stroke="rgb(0, 0, 0)" stroke-opacity="1.0" stroke-linecap="round" stroke-linejoin="round"/>
    <path d="M 123.46906280517578 88.3900146484375 C 138.3422393798828 95.88072967529297 135.66514587402344 76.13159942626953 127.8985595703125 96.743408203125" stroke-width="3.0" fill="none" stroke="rgb(0, 0, 0)" stroke-opacity="1.0" stroke-linecap="round" stroke-linejoin="round"/>
    <path d="M 187.5696563720703 99.67778015136719 C 173.97933959960938 83.02843475341797 186.15261840820312 100.60899353027344 140.55101013183594 85.04828643798828" stroke-width="3.0" fill="none" stroke="rgb(0, 0, 0)" stroke-opacity="1.0" stroke-linecap="round" stroke-linejoin="round"/>
    <path d="M 84.08687591552734 8.911639213562012 C 113.65931701660156 17.824132919311523 112.71117401123047 36.744529724121094 129.34860229492188 31.434932708740234" stroke-width="3.0" fill="none" stroke="rgb(0, 0, 0)" stroke-opacity="1.0" stroke-linecap="round" stroke-linejoin="round"/>
    <path d="M 52.45807647705078 117.0046615600586 C 50.332298278808594 109.3717041015625 56.061954498291016 124.66334533691406 51.73243713378906 115.02827453613281" stroke-width="3.0" fill="none" stroke="rgb(0, 0, 0)" stroke-opacity="1.0" stroke-linecap="round" stroke-linejoin="round"/>
    <path d="M 120.14299774169922 100.73629760742188 C 97.54769134521484 86.10070037841797 124.32270812988281 99.7643814086914 109.753662109375 92.0671157836914" stroke-width="3.0" fill="none" stroke="rgb(0, 0, 0)" stroke-opacity="1.0" stroke-linecap="round" stroke-linejoin="round"/>
    <path d="M 29.113935470581055 122.82156372070312 C 32.02449035644531 97.27537536621094 33.371177673339844 104.0510025024414 30.824186325073242 113.84858703613281" stroke-width="3.0" fill="none" stroke="rgb(0, 0, 0)" stroke-opacity="1.0" stroke-linecap="round" stroke-linejoin="round"/>
    <path d="M 91.48751068115234 195.02610778808594 C 73.90190124511719 194.36944580078125 70.46855926513672 196.53750610351562 93.46319580078125 196.71189880371094" stroke-width="3.0" fill="none" stroke="rgb(0, 0, 0)" stroke-opacity="1.0" stroke-linecap="round" stroke-linejoin="round"/>
    <path d="M 157.2543487548828 139.23362731933594 C 207.2128143310547 111.36349487304688 177.9664764404297 96.55408477783203 151.14846801757812 93.29576110839844" stroke-width="3.0" fill="none" stroke="rgb(0, 0, 0)" stroke-opacity="1.0" stroke-linecap="round" stroke-linejoin="round"/>
    <path d="M 150.7498779296875 77.2474136352539 C 130.5590362548828 75.28424072265625 166.37774658203125 86.63013458251953 149.71539306640625 71.087158203125" stroke-width="3.0" fill="none" stroke="rgb(0, 0, 0)" stroke-opacity="1.0" stroke-linecap="round" stroke-linejoin="round"/>
    <path d="M 146.77708435058594 77.56861877441406 C 145.08021545410156 56.28691101074219 186.9119110107422 96.01380920410156 183.4972686767578 61.7655143737793" stroke-width="3.0" fill="none" stroke="rgb(0, 0, 0)" stroke-opacity="1.0" stroke-linecap="round" stroke-linejoin="round"/>
    <path d="M 149.44532775878906 96.97319030761719 C 158.69834899902344 102.52872467041016 170.904052734375 107.27745819091797 184.16329956054688 114.09686279296875" stroke-width="3.0" fill="none" stroke="rgb(0, 0, 0)" stroke-opacity="1.0" stroke-linecap="round" stroke-linejoin="round"/>
    <path d="M 176.91827392578125 18.119375228881836 C 163.73072814941406 41.67916488647461 177.4906768798828 28.790996551513672 164.11668395996094 41.90458297729492" stroke-width="3.0" fill="none" stroke="rgb(0, 0, 0)" stroke-opacity="1.0" stroke-linecap="round" stroke-linejoin="round"/>
    <path d="M 126.42230224609375 107.22377014160156 C 153.26461791992188 104.76390838623047 128.7816925048828 105.90462493896484 111.48710632324219 100.50377655029297" stroke-width="3.0" fill="none" stroke="rgb(0, 0, 0)" stroke-opacity="1.0" stroke-linecap="round" stroke-linejoin="round"/>
    <path d="M 51.44464874267578 113.27828216552734 C 52.534210205078125 115.67048645019531 47.52278518676758 107.5060806274414 57.5506591796875 127.8299789428711" stroke-width="3.0" fill="none" stroke="rgb(0, 0, 0)" stroke-opacity="1.0" stroke-linecap="round" stroke-linejoin="round"/>
    <path d="M 122.1026382446289 81.3962173461914 C 132.26205444335938 56.094512939453125 121.6678466796875 53.89558792114258 123.93773651123047 37.64553451538086" stroke-width="3.0" fill="none" stroke="rgb(0, 0, 0)" stroke-opacity="1.0" stroke-linecap="round" stroke-linejoin="round"/>
    <path d="M 147.22592163085938 32.76869201660156 C 147.7963104248047 37.26534652709961 152.2963104248047 17.628665924072266 174.30479431152344 7.891847133636475" stroke-width="3.0" fill="none" stroke="rgb(0, 0, 0)" stroke-opacity="1.0" stroke-linecap="round" stroke-linejoin="round"/>
  </g>
</svg>
