<?xml version="1.0" ?>
<svg xmlns="http://www.w3.org/2000/svg" version="1.1" width="224" height="224">
  <defs/>
  <g>
    <path d="M 60.94487762451172 98.72626495361328 C 65.74595642089844 94.74340057373047 52.69055938720703 88.97156524658203 60.551666259765625 66.86530303955078" stroke-width="3.0" fill="none" stroke="rgb(0, 0, 0)" stroke-opacity="1.0" stroke-linecap="round" stroke-linejoin="round"/>
    <path d="M 193.23825073242188 114.5379638671875 C 186.40208435058594 120.05569458007812 192.5797119140625 89.72249603271484 185.7335662841797 122.8448257446289" stroke-width="3.0" fill="none" stroke="rgb(0, 0, 0)" stroke-opacity="1.0" stroke-linecap="round" stroke-linejoin="round"/>
    <path d="M 61.50093460083008 120.83116912841797 C 59.73194122314453 87.91409301757812 61.54085159301758 129.54112243652344 69.10022735595703 124.29981231689453" stroke-width="3.0" fill="none" stroke="rgb(0, 0, 0)" stroke-opacity="1.0" stroke-linecap="round" stroke-linejoin="round"/>
    <path d="M 185.36830139160156 93.94414520263672 C 144.4305877685547 71.70256805419922 185.43875122070312 76.2303695678711 186.5782470703125 99.94014739990234" stroke-width="3.0" fill="none" stroke="rgb(0, 0, 0)" stroke-opacity="1.0" stroke-linecap="round" stroke-linejoin="round"/>
    <path d="M 174.64418029785156 46.449180603027344 C 192.96575927734375 85.3045425415039 178.08163452148438 96.9295883178711 181.37864685058594 69.77920532226562" stroke-width="3.0" fill="none" stroke="rgb(0, 0, 0)" stroke-opacity="1.0" stroke-linecap="round" stroke-linejoin="round"/>
    <path d="M 128.21971130371094 101.79607391357422 C 154.9609375 114.61980438232422 99.50084686279297 102.9791030883789 136.21080017089844 106.88055419921875" stroke-width="3.0" fill="none" stroke="rgb(0, 0, 0)" stroke-opacity="1.0" stroke-linecap="round" stroke-linejoin="round"/>
    <path d="M 183.79042053222656 82.25788879394531 C 176.05484008789062 73.47438049316406 194.2938690185547 72.89165496826172 150.73052978515625 88.21173858642578" stroke-width="3.0" fill="none" stroke="rgb(0, 0, 0)" stroke-opacity="1.0" stroke-linecap="round" stroke-linejoin="round"/>
    <path d="M 66.35865020751953 189.38632202148438 C 36.98991012573242 170.17352294921875 49.46317672729492 169.46902465820312 48.73910903930664 174.19573974609375" stroke-width="3.0" fill="none" stroke="rgb(0, 0, 0)" stroke-opacity="1.0" stroke-linecap="round" stroke-linejoin="round"/>
    <path d="M 58.51686096191406 185.61314392089844 C 81.70639038085938 212.30465698242188 132.82513427734375 195.35964965820312 135.53640747070312 166.2432403564453" stroke-width="3.0" fill="none" stroke="rgb(0, 0, 0)" stroke-opacity="1.0" stroke-linecap="round" stroke-linejoin="round"/>
    <path d="M 82.17342376708984 13.848512649536133 C 93.93319702148438 75.81285095214844 90.49642181396484 4.794950008392334 87.18807220458984 54.916996002197266" stroke-width="3.0" fill="none" stroke="rgb(0, 0, 0)" stroke-opacity="1.0" stroke-linecap="round" stroke-linejoin="round"/>
    <path d="M 60.37347412109375 86.16606903076172 C 62.04745101928711 137.9580841064453 75.68879699707031 133.6145782470703 63.73745346069336 120.33153533935547" stroke-width="3.0" fill="none" stroke="rgb(0, 0, 0)" stroke-opacity="1.0" stroke-linecap="round" stroke-linejoin="round"/>
    <path d="M 144.4138641357422 72.7438735961914 C 199.1896209716797 59.74294662475586 196.0048828125 91.41061401367188 140.44046020507812 85.08844757080078" stroke-width="3.0" fill="none" stroke="rgb(0, 0, 0)" stroke-opacity="1.0" stroke-linecap="round" stroke-linejoin="round"/>
    <path d="M 151.2488555908203 92.9970932006836 C 179.84811401367188 96.39387512207031 182.33572387695312 97.19420623779297 195.4940948486328 112.77656555175781" stroke-width="3.0" fill="none" stroke="rgb(0, 0, 0)" stroke-opacity="1.0" stroke-linecap="round" stroke-linejoin="round"/>
    <path d="M 115.84369659423828 145.85581970214844 C 157.8944091796875 158.58795166015625 105.5313949584961 144.29306030273438 107.07168579101562 156.75604248046875" stroke-width="3.0" fill="none" stroke="rgb(0, 0, 0)" stroke-opacity="1.0" stroke-linecap="round" stroke-linejoin="round"/>
    <path d="M 178.0637969970703 7.86353063583374 C 188.7801513671875 22.683425903320312 166.68714904785156 89.06765747070312 180.26657104492188 52.17166519165039" stroke-width="3.0" fill="none" stroke="rgb(0, 0, 0)" stroke-opacity="1.0" stroke-linecap="round" stroke-linejoin="round"/>
    <path d="M 140.50625610351562 32.47247314453125 C 109.4319076538086 17.71502113342285 139.28929138183594 48.08750915527344 123.07328796386719 82.36885070800781" stroke-width="3.0" fill="none" stroke="rgb(0, 0, 0)" stroke-opacity="1.0" stroke-linecap="round" stroke-linejoin="round"/>
    <path d="M 104.3074722290039 46.08089065551758 C 63.326683044433594 -8.84861946105957 82.43230438232422 2.196810007095337 121.06423950195312 30.59841537475586" stroke-width="3.0" fill="none" stroke="rgb(0, 0, 0)" stroke-opacity="1.0" stroke-linecap="round" stroke-linejoin="round"/>
    <path d="M 48.34024429321289 169.7930908203125 C 42.242340087890625 160.93954467773438 39.370304107666016 154.9657745361328 48.98060989379883 171.8134307861328" stroke-width="3.0" fill="none" stroke="rgb(0, 0, 0)" stroke-opacity="1.0" stroke-linecap="round" stroke-linejoin="round"/>
    <path d="M 52.73346710205078 76.27198028564453 C 16.134456634521484 126.50953674316406 39.98865509033203 139.51451110839844 46.23300552368164 166.16957092285156" stroke-width="3.0" fill="none" stroke="rgb(0, 0, 0)" stroke-opacity="1.0" stroke-linecap="round" stroke-linejoin="round"/>
    <path d="M 70.892822265625 134.5614776611328 C 132.9361114501953 159.0512237548828 95.20507049560547 154.16160583496094 86.76106262207031 141.1268768310547" stroke-width="3.0" fill="none" stroke="rgb(0, 0, 0)" stroke-opacity="1.0" stroke-linecap="round" stroke-linejoin="round"/>
    <path d="M 89.19477081298828 198.97462463378906 C 71.1634750366211 197.66282653808594 49.36494827270508 173.8264617919922 46.64718246459961 166.90863037109375" stroke-width="3.0" fill="none" stroke="rgb(0, 0, 0)" stroke-opacity="1.0" stroke-linecap="round" stroke-linejoin="round"/>
    <path d="M 47.920753479003906 171.75877380371094 C 71.59516143798828 192.55450439453125 46.3579216003418 173.13235473632812 39.10797882080078 151.1782989501953" stroke-width="3.0" fill="none" stroke="rgb(0, 0, 0)" stroke-opacity="1.0" stroke-linecap="round" stroke-linejoin="round"/>
    <path d="M 81.85617065429688 56.20515823364258 C 56.21299362182617 56.84756851196289 55.66228485107422 73.57087707519531 34.081398010253906 110.12262725830078" stroke-width="3.0" fill="none" stroke="rgb(0, 0, 0)" stroke-opacity="1.0" stroke-linecap="round" stroke-linejoin="round"/>
    <path d="M 155.63211059570312 135.51377868652344 C 104.20878601074219 156.4839630126953 89.16326141357422 159.62606811523438 145.8748016357422 145.60113525390625" stroke-width="3.0" fill="none" stroke="rgb(0, 0, 0)" stroke-opacity="1.0" stroke-linecap="round" stroke-linejoin="round"/>
    <path d="M 150.09120178222656 27.556703567504883 C 146.96542358398438 31.331396102905273 133.82293701171875 16.08186149597168 138.4653778076172 72.00189971923828" stroke-width="3.0" fill="none" stroke="rgb(0, 0, 0)" stroke-opacity="1.0" stroke-linecap="round" stroke-linejoin="round"/>
    <path d="M 144.44601440429688 100.50460052490234 C 121.98509979248047 111.8979721069336 117.7017593383789 106.67015075683594 110.13663482666016 98.28942108154297" stroke-width="3.0" fill="none" stroke="rgb(0, 0, 0)" stroke-opacity="1.0" stroke-linecap="round" stroke-linejoin="round"/>
    <path d="M 138.0359649658203 71.85623931884766 C 143.82264709472656 47.561519622802734 130.8562774658203 64.36734771728516 138.05117797851562 74.81770324707031" stroke-width="3.0" fill="none" stroke="rgb(0, 0, 0)" stroke-opacity="1.0" stroke-linecap="round" stroke-linejoin="round"/>
    <path d="M 139.5924530029297 160.1519012451172 C 127.42705535888672 176.96554565429688 141.57943725585938 167.96084594726562 144.0802459716797 146.2964630126953" stroke-width="3.0" fill="none" stroke="rgb(0, 0, 0)" stroke-opacity="1.0" stroke-linecap="round" stroke-linejoin="round"/>
    <path d="M 194.10023498535156 95.17454528808594 C 168.99728393554688 66.83399200439453 167.62261962890625 76.3807373046875 186.2654266357422 86.97763061523438" stroke-width="3.0" fill="none" stroke="rgb(0, 0, 0)" stroke-opacity="1.0" stroke-linecap="round" stroke-linejoin="round"/>
    <path d="M 151.2599639892578 78.26888275146484 C 131.21926879882812 53.698280334472656 202.85365295410156 93.60572814941406 179.54017639160156 61.84058380126953" stroke-width="3.0" fill="none" stroke="rgb(0, 0, 0)" stroke-opacity="1.0" stroke-linecap="round" stroke-linejoin="round"/>
    <path d="M 111.8736801147461 81.83528900146484 C 76.09739685058594 71.98077392578125 139.25193786621094 73.07542419433594 107.5831069946289 77.93419647216797" stroke-width="3.0" fill="none" stroke="rgb(0, 0, 0)" stroke-opacity="1.0" stroke-linecap="round" stroke-linejoin="round"/>
    <path d="M 167.11514282226562 127.89801025390625 C 141.17938232421875 156.4967803955078 102.04090881347656 143.48464965820312 102.47100067138672 153.8494415283203" stroke-width="3.0" fill="none" stroke="rgb(0, 0, 0)" stroke-opacity="1.0" stroke-linecap="round" stroke-linejoin="round"/>
    <path d="M 123.10222625732422 89.24120330810547 C 139.47698974609375 103.41912841796875 130.3341522216797 70.389404296875 126.59552001953125 106.07408142089844" stroke-width="3.0" fill="none" stroke="rgb(0, 0, 0)" stroke-opacity="1.0" stroke-linecap="round" stroke-linejoin="round"/>
    <path d="M 189.8588104248047 112.77972412109375 C 157.47398376464844 88.68549346923828 170.23150634765625 96.51873016357422 144.35516357421875 85.56659698486328" stroke-width="3.0" fill="none" stroke="rgb(0, 0, 0)" stroke-opacity="1.0" stroke-linecap="round" stroke-linejoin="round"/>
    <path d="M 92.89110565185547 24.09123420715332 C 125.23193359375 28.714496612548828 92.2341537475586 32.883445739746094 141.9971160888672 28.31448745727539" stroke-width="3.0" fill="none" stroke="rgb(0, 0, 0)" stroke-opacity="1.0" stroke-linecap="round" stroke-linejoin="round"/>
    <path d="M 63.741798400878906 116.92628479003906 C 64.1854248046875 107.50780487060547 56.328651428222656 126.83234405517578 70.5818862915039 132.86727905273438" stroke-width="3.0" fill="none" stroke="rgb(0, 0, 0)" stroke-opacity="1.0" stroke-linecap="round" stroke-linejoin="round"/>
    <path d="M 139.57684326171875 104.475341796875 C 113.72164916992188 96.05594635009766 121.78825378417969 118.84761810302734 106.14463806152344 88.93045806884766" stroke-width="3.0" fill="none" stroke="rgb(0, 0, 0)" stroke-opacity="1.0" stroke-linecap="round" stroke-linejoin="round"/>
    <path d="M 36.11993408203125 143.00477600097656 C 22.17645263671875 121.01271057128906 29.5768985748291 81.88811492919922 59.31288528442383 65.8253402709961" stroke-width="3.0" fill="none" stroke="rgb(0, 0, 0)" stroke-opacity="1.0" stroke-linecap="round" stroke-linejoin="round"/>
    <path d="M 107.57024383544922 197.1415557861328 C 78.26765441894531 202.7703399658203 75.4722900390625 195.4656982421875 100.34427642822266 199.31529235839844" stroke-width="3.0" fill="none" stroke="rgb(0, 0, 0)" stroke-opacity="1.0" stroke-linecap="round" stroke-linejoin="round"/>
    <path d="M 169.8275909423828 128.53134155273438 C 202.17837524414062 122.73817443847656 184.9998779296875 87.7490463256836 158.39808654785156 85.3870849609375" stroke-width="3.0" fill="none" stroke="rgb(0, 0, 0)" stroke-opacity="1.0" stroke-linecap="round" stroke-linejoin="round"/>
    <path d="M 148.21482849121094 68.23822021484375 C 128.88967895507812 86.6644287109375 166.11219787597656 78.00988006591797 146.3903350830078 71.33000946044922" stroke-width="3.0" fill="none" stroke="rgb(0, 0, 0)" stroke-opacity="1.0" stroke-linecap="round" stroke-linejoin="round"/>
    <path d="M 141.98988342285156 79.33805847167969 C 144.66270446777344 42.54524230957031 193.6769256591797 113.430419921875 177.62649536132812 44.1209831237793" stroke-width="3.0" fill="none" stroke="rgb(0, 0, 0)" stroke-opacity="1.0" stroke-linecap="round" stroke-linejoin="round"/>
    <path d="M 148.07655334472656 100.18807220458984 C 171.7818145751953 107.88343048095703 172.339111328125 101.90267944335938 182.96481323242188 119.16047668457031" stroke-width="3.0" fill="none" stroke="rgb(0, 0, 0)" stroke-opacity="1.0" stroke-linecap="round" stroke-linejoin="round"/>
    <path d="M 177.05775451660156 19.029590606689453 C 172.2722930908203 42.52776336669922 173.58404541015625 20.803937911987305 161.29592895507812 38.01690673828125" stroke-width="3.0" fill="none" stroke="rgb(0, 0, 0)" stroke-opacity="1.0" stroke-linecap="round" stroke-linejoin="round"/>
    <path d="M 121.3878402709961 103.08338165283203 C 143.3433074951172 102.88020324707031 131.3883056640625 115.13296508789062 122.98665618896484 104.51654815673828" stroke-width="3.0" fill="none" stroke="rgb(0, 0, 0)" stroke-opacity="1.0" stroke-linecap="round" stroke-linejoin="round"/>
    <path d="M 65.19532012939453 113.55023193359375 C 59.246341705322266 112.0746841430664 63.08915710449219 108.74357604980469 64.48200225830078 119.8243179321289" stroke-width="3.0" fill="none" stroke="rgb(0, 0, 0)" stroke-opacity="1.0" stroke-linecap="round" stroke-linejoin="round"/>
    <path d="M 121.73020935058594 74.36052703857422 C 119.91813659667969 38.10709762573242 112.34192657470703 61.98543930053711 117.80057525634766 31.293533325195312" stroke-width="3.0" fill="none" stroke="rgb(0, 0, 0)" stroke-opacity="1.0" stroke-linecap="round" stroke-linejoin="round"/>
    <path d="M 149.97535705566406 25.849742889404297 C 145.56488037109375 35.86473083496094 164.03074645996094 7.211498260498047 177.60165405273438 7.041262626647949" stroke-width="3.0" fill="none" stroke="rgb(0, 0, 0)" stroke-opacity="1.0" stroke-linecap="round" stroke-linejoin="round"/>
  </g>
</svg>
