<?xml version="1.0" ?>
<svg xmlns="http://www.w3.org/2000/svg" version="1.1" width="224" height="224">
  <defs/>
  <g>
    <path d="M 54.38186264038086 120.40586853027344 C 56.91868209838867 119.03955078125 45.964725494384766 111.23352813720703 43.010128021240234 94.71500396728516" stroke-width="3.0" fill="none" stroke="rgb(0, 0, 0)" stroke-opacity="1.0" stroke-linecap="round" stroke-linejoin="round"/>
    <path d="M 182.73492431640625 125.58493041992188 C 187.4088592529297 109.31910705566406 184.44635009765625 114.330078125 187.39181518554688 118.45064544677734" stroke-width="3.0" fill="none" stroke="rgb(0, 0, 0)" stroke-opacity="1.0" stroke-linecap="round" stroke-linejoin="round"/>
    <path d="M 48.10874938964844 109.53130340576172 C 52.54713439941406 111.79853820800781 47.84188461303711 107.28695678710938 50.188941955566406 111.3038330078125" stroke-width="3.0" fill="none" stroke="rgb(0, 0, 0)" stroke-opacity="1.0" stroke-linecap="round" stroke-linejoin="round"/>
    <path d="M 182.34896850585938 98.04106140136719 C 155.66900634765625 92.8609390258789 172.49803161621094 80.04581451416016 197.5963134765625 112.82408142089844" stroke-width="3.0" fill="none" stroke="rgb(0, 0, 0)" stroke-opacity="1.0" stroke-linecap="round" stroke-linejoin="round"/>
    <path d="M 186.93826293945312 72.50386810302734 C 181.7261199951172 79.712646484375 174.67129516601562 76.82290649414062 186.1180877685547 69.38426208496094" stroke-width="3.0" fill="none" stroke="rgb(0, 0, 0)" stroke-opacity="1.0" stroke-linecap="round" stroke-linejoin="round"/>
    <path d="M 127.6949691772461 95.41545104980469 C 132.4875030517578 112.45115661621094 113.6489486694336 99.89279174804688 134.93145751953125 104.51782989501953" stroke-width="3.0" fill="none" stroke="rgb(0, 0, 0)" stroke-opacity="1.0" stroke-linecap="round" stroke-linejoin="round"/>
    <path d="M 173.3807830810547 97.10779571533203 C 199.0585479736328 59.90170669555664 181.192138671875 64.20445251464844 163.80845642089844 82.01224517822266" stroke-width="3.0" fill="none" stroke="rgb(0, 0, 0)" stroke-opacity="1.0" stroke-linecap="round" stroke-linejoin="round"/>
    <path d="M 53.52573776245117 182.21652221679688 C 36.740089416503906 152.2084503173828 42.74953842163086 160.66131591796875 40.49549865722656 157.22723388671875" stroke-width="3.0" fill="none" stroke="rgb(0, 0, 0)" stroke-opacity="1.0" stroke-linecap="round" stroke-linejoin="round"/>
    <path d="M 66.39596557617188 190.6902313232422 C 90.5755615234375 198.68215942382812 114.4931640625 194.07113647460938 105.12932586669922 196.2987823486328" stroke-width="3.0" fill="none" stroke="rgb(0, 0, 0)" stroke-opacity="1.0" stroke-linecap="round" stroke-linejoin="round"/>
    <path d="M 87.47590637207031 24.040346145629883 C 92.4551010131836 58.3552131652832 88.75479888916016 28.554105758666992 88.10961151123047 51.79889678955078" stroke-width="3.0" fill="none" stroke="rgb(0, 0, 0)" stroke-opacity="1.0" stroke-linecap="round" stroke-linejoin="round"/>
    <path d="M 59.5604248046875 127.66410827636719 C 69.90491485595703 139.68202209472656 83.40530395507812 143.56234741210938 86.5483627319336 143.01773071289062" stroke-width="3.0" fill="none" stroke="rgb(0, 0, 0)" stroke-opacity="1.0" stroke-linecap="round" stroke-linejoin="round"/>
    <path d="M 168.08787536621094 81.1035385131836 C 190.4344482421875 72.80613708496094 172.24392700195312 82.72469329833984 141.4598388671875 86.0902099609375" stroke-width="3.0" fill="none" stroke="rgb(0, 0, 0)" stroke-opacity="1.0" stroke-linecap="round" stroke-linejoin="round"/>
    <path d="M 157.9576416015625 99.4961929321289 C 175.80166625976562 100.77550506591797 170.03997802734375 99.7802963256836 191.5267791748047 106.72537231445312" stroke-width="3.0" fill="none" stroke="rgb(0, 0, 0)" stroke-opacity="1.0" stroke-linecap="round" stroke-linejoin="round"/>
    <path d="M 94.66230773925781 158.20248413085938 C 110.74557495117188 171.5673065185547 98.87486267089844 186.31719970703125 112.86353302001953 193.7245635986328" stroke-width="3.0" fill="none" stroke="rgb(0, 0, 0)" stroke-opacity="1.0" stroke-linecap="round" stroke-linejoin="round"/>
    <path d="M 172.13938903808594 10.074585914611816 C 191.56300354003906 1.719763159751892 175.7653350830078 32.35378646850586 186.16058349609375 59.99827194213867" stroke-width="3.0" fill="none" stroke="rgb(0, 0, 0)" stroke-opacity="1.0" stroke-linecap="round" stroke-linejoin="round"/>
    <path d="M 131.55975341796875 31.082143783569336 C 126.98017120361328 67.9274673461914 131.28306579589844 34.24921417236328 131.2012939453125 67.49382019042969" stroke-width="3.0" fill="none" stroke="rgb(0, 0, 0)" stroke-opacity="1.0" stroke-linecap="round" stroke-linejoin="round"/>
    <path d="M 96.92106628417969 46.4072380065918 C 69.73172760009766 -2.828242540359497 85.93656921386719 4.841276168823242 105.52213287353516 40.941871643066406" stroke-width="3.0" fill="none" stroke="rgb(0, 0, 0)" stroke-opacity="1.0" stroke-linecap="round" stroke-linejoin="round"/>
    <path d="M 48.80779266357422 166.8587646484375 C 37.95811080932617 159.52813720703125 43.832740783691406 160.53927612304688 43.813663482666016 164.58029174804688" stroke-width="3.0" fill="none" stroke="rgb(0, 0, 0)" stroke-opacity="1.0" stroke-linecap="round" stroke-linejoin="round"/>
    <path d="M 32.04075241088867 105.69834899902344 C 24.71890640258789 132.6713104248047 35.49449157714844 140.7551727294922 42.60853576660156 160.31065368652344" stroke-width="3.0" fill="none" stroke="rgb(0, 0, 0)" stroke-opacity="1.0" stroke-linecap="round" stroke-linejoin="round"/>
    <path d="M 85.52557373046875 149.44027709960938 C 95.52815246582031 157.13790893554688 97.264892578125 159.82081604003906 87.1192626953125 151.71908569335938" stroke-width="3.0" fill="none" stroke="rgb(0, 0, 0)" stroke-opacity="1.0" stroke-linecap="round" stroke-linejoin="round"/>
    <path d="M 72.92317199707031 193.34103393554688 C 50.641845703125 179.03585815429688 69.86421203613281 190.9862518310547 49.89988708496094 174.4011993408203" stroke-width="3.0" fill="none" stroke="rgb(0, 0, 0)" stroke-opacity="1.0" stroke-linecap="round" stroke-linejoin="round"/>
    <path d="M 40.134376525878906 155.98486328125 C 48.12872314453125 171.1602020263672 40.40109634399414 158.77859497070312 37.33176040649414 145.187255859375" stroke-width="3.0" fill="none" stroke="rgb(0, 0, 0)" stroke-opacity="1.0" stroke-linecap="round" stroke-linejoin="round"/>
    <path d="M 74.44384765625 56.547569274902344 C 46.94091033935547 63.7433967590332 50.37322998046875 71.40074920654297 32.031982421875 106.11661529541016" stroke-width="3.0" fill="none" stroke="rgb(0, 0, 0)" stroke-opacity="1.0" stroke-linecap="round" stroke-linejoin="round"/>
    <path d="M 149.95693969726562 157.015869140625 C 145.08242797851562 162.11183166503906 126.03959655761719 148.06884765625 141.20785522460938 162.24513244628906" stroke-width="3.0" fill="none" stroke="rgb(0, 0, 0)" stroke-opacity="1.0" stroke-linecap="round" stroke-linejoin="round"/>
    <path d="M 141.72079467773438 32.963199615478516 C 148.17921447753906 51.81770324707031 132.8083953857422 51.22932052612305 138.1431121826172 81.09705352783203" stroke-width="3.0" fill="none" stroke="rgb(0, 0, 0)" stroke-opacity="1.0" stroke-linecap="round" stroke-linejoin="round"/>
    <path d="M 143.44615173339844 99.99121856689453 C 130.88720703125 115.73583984375 123.19552612304688 103.45040130615234 128.75804138183594 101.72786712646484" stroke-width="3.0" fill="none" stroke="rgb(0, 0, 0)" stroke-opacity="1.0" stroke-linecap="round" stroke-linejoin="round"/>
    <path d="M 138.9009246826172 73.85194396972656 C 144.35565185546875 48.800533294677734 145.41482543945312 57.40746307373047 149.5496826171875 48.91459274291992" stroke-width="3.0" fill="none" stroke="rgb(0, 0, 0)" stroke-opacity="1.0" stroke-linecap="round" stroke-linejoin="round"/>
    <path d="M 114.8412094116211 192.4290008544922 C 101.0399398803711 189.51280212402344 115.61572265625 204.8296661376953 135.3184814453125 171.67922973632812" stroke-width="3.0" fill="none" stroke="rgb(0, 0, 0)" stroke-opacity="1.0" stroke-linecap="round" stroke-linejoin="round"/>
    <path d="M 190.75021362304688 89.95897674560547 C 154.94989013671875 82.09391021728516 149.3256378173828 92.16020965576172 185.62716674804688 80.69071197509766" stroke-width="3.0" fill="none" stroke="rgb(0, 0, 0)" stroke-opacity="1.0" stroke-linecap="round" stroke-linejoin="round"/>
    <path d="M 167.34506225585938 77.87417602539062 C 190.5305938720703 75.04749298095703 196.4732666015625 67.26786041259766 165.00706481933594 74.46794891357422" stroke-width="3.0" fill="none" stroke="rgb(0, 0, 0)" stroke-opacity="1.0" stroke-linecap="round" stroke-linejoin="round"/>
    <path d="M 107.72059631347656 78.37667083740234 C 92.26933288574219 71.8887710571289 140.8350372314453 76.86368560791016 105.74566650390625 81.0078125" stroke-width="3.0" fill="none" stroke="rgb(0, 0, 0)" stroke-opacity="1.0" stroke-linecap="round" stroke-linejoin="round"/>
    <path d="M 135.38658142089844 156.2257843017578 C 139.6384735107422 154.90097045898438 126.6913833618164 157.18380737304688 104.16150665283203 138.74473571777344" stroke-width="3.0" fill="none" stroke="rgb(0, 0, 0)" stroke-opacity="1.0" stroke-linecap="round" stroke-linejoin="round"/>
    <path d="M 123.90403747558594 87.73973846435547 C 136.160888671875 100.5422592163086 135.59701538085938 78.01954650878906 128.22279357910156 94.67345428466797" stroke-width="3.0" fill="none" stroke="rgb(0, 0, 0)" stroke-opacity="1.0" stroke-linecap="round" stroke-linejoin="round"/>
    <path d="M 188.8511199951172 97.66146087646484 C 171.131103515625 82.47923278808594 182.95872497558594 99.45491027832031 140.70957946777344 85.4530029296875" stroke-width="3.0" fill="none" stroke="rgb(0, 0, 0)" stroke-opacity="1.0" stroke-linecap="round" stroke-linejoin="round"/>
    <path d="M 85.41802978515625 10.790590286254883 C 113.70238494873047 18.774829864501953 116.92938232421875 36.56221389770508 122.9633560180664 31.050594329833984" stroke-width="3.0" fill="none" stroke="rgb(0, 0, 0)" stroke-opacity="1.0" stroke-linecap="round" stroke-linejoin="round"/>
    <path d="M 51.551212310791016 115.16092681884766 C 50.234092712402344 108.86129760742188 57.16074752807617 123.31153869628906 51.159271240234375 113.3847427368164" stroke-width="3.0" fill="none" stroke="rgb(0, 0, 0)" stroke-opacity="1.0" stroke-linecap="round" stroke-linejoin="round"/>
    <path d="M 120.71410369873047 100.7088623046875 C 96.98971557617188 86.86428833007812 118.10242462158203 106.63113403320312 107.1173324584961 90.85299682617188" stroke-width="3.0" fill="none" stroke="rgb(0, 0, 0)" stroke-opacity="1.0" stroke-linecap="round" stroke-linejoin="round"/>
    <path d="M 29.921878814697266 116.50260162353516 C 34.300933837890625 97.92176818847656 33.75862121582031 102.71487426757812 30.271987915039062 115.82562255859375" stroke-width="3.0" fill="none" stroke="rgb(0, 0, 0)" stroke-opacity="1.0" stroke-linecap="round" stroke-linejoin="round"/>
    <path d="M 86.56364440917969 195.9178466796875 C 71.71345520019531 193.90640258789062 71.15287780761719 189.45849609375 91.84095764160156 196.17361450195312" stroke-width="3.0" fill="none" stroke="rgb(0, 0, 0)" stroke-opacity="1.0" stroke-linecap="round" stroke-linejoin="round"/>
    <path d="M 159.89031982421875 136.38314819335938 C 210.2271728515625 113.55850982666016 178.6632537841797 98.92040252685547 152.256591796875 92.13267517089844" stroke-width="3.0" fill="none" stroke="rgb(0, 0, 0)" stroke-opacity="1.0" stroke-linecap="round" stroke-linejoin="round"/>
    <path d="M 152.47935485839844 76.90261840820312 C 127.5176010131836 65.56674194335938 163.49998474121094 88.97075653076172 152.41737365722656 71.6833724975586" stroke-width="3.0" fill="none" stroke="rgb(0, 0, 0)" stroke-opacity="1.0" stroke-linecap="round" stroke-linejoin="round"/>
    <path d="M 142.28164672851562 77.95307922363281 C 145.50088500976562 55.877105712890625 182.2732391357422 95.64746856689453 185.8032684326172 60.598873138427734" stroke-width="3.0" fill="none" stroke="rgb(0, 0, 0)" stroke-opacity="1.0" stroke-linecap="round" stroke-linejoin="round"/>
    <path d="M 147.19760131835938 96.73745727539062 C 157.79721069335938 96.20780181884766 172.2029571533203 106.54125213623047 184.20872497558594 113.83179473876953" stroke-width="3.0" fill="none" stroke="rgb(0, 0, 0)" stroke-opacity="1.0" stroke-linecap="round" stroke-linejoin="round"/>
    <path d="M 174.4381866455078 18.900226593017578 C 171.3217010498047 45.421993255615234 175.01239013671875 26.47679328918457 165.96946716308594 42.38200759887695" stroke-width="3.0" fill="none" stroke="rgb(0, 0, 0)" stroke-opacity="1.0" stroke-linecap="round" stroke-linejoin="round"/>
    <path d="M 125.89788818359375 103.78992462158203 C 156.33592224121094 109.44125366210938 128.46836853027344 97.00679016113281 111.05875396728516 101.15848541259766" stroke-width="3.0" fill="none" stroke="rgb(0, 0, 0)" stroke-opacity="1.0" stroke-linecap="round" stroke-linejoin="round"/>
    <path d="M 52.0621223449707 112.33365631103516 C 54.40495300292969 112.04314422607422 46.153465270996094 107.69842529296875 59.794586181640625 128.30462646484375" stroke-width="3.0" fill="none" stroke="rgb(0, 0, 0)" stroke-opacity="1.0" stroke-linecap="round" stroke-linejoin="round"/>
    <path d="M 122.11270141601562 81.06614685058594 C 129.51882934570312 61.79866027832031 113.48892974853516 55.46234893798828 122.64202117919922 32.29689407348633" stroke-width="3.0" fill="none" stroke="rgb(0, 0, 0)" stroke-opacity="1.0" stroke-linecap="round" stroke-linejoin="round"/>
    <path d="M 147.5541229248047 31.564903259277344 C 150.11297607421875 33.251399993896484 152.3891143798828 17.325946807861328 174.07237243652344 9.057389259338379" stroke-width="3.0" fill="none" stroke="rgb(0, 0, 0)" stroke-opacity="1.0" stroke-linecap="round" stroke-linejoin="round"/>
  </g>
</svg>
