<?xml version="1.0" ?>
<svg xmlns="http://www.w3.org/2000/svg" version="1.1" width="224" height="224">
  <defs/>
  <g>
    <path d="M 63.146610260009766 81.83654022216797 C 65.32494354248047 80.64608764648438 66.20977020263672 84.1985092163086 54.93675994873047 74.56114196777344" stroke-width="3.0" fill="none" stroke="rgb(0, 0, 0)" stroke-opacity="1.0" stroke-linecap="round" stroke-linejoin="round"/>
    <path d="M 185.979248046875 121.148681640625 C 183.7670135498047 110.77853393554688 197.30921936035156 92.87184143066406 177.8807830810547 125.95377349853516" stroke-width="3.0" fill="none" stroke="rgb(0, 0, 0)" stroke-opacity="1.0" stroke-linecap="round" stroke-linejoin="round"/>
    <path d="M 62.74272537231445 125.20417785644531 C 54.0849609375 99.56703186035156 59.53057861328125 126.60118103027344 65.37287139892578 129.79417419433594" stroke-width="3.0" fill="none" stroke="rgb(0, 0, 0)" stroke-opacity="1.0" stroke-linecap="round" stroke-linejoin="round"/>
    <path d="M 184.18907165527344 98.22953033447266 C 154.1278076171875 84.78691864013672 175.21885681152344 80.92134094238281 195.97718811035156 114.78771209716797" stroke-width="3.0" fill="none" stroke="rgb(0, 0, 0)" stroke-opacity="1.0" stroke-linecap="round" stroke-linejoin="round"/>
    <path d="M 183.14305114746094 61.55754089355469 C 177.1633758544922 112.66146850585938 182.21412658691406 99.29759216308594 184.91746520996094 68.14916229248047" stroke-width="3.0" fill="none" stroke="rgb(0, 0, 0)" stroke-opacity="1.0" stroke-linecap="round" stroke-linejoin="round"/>
    <path d="M 123.81534576416016 103.21846771240234 C 146.18551635742188 117.49634552001953 103.5248031616211 99.377685546875 134.6287384033203 101.92872619628906" stroke-width="3.0" fill="none" stroke="rgb(0, 0, 0)" stroke-opacity="1.0" stroke-linecap="round" stroke-linejoin="round"/>
    <path d="M 175.4070281982422 98.27452850341797 C 188.80337524414062 86.90077209472656 177.55227661132812 73.23558807373047 157.72793579101562 86.471923828125" stroke-width="3.0" fill="none" stroke="rgb(0, 0, 0)" stroke-opacity="1.0" stroke-linecap="round" stroke-linejoin="round"/>
    <path d="M 58.79484558105469 183.63980102539062 C 37.76097869873047 154.80712890625 47.400482177734375 166.22109985351562 49.44446563720703 174.72280883789062" stroke-width="3.0" fill="none" stroke="rgb(0, 0, 0)" stroke-opacity="1.0" stroke-linecap="round" stroke-linejoin="round"/>
    <path d="M 59.31597900390625 183.6447296142578 C 94.78560638427734 210.87051391601562 111.5494384765625 196.53082275390625 133.0950469970703 179.88397216796875" stroke-width="3.0" fill="none" stroke="rgb(0, 0, 0)" stroke-opacity="1.0" stroke-linecap="round" stroke-linejoin="round"/>
    <path d="M 86.70559692382812 33.85511016845703 C 98.34188079833984 72.05683898925781 87.36610412597656 12.774506568908691 86.35578155517578 52.18482971191406" stroke-width="3.0" fill="none" stroke="rgb(0, 0, 0)" stroke-opacity="1.0" stroke-linecap="round" stroke-linejoin="round"/>
    <path d="M 51.72993850708008 104.99542236328125 C 62.81597137451172 134.70443725585938 98.97895812988281 157.227783203125 98.37898254394531 153.67520141601562" stroke-width="3.0" fill="none" stroke="rgb(0, 0, 0)" stroke-opacity="1.0" stroke-linecap="round" stroke-linejoin="round"/>
    <path d="M 142.20220947265625 74.7657699584961 C 203.20431518554688 67.35393524169922 188.36375427246094 81.46534729003906 152.5894775390625 86.48434448242188" stroke-width="3.0" fill="none" stroke="rgb(0, 0, 0)" stroke-opacity="1.0" stroke-linecap="round" stroke-linejoin="round"/>
    <path d="M 149.27330017089844 95.30255126953125 C 185.32077026367188 101.37214660644531 173.96730041503906 104.69510650634766 194.2914581298828 112.79846954345703" stroke-width="3.0" fill="none" stroke="rgb(0, 0, 0)" stroke-opacity="1.0" stroke-linecap="round" stroke-linejoin="round"/>
    <path d="M 120.12899017333984 154.8744354248047 C 144.97686767578125 147.51828002929688 124.3187026977539 159.76683044433594 119.21393585205078 150.70594787597656" stroke-width="3.0" fill="none" stroke="rgb(0, 0, 0)" stroke-opacity="1.0" stroke-linecap="round" stroke-linejoin="round"/>
    <path d="M 179.606689453125 8.040289878845215 C 188.9495391845703 21.428232192993164 174.2708740234375 57.978336334228516 180.27928161621094 49.001502990722656" stroke-width="3.0" fill="none" stroke="rgb(0, 0, 0)" stroke-opacity="1.0" stroke-linecap="round" stroke-linejoin="round"/>
    <path d="M 131.15846252441406 30.438108444213867 C 122.20442199707031 56.0479850769043 133.59571838378906 38.89007568359375 125.22029113769531 69.68316650390625" stroke-width="3.0" fill="none" stroke="rgb(0, 0, 0)" stroke-opacity="1.0" stroke-linecap="round" stroke-linejoin="round"/>
    <path d="M 89.0736312866211 48.207786560058594 C 75.7661361694336 -6.989677429199219 83.5060043334961 0.35582059621810913 108.4833755493164 40.6324462890625" stroke-width="3.0" fill="none" stroke="rgb(0, 0, 0)" stroke-opacity="1.0" stroke-linecap="round" stroke-linejoin="round"/>
    <path d="M 46.0886116027832 166.96026611328125 C 40.0788688659668 154.6626739501953 36.76851272583008 147.63668823242188 45.01751708984375 166.19451904296875" stroke-width="3.0" fill="none" stroke="rgb(0, 0, 0)" stroke-opacity="1.0" stroke-linecap="round" stroke-linejoin="round"/>
    <path d="M 32.929229736328125 100.10884857177734 C 23.631444931030273 121.75912475585938 38.01992416381836 148.31143188476562 40.74015426635742 152.14773559570312" stroke-width="3.0" fill="none" stroke="rgb(0, 0, 0)" stroke-opacity="1.0" stroke-linecap="round" stroke-linejoin="round"/>
    <path d="M 91.97123718261719 149.10572814941406 C 100.81185150146484 159.05642700195312 105.46121215820312 161.64781188964844 104.31298828125 151.5028076171875" stroke-width="3.0" fill="none" stroke="rgb(0, 0, 0)" stroke-opacity="1.0" stroke-linecap="round" stroke-linejoin="round"/>
    <path d="M 83.20610046386719 195.86764526367188 C 68.05023956298828 198.64523315429688 49.583282470703125 178.35324096679688 47.48351287841797 169.84173583984375" stroke-width="3.0" fill="none" stroke="rgb(0, 0, 0)" stroke-opacity="1.0" stroke-linecap="round" stroke-linejoin="round"/>
    <path d="M 45.61399459838867 166.024658203125 C 59.91492462158203 193.99545288085938 45.132774353027344 163.74461364746094 39.20883560180664 150.88099670410156" stroke-width="3.0" fill="none" stroke="rgb(0, 0, 0)" stroke-opacity="1.0" stroke-linecap="round" stroke-linejoin="round"/>
    <path d="M 79.90767669677734 56.666648864746094 C 60.82328414916992 56.366920471191406 47.846500396728516 72.25757598876953 31.923442840576172 103.49971771240234" stroke-width="3.0" fill="none" stroke="rgb(0, 0, 0)" stroke-opacity="1.0" stroke-linecap="round" stroke-linejoin="round"/>
    <path d="M 148.84417724609375 142.4037322998047 C 125.922119140625 157.70875549316406 115.73358154296875 149.70375061035156 131.013427734375 155.3566131591797" stroke-width="3.0" fill="none" stroke="rgb(0, 0, 0)" stroke-opacity="1.0" stroke-linecap="round" stroke-linejoin="round"/>
    <path d="M 138.4021453857422 31.01519775390625 C 148.5699462890625 63.80467224121094 134.01353454589844 54.50769805908203 136.1626434326172 80.35782623291016" stroke-width="3.0" fill="none" stroke="rgb(0, 0, 0)" stroke-opacity="1.0" stroke-linecap="round" stroke-linejoin="round"/>
    <path d="M 147.65753173828125 99.3669662475586 C 119.6351318359375 113.32176971435547 140.8539276123047 108.54039001464844 129.11297607421875 102.89791107177734" stroke-width="3.0" fill="none" stroke="rgb(0, 0, 0)" stroke-opacity="1.0" stroke-linecap="round" stroke-linejoin="round"/>
    <path d="M 135.50872802734375 74.32179260253906 C 147.05224609375 56.99756622314453 131.8256378173828 58.08777618408203 135.4381866455078 74.95814514160156" stroke-width="3.0" fill="none" stroke="rgb(0, 0, 0)" stroke-opacity="1.0" stroke-linecap="round" stroke-linejoin="round"/>
    <path d="M 133.62799072265625 180.3666229248047 C 126.97303009033203 185.15013122558594 138.520263671875 179.0841064453125 143.47299194335938 149.37091064453125" stroke-width="3.0" fill="none" stroke="rgb(0, 0, 0)" stroke-opacity="1.0" stroke-linecap="round" stroke-linejoin="round"/>
    <path d="M 191.62953186035156 96.47872161865234 C 167.35765075683594 70.05473327636719 150.8936004638672 84.13595581054688 186.0327911376953 86.61416625976562" stroke-width="3.0" fill="none" stroke="rgb(0, 0, 0)" stroke-opacity="1.0" stroke-linecap="round" stroke-linejoin="round"/>
    <path d="M 145.79306030273438 78.45335388183594 C 162.8818359375 62.01091003417969 191.8763427734375 87.6475601196289 181.76100158691406 63.59132766723633" stroke-width="3.0" fill="none" stroke="rgb(0, 0, 0)" stroke-opacity="1.0" stroke-linecap="round" stroke-linejoin="round"/>
    <path d="M 115.19342041015625 82.72547149658203 C 79.89431762695312 75.15287017822266 139.481201171875 75.28117370605469 108.22209167480469 83.52682495117188" stroke-width="3.0" fill="none" stroke="rgb(0, 0, 0)" stroke-opacity="1.0" stroke-linecap="round" stroke-linejoin="round"/>
    <path d="M 154.72996520996094 134.9958953857422 C 133.09869384765625 166.1597442626953 115.33198547363281 149.36489868164062 104.70889282226562 158.38653564453125" stroke-width="3.0" fill="none" stroke="rgb(0, 0, 0)" stroke-opacity="1.0" stroke-linecap="round" stroke-linejoin="round"/>
    <path d="M 125.48268127441406 90.10956573486328 C 143.35609436035156 103.26943969726562 135.17486572265625 69.20085144042969 130.35789489746094 105.58380126953125" stroke-width="3.0" fill="none" stroke="rgb(0, 0, 0)" stroke-opacity="1.0" stroke-linecap="round" stroke-linejoin="round"/>
    <path d="M 190.27207946777344 109.69200897216797 C 181.49403381347656 83.84980773925781 187.16249084472656 93.41764831542969 141.18038940429688 84.40082550048828" stroke-width="3.0" fill="none" stroke="rgb(0, 0, 0)" stroke-opacity="1.0" stroke-linecap="round" stroke-linejoin="round"/>
    <path d="M 87.27156829833984 9.46102237701416 C 101.2413558959961 12.166787147521973 115.60076141357422 31.4311580657959 119.28646087646484 31.35559844970703" stroke-width="3.0" fill="none" stroke="rgb(0, 0, 0)" stroke-opacity="1.0" stroke-linecap="round" stroke-linejoin="round"/>
    <path d="M 60.52373123168945 124.31001281738281 C 57.5087776184082 113.51492309570312 65.25816345214844 131.7101287841797 58.575714111328125 120.50743103027344" stroke-width="3.0" fill="none" stroke="rgb(0, 0, 0)" stroke-opacity="1.0" stroke-linecap="round" stroke-linejoin="round"/>
    <path d="M 137.49021911621094 107.35530853271484 C 122.80406951904297 95.85271453857422 120.37006378173828 117.68865966796875 113.86672973632812 90.19963836669922" stroke-width="3.0" fill="none" stroke="rgb(0, 0, 0)" stroke-opacity="1.0" stroke-linecap="round" stroke-linejoin="round"/>
    <path d="M 30.38193702697754 132.60292053222656 C 27.931148529052734 103.89009094238281 38.264869689941406 101.0664291381836 41.87395477294922 87.83479309082031" stroke-width="3.0" fill="none" stroke="rgb(0, 0, 0)" stroke-opacity="1.0" stroke-linecap="round" stroke-linejoin="round"/>
    <path d="M 78.76556396484375 197.15333557128906 C 72.69660949707031 192.6999969482422 70.06746673583984 191.98974609375 96.61479187011719 199.1871795654297" stroke-width="3.0" fill="none" stroke="rgb(0, 0, 0)" stroke-opacity="1.0" stroke-linecap="round" stroke-linejoin="round"/>
    <path d="M 156.0003662109375 133.02415466308594 C 208.46640014648438 117.60479736328125 181.30722045898438 98.00323486328125 156.77847290039062 90.88886260986328" stroke-width="3.0" fill="none" stroke="rgb(0, 0, 0)" stroke-opacity="1.0" stroke-linecap="round" stroke-linejoin="round"/>
    <path d="M 153.7504119873047 70.37651062011719 C 128.3220977783203 80.55359649658203 169.74050903320312 82.61896514892578 143.5021514892578 71.59009552001953" stroke-width="3.0" fill="none" stroke="rgb(0, 0, 0)" stroke-opacity="1.0" stroke-linecap="round" stroke-linejoin="round"/>
    <path d="M 141.38999938964844 78.05857849121094 C 145.69664001464844 44.181419372558594 196.13880920410156 114.33197784423828 180.43653869628906 44.236053466796875" stroke-width="3.0" fill="none" stroke="rgb(0, 0, 0)" stroke-opacity="1.0" stroke-linecap="round" stroke-linejoin="round"/>
    <path d="M 156.5384063720703 97.09933471679688 C 170.67022705078125 105.82172393798828 174.06590270996094 101.63907623291016 182.134765625 118.21803283691406" stroke-width="3.0" fill="none" stroke="rgb(0, 0, 0)" stroke-opacity="1.0" stroke-linecap="round" stroke-linejoin="round"/>
    <path d="M 176.02987670898438 17.98516845703125 C 173.1759490966797 44.58739471435547 175.3550567626953 26.440046310424805 160.8181610107422 37.35943603515625" stroke-width="3.0" fill="none" stroke="rgb(0, 0, 0)" stroke-opacity="1.0" stroke-linecap="round" stroke-linejoin="round"/>
    <path d="M 117.29985809326172 102.37586212158203 C 146.48304748535156 103.0807876586914 132.46922302246094 115.27413940429688 120.07457733154297 103.5396728515625" stroke-width="3.0" fill="none" stroke="rgb(0, 0, 0)" stroke-opacity="1.0" stroke-linecap="round" stroke-linejoin="round"/>
    <path d="M 79.8782730102539 135.86985778808594 C 50.751216888427734 121.02142333984375 58.99702453613281 109.65552520751953 62.76312255859375 120.0640640258789" stroke-width="3.0" fill="none" stroke="rgb(0, 0, 0)" stroke-opacity="1.0" stroke-linecap="round" stroke-linejoin="round"/>
    <path d="M 122.59745788574219 77.21373748779297 C 128.10362243652344 40.22631072998047 116.74803924560547 58.149871826171875 125.2569351196289 30.52758026123047" stroke-width="3.0" fill="none" stroke="rgb(0, 0, 0)" stroke-opacity="1.0" stroke-linecap="round" stroke-linejoin="round"/>
    <path d="M 148.59974670410156 31.21590232849121 C 143.4364013671875 38.83688735961914 159.82005310058594 9.147953033447266 177.7639617919922 7.95802116394043" stroke-width="3.0" fill="none" stroke="rgb(0, 0, 0)" stroke-opacity="1.0" stroke-linecap="round" stroke-linejoin="round"/>
  </g>
</svg>
