<?xml version="1.0" ?>
<svg xmlns="http://www.w3.org/2000/svg" version="1.1" width="224" height="224">
  <defs/>
  <g>
    <path d="M 52.58747863769531 117.3327865600586 C 54.399497985839844 118.794677734375 45.245059967041016 105.26206970214844 43.02863693237305 90.90943908691406" stroke-width="3.0" fill="none" stroke="rgb(0, 0, 0)" stroke-opacity="1.0" stroke-linecap="round" stroke-linejoin="round"/>
    <path d="M 181.99160766601562 127.20842742919922 C 180.78472900390625 117.3895263671875 182.15533447265625 114.8968734741211 185.94583129882812 123.92102813720703" stroke-width="3.0" fill="none" stroke="rgb(0, 0, 0)" stroke-opacity="1.0" stroke-linecap="round" stroke-linejoin="round"/>
    <path d="M 50.770023345947266 115.15054321289062 C 46.73223876953125 109.87539672851562 49.786048889160156 103.80511474609375 54.47953796386719 123.70860290527344" stroke-width="3.0" fill="none" stroke="rgb(0, 0, 0)" stroke-opacity="1.0" stroke-linecap="round" stroke-linejoin="round"/>
    <path d="M 183.5493621826172 98.06996154785156 C 154.6885528564453 88.20665740966797 172.67141723632812 79.32881927490234 195.7371368408203 112.92620849609375" stroke-width="3.0" fill="none" stroke="rgb(0, 0, 0)" stroke-opacity="1.0" stroke-linecap="round" stroke-linejoin="round"/>
    <path d="M 176.91407775878906 74.6702880859375 C 178.28012084960938 100.11260223388672 177.1621856689453 93.08340454101562 184.1123046875 65.60383605957031" stroke-width="3.0" fill="none" stroke="rgb(0, 0, 0)" stroke-opacity="1.0" stroke-linecap="round" stroke-linejoin="round"/>
    <path d="M 129.93077087402344 99.5265121459961 C 143.53765869140625 106.82038116455078 102.06253814697266 105.3115234375 135.48074340820312 105.77014923095703" stroke-width="3.0" fill="none" stroke="rgb(0, 0, 0)" stroke-opacity="1.0" stroke-linecap="round" stroke-linejoin="round"/>
    <path d="M 167.88560485839844 99.06559753417969 C 197.8681640625 72.30868530273438 183.4767303466797 74.26366424560547 151.58792114257812 86.19768524169922" stroke-width="3.0" fill="none" stroke="rgb(0, 0, 0)" stroke-opacity="1.0" stroke-linecap="round" stroke-linejoin="round"/>
    <path d="M 51.64116668701172 180.52088928222656 C 34.541107177734375 151.17715454101562 49.35918045043945 161.90907287597656 43.90259552001953 161.62432861328125" stroke-width="3.0" fill="none" stroke="rgb(0, 0, 0)" stroke-opacity="1.0" stroke-linecap="round" stroke-linejoin="round"/>
    <path d="M 64.3412094116211 190.4633026123047 C 86.16129302978516 203.50930786132812 110.80014038085938 196.88134765625 111.27568054199219 192.2205810546875" stroke-width="3.0" fill="none" stroke="rgb(0, 0, 0)" stroke-opacity="1.0" stroke-linecap="round" stroke-linejoin="round"/>
    <path d="M 89.50218963623047 27.645923614501953 C 89.47399139404297 54.658077239990234 88.73463439941406 11.452688217163086 87.78004455566406 51.87749099731445" stroke-width="3.0" fill="none" stroke="rgb(0, 0, 0)" stroke-opacity="1.0" stroke-linecap="round" stroke-linejoin="round"/>
    <path d="M 56.571990966796875 127.11959075927734 C 63.468971252441406 143.55340576171875 92.71321868896484 149.3837127685547 93.65245056152344 151.5579071044922" stroke-width="3.0" fill="none" stroke="rgb(0, 0, 0)" stroke-opacity="1.0" stroke-linecap="round" stroke-linejoin="round"/>
    <path d="M 149.32763671875 67.8685073852539 C 208.94053649902344 77.07465362548828 184.2534942626953 81.98926544189453 147.09768676757812 86.39035034179688" stroke-width="3.0" fill="none" stroke="rgb(0, 0, 0)" stroke-opacity="1.0" stroke-linecap="round" stroke-linejoin="round"/>
    <path d="M 146.6661376953125 99.4498519897461 C 175.79505920410156 98.19505310058594 175.5507049560547 98.95264434814453 184.0606231689453 107.10755920410156" stroke-width="3.0" fill="none" stroke="rgb(0, 0, 0)" stroke-opacity="1.0" stroke-linecap="round" stroke-linejoin="round"/>
    <path d="M 102.6213607788086 152.52041625976562 C 138.50294494628906 148.3341522216797 118.16278076171875 181.40078735351562 120.18535614013672 179.23947143554688" stroke-width="3.0" fill="none" stroke="rgb(0, 0, 0)" stroke-opacity="1.0" stroke-linecap="round" stroke-linejoin="round"/>
    <path d="M 170.4205780029297 10.185708045959473 C 192.6726531982422 -0.7917280197143555 171.3784637451172 55.389305114746094 183.1883544921875 62.24503707885742" stroke-width="3.0" fill="none" stroke="rgb(0, 0, 0)" stroke-opacity="1.0" stroke-linecap="round" stroke-linejoin="round"/>
    <path d="M 129.19320678710938 29.915842056274414 C 127.91801452636719 50.76832962036133 138.24960327148438 40.372711181640625 129.6458282470703 71.10090637207031" stroke-width="3.0" fill="none" stroke="rgb(0, 0, 0)" stroke-opacity="1.0" stroke-linecap="round" stroke-linejoin="round"/>
    <path d="M 91.24530792236328 47.562461853027344 C 75.74407958984375 -6.254698276519775 84.13465118408203 0.4488866329193115 101.32158660888672 43.44426727294922" stroke-width="3.0" fill="none" stroke="rgb(0, 0, 0)" stroke-opacity="1.0" stroke-linecap="round" stroke-linejoin="round"/>
    <path d="M 43.634220123291016 162.6885986328125 C 41.069950103759766 152.85723876953125 38.238739013671875 152.53590393066406 41.913909912109375 151.6790008544922" stroke-width="3.0" fill="none" stroke="rgb(0, 0, 0)" stroke-opacity="1.0" stroke-linecap="round" stroke-linejoin="round"/>
    <path d="M 32.47706604003906 109.00450897216797 C 25.069068908691406 129.27081298828125 36.940086364746094 141.783203125 40.80937957763672 156.6176300048828" stroke-width="3.0" fill="none" stroke="rgb(0, 0, 0)" stroke-opacity="1.0" stroke-linecap="round" stroke-linejoin="round"/>
    <path d="M 82.55696868896484 147.0707244873047 C 101.77446746826172 154.09666442871094 103.14996337890625 155.64634704589844 94.63514709472656 152.5084686279297" stroke-width="3.0" fill="none" stroke="rgb(0, 0, 0)" stroke-opacity="1.0" stroke-linecap="round" stroke-linejoin="round"/>
    <path d="M 74.97923278808594 196.1524200439453 C 51.44199752807617 182.79049682617188 60.147613525390625 184.26792907714844 48.44613265991211 170.94529724121094" stroke-width="3.0" fill="none" stroke="rgb(0, 0, 0)" stroke-opacity="1.0" stroke-linecap="round" stroke-linejoin="round"/>
    <path d="M 42.919715881347656 164.24427795410156 C 56.15733337402344 188.5010986328125 40.42066192626953 164.96957397460938 39.641075134277344 149.33229064941406" stroke-width="3.0" fill="none" stroke="rgb(0, 0, 0)" stroke-opacity="1.0" stroke-linecap="round" stroke-linejoin="round"/>
    <path d="M 82.5569076538086 52.053619384765625 C 58.405006408691406 54.90708541870117 48.41916275024414 76.0522689819336 32.82033920288086 109.3115463256836" stroke-width="3.0" fill="none" stroke="rgb(0, 0, 0)" stroke-opacity="1.0" stroke-linecap="round" stroke-linejoin="round"/>
    <path d="M 147.15640258789062 145.116943359375 C 142.04067993164062 161.3920135498047 120.23272705078125 152.63893127441406 129.0542755126953 160.76060485839844" stroke-width="3.0" fill="none" stroke="rgb(0, 0, 0)" stroke-opacity="1.0" stroke-linecap="round" stroke-linejoin="round"/>
    <path d="M 138.6411590576172 29.736169815063477 C 149.13946533203125 66.30657196044922 133.05824279785156 51.135005950927734 139.30125427246094 79.25666809082031" stroke-width="3.0" fill="none" stroke="rgb(0, 0, 0)" stroke-opacity="1.0" stroke-linecap="round" stroke-linejoin="round"/>
    <path d="M 143.6588134765625 102.07568359375 C 116.7360610961914 102.32707214355469 106.23728942871094 104.17286682128906 140.82933044433594 104.96747589111328" stroke-width="3.0" fill="none" stroke="rgb(0, 0, 0)" stroke-opacity="1.0" stroke-linecap="round" stroke-linejoin="round"/>
    <path d="M 136.8907928466797 71.1243896484375 C 150.6995086669922 55.66107940673828 144.21658325195312 57.04039764404297 137.47817993164062 74.98346710205078" stroke-width="3.0" fill="none" stroke="rgb(0, 0, 0)" stroke-opacity="1.0" stroke-linecap="round" stroke-linejoin="round"/>
    <path d="M 124.30448150634766 185.5752410888672 C 95.10148620605469 198.7089080810547 129.6065216064453 198.62347412109375 140.1901397705078 156.93408203125" stroke-width="3.0" fill="none" stroke="rgb(0, 0, 0)" stroke-opacity="1.0" stroke-linecap="round" stroke-linejoin="round"/>
    <path d="M 192.38059997558594 94.8680419921875 C 157.90243530273438 67.75630950927734 137.14755249023438 98.10936737060547 184.8638153076172 85.42140197753906" stroke-width="3.0" fill="none" stroke="rgb(0, 0, 0)" stroke-opacity="1.0" stroke-linecap="round" stroke-linejoin="round"/>
    <path d="M 155.49130249023438 70.62163543701172 C 186.37730407714844 71.20904541015625 195.27984619140625 81.12973022460938 169.906005859375 72.56503295898438" stroke-width="3.0" fill="none" stroke="rgb(0, 0, 0)" stroke-opacity="1.0" stroke-linecap="round" stroke-linejoin="round"/>
    <path d="M 108.63024139404297 79.81917572021484 C 89.84147644042969 71.17015838623047 139.65725708007812 73.30332946777344 107.29110717773438 82.77395629882812" stroke-width="3.0" fill="none" stroke="rgb(0, 0, 0)" stroke-opacity="1.0" stroke-linecap="round" stroke-linejoin="round"/>
    <path d="M 141.491455078125 153.63467407226562 C 140.10914611816406 159.84068298339844 124.64636993408203 155.4772491455078 106.45781707763672 152.57330322265625" stroke-width="3.0" fill="none" stroke="rgb(0, 0, 0)" stroke-opacity="1.0" stroke-linecap="round" stroke-linejoin="round"/>
    <path d="M 122.18626403808594 89.12709045410156 C 141.3437042236328 99.30005645751953 131.40272521972656 68.3106918334961 127.59516143798828 101.57281494140625" stroke-width="3.0" fill="none" stroke="rgb(0, 0, 0)" stroke-opacity="1.0" stroke-linecap="round" stroke-linejoin="round"/>
    <path d="M 187.42263793945312 108.9867172241211 C 183.70179748535156 83.08255004882812 185.1944122314453 94.73455047607422 140.38668823242188 84.9743423461914" stroke-width="3.0" fill="none" stroke="rgb(0, 0, 0)" stroke-opacity="1.0" stroke-linecap="round" stroke-linejoin="round"/>
    <path d="M 85.59089660644531 8.854126930236816 C 112.87671661376953 17.81521224975586 115.79281616210938 33.654964447021484 121.60175323486328 33.01814270019531" stroke-width="3.0" fill="none" stroke="rgb(0, 0, 0)" stroke-opacity="1.0" stroke-linecap="round" stroke-linejoin="round"/>
    <path d="M 51.56449890136719 117.52629852294922 C 47.298377990722656 109.3075180053711 54.95566177368164 123.7195816040039 53.42130661010742 121.62950897216797" stroke-width="3.0" fill="none" stroke="rgb(0, 0, 0)" stroke-opacity="1.0" stroke-linecap="round" stroke-linejoin="round"/>
    <path d="M 113.74873352050781 100.62924194335938 C 103.29042053222656 86.02555084228516 118.98660278320312 109.17296600341797 103.4476089477539 88.83783721923828" stroke-width="3.0" fill="none" stroke="rgb(0, 0, 0)" stroke-opacity="1.0" stroke-linecap="round" stroke-linejoin="round"/>
    <path d="M 29.834718704223633 128.1536102294922 C 30.460796356201172 108.42398071289062 35.410709381103516 103.50100708007812 30.672744750976562 116.87545776367188" stroke-width="3.0" fill="none" stroke="rgb(0, 0, 0)" stroke-opacity="1.0" stroke-linecap="round" stroke-linejoin="round"/>
    <path d="M 86.7385482788086 197.48434448242188 C 73.01448059082031 198.70733642578125 70.65445709228516 192.97576904296875 95.30095672607422 196.35157775878906" stroke-width="3.0" fill="none" stroke="rgb(0, 0, 0)" stroke-opacity="1.0" stroke-linecap="round" stroke-linejoin="round"/>
    <path d="M 149.421142578125 147.50225830078125 C 209.48809814453125 111.33625793457031 181.17034912109375 94.49855041503906 151.30038452148438 92.31317138671875" stroke-width="3.0" fill="none" stroke="rgb(0, 0, 0)" stroke-opacity="1.0" stroke-linecap="round" stroke-linejoin="round"/>
    <path d="M 156.94654846191406 74.82681274414062 C 124.82301330566406 81.33673095703125 183.34957885742188 80.39608764648438 150.28628540039062 72.14179992675781" stroke-width="3.0" fill="none" stroke="rgb(0, 0, 0)" stroke-opacity="1.0" stroke-linecap="round" stroke-linejoin="round"/>
    <path d="M 143.03213500976562 76.60047149658203 C 146.19923400878906 51.44833755493164 190.06239318847656 101.8119125366211 181.85244750976562 50.6392936706543" stroke-width="3.0" fill="none" stroke="rgb(0, 0, 0)" stroke-opacity="1.0" stroke-linecap="round" stroke-linejoin="round"/>
    <path d="M 149.38031005859375 97.59739685058594 C 160.78860473632812 102.02864074707031 176.3626708984375 105.97503662109375 185.60122680664062 113.33795166015625" stroke-width="3.0" fill="none" stroke="rgb(0, 0, 0)" stroke-opacity="1.0" stroke-linecap="round" stroke-linejoin="round"/>
    <path d="M 177.2208251953125 14.382808685302734 C 172.47100830078125 43.09667205810547 175.12857055664062 22.292062759399414 160.48182678222656 38.1429443359375" stroke-width="3.0" fill="none" stroke="rgb(0, 0, 0)" stroke-opacity="1.0" stroke-linecap="round" stroke-linejoin="round"/>
    <path d="M 127.9261474609375 105.31207275390625 C 140.6847381591797 105.49286651611328 124.52041625976562 114.51367950439453 110.22016906738281 98.16249084472656" stroke-width="3.0" fill="none" stroke="rgb(0, 0, 0)" stroke-opacity="1.0" stroke-linecap="round" stroke-linejoin="round"/>
    <path d="M 52.0344352722168 117.95155334472656 C 52.041847229003906 116.41139221191406 45.12860107421875 109.58897399902344 59.17951202392578 131.7601318359375" stroke-width="3.0" fill="none" stroke="rgb(0, 0, 0)" stroke-opacity="1.0" stroke-linecap="round" stroke-linejoin="round"/>
    <path d="M 120.2822036743164 73.0181884765625 C 125.00103759765625 53.76264572143555 119.41839599609375 52.92144775390625 122.35404968261719 30.158395767211914" stroke-width="3.0" fill="none" stroke="rgb(0, 0, 0)" stroke-opacity="1.0" stroke-linecap="round" stroke-linejoin="round"/>
    <path d="M 144.2702178955078 31.45543098449707 C 142.955810546875 39.7203483581543 150.25390625 16.599349975585938 174.8922882080078 9.107928276062012" stroke-width="3.0" fill="none" stroke="rgb(0, 0, 0)" stroke-opacity="1.0" stroke-linecap="round" stroke-linejoin="round"/>
  </g>
</svg>
