<?xml version="1.0" ?>
<svg xmlns="http://www.w3.org/2000/svg" version="1.1" width="224" height="224">
  <defs/>
  <g>
    <path d="M 64.32939910888672 96.5443115234375 C 63.26602554321289 97.97734069824219 61.71521759033203 97.49873352050781 55.90687561035156 93.43946838378906" stroke-width="3.0" fill="none" stroke="rgb(0, 0, 0)" stroke-opacity="1.0" stroke-linecap="round" stroke-linejoin="round"/>
    <path d="M 181.51976013183594 132.67066955566406 C 176.28536987304688 120.0800552368164 171.36497497558594 123.56902313232422 183.2766571044922 127.2513198852539" stroke-width="3.0" fill="none" stroke="rgb(0, 0, 0)" stroke-opacity="1.0" stroke-linecap="round" stroke-linejoin="round"/>
    <path d="M 54.682838439941406 110.38788604736328 C 50.86796951293945 107.56524658203125 50.98125457763672 93.70558166503906 49.5289306640625 105.01692199707031" stroke-width="3.0" fill="none" stroke="rgb(0, 0, 0)" stroke-opacity="1.0" stroke-linecap="round" stroke-linejoin="round"/>
    <path d="M 176.44456481933594 97.86046600341797 C 168.78326416015625 116.8260269165039 165.353271484375 96.57921600341797 180.08279418945312 112.66976165771484" stroke-width="3.0" fill="none" stroke="rgb(0, 0, 0)" stroke-opacity="1.0" stroke-linecap="round" stroke-linejoin="round"/>
    <path d="M 178.26123046875 78.7887191772461 C 177.4012451171875 81.49331665039062 176.03138732910156 75.73908996582031 186.84693908691406 89.67882537841797" stroke-width="3.0" fill="none" stroke="rgb(0, 0, 0)" stroke-opacity="1.0" stroke-linecap="round" stroke-linejoin="round"/>
    <path d="M 129.5822296142578 107.33785247802734 C 122.25755310058594 115.06481170654297 121.86553192138672 108.70061492919922 129.41433715820312 112.47393798828125" stroke-width="3.0" fill="none" stroke="rgb(0, 0, 0)" stroke-opacity="1.0" stroke-linecap="round" stroke-linejoin="round"/>
    <path d="M 174.85836791992188 82.91551971435547 C 182.276611328125 89.9448471069336 178.92308044433594 85.17080688476562 160.2337646484375 87.18651580810547" stroke-width="3.0" fill="none" stroke="rgb(0, 0, 0)" stroke-opacity="1.0" stroke-linecap="round" stroke-linejoin="round"/>
    <path d="M 57.711456298828125 176.15762329101562 C 56.18043518066406 165.0823516845703 53.054649353027344 177.82205200195312 59.767822265625 165.06002807617188" stroke-width="3.0" fill="none" stroke="rgb(0, 0, 0)" stroke-opacity="1.0" stroke-linecap="round" stroke-linejoin="round"/>
    <path d="M 77.7220687866211 189.47903442382812 C 77.13548278808594 189.3953399658203 86.43186950683594 189.45196533203125 83.70787811279297 185.68077087402344" stroke-width="3.0" fill="none" stroke="rgb(0, 0, 0)" stroke-opacity="1.0" stroke-linecap="round" stroke-linejoin="round"/>
    <path d="M 84.6142349243164 51.195133209228516 C 81.17725372314453 73.86454010009766 90.9676284790039 83.27716827392578 84.19995880126953 71.10404968261719" stroke-width="3.0" fill="none" stroke="rgb(0, 0, 0)" stroke-opacity="1.0" stroke-linecap="round" stroke-linejoin="round"/>
    <path d="M 72.44144439697266 142.37527465820312 C 75.6703872680664 148.10411071777344 76.68990325927734 150.04644775390625 81.59181213378906 152.7211151123047" stroke-width="3.0" fill="none" stroke="rgb(0, 0, 0)" stroke-opacity="1.0" stroke-linecap="round" stroke-linejoin="round"/>
    <path d="M 174.31260681152344 93.42996215820312 C 183.2216796875 88.15480041503906 179.7989959716797 96.59683227539062 155.3285369873047 94.0787582397461" stroke-width="3.0" fill="none" stroke="rgb(0, 0, 0)" stroke-opacity="1.0" stroke-linecap="round" stroke-linejoin="round"/>
    <path d="M 153.939453125 103.65579223632812 C 176.9656219482422 103.60271453857422 161.30995178222656 97.04651641845703 175.26742553710938 103.41304779052734" stroke-width="3.0" fill="none" stroke="rgb(0, 0, 0)" stroke-opacity="1.0" stroke-linecap="round" stroke-linejoin="round"/>
    <path d="M 83.02117156982422 174.65428161621094 C 90.34577941894531 181.4483184814453 99.53622436523438 181.98361206054688 98.69664001464844 186.9295654296875" stroke-width="3.0" fill="none" stroke="rgb(0, 0, 0)" stroke-opacity="1.0" stroke-linecap="round" stroke-linejoin="round"/>
    <path d="M 171.3025665283203 21.87933349609375 C 171.7279815673828 14.12144660949707 176.3398895263672 31.517362594604492 175.2331085205078 50.71354293823242" stroke-width="3.0" fill="none" stroke="rgb(0, 0, 0)" stroke-opacity="1.0" stroke-linecap="round" stroke-linejoin="round"/>
    <path d="M 127.13388061523438 38.15107345581055 C 126.47061157226562 45.71330642700195 132.3387908935547 41.6811408996582 130.78396606445312 52.84640121459961" stroke-width="3.0" fill="none" stroke="rgb(0, 0, 0)" stroke-opacity="1.0" stroke-linecap="round" stroke-linejoin="round"/>
    <path d="M 82.55632781982422 22.41550064086914 C 74.63339233398438 -2.0064189434051514 79.77283477783203 10.877726554870605 98.4552230834961 44.1968994140625" stroke-width="3.0" fill="none" stroke="rgb(0, 0, 0)" stroke-opacity="1.0" stroke-linecap="round" stroke-linejoin="round"/>
    <path d="M 48.288063049316406 164.0589141845703 C 45.743072509765625 155.3577423095703 41.617225646972656 159.64703369140625 48.61227035522461 158.84231567382812" stroke-width="3.0" fill="none" stroke="rgb(0, 0, 0)" stroke-opacity="1.0" stroke-linecap="round" stroke-linejoin="round"/>
    <path d="M 49.76664352416992 139.8459930419922 C 56.573890686035156 141.52108764648438 39.341339111328125 144.73370361328125 44.87125015258789 142.190673828125" stroke-width="3.0" fill="none" stroke="rgb(0, 0, 0)" stroke-opacity="1.0" stroke-linecap="round" stroke-linejoin="round"/>
    <path d="M 72.2514877319336 165.0672607421875 C 74.71273040771484 161.69178771972656 76.76446533203125 161.40956115722656 75.18907928466797 162.89288330078125" stroke-width="3.0" fill="none" stroke="rgb(0, 0, 0)" stroke-opacity="1.0" stroke-linecap="round" stroke-linejoin="round"/>
    <path d="M 72.29251861572266 187.5916290283203 C 65.76818084716797 170.95449829101562 74.44335174560547 188.81756591796875 63.152164459228516 175.94642639160156" stroke-width="3.0" fill="none" stroke="rgb(0, 0, 0)" stroke-opacity="1.0" stroke-linecap="round" stroke-linejoin="round"/>
    <path d="M 44.886104583740234 157.52346801757812 C 48.412410736083984 162.20350646972656 38.33936309814453 149.8040313720703 44.76367950439453 157.34603881835938" stroke-width="3.0" fill="none" stroke="rgb(0, 0, 0)" stroke-opacity="1.0" stroke-linecap="round" stroke-linejoin="round"/>
    <path d="M 63.91792297363281 73.18099212646484 C 53.212303161621094 84.94701385498047 61.49378204345703 73.01476287841797 42.945045471191406 103.99239349365234" stroke-width="3.0" fill="none" stroke="rgb(0, 0, 0)" stroke-opacity="1.0" stroke-linecap="round" stroke-linejoin="round"/>
    <path d="M 145.92271423339844 163.35267639160156 C 127.7188720703125 144.0337371826172 134.78488159179688 134.2775115966797 133.7390899658203 150.79010009765625" stroke-width="3.0" fill="none" stroke="rgb(0, 0, 0)" stroke-opacity="1.0" stroke-linecap="round" stroke-linejoin="round"/>
    <path d="M 139.90701293945312 40.58833312988281 C 135.37631225585938 52.00547790527344 137.30038452148438 67.52168273925781 139.05796813964844 76.72391510009766" stroke-width="3.0" fill="none" stroke="rgb(0, 0, 0)" stroke-opacity="1.0" stroke-linecap="round" stroke-linejoin="round"/>
    <path d="M 145.3267364501953 103.42211151123047 C 133.9209747314453 111.34603118896484 121.81079864501953 105.70026397705078 122.62566375732422 101.93843841552734" stroke-width="3.0" fill="none" stroke="rgb(0, 0, 0)" stroke-opacity="1.0" stroke-linecap="round" stroke-linejoin="round"/>
    <path d="M 143.040283203125 68.00736236572266 C 143.2175750732422 62.057308197021484 156.30039978027344 52.17595672607422 152.83995056152344 54.58232498168945" stroke-width="3.0" fill="none" stroke="rgb(0, 0, 0)" stroke-opacity="1.0" stroke-linecap="round" stroke-linejoin="round"/>
    <path d="M 101.03321838378906 184.15943908691406 C 96.07975769042969 179.03443908691406 76.33550262451172 181.3801727294922 124.6987075805664 182.88473510742188" stroke-width="3.0" fill="none" stroke="rgb(0, 0, 0)" stroke-opacity="1.0" stroke-linecap="round" stroke-linejoin="round"/>
    <path d="M 183.52699279785156 86.54029083251953 C 186.6809844970703 82.29611206054688 180.46397399902344 95.61508178710938 183.09994506835938 82.966552734375" stroke-width="3.0" fill="none" stroke="rgb(0, 0, 0)" stroke-opacity="1.0" stroke-linecap="round" stroke-linejoin="round"/>
    <path d="M 177.98875427246094 92.95037841796875 C 172.80645751953125 89.5589599609375 176.1383514404297 92.77732849121094 174.62045288085938 92.70643615722656" stroke-width="3.0" fill="none" stroke="rgb(0, 0, 0)" stroke-opacity="1.0" stroke-linecap="round" stroke-linejoin="round"/>
    <path d="M 108.15968322753906 79.53620147705078 C 99.17414093017578 68.53532409667969 127.04134368896484 79.31585693359375 110.75199127197266 80.2635726928711" stroke-width="3.0" fill="none" stroke="rgb(0, 0, 0)" stroke-opacity="1.0" stroke-linecap="round" stroke-linejoin="round"/>
    <path d="M 125.13330078125 151.40464782714844 C 115.55007934570312 138.9126434326172 124.6189193725586 145.6658477783203 120.29397583007812 148.09494018554688" stroke-width="3.0" fill="none" stroke="rgb(0, 0, 0)" stroke-opacity="1.0" stroke-linecap="round" stroke-linejoin="round"/>
    <path d="M 122.35609436035156 92.22293853759766 C 141.3772430419922 100.96288299560547 134.86814880371094 83.11371612548828 128.51669311523438 100.35804748535156" stroke-width="3.0" fill="none" stroke="rgb(0, 0, 0)" stroke-opacity="1.0" stroke-linecap="round" stroke-linejoin="round"/>
    <path d="M 174.7249755859375 105.47246551513672 C 170.8394775390625 90.53305053710938 178.76272583007812 101.17350006103516 152.9711456298828 98.48751068115234" stroke-width="3.0" fill="none" stroke="rgb(0, 0, 0)" stroke-opacity="1.0" stroke-linecap="round" stroke-linejoin="round"/>
    <path d="M 80.38626098632812 10.881216049194336 C 102.22270202636719 22.403554916381836 112.17367553710938 28.332504272460938 111.14064025878906 36.47098159790039" stroke-width="3.0" fill="none" stroke="rgb(0, 0, 0)" stroke-opacity="1.0" stroke-linecap="round" stroke-linejoin="round"/>
    <path d="M 53.155738830566406 109.40082550048828 C 53.29241180419922 109.62620544433594 66.0949478149414 117.01331329345703 56.945587158203125 112.6139144897461" stroke-width="3.0" fill="none" stroke="rgb(0, 0, 0)" stroke-opacity="1.0" stroke-linecap="round" stroke-linejoin="round"/>
    <path d="M 116.48970031738281 107.50308227539062 C 102.81938934326172 111.95985412597656 116.16777038574219 109.50872039794922 104.69440460205078 108.24555206298828" stroke-width="3.0" fill="none" stroke="rgb(0, 0, 0)" stroke-opacity="1.0" stroke-linecap="round" stroke-linejoin="round"/>
    <path d="M 39.28193283081055 114.82057189941406 C 43.72429275512695 100.08155059814453 40.76097106933594 100.72772979736328 40.705875396728516 109.04267120361328" stroke-width="3.0" fill="none" stroke="rgb(0, 0, 0)" stroke-opacity="1.0" stroke-linecap="round" stroke-linejoin="round"/>
    <path d="M 84.43245697021484 180.01666259765625 C 76.57183074951172 185.96324157714844 80.2306137084961 195.87806701660156 83.66815948486328 183.20877075195312" stroke-width="3.0" fill="none" stroke="rgb(0, 0, 0)" stroke-opacity="1.0" stroke-linecap="round" stroke-linejoin="round"/>
    <path d="M 171.15016174316406 124.13763427734375 C 168.8933868408203 117.76693725585938 166.26409912109375 104.9987564086914 149.7236328125 102.4980697631836" stroke-width="3.0" fill="none" stroke="rgb(0, 0, 0)" stroke-opacity="1.0" stroke-linecap="round" stroke-linejoin="round"/>
    <path d="M 140.72264099121094 81.32514190673828 C 154.5513458251953 77.45101165771484 135.85372924804688 82.50572204589844 152.660888671875 82.00255584716797" stroke-width="3.0" fill="none" stroke="rgb(0, 0, 0)" stroke-opacity="1.0" stroke-linecap="round" stroke-linejoin="round"/>
    <path d="M 162.56753540039062 73.42584228515625 C 170.45521545410156 71.36685180664062 174.80499267578125 73.12258911132812 178.5430908203125 73.70933532714844" stroke-width="3.0" fill="none" stroke="rgb(0, 0, 0)" stroke-opacity="1.0" stroke-linecap="round" stroke-linejoin="round"/>
    <path d="M 143.6415252685547 110.8693618774414 C 150.75184631347656 118.42768859863281 149.06820678710938 119.37936401367188 149.94699096679688 120.49259948730469" stroke-width="3.0" fill="none" stroke="rgb(0, 0, 0)" stroke-opacity="1.0" stroke-linecap="round" stroke-linejoin="round"/>
    <path d="M 168.20425415039062 25.953266143798828 C 176.0465850830078 40.617916107177734 163.49940490722656 35.96318435668945 173.00767517089844 45.085811614990234" stroke-width="3.0" fill="none" stroke="rgb(0, 0, 0)" stroke-opacity="1.0" stroke-linecap="round" stroke-linejoin="round"/>
    <path d="M 120.97282409667969 114.81401824951172 C 136.81573486328125 103.32715606689453 124.10480499267578 106.92745971679688 114.90541076660156 114.48564147949219" stroke-width="3.0" fill="none" stroke="rgb(0, 0, 0)" stroke-opacity="1.0" stroke-linecap="round" stroke-linejoin="round"/>
    <path d="M 54.246360778808594 107.57998657226562 C 47.827030181884766 105.76649475097656 46.691341400146484 99.54467010498047 61.36295700073242 122.35505676269531" stroke-width="3.0" fill="none" stroke="rgb(0, 0, 0)" stroke-opacity="1.0" stroke-linecap="round" stroke-linejoin="round"/>
    <path d="M 121.34065246582031 77.2865219116211 C 121.6979751586914 58.79308319091797 119.0290298461914 61.82219314575195 108.55615234375 58.1482048034668" stroke-width="3.0" fill="none" stroke="rgb(0, 0, 0)" stroke-opacity="1.0" stroke-linecap="round" stroke-linejoin="round"/>
    <path d="M 153.39671325683594 41.49009704589844 C 163.90017700195312 32.4857292175293 157.551513671875 29.975034713745117 169.86407470703125 17.53775978088379" stroke-width="3.0" fill="none" stroke="rgb(0, 0, 0)" stroke-opacity="1.0" stroke-linecap="round" stroke-linejoin="round"/>
  </g>
</svg>
