<?xml version="1.0" ?>
<svg xmlns="http://www.w3.org/2000/svg" version="1.1" width="224" height="224">
  <defs/>
  <g>
    <path d="M 61.92863082885742 100.78314208984375 C 64.94546508789062 95.1603775024414 51.49771499633789 89.53599548339844 63.01849365234375 62.95747375488281" stroke-width="3.0" fill="none" stroke="rgb(0, 0, 0)" stroke-opacity="1.0" stroke-linecap="round" stroke-linejoin="round"/>
    <path d="M 196.42984008789062 111.9588623046875 C 190.53720092773438 106.82177734375 187.12515258789062 90.6494140625 183.48593139648438 124.78800201416016" stroke-width="3.0" fill="none" stroke="rgb(0, 0, 0)" stroke-opacity="1.0" stroke-linecap="round" stroke-linejoin="round"/>
    <path d="M 62.30636978149414 122.39774322509766 C 59.61094665527344 87.47126007080078 59.901023864746094 122.79998779296875 69.76780700683594 123.22247314453125" stroke-width="3.0" fill="none" stroke="rgb(0, 0, 0)" stroke-opacity="1.0" stroke-linecap="round" stroke-linejoin="round"/>
    <path d="M 186.1550750732422 94.45462036132812 C 141.69923400878906 75.04383850097656 186.39141845703125 77.70305633544922 187.80416870117188 103.47103118896484" stroke-width="3.0" fill="none" stroke="rgb(0, 0, 0)" stroke-opacity="1.0" stroke-linecap="round" stroke-linejoin="round"/>
    <path d="M 174.76358032226562 44.49102020263672 C 193.59725952148438 87.50830841064453 177.8755340576172 100.12177276611328 181.96229553222656 69.30280303955078" stroke-width="3.0" fill="none" stroke="rgb(0, 0, 0)" stroke-opacity="1.0" stroke-linecap="round" stroke-linejoin="round"/>
    <path d="M 132.71527099609375 99.76956939697266 C 155.3099365234375 113.72469329833984 100.42549133300781 101.7811050415039 136.46954345703125 103.02932739257812" stroke-width="3.0" fill="none" stroke="rgb(0, 0, 0)" stroke-opacity="1.0" stroke-linecap="round" stroke-linejoin="round"/>
    <path d="M 183.24110412597656 82.069580078125 C 176.05532836914062 73.7531509399414 193.8831329345703 72.44132232666016 151.44203186035156 89.05474853515625" stroke-width="3.0" fill="none" stroke="rgb(0, 0, 0)" stroke-opacity="1.0" stroke-linecap="round" stroke-linejoin="round"/>
    <path d="M 64.95366668701172 190.9925537109375 C 40.5310173034668 169.1875 53.44722366333008 164.18255615234375 48.984375 173.10369873046875" stroke-width="3.0" fill="none" stroke="rgb(0, 0, 0)" stroke-opacity="1.0" stroke-linecap="round" stroke-linejoin="round"/>
    <path d="M 58.59817886352539 185.6499786376953 C 81.09370422363281 212.38290405273438 130.97653198242188 195.00543212890625 137.56346130371094 166.33197021484375" stroke-width="3.0" fill="none" stroke="rgb(0, 0, 0)" stroke-opacity="1.0" stroke-linecap="round" stroke-linejoin="round"/>
    <path d="M 82.15862274169922 15.401601791381836 C 92.70294189453125 78.93209075927734 88.9176254272461 8.306206703186035 86.68562316894531 53.21708679199219" stroke-width="3.0" fill="none" stroke="rgb(0, 0, 0)" stroke-opacity="1.0" stroke-linecap="round" stroke-linejoin="round"/>
    <path d="M 59.63508987426758 86.76184844970703 C 59.937355041503906 138.1420135498047 78.01844787597656 133.35250854492188 64.51388549804688 120.06055450439453" stroke-width="3.0" fill="none" stroke="rgb(0, 0, 0)" stroke-opacity="1.0" stroke-linecap="round" stroke-linejoin="round"/>
    <path d="M 145.4322967529297 74.68962097167969 C 201.2769775390625 60.9295539855957 197.25086975097656 92.71875762939453 142.1243438720703 85.9356689453125" stroke-width="3.0" fill="none" stroke="rgb(0, 0, 0)" stroke-opacity="1.0" stroke-linecap="round" stroke-linejoin="round"/>
    <path d="M 148.83102416992188 96.11949157714844 C 176.04934692382812 99.88518524169922 181.0106201171875 100.72932434082031 193.73162841796875 110.10649108886719" stroke-width="3.0" fill="none" stroke="rgb(0, 0, 0)" stroke-opacity="1.0" stroke-linecap="round" stroke-linejoin="round"/>
    <path d="M 117.27140808105469 147.5518035888672 C 159.44837951660156 160.24240112304688 111.06067657470703 148.40615844726562 104.898193359375 155.86306762695312" stroke-width="3.0" fill="none" stroke="rgb(0, 0, 0)" stroke-opacity="1.0" stroke-linecap="round" stroke-linejoin="round"/>
    <path d="M 177.5568084716797 7.424448490142822 C 188.701171875 23.15665054321289 169.071533203125 93.08182525634766 181.37608337402344 48.45705032348633" stroke-width="3.0" fill="none" stroke="rgb(0, 0, 0)" stroke-opacity="1.0" stroke-linecap="round" stroke-linejoin="round"/>
    <path d="M 140.7486114501953 34.776878356933594 C 108.50287628173828 21.39100456237793 137.82974243164062 47.231868743896484 125.14323425292969 78.21768188476562" stroke-width="3.0" fill="none" stroke="rgb(0, 0, 0)" stroke-opacity="1.0" stroke-linecap="round" stroke-linejoin="round"/>
    <path d="M 104.89000701904297 48.58843231201172 C 63.86505889892578 -7.217796325683594 85.63094329833984 0.23775838315486908 119.63817596435547 33.74592208862305" stroke-width="3.0" fill="none" stroke="rgb(0, 0, 0)" stroke-opacity="1.0" stroke-linecap="round" stroke-linejoin="round"/>
    <path d="M 47.790828704833984 170.32752990722656 C 42.62488555908203 159.2904815673828 39.82794952392578 153.1332550048828 49.11110305786133 171.409423828125" stroke-width="3.0" fill="none" stroke="rgb(0, 0, 0)" stroke-opacity="1.0" stroke-linecap="round" stroke-linejoin="round"/>
    <path d="M 54.68111801147461 75.4922103881836 C 23.017723083496094 132.02694702148438 42.86061096191406 140.62313842773438 45.524349212646484 164.2611846923828" stroke-width="3.0" fill="none" stroke="rgb(0, 0, 0)" stroke-opacity="1.0" stroke-linecap="round" stroke-linejoin="round"/>
    <path d="M 72.57917022705078 136.16744995117188 C 131.591064453125 161.6741485595703 96.87539672851562 152.43580627441406 88.12982177734375 142.35655212402344" stroke-width="3.0" fill="none" stroke="rgb(0, 0, 0)" stroke-opacity="1.0" stroke-linecap="round" stroke-linejoin="round"/>
    <path d="M 88.70069885253906 197.50823974609375 C 68.92498779296875 198.78868103027344 49.006710052490234 174.97518920898438 45.85908508300781 166.78610229492188" stroke-width="3.0" fill="none" stroke="rgb(0, 0, 0)" stroke-opacity="1.0" stroke-linecap="round" stroke-linejoin="round"/>
    <path d="M 47.97215270996094 172.44906616210938 C 68.67247772216797 196.23214721679688 46.4686393737793 174.6608123779297 39.72047424316406 147.76791381835938" stroke-width="3.0" fill="none" stroke="rgb(0, 0, 0)" stroke-opacity="1.0" stroke-linecap="round" stroke-linejoin="round"/>
    <path d="M 82.43282318115234 58.227970123291016 C 56.792938232421875 57.864593505859375 53.78950881958008 73.40038299560547 39.016563415527344 112.23011016845703" stroke-width="3.0" fill="none" stroke="rgb(0, 0, 0)" stroke-opacity="1.0" stroke-linecap="round" stroke-linejoin="round"/>
    <path d="M 157.5257568359375 136.79611206054688 C 104.32865142822266 156.78343200683594 89.46732330322266 162.90725708007812 147.357177734375 146.96005249023438" stroke-width="3.0" fill="none" stroke="rgb(0, 0, 0)" stroke-opacity="1.0" stroke-linecap="round" stroke-linejoin="round"/>
    <path d="M 149.58602905273438 27.864925384521484 C 148.16322326660156 31.161123275756836 135.1626434326172 17.027864456176758 135.91366577148438 75.29423522949219" stroke-width="3.0" fill="none" stroke="rgb(0, 0, 0)" stroke-opacity="1.0" stroke-linecap="round" stroke-linejoin="round"/>
    <path d="M 144.55638122558594 100.455810546875 C 120.96427917480469 113.05016326904297 117.6474838256836 108.79158782958984 112.50821685791016 99.709716796875" stroke-width="3.0" fill="none" stroke="rgb(0, 0, 0)" stroke-opacity="1.0" stroke-linecap="round" stroke-linejoin="round"/>
    <path d="M 136.80918884277344 70.29269409179688 C 145.3478240966797 53.4924430847168 131.1971893310547 63.84067153930664 138.70587158203125 82.14727783203125" stroke-width="3.0" fill="none" stroke="rgb(0, 0, 0)" stroke-opacity="1.0" stroke-linecap="round" stroke-linejoin="round"/>
    <path d="M 138.00494384765625 158.751220703125 C 128.1192626953125 175.90567016601562 142.4473419189453 167.553466796875 143.4337921142578 147.82875061035156" stroke-width="3.0" fill="none" stroke="rgb(0, 0, 0)" stroke-opacity="1.0" stroke-linecap="round" stroke-linejoin="round"/>
    <path d="M 198.3171844482422 95.85051727294922 C 172.56373596191406 63.657562255859375 171.2814178466797 73.614990234375 188.96612548828125 82.64685821533203" stroke-width="3.0" fill="none" stroke="rgb(0, 0, 0)" stroke-opacity="1.0" stroke-linecap="round" stroke-linejoin="round"/>
    <path d="M 150.24061584472656 78.20897674560547 C 130.22996520996094 53.2598876953125 204.46534729003906 93.92506408691406 176.09347534179688 65.73086547851562" stroke-width="3.0" fill="none" stroke="rgb(0, 0, 0)" stroke-opacity="1.0" stroke-linecap="round" stroke-linejoin="round"/>
    <path d="M 111.37350463867188 81.37985229492188 C 75.11933898925781 71.8164291381836 138.5452880859375 70.89607238769531 105.40003204345703 77.15791320800781" stroke-width="3.0" fill="none" stroke="rgb(0, 0, 0)" stroke-opacity="1.0" stroke-linecap="round" stroke-linejoin="round"/>
    <path d="M 167.204345703125 131.1936798095703 C 143.79388427734375 155.61019897460938 106.20410919189453 145.83921813964844 99.43251037597656 154.75091552734375" stroke-width="3.0" fill="none" stroke="rgb(0, 0, 0)" stroke-opacity="1.0" stroke-linecap="round" stroke-linejoin="round"/>
    <path d="M 123.30545806884766 89.97550201416016 C 140.73773193359375 102.39260864257812 131.48831176757812 66.467041015625 127.88915252685547 105.27421569824219" stroke-width="3.0" fill="none" stroke="rgb(0, 0, 0)" stroke-opacity="1.0" stroke-linecap="round" stroke-linejoin="round"/>
    <path d="M 191.2733154296875 115.03636169433594 C 159.46656799316406 87.6692886352539 172.7147979736328 96.28837585449219 144.69615173339844 86.86335754394531" stroke-width="3.0" fill="none" stroke="rgb(0, 0, 0)" stroke-opacity="1.0" stroke-linecap="round" stroke-linejoin="round"/>
    <path d="M 91.04197692871094 27.34109115600586 C 125.98388671875 30.364439010620117 90.66387939453125 34.10627365112305 142.76966857910156 31.400405883789062" stroke-width="3.0" fill="none" stroke="rgb(0, 0, 0)" stroke-opacity="1.0" stroke-linecap="round" stroke-linejoin="round"/>
    <path d="M 61.62611389160156 117.04724884033203 C 64.50345611572266 107.33802795410156 56.169925689697266 127.50469970703125 71.11193084716797 134.2545166015625" stroke-width="3.0" fill="none" stroke="rgb(0, 0, 0)" stroke-opacity="1.0" stroke-linecap="round" stroke-linejoin="round"/>
    <path d="M 135.40171813964844 103.73871612548828 C 112.76659393310547 95.24751281738281 117.95125579833984 120.8908462524414 106.91707611083984 86.43824768066406" stroke-width="3.0" fill="none" stroke="rgb(0, 0, 0)" stroke-opacity="1.0" stroke-linecap="round" stroke-linejoin="round"/>
    <path d="M 38.81001663208008 147.0095672607422 C 27.253515243530273 123.15116882324219 33.83335494995117 84.52464294433594 58.13761901855469 66.69950866699219" stroke-width="3.0" fill="none" stroke="rgb(0, 0, 0)" stroke-opacity="1.0" stroke-linecap="round" stroke-linejoin="round"/>
    <path d="M 106.95228576660156 197.08682250976562 C 79.1283187866211 201.00631713867188 72.8191909790039 196.77040100097656 99.26068115234375 198.87657165527344" stroke-width="3.0" fill="none" stroke="rgb(0, 0, 0)" stroke-opacity="1.0" stroke-linecap="round" stroke-linejoin="round"/>
    <path d="M 169.0670623779297 128.59767150878906 C 204.20582580566406 121.63549041748047 188.29510498046875 87.77346801757812 157.15475463867188 90.18362426757812" stroke-width="3.0" fill="none" stroke="rgb(0, 0, 0)" stroke-opacity="1.0" stroke-linecap="round" stroke-linejoin="round"/>
    <path d="M 154.007080078125 70.77970886230469 C 134.80628967285156 87.36945343017578 168.12335205078125 77.09292602539062 147.4151153564453 71.06228637695312" stroke-width="3.0" fill="none" stroke="rgb(0, 0, 0)" stroke-opacity="1.0" stroke-linecap="round" stroke-linejoin="round"/>
    <path d="M 141.6432342529297 76.2994155883789 C 142.01614379882812 41.71390914916992 196.91741943359375 113.19993591308594 175.4084930419922 43.949668884277344" stroke-width="3.0" fill="none" stroke="rgb(0, 0, 0)" stroke-opacity="1.0" stroke-linecap="round" stroke-linejoin="round"/>
    <path d="M 149.78036499023438 95.51616668701172 C 174.47120666503906 108.05310821533203 172.64955139160156 101.84187316894531 185.14068603515625 120.4767837524414" stroke-width="3.0" fill="none" stroke="rgb(0, 0, 0)" stroke-opacity="1.0" stroke-linecap="round" stroke-linejoin="round"/>
    <path d="M 176.14468383789062 15.632645606994629 C 172.0438232421875 42.26337432861328 175.59780883789062 22.788259506225586 164.65948486328125 39.761451721191406" stroke-width="3.0" fill="none" stroke="rgb(0, 0, 0)" stroke-opacity="1.0" stroke-linecap="round" stroke-linejoin="round"/>
    <path d="M 122.79685974121094 105.68889617919922 C 144.56138610839844 102.08458709716797 131.47283935546875 115.10384368896484 120.66532135009766 105.47289276123047" stroke-width="3.0" fill="none" stroke="rgb(0, 0, 0)" stroke-opacity="1.0" stroke-linecap="round" stroke-linejoin="round"/>
    <path d="M 64.88145446777344 110.46063995361328 C 60.06706237792969 109.2090835571289 61.33354187011719 108.79891204833984 60.62078857421875 119.5680160522461" stroke-width="3.0" fill="none" stroke="rgb(0, 0, 0)" stroke-opacity="1.0" stroke-linecap="round" stroke-linejoin="round"/>
    <path d="M 120.89899444580078 72.6329116821289 C 117.45269775390625 44.354705810546875 109.90929412841797 60.53435134887695 116.24739074707031 30.084178924560547" stroke-width="3.0" fill="none" stroke="rgb(0, 0, 0)" stroke-opacity="1.0" stroke-linecap="round" stroke-linejoin="round"/>
    <path d="M 150.50201416015625 26.399383544921875 C 144.0983123779297 34.780460357666016 163.59414672851562 8.366996765136719 176.96124267578125 8.681244850158691" stroke-width="3.0" fill="none" stroke="rgb(0, 0, 0)" stroke-opacity="1.0" stroke-linecap="round" stroke-linejoin="round"/>
  </g>
</svg>
