<?xml version="1.0" ?>
<svg xmlns="http://www.w3.org/2000/svg" version="1.1" width="224" height="224">
  <defs/>
  <g>
    <path d="M 65.51779174804688 77.59001922607422 C 65.92975616455078 77.20934295654297 67.43560791015625 82.84959411621094 63.55491638183594 70.27166748046875" stroke-width="3.0" fill="none" stroke="rgb(0, 0, 0)" stroke-opacity="1.0" stroke-linecap="round" stroke-linejoin="round"/>
    <path d="M 187.00973510742188 119.06324005126953 C 176.84207153320312 114.0431137084961 200.68409729003906 96.20953369140625 172.6822967529297 130.89952087402344" stroke-width="3.0" fill="none" stroke="rgb(0, 0, 0)" stroke-opacity="1.0" stroke-linecap="round" stroke-linejoin="round"/>
    <path d="M 61.487648010253906 119.91072845458984 C 60.56230545043945 110.14727020263672 58.631343841552734 121.98589324951172 68.32019805908203 125.71650695800781" stroke-width="3.0" fill="none" stroke="rgb(0, 0, 0)" stroke-opacity="1.0" stroke-linecap="round" stroke-linejoin="round"/>
    <path d="M 183.29049682617188 98.01177978515625 C 147.3939971923828 88.18378448486328 174.73182678222656 75.17549133300781 193.46560668945312 109.73847961425781" stroke-width="3.0" fill="none" stroke="rgb(0, 0, 0)" stroke-opacity="1.0" stroke-linecap="round" stroke-linejoin="round"/>
    <path d="M 182.70693969726562 64.5785903930664 C 187.13807678222656 118.49124145507812 179.71983337402344 106.43264770507812 178.8529815673828 76.81249237060547" stroke-width="3.0" fill="none" stroke="rgb(0, 0, 0)" stroke-opacity="1.0" stroke-linecap="round" stroke-linejoin="round"/>
    <path d="M 121.38510131835938 102.74750518798828 C 144.8978729248047 116.66352844238281 108.69569396972656 94.77684783935547 138.5711212158203 105.03662872314453" stroke-width="3.0" fill="none" stroke="rgb(0, 0, 0)" stroke-opacity="1.0" stroke-linecap="round" stroke-linejoin="round"/>
    <path d="M 171.27532958984375 89.99494934082031 C 194.04190063476562 88.17375183105469 180.98330688476562 70.3560791015625 157.9313201904297 87.95760345458984" stroke-width="3.0" fill="none" stroke="rgb(0, 0, 0)" stroke-opacity="1.0" stroke-linecap="round" stroke-linejoin="round"/>
    <path d="M 57.783206939697266 184.83807373046875 C 38.15313720703125 156.2897186279297 47.517879486083984 168.19129943847656 49.29318618774414 174.099853515625" stroke-width="3.0" fill="none" stroke="rgb(0, 0, 0)" stroke-opacity="1.0" stroke-linecap="round" stroke-linejoin="round"/>
    <path d="M 54.891571044921875 180.69815063476562 C 88.6698226928711 211.61846923828125 115.52973175048828 196.41273498535156 131.52285766601562 181.24928283691406" stroke-width="3.0" fill="none" stroke="rgb(0, 0, 0)" stroke-opacity="1.0" stroke-linecap="round" stroke-linejoin="round"/>
    <path d="M 82.53018188476562 28.871980667114258 C 96.04443359375 77.19053649902344 84.04053497314453 9.307133674621582 84.3608627319336 58.121822357177734" stroke-width="3.0" fill="none" stroke="rgb(0, 0, 0)" stroke-opacity="1.0" stroke-linecap="round" stroke-linejoin="round"/>
    <path d="M 49.04243469238281 97.66900634765625 C 60.29890823364258 139.6802520751953 95.84325408935547 156.29551696777344 92.36774444580078 150.0856170654297" stroke-width="3.0" fill="none" stroke="rgb(0, 0, 0)" stroke-opacity="1.0" stroke-linecap="round" stroke-linejoin="round"/>
    <path d="M 150.69236755371094 72.99354553222656 C 205.8268585205078 66.7314224243164 189.51683044433594 83.2222671508789 142.89308166503906 83.6911392211914" stroke-width="3.0" fill="none" stroke="rgb(0, 0, 0)" stroke-opacity="1.0" stroke-linecap="round" stroke-linejoin="round"/>
    <path d="M 151.8780975341797 96.43336486816406 C 192.45095825195312 105.20562744140625 176.39036560058594 107.80764770507812 196.04127502441406 113.48046112060547" stroke-width="3.0" fill="none" stroke="rgb(0, 0, 0)" stroke-opacity="1.0" stroke-linecap="round" stroke-linejoin="round"/>
    <path d="M 128.7874298095703 156.9271697998047 C 145.51699829101562 146.40830993652344 125.18167114257812 156.54164123535156 111.00856018066406 153.6338348388672" stroke-width="3.0" fill="none" stroke="rgb(0, 0, 0)" stroke-opacity="1.0" stroke-linecap="round" stroke-linejoin="round"/>
    <path d="M 179.27896118164062 11.729671478271484 C 189.94754028320312 23.50959587097168 175.52146911621094 64.1181869506836 179.48538208007812 51.56635284423828" stroke-width="3.0" fill="none" stroke="rgb(0, 0, 0)" stroke-opacity="1.0" stroke-linecap="round" stroke-linejoin="round"/>
    <path d="M 130.93972778320312 33.938907623291016 C 125.22888946533203 52.591758728027344 133.92689514160156 34.576602935791016 125.1940689086914 69.3446044921875" stroke-width="3.0" fill="none" stroke="rgb(0, 0, 0)" stroke-opacity="1.0" stroke-linecap="round" stroke-linejoin="round"/>
    <path d="M 87.83173370361328 51.96401596069336 C 75.95384216308594 -8.609102249145508 83.09822845458984 -1.14487624168396 110.51844787597656 43.702476501464844" stroke-width="3.0" fill="none" stroke="rgb(0, 0, 0)" stroke-opacity="1.0" stroke-linecap="round" stroke-linejoin="round"/>
    <path d="M 48.33856201171875 169.38487243652344 C 40.15134048461914 152.89552307128906 37.89265823364258 143.545166015625 44.65959167480469 163.99693298339844" stroke-width="3.0" fill="none" stroke="rgb(0, 0, 0)" stroke-opacity="1.0" stroke-linecap="round" stroke-linejoin="round"/>
    <path d="M 36.67755889892578 96.33697509765625 C 19.32332420349121 128.46682739257812 39.822662353515625 146.14369201660156 40.3568229675293 156.8152618408203" stroke-width="3.0" fill="none" stroke="rgb(0, 0, 0)" stroke-opacity="1.0" stroke-linecap="round" stroke-linejoin="round"/>
    <path d="M 85.48544311523438 149.40145874023438 C 111.13330078125 158.58016967773438 100.90070343017578 162.70433044433594 97.82998657226562 151.00100708007812" stroke-width="3.0" fill="none" stroke="rgb(0, 0, 0)" stroke-opacity="1.0" stroke-linecap="round" stroke-linejoin="round"/>
    <path d="M 82.78605651855469 196.9810028076172 C 69.30125427246094 201.62786865234375 51.1810302734375 176.2911834716797 48.13458251953125 171.37632751464844" stroke-width="3.0" fill="none" stroke="rgb(0, 0, 0)" stroke-opacity="1.0" stroke-linecap="round" stroke-linejoin="round"/>
    <path d="M 49.259071350097656 171.96652221679688 C 62.87140655517578 192.6492462158203 43.79011154174805 167.45823669433594 39.49871826171875 150.46585083007812" stroke-width="3.0" fill="none" stroke="rgb(0, 0, 0)" stroke-opacity="1.0" stroke-linecap="round" stroke-linejoin="round"/>
    <path d="M 77.9715576171875 54.071861267089844 C 64.42372131347656 62.43498229980469 45.7589225769043 71.78889465332031 33.33171081542969 107.6821517944336" stroke-width="3.0" fill="none" stroke="rgb(0, 0, 0)" stroke-opacity="1.0" stroke-linecap="round" stroke-linejoin="round"/>
    <path d="M 154.40159606933594 139.2151641845703 C 121.8885726928711 158.45486450195312 116.52593231201172 153.7479705810547 130.82078552246094 155.9280548095703" stroke-width="3.0" fill="none" stroke="rgb(0, 0, 0)" stroke-opacity="1.0" stroke-linecap="round" stroke-linejoin="round"/>
    <path d="M 143.64239501953125 32.8704719543457 C 150.2942657470703 51.009368896484375 139.57530212402344 43.33413314819336 136.70411682128906 80.1147689819336" stroke-width="3.0" fill="none" stroke="rgb(0, 0, 0)" stroke-opacity="1.0" stroke-linecap="round" stroke-linejoin="round"/>
    <path d="M 148.05548095703125 100.43330383300781 C 131.0157928466797 107.86396789550781 136.34414672851562 112.77728271484375 118.77327728271484 103.72651672363281" stroke-width="3.0" fill="none" stroke="rgb(0, 0, 0)" stroke-opacity="1.0" stroke-linecap="round" stroke-linejoin="round"/>
    <path d="M 135.09048461914062 72.37425231933594 C 144.70655822753906 53.017723083496094 130.04739379882812 60.994407653808594 135.91603088378906 75.47506713867188" stroke-width="3.0" fill="none" stroke="rgb(0, 0, 0)" stroke-opacity="1.0" stroke-linecap="round" stroke-linejoin="round"/>
    <path d="M 132.73214721679688 178.97764587402344 C 129.2756805419922 183.40650939941406 136.12342834472656 179.3889923095703 145.4745635986328 146.2035369873047" stroke-width="3.0" fill="none" stroke="rgb(0, 0, 0)" stroke-opacity="1.0" stroke-linecap="round" stroke-linejoin="round"/>
    <path d="M 194.97207641601562 96.84371948242188 C 165.80783081054688 71.70234680175781 160.25746154785156 80.39209747314453 186.21804809570312 91.03678894042969" stroke-width="3.0" fill="none" stroke="rgb(0, 0, 0)" stroke-opacity="1.0" stroke-linecap="round" stroke-linejoin="round"/>
    <path d="M 149.1506805419922 76.50971984863281 C 142.1278076171875 54.58591079711914 195.65737915039062 93.7724380493164 180.70957946777344 66.0777816772461" stroke-width="3.0" fill="none" stroke="rgb(0, 0, 0)" stroke-opacity="1.0" stroke-linecap="round" stroke-linejoin="round"/>
    <path d="M 112.53096771240234 77.8226318359375 C 78.88797760009766 73.41929626464844 151.21585083007812 73.92737579345703 105.39832305908203 81.68297576904297" stroke-width="3.0" fill="none" stroke="rgb(0, 0, 0)" stroke-opacity="1.0" stroke-linecap="round" stroke-linejoin="round"/>
    <path d="M 162.54080200195312 131.8661346435547 C 127.87843322753906 166.2850341796875 124.38526916503906 152.52523803710938 105.56529998779297 156.63316345214844" stroke-width="3.0" fill="none" stroke="rgb(0, 0, 0)" stroke-opacity="1.0" stroke-linecap="round" stroke-linejoin="round"/>
    <path d="M 123.29644775390625 90.1226806640625 C 143.68179321289062 99.26455688476562 130.72073364257812 70.82659149169922 128.32540893554688 107.44058990478516" stroke-width="3.0" fill="none" stroke="rgb(0, 0, 0)" stroke-opacity="1.0" stroke-linecap="round" stroke-linejoin="round"/>
    <path d="M 190.87081909179688 111.0752182006836 C 173.53668212890625 89.3598403930664 184.22250366210938 93.44486999511719 141.28677368164062 81.77713012695312" stroke-width="3.0" fill="none" stroke="rgb(0, 0, 0)" stroke-opacity="1.0" stroke-linecap="round" stroke-linejoin="round"/>
    <path d="M 90.1666488647461 8.491887092590332 C 104.5557861328125 12.663810729980469 118.42752075195312 34.49929428100586 121.99071502685547 30.111780166625977" stroke-width="3.0" fill="none" stroke="rgb(0, 0, 0)" stroke-opacity="1.0" stroke-linecap="round" stroke-linejoin="round"/>
    <path d="M 59.299949645996094 120.53680419921875 C 61.067989349365234 116.7929916381836 62.4422721862793 130.630615234375 63.14060592651367 123.96418762207031" stroke-width="3.0" fill="none" stroke="rgb(0, 0, 0)" stroke-opacity="1.0" stroke-linecap="round" stroke-linejoin="round"/>
    <path d="M 137.42214965820312 103.41805267333984 C 116.7635726928711 92.93026733398438 119.50355529785156 112.36878204345703 110.70144653320312 87.37374114990234" stroke-width="3.0" fill="none" stroke="rgb(0, 0, 0)" stroke-opacity="1.0" stroke-linecap="round" stroke-linejoin="round"/>
    <path d="M 32.37297821044922 132.76577758789062 C 28.141376495361328 94.83284759521484 39.98908233642578 97.14743041992188 52.11489486694336 75.63923645019531" stroke-width="3.0" fill="none" stroke="rgb(0, 0, 0)" stroke-opacity="1.0" stroke-linecap="round" stroke-linejoin="round"/>
    <path d="M 79.18286895751953 196.10385131835938 C 69.6545181274414 195.7184295654297 65.07624053955078 194.67251586914062 98.43699645996094 199.0722198486328" stroke-width="3.0" fill="none" stroke="rgb(0, 0, 0)" stroke-opacity="1.0" stroke-linecap="round" stroke-linejoin="round"/>
    <path d="M 161.6973419189453 132.96435546875 C 200.9996795654297 121.74954223632812 176.48422241210938 96.69578552246094 154.3681182861328 91.6620101928711" stroke-width="3.0" fill="none" stroke="rgb(0, 0, 0)" stroke-opacity="1.0" stroke-linecap="round" stroke-linejoin="round"/>
    <path d="M 157.53225708007812 69.14388275146484 C 133.29617309570312 84.25863647460938 171.9246368408203 77.32512664794922 148.86463928222656 71.79566955566406" stroke-width="3.0" fill="none" stroke="rgb(0, 0, 0)" stroke-opacity="1.0" stroke-linecap="round" stroke-linejoin="round"/>
    <path d="M 142.5348663330078 77.6023941040039 C 147.34426879882812 45.90171432495117 194.27037048339844 111.01972961425781 180.7058868408203 43.57725524902344" stroke-width="3.0" fill="none" stroke="rgb(0, 0, 0)" stroke-opacity="1.0" stroke-linecap="round" stroke-linejoin="round"/>
    <path d="M 157.35903930664062 98.0177993774414 C 169.64935302734375 106.4808349609375 170.81219482421875 101.96553802490234 183.13475036621094 125.65782165527344" stroke-width="3.0" fill="none" stroke="rgb(0, 0, 0)" stroke-opacity="1.0" stroke-linecap="round" stroke-linejoin="round"/>
    <path d="M 175.0436553955078 16.28864288330078 C 168.12559509277344 44.145713806152344 175.98114013671875 21.83485221862793 159.7646484375 37.51709747314453" stroke-width="3.0" fill="none" stroke="rgb(0, 0, 0)" stroke-opacity="1.0" stroke-linecap="round" stroke-linejoin="round"/>
    <path d="M 120.4251708984375 102.45125579833984 C 144.39352416992188 104.26646423339844 137.8646697998047 110.02278137207031 120.14557647705078 103.16534423828125" stroke-width="3.0" fill="none" stroke="rgb(0, 0, 0)" stroke-opacity="1.0" stroke-linecap="round" stroke-linejoin="round"/>
    <path d="M 74.31016540527344 136.75144958496094 C 52.22763442993164 128.81239318847656 63.044647216796875 111.76199340820312 58.73326873779297 120.37499237060547" stroke-width="3.0" fill="none" stroke="rgb(0, 0, 0)" stroke-opacity="1.0" stroke-linecap="round" stroke-linejoin="round"/>
    <path d="M 124.28955078125 73.88334655761719 C 127.1448974609375 37.333961486816406 120.65921020507812 50.3452033996582 119.4218978881836 33.077796936035156" stroke-width="3.0" fill="none" stroke="rgb(0, 0, 0)" stroke-opacity="1.0" stroke-linecap="round" stroke-linejoin="round"/>
    <path d="M 153.98648071289062 25.806026458740234 C 148.4339141845703 37.643558502197266 161.0377655029297 7.700260162353516 178.85948181152344 8.44374942779541" stroke-width="3.0" fill="none" stroke="rgb(0, 0, 0)" stroke-opacity="1.0" stroke-linecap="round" stroke-linejoin="round"/>
  </g>
</svg>
