<?xml version="1.0" ?>
<svg xmlns="http://www.w3.org/2000/svg" version="1.1" width="224" height="224">
  <defs/>
  <g>
    <path d="M 68.00355529785156 70.7283935546875 C 70.07866668701172 71.73493194580078 74.96298217773438 73.63334655761719 60.927490234375 67.97547912597656" stroke-width="3.0" fill="none" stroke="rgb(0, 0, 0)" stroke-opacity="1.0" stroke-linecap="round" stroke-linejoin="round"/>
    <path d="M 184.62538146972656 123.10553741455078 C 179.5597686767578 113.94558715820312 199.31607055664062 90.8183822631836 175.28306579589844 130.46597290039062" stroke-width="3.0" fill="none" stroke="rgb(0, 0, 0)" stroke-opacity="1.0" stroke-linecap="round" stroke-linejoin="round"/>
    <path d="M 57.81650924682617 123.6478271484375 C 59.11064147949219 111.41585540771484 56.561092376708984 123.24224853515625 68.03848266601562 129.99038696289062" stroke-width="3.0" fill="none" stroke="rgb(0, 0, 0)" stroke-opacity="1.0" stroke-linecap="round" stroke-linejoin="round"/>
    <path d="M 182.4976043701172 94.1123046875 C 144.635986328125 84.52338409423828 175.78562927246094 72.1691665649414 190.10372924804688 110.24850463867188" stroke-width="3.0" fill="none" stroke="rgb(0, 0, 0)" stroke-opacity="1.0" stroke-linecap="round" stroke-linejoin="round"/>
    <path d="M 181.33624267578125 67.14279174804688 C 176.84295654296875 109.02037811279297 181.29408264160156 98.14399719238281 184.26637268066406 73.34381866455078" stroke-width="3.0" fill="none" stroke="rgb(0, 0, 0)" stroke-opacity="1.0" stroke-linecap="round" stroke-linejoin="round"/>
    <path d="M 127.0668716430664 104.6695556640625 C 148.10824584960938 111.23793029785156 104.59976196289062 96.21794891357422 137.1382293701172 103.1719741821289" stroke-width="3.0" fill="none" stroke="rgb(0, 0, 0)" stroke-opacity="1.0" stroke-linecap="round" stroke-linejoin="round"/>
    <path d="M 174.46522521972656 85.05216217041016 C 194.1346893310547 90.55725860595703 184.61090087890625 72.53886413574219 161.42083740234375 87.6234130859375" stroke-width="3.0" fill="none" stroke="rgb(0, 0, 0)" stroke-opacity="1.0" stroke-linecap="round" stroke-linejoin="round"/>
    <path d="M 63.83717346191406 189.35899353027344 C 35.51101303100586 158.51336669921875 47.59867858886719 166.4116973876953 49.483577728271484 172.9141082763672" stroke-width="3.0" fill="none" stroke="rgb(0, 0, 0)" stroke-opacity="1.0" stroke-linecap="round" stroke-linejoin="round"/>
    <path d="M 54.02379608154297 180.79818725585938 C 89.41802978515625 209.43600463867188 117.4448013305664 195.51658630371094 133.3534698486328 179.95997619628906" stroke-width="3.0" fill="none" stroke="rgb(0, 0, 0)" stroke-opacity="1.0" stroke-linecap="round" stroke-linejoin="round"/>
    <path d="M 85.37127685546875 26.46961212158203 C 92.7943115234375 77.84740447998047 84.89947509765625 8.635191917419434 87.45220947265625 51.19722366333008" stroke-width="3.0" fill="none" stroke="rgb(0, 0, 0)" stroke-opacity="1.0" stroke-linecap="round" stroke-linejoin="round"/>
    <path d="M 47.611717224121094 89.7640609741211 C 64.73267364501953 140.82852172851562 91.608642578125 156.74728393554688 83.83592987060547 146.04403686523438" stroke-width="3.0" fill="none" stroke="rgb(0, 0, 0)" stroke-opacity="1.0" stroke-linecap="round" stroke-linejoin="round"/>
    <path d="M 152.55728149414062 76.22505950927734 C 205.54925537109375 64.16602325439453 187.06373596191406 84.76374053955078 142.70176696777344 86.03843688964844" stroke-width="3.0" fill="none" stroke="rgb(0, 0, 0)" stroke-opacity="1.0" stroke-linecap="round" stroke-linejoin="round"/>
    <path d="M 153.86766052246094 94.02667999267578 C 190.65345764160156 101.31301879882812 176.30062866210938 102.16275787353516 196.3698272705078 114.49259185791016" stroke-width="3.0" fill="none" stroke="rgb(0, 0, 0)" stroke-opacity="1.0" stroke-linecap="round" stroke-linejoin="round"/>
    <path d="M 115.07561492919922 154.9923095703125 C 145.2076873779297 152.70462036132812 122.8606185913086 157.5732421875 105.39325714111328 151.92391967773438" stroke-width="3.0" fill="none" stroke="rgb(0, 0, 0)" stroke-opacity="1.0" stroke-linecap="round" stroke-linejoin="round"/>
    <path d="M 178.25152587890625 9.016024589538574 C 187.94970703125 28.104507446289062 174.74703979492188 71.77304077148438 179.0690460205078 54.99064254760742" stroke-width="3.0" fill="none" stroke="rgb(0, 0, 0)" stroke-opacity="1.0" stroke-linecap="round" stroke-linejoin="round"/>
    <path d="M 135.29359436035156 31.913320541381836 C 130.91146850585938 44.38642120361328 140.8139190673828 46.835838317871094 128.3213348388672 68.60871124267578" stroke-width="3.0" fill="none" stroke="rgb(0, 0, 0)" stroke-opacity="1.0" stroke-linecap="round" stroke-linejoin="round"/>
    <path d="M 93.17324829101562 41.904964447021484 C 71.19235229492188 -0.35488614439964294 88.03865814208984 -0.2756667137145996 114.38482666015625 31.921720504760742" stroke-width="3.0" fill="none" stroke="rgb(0, 0, 0)" stroke-opacity="1.0" stroke-linecap="round" stroke-linejoin="round"/>
    <path d="M 47.257110595703125 170.95106506347656 C 39.22824478149414 154.80223083496094 38.126060485839844 145.2413787841797 47.4919319152832 170.12486267089844" stroke-width="3.0" fill="none" stroke="rgb(0, 0, 0)" stroke-opacity="1.0" stroke-linecap="round" stroke-linejoin="round"/>
    <path d="M 36.30013656616211 95.61743927001953 C 19.99943733215332 131.24240112304688 41.63834762573242 147.04608154296875 44.1351318359375 161.8433837890625" stroke-width="3.0" fill="none" stroke="rgb(0, 0, 0)" stroke-opacity="1.0" stroke-linecap="round" stroke-linejoin="round"/>
    <path d="M 87.31082916259766 149.6334228515625 C 109.27565002441406 161.89308166503906 102.82569885253906 157.7802276611328 99.52328491210938 152.3853302001953" stroke-width="3.0" fill="none" stroke="rgb(0, 0, 0)" stroke-opacity="1.0" stroke-linecap="round" stroke-linejoin="round"/>
    <path d="M 87.88509368896484 197.44485473632812 C 68.61832427978516 201.31875610351562 49.085025787353516 176.64361572265625 47.892662048339844 170.44293212890625" stroke-width="3.0" fill="none" stroke="rgb(0, 0, 0)" stroke-opacity="1.0" stroke-linecap="round" stroke-linejoin="round"/>
    <path d="M 49.213348388671875 172.19326782226562 C 62.68125915527344 196.67750549316406 47.10246658325195 169.34146118164062 37.34078598022461 146.93597412109375" stroke-width="3.0" fill="none" stroke="rgb(0, 0, 0)" stroke-opacity="1.0" stroke-linecap="round" stroke-linejoin="round"/>
    <path d="M 83.99285125732422 55.312923431396484 C 61.762752532958984 57.65990447998047 47.780975341796875 71.39678192138672 30.36183738708496 109.9123764038086" stroke-width="3.0" fill="none" stroke="rgb(0, 0, 0)" stroke-opacity="1.0" stroke-linecap="round" stroke-linejoin="round"/>
    <path d="M 152.88717651367188 141.2187042236328 C 118.403076171875 157.8057403564453 116.36011505126953 159.5982208251953 144.9822540283203 149.88319396972656" stroke-width="3.0" fill="none" stroke="rgb(0, 0, 0)" stroke-opacity="1.0" stroke-linecap="round" stroke-linejoin="round"/>
    <path d="M 146.59335327148438 29.13819122314453 C 143.26263427734375 38.80082321166992 135.86825561523438 21.365442276000977 138.77487182617188 81.58486938476562" stroke-width="3.0" fill="none" stroke="rgb(0, 0, 0)" stroke-opacity="1.0" stroke-linecap="round" stroke-linejoin="round"/>
    <path d="M 145.9570770263672 93.2455825805664 C 130.1859588623047 106.89871978759766 133.0399169921875 112.10053253173828 116.8516616821289 104.6450424194336" stroke-width="3.0" fill="none" stroke="rgb(0, 0, 0)" stroke-opacity="1.0" stroke-linecap="round" stroke-linejoin="round"/>
    <path d="M 138.64471435546875 76.46454620361328 C 146.61929321289062 57.29341125488281 131.72206115722656 59.05353546142578 137.96275329589844 74.71227264404297" stroke-width="3.0" fill="none" stroke="rgb(0, 0, 0)" stroke-opacity="1.0" stroke-linecap="round" stroke-linejoin="round"/>
    <path d="M 134.99160766601562 176.7496337890625 C 128.24952697753906 181.26502990722656 138.7730712890625 179.60105895996094 148.06201171875 146.15298461914062" stroke-width="3.0" fill="none" stroke="rgb(0, 0, 0)" stroke-opacity="1.0" stroke-linecap="round" stroke-linejoin="round"/>
    <path d="M 194.77471923828125 96.13494873046875 C 165.84007263183594 75.19451904296875 166.57252502441406 83.13233947753906 182.34375 87.83561706542969" stroke-width="3.0" fill="none" stroke="rgb(0, 0, 0)" stroke-opacity="1.0" stroke-linecap="round" stroke-linejoin="round"/>
    <path d="M 154.0868377685547 77.02039337158203 C 122.28205108642578 61.91327667236328 196.68927001953125 86.12443542480469 183.04525756835938 65.1693344116211" stroke-width="3.0" fill="none" stroke="rgb(0, 0, 0)" stroke-opacity="1.0" stroke-linecap="round" stroke-linejoin="round"/>
    <path d="M 109.68621063232422 76.90029907226562 C 78.2766342163086 70.82563781738281 146.9290313720703 72.3740005493164 105.918701171875 80.11656188964844" stroke-width="3.0" fill="none" stroke="rgb(0, 0, 0)" stroke-opacity="1.0" stroke-linecap="round" stroke-linejoin="round"/>
    <path d="M 162.6207275390625 130.52333068847656 C 142.6399383544922 159.87744140625 120.72273254394531 146.9811553955078 103.2159194946289 156.9338836669922" stroke-width="3.0" fill="none" stroke="rgb(0, 0, 0)" stroke-opacity="1.0" stroke-linecap="round" stroke-linejoin="round"/>
    <path d="M 123.04132080078125 88.97652435302734 C 144.35464477539062 97.25592041015625 125.67273712158203 64.19688415527344 129.93017578125 104.96263885498047" stroke-width="3.0" fill="none" stroke="rgb(0, 0, 0)" stroke-opacity="1.0" stroke-linecap="round" stroke-linejoin="round"/>
    <path d="M 188.5299530029297 111.15230560302734 C 169.4884796142578 91.34193420410156 175.8083038330078 87.94760131835938 148.8899383544922 85.93790435791016" stroke-width="3.0" fill="none" stroke="rgb(0, 0, 0)" stroke-opacity="1.0" stroke-linecap="round" stroke-linejoin="round"/>
    <path d="M 85.97978973388672 11.042845726013184 C 103.90306854248047 12.284716606140137 117.40522003173828 31.319759368896484 123.02213287353516 28.598649978637695" stroke-width="3.0" fill="none" stroke="rgb(0, 0, 0)" stroke-opacity="1.0" stroke-linecap="round" stroke-linejoin="round"/>
    <path d="M 60.669612884521484 123.88727569580078 C 57.48641586303711 119.44563293457031 58.34770584106445 132.07647705078125 59.69324493408203 125.42687225341797" stroke-width="3.0" fill="none" stroke="rgb(0, 0, 0)" stroke-opacity="1.0" stroke-linecap="round" stroke-linejoin="round"/>
    <path d="M 136.6707000732422 103.51110076904297 C 123.85588836669922 88.8317642211914 114.95262145996094 121.26749420166016 109.67617797851562 86.84475708007812" stroke-width="3.0" fill="none" stroke="rgb(0, 0, 0)" stroke-opacity="1.0" stroke-linecap="round" stroke-linejoin="round"/>
    <path d="M 30.669828414916992 128.81658935546875 C 26.57476234436035 103.13529968261719 35.51310729980469 94.85912322998047 50.21049118041992 80.0565414428711" stroke-width="3.0" fill="none" stroke="rgb(0, 0, 0)" stroke-opacity="1.0" stroke-linecap="round" stroke-linejoin="round"/>
    <path d="M 80.44630432128906 195.5859832763672 C 70.3104248046875 193.80886840820312 65.62431335449219 195.0247344970703 100.93230438232422 197.7077178955078" stroke-width="3.0" fill="none" stroke="rgb(0, 0, 0)" stroke-opacity="1.0" stroke-linecap="round" stroke-linejoin="round"/>
    <path d="M 164.7368927001953 133.5343017578125 C 201.92636108398438 116.403076171875 181.01856994628906 94.11676788330078 157.62818908691406 89.8759536743164" stroke-width="3.0" fill="none" stroke="rgb(0, 0, 0)" stroke-opacity="1.0" stroke-linecap="round" stroke-linejoin="round"/>
    <path d="M 150.73532104492188 69.35926055908203 C 133.09710693359375 89.41143035888672 177.70303344726562 74.891845703125 149.50108337402344 73.20856475830078" stroke-width="3.0" fill="none" stroke="rgb(0, 0, 0)" stroke-opacity="1.0" stroke-linecap="round" stroke-linejoin="round"/>
    <path d="M 143.6405029296875 76.17267608642578 C 148.71702575683594 45.215003967285156 193.354736328125 114.58480834960938 179.06398010253906 47.62544250488281" stroke-width="3.0" fill="none" stroke="rgb(0, 0, 0)" stroke-opacity="1.0" stroke-linecap="round" stroke-linejoin="round"/>
    <path d="M 158.96730041503906 97.44828796386719 C 169.668212890625 104.6065673828125 176.61532592773438 102.70323181152344 184.56809997558594 118.8438491821289" stroke-width="3.0" fill="none" stroke="rgb(0, 0, 0)" stroke-opacity="1.0" stroke-linecap="round" stroke-linejoin="round"/>
    <path d="M 176.26121520996094 16.96482276916504 C 168.88619995117188 40.51898956298828 185.04806518554688 19.736745834350586 163.08665466308594 33.56925582885742" stroke-width="3.0" fill="none" stroke="rgb(0, 0, 0)" stroke-opacity="1.0" stroke-linecap="round" stroke-linejoin="round"/>
    <path d="M 121.22586059570312 104.87687683105469 C 144.5947265625 101.29388427734375 134.13909912109375 111.12322235107422 119.53091430664062 104.05489349365234" stroke-width="3.0" fill="none" stroke="rgb(0, 0, 0)" stroke-opacity="1.0" stroke-linecap="round" stroke-linejoin="round"/>
    <path d="M 74.3235855102539 134.82545471191406 C 52.1607551574707 117.78401184082031 58.83021926879883 113.2281723022461 58.79450225830078 117.8672866821289" stroke-width="3.0" fill="none" stroke="rgb(0, 0, 0)" stroke-opacity="1.0" stroke-linecap="round" stroke-linejoin="round"/>
    <path d="M 128.07406616210938 75.33964538574219 C 134.103515625 36.66505432128906 125.13772583007812 52.73215866088867 128.50955200195312 30.249229431152344" stroke-width="3.0" fill="none" stroke="rgb(0, 0, 0)" stroke-opacity="1.0" stroke-linecap="round" stroke-linejoin="round"/>
    <path d="M 157.54505920410156 25.232789993286133 C 148.17347717285156 35.00959777832031 164.08575439453125 7.828583240509033 180.32452392578125 8.823478698730469" stroke-width="3.0" fill="none" stroke="rgb(0, 0, 0)" stroke-opacity="1.0" stroke-linecap="round" stroke-linejoin="round"/>
  </g>
</svg>
