<?xml version="1.0" ?>
<svg xmlns="http://www.w3.org/2000/svg" version="1.1" width="224" height="224">
  <defs/>
  <g>
    <path d="M 60.172157287597656 89.60445404052734 C 72.79705047607422 84.07617950439453 61.80512237548828 74.47162628173828 79.85070037841797 58.409271240234375" stroke-width="3.0" fill="none" stroke="rgb(0, 0, 0)" stroke-opacity="1.0" stroke-linecap="round" stroke-linejoin="round"/>
    <path d="M 196.13648986816406 114.1010971069336 C 180.58639526367188 100.35933685302734 190.11538696289062 98.72911834716797 177.22747802734375 127.6436538696289" stroke-width="3.0" fill="none" stroke="rgb(0, 0, 0)" stroke-opacity="1.0" stroke-linecap="round" stroke-linejoin="round"/>
    <path d="M 61.87309646606445 117.97709655761719 C 52.27507019042969 87.89435577392578 58.977718353271484 111.8826904296875 61.2044677734375 109.57511138916016" stroke-width="3.0" fill="none" stroke="rgb(0, 0, 0)" stroke-opacity="1.0" stroke-linecap="round" stroke-linejoin="round"/>
    <path d="M 189.07907104492188 91.2083740234375 C 146.44052124023438 78.4446792602539 182.02511596679688 75.25392150878906 189.7662811279297 96.71869659423828" stroke-width="3.0" fill="none" stroke="rgb(0, 0, 0)" stroke-opacity="1.0" stroke-linecap="round" stroke-linejoin="round"/>
    <path d="M 175.11488342285156 48.57924270629883 C 194.70895385742188 88.35973358154297 182.33433532714844 98.70156860351562 179.70297241210938 54.29365921020508" stroke-width="3.0" fill="none" stroke="rgb(0, 0, 0)" stroke-opacity="1.0" stroke-linecap="round" stroke-linejoin="round"/>
    <path d="M 129.83607482910156 100.97613525390625 C 151.10150146484375 113.12645721435547 98.5423583984375 99.13469696044922 137.1964569091797 101.4502944946289" stroke-width="3.0" fill="none" stroke="rgb(0, 0, 0)" stroke-opacity="1.0" stroke-linecap="round" stroke-linejoin="round"/>
    <path d="M 183.25823974609375 95.35041809082031 C 161.92575073242188 88.78905487060547 186.8896942138672 71.46992492675781 150.18955993652344 87.64466094970703" stroke-width="3.0" fill="none" stroke="rgb(0, 0, 0)" stroke-opacity="1.0" stroke-linecap="round" stroke-linejoin="round"/>
    <path d="M 65.14823150634766 191.51266479492188 C 42.96278762817383 167.79335021972656 44.29308319091797 169.03201293945312 64.39900970458984 190.51437377929688" stroke-width="3.0" fill="none" stroke="rgb(0, 0, 0)" stroke-opacity="1.0" stroke-linecap="round" stroke-linejoin="round"/>
    <path d="M 56.82331085205078 183.575439453125 C 81.08246612548828 214.16635131835938 138.636474609375 195.9344940185547 136.2088165283203 161.2283935546875" stroke-width="3.0" fill="none" stroke="rgb(0, 0, 0)" stroke-opacity="1.0" stroke-linecap="round" stroke-linejoin="round"/>
    <path d="M 81.89108276367188 12.664752006530762 C 90.43490600585938 71.58584594726562 84.17281341552734 5.921518802642822 81.63057708740234 51.00504684448242" stroke-width="3.0" fill="none" stroke="rgb(0, 0, 0)" stroke-opacity="1.0" stroke-linecap="round" stroke-linejoin="round"/>
    <path d="M 62.623355865478516 94.98310089111328 C 44.94395065307617 126.6331558227539 77.17835998535156 129.59512329101562 59.76240158081055 117.59420013427734" stroke-width="3.0" fill="none" stroke="rgb(0, 0, 0)" stroke-opacity="1.0" stroke-linecap="round" stroke-linejoin="round"/>
    <path d="M 144.96029663085938 74.50245666503906 C 195.13800048828125 59.45174026489258 205.30931091308594 88.60103607177734 140.31947326660156 84.22317504882812" stroke-width="3.0" fill="none" stroke="rgb(0, 0, 0)" stroke-opacity="1.0" stroke-linecap="round" stroke-linejoin="round"/>
    <path d="M 152.07464599609375 95.97210693359375 C 190.48532104492188 100.01703643798828 177.56265258789062 102.38607025146484 189.0181884765625 112.73218536376953" stroke-width="3.0" fill="none" stroke="rgb(0, 0, 0)" stroke-opacity="1.0" stroke-linecap="round" stroke-linejoin="round"/>
    <path d="M 123.17070007324219 153.06338500976562 C 179.29345703125 155.0084228515625 97.87397766113281 146.59188842773438 95.33588409423828 154.24269104003906" stroke-width="3.0" fill="none" stroke="rgb(0, 0, 0)" stroke-opacity="1.0" stroke-linecap="round" stroke-linejoin="round"/>
    <path d="M 176.96826171875 8.857837677001953 C 190.0788116455078 16.6563720703125 168.06118774414062 91.8272705078125 185.01455688476562 60.939178466796875" stroke-width="3.0" fill="none" stroke="rgb(0, 0, 0)" stroke-opacity="1.0" stroke-linecap="round" stroke-linejoin="round"/>
    <path d="M 147.9828338623047 29.08371925354004 C 108.9298095703125 34.390201568603516 132.98947143554688 25.387548446655273 129.92884826660156 63.402076721191406" stroke-width="3.0" fill="none" stroke="rgb(0, 0, 0)" stroke-opacity="1.0" stroke-linecap="round" stroke-linejoin="round"/>
    <path d="M 108.75901794433594 47.70431137084961 C 62.09429931640625 -8.733622550964355 82.74700927734375 1.0189085006713867 120.80659484863281 33.20321273803711" stroke-width="3.0" fill="none" stroke="rgb(0, 0, 0)" stroke-opacity="1.0" stroke-linecap="round" stroke-linejoin="round"/>
    <path d="M 42.179283142089844 158.64906311035156 C 42.57500457763672 160.28048706054688 40.403900146484375 156.15155029296875 50.3628044128418 176.6968994140625" stroke-width="3.0" fill="none" stroke="rgb(0, 0, 0)" stroke-opacity="1.0" stroke-linecap="round" stroke-linejoin="round"/>
    <path d="M 60.89904022216797 64.58557891845703 C 16.969675064086914 116.67889404296875 38.65623092651367 141.9644317626953 44.67965316772461 163.8373260498047" stroke-width="3.0" fill="none" stroke="rgb(0, 0, 0)" stroke-opacity="1.0" stroke-linecap="round" stroke-linejoin="round"/>
    <path d="M 67.66983795166016 134.9864044189453 C 139.38104248046875 171.1480712890625 113.11102294921875 151.45755004882812 87.76609802246094 143.28204345703125" stroke-width="3.0" fill="none" stroke="rgb(0, 0, 0)" stroke-opacity="1.0" stroke-linecap="round" stroke-linejoin="round"/>
    <path d="M 85.28608703613281 198.2735137939453 C 65.59049987792969 200.8419189453125 47.441097259521484 176.69134521484375 39.45183563232422 148.82127380371094" stroke-width="3.0" fill="none" stroke="rgb(0, 0, 0)" stroke-opacity="1.0" stroke-linecap="round" stroke-linejoin="round"/>
    <path d="M 45.58258819580078 170.09375 C 68.21392059326172 203.61328125 48.232391357421875 177.48574829101562 39.11783218383789 146.8936309814453" stroke-width="3.0" fill="none" stroke="rgb(0, 0, 0)" stroke-opacity="1.0" stroke-linecap="round" stroke-linejoin="round"/>
    <path d="M 80.73884582519531 54.47715377807617 C 60.47240447998047 61.062007904052734 61.15711212158203 65.14965057373047 34.98446273803711 111.00263214111328" stroke-width="3.0" fill="none" stroke="rgb(0, 0, 0)" stroke-opacity="1.0" stroke-linecap="round" stroke-linejoin="round"/>
    <path d="M 146.77896118164062 145.1976776123047 C 112.65060424804688 159.7007598876953 71.26478576660156 154.24346923828125 140.48451232910156 150.23583984375" stroke-width="3.0" fill="none" stroke="rgb(0, 0, 0)" stroke-opacity="1.0" stroke-linecap="round" stroke-linejoin="round"/>
    <path d="M 149.26602172851562 30.676748275756836 C 144.20098876953125 43.840694427490234 140.23243713378906 16.975727081298828 137.59368896484375 72.70215606689453" stroke-width="3.0" fill="none" stroke="rgb(0, 0, 0)" stroke-opacity="1.0" stroke-linecap="round" stroke-linejoin="round"/>
    <path d="M 146.09725952148438 98.4598388671875 C 128.05178833007812 112.25875091552734 124.98411560058594 103.93995666503906 118.75360107421875 100.88655853271484" stroke-width="3.0" fill="none" stroke="rgb(0, 0, 0)" stroke-opacity="1.0" stroke-linecap="round" stroke-linejoin="round"/>
    <path d="M 138.86465454101562 70.47441864013672 C 148.5849609375 53.95553207397461 133.84219360351562 65.95559692382812 136.50625610351562 68.15766906738281" stroke-width="3.0" fill="none" stroke="rgb(0, 0, 0)" stroke-opacity="1.0" stroke-linecap="round" stroke-linejoin="round"/>
    <path d="M 138.13571166992188 164.74855041503906 C 134.78501892089844 169.87863159179688 139.72789001464844 163.15602111816406 147.17503356933594 143.56224060058594" stroke-width="3.0" fill="none" stroke="rgb(0, 0, 0)" stroke-opacity="1.0" stroke-linecap="round" stroke-linejoin="round"/>
    <path d="M 193.10369873046875 94.6199951171875 C 161.9258575439453 67.63679504394531 185.68099975585938 59.977596282958984 178.66123962402344 93.83418273925781" stroke-width="3.0" fill="none" stroke="rgb(0, 0, 0)" stroke-opacity="1.0" stroke-linecap="round" stroke-linejoin="round"/>
    <path d="M 153.3745880126953 77.11670684814453 C 120.67373657226562 58.96986770629883 207.15322875976562 87.32369232177734 181.77786254882812 60.85285568237305" stroke-width="3.0" fill="none" stroke="rgb(0, 0, 0)" stroke-opacity="1.0" stroke-linecap="round" stroke-linejoin="round"/>
    <path d="M 116.66017150878906 83.35391998291016 C 90.51110076904297 75.66445922851562 137.69972229003906 75.47879028320312 110.996337890625 85.44483947753906" stroke-width="3.0" fill="none" stroke="rgb(0, 0, 0)" stroke-opacity="1.0" stroke-linecap="round" stroke-linejoin="round"/>
    <path d="M 167.95359802246094 129.70880126953125 C 154.1474151611328 156.1386260986328 88.31453704833984 151.1092529296875 93.427490234375 147.24940490722656" stroke-width="3.0" fill="none" stroke="rgb(0, 0, 0)" stroke-opacity="1.0" stroke-linecap="round" stroke-linejoin="round"/>
    <path d="M 125.39552307128906 86.73246002197266 C 140.8304901123047 99.138916015625 133.17822265625 66.63780975341797 130.093017578125 102.1516342163086" stroke-width="3.0" fill="none" stroke="rgb(0, 0, 0)" stroke-opacity="1.0" stroke-linecap="round" stroke-linejoin="round"/>
    <path d="M 184.95167541503906 108.41119384765625 C 171.24237060546875 88.41950988769531 169.57833862304688 93.20793151855469 143.25198364257812 85.74634552001953" stroke-width="3.0" fill="none" stroke="rgb(0, 0, 0)" stroke-opacity="1.0" stroke-linecap="round" stroke-linejoin="round"/>
    <path d="M 92.19872283935547 21.73585319519043 C 125.97435760498047 27.814416885375977 85.8987045288086 32.21076583862305 147.57603454589844 29.47157096862793" stroke-width="3.0" fill="none" stroke="rgb(0, 0, 0)" stroke-opacity="1.0" stroke-linecap="round" stroke-linejoin="round"/>
    <path d="M 56.92969512939453 105.20838165283203 C 60.813106536865234 94.5472412109375 51.73752975463867 119.57078552246094 71.47071075439453 136.853759765625" stroke-width="3.0" fill="none" stroke="rgb(0, 0, 0)" stroke-opacity="1.0" stroke-linecap="round" stroke-linejoin="round"/>
    <path d="M 135.31529235839844 105.18280792236328 C 131.61483764648438 88.00712585449219 125.08978271484375 119.40511322021484 115.35189056396484 92.08421325683594" stroke-width="3.0" fill="none" stroke="rgb(0, 0, 0)" stroke-opacity="1.0" stroke-linecap="round" stroke-linejoin="round"/>
    <path d="M 38.93088912963867 150.166748046875 C 19.135622024536133 124.30033874511719 41.98886489868164 71.00674438476562 67.48564147949219 60.570884704589844" stroke-width="3.0" fill="none" stroke="rgb(0, 0, 0)" stroke-opacity="1.0" stroke-linecap="round" stroke-linejoin="round"/>
    <path d="M 98.89469909667969 198.61672973632812 C 86.95994567871094 197.02830505371094 85.89722442626953 201.06402587890625 109.15811920166016 195.17144775390625" stroke-width="3.0" fill="none" stroke="rgb(0, 0, 0)" stroke-opacity="1.0" stroke-linecap="round" stroke-linejoin="round"/>
    <path d="M 167.50521850585938 129.80474853515625 C 198.13043212890625 114.52216339111328 192.1995391845703 85.15567016601562 154.6097412109375 87.44770050048828" stroke-width="3.0" fill="none" stroke="rgb(0, 0, 0)" stroke-opacity="1.0" stroke-linecap="round" stroke-linejoin="round"/>
    <path d="M 158.5509796142578 70.67225646972656 C 126.07553100585938 80.78269958496094 165.698486328125 82.56204223632812 152.29733276367188 72.12651824951172" stroke-width="3.0" fill="none" stroke="rgb(0, 0, 0)" stroke-opacity="1.0" stroke-linecap="round" stroke-linejoin="round"/>
    <path d="M 139.380615234375 79.99083709716797 C 143.95892333984375 41.414764404296875 201.31060791015625 117.69059753417969 178.68858337402344 41.98997116088867" stroke-width="3.0" fill="none" stroke="rgb(0, 0, 0)" stroke-opacity="1.0" stroke-linecap="round" stroke-linejoin="round"/>
    <path d="M 154.32337951660156 96.13450622558594 C 173.97406005859375 103.3257064819336 178.95082092285156 105.05428314208984 182.63739013671875 123.38944244384766" stroke-width="3.0" fill="none" stroke="rgb(0, 0, 0)" stroke-opacity="1.0" stroke-linecap="round" stroke-linejoin="round"/>
    <path d="M 177.2633056640625 11.751296997070312 C 171.98390197753906 46.01445388793945 177.31240844726562 18.85396957397461 158.5909881591797 38.236907958984375" stroke-width="3.0" fill="none" stroke="rgb(0, 0, 0)" stroke-opacity="1.0" stroke-linecap="round" stroke-linejoin="round"/>
    <path d="M 119.89691925048828 100.86773681640625 C 143.3941650390625 92.51278686523438 131.29666137695312 113.82316589355469 128.89437866210938 104.71118927001953" stroke-width="3.0" fill="none" stroke="rgb(0, 0, 0)" stroke-opacity="1.0" stroke-linecap="round" stroke-linejoin="round"/>
    <path d="M 60.666221618652344 94.09102630615234 C 50.53273010253906 106.00102233886719 54.15520477294922 111.19690704345703 61.505252838134766 98.36982727050781" stroke-width="3.0" fill="none" stroke="rgb(0, 0, 0)" stroke-opacity="1.0" stroke-linecap="round" stroke-linejoin="round"/>
    <path d="M 123.95208740234375 79.08346557617188 C 130.1837158203125 51.2608757019043 114.59283447265625 56.317989349365234 119.49369049072266 36.811397552490234" stroke-width="3.0" fill="none" stroke="rgb(0, 0, 0)" stroke-opacity="1.0" stroke-linecap="round" stroke-linejoin="round"/>
    <path d="M 135.1959686279297 29.71952247619629 C 145.89688110351562 43.95277786254883 158.7559356689453 7.719930648803711 176.65866088867188 9.266242980957031" stroke-width="3.0" fill="none" stroke="rgb(0, 0, 0)" stroke-opacity="1.0" stroke-linecap="round" stroke-linejoin="round"/>
  </g>
</svg>
