<?xml version="1.0" ?>
<svg xmlns="http://www.w3.org/2000/svg" version="1.1" width="224" height="224">
  <defs/>
  <g>
    <path d="M 52.75110626220703 117.27704620361328 C 56.10836410522461 118.07588195800781 44.727760314941406 105.10396575927734 42.30567169189453 87.35956573486328" stroke-width="3.0" fill="none" stroke="rgb(0, 0, 0)" stroke-opacity="1.0" stroke-linecap="round" stroke-linejoin="round"/>
    <path d="M 182.56753540039062 125.88581848144531 C 179.68667602539062 115.97697448730469 184.10552978515625 112.31953430175781 187.36383056640625 117.38558197021484" stroke-width="3.0" fill="none" stroke="rgb(0, 0, 0)" stroke-opacity="1.0" stroke-linecap="round" stroke-linejoin="round"/>
    <path d="M 52.75001525878906 114.83720397949219 C 48.433536529541016 110.36790466308594 51.07062911987305 105.69152069091797 55.709861755371094 122.76042938232422" stroke-width="3.0" fill="none" stroke="rgb(0, 0, 0)" stroke-opacity="1.0" stroke-linecap="round" stroke-linejoin="round"/>
    <path d="M 183.78627014160156 97.45993041992188 C 152.19654846191406 91.24958038330078 171.7357177734375 81.34255981445312 196.20028686523438 113.0397720336914" stroke-width="3.0" fill="none" stroke="rgb(0, 0, 0)" stroke-opacity="1.0" stroke-linecap="round" stroke-linejoin="round"/>
    <path d="M 180.70623779296875 74.36433410644531 C 176.61819458007812 99.7505874633789 175.9661407470703 93.15487670898438 184.3856658935547 65.68763732910156" stroke-width="3.0" fill="none" stroke="rgb(0, 0, 0)" stroke-opacity="1.0" stroke-linecap="round" stroke-linejoin="round"/>
    <path d="M 128.37588500976562 103.4867935180664 C 144.77288818359375 106.2279281616211 101.82623291015625 105.33392333984375 141.15667724609375 102.38783264160156" stroke-width="3.0" fill="none" stroke="rgb(0, 0, 0)" stroke-opacity="1.0" stroke-linecap="round" stroke-linejoin="round"/>
    <path d="M 171.951171875 99.62670135498047 C 196.10162353515625 73.51713562011719 183.6364288330078 76.46504211425781 152.15467834472656 87.65602111816406" stroke-width="3.0" fill="none" stroke="rgb(0, 0, 0)" stroke-opacity="1.0" stroke-linecap="round" stroke-linejoin="round"/>
    <path d="M 51.03668212890625 178.53062438964844 C 35.29807662963867 151.8751678466797 48.16710662841797 167.61813354492188 43.270538330078125 163.04388427734375" stroke-width="3.0" fill="none" stroke="rgb(0, 0, 0)" stroke-opacity="1.0" stroke-linecap="round" stroke-linejoin="round"/>
    <path d="M 65.09137725830078 190.51707458496094 C 85.16716003417969 205.28726196289062 109.28015899658203 196.76840209960938 114.60260009765625 193.2982940673828" stroke-width="3.0" fill="none" stroke="rgb(0, 0, 0)" stroke-opacity="1.0" stroke-linecap="round" stroke-linejoin="round"/>
    <path d="M 87.17085266113281 35.47857666015625 C 89.57756805419922 52.75715255737305 87.73860168457031 8.126694679260254 84.75105285644531 51.281375885009766" stroke-width="3.0" fill="none" stroke="rgb(0, 0, 0)" stroke-opacity="1.0" stroke-linecap="round" stroke-linejoin="round"/>
    <path d="M 57.23318099975586 126.08161926269531 C 64.7257308959961 141.82154846191406 93.14544677734375 148.89585876464844 91.42888641357422 152.06593322753906" stroke-width="3.0" fill="none" stroke="rgb(0, 0, 0)" stroke-opacity="1.0" stroke-linecap="round" stroke-linejoin="round"/>
    <path d="M 149.46295166015625 69.92537689208984 C 206.43592834472656 77.24293518066406 182.64895629882812 82.47407531738281 148.51121520996094 88.0892105102539" stroke-width="3.0" fill="none" stroke="rgb(0, 0, 0)" stroke-opacity="1.0" stroke-linecap="round" stroke-linejoin="round"/>
    <path d="M 145.0543212890625 98.06988525390625 C 175.3986358642578 100.30463409423828 178.93650817871094 99.86500549316406 185.19244384765625 107.61113739013672" stroke-width="3.0" fill="none" stroke="rgb(0, 0, 0)" stroke-opacity="1.0" stroke-linecap="round" stroke-linejoin="round"/>
    <path d="M 101.85176086425781 156.4547576904297 C 142.32286071777344 146.92556762695312 118.10558319091797 176.8075408935547 120.13699340820312 174.8717041015625" stroke-width="3.0" fill="none" stroke="rgb(0, 0, 0)" stroke-opacity="1.0" stroke-linecap="round" stroke-linejoin="round"/>
    <path d="M 171.2541961669922 8.514425277709961 C 191.97901916503906 -0.906671404838562 171.40802001953125 57.27691650390625 183.66616821289062 59.02598571777344" stroke-width="3.0" fill="none" stroke="rgb(0, 0, 0)" stroke-opacity="1.0" stroke-linecap="round" stroke-linejoin="round"/>
    <path d="M 127.69073486328125 31.41753387451172 C 127.10372161865234 52.5267448425293 135.25022888183594 41.05033874511719 131.07217407226562 66.09574890136719" stroke-width="3.0" fill="none" stroke="rgb(0, 0, 0)" stroke-opacity="1.0" stroke-linecap="round" stroke-linejoin="round"/>
    <path d="M 91.034423828125 47.20124053955078 C 73.62516021728516 -6.357815742492676 84.43203735351562 -1.1144416332244873 99.83030700683594 43.090476989746094" stroke-width="3.0" fill="none" stroke="rgb(0, 0, 0)" stroke-opacity="1.0" stroke-linecap="round" stroke-linejoin="round"/>
    <path d="M 42.706912994384766 163.1112823486328 C 39.05329513549805 154.59080505371094 38.29077911376953 152.71043395996094 40.418338775634766 150.53456115722656" stroke-width="3.0" fill="none" stroke="rgb(0, 0, 0)" stroke-opacity="1.0" stroke-linecap="round" stroke-linejoin="round"/>
    <path d="M 32.901817321777344 108.17488861083984 C 25.13811683654785 130.81689453125 38.07879638671875 140.13314819335938 40.656105041503906 157.2803192138672" stroke-width="3.0" fill="none" stroke="rgb(0, 0, 0)" stroke-opacity="1.0" stroke-linecap="round" stroke-linejoin="round"/>
    <path d="M 84.54740905761719 147.32826232910156 C 103.34713745117188 155.8333282470703 105.88397216796875 157.9196319580078 91.13419342041016 152.65574645996094" stroke-width="3.0" fill="none" stroke="rgb(0, 0, 0)" stroke-opacity="1.0" stroke-linecap="round" stroke-linejoin="round"/>
    <path d="M 74.821044921875 196.81997680664062 C 52.28794860839844 184.02731323242188 56.61025619506836 187.18003845214844 45.75422668457031 172.09103393554688" stroke-width="3.0" fill="none" stroke="rgb(0, 0, 0)" stroke-opacity="1.0" stroke-linecap="round" stroke-linejoin="round"/>
    <path d="M 42.81477737426758 164.60964965820312 C 55.969451904296875 190.89471435546875 41.55519104003906 164.251953125 38.61074447631836 149.82696533203125" stroke-width="3.0" fill="none" stroke="rgb(0, 0, 0)" stroke-opacity="1.0" stroke-linecap="round" stroke-linejoin="round"/>
    <path d="M 82.19674682617188 56.81678009033203 C 57.40148162841797 55.70201873779297 47.41313552856445 74.98041534423828 32.80742263793945 108.56046295166016" stroke-width="3.0" fill="none" stroke="rgb(0, 0, 0)" stroke-opacity="1.0" stroke-linecap="round" stroke-linejoin="round"/>
    <path d="M 147.75791931152344 145.3485107421875 C 139.28012084960938 159.86485290527344 121.84248352050781 152.36032104492188 131.5972900390625 158.45254516601562" stroke-width="3.0" fill="none" stroke="rgb(0, 0, 0)" stroke-opacity="1.0" stroke-linecap="round" stroke-linejoin="round"/>
    <path d="M 138.61585998535156 30.5538387298584 C 145.4994659423828 66.92485046386719 131.54554748535156 51.232364654541016 135.7340087890625 83.20503997802734" stroke-width="3.0" fill="none" stroke="rgb(0, 0, 0)" stroke-opacity="1.0" stroke-linecap="round" stroke-linejoin="round"/>
    <path d="M 143.09852600097656 101.32479095458984 C 114.51214599609375 98.0841293334961 105.29219055175781 104.65782165527344 136.4912567138672 104.61758422851562" stroke-width="3.0" fill="none" stroke="rgb(0, 0, 0)" stroke-opacity="1.0" stroke-linecap="round" stroke-linejoin="round"/>
    <path d="M 138.4437713623047 70.63587951660156 C 147.7571258544922 52.966251373291016 140.67926025390625 56.202754974365234 136.6484375 71.40693664550781" stroke-width="3.0" fill="none" stroke="rgb(0, 0, 0)" stroke-opacity="1.0" stroke-linecap="round" stroke-linejoin="round"/>
    <path d="M 126.51725006103516 185.6432342529297 C 99.1012191772461 199.74978637695312 130.04249572753906 197.450927734375 141.05853271484375 156.1888885498047" stroke-width="3.0" fill="none" stroke="rgb(0, 0, 0)" stroke-opacity="1.0" stroke-linecap="round" stroke-linejoin="round"/>
    <path d="M 195.7862548828125 95.65544891357422 C 160.49734497070312 70.09336853027344 138.7765655517578 98.90484619140625 186.5509490966797 87.81069946289062" stroke-width="3.0" fill="none" stroke="rgb(0, 0, 0)" stroke-opacity="1.0" stroke-linecap="round" stroke-linejoin="round"/>
    <path d="M 153.00160217285156 72.5369873046875 C 191.4560089111328 66.92707824707031 197.67730712890625 80.63542938232422 169.44195556640625 74.85308074951172" stroke-width="3.0" fill="none" stroke="rgb(0, 0, 0)" stroke-opacity="1.0" stroke-linecap="round" stroke-linejoin="round"/>
    <path d="M 109.64549255371094 78.20380401611328 C 92.77638244628906 71.51048278808594 138.97879028320312 75.8193588256836 106.78019714355469 81.83313751220703" stroke-width="3.0" fill="none" stroke="rgb(0, 0, 0)" stroke-opacity="1.0" stroke-linecap="round" stroke-linejoin="round"/>
    <path d="M 142.14427185058594 151.5548095703125 C 141.6420135498047 159.9803924560547 126.30146026611328 154.07278442382812 106.11668395996094 157.37132263183594" stroke-width="3.0" fill="none" stroke="rgb(0, 0, 0)" stroke-opacity="1.0" stroke-linecap="round" stroke-linejoin="round"/>
    <path d="M 123.746337890625 88.18106842041016 C 140.5636444091797 100.98780822753906 131.64187622070312 73.39673614501953 128.60934448242188 102.88367462158203" stroke-width="3.0" fill="none" stroke="rgb(0, 0, 0)" stroke-opacity="1.0" stroke-linecap="round" stroke-linejoin="round"/>
    <path d="M 188.27198791503906 109.46055603027344 C 184.77978515625 83.20680236816406 184.0757293701172 96.5685043334961 142.64747619628906 86.11463165283203" stroke-width="3.0" fill="none" stroke="rgb(0, 0, 0)" stroke-opacity="1.0" stroke-linecap="round" stroke-linejoin="round"/>
    <path d="M 83.24302673339844 9.356523513793945 C 110.23409271240234 18.82911491394043 114.43619537353516 33.73881912231445 120.63841247558594 30.772977828979492" stroke-width="3.0" fill="none" stroke="rgb(0, 0, 0)" stroke-opacity="1.0" stroke-linecap="round" stroke-linejoin="round"/>
    <path d="M 52.72994613647461 116.41281127929688 C 48.74251937866211 108.6414566040039 55.36493682861328 123.61004638671875 55.5662956237793 120.86722564697266" stroke-width="3.0" fill="none" stroke="rgb(0, 0, 0)" stroke-opacity="1.0" stroke-linecap="round" stroke-linejoin="round"/>
    <path d="M 114.50940704345703 100.22710418701172 C 106.89359283447266 84.92011260986328 118.49532318115234 109.90315246582031 107.3021469116211 90.4179916381836" stroke-width="3.0" fill="none" stroke="rgb(0, 0, 0)" stroke-opacity="1.0" stroke-linecap="round" stroke-linejoin="round"/>
    <path d="M 31.433826446533203 129.75177001953125 C 28.924551010131836 109.16764068603516 35.03367614746094 103.53197479248047 31.258943557739258 116.78900909423828" stroke-width="3.0" fill="none" stroke="rgb(0, 0, 0)" stroke-opacity="1.0" stroke-linecap="round" stroke-linejoin="round"/>
    <path d="M 85.38282012939453 198.02752685546875 C 73.42277526855469 196.48080444335938 69.02545166015625 197.55564880371094 96.08778381347656 197.42782592773438" stroke-width="3.0" fill="none" stroke="rgb(0, 0, 0)" stroke-opacity="1.0" stroke-linecap="round" stroke-linejoin="round"/>
    <path d="M 150.24227905273438 145.0813446044922 C 211.19915771484375 112.34383392333984 182.25245666503906 95.77140808105469 148.48178100585938 93.30581665039062" stroke-width="3.0" fill="none" stroke="rgb(0, 0, 0)" stroke-opacity="1.0" stroke-linecap="round" stroke-linejoin="round"/>
    <path d="M 157.7589874267578 74.71784973144531 C 119.93321990966797 82.06642150878906 179.9192657470703 78.43587493896484 146.7958221435547 74.21662902832031" stroke-width="3.0" fill="none" stroke="rgb(0, 0, 0)" stroke-opacity="1.0" stroke-linecap="round" stroke-linejoin="round"/>
    <path d="M 142.42604064941406 76.03666687011719 C 147.3875274658203 52.83356475830078 190.2247314453125 100.94281768798828 181.38531494140625 50.74001693725586" stroke-width="3.0" fill="none" stroke="rgb(0, 0, 0)" stroke-opacity="1.0" stroke-linecap="round" stroke-linejoin="round"/>
    <path d="M 150.28416442871094 97.4353256225586 C 160.76158142089844 101.88939666748047 175.68521118164062 107.13861083984375 186.99838256835938 115.21549224853516" stroke-width="3.0" fill="none" stroke="rgb(0, 0, 0)" stroke-opacity="1.0" stroke-linecap="round" stroke-linejoin="round"/>
    <path d="M 176.56784057617188 16.381275177001953 C 171.63955688476562 43.013187408447266 173.0282440185547 26.860445022583008 159.65208435058594 37.377464294433594" stroke-width="3.0" fill="none" stroke="rgb(0, 0, 0)" stroke-opacity="1.0" stroke-linecap="round" stroke-linejoin="round"/>
    <path d="M 127.50218963623047 105.35502624511719 C 140.63792419433594 105.78289031982422 129.85772705078125 112.9891586303711 109.20738220214844 98.31942749023438" stroke-width="3.0" fill="none" stroke="rgb(0, 0, 0)" stroke-opacity="1.0" stroke-linecap="round" stroke-linejoin="round"/>
    <path d="M 53.36631774902344 117.3051986694336 C 54.17286682128906 114.9500961303711 46.31314468383789 108.70222473144531 59.79993438720703 130.43267822265625" stroke-width="3.0" fill="none" stroke="rgb(0, 0, 0)" stroke-opacity="1.0" stroke-linecap="round" stroke-linejoin="round"/>
    <path d="M 121.87806701660156 74.00592803955078 C 125.70648956298828 50.88347244262695 115.0992202758789 53.39573669433594 120.89026641845703 31.56182098388672" stroke-width="3.0" fill="none" stroke="rgb(0, 0, 0)" stroke-opacity="1.0" stroke-linecap="round" stroke-linejoin="round"/>
    <path d="M 144.94473266601562 32.798152923583984 C 143.60401916503906 40.22689437866211 149.78921508789062 15.501145362854004 177.66439819335938 7.73291540145874" stroke-width="3.0" fill="none" stroke="rgb(0, 0, 0)" stroke-opacity="1.0" stroke-linecap="round" stroke-linejoin="round"/>
  </g>
</svg>
