<?xml version="1.0" ?>
<svg xmlns="http://www.w3.org/2000/svg" version="1.1" width="224" height="224">
  <defs/>
  <g>
    <path d="M 61.12889862060547 99.34432220458984 C 61.989627838134766 100.88782501220703 52.909751892089844 91.07342529296875 65.54509735107422 59.81124496459961" stroke-width="3.0" fill="none" stroke="rgb(0, 0, 0)" stroke-opacity="1.0" stroke-linecap="round" stroke-linejoin="round"/>
    <path d="M 189.10858154296875 111.20079803466797 C 183.2318878173828 112.83455657958984 193.47561645507812 98.52288818359375 178.61146545410156 127.44098663330078" stroke-width="3.0" fill="none" stroke="rgb(0, 0, 0)" stroke-opacity="1.0" stroke-linecap="round" stroke-linejoin="round"/>
    <path d="M 61.16497802734375 122.78903198242188 C 56.45264434814453 80.08208465576172 56.984344482421875 123.62065887451172 62.17816925048828 126.93485260009766" stroke-width="3.0" fill="none" stroke="rgb(0, 0, 0)" stroke-opacity="1.0" stroke-linecap="round" stroke-linejoin="round"/>
    <path d="M 187.1542510986328 96.32740783691406 C 150.24000549316406 73.19852447509766 185.90585327148438 75.65399169921875 187.15216064453125 103.66937255859375" stroke-width="3.0" fill="none" stroke="rgb(0, 0, 0)" stroke-opacity="1.0" stroke-linecap="round" stroke-linejoin="round"/>
    <path d="M 175.22702026367188 42.30459213256836 C 194.10501098632812 91.07525634765625 171.96302795410156 107.30905151367188 180.21998596191406 63.70387649536133" stroke-width="3.0" fill="none" stroke="rgb(0, 0, 0)" stroke-opacity="1.0" stroke-linecap="round" stroke-linejoin="round"/>
    <path d="M 129.37109375 101.15062713623047 C 150.2156219482422 118.43534088134766 99.32547760009766 100.7540283203125 136.09446716308594 106.15040588378906" stroke-width="3.0" fill="none" stroke="rgb(0, 0, 0)" stroke-opacity="1.0" stroke-linecap="round" stroke-linejoin="round"/>
    <path d="M 182.40528869628906 90.05697631835938 C 170.4468231201172 89.76598358154297 182.50677490234375 69.90129852294922 159.46775817871094 86.4172592163086" stroke-width="3.0" fill="none" stroke="rgb(0, 0, 0)" stroke-opacity="1.0" stroke-linecap="round" stroke-linejoin="round"/>
    <path d="M 66.09436798095703 189.81179809570312 C 42.382041931152344 167.771484375 49.285675048828125 164.43637084960938 56.1651725769043 179.7578125" stroke-width="3.0" fill="none" stroke="rgb(0, 0, 0)" stroke-opacity="1.0" stroke-linecap="round" stroke-linejoin="round"/>
    <path d="M 58.87733840942383 182.4037628173828 C 84.25244140625 209.73033142089844 135.5177764892578 194.64157104492188 138.9718017578125 162.51177978515625" stroke-width="3.0" fill="none" stroke="rgb(0, 0, 0)" stroke-opacity="1.0" stroke-linecap="round" stroke-linejoin="round"/>
    <path d="M 80.9989013671875 13.036698341369629 C 92.9994125366211 80.49484252929688 87.01863098144531 9.003315925598145 85.81917572021484 54.96685028076172" stroke-width="3.0" fill="none" stroke="rgb(0, 0, 0)" stroke-opacity="1.0" stroke-linecap="round" stroke-linejoin="round"/>
    <path d="M 61.22073745727539 95.10730743408203 C 48.5066032409668 132.30975341796875 74.34703826904297 130.8773193359375 62.01697540283203 120.48238372802734" stroke-width="3.0" fill="none" stroke="rgb(0, 0, 0)" stroke-opacity="1.0" stroke-linecap="round" stroke-linejoin="round"/>
    <path d="M 144.10777282714844 75.04259490966797 C 193.60372924804688 66.72966766357422 192.58082580566406 87.03160095214844 142.93307495117188 84.89704895019531" stroke-width="3.0" fill="none" stroke="rgb(0, 0, 0)" stroke-opacity="1.0" stroke-linecap="round" stroke-linejoin="round"/>
    <path d="M 148.6805419921875 96.91793823242188 C 181.05715942382812 99.1788558959961 181.02639770507812 96.31097412109375 196.12181091308594 113.89041137695312" stroke-width="3.0" fill="none" stroke="rgb(0, 0, 0)" stroke-opacity="1.0" stroke-linecap="round" stroke-linejoin="round"/>
    <path d="M 121.74039459228516 146.03562927246094 C 163.50857543945312 161.05221557617188 99.53614807128906 139.7117919921875 97.54122161865234 151.81494140625" stroke-width="3.0" fill="none" stroke="rgb(0, 0, 0)" stroke-opacity="1.0" stroke-linecap="round" stroke-linejoin="round"/>
    <path d="M 178.24786376953125 8.511970520019531 C 189.811279296875 18.706626892089844 162.86729431152344 94.31147766113281 180.9724884033203 57.48978805541992" stroke-width="3.0" fill="none" stroke="rgb(0, 0, 0)" stroke-opacity="1.0" stroke-linecap="round" stroke-linejoin="round"/>
    <path d="M 147.9136962890625 29.44082260131836 C 112.95419311523438 31.513967514038086 139.18324279785156 31.269790649414062 131.64114379882812 63.71855926513672" stroke-width="3.0" fill="none" stroke="rgb(0, 0, 0)" stroke-opacity="1.0" stroke-linecap="round" stroke-linejoin="round"/>
    <path d="M 105.12157440185547 49.21873474121094 C 61.43955993652344 -10.524579048156738 81.47649383544922 -0.496201753616333 118.43743896484375 31.720142364501953" stroke-width="3.0" fill="none" stroke="rgb(0, 0, 0)" stroke-opacity="1.0" stroke-linecap="round" stroke-linejoin="round"/>
    <path d="M 45.30667495727539 163.7561798095703 C 44.536861419677734 159.8534393310547 39.88825225830078 155.2234649658203 49.228458404541016 171.1915740966797" stroke-width="3.0" fill="none" stroke="rgb(0, 0, 0)" stroke-opacity="1.0" stroke-linecap="round" stroke-linejoin="round"/>
    <path d="M 56.008460998535156 67.48578643798828 C 25.996280670166016 130.65744018554688 45.4623908996582 130.37757873535156 43.67819595336914 160.01364135742188" stroke-width="3.0" fill="none" stroke="rgb(0, 0, 0)" stroke-opacity="1.0" stroke-linecap="round" stroke-linejoin="round"/>
    <path d="M 71.1536865234375 136.1004180908203 C 138.3624267578125 156.84034729003906 103.74584197998047 144.6967010498047 87.3863525390625 143.2213897705078" stroke-width="3.0" fill="none" stroke="rgb(0, 0, 0)" stroke-opacity="1.0" stroke-linecap="round" stroke-linejoin="round"/>
    <path d="M 93.5872802734375 196.4329071044922 C 64.4124526977539 200.94081115722656 48.384464263916016 177.2241973876953 43.90303421020508 156.8028564453125" stroke-width="3.0" fill="none" stroke="rgb(0, 0, 0)" stroke-opacity="1.0" stroke-linecap="round" stroke-linejoin="round"/>
    <path d="M 51.771461486816406 170.55123901367188 C 65.97836303710938 201.745849609375 49.47954559326172 174.25833129882812 36.81783676147461 140.5860137939453" stroke-width="3.0" fill="none" stroke="rgb(0, 0, 0)" stroke-opacity="1.0" stroke-linecap="round" stroke-linejoin="round"/>
    <path d="M 80.8536605834961 54.00506591796875 C 54.2400016784668 57.6397819519043 64.10096740722656 70.6678695678711 39.88271713256836 112.4049301147461" stroke-width="3.0" fill="none" stroke="rgb(0, 0, 0)" stroke-opacity="1.0" stroke-linecap="round" stroke-linejoin="round"/>
    <path d="M 157.0773468017578 140.18472290039062 C 100.25670623779297 152.50009155273438 71.55770111083984 152.60623168945312 144.5490264892578 146.89498901367188" stroke-width="3.0" fill="none" stroke="rgb(0, 0, 0)" stroke-opacity="1.0" stroke-linecap="round" stroke-linejoin="round"/>
    <path d="M 151.35049438476562 24.63999366760254 C 144.19935607910156 32.595645904541016 138.37039184570312 15.423927307128906 137.77963256835938 80.02763366699219" stroke-width="3.0" fill="none" stroke="rgb(0, 0, 0)" stroke-opacity="1.0" stroke-linecap="round" stroke-linejoin="round"/>
    <path d="M 146.8709716796875 101.37647247314453 C 133.44363403320312 116.31053161621094 126.44869995117188 106.28397369384766 117.12261962890625 96.3582534790039" stroke-width="3.0" fill="none" stroke="rgb(0, 0, 0)" stroke-opacity="1.0" stroke-linecap="round" stroke-linejoin="round"/>
    <path d="M 138.4325408935547 63.419368743896484 C 144.54254150390625 52.59999084472656 130.68019104003906 73.74439239501953 136.53347778320312 78.22154235839844" stroke-width="3.0" fill="none" stroke="rgb(0, 0, 0)" stroke-opacity="1.0" stroke-linecap="round" stroke-linejoin="round"/>
    <path d="M 139.097900390625 166.20974731445312 C 130.42025756835938 169.32394409179688 145.8050994873047 162.20648193359375 145.475341796875 145.25973510742188" stroke-width="3.0" fill="none" stroke="rgb(0, 0, 0)" stroke-opacity="1.0" stroke-linecap="round" stroke-linejoin="round"/>
    <path d="M 193.71804809570312 94.60356140136719 C 164.91342163085938 66.34900665283203 174.7294921875 69.77764129638672 187.46484375 98.30980682373047" stroke-width="3.0" fill="none" stroke="rgb(0, 0, 0)" stroke-opacity="1.0" stroke-linecap="round" stroke-linejoin="round"/>
    <path d="M 150.92715454101562 76.89656829833984 C 120.52159118652344 54.33156967163086 211.3257293701172 87.37374114990234 173.54823303222656 66.27691650390625" stroke-width="3.0" fill="none" stroke="rgb(0, 0, 0)" stroke-opacity="1.0" stroke-linecap="round" stroke-linejoin="round"/>
    <path d="M 117.00200653076172 80.70365142822266 C 85.50533294677734 71.57003784179688 140.3479461669922 74.29773712158203 107.42533111572266 81.18830108642578" stroke-width="3.0" fill="none" stroke="rgb(0, 0, 0)" stroke-opacity="1.0" stroke-linecap="round" stroke-linejoin="round"/>
    <path d="M 168.6473846435547 129.33358764648438 C 152.45706176757812 158.12351989746094 97.79635620117188 143.9313507080078 90.86087036132812 145.78712463378906" stroke-width="3.0" fill="none" stroke="rgb(0, 0, 0)" stroke-opacity="1.0" stroke-linecap="round" stroke-linejoin="round"/>
    <path d="M 121.98661804199219 91.83281707763672 C 143.47640991210938 99.94298553466797 131.72203063964844 71.82499694824219 126.92091369628906 108.16357421875" stroke-width="3.0" fill="none" stroke="rgb(0, 0, 0)" stroke-opacity="1.0" stroke-linecap="round" stroke-linejoin="round"/>
    <path d="M 185.11370849609375 112.55194091796875 C 166.7277069091797 89.64622497558594 171.24290466308594 97.384033203125 141.1005859375 83.65252685546875" stroke-width="3.0" fill="none" stroke="rgb(0, 0, 0)" stroke-opacity="1.0" stroke-linecap="round" stroke-linejoin="round"/>
    <path d="M 90.01544952392578 25.513334274291992 C 126.52981567382812 28.923442840576172 88.16536712646484 34.257843017578125 147.90492248535156 29.61753273010254" stroke-width="3.0" fill="none" stroke="rgb(0, 0, 0)" stroke-opacity="1.0" stroke-linecap="round" stroke-linejoin="round"/>
    <path d="M 59.6080436706543 114.95479583740234 C 65.59910583496094 99.85424041748047 48.46994400024414 118.51933288574219 71.43016815185547 137.53114318847656" stroke-width="3.0" fill="none" stroke="rgb(0, 0, 0)" stroke-opacity="1.0" stroke-linecap="round" stroke-linejoin="round"/>
    <path d="M 137.82411193847656 105.79100036621094 C 121.26493072509766 89.3304443359375 128.05174255371094 115.19375610351562 114.19969177246094 87.82086944580078" stroke-width="3.0" fill="none" stroke="rgb(0, 0, 0)" stroke-opacity="1.0" stroke-linecap="round" stroke-linejoin="round"/>
    <path d="M 38.44580841064453 146.69349670410156 C 26.43824005126953 124.05900573730469 37.166751861572266 77.02338409423828 62.89460372924805 63.401817321777344" stroke-width="3.0" fill="none" stroke="rgb(0, 0, 0)" stroke-opacity="1.0" stroke-linecap="round" stroke-linejoin="round"/>
    <path d="M 103.9496841430664 197.24124145507812 C 78.0962905883789 194.4642333984375 70.48150634765625 196.3218231201172 100.72261810302734 196.69114685058594" stroke-width="3.0" fill="none" stroke="rgb(0, 0, 0)" stroke-opacity="1.0" stroke-linecap="round" stroke-linejoin="round"/>
    <path d="M 169.2555389404297 129.7633514404297 C 196.61988830566406 113.33931732177734 190.35458374023438 87.49504089355469 152.24940490722656 87.23648071289062" stroke-width="3.0" fill="none" stroke="rgb(0, 0, 0)" stroke-opacity="1.0" stroke-linecap="round" stroke-linejoin="round"/>
    <path d="M 154.06686401367188 71.32785034179688 C 130.3307647705078 79.74490356445312 166.74172973632812 80.81006622314453 148.70489501953125 70.4976577758789" stroke-width="3.0" fill="none" stroke="rgb(0, 0, 0)" stroke-opacity="1.0" stroke-linecap="round" stroke-linejoin="round"/>
    <path d="M 138.63311767578125 74.27999877929688 C 145.01388549804688 39.25160217285156 197.09657287597656 108.19711303710938 174.853515625 50.838565826416016" stroke-width="3.0" fill="none" stroke="rgb(0, 0, 0)" stroke-opacity="1.0" stroke-linecap="round" stroke-linejoin="round"/>
    <path d="M 153.343994140625 97.50666046142578 C 173.88510131835938 106.58100128173828 179.0590362548828 102.90148162841797 184.6288299560547 123.74156188964844" stroke-width="3.0" fill="none" stroke="rgb(0, 0, 0)" stroke-opacity="1.0" stroke-linecap="round" stroke-linejoin="round"/>
    <path d="M 175.58316040039062 16.52599334716797 C 172.93235778808594 41.574005126953125 171.78262329101562 21.955245971679688 158.60121154785156 36.715396881103516" stroke-width="3.0" fill="none" stroke="rgb(0, 0, 0)" stroke-opacity="1.0" stroke-linecap="round" stroke-linejoin="round"/>
    <path d="M 121.47567749023438 104.43519592285156 C 148.45379638671875 98.93580627441406 127.65473937988281 116.50111389160156 121.78532409667969 104.00648498535156" stroke-width="3.0" fill="none" stroke="rgb(0, 0, 0)" stroke-opacity="1.0" stroke-linecap="round" stroke-linejoin="round"/>
    <path d="M 60.334468841552734 108.55870819091797 C 57.421630859375 104.67842102050781 58.504417419433594 110.81614685058594 63.828712463378906 118.92925262451172" stroke-width="3.0" fill="none" stroke="rgb(0, 0, 0)" stroke-opacity="1.0" stroke-linecap="round" stroke-linejoin="round"/>
    <path d="M 121.39958953857422 72.01496124267578 C 122.53634643554688 46.68684387207031 114.94507598876953 59.816802978515625 121.89169311523438 35.32644271850586" stroke-width="3.0" fill="none" stroke="rgb(0, 0, 0)" stroke-opacity="1.0" stroke-linecap="round" stroke-linejoin="round"/>
    <path d="M 142.3560791015625 31.483823776245117 C 143.9844207763672 38.023345947265625 161.1846160888672 6.686721324920654 180.31361389160156 8.239529609680176" stroke-width="3.0" fill="none" stroke="rgb(0, 0, 0)" stroke-opacity="1.0" stroke-linecap="round" stroke-linejoin="round"/>
  </g>
</svg>
