<?xml version="1.0" ?>
<svg xmlns="http://www.w3.org/2000/svg" version="1.1" width="224" height="224">
  <defs/>
  <g>
    <path d="M 51.26047897338867 117.5596923828125 C 53.7711296081543 118.6373519897461 40.89506912231445 106.77686309814453 39.091949462890625 97.95777130126953" stroke-width="3.0" fill="none" stroke="rgb(0, 0, 0)" stroke-opacity="1.0" stroke-linecap="round" stroke-linejoin="round"/>
    <path d="M 181.88873291015625 125.90685272216797 C 180.2615203857422 115.79009246826172 183.0480499267578 114.4161376953125 185.1896514892578 120.39096069335938" stroke-width="3.0" fill="none" stroke="rgb(0, 0, 0)" stroke-opacity="1.0" stroke-linecap="round" stroke-linejoin="round"/>
    <path d="M 49.6502685546875 116.36790466308594 C 47.39482879638672 112.37220001220703 45.92472839355469 109.8381576538086 54.5439338684082 122.39601135253906" stroke-width="3.0" fill="none" stroke="rgb(0, 0, 0)" stroke-opacity="1.0" stroke-linecap="round" stroke-linejoin="round"/>
    <path d="M 177.65135192871094 98.80707550048828 C 152.5181427001953 92.00300598144531 169.92539978027344 82.67509460449219 194.5814971923828 113.86474609375" stroke-width="3.0" fill="none" stroke="rgb(0, 0, 0)" stroke-opacity="1.0" stroke-linecap="round" stroke-linejoin="round"/>
    <path d="M 183.94552612304688 76.5018310546875 C 180.06459045410156 99.72010803222656 174.1709747314453 91.43651580810547 184.97206115722656 65.29517364501953" stroke-width="3.0" fill="none" stroke="rgb(0, 0, 0)" stroke-opacity="1.0" stroke-linecap="round" stroke-linejoin="round"/>
    <path d="M 133.7590789794922 103.03950500488281 C 150.17123413085938 110.815185546875 106.43707275390625 107.62747192382812 131.76983642578125 109.93267822265625" stroke-width="3.0" fill="none" stroke="rgb(0, 0, 0)" stroke-opacity="1.0" stroke-linecap="round" stroke-linejoin="round"/>
    <path d="M 166.81207275390625 99.9932632446289 C 192.6131591796875 70.85890197753906 182.56764221191406 75.54603576660156 150.89804077148438 89.01809692382812" stroke-width="3.0" fill="none" stroke="rgb(0, 0, 0)" stroke-opacity="1.0" stroke-linecap="round" stroke-linejoin="round"/>
    <path d="M 51.165592193603516 180.2943572998047 C 34.771697998046875 150.18975830078125 46.298465728759766 161.8733673095703 40.92288589477539 155.3382568359375" stroke-width="3.0" fill="none" stroke="rgb(0, 0, 0)" stroke-opacity="1.0" stroke-linecap="round" stroke-linejoin="round"/>
    <path d="M 65.8358154296875 191.2055206298828 C 80.82359313964844 205.24267578125 108.49633026123047 195.43118286132812 111.23788452148438 194.3422393798828" stroke-width="3.0" fill="none" stroke="rgb(0, 0, 0)" stroke-opacity="1.0" stroke-linecap="round" stroke-linejoin="round"/>
    <path d="M 87.83580780029297 27.92357635498047 C 85.55890655517578 60.439388275146484 86.73042297363281 15.937681198120117 86.74064636230469 39.594024658203125" stroke-width="3.0" fill="none" stroke="rgb(0, 0, 0)" stroke-opacity="1.0" stroke-linecap="round" stroke-linejoin="round"/>
    <path d="M 56.967315673828125 127.13947296142578 C 65.14860534667969 143.000732421875 89.37014770507812 149.53195190429688 94.51477813720703 146.4763946533203" stroke-width="3.0" fill="none" stroke="rgb(0, 0, 0)" stroke-opacity="1.0" stroke-linecap="round" stroke-linejoin="round"/>
    <path d="M 150.21566772460938 69.85809326171875 C 205.280517578125 76.32194519042969 182.37579345703125 83.69283294677734 146.28933715820312 86.3763198852539" stroke-width="3.0" fill="none" stroke="rgb(0, 0, 0)" stroke-opacity="1.0" stroke-linecap="round" stroke-linejoin="round"/>
    <path d="M 146.3902130126953 98.69559478759766 C 175.1422576904297 100.97307586669922 172.33413696289062 101.28775024414062 187.00807189941406 109.43346405029297" stroke-width="3.0" fill="none" stroke="rgb(0, 0, 0)" stroke-opacity="1.0" stroke-linecap="round" stroke-linejoin="round"/>
    <path d="M 99.20822143554688 154.14797973632812 C 127.8105697631836 152.64756774902344 112.54645538330078 185.83938598632812 113.99678802490234 181.82179260253906" stroke-width="3.0" fill="none" stroke="rgb(0, 0, 0)" stroke-opacity="1.0" stroke-linecap="round" stroke-linejoin="round"/>
    <path d="M 172.52392578125 10.010602951049805 C 193.55572509765625 -2.3299758434295654 172.6083984375 51.959774017333984 184.02301025390625 61.60078430175781" stroke-width="3.0" fill="none" stroke="rgb(0, 0, 0)" stroke-opacity="1.0" stroke-linecap="round" stroke-linejoin="round"/>
    <path d="M 128.95672607421875 31.417715072631836 C 127.19602966308594 55.24541091918945 136.00486755371094 41.00703811645508 133.13900756835938 67.26904296875" stroke-width="3.0" fill="none" stroke="rgb(0, 0, 0)" stroke-opacity="1.0" stroke-linecap="round" stroke-linejoin="round"/>
    <path d="M 90.41255187988281 39.680564880371094 C 74.21582794189453 -0.6795662641525269 84.138427734375 4.894508361816406 102.72957611083984 34.68119812011719" stroke-width="3.0" fill="none" stroke="rgb(0, 0, 0)" stroke-opacity="1.0" stroke-linecap="round" stroke-linejoin="round"/>
    <path d="M 43.824405670166016 161.87998962402344 C 41.90628433227539 151.68252563476562 38.694183349609375 151.42681884765625 41.88163757324219 153.6099090576172" stroke-width="3.0" fill="none" stroke="rgb(0, 0, 0)" stroke-opacity="1.0" stroke-linecap="round" stroke-linejoin="round"/>
    <path d="M 32.044036865234375 108.64390563964844 C 26.198863983154297 126.79802703857422 37.753257751464844 141.5482940673828 41.92485046386719 155.49188232421875" stroke-width="3.0" fill="none" stroke="rgb(0, 0, 0)" stroke-opacity="1.0" stroke-linecap="round" stroke-linejoin="round"/>
    <path d="M 84.27758026123047 147.22618103027344 C 99.58878326416016 155.17681884765625 103.7197036743164 151.94171142578125 97.91442108154297 151.87245178222656" stroke-width="3.0" fill="none" stroke="rgb(0, 0, 0)" stroke-opacity="1.0" stroke-linecap="round" stroke-linejoin="round"/>
    <path d="M 74.39303588867188 196.85781860351562 C 48.241424560546875 181.139404296875 60.447792053222656 183.58396911621094 46.97500991821289 171.80628967285156" stroke-width="3.0" fill="none" stroke="rgb(0, 0, 0)" stroke-opacity="1.0" stroke-linecap="round" stroke-linejoin="round"/>
    <path d="M 43.09010314941406 162.90621948242188 C 57.59514617919922 184.74603271484375 41.82796859741211 161.56459045410156 40.73039627075195 147.22552490234375" stroke-width="3.0" fill="none" stroke="rgb(0, 0, 0)" stroke-opacity="1.0" stroke-linecap="round" stroke-linejoin="round"/>
    <path d="M 83.80952453613281 57.76744079589844 C 61.4034538269043 57.96029281616211 44.71458435058594 76.07960510253906 32.1836051940918 107.8957290649414" stroke-width="3.0" fill="none" stroke="rgb(0, 0, 0)" stroke-opacity="1.0" stroke-linecap="round" stroke-linejoin="round"/>
    <path d="M 148.2139892578125 142.6436767578125 C 142.1820068359375 163.83485412597656 120.85255432128906 152.74266052246094 133.0914764404297 161.48309326171875" stroke-width="3.0" fill="none" stroke="rgb(0, 0, 0)" stroke-opacity="1.0" stroke-linecap="round" stroke-linejoin="round"/>
    <path d="M 139.60581970214844 31.350421905517578 C 148.2288055419922 64.50088500976562 134.8223876953125 52.388214111328125 138.9462127685547 81.01171875" stroke-width="3.0" fill="none" stroke="rgb(0, 0, 0)" stroke-opacity="1.0" stroke-linecap="round" stroke-linejoin="round"/>
    <path d="M 144.8927001953125 102.6683120727539 C 116.64230346679688 105.93589782714844 108.77684783935547 101.98617553710938 128.11509704589844 109.8344497680664" stroke-width="3.0" fill="none" stroke="rgb(0, 0, 0)" stroke-opacity="1.0" stroke-linecap="round" stroke-linejoin="round"/>
    <path d="M 138.9724884033203 74.59515380859375 C 150.56875610351562 54.29611587524414 147.67507934570312 55.61345291137695 137.0978240966797 71.34545135498047" stroke-width="3.0" fill="none" stroke="rgb(0, 0, 0)" stroke-opacity="1.0" stroke-linecap="round" stroke-linejoin="round"/>
    <path d="M 122.46187591552734 186.05433654785156 C 92.82312774658203 200.2635498046875 126.26631164550781 200.6026153564453 139.9103240966797 158.81544494628906" stroke-width="3.0" fill="none" stroke="rgb(0, 0, 0)" stroke-opacity="1.0" stroke-linecap="round" stroke-linejoin="round"/>
    <path d="M 195.39910888671875 94.64590454101562 C 160.3492431640625 69.5336685180664 135.00685119628906 98.13512420654297 182.723876953125 86.43110656738281" stroke-width="3.0" fill="none" stroke="rgb(0, 0, 0)" stroke-opacity="1.0" stroke-linecap="round" stroke-linejoin="round"/>
    <path d="M 161.62037658691406 74.34119415283203 C 187.3984375 66.01368713378906 192.01092529296875 78.597412109375 170.128662109375 72.8514175415039" stroke-width="3.0" fill="none" stroke="rgb(0, 0, 0)" stroke-opacity="1.0" stroke-linecap="round" stroke-linejoin="round"/>
    <path d="M 111.21530151367188 83.84957885742188 C 79.39999389648438 73.61257934570312 138.42864990234375 75.1971664428711 107.36870574951172 81.69519805908203" stroke-width="3.0" fill="none" stroke="rgb(0, 0, 0)" stroke-opacity="1.0" stroke-linecap="round" stroke-linejoin="round"/>
    <path d="M 141.18551635742188 156.60659790039062 C 131.2769012451172 160.18601989746094 123.91520690917969 161.31854248046875 110.05916595458984 144.18577575683594" stroke-width="3.0" fill="none" stroke="rgb(0, 0, 0)" stroke-opacity="1.0" stroke-linecap="round" stroke-linejoin="round"/>
    <path d="M 124.7098159790039 89.4699935913086 C 140.03890991210938 102.7992172241211 131.5732421875 75.78575897216797 127.8614730834961 102.55924987792969" stroke-width="3.0" fill="none" stroke="rgb(0, 0, 0)" stroke-opacity="1.0" stroke-linecap="round" stroke-linejoin="round"/>
    <path d="M 188.7904052734375 106.16181182861328 C 179.26559448242188 85.2620620727539 183.36407470703125 96.63693237304688 140.35293579101562 86.72615814208984" stroke-width="3.0" fill="none" stroke="rgb(0, 0, 0)" stroke-opacity="1.0" stroke-linecap="round" stroke-linejoin="round"/>
    <path d="M 85.11356353759766 10.692485809326172 C 112.61331176757812 19.600196838378906 118.33993530273438 34.258544921875 122.54341125488281 31.01128578186035" stroke-width="3.0" fill="none" stroke="rgb(0, 0, 0)" stroke-opacity="1.0" stroke-linecap="round" stroke-linejoin="round"/>
    <path d="M 50.61152267456055 117.61302185058594 C 46.83418273925781 109.6311264038086 55.757667541503906 123.11365509033203 52.92203140258789 121.35188293457031" stroke-width="3.0" fill="none" stroke="rgb(0, 0, 0)" stroke-opacity="1.0" stroke-linecap="round" stroke-linejoin="round"/>
    <path d="M 112.9805679321289 102.62236022949219 C 100.23832702636719 86.16360473632812 114.12207794189453 109.24386596679688 103.51984405517578 89.63123321533203" stroke-width="3.0" fill="none" stroke="rgb(0, 0, 0)" stroke-opacity="1.0" stroke-linecap="round" stroke-linejoin="round"/>
    <path d="M 31.21103858947754 126.75691986083984 C 28.14826202392578 105.1876220703125 34.96491622924805 103.20765686035156 30.11179542541504 116.41123962402344" stroke-width="3.0" fill="none" stroke="rgb(0, 0, 0)" stroke-opacity="1.0" stroke-linecap="round" stroke-linejoin="round"/>
    <path d="M 87.11430358886719 199.0205078125 C 73.3092269897461 195.50697326660156 70.40962982177734 197.3893585205078 93.86949920654297 199.23667907714844" stroke-width="3.0" fill="none" stroke="rgb(0, 0, 0)" stroke-opacity="1.0" stroke-linecap="round" stroke-linejoin="round"/>
    <path d="M 146.1437530517578 146.34117126464844 C 209.501220703125 112.09659576416016 178.52291870117188 101.0818862915039 150.40219116210938 93.26681518554688" stroke-width="3.0" fill="none" stroke="rgb(0, 0, 0)" stroke-opacity="1.0" stroke-linecap="round" stroke-linejoin="round"/>
    <path d="M 154.3616943359375 75.14430236816406 C 122.40508270263672 78.12882995605469 178.251708984375 83.68936920166016 150.23867797851562 68.80117797851562" stroke-width="3.0" fill="none" stroke="rgb(0, 0, 0)" stroke-opacity="1.0" stroke-linecap="round" stroke-linejoin="round"/>
    <path d="M 145.46240234375 74.69933319091797 C 152.71392822265625 47.96607971191406 187.58956909179688 99.79535675048828 182.68280029296875 53.439571380615234" stroke-width="3.0" fill="none" stroke="rgb(0, 0, 0)" stroke-opacity="1.0" stroke-linecap="round" stroke-linejoin="round"/>
    <path d="M 149.97198486328125 98.41639709472656 C 161.78903198242188 101.04778289794922 172.608642578125 108.71940612792969 184.87783813476562 118.7520980834961" stroke-width="3.0" fill="none" stroke="rgb(0, 0, 0)" stroke-opacity="1.0" stroke-linecap="round" stroke-linejoin="round"/>
    <path d="M 177.2753448486328 15.515401840209961 C 172.06610107421875 42.16864776611328 173.12388610839844 20.697458267211914 159.8654022216797 36.402339935302734" stroke-width="3.0" fill="none" stroke="rgb(0, 0, 0)" stroke-opacity="1.0" stroke-linecap="round" stroke-linejoin="round"/>
    <path d="M 131.568359375 104.07864379882812 C 143.99151611328125 101.38005828857422 121.91724395751953 112.47373962402344 105.21807098388672 98.82899475097656" stroke-width="3.0" fill="none" stroke="rgb(0, 0, 0)" stroke-opacity="1.0" stroke-linecap="round" stroke-linejoin="round"/>
    <path d="M 51.64091491699219 117.6905746459961 C 52.349693298339844 116.24652099609375 44.91727066040039 109.6747817993164 59.52532196044922 130.53675842285156" stroke-width="3.0" fill="none" stroke="rgb(0, 0, 0)" stroke-opacity="1.0" stroke-linecap="round" stroke-linejoin="round"/>
    <path d="M 123.2852554321289 75.08363342285156 C 127.51797485351562 57.407745361328125 116.69709014892578 53.202640533447266 122.11067199707031 32.72329330444336" stroke-width="3.0" fill="none" stroke="rgb(0, 0, 0)" stroke-opacity="1.0" stroke-linecap="round" stroke-linejoin="round"/>
    <path d="M 145.13681030273438 29.553176879882812 C 143.70252990722656 40.06237030029297 150.8458251953125 16.396610260009766 174.38681030273438 8.67025375366211" stroke-width="3.0" fill="none" stroke="rgb(0, 0, 0)" stroke-opacity="1.0" stroke-linecap="round" stroke-linejoin="round"/>
  </g>
</svg>
