<?xml version="1.0" ?>
<svg xmlns="http://www.w3.org/2000/svg" version="1.1" width="224" height="224">
  <defs/>
  <g>
    <path d="M 56.73482131958008 105.51343536376953 C 53.23719024658203 112.622802734375 57.13230895996094 102.14530944824219 46.164859771728516 82.5125961303711" stroke-width="3.0" fill="none" stroke="rgb(0, 0, 0)" stroke-opacity="1.0" stroke-linecap="round" stroke-linejoin="round"/>
    <path d="M 186.3402862548828 122.67936706542969 C 183.36732482910156 101.74101257324219 190.56661987304688 104.87307739257812 180.40708923339844 128.19171142578125" stroke-width="3.0" fill="none" stroke="rgb(0, 0, 0)" stroke-opacity="1.0" stroke-linecap="round" stroke-linejoin="round"/>
    <path d="M 58.593563079833984 115.8664779663086 C 56.390480041503906 114.50477600097656 54.97527313232422 118.76193237304688 57.69305419921875 123.72200775146484" stroke-width="3.0" fill="none" stroke="rgb(0, 0, 0)" stroke-opacity="1.0" stroke-linecap="round" stroke-linejoin="round"/>
    <path d="M 179.25143432617188 93.36646270751953 C 155.7863311767578 85.71358489990234 175.2215576171875 82.11625671386719 196.77880859375 113.28462219238281" stroke-width="3.0" fill="none" stroke="rgb(0, 0, 0)" stroke-opacity="1.0" stroke-linecap="round" stroke-linejoin="round"/>
    <path d="M 181.1717529296875 71.57539367675781 C 174.833251953125 97.0213623046875 184.01113891601562 92.68881225585938 181.3590850830078 59.680023193359375" stroke-width="3.0" fill="none" stroke="rgb(0, 0, 0)" stroke-opacity="1.0" stroke-linecap="round" stroke-linejoin="round"/>
    <path d="M 122.8208236694336 101.22248077392578 C 149.57257080078125 102.95481872558594 107.41389465332031 98.76518249511719 139.16201782226562 101.51952362060547" stroke-width="3.0" fill="none" stroke="rgb(0, 0, 0)" stroke-opacity="1.0" stroke-linecap="round" stroke-linejoin="round"/>
    <path d="M 167.35752868652344 99.81034088134766 C 201.7649688720703 83.1287841796875 182.34707641601562 70.42322540283203 154.2049102783203 86.7561264038086" stroke-width="3.0" fill="none" stroke="rgb(0, 0, 0)" stroke-opacity="1.0" stroke-linecap="round" stroke-linejoin="round"/>
    <path d="M 56.854087829589844 182.5882110595703 C 38.46369171142578 155.0603790283203 45.493934631347656 164.7061004638672 48.36840057373047 170.86680603027344" stroke-width="3.0" fill="none" stroke="rgb(0, 0, 0)" stroke-opacity="1.0" stroke-linecap="round" stroke-linejoin="round"/>
    <path d="M 58.54212951660156 182.02969360351562 C 91.59942626953125 210.26588439941406 107.5738296508789 198.50006103515625 132.49945068359375 180.133544921875" stroke-width="3.0" fill="none" stroke="rgb(0, 0, 0)" stroke-opacity="1.0" stroke-linecap="round" stroke-linejoin="round"/>
    <path d="M 85.90843200683594 31.964475631713867 C 96.33499145507812 63.36161422729492 80.2669448852539 18.164752960205078 85.14736938476562 52.82951736450195" stroke-width="3.0" fill="none" stroke="rgb(0, 0, 0)" stroke-opacity="1.0" stroke-linecap="round" stroke-linejoin="round"/>
    <path d="M 59.115421295166016 123.86471557617188 C 50.86377716064453 133.91043090820312 106.19935607910156 150.22018432617188 96.2743148803711 153.9391632080078" stroke-width="3.0" fill="none" stroke="rgb(0, 0, 0)" stroke-opacity="1.0" stroke-linecap="round" stroke-linejoin="round"/>
    <path d="M 143.61756896972656 72.32109832763672 C 209.79461669921875 68.95695495605469 187.57168579101562 81.77493286132812 145.8905792236328 85.78592681884766" stroke-width="3.0" fill="none" stroke="rgb(0, 0, 0)" stroke-opacity="1.0" stroke-linecap="round" stroke-linejoin="round"/>
    <path d="M 150.29629516601562 96.1044921875 C 184.88177490234375 99.92219543457031 177.1134033203125 97.2406997680664 187.6285858154297 112.84223175048828" stroke-width="3.0" fill="none" stroke="rgb(0, 0, 0)" stroke-opacity="1.0" stroke-linecap="round" stroke-linejoin="round"/>
    <path d="M 115.51505279541016 158.84901428222656 C 145.0805206298828 145.97784423828125 115.87952423095703 158.67169189453125 126.32957458496094 152.89096069335938" stroke-width="3.0" fill="none" stroke="rgb(0, 0, 0)" stroke-opacity="1.0" stroke-linecap="round" stroke-linejoin="round"/>
    <path d="M 176.83551025390625 8.661194801330566 C 190.39437866210938 3.7511086463928223 172.7466278076172 59.54553985595703 179.37254333496094 52.954490661621094" stroke-width="3.0" fill="none" stroke="rgb(0, 0, 0)" stroke-opacity="1.0" stroke-linecap="round" stroke-linejoin="round"/>
    <path d="M 133.65713500976562 31.52480125427246 C 125.78536987304688 56.975379943847656 133.24671936035156 36.010826110839844 125.5440673828125 70.27182006835938" stroke-width="3.0" fill="none" stroke="rgb(0, 0, 0)" stroke-opacity="1.0" stroke-linecap="round" stroke-linejoin="round"/>
    <path d="M 86.36196899414062 46.903175354003906 C 76.3948745727539 -6.460424900054932 83.06798553466797 2.3431379795074463 113.13265991210938 30.804763793945312" stroke-width="3.0" fill="none" stroke="rgb(0, 0, 0)" stroke-opacity="1.0" stroke-linecap="round" stroke-linejoin="round"/>
    <path d="M 44.623531341552734 164.77133178710938 C 39.92308044433594 153.7198486328125 36.1776123046875 147.2723388671875 41.00714874267578 155.26150512695312" stroke-width="3.0" fill="none" stroke="rgb(0, 0, 0)" stroke-opacity="1.0" stroke-linecap="round" stroke-linejoin="round"/>
    <path d="M 34.253990173339844 100.86964416503906 C 23.936159133911133 125.68145751953125 36.066162109375 144.6439666748047 42.48158645629883 156.3382110595703" stroke-width="3.0" fill="none" stroke="rgb(0, 0, 0)" stroke-opacity="1.0" stroke-linecap="round" stroke-linejoin="round"/>
    <path d="M 84.29881286621094 145.32656860351562 C 106.88542938232422 160.85598754882812 124.92329406738281 144.14920043945312 110.91087341308594 161.1131134033203" stroke-width="3.0" fill="none" stroke="rgb(0, 0, 0)" stroke-opacity="1.0" stroke-linecap="round" stroke-linejoin="round"/>
    <path d="M 79.63911437988281 196.2159423828125 C 63.00801086425781 194.41665649414062 53.8994026184082 181.25965881347656 49.9284553527832 173.92132568359375" stroke-width="3.0" fill="none" stroke="rgb(0, 0, 0)" stroke-opacity="1.0" stroke-linecap="round" stroke-linejoin="round"/>
    <path d="M 44.85749435424805 164.21920776367188 C 58.85699462890625 194.62701416015625 44.95259475708008 163.1390838623047 40.10811233520508 153.64608764648438" stroke-width="3.0" fill="none" stroke="rgb(0, 0, 0)" stroke-opacity="1.0" stroke-linecap="round" stroke-linejoin="round"/>
    <path d="M 81.10943603515625 56.597251892089844 C 55.86842346191406 60.47822189331055 50.7513542175293 72.52413177490234 31.713157653808594 106.40480041503906" stroke-width="3.0" fill="none" stroke="rgb(0, 0, 0)" stroke-opacity="1.0" stroke-linecap="round" stroke-linejoin="round"/>
    <path d="M 154.5790252685547 140.1338348388672 C 139.38534545898438 160.28237915039062 119.23406982421875 149.1064453125 130.08485412597656 152.29466247558594" stroke-width="3.0" fill="none" stroke="rgb(0, 0, 0)" stroke-opacity="1.0" stroke-linecap="round" stroke-linejoin="round"/>
    <path d="M 141.21290588378906 31.354427337646484 C 148.54611206054688 67.5822525024414 133.09890747070312 54.344024658203125 136.47781372070312 74.3984375" stroke-width="3.0" fill="none" stroke="rgb(0, 0, 0)" stroke-opacity="1.0" stroke-linecap="round" stroke-linejoin="round"/>
    <path d="M 146.4099578857422 96.8952865600586 C 117.49696350097656 109.37049102783203 131.89614868164062 110.26528930664062 140.27001953125 101.55711364746094" stroke-width="3.0" fill="none" stroke="rgb(0, 0, 0)" stroke-opacity="1.0" stroke-linecap="round" stroke-linejoin="round"/>
    <path d="M 136.69146728515625 72.41170501708984 C 144.41134643554688 57.334293365478516 135.74362182617188 65.02978515625 138.30487060546875 66.52020263671875" stroke-width="3.0" fill="none" stroke="rgb(0, 0, 0)" stroke-opacity="1.0" stroke-linecap="round" stroke-linejoin="round"/>
    <path d="M 136.07997131347656 175.79043579101562 C 120.82621765136719 186.05645751953125 138.71409606933594 182.94039916992188 147.5540771484375 147.39114379882812" stroke-width="3.0" fill="none" stroke="rgb(0, 0, 0)" stroke-opacity="1.0" stroke-linecap="round" stroke-linejoin="round"/>
    <path d="M 192.5524139404297 96.0110855102539 C 167.05296325683594 74.62007141113281 151.0963134765625 81.19397735595703 185.27920532226562 84.38158416748047" stroke-width="3.0" fill="none" stroke="rgb(0, 0, 0)" stroke-opacity="1.0" stroke-linecap="round" stroke-linejoin="round"/>
    <path d="M 147.19117736816406 77.66968536376953 C 164.23158264160156 63.96445846557617 202.2972412109375 76.43022918701172 178.24024963378906 65.14353942871094" stroke-width="3.0" fill="none" stroke="rgb(0, 0, 0)" stroke-opacity="1.0" stroke-linecap="round" stroke-linejoin="round"/>
    <path d="M 111.4494400024414 81.23770141601562 C 87.30225372314453 68.68265533447266 132.30355834960938 74.47736358642578 110.99056243896484 77.6181640625" stroke-width="3.0" fill="none" stroke="rgb(0, 0, 0)" stroke-opacity="1.0" stroke-linecap="round" stroke-linejoin="round"/>
    <path d="M 151.918701171875 145.125244140625 C 127.54550170898438 162.73358154296875 115.51216888427734 150.5557403564453 101.5331039428711 154.57760620117188" stroke-width="3.0" fill="none" stroke="rgb(0, 0, 0)" stroke-opacity="1.0" stroke-linecap="round" stroke-linejoin="round"/>
    <path d="M 124.4307632446289 89.41560363769531 C 140.0406494140625 100.5076904296875 133.12461853027344 71.72271728515625 129.44378662109375 104.4940414428711" stroke-width="3.0" fill="none" stroke="rgb(0, 0, 0)" stroke-opacity="1.0" stroke-linecap="round" stroke-linejoin="round"/>
    <path d="M 188.959716796875 111.79685974121094 C 176.88514709472656 74.47657775878906 180.91958618164062 94.933349609375 139.53866577148438 84.7032699584961" stroke-width="3.0" fill="none" stroke="rgb(0, 0, 0)" stroke-opacity="1.0" stroke-linecap="round" stroke-linejoin="round"/>
    <path d="M 86.31029510498047 9.450709342956543 C 107.00578308105469 14.587661743164062 111.580810546875 34.084285736083984 122.41371154785156 31.73334503173828" stroke-width="3.0" fill="none" stroke="rgb(0, 0, 0)" stroke-opacity="1.0" stroke-linecap="round" stroke-linejoin="round"/>
    <path d="M 57.16424560546875 125.20138549804688 C 52.57243728637695 113.48458862304688 66.62071228027344 127.22804260253906 57.207115173339844 121.39024353027344" stroke-width="3.0" fill="none" stroke="rgb(0, 0, 0)" stroke-opacity="1.0" stroke-linecap="round" stroke-linejoin="round"/>
    <path d="M 132.34495544433594 103.51750183105469 C 120.28888702392578 90.10124969482422 117.59705352783203 113.40171813964844 110.2491683959961 89.74774169921875" stroke-width="3.0" fill="none" stroke="rgb(0, 0, 0)" stroke-opacity="1.0" stroke-linecap="round" stroke-linejoin="round"/>
    <path d="M 31.277421951293945 132.71311950683594 C 26.87972068786621 116.27365112304688 34.92729568481445 99.5462417602539 31.38950538635254 108.16472625732422" stroke-width="3.0" fill="none" stroke="rgb(0, 0, 0)" stroke-opacity="1.0" stroke-linecap="round" stroke-linejoin="round"/>
    <path d="M 79.46902465820312 196.12901306152344 C 71.9067153930664 195.373779296875 70.02305603027344 193.2539825439453 92.30931091308594 199.64418029785156" stroke-width="3.0" fill="none" stroke="rgb(0, 0, 0)" stroke-opacity="1.0" stroke-linecap="round" stroke-linejoin="round"/>
    <path d="M 153.30038452148438 143.1884002685547 C 207.8442840576172 111.00506591796875 182.71981811523438 92.98368072509766 152.08834838867188 90.50343322753906" stroke-width="3.0" fill="none" stroke="rgb(0, 0, 0)" stroke-opacity="1.0" stroke-linecap="round" stroke-linejoin="round"/>
    <path d="M 156.91542053222656 68.93923950195312 C 124.7166976928711 79.0811767578125 171.82208251953125 86.13496398925781 147.6419219970703 70.08740997314453" stroke-width="3.0" fill="none" stroke="rgb(0, 0, 0)" stroke-opacity="1.0" stroke-linecap="round" stroke-linejoin="round"/>
    <path d="M 139.18051147460938 78.95267486572266 C 146.66165161132812 44.22500991821289 194.006103515625 106.8731918334961 176.02198791503906 47.71696472167969" stroke-width="3.0" fill="none" stroke="rgb(0, 0, 0)" stroke-opacity="1.0" stroke-linecap="round" stroke-linejoin="round"/>
    <path d="M 158.48777770996094 96.32426452636719 C 164.9053497314453 103.23313903808594 180.74899291992188 101.92069244384766 186.1440887451172 112.54956817626953" stroke-width="3.0" fill="none" stroke="rgb(0, 0, 0)" stroke-opacity="1.0" stroke-linecap="round" stroke-linejoin="round"/>
    <path d="M 178.30477905273438 15.347458839416504 C 169.5784149169922 43.14543151855469 175.9313507080078 22.279232025146484 162.7031707763672 36.834537506103516" stroke-width="3.0" fill="none" stroke="rgb(0, 0, 0)" stroke-opacity="1.0" stroke-linecap="round" stroke-linejoin="round"/>
    <path d="M 117.76720428466797 101.11688232421875 C 141.5061492919922 104.38630676269531 128.87847900390625 114.99053192138672 114.165771484375 97.83960723876953" stroke-width="3.0" fill="none" stroke="rgb(0, 0, 0)" stroke-opacity="1.0" stroke-linecap="round" stroke-linejoin="round"/>
    <path d="M 56.93675994873047 124.31002807617188 C 55.215431213378906 102.30238342285156 51.339515686035156 110.28055572509766 59.77119827270508 127.63058471679688" stroke-width="3.0" fill="none" stroke="rgb(0, 0, 0)" stroke-opacity="1.0" stroke-linecap="round" stroke-linejoin="round"/>
    <path d="M 126.88491821289062 77.36819458007812 C 130.4793701171875 37.73429489135742 119.0606918334961 49.172794342041016 127.71964263916016 30.372730255126953" stroke-width="3.0" fill="none" stroke="rgb(0, 0, 0)" stroke-opacity="1.0" stroke-linecap="round" stroke-linejoin="round"/>
    <path d="M 147.7610626220703 30.87140464782715 C 145.0209197998047 37.16642379760742 157.32933044433594 11.818460464477539 177.5106201171875 8.630599975585938" stroke-width="3.0" fill="none" stroke="rgb(0, 0, 0)" stroke-opacity="1.0" stroke-linecap="round" stroke-linejoin="round"/>
  </g>
</svg>
