<?xml version="1.0" ?>
<svg xmlns="http://www.w3.org/2000/svg" version="1.1" width="224" height="224">
  <defs/>
  <g>
    <path d="M 56.84452438354492 119.94668579101562 C 59.3461799621582 118.45999908447266 47.947147369384766 111.57781219482422 44.173946380615234 94.67460632324219" stroke-width="3.0" fill="none" stroke="rgb(0, 0, 0)" stroke-opacity="1.0" stroke-linecap="round" stroke-linejoin="round"/>
    <path d="M 181.94131469726562 126.57887268066406 C 186.7293701171875 108.56397247314453 182.38973999023438 112.50316619873047 187.2300262451172 122.2773666381836" stroke-width="3.0" fill="none" stroke="rgb(0, 0, 0)" stroke-opacity="1.0" stroke-linecap="round" stroke-linejoin="round"/>
    <path d="M 48.31821060180664 105.63304901123047 C 51.63485336303711 112.62310028076172 47.019378662109375 105.60621643066406 50.05229949951172 108.40476989746094" stroke-width="3.0" fill="none" stroke="rgb(0, 0, 0)" stroke-opacity="1.0" stroke-linecap="round" stroke-linejoin="round"/>
    <path d="M 182.4376220703125 98.94012451171875 C 158.252197265625 91.41370391845703 172.14695739746094 81.12826538085938 195.54107666015625 112.57445526123047" stroke-width="3.0" fill="none" stroke="rgb(0, 0, 0)" stroke-opacity="1.0" stroke-linecap="round" stroke-linejoin="round"/>
    <path d="M 184.75796508789062 71.40447235107422 C 182.0154266357422 79.05867004394531 175.06251525878906 77.02886199951172 185.74998474121094 66.59422302246094" stroke-width="3.0" fill="none" stroke="rgb(0, 0, 0)" stroke-opacity="1.0" stroke-linecap="round" stroke-linejoin="round"/>
    <path d="M 129.50030517578125 99.42771911621094 C 129.37014770507812 111.49304962158203 116.6446762084961 100.75170135498047 135.08877563476562 103.7677230834961" stroke-width="3.0" fill="none" stroke="rgb(0, 0, 0)" stroke-opacity="1.0" stroke-linecap="round" stroke-linejoin="round"/>
    <path d="M 175.44607543945312 85.2403335571289 C 199.94786071777344 63.08718490600586 187.1708984375 67.57007598876953 159.959228515625 86.63746643066406" stroke-width="3.0" fill="none" stroke="rgb(0, 0, 0)" stroke-opacity="1.0" stroke-linecap="round" stroke-linejoin="round"/>
    <path d="M 57.5145263671875 183.6183624267578 C 37.36098861694336 152.10113525390625 45.04065704345703 163.41566467285156 42.34439468383789 159.216796875" stroke-width="3.0" fill="none" stroke="rgb(0, 0, 0)" stroke-opacity="1.0" stroke-linecap="round" stroke-linejoin="round"/>
    <path d="M 68.07300567626953 189.4599151611328 C 92.33832550048828 197.88580322265625 115.08418273925781 195.77532958984375 105.9884262084961 191.15061950683594" stroke-width="3.0" fill="none" stroke="rgb(0, 0, 0)" stroke-opacity="1.0" stroke-linecap="round" stroke-linejoin="round"/>
    <path d="M 91.5906753540039 21.515544891357422 C 93.53014373779297 55.725486755371094 93.95254516601562 28.200532913208008 92.84022521972656 54.33441162109375" stroke-width="3.0" fill="none" stroke="rgb(0, 0, 0)" stroke-opacity="1.0" stroke-linecap="round" stroke-linejoin="round"/>
    <path d="M 60.5522346496582 126.54582214355469 C 70.55239868164062 141.31776428222656 79.79366302490234 147.47203063964844 83.0443115234375 149.3543701171875" stroke-width="3.0" fill="none" stroke="rgb(0, 0, 0)" stroke-opacity="1.0" stroke-linecap="round" stroke-linejoin="round"/>
    <path d="M 166.83033752441406 80.54888916015625 C 187.92857360839844 71.5741958618164 172.72401428222656 83.74199676513672 146.77215576171875 89.8646011352539" stroke-width="3.0" fill="none" stroke="rgb(0, 0, 0)" stroke-opacity="1.0" stroke-linecap="round" stroke-linejoin="round"/>
    <path d="M 159.19143676757812 101.45568084716797 C 172.15115356445312 100.01152801513672 166.9429931640625 102.1750259399414 187.9580535888672 108.0658950805664" stroke-width="3.0" fill="none" stroke="rgb(0, 0, 0)" stroke-opacity="1.0" stroke-linecap="round" stroke-linejoin="round"/>
    <path d="M 90.50021362304688 162.37869262695312 C 102.50552368164062 177.49404907226562 96.21357727050781 183.48858642578125 104.91131591796875 190.78152465820312" stroke-width="3.0" fill="none" stroke="rgb(0, 0, 0)" stroke-opacity="1.0" stroke-linecap="round" stroke-linejoin="round"/>
    <path d="M 171.43978881835938 10.980262756347656 C 186.50474548339844 4.5418548583984375 182.5959014892578 26.147445678710938 183.54380798339844 61.66596221923828" stroke-width="3.0" fill="none" stroke="rgb(0, 0, 0)" stroke-opacity="1.0" stroke-linecap="round" stroke-linejoin="round"/>
    <path d="M 132.4630584716797 32.88106155395508 C 126.01692199707031 59.36652755737305 131.1327362060547 39.574283599853516 130.88194274902344 66.63017272949219" stroke-width="3.0" fill="none" stroke="rgb(0, 0, 0)" stroke-opacity="1.0" stroke-linecap="round" stroke-linejoin="round"/>
    <path d="M 98.42870330810547 50.120662689208984 C 72.63970947265625 -8.041492462158203 87.57179260253906 1.6013054847717285 109.75303649902344 42.829345703125" stroke-width="3.0" fill="none" stroke="rgb(0, 0, 0)" stroke-opacity="1.0" stroke-linecap="round" stroke-linejoin="round"/>
    <path d="M 46.34409713745117 172.20118713378906 C 42.14632797241211 157.67283630371094 50.61800003051758 160.3129425048828 43.90127944946289 164.28211975097656" stroke-width="3.0" fill="none" stroke="rgb(0, 0, 0)" stroke-opacity="1.0" stroke-linecap="round" stroke-linejoin="round"/>
    <path d="M 32.86420440673828 111.29613494873047 C 28.749910354614258 126.67887878417969 37.84767150878906 139.32464599609375 42.51858139038086 159.48263549804688" stroke-width="3.0" fill="none" stroke="rgb(0, 0, 0)" stroke-opacity="1.0" stroke-linecap="round" stroke-linejoin="round"/>
    <path d="M 81.00950622558594 152.81668090820312 C 90.99641418457031 161.9558563232422 91.5230712890625 165.5555877685547 84.79334259033203 156.82083129882812" stroke-width="3.0" fill="none" stroke="rgb(0, 0, 0)" stroke-opacity="1.0" stroke-linecap="round" stroke-linejoin="round"/>
    <path d="M 74.46684265136719 194.09922790527344 C 52.56899642944336 178.93898010253906 71.43994903564453 192.706298828125 50.12528610229492 175.44906616210938" stroke-width="3.0" fill="none" stroke="rgb(0, 0, 0)" stroke-opacity="1.0" stroke-linecap="round" stroke-linejoin="round"/>
    <path d="M 42.667232513427734 156.16575622558594 C 47.23609161376953 169.8519287109375 43.80339050292969 154.8785858154297 37.9608268737793 146.45481872558594" stroke-width="3.0" fill="none" stroke="rgb(0, 0, 0)" stroke-opacity="1.0" stroke-linecap="round" stroke-linejoin="round"/>
    <path d="M 64.4996109008789 57.02336502075195 C 46.12697982788086 72.6832275390625 50.26211929321289 73.10502624511719 34.176029205322266 104.90157318115234" stroke-width="3.0" fill="none" stroke="rgb(0, 0, 0)" stroke-opacity="1.0" stroke-linecap="round" stroke-linejoin="round"/>
    <path d="M 144.10687255859375 158.99778747558594 C 141.258544921875 160.31134033203125 128.94882202148438 149.6987762451172 140.38287353515625 164.75796508789062" stroke-width="3.0" fill="none" stroke="rgb(0, 0, 0)" stroke-opacity="1.0" stroke-linecap="round" stroke-linejoin="round"/>
    <path d="M 142.37521362304688 30.536563873291016 C 151.16990661621094 54.279273986816406 134.02774047851562 50.72634506225586 141.1634063720703 82.06470489501953" stroke-width="3.0" fill="none" stroke="rgb(0, 0, 0)" stroke-opacity="1.0" stroke-linecap="round" stroke-linejoin="round"/>
    <path d="M 143.68222045898438 102.2048568725586 C 129.9800262451172 112.59393310546875 116.62482452392578 103.80432891845703 128.37408447265625 102.12184143066406" stroke-width="3.0" fill="none" stroke="rgb(0, 0, 0)" stroke-opacity="1.0" stroke-linecap="round" stroke-linejoin="round"/>
    <path d="M 138.99954223632812 76.41986083984375 C 146.67770385742188 50.89170837402344 151.24383544921875 57.120079040527344 151.04747009277344 47.63722229003906" stroke-width="3.0" fill="none" stroke="rgb(0, 0, 0)" stroke-opacity="1.0" stroke-linecap="round" stroke-linejoin="round"/>
    <path d="M 113.54220581054688 193.51158142089844 C 90.64138793945312 189.97454833984375 104.66793060302734 210.9734344482422 137.5106201171875 174.35595703125" stroke-width="3.0" fill="none" stroke="rgb(0, 0, 0)" stroke-opacity="1.0" stroke-linecap="round" stroke-linejoin="round"/>
    <path d="M 187.7476806640625 87.96196746826172 C 154.95225524902344 78.96031951904297 156.50921630859375 89.21955871582031 178.21051025390625 85.85231018066406" stroke-width="3.0" fill="none" stroke="rgb(0, 0, 0)" stroke-opacity="1.0" stroke-linecap="round" stroke-linejoin="round"/>
    <path d="M 170.88052368164062 86.13529205322266 C 197.82662963867188 82.05281066894531 199.3318634033203 81.64117431640625 164.5771484375 83.0892562866211" stroke-width="3.0" fill="none" stroke="rgb(0, 0, 0)" stroke-opacity="1.0" stroke-linecap="round" stroke-linejoin="round"/>
    <path d="M 110.90113830566406 79.40054321289062 C 91.21599578857422 71.03468322753906 140.80885314941406 77.00350189208984 107.45588684082031 80.52020263671875" stroke-width="3.0" fill="none" stroke="rgb(0, 0, 0)" stroke-opacity="1.0" stroke-linecap="round" stroke-linejoin="round"/>
    <path d="M 136.1422576904297 158.63336181640625 C 142.0970001220703 153.51254272460938 126.80320739746094 156.2314453125 105.04806518554688 138.8237762451172" stroke-width="3.0" fill="none" stroke="rgb(0, 0, 0)" stroke-opacity="1.0" stroke-linecap="round" stroke-linejoin="round"/>
    <path d="M 122.22702026367188 89.04586029052734 C 137.97445678710938 101.36651611328125 134.4219970703125 75.85303497314453 129.21954345703125 96.39762878417969" stroke-width="3.0" fill="none" stroke="rgb(0, 0, 0)" stroke-opacity="1.0" stroke-linecap="round" stroke-linejoin="round"/>
    <path d="M 187.32020568847656 95.37910461425781 C 171.8636932373047 83.0412826538086 188.0648651123047 96.51013946533203 141.77691650390625 87.29471588134766" stroke-width="3.0" fill="none" stroke="rgb(0, 0, 0)" stroke-opacity="1.0" stroke-linecap="round" stroke-linejoin="round"/>
    <path d="M 86.12813568115234 9.341745376586914 C 110.55030059814453 19.37782859802246 114.90398406982422 36.46632766723633 125.10940551757812 33.188087463378906" stroke-width="3.0" fill="none" stroke="rgb(0, 0, 0)" stroke-opacity="1.0" stroke-linecap="round" stroke-linejoin="round"/>
    <path d="M 53.19013214111328 112.38323974609375 C 49.47164535522461 109.3605728149414 60.13210678100586 122.1673812866211 52.78843307495117 112.96387481689453" stroke-width="3.0" fill="none" stroke="rgb(0, 0, 0)" stroke-opacity="1.0" stroke-linecap="round" stroke-linejoin="round"/>
    <path d="M 120.88187408447266 100.98080444335938 C 93.20683288574219 95.35981750488281 126.7480239868164 102.88483428955078 102.98031616210938 91.27312469482422" stroke-width="3.0" fill="none" stroke="rgb(0, 0, 0)" stroke-opacity="1.0" stroke-linecap="round" stroke-linejoin="round"/>
    <path d="M 32.023521423339844 117.18341064453125 C 33.406097412109375 96.57534790039062 37.27267074584961 107.27127838134766 31.45253562927246 114.65349578857422" stroke-width="3.0" fill="none" stroke="rgb(0, 0, 0)" stroke-opacity="1.0" stroke-linecap="round" stroke-linejoin="round"/>
    <path d="M 86.06975555419922 193.45541381835938 C 73.5271987915039 197.368408203125 74.57498168945312 189.6409912109375 89.760498046875 195.419677734375" stroke-width="3.0" fill="none" stroke="rgb(0, 0, 0)" stroke-opacity="1.0" stroke-linecap="round" stroke-linejoin="round"/>
    <path d="M 162.1538543701172 131.6221160888672 C 206.9264373779297 115.1825180053711 177.4965057373047 94.27713012695312 149.34222412109375 93.03644561767578" stroke-width="3.0" fill="none" stroke="rgb(0, 0, 0)" stroke-opacity="1.0" stroke-linecap="round" stroke-linejoin="round"/>
    <path d="M 154.5926971435547 77.43637084960938 C 127.0897216796875 67.60551452636719 163.10633850097656 89.56855773925781 153.74124145507812 70.22218322753906" stroke-width="3.0" fill="none" stroke="rgb(0, 0, 0)" stroke-opacity="1.0" stroke-linecap="round" stroke-linejoin="round"/>
    <path d="M 149.74032592773438 77.39885711669922 C 150.00596618652344 57.28870391845703 172.29359436035156 87.19966888427734 184.44129943847656 63.5973014831543" stroke-width="3.0" fill="none" stroke="rgb(0, 0, 0)" stroke-opacity="1.0" stroke-linecap="round" stroke-linejoin="round"/>
    <path d="M 148.10037231445312 101.62934112548828 C 157.32821655273438 99.17276000976562 171.56146240234375 107.2684326171875 183.48532104492188 114.79080200195312" stroke-width="3.0" fill="none" stroke="rgb(0, 0, 0)" stroke-opacity="1.0" stroke-linecap="round" stroke-linejoin="round"/>
    <path d="M 178.53616333007812 15.3921480178833 C 174.20787048339844 44.492271423339844 175.25201416015625 30.698070526123047 165.92852783203125 39.352806091308594" stroke-width="3.0" fill="none" stroke="rgb(0, 0, 0)" stroke-opacity="1.0" stroke-linecap="round" stroke-linejoin="round"/>
    <path d="M 124.96082305908203 103.66143035888672 C 149.14511108398438 108.64083099365234 129.15345764160156 93.1500473022461 110.81558990478516 107.15516662597656" stroke-width="3.0" fill="none" stroke="rgb(0, 0, 0)" stroke-opacity="1.0" stroke-linecap="round" stroke-linejoin="round"/>
    <path d="M 49.91831588745117 109.0061264038086 C 53.4995231628418 110.7886734008789 48.85630416870117 104.86149597167969 61.89002227783203 128.36976623535156" stroke-width="3.0" fill="none" stroke="rgb(0, 0, 0)" stroke-opacity="1.0" stroke-linecap="round" stroke-linejoin="round"/>
    <path d="M 123.29360961914062 81.90694427490234 C 129.77626037597656 60.10953903198242 111.280029296875 52.89411163330078 118.11248016357422 37.84398651123047" stroke-width="3.0" fill="none" stroke="rgb(0, 0, 0)" stroke-opacity="1.0" stroke-linecap="round" stroke-linejoin="round"/>
    <path d="M 147.73434448242188 30.32647132873535 C 151.1552276611328 28.491592407226562 150.49929809570312 18.637340545654297 174.7084503173828 10.168669700622559" stroke-width="3.0" fill="none" stroke="rgb(0, 0, 0)" stroke-opacity="1.0" stroke-linecap="round" stroke-linejoin="round"/>
  </g>
</svg>
