<?xml version="1.0" ?>
<svg xmlns="http://www.w3.org/2000/svg" version="1.1" width="224" height="224">
  <defs/>
  <g>
    <path d="M 60.27589797973633 98.24394989013672 C 64.21495819091797 96.24365234375 54.700767517089844 88.21695709228516 60.79827880859375 62.6984977722168" stroke-width="3.0" fill="none" stroke="rgb(0, 0, 0)" stroke-opacity="1.0" stroke-linecap="round" stroke-linejoin="round"/>
    <path d="M 193.75685119628906 115.66889190673828 C 183.77670288085938 115.84117126464844 189.28494262695312 96.64208221435547 178.6827392578125 127.42365264892578" stroke-width="3.0" fill="none" stroke="rgb(0, 0, 0)" stroke-opacity="1.0" stroke-linecap="round" stroke-linejoin="round"/>
    <path d="M 59.614219665527344 121.9340591430664 C 61.037109375 81.52237701416016 56.98948287963867 120.89236450195312 63.934967041015625 123.06832122802734" stroke-width="3.0" fill="none" stroke="rgb(0, 0, 0)" stroke-opacity="1.0" stroke-linecap="round" stroke-linejoin="round"/>
    <path d="M 188.1385498046875 93.73149108886719 C 145.1565704345703 71.49317932128906 186.1317138671875 76.7480697631836 191.34010314941406 102.13931274414062" stroke-width="3.0" fill="none" stroke="rgb(0, 0, 0)" stroke-opacity="1.0" stroke-linecap="round" stroke-linejoin="round"/>
    <path d="M 177.86805725097656 43.66432571411133 C 196.47604370117188 87.946533203125 172.8266143798828 106.19391632080078 181.2949676513672 68.8722152709961" stroke-width="3.0" fill="none" stroke="rgb(0, 0, 0)" stroke-opacity="1.0" stroke-linecap="round" stroke-linejoin="round"/>
    <path d="M 127.65885925292969 101.86375427246094 C 148.17283630371094 119.4825668334961 92.27698516845703 97.81598663330078 135.58384704589844 104.6530990600586" stroke-width="3.0" fill="none" stroke="rgb(0, 0, 0)" stroke-opacity="1.0" stroke-linecap="round" stroke-linejoin="round"/>
    <path d="M 179.55905151367188 89.70964813232422 C 176.74758911132812 83.15280151367188 191.27003479003906 69.50371551513672 149.9258575439453 87.04674530029297" stroke-width="3.0" fill="none" stroke="rgb(0, 0, 0)" stroke-opacity="1.0" stroke-linecap="round" stroke-linejoin="round"/>
    <path d="M 67.46135711669922 188.60848999023438 C 42.86681365966797 165.7804718017578 47.41945266723633 168.7548828125 51.71569061279297 175.224853515625" stroke-width="3.0" fill="none" stroke="rgb(0, 0, 0)" stroke-opacity="1.0" stroke-linecap="round" stroke-linejoin="round"/>
    <path d="M 60.8015251159668 182.8071746826172 C 88.5445556640625 208.1087188720703 133.19656372070312 194.3074951171875 139.83885192871094 164.27235412597656" stroke-width="3.0" fill="none" stroke="rgb(0, 0, 0)" stroke-opacity="1.0" stroke-linecap="round" stroke-linejoin="round"/>
    <path d="M 81.88786315917969 13.484856605529785 C 98.41255950927734 77.69007110595703 90.31159973144531 12.982422828674316 86.6253662109375 54.99543762207031" stroke-width="3.0" fill="none" stroke="rgb(0, 0, 0)" stroke-opacity="1.0" stroke-linecap="round" stroke-linejoin="round"/>
    <path d="M 59.78801727294922 95.12300872802734 C 52.0708122253418 134.20016479492188 73.00804901123047 130.12709045410156 59.15141296386719 119.2740478515625" stroke-width="3.0" fill="none" stroke="rgb(0, 0, 0)" stroke-opacity="1.0" stroke-linecap="round" stroke-linejoin="round"/>
    <path d="M 147.4523468017578 75.35519409179688 C 197.07150268554688 60.113216400146484 189.9527130126953 87.02517700195312 141.98638916015625 86.12213897705078" stroke-width="3.0" fill="none" stroke="rgb(0, 0, 0)" stroke-opacity="1.0" stroke-linecap="round" stroke-linejoin="round"/>
    <path d="M 149.68922424316406 96.01669311523438 C 179.94058227539062 96.56938171386719 177.49700927734375 96.22517395019531 196.39773559570312 112.73277282714844" stroke-width="3.0" fill="none" stroke="rgb(0, 0, 0)" stroke-opacity="1.0" stroke-linecap="round" stroke-linejoin="round"/>
    <path d="M 121.36730194091797 150.1015625 C 161.22840881347656 159.73660278320312 104.65520477294922 144.52088928222656 96.56690979003906 151.37330627441406" stroke-width="3.0" fill="none" stroke="rgb(0, 0, 0)" stroke-opacity="1.0" stroke-linecap="round" stroke-linejoin="round"/>
    <path d="M 179.6481170654297 10.01572322845459 C 187.89398193359375 19.361045837402344 170.2135772705078 100.44477844238281 182.03521728515625 52.57975769042969" stroke-width="3.0" fill="none" stroke="rgb(0, 0, 0)" stroke-opacity="1.0" stroke-linecap="round" stroke-linejoin="round"/>
    <path d="M 144.61477661132812 32.22772979736328 C 113.96610260009766 25.740856170654297 135.53042602539062 33.5733642578125 130.2687225341797 78.58055114746094" stroke-width="3.0" fill="none" stroke="rgb(0, 0, 0)" stroke-opacity="1.0" stroke-linecap="round" stroke-linejoin="round"/>
    <path d="M 108.06653594970703 46.35792541503906 C 61.770259857177734 -4.756209373474121 82.47010803222656 3.7826809883117676 119.76190948486328 30.76498031616211" stroke-width="3.0" fill="none" stroke="rgb(0, 0, 0)" stroke-opacity="1.0" stroke-linecap="round" stroke-linejoin="round"/>
    <path d="M 46.22393798828125 160.3004608154297 C 43.38053512573242 158.53231811523438 42.47663116455078 151.39453125 49.77493667602539 167.70977783203125" stroke-width="3.0" fill="none" stroke="rgb(0, 0, 0)" stroke-opacity="1.0" stroke-linecap="round" stroke-linejoin="round"/>
    <path d="M 53.95048522949219 77.5760498046875 C 26.06354331970215 133.1973876953125 42.187740325927734 136.04530334472656 43.273712158203125 159.637939453125" stroke-width="3.0" fill="none" stroke="rgb(0, 0, 0)" stroke-opacity="1.0" stroke-linecap="round" stroke-linejoin="round"/>
    <path d="M 75.07767486572266 138.05799865722656 C 135.87794494628906 159.15293884277344 103.20387268066406 144.60302734375 88.51261901855469 144.1764678955078" stroke-width="3.0" fill="none" stroke="rgb(0, 0, 0)" stroke-opacity="1.0" stroke-linecap="round" stroke-linejoin="round"/>
    <path d="M 93.65637969970703 196.75836181640625 C 63.07648849487305 202.464599609375 49.999027252197266 178.40867614746094 44.93327331542969 162.0751495361328" stroke-width="3.0" fill="none" stroke="rgb(0, 0, 0)" stroke-opacity="1.0" stroke-linecap="round" stroke-linejoin="round"/>
    <path d="M 51.045066833496094 172.03060913085938 C 70.92301940917969 198.29006958007812 50.1124382019043 172.90858459472656 37.579288482666016 141.48558044433594" stroke-width="3.0" fill="none" stroke="rgb(0, 0, 0)" stroke-opacity="1.0" stroke-linecap="round" stroke-linejoin="round"/>
    <path d="M 85.02326202392578 59.4581184387207 C 52.425289154052734 53.7601203918457 63.02311706542969 73.49039459228516 39.80367660522461 111.62248992919922" stroke-width="3.0" fill="none" stroke="rgb(0, 0, 0)" stroke-opacity="1.0" stroke-linecap="round" stroke-linejoin="round"/>
    <path d="M 156.64151000976562 141.2412567138672 C 101.3482666015625 154.3211212158203 76.9840087890625 152.828857421875 144.92779541015625 149.6634521484375" stroke-width="3.0" fill="none" stroke="rgb(0, 0, 0)" stroke-opacity="1.0" stroke-linecap="round" stroke-linejoin="round"/>
    <path d="M 150.3811798095703 29.026817321777344 C 146.12466430664062 33.54315185546875 137.5440673828125 15.661120414733887 140.77545166015625 77.94120025634766" stroke-width="3.0" fill="none" stroke="rgb(0, 0, 0)" stroke-opacity="1.0" stroke-linecap="round" stroke-linejoin="round"/>
    <path d="M 145.71438598632812 100.72969818115234 C 125.32335662841797 114.96366882324219 122.2432632446289 106.61273956298828 117.96859741210938 93.806396484375" stroke-width="3.0" fill="none" stroke="rgb(0, 0, 0)" stroke-opacity="1.0" stroke-linecap="round" stroke-linejoin="round"/>
    <path d="M 140.28709411621094 70.89038848876953 C 148.669921875 56.25554656982422 136.0138702392578 70.5299072265625 138.6695098876953 85.90660095214844" stroke-width="3.0" fill="none" stroke="rgb(0, 0, 0)" stroke-opacity="1.0" stroke-linecap="round" stroke-linejoin="round"/>
    <path d="M 138.53042602539062 165.22621154785156 C 128.04119873046875 168.76727294921875 147.25045776367188 163.67132568359375 146.06455993652344 147.9767608642578" stroke-width="3.0" fill="none" stroke="rgb(0, 0, 0)" stroke-opacity="1.0" stroke-linecap="round" stroke-linejoin="round"/>
    <path d="M 193.94386291503906 95.12501525878906 C 164.36123657226562 66.07289123535156 182.9225311279297 68.68812561035156 185.8983612060547 95.31074523925781" stroke-width="3.0" fill="none" stroke="rgb(0, 0, 0)" stroke-opacity="1.0" stroke-linecap="round" stroke-linejoin="round"/>
    <path d="M 149.1912384033203 80.6244888305664 C 130.86024475097656 56.487972259521484 212.97462463378906 89.05210876464844 176.23968505859375 64.54977416992188" stroke-width="3.0" fill="none" stroke="rgb(0, 0, 0)" stroke-opacity="1.0" stroke-linecap="round" stroke-linejoin="round"/>
    <path d="M 115.30857849121094 81.35953521728516 C 76.90068054199219 70.13426208496094 138.79403686523438 71.8744125366211 107.13951873779297 81.2821044921875" stroke-width="3.0" fill="none" stroke="rgb(0, 0, 0)" stroke-opacity="1.0" stroke-linecap="round" stroke-linejoin="round"/>
    <path d="M 165.54327392578125 129.80519104003906 C 147.0670166015625 160.2761688232422 101.45350646972656 145.32781982421875 92.05802917480469 148.03855895996094" stroke-width="3.0" fill="none" stroke="rgb(0, 0, 0)" stroke-opacity="1.0" stroke-linecap="round" stroke-linejoin="round"/>
    <path d="M 123.16409301757812 92.60045623779297 C 140.45310974121094 97.92041015625 129.90924072265625 73.4775390625 130.5140380859375 108.67665100097656" stroke-width="3.0" fill="none" stroke="rgb(0, 0, 0)" stroke-opacity="1.0" stroke-linecap="round" stroke-linejoin="round"/>
    <path d="M 187.49722290039062 112.96803283691406 C 166.4947967529297 84.3820571899414 174.69190979003906 95.66181945800781 146.0235595703125 88.86256408691406" stroke-width="3.0" fill="none" stroke="rgb(0, 0, 0)" stroke-opacity="1.0" stroke-linecap="round" stroke-linejoin="round"/>
    <path d="M 92.39012908935547 26.744598388671875 C 127.90310668945312 24.237878799438477 87.03971862792969 33.97721481323242 148.36273193359375 29.841285705566406" stroke-width="3.0" fill="none" stroke="rgb(0, 0, 0)" stroke-opacity="1.0" stroke-linecap="round" stroke-linejoin="round"/>
    <path d="M 59.49222183227539 111.56464385986328 C 66.03401184082031 102.7846908569336 50.406150817871094 123.77180480957031 72.48223876953125 139.4700927734375" stroke-width="3.0" fill="none" stroke="rgb(0, 0, 0)" stroke-opacity="1.0" stroke-linecap="round" stroke-linejoin="round"/>
    <path d="M 135.33595275878906 104.51461029052734 C 119.55682373046875 93.24420928955078 127.63008117675781 117.5425796508789 114.2557601928711 91.24156951904297" stroke-width="3.0" fill="none" stroke="rgb(0, 0, 0)" stroke-opacity="1.0" stroke-linecap="round" stroke-linejoin="round"/>
    <path d="M 38.970951080322266 142.03329467773438 C 23.770700454711914 129.80181884765625 37.52424621582031 79.81669616699219 58.953956604003906 64.33839416503906" stroke-width="3.0" fill="none" stroke="rgb(0, 0, 0)" stroke-opacity="1.0" stroke-linecap="round" stroke-linejoin="round"/>
    <path d="M 101.6199722290039 194.62347412109375 C 78.50821685791016 199.09561157226562 70.38421630859375 198.118408203125 107.13427734375 195.21327209472656" stroke-width="3.0" fill="none" stroke="rgb(0, 0, 0)" stroke-opacity="1.0" stroke-linecap="round" stroke-linejoin="round"/>
    <path d="M 168.4330596923828 130.64280700683594 C 198.2494659423828 118.7869873046875 189.67584228515625 83.98252868652344 154.9735870361328 88.46054077148438" stroke-width="3.0" fill="none" stroke="rgb(0, 0, 0)" stroke-opacity="1.0" stroke-linecap="round" stroke-linejoin="round"/>
    <path d="M 155.2605743408203 75.43832397460938 C 133.65631103515625 85.55269622802734 173.7606201171875 79.47093200683594 150.88699340820312 68.0751724243164" stroke-width="3.0" fill="none" stroke="rgb(0, 0, 0)" stroke-opacity="1.0" stroke-linecap="round" stroke-linejoin="round"/>
    <path d="M 141.5516815185547 77.91188049316406 C 142.87167358398438 42.2595100402832 202.2703399658203 110.64013671875 176.30316162109375 47.7889404296875" stroke-width="3.0" fill="none" stroke="rgb(0, 0, 0)" stroke-opacity="1.0" stroke-linecap="round" stroke-linejoin="round"/>
    <path d="M 153.00982666015625 97.21298217773438 C 179.87461853027344 102.35396575927734 171.17491149902344 101.33901977539062 187.40892028808594 123.29476165771484" stroke-width="3.0" fill="none" stroke="rgb(0, 0, 0)" stroke-opacity="1.0" stroke-linecap="round" stroke-linejoin="round"/>
    <path d="M 177.2252960205078 18.336820602416992 C 173.85719299316406 46.91189956665039 175.7928924560547 20.69927215576172 157.83995056152344 39.700992584228516" stroke-width="3.0" fill="none" stroke="rgb(0, 0, 0)" stroke-opacity="1.0" stroke-linecap="round" stroke-linejoin="round"/>
    <path d="M 123.1695327758789 106.23089599609375 C 149.00714111328125 102.85974884033203 132.51138305664062 119.72734069824219 122.68502807617188 104.25003814697266" stroke-width="3.0" fill="none" stroke="rgb(0, 0, 0)" stroke-opacity="1.0" stroke-linecap="round" stroke-linejoin="round"/>
    <path d="M 64.6264877319336 120.31573486328125 C 55.24870681762695 110.83391571044922 59.521934509277344 110.49495697021484 60.95489501953125 117.3471908569336" stroke-width="3.0" fill="none" stroke="rgb(0, 0, 0)" stroke-opacity="1.0" stroke-linecap="round" stroke-linejoin="round"/>
    <path d="M 121.30927276611328 74.57813262939453 C 121.68309020996094 43.09056854248047 112.103759765625 58.110145568847656 119.54550170898438 31.718894958496094" stroke-width="3.0" fill="none" stroke="rgb(0, 0, 0)" stroke-opacity="1.0" stroke-linecap="round" stroke-linejoin="round"/>
    <path d="M 146.64393615722656 30.22032356262207 C 143.08804321289062 35.84376525878906 160.90611267089844 7.9010009765625 177.95318603515625 8.443288803100586" stroke-width="3.0" fill="none" stroke="rgb(0, 0, 0)" stroke-opacity="1.0" stroke-linecap="round" stroke-linejoin="round"/>
  </g>
</svg>
