<?xml version="1.0" ?>
<svg xmlns="http://www.w3.org/2000/svg" version="1.1" width="224" height="224">
  <defs/>
  <g>
    <path d="M 61.49179458618164 98.56181335449219 C 56.48141860961914 91.6841049194336 57.296241760253906 100.8963851928711 48.984222412109375 77.85225677490234" stroke-width="3.0" fill="none" stroke="rgb(0, 0, 0)" stroke-opacity="1.0" stroke-linecap="round" stroke-linejoin="round"/>
    <path d="M 186.18630981445312 119.75209045410156 C 180.32080078125 115.54730987548828 202.15576171875 84.84357452392578 178.03343200683594 126.76493072509766" stroke-width="3.0" fill="none" stroke="rgb(0, 0, 0)" stroke-opacity="1.0" stroke-linecap="round" stroke-linejoin="round"/>
    <path d="M 61.03410339355469 106.88591766357422 C 58.376827239990234 105.99274444580078 55.93613815307617 126.01802825927734 67.52452087402344 133.8317413330078" stroke-width="3.0" fill="none" stroke="rgb(0, 0, 0)" stroke-opacity="1.0" stroke-linecap="round" stroke-linejoin="round"/>
    <path d="M 187.58419799804688 95.45172882080078 C 137.66217041015625 85.99325561523438 178.77365112304688 83.35924530029297 189.05108642578125 106.48065185546875" stroke-width="3.0" fill="none" stroke="rgb(0, 0, 0)" stroke-opacity="1.0" stroke-linecap="round" stroke-linejoin="round"/>
    <path d="M 182.32406616210938 69.56686401367188 C 187.08180236816406 101.88731384277344 180.44557189941406 101.3436279296875 179.04583740234375 73.28993225097656" stroke-width="3.0" fill="none" stroke="rgb(0, 0, 0)" stroke-opacity="1.0" stroke-linecap="round" stroke-linejoin="round"/>
    <path d="M 121.94538116455078 100.52755737304688 C 139.91285705566406 116.9361801147461 106.6988525390625 95.390380859375 138.1290283203125 101.30372619628906" stroke-width="3.0" fill="none" stroke="rgb(0, 0, 0)" stroke-opacity="1.0" stroke-linecap="round" stroke-linejoin="round"/>
    <path d="M 183.06736755371094 91.76456451416016 C 180.7454071044922 77.69413757324219 189.10208129882812 71.34420776367188 144.6192626953125 84.87289428710938" stroke-width="3.0" fill="none" stroke="rgb(0, 0, 0)" stroke-opacity="1.0" stroke-linecap="round" stroke-linejoin="round"/>
    <path d="M 65.20789337158203 190.5349884033203 C 36.791202545166016 164.6742706298828 49.12361145019531 169.59605407714844 48.2076530456543 170.33006286621094" stroke-width="3.0" fill="none" stroke="rgb(0, 0, 0)" stroke-opacity="1.0" stroke-linecap="round" stroke-linejoin="round"/>
    <path d="M 58.24478530883789 183.17117309570312 C 87.14856719970703 211.1981201171875 122.25667572021484 196.26397705078125 135.13223266601562 173.6588897705078" stroke-width="3.0" fill="none" stroke="rgb(0, 0, 0)" stroke-opacity="1.0" stroke-linecap="round" stroke-linejoin="round"/>
    <path d="M 83.12678527832031 29.517799377441406 C 94.88118743896484 84.1395263671875 86.04325103759766 11.506954193115234 85.03536987304688 50.80170440673828" stroke-width="3.0" fill="none" stroke="rgb(0, 0, 0)" stroke-opacity="1.0" stroke-linecap="round" stroke-linejoin="round"/>
    <path d="M 51.97566223144531 82.56177520751953 C 68.7105712890625 143.36776733398438 75.48104095458984 146.43638610839844 71.128662109375 137.98443603515625" stroke-width="3.0" fill="none" stroke="rgb(0, 0, 0)" stroke-opacity="1.0" stroke-linecap="round" stroke-linejoin="round"/>
    <path d="M 147.07443237304688 69.48194885253906 C 201.0985870361328 66.50688171386719 194.4010467529297 87.68107604980469 137.1965789794922 82.1264419555664" stroke-width="3.0" fill="none" stroke="rgb(0, 0, 0)" stroke-opacity="1.0" stroke-linecap="round" stroke-linejoin="round"/>
    <path d="M 150.7105255126953 95.04100036621094 C 181.8535614013672 100.99514770507812 180.54393005371094 97.79922485351562 196.32850646972656 113.077880859375" stroke-width="3.0" fill="none" stroke="rgb(0, 0, 0)" stroke-opacity="1.0" stroke-linecap="round" stroke-linejoin="round"/>
    <path d="M 120.38866424560547 150.3028106689453 C 150.88735961914062 154.265869140625 112.7568130493164 144.92465209960938 105.52217864990234 157.08152770996094" stroke-width="3.0" fill="none" stroke="rgb(0, 0, 0)" stroke-opacity="1.0" stroke-linecap="round" stroke-linejoin="round"/>
    <path d="M 179.40097045898438 8.990450859069824 C 186.44696044921875 25.752294540405273 173.91891479492188 75.6665267944336 182.4920196533203 52.4683952331543" stroke-width="3.0" fill="none" stroke="rgb(0, 0, 0)" stroke-opacity="1.0" stroke-linecap="round" stroke-linejoin="round"/>
    <path d="M 136.18504333496094 29.420642852783203 C 118.88949584960938 23.876331329345703 138.04812622070312 43.336666107177734 127.25089263916016 67.2215805053711" stroke-width="3.0" fill="none" stroke="rgb(0, 0, 0)" stroke-opacity="1.0" stroke-linecap="round" stroke-linejoin="round"/>
    <path d="M 96.12741088867188 46.97585678100586 C 69.09790802001953 -3.035005569458008 87.43697357177734 2.4684109687805176 118.15182495117188 32.317901611328125" stroke-width="3.0" fill="none" stroke="rgb(0, 0, 0)" stroke-opacity="1.0" stroke-linecap="round" stroke-linejoin="round"/>
    <path d="M 43.95352554321289 166.6749725341797 C 40.67795181274414 155.58285522460938 37.601722717285156 148.14697265625 47.54618453979492 171.52801513671875" stroke-width="3.0" fill="none" stroke="rgb(0, 0, 0)" stroke-opacity="1.0" stroke-linecap="round" stroke-linejoin="round"/>
    <path d="M 35.19226837158203 98.65035247802734 C 22.670190811157227 132.9024658203125 40.274070739746094 148.08468627929688 44.26555633544922 164.29220581054688" stroke-width="3.0" fill="none" stroke="rgb(0, 0, 0)" stroke-opacity="1.0" stroke-linecap="round" stroke-linejoin="round"/>
    <path d="M 75.18450927734375 142.75637817382812 C 112.69408416748047 159.7125244140625 91.91666412353516 154.1172637939453 95.03398132324219 148.96649169921875" stroke-width="3.0" fill="none" stroke="rgb(0, 0, 0)" stroke-opacity="1.0" stroke-linecap="round" stroke-linejoin="round"/>
    <path d="M 90.2630844116211 199.7773895263672 C 68.67020416259766 201.1698760986328 47.601741790771484 176.32876586914062 48.59825134277344 169.79400634765625" stroke-width="3.0" fill="none" stroke="rgb(0, 0, 0)" stroke-opacity="1.0" stroke-linecap="round" stroke-linejoin="round"/>
    <path d="M 49.068336486816406 174.21432495117188 C 66.76612091064453 193.7147979736328 46.94552993774414 170.37899780273438 39.250526428222656 153.77316284179688" stroke-width="3.0" fill="none" stroke="rgb(0, 0, 0)" stroke-opacity="1.0" stroke-linecap="round" stroke-linejoin="round"/>
    <path d="M 80.5806655883789 54.22484588623047 C 63.5919075012207 53.72097396850586 51.08244705200195 74.13139343261719 31.505041122436523 110.50495147705078" stroke-width="3.0" fill="none" stroke="rgb(0, 0, 0)" stroke-opacity="1.0" stroke-linecap="round" stroke-linejoin="round"/>
    <path d="M 158.30113220214844 141.70944213867188 C 110.99097442626953 153.9047088623047 103.56726837158203 152.93992614746094 148.1165771484375 147.1192169189453" stroke-width="3.0" fill="none" stroke="rgb(0, 0, 0)" stroke-opacity="1.0" stroke-linecap="round" stroke-linejoin="round"/>
    <path d="M 152.0583038330078 24.837697982788086 C 138.45494079589844 33.37577819824219 127.93360900878906 14.990032196044922 139.6964569091797 78.53691864013672" stroke-width="3.0" fill="none" stroke="rgb(0, 0, 0)" stroke-opacity="1.0" stroke-linecap="round" stroke-linejoin="round"/>
    <path d="M 145.28370666503906 94.25808715820312 C 134.37677001953125 105.12519836425781 128.7465057373047 97.22596740722656 117.23986053466797 101.35718536376953" stroke-width="3.0" fill="none" stroke="rgb(0, 0, 0)" stroke-opacity="1.0" stroke-linecap="round" stroke-linejoin="round"/>
    <path d="M 136.389892578125 77.5506820678711 C 138.68666076660156 60.195045471191406 134.0635986328125 72.11665344238281 136.35177612304688 81.38298034667969" stroke-width="3.0" fill="none" stroke="rgb(0, 0, 0)" stroke-opacity="1.0" stroke-linecap="round" stroke-linejoin="round"/>
    <path d="M 138.66934204101562 167.44190979003906 C 127.73876953125 180.17750549316406 141.83921813964844 173.39735412597656 147.7471923828125 145.7406005859375" stroke-width="3.0" fill="none" stroke="rgb(0, 0, 0)" stroke-opacity="1.0" stroke-linecap="round" stroke-linejoin="round"/>
    <path d="M 195.229248046875 96.13896942138672 C 170.67640686035156 73.59695434570312 174.6188201904297 80.82299041748047 188.3656768798828 95.46151733398438" stroke-width="3.0" fill="none" stroke="rgb(0, 0, 0)" stroke-opacity="1.0" stroke-linecap="round" stroke-linejoin="round"/>
    <path d="M 157.48289489746094 66.72775268554688 C 120.12004852294922 58.15869903564453 204.78053283691406 84.6903305053711 178.11581420898438 64.04679107666016" stroke-width="3.0" fill="none" stroke="rgb(0, 0, 0)" stroke-opacity="1.0" stroke-linecap="round" stroke-linejoin="round"/>
    <path d="M 110.63219451904297 82.36515808105469 C 91.49461364746094 71.74322509765625 131.51222229003906 76.53533172607422 109.02495574951172 82.19563293457031" stroke-width="3.0" fill="none" stroke="rgb(0, 0, 0)" stroke-opacity="1.0" stroke-linecap="round" stroke-linejoin="round"/>
    <path d="M 166.1001434326172 128.59275817871094 C 156.0729522705078 159.1193389892578 112.71102905273438 148.51467895507812 99.26422882080078 152.12721252441406" stroke-width="3.0" fill="none" stroke="rgb(0, 0, 0)" stroke-opacity="1.0" stroke-linecap="round" stroke-linejoin="round"/>
    <path d="M 121.30242156982422 88.58907318115234 C 138.88433837890625 98.80595397949219 126.68836975097656 69.46222686767578 125.42118835449219 105.86775970458984" stroke-width="3.0" fill="none" stroke="rgb(0, 0, 0)" stroke-opacity="1.0" stroke-linecap="round" stroke-linejoin="round"/>
    <path d="M 184.4795379638672 112.73135375976562 C 167.46047973632812 85.60950469970703 188.28224182128906 87.46754455566406 152.21957397460938 89.03152465820312" stroke-width="3.0" fill="none" stroke="rgb(0, 0, 0)" stroke-opacity="1.0" stroke-linecap="round" stroke-linejoin="round"/>
    <path d="M 86.30579376220703 9.763555526733398 C 105.3347396850586 17.64728546142578 107.32952117919922 30.506263732910156 132.1162567138672 27.40383529663086" stroke-width="3.0" fill="none" stroke="rgb(0, 0, 0)" stroke-opacity="1.0" stroke-linecap="round" stroke-linejoin="round"/>
    <path d="M 60.757198333740234 117.83285522460938 C 57.125282287597656 112.91316223144531 63.95142364501953 123.61483001708984 70.61590576171875 133.19168090820312" stroke-width="3.0" fill="none" stroke="rgb(0, 0, 0)" stroke-opacity="1.0" stroke-linecap="round" stroke-linejoin="round"/>
    <path d="M 129.58352661132812 104.14153289794922 C 140.4211883544922 89.59353637695312 118.62542724609375 116.16171264648438 110.25284576416016 90.91071319580078" stroke-width="3.0" fill="none" stroke="rgb(0, 0, 0)" stroke-opacity="1.0" stroke-linecap="round" stroke-linejoin="round"/>
    <path d="M 32.110599517822266 132.7616729736328 C 26.565494537353516 105.64029693603516 33.82855987548828 91.52010345458984 55.32219314575195 74.27530670166016" stroke-width="3.0" fill="none" stroke="rgb(0, 0, 0)" stroke-opacity="1.0" stroke-linecap="round" stroke-linejoin="round"/>
    <path d="M 83.04450225830078 197.2753448486328 C 68.43758392333984 191.21139526367188 70.47550201416016 199.6694793701172 102.80389404296875 198.33131408691406" stroke-width="3.0" fill="none" stroke="rgb(0, 0, 0)" stroke-opacity="1.0" stroke-linecap="round" stroke-linejoin="round"/>
    <path d="M 169.03433227539062 130.07247924804688 C 201.57272338867188 110.84243774414062 181.4330291748047 95.71057891845703 156.49884033203125 89.50695037841797" stroke-width="3.0" fill="none" stroke="rgb(0, 0, 0)" stroke-opacity="1.0" stroke-linecap="round" stroke-linejoin="round"/>
    <path d="M 154.61752319335938 70.65741729736328 C 139.5914764404297 84.90983581542969 169.3157196044922 73.80852508544922 149.34185791015625 69.7557144165039" stroke-width="3.0" fill="none" stroke="rgb(0, 0, 0)" stroke-opacity="1.0" stroke-linecap="round" stroke-linejoin="round"/>
    <path d="M 140.84161376953125 75.83499145507812 C 141.720947265625 38.667572021484375 198.57708740234375 114.12542724609375 178.05780029296875 47.80807876586914" stroke-width="3.0" fill="none" stroke="rgb(0, 0, 0)" stroke-opacity="1.0" stroke-linecap="round" stroke-linejoin="round"/>
    <path d="M 156.84422302246094 95.96757507324219 C 169.70077514648438 105.6490249633789 174.77854919433594 101.71253967285156 182.85366821289062 117.53205108642578" stroke-width="3.0" fill="none" stroke="rgb(0, 0, 0)" stroke-opacity="1.0" stroke-linecap="round" stroke-linejoin="round"/>
    <path d="M 176.7379913330078 16.117156982421875 C 167.57833862304688 38.5280647277832 172.6479949951172 17.455713272094727 155.1453399658203 36.55062484741211" stroke-width="3.0" fill="none" stroke="rgb(0, 0, 0)" stroke-opacity="1.0" stroke-linecap="round" stroke-linejoin="round"/>
    <path d="M 116.20771789550781 101.59223937988281 C 146.6015625 88.38397979736328 134.99595642089844 110.5993881225586 117.6549072265625 102.77194213867188" stroke-width="3.0" fill="none" stroke="rgb(0, 0, 0)" stroke-opacity="1.0" stroke-linecap="round" stroke-linejoin="round"/>
    <path d="M 70.0239028930664 127.78761291503906 C 55.73587417602539 111.11430358886719 60.5960807800293 109.00335693359375 59.767574310302734 115.09109497070312" stroke-width="3.0" fill="none" stroke="rgb(0, 0, 0)" stroke-opacity="1.0" stroke-linecap="round" stroke-linejoin="round"/>
    <path d="M 123.79741668701172 76.06649780273438 C 129.9622344970703 39.90373992919922 117.2721939086914 53.91149139404297 121.86727905273438 36.861663818359375" stroke-width="3.0" fill="none" stroke="rgb(0, 0, 0)" stroke-opacity="1.0" stroke-linecap="round" stroke-linejoin="round"/>
    <path d="M 156.9395751953125 22.581682205200195 C 148.53273010253906 31.660490036010742 164.1506805419922 6.551793098449707 178.09446716308594 5.547849655151367" stroke-width="3.0" fill="none" stroke="rgb(0, 0, 0)" stroke-opacity="1.0" stroke-linecap="round" stroke-linejoin="round"/>
  </g>
</svg>
