<?xml version="1.0" ?>
<svg xmlns="http://www.w3.org/2000/svg" version="1.1" width="224" height="224">
  <defs/>
  <g>
    <path d="M 61.76512908935547 98.26588439941406 C 64.99077606201172 95.20146942138672 53.72809982299805 90.37635040283203 58.884071350097656 69.30979919433594" stroke-width="3.0" fill="none" stroke="rgb(0, 0, 0)" stroke-opacity="1.0" stroke-linecap="round" stroke-linejoin="round"/>
    <path d="M 191.405029296875 112.35576629638672 C 187.82017517089844 114.79145812988281 195.21701049804688 86.3341064453125 184.0180206298828 121.68103790283203" stroke-width="3.0" fill="none" stroke="rgb(0, 0, 0)" stroke-opacity="1.0" stroke-linecap="round" stroke-linejoin="round"/>
    <path d="M 63.92992401123047 118.13452911376953 C 60.63894271850586 86.59821319580078 60.3136100769043 129.5903778076172 66.79549407958984 127.86878967285156" stroke-width="3.0" fill="none" stroke="rgb(0, 0, 0)" stroke-opacity="1.0" stroke-linecap="round" stroke-linejoin="round"/>
    <path d="M 184.83099365234375 95.572265625 C 149.4912109375 72.83960723876953 185.95359802246094 76.69861602783203 185.92337036132812 100.66102600097656" stroke-width="3.0" fill="none" stroke="rgb(0, 0, 0)" stroke-opacity="1.0" stroke-linecap="round" stroke-linejoin="round"/>
    <path d="M 175.96826171875 51.46525192260742 C 194.30975341796875 84.97025299072266 180.21240234375 93.69635772705078 182.25399780273438 69.41166687011719" stroke-width="3.0" fill="none" stroke="rgb(0, 0, 0)" stroke-opacity="1.0" stroke-linecap="round" stroke-linejoin="round"/>
    <path d="M 129.44342041015625 100.7242202758789 C 152.11892700195312 114.66680908203125 95.75555419921875 104.03890991210938 134.0816650390625 106.1316146850586" stroke-width="3.0" fill="none" stroke="rgb(0, 0, 0)" stroke-opacity="1.0" stroke-linecap="round" stroke-linejoin="round"/>
    <path d="M 180.11680603027344 84.81204223632812 C 178.15707397460938 75.04057312011719 195.48876953125 73.07042694091797 148.63076782226562 85.079833984375" stroke-width="3.0" fill="none" stroke="rgb(0, 0, 0)" stroke-opacity="1.0" stroke-linecap="round" stroke-linejoin="round"/>
    <path d="M 65.99169921875 193.19244384765625 C 38.46550750732422 167.31997680664062 50.43146896362305 170.0573272705078 50.730709075927734 173.83094787597656" stroke-width="3.0" fill="none" stroke="rgb(0, 0, 0)" stroke-opacity="1.0" stroke-linecap="round" stroke-linejoin="round"/>
    <path d="M 57.636070251464844 186.22433471679688 C 84.90705108642578 214.61849975585938 128.14920043945312 197.03146362304688 137.4691619873047 166.64393615722656" stroke-width="3.0" fill="none" stroke="rgb(0, 0, 0)" stroke-opacity="1.0" stroke-linecap="round" stroke-linejoin="round"/>
    <path d="M 80.86685943603516 15.78303050994873 C 96.6488037109375 75.46827697753906 85.6939468383789 8.757174491882324 85.76100158691406 55.18148422241211" stroke-width="3.0" fill="none" stroke="rgb(0, 0, 0)" stroke-opacity="1.0" stroke-linecap="round" stroke-linejoin="round"/>
    <path d="M 60.699825286865234 84.58164978027344 C 59.165767669677734 139.28700256347656 71.32210540771484 135.49661254882812 62.38382339477539 120.50239562988281" stroke-width="3.0" fill="none" stroke="rgb(0, 0, 0)" stroke-opacity="1.0" stroke-linecap="round" stroke-linejoin="round"/>
    <path d="M 146.80535888671875 71.88848876953125 C 200.66363525390625 61.99131393432617 197.13137817382812 89.42153930664062 141.4341583251953 84.32271575927734" stroke-width="3.0" fill="none" stroke="rgb(0, 0, 0)" stroke-opacity="1.0" stroke-linecap="round" stroke-linejoin="round"/>
    <path d="M 148.24398803710938 93.2759780883789 C 182.72994995117188 95.17090606689453 183.9659423828125 93.57500457763672 197.06983947753906 113.10528564453125" stroke-width="3.0" fill="none" stroke="rgb(0, 0, 0)" stroke-opacity="1.0" stroke-linecap="round" stroke-linejoin="round"/>
    <path d="M 116.30223083496094 148.112548828125 C 156.74481201171875 157.2295379638672 101.56295776367188 145.7631378173828 104.75148010253906 153.57518005371094" stroke-width="3.0" fill="none" stroke="rgb(0, 0, 0)" stroke-opacity="1.0" stroke-linecap="round" stroke-linejoin="round"/>
    <path d="M 179.31488037109375 8.9063720703125 C 186.43531799316406 24.042905807495117 168.3309783935547 92.31239318847656 181.9555206298828 56.87404251098633" stroke-width="3.0" fill="none" stroke="rgb(0, 0, 0)" stroke-opacity="1.0" stroke-linecap="round" stroke-linejoin="round"/>
    <path d="M 139.11032104492188 33.12509536743164 C 105.21312713623047 20.530305862426758 138.24375915527344 49.40485382080078 122.11046600341797 83.67837524414062" stroke-width="3.0" fill="none" stroke="rgb(0, 0, 0)" stroke-opacity="1.0" stroke-linecap="round" stroke-linejoin="round"/>
    <path d="M 104.4984130859375 49.16277313232422 C 60.19427490234375 -4.179586410522461 84.84944152832031 -1.2073665857315063 121.37128448486328 31.531702041625977" stroke-width="3.0" fill="none" stroke="rgb(0, 0, 0)" stroke-opacity="1.0" stroke-linecap="round" stroke-linejoin="round"/>
    <path d="M 46.93724822998047 170.84095764160156 C 42.838836669921875 160.10401916503906 40.44830322265625 154.0762176513672 48.63780212402344 171.8186492919922" stroke-width="3.0" fill="none" stroke="rgb(0, 0, 0)" stroke-opacity="1.0" stroke-linecap="round" stroke-linejoin="round"/>
    <path d="M 52.143463134765625 77.33316802978516 C 12.112970352172852 122.06543731689453 37.65900421142578 140.07278442382812 47.952308654785156 166.8302459716797" stroke-width="3.0" fill="none" stroke="rgb(0, 0, 0)" stroke-opacity="1.0" stroke-linecap="round" stroke-linejoin="round"/>
    <path d="M 70.82868194580078 131.90542602539062 C 133.32015991210938 156.99302673339844 99.93839263916016 144.6758270263672 86.40326690673828 139.9736328125" stroke-width="3.0" fill="none" stroke="rgb(0, 0, 0)" stroke-opacity="1.0" stroke-linecap="round" stroke-linejoin="round"/>
    <path d="M 86.45471954345703 198.14553833007812 C 69.30590057373047 201.07550048828125 46.736263275146484 176.15476989746094 46.734222412109375 167.6383056640625" stroke-width="3.0" fill="none" stroke="rgb(0, 0, 0)" stroke-opacity="1.0" stroke-linecap="round" stroke-linejoin="round"/>
    <path d="M 47.75623321533203 171.69580078125 C 67.85317993164062 196.91888427734375 46.40937423706055 173.67837524414062 40.11563491821289 153.45980834960938" stroke-width="3.0" fill="none" stroke="rgb(0, 0, 0)" stroke-opacity="1.0" stroke-linecap="round" stroke-linejoin="round"/>
    <path d="M 81.33566284179688 52.82911682128906 C 56.662132263183594 58.32976531982422 55.798152923583984 73.5029525756836 33.09547424316406 108.73252868652344" stroke-width="3.0" fill="none" stroke="rgb(0, 0, 0)" stroke-opacity="1.0" stroke-linecap="round" stroke-linejoin="round"/>
    <path d="M 158.66236877441406 140.4031219482422 C 101.72161102294922 154.61428833007812 88.09696960449219 160.57247924804688 149.82447814941406 146.5597381591797" stroke-width="3.0" fill="none" stroke="rgb(0, 0, 0)" stroke-opacity="1.0" stroke-linecap="round" stroke-linejoin="round"/>
    <path d="M 149.85635375976562 28.000446319580078 C 147.0822296142578 32.953697204589844 132.58193969726562 15.444819450378418 136.63160705566406 76.08423614501953" stroke-width="3.0" fill="none" stroke="rgb(0, 0, 0)" stroke-opacity="1.0" stroke-linecap="round" stroke-linejoin="round"/>
    <path d="M 145.31312561035156 101.22099304199219 C 124.3844223022461 112.50261688232422 118.4007339477539 105.59010314941406 111.54414367675781 96.05821228027344" stroke-width="3.0" fill="none" stroke="rgb(0, 0, 0)" stroke-opacity="1.0" stroke-linecap="round" stroke-linejoin="round"/>
    <path d="M 137.5532684326172 72.4267578125 C 140.01869201660156 43.72543716430664 131.12319946289062 65.23345184326172 136.85202026367188 76.906494140625" stroke-width="3.0" fill="none" stroke="rgb(0, 0, 0)" stroke-opacity="1.0" stroke-linecap="round" stroke-linejoin="round"/>
    <path d="M 138.32766723632812 159.3225555419922 C 124.74398803710938 177.67355346679688 140.4272918701172 168.01100158691406 144.30886840820312 144.13330078125" stroke-width="3.0" fill="none" stroke="rgb(0, 0, 0)" stroke-opacity="1.0" stroke-linecap="round" stroke-linejoin="round"/>
    <path d="M 195.55511474609375 95.33332824707031 C 160.8872528076172 73.30941009521484 165.106201171875 78.73743438720703 186.92526245117188 88.63410186767578" stroke-width="3.0" fill="none" stroke="rgb(0, 0, 0)" stroke-opacity="1.0" stroke-linecap="round" stroke-linejoin="round"/>
    <path d="M 154.61639404296875 75.86470031738281 C 130.94480895996094 53.52084732055664 200.3839874267578 91.44354248046875 181.74386596679688 58.88558578491211" stroke-width="3.0" fill="none" stroke="rgb(0, 0, 0)" stroke-opacity="1.0" stroke-linecap="round" stroke-linejoin="round"/>
    <path d="M 111.77649688720703 80.82828521728516 C 79.84779357910156 70.5177230834961 139.5438995361328 73.24117279052734 109.45582580566406 78.36185455322266" stroke-width="3.0" fill="none" stroke="rgb(0, 0, 0)" stroke-opacity="1.0" stroke-linecap="round" stroke-linejoin="round"/>
    <path d="M 168.26063537597656 128.09458923339844 C 140.85833740234375 158.1162567138672 101.86991882324219 144.37669372558594 99.69407653808594 149.8326416015625" stroke-width="3.0" fill="none" stroke="rgb(0, 0, 0)" stroke-opacity="1.0" stroke-linecap="round" stroke-linejoin="round"/>
    <path d="M 125.16642761230469 88.87345886230469 C 141.74508666992188 101.21337890625 131.1411590576172 70.03678894042969 129.6240997314453 106.20732116699219" stroke-width="3.0" fill="none" stroke="rgb(0, 0, 0)" stroke-opacity="1.0" stroke-linecap="round" stroke-linejoin="round"/>
    <path d="M 189.09336853027344 111.49384307861328 C 156.6907501220703 89.1857681274414 168.8621063232422 97.58196258544922 144.98077392578125 86.0899429321289" stroke-width="3.0" fill="none" stroke="rgb(0, 0, 0)" stroke-opacity="1.0" stroke-linecap="round" stroke-linejoin="round"/>
    <path d="M 87.40423583984375 21.107219696044922 C 122.68389892578125 31.08392906188965 92.43120574951172 32.11869430541992 141.56088256835938 30.289657592773438" stroke-width="3.0" fill="none" stroke="rgb(0, 0, 0)" stroke-opacity="1.0" stroke-linecap="round" stroke-linejoin="round"/>
    <path d="M 63.51827621459961 116.57585144042969 C 64.88062286376953 108.11019134521484 56.940860748291016 127.93289947509766 68.75604248046875 130.85684204101562" stroke-width="3.0" fill="none" stroke="rgb(0, 0, 0)" stroke-opacity="1.0" stroke-linecap="round" stroke-linejoin="round"/>
    <path d="M 137.3326873779297 105.2085952758789 C 111.95304107666016 91.919677734375 120.885009765625 120.98168182373047 107.4381332397461 87.51313018798828" stroke-width="3.0" fill="none" stroke="rgb(0, 0, 0)" stroke-opacity="1.0" stroke-linecap="round" stroke-linejoin="round"/>
    <path d="M 33.64237594604492 136.76480102539062 C 26.990060806274414 122.6618423461914 32.68190383911133 82.79810333251953 61.03948974609375 66.52115631103516" stroke-width="3.0" fill="none" stroke="rgb(0, 0, 0)" stroke-opacity="1.0" stroke-linecap="round" stroke-linejoin="round"/>
    <path d="M 108.37458801269531 197.40756225585938 C 75.40617370605469 203.29278564453125 76.61150360107422 198.8692169189453 102.48379516601562 198.9524688720703" stroke-width="3.0" fill="none" stroke="rgb(0, 0, 0)" stroke-opacity="1.0" stroke-linecap="round" stroke-linejoin="round"/>
    <path d="M 170.15794372558594 129.54331970214844 C 205.52659606933594 116.8509292602539 187.80218505859375 88.88133239746094 158.57884216308594 87.37791442871094" stroke-width="3.0" fill="none" stroke="rgb(0, 0, 0)" stroke-opacity="1.0" stroke-linecap="round" stroke-linejoin="round"/>
    <path d="M 151.21368408203125 66.2898178100586 C 134.1893768310547 86.04767608642578 171.20216369628906 77.42951965332031 148.9879608154297 70.49852752685547" stroke-width="3.0" fill="none" stroke="rgb(0, 0, 0)" stroke-opacity="1.0" stroke-linecap="round" stroke-linejoin="round"/>
    <path d="M 142.84251403808594 77.70575714111328 C 142.9789276123047 40.769927978515625 192.500244140625 112.5267333984375 177.95436096191406 41.80290603637695" stroke-width="3.0" fill="none" stroke="rgb(0, 0, 0)" stroke-opacity="1.0" stroke-linecap="round" stroke-linejoin="round"/>
    <path d="M 147.76490783691406 99.0712661743164 C 171.15625 104.15489196777344 172.9961700439453 101.6609115600586 182.97447204589844 120.28720092773438" stroke-width="3.0" fill="none" stroke="rgb(0, 0, 0)" stroke-opacity="1.0" stroke-linecap="round" stroke-linejoin="round"/>
    <path d="M 176.24197387695312 16.407621383666992 C 171.1059112548828 39.510948181152344 170.4158172607422 21.166431427001953 156.5436553955078 38.36533737182617" stroke-width="3.0" fill="none" stroke="rgb(0, 0, 0)" stroke-opacity="1.0" stroke-linecap="round" stroke-linejoin="round"/>
    <path d="M 120.27826690673828 105.80567169189453 C 142.9419708251953 104.32908630371094 129.63323974609375 114.67789459228516 119.91913604736328 106.02356719970703" stroke-width="3.0" fill="none" stroke="rgb(0, 0, 0)" stroke-opacity="1.0" stroke-linecap="round" stroke-linejoin="round"/>
    <path d="M 67.78596496582031 118.13463592529297 C 58.308380126953125 112.97238159179688 64.1793441772461 108.22047424316406 63.850704193115234 119.49980163574219" stroke-width="3.0" fill="none" stroke="rgb(0, 0, 0)" stroke-opacity="1.0" stroke-linecap="round" stroke-linejoin="round"/>
    <path d="M 123.53276824951172 76.50826263427734 C 119.9253921508789 37.624881744384766 112.9808349609375 61.26396179199219 118.0596923828125 32.22269058227539" stroke-width="3.0" fill="none" stroke="rgb(0, 0, 0)" stroke-opacity="1.0" stroke-linecap="round" stroke-linejoin="round"/>
    <path d="M 151.03468322753906 26.591468811035156 C 144.89869689941406 35.26542663574219 164.07675170898438 8.030662536621094 177.52438354492188 8.33212661743164" stroke-width="3.0" fill="none" stroke="rgb(0, 0, 0)" stroke-opacity="1.0" stroke-linecap="round" stroke-linejoin="round"/>
  </g>
</svg>
