<?xml version="1.0" ?>
<svg xmlns="http://www.w3.org/2000/svg" version="1.1" width="224" height="224">
  <defs/>
  <g>
    <path d="M 50.79294967651367 117.15374755859375 C 53.39317321777344 119.39643096923828 41.43376159667969 105.72676849365234 40.20402145385742 100.35521697998047" stroke-width="3.0" fill="none" stroke="rgb(0, 0, 0)" stroke-opacity="1.0" stroke-linecap="round" stroke-linejoin="round"/>
    <path d="M 182.46774291992188 126.48539733886719 C 183.5869140625 117.2168960571289 188.48594665527344 117.02565002441406 188.14111328125 119.94361877441406" stroke-width="3.0" fill="none" stroke="rgb(0, 0, 0)" stroke-opacity="1.0" stroke-linecap="round" stroke-linejoin="round"/>
    <path d="M 49.32244110107422 114.77017211914062 C 50.50600051879883 109.99716186523438 46.09896469116211 113.77119445800781 53.01239776611328 121.33747100830078" stroke-width="3.0" fill="none" stroke="rgb(0, 0, 0)" stroke-opacity="1.0" stroke-linecap="round" stroke-linejoin="round"/>
    <path d="M 182.2351837158203 99.01522064208984 C 153.53390502929688 91.04740905761719 171.49444580078125 80.80984497070312 196.1250762939453 113.56808471679688" stroke-width="3.0" fill="none" stroke="rgb(0, 0, 0)" stroke-opacity="1.0" stroke-linecap="round" stroke-linejoin="round"/>
    <path d="M 184.51219177246094 74.99378204345703 C 184.6471405029297 96.86507415771484 174.52505493164062 86.29940795898438 185.12466430664062 65.274169921875" stroke-width="3.0" fill="none" stroke="rgb(0, 0, 0)" stroke-opacity="1.0" stroke-linecap="round" stroke-linejoin="round"/>
    <path d="M 131.0965576171875 103.53337860107422 C 151.35696411132812 115.73516845703125 104.29877471923828 103.62541198730469 133.14207458496094 104.11408996582031" stroke-width="3.0" fill="none" stroke="rgb(0, 0, 0)" stroke-opacity="1.0" stroke-linecap="round" stroke-linejoin="round"/>
    <path d="M 167.28591918945312 98.02263641357422 C 195.90139770507812 72.32948303222656 184.0218048095703 76.0409164428711 150.67433166503906 85.7575454711914" stroke-width="3.0" fill="none" stroke="rgb(0, 0, 0)" stroke-opacity="1.0" stroke-linecap="round" stroke-linejoin="round"/>
    <path d="M 51.36892318725586 178.92294311523438 C 37.55181121826172 151.49070739746094 49.01673126220703 161.3135223388672 40.87712097167969 152.50791931152344" stroke-width="3.0" fill="none" stroke="rgb(0, 0, 0)" stroke-opacity="1.0" stroke-linecap="round" stroke-linejoin="round"/>
    <path d="M 66.44033813476562 189.83702087402344 C 89.21409606933594 201.55592346191406 108.06155395507812 197.29725646972656 109.4337387084961 195.07711791992188" stroke-width="3.0" fill="none" stroke="rgb(0, 0, 0)" stroke-opacity="1.0" stroke-linecap="round" stroke-linejoin="round"/>
    <path d="M 88.89432525634766 30.777118682861328 C 89.59893035888672 68.91712188720703 91.69037628173828 22.060468673706055 89.5286865234375 44.04576110839844" stroke-width="3.0" fill="none" stroke="rgb(0, 0, 0)" stroke-opacity="1.0" stroke-linecap="round" stroke-linejoin="round"/>
    <path d="M 56.459495544433594 126.59559631347656 C 66.6426773071289 142.58941650390625 86.55227661132812 148.26136779785156 87.46332550048828 146.6342315673828" stroke-width="3.0" fill="none" stroke="rgb(0, 0, 0)" stroke-opacity="1.0" stroke-linecap="round" stroke-linejoin="round"/>
    <path d="M 151.39456176757812 71.4201431274414 C 206.8140869140625 70.32481384277344 183.8548126220703 85.62020874023438 145.5059356689453 86.55552673339844" stroke-width="3.0" fill="none" stroke="rgb(0, 0, 0)" stroke-opacity="1.0" stroke-linecap="round" stroke-linejoin="round"/>
    <path d="M 147.03260803222656 99.64230346679688 C 174.81654357910156 100.70346069335938 170.0204315185547 99.53016662597656 189.29928588867188 110.55232238769531" stroke-width="3.0" fill="none" stroke="rgb(0, 0, 0)" stroke-opacity="1.0" stroke-linecap="round" stroke-linejoin="round"/>
    <path d="M 97.51947784423828 153.7278594970703 C 124.176513671875 158.6717071533203 110.73835754394531 187.0252685546875 111.6163558959961 187.2384490966797" stroke-width="3.0" fill="none" stroke="rgb(0, 0, 0)" stroke-opacity="1.0" stroke-linecap="round" stroke-linejoin="round"/>
    <path d="M 172.9898681640625 9.375717163085938 C 195.07484436035156 0.004534512758255005 175.00836181640625 48.59595489501953 184.47714233398438 61.06357192993164" stroke-width="3.0" fill="none" stroke="rgb(0, 0, 0)" stroke-opacity="1.0" stroke-linecap="round" stroke-linejoin="round"/>
    <path d="M 130.6622314453125 31.238323211669922 C 127.2851333618164 54.31182098388672 136.00482177734375 37.98818588256836 131.07687377929688 68.06437683105469" stroke-width="3.0" fill="none" stroke="rgb(0, 0, 0)" stroke-opacity="1.0" stroke-linecap="round" stroke-linejoin="round"/>
    <path d="M 95.45117950439453 45.1180534362793 C 69.75697326660156 -0.15233179926872253 82.61370086669922 3.75832462310791 102.79808807373047 38.95624542236328" stroke-width="3.0" fill="none" stroke="rgb(0, 0, 0)" stroke-opacity="1.0" stroke-linecap="round" stroke-linejoin="round"/>
    <path d="M 45.022125244140625 162.359619140625 C 41.35528564453125 151.81130981445312 39.05747985839844 151.31455993652344 41.61810302734375 154.2080078125" stroke-width="3.0" fill="none" stroke="rgb(0, 0, 0)" stroke-opacity="1.0" stroke-linecap="round" stroke-linejoin="round"/>
    <path d="M 31.159400939941406 108.759033203125 C 25.800783157348633 126.47452545166016 36.0537223815918 142.99717712402344 41.758140563964844 154.50079345703125" stroke-width="3.0" fill="none" stroke="rgb(0, 0, 0)" stroke-opacity="1.0" stroke-linecap="round" stroke-linejoin="round"/>
    <path d="M 85.77688598632812 148.28546142578125 C 100.0096435546875 154.14996337890625 101.71570587158203 156.025634765625 96.46417236328125 153.27696228027344" stroke-width="3.0" fill="none" stroke="rgb(0, 0, 0)" stroke-opacity="1.0" stroke-linecap="round" stroke-linejoin="round"/>
    <path d="M 76.17440795898438 196.33132934570312 C 48.043907165527344 178.75445556640625 62.641441345214844 181.41043090820312 45.59686279296875 171.12124633789062" stroke-width="3.0" fill="none" stroke="rgb(0, 0, 0)" stroke-opacity="1.0" stroke-linecap="round" stroke-linejoin="round"/>
    <path d="M 43.55899429321289 164.1114959716797 C 57.984596252441406 182.63912963867188 42.08028793334961 160.68685913085938 39.225948333740234 150.28746032714844" stroke-width="3.0" fill="none" stroke="rgb(0, 0, 0)" stroke-opacity="1.0" stroke-linecap="round" stroke-linejoin="round"/>
    <path d="M 84.29718017578125 51.76151657104492 C 60.046852111816406 49.09713363647461 47.57454299926758 76.12633514404297 31.25750160217285 107.5293960571289" stroke-width="3.0" fill="none" stroke="rgb(0, 0, 0)" stroke-opacity="1.0" stroke-linecap="round" stroke-linejoin="round"/>
    <path d="M 146.495849609375 142.77542114257812 C 142.63623046875 164.14370727539062 120.70915222167969 150.7226104736328 133.54847717285156 160.4091796875" stroke-width="3.0" fill="none" stroke="rgb(0, 0, 0)" stroke-opacity="1.0" stroke-linecap="round" stroke-linejoin="round"/>
    <path d="M 139.97073364257812 30.002792358398438 C 148.4287109375 60.035682678222656 136.09893798828125 51.98371887207031 140.5133056640625 79.7949447631836" stroke-width="3.0" fill="none" stroke="rgb(0, 0, 0)" stroke-opacity="1.0" stroke-linecap="round" stroke-linejoin="round"/>
    <path d="M 145.64048767089844 102.28109741210938 C 118.11380004882812 111.80329895019531 109.56149291992188 104.66779327392578 130.5642547607422 110.0224609375" stroke-width="3.0" fill="none" stroke="rgb(0, 0, 0)" stroke-opacity="1.0" stroke-linecap="round" stroke-linejoin="round"/>
    <path d="M 139.07772827148438 72.94403839111328 C 146.22714233398438 50.58124542236328 147.2556610107422 55.211029052734375 142.04202270507812 61.31768798828125" stroke-width="3.0" fill="none" stroke="rgb(0, 0, 0)" stroke-opacity="1.0" stroke-linecap="round" stroke-linejoin="round"/>
    <path d="M 121.81248474121094 184.8313446044922 C 89.8945541381836 199.9803466796875 121.3983154296875 203.65162658691406 138.26275634765625 160.13336181640625" stroke-width="3.0" fill="none" stroke="rgb(0, 0, 0)" stroke-opacity="1.0" stroke-linecap="round" stroke-linejoin="round"/>
    <path d="M 196.6477813720703 95.3493423461914 C 157.58477783203125 69.1915512084961 130.74203491210938 96.3976058959961 185.62359619140625 85.582763671875" stroke-width="3.0" fill="none" stroke="rgb(0, 0, 0)" stroke-opacity="1.0" stroke-linecap="round" stroke-linejoin="round"/>
    <path d="M 163.25436401367188 71.46184539794922 C 188.75926208496094 67.26789855957031 195.52610778808594 80.74034881591797 168.43276977539062 73.16084289550781" stroke-width="3.0" fill="none" stroke="rgb(0, 0, 0)" stroke-opacity="1.0" stroke-linecap="round" stroke-linejoin="round"/>
    <path d="M 112.48186492919922 78.90088653564453 C 86.25606536865234 70.28638458251953 141.76901245117188 74.42544555664062 105.9774169921875 78.30706787109375" stroke-width="3.0" fill="none" stroke="rgb(0, 0, 0)" stroke-opacity="1.0" stroke-linecap="round" stroke-linejoin="round"/>
    <path d="M 138.58026123046875 158.87997436523438 C 130.98016357421875 153.6766815185547 126.13521575927734 160.3258514404297 103.21615600585938 138.55429077148438" stroke-width="3.0" fill="none" stroke="rgb(0, 0, 0)" stroke-opacity="1.0" stroke-linecap="round" stroke-linejoin="round"/>
    <path d="M 123.44490051269531 91.02099609375 C 139.5800018310547 101.49858856201172 132.36680603027344 80.54835510253906 129.67218017578125 98.83622741699219" stroke-width="3.0" fill="none" stroke="rgb(0, 0, 0)" stroke-opacity="1.0" stroke-linecap="round" stroke-linejoin="round"/>
    <path d="M 188.62779235839844 101.05602264404297 C 177.72731018066406 86.0740966796875 185.8800811767578 95.98041534423828 139.13121032714844 86.39412689208984" stroke-width="3.0" fill="none" stroke="rgb(0, 0, 0)" stroke-opacity="1.0" stroke-linecap="round" stroke-linejoin="round"/>
    <path d="M 81.55905151367188 9.39461898803711 C 113.43631744384766 19.724815368652344 113.80595397949219 36.29704666137695 124.2883529663086 31.957603454589844" stroke-width="3.0" fill="none" stroke="rgb(0, 0, 0)" stroke-opacity="1.0" stroke-linecap="round" stroke-linejoin="round"/>
    <path d="M 50.75585174560547 117.22799682617188 C 46.902549743652344 109.83744049072266 55.205142974853516 123.54011535644531 51.39896011352539 118.67625427246094" stroke-width="3.0" fill="none" stroke="rgb(0, 0, 0)" stroke-opacity="1.0" stroke-linecap="round" stroke-linejoin="round"/>
    <path d="M 111.31082153320312 103.26249694824219 C 98.11170959472656 87.867431640625 112.11299896240234 109.85394287109375 102.40831756591797 90.51554107666016" stroke-width="3.0" fill="none" stroke="rgb(0, 0, 0)" stroke-opacity="1.0" stroke-linecap="round" stroke-linejoin="round"/>
    <path d="M 29.737728118896484 128.66017150878906 C 29.72036361694336 101.9297866821289 34.77275085449219 103.14224243164062 29.422584533691406 116.77782440185547" stroke-width="3.0" fill="none" stroke="rgb(0, 0, 0)" stroke-opacity="1.0" stroke-linecap="round" stroke-linejoin="round"/>
    <path d="M 89.6659927368164 197.44493103027344 C 73.79866027832031 192.99288940429688 70.4891128540039 195.86167907714844 93.78666687011719 198.18536376953125" stroke-width="3.0" fill="none" stroke="rgb(0, 0, 0)" stroke-opacity="1.0" stroke-linecap="round" stroke-linejoin="round"/>
    <path d="M 146.4530029296875 145.01918029785156 C 214.1116485595703 115.753662109375 182.27037048339844 99.46437072753906 152.3846893310547 93.03522491455078" stroke-width="3.0" fill="none" stroke="rgb(0, 0, 0)" stroke-opacity="1.0" stroke-linecap="round" stroke-linejoin="round"/>
    <path d="M 154.0971221923828 73.3325424194336 C 120.4637680053711 75.43927001953125 175.15188598632812 81.9561538696289 148.9185791015625 68.95146942138672" stroke-width="3.0" fill="none" stroke="rgb(0, 0, 0)" stroke-opacity="1.0" stroke-linecap="round" stroke-linejoin="round"/>
    <path d="M 144.5081329345703 76.5123062133789 C 148.1884002685547 49.39616775512695 184.4522247314453 99.39854431152344 183.0290069580078 54.759376525878906" stroke-width="3.0" fill="none" stroke="rgb(0, 0, 0)" stroke-opacity="1.0" stroke-linecap="round" stroke-linejoin="round"/>
    <path d="M 151.47488403320312 97.9869613647461 C 160.3447723388672 102.93790435791016 172.39584350585938 108.70455169677734 185.723876953125 113.43487548828125" stroke-width="3.0" fill="none" stroke="rgb(0, 0, 0)" stroke-opacity="1.0" stroke-linecap="round" stroke-linejoin="round"/>
    <path d="M 179.4014892578125 14.756307601928711 C 170.53567504882812 45.600948333740234 175.26611328125 21.695348739624023 161.40768432617188 38.1663818359375" stroke-width="3.0" fill="none" stroke="rgb(0, 0, 0)" stroke-opacity="1.0" stroke-linecap="round" stroke-linejoin="round"/>
    <path d="M 125.91405487060547 103.5154037475586 C 148.7934112548828 103.97457122802734 126.0960693359375 113.7158432006836 106.3290023803711 101.62566375732422" stroke-width="3.0" fill="none" stroke="rgb(0, 0, 0)" stroke-opacity="1.0" stroke-linecap="round" stroke-linejoin="round"/>
    <path d="M 50.384735107421875 116.7421646118164 C 52.045719146728516 116.49725341796875 45.86585998535156 108.8563003540039 59.15593338012695 131.0365753173828" stroke-width="3.0" fill="none" stroke="rgb(0, 0, 0)" stroke-opacity="1.0" stroke-linecap="round" stroke-linejoin="round"/>
    <path d="M 123.47136688232422 78.82281494140625 C 129.1675262451172 56.01825714111328 119.77847290039062 54.378997802734375 123.98470306396484 34.44487762451172" stroke-width="3.0" fill="none" stroke="rgb(0, 0, 0)" stroke-opacity="1.0" stroke-linecap="round" stroke-linejoin="round"/>
    <path d="M 146.23472595214844 29.154491424560547 C 144.7216339111328 40.321022033691406 149.94540405273438 15.954216003417969 175.820556640625 8.91964054107666" stroke-width="3.0" fill="none" stroke="rgb(0, 0, 0)" stroke-opacity="1.0" stroke-linecap="round" stroke-linejoin="round"/>
  </g>
</svg>
