<?xml version="1.0" ?>
<svg xmlns="http://www.w3.org/2000/svg" version="1.1" width="224" height="224">
  <defs/>
  <g>
    <path d="M 53.72065734863281 118.23849487304688 C 54.63745880126953 119.29695892333984 46.49626159667969 107.7054672241211 43.0415153503418 95.34970092773438" stroke-width="3.0" fill="none" stroke="rgb(0, 0, 0)" stroke-opacity="1.0" stroke-linecap="round" stroke-linejoin="round"/>
    <path d="M 179.8839874267578 127.10846710205078 C 180.47447204589844 110.03258514404297 186.0654754638672 117.6163330078125 186.0157928466797 119.53953552246094" stroke-width="3.0" fill="none" stroke="rgb(0, 0, 0)" stroke-opacity="1.0" stroke-linecap="round" stroke-linejoin="round"/>
    <path d="M 50.685997009277344 111.66130065917969 C 51.202125549316406 113.89794158935547 48.30533218383789 106.48522186279297 52.23809814453125 114.99786376953125" stroke-width="3.0" fill="none" stroke="rgb(0, 0, 0)" stroke-opacity="1.0" stroke-linecap="round" stroke-linejoin="round"/>
    <path d="M 185.09100341796875 97.37345886230469 C 154.85104370117188 94.73442840576172 174.58384704589844 80.01630401611328 195.84869384765625 114.17387390136719" stroke-width="3.0" fill="none" stroke="rgb(0, 0, 0)" stroke-opacity="1.0" stroke-linecap="round" stroke-linejoin="round"/>
    <path d="M 186.65289306640625 77.0317153930664 C 185.1011199951172 93.87214660644531 181.07345581054688 84.2446060180664 186.2901611328125 65.12969970703125" stroke-width="3.0" fill="none" stroke="rgb(0, 0, 0)" stroke-opacity="1.0" stroke-linecap="round" stroke-linejoin="round"/>
    <path d="M 129.8318634033203 100.43101501464844 C 132.86300659179688 116.50022888183594 111.17670440673828 99.60255432128906 129.88784790039062 108.73075103759766" stroke-width="3.0" fill="none" stroke="rgb(0, 0, 0)" stroke-opacity="1.0" stroke-linecap="round" stroke-linejoin="round"/>
    <path d="M 163.87367248535156 96.70590209960938 C 202.25543212890625 67.61611938476562 184.57034301757812 69.7703857421875 159.75430297851562 85.05979919433594" stroke-width="3.0" fill="none" stroke="rgb(0, 0, 0)" stroke-opacity="1.0" stroke-linecap="round" stroke-linejoin="round"/>
    <path d="M 52.796913146972656 179.64883422851562 C 34.704620361328125 153.48069763183594 44.26320266723633 159.0934600830078 40.62373733520508 155.8401641845703" stroke-width="3.0" fill="none" stroke="rgb(0, 0, 0)" stroke-opacity="1.0" stroke-linecap="round" stroke-linejoin="round"/>
    <path d="M 68.88404846191406 189.24703979492188 C 87.2238998413086 199.7555694580078 109.05695343017578 193.7771453857422 104.63407135009766 195.31861877441406" stroke-width="3.0" fill="none" stroke="rgb(0, 0, 0)" stroke-opacity="1.0" stroke-linecap="round" stroke-linejoin="round"/>
    <path d="M 87.45010375976562 21.7397403717041 C 94.51457214355469 68.32008361816406 87.56270599365234 23.225540161132812 92.18988800048828 59.04446029663086" stroke-width="3.0" fill="none" stroke="rgb(0, 0, 0)" stroke-opacity="1.0" stroke-linecap="round" stroke-linejoin="round"/>
    <path d="M 59.34300231933594 128.36151123046875 C 68.2423095703125 138.99534606933594 85.00090026855469 146.2015380859375 83.54104614257812 147.25906372070312" stroke-width="3.0" fill="none" stroke="rgb(0, 0, 0)" stroke-opacity="1.0" stroke-linecap="round" stroke-linejoin="round"/>
    <path d="M 156.65016174316406 72.83867645263672 C 201.87533569335938 74.0303955078125 179.6354217529297 82.98153686523438 145.61839294433594 85.4981460571289" stroke-width="3.0" fill="none" stroke="rgb(0, 0, 0)" stroke-opacity="1.0" stroke-linecap="round" stroke-linejoin="round"/>
    <path d="M 149.91390991210938 100.95603942871094 C 176.1688690185547 100.26921844482422 171.84251403808594 101.3249282836914 186.97738647460938 107.0107650756836" stroke-width="3.0" fill="none" stroke="rgb(0, 0, 0)" stroke-opacity="1.0" stroke-linecap="round" stroke-linejoin="round"/>
    <path d="M 95.69444274902344 155.52105712890625 C 115.10761260986328 163.39834594726562 104.55496978759766 186.9665069580078 111.10157012939453 190.96417236328125" stroke-width="3.0" fill="none" stroke="rgb(0, 0, 0)" stroke-opacity="1.0" stroke-linecap="round" stroke-linejoin="round"/>
    <path d="M 171.26052856445312 9.854286193847656 C 192.60862731933594 1.1821599006652832 177.19290161132812 49.53841781616211 185.07403564453125 59.80695343017578" stroke-width="3.0" fill="none" stroke="rgb(0, 0, 0)" stroke-opacity="1.0" stroke-linecap="round" stroke-linejoin="round"/>
    <path d="M 134.23654174804688 32.37690353393555 C 133.89605712890625 69.18571472167969 134.99118041992188 39.53633499145508 131.58349609375 65.23423767089844" stroke-width="3.0" fill="none" stroke="rgb(0, 0, 0)" stroke-opacity="1.0" stroke-linecap="round" stroke-linejoin="round"/>
    <path d="M 94.44102478027344 49.05168151855469 C 70.79214477539062 -3.532118320465088 81.6639633178711 5.005860805511475 99.2463150024414 42.93466567993164" stroke-width="3.0" fill="none" stroke="rgb(0, 0, 0)" stroke-opacity="1.0" stroke-linecap="round" stroke-linejoin="round"/>
    <path d="M 43.18376922607422 162.994873046875 C 42.87248611450195 153.74346923828125 44.32530975341797 159.92160034179688 43.124359130859375 161.26516723632812" stroke-width="3.0" fill="none" stroke="rgb(0, 0, 0)" stroke-opacity="1.0" stroke-linecap="round" stroke-linejoin="round"/>
    <path d="M 32.932979583740234 104.7829818725586 C 24.90440559387207 126.80018615722656 36.22412872314453 142.25128173828125 40.488712310791016 150.82777404785156" stroke-width="3.0" fill="none" stroke="rgb(0, 0, 0)" stroke-opacity="1.0" stroke-linecap="round" stroke-linejoin="round"/>
    <path d="M 87.46622467041016 146.1268310546875 C 97.0901107788086 157.25714111328125 98.99214172363281 158.14773559570312 90.51288604736328 150.32699584960938" stroke-width="3.0" fill="none" stroke="rgb(0, 0, 0)" stroke-opacity="1.0" stroke-linecap="round" stroke-linejoin="round"/>
    <path d="M 76.52685546875 195.38436889648438 C 47.71015930175781 178.5209197998047 66.20972442626953 186.102294921875 47.5312614440918 171.4198760986328" stroke-width="3.0" fill="none" stroke="rgb(0, 0, 0)" stroke-opacity="1.0" stroke-linecap="round" stroke-linejoin="round"/>
    <path d="M 43.83336639404297 162.20263671875 C 52.51203536987305 175.63543701171875 38.46026611328125 159.95008850097656 39.588165283203125 145.28155517578125" stroke-width="3.0" fill="none" stroke="rgb(0, 0, 0)" stroke-opacity="1.0" stroke-linecap="round" stroke-linejoin="round"/>
    <path d="M 84.47734069824219 53.9781379699707 C 57.30084991455078 58.31303024291992 47.603004455566406 74.68463897705078 32.86838150024414 107.12141418457031" stroke-width="3.0" fill="none" stroke="rgb(0, 0, 0)" stroke-opacity="1.0" stroke-linecap="round" stroke-linejoin="round"/>
    <path d="M 148.59080505371094 159.11642456054688 C 142.689697265625 161.7411346435547 127.51051330566406 145.31419372558594 138.88363647460938 160.26412963867188" stroke-width="3.0" fill="none" stroke="rgb(0, 0, 0)" stroke-opacity="1.0" stroke-linecap="round" stroke-linejoin="round"/>
    <path d="M 141.54835510253906 32.573848724365234 C 150.5750274658203 55.29649353027344 134.76553344726562 55.00455856323242 137.66705322265625 79.85431671142578" stroke-width="3.0" fill="none" stroke="rgb(0, 0, 0)" stroke-opacity="1.0" stroke-linecap="round" stroke-linejoin="round"/>
    <path d="M 144.99815368652344 100.38075256347656 C 131.82769775390625 117.12288665771484 120.64619445800781 102.51789093017578 128.96514892578125 101.48383331298828" stroke-width="3.0" fill="none" stroke="rgb(0, 0, 0)" stroke-opacity="1.0" stroke-linecap="round" stroke-linejoin="round"/>
    <path d="M 141.46539306640625 74.17089080810547 C 149.21258544921875 50.20885467529297 150.6682891845703 57.46443557739258 155.6408233642578 51.44750213623047" stroke-width="3.0" fill="none" stroke="rgb(0, 0, 0)" stroke-opacity="1.0" stroke-linecap="round" stroke-linejoin="round"/>
    <path d="M 119.94324493408203 186.3837127685547 C 97.19334411621094 189.66639709472656 113.8023910522461 201.3382568359375 134.52520751953125 168.61573791503906" stroke-width="3.0" fill="none" stroke="rgb(0, 0, 0)" stroke-opacity="1.0" stroke-linecap="round" stroke-linejoin="round"/>
    <path d="M 192.0066680908203 93.68975067138672 C 160.7375946044922 74.43695068359375 146.66720581054688 102.30885314941406 188.0316619873047 85.21946716308594" stroke-width="3.0" fill="none" stroke="rgb(0, 0, 0)" stroke-opacity="1.0" stroke-linecap="round" stroke-linejoin="round"/>
    <path d="M 166.68191528320312 71.52772521972656 C 193.04360961914062 69.7503433227539 196.22874450683594 73.76383209228516 163.89111328125 72.87342071533203" stroke-width="3.0" fill="none" stroke="rgb(0, 0, 0)" stroke-opacity="1.0" stroke-linecap="round" stroke-linejoin="round"/>
    <path d="M 108.32771301269531 79.52873992919922 C 85.47254943847656 71.23675537109375 145.61729431152344 74.73404693603516 105.55998229980469 82.0394287109375" stroke-width="3.0" fill="none" stroke="rgb(0, 0, 0)" stroke-opacity="1.0" stroke-linecap="round" stroke-linejoin="round"/>
    <path d="M 141.3379669189453 159.54095458984375 C 137.25770568847656 151.0926971435547 125.95500946044922 152.08773803710938 108.74104309082031 140.6468963623047" stroke-width="3.0" fill="none" stroke="rgb(0, 0, 0)" stroke-opacity="1.0" stroke-linecap="round" stroke-linejoin="round"/>
    <path d="M 122.85246276855469 89.60812377929688 C 141.1204833984375 97.29035186767578 133.17831420898438 77.39503479003906 128.21307373046875 96.59612274169922" stroke-width="3.0" fill="none" stroke="rgb(0, 0, 0)" stroke-opacity="1.0" stroke-linecap="round" stroke-linejoin="round"/>
    <path d="M 187.81256103515625 99.28910827636719 C 174.71707153320312 82.70933532714844 185.5613250732422 100.91876220703125 140.32379150390625 83.9699478149414" stroke-width="3.0" fill="none" stroke="rgb(0, 0, 0)" stroke-opacity="1.0" stroke-linecap="round" stroke-linejoin="round"/>
    <path d="M 83.59469604492188 11.494324684143066 C 115.06781768798828 17.289735794067383 114.04428100585938 34.95624542236328 128.61866760253906 31.161283493041992" stroke-width="3.0" fill="none" stroke="rgb(0, 0, 0)" stroke-opacity="1.0" stroke-linecap="round" stroke-linejoin="round"/>
    <path d="M 51.98188781738281 116.98564910888672 C 51.12743377685547 108.874755859375 55.25490951538086 125.06144714355469 52.00697708129883 115.90621948242188" stroke-width="3.0" fill="none" stroke="rgb(0, 0, 0)" stroke-opacity="1.0" stroke-linecap="round" stroke-linejoin="round"/>
    <path d="M 121.8347396850586 100.62554931640625 C 97.08612823486328 86.79058074951172 122.6025161743164 101.59008026123047 109.25712585449219 93.55220031738281" stroke-width="3.0" fill="none" stroke="rgb(0, 0, 0)" stroke-opacity="1.0" stroke-linecap="round" stroke-linejoin="round"/>
    <path d="M 30.047990798950195 123.65856170654297 C 33.54930877685547 98.70280456542969 34.682559967041016 105.29931640625 30.22665786743164 117.79994201660156" stroke-width="3.0" fill="none" stroke="rgb(0, 0, 0)" stroke-opacity="1.0" stroke-linecap="round" stroke-linejoin="round"/>
    <path d="M 92.39612579345703 195.17800903320312 C 74.135009765625 195.6403045654297 70.872802734375 196.36325073242188 94.46906280517578 195.326416015625" stroke-width="3.0" fill="none" stroke="rgb(0, 0, 0)" stroke-opacity="1.0" stroke-linecap="round" stroke-linejoin="round"/>
    <path d="M 157.5153350830078 140.1768798828125 C 207.11976623535156 109.50797271728516 178.0958709716797 98.17745208740234 151.47471618652344 92.09478759765625" stroke-width="3.0" fill="none" stroke="rgb(0, 0, 0)" stroke-opacity="1.0" stroke-linecap="round" stroke-linejoin="round"/>
    <path d="M 152.76133728027344 76.81145477294922 C 129.76205444335938 76.58512878417969 165.51699829101562 86.65433502197266 148.65000915527344 71.1871566772461" stroke-width="3.0" fill="none" stroke="rgb(0, 0, 0)" stroke-opacity="1.0" stroke-linecap="round" stroke-linejoin="round"/>
    <path d="M 146.757568359375 75.9498062133789 C 143.50714111328125 56.02730941772461 186.441162109375 98.82381439208984 185.02392578125 62.80522537231445" stroke-width="3.0" fill="none" stroke="rgb(0, 0, 0)" stroke-opacity="1.0" stroke-linecap="round" stroke-linejoin="round"/>
    <path d="M 148.70852661132812 96.9474105834961 C 158.4918212890625 104.31214141845703 170.90646362304688 107.63792419433594 184.16000366210938 112.25936889648438" stroke-width="3.0" fill="none" stroke="rgb(0, 0, 0)" stroke-opacity="1.0" stroke-linecap="round" stroke-linejoin="round"/>
    <path d="M 176.9082794189453 16.466270446777344 C 164.87210083007812 40.499107360839844 178.8189239501953 27.427841186523438 164.08851623535156 43.228485107421875" stroke-width="3.0" fill="none" stroke="rgb(0, 0, 0)" stroke-opacity="1.0" stroke-linecap="round" stroke-linejoin="round"/>
    <path d="M 126.21681213378906 105.96449279785156 C 153.31517028808594 104.2217788696289 128.13507080078125 107.23631286621094 113.0820083618164 100.26899719238281" stroke-width="3.0" fill="none" stroke="rgb(0, 0, 0)" stroke-opacity="1.0" stroke-linecap="round" stroke-linejoin="round"/>
    <path d="M 51.493896484375 113.22293853759766 C 52.38410186767578 115.80313110351562 46.76774978637695 108.27030181884766 58.651058197021484 126.67339324951172" stroke-width="3.0" fill="none" stroke="rgb(0, 0, 0)" stroke-opacity="1.0" stroke-linecap="round" stroke-linejoin="round"/>
    <path d="M 121.91624450683594 82.97857666015625 C 131.87860107421875 55.76918029785156 119.9335708618164 53.95954513549805 123.81321716308594 36.99394226074219" stroke-width="3.0" fill="none" stroke="rgb(0, 0, 0)" stroke-opacity="1.0" stroke-linecap="round" stroke-linejoin="round"/>
    <path d="M 146.14334106445312 31.372798919677734 C 146.98463439941406 36.884944915771484 152.09103393554688 17.98368263244629 174.43051147460938 7.240856170654297" stroke-width="3.0" fill="none" stroke="rgb(0, 0, 0)" stroke-opacity="1.0" stroke-linecap="round" stroke-linejoin="round"/>
  </g>
</svg>
