<?xml version="1.0" ?>
<svg xmlns="http://www.w3.org/2000/svg" version="1.1" width="224" height="224">
  <defs/>
  <g>
    <path d="M 56.4827766418457 115.52198028564453 C 59.86940002441406 116.63111114501953 50.27988815307617 111.30892944335938 46.186431884765625 97.20704650878906" stroke-width="3.0" fill="none" stroke="rgb(0, 0, 0)" stroke-opacity="1.0" stroke-linecap="round" stroke-linejoin="round"/>
    <path d="M 178.91603088378906 128.88186645507812 C 178.40928649902344 111.44549560546875 178.843017578125 114.43592071533203 183.2575225830078 121.95225524902344" stroke-width="3.0" fill="none" stroke="rgb(0, 0, 0)" stroke-opacity="1.0" stroke-linecap="round" stroke-linejoin="round"/>
    <path d="M 54.63316345214844 110.69775390625 C 54.91522216796875 118.29898071289062 54.480995178222656 108.45928955078125 56.23550033569336 106.96973419189453" stroke-width="3.0" fill="none" stroke="rgb(0, 0, 0)" stroke-opacity="1.0" stroke-linecap="round" stroke-linejoin="round"/>
    <path d="M 185.51751708984375 98.80470275878906 C 156.82327270507812 97.74983978271484 172.44883728027344 86.79031372070312 194.28546142578125 113.79244232177734" stroke-width="3.0" fill="none" stroke="rgb(0, 0, 0)" stroke-opacity="1.0" stroke-linecap="round" stroke-linejoin="round"/>
    <path d="M 181.9302520751953 76.7814712524414 C 184.1284637451172 83.03294372558594 178.1448974609375 74.97160339355469 182.30140686035156 79.62277221679688" stroke-width="3.0" fill="none" stroke="rgb(0, 0, 0)" stroke-opacity="1.0" stroke-linecap="round" stroke-linejoin="round"/>
    <path d="M 131.27943420410156 101.6111068725586 C 122.46127319335938 111.71971893310547 118.2464828491211 105.93025207519531 135.9848175048828 107.06095123291016" stroke-width="3.0" fill="none" stroke="rgb(0, 0, 0)" stroke-opacity="1.0" stroke-linecap="round" stroke-linejoin="round"/>
    <path d="M 167.80966186523438 85.63092803955078 C 191.7578125 80.60404968261719 185.2587127685547 81.90608978271484 160.3798065185547 84.76363372802734" stroke-width="3.0" fill="none" stroke="rgb(0, 0, 0)" stroke-opacity="1.0" stroke-linecap="round" stroke-linejoin="round"/>
    <path d="M 55.20964431762695 182.17391967773438 C 35.34166717529297 159.4418487548828 51.071327209472656 161.51646423339844 44.39402389526367 162.67645263671875" stroke-width="3.0" fill="none" stroke="rgb(0, 0, 0)" stroke-opacity="1.0" stroke-linecap="round" stroke-linejoin="round"/>
    <path d="M 72.95256042480469 190.7281036376953 C 90.2002182006836 193.06820678710938 105.59890747070312 197.63148498535156 89.71392059326172 184.35560607910156" stroke-width="3.0" fill="none" stroke="rgb(0, 0, 0)" stroke-opacity="1.0" stroke-linecap="round" stroke-linejoin="round"/>
    <path d="M 89.8615493774414 38.16490936279297 C 91.72173309326172 52.421016693115234 91.61038208007812 33.911949157714844 92.2054214477539 52.11891174316406" stroke-width="3.0" fill="none" stroke="rgb(0, 0, 0)" stroke-opacity="1.0" stroke-linecap="round" stroke-linejoin="round"/>
    <path d="M 60.967220306396484 127.83209228515625 C 71.1074447631836 147.37557983398438 77.67278289794922 148.34585571289062 80.2232666015625 151.9895782470703" stroke-width="3.0" fill="none" stroke="rgb(0, 0, 0)" stroke-opacity="1.0" stroke-linecap="round" stroke-linejoin="round"/>
    <path d="M 165.0182342529297 82.96855163574219 C 187.4692840576172 75.51107788085938 176.34469604492188 88.81036376953125 157.18466186523438 85.23018646240234" stroke-width="3.0" fill="none" stroke="rgb(0, 0, 0)" stroke-opacity="1.0" stroke-linecap="round" stroke-linejoin="round"/>
    <path d="M 156.59344482421875 101.89766693115234 C 177.86924743652344 97.72766876220703 162.08619689941406 106.02188110351562 183.6336669921875 109.47742462158203" stroke-width="3.0" fill="none" stroke="rgb(0, 0, 0)" stroke-opacity="1.0" stroke-linecap="round" stroke-linejoin="round"/>
    <path d="M 81.64253234863281 166.5717315673828 C 86.27156829833984 184.38934326171875 93.45404815673828 186.77780151367188 96.47574615478516 190.11270141601562" stroke-width="3.0" fill="none" stroke="rgb(0, 0, 0)" stroke-opacity="1.0" stroke-linecap="round" stroke-linejoin="round"/>
    <path d="M 172.92367553710938 10.601892471313477 C 180.02935791015625 -4.6060075759887695 184.7257080078125 24.151073455810547 180.29763793945312 50.95142364501953" stroke-width="3.0" fill="none" stroke="rgb(0, 0, 0)" stroke-opacity="1.0" stroke-linecap="round" stroke-linejoin="round"/>
    <path d="M 130.26116943359375 31.62578582763672 C 127.9254150390625 48.65351486206055 123.78485107421875 31.894750595092773 124.82722473144531 66.7668228149414" stroke-width="3.0" fill="none" stroke="rgb(0, 0, 0)" stroke-opacity="1.0" stroke-linecap="round" stroke-linejoin="round"/>
    <path d="M 97.342529296875 48.95756912231445 C 66.22085571289062 -4.3433427810668945 86.21034240722656 3.965271472930908 107.51726531982422 41.497371673583984" stroke-width="3.0" fill="none" stroke="rgb(0, 0, 0)" stroke-opacity="1.0" stroke-linecap="round" stroke-linejoin="round"/>
    <path d="M 50.35439682006836 170.98239135742188 C 35.9422721862793 157.63442993164062 49.81059646606445 162.69613647460938 45.711158752441406 162.32180786132812" stroke-width="3.0" fill="none" stroke="rgb(0, 0, 0)" stroke-opacity="1.0" stroke-linecap="round" stroke-linejoin="round"/>
    <path d="M 31.397397994995117 116.56593322753906 C 31.47496223449707 132.7073974609375 34.07527160644531 140.3081512451172 41.680789947509766 153.52835083007812" stroke-width="3.0" fill="none" stroke="rgb(0, 0, 0)" stroke-opacity="1.0" stroke-linecap="round" stroke-linejoin="round"/>
    <path d="M 76.4510269165039 158.88876342773438 C 82.08011627197266 167.84494018554688 82.68767547607422 169.01502990722656 79.92728424072266 164.84365844726562" stroke-width="3.0" fill="none" stroke="rgb(0, 0, 0)" stroke-opacity="1.0" stroke-linecap="round" stroke-linejoin="round"/>
    <path d="M 73.32028198242188 191.8323516845703 C 46.871307373046875 178.62966918945312 73.55765533447266 192.4698944091797 48.971405029296875 176.0272216796875" stroke-width="3.0" fill="none" stroke="rgb(0, 0, 0)" stroke-opacity="1.0" stroke-linecap="round" stroke-linejoin="round"/>
    <path d="M 41.839385986328125 156.5701904296875 C 44.2157096862793 164.9496307373047 41.27830505371094 154.5464630126953 38.00196075439453 145.63638305664062" stroke-width="3.0" fill="none" stroke="rgb(0, 0, 0)" stroke-opacity="1.0" stroke-linecap="round" stroke-linejoin="round"/>
    <path d="M 64.49671936035156 62.05341339111328 C 45.975799560546875 74.02769470214844 48.062164306640625 73.60498809814453 33.56615447998047 107.87210845947266" stroke-width="3.0" fill="none" stroke="rgb(0, 0, 0)" stroke-opacity="1.0" stroke-linecap="round" stroke-linejoin="round"/>
    <path d="M 147.83396911621094 161.96202087402344 C 126.46556091308594 161.9071044921875 127.35311126708984 151.3009796142578 139.2183074951172 170.34059143066406" stroke-width="3.0" fill="none" stroke="rgb(0, 0, 0)" stroke-opacity="1.0" stroke-linecap="round" stroke-linejoin="round"/>
    <path d="M 140.02859497070312 30.802515029907227 C 147.8589630126953 54.35858154296875 132.20982360839844 49.33012008666992 140.57740783691406 77.58438110351562" stroke-width="3.0" fill="none" stroke="rgb(0, 0, 0)" stroke-opacity="1.0" stroke-linecap="round" stroke-linejoin="round"/>
    <path d="M 145.5334930419922 100.32575225830078 C 129.68106079101562 110.29415893554688 111.18134307861328 104.30550384521484 127.82025146484375 105.89888763427734" stroke-width="3.0" fill="none" stroke="rgb(0, 0, 0)" stroke-opacity="1.0" stroke-linecap="round" stroke-linejoin="round"/>
    <path d="M 141.47991943359375 71.49674224853516 C 143.71932983398438 53.7668342590332 151.97311401367188 49.54711151123047 147.8501434326172 52.60896301269531" stroke-width="3.0" fill="none" stroke="rgb(0, 0, 0)" stroke-opacity="1.0" stroke-linecap="round" stroke-linejoin="round"/>
    <path d="M 104.264404296875 195.90455627441406 C 79.05429077148438 178.32550048828125 93.7310791015625 210.91534423828125 124.2128677368164 185.41653442382812" stroke-width="3.0" fill="none" stroke="rgb(0, 0, 0)" stroke-opacity="1.0" stroke-linecap="round" stroke-linejoin="round"/>
    <path d="M 184.2686004638672 96.9767074584961 C 165.2701416015625 79.0374755859375 167.4363250732422 89.56360626220703 173.62440490722656 81.34888458251953" stroke-width="3.0" fill="none" stroke="rgb(0, 0, 0)" stroke-opacity="1.0" stroke-linecap="round" stroke-linejoin="round"/>
    <path d="M 172.34764099121094 86.67942810058594 C 185.9779052734375 81.69514465332031 192.4763641357422 90.72273254394531 165.02481079101562 86.06674194335938" stroke-width="3.0" fill="none" stroke="rgb(0, 0, 0)" stroke-opacity="1.0" stroke-linecap="round" stroke-linejoin="round"/>
    <path d="M 114.02626037597656 76.6365966796875 C 85.35907745361328 72.52003479003906 138.38482666015625 66.40766143798828 107.41696166992188 77.60711669921875" stroke-width="3.0" fill="none" stroke="rgb(0, 0, 0)" stroke-opacity="1.0" stroke-linecap="round" stroke-linejoin="round"/>
    <path d="M 133.4417266845703 160.75242614746094 C 137.1337432861328 162.38111877441406 127.63937377929688 161.93121337890625 115.2284927368164 149.6781768798828" stroke-width="3.0" fill="none" stroke="rgb(0, 0, 0)" stroke-opacity="1.0" stroke-linecap="round" stroke-linejoin="round"/>
    <path d="M 124.91929626464844 87.93135070800781 C 141.4465789794922 100.59711456298828 135.45693969726562 77.0660629272461 131.22853088378906 97.3253173828125" stroke-width="3.0" fill="none" stroke="rgb(0, 0, 0)" stroke-opacity="1.0" stroke-linecap="round" stroke-linejoin="round"/>
    <path d="M 188.1140594482422 92.50743865966797 C 173.36257934570312 86.85760498046875 184.0645294189453 98.81587982177734 143.94024658203125 86.33589172363281" stroke-width="3.0" fill="none" stroke="rgb(0, 0, 0)" stroke-opacity="1.0" stroke-linecap="round" stroke-linejoin="round"/>
    <path d="M 82.31692504882812 10.45687198638916 C 108.7847900390625 18.72592544555664 115.34869384765625 36.2874870300293 122.99124145507812 31.37949562072754" stroke-width="3.0" fill="none" stroke="rgb(0, 0, 0)" stroke-opacity="1.0" stroke-linecap="round" stroke-linejoin="round"/>
    <path d="M 54.135963439941406 109.6969985961914 C 52.3737678527832 108.8002700805664 61.857486724853516 120.73235321044922 57.57206726074219 112.47483825683594" stroke-width="3.0" fill="none" stroke="rgb(0, 0, 0)" stroke-opacity="1.0" stroke-linecap="round" stroke-linejoin="round"/>
    <path d="M 118.59563446044922 101.91920471191406 C 98.17225646972656 99.37386322021484 134.14276123046875 99.79798126220703 106.12281799316406 92.74223327636719" stroke-width="3.0" fill="none" stroke="rgb(0, 0, 0)" stroke-opacity="1.0" stroke-linecap="round" stroke-linejoin="round"/>
    <path d="M 30.791479110717773 117.8321304321289 C 35.63886260986328 92.2475814819336 36.205299377441406 105.1390380859375 32.69393539428711 106.868896484375" stroke-width="3.0" fill="none" stroke="rgb(0, 0, 0)" stroke-opacity="1.0" stroke-linecap="round" stroke-linejoin="round"/>
    <path d="M 85.45846557617188 194.17332458496094 C 76.1210708618164 188.3816680908203 76.90000915527344 193.02694702148438 87.2135009765625 193.78021240234375" stroke-width="3.0" fill="none" stroke="rgb(0, 0, 0)" stroke-opacity="1.0" stroke-linecap="round" stroke-linejoin="round"/>
    <path d="M 169.77597045898438 134.6605682373047 C 195.17454528808594 103.15074157714844 173.15745544433594 97.51478576660156 147.4933319091797 95.38806915283203" stroke-width="3.0" fill="none" stroke="rgb(0, 0, 0)" stroke-opacity="1.0" stroke-linecap="round" stroke-linejoin="round"/>
    <path d="M 152.25013732910156 77.72384643554688 C 140.2951202392578 65.62449645996094 147.0742645263672 88.6188735961914 156.98101806640625 72.55609130859375" stroke-width="3.0" fill="none" stroke="rgb(0, 0, 0)" stroke-opacity="1.0" stroke-linecap="round" stroke-linejoin="round"/>
    <path d="M 146.39584350585938 67.35135650634766 C 163.73170471191406 63.61109161376953 165.0561065673828 74.84807586669922 181.4769287109375 71.3408203125" stroke-width="3.0" fill="none" stroke="rgb(0, 0, 0)" stroke-opacity="1.0" stroke-linecap="round" stroke-linejoin="round"/>
    <path d="M 149.37188720703125 100.82095336914062 C 156.4176025390625 100.12895965576172 167.97532653808594 103.09364318847656 181.11312866210938 117.88600158691406" stroke-width="3.0" fill="none" stroke="rgb(0, 0, 0)" stroke-opacity="1.0" stroke-linecap="round" stroke-linejoin="round"/>
    <path d="M 174.26939392089844 20.31448745727539 C 172.0423583984375 41.04724884033203 170.83084106445312 27.979896545410156 166.36427307128906 39.95263671875" stroke-width="3.0" fill="none" stroke="rgb(0, 0, 0)" stroke-opacity="1.0" stroke-linecap="round" stroke-linejoin="round"/>
    <path d="M 122.11227416992188 107.58296966552734 C 150.80931091308594 116.74608612060547 135.123291015625 93.73716735839844 118.01837158203125 106.75170135498047" stroke-width="3.0" fill="none" stroke="rgb(0, 0, 0)" stroke-opacity="1.0" stroke-linecap="round" stroke-linejoin="round"/>
    <path d="M 52.10342025756836 104.60790252685547 C 56.46940612792969 108.56526184082031 47.9376220703125 106.08309173583984 63.17936706542969 126.71315002441406" stroke-width="3.0" fill="none" stroke="rgb(0, 0, 0)" stroke-opacity="1.0" stroke-linecap="round" stroke-linejoin="round"/>
    <path d="M 120.6962661743164 80.99772644042969 C 129.05287170410156 65.08668518066406 115.03123474121094 50.4443244934082 115.75630187988281 39.93764114379883" stroke-width="3.0" fill="none" stroke="rgb(0, 0, 0)" stroke-opacity="1.0" stroke-linecap="round" stroke-linejoin="round"/>
    <path d="M 144.6000213623047 30.687692642211914 C 153.62376403808594 24.15232276916504 150.7227783203125 18.48334503173828 175.2601776123047 7.212956428527832" stroke-width="3.0" fill="none" stroke="rgb(0, 0, 0)" stroke-opacity="1.0" stroke-linecap="round" stroke-linejoin="round"/>
  </g>
</svg>
