<?xml version="1.0" ?>
<svg xmlns="http://www.w3.org/2000/svg" version="1.1" width="224" height="224">
  <defs/>
  <g>
    <path d="M 60.49854278564453 111.8790283203125 C 54.64609146118164 117.27983856201172 56.33266830444336 99.59757995605469 46.2989387512207 84.91985321044922" stroke-width="3.0" fill="none" stroke="rgb(0, 0, 0)" stroke-opacity="1.0" stroke-linecap="round" stroke-linejoin="round"/>
    <path d="M 184.12266540527344 121.57857513427734 C 179.00196838378906 104.74874877929688 185.34408569335938 116.04885864257812 181.35659790039062 122.6894302368164" stroke-width="3.0" fill="none" stroke="rgb(0, 0, 0)" stroke-opacity="1.0" stroke-linecap="round" stroke-linejoin="round"/>
    <path d="M 53.428218841552734 105.17269134521484 C 54.84960174560547 116.97230529785156 52.992454528808594 109.0455093383789 58.18544006347656 111.93836212158203" stroke-width="3.0" fill="none" stroke="rgb(0, 0, 0)" stroke-opacity="1.0" stroke-linecap="round" stroke-linejoin="round"/>
    <path d="M 182.72084045410156 91.96105194091797 C 156.12417602539062 84.38557434082031 173.45375061035156 83.10113525390625 196.4401092529297 113.57479095458984" stroke-width="3.0" fill="none" stroke="rgb(0, 0, 0)" stroke-opacity="1.0" stroke-linecap="round" stroke-linejoin="round"/>
    <path d="M 182.03988647460938 72.47249603271484 C 177.9202423095703 95.70018005371094 186.90719604492188 92.49992370605469 183.71237182617188 59.62250900268555" stroke-width="3.0" fill="none" stroke="rgb(0, 0, 0)" stroke-opacity="1.0" stroke-linecap="round" stroke-linejoin="round"/>
    <path d="M 126.00028991699219 104.04762268066406 C 149.55572509765625 96.8022689819336 106.39317321777344 95.91265106201172 134.92776489257812 102.36434173583984" stroke-width="3.0" fill="none" stroke="rgb(0, 0, 0)" stroke-opacity="1.0" stroke-linecap="round" stroke-linejoin="round"/>
    <path d="M 167.52651977539062 97.74219512939453 C 205.27020263671875 82.56925201416016 174.3133544921875 69.45902252197266 156.9119415283203 81.7734603881836" stroke-width="3.0" fill="none" stroke="rgb(0, 0, 0)" stroke-opacity="1.0" stroke-linecap="round" stroke-linejoin="round"/>
    <path d="M 55.532989501953125 184.3260040283203 C 37.59968185424805 157.3455352783203 47.15697479248047 162.4013214111328 46.50878143310547 164.77639770507812" stroke-width="3.0" fill="none" stroke="rgb(0, 0, 0)" stroke-opacity="1.0" stroke-linecap="round" stroke-linejoin="round"/>
    <path d="M 59.9786262512207 188.0426483154297 C 88.80386352539062 209.03526306152344 109.07926177978516 199.5991973876953 126.81608581542969 186.5281219482422" stroke-width="3.0" fill="none" stroke="rgb(0, 0, 0)" stroke-opacity="1.0" stroke-linecap="round" stroke-linejoin="round"/>
    <path d="M 85.9722900390625 38.00053405761719 C 93.06903076171875 60.252105712890625 82.59952545166016 22.406940460205078 86.82627868652344 55.40261459350586" stroke-width="3.0" fill="none" stroke="rgb(0, 0, 0)" stroke-opacity="1.0" stroke-linecap="round" stroke-linejoin="round"/>
    <path d="M 60.01386642456055 122.82134246826172 C 54.12245178222656 133.26878356933594 98.20877838134766 156.99073791503906 98.21331024169922 151.5723419189453" stroke-width="3.0" fill="none" stroke="rgb(0, 0, 0)" stroke-opacity="1.0" stroke-linecap="round" stroke-linejoin="round"/>
    <path d="M 144.15988159179688 70.34044647216797 C 212.45236206054688 68.59716033935547 184.1228485107422 80.33635711669922 147.8122100830078 83.04714965820312" stroke-width="3.0" fill="none" stroke="rgb(0, 0, 0)" stroke-opacity="1.0" stroke-linecap="round" stroke-linejoin="round"/>
    <path d="M 149.8517303466797 93.20933532714844 C 182.3592071533203 98.73383331298828 183.35060119628906 97.1021957397461 188.23971557617188 114.4010009765625" stroke-width="3.0" fill="none" stroke="rgb(0, 0, 0)" stroke-opacity="1.0" stroke-linecap="round" stroke-linejoin="round"/>
    <path d="M 107.30845642089844 156.86260986328125 C 143.4886474609375 148.40939331054688 113.62356567382812 160.1277618408203 124.3284683227539 152.18099975585938" stroke-width="3.0" fill="none" stroke="rgb(0, 0, 0)" stroke-opacity="1.0" stroke-linecap="round" stroke-linejoin="round"/>
    <path d="M 175.7393341064453 9.270289421081543 C 190.50631713867188 3.4367833137512207 175.3238067626953 61.687618255615234 180.77279663085938 54.77951431274414" stroke-width="3.0" fill="none" stroke="rgb(0, 0, 0)" stroke-opacity="1.0" stroke-linecap="round" stroke-linejoin="round"/>
    <path d="M 131.9683380126953 30.56285858154297 C 126.61624145507812 57.01742935180664 137.22500610351562 33.69462966918945 125.5694351196289 73.96910095214844" stroke-width="3.0" fill="none" stroke="rgb(0, 0, 0)" stroke-opacity="1.0" stroke-linecap="round" stroke-linejoin="round"/>
    <path d="M 91.02984619140625 50.05946731567383 C 73.06266784667969 -6.446235656738281 85.27539825439453 -1.7043278217315674 110.15090942382812 34.55315017700195" stroke-width="3.0" fill="none" stroke="rgb(0, 0, 0)" stroke-opacity="1.0" stroke-linecap="round" stroke-linejoin="round"/>
    <path d="M 44.52330780029297 161.23831176757812 C 43.163970947265625 153.47303771972656 36.23954772949219 148.72503662109375 40.563114166259766 152.65338134765625" stroke-width="3.0" fill="none" stroke="rgb(0, 0, 0)" stroke-opacity="1.0" stroke-linecap="round" stroke-linejoin="round"/>
    <path d="M 35.75484848022461 100.80343627929688 C 23.196910858154297 128.2195281982422 36.71764373779297 141.9178009033203 40.85084533691406 156.04161071777344" stroke-width="3.0" fill="none" stroke="rgb(0, 0, 0)" stroke-opacity="1.0" stroke-linecap="round" stroke-linejoin="round"/>
    <path d="M 88.40093231201172 148.90940856933594 C 99.95062255859375 168.0811309814453 114.31185913085938 147.6091766357422 105.63316345214844 160.7254638671875" stroke-width="3.0" fill="none" stroke="rgb(0, 0, 0)" stroke-opacity="1.0" stroke-linecap="round" stroke-linejoin="round"/>
    <path d="M 77.26243591308594 197.53416442871094 C 56.61530685424805 191.18795776367188 57.30025863647461 180.9791259765625 48.01130294799805 173.8980255126953" stroke-width="3.0" fill="none" stroke="rgb(0, 0, 0)" stroke-opacity="1.0" stroke-linecap="round" stroke-linejoin="round"/>
    <path d="M 45.86259078979492 165.14117431640625 C 60.6237678527832 192.6632537841797 43.333736419677734 165.10777282714844 41.01744079589844 154.4312286376953" stroke-width="3.0" fill="none" stroke="rgb(0, 0, 0)" stroke-opacity="1.0" stroke-linecap="round" stroke-linejoin="round"/>
    <path d="M 80.3311538696289 50.94957733154297 C 56.06684112548828 59.58123779296875 52.905677795410156 73.48523712158203 33.19462585449219 107.9649429321289" stroke-width="3.0" fill="none" stroke="rgb(0, 0, 0)" stroke-opacity="1.0" stroke-linecap="round" stroke-linejoin="round"/>
    <path d="M 152.39845275878906 139.95391845703125 C 137.7986297607422 158.67208862304688 119.67000579833984 150.22999572753906 132.3937225341797 153.45416259765625" stroke-width="3.0" fill="none" stroke="rgb(0, 0, 0)" stroke-opacity="1.0" stroke-linecap="round" stroke-linejoin="round"/>
    <path d="M 141.1702880859375 30.78993034362793 C 145.12408447265625 65.8189926147461 130.79962158203125 58.384483337402344 135.56338500976562 72.5838851928711" stroke-width="3.0" fill="none" stroke="rgb(0, 0, 0)" stroke-opacity="1.0" stroke-linecap="round" stroke-linejoin="round"/>
    <path d="M 145.79588317871094 95.26146697998047 C 121.05133819580078 109.15421295166016 131.43687438964844 110.30916595458984 136.72593688964844 102.98040771484375" stroke-width="3.0" fill="none" stroke="rgb(0, 0, 0)" stroke-opacity="1.0" stroke-linecap="round" stroke-linejoin="round"/>
    <path d="M 135.70977783203125 76.09632110595703 C 142.33384704589844 53.180320739746094 135.38087463378906 63.20680236816406 136.78370666503906 69.38850402832031" stroke-width="3.0" fill="none" stroke="rgb(0, 0, 0)" stroke-opacity="1.0" stroke-linecap="round" stroke-linejoin="round"/>
    <path d="M 132.2861785888672 180.53143310546875 C 119.0343017578125 192.46401977539062 141.4353485107422 188.3255615234375 145.39341735839844 150.19277954101562" stroke-width="3.0" fill="none" stroke="rgb(0, 0, 0)" stroke-opacity="1.0" stroke-linecap="round" stroke-linejoin="round"/>
    <path d="M 194.2049102783203 92.82711029052734 C 171.14581298828125 73.78087615966797 149.43109130859375 81.98263549804688 183.71315002441406 81.13545227050781" stroke-width="3.0" fill="none" stroke="rgb(0, 0, 0)" stroke-opacity="1.0" stroke-linecap="round" stroke-linejoin="round"/>
    <path d="M 147.2407684326172 75.37704467773438 C 167.17044067382812 56.828067779541016 199.09442138671875 74.4639663696289 179.490478515625 63.166194915771484" stroke-width="3.0" fill="none" stroke="rgb(0, 0, 0)" stroke-opacity="1.0" stroke-linecap="round" stroke-linejoin="round"/>
    <path d="M 107.01934814453125 81.14063262939453 C 91.42584991455078 72.65264129638672 138.84654235839844 78.27251434326172 106.83636474609375 81.8436050415039" stroke-width="3.0" fill="none" stroke="rgb(0, 0, 0)" stroke-opacity="1.0" stroke-linecap="round" stroke-linejoin="round"/>
    <path d="M 149.83482360839844 140.47254943847656 C 131.23611450195312 156.15882873535156 122.76704406738281 150.70321655273438 100.1279296875 156.12623596191406" stroke-width="3.0" fill="none" stroke="rgb(0, 0, 0)" stroke-opacity="1.0" stroke-linecap="round" stroke-linejoin="round"/>
    <path d="M 124.56192779541016 90.06166076660156 C 141.09677124023438 99.42081451416016 132.61228942871094 72.04449462890625 129.03622436523438 104.00218200683594" stroke-width="3.0" fill="none" stroke="rgb(0, 0, 0)" stroke-opacity="1.0" stroke-linecap="round" stroke-linejoin="round"/>
    <path d="M 186.5572052001953 113.34063720703125 C 177.33311462402344 75.04595184326172 184.86126708984375 91.08580780029297 140.2319793701172 80.73591613769531" stroke-width="3.0" fill="none" stroke="rgb(0, 0, 0)" stroke-opacity="1.0" stroke-linecap="round" stroke-linejoin="round"/>
    <path d="M 86.64604949951172 9.004928588867188 C 109.55228424072266 14.704411506652832 116.95581817626953 35.80365753173828 125.3498306274414 29.74884796142578" stroke-width="3.0" fill="none" stroke="rgb(0, 0, 0)" stroke-opacity="1.0" stroke-linecap="round" stroke-linejoin="round"/>
    <path d="M 59.64662170410156 119.47931671142578 C 49.12651824951172 108.76243591308594 64.54856872558594 118.4672622680664 55.0318489074707 113.75264739990234" stroke-width="3.0" fill="none" stroke="rgb(0, 0, 0)" stroke-opacity="1.0" stroke-linecap="round" stroke-linejoin="round"/>
    <path d="M 131.82666015625 106.87409973144531 C 112.3568115234375 94.72366333007812 121.2896728515625 109.56793212890625 109.35466003417969 90.76490783691406" stroke-width="3.0" fill="none" stroke="rgb(0, 0, 0)" stroke-opacity="1.0" stroke-linecap="round" stroke-linejoin="round"/>
    <path d="M 31.695100784301758 132.09873962402344 C 29.2779541015625 114.98951721191406 35.39122009277344 103.04680633544922 31.439002990722656 111.4747543334961" stroke-width="3.0" fill="none" stroke="rgb(0, 0, 0)" stroke-opacity="1.0" stroke-linecap="round" stroke-linejoin="round"/>
    <path d="M 77.51780700683594 197.7745361328125 C 75.616943359375 198.31793212890625 67.25578308105469 198.50933837890625 95.46855926513672 197.37513732910156" stroke-width="3.0" fill="none" stroke="rgb(0, 0, 0)" stroke-opacity="1.0" stroke-linecap="round" stroke-linejoin="round"/>
    <path d="M 150.5110626220703 140.1417236328125 C 208.52203369140625 112.63924407958984 182.33041381835938 91.9374008178711 153.39068603515625 87.44696044921875" stroke-width="3.0" fill="none" stroke="rgb(0, 0, 0)" stroke-opacity="1.0" stroke-linecap="round" stroke-linejoin="round"/>
    <path d="M 156.5980682373047 68.34737396240234 C 124.42301940917969 77.52885437011719 175.9282989501953 81.32896423339844 148.6332550048828 67.10258483886719" stroke-width="3.0" fill="none" stroke="rgb(0, 0, 0)" stroke-opacity="1.0" stroke-linecap="round" stroke-linejoin="round"/>
    <path d="M 141.0835418701172 76.58041381835938 C 144.9805145263672 43.01704788208008 199.2692108154297 103.77106475830078 177.12872314453125 50.86432647705078" stroke-width="3.0" fill="none" stroke="rgb(0, 0, 0)" stroke-opacity="1.0" stroke-linecap="round" stroke-linejoin="round"/>
    <path d="M 156.81382751464844 93.94981384277344 C 167.988525390625 99.92890930175781 181.46676635742188 101.42816925048828 185.86749267578125 115.50257873535156" stroke-width="3.0" fill="none" stroke="rgb(0, 0, 0)" stroke-opacity="1.0" stroke-linecap="round" stroke-linejoin="round"/>
    <path d="M 178.0205535888672 13.763962745666504 C 173.344482421875 45.287837982177734 173.8382568359375 19.676424026489258 159.2828826904297 42.1490478515625" stroke-width="3.0" fill="none" stroke="rgb(0, 0, 0)" stroke-opacity="1.0" stroke-linecap="round" stroke-linejoin="round"/>
    <path d="M 114.47975158691406 98.30646514892578 C 143.81011962890625 102.46694946289062 129.5379180908203 114.10917663574219 111.14171600341797 97.3883285522461" stroke-width="3.0" fill="none" stroke="rgb(0, 0, 0)" stroke-opacity="1.0" stroke-linecap="round" stroke-linejoin="round"/>
    <path d="M 58.86064147949219 115.62755584716797 C 53.62651443481445 104.28782653808594 49.790077209472656 105.9757080078125 62.636837005615234 128.5728759765625" stroke-width="3.0" fill="none" stroke="rgb(0, 0, 0)" stroke-opacity="1.0" stroke-linecap="round" stroke-linejoin="round"/>
    <path d="M 122.53184509277344 78.08658599853516 C 127.35179901123047 39.16319274902344 120.05824279785156 51.8995475769043 123.71833038330078 32.67435073852539" stroke-width="3.0" fill="none" stroke="rgb(0, 0, 0)" stroke-opacity="1.0" stroke-linecap="round" stroke-linejoin="round"/>
    <path d="M 146.12063598632812 29.846725463867188 C 145.1717529296875 37.029624938964844 154.45999145507812 13.588006019592285 178.02166748046875 8.408166885375977" stroke-width="3.0" fill="none" stroke="rgb(0, 0, 0)" stroke-opacity="1.0" stroke-linecap="round" stroke-linejoin="round"/>
  </g>
</svg>
