<?xml version="1.0" ?>
<svg xmlns="http://www.w3.org/2000/svg" version="1.1" width="224" height="224">
  <defs/>
  <g>
    <path d="M 61.381004333496094 109.594482421875 C 64.2867431640625 107.48033905029297 56.26308822631836 110.93917083740234 48.057186126708984 111.419189453125" stroke-width="3.0" fill="none" stroke="rgb(0, 0, 0)" stroke-opacity="1.0" stroke-linecap="round" stroke-linejoin="round"/>
    <path d="M 179.64373779296875 124.62850952148438 C 179.76095581054688 112.02127838134766 180.5620574951172 114.48036193847656 186.64695739746094 123.84739685058594" stroke-width="3.0" fill="none" stroke="rgb(0, 0, 0)" stroke-opacity="1.0" stroke-linecap="round" stroke-linejoin="round"/>
    <path d="M 56.91622543334961 110.57217407226562 C 58.47117233276367 115.98031616210938 55.583168029785156 101.63797760009766 56.23859786987305 111.04085540771484" stroke-width="3.0" fill="none" stroke="rgb(0, 0, 0)" stroke-opacity="1.0" stroke-linecap="round" stroke-linejoin="round"/>
    <path d="M 179.42025756835938 99.0050048828125 C 155.4977569580078 105.44097900390625 167.72666931152344 96.38568878173828 191.70510864257812 111.40955352783203" stroke-width="3.0" fill="none" stroke="rgb(0, 0, 0)" stroke-opacity="1.0" stroke-linecap="round" stroke-linejoin="round"/>
    <path d="M 180.01657104492188 77.5398178100586 C 183.94696044921875 84.80381774902344 178.60430908203125 74.5042495727539 182.05929565429688 84.2492904663086" stroke-width="3.0" fill="none" stroke="rgb(0, 0, 0)" stroke-opacity="1.0" stroke-linecap="round" stroke-linejoin="round"/>
    <path d="M 128.6165313720703 99.3270034790039 C 120.13255310058594 110.38457489013672 118.73948669433594 101.63733673095703 132.77828979492188 103.84712982177734" stroke-width="3.0" fill="none" stroke="rgb(0, 0, 0)" stroke-opacity="1.0" stroke-linecap="round" stroke-linejoin="round"/>
    <path d="M 177.17599487304688 82.51937866210938 C 186.65420532226562 80.60150909423828 178.07034301757812 79.6401138305664 163.60308837890625 82.80635833740234" stroke-width="3.0" fill="none" stroke="rgb(0, 0, 0)" stroke-opacity="1.0" stroke-linecap="round" stroke-linejoin="round"/>
    <path d="M 57.55303955078125 181.86582946777344 C 36.335201263427734 157.14306640625 45.84895324707031 164.931884765625 46.32865524291992 160.3298797607422" stroke-width="3.0" fill="none" stroke="rgb(0, 0, 0)" stroke-opacity="1.0" stroke-linecap="round" stroke-linejoin="round"/>
    <path d="M 74.97309112548828 185.2264862060547 C 83.1999282836914 191.18865966796875 95.77056884765625 193.8520050048828 82.95179748535156 185.1765899658203" stroke-width="3.0" fill="none" stroke="rgb(0, 0, 0)" stroke-opacity="1.0" stroke-linecap="round" stroke-linejoin="round"/>
    <path d="M 87.0294418334961 47.55961990356445 C 82.4696273803711 66.7131118774414 89.9835205078125 66.64888763427734 83.46930694580078 59.3565788269043" stroke-width="3.0" fill="none" stroke="rgb(0, 0, 0)" stroke-opacity="1.0" stroke-linecap="round" stroke-linejoin="round"/>
    <path d="M 64.78919219970703 127.20940399169922 C 73.02008056640625 150.29763793945312 76.30301666259766 149.3331298828125 77.98724365234375 151.90682983398438" stroke-width="3.0" fill="none" stroke="rgb(0, 0, 0)" stroke-opacity="1.0" stroke-linecap="round" stroke-linejoin="round"/>
    <path d="M 168.3870849609375 85.0269546508789 C 184.87733459472656 77.57349395751953 173.32164001464844 90.49862670898438 152.36289978027344 87.05005645751953" stroke-width="3.0" fill="none" stroke="rgb(0, 0, 0)" stroke-opacity="1.0" stroke-linecap="round" stroke-linejoin="round"/>
    <path d="M 158.0149383544922 104.64657592773438 C 176.36007690429688 101.32707214355469 162.7313995361328 101.37966918945312 179.11924743652344 102.50051879882812" stroke-width="3.0" fill="none" stroke="rgb(0, 0, 0)" stroke-opacity="1.0" stroke-linecap="round" stroke-linejoin="round"/>
    <path d="M 78.38911437988281 169.759521484375 C 83.10697937011719 182.14755249023438 92.81787872314453 182.66909790039062 95.64356231689453 192.90199279785156" stroke-width="3.0" fill="none" stroke="rgb(0, 0, 0)" stroke-opacity="1.0" stroke-linecap="round" stroke-linejoin="round"/>
    <path d="M 172.94874572753906 9.748080253601074 C 180.82757568359375 0.26754456758499146 184.01983642578125 25.670040130615234 178.1355743408203 51.18677520751953" stroke-width="3.0" fill="none" stroke="rgb(0, 0, 0)" stroke-opacity="1.0" stroke-linecap="round" stroke-linejoin="round"/>
    <path d="M 126.95552062988281 34.91876220703125 C 121.77001953125 46.35078811645508 122.55303955078125 42.468849182128906 124.09130859375 52.96990966796875" stroke-width="3.0" fill="none" stroke="rgb(0, 0, 0)" stroke-opacity="1.0" stroke-linecap="round" stroke-linejoin="round"/>
    <path d="M 88.84571838378906 52.45771026611328 C 79.96315002441406 -13.611363410949707 87.77564239501953 2.327932119369507 97.88597106933594 39.93888854980469" stroke-width="3.0" fill="none" stroke="rgb(0, 0, 0)" stroke-opacity="1.0" stroke-linecap="round" stroke-linejoin="round"/>
    <path d="M 49.951107025146484 167.94387817382812 C 38.16495895385742 150.27149963378906 48.99571990966797 160.05081176757812 46.58746337890625 159.7919921875" stroke-width="3.0" fill="none" stroke="rgb(0, 0, 0)" stroke-opacity="1.0" stroke-linecap="round" stroke-linejoin="round"/>
    <path d="M 38.99287414550781 126.21058654785156 C 40.78153610229492 134.42820739746094 36.00246047973633 143.5197296142578 39.40507507324219 146.91134643554688" stroke-width="3.0" fill="none" stroke="rgb(0, 0, 0)" stroke-opacity="1.0" stroke-linecap="round" stroke-linejoin="round"/>
    <path d="M 72.25440979003906 159.57608032226562 C 74.0030517578125 167.9704132080078 77.55941772460938 168.89405822753906 78.04843139648438 171.56578063964844" stroke-width="3.0" fill="none" stroke="rgb(0, 0, 0)" stroke-opacity="1.0" stroke-linecap="round" stroke-linejoin="round"/>
    <path d="M 73.0565414428711 189.1806182861328 C 54.10208511352539 174.1405487060547 70.963623046875 194.29554748535156 55.902679443359375 174.76158142089844" stroke-width="3.0" fill="none" stroke="rgb(0, 0, 0)" stroke-opacity="1.0" stroke-linecap="round" stroke-linejoin="round"/>
    <path d="M 44.00265884399414 159.62388610839844 C 46.97043228149414 160.0588836669922 38.906036376953125 151.3294219970703 40.18695068359375 144.63539123535156" stroke-width="3.0" fill="none" stroke="rgb(0, 0, 0)" stroke-opacity="1.0" stroke-linecap="round" stroke-linejoin="round"/>
    <path d="M 62.80821990966797 59.7335319519043 C 48.82017517089844 77.31320190429688 53.00648880004883 73.55733489990234 42.1537971496582 110.7672348022461" stroke-width="3.0" fill="none" stroke="rgb(0, 0, 0)" stroke-opacity="1.0" stroke-linecap="round" stroke-linejoin="round"/>
    <path d="M 137.52291870117188 155.843505859375 C 128.4534149169922 155.90310668945312 130.17510986328125 150.30833435058594 144.96018981933594 163.38514709472656" stroke-width="3.0" fill="none" stroke="rgb(0, 0, 0)" stroke-opacity="1.0" stroke-linecap="round" stroke-linejoin="round"/>
    <path d="M 137.8980712890625 34.13048553466797 C 148.61355590820312 51.90705871582031 138.42135620117188 54.41599655151367 137.73016357421875 73.00165557861328" stroke-width="3.0" fill="none" stroke="rgb(0, 0, 0)" stroke-opacity="1.0" stroke-linecap="round" stroke-linejoin="round"/>
    <path d="M 147.1063690185547 100.77037048339844 C 128.12225341796875 108.82150268554688 114.40064239501953 107.28140258789062 128.21701049804688 107.48825073242188" stroke-width="3.0" fill="none" stroke="rgb(0, 0, 0)" stroke-opacity="1.0" stroke-linecap="round" stroke-linejoin="round"/>
    <path d="M 144.8499298095703 67.7424545288086 C 145.85926818847656 60.14091110229492 158.33604431152344 52.870994567871094 152.0930633544922 56.804237365722656" stroke-width="3.0" fill="none" stroke="rgb(0, 0, 0)" stroke-opacity="1.0" stroke-linecap="round" stroke-linejoin="round"/>
    <path d="M 107.01155090332031 191.37696838378906 C 74.35163879394531 178.94259643554688 91.33297729492188 199.2130889892578 124.72859954833984 183.8147430419922" stroke-width="3.0" fill="none" stroke="rgb(0, 0, 0)" stroke-opacity="1.0" stroke-linecap="round" stroke-linejoin="round"/>
    <path d="M 183.74496459960938 89.8548812866211 C 173.1606903076172 79.39813232421875 172.3026885986328 95.10394287109375 175.81072998046875 83.20091247558594" stroke-width="3.0" fill="none" stroke="rgb(0, 0, 0)" stroke-opacity="1.0" stroke-linecap="round" stroke-linejoin="round"/>
    <path d="M 170.56320190429688 82.62268829345703 C 178.07850646972656 84.45978546142578 186.5007781982422 88.78548431396484 167.843505859375 85.81917572021484" stroke-width="3.0" fill="none" stroke="rgb(0, 0, 0)" stroke-opacity="1.0" stroke-linecap="round" stroke-linejoin="round"/>
    <path d="M 114.39955139160156 75.29297637939453 C 93.28755950927734 67.65870666503906 133.45274353027344 69.62586975097656 111.20088958740234 75.33983612060547" stroke-width="3.0" fill="none" stroke="rgb(0, 0, 0)" stroke-opacity="1.0" stroke-linecap="round" stroke-linejoin="round"/>
    <path d="M 133.9762725830078 156.62203979492188 C 136.14561462402344 154.58282470703125 128.99819946289062 153.26007080078125 124.7353744506836 149.03958129882812" stroke-width="3.0" fill="none" stroke="rgb(0, 0, 0)" stroke-opacity="1.0" stroke-linecap="round" stroke-linejoin="round"/>
    <path d="M 125.35186767578125 88.60967254638672 C 142.94459533691406 98.43020629882812 135.2394256591797 78.86650085449219 129.65451049804688 94.4749526977539" stroke-width="3.0" fill="none" stroke="rgb(0, 0, 0)" stroke-opacity="1.0" stroke-linecap="round" stroke-linejoin="round"/>
    <path d="M 183.38275146484375 98.31941986083984 C 172.10711669921875 95.09091186523438 185.0561065673828 99.848876953125 147.5335693359375 90.25999450683594" stroke-width="3.0" fill="none" stroke="rgb(0, 0, 0)" stroke-opacity="1.0" stroke-linecap="round" stroke-linejoin="round"/>
    <path d="M 85.23079681396484 7.81508207321167 C 107.66863250732422 17.19984245300293 112.1419906616211 34.33795928955078 120.42092895507812 34.92934036254883" stroke-width="3.0" fill="none" stroke="rgb(0, 0, 0)" stroke-opacity="1.0" stroke-linecap="round" stroke-linejoin="round"/>
    <path d="M 54.99406433105469 109.22012329101562 C 52.436275482177734 109.11573791503906 64.39891815185547 118.09043884277344 55.86747741699219 111.60399627685547" stroke-width="3.0" fill="none" stroke="rgb(0, 0, 0)" stroke-opacity="1.0" stroke-linecap="round" stroke-linejoin="round"/>
    <path d="M 120.55026245117188 101.40003967285156 C 98.75352478027344 93.16690063476562 132.35279846191406 97.4479751586914 108.75482940673828 96.23749542236328" stroke-width="3.0" fill="none" stroke="rgb(0, 0, 0)" stroke-opacity="1.0" stroke-linecap="round" stroke-linejoin="round"/>
    <path d="M 39.62239456176758 123.14099884033203 C 41.06295394897461 98.22769165039062 45.19202423095703 107.95987701416016 40.40509796142578 111.48897552490234" stroke-width="3.0" fill="none" stroke="rgb(0, 0, 0)" stroke-opacity="1.0" stroke-linecap="round" stroke-linejoin="round"/>
    <path d="M 84.67942810058594 186.6893310546875 C 75.71827697753906 188.7943115234375 75.76933288574219 195.4908905029297 85.55101013183594 187.47523498535156" stroke-width="3.0" fill="none" stroke="rgb(0, 0, 0)" stroke-opacity="1.0" stroke-linecap="round" stroke-linejoin="round"/>
    <path d="M 176.6354217529297 133.12408447265625 C 190.8905029296875 108.07422637939453 167.13404846191406 102.40808868408203 148.63763427734375 96.52393341064453" stroke-width="3.0" fill="none" stroke="rgb(0, 0, 0)" stroke-opacity="1.0" stroke-linecap="round" stroke-linejoin="round"/>
    <path d="M 151.36090087890625 76.28308868408203 C 140.22842407226562 61.269718170166016 143.75384521484375 90.98236846923828 154.31515502929688 78.72103118896484" stroke-width="3.0" fill="none" stroke="rgb(0, 0, 0)" stroke-opacity="1.0" stroke-linecap="round" stroke-linejoin="round"/>
    <path d="M 154.61886596679688 68.92027282714844 C 169.05599975585938 66.33338928222656 176.8434600830078 76.47803497314453 183.1359100341797 72.15969848632812" stroke-width="3.0" fill="none" stroke="rgb(0, 0, 0)" stroke-opacity="1.0" stroke-linecap="round" stroke-linejoin="round"/>
    <path d="M 147.94332885742188 102.9190444946289 C 156.1758575439453 102.58692169189453 167.770263671875 103.6065673828125 177.67535400390625 116.06953430175781" stroke-width="3.0" fill="none" stroke="rgb(0, 0, 0)" stroke-opacity="1.0" stroke-linecap="round" stroke-linejoin="round"/>
    <path d="M 171.24388122558594 20.72553253173828 C 164.26805114746094 42.96223449707031 161.88021850585938 28.664146423339844 165.74774169921875 40.52824783325195" stroke-width="3.0" fill="none" stroke="rgb(0, 0, 0)" stroke-opacity="1.0" stroke-linecap="round" stroke-linejoin="round"/>
    <path d="M 121.76524353027344 107.28501892089844 C 149.6711883544922 112.37296295166016 123.2621078491211 92.45088195800781 117.62604522705078 106.99308776855469" stroke-width="3.0" fill="none" stroke="rgb(0, 0, 0)" stroke-opacity="1.0" stroke-linecap="round" stroke-linejoin="round"/>
    <path d="M 56.4720573425293 111.92601776123047 C 57.52381134033203 108.31624603271484 50.947322845458984 102.96729278564453 63.69782638549805 127.71383666992188" stroke-width="3.0" fill="none" stroke="rgb(0, 0, 0)" stroke-opacity="1.0" stroke-linecap="round" stroke-linejoin="round"/>
    <path d="M 117.74645233154297 80.54486846923828 C 128.11575317382812 54.46702575683594 116.92943572998047 54.39339065551758 114.6319808959961 42.6072998046875" stroke-width="3.0" fill="none" stroke="rgb(0, 0, 0)" stroke-opacity="1.0" stroke-linecap="round" stroke-linejoin="round"/>
    <path d="M 145.93533325195312 34.282718658447266 C 158.14627075195312 27.81025505065918 152.32691955566406 17.960235595703125 175.6024169921875 7.53605842590332" stroke-width="3.0" fill="none" stroke="rgb(0, 0, 0)" stroke-opacity="1.0" stroke-linecap="round" stroke-linejoin="round"/>
  </g>
</svg>
