<?xml version="1.0" ?>
<svg xmlns="http://www.w3.org/2000/svg" version="1.1" width="224" height="224">
  <defs/>
  <g>
    <path d="M 62.59890365600586 102.53531646728516 C 55.90858840942383 95.62032318115234 48.83305358886719 96.42716217041016 57.06925964355469 73.09700775146484" stroke-width="3.0" fill="none" stroke="rgb(0, 0, 0)" stroke-opacity="1.0" stroke-linecap="round" stroke-linejoin="round"/>
    <path d="M 189.9244842529297 112.43893432617188 C 184.45602416992188 110.13471221923828 191.86207580566406 83.01173400878906 183.10891723632812 124.2662353515625" stroke-width="3.0" fill="none" stroke="rgb(0, 0, 0)" stroke-opacity="1.0" stroke-linecap="round" stroke-linejoin="round"/>
    <path d="M 57.35951232910156 117.04322052001953 C 59.06189727783203 95.79602813720703 51.626983642578125 134.16665649414062 67.13923645019531 127.06929779052734" stroke-width="3.0" fill="none" stroke="rgb(0, 0, 0)" stroke-opacity="1.0" stroke-linecap="round" stroke-linejoin="round"/>
    <path d="M 184.5642547607422 92.85755157470703 C 149.2971954345703 76.83568572998047 182.56509399414062 80.91730499267578 187.2584686279297 103.78672790527344" stroke-width="3.0" fill="none" stroke="rgb(0, 0, 0)" stroke-opacity="1.0" stroke-linecap="round" stroke-linejoin="round"/>
    <path d="M 177.0846405029297 54.68395233154297 C 190.76678466796875 100.76329040527344 178.8985137939453 99.24380493164062 180.38577270507812 72.2864761352539" stroke-width="3.0" fill="none" stroke="rgb(0, 0, 0)" stroke-opacity="1.0" stroke-linecap="round" stroke-linejoin="round"/>
    <path d="M 130.64236450195312 97.93263244628906 C 155.18194580078125 115.27747344970703 98.64593505859375 100.26302337646484 132.5944061279297 105.77509307861328" stroke-width="3.0" fill="none" stroke="rgb(0, 0, 0)" stroke-opacity="1.0" stroke-linecap="round" stroke-linejoin="round"/>
    <path d="M 178.9581298828125 87.3897933959961 C 184.31593322753906 73.84871673583984 198.84341430664062 73.39790344238281 145.6430206298828 87.6274642944336" stroke-width="3.0" fill="none" stroke="rgb(0, 0, 0)" stroke-opacity="1.0" stroke-linecap="round" stroke-linejoin="round"/>
    <path d="M 66.73067474365234 190.481201171875 C 40.05015182495117 164.61489868164062 51.480445861816406 169.41049194335938 49.750370025634766 174.0941162109375" stroke-width="3.0" fill="none" stroke="rgb(0, 0, 0)" stroke-opacity="1.0" stroke-linecap="round" stroke-linejoin="round"/>
    <path d="M 59.130855560302734 182.69248962402344 C 90.08486938476562 213.88101196289062 127.1109619140625 199.2474822998047 137.59185791015625 170.68321228027344" stroke-width="3.0" fill="none" stroke="rgb(0, 0, 0)" stroke-opacity="1.0" stroke-linecap="round" stroke-linejoin="round"/>
    <path d="M 82.86811065673828 16.790294647216797 C 94.61197662353516 72.24762725830078 89.8696517944336 4.577391624450684 84.33338928222656 59.4127311706543" stroke-width="3.0" fill="none" stroke="rgb(0, 0, 0)" stroke-opacity="1.0" stroke-linecap="round" stroke-linejoin="round"/>
    <path d="M 56.090492248535156 87.25578308105469 C 59.560665130615234 142.12762451171875 74.14384460449219 137.99085998535156 61.1883659362793 124.11921691894531" stroke-width="3.0" fill="none" stroke="rgb(0, 0, 0)" stroke-opacity="1.0" stroke-linecap="round" stroke-linejoin="round"/>
    <path d="M 147.9525146484375 73.80278778076172 C 199.83047485351562 62.56161880493164 188.7794647216797 86.85869598388672 145.0125732421875 84.92386627197266" stroke-width="3.0" fill="none" stroke="rgb(0, 0, 0)" stroke-opacity="1.0" stroke-linecap="round" stroke-linejoin="round"/>
    <path d="M 155.9088134765625 92.90225219726562 C 179.28799438476562 103.19961547851562 184.28057861328125 93.10189819335938 194.85992431640625 112.6718521118164" stroke-width="3.0" fill="none" stroke="rgb(0, 0, 0)" stroke-opacity="1.0" stroke-linecap="round" stroke-linejoin="round"/>
    <path d="M 119.13538360595703 151.72108459472656 C 153.61012268066406 151.6533966064453 103.93765258789062 145.3730010986328 96.44795989990234 151.2190704345703" stroke-width="3.0" fill="none" stroke="rgb(0, 0, 0)" stroke-opacity="1.0" stroke-linecap="round" stroke-linejoin="round"/>
    <path d="M 180.1351776123047 11.12708854675293 C 189.53854370117188 26.32001495361328 170.32627868652344 93.2068862915039 181.38645935058594 57.95399856567383" stroke-width="3.0" fill="none" stroke="rgb(0, 0, 0)" stroke-opacity="1.0" stroke-linecap="round" stroke-linejoin="round"/>
    <path d="M 136.1153106689453 32.21951675415039 C 106.00464630126953 24.40355682373047 136.22128295898438 38.9621467590332 122.80472564697266 81.79337310791016" stroke-width="3.0" fill="none" stroke="rgb(0, 0, 0)" stroke-opacity="1.0" stroke-linecap="round" stroke-linejoin="round"/>
    <path d="M 105.18597412109375 49.04730987548828 C 62.746498107910156 -3.140106678009033 85.73806762695312 0.7982982397079468 120.4638671875 33.43730545043945" stroke-width="3.0" fill="none" stroke="rgb(0, 0, 0)" stroke-opacity="1.0" stroke-linecap="round" stroke-linejoin="round"/>
    <path d="M 47.567012786865234 169.45510864257812 C 41.866851806640625 158.82528686523438 39.63457489013672 152.03475952148438 48.46310043334961 170.5730438232422" stroke-width="3.0" fill="none" stroke="rgb(0, 0, 0)" stroke-opacity="1.0" stroke-linecap="round" stroke-linejoin="round"/>
    <path d="M 45.878047943115234 81.46366119384766 C 13.720647811889648 120.41875457763672 38.846763610839844 138.9687957763672 44.452762603759766 166.20745849609375" stroke-width="3.0" fill="none" stroke="rgb(0, 0, 0)" stroke-opacity="1.0" stroke-linecap="round" stroke-linejoin="round"/>
    <path d="M 68.15962219238281 135.69264221191406 C 124.99262237548828 156.91128540039062 90.33883666992188 149.1684112548828 85.07943725585938 144.2061767578125" stroke-width="3.0" fill="none" stroke="rgb(0, 0, 0)" stroke-opacity="1.0" stroke-linecap="round" stroke-linejoin="round"/>
    <path d="M 87.64627838134766 198.48439025878906 C 69.93257904052734 203.71157836914062 47.260841369628906 176.18832397460938 46.520023345947266 168.190673828125" stroke-width="3.0" fill="none" stroke="rgb(0, 0, 0)" stroke-opacity="1.0" stroke-linecap="round" stroke-linejoin="round"/>
    <path d="M 47.931968688964844 170.19049072265625 C 65.45254516601562 197.78309631347656 48.634178161621094 171.0639190673828 39.194297790527344 149.97116088867188" stroke-width="3.0" fill="none" stroke="rgb(0, 0, 0)" stroke-opacity="1.0" stroke-linecap="round" stroke-linejoin="round"/>
    <path d="M 80.50054931640625 52.46730041503906 C 56.91280746459961 62.45911407470703 52.47119140625 71.27537536621094 32.96711730957031 110.37351989746094" stroke-width="3.0" fill="none" stroke="rgb(0, 0, 0)" stroke-opacity="1.0" stroke-linecap="round" stroke-linejoin="round"/>
    <path d="M 158.9325408935547 137.11703491210938 C 102.22832489013672 155.75706481933594 88.30476379394531 156.4848175048828 145.7088623046875 143.35614013671875" stroke-width="3.0" fill="none" stroke="rgb(0, 0, 0)" stroke-opacity="1.0" stroke-linecap="round" stroke-linejoin="round"/>
    <path d="M 149.93661499023438 27.67107582092285 C 139.7202911376953 36.11542510986328 129.55831909179688 14.57379150390625 140.05226135253906 82.51921081542969" stroke-width="3.0" fill="none" stroke="rgb(0, 0, 0)" stroke-opacity="1.0" stroke-linecap="round" stroke-linejoin="round"/>
    <path d="M 148.39686584472656 102.38793182373047 C 127.60823059082031 116.6722183227539 124.40153503417969 107.55834197998047 116.32391357421875 92.59455108642578" stroke-width="3.0" fill="none" stroke="rgb(0, 0, 0)" stroke-opacity="1.0" stroke-linecap="round" stroke-linejoin="round"/>
    <path d="M 136.90447998046875 71.79551696777344 C 138.11074829101562 50.77535629272461 134.20721435546875 71.26644897460938 142.2653350830078 75.02935791015625" stroke-width="3.0" fill="none" stroke="rgb(0, 0, 0)" stroke-opacity="1.0" stroke-linecap="round" stroke-linejoin="round"/>
    <path d="M 140.22157287597656 162.7248992919922 C 129.3851318359375 180.28460693359375 140.98550415039062 169.76025390625 146.54779052734375 144.9285125732422" stroke-width="3.0" fill="none" stroke="rgb(0, 0, 0)" stroke-opacity="1.0" stroke-linecap="round" stroke-linejoin="round"/>
    <path d="M 195.33360290527344 96.0654067993164 C 163.95974731445312 69.3878402709961 162.97048950195312 79.44772338867188 180.1612548828125 96.19837951660156" stroke-width="3.0" fill="none" stroke="rgb(0, 0, 0)" stroke-opacity="1.0" stroke-linecap="round" stroke-linejoin="round"/>
    <path d="M 155.3224334716797 74.95303344726562 C 130.0045166015625 52.96847152709961 195.6336669921875 94.8220443725586 183.53680419921875 61.048213958740234" stroke-width="3.0" fill="none" stroke="rgb(0, 0, 0)" stroke-opacity="1.0" stroke-linecap="round" stroke-linejoin="round"/>
    <path d="M 116.00540161132812 81.75617980957031 C 80.05267333984375 71.84586334228516 145.25071716308594 77.18036651611328 105.8836898803711 85.04439544677734" stroke-width="3.0" fill="none" stroke="rgb(0, 0, 0)" stroke-opacity="1.0" stroke-linecap="round" stroke-linejoin="round"/>
    <path d="M 168.77952575683594 126.77336120605469 C 148.46551513671875 156.71597290039062 108.60000610351562 146.42529296875 101.84135437011719 154.40631103515625" stroke-width="3.0" fill="none" stroke="rgb(0, 0, 0)" stroke-opacity="1.0" stroke-linecap="round" stroke-linejoin="round"/>
    <path d="M 124.06846618652344 88.60836029052734 C 144.5125274658203 98.31027221679688 129.40484619140625 73.13311004638672 130.19155883789062 104.8052978515625" stroke-width="3.0" fill="none" stroke="rgb(0, 0, 0)" stroke-opacity="1.0" stroke-linecap="round" stroke-linejoin="round"/>
    <path d="M 188.32847595214844 109.7031021118164 C 155.9093780517578 88.82716369628906 178.21847534179688 93.03874206542969 145.94252014160156 87.0284423828125" stroke-width="3.0" fill="none" stroke="rgb(0, 0, 0)" stroke-opacity="1.0" stroke-linecap="round" stroke-linejoin="round"/>
    <path d="M 82.87996673583984 12.944158554077148 C 115.46263885498047 27.519458770751953 96.2887954711914 35.41852951049805 135.7163543701172 28.85210609436035" stroke-width="3.0" fill="none" stroke="rgb(0, 0, 0)" stroke-opacity="1.0" stroke-linecap="round" stroke-linejoin="round"/>
    <path d="M 57.28105545043945 119.54419708251953 C 58.630855560302734 110.4658203125 54.705230712890625 120.99372863769531 63.35849380493164 130.4844970703125" stroke-width="3.0" fill="none" stroke="rgb(0, 0, 0)" stroke-opacity="1.0" stroke-linecap="round" stroke-linejoin="round"/>
    <path d="M 135.5774688720703 106.9075927734375 C 124.1749038696289 90.33578491210938 118.47526550292969 116.15491485595703 114.58242797851562 90.83073425292969" stroke-width="3.0" fill="none" stroke="rgb(0, 0, 0)" stroke-opacity="1.0" stroke-linecap="round" stroke-linejoin="round"/>
    <path d="M 32.24678039550781 133.12571716308594 C 27.299057006835938 116.8441162109375 31.730018615722656 83.28585815429688 60.74361038208008 65.7876205444336" stroke-width="3.0" fill="none" stroke="rgb(0, 0, 0)" stroke-opacity="1.0" stroke-linecap="round" stroke-linejoin="round"/>
    <path d="M 102.15132904052734 199.87005615234375 C 67.38835906982422 197.3575897216797 70.02412414550781 198.77272033691406 102.86163330078125 200.78965759277344" stroke-width="3.0" fill="none" stroke="rgb(0, 0, 0)" stroke-opacity="1.0" stroke-linecap="round" stroke-linejoin="round"/>
    <path d="M 171.71600341796875 128.2816162109375 C 204.290771484375 110.00139617919922 186.24288940429688 92.61164093017578 156.60513305664062 84.25475311279297" stroke-width="3.0" fill="none" stroke="rgb(0, 0, 0)" stroke-opacity="1.0" stroke-linecap="round" stroke-linejoin="round"/>
    <path d="M 148.5111083984375 66.99701690673828 C 138.27500915527344 87.17171478271484 179.6446075439453 72.88629913330078 146.03343200683594 71.36347961425781" stroke-width="3.0" fill="none" stroke="rgb(0, 0, 0)" stroke-opacity="1.0" stroke-linecap="round" stroke-linejoin="round"/>
    <path d="M 141.30166625976562 75.27287292480469 C 139.6667022705078 38.81132507324219 194.77114868164062 111.85137176513672 180.73033142089844 42.968074798583984" stroke-width="3.0" fill="none" stroke="rgb(0, 0, 0)" stroke-opacity="1.0" stroke-linecap="round" stroke-linejoin="round"/>
    <path d="M 151.34107971191406 98.44965362548828 C 166.9443817138672 102.58641052246094 169.04498291015625 102.44164276123047 182.8145751953125 119.05438995361328" stroke-width="3.0" fill="none" stroke="rgb(0, 0, 0)" stroke-opacity="1.0" stroke-linecap="round" stroke-linejoin="round"/>
    <path d="M 177.5869140625 18.452741622924805 C 177.98439025878906 44.07254409790039 168.42332458496094 17.54302215576172 150.71876525878906 37.59720993041992" stroke-width="3.0" fill="none" stroke="rgb(0, 0, 0)" stroke-opacity="1.0" stroke-linecap="round" stroke-linejoin="round"/>
    <path d="M 122.52215576171875 102.1955795288086 C 153.4792022705078 100.89873504638672 138.61264038085938 111.05574035644531 117.84304809570312 100.58228302001953" stroke-width="3.0" fill="none" stroke="rgb(0, 0, 0)" stroke-opacity="1.0" stroke-linecap="round" stroke-linejoin="round"/>
    <path d="M 61.993282318115234 119.29955291748047 C 53.99925994873047 114.13312530517578 59.84669876098633 110.13304901123047 61.19194793701172 118.85775756835938" stroke-width="3.0" fill="none" stroke="rgb(0, 0, 0)" stroke-opacity="1.0" stroke-linecap="round" stroke-linejoin="round"/>
    <path d="M 124.10279083251953 75.76038360595703 C 120.82823944091797 42.25799560546875 112.9825668334961 59.02323913574219 118.83546447753906 37.473453521728516" stroke-width="3.0" fill="none" stroke="rgb(0, 0, 0)" stroke-opacity="1.0" stroke-linecap="round" stroke-linejoin="round"/>
    <path d="M 151.34068298339844 25.62155532836914 C 143.15609741210938 33.87107849121094 164.97474670410156 6.543216705322266 178.89491271972656 7.3953986167907715" stroke-width="3.0" fill="none" stroke="rgb(0, 0, 0)" stroke-opacity="1.0" stroke-linecap="round" stroke-linejoin="round"/>
  </g>
</svg>
