<?xml version="1.0" ?>
<svg xmlns="http://www.w3.org/2000/svg" version="1.1" width="224" height="224">
  <defs/>
  <g>
    <path d="M 63.885189056396484 81.59668731689453 C 66.8561782836914 83.20414733886719 65.81156158447266 84.82095336914062 55.600982666015625 73.5701675415039" stroke-width="3.0" fill="none" stroke="rgb(0, 0, 0)" stroke-opacity="1.0" stroke-linecap="round" stroke-linejoin="round"/>
    <path d="M 182.733642578125 125.12376403808594 C 178.2246856689453 113.36683654785156 198.62635803222656 96.3176498413086 173.5775909423828 130.7845001220703" stroke-width="3.0" fill="none" stroke="rgb(0, 0, 0)" stroke-opacity="1.0" stroke-linecap="round" stroke-linejoin="round"/>
    <path d="M 59.87532043457031 118.98734283447266 C 58.42654800415039 101.52622985839844 46.79020690917969 116.65001678466797 68.31201934814453 135.83834838867188" stroke-width="3.0" fill="none" stroke="rgb(0, 0, 0)" stroke-opacity="1.0" stroke-linecap="round" stroke-linejoin="round"/>
    <path d="M 186.5069122314453 101.7852554321289 C 158.56332397460938 83.87126922607422 177.23916625976562 81.89132690429688 195.54879760742188 114.7913818359375" stroke-width="3.0" fill="none" stroke="rgb(0, 0, 0)" stroke-opacity="1.0" stroke-linecap="round" stroke-linejoin="round"/>
    <path d="M 183.459716796875 66.84501647949219 C 181.1105499267578 106.88131713867188 186.02011108398438 96.49966430664062 182.99168395996094 58.79579162597656" stroke-width="3.0" fill="none" stroke="rgb(0, 0, 0)" stroke-opacity="1.0" stroke-linecap="round" stroke-linejoin="round"/>
    <path d="M 124.49069213867188 101.96808624267578 C 148.57772827148438 112.6523208618164 104.62638854980469 97.88174438476562 135.6994171142578 102.08155059814453" stroke-width="3.0" fill="none" stroke="rgb(0, 0, 0)" stroke-opacity="1.0" stroke-linecap="round" stroke-linejoin="round"/>
    <path d="M 174.08995056152344 100.62206268310547 C 194.75172424316406 83.9681625366211 182.44491577148438 70.3652572631836 158.33602905273438 86.28837585449219" stroke-width="3.0" fill="none" stroke="rgb(0, 0, 0)" stroke-opacity="1.0" stroke-linecap="round" stroke-linejoin="round"/>
    <path d="M 56.52988052368164 183.1639862060547 C 39.20274353027344 154.45114135742188 48.41523361206055 165.82186889648438 48.61918258666992 172.3866424560547" stroke-width="3.0" fill="none" stroke="rgb(0, 0, 0)" stroke-opacity="1.0" stroke-linecap="round" stroke-linejoin="round"/>
    <path d="M 57.34022903442383 183.33547973632812 C 89.37689971923828 211.0337677001953 114.59992218017578 197.73562622070312 131.74375915527344 180.15525817871094" stroke-width="3.0" fill="none" stroke="rgb(0, 0, 0)" stroke-opacity="1.0" stroke-linecap="round" stroke-linejoin="round"/>
    <path d="M 86.98948669433594 30.0043888092041 C 104.8904800415039 58.7914924621582 84.55157470703125 6.622870922088623 88.58433532714844 49.8425178527832" stroke-width="3.0" fill="none" stroke="rgb(0, 0, 0)" stroke-opacity="1.0" stroke-linecap="round" stroke-linejoin="round"/>
    <path d="M 58.3407096862793 115.1595230102539 C 58.119693756103516 133.86395263671875 102.09156036376953 157.54354858398438 96.6776351928711 155.65582275390625" stroke-width="3.0" fill="none" stroke="rgb(0, 0, 0)" stroke-opacity="1.0" stroke-linecap="round" stroke-linejoin="round"/>
    <path d="M 146.79080200195312 73.2445297241211 C 203.66592407226562 66.82054901123047 184.40065002441406 80.20040130615234 146.8751678466797 86.15956115722656" stroke-width="3.0" fill="none" stroke="rgb(0, 0, 0)" stroke-opacity="1.0" stroke-linecap="round" stroke-linejoin="round"/>
    <path d="M 151.22914123535156 95.92196655273438 C 178.91317749023438 101.79732513427734 175.93038940429688 103.59258270263672 188.32757568359375 111.1505355834961" stroke-width="3.0" fill="none" stroke="rgb(0, 0, 0)" stroke-opacity="1.0" stroke-linecap="round" stroke-linejoin="round"/>
    <path d="M 120.67333984375 157.59915161132812 C 145.6151580810547 146.9110870361328 118.9271240234375 162.49098205566406 120.84757232666016 153.65357971191406" stroke-width="3.0" fill="none" stroke="rgb(0, 0, 0)" stroke-opacity="1.0" stroke-linecap="round" stroke-linejoin="round"/>
    <path d="M 179.02195739746094 8.127042770385742 C 190.34803771972656 16.2204647064209 174.72097778320312 60.944637298583984 177.36154174804688 48.640254974365234" stroke-width="3.0" fill="none" stroke="rgb(0, 0, 0)" stroke-opacity="1.0" stroke-linecap="round" stroke-linejoin="round"/>
    <path d="M 130.4530792236328 30.548524856567383 C 124.32518768310547 57.708885192871094 134.02069091796875 35.356807708740234 126.53348541259766 68.49191284179688" stroke-width="3.0" fill="none" stroke="rgb(0, 0, 0)" stroke-opacity="1.0" stroke-linecap="round" stroke-linejoin="round"/>
    <path d="M 95.24374389648438 45.16038131713867 C 73.27127075195312 -2.192120313644409 86.55896759033203 -0.1768372356891632 107.50665283203125 40.006431579589844" stroke-width="3.0" fill="none" stroke="rgb(0, 0, 0)" stroke-opacity="1.0" stroke-linecap="round" stroke-linejoin="round"/>
    <path d="M 44.52931594848633 165.46189880371094 C 41.1580696105957 153.06898498535156 38.92599868774414 147.0516815185547 42.8990478515625 158.715087890625" stroke-width="3.0" fill="none" stroke="rgb(0, 0, 0)" stroke-opacity="1.0" stroke-linecap="round" stroke-linejoin="round"/>
    <path d="M 33.60224151611328 102.0650863647461 C 25.219690322875977 127.50941467285156 37.97190475463867 146.07696533203125 40.52544403076172 152.8828582763672" stroke-width="3.0" fill="none" stroke="rgb(0, 0, 0)" stroke-opacity="1.0" stroke-linecap="round" stroke-linejoin="round"/>
    <path d="M 89.28276062011719 151.05043029785156 C 101.08037567138672 163.6398162841797 115.0457763671875 147.81570434570312 107.69175720214844 160.6464385986328" stroke-width="3.0" fill="none" stroke="rgb(0, 0, 0)" stroke-opacity="1.0" stroke-linecap="round" stroke-linejoin="round"/>
    <path d="M 82.51615905761719 197.43177795410156 C 68.0684814453125 198.34490966796875 51.211490631103516 177.8593292236328 49.65156936645508 172.82008361816406" stroke-width="3.0" fill="none" stroke="rgb(0, 0, 0)" stroke-opacity="1.0" stroke-linecap="round" stroke-linejoin="round"/>
    <path d="M 44.0764274597168 163.42811584472656 C 59.97998046875 192.82003784179688 44.806575775146484 163.46107482910156 35.58447265625 142.7371368408203" stroke-width="3.0" fill="none" stroke="rgb(0, 0, 0)" stroke-opacity="1.0" stroke-linecap="round" stroke-linejoin="round"/>
    <path d="M 81.60903930664062 56.8845329284668 C 56.36416244506836 57.892333984375 50.824764251708984 72.67244720458984 32.527286529541016 105.5359878540039" stroke-width="3.0" fill="none" stroke="rgb(0, 0, 0)" stroke-opacity="1.0" stroke-linecap="round" stroke-linejoin="round"/>
    <path d="M 148.65390014648438 139.82867431640625 C 127.73595428466797 158.84603881835938 119.60826873779297 149.75869750976562 128.46112060546875 153.07586669921875" stroke-width="3.0" fill="none" stroke="rgb(0, 0, 0)" stroke-opacity="1.0" stroke-linecap="round" stroke-linejoin="round"/>
    <path d="M 140.13421630859375 31.756120681762695 C 144.32553100585938 62.27474594116211 136.2891082763672 55.377689361572266 136.31771850585938 74.69961547851562" stroke-width="3.0" fill="none" stroke="rgb(0, 0, 0)" stroke-opacity="1.0" stroke-linecap="round" stroke-linejoin="round"/>
    <path d="M 148.20416259765625 100.39038848876953 C 117.25630187988281 110.64942169189453 135.94827270507812 106.82172393798828 139.6447296142578 103.46971130371094" stroke-width="3.0" fill="none" stroke="rgb(0, 0, 0)" stroke-opacity="1.0" stroke-linecap="round" stroke-linejoin="round"/>
    <path d="M 136.24269104003906 72.75316619873047 C 144.27406311035156 55.654972076416016 131.08396911621094 60.936927795410156 136.78994750976562 72.15074920654297" stroke-width="3.0" fill="none" stroke="rgb(0, 0, 0)" stroke-opacity="1.0" stroke-linecap="round" stroke-linejoin="round"/>
    <path d="M 135.3933563232422 176.42010498046875 C 125.7507553100586 185.652099609375 139.11399841308594 179.13381958007812 144.5561065673828 148.5723419189453" stroke-width="3.0" fill="none" stroke="rgb(0, 0, 0)" stroke-opacity="1.0" stroke-linecap="round" stroke-linejoin="round"/>
    <path d="M 195.02035522460938 93.51829528808594 C 169.1657257080078 73.44683837890625 157.66952514648438 80.25885772705078 182.47308349609375 85.1164321899414" stroke-width="3.0" fill="none" stroke="rgb(0, 0, 0)" stroke-opacity="1.0" stroke-linecap="round" stroke-linejoin="round"/>
    <path d="M 150.8526153564453 77.05817413330078 C 157.2937774658203 64.53109741210938 200.21270751953125 81.11103820800781 179.32928466796875 65.89860534667969" stroke-width="3.0" fill="none" stroke="rgb(0, 0, 0)" stroke-opacity="1.0" stroke-linecap="round" stroke-linejoin="round"/>
    <path d="M 117.78314208984375 83.7084732055664 C 81.76542663574219 76.5212173461914 135.67330932617188 71.40665435791016 117.98606872558594 79.89075469970703" stroke-width="3.0" fill="none" stroke="rgb(0, 0, 0)" stroke-opacity="1.0" stroke-linecap="round" stroke-linejoin="round"/>
    <path d="M 154.49362182617188 136.2343292236328 C 133.85609436035156 167.33645629882812 110.708740234375 146.54598999023438 101.17976379394531 157.39186096191406" stroke-width="3.0" fill="none" stroke="rgb(0, 0, 0)" stroke-opacity="1.0" stroke-linecap="round" stroke-linejoin="round"/>
    <path d="M 125.5774917602539 87.63168334960938 C 140.31378173828125 97.32130432128906 132.75146484375 70.22042846679688 129.15614318847656 105.34744262695312" stroke-width="3.0" fill="none" stroke="rgb(0, 0, 0)" stroke-opacity="1.0" stroke-linecap="round" stroke-linejoin="round"/>
    <path d="M 185.70327758789062 112.4696044921875 C 183.3391571044922 79.49681854248047 190.30372619628906 95.19890594482422 140.3348388671875 84.12538146972656" stroke-width="3.0" fill="none" stroke="rgb(0, 0, 0)" stroke-opacity="1.0" stroke-linecap="round" stroke-linejoin="round"/>
    <path d="M 86.02814483642578 8.138090133666992 C 103.61332702636719 12.866066932678223 116.96376037597656 32.773048400878906 122.04332733154297 33.483009338378906" stroke-width="3.0" fill="none" stroke="rgb(0, 0, 0)" stroke-opacity="1.0" stroke-linecap="round" stroke-linejoin="round"/>
    <path d="M 65.52379608154297 121.77328491210938 C 57.54862976074219 114.16516876220703 65.02954864501953 133.53973388671875 60.700687408447266 120.94454193115234" stroke-width="3.0" fill="none" stroke="rgb(0, 0, 0)" stroke-opacity="1.0" stroke-linecap="round" stroke-linejoin="round"/>
    <path d="M 139.1345672607422 102.85818481445312 C 119.67830657958984 93.34437561035156 124.43895721435547 110.71488952636719 112.576171875 88.70001983642578" stroke-width="3.0" fill="none" stroke="rgb(0, 0, 0)" stroke-opacity="1.0" stroke-linecap="round" stroke-linejoin="round"/>
    <path d="M 30.554431915283203 129.8054962158203 C 27.231494903564453 102.3157730102539 33.36574172973633 105.40079498291016 36.689208984375 96.60722351074219" stroke-width="3.0" fill="none" stroke="rgb(0, 0, 0)" stroke-opacity="1.0" stroke-linecap="round" stroke-linejoin="round"/>
    <path d="M 84.55747985839844 197.38172912597656 C 70.45901489257812 195.19992065429688 65.89193725585938 195.53016662597656 89.82456970214844 198.67181396484375" stroke-width="3.0" fill="none" stroke="rgb(0, 0, 0)" stroke-opacity="1.0" stroke-linecap="round" stroke-linejoin="round"/>
    <path d="M 156.26730346679688 136.1698455810547 C 204.6503143310547 114.1435775756836 179.0813751220703 97.27625274658203 158.75692749023438 91.14054107666016" stroke-width="3.0" fill="none" stroke="rgb(0, 0, 0)" stroke-opacity="1.0" stroke-linecap="round" stroke-linejoin="round"/>
    <path d="M 158.2607879638672 72.41061401367188 C 124.87245178222656 81.06998443603516 177.51028442382812 82.59786987304688 146.943115234375 69.88261413574219" stroke-width="3.0" fill="none" stroke="rgb(0, 0, 0)" stroke-opacity="1.0" stroke-linecap="round" stroke-linejoin="round"/>
    <path d="M 139.5618133544922 80.08621215820312 C 148.5941925048828 42.09197998046875 191.4189453125 111.54507446289062 179.97216796875 45.05734634399414" stroke-width="3.0" fill="none" stroke="rgb(0, 0, 0)" stroke-opacity="1.0" stroke-linecap="round" stroke-linejoin="round"/>
    <path d="M 157.35824584960938 98.35370635986328 C 163.6901397705078 105.87495422363281 175.69639587402344 99.5173568725586 183.93470764160156 113.48472595214844" stroke-width="3.0" fill="none" stroke="rgb(0, 0, 0)" stroke-opacity="1.0" stroke-linecap="round" stroke-linejoin="round"/>
    <path d="M 175.56906127929688 15.277771949768066 C 166.9990692138672 41.92790222167969 175.80838012695312 19.30069923400879 156.66183471679688 36.870933532714844" stroke-width="3.0" fill="none" stroke="rgb(0, 0, 0)" stroke-opacity="1.0" stroke-linecap="round" stroke-linejoin="round"/>
    <path d="M 121.74293518066406 100.27152252197266 C 144.49777221679688 103.19708251953125 127.089111328125 115.09229278564453 118.86512756347656 101.18900299072266" stroke-width="3.0" fill="none" stroke="rgb(0, 0, 0)" stroke-opacity="1.0" stroke-linecap="round" stroke-linejoin="round"/>
    <path d="M 70.66737365722656 130.35064697265625 C 41.47456741333008 110.0096206665039 55.136627197265625 110.23043823242188 66.22489929199219 120.76459503173828" stroke-width="3.0" fill="none" stroke="rgb(0, 0, 0)" stroke-opacity="1.0" stroke-linecap="round" stroke-linejoin="round"/>
    <path d="M 124.30545806884766 74.0882797241211 C 123.01433563232422 39.015743255615234 116.45762634277344 56.64521408081055 122.10469055175781 29.588783264160156" stroke-width="3.0" fill="none" stroke="rgb(0, 0, 0)" stroke-opacity="1.0" stroke-linecap="round" stroke-linejoin="round"/>
    <path d="M 145.2601318359375 30.71277618408203 C 144.5606689453125 39.52095413208008 156.84542846679688 8.962814331054688 178.6201934814453 8.004096984863281" stroke-width="3.0" fill="none" stroke="rgb(0, 0, 0)" stroke-opacity="1.0" stroke-linecap="round" stroke-linejoin="round"/>
  </g>
</svg>
