<?xml version="1.0" ?>
<svg xmlns="http://www.w3.org/2000/svg" version="1.1" width="224" height="224">
  <defs/>
  <g>
    <path d="M 69.04413604736328 99.85242462158203 C 66.8790054321289 99.09388732910156 60.425514221191406 99.34468841552734 62.06079864501953 98.12422943115234" stroke-width="3.0" fill="none" stroke="rgb(0, 0, 0)" stroke-opacity="1.0" stroke-linecap="round" stroke-linejoin="round"/>
    <path d="M 174.45115661621094 129.0173797607422 C 169.48081970214844 116.064697265625 165.83935546875 119.97840118408203 181.0174102783203 123.9428482055664" stroke-width="3.0" fill="none" stroke="rgb(0, 0, 0)" stroke-opacity="1.0" stroke-linecap="round" stroke-linejoin="round"/>
    <path d="M 54.80595397949219 112.62039947509766 C 52.0301628112793 111.27039337158203 54.41261672973633 100.21063995361328 49.57133483886719 113.26419067382812" stroke-width="3.0" fill="none" stroke="rgb(0, 0, 0)" stroke-opacity="1.0" stroke-linecap="round" stroke-linejoin="round"/>
    <path d="M 168.89483642578125 99.27826690673828 C 164.35833740234375 104.92867279052734 160.1443634033203 102.57073974609375 166.75250244140625 112.06779479980469" stroke-width="3.0" fill="none" stroke="rgb(0, 0, 0)" stroke-opacity="1.0" stroke-linecap="round" stroke-linejoin="round"/>
    <path d="M 185.43109130859375 79.63347625732422 C 181.0194091796875 80.29727935791016 177.98544311523438 83.9698715209961 187.65476989746094 91.48190307617188" stroke-width="3.0" fill="none" stroke="rgb(0, 0, 0)" stroke-opacity="1.0" stroke-linecap="round" stroke-linejoin="round"/>
    <path d="M 124.19662475585938 113.99226379394531 C 119.7693099975586 112.94098663330078 126.57852172851562 114.93730163574219 121.81484985351562 109.95406341552734" stroke-width="3.0" fill="none" stroke="rgb(0, 0, 0)" stroke-opacity="1.0" stroke-linecap="round" stroke-linejoin="round"/>
    <path d="M 173.99514770507812 84.28482055664062 C 176.28268432617188 82.02896118164062 178.9359893798828 88.81297302246094 169.8564453125 91.9109115600586" stroke-width="3.0" fill="none" stroke="rgb(0, 0, 0)" stroke-opacity="1.0" stroke-linecap="round" stroke-linejoin="round"/>
    <path d="M 54.25082015991211 170.06834411621094 C 55.088531494140625 166.46743774414062 51.5482177734375 170.50802612304688 54.979393005371094 168.07675170898438" stroke-width="3.0" fill="none" stroke="rgb(0, 0, 0)" stroke-opacity="1.0" stroke-linecap="round" stroke-linejoin="round"/>
    <path d="M 80.32052612304688 191.3155517578125 C 79.52381896972656 190.3653106689453 84.9432601928711 194.88168334960938 82.9549331665039 192.9232940673828" stroke-width="3.0" fill="none" stroke="rgb(0, 0, 0)" stroke-opacity="1.0" stroke-linecap="round" stroke-linejoin="round"/>
    <path d="M 92.46952056884766 77.58345031738281 C 88.66425323486328 79.86470031738281 85.1726303100586 81.48226165771484 87.86913299560547 80.13412475585938" stroke-width="3.0" fill="none" stroke="rgb(0, 0, 0)" stroke-opacity="1.0" stroke-linecap="round" stroke-linejoin="round"/>
    <path d="M 79.91232299804688 145.00625610351562 C 80.58968353271484 145.56280517578125 85.44732666015625 145.7477569580078 83.64090728759766 147.9348907470703" stroke-width="3.0" fill="none" stroke="rgb(0, 0, 0)" stroke-opacity="1.0" stroke-linecap="round" stroke-linejoin="round"/>
    <path d="M 167.71429443359375 90.75879669189453 C 173.0676727294922 97.15913391113281 174.85272216796875 93.2229232788086 165.09637451171875 92.67322540283203" stroke-width="3.0" fill="none" stroke="rgb(0, 0, 0)" stroke-opacity="1.0" stroke-linecap="round" stroke-linejoin="round"/>
    <path d="M 159.75262451171875 102.28096771240234 C 168.88446044921875 100.33872985839844 155.89881896972656 102.76530456542969 164.04367065429688 108.90489196777344" stroke-width="3.0" fill="none" stroke="rgb(0, 0, 0)" stroke-opacity="1.0" stroke-linecap="round" stroke-linejoin="round"/>
    <path d="M 84.95951843261719 174.54969787597656 C 91.66011047363281 177.73123168945312 98.12965393066406 180.87100219726562 93.77252197265625 188.9248504638672" stroke-width="3.0" fill="none" stroke="rgb(0, 0, 0)" stroke-opacity="1.0" stroke-linecap="round" stroke-linejoin="round"/>
    <path d="M 166.79208374023438 35.4836540222168 C 165.30230712890625 29.316673278808594 168.5900421142578 36.00650405883789 177.3004608154297 40.80867385864258" stroke-width="3.0" fill="none" stroke="rgb(0, 0, 0)" stroke-opacity="1.0" stroke-linecap="round" stroke-linejoin="round"/>
    <path d="M 122.71953582763672 31.53590202331543 C 127.11849212646484 39.40849685668945 122.49519348144531 42.49897766113281 128.6187286376953 51.73761749267578" stroke-width="3.0" fill="none" stroke="rgb(0, 0, 0)" stroke-opacity="1.0" stroke-linecap="round" stroke-linejoin="round"/>
    <path d="M 80.06836700439453 15.060808181762695 C 79.2344970703125 10.636791229248047 85.82555389404297 12.646686553955078 94.32280731201172 25.224672317504883" stroke-width="3.0" fill="none" stroke="rgb(0, 0, 0)" stroke-opacity="1.0" stroke-linecap="round" stroke-linejoin="round"/>
    <path d="M 45.019046783447266 166.56031799316406 C 44.61921310424805 163.42108154296875 42.60536575317383 158.3025360107422 46.67914962768555 153.7947540283203" stroke-width="3.0" fill="none" stroke="rgb(0, 0, 0)" stroke-opacity="1.0" stroke-linecap="round" stroke-linejoin="round"/>
    <path d="M 52.37849807739258 148.04930114746094 C 50.3592643737793 137.0321502685547 55.296077728271484 144.33480834960938 53.41292190551758 142.00120544433594" stroke-width="3.0" fill="none" stroke="rgb(0, 0, 0)" stroke-opacity="1.0" stroke-linecap="round" stroke-linejoin="round"/>
    <path d="M 73.5213851928711 167.09141540527344 C 72.1246337890625 163.82037353515625 77.33084869384766 161.16372680664062 75.1983642578125 162.7786865234375" stroke-width="3.0" fill="none" stroke="rgb(0, 0, 0)" stroke-opacity="1.0" stroke-linecap="round" stroke-linejoin="round"/>
    <path d="M 77.1994857788086 188.31834411621094 C 77.74174499511719 184.72348022460938 74.94461059570312 190.67665100097656 65.79558563232422 182.3358154296875" stroke-width="3.0" fill="none" stroke="rgb(0, 0, 0)" stroke-opacity="1.0" stroke-linecap="round" stroke-linejoin="round"/>
    <path d="M 43.745601654052734 153.25527954101562 C 51.362335205078125 150.33546447753906 42.13429641723633 147.84500122070312 48.379241943359375 151.479248046875" stroke-width="3.0" fill="none" stroke="rgb(0, 0, 0)" stroke-opacity="1.0" stroke-linecap="round" stroke-linejoin="round"/>
    <path d="M 60.93690490722656 86.9958724975586 C 54.5211067199707 86.28425598144531 56.18964767456055 83.54338836669922 40.95764923095703 86.52229309082031" stroke-width="3.0" fill="none" stroke="rgb(0, 0, 0)" stroke-opacity="1.0" stroke-linecap="round" stroke-linejoin="round"/>
    <path d="M 133.4475555419922 150.5283203125 C 120.74054718017578 142.81954956054688 122.39192199707031 132.4598846435547 125.13023376464844 144.80593872070312" stroke-width="3.0" fill="none" stroke="rgb(0, 0, 0)" stroke-opacity="1.0" stroke-linecap="round" stroke-linejoin="round"/>
    <path d="M 136.21322631835938 53.6772346496582 C 134.64578247070312 50.03000259399414 140.3332061767578 58.139163970947266 142.68429565429688 56.329185485839844" stroke-width="3.0" fill="none" stroke="rgb(0, 0, 0)" stroke-opacity="1.0" stroke-linecap="round" stroke-linejoin="round"/>
    <path d="M 137.1096649169922 110.98666381835938 C 133.9024200439453 113.3724594116211 127.85749816894531 113.69786071777344 133.1829376220703 111.76300811767578" stroke-width="3.0" fill="none" stroke="rgb(0, 0, 0)" stroke-opacity="1.0" stroke-linecap="round" stroke-linejoin="round"/>
    <path d="M 153.71218872070312 61.75832748413086 C 155.11862182617188 57.270713806152344 157.8453826904297 51.07790756225586 162.45809936523438 59.372596740722656" stroke-width="3.0" fill="none" stroke="rgb(0, 0, 0)" stroke-opacity="1.0" stroke-linecap="round" stroke-linejoin="round"/>
    <path d="M 98.09524536132812 176.74293518066406 C 98.70372772216797 174.9860382080078 86.089599609375 174.01324462890625 106.47087097167969 177.1563720703125" stroke-width="3.0" fill="none" stroke="rgb(0, 0, 0)" stroke-opacity="1.0" stroke-linecap="round" stroke-linejoin="round"/>
    <path d="M 185.09158325195312 88.34605407714844 C 184.988037109375 94.12776184082031 184.32769775390625 95.26167297363281 180.784912109375 86.28056335449219" stroke-width="3.0" fill="none" stroke="rgb(0, 0, 0)" stroke-opacity="1.0" stroke-linecap="round" stroke-linejoin="round"/>
    <path d="M 176.43467712402344 83.08866119384766 C 172.02650451660156 89.41024017333984 171.50228881835938 88.30301666259766 169.74053955078125 90.77788543701172" stroke-width="3.0" fill="none" stroke="rgb(0, 0, 0)" stroke-opacity="1.0" stroke-linecap="round" stroke-linejoin="round"/>
    <path d="M 110.20233154296875 72.48719024658203 C 107.40552520751953 79.42081451416016 115.40766143798828 70.50933074951172 112.32945251464844 82.19970703125" stroke-width="3.0" fill="none" stroke="rgb(0, 0, 0)" stroke-opacity="1.0" stroke-linecap="round" stroke-linejoin="round"/>
    <path d="M 111.81697845458984 140.15603637695312 C 110.30104064941406 136.25604248046875 109.34922790527344 135.5457000732422 109.23343658447266 134.69207763671875" stroke-width="3.0" fill="none" stroke="rgb(0, 0, 0)" stroke-opacity="1.0" stroke-linecap="round" stroke-linejoin="round"/>
    <path d="M 132.87826538085938 91.67166900634766 C 139.28729248046875 87.49324035644531 134.32899475097656 85.01078796386719 134.90635681152344 90.83477783203125" stroke-width="3.0" fill="none" stroke="rgb(0, 0, 0)" stroke-opacity="1.0" stroke-linecap="round" stroke-linejoin="round"/>
    <path d="M 164.83346557617188 105.56680297851562 C 163.70095825195312 95.79515838623047 165.41629028320312 96.50361633300781 162.51156616210938 96.17473602294922" stroke-width="3.0" fill="none" stroke="rgb(0, 0, 0)" stroke-opacity="1.0" stroke-linecap="round" stroke-linejoin="round"/>
    <path d="M 101.808349609375 21.97451400756836 C 102.65271759033203 18.977304458618164 106.23866271972656 23.977458953857422 105.16590881347656 21.716630935668945" stroke-width="3.0" fill="none" stroke="rgb(0, 0, 0)" stroke-opacity="1.0" stroke-linecap="round" stroke-linejoin="round"/>
    <path d="M 53.15842819213867 107.37922668457031 C 54.55161666870117 110.28014373779297 63.30844497680664 117.37382507324219 55.1317253112793 119.41510772705078" stroke-width="3.0" fill="none" stroke="rgb(0, 0, 0)" stroke-opacity="1.0" stroke-linecap="round" stroke-linejoin="round"/>
    <path d="M 112.87382507324219 108.87417602539062 C 106.26387023925781 106.75798797607422 109.07260131835938 110.71571350097656 109.91252136230469 106.03949737548828" stroke-width="3.0" fill="none" stroke="rgb(0, 0, 0)" stroke-opacity="1.0" stroke-linecap="round" stroke-linejoin="round"/>
    <path d="M 43.0810661315918 110.81859588623047 C 42.58934020996094 102.2275390625 43.13228988647461 101.10226440429688 42.44453048706055 102.61431121826172" stroke-width="3.0" fill="none" stroke="rgb(0, 0, 0)" stroke-opacity="1.0" stroke-linecap="round" stroke-linejoin="round"/>
    <path d="M 79.39358520507812 179.2725372314453 C 75.43180847167969 177.07907104492188 83.93600463867188 185.71495056152344 80.57588195800781 181.83030700683594" stroke-width="3.0" fill="none" stroke="rgb(0, 0, 0)" stroke-opacity="1.0" stroke-linecap="round" stroke-linejoin="round"/>
    <path d="M 165.98577880859375 119.43868255615234 C 163.92568969726562 118.8043212890625 159.85415649414062 116.06732940673828 153.24339294433594 114.68407440185547" stroke-width="3.0" fill="none" stroke="rgb(0, 0, 0)" stroke-opacity="1.0" stroke-linecap="round" stroke-linejoin="round"/>
    <path d="M 141.33837890625 82.6156005859375 C 143.07403564453125 79.79084014892578 137.5333251953125 77.79602813720703 143.11705017089844 82.45475006103516" stroke-width="3.0" fill="none" stroke="rgb(0, 0, 0)" stroke-opacity="1.0" stroke-linecap="round" stroke-linejoin="round"/>
    <path d="M 165.80233764648438 86.8083267211914 C 173.81182861328125 82.74052429199219 168.7689208984375 80.42253875732422 171.50979614257812 80.77042388916016" stroke-width="3.0" fill="none" stroke="rgb(0, 0, 0)" stroke-opacity="1.0" stroke-linecap="round" stroke-linejoin="round"/>
    <path d="M 140.04812622070312 123.43724822998047 C 144.8542938232422 121.18952941894531 146.193359375 119.25457763671875 146.49813842773438 116.26995849609375" stroke-width="3.0" fill="none" stroke="rgb(0, 0, 0)" stroke-opacity="1.0" stroke-linecap="round" stroke-linejoin="round"/>
    <path d="M 164.1472930908203 29.07352638244629 C 174.27740478515625 33.2917594909668 183.6743927001953 29.297216415405273 174.7317352294922 36.32068634033203" stroke-width="3.0" fill="none" stroke="rgb(0, 0, 0)" stroke-opacity="1.0" stroke-linecap="round" stroke-linejoin="round"/>
    <path d="M 120.57843017578125 111.74652862548828 C 124.1310806274414 114.2190170288086 116.1840591430664 113.41130828857422 117.08123779296875 110.33430480957031" stroke-width="3.0" fill="none" stroke="rgb(0, 0, 0)" stroke-opacity="1.0" stroke-linecap="round" stroke-linejoin="round"/>
    <path d="M 52.233070373535156 110.36881256103516 C 49.204708099365234 108.06710052490234 45.166725158691406 102.50834655761719 49.026485443115234 113.17374420166016" stroke-width="3.0" fill="none" stroke="rgb(0, 0, 0)" stroke-opacity="1.0" stroke-linecap="round" stroke-linejoin="round"/>
    <path d="M 115.05999755859375 72.79678344726562 C 115.13594818115234 65.84928131103516 114.20157623291016 62.884910583496094 113.50212097167969 61.28408432006836" stroke-width="3.0" fill="none" stroke="rgb(0, 0, 0)" stroke-opacity="1.0" stroke-linecap="round" stroke-linejoin="round"/>
    <path d="M 164.7140350341797 52.13824462890625 C 155.92092895507812 48.53852462768555 161.86978149414062 42.43051528930664 162.22848510742188 35.009220123291016" stroke-width="3.0" fill="none" stroke="rgb(0, 0, 0)" stroke-opacity="1.0" stroke-linecap="round" stroke-linejoin="round"/>
  </g>
</svg>
