<?xml version="1.0" ?>
<svg xmlns="http://www.w3.org/2000/svg" version="1.1" width="224" height="224">
  <defs/>
  <g>
    <path d="M 63.73884201049805 83.50759887695312 C 64.09563446044922 82.81243896484375 65.30054473876953 86.16896057128906 55.1113395690918 74.7219467163086" stroke-width="3.0" fill="none" stroke="rgb(0, 0, 0)" stroke-opacity="1.0" stroke-linecap="round" stroke-linejoin="round"/>
    <path d="M 186.72840881347656 121.63705444335938 C 181.32464599609375 109.5123062133789 198.03451538085938 93.34491729736328 177.10682678222656 127.03965759277344" stroke-width="3.0" fill="none" stroke="rgb(0, 0, 0)" stroke-opacity="1.0" stroke-linecap="round" stroke-linejoin="round"/>
    <path d="M 60.58413314819336 127.81651306152344 C 51.54091262817383 100.4400634765625 59.126583099365234 125.82902526855469 64.48005676269531 131.19564819335938" stroke-width="3.0" fill="none" stroke="rgb(0, 0, 0)" stroke-opacity="1.0" stroke-linecap="round" stroke-linejoin="round"/>
    <path d="M 183.59202575683594 97.81187438964844 C 154.78564453125 83.85493469238281 175.60012817382812 80.42395782470703 195.85321044921875 113.7039794921875" stroke-width="3.0" fill="none" stroke="rgb(0, 0, 0)" stroke-opacity="1.0" stroke-linecap="round" stroke-linejoin="round"/>
    <path d="M 183.0269775390625 61.15772247314453 C 175.90771484375 111.89936065673828 182.44036865234375 98.78418731689453 184.21644592285156 67.0631332397461" stroke-width="3.0" fill="none" stroke="rgb(0, 0, 0)" stroke-opacity="1.0" stroke-linecap="round" stroke-linejoin="round"/>
    <path d="M 123.74668884277344 103.16031646728516 C 145.95700073242188 117.07138061523438 101.79126739501953 98.85295104980469 133.40716552734375 102.0151596069336" stroke-width="3.0" fill="none" stroke="rgb(0, 0, 0)" stroke-opacity="1.0" stroke-linecap="round" stroke-linejoin="round"/>
    <path d="M 174.9920196533203 99.62047576904297 C 188.98269653320312 86.80764770507812 176.10267639160156 72.19432830810547 155.9325714111328 86.08993530273438" stroke-width="3.0" fill="none" stroke="rgb(0, 0, 0)" stroke-opacity="1.0" stroke-linecap="round" stroke-linejoin="round"/>
    <path d="M 58.142295837402344 184.14715576171875 C 37.844783782958984 155.1265411376953 48.95708084106445 165.51806640625 50.09812545776367 174.15196228027344" stroke-width="3.0" fill="none" stroke="rgb(0, 0, 0)" stroke-opacity="1.0" stroke-linecap="round" stroke-linejoin="round"/>
    <path d="M 58.159645080566406 184.6648712158203 C 95.52130889892578 211.2772216796875 112.48896789550781 197.18594360351562 133.22586059570312 178.83218383789062" stroke-width="3.0" fill="none" stroke="rgb(0, 0, 0)" stroke-opacity="1.0" stroke-linecap="round" stroke-linejoin="round"/>
    <path d="M 85.66866302490234 34.574337005615234 C 98.5665512084961 72.0677490234375 86.71762084960938 11.729196548461914 83.69705963134766 52.81130599975586" stroke-width="3.0" fill="none" stroke="rgb(0, 0, 0)" stroke-opacity="1.0" stroke-linecap="round" stroke-linejoin="round"/>
    <path d="M 53.16421890258789 106.85822296142578 C 62.279537200927734 135.9513397216797 95.22846221923828 160.60374450683594 96.38314056396484 156.1706085205078" stroke-width="3.0" fill="none" stroke="rgb(0, 0, 0)" stroke-opacity="1.0" stroke-linecap="round" stroke-linejoin="round"/>
    <path d="M 142.49632263183594 74.09539794921875 C 206.10308837890625 64.41011047363281 191.22958374023438 81.67211151123047 152.49620056152344 85.60623168945312" stroke-width="3.0" fill="none" stroke="rgb(0, 0, 0)" stroke-opacity="1.0" stroke-linecap="round" stroke-linejoin="round"/>
    <path d="M 149.99148559570312 95.28544616699219 C 186.37640380859375 100.3064956665039 173.66856384277344 104.11206817626953 194.1610870361328 112.36292266845703" stroke-width="3.0" fill="none" stroke="rgb(0, 0, 0)" stroke-opacity="1.0" stroke-linecap="round" stroke-linejoin="round"/>
    <path d="M 120.91757202148438 153.11241149902344 C 144.6542205810547 144.68014526367188 123.58299255371094 159.294677734375 122.60640716552734 150.96487426757812" stroke-width="3.0" fill="none" stroke="rgb(0, 0, 0)" stroke-opacity="1.0" stroke-linecap="round" stroke-linejoin="round"/>
    <path d="M 177.0968475341797 9.718846321105957 C 189.2750701904297 22.276592254638672 174.44297790527344 58.07307815551758 180.21591186523438 49.083091735839844" stroke-width="3.0" fill="none" stroke="rgb(0, 0, 0)" stroke-opacity="1.0" stroke-linecap="round" stroke-linejoin="round"/>
    <path d="M 132.51817321777344 32.80830383300781 C 122.42495727539062 54.70681381225586 133.32943725585938 39.087852478027344 124.77567291259766 70.3695068359375" stroke-width="3.0" fill="none" stroke="rgb(0, 0, 0)" stroke-opacity="1.0" stroke-linecap="round" stroke-linejoin="round"/>
    <path d="M 88.56131744384766 52.21370315551758 C 78.81576538085938 -8.217759132385254 84.0579605102539 0.06895936280488968 106.20384216308594 42.16099166870117" stroke-width="3.0" fill="none" stroke="rgb(0, 0, 0)" stroke-opacity="1.0" stroke-linecap="round" stroke-linejoin="round"/>
    <path d="M 45.07740020751953 167.1442108154297 C 41.1538200378418 153.911865234375 38.86018371582031 146.37814331054688 45.59076690673828 165.30941772460938" stroke-width="3.0" fill="none" stroke="rgb(0, 0, 0)" stroke-opacity="1.0" stroke-linecap="round" stroke-linejoin="round"/>
    <path d="M 33.877716064453125 101.36155700683594 C 23.423870086669922 121.43880462646484 38.65135192871094 147.2244415283203 39.55293655395508 152.282958984375" stroke-width="3.0" fill="none" stroke="rgb(0, 0, 0)" stroke-opacity="1.0" stroke-linecap="round" stroke-linejoin="round"/>
    <path d="M 92.26924896240234 152.0670166015625 C 101.13964080810547 159.0187530517578 106.6399917602539 160.51541137695312 103.9762191772461 152.75892639160156" stroke-width="3.0" fill="none" stroke="rgb(0, 0, 0)" stroke-opacity="1.0" stroke-linecap="round" stroke-linejoin="round"/>
    <path d="M 84.27725982666016 199.23800659179688 C 68.1019287109375 198.9784698486328 50.27138900756836 177.75584411621094 47.20475387573242 170.19325256347656" stroke-width="3.0" fill="none" stroke="rgb(0, 0, 0)" stroke-opacity="1.0" stroke-linecap="round" stroke-linejoin="round"/>
    <path d="M 44.38089370727539 165.91111755371094 C 59.74260330200195 193.49551391601562 44.29982376098633 164.0888671875 39.41456604003906 147.3254852294922" stroke-width="3.0" fill="none" stroke="rgb(0, 0, 0)" stroke-opacity="1.0" stroke-linecap="round" stroke-linejoin="round"/>
    <path d="M 77.85014343261719 56.85291290283203 C 60.42171859741211 56.398311614990234 47.27950668334961 71.7212905883789 32.5146484375 103.5828857421875" stroke-width="3.0" fill="none" stroke="rgb(0, 0, 0)" stroke-opacity="1.0" stroke-linecap="round" stroke-linejoin="round"/>
    <path d="M 147.7605743408203 141.47926330566406 C 127.0847396850586 158.33984375 116.28966522216797 149.53244018554688 130.35581970214844 154.88206481933594" stroke-width="3.0" fill="none" stroke="rgb(0, 0, 0)" stroke-opacity="1.0" stroke-linecap="round" stroke-linejoin="round"/>
    <path d="M 141.65969848632812 31.82850456237793 C 148.91940307617188 62.66917419433594 134.42431640625 54.45836639404297 135.35482788085938 79.39552307128906" stroke-width="3.0" fill="none" stroke="rgb(0, 0, 0)" stroke-opacity="1.0" stroke-linecap="round" stroke-linejoin="round"/>
    <path d="M 145.25413513183594 98.14897155761719 C 116.89141082763672 111.44096374511719 140.7230682373047 108.25340270996094 130.3159637451172 103.26319122314453" stroke-width="3.0" fill="none" stroke="rgb(0, 0, 0)" stroke-opacity="1.0" stroke-linecap="round" stroke-linejoin="round"/>
    <path d="M 134.85296630859375 74.2483901977539 C 146.69778442382812 57.14080047607422 132.1173858642578 58.476924896240234 135.3274688720703 74.51412963867188" stroke-width="3.0" fill="none" stroke="rgb(0, 0, 0)" stroke-opacity="1.0" stroke-linecap="round" stroke-linejoin="round"/>
    <path d="M 133.01605224609375 178.77865600585938 C 127.82794952392578 186.24002075195312 138.08486938476562 179.2667999267578 143.59339904785156 150.7858123779297" stroke-width="3.0" fill="none" stroke="rgb(0, 0, 0)" stroke-opacity="1.0" stroke-linecap="round" stroke-linejoin="round"/>
    <path d="M 194.08438110351562 95.92741394042969 C 169.87242126464844 69.99895477294922 153.40341186523438 83.52539825439453 184.96694946289062 85.870361328125" stroke-width="3.0" fill="none" stroke="rgb(0, 0, 0)" stroke-opacity="1.0" stroke-linecap="round" stroke-linejoin="round"/>
    <path d="M 145.2943878173828 77.70471954345703 C 162.7511444091797 60.56437683105469 191.70358276367188 86.65216827392578 181.08529663085938 64.48101043701172" stroke-width="3.0" fill="none" stroke="rgb(0, 0, 0)" stroke-opacity="1.0" stroke-linecap="round" stroke-linejoin="round"/>
    <path d="M 113.30290222167969 83.58556365966797 C 80.21149444580078 76.84725189208984 138.1297607421875 75.46566009521484 107.75556182861328 82.81718444824219" stroke-width="3.0" fill="none" stroke="rgb(0, 0, 0)" stroke-opacity="1.0" stroke-linecap="round" stroke-linejoin="round"/>
    <path d="M 152.60794067382812 135.2439727783203 C 134.68856811523438 166.91400146484375 115.9007339477539 147.00668334960938 104.68364715576172 157.23831176757812" stroke-width="3.0" fill="none" stroke="rgb(0, 0, 0)" stroke-opacity="1.0" stroke-linecap="round" stroke-linejoin="round"/>
    <path d="M 124.2157974243164 89.34965515136719 C 142.28045654296875 103.85261535644531 131.843994140625 70.21561431884766 128.938720703125 105.12535858154297" stroke-width="3.0" fill="none" stroke="rgb(0, 0, 0)" stroke-opacity="1.0" stroke-linecap="round" stroke-linejoin="round"/>
    <path d="M 190.33685302734375 110.69832611083984 C 181.8926239013672 83.2112808227539 188.24256896972656 91.70813751220703 140.3871612548828 83.93143463134766" stroke-width="3.0" fill="none" stroke="rgb(0, 0, 0)" stroke-opacity="1.0" stroke-linecap="round" stroke-linejoin="round"/>
    <path d="M 86.92725372314453 8.934439659118652 C 100.06929779052734 13.4423189163208 115.91207122802734 31.291215896606445 119.0365982055664 32.11901092529297" stroke-width="3.0" fill="none" stroke="rgb(0, 0, 0)" stroke-opacity="1.0" stroke-linecap="round" stroke-linejoin="round"/>
    <path d="M 60.51314163208008 124.33981323242188 C 55.00892639160156 114.79132080078125 63.63451385498047 132.80540466308594 58.41945266723633 120.85700988769531" stroke-width="3.0" fill="none" stroke="rgb(0, 0, 0)" stroke-opacity="1.0" stroke-linecap="round" stroke-linejoin="round"/>
    <path d="M 137.41427612304688 107.45978546142578 C 121.61824035644531 96.36251831054688 119.80347442626953 118.30695343017578 110.67609405517578 89.86722564697266" stroke-width="3.0" fill="none" stroke="rgb(0, 0, 0)" stroke-opacity="1.0" stroke-linecap="round" stroke-linejoin="round"/>
    <path d="M 32.71640396118164 131.47349548339844 C 29.39057159423828 102.37623596191406 36.28757858276367 98.50006866455078 40.06552505493164 89.93502807617188" stroke-width="3.0" fill="none" stroke="rgb(0, 0, 0)" stroke-opacity="1.0" stroke-linecap="round" stroke-linejoin="round"/>
    <path d="M 78.61569213867188 197.1520233154297 C 73.33544921875 191.59799194335938 69.54541778564453 192.96339416503906 96.4912338256836 198.95420837402344" stroke-width="3.0" fill="none" stroke="rgb(0, 0, 0)" stroke-opacity="1.0" stroke-linecap="round" stroke-linejoin="round"/>
    <path d="M 156.02313232421875 133.1686248779297 C 208.16192626953125 117.50918579101562 181.7881622314453 96.69831848144531 156.43980407714844 92.12328338623047" stroke-width="3.0" fill="none" stroke="rgb(0, 0, 0)" stroke-opacity="1.0" stroke-linecap="round" stroke-linejoin="round"/>
    <path d="M 152.98728942871094 69.36875915527344 C 127.65274810791016 81.05302429199219 169.93785095214844 82.65547180175781 143.6358642578125 71.12923431396484" stroke-width="3.0" fill="none" stroke="rgb(0, 0, 0)" stroke-opacity="1.0" stroke-linecap="round" stroke-linejoin="round"/>
    <path d="M 140.60293579101562 78.01395416259766 C 144.80682373046875 43.01538848876953 196.43951416015625 114.08055114746094 180.62368774414062 44.29813766479492" stroke-width="3.0" fill="none" stroke="rgb(0, 0, 0)" stroke-opacity="1.0" stroke-linecap="round" stroke-linejoin="round"/>
    <path d="M 157.07144165039062 96.92774200439453 C 170.7854766845703 105.5221176147461 174.74147033691406 102.08981323242188 181.08445739746094 118.38414001464844" stroke-width="3.0" fill="none" stroke="rgb(0, 0, 0)" stroke-opacity="1.0" stroke-linecap="round" stroke-linejoin="round"/>
    <path d="M 177.22142028808594 16.458133697509766 C 172.58724975585938 42.949642181396484 172.6938018798828 22.900402069091797 160.66043090820312 36.63125228881836" stroke-width="3.0" fill="none" stroke="rgb(0, 0, 0)" stroke-opacity="1.0" stroke-linecap="round" stroke-linejoin="round"/>
    <path d="M 117.72020721435547 102.92662048339844 C 146.0335235595703 103.50187683105469 132.1614532470703 115.41401672363281 118.524169921875 105.13389587402344" stroke-width="3.0" fill="none" stroke="rgb(0, 0, 0)" stroke-opacity="1.0" stroke-linecap="round" stroke-linejoin="round"/>
    <path d="M 78.62007904052734 138.7083282470703 C 49.81740951538086 122.70804595947266 58.85283660888672 109.0448226928711 61.32392501831055 121.14893341064453" stroke-width="3.0" fill="none" stroke="rgb(0, 0, 0)" stroke-opacity="1.0" stroke-linecap="round" stroke-linejoin="round"/>
    <path d="M 121.63232421875 75.94158935546875 C 127.17063903808594 38.93747329711914 114.51713562011719 56.66221618652344 123.13935089111328 32.54717254638672" stroke-width="3.0" fill="none" stroke="rgb(0, 0, 0)" stroke-opacity="1.0" stroke-linecap="round" stroke-linejoin="round"/>
    <path d="M 146.4270782470703 29.610719680786133 C 144.26341247558594 39.621421813964844 159.0194549560547 7.806766986846924 178.45030212402344 9.002425193786621" stroke-width="3.0" fill="none" stroke="rgb(0, 0, 0)" stroke-opacity="1.0" stroke-linecap="round" stroke-linejoin="round"/>
  </g>
</svg>
