<?xml version="1.0" ?>
<svg xmlns="http://www.w3.org/2000/svg" version="1.1" width="224" height="224">
  <defs/>
  <g>
    <path d="M 53.77030944824219 119.6739730834961 C 56.45556640625 119.32991027832031 44.07255935668945 109.39328002929688 42.969722747802734 93.8041000366211" stroke-width="3.0" fill="none" stroke="rgb(0, 0, 0)" stroke-opacity="1.0" stroke-linecap="round" stroke-linejoin="round"/>
    <path d="M 180.35569763183594 126.68762969970703 C 180.2999725341797 110.40824127197266 183.69161987304688 119.16471862792969 186.1111297607422 120.62244415283203" stroke-width="3.0" fill="none" stroke="rgb(0, 0, 0)" stroke-opacity="1.0" stroke-linecap="round" stroke-linejoin="round"/>
    <path d="M 49.214717864990234 110.86752319335938 C 51.44716262817383 113.52393341064453 48.546417236328125 106.11540985107422 51.55257797241211 115.00599670410156" stroke-width="3.0" fill="none" stroke="rgb(0, 0, 0)" stroke-opacity="1.0" stroke-linecap="round" stroke-linejoin="round"/>
    <path d="M 185.52601623535156 97.5868911743164 C 155.53819274902344 97.83174133300781 176.9951629638672 81.2801513671875 196.30906677246094 113.88633728027344" stroke-width="3.0" fill="none" stroke="rgb(0, 0, 0)" stroke-opacity="1.0" stroke-linecap="round" stroke-linejoin="round"/>
    <path d="M 187.39285278320312 78.17474365234375 C 180.62110900878906 90.59127044677734 180.43936157226562 83.67140197753906 185.20736694335938 66.43433380126953" stroke-width="3.0" fill="none" stroke="rgb(0, 0, 0)" stroke-opacity="1.0" stroke-linecap="round" stroke-linejoin="round"/>
    <path d="M 129.71942138671875 99.73191833496094 C 132.84332275390625 115.14704132080078 113.56603240966797 99.48822784423828 134.36265563964844 107.28341674804688" stroke-width="3.0" fill="none" stroke="rgb(0, 0, 0)" stroke-opacity="1.0" stroke-linecap="round" stroke-linejoin="round"/>
    <path d="M 164.59091186523438 94.310302734375 C 202.2771453857422 65.90084838867188 183.5119171142578 68.14636993408203 160.03407287597656 84.06644439697266" stroke-width="3.0" fill="none" stroke="rgb(0, 0, 0)" stroke-opacity="1.0" stroke-linecap="round" stroke-linejoin="round"/>
    <path d="M 53.43297576904297 179.9864501953125 C 36.112552642822266 152.4024200439453 41.70036697387695 160.14695739746094 39.88749694824219 155.49798583984375" stroke-width="3.0" fill="none" stroke="rgb(0, 0, 0)" stroke-opacity="1.0" stroke-linecap="round" stroke-linejoin="round"/>
    <path d="M 67.6004638671875 191.5451202392578 C 85.77850341796875 200.10861206054688 110.81466674804688 193.64083862304688 104.03091430664062 195.28173828125" stroke-width="3.0" fill="none" stroke="rgb(0, 0, 0)" stroke-opacity="1.0" stroke-linecap="round" stroke-linejoin="round"/>
    <path d="M 92.9768295288086 19.887205123901367 C 98.66443634033203 65.00712585449219 88.95088958740234 27.79313087463379 89.47686767578125 54.65809631347656" stroke-width="3.0" fill="none" stroke="rgb(0, 0, 0)" stroke-opacity="1.0" stroke-linecap="round" stroke-linejoin="round"/>
    <path d="M 58.74090576171875 128.674072265625 C 66.51984405517578 141.55458068847656 83.93173217773438 147.10995483398438 81.64454650878906 146.47711181640625" stroke-width="3.0" fill="none" stroke="rgb(0, 0, 0)" stroke-opacity="1.0" stroke-linecap="round" stroke-linejoin="round"/>
    <path d="M 162.9618377685547 79.78446960449219 C 199.16351318359375 76.72899627685547 179.39476013183594 85.81407928466797 144.01637268066406 86.7637939453125" stroke-width="3.0" fill="none" stroke="rgb(0, 0, 0)" stroke-opacity="1.0" stroke-linecap="round" stroke-linejoin="round"/>
    <path d="M 149.16802978515625 103.76944732666016 C 175.31138610839844 102.74811553955078 172.05795288085938 100.15805053710938 188.50851440429688 108.37316131591797" stroke-width="3.0" fill="none" stroke="rgb(0, 0, 0)" stroke-opacity="1.0" stroke-linecap="round" stroke-linejoin="round"/>
    <path d="M 96.05537414550781 156.12493896484375 C 116.44149780273438 164.86703491210938 103.92489624023438 186.73268127441406 110.52899932861328 188.69578552246094" stroke-width="3.0" fill="none" stroke="rgb(0, 0, 0)" stroke-opacity="1.0" stroke-linecap="round" stroke-linejoin="round"/>
    <path d="M 173.25442504882812 10.087056159973145 C 190.16653442382812 -2.399529457092285 175.21121215820312 45.30023193359375 183.5166473388672 60.336341857910156" stroke-width="3.0" fill="none" stroke="rgb(0, 0, 0)" stroke-opacity="1.0" stroke-linecap="round" stroke-linejoin="round"/>
    <path d="M 137.0881805419922 33.280391693115234 C 132.07032775878906 69.16545104980469 134.3845977783203 39.768760681152344 132.97186279296875 65.17076873779297" stroke-width="3.0" fill="none" stroke="rgb(0, 0, 0)" stroke-opacity="1.0" stroke-linecap="round" stroke-linejoin="round"/>
    <path d="M 93.23457336425781 49.31365966796875 C 73.32776641845703 -3.579974412918091 85.36634063720703 3.9186758995056152 102.97180938720703 40.19803237915039" stroke-width="3.0" fill="none" stroke="rgb(0, 0, 0)" stroke-opacity="1.0" stroke-linecap="round" stroke-linejoin="round"/>
    <path d="M 42.25624084472656 161.7471466064453 C 39.949039459228516 155.031494140625 40.628292083740234 162.25909423828125 42.79520797729492 162.1360321044922" stroke-width="3.0" fill="none" stroke="rgb(0, 0, 0)" stroke-opacity="1.0" stroke-linecap="round" stroke-linejoin="round"/>
    <path d="M 31.995695114135742 104.26583099365234 C 23.225996017456055 128.007568359375 34.699031829833984 142.83419799804688 43.16398239135742 153.96165466308594" stroke-width="3.0" fill="none" stroke="rgb(0, 0, 0)" stroke-opacity="1.0" stroke-linecap="round" stroke-linejoin="round"/>
    <path d="M 86.9970703125 146.89356994628906 C 96.21004486083984 157.9788818359375 98.82621002197266 157.97573852539062 89.90271759033203 151.14903259277344" stroke-width="3.0" fill="none" stroke="rgb(0, 0, 0)" stroke-opacity="1.0" stroke-linecap="round" stroke-linejoin="round"/>
    <path d="M 74.44392395019531 193.79745483398438 C 47.09532928466797 178.87205505371094 67.83103942871094 188.88174438476562 47.19258499145508 172.96017456054688" stroke-width="3.0" fill="none" stroke="rgb(0, 0, 0)" stroke-opacity="1.0" stroke-linecap="round" stroke-linejoin="round"/>
    <path d="M 43.120582580566406 162.0858917236328 C 54.01559829711914 170.57374572753906 38.3477668762207 158.72938537597656 36.80982208251953 147.20648193359375" stroke-width="3.0" fill="none" stroke="rgb(0, 0, 0)" stroke-opacity="1.0" stroke-linecap="round" stroke-linejoin="round"/>
    <path d="M 83.92633819580078 52.169090270996094 C 55.36161804199219 55.29813003540039 49.173248291015625 74.7282485961914 30.98149871826172 106.06549072265625" stroke-width="3.0" fill="none" stroke="rgb(0, 0, 0)" stroke-opacity="1.0" stroke-linecap="round" stroke-linejoin="round"/>
    <path d="M 148.75733947753906 157.16990661621094 C 142.8550262451172 161.14657592773438 131.10633850097656 144.25570678710938 141.04461669921875 160.5343475341797" stroke-width="3.0" fill="none" stroke="rgb(0, 0, 0)" stroke-opacity="1.0" stroke-linecap="round" stroke-linejoin="round"/>
    <path d="M 142.5763397216797 32.936912536621094 C 151.1619415283203 53.47029113769531 136.63253784179688 55.17988967895508 141.3290252685547 79.44972229003906" stroke-width="3.0" fill="none" stroke="rgb(0, 0, 0)" stroke-opacity="1.0" stroke-linecap="round" stroke-linejoin="round"/>
    <path d="M 146.0177001953125 101.36332702636719 C 125.68374633789062 117.22367095947266 119.25508117675781 105.2538070678711 127.7386245727539 103.14472961425781" stroke-width="3.0" fill="none" stroke="rgb(0, 0, 0)" stroke-opacity="1.0" stroke-linecap="round" stroke-linejoin="round"/>
    <path d="M 140.0296630859375 76.27896881103516 C 149.19207763671875 48.47312927246094 149.05902099609375 59.121639251708984 155.20285034179688 47.81858444213867" stroke-width="3.0" fill="none" stroke="rgb(0, 0, 0)" stroke-opacity="1.0" stroke-linecap="round" stroke-linejoin="round"/>
    <path d="M 119.8447265625 187.3622283935547 C 95.96546936035156 190.67604064941406 112.63440704345703 202.7217559814453 136.1167755126953 169.76458740234375" stroke-width="3.0" fill="none" stroke="rgb(0, 0, 0)" stroke-opacity="1.0" stroke-linecap="round" stroke-linejoin="round"/>
    <path d="M 195.28085327148438 95.27025604248047 C 164.07591247558594 75.56586456298828 151.2891082763672 99.7278823852539 185.314697265625 86.4671401977539" stroke-width="3.0" fill="none" stroke="rgb(0, 0, 0)" stroke-opacity="1.0" stroke-linecap="round" stroke-linejoin="round"/>
    <path d="M 167.82728576660156 69.94336700439453 C 191.56948852539062 75.08602142333984 196.57562255859375 72.0638198852539 165.8376922607422 72.23851013183594" stroke-width="3.0" fill="none" stroke="rgb(0, 0, 0)" stroke-opacity="1.0" stroke-linecap="round" stroke-linejoin="round"/>
    <path d="M 106.8987045288086 80.74427795410156 C 85.26605987548828 75.05979919433594 145.89793395996094 77.96210479736328 103.30829620361328 82.80138397216797" stroke-width="3.0" fill="none" stroke="rgb(0, 0, 0)" stroke-opacity="1.0" stroke-linecap="round" stroke-linejoin="round"/>
    <path d="M 138.62002563476562 155.6938018798828 C 139.1279754638672 149.64845275878906 125.91083526611328 152.4727783203125 110.39530181884766 139.74378967285156" stroke-width="3.0" fill="none" stroke="rgb(0, 0, 0)" stroke-opacity="1.0" stroke-linecap="round" stroke-linejoin="round"/>
    <path d="M 123.50819396972656 87.89007568359375 C 134.69422912597656 99.29503631591797 136.8966827392578 77.15001678466797 127.41156005859375 96.4274673461914" stroke-width="3.0" fill="none" stroke="rgb(0, 0, 0)" stroke-opacity="1.0" stroke-linecap="round" stroke-linejoin="round"/>
    <path d="M 188.7823028564453 99.4785385131836 C 176.27365112304688 81.82960510253906 187.1046905517578 100.72649383544922 140.3383331298828 84.86380767822266" stroke-width="3.0" fill="none" stroke="rgb(0, 0, 0)" stroke-opacity="1.0" stroke-linecap="round" stroke-linejoin="round"/>
    <path d="M 83.58672332763672 8.998103141784668 C 113.42298126220703 17.62726593017578 114.05412292480469 35.1949577331543 128.7266082763672 31.29664421081543" stroke-width="3.0" fill="none" stroke="rgb(0, 0, 0)" stroke-opacity="1.0" stroke-linecap="round" stroke-linejoin="round"/>
    <path d="M 52.33402633666992 117.25532531738281 C 49.672447204589844 109.76079559326172 56.03932571411133 124.67237854003906 50.49381637573242 114.54773712158203" stroke-width="3.0" fill="none" stroke="rgb(0, 0, 0)" stroke-opacity="1.0" stroke-linecap="round" stroke-linejoin="round"/>
    <path d="M 119.4485092163086 100.49797821044922 C 96.78372955322266 85.180419921875 123.7506103515625 99.56092071533203 109.11598205566406 93.52775573730469" stroke-width="3.0" fill="none" stroke="rgb(0, 0, 0)" stroke-opacity="1.0" stroke-linecap="round" stroke-linejoin="round"/>
    <path d="M 28.745084762573242 121.78704833984375 C 32.697322845458984 97.46240997314453 32.41637420654297 103.45125579833984 31.325721740722656 111.3502426147461" stroke-width="3.0" fill="none" stroke="rgb(0, 0, 0)" stroke-opacity="1.0" stroke-linecap="round" stroke-linejoin="round"/>
    <path d="M 89.92081451416016 196.9486541748047 C 73.63694763183594 192.11932373046875 70.74813079833984 193.74026489257812 93.44377136230469 196.145751953125" stroke-width="3.0" fill="none" stroke="rgb(0, 0, 0)" stroke-opacity="1.0" stroke-linecap="round" stroke-linejoin="round"/>
    <path d="M 156.94322204589844 137.99237060546875 C 207.1717071533203 113.11750030517578 177.663330078125 95.33958435058594 150.52743530273438 92.66634368896484" stroke-width="3.0" fill="none" stroke="rgb(0, 0, 0)" stroke-opacity="1.0" stroke-linecap="round" stroke-linejoin="round"/>
    <path d="M 150.15184020996094 75.43828582763672 C 130.0213623046875 75.27071380615234 166.06378173828125 88.33002471923828 149.90394592285156 72.11140441894531" stroke-width="3.0" fill="none" stroke="rgb(0, 0, 0)" stroke-opacity="1.0" stroke-linecap="round" stroke-linejoin="round"/>
    <path d="M 145.25576782226562 77.5181884765625 C 144.43968200683594 55.842830657958984 187.6919403076172 94.40045166015625 183.0349578857422 61.66962432861328" stroke-width="3.0" fill="none" stroke="rgb(0, 0, 0)" stroke-opacity="1.0" stroke-linecap="round" stroke-linejoin="round"/>
    <path d="M 149.1598358154297 96.58158111572266 C 161.1477813720703 96.02316284179688 171.4950408935547 105.55316162109375 184.1480712890625 113.91558074951172" stroke-width="3.0" fill="none" stroke="rgb(0, 0, 0)" stroke-opacity="1.0" stroke-linecap="round" stroke-linejoin="round"/>
    <path d="M 175.2621307373047 17.78821563720703 C 163.0109100341797 43.61886978149414 175.7871551513672 31.226778030395508 163.61257934570312 43.069393157958984" stroke-width="3.0" fill="none" stroke="rgb(0, 0, 0)" stroke-opacity="1.0" stroke-linecap="round" stroke-linejoin="round"/>
    <path d="M 126.56578826904297 107.51372528076172 C 153.44154357910156 105.44889068603516 129.82522583007812 103.63422393798828 111.79444885253906 100.12036895751953" stroke-width="3.0" fill="none" stroke="rgb(0, 0, 0)" stroke-opacity="1.0" stroke-linecap="round" stroke-linejoin="round"/>
    <path d="M 51.230648040771484 113.3432388305664 C 52.374820709228516 115.75196075439453 47.110137939453125 107.78135681152344 58.346378326416016 127.84172058105469" stroke-width="3.0" fill="none" stroke="rgb(0, 0, 0)" stroke-opacity="1.0" stroke-linecap="round" stroke-linejoin="round"/>
    <path d="M 123.20219421386719 81.48320770263672 C 132.8972625732422 58.006919860839844 120.60977935791016 54.63467025756836 125.50636291503906 37.02936935424805" stroke-width="3.0" fill="none" stroke="rgb(0, 0, 0)" stroke-opacity="1.0" stroke-linecap="round" stroke-linejoin="round"/>
    <path d="M 146.11746215820312 30.97598648071289 C 148.46533203125 36.9653205871582 151.92176818847656 17.238964080810547 174.70474243164062 8.481827735900879" stroke-width="3.0" fill="none" stroke="rgb(0, 0, 0)" stroke-opacity="1.0" stroke-linecap="round" stroke-linejoin="round"/>
  </g>
</svg>
