<?xml version="1.0" ?>
<svg xmlns="http://www.w3.org/2000/svg" version="1.1" width="224" height="224">
  <defs/>
  <g>
    <path d="M 59.97533416748047 92.91752624511719 C 66.38970184326172 81.43761444091797 55.73458480834961 80.95771789550781 71.17178344726562 57.44110107421875" stroke-width="3.0" fill="none" stroke="rgb(0, 0, 0)" stroke-opacity="1.0" stroke-linecap="round" stroke-linejoin="round"/>
    <path d="M 195.4904327392578 112.84308624267578 C 186.6888427734375 98.65339660644531 190.04664611816406 94.53387451171875 179.674560546875 126.91863250732422" stroke-width="3.0" fill="none" stroke="rgb(0, 0, 0)" stroke-opacity="1.0" stroke-linecap="round" stroke-linejoin="round"/>
    <path d="M 59.532691955566406 120.85002899169922 C 53.809391021728516 88.06976318359375 63.71277618408203 122.76358032226562 64.8637466430664 120.14125061035156" stroke-width="3.0" fill="none" stroke="rgb(0, 0, 0)" stroke-opacity="1.0" stroke-linecap="round" stroke-linejoin="round"/>
    <path d="M 186.38307189941406 92.71442413330078 C 153.65625 70.77518463134766 181.51901245117188 76.33775329589844 189.08534240722656 98.34813690185547" stroke-width="3.0" fill="none" stroke="rgb(0, 0, 0)" stroke-opacity="1.0" stroke-linecap="round" stroke-linejoin="round"/>
    <path d="M 177.82266235351562 46.52423095703125 C 195.15135192871094 96.67383575439453 176.88656616210938 109.14453125 182.43238830566406 58.440338134765625" stroke-width="3.0" fill="none" stroke="rgb(0, 0, 0)" stroke-opacity="1.0" stroke-linecap="round" stroke-linejoin="round"/>
    <path d="M 129.68756103515625 99.67261505126953 C 154.3011016845703 116.39204406738281 103.37122344970703 100.9732894897461 135.15736389160156 108.61117553710938" stroke-width="3.0" fill="none" stroke="rgb(0, 0, 0)" stroke-opacity="1.0" stroke-linecap="round" stroke-linejoin="round"/>
    <path d="M 187.0340576171875 87.80097198486328 C 172.85585021972656 85.62431335449219 187.8079833984375 71.42182922363281 154.2560577392578 88.53093719482422" stroke-width="3.0" fill="none" stroke="rgb(0, 0, 0)" stroke-opacity="1.0" stroke-linecap="round" stroke-linejoin="round"/>
    <path d="M 65.27568817138672 191.77301025390625 C 41.571712493896484 168.71783447265625 46.04179382324219 168.68043518066406 61.07674789428711 188.69973754882812" stroke-width="3.0" fill="none" stroke="rgb(0, 0, 0)" stroke-opacity="1.0" stroke-linecap="round" stroke-linejoin="round"/>
    <path d="M 56.02454376220703 184.02574157714844 C 84.80752563476562 209.91464233398438 135.72525024414062 194.59384155273438 137.03013610839844 161.41102600097656" stroke-width="3.0" fill="none" stroke="rgb(0, 0, 0)" stroke-opacity="1.0" stroke-linecap="round" stroke-linejoin="round"/>
    <path d="M 82.286865234375 11.5598726272583 C 94.24530792236328 72.99976348876953 87.07829284667969 5.1299357414245605 88.93631744384766 52.295833587646484" stroke-width="3.0" fill="none" stroke="rgb(0, 0, 0)" stroke-opacity="1.0" stroke-linecap="round" stroke-linejoin="round"/>
    <path d="M 62.08388137817383 96.6736068725586 C 49.65266036987305 129.51596069335938 73.96887969970703 132.97459411621094 59.56039810180664 119.2064437866211" stroke-width="3.0" fill="none" stroke="rgb(0, 0, 0)" stroke-opacity="1.0" stroke-linecap="round" stroke-linejoin="round"/>
    <path d="M 145.52032470703125 75.45567321777344 C 192.04397583007812 66.65391540527344 200.87673950195312 86.97615814208984 139.71981811523438 86.88847351074219" stroke-width="3.0" fill="none" stroke="rgb(0, 0, 0)" stroke-opacity="1.0" stroke-linecap="round" stroke-linejoin="round"/>
    <path d="M 150.14382934570312 96.62078094482422 C 184.23353576660156 100.5135498046875 176.8808135986328 100.23392486572266 195.1835479736328 114.50738525390625" stroke-width="3.0" fill="none" stroke="rgb(0, 0, 0)" stroke-opacity="1.0" stroke-linecap="round" stroke-linejoin="round"/>
    <path d="M 130.952880859375 149.46046447753906 C 168.70462036132812 159.35556030273438 96.76539611816406 145.57774353027344 101.91551971435547 153.96307373046875" stroke-width="3.0" fill="none" stroke="rgb(0, 0, 0)" stroke-opacity="1.0" stroke-linecap="round" stroke-linejoin="round"/>
    <path d="M 178.72242736816406 8.572705268859863 C 189.00445556640625 17.58144760131836 169.6654510498047 98.51067352294922 183.45445251464844 60.68290328979492" stroke-width="3.0" fill="none" stroke="rgb(0, 0, 0)" stroke-opacity="1.0" stroke-linecap="round" stroke-linejoin="round"/>
    <path d="M 144.87588500976562 30.217988967895508 C 109.73291015625 23.197158813476562 132.60488891601562 25.082921981811523 130.96697998046875 64.3284683227539" stroke-width="3.0" fill="none" stroke="rgb(0, 0, 0)" stroke-opacity="1.0" stroke-linecap="round" stroke-linejoin="round"/>
    <path d="M 103.20816040039062 48.873226165771484 C 64.8316421508789 -6.778322219848633 84.42017364501953 3.371335983276367 120.51356506347656 32.77584457397461" stroke-width="3.0" fill="none" stroke="rgb(0, 0, 0)" stroke-opacity="1.0" stroke-linecap="round" stroke-linejoin="round"/>
    <path d="M 43.873069763183594 162.3258514404297 C 46.12001419067383 157.43382263183594 38.80280303955078 156.74671936035156 53.21355438232422 177.38723754882812" stroke-width="3.0" fill="none" stroke="rgb(0, 0, 0)" stroke-opacity="1.0" stroke-linecap="round" stroke-linejoin="round"/>
    <path d="M 60.45444107055664 67.1781234741211 C 21.489761352539062 120.25040435791016 41.3664436340332 141.9783477783203 44.31061553955078 163.56654357910156" stroke-width="3.0" fill="none" stroke="rgb(0, 0, 0)" stroke-opacity="1.0" stroke-linecap="round" stroke-linejoin="round"/>
    <path d="M 70.48762512207031 135.69581604003906 C 137.39471435546875 166.59776306152344 106.3586196899414 151.31532287597656 85.09603118896484 143.843017578125" stroke-width="3.0" fill="none" stroke="rgb(0, 0, 0)" stroke-opacity="1.0" stroke-linecap="round" stroke-linejoin="round"/>
    <path d="M 88.42029571533203 198.88990783691406 C 67.29086303710938 195.9880828857422 43.801368713378906 176.8440704345703 43.92506790161133 155.87953186035156" stroke-width="3.0" fill="none" stroke="rgb(0, 0, 0)" stroke-opacity="1.0" stroke-linecap="round" stroke-linejoin="round"/>
    <path d="M 49.92732238769531 172.95201110839844 C 70.15286254882812 198.5888671875 48.484378814697266 174.3891143798828 37.52522659301758 144.55380249023438" stroke-width="3.0" fill="none" stroke="rgb(0, 0, 0)" stroke-opacity="1.0" stroke-linecap="round" stroke-linejoin="round"/>
    <path d="M 84.80813598632812 53.58028030395508 C 57.999778747558594 57.14323806762695 64.28156280517578 67.20046997070312 37.86506652832031 113.46028137207031" stroke-width="3.0" fill="none" stroke="rgb(0, 0, 0)" stroke-opacity="1.0" stroke-linecap="round" stroke-linejoin="round"/>
    <path d="M 150.40126037597656 144.6612548828125 C 109.50142669677734 160.38287353515625 68.86063385009766 146.66357421875 141.883056640625 149.8076171875" stroke-width="3.0" fill="none" stroke="rgb(0, 0, 0)" stroke-opacity="1.0" stroke-linecap="round" stroke-linejoin="round"/>
    <path d="M 150.39453125 27.088150024414062 C 145.15087890625 32.336280822753906 138.54586791992188 10.979326248168945 137.2098388671875 76.53041076660156" stroke-width="3.0" fill="none" stroke="rgb(0, 0, 0)" stroke-opacity="1.0" stroke-linecap="round" stroke-linejoin="round"/>
    <path d="M 146.0699005126953 101.96376037597656 C 130.5738525390625 114.09716796875 122.6390380859375 106.76603698730469 113.36363983154297 99.03726959228516" stroke-width="3.0" fill="none" stroke="rgb(0, 0, 0)" stroke-opacity="1.0" stroke-linecap="round" stroke-linejoin="round"/>
    <path d="M 136.69873046875 74.75862884521484 C 142.04681396484375 52.30038070678711 135.87693786621094 68.38177490234375 138.26095581054688 70.57028198242188" stroke-width="3.0" fill="none" stroke="rgb(0, 0, 0)" stroke-opacity="1.0" stroke-linecap="round" stroke-linejoin="round"/>
    <path d="M 136.45852661132812 163.3321533203125 C 131.18557739257812 167.1132354736328 141.49819946289062 162.04013061523438 144.7156982421875 146.4707794189453" stroke-width="3.0" fill="none" stroke="rgb(0, 0, 0)" stroke-opacity="1.0" stroke-linecap="round" stroke-linejoin="round"/>
    <path d="M 195.72938537597656 95.35708618164062 C 163.71176147460938 67.01914978027344 184.81488037109375 62.341854095458984 186.14454650878906 97.88532257080078" stroke-width="3.0" fill="none" stroke="rgb(0, 0, 0)" stroke-opacity="1.0" stroke-linecap="round" stroke-linejoin="round"/>
    <path d="M 153.20375061035156 75.95002746582031 C 120.75709533691406 55.2332878112793 212.75241088867188 86.43718719482422 178.41497802734375 64.00030517578125" stroke-width="3.0" fill="none" stroke="rgb(0, 0, 0)" stroke-opacity="1.0" stroke-linecap="round" stroke-linejoin="round"/>
    <path d="M 115.10069274902344 82.1872329711914 C 87.58296203613281 71.5689697265625 136.32293701171875 75.47518920898438 109.14693450927734 81.51200866699219" stroke-width="3.0" fill="none" stroke="rgb(0, 0, 0)" stroke-opacity="1.0" stroke-linecap="round" stroke-linejoin="round"/>
    <path d="M 168.95181274414062 129.96664428710938 C 158.073974609375 154.30958557128906 89.0228271484375 148.05921936035156 93.14646911621094 147.60330200195312" stroke-width="3.0" fill="none" stroke="rgb(0, 0, 0)" stroke-opacity="1.0" stroke-linecap="round" stroke-linejoin="round"/>
    <path d="M 122.08141326904297 90.11538696289062 C 142.3896484375 99.86153411865234 129.11016845703125 72.47874450683594 128.9086151123047 107.6448974609375" stroke-width="3.0" fill="none" stroke="rgb(0, 0, 0)" stroke-opacity="1.0" stroke-linecap="round" stroke-linejoin="round"/>
    <path d="M 188.92799377441406 109.5418472290039 C 169.47671508789062 86.55320739746094 170.08578491210938 96.20147705078125 141.4173126220703 82.56243896484375" stroke-width="3.0" fill="none" stroke="rgb(0, 0, 0)" stroke-opacity="1.0" stroke-linecap="round" stroke-linejoin="round"/>
    <path d="M 90.95095825195312 21.885295867919922 C 125.53368377685547 29.011106491088867 84.94268798828125 30.076946258544922 149.90679931640625 27.145627975463867" stroke-width="3.0" fill="none" stroke="rgb(0, 0, 0)" stroke-opacity="1.0" stroke-linecap="round" stroke-linejoin="round"/>
    <path d="M 58.89813232421875 108.5494613647461 C 66.97692108154297 101.04988098144531 54.947425842285156 118.94109344482422 68.62036895751953 134.14883422851562" stroke-width="3.0" fill="none" stroke="rgb(0, 0, 0)" stroke-opacity="1.0" stroke-linecap="round" stroke-linejoin="round"/>
    <path d="M 133.12733459472656 107.32337188720703 C 125.06640625 86.3280029296875 119.55693054199219 121.49977111816406 113.84420776367188 88.38915252685547" stroke-width="3.0" fill="none" stroke="rgb(0, 0, 0)" stroke-opacity="1.0" stroke-linecap="round" stroke-linejoin="round"/>
    <path d="M 38.117149353027344 148.56185913085938 C 22.775203704833984 122.45355987548828 38.54609298706055 72.161865234375 65.97166442871094 61.1005973815918" stroke-width="3.0" fill="none" stroke="rgb(0, 0, 0)" stroke-opacity="1.0" stroke-linecap="round" stroke-linejoin="round"/>
    <path d="M 93.44590759277344 197.78091430664062 C 81.11837768554688 195.9600067138672 72.55879211425781 196.123291015625 100.73253631591797 197.88656616210938" stroke-width="3.0" fill="none" stroke="rgb(0, 0, 0)" stroke-opacity="1.0" stroke-linecap="round" stroke-linejoin="round"/>
    <path d="M 171.9497833251953 130.00965881347656 C 196.8027801513672 110.72967529296875 192.47222900390625 86.65351867675781 149.80435180664062 87.87701416015625" stroke-width="3.0" fill="none" stroke="rgb(0, 0, 0)" stroke-opacity="1.0" stroke-linecap="round" stroke-linejoin="round"/>
    <path d="M 159.27325439453125 68.54618835449219 C 130.81056213378906 80.10322570800781 166.3218231201172 85.9321517944336 151.76165771484375 69.28563690185547" stroke-width="3.0" fill="none" stroke="rgb(0, 0, 0)" stroke-opacity="1.0" stroke-linecap="round" stroke-linejoin="round"/>
    <path d="M 138.47128295898438 79.86478424072266 C 141.99554443359375 36.045719146728516 204.19265747070312 112.63933563232422 179.40992736816406 47.721336364746094" stroke-width="3.0" fill="none" stroke="rgb(0, 0, 0)" stroke-opacity="1.0" stroke-linecap="round" stroke-linejoin="round"/>
    <path d="M 155.4009246826172 99.10185241699219 C 174.29847717285156 106.58045196533203 177.8145751953125 104.45220184326172 184.88148498535156 122.47976684570312" stroke-width="3.0" fill="none" stroke="rgb(0, 0, 0)" stroke-opacity="1.0" stroke-linecap="round" stroke-linejoin="round"/>
    <path d="M 177.64251708984375 13.304122924804688 C 175.1538848876953 46.78976058959961 175.107177734375 20.9354305267334 161.05990600585938 40.640647888183594" stroke-width="3.0" fill="none" stroke="rgb(0, 0, 0)" stroke-opacity="1.0" stroke-linecap="round" stroke-linejoin="round"/>
    <path d="M 123.58788299560547 104.93087005615234 C 146.96121215820312 99.06819915771484 129.204345703125 110.33316040039062 124.75970458984375 101.53897094726562" stroke-width="3.0" fill="none" stroke="rgb(0, 0, 0)" stroke-opacity="1.0" stroke-linecap="round" stroke-linejoin="round"/>
    <path d="M 61.42971420288086 102.16708374023438 C 58.05113983154297 107.23719787597656 57.532230377197266 113.52516174316406 59.455162048339844 107.18089294433594" stroke-width="3.0" fill="none" stroke="rgb(0, 0, 0)" stroke-opacity="1.0" stroke-linecap="round" stroke-linejoin="round"/>
    <path d="M 121.10885620117188 73.24195098876953 C 126.09717559814453 49.07768249511719 120.6999740600586 57.05466842651367 120.2904281616211 36.51201248168945" stroke-width="3.0" fill="none" stroke="rgb(0, 0, 0)" stroke-opacity="1.0" stroke-linecap="round" stroke-linejoin="round"/>
    <path d="M 143.78369140625 31.715938568115234 C 143.69671630859375 39.567378997802734 160.72811889648438 9.95641040802002 178.23406982421875 8.990863800048828" stroke-width="3.0" fill="none" stroke="rgb(0, 0, 0)" stroke-opacity="1.0" stroke-linecap="round" stroke-linejoin="round"/>
  </g>
</svg>
