<?xml version="1.0" ?>
<svg xmlns="http://www.w3.org/2000/svg" version="1.1" width="224" height="224">
  <defs/>
  <g>
    <path d="M 63.5651741027832 78.82376861572266 C 65.6241683959961 80.01421356201172 66.25446319580078 84.40214538574219 59.14823532104492 71.2034912109375" stroke-width="3.0" fill="none" stroke="rgb(0, 0, 0)" stroke-opacity="1.0" stroke-linecap="round" stroke-linejoin="round"/>
    <path d="M 183.1910858154297 125.1084213256836 C 176.26885986328125 114.77671813964844 198.88121032714844 94.91646575927734 175.14694213867188 128.5823211669922" stroke-width="3.0" fill="none" stroke="rgb(0, 0, 0)" stroke-opacity="1.0" stroke-linecap="round" stroke-linejoin="round"/>
    <path d="M 60.65898513793945 123.15483856201172 C 59.14372253417969 96.71585083007812 61.71768569946289 126.83099365234375 67.39920806884766 133.064697265625" stroke-width="3.0" fill="none" stroke="rgb(0, 0, 0)" stroke-opacity="1.0" stroke-linecap="round" stroke-linejoin="round"/>
    <path d="M 186.0781707763672 100.37447357177734 C 149.5550994873047 87.22339630126953 174.93994140625 79.86270141601562 196.91812133789062 114.02275848388672" stroke-width="3.0" fill="none" stroke="rgb(0, 0, 0)" stroke-opacity="1.0" stroke-linecap="round" stroke-linejoin="round"/>
    <path d="M 184.8470916748047 62.146507263183594 C 174.3988494873047 114.29991912841797 182.1031036376953 101.76899719238281 183.0628204345703 70.20532989501953" stroke-width="3.0" fill="none" stroke="rgb(0, 0, 0)" stroke-opacity="1.0" stroke-linecap="round" stroke-linejoin="round"/>
    <path d="M 121.762451171875 103.20438385009766 C 147.535888671875 116.43814086914062 107.758056640625 94.47956085205078 135.42001342773438 105.2737045288086" stroke-width="3.0" fill="none" stroke="rgb(0, 0, 0)" stroke-opacity="1.0" stroke-linecap="round" stroke-linejoin="round"/>
    <path d="M 170.56048583984375 97.55020904541016 C 188.07571411132812 88.84117889404297 176.3648681640625 74.26240539550781 155.50033569335938 85.97077178955078" stroke-width="3.0" fill="none" stroke="rgb(0, 0, 0)" stroke-opacity="1.0" stroke-linecap="round" stroke-linejoin="round"/>
    <path d="M 58.70745849609375 183.75933837890625 C 37.43962097167969 155.3620147705078 46.5001335144043 166.51283264160156 49.12964630126953 174.70260620117188" stroke-width="3.0" fill="none" stroke="rgb(0, 0, 0)" stroke-opacity="1.0" stroke-linecap="round" stroke-linejoin="round"/>
    <path d="M 58.25810241699219 182.84515380859375 C 96.76651000976562 209.20623779296875 112.25370025634766 195.70068359375 130.90615844726562 179.4134979248047" stroke-width="3.0" fill="none" stroke="rgb(0, 0, 0)" stroke-opacity="1.0" stroke-linecap="round" stroke-linejoin="round"/>
    <path d="M 84.80879974365234 34.322792053222656 C 96.99613952636719 77.00997161865234 82.0557632446289 11.954270362854004 85.00692749023438 58.68558883666992" stroke-width="3.0" fill="none" stroke="rgb(0, 0, 0)" stroke-opacity="1.0" stroke-linecap="round" stroke-linejoin="round"/>
    <path d="M 57.15494918823242 103.8835220336914 C 64.46487426757812 135.41357421875 97.04814910888672 158.7301788330078 93.36442565917969 152.43502807617188" stroke-width="3.0" fill="none" stroke="rgb(0, 0, 0)" stroke-opacity="1.0" stroke-linecap="round" stroke-linejoin="round"/>
    <path d="M 144.4740447998047 71.21895599365234 C 204.23171997070312 71.25958251953125 190.01475524902344 82.21746826171875 149.22105407714844 84.88265991210938" stroke-width="3.0" fill="none" stroke="rgb(0, 0, 0)" stroke-opacity="1.0" stroke-linecap="round" stroke-linejoin="round"/>
    <path d="M 153.04273986816406 97.70099639892578 C 189.02362060546875 101.94523620605469 174.1431427001953 104.37371063232422 194.7696533203125 112.71746063232422" stroke-width="3.0" fill="none" stroke="rgb(0, 0, 0)" stroke-opacity="1.0" stroke-linecap="round" stroke-linejoin="round"/>
    <path d="M 119.4749984741211 158.60382080078125 C 146.0427703857422 151.5256805419922 123.6893081665039 156.56439208984375 110.19664001464844 156.12823486328125" stroke-width="3.0" fill="none" stroke="rgb(0, 0, 0)" stroke-opacity="1.0" stroke-linecap="round" stroke-linejoin="round"/>
    <path d="M 177.45437622070312 9.404275894165039 C 187.85076904296875 23.657377243041992 174.09400939941406 60.73652648925781 178.7904815673828 49.896488189697266" stroke-width="3.0" fill="none" stroke="rgb(0, 0, 0)" stroke-opacity="1.0" stroke-linecap="round" stroke-linejoin="round"/>
    <path d="M 127.77220916748047 31.908567428588867 C 121.29464721679688 54.162147521972656 131.19342041015625 35.50655746459961 122.39225006103516 71.68384552001953" stroke-width="3.0" fill="none" stroke="rgb(0, 0, 0)" stroke-opacity="1.0" stroke-linecap="round" stroke-linejoin="round"/>
    <path d="M 87.67530822753906 53.49601364135742 C 76.94271087646484 -9.898358345031738 82.54882049560547 -1.0894466638565063 106.26667785644531 40.311363220214844" stroke-width="3.0" fill="none" stroke="rgb(0, 0, 0)" stroke-opacity="1.0" stroke-linecap="round" stroke-linejoin="round"/>
    <path d="M 46.0941276550293 168.88446044921875 C 40.662479400634766 154.1916961669922 38.60066223144531 144.86126708984375 47.0710563659668 168.2171630859375" stroke-width="3.0" fill="none" stroke="rgb(0, 0, 0)" stroke-opacity="1.0" stroke-linecap="round" stroke-linejoin="round"/>
    <path d="M 34.03236770629883 99.97520446777344 C 22.677406311035156 125.0599365234375 38.048484802246094 147.47401428222656 40.744544982910156 154.51708984375" stroke-width="3.0" fill="none" stroke="rgb(0, 0, 0)" stroke-opacity="1.0" stroke-linecap="round" stroke-linejoin="round"/>
    <path d="M 86.75328826904297 150.3274688720703 C 110.96112823486328 159.04689025878906 111.15263366699219 164.14370727539062 105.01234436035156 153.68704223632812" stroke-width="3.0" fill="none" stroke="rgb(0, 0, 0)" stroke-opacity="1.0" stroke-linecap="round" stroke-linejoin="round"/>
    <path d="M 83.63526916503906 196.73985290527344 C 69.17924499511719 198.24197387695312 49.97578048706055 177.7073516845703 47.70012664794922 170.3360595703125" stroke-width="3.0" fill="none" stroke="rgb(0, 0, 0)" stroke-opacity="1.0" stroke-linecap="round" stroke-linejoin="round"/>
    <path d="M 46.337158203125 166.3925323486328 C 62.111995697021484 192.0418243408203 42.962181091308594 166.31024169921875 40.0789794921875 151.05490112304688" stroke-width="3.0" fill="none" stroke="rgb(0, 0, 0)" stroke-opacity="1.0" stroke-linecap="round" stroke-linejoin="round"/>
    <path d="M 79.12101745605469 54.41425704956055 C 62.970394134521484 58.34645462036133 46.93940353393555 72.36824798583984 32.619972229003906 105.07734680175781" stroke-width="3.0" fill="none" stroke="rgb(0, 0, 0)" stroke-opacity="1.0" stroke-linecap="round" stroke-linejoin="round"/>
    <path d="M 150.15231323242188 142.96792602539062 C 127.47721099853516 160.69432067871094 116.88847351074219 151.84552001953125 133.0280303955078 155.576904296875" stroke-width="3.0" fill="none" stroke="rgb(0, 0, 0)" stroke-opacity="1.0" stroke-linecap="round" stroke-linejoin="round"/>
    <path d="M 139.00096130371094 30.482194900512695 C 146.40565490722656 60.409053802490234 132.87832641601562 52.073402404785156 135.69268798828125 80.37202453613281" stroke-width="3.0" fill="none" stroke="rgb(0, 0, 0)" stroke-opacity="1.0" stroke-linecap="round" stroke-linejoin="round"/>
    <path d="M 147.24014282226562 100.5428466796875 C 121.65158081054688 113.9931640625 138.1792449951172 108.32061767578125 122.74278259277344 105.50084686279297" stroke-width="3.0" fill="none" stroke="rgb(0, 0, 0)" stroke-opacity="1.0" stroke-linecap="round" stroke-linejoin="round"/>
    <path d="M 135.4677734375 76.12022399902344 C 144.73179626464844 57.809722900390625 131.6273956298828 61.498435974121094 134.38235473632812 75.19075012207031" stroke-width="3.0" fill="none" stroke="rgb(0, 0, 0)" stroke-opacity="1.0" stroke-linecap="round" stroke-linejoin="round"/>
    <path d="M 130.66796875 179.31639099121094 C 126.3194351196289 183.36517333984375 137.7542266845703 179.1834259033203 146.83197021484375 146.5478515625" stroke-width="3.0" fill="none" stroke="rgb(0, 0, 0)" stroke-opacity="1.0" stroke-linecap="round" stroke-linejoin="round"/>
    <path d="M 194.26773071289062 96.52182006835938 C 165.12954711914062 73.94255065917969 154.10540771484375 85.86637878417969 183.81793212890625 93.60966491699219" stroke-width="3.0" fill="none" stroke="rgb(0, 0, 0)" stroke-opacity="1.0" stroke-linecap="round" stroke-linejoin="round"/>
    <path d="M 147.66578674316406 75.4155044555664 C 162.5351104736328 61.028079986572266 194.58425903320312 89.8740234375 182.60012817382812 67.24159240722656" stroke-width="3.0" fill="none" stroke="rgb(0, 0, 0)" stroke-opacity="1.0" stroke-linecap="round" stroke-linejoin="round"/>
    <path d="M 116.03177642822266 82.43174743652344 C 82.54302215576172 71.04719543457031 138.04058837890625 75.21378326416016 108.15137481689453 82.73551177978516" stroke-width="3.0" fill="none" stroke="rgb(0, 0, 0)" stroke-opacity="1.0" stroke-linecap="round" stroke-linejoin="round"/>
    <path d="M 156.86863708496094 137.11538696289062 C 130.30148315429688 166.88125610351562 122.17861938476562 149.64125061035156 108.871337890625 159.7842559814453" stroke-width="3.0" fill="none" stroke="rgb(0, 0, 0)" stroke-opacity="1.0" stroke-linecap="round" stroke-linejoin="round"/>
    <path d="M 124.65300750732422 89.88194274902344 C 141.53515625 102.63282012939453 134.11676025390625 69.61793518066406 127.90620422363281 107.01661682128906" stroke-width="3.0" fill="none" stroke="rgb(0, 0, 0)" stroke-opacity="1.0" stroke-linecap="round" stroke-linejoin="round"/>
    <path d="M 186.98851013183594 112.8845443725586 C 175.8910675048828 84.3880615234375 183.26504516601562 96.81520080566406 143.08047485351562 83.77680206298828" stroke-width="3.0" fill="none" stroke="rgb(0, 0, 0)" stroke-opacity="1.0" stroke-linecap="round" stroke-linejoin="round"/>
    <path d="M 85.4885482788086 8.110962867736816 C 103.47888946533203 11.172069549560547 118.2902603149414 36.884220123291016 120.88716888427734 32.51909255981445" stroke-width="3.0" fill="none" stroke="rgb(0, 0, 0)" stroke-opacity="1.0" stroke-linecap="round" stroke-linejoin="round"/>
    <path d="M 66.83890533447266 124.73482513427734 C 64.34955596923828 111.27800750732422 68.3077163696289 129.94700622558594 65.96858978271484 123.52584838867188" stroke-width="3.0" fill="none" stroke="rgb(0, 0, 0)" stroke-opacity="1.0" stroke-linecap="round" stroke-linejoin="round"/>
    <path d="M 136.41976928710938 105.14696502685547 C 124.00470733642578 95.2716064453125 115.94869995117188 119.86675262451172 115.50413513183594 88.98859405517578" stroke-width="3.0" fill="none" stroke="rgb(0, 0, 0)" stroke-opacity="1.0" stroke-linecap="round" stroke-linejoin="round"/>
    <path d="M 32.421897888183594 132.61593627929688 C 25.04472541809082 101.27278137207031 39.18658447265625 103.7464828491211 45.15411376953125 83.06916809082031" stroke-width="3.0" fill="none" stroke="rgb(0, 0, 0)" stroke-opacity="1.0" stroke-linecap="round" stroke-linejoin="round"/>
    <path d="M 77.70404815673828 195.11001586914062 C 70.81165313720703 194.42715454101562 67.60476684570312 192.9671630859375 95.30728149414062 197.57394409179688" stroke-width="3.0" fill="none" stroke="rgb(0, 0, 0)" stroke-opacity="1.0" stroke-linecap="round" stroke-linejoin="round"/>
    <path d="M 158.16818237304688 133.007568359375 C 204.29034423828125 115.83600616455078 178.76510620117188 97.7095947265625 155.9623565673828 92.5734634399414" stroke-width="3.0" fill="none" stroke="rgb(0, 0, 0)" stroke-opacity="1.0" stroke-linecap="round" stroke-linejoin="round"/>
    <path d="M 157.0120391845703 70.70094299316406 C 131.80616760253906 83.43851470947266 168.9732208251953 81.60508728027344 145.85269165039062 70.36217498779297" stroke-width="3.0" fill="none" stroke="rgb(0, 0, 0)" stroke-opacity="1.0" stroke-linecap="round" stroke-linejoin="round"/>
    <path d="M 142.0927734375 78.74813079833984 C 148.69496154785156 42.25909423828125 196.64942932128906 115.11437225341797 180.361083984375 46.052913665771484" stroke-width="3.0" fill="none" stroke="rgb(0, 0, 0)" stroke-opacity="1.0" stroke-linecap="round" stroke-linejoin="round"/>
    <path d="M 157.47454833984375 98.1838150024414 C 170.04153442382812 105.95794677734375 172.78103637695312 99.36708068847656 182.3614044189453 117.58785247802734" stroke-width="3.0" fill="none" stroke="rgb(0, 0, 0)" stroke-opacity="1.0" stroke-linecap="round" stroke-linejoin="round"/>
    <path d="M 175.79046630859375 16.48689842224121 C 169.1186065673828 43.72509002685547 174.3299560546875 24.501344680786133 162.95632934570312 37.07596969604492" stroke-width="3.0" fill="none" stroke="rgb(0, 0, 0)" stroke-opacity="1.0" stroke-linecap="round" stroke-linejoin="round"/>
    <path d="M 119.86433410644531 104.57644653320312 C 142.83067321777344 100.47785186767578 128.66720581054688 116.00282287597656 118.65502166748047 104.48675537109375" stroke-width="3.0" fill="none" stroke="rgb(0, 0, 0)" stroke-opacity="1.0" stroke-linecap="round" stroke-linejoin="round"/>
    <path d="M 81.2480697631836 137.31686401367188 C 54.91188049316406 117.25299835205078 61.35734176635742 111.984619140625 60.452110290527344 120.82498931884766" stroke-width="3.0" fill="none" stroke="rgb(0, 0, 0)" stroke-opacity="1.0" stroke-linecap="round" stroke-linejoin="round"/>
    <path d="M 122.48379516601562 76.0361099243164 C 122.6275634765625 42.52875900268555 114.83899688720703 57.780906677246094 120.51652526855469 33.14069747924805" stroke-width="3.0" fill="none" stroke="rgb(0, 0, 0)" stroke-opacity="1.0" stroke-linecap="round" stroke-linejoin="round"/>
    <path d="M 150.8652801513672 27.764223098754883 C 146.4500732421875 38.1680793762207 158.35830688476562 8.835073471069336 176.89845275878906 8.909041404724121" stroke-width="3.0" fill="none" stroke="rgb(0, 0, 0)" stroke-opacity="1.0" stroke-linecap="round" stroke-linejoin="round"/>
  </g>
</svg>
