<?xml version="1.0" ?>
<svg xmlns="http://www.w3.org/2000/svg" version="1.1" width="224" height="224">
  <defs/>
  <g>
    <path d="M 69.79243469238281 79.64866638183594 C 68.63619995117188 79.51094055175781 74.3704605102539 80.52548217773438 53.31296920776367 75.68414306640625" stroke-width="3.0" fill="none" stroke="rgb(0, 0, 0)" stroke-opacity="1.0" stroke-linecap="round" stroke-linejoin="round"/>
    <path d="M 182.76547241210938 123.02737426757812 C 178.02793884277344 114.01365661621094 199.6252899169922 89.7463607788086 174.0851593017578 129.17022705078125" stroke-width="3.0" fill="none" stroke="rgb(0, 0, 0)" stroke-opacity="1.0" stroke-linecap="round" stroke-linejoin="round"/>
    <path d="M 58.880374908447266 115.5152359008789 C 54.58964157104492 108.36711883544922 56.70313262939453 124.79000091552734 66.86587524414062 132.7890167236328" stroke-width="3.0" fill="none" stroke="rgb(0, 0, 0)" stroke-opacity="1.0" stroke-linecap="round" stroke-linejoin="round"/>
    <path d="M 184.19540405273438 89.28105926513672 C 139.80345153808594 88.94667053222656 173.25814819335938 79.47755432128906 192.59768676757812 108.34191131591797" stroke-width="3.0" fill="none" stroke="rgb(0, 0, 0)" stroke-opacity="1.0" stroke-linecap="round" stroke-linejoin="round"/>
    <path d="M 180.034423828125 68.39173126220703 C 176.04881286621094 112.0289306640625 183.23426818847656 100.4052963256836 183.26522827148438 74.0752182006836" stroke-width="3.0" fill="none" stroke="rgb(0, 0, 0)" stroke-opacity="1.0" stroke-linecap="round" stroke-linejoin="round"/>
    <path d="M 127.01036834716797 104.8562240600586 C 146.97535705566406 111.4572525024414 103.54289245605469 93.9419174194336 132.59181213378906 98.95484161376953" stroke-width="3.0" fill="none" stroke="rgb(0, 0, 0)" stroke-opacity="1.0" stroke-linecap="round" stroke-linejoin="round"/>
    <path d="M 174.62567138671875 81.89317321777344 C 192.28579711914062 88.5096435546875 183.4073944091797 72.67285919189453 156.0453643798828 89.99724578857422" stroke-width="3.0" fill="none" stroke="rgb(0, 0, 0)" stroke-opacity="1.0" stroke-linecap="round" stroke-linejoin="round"/>
    <path d="M 64.08518981933594 188.6098175048828 C 36.616634368896484 157.7930908203125 48.59281539916992 165.1767578125 49.19402313232422 173.13818359375" stroke-width="3.0" fill="none" stroke="rgb(0, 0, 0)" stroke-opacity="1.0" stroke-linecap="round" stroke-linejoin="round"/>
    <path d="M 53.3213996887207 182.73291015625 C 86.43036651611328 212.04689025878906 110.67440795898438 194.595458984375 131.53619384765625 179.86874389648438" stroke-width="3.0" fill="none" stroke="rgb(0, 0, 0)" stroke-opacity="1.0" stroke-linecap="round" stroke-linejoin="round"/>
    <path d="M 85.04522705078125 25.581439971923828 C 94.6834716796875 82.36106872558594 84.45051574707031 10.311805725097656 85.96772766113281 56.98455047607422" stroke-width="3.0" fill="none" stroke="rgb(0, 0, 0)" stroke-opacity="1.0" stroke-linecap="round" stroke-linejoin="round"/>
    <path d="M 47.17303466796875 87.00434875488281 C 61.412086486816406 142.3491973876953 89.09300994873047 150.34666442871094 76.31336212158203 144.15670776367188" stroke-width="3.0" fill="none" stroke="rgb(0, 0, 0)" stroke-opacity="1.0" stroke-linecap="round" stroke-linejoin="round"/>
    <path d="M 154.3958282470703 73.69264221191406 C 205.1194305419922 63.77438735961914 185.98309326171875 84.59500122070312 141.3465118408203 87.68626403808594" stroke-width="3.0" fill="none" stroke="rgb(0, 0, 0)" stroke-opacity="1.0" stroke-linecap="round" stroke-linejoin="round"/>
    <path d="M 153.66282653808594 96.91192626953125 C 185.86959838867188 103.57991790771484 175.6741180419922 102.31883239746094 195.7096710205078 113.64969635009766" stroke-width="3.0" fill="none" stroke="rgb(0, 0, 0)" stroke-opacity="1.0" stroke-linecap="round" stroke-linejoin="round"/>
    <path d="M 107.03209686279297 151.93905639648438 C 144.9312744140625 151.43435668945312 123.20619201660156 154.38111877441406 105.67366790771484 156.6448516845703" stroke-width="3.0" fill="none" stroke="rgb(0, 0, 0)" stroke-opacity="1.0" stroke-linecap="round" stroke-linejoin="round"/>
    <path d="M 179.20864868164062 7.608798980712891 C 186.12872314453125 22.258453369140625 172.6885223388672 71.1627426147461 180.39645385742188 56.39002227783203" stroke-width="3.0" fill="none" stroke="rgb(0, 0, 0)" stroke-opacity="1.0" stroke-linecap="round" stroke-linejoin="round"/>
    <path d="M 134.710693359375 31.179107666015625 C 128.81207275390625 47.222984313964844 133.96957397460938 51.2648811340332 126.28050231933594 65.38138580322266" stroke-width="3.0" fill="none" stroke="rgb(0, 0, 0)" stroke-opacity="1.0" stroke-linecap="round" stroke-linejoin="round"/>
    <path d="M 91.10417938232422 43.21086120605469 C 71.62860107421875 -0.5716756582260132 89.72103118896484 -1.184684157371521 114.7786636352539 31.86174964904785" stroke-width="3.0" fill="none" stroke="rgb(0, 0, 0)" stroke-opacity="1.0" stroke-linecap="round" stroke-linejoin="round"/>
    <path d="M 46.6159553527832 172.22421264648438 C 40.494869232177734 153.81756591796875 37.31110763549805 146.44493103027344 47.982421875 169.79063415527344" stroke-width="3.0" fill="none" stroke="rgb(0, 0, 0)" stroke-opacity="1.0" stroke-linecap="round" stroke-linejoin="round"/>
    <path d="M 36.490665435791016 98.93508911132812 C 18.451284408569336 130.8172607421875 41.85594940185547 145.48074340820312 45.76799011230469 163.4083709716797" stroke-width="3.0" fill="none" stroke="rgb(0, 0, 0)" stroke-opacity="1.0" stroke-linecap="round" stroke-linejoin="round"/>
    <path d="M 83.34173583984375 149.6776580810547 C 116.8660659790039 157.10519409179688 99.66390228271484 156.4932403564453 102.82806396484375 152.81149291992188" stroke-width="3.0" fill="none" stroke="rgb(0, 0, 0)" stroke-opacity="1.0" stroke-linecap="round" stroke-linejoin="round"/>
    <path d="M 87.79840850830078 199.8253173828125 C 69.90193176269531 203.16705322265625 47.110599517822266 177.08297729492188 48.354373931884766 169.9596405029297" stroke-width="3.0" fill="none" stroke="rgb(0, 0, 0)" stroke-opacity="1.0" stroke-linecap="round" stroke-linejoin="round"/>
    <path d="M 48.56468200683594 174.98655700683594 C 66.34870910644531 194.4362030029297 47.0964469909668 169.85617065429688 37.255531311035156 145.8616485595703" stroke-width="3.0" fill="none" stroke="rgb(0, 0, 0)" stroke-opacity="1.0" stroke-linecap="round" stroke-linejoin="round"/>
    <path d="M 79.52745819091797 56.373985290527344 C 62.40055847167969 56.17485046386719 48.71864318847656 72.1465072631836 32.26619338989258 106.07765197753906" stroke-width="3.0" fill="none" stroke="rgb(0, 0, 0)" stroke-opacity="1.0" stroke-linecap="round" stroke-linejoin="round"/>
    <path d="M 153.86962890625 139.0208282470703 C 114.56017303466797 153.1125946044922 117.32172393798828 160.14244079589844 143.72787475585938 144.65769958496094" stroke-width="3.0" fill="none" stroke="rgb(0, 0, 0)" stroke-opacity="1.0" stroke-linecap="round" stroke-linejoin="round"/>
    <path d="M 151.30076599121094 24.156723022460938 C 140.8925018310547 35.74448013305664 136.61941528320312 14.917364120483398 136.5553741455078 82.62967681884766" stroke-width="3.0" fill="none" stroke="rgb(0, 0, 0)" stroke-opacity="1.0" stroke-linecap="round" stroke-linejoin="round"/>
    <path d="M 146.1125946044922 92.96023559570312 C 128.94285583496094 106.90619659423828 128.87684631347656 108.54886627197266 122.54779052734375 101.6021499633789" stroke-width="3.0" fill="none" stroke="rgb(0, 0, 0)" stroke-opacity="1.0" stroke-linecap="round" stroke-linejoin="round"/>
    <path d="M 133.13653564453125 72.4257583618164 C 142.5810546875 61.78166961669922 126.07782745361328 63.0783576965332 134.8698272705078 79.49757385253906" stroke-width="3.0" fill="none" stroke="rgb(0, 0, 0)" stroke-opacity="1.0" stroke-linecap="round" stroke-linejoin="round"/>
    <path d="M 135.0706329345703 177.85548400878906 C 129.84718322753906 180.0064697265625 143.8084259033203 180.3050079345703 149.7134246826172 146.6441192626953" stroke-width="3.0" fill="none" stroke="rgb(0, 0, 0)" stroke-opacity="1.0" stroke-linecap="round" stroke-linejoin="round"/>
    <path d="M 194.4982452392578 89.89714813232422 C 168.8054656982422 72.6176528930664 168.24081420898438 81.5084228515625 184.53067016601562 88.55280303955078" stroke-width="3.0" fill="none" stroke="rgb(0, 0, 0)" stroke-opacity="1.0" stroke-linecap="round" stroke-linejoin="round"/>
    <path d="M 156.32583618164062 77.80372619628906 C 122.38717651367188 61.164119720458984 200.18081665039062 82.016845703125 179.4779815673828 65.26528930664062" stroke-width="3.0" fill="none" stroke="rgb(0, 0, 0)" stroke-opacity="1.0" stroke-linecap="round" stroke-linejoin="round"/>
    <path d="M 109.1502456665039 75.96923065185547 C 83.99678802490234 69.19979095458984 140.4908447265625 73.75090789794922 108.14640045166016 78.94280242919922" stroke-width="3.0" fill="none" stroke="rgb(0, 0, 0)" stroke-opacity="1.0" stroke-linecap="round" stroke-linejoin="round"/>
    <path d="M 164.4104766845703 128.6075897216797 C 144.13510131835938 157.33950805664062 120.13025665283203 148.47265625 103.48336029052734 155.3007354736328" stroke-width="3.0" fill="none" stroke="rgb(0, 0, 0)" stroke-opacity="1.0" stroke-linecap="round" stroke-linejoin="round"/>
    <path d="M 117.83317565917969 87.56808471679688 C 143.66055297851562 97.31356811523438 122.73876190185547 67.43489837646484 126.51283264160156 106.12324523925781" stroke-width="3.0" fill="none" stroke="rgb(0, 0, 0)" stroke-opacity="1.0" stroke-linecap="round" stroke-linejoin="round"/>
    <path d="M 187.41900634765625 113.70526123046875 C 169.5394744873047 87.91879272460938 179.82345581054688 83.20074462890625 149.4138641357422 89.3432846069336" stroke-width="3.0" fill="none" stroke="rgb(0, 0, 0)" stroke-opacity="1.0" stroke-linecap="round" stroke-linejoin="round"/>
    <path d="M 86.33048248291016 10.900249481201172 C 107.8558349609375 11.03459358215332 117.44242858886719 35.204891204833984 122.38627624511719 31.218482971191406" stroke-width="3.0" fill="none" stroke="rgb(0, 0, 0)" stroke-opacity="1.0" stroke-linecap="round" stroke-linejoin="round"/>
    <path d="M 60.318275451660156 122.40125274658203 C 55.96554183959961 114.63006591796875 64.60220336914062 124.21975708007812 63.2869987487793 124.33536529541016" stroke-width="3.0" fill="none" stroke="rgb(0, 0, 0)" stroke-opacity="1.0" stroke-linecap="round" stroke-linejoin="round"/>
    <path d="M 136.51344299316406 104.73868560791016 C 122.82193756103516 90.71704864501953 125.10691833496094 119.92972564697266 113.38274383544922 93.04208374023438" stroke-width="3.0" fill="none" stroke="rgb(0, 0, 0)" stroke-opacity="1.0" stroke-linecap="round" stroke-linejoin="round"/>
    <path d="M 29.951868057250977 127.85487365722656 C 27.092985153198242 96.37440490722656 35.94356155395508 97.6512222290039 48.02425003051758 77.11575317382812" stroke-width="3.0" fill="none" stroke="rgb(0, 0, 0)" stroke-opacity="1.0" stroke-linecap="round" stroke-linejoin="round"/>
    <path d="M 79.54801177978516 197.8475799560547 C 70.61470794677734 194.22723388671875 63.73551940917969 200.41400146484375 100.08036804199219 198.91163635253906" stroke-width="3.0" fill="none" stroke="rgb(0, 0, 0)" stroke-opacity="1.0" stroke-linecap="round" stroke-linejoin="round"/>
    <path d="M 164.3380584716797 130.93946838378906 C 202.03781127929688 113.59918975830078 179.41659545898438 98.61021423339844 156.70233154296875 89.87437438964844" stroke-width="3.0" fill="none" stroke="rgb(0, 0, 0)" stroke-opacity="1.0" stroke-linecap="round" stroke-linejoin="round"/>
    <path d="M 148.25279235839844 67.7021713256836 C 133.5552215576172 88.58332061767578 175.7308807373047 75.8090591430664 147.57034301757812 68.54488372802734" stroke-width="3.0" fill="none" stroke="rgb(0, 0, 0)" stroke-opacity="1.0" stroke-linecap="round" stroke-linejoin="round"/>
    <path d="M 142.07752990722656 76.59698486328125 C 148.34019470214844 45.10258102416992 197.80628967285156 113.19086456298828 176.8637237548828 42.75109100341797" stroke-width="3.0" fill="none" stroke="rgb(0, 0, 0)" stroke-opacity="1.0" stroke-linecap="round" stroke-linejoin="round"/>
    <path d="M 153.89724731445312 97.44222259521484 C 169.23133850097656 104.27462768554688 175.20013427734375 103.67119598388672 182.30258178710938 118.91651153564453" stroke-width="3.0" fill="none" stroke="rgb(0, 0, 0)" stroke-opacity="1.0" stroke-linecap="round" stroke-linejoin="round"/>
    <path d="M 176.97894287109375 15.265857696533203 C 173.96310424804688 42.3770751953125 180.57733154296875 16.48423194885254 164.75308227539062 34.642662048339844" stroke-width="3.0" fill="none" stroke="rgb(0, 0, 0)" stroke-opacity="1.0" stroke-linecap="round" stroke-linejoin="round"/>
    <path d="M 118.35563659667969 100.7448501586914 C 147.1873321533203 101.08522033691406 130.06849670410156 116.36568450927734 118.83149719238281 103.22114562988281" stroke-width="3.0" fill="none" stroke="rgb(0, 0, 0)" stroke-opacity="1.0" stroke-linecap="round" stroke-linejoin="round"/>
    <path d="M 70.37718963623047 132.38133239746094 C 49.973350524902344 124.36465454101562 61.33984375 113.54370880126953 59.03487777709961 117.38420867919922" stroke-width="3.0" fill="none" stroke="rgb(0, 0, 0)" stroke-opacity="1.0" stroke-linecap="round" stroke-linejoin="round"/>
    <path d="M 123.51970672607422 72.02874755859375 C 130.77362060546875 35.27455520629883 122.63455200195312 51.17490768432617 127.40536499023438 31.203155517578125" stroke-width="3.0" fill="none" stroke="rgb(0, 0, 0)" stroke-opacity="1.0" stroke-linecap="round" stroke-linejoin="round"/>
    <path d="M 157.96197509765625 21.003040313720703 C 149.65818786621094 34.335269927978516 165.69264221191406 6.748011589050293 176.3249969482422 9.188420295715332" stroke-width="3.0" fill="none" stroke="rgb(0, 0, 0)" stroke-opacity="1.0" stroke-linecap="round" stroke-linejoin="round"/>
  </g>
</svg>
