<?xml version="1.0" ?>
<svg xmlns="http://www.w3.org/2000/svg" version="1.1" width="224" height="224">
  <defs/>
  <g>
    <path d="M 62.698524475097656 79.3685531616211 C 63.4546012878418 78.07711791992188 65.33002471923828 83.50508117675781 58.81430435180664 71.2500991821289" stroke-width="3.0" fill="none" stroke="rgb(0, 0, 0)" stroke-opacity="1.0" stroke-linecap="round" stroke-linejoin="round"/>
    <path d="M 183.3740692138672 121.77580261230469 C 179.74609375 115.47074890136719 203.30751037597656 98.45280456542969 174.88055419921875 126.92288208007812" stroke-width="3.0" fill="none" stroke="rgb(0, 0, 0)" stroke-opacity="1.0" stroke-linecap="round" stroke-linejoin="round"/>
    <path d="M 65.02146911621094 126.01626586914062 C 64.65450286865234 105.27295684814453 54.084407806396484 129.97079467773438 70.61266326904297 124.2490005493164" stroke-width="3.0" fill="none" stroke="rgb(0, 0, 0)" stroke-opacity="1.0" stroke-linecap="round" stroke-linejoin="round"/>
    <path d="M 182.63034057617188 99.16620635986328 C 142.56637573242188 88.12232208251953 175.69491577148438 72.83379364013672 193.90457153320312 110.86124420166016" stroke-width="3.0" fill="none" stroke="rgb(0, 0, 0)" stroke-opacity="1.0" stroke-linecap="round" stroke-linejoin="round"/>
    <path d="M 183.51162719726562 63.29253005981445 C 182.73025512695312 117.0869140625 184.61959838867188 104.04417419433594 181.6687774658203 70.31552124023438" stroke-width="3.0" fill="none" stroke="rgb(0, 0, 0)" stroke-opacity="1.0" stroke-linecap="round" stroke-linejoin="round"/>
    <path d="M 120.88746643066406 104.07279968261719 C 148.259765625 116.81752014160156 116.53619384765625 91.65672302246094 136.68238830566406 105.05891418457031" stroke-width="3.0" fill="none" stroke="rgb(0, 0, 0)" stroke-opacity="1.0" stroke-linecap="round" stroke-linejoin="round"/>
    <path d="M 171.3674774169922 92.73783111572266 C 191.970703125 88.69921875 179.3837890625 72.52921295166016 157.42752075195312 87.27136993408203" stroke-width="3.0" fill="none" stroke="rgb(0, 0, 0)" stroke-opacity="1.0" stroke-linecap="round" stroke-linejoin="round"/>
    <path d="M 58.53350830078125 185.1737518310547 C 38.809654235839844 154.99325561523438 46.04669952392578 168.16351318359375 49.22774887084961 174.19970703125" stroke-width="3.0" fill="none" stroke="rgb(0, 0, 0)" stroke-opacity="1.0" stroke-linecap="round" stroke-linejoin="round"/>
    <path d="M 57.661048889160156 180.87953186035156 C 91.4290771484375 209.95742797851562 112.62033081054688 194.5729217529297 130.5731201171875 179.82810974121094" stroke-width="3.0" fill="none" stroke="rgb(0, 0, 0)" stroke-opacity="1.0" stroke-linecap="round" stroke-linejoin="round"/>
    <path d="M 87.10779571533203 34.40625762939453 C 99.72527313232422 75.41778564453125 85.76107025146484 9.195508003234863 85.72917175292969 59.767066955566406" stroke-width="3.0" fill="none" stroke="rgb(0, 0, 0)" stroke-opacity="1.0" stroke-linecap="round" stroke-linejoin="round"/>
    <path d="M 56.02139663696289 103.3899917602539 C 65.15382385253906 137.80975341796875 95.05513000488281 162.72763061523438 92.8794937133789 149.6981964111328" stroke-width="3.0" fill="none" stroke="rgb(0, 0, 0)" stroke-opacity="1.0" stroke-linecap="round" stroke-linejoin="round"/>
    <path d="M 145.1509552001953 72.20643615722656 C 205.1884765625 64.89423370361328 190.04693603515625 83.197265625 150.11863708496094 84.79463958740234" stroke-width="3.0" fill="none" stroke="rgb(0, 0, 0)" stroke-opacity="1.0" stroke-linecap="round" stroke-linejoin="round"/>
    <path d="M 149.9269256591797 95.98240661621094 C 191.11843872070312 107.41776275634766 176.56332397460938 108.51805877685547 195.7207794189453 115.70536041259766" stroke-width="3.0" fill="none" stroke="rgb(0, 0, 0)" stroke-opacity="1.0" stroke-linecap="round" stroke-linejoin="round"/>
    <path d="M 132.22769165039062 158.22601318359375 C 146.7729034423828 151.30612182617188 124.75017547607422 157.17979431152344 106.78144836425781 157.03880310058594" stroke-width="3.0" fill="none" stroke="rgb(0, 0, 0)" stroke-opacity="1.0" stroke-linecap="round" stroke-linejoin="round"/>
    <path d="M 178.6992645263672 8.913110733032227 C 187.7760009765625 23.626588821411133 173.77915954589844 60.45738983154297 177.98123168945312 49.875938415527344" stroke-width="3.0" fill="none" stroke="rgb(0, 0, 0)" stroke-opacity="1.0" stroke-linecap="round" stroke-linejoin="round"/>
    <path d="M 130.24008178710938 30.04583740234375 C 121.73149108886719 55.075958251953125 132.92759704589844 34.55020523071289 125.69792938232422 69.08403015136719" stroke-width="3.0" fill="none" stroke="rgb(0, 0, 0)" stroke-opacity="1.0" stroke-linecap="round" stroke-linejoin="round"/>
    <path d="M 87.52212524414062 54.07806396484375 C 79.88522338867188 -10.710358619689941 82.51225280761719 -0.9421577453613281 106.83470153808594 43.033912658691406" stroke-width="3.0" fill="none" stroke="rgb(0, 0, 0)" stroke-opacity="1.0" stroke-linecap="round" stroke-linejoin="round"/>
    <path d="M 48.687442779541016 167.28590393066406 C 39.3083381652832 152.55966186523438 36.224830627441406 143.69566345214844 46.045127868652344 166.63600158691406" stroke-width="3.0" fill="none" stroke="rgb(0, 0, 0)" stroke-opacity="1.0" stroke-linecap="round" stroke-linejoin="round"/>
    <path d="M 36.65625 99.37346649169922 C 21.611526489257812 129.98959350585938 39.296226501464844 146.10464477539062 41.21430969238281 156.558837890625" stroke-width="3.0" fill="none" stroke="rgb(0, 0, 0)" stroke-opacity="1.0" stroke-linecap="round" stroke-linejoin="round"/>
    <path d="M 87.82884979248047 148.65597534179688 C 107.8591079711914 159.9010772705078 105.25091552734375 161.98245239257812 99.94503784179688 153.02882385253906" stroke-width="3.0" fill="none" stroke="rgb(0, 0, 0)" stroke-opacity="1.0" stroke-linecap="round" stroke-linejoin="round"/>
    <path d="M 83.63648986816406 195.767578125 C 69.74085235595703 199.2327880859375 49.79703140258789 177.12542724609375 48.00875473022461 171.71580505371094" stroke-width="3.0" fill="none" stroke="rgb(0, 0, 0)" stroke-opacity="1.0" stroke-linecap="round" stroke-linejoin="round"/>
    <path d="M 47.963104248046875 172.0252685546875 C 62.375755310058594 192.02513122558594 41.002708435058594 167.7884063720703 38.932071685791016 151.68995666503906" stroke-width="3.0" fill="none" stroke="rgb(0, 0, 0)" stroke-opacity="1.0" stroke-linecap="round" stroke-linejoin="round"/>
    <path d="M 78.48390197753906 54.48004913330078 C 62.12989807128906 57.73653793334961 48.2772216796875 72.4628677368164 32.15674591064453 108.28144836425781" stroke-width="3.0" fill="none" stroke="rgb(0, 0, 0)" stroke-opacity="1.0" stroke-linecap="round" stroke-linejoin="round"/>
    <path d="M 153.0979461669922 140.64381408691406 C 124.46434020996094 161.08642578125 118.5169448852539 156.22105407714844 130.98841857910156 157.19207763671875" stroke-width="3.0" fill="none" stroke="rgb(0, 0, 0)" stroke-opacity="1.0" stroke-linecap="round" stroke-linejoin="round"/>
    <path d="M 142.26365661621094 29.638046264648438 C 148.93231201171875 51.63494110107422 138.63819885253906 47.576515197753906 136.18051147460938 81.1939468383789" stroke-width="3.0" fill="none" stroke="rgb(0, 0, 0)" stroke-opacity="1.0" stroke-linecap="round" stroke-linejoin="round"/>
    <path d="M 146.89089965820312 99.85132598876953 C 129.96826171875 108.90406799316406 131.0619659423828 111.351318359375 116.85586547851562 105.1554946899414" stroke-width="3.0" fill="none" stroke="rgb(0, 0, 0)" stroke-opacity="1.0" stroke-linecap="round" stroke-linejoin="round"/>
    <path d="M 138.00180053710938 74.99287414550781 C 146.75048828125 55.106746673583984 130.20315551757812 57.45967102050781 135.74581909179688 78.77459716796875" stroke-width="3.0" fill="none" stroke="rgb(0, 0, 0)" stroke-opacity="1.0" stroke-linecap="round" stroke-linejoin="round"/>
    <path d="M 133.21749877929688 178.6436767578125 C 127.19692993164062 182.11489868164062 137.94859313964844 179.41441345214844 147.35845947265625 147.9389190673828" stroke-width="3.0" fill="none" stroke="rgb(0, 0, 0)" stroke-opacity="1.0" stroke-linecap="round" stroke-linejoin="round"/>
    <path d="M 195.4675750732422 97.07923126220703 C 170.63662719726562 68.79756164550781 161.456787109375 79.68582153320312 188.1981964111328 91.34996795654297" stroke-width="3.0" fill="none" stroke="rgb(0, 0, 0)" stroke-opacity="1.0" stroke-linecap="round" stroke-linejoin="round"/>
    <path d="M 146.83413696289062 73.39854431152344 C 152.95425415039062 56.3304557800293 191.4481201171875 91.25975036621094 180.48019409179688 65.33125305175781" stroke-width="3.0" fill="none" stroke="rgb(0, 0, 0)" stroke-opacity="1.0" stroke-linecap="round" stroke-linejoin="round"/>
    <path d="M 109.0470962524414 79.90001678466797 C 82.38804626464844 75.20953369140625 147.41641235351562 75.39485168457031 107.88246154785156 84.95590209960938" stroke-width="3.0" fill="none" stroke="rgb(0, 0, 0)" stroke-opacity="1.0" stroke-linecap="round" stroke-linejoin="round"/>
    <path d="M 160.73680114746094 133.14971923828125 C 130.75253295898438 168.92291259765625 125.58257293701172 153.56756591796875 106.50003051757812 158.8798370361328" stroke-width="3.0" fill="none" stroke="rgb(0, 0, 0)" stroke-opacity="1.0" stroke-linecap="round" stroke-linejoin="round"/>
    <path d="M 122.86027526855469 90.82111358642578 C 141.4060821533203 103.30007934570312 132.3341064453125 69.42328643798828 126.76111602783203 106.69688415527344" stroke-width="3.0" fill="none" stroke="rgb(0, 0, 0)" stroke-opacity="1.0" stroke-linecap="round" stroke-linejoin="round"/>
    <path d="M 187.26388549804688 110.71219635009766 C 175.07699584960938 86.5300521850586 184.3113250732422 95.91571044921875 142.12721252441406 83.08087921142578" stroke-width="3.0" fill="none" stroke="rgb(0, 0, 0)" stroke-opacity="1.0" stroke-linecap="round" stroke-linejoin="round"/>
    <path d="M 88.03018951416016 8.825066566467285 C 104.20535278320312 11.97976303100586 117.2154769897461 35.78974533081055 123.57637023925781 30.36556625366211" stroke-width="3.0" fill="none" stroke="rgb(0, 0, 0)" stroke-opacity="1.0" stroke-linecap="round" stroke-linejoin="round"/>
    <path d="M 63.83510971069336 124.30841064453125 C 63.32044982910156 109.73957061767578 61.125587463378906 127.65785217285156 62.698036193847656 123.02111053466797" stroke-width="3.0" fill="none" stroke="rgb(0, 0, 0)" stroke-opacity="1.0" stroke-linecap="round" stroke-linejoin="round"/>
    <path d="M 135.26934814453125 106.86323547363281 C 121.43502807617188 93.77689361572266 115.18807983398438 115.6099853515625 110.5951919555664 95.1395492553711" stroke-width="3.0" fill="none" stroke="rgb(0, 0, 0)" stroke-opacity="1.0" stroke-linecap="round" stroke-linejoin="round"/>
    <path d="M 31.987037658691406 135.01031494140625 C 26.522428512573242 96.18315887451172 41.066375732421875 100.99964141845703 49.47355270385742 77.2026596069336" stroke-width="3.0" fill="none" stroke="rgb(0, 0, 0)" stroke-opacity="1.0" stroke-linecap="round" stroke-linejoin="round"/>
    <path d="M 78.0424575805664 196.23562622070312 C 71.33935546875 194.40245056152344 67.27519226074219 193.5585174560547 97.26200866699219 195.85960388183594" stroke-width="3.0" fill="none" stroke="rgb(0, 0, 0)" stroke-opacity="1.0" stroke-linecap="round" stroke-linejoin="round"/>
    <path d="M 160.5513458251953 132.15277099609375 C 202.67245483398438 123.17044830322266 175.86073303222656 98.3293228149414 156.45632934570312 91.66561889648438" stroke-width="3.0" fill="none" stroke="rgb(0, 0, 0)" stroke-opacity="1.0" stroke-linecap="round" stroke-linejoin="round"/>
    <path d="M 156.60963439941406 69.21500396728516 C 132.04534912109375 84.62702941894531 170.56103515625 76.38224792480469 147.5043182373047 67.98883056640625" stroke-width="3.0" fill="none" stroke="rgb(0, 0, 0)" stroke-opacity="1.0" stroke-linecap="round" stroke-linejoin="round"/>
    <path d="M 142.17933654785156 77.51471710205078 C 147.32408142089844 43.02167892456055 195.36102294921875 110.9605712890625 179.0240478515625 44.06027603149414" stroke-width="3.0" fill="none" stroke="rgb(0, 0, 0)" stroke-opacity="1.0" stroke-linecap="round" stroke-linejoin="round"/>
    <path d="M 160.0176544189453 100.1178970336914 C 169.5467529296875 108.88875579833984 171.1266326904297 102.30508422851562 181.79107666015625 125.13780975341797" stroke-width="3.0" fill="none" stroke="rgb(0, 0, 0)" stroke-opacity="1.0" stroke-linecap="round" stroke-linejoin="round"/>
    <path d="M 176.12733459472656 16.108917236328125 C 169.65048217773438 42.84687042236328 177.68186950683594 20.788776397705078 162.27415466308594 37.07231903076172" stroke-width="3.0" fill="none" stroke="rgb(0, 0, 0)" stroke-opacity="1.0" stroke-linecap="round" stroke-linejoin="round"/>
    <path d="M 116.40634155273438 104.67198944091797 C 144.22996520996094 101.7706527709961 136.28257751464844 111.73968505859375 119.55682373046875 104.0676498413086" stroke-width="3.0" fill="none" stroke="rgb(0, 0, 0)" stroke-opacity="1.0" stroke-linecap="round" stroke-linejoin="round"/>
    <path d="M 80.83438110351562 133.11346435546875 C 52.643741607666016 121.22490692138672 61.91265869140625 112.55986022949219 62.04788589477539 121.80386352539062" stroke-width="3.0" fill="none" stroke="rgb(0, 0, 0)" stroke-opacity="1.0" stroke-linecap="round" stroke-linejoin="round"/>
    <path d="M 123.6173095703125 75.27581787109375 C 125.37654113769531 40.792640686035156 118.20289611816406 57.48015213012695 116.84628295898438 36.080013275146484" stroke-width="3.0" fill="none" stroke="rgb(0, 0, 0)" stroke-opacity="1.0" stroke-linecap="round" stroke-linejoin="round"/>
    <path d="M 151.97927856445312 24.882278442382812 C 146.35601806640625 36.799530029296875 158.94406127929688 8.977903366088867 179.38156127929688 9.710783958435059" stroke-width="3.0" fill="none" stroke="rgb(0, 0, 0)" stroke-opacity="1.0" stroke-linecap="round" stroke-linejoin="round"/>
  </g>
</svg>
