<?xml version="1.0" ?>
<svg xmlns="http://www.w3.org/2000/svg" version="1.1" width="224" height="224">
  <defs/>
  <g>
    <path d="M 54.05479049682617 119.7761001586914 C 55.954071044921875 119.55492401123047 44.658660888671875 109.9112548828125 43.205108642578125 95.7349853515625" stroke-width="3.0" fill="none" stroke="rgb(0, 0, 0)" stroke-opacity="1.0" stroke-linecap="round" stroke-linejoin="round"/>
    <path d="M 181.05941772460938 126.1362533569336 C 181.74948120117188 110.48297119140625 183.42864990234375 119.3941879272461 185.2692108154297 121.9573745727539" stroke-width="3.0" fill="none" stroke="rgb(0, 0, 0)" stroke-opacity="1.0" stroke-linecap="round" stroke-linejoin="round"/>
    <path d="M 48.36587905883789 110.51458740234375 C 50.34461975097656 114.84078979492188 47.556854248046875 108.2918472290039 51.6309700012207 115.05046081542969" stroke-width="3.0" fill="none" stroke="rgb(0, 0, 0)" stroke-opacity="1.0" stroke-linecap="round" stroke-linejoin="round"/>
    <path d="M 185.57171630859375 97.91523742675781 C 155.37559509277344 99.27409362792969 176.9503936767578 82.34259033203125 195.25511169433594 113.69287872314453" stroke-width="3.0" fill="none" stroke="rgb(0, 0, 0)" stroke-opacity="1.0" stroke-linecap="round" stroke-linejoin="round"/>
    <path d="M 185.37501525878906 80.70323944091797 C 180.2718505859375 89.97643280029297 177.829833984375 82.67527770996094 184.70437622070312 67.00603485107422" stroke-width="3.0" fill="none" stroke="rgb(0, 0, 0)" stroke-opacity="1.0" stroke-linecap="round" stroke-linejoin="round"/>
    <path d="M 128.12974548339844 98.06771087646484 C 131.76820373535156 115.72191619873047 114.17169189453125 99.72527313232422 135.95689392089844 104.47270965576172" stroke-width="3.0" fill="none" stroke="rgb(0, 0, 0)" stroke-opacity="1.0" stroke-linecap="round" stroke-linejoin="round"/>
    <path d="M 162.91049194335938 95.54381561279297 C 203.94944763183594 66.58915710449219 185.12823486328125 68.75576782226562 157.71762084960938 83.6486587524414" stroke-width="3.0" fill="none" stroke="rgb(0, 0, 0)" stroke-opacity="1.0" stroke-linecap="round" stroke-linejoin="round"/>
    <path d="M 53.496028900146484 181.91390991210938 C 36.74823760986328 151.42381286621094 41.15922164916992 160.41619873046875 43.21039581298828 156.0867156982422" stroke-width="3.0" fill="none" stroke="rgb(0, 0, 0)" stroke-opacity="1.0" stroke-linecap="round" stroke-linejoin="round"/>
    <path d="M 68.77523040771484 191.3604736328125 C 84.99147033691406 201.21493530273438 110.89629364013672 193.82015991210938 103.24596405029297 193.83541870117188" stroke-width="3.0" fill="none" stroke="rgb(0, 0, 0)" stroke-opacity="1.0" stroke-linecap="round" stroke-linejoin="round"/>
    <path d="M 88.35570526123047 22.784908294677734 C 95.19438934326172 66.58546447753906 88.77222442626953 30.524755477905273 88.89306640625 50.63986587524414" stroke-width="3.0" fill="none" stroke="rgb(0, 0, 0)" stroke-opacity="1.0" stroke-linecap="round" stroke-linejoin="round"/>
    <path d="M 58.6466178894043 128.31068420410156 C 67.25732421875 141.1852569580078 83.87561798095703 146.79258728027344 81.26367950439453 146.0770263671875" stroke-width="3.0" fill="none" stroke="rgb(0, 0, 0)" stroke-opacity="1.0" stroke-linecap="round" stroke-linejoin="round"/>
    <path d="M 165.59596252441406 82.63984680175781 C 197.7479248046875 75.20197296142578 176.59158325195312 83.0505142211914 143.55120849609375 87.67488861083984" stroke-width="3.0" fill="none" stroke="rgb(0, 0, 0)" stroke-opacity="1.0" stroke-linecap="round" stroke-linejoin="round"/>
    <path d="M 152.47842407226562 100.82925415039062 C 175.0885467529297 102.43949890136719 171.63731384277344 100.59815979003906 187.65069580078125 108.99016571044922" stroke-width="3.0" fill="none" stroke="rgb(0, 0, 0)" stroke-opacity="1.0" stroke-linecap="round" stroke-linejoin="round"/>
    <path d="M 96.92308044433594 156.18492126464844 C 115.89127349853516 165.5166473388672 103.57401275634766 187.09886169433594 109.64292907714844 190.55751037597656" stroke-width="3.0" fill="none" stroke="rgb(0, 0, 0)" stroke-opacity="1.0" stroke-linecap="round" stroke-linejoin="round"/>
    <path d="M 171.50799560546875 10.683035850524902 C 187.07542419433594 -1.3428528308868408 174.0596923828125 43.95460891723633 183.76763916015625 60.24119186401367" stroke-width="3.0" fill="none" stroke="rgb(0, 0, 0)" stroke-opacity="1.0" stroke-linecap="round" stroke-linejoin="round"/>
    <path d="M 135.61875915527344 31.793569564819336 C 129.9573974609375 67.81916046142578 133.9406280517578 39.37327575683594 133.16842651367188 65.1505126953125" stroke-width="3.0" fill="none" stroke="rgb(0, 0, 0)" stroke-opacity="1.0" stroke-linecap="round" stroke-linejoin="round"/>
    <path d="M 93.1556625366211 48.974937438964844 C 70.3520736694336 -2.62485671043396 86.72095489501953 2.3154804706573486 103.77613067626953 40.51472473144531" stroke-width="3.0" fill="none" stroke="rgb(0, 0, 0)" stroke-opacity="1.0" stroke-linecap="round" stroke-linejoin="round"/>
    <path d="M 43.65407943725586 160.9586181640625 C 41.14186096191406 153.97137451171875 41.105560302734375 161.84278869628906 42.97816467285156 162.19764709472656" stroke-width="3.0" fill="none" stroke="rgb(0, 0, 0)" stroke-opacity="1.0" stroke-linecap="round" stroke-linejoin="round"/>
    <path d="M 33.371124267578125 104.14531707763672 C 24.753141403198242 128.55087280273438 34.938377380371094 143.12432861328125 43.09467697143555 156.4541473388672" stroke-width="3.0" fill="none" stroke="rgb(0, 0, 0)" stroke-opacity="1.0" stroke-linecap="round" stroke-linejoin="round"/>
    <path d="M 87.6574478149414 148.09152221679688 C 96.48383331298828 157.29287719726562 98.22972869873047 158.46180725097656 90.10337829589844 151.30499267578125" stroke-width="3.0" fill="none" stroke="rgb(0, 0, 0)" stroke-opacity="1.0" stroke-linecap="round" stroke-linejoin="round"/>
    <path d="M 74.3001480102539 193.82899475097656 C 48.13249206542969 177.89356994628906 68.74014282226562 189.38424682617188 46.88622283935547 173.76565551757812" stroke-width="3.0" fill="none" stroke="rgb(0, 0, 0)" stroke-opacity="1.0" stroke-linecap="round" stroke-linejoin="round"/>
    <path d="M 42.21057891845703 162.02413940429688 C 52.119815826416016 170.87637329101562 39.234806060791016 157.73594665527344 37.83745574951172 147.55360412597656" stroke-width="3.0" fill="none" stroke="rgb(0, 0, 0)" stroke-opacity="1.0" stroke-linecap="round" stroke-linejoin="round"/>
    <path d="M 84.1628189086914 52.63579177856445 C 55.277305603027344 57.83181381225586 50.14430236816406 75.38552856445312 31.544275283813477 106.66542053222656" stroke-width="3.0" fill="none" stroke="rgb(0, 0, 0)" stroke-opacity="1.0" stroke-linecap="round" stroke-linejoin="round"/>
    <path d="M 148.77439880371094 156.761962890625 C 142.11680603027344 162.2349395751953 130.7796173095703 144.33795166015625 141.4496612548828 162.1853485107422" stroke-width="3.0" fill="none" stroke="rgb(0, 0, 0)" stroke-opacity="1.0" stroke-linecap="round" stroke-linejoin="round"/>
    <path d="M 142.4400634765625 32.299049377441406 C 149.5564727783203 51.17531204223633 135.80032348632812 53.87525177001953 139.14407348632812 79.79534149169922" stroke-width="3.0" fill="none" stroke="rgb(0, 0, 0)" stroke-opacity="1.0" stroke-linecap="round" stroke-linejoin="round"/>
    <path d="M 144.20281982421875 100.72319030761719 C 124.42512512207031 117.11539459228516 121.16765594482422 105.92214965820312 128.22186279296875 103.10545349121094" stroke-width="3.0" fill="none" stroke="rgb(0, 0, 0)" stroke-opacity="1.0" stroke-linecap="round" stroke-linejoin="round"/>
    <path d="M 139.6000213623047 76.66851043701172 C 147.06094360351562 47.488407135009766 146.3385467529297 57.27231979370117 155.12701416015625 46.352561950683594" stroke-width="3.0" fill="none" stroke="rgb(0, 0, 0)" stroke-opacity="1.0" stroke-linecap="round" stroke-linejoin="round"/>
    <path d="M 119.93840026855469 186.0600128173828 C 94.51983642578125 189.64585876464844 112.51679229736328 203.49810791015625 136.98770141601562 169.94313049316406" stroke-width="3.0" fill="none" stroke="rgb(0, 0, 0)" stroke-opacity="1.0" stroke-linecap="round" stroke-linejoin="round"/>
    <path d="M 194.51708984375 94.70468139648438 C 164.97879028320312 75.51240539550781 152.08233642578125 99.02637481689453 185.77593994140625 84.22364044189453" stroke-width="3.0" fill="none" stroke="rgb(0, 0, 0)" stroke-opacity="1.0" stroke-linecap="round" stroke-linejoin="round"/>
    <path d="M 165.59449768066406 71.63236999511719 C 190.5604248046875 76.50055694580078 196.76246643066406 71.52497100830078 164.87062072753906 74.69188690185547" stroke-width="3.0" fill="none" stroke="rgb(0, 0, 0)" stroke-opacity="1.0" stroke-linecap="round" stroke-linejoin="round"/>
    <path d="M 107.36941528320312 81.05652618408203 C 85.49244689941406 74.83625793457031 143.33621215820312 78.31948852539062 104.77708435058594 83.17288208007812" stroke-width="3.0" fill="none" stroke="rgb(0, 0, 0)" stroke-opacity="1.0" stroke-linecap="round" stroke-linejoin="round"/>
    <path d="M 138.14410400390625 155.9658203125 C 139.0867919921875 151.71572875976562 126.90785217285156 152.51268005371094 108.53284454345703 138.8021697998047" stroke-width="3.0" fill="none" stroke="rgb(0, 0, 0)" stroke-opacity="1.0" stroke-linecap="round" stroke-linejoin="round"/>
    <path d="M 124.06877899169922 87.70075225830078 C 137.65126037597656 102.52262115478516 137.95855712890625 75.47333526611328 127.53956604003906 95.36524200439453" stroke-width="3.0" fill="none" stroke="rgb(0, 0, 0)" stroke-opacity="1.0" stroke-linecap="round" stroke-linejoin="round"/>
    <path d="M 188.5413818359375 100.27346801757812 C 174.34300231933594 81.14295959472656 186.51458740234375 99.39917755126953 139.92091369628906 83.95195770263672" stroke-width="3.0" fill="none" stroke="rgb(0, 0, 0)" stroke-opacity="1.0" stroke-linecap="round" stroke-linejoin="round"/>
    <path d="M 82.79161834716797 10.054177284240723 C 115.3245620727539 16.366174697875977 116.24853515625 34.21451187133789 128.3843994140625 31.23504638671875" stroke-width="3.0" fill="none" stroke="rgb(0, 0, 0)" stroke-opacity="1.0" stroke-linecap="round" stroke-linejoin="round"/>
    <path d="M 52.677738189697266 116.86407470703125 C 49.716644287109375 109.71824645996094 56.123653411865234 124.48607635498047 51.349647521972656 113.64469146728516" stroke-width="3.0" fill="none" stroke="rgb(0, 0, 0)" stroke-opacity="1.0" stroke-linecap="round" stroke-linejoin="round"/>
    <path d="M 119.29408264160156 100.56231689453125 C 95.78988647460938 85.91165161132812 122.90917205810547 100.99735260009766 108.56863403320312 94.21003723144531" stroke-width="3.0" fill="none" stroke="rgb(0, 0, 0)" stroke-opacity="1.0" stroke-linecap="round" stroke-linejoin="round"/>
    <path d="M 30.03188705444336 119.73360443115234 C 33.33963394165039 97.07994079589844 32.45236587524414 102.10108947753906 29.045265197753906 115.95226287841797" stroke-width="3.0" fill="none" stroke="rgb(0, 0, 0)" stroke-opacity="1.0" stroke-linecap="round" stroke-linejoin="round"/>
    <path d="M 89.59883117675781 195.8855743408203 C 72.93248748779297 193.98428344726562 69.64637756347656 196.03890991210938 93.04998779296875 196.8391876220703" stroke-width="3.0" fill="none" stroke="rgb(0, 0, 0)" stroke-opacity="1.0" stroke-linecap="round" stroke-linejoin="round"/>
    <path d="M 157.3075714111328 136.63198852539062 C 209.01702880859375 113.15552520751953 179.2454071044922 95.22312927246094 151.2895965576172 93.27806091308594" stroke-width="3.0" fill="none" stroke="rgb(0, 0, 0)" stroke-opacity="1.0" stroke-linecap="round" stroke-linejoin="round"/>
    <path d="M 151.89830017089844 76.97284698486328 C 132.13153076171875 71.24011993408203 165.78610229492188 87.3368911743164 149.5082244873047 71.31916809082031" stroke-width="3.0" fill="none" stroke="rgb(0, 0, 0)" stroke-opacity="1.0" stroke-linecap="round" stroke-linejoin="round"/>
    <path d="M 145.99246215820312 77.30448150634766 C 143.7691192626953 55.10258865356445 187.68560791015625 93.1711654663086 181.6863555908203 61.6453742980957" stroke-width="3.0" fill="none" stroke="rgb(0, 0, 0)" stroke-opacity="1.0" stroke-linecap="round" stroke-linejoin="round"/>
    <path d="M 148.56849670410156 98.17855072021484 C 160.52731323242188 92.31702423095703 170.42713928222656 106.41016387939453 184.1035614013672 113.08834075927734" stroke-width="3.0" fill="none" stroke="rgb(0, 0, 0)" stroke-opacity="1.0" stroke-linecap="round" stroke-linejoin="round"/>
    <path d="M 174.76605224609375 17.451370239257812 C 164.36146545410156 45.606781005859375 173.69532775878906 32.54685592651367 165.72569274902344 43.03346633911133" stroke-width="3.0" fill="none" stroke="rgb(0, 0, 0)" stroke-opacity="1.0" stroke-linecap="round" stroke-linejoin="round"/>
    <path d="M 126.4449234008789 106.5997314453125 C 153.0970458984375 106.08126831054688 130.48191833496094 101.01325988769531 112.62394714355469 99.23641967773438" stroke-width="3.0" fill="none" stroke="rgb(0, 0, 0)" stroke-opacity="1.0" stroke-linecap="round" stroke-linejoin="round"/>
    <path d="M 50.571510314941406 113.94495391845703 C 53.00776672363281 115.33480072021484 47.25840377807617 107.71255493164062 57.81278610229492 128.37969970703125" stroke-width="3.0" fill="none" stroke="rgb(0, 0, 0)" stroke-opacity="1.0" stroke-linecap="round" stroke-linejoin="round"/>
    <path d="M 122.89925384521484 82.56330108642578 C 132.6168670654297 57.98162841796875 119.97296905517578 54.5323600769043 124.43720245361328 36.05445861816406" stroke-width="3.0" fill="none" stroke="rgb(0, 0, 0)" stroke-opacity="1.0" stroke-linecap="round" stroke-linejoin="round"/>
    <path d="M 146.947509765625 31.90690803527832 C 147.5645294189453 35.18081283569336 151.83628845214844 18.035795211791992 175.02792358398438 8.767929077148438" stroke-width="3.0" fill="none" stroke="rgb(0, 0, 0)" stroke-opacity="1.0" stroke-linecap="round" stroke-linejoin="round"/>
  </g>
</svg>
