<?xml version="1.0" ?>
<svg xmlns="http://www.w3.org/2000/svg" version="1.1" width="224" height="224">
  <defs/>
  <g>
    <path d="M 59.727989196777344 97.69031524658203 C 57.14990234375 92.67301177978516 62.527565002441406 101.11190032958984 52.68693161010742 87.1368408203125" stroke-width="3.0" fill="none" stroke="rgb(0, 0, 0)" stroke-opacity="1.0" stroke-linecap="round" stroke-linejoin="round"/>
    <path d="M 182.77163696289062 125.26378631591797 C 180.24143981933594 114.04505920410156 202.9674072265625 86.30937957763672 173.66876220703125 129.0802001953125" stroke-width="3.0" fill="none" stroke="rgb(0, 0, 0)" stroke-opacity="1.0" stroke-linecap="round" stroke-linejoin="round"/>
    <path d="M 57.677146911621094 111.3468017578125 C 53.79016876220703 106.9998779296875 55.501365661621094 126.31462860107422 64.73965454101562 132.17393493652344" stroke-width="3.0" fill="none" stroke="rgb(0, 0, 0)" stroke-opacity="1.0" stroke-linecap="round" stroke-linejoin="round"/>
    <path d="M 186.49713134765625 91.71839141845703 C 135.902587890625 92.29544067382812 177.59063720703125 87.34089660644531 189.036865234375 105.09677124023438" stroke-width="3.0" fill="none" stroke="rgb(0, 0, 0)" stroke-opacity="1.0" stroke-linecap="round" stroke-linejoin="round"/>
    <path d="M 177.34182739257812 73.56944274902344 C 194.16070556640625 111.87738037109375 182.0102081298828 106.6565170288086 178.5076904296875 71.91407775878906" stroke-width="3.0" fill="none" stroke="rgb(0, 0, 0)" stroke-opacity="1.0" stroke-linecap="round" stroke-linejoin="round"/>
    <path d="M 121.09322357177734 105.15628814697266 C 148.35862731933594 115.79509735107422 114.74223327636719 90.39840698242188 140.3734588623047 97.42167663574219" stroke-width="3.0" fill="none" stroke="rgb(0, 0, 0)" stroke-opacity="1.0" stroke-linecap="round" stroke-linejoin="round"/>
    <path d="M 180.28750610351562 90.58424377441406 C 189.84091186523438 81.3158187866211 190.06451416015625 73.11170196533203 141.38845825195312 87.25672912597656" stroke-width="3.0" fill="none" stroke="rgb(0, 0, 0)" stroke-opacity="1.0" stroke-linecap="round" stroke-linejoin="round"/>
    <path d="M 65.85331726074219 189.3975372314453 C 38.48428726196289 163.78306579589844 50.4520378112793 171.0970916748047 47.98097610473633 170.76698303222656" stroke-width="3.0" fill="none" stroke="rgb(0, 0, 0)" stroke-opacity="1.0" stroke-linecap="round" stroke-linejoin="round"/>
    <path d="M 56.5599365234375 180.09486389160156 C 93.7557144165039 211.3220672607422 115.82331848144531 196.94248962402344 133.67535400390625 175.912109375" stroke-width="3.0" fill="none" stroke="rgb(0, 0, 0)" stroke-opacity="1.0" stroke-linecap="round" stroke-linejoin="round"/>
    <path d="M 84.62335205078125 29.952564239501953 C 94.6748046875 81.1224594116211 84.71263885498047 9.124358177185059 85.28569030761719 53.65864562988281" stroke-width="3.0" fill="none" stroke="rgb(0, 0, 0)" stroke-opacity="1.0" stroke-linecap="round" stroke-linejoin="round"/>
    <path d="M 46.84638214111328 91.14547729492188 C 63.88115692138672 145.20242309570312 78.90511322021484 148.14923095703125 74.96349334716797 142.48861694335938" stroke-width="3.0" fill="none" stroke="rgb(0, 0, 0)" stroke-opacity="1.0" stroke-linecap="round" stroke-linejoin="round"/>
    <path d="M 150.10153198242188 70.08274841308594 C 200.0014190673828 62.51081466674805 191.741943359375 95.59000396728516 142.2390899658203 84.16527557373047" stroke-width="3.0" fill="none" stroke="rgb(0, 0, 0)" stroke-opacity="1.0" stroke-linecap="round" stroke-linejoin="round"/>
    <path d="M 148.7276611328125 96.83577728271484 C 181.30599975585938 104.72592163085938 175.12303161621094 99.6697998046875 194.1414031982422 115.75251770019531" stroke-width="3.0" fill="none" stroke="rgb(0, 0, 0)" stroke-opacity="1.0" stroke-linecap="round" stroke-linejoin="round"/>
    <path d="M 113.50517272949219 149.66098022460938 C 149.87420654296875 156.19264221191406 119.35808563232422 151.16323852539062 104.7253189086914 157.21240234375" stroke-width="3.0" fill="none" stroke="rgb(0, 0, 0)" stroke-opacity="1.0" stroke-linecap="round" stroke-linejoin="round"/>
    <path d="M 178.74046325683594 9.442399978637695 C 186.9534912109375 23.166452407836914 170.29486083984375 70.14340209960938 179.69960021972656 54.002296447753906" stroke-width="3.0" fill="none" stroke="rgb(0, 0, 0)" stroke-opacity="1.0" stroke-linecap="round" stroke-linejoin="round"/>
    <path d="M 132.1304473876953 27.0312557220459 C 126.29460144042969 40.715091705322266 137.47926330566406 47.47958755493164 127.05618286132812 65.28878021240234" stroke-width="3.0" fill="none" stroke="rgb(0, 0, 0)" stroke-opacity="1.0" stroke-linecap="round" stroke-linejoin="round"/>
    <path d="M 92.24230194091797 42.03618240356445 C 69.21003723144531 -2.0143673419952393 87.48170471191406 2.1346797943115234 111.30500030517578 32.37238693237305" stroke-width="3.0" fill="none" stroke="rgb(0, 0, 0)" stroke-opacity="1.0" stroke-linecap="round" stroke-linejoin="round"/>
    <path d="M 45.991214752197266 168.68988037109375 C 40.86856460571289 153.60421752929688 36.875953674316406 147.2384796142578 47.694732666015625 169.6011505126953" stroke-width="3.0" fill="none" stroke="rgb(0, 0, 0)" stroke-opacity="1.0" stroke-linecap="round" stroke-linejoin="round"/>
    <path d="M 36.41740798950195 97.67720794677734 C 21.847976684570312 132.28811645507812 41.765262603759766 145.52061462402344 43.718849182128906 165.21006774902344" stroke-width="3.0" fill="none" stroke="rgb(0, 0, 0)" stroke-opacity="1.0" stroke-linecap="round" stroke-linejoin="round"/>
    <path d="M 75.94746398925781 146.3454132080078 C 113.87503051757812 158.34881591796875 88.97261047363281 155.60313415527344 97.80746459960938 150.5999298095703" stroke-width="3.0" fill="none" stroke="rgb(0, 0, 0)" stroke-opacity="1.0" stroke-linecap="round" stroke-linejoin="round"/>
    <path d="M 89.7165298461914 197.45523071289062 C 70.77249145507812 203.15179443359375 50.52598190307617 174.47598266601562 47.94535446166992 169.99462890625" stroke-width="3.0" fill="none" stroke="rgb(0, 0, 0)" stroke-opacity="1.0" stroke-linecap="round" stroke-linejoin="round"/>
    <path d="M 48.57572555541992 172.3365936279297 C 66.4104232788086 192.480712890625 47.426116943359375 170.2095489501953 39.67815017700195 152.9761962890625" stroke-width="3.0" fill="none" stroke="rgb(0, 0, 0)" stroke-opacity="1.0" stroke-linecap="round" stroke-linejoin="round"/>
    <path d="M 80.60172271728516 53.88991165161133 C 62.39153289794922 57.56431579589844 47.320037841796875 71.12217712402344 33.56199645996094 106.66211700439453" stroke-width="3.0" fill="none" stroke="rgb(0, 0, 0)" stroke-opacity="1.0" stroke-linecap="round" stroke-linejoin="round"/>
    <path d="M 157.48585510253906 138.60450744628906 C 112.97256469726562 157.2208251953125 108.06755828857422 160.06265258789062 146.63330078125 147.94671630859375" stroke-width="3.0" fill="none" stroke="rgb(0, 0, 0)" stroke-opacity="1.0" stroke-linecap="round" stroke-linejoin="round"/>
    <path d="M 150.09625244140625 24.17064666748047 C 135.1136016845703 37.337425231933594 132.882080078125 2.369393825531006 137.4853973388672 82.72410583496094" stroke-width="3.0" fill="none" stroke="rgb(0, 0, 0)" stroke-opacity="1.0" stroke-linecap="round" stroke-linejoin="round"/>
    <path d="M 143.03195190429688 92.75586700439453 C 132.45730590820312 107.26180267333984 131.49703979492188 106.03851318359375 118.00469970703125 103.747314453125" stroke-width="3.0" fill="none" stroke="rgb(0, 0, 0)" stroke-opacity="1.0" stroke-linecap="round" stroke-linejoin="round"/>
    <path d="M 136.18406677246094 80.6401138305664 C 138.91299438476562 54.90471267700195 132.32223510742188 63.39004135131836 136.45323181152344 71.13728332519531" stroke-width="3.0" fill="none" stroke="rgb(0, 0, 0)" stroke-opacity="1.0" stroke-linecap="round" stroke-linejoin="round"/>
    <path d="M 137.67990112304688 170.53993225097656 C 126.7506103515625 178.5986785888672 142.15164184570312 174.68109130859375 146.2558135986328 146.72689819335938" stroke-width="3.0" fill="none" stroke="rgb(0, 0, 0)" stroke-opacity="1.0" stroke-linecap="round" stroke-linejoin="round"/>
    <path d="M 196.5522918701172 95.80178833007812 C 164.73094177246094 73.97796630859375 163.6620330810547 82.34761047363281 190.49595642089844 92.8685531616211" stroke-width="3.0" fill="none" stroke="rgb(0, 0, 0)" stroke-opacity="1.0" stroke-linecap="round" stroke-linejoin="round"/>
    <path d="M 153.52574157714844 74.74850463867188 C 118.35464477539062 58.721736907958984 201.40890502929688 79.40159606933594 179.3551788330078 67.42813110351562" stroke-width="3.0" fill="none" stroke="rgb(0, 0, 0)" stroke-opacity="1.0" stroke-linecap="round" stroke-linejoin="round"/>
    <path d="M 112.49944305419922 81.8398208618164 C 94.70293426513672 71.6366195678711 136.36312866210938 78.91012573242188 111.08367919921875 82.24398040771484" stroke-width="3.0" fill="none" stroke="rgb(0, 0, 0)" stroke-opacity="1.0" stroke-linecap="round" stroke-linejoin="round"/>
    <path d="M 165.9111328125 128.6986083984375 C 149.17843627929688 157.2852020263672 114.15897369384766 149.58348083496094 97.26657104492188 153.83541870117188" stroke-width="3.0" fill="none" stroke="rgb(0, 0, 0)" stroke-opacity="1.0" stroke-linecap="round" stroke-linejoin="round"/>
    <path d="M 123.12601470947266 88.90071105957031 C 137.41493225097656 101.92823028564453 126.4598159790039 70.91178131103516 127.9166488647461 106.20575714111328" stroke-width="3.0" fill="none" stroke="rgb(0, 0, 0)" stroke-opacity="1.0" stroke-linecap="round" stroke-linejoin="round"/>
    <path d="M 186.8241729736328 112.51834106445312 C 168.5205535888672 86.42425537109375 185.42306518554688 88.4910888671875 152.21035766601562 91.68882751464844" stroke-width="3.0" fill="none" stroke="rgb(0, 0, 0)" stroke-opacity="1.0" stroke-linecap="round" stroke-linejoin="round"/>
    <path d="M 86.8903579711914 8.222177505493164 C 106.01472473144531 14.206120491027832 116.92938995361328 34.8448486328125 130.77696228027344 26.372106552124023" stroke-width="3.0" fill="none" stroke="rgb(0, 0, 0)" stroke-opacity="1.0" stroke-linecap="round" stroke-linejoin="round"/>
    <path d="M 58.28452682495117 119.83589935302734 C 56.55621337890625 116.87806701660156 63.99080276489258 126.13446807861328 68.68719482421875 136.67959594726562" stroke-width="3.0" fill="none" stroke="rgb(0, 0, 0)" stroke-opacity="1.0" stroke-linecap="round" stroke-linejoin="round"/>
    <path d="M 128.5157012939453 103.85889434814453 C 135.84547424316406 91.68073272705078 117.90489196777344 122.14767456054688 108.36116027832031 91.66236877441406" stroke-width="3.0" fill="none" stroke="rgb(0, 0, 0)" stroke-opacity="1.0" stroke-linecap="round" stroke-linejoin="round"/>
    <path d="M 32.48066329956055 130.8701934814453 C 29.86528778076172 105.01874542236328 36.48094177246094 97.35275268554688 52.42543029785156 74.20143127441406" stroke-width="3.0" fill="none" stroke="rgb(0, 0, 0)" stroke-opacity="1.0" stroke-linecap="round" stroke-linejoin="round"/>
    <path d="M 82.54740905761719 196.99502563476562 C 67.65552520751953 193.57659912109375 68.02619934082031 196.212646484375 105.6920394897461 196.7065887451172" stroke-width="3.0" fill="none" stroke="rgb(0, 0, 0)" stroke-opacity="1.0" stroke-linecap="round" stroke-linejoin="round"/>
    <path d="M 166.29296875 130.79931640625 C 198.6096954345703 112.201904296875 179.33294677734375 96.1086196899414 153.46371459960938 92.48646545410156" stroke-width="3.0" fill="none" stroke="rgb(0, 0, 0)" stroke-opacity="1.0" stroke-linecap="round" stroke-linejoin="round"/>
    <path d="M 148.46041870117188 70.16875457763672 C 134.58009338378906 83.4291000366211 170.52467346191406 75.75312042236328 146.98416137695312 69.02569580078125" stroke-width="3.0" fill="none" stroke="rgb(0, 0, 0)" stroke-opacity="1.0" stroke-linecap="round" stroke-linejoin="round"/>
    <path d="M 138.62730407714844 72.42526245117188 C 147.31411743164062 39.646766662597656 197.07675170898438 111.78448486328125 177.33004760742188 41.85044479370117" stroke-width="3.0" fill="none" stroke="rgb(0, 0, 0)" stroke-opacity="1.0" stroke-linecap="round" stroke-linejoin="round"/>
    <path d="M 157.41990661621094 97.8277359008789 C 168.46351623535156 104.65148162841797 173.34817504882812 102.68730163574219 181.4390411376953 117.99616241455078" stroke-width="3.0" fill="none" stroke="rgb(0, 0, 0)" stroke-opacity="1.0" stroke-linecap="round" stroke-linejoin="round"/>
    <path d="M 174.4736785888672 17.45328712463379 C 163.58387756347656 40.731956481933594 176.87863159179688 24.450130462646484 159.4371337890625 34.09772491455078" stroke-width="3.0" fill="none" stroke="rgb(0, 0, 0)" stroke-opacity="1.0" stroke-linecap="round" stroke-linejoin="round"/>
    <path d="M 117.65056610107422 102.56805419921875 C 145.0680389404297 96.28864288330078 132.7001953125 108.41311645507812 120.93798065185547 104.16735076904297" stroke-width="3.0" fill="none" stroke="rgb(0, 0, 0)" stroke-opacity="1.0" stroke-linecap="round" stroke-linejoin="round"/>
    <path d="M 64.83446502685547 124.76646423339844 C 50.66807556152344 118.52386474609375 58.85260772705078 111.3515625 57.96415710449219 116.43534851074219" stroke-width="3.0" fill="none" stroke="rgb(0, 0, 0)" stroke-opacity="1.0" stroke-linecap="round" stroke-linejoin="round"/>
    <path d="M 124.21758270263672 73.30974578857422 C 131.39788818359375 37.29922866821289 123.67483520507812 53.17055130004883 126.27906799316406 29.569866180419922" stroke-width="3.0" fill="none" stroke="rgb(0, 0, 0)" stroke-opacity="1.0" stroke-linecap="round" stroke-linejoin="round"/>
    <path d="M 154.33175659179688 19.28902244567871 C 146.76144409179688 28.857681274414062 161.3002471923828 4.763890266418457 178.87832641601562 7.467131614685059" stroke-width="3.0" fill="none" stroke="rgb(0, 0, 0)" stroke-opacity="1.0" stroke-linecap="round" stroke-linejoin="round"/>
  </g>
</svg>
