<?xml version="1.0" ?>
<svg xmlns="http://www.w3.org/2000/svg" version="1.1" width="224" height="224">
  <defs/>
  <g>
    <path d="M 53.50526809692383 116.40886688232422 C 58.64277648925781 116.43962860107422 45.57244110107422 104.4821548461914 44.59438705444336 86.13894653320312" stroke-width="3.0" fill="none" stroke="rgb(0, 0, 0)" stroke-opacity="1.0" stroke-linecap="round" stroke-linejoin="round"/>
    <path d="M 179.49205017089844 127.21963500976562 C 177.01670837402344 116.04866027832031 184.535888671875 113.33389282226562 185.7248992919922 120.96369171142578" stroke-width="3.0" fill="none" stroke="rgb(0, 0, 0)" stroke-opacity="1.0" stroke-linecap="round" stroke-linejoin="round"/>
    <path d="M 53.80485534667969 115.25111389160156 C 54.63176727294922 106.89534759521484 48.98883819580078 107.40520477294922 55.6921272277832 121.15579223632812" stroke-width="3.0" fill="none" stroke="rgb(0, 0, 0)" stroke-opacity="1.0" stroke-linecap="round" stroke-linejoin="round"/>
    <path d="M 184.06289672851562 99.43344116210938 C 154.8280792236328 91.0206298828125 175.0738983154297 79.39097595214844 194.7638702392578 113.30219268798828" stroke-width="3.0" fill="none" stroke="rgb(0, 0, 0)" stroke-opacity="1.0" stroke-linecap="round" stroke-linejoin="round"/>
    <path d="M 175.09083557128906 73.7852783203125 C 179.032958984375 99.66044616699219 182.14617919921875 95.89533233642578 184.48550415039062 64.93473052978516" stroke-width="3.0" fill="none" stroke="rgb(0, 0, 0)" stroke-opacity="1.0" stroke-linecap="round" stroke-linejoin="round"/>
    <path d="M 127.81640625 104.83488464355469 C 143.81080627441406 107.13997650146484 97.69915008544922 99.97815704345703 140.8698272705078 101.0885009765625" stroke-width="3.0" fill="none" stroke="rgb(0, 0, 0)" stroke-opacity="1.0" stroke-linecap="round" stroke-linejoin="round"/>
    <path d="M 175.58624267578125 101.93406677246094 C 193.98487854003906 75.9035415649414 174.84437561035156 72.65113067626953 157.09716796875 87.07489776611328" stroke-width="3.0" fill="none" stroke="rgb(0, 0, 0)" stroke-opacity="1.0" stroke-linecap="round" stroke-linejoin="round"/>
    <path d="M 53.41886901855469 176.61062622070312 C 33.29866027832031 156.34164428710938 51.729339599609375 164.7940216064453 43.341129302978516 165.5435028076172" stroke-width="3.0" fill="none" stroke="rgb(0, 0, 0)" stroke-opacity="1.0" stroke-linecap="round" stroke-linejoin="round"/>
    <path d="M 64.30380249023438 191.06825256347656 C 85.95482635498047 205.45018005371094 110.41063690185547 197.64695739746094 114.12866973876953 191.7146759033203" stroke-width="3.0" fill="none" stroke="rgb(0, 0, 0)" stroke-opacity="1.0" stroke-linecap="round" stroke-linejoin="round"/>
    <path d="M 87.67688751220703 37.183135986328125 C 88.4733657836914 54.374244689941406 82.69048309326172 8.882667541503906 83.2078628540039 49.44860076904297" stroke-width="3.0" fill="none" stroke="rgb(0, 0, 0)" stroke-opacity="1.0" stroke-linecap="round" stroke-linejoin="round"/>
    <path d="M 57.413734436035156 126.0290756225586 C 65.03490447998047 139.95469665527344 92.9615249633789 148.63719177246094 93.03915405273438 154.3582763671875" stroke-width="3.0" fill="none" stroke="rgb(0, 0, 0)" stroke-opacity="1.0" stroke-linecap="round" stroke-linejoin="round"/>
    <path d="M 157.17071533203125 71.77761840820312 C 204.60943603515625 77.67803192138672 181.78042602539062 83.2715835571289 152.76998901367188 86.72147369384766" stroke-width="3.0" fill="none" stroke="rgb(0, 0, 0)" stroke-opacity="1.0" stroke-linecap="round" stroke-linejoin="round"/>
    <path d="M 146.9160919189453 96.04871368408203 C 174.33709716796875 103.38206481933594 178.83323669433594 100.59132385253906 187.60549926757812 110.06812286376953" stroke-width="3.0" fill="none" stroke="rgb(0, 0, 0)" stroke-opacity="1.0" stroke-linecap="round" stroke-linejoin="round"/>
    <path d="M 101.59180450439453 156.4581756591797 C 145.31802368164062 150.20359802246094 115.52876281738281 167.9845428466797 117.23675537109375 166.1377716064453" stroke-width="3.0" fill="none" stroke="rgb(0, 0, 0)" stroke-opacity="1.0" stroke-linecap="round" stroke-linejoin="round"/>
    <path d="M 173.04139709472656 10.769128799438477 C 192.2814178466797 -0.8626517653465271 173.79115295410156 57.92073059082031 183.21449279785156 56.87234878540039" stroke-width="3.0" fill="none" stroke="rgb(0, 0, 0)" stroke-opacity="1.0" stroke-linecap="round" stroke-linejoin="round"/>
    <path d="M 126.79751586914062 31.3280086517334 C 123.75624084472656 57.24845886230469 131.38792419433594 40.16520309448242 128.61895751953125 68.04153442382812" stroke-width="3.0" fill="none" stroke="rgb(0, 0, 0)" stroke-opacity="1.0" stroke-linecap="round" stroke-linejoin="round"/>
    <path d="M 89.21266174316406 46.4598388671875 C 74.69117736816406 -4.786986827850342 81.42292785644531 2.511098623275757 103.64028930664062 38.88378143310547" stroke-width="3.0" fill="none" stroke="rgb(0, 0, 0)" stroke-opacity="1.0" stroke-linecap="round" stroke-linejoin="round"/>
    <path d="M 43.281551361083984 162.86669921875 C 38.79519271850586 154.61611938476562 40.475528717041016 148.32875061035156 35.748085021972656 146.1221160888672" stroke-width="3.0" fill="none" stroke="rgb(0, 0, 0)" stroke-opacity="1.0" stroke-linecap="round" stroke-linejoin="round"/>
    <path d="M 34.34107971191406 107.8677978515625 C 25.33481216430664 131.9919891357422 34.977577209472656 143.15040588378906 42.85979461669922 154.5915985107422" stroke-width="3.0" fill="none" stroke="rgb(0, 0, 0)" stroke-opacity="1.0" stroke-linecap="round" stroke-linejoin="round"/>
    <path d="M 86.52672576904297 148.92234802246094 C 103.52793884277344 156.76283264160156 106.46211242675781 158.43801879882812 92.0776138305664 151.9411163330078" stroke-width="3.0" fill="none" stroke="rgb(0, 0, 0)" stroke-opacity="1.0" stroke-linecap="round" stroke-linejoin="round"/>
    <path d="M 73.60113525390625 197.07614135742188 C 53.568721771240234 184.2572784423828 58.96855545043945 185.10572814941406 46.99399185180664 172.40621948242188" stroke-width="3.0" fill="none" stroke="rgb(0, 0, 0)" stroke-opacity="1.0" stroke-linecap="round" stroke-linejoin="round"/>
    <path d="M 43.25966262817383 163.7367401123047 C 56.93181610107422 189.894287109375 40.91598892211914 164.66969299316406 38.07659912109375 151.35845947265625" stroke-width="3.0" fill="none" stroke="rgb(0, 0, 0)" stroke-opacity="1.0" stroke-linecap="round" stroke-linejoin="round"/>
    <path d="M 80.18646240234375 53.12281036376953 C 56.79395294189453 55.74280548095703 49.15827941894531 75.7173080444336 33.558082580566406 108.26817321777344" stroke-width="3.0" fill="none" stroke="rgb(0, 0, 0)" stroke-opacity="1.0" stroke-linecap="round" stroke-linejoin="round"/>
    <path d="M 151.93661499023438 143.8852996826172 C 137.69935607910156 156.34307861328125 121.10411071777344 153.871337890625 132.76951599121094 156.54832458496094" stroke-width="3.0" fill="none" stroke="rgb(0, 0, 0)" stroke-opacity="1.0" stroke-linecap="round" stroke-linejoin="round"/>
    <path d="M 134.16964721679688 31.51744842529297 C 144.27359008789062 69.40290832519531 131.45989990234375 51.91352844238281 142.00277709960938 78.12362670898438" stroke-width="3.0" fill="none" stroke="rgb(0, 0, 0)" stroke-opacity="1.0" stroke-linecap="round" stroke-linejoin="round"/>
    <path d="M 144.18641662597656 99.5245361328125 C 122.67414093017578 105.17264556884766 116.27960968017578 110.32286834716797 138.45428466796875 103.9901351928711" stroke-width="3.0" fill="none" stroke="rgb(0, 0, 0)" stroke-opacity="1.0" stroke-linecap="round" stroke-linejoin="round"/>
    <path d="M 135.4491729736328 80.49994659423828 C 145.7208251953125 52.04666519165039 140.83656311035156 58.20542907714844 137.28939819335938 68.3062515258789" stroke-width="3.0" fill="none" stroke="rgb(0, 0, 0)" stroke-opacity="1.0" stroke-linecap="round" stroke-linejoin="round"/>
    <path d="M 127.65716552734375 183.5739288330078 C 98.35964965820312 197.60121154785156 130.1446533203125 193.9188690185547 141.64939880371094 156.1240997314453" stroke-width="3.0" fill="none" stroke="rgb(0, 0, 0)" stroke-opacity="1.0" stroke-linecap="round" stroke-linejoin="round"/>
    <path d="M 191.54664611816406 95.12953186035156 C 162.34487915039062 71.16789245605469 138.87106323242188 94.31877899169922 185.44500732421875 81.39122772216797" stroke-width="3.0" fill="none" stroke="rgb(0, 0, 0)" stroke-opacity="1.0" stroke-linecap="round" stroke-linejoin="round"/>
    <path d="M 145.0474853515625 75.79633331298828 C 191.6736602783203 61.436763763427734 193.6430206298828 79.70193481445312 168.88656616210938 72.4892349243164" stroke-width="3.0" fill="none" stroke="rgb(0, 0, 0)" stroke-opacity="1.0" stroke-linecap="round" stroke-linejoin="round"/>
    <path d="M 109.5485610961914 76.78736114501953 C 88.18667602539062 70.15851593017578 134.86553955078125 74.3560562133789 106.0076675415039 79.20779418945312" stroke-width="3.0" fill="none" stroke="rgb(0, 0, 0)" stroke-opacity="1.0" stroke-linecap="round" stroke-linejoin="round"/>
    <path d="M 146.1034698486328 150.90859985351562 C 146.3621368408203 155.86805725097656 127.16284942626953 150.69210815429688 109.03125 157.7980194091797" stroke-width="3.0" fill="none" stroke="rgb(0, 0, 0)" stroke-opacity="1.0" stroke-linecap="round" stroke-linejoin="round"/>
    <path d="M 124.86309814453125 90.646484375 C 140.6366424560547 102.05767059326172 131.7393341064453 75.23426818847656 129.79733276367188 103.41278076171875" stroke-width="3.0" fill="none" stroke="rgb(0, 0, 0)" stroke-opacity="1.0" stroke-linecap="round" stroke-linejoin="round"/>
    <path d="M 188.9082794189453 110.1988754272461 C 185.03225708007812 82.87232971191406 182.78038024902344 96.64561462402344 139.39801025390625 85.16109466552734" stroke-width="3.0" fill="none" stroke="rgb(0, 0, 0)" stroke-opacity="1.0" stroke-linecap="round" stroke-linejoin="round"/>
    <path d="M 85.79458618164062 7.936570644378662 C 110.07080841064453 16.89501190185547 114.15996551513672 34.941505432128906 121.56523895263672 30.636045455932617" stroke-width="3.0" fill="none" stroke="rgb(0, 0, 0)" stroke-opacity="1.0" stroke-linecap="round" stroke-linejoin="round"/>
    <path d="M 53.77761459350586 115.7010498046875 C 51.66132736206055 107.17601013183594 57.68069839477539 121.95594024658203 55.753074645996094 121.37296295166016" stroke-width="3.0" fill="none" stroke="rgb(0, 0, 0)" stroke-opacity="1.0" stroke-linecap="round" stroke-linejoin="round"/>
    <path d="M 114.17345428466797 100.03843688964844 C 108.44657897949219 85.22207641601562 112.86002349853516 112.10259246826172 105.67193603515625 87.52255249023438" stroke-width="3.0" fill="none" stroke="rgb(0, 0, 0)" stroke-opacity="1.0" stroke-linecap="round" stroke-linejoin="round"/>
    <path d="M 31.602792739868164 132.0213623046875 C 28.70289421081543 113.12260437011719 36.11866760253906 103.11593627929688 31.424394607543945 116.50373840332031" stroke-width="3.0" fill="none" stroke="rgb(0, 0, 0)" stroke-opacity="1.0" stroke-linecap="round" stroke-linejoin="round"/>
    <path d="M 84.20016479492188 197.40318298339844 C 73.81221771240234 196.57383728027344 69.7887954711914 199.003173828125 96.00900268554688 199.53518676757812" stroke-width="3.0" fill="none" stroke="rgb(0, 0, 0)" stroke-opacity="1.0" stroke-linecap="round" stroke-linejoin="round"/>
    <path d="M 152.83984375 142.10992431640625 C 208.12538146972656 111.35692596435547 179.1680908203125 98.85482788085938 150.224609375 92.49803161621094" stroke-width="3.0" fill="none" stroke="rgb(0, 0, 0)" stroke-opacity="1.0" stroke-linecap="round" stroke-linejoin="round"/>
    <path d="M 157.09446716308594 75.41839599609375 C 121.40794372558594 82.54056549072266 177.47723388671875 81.94281768798828 147.70501708984375 69.44120788574219" stroke-width="3.0" fill="none" stroke="rgb(0, 0, 0)" stroke-opacity="1.0" stroke-linecap="round" stroke-linejoin="round"/>
    <path d="M 140.56179809570312 76.01268005371094 C 147.5071258544922 48.84716796875 190.9386749267578 103.78594207763672 180.17337036132812 52.511539459228516" stroke-width="3.0" fill="none" stroke="rgb(0, 0, 0)" stroke-opacity="1.0" stroke-linecap="round" stroke-linejoin="round"/>
    <path d="M 150.65182495117188 99.27001190185547 C 158.94947814941406 103.68507385253906 170.88482666015625 112.51158905029297 183.6272430419922 116.02831268310547" stroke-width="3.0" fill="none" stroke="rgb(0, 0, 0)" stroke-opacity="1.0" stroke-linecap="round" stroke-linejoin="round"/>
    <path d="M 177.4973907470703 14.166630744934082 C 170.21194458007812 43.90043640136719 174.24513244628906 28.14910888671875 162.8665771484375 37.5667724609375" stroke-width="3.0" fill="none" stroke="rgb(0, 0, 0)" stroke-opacity="1.0" stroke-linecap="round" stroke-linejoin="round"/>
    <path d="M 127.96869659423828 105.298583984375 C 140.7134246826172 103.71308898925781 131.9346160888672 112.82852935791016 111.9487075805664 96.9937973022461" stroke-width="3.0" fill="none" stroke="rgb(0, 0, 0)" stroke-opacity="1.0" stroke-linecap="round" stroke-linejoin="round"/>
    <path d="M 53.02345657348633 115.01174926757812 C 56.02000427246094 113.55281829833984 48.86637496948242 107.89030456542969 60.43193054199219 128.9853057861328" stroke-width="3.0" fill="none" stroke="rgb(0, 0, 0)" stroke-opacity="1.0" stroke-linecap="round" stroke-linejoin="round"/>
    <path d="M 123.75286102294922 75.1751708984375 C 124.17388153076172 48.99274444580078 119.81050872802734 51.950767517089844 121.21956634521484 33.25360107421875" stroke-width="3.0" fill="none" stroke="rgb(0, 0, 0)" stroke-opacity="1.0" stroke-linecap="round" stroke-linejoin="round"/>
    <path d="M 142.18251037597656 32.358272552490234 C 144.5022735595703 40.46000289916992 149.7266082763672 15.5738525390625 178.67237854003906 8.366791725158691" stroke-width="3.0" fill="none" stroke="rgb(0, 0, 0)" stroke-opacity="1.0" stroke-linecap="round" stroke-linejoin="round"/>
  </g>
</svg>
