<?xml version="1.0" ?>
<svg xmlns="http://www.w3.org/2000/svg" version="1.1" width="224" height="224">
  <defs/>
  <g>
    <path d="M 65.06681823730469 80.4872055053711 C 66.28471374511719 83.0783462524414 67.52369689941406 82.84152221679688 55.8609504699707 70.86588287353516" stroke-width="3.0" fill="none" stroke="rgb(0, 0, 0)" stroke-opacity="1.0" stroke-linecap="round" stroke-linejoin="round"/>
    <path d="M 185.50672912597656 121.1721420288086 C 179.5872344970703 115.94107055664062 197.22267150878906 93.63790130615234 176.588623046875 126.5600814819336" stroke-width="3.0" fill="none" stroke="rgb(0, 0, 0)" stroke-opacity="1.0" stroke-linecap="round" stroke-linejoin="round"/>
    <path d="M 59.63243103027344 124.7989730834961 C 48.08687973022461 109.81155395507812 47.28969192504883 119.1306381225586 74.2549057006836 129.93675231933594" stroke-width="3.0" fill="none" stroke="rgb(0, 0, 0)" stroke-opacity="1.0" stroke-linecap="round" stroke-linejoin="round"/>
    <path d="M 187.42694091796875 100.03834533691406 C 152.7402801513672 84.97779846191406 172.68775939941406 84.55975341796875 196.32566833496094 112.55828094482422" stroke-width="3.0" fill="none" stroke="rgb(0, 0, 0)" stroke-opacity="1.0" stroke-linecap="round" stroke-linejoin="round"/>
    <path d="M 181.03115844726562 62.55680465698242 C 176.52194213867188 108.1102523803711 183.31100463867188 96.71377563476562 184.04806518554688 60.62043762207031" stroke-width="3.0" fill="none" stroke="rgb(0, 0, 0)" stroke-opacity="1.0" stroke-linecap="round" stroke-linejoin="round"/>
    <path d="M 123.48294830322266 102.73968505859375 C 147.37474060058594 113.94969177246094 100.78816223144531 97.20390319824219 134.52908325195312 101.88915252685547" stroke-width="3.0" fill="none" stroke="rgb(0, 0, 0)" stroke-opacity="1.0" stroke-linecap="round" stroke-linejoin="round"/>
    <path d="M 171.36114501953125 97.50749206542969 C 190.321044921875 85.52046203613281 178.57281494140625 71.32752227783203 160.5570068359375 87.86962890625" stroke-width="3.0" fill="none" stroke="rgb(0, 0, 0)" stroke-opacity="1.0" stroke-linecap="round" stroke-linejoin="round"/>
    <path d="M 56.47500228881836 183.13975524902344 C 38.592220306396484 154.8647918701172 47.27018356323242 166.9635772705078 49.7591552734375 173.75868225097656" stroke-width="3.0" fill="none" stroke="rgb(0, 0, 0)" stroke-opacity="1.0" stroke-linecap="round" stroke-linejoin="round"/>
    <path d="M 58.1281852722168 183.55177307128906 C 86.37635040283203 209.79867553710938 116.44554138183594 196.53794860839844 133.15777587890625 181.3992462158203" stroke-width="3.0" fill="none" stroke="rgb(0, 0, 0)" stroke-opacity="1.0" stroke-linecap="round" stroke-linejoin="round"/>
    <path d="M 85.82286071777344 32.77309036254883 C 103.71792602539062 66.24858856201172 83.68082427978516 19.642284393310547 87.31861114501953 51.300296783447266" stroke-width="3.0" fill="none" stroke="rgb(0, 0, 0)" stroke-opacity="1.0" stroke-linecap="round" stroke-linejoin="round"/>
    <path d="M 54.66901397705078 115.64681243896484 C 58.85928726196289 135.77658081054688 97.42730712890625 161.78311157226562 97.07254028320312 155.95021057128906" stroke-width="3.0" fill="none" stroke="rgb(0, 0, 0)" stroke-opacity="1.0" stroke-linecap="round" stroke-linejoin="round"/>
    <path d="M 144.12820434570312 75.06764221191406 C 203.39280700683594 62.21566390991211 186.01495361328125 82.02098083496094 151.93222045898438 86.95980072021484" stroke-width="3.0" fill="none" stroke="rgb(0, 0, 0)" stroke-opacity="1.0" stroke-linecap="round" stroke-linejoin="round"/>
    <path d="M 151.09576416015625 96.6697006225586 C 180.50537109375 101.75760650634766 177.00222778320312 103.34700775146484 191.99459838867188 114.13908386230469" stroke-width="3.0" fill="none" stroke="rgb(0, 0, 0)" stroke-opacity="1.0" stroke-linecap="round" stroke-linejoin="round"/>
    <path d="M 121.97191619873047 156.68951416015625 C 144.4518280029297 145.1711883544922 118.49636840820312 162.74716186523438 121.9382095336914 152.885009765625" stroke-width="3.0" fill="none" stroke="rgb(0, 0, 0)" stroke-opacity="1.0" stroke-linecap="round" stroke-linejoin="round"/>
    <path d="M 178.14779663085938 10.197505950927734 C 190.36285400390625 19.900190353393555 175.5849151611328 61.62666320800781 179.96128845214844 49.764957427978516" stroke-width="3.0" fill="none" stroke="rgb(0, 0, 0)" stroke-opacity="1.0" stroke-linecap="round" stroke-linejoin="round"/>
    <path d="M 129.8367919921875 31.457008361816406 C 123.23947143554688 54.60197830200195 132.404296875 33.54133605957031 125.84552001953125 67.8610610961914" stroke-width="3.0" fill="none" stroke="rgb(0, 0, 0)" stroke-opacity="1.0" stroke-linecap="round" stroke-linejoin="round"/>
    <path d="M 92.1610336303711 48.82539367675781 C 74.11332702636719 -3.935274600982666 84.48431396484375 0.7103990912437439 106.80672454833984 41.91564178466797" stroke-width="3.0" fill="none" stroke="rgb(0, 0, 0)" stroke-opacity="1.0" stroke-linecap="round" stroke-linejoin="round"/>
    <path d="M 44.91844177246094 162.2677764892578 C 39.10137939453125 154.54296875 40.18386459350586 146.0800323486328 41.70823287963867 159.15267944335938" stroke-width="3.0" fill="none" stroke="rgb(0, 0, 0)" stroke-opacity="1.0" stroke-linecap="round" stroke-linejoin="round"/>
    <path d="M 34.64332962036133 100.82613372802734 C 23.481719970703125 126.89168548583984 37.91861343383789 145.76766967773438 40.09312057495117 152.35484313964844" stroke-width="3.0" fill="none" stroke="rgb(0, 0, 0)" stroke-opacity="1.0" stroke-linecap="round" stroke-linejoin="round"/>
    <path d="M 92.15162658691406 150.61497497558594 C 101.50908660888672 159.04010009765625 115.08170318603516 147.4937744140625 106.31110382080078 159.14051818847656" stroke-width="3.0" fill="none" stroke="rgb(0, 0, 0)" stroke-opacity="1.0" stroke-linecap="round" stroke-linejoin="round"/>
    <path d="M 82.08006286621094 198.0753173828125 C 67.72205352783203 200.89723205566406 52.48234558105469 177.0371551513672 49.13839340209961 173.06626892089844" stroke-width="3.0" fill="none" stroke="rgb(0, 0, 0)" stroke-opacity="1.0" stroke-linecap="round" stroke-linejoin="round"/>
    <path d="M 45.82316589355469 164.96209716796875 C 57.73274612426758 194.74432373046875 45.38949203491211 162.98683166503906 36.76893615722656 143.77430725097656" stroke-width="3.0" fill="none" stroke="rgb(0, 0, 0)" stroke-opacity="1.0" stroke-linecap="round" stroke-linejoin="round"/>
    <path d="M 82.15391540527344 54.756813049316406 C 56.62860870361328 58.41786575317383 48.846290588378906 71.62973022460938 32.391693115234375 105.87678527832031" stroke-width="3.0" fill="none" stroke="rgb(0, 0, 0)" stroke-opacity="1.0" stroke-linecap="round" stroke-linejoin="round"/>
    <path d="M 147.875732421875 140.99961853027344 C 126.81745910644531 158.68624877929688 120.29862976074219 150.96107482910156 129.5205535888672 152.9576873779297" stroke-width="3.0" fill="none" stroke="rgb(0, 0, 0)" stroke-opacity="1.0" stroke-linecap="round" stroke-linejoin="round"/>
    <path d="M 137.72921752929688 31.941741943359375 C 147.0958709716797 61.6788215637207 136.810546875 54.92390441894531 137.08657836914062 78.17256164550781" stroke-width="3.0" fill="none" stroke="rgb(0, 0, 0)" stroke-opacity="1.0" stroke-linecap="round" stroke-linejoin="round"/>
    <path d="M 145.9081573486328 99.29558563232422 C 117.4737548828125 110.6756591796875 138.73045349121094 108.07443237304688 139.5970458984375 104.33295440673828" stroke-width="3.0" fill="none" stroke="rgb(0, 0, 0)" stroke-opacity="1.0" stroke-linecap="round" stroke-linejoin="round"/>
    <path d="M 136.53558349609375 74.978271484375 C 143.83021545410156 55.36283493041992 131.74252319335938 58.98780059814453 135.97149658203125 72.82853698730469" stroke-width="3.0" fill="none" stroke="rgb(0, 0, 0)" stroke-opacity="1.0" stroke-linecap="round" stroke-linejoin="round"/>
    <path d="M 135.29275512695312 176.0414276123047 C 127.78372192382812 186.68569946289062 138.84449768066406 179.668701171875 142.0985870361328 149.73460388183594" stroke-width="3.0" fill="none" stroke="rgb(0, 0, 0)" stroke-opacity="1.0" stroke-linecap="round" stroke-linejoin="round"/>
    <path d="M 194.90660095214844 95.4652328491211 C 172.73410034179688 72.85990142822266 158.38941955566406 82.19563293457031 181.6927032470703 87.69976043701172" stroke-width="3.0" fill="none" stroke="rgb(0, 0, 0)" stroke-opacity="1.0" stroke-linecap="round" stroke-linejoin="round"/>
    <path d="M 149.65846252441406 78.60459899902344 C 160.27703857421875 62.96150588989258 200.24310302734375 80.25811767578125 179.40036010742188 67.04759216308594" stroke-width="3.0" fill="none" stroke="rgb(0, 0, 0)" stroke-opacity="1.0" stroke-linecap="round" stroke-linejoin="round"/>
    <path d="M 114.52711486816406 81.76949310302734 C 83.07769775390625 79.1504135131836 135.25131225585938 74.27914428710938 111.50399017333984 80.26895141601562" stroke-width="3.0" fill="none" stroke="rgb(0, 0, 0)" stroke-opacity="1.0" stroke-linecap="round" stroke-linejoin="round"/>
    <path d="M 154.05081176757812 136.4256134033203 C 132.38047790527344 168.52450561523438 108.26880645751953 145.2589874267578 99.7177734375 159.68045043945312" stroke-width="3.0" fill="none" stroke="rgb(0, 0, 0)" stroke-opacity="1.0" stroke-linecap="round" stroke-linejoin="round"/>
    <path d="M 124.25489044189453 90.6805191040039 C 144.28294372558594 101.1656265258789 131.9901580810547 73.5653305053711 129.6077423095703 105.7303237915039" stroke-width="3.0" fill="none" stroke="rgb(0, 0, 0)" stroke-opacity="1.0" stroke-linecap="round" stroke-linejoin="round"/>
    <path d="M 190.27761840820312 110.62435913085938 C 182.10171508789062 81.65056610107422 189.7042999267578 94.95813751220703 142.59854125976562 85.5005111694336" stroke-width="3.0" fill="none" stroke="rgb(0, 0, 0)" stroke-opacity="1.0" stroke-linecap="round" stroke-linejoin="round"/>
    <path d="M 86.33260345458984 8.95020580291748 C 101.16171264648438 13.747435569763184 114.2901840209961 34.4377555847168 118.03742218017578 32.000980377197266" stroke-width="3.0" fill="none" stroke="rgb(0, 0, 0)" stroke-opacity="1.0" stroke-linecap="round" stroke-linejoin="round"/>
    <path d="M 60.447208404541016 124.90119934082031 C 55.50014114379883 115.62328338623047 60.92610549926758 135.69212341308594 58.58727264404297 120.6989517211914" stroke-width="3.0" fill="none" stroke="rgb(0, 0, 0)" stroke-opacity="1.0" stroke-linecap="round" stroke-linejoin="round"/>
    <path d="M 137.4331817626953 105.02407836914062 C 119.5095443725586 93.65447998046875 122.95167541503906 113.76615905761719 113.24661254882812 88.91751861572266" stroke-width="3.0" fill="none" stroke="rgb(0, 0, 0)" stroke-opacity="1.0" stroke-linecap="round" stroke-linejoin="round"/>
    <path d="M 31.676130294799805 131.9007568359375 C 28.912689208984375 110.29312896728516 38.36489486694336 109.42828369140625 41.427581787109375 91.3760986328125" stroke-width="3.0" fill="none" stroke="rgb(0, 0, 0)" stroke-opacity="1.0" stroke-linecap="round" stroke-linejoin="round"/>
    <path d="M 81.79859924316406 197.1980743408203 C 70.37825012207031 196.126708984375 67.16165924072266 194.15841674804688 91.67115783691406 199.2792510986328" stroke-width="3.0" fill="none" stroke="rgb(0, 0, 0)" stroke-opacity="1.0" stroke-linecap="round" stroke-linejoin="round"/>
    <path d="M 155.204345703125 134.47061157226562 C 206.69610595703125 116.59331512451172 180.9293670654297 96.0566177368164 158.1707305908203 92.40107727050781" stroke-width="3.0" fill="none" stroke="rgb(0, 0, 0)" stroke-opacity="1.0" stroke-linecap="round" stroke-linejoin="round"/>
    <path d="M 158.19613647460938 73.17974090576172 C 123.25066375732422 83.17977905273438 176.4898223876953 82.40927124023438 147.12612915039062 71.91582489013672" stroke-width="3.0" fill="none" stroke="rgb(0, 0, 0)" stroke-opacity="1.0" stroke-linecap="round" stroke-linejoin="round"/>
    <path d="M 141.56272888183594 81.17900848388672 C 148.2580108642578 40.45710372924805 190.8438262939453 111.1541748046875 180.285400390625 43.23810958862305" stroke-width="3.0" fill="none" stroke="rgb(0, 0, 0)" stroke-opacity="1.0" stroke-linecap="round" stroke-linejoin="round"/>
    <path d="M 158.0233154296875 99.33079528808594 C 166.30963134765625 103.90473937988281 170.16781616210938 103.68647003173828 183.4658203125 115.50048065185547" stroke-width="3.0" fill="none" stroke="rgb(0, 0, 0)" stroke-opacity="1.0" stroke-linecap="round" stroke-linejoin="round"/>
    <path d="M 178.33084106445312 17.000957489013672 C 170.38999938964844 44.71921157836914 176.67861938476562 21.833982467651367 161.06069946289062 38.19667434692383" stroke-width="3.0" fill="none" stroke="rgb(0, 0, 0)" stroke-opacity="1.0" stroke-linecap="round" stroke-linejoin="round"/>
    <path d="M 120.75711059570312 102.17407989501953 C 144.5828399658203 103.39503479003906 131.8251953125 113.04399871826172 119.45626831054688 103.5627212524414" stroke-width="3.0" fill="none" stroke="rgb(0, 0, 0)" stroke-opacity="1.0" stroke-linecap="round" stroke-linejoin="round"/>
    <path d="M 73.55944061279297 129.33753967285156 C 44.126644134521484 115.6013412475586 55.49664306640625 112.2254409790039 60.769283294677734 126.03949737548828" stroke-width="3.0" fill="none" stroke="rgb(0, 0, 0)" stroke-opacity="1.0" stroke-linecap="round" stroke-linejoin="round"/>
    <path d="M 125.28093719482422 74.43930053710938 C 126.71785736083984 36.00266647338867 119.84444427490234 56.50039291381836 123.22711181640625 32.4410514831543" stroke-width="3.0" fill="none" stroke="rgb(0, 0, 0)" stroke-opacity="1.0" stroke-linecap="round" stroke-linejoin="round"/>
    <path d="M 146.69129943847656 32.00897979736328 C 143.4990234375 38.55453109741211 157.33384704589844 10.044832229614258 177.92657470703125 9.371119499206543" stroke-width="3.0" fill="none" stroke="rgb(0, 0, 0)" stroke-opacity="1.0" stroke-linecap="round" stroke-linejoin="round"/>
  </g>
</svg>
