<?xml version="1.0" ?>
<svg xmlns="http://www.w3.org/2000/svg" version="1.1" width="224" height="224">
  <defs/>
  <g>
    <path d="M 59.924041748046875 94.85577392578125 C 63.35791015625 84.04261016845703 54.946533203125 78.872314453125 72.25591278076172 59.13056564331055" stroke-width="3.0" fill="none" stroke="rgb(0, 0, 0)" stroke-opacity="1.0" stroke-linecap="round" stroke-linejoin="round"/>
    <path d="M 197.06240844726562 114.79119873046875 C 184.6473388671875 102.04962158203125 194.9688720703125 99.0237808227539 178.92140197753906 128.06324768066406" stroke-width="3.0" fill="none" stroke="rgb(0, 0, 0)" stroke-opacity="1.0" stroke-linecap="round" stroke-linejoin="round"/>
    <path d="M 59.73723220825195 119.32075500488281 C 50.20589065551758 88.53888702392578 59.81852722167969 114.79967498779297 61.471195220947266 114.18130493164062" stroke-width="3.0" fill="none" stroke="rgb(0, 0, 0)" stroke-opacity="1.0" stroke-linecap="round" stroke-linejoin="round"/>
    <path d="M 185.45469665527344 94.14686584472656 C 151.31158447265625 73.64004516601562 182.20204162597656 75.31231689453125 187.79647827148438 98.33335876464844" stroke-width="3.0" fill="none" stroke="rgb(0, 0, 0)" stroke-opacity="1.0" stroke-linecap="round" stroke-linejoin="round"/>
    <path d="M 177.0956268310547 47.590415954589844 C 192.68865966796875 91.5301742553711 181.0242156982422 100.11589813232422 180.6030731201172 55.0579719543457" stroke-width="3.0" fill="none" stroke="rgb(0, 0, 0)" stroke-opacity="1.0" stroke-linecap="round" stroke-linejoin="round"/>
    <path d="M 130.99501037597656 98.46067810058594 C 149.07626342773438 112.36760711669922 96.36991882324219 100.23762512207031 135.08396911621094 102.52108001708984" stroke-width="3.0" fill="none" stroke="rgb(0, 0, 0)" stroke-opacity="1.0" stroke-linecap="round" stroke-linejoin="round"/>
    <path d="M 184.6945343017578 89.63565063476562 C 170.2439422607422 88.3688735961914 186.6531524658203 71.24359130859375 150.65240478515625 86.73507690429688" stroke-width="3.0" fill="none" stroke="rgb(0, 0, 0)" stroke-opacity="1.0" stroke-linecap="round" stroke-linejoin="round"/>
    <path d="M 65.60014343261719 192.07444763183594 C 41.32127380371094 169.0998077392578 44.703853607177734 168.8874053955078 62.682804107666016 189.2729034423828" stroke-width="3.0" fill="none" stroke="rgb(0, 0, 0)" stroke-opacity="1.0" stroke-linecap="round" stroke-linejoin="round"/>
    <path d="M 55.32161331176758 184.23458862304688 C 83.95690155029297 213.1880340576172 136.31695556640625 197.33224487304688 138.3003387451172 162.36233520507812" stroke-width="3.0" fill="none" stroke="rgb(0, 0, 0)" stroke-opacity="1.0" stroke-linecap="round" stroke-linejoin="round"/>
    <path d="M 81.80801391601562 12.824694633483887 C 94.24021911621094 78.23924255371094 86.52676391601562 11.618339538574219 83.3484878540039 51.217491149902344" stroke-width="3.0" fill="none" stroke="rgb(0, 0, 0)" stroke-opacity="1.0" stroke-linecap="round" stroke-linejoin="round"/>
    <path d="M 59.60807418823242 91.95174407958984 C 46.57997512817383 126.95757293701172 76.955322265625 132.07090759277344 59.33559036254883 120.19953155517578" stroke-width="3.0" fill="none" stroke="rgb(0, 0, 0)" stroke-opacity="1.0" stroke-linecap="round" stroke-linejoin="round"/>
    <path d="M 145.6756134033203 73.96165466308594 C 195.7554168701172 61.561763763427734 205.95057678222656 88.11582946777344 139.74636840820312 85.91508483886719" stroke-width="3.0" fill="none" stroke="rgb(0, 0, 0)" stroke-opacity="1.0" stroke-linecap="round" stroke-linejoin="round"/>
    <path d="M 149.2083282470703 97.35095977783203 C 189.83474731445312 98.18917083740234 175.6306610107422 99.495849609375 188.02774047851562 112.48112487792969" stroke-width="3.0" fill="none" stroke="rgb(0, 0, 0)" stroke-opacity="1.0" stroke-linecap="round" stroke-linejoin="round"/>
    <path d="M 122.20040893554688 155.35159301757812 C 174.82089233398438 157.1905975341797 98.33788299560547 147.3992462158203 98.83143615722656 153.52099609375" stroke-width="3.0" fill="none" stroke="rgb(0, 0, 0)" stroke-opacity="1.0" stroke-linecap="round" stroke-linejoin="round"/>
    <path d="M 178.9663848876953 9.003643035888672 C 190.60494995117188 15.84190559387207 167.2434539794922 91.48394012451172 184.56884765625 60.451480865478516" stroke-width="3.0" fill="none" stroke="rgb(0, 0, 0)" stroke-opacity="1.0" stroke-linecap="round" stroke-linejoin="round"/>
    <path d="M 148.09164428710938 28.411298751831055 C 108.0080795288086 29.206342697143555 133.40902709960938 24.09303855895996 131.49085998535156 64.66112518310547" stroke-width="3.0" fill="none" stroke="rgb(0, 0, 0)" stroke-opacity="1.0" stroke-linecap="round" stroke-linejoin="round"/>
    <path d="M 105.18319702148438 47.3726806640625 C 64.96451568603516 -8.395389556884766 84.1709213256836 2.4876255989074707 119.91130065917969 33.56072235107422" stroke-width="3.0" fill="none" stroke="rgb(0, 0, 0)" stroke-opacity="1.0" stroke-linecap="round" stroke-linejoin="round"/>
    <path d="M 41.4742546081543 159.09689331054688 C 42.42439651489258 161.2936248779297 39.60323715209961 157.44625854492188 50.22450256347656 174.7469940185547" stroke-width="3.0" fill="none" stroke="rgb(0, 0, 0)" stroke-opacity="1.0" stroke-linecap="round" stroke-linejoin="round"/>
    <path d="M 59.546138763427734 64.03036499023438 C 16.864377975463867 119.5244140625 38.684730529785156 140.003173828125 44.86198806762695 162.26016235351562" stroke-width="3.0" fill="none" stroke="rgb(0, 0, 0)" stroke-opacity="1.0" stroke-linecap="round" stroke-linejoin="round"/>
    <path d="M 68.92171478271484 133.3645477294922 C 137.0128631591797 169.15318298339844 110.2785415649414 149.3784637451172 88.81999969482422 143.6580810546875" stroke-width="3.0" fill="none" stroke="rgb(0, 0, 0)" stroke-opacity="1.0" stroke-linecap="round" stroke-linejoin="round"/>
    <path d="M 84.21515655517578 198.4619903564453 C 66.8280029296875 198.88768005371094 47.60194778442383 176.23077392578125 37.96995544433594 149.2273406982422" stroke-width="3.0" fill="none" stroke="rgb(0, 0, 0)" stroke-opacity="1.0" stroke-linecap="round" stroke-linejoin="round"/>
    <path d="M 47.076839447021484 170.0281982421875 C 67.5880126953125 203.53416442871094 50.3129997253418 174.3444366455078 39.05522155761719 146.2703399658203" stroke-width="3.0" fill="none" stroke="rgb(0, 0, 0)" stroke-opacity="1.0" stroke-linecap="round" stroke-linejoin="round"/>
    <path d="M 79.25570678710938 55.20722198486328 C 59.24067306518555 55.9301643371582 62.77851104736328 66.88520812988281 36.08496856689453 110.26718139648438" stroke-width="3.0" fill="none" stroke="rgb(0, 0, 0)" stroke-opacity="1.0" stroke-linecap="round" stroke-linejoin="round"/>
    <path d="M 144.95941162109375 143.5754852294922 C 114.33970642089844 160.7530517578125 75.21521759033203 150.51708984375 141.5838165283203 150.3988800048828" stroke-width="3.0" fill="none" stroke="rgb(0, 0, 0)" stroke-opacity="1.0" stroke-linecap="round" stroke-linejoin="round"/>
    <path d="M 148.60052490234375 29.519277572631836 C 143.66641235351562 38.11296844482422 139.39268493652344 12.033860206604004 135.92466735839844 75.28217315673828" stroke-width="3.0" fill="none" stroke="rgb(0, 0, 0)" stroke-opacity="1.0" stroke-linecap="round" stroke-linejoin="round"/>
    <path d="M 145.27236938476562 99.8266372680664 C 129.51455688476562 111.7367172241211 124.25373077392578 104.51174926757812 117.65185546875 103.60839080810547" stroke-width="3.0" fill="none" stroke="rgb(0, 0, 0)" stroke-opacity="1.0" stroke-linecap="round" stroke-linejoin="round"/>
    <path d="M 136.6745147705078 73.98457336425781 C 144.66156005859375 54.104454040527344 134.61740112304688 69.5960693359375 136.35794067382812 68.7169418334961" stroke-width="3.0" fill="none" stroke="rgb(0, 0, 0)" stroke-opacity="1.0" stroke-linecap="round" stroke-linejoin="round"/>
    <path d="M 137.9310760498047 166.0891876220703 C 135.678466796875 170.42454528808594 141.69833374023438 164.16891479492188 146.09339904785156 144.2226104736328" stroke-width="3.0" fill="none" stroke="rgb(0, 0, 0)" stroke-opacity="1.0" stroke-linecap="round" stroke-linejoin="round"/>
    <path d="M 195.20401000976562 95.19685363769531 C 160.20492553710938 67.5152359008789 183.0315704345703 61.446205139160156 181.44830322265625 95.9989242553711" stroke-width="3.0" fill="none" stroke="rgb(0, 0, 0)" stroke-opacity="1.0" stroke-linecap="round" stroke-linejoin="round"/>
    <path d="M 152.9498748779297 78.06269836425781 C 121.8742904663086 58.83170700073242 207.64234924316406 86.34992980957031 180.4595489501953 62.115726470947266" stroke-width="3.0" fill="none" stroke="rgb(0, 0, 0)" stroke-opacity="1.0" stroke-linecap="round" stroke-linejoin="round"/>
    <path d="M 114.34910583496094 82.15323638916016 C 90.13691711425781 72.4499740600586 137.12399291992188 74.92186737060547 109.68595123291016 82.61891174316406" stroke-width="3.0" fill="none" stroke="rgb(0, 0, 0)" stroke-opacity="1.0" stroke-linecap="round" stroke-linejoin="round"/>
    <path d="M 168.4402618408203 129.77528381347656 C 156.25125122070312 155.80377197265625 88.98486328125 150.17909240722656 95.40839385986328 147.6873016357422" stroke-width="3.0" fill="none" stroke="rgb(0, 0, 0)" stroke-opacity="1.0" stroke-linecap="round" stroke-linejoin="round"/>
    <path d="M 124.22595977783203 90.23170471191406 C 141.8479766845703 99.33588409423828 131.25833129882812 74.7324447631836 126.80968475341797 105.80282592773438" stroke-width="3.0" fill="none" stroke="rgb(0, 0, 0)" stroke-opacity="1.0" stroke-linecap="round" stroke-linejoin="round"/>
    <path d="M 187.18785095214844 108.87007904052734 C 171.74215698242188 88.97647857666016 167.83355712890625 95.80279541015625 145.7322540283203 87.10266876220703" stroke-width="3.0" fill="none" stroke="rgb(0, 0, 0)" stroke-opacity="1.0" stroke-linecap="round" stroke-linejoin="round"/>
    <path d="M 90.32123565673828 23.138961791992188 C 125.8935775756836 27.015491485595703 86.06367492675781 31.116161346435547 149.4640350341797 29.947288513183594" stroke-width="3.0" fill="none" stroke="rgb(0, 0, 0)" stroke-opacity="1.0" stroke-linecap="round" stroke-linejoin="round"/>
    <path d="M 55.95107650756836 106.51092529296875 C 60.51563262939453 95.2098388671875 52.72606658935547 116.02635192871094 70.20465087890625 136.4817352294922" stroke-width="3.0" fill="none" stroke="rgb(0, 0, 0)" stroke-opacity="1.0" stroke-linecap="round" stroke-linejoin="round"/>
    <path d="M 135.78111267089844 104.56407165527344 C 125.80546569824219 90.2998046875 122.11116027832031 123.62803649902344 112.02444458007812 89.87998962402344" stroke-width="3.0" fill="none" stroke="rgb(0, 0, 0)" stroke-opacity="1.0" stroke-linecap="round" stroke-linejoin="round"/>
    <path d="M 37.56280517578125 148.9268341064453 C 16.33631134033203 121.83023834228516 39.32456970214844 72.05506134033203 67.40678405761719 58.755157470703125" stroke-width="3.0" fill="none" stroke="rgb(0, 0, 0)" stroke-opacity="1.0" stroke-linecap="round" stroke-linejoin="round"/>
    <path d="M 98.30236053466797 200.3766632080078 C 86.1691665649414 197.50950622558594 79.99903869628906 203.12591552734375 110.62632751464844 197.03457641601562" stroke-width="3.0" fill="none" stroke="rgb(0, 0, 0)" stroke-opacity="1.0" stroke-linecap="round" stroke-linejoin="round"/>
    <path d="M 171.34979248046875 130.47227478027344 C 196.61131286621094 112.43085479736328 192.26837158203125 86.15286254882812 153.3871612548828 89.37822723388672" stroke-width="3.0" fill="none" stroke="rgb(0, 0, 0)" stroke-opacity="1.0" stroke-linecap="round" stroke-linejoin="round"/>
    <path d="M 159.38174438476562 69.95963287353516 C 128.53565979003906 81.8421630859375 166.884765625 82.86434936523438 153.29165649414062 72.4358901977539" stroke-width="3.0" fill="none" stroke="rgb(0, 0, 0)" stroke-opacity="1.0" stroke-linecap="round" stroke-linejoin="round"/>
    <path d="M 140.6888427734375 81.38428497314453 C 142.80133056640625 38.46568298339844 202.03436279296875 115.42456817626953 178.83375549316406 45.704383850097656" stroke-width="3.0" fill="none" stroke="rgb(0, 0, 0)" stroke-opacity="1.0" stroke-linecap="round" stroke-linejoin="round"/>
    <path d="M 154.23861694335938 96.57243347167969 C 172.77798461914062 106.9509506225586 182.83949279785156 105.41128540039062 184.58026123046875 123.3388671875" stroke-width="3.0" fill="none" stroke="rgb(0, 0, 0)" stroke-opacity="1.0" stroke-linecap="round" stroke-linejoin="round"/>
    <path d="M 180.23519897460938 13.887693405151367 C 175.18603515625 46.18385696411133 172.16693115234375 21.437580108642578 159.29246520996094 40.8752326965332" stroke-width="3.0" fill="none" stroke="rgb(0, 0, 0)" stroke-opacity="1.0" stroke-linecap="round" stroke-linejoin="round"/>
    <path d="M 120.20072174072266 101.681640625 C 145.83358764648438 95.9080810546875 131.13340759277344 111.37857055664062 128.75001525878906 102.79116821289062" stroke-width="3.0" fill="none" stroke="rgb(0, 0, 0)" stroke-opacity="1.0" stroke-linecap="round" stroke-linejoin="round"/>
    <path d="M 60.16816711425781 92.34442901611328 C 54.925357818603516 105.21562957763672 56.8228874206543 112.19727325439453 59.49668884277344 107.24455261230469" stroke-width="3.0" fill="none" stroke="rgb(0, 0, 0)" stroke-opacity="1.0" stroke-linecap="round" stroke-linejoin="round"/>
    <path d="M 124.28451538085938 76.57035064697266 C 126.24229431152344 49.50966262817383 115.21421813964844 57.75709533691406 119.97198486328125 37.78794479370117" stroke-width="3.0" fill="none" stroke="rgb(0, 0, 0)" stroke-opacity="1.0" stroke-linecap="round" stroke-linejoin="round"/>
    <path d="M 140.02345275878906 31.98395347595215 C 144.82249450683594 41.31325149536133 160.04029846191406 9.500085830688477 179.17214965820312 8.466825485229492" stroke-width="3.0" fill="none" stroke="rgb(0, 0, 0)" stroke-opacity="1.0" stroke-linecap="round" stroke-linejoin="round"/>
  </g>
</svg>
