<?xml version="1.0" ?>
<svg xmlns="http://www.w3.org/2000/svg" version="1.1" width="224" height="224">
  <defs/>
  <g>
    <path d="M 58.30079650878906 96.0101547241211 C 63.15192794799805 99.7084732055664 54.42720031738281 89.85636901855469 67.41795349121094 62.450809478759766" stroke-width="3.0" fill="none" stroke="rgb(0, 0, 0)" stroke-opacity="1.0" stroke-linecap="round" stroke-linejoin="round"/>
    <path d="M 189.38404846191406 111.03870391845703 C 182.62403869628906 113.40760803222656 194.31591796875 100.04689025878906 178.476806640625 126.19231414794922" stroke-width="3.0" fill="none" stroke="rgb(0, 0, 0)" stroke-opacity="1.0" stroke-linecap="round" stroke-linejoin="round"/>
    <path d="M 62.98953628540039 120.77813720703125 C 54.20219802856445 81.50377655029297 57.7030143737793 119.9361801147461 66.52018737792969 125.94381713867188" stroke-width="3.0" fill="none" stroke="rgb(0, 0, 0)" stroke-opacity="1.0" stroke-linecap="round" stroke-linejoin="round"/>
    <path d="M 185.6786346435547 95.9442367553711 C 149.8781280517578 69.74890899658203 184.76187133789062 74.13956451416016 186.76925659179688 104.55391693115234" stroke-width="3.0" fill="none" stroke="rgb(0, 0, 0)" stroke-opacity="1.0" stroke-linecap="round" stroke-linejoin="round"/>
    <path d="M 175.70010375976562 42.6103401184082 C 195.39483642578125 89.35066986083984 173.18504333496094 106.64698791503906 181.24789428710938 66.52264404296875" stroke-width="3.0" fill="none" stroke="rgb(0, 0, 0)" stroke-opacity="1.0" stroke-linecap="round" stroke-linejoin="round"/>
    <path d="M 127.66548919677734 103.50444793701172 C 148.50184631347656 119.13630676269531 94.58214569091797 100.94953155517578 138.33889770507812 107.04015350341797" stroke-width="3.0" fill="none" stroke="rgb(0, 0, 0)" stroke-opacity="1.0" stroke-linecap="round" stroke-linejoin="round"/>
    <path d="M 180.99819946289062 90.74217987060547 C 171.92123413085938 89.1324462890625 181.25534057617188 67.36936950683594 154.1606903076172 86.25476837158203" stroke-width="3.0" fill="none" stroke="rgb(0, 0, 0)" stroke-opacity="1.0" stroke-linecap="round" stroke-linejoin="round"/>
    <path d="M 67.22038269042969 193.3216552734375 C 38.636104583740234 169.38978576660156 45.96516418457031 165.3711395263672 57.565250396728516 182.05767822265625" stroke-width="3.0" fill="none" stroke="rgb(0, 0, 0)" stroke-opacity="1.0" stroke-linecap="round" stroke-linejoin="round"/>
    <path d="M 56.67009735107422 185.18722534179688 C 84.6926498413086 211.20335388183594 133.27565002441406 195.10508728027344 140.62063598632812 163.1420135498047" stroke-width="3.0" fill="none" stroke="rgb(0, 0, 0)" stroke-opacity="1.0" stroke-linecap="round" stroke-linejoin="round"/>
    <path d="M 81.02640533447266 12.464862823486328 C 92.425048828125 75.2818374633789 88.2501449584961 7.763309478759766 87.15248107910156 55.98098373413086" stroke-width="3.0" fill="none" stroke="rgb(0, 0, 0)" stroke-opacity="1.0" stroke-linecap="round" stroke-linejoin="round"/>
    <path d="M 58.627220153808594 95.82231140136719 C 48.85641860961914 132.5172119140625 72.1193618774414 132.34107971191406 58.70796203613281 122.43074798583984" stroke-width="3.0" fill="none" stroke="rgb(0, 0, 0)" stroke-opacity="1.0" stroke-linecap="round" stroke-linejoin="round"/>
    <path d="M 143.376953125 72.00965881347656 C 196.9072723388672 63.560428619384766 193.62493896484375 86.22107696533203 138.84445190429688 85.82765197753906" stroke-width="3.0" fill="none" stroke="rgb(0, 0, 0)" stroke-opacity="1.0" stroke-linecap="round" stroke-linejoin="round"/>
    <path d="M 148.75381469726562 98.47505187988281 C 180.46121215820312 96.55790710449219 178.92686462402344 94.94823455810547 196.93634033203125 113.88434600830078" stroke-width="3.0" fill="none" stroke="rgb(0, 0, 0)" stroke-opacity="1.0" stroke-linecap="round" stroke-linejoin="round"/>
    <path d="M 124.97423553466797 146.18185424804688 C 163.06797790527344 157.2825927734375 100.01427459716797 142.54029846191406 95.35670471191406 151.71710205078125" stroke-width="3.0" fill="none" stroke="rgb(0, 0, 0)" stroke-opacity="1.0" stroke-linecap="round" stroke-linejoin="round"/>
    <path d="M 179.51852416992188 7.416484355926514 C 189.605712890625 18.156917572021484 165.99681091308594 99.66008758544922 181.4181671142578 55.39021301269531" stroke-width="3.0" fill="none" stroke="rgb(0, 0, 0)" stroke-opacity="1.0" stroke-linecap="round" stroke-linejoin="round"/>
    <path d="M 148.26954650878906 32.01824188232422 C 114.5718994140625 29.9344425201416 138.56553649902344 35.06147766113281 131.5777130126953 66.99293518066406" stroke-width="3.0" fill="none" stroke="rgb(0, 0, 0)" stroke-opacity="1.0" stroke-linecap="round" stroke-linejoin="round"/>
    <path d="M 104.42559814453125 49.10194396972656 C 60.73674011230469 -5.032770156860352 82.33698272705078 2.4883382320404053 119.3514404296875 30.489686965942383" stroke-width="3.0" fill="none" stroke="rgb(0, 0, 0)" stroke-opacity="1.0" stroke-linecap="round" stroke-linejoin="round"/>
    <path d="M 45.10569763183594 163.37167358398438 C 44.555824279785156 159.56153869628906 41.042884826660156 153.9791717529297 48.79299545288086 170.87380981445312" stroke-width="3.0" fill="none" stroke="rgb(0, 0, 0)" stroke-opacity="1.0" stroke-linecap="round" stroke-linejoin="round"/>
    <path d="M 57.572330474853516 75.09296417236328 C 23.8299560546875 134.95738220214844 39.51335525512695 135.9912109375 44.86991882324219 158.06460571289062" stroke-width="3.0" fill="none" stroke="rgb(0, 0, 0)" stroke-opacity="1.0" stroke-linecap="round" stroke-linejoin="round"/>
    <path d="M 74.3056869506836 135.71116638183594 C 134.77113342285156 161.2425079345703 101.7590560913086 147.90316772460938 87.8045654296875 143.64964294433594" stroke-width="3.0" fill="none" stroke="rgb(0, 0, 0)" stroke-opacity="1.0" stroke-linecap="round" stroke-linejoin="round"/>
    <path d="M 96.20335388183594 196.93312072753906 C 64.56172180175781 198.37432861328125 48.16822814941406 177.11700439453125 43.389286041259766 160.19418334960938" stroke-width="3.0" fill="none" stroke="rgb(0, 0, 0)" stroke-opacity="1.0" stroke-linecap="round" stroke-linejoin="round"/>
    <path d="M 49.26683044433594 170.90208435058594 C 69.39366912841797 198.32591247558594 47.973819732666016 175.41102600097656 35.804866790771484 142.1411895751953" stroke-width="3.0" fill="none" stroke="rgb(0, 0, 0)" stroke-opacity="1.0" stroke-linecap="round" stroke-linejoin="round"/>
    <path d="M 82.39179229736328 55.10719680786133 C 55.981475830078125 59.340980529785156 66.35726928710938 72.21895599365234 39.25778579711914 109.361572265625" stroke-width="3.0" fill="none" stroke="rgb(0, 0, 0)" stroke-opacity="1.0" stroke-linecap="round" stroke-linejoin="round"/>
    <path d="M 156.4938507080078 140.11509704589844 C 101.29341888427734 153.9394073486328 74.2383041381836 154.2215118408203 145.64859008789062 148.04998779296875" stroke-width="3.0" fill="none" stroke="rgb(0, 0, 0)" stroke-opacity="1.0" stroke-linecap="round" stroke-linejoin="round"/>
    <path d="M 151.49000549316406 26.33350944519043 C 147.19493103027344 32.267948150634766 141.1371307373047 16.70014762878418 138.384521484375 80.5072021484375" stroke-width="3.0" fill="none" stroke="rgb(0, 0, 0)" stroke-opacity="1.0" stroke-linecap="round" stroke-linejoin="round"/>
    <path d="M 144.31065368652344 102.48889923095703 C 128.946533203125 112.91461181640625 124.2795639038086 105.7573471069336 113.8451156616211 99.29409790039062" stroke-width="3.0" fill="none" stroke="rgb(0, 0, 0)" stroke-opacity="1.0" stroke-linecap="round" stroke-linejoin="round"/>
    <path d="M 138.62673950195312 64.34335327148438 C 144.73643493652344 55.579627990722656 129.13795471191406 73.5774917602539 140.97283935546875 76.04718780517578" stroke-width="3.0" fill="none" stroke="rgb(0, 0, 0)" stroke-opacity="1.0" stroke-linecap="round" stroke-linejoin="round"/>
    <path d="M 137.2361297607422 165.5889129638672 C 130.5277099609375 171.95428466796875 144.32818603515625 163.10499572753906 147.26446533203125 146.11593627929688" stroke-width="3.0" fill="none" stroke="rgb(0, 0, 0)" stroke-opacity="1.0" stroke-linecap="round" stroke-linejoin="round"/>
    <path d="M 197.40780639648438 94.713623046875 C 166.95281982421875 65.69500732421875 179.06507873535156 68.7190170288086 186.99000549316406 97.48841094970703" stroke-width="3.0" fill="none" stroke="rgb(0, 0, 0)" stroke-opacity="1.0" stroke-linecap="round" stroke-linejoin="round"/>
    <path d="M 149.9987030029297 76.30648803710938 C 123.92704772949219 55.088409423828125 210.67343139648438 87.96126556396484 173.31658935546875 65.939697265625" stroke-width="3.0" fill="none" stroke="rgb(0, 0, 0)" stroke-opacity="1.0" stroke-linecap="round" stroke-linejoin="round"/>
    <path d="M 115.71981048583984 81.46695709228516 C 83.03804779052734 73.63459014892578 139.6358642578125 74.50520324707031 106.56959533691406 81.08672332763672" stroke-width="3.0" fill="none" stroke="rgb(0, 0, 0)" stroke-opacity="1.0" stroke-linecap="round" stroke-linejoin="round"/>
    <path d="M 166.869384765625 128.76210021972656 C 150.3098907470703 159.65567016601562 99.61912536621094 144.003173828125 93.57379913330078 147.33761596679688" stroke-width="3.0" fill="none" stroke="rgb(0, 0, 0)" stroke-opacity="1.0" stroke-linecap="round" stroke-linejoin="round"/>
    <path d="M 121.7758560180664 91.071044921875 C 141.89031982421875 99.05908966064453 129.78463745117188 72.1034927368164 127.03901672363281 108.30772399902344" stroke-width="3.0" fill="none" stroke="rgb(0, 0, 0)" stroke-opacity="1.0" stroke-linecap="round" stroke-linejoin="round"/>
    <path d="M 187.49581909179688 108.55529022216797 C 168.02821350097656 88.65199279785156 172.30113220214844 96.61955261230469 141.5634307861328 85.78227996826172" stroke-width="3.0" fill="none" stroke="rgb(0, 0, 0)" stroke-opacity="1.0" stroke-linecap="round" stroke-linejoin="round"/>
    <path d="M 92.7219467163086 27.57598876953125 C 124.80876159667969 31.292675018310547 88.42489624023438 33.06497573852539 150.42181396484375 28.974597930908203" stroke-width="3.0" fill="none" stroke="rgb(0, 0, 0)" stroke-opacity="1.0" stroke-linecap="round" stroke-linejoin="round"/>
    <path d="M 56.493953704833984 115.20511627197266 C 63.18163299560547 101.18678283691406 47.34971618652344 115.95348358154297 73.86339569091797 137.0806121826172" stroke-width="3.0" fill="none" stroke="rgb(0, 0, 0)" stroke-opacity="1.0" stroke-linecap="round" stroke-linejoin="round"/>
    <path d="M 137.5647735595703 106.97435760498047 C 119.2620620727539 91.67595672607422 124.42140197753906 119.9061279296875 113.33406066894531 88.72989654541016" stroke-width="3.0" fill="none" stroke="rgb(0, 0, 0)" stroke-opacity="1.0" stroke-linecap="round" stroke-linejoin="round"/>
    <path d="M 37.62595748901367 146.92698669433594 C 22.761127471923828 129.7581787109375 38.6458740234375 80.82400512695312 61.3931884765625 66.80783081054688" stroke-width="3.0" fill="none" stroke="rgb(0, 0, 0)" stroke-opacity="1.0" stroke-linecap="round" stroke-linejoin="round"/>
    <path d="M 101.9738998413086 197.6316680908203 C 77.12660217285156 200.26145935058594 69.55673217773438 199.72425842285156 104.66816711425781 197.3455810546875" stroke-width="3.0" fill="none" stroke="rgb(0, 0, 0)" stroke-opacity="1.0" stroke-linecap="round" stroke-linejoin="round"/>
    <path d="M 170.0219268798828 128.180419921875 C 198.28175354003906 110.9842758178711 193.38063049316406 85.10184478759766 153.4602813720703 88.99179077148438" stroke-width="3.0" fill="none" stroke="rgb(0, 0, 0)" stroke-opacity="1.0" stroke-linecap="round" stroke-linejoin="round"/>
    <path d="M 151.46168518066406 70.49237823486328 C 132.80227661132812 82.30716705322266 173.42013549804688 81.90203094482422 149.41256713867188 69.77571868896484" stroke-width="3.0" fill="none" stroke="rgb(0, 0, 0)" stroke-opacity="1.0" stroke-linecap="round" stroke-linejoin="round"/>
    <path d="M 138.9382781982422 75.68292999267578 C 143.15968322753906 40.96731948852539 193.3892822265625 108.60548400878906 176.86099243164062 49.1378288269043" stroke-width="3.0" fill="none" stroke="rgb(0, 0, 0)" stroke-opacity="1.0" stroke-linecap="round" stroke-linejoin="round"/>
    <path d="M 153.8197784423828 98.58418273925781 C 175.80760192871094 106.48521423339844 180.1562042236328 99.25559997558594 184.72015380859375 123.21861267089844" stroke-width="3.0" fill="none" stroke="rgb(0, 0, 0)" stroke-opacity="1.0" stroke-linecap="round" stroke-linejoin="round"/>
    <path d="M 179.08499145507812 17.08363151550293 C 173.99740600585938 40.914794921875 176.4335479736328 19.447586059570312 160.07044982910156 36.60341262817383" stroke-width="3.0" fill="none" stroke="rgb(0, 0, 0)" stroke-opacity="1.0" stroke-linecap="round" stroke-linejoin="round"/>
    <path d="M 121.3865737915039 105.13652801513672 C 147.63059997558594 100.7213363647461 126.66027069091797 116.55817413330078 119.80359649658203 103.61316680908203" stroke-width="3.0" fill="none" stroke="rgb(0, 0, 0)" stroke-opacity="1.0" stroke-linecap="round" stroke-linejoin="round"/>
    <path d="M 64.80596923828125 114.58598327636719 C 53.05569839477539 109.82738494873047 57.13273239135742 110.78771209716797 63.85488510131836 119.44122314453125" stroke-width="3.0" fill="none" stroke="rgb(0, 0, 0)" stroke-opacity="1.0" stroke-linecap="round" stroke-linejoin="round"/>
    <path d="M 121.75896453857422 72.32106018066406 C 122.89666748046875 45.56792449951172 112.63166809082031 60.49589538574219 119.36830139160156 32.348392486572266" stroke-width="3.0" fill="none" stroke="rgb(0, 0, 0)" stroke-opacity="1.0" stroke-linecap="round" stroke-linejoin="round"/>
    <path d="M 143.59841918945312 28.771286010742188 C 144.22532653808594 38.2303581237793 161.4865264892578 6.389665126800537 178.8543243408203 7.398850917816162" stroke-width="3.0" fill="none" stroke="rgb(0, 0, 0)" stroke-opacity="1.0" stroke-linecap="round" stroke-linejoin="round"/>
  </g>
</svg>
