<?xml version="1.0" ?>
<svg xmlns="http://www.w3.org/2000/svg" version="1.1" width="224" height="224">
  <defs/>
  <g>
    <path d="M 61.59481430053711 91.52462005615234 C 62.03437805175781 93.70088958740234 69.13948059082031 95.55892181396484 50.724761962890625 84.97461700439453" stroke-width="3.0" fill="none" stroke="rgb(0, 0, 0)" stroke-opacity="1.0" stroke-linecap="round" stroke-linejoin="round"/>
    <path d="M 182.1149139404297 123.3716049194336 C 177.9803924560547 116.2508773803711 200.73121643066406 86.70819091796875 174.59828186035156 128.83029174804688" stroke-width="3.0" fill="none" stroke="rgb(0, 0, 0)" stroke-opacity="1.0" stroke-linecap="round" stroke-linejoin="round"/>
    <path d="M 52.3556022644043 102.53750610351562 C 48.57455825805664 106.27107238769531 55.686893463134766 124.45924377441406 66.21527099609375 131.74777221679688" stroke-width="3.0" fill="none" stroke="rgb(0, 0, 0)" stroke-opacity="1.0" stroke-linecap="round" stroke-linejoin="round"/>
    <path d="M 185.87210083007812 90.64391326904297 C 136.8470001220703 92.41222381591797 177.22634887695312 82.2396469116211 188.0226287841797 105.37577056884766" stroke-width="3.0" fill="none" stroke="rgb(0, 0, 0)" stroke-opacity="1.0" stroke-linecap="round" stroke-linejoin="round"/>
    <path d="M 178.84092712402344 69.90918731689453 C 193.79501342773438 112.80841064453125 188.10610961914062 102.46109008789062 182.71112060546875 71.63404846191406" stroke-width="3.0" fill="none" stroke="rgb(0, 0, 0)" stroke-opacity="1.0" stroke-linecap="round" stroke-linejoin="round"/>
    <path d="M 121.6222915649414 105.58406829833984 C 148.1356964111328 111.37052917480469 113.9892807006836 90.50126647949219 135.9151611328125 100.47284698486328" stroke-width="3.0" fill="none" stroke="rgb(0, 0, 0)" stroke-opacity="1.0" stroke-linecap="round" stroke-linejoin="round"/>
    <path d="M 170.55572509765625 87.37023162841797 C 196.12945556640625 85.8677749633789 193.29428100585938 75.55331420898438 145.05950927734375 86.15824127197266" stroke-width="3.0" fill="none" stroke="rgb(0, 0, 0)" stroke-opacity="1.0" stroke-linecap="round" stroke-linejoin="round"/>
    <path d="M 64.82774353027344 190.63685607910156 C 38.94224166870117 161.77871704101562 50.083335876464844 169.97744750976562 48.69367599487305 169.93663024902344" stroke-width="3.0" fill="none" stroke="rgb(0, 0, 0)" stroke-opacity="1.0" stroke-linecap="round" stroke-linejoin="round"/>
    <path d="M 55.564640045166016 181.1559295654297 C 87.43434143066406 210.4876251220703 119.6992416381836 195.14918518066406 135.9886932373047 178.13214111328125" stroke-width="3.0" fill="none" stroke="rgb(0, 0, 0)" stroke-opacity="1.0" stroke-linecap="round" stroke-linejoin="round"/>
    <path d="M 82.7127456665039 25.42633819580078 C 91.20172882080078 82.5583267211914 83.94789123535156 7.0043416023254395 82.8947525024414 50.59070587158203" stroke-width="3.0" fill="none" stroke="rgb(0, 0, 0)" stroke-opacity="1.0" stroke-linecap="round" stroke-linejoin="round"/>
    <path d="M 46.52188491821289 90.20431518554688 C 63.37974548339844 144.73301696777344 79.87203216552734 153.3868408203125 73.10747528076172 145.9609375" stroke-width="3.0" fill="none" stroke="rgb(0, 0, 0)" stroke-opacity="1.0" stroke-linecap="round" stroke-linejoin="round"/>
    <path d="M 152.65919494628906 72.94197082519531 C 203.8166046142578 60.7718620300293 193.69845581054688 94.58049774169922 141.69943237304688 82.56124114990234" stroke-width="3.0" fill="none" stroke="rgb(0, 0, 0)" stroke-opacity="1.0" stroke-linecap="round" stroke-linejoin="round"/>
    <path d="M 150.29086303710938 95.4146957397461 C 183.7612762451172 102.36884307861328 173.86660766601562 101.79557800292969 194.8056640625 112.46487426757812" stroke-width="3.0" fill="none" stroke="rgb(0, 0, 0)" stroke-opacity="1.0" stroke-linecap="round" stroke-linejoin="round"/>
    <path d="M 110.34803771972656 151.81768798828125 C 147.89796447753906 154.5836639404297 120.85199737548828 144.92169189453125 104.15182495117188 157.2269744873047" stroke-width="3.0" fill="none" stroke="rgb(0, 0, 0)" stroke-opacity="1.0" stroke-linecap="round" stroke-linejoin="round"/>
    <path d="M 181.44247436523438 10.023740768432617 C 189.1675567626953 20.39947509765625 172.06683349609375 70.54728698730469 180.3403778076172 55.02488327026367" stroke-width="3.0" fill="none" stroke="rgb(0, 0, 0)" stroke-opacity="1.0" stroke-linecap="round" stroke-linejoin="round"/>
    <path d="M 134.37315368652344 30.36787223815918 C 129.3052520751953 46.00733184814453 137.4656524658203 52.70109176635742 129.1736602783203 67.65227508544922" stroke-width="3.0" fill="none" stroke="rgb(0, 0, 0)" stroke-opacity="1.0" stroke-linecap="round" stroke-linejoin="round"/>
    <path d="M 89.55422973632812 44.52597427368164 C 72.81558227539062 -1.6695224046707153 90.10969543457031 -0.14959953725337982 115.71114349365234 32.84965133666992" stroke-width="3.0" fill="none" stroke="rgb(0, 0, 0)" stroke-opacity="1.0" stroke-linecap="round" stroke-linejoin="round"/>
    <path d="M 47.83485794067383 168.76937866210938 C 41.873748779296875 152.94789123535156 39.42887878417969 145.05821228027344 47.543033599853516 169.44338989257812" stroke-width="3.0" fill="none" stroke="rgb(0, 0, 0)" stroke-opacity="1.0" stroke-linecap="round" stroke-linejoin="round"/>
    <path d="M 34.779640197753906 98.95861053466797 C 20.779813766479492 132.7191925048828 41.81284713745117 145.50599670410156 44.663333892822266 162.9887237548828" stroke-width="3.0" fill="none" stroke="rgb(0, 0, 0)" stroke-opacity="1.0" stroke-linecap="round" stroke-linejoin="round"/>
    <path d="M 79.0053939819336 148.03494262695312 C 111.31713104248047 161.2882537841797 90.789794921875 157.21902465820312 95.70914459228516 152.51437377929688" stroke-width="3.0" fill="none" stroke="rgb(0, 0, 0)" stroke-opacity="1.0" stroke-linecap="round" stroke-linejoin="round"/>
    <path d="M 88.2728500366211 198.98159790039062 C 70.24041748046875 202.72032165527344 48.09220504760742 176.41128540039062 48.3041877746582 170.6221466064453" stroke-width="3.0" fill="none" stroke="rgb(0, 0, 0)" stroke-opacity="1.0" stroke-linecap="round" stroke-linejoin="round"/>
    <path d="M 47.866641998291016 171.25054931640625 C 64.9223403930664 194.81167602539062 46.868927001953125 171.41192626953125 39.918514251708984 149.8735809326172" stroke-width="3.0" fill="none" stroke="rgb(0, 0, 0)" stroke-opacity="1.0" stroke-linecap="round" stroke-linejoin="round"/>
    <path d="M 80.72664642333984 56.5789909362793 C 62.50364303588867 57.32887268066406 48.05057907104492 71.76248931884766 31.71355438232422 105.9976577758789" stroke-width="3.0" fill="none" stroke="rgb(0, 0, 0)" stroke-opacity="1.0" stroke-linecap="round" stroke-linejoin="round"/>
    <path d="M 156.97451782226562 140.21951293945312 C 111.67098999023438 154.6046905517578 107.3286361694336 156.5638885498047 143.67398071289062 146.93650817871094" stroke-width="3.0" fill="none" stroke="rgb(0, 0, 0)" stroke-opacity="1.0" stroke-linecap="round" stroke-linejoin="round"/>
    <path d="M 149.13218688964844 24.625652313232422 C 140.99583435058594 44.57276916503906 136.17013549804688 3.08243727684021 136.09207153320312 81.0976791381836" stroke-width="3.0" fill="none" stroke="rgb(0, 0, 0)" stroke-opacity="1.0" stroke-linecap="round" stroke-linejoin="round"/>
    <path d="M 145.56546020507812 95.0784912109375 C 130.35765075683594 107.4145736694336 132.94285583496094 108.95018768310547 127.22529602050781 101.7333984375" stroke-width="3.0" fill="none" stroke="rgb(0, 0, 0)" stroke-opacity="1.0" stroke-linecap="round" stroke-linejoin="round"/>
    <path d="M 135.50270080566406 78.51063537597656 C 140.1548614501953 57.85990905761719 131.66928100585938 65.9447250366211 135.35365295410156 74.09927368164062" stroke-width="3.0" fill="none" stroke="rgb(0, 0, 0)" stroke-opacity="1.0" stroke-linecap="round" stroke-linejoin="round"/>
    <path d="M 135.68443298339844 173.45257568359375 C 131.26113891601562 180.16372680664062 141.10960388183594 175.58233642578125 148.46142578125 148.40969848632812" stroke-width="3.0" fill="none" stroke="rgb(0, 0, 0)" stroke-opacity="1.0" stroke-linecap="round" stroke-linejoin="round"/>
    <path d="M 196.38563537597656 96.00472259521484 C 167.66500854492188 72.61302947998047 163.25271606445312 82.70603942871094 185.77383422851562 94.8740234375" stroke-width="3.0" fill="none" stroke="rgb(0, 0, 0)" stroke-opacity="1.0" stroke-linecap="round" stroke-linejoin="round"/>
    <path d="M 155.58773803710938 76.73188781738281 C 125.34363555908203 61.4171142578125 206.50888061523438 80.6103744506836 181.56387329101562 65.22948455810547" stroke-width="3.0" fill="none" stroke="rgb(0, 0, 0)" stroke-opacity="1.0" stroke-linecap="round" stroke-linejoin="round"/>
    <path d="M 112.25289916992188 80.69749450683594 C 92.47650146484375 70.88614654541016 141.15696716308594 78.68854522705078 108.02611541748047 83.20616149902344" stroke-width="3.0" fill="none" stroke="rgb(0, 0, 0)" stroke-opacity="1.0" stroke-linecap="round" stroke-linejoin="round"/>
    <path d="M 163.624267578125 132.1575927734375 C 146.5179901123047 155.1837615966797 114.5545425415039 148.12440490722656 100.0224838256836 154.10537719726562" stroke-width="3.0" fill="none" stroke="rgb(0, 0, 0)" stroke-opacity="1.0" stroke-linecap="round" stroke-linejoin="round"/>
    <path d="M 121.2378921508789 88.47093200683594 C 142.69227600097656 101.00045013427734 124.73818969726562 71.09484100341797 128.58709716796875 104.65650177001953" stroke-width="3.0" fill="none" stroke="rgb(0, 0, 0)" stroke-opacity="1.0" stroke-linecap="round" stroke-linejoin="round"/>
    <path d="M 187.18446350097656 109.6421890258789 C 170.3614959716797 86.83805084228516 184.86541748046875 88.03370666503906 150.19378662109375 90.7315902709961" stroke-width="3.0" fill="none" stroke="rgb(0, 0, 0)" stroke-opacity="1.0" stroke-linecap="round" stroke-linejoin="round"/>
    <path d="M 85.572998046875 8.147031784057617 C 106.59937286376953 14.902467727661133 120.6270980834961 35.869056701660156 123.6374740600586 28.619430541992188" stroke-width="3.0" fill="none" stroke="rgb(0, 0, 0)" stroke-opacity="1.0" stroke-linecap="round" stroke-linejoin="round"/>
    <path d="M 59.80772399902344 123.19424438476562 C 53.80470275878906 117.84080505371094 60.64754867553711 128.79086303710938 68.48372650146484 138.88796997070312" stroke-width="3.0" fill="none" stroke="rgb(0, 0, 0)" stroke-opacity="1.0" stroke-linecap="round" stroke-linejoin="round"/>
    <path d="M 130.5553436279297 103.9550552368164 C 125.18572998046875 88.36260986328125 121.2296371459961 120.7359390258789 107.23530578613281 90.55557250976562" stroke-width="3.0" fill="none" stroke="rgb(0, 0, 0)" stroke-opacity="1.0" stroke-linecap="round" stroke-linejoin="round"/>
    <path d="M 30.921276092529297 131.21763610839844 C 26.251911163330078 101.29695129394531 39.12752151489258 101.57020568847656 50.88833236694336 76.31620788574219" stroke-width="3.0" fill="none" stroke="rgb(0, 0, 0)" stroke-opacity="1.0" stroke-linecap="round" stroke-linejoin="round"/>
    <path d="M 81.984619140625 197.5535125732422 C 70.08025360107422 191.3450927734375 68.30054473876953 196.5335693359375 102.62809753417969 195.87091064453125" stroke-width="3.0" fill="none" stroke="rgb(0, 0, 0)" stroke-opacity="1.0" stroke-linecap="round" stroke-linejoin="round"/>
    <path d="M 164.181396484375 130.9316864013672 C 197.40090942382812 116.05528259277344 177.07333374023438 96.54524993896484 155.03567504882812 92.33075714111328" stroke-width="3.0" fill="none" stroke="rgb(0, 0, 0)" stroke-opacity="1.0" stroke-linecap="round" stroke-linejoin="round"/>
    <path d="M 147.09178161621094 69.8481674194336 C 133.6923828125 86.6906967163086 174.36679077148438 77.32524108886719 147.4696807861328 68.82643127441406" stroke-width="3.0" fill="none" stroke="rgb(0, 0, 0)" stroke-opacity="1.0" stroke-linecap="round" stroke-linejoin="round"/>
    <path d="M 140.6427001953125 77.09795379638672 C 149.91880798339844 43.666996002197266 203.48358154296875 114.07879638671875 176.45526123046875 42.638023376464844" stroke-width="3.0" fill="none" stroke="rgb(0, 0, 0)" stroke-opacity="1.0" stroke-linecap="round" stroke-linejoin="round"/>
    <path d="M 156.68283081054688 97.57879638671875 C 169.77606201171875 102.35475158691406 174.2769775390625 104.50245666503906 181.07498168945312 117.88236236572266" stroke-width="3.0" fill="none" stroke="rgb(0, 0, 0)" stroke-opacity="1.0" stroke-linecap="round" stroke-linejoin="round"/>
    <path d="M 176.73365783691406 18.18096923828125 C 166.1392822265625 41.780677795410156 180.49771118164062 22.47710418701172 162.58123779296875 35.06709671020508" stroke-width="3.0" fill="none" stroke="rgb(0, 0, 0)" stroke-opacity="1.0" stroke-linecap="round" stroke-linejoin="round"/>
    <path d="M 119.99012756347656 101.21345520019531 C 145.90391540527344 94.07294464111328 129.58517456054688 111.79154205322266 118.59561157226562 101.62869262695312" stroke-width="3.0" fill="none" stroke="rgb(0, 0, 0)" stroke-opacity="1.0" stroke-linecap="round" stroke-linejoin="round"/>
    <path d="M 66.53412628173828 131.35870361328125 C 50.02001953125 120.19231414794922 59.24242401123047 111.21455383300781 57.167537689208984 115.44747924804688" stroke-width="3.0" fill="none" stroke="rgb(0, 0, 0)" stroke-opacity="1.0" stroke-linecap="round" stroke-linejoin="round"/>
    <path d="M 128.75656127929688 75.48208618164062 C 132.70950317382812 38.6702995300293 123.34700775146484 49.79824447631836 128.3828125 29.704668045043945" stroke-width="3.0" fill="none" stroke="rgb(0, 0, 0)" stroke-opacity="1.0" stroke-linecap="round" stroke-linejoin="round"/>
    <path d="M 155.18991088867188 19.591785430908203 C 145.75225830078125 29.79395866394043 164.3992156982422 8.531890869140625 178.0791778564453 8.879351615905762" stroke-width="3.0" fill="none" stroke="rgb(0, 0, 0)" stroke-opacity="1.0" stroke-linecap="round" stroke-linejoin="round"/>
  </g>
</svg>
