<?xml version="1.0" ?>
<svg xmlns="http://www.w3.org/2000/svg" version="1.1" width="224" height="224">
  <defs/>
  <g>
    <path d="M 55.270263671875 98.01405334472656 C 58.438201904296875 95.94635009765625 50.92206954956055 89.83196258544922 64.51382446289062 66.0437240600586" stroke-width="3.0" fill="none" stroke="rgb(0, 0, 0)" stroke-opacity="1.0" stroke-linecap="round" stroke-linejoin="round"/>
    <path d="M 196.5863037109375 115.20608520507812 C 183.85267639160156 110.91754150390625 183.2398681640625 98.6114501953125 182.73776245117188 124.73497009277344" stroke-width="3.0" fill="none" stroke="rgb(0, 0, 0)" stroke-opacity="1.0" stroke-linecap="round" stroke-linejoin="round"/>
    <path d="M 59.473793029785156 122.17436981201172 C 60.906185150146484 83.17024230957031 55.67986297607422 118.63395690917969 59.576873779296875 126.35508728027344" stroke-width="3.0" fill="none" stroke="rgb(0, 0, 0)" stroke-opacity="1.0" stroke-linecap="round" stroke-linejoin="round"/>
    <path d="M 188.73486328125 94.964599609375 C 142.74586486816406 75.71640014648438 187.7176055908203 78.7361831665039 190.83641052246094 101.20624542236328" stroke-width="3.0" fill="none" stroke="rgb(0, 0, 0)" stroke-opacity="1.0" stroke-linecap="round" stroke-linejoin="round"/>
    <path d="M 177.18666076660156 44.19450759887695 C 194.8912353515625 91.67022705078125 175.66061401367188 109.31075286865234 181.5726318359375 68.82380676269531" stroke-width="3.0" fill="none" stroke="rgb(0, 0, 0)" stroke-opacity="1.0" stroke-linecap="round" stroke-linejoin="round"/>
    <path d="M 128.49542236328125 101.70240020751953 C 148.23162841796875 120.89927673339844 93.78204345703125 100.9496078491211 134.46377563476562 101.0687255859375" stroke-width="3.0" fill="none" stroke="rgb(0, 0, 0)" stroke-opacity="1.0" stroke-linecap="round" stroke-linejoin="round"/>
    <path d="M 183.56991577148438 83.1161117553711 C 179.1896209716797 79.11451721191406 197.65098571777344 72.54368591308594 150.2789306640625 86.629150390625" stroke-width="3.0" fill="none" stroke="rgb(0, 0, 0)" stroke-opacity="1.0" stroke-linecap="round" stroke-linejoin="round"/>
    <path d="M 65.43449401855469 190.5006103515625 C 42.14677047729492 167.12928771972656 53.08744812011719 164.72705078125 48.5831413269043 169.7008514404297" stroke-width="3.0" fill="none" stroke="rgb(0, 0, 0)" stroke-opacity="1.0" stroke-linecap="round" stroke-linejoin="round"/>
    <path d="M 60.08614730834961 184.5071258544922 C 87.03479766845703 208.04803466796875 139.2968292236328 196.30810546875 134.6764373779297 164.18768310546875" stroke-width="3.0" fill="none" stroke="rgb(0, 0, 0)" stroke-opacity="1.0" stroke-linecap="round" stroke-linejoin="round"/>
    <path d="M 82.89936065673828 11.907998085021973 C 95.05599975585938 79.3194580078125 85.01239776611328 9.215341567993164 84.8294448852539 55.054443359375" stroke-width="3.0" fill="none" stroke="rgb(0, 0, 0)" stroke-opacity="1.0" stroke-linecap="round" stroke-linejoin="round"/>
    <path d="M 58.08676528930664 88.31879425048828 C 53.29471969604492 137.35679626464844 71.9508285522461 133.42921447753906 58.11508560180664 121.28583526611328" stroke-width="3.0" fill="none" stroke="rgb(0, 0, 0)" stroke-opacity="1.0" stroke-linecap="round" stroke-linejoin="round"/>
    <path d="M 146.1495361328125 73.39823150634766 C 200.1110076904297 61.58579635620117 193.3038787841797 86.93595886230469 141.76890563964844 83.59357452392578" stroke-width="3.0" fill="none" stroke="rgb(0, 0, 0)" stroke-opacity="1.0" stroke-linecap="round" stroke-linejoin="round"/>
    <path d="M 147.82337951660156 95.19422149658203 C 179.311279296875 98.13314819335938 180.5690155029297 95.88164520263672 197.52505493164062 112.40396118164062" stroke-width="3.0" fill="none" stroke="rgb(0, 0, 0)" stroke-opacity="1.0" stroke-linecap="round" stroke-linejoin="round"/>
    <path d="M 121.669921875 150.49366760253906 C 162.3965301513672 158.16795349121094 109.32289123535156 139.3947296142578 102.37889099121094 156.44334411621094" stroke-width="3.0" fill="none" stroke="rgb(0, 0, 0)" stroke-opacity="1.0" stroke-linecap="round" stroke-linejoin="round"/>
    <path d="M 178.40663146972656 8.474117279052734 C 188.07211303710938 21.72684097290039 167.00765991210938 93.386962890625 179.02578735351562 47.86233901977539" stroke-width="3.0" fill="none" stroke="rgb(0, 0, 0)" stroke-opacity="1.0" stroke-linecap="round" stroke-linejoin="round"/>
    <path d="M 141.97413635253906 32.02707290649414 C 112.75554656982422 24.725976943969727 136.6024932861328 36.700843811035156 128.45501708984375 72.79188537597656" stroke-width="3.0" fill="none" stroke="rgb(0, 0, 0)" stroke-opacity="1.0" stroke-linecap="round" stroke-linejoin="round"/>
    <path d="M 107.74022674560547 43.995845794677734 C 60.14947509765625 -7.523255348205566 80.0760498046875 1.9210822582244873 117.34484100341797 30.318796157836914" stroke-width="3.0" fill="none" stroke="rgb(0, 0, 0)" stroke-opacity="1.0" stroke-linecap="round" stroke-linejoin="round"/>
    <path d="M 46.03702163696289 167.03578186035156 C 42.716190338134766 158.65219116210938 43.6512565612793 150.83580017089844 49.913368225097656 167.41497802734375" stroke-width="3.0" fill="none" stroke="rgb(0, 0, 0)" stroke-opacity="1.0" stroke-linecap="round" stroke-linejoin="round"/>
    <path d="M 52.727413177490234 79.32487487792969 C 24.388492584228516 134.75146484375 43.312774658203125 134.6720733642578 45.3265380859375 159.30902099609375" stroke-width="3.0" fill="none" stroke="rgb(0, 0, 0)" stroke-opacity="1.0" stroke-linecap="round" stroke-linejoin="round"/>
    <path d="M 72.5337905883789 138.95108032226562 C 135.78282165527344 157.85594177246094 100.05060577392578 146.94313049316406 88.09649658203125 146.80519104003906" stroke-width="3.0" fill="none" stroke="rgb(0, 0, 0)" stroke-opacity="1.0" stroke-linecap="round" stroke-linejoin="round"/>
    <path d="M 86.93505859375 197.60218811035156 C 64.62116241455078 198.50796508789062 48.018348693847656 178.05564880371094 49.29158020019531 164.63479614257812" stroke-width="3.0" fill="none" stroke="rgb(0, 0, 0)" stroke-opacity="1.0" stroke-linecap="round" stroke-linejoin="round"/>
    <path d="M 49.1494255065918 173.7678985595703 C 68.69779205322266 200.17880249023438 47.97978591918945 174.4619140625 38.51870346069336 147.15557861328125" stroke-width="3.0" fill="none" stroke="rgb(0, 0, 0)" stroke-opacity="1.0" stroke-linecap="round" stroke-linejoin="round"/>
    <path d="M 83.6181411743164 61.59386444091797 C 58.51054382324219 59.46608352661133 53.877540588378906 74.14183044433594 40.56435775756836 109.91360473632812" stroke-width="3.0" fill="none" stroke="rgb(0, 0, 0)" stroke-opacity="1.0" stroke-linecap="round" stroke-linejoin="round"/>
    <path d="M 155.40267944335938 140.13925170898438 C 105.01952362060547 156.73069763183594 83.66500091552734 153.8606719970703 139.9604034423828 149.77487182617188" stroke-width="3.0" fill="none" stroke="rgb(0, 0, 0)" stroke-opacity="1.0" stroke-linecap="round" stroke-linejoin="round"/>
    <path d="M 151.09756469726562 26.66293716430664 C 148.27508544921875 32.33010482788086 138.95472717285156 17.81625747680664 141.26535034179688 76.51554870605469" stroke-width="3.0" fill="none" stroke="rgb(0, 0, 0)" stroke-opacity="1.0" stroke-linecap="round" stroke-linejoin="round"/>
    <path d="M 146.08297729492188 99.76012420654297 C 124.87760162353516 109.26079559326172 123.41667938232422 102.5619125366211 115.43746948242188 92.70344543457031" stroke-width="3.0" fill="none" stroke="rgb(0, 0, 0)" stroke-opacity="1.0" stroke-linecap="round" stroke-linejoin="round"/>
    <path d="M 136.84335327148438 69.31983184814453 C 148.0706024169922 55.58623504638672 132.33935546875 66.7822265625 137.77783203125 80.98135375976562" stroke-width="3.0" fill="none" stroke="rgb(0, 0, 0)" stroke-opacity="1.0" stroke-linecap="round" stroke-linejoin="round"/>
    <path d="M 139.47171020507812 162.99642944335938 C 126.7926254272461 173.16473388671875 142.4958038330078 166.1887969970703 145.42431640625 146.5602264404297" stroke-width="3.0" fill="none" stroke="rgb(0, 0, 0)" stroke-opacity="1.0" stroke-linecap="round" stroke-linejoin="round"/>
    <path d="M 194.82923889160156 95.30286407470703 C 170.27659606933594 61.873600006103516 174.97256469726562 70.96430969238281 184.2202911376953 92.4129638671875" stroke-width="3.0" fill="none" stroke="rgb(0, 0, 0)" stroke-opacity="1.0" stroke-linecap="round" stroke-linejoin="round"/>
    <path d="M 150.53677368164062 78.95618438720703 C 128.19308471679688 54.002197265625 210.52059936523438 87.69207000732422 175.2684326171875 63.052154541015625" stroke-width="3.0" fill="none" stroke="rgb(0, 0, 0)" stroke-opacity="1.0" stroke-linecap="round" stroke-linejoin="round"/>
    <path d="M 113.55332946777344 77.24609375 C 79.2697525024414 66.54805755615234 138.1507110595703 69.11259460449219 110.88427734375 73.53398895263672" stroke-width="3.0" fill="none" stroke="rgb(0, 0, 0)" stroke-opacity="1.0" stroke-linecap="round" stroke-linejoin="round"/>
    <path d="M 164.748291015625 131.955078125 C 145.917236328125 157.90855407714844 102.94347381591797 146.72515869140625 96.05494689941406 152.32054138183594" stroke-width="3.0" fill="none" stroke="rgb(0, 0, 0)" stroke-opacity="1.0" stroke-linecap="round" stroke-linejoin="round"/>
    <path d="M 122.1741943359375 92.04688262939453 C 144.1878204345703 99.97025299072266 126.97907257080078 72.24468994140625 130.46249389648438 106.4128646850586" stroke-width="3.0" fill="none" stroke="rgb(0, 0, 0)" stroke-opacity="1.0" stroke-linecap="round" stroke-linejoin="round"/>
    <path d="M 186.97055053710938 116.08187103271484 C 165.79150390625 83.7960433959961 174.9835968017578 98.59622192382812 147.8325653076172 84.58995056152344" stroke-width="3.0" fill="none" stroke="rgb(0, 0, 0)" stroke-opacity="1.0" stroke-linecap="round" stroke-linejoin="round"/>
    <path d="M 93.77847290039062 26.276569366455078 C 127.24115753173828 29.26317596435547 87.654541015625 32.78270721435547 144.9154510498047 30.079679489135742" stroke-width="3.0" fill="none" stroke="rgb(0, 0, 0)" stroke-opacity="1.0" stroke-linecap="round" stroke-linejoin="round"/>
    <path d="M 60.21576690673828 115.74658966064453 C 60.29612731933594 105.82246398925781 51.36711120605469 125.60868072509766 72.268310546875 140.19215393066406" stroke-width="3.0" fill="none" stroke="rgb(0, 0, 0)" stroke-opacity="1.0" stroke-linecap="round" stroke-linejoin="round"/>
    <path d="M 132.2330322265625 104.2387924194336 C 122.50720977783203 93.39851379394531 126.64926147460938 118.39002990722656 110.13465881347656 85.62751770019531" stroke-width="3.0" fill="none" stroke="rgb(0, 0, 0)" stroke-opacity="1.0" stroke-linecap="round" stroke-linejoin="round"/>
    <path d="M 39.235755920410156 148.18089294433594 C 26.555925369262695 122.38872528076172 34.436431884765625 83.6478500366211 59.8763542175293 68.08421325683594" stroke-width="3.0" fill="none" stroke="rgb(0, 0, 0)" stroke-opacity="1.0" stroke-linecap="round" stroke-linejoin="round"/>
    <path d="M 102.71974182128906 196.470947265625 C 79.16679382324219 197.73760986328125 70.65288543701172 196.18658447265625 107.84735870361328 196.094970703125" stroke-width="3.0" fill="none" stroke="rgb(0, 0, 0)" stroke-opacity="1.0" stroke-linecap="round" stroke-linejoin="round"/>
    <path d="M 167.5019989013672 129.2883758544922 C 200.2302703857422 125.35921478271484 185.61468505859375 86.38836669921875 154.25274658203125 86.12842559814453" stroke-width="3.0" fill="none" stroke="rgb(0, 0, 0)" stroke-opacity="1.0" stroke-linecap="round" stroke-linejoin="round"/>
    <path d="M 155.23751831054688 72.91558074951172 C 132.48712158203125 86.29891967773438 171.97303771972656 75.7027587890625 149.5040740966797 70.58910369873047" stroke-width="3.0" fill="none" stroke="rgb(0, 0, 0)" stroke-opacity="1.0" stroke-linecap="round" stroke-linejoin="round"/>
    <path d="M 138.36634826660156 75.90802764892578 C 140.4678192138672 40.77904510498047 205.27801513671875 111.95531463623047 173.86415100097656 48.999794006347656" stroke-width="3.0" fill="none" stroke="rgb(0, 0, 0)" stroke-opacity="1.0" stroke-linecap="round" stroke-linejoin="round"/>
    <path d="M 153.9641571044922 96.57775115966797 C 175.57420349121094 108.32662200927734 172.95347595214844 103.58487701416016 182.06033325195312 122.53606414794922" stroke-width="3.0" fill="none" stroke="rgb(0, 0, 0)" stroke-opacity="1.0" stroke-linecap="round" stroke-linejoin="round"/>
    <path d="M 179.08348083496094 14.367267608642578 C 169.0584716796875 45.90652084350586 175.54452514648438 23.272357940673828 161.58090209960938 37.497154235839844" stroke-width="3.0" fill="none" stroke="rgb(0, 0, 0)" stroke-opacity="1.0" stroke-linecap="round" stroke-linejoin="round"/>
    <path d="M 122.33805847167969 105.99172973632812 C 145.61903381347656 99.95631408691406 131.358642578125 115.54374694824219 121.08385467529297 102.6590347290039" stroke-width="3.0" fill="none" stroke="rgb(0, 0, 0)" stroke-opacity="1.0" stroke-linecap="round" stroke-linejoin="round"/>
    <path d="M 61.325653076171875 115.64075469970703 C 57.11439514160156 109.90936279296875 60.98164367675781 109.57125091552734 60.9298095703125 117.92814636230469" stroke-width="3.0" fill="none" stroke="rgb(0, 0, 0)" stroke-opacity="1.0" stroke-linecap="round" stroke-linejoin="round"/>
    <path d="M 123.03143310546875 68.8106460571289 C 120.63557434082031 38.8011474609375 115.17308044433594 52.41189193725586 117.99118041992188 30.86515235900879" stroke-width="3.0" fill="none" stroke="rgb(0, 0, 0)" stroke-opacity="1.0" stroke-linecap="round" stroke-linejoin="round"/>
    <path d="M 148.29913330078125 29.736465454101562 C 144.4892120361328 35.607818603515625 162.16761779785156 8.4158296585083 177.83926391601562 8.186993598937988" stroke-width="3.0" fill="none" stroke="rgb(0, 0, 0)" stroke-opacity="1.0" stroke-linecap="round" stroke-linejoin="round"/>
  </g>
</svg>
