<?xml version="1.0" ?>
<svg xmlns="http://www.w3.org/2000/svg" version="1.1" width="224" height="224">
  <defs/>
  <g>
    <path d="M 50.603939056396484 117.26263427734375 C 53.998992919921875 118.76910400390625 41.110042572021484 106.33477783203125 39.034244537353516 97.56502532958984" stroke-width="3.0" fill="none" stroke="rgb(0, 0, 0)" stroke-opacity="1.0" stroke-linecap="round" stroke-linejoin="round"/>
    <path d="M 183.07620239257812 127.21434020996094 C 182.5355224609375 114.2822265625 188.9363555908203 115.08454132080078 187.18502807617188 119.4330062866211" stroke-width="3.0" fill="none" stroke="rgb(0, 0, 0)" stroke-opacity="1.0" stroke-linecap="round" stroke-linejoin="round"/>
    <path d="M 49.424888610839844 114.20167541503906 C 49.33267593383789 110.4827880859375 44.55643081665039 113.81634521484375 52.83871841430664 117.64684295654297" stroke-width="3.0" fill="none" stroke="rgb(0, 0, 0)" stroke-opacity="1.0" stroke-linecap="round" stroke-linejoin="round"/>
    <path d="M 182.96600341796875 97.98819732666016 C 153.0221405029297 92.55923461914062 171.1578369140625 80.9975357055664 195.19760131835938 113.4081039428711" stroke-width="3.0" fill="none" stroke="rgb(0, 0, 0)" stroke-opacity="1.0" stroke-linecap="round" stroke-linejoin="round"/>
    <path d="M 183.79598999023438 74.82797241210938 C 185.50717163085938 96.01302337646484 175.65565490722656 84.8506851196289 186.88339233398438 66.68091583251953" stroke-width="3.0" fill="none" stroke="rgb(0, 0, 0)" stroke-opacity="1.0" stroke-linecap="round" stroke-linejoin="round"/>
    <path d="M 130.93507385253906 101.66976928710938 C 152.68060302734375 114.4762954711914 106.28102111816406 103.50738525390625 133.68472290039062 103.18186950683594" stroke-width="3.0" fill="none" stroke="rgb(0, 0, 0)" stroke-opacity="1.0" stroke-linecap="round" stroke-linejoin="round"/>
    <path d="M 172.54420471191406 97.54884338378906 C 197.1414031982422 70.8983383178711 184.512451171875 74.89319610595703 150.76873779296875 87.5360336303711" stroke-width="3.0" fill="none" stroke="rgb(0, 0, 0)" stroke-opacity="1.0" stroke-linecap="round" stroke-linejoin="round"/>
    <path d="M 51.69942855834961 179.00477600097656 C 39.11978530883789 150.48321533203125 48.567935943603516 160.7805938720703 39.68999099731445 152.72488403320312" stroke-width="3.0" fill="none" stroke="rgb(0, 0, 0)" stroke-opacity="1.0" stroke-linecap="round" stroke-linejoin="round"/>
    <path d="M 66.1153564453125 189.990966796875 C 90.40508270263672 201.45614624023438 107.41085815429688 197.6004638671875 108.37701416015625 194.21542358398438" stroke-width="3.0" fill="none" stroke="rgb(0, 0, 0)" stroke-opacity="1.0" stroke-linecap="round" stroke-linejoin="round"/>
    <path d="M 88.39259338378906 29.5743408203125 C 92.29499816894531 70.73039245605469 94.78425598144531 24.949359893798828 90.96367645263672 46.71039962768555" stroke-width="3.0" fill="none" stroke="rgb(0, 0, 0)" stroke-opacity="1.0" stroke-linecap="round" stroke-linejoin="round"/>
    <path d="M 57.014122009277344 126.7804183959961 C 63.46052932739258 146.4493408203125 83.6427993774414 148.33584594726562 85.907470703125 145.7990264892578" stroke-width="3.0" fill="none" stroke="rgb(0, 0, 0)" stroke-opacity="1.0" stroke-linecap="round" stroke-linejoin="round"/>
    <path d="M 151.580810546875 71.0156021118164 C 208.05140686035156 71.2618637084961 184.96641540527344 85.53350067138672 144.42506408691406 85.92691040039062" stroke-width="3.0" fill="none" stroke="rgb(0, 0, 0)" stroke-opacity="1.0" stroke-linecap="round" stroke-linejoin="round"/>
    <path d="M 149.2023162841797 98.80380249023438 C 175.57032775878906 100.416748046875 169.9163360595703 98.9897689819336 189.28802490234375 110.06275939941406" stroke-width="3.0" fill="none" stroke="rgb(0, 0, 0)" stroke-opacity="1.0" stroke-linecap="round" stroke-linejoin="round"/>
    <path d="M 98.34087371826172 153.73512268066406 C 123.86000061035156 157.60337829589844 110.40025329589844 186.89154052734375 111.95585632324219 188.02391052246094" stroke-width="3.0" fill="none" stroke="rgb(0, 0, 0)" stroke-opacity="1.0" stroke-linecap="round" stroke-linejoin="round"/>
    <path d="M 172.86856079101562 9.172990798950195 C 193.0152587890625 0.6029653549194336 175.45211791992188 47.6180419921875 185.17306518554688 61.137367248535156" stroke-width="3.0" fill="none" stroke="rgb(0, 0, 0)" stroke-opacity="1.0" stroke-linecap="round" stroke-linejoin="round"/>
    <path d="M 132.33311462402344 32.822967529296875 C 128.05142211914062 51.68623733520508 135.70472717285156 37.94994354248047 128.83847045898438 69.93513488769531" stroke-width="3.0" fill="none" stroke="rgb(0, 0, 0)" stroke-opacity="1.0" stroke-linecap="round" stroke-linejoin="round"/>
    <path d="M 95.56428527832031 45.3581657409668 C 68.43575286865234 -2.5379581451416016 81.77198791503906 2.1220507621765137 101.28484344482422 43.78458023071289" stroke-width="3.0" fill="none" stroke="rgb(0, 0, 0)" stroke-opacity="1.0" stroke-linecap="round" stroke-linejoin="round"/>
    <path d="M 44.27922058105469 162.4053192138672 C 41.3918571472168 151.57554626464844 39.692562103271484 150.6721954345703 40.5174674987793 154.52040100097656" stroke-width="3.0" fill="none" stroke="rgb(0, 0, 0)" stroke-opacity="1.0" stroke-linecap="round" stroke-linejoin="round"/>
    <path d="M 31.974899291992188 109.40714263916016 C 25.009796142578125 125.96570587158203 36.0385627746582 142.96644592285156 41.8118896484375 154.06863403320312" stroke-width="3.0" fill="none" stroke="rgb(0, 0, 0)" stroke-opacity="1.0" stroke-linecap="round" stroke-linejoin="round"/>
    <path d="M 87.19060516357422 148.7117156982422 C 98.57424926757812 156.3917999267578 101.44651794433594 156.65220642089844 95.77293395996094 151.55911254882812" stroke-width="3.0" fill="none" stroke="rgb(0, 0, 0)" stroke-opacity="1.0" stroke-linecap="round" stroke-linejoin="round"/>
    <path d="M 75.92244720458984 195.8162841796875 C 47.22650909423828 177.94540405273438 61.63789749145508 181.536865234375 46.12608337402344 169.90594482421875" stroke-width="3.0" fill="none" stroke="rgb(0, 0, 0)" stroke-opacity="1.0" stroke-linecap="round" stroke-linejoin="round"/>
    <path d="M 43.646934509277344 164.2832794189453 C 57.48151397705078 182.4590301513672 40.982791900634766 161.53309631347656 39.462276458740234 149.7799835205078" stroke-width="3.0" fill="none" stroke="rgb(0, 0, 0)" stroke-opacity="1.0" stroke-linecap="round" stroke-linejoin="round"/>
    <path d="M 83.99420928955078 50.1041259765625 C 59.47372817993164 52.52391052246094 44.48052215576172 73.92807006835938 31.44773292541504 106.78634643554688" stroke-width="3.0" fill="none" stroke="rgb(0, 0, 0)" stroke-opacity="1.0" stroke-linecap="round" stroke-linejoin="round"/>
    <path d="M 146.04591369628906 142.68325805664062 C 142.91766357421875 162.72682189941406 122.64454650878906 144.61741638183594 136.1504669189453 158.60389709472656" stroke-width="3.0" fill="none" stroke="rgb(0, 0, 0)" stroke-opacity="1.0" stroke-linecap="round" stroke-linejoin="round"/>
    <path d="M 140.8916778564453 31.98794174194336 C 151.53416442871094 59.5476188659668 136.4969940185547 52.09336471557617 139.3824005126953 79.90804290771484" stroke-width="3.0" fill="none" stroke="rgb(0, 0, 0)" stroke-opacity="1.0" stroke-linecap="round" stroke-linejoin="round"/>
    <path d="M 145.44642639160156 102.16397094726562 C 121.50469207763672 114.1022720336914 111.22959899902344 103.97567749023438 131.21299743652344 107.84283447265625" stroke-width="3.0" fill="none" stroke="rgb(0, 0, 0)" stroke-opacity="1.0" stroke-linecap="round" stroke-linejoin="round"/>
    <path d="M 137.9163055419922 73.47650909423828 C 147.76739501953125 52.24454116821289 147.68896484375 55.73802947998047 144.50643920898438 59.079383850097656" stroke-width="3.0" fill="none" stroke="rgb(0, 0, 0)" stroke-opacity="1.0" stroke-linecap="round" stroke-linejoin="round"/>
    <path d="M 122.08380126953125 184.67355346679688 C 90.08099365234375 198.79067993164062 120.42189025878906 203.45455932617188 136.18641662597656 162.1285858154297" stroke-width="3.0" fill="none" stroke="rgb(0, 0, 0)" stroke-opacity="1.0" stroke-linecap="round" stroke-linejoin="round"/>
    <path d="M 195.6034698486328 94.81346893310547 C 159.87319946289062 69.63660430908203 132.94102478027344 99.11133575439453 186.9813232421875 86.77542114257812" stroke-width="3.0" fill="none" stroke="rgb(0, 0, 0)" stroke-opacity="1.0" stroke-linecap="round" stroke-linejoin="round"/>
    <path d="M 162.77261352539062 70.76521301269531 C 188.4630889892578 69.29324340820312 195.0282745361328 79.88348388671875 168.3279571533203 73.08209991455078" stroke-width="3.0" fill="none" stroke="rgb(0, 0, 0)" stroke-opacity="1.0" stroke-linecap="round" stroke-linejoin="round"/>
    <path d="M 110.83104705810547 78.09490203857422 C 86.04823303222656 72.52804565429688 141.9755859375 76.2159194946289 106.23194122314453 82.85041809082031" stroke-width="3.0" fill="none" stroke="rgb(0, 0, 0)" stroke-opacity="1.0" stroke-linecap="round" stroke-linejoin="round"/>
    <path d="M 138.665771484375 155.7861785888672 C 130.219482421875 153.96881103515625 124.82740783691406 162.22476196289062 103.12933349609375 141.1816864013672" stroke-width="3.0" fill="none" stroke="rgb(0, 0, 0)" stroke-opacity="1.0" stroke-linecap="round" stroke-linejoin="round"/>
    <path d="M 121.6888656616211 90.94435119628906 C 139.42417907714844 99.345947265625 133.81211853027344 80.25786590576172 129.33518981933594 98.12299346923828" stroke-width="3.0" fill="none" stroke="rgb(0, 0, 0)" stroke-opacity="1.0" stroke-linecap="round" stroke-linejoin="round"/>
    <path d="M 187.02952575683594 98.8680419921875 C 179.07957458496094 85.20575714111328 187.552734375 96.68763732910156 142.69610595703125 84.84864044189453" stroke-width="3.0" fill="none" stroke="rgb(0, 0, 0)" stroke-opacity="1.0" stroke-linecap="round" stroke-linejoin="round"/>
    <path d="M 82.95230102539062 10.37155818939209 C 112.6512451171875 19.844070434570312 115.22314453125 33.623390197753906 124.84917449951172 32.09481430053711" stroke-width="3.0" fill="none" stroke="rgb(0, 0, 0)" stroke-opacity="1.0" stroke-linecap="round" stroke-linejoin="round"/>
    <path d="M 51.24067687988281 116.86708068847656 C 46.524452209472656 110.72366333007812 53.9119758605957 125.20281982421875 52.19935989379883 116.7886734008789" stroke-width="3.0" fill="none" stroke="rgb(0, 0, 0)" stroke-opacity="1.0" stroke-linecap="round" stroke-linejoin="round"/>
    <path d="M 111.15424346923828 102.6981430053711 C 100.17147064208984 87.76874542236328 112.54438018798828 109.76378631591797 102.89689636230469 90.16450500488281" stroke-width="3.0" fill="none" stroke="rgb(0, 0, 0)" stroke-opacity="1.0" stroke-linecap="round" stroke-linejoin="round"/>
    <path d="M 31.022199630737305 126.43114471435547 C 29.276247024536133 101.29779052734375 33.11613082885742 103.212158203125 29.977394104003906 117.27156829833984" stroke-width="3.0" fill="none" stroke="rgb(0, 0, 0)" stroke-opacity="1.0" stroke-linecap="round" stroke-linejoin="round"/>
    <path d="M 90.1123046875 198.32713317871094 C 73.87324523925781 194.25010681152344 70.72107696533203 196.20364379882812 93.44407653808594 198.1961669921875" stroke-width="3.0" fill="none" stroke="rgb(0, 0, 0)" stroke-opacity="1.0" stroke-linecap="round" stroke-linejoin="round"/>
    <path d="M 146.30081176757812 144.318603515625 C 214.25729370117188 116.83570861816406 182.31881713867188 98.70348358154297 151.37571716308594 92.09469604492188" stroke-width="3.0" fill="none" stroke="rgb(0, 0, 0)" stroke-opacity="1.0" stroke-linecap="round" stroke-linejoin="round"/>
    <path d="M 156.5413055419922 73.76036071777344 C 122.21348571777344 76.00585174560547 175.29434204101562 81.56218719482422 148.67852783203125 68.84395599365234" stroke-width="3.0" fill="none" stroke="rgb(0, 0, 0)" stroke-opacity="1.0" stroke-linecap="round" stroke-linejoin="round"/>
    <path d="M 143.3370361328125 77.34394073486328 C 145.42782592773438 50.949214935302734 185.02542114257812 100.77871704101562 184.1735076904297 56.04033279418945" stroke-width="3.0" fill="none" stroke="rgb(0, 0, 0)" stroke-opacity="1.0" stroke-linecap="round" stroke-linejoin="round"/>
    <path d="M 151.35975646972656 99.64389038085938 C 160.8039093017578 102.47607421875 172.4987335205078 108.00556182861328 184.22984313964844 115.3410873413086" stroke-width="3.0" fill="none" stroke="rgb(0, 0, 0)" stroke-opacity="1.0" stroke-linecap="round" stroke-linejoin="round"/>
    <path d="M 178.04571533203125 11.754941940307617 C 170.53587341308594 44.47278594970703 177.79910278320312 21.42000961303711 162.56689453125 38.82712173461914" stroke-width="3.0" fill="none" stroke="rgb(0, 0, 0)" stroke-opacity="1.0" stroke-linecap="round" stroke-linejoin="round"/>
    <path d="M 125.35784149169922 104.57227325439453 C 149.2439422607422 103.4416275024414 127.00218963623047 111.32402801513672 106.92376708984375 102.8880386352539" stroke-width="3.0" fill="none" stroke="rgb(0, 0, 0)" stroke-opacity="1.0" stroke-linecap="round" stroke-linejoin="round"/>
    <path d="M 51.81045913696289 115.4765625 C 52.481475830078125 114.92898559570312 45.16010284423828 109.16122436523438 59.103546142578125 129.65798950195312" stroke-width="3.0" fill="none" stroke="rgb(0, 0, 0)" stroke-opacity="1.0" stroke-linecap="round" stroke-linejoin="round"/>
    <path d="M 122.85045623779297 80.51363372802734 C 129.5391845703125 56.91621780395508 120.09752655029297 55.32674026489258 122.505859375 34.37459945678711" stroke-width="3.0" fill="none" stroke="rgb(0, 0, 0)" stroke-opacity="1.0" stroke-linecap="round" stroke-linejoin="round"/>
    <path d="M 147.07115173339844 30.386138916015625 C 146.00546264648438 41.05735778808594 150.14442443847656 15.989766120910645 176.65150451660156 9.34119701385498" stroke-width="3.0" fill="none" stroke="rgb(0, 0, 0)" stroke-opacity="1.0" stroke-linecap="round" stroke-linejoin="round"/>
  </g>
</svg>
