<?xml version="1.0" ?>
<svg xmlns="http://www.w3.org/2000/svg" version="1.1" width="224" height="224">
  <defs/>
  <g>
    <path d="M 55.84733200073242 103.78834533691406 C 52.22920608520508 111.37789916992188 57.19961166381836 101.8646240234375 45.89944839477539 82.2392807006836" stroke-width="3.0" fill="none" stroke="rgb(0, 0, 0)" stroke-opacity="1.0" stroke-linecap="round" stroke-linejoin="round"/>
    <path d="M 185.85345458984375 122.21807861328125 C 182.88182067871094 102.880126953125 191.0087432861328 103.5979232788086 178.17947387695312 126.54383850097656" stroke-width="3.0" fill="none" stroke="rgb(0, 0, 0)" stroke-opacity="1.0" stroke-linecap="round" stroke-linejoin="round"/>
    <path d="M 57.39571762084961 113.57453918457031 C 55.36442184448242 117.57237243652344 53.45488739013672 119.8297119140625 57.35554504394531 124.08549499511719" stroke-width="3.0" fill="none" stroke="rgb(0, 0, 0)" stroke-opacity="1.0" stroke-linecap="round" stroke-linejoin="round"/>
    <path d="M 178.40611267089844 95.18653869628906 C 156.79476928710938 84.9699935913086 176.21311950683594 80.96746063232422 195.74497985839844 113.36595916748047" stroke-width="3.0" fill="none" stroke="rgb(0, 0, 0)" stroke-opacity="1.0" stroke-linecap="round" stroke-linejoin="round"/>
    <path d="M 179.224853515625 71.03324890136719 C 174.14813232421875 97.16693878173828 184.05718994140625 93.02871704101562 181.10604858398438 58.293975830078125" stroke-width="3.0" fill="none" stroke="rgb(0, 0, 0)" stroke-opacity="1.0" stroke-linecap="round" stroke-linejoin="round"/>
    <path d="M 122.5429458618164 101.87825775146484 C 148.62266540527344 103.63467407226562 107.26616668701172 96.77008056640625 138.18496704101562 100.73857879638672" stroke-width="3.0" fill="none" stroke="rgb(0, 0, 0)" stroke-opacity="1.0" stroke-linecap="round" stroke-linejoin="round"/>
    <path d="M 165.5032501220703 98.31355285644531 C 198.82383728027344 81.0306625366211 181.43392944335938 69.16206359863281 153.8113555908203 86.32996368408203" stroke-width="3.0" fill="none" stroke="rgb(0, 0, 0)" stroke-opacity="1.0" stroke-linecap="round" stroke-linejoin="round"/>
    <path d="M 57.26371383666992 182.7713165283203 C 36.581111907958984 157.56048583984375 43.95821762084961 166.517333984375 48.96514892578125 169.3760528564453" stroke-width="3.0" fill="none" stroke="rgb(0, 0, 0)" stroke-opacity="1.0" stroke-linecap="round" stroke-linejoin="round"/>
    <path d="M 53.95402145385742 183.30686950683594 C 90.34159088134766 211.86508178710938 107.36939239501953 198.69100952148438 132.46290588378906 178.8346710205078" stroke-width="3.0" fill="none" stroke="rgb(0, 0, 0)" stroke-opacity="1.0" stroke-linecap="round" stroke-linejoin="round"/>
    <path d="M 85.65143585205078 31.466562271118164 C 97.0914077758789 62.26149368286133 81.00750732421875 14.458438873291016 85.62442779541016 53.19547653198242" stroke-width="3.0" fill="none" stroke="rgb(0, 0, 0)" stroke-opacity="1.0" stroke-linecap="round" stroke-linejoin="round"/>
    <path d="M 59.355037689208984 123.11183166503906 C 51.26997375488281 134.2560577392578 107.95677947998047 149.86962890625 97.58243560791016 153.40562438964844" stroke-width="3.0" fill="none" stroke="rgb(0, 0, 0)" stroke-opacity="1.0" stroke-linecap="round" stroke-linejoin="round"/>
    <path d="M 142.4165802001953 71.5595932006836 C 209.93446350097656 67.92649841308594 187.84840393066406 81.66429901123047 146.0360870361328 86.22584533691406" stroke-width="3.0" fill="none" stroke="rgb(0, 0, 0)" stroke-opacity="1.0" stroke-linecap="round" stroke-linejoin="round"/>
    <path d="M 151.8548583984375 98.37067413330078 C 184.87098693847656 101.364013671875 178.55992126464844 97.3297348022461 188.36314392089844 111.55030822753906" stroke-width="3.0" fill="none" stroke="rgb(0, 0, 0)" stroke-opacity="1.0" stroke-linecap="round" stroke-linejoin="round"/>
    <path d="M 113.08457946777344 157.03936767578125 C 145.3401641845703 146.6365966796875 115.73715209960938 158.52191162109375 125.83332061767578 152.2979736328125" stroke-width="3.0" fill="none" stroke="rgb(0, 0, 0)" stroke-opacity="1.0" stroke-linecap="round" stroke-linejoin="round"/>
    <path d="M 175.63848876953125 6.728384971618652 C 190.7910614013672 4.166102886199951 173.91616821289062 60.396053314208984 179.30007934570312 53.394474029541016" stroke-width="3.0" fill="none" stroke="rgb(0, 0, 0)" stroke-opacity="1.0" stroke-linecap="round" stroke-linejoin="round"/>
    <path d="M 132.98785400390625 30.926414489746094 C 124.91412353515625 55.0092658996582 137.01425170898438 37.88399124145508 125.96400451660156 71.84428405761719" stroke-width="3.0" fill="none" stroke="rgb(0, 0, 0)" stroke-opacity="1.0" stroke-linecap="round" stroke-linejoin="round"/>
    <path d="M 87.89752960205078 47.1254997253418 C 75.8366928100586 -6.059274673461914 82.5423812866211 2.2446868419647217 110.30411529541016 35.19869613647461" stroke-width="3.0" fill="none" stroke="rgb(0, 0, 0)" stroke-opacity="1.0" stroke-linecap="round" stroke-linejoin="round"/>
    <path d="M 44.148983001708984 165.37022399902344 C 40.88019561767578 152.85791015625 36.14472579956055 147.26429748535156 41.28504180908203 155.12879943847656" stroke-width="3.0" fill="none" stroke="rgb(0, 0, 0)" stroke-opacity="1.0" stroke-linecap="round" stroke-linejoin="round"/>
    <path d="M 35.32440948486328 101.81328582763672 C 23.819290161132812 125.30945587158203 36.82179260253906 144.09835815429688 42.04196548461914 155.24505615234375" stroke-width="3.0" fill="none" stroke="rgb(0, 0, 0)" stroke-opacity="1.0" stroke-linecap="round" stroke-linejoin="round"/>
    <path d="M 86.08103942871094 142.60020446777344 C 106.8633804321289 162.46116638183594 122.40186309814453 148.34947204589844 109.06946563720703 158.98841857910156" stroke-width="3.0" fill="none" stroke="rgb(0, 0, 0)" stroke-opacity="1.0" stroke-linecap="round" stroke-linejoin="round"/>
    <path d="M 79.2022476196289 198.06735229492188 C 65.43932342529297 192.9725799560547 54.7707405090332 179.64971923828125 49.73481369018555 174.01353454589844" stroke-width="3.0" fill="none" stroke="rgb(0, 0, 0)" stroke-opacity="1.0" stroke-linecap="round" stroke-linejoin="round"/>
    <path d="M 44.11474609375 164.6813201904297 C 58.630516052246094 195.29769897460938 45.690406799316406 162.61276245117188 39.97124481201172 153.61708068847656" stroke-width="3.0" fill="none" stroke="rgb(0, 0, 0)" stroke-opacity="1.0" stroke-linecap="round" stroke-linejoin="round"/>
    <path d="M 81.14762115478516 56.76506805419922 C 54.5711555480957 57.73833465576172 49.52510452270508 71.1495590209961 32.256378173828125 106.10230255126953" stroke-width="3.0" fill="none" stroke="rgb(0, 0, 0)" stroke-opacity="1.0" stroke-linecap="round" stroke-linejoin="round"/>
    <path d="M 154.01185607910156 139.68572998046875 C 138.195068359375 159.14151000976562 118.18341064453125 149.1870880126953 129.0756378173828 154.1444091796875" stroke-width="3.0" fill="none" stroke="rgb(0, 0, 0)" stroke-opacity="1.0" stroke-linecap="round" stroke-linejoin="round"/>
    <path d="M 141.49069213867188 30.353185653686523 C 145.89613342285156 66.1303939819336 133.34400939941406 53.34341049194336 135.32046508789062 74.50629425048828" stroke-width="3.0" fill="none" stroke="rgb(0, 0, 0)" stroke-opacity="1.0" stroke-linecap="round" stroke-linejoin="round"/>
    <path d="M 146.1698455810547 97.62863159179688 C 116.66415405273438 109.09819793701172 131.9102783203125 109.89215087890625 138.99647521972656 103.1927261352539" stroke-width="3.0" fill="none" stroke="rgb(0, 0, 0)" stroke-opacity="1.0" stroke-linecap="round" stroke-linejoin="round"/>
    <path d="M 136.27691650390625 71.50772857666016 C 144.37271118164062 56.61003875732422 135.62144470214844 64.31824493408203 138.09646606445312 66.29600524902344" stroke-width="3.0" fill="none" stroke="rgb(0, 0, 0)" stroke-opacity="1.0" stroke-linecap="round" stroke-linejoin="round"/>
    <path d="M 135.44602966308594 175.64634704589844 C 122.5785140991211 187.0495147705078 136.75924682617188 182.39187622070312 147.2764434814453 147.84629821777344" stroke-width="3.0" fill="none" stroke="rgb(0, 0, 0)" stroke-opacity="1.0" stroke-linecap="round" stroke-linejoin="round"/>
    <path d="M 193.95396423339844 96.75629425048828 C 167.2327880859375 74.42356872558594 151.6203155517578 80.80529022216797 184.99850463867188 84.81713104248047" stroke-width="3.0" fill="none" stroke="rgb(0, 0, 0)" stroke-opacity="1.0" stroke-linecap="round" stroke-linejoin="round"/>
    <path d="M 147.33367919921875 78.10801696777344 C 163.52706909179688 63.91786575317383 202.58509826660156 76.27955627441406 175.8575439453125 64.56834411621094" stroke-width="3.0" fill="none" stroke="rgb(0, 0, 0)" stroke-opacity="1.0" stroke-linecap="round" stroke-linejoin="round"/>
    <path d="M 109.16973114013672 81.74116516113281 C 89.57776641845703 69.83906555175781 134.32786560058594 76.09609985351562 110.3525390625 82.13005065917969" stroke-width="3.0" fill="none" stroke="rgb(0, 0, 0)" stroke-opacity="1.0" stroke-linecap="round" stroke-linejoin="round"/>
    <path d="M 151.7106170654297 144.1571044921875 C 129.5706024169922 161.06687927246094 116.1327896118164 148.5556640625 99.89363861083984 157.19810485839844" stroke-width="3.0" fill="none" stroke="rgb(0, 0, 0)" stroke-opacity="1.0" stroke-linecap="round" stroke-linejoin="round"/>
    <path d="M 124.79203796386719 88.23663330078125 C 142.41928100585938 99.13621520996094 132.88352966308594 70.49278259277344 129.0838623046875 104.13452911376953" stroke-width="3.0" fill="none" stroke="rgb(0, 0, 0)" stroke-opacity="1.0" stroke-linecap="round" stroke-linejoin="round"/>
    <path d="M 190.54461669921875 113.80352020263672 C 176.96865844726562 74.86329650878906 181.49559020996094 94.0491943359375 140.88662719726562 83.01646423339844" stroke-width="3.0" fill="none" stroke="rgb(0, 0, 0)" stroke-opacity="1.0" stroke-linecap="round" stroke-linejoin="round"/>
    <path d="M 85.91545104980469 8.47916316986084 C 106.8070297241211 13.925569534301758 113.1993179321289 32.252994537353516 121.92351531982422 29.699254989624023" stroke-width="3.0" fill="none" stroke="rgb(0, 0, 0)" stroke-opacity="1.0" stroke-linecap="round" stroke-linejoin="round"/>
    <path d="M 58.23639678955078 123.73966217041016 C 53.47694778442383 113.95836639404297 67.63868713378906 128.98907470703125 57.78485870361328 121.80496215820312" stroke-width="3.0" fill="none" stroke="rgb(0, 0, 0)" stroke-opacity="1.0" stroke-linecap="round" stroke-linejoin="round"/>
    <path d="M 134.10665893554688 102.49864959716797 C 122.22566223144531 91.30621337890625 120.53136444091797 115.0621566772461 108.61393737792969 89.90532684326172" stroke-width="3.0" fill="none" stroke="rgb(0, 0, 0)" stroke-opacity="1.0" stroke-linecap="round" stroke-linejoin="round"/>
    <path d="M 31.21714210510254 132.68917846679688 C 26.339929580688477 115.89663696289062 34.79109191894531 100.0956802368164 31.320119857788086 109.35208892822266" stroke-width="3.0" fill="none" stroke="rgb(0, 0, 0)" stroke-opacity="1.0" stroke-linecap="round" stroke-linejoin="round"/>
    <path d="M 79.1704330444336 197.49691772460938 C 71.59954071044922 196.36912536621094 70.87005615234375 192.1090545654297 92.52936553955078 198.50828552246094" stroke-width="3.0" fill="none" stroke="rgb(0, 0, 0)" stroke-opacity="1.0" stroke-linecap="round" stroke-linejoin="round"/>
    <path d="M 152.64097595214844 141.8760528564453 C 208.80430603027344 110.97676849365234 183.74288940429688 92.75425720214844 148.61865234375 93.30228424072266" stroke-width="3.0" fill="none" stroke="rgb(0, 0, 0)" stroke-opacity="1.0" stroke-linecap="round" stroke-linejoin="round"/>
    <path d="M 157.49974060058594 69.71318817138672 C 124.7646484375 79.87006378173828 172.92555236816406 85.99685668945312 146.56930541992188 70.00080871582031" stroke-width="3.0" fill="none" stroke="rgb(0, 0, 0)" stroke-opacity="1.0" stroke-linecap="round" stroke-linejoin="round"/>
    <path d="M 139.971923828125 78.85237121582031 C 147.53187561035156 42.7358283996582 195.08546447753906 106.54657745361328 175.8937530517578 47.780052185058594" stroke-width="3.0" fill="none" stroke="rgb(0, 0, 0)" stroke-opacity="1.0" stroke-linecap="round" stroke-linejoin="round"/>
    <path d="M 158.307373046875 98.46627807617188 C 163.8007049560547 104.91813659667969 178.48048400878906 104.1179428100586 183.34510803222656 114.16053009033203" stroke-width="3.0" fill="none" stroke="rgb(0, 0, 0)" stroke-opacity="1.0" stroke-linecap="round" stroke-linejoin="round"/>
    <path d="M 179.25682067871094 14.336008071899414 C 170.7958984375 43.93228530883789 176.75765991210938 21.919904708862305 162.5137939453125 36.72051239013672" stroke-width="3.0" fill="none" stroke="rgb(0, 0, 0)" stroke-opacity="1.0" stroke-linecap="round" stroke-linejoin="round"/>
    <path d="M 117.99876403808594 102.9651107788086 C 140.1962127685547 106.5064926147461 134.04794311523438 112.48626708984375 112.4808120727539 97.7501449584961" stroke-width="3.0" fill="none" stroke="rgb(0, 0, 0)" stroke-opacity="1.0" stroke-linecap="round" stroke-linejoin="round"/>
    <path d="M 58.51392364501953 123.17205810546875 C 53.22060012817383 101.13165283203125 52.0274772644043 109.66686248779297 60.94356918334961 126.67887878417969" stroke-width="3.0" fill="none" stroke="rgb(0, 0, 0)" stroke-opacity="1.0" stroke-linecap="round" stroke-linejoin="round"/>
    <path d="M 124.92713928222656 77.34246826171875 C 130.8798370361328 39.626251220703125 119.00650024414062 50.9704704284668 126.64875793457031 30.78423500061035" stroke-width="3.0" fill="none" stroke="rgb(0, 0, 0)" stroke-opacity="1.0" stroke-linecap="round" stroke-linejoin="round"/>
    <path d="M 147.35072326660156 31.22832489013672 C 145.54493713378906 37.82642364501953 157.4207000732422 10.687278747558594 176.70132446289062 7.784521579742432" stroke-width="3.0" fill="none" stroke="rgb(0, 0, 0)" stroke-opacity="1.0" stroke-linecap="round" stroke-linejoin="round"/>
  </g>
</svg>
