<?xml version="1.0" ?>
<svg xmlns="http://www.w3.org/2000/svg" version="1.1" width="224" height="224">
  <defs/>
  <g>
    <path d="M 52.485382080078125 118.1117935180664 C 55.285648345947266 118.51768493652344 43.140785217285156 108.06686401367188 40.1423225402832 95.83650970458984" stroke-width="3.0" fill="none" stroke="rgb(0, 0, 0)" stroke-opacity="1.0" stroke-linecap="round" stroke-linejoin="round"/>
    <path d="M 180.34446716308594 125.81011962890625 C 181.0665740966797 108.99261474609375 186.3813934326172 114.51322937011719 188.7069854736328 120.73568725585938" stroke-width="3.0" fill="none" stroke="rgb(0, 0, 0)" stroke-opacity="1.0" stroke-linecap="round" stroke-linejoin="round"/>
    <path d="M 50.458984375 112.8822021484375 C 50.6674919128418 114.0706558227539 47.44662094116211 107.64337921142578 51.77027893066406 115.71919250488281" stroke-width="3.0" fill="none" stroke="rgb(0, 0, 0)" stroke-opacity="1.0" stroke-linecap="round" stroke-linejoin="round"/>
    <path d="M 184.63632202148438 96.07508087158203 C 153.69711303710938 91.87020874023438 172.8971405029297 76.29179382324219 194.46339416503906 114.60891723632812" stroke-width="3.0" fill="none" stroke="rgb(0, 0, 0)" stroke-opacity="1.0" stroke-linecap="round" stroke-linejoin="round"/>
    <path d="M 186.02943420410156 74.05470275878906 C 185.0729522705078 94.46530151367188 183.4345703125 84.71632385253906 186.81536865234375 66.4202651977539" stroke-width="3.0" fill="none" stroke="rgb(0, 0, 0)" stroke-opacity="1.0" stroke-linecap="round" stroke-linejoin="round"/>
    <path d="M 129.73367309570312 101.46640014648438 C 141.3352508544922 117.34650421142578 109.54177856445312 99.3936538696289 132.61402893066406 108.26165771484375" stroke-width="3.0" fill="none" stroke="rgb(0, 0, 0)" stroke-opacity="1.0" stroke-linecap="round" stroke-linejoin="round"/>
    <path d="M 168.0997772216797 95.30847930908203 C 201.74815368652344 70.69499206542969 186.11961364746094 73.68618774414062 153.54591369628906 85.60713195800781" stroke-width="3.0" fill="none" stroke="rgb(0, 0, 0)" stroke-opacity="1.0" stroke-linecap="round" stroke-linejoin="round"/>
    <path d="M 50.6910285949707 179.69906616210938 C 35.652198791503906 154.19728088378906 47.01681900024414 159.39599609375 39.70210266113281 152.07125854492188" stroke-width="3.0" fill="none" stroke="rgb(0, 0, 0)" stroke-opacity="1.0" stroke-linecap="round" stroke-linejoin="round"/>
    <path d="M 69.099365234375 191.47860717773438 C 88.02230072021484 201.20884704589844 106.14173889160156 193.94696044921875 104.78578186035156 193.37319946289062" stroke-width="3.0" fill="none" stroke="rgb(0, 0, 0)" stroke-opacity="1.0" stroke-linecap="round" stroke-linejoin="round"/>
    <path d="M 85.6904067993164 24.69725799560547 C 89.84871673583984 70.43125915527344 86.04950714111328 22.79950714111328 90.73831939697266 59.08810806274414" stroke-width="3.0" fill="none" stroke="rgb(0, 0, 0)" stroke-opacity="1.0" stroke-linecap="round" stroke-linejoin="round"/>
    <path d="M 59.07572937011719 127.48160552978516 C 68.87239837646484 137.0916748046875 87.11314392089844 141.88755798339844 85.51861572265625 144.44595336914062" stroke-width="3.0" fill="none" stroke="rgb(0, 0, 0)" stroke-opacity="1.0" stroke-linecap="round" stroke-linejoin="round"/>
    <path d="M 148.5779571533203 72.01396179199219 C 208.51202392578125 75.1946792602539 185.2272186279297 84.84632873535156 142.55007934570312 84.37662506103516" stroke-width="3.0" fill="none" stroke="rgb(0, 0, 0)" stroke-opacity="1.0" stroke-linecap="round" stroke-linejoin="round"/>
    <path d="M 148.59237670898438 101.93079376220703 C 177.37770080566406 102.55589294433594 174.53575134277344 101.02010345458984 188.4654998779297 106.83654022216797" stroke-width="3.0" fill="none" stroke="rgb(0, 0, 0)" stroke-opacity="1.0" stroke-linecap="round" stroke-linejoin="round"/>
    <path d="M 97.97400665283203 154.60067749023438 C 116.35894012451172 160.548583984375 105.45298767089844 186.3348846435547 110.85193634033203 189.6175994873047" stroke-width="3.0" fill="none" stroke="rgb(0, 0, 0)" stroke-opacity="1.0" stroke-linecap="round" stroke-linejoin="round"/>
    <path d="M 172.76766967773438 9.401924133300781 C 189.1978759765625 -2.999323606491089 177.19384765625 49.396305084228516 186.87640380859375 61.08748245239258" stroke-width="3.0" fill="none" stroke="rgb(0, 0, 0)" stroke-opacity="1.0" stroke-linecap="round" stroke-linejoin="round"/>
    <path d="M 132.3961639404297 33.1795539855957 C 131.59762573242188 65.57119750976562 134.57833862304688 39.605831146240234 133.63494873046875 69.54696655273438" stroke-width="3.0" fill="none" stroke="rgb(0, 0, 0)" stroke-opacity="1.0" stroke-linecap="round" stroke-linejoin="round"/>
    <path d="M 94.10224151611328 48.98309326171875 C 72.74539947509766 -1.4921678304672241 81.70211029052734 7.776407718658447 101.26322174072266 42.82582092285156" stroke-width="3.0" fill="none" stroke="rgb(0, 0, 0)" stroke-opacity="1.0" stroke-linecap="round" stroke-linejoin="round"/>
    <path d="M 41.7862663269043 161.2601776123047 C 42.630496978759766 153.87474060058594 44.22548294067383 154.641357421875 40.46223449707031 158.41868591308594" stroke-width="3.0" fill="none" stroke="rgb(0, 0, 0)" stroke-opacity="1.0" stroke-linecap="round" stroke-linejoin="round"/>
    <path d="M 32.28617858886719 103.86515045166016 C 23.641292572021484 124.90757751464844 37.34933090209961 141.51348876953125 39.631290435791016 152.3053436279297" stroke-width="3.0" fill="none" stroke="rgb(0, 0, 0)" stroke-opacity="1.0" stroke-linecap="round" stroke-linejoin="round"/>
    <path d="M 88.6725082397461 147.2350311279297 C 98.07440948486328 156.20970153808594 100.34581756591797 156.87977600097656 91.12051391601562 150.6421661376953" stroke-width="3.0" fill="none" stroke="rgb(0, 0, 0)" stroke-opacity="1.0" stroke-linecap="round" stroke-linejoin="round"/>
    <path d="M 75.15470886230469 194.6165771484375 C 48.5025749206543 177.79685974121094 63.715843200683594 185.96026611328125 46.348670959472656 173.09385681152344" stroke-width="3.0" fill="none" stroke="rgb(0, 0, 0)" stroke-opacity="1.0" stroke-linecap="round" stroke-linejoin="round"/>
    <path d="M 43.50728988647461 164.48260498046875 C 56.22468948364258 174.14520263671875 35.85244369506836 161.86199951171875 39.183807373046875 147.1329345703125" stroke-width="3.0" fill="none" stroke="rgb(0, 0, 0)" stroke-opacity="1.0" stroke-linecap="round" stroke-linejoin="round"/>
    <path d="M 84.64859008789062 52.400299072265625 C 56.52859878540039 55.57808303833008 44.857887268066406 72.42569732666016 30.42630386352539 104.37689971923828" stroke-width="3.0" fill="none" stroke="rgb(0, 0, 0)" stroke-opacity="1.0" stroke-linecap="round" stroke-linejoin="round"/>
    <path d="M 150.97337341308594 150.51046752929688 C 143.96780395507812 163.91407775878906 129.37826538085938 144.19805908203125 139.47299194335938 163.02407836914062" stroke-width="3.0" fill="none" stroke="rgb(0, 0, 0)" stroke-opacity="1.0" stroke-linecap="round" stroke-linejoin="round"/>
    <path d="M 140.51258850097656 33.919803619384766 C 150.5625 61.66236877441406 137.3480987548828 57.9626579284668 138.8820037841797 77.19365692138672" stroke-width="3.0" fill="none" stroke="rgb(0, 0, 0)" stroke-opacity="1.0" stroke-linecap="round" stroke-linejoin="round"/>
    <path d="M 146.6757049560547 101.48908996582031 C 130.31533813476562 115.43255615234375 119.0333251953125 100.40099334716797 128.46800231933594 103.47172546386719" stroke-width="3.0" fill="none" stroke="rgb(0, 0, 0)" stroke-opacity="1.0" stroke-linecap="round" stroke-linejoin="round"/>
    <path d="M 138.3938751220703 75.42752075195312 C 148.36007690429688 54.22286605834961 149.73165893554688 56.6634407043457 151.1110076904297 58.051326751708984" stroke-width="3.0" fill="none" stroke="rgb(0, 0, 0)" stroke-opacity="1.0" stroke-linecap="round" stroke-linejoin="round"/>
    <path d="M 119.68228149414062 186.95132446289062 C 92.39810943603516 189.55111694335938 116.06844329833984 201.304931640625 134.50704956054688 169.65675354003906" stroke-width="3.0" fill="none" stroke="rgb(0, 0, 0)" stroke-opacity="1.0" stroke-linecap="round" stroke-linejoin="round"/>
    <path d="M 191.70347595214844 94.5875015258789 C 158.60610961914062 70.61566162109375 141.9928741455078 98.65082550048828 186.12310791015625 86.12924194335938" stroke-width="3.0" fill="none" stroke="rgb(0, 0, 0)" stroke-opacity="1.0" stroke-linecap="round" stroke-linejoin="round"/>
    <path d="M 170.4473419189453 70.33122253417969 C 190.85484313964844 71.57688903808594 194.89112854003906 78.8458480834961 166.17877197265625 76.09367370605469" stroke-width="3.0" fill="none" stroke="rgb(0, 0, 0)" stroke-opacity="1.0" stroke-linecap="round" stroke-linejoin="round"/>
    <path d="M 108.94369506835938 80.02355194091797 C 88.7217788696289 70.4862289428711 140.81983947753906 74.99173736572266 104.310791015625 82.25968170166016" stroke-width="3.0" fill="none" stroke="rgb(0, 0, 0)" stroke-opacity="1.0" stroke-linecap="round" stroke-linejoin="round"/>
    <path d="M 142.15478515625 158.5939178466797 C 131.7592315673828 150.40504455566406 122.15790557861328 155.8753662109375 103.90017700195312 139.38111877441406" stroke-width="3.0" fill="none" stroke="rgb(0, 0, 0)" stroke-opacity="1.0" stroke-linecap="round" stroke-linejoin="round"/>
    <path d="M 124.55804443359375 90.08641815185547 C 142.14344787597656 99.90008544921875 134.00672912597656 77.17754364013672 129.20555114746094 97.53302001953125" stroke-width="3.0" fill="none" stroke="rgb(0, 0, 0)" stroke-opacity="1.0" stroke-linecap="round" stroke-linejoin="round"/>
    <path d="M 188.65643310546875 98.82611846923828 C 178.0217742919922 82.96969604492188 187.37039184570312 98.9872817993164 141.430908203125 82.96508026123047" stroke-width="3.0" fill="none" stroke="rgb(0, 0, 0)" stroke-opacity="1.0" stroke-linecap="round" stroke-linejoin="round"/>
    <path d="M 82.34506225585938 12.135758399963379 C 111.7598648071289 19.133811950683594 113.60491180419922 32.111480712890625 122.5267562866211 31.228897094726562" stroke-width="3.0" fill="none" stroke="rgb(0, 0, 0)" stroke-opacity="1.0" stroke-linecap="round" stroke-linejoin="round"/>
    <path d="M 51.869895935058594 115.53497314453125 C 49.535133361816406 109.06399536132812 54.44743347167969 125.026123046875 51.85014724731445 117.2944107055664" stroke-width="3.0" fill="none" stroke="rgb(0, 0, 0)" stroke-opacity="1.0" stroke-linecap="round" stroke-linejoin="round"/>
    <path d="M 113.72256469726562 103.7090072631836 C 99.55699157714844 86.1300277709961 118.88619995117188 104.02484893798828 105.24811553955078 94.31961059570312" stroke-width="3.0" fill="none" stroke="rgb(0, 0, 0)" stroke-opacity="1.0" stroke-linecap="round" stroke-linejoin="round"/>
    <path d="M 29.50383949279785 124.66584014892578 C 29.797677993774414 98.31989288330078 30.267589569091797 103.95716857910156 28.914758682250977 117.94221496582031" stroke-width="3.0" fill="none" stroke="rgb(0, 0, 0)" stroke-opacity="1.0" stroke-linecap="round" stroke-linejoin="round"/>
    <path d="M 92.91191101074219 196.01329040527344 C 74.22818756103516 195.82456970214844 70.88882446289062 196.0878143310547 95.18584442138672 196.75064086914062" stroke-width="3.0" fill="none" stroke="rgb(0, 0, 0)" stroke-opacity="1.0" stroke-linecap="round" stroke-linejoin="round"/>
    <path d="M 154.3909912109375 139.78286743164062 C 211.28590393066406 112.01290893554688 180.57704162597656 98.87858581542969 150.79202270507812 90.257568359375" stroke-width="3.0" fill="none" stroke="rgb(0, 0, 0)" stroke-opacity="1.0" stroke-linecap="round" stroke-linejoin="round"/>
    <path d="M 153.00653076171875 75.77711486816406 C 126.80291748046875 75.00177764892578 172.2567596435547 86.46438598632812 152.56344604492188 69.79412841796875" stroke-width="3.0" fill="none" stroke="rgb(0, 0, 0)" stroke-opacity="1.0" stroke-linecap="round" stroke-linejoin="round"/>
    <path d="M 147.97772216796875 74.84362030029297 C 147.34080505371094 53.601932525634766 187.27940368652344 101.58832550048828 186.04542541503906 61.632991790771484" stroke-width="3.0" fill="none" stroke="rgb(0, 0, 0)" stroke-opacity="1.0" stroke-linecap="round" stroke-linejoin="round"/>
    <path d="M 149.25152587890625 95.37931823730469 C 162.2501678466797 101.01455688476562 173.1930389404297 104.34478759765625 184.48773193359375 113.85377502441406" stroke-width="3.0" fill="none" stroke="rgb(0, 0, 0)" stroke-opacity="1.0" stroke-linecap="round" stroke-linejoin="round"/>
    <path d="M 176.2335968017578 16.232975006103516 C 167.5586700439453 40.26829147338867 180.5574493408203 27.276155471801758 163.75857543945312 38.44734191894531" stroke-width="3.0" fill="none" stroke="rgb(0, 0, 0)" stroke-opacity="1.0" stroke-linecap="round" stroke-linejoin="round"/>
    <path d="M 125.9828872680664 106.4669189453125 C 152.56295776367188 105.76808166503906 124.9100112915039 111.1131591796875 111.9287338256836 102.80013275146484" stroke-width="3.0" fill="none" stroke="rgb(0, 0, 0)" stroke-opacity="1.0" stroke-linecap="round" stroke-linejoin="round"/>
    <path d="M 51.34600067138672 115.10246276855469 C 51.421966552734375 116.64329528808594 46.114463806152344 108.58802795410156 59.278987884521484 126.84229278564453" stroke-width="3.0" fill="none" stroke="rgb(0, 0, 0)" stroke-opacity="1.0" stroke-linecap="round" stroke-linejoin="round"/>
    <path d="M 121.35348510742188 80.4375228881836 C 129.79461669921875 57.98794937133789 115.7711410522461 54.24496078491211 122.09908294677734 37.176265716552734" stroke-width="3.0" fill="none" stroke="rgb(0, 0, 0)" stroke-opacity="1.0" stroke-linecap="round" stroke-linejoin="round"/>
    <path d="M 148.5845184326172 29.764144897460938 C 146.22869873046875 37.282325744628906 148.722900390625 16.2607421875 176.371337890625 7.842800140380859" stroke-width="3.0" fill="none" stroke="rgb(0, 0, 0)" stroke-opacity="1.0" stroke-linecap="round" stroke-linejoin="round"/>
  </g>
</svg>
