<?xml version="1.0" ?>
<svg xmlns="http://www.w3.org/2000/svg" version="1.1" width="224" height="224">
  <defs/>
  <g>
    <path d="M 60.564231872558594 97.82228088378906 C 64.91368865966797 97.59762573242188 58.65572738647461 98.97562408447266 52.62284851074219 97.71485137939453" stroke-width="3.0" fill="none" stroke="rgb(0, 0, 0)" stroke-opacity="1.0" stroke-linecap="round" stroke-linejoin="round"/>
    <path d="M 179.877685546875 131.71444702148438 C 176.14169311523438 120.48741912841797 175.41746520996094 122.95907592773438 179.2862548828125 129.5531768798828" stroke-width="3.0" fill="none" stroke="rgb(0, 0, 0)" stroke-opacity="1.0" stroke-linecap="round" stroke-linejoin="round"/>
    <path d="M 54.01759719848633 110.28681945800781 C 46.724937438964844 116.55760955810547 47.141807556152344 98.63642883300781 51.717647552490234 109.79942321777344" stroke-width="3.0" fill="none" stroke="rgb(0, 0, 0)" stroke-opacity="1.0" stroke-linecap="round" stroke-linejoin="round"/>
    <path d="M 176.04510498046875 96.381103515625 C 165.73536682128906 113.0999755859375 164.4156494140625 97.51412963867188 186.19081115722656 116.0521240234375" stroke-width="3.0" fill="none" stroke="rgb(0, 0, 0)" stroke-opacity="1.0" stroke-linecap="round" stroke-linejoin="round"/>
    <path d="M 182.3748016357422 78.13261413574219 C 185.7571258544922 83.53105926513672 179.62283325195312 73.53636932373047 185.4321746826172 84.18574523925781" stroke-width="3.0" fill="none" stroke="rgb(0, 0, 0)" stroke-opacity="1.0" stroke-linecap="round" stroke-linejoin="round"/>
    <path d="M 128.6129150390625 105.67626190185547 C 121.2599105834961 111.88980865478516 121.88539123535156 103.74341583251953 124.8783950805664 108.01595306396484" stroke-width="3.0" fill="none" stroke="rgb(0, 0, 0)" stroke-opacity="1.0" stroke-linecap="round" stroke-linejoin="round"/>
    <path d="M 173.04058837890625 82.2663803100586 C 189.5950469970703 85.14688110351562 181.23037719726562 83.70777893066406 158.7708282470703 89.58499145507812" stroke-width="3.0" fill="none" stroke="rgb(0, 0, 0)" stroke-opacity="1.0" stroke-linecap="round" stroke-linejoin="round"/>
    <path d="M 57.98002624511719 176.421630859375 C 55.94220733642578 163.23487854003906 53.1805534362793 181.8763427734375 60.49787902832031 166.37741088867188" stroke-width="3.0" fill="none" stroke="rgb(0, 0, 0)" stroke-opacity="1.0" stroke-linecap="round" stroke-linejoin="round"/>
    <path d="M 76.67757415771484 189.33023071289062 C 77.38280487060547 188.90174865722656 87.46537780761719 187.20997619628906 83.07379150390625 185.92654418945312" stroke-width="3.0" fill="none" stroke="rgb(0, 0, 0)" stroke-opacity="1.0" stroke-linecap="round" stroke-linejoin="round"/>
    <path d="M 81.93611907958984 53.95774841308594 C 78.84634399414062 71.74252319335938 86.2925033569336 85.19482421875 79.84659576416016 67.35929107666016" stroke-width="3.0" fill="none" stroke="rgb(0, 0, 0)" stroke-opacity="1.0" stroke-linecap="round" stroke-linejoin="round"/>
    <path d="M 68.31298828125 145.0828857421875 C 73.69476318359375 151.61892700195312 75.7208251953125 148.73092651367188 77.98908233642578 150.95530700683594" stroke-width="3.0" fill="none" stroke="rgb(0, 0, 0)" stroke-opacity="1.0" stroke-linecap="round" stroke-linejoin="round"/>
    <path d="M 173.3278350830078 91.333984375 C 181.4371337890625 80.58319854736328 176.1297149658203 90.33292388916016 153.5858917236328 89.40931701660156" stroke-width="3.0" fill="none" stroke="rgb(0, 0, 0)" stroke-opacity="1.0" stroke-linecap="round" stroke-linejoin="round"/>
    <path d="M 154.84783935546875 100.01348876953125 C 172.95497131347656 100.96395111083984 160.08316040039062 109.32659912109375 176.893310546875 104.77528381347656" stroke-width="3.0" fill="none" stroke="rgb(0, 0, 0)" stroke-opacity="1.0" stroke-linecap="round" stroke-linejoin="round"/>
    <path d="M 83.98047637939453 175.97756958007812 C 87.1640625 180.38705444335938 95.86282348632812 181.9847869873047 99.20553588867188 186.2542266845703" stroke-width="3.0" fill="none" stroke="rgb(0, 0, 0)" stroke-opacity="1.0" stroke-linecap="round" stroke-linejoin="round"/>
    <path d="M 174.06817626953125 12.31486988067627 C 181.02224731445312 2.6117570400238037 181.86962890625 27.363882064819336 175.51585388183594 51.60318374633789" stroke-width="3.0" fill="none" stroke="rgb(0, 0, 0)" stroke-opacity="1.0" stroke-linecap="round" stroke-linejoin="round"/>
    <path d="M 128.6000213623047 34.689231872558594 C 124.26727294921875 45.92024612426758 130.92955017089844 42.42346954345703 127.27421569824219 51.82551574707031" stroke-width="3.0" fill="none" stroke="rgb(0, 0, 0)" stroke-opacity="1.0" stroke-linecap="round" stroke-linejoin="round"/>
    <path d="M 83.23381042480469 52.24671173095703 C 77.59782409667969 -12.594393730163574 91.08300018310547 0.7400531768798828 95.60421752929688 45.53172302246094" stroke-width="3.0" fill="none" stroke="rgb(0, 0, 0)" stroke-opacity="1.0" stroke-linecap="round" stroke-linejoin="round"/>
    <path d="M 49.53800964355469 166.52137756347656 C 44.96916198730469 153.5673065185547 46.4141845703125 162.00259399414062 48.40656280517578 156.43296813964844" stroke-width="3.0" fill="none" stroke="rgb(0, 0, 0)" stroke-opacity="1.0" stroke-linecap="round" stroke-linejoin="round"/>
    <path d="M 46.414642333984375 139.5603790283203 C 51.326171875 134.97779846191406 39.552059173583984 145.34393310546875 43.10193634033203 141.3253936767578" stroke-width="3.0" fill="none" stroke="rgb(0, 0, 0)" stroke-opacity="1.0" stroke-linecap="round" stroke-linejoin="round"/>
    <path d="M 71.77916717529297 164.73167419433594 C 74.85050964355469 162.27984619140625 74.9880142211914 162.16836547851562 73.39228057861328 163.3921661376953" stroke-width="3.0" fill="none" stroke="rgb(0, 0, 0)" stroke-opacity="1.0" stroke-linecap="round" stroke-linejoin="round"/>
    <path d="M 68.98892211914062 188.1943817138672 C 58.41124725341797 171.15269470214844 73.35530090332031 189.6546173095703 65.06726837158203 174.9894256591797" stroke-width="3.0" fill="none" stroke="rgb(0, 0, 0)" stroke-opacity="1.0" stroke-linecap="round" stroke-linejoin="round"/>
    <path d="M 45.772579193115234 159.07933044433594 C 49.69940185546875 159.89064025878906 40.30311965942383 147.7748260498047 44.36922836303711 154.72544860839844" stroke-width="3.0" fill="none" stroke="rgb(0, 0, 0)" stroke-opacity="1.0" stroke-linecap="round" stroke-linejoin="round"/>
    <path d="M 65.61480712890625 59.367340087890625 C 46.227725982666016 82.54519653320312 59.43685531616211 71.58152770996094 43.8289794921875 105.55555725097656" stroke-width="3.0" fill="none" stroke="rgb(0, 0, 0)" stroke-opacity="1.0" stroke-linecap="round" stroke-linejoin="round"/>
    <path d="M 147.1693115234375 157.17445373535156 C 125.79631042480469 152.18377685546875 130.7349090576172 142.50387573242188 138.89894104003906 159.7722930908203" stroke-width="3.0" fill="none" stroke="rgb(0, 0, 0)" stroke-opacity="1.0" stroke-linecap="round" stroke-linejoin="round"/>
    <path d="M 139.0567626953125 40.67457962036133 C 135.7587432861328 52.30805969238281 140.13807678222656 66.5516586303711 135.83494567871094 76.9261245727539" stroke-width="3.0" fill="none" stroke="rgb(0, 0, 0)" stroke-opacity="1.0" stroke-linecap="round" stroke-linejoin="round"/>
    <path d="M 143.8548583984375 104.01964569091797 C 132.83636474609375 111.50318145751953 117.63235473632812 108.95320892333984 122.08457946777344 109.51838684082031" stroke-width="3.0" fill="none" stroke="rgb(0, 0, 0)" stroke-opacity="1.0" stroke-linecap="round" stroke-linejoin="round"/>
    <path d="M 145.5292205810547 69.03150177001953 C 141.52769470214844 56.839027404785156 155.9251251220703 53.04644775390625 153.00025939941406 53.8881950378418" stroke-width="3.0" fill="none" stroke="rgb(0, 0, 0)" stroke-opacity="1.0" stroke-linecap="round" stroke-linejoin="round"/>
    <path d="M 107.62403869628906 185.8231964111328 C 90.24797821044922 177.7119598388672 76.26424407958984 184.25006103515625 132.99085998535156 183.32313537597656" stroke-width="3.0" fill="none" stroke="rgb(0, 0, 0)" stroke-opacity="1.0" stroke-linecap="round" stroke-linejoin="round"/>
    <path d="M 184.71768188476562 88.30525970458984 C 182.77088928222656 79.88348388671875 177.20509338378906 96.87698364257812 178.10137939453125 87.46464538574219" stroke-width="3.0" fill="none" stroke="rgb(0, 0, 0)" stroke-opacity="1.0" stroke-linecap="round" stroke-linejoin="round"/>
    <path d="M 175.60618591308594 89.37479400634766 C 179.71343994140625 88.26609802246094 182.4842071533203 89.93556213378906 175.83689880371094 94.58147430419922" stroke-width="3.0" fill="none" stroke="rgb(0, 0, 0)" stroke-opacity="1.0" stroke-linecap="round" stroke-linejoin="round"/>
    <path d="M 109.0807876586914 78.42040252685547 C 92.65113067626953 71.34791564941406 131.99822998046875 75.20413970947266 109.31086730957031 81.98786163330078" stroke-width="3.0" fill="none" stroke="rgb(0, 0, 0)" stroke-opacity="1.0" stroke-linecap="round" stroke-linejoin="round"/>
    <path d="M 130.18756103515625 155.626953125 C 121.84503173828125 142.39959716796875 127.64321899414062 149.84864807128906 124.22737884521484 153.13426208496094" stroke-width="3.0" fill="none" stroke="rgb(0, 0, 0)" stroke-opacity="1.0" stroke-linecap="round" stroke-linejoin="round"/>
    <path d="M 123.66846466064453 89.30074310302734 C 145.4084930419922 101.36299896240234 131.86729431152344 77.32420349121094 128.19190979003906 100.2164306640625" stroke-width="3.0" fill="none" stroke="rgb(0, 0, 0)" stroke-opacity="1.0" stroke-linecap="round" stroke-linejoin="round"/>
    <path d="M 174.1649627685547 100.84156036376953 C 174.75950622558594 90.42942810058594 181.11029052734375 99.80178833007812 150.43325805664062 94.1357650756836" stroke-width="3.0" fill="none" stroke="rgb(0, 0, 0)" stroke-opacity="1.0" stroke-linecap="round" stroke-linejoin="round"/>
    <path d="M 89.56122589111328 9.454805374145508 C 107.59767150878906 18.039352416992188 117.09742736816406 31.58985137939453 120.32827758789062 35.403141021728516" stroke-width="3.0" fill="none" stroke="rgb(0, 0, 0)" stroke-opacity="1.0" stroke-linecap="round" stroke-linejoin="round"/>
    <path d="M 52.53564453125 112.48780822753906 C 51.677703857421875 111.24514770507812 66.2762680053711 116.28677368164062 54.71676254272461 111.34235382080078" stroke-width="3.0" fill="none" stroke="rgb(0, 0, 0)" stroke-opacity="1.0" stroke-linecap="round" stroke-linejoin="round"/>
    <path d="M 116.58949279785156 105.75608825683594 C 99.50178527832031 102.90478515625 120.52888488769531 102.69856262207031 102.79945373535156 98.1875991821289" stroke-width="3.0" fill="none" stroke="rgb(0, 0, 0)" stroke-opacity="1.0" stroke-linecap="round" stroke-linejoin="round"/>
    <path d="M 37.175167083740234 121.12065124511719 C 44.972511291503906 100.56336212158203 45.043861389160156 102.6266860961914 40.74203872680664 112.6336669921875" stroke-width="3.0" fill="none" stroke="rgb(0, 0, 0)" stroke-opacity="1.0" stroke-linecap="round" stroke-linejoin="round"/>
    <path d="M 82.5931396484375 183.80828857421875 C 78.36176300048828 189.82369995117188 74.04532623291016 189.3763885498047 83.26913452148438 184.62417602539062" stroke-width="3.0" fill="none" stroke="rgb(0, 0, 0)" stroke-opacity="1.0" stroke-linecap="round" stroke-linejoin="round"/>
    <path d="M 174.4470977783203 127.69967651367188 C 172.8538055419922 118.06148529052734 164.2041015625 101.92564392089844 146.19020080566406 100.43303680419922" stroke-width="3.0" fill="none" stroke="rgb(0, 0, 0)" stroke-opacity="1.0" stroke-linecap="round" stroke-linejoin="round"/>
    <path d="M 140.99429321289062 81.60725402832031 C 153.74720764160156 75.2771224975586 138.4529266357422 91.27019500732422 153.15733337402344 80.61280059814453" stroke-width="3.0" fill="none" stroke="rgb(0, 0, 0)" stroke-opacity="1.0" stroke-linecap="round" stroke-linejoin="round"/>
    <path d="M 160.74661254882812 70.05160522460938 C 169.22488403320312 70.44389343261719 177.5155487060547 75.0477523803711 181.77088928222656 72.5951919555664" stroke-width="3.0" fill="none" stroke="rgb(0, 0, 0)" stroke-opacity="1.0" stroke-linecap="round" stroke-linejoin="round"/>
    <path d="M 146.7356414794922 106.28507232666016 C 152.15798950195312 113.82450103759766 155.6372528076172 113.68647766113281 157.07818603515625 116.11521911621094" stroke-width="3.0" fill="none" stroke="rgb(0, 0, 0)" stroke-opacity="1.0" stroke-linecap="round" stroke-linejoin="round"/>
    <path d="M 170.05609130859375 22.212608337402344 C 164.02296447753906 40.14678955078125 161.6685028076172 33.39479446411133 168.35589599609375 47.49460220336914" stroke-width="3.0" fill="none" stroke="rgb(0, 0, 0)" stroke-opacity="1.0" stroke-linecap="round" stroke-linejoin="round"/>
    <path d="M 120.72218322753906 112.28446960449219 C 150.4927520751953 110.53375244140625 122.0231704711914 102.15863800048828 114.89007568359375 111.78472137451172" stroke-width="3.0" fill="none" stroke="rgb(0, 0, 0)" stroke-opacity="1.0" stroke-linecap="round" stroke-linejoin="round"/>
    <path d="M 51.89839172363281 110.14602661132812 C 54.141624450683594 104.19969177246094 44.47222900390625 106.06256103515625 63.01194381713867 122.63703155517578" stroke-width="3.0" fill="none" stroke="rgb(0, 0, 0)" stroke-opacity="1.0" stroke-linecap="round" stroke-linejoin="round"/>
    <path d="M 120.85598754882812 78.38349914550781 C 126.52074432373047 59.268131256103516 116.44020080566406 59.2565803527832 112.61703491210938 57.32062530517578" stroke-width="3.0" fill="none" stroke="rgb(0, 0, 0)" stroke-opacity="1.0" stroke-linecap="round" stroke-linejoin="round"/>
    <path d="M 147.87852478027344 34.69304656982422 C 159.49160766601562 27.7569580078125 153.35711669921875 21.737390518188477 177.14186096191406 10.45759105682373" stroke-width="3.0" fill="none" stroke="rgb(0, 0, 0)" stroke-opacity="1.0" stroke-linecap="round" stroke-linejoin="round"/>
  </g>
</svg>
