<?xml version="1.0" ?>
<svg xmlns="http://www.w3.org/2000/svg" version="1.1" width="224" height="224">
  <defs/>
  <g>
    <path d="M 61.67012023925781 94.93499755859375 C 71.06233215332031 86.53221893310547 61.338871002197266 76.72333526611328 79.33600616455078 60.4820671081543" stroke-width="3.0" fill="none" stroke="rgb(0, 0, 0)" stroke-opacity="1.0" stroke-linecap="round" stroke-linejoin="round"/>
    <path d="M 196.28424072265625 114.73753356933594 C 180.69161987304688 102.83473205566406 191.73744201660156 100.01175689697266 178.67044067382812 127.20032501220703" stroke-width="3.0" fill="none" stroke="rgb(0, 0, 0)" stroke-opacity="1.0" stroke-linecap="round" stroke-linejoin="round"/>
    <path d="M 59.80221176147461 119.42155456542969 C 50.57197952270508 89.58506774902344 57.90999984741211 113.8720932006836 60.6982421875 112.31578826904297" stroke-width="3.0" fill="none" stroke="rgb(0, 0, 0)" stroke-opacity="1.0" stroke-linecap="round" stroke-linejoin="round"/>
    <path d="M 188.96238708496094 91.4981689453125 C 146.5102081298828 76.13333129882812 182.46536254882812 73.13265228271484 188.7773895263672 97.22539520263672" stroke-width="3.0" fill="none" stroke="rgb(0, 0, 0)" stroke-opacity="1.0" stroke-linecap="round" stroke-linejoin="round"/>
    <path d="M 175.90335083007812 48.33787536621094 C 193.72398376464844 89.31768035888672 182.44384765625 98.08688354492188 179.83123779296875 54.16042709350586" stroke-width="3.0" fill="none" stroke="rgb(0, 0, 0)" stroke-opacity="1.0" stroke-linecap="round" stroke-linejoin="round"/>
    <path d="M 128.94566345214844 101.78678894042969 C 148.61866760253906 115.69459533691406 98.05531311035156 101.57337951660156 137.8896942138672 100.60768127441406" stroke-width="3.0" fill="none" stroke="rgb(0, 0, 0)" stroke-opacity="1.0" stroke-linecap="round" stroke-linejoin="round"/>
    <path d="M 180.80587768554688 95.80598449707031 C 161.3356170654297 88.93121337890625 184.93563842773438 71.28656768798828 150.47157287597656 88.08674621582031" stroke-width="3.0" fill="none" stroke="rgb(0, 0, 0)" stroke-opacity="1.0" stroke-linecap="round" stroke-linejoin="round"/>
    <path d="M 64.90117645263672 192.10635375976562 C 42.34409713745117 168.29605102539062 44.14167785644531 169.01666259765625 62.65334701538086 189.53948974609375" stroke-width="3.0" fill="none" stroke="rgb(0, 0, 0)" stroke-opacity="1.0" stroke-linecap="round" stroke-linejoin="round"/>
    <path d="M 57.61557388305664 183.1409454345703 C 81.95811462402344 214.04171752929688 139.64625549316406 196.82394409179688 136.87828063964844 161.07530212402344" stroke-width="3.0" fill="none" stroke="rgb(0, 0, 0)" stroke-opacity="1.0" stroke-linecap="round" stroke-linejoin="round"/>
    <path d="M 81.70030212402344 12.977813720703125 C 93.28106689453125 73.13971710205078 87.53592681884766 9.481477737426758 82.07388305664062 51.570167541503906" stroke-width="3.0" fill="none" stroke="rgb(0, 0, 0)" stroke-opacity="1.0" stroke-linecap="round" stroke-linejoin="round"/>
    <path d="M 62.1450309753418 94.71699523925781 C 44.75476837158203 127.57508087158203 76.7808609008789 130.73875427246094 59.35974884033203 118.90464782714844" stroke-width="3.0" fill="none" stroke="rgb(0, 0, 0)" stroke-opacity="1.0" stroke-linecap="round" stroke-linejoin="round"/>
    <path d="M 143.9606170654297 74.58001708984375 C 197.7396697998047 59.9077262878418 208.8267364501953 89.1717758178711 141.14382934570312 85.10133361816406" stroke-width="3.0" fill="none" stroke="rgb(0, 0, 0)" stroke-opacity="1.0" stroke-linecap="round" stroke-linejoin="round"/>
    <path d="M 150.75787353515625 96.03234100341797 C 191.06028747558594 100.10962677001953 178.10145568847656 101.30724334716797 187.45237731933594 110.91119384765625" stroke-width="3.0" fill="none" stroke="rgb(0, 0, 0)" stroke-opacity="1.0" stroke-linecap="round" stroke-linejoin="round"/>
    <path d="M 122.02182006835938 155.21287536621094 C 178.46914672851562 155.56764221191406 97.779052734375 145.62428283691406 97.89986419677734 152.89996337890625" stroke-width="3.0" fill="none" stroke="rgb(0, 0, 0)" stroke-opacity="1.0" stroke-linecap="round" stroke-linejoin="round"/>
    <path d="M 177.11940002441406 8.802713394165039 C 189.47125244140625 16.33050537109375 167.1548309326172 88.99358367919922 184.84646606445312 59.129459381103516" stroke-width="3.0" fill="none" stroke="rgb(0, 0, 0)" stroke-opacity="1.0" stroke-linecap="round" stroke-linejoin="round"/>
    <path d="M 149.54705810546875 28.75910758972168 C 108.9132080078125 30.922542572021484 133.05433654785156 23.194355010986328 129.79884338378906 63.40377426147461" stroke-width="3.0" fill="none" stroke="rgb(0, 0, 0)" stroke-opacity="1.0" stroke-linecap="round" stroke-linejoin="round"/>
    <path d="M 107.74270629882812 47.33063507080078 C 62.56672668457031 -7.47219181060791 82.86884307861328 2.4067916870117188 120.62538146972656 33.73716735839844" stroke-width="3.0" fill="none" stroke="rgb(0, 0, 0)" stroke-opacity="1.0" stroke-linecap="round" stroke-linejoin="round"/>
    <path d="M 42.00853729248047 158.44839477539062 C 42.846683502197266 160.12579345703125 40.26070785522461 156.54800415039062 50.01420593261719 176.76602172851562" stroke-width="3.0" fill="none" stroke="rgb(0, 0, 0)" stroke-opacity="1.0" stroke-linecap="round" stroke-linejoin="round"/>
    <path d="M 61.72731399536133 65.35484313964844 C 18.042884826660156 119.11894989013672 39.35562515258789 141.08920288085938 44.771942138671875 162.92994689941406" stroke-width="3.0" fill="none" stroke="rgb(0, 0, 0)" stroke-opacity="1.0" stroke-linecap="round" stroke-linejoin="round"/>
    <path d="M 68.88998413085938 134.3302001953125 C 137.127197265625 171.20143127441406 112.0147705078125 150.025146484375 89.20157623291016 143.171875" stroke-width="3.0" fill="none" stroke="rgb(0, 0, 0)" stroke-opacity="1.0" stroke-linecap="round" stroke-linejoin="round"/>
    <path d="M 83.78327178955078 197.50430297851562 C 65.00181579589844 201.24331665039062 47.53144073486328 176.91439819335938 38.35908508300781 149.30596923828125" stroke-width="3.0" fill="none" stroke="rgb(0, 0, 0)" stroke-opacity="1.0" stroke-linecap="round" stroke-linejoin="round"/>
    <path d="M 46.08041763305664 169.5859375 C 69.19590759277344 202.07225036621094 47.85702133178711 177.0519256591797 37.24478530883789 148.37945556640625" stroke-width="3.0" fill="none" stroke="rgb(0, 0, 0)" stroke-opacity="1.0" stroke-linecap="round" stroke-linejoin="round"/>
    <path d="M 80.91944122314453 55.84379196166992 C 59.85074234008789 59.36160659790039 60.98442077636719 64.74024200439453 36.60190963745117 112.11625671386719" stroke-width="3.0" fill="none" stroke="rgb(0, 0, 0)" stroke-opacity="1.0" stroke-linecap="round" stroke-linejoin="round"/>
    <path d="M 146.1884307861328 145.152099609375 C 113.2568359375 161.75550842285156 72.09040832519531 153.27059936523438 141.6768798828125 149.22738647460938" stroke-width="3.0" fill="none" stroke="rgb(0, 0, 0)" stroke-opacity="1.0" stroke-linecap="round" stroke-linejoin="round"/>
    <path d="M 148.30931091308594 28.915800094604492 C 142.78958129882812 39.84579086303711 138.35409545898438 13.903417587280273 137.15919494628906 71.807861328125" stroke-width="3.0" fill="none" stroke="rgb(0, 0, 0)" stroke-opacity="1.0" stroke-linecap="round" stroke-linejoin="round"/>
    <path d="M 146.66549682617188 98.2684097290039 C 129.33544921875 111.1161880493164 126.13797760009766 101.96942901611328 118.11229705810547 102.23033905029297" stroke-width="3.0" fill="none" stroke="rgb(0, 0, 0)" stroke-opacity="1.0" stroke-linecap="round" stroke-linejoin="round"/>
    <path d="M 136.3492431640625 69.88203430175781 C 148.6822967529297 54.180850982666016 134.87303161621094 68.50769805908203 136.56683349609375 68.4869613647461" stroke-width="3.0" fill="none" stroke="rgb(0, 0, 0)" stroke-opacity="1.0" stroke-linecap="round" stroke-linejoin="round"/>
    <path d="M 137.2578887939453 164.6830596923828 C 134.7423553466797 170.09307861328125 139.8044891357422 163.23211669921875 147.00340270996094 143.92218017578125" stroke-width="3.0" fill="none" stroke="rgb(0, 0, 0)" stroke-opacity="1.0" stroke-linecap="round" stroke-linejoin="round"/>
    <path d="M 195.5013885498047 95.11141967773438 C 162.32217407226562 66.97854614257812 185.09780883789062 60.23115158081055 180.0458221435547 94.10623931884766" stroke-width="3.0" fill="none" stroke="rgb(0, 0, 0)" stroke-opacity="1.0" stroke-linecap="round" stroke-linejoin="round"/>
    <path d="M 152.96812438964844 78.1388931274414 C 120.59327697753906 60.27964401245117 208.2969512939453 87.64411163330078 182.09170532226562 61.07743835449219" stroke-width="3.0" fill="none" stroke="rgb(0, 0, 0)" stroke-opacity="1.0" stroke-linecap="round" stroke-linejoin="round"/>
    <path d="M 112.19703674316406 84.13290405273438 C 89.10442352294922 77.91020965576172 135.8845672607422 77.03816223144531 109.3707275390625 82.5848617553711" stroke-width="3.0" fill="none" stroke="rgb(0, 0, 0)" stroke-opacity="1.0" stroke-linecap="round" stroke-linejoin="round"/>
    <path d="M 166.04290771484375 129.65847778320312 C 154.05503845214844 155.33181762695312 87.96768188476562 150.49913024902344 93.92803192138672 147.46629333496094" stroke-width="3.0" fill="none" stroke="rgb(0, 0, 0)" stroke-opacity="1.0" stroke-linecap="round" stroke-linejoin="round"/>
    <path d="M 126.12846374511719 88.04478454589844 C 141.18357849121094 102.89075469970703 134.1005859375 69.97967529296875 130.57534790039062 104.6534423828125" stroke-width="3.0" fill="none" stroke="rgb(0, 0, 0)" stroke-opacity="1.0" stroke-linecap="round" stroke-linejoin="round"/>
    <path d="M 185.7418670654297 108.20990753173828 C 169.97708129882812 91.33148193359375 167.70628356933594 94.33041381835938 143.65928649902344 85.63583374023438" stroke-width="3.0" fill="none" stroke="rgb(0, 0, 0)" stroke-opacity="1.0" stroke-linecap="round" stroke-linejoin="round"/>
    <path d="M 91.20209503173828 22.69550895690918 C 124.65602111816406 28.517396926879883 84.09989166259766 34.00275802612305 148.18319702148438 29.81399917602539" stroke-width="3.0" fill="none" stroke="rgb(0, 0, 0)" stroke-opacity="1.0" stroke-linecap="round" stroke-linejoin="round"/>
    <path d="M 56.09975814819336 105.41384887695312 C 58.02531433105469 95.56986236572266 49.78532409667969 119.39371490478516 71.9834213256836 135.04583740234375" stroke-width="3.0" fill="none" stroke="rgb(0, 0, 0)" stroke-opacity="1.0" stroke-linecap="round" stroke-linejoin="round"/>
    <path d="M 136.921630859375 104.65470886230469 C 130.6306915283203 88.89749145507812 123.9062271118164 119.8922348022461 113.42793273925781 91.4660415649414" stroke-width="3.0" fill="none" stroke="rgb(0, 0, 0)" stroke-opacity="1.0" stroke-linecap="round" stroke-linejoin="round"/>
    <path d="M 38.11283493041992 149.8688507080078 C 17.900169372558594 124.7722396850586 41.574031829833984 71.2229232788086 67.30219268798828 59.717247009277344" stroke-width="3.0" fill="none" stroke="rgb(0, 0, 0)" stroke-opacity="1.0" stroke-linecap="round" stroke-linejoin="round"/>
    <path d="M 99.0523910522461 198.42446899414062 C 87.68486022949219 196.18038940429688 84.82027435302734 203.0624237060547 110.39175415039062 196.76364135742188" stroke-width="3.0" fill="none" stroke="rgb(0, 0, 0)" stroke-opacity="1.0" stroke-linecap="round" stroke-linejoin="round"/>
    <path d="M 169.216552734375 129.97994995117188 C 197.39353942871094 113.87042999267578 192.0362091064453 84.72125244140625 154.58224487304688 87.64997100830078" stroke-width="3.0" fill="none" stroke="rgb(0, 0, 0)" stroke-opacity="1.0" stroke-linecap="round" stroke-linejoin="round"/>
    <path d="M 158.03013610839844 71.7350845336914 C 124.24568176269531 80.87555694580078 165.508544921875 82.95404815673828 153.187255859375 72.06456756591797" stroke-width="3.0" fill="none" stroke="rgb(0, 0, 0)" stroke-opacity="1.0" stroke-linecap="round" stroke-linejoin="round"/>
    <path d="M 139.65841674804688 79.54531860351562 C 142.9285888671875 40.38042449951172 200.54196166992188 117.6112060546875 179.02035522460938 43.8042106628418" stroke-width="3.0" fill="none" stroke="rgb(0, 0, 0)" stroke-opacity="1.0" stroke-linecap="round" stroke-linejoin="round"/>
    <path d="M 154.20864868164062 96.84131622314453 C 174.1985321044922 102.64832305908203 178.73915100097656 105.12430572509766 184.6657257080078 122.48361206054688" stroke-width="3.0" fill="none" stroke="rgb(0, 0, 0)" stroke-opacity="1.0" stroke-linecap="round" stroke-linejoin="round"/>
    <path d="M 179.98573303222656 12.62537956237793 C 173.71902465820312 44.808074951171875 176.29750061035156 18.700204849243164 158.5718536376953 40.29030227661133" stroke-width="3.0" fill="none" stroke="rgb(0, 0, 0)" stroke-opacity="1.0" stroke-linecap="round" stroke-linejoin="round"/>
    <path d="M 120.15489959716797 102.24658203125 C 142.49256896972656 94.35953521728516 130.1390838623047 113.48506164550781 128.84500122070312 104.43660736083984" stroke-width="3.0" fill="none" stroke="rgb(0, 0, 0)" stroke-opacity="1.0" stroke-linecap="round" stroke-linejoin="round"/>
    <path d="M 61.51736068725586 93.1311264038086 C 57.25892639160156 107.03195190429688 58.256675720214844 112.6469955444336 60.27893829345703 102.25757598876953" stroke-width="3.0" fill="none" stroke="rgb(0, 0, 0)" stroke-opacity="1.0" stroke-linecap="round" stroke-linejoin="round"/>
    <path d="M 122.70455932617188 77.672607421875 C 130.27146911621094 48.44620132446289 116.86234283447266 55.89412307739258 122.42330932617188 36.770259857177734" stroke-width="3.0" fill="none" stroke="rgb(0, 0, 0)" stroke-opacity="1.0" stroke-linecap="round" stroke-linejoin="round"/>
    <path d="M 135.69764709472656 30.35032081604004 C 145.14073181152344 42.42801284790039 157.75694274902344 7.346978187561035 177.9322967529297 9.681397438049316" stroke-width="3.0" fill="none" stroke="rgb(0, 0, 0)" stroke-opacity="1.0" stroke-linecap="round" stroke-linejoin="round"/>
  </g>
</svg>
