<?xml version="1.0" ?>
<svg xmlns="http://www.w3.org/2000/svg" version="1.1" width="224" height="224">
  <defs/>
  <g>
    <path d="M 64.76433563232422 76.42662048339844 C 65.01110076904297 79.37980651855469 67.88745880126953 82.8580551147461 59.066322326660156 69.736572265625" stroke-width="3.0" fill="none" stroke="rgb(0, 0, 0)" stroke-opacity="1.0" stroke-linecap="round" stroke-linejoin="round"/>
    <path d="M 184.82998657226562 121.04033660888672 C 179.03012084960938 117.64116668701172 197.9388427734375 93.44745635986328 176.0419464111328 128.08895874023438" stroke-width="3.0" fill="none" stroke="rgb(0, 0, 0)" stroke-opacity="1.0" stroke-linecap="round" stroke-linejoin="round"/>
    <path d="M 64.34444427490234 124.07006072998047 C 60.32182693481445 95.05950927734375 61.35762405395508 124.98713684082031 72.094970703125 129.41629028320312" stroke-width="3.0" fill="none" stroke="rgb(0, 0, 0)" stroke-opacity="1.0" stroke-linecap="round" stroke-linejoin="round"/>
    <path d="M 184.88809204101562 99.01142883300781 C 146.63780212402344 87.94535827636719 173.66978454589844 80.44659423828125 196.1505126953125 112.07757568359375" stroke-width="3.0" fill="none" stroke="rgb(0, 0, 0)" stroke-opacity="1.0" stroke-linecap="round" stroke-linejoin="round"/>
    <path d="M 183.17015075683594 61.51666259765625 C 174.1695098876953 114.65327453613281 184.3192901611328 102.88581848144531 181.79808044433594 70.63455200195312" stroke-width="3.0" fill="none" stroke="rgb(0, 0, 0)" stroke-opacity="1.0" stroke-linecap="round" stroke-linejoin="round"/>
    <path d="M 120.4421157836914 105.284912109375 C 148.26112365722656 116.18638610839844 111.74737548828125 92.671875 137.03675842285156 103.848876953125" stroke-width="3.0" fill="none" stroke="rgb(0, 0, 0)" stroke-opacity="1.0" stroke-linecap="round" stroke-linejoin="round"/>
    <path d="M 168.9759063720703 97.89248657226562 C 189.58837890625 87.5889663696289 179.41702270507812 73.86470794677734 158.23211669921875 86.27253723144531" stroke-width="3.0" fill="none" stroke="rgb(0, 0, 0)" stroke-opacity="1.0" stroke-linecap="round" stroke-linejoin="round"/>
    <path d="M 58.21625900268555 184.2749481201172 C 37.24161911010742 156.24172973632812 46.804283142089844 166.63980102539062 49.43803405761719 175.48471069335938" stroke-width="3.0" fill="none" stroke="rgb(0, 0, 0)" stroke-opacity="1.0" stroke-linecap="round" stroke-linejoin="round"/>
    <path d="M 57.33681869506836 182.6156768798828 C 97.61624908447266 211.30166625976562 110.22382354736328 196.5526580810547 131.37437438964844 179.8242950439453" stroke-width="3.0" fill="none" stroke="rgb(0, 0, 0)" stroke-opacity="1.0" stroke-linecap="round" stroke-linejoin="round"/>
    <path d="M 85.95063781738281 33.87548065185547 C 96.08787536621094 79.0186538696289 81.4289779663086 11.790064811706543 82.8724594116211 58.05797576904297" stroke-width="3.0" fill="none" stroke="rgb(0, 0, 0)" stroke-opacity="1.0" stroke-linecap="round" stroke-linejoin="round"/>
    <path d="M 58.0904426574707 104.14392852783203 C 63.10980224609375 136.5009307861328 96.62091827392578 158.8411102294922 95.00423431396484 150.40042114257812" stroke-width="3.0" fill="none" stroke="rgb(0, 0, 0)" stroke-opacity="1.0" stroke-linecap="round" stroke-linejoin="round"/>
    <path d="M 148.33909606933594 71.44498443603516 C 202.96421813964844 69.42454528808594 189.2855224609375 83.62092590332031 149.39076232910156 85.84458923339844" stroke-width="3.0" fill="none" stroke="rgb(0, 0, 0)" stroke-opacity="1.0" stroke-linecap="round" stroke-linejoin="round"/>
    <path d="M 151.9596405029297 97.64776611328125 C 190.6070098876953 106.45356750488281 180.69131469726562 102.81903839111328 196.11073303222656 112.13444519042969" stroke-width="3.0" fill="none" stroke="rgb(0, 0, 0)" stroke-opacity="1.0" stroke-linecap="round" stroke-linejoin="round"/>
    <path d="M 126.9028091430664 158.7386016845703 C 145.49166870117188 151.30392456054688 123.92149353027344 156.68447875976562 110.11607360839844 156.4307403564453" stroke-width="3.0" fill="none" stroke="rgb(0, 0, 0)" stroke-opacity="1.0" stroke-linecap="round" stroke-linejoin="round"/>
    <path d="M 179.0413055419922 9.731781959533691 C 188.35655212402344 23.872560501098633 173.7322998046875 60.67744445800781 177.86842346191406 50.245643615722656" stroke-width="3.0" fill="none" stroke="rgb(0, 0, 0)" stroke-opacity="1.0" stroke-linecap="round" stroke-linejoin="round"/>
    <path d="M 128.5157012939453 31.124309539794922 C 120.10204315185547 57.280662536621094 130.13917541503906 35.0946159362793 123.76201629638672 68.62052154541016" stroke-width="3.0" fill="none" stroke="rgb(0, 0, 0)" stroke-opacity="1.0" stroke-linecap="round" stroke-linejoin="round"/>
    <path d="M 86.37887573242188 53.235477447509766 C 76.0322494506836 -8.395774841308594 83.54292297363281 -0.7096051573753357 106.37834930419922 38.90072250366211" stroke-width="3.0" fill="none" stroke="rgb(0, 0, 0)" stroke-opacity="1.0" stroke-linecap="round" stroke-linejoin="round"/>
    <path d="M 46.752471923828125 166.8872528076172 C 39.64228820800781 153.62890625 37.04021072387695 144.39781188964844 45.90596008300781 167.92218017578125" stroke-width="3.0" fill="none" stroke="rgb(0, 0, 0)" stroke-opacity="1.0" stroke-linecap="round" stroke-linejoin="round"/>
    <path d="M 34.287498474121094 99.29957580566406 C 20.01793098449707 126.42638397216797 37.9677619934082 146.80032348632812 41.67789077758789 156.13612365722656" stroke-width="3.0" fill="none" stroke="rgb(0, 0, 0)" stroke-opacity="1.0" stroke-linecap="round" stroke-linejoin="round"/>
    <path d="M 87.02618408203125 147.8576202392578 C 109.70277404785156 160.24998474121094 107.71419525146484 164.81365966796875 101.53887939453125 154.11734008789062" stroke-width="3.0" fill="none" stroke="rgb(0, 0, 0)" stroke-opacity="1.0" stroke-linecap="round" stroke-linejoin="round"/>
    <path d="M 84.55657196044922 198.358642578125 C 69.62564086914062 198.84823608398438 50.35980987548828 177.05117797851562 48.2867431640625 171.06124877929688" stroke-width="3.0" fill="none" stroke="rgb(0, 0, 0)" stroke-opacity="1.0" stroke-linecap="round" stroke-linejoin="round"/>
    <path d="M 47.35803985595703 167.6939697265625 C 61.620357513427734 192.59548950195312 43.14924621582031 166.11264038085938 39.32206726074219 151.74107360839844" stroke-width="3.0" fill="none" stroke="rgb(0, 0, 0)" stroke-opacity="1.0" stroke-linecap="round" stroke-linejoin="round"/>
    <path d="M 78.011474609375 54.58085632324219 C 62.864990234375 59.32893371582031 45.692081451416016 71.21729278564453 31.061620712280273 104.52999877929688" stroke-width="3.0" fill="none" stroke="rgb(0, 0, 0)" stroke-opacity="1.0" stroke-linecap="round" stroke-linejoin="round"/>
    <path d="M 151.24371337890625 142.23095703125 C 125.51248168945312 160.84368896484375 117.71000671386719 154.91990661621094 133.06813049316406 158.31185913085938" stroke-width="3.0" fill="none" stroke="rgb(0, 0, 0)" stroke-opacity="1.0" stroke-linecap="round" stroke-linejoin="round"/>
    <path d="M 143.3133087158203 29.854949951171875 C 148.8028564453125 54.785400390625 135.5139923095703 51.41835021972656 134.52825927734375 80.28084564208984" stroke-width="3.0" fill="none" stroke="rgb(0, 0, 0)" stroke-opacity="1.0" stroke-linecap="round" stroke-linejoin="round"/>
    <path d="M 146.93365478515625 101.15830993652344 C 123.06012725830078 110.63600158691406 132.65567016601562 110.59140014648438 120.71073913574219 106.31910705566406" stroke-width="3.0" fill="none" stroke="rgb(0, 0, 0)" stroke-opacity="1.0" stroke-linecap="round" stroke-linejoin="round"/>
    <path d="M 136.10423278808594 75.08060455322266 C 143.9313507080078 54.876216888427734 130.6403045654297 60.36201095581055 134.82522583007812 77.403076171875" stroke-width="3.0" fill="none" stroke="rgb(0, 0, 0)" stroke-opacity="1.0" stroke-linecap="round" stroke-linejoin="round"/>
    <path d="M 131.78651428222656 179.03814697265625 C 125.75 181.83834838867188 138.47286987304688 179.24244689941406 145.564208984375 145.91624450683594" stroke-width="3.0" fill="none" stroke="rgb(0, 0, 0)" stroke-opacity="1.0" stroke-linecap="round" stroke-linejoin="round"/>
    <path d="M 192.5135955810547 96.73086547851562 C 164.0220184326172 71.66510772705078 153.6545867919922 81.71580505371094 185.555419921875 92.51624298095703" stroke-width="3.0" fill="none" stroke="rgb(0, 0, 0)" stroke-opacity="1.0" stroke-linecap="round" stroke-linejoin="round"/>
    <path d="M 146.92791748046875 76.19405364990234 C 160.2221221923828 62.06676483154297 197.5824737548828 91.07255554199219 180.0160369873047 66.97278594970703" stroke-width="3.0" fill="none" stroke="rgb(0, 0, 0)" stroke-opacity="1.0" stroke-linecap="round" stroke-linejoin="round"/>
    <path d="M 116.217041015625 81.56694030761719 C 83.75614166259766 73.65684509277344 138.92843627929688 73.78315734863281 109.71711730957031 81.95868682861328" stroke-width="3.0" fill="none" stroke="rgb(0, 0, 0)" stroke-opacity="1.0" stroke-linecap="round" stroke-linejoin="round"/>
    <path d="M 156.62368774414062 135.86734008789062 C 129.14474487304688 170.11495971679688 122.56267547607422 153.09310913085938 106.46939086914062 159.2014617919922" stroke-width="3.0" fill="none" stroke="rgb(0, 0, 0)" stroke-opacity="1.0" stroke-linecap="round" stroke-linejoin="round"/>
    <path d="M 125.07594299316406 90.73872375488281 C 142.4310760498047 101.49991607666016 134.1667938232422 68.3126220703125 128.7263641357422 107.11248779296875" stroke-width="3.0" fill="none" stroke="rgb(0, 0, 0)" stroke-opacity="1.0" stroke-linecap="round" stroke-linejoin="round"/>
    <path d="M 187.48568725585938 113.25672149658203 C 176.11978149414062 84.2118148803711 183.3265838623047 96.95941925048828 140.46017456054688 82.30008697509766" stroke-width="3.0" fill="none" stroke="rgb(0, 0, 0)" stroke-opacity="1.0" stroke-linecap="round" stroke-linejoin="round"/>
    <path d="M 84.50911712646484 7.950284004211426 C 105.83145904541016 10.20641803741455 117.86612701416016 38.800193786621094 119.87039947509766 29.17009162902832" stroke-width="3.0" fill="none" stroke="rgb(0, 0, 0)" stroke-opacity="1.0" stroke-linecap="round" stroke-linejoin="round"/>
    <path d="M 64.81222534179688 125.52872467041016 C 64.99408721923828 110.78551483154297 67.44588470458984 128.55531311035156 65.14519500732422 123.16656494140625" stroke-width="3.0" fill="none" stroke="rgb(0, 0, 0)" stroke-opacity="1.0" stroke-linecap="round" stroke-linejoin="round"/>
    <path d="M 135.88580322265625 104.68370056152344 C 125.78044891357422 92.71727752685547 117.03910827636719 117.36803436279297 117.39662170410156 86.82821655273438" stroke-width="3.0" fill="none" stroke="rgb(0, 0, 0)" stroke-opacity="1.0" stroke-linecap="round" stroke-linejoin="round"/>
    <path d="M 30.078170776367188 132.36019897460938 C 24.004615783691406 98.69175720214844 38.84776306152344 101.59976196289062 46.20968246459961 78.88712310791016" stroke-width="3.0" fill="none" stroke="rgb(0, 0, 0)" stroke-opacity="1.0" stroke-linecap="round" stroke-linejoin="round"/>
    <path d="M 77.47124481201172 195.83233642578125 C 71.0439224243164 194.18319702148438 68.70316314697266 191.88967895507812 94.5103988647461 197.9556121826172" stroke-width="3.0" fill="none" stroke="rgb(0, 0, 0)" stroke-opacity="1.0" stroke-linecap="round" stroke-linejoin="round"/>
    <path d="M 158.24720764160156 133.17803955078125 C 203.30816650390625 118.73600769042969 176.81639099121094 98.58158874511719 155.9084014892578 92.22667694091797" stroke-width="3.0" fill="none" stroke="rgb(0, 0, 0)" stroke-opacity="1.0" stroke-linecap="round" stroke-linejoin="round"/>
    <path d="M 157.85906982421875 71.54090881347656 C 132.95140075683594 85.48855590820312 172.81520080566406 80.609130859375 148.09844970703125 68.77711486816406" stroke-width="3.0" fill="none" stroke="rgb(0, 0, 0)" stroke-opacity="1.0" stroke-linecap="round" stroke-linejoin="round"/>
    <path d="M 141.31753540039062 78.32394409179688 C 147.64260864257812 41.935184478759766 193.8935089111328 113.63707733154297 180.04225158691406 47.37118911743164" stroke-width="3.0" fill="none" stroke="rgb(0, 0, 0)" stroke-opacity="1.0" stroke-linecap="round" stroke-linejoin="round"/>
    <path d="M 158.23907470703125 99.01021575927734 C 168.11923217773438 109.91643524169922 170.56222534179688 102.6711654663086 180.6204833984375 119.16569519042969" stroke-width="3.0" fill="none" stroke="rgb(0, 0, 0)" stroke-opacity="1.0" stroke-linecap="round" stroke-linejoin="round"/>
    <path d="M 176.73611450195312 15.750622749328613 C 164.37225341796875 43.07379150390625 171.71388244628906 21.809385299682617 159.74774169921875 37.584068298339844" stroke-width="3.0" fill="none" stroke="rgb(0, 0, 0)" stroke-opacity="1.0" stroke-linecap="round" stroke-linejoin="round"/>
    <path d="M 118.56094360351562 104.1834945678711 C 143.85372924804688 100.59667205810547 133.36305236816406 114.69542694091797 118.86748504638672 101.9514389038086" stroke-width="3.0" fill="none" stroke="rgb(0, 0, 0)" stroke-opacity="1.0" stroke-linecap="round" stroke-linejoin="round"/>
    <path d="M 77.64189910888672 137.77694702148438 C 50.92177200317383 122.78738403320312 61.06595993041992 113.68232727050781 60.73672866821289 121.15678405761719" stroke-width="3.0" fill="none" stroke="rgb(0, 0, 0)" stroke-opacity="1.0" stroke-linecap="round" stroke-linejoin="round"/>
    <path d="M 123.83439636230469 75.64041900634766 C 123.55729675292969 40.31120300292969 115.19007110595703 57.173465728759766 118.02342987060547 33.540287017822266" stroke-width="3.0" fill="none" stroke="rgb(0, 0, 0)" stroke-opacity="1.0" stroke-linecap="round" stroke-linejoin="round"/>
    <path d="M 152.02230834960938 27.628129959106445 C 146.80357360839844 38.071876525878906 159.3096923828125 10.872740745544434 176.68606567382812 9.295003890991211" stroke-width="3.0" fill="none" stroke="rgb(0, 0, 0)" stroke-opacity="1.0" stroke-linecap="round" stroke-linejoin="round"/>
  </g>
</svg>
