<?xml version="1.0" ?>
<svg xmlns="http://www.w3.org/2000/svg" version="1.1" width="224" height="224">
  <defs/>
  <g>
    <path d="M 58.60417938232422 92.50873565673828 C 67.22907257080078 84.87960052490234 53.80475616455078 84.40892028808594 73.32231903076172 57.81807327270508" stroke-width="3.0" fill="none" stroke="rgb(0, 0, 0)" stroke-opacity="1.0" stroke-linecap="round" stroke-linejoin="round"/>
    <path d="M 194.3102264404297 110.16000366210938 C 186.98818969726562 107.75727844238281 192.9537811279297 97.50133514404297 178.93402099609375 128.4202423095703" stroke-width="3.0" fill="none" stroke="rgb(0, 0, 0)" stroke-opacity="1.0" stroke-linecap="round" stroke-linejoin="round"/>
    <path d="M 62.00498962402344 122.46360778808594 C 52.4578857421875 87.71080017089844 58.44861602783203 125.20608520507812 64.01321411132812 123.06202697753906" stroke-width="3.0" fill="none" stroke="rgb(0, 0, 0)" stroke-opacity="1.0" stroke-linecap="round" stroke-linejoin="round"/>
    <path d="M 184.83795166015625 94.26367950439453 C 153.47756958007812 71.10411834716797 178.45217895507812 79.00360107421875 187.5784149169922 101.17707824707031" stroke-width="3.0" fill="none" stroke="rgb(0, 0, 0)" stroke-opacity="1.0" stroke-linecap="round" stroke-linejoin="round"/>
    <path d="M 179.02703857421875 41.85145568847656 C 194.94342041015625 99.32279968261719 179.2730712890625 110.82613372802734 184.15487670898438 58.54997634887695" stroke-width="3.0" fill="none" stroke="rgb(0, 0, 0)" stroke-opacity="1.0" stroke-linecap="round" stroke-linejoin="round"/>
    <path d="M 128.59671020507812 101.99803161621094 C 146.69332885742188 119.09246826171875 96.31346893310547 101.765869140625 136.49644470214844 105.29376220703125" stroke-width="3.0" fill="none" stroke="rgb(0, 0, 0)" stroke-opacity="1.0" stroke-linecap="round" stroke-linejoin="round"/>
    <path d="M 184.0674285888672 86.90396881103516 C 171.31570434570312 85.83280944824219 191.4026336669922 71.92122650146484 154.86314392089844 87.4739761352539" stroke-width="3.0" fill="none" stroke="rgb(0, 0, 0)" stroke-opacity="1.0" stroke-linecap="round" stroke-linejoin="round"/>
    <path d="M 64.98538208007812 191.72274780273438 C 41.37711715698242 169.31556701660156 47.41584777832031 167.89186096191406 60.78122329711914 188.3470458984375" stroke-width="3.0" fill="none" stroke="rgb(0, 0, 0)" stroke-opacity="1.0" stroke-linecap="round" stroke-linejoin="round"/>
    <path d="M 57.03775405883789 182.98834228515625 C 89.826904296875 211.17462158203125 133.1346893310547 196.63975524902344 139.03533935546875 161.12611389160156" stroke-width="3.0" fill="none" stroke="rgb(0, 0, 0)" stroke-opacity="1.0" stroke-linecap="round" stroke-linejoin="round"/>
    <path d="M 82.64652252197266 13.248551368713379 C 91.2579345703125 75.26317596435547 91.10035705566406 9.710345268249512 86.00679016113281 54.09702682495117" stroke-width="3.0" fill="none" stroke="rgb(0, 0, 0)" stroke-opacity="1.0" stroke-linecap="round" stroke-linejoin="round"/>
    <path d="M 62.469749450683594 94.70467376708984 C 50.66336441040039 128.57208251953125 75.53536987304688 129.94227600097656 60.24306869506836 119.39241790771484" stroke-width="3.0" fill="none" stroke="rgb(0, 0, 0)" stroke-opacity="1.0" stroke-linecap="round" stroke-linejoin="round"/>
    <path d="M 145.71798706054688 72.72663116455078 C 188.99044799804688 70.44951629638672 197.21734619140625 88.61809539794922 138.27801513671875 86.78252410888672" stroke-width="3.0" fill="none" stroke="rgb(0, 0, 0)" stroke-opacity="1.0" stroke-linecap="round" stroke-linejoin="round"/>
    <path d="M 148.32518005371094 96.688720703125 C 182.1377410888672 98.88501739501953 174.5936737060547 100.30982971191406 195.85182189941406 113.69062042236328" stroke-width="3.0" fill="none" stroke="rgb(0, 0, 0)" stroke-opacity="1.0" stroke-linecap="round" stroke-linejoin="round"/>
    <path d="M 129.9663848876953 150.5458984375 C 167.37246704101562 159.35533142089844 97.28868865966797 143.28016662597656 96.86843872070312 152.31849670410156" stroke-width="3.0" fill="none" stroke="rgb(0, 0, 0)" stroke-opacity="1.0" stroke-linecap="round" stroke-linejoin="round"/>
    <path d="M 177.4237060546875 7.647388458251953 C 189.1436004638672 19.207597732543945 169.1294708251953 101.69554138183594 182.3350067138672 57.40538024902344" stroke-width="3.0" fill="none" stroke="rgb(0, 0, 0)" stroke-opacity="1.0" stroke-linecap="round" stroke-linejoin="round"/>
    <path d="M 144.980712890625 31.002239227294922 C 109.37114715576172 28.040464401245117 135.37953186035156 31.363683700561523 130.84681701660156 65.5591812133789" stroke-width="3.0" fill="none" stroke="rgb(0, 0, 0)" stroke-opacity="1.0" stroke-linecap="round" stroke-linejoin="round"/>
    <path d="M 102.55770111083984 46.970176696777344 C 63.886959075927734 -3.8964178562164307 86.15158081054688 2.722304344177246 120.46426391601562 32.61544418334961" stroke-width="3.0" fill="none" stroke="rgb(0, 0, 0)" stroke-opacity="1.0" stroke-linecap="round" stroke-linejoin="round"/>
    <path d="M 46.01049041748047 162.33473205566406 C 46.56182861328125 157.47048950195312 40.006195068359375 155.77442932128906 49.53303527832031 175.75106811523438" stroke-width="3.0" fill="none" stroke="rgb(0, 0, 0)" stroke-opacity="1.0" stroke-linecap="round" stroke-linejoin="round"/>
    <path d="M 60.22740936279297 69.66299438476562 C 23.423887252807617 123.74508666992188 42.348270416259766 140.01077270507812 44.683143615722656 162.48793029785156" stroke-width="3.0" fill="none" stroke="rgb(0, 0, 0)" stroke-opacity="1.0" stroke-linecap="round" stroke-linejoin="round"/>
    <path d="M 72.14531707763672 132.05267333984375 C 136.6330108642578 164.6887969970703 105.62899017333984 149.52798461914062 86.18475341796875 143.5635528564453" stroke-width="3.0" fill="none" stroke="rgb(0, 0, 0)" stroke-opacity="1.0" stroke-linecap="round" stroke-linejoin="round"/>
    <path d="M 88.18645477294922 196.64295959472656 C 64.99972534179688 202.6318359375 48.207916259765625 177.15744018554688 43.8109016418457 153.3443145751953" stroke-width="3.0" fill="none" stroke="rgb(0, 0, 0)" stroke-opacity="1.0" stroke-linecap="round" stroke-linejoin="round"/>
    <path d="M 50.46938705444336 172.9780731201172 C 66.80648040771484 201.5743865966797 48.05521774291992 175.44398498535156 37.872032165527344 144.23468017578125" stroke-width="3.0" fill="none" stroke="rgb(0, 0, 0)" stroke-opacity="1.0" stroke-linecap="round" stroke-linejoin="round"/>
    <path d="M 80.34505462646484 55.66642761230469 C 57.363731384277344 60.38881301879883 65.42575073242188 70.158447265625 36.74264144897461 120.83586120605469" stroke-width="3.0" fill="none" stroke="rgb(0, 0, 0)" stroke-opacity="1.0" stroke-linecap="round" stroke-linejoin="round"/>
    <path d="M 155.0213623046875 143.77989196777344 C 105.69977569580078 159.51864624023438 68.8625717163086 147.0984344482422 143.41612243652344 150.06690979003906" stroke-width="3.0" fill="none" stroke="rgb(0, 0, 0)" stroke-opacity="1.0" stroke-linecap="round" stroke-linejoin="round"/>
    <path d="M 149.68014526367188 27.80606460571289 C 146.55418395996094 33.511451721191406 137.66738891601562 13.161468505859375 137.4123992919922 72.47514343261719" stroke-width="3.0" fill="none" stroke="rgb(0, 0, 0)" stroke-opacity="1.0" stroke-linecap="round" stroke-linejoin="round"/>
    <path d="M 145.04632568359375 101.54857635498047 C 124.82987213134766 114.26673126220703 122.02525329589844 109.88389587402344 112.83969116210938 95.53343963623047" stroke-width="3.0" fill="none" stroke="rgb(0, 0, 0)" stroke-opacity="1.0" stroke-linecap="round" stroke-linejoin="round"/>
    <path d="M 138.23492431640625 71.17264556884766 C 141.78372192382812 54.972015380859375 132.8920440673828 69.9621810913086 140.4257049560547 71.73526763916016" stroke-width="3.0" fill="none" stroke="rgb(0, 0, 0)" stroke-opacity="1.0" stroke-linecap="round" stroke-linejoin="round"/>
    <path d="M 137.63661193847656 162.26296997070312 C 130.4620819091797 164.7568817138672 141.7869415283203 158.57174682617188 145.30555725097656 146.79693603515625" stroke-width="3.0" fill="none" stroke="rgb(0, 0, 0)" stroke-opacity="1.0" stroke-linecap="round" stroke-linejoin="round"/>
    <path d="M 193.90325927734375 94.46720886230469 C 168.17996215820312 64.34929656982422 180.87413024902344 64.23138427734375 187.91297912597656 98.9349594116211" stroke-width="3.0" fill="none" stroke="rgb(0, 0, 0)" stroke-opacity="1.0" stroke-linecap="round" stroke-linejoin="round"/>
    <path d="M 154.2552947998047 77.87353515625 C 120.39669799804688 58.026206970214844 213.69296264648438 87.04559326171875 173.80215454101562 65.67997741699219" stroke-width="3.0" fill="none" stroke="rgb(0, 0, 0)" stroke-opacity="1.0" stroke-linecap="round" stroke-linejoin="round"/>
    <path d="M 114.41667175292969 83.20532989501953 C 85.34243774414062 73.58857727050781 137.56101989746094 75.08053588867188 108.50081634521484 82.81019592285156" stroke-width="3.0" fill="none" stroke="rgb(0, 0, 0)" stroke-opacity="1.0" stroke-linecap="round" stroke-linejoin="round"/>
    <path d="M 169.39588928222656 128.79627990722656 C 155.27638244628906 154.87588500976562 91.1203384399414 147.3371124267578 90.34162902832031 146.467041015625" stroke-width="3.0" fill="none" stroke="rgb(0, 0, 0)" stroke-opacity="1.0" stroke-linecap="round" stroke-linejoin="round"/>
    <path d="M 121.88106536865234 89.58312225341797 C 140.7559051513672 96.91976928710938 125.38675689697266 71.8786392211914 128.22605895996094 108.07203674316406" stroke-width="3.0" fill="none" stroke="rgb(0, 0, 0)" stroke-opacity="1.0" stroke-linecap="round" stroke-linejoin="round"/>
    <path d="M 188.77517700195312 110.19300842285156 C 167.61163330078125 88.83623504638672 167.9544677734375 98.70275115966797 141.46868896484375 81.12259674072266" stroke-width="3.0" fill="none" stroke="rgb(0, 0, 0)" stroke-opacity="1.0" stroke-linecap="round" stroke-linejoin="round"/>
    <path d="M 92.69454956054688 23.150901794433594 C 127.11013793945312 29.661407470703125 87.05543518066406 32.22507095336914 149.14939880371094 28.13144874572754" stroke-width="3.0" fill="none" stroke="rgb(0, 0, 0)" stroke-opacity="1.0" stroke-linecap="round" stroke-linejoin="round"/>
    <path d="M 60.300018310546875 114.3385009765625 C 59.64056396484375 95.791748046875 47.78522872924805 116.17730712890625 71.48672485351562 134.18467712402344" stroke-width="3.0" fill="none" stroke="rgb(0, 0, 0)" stroke-opacity="1.0" stroke-linecap="round" stroke-linejoin="round"/>
    <path d="M 137.35862731933594 104.75920867919922 C 121.88053894042969 85.36969757080078 120.32776641845703 123.2047348022461 112.63680267333984 91.70987701416016" stroke-width="3.0" fill="none" stroke="rgb(0, 0, 0)" stroke-opacity="1.0" stroke-linecap="round" stroke-linejoin="round"/>
    <path d="M 38.42462158203125 145.9006805419922 C 25.074901580810547 120.6531982421875 39.425106048583984 76.51764678955078 66.59082794189453 63.040069580078125" stroke-width="3.0" fill="none" stroke="rgb(0, 0, 0)" stroke-opacity="1.0" stroke-linecap="round" stroke-linejoin="round"/>
    <path d="M 87.03541564941406 197.56494140625 C 80.83580017089844 196.36659240722656 73.05609130859375 196.41957092285156 102.57293701171875 196.883056640625" stroke-width="3.0" fill="none" stroke="rgb(0, 0, 0)" stroke-opacity="1.0" stroke-linecap="round" stroke-linejoin="round"/>
    <path d="M 170.6297149658203 130.3446502685547 C 199.3494110107422 111.11668395996094 194.64926147460938 87.38870239257812 151.26620483398438 91.00413513183594" stroke-width="3.0" fill="none" stroke="rgb(0, 0, 0)" stroke-opacity="1.0" stroke-linecap="round" stroke-linejoin="round"/>
    <path d="M 158.7318115234375 70.03730773925781 C 128.52877807617188 79.15592193603516 166.7639617919922 82.26446533203125 154.19361877441406 67.87646484375" stroke-width="3.0" fill="none" stroke="rgb(0, 0, 0)" stroke-opacity="1.0" stroke-linecap="round" stroke-linejoin="round"/>
    <path d="M 139.73736572265625 77.06733703613281 C 136.92059326171875 38.21561813354492 206.92840576171875 115.57616424560547 177.151123046875 52.75194549560547" stroke-width="3.0" fill="none" stroke="rgb(0, 0, 0)" stroke-opacity="1.0" stroke-linecap="round" stroke-linejoin="round"/>
    <path d="M 156.39276123046875 98.79623413085938 C 171.85357666015625 110.7183609008789 182.44488525390625 102.62682342529297 184.2709197998047 123.5801773071289" stroke-width="3.0" fill="none" stroke="rgb(0, 0, 0)" stroke-opacity="1.0" stroke-linecap="round" stroke-linejoin="round"/>
    <path d="M 175.1829071044922 15.512862205505371 C 173.5112762451172 41.89494323730469 172.71844482421875 19.85862159729004 160.07713317871094 40.83306121826172" stroke-width="3.0" fill="none" stroke="rgb(0, 0, 0)" stroke-opacity="1.0" stroke-linecap="round" stroke-linejoin="round"/>
    <path d="M 121.96368408203125 103.64822387695312 C 147.320068359375 99.70207214355469 127.094482421875 114.23887634277344 122.95519256591797 104.94866943359375" stroke-width="3.0" fill="none" stroke="rgb(0, 0, 0)" stroke-opacity="1.0" stroke-linecap="round" stroke-linejoin="round"/>
    <path d="M 61.101505279541016 104.32128143310547 C 59.46242904663086 103.69779205322266 56.480655670166016 114.48992156982422 62.70102310180664 115.32144165039062" stroke-width="3.0" fill="none" stroke="rgb(0, 0, 0)" stroke-opacity="1.0" stroke-linecap="round" stroke-linejoin="round"/>
    <path d="M 121.18910217285156 76.9789810180664 C 126.5252456665039 51.647613525390625 115.01423645019531 57.79615783691406 119.47855377197266 36.215614318847656" stroke-width="3.0" fill="none" stroke="rgb(0, 0, 0)" stroke-opacity="1.0" stroke-linecap="round" stroke-linejoin="round"/>
    <path d="M 144.18470764160156 30.72576332092285 C 142.19992065429688 37.70313262939453 160.3558349609375 8.487959861755371 174.8866729736328 6.425808429718018" stroke-width="3.0" fill="none" stroke="rgb(0, 0, 0)" stroke-opacity="1.0" stroke-linecap="round" stroke-linejoin="round"/>
  </g>
</svg>
