<?xml version="1.0" ?>
<svg xmlns="http://www.w3.org/2000/svg" version="1.1" width="224" height="224">
  <defs/>
  <g>
    <path d="M 53.44319534301758 97.0589370727539 C 57.79768371582031 101.79588317871094 54.60972213745117 98.22682189941406 45.31768035888672 82.89879608154297" stroke-width="3.0" fill="none" stroke="rgb(0, 0, 0)" stroke-opacity="1.0" stroke-linecap="round" stroke-linejoin="round"/>
    <path d="M 184.73048400878906 122.87850952148438 C 177.29380798339844 106.91690063476562 191.78140258789062 100.66114044189453 177.81626892089844 127.0244140625" stroke-width="3.0" fill="none" stroke="rgb(0, 0, 0)" stroke-opacity="1.0" stroke-linecap="round" stroke-linejoin="round"/>
    <path d="M 61.027626037597656 119.39381408691406 C 56.90185546875 108.14305114746094 53.209556579589844 111.99007415771484 66.73036193847656 123.72321319580078" stroke-width="3.0" fill="none" stroke="rgb(0, 0, 0)" stroke-opacity="1.0" stroke-linecap="round" stroke-linejoin="round"/>
    <path d="M 183.47454833984375 98.60326385498047 C 150.1719512939453 87.33831787109375 175.60252380371094 79.7008285522461 197.0084686279297 112.73553466796875" stroke-width="3.0" fill="none" stroke="rgb(0, 0, 0)" stroke-opacity="1.0" stroke-linecap="round" stroke-linejoin="round"/>
    <path d="M 183.24424743652344 71.87062072753906 C 176.0623016357422 99.88032531738281 186.9279327392578 93.16199493408203 182.28614807128906 55.647987365722656" stroke-width="3.0" fill="none" stroke="rgb(0, 0, 0)" stroke-opacity="1.0" stroke-linecap="round" stroke-linejoin="round"/>
    <path d="M 125.57321166992188 102.00186920166016 C 146.0032501220703 111.93186950683594 103.73126983642578 100.4123306274414 135.09341430664062 104.92115783691406" stroke-width="3.0" fill="none" stroke="rgb(0, 0, 0)" stroke-opacity="1.0" stroke-linecap="round" stroke-linejoin="round"/>
    <path d="M 167.18881225585938 102.96842956542969 C 196.7394256591797 81.26142120361328 183.66236877441406 70.65388488769531 153.66348266601562 86.32078552246094" stroke-width="3.0" fill="none" stroke="rgb(0, 0, 0)" stroke-opacity="1.0" stroke-linecap="round" stroke-linejoin="round"/>
    <path d="M 57.19697952270508 182.3715362548828 C 38.90040969848633 154.63783264160156 48.95492935180664 165.04640197753906 47.39427185058594 171.0696563720703" stroke-width="3.0" fill="none" stroke="rgb(0, 0, 0)" stroke-opacity="1.0" stroke-linecap="round" stroke-linejoin="round"/>
    <path d="M 57.48202896118164 182.2654266357422 C 90.79466247558594 211.3611297607422 110.05921936035156 198.0242462158203 133.23324584960938 180.3030242919922" stroke-width="3.0" fill="none" stroke="rgb(0, 0, 0)" stroke-opacity="1.0" stroke-linecap="round" stroke-linejoin="round"/>
    <path d="M 83.2412338256836 29.79795265197754 C 96.5075454711914 60.69054412841797 82.70005798339844 8.276487350463867 84.75077056884766 50.539432525634766" stroke-width="3.0" fill="none" stroke="rgb(0, 0, 0)" stroke-opacity="1.0" stroke-linecap="round" stroke-linejoin="round"/>
    <path d="M 60.65020751953125 114.3344497680664 C 57.57121276855469 132.88650512695312 104.83586883544922 154.08778381347656 99.51607513427734 153.94671630859375" stroke-width="3.0" fill="none" stroke="rgb(0, 0, 0)" stroke-opacity="1.0" stroke-linecap="round" stroke-linejoin="round"/>
    <path d="M 147.0278778076172 75.7063217163086 C 208.47372436523438 65.4923095703125 187.27188110351562 83.6710433959961 149.6562042236328 85.82899475097656" stroke-width="3.0" fill="none" stroke="rgb(0, 0, 0)" stroke-opacity="1.0" stroke-linecap="round" stroke-linejoin="round"/>
    <path d="M 151.2455291748047 97.57649993896484 C 181.30699157714844 102.7012710571289 178.79806518554688 102.11490631103516 189.05801391601562 110.36682891845703" stroke-width="3.0" fill="none" stroke="rgb(0, 0, 0)" stroke-opacity="1.0" stroke-linecap="round" stroke-linejoin="round"/>
    <path d="M 112.21162414550781 154.7496337890625 C 145.29734802246094 144.06361389160156 117.06227111816406 157.50253295898438 121.30498504638672 149.25277709960938" stroke-width="3.0" fill="none" stroke="rgb(0, 0, 0)" stroke-opacity="1.0" stroke-linecap="round" stroke-linejoin="round"/>
    <path d="M 175.7991943359375 8.175443649291992 C 190.90060424804688 8.429872512817383 173.22073364257812 60.0974006652832 179.6223602294922 48.369895935058594" stroke-width="3.0" fill="none" stroke="rgb(0, 0, 0)" stroke-opacity="1.0" stroke-linecap="round" stroke-linejoin="round"/>
    <path d="M 135.99075317382812 31.435726165771484 C 124.38945007324219 59.44727325439453 134.853271484375 39.310028076171875 125.38709259033203 72.13687133789062" stroke-width="3.0" fill="none" stroke="rgb(0, 0, 0)" stroke-opacity="1.0" stroke-linecap="round" stroke-linejoin="round"/>
    <path d="M 89.07581329345703 46.57242965698242 C 72.8050765991211 -5.9665703773498535 86.08899688720703 -2.630152463912964 105.52345275878906 41.51987075805664" stroke-width="3.0" fill="none" stroke="rgb(0, 0, 0)" stroke-opacity="1.0" stroke-linecap="round" stroke-linejoin="round"/>
    <path d="M 46.15034866333008 164.74569702148438 C 38.45714569091797 153.73452758789062 36.88380432128906 145.31893920898438 41.469139099121094 157.02188110351562" stroke-width="3.0" fill="none" stroke="rgb(0, 0, 0)" stroke-opacity="1.0" stroke-linecap="round" stroke-linejoin="round"/>
    <path d="M 34.28800582885742 101.88691711425781 C 22.048351287841797 124.3970947265625 35.97276306152344 146.04515075683594 40.404205322265625 153.04547119140625" stroke-width="3.0" fill="none" stroke="rgb(0, 0, 0)" stroke-opacity="1.0" stroke-linecap="round" stroke-linejoin="round"/>
    <path d="M 91.1551284790039 148.64523315429688 C 103.29014587402344 158.24073791503906 120.3252944946289 137.4955596923828 111.51805114746094 156.0516815185547" stroke-width="3.0" fill="none" stroke="rgb(0, 0, 0)" stroke-opacity="1.0" stroke-linecap="round" stroke-linejoin="round"/>
    <path d="M 78.79645538330078 197.22450256347656 C 63.55128479003906 197.4674530029297 56.4151496887207 178.33572387695312 49.99071502685547 175.3709259033203" stroke-width="3.0" fill="none" stroke="rgb(0, 0, 0)" stroke-opacity="1.0" stroke-linecap="round" stroke-linejoin="round"/>
    <path d="M 44.78325271606445 163.38436889648438 C 59.27702331542969 191.2695770263672 43.960357666015625 162.71780395507812 39.889854431152344 150.31275939941406" stroke-width="3.0" fill="none" stroke="rgb(0, 0, 0)" stroke-opacity="1.0" stroke-linecap="round" stroke-linejoin="round"/>
    <path d="M 78.79252624511719 53.461181640625 C 52.88783645629883 56.11052322387695 48.45589065551758 70.14215850830078 32.15520095825195 105.85753631591797" stroke-width="3.0" fill="none" stroke="rgb(0, 0, 0)" stroke-opacity="1.0" stroke-linecap="round" stroke-linejoin="round"/>
    <path d="M 147.87603759765625 141.66030883789062 C 129.7178955078125 157.4273223876953 118.03146362304688 150.29795837402344 130.25466918945312 152.45619201660156" stroke-width="3.0" fill="none" stroke="rgb(0, 0, 0)" stroke-opacity="1.0" stroke-linecap="round" stroke-linejoin="round"/>
    <path d="M 141.43115234375 32.53114700317383 C 146.86538696289062 70.6974868774414 134.3179168701172 56.73383712768555 137.58673095703125 76.49578857421875" stroke-width="3.0" fill="none" stroke="rgb(0, 0, 0)" stroke-opacity="1.0" stroke-linecap="round" stroke-linejoin="round"/>
    <path d="M 147.25027465820312 99.54579162597656 C 120.00594329833984 112.2187728881836 130.72254943847656 105.65554809570312 141.08251953125 103.39818572998047" stroke-width="3.0" fill="none" stroke="rgb(0, 0, 0)" stroke-opacity="1.0" stroke-linecap="round" stroke-linejoin="round"/>
    <path d="M 138.49887084960938 73.24580383300781 C 145.82882690429688 57.09235382080078 135.21270751953125 63.180503845214844 137.4717254638672 68.97752380371094" stroke-width="3.0" fill="none" stroke="rgb(0, 0, 0)" stroke-opacity="1.0" stroke-linecap="round" stroke-linejoin="round"/>
    <path d="M 136.87881469726562 173.177734375 C 124.46117401123047 186.38922119140625 139.69927978515625 181.2188720703125 144.4433135986328 147.2379150390625" stroke-width="3.0" fill="none" stroke="rgb(0, 0, 0)" stroke-opacity="1.0" stroke-linecap="round" stroke-linejoin="round"/>
    <path d="M 194.76077270507812 94.89844512939453 C 170.8802032470703 71.46894836425781 149.7375946044922 83.80345916748047 181.77621459960938 86.04191589355469" stroke-width="3.0" fill="none" stroke="rgb(0, 0, 0)" stroke-opacity="1.0" stroke-linecap="round" stroke-linejoin="round"/>
    <path d="M 149.4835662841797 78.56344604492188 C 162.35763549804688 63.5741081237793 203.496826171875 77.23572540283203 177.60032653808594 62.30214309692383" stroke-width="3.0" fill="none" stroke="rgb(0, 0, 0)" stroke-opacity="1.0" stroke-linecap="round" stroke-linejoin="round"/>
    <path d="M 114.71501922607422 83.10530853271484 C 92.75634765625 72.59886932373047 135.22918701171875 77.8439712524414 112.00627899169922 82.00767517089844" stroke-width="3.0" fill="none" stroke="rgb(0, 0, 0)" stroke-opacity="1.0" stroke-linecap="round" stroke-linejoin="round"/>
    <path d="M 148.48281860351562 140.67198181152344 C 139.41363525390625 160.8040008544922 113.14945983886719 141.94068908691406 101.2043685913086 155.06825256347656" stroke-width="3.0" fill="none" stroke="rgb(0, 0, 0)" stroke-opacity="1.0" stroke-linecap="round" stroke-linejoin="round"/>
    <path d="M 123.433349609375 91.4500961303711 C 142.4464569091797 101.18051147460938 133.33563232421875 70.55976104736328 127.39128875732422 103.77153778076172" stroke-width="3.0" fill="none" stroke="rgb(0, 0, 0)" stroke-opacity="1.0" stroke-linecap="round" stroke-linejoin="round"/>
    <path d="M 189.0130615234375 110.39722442626953 C 182.63795471191406 77.0650863647461 181.41058349609375 96.82556915283203 141.14419555664062 84.65056610107422" stroke-width="3.0" fill="none" stroke="rgb(0, 0, 0)" stroke-opacity="1.0" stroke-linecap="round" stroke-linejoin="round"/>
    <path d="M 86.79450225830078 8.608591079711914 C 105.80533599853516 12.990311622619629 117.24551391601562 30.777618408203125 121.89593505859375 29.76638412475586" stroke-width="3.0" fill="none" stroke="rgb(0, 0, 0)" stroke-opacity="1.0" stroke-linecap="round" stroke-linejoin="round"/>
    <path d="M 61.57243347167969 119.99842834472656 C 57.065773010253906 113.21276092529297 66.70349884033203 133.52700805664062 64.44703674316406 119.90741729736328" stroke-width="3.0" fill="none" stroke="rgb(0, 0, 0)" stroke-opacity="1.0" stroke-linecap="round" stroke-linejoin="round"/>
    <path d="M 139.05531311035156 103.49944305419922 C 125.2892837524414 99.18254089355469 127.91995239257812 118.49156951904297 114.51095581054688 89.65975952148438" stroke-width="3.0" fill="none" stroke="rgb(0, 0, 0)" stroke-opacity="1.0" stroke-linecap="round" stroke-linejoin="round"/>
    <path d="M 30.514347076416016 132.93673706054688 C 26.834781646728516 118.15613555908203 33.4737548828125 101.99097442626953 33.2901725769043 103.26744079589844" stroke-width="3.0" fill="none" stroke="rgb(0, 0, 0)" stroke-opacity="1.0" stroke-linecap="round" stroke-linejoin="round"/>
    <path d="M 79.03343963623047 197.1796417236328 C 75.46086883544922 191.49386596679688 70.19181823730469 197.1505889892578 93.36753845214844 198.2522430419922" stroke-width="3.0" fill="none" stroke="rgb(0, 0, 0)" stroke-opacity="1.0" stroke-linecap="round" stroke-linejoin="round"/>
    <path d="M 151.7625732421875 138.3927001953125 C 209.2418670654297 113.82976531982422 181.75392150878906 98.79825592041016 154.14283752441406 91.59148406982422" stroke-width="3.0" fill="none" stroke="rgb(0, 0, 0)" stroke-opacity="1.0" stroke-linecap="round" stroke-linejoin="round"/>
    <path d="M 158.62973022460938 69.75069427490234 C 126.96036529541016 79.58773803710938 175.87020874023438 85.53865814208984 149.4010009765625 69.09176635742188" stroke-width="3.0" fill="none" stroke="rgb(0, 0, 0)" stroke-opacity="1.0" stroke-linecap="round" stroke-linejoin="round"/>
    <path d="M 141.02391052246094 78.82537078857422 C 147.81858825683594 43.36911392211914 194.7894287109375 106.39066314697266 177.32972717285156 46.183162689208984" stroke-width="3.0" fill="none" stroke="rgb(0, 0, 0)" stroke-opacity="1.0" stroke-linecap="round" stroke-linejoin="round"/>
    <path d="M 158.60284423828125 100.07106018066406 C 165.30044555664062 103.68521118164062 177.80935668945312 102.1114273071289 180.26402282714844 118.52010345458984" stroke-width="3.0" fill="none" stroke="rgb(0, 0, 0)" stroke-opacity="1.0" stroke-linecap="round" stroke-linejoin="round"/>
    <path d="M 177.47503662109375 17.517749786376953 C 171.18728637695312 42.023380279541016 175.03787231445312 22.146493911743164 160.35313415527344 36.83211898803711" stroke-width="3.0" fill="none" stroke="rgb(0, 0, 0)" stroke-opacity="1.0" stroke-linecap="round" stroke-linejoin="round"/>
    <path d="M 116.98717498779297 99.59996795654297 C 138.51536560058594 104.20950317382812 130.83868408203125 111.70502471923828 117.45247650146484 95.68311309814453" stroke-width="3.0" fill="none" stroke="rgb(0, 0, 0)" stroke-opacity="1.0" stroke-linecap="round" stroke-linejoin="round"/>
    <path d="M 65.61592102050781 126.89997863769531 C 50.041751861572266 94.53626251220703 53.80249786376953 102.75638580322266 63.366817474365234 120.91717529296875" stroke-width="3.0" fill="none" stroke="rgb(0, 0, 0)" stroke-opacity="1.0" stroke-linecap="round" stroke-linejoin="round"/>
    <path d="M 125.21366882324219 78.36717987060547 C 129.45091247558594 37.90129089355469 118.38160705566406 53.69122314453125 126.50205993652344 30.120952606201172" stroke-width="3.0" fill="none" stroke="rgb(0, 0, 0)" stroke-opacity="1.0" stroke-linecap="round" stroke-linejoin="round"/>
    <path d="M 146.28639221191406 30.701417922973633 C 145.2855682373047 40.38911056518555 157.69911193847656 8.998176574707031 178.55470275878906 8.446696281433105" stroke-width="3.0" fill="none" stroke="rgb(0, 0, 0)" stroke-opacity="1.0" stroke-linecap="round" stroke-linejoin="round"/>
  </g>
</svg>
