<?xml version="1.0" ?>
<svg xmlns="http://www.w3.org/2000/svg" version="1.1" width="224" height="224">
  <defs/>
  <g>
    <path d="M 54.7919921875 103.90122985839844 C 61.79368591308594 90.29603576660156 49.27714920043945 94.15673828125 52.904075622558594 74.56776428222656" stroke-width="3.0" fill="none" stroke="rgb(0, 0, 0)" stroke-opacity="1.0" stroke-linecap="round" stroke-linejoin="round"/>
    <path d="M 189.1578369140625 116.71331024169922 C 181.70556640625 111.77565002441406 189.46221923828125 82.46826171875 180.4474639892578 126.46240997314453" stroke-width="3.0" fill="none" stroke="rgb(0, 0, 0)" stroke-opacity="1.0" stroke-linecap="round" stroke-linejoin="round"/>
    <path d="M 58.77534103393555 117.20549774169922 C 62.008907318115234 96.20513153076172 52.757320404052734 131.61070251464844 65.97970581054688 131.44219970703125" stroke-width="3.0" fill="none" stroke="rgb(0, 0, 0)" stroke-opacity="1.0" stroke-linecap="round" stroke-linejoin="round"/>
    <path d="M 185.09007263183594 95.377685546875 C 152.64285278320312 77.08137512207031 182.3357391357422 80.80303192138672 186.3401336669922 105.6440200805664" stroke-width="3.0" fill="none" stroke="rgb(0, 0, 0)" stroke-opacity="1.0" stroke-linecap="round" stroke-linejoin="round"/>
    <path d="M 179.43663024902344 56.82878875732422 C 184.3616180419922 99.03190612792969 174.8181610107422 98.44670867919922 180.0181121826172 72.04035186767578" stroke-width="3.0" fill="none" stroke="rgb(0, 0, 0)" stroke-opacity="1.0" stroke-linecap="round" stroke-linejoin="round"/>
    <path d="M 130.11557006835938 98.51113891601562 C 152.7782440185547 115.19085693359375 100.1436538696289 97.97417449951172 131.90753173828125 104.97808837890625" stroke-width="3.0" fill="none" stroke="rgb(0, 0, 0)" stroke-opacity="1.0" stroke-linecap="round" stroke-linejoin="round"/>
    <path d="M 183.42723083496094 87.18963623046875 C 181.99472045898438 73.87450408935547 192.90554809570312 70.45248413085938 142.25364685058594 87.46990203857422" stroke-width="3.0" fill="none" stroke="rgb(0, 0, 0)" stroke-opacity="1.0" stroke-linecap="round" stroke-linejoin="round"/>
    <path d="M 65.65724182128906 191.26332092285156 C 38.88119125366211 166.24188232421875 52.94203567504883 168.54554748535156 47.398319244384766 173.83544921875" stroke-width="3.0" fill="none" stroke="rgb(0, 0, 0)" stroke-opacity="1.0" stroke-linecap="round" stroke-linejoin="round"/>
    <path d="M 55.209075927734375 184.10443115234375 C 89.62134552001953 212.6737060546875 126.27503967285156 198.4083251953125 136.91900634765625 170.6402130126953" stroke-width="3.0" fill="none" stroke="rgb(0, 0, 0)" stroke-opacity="1.0" stroke-linecap="round" stroke-linejoin="round"/>
    <path d="M 83.88961029052734 19.661518096923828 C 95.98267364501953 76.47612762451172 91.13075256347656 6.293617248535156 83.48917388916016 57.28091812133789" stroke-width="3.0" fill="none" stroke="rgb(0, 0, 0)" stroke-opacity="1.0" stroke-linecap="round" stroke-linejoin="round"/>
    <path d="M 54.473411560058594 86.02416229248047 C 59.403831481933594 144.22665405273438 69.94224548339844 141.5792999267578 59.36332702636719 130.7130126953125" stroke-width="3.0" fill="none" stroke="rgb(0, 0, 0)" stroke-opacity="1.0" stroke-linecap="round" stroke-linejoin="round"/>
    <path d="M 146.83599853515625 73.24231719970703 C 206.33709716796875 65.85060119628906 193.56744384765625 86.28248596191406 140.15121459960938 86.11531829833984" stroke-width="3.0" fill="none" stroke="rgb(0, 0, 0)" stroke-opacity="1.0" stroke-linecap="round" stroke-linejoin="round"/>
    <path d="M 157.3706512451172 93.42471313476562 C 178.7537841796875 104.0894546508789 183.5122833251953 95.41020202636719 197.11709594726562 113.12030792236328" stroke-width="3.0" fill="none" stroke="rgb(0, 0, 0)" stroke-opacity="1.0" stroke-linecap="round" stroke-linejoin="round"/>
    <path d="M 119.99691772460938 150.55154418945312 C 153.26751708984375 153.5170135498047 103.09954071044922 147.76988220214844 101.63909912109375 154.40748596191406" stroke-width="3.0" fill="none" stroke="rgb(0, 0, 0)" stroke-opacity="1.0" stroke-linecap="round" stroke-linejoin="round"/>
    <path d="M 178.45643615722656 10.312676429748535 C 189.87937927246094 28.15104866027832 169.45545959472656 88.23490905761719 178.88169860839844 54.15427780151367" stroke-width="3.0" fill="none" stroke="rgb(0, 0, 0)" stroke-opacity="1.0" stroke-linecap="round" stroke-linejoin="round"/>
    <path d="M 135.28274536132812 31.228044509887695 C 102.98008728027344 24.486770629882812 135.92581176757812 40.9818229675293 123.18184661865234 77.78300476074219" stroke-width="3.0" fill="none" stroke="rgb(0, 0, 0)" stroke-opacity="1.0" stroke-linecap="round" stroke-linejoin="round"/>
    <path d="M 102.4365005493164 48.496646881103516 C 63.97146987915039 -3.3239872455596924 87.24388122558594 -1.2474849224090576 119.07462310791016 31.789573669433594" stroke-width="3.0" fill="none" stroke="rgb(0, 0, 0)" stroke-opacity="1.0" stroke-linecap="round" stroke-linejoin="round"/>
    <path d="M 46.26202392578125 169.8663787841797 C 42.884456634521484 156.07162475585938 38.945316314697266 149.9400634765625 48.128292083740234 170.0177459716797" stroke-width="3.0" fill="none" stroke="rgb(0, 0, 0)" stroke-opacity="1.0" stroke-linecap="round" stroke-linejoin="round"/>
    <path d="M 44.91664505004883 81.4655990600586 C 15.019388198852539 125.79119873046875 38.84897232055664 139.91473388671875 45.23807144165039 165.3997802734375" stroke-width="3.0" fill="none" stroke="rgb(0, 0, 0)" stroke-opacity="1.0" stroke-linecap="round" stroke-linejoin="round"/>
    <path d="M 65.73381805419922 138.6568145751953 C 121.64773559570312 159.366455078125 89.24636840820312 148.8682098388672 82.51835632324219 145.3749237060547" stroke-width="3.0" fill="none" stroke="rgb(0, 0, 0)" stroke-opacity="1.0" stroke-linecap="round" stroke-linejoin="round"/>
    <path d="M 89.00617218017578 198.44129943847656 C 69.4326171875 204.78079223632812 47.714012145996094 176.2725830078125 46.837547302246094 167.92958068847656" stroke-width="3.0" fill="none" stroke="rgb(0, 0, 0)" stroke-opacity="1.0" stroke-linecap="round" stroke-linejoin="round"/>
    <path d="M 49.18926239013672 170.45423889160156 C 65.87254333496094 196.94419860839844 47.16325378417969 172.42739868164062 39.6882438659668 151.4637908935547" stroke-width="3.0" fill="none" stroke="rgb(0, 0, 0)" stroke-opacity="1.0" stroke-linecap="round" stroke-linejoin="round"/>
    <path d="M 79.0736312866211 53.74758529663086 C 56.812808990478516 59.81191635131836 54.81186294555664 73.51607513427734 31.14309310913086 107.55614471435547" stroke-width="3.0" fill="none" stroke="rgb(0, 0, 0)" stroke-opacity="1.0" stroke-linecap="round" stroke-linejoin="round"/>
    <path d="M 158.42282104492188 139.21368408203125 C 101.71603393554688 154.06932067871094 91.48844909667969 159.5691375732422 144.4300994873047 144.0658721923828" stroke-width="3.0" fill="none" stroke="rgb(0, 0, 0)" stroke-opacity="1.0" stroke-linecap="round" stroke-linejoin="round"/>
    <path d="M 150.9292449951172 28.206026077270508 C 139.17620849609375 31.10918426513672 127.88517761230469 17.30184555053711 141.43441772460938 79.78050231933594" stroke-width="3.0" fill="none" stroke="rgb(0, 0, 0)" stroke-opacity="1.0" stroke-linecap="round" stroke-linejoin="round"/>
    <path d="M 146.8559112548828 100.9796371459961 C 129.19554138183594 115.61962127685547 129.45863342285156 104.72991943359375 115.85971069335938 92.89981842041016" stroke-width="3.0" fill="none" stroke="rgb(0, 0, 0)" stroke-opacity="1.0" stroke-linecap="round" stroke-linejoin="round"/>
    <path d="M 139.00830078125 71.23931121826172 C 139.0852508544922 53.29510498046875 132.63941955566406 76.38528442382812 140.62908935546875 76.9497299194336" stroke-width="3.0" fill="none" stroke="rgb(0, 0, 0)" stroke-opacity="1.0" stroke-linecap="round" stroke-linejoin="round"/>
    <path d="M 140.76930236816406 164.81829833984375 C 127.33695220947266 178.4352569580078 142.2613525390625 170.1853485107422 146.3551025390625 145.12619018554688" stroke-width="3.0" fill="none" stroke="rgb(0, 0, 0)" stroke-opacity="1.0" stroke-linecap="round" stroke-linejoin="round"/>
    <path d="M 193.80413818359375 95.83280944824219 C 161.8489532470703 71.84648132324219 166.7796630859375 78.01012420654297 180.99282836914062 96.16580963134766" stroke-width="3.0" fill="none" stroke="rgb(0, 0, 0)" stroke-opacity="1.0" stroke-linecap="round" stroke-linejoin="round"/>
    <path d="M 156.39077758789062 76.65668487548828 C 134.61146545410156 52.549015045166016 197.36952209472656 92.82544708251953 182.17822265625 60.98508834838867" stroke-width="3.0" fill="none" stroke="rgb(0, 0, 0)" stroke-opacity="1.0" stroke-linecap="round" stroke-linejoin="round"/>
    <path d="M 116.79528045654297 85.19436645507812 C 83.6565933227539 77.60218048095703 143.604248046875 80.837646484375 106.99151611328125 86.64095306396484" stroke-width="3.0" fill="none" stroke="rgb(0, 0, 0)" stroke-opacity="1.0" stroke-linecap="round" stroke-linejoin="round"/>
    <path d="M 168.2906951904297 127.42704010009766 C 148.96449279785156 156.6328582763672 110.35671997070312 147.62890625 108.7071533203125 157.31201171875" stroke-width="3.0" fill="none" stroke="rgb(0, 0, 0)" stroke-opacity="1.0" stroke-linecap="round" stroke-linejoin="round"/>
    <path d="M 125.0978012084961 92.32718658447266 C 144.172607421875 99.19172668457031 129.853759765625 73.54827117919922 131.4364471435547 104.75770568847656" stroke-width="3.0" fill="none" stroke="rgb(0, 0, 0)" stroke-opacity="1.0" stroke-linecap="round" stroke-linejoin="round"/>
    <path d="M 186.1710662841797 113.36592864990234 C 159.40374755859375 86.80083465576172 184.07034301757812 91.12223815917969 147.90628051757812 87.45783233642578" stroke-width="3.0" fill="none" stroke="rgb(0, 0, 0)" stroke-opacity="1.0" stroke-linecap="round" stroke-linejoin="round"/>
    <path d="M 84.7927474975586 9.784090995788574 C 118.57108306884766 20.11279296875 100.43487548828125 33.3630256652832 137.02352905273438 28.408111572265625" stroke-width="3.0" fill="none" stroke="rgb(0, 0, 0)" stroke-opacity="1.0" stroke-linecap="round" stroke-linejoin="round"/>
    <path d="M 61.09771728515625 118.09933471679688 C 59.23115539550781 111.94908142089844 59.57199478149414 120.70762634277344 63.47736358642578 126.7217025756836" stroke-width="3.0" fill="none" stroke="rgb(0, 0, 0)" stroke-opacity="1.0" stroke-linecap="round" stroke-linejoin="round"/>
    <path d="M 136.6042938232422 105.61469268798828 C 136.16885375976562 89.0417251586914 123.34203338623047 112.66104888916016 116.5634536743164 91.18412017822266" stroke-width="3.0" fill="none" stroke="rgb(0, 0, 0)" stroke-opacity="1.0" stroke-linecap="round" stroke-linejoin="round"/>
    <path d="M 32.39162063598633 134.56039428710938 C 27.464031219482422 117.13407135009766 33.18299102783203 85.65950012207031 57.824195861816406 67.80949401855469" stroke-width="3.0" fill="none" stroke="rgb(0, 0, 0)" stroke-opacity="1.0" stroke-linecap="round" stroke-linejoin="round"/>
    <path d="M 96.7529067993164 198.40513610839844 C 66.03372955322266 194.9720458984375 65.34307098388672 201.08534240722656 101.986328125 199.06643676757812" stroke-width="3.0" fill="none" stroke="rgb(0, 0, 0)" stroke-opacity="1.0" stroke-linecap="round" stroke-linejoin="round"/>
    <path d="M 170.89599609375 128.70846557617188 C 201.10768127441406 110.02730560302734 182.86346435546875 95.64070129394531 154.13101196289062 87.82872009277344" stroke-width="3.0" fill="none" stroke="rgb(0, 0, 0)" stroke-opacity="1.0" stroke-linecap="round" stroke-linejoin="round"/>
    <path d="M 149.49302673339844 66.81351470947266 C 135.6440887451172 85.66242980957031 178.58116149902344 72.75541687011719 150.5582275390625 70.59586334228516" stroke-width="3.0" fill="none" stroke="rgb(0, 0, 0)" stroke-opacity="1.0" stroke-linecap="round" stroke-linejoin="round"/>
    <path d="M 141.1009521484375 76.89439392089844 C 140.05552673339844 37.75484848022461 196.38427734375 110.2116470336914 178.1509246826172 46.888999938964844" stroke-width="3.0" fill="none" stroke="rgb(0, 0, 0)" stroke-opacity="1.0" stroke-linecap="round" stroke-linejoin="round"/>
    <path d="M 155.22561645507812 98.48429870605469 C 169.76788330078125 102.17056274414062 167.4604034423828 100.9773178100586 180.4650421142578 120.79312896728516" stroke-width="3.0" fill="none" stroke="rgb(0, 0, 0)" stroke-opacity="1.0" stroke-linecap="round" stroke-linejoin="round"/>
    <path d="M 178.80418395996094 14.670814514160156 C 179.9026641845703 42.172264099121094 163.4950714111328 17.481557846069336 145.96556091308594 35.8712158203125" stroke-width="3.0" fill="none" stroke="rgb(0, 0, 0)" stroke-opacity="1.0" stroke-linecap="round" stroke-linejoin="round"/>
    <path d="M 122.07781219482422 103.53960418701172 C 156.01934814453125 102.20181274414062 140.5371551513672 110.21479034423828 119.35829162597656 96.4954833984375" stroke-width="3.0" fill="none" stroke="rgb(0, 0, 0)" stroke-opacity="1.0" stroke-linecap="round" stroke-linejoin="round"/>
    <path d="M 63.950870513916016 120.52883911132812 C 50.66946029663086 112.52044677734375 57.51221466064453 108.8862075805664 59.930599212646484 118.1922836303711" stroke-width="3.0" fill="none" stroke="rgb(0, 0, 0)" stroke-opacity="1.0" stroke-linecap="round" stroke-linejoin="round"/>
    <path d="M 123.33584594726562 73.77616882324219 C 123.76803588867188 40.5745735168457 118.057373046875 61.40879440307617 122.06629180908203 39.126338958740234" stroke-width="3.0" fill="none" stroke="rgb(0, 0, 0)" stroke-opacity="1.0" stroke-linecap="round" stroke-linejoin="round"/>
    <path d="M 152.77743530273438 25.890052795410156 C 145.32859802246094 35.9482421875 166.05616760253906 8.781132698059082 177.5152130126953 10.84431266784668" stroke-width="3.0" fill="none" stroke="rgb(0, 0, 0)" stroke-opacity="1.0" stroke-linecap="round" stroke-linejoin="round"/>
  </g>
</svg>
