<?xml version="1.0" ?>
<svg xmlns="http://www.w3.org/2000/svg" version="1.1" width="224" height="224">
  <defs/>
  <g>
    <path d="M 62.61148452758789 97.75733184814453 C 65.19957733154297 97.91339874267578 59.030818939208984 97.98225402832031 52.943180084228516 96.05166625976562" stroke-width="3.0" fill="none" stroke="rgb(0, 0, 0)" stroke-opacity="1.0" stroke-linecap="round" stroke-linejoin="round"/>
    <path d="M 178.44711303710938 131.89642333984375 C 177.5752716064453 119.2226791381836 175.33660888671875 122.7153091430664 179.20339965820312 127.90682220458984" stroke-width="3.0" fill="none" stroke="rgb(0, 0, 0)" stroke-opacity="1.0" stroke-linecap="round" stroke-linejoin="round"/>
    <path d="M 53.802860260009766 110.4783706665039 C 47.06492233276367 114.6343765258789 46.893043518066406 100.82709503173828 51.904930114746094 108.34246826171875" stroke-width="3.0" fill="none" stroke="rgb(0, 0, 0)" stroke-opacity="1.0" stroke-linecap="round" stroke-linejoin="round"/>
    <path d="M 176.51956176757812 97.18683624267578 C 167.3337860107422 112.50531005859375 164.28273010253906 96.3658447265625 185.33197021484375 116.87261199951172" stroke-width="3.0" fill="none" stroke="rgb(0, 0, 0)" stroke-opacity="1.0" stroke-linecap="round" stroke-linejoin="round"/>
    <path d="M 183.5147247314453 77.1130142211914 C 185.93679809570312 82.71720123291016 179.33705139160156 73.634521484375 185.45333862304688 83.7325668334961" stroke-width="3.0" fill="none" stroke="rgb(0, 0, 0)" stroke-opacity="1.0" stroke-linecap="round" stroke-linejoin="round"/>
    <path d="M 129.39625549316406 105.58271026611328 C 121.1080322265625 111.91809844970703 122.03660583496094 105.4209213256836 123.94645690917969 108.11732482910156" stroke-width="3.0" fill="none" stroke="rgb(0, 0, 0)" stroke-opacity="1.0" stroke-linecap="round" stroke-linejoin="round"/>
    <path d="M 171.8253936767578 83.02317810058594 C 188.6788787841797 84.51022338867188 181.63485717773438 84.0293960571289 159.68106079101562 90.63597869873047" stroke-width="3.0" fill="none" stroke="rgb(0, 0, 0)" stroke-opacity="1.0" stroke-linecap="round" stroke-linejoin="round"/>
    <path d="M 58.677825927734375 176.1029052734375 C 53.96533966064453 162.87818908691406 54.13652038574219 181.23175048828125 61.68418502807617 168.07545471191406" stroke-width="3.0" fill="none" stroke="rgb(0, 0, 0)" stroke-opacity="1.0" stroke-linecap="round" stroke-linejoin="round"/>
    <path d="M 77.00833129882812 189.13949584960938 C 76.83466339111328 188.6201934814453 86.06980895996094 185.70803833007812 82.49846649169922 185.01475524902344" stroke-width="3.0" fill="none" stroke="rgb(0, 0, 0)" stroke-opacity="1.0" stroke-linecap="round" stroke-linejoin="round"/>
    <path d="M 82.84246063232422 54.11100769042969 C 77.8386001586914 73.30411529541016 82.84800720214844 87.24137878417969 81.4548568725586 70.45588684082031" stroke-width="3.0" fill="none" stroke="rgb(0, 0, 0)" stroke-opacity="1.0" stroke-linecap="round" stroke-linejoin="round"/>
    <path d="M 70.08718872070312 144.77737426757812 C 73.4800033569336 150.13180541992188 76.10965728759766 147.8931121826172 78.0489501953125 150.00376892089844" stroke-width="3.0" fill="none" stroke="rgb(0, 0, 0)" stroke-opacity="1.0" stroke-linecap="round" stroke-linejoin="round"/>
    <path d="M 174.29827880859375 91.3300552368164 C 182.00103759765625 82.40210723876953 176.8426971435547 91.0654296875 153.8076171875 89.2871322631836" stroke-width="3.0" fill="none" stroke="rgb(0, 0, 0)" stroke-opacity="1.0" stroke-linecap="round" stroke-linejoin="round"/>
    <path d="M 153.5718994140625 101.3327407836914 C 172.3217315673828 100.9951171875 158.80108642578125 108.46766662597656 177.06600952148438 102.71871948242188" stroke-width="3.0" fill="none" stroke="rgb(0, 0, 0)" stroke-opacity="1.0" stroke-linecap="round" stroke-linejoin="round"/>
    <path d="M 84.66033935546875 177.74244689941406 C 87.86015319824219 180.41445922851562 96.450439453125 181.54331970214844 98.9979019165039 188.12704467773438" stroke-width="3.0" fill="none" stroke="rgb(0, 0, 0)" stroke-opacity="1.0" stroke-linecap="round" stroke-linejoin="round"/>
    <path d="M 173.69151306152344 15.8469820022583 C 179.53863525390625 8.114916801452637 181.89761352539062 28.879018783569336 174.81814575195312 52.67818832397461" stroke-width="3.0" fill="none" stroke="rgb(0, 0, 0)" stroke-opacity="1.0" stroke-linecap="round" stroke-linejoin="round"/>
    <path d="M 127.66618347167969 34.987728118896484 C 124.61001586914062 48.6917839050293 129.29959106445312 44.31242370605469 128.39891052246094 52.43647766113281" stroke-width="3.0" fill="none" stroke="rgb(0, 0, 0)" stroke-opacity="1.0" stroke-linecap="round" stroke-linejoin="round"/>
    <path d="M 84.71649169921875 44.661556243896484 C 82.30062103271484 -9.602907180786133 92.25263214111328 2.7373063564300537 95.78767395019531 46.7347526550293" stroke-width="3.0" fill="none" stroke="rgb(0, 0, 0)" stroke-opacity="1.0" stroke-linecap="round" stroke-linejoin="round"/>
    <path d="M 48.37612533569336 166.15061950683594 C 42.72361755371094 157.09805297851562 44.146827697753906 161.2672119140625 46.346229553222656 154.11968994140625" stroke-width="3.0" fill="none" stroke="rgb(0, 0, 0)" stroke-opacity="1.0" stroke-linecap="round" stroke-linejoin="round"/>
    <path d="M 46.40754699707031 138.15972900390625 C 51.690303802490234 134.23472595214844 39.837860107421875 144.76010131835938 43.526058197021484 141.3403778076172" stroke-width="3.0" fill="none" stroke="rgb(0, 0, 0)" stroke-opacity="1.0" stroke-linecap="round" stroke-linejoin="round"/>
    <path d="M 72.41460418701172 163.45040893554688 C 73.95361328125 161.34934997558594 74.31507873535156 161.3944854736328 73.5141372680664 162.0427703857422" stroke-width="3.0" fill="none" stroke="rgb(0, 0, 0)" stroke-opacity="1.0" stroke-linecap="round" stroke-linejoin="round"/>
    <path d="M 70.74832153320312 188.80247497558594 C 65.2425765991211 170.1721649169922 75.68489074707031 188.92214965820312 65.11766052246094 174.1642303466797" stroke-width="3.0" fill="none" stroke="rgb(0, 0, 0)" stroke-opacity="1.0" stroke-linecap="round" stroke-linejoin="round"/>
    <path d="M 45.32375717163086 159.36981201171875 C 49.55582809448242 159.3296356201172 42.7567138671875 146.214111328125 46.64152145385742 153.933837890625" stroke-width="3.0" fill="none" stroke="rgb(0, 0, 0)" stroke-opacity="1.0" stroke-linecap="round" stroke-linejoin="round"/>
    <path d="M 67.3437271118164 63.8946418762207 C 50.4044189453125 84.4598159790039 61.059234619140625 72.3794174194336 43.885250091552734 105.64454650878906" stroke-width="3.0" fill="none" stroke="rgb(0, 0, 0)" stroke-opacity="1.0" stroke-linecap="round" stroke-linejoin="round"/>
    <path d="M 146.2154083251953 159.1304931640625 C 125.12525939941406 151.80902099609375 130.14263916015625 140.70191955566406 136.2472381591797 158.89035034179688" stroke-width="3.0" fill="none" stroke="rgb(0, 0, 0)" stroke-opacity="1.0" stroke-linecap="round" stroke-linejoin="round"/>
    <path d="M 139.77359008789062 37.49589538574219 C 135.5199432373047 51.45542907714844 140.1973114013672 67.66154479980469 137.3662109375 76.18638610839844" stroke-width="3.0" fill="none" stroke="rgb(0, 0, 0)" stroke-opacity="1.0" stroke-linecap="round" stroke-linejoin="round"/>
    <path d="M 143.63319396972656 103.27754211425781 C 134.23663330078125 113.56179809570312 119.65031433105469 108.88086700439453 122.61625671386719 109.29960632324219" stroke-width="3.0" fill="none" stroke="rgb(0, 0, 0)" stroke-opacity="1.0" stroke-linecap="round" stroke-linejoin="round"/>
    <path d="M 142.7761993408203 69.66877746582031 C 141.9547882080078 58.383724212646484 156.1082000732422 52.81649398803711 153.17007446289062 54.27391052246094" stroke-width="3.0" fill="none" stroke="rgb(0, 0, 0)" stroke-opacity="1.0" stroke-linecap="round" stroke-linejoin="round"/>
    <path d="M 107.1761703491211 185.92518615722656 C 92.70451354980469 176.86549377441406 76.95643615722656 183.03115844726562 129.70465087890625 183.27291870117188" stroke-width="3.0" fill="none" stroke="rgb(0, 0, 0)" stroke-opacity="1.0" stroke-linecap="round" stroke-linejoin="round"/>
    <path d="M 182.3114776611328 86.2024154663086 C 182.78741455078125 80.78258514404297 177.08493041992188 96.52246856689453 178.50685119628906 86.68650817871094" stroke-width="3.0" fill="none" stroke="rgb(0, 0, 0)" stroke-opacity="1.0" stroke-linecap="round" stroke-linejoin="round"/>
    <path d="M 175.67344665527344 89.00765991210938 C 180.23158264160156 88.61483764648438 183.5894012451172 91.5753173828125 175.28175354003906 92.5873794555664" stroke-width="3.0" fill="none" stroke="rgb(0, 0, 0)" stroke-opacity="1.0" stroke-linecap="round" stroke-linejoin="round"/>
    <path d="M 108.66790771484375 77.71875762939453 C 94.29973602294922 69.62367248535156 132.15408325195312 73.03070068359375 108.50929260253906 81.3423080444336" stroke-width="3.0" fill="none" stroke="rgb(0, 0, 0)" stroke-opacity="1.0" stroke-linecap="round" stroke-linejoin="round"/>
    <path d="M 128.9507293701172 153.48146057128906 C 121.2787857055664 140.14329528808594 126.36636352539062 148.68788146972656 126.50102233886719 152.90882873535156" stroke-width="3.0" fill="none" stroke="rgb(0, 0, 0)" stroke-opacity="1.0" stroke-linecap="round" stroke-linejoin="round"/>
    <path d="M 121.33374786376953 91.93037414550781 C 141.33912658691406 102.78038787841797 131.64306640625 78.16144561767578 130.12301635742188 99.9417953491211" stroke-width="3.0" fill="none" stroke="rgb(0, 0, 0)" stroke-opacity="1.0" stroke-linecap="round" stroke-linejoin="round"/>
    <path d="M 174.1000518798828 101.08578491210938 C 172.09295654296875 89.2597885131836 179.59414672851562 99.57240295410156 151.1726837158203 95.11292266845703" stroke-width="3.0" fill="none" stroke="rgb(0, 0, 0)" stroke-opacity="1.0" stroke-linecap="round" stroke-linejoin="round"/>
    <path d="M 90.87776947021484 9.15063762664795 C 108.28398895263672 17.709638595581055 117.19102478027344 30.85888671875 118.49005126953125 35.70203399658203" stroke-width="3.0" fill="none" stroke="rgb(0, 0, 0)" stroke-opacity="1.0" stroke-linecap="round" stroke-linejoin="round"/>
    <path d="M 53.28131866455078 110.79615783691406 C 52.139041900634766 110.6084976196289 65.6366195678711 117.15257263183594 55.082618713378906 110.88069152832031" stroke-width="3.0" fill="none" stroke="rgb(0, 0, 0)" stroke-opacity="1.0" stroke-linecap="round" stroke-linejoin="round"/>
    <path d="M 117.33809661865234 105.98565673828125 C 98.54428100585938 104.60554504394531 117.89678955078125 104.85049438476562 104.69924926757812 100.58586883544922" stroke-width="3.0" fill="none" stroke="rgb(0, 0, 0)" stroke-opacity="1.0" stroke-linecap="round" stroke-linejoin="round"/>
    <path d="M 38.0096321105957 120.09782409667969 C 44.86524963378906 100.4144058227539 44.69728469848633 102.33174896240234 42.3463134765625 110.7785415649414" stroke-width="3.0" fill="none" stroke="rgb(0, 0, 0)" stroke-opacity="1.0" stroke-linecap="round" stroke-linejoin="round"/>
    <path d="M 82.98497772216797 183.7893524169922 C 78.62049102783203 190.1848602294922 74.67433166503906 189.3968048095703 83.24066925048828 182.46156311035156" stroke-width="3.0" fill="none" stroke="rgb(0, 0, 0)" stroke-opacity="1.0" stroke-linecap="round" stroke-linejoin="round"/>
    <path d="M 174.54139709472656 129.90264892578125 C 169.9632110595703 118.97943878173828 165.1885986328125 101.72808837890625 145.90255737304688 98.39734649658203" stroke-width="3.0" fill="none" stroke="rgb(0, 0, 0)" stroke-opacity="1.0" stroke-linecap="round" stroke-linejoin="round"/>
    <path d="M 140.46249389648438 80.58712005615234 C 153.42640686035156 75.62156677246094 135.9278564453125 87.35865783691406 152.9296875 78.63294982910156" stroke-width="3.0" fill="none" stroke="rgb(0, 0, 0)" stroke-opacity="1.0" stroke-linecap="round" stroke-linejoin="round"/>
    <path d="M 161.4340057373047 70.91516876220703 C 169.52297973632812 71.26397705078125 178.08209228515625 76.34446716308594 182.1044921875 72.2874526977539" stroke-width="3.0" fill="none" stroke="rgb(0, 0, 0)" stroke-opacity="1.0" stroke-linecap="round" stroke-linejoin="round"/>
    <path d="M 144.46006774902344 109.03407287597656 C 151.7164764404297 115.05266571044922 156.00177001953125 113.56512451171875 152.4447784423828 116.17530059814453" stroke-width="3.0" fill="none" stroke="rgb(0, 0, 0)" stroke-opacity="1.0" stroke-linecap="round" stroke-linejoin="round"/>
    <path d="M 170.07882690429688 23.16258430480957 C 163.6576385498047 40.721649169921875 158.5110321044922 34.86562728881836 170.0252685546875 48.43942642211914" stroke-width="3.0" fill="none" stroke="rgb(0, 0, 0)" stroke-opacity="1.0" stroke-linecap="round" stroke-linejoin="round"/>
    <path d="M 122.96402740478516 113.48495483398438 C 147.51268005371094 107.89657592773438 122.95433044433594 102.92217254638672 114.85984802246094 112.56121063232422" stroke-width="3.0" fill="none" stroke="rgb(0, 0, 0)" stroke-opacity="1.0" stroke-linecap="round" stroke-linejoin="round"/>
    <path d="M 51.88434982299805 109.02564239501953 C 53.48523712158203 103.60127258300781 43.42393112182617 106.80480194091797 61.480857849121094 122.56250762939453" stroke-width="3.0" fill="none" stroke="rgb(0, 0, 0)" stroke-opacity="1.0" stroke-linecap="round" stroke-linejoin="round"/>
    <path d="M 121.44925689697266 76.96730041503906 C 127.71891784667969 60.21241760253906 116.97086334228516 61.297576904296875 111.62239074707031 60.3459587097168" stroke-width="3.0" fill="none" stroke="rgb(0, 0, 0)" stroke-opacity="1.0" stroke-linecap="round" stroke-linejoin="round"/>
    <path d="M 146.6831817626953 34.09717559814453 C 159.32472229003906 26.680057525634766 152.5924835205078 21.84202766418457 177.41001892089844 12.699950218200684" stroke-width="3.0" fill="none" stroke="rgb(0, 0, 0)" stroke-opacity="1.0" stroke-linecap="round" stroke-linejoin="round"/>
  </g>
</svg>
