<?xml version="1.0" ?>
<svg xmlns="http://www.w3.org/2000/svg" version="1.1" width="224" height="224">
  <defs/>
  <g>
    <path d="M 49.41095733642578 118.04429626464844 C 55.195865631103516 117.78631591796875 40.22348403930664 106.79231262207031 39.35124969482422 98.36213684082031" stroke-width="3.0" fill="none" stroke="rgb(0, 0, 0)" stroke-opacity="1.0" stroke-linecap="round" stroke-linejoin="round"/>
    <path d="M 181.59559631347656 125.49826049804688 C 181.31773376464844 115.82405090332031 184.08836364746094 114.71501922607422 186.30313110351562 118.82508087158203" stroke-width="3.0" fill="none" stroke="rgb(0, 0, 0)" stroke-opacity="1.0" stroke-linecap="round" stroke-linejoin="round"/>
    <path d="M 50.74275588989258 115.67536163330078 C 49.65476608276367 112.07764434814453 46.299049377441406 112.5062484741211 52.86249923706055 123.97905731201172" stroke-width="3.0" fill="none" stroke="rgb(0, 0, 0)" stroke-opacity="1.0" stroke-linecap="round" stroke-linejoin="round"/>
    <path d="M 178.40191650390625 97.78740692138672 C 153.2957305908203 92.12744140625 170.59060668945312 82.85269927978516 195.3946990966797 114.28486633300781" stroke-width="3.0" fill="none" stroke="rgb(0, 0, 0)" stroke-opacity="1.0" stroke-linecap="round" stroke-linejoin="round"/>
    <path d="M 184.86865234375 76.51188659667969 C 180.86668395996094 99.37137603759766 172.32786560058594 90.24346160888672 184.3594512939453 65.25726318359375" stroke-width="3.0" fill="none" stroke="rgb(0, 0, 0)" stroke-opacity="1.0" stroke-linecap="round" stroke-linejoin="round"/>
    <path d="M 133.5397186279297 100.37908935546875 C 150.9003143310547 110.68269348144531 106.18933868408203 107.0364761352539 132.60403442382812 109.71388244628906" stroke-width="3.0" fill="none" stroke="rgb(0, 0, 0)" stroke-opacity="1.0" stroke-linecap="round" stroke-linejoin="round"/>
    <path d="M 165.21273803710938 99.56888580322266 C 193.9956512451172 70.9703598022461 182.11172485351562 74.328857421875 150.0513916015625 88.03805541992188" stroke-width="3.0" fill="none" stroke="rgb(0, 0, 0)" stroke-opacity="1.0" stroke-linecap="round" stroke-linejoin="round"/>
    <path d="M 52.24338150024414 179.87564086914062 C 36.7121696472168 150.510009765625 48.97513961791992 160.07786560058594 41.73802947998047 152.03192138671875" stroke-width="3.0" fill="none" stroke="rgb(0, 0, 0)" stroke-opacity="1.0" stroke-linecap="round" stroke-linejoin="round"/>
    <path d="M 66.64695739746094 191.43003845214844 C 83.52340698242188 204.53005981445312 109.62288665771484 197.33541870117188 110.97898864746094 196.2117919921875" stroke-width="3.0" fill="none" stroke="rgb(0, 0, 0)" stroke-opacity="1.0" stroke-linecap="round" stroke-linejoin="round"/>
    <path d="M 87.97517395019531 28.491565704345703 C 87.55052185058594 62.98355484008789 88.42693328857422 17.46925163269043 87.72541809082031 40.6152229309082" stroke-width="3.0" fill="none" stroke="rgb(0, 0, 0)" stroke-opacity="1.0" stroke-linecap="round" stroke-linejoin="round"/>
    <path d="M 55.61983871459961 128.137939453125 C 67.09598541259766 141.23321533203125 89.33790588378906 149.96978759765625 93.43067169189453 145.3654022216797" stroke-width="3.0" fill="none" stroke="rgb(0, 0, 0)" stroke-opacity="1.0" stroke-linecap="round" stroke-linejoin="round"/>
    <path d="M 150.5039520263672 68.61141967773438 C 206.03192138671875 71.76100158691406 182.12725830078125 83.46037292480469 144.87973022460938 88.28253936767578" stroke-width="3.0" fill="none" stroke="rgb(0, 0, 0)" stroke-opacity="1.0" stroke-linecap="round" stroke-linejoin="round"/>
    <path d="M 147.326416015625 98.8908462524414 C 174.09400939941406 102.97791290283203 172.033203125 100.93785858154297 188.4307098388672 110.30277252197266" stroke-width="3.0" fill="none" stroke="rgb(0, 0, 0)" stroke-opacity="1.0" stroke-linecap="round" stroke-linejoin="round"/>
    <path d="M 97.98472595214844 153.93710327148438 C 123.98088836669922 154.69796752929688 110.67007446289062 187.4524383544922 111.96589660644531 183.0704345703125" stroke-width="3.0" fill="none" stroke="rgb(0, 0, 0)" stroke-opacity="1.0" stroke-linecap="round" stroke-linejoin="round"/>
    <path d="M 171.10679626464844 9.669757843017578 C 193.4051055908203 -0.19677667319774628 172.2396240234375 51.7429084777832 184.09230041503906 61.239990234375" stroke-width="3.0" fill="none" stroke="rgb(0, 0, 0)" stroke-opacity="1.0" stroke-linecap="round" stroke-linejoin="round"/>
    <path d="M 130.4672088623047 31.653987884521484 C 126.8083267211914 56.654212951660156 134.90505981445312 39.61838150024414 131.008056640625 67.0932846069336" stroke-width="3.0" fill="none" stroke="rgb(0, 0, 0)" stroke-opacity="1.0" stroke-linecap="round" stroke-linejoin="round"/>
    <path d="M 92.44023895263672 42.47285079956055 C 74.35284423828125 1.6267340183258057 83.92231750488281 7.335134983062744 103.42082214355469 34.78416061401367" stroke-width="3.0" fill="none" stroke="rgb(0, 0, 0)" stroke-opacity="1.0" stroke-linecap="round" stroke-linejoin="round"/>
    <path d="M 43.09904479980469 161.51695251464844 C 41.10203552246094 152.06161499023438 39.0999641418457 151.30764770507812 42.17292785644531 154.0442352294922" stroke-width="3.0" fill="none" stroke="rgb(0, 0, 0)" stroke-opacity="1.0" stroke-linecap="round" stroke-linejoin="round"/>
    <path d="M 31.37498664855957 108.5687255859375 C 25.324243545532227 126.99215698242188 36.799381256103516 142.17774963378906 41.85408401489258 155.3302459716797" stroke-width="3.0" fill="none" stroke="rgb(0, 0, 0)" stroke-opacity="1.0" stroke-linecap="round" stroke-linejoin="round"/>
    <path d="M 84.80435180664062 146.6440887451172 C 99.49166107177734 154.92697143554688 103.13011932373047 152.91302490234375 97.8952865600586 152.91513061523438" stroke-width="3.0" fill="none" stroke="rgb(0, 0, 0)" stroke-opacity="1.0" stroke-linecap="round" stroke-linejoin="round"/>
    <path d="M 74.60655975341797 197.31333923339844 C 49.2628059387207 179.51853942871094 61.56767272949219 182.20794677734375 47.45145034790039 172.7271270751953" stroke-width="3.0" fill="none" stroke="rgb(0, 0, 0)" stroke-opacity="1.0" stroke-linecap="round" stroke-linejoin="round"/>
    <path d="M 44.4585075378418 161.88644409179688 C 58.22877883911133 182.94366455078125 41.13736343383789 161.6937713623047 40.3677978515625 149.19789123535156" stroke-width="3.0" fill="none" stroke="rgb(0, 0, 0)" stroke-opacity="1.0" stroke-linecap="round" stroke-linejoin="round"/>
    <path d="M 84.1860580444336 54.58399963378906 C 59.111778259277344 52.86088180541992 44.14944076538086 74.18302917480469 31.667327880859375 107.43125915527344" stroke-width="3.0" fill="none" stroke="rgb(0, 0, 0)" stroke-opacity="1.0" stroke-linecap="round" stroke-linejoin="round"/>
    <path d="M 146.31138610839844 143.1314239501953 C 142.7078094482422 165.50198364257812 122.4316177368164 151.62059020996094 133.29945373535156 160.24208068847656" stroke-width="3.0" fill="none" stroke="rgb(0, 0, 0)" stroke-opacity="1.0" stroke-linecap="round" stroke-linejoin="round"/>
    <path d="M 139.41177368164062 30.888551712036133 C 148.98487854003906 64.68753814697266 135.57470703125 53.792823791503906 138.8314971923828 80.73902130126953" stroke-width="3.0" fill="none" stroke="rgb(0, 0, 0)" stroke-opacity="1.0" stroke-linecap="round" stroke-linejoin="round"/>
    <path d="M 143.61270141601562 100.69512176513672 C 115.78720092773438 105.64501953125 109.26792907714844 101.21835327148438 129.423828125 111.6352310180664" stroke-width="3.0" fill="none" stroke="rgb(0, 0, 0)" stroke-opacity="1.0" stroke-linecap="round" stroke-linejoin="round"/>
    <path d="M 140.7685546875 74.10496520996094 C 149.08949279785156 52.796993255615234 148.7756805419922 56.03362274169922 141.44151306152344 66.97085571289062" stroke-width="3.0" fill="none" stroke="rgb(0, 0, 0)" stroke-opacity="1.0" stroke-linecap="round" stroke-linejoin="round"/>
    <path d="M 123.96373748779297 186.57032775878906 C 92.26669311523438 200.52587890625 124.33853912353516 201.50270080566406 140.2450408935547 159.1516876220703" stroke-width="3.0" fill="none" stroke="rgb(0, 0, 0)" stroke-opacity="1.0" stroke-linecap="round" stroke-linejoin="round"/>
    <path d="M 194.24407958984375 95.25833892822266 C 160.0514373779297 69.9141845703125 133.87680053710938 98.35397338867188 185.61691284179688 85.77537536621094" stroke-width="3.0" fill="none" stroke="rgb(0, 0, 0)" stroke-opacity="1.0" stroke-linecap="round" stroke-linejoin="round"/>
    <path d="M 162.9446563720703 72.18792724609375 C 185.1802520751953 65.09976959228516 192.14353942871094 79.29583740234375 169.59503173828125 70.12407684326172" stroke-width="3.0" fill="none" stroke="rgb(0, 0, 0)" stroke-opacity="1.0" stroke-linecap="round" stroke-linejoin="round"/>
    <path d="M 113.9127197265625 80.73522186279297 C 80.37220764160156 72.39228820800781 136.66259765625 75.0373306274414 105.09223937988281 81.34255981445312" stroke-width="3.0" fill="none" stroke="rgb(0, 0, 0)" stroke-opacity="1.0" stroke-linecap="round" stroke-linejoin="round"/>
    <path d="M 140.7135467529297 157.0161590576172 C 128.66307067871094 160.5849609375 123.59916687011719 163.01719665527344 109.4687271118164 141.43002319335938" stroke-width="3.0" fill="none" stroke="rgb(0, 0, 0)" stroke-opacity="1.0" stroke-linecap="round" stroke-linejoin="round"/>
    <path d="M 122.30216217041016 92.57723999023438 C 140.80938720703125 103.1208724975586 133.22711181640625 77.95101928710938 128.42466735839844 102.28705596923828" stroke-width="3.0" fill="none" stroke="rgb(0, 0, 0)" stroke-opacity="1.0" stroke-linecap="round" stroke-linejoin="round"/>
    <path d="M 189.06927490234375 104.78963470458984 C 177.7842559814453 85.52957916259766 183.07406616210938 96.42546844482422 139.78233337402344 87.14944458007812" stroke-width="3.0" fill="none" stroke="rgb(0, 0, 0)" stroke-opacity="1.0" stroke-linecap="round" stroke-linejoin="round"/>
    <path d="M 85.59100341796875 9.601655006408691 C 111.71208953857422 20.72534942626953 115.26690673828125 36.86266326904297 122.84630584716797 30.806360244750977" stroke-width="3.0" fill="none" stroke="rgb(0, 0, 0)" stroke-opacity="1.0" stroke-linecap="round" stroke-linejoin="round"/>
    <path d="M 50.80424499511719 117.203857421875 C 46.38309097290039 109.9165267944336 54.85016632080078 123.50773620605469 51.7631950378418 120.89833068847656" stroke-width="3.0" fill="none" stroke="rgb(0, 0, 0)" stroke-opacity="1.0" stroke-linecap="round" stroke-linejoin="round"/>
    <path d="M 111.62726593017578 103.58192443847656 C 98.4947280883789 87.10798645019531 113.99207305908203 109.3289794921875 102.23883056640625 90.93321990966797" stroke-width="3.0" fill="none" stroke="rgb(0, 0, 0)" stroke-opacity="1.0" stroke-linecap="round" stroke-linejoin="round"/>
    <path d="M 30.6126766204834 127.05814361572266 C 27.923234939575195 104.19933319091797 35.25133514404297 102.87728881835938 30.123950958251953 116.34028625488281" stroke-width="3.0" fill="none" stroke="rgb(0, 0, 0)" stroke-opacity="1.0" stroke-linecap="round" stroke-linejoin="round"/>
    <path d="M 87.70134735107422 199.44439697265625 C 73.33641052246094 195.33448791503906 70.05961608886719 198.3157501220703 94.9137191772461 199.64732360839844" stroke-width="3.0" fill="none" stroke="rgb(0, 0, 0)" stroke-opacity="1.0" stroke-linecap="round" stroke-linejoin="round"/>
    <path d="M 146.36288452148438 146.45484924316406 C 212.28057861328125 113.4089126586914 180.3716583251953 102.20323944091797 153.006591796875 93.96659088134766" stroke-width="3.0" fill="none" stroke="rgb(0, 0, 0)" stroke-opacity="1.0" stroke-linecap="round" stroke-linejoin="round"/>
    <path d="M 154.6315155029297 74.98831939697266 C 123.66632843017578 74.77287292480469 179.001953125 82.864501953125 149.10964965820312 71.25169372558594" stroke-width="3.0" fill="none" stroke="rgb(0, 0, 0)" stroke-opacity="1.0" stroke-linecap="round" stroke-linejoin="round"/>
    <path d="M 144.0293731689453 75.4920654296875 C 148.65838623046875 51.21065139770508 183.29246520996094 103.16793060302734 182.34542846679688 55.17206573486328" stroke-width="3.0" fill="none" stroke="rgb(0, 0, 0)" stroke-opacity="1.0" stroke-linecap="round" stroke-linejoin="round"/>
    <path d="M 149.4811553955078 99.13555908203125 C 160.81578063964844 102.380126953125 172.44789123535156 108.9968032836914 184.98074340820312 117.61219787597656" stroke-width="3.0" fill="none" stroke="rgb(0, 0, 0)" stroke-opacity="1.0" stroke-linecap="round" stroke-linejoin="round"/>
    <path d="M 178.4236602783203 15.937970161437988 C 171.661865234375 45.69505310058594 174.4755401611328 26.00503158569336 159.97303771972656 39.09939956665039" stroke-width="3.0" fill="none" stroke="rgb(0, 0, 0)" stroke-opacity="1.0" stroke-linecap="round" stroke-linejoin="round"/>
    <path d="M 129.59510803222656 104.88443756103516 C 144.46640014648438 103.5092544555664 123.75190734863281 113.12132263183594 105.05501556396484 98.74098205566406" stroke-width="3.0" fill="none" stroke="rgb(0, 0, 0)" stroke-opacity="1.0" stroke-linecap="round" stroke-linejoin="round"/>
    <path d="M 50.37117385864258 117.50415802001953 C 52.77839279174805 116.32250213623047 44.0291748046875 110.69126892089844 58.71889877319336 131.34487915039062" stroke-width="3.0" fill="none" stroke="rgb(0, 0, 0)" stroke-opacity="1.0" stroke-linecap="round" stroke-linejoin="round"/>
    <path d="M 123.41216278076172 75.48304748535156 C 127.42723083496094 56.6191291809082 119.47557830810547 52.8051643371582 122.24923706054688 32.745697021484375" stroke-width="3.0" fill="none" stroke="rgb(0, 0, 0)" stroke-opacity="1.0" stroke-linecap="round" stroke-linejoin="round"/>
    <path d="M 143.99510192871094 32.18207931518555 C 144.73782348632812 41.17820739746094 150.7750244140625 16.66501235961914 175.1936798095703 8.117189407348633" stroke-width="3.0" fill="none" stroke="rgb(0, 0, 0)" stroke-opacity="1.0" stroke-linecap="round" stroke-linejoin="round"/>
  </g>
</svg>
