<?xml version="1.0" ?>
<svg xmlns="http://www.w3.org/2000/svg" version="1.1" width="224" height="224">
  <defs/>
  <g>
    <path d="M 60.29335021972656 99.8519515991211 C 63.598140716552734 96.00131225585938 52.01225280761719 89.7241439819336 61.87621307373047 63.957733154296875" stroke-width="3.0" fill="none" stroke="rgb(0, 0, 0)" stroke-opacity="1.0" stroke-linecap="round" stroke-linejoin="round"/>
    <path d="M 195.09967041015625 114.51356506347656 C 189.3042449951172 111.31468963623047 188.39710998535156 88.19416809082031 184.340087890625 123.54462432861328" stroke-width="3.0" fill="none" stroke="rgb(0, 0, 0)" stroke-opacity="1.0" stroke-linecap="round" stroke-linejoin="round"/>
    <path d="M 61.60914993286133 121.9762191772461 C 60.272117614746094 87.36614990234375 61.84967041015625 127.40535736083984 70.5800552368164 122.1676025390625" stroke-width="3.0" fill="none" stroke="rgb(0, 0, 0)" stroke-opacity="1.0" stroke-linecap="round" stroke-linejoin="round"/>
    <path d="M 187.7209930419922 92.3105239868164 C 144.8898468017578 71.42536163330078 186.50880432128906 76.72600555419922 189.35659790039062 101.30253601074219" stroke-width="3.0" fill="none" stroke="rgb(0, 0, 0)" stroke-opacity="1.0" stroke-linecap="round" stroke-linejoin="round"/>
    <path d="M 175.38328552246094 45.14586639404297 C 196.38067626953125 85.17034149169922 179.55372619628906 97.46830749511719 181.25094604492188 69.86808776855469" stroke-width="3.0" fill="none" stroke="rgb(0, 0, 0)" stroke-opacity="1.0" stroke-linecap="round" stroke-linejoin="round"/>
    <path d="M 130.2684326171875 100.08984375 C 155.3170623779297 112.51227569580078 100.2297592163086 101.35733032226562 137.6297149658203 104.53677368164062" stroke-width="3.0" fill="none" stroke="rgb(0, 0, 0)" stroke-opacity="1.0" stroke-linecap="round" stroke-linejoin="round"/>
    <path d="M 183.8454132080078 81.81346130371094 C 175.99771118164062 72.99754333496094 192.69921875 71.48245239257812 150.04061889648438 87.38334655761719" stroke-width="3.0" fill="none" stroke="rgb(0, 0, 0)" stroke-opacity="1.0" stroke-linecap="round" stroke-linejoin="round"/>
    <path d="M 65.18195343017578 190.30996704101562 C 38.139671325683594 170.80091857910156 52.52664566040039 165.8156280517578 48.780155181884766 173.85545349121094" stroke-width="3.0" fill="none" stroke="rgb(0, 0, 0)" stroke-opacity="1.0" stroke-linecap="round" stroke-linejoin="round"/>
    <path d="M 59.01001739501953 185.5197296142578 C 81.22193908691406 212.55361938476562 130.9449005126953 195.12393188476562 135.18382263183594 165.57107543945312" stroke-width="3.0" fill="none" stroke="rgb(0, 0, 0)" stroke-opacity="1.0" stroke-linecap="round" stroke-linejoin="round"/>
    <path d="M 82.31566619873047 15.812047958374023 C 92.58538055419922 78.10027313232422 89.86530303955078 6.9113569259643555 87.1486587524414 52.98088073730469" stroke-width="3.0" fill="none" stroke="rgb(0, 0, 0)" stroke-opacity="1.0" stroke-linecap="round" stroke-linejoin="round"/>
    <path d="M 58.56904602050781 86.20000457763672 C 60.29379653930664 138.34007263183594 75.8387451171875 133.60511779785156 64.1988754272461 119.84046936035156" stroke-width="3.0" fill="none" stroke="rgb(0, 0, 0)" stroke-opacity="1.0" stroke-linecap="round" stroke-linejoin="round"/>
    <path d="M 144.64796447753906 73.18274688720703 C 199.28811645507812 57.52428436279297 194.8693084716797 91.53227996826172 140.9523162841797 85.4574203491211" stroke-width="3.0" fill="none" stroke="rgb(0, 0, 0)" stroke-opacity="1.0" stroke-linecap="round" stroke-linejoin="round"/>
    <path d="M 150.9310302734375 95.16719818115234 C 177.8052520751953 98.67929077148438 182.50857543945312 98.69087982177734 193.41848754882812 110.80223083496094" stroke-width="3.0" fill="none" stroke="rgb(0, 0, 0)" stroke-opacity="1.0" stroke-linecap="round" stroke-linejoin="round"/>
    <path d="M 116.2176742553711 147.62966918945312 C 158.62059020996094 157.9636993408203 108.748779296875 144.7602996826172 106.6117935180664 157.63963317871094" stroke-width="3.0" fill="none" stroke="rgb(0, 0, 0)" stroke-opacity="1.0" stroke-linecap="round" stroke-linejoin="round"/>
    <path d="M 177.61627197265625 6.755995750427246 C 188.50238037109375 22.680747985839844 168.0082550048828 91.14753723144531 179.42491149902344 52.053157806396484" stroke-width="3.0" fill="none" stroke="rgb(0, 0, 0)" stroke-opacity="1.0" stroke-linecap="round" stroke-linejoin="round"/>
    <path d="M 140.47634887695312 34.565616607666016 C 109.40564727783203 20.486717224121094 139.2796630859375 48.924007415771484 123.10055541992188 81.20989990234375" stroke-width="3.0" fill="none" stroke="rgb(0, 0, 0)" stroke-opacity="1.0" stroke-linecap="round" stroke-linejoin="round"/>
    <path d="M 105.01927185058594 46.298316955566406 C 64.15642547607422 -8.069345474243164 82.72815704345703 3.6013104915618896 119.40801239013672 32.66584014892578" stroke-width="3.0" fill="none" stroke="rgb(0, 0, 0)" stroke-opacity="1.0" stroke-linecap="round" stroke-linejoin="round"/>
    <path d="M 48.53496170043945 169.6873016357422 C 43.388267517089844 158.81915283203125 39.8192253112793 153.41314697265625 47.45525360107422 173.3333740234375" stroke-width="3.0" fill="none" stroke="rgb(0, 0, 0)" stroke-opacity="1.0" stroke-linecap="round" stroke-linejoin="round"/>
    <path d="M 52.132232666015625 74.31625366210938 C 19.178485870361328 129.58786010742188 40.245243072509766 141.37820434570312 44.997047424316406 166.07774353027344" stroke-width="3.0" fill="none" stroke="rgb(0, 0, 0)" stroke-opacity="1.0" stroke-linecap="round" stroke-linejoin="round"/>
    <path d="M 72.95243072509766 135.26205444335938 C 132.057373046875 160.7770538330078 95.68462371826172 153.84300231933594 86.60358428955078 142.32923889160156" stroke-width="3.0" fill="none" stroke="rgb(0, 0, 0)" stroke-opacity="1.0" stroke-linecap="round" stroke-linejoin="round"/>
    <path d="M 88.56050872802734 198.61302185058594 C 68.61236572265625 199.24497985839844 48.101112365722656 175.70193481445312 46.228614807128906 167.21563720703125" stroke-width="3.0" fill="none" stroke="rgb(0, 0, 0)" stroke-opacity="1.0" stroke-linecap="round" stroke-linejoin="round"/>
    <path d="M 47.551124572753906 172.2754364013672 C 70.32804107666016 194.2186279296875 46.136802673339844 174.1597137451172 40.20769500732422 148.8463592529297" stroke-width="3.0" fill="none" stroke="rgb(0, 0, 0)" stroke-opacity="1.0" stroke-linecap="round" stroke-linejoin="round"/>
    <path d="M 83.0879135131836 56.83638381958008 C 55.454402923583984 56.56810760498047 54.44975280761719 73.0460433959961 35.47749710083008 111.20465087890625" stroke-width="3.0" fill="none" stroke="rgb(0, 0, 0)" stroke-opacity="1.0" stroke-linecap="round" stroke-linejoin="round"/>
    <path d="M 158.09068298339844 137.1128692626953 C 105.23550415039062 157.43521118164062 88.21288299560547 158.83602905273438 146.07562255859375 144.98265075683594" stroke-width="3.0" fill="none" stroke="rgb(0, 0, 0)" stroke-opacity="1.0" stroke-linecap="round" stroke-linejoin="round"/>
    <path d="M 150.1498260498047 28.309505462646484 C 147.79928588867188 32.16044235229492 134.7877655029297 17.223377227783203 138.78282165527344 73.11839294433594" stroke-width="3.0" fill="none" stroke="rgb(0, 0, 0)" stroke-opacity="1.0" stroke-linecap="round" stroke-linejoin="round"/>
    <path d="M 145.40611267089844 101.09142303466797 C 122.21249389648438 112.74517822265625 116.86133575439453 107.6824722290039 112.16773986816406 99.31846618652344" stroke-width="3.0" fill="none" stroke="rgb(0, 0, 0)" stroke-opacity="1.0" stroke-linecap="round" stroke-linejoin="round"/>
    <path d="M 135.75277709960938 71.39056396484375 C 144.81988525390625 51.853023529052734 131.2352294921875 64.9844970703125 137.896484375 81.16635131835938" stroke-width="3.0" fill="none" stroke="rgb(0, 0, 0)" stroke-opacity="1.0" stroke-linecap="round" stroke-linejoin="round"/>
    <path d="M 141.68995666503906 161.7916717529297 C 128.0329132080078 176.47694396972656 141.82598876953125 167.4149932861328 145.305419921875 147.68988037109375" stroke-width="3.0" fill="none" stroke="rgb(0, 0, 0)" stroke-opacity="1.0" stroke-linecap="round" stroke-linejoin="round"/>
    <path d="M 194.40994262695312 97.14289855957031 C 168.8599853515625 66.39104461669922 168.20907592773438 76.03141784667969 186.66317749023438 87.08456420898438" stroke-width="3.0" fill="none" stroke="rgb(0, 0, 0)" stroke-opacity="1.0" stroke-linecap="round" stroke-linejoin="round"/>
    <path d="M 149.5406951904297 78.7014389038086 C 130.724609375 53.3222541809082 207.6407470703125 92.83003234863281 180.1785430908203 62.53370666503906" stroke-width="3.0" fill="none" stroke="rgb(0, 0, 0)" stroke-opacity="1.0" stroke-linecap="round" stroke-linejoin="round"/>
    <path d="M 112.79973602294922 81.63416290283203 C 74.46864318847656 72.2193374633789 139.91781616210938 72.5367431640625 107.15904235839844 79.94352722167969" stroke-width="3.0" fill="none" stroke="rgb(0, 0, 0)" stroke-opacity="1.0" stroke-linecap="round" stroke-linejoin="round"/>
    <path d="M 166.46359252929688 128.71417236328125 C 140.59300231933594 153.8208770751953 105.18634796142578 144.60675048828125 100.55448913574219 156.54531860351562" stroke-width="3.0" fill="none" stroke="rgb(0, 0, 0)" stroke-opacity="1.0" stroke-linecap="round" stroke-linejoin="round"/>
    <path d="M 122.93387603759766 88.07933044433594 C 141.36968994140625 103.1194076538086 131.02659606933594 68.7296142578125 126.60737609863281 105.47395324707031" stroke-width="3.0" fill="none" stroke="rgb(0, 0, 0)" stroke-opacity="1.0" stroke-linecap="round" stroke-linejoin="round"/>
    <path d="M 189.5977783203125 115.47330474853516 C 158.2865753173828 87.39741516113281 173.8470916748047 94.28035736083984 144.45887756347656 86.65940856933594" stroke-width="3.0" fill="none" stroke="rgb(0, 0, 0)" stroke-opacity="1.0" stroke-linecap="round" stroke-linejoin="round"/>
    <path d="M 89.52259063720703 28.364912033081055 C 125.91095733642578 30.287036895751953 91.87902069091797 33.57602310180664 142.55154418945312 30.397748947143555" stroke-width="3.0" fill="none" stroke="rgb(0, 0, 0)" stroke-opacity="1.0" stroke-linecap="round" stroke-linejoin="round"/>
    <path d="M 62.23335647583008 117.19693756103516 C 62.29531478881836 107.3866195678711 55.276893615722656 125.93400573730469 72.2450942993164 132.6007537841797" stroke-width="3.0" fill="none" stroke="rgb(0, 0, 0)" stroke-opacity="1.0" stroke-linecap="round" stroke-linejoin="round"/>
    <path d="M 137.25051879882812 104.3046646118164 C 114.09938049316406 97.359375 119.53019714355469 121.11155700683594 106.24784851074219 87.1212158203125" stroke-width="3.0" fill="none" stroke="rgb(0, 0, 0)" stroke-opacity="1.0" stroke-linecap="round" stroke-linejoin="round"/>
    <path d="M 38.0347785949707 146.0978240966797 C 23.783355712890625 123.98046875 33.39639663696289 86.91183471679688 60.44122314453125 68.4771957397461" stroke-width="3.0" fill="none" stroke="rgb(0, 0, 0)" stroke-opacity="1.0" stroke-linecap="round" stroke-linejoin="round"/>
    <path d="M 106.05319213867188 196.54518127441406 C 78.81616973876953 203.30044555664062 73.50151062011719 196.9322052001953 98.06758880615234 197.76727294921875" stroke-width="3.0" fill="none" stroke="rgb(0, 0, 0)" stroke-opacity="1.0" stroke-linecap="round" stroke-linejoin="round"/>
    <path d="M 168.58738708496094 127.75031280517578 C 203.56692504882812 122.59646606445312 186.50375366210938 88.37664031982422 157.29713439941406 88.61820220947266" stroke-width="3.0" fill="none" stroke="rgb(0, 0, 0)" stroke-opacity="1.0" stroke-linecap="round" stroke-linejoin="round"/>
    <path d="M 152.2071533203125 69.41766357421875 C 133.7216796875 86.83203125 166.3983612060547 78.18106842041016 145.88829040527344 71.58050537109375" stroke-width="3.0" fill="none" stroke="rgb(0, 0, 0)" stroke-opacity="1.0" stroke-linecap="round" stroke-linejoin="round"/>
    <path d="M 142.80128479003906 79.57673645019531 C 143.72451782226562 42.63356018066406 194.4285888671875 113.88322448730469 176.04974365234375 44.14327621459961" stroke-width="3.0" fill="none" stroke="rgb(0, 0, 0)" stroke-opacity="1.0" stroke-linecap="round" stroke-linejoin="round"/>
    <path d="M 147.07504272460938 95.54674530029297 C 172.1827392578125 109.03952026367188 170.81752014160156 103.45435333251953 183.51235961914062 119.40135192871094" stroke-width="3.0" fill="none" stroke="rgb(0, 0, 0)" stroke-opacity="1.0" stroke-linecap="round" stroke-linejoin="round"/>
    <path d="M 176.45176696777344 16.621400833129883 C 170.9299774169922 40.34175491333008 175.15115356445312 21.71968650817871 162.826904296875 38.444732666015625" stroke-width="3.0" fill="none" stroke="rgb(0, 0, 0)" stroke-opacity="1.0" stroke-linecap="round" stroke-linejoin="round"/>
    <path d="M 122.07147216796875 104.42855834960938 C 143.17771911621094 102.26510620117188 130.86068725585938 115.36534118652344 121.8031234741211 105.10504150390625" stroke-width="3.0" fill="none" stroke="rgb(0, 0, 0)" stroke-opacity="1.0" stroke-linecap="round" stroke-linejoin="round"/>
    <path d="M 63.5179328918457 112.70796966552734 C 59.66118240356445 110.5074234008789 61.94392013549805 108.89401245117188 61.92344284057617 119.41372680664062" stroke-width="3.0" fill="none" stroke="rgb(0, 0, 0)" stroke-opacity="1.0" stroke-linecap="round" stroke-linejoin="round"/>
    <path d="M 120.11067199707031 73.13158416748047 C 117.87583923339844 41.33234405517578 109.81367492675781 60.635372161865234 115.59574890136719 30.352121353149414" stroke-width="3.0" fill="none" stroke="rgb(0, 0, 0)" stroke-opacity="1.0" stroke-linecap="round" stroke-linejoin="round"/>
    <path d="M 150.60447692871094 26.27616310119629 C 145.01048278808594 35.449485778808594 163.87640380859375 7.362960338592529 176.42092895507812 7.695012092590332" stroke-width="3.0" fill="none" stroke="rgb(0, 0, 0)" stroke-opacity="1.0" stroke-linecap="round" stroke-linejoin="round"/>
  </g>
</svg>
