<?xml version="1.0" ?>
<svg xmlns="http://www.w3.org/2000/svg" version="1.1" width="224" height="224">
  <defs/>
  <g>
    <path d="M 55.71168518066406 106.37042236328125 C 52.4593505859375 116.276123046875 55.10591125488281 102.3794937133789 46.47117233276367 85.7620849609375" stroke-width="3.0" fill="none" stroke="rgb(0, 0, 0)" stroke-opacity="1.0" stroke-linecap="round" stroke-linejoin="round"/>
    <path d="M 185.54774475097656 119.95562744140625 C 181.0294647216797 101.9652099609375 192.2406005859375 110.7081298828125 179.8791046142578 126.28604125976562" stroke-width="3.0" fill="none" stroke="rgb(0, 0, 0)" stroke-opacity="1.0" stroke-linecap="round" stroke-linejoin="round"/>
    <path d="M 56.38896942138672 115.33960723876953 C 54.890708923339844 110.74058532714844 51.64989471435547 116.6589584350586 58.019439697265625 121.4469985961914" stroke-width="3.0" fill="none" stroke="rgb(0, 0, 0)" stroke-opacity="1.0" stroke-linecap="round" stroke-linejoin="round"/>
    <path d="M 179.80018615722656 91.84449005126953 C 153.9726104736328 87.13362121582031 173.55364990234375 83.6878890991211 195.34226989746094 112.67996215820312" stroke-width="3.0" fill="none" stroke="rgb(0, 0, 0)" stroke-opacity="1.0" stroke-linecap="round" stroke-linejoin="round"/>
    <path d="M 182.63711547851562 71.50263214111328 C 177.69024658203125 93.7276840209961 187.81976318359375 90.4811782836914 181.84561157226562 60.789886474609375" stroke-width="3.0" fill="none" stroke="rgb(0, 0, 0)" stroke-opacity="1.0" stroke-linecap="round" stroke-linejoin="round"/>
    <path d="M 123.38224029541016 101.87505340576172 C 154.48004150390625 99.44330596923828 113.79346466064453 97.37126922607422 140.3142852783203 100.63420867919922" stroke-width="3.0" fill="none" stroke="rgb(0, 0, 0)" stroke-opacity="1.0" stroke-linecap="round" stroke-linejoin="round"/>
    <path d="M 164.98239135742188 97.69108581542969 C 197.17652893066406 81.45968627929688 175.68112182617188 67.40328979492188 156.07244873046875 85.79161834716797" stroke-width="3.0" fill="none" stroke="rgb(0, 0, 0)" stroke-opacity="1.0" stroke-linecap="round" stroke-linejoin="round"/>
    <path d="M 55.552879333496094 182.6455078125 C 38.81533432006836 155.6721954345703 47.15296173095703 162.74835205078125 46.08477783203125 169.42420959472656" stroke-width="3.0" fill="none" stroke="rgb(0, 0, 0)" stroke-opacity="1.0" stroke-linecap="round" stroke-linejoin="round"/>
    <path d="M 57.75959014892578 184.91836547851562 C 93.93769836425781 207.4011993408203 109.67381286621094 198.44488525390625 131.4944305419922 182.63099670410156" stroke-width="3.0" fill="none" stroke="rgb(0, 0, 0)" stroke-opacity="1.0" stroke-linecap="round" stroke-linejoin="round"/>
    <path d="M 84.39012145996094 34.210880279541016 C 96.02980041503906 61.76263427734375 82.25309753417969 23.671310424804688 84.65431213378906 52.94916534423828" stroke-width="3.0" fill="none" stroke="rgb(0, 0, 0)" stroke-opacity="1.0" stroke-linecap="round" stroke-linejoin="round"/>
    <path d="M 59.02840042114258 123.76251220703125 C 53.340511322021484 129.83477783203125 105.61735534667969 150.7020721435547 99.66624450683594 150.45901489257812" stroke-width="3.0" fill="none" stroke="rgb(0, 0, 0)" stroke-opacity="1.0" stroke-linecap="round" stroke-linejoin="round"/>
    <path d="M 144.44540405273438 72.72913360595703 C 210.4000244140625 66.85299682617188 187.39224243164062 84.0881576538086 149.54580688476562 84.36758422851562" stroke-width="3.0" fill="none" stroke="rgb(0, 0, 0)" stroke-opacity="1.0" stroke-linecap="round" stroke-linejoin="round"/>
    <path d="M 151.80906677246094 95.3965072631836 C 186.1067352294922 99.623291015625 181.55661010742188 95.3044204711914 190.69728088378906 112.6932144165039" stroke-width="3.0" fill="none" stroke="rgb(0, 0, 0)" stroke-opacity="1.0" stroke-linecap="round" stroke-linejoin="round"/>
    <path d="M 113.9229736328125 156.74827575683594 C 143.5389404296875 143.40574645996094 115.10917663574219 157.75990295410156 125.50237274169922 151.9016876220703" stroke-width="3.0" fill="none" stroke="rgb(0, 0, 0)" stroke-opacity="1.0" stroke-linecap="round" stroke-linejoin="round"/>
    <path d="M 176.6138458251953 7.828829765319824 C 190.05711364746094 3.5269575119018555 174.30191040039062 60.78352355957031 178.69784545898438 52.57551193237305" stroke-width="3.0" fill="none" stroke="rgb(0, 0, 0)" stroke-opacity="1.0" stroke-linecap="round" stroke-linejoin="round"/>
    <path d="M 131.7025604248047 30.288232803344727 C 128.85934448242188 55.89013671875 138.32382202148438 31.850831985473633 126.725341796875 70.28947448730469" stroke-width="3.0" fill="none" stroke="rgb(0, 0, 0)" stroke-opacity="1.0" stroke-linecap="round" stroke-linejoin="round"/>
    <path d="M 88.20061492919922 49.6255989074707 C 75.16072082519531 -6.168188095092773 84.23712921142578 1.3670703172683716 114.09507751464844 34.11113739013672" stroke-width="3.0" fill="none" stroke="rgb(0, 0, 0)" stroke-opacity="1.0" stroke-linecap="round" stroke-linejoin="round"/>
    <path d="M 44.75510025024414 164.4942626953125 C 40.378482818603516 153.4753875732422 35.84601974487305 147.6640167236328 41.340091705322266 154.8123779296875" stroke-width="3.0" fill="none" stroke="rgb(0, 0, 0)" stroke-opacity="1.0" stroke-linecap="round" stroke-linejoin="round"/>
    <path d="M 36.568397521972656 102.51360321044922 C 23.142818450927734 126.77098846435547 36.489768981933594 142.84164428710938 41.3742790222168 156.91297912597656" stroke-width="3.0" fill="none" stroke="rgb(0, 0, 0)" stroke-opacity="1.0" stroke-linecap="round" stroke-linejoin="round"/>
    <path d="M 86.59070587158203 142.551513671875 C 106.32256317138672 161.5986785888672 121.3846664428711 139.4711151123047 113.11201477050781 158.90635681152344" stroke-width="3.0" fill="none" stroke="rgb(0, 0, 0)" stroke-opacity="1.0" stroke-linecap="round" stroke-linejoin="round"/>
    <path d="M 79.31249237060547 196.7261962890625 C 62.18374252319336 193.4897918701172 55.34747314453125 180.55906677246094 48.35588073730469 174.1778106689453" stroke-width="3.0" fill="none" stroke="rgb(0, 0, 0)" stroke-opacity="1.0" stroke-linecap="round" stroke-linejoin="round"/>
    <path d="M 44.821170806884766 164.00962829589844 C 59.37765121459961 193.43435668945312 42.302188873291016 165.70745849609375 40.727256774902344 153.91415405273438" stroke-width="3.0" fill="none" stroke="rgb(0, 0, 0)" stroke-opacity="1.0" stroke-linecap="round" stroke-linejoin="round"/>
    <path d="M 79.5762710571289 53.94773483276367 C 52.825035095214844 59.963191986083984 52.39850616455078 72.22161102294922 33.2574348449707 107.66356658935547" stroke-width="3.0" fill="none" stroke="rgb(0, 0, 0)" stroke-opacity="1.0" stroke-linecap="round" stroke-linejoin="round"/>
    <path d="M 154.2103271484375 140.8473663330078 C 140.87701416015625 159.09046936035156 119.91024780273438 146.37020874023438 131.73410034179688 150.35418701171875" stroke-width="3.0" fill="none" stroke="rgb(0, 0, 0)" stroke-opacity="1.0" stroke-linecap="round" stroke-linejoin="round"/>
    <path d="M 138.998779296875 29.92938995361328 C 150.64990234375 67.73420715332031 131.76414489746094 56.62626647949219 135.90066528320312 75.39871978759766" stroke-width="3.0" fill="none" stroke="rgb(0, 0, 0)" stroke-opacity="1.0" stroke-linecap="round" stroke-linejoin="round"/>
    <path d="M 147.03497314453125 98.35858917236328 C 116.1279525756836 108.1068344116211 133.10284423828125 110.55368041992188 139.5227813720703 102.1983871459961" stroke-width="3.0" fill="none" stroke="rgb(0, 0, 0)" stroke-opacity="1.0" stroke-linecap="round" stroke-linejoin="round"/>
    <path d="M 135.419677734375 73.4236831665039 C 145.15818786621094 57.306243896484375 136.86764526367188 65.44127655029297 139.18130493164062 67.7100601196289" stroke-width="3.0" fill="none" stroke="rgb(0, 0, 0)" stroke-opacity="1.0" stroke-linecap="round" stroke-linejoin="round"/>
    <path d="M 138.053466796875 176.08534240722656 C 121.1261215209961 187.55490112304688 140.69175720214844 184.42576599121094 147.785400390625 147.3115692138672" stroke-width="3.0" fill="none" stroke="rgb(0, 0, 0)" stroke-opacity="1.0" stroke-linecap="round" stroke-linejoin="round"/>
    <path d="M 194.34425354003906 96.57477569580078 C 165.2269287109375 75.99971771240234 149.8131561279297 81.23939514160156 183.59237670898438 83.46711730957031" stroke-width="3.0" fill="none" stroke="rgb(0, 0, 0)" stroke-opacity="1.0" stroke-linecap="round" stroke-linejoin="round"/>
    <path d="M 147.10031127929688 76.60460662841797 C 166.62203979492188 64.9779052734375 199.8226776123047 78.05448150634766 178.34188842773438 64.26661682128906" stroke-width="3.0" fill="none" stroke="rgb(0, 0, 0)" stroke-opacity="1.0" stroke-linecap="round" stroke-linejoin="round"/>
    <path d="M 112.31583404541016 80.45303344726562 C 95.14973449707031 69.06080627441406 137.05661010742188 76.07283020019531 109.07257843017578 77.64653015136719" stroke-width="3.0" fill="none" stroke="rgb(0, 0, 0)" stroke-opacity="1.0" stroke-linecap="round" stroke-linejoin="round"/>
    <path d="M 149.33419799804688 142.4423828125 C 128.61830139160156 160.07032775878906 119.22638702392578 146.62123107910156 106.19651794433594 155.7987823486328" stroke-width="3.0" fill="none" stroke="rgb(0, 0, 0)" stroke-opacity="1.0" stroke-linecap="round" stroke-linejoin="round"/>
    <path d="M 123.57107543945312 88.59004211425781 C 144.54307556152344 96.69896697998047 131.37030029296875 75.9651870727539 127.93745422363281 104.60889434814453" stroke-width="3.0" fill="none" stroke="rgb(0, 0, 0)" stroke-opacity="1.0" stroke-linecap="round" stroke-linejoin="round"/>
    <path d="M 187.04022216796875 112.81902313232422 C 175.4801025390625 74.60443115234375 179.4287567138672 94.62618255615234 140.1744842529297 81.20578002929688" stroke-width="3.0" fill="none" stroke="rgb(0, 0, 0)" stroke-opacity="1.0" stroke-linecap="round" stroke-linejoin="round"/>
    <path d="M 86.08003234863281 9.443721771240234 C 106.84380340576172 14.075027465820312 112.15869140625 32.88957977294922 123.71656036376953 29.85559844970703" stroke-width="3.0" fill="none" stroke="rgb(0, 0, 0)" stroke-opacity="1.0" stroke-linecap="round" stroke-linejoin="round"/>
    <path d="M 56.561767578125 127.36790466308594 C 49.47675323486328 112.33524322509766 64.35094451904297 124.70345306396484 57.12782669067383 119.50193786621094" stroke-width="3.0" fill="none" stroke="rgb(0, 0, 0)" stroke-opacity="1.0" stroke-linecap="round" stroke-linejoin="round"/>
    <path d="M 131.47705078125 105.28974151611328 C 121.25794982910156 93.2532958984375 121.25214385986328 109.12484741210938 112.9298095703125 88.81452941894531" stroke-width="3.0" fill="none" stroke="rgb(0, 0, 0)" stroke-opacity="1.0" stroke-linecap="round" stroke-linejoin="round"/>
    <path d="M 31.478012084960938 133.78074645996094 C 28.323265075683594 116.71257781982422 36.54576873779297 103.05503845214844 32.43312072753906 110.86202239990234" stroke-width="3.0" fill="none" stroke="rgb(0, 0, 0)" stroke-opacity="1.0" stroke-linecap="round" stroke-linejoin="round"/>
    <path d="M 79.2811508178711 195.81321716308594 C 71.64021301269531 195.90652465820312 68.4206771850586 195.69558715820312 94.06587219238281 197.71185302734375" stroke-width="3.0" fill="none" stroke="rgb(0, 0, 0)" stroke-opacity="1.0" stroke-linecap="round" stroke-linejoin="round"/>
    <path d="M 151.97010803222656 139.8682098388672 C 208.34140014648438 112.1671371459961 182.13363647460938 94.11942291259766 153.34811401367188 90.21295166015625" stroke-width="3.0" fill="none" stroke="rgb(0, 0, 0)" stroke-opacity="1.0" stroke-linecap="round" stroke-linejoin="round"/>
    <path d="M 155.99472045898438 69.0910415649414 C 124.01297760009766 79.4449234008789 170.99732971191406 85.90512084960938 145.68345642089844 70.0678939819336" stroke-width="3.0" fill="none" stroke="rgb(0, 0, 0)" stroke-opacity="1.0" stroke-linecap="round" stroke-linejoin="round"/>
    <path d="M 140.79832458496094 77.92222595214844 C 147.227783203125 43.37713623046875 195.53680419921875 106.67357635498047 177.152099609375 48.79288864135742" stroke-width="3.0" fill="none" stroke="rgb(0, 0, 0)" stroke-opacity="1.0" stroke-linecap="round" stroke-linejoin="round"/>
    <path d="M 157.55018615722656 95.54524230957031 C 166.00462341308594 100.78358459472656 178.87379455566406 102.46338653564453 184.8377685546875 115.42088317871094" stroke-width="3.0" fill="none" stroke="rgb(0, 0, 0)" stroke-opacity="1.0" stroke-linecap="round" stroke-linejoin="round"/>
    <path d="M 177.5546417236328 17.070707321166992 C 172.11558532714844 45.05991744995117 175.4478302001953 24.429311752319336 163.22137451171875 38.065460205078125" stroke-width="3.0" fill="none" stroke="rgb(0, 0, 0)" stroke-opacity="1.0" stroke-linecap="round" stroke-linejoin="round"/>
    <path d="M 116.3016128540039 99.13117218017578 C 145.3706817626953 103.47427368164062 132.2127227783203 114.165771484375 115.63642883300781 95.1329574584961" stroke-width="3.0" fill="none" stroke="rgb(0, 0, 0)" stroke-opacity="1.0" stroke-linecap="round" stroke-linejoin="round"/>
    <path d="M 56.826290130615234 121.86679077148438 C 53.415924072265625 103.95189666748047 49.703250885009766 108.2658920288086 61.21075439453125 126.5028076171875" stroke-width="3.0" fill="none" stroke="rgb(0, 0, 0)" stroke-opacity="1.0" stroke-linecap="round" stroke-linejoin="round"/>
    <path d="M 126.29962158203125 77.03111267089844 C 130.55355834960938 35.35627365112305 122.5217056274414 48.57053756713867 124.20420837402344 33.048667907714844" stroke-width="3.0" fill="none" stroke="rgb(0, 0, 0)" stroke-opacity="1.0" stroke-linecap="round" stroke-linejoin="round"/>
    <path d="M 147.8900604248047 28.962547302246094 C 146.0541534423828 37.75743103027344 156.99649047851562 11.896219253540039 177.41270446777344 7.383149147033691" stroke-width="3.0" fill="none" stroke="rgb(0, 0, 0)" stroke-opacity="1.0" stroke-linecap="round" stroke-linejoin="round"/>
  </g>
</svg>
