<?xml version="1.0" ?>
<svg xmlns="http://www.w3.org/2000/svg" version="1.1" width="224" height="224">
  <defs/>
  <g>
    <path d="M 55.93965148925781 114.35953521728516 C 59.938289642333984 115.00434875488281 45.035186767578125 104.46675872802734 45.11458206176758 82.97329711914062" stroke-width="3.0" fill="none" stroke="rgb(0, 0, 0)" stroke-opacity="1.0" stroke-linecap="round" stroke-linejoin="round"/>
    <path d="M 180.81051635742188 126.73324584960938 C 177.38204956054688 115.70126342773438 186.11256408691406 116.30970001220703 183.21707153320312 115.22235870361328" stroke-width="3.0" fill="none" stroke="rgb(0, 0, 0)" stroke-opacity="1.0" stroke-linecap="round" stroke-linejoin="round"/>
    <path d="M 59.406070709228516 113.33877563476562 C 54.27490234375 109.266845703125 51.5742301940918 106.03462219238281 58.93149185180664 124.67459106445312" stroke-width="3.0" fill="none" stroke="rgb(0, 0, 0)" stroke-opacity="1.0" stroke-linecap="round" stroke-linejoin="round"/>
    <path d="M 183.6717987060547 95.60284423828125 C 155.5811004638672 89.12751770019531 167.65060424804688 88.55370330810547 196.51058959960938 110.42340087890625" stroke-width="3.0" fill="none" stroke="rgb(0, 0, 0)" stroke-opacity="1.0" stroke-linecap="round" stroke-linejoin="round"/>
    <path d="M 181.45831298828125 72.50137329101562 C 181.24002075195312 95.57645416259766 183.38987731933594 94.02510070800781 185.06251525878906 64.23365783691406" stroke-width="3.0" fill="none" stroke="rgb(0, 0, 0)" stroke-opacity="1.0" stroke-linecap="round" stroke-linejoin="round"/>
    <path d="M 128.71324157714844 102.34831237792969 C 149.14498901367188 103.97642517089844 105.00228118896484 97.9313735961914 139.3455810546875 104.36105346679688" stroke-width="3.0" fill="none" stroke="rgb(0, 0, 0)" stroke-opacity="1.0" stroke-linecap="round" stroke-linejoin="round"/>
    <path d="M 172.7980499267578 100.46402740478516 C 200.6780548095703 75.64655303955078 173.23365783691406 69.57466125488281 158.01638793945312 85.15042877197266" stroke-width="3.0" fill="none" stroke="rgb(0, 0, 0)" stroke-opacity="1.0" stroke-linecap="round" stroke-linejoin="round"/>
    <path d="M 53.70035934448242 176.81146240234375 C 34.92200469970703 161.09197998046875 52.315921783447266 164.7756805419922 43.72709655761719 162.4671173095703" stroke-width="3.0" fill="none" stroke="rgb(0, 0, 0)" stroke-opacity="1.0" stroke-linecap="round" stroke-linejoin="round"/>
    <path d="M 63.685203552246094 190.1240692138672 C 84.95006561279297 205.72958374023438 108.16804504394531 197.4094696044922 119.06539916992188 187.45986938476562" stroke-width="3.0" fill="none" stroke="rgb(0, 0, 0)" stroke-opacity="1.0" stroke-linecap="round" stroke-linejoin="round"/>
    <path d="M 90.98111724853516 39.65982437133789 C 91.93167877197266 52.11330032348633 83.61480712890625 9.788321495056152 85.25125885009766 52.47542190551758" stroke-width="3.0" fill="none" stroke="rgb(0, 0, 0)" stroke-opacity="1.0" stroke-linecap="round" stroke-linejoin="round"/>
    <path d="M 62.50544357299805 126.74848937988281 C 62.43054962158203 138.92578125 93.23857116699219 148.6991424560547 99.43118286132812 155.71112060546875" stroke-width="3.0" fill="none" stroke="rgb(0, 0, 0)" stroke-opacity="1.0" stroke-linecap="round" stroke-linejoin="round"/>
    <path d="M 151.07583618164062 68.1499252319336 C 211.02316284179688 74.50776672363281 183.30252075195312 78.88198852539062 148.82130432128906 86.44393920898438" stroke-width="3.0" fill="none" stroke="rgb(0, 0, 0)" stroke-opacity="1.0" stroke-linecap="round" stroke-linejoin="round"/>
    <path d="M 151.0827178955078 98.09300231933594 C 173.244384765625 101.67598724365234 174.54257202148438 101.53474426269531 187.2037811279297 112.3061752319336" stroke-width="3.0" fill="none" stroke="rgb(0, 0, 0)" stroke-opacity="1.0" stroke-linecap="round" stroke-linejoin="round"/>
    <path d="M 103.98052978515625 161.4312286376953 C 142.73765563964844 149.4532012939453 107.707275390625 163.09933471679688 111.2151870727539 155.43280029296875" stroke-width="3.0" fill="none" stroke="rgb(0, 0, 0)" stroke-opacity="1.0" stroke-linecap="round" stroke-linejoin="round"/>
    <path d="M 173.2170867919922 9.968429565429688 C 190.79385375976562 0.20591573417186737 174.50205993652344 56.54945755004883 182.9754180908203 57.72454071044922" stroke-width="3.0" fill="none" stroke="rgb(0, 0, 0)" stroke-opacity="1.0" stroke-linecap="round" stroke-linejoin="round"/>
    <path d="M 130.61570739746094 30.772470474243164 C 126.17024993896484 55.859642028808594 134.73951721191406 38.916873931884766 128.57278442382812 69.57058715820312" stroke-width="3.0" fill="none" stroke="rgb(0, 0, 0)" stroke-opacity="1.0" stroke-linecap="round" stroke-linejoin="round"/>
    <path d="M 89.19436645507812 47.464866638183594 C 74.48709869384766 -6.152012825012207 82.43534851074219 1.005866289138794 107.03848266601562 38.0362434387207" stroke-width="3.0" fill="none" stroke="rgb(0, 0, 0)" stroke-opacity="1.0" stroke-linecap="round" stroke-linejoin="round"/>
    <path d="M 44.333412170410156 162.7886962890625 C 42.4438591003418 152.24578857421875 37.48993682861328 147.29664611816406 38.67388916015625 146.43479919433594" stroke-width="3.0" fill="none" stroke="rgb(0, 0, 0)" stroke-opacity="1.0" stroke-linecap="round" stroke-linejoin="round"/>
    <path d="M 33.03550720214844 109.0958023071289 C 25.72246551513672 126.197021484375 36.05150604248047 144.18035888671875 43.01124572753906 153.80455017089844" stroke-width="3.0" fill="none" stroke="rgb(0, 0, 0)" stroke-opacity="1.0" stroke-linecap="round" stroke-linejoin="round"/>
    <path d="M 86.64974212646484 149.51905822753906 C 100.5053939819336 161.4331817626953 104.332275390625 160.72268676757812 102.7842025756836 154.50851440429688" stroke-width="3.0" fill="none" stroke="rgb(0, 0, 0)" stroke-opacity="1.0" stroke-linecap="round" stroke-linejoin="round"/>
    <path d="M 76.68376922607422 197.95455932617188 C 53.84907150268555 186.17835998535156 57.971702575683594 184.91616821289062 48.28622817993164 173.68186950683594" stroke-width="3.0" fill="none" stroke="rgb(0, 0, 0)" stroke-opacity="1.0" stroke-linecap="round" stroke-linejoin="round"/>
    <path d="M 43.88945770263672 163.60121154785156 C 61.145137786865234 185.4922332763672 41.32191467285156 163.3426055908203 40.540069580078125 153.19224548339844" stroke-width="3.0" fill="none" stroke="rgb(0, 0, 0)" stroke-opacity="1.0" stroke-linecap="round" stroke-linejoin="round"/>
    <path d="M 80.7942886352539 56.97925567626953 C 57.23004913330078 57.69236373901367 46.7852668762207 73.61005401611328 32.97331237792969 107.3328857421875" stroke-width="3.0" fill="none" stroke="rgb(0, 0, 0)" stroke-opacity="1.0" stroke-linecap="round" stroke-linejoin="round"/>
    <path d="M 150.24041748046875 142.00758361816406 C 138.73095703125 157.61500549316406 120.27613067626953 155.6003875732422 133.42520141601562 155.00428771972656" stroke-width="3.0" fill="none" stroke="rgb(0, 0, 0)" stroke-opacity="1.0" stroke-linecap="round" stroke-linejoin="round"/>
    <path d="M 137.31387329101562 30.254322052001953 C 140.8159942626953 71.3351058959961 129.7965850830078 56.09303665161133 143.27867126464844 74.47123718261719" stroke-width="3.0" fill="none" stroke="rgb(0, 0, 0)" stroke-opacity="1.0" stroke-linecap="round" stroke-linejoin="round"/>
    <path d="M 145.20616149902344 102.89125061035156 C 117.5188980102539 103.94214630126953 127.43872833251953 113.43112182617188 140.06813049316406 103.94962310791016" stroke-width="3.0" fill="none" stroke="rgb(0, 0, 0)" stroke-opacity="1.0" stroke-linecap="round" stroke-linejoin="round"/>
    <path d="M 138.97421264648438 75.50587463378906 C 144.8278045654297 51.99236297607422 138.09390258789062 59.18764877319336 138.53150939941406 66.36967468261719" stroke-width="3.0" fill="none" stroke="rgb(0, 0, 0)" stroke-opacity="1.0" stroke-linecap="round" stroke-linejoin="round"/>
    <path d="M 129.6239776611328 181.6452178955078 C 100.50089263916016 193.19166564941406 138.5699005126953 191.326904296875 142.05126953125 153.5206756591797" stroke-width="3.0" fill="none" stroke="rgb(0, 0, 0)" stroke-opacity="1.0" stroke-linecap="round" stroke-linejoin="round"/>
    <path d="M 196.9364013671875 95.3508529663086 C 165.8429412841797 74.2809829711914 142.26622009277344 89.25914764404297 186.60108947753906 81.21451568603516" stroke-width="3.0" fill="none" stroke="rgb(0, 0, 0)" stroke-opacity="1.0" stroke-linecap="round" stroke-linejoin="round"/>
    <path d="M 147.76722717285156 76.28585815429688 C 180.21823120117188 58.52018737792969 193.2967987060547 77.93463134765625 171.63873291015625 67.12874603271484" stroke-width="3.0" fill="none" stroke="rgb(0, 0, 0)" stroke-opacity="1.0" stroke-linecap="round" stroke-linejoin="round"/>
    <path d="M 106.16536712646484 75.91376495361328 C 88.64430236816406 68.39117431640625 135.70132446289062 74.06100463867188 106.33438110351562 79.07563018798828" stroke-width="3.0" fill="none" stroke="rgb(0, 0, 0)" stroke-opacity="1.0" stroke-linecap="round" stroke-linejoin="round"/>
    <path d="M 147.2044219970703 144.76869201660156 C 141.8057098388672 161.6551971435547 125.00979614257812 155.6974639892578 107.2369384765625 159.45440673828125" stroke-width="3.0" fill="none" stroke="rgb(0, 0, 0)" stroke-opacity="1.0" stroke-linecap="round" stroke-linejoin="round"/>
    <path d="M 124.88829803466797 89.8565673828125 C 145.10696411132812 99.98206329345703 133.9976348876953 74.49237823486328 129.6492156982422 103.37747192382812" stroke-width="3.0" fill="none" stroke="rgb(0, 0, 0)" stroke-opacity="1.0" stroke-linecap="round" stroke-linejoin="round"/>
    <path d="M 191.42393493652344 112.87289428710938 C 182.95150756835938 82.7149429321289 181.37692260742188 95.45745849609375 141.14425659179688 84.07679748535156" stroke-width="3.0" fill="none" stroke="rgb(0, 0, 0)" stroke-opacity="1.0" stroke-linecap="round" stroke-linejoin="round"/>
    <path d="M 87.4080581665039 10.499751091003418 C 106.4220199584961 19.007505416870117 113.82971954345703 34.54185485839844 124.15918731689453 34.21186828613281" stroke-width="3.0" fill="none" stroke="rgb(0, 0, 0)" stroke-opacity="1.0" stroke-linecap="round" stroke-linejoin="round"/>
    <path d="M 55.794795989990234 112.02388763427734 C 53.29701614379883 105.96858978271484 58.5969352722168 120.36457824707031 59.82596206665039 118.451416015625" stroke-width="3.0" fill="none" stroke="rgb(0, 0, 0)" stroke-opacity="1.0" stroke-linecap="round" stroke-linejoin="round"/>
    <path d="M 122.19033813476562 102.94723510742188 C 104.16110229492188 87.92599487304688 115.64524841308594 112.36930084228516 106.78473663330078 87.87046813964844" stroke-width="3.0" fill="none" stroke="rgb(0, 0, 0)" stroke-opacity="1.0" stroke-linecap="round" stroke-linejoin="round"/>
    <path d="M 32.11283874511719 132.57313537597656 C 28.674171447753906 115.62056732177734 34.409156799316406 101.74620056152344 31.073932647705078 116.6476058959961" stroke-width="3.0" fill="none" stroke="rgb(0, 0, 0)" stroke-opacity="1.0" stroke-linecap="round" stroke-linejoin="round"/>
    <path d="M 84.23036193847656 197.36135864257812 C 74.40629577636719 197.2785186767578 70.38545989990234 195.67071533203125 96.5966796875 199.38186645507812" stroke-width="3.0" fill="none" stroke="rgb(0, 0, 0)" stroke-opacity="1.0" stroke-linecap="round" stroke-linejoin="round"/>
    <path d="M 151.801513671875 143.88296508789062 C 206.54248046875 112.6709976196289 177.98890686035156 97.3229751586914 150.87020874023438 91.97579956054688" stroke-width="3.0" fill="none" stroke="rgb(0, 0, 0)" stroke-opacity="1.0" stroke-linecap="round" stroke-linejoin="round"/>
    <path d="M 158.17047119140625 70.27581024169922 C 120.11222839355469 79.63697052001953 174.5338134765625 81.31940460205078 148.23348999023438 71.13278198242188" stroke-width="3.0" fill="none" stroke="rgb(0, 0, 0)" stroke-opacity="1.0" stroke-linecap="round" stroke-linejoin="round"/>
    <path d="M 144.3199462890625 72.4403305053711 C 141.3466796875 47.43239974975586 198.99520874023438 109.04364013671875 178.45370483398438 48.17755889892578" stroke-width="3.0" fill="none" stroke="rgb(0, 0, 0)" stroke-opacity="1.0" stroke-linecap="round" stroke-linejoin="round"/>
    <path d="M 151.3600616455078 98.33155822753906 C 164.0675811767578 102.61405944824219 174.0502166748047 109.02328491210938 181.9200897216797 117.3560562133789" stroke-width="3.0" fill="none" stroke="rgb(0, 0, 0)" stroke-opacity="1.0" stroke-linecap="round" stroke-linejoin="round"/>
    <path d="M 177.4351348876953 16.44598388671875 C 169.1107635498047 38.41926956176758 174.6617889404297 18.849143981933594 161.77076721191406 37.46310806274414" stroke-width="3.0" fill="none" stroke="rgb(0, 0, 0)" stroke-opacity="1.0" stroke-linecap="round" stroke-linejoin="round"/>
    <path d="M 127.53136444091797 104.06329345703125 C 142.06048583984375 103.4926986694336 131.87908935546875 114.26643371582031 109.09555053710938 95.90489959716797" stroke-width="3.0" fill="none" stroke="rgb(0, 0, 0)" stroke-opacity="1.0" stroke-linecap="round" stroke-linejoin="round"/>
    <path d="M 55.09120559692383 112.81375122070312 C 56.42803192138672 110.97772216796875 51.179115295410156 105.69151306152344 59.426910400390625 126.4426498413086" stroke-width="3.0" fill="none" stroke="rgb(0, 0, 0)" stroke-opacity="1.0" stroke-linecap="round" stroke-linejoin="round"/>
    <path d="M 126.84614562988281 77.3553466796875 C 128.57058715820312 44.36836242675781 119.35504913330078 52.138484954833984 123.46211242675781 31.550596237182617" stroke-width="3.0" fill="none" stroke="rgb(0, 0, 0)" stroke-opacity="1.0" stroke-linecap="round" stroke-linejoin="round"/>
    <path d="M 144.68759155273438 29.939590454101562 C 145.9253387451172 39.76372146606445 150.27024841308594 14.790647506713867 178.247802734375 8.233635902404785" stroke-width="3.0" fill="none" stroke="rgb(0, 0, 0)" stroke-opacity="1.0" stroke-linecap="round" stroke-linejoin="round"/>
  </g>
</svg>
