<?xml version="1.0" ?>
<svg xmlns="http://www.w3.org/2000/svg" version="1.1" width="224" height="224">
  <defs/>
  <g>
    <path d="M 58.71635055541992 113.98186492919922 C 62.18622970581055 113.99365997314453 55.23329544067383 108.6422348022461 46.425533294677734 101.67033386230469" stroke-width="3.0" fill="none" stroke="rgb(0, 0, 0)" stroke-opacity="1.0" stroke-linecap="round" stroke-linejoin="round"/>
    <path d="M 181.44000244140625 130.37142944335938 C 177.97596740722656 112.10920715332031 179.37506103515625 114.75139617919922 184.2830810546875 123.32870483398438" stroke-width="3.0" fill="none" stroke="rgb(0, 0, 0)" stroke-opacity="1.0" stroke-linecap="round" stroke-linejoin="round"/>
    <path d="M 56.72843551635742 110.28412628173828 C 58.511680603027344 116.5112533569336 55.43680191040039 105.62470245361328 56.910884857177734 109.90645599365234" stroke-width="3.0" fill="none" stroke="rgb(0, 0, 0)" stroke-opacity="1.0" stroke-linecap="round" stroke-linejoin="round"/>
    <path d="M 180.85105895996094 100.21497344970703 C 155.12130737304688 102.89981079101562 169.8783721923828 92.2398681640625 192.29849243164062 112.34637451171875" stroke-width="3.0" fill="none" stroke="rgb(0, 0, 0)" stroke-opacity="1.0" stroke-linecap="round" stroke-linejoin="round"/>
    <path d="M 182.7476348876953 78.43463134765625 C 184.59873962402344 87.74930572509766 174.30101013183594 77.64129638671875 181.0469207763672 79.81822204589844" stroke-width="3.0" fill="none" stroke="rgb(0, 0, 0)" stroke-opacity="1.0" stroke-linecap="round" stroke-linejoin="round"/>
    <path d="M 128.76022338867188 100.3958511352539 C 120.93529510498047 111.29672241210938 120.53617858886719 107.76327514648438 136.0469207763672 106.49828338623047" stroke-width="3.0" fill="none" stroke="rgb(0, 0, 0)" stroke-opacity="1.0" stroke-linecap="round" stroke-linejoin="round"/>
    <path d="M 168.82046508789062 83.2229232788086 C 190.679443359375 81.9339828491211 184.19296264648438 83.8196029663086 160.7292938232422 83.97056579589844" stroke-width="3.0" fill="none" stroke="rgb(0, 0, 0)" stroke-opacity="1.0" stroke-linecap="round" stroke-linejoin="round"/>
    <path d="M 54.95634078979492 181.2253875732422 C 34.544288635253906 158.6349639892578 49.016109466552734 159.20071411132812 45.43496322631836 161.1022491455078" stroke-width="3.0" fill="none" stroke="rgb(0, 0, 0)" stroke-opacity="1.0" stroke-linecap="round" stroke-linejoin="round"/>
    <path d="M 75.4955062866211 187.7563018798828 C 86.95775604248047 188.63710021972656 104.14527130126953 191.5552215576172 87.51883697509766 181.92648315429688" stroke-width="3.0" fill="none" stroke="rgb(0, 0, 0)" stroke-opacity="1.0" stroke-linecap="round" stroke-linejoin="round"/>
    <path d="M 91.75065612792969 43.37995529174805 C 90.70549774169922 66.54879760742188 91.24484252929688 62.84811019897461 88.05463409423828 52.063148498535156" stroke-width="3.0" fill="none" stroke="rgb(0, 0, 0)" stroke-opacity="1.0" stroke-linecap="round" stroke-linejoin="round"/>
    <path d="M 61.00831604003906 128.6634521484375 C 73.46588897705078 147.0343475341797 79.8328857421875 148.0946807861328 82.11225128173828 150.63926696777344" stroke-width="3.0" fill="none" stroke="rgb(0, 0, 0)" stroke-opacity="1.0" stroke-linecap="round" stroke-linejoin="round"/>
    <path d="M 164.4171600341797 82.9131088256836 C 187.0680389404297 77.60269165039062 175.97625732421875 89.78365325927734 156.8256378173828 88.06123352050781" stroke-width="3.0" fill="none" stroke="rgb(0, 0, 0)" stroke-opacity="1.0" stroke-linecap="round" stroke-linejoin="round"/>
    <path d="M 157.94839477539062 102.9966812133789 C 175.78404235839844 102.27699279785156 162.5314178466797 104.20904541015625 183.73983764648438 105.85003662109375" stroke-width="3.0" fill="none" stroke="rgb(0, 0, 0)" stroke-opacity="1.0" stroke-linecap="round" stroke-linejoin="round"/>
    <path d="M 77.98775482177734 169.51768493652344 C 84.05354309082031 184.13092041015625 93.13838958740234 184.935546875 96.5105209350586 191.83645629882812" stroke-width="3.0" fill="none" stroke="rgb(0, 0, 0)" stroke-opacity="1.0" stroke-linecap="round" stroke-linejoin="round"/>
    <path d="M 175.77926635742188 10.52266788482666 C 183.39430236816406 -1.9390137195587158 184.63931274414062 23.621496200561523 177.05093383789062 52.10951614379883" stroke-width="3.0" fill="none" stroke="rgb(0, 0, 0)" stroke-opacity="1.0" stroke-linecap="round" stroke-linejoin="round"/>
    <path d="M 130.72134399414062 32.307186126708984 C 128.1764373779297 50.06840896606445 125.41033172607422 40.006134033203125 129.09451293945312 61.68614196777344" stroke-width="3.0" fill="none" stroke="rgb(0, 0, 0)" stroke-opacity="1.0" stroke-linecap="round" stroke-linejoin="round"/>
    <path d="M 94.05733489990234 49.44862365722656 C 73.79391479492188 -9.674842834472656 84.94392395019531 5.028811931610107 104.14241027832031 40.99562454223633" stroke-width="3.0" fill="none" stroke="rgb(0, 0, 0)" stroke-opacity="1.0" stroke-linecap="round" stroke-linejoin="round"/>
    <path d="M 49.00472640991211 170.07740783691406 C 34.87699890136719 155.05612182617188 48.01606750488281 161.516845703125 45.75019073486328 160.33872985839844" stroke-width="3.0" fill="none" stroke="rgb(0, 0, 0)" stroke-opacity="1.0" stroke-linecap="round" stroke-linejoin="round"/>
    <path d="M 33.36438751220703 119.74937438964844 C 30.11907196044922 132.31565856933594 37.005828857421875 138.46090698242188 40.52769470214844 151.34075927734375" stroke-width="3.0" fill="none" stroke="rgb(0, 0, 0)" stroke-opacity="1.0" stroke-linecap="round" stroke-linejoin="round"/>
    <path d="M 73.76302337646484 158.5328826904297 C 77.06778717041016 168.02166748046875 80.80721282958984 169.16891479492188 76.39681243896484 167.5845489501953" stroke-width="3.0" fill="none" stroke="rgb(0, 0, 0)" stroke-opacity="1.0" stroke-linecap="round" stroke-linejoin="round"/>
    <path d="M 74.56257629394531 187.8518829345703 C 49.98115158081055 177.31407165527344 76.74290466308594 191.18408203125 51.60529708862305 174.05502319335938" stroke-width="3.0" fill="none" stroke="rgb(0, 0, 0)" stroke-opacity="1.0" stroke-linecap="round" stroke-linejoin="round"/>
    <path d="M 44.34688949584961 156.3584442138672 C 44.1109733581543 163.44407653808594 39.702877044677734 154.6201171875 38.0605354309082 145.13453674316406" stroke-width="3.0" fill="none" stroke="rgb(0, 0, 0)" stroke-opacity="1.0" stroke-linecap="round" stroke-linejoin="round"/>
    <path d="M 61.50215148925781 61.88954162597656 C 48.62663269042969 76.28057098388672 50.186561584472656 74.41786193847656 36.91972351074219 110.02261352539062" stroke-width="3.0" fill="none" stroke="rgb(0, 0, 0)" stroke-opacity="1.0" stroke-linecap="round" stroke-linejoin="round"/>
    <path d="M 147.62448120117188 158.88243103027344 C 127.9921646118164 157.80801391601562 129.1502227783203 152.0096435546875 141.41928100585938 164.59141540527344" stroke-width="3.0" fill="none" stroke="rgb(0, 0, 0)" stroke-opacity="1.0" stroke-linecap="round" stroke-linejoin="round"/>
    <path d="M 139.62245178222656 31.244482040405273 C 150.96083068847656 52.806724548339844 139.05340576171875 52.09982681274414 139.82688903808594 75.62165832519531" stroke-width="3.0" fill="none" stroke="rgb(0, 0, 0)" stroke-opacity="1.0" stroke-linecap="round" stroke-linejoin="round"/>
    <path d="M 145.9244842529297 99.26610565185547 C 130.0435028076172 109.09382629394531 113.06116485595703 102.70036315917969 128.10491943359375 105.65991973876953" stroke-width="3.0" fill="none" stroke="rgb(0, 0, 0)" stroke-opacity="1.0" stroke-linecap="round" stroke-linejoin="round"/>
    <path d="M 143.82797241210938 66.40178680419922 C 146.60076904296875 57.869964599609375 155.233154296875 50.41719055175781 151.4419403076172 55.08650588989258" stroke-width="3.0" fill="none" stroke="rgb(0, 0, 0)" stroke-opacity="1.0" stroke-linecap="round" stroke-linejoin="round"/>
    <path d="M 106.01228332519531 192.79608154296875 C 79.2781753540039 174.4693603515625 95.88136291503906 206.0442352294922 126.08838653564453 187.099365234375" stroke-width="3.0" fill="none" stroke="rgb(0, 0, 0)" stroke-opacity="1.0" stroke-linecap="round" stroke-linejoin="round"/>
    <path d="M 184.98670959472656 91.43994140625 C 169.39462280273438 74.61470794677734 167.92340087890625 89.82355499267578 173.3577423095703 81.65656280517578" stroke-width="3.0" fill="none" stroke="rgb(0, 0, 0)" stroke-opacity="1.0" stroke-linecap="round" stroke-linejoin="round"/>
    <path d="M 170.40858459472656 87.13400268554688 C 184.13246154785156 84.73075866699219 191.89195251464844 93.86905670166016 165.653076171875 86.19596862792969" stroke-width="3.0" fill="none" stroke="rgb(0, 0, 0)" stroke-opacity="1.0" stroke-linecap="round" stroke-linejoin="round"/>
    <path d="M 118.58853912353516 74.95463562011719 C 88.18338775634766 70.7751693725586 135.66127014160156 68.08675384521484 111.9162826538086 77.87995910644531" stroke-width="3.0" fill="none" stroke="rgb(0, 0, 0)" stroke-opacity="1.0" stroke-linecap="round" stroke-linejoin="round"/>
    <path d="M 133.3269805908203 158.1316375732422 C 135.711181640625 160.03733825683594 128.20298767089844 159.0548553466797 121.86415100097656 155.52037048339844" stroke-width="3.0" fill="none" stroke="rgb(0, 0, 0)" stroke-opacity="1.0" stroke-linecap="round" stroke-linejoin="round"/>
    <path d="M 124.1175765991211 90.22718048095703 C 141.0248260498047 99.59061431884766 132.77081298828125 79.53900909423828 130.086181640625 95.08416748046875" stroke-width="3.0" fill="none" stroke="rgb(0, 0, 0)" stroke-opacity="1.0" stroke-linecap="round" stroke-linejoin="round"/>
    <path d="M 183.76751708984375 97.31403350830078 C 171.92025756835938 94.96915435791016 185.62945556640625 98.88134765625 145.4777069091797 89.28754425048828" stroke-width="3.0" fill="none" stroke="rgb(0, 0, 0)" stroke-opacity="1.0" stroke-linecap="round" stroke-linejoin="round"/>
    <path d="M 86.59908294677734 8.071754455566406 C 107.990478515625 16.925214767456055 112.79281616210938 33.061790466308594 122.64678192138672 31.653499603271484" stroke-width="3.0" fill="none" stroke="rgb(0, 0, 0)" stroke-opacity="1.0" stroke-linecap="round" stroke-linejoin="round"/>
    <path d="M 54.3117561340332 109.43836212158203 C 52.904815673828125 108.27149963378906 64.16129302978516 118.70162200927734 57.60772705078125 110.81692504882812" stroke-width="3.0" fill="none" stroke="rgb(0, 0, 0)" stroke-opacity="1.0" stroke-linecap="round" stroke-linejoin="round"/>
    <path d="M 119.96138763427734 101.2784423828125 C 92.11881256103516 97.90821075439453 131.66212463378906 98.06507873535156 107.22315216064453 97.05972290039062" stroke-width="3.0" fill="none" stroke="rgb(0, 0, 0)" stroke-opacity="1.0" stroke-linecap="round" stroke-linejoin="round"/>
    <path d="M 33.89167785644531 118.30110931396484 C 40.00932312011719 96.67849731445312 37.323001861572266 106.31644439697266 35.05664825439453 112.547607421875" stroke-width="3.0" fill="none" stroke="rgb(0, 0, 0)" stroke-opacity="1.0" stroke-linecap="round" stroke-linejoin="round"/>
    <path d="M 85.47511291503906 189.5923309326172 C 75.91333770751953 187.78408813476562 76.00992584228516 187.70606994628906 85.28643035888672 189.34153747558594" stroke-width="3.0" fill="none" stroke="rgb(0, 0, 0)" stroke-opacity="1.0" stroke-linecap="round" stroke-linejoin="round"/>
    <path d="M 173.70884704589844 136.72999572753906 C 190.05047607421875 106.40921020507812 168.1668701171875 101.26751708984375 149.88888549804688 95.784912109375" stroke-width="3.0" fill="none" stroke="rgb(0, 0, 0)" stroke-opacity="1.0" stroke-linecap="round" stroke-linejoin="round"/>
    <path d="M 153.50758361816406 76.16618347167969 C 138.86228942871094 60.228050231933594 141.02371215820312 93.89537048339844 160.05917358398438 76.73303985595703" stroke-width="3.0" fill="none" stroke="rgb(0, 0, 0)" stroke-opacity="1.0" stroke-linecap="round" stroke-linejoin="round"/>
    <path d="M 147.01185607910156 70.9441909790039 C 162.7634735107422 74.02902221679688 170.03526306152344 79.78756713867188 182.05169677734375 72.30197143554688" stroke-width="3.0" fill="none" stroke="rgb(0, 0, 0)" stroke-opacity="1.0" stroke-linecap="round" stroke-linejoin="round"/>
    <path d="M 148.7101593017578 103.16320037841797 C 157.19827270507812 102.81924438476562 168.18711853027344 102.4516372680664 180.13182067871094 117.73420715332031" stroke-width="3.0" fill="none" stroke="rgb(0, 0, 0)" stroke-opacity="1.0" stroke-linecap="round" stroke-linejoin="round"/>
    <path d="M 171.08876037597656 18.290502548217773 C 164.88011169433594 39.8928108215332 162.31712341308594 23.10616683959961 162.40966796875 38.95814514160156" stroke-width="3.0" fill="none" stroke="rgb(0, 0, 0)" stroke-opacity="1.0" stroke-linecap="round" stroke-linejoin="round"/>
    <path d="M 121.91143035888672 107.33407592773438 C 151.87527465820312 116.16490936279297 129.80776977539062 91.85973358154297 116.10987091064453 107.01559448242188" stroke-width="3.0" fill="none" stroke="rgb(0, 0, 0)" stroke-opacity="1.0" stroke-linecap="round" stroke-linejoin="round"/>
    <path d="M 53.20582962036133 109.34526062011719 C 54.54958724975586 109.84017181396484 50.49384689331055 103.77692413330078 64.73577117919922 125.60035705566406" stroke-width="3.0" fill="none" stroke="rgb(0, 0, 0)" stroke-opacity="1.0" stroke-linecap="round" stroke-linejoin="round"/>
    <path d="M 119.30661010742188 83.60395812988281 C 132.2227783203125 61.790348052978516 113.63475799560547 53.449501037597656 114.08355712890625 40.09560012817383" stroke-width="3.0" fill="none" stroke="rgb(0, 0, 0)" stroke-opacity="1.0" stroke-linecap="round" stroke-linejoin="round"/>
    <path d="M 146.6184539794922 31.735002517700195 C 155.6961669921875 25.74563980102539 152.2904510498047 19.4045352935791 176.28009033203125 8.311907768249512" stroke-width="3.0" fill="none" stroke="rgb(0, 0, 0)" stroke-opacity="1.0" stroke-linecap="round" stroke-linejoin="round"/>
  </g>
</svg>
