<?xml version="1.0" ?>
<svg xmlns="http://www.w3.org/2000/svg" version="1.1" width="224" height="224">
  <defs/>
  <g>
    <path d="M 61.974647521972656 90.13565063476562 C 76.58609771728516 78.40570831298828 62.67445373535156 79.13557434082031 79.78015899658203 61.6773567199707" stroke-width="3.0" fill="none" stroke="rgb(0, 0, 0)" stroke-opacity="1.0" stroke-linecap="round" stroke-linejoin="round"/>
    <path d="M 195.90631103515625 113.54069519042969 C 181.6800537109375 99.52029418945312 194.02833557128906 97.96818542480469 178.8463897705078 126.90433502197266" stroke-width="3.0" fill="none" stroke="rgb(0, 0, 0)" stroke-opacity="1.0" stroke-linecap="round" stroke-linejoin="round"/>
    <path d="M 60.83937454223633 116.84095764160156 C 53.028682708740234 88.0009536743164 59.19234085083008 112.77029418945312 61.508426666259766 108.89775085449219" stroke-width="3.0" fill="none" stroke="rgb(0, 0, 0)" stroke-opacity="1.0" stroke-linecap="round" stroke-linejoin="round"/>
    <path d="M 188.79782104492188 92.03752136230469 C 149.06016540527344 77.17485809326172 182.51998901367188 76.80949401855469 189.29867553710938 97.59992218017578" stroke-width="3.0" fill="none" stroke="rgb(0, 0, 0)" stroke-opacity="1.0" stroke-linecap="round" stroke-linejoin="round"/>
    <path d="M 176.0170135498047 52.9815788269043 C 194.55728149414062 88.55115509033203 179.91241455078125 103.6112289428711 180.60968017578125 50.99751281738281" stroke-width="3.0" fill="none" stroke="rgb(0, 0, 0)" stroke-opacity="1.0" stroke-linecap="round" stroke-linejoin="round"/>
    <path d="M 130.91078186035156 97.05838012695312 C 154.57473754882812 106.81451416015625 95.83840942382812 97.71166229248047 136.78628540039062 102.12256622314453" stroke-width="3.0" fill="none" stroke="rgb(0, 0, 0)" stroke-opacity="1.0" stroke-linecap="round" stroke-linejoin="round"/>
    <path d="M 186.89956665039062 99.62699127197266 C 162.11575317382812 89.63130187988281 194.33120727539062 68.39335632324219 151.94786071777344 88.2121810913086" stroke-width="3.0" fill="none" stroke="rgb(0, 0, 0)" stroke-opacity="1.0" stroke-linecap="round" stroke-linejoin="round"/>
    <path d="M 64.0459213256836 190.0960235595703 C 44.71879959106445 165.98587036132812 43.300262451171875 173.12957763671875 65.3683090209961 188.92645263671875" stroke-width="3.0" fill="none" stroke="rgb(0, 0, 0)" stroke-opacity="1.0" stroke-linecap="round" stroke-linejoin="round"/>
    <path d="M 60.0664176940918 184.09967041015625 C 82.82638549804688 211.78781127929688 140.2466278076172 192.6062469482422 138.32913208007812 160.75225830078125" stroke-width="3.0" fill="none" stroke="rgb(0, 0, 0)" stroke-opacity="1.0" stroke-linecap="round" stroke-linejoin="round"/>
    <path d="M 82.1610107421875 13.899648666381836 C 94.54942321777344 72.79093933105469 89.48638916015625 18.46639633178711 85.7254867553711 52.17190170288086" stroke-width="3.0" fill="none" stroke="rgb(0, 0, 0)" stroke-opacity="1.0" stroke-linecap="round" stroke-linejoin="round"/>
    <path d="M 60.619140625 91.33895874023438 C 48.55728530883789 122.09000396728516 79.62271881103516 126.01581573486328 58.566619873046875 114.4040756225586" stroke-width="3.0" fill="none" stroke="rgb(0, 0, 0)" stroke-opacity="1.0" stroke-linecap="round" stroke-linejoin="round"/>
    <path d="M 143.99673461914062 76.51779174804688 C 195.26283264160156 59.97144317626953 206.2657470703125 87.31329345703125 141.58412170410156 86.42147064208984" stroke-width="3.0" fill="none" stroke="rgb(0, 0, 0)" stroke-opacity="1.0" stroke-linecap="round" stroke-linejoin="round"/>
    <path d="M 152.0641632080078 96.42150115966797 C 186.42462158203125 102.27804565429688 180.31326293945312 106.27066040039062 185.29544067382812 113.00093078613281" stroke-width="3.0" fill="none" stroke="rgb(0, 0, 0)" stroke-opacity="1.0" stroke-linecap="round" stroke-linejoin="round"/>
    <path d="M 133.08555603027344 151.69427490234375 C 177.93080139160156 156.05076599121094 94.090087890625 143.78558349609375 96.81046295166016 149.2444610595703" stroke-width="3.0" fill="none" stroke="rgb(0, 0, 0)" stroke-opacity="1.0" stroke-linecap="round" stroke-linejoin="round"/>
    <path d="M 178.51319885253906 9.147622108459473 C 190.03329467773438 16.085493087768555 164.8052215576172 89.89131164550781 184.3956298828125 62.588077545166016" stroke-width="3.0" fill="none" stroke="rgb(0, 0, 0)" stroke-opacity="1.0" stroke-linecap="round" stroke-linejoin="round"/>
    <path d="M 150.7444610595703 28.466951370239258 C 109.95732879638672 31.463729858398438 137.39393615722656 19.55112075805664 126.13860321044922 67.88064575195312" stroke-width="3.0" fill="none" stroke="rgb(0, 0, 0)" stroke-opacity="1.0" stroke-linecap="round" stroke-linejoin="round"/>
    <path d="M 108.12625885009766 47.33183288574219 C 61.58515930175781 -3.5921568870544434 83.78479766845703 4.073058128356934 120.54572296142578 32.261558532714844" stroke-width="3.0" fill="none" stroke="rgb(0, 0, 0)" stroke-opacity="1.0" stroke-linecap="round" stroke-linejoin="round"/>
    <path d="M 43.93319320678711 160.85986328125 C 44.44135665893555 158.4010467529297 40.891048431396484 157.0822296142578 51.94746398925781 178.14715576171875" stroke-width="3.0" fill="none" stroke="rgb(0, 0, 0)" stroke-opacity="1.0" stroke-linecap="round" stroke-linejoin="round"/>
    <path d="M 59.5677604675293 66.8384017944336 C 16.745891571044922 112.43128204345703 39.1645393371582 146.26231384277344 44.439247131347656 164.36199951171875" stroke-width="3.0" fill="none" stroke="rgb(0, 0, 0)" stroke-opacity="1.0" stroke-linecap="round" stroke-linejoin="round"/>
    <path d="M 67.67879486083984 134.700439453125 C 144.96852111816406 166.35504150390625 115.7397232055664 150.26345825195312 88.79994201660156 143.28533935546875" stroke-width="3.0" fill="none" stroke="rgb(0, 0, 0)" stroke-opacity="1.0" stroke-linecap="round" stroke-linejoin="round"/>
    <path d="M 84.98970031738281 196.4364471435547 C 65.91495513916016 197.79144287109375 46.509071350097656 177.31353759765625 39.67591094970703 147.58828735351562" stroke-width="3.0" fill="none" stroke="rgb(0, 0, 0)" stroke-opacity="1.0" stroke-linecap="round" stroke-linejoin="round"/>
    <path d="M 47.50001907348633 171.25250244140625 C 72.32469940185547 199.2376251220703 48.24235916137695 177.72731018066406 39.76153564453125 151.14967346191406" stroke-width="3.0" fill="none" stroke="rgb(0, 0, 0)" stroke-opacity="1.0" stroke-linecap="round" stroke-linejoin="round"/>
    <path d="M 81.75025939941406 55.974327087402344 C 61.21550369262695 59.636024475097656 60.97809982299805 65.34891510009766 36.850460052490234 107.56456756591797" stroke-width="3.0" fill="none" stroke="rgb(0, 0, 0)" stroke-opacity="1.0" stroke-linecap="round" stroke-linejoin="round"/>
    <path d="M 147.23374938964844 146.20167541503906 C 112.09355163574219 158.04627990722656 65.55491638183594 147.5101776123047 146.5728759765625 148.8419189453125" stroke-width="3.0" fill="none" stroke="rgb(0, 0, 0)" stroke-opacity="1.0" stroke-linecap="round" stroke-linejoin="round"/>
    <path d="M 151.36886596679688 27.58702850341797 C 144.5275421142578 39.804893493652344 140.9598388671875 14.783539772033691 135.93202209472656 73.82017517089844" stroke-width="3.0" fill="none" stroke="rgb(0, 0, 0)" stroke-opacity="1.0" stroke-linecap="round" stroke-linejoin="round"/>
    <path d="M 144.60183715820312 98.65831756591797 C 124.60385131835938 111.58391571044922 126.80908203125 105.06813049316406 124.28080749511719 100.64482116699219" stroke-width="3.0" fill="none" stroke="rgb(0, 0, 0)" stroke-opacity="1.0" stroke-linecap="round" stroke-linejoin="round"/>
    <path d="M 136.98681640625 70.0770263671875 C 145.60696411132812 52.115264892578125 135.97659301757812 64.62997436523438 136.86407470703125 69.2748794555664" stroke-width="3.0" fill="none" stroke="rgb(0, 0, 0)" stroke-opacity="1.0" stroke-linecap="round" stroke-linejoin="round"/>
    <path d="M 138.5520782470703 162.77362060546875 C 135.21588134765625 169.62579345703125 140.68016052246094 163.957275390625 150.5589141845703 140.34130859375" stroke-width="3.0" fill="none" stroke="rgb(0, 0, 0)" stroke-opacity="1.0" stroke-linecap="round" stroke-linejoin="round"/>
    <path d="M 195.3730010986328 95.72538757324219 C 163.5713348388672 71.93630981445312 191.5792999267578 60.00775146484375 177.74383544921875 93.95406341552734" stroke-width="3.0" fill="none" stroke="rgb(0, 0, 0)" stroke-opacity="1.0" stroke-linecap="round" stroke-linejoin="round"/>
    <path d="M 152.58692932128906 78.62313842773438 C 120.75605010986328 55.175132751464844 204.40467834472656 89.46168518066406 181.1304473876953 60.475284576416016" stroke-width="3.0" fill="none" stroke="rgb(0, 0, 0)" stroke-opacity="1.0" stroke-linecap="round" stroke-linejoin="round"/>
    <path d="M 114.68521118164062 81.4373779296875 C 88.3634262084961 75.32268524169922 136.21023559570312 74.35240936279297 109.51497650146484 82.77558135986328" stroke-width="3.0" fill="none" stroke="rgb(0, 0, 0)" stroke-opacity="1.0" stroke-linecap="round" stroke-linejoin="round"/>
    <path d="M 166.88198852539062 130.0530548095703 C 154.19686889648438 153.65896606445312 87.52027893066406 148.00196838378906 92.03030395507812 145.55239868164062" stroke-width="3.0" fill="none" stroke="rgb(0, 0, 0)" stroke-opacity="1.0" stroke-linecap="round" stroke-linejoin="round"/>
    <path d="M 124.68937683105469 89.9776840209961 C 138.9622802734375 98.06752014160156 130.1575164794922 73.80280303955078 129.03338623046875 106.05030059814453" stroke-width="3.0" fill="none" stroke="rgb(0, 0, 0)" stroke-opacity="1.0" stroke-linecap="round" stroke-linejoin="round"/>
    <path d="M 186.58514404296875 108.86883544921875 C 173.10623168945312 91.19988250732422 167.2400665283203 96.35921478271484 142.4935760498047 84.04023742675781" stroke-width="3.0" fill="none" stroke="rgb(0, 0, 0)" stroke-opacity="1.0" stroke-linecap="round" stroke-linejoin="round"/>
    <path d="M 90.57972717285156 21.211076736450195 C 123.8474349975586 28.105253219604492 83.08223724365234 30.991533279418945 146.20272827148438 31.675861358642578" stroke-width="3.0" fill="none" stroke="rgb(0, 0, 0)" stroke-opacity="1.0" stroke-linecap="round" stroke-linejoin="round"/>
    <path d="M 57.231449127197266 106.36515045166016 C 59.44482421875 92.46461486816406 52.783470153808594 113.93464660644531 74.0369873046875 135.88803100585938" stroke-width="3.0" fill="none" stroke="rgb(0, 0, 0)" stroke-opacity="1.0" stroke-linecap="round" stroke-linejoin="round"/>
    <path d="M 129.92300415039062 107.26104736328125 C 131.37356567382812 90.06951141357422 125.8510971069336 119.90550231933594 112.29884338378906 91.46165466308594" stroke-width="3.0" fill="none" stroke="rgb(0, 0, 0)" stroke-opacity="1.0" stroke-linecap="round" stroke-linejoin="round"/>
    <path d="M 40.880680084228516 150.69203186035156 C 20.61376190185547 121.47785949707031 41.44522476196289 69.27293395996094 68.88853454589844 60.6218376159668" stroke-width="3.0" fill="none" stroke="rgb(0, 0, 0)" stroke-opacity="1.0" stroke-linecap="round" stroke-linejoin="round"/>
    <path d="M 106.5376968383789 194.7238006591797 C 85.97643280029297 200.27523803710938 88.53006744384766 196.30734252929688 107.95439147949219 195.97564697265625" stroke-width="3.0" fill="none" stroke="rgb(0, 0, 0)" stroke-opacity="1.0" stroke-linecap="round" stroke-linejoin="round"/>
    <path d="M 168.3209686279297 128.90771484375 C 198.58868408203125 114.34776306152344 193.0177459716797 87.24684143066406 155.2944793701172 86.34403228759766" stroke-width="3.0" fill="none" stroke="rgb(0, 0, 0)" stroke-opacity="1.0" stroke-linecap="round" stroke-linejoin="round"/>
    <path d="M 157.7735137939453 71.26303100585938 C 130.6232452392578 81.61308288574219 164.65647888183594 82.99270629882812 151.7575225830078 72.14278411865234" stroke-width="3.0" fill="none" stroke="rgb(0, 0, 0)" stroke-opacity="1.0" stroke-linecap="round" stroke-linejoin="round"/>
    <path d="M 140.32261657714844 78.2833480834961 C 144.7626953125 38.6231575012207 199.8854217529297 118.57030487060547 178.0283660888672 42.6650390625" stroke-width="3.0" fill="none" stroke="rgb(0, 0, 0)" stroke-opacity="1.0" stroke-linecap="round" stroke-linejoin="round"/>
    <path d="M 155.4971923828125 95.68389892578125 C 171.9258575439453 106.4327392578125 180.59425354003906 104.6913833618164 184.2639923095703 123.5844497680664" stroke-width="3.0" fill="none" stroke="rgb(0, 0, 0)" stroke-opacity="1.0" stroke-linecap="round" stroke-linejoin="round"/>
    <path d="M 177.87205505371094 14.551593780517578 C 174.13221740722656 43.176963806152344 177.47422790527344 16.586408615112305 160.56739807128906 37.92246627807617" stroke-width="3.0" fill="none" stroke="rgb(0, 0, 0)" stroke-opacity="1.0" stroke-linecap="round" stroke-linejoin="round"/>
    <path d="M 120.0252456665039 102.99873352050781 C 139.6725616455078 91.98818969726562 128.80130004882812 113.03666687011719 134.9171142578125 101.38084411621094" stroke-width="3.0" fill="none" stroke="rgb(0, 0, 0)" stroke-opacity="1.0" stroke-linecap="round" stroke-linejoin="round"/>
    <path d="M 62.95726013183594 92.24382019042969 C 55.310707092285156 109.3120346069336 55.07947540283203 110.24725341796875 61.91941452026367 99.26010131835938" stroke-width="3.0" fill="none" stroke="rgb(0, 0, 0)" stroke-opacity="1.0" stroke-linecap="round" stroke-linejoin="round"/>
    <path d="M 120.6583251953125 74.03392791748047 C 127.71929168701172 43.07918930053711 112.7755126953125 49.18743896484375 116.93510437011719 36.5134162902832" stroke-width="3.0" fill="none" stroke="rgb(0, 0, 0)" stroke-opacity="1.0" stroke-linecap="round" stroke-linejoin="round"/>
    <path d="M 139.09962463378906 31.348804473876953 C 145.63800048828125 44.18462371826172 154.35293579101562 10.267309188842773 175.4800262451172 10.062731742858887" stroke-width="3.0" fill="none" stroke="rgb(0, 0, 0)" stroke-opacity="1.0" stroke-linecap="round" stroke-linejoin="round"/>
  </g>
</svg>
