<?xml version="1.0" ?>
<svg xmlns="http://www.w3.org/2000/svg" version="1.1" width="224" height="224">
  <defs/>
  <g>
    <path d="M 56.353519439697266 119.73042297363281 C 58.204158782958984 118.796630859375 48.6602668762207 111.46621704101562 43.125980377197266 95.53153228759766" stroke-width="3.0" fill="none" stroke="rgb(0, 0, 0)" stroke-opacity="1.0" stroke-linecap="round" stroke-linejoin="round"/>
    <path d="M 182.80775451660156 123.82373046875 C 184.5876922607422 107.01483154296875 185.59518432617188 110.2999496459961 187.79946899414062 117.44214630126953" stroke-width="3.0" fill="none" stroke="rgb(0, 0, 0)" stroke-opacity="1.0" stroke-linecap="round" stroke-linejoin="round"/>
    <path d="M 49.57582092285156 105.88186645507812 C 53.44735336303711 110.40164947509766 49.62800598144531 104.70445251464844 50.60997772216797 110.6692886352539" stroke-width="3.0" fill="none" stroke="rgb(0, 0, 0)" stroke-opacity="1.0" stroke-linecap="round" stroke-linejoin="round"/>
    <path d="M 183.01882934570312 99.59184265136719 C 159.02011108398438 92.84026336669922 173.49298095703125 82.02034759521484 194.1879119873047 112.3577651977539" stroke-width="3.0" fill="none" stroke="rgb(0, 0, 0)" stroke-opacity="1.0" stroke-linecap="round" stroke-linejoin="round"/>
    <path d="M 184.4647674560547 71.4871826171875 C 180.91819763183594 79.2020492553711 171.36306762695312 73.5528793334961 185.08978271484375 67.66874694824219" stroke-width="3.0" fill="none" stroke="rgb(0, 0, 0)" stroke-opacity="1.0" stroke-linecap="round" stroke-linejoin="round"/>
    <path d="M 129.724609375 100.02166748046875 C 128.89491271972656 111.55657196044922 116.66735076904297 100.99476623535156 133.84231567382812 104.7215347290039" stroke-width="3.0" fill="none" stroke="rgb(0, 0, 0)" stroke-opacity="1.0" stroke-linecap="round" stroke-linejoin="round"/>
    <path d="M 172.9652557373047 83.84652709960938 C 195.4983673095703 63.039676666259766 186.18936157226562 68.42229461669922 159.81808471679688 85.90312957763672" stroke-width="3.0" fill="none" stroke="rgb(0, 0, 0)" stroke-opacity="1.0" stroke-linecap="round" stroke-linejoin="round"/>
    <path d="M 56.92002868652344 184.28277587890625 C 38.72989273071289 152.39805603027344 48.51304244995117 161.71295166015625 43.95048904418945 161.1869659423828" stroke-width="3.0" fill="none" stroke="rgb(0, 0, 0)" stroke-opacity="1.0" stroke-linecap="round" stroke-linejoin="round"/>
    <path d="M 67.36273193359375 190.5769805908203 C 91.72506713867188 197.89892578125 114.25979614257812 194.60118103027344 100.26371765136719 189.62948608398438" stroke-width="3.0" fill="none" stroke="rgb(0, 0, 0)" stroke-opacity="1.0" stroke-linecap="round" stroke-linejoin="round"/>
    <path d="M 90.5758056640625 24.971834182739258 C 91.49333190917969 57.235267639160156 93.33299255371094 30.09697914123535 91.59579467773438 51.55618667602539" stroke-width="3.0" fill="none" stroke="rgb(0, 0, 0)" stroke-opacity="1.0" stroke-linecap="round" stroke-linejoin="round"/>
    <path d="M 60.80709457397461 127.3232650756836 C 69.74115753173828 141.90184020996094 81.04522705078125 145.12875366210938 82.91686248779297 147.24220275878906" stroke-width="3.0" fill="none" stroke="rgb(0, 0, 0)" stroke-opacity="1.0" stroke-linecap="round" stroke-linejoin="round"/>
    <path d="M 166.1326141357422 76.94749450683594 C 187.76951599121094 71.50828552246094 170.6709747314453 81.81629943847656 148.45071411132812 89.83292388916016" stroke-width="3.0" fill="none" stroke="rgb(0, 0, 0)" stroke-opacity="1.0" stroke-linecap="round" stroke-linejoin="round"/>
    <path d="M 158.63796997070312 101.32598876953125 C 172.9650115966797 101.2508316040039 165.6234588623047 103.954833984375 186.7830352783203 106.04792785644531" stroke-width="3.0" fill="none" stroke="rgb(0, 0, 0)" stroke-opacity="1.0" stroke-linecap="round" stroke-linejoin="round"/>
    <path d="M 89.13585662841797 164.117431640625 C 102.86309814453125 180.47689819335938 97.35916137695312 185.25668334960938 103.12191772460938 190.62074279785156" stroke-width="3.0" fill="none" stroke="rgb(0, 0, 0)" stroke-opacity="1.0" stroke-linecap="round" stroke-linejoin="round"/>
    <path d="M 172.25335693359375 8.063231468200684 C 185.6968231201172 1.0998787879943848 182.63351440429688 23.632492065429688 182.9183349609375 63.86548614501953" stroke-width="3.0" fill="none" stroke="rgb(0, 0, 0)" stroke-opacity="1.0" stroke-linecap="round" stroke-linejoin="round"/>
    <path d="M 128.50137329101562 32.75304412841797 C 125.7384033203125 64.29541015625 126.44544982910156 43.95403289794922 128.6006622314453 61.332603454589844" stroke-width="3.0" fill="none" stroke="rgb(0, 0, 0)" stroke-opacity="1.0" stroke-linecap="round" stroke-linejoin="round"/>
    <path d="M 97.39569091796875 50.78281021118164 C 72.75151824951172 -3.3494460582733154 88.34867858886719 4.752913475036621 105.19580841064453 44.15806579589844" stroke-width="3.0" fill="none" stroke="rgb(0, 0, 0)" stroke-opacity="1.0" stroke-linecap="round" stroke-linejoin="round"/>
    <path d="M 46.43171310424805 169.9030303955078 C 40.434295654296875 159.77537536621094 52.408817291259766 161.38177490234375 45.11669158935547 163.98092651367188" stroke-width="3.0" fill="none" stroke="rgb(0, 0, 0)" stroke-opacity="1.0" stroke-linecap="round" stroke-linejoin="round"/>
    <path d="M 34.20482635498047 109.00949096679688 C 27.356454849243164 129.2015380859375 35.72682571411133 140.1292724609375 43.54489517211914 158.57179260253906" stroke-width="3.0" fill="none" stroke="rgb(0, 0, 0)" stroke-opacity="1.0" stroke-linecap="round" stroke-linejoin="round"/>
    <path d="M 78.15052032470703 154.18251037597656 C 89.36956024169922 163.45196533203125 90.03780364990234 166.7671661376953 83.32444763183594 159.50482177734375" stroke-width="3.0" fill="none" stroke="rgb(0, 0, 0)" stroke-opacity="1.0" stroke-linecap="round" stroke-linejoin="round"/>
    <path d="M 77.18244171142578 194.2840118408203 C 48.634521484375 179.3529815673828 71.39962768554688 191.55474853515625 47.64027404785156 174.68826293945312" stroke-width="3.0" fill="none" stroke="rgb(0, 0, 0)" stroke-opacity="1.0" stroke-linecap="round" stroke-linejoin="round"/>
    <path d="M 42.41942596435547 156.96475219726562 C 46.054969787597656 169.3140869140625 42.61359786987305 155.0060272216797 38.674285888671875 144.24937438964844" stroke-width="3.0" fill="none" stroke="rgb(0, 0, 0)" stroke-opacity="1.0" stroke-linecap="round" stroke-linejoin="round"/>
    <path d="M 65.24674987792969 58.87145233154297 C 46.25277328491211 72.6097412109375 48.36076736450195 72.69822692871094 34.07111358642578 105.25056457519531" stroke-width="3.0" fill="none" stroke="rgb(0, 0, 0)" stroke-opacity="1.0" stroke-linecap="round" stroke-linejoin="round"/>
    <path d="M 145.59437561035156 158.6001739501953 C 136.54733276367188 162.150634765625 128.07562255859375 151.37025451660156 137.86375427246094 163.2708740234375" stroke-width="3.0" fill="none" stroke="rgb(0, 0, 0)" stroke-opacity="1.0" stroke-linecap="round" stroke-linejoin="round"/>
    <path d="M 141.37522888183594 32.32279968261719 C 151.1473388671875 57.79526901245117 132.87643432617188 49.8902587890625 142.630859375 82.50801849365234" stroke-width="3.0" fill="none" stroke="rgb(0, 0, 0)" stroke-opacity="1.0" stroke-linecap="round" stroke-linejoin="round"/>
    <path d="M 144.13397216796875 100.36100006103516 C 131.40536499023438 113.26453399658203 113.96725463867188 105.1549072265625 128.1044464111328 102.67359161376953" stroke-width="3.0" fill="none" stroke="rgb(0, 0, 0)" stroke-opacity="1.0" stroke-linecap="round" stroke-linejoin="round"/>
    <path d="M 139.62596130371094 75.07137298583984 C 144.74917602539062 52.053871154785156 150.64202880859375 56.598365783691406 153.5314178466797 45.95918273925781" stroke-width="3.0" fill="none" stroke="rgb(0, 0, 0)" stroke-opacity="1.0" stroke-linecap="round" stroke-linejoin="round"/>
    <path d="M 112.66287994384766 193.10887145996094 C 88.04385375976562 184.2073974609375 105.84573364257812 208.69163513183594 133.0564422607422 177.16802978515625" stroke-width="3.0" fill="none" stroke="rgb(0, 0, 0)" stroke-opacity="1.0" stroke-linecap="round" stroke-linejoin="round"/>
    <path d="M 184.66824340820312 86.66380310058594 C 155.3029022216797 83.08280944824219 156.7715301513672 89.85553741455078 177.14476013183594 83.60845947265625" stroke-width="3.0" fill="none" stroke="rgb(0, 0, 0)" stroke-opacity="1.0" stroke-linecap="round" stroke-linejoin="round"/>
    <path d="M 169.86192321777344 85.94638061523438 C 193.49452209472656 76.24263000488281 198.3815460205078 82.0367660522461 163.1300506591797 81.0401382446289" stroke-width="3.0" fill="none" stroke="rgb(0, 0, 0)" stroke-opacity="1.0" stroke-linecap="round" stroke-linejoin="round"/>
    <path d="M 112.0966567993164 77.2375717163086 C 87.33710479736328 68.3780746459961 137.60411071777344 71.94963836669922 108.99896240234375 78.62801361083984" stroke-width="3.0" fill="none" stroke="rgb(0, 0, 0)" stroke-opacity="1.0" stroke-linecap="round" stroke-linejoin="round"/>
    <path d="M 137.11964416503906 158.80615234375 C 140.85366821289062 156.72280883789062 128.03790283203125 157.17654418945312 103.96553802490234 141.14019775390625" stroke-width="3.0" fill="none" stroke="rgb(0, 0, 0)" stroke-opacity="1.0" stroke-linecap="round" stroke-linejoin="round"/>
    <path d="M 124.26213073730469 88.75345611572266 C 139.2583465576172 101.0993423461914 138.4650115966797 74.48809814453125 129.420654296875 96.8860855102539" stroke-width="3.0" fill="none" stroke="rgb(0, 0, 0)" stroke-opacity="1.0" stroke-linecap="round" stroke-linejoin="round"/>
    <path d="M 186.04428100585938 95.6360855102539 C 170.3863067626953 85.58214569091797 186.67124938964844 94.74449157714844 142.4935302734375 87.68255615234375" stroke-width="3.0" fill="none" stroke="rgb(0, 0, 0)" stroke-opacity="1.0" stroke-linecap="round" stroke-linejoin="round"/>
    <path d="M 85.66930389404297 12.516826629638672 C 109.87319946289062 19.187192916870117 114.99473571777344 35.50913619995117 121.63477325439453 32.830997467041016" stroke-width="3.0" fill="none" stroke="rgb(0, 0, 0)" stroke-opacity="1.0" stroke-linecap="round" stroke-linejoin="round"/>
    <path d="M 52.592994689941406 112.05525970458984 C 49.065452575683594 109.60574340820312 61.168766021728516 121.13127136230469 52.220523834228516 113.13617706298828" stroke-width="3.0" fill="none" stroke="rgb(0, 0, 0)" stroke-opacity="1.0" stroke-linecap="round" stroke-linejoin="round"/>
    <path d="M 117.00133514404297 103.9354476928711 C 90.67589569091797 101.9920654296875 127.1123275756836 106.51539611816406 99.75603485107422 97.01065063476562" stroke-width="3.0" fill="none" stroke="rgb(0, 0, 0)" stroke-opacity="1.0" stroke-linecap="round" stroke-linejoin="round"/>
    <path d="M 31.383031845092773 118.19392395019531 C 34.97270202636719 95.9672622680664 35.36628723144531 106.31303405761719 32.138580322265625 114.46217346191406" stroke-width="3.0" fill="none" stroke="rgb(0, 0, 0)" stroke-opacity="1.0" stroke-linecap="round" stroke-linejoin="round"/>
    <path d="M 85.2415771484375 195.01870727539062 C 73.94388580322266 194.42893981933594 74.80756378173828 191.1908721923828 90.28972625732422 193.59011840820312" stroke-width="3.0" fill="none" stroke="rgb(0, 0, 0)" stroke-opacity="1.0" stroke-linecap="round" stroke-linejoin="round"/>
    <path d="M 163.24827575683594 132.9604034423828 C 206.09002685546875 114.44560241699219 176.99801635742188 95.98747253417969 152.11904907226562 94.91635131835938" stroke-width="3.0" fill="none" stroke="rgb(0, 0, 0)" stroke-opacity="1.0" stroke-linecap="round" stroke-linejoin="round"/>
    <path d="M 154.21983337402344 75.21923065185547 C 131.6184844970703 64.30809783935547 164.4765167236328 92.09237670898438 152.96995544433594 72.01183319091797" stroke-width="3.0" fill="none" stroke="rgb(0, 0, 0)" stroke-opacity="1.0" stroke-linecap="round" stroke-linejoin="round"/>
    <path d="M 145.49658203125 77.52381896972656 C 146.1049041748047 54.84739685058594 170.66859436035156 79.85745239257812 185.25428771972656 64.99974060058594" stroke-width="3.0" fill="none" stroke="rgb(0, 0, 0)" stroke-opacity="1.0" stroke-linecap="round" stroke-linejoin="round"/>
    <path d="M 149.54541015625 99.73566436767578 C 155.59951782226562 97.7881088256836 169.52256774902344 109.50055694580078 183.64962768554688 113.33799743652344" stroke-width="3.0" fill="none" stroke="rgb(0, 0, 0)" stroke-opacity="1.0" stroke-linecap="round" stroke-linejoin="round"/>
    <path d="M 177.69232177734375 16.46977424621582 C 174.55532836914062 43.1358528137207 174.3285675048828 26.307357788085938 165.2129669189453 35.84870147705078" stroke-width="3.0" fill="none" stroke="rgb(0, 0, 0)" stroke-opacity="1.0" stroke-linecap="round" stroke-linejoin="round"/>
    <path d="M 125.1265869140625 104.24401092529297 C 148.08457946777344 107.85123443603516 132.01756286621094 92.53954315185547 111.73905944824219 110.27510833740234" stroke-width="3.0" fill="none" stroke="rgb(0, 0, 0)" stroke-opacity="1.0" stroke-linecap="round" stroke-linejoin="round"/>
    <path d="M 49.695945739746094 106.72224426269531 C 52.149654388427734 111.36870574951172 47.984500885009766 105.82687377929688 61.498779296875 129.28884887695312" stroke-width="3.0" fill="none" stroke="rgb(0, 0, 0)" stroke-opacity="1.0" stroke-linecap="round" stroke-linejoin="round"/>
    <path d="M 122.81687927246094 82.54889678955078 C 129.42376708984375 61.52922439575195 110.78857421875 50.22766876220703 119.18482971191406 37.56597137451172" stroke-width="3.0" fill="none" stroke="rgb(0, 0, 0)" stroke-opacity="1.0" stroke-linecap="round" stroke-linejoin="round"/>
    <path d="M 146.3531494140625 31.48550796508789 C 152.99327087402344 31.367036819458008 150.59371948242188 20.17701530456543 173.85838317871094 7.0982794761657715" stroke-width="3.0" fill="none" stroke="rgb(0, 0, 0)" stroke-opacity="1.0" stroke-linecap="round" stroke-linejoin="round"/>
  </g>
</svg>
