<?xml version="1.0" ?>
<svg xmlns="http://www.w3.org/2000/svg" version="1.1" width="224" height="224">
  <defs/>
  <g>
    <path d="M 58.126869201660156 99.94999694824219 C 60.70811080932617 97.3681869506836 49.8282585144043 92.70167541503906 55.645755767822266 70.52706909179688" stroke-width="3.0" fill="none" stroke="rgb(0, 0, 0)" stroke-opacity="1.0" stroke-linecap="round" stroke-linejoin="round"/>
    <path d="M 192.97181701660156 108.47757720947266 C 185.5421905517578 110.21356964111328 193.0016326904297 84.65727996826172 183.29446411132812 123.05818939208984" stroke-width="3.0" fill="none" stroke="rgb(0, 0, 0)" stroke-opacity="1.0" stroke-linecap="round" stroke-linejoin="round"/>
    <path d="M 61.75450897216797 118.42355346679688 C 61.090789794921875 93.61581420898438 54.73713302612305 134.77700805664062 66.17052459716797 126.45405578613281" stroke-width="3.0" fill="none" stroke="rgb(0, 0, 0)" stroke-opacity="1.0" stroke-linecap="round" stroke-linejoin="round"/>
    <path d="M 188.44808959960938 94.9599380493164 C 150.33233642578125 73.33997344970703 185.02587890625 78.20983123779297 188.1110382080078 102.15702819824219" stroke-width="3.0" fill="none" stroke="rgb(0, 0, 0)" stroke-opacity="1.0" stroke-linecap="round" stroke-linejoin="round"/>
    <path d="M 178.2537078857422 53.252864837646484 C 191.36758422851562 94.45033264160156 178.80062866210938 95.52949523925781 180.02967834472656 71.32288360595703" stroke-width="3.0" fill="none" stroke="rgb(0, 0, 0)" stroke-opacity="1.0" stroke-linecap="round" stroke-linejoin="round"/>
    <path d="M 129.0092010498047 100.94226837158203 C 159.625244140625 113.56256103515625 98.01715850830078 101.64730072021484 134.35191345214844 103.62948608398438" stroke-width="3.0" fill="none" stroke="rgb(0, 0, 0)" stroke-opacity="1.0" stroke-linecap="round" stroke-linejoin="round"/>
    <path d="M 178.8277587890625 86.78356170654297 C 181.5464324951172 73.11737823486328 197.8970947265625 74.03782653808594 150.0148162841797 87.45283508300781" stroke-width="3.0" fill="none" stroke="rgb(0, 0, 0)" stroke-opacity="1.0" stroke-linecap="round" stroke-linejoin="round"/>
    <path d="M 65.36273956298828 191.54444885253906 C 38.429115295410156 167.37460327148438 50.71247100830078 170.35830688476562 49.83324432373047 174.272216796875" stroke-width="3.0" fill="none" stroke="rgb(0, 0, 0)" stroke-opacity="1.0" stroke-linecap="round" stroke-linejoin="round"/>
    <path d="M 57.93709945678711 182.9306640625 C 90.7904281616211 212.69554138183594 127.2408218383789 198.06820678710938 137.3540802001953 169.7037353515625" stroke-width="3.0" fill="none" stroke="rgb(0, 0, 0)" stroke-opacity="1.0" stroke-linecap="round" stroke-linejoin="round"/>
    <path d="M 80.54878234863281 17.817230224609375 C 91.89640045166016 72.77816772460938 88.27652740478516 4.270316123962402 86.59217834472656 58.23786926269531" stroke-width="3.0" fill="none" stroke="rgb(0, 0, 0)" stroke-opacity="1.0" stroke-linecap="round" stroke-linejoin="round"/>
    <path d="M 55.39363098144531 84.37548828125 C 60.52452850341797 140.5296173095703 72.91633605957031 137.0112762451172 61.813961029052734 122.54000854492188" stroke-width="3.0" fill="none" stroke="rgb(0, 0, 0)" stroke-opacity="1.0" stroke-linecap="round" stroke-linejoin="round"/>
    <path d="M 146.21298217773438 74.81873321533203 C 199.68959045410156 62.7123908996582 191.14727783203125 89.0179443359375 143.41729736328125 85.44458770751953" stroke-width="3.0" fill="none" stroke="rgb(0, 0, 0)" stroke-opacity="1.0" stroke-linecap="round" stroke-linejoin="round"/>
    <path d="M 151.3143310546875 93.65208435058594 C 181.83981323242188 94.99791717529297 181.25350952148438 89.96052551269531 197.3871612548828 113.29141998291016" stroke-width="3.0" fill="none" stroke="rgb(0, 0, 0)" stroke-opacity="1.0" stroke-linecap="round" stroke-linejoin="round"/>
    <path d="M 117.99414825439453 148.96188354492188 C 154.4768524169922 157.9358673095703 102.21367645263672 150.16421508789062 101.92984008789062 151.953857421875" stroke-width="3.0" fill="none" stroke="rgb(0, 0, 0)" stroke-opacity="1.0" stroke-linecap="round" stroke-linejoin="round"/>
    <path d="M 181.6652069091797 9.080507278442383 C 190.2477569580078 24.964786529541016 168.91073608398438 93.96147155761719 183.83021545410156 59.18539047241211" stroke-width="3.0" fill="none" stroke="rgb(0, 0, 0)" stroke-opacity="1.0" stroke-linecap="round" stroke-linejoin="round"/>
    <path d="M 136.97962951660156 32.875091552734375 C 108.42920684814453 21.538463592529297 138.286376953125 38.4392204284668 120.79458618164062 83.89277648925781" stroke-width="3.0" fill="none" stroke="rgb(0, 0, 0)" stroke-opacity="1.0" stroke-linecap="round" stroke-linejoin="round"/>
    <path d="M 103.51287841796875 52.57569122314453 C 63.613895416259766 -6.642737865447998 83.42401885986328 2.6058459281921387 122.08631134033203 31.416149139404297" stroke-width="3.0" fill="none" stroke="rgb(0, 0, 0)" stroke-opacity="1.0" stroke-linecap="round" stroke-linejoin="round"/>
    <path d="M 47.732666015625 169.35372924804688 C 42.042667388916016 159.75814819335938 39.39609909057617 153.8370819091797 48.361637115478516 171.2373504638672" stroke-width="3.0" fill="none" stroke="rgb(0, 0, 0)" stroke-opacity="1.0" stroke-linecap="round" stroke-linejoin="round"/>
    <path d="M 48.10116958618164 76.26453399658203 C 13.483940124511719 127.13622283935547 36.0481071472168 142.09771728515625 46.12105178833008 166.5796356201172" stroke-width="3.0" fill="none" stroke="rgb(0, 0, 0)" stroke-opacity="1.0" stroke-linecap="round" stroke-linejoin="round"/>
    <path d="M 66.83667755126953 134.70521545410156 C 125.71395111083984 159.1451873779297 91.60369873046875 150.74050903320312 84.96344757080078 142.2425079345703" stroke-width="3.0" fill="none" stroke="rgb(0, 0, 0)" stroke-opacity="1.0" stroke-linecap="round" stroke-linejoin="round"/>
    <path d="M 84.53337097167969 199.3752899169922 C 71.42692565917969 201.5802001953125 48.75017166137695 174.5115203857422 46.90111541748047 167.4191131591797" stroke-width="3.0" fill="none" stroke="rgb(0, 0, 0)" stroke-opacity="1.0" stroke-linecap="round" stroke-linejoin="round"/>
    <path d="M 47.74749755859375 170.53590393066406 C 64.72874450683594 198.9504852294922 48.85000991821289 171.1859588623047 40.381431579589844 153.21969604492188" stroke-width="3.0" fill="none" stroke="rgb(0, 0, 0)" stroke-opacity="1.0" stroke-linecap="round" stroke-linejoin="round"/>
    <path d="M 81.23680877685547 52.3770751953125 C 53.882110595703125 58.54692077636719 54.2125244140625 71.19676971435547 33.42960739135742 107.27928161621094" stroke-width="3.0" fill="none" stroke="rgb(0, 0, 0)" stroke-opacity="1.0" stroke-linecap="round" stroke-linejoin="round"/>
    <path d="M 160.52163696289062 138.20521545410156 C 102.8271484375 156.5570831298828 87.15774536132812 155.73855590820312 149.779296875 144.980224609375" stroke-width="3.0" fill="none" stroke="rgb(0, 0, 0)" stroke-opacity="1.0" stroke-linecap="round" stroke-linejoin="round"/>
    <path d="M 149.86361694335938 28.670602798461914 C 144.5055694580078 36.30435562133789 133.10292053222656 16.522619247436523 137.96435546875 83.38538360595703" stroke-width="3.0" fill="none" stroke="rgb(0, 0, 0)" stroke-opacity="1.0" stroke-linecap="round" stroke-linejoin="round"/>
    <path d="M 145.06446838378906 100.82867431640625 C 121.30104064941406 112.37799835205078 118.01728057861328 108.83198547363281 110.60707092285156 95.9033203125" stroke-width="3.0" fill="none" stroke="rgb(0, 0, 0)" stroke-opacity="1.0" stroke-linecap="round" stroke-linejoin="round"/>
    <path d="M 138.86834716796875 71.73308563232422 C 134.53009033203125 51.89542007446289 128.593017578125 75.23303985595703 137.2484588623047 79.55745697021484" stroke-width="3.0" fill="none" stroke="rgb(0, 0, 0)" stroke-opacity="1.0" stroke-linecap="round" stroke-linejoin="round"/>
    <path d="M 141.58985900878906 161.91897583007812 C 127.77960968017578 178.4294891357422 144.8408660888672 170.84127807617188 146.21484375 145.76223754882812" stroke-width="3.0" fill="none" stroke="rgb(0, 0, 0)" stroke-opacity="1.0" stroke-linecap="round" stroke-linejoin="round"/>
    <path d="M 197.79714965820312 94.54828643798828 C 164.56080627441406 71.62328338623047 164.39170837402344 80.70863342285156 181.83447265625 95.7388687133789" stroke-width="3.0" fill="none" stroke="rgb(0, 0, 0)" stroke-opacity="1.0" stroke-linecap="round" stroke-linejoin="round"/>
    <path d="M 155.63966369628906 77.73837280273438 C 131.7034149169922 52.896400451660156 198.7570037841797 94.79400634765625 181.31103515625 62.26428985595703" stroke-width="3.0" fill="none" stroke="rgb(0, 0, 0)" stroke-opacity="1.0" stroke-linecap="round" stroke-linejoin="round"/>
    <path d="M 116.47957611083984 79.3132553100586 C 83.44448852539062 70.13584899902344 143.899169921875 75.72361755371094 105.73017120361328 81.18751525878906" stroke-width="3.0" fill="none" stroke="rgb(0, 0, 0)" stroke-opacity="1.0" stroke-linecap="round" stroke-linejoin="round"/>
    <path d="M 167.38490295410156 126.81449127197266 C 148.4148712158203 161.44259643554688 105.24181365966797 147.36334228515625 99.76329803466797 149.36874389648438" stroke-width="3.0" fill="none" stroke="rgb(0, 0, 0)" stroke-opacity="1.0" stroke-linecap="round" stroke-linejoin="round"/>
    <path d="M 123.29349517822266 91.94821166992188 C 144.14703369140625 102.73614501953125 132.0877227783203 75.7138900756836 127.43383026123047 106.57083892822266" stroke-width="3.0" fill="none" stroke="rgb(0, 0, 0)" stroke-opacity="1.0" stroke-linecap="round" stroke-linejoin="round"/>
    <path d="M 189.9912872314453 106.70310974121094 C 155.38926696777344 90.93101501464844 171.9618377685547 95.64604949951172 142.36265563964844 86.39818572998047" stroke-width="3.0" fill="none" stroke="rgb(0, 0, 0)" stroke-opacity="1.0" stroke-linecap="round" stroke-linejoin="round"/>
    <path d="M 82.80552673339844 14.472893714904785 C 119.99432373046875 26.366920471191406 96.65629577636719 32.883602142333984 137.47555541992188 29.42732048034668" stroke-width="3.0" fill="none" stroke="rgb(0, 0, 0)" stroke-opacity="1.0" stroke-linecap="round" stroke-linejoin="round"/>
    <path d="M 61.44306945800781 118.17835998535156 C 62.62375259399414 109.01300048828125 59.50941848754883 119.45025634765625 67.24221801757812 126.62664794921875" stroke-width="3.0" fill="none" stroke="rgb(0, 0, 0)" stroke-opacity="1.0" stroke-linecap="round" stroke-linejoin="round"/>
    <path d="M 135.0597686767578 107.0191421508789 C 120.88997650146484 90.97541046142578 119.32103729248047 118.3226089477539 109.34234619140625 88.9944076538086" stroke-width="3.0" fill="none" stroke="rgb(0, 0, 0)" stroke-opacity="1.0" stroke-linecap="round" stroke-linejoin="round"/>
    <path d="M 31.469039916992188 134.376953125 C 26.254749298095703 117.62397003173828 32.16816329956055 85.27767944335938 59.62693786621094 65.30348205566406" stroke-width="3.0" fill="none" stroke="rgb(0, 0, 0)" stroke-opacity="1.0" stroke-linecap="round" stroke-linejoin="round"/>
    <path d="M 105.6277084350586 199.33901977539062 C 67.62447357177734 201.0486297607422 71.72439575195312 199.06288146972656 100.32694244384766 199.07479858398438" stroke-width="3.0" fill="none" stroke="rgb(0, 0, 0)" stroke-opacity="1.0" stroke-linecap="round" stroke-linejoin="round"/>
    <path d="M 170.3622589111328 129.3155975341797 C 205.4212188720703 112.33418273925781 186.02488708496094 93.00761413574219 155.9798583984375 86.45362854003906" stroke-width="3.0" fill="none" stroke="rgb(0, 0, 0)" stroke-opacity="1.0" stroke-linecap="round" stroke-linejoin="round"/>
    <path d="M 148.63400268554688 67.92697143554688 C 136.01321411132812 85.71991729736328 177.0345001220703 72.87322998046875 147.29566955566406 71.82434844970703" stroke-width="3.0" fill="none" stroke="rgb(0, 0, 0)" stroke-opacity="1.0" stroke-linecap="round" stroke-linejoin="round"/>
    <path d="M 141.3302764892578 75.18793487548828 C 139.97726440429688 39.047691345214844 193.8997039794922 114.08174133300781 180.52040100097656 41.84295654296875" stroke-width="3.0" fill="none" stroke="rgb(0, 0, 0)" stroke-opacity="1.0" stroke-linecap="round" stroke-linejoin="round"/>
    <path d="M 147.72706604003906 96.77425384521484 C 169.0731201171875 102.55776977539062 173.4253692626953 99.26883697509766 184.51126098632812 116.01556396484375" stroke-width="3.0" fill="none" stroke="rgb(0, 0, 0)" stroke-opacity="1.0" stroke-linecap="round" stroke-linejoin="round"/>
    <path d="M 179.21128845214844 22.752363204956055 C 178.01025390625 49.30352020263672 168.3762969970703 22.020893096923828 154.5067138671875 32.95330810546875" stroke-width="3.0" fill="none" stroke="rgb(0, 0, 0)" stroke-opacity="1.0" stroke-linecap="round" stroke-linejoin="round"/>
    <path d="M 120.86445617675781 104.18204498291016 C 145.08749389648438 105.17979431152344 133.30938720703125 115.973876953125 119.65254974365234 104.97076416015625" stroke-width="3.0" fill="none" stroke="rgb(0, 0, 0)" stroke-opacity="1.0" stroke-linecap="round" stroke-linejoin="round"/>
    <path d="M 65.28642272949219 118.51334381103516 C 55.64052963256836 113.26923370361328 62.15537643432617 109.77069854736328 62.96759033203125 118.82052612304688" stroke-width="3.0" fill="none" stroke="rgb(0, 0, 0)" stroke-opacity="1.0" stroke-linecap="round" stroke-linejoin="round"/>
    <path d="M 123.2285385131836 75.3835220336914 C 119.1846694946289 42.09572219848633 110.56238555908203 58.90682601928711 114.38729095458984 35.84138870239258" stroke-width="3.0" fill="none" stroke="rgb(0, 0, 0)" stroke-opacity="1.0" stroke-linecap="round" stroke-linejoin="round"/>
    <path d="M 151.3086700439453 25.71013832092285 C 145.0260772705078 36.05461502075195 166.44447326660156 5.609964370727539 178.46502685546875 8.342448234558105" stroke-width="3.0" fill="none" stroke="rgb(0, 0, 0)" stroke-opacity="1.0" stroke-linecap="round" stroke-linejoin="round"/>
  </g>
</svg>
