<?xml version="1.0" ?>
<svg xmlns="http://www.w3.org/2000/svg" version="1.1" width="224" height="224">
  <defs/>
  <g>
    <path d="M 62.226768493652344 95.3029556274414 C 64.9810562133789 83.12982177734375 55.541358947753906 82.89530944824219 72.81724548339844 58.34423828125" stroke-width="3.0" fill="none" stroke="rgb(0, 0, 0)" stroke-opacity="1.0" stroke-linecap="round" stroke-linejoin="round"/>
    <path d="M 195.35043334960938 112.87711334228516 C 183.97979736328125 100.11476135253906 187.45025634765625 95.67032623291016 179.1240692138672 128.15463256835938" stroke-width="3.0" fill="none" stroke="rgb(0, 0, 0)" stroke-opacity="1.0" stroke-linecap="round" stroke-linejoin="round"/>
    <path d="M 60.543601989746094 119.46501922607422 C 53.3302116394043 88.93875122070312 62.772666931152344 123.86174011230469 65.42119598388672 119.0612564086914" stroke-width="3.0" fill="none" stroke="rgb(0, 0, 0)" stroke-opacity="1.0" stroke-linecap="round" stroke-linejoin="round"/>
    <path d="M 186.10311889648438 93.573974609375 C 156.36241149902344 69.14599609375 182.37229919433594 75.15040588378906 189.38511657714844 98.4885482788086" stroke-width="3.0" fill="none" stroke="rgb(0, 0, 0)" stroke-opacity="1.0" stroke-linecap="round" stroke-linejoin="round"/>
    <path d="M 177.77687072753906 47.16134262084961 C 194.40220642089844 97.36334228515625 176.90682983398438 108.37899017333984 179.7462921142578 57.453712463378906" stroke-width="3.0" fill="none" stroke="rgb(0, 0, 0)" stroke-opacity="1.0" stroke-linecap="round" stroke-linejoin="round"/>
    <path d="M 130.50808715820312 97.30582427978516 C 156.81900024414062 114.9052505493164 104.80255126953125 99.64234924316406 135.75045776367188 106.44251251220703" stroke-width="3.0" fill="none" stroke="rgb(0, 0, 0)" stroke-opacity="1.0" stroke-linecap="round" stroke-linejoin="round"/>
    <path d="M 187.1670379638672 88.86039733886719 C 171.69810485839844 87.88504028320312 186.4625244140625 72.70545959472656 154.37144470214844 88.57022094726562" stroke-width="3.0" fill="none" stroke="rgb(0, 0, 0)" stroke-opacity="1.0" stroke-linecap="round" stroke-linejoin="round"/>
    <path d="M 66.56600189208984 190.69517517089844 C 42.59172058105469 167.59861755371094 46.10554504394531 168.9793243408203 62.35517883300781 187.6276092529297" stroke-width="3.0" fill="none" stroke="rgb(0, 0, 0)" stroke-opacity="1.0" stroke-linecap="round" stroke-linejoin="round"/>
    <path d="M 56.148048400878906 184.7696990966797 C 83.49343872070312 210.64569091796875 136.65394592285156 194.83004760742188 137.7647705078125 163.3366241455078" stroke-width="3.0" fill="none" stroke="rgb(0, 0, 0)" stroke-opacity="1.0" stroke-linecap="round" stroke-linejoin="round"/>
    <path d="M 81.55018615722656 13.788939476013184 C 92.21459197998047 77.49818420410156 87.5198745727539 7.250255584716797 90.09709167480469 51.71965408325195" stroke-width="3.0" fill="none" stroke="rgb(0, 0, 0)" stroke-opacity="1.0" stroke-linecap="round" stroke-linejoin="round"/>
    <path d="M 60.360721588134766 92.23133087158203 C 49.68785095214844 129.98988342285156 74.80686950683594 133.08657836914062 61.17267608642578 118.39230346679688" stroke-width="3.0" fill="none" stroke="rgb(0, 0, 0)" stroke-opacity="1.0" stroke-linecap="round" stroke-linejoin="round"/>
    <path d="M 145.54510498046875 72.86726379394531 C 193.26393127441406 65.00257110595703 202.67672729492188 86.55532836914062 140.3816680908203 87.9151382446289" stroke-width="3.0" fill="none" stroke="rgb(0, 0, 0)" stroke-opacity="1.0" stroke-linecap="round" stroke-linejoin="round"/>
    <path d="M 148.9813690185547 97.00386047363281 C 187.2994384765625 98.0802993774414 175.55897521972656 99.47500610351562 193.43670654296875 114.89630126953125" stroke-width="3.0" fill="none" stroke="rgb(0, 0, 0)" stroke-opacity="1.0" stroke-linecap="round" stroke-linejoin="round"/>
    <path d="M 131.71107482910156 148.0902862548828 C 169.7368621826172 156.925048828125 97.3338851928711 145.50912475585938 101.18656158447266 154.149169921875" stroke-width="3.0" fill="none" stroke="rgb(0, 0, 0)" stroke-opacity="1.0" stroke-linecap="round" stroke-linejoin="round"/>
    <path d="M 178.4539031982422 9.526350021362305 C 188.3492889404297 17.11588478088379 170.04864501953125 98.79644012451172 182.72816467285156 62.547523498535156" stroke-width="3.0" fill="none" stroke="rgb(0, 0, 0)" stroke-opacity="1.0" stroke-linecap="round" stroke-linejoin="round"/>
    <path d="M 146.7542266845703 29.54294776916504 C 109.59883880615234 26.905467987060547 133.82325744628906 24.724164962768555 130.66665649414062 63.548118591308594" stroke-width="3.0" fill="none" stroke="rgb(0, 0, 0)" stroke-opacity="1.0" stroke-linecap="round" stroke-linejoin="round"/>
    <path d="M 103.49662780761719 49.3098258972168 C 64.18953704833984 -9.957379341125488 82.62492370605469 2.0675532817840576 119.49772644042969 33.435546875" stroke-width="3.0" fill="none" stroke="rgb(0, 0, 0)" stroke-opacity="1.0" stroke-linecap="round" stroke-linejoin="round"/>
    <path d="M 43.2288818359375 161.9786834716797 C 46.90470504760742 156.10879516601562 42.134159088134766 153.2970428466797 53.22457504272461 177.89939880371094" stroke-width="3.0" fill="none" stroke="rgb(0, 0, 0)" stroke-opacity="1.0" stroke-linecap="round" stroke-linejoin="round"/>
    <path d="M 59.89309310913086 65.94519805908203 C 21.769094467163086 118.83769989013672 43.010650634765625 141.35308837890625 45.96761703491211 162.64712524414062" stroke-width="3.0" fill="none" stroke="rgb(0, 0, 0)" stroke-opacity="1.0" stroke-linecap="round" stroke-linejoin="round"/>
    <path d="M 70.17508697509766 136.59942626953125 C 136.81484985351562 167.5301513671875 106.63484191894531 151.24717712402344 86.70128631591797 141.6873321533203" stroke-width="3.0" fill="none" stroke="rgb(0, 0, 0)" stroke-opacity="1.0" stroke-linecap="round" stroke-linejoin="round"/>
    <path d="M 87.67853546142578 198.04774475097656 C 66.4243392944336 197.45465087890625 44.05169677734375 177.19815063476562 41.764686584472656 153.0985565185547" stroke-width="3.0" fill="none" stroke="rgb(0, 0, 0)" stroke-opacity="1.0" stroke-linecap="round" stroke-linejoin="round"/>
    <path d="M 49.200584411621094 173.9136199951172 C 70.79209899902344 198.1705322265625 48.883445739746094 173.93240356445312 38.990447998046875 145.4438934326172" stroke-width="3.0" fill="none" stroke="rgb(0, 0, 0)" stroke-opacity="1.0" stroke-linecap="round" stroke-linejoin="round"/>
    <path d="M 84.24488067626953 54.27667999267578 C 59.16963195800781 57.3421745300293 63.58799743652344 67.17567443847656 37.96717071533203 113.26344299316406" stroke-width="3.0" fill="none" stroke="rgb(0, 0, 0)" stroke-opacity="1.0" stroke-linecap="round" stroke-linejoin="round"/>
    <path d="M 149.73851013183594 144.74295043945312 C 111.23260498046875 159.4700927734375 70.22258758544922 145.52828979492188 141.86172485351562 149.9574432373047" stroke-width="3.0" fill="none" stroke="rgb(0, 0, 0)" stroke-opacity="1.0" stroke-linecap="round" stroke-linejoin="round"/>
    <path d="M 149.602294921875 28.63915252685547 C 142.84103393554688 34.423179626464844 137.5966796875 10.107259750366211 137.64651489257812 77.04753112792969" stroke-width="3.0" fill="none" stroke="rgb(0, 0, 0)" stroke-opacity="1.0" stroke-linecap="round" stroke-linejoin="round"/>
    <path d="M 146.66390991210938 100.68892669677734 C 130.9152069091797 114.48670196533203 124.27574920654297 105.95069122314453 116.32574462890625 98.5348892211914" stroke-width="3.0" fill="none" stroke="rgb(0, 0, 0)" stroke-opacity="1.0" stroke-linecap="round" stroke-linejoin="round"/>
    <path d="M 136.37814331054688 74.20015716552734 C 142.50534057617188 52.07604217529297 136.286376953125 68.50875091552734 138.2635955810547 70.37971496582031" stroke-width="3.0" fill="none" stroke="rgb(0, 0, 0)" stroke-opacity="1.0" stroke-linecap="round" stroke-linejoin="round"/>
    <path d="M 136.2973175048828 163.3369140625 C 131.8313751220703 167.60049438476562 142.2099151611328 162.994140625 144.910888671875 146.61239624023438" stroke-width="3.0" fill="none" stroke="rgb(0, 0, 0)" stroke-opacity="1.0" stroke-linecap="round" stroke-linejoin="round"/>
    <path d="M 194.99842834472656 94.52965545654297 C 163.87351989746094 66.93705749511719 185.32376098632812 61.99863815307617 185.2335662841797 97.33485412597656" stroke-width="3.0" fill="none" stroke="rgb(0, 0, 0)" stroke-opacity="1.0" stroke-linecap="round" stroke-linejoin="round"/>
    <path d="M 152.06353759765625 77.39825439453125 C 119.76110076904297 53.41464614868164 211.59764099121094 85.07302856445312 179.85107421875 64.23369598388672" stroke-width="3.0" fill="none" stroke="rgb(0, 0, 0)" stroke-opacity="1.0" stroke-linecap="round" stroke-linejoin="round"/>
    <path d="M 115.51470184326172 81.27313232421875 C 91.54853057861328 71.09452819824219 135.7819366455078 75.94638061523438 109.23662567138672 81.73078918457031" stroke-width="3.0" fill="none" stroke="rgb(0, 0, 0)" stroke-opacity="1.0" stroke-linecap="round" stroke-linejoin="round"/>
    <path d="M 168.497802734375 130.180419921875 C 158.60946655273438 156.0384979248047 89.12159729003906 150.53147888183594 93.67414093017578 148.233642578125" stroke-width="3.0" fill="none" stroke="rgb(0, 0, 0)" stroke-opacity="1.0" stroke-linecap="round" stroke-linejoin="round"/>
    <path d="M 123.1579360961914 90.27767944335938 C 142.1753387451172 98.66275787353516 130.21517944335938 73.13020324707031 129.08477783203125 108.3612060546875" stroke-width="3.0" fill="none" stroke="rgb(0, 0, 0)" stroke-opacity="1.0" stroke-linecap="round" stroke-linejoin="round"/>
    <path d="M 187.54656982421875 113.33763885498047 C 168.3472442626953 86.9908676147461 169.77001953125 96.1725845336914 140.80908203125 83.89835357666016" stroke-width="3.0" fill="none" stroke="rgb(0, 0, 0)" stroke-opacity="1.0" stroke-linecap="round" stroke-linejoin="round"/>
    <path d="M 93.28340911865234 21.06182861328125 C 126.89962768554688 26.641725540161133 84.29120635986328 29.3024845123291 151.27764892578125 27.279916763305664" stroke-width="3.0" fill="none" stroke="rgb(0, 0, 0)" stroke-opacity="1.0" stroke-linecap="round" stroke-linejoin="round"/>
    <path d="M 59.7142448425293 109.24585723876953 C 64.85528564453125 101.40376281738281 53.39729309082031 118.39817810058594 69.81880950927734 133.73477172851562" stroke-width="3.0" fill="none" stroke="rgb(0, 0, 0)" stroke-opacity="1.0" stroke-linecap="round" stroke-linejoin="round"/>
    <path d="M 133.8291473388672 107.35286712646484 C 125.08869171142578 86.58756256103516 119.37181091308594 121.33076477050781 114.61589813232422 87.94476318359375" stroke-width="3.0" fill="none" stroke="rgb(0, 0, 0)" stroke-opacity="1.0" stroke-linecap="round" stroke-linejoin="round"/>
    <path d="M 39.174354553222656 146.44879150390625 C 20.89328956604004 123.1488037109375 39.110740661621094 73.28829193115234 65.69107055664062 60.09344482421875" stroke-width="3.0" fill="none" stroke="rgb(0, 0, 0)" stroke-opacity="1.0" stroke-linecap="round" stroke-linejoin="round"/>
    <path d="M 94.25105285644531 198.5408935546875 C 79.02286529541016 200.6251983642578 71.41702270507812 198.0914306640625 101.79283905029297 198.36895751953125" stroke-width="3.0" fill="none" stroke="rgb(0, 0, 0)" stroke-opacity="1.0" stroke-linecap="round" stroke-linejoin="round"/>
    <path d="M 171.41812133789062 129.26036071777344 C 196.02117919921875 108.26509857177734 193.4793243408203 85.55062866210938 150.3931427001953 87.762939453125" stroke-width="3.0" fill="none" stroke="rgb(0, 0, 0)" stroke-opacity="1.0" stroke-linecap="round" stroke-linejoin="round"/>
    <path d="M 159.22218322753906 68.71222686767578 C 130.1529541015625 80.5965805053711 166.0292205810547 85.75935363769531 150.82095336914062 70.09526824951172" stroke-width="3.0" fill="none" stroke="rgb(0, 0, 0)" stroke-opacity="1.0" stroke-linecap="round" stroke-linejoin="round"/>
    <path d="M 139.55551147460938 80.23258972167969 C 141.07518005371094 35.501426696777344 204.2760467529297 112.37002563476562 179.33091735839844 47.60055160522461" stroke-width="3.0" fill="none" stroke="rgb(0, 0, 0)" stroke-opacity="1.0" stroke-linecap="round" stroke-linejoin="round"/>
    <path d="M 156.8010711669922 96.02346801757812 C 174.23146057128906 106.37027740478516 179.13096618652344 104.65805053710938 184.72955322265625 122.22245788574219" stroke-width="3.0" fill="none" stroke="rgb(0, 0, 0)" stroke-opacity="1.0" stroke-linecap="round" stroke-linejoin="round"/>
    <path d="M 177.9964141845703 14.286002159118652 C 176.29226684570312 45.10308837890625 175.5309600830078 20.24835968017578 162.72430419921875 41.15238571166992" stroke-width="3.0" fill="none" stroke="rgb(0, 0, 0)" stroke-opacity="1.0" stroke-linecap="round" stroke-linejoin="round"/>
    <path d="M 123.93677520751953 102.55960845947266 C 143.6956024169922 99.292236328125 129.4054718017578 110.35789489746094 126.92474365234375 100.16020202636719" stroke-width="3.0" fill="none" stroke="rgb(0, 0, 0)" stroke-opacity="1.0" stroke-linecap="round" stroke-linejoin="round"/>
    <path d="M 62.44219970703125 99.15254211425781 C 56.12278366088867 105.56312561035156 57.7586555480957 113.30276489257812 59.4181022644043 106.94722747802734" stroke-width="3.0" fill="none" stroke="rgb(0, 0, 0)" stroke-opacity="1.0" stroke-linecap="round" stroke-linejoin="round"/>
    <path d="M 120.73255157470703 73.18952941894531 C 125.03446197509766 46.31201934814453 118.89274597167969 56.63408279418945 121.32012939453125 36.47267532348633" stroke-width="3.0" fill="none" stroke="rgb(0, 0, 0)" stroke-opacity="1.0" stroke-linecap="round" stroke-linejoin="round"/>
    <path d="M 144.17108154296875 31.44042205810547 C 142.67930603027344 38.41929244995117 159.10989379882812 7.819003582000732 178.34710693359375 6.303366661071777" stroke-width="3.0" fill="none" stroke="rgb(0, 0, 0)" stroke-opacity="1.0" stroke-linecap="round" stroke-linejoin="round"/>
  </g>
</svg>
