<?xml version="1.0" ?>
<svg xmlns="http://www.w3.org/2000/svg" version="1.1" width="224" height="224">
  <defs/>
  <g>
    <path d="M 58.33377456665039 98.73655700683594 C 53.731719970703125 92.78638458251953 53.46780014038086 100.49153137207031 51.613834381103516 76.51078033447266" stroke-width="3.0" fill="none" stroke="rgb(0, 0, 0)" stroke-opacity="1.0" stroke-linecap="round" stroke-linejoin="round"/>
    <path d="M 186.13232421875 116.67855834960938 C 183.37307739257812 112.6302490234375 198.28118896484375 81.2489013671875 180.4308624267578 124.50096130371094" stroke-width="3.0" fill="none" stroke="rgb(0, 0, 0)" stroke-opacity="1.0" stroke-linecap="round" stroke-linejoin="round"/>
    <path d="M 58.7237434387207 109.8263168334961 C 63.73476028442383 102.17205047607422 58.97651290893555 125.5540542602539 67.73279571533203 132.77207946777344" stroke-width="3.0" fill="none" stroke="rgb(0, 0, 0)" stroke-opacity="1.0" stroke-linecap="round" stroke-linejoin="round"/>
    <path d="M 183.69009399414062 93.97293853759766 C 140.50881958007812 82.43303680419922 181.79859924316406 82.87431335449219 189.92764282226562 105.53941345214844" stroke-width="3.0" fill="none" stroke="rgb(0, 0, 0)" stroke-opacity="1.0" stroke-linecap="round" stroke-linejoin="round"/>
    <path d="M 182.85220336914062 67.77400970458984 C 187.5491943359375 99.27289581298828 180.43173217773438 100.27107238769531 181.77967834472656 73.00829315185547" stroke-width="3.0" fill="none" stroke="rgb(0, 0, 0)" stroke-opacity="1.0" stroke-linecap="round" stroke-linejoin="round"/>
    <path d="M 121.1944351196289 100.18192291259766 C 139.7772979736328 118.0573959350586 107.1677474975586 98.45570373535156 138.87210083007812 99.43531036376953" stroke-width="3.0" fill="none" stroke="rgb(0, 0, 0)" stroke-opacity="1.0" stroke-linecap="round" stroke-linejoin="round"/>
    <path d="M 183.70358276367188 91.6837158203125 C 181.10586547851562 76.2392578125 189.7353057861328 70.97793579101562 146.48687744140625 85.57479858398438" stroke-width="3.0" fill="none" stroke="rgb(0, 0, 0)" stroke-opacity="1.0" stroke-linecap="round" stroke-linejoin="round"/>
    <path d="M 64.68623352050781 191.30921936035156 C 38.35597229003906 163.25601196289062 51.245479583740234 167.28294372558594 48.471317291259766 170.42152404785156" stroke-width="3.0" fill="none" stroke="rgb(0, 0, 0)" stroke-opacity="1.0" stroke-linecap="round" stroke-linejoin="round"/>
    <path d="M 58.777687072753906 182.3072052001953 C 89.75764465332031 210.9430694580078 121.17939758300781 196.57118225097656 134.9862060546875 172.66006469726562" stroke-width="3.0" fill="none" stroke="rgb(0, 0, 0)" stroke-opacity="1.0" stroke-linecap="round" stroke-linejoin="round"/>
    <path d="M 87.51052856445312 33.3348388671875 C 96.3640365600586 78.16748046875 86.00616455078125 6.433250427246094 87.77906799316406 52.634849548339844" stroke-width="3.0" fill="none" stroke="rgb(0, 0, 0)" stroke-opacity="1.0" stroke-linecap="round" stroke-linejoin="round"/>
    <path d="M 51.50737380981445 83.1657485961914 C 69.86959075927734 142.31126403808594 77.15998077392578 143.54885864257812 70.36414337158203 135.53997802734375" stroke-width="3.0" fill="none" stroke="rgb(0, 0, 0)" stroke-opacity="1.0" stroke-linecap="round" stroke-linejoin="round"/>
    <path d="M 146.33407592773438 72.33480834960938 C 201.3077392578125 66.377197265625 193.94931030273438 88.28413391113281 137.3811492919922 81.5284423828125" stroke-width="3.0" fill="none" stroke="rgb(0, 0, 0)" stroke-opacity="1.0" stroke-linecap="round" stroke-linejoin="round"/>
    <path d="M 150.84556579589844 93.29964447021484 C 179.31796264648438 102.42305755615234 179.85391235351562 101.59270477294922 196.11305236816406 116.02729797363281" stroke-width="3.0" fill="none" stroke="rgb(0, 0, 0)" stroke-opacity="1.0" stroke-linecap="round" stroke-linejoin="round"/>
    <path d="M 119.47319793701172 153.32998657226562 C 151.48345947265625 158.25291442871094 109.8868408203125 149.50906372070312 101.29084014892578 154.92494201660156" stroke-width="3.0" fill="none" stroke="rgb(0, 0, 0)" stroke-opacity="1.0" stroke-linecap="round" stroke-linejoin="round"/>
    <path d="M 180.74786376953125 7.224226474761963 C 188.2938690185547 23.56499481201172 173.61521911621094 72.10648345947266 179.66836547851562 53.097068786621094" stroke-width="3.0" fill="none" stroke="rgb(0, 0, 0)" stroke-opacity="1.0" stroke-linecap="round" stroke-linejoin="round"/>
    <path d="M 135.93911743164062 29.26517105102539 C 107.73212432861328 24.4615478515625 133.25758361816406 41.391387939453125 121.99738311767578 67.66313934326172" stroke-width="3.0" fill="none" stroke="rgb(0, 0, 0)" stroke-opacity="1.0" stroke-linecap="round" stroke-linejoin="round"/>
    <path d="M 95.50807189941406 45.29534912109375 C 67.48001098632812 -3.2329955101013184 88.0311508178711 0.30526551604270935 123.61327362060547 29.96942901611328" stroke-width="3.0" fill="none" stroke="rgb(0, 0, 0)" stroke-opacity="1.0" stroke-linecap="round" stroke-linejoin="round"/>
    <path d="M 46.310611724853516 166.2130584716797 C 40.402183532714844 156.57766723632812 38.21604919433594 148.0631866455078 47.26688766479492 173.0010528564453" stroke-width="3.0" fill="none" stroke="rgb(0, 0, 0)" stroke-opacity="1.0" stroke-linecap="round" stroke-linejoin="round"/>
    <path d="M 36.24617385864258 97.25885009765625 C 20.601390838623047 134.8749542236328 41.48118209838867 144.49815368652344 43.85734558105469 162.31578063964844" stroke-width="3.0" fill="none" stroke="rgb(0, 0, 0)" stroke-opacity="1.0" stroke-linecap="round" stroke-linejoin="round"/>
    <path d="M 74.2468032836914 138.54708862304688 C 111.17913055419922 161.54071044921875 91.49462127685547 153.80995178222656 92.24772644042969 148.0662078857422" stroke-width="3.0" fill="none" stroke="rgb(0, 0, 0)" stroke-opacity="1.0" stroke-linecap="round" stroke-linejoin="round"/>
    <path d="M 90.24275970458984 198.57611083984375 C 67.26162719726562 203.867919921875 49.212947845458984 176.26824951171875 48.00725173950195 170.11668395996094" stroke-width="3.0" fill="none" stroke="rgb(0, 0, 0)" stroke-opacity="1.0" stroke-linecap="round" stroke-linejoin="round"/>
    <path d="M 50.78420639038086 173.0938720703125 C 68.3906478881836 192.78268432617188 46.87741470336914 170.2498321533203 38.57502365112305 150.39170837402344" stroke-width="3.0" fill="none" stroke="rgb(0, 0, 0)" stroke-opacity="1.0" stroke-linecap="round" stroke-linejoin="round"/>
    <path d="M 81.57071685791016 52.80511474609375 C 63.844818115234375 52.65046310424805 49.50889587402344 73.08274841308594 32.04806137084961 110.36146545410156" stroke-width="3.0" fill="none" stroke="rgb(0, 0, 0)" stroke-opacity="1.0" stroke-linecap="round" stroke-linejoin="round"/>
    <path d="M 154.8914337158203 141.90988159179688 C 113.1407470703125 160.18458557128906 102.40666961669922 153.9723663330078 147.3676300048828 148.19558715820312" stroke-width="3.0" fill="none" stroke="rgb(0, 0, 0)" stroke-opacity="1.0" stroke-linecap="round" stroke-linejoin="round"/>
    <path d="M 153.93658447265625 29.5267276763916 C 138.33261108398438 32.92988967895508 128.7198944091797 12.413704872131348 138.1230926513672 82.11988830566406" stroke-width="3.0" fill="none" stroke="rgb(0, 0, 0)" stroke-opacity="1.0" stroke-linecap="round" stroke-linejoin="round"/>
    <path d="M 143.7891845703125 90.7455062866211 C 135.9575958251953 104.12644958496094 127.44500732421875 95.70640563964844 116.78828430175781 100.673583984375" stroke-width="3.0" fill="none" stroke="rgb(0, 0, 0)" stroke-opacity="1.0" stroke-linecap="round" stroke-linejoin="round"/>
    <path d="M 136.65548706054688 78.05664825439453 C 140.46766662597656 62.881126403808594 127.68538665771484 74.9880142211914 138.1082763671875 79.9114761352539" stroke-width="3.0" fill="none" stroke="rgb(0, 0, 0)" stroke-opacity="1.0" stroke-linecap="round" stroke-linejoin="round"/>
    <path d="M 138.4788360595703 165.06626892089844 C 126.87311553955078 179.88079833984375 139.16233825683594 171.486572265625 147.08724975585938 147.6941680908203" stroke-width="3.0" fill="none" stroke="rgb(0, 0, 0)" stroke-opacity="1.0" stroke-linecap="round" stroke-linejoin="round"/>
    <path d="M 196.10862731933594 93.90544128417969 C 163.53269958496094 76.33349609375 176.35720825195312 78.82696533203125 186.67051696777344 94.30638885498047" stroke-width="3.0" fill="none" stroke="rgb(0, 0, 0)" stroke-opacity="1.0" stroke-linecap="round" stroke-linejoin="round"/>
    <path d="M 155.61849975585938 69.06330871582031 C 121.38279724121094 57.00139617919922 208.9322509765625 85.6137466430664 179.3324737548828 67.224853515625" stroke-width="3.0" fill="none" stroke="rgb(0, 0, 0)" stroke-opacity="1.0" stroke-linecap="round" stroke-linejoin="round"/>
    <path d="M 111.73489379882812 82.29440307617188 C 90.66211700439453 74.46697998046875 135.39276123046875 78.91291046142578 108.8305892944336 83.1207046508789" stroke-width="3.0" fill="none" stroke="rgb(0, 0, 0)" stroke-opacity="1.0" stroke-linecap="round" stroke-linejoin="round"/>
    <path d="M 166.471923828125 129.63204956054688 C 155.2235870361328 160.15133666992188 112.04132843017578 149.887939453125 104.71168518066406 156.5274658203125" stroke-width="3.0" fill="none" stroke="rgb(0, 0, 0)" stroke-opacity="1.0" stroke-linecap="round" stroke-linejoin="round"/>
    <path d="M 120.7413101196289 89.25772094726562 C 136.66287231445312 98.29435729980469 126.77515411376953 73.93972778320312 123.86339569091797 103.92315673828125" stroke-width="3.0" fill="none" stroke="rgb(0, 0, 0)" stroke-opacity="1.0" stroke-linecap="round" stroke-linejoin="round"/>
    <path d="M 182.55397033691406 115.22103118896484 C 167.25860595703125 85.14338684082031 193.46336364746094 84.26268768310547 151.04769897460938 87.25630950927734" stroke-width="3.0" fill="none" stroke="rgb(0, 0, 0)" stroke-opacity="1.0" stroke-linecap="round" stroke-linejoin="round"/>
    <path d="M 82.24552917480469 12.779783248901367 C 108.41584014892578 18.549415588378906 103.70865631103516 34.86585998535156 132.517333984375 28.52080726623535" stroke-width="3.0" fill="none" stroke="rgb(0, 0, 0)" stroke-opacity="1.0" stroke-linecap="round" stroke-linejoin="round"/>
    <path d="M 61.48302459716797 115.86473846435547 C 60.735904693603516 107.76738739013672 63.80344772338867 122.1556396484375 68.46047973632812 131.20181274414062" stroke-width="3.0" fill="none" stroke="rgb(0, 0, 0)" stroke-opacity="1.0" stroke-linecap="round" stroke-linejoin="round"/>
    <path d="M 129.0126953125 105.25826263427734 C 141.2023468017578 90.60225677490234 117.46340942382812 117.91887664794922 111.67835235595703 89.0025405883789" stroke-width="3.0" fill="none" stroke="rgb(0, 0, 0)" stroke-opacity="1.0" stroke-linecap="round" stroke-linejoin="round"/>
    <path d="M 31.290786743164062 132.66786193847656 C 27.138267517089844 113.93443298339844 35.55101013183594 89.63910675048828 54.97261428833008 68.73554229736328" stroke-width="3.0" fill="none" stroke="rgb(0, 0, 0)" stroke-opacity="1.0" stroke-linecap="round" stroke-linejoin="round"/>
    <path d="M 84.66069793701172 197.21205139160156 C 69.6241455078125 189.4644317626953 71.49534606933594 195.8647918701172 102.21038818359375 198.60992431640625" stroke-width="3.0" fill="none" stroke="rgb(0, 0, 0)" stroke-opacity="1.0" stroke-linecap="round" stroke-linejoin="round"/>
    <path d="M 168.34425354003906 131.47067260742188 C 200.69479370117188 112.95443725585938 179.51397705078125 97.15563201904297 155.6705322265625 88.31249237060547" stroke-width="3.0" fill="none" stroke="rgb(0, 0, 0)" stroke-opacity="1.0" stroke-linecap="round" stroke-linejoin="round"/>
    <path d="M 154.8364715576172 72.15546417236328 C 138.1271514892578 84.86144256591797 171.4629364013672 74.76973724365234 146.7338104248047 73.73454284667969" stroke-width="3.0" fill="none" stroke="rgb(0, 0, 0)" stroke-opacity="1.0" stroke-linecap="round" stroke-linejoin="round"/>
    <path d="M 139.6653289794922 78.61035919189453 C 144.88864135742188 38.10759353637695 198.51084899902344 111.16036987304688 177.6568603515625 43.62334060668945" stroke-width="3.0" fill="none" stroke="rgb(0, 0, 0)" stroke-opacity="1.0" stroke-linecap="round" stroke-linejoin="round"/>
    <path d="M 152.194580078125 101.4924087524414 C 169.02996826171875 104.87127685546875 172.72947692871094 103.6166000366211 181.3052520751953 119.1649398803711" stroke-width="3.0" fill="none" stroke="rgb(0, 0, 0)" stroke-opacity="1.0" stroke-linecap="round" stroke-linejoin="round"/>
    <path d="M 178.50656127929688 19.067768096923828 C 168.45579528808594 36.91878128051758 168.0318603515625 17.111587524414062 148.13916015625 30.033313751220703" stroke-width="3.0" fill="none" stroke="rgb(0, 0, 0)" stroke-opacity="1.0" stroke-linecap="round" stroke-linejoin="round"/>
    <path d="M 118.57530212402344 98.55380249023438 C 148.1395263671875 90.40616607666016 134.9267578125 113.42472076416016 118.87901306152344 101.89586639404297" stroke-width="3.0" fill="none" stroke="rgb(0, 0, 0)" stroke-opacity="1.0" stroke-linecap="round" stroke-linejoin="round"/>
    <path d="M 68.41889953613281 124.39154815673828 C 51.710670471191406 114.86676025390625 61.02262496948242 108.68653106689453 61.59778594970703 115.13202667236328" stroke-width="3.0" fill="none" stroke="rgb(0, 0, 0)" stroke-opacity="1.0" stroke-linecap="round" stroke-linejoin="round"/>
    <path d="M 120.63117980957031 75.27424621582031 C 125.3853759765625 45.23699188232422 118.68914031982422 52.66973876953125 117.60926055908203 37.997493743896484" stroke-width="3.0" fill="none" stroke="rgb(0, 0, 0)" stroke-opacity="1.0" stroke-linecap="round" stroke-linejoin="round"/>
    <path d="M 155.14312744140625 22.347488403320312 C 147.37503051757812 31.516483306884766 165.00965881347656 6.762545585632324 178.44789123535156 6.123471260070801" stroke-width="3.0" fill="none" stroke="rgb(0, 0, 0)" stroke-opacity="1.0" stroke-linecap="round" stroke-linejoin="round"/>
  </g>
</svg>
