<?xml version="1.0" ?>
<svg xmlns="http://www.w3.org/2000/svg" version="1.1" width="224" height="224">
  <defs/>
  <g>
    <path d="M 60.940372467041016 100.93235778808594 C 66.29879760742188 101.92330169677734 58.11879348754883 100.6741943359375 50.26689529418945 97.90702819824219" stroke-width="3.0" fill="none" stroke="rgb(0, 0, 0)" stroke-opacity="1.0" stroke-linecap="round" stroke-linejoin="round"/>
    <path d="M 182.7249298095703 128.3828125 C 174.38327026367188 122.23992156982422 177.24215698242188 122.99663543701172 183.82406616210938 127.21309661865234" stroke-width="3.0" fill="none" stroke="rgb(0, 0, 0)" stroke-opacity="1.0" stroke-linecap="round" stroke-linejoin="round"/>
    <path d="M 54.006649017333984 111.64607238769531 C 52.68737030029297 116.50525665283203 54.23724365234375 98.46388244628906 52.93897247314453 110.77688598632812" stroke-width="3.0" fill="none" stroke="rgb(0, 0, 0)" stroke-opacity="1.0" stroke-linecap="round" stroke-linejoin="round"/>
    <path d="M 177.98995971679688 98.13749694824219 C 162.78358459472656 112.54824829101562 165.84910583496094 94.36030578613281 184.05313110351562 115.54454803466797" stroke-width="3.0" fill="none" stroke="rgb(0, 0, 0)" stroke-opacity="1.0" stroke-linecap="round" stroke-linejoin="round"/>
    <path d="M 182.32113647460938 77.34159851074219 C 183.29103088378906 84.54240417480469 178.7777557373047 74.14039611816406 184.12841796875 84.07735443115234" stroke-width="3.0" fill="none" stroke="rgb(0, 0, 0)" stroke-opacity="1.0" stroke-linecap="round" stroke-linejoin="round"/>
    <path d="M 127.59131622314453 102.58963012695312 C 120.30330657958984 111.03456115722656 120.55830383300781 103.81997680664062 127.01386260986328 107.53765869140625" stroke-width="3.0" fill="none" stroke="rgb(0, 0, 0)" stroke-opacity="1.0" stroke-linecap="round" stroke-linejoin="round"/>
    <path d="M 169.60452270507812 81.0912857055664 C 187.4047393798828 88.33036041259766 179.2166290283203 83.18217468261719 160.3207550048828 87.52750396728516" stroke-width="3.0" fill="none" stroke="rgb(0, 0, 0)" stroke-opacity="1.0" stroke-linecap="round" stroke-linejoin="round"/>
    <path d="M 55.79706954956055 176.9913787841797 C 54.886863708496094 165.18289184570312 51.575531005859375 181.38221740722656 57.370670318603516 166.81344604492188" stroke-width="3.0" fill="none" stroke="rgb(0, 0, 0)" stroke-opacity="1.0" stroke-linecap="round" stroke-linejoin="round"/>
    <path d="M 75.60610961914062 186.75807189941406 C 80.4111099243164 190.17501831054688 91.2280502319336 191.34825134277344 84.04000091552734 187.24159240722656" stroke-width="3.0" fill="none" stroke="rgb(0, 0, 0)" stroke-opacity="1.0" stroke-linecap="round" stroke-linejoin="round"/>
    <path d="M 83.75785064697266 53.86271667480469 C 80.30023956298828 72.08395385742188 87.2685317993164 82.53047180175781 81.17444610595703 65.659912109375" stroke-width="3.0" fill="none" stroke="rgb(0, 0, 0)" stroke-opacity="1.0" stroke-linecap="round" stroke-linejoin="round"/>
    <path d="M 68.10243225097656 143.97262573242188 C 73.360595703125 151.74209594726562 75.9241943359375 149.96713256835938 77.5112075805664 151.2621612548828" stroke-width="3.0" fill="none" stroke="rgb(0, 0, 0)" stroke-opacity="1.0" stroke-linecap="round" stroke-linejoin="round"/>
    <path d="M 170.98655700683594 90.98159790039062 C 181.06285095214844 77.89553833007812 173.0275421142578 91.50680541992188 152.7169952392578 88.23983764648438" stroke-width="3.0" fill="none" stroke="rgb(0, 0, 0)" stroke-opacity="1.0" stroke-linecap="round" stroke-linejoin="round"/>
    <path d="M 155.99879455566406 100.0041275024414 C 171.0553436279297 103.97240447998047 161.2998046875 103.05371856689453 171.70663452148438 99.56707000732422" stroke-width="3.0" fill="none" stroke="rgb(0, 0, 0)" stroke-opacity="1.0" stroke-linecap="round" stroke-linejoin="round"/>
    <path d="M 81.5252914428711 175.7654266357422 C 85.01835632324219 181.01678466796875 96.40757751464844 180.47802734375 99.4435043334961 186.46839904785156" stroke-width="3.0" fill="none" stroke="rgb(0, 0, 0)" stroke-opacity="1.0" stroke-linecap="round" stroke-linejoin="round"/>
    <path d="M 175.3100128173828 11.03307819366455 C 181.7488250732422 -1.7842880487442017 184.31405639648438 26.763757705688477 175.85787963867188 52.82976531982422" stroke-width="3.0" fill="none" stroke="rgb(0, 0, 0)" stroke-opacity="1.0" stroke-linecap="round" stroke-linejoin="round"/>
    <path d="M 125.27174377441406 35.26165771484375 C 123.61821746826172 44.76193618774414 128.6059112548828 40.87796401977539 126.1131591796875 53.31095886230469" stroke-width="3.0" fill="none" stroke="rgb(0, 0, 0)" stroke-opacity="1.0" stroke-linecap="round" stroke-linejoin="round"/>
    <path d="M 86.00660705566406 56.403282165527344 C 74.27714538574219 -14.490518569946289 91.128173828125 -0.6422650218009949 95.4902572631836 43.036773681640625" stroke-width="3.0" fill="none" stroke="rgb(0, 0, 0)" stroke-opacity="1.0" stroke-linecap="round" stroke-linejoin="round"/>
    <path d="M 50.01651382446289 169.99549865722656 C 46.621585845947266 150.53759765625 48.84170150756836 163.34962463378906 44.400634765625 159.19976806640625" stroke-width="3.0" fill="none" stroke="rgb(0, 0, 0)" stroke-opacity="1.0" stroke-linecap="round" stroke-linejoin="round"/>
    <path d="M 45.39548110961914 139.84243774414062 C 51.85123825073242 136.90554809570312 38.5567512512207 144.71449279785156 42.689945220947266 142.6878662109375" stroke-width="3.0" fill="none" stroke="rgb(0, 0, 0)" stroke-opacity="1.0" stroke-linecap="round" stroke-linejoin="round"/>
    <path d="M 72.32683563232422 165.94947814941406 C 75.5638427734375 163.0036163330078 74.3886489868164 163.18148803710938 73.74180603027344 164.27073669433594" stroke-width="3.0" fill="none" stroke="rgb(0, 0, 0)" stroke-opacity="1.0" stroke-linecap="round" stroke-linejoin="round"/>
    <path d="M 71.51209259033203 188.53919982910156 C 54.75002670288086 172.26718139648438 70.52446746826172 192.42471313476562 61.32197570800781 176.17210388183594" stroke-width="3.0" fill="none" stroke="rgb(0, 0, 0)" stroke-opacity="1.0" stroke-linecap="round" stroke-linejoin="round"/>
    <path d="M 46.222412109375 160.83062744140625 C 50.38801193237305 161.35833740234375 37.36898422241211 150.52439880371094 42.15937042236328 154.91773986816406" stroke-width="3.0" fill="none" stroke="rgb(0, 0, 0)" stroke-opacity="1.0" stroke-linecap="round" stroke-linejoin="round"/>
    <path d="M 63.55052947998047 59.84392547607422 C 46.20736312866211 82.51920318603516 52.175479888916016 70.30191040039062 43.50442886352539 106.33940887451172" stroke-width="3.0" fill="none" stroke="rgb(0, 0, 0)" stroke-opacity="1.0" stroke-linecap="round" stroke-linejoin="round"/>
    <path d="M 146.8302764892578 155.47772216796875 C 126.00444030761719 153.84828186035156 130.21072387695312 147.63894653320312 141.55905151367188 159.6793212890625" stroke-width="3.0" fill="none" stroke="rgb(0, 0, 0)" stroke-opacity="1.0" stroke-linecap="round" stroke-linejoin="round"/>
    <path d="M 139.62307739257812 38.03160858154297 C 136.49447631835938 53.604774475097656 135.76394653320312 62.8922119140625 137.30393981933594 76.89937591552734" stroke-width="3.0" fill="none" stroke="rgb(0, 0, 0)" stroke-opacity="1.0" stroke-linecap="round" stroke-linejoin="round"/>
    <path d="M 146.28477478027344 104.4283676147461 C 131.99647521972656 110.60967254638672 116.5905532836914 108.81526184082031 122.35708618164062 110.04702758789062" stroke-width="3.0" fill="none" stroke="rgb(0, 0, 0)" stroke-opacity="1.0" stroke-linecap="round" stroke-linejoin="round"/>
    <path d="M 145.90916442871094 67.80542755126953 C 142.1941680908203 59.273502349853516 158.07269287109375 54.514549255371094 153.14877319335938 54.80377960205078" stroke-width="3.0" fill="none" stroke="rgb(0, 0, 0)" stroke-opacity="1.0" stroke-linecap="round" stroke-linejoin="round"/>
    <path d="M 109.50679779052734 186.32261657714844 C 91.87104797363281 175.76513671875 78.0846176147461 188.3446807861328 132.53076171875 185.3252716064453" stroke-width="3.0" fill="none" stroke="rgb(0, 0, 0)" stroke-opacity="1.0" stroke-linecap="round" stroke-linejoin="round"/>
    <path d="M 178.8031768798828 86.59933471679688 C 174.69570922851562 79.75336456298828 174.35458374023438 95.66535186767578 178.376953125 87.73709106445312" stroke-width="3.0" fill="none" stroke="rgb(0, 0, 0)" stroke-opacity="1.0" stroke-linecap="round" stroke-linejoin="round"/>
    <path d="M 173.94976806640625 90.93074798583984 C 180.08958435058594 87.19420623779297 183.12911987304688 88.61455535888672 174.77520751953125 93.94073486328125" stroke-width="3.0" fill="none" stroke="rgb(0, 0, 0)" stroke-opacity="1.0" stroke-linecap="round" stroke-linejoin="round"/>
    <path d="M 111.73046875 77.84273529052734 C 92.2847671508789 72.46329498291016 134.91673278808594 75.0696792602539 108.62430572509766 81.48426055908203" stroke-width="3.0" fill="none" stroke="rgb(0, 0, 0)" stroke-opacity="1.0" stroke-linecap="round" stroke-linejoin="round"/>
    <path d="M 132.4020538330078 156.4188232421875 C 123.50094604492188 147.13320922851562 128.78939819335938 153.17100524902344 127.66412353515625 154.28347778320312" stroke-width="3.0" fill="none" stroke="rgb(0, 0, 0)" stroke-opacity="1.0" stroke-linecap="round" stroke-linejoin="round"/>
    <path d="M 122.53022766113281 89.11260223388672 C 141.3662109375 102.55897521972656 134.13548278808594 78.06648254394531 127.48896026611328 97.88943481445312" stroke-width="3.0" fill="none" stroke="rgb(0, 0, 0)" stroke-opacity="1.0" stroke-linecap="round" stroke-linejoin="round"/>
    <path d="M 178.1133575439453 102.16506958007812 C 178.57212829589844 88.93785858154297 183.3818359375 98.93978118896484 150.1551055908203 94.07095336914062" stroke-width="3.0" fill="none" stroke="rgb(0, 0, 0)" stroke-opacity="1.0" stroke-linecap="round" stroke-linejoin="round"/>
    <path d="M 89.31752014160156 7.998751163482666 C 108.16669464111328 17.607284545898438 113.00471496582031 35.07984161376953 119.16449737548828 33.7921142578125" stroke-width="3.0" fill="none" stroke="rgb(0, 0, 0)" stroke-opacity="1.0" stroke-linecap="round" stroke-linejoin="round"/>
    <path d="M 53.0897216796875 112.83402252197266 C 51.26688766479492 112.54344177246094 66.5748291015625 116.85356140136719 54.09193801879883 111.6639175415039" stroke-width="3.0" fill="none" stroke="rgb(0, 0, 0)" stroke-opacity="1.0" stroke-linecap="round" stroke-linejoin="round"/>
    <path d="M 121.3395004272461 105.14056396484375 C 98.22443389892578 101.0993881225586 121.54524230957031 100.33467864990234 106.89187622070312 98.03083038330078" stroke-width="3.0" fill="none" stroke="rgb(0, 0, 0)" stroke-opacity="1.0" stroke-linecap="round" stroke-linejoin="round"/>
    <path d="M 38.207279205322266 123.88297271728516 C 44.518985748291016 99.41802215576172 45.0059700012207 103.09573364257812 41.71527099609375 112.6331558227539" stroke-width="3.0" fill="none" stroke="rgb(0, 0, 0)" stroke-opacity="1.0" stroke-linecap="round" stroke-linejoin="round"/>
    <path d="M 83.36518096923828 182.5606689453125 C 77.38854217529297 187.98526000976562 74.7372055053711 191.89051818847656 84.18663024902344 185.73004150390625" stroke-width="3.0" fill="none" stroke="rgb(0, 0, 0)" stroke-opacity="1.0" stroke-linecap="round" stroke-linejoin="round"/>
    <path d="M 177.40264892578125 132.21478271484375 C 178.19227600097656 115.2279281616211 163.5655059814453 100.93232727050781 147.01980590820312 99.02950286865234" stroke-width="3.0" fill="none" stroke="rgb(0, 0, 0)" stroke-opacity="1.0" stroke-linecap="round" stroke-linejoin="round"/>
    <path d="M 143.7738494873047 78.87044525146484 C 151.32080078125 76.42965698242188 138.51678466796875 94.32093811035156 151.41275024414062 80.6625747680664" stroke-width="3.0" fill="none" stroke="rgb(0, 0, 0)" stroke-opacity="1.0" stroke-linecap="round" stroke-linejoin="round"/>
    <path d="M 160.94268798828125 71.58155822753906 C 168.74403381347656 69.8528823852539 175.218017578125 75.27354431152344 182.56326293945312 72.55132293701172" stroke-width="3.0" fill="none" stroke="rgb(0, 0, 0)" stroke-opacity="1.0" stroke-linecap="round" stroke-linejoin="round"/>
    <path d="M 151.93130493164062 106.2507095336914 C 155.5861358642578 107.49755096435547 156.85594177246094 110.64346313476562 160.47357177734375 119.18521881103516" stroke-width="3.0" fill="none" stroke="rgb(0, 0, 0)" stroke-opacity="1.0" stroke-linecap="round" stroke-linejoin="round"/>
    <path d="M 172.0228271484375 22.51235008239746 C 162.9615020751953 40.51451873779297 162.35621643066406 28.731468200683594 166.65322875976562 44.43297576904297" stroke-width="3.0" fill="none" stroke="rgb(0, 0, 0)" stroke-opacity="1.0" stroke-linecap="round" stroke-linejoin="round"/>
    <path d="M 120.48566436767578 110.22180938720703 C 152.4110870361328 109.7101821899414 121.18245697021484 98.88546752929688 115.10641479492188 110.02377319335938" stroke-width="3.0" fill="none" stroke="rgb(0, 0, 0)" stroke-opacity="1.0" stroke-linecap="round" stroke-linejoin="round"/>
    <path d="M 53.64142608642578 110.87737274169922 C 55.0864143371582 105.69495391845703 45.51641845703125 104.81391143798828 64.79839324951172 123.93539428710938" stroke-width="3.0" fill="none" stroke="rgb(0, 0, 0)" stroke-opacity="1.0" stroke-linecap="round" stroke-linejoin="round"/>
    <path d="M 121.06620025634766 78.49681854248047 C 124.94890594482422 57.827510833740234 117.84351348876953 53.407962799072266 116.87226867675781 53.44075393676758" stroke-width="3.0" fill="none" stroke="rgb(0, 0, 0)" stroke-opacity="1.0" stroke-linecap="round" stroke-linejoin="round"/>
    <path d="M 145.37762451171875 33.370418548583984 C 159.00962829589844 26.61827850341797 153.69882202148438 20.52228546142578 177.4714813232422 8.952948570251465" stroke-width="3.0" fill="none" stroke="rgb(0, 0, 0)" stroke-opacity="1.0" stroke-linecap="round" stroke-linejoin="round"/>
  </g>
</svg>
