<?xml version="1.0" ?>
<svg xmlns="http://www.w3.org/2000/svg" version="1.1" width="224" height="224">
  <defs/>
  <g>
    <path d="M 60.527015686035156 98.35938262939453 C 63.65862274169922 94.16943359375 52.4669303894043 87.57291412353516 61.39665985107422 62.627830505371094" stroke-width="3.0" fill="none" stroke="rgb(0, 0, 0)" stroke-opacity="1.0" stroke-linecap="round" stroke-linejoin="round"/>
    <path d="M 196.1348114013672 116.10334777832031 C 183.7728271484375 114.91969299316406 188.9952850341797 98.79351806640625 181.081787109375 126.90852355957031" stroke-width="3.0" fill="none" stroke="rgb(0, 0, 0)" stroke-opacity="1.0" stroke-linecap="round" stroke-linejoin="round"/>
    <path d="M 60.16201400756836 123.08378601074219 C 62.87389373779297 80.47235870361328 54.9012336730957 120.91481018066406 62.48581314086914 123.45115661621094" stroke-width="3.0" fill="none" stroke="rgb(0, 0, 0)" stroke-opacity="1.0" stroke-linecap="round" stroke-linejoin="round"/>
    <path d="M 187.63352966308594 95.13418579101562 C 142.62002563476562 71.29617309570312 185.9253387451172 76.55460357666016 189.488037109375 102.5378189086914" stroke-width="3.0" fill="none" stroke="rgb(0, 0, 0)" stroke-opacity="1.0" stroke-linecap="round" stroke-linejoin="round"/>
    <path d="M 177.55084228515625 45.51865005493164 C 194.69241333007812 86.4556884765625 172.5762176513672 106.14163208007812 182.0787353515625 69.00599670410156" stroke-width="3.0" fill="none" stroke="rgb(0, 0, 0)" stroke-opacity="1.0" stroke-linecap="round" stroke-linejoin="round"/>
    <path d="M 127.26993560791016 101.80500793457031 C 146.3080596923828 120.46343231201172 93.22057342529297 97.26089477539062 135.47100830078125 104.40283203125" stroke-width="3.0" fill="none" stroke="rgb(0, 0, 0)" stroke-opacity="1.0" stroke-linecap="round" stroke-linejoin="round"/>
    <path d="M 179.3423309326172 89.20008087158203 C 177.22930908203125 82.7351303100586 193.7442626953125 70.97198486328125 150.62356567382812 87.58025360107422" stroke-width="3.0" fill="none" stroke="rgb(0, 0, 0)" stroke-opacity="1.0" stroke-linecap="round" stroke-linejoin="round"/>
    <path d="M 66.85173797607422 189.0199737548828 C 42.316959381103516 166.59649658203125 49.86495590209961 166.22030639648438 52.159446716308594 174.23336791992188" stroke-width="3.0" fill="none" stroke="rgb(0, 0, 0)" stroke-opacity="1.0" stroke-linecap="round" stroke-linejoin="round"/>
    <path d="M 61.27983093261719 183.40380859375 C 86.31165313720703 207.41070556640625 134.8125457763672 193.57798767089844 140.3268280029297 164.14920043945312" stroke-width="3.0" fill="none" stroke="rgb(0, 0, 0)" stroke-opacity="1.0" stroke-linecap="round" stroke-linejoin="round"/>
    <path d="M 81.85589599609375 11.186860084533691 C 97.6707992553711 78.13638305664062 91.52009582519531 12.771608352661133 88.88335418701172 56.725669860839844" stroke-width="3.0" fill="none" stroke="rgb(0, 0, 0)" stroke-opacity="1.0" stroke-linecap="round" stroke-linejoin="round"/>
    <path d="M 61.41303634643555 94.2735366821289 C 52.301212310791016 134.9923553466797 73.05438995361328 129.66685485839844 60.4249382019043 118.72724914550781" stroke-width="3.0" fill="none" stroke="rgb(0, 0, 0)" stroke-opacity="1.0" stroke-linecap="round" stroke-linejoin="round"/>
    <path d="M 147.7793731689453 75.21815490722656 C 197.58856201171875 59.17766571044922 190.3953399658203 89.03337860107422 141.97604370117188 86.94367980957031" stroke-width="3.0" fill="none" stroke="rgb(0, 0, 0)" stroke-opacity="1.0" stroke-linecap="round" stroke-linejoin="round"/>
    <path d="M 148.4558563232422 97.21434783935547 C 180.93853759765625 94.98770904541016 179.87159729003906 93.29326629638672 194.81361389160156 112.167236328125" stroke-width="3.0" fill="none" stroke="rgb(0, 0, 0)" stroke-opacity="1.0" stroke-linecap="round" stroke-linejoin="round"/>
    <path d="M 121.21685028076172 150.3275146484375 C 161.55760192871094 158.04275512695312 106.16143035888672 143.42788696289062 98.40599060058594 151.10520935058594" stroke-width="3.0" fill="none" stroke="rgb(0, 0, 0)" stroke-opacity="1.0" stroke-linecap="round" stroke-linejoin="round"/>
    <path d="M 177.5728302001953 11.370372772216797 C 187.0141143798828 19.756465911865234 168.19012451171875 97.80583953857422 178.57135009765625 50.69533920288086" stroke-width="3.0" fill="none" stroke="rgb(0, 0, 0)" stroke-opacity="1.0" stroke-linecap="round" stroke-linejoin="round"/>
    <path d="M 142.6555938720703 33.26344299316406 C 113.5186996459961 21.79993438720703 135.5989990234375 29.59683609008789 129.74143981933594 79.4554672241211" stroke-width="3.0" fill="none" stroke="rgb(0, 0, 0)" stroke-opacity="1.0" stroke-linecap="round" stroke-linejoin="round"/>
    <path d="M 109.08333587646484 47.09352493286133 C 62.05934524536133 -2.064831495285034 85.18425750732422 2.4474990367889404 119.8970718383789 30.00691032409668" stroke-width="3.0" fill="none" stroke="rgb(0, 0, 0)" stroke-opacity="1.0" stroke-linecap="round" stroke-linejoin="round"/>
    <path d="M 45.88345718383789 160.9943389892578 C 43.341495513916016 157.79385375976562 42.234737396240234 150.48513793945312 47.19617462158203 169.02354431152344" stroke-width="3.0" fill="none" stroke="rgb(0, 0, 0)" stroke-opacity="1.0" stroke-linecap="round" stroke-linejoin="round"/>
    <path d="M 53.365867614746094 79.93299865722656 C 23.779823303222656 133.37733459472656 40.7821044921875 135.8678436279297 44.433143615722656 159.5100860595703" stroke-width="3.0" fill="none" stroke="rgb(0, 0, 0)" stroke-opacity="1.0" stroke-linecap="round" stroke-linejoin="round"/>
    <path d="M 74.6423568725586 140.01527404785156 C 135.8371124267578 159.2008819580078 100.45110321044922 149.82586669921875 88.3054428100586 144.0493621826172" stroke-width="3.0" fill="none" stroke="rgb(0, 0, 0)" stroke-opacity="1.0" stroke-linecap="round" stroke-linejoin="round"/>
    <path d="M 93.0373306274414 196.10475158691406 C 64.42911529541016 199.3483428955078 50.78893280029297 177.02978515625 45.51982498168945 161.5177001953125" stroke-width="3.0" fill="none" stroke="rgb(0, 0, 0)" stroke-opacity="1.0" stroke-linecap="round" stroke-linejoin="round"/>
    <path d="M 51.37179946899414 171.68736267089844 C 70.7857666015625 198.46389770507812 50.28578567504883 172.5789794921875 37.488712310791016 142.53831481933594" stroke-width="3.0" fill="none" stroke="rgb(0, 0, 0)" stroke-opacity="1.0" stroke-linecap="round" stroke-linejoin="round"/>
    <path d="M 83.64075469970703 59.74283981323242 C 55.103153228759766 54.301307678222656 61.028812408447266 74.15965270996094 38.30799865722656 112.19737243652344" stroke-width="3.0" fill="none" stroke="rgb(0, 0, 0)" stroke-opacity="1.0" stroke-linecap="round" stroke-linejoin="round"/>
    <path d="M 157.13333129882812 141.24009704589844 C 101.46857452392578 152.91259765625 79.1033935546875 153.81732177734375 144.561767578125 149.1531982421875" stroke-width="3.0" fill="none" stroke="rgb(0, 0, 0)" stroke-opacity="1.0" stroke-linecap="round" stroke-linejoin="round"/>
    <path d="M 149.4624481201172 28.06462860107422 C 147.55853271484375 33.89851760864258 138.91217041015625 17.2135009765625 142.11428833007812 77.4351806640625" stroke-width="3.0" fill="none" stroke="rgb(0, 0, 0)" stroke-opacity="1.0" stroke-linecap="round" stroke-linejoin="round"/>
    <path d="M 145.6896209716797 102.45930480957031 C 125.92085266113281 115.93128967285156 120.0483627319336 107.18756866455078 115.19051361083984 94.48516845703125" stroke-width="3.0" fill="none" stroke="rgb(0, 0, 0)" stroke-opacity="1.0" stroke-linecap="round" stroke-linejoin="round"/>
    <path d="M 140.62786865234375 71.58598327636719 C 149.04087829589844 56.245487213134766 133.10055541992188 69.30525970458984 137.21900939941406 84.38245391845703" stroke-width="3.0" fill="none" stroke="rgb(0, 0, 0)" stroke-opacity="1.0" stroke-linecap="round" stroke-linejoin="round"/>
    <path d="M 138.78057861328125 165.9187774658203 C 129.2805938720703 171.65570068359375 146.18605041503906 165.38967895507812 144.88125610351562 147.48150634765625" stroke-width="3.0" fill="none" stroke="rgb(0, 0, 0)" stroke-opacity="1.0" stroke-linecap="round" stroke-linejoin="round"/>
    <path d="M 195.7125244140625 95.07022094726562 C 165.76004028320312 64.82093811035156 179.2545928955078 70.05241394042969 185.9386444091797 94.43335723876953" stroke-width="3.0" fill="none" stroke="rgb(0, 0, 0)" stroke-opacity="1.0" stroke-linecap="round" stroke-linejoin="round"/>
    <path d="M 149.58831787109375 79.96353149414062 C 129.92225646972656 54.82083511352539 214.0180206298828 87.89513397216797 176.89266967773438 63.22547149658203" stroke-width="3.0" fill="none" stroke="rgb(0, 0, 0)" stroke-opacity="1.0" stroke-linecap="round" stroke-linejoin="round"/>
    <path d="M 111.53582763671875 81.40885925292969 C 75.88252258300781 73.41138458251953 139.26686096191406 73.48787689208984 107.89551544189453 80.57868957519531" stroke-width="3.0" fill="none" stroke="rgb(0, 0, 0)" stroke-opacity="1.0" stroke-linecap="round" stroke-linejoin="round"/>
    <path d="M 166.1675567626953 130.65451049804688 C 145.80709838867188 159.92176818847656 101.61148834228516 146.34991455078125 93.60577392578125 149.2227783203125" stroke-width="3.0" fill="none" stroke="rgb(0, 0, 0)" stroke-opacity="1.0" stroke-linecap="round" stroke-linejoin="round"/>
    <path d="M 123.90097045898438 92.74261474609375 C 140.49082946777344 101.09196472167969 126.6205062866211 72.83264923095703 128.24998474121094 107.51419830322266" stroke-width="3.0" fill="none" stroke="rgb(0, 0, 0)" stroke-opacity="1.0" stroke-linecap="round" stroke-linejoin="round"/>
    <path d="M 187.304443359375 114.23958587646484 C 166.56915283203125 83.54218292236328 175.13111877441406 96.2623519897461 145.7761993408203 85.83531188964844" stroke-width="3.0" fill="none" stroke="rgb(0, 0, 0)" stroke-opacity="1.0" stroke-linecap="round" stroke-linejoin="round"/>
    <path d="M 91.90552520751953 28.466203689575195 C 129.77008056640625 26.799474716186523 89.21839904785156 33.725982666015625 146.66879272460938 30.279142379760742" stroke-width="3.0" fill="none" stroke="rgb(0, 0, 0)" stroke-opacity="1.0" stroke-linecap="round" stroke-linejoin="round"/>
    <path d="M 61.112239837646484 114.08274841308594 C 64.1348876953125 101.91349029541016 53.97271728515625 122.27198028564453 73.41926574707031 140.13037109375" stroke-width="3.0" fill="none" stroke="rgb(0, 0, 0)" stroke-opacity="1.0" stroke-linecap="round" stroke-linejoin="round"/>
    <path d="M 133.68524169921875 103.6440200805664 C 124.68296813964844 92.16497039794922 128.77682495117188 116.44465637207031 115.20849609375 90.64212036132812" stroke-width="3.0" fill="none" stroke="rgb(0, 0, 0)" stroke-opacity="1.0" stroke-linecap="round" stroke-linejoin="round"/>
    <path d="M 37.88633728027344 145.2655792236328 C 24.599365234375 130.02194213867188 36.80858612060547 79.13642120361328 57.39146041870117 64.86299133300781" stroke-width="3.0" fill="none" stroke="rgb(0, 0, 0)" stroke-opacity="1.0" stroke-linecap="round" stroke-linejoin="round"/>
    <path d="M 101.0363540649414 196.6915740966797 C 78.33956909179688 198.1279754638672 69.15630340576172 195.31553649902344 107.1716537475586 193.58958435058594" stroke-width="3.0" fill="none" stroke="rgb(0, 0, 0)" stroke-opacity="1.0" stroke-linecap="round" stroke-linejoin="round"/>
    <path d="M 168.1729736328125 130.55191040039062 C 198.84893798828125 120.98135375976562 189.2414093017578 83.09696197509766 155.29054260253906 86.92552185058594" stroke-width="3.0" fill="none" stroke="rgb(0, 0, 0)" stroke-opacity="1.0" stroke-linecap="round" stroke-linejoin="round"/>
    <path d="M 156.3665771484375 74.90266418457031 C 133.0813446044922 85.43505859375 171.4532012939453 78.72174835205078 149.0048065185547 69.10010528564453" stroke-width="3.0" fill="none" stroke="rgb(0, 0, 0)" stroke-opacity="1.0" stroke-linecap="round" stroke-linejoin="round"/>
    <path d="M 139.99200439453125 75.97299194335938 C 142.20761108398438 41.64282989501953 202.30435180664062 111.97698974609375 173.77052307128906 47.48213577270508" stroke-width="3.0" fill="none" stroke="rgb(0, 0, 0)" stroke-opacity="1.0" stroke-linecap="round" stroke-linejoin="round"/>
    <path d="M 152.15109252929688 97.05940246582031 C 178.03465270996094 103.71333312988281 170.61685180664062 102.3912582397461 185.870849609375 121.09981536865234" stroke-width="3.0" fill="none" stroke="rgb(0, 0, 0)" stroke-opacity="1.0" stroke-linecap="round" stroke-linejoin="round"/>
    <path d="M 174.9011688232422 16.443464279174805 C 170.86830139160156 47.311553955078125 173.86764526367188 20.900985717773438 158.03440856933594 39.405948638916016" stroke-width="3.0" fill="none" stroke="rgb(0, 0, 0)" stroke-opacity="1.0" stroke-linecap="round" stroke-linejoin="round"/>
    <path d="M 124.03025817871094 106.19058990478516 C 149.07444763183594 99.70634460449219 132.97906494140625 117.89604187011719 121.51791381835938 104.21891021728516" stroke-width="3.0" fill="none" stroke="rgb(0, 0, 0)" stroke-opacity="1.0" stroke-linecap="round" stroke-linejoin="round"/>
    <path d="M 65.07831573486328 120.46591186523438 C 57.55206298828125 108.85375213623047 59.85765838623047 110.08858489990234 59.939456939697266 117.21794891357422" stroke-width="3.0" fill="none" stroke="rgb(0, 0, 0)" stroke-opacity="1.0" stroke-linecap="round" stroke-linejoin="round"/>
    <path d="M 122.26225280761719 76.4435043334961 C 122.0650405883789 40.937435150146484 112.55786895751953 55.84259796142578 119.1498794555664 31.489547729492188" stroke-width="3.0" fill="none" stroke="rgb(0, 0, 0)" stroke-opacity="1.0" stroke-linecap="round" stroke-linejoin="round"/>
    <path d="M 147.1270294189453 30.27569580078125 C 143.81277465820312 36.30898666381836 161.95138549804688 9.27823257446289 177.9489288330078 10.037039756774902" stroke-width="3.0" fill="none" stroke="rgb(0, 0, 0)" stroke-opacity="1.0" stroke-linecap="round" stroke-linejoin="round"/>
  </g>
</svg>
