<?xml version="1.0" ?>
<svg xmlns="http://www.w3.org/2000/svg" version="1.1" width="224" height="224">
  <defs/>
  <g>
    <path d="M 62.52086639404297 85.11508178710938 C 66.09779357910156 87.3145980834961 63.74519729614258 87.32543182373047 54.53451156616211 78.11136627197266" stroke-width="3.0" fill="none" stroke="rgb(0, 0, 0)" stroke-opacity="1.0" stroke-linecap="round" stroke-linejoin="round"/>
    <path d="M 185.04266357421875 121.79206848144531 C 181.4374237060547 108.67273712158203 196.364990234375 98.55545043945312 176.6093292236328 129.72288513183594" stroke-width="3.0" fill="none" stroke="rgb(0, 0, 0)" stroke-opacity="1.0" stroke-linecap="round" stroke-linejoin="round"/>
    <path d="M 65.44466400146484 117.69401550292969 C 68.92621612548828 103.39662170410156 54.89419174194336 116.67840576171875 71.6986083984375 123.2979507446289" stroke-width="3.0" fill="none" stroke="rgb(0, 0, 0)" stroke-opacity="1.0" stroke-linecap="round" stroke-linejoin="round"/>
    <path d="M 185.64344787597656 98.24576568603516 C 151.99334716796875 87.89007568359375 174.9792938232422 81.33241271972656 197.14749145507812 111.27085876464844" stroke-width="3.0" fill="none" stroke="rgb(0, 0, 0)" stroke-opacity="1.0" stroke-linecap="round" stroke-linejoin="round"/>
    <path d="M 183.32215881347656 73.45707702636719 C 178.5581512451172 104.00276184082031 176.84475708007812 94.56942749023438 178.90396118164062 58.33857727050781" stroke-width="3.0" fill="none" stroke="rgb(0, 0, 0)" stroke-opacity="1.0" stroke-linecap="round" stroke-linejoin="round"/>
    <path d="M 126.06178283691406 104.583984375 C 145.8773956298828 111.42276763916016 98.29850006103516 100.16392517089844 134.8658905029297 100.27550506591797" stroke-width="3.0" fill="none" stroke="rgb(0, 0, 0)" stroke-opacity="1.0" stroke-linecap="round" stroke-linejoin="round"/>
    <path d="M 170.02857971191406 103.85633087158203 C 197.68905639648438 85.59735107421875 183.50833129882812 72.05644226074219 154.32765197753906 85.24522399902344" stroke-width="3.0" fill="none" stroke="rgb(0, 0, 0)" stroke-opacity="1.0" stroke-linecap="round" stroke-linejoin="round"/>
    <path d="M 56.99421691894531 182.07247924804688 C 37.24138641357422 156.96861267089844 49.28116226196289 165.456298828125 46.848121643066406 169.92007446289062" stroke-width="3.0" fill="none" stroke="rgb(0, 0, 0)" stroke-opacity="1.0" stroke-linecap="round" stroke-linejoin="round"/>
    <path d="M 57.28204345703125 182.30538940429688 C 91.14734649658203 210.39976501464844 111.16868591308594 196.87319946289062 131.89479064941406 178.37464904785156" stroke-width="3.0" fill="none" stroke="rgb(0, 0, 0)" stroke-opacity="1.0" stroke-linecap="round" stroke-linejoin="round"/>
    <path d="M 86.9925308227539 30.97298240661621 C 98.7486801147461 62.12760925292969 85.9630355834961 5.943949222564697 89.67422485351562 51.52006149291992" stroke-width="3.0" fill="none" stroke="rgb(0, 0, 0)" stroke-opacity="1.0" stroke-linecap="round" stroke-linejoin="round"/>
    <path d="M 67.79497528076172 113.62796783447266 C 57.62699890136719 136.38870239257812 103.1187515258789 156.16212463378906 98.36709594726562 155.91949462890625" stroke-width="3.0" fill="none" stroke="rgb(0, 0, 0)" stroke-opacity="1.0" stroke-linecap="round" stroke-linejoin="round"/>
    <path d="M 146.42300415039062 72.494873046875 C 199.48338317871094 67.77237701416016 182.1348114013672 83.4990234375 152.7104949951172 83.38884735107422" stroke-width="3.0" fill="none" stroke="rgb(0, 0, 0)" stroke-opacity="1.0" stroke-linecap="round" stroke-linejoin="round"/>
    <path d="M 149.1956787109375 94.58062744140625 C 177.64158630371094 103.59830474853516 177.0467987060547 103.56724548339844 191.40069580078125 109.78602600097656" stroke-width="3.0" fill="none" stroke="rgb(0, 0, 0)" stroke-opacity="1.0" stroke-linecap="round" stroke-linejoin="round"/>
    <path d="M 115.41856384277344 158.54681396484375 C 146.3042449951172 144.3765411376953 117.1728286743164 155.07534790039062 117.608642578125 150.0733642578125" stroke-width="3.0" fill="none" stroke="rgb(0, 0, 0)" stroke-opacity="1.0" stroke-linecap="round" stroke-linejoin="round"/>
    <path d="M 177.95703125 8.130047798156738 C 191.11912536621094 13.621013641357422 177.3990936279297 66.71620178222656 178.89608764648438 47.02701187133789" stroke-width="3.0" fill="none" stroke="rgb(0, 0, 0)" stroke-opacity="1.0" stroke-linecap="round" stroke-linejoin="round"/>
    <path d="M 131.82362365722656 33.67097091674805 C 122.50686645507812 58.150108337402344 132.59219360351562 39.002296447753906 124.7484130859375 72.42589569091797" stroke-width="3.0" fill="none" stroke="rgb(0, 0, 0)" stroke-opacity="1.0" stroke-linecap="round" stroke-linejoin="round"/>
    <path d="M 92.76219177246094 47.099876403808594 C 77.1721420288086 -7.46254825592041 85.34738159179688 -1.6759083271026611 108.71117401123047 39.21222686767578" stroke-width="3.0" fill="none" stroke="rgb(0, 0, 0)" stroke-opacity="1.0" stroke-linecap="round" stroke-linejoin="round"/>
    <path d="M 45.12145233154297 166.27902221679688 C 40.17081832885742 153.42794799804688 39.24319839477539 146.1958465576172 42.01592254638672 158.192626953125" stroke-width="3.0" fill="none" stroke="rgb(0, 0, 0)" stroke-opacity="1.0" stroke-linecap="round" stroke-linejoin="round"/>
    <path d="M 34.15092849731445 104.34956359863281 C 22.16029930114746 126.30341339111328 37.86830520629883 143.45542907714844 40.06892776489258 151.51734924316406" stroke-width="3.0" fill="none" stroke="rgb(0, 0, 0)" stroke-opacity="1.0" stroke-linecap="round" stroke-linejoin="round"/>
    <path d="M 88.57691955566406 149.3755645751953 C 104.67155456542969 159.03370666503906 116.34648132324219 146.67446899414062 105.98213195800781 159.27711486816406" stroke-width="3.0" fill="none" stroke="rgb(0, 0, 0)" stroke-opacity="1.0" stroke-linecap="round" stroke-linejoin="round"/>
    <path d="M 80.99655151367188 198.58779907226562 C 67.3754653930664 197.6665802001953 52.486785888671875 177.30796813964844 48.68775939941406 174.4312744140625" stroke-width="3.0" fill="none" stroke="rgb(0, 0, 0)" stroke-opacity="1.0" stroke-linecap="round" stroke-linejoin="round"/>
    <path d="M 45.245296478271484 162.89585876464844 C 59.36574172973633 192.65745544433594 44.32322692871094 162.94752502441406 38.23457717895508 145.1188201904297" stroke-width="3.0" fill="none" stroke="rgb(0, 0, 0)" stroke-opacity="1.0" stroke-linecap="round" stroke-linejoin="round"/>
    <path d="M 85.00387573242188 53.75830078125 C 56.764469146728516 58.911643981933594 48.901126861572266 71.68307495117188 33.09091567993164 107.32950592041016" stroke-width="3.0" fill="none" stroke="rgb(0, 0, 0)" stroke-opacity="1.0" stroke-linecap="round" stroke-linejoin="round"/>
    <path d="M 150.72779846191406 141.70472717285156 C 129.9622039794922 157.64170837402344 119.28961181640625 148.00323486328125 128.9543914794922 152.1388397216797" stroke-width="3.0" fill="none" stroke="rgb(0, 0, 0)" stroke-opacity="1.0" stroke-linecap="round" stroke-linejoin="round"/>
    <path d="M 139.59063720703125 32.256439208984375 C 146.74380493164062 68.381103515625 136.4360809326172 56.11014938354492 135.17166137695312 75.42855834960938" stroke-width="3.0" fill="none" stroke="rgb(0, 0, 0)" stroke-opacity="1.0" stroke-linecap="round" stroke-linejoin="round"/>
    <path d="M 146.54127502441406 98.36131286621094 C 114.07180786132812 109.98168182373047 133.1634521484375 109.70301818847656 137.32000732421875 103.14159393310547" stroke-width="3.0" fill="none" stroke="rgb(0, 0, 0)" stroke-opacity="1.0" stroke-linecap="round" stroke-linejoin="round"/>
    <path d="M 137.37391662597656 71.52067565917969 C 148.3330535888672 56.33876419067383 134.5670166015625 62.50930404663086 136.71881103515625 69.9556884765625" stroke-width="3.0" fill="none" stroke="rgb(0, 0, 0)" stroke-opacity="1.0" stroke-linecap="round" stroke-linejoin="round"/>
    <path d="M 133.55970764160156 174.6987762451172 C 124.65159606933594 186.48919677734375 138.8592987060547 179.2224884033203 145.8704376220703 146.71047973632812" stroke-width="3.0" fill="none" stroke="rgb(0, 0, 0)" stroke-opacity="1.0" stroke-linecap="round" stroke-linejoin="round"/>
    <path d="M 190.4837646484375 97.04688262939453 C 168.78195190429688 73.6405258178711 156.14727783203125 83.81889343261719 183.29811096191406 85.43264770507812" stroke-width="3.0" fill="none" stroke="rgb(0, 0, 0)" stroke-opacity="1.0" stroke-linecap="round" stroke-linejoin="round"/>
    <path d="M 150.59605407714844 76.92849731445312 C 159.7752227783203 63.76839828491211 197.16427612304688 78.42366790771484 176.1854705810547 65.39385986328125" stroke-width="3.0" fill="none" stroke="rgb(0, 0, 0)" stroke-opacity="1.0" stroke-linecap="round" stroke-linejoin="round"/>
    <path d="M 114.48152160644531 81.46615600585938 C 84.94367980957031 73.1439208984375 133.8285369873047 75.89718627929688 112.75121307373047 78.79198455810547" stroke-width="3.0" fill="none" stroke="rgb(0, 0, 0)" stroke-opacity="1.0" stroke-linecap="round" stroke-linejoin="round"/>
    <path d="M 153.79478454589844 137.77919006347656 C 140.36422729492188 164.80152893066406 115.42566680908203 143.73220825195312 99.52628326416016 158.5126190185547" stroke-width="3.0" fill="none" stroke="rgb(0, 0, 0)" stroke-opacity="1.0" stroke-linecap="round" stroke-linejoin="round"/>
    <path d="M 124.44746398925781 90.26554107666016 C 143.9182586669922 102.35159301757812 133.22239685058594 73.06414031982422 128.84652709960938 105.2106704711914" stroke-width="3.0" fill="none" stroke="rgb(0, 0, 0)" stroke-opacity="1.0" stroke-linecap="round" stroke-linejoin="round"/>
    <path d="M 185.33230590820312 111.36308288574219 C 182.3602294921875 79.75575256347656 188.556396484375 95.66195678710938 140.47702026367188 81.4199447631836" stroke-width="3.0" fill="none" stroke="rgb(0, 0, 0)" stroke-opacity="1.0" stroke-linecap="round" stroke-linejoin="round"/>
    <path d="M 86.21453094482422 8.121091842651367 C 101.15776062011719 16.87681007385254 117.21814727783203 33.282958984375 116.86031341552734 31.844013214111328" stroke-width="3.0" fill="none" stroke="rgb(0, 0, 0)" stroke-opacity="1.0" stroke-linecap="round" stroke-linejoin="round"/>
    <path d="M 63.834083557128906 120.35445404052734 C 58.7008056640625 113.77473449707031 68.89562225341797 132.66258239746094 65.30016326904297 120.04203796386719" stroke-width="3.0" fill="none" stroke="rgb(0, 0, 0)" stroke-opacity="1.0" stroke-linecap="round" stroke-linejoin="round"/>
    <path d="M 137.9324188232422 102.89404296875 C 113.48519897460938 92.90211486816406 122.92158508300781 112.09282684326172 113.37239074707031 87.87272644042969" stroke-width="3.0" fill="none" stroke="rgb(0, 0, 0)" stroke-opacity="1.0" stroke-linecap="round" stroke-linejoin="round"/>
    <path d="M 31.797090530395508 129.4705047607422 C 28.12318229675293 111.19357299804688 35.570404052734375 108.41248321533203 35.643131256103516 101.99755096435547" stroke-width="3.0" fill="none" stroke="rgb(0, 0, 0)" stroke-opacity="1.0" stroke-linecap="round" stroke-linejoin="round"/>
    <path d="M 86.46810150146484 197.14300537109375 C 70.39186096191406 195.63612365722656 65.5400161743164 196.1104736328125 93.98927307128906 198.69456481933594" stroke-width="3.0" fill="none" stroke="rgb(0, 0, 0)" stroke-opacity="1.0" stroke-linecap="round" stroke-linejoin="round"/>
    <path d="M 156.88697814941406 137.6961669921875 C 207.53306579589844 112.27225494384766 180.2183074951172 99.6939468383789 157.6055145263672 90.1397933959961" stroke-width="3.0" fill="none" stroke="rgb(0, 0, 0)" stroke-opacity="1.0" stroke-linecap="round" stroke-linejoin="round"/>
    <path d="M 158.2308807373047 71.96086120605469 C 125.07965850830078 80.44788360595703 175.96844482421875 83.70401000976562 149.2980194091797 70.4808349609375" stroke-width="3.0" fill="none" stroke="rgb(0, 0, 0)" stroke-opacity="1.0" stroke-linecap="round" stroke-linejoin="round"/>
    <path d="M 139.35308837890625 77.6644058227539 C 146.89463806152344 42.40595626831055 194.59921264648438 110.89108276367188 179.84335327148438 45.54248809814453" stroke-width="3.0" fill="none" stroke="rgb(0, 0, 0)" stroke-opacity="1.0" stroke-linecap="round" stroke-linejoin="round"/>
    <path d="M 158.1878662109375 98.47221374511719 C 166.19436645507812 102.16461944580078 174.45123291015625 100.1515121459961 183.54823303222656 119.53163146972656" stroke-width="3.0" fill="none" stroke="rgb(0, 0, 0)" stroke-opacity="1.0" stroke-linecap="round" stroke-linejoin="round"/>
    <path d="M 176.18997192382812 15.618558883666992 C 167.31582641601562 41.198814392089844 172.78590393066406 21.645578384399414 161.8944854736328 36.49856948852539" stroke-width="3.0" fill="none" stroke="rgb(0, 0, 0)" stroke-opacity="1.0" stroke-linecap="round" stroke-linejoin="round"/>
    <path d="M 121.162109375 102.09609985351562 C 142.28407287597656 102.68558502197266 127.94361877441406 112.76628112792969 118.21702575683594 97.49219512939453" stroke-width="3.0" fill="none" stroke="rgb(0, 0, 0)" stroke-opacity="1.0" stroke-linecap="round" stroke-linejoin="round"/>
    <path d="M 70.29352569580078 127.97618865966797 C 56.83245086669922 89.11233520507812 56.56888198852539 101.80857849121094 66.10717010498047 118.52344512939453" stroke-width="3.0" fill="none" stroke="rgb(0, 0, 0)" stroke-opacity="1.0" stroke-linecap="round" stroke-linejoin="round"/>
    <path d="M 122.82292175292969 75.35130310058594 C 124.62240600585938 41.91807556152344 114.69034576416016 57.54832077026367 122.4202880859375 32.04057312011719" stroke-width="3.0" fill="none" stroke="rgb(0, 0, 0)" stroke-opacity="1.0" stroke-linecap="round" stroke-linejoin="round"/>
    <path d="M 145.77667236328125 31.125762939453125 C 143.596435546875 39.71598434448242 157.28387451171875 9.376078605651855 176.48606872558594 6.323573112487793" stroke-width="3.0" fill="none" stroke="rgb(0, 0, 0)" stroke-opacity="1.0" stroke-linecap="round" stroke-linejoin="round"/>
  </g>
</svg>
