<?xml version="1.0" ?>
<svg xmlns="http://www.w3.org/2000/svg" version="1.1" width="224" height="224">
  <defs/>
  <g>
    <path d="M 52.59012985229492 117.2463607788086 C 54.70058822631836 118.41155242919922 44.28120422363281 105.39878845214844 40.295066833496094 93.43645477294922" stroke-width="3.0" fill="none" stroke="rgb(0, 0, 0)" stroke-opacity="1.0" stroke-linecap="round" stroke-linejoin="round"/>
    <path d="M 181.2744598388672 125.5404052734375 C 178.9238739013672 116.78050231933594 180.62225341796875 115.10636901855469 184.9036407470703 121.77790832519531" stroke-width="3.0" fill="none" stroke="rgb(0, 0, 0)" stroke-opacity="1.0" stroke-linecap="round" stroke-linejoin="round"/>
    <path d="M 49.491886138916016 115.05571746826172 C 45.90776443481445 111.55805969238281 48.84452438354492 104.96190643310547 54.421165466308594 122.72525024414062" stroke-width="3.0" fill="none" stroke="rgb(0, 0, 0)" stroke-opacity="1.0" stroke-linecap="round" stroke-linejoin="round"/>
    <path d="M 183.24925231933594 97.66071319580078 C 155.14390563964844 87.96128845214844 170.6530303955078 81.55303192138672 193.97511291503906 113.53632354736328" stroke-width="3.0" fill="none" stroke="rgb(0, 0, 0)" stroke-opacity="1.0" stroke-linecap="round" stroke-linejoin="round"/>
    <path d="M 178.66029357910156 74.88388061523438 C 177.9787139892578 99.81258392333984 175.66079711914062 92.4278335571289 184.7967529296875 66.37857818603516" stroke-width="3.0" fill="none" stroke="rgb(0, 0, 0)" stroke-opacity="1.0" stroke-linecap="round" stroke-linejoin="round"/>
    <path d="M 131.70046997070312 100.73970031738281 C 144.12579345703125 106.30670928955078 102.6097640991211 104.75454711914062 134.0584716796875 105.94807434082031" stroke-width="3.0" fill="none" stroke="rgb(0, 0, 0)" stroke-opacity="1.0" stroke-linecap="round" stroke-linejoin="round"/>
    <path d="M 168.1147918701172 100.17447662353516 C 196.12623596191406 72.4478530883789 182.71775817871094 74.74556732177734 150.99449157714844 85.73755645751953" stroke-width="3.0" fill="none" stroke="rgb(0, 0, 0)" stroke-opacity="1.0" stroke-linecap="round" stroke-linejoin="round"/>
    <path d="M 50.73706817626953 179.8892364501953 C 36.54524230957031 149.7699432373047 48.46401596069336 162.82611083984375 43.85887145996094 159.56529235839844" stroke-width="3.0" fill="none" stroke="rgb(0, 0, 0)" stroke-opacity="1.0" stroke-linecap="round" stroke-linejoin="round"/>
    <path d="M 64.47700500488281 190.9918670654297 C 83.29061126708984 204.71707153320312 109.4003677368164 195.96124267578125 111.392333984375 192.6786346435547" stroke-width="3.0" fill="none" stroke="rgb(0, 0, 0)" stroke-opacity="1.0" stroke-linecap="round" stroke-linejoin="round"/>
    <path d="M 89.00698852539062 25.763294219970703 C 88.48741912841797 55.58266830444336 89.79965209960938 12.366557121276855 87.26923370361328 47.461936950683594" stroke-width="3.0" fill="none" stroke="rgb(0, 0, 0)" stroke-opacity="1.0" stroke-linecap="round" stroke-linejoin="round"/>
    <path d="M 56.20123291015625 126.94949340820312 C 64.57904052734375 142.70335388183594 91.53511047363281 149.32473754882812 98.33539581298828 146.79954528808594" stroke-width="3.0" fill="none" stroke="rgb(0, 0, 0)" stroke-opacity="1.0" stroke-linecap="round" stroke-linejoin="round"/>
    <path d="M 150.87811279296875 67.31147766113281 C 208.5719451904297 77.58671569824219 184.313720703125 82.419189453125 146.6506805419922 85.00249481201172" stroke-width="3.0" fill="none" stroke="rgb(0, 0, 0)" stroke-opacity="1.0" stroke-linecap="round" stroke-linejoin="round"/>
    <path d="M 145.8109588623047 99.9003677368164 C 173.73020935058594 100.88671875 172.83958435058594 102.0869140625 183.33343505859375 108.31312561035156" stroke-width="3.0" fill="none" stroke="rgb(0, 0, 0)" stroke-opacity="1.0" stroke-linecap="round" stroke-linejoin="round"/>
    <path d="M 103.27243041992188 152.08193969726562 C 134.30677795410156 150.0908660888672 116.36064147949219 183.49671936035156 117.8070297241211 181.01052856445312" stroke-width="3.0" fill="none" stroke="rgb(0, 0, 0)" stroke-opacity="1.0" stroke-linecap="round" stroke-linejoin="round"/>
    <path d="M 172.4800262451172 10.215051651000977 C 192.77088928222656 -2.6371703147888184 173.23187255859375 53.82331085205078 185.15966796875 61.44608688354492" stroke-width="3.0" fill="none" stroke="rgb(0, 0, 0)" stroke-opacity="1.0" stroke-linecap="round" stroke-linejoin="round"/>
    <path d="M 129.42213439941406 30.98368263244629 C 127.96492767333984 52.222843170166016 137.65380859375 40.83390426635742 131.0686492919922 69.66496276855469" stroke-width="3.0" fill="none" stroke="rgb(0, 0, 0)" stroke-opacity="1.0" stroke-linecap="round" stroke-linejoin="round"/>
    <path d="M 91.79821014404297 47.99654006958008 C 74.5587387084961 -6.048383712768555 84.07672119140625 0.15297439694404602 102.72686767578125 39.446327209472656" stroke-width="3.0" fill="none" stroke="rgb(0, 0, 0)" stroke-opacity="1.0" stroke-linecap="round" stroke-linejoin="round"/>
    <path d="M 44.29095458984375 162.2091522216797 C 41.77466583251953 152.0108642578125 37.7657470703125 152.75315856933594 42.5842170715332 151.60873413085938" stroke-width="3.0" fill="none" stroke="rgb(0, 0, 0)" stroke-opacity="1.0" stroke-linecap="round" stroke-linejoin="round"/>
    <path d="M 32.582340240478516 109.65711975097656 C 24.114702224731445 128.943115234375 36.66806411743164 142.11074829101562 41.97028350830078 155.82247924804688" stroke-width="3.0" fill="none" stroke="rgb(0, 0, 0)" stroke-opacity="1.0" stroke-linecap="round" stroke-linejoin="round"/>
    <path d="M 83.13863372802734 146.84950256347656 C 101.04777526855469 153.86196899414062 103.89453125 151.97850036621094 97.27412414550781 150.8691864013672" stroke-width="3.0" fill="none" stroke="rgb(0, 0, 0)" stroke-opacity="1.0" stroke-linecap="round" stroke-linejoin="round"/>
    <path d="M 74.34149169921875 197.17684936523438 C 50.87981033325195 182.49549865722656 61.77995681762695 183.45010375976562 47.891448974609375 171.2178192138672" stroke-width="3.0" fill="none" stroke="rgb(0, 0, 0)" stroke-opacity="1.0" stroke-linecap="round" stroke-linejoin="round"/>
    <path d="M 44.16778564453125 162.8922576904297 C 58.26161193847656 185.9678497314453 41.969505310058594 162.92886352539062 39.83673858642578 148.21817016601562" stroke-width="3.0" fill="none" stroke="rgb(0, 0, 0)" stroke-opacity="1.0" stroke-linecap="round" stroke-linejoin="round"/>
    <path d="M 83.0578842163086 52.040771484375 C 57.491336822509766 53.57615280151367 47.36070251464844 75.19142150878906 32.480865478515625 108.68641662597656" stroke-width="3.0" fill="none" stroke="rgb(0, 0, 0)" stroke-opacity="1.0" stroke-linecap="round" stroke-linejoin="round"/>
    <path d="M 147.13088989257812 144.54519653320312 C 142.8686981201172 162.0916290283203 119.94266510009766 151.95375061035156 131.54583740234375 161.30111694335938" stroke-width="3.0" fill="none" stroke="rgb(0, 0, 0)" stroke-opacity="1.0" stroke-linecap="round" stroke-linejoin="round"/>
    <path d="M 138.78146362304688 30.238126754760742 C 150.35760498046875 67.6213150024414 135.67953491210938 54.25141143798828 138.80584716796875 80.08905792236328" stroke-width="3.0" fill="none" stroke="rgb(0, 0, 0)" stroke-opacity="1.0" stroke-linecap="round" stroke-linejoin="round"/>
    <path d="M 142.9765625 102.33895874023438 C 116.93367004394531 102.32842254638672 107.26513671875 100.45084381103516 137.0473175048828 103.92765045166016" stroke-width="3.0" fill="none" stroke="rgb(0, 0, 0)" stroke-opacity="1.0" stroke-linecap="round" stroke-linejoin="round"/>
    <path d="M 138.59722900390625 74.19231414794922 C 152.20700073242188 56.80696105957031 146.34486389160156 57.07634735107422 138.69178771972656 75.86085510253906" stroke-width="3.0" fill="none" stroke="rgb(0, 0, 0)" stroke-opacity="1.0" stroke-linecap="round" stroke-linejoin="round"/>
    <path d="M 125.156005859375 185.89913940429688 C 93.49008178710938 198.75357055664062 129.68524169921875 199.5066680908203 141.02696228027344 158.16583251953125" stroke-width="3.0" fill="none" stroke="rgb(0, 0, 0)" stroke-opacity="1.0" stroke-linecap="round" stroke-linejoin="round"/>
    <path d="M 195.37933349609375 93.7098159790039 C 158.64077758789062 68.16482543945312 137.2915802001953 98.19312286376953 185.19229125976562 84.54222869873047" stroke-width="3.0" fill="none" stroke="rgb(0, 0, 0)" stroke-opacity="1.0" stroke-linecap="round" stroke-linejoin="round"/>
    <path d="M 156.60372924804688 69.72504425048828 C 186.78924560546875 68.3136978149414 193.6880645751953 79.49885559082031 169.4676513671875 72.78507232666016" stroke-width="3.0" fill="none" stroke="rgb(0, 0, 0)" stroke-opacity="1.0" stroke-linecap="round" stroke-linejoin="round"/>
    <path d="M 110.70568084716797 80.08299255371094 C 88.90473175048828 74.11316680908203 138.89845275878906 74.38027954101562 107.25178527832031 81.51888275146484" stroke-width="3.0" fill="none" stroke="rgb(0, 0, 0)" stroke-opacity="1.0" stroke-linecap="round" stroke-linejoin="round"/>
    <path d="M 143.0879364013672 153.96478271484375 C 136.90476989746094 160.97413635253906 123.02243041992188 159.3068389892578 107.16368103027344 149.04348754882812" stroke-width="3.0" fill="none" stroke="rgb(0, 0, 0)" stroke-opacity="1.0" stroke-linecap="round" stroke-linejoin="round"/>
    <path d="M 123.0289306640625 87.47540283203125 C 140.0758056640625 100.98793029785156 131.86537170410156 69.1083984375 127.17945098876953 101.5643310546875" stroke-width="3.0" fill="none" stroke="rgb(0, 0, 0)" stroke-opacity="1.0" stroke-linecap="round" stroke-linejoin="round"/>
    <path d="M 186.7837677001953 107.9795913696289 C 182.08819580078125 83.19873809814453 185.04930114746094 95.61243438720703 141.49375915527344 84.32726287841797" stroke-width="3.0" fill="none" stroke="rgb(0, 0, 0)" stroke-opacity="1.0" stroke-linecap="round" stroke-linejoin="round"/>
    <path d="M 85.26107025146484 7.841906547546387 C 110.41387939453125 20.197498321533203 115.46198272705078 34.2474250793457 122.32508087158203 29.8123722076416" stroke-width="3.0" fill="none" stroke="rgb(0, 0, 0)" stroke-opacity="1.0" stroke-linecap="round" stroke-linejoin="round"/>
    <path d="M 53.050880432128906 117.11725616455078 C 47.07002639770508 109.4592514038086 54.984413146972656 123.69914245605469 53.04647445678711 121.82672882080078" stroke-width="3.0" fill="none" stroke="rgb(0, 0, 0)" stroke-opacity="1.0" stroke-linecap="round" stroke-linejoin="round"/>
    <path d="M 110.6950454711914 103.47400665283203 C 100.60283660888672 86.74174499511719 117.48082733154297 109.19637298583984 103.66616821289062 88.32575988769531" stroke-width="3.0" fill="none" stroke="rgb(0, 0, 0)" stroke-opacity="1.0" stroke-linecap="round" stroke-linejoin="round"/>
    <path d="M 29.90223503112793 127.64772033691406 C 30.528738021850586 107.03807067871094 35.899688720703125 103.41485595703125 30.46232032775879 116.6264419555664" stroke-width="3.0" fill="none" stroke="rgb(0, 0, 0)" stroke-opacity="1.0" stroke-linecap="round" stroke-linejoin="round"/>
    <path d="M 86.5367660522461 197.29730224609375 C 72.84065246582031 199.65159606933594 70.78298950195312 195.35055541992188 94.06595611572266 198.00096130371094" stroke-width="3.0" fill="none" stroke="rgb(0, 0, 0)" stroke-opacity="1.0" stroke-linecap="round" stroke-linejoin="round"/>
    <path d="M 148.6842803955078 145.33450317382812 C 210.17453002929688 113.92674255371094 179.8802032470703 97.10415649414062 151.0839385986328 92.88504791259766" stroke-width="3.0" fill="none" stroke="rgb(0, 0, 0)" stroke-opacity="1.0" stroke-linecap="round" stroke-linejoin="round"/>
    <path d="M 156.83995056152344 75.53801727294922 C 126.09503936767578 76.33157348632812 183.79144287109375 80.22648620605469 149.40428161621094 71.81883239746094" stroke-width="3.0" fill="none" stroke="rgb(0, 0, 0)" stroke-opacity="1.0" stroke-linecap="round" stroke-linejoin="round"/>
    <path d="M 144.03860473632812 73.7569351196289 C 144.91275024414062 50.0257682800293 186.62142944335938 102.27462005615234 183.09768676757812 51.07809829711914" stroke-width="3.0" fill="none" stroke="rgb(0, 0, 0)" stroke-opacity="1.0" stroke-linecap="round" stroke-linejoin="round"/>
    <path d="M 149.2437286376953 96.44991302490234 C 160.32022094726562 102.65681457519531 174.86244201660156 107.41089630126953 184.85829162597656 115.44470977783203" stroke-width="3.0" fill="none" stroke="rgb(0, 0, 0)" stroke-opacity="1.0" stroke-linecap="round" stroke-linejoin="round"/>
    <path d="M 178.99703979492188 14.707256317138672 C 174.26641845703125 42.71882247924805 175.08091735839844 21.66413688659668 160.253173828125 37.1778450012207" stroke-width="3.0" fill="none" stroke="rgb(0, 0, 0)" stroke-opacity="1.0" stroke-linecap="round" stroke-linejoin="round"/>
    <path d="M 129.3649444580078 105.01202392578125 C 144.59266662597656 105.4438705444336 125.08936309814453 113.93755340576172 110.294677734375 98.06718444824219" stroke-width="3.0" fill="none" stroke="rgb(0, 0, 0)" stroke-opacity="1.0" stroke-linecap="round" stroke-linejoin="round"/>
    <path d="M 51.99686050415039 117.9881362915039 C 51.62147903442383 117.04977416992188 44.914329528808594 109.89175415039062 59.3116455078125 131.46942138671875" stroke-width="3.0" fill="none" stroke="rgb(0, 0, 0)" stroke-opacity="1.0" stroke-linecap="round" stroke-linejoin="round"/>
    <path d="M 122.4277114868164 74.15247344970703 C 123.79457092285156 54.84004211425781 118.81937408447266 52.7276496887207 121.04166412353516 32.04316711425781" stroke-width="3.0" fill="none" stroke="rgb(0, 0, 0)" stroke-opacity="1.0" stroke-linecap="round" stroke-linejoin="round"/>
    <path d="M 144.5247344970703 30.34770393371582 C 144.0441436767578 40.81869125366211 150.73696899414062 16.3282470703125 174.10928344726562 8.81157398223877" stroke-width="3.0" fill="none" stroke="rgb(0, 0, 0)" stroke-opacity="1.0" stroke-linecap="round" stroke-linejoin="round"/>
  </g>
</svg>
