<?xml version="1.0" ?>
<svg xmlns="http://www.w3.org/2000/svg" version="1.1" width="224" height="224">
  <defs/>
  <g>
    <path d="M 54.64934539794922 119.33357238769531 C 55.343685150146484 119.48885345458984 45.46625900268555 110.35118865966797 42.875274658203125 94.88114166259766" stroke-width="3.0" fill="none" stroke="rgb(0, 0, 0)" stroke-opacity="1.0" stroke-linecap="round" stroke-linejoin="round"/>
    <path d="M 180.0327911376953 125.60034942626953 C 183.8283233642578 109.07420349121094 184.02664184570312 116.64410400390625 186.28135681152344 117.86478424072266" stroke-width="3.0" fill="none" stroke="rgb(0, 0, 0)" stroke-opacity="1.0" stroke-linecap="round" stroke-linejoin="round"/>
    <path d="M 48.80850601196289 110.18842315673828 C 51.10055923461914 113.54594421386719 47.42195129394531 108.08810424804688 50.98678970336914 114.01837158203125" stroke-width="3.0" fill="none" stroke="rgb(0, 0, 0)" stroke-opacity="1.0" stroke-linecap="round" stroke-linejoin="round"/>
    <path d="M 185.07247924804688 97.2593994140625 C 155.06442260742188 100.75132751464844 176.03558349609375 83.95616149902344 196.15232849121094 113.50814056396484" stroke-width="3.0" fill="none" stroke="rgb(0, 0, 0)" stroke-opacity="1.0" stroke-linecap="round" stroke-linejoin="round"/>
    <path d="M 184.4385986328125 78.72130584716797 C 182.7140655517578 87.48023986816406 174.4745330810547 80.38145446777344 185.1576385498047 64.39358520507812" stroke-width="3.0" fill="none" stroke="rgb(0, 0, 0)" stroke-opacity="1.0" stroke-linecap="round" stroke-linejoin="round"/>
    <path d="M 128.08981323242188 97.83272552490234 C 134.61373901367188 115.21922302246094 111.31551361083984 99.93879699707031 135.45608520507812 103.30329895019531" stroke-width="3.0" fill="none" stroke="rgb(0, 0, 0)" stroke-opacity="1.0" stroke-linecap="round" stroke-linejoin="round"/>
    <path d="M 167.7849884033203 94.86421203613281 C 199.24221801757812 65.20100402832031 180.744140625 67.14585876464844 158.63107299804688 83.79876708984375" stroke-width="3.0" fill="none" stroke="rgb(0, 0, 0)" stroke-opacity="1.0" stroke-linecap="round" stroke-linejoin="round"/>
    <path d="M 53.98383712768555 181.7564697265625 C 36.80216598510742 151.56817626953125 42.6512451171875 159.20953369140625 40.93306350708008 157.5917510986328" stroke-width="3.0" fill="none" stroke="rgb(0, 0, 0)" stroke-opacity="1.0" stroke-linecap="round" stroke-linejoin="round"/>
    <path d="M 67.80802154541016 192.6192626953125 C 85.02506256103516 202.62628173828125 111.51520538330078 194.09217834472656 104.39588928222656 196.09329223632812" stroke-width="3.0" fill="none" stroke="rgb(0, 0, 0)" stroke-opacity="1.0" stroke-linecap="round" stroke-linejoin="round"/>
    <path d="M 88.95069122314453 25.755144119262695 C 91.47279357910156 65.74602508544922 88.60226440429688 31.9320125579834 88.8626480102539 53.323486328125" stroke-width="3.0" fill="none" stroke="rgb(0, 0, 0)" stroke-opacity="1.0" stroke-linecap="round" stroke-linejoin="round"/>
    <path d="M 59.12897491455078 127.5896987915039 C 68.19496154785156 140.2738494873047 84.07393646240234 143.6579132080078 82.801513671875 143.1213836669922" stroke-width="3.0" fill="none" stroke="rgb(0, 0, 0)" stroke-opacity="1.0" stroke-linecap="round" stroke-linejoin="round"/>
    <path d="M 169.85350036621094 82.7452163696289 C 197.77658081054688 77.30197143554688 174.5315704345703 81.38880157470703 141.04278564453125 88.7786636352539" stroke-width="3.0" fill="none" stroke="rgb(0, 0, 0)" stroke-opacity="1.0" stroke-linecap="round" stroke-linejoin="round"/>
    <path d="M 157.6690673828125 98.97119903564453 C 176.90390014648438 100.62041473388672 170.35374450683594 100.09353637695312 187.2557830810547 107.57918548583984" stroke-width="3.0" fill="none" stroke="rgb(0, 0, 0)" stroke-opacity="1.0" stroke-linecap="round" stroke-linejoin="round"/>
    <path d="M 96.73539733886719 156.29934692382812 C 115.26057434082031 166.79031372070312 104.42776489257812 186.4836883544922 111.6886215209961 190.7953643798828" stroke-width="3.0" fill="none" stroke="rgb(0, 0, 0)" stroke-opacity="1.0" stroke-linecap="round" stroke-linejoin="round"/>
    <path d="M 170.81015014648438 10.8541898727417 C 190.0790252685547 0.5503104329109192 176.61204528808594 38.937313079833984 185.01324462890625 59.342777252197266" stroke-width="3.0" fill="none" stroke="rgb(0, 0, 0)" stroke-opacity="1.0" stroke-linecap="round" stroke-linejoin="round"/>
    <path d="M 133.8435821533203 30.21379280090332 C 127.58776092529297 66.13524627685547 130.45814514160156 37.06590270996094 131.1197967529297 65.37864685058594" stroke-width="3.0" fill="none" stroke="rgb(0, 0, 0)" stroke-opacity="1.0" stroke-linecap="round" stroke-linejoin="round"/>
    <path d="M 96.46444702148438 44.756839752197266 C 67.5882797241211 -4.446991443634033 82.35612487792969 4.1722869873046875 103.36441040039062 42.07765197753906" stroke-width="3.0" fill="none" stroke="rgb(0, 0, 0)" stroke-opacity="1.0" stroke-linecap="round" stroke-linejoin="round"/>
    <path d="M 44.62860870361328 161.9728546142578 C 40.993465423583984 154.511474609375 44.40966033935547 159.15444946289062 45.63273620605469 162.6504669189453" stroke-width="3.0" fill="none" stroke="rgb(0, 0, 0)" stroke-opacity="1.0" stroke-linecap="round" stroke-linejoin="round"/>
    <path d="M 32.686561584472656 103.7710189819336 C 24.683382034301758 127.58130645751953 37.48870086669922 140.35569763183594 43.58937454223633 155.48922729492188" stroke-width="3.0" fill="none" stroke="rgb(0, 0, 0)" stroke-opacity="1.0" stroke-linecap="round" stroke-linejoin="round"/>
    <path d="M 86.30652618408203 145.71080017089844 C 96.6243667602539 156.48301696777344 98.38969421386719 158.02047729492188 90.40485382080078 150.82017517089844" stroke-width="3.0" fill="none" stroke="rgb(0, 0, 0)" stroke-opacity="1.0" stroke-linecap="round" stroke-linejoin="round"/>
    <path d="M 72.98487091064453 195.2400360107422 C 46.53165817260742 179.4211883544922 67.06461334228516 191.0255584716797 47.85866928100586 173.57521057128906" stroke-width="3.0" fill="none" stroke="rgb(0, 0, 0)" stroke-opacity="1.0" stroke-linecap="round" stroke-linejoin="round"/>
    <path d="M 41.805076599121094 157.85198974609375 C 51.21211624145508 169.64620971679688 40.83589172363281 157.07098388671875 39.546810150146484 147.9177703857422" stroke-width="3.0" fill="none" stroke="rgb(0, 0, 0)" stroke-opacity="1.0" stroke-linecap="round" stroke-linejoin="round"/>
    <path d="M 83.06035614013672 53.173587799072266 C 51.31900405883789 59.73088836669922 49.127437591552734 72.48257446289062 31.527006149291992 106.32138061523438" stroke-width="3.0" fill="none" stroke="rgb(0, 0, 0)" stroke-opacity="1.0" stroke-linecap="round" stroke-linejoin="round"/>
    <path d="M 146.6936798095703 156.80738830566406 C 144.3740692138672 162.12161254882812 129.01792907714844 144.67369079589844 142.33859252929688 162.43785095214844" stroke-width="3.0" fill="none" stroke="rgb(0, 0, 0)" stroke-opacity="1.0" stroke-linecap="round" stroke-linejoin="round"/>
    <path d="M 141.43826293945312 30.48039436340332 C 147.83203125 51.98065948486328 133.79031372070312 52.552242279052734 140.4750518798828 80.74163818359375" stroke-width="3.0" fill="none" stroke="rgb(0, 0, 0)" stroke-opacity="1.0" stroke-linecap="round" stroke-linejoin="round"/>
    <path d="M 141.5186767578125 100.14788818359375 C 126.16407775878906 116.1424560546875 121.50957489013672 104.4011459350586 127.8174057006836 102.34574127197266" stroke-width="3.0" fill="none" stroke="rgb(0, 0, 0)" stroke-opacity="1.0" stroke-linecap="round" stroke-linejoin="round"/>
    <path d="M 138.35781860351562 75.5713882446289 C 144.54525756835938 48.47140884399414 148.77420043945312 59.78017044067383 149.62704467773438 46.49148941040039" stroke-width="3.0" fill="none" stroke="rgb(0, 0, 0)" stroke-opacity="1.0" stroke-linecap="round" stroke-linejoin="round"/>
    <path d="M 120.19815826416016 188.3664093017578 C 99.0110092163086 190.15626525878906 111.91785430908203 204.26025390625 135.28004455566406 171.39695739746094" stroke-width="3.0" fill="none" stroke="rgb(0, 0, 0)" stroke-opacity="1.0" stroke-linecap="round" stroke-linejoin="round"/>
    <path d="M 190.89352416992188 92.52635192871094 C 162.037353515625 77.17631530761719 152.1960906982422 99.29000091552734 185.145263671875 83.55059814453125" stroke-width="3.0" fill="none" stroke="rgb(0, 0, 0)" stroke-opacity="1.0" stroke-linecap="round" stroke-linejoin="round"/>
    <path d="M 161.85972595214844 74.26042175292969 C 190.35162353515625 77.04145050048828 197.17869567871094 71.96852111816406 162.6774139404297 76.12158966064453" stroke-width="3.0" fill="none" stroke="rgb(0, 0, 0)" stroke-opacity="1.0" stroke-linecap="round" stroke-linejoin="round"/>
    <path d="M 110.67066192626953 78.72322082519531 C 89.28254699707031 71.9502182006836 140.03659057617188 75.49881744384766 107.30725860595703 81.35951232910156" stroke-width="3.0" fill="none" stroke="rgb(0, 0, 0)" stroke-opacity="1.0" stroke-linecap="round" stroke-linejoin="round"/>
    <path d="M 137.3230438232422 154.812744140625 C 139.26084899902344 153.13739013671875 126.11738586425781 155.08546447753906 107.43693542480469 137.5367431640625" stroke-width="3.0" fill="none" stroke="rgb(0, 0, 0)" stroke-opacity="1.0" stroke-linecap="round" stroke-linejoin="round"/>
    <path d="M 122.37076568603516 87.53076934814453 C 135.8748321533203 100.97046661376953 135.7713623046875 76.8631591796875 128.01060485839844 95.50696563720703" stroke-width="3.0" fill="none" stroke="rgb(0, 0, 0)" stroke-opacity="1.0" stroke-linecap="round" stroke-linejoin="round"/>
    <path d="M 188.25042724609375 98.681396484375 C 170.06472778320312 81.42361450195312 183.22593688964844 98.71649932861328 140.36021423339844 83.49906158447266" stroke-width="3.0" fill="none" stroke="rgb(0, 0, 0)" stroke-opacity="1.0" stroke-linecap="round" stroke-linejoin="round"/>
    <path d="M 83.9362564086914 8.799700736999512 C 112.92949676513672 18.833866119384766 115.84616088867188 34.563392639160156 125.45842742919922 30.751609802246094" stroke-width="3.0" fill="none" stroke="rgb(0, 0, 0)" stroke-opacity="1.0" stroke-linecap="round" stroke-linejoin="round"/>
    <path d="M 52.16910934448242 116.58319854736328 C 49.905677795410156 109.38404083251953 57.80979919433594 122.74868774414062 51.62199020385742 112.99712371826172" stroke-width="3.0" fill="none" stroke="rgb(0, 0, 0)" stroke-opacity="1.0" stroke-linecap="round" stroke-linejoin="round"/>
    <path d="M 118.89063262939453 100.40718841552734 C 95.27548217773438 86.08673858642578 122.52467346191406 101.48397064208984 108.87796020507812 93.72463989257812" stroke-width="3.0" fill="none" stroke="rgb(0, 0, 0)" stroke-opacity="1.0" stroke-linecap="round" stroke-linejoin="round"/>
    <path d="M 30.151975631713867 117.72102355957031 C 33.69730758666992 97.1888656616211 32.104190826416016 101.03196716308594 29.965978622436523 115.4172592163086" stroke-width="3.0" fill="none" stroke="rgb(0, 0, 0)" stroke-opacity="1.0" stroke-linecap="round" stroke-linejoin="round"/>
    <path d="M 90.39039611816406 199.8543243408203 C 72.06205749511719 196.3494415283203 69.40909576416016 192.93057250976562 91.7845230102539 199.19175720214844" stroke-width="3.0" fill="none" stroke="rgb(0, 0, 0)" stroke-opacity="1.0" stroke-linecap="round" stroke-linejoin="round"/>
    <path d="M 156.68490600585938 134.86380004882812 C 207.36671447753906 113.0153579711914 177.20608520507812 96.97135162353516 149.91624450683594 92.28264617919922" stroke-width="3.0" fill="none" stroke="rgb(0, 0, 0)" stroke-opacity="1.0" stroke-linecap="round" stroke-linejoin="round"/>
    <path d="M 153.73391723632812 75.43905639648438 C 130.5264892578125 69.556396484375 164.97702026367188 90.9384765625 149.7213897705078 72.49600982666016" stroke-width="3.0" fill="none" stroke="rgb(0, 0, 0)" stroke-opacity="1.0" stroke-linecap="round" stroke-linejoin="round"/>
    <path d="M 144.15989685058594 77.56305694580078 C 143.86399841308594 57.5396842956543 188.97386169433594 92.57901000976562 184.5972137451172 61.17890548706055" stroke-width="3.0" fill="none" stroke="rgb(0, 0, 0)" stroke-opacity="1.0" stroke-linecap="round" stroke-linejoin="round"/>
    <path d="M 145.64012145996094 96.83363342285156 C 157.53863525390625 96.39337158203125 170.52427673339844 107.55956268310547 184.54290771484375 112.5494155883789" stroke-width="3.0" fill="none" stroke="rgb(0, 0, 0)" stroke-opacity="1.0" stroke-linecap="round" stroke-linejoin="round"/>
    <path d="M 178.5189666748047 19.61649513244629 C 169.9439697265625 46.90412521362305 173.50050354003906 27.160669326782227 165.9103546142578 37.06593322753906" stroke-width="3.0" fill="none" stroke="rgb(0, 0, 0)" stroke-opacity="1.0" stroke-linecap="round" stroke-linejoin="round"/>
    <path d="M 124.28080749511719 105.09961700439453 C 153.51519775390625 106.87285614013672 130.19419860839844 98.01403045654297 112.11731719970703 100.29073333740234" stroke-width="3.0" fill="none" stroke="rgb(0, 0, 0)" stroke-opacity="1.0" stroke-linecap="round" stroke-linejoin="round"/>
    <path d="M 51.5415153503418 113.31082153320312 C 54.526710510253906 113.87260437011719 46.679542541503906 108.14910125732422 58.68624496459961 127.93792724609375" stroke-width="3.0" fill="none" stroke="rgb(0, 0, 0)" stroke-opacity="1.0" stroke-linecap="round" stroke-linejoin="round"/>
    <path d="M 122.63463592529297 80.26930236816406 C 129.2546844482422 59.758384704589844 116.06005096435547 54.040611267089844 123.45027160644531 33.36956024169922" stroke-width="3.0" fill="none" stroke="rgb(0, 0, 0)" stroke-opacity="1.0" stroke-linecap="round" stroke-linejoin="round"/>
    <path d="M 145.73692321777344 30.18053436279297 C 148.61517333984375 34.2682991027832 151.3098602294922 15.973957061767578 173.79263305664062 9.135652542114258" stroke-width="3.0" fill="none" stroke="rgb(0, 0, 0)" stroke-opacity="1.0" stroke-linecap="round" stroke-linejoin="round"/>
  </g>
</svg>
