<?xml version="1.0" ?>
<svg xmlns="http://www.w3.org/2000/svg" version="1.1" width="224" height="224">
  <defs/>
  <g>
    <path d="M 52.58513641357422 116.62604522705078 C 56.80007553100586 116.9747085571289 42.676700592041016 107.10789489746094 38.56547164916992 96.92334747314453" stroke-width="3.0" fill="none" stroke="rgb(0, 0, 0)" stroke-opacity="1.0" stroke-linecap="round" stroke-linejoin="round"/>
    <path d="M 182.23008728027344 126.56272888183594 C 182.4698944091797 112.50733947753906 186.2269744873047 116.0538101196289 188.55319213867188 121.11611938476562" stroke-width="3.0" fill="none" stroke="rgb(0, 0, 0)" stroke-opacity="1.0" stroke-linecap="round" stroke-linejoin="round"/>
    <path d="M 49.692901611328125 112.86759948730469 C 49.08980178833008 115.20598602294922 47.72270202636719 107.1794204711914 52.35786819458008 115.11154174804688" stroke-width="3.0" fill="none" stroke="rgb(0, 0, 0)" stroke-opacity="1.0" stroke-linecap="round" stroke-linejoin="round"/>
    <path d="M 184.99476623535156 96.32238006591797 C 152.63540649414062 91.43729400634766 171.74227905273438 76.0280532836914 197.53758239746094 113.57513427734375" stroke-width="3.0" fill="none" stroke="rgb(0, 0, 0)" stroke-opacity="1.0" stroke-linecap="round" stroke-linejoin="round"/>
    <path d="M 185.83302307128906 73.6462631225586 C 186.3557586669922 94.85211181640625 181.18978881835938 84.11739349365234 187.11703491210938 67.4254150390625" stroke-width="3.0" fill="none" stroke="rgb(0, 0, 0)" stroke-opacity="1.0" stroke-linecap="round" stroke-linejoin="round"/>
    <path d="M 130.7997589111328 98.19917297363281 C 148.04965209960938 115.11216735839844 107.86804962158203 101.0903549194336 132.60398864746094 103.4989013671875" stroke-width="3.0" fill="none" stroke="rgb(0, 0, 0)" stroke-opacity="1.0" stroke-linecap="round" stroke-linejoin="round"/>
    <path d="M 170.7485809326172 96.48383331298828 C 199.7868194580078 71.10253143310547 187.83522033691406 77.0717544555664 154.27439880371094 86.31542205810547" stroke-width="3.0" fill="none" stroke="rgb(0, 0, 0)" stroke-opacity="1.0" stroke-linecap="round" stroke-linejoin="round"/>
    <path d="M 50.8792610168457 179.6558380126953 C 35.68925094604492 153.8153839111328 44.08418655395508 161.99484252929688 38.736000061035156 152.74270629882812" stroke-width="3.0" fill="none" stroke="rgb(0, 0, 0)" stroke-opacity="1.0" stroke-linecap="round" stroke-linejoin="round"/>
    <path d="M 67.92378234863281 190.930908203125 C 88.67761993408203 200.996337890625 104.26736450195312 193.29666137695312 104.18869018554688 194.21151733398438" stroke-width="3.0" fill="none" stroke="rgb(0, 0, 0)" stroke-opacity="1.0" stroke-linecap="round" stroke-linejoin="round"/>
    <path d="M 90.56241607666016 24.99029541015625 C 90.12522888183594 72.84567260742188 88.2454833984375 25.830873489379883 90.73406219482422 60.296051025390625" stroke-width="3.0" fill="none" stroke="rgb(0, 0, 0)" stroke-opacity="1.0" stroke-linecap="round" stroke-linejoin="round"/>
    <path d="M 58.42274475097656 125.83072662353516 C 68.926025390625 139.05178833007812 86.64283752441406 143.4505157470703 85.92504119873047 141.88980102539062" stroke-width="3.0" fill="none" stroke="rgb(0, 0, 0)" stroke-opacity="1.0" stroke-linecap="round" stroke-linejoin="round"/>
    <path d="M 151.08338928222656 73.60504913330078 C 209.5502166748047 72.69512176513672 186.3961944580078 86.98392486572266 142.2702178955078 87.17607879638672" stroke-width="3.0" fill="none" stroke="rgb(0, 0, 0)" stroke-opacity="1.0" stroke-linecap="round" stroke-linejoin="round"/>
    <path d="M 146.42666625976562 102.10737609863281 C 178.5578155517578 106.00862884521484 174.6317901611328 98.46898651123047 189.90638732910156 108.30317687988281" stroke-width="3.0" fill="none" stroke="rgb(0, 0, 0)" stroke-opacity="1.0" stroke-linecap="round" stroke-linejoin="round"/>
    <path d="M 100.82300567626953 152.84783935546875 C 121.47895050048828 158.2552490234375 108.18101501464844 186.12091064453125 109.39635467529297 189.10484313964844" stroke-width="3.0" fill="none" stroke="rgb(0, 0, 0)" stroke-opacity="1.0" stroke-linecap="round" stroke-linejoin="round"/>
    <path d="M 172.37216186523438 8.998408317565918 C 188.58416748046875 -2.7439124584198 178.13482666015625 48.115936279296875 185.481689453125 58.96018981933594" stroke-width="3.0" fill="none" stroke="rgb(0, 0, 0)" stroke-opacity="1.0" stroke-linecap="round" stroke-linejoin="round"/>
    <path d="M 131.871826171875 33.126007080078125 C 129.7762908935547 64.06767272949219 136.39561462402344 41.236019134521484 132.38136291503906 70.14339447021484" stroke-width="3.0" fill="none" stroke="rgb(0, 0, 0)" stroke-opacity="1.0" stroke-linecap="round" stroke-linejoin="round"/>
    <path d="M 93.90213012695312 47.28907012939453 C 72.44754791259766 -4.47726583480835 85.2784194946289 1.4725825786590576 104.31768798828125 40.171592712402344" stroke-width="3.0" fill="none" stroke="rgb(0, 0, 0)" stroke-opacity="1.0" stroke-linecap="round" stroke-linejoin="round"/>
    <path d="M 41.134361267089844 161.5439453125 C 39.973995208740234 152.73898315429688 41.607704162597656 151.89337158203125 40.11956024169922 156.45211791992188" stroke-width="3.0" fill="none" stroke="rgb(0, 0, 0)" stroke-opacity="1.0" stroke-linecap="round" stroke-linejoin="round"/>
    <path d="M 30.853670120239258 106.5248031616211 C 24.443323135375977 126.04376220703125 36.46599578857422 142.27749633789062 40.79811096191406 152.00067138671875" stroke-width="3.0" fill="none" stroke="rgb(0, 0, 0)" stroke-opacity="1.0" stroke-linecap="round" stroke-linejoin="round"/>
    <path d="M 88.04300689697266 146.81883239746094 C 98.8987045288086 155.3423614501953 101.64761352539062 155.4201202392578 92.69795989990234 149.2200164794922" stroke-width="3.0" fill="none" stroke="rgb(0, 0, 0)" stroke-opacity="1.0" stroke-linecap="round" stroke-linejoin="round"/>
    <path d="M 75.26402282714844 194.55258178710938 C 47.28262710571289 178.45945739746094 61.920040130615234 184.5898895263672 45.73222351074219 172.92764282226562" stroke-width="3.0" fill="none" stroke="rgb(0, 0, 0)" stroke-opacity="1.0" stroke-linecap="round" stroke-linejoin="round"/>
    <path d="M 42.40284729003906 166.26480102539062 C 56.334415435791016 178.4298858642578 39.09910202026367 159.74839782714844 38.089210510253906 145.9034423828125" stroke-width="3.0" fill="none" stroke="rgb(0, 0, 0)" stroke-opacity="1.0" stroke-linecap="round" stroke-linejoin="round"/>
    <path d="M 85.79993438720703 54.620521545410156 C 59.40704345703125 57.357017517089844 43.88787841796875 73.52438354492188 30.448211669921875 105.05801391601562" stroke-width="3.0" fill="none" stroke="rgb(0, 0, 0)" stroke-opacity="1.0" stroke-linecap="round" stroke-linejoin="round"/>
    <path d="M 147.2458953857422 144.60943603515625 C 141.82394409179688 165.90574645996094 124.88522338867188 148.3540496826172 138.08580017089844 164.15847778320312" stroke-width="3.0" fill="none" stroke="rgb(0, 0, 0)" stroke-opacity="1.0" stroke-linecap="round" stroke-linejoin="round"/>
    <path d="M 142.4453582763672 32.205562591552734 C 149.5757293701172 64.59014129638672 137.12863159179688 59.304710388183594 139.88714599609375 80.31912231445312" stroke-width="3.0" fill="none" stroke="rgb(0, 0, 0)" stroke-opacity="1.0" stroke-linecap="round" stroke-linejoin="round"/>
    <path d="M 142.36766052246094 98.75636291503906 C 128.56005859375 115.26415252685547 117.9521484375 101.44734191894531 131.8861541748047 102.82382202148438" stroke-width="3.0" fill="none" stroke="rgb(0, 0, 0)" stroke-opacity="1.0" stroke-linecap="round" stroke-linejoin="round"/>
    <path d="M 138.82545471191406 74.95553588867188 C 148.19422912597656 54.9559326171875 151.7764129638672 59.65531539916992 148.9235382080078 59.403594970703125" stroke-width="3.0" fill="none" stroke="rgb(0, 0, 0)" stroke-opacity="1.0" stroke-linecap="round" stroke-linejoin="round"/>
    <path d="M 120.25921630859375 186.3782958984375 C 91.82704162597656 191.87451171875 116.9893798828125 201.5672607421875 134.5523681640625 166.90533447265625" stroke-width="3.0" fill="none" stroke="rgb(0, 0, 0)" stroke-opacity="1.0" stroke-linecap="round" stroke-linejoin="round"/>
    <path d="M 196.14703369140625 95.86504364013672 C 160.28622436523438 68.6921615600586 139.0903778076172 96.47798919677734 187.49546813964844 86.50492858886719" stroke-width="3.0" fill="none" stroke="rgb(0, 0, 0)" stroke-opacity="1.0" stroke-linecap="round" stroke-linejoin="round"/>
    <path d="M 166.65489196777344 73.24027252197266 C 191.22702026367188 72.90608978271484 195.873779296875 78.7424545288086 167.38002014160156 74.47993469238281" stroke-width="3.0" fill="none" stroke="rgb(0, 0, 0)" stroke-opacity="1.0" stroke-linecap="round" stroke-linejoin="round"/>
    <path d="M 106.44371795654297 79.77552032470703 C 87.01856231689453 73.65040588378906 138.71998596191406 76.40519714355469 103.538330078125 82.5307846069336" stroke-width="3.0" fill="none" stroke="rgb(0, 0, 0)" stroke-opacity="1.0" stroke-linecap="round" stroke-linejoin="round"/>
    <path d="M 139.73690795898438 159.54383850097656 C 129.16290283203125 152.81471252441406 122.74516296386719 158.5514373779297 104.74186706542969 140.4470977783203" stroke-width="3.0" fill="none" stroke="rgb(0, 0, 0)" stroke-opacity="1.0" stroke-linecap="round" stroke-linejoin="round"/>
    <path d="M 121.99142456054688 88.69501495361328 C 138.46946716308594 96.88040924072266 132.4766082763672 78.59524536132812 126.43256378173828 96.6589584350586" stroke-width="3.0" fill="none" stroke="rgb(0, 0, 0)" stroke-opacity="1.0" stroke-linecap="round" stroke-linejoin="round"/>
    <path d="M 189.4351043701172 100.35293579101562 C 178.08642578125 84.06593322753906 187.6481475830078 97.48741149902344 140.12710571289062 84.19388580322266" stroke-width="3.0" fill="none" stroke="rgb(0, 0, 0)" stroke-opacity="1.0" stroke-linecap="round" stroke-linejoin="round"/>
    <path d="M 85.79568481445312 10.086502075195312 C 113.02365112304688 17.712665557861328 114.27222442626953 32.69921875 122.47440338134766 31.442182540893555" stroke-width="3.0" fill="none" stroke="rgb(0, 0, 0)" stroke-opacity="1.0" stroke-linecap="round" stroke-linejoin="round"/>
    <path d="M 52.30354690551758 115.24055480957031 C 48.946292877197266 109.46527099609375 57.534915924072266 123.44010925292969 53.767845153808594 116.9805679321289" stroke-width="3.0" fill="none" stroke="rgb(0, 0, 0)" stroke-opacity="1.0" stroke-linecap="round" stroke-linejoin="round"/>
    <path d="M 111.69402313232422 103.62638854980469 C 97.81282043457031 85.69110870361328 118.15876007080078 103.71074676513672 105.47042083740234 93.94991302490234" stroke-width="3.0" fill="none" stroke="rgb(0, 0, 0)" stroke-opacity="1.0" stroke-linecap="round" stroke-linejoin="round"/>
    <path d="M 29.16990852355957 125.5577621459961 C 27.516334533691406 97.56993103027344 30.736284255981445 101.96004486083984 30.839502334594727 114.6918716430664" stroke-width="3.0" fill="none" stroke="rgb(0, 0, 0)" stroke-opacity="1.0" stroke-linecap="round" stroke-linejoin="round"/>
    <path d="M 92.2746353149414 196.28317260742188 C 74.27714538574219 197.0141143798828 71.1465072631836 194.7557830810547 96.35794067382812 197.26181030273438" stroke-width="3.0" fill="none" stroke="rgb(0, 0, 0)" stroke-opacity="1.0" stroke-linecap="round" stroke-linejoin="round"/>
    <path d="M 153.07711791992188 142.050537109375 C 212.2812042236328 114.19719696044922 181.4393310546875 97.11222076416016 152.79046630859375 91.3353042602539" stroke-width="3.0" fill="none" stroke="rgb(0, 0, 0)" stroke-opacity="1.0" stroke-linecap="round" stroke-linejoin="round"/>
    <path d="M 156.9140167236328 76.42156219482422 C 126.85340118408203 75.86795806884766 171.20657348632812 87.73878479003906 149.6589813232422 71.30890655517578" stroke-width="3.0" fill="none" stroke="rgb(0, 0, 0)" stroke-opacity="1.0" stroke-linecap="round" stroke-linejoin="round"/>
    <path d="M 145.6128692626953 75.29522705078125 C 142.6960906982422 53.895389556884766 186.3409423828125 103.40998840332031 185.5258331298828 61.80466079711914" stroke-width="3.0" fill="none" stroke="rgb(0, 0, 0)" stroke-opacity="1.0" stroke-linecap="round" stroke-linejoin="round"/>
    <path d="M 150.8610076904297 96.77019500732422 C 163.40090942382812 99.491943359375 173.3065185546875 105.29585266113281 185.11041259765625 113.02053833007812" stroke-width="3.0" fill="none" stroke="rgb(0, 0, 0)" stroke-opacity="1.0" stroke-linecap="round" stroke-linejoin="round"/>
    <path d="M 177.1099853515625 17.695600509643555 C 167.83151245117188 41.56016540527344 181.04397583007812 25.999670028686523 163.2423858642578 43.360923767089844" stroke-width="3.0" fill="none" stroke="rgb(0, 0, 0)" stroke-opacity="1.0" stroke-linecap="round" stroke-linejoin="round"/>
    <path d="M 125.4951171875 106.58129119873047 C 149.9551239013672 105.86807250976562 124.249267578125 112.5748519897461 112.4941635131836 101.83064270019531" stroke-width="3.0" fill="none" stroke="rgb(0, 0, 0)" stroke-opacity="1.0" stroke-linecap="round" stroke-linejoin="round"/>
    <path d="M 52.10017776489258 115.24584197998047 C 52.10908889770508 115.75901794433594 45.9287109375 108.57778930664062 60.428916931152344 127.89212799072266" stroke-width="3.0" fill="none" stroke="rgb(0, 0, 0)" stroke-opacity="1.0" stroke-linecap="round" stroke-linejoin="round"/>
    <path d="M 122.26683807373047 80.18817901611328 C 126.94965362548828 58.948753356933594 116.31280517578125 55.75499725341797 121.79729461669922 37.57215881347656" stroke-width="3.0" fill="none" stroke="rgb(0, 0, 0)" stroke-opacity="1.0" stroke-linecap="round" stroke-linejoin="round"/>
    <path d="M 147.58282470703125 30.531951904296875 C 146.11593627929688 39.41550827026367 150.1463623046875 17.52117919921875 177.51609802246094 7.712522983551025" stroke-width="3.0" fill="none" stroke="rgb(0, 0, 0)" stroke-opacity="1.0" stroke-linecap="round" stroke-linejoin="round"/>
  </g>
</svg>
