<?xml version="1.0" ?>
<svg xmlns="http://www.w3.org/2000/svg" version="1.1" width="224" height="224">
  <defs/>
  <g>
    <path d="M 58.37321853637695 99.00960540771484 C 57.176822662353516 89.32525634765625 53.11296463012695 99.45604705810547 50.63098907470703 74.92513275146484" stroke-width="3.0" fill="none" stroke="rgb(0, 0, 0)" stroke-opacity="1.0" stroke-linecap="round" stroke-linejoin="round"/>
    <path d="M 186.72698974609375 117.04358673095703 C 184.20285034179688 113.95561218261719 196.1781463623047 80.21946716308594 181.636962890625 126.29492950439453" stroke-width="3.0" fill="none" stroke="rgb(0, 0, 0)" stroke-opacity="1.0" stroke-linecap="round" stroke-linejoin="round"/>
    <path d="M 57.30933380126953 110.52381896972656 C 64.16670989990234 99.4349365234375 56.66523742675781 126.4393310546875 69.2575912475586 130.52590942382812" stroke-width="3.0" fill="none" stroke="rgb(0, 0, 0)" stroke-opacity="1.0" stroke-linecap="round" stroke-linejoin="round"/>
    <path d="M 182.1248779296875 95.47721099853516 C 140.25875854492188 84.21762084960938 182.2128448486328 83.37796020507812 191.3809814453125 106.68387603759766" stroke-width="3.0" fill="none" stroke="rgb(0, 0, 0)" stroke-opacity="1.0" stroke-linecap="round" stroke-linejoin="round"/>
    <path d="M 184.2410125732422 64.56015014648438 C 185.32479858398438 97.47428131103516 179.4409942626953 99.22798919677734 181.7947235107422 72.86727905273438" stroke-width="3.0" fill="none" stroke="rgb(0, 0, 0)" stroke-opacity="1.0" stroke-linecap="round" stroke-linejoin="round"/>
    <path d="M 120.92817687988281 100.27120208740234 C 144.9600372314453 115.29391479492188 111.893310546875 98.9248275756836 141.2836151123047 98.60578918457031" stroke-width="3.0" fill="none" stroke="rgb(0, 0, 0)" stroke-opacity="1.0" stroke-linecap="round" stroke-linejoin="round"/>
    <path d="M 183.8484344482422 91.81334686279297 C 181.16342163085938 77.17102813720703 189.6190643310547 71.62628936767578 146.17120361328125 88.4146957397461" stroke-width="3.0" fill="none" stroke="rgb(0, 0, 0)" stroke-opacity="1.0" stroke-linecap="round" stroke-linejoin="round"/>
    <path d="M 64.82414245605469 190.2128448486328 C 37.90018081665039 164.1374969482422 51.24844741821289 167.64686584472656 48.48088455200195 170.6471710205078" stroke-width="3.0" fill="none" stroke="rgb(0, 0, 0)" stroke-opacity="1.0" stroke-linecap="round" stroke-linejoin="round"/>
    <path d="M 58.65562438964844 182.34478759765625 C 91.30339813232422 210.97344970703125 122.81877136230469 197.46961975097656 137.06149291992188 172.7006378173828" stroke-width="3.0" fill="none" stroke="rgb(0, 0, 0)" stroke-opacity="1.0" stroke-linecap="round" stroke-linejoin="round"/>
    <path d="M 87.85196685791016 32.71085739135742 C 96.00264739990234 78.74052429199219 85.5233154296875 9.394445419311523 88.34113311767578 56.65913391113281" stroke-width="3.0" fill="none" stroke="rgb(0, 0, 0)" stroke-opacity="1.0" stroke-linecap="round" stroke-linejoin="round"/>
    <path d="M 51.41770935058594 82.11519622802734 C 69.63461303710938 142.69195556640625 74.9126205444336 144.23587036132812 70.08476257324219 134.95126342773438" stroke-width="3.0" fill="none" stroke="rgb(0, 0, 0)" stroke-opacity="1.0" stroke-linecap="round" stroke-linejoin="round"/>
    <path d="M 148.41522216796875 70.1041259765625 C 203.36419677734375 65.1312255859375 194.43505859375 88.91844177246094 137.702880859375 82.77317810058594" stroke-width="3.0" fill="none" stroke="rgb(0, 0, 0)" stroke-opacity="1.0" stroke-linecap="round" stroke-linejoin="round"/>
    <path d="M 151.37991333007812 92.59169006347656 C 178.3923797607422 103.5711669921875 181.10072326660156 101.37989807128906 194.01470947265625 114.7398681640625" stroke-width="3.0" fill="none" stroke="rgb(0, 0, 0)" stroke-opacity="1.0" stroke-linecap="round" stroke-linejoin="round"/>
    <path d="M 119.53218078613281 153.75401306152344 C 151.6981658935547 157.65150451660156 108.97384643554688 148.74935913085938 98.62725830078125 155.21253967285156" stroke-width="3.0" fill="none" stroke="rgb(0, 0, 0)" stroke-opacity="1.0" stroke-linecap="round" stroke-linejoin="round"/>
    <path d="M 179.44944763183594 7.705355167388916 C 188.46304321289062 22.476146697998047 171.79263305664062 70.54364013671875 181.4109649658203 55.325042724609375" stroke-width="3.0" fill="none" stroke="rgb(0, 0, 0)" stroke-opacity="1.0" stroke-linecap="round" stroke-linejoin="round"/>
    <path d="M 136.1165008544922 30.565481185913086 C 103.20158386230469 25.298006057739258 134.5052490234375 40.3857307434082 122.34032440185547 66.93441772460938" stroke-width="3.0" fill="none" stroke="rgb(0, 0, 0)" stroke-opacity="1.0" stroke-linecap="round" stroke-linejoin="round"/>
    <path d="M 95.89190673828125 46.6313591003418 C 67.47028350830078 -4.17395544052124 83.91261291503906 5.396964073181152 121.18601989746094 34.984275817871094" stroke-width="3.0" fill="none" stroke="rgb(0, 0, 0)" stroke-opacity="1.0" stroke-linecap="round" stroke-linejoin="round"/>
    <path d="M 46.63461685180664 165.6386260986328 C 40.375362396240234 156.47364807128906 39.887115478515625 146.69241333007812 48.205780029296875 172.6321258544922" stroke-width="3.0" fill="none" stroke="rgb(0, 0, 0)" stroke-opacity="1.0" stroke-linecap="round" stroke-linejoin="round"/>
    <path d="M 34.88798904418945 93.97494506835938 C 20.18703842163086 134.59912109375 41.927459716796875 143.38992309570312 42.91606903076172 161.93289184570312" stroke-width="3.0" fill="none" stroke="rgb(0, 0, 0)" stroke-opacity="1.0" stroke-linecap="round" stroke-linejoin="round"/>
    <path d="M 71.08341979980469 139.5846405029297 C 109.06791687011719 163.2154541015625 90.85938262939453 150.84365844726562 91.23263549804688 148.951904296875" stroke-width="3.0" fill="none" stroke="rgb(0, 0, 0)" stroke-opacity="1.0" stroke-linecap="round" stroke-linejoin="round"/>
    <path d="M 90.08113861083984 198.25460815429688 C 68.81405639648438 203.39520263671875 49.79734802246094 175.2294921875 47.654727935791016 170.22000122070312" stroke-width="3.0" fill="none" stroke="rgb(0, 0, 0)" stroke-opacity="1.0" stroke-linecap="round" stroke-linejoin="round"/>
    <path d="M 50.73026657104492 173.26515197753906 C 68.19934844970703 193.24285888671875 46.11789321899414 171.27334594726562 38.53997039794922 148.85647583007812" stroke-width="3.0" fill="none" stroke="rgb(0, 0, 0)" stroke-opacity="1.0" stroke-linecap="round" stroke-linejoin="round"/>
    <path d="M 83.39278411865234 52.09103012084961 C 65.83416748046875 54.53596496582031 52.34453582763672 75.58015441894531 32.83633804321289 111.68225860595703" stroke-width="3.0" fill="none" stroke="rgb(0, 0, 0)" stroke-opacity="1.0" stroke-linecap="round" stroke-linejoin="round"/>
    <path d="M 155.93360900878906 141.62777709960938 C 113.84990692138672 161.2120361328125 102.03060913085938 153.36334228515625 147.1615447998047 148.8594512939453" stroke-width="3.0" fill="none" stroke="rgb(0, 0, 0)" stroke-opacity="1.0" stroke-linecap="round" stroke-linejoin="round"/>
    <path d="M 151.8868865966797 31.173330307006836 C 136.05133056640625 33.32771682739258 127.30522918701172 9.745743751525879 136.88551330566406 85.28227233886719" stroke-width="3.0" fill="none" stroke="rgb(0, 0, 0)" stroke-opacity="1.0" stroke-linecap="round" stroke-linejoin="round"/>
    <path d="M 141.439208984375 91.10096740722656 C 135.3588104248047 104.15172576904297 126.6961441040039 96.762939453125 117.97711944580078 99.19928741455078" stroke-width="3.0" fill="none" stroke="rgb(0, 0, 0)" stroke-opacity="1.0" stroke-linecap="round" stroke-linejoin="round"/>
    <path d="M 135.87376403808594 78.15775299072266 C 139.42987060546875 61.78947448730469 126.976318359375 76.9381332397461 136.69190979003906 82.50951385498047" stroke-width="3.0" fill="none" stroke="rgb(0, 0, 0)" stroke-opacity="1.0" stroke-linecap="round" stroke-linejoin="round"/>
    <path d="M 138.9978485107422 164.6689453125 C 129.15963745117188 181.7040557861328 138.4700927734375 171.28477478027344 145.37649536132812 147.34092712402344" stroke-width="3.0" fill="none" stroke="rgb(0, 0, 0)" stroke-opacity="1.0" stroke-linecap="round" stroke-linejoin="round"/>
    <path d="M 193.8622283935547 93.41230773925781 C 164.21621704101562 74.9260482788086 173.8712158203125 79.73729705810547 184.90171813964844 94.18097686767578" stroke-width="3.0" fill="none" stroke="rgb(0, 0, 0)" stroke-opacity="1.0" stroke-linecap="round" stroke-linejoin="round"/>
    <path d="M 155.58164978027344 68.52417755126953 C 121.03372192382812 57.560909271240234 205.5096435546875 87.76649475097656 180.04953002929688 69.13214874267578" stroke-width="3.0" fill="none" stroke="rgb(0, 0, 0)" stroke-opacity="1.0" stroke-linecap="round" stroke-linejoin="round"/>
    <path d="M 111.81190490722656 83.21587371826172 C 93.57511901855469 73.14803314208984 140.02566528320312 78.40715026855469 110.07245635986328 84.67449951171875" stroke-width="3.0" fill="none" stroke="rgb(0, 0, 0)" stroke-opacity="1.0" stroke-linecap="round" stroke-linejoin="round"/>
    <path d="M 165.74635314941406 130.09848022460938 C 153.26197814941406 159.80264282226562 110.44900512695312 151.53895568847656 108.3856430053711 158.72537231445312" stroke-width="3.0" fill="none" stroke="rgb(0, 0, 0)" stroke-opacity="1.0" stroke-linecap="round" stroke-linejoin="round"/>
    <path d="M 121.2882080078125 88.31087493896484 C 136.5600128173828 98.28827667236328 126.95352935791016 73.48562622070312 124.95423889160156 103.51416015625" stroke-width="3.0" fill="none" stroke="rgb(0, 0, 0)" stroke-opacity="1.0" stroke-linecap="round" stroke-linejoin="round"/>
    <path d="M 185.5382080078125 112.58370971679688 C 163.71302795410156 86.3000259399414 190.1672821044922 86.7637710571289 151.2021942138672 88.84685516357422" stroke-width="3.0" fill="none" stroke="rgb(0, 0, 0)" stroke-opacity="1.0" stroke-linecap="round" stroke-linejoin="round"/>
    <path d="M 85.38855743408203 13.290572166442871 C 113.47960662841797 15.5153169631958 106.49525451660156 32.35694122314453 134.12078857421875 29.954648971557617" stroke-width="3.0" fill="none" stroke="rgb(0, 0, 0)" stroke-opacity="1.0" stroke-linecap="round" stroke-linejoin="round"/>
    <path d="M 61.869136810302734 115.51687622070312 C 61.93744659423828 106.70342254638672 63.46478271484375 122.24656677246094 67.50089263916016 131.05763244628906" stroke-width="3.0" fill="none" stroke="rgb(0, 0, 0)" stroke-opacity="1.0" stroke-linecap="round" stroke-linejoin="round"/>
    <path d="M 130.24989318847656 106.85308837890625 C 143.2616729736328 91.68733978271484 119.34558868408203 118.32862091064453 113.54907989501953 88.7972183227539" stroke-width="3.0" fill="none" stroke="rgb(0, 0, 0)" stroke-opacity="1.0" stroke-linecap="round" stroke-linejoin="round"/>
    <path d="M 31.748363494873047 132.95237731933594 C 26.99265480041504 115.35343933105469 35.44487762451172 88.8395767211914 56.11013412475586 70.47201538085938" stroke-width="3.0" fill="none" stroke="rgb(0, 0, 0)" stroke-opacity="1.0" stroke-linecap="round" stroke-linejoin="round"/>
    <path d="M 84.40837860107422 197.79957580566406 C 67.8182601928711 191.9121551513672 71.94893646240234 193.2772216796875 104.04379272460938 197.2082977294922" stroke-width="3.0" fill="none" stroke="rgb(0, 0, 0)" stroke-opacity="1.0" stroke-linecap="round" stroke-linejoin="round"/>
    <path d="M 169.141357421875 131.1002655029297 C 199.84237670898438 115.33485412597656 178.05726623535156 97.98831176757812 156.30223083496094 87.16039276123047" stroke-width="3.0" fill="none" stroke="rgb(0, 0, 0)" stroke-opacity="1.0" stroke-linecap="round" stroke-linejoin="round"/>
    <path d="M 153.73843383789062 73.07328796386719 C 136.5021514892578 84.96749877929688 174.0624237060547 73.78617858886719 148.23597717285156 74.09339141845703" stroke-width="3.0" fill="none" stroke="rgb(0, 0, 0)" stroke-opacity="1.0" stroke-linecap="round" stroke-linejoin="round"/>
    <path d="M 139.53228759765625 79.7156982421875 C 144.75770568847656 37.499755859375 197.9315185546875 110.04241943359375 179.08668518066406 45.31063461303711" stroke-width="3.0" fill="none" stroke="rgb(0, 0, 0)" stroke-opacity="1.0" stroke-linecap="round" stroke-linejoin="round"/>
    <path d="M 151.01332092285156 100.6246566772461 C 169.43360900878906 102.18675994873047 172.12550354003906 103.12007141113281 180.23416137695312 120.7159652709961" stroke-width="3.0" fill="none" stroke="rgb(0, 0, 0)" stroke-opacity="1.0" stroke-linecap="round" stroke-linejoin="round"/>
    <path d="M 178.32656860351562 20.205387115478516 C 169.76300048828125 36.654640197753906 166.54995727539062 14.64112377166748 146.28988647460938 30.84564781188965" stroke-width="3.0" fill="none" stroke="rgb(0, 0, 0)" stroke-opacity="1.0" stroke-linecap="round" stroke-linejoin="round"/>
    <path d="M 116.74236297607422 97.96527862548828 C 150.02377319335938 89.998779296875 132.48696899414062 112.56964874267578 119.89434814453125 101.1004638671875" stroke-width="3.0" fill="none" stroke="rgb(0, 0, 0)" stroke-opacity="1.0" stroke-linecap="round" stroke-linejoin="round"/>
    <path d="M 68.85689544677734 124.72850036621094 C 50.84716033935547 116.33885192871094 61.16712951660156 109.2919692993164 61.81499481201172 115.2252197265625" stroke-width="3.0" fill="none" stroke="rgb(0, 0, 0)" stroke-opacity="1.0" stroke-linecap="round" stroke-linejoin="round"/>
    <path d="M 121.33991241455078 75.68467712402344 C 121.90985107421875 44.1370849609375 121.79959869384766 48.670772552490234 118.08091735839844 36.59193420410156" stroke-width="3.0" fill="none" stroke="rgb(0, 0, 0)" stroke-opacity="1.0" stroke-linecap="round" stroke-linejoin="round"/>
    <path d="M 156.00485229492188 26.16018295288086 C 146.1464080810547 31.025896072387695 164.73141479492188 6.435998439788818 178.1392822265625 7.628506183624268" stroke-width="3.0" fill="none" stroke="rgb(0, 0, 0)" stroke-opacity="1.0" stroke-linecap="round" stroke-linejoin="round"/>
  </g>
</svg>
