<?xml version="1.0" ?>
<svg xmlns="http://www.w3.org/2000/svg" version="1.1" width="224" height="224">
  <defs/>
  <g>
    <path d="M 53.4311408996582 117.0385513305664 C 56.89454650878906 117.64173126220703 43.497982025146484 105.43128204345703 44.561492919921875 87.33959197998047" stroke-width="3.0" fill="none" stroke="rgb(0, 0, 0)" stroke-opacity="1.0" stroke-linecap="round" stroke-linejoin="round"/>
    <path d="M 182.96836853027344 126.56043243408203 C 179.4258575439453 117.7575912475586 185.62074279785156 113.72681427001953 188.0733642578125 118.0876693725586" stroke-width="3.0" fill="none" stroke="rgb(0, 0, 0)" stroke-opacity="1.0" stroke-linecap="round" stroke-linejoin="round"/>
    <path d="M 52.811100006103516 115.16468048095703 C 49.54197692871094 110.6461410522461 51.480472564697266 105.8807144165039 55.719791412353516 121.50003814697266" stroke-width="3.0" fill="none" stroke="rgb(0, 0, 0)" stroke-opacity="1.0" stroke-linecap="round" stroke-linejoin="round"/>
    <path d="M 184.5440216064453 98.6064224243164 C 153.8739013671875 90.22078704833984 172.73114013671875 80.79300689697266 195.51467895507812 114.26568603515625" stroke-width="3.0" fill="none" stroke="rgb(0, 0, 0)" stroke-opacity="1.0" stroke-linecap="round" stroke-linejoin="round"/>
    <path d="M 179.0708770751953 74.11385345458984 C 175.7393341064453 99.52528381347656 176.62771606445312 93.65215301513672 184.7688751220703 67.67489624023438" stroke-width="3.0" fill="none" stroke="rgb(0, 0, 0)" stroke-opacity="1.0" stroke-linecap="round" stroke-linejoin="round"/>
    <path d="M 127.99602508544922 104.34994506835938 C 144.58885192871094 105.77246856689453 100.12141418457031 103.68917083740234 140.36988830566406 101.79444885253906" stroke-width="3.0" fill="none" stroke="rgb(0, 0, 0)" stroke-opacity="1.0" stroke-linecap="round" stroke-linejoin="round"/>
    <path d="M 172.3047332763672 99.86103057861328 C 194.66123962402344 74.15233612060547 181.78782653808594 76.12752532958984 151.6251678466797 87.12751770019531" stroke-width="3.0" fill="none" stroke="rgb(0, 0, 0)" stroke-opacity="1.0" stroke-linecap="round" stroke-linejoin="round"/>
    <path d="M 51.40760040283203 177.7906494140625 C 32.731590270996094 154.61427307128906 49.321685791015625 166.3335723876953 43.80116271972656 163.14573669433594" stroke-width="3.0" fill="none" stroke="rgb(0, 0, 0)" stroke-opacity="1.0" stroke-linecap="round" stroke-linejoin="round"/>
    <path d="M 64.80021667480469 191.0343017578125 C 84.64253234863281 205.39981079101562 108.98160552978516 196.57009887695312 115.2126235961914 193.76951599121094" stroke-width="3.0" fill="none" stroke="rgb(0, 0, 0)" stroke-opacity="1.0" stroke-linecap="round" stroke-linejoin="round"/>
    <path d="M 86.878662109375 36.80335235595703 C 91.51113891601562 49.31675338745117 88.13599395751953 2.018754482269287 86.3779067993164 53.39773178100586" stroke-width="3.0" fill="none" stroke="rgb(0, 0, 0)" stroke-opacity="1.0" stroke-linecap="round" stroke-linejoin="round"/>
    <path d="M 57.37175750732422 125.99490356445312 C 65.44207000732422 140.1730499267578 93.98355102539062 147.10357666015625 91.1418685913086 151.79847717285156" stroke-width="3.0" fill="none" stroke="rgb(0, 0, 0)" stroke-opacity="1.0" stroke-linecap="round" stroke-linejoin="round"/>
    <path d="M 152.0435028076172 69.57622528076172 C 205.91629028320312 78.57182312011719 182.73043823242188 83.19636535644531 148.0023651123047 86.3750228881836" stroke-width="3.0" fill="none" stroke="rgb(0, 0, 0)" stroke-opacity="1.0" stroke-linecap="round" stroke-linejoin="round"/>
    <path d="M 146.83596801757812 97.52684020996094 C 175.61026000976562 99.80684661865234 178.99058532714844 100.1592025756836 184.17076110839844 109.04623413085938" stroke-width="3.0" fill="none" stroke="rgb(0, 0, 0)" stroke-opacity="1.0" stroke-linecap="round" stroke-linejoin="round"/>
    <path d="M 99.55393981933594 155.2271728515625 C 144.65370178222656 146.5404052734375 118.43470764160156 174.63641357421875 119.88422393798828 173.04750061035156" stroke-width="3.0" fill="none" stroke="rgb(0, 0, 0)" stroke-opacity="1.0" stroke-linecap="round" stroke-linejoin="round"/>
    <path d="M 173.09542846679688 9.143102645874023 C 194.05697631835938 -1.3318030834197998 173.70680236816406 58.22577667236328 183.50555419921875 56.57493209838867" stroke-width="3.0" fill="none" stroke="rgb(0, 0, 0)" stroke-opacity="1.0" stroke-linecap="round" stroke-linejoin="round"/>
    <path d="M 127.23974609375 31.164852142333984 C 128.31362915039062 50.13897705078125 135.3764190673828 39.14810562133789 129.6917266845703 65.04249572753906" stroke-width="3.0" fill="none" stroke="rgb(0, 0, 0)" stroke-opacity="1.0" stroke-linecap="round" stroke-linejoin="round"/>
    <path d="M 90.10249328613281 47.083038330078125 C 73.74870300292969 -5.124017715454102 84.47000885009766 -0.36778953671455383 101.75704956054688 38.14897155761719" stroke-width="3.0" fill="none" stroke="rgb(0, 0, 0)" stroke-opacity="1.0" stroke-linecap="round" stroke-linejoin="round"/>
    <path d="M 42.43531036376953 163.3026123046875 C 39.116065979003906 154.57931518554688 38.71241760253906 150.7676239013672 38.20462417602539 147.1497344970703" stroke-width="3.0" fill="none" stroke="rgb(0, 0, 0)" stroke-opacity="1.0" stroke-linecap="round" stroke-linejoin="round"/>
    <path d="M 33.06606674194336 108.23228454589844 C 24.699745178222656 130.40003967285156 37.989566802978516 139.79214477539062 41.22636032104492 157.8917694091797" stroke-width="3.0" fill="none" stroke="rgb(0, 0, 0)" stroke-opacity="1.0" stroke-linecap="round" stroke-linejoin="round"/>
    <path d="M 85.50945281982422 147.0313262939453 C 104.15049743652344 155.13433837890625 106.84334564208984 157.6026611328125 91.19132232666016 152.1468505859375" stroke-width="3.0" fill="none" stroke="rgb(0, 0, 0)" stroke-opacity="1.0" stroke-linecap="round" stroke-linejoin="round"/>
    <path d="M 74.14793395996094 197.9706268310547 C 52.58514404296875 184.02236938476562 56.798187255859375 186.9725799560547 46.34361267089844 172.07029724121094" stroke-width="3.0" fill="none" stroke="rgb(0, 0, 0)" stroke-opacity="1.0" stroke-linecap="round" stroke-linejoin="round"/>
    <path d="M 42.872108459472656 164.6206817626953 C 54.67852783203125 192.14981079101562 40.97964859008789 164.68572998046875 37.71366882324219 149.82823181152344" stroke-width="3.0" fill="none" stroke="rgb(0, 0, 0)" stroke-opacity="1.0" stroke-linecap="round" stroke-linejoin="round"/>
    <path d="M 81.7400894165039 55.733272552490234 C 56.52350616455078 56.903995513916016 47.69937515258789 74.78884887695312 33.2328987121582 108.4381332397461" stroke-width="3.0" fill="none" stroke="rgb(0, 0, 0)" stroke-opacity="1.0" stroke-linecap="round" stroke-linejoin="round"/>
    <path d="M 149.3521270751953 145.0373992919922 C 138.10301208496094 158.11012268066406 121.19209289550781 153.0473175048828 132.37425231933594 159.3396453857422" stroke-width="3.0" fill="none" stroke="rgb(0, 0, 0)" stroke-opacity="1.0" stroke-linecap="round" stroke-linejoin="round"/>
    <path d="M 135.6083221435547 31.533916473388672 C 144.4898681640625 67.4624252319336 131.26576232910156 51.480621337890625 140.27920532226562 80.24007415771484" stroke-width="3.0" fill="none" stroke="rgb(0, 0, 0)" stroke-opacity="1.0" stroke-linecap="round" stroke-linejoin="round"/>
    <path d="M 144.14247131347656 99.28433227539062 C 118.21839141845703 101.54906463623047 110.23181915283203 107.91667175292969 135.3377685546875 104.5716552734375" stroke-width="3.0" fill="none" stroke="rgb(0, 0, 0)" stroke-opacity="1.0" stroke-linecap="round" stroke-linejoin="round"/>
    <path d="M 137.36863708496094 75.80155181884766 C 144.96197509765625 51.389034271240234 140.80545043945312 56.732017517089844 137.2854461669922 72.291748046875" stroke-width="3.0" fill="none" stroke="rgb(0, 0, 0)" stroke-opacity="1.0" stroke-linecap="round" stroke-linejoin="round"/>
    <path d="M 125.67919921875 184.30364990234375 C 98.51742553710938 198.2201690673828 130.45782470703125 196.31861877441406 141.0352783203125 156.3706817626953" stroke-width="3.0" fill="none" stroke="rgb(0, 0, 0)" stroke-opacity="1.0" stroke-linecap="round" stroke-linejoin="round"/>
    <path d="M 196.22100830078125 95.64059448242188 C 158.58572387695312 72.2479248046875 138.385009765625 98.75762176513672 184.8517303466797 86.83738708496094" stroke-width="3.0" fill="none" stroke="rgb(0, 0, 0)" stroke-opacity="1.0" stroke-linecap="round" stroke-linejoin="round"/>
    <path d="M 147.82162475585938 74.3936767578125 C 190.71896362304688 64.86683654785156 193.89926147460938 81.6115493774414 171.08987426757812 75.35093688964844" stroke-width="3.0" fill="none" stroke="rgb(0, 0, 0)" stroke-opacity="1.0" stroke-linecap="round" stroke-linejoin="round"/>
    <path d="M 107.36725616455078 78.21536254882812 C 90.12055206298828 71.41004943847656 137.2515411376953 76.32782745361328 108.66122436523438 80.93433380126953" stroke-width="3.0" fill="none" stroke="rgb(0, 0, 0)" stroke-opacity="1.0" stroke-linecap="round" stroke-linejoin="round"/>
    <path d="M 142.77572631835938 150.52796936035156 C 142.60191345214844 158.56405639648438 126.52374267578125 154.11077880859375 106.78837585449219 156.13250732421875" stroke-width="3.0" fill="none" stroke="rgb(0, 0, 0)" stroke-opacity="1.0" stroke-linecap="round" stroke-linejoin="round"/>
    <path d="M 123.10040283203125 89.1440200805664 C 142.88897705078125 100.5012435913086 132.41189575195312 71.5664291381836 128.14138793945312 102.39215850830078" stroke-width="3.0" fill="none" stroke="rgb(0, 0, 0)" stroke-opacity="1.0" stroke-linecap="round" stroke-linejoin="round"/>
    <path d="M 189.50204467773438 109.59765625 C 185.63241577148438 83.68415832519531 183.26434326171875 98.23907470703125 141.90521240234375 86.41539764404297" stroke-width="3.0" fill="none" stroke="rgb(0, 0, 0)" stroke-opacity="1.0" stroke-linecap="round" stroke-linejoin="round"/>
    <path d="M 82.99419403076172 7.8596272468566895 C 108.17160034179688 19.294431686401367 113.15933227539062 35.04081344604492 121.21842956542969 31.70834732055664" stroke-width="3.0" fill="none" stroke="rgb(0, 0, 0)" stroke-opacity="1.0" stroke-linecap="round" stroke-linejoin="round"/>
    <path d="M 53.35813903808594 115.98792266845703 C 50.20734786987305 107.97181701660156 56.9736328125 122.70988464355469 55.02912139892578 121.61332702636719" stroke-width="3.0" fill="none" stroke="rgb(0, 0, 0)" stroke-opacity="1.0" stroke-linecap="round" stroke-linejoin="round"/>
    <path d="M 115.83477783203125 99.62177276611328 C 107.83859252929688 84.71858978271484 118.52395629882812 110.00846099853516 108.02843475341797 88.69180297851562" stroke-width="3.0" fill="none" stroke="rgb(0, 0, 0)" stroke-opacity="1.0" stroke-linecap="round" stroke-linejoin="round"/>
    <path d="M 31.30168914794922 130.84385681152344 C 29.227357864379883 110.45875549316406 35.24028015136719 103.813232421875 31.146774291992188 116.78204345703125" stroke-width="3.0" fill="none" stroke="rgb(0, 0, 0)" stroke-opacity="1.0" stroke-linecap="round" stroke-linejoin="round"/>
    <path d="M 84.53555297851562 198.96934509277344 C 73.4264144897461 197.01673889160156 68.9516372680664 200.48846435546875 95.65119934082031 199.40591430664062" stroke-width="3.0" fill="none" stroke="rgb(0, 0, 0)" stroke-opacity="1.0" stroke-linecap="round" stroke-linejoin="round"/>
    <path d="M 151.2055206298828 144.25369262695312 C 211.73876953125 110.56932067871094 183.06301879882812 97.51007080078125 150.4380340576172 93.06903076171875" stroke-width="3.0" fill="none" stroke="rgb(0, 0, 0)" stroke-opacity="1.0" stroke-linecap="round" stroke-linejoin="round"/>
    <path d="M 156.99752807617188 75.25936126708984 C 119.8621597290039 81.98163604736328 179.68148803710938 79.50887298583984 144.7711181640625 74.85455322265625" stroke-width="3.0" fill="none" stroke="rgb(0, 0, 0)" stroke-opacity="1.0" stroke-linecap="round" stroke-linejoin="round"/>
    <path d="M 141.93182373046875 75.9502944946289 C 148.917724609375 51.00668716430664 188.74118041992188 100.19652557373047 182.430419921875 49.84531784057617" stroke-width="3.0" fill="none" stroke="rgb(0, 0, 0)" stroke-opacity="1.0" stroke-linecap="round" stroke-linejoin="round"/>
    <path d="M 150.5223388671875 98.41168212890625 C 162.02639770507812 99.97167205810547 175.5991973876953 106.9709243774414 186.93484497070312 115.0992431640625" stroke-width="3.0" fill="none" stroke="rgb(0, 0, 0)" stroke-opacity="1.0" stroke-linecap="round" stroke-linejoin="round"/>
    <path d="M 177.66055297851562 16.7648983001709 C 172.1893768310547 43.22694396972656 172.2479248046875 27.261444091796875 161.5985870361328 38.399993896484375" stroke-width="3.0" fill="none" stroke="rgb(0, 0, 0)" stroke-opacity="1.0" stroke-linecap="round" stroke-linejoin="round"/>
    <path d="M 127.42162322998047 105.25215148925781 C 138.61593627929688 107.42515563964844 128.56948852539062 115.15962982177734 110.39873504638672 97.59703063964844" stroke-width="3.0" fill="none" stroke="rgb(0, 0, 0)" stroke-opacity="1.0" stroke-linecap="round" stroke-linejoin="round"/>
    <path d="M 53.05796432495117 117.29889678955078 C 55.17055130004883 114.53156280517578 46.60790252685547 109.14002227783203 59.57516098022461 129.8199920654297" stroke-width="3.0" fill="none" stroke="rgb(0, 0, 0)" stroke-opacity="1.0" stroke-linecap="round" stroke-linejoin="round"/>
    <path d="M 122.92001342773438 73.75182342529297 C 125.88580322265625 50.15160369873047 114.9654541015625 53.21213912963867 120.25157928466797 32.1196403503418" stroke-width="3.0" fill="none" stroke="rgb(0, 0, 0)" stroke-opacity="1.0" stroke-linecap="round" stroke-linejoin="round"/>
    <path d="M 144.8986053466797 34.22818374633789 C 144.75013732910156 41.763336181640625 150.94747924804688 15.98304271697998 176.65902709960938 7.55887508392334" stroke-width="3.0" fill="none" stroke="rgb(0, 0, 0)" stroke-opacity="1.0" stroke-linecap="round" stroke-linejoin="round"/>
  </g>
</svg>
