<?xml version="1.0" ?>
<svg xmlns="http://www.w3.org/2000/svg" version="1.1" width="224" height="224">
  <defs/>
  <g>
    <path d="M 65.46047973632812 90.39476776123047 C 65.68802642822266 90.40565490722656 70.29735565185547 94.7323226928711 51.673072814941406 80.45375061035156" stroke-width="3.0" fill="none" stroke="rgb(0, 0, 0)" stroke-opacity="1.0" stroke-linecap="round" stroke-linejoin="round"/>
    <path d="M 183.0047149658203 124.84407043457031 C 176.01535034179688 111.09059143066406 197.9689178466797 86.94505310058594 176.2444305419922 128.19973754882812" stroke-width="3.0" fill="none" stroke="rgb(0, 0, 0)" stroke-opacity="1.0" stroke-linecap="round" stroke-linejoin="round"/>
    <path d="M 57.52324676513672 109.58287811279297 C 50.771087646484375 109.38117218017578 56.15497970581055 124.02909851074219 68.66584777832031 132.62928771972656" stroke-width="3.0" fill="none" stroke="rgb(0, 0, 0)" stroke-opacity="1.0" stroke-linecap="round" stroke-linejoin="round"/>
    <path d="M 185.42584228515625 90.9267807006836 C 137.79293823242188 90.17964172363281 174.73422241210938 82.42681884765625 190.2639617919922 106.17919921875" stroke-width="3.0" fill="none" stroke="rgb(0, 0, 0)" stroke-opacity="1.0" stroke-linecap="round" stroke-linejoin="round"/>
    <path d="M 182.99966430664062 69.58080291748047 C 191.19427490234375 112.63533020019531 190.0240936279297 101.09723663330078 187.05018615722656 73.1467514038086" stroke-width="3.0" fill="none" stroke="rgb(0, 0, 0)" stroke-opacity="1.0" stroke-linecap="round" stroke-linejoin="round"/>
    <path d="M 126.49215698242188 105.44622802734375 C 146.63059997558594 113.1007080078125 109.50448608398438 92.12041473388672 138.976806640625 100.97601318359375" stroke-width="3.0" fill="none" stroke="rgb(0, 0, 0)" stroke-opacity="1.0" stroke-linecap="round" stroke-linejoin="round"/>
    <path d="M 175.7269287109375 84.86029815673828 C 197.23117065429688 85.53753662109375 190.32485961914062 71.47398376464844 149.61911010742188 85.3058090209961" stroke-width="3.0" fill="none" stroke="rgb(0, 0, 0)" stroke-opacity="1.0" stroke-linecap="round" stroke-linejoin="round"/>
    <path d="M 65.02027893066406 190.11375427246094 C 37.253387451171875 162.30450439453125 50.16425704956055 168.94371032714844 49.32893371582031 171.65444946289062" stroke-width="3.0" fill="none" stroke="rgb(0, 0, 0)" stroke-opacity="1.0" stroke-linecap="round" stroke-linejoin="round"/>
    <path d="M 55.46333312988281 181.2576446533203 C 90.4900894165039 211.69068908691406 121.71453094482422 197.71243286132812 133.49032592773438 175.04498291015625" stroke-width="3.0" fill="none" stroke="rgb(0, 0, 0)" stroke-opacity="1.0" stroke-linecap="round" stroke-linejoin="round"/>
    <path d="M 82.9947280883789 25.087617874145508 C 90.86682891845703 82.5379638671875 81.8273696899414 7.221522808074951 86.45925903320312 51.281211853027344" stroke-width="3.0" fill="none" stroke="rgb(0, 0, 0)" stroke-opacity="1.0" stroke-linecap="round" stroke-linejoin="round"/>
    <path d="M 45.91114044189453 88.85135650634766 C 64.43204498291016 143.210693359375 84.80369567871094 152.01101684570312 78.5301284790039 142.23692321777344" stroke-width="3.0" fill="none" stroke="rgb(0, 0, 0)" stroke-opacity="1.0" stroke-linecap="round" stroke-linejoin="round"/>
    <path d="M 152.94351196289062 74.53206634521484 C 201.71006774902344 62.58692169189453 188.86195373535156 91.73177337646484 142.48800659179688 82.97463989257812" stroke-width="3.0" fill="none" stroke="rgb(0, 0, 0)" stroke-opacity="1.0" stroke-linecap="round" stroke-linejoin="round"/>
    <path d="M 151.15988159179688 96.01258850097656 C 187.04969787597656 100.66778564453125 175.56480407714844 100.22393035888672 196.31167602539062 115.77498626708984" stroke-width="3.0" fill="none" stroke="rgb(0, 0, 0)" stroke-opacity="1.0" stroke-linecap="round" stroke-linejoin="round"/>
    <path d="M 110.97859954833984 153.9713897705078 C 147.29183959960938 157.1498565673828 123.36774444580078 147.66139221191406 105.89729309082031 157.3350830078125" stroke-width="3.0" fill="none" stroke="rgb(0, 0, 0)" stroke-opacity="1.0" stroke-linecap="round" stroke-linejoin="round"/>
    <path d="M 177.7372283935547 9.78554630279541 C 187.432373046875 21.072938919067383 169.54217529296875 70.11048126220703 180.2677459716797 55.416751861572266" stroke-width="3.0" fill="none" stroke="rgb(0, 0, 0)" stroke-opacity="1.0" stroke-linecap="round" stroke-linejoin="round"/>
    <path d="M 134.50950622558594 29.27822494506836 C 128.64723205566406 46.55935287475586 134.5333709716797 51.65400314331055 126.18611907958984 65.60159301757812" stroke-width="3.0" fill="none" stroke="rgb(0, 0, 0)" stroke-opacity="1.0" stroke-linecap="round" stroke-linejoin="round"/>
    <path d="M 90.09671783447266 41.394866943359375 C 66.65129089355469 2.395139217376709 90.92850494384766 -2.4234957695007324 114.9794692993164 33.668548583984375" stroke-width="3.0" fill="none" stroke="rgb(0, 0, 0)" stroke-opacity="1.0" stroke-linecap="round" stroke-linejoin="round"/>
    <path d="M 47.53569030761719 169.2153778076172 C 40.479278564453125 154.00735473632812 37.12223815917969 146.96482849121094 46.71472930908203 170.23638916015625" stroke-width="3.0" fill="none" stroke="rgb(0, 0, 0)" stroke-opacity="1.0" stroke-linecap="round" stroke-linejoin="round"/>
    <path d="M 35.906734466552734 95.93338775634766 C 21.70069694519043 132.3568115234375 41.143028259277344 147.26553344726562 44.575958251953125 163.14942932128906" stroke-width="3.0" fill="none" stroke="rgb(0, 0, 0)" stroke-opacity="1.0" stroke-linecap="round" stroke-linejoin="round"/>
    <path d="M 81.37008666992188 146.57354736328125 C 114.1770248413086 158.33497619628906 87.1557388305664 157.892822265625 98.49308013916016 151.22215270996094" stroke-width="3.0" fill="none" stroke="rgb(0, 0, 0)" stroke-opacity="1.0" stroke-linecap="round" stroke-linejoin="round"/>
    <path d="M 85.2610092163086 199.153076171875 C 71.49141693115234 204.22215270996094 49.74836349487305 174.98597717285156 47.99504089355469 170.5606689453125" stroke-width="3.0" fill="none" stroke="rgb(0, 0, 0)" stroke-opacity="1.0" stroke-linecap="round" stroke-linejoin="round"/>
    <path d="M 49.35912322998047 172.17282104492188 C 65.37798309326172 195.68482971191406 45.18039321899414 173.06893920898438 38.84518051147461 148.3511962890625" stroke-width="3.0" fill="none" stroke="rgb(0, 0, 0)" stroke-opacity="1.0" stroke-linecap="round" stroke-linejoin="round"/>
    <path d="M 80.65847778320312 53.290592193603516 C 62.95756912231445 58.88691711425781 46.54386520385742 71.0945053100586 32.63109588623047 105.30905151367188" stroke-width="3.0" fill="none" stroke="rgb(0, 0, 0)" stroke-opacity="1.0" stroke-linecap="round" stroke-linejoin="round"/>
    <path d="M 154.98089599609375 139.4053497314453 C 113.4820556640625 155.9607391357422 113.78357696533203 164.0909881591797 143.6049041748047 146.77980041503906" stroke-width="3.0" fill="none" stroke="rgb(0, 0, 0)" stroke-opacity="1.0" stroke-linecap="round" stroke-linejoin="round"/>
    <path d="M 151.86569213867188 23.59516716003418 C 142.6581573486328 40.20601272583008 135.0040740966797 0.4663466811180115 135.75509643554688 80.8499984741211" stroke-width="3.0" fill="none" stroke="rgb(0, 0, 0)" stroke-opacity="1.0" stroke-linecap="round" stroke-linejoin="round"/>
    <path d="M 145.82818603515625 97.49058532714844 C 132.22683715820312 107.37030029296875 130.946044921875 106.79814147949219 125.9598388671875 101.24988555908203" stroke-width="3.0" fill="none" stroke="rgb(0, 0, 0)" stroke-opacity="1.0" stroke-linecap="round" stroke-linejoin="round"/>
    <path d="M 138.53565979003906 71.71234130859375 C 139.1915283203125 56.36562728881836 133.08531188964844 63.758888244628906 135.48785400390625 75.71485900878906" stroke-width="3.0" fill="none" stroke="rgb(0, 0, 0)" stroke-opacity="1.0" stroke-linecap="round" stroke-linejoin="round"/>
    <path d="M 134.68820190429688 174.30621337890625 C 126.94193267822266 176.32920837402344 138.55601501464844 173.6907958984375 148.2430877685547 146.60479736328125" stroke-width="3.0" fill="none" stroke="rgb(0, 0, 0)" stroke-opacity="1.0" stroke-linecap="round" stroke-linejoin="round"/>
    <path d="M 196.4364776611328 95.37920379638672 C 168.72201538085938 73.03186798095703 163.9320068359375 83.66067504882812 182.4456329345703 92.3331298828125" stroke-width="3.0" fill="none" stroke="rgb(0, 0, 0)" stroke-opacity="1.0" stroke-linecap="round" stroke-linejoin="round"/>
    <path d="M 157.35540771484375 77.45230102539062 C 128.6041259765625 63.53043746948242 204.41329956054688 83.31973266601562 179.94931030273438 66.86981964111328" stroke-width="3.0" fill="none" stroke="rgb(0, 0, 0)" stroke-opacity="1.0" stroke-linecap="round" stroke-linejoin="round"/>
    <path d="M 107.94718170166016 76.98578643798828 C 92.35081481933594 69.5547866821289 139.95176696777344 74.7026138305664 108.49427795410156 79.64685821533203" stroke-width="3.0" fill="none" stroke="rgb(0, 0, 0)" stroke-opacity="1.0" stroke-linecap="round" stroke-linejoin="round"/>
    <path d="M 163.50067138671875 131.06979370117188 C 145.42335510253906 155.75323486328125 115.91973114013672 147.7844696044922 99.96007537841797 154.03025817871094" stroke-width="3.0" fill="none" stroke="rgb(0, 0, 0)" stroke-opacity="1.0" stroke-linecap="round" stroke-linejoin="round"/>
    <path d="M 123.61146545410156 87.6762466430664 C 143.8851776123047 97.3643798828125 128.18516540527344 70.14913940429688 131.19537353515625 105.12262725830078" stroke-width="3.0" fill="none" stroke="rgb(0, 0, 0)" stroke-opacity="1.0" stroke-linecap="round" stroke-linejoin="round"/>
    <path d="M 185.33433532714844 109.20526885986328 C 168.7224884033203 86.4921646118164 180.3174285888672 83.94001007080078 149.60899353027344 91.0427017211914" stroke-width="3.0" fill="none" stroke="rgb(0, 0, 0)" stroke-opacity="1.0" stroke-linecap="round" stroke-linejoin="round"/>
    <path d="M 84.77422332763672 8.549792289733887 C 104.05619049072266 17.37232208251953 120.77230834960938 34.748374938964844 122.71664428710938 29.548471450805664" stroke-width="3.0" fill="none" stroke="rgb(0, 0, 0)" stroke-opacity="1.0" stroke-linecap="round" stroke-linejoin="round"/>
    <path d="M 59.71893310546875 123.34418487548828 C 54.05800247192383 116.31695556640625 61.28664016723633 126.33109283447266 69.74193572998047 132.29685974121094" stroke-width="3.0" fill="none" stroke="rgb(0, 0, 0)" stroke-opacity="1.0" stroke-linecap="round" stroke-linejoin="round"/>
    <path d="M 132.96719360351562 105.90569305419922 C 126.72917938232422 90.29141998291016 126.13179779052734 120.82487487792969 110.76970672607422 88.85269165039062" stroke-width="3.0" fill="none" stroke="rgb(0, 0, 0)" stroke-opacity="1.0" stroke-linecap="round" stroke-linejoin="round"/>
    <path d="M 31.51192855834961 131.91050720214844 C 29.045473098754883 102.87621307373047 37.305503845214844 97.58916473388672 49.538978576660156 77.81533813476562" stroke-width="3.0" fill="none" stroke="rgb(0, 0, 0)" stroke-opacity="1.0" stroke-linecap="round" stroke-linejoin="round"/>
    <path d="M 79.95401000976562 198.3533172607422 C 74.15087127685547 189.28921508789062 68.8207015991211 197.76112365722656 101.18976593017578 198.36474609375" stroke-width="3.0" fill="none" stroke="rgb(0, 0, 0)" stroke-opacity="1.0" stroke-linecap="round" stroke-linejoin="round"/>
    <path d="M 164.0111083984375 132.3897247314453 C 199.9133758544922 115.31935119628906 180.7446746826172 91.80751037597656 154.4168701171875 91.41923522949219" stroke-width="3.0" fill="none" stroke="rgb(0, 0, 0)" stroke-opacity="1.0" stroke-linecap="round" stroke-linejoin="round"/>
    <path d="M 151.49354553222656 69.74132537841797 C 139.2892608642578 85.71426391601562 178.74755859375 77.3942642211914 149.2158966064453 68.93547821044922" stroke-width="3.0" fill="none" stroke="rgb(0, 0, 0)" stroke-opacity="1.0" stroke-linecap="round" stroke-linejoin="round"/>
    <path d="M 142.50698852539062 77.72893524169922 C 147.30442810058594 45.1229133605957 203.38185119628906 113.98915100097656 176.1441650390625 43.645416259765625" stroke-width="3.0" fill="none" stroke="rgb(0, 0, 0)" stroke-opacity="1.0" stroke-linecap="round" stroke-linejoin="round"/>
    <path d="M 154.79669189453125 97.54324340820312 C 169.5761260986328 103.27095031738281 178.15379333496094 103.94815063476562 184.5607452392578 115.5670394897461" stroke-width="3.0" fill="none" stroke="rgb(0, 0, 0)" stroke-opacity="1.0" stroke-linecap="round" stroke-linejoin="round"/>
    <path d="M 178.02415466308594 17.986753463745117 C 168.69464111328125 43.41382598876953 179.64915466308594 21.427181243896484 161.64503479003906 33.23073959350586" stroke-width="3.0" fill="none" stroke="rgb(0, 0, 0)" stroke-opacity="1.0" stroke-linecap="round" stroke-linejoin="round"/>
    <path d="M 121.35466003417969 101.06056213378906 C 147.7567901611328 98.49504852294922 132.8436737060547 112.02021026611328 117.57986450195312 100.63802337646484" stroke-width="3.0" fill="none" stroke="rgb(0, 0, 0)" stroke-opacity="1.0" stroke-linecap="round" stroke-linejoin="round"/>
    <path d="M 67.67533111572266 132.06451416015625 C 49.99543762207031 122.29957580566406 59.792911529541016 111.30945587158203 57.36225891113281 115.67164611816406" stroke-width="3.0" fill="none" stroke="rgb(0, 0, 0)" stroke-opacity="1.0" stroke-linecap="round" stroke-linejoin="round"/>
    <path d="M 124.78023529052734 74.592529296875 C 130.2440185546875 34.6446418762207 124.25458526611328 49.69395065307617 126.68860626220703 30.531654357910156" stroke-width="3.0" fill="none" stroke="rgb(0, 0, 0)" stroke-opacity="1.0" stroke-linecap="round" stroke-linejoin="round"/>
    <path d="M 155.76351928710938 20.64269256591797 C 146.1232452392578 29.993894577026367 163.25657653808594 7.287704944610596 179.4393768310547 9.398472785949707" stroke-width="3.0" fill="none" stroke="rgb(0, 0, 0)" stroke-opacity="1.0" stroke-linecap="round" stroke-linejoin="round"/>
  </g>
</svg>
