<?xml version="1.0" ?>
<svg xmlns="http://www.w3.org/2000/svg" version="1.1" width="224" height="224">
  <defs/>
  <g>
    <path d="M 67.98103332519531 71.57836151123047 C 70.16436767578125 72.39881896972656 75.77369689941406 71.85546875 58.2093391418457 69.96886444091797" stroke-width="3.0" fill="none" stroke="rgb(0, 0, 0)" stroke-opacity="1.0" stroke-linecap="round" stroke-linejoin="round"/>
    <path d="M 184.1264190673828 123.84783172607422 C 178.1795196533203 114.74126434326172 200.68959045410156 92.00975036621094 174.7137451171875 128.94143676757812" stroke-width="3.0" fill="none" stroke="rgb(0, 0, 0)" stroke-opacity="1.0" stroke-linecap="round" stroke-linejoin="round"/>
    <path d="M 58.2918586730957 122.57349395751953 C 57.41617202758789 109.84086608886719 56.7766227722168 123.09571838378906 68.19813537597656 130.83761596679688" stroke-width="3.0" fill="none" stroke="rgb(0, 0, 0)" stroke-opacity="1.0" stroke-linecap="round" stroke-linejoin="round"/>
    <path d="M 182.83392333984375 93.74554443359375 C 145.56698608398438 84.29962921142578 177.37112426757812 70.15856170654297 190.74905395507812 109.35894775390625" stroke-width="3.0" fill="none" stroke="rgb(0, 0, 0)" stroke-opacity="1.0" stroke-linecap="round" stroke-linejoin="round"/>
    <path d="M 180.09033203125 67.05690002441406 C 177.7034149169922 110.99718475341797 183.34109497070312 100.36510467529297 183.30035400390625 74.27534484863281" stroke-width="3.0" fill="none" stroke="rgb(0, 0, 0)" stroke-opacity="1.0" stroke-linecap="round" stroke-linejoin="round"/>
    <path d="M 127.10589599609375 104.63815307617188 C 148.06167602539062 110.78739166259766 102.99410247802734 96.4645767211914 138.94239807128906 103.45066833496094" stroke-width="3.0" fill="none" stroke="rgb(0, 0, 0)" stroke-opacity="1.0" stroke-linecap="round" stroke-linejoin="round"/>
    <path d="M 174.7041778564453 83.07933807373047 C 193.1053924560547 89.0331039428711 184.76243591308594 73.04474639892578 158.9949951171875 88.09488677978516" stroke-width="3.0" fill="none" stroke="rgb(0, 0, 0)" stroke-opacity="1.0" stroke-linecap="round" stroke-linejoin="round"/>
    <path d="M 63.72134780883789 189.7118377685547 C 36.87215042114258 157.00506591796875 48.85704803466797 164.96229553222656 49.71148681640625 172.69456481933594" stroke-width="3.0" fill="none" stroke="rgb(0, 0, 0)" stroke-opacity="1.0" stroke-linecap="round" stroke-linejoin="round"/>
    <path d="M 55.0372200012207 180.1896514892578 C 90.16676330566406 209.63848876953125 115.27076721191406 195.12887573242188 132.23680114746094 179.83934020996094" stroke-width="3.0" fill="none" stroke="rgb(0, 0, 0)" stroke-opacity="1.0" stroke-linecap="round" stroke-linejoin="round"/>
    <path d="M 86.22456359863281 25.117820739746094 C 93.93248748779297 79.00758361816406 86.72291564941406 9.420143127441406 87.68583679199219 52.55556106567383" stroke-width="3.0" fill="none" stroke="rgb(0, 0, 0)" stroke-opacity="1.0" stroke-linecap="round" stroke-linejoin="round"/>
    <path d="M 48.956275939941406 89.60775756835938 C 65.03624725341797 140.2821502685547 92.27143859863281 155.78416442871094 79.6468276977539 146.525634765625" stroke-width="3.0" fill="none" stroke="rgb(0, 0, 0)" stroke-opacity="1.0" stroke-linecap="round" stroke-linejoin="round"/>
    <path d="M 153.93026733398438 75.60254669189453 C 204.31716918945312 65.17503356933594 187.21151733398438 86.00541687011719 142.88641357421875 86.20953369140625" stroke-width="3.0" fill="none" stroke="rgb(0, 0, 0)" stroke-opacity="1.0" stroke-linecap="round" stroke-linejoin="round"/>
    <path d="M 153.6534423828125 94.69010925292969 C 187.1336212158203 103.70262145996094 176.66383361816406 102.20858001708984 196.294921875 115.15198516845703" stroke-width="3.0" fill="none" stroke="rgb(0, 0, 0)" stroke-opacity="1.0" stroke-linecap="round" stroke-linejoin="round"/>
    <path d="M 114.22809600830078 157.69223022460938 C 145.486328125 153.408203125 123.02131652832031 154.82376098632812 105.42799377441406 153.60018920898438" stroke-width="3.0" fill="none" stroke="rgb(0, 0, 0)" stroke-opacity="1.0" stroke-linecap="round" stroke-linejoin="round"/>
    <path d="M 179.8350067138672 8.928348541259766 C 188.02578735351562 26.39316749572754 173.9210205078125 71.84605407714844 178.9834747314453 56.295166015625" stroke-width="3.0" fill="none" stroke="rgb(0, 0, 0)" stroke-opacity="1.0" stroke-linecap="round" stroke-linejoin="round"/>
    <path d="M 133.9967803955078 32.36879348754883 C 132.5653839111328 43.271053314208984 139.6058349609375 48.47820281982422 130.83872985839844 69.4652099609375" stroke-width="3.0" fill="none" stroke="rgb(0, 0, 0)" stroke-opacity="1.0" stroke-linecap="round" stroke-linejoin="round"/>
    <path d="M 91.4283218383789 43.237762451171875 C 70.06846618652344 0.6402341723442078 88.57659149169922 -0.741400957107544 114.87300109863281 29.857450485229492" stroke-width="3.0" fill="none" stroke="rgb(0, 0, 0)" stroke-opacity="1.0" stroke-linecap="round" stroke-linejoin="round"/>
    <path d="M 48.0120735168457 171.41986083984375 C 40.51889419555664 153.6895294189453 39.105159759521484 144.4962615966797 47.98208999633789 169.7180633544922" stroke-width="3.0" fill="none" stroke="rgb(0, 0, 0)" stroke-opacity="1.0" stroke-linecap="round" stroke-linejoin="round"/>
    <path d="M 37.163841247558594 96.54358673095703 C 21.765865325927734 129.86204528808594 42.20380401611328 147.47938537597656 44.12826919555664 163.82354736328125" stroke-width="3.0" fill="none" stroke="rgb(0, 0, 0)" stroke-opacity="1.0" stroke-linecap="round" stroke-linejoin="round"/>
    <path d="M 90.2855224609375 149.52828979492188 C 106.90019989013672 164.50047302246094 101.74818420410156 158.44915771484375 99.68556213378906 153.16270446777344" stroke-width="3.0" fill="none" stroke="rgb(0, 0, 0)" stroke-opacity="1.0" stroke-linecap="round" stroke-linejoin="round"/>
    <path d="M 87.23421478271484 195.77684020996094 C 68.40569305419922 202.29444885253906 50.236328125 175.80697631835938 49.03488540649414 169.35702514648438" stroke-width="3.0" fill="none" stroke="rgb(0, 0, 0)" stroke-opacity="1.0" stroke-linecap="round" stroke-linejoin="round"/>
    <path d="M 49.03715515136719 172.54226684570312 C 64.05187225341797 195.33200073242188 47.25578689575195 169.30731201171875 37.819576263427734 146.30252075195312" stroke-width="3.0" fill="none" stroke="rgb(0, 0, 0)" stroke-opacity="1.0" stroke-linecap="round" stroke-linejoin="round"/>
    <path d="M 82.87252807617188 55.58984375 C 61.65021514892578 57.74595642089844 47.956844329833984 71.45339965820312 31.99244499206543 109.83798217773438" stroke-width="3.0" fill="none" stroke="rgb(0, 0, 0)" stroke-opacity="1.0" stroke-linecap="round" stroke-linejoin="round"/>
    <path d="M 152.1036376953125 140.16015625 C 116.54727935791016 155.61024475097656 115.9565658569336 159.00631713867188 146.47169494628906 148.1359405517578" stroke-width="3.0" fill="none" stroke="rgb(0, 0, 0)" stroke-opacity="1.0" stroke-linecap="round" stroke-linejoin="round"/>
    <path d="M 149.84596252441406 29.527923583984375 C 142.90093994140625 42.67701721191406 136.4083709716797 21.33939552307129 138.6007537841797 80.70475769042969" stroke-width="3.0" fill="none" stroke="rgb(0, 0, 0)" stroke-opacity="1.0" stroke-linecap="round" stroke-linejoin="round"/>
    <path d="M 146.241943359375 92.50220489501953 C 128.26885986328125 106.1612548828125 133.41281127929688 110.47352600097656 119.2606201171875 102.82431030273438" stroke-width="3.0" fill="none" stroke="rgb(0, 0, 0)" stroke-opacity="1.0" stroke-linecap="round" stroke-linejoin="round"/>
    <path d="M 138.92715454101562 76.49311065673828 C 145.16554260253906 58.2394905090332 132.39418029785156 60.33336639404297 137.16329956054688 77.40383911132812" stroke-width="3.0" fill="none" stroke="rgb(0, 0, 0)" stroke-opacity="1.0" stroke-linecap="round" stroke-linejoin="round"/>
    <path d="M 135.21591186523438 177.94044494628906 C 129.77020263671875 182.6068572998047 138.5911865234375 179.6630859375 145.6943817138672 144.5166473388672" stroke-width="3.0" fill="none" stroke="rgb(0, 0, 0)" stroke-opacity="1.0" stroke-linecap="round" stroke-linejoin="round"/>
    <path d="M 194.85562133789062 95.58840942382812 C 167.40513610839844 73.85452270507812 167.662109375 82.38848876953125 181.82345581054688 87.74200439453125" stroke-width="3.0" fill="none" stroke="rgb(0, 0, 0)" stroke-opacity="1.0" stroke-linecap="round" stroke-linejoin="round"/>
    <path d="M 154.71951293945312 79.0718994140625 C 122.46766662597656 62.80887985229492 195.9348602294922 85.75748443603516 182.009521484375 64.99697875976562" stroke-width="3.0" fill="none" stroke="rgb(0, 0, 0)" stroke-opacity="1.0" stroke-linecap="round" stroke-linejoin="round"/>
    <path d="M 108.55094909667969 76.73143768310547 C 79.68335723876953 70.34374237060547 142.95297241210938 73.32978057861328 106.03295135498047 80.33043670654297" stroke-width="3.0" fill="none" stroke="rgb(0, 0, 0)" stroke-opacity="1.0" stroke-linecap="round" stroke-linejoin="round"/>
    <path d="M 162.4557647705078 131.1677703857422 C 141.9414520263672 158.7593536376953 120.61644744873047 147.6490478515625 103.02246856689453 157.59939575195312" stroke-width="3.0" fill="none" stroke="rgb(0, 0, 0)" stroke-opacity="1.0" stroke-linecap="round" stroke-linejoin="round"/>
    <path d="M 121.05840301513672 87.2868423461914 C 140.8416748046875 96.8283920288086 121.32184600830078 62.218814849853516 128.57321166992188 104.132568359375" stroke-width="3.0" fill="none" stroke="rgb(0, 0, 0)" stroke-opacity="1.0" stroke-linecap="round" stroke-linejoin="round"/>
    <path d="M 188.98272705078125 110.58375549316406 C 172.85592651367188 89.4087142944336 179.0338134765625 87.0697021484375 148.9867401123047 86.08358764648438" stroke-width="3.0" fill="none" stroke="rgb(0, 0, 0)" stroke-opacity="1.0" stroke-linecap="round" stroke-linejoin="round"/>
    <path d="M 86.09857177734375 10.604045867919922 C 103.86154174804688 12.497276306152344 114.89899444580078 33.71671676635742 124.01612854003906 30.508440017700195" stroke-width="3.0" fill="none" stroke="rgb(0, 0, 0)" stroke-opacity="1.0" stroke-linecap="round" stroke-linejoin="round"/>
    <path d="M 60.209678649902344 123.65221405029297 C 56.480037689208984 117.80618286132812 60.36814498901367 129.5409698486328 59.595218658447266 124.63861846923828" stroke-width="3.0" fill="none" stroke="rgb(0, 0, 0)" stroke-opacity="1.0" stroke-linecap="round" stroke-linejoin="round"/>
    <path d="M 137.52447509765625 103.62825775146484 C 122.79047393798828 87.56004333496094 115.75858306884766 121.97994995117188 107.37298583984375 87.34066772460938" stroke-width="3.0" fill="none" stroke="rgb(0, 0, 0)" stroke-opacity="1.0" stroke-linecap="round" stroke-linejoin="round"/>
    <path d="M 31.076778411865234 128.7283477783203 C 28.506492614746094 102.39986419677734 36.37881851196289 96.1245346069336 50.81992721557617 80.05400085449219" stroke-width="3.0" fill="none" stroke="rgb(0, 0, 0)" stroke-opacity="1.0" stroke-linecap="round" stroke-linejoin="round"/>
    <path d="M 80.41958618164062 195.4024200439453 C 70.99132537841797 192.24940490722656 66.3224868774414 193.32968139648438 100.89602661132812 195.9891357421875" stroke-width="3.0" fill="none" stroke="rgb(0, 0, 0)" stroke-opacity="1.0" stroke-linecap="round" stroke-linejoin="round"/>
    <path d="M 164.6763153076172 132.42239379882812 C 198.97894287109375 116.10601806640625 177.7211151123047 96.42636108398438 157.3101043701172 89.81526947021484" stroke-width="3.0" fill="none" stroke="rgb(0, 0, 0)" stroke-opacity="1.0" stroke-linecap="round" stroke-linejoin="round"/>
    <path d="M 151.68096923828125 70.11368560791016 C 133.144775390625 90.02083587646484 177.43251037597656 74.51890563964844 149.46519470214844 71.13481140136719" stroke-width="3.0" fill="none" stroke="rgb(0, 0, 0)" stroke-opacity="1.0" stroke-linecap="round" stroke-linejoin="round"/>
    <path d="M 144.2183074951172 77.14443969726562 C 149.69190979003906 44.52231979370117 194.03379821777344 113.14640808105469 178.01194763183594 45.44590377807617" stroke-width="3.0" fill="none" stroke="rgb(0, 0, 0)" stroke-opacity="1.0" stroke-linecap="round" stroke-linejoin="round"/>
    <path d="M 158.3937225341797 96.09234619140625 C 170.67926025390625 103.5089340209961 177.25216674804688 101.9891128540039 182.8434295654297 119.07357025146484" stroke-width="3.0" fill="none" stroke="rgb(0, 0, 0)" stroke-opacity="1.0" stroke-linecap="round" stroke-linejoin="round"/>
    <path d="M 179.06143188476562 17.03297233581543 C 170.28587341308594 41.533416748046875 182.8318328857422 18.67913246154785 165.18035888671875 34.48680877685547" stroke-width="3.0" fill="none" stroke="rgb(0, 0, 0)" stroke-opacity="1.0" stroke-linecap="round" stroke-linejoin="round"/>
    <path d="M 121.27613067626953 103.45210266113281 C 143.57130432128906 100.8775863647461 133.07260131835938 111.06100463867188 118.8615951538086 104.53738403320312" stroke-width="3.0" fill="none" stroke="rgb(0, 0, 0)" stroke-opacity="1.0" stroke-linecap="round" stroke-linejoin="round"/>
    <path d="M 74.1846694946289 134.93209838867188 C 52.29117965698242 117.12579345703125 58.56998062133789 113.17469787597656 58.80186462402344 117.87750244140625" stroke-width="3.0" fill="none" stroke="rgb(0, 0, 0)" stroke-opacity="1.0" stroke-linecap="round" stroke-linejoin="round"/>
    <path d="M 128.5847930908203 74.09369659423828 C 133.37171936035156 34.91221237182617 127.30947875976562 51.49830627441406 128.65245056152344 30.6568660736084" stroke-width="3.0" fill="none" stroke="rgb(0, 0, 0)" stroke-opacity="1.0" stroke-linecap="round" stroke-linejoin="round"/>
    <path d="M 158.66993713378906 23.894378662109375 C 151.48312377929688 37.314788818359375 165.32699584960938 6.715752601623535 178.2135467529297 9.528992652893066" stroke-width="3.0" fill="none" stroke="rgb(0, 0, 0)" stroke-opacity="1.0" stroke-linecap="round" stroke-linejoin="round"/>
  </g>
</svg>
