<?xml version="1.0" ?>
<svg xmlns="http://www.w3.org/2000/svg" version="1.1" width="224" height="224">
  <defs/>
  <g>
    <path d="M 55.30497741699219 120.22911834716797 C 56.9156608581543 119.54314422607422 48.139892578125 111.35869598388672 44.53470230102539 94.83232879638672" stroke-width="3.0" fill="none" stroke="rgb(0, 0, 0)" stroke-opacity="1.0" stroke-linecap="round" stroke-linejoin="round"/>
    <path d="M 182.21817016601562 126.90194702148438 C 185.74240112304688 107.73912811279297 184.10374450683594 112.784912109375 188.1996307373047 119.28298950195312" stroke-width="3.0" fill="none" stroke="rgb(0, 0, 0)" stroke-opacity="1.0" stroke-linecap="round" stroke-linejoin="round"/>
    <path d="M 48.81296920776367 107.1532974243164 C 51.58855056762695 112.68537139892578 47.89382553100586 105.79851531982422 51.13420486450195 109.36759185791016" stroke-width="3.0" fill="none" stroke="rgb(0, 0, 0)" stroke-opacity="1.0" stroke-linecap="round" stroke-linejoin="round"/>
    <path d="M 183.44354248046875 98.32393646240234 C 158.49258422851562 90.18989562988281 171.5285186767578 80.29426574707031 195.34127807617188 112.64973449707031" stroke-width="3.0" fill="none" stroke="rgb(0, 0, 0)" stroke-opacity="1.0" stroke-linecap="round" stroke-linejoin="round"/>
    <path d="M 183.79202270507812 70.55638122558594 C 181.09234619140625 77.37873077392578 175.25921630859375 76.31941223144531 185.58670043945312 68.60883331298828" stroke-width="3.0" fill="none" stroke="rgb(0, 0, 0)" stroke-opacity="1.0" stroke-linecap="round" stroke-linejoin="round"/>
    <path d="M 129.21038818359375 98.08119201660156 C 130.51962280273438 111.58597564697266 115.69874572753906 100.75587463378906 134.85293579101562 105.5077133178711" stroke-width="3.0" fill="none" stroke="rgb(0, 0, 0)" stroke-opacity="1.0" stroke-linecap="round" stroke-linejoin="round"/>
    <path d="M 173.2617950439453 89.87796783447266 C 201.0563201904297 55.93867111206055 185.07029724121094 62.705665588378906 164.1441192626953 84.4225845336914" stroke-width="3.0" fill="none" stroke="rgb(0, 0, 0)" stroke-opacity="1.0" stroke-linecap="round" stroke-linejoin="round"/>
    <path d="M 56.11492156982422 182.4532928466797 C 36.32675552368164 153.4292449951172 45.07743835449219 163.71058654785156 43.20400619506836 157.18438720703125" stroke-width="3.0" fill="none" stroke="rgb(0, 0, 0)" stroke-opacity="1.0" stroke-linecap="round" stroke-linejoin="round"/>
    <path d="M 67.9989242553711 190.09600830078125 C 90.81462860107422 198.73492431640625 115.76903533935547 195.31796264648438 105.72698974609375 194.97201538085938" stroke-width="3.0" fill="none" stroke="rgb(0, 0, 0)" stroke-opacity="1.0" stroke-linecap="round" stroke-linejoin="round"/>
    <path d="M 89.06796264648438 25.154308319091797 C 95.41812133789062 55.2548713684082 89.28190612792969 26.059202194213867 92.17582702636719 51.266395568847656" stroke-width="3.0" fill="none" stroke="rgb(0, 0, 0)" stroke-opacity="1.0" stroke-linecap="round" stroke-linejoin="round"/>
    <path d="M 60.71568298339844 126.88690948486328 C 69.2888412475586 141.4783935546875 81.53556060791016 145.71177673339844 84.86502838134766 145.64077758789062" stroke-width="3.0" fill="none" stroke="rgb(0, 0, 0)" stroke-opacity="1.0" stroke-linecap="round" stroke-linejoin="round"/>
    <path d="M 167.24412536621094 80.01507568359375 C 186.7499542236328 70.04827117919922 171.817626953125 83.86640167236328 147.37913513183594 87.94110107421875" stroke-width="3.0" fill="none" stroke="rgb(0, 0, 0)" stroke-opacity="1.0" stroke-linecap="round" stroke-linejoin="round"/>
    <path d="M 156.27830505371094 101.5538330078125 C 172.50885009765625 102.04741668701172 169.50259399414062 100.26245880126953 190.9918975830078 109.3566665649414" stroke-width="3.0" fill="none" stroke="rgb(0, 0, 0)" stroke-opacity="1.0" stroke-linecap="round" stroke-linejoin="round"/>
    <path d="M 92.65897369384766 158.72158813476562 C 106.507568359375 174.67674255371094 97.65302276611328 184.63259887695312 109.7474365234375 192.95602416992188" stroke-width="3.0" fill="none" stroke="rgb(0, 0, 0)" stroke-opacity="1.0" stroke-linecap="round" stroke-linejoin="round"/>
    <path d="M 171.23414611816406 8.94084358215332 C 187.97549438476562 1.8787270784378052 175.7941436767578 28.437225341796875 186.73995971679688 62.82733917236328" stroke-width="3.0" fill="none" stroke="rgb(0, 0, 0)" stroke-opacity="1.0" stroke-linecap="round" stroke-linejoin="round"/>
    <path d="M 134.3165740966797 30.529951095581055 C 126.09971618652344 62.542964935302734 131.47203063964844 34.46167755126953 130.13833618164062 67.81922912597656" stroke-width="3.0" fill="none" stroke="rgb(0, 0, 0)" stroke-opacity="1.0" stroke-linecap="round" stroke-linejoin="round"/>
    <path d="M 97.548095703125 46.46058654785156 C 69.21489715576172 -2.0515966415405273 86.6935043334961 4.754395484924316 107.13619995117188 38.789390563964844" stroke-width="3.0" fill="none" stroke="rgb(0, 0, 0)" stroke-opacity="1.0" stroke-linecap="round" stroke-linejoin="round"/>
    <path d="M 49.26904296875 167.5763702392578 C 39.24546432495117 157.76747131347656 45.756317138671875 159.62445068359375 45.868499755859375 164.30319213867188" stroke-width="3.0" fill="none" stroke="rgb(0, 0, 0)" stroke-opacity="1.0" stroke-linecap="round" stroke-linejoin="round"/>
    <path d="M 31.655733108520508 109.4377212524414 C 26.437267303466797 131.5699462890625 37.26691436767578 140.24578857421875 42.49016571044922 160.03514099121094" stroke-width="3.0" fill="none" stroke="rgb(0, 0, 0)" stroke-opacity="1.0" stroke-linecap="round" stroke-linejoin="round"/>
    <path d="M 83.90950012207031 150.770263671875 C 92.70378112792969 160.5439453125 95.16228485107422 162.70289611816406 86.7117919921875 152.45166015625" stroke-width="3.0" fill="none" stroke="rgb(0, 0, 0)" stroke-opacity="1.0" stroke-linecap="round" stroke-linejoin="round"/>
    <path d="M 74.36406707763672 192.81686401367188 C 51.553497314453125 179.6912384033203 70.32521057128906 191.7539825439453 49.88328170776367 174.50462341308594" stroke-width="3.0" fill="none" stroke="rgb(0, 0, 0)" stroke-opacity="1.0" stroke-linecap="round" stroke-linejoin="round"/>
    <path d="M 42.7643928527832 154.01873779296875 C 48.89671325683594 169.2910919189453 44.37908172607422 154.6235809326172 37.58041763305664 144.30917358398438" stroke-width="3.0" fill="none" stroke="rgb(0, 0, 0)" stroke-opacity="1.0" stroke-linecap="round" stroke-linejoin="round"/>
    <path d="M 76.04371643066406 62.62644577026367 C 50.07450866699219 73.96288299560547 50.837162017822266 73.6358413696289 33.18764877319336 104.49359893798828" stroke-width="3.0" fill="none" stroke="rgb(0, 0, 0)" stroke-opacity="1.0" stroke-linecap="round" stroke-linejoin="round"/>
    <path d="M 147.841552734375 159.6791229248047 C 145.64198303222656 161.47642517089844 126.60112762451172 148.60189819335938 139.57252502441406 162.25436401367188" stroke-width="3.0" fill="none" stroke="rgb(0, 0, 0)" stroke-opacity="1.0" stroke-linecap="round" stroke-linejoin="round"/>
    <path d="M 142.78709411621094 32.601680755615234 C 145.79830932617188 50.96236801147461 133.06407165527344 52.46864700317383 137.7699432373047 79.5738754272461" stroke-width="3.0" fill="none" stroke="rgb(0, 0, 0)" stroke-opacity="1.0" stroke-linecap="round" stroke-linejoin="round"/>
    <path d="M 142.7326202392578 98.7597885131836 C 129.43092346191406 113.4146499633789 117.71888732910156 103.0284652709961 127.96307373046875 102.10843658447266" stroke-width="3.0" fill="none" stroke="rgb(0, 0, 0)" stroke-opacity="1.0" stroke-linecap="round" stroke-linejoin="round"/>
    <path d="M 137.7910614013672 77.05304718017578 C 142.52427673339844 45.40583419799805 146.15948486328125 55.31080627441406 147.50021362304688 49.06657409667969" stroke-width="3.0" fill="none" stroke="rgb(0, 0, 0)" stroke-opacity="1.0" stroke-linecap="round" stroke-linejoin="round"/>
    <path d="M 117.44393157958984 191.04705810546875 C 99.71471405029297 190.8255615234375 109.16688537597656 207.25148010253906 133.4720458984375 172.46255493164062" stroke-width="3.0" fill="none" stroke="rgb(0, 0, 0)" stroke-opacity="1.0" stroke-linecap="round" stroke-linejoin="round"/>
    <path d="M 189.08349609375 91.3853759765625 C 154.38153076171875 78.50226593017578 152.80528259277344 89.6194839477539 182.17303466796875 81.8760757446289" stroke-width="3.0" fill="none" stroke="rgb(0, 0, 0)" stroke-opacity="1.0" stroke-linecap="round" stroke-linejoin="round"/>
    <path d="M 168.8817138671875 78.79548645019531 C 197.91136169433594 80.46189880371094 200.48837280273438 73.32203674316406 165.28860473632812 74.78132629394531" stroke-width="3.0" fill="none" stroke="rgb(0, 0, 0)" stroke-opacity="1.0" stroke-linecap="round" stroke-linejoin="round"/>
    <path d="M 110.91324615478516 77.46308898925781 C 91.4640884399414 69.36414337158203 140.34988403320312 75.6583023071289 107.13814544677734 78.83707427978516" stroke-width="3.0" fill="none" stroke="rgb(0, 0, 0)" stroke-opacity="1.0" stroke-linecap="round" stroke-linejoin="round"/>
    <path d="M 136.26539611816406 157.67628479003906 C 139.60922241210938 155.64500427246094 125.76099395751953 157.44776916503906 107.3893051147461 137.27552795410156" stroke-width="3.0" fill="none" stroke="rgb(0, 0, 0)" stroke-opacity="1.0" stroke-linecap="round" stroke-linejoin="round"/>
    <path d="M 122.41816711425781 88.43497467041016 C 137.63706970214844 98.01033020019531 132.36949157714844 78.95189666748047 126.86487579345703 95.78231811523438" stroke-width="3.0" fill="none" stroke="rgb(0, 0, 0)" stroke-opacity="1.0" stroke-linecap="round" stroke-linejoin="round"/>
    <path d="M 185.51365661621094 97.12683868408203 C 166.88902282714844 86.9611587524414 184.47265625 95.56500244140625 141.25881958007812 82.74757385253906" stroke-width="3.0" fill="none" stroke="rgb(0, 0, 0)" stroke-opacity="1.0" stroke-linecap="round" stroke-linejoin="round"/>
    <path d="M 83.5317611694336 8.265583038330078 C 110.05394744873047 21.658058166503906 114.43614196777344 36.80581283569336 124.01220703125 33.39870834350586" stroke-width="3.0" fill="none" stroke="rgb(0, 0, 0)" stroke-opacity="1.0" stroke-linecap="round" stroke-linejoin="round"/>
    <path d="M 53.68400192260742 112.865966796875 C 48.867431640625 109.26275634765625 56.533348083496094 124.02879333496094 52.65310287475586 113.14336395263672" stroke-width="3.0" fill="none" stroke="rgb(0, 0, 0)" stroke-opacity="1.0" stroke-linecap="round" stroke-linejoin="round"/>
    <path d="M 122.02783966064453 100.53387451171875 C 96.31863403320312 87.48180389404297 127.60274505615234 100.32791900634766 104.12716674804688 88.46954345703125" stroke-width="3.0" fill="none" stroke="rgb(0, 0, 0)" stroke-opacity="1.0" stroke-linecap="round" stroke-linejoin="round"/>
    <path d="M 30.076515197753906 117.17758178710938 C 34.288475036621094 99.0794906616211 34.36929702758789 104.51966857910156 30.045654296875 116.04376220703125" stroke-width="3.0" fill="none" stroke="rgb(0, 0, 0)" stroke-opacity="1.0" stroke-linecap="round" stroke-linejoin="round"/>
    <path d="M 85.14033508300781 195.04473876953125 C 72.262451171875 195.228759765625 72.64678955078125 190.00900268554688 92.2166519165039 195.55877685546875" stroke-width="3.0" fill="none" stroke="rgb(0, 0, 0)" stroke-opacity="1.0" stroke-linecap="round" stroke-linejoin="round"/>
    <path d="M 160.0714569091797 137.49374389648438 C 207.7637481689453 113.86643981933594 177.90562438964844 94.87493896484375 149.4924774169922 92.1931381225586" stroke-width="3.0" fill="none" stroke="rgb(0, 0, 0)" stroke-opacity="1.0" stroke-linecap="round" stroke-linejoin="round"/>
    <path d="M 150.74148559570312 75.95612335205078 C 126.06974792480469 65.44771575927734 160.9647216796875 89.76300048828125 151.85533142089844 71.70249938964844" stroke-width="3.0" fill="none" stroke="rgb(0, 0, 0)" stroke-opacity="1.0" stroke-linecap="round" stroke-linejoin="round"/>
    <path d="M 143.81924438476562 77.08195495605469 C 146.1252899169922 56.97064971923828 176.42018127441406 94.24168395996094 183.86541748046875 59.3986701965332" stroke-width="3.0" fill="none" stroke="rgb(0, 0, 0)" stroke-opacity="1.0" stroke-linecap="round" stroke-linejoin="round"/>
    <path d="M 145.95355224609375 98.95527648925781 C 156.35829162597656 99.79461669921875 170.9888916015625 108.3132553100586 184.7445068359375 113.46597290039062" stroke-width="3.0" fill="none" stroke="rgb(0, 0, 0)" stroke-opacity="1.0" stroke-linecap="round" stroke-linejoin="round"/>
    <path d="M 175.40786743164062 18.741525650024414 C 171.25669860839844 45.396705627441406 174.69921875 28.273406982421875 166.62416076660156 41.358306884765625" stroke-width="3.0" fill="none" stroke="rgb(0, 0, 0)" stroke-opacity="1.0" stroke-linecap="round" stroke-linejoin="round"/>
    <path d="M 125.45284271240234 104.34569549560547 C 151.9999237060547 111.64270782470703 125.28823852539062 94.8762435913086 111.89239501953125 103.19120025634766" stroke-width="3.0" fill="none" stroke="rgb(0, 0, 0)" stroke-opacity="1.0" stroke-linecap="round" stroke-linejoin="round"/>
    <path d="M 51.700401306152344 111.6526107788086 C 54.07490158081055 111.81463623046875 46.20926284790039 107.62975311279297 60.46678161621094 128.37582397460938" stroke-width="3.0" fill="none" stroke="rgb(0, 0, 0)" stroke-opacity="1.0" stroke-linecap="round" stroke-linejoin="round"/>
    <path d="M 121.95614624023438 81.83709716796875 C 130.66726684570312 59.64503860473633 113.2179183959961 54.220436096191406 122.9895248413086 34.04056167602539" stroke-width="3.0" fill="none" stroke="rgb(0, 0, 0)" stroke-opacity="1.0" stroke-linecap="round" stroke-linejoin="round"/>
    <path d="M 147.32257080078125 29.910125732421875 C 150.1092529296875 30.445966720581055 152.26654052734375 17.564701080322266 173.28440856933594 8.180639266967773" stroke-width="3.0" fill="none" stroke="rgb(0, 0, 0)" stroke-opacity="1.0" stroke-linecap="round" stroke-linejoin="round"/>
  </g>
</svg>
