<?xml version="1.0" ?>
<svg xmlns="http://www.w3.org/2000/svg" version="1.1" width="224" height="224">
  <defs/>
  <g>
    <path d="M 64.70278930664062 78.74664306640625 C 64.24202728271484 79.19635772705078 68.78895568847656 82.11556243896484 59.6369743347168 71.3218765258789" stroke-width="3.0" fill="none" stroke="rgb(0, 0, 0)" stroke-opacity="1.0" stroke-linecap="round" stroke-linejoin="round"/>
    <path d="M 184.3620147705078 120.32209777832031 C 178.99337768554688 116.14704132080078 201.35203552246094 95.6806640625 171.93374633789062 131.06124877929688" stroke-width="3.0" fill="none" stroke="rgb(0, 0, 0)" stroke-opacity="1.0" stroke-linecap="round" stroke-linejoin="round"/>
    <path d="M 59.54052734375 119.33332061767578 C 58.988197326660156 113.59458923339844 56.9416618347168 124.39197540283203 68.39091491699219 126.49750518798828" stroke-width="3.0" fill="none" stroke="rgb(0, 0, 0)" stroke-opacity="1.0" stroke-linecap="round" stroke-linejoin="round"/>
    <path d="M 184.5487060546875 95.16270446777344 C 148.31651306152344 84.50135040283203 174.4629364013672 73.20829010009766 194.52210998535156 109.16451263427734" stroke-width="3.0" fill="none" stroke="rgb(0, 0, 0)" stroke-opacity="1.0" stroke-linecap="round" stroke-linejoin="round"/>
    <path d="M 183.1359405517578 64.94646453857422 C 179.06991577148438 116.06148529052734 180.6781005859375 103.76181030273438 181.8459930419922 76.47998809814453" stroke-width="3.0" fill="none" stroke="rgb(0, 0, 0)" stroke-opacity="1.0" stroke-linecap="round" stroke-linejoin="round"/>
    <path d="M 121.48589324951172 102.67784881591797 C 144.73995971679688 116.67700958251953 108.2640380859375 95.0092544555664 134.76522827148438 105.60501861572266" stroke-width="3.0" fill="none" stroke="rgb(0, 0, 0)" stroke-opacity="1.0" stroke-linecap="round" stroke-linejoin="round"/>
    <path d="M 171.8977813720703 89.09162139892578 C 189.5872802734375 92.33892822265625 176.7145233154297 72.6847915649414 157.96856689453125 87.12915802001953" stroke-width="3.0" fill="none" stroke="rgb(0, 0, 0)" stroke-opacity="1.0" stroke-linecap="round" stroke-linejoin="round"/>
    <path d="M 57.49565124511719 185.21385192871094 C 38.73654556274414 155.70423889160156 47.414432525634766 168.41030883789062 48.947425842285156 171.66575622558594" stroke-width="3.0" fill="none" stroke="rgb(0, 0, 0)" stroke-opacity="1.0" stroke-linecap="round" stroke-linejoin="round"/>
    <path d="M 53.78203201293945 180.44924926757812 C 89.01515197753906 210.22142028808594 115.34439086914062 195.07742309570312 130.09762573242188 181.1696319580078" stroke-width="3.0" fill="none" stroke="rgb(0, 0, 0)" stroke-opacity="1.0" stroke-linecap="round" stroke-linejoin="round"/>
    <path d="M 83.7578125 27.983564376831055 C 94.7170181274414 78.36846923828125 82.40332794189453 5.657814025878906 83.16756439208984 59.93565368652344" stroke-width="3.0" fill="none" stroke="rgb(0, 0, 0)" stroke-opacity="1.0" stroke-linecap="round" stroke-linejoin="round"/>
    <path d="M 49.81101989746094 95.79075622558594 C 61.6804084777832 140.14320373535156 94.70916748046875 154.94638061523438 90.20992279052734 149.9456329345703" stroke-width="3.0" fill="none" stroke="rgb(0, 0, 0)" stroke-opacity="1.0" stroke-linecap="round" stroke-linejoin="round"/>
    <path d="M 151.09402465820312 73.50609588623047 C 202.3759002685547 67.49922943115234 185.75387573242188 83.16251373291016 144.06997680664062 84.13297271728516" stroke-width="3.0" fill="none" stroke="rgb(0, 0, 0)" stroke-opacity="1.0" stroke-linecap="round" stroke-linejoin="round"/>
    <path d="M 150.51626586914062 96.02458953857422 C 195.1094207763672 103.87178039550781 178.3627166748047 104.63618469238281 196.213134765625 113.80319213867188" stroke-width="3.0" fill="none" stroke="rgb(0, 0, 0)" stroke-opacity="1.0" stroke-linecap="round" stroke-linejoin="round"/>
    <path d="M 125.64167785644531 157.4886474609375 C 144.92959594726562 144.732666015625 124.53521728515625 154.3876190185547 110.35203552246094 153.6271209716797" stroke-width="3.0" fill="none" stroke="rgb(0, 0, 0)" stroke-opacity="1.0" stroke-linecap="round" stroke-linejoin="round"/>
    <path d="M 177.7552947998047 6.6920166015625 C 186.8042755126953 26.669300079345703 174.1488800048828 63.873313903808594 178.2696990966797 51.500999450683594" stroke-width="3.0" fill="none" stroke="rgb(0, 0, 0)" stroke-opacity="1.0" stroke-linecap="round" stroke-linejoin="round"/>
    <path d="M 129.46420288085938 28.014541625976562 C 125.30964660644531 50.438480377197266 135.5982208251953 38.28731155395508 126.822265625 70.81941223144531" stroke-width="3.0" fill="none" stroke="rgb(0, 0, 0)" stroke-opacity="1.0" stroke-linecap="round" stroke-linejoin="round"/>
    <path d="M 86.75426483154297 52.30464172363281 C 77.30912780761719 -4.0935564041137695 86.01516723632812 1.0811614990234375 111.55867767333984 38.79610061645508" stroke-width="3.0" fill="none" stroke="rgb(0, 0, 0)" stroke-opacity="1.0" stroke-linecap="round" stroke-linejoin="round"/>
    <path d="M 47.23329544067383 168.87814331054688 C 39.846153259277344 153.0368194580078 35.57221603393555 145.6101837158203 45.231632232666016 164.2678680419922" stroke-width="3.0" fill="none" stroke="rgb(0, 0, 0)" stroke-opacity="1.0" stroke-linecap="round" stroke-linejoin="round"/>
    <path d="M 36.01151657104492 95.52944946289062 C 20.187795639038086 127.04739379882812 40.02619934082031 148.06228637695312 42.89909362792969 158.22503662109375" stroke-width="3.0" fill="none" stroke="rgb(0, 0, 0)" stroke-opacity="1.0" stroke-linecap="round" stroke-linejoin="round"/>
    <path d="M 86.92169952392578 149.26588439941406 C 108.44142150878906 160.42942810058594 103.03453826904297 158.73399353027344 94.79853820800781 150.50692749023438" stroke-width="3.0" fill="none" stroke="rgb(0, 0, 0)" stroke-opacity="1.0" stroke-linecap="round" stroke-linejoin="round"/>
    <path d="M 83.90435791015625 196.8778076171875 C 68.25715637207031 200.88804626464844 50.524452209472656 176.8159637451172 48.15154266357422 171.64085388183594" stroke-width="3.0" fill="none" stroke="rgb(0, 0, 0)" stroke-opacity="1.0" stroke-linecap="round" stroke-linejoin="round"/>
    <path d="M 48.12485122680664 173.1419677734375 C 63.41020584106445 193.46531677246094 44.38287353515625 167.4125518798828 38.596981048583984 149.45553588867188" stroke-width="3.0" fill="none" stroke="rgb(0, 0, 0)" stroke-opacity="1.0" stroke-linecap="round" stroke-linejoin="round"/>
    <path d="M 77.44176483154297 54.52794647216797 C 63.666847229003906 60.4328727722168 46.51225662231445 72.3612289428711 31.903554916381836 107.40420532226562" stroke-width="3.0" fill="none" stroke="rgb(0, 0, 0)" stroke-opacity="1.0" stroke-linecap="round" stroke-linejoin="round"/>
    <path d="M 155.31686401367188 139.53924560546875 C 121.49349975585938 157.7676239013672 115.63047790527344 151.88104248046875 132.21168518066406 156.29608154296875" stroke-width="3.0" fill="none" stroke="rgb(0, 0, 0)" stroke-opacity="1.0" stroke-linecap="round" stroke-linejoin="round"/>
    <path d="M 141.46041870117188 30.69548225402832 C 145.6126251220703 48.888431549072266 135.93209838867188 36.1809196472168 135.17250061035156 80.87701416015625" stroke-width="3.0" fill="none" stroke="rgb(0, 0, 0)" stroke-opacity="1.0" stroke-linecap="round" stroke-linejoin="round"/>
    <path d="M 147.50636291503906 100.11727905273438 C 132.48941040039062 107.95623016357422 134.64784240722656 113.68006896972656 119.30171966552734 103.96512603759766" stroke-width="3.0" fill="none" stroke="rgb(0, 0, 0)" stroke-opacity="1.0" stroke-linecap="round" stroke-linejoin="round"/>
    <path d="M 136.63739013671875 74.32097625732422 C 144.05308532714844 56.28081512451172 130.20274353027344 64.14612579345703 136.05914306640625 78.17758178710938" stroke-width="3.0" fill="none" stroke="rgb(0, 0, 0)" stroke-opacity="1.0" stroke-linecap="round" stroke-linejoin="round"/>
    <path d="M 131.9139404296875 178.66668701171875 C 129.37030029296875 183.3818817138672 137.676513671875 180.17913818359375 147.19686889648438 146.6761932373047" stroke-width="3.0" fill="none" stroke="rgb(0, 0, 0)" stroke-opacity="1.0" stroke-linecap="round" stroke-linejoin="round"/>
    <path d="M 195.14898681640625 96.00049591064453 C 169.2511749267578 70.49640655517578 165.21585083007812 79.0501480102539 186.6727752685547 88.83966064453125" stroke-width="3.0" fill="none" stroke="rgb(0, 0, 0)" stroke-opacity="1.0" stroke-linecap="round" stroke-linejoin="round"/>
    <path d="M 147.53086853027344 78.73269653320312 C 139.83009338378906 53.655235290527344 193.9727783203125 91.38832092285156 178.96728515625 66.31048583984375" stroke-width="3.0" fill="none" stroke="rgb(0, 0, 0)" stroke-opacity="1.0" stroke-linecap="round" stroke-linejoin="round"/>
    <path d="M 113.41951751708984 78.11331176757812 C 74.29232788085938 71.67902374267578 148.97337341308594 75.41154479980469 106.83795928955078 81.20362091064453" stroke-width="3.0" fill="none" stroke="rgb(0, 0, 0)" stroke-opacity="1.0" stroke-linecap="round" stroke-linejoin="round"/>
    <path d="M 161.35462951660156 132.28515625 C 127.28662872314453 165.27688598632812 121.27986907958984 152.85108947753906 105.88920593261719 156.4514617919922" stroke-width="3.0" fill="none" stroke="rgb(0, 0, 0)" stroke-opacity="1.0" stroke-linecap="round" stroke-linejoin="round"/>
    <path d="M 125.84131622314453 90.95055389404297 C 141.28533935546875 102.15130615234375 132.74644470214844 71.36219024658203 129.21231079101562 108.03138732910156" stroke-width="3.0" fill="none" stroke="rgb(0, 0, 0)" stroke-opacity="1.0" stroke-linecap="round" stroke-linejoin="round"/>
    <path d="M 188.82180786132812 113.48308563232422 C 173.15528869628906 88.92361450195312 185.50369262695312 91.61287689208984 140.75088500976562 81.66425323486328" stroke-width="3.0" fill="none" stroke="rgb(0, 0, 0)" stroke-opacity="1.0" stroke-linecap="round" stroke-linejoin="round"/>
    <path d="M 87.35798645019531 8.108224868774414 C 104.99873352050781 12.321552276611328 117.21073150634766 35.329463958740234 122.56083679199219 30.973363876342773" stroke-width="3.0" fill="none" stroke="rgb(0, 0, 0)" stroke-opacity="1.0" stroke-linecap="round" stroke-linejoin="round"/>
    <path d="M 59.521663665771484 120.77011108398438 C 60.734901428222656 117.44641876220703 62.151268005371094 130.91131591796875 62.74774169921875 123.97196960449219" stroke-width="3.0" fill="none" stroke="rgb(0, 0, 0)" stroke-opacity="1.0" stroke-linecap="round" stroke-linejoin="round"/>
    <path d="M 137.6687469482422 104.03426361083984 C 116.55133819580078 95.73009490966797 119.52059173583984 115.5860366821289 107.7496337890625 91.32437896728516" stroke-width="3.0" fill="none" stroke="rgb(0, 0, 0)" stroke-opacity="1.0" stroke-linecap="round" stroke-linejoin="round"/>
    <path d="M 31.98976707458496 132.36407470703125 C 28.99541664123535 97.05001831054688 45.929832458496094 105.11102294921875 48.742828369140625 76.80354309082031" stroke-width="3.0" fill="none" stroke="rgb(0, 0, 0)" stroke-opacity="1.0" stroke-linecap="round" stroke-linejoin="round"/>
    <path d="M 78.37689971923828 196.26239013671875 C 69.9788589477539 194.18777465820312 65.08547973632812 194.40345764160156 98.55098724365234 197.65391540527344" stroke-width="3.0" fill="none" stroke="rgb(0, 0, 0)" stroke-opacity="1.0" stroke-linecap="round" stroke-linejoin="round"/>
    <path d="M 161.3284149169922 130.28846740722656 C 201.1644744873047 119.3459701538086 177.66592407226562 95.49562072753906 155.25762939453125 90.68794250488281" stroke-width="3.0" fill="none" stroke="rgb(0, 0, 0)" stroke-opacity="1.0" stroke-linecap="round" stroke-linejoin="round"/>
    <path d="M 159.0762481689453 71.08772277832031 C 135.6648406982422 84.5051498413086 172.31204223632812 76.32211303710938 147.37294006347656 72.78339385986328" stroke-width="3.0" fill="none" stroke="rgb(0, 0, 0)" stroke-opacity="1.0" stroke-linecap="round" stroke-linejoin="round"/>
    <path d="M 140.42539978027344 76.25536346435547 C 145.0167236328125 43.005435943603516 194.0651397705078 112.16370391845703 179.19125366210938 43.04201889038086" stroke-width="3.0" fill="none" stroke="rgb(0, 0, 0)" stroke-opacity="1.0" stroke-linecap="round" stroke-linejoin="round"/>
    <path d="M 158.74412536621094 97.17156982421875 C 169.76536560058594 105.81809997558594 174.1718292236328 100.79116821289062 181.709228515625 124.2490005493164" stroke-width="3.0" fill="none" stroke="rgb(0, 0, 0)" stroke-opacity="1.0" stroke-linecap="round" stroke-linejoin="round"/>
    <path d="M 174.85914611816406 14.580738067626953 C 166.31588745117188 41.762271881103516 176.16070556640625 21.423641204833984 162.42111206054688 34.8060302734375" stroke-width="3.0" fill="none" stroke="rgb(0, 0, 0)" stroke-opacity="1.0" stroke-linecap="round" stroke-linejoin="round"/>
    <path d="M 120.53176879882812 103.46249389648438 C 144.27984619140625 104.00806427001953 137.7967987060547 110.0634536743164 120.3043441772461 103.3394546508789" stroke-width="3.0" fill="none" stroke="rgb(0, 0, 0)" stroke-opacity="1.0" stroke-linecap="round" stroke-linejoin="round"/>
    <path d="M 74.92504119873047 135.9916229248047 C 51.48328399658203 127.1546859741211 62.355995178222656 111.51824188232422 60.756526947021484 120.31784057617188" stroke-width="3.0" fill="none" stroke="rgb(0, 0, 0)" stroke-opacity="1.0" stroke-linecap="round" stroke-linejoin="round"/>
    <path d="M 124.56532287597656 73.85087585449219 C 128.52439880371094 36.125 119.25636291503906 49.743202209472656 121.9388656616211 36.472023010253906" stroke-width="3.0" fill="none" stroke="rgb(0, 0, 0)" stroke-opacity="1.0" stroke-linecap="round" stroke-linejoin="round"/>
    <path d="M 153.44837951660156 25.63713836669922 C 146.32980346679688 35.147193908691406 161.3924102783203 9.557744026184082 176.8148651123047 8.434541702270508" stroke-width="3.0" fill="none" stroke="rgb(0, 0, 0)" stroke-opacity="1.0" stroke-linecap="round" stroke-linejoin="round"/>
  </g>
</svg>
