<?xml version="1.0" ?>
<svg xmlns="http://www.w3.org/2000/svg" version="1.1" width="224" height="224">
  <defs/>
  <g>
    <path d="M 55.61247634887695 100.74347686767578 C 66.82421112060547 88.86111450195312 47.877864837646484 95.37034606933594 56.018272399902344 77.58740234375" stroke-width="3.0" fill="none" stroke="rgb(0, 0, 0)" stroke-opacity="1.0" stroke-linecap="round" stroke-linejoin="round"/>
    <path d="M 185.09219360351562 117.5955810546875 C 181.53179931640625 112.09578704833984 191.45233154296875 83.32794952392578 180.6027069091797 124.58674621582031" stroke-width="3.0" fill="none" stroke="rgb(0, 0, 0)" stroke-opacity="1.0" stroke-linecap="round" stroke-linejoin="round"/>
    <path d="M 60.916481018066406 118.16350555419922 C 65.06452941894531 98.1219711303711 54.45998001098633 129.9995880126953 71.20713806152344 134.38156127929688" stroke-width="3.0" fill="none" stroke="rgb(0, 0, 0)" stroke-opacity="1.0" stroke-linecap="round" stroke-linejoin="round"/>
    <path d="M 186.0557098388672 94.93180084228516 C 150.04209899902344 80.34158325195312 183.46234130859375 81.39420318603516 187.66343688964844 104.92859649658203" stroke-width="3.0" fill="none" stroke="rgb(0, 0, 0)" stroke-opacity="1.0" stroke-linecap="round" stroke-linejoin="round"/>
    <path d="M 180.0538787841797 57.36235427856445 C 191.05545043945312 101.52296447753906 176.9581756591797 101.70506286621094 182.33294677734375 73.35466003417969" stroke-width="3.0" fill="none" stroke="rgb(0, 0, 0)" stroke-opacity="1.0" stroke-linecap="round" stroke-linejoin="round"/>
    <path d="M 130.62771606445312 100.62958526611328 C 146.96142578125 122.21765899658203 96.45782470703125 102.30436706542969 131.03367614746094 102.56745147705078" stroke-width="3.0" fill="none" stroke="rgb(0, 0, 0)" stroke-opacity="1.0" stroke-linecap="round" stroke-linejoin="round"/>
    <path d="M 181.6549835205078 85.83331298828125 C 184.85008239746094 75.40770721435547 195.60482788085938 73.20233917236328 144.41188049316406 87.20271301269531" stroke-width="3.0" fill="none" stroke="rgb(0, 0, 0)" stroke-opacity="1.0" stroke-linecap="round" stroke-linejoin="round"/>
    <path d="M 66.18616485595703 190.9570770263672 C 39.79307174682617 163.9117889404297 52.62773132324219 169.08798217773438 48.825714111328125 171.2655487060547" stroke-width="3.0" fill="none" stroke="rgb(0, 0, 0)" stroke-opacity="1.0" stroke-linecap="round" stroke-linejoin="round"/>
    <path d="M 56.79096603393555 183.56631469726562 C 89.8852310180664 210.46743774414062 124.42378997802734 196.6049041748047 135.48507690429688 169.8343048095703" stroke-width="3.0" fill="none" stroke="rgb(0, 0, 0)" stroke-opacity="1.0" stroke-linecap="round" stroke-linejoin="round"/>
    <path d="M 84.60343170166016 23.304323196411133 C 94.7762680053711 80.12166595458984 90.46080017089844 11.745494842529297 87.0283432006836 57.19851303100586" stroke-width="3.0" fill="none" stroke="rgb(0, 0, 0)" stroke-opacity="1.0" stroke-linecap="round" stroke-linejoin="round"/>
    <path d="M 54.47025680541992 84.62981414794922 C 62.423370361328125 144.24102783203125 68.9273452758789 143.6525115966797 64.99617004394531 133.6437225341797" stroke-width="3.0" fill="none" stroke="rgb(0, 0, 0)" stroke-opacity="1.0" stroke-linecap="round" stroke-linejoin="round"/>
    <path d="M 147.66183471679688 70.85814666748047 C 202.32791137695312 63.9373779296875 192.3289794921875 88.29219055175781 144.37557983398438 82.83909606933594" stroke-width="3.0" fill="none" stroke="rgb(0, 0, 0)" stroke-opacity="1.0" stroke-linecap="round" stroke-linejoin="round"/>
    <path d="M 156.66029357910156 92.91146850585938 C 178.4950408935547 102.59042358398438 179.33094787597656 98.71270751953125 195.0244598388672 111.96785736083984" stroke-width="3.0" fill="none" stroke="rgb(0, 0, 0)" stroke-opacity="1.0" stroke-linecap="round" stroke-linejoin="round"/>
    <path d="M 119.47655487060547 151.69140625 C 152.5452423095703 155.83692932128906 100.73064422607422 149.9307098388672 101.0028076171875 155.6995086669922" stroke-width="3.0" fill="none" stroke="rgb(0, 0, 0)" stroke-opacity="1.0" stroke-linecap="round" stroke-linejoin="round"/>
    <path d="M 180.09059143066406 7.263360977172852 C 187.2964324951172 27.347469329833984 171.41651916503906 85.62450408935547 180.70169067382812 58.39057159423828" stroke-width="3.0" fill="none" stroke="rgb(0, 0, 0)" stroke-opacity="1.0" stroke-linecap="round" stroke-linejoin="round"/>
    <path d="M 135.84494018554688 29.4189395904541 C 103.5191879272461 23.49559211730957 134.0209197998047 43.30909729003906 123.85015106201172 76.97932434082031" stroke-width="3.0" fill="none" stroke="rgb(0, 0, 0)" stroke-opacity="1.0" stroke-linecap="round" stroke-linejoin="round"/>
    <path d="M 98.85411834716797 46.639198303222656 C 63.503604888916016 -4.377905368804932 84.97329711914062 0.07239491492509842 120.02885437011719 30.684621810913086" stroke-width="3.0" fill="none" stroke="rgb(0, 0, 0)" stroke-opacity="1.0" stroke-linecap="round" stroke-linejoin="round"/>
    <path d="M 46.05671310424805 167.32374572753906 C 41.3458366394043 156.37646484375 40.46108627319336 147.32313537597656 48.6628303527832 169.50733947753906" stroke-width="3.0" fill="none" stroke="rgb(0, 0, 0)" stroke-opacity="1.0" stroke-linecap="round" stroke-linejoin="round"/>
    <path d="M 44.3560791015625 84.05262756347656 C 15.83782958984375 130.5107421875 39.14026641845703 140.18197631835938 44.57321548461914 166.15985107421875" stroke-width="3.0" fill="none" stroke="rgb(0, 0, 0)" stroke-opacity="1.0" stroke-linecap="round" stroke-linejoin="round"/>
    <path d="M 69.08856201171875 140.32968139648438 C 118.84738159179688 160.29046630859375 86.91761016845703 150.3013153076172 82.28797149658203 145.39662170410156" stroke-width="3.0" fill="none" stroke="rgb(0, 0, 0)" stroke-opacity="1.0" stroke-linecap="round" stroke-linejoin="round"/>
    <path d="M 89.9107666015625 197.17581176757812 C 71.46244049072266 203.2016143798828 48.83456802368164 174.67947387695312 47.770286560058594 168.0161895751953" stroke-width="3.0" fill="none" stroke="rgb(0, 0, 0)" stroke-opacity="1.0" stroke-linecap="round" stroke-linejoin="round"/>
    <path d="M 48.77558135986328 173.87657165527344 C 66.41558074951172 195.55982971191406 47.66645812988281 171.6609344482422 42.13900375366211 151.78334045410156" stroke-width="3.0" fill="none" stroke="rgb(0, 0, 0)" stroke-opacity="1.0" stroke-linecap="round" stroke-linejoin="round"/>
    <path d="M 82.16271209716797 52.36115646362305 C 55.3017692565918 57.39907455444336 53.21240997314453 72.63856506347656 31.972312927246094 110.25907897949219" stroke-width="3.0" fill="none" stroke="rgb(0, 0, 0)" stroke-opacity="1.0" stroke-linecap="round" stroke-linejoin="round"/>
    <path d="M 157.85009765625 137.13327026367188 C 107.3177719116211 155.15640258789062 102.45703125 164.28271484375 144.47882080078125 144.95431518554688" stroke-width="3.0" fill="none" stroke="rgb(0, 0, 0)" stroke-opacity="1.0" stroke-linecap="round" stroke-linejoin="round"/>
    <path d="M 149.825439453125 27.898326873779297 C 137.44073486328125 32.277042388916016 129.49249267578125 15.458717346191406 141.60902404785156 82.9593505859375" stroke-width="3.0" fill="none" stroke="rgb(0, 0, 0)" stroke-opacity="1.0" stroke-linecap="round" stroke-linejoin="round"/>
    <path d="M 149.5673065185547 100.45591735839844 C 130.156982421875 116.32858276367188 129.53411865234375 102.98065185546875 116.7894515991211 89.42603302001953" stroke-width="3.0" fill="none" stroke="rgb(0, 0, 0)" stroke-opacity="1.0" stroke-linecap="round" stroke-linejoin="round"/>
    <path d="M 137.2779083251953 74.38600158691406 C 142.44468688964844 55.36540603637695 135.0574188232422 78.9392318725586 140.347412109375 78.30841064453125" stroke-width="3.0" fill="none" stroke="rgb(0, 0, 0)" stroke-opacity="1.0" stroke-linecap="round" stroke-linejoin="round"/>
    <path d="M 136.62721252441406 165.3917999267578 C 126.31771850585938 178.13563537597656 140.50608825683594 169.82594299316406 146.77847290039062 146.25381469726562" stroke-width="3.0" fill="none" stroke="rgb(0, 0, 0)" stroke-opacity="1.0" stroke-linecap="round" stroke-linejoin="round"/>
    <path d="M 194.4078826904297 97.53585815429688 C 163.43101501464844 70.87523651123047 172.705810546875 75.66535186767578 181.62147521972656 96.34162902832031" stroke-width="3.0" fill="none" stroke="rgb(0, 0, 0)" stroke-opacity="1.0" stroke-linecap="round" stroke-linejoin="round"/>
    <path d="M 157.62619018554688 71.38926696777344 C 130.03282165527344 54.60468292236328 194.21847534179688 94.22898864746094 181.08547973632812 62.907493591308594" stroke-width="3.0" fill="none" stroke="rgb(0, 0, 0)" stroke-opacity="1.0" stroke-linecap="round" stroke-linejoin="round"/>
    <path d="M 116.27626037597656 83.0423355102539 C 84.47709655761719 74.27532196044922 141.83203125 79.04975128173828 108.98661804199219 83.6780776977539" stroke-width="3.0" fill="none" stroke="rgb(0, 0, 0)" stroke-opacity="1.0" stroke-linecap="round" stroke-linejoin="round"/>
    <path d="M 168.4202423095703 129.13377380371094 C 146.63731384277344 155.3821258544922 110.59109497070312 146.947265625 105.41560363769531 156.68894958496094" stroke-width="3.0" fill="none" stroke="rgb(0, 0, 0)" stroke-opacity="1.0" stroke-linecap="round" stroke-linejoin="round"/>
    <path d="M 125.5572509765625 93.10100555419922 C 148.58053588867188 99.3685073852539 131.1903533935547 76.8162841796875 131.79010009765625 105.0457534790039" stroke-width="3.0" fill="none" stroke="rgb(0, 0, 0)" stroke-opacity="1.0" stroke-linecap="round" stroke-linejoin="round"/>
    <path d="M 186.53982543945312 114.61650085449219 C 158.84197998046875 87.44684600830078 182.97412109375 90.74007415771484 149.85391235351562 86.9979248046875" stroke-width="3.0" fill="none" stroke="rgb(0, 0, 0)" stroke-opacity="1.0" stroke-linecap="round" stroke-linejoin="round"/>
    <path d="M 83.03840637207031 9.871443748474121 C 117.14192199707031 19.591272354125977 103.5911865234375 34.57023620605469 137.69161987304688 28.785953521728516" stroke-width="3.0" fill="none" stroke="rgb(0, 0, 0)" stroke-opacity="1.0" stroke-linecap="round" stroke-linejoin="round"/>
    <path d="M 59.118133544921875 118.79566955566406 C 58.75111389160156 113.26463317871094 59.78601837158203 124.81693267822266 65.10445404052734 124.65873718261719" stroke-width="3.0" fill="none" stroke="rgb(0, 0, 0)" stroke-opacity="1.0" stroke-linecap="round" stroke-linejoin="round"/>
    <path d="M 139.71786499023438 107.6256332397461 C 140.24256896972656 90.22933959960938 124.01756286621094 118.74756622314453 118.14149475097656 88.06754302978516" stroke-width="3.0" fill="none" stroke="rgb(0, 0, 0)" stroke-opacity="1.0" stroke-linecap="round" stroke-linejoin="round"/>
    <path d="M 33.96784591674805 133.44436645507812 C 28.773653030395508 120.01549530029297 35.8720817565918 87.8222885131836 58.693565368652344 70.44389343261719" stroke-width="3.0" fill="none" stroke="rgb(0, 0, 0)" stroke-opacity="1.0" stroke-linecap="round" stroke-linejoin="round"/>
    <path d="M 94.81927490234375 197.53773498535156 C 65.4569091796875 193.02142333984375 67.73369598388672 194.64102172851562 104.58782196044922 198.15408325195312" stroke-width="3.0" fill="none" stroke="rgb(0, 0, 0)" stroke-opacity="1.0" stroke-linecap="round" stroke-linejoin="round"/>
    <path d="M 169.4542236328125 126.85610961914062 C 198.71701049804688 114.0849380493164 180.2476043701172 95.549072265625 154.82421875 86.9171371459961" stroke-width="3.0" fill="none" stroke="rgb(0, 0, 0)" stroke-opacity="1.0" stroke-linecap="round" stroke-linejoin="round"/>
    <path d="M 152.6855010986328 67.06427764892578 C 135.9991912841797 84.49752807617188 177.45587158203125 74.06417083740234 148.57395935058594 72.67747497558594" stroke-width="3.0" fill="none" stroke="rgb(0, 0, 0)" stroke-opacity="1.0" stroke-linecap="round" stroke-linejoin="round"/>
    <path d="M 142.09686279296875 78.50408172607422 C 138.8988800048828 37.788734436035156 195.36734008789062 113.15910339355469 177.6276092529297 44.397369384765625" stroke-width="3.0" fill="none" stroke="rgb(0, 0, 0)" stroke-opacity="1.0" stroke-linecap="round" stroke-linejoin="round"/>
    <path d="M 152.74899291992188 96.6741943359375 C 172.1824951171875 104.94295501708984 169.89971923828125 99.48040771484375 180.9042510986328 119.42176055908203" stroke-width="3.0" fill="none" stroke="rgb(0, 0, 0)" stroke-opacity="1.0" stroke-linecap="round" stroke-linejoin="round"/>
    <path d="M 177.44070434570312 17.16130256652832 C 181.3439483642578 37.53238296508789 162.19508361816406 13.440906524658203 150.78697204589844 40.23573303222656" stroke-width="3.0" fill="none" stroke="rgb(0, 0, 0)" stroke-opacity="1.0" stroke-linecap="round" stroke-linejoin="round"/>
    <path d="M 120.97369384765625 102.22647857666016 C 155.5119171142578 102.36713409423828 140.5696563720703 112.32573699951172 121.07962799072266 96.09260559082031" stroke-width="3.0" fill="none" stroke="rgb(0, 0, 0)" stroke-opacity="1.0" stroke-linecap="round" stroke-linejoin="round"/>
    <path d="M 64.63334655761719 122.34133911132812 C 55.57892608642578 108.27386474609375 60.50843048095703 109.24260711669922 60.05437469482422 116.96753692626953" stroke-width="3.0" fill="none" stroke="rgb(0, 0, 0)" stroke-opacity="1.0" stroke-linecap="round" stroke-linejoin="round"/>
    <path d="M 123.66488647460938 74.54556274414062 C 121.6297836303711 40.39310073852539 117.99794006347656 59.212425231933594 120.46559143066406 38.362430572509766" stroke-width="3.0" fill="none" stroke="rgb(0, 0, 0)" stroke-opacity="1.0" stroke-linecap="round" stroke-linejoin="round"/>
    <path d="M 150.81349182128906 25.0336856842041 C 144.33392333984375 34.00404739379883 164.01329040527344 6.478670120239258 179.29544067382812 7.4915666580200195" stroke-width="3.0" fill="none" stroke="rgb(0, 0, 0)" stroke-opacity="1.0" stroke-linecap="round" stroke-linejoin="round"/>
  </g>
</svg>
