<?xml version="1.0" ?>
<svg xmlns="http://www.w3.org/2000/svg" version="1.1" width="224" height="224">
  <defs/>
  <g>
    <path d="M 64.65985870361328 81.95903015136719 C 64.31086730957031 82.52153015136719 66.95973205566406 83.44834899902344 56.70650863647461 75.56692504882812" stroke-width="3.0" fill="none" stroke="rgb(0, 0, 0)" stroke-opacity="1.0" stroke-linecap="round" stroke-linejoin="round"/>
    <path d="M 186.34060668945312 121.71113586425781 C 178.58787536621094 111.05848693847656 197.63307189941406 93.34687805175781 175.6656951904297 127.25603485107422" stroke-width="3.0" fill="none" stroke="rgb(0, 0, 0)" stroke-opacity="1.0" stroke-linecap="round" stroke-linejoin="round"/>
    <path d="M 60.61856460571289 128.02447509765625 C 52.21640396118164 99.05806732177734 57.33377456665039 125.20954132080078 64.95330047607422 130.71466064453125" stroke-width="3.0" fill="none" stroke="rgb(0, 0, 0)" stroke-opacity="1.0" stroke-linecap="round" stroke-linejoin="round"/>
    <path d="M 183.82394409179688 97.08183288574219 C 155.34872436523438 83.07382202148438 174.63453674316406 81.30914306640625 195.96595764160156 114.53203582763672" stroke-width="3.0" fill="none" stroke="rgb(0, 0, 0)" stroke-opacity="1.0" stroke-linecap="round" stroke-linejoin="round"/>
    <path d="M 180.91368103027344 59.081024169921875 C 175.72512817382812 111.7730941772461 183.13429260253906 98.82437133789062 185.1196746826172 66.82964324951172" stroke-width="3.0" fill="none" stroke="rgb(0, 0, 0)" stroke-opacity="1.0" stroke-linecap="round" stroke-linejoin="round"/>
    <path d="M 123.60163116455078 103.02078247070312 C 146.08770751953125 116.97486877441406 102.3342514038086 99.76625061035156 136.08990478515625 101.67498779296875" stroke-width="3.0" fill="none" stroke="rgb(0, 0, 0)" stroke-opacity="1.0" stroke-linecap="round" stroke-linejoin="round"/>
    <path d="M 173.11236572265625 100.70353698730469 C 189.18304443359375 86.73829650878906 175.46957397460938 71.90364837646484 155.60581970214844 86.05933380126953" stroke-width="3.0" fill="none" stroke="rgb(0, 0, 0)" stroke-opacity="1.0" stroke-linecap="round" stroke-linejoin="round"/>
    <path d="M 58.398048400878906 183.90701293945312 C 38.47315979003906 154.22938537597656 47.47246170043945 166.77728271484375 50.261653900146484 173.93191528320312" stroke-width="3.0" fill="none" stroke="rgb(0, 0, 0)" stroke-opacity="1.0" stroke-linecap="round" stroke-linejoin="round"/>
    <path d="M 58.12834930419922 183.88385009765625 C 95.20109558105469 210.38540649414062 113.38050079345703 196.88165283203125 131.9078369140625 177.8948516845703" stroke-width="3.0" fill="none" stroke="rgb(0, 0, 0)" stroke-opacity="1.0" stroke-linecap="round" stroke-linejoin="round"/>
    <path d="M 85.35013580322266 34.8743782043457 C 96.96797943115234 72.44824981689453 85.45820617675781 11.98638916015625 86.13147735595703 56.375450134277344" stroke-width="3.0" fill="none" stroke="rgb(0, 0, 0)" stroke-opacity="1.0" stroke-linecap="round" stroke-linejoin="round"/>
    <path d="M 54.43610382080078 108.62875366210938 C 61.30487823486328 135.85906982421875 95.6833267211914 160.48031616210938 96.13302612304688 157.10995483398438" stroke-width="3.0" fill="none" stroke="rgb(0, 0, 0)" stroke-opacity="1.0" stroke-linecap="round" stroke-linejoin="round"/>
    <path d="M 142.76992797851562 75.55046844482422 C 205.76853942871094 62.4358024597168 189.97450256347656 80.57344818115234 150.2787322998047 85.66153717041016" stroke-width="3.0" fill="none" stroke="rgb(0, 0, 0)" stroke-opacity="1.0" stroke-linecap="round" stroke-linejoin="round"/>
    <path d="M 151.0151824951172 95.26290130615234 C 187.63232421875 99.2404556274414 173.9438018798828 103.01583862304688 193.3549041748047 113.26980590820312" stroke-width="3.0" fill="none" stroke="rgb(0, 0, 0)" stroke-opacity="1.0" stroke-linecap="round" stroke-linejoin="round"/>
    <path d="M 123.01409149169922 154.09461975097656 C 144.97105407714844 144.93191528320312 121.27934265136719 159.87646484375 123.28016662597656 150.0633544921875" stroke-width="3.0" fill="none" stroke="rgb(0, 0, 0)" stroke-opacity="1.0" stroke-linecap="round" stroke-linejoin="round"/>
    <path d="M 178.68551635742188 7.994142532348633 C 189.23098754882812 22.717071533203125 174.19078063964844 58.73664855957031 179.95770263671875 49.646018981933594" stroke-width="3.0" fill="none" stroke="rgb(0, 0, 0)" stroke-opacity="1.0" stroke-linecap="round" stroke-linejoin="round"/>
    <path d="M 131.93185424804688 31.37272834777832 C 123.82536315917969 56.774879455566406 131.64512634277344 40.43397521972656 124.24565887451172 69.70564270019531" stroke-width="3.0" fill="none" stroke="rgb(0, 0, 0)" stroke-opacity="1.0" stroke-linecap="round" stroke-linejoin="round"/>
    <path d="M 87.6568603515625 52.023155212402344 C 77.6163330078125 -10.527647018432617 82.52338409423828 -1.3591580390930176 105.6756820678711 42.60677719116211" stroke-width="3.0" fill="none" stroke="rgb(0, 0, 0)" stroke-opacity="1.0" stroke-linecap="round" stroke-linejoin="round"/>
    <path d="M 45.64156723022461 166.0201873779297 C 40.004295349121094 154.42935180664062 37.946834564208984 147.10548400878906 45.19927215576172 164.47593688964844" stroke-width="3.0" fill="none" stroke="rgb(0, 0, 0)" stroke-opacity="1.0" stroke-linecap="round" stroke-linejoin="round"/>
    <path d="M 35.3499641418457 102.618408203125 C 22.787914276123047 122.76282501220703 38.39411544799805 146.639404296875 39.5417594909668 152.03993225097656" stroke-width="3.0" fill="none" stroke="rgb(0, 0, 0)" stroke-opacity="1.0" stroke-linecap="round" stroke-linejoin="round"/>
    <path d="M 92.89363098144531 153.6138153076172 C 100.65182495117188 160.41940307617188 109.67346954345703 159.59300231933594 104.02220916748047 153.56793212890625" stroke-width="3.0" fill="none" stroke="rgb(0, 0, 0)" stroke-opacity="1.0" stroke-linecap="round" stroke-linejoin="round"/>
    <path d="M 83.882568359375 197.53465270996094 C 68.53107452392578 198.9983367919922 53.26334762573242 175.62457275390625 48.25187683105469 170.04566955566406" stroke-width="3.0" fill="none" stroke="rgb(0, 0, 0)" stroke-opacity="1.0" stroke-linecap="round" stroke-linejoin="round"/>
    <path d="M 45.68668746948242 165.302978515625 C 61.0350456237793 191.64280700683594 45.7512321472168 162.3331756591797 38.585105895996094 146.996337890625" stroke-width="3.0" fill="none" stroke="rgb(0, 0, 0)" stroke-opacity="1.0" stroke-linecap="round" stroke-linejoin="round"/>
    <path d="M 79.65773010253906 56.59404373168945 C 61.57804870605469 57.36407470703125 48.14775848388672 73.08061981201172 33.53361511230469 104.46406555175781" stroke-width="3.0" fill="none" stroke="rgb(0, 0, 0)" stroke-opacity="1.0" stroke-linecap="round" stroke-linejoin="round"/>
    <path d="M 147.69033813476562 140.64544677734375 C 129.72857666015625 160.34320068359375 118.04252624511719 150.38011169433594 130.7664794921875 154.4226837158203" stroke-width="3.0" fill="none" stroke="rgb(0, 0, 0)" stroke-opacity="1.0" stroke-linecap="round" stroke-linejoin="round"/>
    <path d="M 141.71925354003906 30.332319259643555 C 145.76913452148438 61.29548263549805 134.0154266357422 53.96586608886719 134.6426544189453 80.05375671386719" stroke-width="3.0" fill="none" stroke="rgb(0, 0, 0)" stroke-opacity="1.0" stroke-linecap="round" stroke-linejoin="round"/>
    <path d="M 146.26426696777344 99.15868377685547 C 115.77625274658203 110.2411117553711 140.7938232421875 108.28010559082031 132.55165100097656 103.90939331054688" stroke-width="3.0" fill="none" stroke="rgb(0, 0, 0)" stroke-opacity="1.0" stroke-linecap="round" stroke-linejoin="round"/>
    <path d="M 134.69985961914062 73.46220397949219 C 146.5690460205078 55.97053146362305 131.09750366210938 57.69272994995117 135.50906372070312 74.37678527832031" stroke-width="3.0" fill="none" stroke="rgb(0, 0, 0)" stroke-opacity="1.0" stroke-linecap="round" stroke-linejoin="round"/>
    <path d="M 134.18670654296875 176.7895050048828 C 125.54724884033203 185.14138793945312 137.46090698242188 178.73626708984375 143.01222229003906 150.91212463378906" stroke-width="3.0" fill="none" stroke="rgb(0, 0, 0)" stroke-opacity="1.0" stroke-linecap="round" stroke-linejoin="round"/>
    <path d="M 195.999755859375 95.3573989868164 C 168.3773956298828 71.38320922851562 154.72283935546875 83.15185546875 183.6576385498047 85.98570251464844" stroke-width="3.0" fill="none" stroke="rgb(0, 0, 0)" stroke-opacity="1.0" stroke-linecap="round" stroke-linejoin="round"/>
    <path d="M 146.75160217285156 78.95711517333984 C 163.84483337402344 62.01940155029297 191.91006469726562 86.5357666015625 178.10348510742188 66.37020874023438" stroke-width="3.0" fill="none" stroke="rgb(0, 0, 0)" stroke-opacity="1.0" stroke-linecap="round" stroke-linejoin="round"/>
    <path d="M 114.19889068603516 83.34368896484375 C 84.50300598144531 77.46461486816406 138.2846221923828 75.1006851196289 108.38459777832031 83.92118072509766" stroke-width="3.0" fill="none" stroke="rgb(0, 0, 0)" stroke-opacity="1.0" stroke-linecap="round" stroke-linejoin="round"/>
    <path d="M 153.15008544921875 137.15249633789062 C 134.0795440673828 168.07754516601562 114.33264923095703 148.7362060546875 104.43932342529297 158.03733825683594" stroke-width="3.0" fill="none" stroke="rgb(0, 0, 0)" stroke-opacity="1.0" stroke-linecap="round" stroke-linejoin="round"/>
    <path d="M 123.7187271118164 89.01448822021484 C 141.98069763183594 102.6474380493164 133.98355102539062 70.65828704833984 129.02789306640625 105.57862854003906" stroke-width="3.0" fill="none" stroke="rgb(0, 0, 0)" stroke-opacity="1.0" stroke-linecap="round" stroke-linejoin="round"/>
    <path d="M 190.34593200683594 111.23148345947266 C 181.75625610351562 82.13947296142578 189.1201934814453 91.65805053710938 141.04721069335938 84.869873046875" stroke-width="3.0" fill="none" stroke="rgb(0, 0, 0)" stroke-opacity="1.0" stroke-linecap="round" stroke-linejoin="round"/>
    <path d="M 86.53132629394531 9.404707908630371 C 99.60614013671875 14.21716022491455 115.96380615234375 31.176353454589844 116.53193664550781 30.091463088989258" stroke-width="3.0" fill="none" stroke="rgb(0, 0, 0)" stroke-opacity="1.0" stroke-linecap="round" stroke-linejoin="round"/>
    <path d="M 60.18082046508789 124.92560577392578 C 55.119773864746094 114.89556884765625 65.16156768798828 132.2310333251953 60.03861618041992 120.25141143798828" stroke-width="3.0" fill="none" stroke="rgb(0, 0, 0)" stroke-opacity="1.0" stroke-linecap="round" stroke-linejoin="round"/>
    <path d="M 137.5194854736328 107.48802947998047 C 119.8228530883789 96.72758483886719 119.94084930419922 118.93379211425781 110.99910736083984 91.42302703857422" stroke-width="3.0" fill="none" stroke="rgb(0, 0, 0)" stroke-opacity="1.0" stroke-linecap="round" stroke-linejoin="round"/>
    <path d="M 31.61593246459961 132.2897491455078 C 26.49637222290039 97.62785339355469 34.486515045166016 98.8567123413086 39.919166564941406 92.26915740966797" stroke-width="3.0" fill="none" stroke="rgb(0, 0, 0)" stroke-opacity="1.0" stroke-linecap="round" stroke-linejoin="round"/>
    <path d="M 79.2155990600586 196.49070739746094 C 73.028076171875 192.67068481445312 68.78317260742188 194.14808654785156 96.1415786743164 199.0521697998047" stroke-width="3.0" fill="none" stroke="rgb(0, 0, 0)" stroke-opacity="1.0" stroke-linecap="round" stroke-linejoin="round"/>
    <path d="M 155.77587890625 133.8113250732422 C 207.81703186035156 116.31183624267578 182.12777709960938 95.99329376220703 156.9524688720703 89.91329193115234" stroke-width="3.0" fill="none" stroke="rgb(0, 0, 0)" stroke-opacity="1.0" stroke-linecap="round" stroke-linejoin="round"/>
    <path d="M 155.09413146972656 70.2055435180664 C 125.00344848632812 82.9950180053711 172.40426635742188 84.38478088378906 145.1322021484375 69.91913604736328" stroke-width="3.0" fill="none" stroke="rgb(0, 0, 0)" stroke-opacity="1.0" stroke-linecap="round" stroke-linejoin="round"/>
    <path d="M 140.81396484375 80.07869720458984 C 143.86643981933594 44.75446319580078 194.56057739257812 116.147705078125 180.18496704101562 44.89701461791992" stroke-width="3.0" fill="none" stroke="rgb(0, 0, 0)" stroke-opacity="1.0" stroke-linecap="round" stroke-linejoin="round"/>
    <path d="M 158.07508850097656 96.81957244873047 C 169.0961151123047 106.35750579833984 173.56324768066406 102.5481948852539 181.22149658203125 118.34130096435547" stroke-width="3.0" fill="none" stroke="rgb(0, 0, 0)" stroke-opacity="1.0" stroke-linecap="round" stroke-linejoin="round"/>
    <path d="M 176.19580078125 16.850250244140625 C 172.41709899902344 41.81583023071289 173.75010681152344 24.867244720458984 160.07025146484375 37.31387710571289" stroke-width="3.0" fill="none" stroke="rgb(0, 0, 0)" stroke-opacity="1.0" stroke-linecap="round" stroke-linejoin="round"/>
    <path d="M 118.39765930175781 103.56201934814453 C 145.08798217773438 103.244140625 131.59950256347656 114.95977783203125 118.35741424560547 105.04163360595703" stroke-width="3.0" fill="none" stroke="rgb(0, 0, 0)" stroke-opacity="1.0" stroke-linecap="round" stroke-linejoin="round"/>
    <path d="M 77.94014739990234 139.51719665527344 C 50.06251525878906 120.91353607177734 57.376625061035156 109.23371124267578 59.7640266418457 122.43610382080078" stroke-width="3.0" fill="none" stroke="rgb(0, 0, 0)" stroke-opacity="1.0" stroke-linecap="round" stroke-linejoin="round"/>
    <path d="M 122.41881561279297 76.33338928222656 C 127.36979675292969 37.22365188598633 116.11144256591797 55.056278228759766 122.03173828125 30.33707046508789" stroke-width="3.0" fill="none" stroke="rgb(0, 0, 0)" stroke-opacity="1.0" stroke-linecap="round" stroke-linejoin="round"/>
    <path d="M 147.35450744628906 30.09459114074707 C 143.03285217285156 38.137882232666016 158.0966339111328 7.751586437225342 179.3849639892578 8.769645690917969" stroke-width="3.0" fill="none" stroke="rgb(0, 0, 0)" stroke-opacity="1.0" stroke-linecap="round" stroke-linejoin="round"/>
  </g>
</svg>
