<?xml version="1.0" ?>
<svg xmlns="http://www.w3.org/2000/svg" version="1.1" width="224" height="224">
  <defs/>
  <g>
    <path d="M 52.03982162475586 116.66183471679688 C 55.97938537597656 117.13358306884766 40.76713943481445 107.81946563720703 40.03596115112305 96.83638763427734" stroke-width="3.0" fill="none" stroke="rgb(0, 0, 0)" stroke-opacity="1.0" stroke-linecap="round" stroke-linejoin="round"/>
    <path d="M 181.8760223388672 126.88134765625 C 180.80923461914062 111.9980697631836 184.9893035888672 116.01675415039062 189.05601501464844 121.03282928466797" stroke-width="3.0" fill="none" stroke="rgb(0, 0, 0)" stroke-opacity="1.0" stroke-linecap="round" stroke-linejoin="round"/>
    <path d="M 50.0478515625 112.02091979980469 C 49.402774810791016 112.55351257324219 46.2496337890625 109.60920715332031 52.02804183959961 116.06212615966797" stroke-width="3.0" fill="none" stroke="rgb(0, 0, 0)" stroke-opacity="1.0" stroke-linecap="round" stroke-linejoin="round"/>
    <path d="M 184.8169708251953 98.45329284667969 C 152.71351623535156 91.64085388183594 171.7633056640625 76.43920135498047 197.14529418945312 114.14257049560547" stroke-width="3.0" fill="none" stroke="rgb(0, 0, 0)" stroke-opacity="1.0" stroke-linecap="round" stroke-linejoin="round"/>
    <path d="M 184.77105712890625 74.17721557617188 C 188.47335815429688 95.22911834716797 180.987548828125 83.87112426757812 186.8738250732422 67.18079376220703" stroke-width="3.0" fill="none" stroke="rgb(0, 0, 0)" stroke-opacity="1.0" stroke-linecap="round" stroke-linejoin="round"/>
    <path d="M 129.39981079101562 99.71141815185547 C 149.61119079589844 114.97325897216797 106.46839904785156 102.84864807128906 132.9021759033203 103.80071258544922" stroke-width="3.0" fill="none" stroke="rgb(0, 0, 0)" stroke-opacity="1.0" stroke-linecap="round" stroke-linejoin="round"/>
    <path d="M 172.25889587402344 98.12364196777344 C 201.22084045410156 72.24373626708984 188.73556518554688 77.5923843383789 153.3246307373047 86.99079132080078" stroke-width="3.0" fill="none" stroke="rgb(0, 0, 0)" stroke-opacity="1.0" stroke-linecap="round" stroke-linejoin="round"/>
    <path d="M 52.0225944519043 178.99005126953125 C 37.90510559082031 152.3540496826172 46.90315628051758 160.81472778320312 40.12895965576172 151.901611328125" stroke-width="3.0" fill="none" stroke="rgb(0, 0, 0)" stroke-opacity="1.0" stroke-linecap="round" stroke-linejoin="round"/>
    <path d="M 67.47528839111328 190.13905334472656 C 88.810546875 201.7827911376953 104.68094635009766 194.9199981689453 106.48104858398438 194.19207763671875" stroke-width="3.0" fill="none" stroke="rgb(0, 0, 0)" stroke-opacity="1.0" stroke-linecap="round" stroke-linejoin="round"/>
    <path d="M 89.3494873046875 26.71324920654297 C 89.36168670654297 72.69596099853516 90.70442199707031 25.624393463134766 93.2606201171875 60.80758285522461" stroke-width="3.0" fill="none" stroke="rgb(0, 0, 0)" stroke-opacity="1.0" stroke-linecap="round" stroke-linejoin="round"/>
    <path d="M 57.944637298583984 124.9654541015625 C 68.75987243652344 139.62680053710938 86.85760498046875 143.5718536376953 85.8984603881836 141.9335174560547" stroke-width="3.0" fill="none" stroke="rgb(0, 0, 0)" stroke-opacity="1.0" stroke-linecap="round" stroke-linejoin="round"/>
    <path d="M 150.0951385498047 73.33753204345703 C 208.40133666992188 71.79606628417969 185.60861206054688 86.68856048583984 143.66839599609375 88.48102569580078" stroke-width="3.0" fill="none" stroke="rgb(0, 0, 0)" stroke-opacity="1.0" stroke-linecap="round" stroke-linejoin="round"/>
    <path d="M 147.96690368652344 102.10521697998047 C 177.7337188720703 105.28502655029297 173.3787841796875 97.59105682373047 189.2178955078125 107.69547271728516" stroke-width="3.0" fill="none" stroke="rgb(0, 0, 0)" stroke-opacity="1.0" stroke-linecap="round" stroke-linejoin="round"/>
    <path d="M 101.32212829589844 155.14083862304688 C 122.46664428710938 157.91873168945312 109.27880096435547 186.59768676757812 110.42963409423828 188.89149475097656" stroke-width="3.0" fill="none" stroke="rgb(0, 0, 0)" stroke-opacity="1.0" stroke-linecap="round" stroke-linejoin="round"/>
    <path d="M 172.1278076171875 8.851051330566406 C 189.12831115722656 -1.199300765991211 178.2275390625 47.97761917114258 184.71609497070312 59.25882339477539" stroke-width="3.0" fill="none" stroke="rgb(0, 0, 0)" stroke-opacity="1.0" stroke-linecap="round" stroke-linejoin="round"/>
    <path d="M 132.7552490234375 31.848491668701172 C 129.40162658691406 58.50859832763672 138.94305419921875 41.34529113769531 133.2312774658203 70.37601470947266" stroke-width="3.0" fill="none" stroke="rgb(0, 0, 0)" stroke-opacity="1.0" stroke-linecap="round" stroke-linejoin="round"/>
    <path d="M 97.25592041015625 46.96897506713867 C 73.43130493164062 -6.742462158203125 85.30144500732422 -0.15782713890075684 103.23457336425781 41.37594985961914" stroke-width="3.0" fill="none" stroke="rgb(0, 0, 0)" stroke-opacity="1.0" stroke-linecap="round" stroke-linejoin="round"/>
    <path d="M 42.22515869140625 161.84010314941406 C 39.890892028808594 152.46604919433594 40.33592987060547 150.9747772216797 40.418479919433594 155.142822265625" stroke-width="3.0" fill="none" stroke="rgb(0, 0, 0)" stroke-opacity="1.0" stroke-linecap="round" stroke-linejoin="round"/>
    <path d="M 31.45026397705078 108.06358337402344 C 24.85877227783203 125.65135955810547 35.25250244140625 143.68505859375 41.14293670654297 153.40480041503906" stroke-width="3.0" fill="none" stroke="rgb(0, 0, 0)" stroke-opacity="1.0" stroke-linecap="round" stroke-linejoin="round"/>
    <path d="M 88.19526672363281 145.907470703125 C 98.85601806640625 154.77244567871094 102.79747009277344 153.27694702148438 93.2531967163086 150.42254638671875" stroke-width="3.0" fill="none" stroke="rgb(0, 0, 0)" stroke-opacity="1.0" stroke-linecap="round" stroke-linejoin="round"/>
    <path d="M 74.69596099853516 196.0439910888672 C 48.42333984375 177.6763916015625 63.48384094238281 182.0442352294922 47.05794906616211 172.78575134277344" stroke-width="3.0" fill="none" stroke="rgb(0, 0, 0)" stroke-opacity="1.0" stroke-linecap="round" stroke-linejoin="round"/>
    <path d="M 43.48589324951172 165.56005859375 C 57.35953903198242 180.00094604492188 39.36344528198242 160.95509338378906 38.38992691040039 147.8170928955078" stroke-width="3.0" fill="none" stroke="rgb(0, 0, 0)" stroke-opacity="1.0" stroke-linecap="round" stroke-linejoin="round"/>
    <path d="M 84.48384094238281 55.800140380859375 C 58.62021255493164 53.71318054199219 44.66604232788086 73.46488189697266 31.765138626098633 106.55477142333984" stroke-width="3.0" fill="none" stroke="rgb(0, 0, 0)" stroke-opacity="1.0" stroke-linecap="round" stroke-linejoin="round"/>
    <path d="M 146.64234924316406 141.6757049560547 C 140.4434051513672 164.1890106201172 123.80204010009766 145.7742919921875 137.83584594726562 162.5707550048828" stroke-width="3.0" fill="none" stroke="rgb(0, 0, 0)" stroke-opacity="1.0" stroke-linecap="round" stroke-linejoin="round"/>
    <path d="M 141.37832641601562 31.215984344482422 C 151.3317413330078 61.937095642089844 136.77882385253906 55.834075927734375 140.0805206298828 79.95263671875" stroke-width="3.0" fill="none" stroke="rgb(0, 0, 0)" stroke-opacity="1.0" stroke-linecap="round" stroke-linejoin="round"/>
    <path d="M 143.4639892578125 101.56939697265625 C 129.90945434570312 115.75616455078125 116.92415618896484 100.57223510742188 132.80690002441406 102.4456558227539" stroke-width="3.0" fill="none" stroke="rgb(0, 0, 0)" stroke-opacity="1.0" stroke-linecap="round" stroke-linejoin="round"/>
    <path d="M 138.1886749267578 74.9432601928711 C 149.66519165039062 55.51554870605469 151.1690673828125 58.29995346069336 148.23681640625 59.62091064453125" stroke-width="3.0" fill="none" stroke="rgb(0, 0, 0)" stroke-opacity="1.0" stroke-linecap="round" stroke-linejoin="round"/>
    <path d="M 120.59100341796875 185.2899932861328 C 90.60749053955078 193.61875915527344 117.34705352783203 201.8660430908203 135.5423126220703 166.5836181640625" stroke-width="3.0" fill="none" stroke="rgb(0, 0, 0)" stroke-opacity="1.0" stroke-linecap="round" stroke-linejoin="round"/>
    <path d="M 196.22900390625 94.65450286865234 C 164.04124450683594 68.54112243652344 139.46983337402344 99.30484008789062 187.40985107421875 86.8962173461914" stroke-width="3.0" fill="none" stroke="rgb(0, 0, 0)" stroke-opacity="1.0" stroke-linecap="round" stroke-linejoin="round"/>
    <path d="M 164.95571899414062 72.8917465209961 C 190.81622314453125 71.58039093017578 195.76768493652344 78.15357971191406 168.21226501464844 73.25743103027344" stroke-width="3.0" fill="none" stroke="rgb(0, 0, 0)" stroke-opacity="1.0" stroke-linecap="round" stroke-linejoin="round"/>
    <path d="M 105.05636596679688 79.82501983642578 C 86.72708892822266 74.1435546875 141.3154296875 75.96395111083984 104.33245086669922 84.47030639648438" stroke-width="3.0" fill="none" stroke="rgb(0, 0, 0)" stroke-opacity="1.0" stroke-linecap="round" stroke-linejoin="round"/>
    <path d="M 139.40809631347656 157.84649658203125 C 129.29351806640625 151.51719665527344 124.4959945678711 157.90391540527344 104.87501525878906 141.28408813476562" stroke-width="3.0" fill="none" stroke="rgb(0, 0, 0)" stroke-opacity="1.0" stroke-linecap="round" stroke-linejoin="round"/>
    <path d="M 123.95494842529297 88.81837463378906 C 137.78944396972656 95.76801300048828 133.7521209716797 79.11251831054688 127.91801452636719 96.49815368652344" stroke-width="3.0" fill="none" stroke="rgb(0, 0, 0)" stroke-opacity="1.0" stroke-linecap="round" stroke-linejoin="round"/>
    <path d="M 189.24420166015625 98.9312744140625 C 179.9270477294922 84.07642364501953 189.1426239013672 96.4452133178711 141.33676147460938 84.61173248291016" stroke-width="3.0" fill="none" stroke="rgb(0, 0, 0)" stroke-opacity="1.0" stroke-linecap="round" stroke-linejoin="round"/>
    <path d="M 86.35668182373047 8.46890640258789 C 111.97100067138672 19.168521881103516 115.34419250488281 32.36344528198242 123.11126708984375 30.52180290222168" stroke-width="3.0" fill="none" stroke="rgb(0, 0, 0)" stroke-opacity="1.0" stroke-linecap="round" stroke-linejoin="round"/>
    <path d="M 52.93275833129883 114.90837860107422 C 48.51775360107422 109.7728500366211 57.15461730957031 123.5643081665039 53.52638626098633 116.37163543701172" stroke-width="3.0" fill="none" stroke="rgb(0, 0, 0)" stroke-opacity="1.0" stroke-linecap="round" stroke-linejoin="round"/>
    <path d="M 110.8582992553711 103.89553833007812 C 98.92800903320312 86.75292205810547 116.0312728881836 106.346923828125 101.93126678466797 93.31330108642578" stroke-width="3.0" fill="none" stroke="rgb(0, 0, 0)" stroke-opacity="1.0" stroke-linecap="round" stroke-linejoin="round"/>
    <path d="M 30.469913482666016 125.74813842773438 C 29.493410110473633 100.9677963256836 34.510929107666016 105.15786743164062 28.490100860595703 116.42826080322266" stroke-width="3.0" fill="none" stroke="rgb(0, 0, 0)" stroke-opacity="1.0" stroke-linecap="round" stroke-linejoin="round"/>
    <path d="M 91.76544952392578 196.58570861816406 C 74.04173278808594 197.9152069091797 71.12740325927734 194.15382385253906 94.22029876708984 197.5305938720703" stroke-width="3.0" fill="none" stroke="rgb(0, 0, 0)" stroke-opacity="1.0" stroke-linecap="round" stroke-linejoin="round"/>
    <path d="M 149.4557342529297 142.58792114257812 C 212.4959259033203 113.16051483154297 182.2933349609375 96.23233795166016 152.8988037109375 93.43655395507812" stroke-width="3.0" fill="none" stroke="rgb(0, 0, 0)" stroke-opacity="1.0" stroke-linecap="round" stroke-linejoin="round"/>
    <path d="M 156.9705352783203 77.15162658691406 C 124.83763122558594 75.67870330810547 172.35061645507812 86.61170959472656 147.52406311035156 72.92919158935547" stroke-width="3.0" fill="none" stroke="rgb(0, 0, 0)" stroke-opacity="1.0" stroke-linecap="round" stroke-linejoin="round"/>
    <path d="M 145.1356201171875 75.03750610351562 C 145.4212188720703 52.034027099609375 189.80543518066406 103.11847686767578 184.18540954589844 60.746402740478516" stroke-width="3.0" fill="none" stroke="rgb(0, 0, 0)" stroke-opacity="1.0" stroke-linecap="round" stroke-linejoin="round"/>
    <path d="M 150.72799682617188 97.56424713134766 C 161.28875732421875 102.00232696533203 173.13980102539062 106.43744659423828 185.9987335205078 111.85111999511719" stroke-width="3.0" fill="none" stroke="rgb(0, 0, 0)" stroke-opacity="1.0" stroke-linecap="round" stroke-linejoin="round"/>
    <path d="M 177.4697723388672 18.03202247619629 C 168.24867248535156 42.40349197387695 182.0095977783203 26.891002655029297 162.53958129882812 40.504608154296875" stroke-width="3.0" fill="none" stroke="rgb(0, 0, 0)" stroke-opacity="1.0" stroke-linecap="round" stroke-linejoin="round"/>
    <path d="M 125.25769805908203 105.64798736572266 C 148.3820037841797 105.29700469970703 124.7214126586914 113.10846710205078 110.21466827392578 102.55487823486328" stroke-width="3.0" fill="none" stroke="rgb(0, 0, 0)" stroke-opacity="1.0" stroke-linecap="round" stroke-linejoin="round"/>
    <path d="M 52.04336929321289 115.32044219970703 C 51.67081832885742 115.74016571044922 46.0976676940918 108.05490112304688 60.571197509765625 128.5374298095703" stroke-width="3.0" fill="none" stroke="rgb(0, 0, 0)" stroke-opacity="1.0" stroke-linecap="round" stroke-linejoin="round"/>
    <path d="M 120.66015625 80.11449432373047 C 126.01982116699219 59.34611892700195 117.03468322753906 55.81562042236328 121.98877716064453 37.82147979736328" stroke-width="3.0" fill="none" stroke="rgb(0, 0, 0)" stroke-opacity="1.0" stroke-linecap="round" stroke-linejoin="round"/>
    <path d="M 146.7139129638672 31.372709274291992 C 145.6190948486328 39.24692916870117 149.3053741455078 16.170047760009766 177.4084014892578 8.142129898071289" stroke-width="3.0" fill="none" stroke="rgb(0, 0, 0)" stroke-opacity="1.0" stroke-linecap="round" stroke-linejoin="round"/>
  </g>
</svg>
