<?xml version="1.0" ?>
<svg xmlns="http://www.w3.org/2000/svg" version="1.1" width="224" height="224">
  <defs/>
  <g>
    <path d="M 68.10712432861328 75.59829711914062 C 69.3041763305664 76.29920959472656 75.10293579101562 76.45211791992188 55.4076042175293 72.75728607177734" stroke-width="3.0" fill="none" stroke="rgb(0, 0, 0)" stroke-opacity="1.0" stroke-linecap="round" stroke-linejoin="round"/>
    <path d="M 182.89031982421875 124.94184112548828 C 176.00677490234375 113.65496826171875 199.29603576660156 90.2768783569336 175.41331481933594 129.15383911132812" stroke-width="3.0" fill="none" stroke="rgb(0, 0, 0)" stroke-opacity="1.0" stroke-linecap="round" stroke-linejoin="round"/>
    <path d="M 60.69248962402344 120.44607543945312 C 57.060420989990234 109.4988784790039 55.43048095703125 124.96419525146484 67.20735168457031 132.07757568359375" stroke-width="3.0" fill="none" stroke="rgb(0, 0, 0)" stroke-opacity="1.0" stroke-linecap="round" stroke-linejoin="round"/>
    <path d="M 183.4789276123047 92.06320190429688 C 143.34349060058594 87.07991790771484 174.96218872070312 73.86885070800781 191.859619140625 109.38478088378906" stroke-width="3.0" fill="none" stroke="rgb(0, 0, 0)" stroke-opacity="1.0" stroke-linecap="round" stroke-linejoin="round"/>
    <path d="M 181.4297637939453 67.02947235107422 C 178.1040802001953 112.27195739746094 183.7620086669922 101.21792602539062 181.75538635253906 74.45575714111328" stroke-width="3.0" fill="none" stroke="rgb(0, 0, 0)" stroke-opacity="1.0" stroke-linecap="round" stroke-linejoin="round"/>
    <path d="M 127.12504577636719 104.611083984375 C 147.96763610839844 110.55491638183594 102.1455307006836 96.2701187133789 136.74339294433594 101.98098754882812" stroke-width="3.0" fill="none" stroke="rgb(0, 0, 0)" stroke-opacity="1.0" stroke-linecap="round" stroke-linejoin="round"/>
    <path d="M 174.83737182617188 81.37599182128906 C 192.6197967529297 88.1890869140625 184.50746154785156 73.68297576904297 155.77215576171875 87.61322021484375" stroke-width="3.0" fill="none" stroke="rgb(0, 0, 0)" stroke-opacity="1.0" stroke-linecap="round" stroke-linejoin="round"/>
    <path d="M 64.0557861328125 189.2561798095703 C 37.33916473388672 156.5530242919922 48.52720642089844 165.20697021484375 49.33667755126953 173.0139923095703" stroke-width="3.0" fill="none" stroke="rgb(0, 0, 0)" stroke-opacity="1.0" stroke-linecap="round" stroke-linejoin="round"/>
    <path d="M 55.37221145629883 180.58819580078125 C 92.27787780761719 211.86709594726562 117.09333038330078 198.34402465820312 131.84307861328125 181.2890167236328" stroke-width="3.0" fill="none" stroke="rgb(0, 0, 0)" stroke-opacity="1.0" stroke-linecap="round" stroke-linejoin="round"/>
    <path d="M 87.1623306274414 27.02062225341797 C 92.52658081054688 80.4435806274414 82.403076171875 10.028982162475586 87.23072814941406 52.98977279663086" stroke-width="3.0" fill="none" stroke="rgb(0, 0, 0)" stroke-opacity="1.0" stroke-linecap="round" stroke-linejoin="round"/>
    <path d="M 49.77286911010742 89.71116638183594 C 62.4611701965332 142.5919952392578 88.56227111816406 156.73483276367188 79.07669067382812 144.63327026367188" stroke-width="3.0" fill="none" stroke="rgb(0, 0, 0)" stroke-opacity="1.0" stroke-linecap="round" stroke-linejoin="round"/>
    <path d="M 153.71337890625 74.50175476074219 C 202.24179077148438 65.70034790039062 185.40692138671875 85.75736236572266 139.9072265625 85.731201171875" stroke-width="3.0" fill="none" stroke="rgb(0, 0, 0)" stroke-opacity="1.0" stroke-linecap="round" stroke-linejoin="round"/>
    <path d="M 153.4772186279297 94.8868408203125 C 186.83314514160156 103.85574340820312 177.20433044433594 101.1065673828125 196.394287109375 113.60900115966797" stroke-width="3.0" fill="none" stroke="rgb(0, 0, 0)" stroke-opacity="1.0" stroke-linecap="round" stroke-linejoin="round"/>
    <path d="M 110.25103759765625 154.27316284179688 C 144.55621337890625 149.30520629882812 122.82760620117188 154.27236938476562 105.38935089111328 154.4838104248047" stroke-width="3.0" fill="none" stroke="rgb(0, 0, 0)" stroke-opacity="1.0" stroke-linecap="round" stroke-linejoin="round"/>
    <path d="M 179.1041717529297 8.584612846374512 C 187.61026000976562 25.239635467529297 175.01976013183594 73.13675689697266 180.3533172607422 57.28956985473633" stroke-width="3.0" fill="none" stroke="rgb(0, 0, 0)" stroke-opacity="1.0" stroke-linecap="round" stroke-linejoin="round"/>
    <path d="M 135.31849670410156 32.61149978637695 C 132.091064453125 42.522422790527344 136.77200317382812 47.85360336303711 128.84603881835938 66.11312866210938" stroke-width="3.0" fill="none" stroke="rgb(0, 0, 0)" stroke-opacity="1.0" stroke-linecap="round" stroke-linejoin="round"/>
    <path d="M 91.94506072998047 43.92423629760742 C 69.68074035644531 -0.6964167952537537 87.90534973144531 -1.3742800951004028 112.77473449707031 36.1485481262207" stroke-width="3.0" fill="none" stroke="rgb(0, 0, 0)" stroke-opacity="1.0" stroke-linecap="round" stroke-linejoin="round"/>
    <path d="M 47.37002182006836 172.31512451171875 C 40.42299270629883 153.9344940185547 38.45616912841797 145.24420166015625 47.60477828979492 169.92774963378906" stroke-width="3.0" fill="none" stroke="rgb(0, 0, 0)" stroke-opacity="1.0" stroke-linecap="round" stroke-linejoin="round"/>
    <path d="M 36.74314498901367 97.41757202148438 C 20.564895629882812 129.6581573486328 41.452388763427734 147.656494140625 43.93858337402344 164.59030151367188" stroke-width="3.0" fill="none" stroke="rgb(0, 0, 0)" stroke-opacity="1.0" stroke-linecap="round" stroke-linejoin="round"/>
    <path d="M 91.88125610351562 149.94163513183594 C 112.94444274902344 160.99154663085938 99.7066879272461 158.19276428222656 98.98271942138672 152.9000701904297" stroke-width="3.0" fill="none" stroke="rgb(0, 0, 0)" stroke-opacity="1.0" stroke-linecap="round" stroke-linejoin="round"/>
    <path d="M 87.2292709350586 198.5157470703125 C 69.19615173339844 203.88934326171875 50.569664001464844 175.38169860839844 49.109458923339844 169.10519409179688" stroke-width="3.0" fill="none" stroke="rgb(0, 0, 0)" stroke-opacity="1.0" stroke-linecap="round" stroke-linejoin="round"/>
    <path d="M 48.56488800048828 173.41920471191406 C 64.46368408203125 196.16635131835938 48.55302047729492 168.2829132080078 37.47396469116211 146.2525634765625" stroke-width="3.0" fill="none" stroke="rgb(0, 0, 0)" stroke-opacity="1.0" stroke-linecap="round" stroke-linejoin="round"/>
    <path d="M 81.02217102050781 54.39988327026367 C 63.379554748535156 58.67040252685547 48.33525085449219 72.43547821044922 32.408050537109375 108.4386215209961" stroke-width="3.0" fill="none" stroke="rgb(0, 0, 0)" stroke-opacity="1.0" stroke-linecap="round" stroke-linejoin="round"/>
    <path d="M 152.55233764648438 139.74366760253906 C 114.97201538085938 154.12283325195312 117.65045928955078 162.5992431640625 144.6180419921875 146.20396423339844" stroke-width="3.0" fill="none" stroke="rgb(0, 0, 0)" stroke-opacity="1.0" stroke-linecap="round" stroke-linejoin="round"/>
    <path d="M 150.2718048095703 29.20673370361328 C 142.44212341308594 44.625492095947266 135.48629760742188 21.587217330932617 136.97933959960938 82.17269897460938" stroke-width="3.0" fill="none" stroke="rgb(0, 0, 0)" stroke-opacity="1.0" stroke-linecap="round" stroke-linejoin="round"/>
    <path d="M 146.04383850097656 93.18325805664062 C 131.90789794921875 108.04491424560547 134.2041015625 109.57180786132812 120.42559051513672 101.3384780883789" stroke-width="3.0" fill="none" stroke="rgb(0, 0, 0)" stroke-opacity="1.0" stroke-linecap="round" stroke-linejoin="round"/>
    <path d="M 137.29598999023438 75.56717681884766 C 143.99549865722656 59.555992126464844 131.799560546875 61.62587356567383 137.68838500976562 78.75189208984375" stroke-width="3.0" fill="none" stroke="rgb(0, 0, 0)" stroke-opacity="1.0" stroke-linecap="round" stroke-linejoin="round"/>
    <path d="M 134.05300903320312 177.60508728027344 C 129.66883850097656 182.28533935546875 139.5732421875 179.66799926757812 144.7455291748047 144.3251190185547" stroke-width="3.0" fill="none" stroke="rgb(0, 0, 0)" stroke-opacity="1.0" stroke-linecap="round" stroke-linejoin="round"/>
    <path d="M 195.52793884277344 96.23786163330078 C 167.70167541503906 74.0479965209961 168.46359252929688 82.47026062011719 181.9505615234375 87.6077651977539" stroke-width="3.0" fill="none" stroke="rgb(0, 0, 0)" stroke-opacity="1.0" stroke-linecap="round" stroke-linejoin="round"/>
    <path d="M 156.9115753173828 77.67964172363281 C 124.23411560058594 62.44844436645508 195.811279296875 84.76808166503906 180.7654571533203 64.04698181152344" stroke-width="3.0" fill="none" stroke="rgb(0, 0, 0)" stroke-opacity="1.0" stroke-linecap="round" stroke-linejoin="round"/>
    <path d="M 108.6839828491211 75.37841033935547 C 83.1127700805664 69.3123550415039 142.10414123535156 72.10350036621094 105.0025405883789 79.31578826904297" stroke-width="3.0" fill="none" stroke="rgb(0, 0, 0)" stroke-opacity="1.0" stroke-linecap="round" stroke-linejoin="round"/>
    <path d="M 162.45846557617188 131.1868133544922 C 141.28152465820312 157.31968688964844 120.0617904663086 147.7961883544922 102.81580352783203 157.85333251953125" stroke-width="3.0" fill="none" stroke="rgb(0, 0, 0)" stroke-opacity="1.0" stroke-linecap="round" stroke-linejoin="round"/>
    <path d="M 118.14210510253906 87.1793441772461 C 140.11180114746094 98.10029602050781 121.53227233886719 63.514625549316406 126.56065368652344 105.15751647949219" stroke-width="3.0" fill="none" stroke="rgb(0, 0, 0)" stroke-opacity="1.0" stroke-linecap="round" stroke-linejoin="round"/>
    <path d="M 187.43968200683594 112.6119155883789 C 172.34715270996094 89.04096221923828 180.05845642089844 86.98999786376953 149.29197692871094 88.16693115234375" stroke-width="3.0" fill="none" stroke="rgb(0, 0, 0)" stroke-opacity="1.0" stroke-linecap="round" stroke-linejoin="round"/>
    <path d="M 86.55565643310547 11.696741104125977 C 104.24913787841797 12.436107635498047 115.56877136230469 33.26548385620117 121.99987030029297 31.34859848022461" stroke-width="3.0" fill="none" stroke="rgb(0, 0, 0)" stroke-opacity="1.0" stroke-linecap="round" stroke-linejoin="round"/>
    <path d="M 59.43333053588867 123.90205383300781 C 54.8785400390625 117.73392486572266 62.10832214355469 127.69377136230469 60.219688415527344 123.61717987060547" stroke-width="3.0" fill="none" stroke="rgb(0, 0, 0)" stroke-opacity="1.0" stroke-linecap="round" stroke-linejoin="round"/>
    <path d="M 136.98373413085938 102.93449401855469 C 120.53724670410156 84.17265319824219 120.60848236083984 118.64950561523438 108.55390167236328 90.09381866455078" stroke-width="3.0" fill="none" stroke="rgb(0, 0, 0)" stroke-opacity="1.0" stroke-linecap="round" stroke-linejoin="round"/>
    <path d="M 31.363523483276367 127.03133392333984 C 29.395429611206055 101.37151336669922 37.105751037597656 97.8257064819336 49.55706787109375 79.32161712646484" stroke-width="3.0" fill="none" stroke="rgb(0, 0, 0)" stroke-opacity="1.0" stroke-linecap="round" stroke-linejoin="round"/>
    <path d="M 80.27983093261719 196.44046020507812 C 71.00727844238281 192.55197143554688 66.22775268554688 193.8388214111328 101.95514678955078 198.5570068359375" stroke-width="3.0" fill="none" stroke="rgb(0, 0, 0)" stroke-opacity="1.0" stroke-linecap="round" stroke-linejoin="round"/>
    <path d="M 164.93421936035156 130.90956115722656 C 201.5904083251953 114.15338134765625 180.48135375976562 95.78197479248047 158.74807739257812 88.97882843017578" stroke-width="3.0" fill="none" stroke="rgb(0, 0, 0)" stroke-opacity="1.0" stroke-linecap="round" stroke-linejoin="round"/>
    <path d="M 153.5093231201172 70.00208282470703 C 135.5557403564453 91.26749420166016 178.2270965576172 75.24633026123047 148.78048706054688 67.77982330322266" stroke-width="3.0" fill="none" stroke="rgb(0, 0, 0)" stroke-opacity="1.0" stroke-linecap="round" stroke-linejoin="round"/>
    <path d="M 140.9683837890625 78.09642791748047 C 149.1975555419922 44.817047119140625 196.1959686279297 111.60277557373047 177.003173828125 43.09682846069336" stroke-width="3.0" fill="none" stroke="rgb(0, 0, 0)" stroke-opacity="1.0" stroke-linecap="round" stroke-linejoin="round"/>
    <path d="M 157.62539672851562 95.0287094116211 C 168.96144104003906 104.72298431396484 175.4445343017578 103.53565979003906 181.52545166015625 119.28800201416016" stroke-width="3.0" fill="none" stroke="rgb(0, 0, 0)" stroke-opacity="1.0" stroke-linecap="round" stroke-linejoin="round"/>
    <path d="M 178.5574188232422 14.482760429382324 C 171.2138214111328 42.074798583984375 181.91421508789062 18.074689865112305 164.86978149414062 34.75067138671875" stroke-width="3.0" fill="none" stroke="rgb(0, 0, 0)" stroke-opacity="1.0" stroke-linecap="round" stroke-linejoin="round"/>
    <path d="M 121.5074462890625 102.49832916259766 C 145.99705505371094 101.39762878417969 133.91412353515625 112.29076385498047 119.5253677368164 103.7339096069336" stroke-width="3.0" fill="none" stroke="rgb(0, 0, 0)" stroke-opacity="1.0" stroke-linecap="round" stroke-linejoin="round"/>
    <path d="M 71.35781860351562 135.03794860839844 C 51.27503967285156 119.43338775634766 59.10940170288086 113.30224609375 58.93916320800781 117.8427963256836" stroke-width="3.0" fill="none" stroke="rgb(0, 0, 0)" stroke-opacity="1.0" stroke-linecap="round" stroke-linejoin="round"/>
    <path d="M 126.48611450195312 71.81989288330078 C 133.7558135986328 34.109432220458984 126.12720489501953 51.9080924987793 129.06875610351562 31.7165584564209" stroke-width="3.0" fill="none" stroke="rgb(0, 0, 0)" stroke-opacity="1.0" stroke-linecap="round" stroke-linejoin="round"/>
    <path d="M 159.13467407226562 23.1645450592041 C 151.21670532226562 36.67088317871094 165.51043701171875 6.787410736083984 177.49171447753906 10.190385818481445" stroke-width="3.0" fill="none" stroke="rgb(0, 0, 0)" stroke-opacity="1.0" stroke-linecap="round" stroke-linejoin="round"/>
  </g>
</svg>
