<?xml version="1.0" ?>
<svg xmlns="http://www.w3.org/2000/svg" version="1.1" width="224" height="224">
  <defs/>
  <g>
    <path d="M 58.6182975769043 106.77887725830078 C 51.76367950439453 109.8988037109375 58.208858489990234 100.89159393310547 46.02092742919922 81.33484649658203" stroke-width="3.0" fill="none" stroke="rgb(0, 0, 0)" stroke-opacity="1.0" stroke-linecap="round" stroke-linejoin="round"/>
    <path d="M 187.20066833496094 119.99118041992188 C 183.91842651367188 104.02302551269531 192.5846710205078 103.38237762451172 177.7230987548828 127.17442321777344" stroke-width="3.0" fill="none" stroke="rgb(0, 0, 0)" stroke-opacity="1.0" stroke-linecap="round" stroke-linejoin="round"/>
    <path d="M 56.1740837097168 115.35706329345703 C 53.887699127197266 113.77693176269531 56.41271209716797 112.5447006225586 60.86687088012695 122.64920806884766" stroke-width="3.0" fill="none" stroke="rgb(0, 0, 0)" stroke-opacity="1.0" stroke-linecap="round" stroke-linejoin="round"/>
    <path d="M 178.91033935546875 96.6643295288086 C 154.10452270507812 86.67662048339844 175.7074432373047 80.6119155883789 195.8833465576172 114.1583023071289" stroke-width="3.0" fill="none" stroke="rgb(0, 0, 0)" stroke-opacity="1.0" stroke-linecap="round" stroke-linejoin="round"/>
    <path d="M 180.48056030273438 71.09256744384766 C 175.44082641601562 97.43000030517578 184.6288604736328 92.94886779785156 180.63473510742188 57.96932601928711" stroke-width="3.0" fill="none" stroke="rgb(0, 0, 0)" stroke-opacity="1.0" stroke-linecap="round" stroke-linejoin="round"/>
    <path d="M 122.4541244506836 101.78709411621094 C 148.3414764404297 104.94518280029297 107.46356964111328 97.13965606689453 137.1621856689453 102.19007110595703" stroke-width="3.0" fill="none" stroke="rgb(0, 0, 0)" stroke-opacity="1.0" stroke-linecap="round" stroke-linejoin="round"/>
    <path d="M 167.2464141845703 101.0862045288086 C 198.18551635742188 81.28895568847656 182.6025390625 70.14603424072266 152.56210327148438 85.38749694824219" stroke-width="3.0" fill="none" stroke="rgb(0, 0, 0)" stroke-opacity="1.0" stroke-linecap="round" stroke-linejoin="round"/>
    <path d="M 57.10746383666992 183.3037109375 C 37.535606384277344 156.13534545898438 44.395469665527344 166.70692443847656 49.02974319458008 169.3137969970703" stroke-width="3.0" fill="none" stroke="rgb(0, 0, 0)" stroke-opacity="1.0" stroke-linecap="round" stroke-linejoin="round"/>
    <path d="M 55.3907470703125 183.6068115234375 C 90.80162048339844 213.2131805419922 112.52603912353516 200.7227020263672 133.3872833251953 179.79107666015625" stroke-width="3.0" fill="none" stroke="rgb(0, 0, 0)" stroke-opacity="1.0" stroke-linecap="round" stroke-linejoin="round"/>
    <path d="M 84.43011474609375 31.36988639831543 C 97.23169708251953 61.833961486816406 81.07794952392578 12.843621253967285 84.98992919921875 52.303611755371094" stroke-width="3.0" fill="none" stroke="rgb(0, 0, 0)" stroke-opacity="1.0" stroke-linecap="round" stroke-linejoin="round"/>
    <path d="M 59.97711181640625 121.86782836914062 C 52.10124206542969 134.87998962402344 107.01263427734375 151.3938446044922 95.18798828125 152.81253051757812" stroke-width="3.0" fill="none" stroke="rgb(0, 0, 0)" stroke-opacity="1.0" stroke-linecap="round" stroke-linejoin="round"/>
    <path d="M 144.0623779296875 72.38101196289062 C 208.94285583496094 67.4737319946289 187.87100219726562 82.9510498046875 146.1095733642578 84.97657012939453" stroke-width="3.0" fill="none" stroke="rgb(0, 0, 0)" stroke-opacity="1.0" stroke-linecap="round" stroke-linejoin="round"/>
    <path d="M 153.81088256835938 98.87915802001953 C 184.37869262695312 101.8725814819336 179.326904296875 98.5132064819336 190.0005340576172 111.69108581542969" stroke-width="3.0" fill="none" stroke="rgb(0, 0, 0)" stroke-opacity="1.0" stroke-linecap="round" stroke-linejoin="round"/>
    <path d="M 111.98392486572266 158.44288635253906 C 145.6396942138672 147.5054473876953 115.66057586669922 158.47366333007812 124.2910385131836 149.64031982421875" stroke-width="3.0" fill="none" stroke="rgb(0, 0, 0)" stroke-opacity="1.0" stroke-linecap="round" stroke-linejoin="round"/>
    <path d="M 175.91908264160156 8.707942008972168 C 190.98153686523438 4.060848236083984 172.7974090576172 58.99946212768555 178.9348602294922 53.272518157958984" stroke-width="3.0" fill="none" stroke="rgb(0, 0, 0)" stroke-opacity="1.0" stroke-linecap="round" stroke-linejoin="round"/>
    <path d="M 133.42068481445312 29.990257263183594 C 124.63550567626953 56.1181640625 137.6889190673828 39.35341262817383 125.83600616455078 72.92100524902344" stroke-width="3.0" fill="none" stroke="rgb(0, 0, 0)" stroke-opacity="1.0" stroke-linecap="round" stroke-linejoin="round"/>
    <path d="M 87.46366119384766 45.99964904785156 C 73.01602172851562 -6.972110748291016 82.47190856933594 -0.4150876998901367 109.4989242553711 36.03676223754883" stroke-width="3.0" fill="none" stroke="rgb(0, 0, 0)" stroke-opacity="1.0" stroke-linecap="round" stroke-linejoin="round"/>
    <path d="M 43.95948791503906 165.7599334716797 C 40.5826301574707 153.15379333496094 35.07436752319336 148.20436096191406 41.46529769897461 154.99546813964844" stroke-width="3.0" fill="none" stroke="rgb(0, 0, 0)" stroke-opacity="1.0" stroke-linecap="round" stroke-linejoin="round"/>
    <path d="M 34.88297653198242 101.01016998291016 C 23.785585403442383 126.11505126953125 35.509159088134766 146.10438537597656 41.25428009033203 154.92178344726562" stroke-width="3.0" fill="none" stroke="rgb(0, 0, 0)" stroke-opacity="1.0" stroke-linecap="round" stroke-linejoin="round"/>
    <path d="M 89.53823852539062 143.27317810058594 C 107.88168334960938 160.2430877685547 119.81698608398438 146.1064453125 109.6024398803711 160.26144409179688" stroke-width="3.0" fill="none" stroke="rgb(0, 0, 0)" stroke-opacity="1.0" stroke-linecap="round" stroke-linejoin="round"/>
    <path d="M 80.38712310791016 197.5325164794922 C 66.44702911376953 191.58299255371094 53.549400329589844 180.33197021484375 48.94881820678711 174.78033447265625" stroke-width="3.0" fill="none" stroke="rgb(0, 0, 0)" stroke-opacity="1.0" stroke-linecap="round" stroke-linejoin="round"/>
    <path d="M 43.679359436035156 164.03102111816406 C 59.58540344238281 192.8028106689453 44.609100341796875 163.1294708251953 39.77477264404297 154.1619873046875" stroke-width="3.0" fill="none" stroke="rgb(0, 0, 0)" stroke-opacity="1.0" stroke-linecap="round" stroke-linejoin="round"/>
    <path d="M 81.92862701416016 57.63603591918945 C 56.63298034667969 59.51042938232422 50.19218444824219 72.5888442993164 32.750099182128906 106.26426696777344" stroke-width="3.0" fill="none" stroke="rgb(0, 0, 0)" stroke-opacity="1.0" stroke-linecap="round" stroke-linejoin="round"/>
    <path d="M 152.56202697753906 138.91851806640625 C 137.00698852539062 158.26661682128906 117.73612976074219 148.39511108398438 129.44290161132812 152.3270721435547" stroke-width="3.0" fill="none" stroke="rgb(0, 0, 0)" stroke-opacity="1.0" stroke-linecap="round" stroke-linejoin="round"/>
    <path d="M 140.96456909179688 30.49655532836914 C 144.721923828125 69.9188461303711 133.6278076171875 54.520755767822266 137.13539123535156 74.09586334228516" stroke-width="3.0" fill="none" stroke="rgb(0, 0, 0)" stroke-opacity="1.0" stroke-linecap="round" stroke-linejoin="round"/>
    <path d="M 147.02520751953125 99.73049926757812 C 114.1357421875 107.04875946044922 132.3137969970703 108.0440444946289 139.539794921875 101.95085906982422" stroke-width="3.0" fill="none" stroke="rgb(0, 0, 0)" stroke-opacity="1.0" stroke-linecap="round" stroke-linejoin="round"/>
    <path d="M 136.8292999267578 72.24311065673828 C 144.79246520996094 56.92893600463867 135.63717651367188 64.2808837890625 138.01502990722656 66.2345199584961" stroke-width="3.0" fill="none" stroke="rgb(0, 0, 0)" stroke-opacity="1.0" stroke-linecap="round" stroke-linejoin="round"/>
    <path d="M 135.09950256347656 175.20245361328125 C 124.69917297363281 187.98956298828125 137.06893920898438 182.58404541015625 146.31077575683594 147.7552947998047" stroke-width="3.0" fill="none" stroke="rgb(0, 0, 0)" stroke-opacity="1.0" stroke-linecap="round" stroke-linejoin="round"/>
    <path d="M 195.48818969726562 96.32172393798828 C 166.35153198242188 75.52783966064453 150.37582397460938 81.7286148071289 183.28472900390625 84.61341857910156" stroke-width="3.0" fill="none" stroke="rgb(0, 0, 0)" stroke-opacity="1.0" stroke-linecap="round" stroke-linejoin="round"/>
    <path d="M 147.0427703857422 77.85244750976562 C 162.2061004638672 63.61825180053711 203.61602783203125 76.19136047363281 178.75592041015625 64.84635162353516" stroke-width="3.0" fill="none" stroke="rgb(0, 0, 0)" stroke-opacity="1.0" stroke-linecap="round" stroke-linejoin="round"/>
    <path d="M 110.57991790771484 81.53092193603516 C 95.0998306274414 70.64042663574219 132.9585723876953 77.18022918701172 106.80013275146484 81.86669921875" stroke-width="3.0" fill="none" stroke="rgb(0, 0, 0)" stroke-opacity="1.0" stroke-linecap="round" stroke-linejoin="round"/>
    <path d="M 150.84759521484375 144.47134399414062 C 132.90890502929688 162.7584991455078 116.05084991455078 147.77102661132812 102.23748779296875 156.87710571289062" stroke-width="3.0" fill="none" stroke="rgb(0, 0, 0)" stroke-opacity="1.0" stroke-linecap="round" stroke-linejoin="round"/>
    <path d="M 124.85901641845703 87.53961944580078 C 143.14166259765625 98.74861145019531 130.49908447265625 70.9701156616211 128.3450927734375 103.85550689697266" stroke-width="3.0" fill="none" stroke="rgb(0, 0, 0)" stroke-opacity="1.0" stroke-linecap="round" stroke-linejoin="round"/>
    <path d="M 191.496826171875 113.80657196044922 C 176.17471313476562 75.37210845947266 178.1946563720703 95.66932678222656 141.30824279785156 83.53955841064453" stroke-width="3.0" fill="none" stroke="rgb(0, 0, 0)" stroke-opacity="1.0" stroke-linecap="round" stroke-linejoin="round"/>
    <path d="M 83.64219665527344 9.464788436889648 C 105.9251480102539 15.388586044311523 114.18443298339844 32.4278564453125 119.832763671875 29.09317398071289" stroke-width="3.0" fill="none" stroke="rgb(0, 0, 0)" stroke-opacity="1.0" stroke-linecap="round" stroke-linejoin="round"/>
    <path d="M 58.33036804199219 123.69091033935547 C 52.050689697265625 117.00665283203125 67.45504760742188 132.2847900390625 58.334938049316406 122.10269165039062" stroke-width="3.0" fill="none" stroke="rgb(0, 0, 0)" stroke-opacity="1.0" stroke-linecap="round" stroke-linejoin="round"/>
    <path d="M 136.60862731933594 100.73918151855469 C 124.37006378173828 89.98059844970703 124.30818939208984 110.76708221435547 108.50470733642578 91.61881256103516" stroke-width="3.0" fill="none" stroke="rgb(0, 0, 0)" stroke-opacity="1.0" stroke-linecap="round" stroke-linejoin="round"/>
    <path d="M 30.34838104248047 133.29339599609375 C 25.913328170776367 116.2484130859375 35.51161575317383 102.22684478759766 31.913883209228516 110.44994354248047" stroke-width="3.0" fill="none" stroke="rgb(0, 0, 0)" stroke-opacity="1.0" stroke-linecap="round" stroke-linejoin="round"/>
    <path d="M 78.97152709960938 198.72926330566406 C 71.38758850097656 197.0633087158203 68.01580810546875 196.5267333984375 91.74883270263672 201.6138916015625" stroke-width="3.0" fill="none" stroke="rgb(0, 0, 0)" stroke-opacity="1.0" stroke-linecap="round" stroke-linejoin="round"/>
    <path d="M 152.45919799804688 141.0187530517578 C 209.34825134277344 112.24512481689453 183.6265869140625 93.28437805175781 148.7448272705078 93.28484344482422" stroke-width="3.0" fill="none" stroke="rgb(0, 0, 0)" stroke-opacity="1.0" stroke-linecap="round" stroke-linejoin="round"/>
    <path d="M 156.8085174560547 69.77642059326172 C 122.98548126220703 78.9515380859375 173.1128387451172 84.56700134277344 146.22549438476562 69.36094665527344" stroke-width="3.0" fill="none" stroke="rgb(0, 0, 0)" stroke-opacity="1.0" stroke-linecap="round" stroke-linejoin="round"/>
    <path d="M 140.5164794921875 78.89556884765625 C 148.16842651367188 42.83534240722656 193.78663635253906 107.43444061279297 176.321044921875 48.95812225341797" stroke-width="3.0" fill="none" stroke="rgb(0, 0, 0)" stroke-opacity="1.0" stroke-linecap="round" stroke-linejoin="round"/>
    <path d="M 158.2772979736328 100.79071044921875 C 164.41891479492188 104.10913848876953 178.08863830566406 103.68384552001953 183.94627380371094 113.94341278076172" stroke-width="3.0" fill="none" stroke="rgb(0, 0, 0)" stroke-opacity="1.0" stroke-linecap="round" stroke-linejoin="round"/>
    <path d="M 178.62203979492188 15.503153800964355 C 171.29306030273438 45.069854736328125 175.34463500976562 23.31328010559082 161.8675079345703 36.30262756347656" stroke-width="3.0" fill="none" stroke="rgb(0, 0, 0)" stroke-opacity="1.0" stroke-linecap="round" stroke-linejoin="round"/>
    <path d="M 119.48600769042969 101.61021423339844 C 139.54611206054688 106.47821807861328 134.61880493164062 112.6221923828125 111.49742889404297 97.43553161621094" stroke-width="3.0" fill="none" stroke="rgb(0, 0, 0)" stroke-opacity="1.0" stroke-linecap="round" stroke-linejoin="round"/>
    <path d="M 57.43682098388672 121.66341400146484 C 54.240657806396484 98.20352172851562 54.07426071166992 107.46807861328125 61.07801055908203 125.15888977050781" stroke-width="3.0" fill="none" stroke="rgb(0, 0, 0)" stroke-opacity="1.0" stroke-linecap="round" stroke-linejoin="round"/>
    <path d="M 122.37830352783203 76.3101806640625 C 131.16526794433594 39.393768310546875 119.4813232421875 51.98221969604492 125.71983337402344 30.094650268554688" stroke-width="3.0" fill="none" stroke="rgb(0, 0, 0)" stroke-opacity="1.0" stroke-linecap="round" stroke-linejoin="round"/>
    <path d="M 145.4671630859375 30.296226501464844 C 144.39459228515625 37.48363494873047 158.3492431640625 12.134748458862305 178.34812927246094 7.730334281921387" stroke-width="3.0" fill="none" stroke="rgb(0, 0, 0)" stroke-opacity="1.0" stroke-linecap="round" stroke-linejoin="round"/>
  </g>
</svg>
