<?xml version="1.0" ?>
<svg xmlns="http://www.w3.org/2000/svg" version="1.1" width="224" height="224">
  <defs/>
  <g>
    <path d="M 59.56675720214844 94.97833251953125 C 61.739288330078125 99.24522399902344 52.18003463745117 89.530029296875 65.90741729736328 62.68303680419922" stroke-width="3.0" fill="none" stroke="rgb(0, 0, 0)" stroke-opacity="1.0" stroke-linecap="round" stroke-linejoin="round"/>
    <path d="M 189.3092498779297 111.12054443359375 C 183.16331481933594 113.43504333496094 193.60284423828125 99.34835052490234 179.92031860351562 125.2554702758789" stroke-width="3.0" fill="none" stroke="rgb(0, 0, 0)" stroke-opacity="1.0" stroke-linecap="round" stroke-linejoin="round"/>
    <path d="M 60.817352294921875 121.87622833251953 C 50.563629150390625 84.56910705566406 56.15800857543945 119.52709197998047 64.85562133789062 125.7361831665039" stroke-width="3.0" fill="none" stroke="rgb(0, 0, 0)" stroke-opacity="1.0" stroke-linecap="round" stroke-linejoin="round"/>
    <path d="M 185.59608459472656 94.96468353271484 C 147.88839721679688 70.32658386230469 183.00479125976562 75.808837890625 187.34866333007812 105.56974792480469" stroke-width="3.0" fill="none" stroke="rgb(0, 0, 0)" stroke-opacity="1.0" stroke-linecap="round" stroke-linejoin="round"/>
    <path d="M 175.26699829101562 42.78401565551758 C 195.97547912597656 90.00255584716797 173.80325317382812 107.12471008300781 184.9417266845703 69.07820129394531" stroke-width="3.0" fill="none" stroke="rgb(0, 0, 0)" stroke-opacity="1.0" stroke-linecap="round" stroke-linejoin="round"/>
    <path d="M 127.57896423339844 102.93232727050781 C 148.1630401611328 119.66868591308594 94.61676788330078 99.77983093261719 134.8892059326172 106.83333587646484" stroke-width="3.0" fill="none" stroke="rgb(0, 0, 0)" stroke-opacity="1.0" stroke-linecap="round" stroke-linejoin="round"/>
    <path d="M 180.545166015625 90.79755401611328 C 177.7266387939453 88.32054138183594 185.15382385253906 67.9156265258789 150.13619995117188 85.6171646118164" stroke-width="3.0" fill="none" stroke="rgb(0, 0, 0)" stroke-opacity="1.0" stroke-linecap="round" stroke-linejoin="round"/>
    <path d="M 68.911865234375 192.41598510742188 C 40.54982376098633 166.31326293945312 46.67055130004883 163.69541931152344 55.05976486206055 176.44967651367188" stroke-width="3.0" fill="none" stroke="rgb(0, 0, 0)" stroke-opacity="1.0" stroke-linecap="round" stroke-linejoin="round"/>
    <path d="M 58.84343719482422 185.07205200195312 C 84.89957427978516 213.03944396972656 131.3121795654297 196.0674591064453 139.5789031982422 162.22447204589844" stroke-width="3.0" fill="none" stroke="rgb(0, 0, 0)" stroke-opacity="1.0" stroke-linecap="round" stroke-linejoin="round"/>
    <path d="M 82.10187530517578 12.26054573059082 C 93.41846466064453 73.13228607177734 87.75120544433594 7.118144989013672 86.66932678222656 55.8568115234375" stroke-width="3.0" fill="none" stroke="rgb(0, 0, 0)" stroke-opacity="1.0" stroke-linecap="round" stroke-linejoin="round"/>
    <path d="M 58.45155334472656 95.94659423828125 C 49.513389587402344 132.4833526611328 72.24615478515625 131.56912231445312 58.7956428527832 121.98947143554688" stroke-width="3.0" fill="none" stroke="rgb(0, 0, 0)" stroke-opacity="1.0" stroke-linecap="round" stroke-linejoin="round"/>
    <path d="M 143.166259765625 73.69071197509766 C 194.98135375976562 64.53753662109375 191.392578125 86.1606674194336 138.9050750732422 85.47482299804688" stroke-width="3.0" fill="none" stroke="rgb(0, 0, 0)" stroke-opacity="1.0" stroke-linecap="round" stroke-linejoin="round"/>
    <path d="M 148.321533203125 99.52860260009766 C 181.101806640625 97.05819702148438 181.6358642578125 93.97527313232422 196.66842651367188 114.07551574707031" stroke-width="3.0" fill="none" stroke="rgb(0, 0, 0)" stroke-opacity="1.0" stroke-linecap="round" stroke-linejoin="round"/>
    <path d="M 123.320068359375 149.14614868164062 C 161.0170135498047 161.82313537597656 100.4922103881836 144.07957458496094 99.76716613769531 150.99942016601562" stroke-width="3.0" fill="none" stroke="rgb(0, 0, 0)" stroke-opacity="1.0" stroke-linecap="round" stroke-linejoin="round"/>
    <path d="M 180.17820739746094 8.485625267028809 C 189.05458068847656 17.897050857543945 167.3955535888672 100.44942474365234 181.1003875732422 53.049903869628906" stroke-width="3.0" fill="none" stroke="rgb(0, 0, 0)" stroke-opacity="1.0" stroke-linecap="round" stroke-linejoin="round"/>
    <path d="M 148.60440063476562 33.309688568115234 C 113.39411163330078 24.67725944519043 138.5216827392578 32.397979736328125 134.4158935546875 67.08941650390625" stroke-width="3.0" fill="none" stroke="rgb(0, 0, 0)" stroke-opacity="1.0" stroke-linecap="round" stroke-linejoin="round"/>
    <path d="M 104.80709075927734 48.94435119628906 C 61.34269714355469 -7.096280574798584 82.54841613769531 1.105555534362793 117.98487091064453 31.93427848815918" stroke-width="3.0" fill="none" stroke="rgb(0, 0, 0)" stroke-opacity="1.0" stroke-linecap="round" stroke-linejoin="round"/>
    <path d="M 43.999473571777344 163.0199737548828 C 43.65253448486328 159.74264526367188 41.40330123901367 153.31607055664062 47.905006408691406 170.86929321289062" stroke-width="3.0" fill="none" stroke="rgb(0, 0, 0)" stroke-opacity="1.0" stroke-linecap="round" stroke-linejoin="round"/>
    <path d="M 57.17422866821289 75.02005767822266 C 23.698741912841797 132.84243774414062 39.10150909423828 136.978515625 42.22406005859375 158.6720428466797" stroke-width="3.0" fill="none" stroke="rgb(0, 0, 0)" stroke-opacity="1.0" stroke-linecap="round" stroke-linejoin="round"/>
    <path d="M 74.43909454345703 137.05465698242188 C 133.18682861328125 162.9351806640625 101.42085266113281 148.3541717529297 87.1568603515625 144.3885040283203" stroke-width="3.0" fill="none" stroke="rgb(0, 0, 0)" stroke-opacity="1.0" stroke-linecap="round" stroke-linejoin="round"/>
    <path d="M 97.85659790039062 197.27459716796875 C 65.55628204345703 196.79647827148438 48.5552978515625 176.29385375976562 43.62187194824219 160.09130859375" stroke-width="3.0" fill="none" stroke="rgb(0, 0, 0)" stroke-opacity="1.0" stroke-linecap="round" stroke-linejoin="round"/>
    <path d="M 47.98372268676758 172.1957244873047 C 70.04137420654297 197.17970275878906 47.86897277832031 175.6116180419922 35.45321273803711 142.05824279785156" stroke-width="3.0" fill="none" stroke="rgb(0, 0, 0)" stroke-opacity="1.0" stroke-linecap="round" stroke-linejoin="round"/>
    <path d="M 81.56796264648438 55.68169021606445 C 55.472679138183594 59.31694793701172 65.53849792480469 72.2755355834961 39.504459381103516 109.84778594970703" stroke-width="3.0" fill="none" stroke="rgb(0, 0, 0)" stroke-opacity="1.0" stroke-linecap="round" stroke-linejoin="round"/>
    <path d="M 155.7403106689453 139.8811798095703 C 101.91873931884766 155.8929901123047 75.05663299560547 155.60487365722656 145.13272094726562 148.1258087158203" stroke-width="3.0" fill="none" stroke="rgb(0, 0, 0)" stroke-opacity="1.0" stroke-linecap="round" stroke-linejoin="round"/>
    <path d="M 151.67762756347656 26.74115753173828 C 147.424072265625 31.4907169342041 140.092041015625 16.359291076660156 137.45126342773438 78.8746337890625" stroke-width="3.0" fill="none" stroke="rgb(0, 0, 0)" stroke-opacity="1.0" stroke-linecap="round" stroke-linejoin="round"/>
    <path d="M 145.224365234375 102.8859634399414 C 127.92245483398438 114.96102905273438 127.04850006103516 106.08885192871094 116.4437255859375 97.5668716430664" stroke-width="3.0" fill="none" stroke="rgb(0, 0, 0)" stroke-opacity="1.0" stroke-linecap="round" stroke-linejoin="round"/>
    <path d="M 137.92184448242188 64.39553833007812 C 144.71177673339844 56.28782272338867 128.4195098876953 74.19146728515625 140.318603515625 82.04398345947266" stroke-width="3.0" fill="none" stroke="rgb(0, 0, 0)" stroke-opacity="1.0" stroke-linecap="round" stroke-linejoin="round"/>
    <path d="M 136.7242431640625 165.41998291015625 C 129.65896606445312 171.59420776367188 143.88119506835938 162.74020385742188 146.8975372314453 146.59130859375" stroke-width="3.0" fill="none" stroke="rgb(0, 0, 0)" stroke-opacity="1.0" stroke-linecap="round" stroke-linejoin="round"/>
    <path d="M 196.71469116210938 95.20624542236328 C 163.89454650878906 67.29035949707031 181.24053955078125 68.84062957763672 187.2323760986328 96.5884017944336" stroke-width="3.0" fill="none" stroke="rgb(0, 0, 0)" stroke-opacity="1.0" stroke-linecap="round" stroke-linejoin="round"/>
    <path d="M 152.05325317382812 76.51394653320312 C 124.57776641845703 56.07948684692383 209.59002685546875 88.69210815429688 174.89608764648438 66.80354309082031" stroke-width="3.0" fill="none" stroke="rgb(0, 0, 0)" stroke-opacity="1.0" stroke-linecap="round" stroke-linejoin="round"/>
    <path d="M 117.94552612304688 79.45986938476562 C 85.24956512451172 71.09872436523438 141.78184509277344 72.84632873535156 107.68622589111328 83.13420867919922" stroke-width="3.0" fill="none" stroke="rgb(0, 0, 0)" stroke-opacity="1.0" stroke-linecap="round" stroke-linejoin="round"/>
    <path d="M 167.3092041015625 127.97288513183594 C 149.2451171875 159.06166076660156 99.812744140625 143.39337158203125 92.21085357666016 147.82351684570312" stroke-width="3.0" fill="none" stroke="rgb(0, 0, 0)" stroke-opacity="1.0" stroke-linecap="round" stroke-linejoin="round"/>
    <path d="M 125.39144897460938 93.15557861328125 C 144.65728759765625 101.02786254882812 130.25735473632812 72.04442596435547 129.5028839111328 108.00948333740234" stroke-width="3.0" fill="none" stroke="rgb(0, 0, 0)" stroke-opacity="1.0" stroke-linecap="round" stroke-linejoin="round"/>
    <path d="M 186.80999755859375 108.6850814819336 C 167.88644409179688 90.6598892211914 170.29061889648438 98.38631439208984 144.36270141601562 87.05865478515625" stroke-width="3.0" fill="none" stroke="rgb(0, 0, 0)" stroke-opacity="1.0" stroke-linecap="round" stroke-linejoin="round"/>
    <path d="M 93.57489776611328 26.153039932250977 C 124.29801177978516 31.929777145385742 87.39617919921875 33.89808654785156 148.4502410888672 30.842426300048828" stroke-width="3.0" fill="none" stroke="rgb(0, 0, 0)" stroke-opacity="1.0" stroke-linecap="round" stroke-linejoin="round"/>
    <path d="M 55.33642578125 113.39533996582031 C 62.41831588745117 101.49478149414062 45.091331481933594 119.51252746582031 73.98131561279297 137.6680450439453" stroke-width="3.0" fill="none" stroke="rgb(0, 0, 0)" stroke-opacity="1.0" stroke-linecap="round" stroke-linejoin="round"/>
    <path d="M 137.4596710205078 105.04887390136719 C 120.69487762451172 92.82091522216797 123.13569641113281 120.94113159179688 110.86156463623047 89.59295654296875" stroke-width="3.0" fill="none" stroke="rgb(0, 0, 0)" stroke-opacity="1.0" stroke-linecap="round" stroke-linejoin="round"/>
    <path d="M 38.27817916870117 144.34706115722656 C 21.356447219848633 127.09309387207031 36.95292663574219 81.02263641357422 61.5399284362793 67.94026184082031" stroke-width="3.0" fill="none" stroke="rgb(0, 0, 0)" stroke-opacity="1.0" stroke-linecap="round" stroke-linejoin="round"/>
    <path d="M 101.7694320678711 196.93190002441406 C 76.65147399902344 199.546142578125 68.98274993896484 198.99911499023438 108.13555145263672 195.4453582763672" stroke-width="3.0" fill="none" stroke="rgb(0, 0, 0)" stroke-opacity="1.0" stroke-linecap="round" stroke-linejoin="round"/>
    <path d="M 170.7361297607422 128.3446502685547 C 198.66175842285156 113.52188873291016 192.53257751464844 85.6717529296875 153.48779296875 90.3550033569336" stroke-width="3.0" fill="none" stroke="rgb(0, 0, 0)" stroke-opacity="1.0" stroke-linecap="round" stroke-linejoin="round"/>
    <path d="M 150.7664031982422 70.6410140991211 C 129.9599609375 80.6626205444336 168.11949157714844 78.35494995117188 146.0226287841797 69.40319061279297" stroke-width="3.0" fill="none" stroke="rgb(0, 0, 0)" stroke-opacity="1.0" stroke-linecap="round" stroke-linejoin="round"/>
    <path d="M 139.45755004882812 76.80496978759766 C 143.6586151123047 41.34260940551758 194.60403442382812 108.3166275024414 177.31944274902344 49.390167236328125" stroke-width="3.0" fill="none" stroke="rgb(0, 0, 0)" stroke-opacity="1.0" stroke-linecap="round" stroke-linejoin="round"/>
    <path d="M 154.30047607421875 98.50407409667969 C 175.09906005859375 107.99700927734375 178.30075073242188 99.99222564697266 184.82928466796875 122.86237335205078" stroke-width="3.0" fill="none" stroke="rgb(0, 0, 0)" stroke-opacity="1.0" stroke-linecap="round" stroke-linejoin="round"/>
    <path d="M 177.1734619140625 15.010700225830078 C 170.3238525390625 39.79424285888672 175.5382080078125 18.911277770996094 160.3041229248047 37.768287658691406" stroke-width="3.0" fill="none" stroke="rgb(0, 0, 0)" stroke-opacity="1.0" stroke-linecap="round" stroke-linejoin="round"/>
    <path d="M 121.1690673828125 105.08560943603516 C 146.6265869140625 100.15763092041016 125.87188720703125 115.74475860595703 119.829345703125 103.50502014160156" stroke-width="3.0" fill="none" stroke="rgb(0, 0, 0)" stroke-opacity="1.0" stroke-linecap="round" stroke-linejoin="round"/>
    <path d="M 65.26512145996094 116.81104278564453 C 52.21306228637695 112.72140502929688 58.053611755371094 110.38572692871094 63.6846809387207 121.7286148071289" stroke-width="3.0" fill="none" stroke="rgb(0, 0, 0)" stroke-opacity="1.0" stroke-linecap="round" stroke-linejoin="round"/>
    <path d="M 121.11410522460938 72.38678741455078 C 121.4259033203125 46.19674301147461 114.36553192138672 58.54869079589844 119.10509490966797 31.00123405456543" stroke-width="3.0" fill="none" stroke="rgb(0, 0, 0)" stroke-opacity="1.0" stroke-linecap="round" stroke-linejoin="round"/>
    <path d="M 144.4765167236328 30.286502838134766 C 144.2563018798828 38.396629333496094 162.8565216064453 7.982075214385986 177.10922241210938 8.262094497680664" stroke-width="3.0" fill="none" stroke="rgb(0, 0, 0)" stroke-opacity="1.0" stroke-linecap="round" stroke-linejoin="round"/>
  </g>
</svg>
