<?xml version="1.0" ?>
<svg xmlns="http://www.w3.org/2000/svg" version="1.1" width="224" height="224">
  <defs/>
  <g>
    <path d="M 60.9102668762207 107.54902648925781 C 64.94642639160156 106.55208587646484 56.563232421875 109.53368377685547 47.415916442871094 107.59291076660156" stroke-width="3.0" fill="none" stroke="rgb(0, 0, 0)" stroke-opacity="1.0" stroke-linecap="round" stroke-linejoin="round"/>
    <path d="M 181.114013671875 124.81114196777344 C 179.45411682128906 112.38719940185547 176.98028564453125 116.60543823242188 185.58702087402344 125.67817687988281" stroke-width="3.0" fill="none" stroke="rgb(0, 0, 0)" stroke-opacity="1.0" stroke-linecap="round" stroke-linejoin="round"/>
    <path d="M 56.473873138427734 111.0511703491211 C 58.336578369140625 115.6178207397461 55.22789764404297 100.09441375732422 55.95011901855469 111.35802459716797" stroke-width="3.0" fill="none" stroke="rgb(0, 0, 0)" stroke-opacity="1.0" stroke-linecap="round" stroke-linejoin="round"/>
    <path d="M 180.12905883789062 98.64128112792969 C 155.92848205566406 104.25051879882812 167.3818359375 96.1329574584961 190.18719482421875 111.8299560546875" stroke-width="3.0" fill="none" stroke="rgb(0, 0, 0)" stroke-opacity="1.0" stroke-linecap="round" stroke-linejoin="round"/>
    <path d="M 181.7311553955078 77.95846557617188 C 185.31951904296875 83.94560241699219 179.05422973632812 74.28102111816406 181.1427001953125 82.79214477539062" stroke-width="3.0" fill="none" stroke="rgb(0, 0, 0)" stroke-opacity="1.0" stroke-linecap="round" stroke-linejoin="round"/>
    <path d="M 129.54296875 99.64535522460938 C 119.53135681152344 109.91443634033203 118.84627532958984 103.6994857788086 133.16653442382812 105.0221939086914" stroke-width="3.0" fill="none" stroke="rgb(0, 0, 0)" stroke-opacity="1.0" stroke-linecap="round" stroke-linejoin="round"/>
    <path d="M 176.1229248046875 80.83827209472656 C 185.8878936767578 82.53363037109375 176.84579467773438 79.36647033691406 164.2700653076172 82.77400970458984" stroke-width="3.0" fill="none" stroke="rgb(0, 0, 0)" stroke-opacity="1.0" stroke-linecap="round" stroke-linejoin="round"/>
    <path d="M 59.75943374633789 181.72132873535156 C 39.551273345947266 156.89276123046875 44.40468978881836 167.82907104492188 46.91606140136719 162.06419372558594" stroke-width="3.0" fill="none" stroke="rgb(0, 0, 0)" stroke-opacity="1.0" stroke-linecap="round" stroke-linejoin="round"/>
    <path d="M 74.81243896484375 186.3966522216797 C 83.83604431152344 188.3569793701172 93.35548400878906 193.78683471679688 83.43788146972656 183.8359375" stroke-width="3.0" fill="none" stroke="rgb(0, 0, 0)" stroke-opacity="1.0" stroke-linecap="round" stroke-linejoin="round"/>
    <path d="M 86.76274108886719 48.84720230102539 C 81.57417297363281 69.10139465332031 89.63585662841797 70.4665756225586 83.92861938476562 62.03973388671875" stroke-width="3.0" fill="none" stroke="rgb(0, 0, 0)" stroke-opacity="1.0" stroke-linecap="round" stroke-linejoin="round"/>
    <path d="M 63.841060638427734 127.64391326904297 C 72.93851470947266 150.67298889160156 76.22150421142578 149.05511474609375 77.98455810546875 152.16319274902344" stroke-width="3.0" fill="none" stroke="rgb(0, 0, 0)" stroke-opacity="1.0" stroke-linecap="round" stroke-linejoin="round"/>
    <path d="M 170.62039184570312 88.36547088623047 C 184.19363403320312 76.54202270507812 171.7642059326172 87.41351318359375 152.0789031982422 87.14158630371094" stroke-width="3.0" fill="none" stroke="rgb(0, 0, 0)" stroke-opacity="1.0" stroke-linecap="round" stroke-linejoin="round"/>
    <path d="M 157.64266967773438 104.10140991210938 C 175.95346069335938 101.32831573486328 162.6631622314453 100.75272369384766 179.34181213378906 103.36915588378906" stroke-width="3.0" fill="none" stroke="rgb(0, 0, 0)" stroke-opacity="1.0" stroke-linecap="round" stroke-linejoin="round"/>
    <path d="M 77.93954467773438 170.0963134765625 C 83.00060272216797 182.15380859375 91.51148223876953 183.1668701171875 94.0285415649414 190.43075561523438" stroke-width="3.0" fill="none" stroke="rgb(0, 0, 0)" stroke-opacity="1.0" stroke-linecap="round" stroke-linejoin="round"/>
    <path d="M 173.17344665527344 9.02761459350586 C 180.30853271484375 -1.3986296653747559 184.99160766601562 26.15069580078125 179.86221313476562 51.140987396240234" stroke-width="3.0" fill="none" stroke="rgb(0, 0, 0)" stroke-opacity="1.0" stroke-linecap="round" stroke-linejoin="round"/>
    <path d="M 126.1453628540039 35.49554443359375 C 122.97450256347656 47.34144592285156 124.0261001586914 43.601097106933594 123.73087310791016 51.81990051269531" stroke-width="3.0" fill="none" stroke="rgb(0, 0, 0)" stroke-opacity="1.0" stroke-linecap="round" stroke-linejoin="round"/>
    <path d="M 87.85045623779297 53.68172073364258 C 77.1107406616211 -13.121883392333984 85.19313049316406 3.458981513977051 96.1891098022461 42.359893798828125" stroke-width="3.0" fill="none" stroke="rgb(0, 0, 0)" stroke-opacity="1.0" stroke-linecap="round" stroke-linejoin="round"/>
    <path d="M 52.32894515991211 169.30860900878906 C 41.549537658691406 147.27349853515625 48.588172912597656 160.88079833984375 46.462738037109375 159.76416015625" stroke-width="3.0" fill="none" stroke="rgb(0, 0, 0)" stroke-opacity="1.0" stroke-linecap="round" stroke-linejoin="round"/>
    <path d="M 40.4516487121582 134.14804077148438 C 42.918148040771484 134.12066650390625 38.187469482421875 143.3018798828125 37.347957611083984 145.60023498535156" stroke-width="3.0" fill="none" stroke="rgb(0, 0, 0)" stroke-opacity="1.0" stroke-linecap="round" stroke-linejoin="round"/>
    <path d="M 72.34992218017578 162.98922729492188 C 73.92478942871094 167.24008178710938 77.54116821289062 167.09671020507812 78.3624496459961 171.90835571289062" stroke-width="3.0" fill="none" stroke="rgb(0, 0, 0)" stroke-opacity="1.0" stroke-linecap="round" stroke-linejoin="round"/>
    <path d="M 74.42635345458984 190.0208282470703 C 54.897953033447266 174.9000244140625 71.52498626708984 194.44723510742188 58.63374710083008 175.20323181152344" stroke-width="3.0" fill="none" stroke="rgb(0, 0, 0)" stroke-opacity="1.0" stroke-linecap="round" stroke-linejoin="round"/>
    <path d="M 43.58341979980469 160.79971313476562 C 47.65520095825195 160.9242401123047 36.84893035888672 150.4176788330078 42.121421813964844 145.64756774902344" stroke-width="3.0" fill="none" stroke="rgb(0, 0, 0)" stroke-opacity="1.0" stroke-linecap="round" stroke-linejoin="round"/>
    <path d="M 62.932640075683594 60.070152282714844 C 47.70280075073242 75.9506607055664 56.2587776184082 73.88806915283203 40.71476364135742 109.90514373779297" stroke-width="3.0" fill="none" stroke="rgb(0, 0, 0)" stroke-opacity="1.0" stroke-linecap="round" stroke-linejoin="round"/>
    <path d="M 137.11585998535156 158.80068969726562 C 126.80303192138672 159.0294189453125 131.114501953125 147.63031005859375 144.79940795898438 163.95127868652344" stroke-width="3.0" fill="none" stroke="rgb(0, 0, 0)" stroke-opacity="1.0" stroke-linecap="round" stroke-linejoin="round"/>
    <path d="M 139.2662353515625 33.524166107177734 C 149.19569396972656 53.88442611694336 137.8561553955078 55.998966217041016 140.10279846191406 73.12034606933594" stroke-width="3.0" fill="none" stroke="rgb(0, 0, 0)" stroke-opacity="1.0" stroke-linecap="round" stroke-linejoin="round"/>
    <path d="M 146.6291046142578 102.21170043945312 C 128.41551208496094 108.02327728271484 114.19010925292969 105.7833023071289 128.0264892578125 108.95946502685547" stroke-width="3.0" fill="none" stroke="rgb(0, 0, 0)" stroke-opacity="1.0" stroke-linecap="round" stroke-linejoin="round"/>
    <path d="M 144.5171661376953 69.0899887084961 C 145.6226043701172 59.77349090576172 157.07485961914062 51.817874908447266 151.79896545410156 56.21441650390625" stroke-width="3.0" fill="none" stroke="rgb(0, 0, 0)" stroke-opacity="1.0" stroke-linecap="round" stroke-linejoin="round"/>
    <path d="M 108.64797973632812 191.9124298095703 C 74.49209594726562 180.59657287597656 88.15470886230469 197.18980407714844 128.42874145507812 185.083251953125" stroke-width="3.0" fill="none" stroke="rgb(0, 0, 0)" stroke-opacity="1.0" stroke-linecap="round" stroke-linejoin="round"/>
    <path d="M 179.89517211914062 87.08893585205078 C 174.57550048828125 79.50843048095703 174.09678649902344 94.85585021972656 178.2267303466797 83.72784423828125" stroke-width="3.0" fill="none" stroke="rgb(0, 0, 0)" stroke-opacity="1.0" stroke-linecap="round" stroke-linejoin="round"/>
    <path d="M 171.6563720703125 83.35579681396484 C 178.56619262695312 84.39594268798828 186.7048797607422 89.85252380371094 168.1944580078125 89.58855438232422" stroke-width="3.0" fill="none" stroke="rgb(0, 0, 0)" stroke-opacity="1.0" stroke-linecap="round" stroke-linejoin="round"/>
    <path d="M 113.72900390625 74.89337921142578 C 93.39228820800781 65.95301818847656 134.57650756835938 68.87171936035156 110.6678237915039 77.2862777709961" stroke-width="3.0" fill="none" stroke="rgb(0, 0, 0)" stroke-opacity="1.0" stroke-linecap="round" stroke-linejoin="round"/>
    <path d="M 133.42440795898438 154.5603485107422 C 135.4214324951172 151.82920837402344 127.88953399658203 153.04550170898438 124.65888977050781 149.9442596435547" stroke-width="3.0" fill="none" stroke="rgb(0, 0, 0)" stroke-opacity="1.0" stroke-linecap="round" stroke-linejoin="round"/>
    <path d="M 124.35333251953125 88.2177963256836 C 142.87844848632812 97.94076538085938 133.03921508789062 78.56983184814453 129.77928161621094 96.32756805419922" stroke-width="3.0" fill="none" stroke="rgb(0, 0, 0)" stroke-opacity="1.0" stroke-linecap="round" stroke-linejoin="round"/>
    <path d="M 182.18295288085938 99.50479888916016 C 173.50668334960938 90.420654296875 184.60610961914062 100.97775268554688 148.1949005126953 92.0960693359375" stroke-width="3.0" fill="none" stroke="rgb(0, 0, 0)" stroke-opacity="1.0" stroke-linecap="round" stroke-linejoin="round"/>
    <path d="M 84.82294464111328 8.173406600952148 C 106.9300308227539 18.023624420166016 110.77670288085938 35.43930435180664 120.3770751953125 35.68879699707031" stroke-width="3.0" fill="none" stroke="rgb(0, 0, 0)" stroke-opacity="1.0" stroke-linecap="round" stroke-linejoin="round"/>
    <path d="M 54.608741760253906 109.4708251953125 C 52.20541763305664 109.24337005615234 65.20816040039062 116.73252868652344 56.03219223022461 111.07730865478516" stroke-width="3.0" fill="none" stroke="rgb(0, 0, 0)" stroke-opacity="1.0" stroke-linecap="round" stroke-linejoin="round"/>
    <path d="M 121.49351501464844 100.45362854003906 C 100.04224395751953 94.14411926269531 132.32321166992188 97.62147521972656 109.64856719970703 96.11577606201172" stroke-width="3.0" fill="none" stroke="rgb(0, 0, 0)" stroke-opacity="1.0" stroke-linecap="round" stroke-linejoin="round"/>
    <path d="M 38.09143829345703 123.07601928710938 C 40.175350189208984 97.07054901123047 46.60802459716797 105.84194946289062 40.3241081237793 110.56135559082031" stroke-width="3.0" fill="none" stroke="rgb(0, 0, 0)" stroke-opacity="1.0" stroke-linecap="round" stroke-linejoin="round"/>
    <path d="M 84.47174835205078 186.15325927734375 C 75.87372589111328 189.10458374023438 74.92034149169922 195.212646484375 85.46678924560547 185.58717346191406" stroke-width="3.0" fill="none" stroke="rgb(0, 0, 0)" stroke-opacity="1.0" stroke-linecap="round" stroke-linejoin="round"/>
    <path d="M 177.41726684570312 133.85574340820312 C 191.21902465820312 108.4486083984375 166.40235900878906 104.23800659179688 148.3816375732422 97.20658874511719" stroke-width="3.0" fill="none" stroke="rgb(0, 0, 0)" stroke-opacity="1.0" stroke-linecap="round" stroke-linejoin="round"/>
    <path d="M 147.08056640625 78.98371124267578 C 143.39244079589844 67.18125915527344 140.4663543701172 95.23487854003906 150.23626708984375 79.05008697509766" stroke-width="3.0" fill="none" stroke="rgb(0, 0, 0)" stroke-opacity="1.0" stroke-linecap="round" stroke-linejoin="round"/>
    <path d="M 157.95924377441406 70.78559112548828 C 168.5052947998047 68.78340148925781 177.244140625 75.93060302734375 182.70941162109375 72.42115020751953" stroke-width="3.0" fill="none" stroke="rgb(0, 0, 0)" stroke-opacity="1.0" stroke-linecap="round" stroke-linejoin="round"/>
    <path d="M 147.468994140625 103.35602569580078 C 156.1782684326172 100.89157104492188 165.1020050048828 104.48075866699219 173.03257751464844 119.67802429199219" stroke-width="3.0" fill="none" stroke="rgb(0, 0, 0)" stroke-opacity="1.0" stroke-linecap="round" stroke-linejoin="round"/>
    <path d="M 172.1114501953125 21.032154083251953 C 163.80477905273438 42.64866256713867 163.1614990234375 28.233983993530273 164.72653198242188 42.873477935791016" stroke-width="3.0" fill="none" stroke="rgb(0, 0, 0)" stroke-opacity="1.0" stroke-linecap="round" stroke-linejoin="round"/>
    <path d="M 122.9335708618164 108.36255645751953 C 150.33587646484375 112.0673828125 123.995361328125 92.25509643554688 118.88739776611328 107.4027099609375" stroke-width="3.0" fill="none" stroke="rgb(0, 0, 0)" stroke-opacity="1.0" stroke-linecap="round" stroke-linejoin="round"/>
    <path d="M 57.07853317260742 112.7198486328125 C 60.67799377441406 108.01216125488281 50.95041275024414 104.40632629394531 62.20050048828125 128.69024658203125" stroke-width="3.0" fill="none" stroke="rgb(0, 0, 0)" stroke-opacity="1.0" stroke-linecap="round" stroke-linejoin="round"/>
    <path d="M 119.25967407226562 80.28877258300781 C 126.30135345458984 55.67584991455078 116.47116088867188 54.421363830566406 115.80852508544922 44.017066955566406" stroke-width="3.0" fill="none" stroke="rgb(0, 0, 0)" stroke-opacity="1.0" stroke-linecap="round" stroke-linejoin="round"/>
    <path d="M 147.23126220703125 34.04729080200195 C 157.02320861816406 24.959884643554688 151.58175659179688 16.739370346069336 176.04519653320312 8.069214820861816" stroke-width="3.0" fill="none" stroke="rgb(0, 0, 0)" stroke-opacity="1.0" stroke-linecap="round" stroke-linejoin="round"/>
  </g>
</svg>
