<?xml version="1.0" ?>
<svg xmlns="http://www.w3.org/2000/svg" version="1.1" width="224" height="224">
  <defs/>
  <g>
    <path d="M 63.96727752685547 80.99536895751953 C 66.50559997558594 81.54888916015625 67.0751724243164 83.51331329345703 55.96165084838867 73.4252700805664" stroke-width="3.0" fill="none" stroke="rgb(0, 0, 0)" stroke-opacity="1.0" stroke-linecap="round" stroke-linejoin="round"/>
    <path d="M 185.16293334960938 120.148681640625 C 179.12255859375 115.32227325439453 196.7877960205078 93.1590347290039 177.93637084960938 127.25679016113281" stroke-width="3.0" fill="none" stroke="rgb(0, 0, 0)" stroke-opacity="1.0" stroke-linecap="round" stroke-linejoin="round"/>
    <path d="M 60.89546585083008 126.4342041015625 C 51.142826080322266 103.6808853149414 48.915035247802734 121.86219787597656 69.43104553222656 129.61294555664062" stroke-width="3.0" fill="none" stroke="rgb(0, 0, 0)" stroke-opacity="1.0" stroke-linecap="round" stroke-linejoin="round"/>
    <path d="M 184.21449279785156 99.32196044921875 C 151.85362243652344 85.3008804321289 173.5884552001953 83.23975372314453 197.2537841796875 113.61683654785156" stroke-width="3.0" fill="none" stroke="rgb(0, 0, 0)" stroke-opacity="1.0" stroke-linecap="round" stroke-linejoin="round"/>
    <path d="M 181.4048614501953 59.15032958984375 C 174.07473754882812 109.4638442993164 182.0420379638672 97.26671600341797 184.04751586914062 63.9984130859375" stroke-width="3.0" fill="none" stroke="rgb(0, 0, 0)" stroke-opacity="1.0" stroke-linecap="round" stroke-linejoin="round"/>
    <path d="M 123.3972396850586 102.82600402832031 C 147.62428283691406 114.6343002319336 103.0043716430664 98.4963150024414 136.86703491210938 101.57403564453125" stroke-width="3.0" fill="none" stroke="rgb(0, 0, 0)" stroke-opacity="1.0" stroke-linecap="round" stroke-linejoin="round"/>
    <path d="M 173.15045166015625 98.71525573730469 C 189.66795349121094 85.87200927734375 177.90731811523438 71.74263000488281 160.16043090820312 87.2994155883789" stroke-width="3.0" fill="none" stroke="rgb(0, 0, 0)" stroke-opacity="1.0" stroke-linecap="round" stroke-linejoin="round"/>
    <path d="M 56.7440185546875 183.75869750976562 C 39.337982177734375 153.9081268310547 47.325889587402344 166.92929077148438 49.9208869934082 173.84214782714844" stroke-width="3.0" fill="none" stroke="rgb(0, 0, 0)" stroke-opacity="1.0" stroke-linecap="round" stroke-linejoin="round"/>
    <path d="M 58.94876480102539 183.6035919189453 C 83.52793884277344 209.9665069580078 113.39287567138672 194.80673217773438 131.8546142578125 180.2387237548828" stroke-width="3.0" fill="none" stroke="rgb(0, 0, 0)" stroke-opacity="1.0" stroke-linecap="round" stroke-linejoin="round"/>
    <path d="M 84.78759765625 32.22118377685547 C 102.47218322753906 67.41796875 83.1781997680664 19.982797622680664 87.11790466308594 52.16749954223633" stroke-width="3.0" fill="none" stroke="rgb(0, 0, 0)" stroke-opacity="1.0" stroke-linecap="round" stroke-linejoin="round"/>
    <path d="M 55.85285186767578 113.38188171386719 C 59.553367614746094 135.93505859375 98.19326782226562 159.93038940429688 100.244140625 153.32460021972656" stroke-width="3.0" fill="none" stroke="rgb(0, 0, 0)" stroke-opacity="1.0" stroke-linecap="round" stroke-linejoin="round"/>
    <path d="M 143.37786865234375 75.79057312011719 C 201.63661193847656 60.09495162963867 184.48681640625 81.4754409790039 151.77926635742188 86.71917724609375" stroke-width="3.0" fill="none" stroke="rgb(0, 0, 0)" stroke-opacity="1.0" stroke-linecap="round" stroke-linejoin="round"/>
    <path d="M 151.89974975585938 97.17973327636719 C 181.02310180664062 102.5604248046875 176.23464965820312 103.5036392211914 194.24742126464844 114.24197387695312" stroke-width="3.0" fill="none" stroke="rgb(0, 0, 0)" stroke-opacity="1.0" stroke-linecap="round" stroke-linejoin="round"/>
    <path d="M 122.7723159790039 154.7582550048828 C 143.52212524414062 142.98854064941406 118.00172424316406 160.63575744628906 120.91426086425781 151.56431579589844" stroke-width="3.0" fill="none" stroke="rgb(0, 0, 0)" stroke-opacity="1.0" stroke-linecap="round" stroke-linejoin="round"/>
    <path d="M 178.5457000732422 10.08676528930664 C 189.44168090820312 20.336353302001953 174.69631958007812 60.91847229003906 180.03237915039062 50.24721145629883" stroke-width="3.0" fill="none" stroke="rgb(0, 0, 0)" stroke-opacity="1.0" stroke-linecap="round" stroke-linejoin="round"/>
    <path d="M 129.6095733642578 33.29023361206055 C 120.7713394165039 54.15258026123047 132.4019317626953 35.032230377197266 126.13232421875 66.83592987060547" stroke-width="3.0" fill="none" stroke="rgb(0, 0, 0)" stroke-opacity="1.0" stroke-linecap="round" stroke-linejoin="round"/>
    <path d="M 92.72463989257812 50.92990493774414 C 76.47352600097656 -5.799894332885742 84.13158416748047 0.7459453344345093 108.08721923828125 40.05084228515625" stroke-width="3.0" fill="none" stroke="rgb(0, 0, 0)" stroke-opacity="1.0" stroke-linecap="round" stroke-linejoin="round"/>
    <path d="M 43.88261413574219 162.62753295898438 C 39.96397018432617 154.1898956298828 39.91599655151367 146.40679931640625 42.339637756347656 160.14199829101562" stroke-width="3.0" fill="none" stroke="rgb(0, 0, 0)" stroke-opacity="1.0" stroke-linecap="round" stroke-linejoin="round"/>
    <path d="M 36.46760940551758 103.56190490722656 C 23.298948287963867 124.53253173828125 38.8195915222168 145.37078857421875 39.5369758605957 151.73489379882812" stroke-width="3.0" fill="none" stroke="rgb(0, 0, 0)" stroke-opacity="1.0" stroke-linecap="round" stroke-linejoin="round"/>
    <path d="M 96.88980865478516 152.64772033691406 C 101.20527648925781 161.1410675048828 114.59209442138672 152.41419982910156 103.7373046875 154.90504455566406" stroke-width="3.0" fill="none" stroke="rgb(0, 0, 0)" stroke-opacity="1.0" stroke-linecap="round" stroke-linejoin="round"/>
    <path d="M 82.03648376464844 197.249267578125 C 68.38896942138672 200.46246337890625 52.93217849731445 176.4412078857422 48.84587860107422 173.1396026611328" stroke-width="3.0" fill="none" stroke="rgb(0, 0, 0)" stroke-opacity="1.0" stroke-linecap="round" stroke-linejoin="round"/>
    <path d="M 45.70484924316406 166.3197021484375 C 58.74235153198242 193.03392028808594 43.951778411865234 163.8318634033203 37.46929931640625 144.89344787597656" stroke-width="3.0" fill="none" stroke="rgb(0, 0, 0)" stroke-opacity="1.0" stroke-linecap="round" stroke-linejoin="round"/>
    <path d="M 82.3459701538086 53.02224349975586 C 56.987728118896484 56.02183151245117 49.10718536376953 72.2454833984375 32.64655685424805 107.06526947021484" stroke-width="3.0" fill="none" stroke="rgb(0, 0, 0)" stroke-opacity="1.0" stroke-linecap="round" stroke-linejoin="round"/>
    <path d="M 147.2999267578125 141.4984130859375 C 127.47925567626953 158.6484832763672 120.1548843383789 151.0295867919922 129.73699951171875 153.82943725585938" stroke-width="3.0" fill="none" stroke="rgb(0, 0, 0)" stroke-opacity="1.0" stroke-linecap="round" stroke-linejoin="round"/>
    <path d="M 138.1127471923828 32.17820358276367 C 147.08018493652344 61.320133209228516 136.48255920410156 54.43560791015625 137.27984619140625 78.48849487304688" stroke-width="3.0" fill="none" stroke="rgb(0, 0, 0)" stroke-opacity="1.0" stroke-linecap="round" stroke-linejoin="round"/>
    <path d="M 146.1388397216797 99.65492248535156 C 117.39923858642578 110.97467803955078 138.51524353027344 108.11396026611328 137.37640380859375 104.16537475585938" stroke-width="3.0" fill="none" stroke="rgb(0, 0, 0)" stroke-opacity="1.0" stroke-linecap="round" stroke-linejoin="round"/>
    <path d="M 137.05470275878906 75.4255599975586 C 145.26766967773438 57.14706802368164 132.679443359375 60.854835510253906 136.07447814941406 73.5617446899414" stroke-width="3.0" fill="none" stroke="rgb(0, 0, 0)" stroke-opacity="1.0" stroke-linecap="round" stroke-linejoin="round"/>
    <path d="M 135.65740966796875 175.6337890625 C 125.581298828125 185.71351623535156 137.9290313720703 178.95651245117188 143.7017364501953 149.93679809570312" stroke-width="3.0" fill="none" stroke="rgb(0, 0, 0)" stroke-opacity="1.0" stroke-linecap="round" stroke-linejoin="round"/>
    <path d="M 194.44154357910156 96.5317153930664 C 169.39991760253906 74.00199127197266 156.5119171142578 82.6756591796875 181.7948455810547 88.19644927978516" stroke-width="3.0" fill="none" stroke="rgb(0, 0, 0)" stroke-opacity="1.0" stroke-linecap="round" stroke-linejoin="round"/>
    <path d="M 150.3626251220703 79.54393768310547 C 161.16883850097656 63.28057861328125 199.5459747314453 82.05167388916016 179.0813751220703 65.93256378173828" stroke-width="3.0" fill="none" stroke="rgb(0, 0, 0)" stroke-opacity="1.0" stroke-linecap="round" stroke-linejoin="round"/>
    <path d="M 113.24580383300781 83.88050842285156 C 82.32505798339844 76.83794403076172 137.08164978027344 73.01998138427734 110.65808868408203 82.10157775878906" stroke-width="3.0" fill="none" stroke="rgb(0, 0, 0)" stroke-opacity="1.0" stroke-linecap="round" stroke-linejoin="round"/>
    <path d="M 154.19296264648438 138.44131469726562 C 133.59759521484375 170.0927276611328 110.31605529785156 146.0169677734375 99.48193359375 159.55606079101562" stroke-width="3.0" fill="none" stroke="rgb(0, 0, 0)" stroke-opacity="1.0" stroke-linecap="round" stroke-linejoin="round"/>
    <path d="M 124.93002319335938 89.48046875 C 144.25885009765625 101.95494079589844 133.1231689453125 74.21227264404297 128.5951385498047 105.9203872680664" stroke-width="3.0" fill="none" stroke="rgb(0, 0, 0)" stroke-opacity="1.0" stroke-linecap="round" stroke-linejoin="round"/>
    <path d="M 191.4724884033203 111.87907409667969 C 178.96304321289062 82.93639373779297 187.79360961914062 93.71183013916016 140.5760498046875 85.01996612548828" stroke-width="3.0" fill="none" stroke="rgb(0, 0, 0)" stroke-opacity="1.0" stroke-linecap="round" stroke-linejoin="round"/>
    <path d="M 85.67854309082031 8.00571060180664 C 100.87411499023438 13.842061042785645 114.63680267333984 33.330928802490234 117.92932891845703 31.260595321655273" stroke-width="3.0" fill="none" stroke="rgb(0, 0, 0)" stroke-opacity="1.0" stroke-linecap="round" stroke-linejoin="round"/>
    <path d="M 60.09642791748047 125.2224349975586 C 54.94506072998047 115.46427917480469 61.75836181640625 134.6807403564453 56.78287887573242 123.07955169677734" stroke-width="3.0" fill="none" stroke="rgb(0, 0, 0)" stroke-opacity="1.0" stroke-linecap="round" stroke-linejoin="round"/>
    <path d="M 136.77149963378906 106.15625762939453 C 119.5896987915039 94.79546356201172 122.84329223632812 115.65739440917969 115.27606964111328 89.8843994140625" stroke-width="3.0" fill="none" stroke="rgb(0, 0, 0)" stroke-opacity="1.0" stroke-linecap="round" stroke-linejoin="round"/>
    <path d="M 31.510202407836914 131.6034393310547 C 26.046079635620117 107.41647338867188 36.813682556152344 107.96119689941406 41.087615966796875 94.76705932617188" stroke-width="3.0" fill="none" stroke="rgb(0, 0, 0)" stroke-opacity="1.0" stroke-linecap="round" stroke-linejoin="round"/>
    <path d="M 81.07402038574219 197.89334106445312 C 70.44944763183594 196.20184326171875 67.1898193359375 194.45120239257812 93.13829803466797 197.9591064453125" stroke-width="3.0" fill="none" stroke="rgb(0, 0, 0)" stroke-opacity="1.0" stroke-linecap="round" stroke-linejoin="round"/>
    <path d="M 156.10189819335938 135.43466186523438 C 206.70713806152344 115.84929656982422 181.0487060546875 96.8433837890625 153.55917358398438 91.19828033447266" stroke-width="3.0" fill="none" stroke="rgb(0, 0, 0)" stroke-opacity="1.0" stroke-linecap="round" stroke-linejoin="round"/>
    <path d="M 157.95469665527344 73.24357604980469 C 124.11112976074219 84.0517578125 177.66586303710938 82.51728057861328 149.53219604492188 68.53784942626953" stroke-width="3.0" fill="none" stroke="rgb(0, 0, 0)" stroke-opacity="1.0" stroke-linecap="round" stroke-linejoin="round"/>
    <path d="M 140.3061065673828 80.44253540039062 C 147.70806884765625 41.317222595214844 193.64016723632812 112.04524993896484 179.86276245117188 43.79806137084961" stroke-width="3.0" fill="none" stroke="rgb(0, 0, 0)" stroke-opacity="1.0" stroke-linecap="round" stroke-linejoin="round"/>
    <path d="M 157.117919921875 99.26332092285156 C 167.19667053222656 103.20195007324219 168.07164001464844 105.59513854980469 182.81961059570312 116.3839340209961" stroke-width="3.0" fill="none" stroke="rgb(0, 0, 0)" stroke-opacity="1.0" stroke-linecap="round" stroke-linejoin="round"/>
    <path d="M 176.52696228027344 17.625938415527344 C 171.86549377441406 44.25025939941406 177.34751892089844 22.944198608398438 160.49159240722656 37.62430953979492" stroke-width="3.0" fill="none" stroke="rgb(0, 0, 0)" stroke-opacity="1.0" stroke-linecap="round" stroke-linejoin="round"/>
    <path d="M 120.89608001708984 102.17057037353516 C 144.13653564453125 104.0742416381836 130.6244659423828 115.79949188232422 119.52318572998047 104.09918212890625" stroke-width="3.0" fill="none" stroke="rgb(0, 0, 0)" stroke-opacity="1.0" stroke-linecap="round" stroke-linejoin="round"/>
    <path d="M 70.93990325927734 133.58424377441406 C 43.81240463256836 123.41545104980469 57.14018249511719 110.69005584716797 59.494659423828125 126.37529754638672" stroke-width="3.0" fill="none" stroke="rgb(0, 0, 0)" stroke-opacity="1.0" stroke-linecap="round" stroke-linejoin="round"/>
    <path d="M 122.56116485595703 77.88191223144531 C 126.39898681640625 35.47792053222656 119.22734069824219 55.68211364746094 123.1822280883789 31.769378662109375" stroke-width="3.0" fill="none" stroke="rgb(0, 0, 0)" stroke-opacity="1.0" stroke-linecap="round" stroke-linejoin="round"/>
    <path d="M 148.733154296875 33.9180793762207 C 145.90924072265625 40.823143005371094 158.37937927246094 10.262786865234375 178.6743927001953 9.815929412841797" stroke-width="3.0" fill="none" stroke="rgb(0, 0, 0)" stroke-opacity="1.0" stroke-linecap="round" stroke-linejoin="round"/>
  </g>
</svg>
