<?xml version="1.0" ?>
<svg xmlns="http://www.w3.org/2000/svg" version="1.1" width="224" height="224">
  <defs/>
  <g>
    <path d="M 58.10085678100586 114.4893798828125 C 50.87156295776367 119.54210662841797 53.8764762878418 100.84381866455078 44.902931213378906 85.94854736328125" stroke-width="3.0" fill="none" stroke="rgb(0, 0, 0)" stroke-opacity="1.0" stroke-linecap="round" stroke-linejoin="round"/>
    <path d="M 184.3174285888672 123.13842010498047 C 178.36672973632812 104.59091186523438 183.91432189941406 116.11766052246094 181.933837890625 120.66090393066406" stroke-width="3.0" fill="none" stroke="rgb(0, 0, 0)" stroke-opacity="1.0" stroke-linecap="round" stroke-linejoin="round"/>
    <path d="M 52.91404342651367 104.58197784423828 C 54.56168746948242 116.70807647705078 52.90802001953125 109.01358795166016 58.054012298583984 112.95388793945312" stroke-width="3.0" fill="none" stroke="rgb(0, 0, 0)" stroke-opacity="1.0" stroke-linecap="round" stroke-linejoin="round"/>
    <path d="M 184.35743713378906 91.92401885986328 C 156.77134704589844 84.69334411621094 172.8540496826172 83.3134994506836 196.02035522460938 112.53007507324219" stroke-width="3.0" fill="none" stroke="rgb(0, 0, 0)" stroke-opacity="1.0" stroke-linecap="round" stroke-linejoin="round"/>
    <path d="M 182.44192504882812 72.78097534179688 C 177.4352264404297 96.06596374511719 186.78469848632812 93.01192474365234 182.2229461669922 59.92414474487305" stroke-width="3.0" fill="none" stroke="rgb(0, 0, 0)" stroke-opacity="1.0" stroke-linecap="round" stroke-linejoin="round"/>
    <path d="M 126.04759979248047 103.85167694091797 C 149.70339965820312 98.28362274169922 105.70391082763672 98.73954010009766 135.17662048339844 102.62174224853516" stroke-width="3.0" fill="none" stroke="rgb(0, 0, 0)" stroke-opacity="1.0" stroke-linecap="round" stroke-linejoin="round"/>
    <path d="M 166.69334411621094 97.70174407958984 C 204.7201385498047 81.30426788330078 174.77047729492188 70.06623077392578 157.59146118164062 83.24232482910156" stroke-width="3.0" fill="none" stroke="rgb(0, 0, 0)" stroke-opacity="1.0" stroke-linecap="round" stroke-linejoin="round"/>
    <path d="M 55.933773040771484 183.44003295898438 C 37.608497619628906 157.13465881347656 47.40025329589844 161.52452087402344 44.39038848876953 164.55166625976562" stroke-width="3.0" fill="none" stroke="rgb(0, 0, 0)" stroke-opacity="1.0" stroke-linecap="round" stroke-linejoin="round"/>
    <path d="M 60.68922424316406 187.05618286132812 C 88.0927734375 207.98670959472656 107.38008117675781 198.0299530029297 126.36849975585938 186.0418701171875" stroke-width="3.0" fill="none" stroke="rgb(0, 0, 0)" stroke-opacity="1.0" stroke-linecap="round" stroke-linejoin="round"/>
    <path d="M 85.67598724365234 39.505271911621094 C 93.5695571899414 59.733802795410156 83.61016845703125 22.445646286010742 86.11164093017578 55.34074401855469" stroke-width="3.0" fill="none" stroke="rgb(0, 0, 0)" stroke-opacity="1.0" stroke-linecap="round" stroke-linejoin="round"/>
    <path d="M 63.3770751953125 124.06356048583984 C 51.93867492675781 136.6711883544922 96.32085418701172 156.97802734375 95.41294860839844 153.49314880371094" stroke-width="3.0" fill="none" stroke="rgb(0, 0, 0)" stroke-opacity="1.0" stroke-linecap="round" stroke-linejoin="round"/>
    <path d="M 145.53878784179688 68.2014389038086 C 211.57257080078125 67.5006103515625 183.41488647460938 80.2145767211914 146.94879150390625 83.49137115478516" stroke-width="3.0" fill="none" stroke="rgb(0, 0, 0)" stroke-opacity="1.0" stroke-linecap="round" stroke-linejoin="round"/>
    <path d="M 149.8414764404297 93.3387680053711 C 180.20858764648438 99.52164459228516 182.03311157226562 98.58244323730469 189.2320098876953 113.7193832397461" stroke-width="3.0" fill="none" stroke="rgb(0, 0, 0)" stroke-opacity="1.0" stroke-linecap="round" stroke-linejoin="round"/>
    <path d="M 106.36553192138672 156.64151000976562 C 142.92642211914062 146.6235809326172 113.26870727539062 159.8845977783203 124.75491333007812 152.30337524414062" stroke-width="3.0" fill="none" stroke="rgb(0, 0, 0)" stroke-opacity="1.0" stroke-linecap="round" stroke-linejoin="round"/>
    <path d="M 175.3172607421875 8.722771644592285 C 191.6015167236328 2.964566230773926 174.4923858642578 61.009361267089844 181.13339233398438 54.7666130065918" stroke-width="3.0" fill="none" stroke="rgb(0, 0, 0)" stroke-opacity="1.0" stroke-linecap="round" stroke-linejoin="round"/>
    <path d="M 132.7148895263672 30.879745483398438 C 123.6236572265625 58.301109313964844 135.52720642089844 35.568050384521484 125.50437927246094 72.33391571044922" stroke-width="3.0" fill="none" stroke="rgb(0, 0, 0)" stroke-opacity="1.0" stroke-linecap="round" stroke-linejoin="round"/>
    <path d="M 89.57257843017578 49.205142974853516 C 72.97151947021484 -4.433064937591553 86.21345520019531 -1.0537391901016235 110.88741302490234 36.353599548339844" stroke-width="3.0" fill="none" stroke="rgb(0, 0, 0)" stroke-opacity="1.0" stroke-linecap="round" stroke-linejoin="round"/>
    <path d="M 43.823036193847656 161.7158203125 C 41.30439376831055 155.2078094482422 36.58783721923828 148.22137451171875 40.31372833251953 151.6352996826172" stroke-width="3.0" fill="none" stroke="rgb(0, 0, 0)" stroke-opacity="1.0" stroke-linecap="round" stroke-linejoin="round"/>
    <path d="M 35.233375549316406 101.59629821777344 C 23.148109436035156 128.3401641845703 37.539955139160156 140.9292449951172 41.403629302978516 156.0840606689453" stroke-width="3.0" fill="none" stroke="rgb(0, 0, 0)" stroke-opacity="1.0" stroke-linecap="round" stroke-linejoin="round"/>
    <path d="M 87.09905242919922 148.60104370117188 C 99.01579284667969 165.4735565185547 113.11920166015625 147.03639221191406 106.63912963867188 160.06256103515625" stroke-width="3.0" fill="none" stroke="rgb(0, 0, 0)" stroke-opacity="1.0" stroke-linecap="round" stroke-linejoin="round"/>
    <path d="M 77.36642456054688 196.76515197753906 C 56.81352996826172 190.77346801757812 57.792930603027344 180.736328125 48.27617263793945 173.4420928955078" stroke-width="3.0" fill="none" stroke="rgb(0, 0, 0)" stroke-opacity="1.0" stroke-linecap="round" stroke-linejoin="round"/>
    <path d="M 46.12006759643555 165.5111083984375 C 60.427040100097656 191.5017547607422 40.94752502441406 166.4895477294922 41.15850067138672 154.14678955078125" stroke-width="3.0" fill="none" stroke="rgb(0, 0, 0)" stroke-opacity="1.0" stroke-linecap="round" stroke-linejoin="round"/>
    <path d="M 81.62434387207031 51.17911911010742 C 54.983985900878906 58.474266052246094 51.73442077636719 72.40064239501953 32.6547966003418 107.49215698242188" stroke-width="3.0" fill="none" stroke="rgb(0, 0, 0)" stroke-opacity="1.0" stroke-linecap="round" stroke-linejoin="round"/>
    <path d="M 153.48045349121094 141.64901733398438 C 138.8079071044922 160.8526153564453 120.6424331665039 153.61830139160156 132.25396728515625 153.42372131347656" stroke-width="3.0" fill="none" stroke="rgb(0, 0, 0)" stroke-opacity="1.0" stroke-linecap="round" stroke-linejoin="round"/>
    <path d="M 140.469970703125 30.722557067871094 C 145.3091278076172 62.690975189208984 131.7138671875 58.58027648925781 136.11135864257812 73.30276489257812" stroke-width="3.0" fill="none" stroke="rgb(0, 0, 0)" stroke-opacity="1.0" stroke-linecap="round" stroke-linejoin="round"/>
    <path d="M 146.4591064453125 97.59062957763672 C 120.48391723632812 108.97797393798828 128.92337036132812 110.23649597167969 135.54904174804688 101.94951629638672" stroke-width="3.0" fill="none" stroke="rgb(0, 0, 0)" stroke-opacity="1.0" stroke-linecap="round" stroke-linejoin="round"/>
    <path d="M 136.2667236328125 76.21078491210938 C 142.75999450683594 52.985408782958984 136.10272216796875 63.112281799316406 136.75294494628906 69.41509246826172" stroke-width="3.0" fill="none" stroke="rgb(0, 0, 0)" stroke-opacity="1.0" stroke-linecap="round" stroke-linejoin="round"/>
    <path d="M 132.06028747558594 181.23553466796875 C 115.05374908447266 191.72303771972656 138.20062255859375 187.58050537109375 146.71444702148438 150.25013732910156" stroke-width="3.0" fill="none" stroke="rgb(0, 0, 0)" stroke-opacity="1.0" stroke-linecap="round" stroke-linejoin="round"/>
    <path d="M 194.9940643310547 93.16498565673828 C 171.6917266845703 75.36080932617188 148.26971435546875 82.60496520996094 183.6666259765625 80.5406265258789" stroke-width="3.0" fill="none" stroke="rgb(0, 0, 0)" stroke-opacity="1.0" stroke-linecap="round" stroke-linejoin="round"/>
    <path d="M 147.2456817626953 76.58015441894531 C 166.05838012695312 58.91685485839844 197.7440185546875 78.39848327636719 179.11761474609375 63.90866470336914" stroke-width="3.0" fill="none" stroke="rgb(0, 0, 0)" stroke-opacity="1.0" stroke-linecap="round" stroke-linejoin="round"/>
    <path d="M 108.65900421142578 80.06659698486328 C 90.20818328857422 72.92532348632812 135.95387268066406 78.54953002929688 105.9268569946289 82.95411682128906" stroke-width="3.0" fill="none" stroke="rgb(0, 0, 0)" stroke-opacity="1.0" stroke-linecap="round" stroke-linejoin="round"/>
    <path d="M 153.0369110107422 142.83314514160156 C 134.76181030273438 158.47360229492188 122.70825958251953 148.3881072998047 98.52093505859375 154.40237426757812" stroke-width="3.0" fill="none" stroke="rgb(0, 0, 0)" stroke-opacity="1.0" stroke-linecap="round" stroke-linejoin="round"/>
    <path d="M 125.5277328491211 87.6185302734375 C 140.86688232421875 98.74735260009766 131.5630340576172 72.89107513427734 128.4701690673828 103.998291015625" stroke-width="3.0" fill="none" stroke="rgb(0, 0, 0)" stroke-opacity="1.0" stroke-linecap="round" stroke-linejoin="round"/>
    <path d="M 186.2665557861328 113.52058410644531 C 177.1287384033203 74.91004943847656 185.8154754638672 91.56005096435547 140.57644653320312 81.93997192382812" stroke-width="3.0" fill="none" stroke="rgb(0, 0, 0)" stroke-opacity="1.0" stroke-linecap="round" stroke-linejoin="round"/>
    <path d="M 86.91437530517578 9.319446563720703 C 110.83856964111328 13.903733253479004 116.25872802734375 35.21678924560547 123.86419677734375 30.2845516204834" stroke-width="3.0" fill="none" stroke="rgb(0, 0, 0)" stroke-opacity="1.0" stroke-linecap="round" stroke-linejoin="round"/>
    <path d="M 58.05757522583008 120.1533203125 C 51.06155776977539 107.4677734375 64.37553405761719 118.33577728271484 56.103816986083984 111.94364166259766" stroke-width="3.0" fill="none" stroke="rgb(0, 0, 0)" stroke-opacity="1.0" stroke-linecap="round" stroke-linejoin="round"/>
    <path d="M 131.44482421875 106.99092864990234 C 107.27191925048828 96.56700897216797 116.41856384277344 113.68742370605469 109.16683197021484 88.21854400634766" stroke-width="3.0" fill="none" stroke="rgb(0, 0, 0)" stroke-opacity="1.0" stroke-linecap="round" stroke-linejoin="round"/>
    <path d="M 31.44779396057129 131.3985137939453 C 29.421903610229492 115.63585662841797 34.739227294921875 102.2195053100586 31.352371215820312 111.21398162841797" stroke-width="3.0" fill="none" stroke="rgb(0, 0, 0)" stroke-opacity="1.0" stroke-linecap="round" stroke-linejoin="round"/>
    <path d="M 77.46670532226562 197.26162719726562 C 77.68888854980469 194.70655822753906 72.57023620605469 201.1051788330078 97.02169799804688 199.30665588378906" stroke-width="3.0" fill="none" stroke="rgb(0, 0, 0)" stroke-opacity="1.0" stroke-linecap="round" stroke-linejoin="round"/>
    <path d="M 150.7249298095703 141.85568237304688 C 208.89907836914062 114.71941375732422 181.22421264648438 93.5051040649414 151.70388793945312 88.54022979736328" stroke-width="3.0" fill="none" stroke="rgb(0, 0, 0)" stroke-opacity="1.0" stroke-linecap="round" stroke-linejoin="round"/>
    <path d="M 157.89413452148438 68.9150161743164 C 126.16354370117188 78.2113265991211 173.52288818359375 82.48372650146484 147.69374084472656 68.45106506347656" stroke-width="3.0" fill="none" stroke="rgb(0, 0, 0)" stroke-opacity="1.0" stroke-linecap="round" stroke-linejoin="round"/>
    <path d="M 142.328857421875 74.93419647216797 C 145.05984497070312 43.24484634399414 199.87245178222656 102.62823486328125 178.3655548095703 50.84539794921875" stroke-width="3.0" fill="none" stroke="rgb(0, 0, 0)" stroke-opacity="1.0" stroke-linecap="round" stroke-linejoin="round"/>
    <path d="M 156.22230529785156 95.03398132324219 C 167.35903930664062 100.75357818603516 181.06092834472656 101.91424560546875 185.50559997558594 115.40204620361328" stroke-width="3.0" fill="none" stroke="rgb(0, 0, 0)" stroke-opacity="1.0" stroke-linecap="round" stroke-linejoin="round"/>
    <path d="M 178.18861389160156 13.124200820922852 C 172.4272918701172 42.604652404785156 176.41067504882812 21.477588653564453 160.29676818847656 41.600711822509766" stroke-width="3.0" fill="none" stroke="rgb(0, 0, 0)" stroke-opacity="1.0" stroke-linecap="round" stroke-linejoin="round"/>
    <path d="M 116.74154663085938 101.35800170898438 C 143.6055145263672 102.68916320800781 126.48751831054688 115.66193389892578 112.36346435546875 98.073974609375" stroke-width="3.0" fill="none" stroke="rgb(0, 0, 0)" stroke-opacity="1.0" stroke-linecap="round" stroke-linejoin="round"/>
    <path d="M 59.35322570800781 113.79576110839844 C 53.667236328125 105.43389892578125 48.2548942565918 106.82593536376953 62.7894287109375 128.10630798339844" stroke-width="3.0" fill="none" stroke="rgb(0, 0, 0)" stroke-opacity="1.0" stroke-linecap="round" stroke-linejoin="round"/>
    <path d="M 123.34451293945312 78.51559448242188 C 129.9679412841797 39.64863204956055 119.80772399902344 51.913875579833984 122.8663558959961 32.39227294921875" stroke-width="3.0" fill="none" stroke="rgb(0, 0, 0)" stroke-opacity="1.0" stroke-linecap="round" stroke-linejoin="round"/>
    <path d="M 145.072021484375 29.995349884033203 C 145.04891967773438 36.27895736694336 153.82200622558594 12.864813804626465 178.6511688232422 7.438601493835449" stroke-width="3.0" fill="none" stroke="rgb(0, 0, 0)" stroke-opacity="1.0" stroke-linecap="round" stroke-linejoin="round"/>
  </g>
</svg>
