<?xml version="1.0" ?>
<svg xmlns="http://www.w3.org/2000/svg" version="1.1" width="224" height="224">
  <defs/>
  <g>
    <path d="M 50.42799758911133 100.61325073242188 C 53.1811637878418 103.85444641113281 51.34744644165039 101.47758483886719 42.91303253173828 81.23780059814453" stroke-width="3.0" fill="none" stroke="rgb(0, 0, 0)" stroke-opacity="1.0" stroke-linecap="round" stroke-linejoin="round"/>
    <path d="M 185.6886749267578 122.1352310180664 C 182.15963745117188 105.68991088867188 191.2196807861328 101.43512725830078 179.18637084960938 128.48101806640625" stroke-width="3.0" fill="none" stroke="rgb(0, 0, 0)" stroke-opacity="1.0" stroke-linecap="round" stroke-linejoin="round"/>
    <path d="M 57.14149475097656 118.12252807617188 C 54.98916244506836 110.77111053466797 54.22079849243164 111.8470230102539 64.33802795410156 124.71239471435547" stroke-width="3.0" fill="none" stroke="rgb(0, 0, 0)" stroke-opacity="1.0" stroke-linecap="round" stroke-linejoin="round"/>
    <path d="M 182.3004150390625 97.33870697021484 C 151.0177001953125 87.17585754394531 176.20108032226562 79.02364349365234 194.69068908691406 113.74703216552734" stroke-width="3.0" fill="none" stroke="rgb(0, 0, 0)" stroke-opacity="1.0" stroke-linecap="round" stroke-linejoin="round"/>
    <path d="M 180.61343383789062 71.4637222290039 C 173.01687622070312 98.79936981201172 184.59576416015625 93.06575775146484 180.71426391601562 58.596248626708984" stroke-width="3.0" fill="none" stroke="rgb(0, 0, 0)" stroke-opacity="1.0" stroke-linecap="round" stroke-linejoin="round"/>
    <path d="M 122.81160736083984 98.92771911621094 C 147.74330139160156 108.6495132446289 108.4900894165039 96.28752899169922 136.84129333496094 102.32080078125" stroke-width="3.0" fill="none" stroke="rgb(0, 0, 0)" stroke-opacity="1.0" stroke-linecap="round" stroke-linejoin="round"/>
    <path d="M 167.28134155273438 102.67268371582031 C 197.3671112060547 80.30387115478516 183.89796447753906 70.2394027709961 154.33242797851562 86.93633270263672" stroke-width="3.0" fill="none" stroke="rgb(0, 0, 0)" stroke-opacity="1.0" stroke-linecap="round" stroke-linejoin="round"/>
    <path d="M 56.429176330566406 183.94625854492188 C 38.247745513916016 155.13824462890625 48.94260787963867 163.7939453125 48.04363250732422 171.1035919189453" stroke-width="3.0" fill="none" stroke="rgb(0, 0, 0)" stroke-opacity="1.0" stroke-linecap="round" stroke-linejoin="round"/>
    <path d="M 57.02963638305664 182.76556396484375 C 87.30784606933594 211.27491760253906 116.6262435913086 199.08473205566406 132.18516540527344 178.3553924560547" stroke-width="3.0" fill="none" stroke="rgb(0, 0, 0)" stroke-opacity="1.0" stroke-linecap="round" stroke-linejoin="round"/>
    <path d="M 82.09490203857422 30.71566390991211 C 97.73573303222656 62.0007438659668 78.84639739990234 13.377187728881836 84.7892837524414 50.27001190185547" stroke-width="3.0" fill="none" stroke="rgb(0, 0, 0)" stroke-opacity="1.0" stroke-linecap="round" stroke-linejoin="round"/>
    <path d="M 61.139007568359375 116.84107971191406 C 53.8065071105957 135.14962768554688 106.8727798461914 150.90562438964844 98.87908172607422 152.63124084472656" stroke-width="3.0" fill="none" stroke="rgb(0, 0, 0)" stroke-opacity="1.0" stroke-linecap="round" stroke-linejoin="round"/>
    <path d="M 145.05625915527344 73.71189880371094 C 204.45297241210938 66.5244140625 184.94749450683594 85.01091003417969 147.4495391845703 86.74427795410156" stroke-width="3.0" fill="none" stroke="rgb(0, 0, 0)" stroke-opacity="1.0" stroke-linecap="round" stroke-linejoin="round"/>
    <path d="M 148.77870178222656 96.5361099243164 C 182.35516357421875 102.21070861816406 180.24717712402344 100.72319793701172 190.50823974609375 112.54741668701172" stroke-width="3.0" fill="none" stroke="rgb(0, 0, 0)" stroke-opacity="1.0" stroke-linecap="round" stroke-linejoin="round"/>
    <path d="M 113.46527862548828 155.16354370117188 C 145.17831420898438 144.50082397460938 115.48428344726562 155.05615234375 121.70745086669922 148.55039978027344" stroke-width="3.0" fill="none" stroke="rgb(0, 0, 0)" stroke-opacity="1.0" stroke-linecap="round" stroke-linejoin="round"/>
    <path d="M 175.88766479492188 7.37984561920166 C 189.92929077148438 5.828612327575684 173.0389862060547 59.67168426513672 179.2901611328125 51.90729904174805" stroke-width="3.0" fill="none" stroke="rgb(0, 0, 0)" stroke-opacity="1.0" stroke-linecap="round" stroke-linejoin="round"/>
    <path d="M 134.60403442382812 30.600811004638672 C 124.23287200927734 57.561641693115234 134.70596313476562 37.55574035644531 124.71390533447266 71.35762786865234" stroke-width="3.0" fill="none" stroke="rgb(0, 0, 0)" stroke-opacity="1.0" stroke-linecap="round" stroke-linejoin="round"/>
    <path d="M 87.07880401611328 44.83442306518555 C 76.40296936035156 -2.5720529556274414 87.0277328491211 0.927101194858551 106.79674530029297 35.43940353393555" stroke-width="3.0" fill="none" stroke="rgb(0, 0, 0)" stroke-opacity="1.0" stroke-linecap="round" stroke-linejoin="round"/>
    <path d="M 45.47933578491211 165.6313018798828 C 41.12901306152344 152.0956573486328 38.35906219482422 144.75173950195312 42.32425308227539 155.60305786132812" stroke-width="3.0" fill="none" stroke="rgb(0, 0, 0)" stroke-opacity="1.0" stroke-linecap="round" stroke-linejoin="round"/>
    <path d="M 31.63674545288086 100.90863800048828 C 23.27887535095215 124.63566589355469 37.24190139770508 144.34710693359375 41.500892639160156 152.76222229003906" stroke-width="3.0" fill="none" stroke="rgb(0, 0, 0)" stroke-opacity="1.0" stroke-linecap="round" stroke-linejoin="round"/>
    <path d="M 91.84423065185547 144.93301391601562 C 108.25458526611328 161.24317932128906 120.61478424072266 144.8826446533203 109.85617065429688 157.19439697265625" stroke-width="3.0" fill="none" stroke="rgb(0, 0, 0)" stroke-opacity="1.0" stroke-linecap="round" stroke-linejoin="round"/>
    <path d="M 78.86168670654297 197.28050231933594 C 63.562923431396484 196.04193115234375 55.31328201293945 179.85337829589844 50.01727294921875 175.10482788085938" stroke-width="3.0" fill="none" stroke="rgb(0, 0, 0)" stroke-opacity="1.0" stroke-linecap="round" stroke-linejoin="round"/>
    <path d="M 44.87550735473633 163.108154296875 C 58.51033401489258 192.79147338867188 44.964290618896484 162.37271118164062 40.43857192993164 152.7819061279297" stroke-width="3.0" fill="none" stroke="rgb(0, 0, 0)" stroke-opacity="1.0" stroke-linecap="round" stroke-linejoin="round"/>
    <path d="M 81.91389465332031 54.073455810546875 C 55.33533477783203 59.42047882080078 48.71584701538086 71.10218811035156 31.06980323791504 103.80304718017578" stroke-width="3.0" fill="none" stroke="rgb(0, 0, 0)" stroke-opacity="1.0" stroke-linecap="round" stroke-linejoin="round"/>
    <path d="M 149.6329345703125 140.59034729003906 C 131.5723419189453 156.62783813476562 117.58457946777344 148.56076049804688 130.1032257080078 152.21351623535156" stroke-width="3.0" fill="none" stroke="rgb(0, 0, 0)" stroke-opacity="1.0" stroke-linecap="round" stroke-linejoin="round"/>
    <path d="M 142.09994506835938 31.14096450805664 C 146.64048767089844 71.2777328491211 133.3115234375 54.301673889160156 136.64956665039062 75.11332702636719" stroke-width="3.0" fill="none" stroke="rgb(0, 0, 0)" stroke-opacity="1.0" stroke-linecap="round" stroke-linejoin="round"/>
    <path d="M 147.15890502929688 101.07764434814453 C 115.0674057006836 109.04551696777344 134.78768920898438 111.15457153320312 139.6893768310547 102.23011016845703" stroke-width="3.0" fill="none" stroke="rgb(0, 0, 0)" stroke-opacity="1.0" stroke-linecap="round" stroke-linejoin="round"/>
    <path d="M 136.67222595214844 72.15226745605469 C 144.2548370361328 57.792144775390625 134.70681762695312 64.50166320800781 137.58148193359375 68.26309204101562" stroke-width="3.0" fill="none" stroke="rgb(0, 0, 0)" stroke-opacity="1.0" stroke-linecap="round" stroke-linejoin="round"/>
    <path d="M 137.52633666992188 174.5131072998047 C 125.36653137207031 187.42295837402344 139.16293334960938 182.15769958496094 144.32887268066406 147.40419006347656" stroke-width="3.0" fill="none" stroke="rgb(0, 0, 0)" stroke-opacity="1.0" stroke-linecap="round" stroke-linejoin="round"/>
    <path d="M 192.75341796875 95.98063659667969 C 165.9512176513672 75.8887710571289 148.74575805664062 83.9835433959961 181.97361755371094 85.02388000488281" stroke-width="3.0" fill="none" stroke="rgb(0, 0, 0)" stroke-opacity="1.0" stroke-linecap="round" stroke-linejoin="round"/>
    <path d="M 147.21011352539062 78.18859100341797 C 160.86697387695312 64.71734619140625 199.79315185546875 78.35396575927734 176.74484252929688 63.790550231933594" stroke-width="3.0" fill="none" stroke="rgb(0, 0, 0)" stroke-opacity="1.0" stroke-linecap="round" stroke-linejoin="round"/>
    <path d="M 112.75933074951172 81.3585205078125 C 94.51309967041016 70.75663757324219 131.9828338623047 77.36077880859375 110.51561737060547 80.59223175048828" stroke-width="3.0" fill="none" stroke="rgb(0, 0, 0)" stroke-opacity="1.0" stroke-linecap="round" stroke-linejoin="round"/>
    <path d="M 149.73049926757812 141.5425262451172 C 138.91163635253906 161.366455078125 115.41696166992188 144.68954467773438 105.2991943359375 156.81930541992188" stroke-width="3.0" fill="none" stroke="rgb(0, 0, 0)" stroke-opacity="1.0" stroke-linecap="round" stroke-linejoin="round"/>
    <path d="M 123.11813354492188 89.14968872070312 C 142.2069549560547 98.55438232421875 131.39022827148438 73.92095184326172 128.35032653808594 104.69364166259766" stroke-width="3.0" fill="none" stroke="rgb(0, 0, 0)" stroke-opacity="1.0" stroke-linecap="round" stroke-linejoin="round"/>
    <path d="M 191.75936889648438 112.55722045898438 C 177.10299682617188 76.2527084350586 176.93817138671875 95.06472778320312 140.4115753173828 83.4612808227539" stroke-width="3.0" fill="none" stroke="rgb(0, 0, 0)" stroke-opacity="1.0" stroke-linecap="round" stroke-linejoin="round"/>
    <path d="M 84.06341552734375 7.413765907287598 C 105.71249389648438 15.00869083404541 112.91346740722656 34.783721923828125 120.63245391845703 30.32391357421875" stroke-width="3.0" fill="none" stroke="rgb(0, 0, 0)" stroke-opacity="1.0" stroke-linecap="round" stroke-linejoin="round"/>
    <path d="M 60.37767791748047 121.21344757080078 C 55.4345588684082 114.39484405517578 68.73770141601562 132.46380615234375 59.663719177246094 122.13197326660156" stroke-width="3.0" fill="none" stroke="rgb(0, 0, 0)" stroke-opacity="1.0" stroke-linecap="round" stroke-linejoin="round"/>
    <path d="M 138.93661499023438 102.98479461669922 C 123.48831939697266 98.6859359741211 123.61758422851562 119.23717498779297 113.35155487060547 93.3159408569336" stroke-width="3.0" fill="none" stroke="rgb(0, 0, 0)" stroke-opacity="1.0" stroke-linecap="round" stroke-linejoin="round"/>
    <path d="M 31.357707977294922 131.75119018554688 C 27.541318893432617 116.84723663330078 34.063655853271484 100.10640716552734 30.322834014892578 105.25690460205078" stroke-width="3.0" fill="none" stroke="rgb(0, 0, 0)" stroke-opacity="1.0" stroke-linecap="round" stroke-linejoin="round"/>
    <path d="M 78.83275604248047 197.8444366455078 C 73.02543640136719 193.8618621826172 66.80158996582031 199.1719970703125 93.30945587158203 199.5274658203125" stroke-width="3.0" fill="none" stroke="rgb(0, 0, 0)" stroke-opacity="1.0" stroke-linecap="round" stroke-linejoin="round"/>
    <path d="M 151.00405883789062 140.7545928955078 C 208.3332977294922 113.61087036132812 181.1676788330078 97.39768981933594 152.45152282714844 92.12892150878906" stroke-width="3.0" fill="none" stroke="rgb(0, 0, 0)" stroke-opacity="1.0" stroke-linecap="round" stroke-linejoin="round"/>
    <path d="M 158.0222930908203 70.69464111328125 C 123.7226791381836 82.06232452392578 172.7108917236328 85.79375457763672 145.3499298095703 70.04322052001953" stroke-width="3.0" fill="none" stroke="rgb(0, 0, 0)" stroke-opacity="1.0" stroke-linecap="round" stroke-linejoin="round"/>
    <path d="M 140.86074829101562 79.01176452636719 C 148.55184936523438 43.61682891845703 192.86972045898438 107.77047729492188 175.8587188720703 46.9703254699707" stroke-width="3.0" fill="none" stroke="rgb(0, 0, 0)" stroke-opacity="1.0" stroke-linecap="round" stroke-linejoin="round"/>
    <path d="M 160.3601531982422 99.70075988769531 C 164.6359405517578 103.5412826538086 177.46426391601562 103.37952423095703 184.20384216308594 115.90357208251953" stroke-width="3.0" fill="none" stroke="rgb(0, 0, 0)" stroke-opacity="1.0" stroke-linecap="round" stroke-linejoin="round"/>
    <path d="M 178.78085327148438 18.28915786743164 C 172.9879150390625 44.47089385986328 175.22637939453125 22.563308715820312 161.1012420654297 39.880279541015625" stroke-width="3.0" fill="none" stroke="rgb(0, 0, 0)" stroke-opacity="1.0" stroke-linecap="round" stroke-linejoin="round"/>
    <path d="M 118.2607192993164 103.69996643066406 C 138.29408264160156 104.1331787109375 132.32933044433594 111.48123931884766 113.89678955078125 95.57049560546875" stroke-width="3.0" fill="none" stroke="rgb(0, 0, 0)" stroke-opacity="1.0" stroke-linecap="round" stroke-linejoin="round"/>
    <path d="M 62.933563232421875 125.24053955078125 C 47.75889587402344 100.46540832519531 49.78248596191406 111.54005432128906 63.57777404785156 122.30256652832031" stroke-width="3.0" fill="none" stroke="rgb(0, 0, 0)" stroke-opacity="1.0" stroke-linecap="round" stroke-linejoin="round"/>
    <path d="M 121.80697631835938 77.03990936279297 C 128.96766662597656 38.4906005859375 117.27262878417969 53.134029388427734 125.78365325927734 31.07918357849121" stroke-width="3.0" fill="none" stroke="rgb(0, 0, 0)" stroke-opacity="1.0" stroke-linecap="round" stroke-linejoin="round"/>
    <path d="M 144.49729919433594 32.842350006103516 C 144.11517333984375 38.35289001464844 157.02664184570312 9.781953811645508 179.8811492919922 8.775456428527832" stroke-width="3.0" fill="none" stroke="rgb(0, 0, 0)" stroke-opacity="1.0" stroke-linecap="round" stroke-linejoin="round"/>
  </g>
</svg>
