<?xml version="1.0" ?>
<svg xmlns="http://www.w3.org/2000/svg" version="1.1" width="224" height="224">
  <defs/>
  <g>
    <path d="M 57.161014556884766 96.79071807861328 C 58.479434967041016 94.70404052734375 50.7614860534668 89.72493743896484 63.20375061035156 64.5235366821289" stroke-width="3.0" fill="none" stroke="rgb(0, 0, 0)" stroke-opacity="1.0" stroke-linecap="round" stroke-linejoin="round"/>
    <path d="M 196.91343688964844 114.81928253173828 C 183.40895080566406 109.98458862304688 182.59115600585938 98.88023376464844 182.5368194580078 126.0566177368164" stroke-width="3.0" fill="none" stroke="rgb(0, 0, 0)" stroke-opacity="1.0" stroke-linecap="round" stroke-linejoin="round"/>
    <path d="M 59.71405792236328 121.9892807006836 C 64.46966552734375 82.32464599609375 52.274227142333984 119.74908447265625 58.02922058105469 125.61131286621094" stroke-width="3.0" fill="none" stroke="rgb(0, 0, 0)" stroke-opacity="1.0" stroke-linecap="round" stroke-linejoin="round"/>
    <path d="M 188.81626892089844 94.41493225097656 C 143.3236846923828 72.51278686523438 187.2192840576172 77.34284973144531 191.9508819580078 101.20169830322266" stroke-width="3.0" fill="none" stroke="rgb(0, 0, 0)" stroke-opacity="1.0" stroke-linecap="round" stroke-linejoin="round"/>
    <path d="M 176.5837860107422 45.34630584716797 C 193.20216369628906 91.9052505493164 172.76974487304688 110.39689636230469 181.20928955078125 69.45457458496094" stroke-width="3.0" fill="none" stroke="rgb(0, 0, 0)" stroke-opacity="1.0" stroke-linecap="round" stroke-linejoin="round"/>
    <path d="M 127.96350860595703 102.03530883789062 C 148.91485595703125 121.66471862792969 96.69725799560547 99.05164337158203 134.5703887939453 102.00342559814453" stroke-width="3.0" fill="none" stroke="rgb(0, 0, 0)" stroke-opacity="1.0" stroke-linecap="round" stroke-linejoin="round"/>
    <path d="M 181.09896850585938 85.91673278808594 C 178.826171875 80.94441223144531 197.06210327148438 72.61724090576172 149.35836791992188 86.4705810546875" stroke-width="3.0" fill="none" stroke="rgb(0, 0, 0)" stroke-opacity="1.0" stroke-linecap="round" stroke-linejoin="round"/>
    <path d="M 66.16297149658203 189.89251708984375 C 43.262107849121094 165.91903686523438 53.832923889160156 163.2548828125 47.188228607177734 170.87147521972656" stroke-width="3.0" fill="none" stroke="rgb(0, 0, 0)" stroke-opacity="1.0" stroke-linecap="round" stroke-linejoin="round"/>
    <path d="M 61.13570022583008 184.6419677734375 C 86.32695770263672 208.7401580810547 138.4984893798828 196.0377960205078 140.7919158935547 165.47695922851562" stroke-width="3.0" fill="none" stroke="rgb(0, 0, 0)" stroke-opacity="1.0" stroke-linecap="round" stroke-linejoin="round"/>
    <path d="M 80.39503479003906 11.97616958618164 C 94.55953216552734 79.86001586914062 85.16500854492188 11.399847030639648 85.7236557006836 54.01294708251953" stroke-width="3.0" fill="none" stroke="rgb(0, 0, 0)" stroke-opacity="1.0" stroke-linecap="round" stroke-linejoin="round"/>
    <path d="M 58.271087646484375 89.7180404663086 C 51.48591232299805 136.6424102783203 71.02383422851562 132.8477783203125 57.234954833984375 121.2842025756836" stroke-width="3.0" fill="none" stroke="rgb(0, 0, 0)" stroke-opacity="1.0" stroke-linecap="round" stroke-linejoin="round"/>
    <path d="M 147.20338439941406 73.59791564941406 C 202.03062438964844 59.91573715209961 194.72955322265625 88.56875610351562 141.25172424316406 84.2961654663086" stroke-width="3.0" fill="none" stroke="rgb(0, 0, 0)" stroke-opacity="1.0" stroke-linecap="round" stroke-linejoin="round"/>
    <path d="M 147.5504913330078 97.19176483154297 C 180.03756713867188 97.42498779296875 181.3448944091797 94.09812927246094 196.056884765625 112.16410827636719" stroke-width="3.0" fill="none" stroke="rgb(0, 0, 0)" stroke-opacity="1.0" stroke-linecap="round" stroke-linejoin="round"/>
    <path d="M 121.48429870605469 150.62875366210938 C 162.11099243164062 157.5310821533203 108.29652404785156 140.98004150390625 101.18890380859375 155.18099975585938" stroke-width="3.0" fill="none" stroke="rgb(0, 0, 0)" stroke-opacity="1.0" stroke-linecap="round" stroke-linejoin="round"/>
    <path d="M 180.22998046875 9.150655746459961 C 188.7867431640625 19.979829788208008 167.46470642089844 94.56952667236328 180.7370147705078 48.466941833496094" stroke-width="3.0" fill="none" stroke="rgb(0, 0, 0)" stroke-opacity="1.0" stroke-linecap="round" stroke-linejoin="round"/>
    <path d="M 142.73858642578125 32.844940185546875 C 112.13185119628906 26.25758934020996 135.25885009765625 33.216636657714844 128.5784454345703 76.53002166748047" stroke-width="3.0" fill="none" stroke="rgb(0, 0, 0)" stroke-opacity="1.0" stroke-linecap="round" stroke-linejoin="round"/>
    <path d="M 109.38715362548828 43.73680114746094 C 60.71255874633789 -4.2496819496154785 83.39762115478516 0.8620935678482056 119.2069091796875 28.649585723876953" stroke-width="3.0" fill="none" stroke="rgb(0, 0, 0)" stroke-opacity="1.0" stroke-linecap="round" stroke-linejoin="round"/>
    <path d="M 45.6535530090332 165.46263122558594 C 42.67045593261719 157.8773956298828 43.339698791503906 150.01705932617188 49.59355545043945 166.57550048828125" stroke-width="3.0" fill="none" stroke="rgb(0, 0, 0)" stroke-opacity="1.0" stroke-linecap="round" stroke-linejoin="round"/>
    <path d="M 47.66933059692383 74.74828338623047 C 25.29012107849121 133.63368225097656 44.21750259399414 133.82383728027344 45.72298049926758 158.00218200683594" stroke-width="3.0" fill="none" stroke="rgb(0, 0, 0)" stroke-opacity="1.0" stroke-linecap="round" stroke-linejoin="round"/>
    <path d="M 73.4398193359375 140.28338623046875 C 136.37008666992188 157.78733825683594 100.47753143310547 147.47454833984375 88.12260437011719 146.64938354492188" stroke-width="3.0" fill="none" stroke="rgb(0, 0, 0)" stroke-opacity="1.0" stroke-linecap="round" stroke-linejoin="round"/>
    <path d="M 87.71674346923828 197.7241668701172 C 64.52285766601562 198.6671142578125 48.353694915771484 177.92807006835938 45.38503646850586 163.67018127441406" stroke-width="3.0" fill="none" stroke="rgb(0, 0, 0)" stroke-opacity="1.0" stroke-linecap="round" stroke-linejoin="round"/>
    <path d="M 50.35496520996094 172.29437255859375 C 70.44745635986328 198.66896057128906 49.61677551269531 173.04995727539062 38.044708251953125 145.3096466064453" stroke-width="3.0" fill="none" stroke="rgb(0, 0, 0)" stroke-opacity="1.0" stroke-linecap="round" stroke-linejoin="round"/>
    <path d="M 82.45831298828125 57.93077850341797 C 57.923465728759766 57.06951904296875 55.66998291015625 74.34009552001953 38.78697967529297 109.9078598022461" stroke-width="3.0" fill="none" stroke="rgb(0, 0, 0)" stroke-opacity="1.0" stroke-linecap="round" stroke-linejoin="round"/>
    <path d="M 155.167236328125 140.1274871826172 C 104.47084045410156 156.2390594482422 83.33431243896484 155.65272521972656 141.9936981201172 149.31332397460938" stroke-width="3.0" fill="none" stroke="rgb(0, 0, 0)" stroke-opacity="1.0" stroke-linecap="round" stroke-linejoin="round"/>
    <path d="M 151.4266815185547 26.992481231689453 C 146.71469116210938 32.333351135253906 138.15147399902344 16.784854888916016 141.91795349121094 76.8908462524414" stroke-width="3.0" fill="none" stroke="rgb(0, 0, 0)" stroke-opacity="1.0" stroke-linecap="round" stroke-linejoin="round"/>
    <path d="M 144.2568817138672 99.83084106445312 C 125.56212615966797 109.45494079589844 124.4022445678711 102.38384246826172 112.91568756103516 94.31794738769531" stroke-width="3.0" fill="none" stroke="rgb(0, 0, 0)" stroke-opacity="1.0" stroke-linecap="round" stroke-linejoin="round"/>
    <path d="M 138.58816528320312 70.51092529296875 C 148.95379638671875 55.95887756347656 133.77723693847656 68.4701919555664 138.0072784423828 80.79595184326172" stroke-width="3.0" fill="none" stroke="rgb(0, 0, 0)" stroke-opacity="1.0" stroke-linecap="round" stroke-linejoin="round"/>
    <path d="M 140.3577423095703 164.56976318359375 C 126.48124694824219 173.07261657714844 141.61959838867188 165.60206604003906 143.8137664794922 145.86199951171875" stroke-width="3.0" fill="none" stroke="rgb(0, 0, 0)" stroke-opacity="1.0" stroke-linecap="round" stroke-linejoin="round"/>
    <path d="M 195.26657104492188 94.61119842529297 C 167.55699157714844 63.39909362792969 176.7664337158203 70.78694152832031 185.35299682617188 92.8494873046875" stroke-width="3.0" fill="none" stroke="rgb(0, 0, 0)" stroke-opacity="1.0" stroke-linecap="round" stroke-linejoin="round"/>
    <path d="M 150.41221618652344 78.44978332519531 C 126.1965103149414 54.324058532714844 209.4464569091797 88.82606506347656 175.35523986816406 63.4846076965332" stroke-width="3.0" fill="none" stroke="rgb(0, 0, 0)" stroke-opacity="1.0" stroke-linecap="round" stroke-linejoin="round"/>
    <path d="M 115.43531036376953 78.62250518798828 C 81.0972671508789 70.5394287109375 141.05270385742188 72.28145599365234 111.4572982788086 77.4911880493164" stroke-width="3.0" fill="none" stroke="rgb(0, 0, 0)" stroke-opacity="1.0" stroke-linecap="round" stroke-linejoin="round"/>
    <path d="M 165.32943725585938 132.04405212402344 C 144.6631317138672 157.5248565673828 101.7892837524414 146.5644073486328 96.5349349975586 151.73037719726562" stroke-width="3.0" fill="none" stroke="rgb(0, 0, 0)" stroke-opacity="1.0" stroke-linecap="round" stroke-linejoin="round"/>
    <path d="M 123.22710418701172 92.18718719482422 C 144.43331909179688 99.4032974243164 127.99230194091797 75.55665588378906 130.3866424560547 107.86876678466797" stroke-width="3.0" fill="none" stroke="rgb(0, 0, 0)" stroke-opacity="1.0" stroke-linecap="round" stroke-linejoin="round"/>
    <path d="M 188.66766357421875 117.86258697509766 C 167.34457397460938 83.33137512207031 175.04042053222656 98.7988052368164 146.45042419433594 85.62541198730469" stroke-width="3.0" fill="none" stroke="rgb(0, 0, 0)" stroke-opacity="1.0" stroke-linecap="round" stroke-linejoin="round"/>
    <path d="M 93.08067321777344 26.836057662963867 C 129.5857391357422 28.153732299804688 89.39775085449219 31.170312881469727 145.5450439453125 30.40141487121582" stroke-width="3.0" fill="none" stroke="rgb(0, 0, 0)" stroke-opacity="1.0" stroke-linecap="round" stroke-linejoin="round"/>
    <path d="M 60.275848388671875 114.63040161132812 C 64.41647338867188 102.8671875 55.174869537353516 124.55545806884766 73.1054458618164 140.13499450683594" stroke-width="3.0" fill="none" stroke="rgb(0, 0, 0)" stroke-opacity="1.0" stroke-linecap="round" stroke-linejoin="round"/>
    <path d="M 131.5094451904297 104.51799011230469 C 123.79634857177734 93.37482452392578 126.60438537597656 119.0993423461914 112.58595275878906 83.71744537353516" stroke-width="3.0" fill="none" stroke="rgb(0, 0, 0)" stroke-opacity="1.0" stroke-linecap="round" stroke-linejoin="round"/>
    <path d="M 38.47588348388672 147.6173858642578 C 25.20728874206543 122.81781005859375 33.578643798828125 81.52899932861328 59.105224609375 67.3714370727539" stroke-width="3.0" fill="none" stroke="rgb(0, 0, 0)" stroke-opacity="1.0" stroke-linecap="round" stroke-linejoin="round"/>
    <path d="M 102.06378173828125 196.4625701904297 C 78.78396606445312 198.63453674316406 69.8917236328125 196.1003875732422 107.86173248291016 196.27847290039062" stroke-width="3.0" fill="none" stroke="rgb(0, 0, 0)" stroke-opacity="1.0" stroke-linecap="round" stroke-linejoin="round"/>
    <path d="M 167.6209716796875 129.51083374023438 C 199.37957763671875 122.73021697998047 187.5771942138672 83.82424926757812 155.49801635742188 85.52967834472656" stroke-width="3.0" fill="none" stroke="rgb(0, 0, 0)" stroke-opacity="1.0" stroke-linecap="round" stroke-linejoin="round"/>
    <path d="M 154.68356323242188 72.19112396240234 C 132.15121459960938 85.34798431396484 171.4444122314453 76.39581298828125 148.35369873046875 69.85969543457031" stroke-width="3.0" fill="none" stroke="rgb(0, 0, 0)" stroke-opacity="1.0" stroke-linecap="round" stroke-linejoin="round"/>
    <path d="M 139.4791259765625 75.8494873046875 C 142.88661193847656 41.02356719970703 204.2129364013672 111.92341613769531 174.17495727539062 49.815513610839844" stroke-width="3.0" fill="none" stroke="rgb(0, 0, 0)" stroke-opacity="1.0" stroke-linecap="round" stroke-linejoin="round"/>
    <path d="M 153.63421630859375 96.64166259765625 C 176.4203338623047 106.8302993774414 174.66592407226562 102.82801818847656 184.21524047851562 120.44635009765625" stroke-width="3.0" fill="none" stroke="rgb(0, 0, 0)" stroke-opacity="1.0" stroke-linecap="round" stroke-linejoin="round"/>
    <path d="M 176.09962463378906 12.715154647827148 C 168.05821228027344 46.221435546875 175.06224060058594 23.493282318115234 159.6138916015625 37.73836898803711" stroke-width="3.0" fill="none" stroke="rgb(0, 0, 0)" stroke-opacity="1.0" stroke-linecap="round" stroke-linejoin="round"/>
    <path d="M 123.55806732177734 106.56018829345703 C 149.14161682128906 100.01188659667969 133.29409790039062 115.43546295166016 120.81924438476562 102.82797241210938" stroke-width="3.0" fill="none" stroke="rgb(0, 0, 0)" stroke-opacity="1.0" stroke-linecap="round" stroke-linejoin="round"/>
    <path d="M 63.733802795410156 116.46417999267578 C 56.67768478393555 110.14214324951172 60.08546447753906 110.01731872558594 58.93931579589844 117.23285675048828" stroke-width="3.0" fill="none" stroke="rgb(0, 0, 0)" stroke-opacity="1.0" stroke-linecap="round" stroke-linejoin="round"/>
    <path d="M 122.94705963134766 69.23507690429688 C 121.7108154296875 38.853668212890625 113.70809936523438 55.394500732421875 120.44153594970703 31.815570831298828" stroke-width="3.0" fill="none" stroke="rgb(0, 0, 0)" stroke-opacity="1.0" stroke-linecap="round" stroke-linejoin="round"/>
    <path d="M 147.61770629882812 29.694923400878906 C 144.86801147460938 36.184593200683594 162.2665557861328 8.670668601989746 177.24114990234375 8.126729965209961" stroke-width="3.0" fill="none" stroke="rgb(0, 0, 0)" stroke-opacity="1.0" stroke-linecap="round" stroke-linejoin="round"/>
  </g>
</svg>
