<?xml version="1.0" ?>
<svg xmlns="http://www.w3.org/2000/svg" version="1.1" width="224" height="224">
  <defs/>
  <g>
    <path d="M 60.25727081298828 102.1532211303711 C 63.040977478027344 101.87428283691406 53.19878387451172 90.39530944824219 67.52214050292969 59.53810501098633" stroke-width="3.0" fill="none" stroke="rgb(0, 0, 0)" stroke-opacity="1.0" stroke-linecap="round" stroke-linejoin="round"/>
    <path d="M 189.2654266357422 113.1598892211914 C 182.81277465820312 110.4117202758789 190.5175018310547 95.82260131835938 180.67733764648438 127.08598327636719" stroke-width="3.0" fill="none" stroke="rgb(0, 0, 0)" stroke-opacity="1.0" stroke-linecap="round" stroke-linejoin="round"/>
    <path d="M 61.433265686035156 124.2110595703125 C 58.502281188964844 81.95215606689453 58.79694366455078 124.35086822509766 63.54436492919922 123.84814453125" stroke-width="3.0" fill="none" stroke="rgb(0, 0, 0)" stroke-opacity="1.0" stroke-linecap="round" stroke-linejoin="round"/>
    <path d="M 183.78428649902344 96.35205841064453 C 152.61561584472656 72.67340087890625 184.5445556640625 76.46121978759766 185.24826049804688 103.36785888671875" stroke-width="3.0" fill="none" stroke="rgb(0, 0, 0)" stroke-opacity="1.0" stroke-linecap="round" stroke-linejoin="round"/>
    <path d="M 176.31011962890625 42.666160583496094 C 190.53399658203125 95.70045471191406 171.43324279785156 109.00692749023438 181.853515625 63.60886764526367" stroke-width="3.0" fill="none" stroke="rgb(0, 0, 0)" stroke-opacity="1.0" stroke-linecap="round" stroke-linejoin="round"/>
    <path d="M 129.8915557861328 100.55953216552734 C 149.51260375976562 118.38668823242188 97.80059051513672 100.3663330078125 138.97891235351562 106.07453918457031" stroke-width="3.0" fill="none" stroke="rgb(0, 0, 0)" stroke-opacity="1.0" stroke-linecap="round" stroke-linejoin="round"/>
    <path d="M 181.5672149658203 89.96509552001953 C 166.867431640625 89.65708923339844 185.27549743652344 71.4085693359375 160.35914611816406 86.63885498046875" stroke-width="3.0" fill="none" stroke="rgb(0, 0, 0)" stroke-opacity="1.0" stroke-linecap="round" stroke-linejoin="round"/>
    <path d="M 65.89010620117188 189.2013702392578 C 42.40973663330078 168.3611602783203 46.347023010253906 170.11306762695312 55.618865966796875 183.02479553222656" stroke-width="3.0" fill="none" stroke="rgb(0, 0, 0)" stroke-opacity="1.0" stroke-linecap="round" stroke-linejoin="round"/>
    <path d="M 56.25332260131836 182.78640747070312 C 87.13626861572266 208.1906280517578 135.29135131835938 194.97674560546875 140.44631958007812 163.58958435058594" stroke-width="3.0" fill="none" stroke="rgb(0, 0, 0)" stroke-opacity="1.0" stroke-linecap="round" stroke-linejoin="round"/>
    <path d="M 81.43936157226562 11.984468460083008 C 92.36392974853516 78.75630187988281 87.39681243896484 7.763247489929199 83.8795166015625 55.53559112548828" stroke-width="3.0" fill="none" stroke="rgb(0, 0, 0)" stroke-opacity="1.0" stroke-linecap="round" stroke-linejoin="round"/>
    <path d="M 61.44803237915039 91.8797607421875 C 48.36101150512695 131.38856506347656 74.7169418334961 129.78065490722656 61.96247482299805 119.69839477539062" stroke-width="3.0" fill="none" stroke="rgb(0, 0, 0)" stroke-opacity="1.0" stroke-linecap="round" stroke-linejoin="round"/>
    <path d="M 146.1937255859375 71.88917541503906 C 189.13925170898438 67.2562255859375 191.93516540527344 89.32686614990234 141.66824340820312 85.90441131591797" stroke-width="3.0" fill="none" stroke="rgb(0, 0, 0)" stroke-opacity="1.0" stroke-linecap="round" stroke-linejoin="round"/>
    <path d="M 151.2240447998047 98.91390228271484 C 181.46087646484375 100.07959747314453 181.80821228027344 97.43450164794922 196.30628967285156 114.52930450439453" stroke-width="3.0" fill="none" stroke="rgb(0, 0, 0)" stroke-opacity="1.0" stroke-linecap="round" stroke-linejoin="round"/>
    <path d="M 125.5460205078125 146.13482666015625 C 166.37985229492188 159.21742248535156 102.60965728759766 142.19468688964844 94.41683197021484 150.95205688476562" stroke-width="3.0" fill="none" stroke="rgb(0, 0, 0)" stroke-opacity="1.0" stroke-linecap="round" stroke-linejoin="round"/>
    <path d="M 178.27008056640625 8.268967628479004 C 191.01339721679688 20.1485652923584 166.27964782714844 97.63561248779297 179.99429321289062 56.95610809326172" stroke-width="3.0" fill="none" stroke="rgb(0, 0, 0)" stroke-opacity="1.0" stroke-linecap="round" stroke-linejoin="round"/>
    <path d="M 146.22012329101562 30.517295837402344 C 112.12570190429688 29.98369789123535 136.12887573242188 34.13090896606445 130.33238220214844 64.09908294677734" stroke-width="3.0" fill="none" stroke="rgb(0, 0, 0)" stroke-opacity="1.0" stroke-linecap="round" stroke-linejoin="round"/>
    <path d="M 103.95472717285156 47.82120895385742 C 61.621482849121094 -7.0337443351745605 83.50761413574219 0.4984784424304962 121.04721069335938 33.50349426269531" stroke-width="3.0" fill="none" stroke="rgb(0, 0, 0)" stroke-opacity="1.0" stroke-linecap="round" stroke-linejoin="round"/>
    <path d="M 45.55693054199219 163.69496154785156 C 45.91017150878906 158.984619140625 41.630550384521484 154.04563903808594 49.16987609863281 171.43447875976562" stroke-width="3.0" fill="none" stroke="rgb(0, 0, 0)" stroke-opacity="1.0" stroke-linecap="round" stroke-linejoin="round"/>
    <path d="M 56.03340148925781 68.29479217529297 C 20.892805099487305 129.3202362060547 41.027687072753906 133.297607421875 43.75564193725586 162.76589965820312" stroke-width="3.0" fill="none" stroke="rgb(0, 0, 0)" stroke-opacity="1.0" stroke-linecap="round" stroke-linejoin="round"/>
    <path d="M 71.64616394042969 136.27157592773438 C 136.3477783203125 160.6859130859375 101.81546783447266 150.54586791992188 84.54195404052734 142.94178771972656" stroke-width="3.0" fill="none" stroke="rgb(0, 0, 0)" stroke-opacity="1.0" stroke-linecap="round" stroke-linejoin="round"/>
    <path d="M 92.4818115234375 196.07476806640625 C 65.02692413330078 200.35662841796875 46.96113586425781 177.185302734375 41.77275848388672 156.20156860351562" stroke-width="3.0" fill="none" stroke="rgb(0, 0, 0)" stroke-opacity="1.0" stroke-linecap="round" stroke-linejoin="round"/>
    <path d="M 51.45633316040039 174.88583374023438 C 70.49988555908203 197.06561279296875 49.978614807128906 173.2233123779297 36.39101791381836 141.10475158691406" stroke-width="3.0" fill="none" stroke="rgb(0, 0, 0)" stroke-opacity="1.0" stroke-linecap="round" stroke-linejoin="round"/>
    <path d="M 79.00453186035156 55.17184066772461 C 57.02011489868164 59.88451385498047 62.573795318603516 70.35062408447266 37.97466278076172 111.99011993408203" stroke-width="3.0" fill="none" stroke="rgb(0, 0, 0)" stroke-opacity="1.0" stroke-linecap="round" stroke-linejoin="round"/>
    <path d="M 156.0443115234375 140.54042053222656 C 100.77632141113281 154.3835906982422 71.04701232910156 153.2235870361328 143.385009765625 149.56236267089844" stroke-width="3.0" fill="none" stroke="rgb(0, 0, 0)" stroke-opacity="1.0" stroke-linecap="round" stroke-linejoin="round"/>
    <path d="M 151.8260955810547 29.484289169311523 C 140.8868408203125 35.850128173828125 132.7818145751953 12.584677696228027 138.44508361816406 78.68646240234375" stroke-width="3.0" fill="none" stroke="rgb(0, 0, 0)" stroke-opacity="1.0" stroke-linecap="round" stroke-linejoin="round"/>
    <path d="M 147.4129638671875 102.75361633300781 C 129.5038299560547 114.24761962890625 126.05829620361328 106.02225494384766 114.6927719116211 91.63819885253906" stroke-width="3.0" fill="none" stroke="rgb(0, 0, 0)" stroke-opacity="1.0" stroke-linecap="round" stroke-linejoin="round"/>
    <path d="M 137.49058532714844 62.86103057861328 C 146.33663940429688 55.77170944213867 131.2989959716797 71.90422058105469 137.59078979492188 75.46239471435547" stroke-width="3.0" fill="none" stroke="rgb(0, 0, 0)" stroke-opacity="1.0" stroke-linecap="round" stroke-linejoin="round"/>
    <path d="M 136.08908081054688 164.84295654296875 C 131.6512451171875 168.2584228515625 147.0596160888672 162.64537048339844 146.98318481445312 144.9227752685547" stroke-width="3.0" fill="none" stroke="rgb(0, 0, 0)" stroke-opacity="1.0" stroke-linecap="round" stroke-linejoin="round"/>
    <path d="M 195.23403930664062 94.5917739868164 C 163.82855224609375 66.75090026855469 176.02197265625 68.77938079833984 190.1378631591797 98.79108428955078" stroke-width="3.0" fill="none" stroke="rgb(0, 0, 0)" stroke-opacity="1.0" stroke-linecap="round" stroke-linejoin="round"/>
    <path d="M 152.77423095703125 77.44171142578125 C 123.09884643554688 54.80473709106445 213.0230712890625 88.28480529785156 175.2278594970703 66.4461669921875" stroke-width="3.0" fill="none" stroke="rgb(0, 0, 0)" stroke-opacity="1.0" stroke-linecap="round" stroke-linejoin="round"/>
    <path d="M 115.67561340332031 81.75675201416016 C 86.4743423461914 72.38394165039062 135.64669799804688 74.14220428466797 111.5862808227539 81.08663940429688" stroke-width="3.0" fill="none" stroke="rgb(0, 0, 0)" stroke-opacity="1.0" stroke-linecap="round" stroke-linejoin="round"/>
    <path d="M 168.4107208251953 130.75657653808594 C 152.67208862304688 159.75323486328125 95.96076965332031 147.19354248046875 89.228515625 145.06765747070312" stroke-width="3.0" fill="none" stroke="rgb(0, 0, 0)" stroke-opacity="1.0" stroke-linecap="round" stroke-linejoin="round"/>
    <path d="M 122.37603759765625 90.42069244384766 C 145.991943359375 98.75907135009766 131.67918395996094 72.49784851074219 129.5866241455078 108.27998352050781" stroke-width="3.0" fill="none" stroke="rgb(0, 0, 0)" stroke-opacity="1.0" stroke-linecap="round" stroke-linejoin="round"/>
    <path d="M 186.1074676513672 111.44818878173828 C 166.19598388671875 90.73353576660156 172.8887176513672 95.8211441040039 140.4332733154297 83.44873046875" stroke-width="3.0" fill="none" stroke="rgb(0, 0, 0)" stroke-opacity="1.0" stroke-linecap="round" stroke-linejoin="round"/>
    <path d="M 92.6768798828125 22.88997459411621 C 128.03904724121094 28.907915115356445 87.61957550048828 35.458831787109375 148.32460021972656 29.78923797607422" stroke-width="3.0" fill="none" stroke="rgb(0, 0, 0)" stroke-opacity="1.0" stroke-linecap="round" stroke-linejoin="round"/>
    <path d="M 56.042423248291016 111.37906646728516 C 70.63140869140625 98.61532592773438 51.44991683959961 118.52583312988281 72.59123992919922 137.15234375" stroke-width="3.0" fill="none" stroke="rgb(0, 0, 0)" stroke-opacity="1.0" stroke-linecap="round" stroke-linejoin="round"/>
    <path d="M 139.6485137939453 105.40032958984375 C 122.99520111083984 89.13485717773438 126.16404724121094 120.04218292236328 112.33244323730469 90.06773376464844" stroke-width="3.0" fill="none" stroke="rgb(0, 0, 0)" stroke-opacity="1.0" stroke-linecap="round" stroke-linejoin="round"/>
    <path d="M 37.637245178222656 144.4826202392578 C 23.449644088745117 123.34247589111328 37.515689849853516 78.25202178955078 63.3563232421875 63.95016098022461" stroke-width="3.0" fill="none" stroke="rgb(0, 0, 0)" stroke-opacity="1.0" stroke-linecap="round" stroke-linejoin="round"/>
    <path d="M 94.51177978515625 197.10333251953125 C 77.63683319091797 198.01881408691406 70.7577133178711 195.258544921875 100.40898132324219 195.49636840820312" stroke-width="3.0" fill="none" stroke="rgb(0, 0, 0)" stroke-opacity="1.0" stroke-linecap="round" stroke-linejoin="round"/>
    <path d="M 171.00486755371094 130.14320373535156 C 197.2002716064453 112.35152435302734 191.58802795410156 87.4784164428711 151.8671112060547 87.8126220703125" stroke-width="3.0" fill="none" stroke="rgb(0, 0, 0)" stroke-opacity="1.0" stroke-linecap="round" stroke-linejoin="round"/>
    <path d="M 154.9300537109375 69.70068359375 C 128.67591857910156 79.29711151123047 165.89845275878906 82.7076644897461 152.04417419433594 69.48371887207031" stroke-width="3.0" fill="none" stroke="rgb(0, 0, 0)" stroke-opacity="1.0" stroke-linecap="round" stroke-linejoin="round"/>
    <path d="M 139.3636016845703 77.97016143798828 C 143.9604034423828 41.470638275146484 200.15237426757812 111.45756530761719 176.30300903320312 51.67170715332031" stroke-width="3.0" fill="none" stroke="rgb(0, 0, 0)" stroke-opacity="1.0" stroke-linecap="round" stroke-linejoin="round"/>
    <path d="M 153.77767944335938 98.51760864257812 C 173.4011688232422 105.74068450927734 178.20462036132812 104.27005004882812 186.80442810058594 121.99838256835938" stroke-width="3.0" fill="none" stroke="rgb(0, 0, 0)" stroke-opacity="1.0" stroke-linecap="round" stroke-linejoin="round"/>
    <path d="M 179.0752716064453 17.92580223083496 C 172.89878845214844 45.547340393066406 174.00404357910156 28.072874069213867 157.6848907470703 39.74812698364258" stroke-width="3.0" fill="none" stroke="rgb(0, 0, 0)" stroke-opacity="1.0" stroke-linecap="round" stroke-linejoin="round"/>
    <path d="M 120.42705535888672 104.58830261230469 C 147.7515411376953 98.13009643554688 127.41548919677734 115.41637420654297 123.66873168945312 102.78682708740234" stroke-width="3.0" fill="none" stroke="rgb(0, 0, 0)" stroke-opacity="1.0" stroke-linecap="round" stroke-linejoin="round"/>
    <path d="M 59.93222427368164 106.93294525146484 C 59.0451545715332 105.20855712890625 54.96305465698242 116.37867736816406 61.12131118774414 119.88495635986328" stroke-width="3.0" fill="none" stroke="rgb(0, 0, 0)" stroke-opacity="1.0" stroke-linecap="round" stroke-linejoin="round"/>
    <path d="M 123.35664367675781 74.05132293701172 C 125.55943298339844 42.03696060180664 115.6964111328125 60.26923370361328 121.04370880126953 36.39381790161133" stroke-width="3.0" fill="none" stroke="rgb(0, 0, 0)" stroke-opacity="1.0" stroke-linecap="round" stroke-linejoin="round"/>
    <path d="M 144.22996520996094 32.28380584716797 C 144.64585876464844 39.89906311035156 161.6739044189453 9.380181312561035 177.64950561523438 10.15358829498291" stroke-width="3.0" fill="none" stroke="rgb(0, 0, 0)" stroke-opacity="1.0" stroke-linecap="round" stroke-linejoin="round"/>
  </g>
</svg>
