<?xml version="1.0" ?>
<svg xmlns="http://www.w3.org/2000/svg" version="1.1" width="224" height="224">
  <defs/>
  <g>
    <path d="M 55.854209899902344 114.46556854248047 C 60.80044937133789 114.41498565673828 45.80779266357422 103.90309143066406 44.69294738769531 83.40452575683594" stroke-width="3.0" fill="none" stroke="rgb(0, 0, 0)" stroke-opacity="1.0" stroke-linecap="round" stroke-linejoin="round"/>
    <path d="M 179.44996643066406 126.69437408447266 C 176.4176483154297 120.07820892333984 186.17422485351562 116.3661117553711 185.0319366455078 114.81905364990234" stroke-width="3.0" fill="none" stroke="rgb(0, 0, 0)" stroke-opacity="1.0" stroke-linecap="round" stroke-linejoin="round"/>
    <path d="M 56.9373664855957 114.78894805908203 C 53.67405319213867 109.373779296875 50.885101318359375 106.16011810302734 58.357242584228516 121.00308227539062" stroke-width="3.0" fill="none" stroke="rgb(0, 0, 0)" stroke-opacity="1.0" stroke-linecap="round" stroke-linejoin="round"/>
    <path d="M 186.26463317871094 95.53101348876953 C 156.55499267578125 88.3212661743164 168.2076416015625 87.87850189208984 196.63665771484375 112.51163482666016" stroke-width="3.0" fill="none" stroke="rgb(0, 0, 0)" stroke-opacity="1.0" stroke-linecap="round" stroke-linejoin="round"/>
    <path d="M 179.5552215576172 73.11026000976562 C 180.48294067382812 94.86260986328125 181.42333984375 93.39935302734375 184.37991333007812 65.94843292236328" stroke-width="3.0" fill="none" stroke="rgb(0, 0, 0)" stroke-opacity="1.0" stroke-linecap="round" stroke-linejoin="round"/>
    <path d="M 128.06741333007812 102.9552230834961 C 148.78305053710938 103.60199737548828 107.30731964111328 96.24588012695312 141.31529235839844 101.89691925048828" stroke-width="3.0" fill="none" stroke="rgb(0, 0, 0)" stroke-opacity="1.0" stroke-linecap="round" stroke-linejoin="round"/>
    <path d="M 173.05068969726562 100.26498413085938 C 196.4611358642578 75.88290405273438 172.11407470703125 70.20135498046875 158.8753662109375 84.228759765625" stroke-width="3.0" fill="none" stroke="rgb(0, 0, 0)" stroke-opacity="1.0" stroke-linecap="round" stroke-linejoin="round"/>
    <path d="M 53.07587432861328 177.13697814941406 C 34.21149444580078 160.18606567382812 52.06547546386719 164.4138641357422 42.79667663574219 162.31394958496094" stroke-width="3.0" fill="none" stroke="rgb(0, 0, 0)" stroke-opacity="1.0" stroke-linecap="round" stroke-linejoin="round"/>
    <path d="M 64.0481948852539 190.0904998779297 C 86.41974639892578 204.3556671142578 109.83748626708984 197.17514038085938 118.71533966064453 188.80490112304688" stroke-width="3.0" fill="none" stroke="rgb(0, 0, 0)" stroke-opacity="1.0" stroke-linecap="round" stroke-linejoin="round"/>
    <path d="M 90.16674041748047 39.2106819152832 C 90.76889038085938 54.967891693115234 84.99586486816406 11.654668807983398 85.08374786376953 51.15435028076172" stroke-width="3.0" fill="none" stroke="rgb(0, 0, 0)" stroke-opacity="1.0" stroke-linecap="round" stroke-linejoin="round"/>
    <path d="M 61.515750885009766 126.2066650390625 C 62.92792892456055 140.3970184326172 91.13642883300781 150.59573364257812 95.09858703613281 157.1380157470703" stroke-width="3.0" fill="none" stroke="rgb(0, 0, 0)" stroke-opacity="1.0" stroke-linecap="round" stroke-linejoin="round"/>
    <path d="M 150.82159423828125 71.33634948730469 C 210.0294952392578 75.13337707519531 181.7576904296875 77.33955383300781 148.9174041748047 85.93636322021484" stroke-width="3.0" fill="none" stroke="rgb(0, 0, 0)" stroke-opacity="1.0" stroke-linecap="round" stroke-linejoin="round"/>
    <path d="M 146.885009765625 98.55740356445312 C 173.09249877929688 101.30390930175781 174.3806915283203 101.34963989257812 187.72877502441406 112.50759887695312" stroke-width="3.0" fill="none" stroke="rgb(0, 0, 0)" stroke-opacity="1.0" stroke-linecap="round" stroke-linejoin="round"/>
    <path d="M 104.4390640258789 160.62205505371094 C 143.10897827148438 151.2860107421875 108.08355712890625 162.18844604492188 110.56352233886719 153.6673126220703" stroke-width="3.0" fill="none" stroke="rgb(0, 0, 0)" stroke-opacity="1.0" stroke-linecap="round" stroke-linejoin="round"/>
    <path d="M 173.0333709716797 8.69242000579834 C 193.183837890625 0.688644289970398 175.7925567626953 56.07820129394531 182.28335571289062 57.65637969970703" stroke-width="3.0" fill="none" stroke="rgb(0, 0, 0)" stroke-opacity="1.0" stroke-linecap="round" stroke-linejoin="round"/>
    <path d="M 130.95103454589844 32.03855895996094 C 124.94251251220703 56.49678039550781 130.8094024658203 39.495025634765625 127.9355697631836 70.0323486328125" stroke-width="3.0" fill="none" stroke="rgb(0, 0, 0)" stroke-opacity="1.0" stroke-linecap="round" stroke-linejoin="round"/>
    <path d="M 89.16764831542969 48.42826461791992 C 76.09464263916016 -4.486225605010986 83.99636840820312 2.0257208347320557 106.20588684082031 37.49427032470703" stroke-width="3.0" fill="none" stroke="rgb(0, 0, 0)" stroke-opacity="1.0" stroke-linecap="round" stroke-linejoin="round"/>
    <path d="M 43.70579528808594 163.07705688476562 C 40.87714767456055 153.11843872070312 35.29779052734375 149.41993713378906 37.52914047241211 147.43479919433594" stroke-width="3.0" fill="none" stroke="rgb(0, 0, 0)" stroke-opacity="1.0" stroke-linecap="round" stroke-linejoin="round"/>
    <path d="M 32.29219436645508 108.11002349853516 C 27.092329025268555 126.74046325683594 35.9556999206543 144.48236083984375 41.74565505981445 153.4877471923828" stroke-width="3.0" fill="none" stroke="rgb(0, 0, 0)" stroke-opacity="1.0" stroke-linecap="round" stroke-linejoin="round"/>
    <path d="M 87.72392272949219 149.05897521972656 C 101.21634674072266 161.43324279785156 106.14916229248047 160.57122802734375 95.40116882324219 152.5870819091797" stroke-width="3.0" fill="none" stroke="rgb(0, 0, 0)" stroke-opacity="1.0" stroke-linecap="round" stroke-linejoin="round"/>
    <path d="M 76.2464599609375 197.90040588378906 C 53.42333221435547 185.96693420410156 57.07081604003906 185.8904571533203 47.73077392578125 173.33200073242188" stroke-width="3.0" fill="none" stroke="rgb(0, 0, 0)" stroke-opacity="1.0" stroke-linecap="round" stroke-linejoin="round"/>
    <path d="M 43.40937805175781 163.3333740234375 C 58.64104461669922 188.06130981445312 40.89876937866211 164.17359924316406 40.20712661743164 152.9730224609375" stroke-width="3.0" fill="none" stroke="rgb(0, 0, 0)" stroke-opacity="1.0" stroke-linecap="round" stroke-linejoin="round"/>
    <path d="M 80.70144653320312 54.46805191040039 C 57.515811920166016 57.1734733581543 47.388980865478516 74.33966064453125 32.17808532714844 107.6415023803711" stroke-width="3.0" fill="none" stroke="rgb(0, 0, 0)" stroke-opacity="1.0" stroke-linecap="round" stroke-linejoin="round"/>
    <path d="M 151.2909698486328 142.07777404785156 C 138.28387451171875 157.55712890625 120.66835021972656 156.21636962890625 133.07762145996094 155.74864196777344" stroke-width="3.0" fill="none" stroke="rgb(0, 0, 0)" stroke-opacity="1.0" stroke-linecap="round" stroke-linejoin="round"/>
    <path d="M 137.1645965576172 32.37222671508789 C 141.8851318359375 72.53550720214844 130.9342041015625 53.548282623291016 144.00344848632812 74.34963989257812" stroke-width="3.0" fill="none" stroke="rgb(0, 0, 0)" stroke-opacity="1.0" stroke-linecap="round" stroke-linejoin="round"/>
    <path d="M 144.2344207763672 102.0634536743164 C 118.45653533935547 102.20575714111328 127.01770782470703 113.10997009277344 139.92864990234375 103.61618041992188" stroke-width="3.0" fill="none" stroke="rgb(0, 0, 0)" stroke-opacity="1.0" stroke-linecap="round" stroke-linejoin="round"/>
    <path d="M 138.84242248535156 75.84428405761719 C 144.17803955078125 51.22686004638672 138.89427185058594 58.39865493774414 139.38687133789062 66.14781951904297" stroke-width="3.0" fill="none" stroke="rgb(0, 0, 0)" stroke-opacity="1.0" stroke-linecap="round" stroke-linejoin="round"/>
    <path d="M 127.63792419433594 182.03269958496094 C 102.20585632324219 196.49044799804688 135.6601104736328 191.82789611816406 143.09202575683594 153.6095428466797" stroke-width="3.0" fill="none" stroke="rgb(0, 0, 0)" stroke-opacity="1.0" stroke-linecap="round" stroke-linejoin="round"/>
    <path d="M 195.59974670410156 94.6148452758789 C 168.12001037597656 72.97686004638672 142.23411560058594 93.91728973388672 184.47093200683594 81.03328704833984" stroke-width="3.0" fill="none" stroke="rgb(0, 0, 0)" stroke-opacity="1.0" stroke-linecap="round" stroke-linejoin="round"/>
    <path d="M 147.8964080810547 76.64158630371094 C 186.08253479003906 58.10014343261719 193.0464630126953 77.3575439453125 171.7766571044922 69.11212921142578" stroke-width="3.0" fill="none" stroke="rgb(0, 0, 0)" stroke-opacity="1.0" stroke-linecap="round" stroke-linejoin="round"/>
    <path d="M 106.21282958984375 75.07191467285156 C 89.87614440917969 69.39887237548828 133.99488830566406 73.66552734375 104.82888793945312 78.36868286132812" stroke-width="3.0" fill="none" stroke="rgb(0, 0, 0)" stroke-opacity="1.0" stroke-linecap="round" stroke-linejoin="round"/>
    <path d="M 148.51800537109375 145.72042846679688 C 143.58639526367188 160.50608825683594 125.46432495117188 153.12501525878906 106.14535522460938 155.85073852539062" stroke-width="3.0" fill="none" stroke="rgb(0, 0, 0)" stroke-opacity="1.0" stroke-linecap="round" stroke-linejoin="round"/>
    <path d="M 124.28694915771484 89.74081420898438 C 143.89480590820312 100.48553466796875 129.28408813476562 74.2806167602539 130.1165008544922 103.00645446777344" stroke-width="3.0" fill="none" stroke="rgb(0, 0, 0)" stroke-opacity="1.0" stroke-linecap="round" stroke-linejoin="round"/>
    <path d="M 191.14718627929688 113.21994018554688 C 183.5817108154297 84.16632843017578 180.94737243652344 94.59627532958984 141.47120666503906 84.48271179199219" stroke-width="3.0" fill="none" stroke="rgb(0, 0, 0)" stroke-opacity="1.0" stroke-linecap="round" stroke-linejoin="round"/>
    <path d="M 88.0258560180664 9.532029151916504 C 107.55542755126953 18.72686195373535 113.01561737060547 35.528446197509766 123.36778259277344 32.61428451538086" stroke-width="3.0" fill="none" stroke="rgb(0, 0, 0)" stroke-opacity="1.0" stroke-linecap="round" stroke-linejoin="round"/>
    <path d="M 54.20661163330078 113.4889907836914 C 51.85985565185547 106.60961151123047 57.519813537597656 121.1554183959961 57.49955749511719 119.75753784179688" stroke-width="3.0" fill="none" stroke="rgb(0, 0, 0)" stroke-opacity="1.0" stroke-linecap="round" stroke-linejoin="round"/>
    <path d="M 121.01606750488281 99.85691833496094 C 106.06391143798828 86.4278564453125 119.90951538085938 109.95455169677734 108.74910736083984 87.89330291748047" stroke-width="3.0" fill="none" stroke="rgb(0, 0, 0)" stroke-opacity="1.0" stroke-linecap="round" stroke-linejoin="round"/>
    <path d="M 31.81916618347168 131.67050170898438 C 27.49103355407715 116.08367919921875 35.19143295288086 102.11368560791016 31.17174530029297 116.46578216552734" stroke-width="3.0" fill="none" stroke="rgb(0, 0, 0)" stroke-opacity="1.0" stroke-linecap="round" stroke-linejoin="round"/>
    <path d="M 84.13090515136719 198.4697265625 C 74.5405502319336 197.98562622070312 70.36925506591797 196.21360778808594 96.40845489501953 197.73345947265625" stroke-width="3.0" fill="none" stroke="rgb(0, 0, 0)" stroke-opacity="1.0" stroke-linecap="round" stroke-linejoin="round"/>
    <path d="M 152.0789794921875 144.14573669433594 C 206.39581298828125 112.13628387451172 177.91268920898438 97.3219223022461 151.57102966308594 91.5362319946289" stroke-width="3.0" fill="none" stroke="rgb(0, 0, 0)" stroke-opacity="1.0" stroke-linecap="round" stroke-linejoin="round"/>
    <path d="M 158.99952697753906 70.80586242675781 C 121.64452362060547 80.83089447021484 174.08316040039062 82.18624114990234 147.45974731445312 69.85553741455078" stroke-width="3.0" fill="none" stroke="rgb(0, 0, 0)" stroke-opacity="1.0" stroke-linecap="round" stroke-linejoin="round"/>
    <path d="M 145.31640625 74.13713836669922 C 142.36239624023438 48.86526107788086 196.76315307617188 109.61959838867188 179.035888671875 50.475563049316406" stroke-width="3.0" fill="none" stroke="rgb(0, 0, 0)" stroke-opacity="1.0" stroke-linecap="round" stroke-linejoin="round"/>
    <path d="M 151.05918884277344 99.382080078125 C 164.08566284179688 101.88636016845703 173.349365234375 109.60474395751953 182.80564880371094 116.3279037475586" stroke-width="3.0" fill="none" stroke="rgb(0, 0, 0)" stroke-opacity="1.0" stroke-linecap="round" stroke-linejoin="round"/>
    <path d="M 177.43458557128906 16.2321834564209 C 173.73077392578125 42.36068344116211 176.0399932861328 20.032846450805664 161.94326782226562 36.451290130615234" stroke-width="3.0" fill="none" stroke="rgb(0, 0, 0)" stroke-opacity="1.0" stroke-linecap="round" stroke-linejoin="round"/>
    <path d="M 128.41616821289062 104.48633575439453 C 140.81280517578125 103.835693359375 133.8704071044922 113.72594451904297 111.85645294189453 93.54542541503906" stroke-width="3.0" fill="none" stroke="rgb(0, 0, 0)" stroke-opacity="1.0" stroke-linecap="round" stroke-linejoin="round"/>
    <path d="M 55.026878356933594 113.50929260253906 C 59.4170036315918 111.4435806274414 52.8153076171875 105.60057830810547 61.377716064453125 125.93791198730469" stroke-width="3.0" fill="none" stroke="rgb(0, 0, 0)" stroke-opacity="1.0" stroke-linecap="round" stroke-linejoin="round"/>
    <path d="M 126.7144546508789 77.02942657470703 C 128.56053161621094 45.00159454345703 119.66063690185547 52.416282653808594 123.82921600341797 31.7000675201416" stroke-width="3.0" fill="none" stroke="rgb(0, 0, 0)" stroke-opacity="1.0" stroke-linecap="round" stroke-linejoin="round"/>
    <path d="M 141.69284057617188 31.089141845703125 C 144.45858764648438 38.638431549072266 148.2167205810547 13.8666353225708 178.5901336669922 8.422479629516602" stroke-width="3.0" fill="none" stroke="rgb(0, 0, 0)" stroke-opacity="1.0" stroke-linecap="round" stroke-linejoin="round"/>
  </g>
</svg>
