<?xml version="1.0" ?>
<svg xmlns="http://www.w3.org/2000/svg" version="1.1" width="224" height="224">
  <defs/>
  <g>
    <path d="M 57.85466384887695 99.91810607910156 C 62.997283935546875 89.54469299316406 48.743621826171875 96.49581909179688 57.58108139038086 75.76814270019531" stroke-width="3.0" fill="none" stroke="rgb(0, 0, 0)" stroke-opacity="1.0" stroke-linecap="round" stroke-linejoin="round"/>
    <path d="M 185.9361572265625 118.97606658935547 C 181.12953186035156 111.3862533569336 190.48985290527344 82.8951416015625 181.311279296875 123.81824493408203" stroke-width="3.0" fill="none" stroke="rgb(0, 0, 0)" stroke-opacity="1.0" stroke-linecap="round" stroke-linejoin="round"/>
    <path d="M 60.561187744140625 117.81966400146484 C 64.92072296142578 98.17121887207031 54.363739013671875 131.25531005859375 69.88274383544922 136.10093688964844" stroke-width="3.0" fill="none" stroke="rgb(0, 0, 0)" stroke-opacity="1.0" stroke-linecap="round" stroke-linejoin="round"/>
    <path d="M 185.02420043945312 97.47026824951172 C 146.29214477539062 84.23345947265625 182.16412353515625 84.15711212158203 187.9272918701172 105.01176452636719" stroke-width="3.0" fill="none" stroke="rgb(0, 0, 0)" stroke-opacity="1.0" stroke-linecap="round" stroke-linejoin="round"/>
    <path d="M 179.02081298828125 57.19563674926758 C 188.71771240234375 100.66632843017578 175.34921264648438 101.58143615722656 180.99464416503906 73.05887603759766" stroke-width="3.0" fill="none" stroke="rgb(0, 0, 0)" stroke-opacity="1.0" stroke-linecap="round" stroke-linejoin="round"/>
    <path d="M 129.1277618408203 100.18097686767578 C 148.92662048339844 118.82003784179688 104.44282531738281 100.60243225097656 133.27276611328125 102.07406616210938" stroke-width="3.0" fill="none" stroke="rgb(0, 0, 0)" stroke-opacity="1.0" stroke-linecap="round" stroke-linejoin="round"/>
    <path d="M 181.51158142089844 85.62545013427734 C 184.9283447265625 75.56002807617188 195.2471160888672 73.54020690917969 143.3277130126953 87.73138427734375" stroke-width="3.0" fill="none" stroke="rgb(0, 0, 0)" stroke-opacity="1.0" stroke-linecap="round" stroke-linejoin="round"/>
    <path d="M 66.1582260131836 190.80435180664062 C 38.34741973876953 165.55552673339844 51.98854064941406 169.958251953125 49.22251892089844 171.0078582763672" stroke-width="3.0" fill="none" stroke="rgb(0, 0, 0)" stroke-opacity="1.0" stroke-linecap="round" stroke-linejoin="round"/>
    <path d="M 56.04596710205078 184.35650634765625 C 92.13006591796875 210.0290985107422 125.89930725097656 197.43650817871094 134.71621704101562 169.78233337402344" stroke-width="3.0" fill="none" stroke="rgb(0, 0, 0)" stroke-opacity="1.0" stroke-linecap="round" stroke-linejoin="round"/>
    <path d="M 85.30360412597656 23.291606903076172 C 92.32202911376953 81.35433959960938 88.18099975585938 13.178908348083496 86.30403137207031 57.159210205078125" stroke-width="3.0" fill="none" stroke="rgb(0, 0, 0)" stroke-opacity="1.0" stroke-linecap="round" stroke-linejoin="round"/>
    <path d="M 56.06052017211914 85.70653533935547 C 65.38291931152344 143.78504943847656 70.51847839355469 144.25721740722656 68.24629974365234 132.50753784179688" stroke-width="3.0" fill="none" stroke="rgb(0, 0, 0)" stroke-opacity="1.0" stroke-linecap="round" stroke-linejoin="round"/>
    <path d="M 147.47332763671875 72.24694061279297 C 203.25540161132812 63.64608383178711 192.38510131835938 87.5136947631836 143.6532745361328 82.81770324707031" stroke-width="3.0" fill="none" stroke="rgb(0, 0, 0)" stroke-opacity="1.0" stroke-linecap="round" stroke-linejoin="round"/>
    <path d="M 157.19105529785156 93.00562286376953 C 176.39596557617188 103.9061508178711 176.3780517578125 101.76419830322266 194.83457946777344 114.80229187011719" stroke-width="3.0" fill="none" stroke="rgb(0, 0, 0)" stroke-opacity="1.0" stroke-linecap="round" stroke-linejoin="round"/>
    <path d="M 119.16065979003906 153.15248107910156 C 152.07147216796875 156.0944366455078 99.10625457763672 148.62393188476562 98.48625183105469 156.14767456054688" stroke-width="3.0" fill="none" stroke="rgb(0, 0, 0)" stroke-opacity="1.0" stroke-linecap="round" stroke-linejoin="round"/>
    <path d="M 180.07119750976562 8.290055274963379 C 185.94625854492188 27.061811447143555 173.33836364746094 85.14141082763672 181.76185607910156 60.74238967895508" stroke-width="3.0" fill="none" stroke="rgb(0, 0, 0)" stroke-opacity="1.0" stroke-linecap="round" stroke-linejoin="round"/>
    <path d="M 135.73162841796875 30.511093139648438 C 103.59725952148438 23.670469284057617 133.2614288330078 42.2005615234375 124.10057830810547 76.63394927978516" stroke-width="3.0" fill="none" stroke="rgb(0, 0, 0)" stroke-opacity="1.0" stroke-linecap="round" stroke-linejoin="round"/>
    <path d="M 97.56365203857422 45.703433990478516 C 65.21269226074219 -6.6922712326049805 83.67839813232422 1.728340744972229 120.625732421875 31.092029571533203" stroke-width="3.0" fill="none" stroke="rgb(0, 0, 0)" stroke-opacity="1.0" stroke-linecap="round" stroke-linejoin="round"/>
    <path d="M 45.722965240478516 166.1630096435547 C 41.989627838134766 155.79022216796875 39.311439514160156 148.20010375976562 47.33357620239258 171.2412872314453" stroke-width="3.0" fill="none" stroke="rgb(0, 0, 0)" stroke-opacity="1.0" stroke-linecap="round" stroke-linejoin="round"/>
    <path d="M 44.35247039794922 85.4176025390625 C 17.586284637451172 131.87283325195312 40.37461853027344 140.59486389160156 46.02840042114258 165.2952423095703" stroke-width="3.0" fill="none" stroke="rgb(0, 0, 0)" stroke-opacity="1.0" stroke-linecap="round" stroke-linejoin="round"/>
    <path d="M 68.634521484375 140.78549194335938 C 116.85826873779297 161.16432189941406 86.90863037109375 150.47181701660156 82.85420227050781 144.6355743408203" stroke-width="3.0" fill="none" stroke="rgb(0, 0, 0)" stroke-opacity="1.0" stroke-linecap="round" stroke-linejoin="round"/>
    <path d="M 89.67471313476562 196.17454528808594 C 69.13529205322266 203.72775268554688 47.63420486450195 176.1986083984375 47.58648681640625 167.39463806152344" stroke-width="3.0" fill="none" stroke="rgb(0, 0, 0)" stroke-opacity="1.0" stroke-linecap="round" stroke-linejoin="round"/>
    <path d="M 49.0040283203125 173.77223205566406 C 66.80677032470703 195.04510498046875 47.237701416015625 171.70323181152344 40.14091491699219 152.9829559326172" stroke-width="3.0" fill="none" stroke="rgb(0, 0, 0)" stroke-opacity="1.0" stroke-linecap="round" stroke-linejoin="round"/>
    <path d="M 81.84745788574219 51.69916534423828 C 55.835487365722656 57.29814529418945 54.21957015991211 73.48318481445312 32.822200775146484 111.89408874511719" stroke-width="3.0" fill="none" stroke="rgb(0, 0, 0)" stroke-opacity="1.0" stroke-linecap="round" stroke-linejoin="round"/>
    <path d="M 158.51828002929688 138.24510192871094 C 107.91983795166016 153.9156036376953 103.44477081298828 161.61529541015625 145.35899353027344 144.3678436279297" stroke-width="3.0" fill="none" stroke="rgb(0, 0, 0)" stroke-opacity="1.0" stroke-linecap="round" stroke-linejoin="round"/>
    <path d="M 149.30215454101562 27.729366302490234 C 136.98533630371094 31.52455711364746 130.58554077148438 14.064976692199707 141.7865753173828 84.38851928710938" stroke-width="3.0" fill="none" stroke="rgb(0, 0, 0)" stroke-opacity="1.0" stroke-linecap="round" stroke-linejoin="round"/>
    <path d="M 147.95677185058594 102.3778076171875 C 130.74903869628906 117.96027374267578 128.41758728027344 103.70122528076172 115.57014465332031 90.53813171386719" stroke-width="3.0" fill="none" stroke="rgb(0, 0, 0)" stroke-opacity="1.0" stroke-linecap="round" stroke-linejoin="round"/>
    <path d="M 137.75912475585938 73.82267761230469 C 141.74928283691406 55.1941032409668 133.7570037841797 79.14276123046875 139.03941345214844 79.69314575195312" stroke-width="3.0" fill="none" stroke="rgb(0, 0, 0)" stroke-opacity="1.0" stroke-linecap="round" stroke-linejoin="round"/>
    <path d="M 138.39353942871094 166.4580535888672 C 125.2934799194336 176.35446166992188 141.67132568359375 170.0595703125 145.99034118652344 147.76185607910156" stroke-width="3.0" fill="none" stroke="rgb(0, 0, 0)" stroke-opacity="1.0" stroke-linecap="round" stroke-linejoin="round"/>
    <path d="M 193.4927520751953 98.88050842285156 C 164.61029052734375 71.15985107421875 174.78395080566406 75.94445037841797 183.91896057128906 96.97566986083984" stroke-width="3.0" fill="none" stroke="rgb(0, 0, 0)" stroke-opacity="1.0" stroke-linecap="round" stroke-linejoin="round"/>
    <path d="M 157.9103546142578 71.09102630615234 C 130.7008056640625 52.9244384765625 197.24063110351562 92.49342346191406 181.77426147460938 64.07242584228516" stroke-width="3.0" fill="none" stroke="rgb(0, 0, 0)" stroke-opacity="1.0" stroke-linecap="round" stroke-linejoin="round"/>
    <path d="M 117.24661254882812 81.91531372070312 C 86.71980285644531 70.90985107421875 138.96063232421875 77.09671783447266 108.49988555908203 83.18682098388672" stroke-width="3.0" fill="none" stroke="rgb(0, 0, 0)" stroke-opacity="1.0" stroke-linecap="round" stroke-linejoin="round"/>
    <path d="M 165.64418029785156 127.99771118164062 C 145.29458618164062 156.00607299804688 109.22920989990234 147.3275909423828 106.00616455078125 158.2749786376953" stroke-width="3.0" fill="none" stroke="rgb(0, 0, 0)" stroke-opacity="1.0" stroke-linecap="round" stroke-linejoin="round"/>
    <path d="M 126.53339385986328 89.92132568359375 C 147.54104614257812 95.950439453125 131.31976318359375 76.13582611083984 132.39837646484375 105.41105651855469" stroke-width="3.0" fill="none" stroke="rgb(0, 0, 0)" stroke-opacity="1.0" stroke-linecap="round" stroke-linejoin="round"/>
    <path d="M 186.1912384033203 112.36962890625 C 160.14401245117188 86.20318603515625 184.0099639892578 88.17765045166016 151.03883361816406 86.75740051269531" stroke-width="3.0" fill="none" stroke="rgb(0, 0, 0)" stroke-opacity="1.0" stroke-linecap="round" stroke-linejoin="round"/>
    <path d="M 84.7793960571289 9.216809272766113 C 117.30989837646484 18.337499618530273 104.6549072265625 34.12376403808594 137.07315063476562 29.407882690429688" stroke-width="3.0" fill="none" stroke="rgb(0, 0, 0)" stroke-opacity="1.0" stroke-linecap="round" stroke-linejoin="round"/>
    <path d="M 59.69192123413086 119.30458068847656 C 59.88200378417969 111.90966033935547 61.01676940917969 125.51542663574219 64.32644653320312 126.0141830444336" stroke-width="3.0" fill="none" stroke="rgb(0, 0, 0)" stroke-opacity="1.0" stroke-linecap="round" stroke-linejoin="round"/>
    <path d="M 136.3802947998047 106.43729400634766 C 139.64828491210938 89.08399200439453 122.2697982788086 119.13274383544922 117.1851577758789 88.03639221191406" stroke-width="3.0" fill="none" stroke="rgb(0, 0, 0)" stroke-opacity="1.0" stroke-linecap="round" stroke-linejoin="round"/>
    <path d="M 32.29549789428711 133.2099609375 C 28.09494400024414 121.06473541259766 35.383872985839844 86.19202423095703 59.335914611816406 69.44747161865234" stroke-width="3.0" fill="none" stroke="rgb(0, 0, 0)" stroke-opacity="1.0" stroke-linecap="round" stroke-linejoin="round"/>
    <path d="M 96.31587982177734 196.27430725097656 C 64.96398162841797 196.8081512451172 68.90818786621094 194.14598083496094 103.85374450683594 195.95697021484375" stroke-width="3.0" fill="none" stroke="rgb(0, 0, 0)" stroke-opacity="1.0" stroke-linecap="round" stroke-linejoin="round"/>
    <path d="M 170.6298370361328 128.43145751953125 C 198.83590698242188 113.55947875976562 182.03091430664062 92.30802154541016 155.8810577392578 86.80781555175781" stroke-width="3.0" fill="none" stroke="rgb(0, 0, 0)" stroke-opacity="1.0" stroke-linecap="round" stroke-linejoin="round"/>
    <path d="M 152.15065002441406 66.06871795654297 C 134.06369018554688 85.81829833984375 175.5220947265625 76.788330078125 146.59005737304688 73.194091796875" stroke-width="3.0" fill="none" stroke="rgb(0, 0, 0)" stroke-opacity="1.0" stroke-linecap="round" stroke-linejoin="round"/>
    <path d="M 140.60740661621094 80.00761413574219 C 142.2366485595703 38.10427474975586 199.1155242919922 113.21613311767578 176.4693145751953 44.544857025146484" stroke-width="3.0" fill="none" stroke="rgb(0, 0, 0)" stroke-opacity="1.0" stroke-linecap="round" stroke-linejoin="round"/>
    <path d="M 153.08786010742188 99.04288482666016 C 171.59500122070312 104.5107650756836 171.11788940429688 100.35938262939453 182.97222900390625 118.12765502929688" stroke-width="3.0" fill="none" stroke="rgb(0, 0, 0)" stroke-opacity="1.0" stroke-linecap="round" stroke-linejoin="round"/>
    <path d="M 179.47789001464844 18.504716873168945 C 179.94622802734375 36.47590637207031 163.73023986816406 10.443570137023926 150.22006225585938 37.150856018066406" stroke-width="3.0" fill="none" stroke="rgb(0, 0, 0)" stroke-opacity="1.0" stroke-linecap="round" stroke-linejoin="round"/>
    <path d="M 121.81771087646484 100.28116607666016 C 152.6864013671875 102.86154174804688 139.31521606445312 115.01007843017578 121.992919921875 97.6167984008789" stroke-width="3.0" fill="none" stroke="rgb(0, 0, 0)" stroke-opacity="1.0" stroke-linecap="round" stroke-linejoin="round"/>
    <path d="M 65.03257751464844 121.92318725585938 C 57.348731994628906 107.87690734863281 62.52555465698242 110.1246337890625 58.29438781738281 115.31298065185547" stroke-width="3.0" fill="none" stroke="rgb(0, 0, 0)" stroke-opacity="1.0" stroke-linecap="round" stroke-linejoin="round"/>
    <path d="M 124.8112564086914 75.28207397460938 C 122.30242919921875 42.41391372680664 116.85270690917969 60.60652542114258 121.39419555664062 38.106971740722656" stroke-width="3.0" fill="none" stroke="rgb(0, 0, 0)" stroke-opacity="1.0" stroke-linecap="round" stroke-linejoin="round"/>
    <path d="M 151.65863037109375 26.681718826293945 C 145.2280731201172 35.03749084472656 166.0670623779297 8.471630096435547 177.33839416503906 6.55035924911499" stroke-width="3.0" fill="none" stroke="rgb(0, 0, 0)" stroke-opacity="1.0" stroke-linecap="round" stroke-linejoin="round"/>
  </g>
</svg>
