<?xml version="1.0" ?>
<svg xmlns="http://www.w3.org/2000/svg" version="1.1" width="224" height="224">
  <defs/>
  <g>
    <path d="M 55.049068450927734 117.58709716796875 C 56.82618713378906 118.56413269042969 45.43557357788086 112.60343170166016 41.61251449584961 94.53590393066406" stroke-width="3.0" fill="none" stroke="rgb(0, 0, 0)" stroke-opacity="1.0" stroke-linecap="round" stroke-linejoin="round"/>
    <path d="M 182.9023895263672 124.1281509399414 C 183.56260681152344 109.12214660644531 181.68727111816406 112.85337829589844 186.63722229003906 118.81502532958984" stroke-width="3.0" fill="none" stroke="rgb(0, 0, 0)" stroke-opacity="1.0" stroke-linecap="round" stroke-linejoin="round"/>
    <path d="M 49.13875961303711 108.57013702392578 C 54.525962829589844 114.3370361328125 52.3440055847168 107.05017852783203 51.65633010864258 112.07260131835938" stroke-width="3.0" fill="none" stroke="rgb(0, 0, 0)" stroke-opacity="1.0" stroke-linecap="round" stroke-linejoin="round"/>
    <path d="M 187.4123077392578 100.05152893066406 C 156.9319610595703 96.26446533203125 173.49658203125 84.03004455566406 195.45364379882812 110.31748962402344" stroke-width="3.0" fill="none" stroke="rgb(0, 0, 0)" stroke-opacity="1.0" stroke-linecap="round" stroke-linejoin="round"/>
    <path d="M 184.40089416503906 72.61959838867188 C 185.17391967773438 78.41056823730469 177.5613555908203 72.80474853515625 182.11367797851562 71.44458770751953" stroke-width="3.0" fill="none" stroke="rgb(0, 0, 0)" stroke-opacity="1.0" stroke-linecap="round" stroke-linejoin="round"/>
    <path d="M 130.69558715820312 99.49744415283203 C 126.89151000976562 113.5206527709961 117.82884216308594 103.58676147460938 134.6534423828125 104.27413177490234" stroke-width="3.0" fill="none" stroke="rgb(0, 0, 0)" stroke-opacity="1.0" stroke-linecap="round" stroke-linejoin="round"/>
    <path d="M 172.94529724121094 85.92562103271484 C 198.40892028808594 68.28536987304688 190.4695587158203 72.46916198730469 162.15260314941406 84.55567932128906" stroke-width="3.0" fill="none" stroke="rgb(0, 0, 0)" stroke-opacity="1.0" stroke-linecap="round" stroke-linejoin="round"/>
    <path d="M 55.35202407836914 182.49777221679688 C 35.7405891418457 158.88162231445312 50.8217887878418 161.86245727539062 43.8765983581543 162.7296600341797" stroke-width="3.0" fill="none" stroke="rgb(0, 0, 0)" stroke-opacity="1.0" stroke-linecap="round" stroke-linejoin="round"/>
    <path d="M 68.07122802734375 189.63687133789062 C 93.90870666503906 200.81399536132812 116.23318481445312 198.9700164794922 96.36234283447266 187.6119842529297" stroke-width="3.0" fill="none" stroke="rgb(0, 0, 0)" stroke-opacity="1.0" stroke-linecap="round" stroke-linejoin="round"/>
    <path d="M 93.80921173095703 24.28334617614746 C 91.32162475585938 55.07506561279297 96.50120544433594 28.93233299255371 95.1312484741211 48.183380126953125" stroke-width="3.0" fill="none" stroke="rgb(0, 0, 0)" stroke-opacity="1.0" stroke-linecap="round" stroke-linejoin="round"/>
    <path d="M 61.22159194946289 129.3927764892578 C 69.86370086669922 143.82406616210938 78.20853424072266 147.7958221435547 82.55047607421875 149.83067321777344" stroke-width="3.0" fill="none" stroke="rgb(0, 0, 0)" stroke-opacity="1.0" stroke-linecap="round" stroke-linejoin="round"/>
    <path d="M 165.8373260498047 80.59789276123047 C 189.7961883544922 69.87093353271484 178.09957885742188 86.64107513427734 154.20741271972656 90.07335662841797" stroke-width="3.0" fill="none" stroke="rgb(0, 0, 0)" stroke-opacity="1.0" stroke-linecap="round" stroke-linejoin="round"/>
    <path d="M 156.59779357910156 101.2788314819336 C 171.90518188476562 102.47520446777344 165.26702880859375 101.5900650024414 183.29933166503906 106.9916000366211" stroke-width="3.0" fill="none" stroke="rgb(0, 0, 0)" stroke-opacity="1.0" stroke-linecap="round" stroke-linejoin="round"/>
    <path d="M 87.54426574707031 165.173095703125 C 95.14218139648438 184.0471649169922 94.92953491210938 187.0148468017578 101.00084686279297 190.27700805664062" stroke-width="3.0" fill="none" stroke="rgb(0, 0, 0)" stroke-opacity="1.0" stroke-linecap="round" stroke-linejoin="round"/>
    <path d="M 172.79898071289062 9.724014282226562 C 182.86863708496094 2.203458309173584 183.22520446777344 24.098926544189453 180.83682250976562 60.146270751953125" stroke-width="3.0" fill="none" stroke="rgb(0, 0, 0)" stroke-opacity="1.0" stroke-linecap="round" stroke-linejoin="round"/>
    <path d="M 129.7454833984375 34.52946472167969 C 123.04961395263672 57.48981857299805 130.44886779785156 32.84612274169922 127.75199890136719 60.853240966796875" stroke-width="3.0" fill="none" stroke="rgb(0, 0, 0)" stroke-opacity="1.0" stroke-linecap="round" stroke-linejoin="round"/>
    <path d="M 100.3847885131836 45.90272521972656 C 70.65336608886719 -6.607429504394531 89.4401626586914 0.37972763180732727 106.9788589477539 42.027015686035156" stroke-width="3.0" fill="none" stroke="rgb(0, 0, 0)" stroke-opacity="1.0" stroke-linecap="round" stroke-linejoin="round"/>
    <path d="M 49.15925598144531 167.2178497314453 C 36.82320022583008 161.1268768310547 51.18723678588867 161.77198791503906 44.33760070800781 163.6776580810547" stroke-width="3.0" fill="none" stroke="rgb(0, 0, 0)" stroke-opacity="1.0" stroke-linecap="round" stroke-linejoin="round"/>
    <path d="M 33.50146484375 110.86182403564453 C 28.614303588867188 130.3501739501953 35.09232711791992 140.7023468017578 44.19954299926758 156.46278381347656" stroke-width="3.0" fill="none" stroke="rgb(0, 0, 0)" stroke-opacity="1.0" stroke-linecap="round" stroke-linejoin="round"/>
    <path d="M 77.90367126464844 154.4464569091797 C 88.60485076904297 164.92547607421875 86.91136932373047 167.93980407714844 83.43085479736328 159.1558837890625" stroke-width="3.0" fill="none" stroke="rgb(0, 0, 0)" stroke-opacity="1.0" stroke-linecap="round" stroke-linejoin="round"/>
    <path d="M 75.85981750488281 194.5409698486328 C 48.99192428588867 177.28614807128906 71.01422119140625 192.10922241210938 47.92201232910156 173.68650817871094" stroke-width="3.0" fill="none" stroke="rgb(0, 0, 0)" stroke-opacity="1.0" stroke-linecap="round" stroke-linejoin="round"/>
    <path d="M 43.24554443359375 158.87979125976562 C 47.062557220458984 167.17120361328125 38.68107223510742 156.4715118408203 37.394893646240234 145.67913818359375" stroke-width="3.0" fill="none" stroke="rgb(0, 0, 0)" stroke-opacity="1.0" stroke-linecap="round" stroke-linejoin="round"/>
    <path d="M 66.3063735961914 60.14334487915039 C 46.662384033203125 73.36329650878906 48.326812744140625 74.36127471923828 32.86334991455078 105.70215606689453" stroke-width="3.0" fill="none" stroke="rgb(0, 0, 0)" stroke-opacity="1.0" stroke-linecap="round" stroke-linejoin="round"/>
    <path d="M 143.9323272705078 160.66940307617188 C 133.5242156982422 159.65516662597656 126.9205093383789 150.63827514648438 139.16900634765625 165.05931091308594" stroke-width="3.0" fill="none" stroke="rgb(0, 0, 0)" stroke-opacity="1.0" stroke-linecap="round" stroke-linejoin="round"/>
    <path d="M 140.5149383544922 34.10232162475586 C 149.91717529296875 52.05171203613281 133.33462524414062 49.00883865356445 138.22842407226562 84.58000946044922" stroke-width="3.0" fill="none" stroke="rgb(0, 0, 0)" stroke-opacity="1.0" stroke-linecap="round" stroke-linejoin="round"/>
    <path d="M 146.5008087158203 97.70579528808594 C 133.61585998535156 113.32453155517578 114.23429870605469 104.3818359375 128.2687225341797 104.17472076416016" stroke-width="3.0" fill="none" stroke="rgb(0, 0, 0)" stroke-opacity="1.0" stroke-linecap="round" stroke-linejoin="round"/>
    <path d="M 138.53797912597656 73.55523681640625 C 141.40492248535156 51.46977996826172 150.2400360107422 53.409423828125 150.9062042236328 48.22731018066406" stroke-width="3.0" fill="none" stroke="rgb(0, 0, 0)" stroke-opacity="1.0" stroke-linecap="round" stroke-linejoin="round"/>
    <path d="M 108.40838623046875 192.98377990722656 C 84.60269165039062 182.89923095703125 100.62080383300781 207.8146514892578 132.28091430664062 182.59934997558594" stroke-width="3.0" fill="none" stroke="rgb(0, 0, 0)" stroke-opacity="1.0" stroke-linecap="round" stroke-linejoin="round"/>
    <path d="M 188.6745147705078 92.54695892333984 C 158.50994873046875 88.24413299560547 162.28822326660156 90.32843780517578 175.5972442626953 79.21378326416016" stroke-width="3.0" fill="none" stroke="rgb(0, 0, 0)" stroke-opacity="1.0" stroke-linecap="round" stroke-linejoin="round"/>
    <path d="M 171.49578857421875 85.32792663574219 C 189.8089599609375 75.93122863769531 196.82611083984375 85.89654541015625 165.3987274169922 81.47344207763672" stroke-width="3.0" fill="none" stroke="rgb(0, 0, 0)" stroke-opacity="1.0" stroke-linecap="round" stroke-linejoin="round"/>
    <path d="M 109.32369232177734 75.9749755859375 C 88.57183074951172 71.20381164550781 140.2122039794922 73.13877868652344 107.6844253540039 78.52212524414062" stroke-width="3.0" fill="none" stroke="rgb(0, 0, 0)" stroke-opacity="1.0" stroke-linecap="round" stroke-linejoin="round"/>
    <path d="M 135.88284301757812 159.87159729003906 C 139.83346557617188 158.95179748535156 129.4105224609375 158.09194946289062 109.72603607177734 142.4130096435547" stroke-width="3.0" fill="none" stroke="rgb(0, 0, 0)" stroke-opacity="1.0" stroke-linecap="round" stroke-linejoin="round"/>
    <path d="M 121.65729522705078 89.14974975585938 C 142.0598907470703 100.34303283691406 131.3148956298828 78.2001953125 128.51010131835938 97.80229187011719" stroke-width="3.0" fill="none" stroke="rgb(0, 0, 0)" stroke-opacity="1.0" stroke-linecap="round" stroke-linejoin="round"/>
    <path d="M 187.81539916992188 95.5361328125 C 174.1597137451172 89.49070739746094 185.6541290283203 96.95472717285156 142.86624145507812 88.52567291259766" stroke-width="3.0" fill="none" stroke="rgb(0, 0, 0)" stroke-opacity="1.0" stroke-linecap="round" stroke-linejoin="round"/>
    <path d="M 85.85501098632812 9.925312995910645 C 108.95948791503906 19.520118713378906 116.52811431884766 37.179931640625 122.56999206542969 31.591867446899414" stroke-width="3.0" fill="none" stroke="rgb(0, 0, 0)" stroke-opacity="1.0" stroke-linecap="round" stroke-linejoin="round"/>
    <path d="M 51.26970291137695 111.60611724853516 C 50.12685775756836 108.41886138916016 59.89129638671875 121.1290054321289 51.895713806152344 113.23030853271484" stroke-width="3.0" fill="none" stroke="rgb(0, 0, 0)" stroke-opacity="1.0" stroke-linecap="round" stroke-linejoin="round"/>
    <path d="M 119.30580139160156 104.1990737915039 C 94.57112121582031 95.56326293945312 127.2023696899414 108.56819152832031 102.14385223388672 97.43101501464844" stroke-width="3.0" fill="none" stroke="rgb(0, 0, 0)" stroke-opacity="1.0" stroke-linecap="round" stroke-linejoin="round"/>
    <path d="M 31.44524574279785 119.37413024902344 C 35.85227966308594 95.2048110961914 32.369930267333984 102.48558807373047 32.25284957885742 113.47173309326172" stroke-width="3.0" fill="none" stroke="rgb(0, 0, 0)" stroke-opacity="1.0" stroke-linecap="round" stroke-linejoin="round"/>
    <path d="M 84.5891342163086 197.59036254882812 C 74.84162139892578 193.82814025878906 75.35934448242188 195.59751892089844 89.54639434814453 197.92300415039062" stroke-width="3.0" fill="none" stroke="rgb(0, 0, 0)" stroke-opacity="1.0" stroke-linecap="round" stroke-linejoin="round"/>
    <path d="M 164.81480407714844 137.4907684326172 C 202.04354858398438 110.02540588378906 174.98239135742188 97.2094955444336 149.9088897705078 94.28559875488281" stroke-width="3.0" fill="none" stroke="rgb(0, 0, 0)" stroke-opacity="1.0" stroke-linecap="round" stroke-linejoin="round"/>
    <path d="M 153.79052734375 76.55797576904297 C 134.102783203125 63.17291259765625 157.6245574951172 89.4859619140625 154.07479858398438 71.85466003417969" stroke-width="3.0" fill="none" stroke="rgb(0, 0, 0)" stroke-opacity="1.0" stroke-linecap="round" stroke-linejoin="round"/>
    <path d="M 143.90692138671875 75.91084289550781 C 147.4229736328125 57.95158004760742 168.27407836914062 80.38431549072266 180.86856079101562 69.23545837402344" stroke-width="3.0" fill="none" stroke="rgb(0, 0, 0)" stroke-opacity="1.0" stroke-linecap="round" stroke-linejoin="round"/>
    <path d="M 152.3933868408203 100.0978012084961 C 155.02322387695312 99.40559387207031 170.30001831054688 107.77810668945312 183.10186767578125 114.41507720947266" stroke-width="3.0" fill="none" stroke="rgb(0, 0, 0)" stroke-opacity="1.0" stroke-linecap="round" stroke-linejoin="round"/>
    <path d="M 176.14036560058594 17.855579376220703 C 171.4438934326172 41.56730270385742 174.3575439453125 24.36820411682129 161.65565490722656 36.86562728881836" stroke-width="3.0" fill="none" stroke="rgb(0, 0, 0)" stroke-opacity="1.0" stroke-linecap="round" stroke-linejoin="round"/>
    <path d="M 126.18849182128906 107.3355941772461 C 143.79872131347656 110.8271713256836 132.38848876953125 91.67886352539062 115.20822143554688 108.82814025878906" stroke-width="3.0" fill="none" stroke="rgb(0, 0, 0)" stroke-opacity="1.0" stroke-linecap="round" stroke-linejoin="round"/>
    <path d="M 47.09075927734375 106.66502380371094 C 52.46464920043945 110.66883087158203 47.241477966308594 106.61589050292969 58.505619049072266 128.4935302734375" stroke-width="3.0" fill="none" stroke="rgb(0, 0, 0)" stroke-opacity="1.0" stroke-linecap="round" stroke-linejoin="round"/>
    <path d="M 120.14812469482422 82.03202819824219 C 131.46096801757812 59.4466552734375 113.97575378417969 49.7022819519043 114.89898681640625 39.0620002746582" stroke-width="3.0" fill="none" stroke="rgb(0, 0, 0)" stroke-opacity="1.0" stroke-linecap="round" stroke-linejoin="round"/>
    <path d="M 146.42662048339844 33.22541809082031 C 154.72645568847656 29.0203800201416 149.47171020507812 19.98656463623047 174.32908630371094 8.775979995727539" stroke-width="3.0" fill="none" stroke="rgb(0, 0, 0)" stroke-opacity="1.0" stroke-linecap="round" stroke-linejoin="round"/>
  </g>
</svg>
