<?xml version="1.0" ?>
<svg xmlns="http://www.w3.org/2000/svg" version="1.1" width="224" height="224">
  <defs/>
  <g>
    <path d="M 65.9567642211914 98.83903503417969 C 65.1123275756836 96.43090057373047 59.3509521484375 98.68494415283203 54.7692985534668 94.26783752441406" stroke-width="3.0" fill="none" stroke="rgb(0, 0, 0)" stroke-opacity="1.0" stroke-linecap="round" stroke-linejoin="round"/>
    <path d="M 179.3509063720703 131.1894073486328 C 176.54734802246094 119.45153045654297 172.93609619140625 123.13346099853516 181.86158752441406 127.65872192382812" stroke-width="3.0" fill="none" stroke="rgb(0, 0, 0)" stroke-opacity="1.0" stroke-linecap="round" stroke-linejoin="round"/>
    <path d="M 55.53445053100586 109.63614654541016 C 49.85500717163086 110.53904724121094 48.606529235839844 101.18456268310547 51.62910842895508 106.8476791381836" stroke-width="3.0" fill="none" stroke="rgb(0, 0, 0)" stroke-opacity="1.0" stroke-linecap="round" stroke-linejoin="round"/>
    <path d="M 176.45059204101562 96.17259216308594 C 168.30545043945312 112.27754211425781 164.4293975830078 95.22000885009766 184.63951110839844 115.78829193115234" stroke-width="3.0" fill="none" stroke="rgb(0, 0, 0)" stroke-opacity="1.0" stroke-linecap="round" stroke-linejoin="round"/>
    <path d="M 181.41604614257812 77.15499877929688 C 182.91946411132812 81.95379638671875 177.91175842285156 74.28375244140625 186.12135314941406 86.29733276367188" stroke-width="3.0" fill="none" stroke="rgb(0, 0, 0)" stroke-opacity="1.0" stroke-linecap="round" stroke-linejoin="round"/>
    <path d="M 129.420166015625 106.50518035888672 C 120.8982925415039 112.22279357910156 120.4583740234375 105.8489761352539 121.85352325439453 106.7117919921875" stroke-width="3.0" fill="none" stroke="rgb(0, 0, 0)" stroke-opacity="1.0" stroke-linecap="round" stroke-linejoin="round"/>
    <path d="M 171.6913299560547 82.0210952758789 C 185.21043395996094 86.50206756591797 180.08438110351562 83.81694030761719 159.57818603515625 89.0243911743164" stroke-width="3.0" fill="none" stroke="rgb(0, 0, 0)" stroke-opacity="1.0" stroke-linecap="round" stroke-linejoin="round"/>
    <path d="M 58.57707214355469 176.34249877929688 C 55.07650375366211 164.45755004882812 55.57822036743164 181.28857421875 58.87533187866211 166.31063842773438" stroke-width="3.0" fill="none" stroke="rgb(0, 0, 0)" stroke-opacity="1.0" stroke-linecap="round" stroke-linejoin="round"/>
    <path d="M 78.54945373535156 189.82400512695312 C 77.36542510986328 189.80567932128906 86.4764633178711 186.8176727294922 82.19619750976562 184.3662872314453" stroke-width="3.0" fill="none" stroke="rgb(0, 0, 0)" stroke-opacity="1.0" stroke-linecap="round" stroke-linejoin="round"/>
    <path d="M 83.42817687988281 51.37653732299805 C 80.0500259399414 74.07538604736328 84.1192855834961 86.86026763916016 82.79893493652344 72.141357421875" stroke-width="3.0" fill="none" stroke="rgb(0, 0, 0)" stroke-opacity="1.0" stroke-linecap="round" stroke-linejoin="round"/>
    <path d="M 72.76593017578125 143.7133026123047 C 72.95611572265625 150.3555450439453 76.6632080078125 147.68246459960938 77.58849334716797 151.5560302734375" stroke-width="3.0" fill="none" stroke="rgb(0, 0, 0)" stroke-opacity="1.0" stroke-linecap="round" stroke-linejoin="round"/>
    <path d="M 174.2569122314453 91.51535034179688 C 182.36660766601562 83.67150115966797 176.765380859375 91.70033264160156 153.3868865966797 91.61894226074219" stroke-width="3.0" fill="none" stroke="rgb(0, 0, 0)" stroke-opacity="1.0" stroke-linecap="round" stroke-linejoin="round"/>
    <path d="M 153.5587158203125 101.64285278320312 C 174.16172790527344 100.28910064697266 159.72911071777344 102.166748046875 176.78936767578125 102.34603881835938" stroke-width="3.0" fill="none" stroke="rgb(0, 0, 0)" stroke-opacity="1.0" stroke-linecap="round" stroke-linejoin="round"/>
    <path d="M 85.52819061279297 174.9326171875 C 89.06849670410156 180.2738037109375 98.05868530273438 181.2667999267578 97.96451568603516 187.09710693359375" stroke-width="3.0" fill="none" stroke="rgb(0, 0, 0)" stroke-opacity="1.0" stroke-linecap="round" stroke-linejoin="round"/>
    <path d="M 174.56900024414062 17.839326858520508 C 178.86138916015625 11.64457893371582 181.2991485595703 29.899038314819336 176.43472290039062 51.77017593383789" stroke-width="3.0" fill="none" stroke="rgb(0, 0, 0)" stroke-opacity="1.0" stroke-linecap="round" stroke-linejoin="round"/>
    <path d="M 127.14608001708984 34.9433479309082 C 125.74192810058594 50.12650680541992 129.2105712890625 44.53828048706055 130.09060668945312 52.45753860473633" stroke-width="3.0" fill="none" stroke="rgb(0, 0, 0)" stroke-opacity="1.0" stroke-linecap="round" stroke-linejoin="round"/>
    <path d="M 87.12870025634766 38.337989807128906 C 83.9438247680664 -7.743494033813477 89.45327758789062 4.895524501800537 96.07044219970703 47.76480484008789" stroke-width="3.0" fill="none" stroke="rgb(0, 0, 0)" stroke-opacity="1.0" stroke-linecap="round" stroke-linejoin="round"/>
    <path d="M 47.540916442871094 165.22561645507812 C 44.0090217590332 155.96270751953125 41.469940185546875 159.97409057617188 45.96519470214844 155.17633056640625" stroke-width="3.0" fill="none" stroke="rgb(0, 0, 0)" stroke-opacity="1.0" stroke-linecap="round" stroke-linejoin="round"/>
    <path d="M 48.06414031982422 137.16136169433594 C 54.03052520751953 136.04742431640625 39.007999420166016 143.3970947265625 41.859310150146484 140.86436462402344" stroke-width="3.0" fill="none" stroke="rgb(0, 0, 0)" stroke-opacity="1.0" stroke-linecap="round" stroke-linejoin="round"/>
    <path d="M 72.04183197021484 164.23867797851562 C 73.90734100341797 161.59146118164062 74.97557830810547 162.26956176757812 74.36067199707031 162.12283325195312" stroke-width="3.0" fill="none" stroke="rgb(0, 0, 0)" stroke-opacity="1.0" stroke-linecap="round" stroke-linejoin="round"/>
    <path d="M 71.6964340209961 188.7259521484375 C 65.7406997680664 170.1434783935547 76.20750427246094 188.68838500976562 66.2085952758789 173.380126953125" stroke-width="3.0" fill="none" stroke="rgb(0, 0, 0)" stroke-opacity="1.0" stroke-linecap="round" stroke-linejoin="round"/>
    <path d="M 45.00956344604492 159.12095642089844 C 50.26150894165039 159.72804260253906 42.58687973022461 146.65699768066406 48.16610336303711 154.85340881347656" stroke-width="3.0" fill="none" stroke="rgb(0, 0, 0)" stroke-opacity="1.0" stroke-linecap="round" stroke-linejoin="round"/>
    <path d="M 66.99834442138672 68.55231475830078 C 51.97136306762695 85.05601501464844 60.6280517578125 72.44219970703125 44.211753845214844 106.04339599609375" stroke-width="3.0" fill="none" stroke="rgb(0, 0, 0)" stroke-opacity="1.0" stroke-linecap="round" stroke-linejoin="round"/>
    <path d="M 145.5464630126953 159.8022003173828 C 126.19029235839844 148.283935546875 129.6234588623047 138.6543731689453 133.90863037109375 157.15716552734375" stroke-width="3.0" fill="none" stroke="rgb(0, 0, 0)" stroke-opacity="1.0" stroke-linecap="round" stroke-linejoin="round"/>
    <path d="M 139.2461395263672 36.50273895263672 C 135.50442504882812 51.595550537109375 137.66329956054688 67.8233642578125 137.26708984375 76.42425537109375" stroke-width="3.0" fill="none" stroke="rgb(0, 0, 0)" stroke-opacity="1.0" stroke-linecap="round" stroke-linejoin="round"/>
    <path d="M 143.65614318847656 102.92302703857422 C 134.69061279296875 113.87491607666016 120.78714752197266 108.35675811767578 122.68507385253906 110.4163818359375" stroke-width="3.0" fill="none" stroke="rgb(0, 0, 0)" stroke-opacity="1.0" stroke-linecap="round" stroke-linejoin="round"/>
    <path d="M 145.03775024414062 68.14315032958984 C 144.1413116455078 60.6459846496582 156.2008056640625 52.17692947387695 153.2062225341797 54.087215423583984" stroke-width="3.0" fill="none" stroke="rgb(0, 0, 0)" stroke-opacity="1.0" stroke-linecap="round" stroke-linejoin="round"/>
    <path d="M 105.36319732666016 185.8019561767578 C 95.92841339111328 177.41128540039062 77.55023956298828 182.9923553466797 128.5400390625 185.4288787841797" stroke-width="3.0" fill="none" stroke="rgb(0, 0, 0)" stroke-opacity="1.0" stroke-linecap="round" stroke-linejoin="round"/>
    <path d="M 182.6061553955078 86.33436584472656 C 184.5199432373047 82.10775756835938 177.5282745361328 95.90928649902344 179.5344696044922 84.9771499633789" stroke-width="3.0" fill="none" stroke="rgb(0, 0, 0)" stroke-opacity="1.0" stroke-linecap="round" stroke-linejoin="round"/>
    <path d="M 175.82122802734375 89.27241516113281 C 177.87594604492188 88.93534851074219 180.7965850830078 93.28032684326172 176.03945922851562 92.2842025756836" stroke-width="3.0" fill="none" stroke="rgb(0, 0, 0)" stroke-opacity="1.0" stroke-linecap="round" stroke-linejoin="round"/>
    <path d="M 108.94398498535156 77.97801208496094 C 94.84063720703125 70.40840911865234 129.7723388671875 76.3746109008789 107.87178039550781 82.06813049316406" stroke-width="3.0" fill="none" stroke="rgb(0, 0, 0)" stroke-opacity="1.0" stroke-linecap="round" stroke-linejoin="round"/>
    <path d="M 128.3282470703125 153.23831176757812 C 121.10102081298828 138.53207397460938 125.86177825927734 147.75372314453125 124.947021484375 150.45555114746094" stroke-width="3.0" fill="none" stroke="rgb(0, 0, 0)" stroke-opacity="1.0" stroke-linecap="round" stroke-linejoin="round"/>
    <path d="M 124.29368591308594 92.0287094116211 C 141.75827026367188 103.90766906738281 132.6123046875 79.8221435546875 128.9367218017578 101.41861724853516" stroke-width="3.0" fill="none" stroke="rgb(0, 0, 0)" stroke-opacity="1.0" stroke-linecap="round" stroke-linejoin="round"/>
    <path d="M 174.50048828125 101.79109191894531 C 170.92156982421875 88.26422882080078 178.57664489746094 99.51605224609375 151.20944213867188 96.26235961914062" stroke-width="3.0" fill="none" stroke="rgb(0, 0, 0)" stroke-opacity="1.0" stroke-linecap="round" stroke-linejoin="round"/>
    <path d="M 87.91875457763672 8.395023345947266 C 103.99781799316406 20.79012107849121 115.55044555664062 31.50339126586914 114.26136016845703 35.95923614501953" stroke-width="3.0" fill="none" stroke="rgb(0, 0, 0)" stroke-opacity="1.0" stroke-linecap="round" stroke-linejoin="round"/>
    <path d="M 53.74163055419922 108.47994232177734 C 53.06226348876953 109.67160034179688 65.07466125488281 118.40646362304688 55.273460388183594 110.59378051757812" stroke-width="3.0" fill="none" stroke="rgb(0, 0, 0)" stroke-opacity="1.0" stroke-linecap="round" stroke-linejoin="round"/>
    <path d="M 117.70037078857422 106.78018188476562 C 98.97390747070312 106.37831115722656 117.28766632080078 104.24868774414062 104.80162048339844 103.46016693115234" stroke-width="3.0" fill="none" stroke="rgb(0, 0, 0)" stroke-opacity="1.0" stroke-linecap="round" stroke-linejoin="round"/>
    <path d="M 39.444278717041016 119.45830535888672 C 44.653316497802734 100.6015396118164 45.12432098388672 104.08794403076172 41.07670593261719 109.77600860595703" stroke-width="3.0" fill="none" stroke="rgb(0, 0, 0)" stroke-opacity="1.0" stroke-linecap="round" stroke-linejoin="round"/>
    <path d="M 83.3945541381836 184.03501892089844 C 78.58153533935547 190.11993408203125 76.32099151611328 191.80575561523438 83.47183227539062 181.83006286621094" stroke-width="3.0" fill="none" stroke="rgb(0, 0, 0)" stroke-opacity="1.0" stroke-linecap="round" stroke-linejoin="round"/>
    <path d="M 173.70382690429688 127.6249008178711 C 171.00572204589844 117.51020812988281 166.2068634033203 103.76904296875 147.46315002441406 100.30085754394531" stroke-width="3.0" fill="none" stroke="rgb(0, 0, 0)" stroke-opacity="1.0" stroke-linecap="round" stroke-linejoin="round"/>
    <path d="M 140.59844970703125 80.9572982788086 C 153.5635223388672 77.15382385253906 134.75271606445312 86.48265075683594 152.7642822265625 79.78581237792969" stroke-width="3.0" fill="none" stroke="rgb(0, 0, 0)" stroke-opacity="1.0" stroke-linecap="round" stroke-linejoin="round"/>
    <path d="M 160.69471740722656 70.96639251708984 C 169.85585021972656 70.64413452148438 177.29827880859375 74.04463958740234 180.8101348876953 71.85932922363281" stroke-width="3.0" fill="none" stroke="rgb(0, 0, 0)" stroke-opacity="1.0" stroke-linecap="round" stroke-linejoin="round"/>
    <path d="M 141.63563537597656 110.98692321777344 C 150.4812774658203 118.24266815185547 154.5105438232422 115.11209106445312 151.19418334960938 116.3747787475586" stroke-width="3.0" fill="none" stroke="rgb(0, 0, 0)" stroke-opacity="1.0" stroke-linecap="round" stroke-linejoin="round"/>
    <path d="M 170.42503356933594 24.30504035949707 C 165.7977294921875 41.17023468017578 156.59515380859375 35.41560363769531 170.42713928222656 49.061649322509766" stroke-width="3.0" fill="none" stroke="rgb(0, 0, 0)" stroke-opacity="1.0" stroke-linecap="round" stroke-linejoin="round"/>
    <path d="M 124.19386291503906 112.56537628173828 C 144.7451171875 105.51653289794922 124.5256576538086 104.70547485351562 114.64517211914062 113.79351806640625" stroke-width="3.0" fill="none" stroke="rgb(0, 0, 0)" stroke-opacity="1.0" stroke-linecap="round" stroke-linejoin="round"/>
    <path d="M 51.38189697265625 107.950927734375 C 49.095787048339844 104.15939331054688 43.32068634033203 104.51345825195312 61.329612731933594 123.62767028808594" stroke-width="3.0" fill="none" stroke="rgb(0, 0, 0)" stroke-opacity="1.0" stroke-linecap="round" stroke-linejoin="round"/>
    <path d="M 123.99376678466797 75.89031982421875 C 125.00487518310547 61.3632926940918 115.68659210205078 60.904727935791016 110.17074584960938 61.0716438293457" stroke-width="3.0" fill="none" stroke="rgb(0, 0, 0)" stroke-opacity="1.0" stroke-linecap="round" stroke-linejoin="round"/>
    <path d="M 147.27105712890625 34.3915901184082 C 160.08702087402344 26.6694393157959 151.56448364257812 20.51277732849121 176.22959899902344 13.489602088928223" stroke-width="3.0" fill="none" stroke="rgb(0, 0, 0)" stroke-opacity="1.0" stroke-linecap="round" stroke-linejoin="round"/>
  </g>
</svg>
