<?xml version="1.0" ?>
<svg xmlns="http://www.w3.org/2000/svg" version="1.1" width="224" height="224">
  <defs/>
  <g>
    <path d="M 57.32939529418945 99.70099639892578 C 59.47214889526367 87.41131591796875 52.3121337890625 99.13993835449219 51.93498992919922 75.83460998535156" stroke-width="3.0" fill="none" stroke="rgb(0, 0, 0)" stroke-opacity="1.0" stroke-linecap="round" stroke-linejoin="round"/>
    <path d="M 186.35914611816406 118.62628173828125 C 183.04714965820312 115.93313598632812 195.63638305664062 80.23380279541016 181.7308807373047 123.82990264892578" stroke-width="3.0" fill="none" stroke="rgb(0, 0, 0)" stroke-opacity="1.0" stroke-linecap="round" stroke-linejoin="round"/>
    <path d="M 56.032737731933594 111.30484008789062 C 63.895198822021484 97.779052734375 54.99110412597656 127.27029418945312 69.8353042602539 131.09922790527344" stroke-width="3.0" fill="none" stroke="rgb(0, 0, 0)" stroke-opacity="1.0" stroke-linecap="round" stroke-linejoin="round"/>
    <path d="M 182.23336791992188 96.36917114257812 C 140.48388671875 86.15528869628906 181.65162658691406 85.38848876953125 190.7398223876953 107.72711944580078" stroke-width="3.0" fill="none" stroke="rgb(0, 0, 0)" stroke-opacity="1.0" stroke-linecap="round" stroke-linejoin="round"/>
    <path d="M 182.1310272216797 60.67778396606445 C 183.85064697265625 97.56696319580078 177.73391723632812 99.3017349243164 180.27566528320312 72.7421875" stroke-width="3.0" fill="none" stroke="rgb(0, 0, 0)" stroke-opacity="1.0" stroke-linecap="round" stroke-linejoin="round"/>
    <path d="M 120.90692901611328 100.20578002929688 C 146.78530883789062 112.41299438476562 108.45938110351562 98.7730712890625 139.81121826171875 97.56429290771484" stroke-width="3.0" fill="none" stroke="rgb(0, 0, 0)" stroke-opacity="1.0" stroke-linecap="round" stroke-linejoin="round"/>
    <path d="M 185.67921447753906 89.55066680908203 C 183.08250427246094 77.68490600585938 191.6869354248047 72.92268371582031 144.92910766601562 88.82564544677734" stroke-width="3.0" fill="none" stroke="rgb(0, 0, 0)" stroke-opacity="1.0" stroke-linecap="round" stroke-linejoin="round"/>
    <path d="M 64.78543853759766 190.03758239746094 C 38.293758392333984 163.92642211914062 51.149658203125 168.21726989746094 48.215538024902344 171.10369873046875" stroke-width="3.0" fill="none" stroke="rgb(0, 0, 0)" stroke-opacity="1.0" stroke-linecap="round" stroke-linejoin="round"/>
    <path d="M 56.71331024169922 182.52423095703125 C 90.95018768310547 208.8031005859375 124.99551391601562 196.11329650878906 136.6314239501953 171.2682342529297" stroke-width="3.0" fill="none" stroke="rgb(0, 0, 0)" stroke-opacity="1.0" stroke-linecap="round" stroke-linejoin="round"/>
    <path d="M 85.7078628540039 33.2647590637207 C 95.18155670166016 80.25257110595703 82.35171508789062 13.586849212646484 85.90840911865234 56.88711929321289" stroke-width="3.0" fill="none" stroke="rgb(0, 0, 0)" stroke-opacity="1.0" stroke-linecap="round" stroke-linejoin="round"/>
    <path d="M 51.412105560302734 81.72004699707031 C 69.2450942993164 143.1055908203125 71.92523193359375 145.21510314941406 68.3621597290039 135.42507934570312" stroke-width="3.0" fill="none" stroke="rgb(0, 0, 0)" stroke-opacity="1.0" stroke-linecap="round" stroke-linejoin="round"/>
    <path d="M 148.68939208984375 69.17428588867188 C 203.20474243164062 64.23570251464844 193.90167236328125 89.06082153320312 138.01341247558594 83.71174621582031" stroke-width="3.0" fill="none" stroke="rgb(0, 0, 0)" stroke-opacity="1.0" stroke-linecap="round" stroke-linejoin="round"/>
    <path d="M 151.78477478027344 93.24955749511719 C 179.827880859375 102.99928283691406 183.46165466308594 100.05545043945312 196.35791015625 113.95121765136719" stroke-width="3.0" fill="none" stroke="rgb(0, 0, 0)" stroke-opacity="1.0" stroke-linecap="round" stroke-linejoin="round"/>
    <path d="M 119.71893310546875 154.4275360107422 C 152.03933715820312 154.8473663330078 108.00680541992188 147.8060302734375 97.30634307861328 156.19073486328125" stroke-width="3.0" fill="none" stroke="rgb(0, 0, 0)" stroke-opacity="1.0" stroke-linecap="round" stroke-linejoin="round"/>
    <path d="M 178.91749572753906 8.225078582763672 C 193.15960693359375 25.491695404052734 172.9346923828125 72.801513671875 179.6327667236328 57.03458023071289" stroke-width="3.0" fill="none" stroke="rgb(0, 0, 0)" stroke-opacity="1.0" stroke-linecap="round" stroke-linejoin="round"/>
    <path d="M 136.4579620361328 31.678945541381836 C 103.14299011230469 28.3742733001709 136.05821228027344 37.56116485595703 123.95063781738281 69.75359344482422" stroke-width="3.0" fill="none" stroke="rgb(0, 0, 0)" stroke-opacity="1.0" stroke-linecap="round" stroke-linejoin="round"/>
    <path d="M 96.833740234375 45.359310150146484 C 68.98728942871094 -4.693966388702393 82.7010269165039 8.46854305267334 119.8710708618164 38.31818389892578" stroke-width="3.0" fill="none" stroke="rgb(0, 0, 0)" stroke-opacity="1.0" stroke-linecap="round" stroke-linejoin="round"/>
    <path d="M 46.325077056884766 165.7500762939453 C 41.23237228393555 155.5037841796875 38.42042541503906 147.911376953125 48.92324447631836 171.69923400878906" stroke-width="3.0" fill="none" stroke="rgb(0, 0, 0)" stroke-opacity="1.0" stroke-linecap="round" stroke-linejoin="round"/>
    <path d="M 42.42263412475586 96.7174072265625 C 19.382841110229492 135.52178955078125 40.79204559326172 143.85821533203125 45.352149963378906 163.62152099609375" stroke-width="3.0" fill="none" stroke="rgb(0, 0, 0)" stroke-opacity="1.0" stroke-linecap="round" stroke-linejoin="round"/>
    <path d="M 70.64852905273438 138.3928680419922 C 108.05349731445312 163.86627197265625 87.89823913574219 150.8206024169922 91.25521850585938 147.72738647460938" stroke-width="3.0" fill="none" stroke="rgb(0, 0, 0)" stroke-opacity="1.0" stroke-linecap="round" stroke-linejoin="round"/>
    <path d="M 90.66761779785156 196.2461700439453 C 70.43180847167969 201.34971618652344 49.165401458740234 174.8453369140625 47.8606071472168 170.20809936523438" stroke-width="3.0" fill="none" stroke="rgb(0, 0, 0)" stroke-opacity="1.0" stroke-linecap="round" stroke-linejoin="round"/>
    <path d="M 49.77246856689453 174.57493591308594 C 67.81884002685547 194.01510620117188 45.466697692871094 171.80130004882812 38.29102325439453 148.79454040527344" stroke-width="3.0" fill="none" stroke="rgb(0, 0, 0)" stroke-opacity="1.0" stroke-linecap="round" stroke-linejoin="round"/>
    <path d="M 80.72427368164062 52.401058197021484 C 63.28617477416992 54.8561897277832 51.95550537109375 74.41680145263672 32.19868850708008 112.17552947998047" stroke-width="3.0" fill="none" stroke="rgb(0, 0, 0)" stroke-opacity="1.0" stroke-linecap="round" stroke-linejoin="round"/>
    <path d="M 156.58953857421875 140.01939392089844 C 112.8890151977539 159.70428466796875 102.00450134277344 154.5195770263672 147.69920349121094 148.50904846191406" stroke-width="3.0" fill="none" stroke="rgb(0, 0, 0)" stroke-opacity="1.0" stroke-linecap="round" stroke-linejoin="round"/>
    <path d="M 150.62620544433594 29.096851348876953 C 135.8661651611328 37.50210189819336 127.21900939941406 13.353348731994629 138.20423889160156 86.55611419677734" stroke-width="3.0" fill="none" stroke="rgb(0, 0, 0)" stroke-opacity="1.0" stroke-linecap="round" stroke-linejoin="round"/>
    <path d="M 140.1697540283203 92.50333404541016 C 135.93710327148438 106.00756072998047 125.85704803466797 100.23685455322266 118.0098648071289 99.42804718017578" stroke-width="3.0" fill="none" stroke="rgb(0, 0, 0)" stroke-opacity="1.0" stroke-linecap="round" stroke-linejoin="round"/>
    <path d="M 134.93267822265625 77.57416534423828 C 138.29266357421875 59.13056182861328 126.82131958007812 74.64041900634766 137.57476806640625 80.19441223144531" stroke-width="3.0" fill="none" stroke="rgb(0, 0, 0)" stroke-opacity="1.0" stroke-linecap="round" stroke-linejoin="round"/>
    <path d="M 140.18263244628906 165.8417510986328 C 132.48606872558594 183.32481384277344 140.83738708496094 172.53663635253906 145.65420532226562 147.6764373779297" stroke-width="3.0" fill="none" stroke="rgb(0, 0, 0)" stroke-opacity="1.0" stroke-linecap="round" stroke-linejoin="round"/>
    <path d="M 193.98667907714844 95.77644348144531 C 162.72433471679688 74.66605377197266 169.67050170898438 81.36249542236328 183.0665740966797 94.25105285644531" stroke-width="3.0" fill="none" stroke="rgb(0, 0, 0)" stroke-opacity="1.0" stroke-linecap="round" stroke-linejoin="round"/>
    <path d="M 155.41090393066406 68.54116821289062 C 120.597900390625 58.29696273803711 203.46495056152344 89.98233795166016 180.34243774414062 67.21514892578125" stroke-width="3.0" fill="none" stroke="rgb(0, 0, 0)" stroke-opacity="1.0" stroke-linecap="round" stroke-linejoin="round"/>
    <path d="M 114.73125457763672 80.45016479492188 C 92.27440643310547 72.55233764648438 137.18344116210938 77.76325988769531 109.2848892211914 82.70594024658203" stroke-width="3.0" fill="none" stroke="rgb(0, 0, 0)" stroke-opacity="1.0" stroke-linecap="round" stroke-linejoin="round"/>
    <path d="M 166.06454467773438 129.45127868652344 C 149.71914672851562 158.90740966796875 106.93734741210938 150.63174438476562 106.06700134277344 157.49951171875" stroke-width="3.0" fill="none" stroke="rgb(0, 0, 0)" stroke-opacity="1.0" stroke-linecap="round" stroke-linejoin="round"/>
    <path d="M 124.56072235107422 88.0718994140625 C 137.8334197998047 98.216796875 127.6443099975586 72.78341674804688 129.15435791015625 103.94056701660156" stroke-width="3.0" fill="none" stroke="rgb(0, 0, 0)" stroke-opacity="1.0" stroke-linecap="round" stroke-linejoin="round"/>
    <path d="M 186.19631958007812 111.40251922607422 C 161.724609375 86.37418365478516 188.24685668945312 87.46643829345703 150.29931640625 87.62027740478516" stroke-width="3.0" fill="none" stroke="rgb(0, 0, 0)" stroke-opacity="1.0" stroke-linecap="round" stroke-linejoin="round"/>
    <path d="M 88.5705795288086 9.690982818603516 C 116.26554870605469 14.957555770874023 105.12834930419922 34.970455169677734 133.78143310546875 29.628480911254883" stroke-width="3.0" fill="none" stroke="rgb(0, 0, 0)" stroke-opacity="1.0" stroke-linecap="round" stroke-linejoin="round"/>
    <path d="M 61.458213806152344 115.50753784179688 C 58.362911224365234 107.50505065917969 59.481048583984375 123.52812957763672 67.10352325439453 130.06288146972656" stroke-width="3.0" fill="none" stroke="rgb(0, 0, 0)" stroke-opacity="1.0" stroke-linecap="round" stroke-linejoin="round"/>
    <path d="M 127.23529052734375 106.2351303100586 C 142.3255615234375 90.54086303710938 119.09102630615234 116.9935302734375 116.15660858154297 94.04232788085938" stroke-width="3.0" fill="none" stroke="rgb(0, 0, 0)" stroke-opacity="1.0" stroke-linecap="round" stroke-linejoin="round"/>
    <path d="M 32.51104736328125 132.8600616455078 C 28.416824340820312 116.56422424316406 35.609718322753906 88.02588653564453 55.75288391113281 70.24301147460938" stroke-width="3.0" fill="none" stroke="rgb(0, 0, 0)" stroke-opacity="1.0" stroke-linecap="round" stroke-linejoin="round"/>
    <path d="M 85.54885864257812 198.27333068847656 C 64.59358978271484 193.7926483154297 69.71783447265625 193.27813720703125 104.87340545654297 197.55592346191406" stroke-width="3.0" fill="none" stroke="rgb(0, 0, 0)" stroke-opacity="1.0" stroke-linecap="round" stroke-linejoin="round"/>
    <path d="M 168.69142150878906 130.15786743164062 C 199.15786743164062 115.11244201660156 179.51304626464844 95.47925567626953 157.45303344726562 85.9630126953125" stroke-width="3.0" fill="none" stroke="rgb(0, 0, 0)" stroke-opacity="1.0" stroke-linecap="round" stroke-linejoin="round"/>
    <path d="M 155.00462341308594 71.29454803466797 C 134.66351318359375 84.42839050292969 174.56199645996094 71.83548736572266 147.72897338867188 73.26548767089844" stroke-width="3.0" fill="none" stroke="rgb(0, 0, 0)" stroke-opacity="1.0" stroke-linecap="round" stroke-linejoin="round"/>
    <path d="M 139.1719207763672 77.64218139648438 C 142.94345092773438 36.17357635498047 198.4009246826172 111.03385925292969 178.10897827148438 47.89360046386719" stroke-width="3.0" fill="none" stroke="rgb(0, 0, 0)" stroke-opacity="1.0" stroke-linecap="round" stroke-linejoin="round"/>
    <path d="M 148.27490234375 98.88739776611328 C 170.10366821289062 101.92655944824219 172.45608520507812 101.79806518554688 183.3148651123047 119.27696228027344" stroke-width="3.0" fill="none" stroke="rgb(0, 0, 0)" stroke-opacity="1.0" stroke-linecap="round" stroke-linejoin="round"/>
    <path d="M 172.14013671875 16.530088424682617 C 169.95321655273438 33.652976989746094 168.47682189941406 14.78880500793457 147.8684539794922 34.25385665893555" stroke-width="3.0" fill="none" stroke="rgb(0, 0, 0)" stroke-opacity="1.0" stroke-linecap="round" stroke-linejoin="round"/>
    <path d="M 116.42369842529297 96.91163635253906 C 145.98411560058594 91.11952209472656 127.09276580810547 114.69498443603516 121.09700012207031 101.7698974609375" stroke-width="3.0" fill="none" stroke="rgb(0, 0, 0)" stroke-opacity="1.0" stroke-linecap="round" stroke-linejoin="round"/>
    <path d="M 67.30358123779297 123.49711608886719 C 51.82018280029297 116.3147964477539 62.23529052734375 110.58448791503906 62.147945404052734 115.50675201416016" stroke-width="3.0" fill="none" stroke="rgb(0, 0, 0)" stroke-opacity="1.0" stroke-linecap="round" stroke-linejoin="round"/>
    <path d="M 122.61458587646484 76.8582992553711 C 121.9171142578125 43.879432678222656 121.48319244384766 49.32850646972656 118.06900787353516 35.6858024597168" stroke-width="3.0" fill="none" stroke="rgb(0, 0, 0)" stroke-opacity="1.0" stroke-linecap="round" stroke-linejoin="round"/>
    <path d="M 153.18287658691406 26.24249267578125 C 145.3607177734375 33.40928649902344 166.48599243164062 8.815053939819336 179.69705200195312 9.220723152160645" stroke-width="3.0" fill="none" stroke="rgb(0, 0, 0)" stroke-opacity="1.0" stroke-linecap="round" stroke-linejoin="round"/>
  </g>
</svg>
