<?xml version="1.0" ?>
<svg xmlns="http://www.w3.org/2000/svg" version="1.1" width="224" height="224">
  <defs/>
  <g>
    <path d="M 67.64649963378906 101.21717071533203 C 65.30813598632812 96.54348754882812 59.78220748901367 95.71393585205078 62.311805725097656 90.80748748779297" stroke-width="3.0" fill="none" stroke="rgb(0, 0, 0)" stroke-opacity="1.0" stroke-linecap="round" stroke-linejoin="round"/>
    <path d="M 185.0328826904297 131.6132354736328 C 174.0464630126953 116.51329040527344 168.8040313720703 119.93838500976562 183.55780029296875 127.41926574707031" stroke-width="3.0" fill="none" stroke="rgb(0, 0, 0)" stroke-opacity="1.0" stroke-linecap="round" stroke-linejoin="round"/>
    <path d="M 55.09630584716797 112.60274505615234 C 46.980323791503906 111.81889343261719 53.16215896606445 97.20439910888672 50.0401496887207 108.97981262207031" stroke-width="3.0" fill="none" stroke="rgb(0, 0, 0)" stroke-opacity="1.0" stroke-linecap="round" stroke-linejoin="round"/>
    <path d="M 167.08970642089844 98.00911712646484 C 161.3760223388672 107.00711059570312 155.511962890625 103.21968841552734 170.0598602294922 113.9737777709961" stroke-width="3.0" fill="none" stroke="rgb(0, 0, 0)" stroke-opacity="1.0" stroke-linecap="round" stroke-linejoin="round"/>
    <path d="M 181.54600524902344 78.61865997314453 C 173.835205078125 78.34152221679688 176.50535583496094 78.13372802734375 189.55055236816406 91.40130615234375" stroke-width="3.0" fill="none" stroke="rgb(0, 0, 0)" stroke-opacity="1.0" stroke-linecap="round" stroke-linejoin="round"/>
    <path d="M 128.4266357421875 109.876953125 C 119.38037109375 116.1215591430664 126.2945785522461 118.58680725097656 123.90888977050781 116.18347930908203" stroke-width="3.0" fill="none" stroke="rgb(0, 0, 0)" stroke-opacity="1.0" stroke-linecap="round" stroke-linejoin="round"/>
    <path d="M 176.96673583984375 85.5804214477539 C 177.15338134765625 82.73967742919922 177.97650146484375 87.85167694091797 162.39862060546875 89.2063217163086" stroke-width="3.0" fill="none" stroke="rgb(0, 0, 0)" stroke-opacity="1.0" stroke-linecap="round" stroke-linejoin="round"/>
    <path d="M 61.736785888671875 176.0471649169922 C 58.342864990234375 165.37115478515625 58.76116180419922 178.18653869628906 63.416446685791016 164.03968811035156" stroke-width="3.0" fill="none" stroke="rgb(0, 0, 0)" stroke-opacity="1.0" stroke-linecap="round" stroke-linejoin="round"/>
    <path d="M 76.89508056640625 192.57093811035156 C 75.62117004394531 191.76181030273438 82.6943588256836 195.16763305664062 81.83040618896484 194.00714111328125" stroke-width="3.0" fill="none" stroke="rgb(0, 0, 0)" stroke-opacity="1.0" stroke-linecap="round" stroke-linejoin="round"/>
    <path d="M 87.22025299072266 64.26083374023438 C 85.3331527709961 73.46272277832031 86.37726593017578 81.47093200683594 85.99303436279297 73.33837127685547" stroke-width="3.0" fill="none" stroke="rgb(0, 0, 0)" stroke-opacity="1.0" stroke-linecap="round" stroke-linejoin="round"/>
    <path d="M 80.20681762695312 143.7028045654297 C 82.0725326538086 144.86279296875 81.54783630371094 147.34762573242188 84.62590789794922 151.07009887695312" stroke-width="3.0" fill="none" stroke="rgb(0, 0, 0)" stroke-opacity="1.0" stroke-linecap="round" stroke-linejoin="round"/>
    <path d="M 178.531005859375 89.18829345703125 C 178.46435546875 92.11735534667969 177.3375701904297 93.18022918701172 161.9432830810547 94.68437957763672" stroke-width="3.0" fill="none" stroke="rgb(0, 0, 0)" stroke-opacity="1.0" stroke-linecap="round" stroke-linejoin="round"/>
    <path d="M 158.046630859375 104.76266479492188 C 173.21250915527344 98.37891387939453 159.97203063964844 100.8284683227539 165.63514709472656 110.36693572998047" stroke-width="3.0" fill="none" stroke="rgb(0, 0, 0)" stroke-opacity="1.0" stroke-linecap="round" stroke-linejoin="round"/>
    <path d="M 85.79267120361328 174.51406860351562 C 90.21623229980469 180.1122589111328 100.32640838623047 179.84490966796875 97.43917846679688 182.1671142578125" stroke-width="3.0" fill="none" stroke="rgb(0, 0, 0)" stroke-opacity="1.0" stroke-linecap="round" stroke-linejoin="round"/>
    <path d="M 163.70555114746094 32.8765983581543 C 164.6697235107422 25.321048736572266 168.13546752929688 36.41902542114258 173.68203735351562 40.546531677246094" stroke-width="3.0" fill="none" stroke="rgb(0, 0, 0)" stroke-opacity="1.0" stroke-linecap="round" stroke-linejoin="round"/>
    <path d="M 130.8074951171875 25.652326583862305 C 125.10093688964844 38.82246017456055 128.06280517578125 39.321800231933594 129.3208770751953 50.889488220214844" stroke-width="3.0" fill="none" stroke="rgb(0, 0, 0)" stroke-opacity="1.0" stroke-linecap="round" stroke-linejoin="round"/>
    <path d="M 79.67643737792969 20.528518676757812 C 77.69400787353516 5.93997859954834 84.14976501464844 11.819074630737305 94.86500549316406 35.23603820800781" stroke-width="3.0" fill="none" stroke="rgb(0, 0, 0)" stroke-opacity="1.0" stroke-linecap="round" stroke-linejoin="round"/>
    <path d="M 46.782840728759766 165.7427215576172 C 44.780113220214844 158.41256713867188 39.5461540222168 159.2047576904297 48.28263854980469 155.8755340576172" stroke-width="3.0" fill="none" stroke="rgb(0, 0, 0)" stroke-opacity="1.0" stroke-linecap="round" stroke-linejoin="round"/>
    <path d="M 49.81585693359375 143.09988403320312 C 54.38904571533203 137.00616455078125 46.77323913574219 150.4423370361328 53.087867736816406 145.67054748535156" stroke-width="3.0" fill="none" stroke="rgb(0, 0, 0)" stroke-opacity="1.0" stroke-linecap="round" stroke-linejoin="round"/>
    <path d="M 73.62980651855469 163.58811950683594 C 74.54082489013672 163.137451171875 77.84458923339844 161.519287109375 74.89982604980469 162.57485961914062" stroke-width="3.0" fill="none" stroke="rgb(0, 0, 0)" stroke-opacity="1.0" stroke-linecap="round" stroke-linejoin="round"/>
    <path d="M 75.9828109741211 187.2303009033203 C 69.52928161621094 181.23329162597656 73.23639678955078 188.91552734375 59.96349334716797 180.4724578857422" stroke-width="3.0" fill="none" stroke="rgb(0, 0, 0)" stroke-opacity="1.0" stroke-linecap="round" stroke-linejoin="round"/>
    <path d="M 44.147705078125 156.49290466308594 C 51.615474700927734 158.82785034179688 40.091217041015625 147.19496154785156 44.08453369140625 154.39210510253906" stroke-width="3.0" fill="none" stroke="rgb(0, 0, 0)" stroke-opacity="1.0" stroke-linecap="round" stroke-linejoin="round"/>
    <path d="M 62.91522979736328 76.56726837158203 C 49.563575744628906 85.91200256347656 53.4937629699707 75.30867004394531 41.988502502441406 89.90801239013672" stroke-width="3.0" fill="none" stroke="rgb(0, 0, 0)" stroke-opacity="1.0" stroke-linecap="round" stroke-linejoin="round"/>
    <path d="M 140.9324951171875 163.3913116455078 C 124.52621459960938 142.18492126464844 128.24879455566406 128.3053436279297 130.51885986328125 142.92861938476562" stroke-width="3.0" fill="none" stroke="rgb(0, 0, 0)" stroke-opacity="1.0" stroke-linecap="round" stroke-linejoin="round"/>
    <path d="M 139.07090759277344 54.600730895996094 C 140.06353759765625 49.57456970214844 138.94049072265625 63.021942138671875 139.55030822753906 66.84534454345703" stroke-width="3.0" fill="none" stroke="rgb(0, 0, 0)" stroke-opacity="1.0" stroke-linecap="round" stroke-linejoin="round"/>
    <path d="M 145.82803344726562 109.46182250976562 C 136.56517028808594 114.1837158203125 124.76016235351562 107.97200775146484 126.09513854980469 108.60256958007812" stroke-width="3.0" fill="none" stroke="rgb(0, 0, 0)" stroke-opacity="1.0" stroke-linecap="round" stroke-linejoin="round"/>
    <path d="M 151.1475067138672 60.5152473449707 C 152.1342315673828 58.89069747924805 160.8635711669922 52.585670471191406 163.6676025390625 56.71793746948242" stroke-width="3.0" fill="none" stroke="rgb(0, 0, 0)" stroke-opacity="1.0" stroke-linecap="round" stroke-linejoin="round"/>
    <path d="M 103.25434112548828 178.10433959960938 C 96.8009262084961 175.87562561035156 81.25064086914062 172.09385681152344 115.40052795410156 178.55453491210938" stroke-width="3.0" fill="none" stroke="rgb(0, 0, 0)" stroke-opacity="1.0" stroke-linecap="round" stroke-linejoin="round"/>
    <path d="M 183.7952117919922 89.41593170166016 C 188.22116088867188 86.79631805419922 185.24148559570312 92.67810821533203 180.9033660888672 85.03253173828125" stroke-width="3.0" fill="none" stroke="rgb(0, 0, 0)" stroke-opacity="1.0" stroke-linecap="round" stroke-linejoin="round"/>
    <path d="M 175.46343994140625 90.12470245361328 C 174.0581512451172 92.28182983398438 174.4138641357422 91.76431274414062 172.75082397460938 93.80068969726562" stroke-width="3.0" fill="none" stroke="rgb(0, 0, 0)" stroke-opacity="1.0" stroke-linecap="round" stroke-linejoin="round"/>
    <path d="M 112.63349151611328 74.7485580444336 C 112.57709503173828 74.3408432006836 130.06553649902344 77.37908172607422 112.38167572021484 77.9288558959961" stroke-width="3.0" fill="none" stroke="rgb(0, 0, 0)" stroke-opacity="1.0" stroke-linecap="round" stroke-linejoin="round"/>
    <path d="M 117.8778076171875 141.7522430419922 C 110.70637512207031 136.45016479492188 112.93583679199219 138.1519775390625 115.03411102294922 138.26217651367188" stroke-width="3.0" fill="none" stroke="rgb(0, 0, 0)" stroke-opacity="1.0" stroke-linecap="round" stroke-linejoin="round"/>
    <path d="M 127.92919921875 88.41912078857422 C 143.4069366455078 89.67562866210938 141.18081665039062 90.38124084472656 132.68197631835938 97.70718383789062" stroke-width="3.0" fill="none" stroke="rgb(0, 0, 0)" stroke-opacity="1.0" stroke-linecap="round" stroke-linejoin="round"/>
    <path d="M 167.1153564453125 109.30491638183594 C 166.64349365234375 99.1574478149414 169.91409301757812 98.41143035888672 159.68223571777344 100.26348114013672" stroke-width="3.0" fill="none" stroke="rgb(0, 0, 0)" stroke-opacity="1.0" stroke-linecap="round" stroke-linejoin="round"/>
    <path d="M 97.33464050292969 19.58919906616211 C 101.05044555664062 21.91253089904785 107.49333953857422 24.520971298217773 105.44426727294922 25.94801902770996" stroke-width="3.0" fill="none" stroke="rgb(0, 0, 0)" stroke-opacity="1.0" stroke-linecap="round" stroke-linejoin="round"/>
    <path d="M 49.0966682434082 109.4338607788086 C 51.07592010498047 115.26506805419922 64.80767059326172 121.28573608398438 58.5874137878418 118.74616241455078" stroke-width="3.0" fill="none" stroke="rgb(0, 0, 0)" stroke-opacity="1.0" stroke-linecap="round" stroke-linejoin="round"/>
    <path d="M 116.24102020263672 106.76930236816406 C 107.91608428955078 104.42611694335938 107.11188507080078 108.36151885986328 110.53779602050781 106.20620727539062" stroke-width="3.0" fill="none" stroke="rgb(0, 0, 0)" stroke-opacity="1.0" stroke-linecap="round" stroke-linejoin="round"/>
    <path d="M 42.78356170654297 112.38700103759766 C 41.72414016723633 100.82654571533203 42.06105422973633 103.21015930175781 42.39079666137695 106.68577575683594" stroke-width="3.0" fill="none" stroke="rgb(0, 0, 0)" stroke-opacity="1.0" stroke-linecap="round" stroke-linejoin="round"/>
    <path d="M 84.80567932128906 179.38092041015625 C 81.00679016113281 182.64642333984375 82.68450927734375 189.6441650390625 80.22307586669922 178.42698669433594" stroke-width="3.0" fill="none" stroke="rgb(0, 0, 0)" stroke-opacity="1.0" stroke-linecap="round" stroke-linejoin="round"/>
    <path d="M 161.74009704589844 126.5024642944336 C 161.55235290527344 118.61099243164062 163.23916625976562 114.12122344970703 155.8616180419922 106.45667266845703" stroke-width="3.0" fill="none" stroke="rgb(0, 0, 0)" stroke-opacity="1.0" stroke-linecap="round" stroke-linejoin="round"/>
    <path d="M 145.91598510742188 83.80032348632812 C 146.8625946044922 78.45231628417969 136.05902099609375 80.49969482421875 143.37942504882812 84.40968322753906" stroke-width="3.0" fill="none" stroke="rgb(0, 0, 0)" stroke-opacity="1.0" stroke-linecap="round" stroke-linejoin="round"/>
    <path d="M 161.5584259033203 80.56417083740234 C 171.32598876953125 78.95795440673828 170.3873291015625 76.66374206542969 172.05264282226562 73.31026458740234" stroke-width="3.0" fill="none" stroke="rgb(0, 0, 0)" stroke-opacity="1.0" stroke-linecap="round" stroke-linejoin="round"/>
    <path d="M 143.74623107910156 120.05998992919922 C 148.67127990722656 118.76976776123047 147.49896240234375 119.31130981445312 149.10821533203125 118.54823303222656" stroke-width="3.0" fill="none" stroke="rgb(0, 0, 0)" stroke-opacity="1.0" stroke-linecap="round" stroke-linejoin="round"/>
    <path d="M 165.3963165283203 29.39116668701172 C 175.80857849121094 35.92988586425781 175.2625274658203 28.02393913269043 173.0135040283203 38.94045639038086" stroke-width="3.0" fill="none" stroke="rgb(0, 0, 0)" stroke-opacity="1.0" stroke-linecap="round" stroke-linejoin="round"/>
    <path d="M 120.63949584960938 109.51036834716797 C 126.02375793457031 110.74620056152344 117.45211029052734 112.7745132446289 113.63157653808594 110.72439575195312" stroke-width="3.0" fill="none" stroke="rgb(0, 0, 0)" stroke-opacity="1.0" stroke-linecap="round" stroke-linejoin="round"/>
    <path d="M 51.27980041503906 112.34114074707031 C 54.3472900390625 104.49193572998047 46.821678161621094 98.7384033203125 53.951290130615234 108.97832489013672" stroke-width="3.0" fill="none" stroke="rgb(0, 0, 0)" stroke-opacity="1.0" stroke-linecap="round" stroke-linejoin="round"/>
    <path d="M 124.01583862304688 69.82681274414062 C 118.33382415771484 61.748634338378906 119.44385528564453 61.093753814697266 108.76465606689453 61.39521789550781" stroke-width="3.0" fill="none" stroke="rgb(0, 0, 0)" stroke-opacity="1.0" stroke-linecap="round" stroke-linejoin="round"/>
    <path d="M 162.51475524902344 46.54844284057617 C 156.1311798095703 39.16716766357422 154.56130981445312 32.59678649902344 162.0846405029297 26.988332748413086" stroke-width="3.0" fill="none" stroke="rgb(0, 0, 0)" stroke-opacity="1.0" stroke-linecap="round" stroke-linejoin="round"/>
  </g>
</svg>
