<?xml version="1.0" ?>
<svg xmlns="http://www.w3.org/2000/svg" version="1.1" width="224" height="224">
  <defs/>
  <g>
    <path d="M 64.2144775390625 78.45588684082031 C 64.34160614013672 78.3477554321289 68.0487289428711 81.72089385986328 59.179969787597656 71.65319061279297" stroke-width="3.0" fill="none" stroke="rgb(0, 0, 0)" stroke-opacity="1.0" stroke-linecap="round" stroke-linejoin="round"/>
    <path d="M 185.1029052734375 121.01289367675781 C 180.33831787109375 116.87457275390625 201.40521240234375 96.39837646484375 176.4037322998047 127.63603210449219" stroke-width="3.0" fill="none" stroke="rgb(0, 0, 0)" stroke-opacity="1.0" stroke-linecap="round" stroke-linejoin="round"/>
    <path d="M 63.29587936401367 124.53726959228516 C 61.908565521240234 99.32149505615234 53.52895736694336 130.2637939453125 71.96867370605469 125.38130950927734" stroke-width="3.0" fill="none" stroke="rgb(0, 0, 0)" stroke-opacity="1.0" stroke-linecap="round" stroke-linejoin="round"/>
    <path d="M 184.00816345214844 98.53815460205078 C 145.04263305664062 86.68868255615234 175.8688201904297 74.76996612548828 194.37582397460938 112.86851501464844" stroke-width="3.0" fill="none" stroke="rgb(0, 0, 0)" stroke-opacity="1.0" stroke-linecap="round" stroke-linejoin="round"/>
    <path d="M 183.28085327148438 60.85387420654297 C 174.47174072265625 115.6036605834961 185.74472045898438 104.1562728881836 183.8446044921875 70.11871337890625" stroke-width="3.0" fill="none" stroke="rgb(0, 0, 0)" stroke-opacity="1.0" stroke-linecap="round" stroke-linejoin="round"/>
    <path d="M 121.07901763916016 104.34521484375 C 148.42291259765625 116.9443130493164 113.6097183227539 94.09175872802734 137.83108520507812 104.24952697753906" stroke-width="3.0" fill="none" stroke="rgb(0, 0, 0)" stroke-opacity="1.0" stroke-linecap="round" stroke-linejoin="round"/>
    <path d="M 169.3970489501953 95.15392303466797 C 189.17623901367188 87.49842834472656 177.62803649902344 72.71778106689453 158.1329803466797 85.66551208496094" stroke-width="3.0" fill="none" stroke="rgb(0, 0, 0)" stroke-opacity="1.0" stroke-linecap="round" stroke-linejoin="round"/>
    <path d="M 59.513729095458984 183.2169647216797 C 37.906009674072266 155.81422424316406 48.00823211669922 165.7602081298828 50.2672233581543 173.32997131347656" stroke-width="3.0" fill="none" stroke="rgb(0, 0, 0)" stroke-opacity="1.0" stroke-linecap="round" stroke-linejoin="round"/>
    <path d="M 57.51520538330078 182.94009399414062 C 96.81449127197266 212.5651092529297 111.65413665771484 197.43780517578125 132.2718963623047 181.13465881347656" stroke-width="3.0" fill="none" stroke="rgb(0, 0, 0)" stroke-opacity="1.0" stroke-linecap="round" stroke-linejoin="round"/>
    <path d="M 86.39974975585938 33.43850326538086 C 96.88482666015625 78.67393493652344 83.39061737060547 11.31721019744873 84.02456665039062 59.667747497558594" stroke-width="3.0" fill="none" stroke="rgb(0, 0, 0)" stroke-opacity="1.0" stroke-linecap="round" stroke-linejoin="round"/>
    <path d="M 55.31455993652344 103.7656021118164 C 63.90089797973633 136.50852966308594 97.94219207763672 159.9883270263672 93.33291625976562 149.27804565429688" stroke-width="3.0" fill="none" stroke="rgb(0, 0, 0)" stroke-opacity="1.0" stroke-linecap="round" stroke-linejoin="round"/>
    <path d="M 144.61619567871094 71.6637954711914 C 204.18746948242188 66.3582534790039 189.84793090820312 83.78144836425781 147.4197235107422 85.8906021118164" stroke-width="3.0" fill="none" stroke="rgb(0, 0, 0)" stroke-opacity="1.0" stroke-linecap="round" stroke-linejoin="round"/>
    <path d="M 150.57388305664062 96.91594696044922 C 190.42698669433594 108.356201171875 178.16458129882812 106.5482406616211 196.115234375 114.686767578125" stroke-width="3.0" fill="none" stroke="rgb(0, 0, 0)" stroke-opacity="1.0" stroke-linecap="round" stroke-linejoin="round"/>
    <path d="M 128.20143127441406 159.708251953125 C 145.70944213867188 150.08712768554688 124.40461730957031 157.1190948486328 109.44876098632812 157.27366638183594" stroke-width="3.0" fill="none" stroke="rgb(0, 0, 0)" stroke-opacity="1.0" stroke-linecap="round" stroke-linejoin="round"/>
    <path d="M 179.2484588623047 8.575689315795898 C 186.64627075195312 24.65958023071289 173.93255615234375 61.88348388671875 177.41827392578125 50.11475372314453" stroke-width="3.0" fill="none" stroke="rgb(0, 0, 0)" stroke-opacity="1.0" stroke-linecap="round" stroke-linejoin="round"/>
    <path d="M 131.38699340820312 31.661975860595703 C 122.51322937011719 55.4250373840332 132.71780395507812 35.98602294921875 127.6825942993164 69.56221008300781" stroke-width="3.0" fill="none" stroke="rgb(0, 0, 0)" stroke-opacity="1.0" stroke-linecap="round" stroke-linejoin="round"/>
    <path d="M 87.35942077636719 53.52189636230469 C 79.5008316040039 -9.040266036987305 84.52324676513672 -0.7801001667976379 106.92060089111328 41.564048767089844" stroke-width="3.0" fill="none" stroke="rgb(0, 0, 0)" stroke-opacity="1.0" stroke-linecap="round" stroke-linejoin="round"/>
    <path d="M 46.4109992980957 166.91697692871094 C 40.564579010009766 151.2774658203125 36.92153549194336 143.03472900390625 46.24442672729492 166.82498168945312" stroke-width="3.0" fill="none" stroke="rgb(0, 0, 0)" stroke-opacity="1.0" stroke-linecap="round" stroke-linejoin="round"/>
    <path d="M 36.27412796020508 99.737548828125 C 23.115095138549805 126.54313659667969 40.42534637451172 145.47433471679688 41.44383239746094 156.34608459472656" stroke-width="3.0" fill="none" stroke="rgb(0, 0, 0)" stroke-opacity="1.0" stroke-linecap="round" stroke-linejoin="round"/>
    <path d="M 88.538330078125 147.9971466064453 C 106.01986694335938 162.5126495361328 109.92162322998047 162.60081481933594 103.43718719482422 154.3946075439453" stroke-width="3.0" fill="none" stroke="rgb(0, 0, 0)" stroke-opacity="1.0" stroke-linecap="round" stroke-linejoin="round"/>
    <path d="M 84.85206604003906 198.22288513183594 C 68.38856506347656 200.96922302246094 51.00259017944336 177.00674438476562 48.44601058959961 171.1551055908203" stroke-width="3.0" fill="none" stroke="rgb(0, 0, 0)" stroke-opacity="1.0" stroke-linecap="round" stroke-linejoin="round"/>
    <path d="M 47.25445556640625 170.47988891601562 C 61.84196090698242 192.7444610595703 42.18070983886719 167.20521545410156 38.74046325683594 151.31752014160156" stroke-width="3.0" fill="none" stroke="rgb(0, 0, 0)" stroke-opacity="1.0" stroke-linecap="round" stroke-linejoin="round"/>
    <path d="M 78.86573028564453 54.37953186035156 C 62.83382034301758 59.20293426513672 48.03275680541992 72.62001037597656 31.997697830200195 107.43165588378906" stroke-width="3.0" fill="none" stroke="rgb(0, 0, 0)" stroke-opacity="1.0" stroke-linecap="round" stroke-linejoin="round"/>
    <path d="M 152.53152465820312 141.2369384765625 C 123.54149627685547 159.56222534179688 117.64823150634766 154.9471435546875 131.78115844726562 157.68753051757812" stroke-width="3.0" fill="none" stroke="rgb(0, 0, 0)" stroke-opacity="1.0" stroke-linecap="round" stroke-linejoin="round"/>
    <path d="M 141.08401489257812 31.030981063842773 C 146.2471466064453 48.13207244873047 135.34632873535156 47.83615493774414 136.3057403564453 80.95611572265625" stroke-width="3.0" fill="none" stroke="rgb(0, 0, 0)" stroke-opacity="1.0" stroke-linecap="round" stroke-linejoin="round"/>
    <path d="M 146.5309295654297 99.33432006835938 C 130.087646484375 110.35518646240234 129.7710418701172 112.4542236328125 118.84590911865234 105.31950378417969" stroke-width="3.0" fill="none" stroke="rgb(0, 0, 0)" stroke-opacity="1.0" stroke-linecap="round" stroke-linejoin="round"/>
    <path d="M 136.96485900878906 74.60221099853516 C 145.44007873535156 55.008182525634766 128.71401977539062 58.273014068603516 136.0039520263672 77.82028198242188" stroke-width="3.0" fill="none" stroke="rgb(0, 0, 0)" stroke-opacity="1.0" stroke-linecap="round" stroke-linejoin="round"/>
    <path d="M 132.09474182128906 179.086181640625 C 127.61200714111328 183.48907470703125 136.4837188720703 179.0447540283203 144.97161865234375 148.18418884277344" stroke-width="3.0" fill="none" stroke="rgb(0, 0, 0)" stroke-opacity="1.0" stroke-linecap="round" stroke-linejoin="round"/>
    <path d="M 194.8208770751953 96.42666625976562 C 167.39938354492188 70.0215072631836 161.41165161132812 78.46258544921875 188.65818786621094 90.91539001464844" stroke-width="3.0" fill="none" stroke="rgb(0, 0, 0)" stroke-opacity="1.0" stroke-linecap="round" stroke-linejoin="round"/>
    <path d="M 148.08053588867188 76.91571807861328 C 157.19212341308594 59.331329345703125 191.05101013183594 92.92724609375 180.08876037597656 66.72833251953125" stroke-width="3.0" fill="none" stroke="rgb(0, 0, 0)" stroke-opacity="1.0" stroke-linecap="round" stroke-linejoin="round"/>
    <path d="M 114.86238098144531 80.6319580078125 C 85.17728424072266 74.68026733398438 139.942626953125 73.9833755493164 107.37554168701172 81.4537353515625" stroke-width="3.0" fill="none" stroke="rgb(0, 0, 0)" stroke-opacity="1.0" stroke-linecap="round" stroke-linejoin="round"/>
    <path d="M 159.3739776611328 133.59165954589844 C 127.2398452758789 168.16773986816406 124.16693878173828 153.85525512695312 105.27146911621094 160.75796508789062" stroke-width="3.0" fill="none" stroke="rgb(0, 0, 0)" stroke-opacity="1.0" stroke-linecap="round" stroke-linejoin="round"/>
    <path d="M 123.88490295410156 90.50651550292969 C 140.6208038330078 102.54805755615234 133.32373046875 68.87532806396484 125.82442474365234 106.26863861083984" stroke-width="3.0" fill="none" stroke="rgb(0, 0, 0)" stroke-opacity="1.0" stroke-linecap="round" stroke-linejoin="round"/>
    <path d="M 187.3666534423828 113.94866943359375 C 174.6993865966797 84.80045318603516 184.6434326171875 95.13582611083984 142.18878173828125 83.05415344238281" stroke-width="3.0" fill="none" stroke="rgb(0, 0, 0)" stroke-opacity="1.0" stroke-linecap="round" stroke-linejoin="round"/>
    <path d="M 84.53546142578125 7.764720439910889 C 103.99060821533203 11.900228500366211 116.61824035644531 37.882179260253906 122.19583129882812 30.50661277770996" stroke-width="3.0" fill="none" stroke="rgb(0, 0, 0)" stroke-opacity="1.0" stroke-linecap="round" stroke-linejoin="round"/>
    <path d="M 63.98473358154297 125.57685089111328 C 66.23054504394531 110.02949523925781 62.49195098876953 127.88636779785156 62.98584747314453 123.05221557617188" stroke-width="3.0" fill="none" stroke="rgb(0, 0, 0)" stroke-opacity="1.0" stroke-linecap="round" stroke-linejoin="round"/>
    <path d="M 135.9699249267578 106.25637817382812 C 126.28033447265625 94.4014663696289 116.66851043701172 114.17903900146484 110.54735565185547 92.02619934082031" stroke-width="3.0" fill="none" stroke="rgb(0, 0, 0)" stroke-opacity="1.0" stroke-linecap="round" stroke-linejoin="round"/>
    <path d="M 32.677589416503906 134.0274658203125 C 25.094642639160156 95.94678497314453 38.744632720947266 99.80204772949219 49.02265548706055 78.51498413085938" stroke-width="3.0" fill="none" stroke="rgb(0, 0, 0)" stroke-opacity="1.0" stroke-linecap="round" stroke-linejoin="round"/>
    <path d="M 78.06427764892578 195.92762756347656 C 71.8979721069336 192.30526733398438 67.0035400390625 193.65696716308594 93.43748474121094 199.74208068847656" stroke-width="3.0" fill="none" stroke="rgb(0, 0, 0)" stroke-opacity="1.0" stroke-linecap="round" stroke-linejoin="round"/>
    <path d="M 159.93698120117188 131.74600219726562 C 204.6055145263672 120.9781265258789 177.3228302001953 98.52399444580078 156.00161743164062 92.04070281982422" stroke-width="3.0" fill="none" stroke="rgb(0, 0, 0)" stroke-opacity="1.0" stroke-linecap="round" stroke-linejoin="round"/>
    <path d="M 158.9307861328125 70.9548568725586 C 134.32974243164062 86.34612274169922 171.60043334960938 78.59650421142578 147.38381958007812 69.53096771240234" stroke-width="3.0" fill="none" stroke="rgb(0, 0, 0)" stroke-opacity="1.0" stroke-linecap="round" stroke-linejoin="round"/>
    <path d="M 141.4865264892578 78.05304718017578 C 147.91586303710938 42.22154998779297 194.93092346191406 113.18254089355469 180.096435546875 45.307594299316406" stroke-width="3.0" fill="none" stroke="rgb(0, 0, 0)" stroke-opacity="1.0" stroke-linecap="round" stroke-linejoin="round"/>
    <path d="M 159.21263122558594 100.44955444335938 C 167.1692352294922 110.17391204833984 168.3506622314453 103.93675231933594 180.72531127929688 121.11167907714844" stroke-width="3.0" fill="none" stroke="rgb(0, 0, 0)" stroke-opacity="1.0" stroke-linecap="round" stroke-linejoin="round"/>
    <path d="M 174.53085327148438 14.690826416015625 C 163.75157165527344 39.766204833984375 176.4178466796875 19.841976165771484 159.95745849609375 34.46498489379883" stroke-width="3.0" fill="none" stroke="rgb(0, 0, 0)" stroke-opacity="1.0" stroke-linecap="round" stroke-linejoin="round"/>
    <path d="M 117.77438354492188 103.5507583618164 C 144.2626953125 101.28019714355469 135.80328369140625 112.45296478271484 118.88873291015625 102.21553802490234" stroke-width="3.0" fill="none" stroke="rgb(0, 0, 0)" stroke-opacity="1.0" stroke-linecap="round" stroke-linejoin="round"/>
    <path d="M 77.0040054321289 139.97608947753906 C 53.176971435546875 119.78148651123047 61.471168518066406 111.27177429199219 61.663509368896484 121.72286987304688" stroke-width="3.0" fill="none" stroke="rgb(0, 0, 0)" stroke-opacity="1.0" stroke-linecap="round" stroke-linejoin="round"/>
    <path d="M 125.21531677246094 73.33937072753906 C 124.5640869140625 40.269840240478516 119.59439086914062 56.48377227783203 120.70681762695312 36.767974853515625" stroke-width="3.0" fill="none" stroke="rgb(0, 0, 0)" stroke-opacity="1.0" stroke-linecap="round" stroke-linejoin="round"/>
    <path d="M 151.63771057128906 26.817161560058594 C 145.26544189453125 36.812286376953125 158.96932983398438 10.253021240234375 175.38211059570312 5.569655895233154" stroke-width="3.0" fill="none" stroke="rgb(0, 0, 0)" stroke-opacity="1.0" stroke-linecap="round" stroke-linejoin="round"/>
  </g>
</svg>
