<?xml version="1.0" ?>
<svg xmlns="http://www.w3.org/2000/svg" version="1.1" width="224" height="224">
  <defs/>
  <g>
    <path d="M 66.92559051513672 71.33135223388672 C 69.44278717041016 70.22470092773438 73.99836730957031 74.78890228271484 62.15178680419922 67.67019653320312" stroke-width="3.0" fill="none" stroke="rgb(0, 0, 0)" stroke-opacity="1.0" stroke-linecap="round" stroke-linejoin="round"/>
    <path d="M 184.4595184326172 122.67159271240234 C 177.70556640625 112.77534484863281 199.8657684326172 91.6684799194336 175.9705810546875 129.53805541992188" stroke-width="3.0" fill="none" stroke="rgb(0, 0, 0)" stroke-opacity="1.0" stroke-linecap="round" stroke-linejoin="round"/>
    <path d="M 59.73605728149414 121.41561126708984 C 59.25261306762695 113.0837631225586 56.362953186035156 121.68144226074219 67.87977600097656 126.70813751220703" stroke-width="3.0" fill="none" stroke="rgb(0, 0, 0)" stroke-opacity="1.0" stroke-linecap="round" stroke-linejoin="round"/>
    <path d="M 182.24095153808594 91.71495056152344 C 144.54725646972656 84.98596954345703 176.02212524414062 74.12708282470703 191.35104370117188 109.49809265136719" stroke-width="3.0" fill="none" stroke="rgb(0, 0, 0)" stroke-opacity="1.0" stroke-linecap="round" stroke-linejoin="round"/>
    <path d="M 182.3437042236328 65.41584014892578 C 174.38890075683594 111.35018157958984 179.28359985351562 99.38289642333984 185.38088989257812 71.79552459716797" stroke-width="3.0" fill="none" stroke="rgb(0, 0, 0)" stroke-opacity="1.0" stroke-linecap="round" stroke-linejoin="round"/>
    <path d="M 126.52433013916016 104.74832153320312 C 143.7245635986328 114.51878356933594 101.5946273803711 95.4920883178711 135.02169799804688 103.11542510986328" stroke-width="3.0" fill="none" stroke="rgb(0, 0, 0)" stroke-opacity="1.0" stroke-linecap="round" stroke-linejoin="round"/>
    <path d="M 171.96665954589844 87.57623291015625 C 192.04345703125 92.4375228881836 180.2669677734375 72.87620544433594 159.69053649902344 84.9259262084961" stroke-width="3.0" fill="none" stroke="rgb(0, 0, 0)" stroke-opacity="1.0" stroke-linecap="round" stroke-linejoin="round"/>
    <path d="M 62.9852180480957 188.6495361328125 C 35.41748809814453 158.7832794189453 48.733848571777344 166.22381591796875 49.205238342285156 173.38632202148438" stroke-width="3.0" fill="none" stroke="rgb(0, 0, 0)" stroke-opacity="1.0" stroke-linecap="round" stroke-linejoin="round"/>
    <path d="M 54.507904052734375 180.8658905029297 C 85.83611297607422 210.92361450195312 118.0212631225586 196.00486755371094 132.9110565185547 179.6598663330078" stroke-width="3.0" fill="none" stroke="rgb(0, 0, 0)" stroke-opacity="1.0" stroke-linecap="round" stroke-linejoin="round"/>
    <path d="M 86.96945190429688 28.351755142211914 C 96.2739028930664 75.84642791748047 86.58344268798828 6.03757905960083 86.47571563720703 50.85091018676758" stroke-width="3.0" fill="none" stroke="rgb(0, 0, 0)" stroke-opacity="1.0" stroke-linecap="round" stroke-linejoin="round"/>
    <path d="M 46.894065856933594 92.85448455810547 C 64.08365631103516 141.50244140625 90.67459869384766 158.07691955566406 84.13407135009766 148.91433715820312" stroke-width="3.0" fill="none" stroke="rgb(0, 0, 0)" stroke-opacity="1.0" stroke-linecap="round" stroke-linejoin="round"/>
    <path d="M 149.09933471679688 73.62967681884766 C 204.7252960205078 67.29503631591797 185.95994567871094 85.5987777709961 144.6998748779297 85.9689712524414" stroke-width="3.0" fill="none" stroke="rgb(0, 0, 0)" stroke-opacity="1.0" stroke-linecap="round" stroke-linejoin="round"/>
    <path d="M 154.0296630859375 94.45389556884766 C 192.10769653320312 101.907958984375 176.90765380859375 102.125 196.92242431640625 113.37557220458984" stroke-width="3.0" fill="none" stroke="rgb(0, 0, 0)" stroke-opacity="1.0" stroke-linecap="round" stroke-linejoin="round"/>
    <path d="M 117.81539916992188 152.0452880859375 C 144.36923217773438 151.4983673095703 123.68750762939453 159.6048126220703 107.82569122314453 151.9298553466797" stroke-width="3.0" fill="none" stroke="rgb(0, 0, 0)" stroke-opacity="1.0" stroke-linecap="round" stroke-linejoin="round"/>
    <path d="M 178.76971435546875 9.152268409729004 C 187.32896423339844 28.463417053222656 173.21823120117188 67.91083526611328 177.7677001953125 51.68272018432617" stroke-width="3.0" fill="none" stroke="rgb(0, 0, 0)" stroke-opacity="1.0" stroke-linecap="round" stroke-linejoin="round"/>
    <path d="M 133.5018768310547 28.96052360534668 C 123.44258880615234 47.20237731933594 138.4729766845703 43.876766204833984 125.83836364746094 67.64262390136719" stroke-width="3.0" fill="none" stroke="rgb(0, 0, 0)" stroke-opacity="1.0" stroke-linecap="round" stroke-linejoin="round"/>
    <path d="M 90.58716583251953 43.886810302734375 C 73.15971374511719 -1.0493674278259277 88.20248413085938 -0.3483978509902954 115.57687377929688 34.503990173339844" stroke-width="3.0" fill="none" stroke="rgb(0, 0, 0)" stroke-opacity="1.0" stroke-linecap="round" stroke-linejoin="round"/>
    <path d="M 46.48723602294922 170.255615234375 C 40.41759490966797 153.31106567382812 35.2777099609375 146.87759399414062 47.268394470214844 170.3369903564453" stroke-width="3.0" fill="none" stroke="rgb(0, 0, 0)" stroke-opacity="1.0" stroke-linecap="round" stroke-linejoin="round"/>
    <path d="M 36.36670684814453 97.40350341796875 C 19.097280502319336 127.01759338378906 40.87172317504883 147.1937255859375 42.368961334228516 161.30255126953125" stroke-width="3.0" fill="none" stroke="rgb(0, 0, 0)" stroke-opacity="1.0" stroke-linecap="round" stroke-linejoin="round"/>
    <path d="M 86.5011978149414 150.9098358154297 C 108.1875991821289 160.74859619140625 101.77709197998047 157.313232421875 96.20481872558594 148.67034912109375" stroke-width="3.0" fill="none" stroke="rgb(0, 0, 0)" stroke-opacity="1.0" stroke-linecap="round" stroke-linejoin="round"/>
    <path d="M 86.64347076416016 196.04774475097656 C 67.63514709472656 201.3712921142578 50.82105255126953 176.91265869140625 48.917381286621094 170.27540588378906" stroke-width="3.0" fill="none" stroke="rgb(0, 0, 0)" stroke-opacity="1.0" stroke-linecap="round" stroke-linejoin="round"/>
    <path d="M 49.63203811645508 171.38169860839844 C 64.2634048461914 194.6727294921875 46.55835723876953 168.72776794433594 40.176979064941406 148.0264434814453" stroke-width="3.0" fill="none" stroke="rgb(0, 0, 0)" stroke-opacity="1.0" stroke-linecap="round" stroke-linejoin="round"/>
    <path d="M 78.56771087646484 56.52116012573242 C 61.89274215698242 58.29410934448242 45.50489044189453 70.37545776367188 33.76464080810547 108.77001190185547" stroke-width="3.0" fill="none" stroke="rgb(0, 0, 0)" stroke-opacity="1.0" stroke-linecap="round" stroke-linejoin="round"/>
    <path d="M 153.80918884277344 140.51040649414062 C 120.1868667602539 159.93223571777344 116.10726928710938 159.57347106933594 144.3871612548828 150.41110229492188" stroke-width="3.0" fill="none" stroke="rgb(0, 0, 0)" stroke-opacity="1.0" stroke-linecap="round" stroke-linejoin="round"/>
    <path d="M 144.70046997070312 27.934364318847656 C 146.54986572265625 42.3931999206543 137.00079345703125 28.520524978637695 135.5286407470703 81.97686767578125" stroke-width="3.0" fill="none" stroke="rgb(0, 0, 0)" stroke-opacity="1.0" stroke-linecap="round" stroke-linejoin="round"/>
    <path d="M 146.781982421875 91.21988677978516 C 128.1271209716797 106.46041870117188 132.6780548095703 113.8191909790039 118.7011489868164 103.29627227783203" stroke-width="3.0" fill="none" stroke="rgb(0, 0, 0)" stroke-opacity="1.0" stroke-linecap="round" stroke-linejoin="round"/>
    <path d="M 134.51866149902344 74.374755859375 C 144.36451721191406 57.32209777832031 129.24293518066406 62.18793869018555 135.30763244628906 76.23764038085938" stroke-width="3.0" fill="none" stroke="rgb(0, 0, 0)" stroke-opacity="1.0" stroke-linecap="round" stroke-linejoin="round"/>
    <path d="M 134.57391357421875 176.8452911376953 C 130.5880889892578 182.73544311523438 137.65599060058594 179.8645782470703 146.75311279296875 146.08975219726562" stroke-width="3.0" fill="none" stroke="rgb(0, 0, 0)" stroke-opacity="1.0" stroke-linecap="round" stroke-linejoin="round"/>
    <path d="M 193.82765197753906 95.9736328125 C 167.97731018066406 73.67548370361328 166.70327758789062 83.26620483398438 185.65878295898438 87.6231918334961" stroke-width="3.0" fill="none" stroke="rgb(0, 0, 0)" stroke-opacity="1.0" stroke-linecap="round" stroke-linejoin="round"/>
    <path d="M 151.95693969726562 78.8007583618164 C 129.8377227783203 58.62950897216797 199.2151336669922 87.05166625976562 182.6468505859375 67.64667510986328" stroke-width="3.0" fill="none" stroke="rgb(0, 0, 0)" stroke-opacity="1.0" stroke-linecap="round" stroke-linejoin="round"/>
    <path d="M 109.31806945800781 75.88692474365234 C 77.95951843261719 71.10301971435547 149.55320739746094 72.42931365966797 104.34781646728516 79.23591613769531" stroke-width="3.0" fill="none" stroke="rgb(0, 0, 0)" stroke-opacity="1.0" stroke-linecap="round" stroke-linejoin="round"/>
    <path d="M 161.70455932617188 131.37237548828125 C 139.02218627929688 162.62948608398438 119.73985290527344 147.82493591308594 102.75800323486328 156.7133026123047" stroke-width="3.0" fill="none" stroke="rgb(0, 0, 0)" stroke-opacity="1.0" stroke-linecap="round" stroke-linejoin="round"/>
    <path d="M 121.12296295166016 88.4712905883789 C 139.58944702148438 100.43856048583984 123.43243408203125 69.8690185546875 127.58723449707031 107.42823028564453" stroke-width="3.0" fill="none" stroke="rgb(0, 0, 0)" stroke-opacity="1.0" stroke-linecap="round" stroke-linejoin="round"/>
    <path d="M 188.3747100830078 110.55250549316406 C 170.23756408691406 88.8440170288086 179.7073974609375 86.77369689941406 148.1058349609375 86.19541931152344" stroke-width="3.0" fill="none" stroke="rgb(0, 0, 0)" stroke-opacity="1.0" stroke-linecap="round" stroke-linejoin="round"/>
    <path d="M 85.9879379272461 8.346576690673828 C 102.84751892089844 12.823180198669434 114.85609436035156 34.35249328613281 120.62586975097656 30.488330841064453" stroke-width="3.0" fill="none" stroke="rgb(0, 0, 0)" stroke-opacity="1.0" stroke-linecap="round" stroke-linejoin="round"/>
    <path d="M 60.88216018676758 123.9957275390625 C 59.69755554199219 119.13941192626953 62.617042541503906 130.91929626464844 62.221744537353516 125.66709899902344" stroke-width="3.0" fill="none" stroke="rgb(0, 0, 0)" stroke-opacity="1.0" stroke-linecap="round" stroke-linejoin="round"/>
    <path d="M 135.337158203125 104.89690399169922 C 127.09843444824219 89.09872436523438 121.11339569091797 116.671875 108.51252746582031 85.83822631835938" stroke-width="3.0" fill="none" stroke="rgb(0, 0, 0)" stroke-opacity="1.0" stroke-linecap="round" stroke-linejoin="round"/>
    <path d="M 32.338314056396484 132.56149291992188 C 26.407962799072266 103.2396240234375 36.966739654541016 98.16409301757812 48.72000503540039 79.71730041503906" stroke-width="3.0" fill="none" stroke="rgb(0, 0, 0)" stroke-opacity="1.0" stroke-linecap="round" stroke-linejoin="round"/>
    <path d="M 80.75910949707031 197.77249145507812 C 71.51364135742188 191.94761657714844 65.76888275146484 194.81161499023438 102.59778594970703 198.84156799316406" stroke-width="3.0" fill="none" stroke="rgb(0, 0, 0)" stroke-opacity="1.0" stroke-linecap="round" stroke-linejoin="round"/>
    <path d="M 163.02268981933594 133.3706817626953 C 201.42001342773438 116.47734832763672 180.21884155273438 95.10803985595703 157.5854034423828 90.11933135986328" stroke-width="3.0" fill="none" stroke="rgb(0, 0, 0)" stroke-opacity="1.0" stroke-linecap="round" stroke-linejoin="round"/>
    <path d="M 150.4722137451172 70.42544555664062 C 127.59652709960938 90.48719024658203 175.51434326171875 75.9339370727539 149.41458129882812 75.49861907958984" stroke-width="3.0" fill="none" stroke="rgb(0, 0, 0)" stroke-opacity="1.0" stroke-linecap="round" stroke-linejoin="round"/>
    <path d="M 140.46229553222656 77.91558074951172 C 149.19142150878906 42.92368698120117 197.18826293945312 112.97030639648438 179.10015869140625 47.5588264465332" stroke-width="3.0" fill="none" stroke="rgb(0, 0, 0)" stroke-opacity="1.0" stroke-linecap="round" stroke-linejoin="round"/>
    <path d="M 159.9610595703125 96.244140625 C 170.3470916748047 104.95040893554688 175.55226135253906 102.69334411621094 181.2204132080078 119.97855377197266" stroke-width="3.0" fill="none" stroke="rgb(0, 0, 0)" stroke-opacity="1.0" stroke-linecap="round" stroke-linejoin="round"/>
    <path d="M 177.08694458007812 17.396930694580078 C 167.76296997070312 44.96068572998047 175.79818725585938 19.638233184814453 163.1044464111328 34.0046272277832" stroke-width="3.0" fill="none" stroke="rgb(0, 0, 0)" stroke-opacity="1.0" stroke-linecap="round" stroke-linejoin="round"/>
    <path d="M 118.77716827392578 104.9496841430664 C 146.9047393798828 102.055908203125 137.56326293945312 112.65420532226562 122.11609649658203 104.0963134765625" stroke-width="3.0" fill="none" stroke="rgb(0, 0, 0)" stroke-opacity="1.0" stroke-linecap="round" stroke-linejoin="round"/>
    <path d="M 73.86292266845703 135.63487243652344 C 51.31412124633789 123.42930603027344 61.776302337646484 114.01384735107422 58.80043029785156 118.50323486328125" stroke-width="3.0" fill="none" stroke="rgb(0, 0, 0)" stroke-opacity="1.0" stroke-linecap="round" stroke-linejoin="round"/>
    <path d="M 125.34896087646484 70.93086242675781 C 130.8247528076172 37.54412841796875 121.54486083984375 51.934608459472656 126.8738021850586 30.966594696044922" stroke-width="3.0" fill="none" stroke="rgb(0, 0, 0)" stroke-opacity="1.0" stroke-linecap="round" stroke-linejoin="round"/>
    <path d="M 154.4462432861328 24.952436447143555 C 148.035888671875 36.462890625 165.05848693847656 9.656892776489258 178.02627563476562 8.84770679473877" stroke-width="3.0" fill="none" stroke="rgb(0, 0, 0)" stroke-opacity="1.0" stroke-linecap="round" stroke-linejoin="round"/>
  </g>
</svg>
