<?xml version="1.0" ?>
<svg xmlns="http://www.w3.org/2000/svg" version="1.1" width="224" height="224">
  <defs/>
  <g>
    <path d="M 59.2021484375 99.05697631835938 C 67.60442352294922 94.1209487915039 52.67914581298828 89.41786193847656 65.14906311035156 64.71184539794922" stroke-width="3.0" fill="none" stroke="rgb(0, 0, 0)" stroke-opacity="1.0" stroke-linecap="round" stroke-linejoin="round"/>
    <path d="M 195.3596954345703 113.4764404296875 C 188.03677368164062 112.80147552490234 192.3468780517578 100.47657775878906 184.27670288085938 125.24653625488281" stroke-width="3.0" fill="none" stroke="rgb(0, 0, 0)" stroke-opacity="1.0" stroke-linecap="round" stroke-linejoin="round"/>
    <path d="M 62.57280349731445 122.01287841796875 C 56.471248626708984 86.84783935546875 59.37137985229492 116.25410461425781 66.36343383789062 122.8642578125" stroke-width="3.0" fill="none" stroke="rgb(0, 0, 0)" stroke-opacity="1.0" stroke-linecap="round" stroke-linejoin="round"/>
    <path d="M 188.2511749267578 94.00386047363281 C 140.80609130859375 75.89775085449219 189.04876708984375 75.4455337524414 190.6065673828125 103.66014862060547" stroke-width="3.0" fill="none" stroke="rgb(0, 0, 0)" stroke-opacity="1.0" stroke-linecap="round" stroke-linejoin="round"/>
    <path d="M 176.6961669921875 41.28972625732422 C 195.1599578857422 93.64276885986328 178.23635864257812 108.81480407714844 182.44273376464844 69.69313049316406" stroke-width="3.0" fill="none" stroke="rgb(0, 0, 0)" stroke-opacity="1.0" stroke-linecap="round" stroke-linejoin="round"/>
    <path d="M 129.77444458007812 100.57962799072266 C 151.04205322265625 115.85579681396484 96.54965209960938 102.21078491210938 133.635498046875 102.0318832397461" stroke-width="3.0" fill="none" stroke="rgb(0, 0, 0)" stroke-opacity="1.0" stroke-linecap="round" stroke-linejoin="round"/>
    <path d="M 183.244140625 82.8229751586914 C 178.9174041748047 78.7974624633789 199.86973571777344 76.28606414794922 153.97366333007812 87.94524383544922" stroke-width="3.0" fill="none" stroke="rgb(0, 0, 0)" stroke-opacity="1.0" stroke-linecap="round" stroke-linejoin="round"/>
    <path d="M 65.43440246582031 190.45013427734375 C 40.65317153930664 168.7354278564453 49.98365020751953 166.2375946044922 48.91915512084961 171.67347717285156" stroke-width="3.0" fill="none" stroke="rgb(0, 0, 0)" stroke-opacity="1.0" stroke-linecap="round" stroke-linejoin="round"/>
    <path d="M 58.30769348144531 185.344970703125 C 84.44135284423828 211.92352294921875 133.33636474609375 196.5604248046875 134.9766082763672 165.49151611328125" stroke-width="3.0" fill="none" stroke="rgb(0, 0, 0)" stroke-opacity="1.0" stroke-linecap="round" stroke-linejoin="round"/>
    <path d="M 83.2403335571289 13.205360412597656 C 97.10580444335938 78.66478729248047 90.30205535888672 8.756996154785156 85.48470306396484 57.454200744628906" stroke-width="3.0" fill="none" stroke="rgb(0, 0, 0)" stroke-opacity="1.0" stroke-linecap="round" stroke-linejoin="round"/>
    <path d="M 61.55008316040039 86.54498291015625 C 56.420623779296875 139.3472900390625 73.88252258300781 134.80995178222656 61.780391693115234 120.95458221435547" stroke-width="3.0" fill="none" stroke="rgb(0, 0, 0)" stroke-opacity="1.0" stroke-linecap="round" stroke-linejoin="round"/>
    <path d="M 147.27549743652344 71.7524185180664 C 199.79443359375 60.983253479003906 194.78054809570312 87.47527313232422 139.58555603027344 84.54736328125" stroke-width="3.0" fill="none" stroke="rgb(0, 0, 0)" stroke-opacity="1.0" stroke-linecap="round" stroke-linejoin="round"/>
    <path d="M 147.70742797851562 96.5070571899414 C 179.51190185546875 97.32514190673828 183.00244140625 96.73490905761719 194.8721923828125 112.42118072509766" stroke-width="3.0" fill="none" stroke="rgb(0, 0, 0)" stroke-opacity="1.0" stroke-linecap="round" stroke-linejoin="round"/>
    <path d="M 117.8802261352539 148.7786407470703 C 159.8890380859375 162.11651611328125 110.32450866699219 145.88670349121094 101.85428619384766 154.4522705078125" stroke-width="3.0" fill="none" stroke="rgb(0, 0, 0)" stroke-opacity="1.0" stroke-linecap="round" stroke-linejoin="round"/>
    <path d="M 179.30340576171875 8.149224281311035 C 189.18362426757812 22.867416381835938 168.72012329101562 93.85604858398438 178.8230743408203 47.6329345703125" stroke-width="3.0" fill="none" stroke="rgb(0, 0, 0)" stroke-opacity="1.0" stroke-linecap="round" stroke-linejoin="round"/>
    <path d="M 140.27630615234375 31.634946823120117 C 109.95481872558594 22.1412410736084 135.19482421875 43.30006790161133 127.27824401855469 75.37986755371094" stroke-width="3.0" fill="none" stroke="rgb(0, 0, 0)" stroke-opacity="1.0" stroke-linecap="round" stroke-linejoin="round"/>
    <path d="M 107.20780944824219 46.11536407470703 C 63.133304595947266 -9.446494102478027 85.37322998046875 -2.4111311435699463 118.4286880493164 31.083337783813477" stroke-width="3.0" fill="none" stroke="rgb(0, 0, 0)" stroke-opacity="1.0" stroke-linecap="round" stroke-linejoin="round"/>
    <path d="M 47.36655044555664 168.57513427734375 C 45.31302261352539 157.3056640625 43.68269729614258 150.64663696289062 47.70398712158203 171.19532775878906" stroke-width="3.0" fill="none" stroke="rgb(0, 0, 0)" stroke-opacity="1.0" stroke-linecap="round" stroke-linejoin="round"/>
    <path d="M 56.09087371826172 77.1633529663086 C 24.63214683532715 134.10853576660156 44.323482513427734 137.9416046142578 45.883522033691406 162.9165496826172" stroke-width="3.0" fill="none" stroke="rgb(0, 0, 0)" stroke-opacity="1.0" stroke-linecap="round" stroke-linejoin="round"/>
    <path d="M 70.84690856933594 138.300537109375 C 133.14190673828125 160.48284912109375 98.60237884521484 149.0040740966797 88.20046997070312 145.91946411132812" stroke-width="3.0" fill="none" stroke="rgb(0, 0, 0)" stroke-opacity="1.0" stroke-linecap="round" stroke-linejoin="round"/>
    <path d="M 86.74844360351562 197.7449951171875 C 67.9518051147461 197.49110412597656 48.935020446777344 175.46682739257812 46.17072677612305 165.5725555419922" stroke-width="3.0" fill="none" stroke="rgb(0, 0, 0)" stroke-opacity="1.0" stroke-linecap="round" stroke-linejoin="round"/>
    <path d="M 48.5518684387207 174.25807189941406 C 68.87738800048828 196.2877655029297 44.08219909667969 176.0775146484375 39.579017639160156 147.6600799560547" stroke-width="3.0" fill="none" stroke="rgb(0, 0, 0)" stroke-opacity="1.0" stroke-linecap="round" stroke-linejoin="round"/>
    <path d="M 83.46498107910156 63.750144958496094 C 57.847999572753906 59.568336486816406 53.08865737915039 73.87515258789062 40.71894454956055 111.1500015258789" stroke-width="3.0" fill="none" stroke="rgb(0, 0, 0)" stroke-opacity="1.0" stroke-linecap="round" stroke-linejoin="round"/>
    <path d="M 159.34579467773438 140.87501525878906 C 104.89363098144531 156.15992736816406 86.76144409179688 157.64695739746094 145.21006774902344 151.81356811523438" stroke-width="3.0" fill="none" stroke="rgb(0, 0, 0)" stroke-opacity="1.0" stroke-linecap="round" stroke-linejoin="round"/>
    <path d="M 150.7915496826172 26.969661712646484 C 148.04144287109375 30.985998153686523 136.19737243652344 17.4409122467041 138.46205139160156 76.4583740234375" stroke-width="3.0" fill="none" stroke="rgb(0, 0, 0)" stroke-opacity="1.0" stroke-linecap="round" stroke-linejoin="round"/>
    <path d="M 143.75645446777344 98.90519714355469 C 123.46842956542969 112.89936828613281 120.35037994384766 106.69422149658203 118.03239440917969 95.609619140625" stroke-width="3.0" fill="none" stroke="rgb(0, 0, 0)" stroke-opacity="1.0" stroke-linecap="round" stroke-linejoin="round"/>
    <path d="M 137.36965942382812 70.50746154785156 C 143.76922607421875 54.11860275268555 127.5705337524414 61.742042541503906 140.80613708496094 80.49327850341797" stroke-width="3.0" fill="none" stroke="rgb(0, 0, 0)" stroke-opacity="1.0" stroke-linecap="round" stroke-linejoin="round"/>
    <path d="M 138.6456756591797 159.13140869140625 C 127.04436492919922 173.36785888671875 142.94384765625 166.28213500976562 143.0546112060547 147.28497314453125" stroke-width="3.0" fill="none" stroke="rgb(0, 0, 0)" stroke-opacity="1.0" stroke-linecap="round" stroke-linejoin="round"/>
    <path d="M 195.46676635742188 94.15888214111328 C 172.89308166503906 61.76979446411133 171.9269256591797 72.58576202392578 185.9571990966797 88.32869720458984" stroke-width="3.0" fill="none" stroke="rgb(0, 0, 0)" stroke-opacity="1.0" stroke-linecap="round" stroke-linejoin="round"/>
    <path d="M 148.44517517089844 78.66350555419922 C 125.78177642822266 53.040977478027344 207.39598083496094 89.80077362060547 174.90029907226562 63.21605682373047" stroke-width="3.0" fill="none" stroke="rgb(0, 0, 0)" stroke-opacity="1.0" stroke-linecap="round" stroke-linejoin="round"/>
    <path d="M 112.2171859741211 76.514892578125 C 77.86259460449219 67.53887176513672 140.12010192871094 68.33729553222656 107.46961975097656 73.50393676757812" stroke-width="3.0" fill="none" stroke="rgb(0, 0, 0)" stroke-opacity="1.0" stroke-linecap="round" stroke-linejoin="round"/>
    <path d="M 166.38868713378906 132.37574768066406 C 148.7533721923828 158.82492065429688 104.9832992553711 147.31558227539062 95.47854614257812 152.11065673828125" stroke-width="3.0" fill="none" stroke="rgb(0, 0, 0)" stroke-opacity="1.0" stroke-linecap="round" stroke-linejoin="round"/>
    <path d="M 122.63011932373047 89.83793640136719 C 139.51797485351562 98.1380386352539 127.41764831542969 65.48333740234375 128.76683044433594 105.07234954833984" stroke-width="3.0" fill="none" stroke="rgb(0, 0, 0)" stroke-opacity="1.0" stroke-linecap="round" stroke-linejoin="round"/>
    <path d="M 189.0496368408203 115.91881561279297 C 163.18434143066406 85.12994384765625 173.19424438476562 97.61603546142578 146.11282348632812 85.71019744873047" stroke-width="3.0" fill="none" stroke="rgb(0, 0, 0)" stroke-opacity="1.0" stroke-linecap="round" stroke-linejoin="round"/>
    <path d="M 94.25791931152344 26.580333709716797 C 127.75056457519531 26.988122940063477 89.07522583007812 33.07829284667969 143.12452697753906 27.779523849487305" stroke-width="3.0" fill="none" stroke="rgb(0, 0, 0)" stroke-opacity="1.0" stroke-linecap="round" stroke-linejoin="round"/>
    <path d="M 61.0328369140625 117.01715087890625 C 61.91856384277344 108.41497802734375 53.353538513183594 123.9001235961914 71.13570404052734 138.45433044433594" stroke-width="3.0" fill="none" stroke="rgb(0, 0, 0)" stroke-opacity="1.0" stroke-linecap="round" stroke-linejoin="round"/>
    <path d="M 135.9136962890625 100.94938659667969 C 118.31876373291016 92.407958984375 123.85600280761719 118.41878509521484 110.26483154296875 87.24921417236328" stroke-width="3.0" fill="none" stroke="rgb(0, 0, 0)" stroke-opacity="1.0" stroke-linecap="round" stroke-linejoin="round"/>
    <path d="M 38.89423751831055 148.3251495361328 C 25.676773071289062 123.16433715820312 32.87775802612305 82.97249603271484 58.13060760498047 67.13761901855469" stroke-width="3.0" fill="none" stroke="rgb(0, 0, 0)" stroke-opacity="1.0" stroke-linecap="round" stroke-linejoin="round"/>
    <path d="M 106.31100463867188 196.37171936035156 C 79.0584716796875 199.7368621826172 72.34757232666016 198.6721649169922 107.66107177734375 196.86099243164062" stroke-width="3.0" fill="none" stroke="rgb(0, 0, 0)" stroke-opacity="1.0" stroke-linecap="round" stroke-linejoin="round"/>
    <path d="M 169.12498474121094 130.2573699951172 C 201.72842407226562 123.24134063720703 188.1826934814453 85.2472915649414 157.2985382080078 88.65469360351562" stroke-width="3.0" fill="none" stroke="rgb(0, 0, 0)" stroke-opacity="1.0" stroke-linecap="round" stroke-linejoin="round"/>
    <path d="M 155.80718994140625 72.474609375 C 132.9682159423828 87.51304626464844 168.95140075683594 76.34942626953125 148.33734130859375 70.89277648925781" stroke-width="3.0" fill="none" stroke="rgb(0, 0, 0)" stroke-opacity="1.0" stroke-linecap="round" stroke-linejoin="round"/>
    <path d="M 137.55355834960938 76.48873901367188 C 139.91758728027344 40.75654983520508 200.34352111816406 112.08052062988281 174.0925750732422 46.47438049316406" stroke-width="3.0" fill="none" stroke="rgb(0, 0, 0)" stroke-opacity="1.0" stroke-linecap="round" stroke-linejoin="round"/>
    <path d="M 155.010986328125 97.69752502441406 C 176.4770965576172 108.89698028564453 174.99790954589844 100.54150390625 184.8639373779297 121.66812133789062" stroke-width="3.0" fill="none" stroke="rgb(0, 0, 0)" stroke-opacity="1.0" stroke-linecap="round" stroke-linejoin="round"/>
    <path d="M 177.22657775878906 16.95029640197754 C 171.3679962158203 45.33750534057617 178.08126831054688 24.963640213012695 167.766357421875 39.96759033203125" stroke-width="3.0" fill="none" stroke="rgb(0, 0, 0)" stroke-opacity="1.0" stroke-linecap="round" stroke-linejoin="round"/>
    <path d="M 121.81114959716797 105.13229370117188 C 143.8401336669922 101.57392883300781 129.1891326904297 117.37732696533203 120.72494506835938 104.3411865234375" stroke-width="3.0" fill="none" stroke="rgb(0, 0, 0)" stroke-opacity="1.0" stroke-linecap="round" stroke-linejoin="round"/>
    <path d="M 62.734413146972656 112.98824310302734 C 59.65960693359375 108.30622863769531 63.123191833496094 109.06216430664062 62.870941162109375 119.4579086303711" stroke-width="3.0" fill="none" stroke="rgb(0, 0, 0)" stroke-opacity="1.0" stroke-linecap="round" stroke-linejoin="round"/>
    <path d="M 120.92807006835938 70.67327117919922 C 120.25618743896484 41.63572692871094 111.73513793945312 58.47433853149414 116.49100494384766 29.705961227416992" stroke-width="3.0" fill="none" stroke="rgb(0, 0, 0)" stroke-opacity="1.0" stroke-linecap="round" stroke-linejoin="round"/>
    <path d="M 148.57029724121094 26.442394256591797 C 144.1641082763672 34.59607696533203 161.82864379882812 7.127599716186523 176.88771057128906 8.112591743469238" stroke-width="3.0" fill="none" stroke="rgb(0, 0, 0)" stroke-opacity="1.0" stroke-linecap="round" stroke-linejoin="round"/>
  </g>
</svg>
