<?xml version="1.0" ?>
<svg xmlns="http://www.w3.org/2000/svg" version="1.1" width="224" height="224">
  <defs/>
  <g>
    <path d="M 67.86628723144531 86.59478759765625 C 67.57643127441406 86.46769714355469 72.7312240600586 89.54547119140625 52.475318908691406 76.84867858886719" stroke-width="3.0" fill="none" stroke="rgb(0, 0, 0)" stroke-opacity="1.0" stroke-linecap="round" stroke-linejoin="round"/>
    <path d="M 183.25460815429688 122.59077453613281 C 177.27932739257812 112.621337890625 201.2191925048828 90.49031066894531 173.89678955078125 129.5222930908203" stroke-width="3.0" fill="none" stroke="rgb(0, 0, 0)" stroke-opacity="1.0" stroke-linecap="round" stroke-linejoin="round"/>
    <path d="M 58.66991424560547 113.3150634765625 C 55.76264572143555 106.81788635253906 58.148101806640625 123.833740234375 67.41038513183594 132.3485870361328" stroke-width="3.0" fill="none" stroke="rgb(0, 0, 0)" stroke-opacity="1.0" stroke-linecap="round" stroke-linejoin="round"/>
    <path d="M 186.43917846679688 91.1679458618164 C 139.8590850830078 88.01600646972656 174.711669921875 79.81707763671875 189.4071807861328 107.77652740478516" stroke-width="3.0" fill="none" stroke="rgb(0, 0, 0)" stroke-opacity="1.0" stroke-linecap="round" stroke-linejoin="round"/>
    <path d="M 182.51318359375 69.25035095214844 C 184.02127075195312 111.47554016113281 184.41729736328125 99.3807373046875 184.03573608398438 73.06098937988281" stroke-width="3.0" fill="none" stroke="rgb(0, 0, 0)" stroke-opacity="1.0" stroke-linecap="round" stroke-linejoin="round"/>
    <path d="M 127.18824005126953 104.21224975585938 C 148.47222900390625 111.03673553466797 107.76819610595703 92.75566864013672 133.2842559814453 103.29718780517578" stroke-width="3.0" fill="none" stroke="rgb(0, 0, 0)" stroke-opacity="1.0" stroke-linecap="round" stroke-linejoin="round"/>
    <path d="M 174.90943908691406 83.35291290283203 C 194.53646850585938 89.1209487915039 183.988525390625 71.93714141845703 148.3397674560547 86.34180450439453" stroke-width="3.0" fill="none" stroke="rgb(0, 0, 0)" stroke-opacity="1.0" stroke-linecap="round" stroke-linejoin="round"/>
    <path d="M 65.24790954589844 189.26805114746094 C 35.01618576049805 161.43429565429688 49.85147476196289 165.2141876220703 49.29341125488281 173.1352081298828" stroke-width="3.0" fill="none" stroke="rgb(0, 0, 0)" stroke-opacity="1.0" stroke-linecap="round" stroke-linejoin="round"/>
    <path d="M 55.43675994873047 181.5240936279297 C 90.68490600585938 212.437744140625 116.21827697753906 197.10894775390625 131.45034790039062 176.36654663085938" stroke-width="3.0" fill="none" stroke="rgb(0, 0, 0)" stroke-opacity="1.0" stroke-linecap="round" stroke-linejoin="round"/>
    <path d="M 84.17350006103516 25.18781852722168 C 95.38789367675781 82.61498260498047 87.17355346679688 9.633456230163574 85.11114501953125 58.91986846923828" stroke-width="3.0" fill="none" stroke="rgb(0, 0, 0)" stroke-opacity="1.0" stroke-linecap="round" stroke-linejoin="round"/>
    <path d="M 47.15373992919922 87.94242095947266 C 62.58860397338867 143.4727020263672 85.72016906738281 150.92364501953125 75.50068664550781 144.1915283203125" stroke-width="3.0" fill="none" stroke="rgb(0, 0, 0)" stroke-opacity="1.0" stroke-linecap="round" stroke-linejoin="round"/>
    <path d="M 156.05294799804688 74.14506530761719 C 204.33128356933594 61.22298049926758 186.75521850585938 86.32876586914062 140.52183532714844 84.59339141845703" stroke-width="3.0" fill="none" stroke="rgb(0, 0, 0)" stroke-opacity="1.0" stroke-linecap="round" stroke-linejoin="round"/>
    <path d="M 151.87161254882812 95.94779205322266 C 186.04022216796875 102.7428207397461 175.52503967285156 101.90966033935547 196.28726196289062 113.83132934570312" stroke-width="3.0" fill="none" stroke="rgb(0, 0, 0)" stroke-opacity="1.0" stroke-linecap="round" stroke-linejoin="round"/>
    <path d="M 108.38851165771484 156.32513427734375 C 146.17562866210938 153.21759033203125 124.13170623779297 147.63841247558594 103.74694061279297 157.2573699951172" stroke-width="3.0" fill="none" stroke="rgb(0, 0, 0)" stroke-opacity="1.0" stroke-linecap="round" stroke-linejoin="round"/>
    <path d="M 179.036865234375 8.399779319763184 C 186.55963134765625 19.900442123413086 170.5786895751953 70.81037902832031 179.7229461669922 56.49030685424805" stroke-width="3.0" fill="none" stroke="rgb(0, 0, 0)" stroke-opacity="1.0" stroke-linecap="round" stroke-linejoin="round"/>
    <path d="M 133.55030822753906 28.720739364624023 C 129.88673400878906 49.748905181884766 135.3858642578125 52.10478210449219 126.3576889038086 66.49602508544922" stroke-width="3.0" fill="none" stroke="rgb(0, 0, 0)" stroke-opacity="1.0" stroke-linecap="round" stroke-linejoin="round"/>
    <path d="M 91.56664276123047 41.914058685302734 C 70.0539321899414 1.6556835174560547 90.65243530273438 -0.6611273884773254 114.58872985839844 31.529197692871094" stroke-width="3.0" fill="none" stroke="rgb(0, 0, 0)" stroke-opacity="1.0" stroke-linecap="round" stroke-linejoin="round"/>
    <path d="M 47.667057037353516 169.33091735839844 C 39.61459732055664 154.92608642578125 37.30052185058594 146.61764526367188 46.91472625732422 170.41973876953125" stroke-width="3.0" fill="none" stroke="rgb(0, 0, 0)" stroke-opacity="1.0" stroke-linecap="round" stroke-linejoin="round"/>
    <path d="M 35.32252502441406 95.79400634765625 C 19.880399703979492 129.90997314453125 40.33143997192383 147.50025939941406 43.4794921875 163.92282104492188" stroke-width="3.0" fill="none" stroke="rgb(0, 0, 0)" stroke-opacity="1.0" stroke-linecap="round" stroke-linejoin="round"/>
    <path d="M 79.27079772949219 149.40834045410156 C 116.03101348876953 157.13784790039062 94.37490844726562 158.5850067138672 100.58692932128906 150.4332733154297" stroke-width="3.0" fill="none" stroke="rgb(0, 0, 0)" stroke-opacity="1.0" stroke-linecap="round" stroke-linejoin="round"/>
    <path d="M 87.16059875488281 198.67196655273438 C 70.90410614013672 203.2593231201172 48.16436767578125 176.23916625976562 48.520835876464844 169.97930908203125" stroke-width="3.0" fill="none" stroke="rgb(0, 0, 0)" stroke-opacity="1.0" stroke-linecap="round" stroke-linejoin="round"/>
    <path d="M 49.49724197387695 172.5730438232422 C 67.1097640991211 193.97689819335938 45.556060791015625 172.04006958007812 37.322261810302734 145.84100341796875" stroke-width="3.0" fill="none" stroke="rgb(0, 0, 0)" stroke-opacity="1.0" stroke-linecap="round" stroke-linejoin="round"/>
    <path d="M 80.35279846191406 53.410526275634766 C 62.093109130859375 57.17216873168945 47.73805236816406 71.38871002197266 31.54474449157715 105.27499389648438" stroke-width="3.0" fill="none" stroke="rgb(0, 0, 0)" stroke-opacity="1.0" stroke-linecap="round" stroke-linejoin="round"/>
    <path d="M 154.42481994628906 138.8831024169922 C 115.19265747070312 155.17433166503906 119.04127502441406 164.7978973388672 143.41619873046875 146.06414794921875" stroke-width="3.0" fill="none" stroke="rgb(0, 0, 0)" stroke-opacity="1.0" stroke-linecap="round" stroke-linejoin="round"/>
    <path d="M 152.76942443847656 23.802579879760742 C 140.62855529785156 39.67799377441406 134.59588623046875 6.538719177246094 136.32876586914062 80.55513000488281" stroke-width="3.0" fill="none" stroke="rgb(0, 0, 0)" stroke-opacity="1.0" stroke-linecap="round" stroke-linejoin="round"/>
    <path d="M 146.8814239501953 94.42151641845703 C 131.2263641357422 109.14771270751953 127.63801574707031 110.94947814941406 121.45391845703125 101.06395721435547" stroke-width="3.0" fill="none" stroke="rgb(0, 0, 0)" stroke-opacity="1.0" stroke-linecap="round" stroke-linejoin="round"/>
    <path d="M 137.2279815673828 68.3965835571289 C 141.80946350097656 60.461669921875 128.9827423095703 68.6529312133789 135.92901611328125 81.4895248413086" stroke-width="3.0" fill="none" stroke="rgb(0, 0, 0)" stroke-opacity="1.0" stroke-linecap="round" stroke-linejoin="round"/>
    <path d="M 132.19400024414062 174.1565399169922 C 123.763671875 172.32667541503906 139.16744995117188 174.97650146484375 143.205322265625 143.8262481689453" stroke-width="3.0" fill="none" stroke="rgb(0, 0, 0)" stroke-opacity="1.0" stroke-linecap="round" stroke-linejoin="round"/>
    <path d="M 196.2922821044922 93.66563415527344 C 167.3475341796875 74.4540786743164 165.551025390625 83.12874603271484 181.2888946533203 88.40714263916016" stroke-width="3.0" fill="none" stroke="rgb(0, 0, 0)" stroke-opacity="1.0" stroke-linecap="round" stroke-linejoin="round"/>
    <path d="M 154.49261474609375 76.87992858886719 C 124.8533706665039 62.454193115234375 204.690185546875 82.66708374023438 179.17115783691406 65.85993194580078" stroke-width="3.0" fill="none" stroke="rgb(0, 0, 0)" stroke-opacity="1.0" stroke-linecap="round" stroke-linejoin="round"/>
    <path d="M 110.81171417236328 76.01914978027344 C 89.55742645263672 69.03990173339844 140.06874084472656 74.99060821533203 107.65538024902344 79.54117584228516" stroke-width="3.0" fill="none" stroke="rgb(0, 0, 0)" stroke-opacity="1.0" stroke-linecap="round" stroke-linejoin="round"/>
    <path d="M 162.09912109375 129.9801025390625 C 145.7295684814453 157.22549438476562 119.20612335205078 151.25604248046875 103.47811126708984 153.78399658203125" stroke-width="3.0" fill="none" stroke="rgb(0, 0, 0)" stroke-opacity="1.0" stroke-linecap="round" stroke-linejoin="round"/>
    <path d="M 123.79397583007812 89.18624114990234 C 143.6619873046875 100.19673919677734 125.68975067138672 70.43242645263672 130.8146514892578 108.44551849365234" stroke-width="3.0" fill="none" stroke="rgb(0, 0, 0)" stroke-opacity="1.0" stroke-linecap="round" stroke-linejoin="round"/>
    <path d="M 185.0047607421875 110.43785858154297 C 169.65771484375 87.34612274169922 180.2080535888672 84.0829849243164 148.38377380371094 90.24163055419922" stroke-width="3.0" fill="none" stroke="rgb(0, 0, 0)" stroke-opacity="1.0" stroke-linecap="round" stroke-linejoin="round"/>
    <path d="M 84.5041732788086 9.027437210083008 C 105.37824249267578 14.473361015319824 120.54768371582031 32.95821762084961 121.82429504394531 28.75705337524414" stroke-width="3.0" fill="none" stroke="rgb(0, 0, 0)" stroke-opacity="1.0" stroke-linecap="round" stroke-linejoin="round"/>
    <path d="M 59.54931640625 123.06539154052734 C 53.3314094543457 116.78790283203125 59.894222259521484 129.90321350097656 70.00077056884766 131.1423797607422" stroke-width="3.0" fill="none" stroke="rgb(0, 0, 0)" stroke-opacity="1.0" stroke-linecap="round" stroke-linejoin="round"/>
    <path d="M 139.71188354492188 104.43251037597656 C 126.16057586669922 90.9388656616211 125.16291046142578 120.39207458496094 111.01720428466797 91.71424102783203" stroke-width="3.0" fill="none" stroke="rgb(0, 0, 0)" stroke-opacity="1.0" stroke-linecap="round" stroke-linejoin="round"/>
    <path d="M 30.532642364501953 128.87489318847656 C 28.72549057006836 99.74179077148438 36.30259704589844 96.56206512451172 49.01841354370117 75.90087127685547" stroke-width="3.0" fill="none" stroke="rgb(0, 0, 0)" stroke-opacity="1.0" stroke-linecap="round" stroke-linejoin="round"/>
    <path d="M 79.7125015258789 197.81985473632812 C 73.26058197021484 190.05760192871094 67.33768463134766 197.04762268066406 100.62615203857422 198.1060028076172" stroke-width="3.0" fill="none" stroke="rgb(0, 0, 0)" stroke-opacity="1.0" stroke-linecap="round" stroke-linejoin="round"/>
    <path d="M 165.17124938964844 130.79090881347656 C 200.27682495117188 115.63699340820312 179.6540069580078 94.68748474121094 154.2436065673828 89.01956939697266" stroke-width="3.0" fill="none" stroke="rgb(0, 0, 0)" stroke-opacity="1.0" stroke-linecap="round" stroke-linejoin="round"/>
    <path d="M 150.26235961914062 69.09861755371094 C 138.44558715820312 86.31785583496094 176.24327087402344 77.74987030029297 147.29678344726562 69.10065460205078" stroke-width="3.0" fill="none" stroke="rgb(0, 0, 0)" stroke-opacity="1.0" stroke-linecap="round" stroke-linejoin="round"/>
    <path d="M 141.94537353515625 77.24205780029297 C 147.27090454101562 43.943180084228516 199.4971923828125 112.63883972167969 175.67291259765625 44.10224914550781" stroke-width="3.0" fill="none" stroke="rgb(0, 0, 0)" stroke-opacity="1.0" stroke-linecap="round" stroke-linejoin="round"/>
    <path d="M 155.16140747070312 96.27584838867188 C 170.7948760986328 101.89315795898438 176.429931640625 103.334228515625 182.78294372558594 117.67915344238281" stroke-width="3.0" fill="none" stroke="rgb(0, 0, 0)" stroke-opacity="1.0" stroke-linecap="round" stroke-linejoin="round"/>
    <path d="M 176.31040954589844 15.730531692504883 C 172.239501953125 42.6039924621582 181.2908477783203 17.40274429321289 167.33413696289062 36.88960647583008" stroke-width="3.0" fill="none" stroke="rgb(0, 0, 0)" stroke-opacity="1.0" stroke-linecap="round" stroke-linejoin="round"/>
    <path d="M 119.3733139038086 103.333251953125 C 147.3701171875 102.16986846923828 130.8235626220703 116.1286849975586 116.58863830566406 102.13287353515625" stroke-width="3.0" fill="none" stroke="rgb(0, 0, 0)" stroke-opacity="1.0" stroke-linecap="round" stroke-linejoin="round"/>
    <path d="M 70.78389739990234 131.4130401611328 C 49.26699447631836 126.02416229248047 61.250221252441406 112.9182357788086 58.26131057739258 116.30752563476562" stroke-width="3.0" fill="none" stroke="rgb(0, 0, 0)" stroke-opacity="1.0" stroke-linecap="round" stroke-linejoin="round"/>
    <path d="M 124.36937713623047 73.5264663696289 C 132.25119018554688 38.04243850708008 121.51246643066406 50.731910705566406 127.54850769042969 29.61373519897461" stroke-width="3.0" fill="none" stroke="rgb(0, 0, 0)" stroke-opacity="1.0" stroke-linecap="round" stroke-linejoin="round"/>
    <path d="M 157.3341827392578 20.405742645263672 C 146.99139404296875 31.257055282592773 164.367919921875 8.504502296447754 179.58787536621094 8.066811561584473" stroke-width="3.0" fill="none" stroke="rgb(0, 0, 0)" stroke-opacity="1.0" stroke-linecap="round" stroke-linejoin="round"/>
  </g>
</svg>
