<?xml version="1.0" ?>
<svg xmlns="http://www.w3.org/2000/svg" version="1.1" width="224" height="224">
  <defs/>
  <g>
    <path d="M 56.46867370605469 119.87857818603516 C 57.200435638427734 119.36775970458984 47.79909896850586 111.65819549560547 44.80971145629883 95.15010833740234" stroke-width="3.0" fill="none" stroke="rgb(0, 0, 0)" stroke-opacity="1.0" stroke-linecap="round" stroke-linejoin="round"/>
    <path d="M 182.5702362060547 126.8981704711914 C 186.01174926757812 108.01141357421875 183.168701171875 112.85179901123047 187.3879852294922 121.63867950439453" stroke-width="3.0" fill="none" stroke="rgb(0, 0, 0)" stroke-opacity="1.0" stroke-linecap="round" stroke-linejoin="round"/>
    <path d="M 48.73195266723633 106.71952819824219 C 52.51865768432617 112.09481811523438 48.851104736328125 104.09668731689453 50.35204315185547 109.35375213623047" stroke-width="3.0" fill="none" stroke="rgb(0, 0, 0)" stroke-opacity="1.0" stroke-linecap="round" stroke-linejoin="round"/>
    <path d="M 183.22874450683594 98.57566833496094 C 158.36367797851562 90.83456420898438 170.96571350097656 81.42588806152344 194.7662353515625 112.30220031738281" stroke-width="3.0" fill="none" stroke="rgb(0, 0, 0)" stroke-opacity="1.0" stroke-linecap="round" stroke-linejoin="round"/>
    <path d="M 183.92886352539062 70.61687469482422 C 181.636962890625 77.54618072509766 175.88946533203125 76.59510803222656 186.09371948242188 66.24339294433594" stroke-width="3.0" fill="none" stroke="rgb(0, 0, 0)" stroke-opacity="1.0" stroke-linecap="round" stroke-linejoin="round"/>
    <path d="M 129.99302673339844 99.76634979248047 C 130.09693908691406 111.52731323242188 116.67013549804688 100.73678588867188 134.9542999267578 105.00243377685547" stroke-width="3.0" fill="none" stroke="rgb(0, 0, 0)" stroke-opacity="1.0" stroke-linecap="round" stroke-linejoin="round"/>
    <path d="M 174.01419067382812 86.17744445800781 C 198.06008911132812 57.57975769042969 185.124755859375 64.2971420288086 161.49618530273438 86.15327453613281" stroke-width="3.0" fill="none" stroke="rgb(0, 0, 0)" stroke-opacity="1.0" stroke-linecap="round" stroke-linejoin="round"/>
    <path d="M 57.475852966308594 182.93861389160156 C 38.02430725097656 151.2527313232422 44.56578826904297 164.00221252441406 42.944034576416016 157.48309326171875" stroke-width="3.0" fill="none" stroke="rgb(0, 0, 0)" stroke-opacity="1.0" stroke-linecap="round" stroke-linejoin="round"/>
    <path d="M 66.78266143798828 189.38290405273438 C 92.343017578125 197.86415100097656 116.01091766357422 196.36216735839844 106.66593933105469 194.89926147460938" stroke-width="3.0" fill="none" stroke="rgb(0, 0, 0)" stroke-opacity="1.0" stroke-linecap="round" stroke-linejoin="round"/>
    <path d="M 90.56889343261719 22.466053009033203 C 95.4596939086914 54.99761962890625 90.731201171875 25.39238166809082 94.11318969726562 48.73575210571289" stroke-width="3.0" fill="none" stroke="rgb(0, 0, 0)" stroke-opacity="1.0" stroke-linecap="round" stroke-linejoin="round"/>
    <path d="M 60.015384674072266 127.20427703857422 C 69.57537078857422 141.08018493652344 81.83061218261719 144.9164276123047 84.91682434082031 145.9382781982422" stroke-width="3.0" fill="none" stroke="rgb(0, 0, 0)" stroke-opacity="1.0" stroke-linecap="round" stroke-linejoin="round"/>
    <path d="M 166.89553833007812 79.42940521240234 C 187.48915100097656 70.22014617919922 171.61111450195312 82.90351867675781 147.8048858642578 88.59589385986328" stroke-width="3.0" fill="none" stroke="rgb(0, 0, 0)" stroke-opacity="1.0" stroke-linecap="round" stroke-linejoin="round"/>
    <path d="M 157.18145751953125 101.26570129394531 C 170.96615600585938 101.21875762939453 168.37059020996094 100.91448211669922 190.1842498779297 109.6340103149414" stroke-width="3.0" fill="none" stroke="rgb(0, 0, 0)" stroke-opacity="1.0" stroke-linecap="round" stroke-linejoin="round"/>
    <path d="M 90.95194244384766 159.93490600585938 C 104.80542755126953 176.05596923828125 98.80549621582031 183.2468719482422 109.2478256225586 192.0661163330078" stroke-width="3.0" fill="none" stroke="rgb(0, 0, 0)" stroke-opacity="1.0" stroke-linecap="round" stroke-linejoin="round"/>
    <path d="M 172.7621612548828 9.733386993408203 C 188.59524536132812 1.5415146350860596 176.54710388183594 27.08732032775879 183.1090850830078 63.38828659057617" stroke-width="3.0" fill="none" stroke="rgb(0, 0, 0)" stroke-opacity="1.0" stroke-linecap="round" stroke-linejoin="round"/>
    <path d="M 135.22189331054688 32.097145080566406 C 124.97627258300781 59.642677307128906 132.09747314453125 36.211753845214844 130.91432189941406 70.90875244140625" stroke-width="3.0" fill="none" stroke="rgb(0, 0, 0)" stroke-opacity="1.0" stroke-linecap="round" stroke-linejoin="round"/>
    <path d="M 98.12525177001953 45.35774612426758 C 68.0905532836914 -6.57832145690918 84.71322631835938 2.5828442573547363 107.52789306640625 40.78586959838867" stroke-width="3.0" fill="none" stroke="rgb(0, 0, 0)" stroke-opacity="1.0" stroke-linecap="round" stroke-linejoin="round"/>
    <path d="M 49.11781692504883 168.42266845703125 C 39.6845588684082 157.9087371826172 46.7900390625 159.3056182861328 46.76251220703125 164.4471893310547" stroke-width="3.0" fill="none" stroke="rgb(0, 0, 0)" stroke-opacity="1.0" stroke-linecap="round" stroke-linejoin="round"/>
    <path d="M 31.744794845581055 110.78994750976562 C 25.21224021911621 130.2282257080078 36.98061752319336 140.0070343017578 41.84962844848633 160.25482177734375" stroke-width="3.0" fill="none" stroke="rgb(0, 0, 0)" stroke-opacity="1.0" stroke-linecap="round" stroke-linejoin="round"/>
    <path d="M 82.32878112792969 152.6099090576172 C 92.6690673828125 160.73654174804688 93.38069915771484 164.74295043945312 85.47974395751953 154.73692321777344" stroke-width="3.0" fill="none" stroke="rgb(0, 0, 0)" stroke-opacity="1.0" stroke-linecap="round" stroke-linejoin="round"/>
    <path d="M 74.7529296875 191.27064514160156 C 51.02030944824219 179.71524047851562 71.94710540771484 191.0145721435547 49.05867385864258 173.88682556152344" stroke-width="3.0" fill="none" stroke="rgb(0, 0, 0)" stroke-opacity="1.0" stroke-linecap="round" stroke-linejoin="round"/>
    <path d="M 42.80105972290039 154.6082000732422 C 47.81570816040039 169.90553283691406 43.274166107177734 155.46023559570312 37.47810363769531 145.55706787109375" stroke-width="3.0" fill="none" stroke="rgb(0, 0, 0)" stroke-opacity="1.0" stroke-linecap="round" stroke-linejoin="round"/>
    <path d="M 72.4886245727539 62.13089370727539 C 49.5914421081543 74.66146850585938 49.881465911865234 73.4441146850586 34.27021026611328 104.66085052490234" stroke-width="3.0" fill="none" stroke="rgb(0, 0, 0)" stroke-opacity="1.0" stroke-linecap="round" stroke-linejoin="round"/>
    <path d="M 145.74525451660156 157.57281494140625 C 143.38963317871094 161.58023071289062 125.03948974609375 151.0135498046875 139.3800048828125 164.0572052001953" stroke-width="3.0" fill="none" stroke="rgb(0, 0, 0)" stroke-opacity="1.0" stroke-linecap="round" stroke-linejoin="round"/>
    <path d="M 142.2351531982422 31.362476348876953 C 145.03587341308594 49.84781265258789 129.66610717773438 50.84382247924805 138.14450073242188 80.66283416748047" stroke-width="3.0" fill="none" stroke="rgb(0, 0, 0)" stroke-opacity="1.0" stroke-linecap="round" stroke-linejoin="round"/>
    <path d="M 142.77610778808594 101.45365905761719 C 127.35342407226562 112.9892349243164 114.63487243652344 103.75745391845703 127.30300903320312 102.03828430175781" stroke-width="3.0" fill="none" stroke="rgb(0, 0, 0)" stroke-opacity="1.0" stroke-linecap="round" stroke-linejoin="round"/>
    <path d="M 137.4136962890625 77.53215026855469 C 143.30284118652344 45.305458068847656 146.98281860351562 54.483455657958984 148.2522430419922 50.00999450683594" stroke-width="3.0" fill="none" stroke="rgb(0, 0, 0)" stroke-opacity="1.0" stroke-linecap="round" stroke-linejoin="round"/>
    <path d="M 119.2478256225586 191.47691345214844 C 98.26777648925781 190.51651000976562 108.44175720214844 209.74317932128906 137.28062438964844 173.8827667236328" stroke-width="3.0" fill="none" stroke="rgb(0, 0, 0)" stroke-opacity="1.0" stroke-linecap="round" stroke-linejoin="round"/>
    <path d="M 187.14895629882812 91.47746276855469 C 155.6217041015625 77.28675079345703 155.0477752685547 91.91622924804688 181.0398712158203 83.11885070800781" stroke-width="3.0" fill="none" stroke="rgb(0, 0, 0)" stroke-opacity="1.0" stroke-linecap="round" stroke-linejoin="round"/>
    <path d="M 169.98915100097656 80.0182876586914 C 197.4634246826172 84.54134368896484 198.1753387451172 81.50806427001953 163.96414184570312 79.51097869873047" stroke-width="3.0" fill="none" stroke="rgb(0, 0, 0)" stroke-opacity="1.0" stroke-linecap="round" stroke-linejoin="round"/>
    <path d="M 111.04132843017578 77.39131164550781 C 93.27520751953125 69.68375396728516 140.13909912109375 75.45227813720703 108.11106872558594 80.27781677246094" stroke-width="3.0" fill="none" stroke="rgb(0, 0, 0)" stroke-opacity="1.0" stroke-linecap="round" stroke-linejoin="round"/>
    <path d="M 137.99783325195312 159.41514587402344 C 139.95663452148438 155.5681610107422 125.28275299072266 157.56394958496094 106.70952606201172 138.6230010986328" stroke-width="3.0" fill="none" stroke="rgb(0, 0, 0)" stroke-opacity="1.0" stroke-linecap="round" stroke-linejoin="round"/>
    <path d="M 123.301025390625 89.75850677490234 C 136.4800567626953 97.52769470214844 131.37411499023438 76.45246887207031 128.94976806640625 96.4205093383789" stroke-width="3.0" fill="none" stroke="rgb(0, 0, 0)" stroke-opacity="1.0" stroke-linecap="round" stroke-linejoin="round"/>
    <path d="M 187.72799682617188 96.5545883178711 C 167.5499725341797 86.56038665771484 185.33651733398438 95.54644012451172 140.06700134277344 85.01533508300781" stroke-width="3.0" fill="none" stroke="rgb(0, 0, 0)" stroke-opacity="1.0" stroke-linecap="round" stroke-linejoin="round"/>
    <path d="M 85.30322265625 8.89456844329834 C 111.45353698730469 19.796798706054688 113.94600677490234 36.298404693603516 124.17748260498047 32.13581848144531" stroke-width="3.0" fill="none" stroke="rgb(0, 0, 0)" stroke-opacity="1.0" stroke-linecap="round" stroke-linejoin="round"/>
    <path d="M 53.145687103271484 112.96855926513672 C 50.618255615234375 108.33856964111328 59.09141159057617 122.61663055419922 52.2611083984375 113.1891098022461" stroke-width="3.0" fill="none" stroke="rgb(0, 0, 0)" stroke-opacity="1.0" stroke-linecap="round" stroke-linejoin="round"/>
    <path d="M 122.41374206542969 100.2370376586914 C 97.95835876464844 87.6380386352539 128.95278930664062 99.80905151367188 104.1019058227539 88.13887023925781" stroke-width="3.0" fill="none" stroke="rgb(0, 0, 0)" stroke-opacity="1.0" stroke-linecap="round" stroke-linejoin="round"/>
    <path d="M 30.243305206298828 116.89613342285156 C 34.64685821533203 99.16450500488281 36.39851760864258 106.29850769042969 30.764751434326172 115.3080825805664" stroke-width="3.0" fill="none" stroke="rgb(0, 0, 0)" stroke-opacity="1.0" stroke-linecap="round" stroke-linejoin="round"/>
    <path d="M 85.38175201416016 193.8998260498047 C 72.82722473144531 195.3543243408203 73.46297454833984 189.81861877441406 91.68101501464844 195.37985229492188" stroke-width="3.0" fill="none" stroke="rgb(0, 0, 0)" stroke-opacity="1.0" stroke-linecap="round" stroke-linejoin="round"/>
    <path d="M 160.8050079345703 135.80929565429688 C 207.64845275878906 113.20230865478516 178.3833465576172 94.65540313720703 149.13584899902344 94.66149139404297" stroke-width="3.0" fill="none" stroke="rgb(0, 0, 0)" stroke-opacity="1.0" stroke-linecap="round" stroke-linejoin="round"/>
    <path d="M 152.2737274169922 75.6825942993164 C 126.11434173583984 65.04129028320312 160.801025390625 88.4512710571289 151.79232788085938 70.92723846435547" stroke-width="3.0" fill="none" stroke="rgb(0, 0, 0)" stroke-opacity="1.0" stroke-linecap="round" stroke-linejoin="round"/>
    <path d="M 145.68658447265625 76.51106262207031 C 147.14793395996094 57.49067306518555 177.7485809326172 91.0354995727539 185.30519104003906 59.886348724365234" stroke-width="3.0" fill="none" stroke="rgb(0, 0, 0)" stroke-opacity="1.0" stroke-linecap="round" stroke-linejoin="round"/>
    <path d="M 146.98397827148438 98.61360931396484 C 158.38157653808594 97.55030059814453 171.07769775390625 107.71295166015625 184.0548858642578 114.41976165771484" stroke-width="3.0" fill="none" stroke="rgb(0, 0, 0)" stroke-opacity="1.0" stroke-linecap="round" stroke-linejoin="round"/>
    <path d="M 176.75827026367188 18.655466079711914 C 172.62998962402344 46.89725875854492 174.58966064453125 29.177762985229492 166.83627319335938 42.031192779541016" stroke-width="3.0" fill="none" stroke="rgb(0, 0, 0)" stroke-opacity="1.0" stroke-linecap="round" stroke-linejoin="round"/>
    <path d="M 125.15055084228516 103.80458068847656 C 149.64942932128906 110.88172912597656 124.68595886230469 93.9073486328125 112.43924713134766 103.50524139404297" stroke-width="3.0" fill="none" stroke="rgb(0, 0, 0)" stroke-opacity="1.0" stroke-linecap="round" stroke-linejoin="round"/>
    <path d="M 51.408634185791016 110.14219665527344 C 54.582759857177734 111.04415893554688 48.60994338989258 105.48281860351562 60.8985595703125 128.55897521972656" stroke-width="3.0" fill="none" stroke="rgb(0, 0, 0)" stroke-opacity="1.0" stroke-linecap="round" stroke-linejoin="round"/>
    <path d="M 122.06996154785156 83.40090942382812 C 133.6280517578125 59.13090896606445 115.77722930908203 53.05704879760742 121.13340759277344 35.05747985839844" stroke-width="3.0" fill="none" stroke="rgb(0, 0, 0)" stroke-opacity="1.0" stroke-linecap="round" stroke-linejoin="round"/>
    <path d="M 147.1465301513672 31.5084171295166 C 151.894775390625 30.859516143798828 152.33982849121094 18.019115447998047 173.9090576171875 9.202411651611328" stroke-width="3.0" fill="none" stroke="rgb(0, 0, 0)" stroke-opacity="1.0" stroke-linecap="round" stroke-linejoin="round"/>
  </g>
</svg>
