<?xml version="1.0" ?>
<svg xmlns="http://www.w3.org/2000/svg" version="1.1" width="224" height="224">
  <defs/>
  <g>
    <path d="M 64.99856567382812 99.9997787475586 C 68.84207153320312 100.8892593383789 65.96820831298828 98.18949890136719 66.0943832397461 99.12409210205078" stroke-width="3.0" fill="none" stroke="rgb(0, 0, 0)" stroke-opacity="1.0" stroke-linecap="round" stroke-linejoin="round"/>
    <path d="M 165.99996948242188 123.00010681152344 C 169.17808532714844 122.79559326171875 166.91778564453125 123.72989654541016 173.48721313476562 121.78350830078125" stroke-width="3.0" fill="none" stroke="rgb(0, 0, 0)" stroke-opacity="1.0" stroke-linecap="round" stroke-linejoin="round"/>
    <path d="M 50.99982833862305 106.99994659423828 C 48.55637741088867 109.8643569946289 49.88209533691406 105.07096099853516 52.47153091430664 112.47785186767578" stroke-width="3.0" fill="none" stroke="rgb(0, 0, 0)" stroke-opacity="1.0" stroke-linecap="round" stroke-linejoin="round"/>
    <path d="M 166.99989318847656 97.00011444091797 C 168.47467041015625 103.49876403808594 166.35716247558594 104.07857513427734 170.81517028808594 108.13896179199219" stroke-width="3.0" fill="none" stroke="rgb(0, 0, 0)" stroke-opacity="1.0" stroke-linecap="round" stroke-linejoin="round"/>
    <path d="M 181.0001678466797 84.00006103515625 C 182.68785095214844 79.52854919433594 181.95059204101562 80.77000427246094 186.57640075683594 87.9955825805664" stroke-width="3.0" fill="none" stroke="rgb(0, 0, 0)" stroke-opacity="1.0" stroke-linecap="round" stroke-linejoin="round"/>
    <path d="M 124.9999008178711 112.99981689453125 C 122.74292755126953 115.09269714355469 122.05866241455078 118.50865173339844 122.60501098632812 113.06510162353516" stroke-width="3.0" fill="none" stroke="rgb(0, 0, 0)" stroke-opacity="1.0" stroke-linecap="round" stroke-linejoin="round"/>
    <path d="M 169.00384521484375 86.00021362304688 C 173.45596313476562 84.86726379394531 177.09808349609375 88.74996948242188 171.51121520996094 88.6781234741211" stroke-width="3.0" fill="none" stroke="rgb(0, 0, 0)" stroke-opacity="1.0" stroke-linecap="round" stroke-linejoin="round"/>
    <path d="M 49.99995422363281 169.9999542236328 C 54.1163215637207 165.13279724121094 50.15999221801758 169.2812957763672 48.69934844970703 170.03721618652344" stroke-width="3.0" fill="none" stroke="rgb(0, 0, 0)" stroke-opacity="1.0" stroke-linecap="round" stroke-linejoin="round"/>
    <path d="M 86.00033569335938 184.99981689453125 C 83.07273864746094 190.22763061523438 86.46839904785156 189.65328979492188 81.76914978027344 187.6383056640625" stroke-width="3.0" fill="none" stroke="rgb(0, 0, 0)" stroke-opacity="1.0" stroke-linecap="round" stroke-linejoin="round"/>
    <path d="M 93.00004577636719 81.00006103515625 C 93.08900451660156 85.84786987304688 88.71051788330078 86.42208099365234 91.02395629882812 86.95427703857422" stroke-width="3.0" fill="none" stroke="rgb(0, 0, 0)" stroke-opacity="1.0" stroke-linecap="round" stroke-linejoin="round"/>
    <path d="M 75.99994659423828 146.0000457763672 C 77.52303314208984 148.45098876953125 82.718505859375 149.60316467285156 83.6983871459961 146.99159240722656" stroke-width="3.0" fill="none" stroke="rgb(0, 0, 0)" stroke-opacity="1.0" stroke-linecap="round" stroke-linejoin="round"/>
    <path d="M 170.99940490722656 95.00004577636719 C 172.07823181152344 95.70929718017578 172.92535400390625 93.36173248291016 167.4469451904297 89.8538589477539" stroke-width="3.0" fill="none" stroke="rgb(0, 0, 0)" stroke-opacity="1.0" stroke-linecap="round" stroke-linejoin="round"/>
    <path d="M 160.99932861328125 101.99983215332031 C 162.26126098632812 103.75236511230469 160.00112915039062 99.15925598144531 164.88528442382812 103.38037872314453" stroke-width="3.0" fill="none" stroke="rgb(0, 0, 0)" stroke-opacity="1.0" stroke-linecap="round" stroke-linejoin="round"/>
    <path d="M 83.00008392333984 175.99996948242188 C 89.74168395996094 177.835693359375 94.2013168334961 182.57415771484375 92.65614318847656 183.3565673828125" stroke-width="3.0" fill="none" stroke="rgb(0, 0, 0)" stroke-opacity="1.0" stroke-linecap="round" stroke-linejoin="round"/>
    <path d="M 164.99996948242188 36.99995040893555 C 167.29896545410156 32.4871711730957 170.78912353515625 36.40142822265625 175.21372985839844 39.40707015991211" stroke-width="3.0" fill="none" stroke="rgb(0, 0, 0)" stroke-opacity="1.0" stroke-linecap="round" stroke-linejoin="round"/>
    <path d="M 117.0001449584961 41.00005340576172 C 124.03694152832031 41.89992904663086 123.48326110839844 43.689212799072266 127.04178619384766 50.35703659057617" stroke-width="3.0" fill="none" stroke="rgb(0, 0, 0)" stroke-opacity="1.0" stroke-linecap="round" stroke-linejoin="round"/>
    <path d="M 83.00003814697266 19.000978469848633 C 86.28573608398438 14.322694778442383 87.54867553710938 14.170899391174316 91.00602722167969 20.035539627075195" stroke-width="3.0" fill="none" stroke="rgb(0, 0, 0)" stroke-opacity="1.0" stroke-linecap="round" stroke-linejoin="round"/>
    <path d="M 46.999900817871094 159.99998474121094 C 44.12174606323242 160.5928497314453 39.83366775512695 157.46197509765625 43.13224792480469 155.5863494873047" stroke-width="3.0" fill="none" stroke="rgb(0, 0, 0)" stroke-opacity="1.0" stroke-linecap="round" stroke-linejoin="round"/>
    <path d="M 55.000038146972656 144.9999542236328 C 58.538475036621094 140.52610778808594 56.57707214355469 142.74066162109375 51.48402404785156 143.56797790527344" stroke-width="3.0" fill="none" stroke="rgb(0, 0, 0)" stroke-opacity="1.0" stroke-linecap="round" stroke-linejoin="round"/>
    <path d="M 69.99996185302734 165.99993896484375 C 72.5922622680664 164.38308715820312 74.6148452758789 159.0820770263672 76.12680053710938 160.27305603027344" stroke-width="3.0" fill="none" stroke="rgb(0, 0, 0)" stroke-opacity="1.0" stroke-linecap="round" stroke-linejoin="round"/>
    <path d="M 74.99996185302734 189.99993896484375 C 75.85059356689453 188.7814178466797 74.39620208740234 192.1633758544922 69.20378875732422 186.80569458007812" stroke-width="3.0" fill="none" stroke="rgb(0, 0, 0)" stroke-opacity="1.0" stroke-linecap="round" stroke-linejoin="round"/>
    <path d="M 42.99995803833008 150.99996948242188 C 48.16010284423828 147.47146606445312 41.95130920410156 144.22984313964844 47.317996978759766 149.11717224121094" stroke-width="3.0" fill="none" stroke="rgb(0, 0, 0)" stroke-opacity="1.0" stroke-linecap="round" stroke-linejoin="round"/>
    <path d="M 59.0001220703125 90.9998550415039 C 55.65483093261719 88.16700744628906 51.191864013671875 85.47808074951172 46.065460205078125 89.1235580444336" stroke-width="3.0" fill="none" stroke="rgb(0, 0, 0)" stroke-opacity="1.0" stroke-linecap="round" stroke-linejoin="round"/>
    <path d="M 126.99984741210938 143.00021362304688 C 123.3233871459961 141.41891479492188 123.36434173583984 134.26107788085938 120.89429473876953 141.72879028320312" stroke-width="3.0" fill="none" stroke="rgb(0, 0, 0)" stroke-opacity="1.0" stroke-linecap="round" stroke-linejoin="round"/>
    <path d="M 135.0001983642578 51.9998893737793 C 131.63839721679688 48.41640090942383 136.2262725830078 54.20459747314453 140.91363525390625 50.502437591552734" stroke-width="3.0" fill="none" stroke="rgb(0, 0, 0)" stroke-opacity="1.0" stroke-linecap="round" stroke-linejoin="round"/>
    <path d="M 135.00021362304688 110.0010986328125 C 136.9336395263672 115.22738647460938 131.9840850830078 117.19912719726562 135.85275268554688 115.43273162841797" stroke-width="3.0" fill="none" stroke="rgb(0, 0, 0)" stroke-opacity="1.0" stroke-linecap="round" stroke-linejoin="round"/>
    <path d="M 160.0000457763672 57.9997444152832 C 159.2073516845703 59.083335876464844 158.56150817871094 53.44245910644531 158.24371337890625 54.43240737915039" stroke-width="3.0" fill="none" stroke="rgb(0, 0, 0)" stroke-opacity="1.0" stroke-linecap="round" stroke-linejoin="round"/>
    <path d="M 95.99996948242188 178.00001525878906 C 96.77386474609375 178.0966339111328 92.66246032714844 176.49658203125 98.44404602050781 175.70680236816406" stroke-width="3.0" fill="none" stroke="rgb(0, 0, 0)" stroke-opacity="1.0" stroke-linecap="round" stroke-linejoin="round"/>
    <path d="M 186.00006103515625 94.00054931640625 C 186.6787872314453 90.53854370117188 189.3843994140625 88.70135498046875 184.29620361328125 86.247314453125" stroke-width="3.0" fill="none" stroke="rgb(0, 0, 0)" stroke-opacity="1.0" stroke-linecap="round" stroke-linejoin="round"/>
    <path d="M 175.99990844726562 83.00005340576172 C 173.0891571044922 90.07485961914062 171.4342803955078 87.6991958618164 167.8576202392578 92.70455932617188" stroke-width="3.0" fill="none" stroke="rgb(0, 0, 0)" stroke-opacity="1.0" stroke-linecap="round" stroke-linejoin="round"/>
    <path d="M 108.99987030029297 73.99971771240234 C 108.49866485595703 75.35551452636719 110.9613037109375 72.1021499633789 109.95723724365234 75.79069519042969" stroke-width="3.0" fill="none" stroke="rgb(0, 0, 0)" stroke-opacity="1.0" stroke-linecap="round" stroke-linejoin="round"/>
    <path d="M 112.00040435791016 142.0000762939453 C 108.41702270507812 138.55392456054688 106.56233215332031 135.63546752929688 106.10139465332031 136.27610778808594" stroke-width="3.0" fill="none" stroke="rgb(0, 0, 0)" stroke-opacity="1.0" stroke-linecap="round" stroke-linejoin="round"/>
    <path d="M 135.000244140625 89.99993896484375 C 139.20506286621094 88.76336669921875 138.246337890625 87.66879272460938 140.50669860839844 88.75279235839844" stroke-width="3.0" fill="none" stroke="rgb(0, 0, 0)" stroke-opacity="1.0" stroke-linecap="round" stroke-linejoin="round"/>
    <path d="M 163.9999542236328 101.99980926513672 C 165.81651306152344 94.92442321777344 165.2044219970703 92.22749328613281 161.37059020996094 94.53584289550781" stroke-width="3.0" fill="none" stroke="rgb(0, 0, 0)" stroke-opacity="1.0" stroke-linecap="round" stroke-linejoin="round"/>
    <path d="M 104.00003051757812 19.999977111816406 C 105.85725402832031 18.68787384033203 108.71870422363281 22.98726463317871 106.65814971923828 22.88204002380371" stroke-width="3.0" fill="none" stroke="rgb(0, 0, 0)" stroke-opacity="1.0" stroke-linecap="round" stroke-linejoin="round"/>
    <path d="M 55.9998893737793 108.99993896484375 C 53.629356384277344 112.46109008789062 59.829280853271484 115.96007537841797 54.33506774902344 119.55389404296875" stroke-width="3.0" fill="none" stroke="rgb(0, 0, 0)" stroke-opacity="1.0" stroke-linecap="round" stroke-linejoin="round"/>
    <path d="M 108.99992370605469 107.99990844726562 C 108.49075317382812 101.33633422851562 111.01689147949219 108.7863998413086 109.91719055175781 108.78739929199219" stroke-width="3.0" fill="none" stroke="rgb(0, 0, 0)" stroke-opacity="1.0" stroke-linecap="round" stroke-linejoin="round"/>
    <path d="M 41.000038146972656 107.00007629394531 C 40.94108200073242 103.79180908203125 43.37396240234375 98.21867370605469 44.98988723754883 100.53531646728516" stroke-width="3.0" fill="none" stroke="rgb(0, 0, 0)" stroke-opacity="1.0" stroke-linecap="round" stroke-linejoin="round"/>
    <path d="M 80.99996948242188 179.99996948242188 C 76.49479675292969 175.73165893554688 78.16690826416016 179.91648864746094 73.70347595214844 183.2760467529297" stroke-width="3.0" fill="none" stroke="rgb(0, 0, 0)" stroke-opacity="1.0" stroke-linecap="round" stroke-linejoin="round"/>
    <path d="M 163.9999542236328 117.99996185302734 C 159.52191162109375 121.96358489990234 158.36495971679688 115.27523803710938 153.84202575683594 114.7490005493164" stroke-width="3.0" fill="none" stroke="rgb(0, 0, 0)" stroke-opacity="1.0" stroke-linecap="round" stroke-linejoin="round"/>
    <path d="M 141.9999237060547 80.99987030029297 C 145.26522827148438 85.04480743408203 139.17330932617188 83.28175354003906 140.857666015625 81.56840515136719" stroke-width="3.0" fill="none" stroke="rgb(0, 0, 0)" stroke-opacity="1.0" stroke-linecap="round" stroke-linejoin="round"/>
    <path d="M 167.998779296875 87.99951934814453 C 172.16453552246094 83.51849365234375 166.7727508544922 78.37403106689453 166.8002166748047 81.02716064453125" stroke-width="3.0" fill="none" stroke="rgb(0, 0, 0)" stroke-opacity="1.0" stroke-linecap="round" stroke-linejoin="round"/>
    <path d="M 137.99996948242188 120.99992370605469 C 143.00010681152344 123.91056823730469 145.5956573486328 118.78109741210938 150.37966918945312 121.03589630126953" stroke-width="3.0" fill="none" stroke="rgb(0, 0, 0)" stroke-opacity="1.0" stroke-linecap="round" stroke-linejoin="round"/>
    <path d="M 169.0000457763672 32.00006866455078 C 170.74044799804688 36.378135681152344 177.24868774414062 35.960670471191406 175.82115173339844 36.37317657470703" stroke-width="3.0" fill="none" stroke="rgb(0, 0, 0)" stroke-opacity="1.0" stroke-linecap="round" stroke-linejoin="round"/>
    <path d="M 124.00003051757812 115.99980163574219 C 122.72724914550781 114.9759750366211 117.22649383544922 111.06745910644531 115.36014556884766 114.31110382080078" stroke-width="3.0" fill="none" stroke="rgb(0, 0, 0)" stroke-opacity="1.0" stroke-linecap="round" stroke-linejoin="round"/>
    <path d="M 48.99995422363281 115.00019836425781 C 49.44744110107422 113.1888427734375 50.79736328125 108.05015563964844 47.03266525268555 113.44745635986328" stroke-width="3.0" fill="none" stroke="rgb(0, 0, 0)" stroke-opacity="1.0" stroke-linecap="round" stroke-linejoin="round"/>
    <path d="M 116.00005340576172 69.99995422363281 C 115.64264678955078 66.82191467285156 114.18630981445312 64.50823211669922 113.94012451171875 61.592655181884766" stroke-width="3.0" fill="none" stroke="rgb(0, 0, 0)" stroke-opacity="1.0" stroke-linecap="round" stroke-linejoin="round"/>
    <path d="M 164.00009155273438 52.000431060791016 C 158.94076538085938 50.41029357910156 161.1981201171875 45.484622955322266 158.1156768798828 41.684715270996094" stroke-width="3.0" fill="none" stroke="rgb(0, 0, 0)" stroke-opacity="1.0" stroke-linecap="round" stroke-linejoin="round"/>
  </g>
</svg>
