<?xml version="1.0" ?>
<svg xmlns="http://www.w3.org/2000/svg" version="1.1" width="224" height="224">
  <defs/>
  <g>
    <path d="M 60.5396728515625 89.0907974243164 C 74.91046905517578 79.68194580078125 62.9767951965332 74.38716125488281 80.36739349365234 61.69346618652344" stroke-width="3.0" fill="none" stroke="rgb(0, 0, 0)" stroke-opacity="1.0" stroke-linecap="round" stroke-linejoin="round"/>
    <path d="M 196.92420959472656 113.35726928710938 C 181.09628295898438 100.64665222167969 194.2254638671875 101.71586608886719 177.52976989746094 126.0626220703125" stroke-width="3.0" fill="none" stroke="rgb(0, 0, 0)" stroke-opacity="1.0" stroke-linecap="round" stroke-linejoin="round"/>
    <path d="M 59.43381118774414 118.58390808105469 C 49.84390640258789 91.60247802734375 57.32463455200195 114.22821044921875 60.35288619995117 109.46312713623047" stroke-width="3.0" fill="none" stroke="rgb(0, 0, 0)" stroke-opacity="1.0" stroke-linecap="round" stroke-linejoin="round"/>
    <path d="M 188.02767944335938 91.76708221435547 C 147.56080627441406 77.13320922851562 183.6783447265625 73.98651885986328 191.19337463378906 96.34806060791016" stroke-width="3.0" fill="none" stroke="rgb(0, 0, 0)" stroke-opacity="1.0" stroke-linecap="round" stroke-linejoin="round"/>
    <path d="M 175.29820251464844 47.61123275756836 C 193.31494140625 88.47567749023438 181.364013671875 99.60480499267578 179.78155517578125 54.0443115234375" stroke-width="3.0" fill="none" stroke="rgb(0, 0, 0)" stroke-opacity="1.0" stroke-linecap="round" stroke-linejoin="round"/>
    <path d="M 129.28761291503906 99.16695404052734 C 150.84390258789062 109.62444305419922 95.52393341064453 97.63166809082031 136.5778350830078 99.71516418457031" stroke-width="3.0" fill="none" stroke="rgb(0, 0, 0)" stroke-opacity="1.0" stroke-linecap="round" stroke-linejoin="round"/>
    <path d="M 183.16294860839844 96.7156753540039 C 160.37939453125 89.77206420898438 188.77027893066406 69.57056427001953 149.75479125976562 87.70376586914062" stroke-width="3.0" fill="none" stroke="rgb(0, 0, 0)" stroke-opacity="1.0" stroke-linecap="round" stroke-linejoin="round"/>
    <path d="M 66.49207305908203 189.7555389404297 C 43.795204162597656 166.64930725097656 41.13126754760742 173.4158172607422 65.64629364013672 189.8314208984375" stroke-width="3.0" fill="none" stroke="rgb(0, 0, 0)" stroke-opacity="1.0" stroke-linecap="round" stroke-linejoin="round"/>
    <path d="M 59.1116828918457 182.2820281982422 C 81.12805938720703 214.36480712890625 139.99830627441406 194.84918212890625 138.84298706054688 161.20872497558594" stroke-width="3.0" fill="none" stroke="rgb(0, 0, 0)" stroke-opacity="1.0" stroke-linecap="round" stroke-linejoin="round"/>
    <path d="M 81.7423095703125 14.739497184753418 C 89.29595947265625 72.48735046386719 85.67379760742188 11.430858612060547 83.7882308959961 50.08573532104492" stroke-width="3.0" fill="none" stroke="rgb(0, 0, 0)" stroke-opacity="1.0" stroke-linecap="round" stroke-linejoin="round"/>
    <path d="M 61.846439361572266 92.71165466308594 C 44.13515090942383 124.63540649414062 76.91564178466797 128.33116149902344 58.3663215637207 117.01319885253906" stroke-width="3.0" fill="none" stroke="rgb(0, 0, 0)" stroke-opacity="1.0" stroke-linecap="round" stroke-linejoin="round"/>
    <path d="M 145.76097106933594 75.51580810546875 C 194.04611206054688 62.0947380065918 203.41845703125 86.86804962158203 141.12033081054688 86.9107666015625" stroke-width="3.0" fill="none" stroke="rgb(0, 0, 0)" stroke-opacity="1.0" stroke-linecap="round" stroke-linejoin="round"/>
    <path d="M 149.8694305419922 95.92124938964844 C 189.89251708984375 101.99436950683594 182.7867431640625 103.66038513183594 188.29676818847656 113.43659973144531" stroke-width="3.0" fill="none" stroke="rgb(0, 0, 0)" stroke-opacity="1.0" stroke-linecap="round" stroke-linejoin="round"/>
    <path d="M 126.87895965576172 155.024169921875 C 178.5264434814453 155.9952392578125 97.12362670898438 146.55967712402344 97.81021881103516 152.28445434570312" stroke-width="3.0" fill="none" stroke="rgb(0, 0, 0)" stroke-opacity="1.0" stroke-linecap="round" stroke-linejoin="round"/>
    <path d="M 176.84320068359375 7.103488445281982 C 190.8633270263672 16.091161727905273 167.3609619140625 87.60134887695312 184.7091522216797 61.55306625366211" stroke-width="3.0" fill="none" stroke="rgb(0, 0, 0)" stroke-opacity="1.0" stroke-linecap="round" stroke-linejoin="round"/>
    <path d="M 146.93316650390625 26.930606842041016 C 108.56570434570312 30.155656814575195 132.7624053955078 21.764280319213867 130.27285766601562 66.17105865478516" stroke-width="3.0" fill="none" stroke="rgb(0, 0, 0)" stroke-opacity="1.0" stroke-linecap="round" stroke-linejoin="round"/>
    <path d="M 109.70405578613281 47.02552795410156 C 60.484840393066406 -5.227460861206055 83.32080841064453 1.7600979804992676 118.8883056640625 30.926456451416016" stroke-width="3.0" fill="none" stroke="rgb(0, 0, 0)" stroke-opacity="1.0" stroke-linecap="round" stroke-linejoin="round"/>
    <path d="M 42.62871170043945 159.0189666748047 C 42.617000579833984 159.7366943359375 40.0598030090332 156.36013793945312 52.660518646240234 175.1328125" stroke-width="3.0" fill="none" stroke="rgb(0, 0, 0)" stroke-opacity="1.0" stroke-linecap="round" stroke-linejoin="round"/>
    <path d="M 58.918968200683594 64.10633850097656 C 13.33238697052002 114.48471069335938 35.809959411621094 142.27999877929688 44.65018081665039 164.3312225341797" stroke-width="3.0" fill="none" stroke="rgb(0, 0, 0)" stroke-opacity="1.0" stroke-linecap="round" stroke-linejoin="round"/>
    <path d="M 69.64473724365234 132.12750244140625 C 141.7392120361328 169.5654296875 114.64806365966797 151.10446166992188 88.6324691772461 142.91647338867188" stroke-width="3.0" fill="none" stroke="rgb(0, 0, 0)" stroke-opacity="1.0" stroke-linecap="round" stroke-linejoin="round"/>
    <path d="M 84.03311920166016 197.11952209472656 C 65.35211944580078 200.11502075195312 46.07377624511719 177.21917724609375 38.57515335083008 149.2342987060547" stroke-width="3.0" fill="none" stroke="rgb(0, 0, 0)" stroke-opacity="1.0" stroke-linecap="round" stroke-linejoin="round"/>
    <path d="M 47.29368209838867 170.66969299316406 C 72.47867584228516 199.2550506591797 48.75749206542969 176.31236267089844 37.91688537597656 146.9700927734375" stroke-width="3.0" fill="none" stroke="rgb(0, 0, 0)" stroke-opacity="1.0" stroke-linecap="round" stroke-linejoin="round"/>
    <path d="M 82.78182220458984 54.801124572753906 C 58.294925689697266 57.47110366821289 59.29198455810547 62.3779182434082 34.1520881652832 107.8191909790039" stroke-width="3.0" fill="none" stroke="rgb(0, 0, 0)" stroke-opacity="1.0" stroke-linecap="round" stroke-linejoin="round"/>
    <path d="M 147.9501953125 146.4806365966797 C 112.5750503540039 159.4691619873047 68.10401153564453 152.15335083007812 142.79931640625 151.2654571533203" stroke-width="3.0" fill="none" stroke="rgb(0, 0, 0)" stroke-opacity="1.0" stroke-linecap="round" stroke-linejoin="round"/>
    <path d="M 148.42257690429688 24.62146759033203 C 144.73532104492188 39.81089782714844 144.23974609375 15.431892395019531 136.9767608642578 72.06182861328125" stroke-width="3.0" fill="none" stroke="rgb(0, 0, 0)" stroke-opacity="1.0" stroke-linecap="round" stroke-linejoin="round"/>
    <path d="M 145.68243408203125 97.4825210571289 C 125.8450927734375 111.36115264892578 126.89815521240234 104.15238952636719 121.89795684814453 99.56068420410156" stroke-width="3.0" fill="none" stroke="rgb(0, 0, 0)" stroke-opacity="1.0" stroke-linecap="round" stroke-linejoin="round"/>
    <path d="M 136.53958129882812 68.61821746826172 C 145.5467071533203 56.55400085449219 132.4908905029297 64.37837982177734 137.95094299316406 67.21271514892578" stroke-width="3.0" fill="none" stroke="rgb(0, 0, 0)" stroke-opacity="1.0" stroke-linecap="round" stroke-linejoin="round"/>
    <path d="M 139.1533660888672 164.18179321289062 C 136.9576416015625 170.92144775390625 141.72731018066406 164.71139526367188 149.7107391357422 141.85305786132812" stroke-width="3.0" fill="none" stroke="rgb(0, 0, 0)" stroke-opacity="1.0" stroke-linecap="round" stroke-linejoin="round"/>
    <path d="M 194.09217834472656 95.6729507446289 C 162.85032653808594 69.00017547607422 190.27328491210938 59.76054763793945 178.4454803466797 94.36595153808594" stroke-width="3.0" fill="none" stroke="rgb(0, 0, 0)" stroke-opacity="1.0" stroke-linecap="round" stroke-linejoin="round"/>
    <path d="M 152.112060546875 78.10979461669922 C 121.94532012939453 56.09488296508789 205.48687744140625 88.0011215209961 180.98512268066406 61.69020080566406" stroke-width="3.0" fill="none" stroke="rgb(0, 0, 0)" stroke-opacity="1.0" stroke-linecap="round" stroke-linejoin="round"/>
    <path d="M 116.52896118164062 81.82145690917969 C 89.90438842773438 74.82684326171875 137.63726806640625 71.7544937133789 112.05647277832031 81.1936264038086" stroke-width="3.0" fill="none" stroke="rgb(0, 0, 0)" stroke-opacity="1.0" stroke-linecap="round" stroke-linejoin="round"/>
    <path d="M 166.82382202148438 129.99830627441406 C 155.60601806640625 156.6521453857422 88.84324645996094 150.61843872070312 92.75318145751953 146.2070770263672" stroke-width="3.0" fill="none" stroke="rgb(0, 0, 0)" stroke-opacity="1.0" stroke-linecap="round" stroke-linejoin="round"/>
    <path d="M 124.03446197509766 87.79309844970703 C 143.3149871826172 97.0063247680664 131.10330200195312 70.93473052978516 127.63798522949219 105.94566345214844" stroke-width="3.0" fill="none" stroke="rgb(0, 0, 0)" stroke-opacity="1.0" stroke-linecap="round" stroke-linejoin="round"/>
    <path d="M 182.94302368164062 110.11583709716797 C 172.76638793945312 88.85714721679688 169.76109313964844 94.76260375976562 141.94290161132812 86.31097412109375" stroke-width="3.0" fill="none" stroke="rgb(0, 0, 0)" stroke-opacity="1.0" stroke-linecap="round" stroke-linejoin="round"/>
    <path d="M 91.9232177734375 20.252864837646484 C 121.0942153930664 30.31844711303711 85.25186157226562 27.65808868408203 147.6492919921875 29.900833129882812" stroke-width="3.0" fill="none" stroke="rgb(0, 0, 0)" stroke-opacity="1.0" stroke-linecap="round" stroke-linejoin="round"/>
    <path d="M 56.810791015625 104.98457336425781 C 61.00075149536133 92.48651885986328 54.199317932128906 117.23763275146484 73.62659454345703 136.011962890625" stroke-width="3.0" fill="none" stroke="rgb(0, 0, 0)" stroke-opacity="1.0" stroke-linecap="round" stroke-linejoin="round"/>
    <path d="M 131.5266571044922 106.56624603271484 C 132.52452087402344 88.4938735961914 124.54895782470703 118.55950927734375 115.7427978515625 93.13369750976562" stroke-width="3.0" fill="none" stroke="rgb(0, 0, 0)" stroke-opacity="1.0" stroke-linecap="round" stroke-linejoin="round"/>
    <path d="M 39.68704605102539 149.2359619140625 C 16.693214416503906 118.7753677368164 38.458251953125 69.10594940185547 67.00652313232422 58.459259033203125" stroke-width="3.0" fill="none" stroke="rgb(0, 0, 0)" stroke-opacity="1.0" stroke-linecap="round" stroke-linejoin="round"/>
    <path d="M 98.9423599243164 197.01620483398438 C 85.51617431640625 195.89581298828125 87.61109924316406 201.86953735351562 106.141845703125 196.47439575195312" stroke-width="3.0" fill="none" stroke="rgb(0, 0, 0)" stroke-opacity="1.0" stroke-linecap="round" stroke-linejoin="round"/>
    <path d="M 166.7545166015625 129.6764678955078 C 196.86485290527344 113.23794555664062 192.12625122070312 84.97549438476562 154.22137451171875 88.29093933105469" stroke-width="3.0" fill="none" stroke="rgb(0, 0, 0)" stroke-opacity="1.0" stroke-linecap="round" stroke-linejoin="round"/>
    <path d="M 157.795654296875 71.91983795166016 C 128.8536834716797 80.98251342773438 166.157470703125 83.60306549072266 152.28195190429688 71.5802001953125" stroke-width="3.0" fill="none" stroke="rgb(0, 0, 0)" stroke-opacity="1.0" stroke-linecap="round" stroke-linejoin="round"/>
    <path d="M 141.6249542236328 80.832275390625 C 143.8861083984375 41.839900970458984 200.9666290283203 118.94216918945312 178.78765869140625 42.8891716003418" stroke-width="3.0" fill="none" stroke="rgb(0, 0, 0)" stroke-opacity="1.0" stroke-linecap="round" stroke-linejoin="round"/>
    <path d="M 154.83343505859375 96.8890151977539 C 171.4271240234375 104.888427734375 177.61187744140625 106.86949157714844 184.05984497070312 123.38880157470703" stroke-width="3.0" fill="none" stroke="rgb(0, 0, 0)" stroke-opacity="1.0" stroke-linecap="round" stroke-linejoin="round"/>
    <path d="M 180.6166229248047 12.350005149841309 C 175.0799102783203 48.2824821472168 175.1638641357422 21.09513282775879 158.8273468017578 40.75797653198242" stroke-width="3.0" fill="none" stroke="rgb(0, 0, 0)" stroke-opacity="1.0" stroke-linecap="round" stroke-linejoin="round"/>
    <path d="M 118.71644592285156 97.81876373291016 C 144.81369018554688 90.37613677978516 133.84078979492188 114.77581787109375 131.7478790283203 103.63789367675781" stroke-width="3.0" fill="none" stroke="rgb(0, 0, 0)" stroke-opacity="1.0" stroke-linecap="round" stroke-linejoin="round"/>
    <path d="M 63.18609619140625 92.06829833984375 C 50.64943313598633 106.64948272705078 53.148597717285156 108.79631042480469 61.908443450927734 97.6382064819336" stroke-width="3.0" fill="none" stroke="rgb(0, 0, 0)" stroke-opacity="1.0" stroke-linecap="round" stroke-linejoin="round"/>
    <path d="M 124.19499206542969 77.31913757324219 C 129.978515625 48.27062225341797 114.82134246826172 49.829551696777344 117.41016387939453 33.366050720214844" stroke-width="3.0" fill="none" stroke="rgb(0, 0, 0)" stroke-opacity="1.0" stroke-linecap="round" stroke-linejoin="round"/>
    <path d="M 137.2462615966797 27.906843185424805 C 146.75811767578125 44.96623611450195 158.0598602294922 8.200779914855957 176.47264099121094 7.596936225891113" stroke-width="3.0" fill="none" stroke="rgb(0, 0, 0)" stroke-opacity="1.0" stroke-linecap="round" stroke-linejoin="round"/>
  </g>
</svg>
