<?xml version="1.0" ?>
<svg xmlns="http://www.w3.org/2000/svg" version="1.1" width="224" height="224">
  <defs/>
  <g>
    <path d="M 60.00211715698242 94.40494537353516 C 59.553829193115234 84.65155792236328 53.472373962402344 80.93500518798828 72.90263366699219 57.99508285522461" stroke-width="3.0" fill="none" stroke="rgb(0, 0, 0)" stroke-opacity="1.0" stroke-linecap="round" stroke-linejoin="round"/>
    <path d="M 195.595947265625 114.7154769897461 C 183.56655883789062 102.2384033203125 192.08518981933594 97.13375854492188 177.6873779296875 127.79598236083984" stroke-width="3.0" fill="none" stroke="rgb(0, 0, 0)" stroke-opacity="1.0" stroke-linecap="round" stroke-linejoin="round"/>
    <path d="M 60.55305099487305 118.8912353515625 C 51.69478988647461 88.9345932006836 59.29111862182617 122.62007904052734 65.34840393066406 118.05689239501953" stroke-width="3.0" fill="none" stroke="rgb(0, 0, 0)" stroke-opacity="1.0" stroke-linecap="round" stroke-linejoin="round"/>
    <path d="M 184.83877563476562 94.95811462402344 C 152.70132446289062 70.48407745361328 181.1349639892578 74.86277770996094 187.5654296875 98.69674682617188" stroke-width="3.0" fill="none" stroke="rgb(0, 0, 0)" stroke-opacity="1.0" stroke-linecap="round" stroke-linejoin="round"/>
    <path d="M 176.93492126464844 52.07828140258789 C 193.70799255371094 93.55227661132812 180.60647583007812 102.58689880371094 180.3659210205078 55.93621063232422" stroke-width="3.0" fill="none" stroke="rgb(0, 0, 0)" stroke-opacity="1.0" stroke-linecap="round" stroke-linejoin="round"/>
    <path d="M 131.08815002441406 98.89949798583984 C 149.37066650390625 115.08203887939453 95.8252944946289 102.5419692993164 134.8374786376953 102.69473266601562" stroke-width="3.0" fill="none" stroke="rgb(0, 0, 0)" stroke-opacity="1.0" stroke-linecap="round" stroke-linejoin="round"/>
    <path d="M 185.71603393554688 88.81178283691406 C 170.32913208007812 89.38104248046875 185.6577606201172 72.62527465820312 151.70266723632812 86.40579986572266" stroke-width="3.0" fill="none" stroke="rgb(0, 0, 0)" stroke-opacity="1.0" stroke-linecap="round" stroke-linejoin="round"/>
    <path d="M 65.55848693847656 192.21902465820312 C 41.25540542602539 170.41650390625 46.646697998046875 168.2391357421875 62.12956237792969 190.33682250976562" stroke-width="3.0" fill="none" stroke="rgb(0, 0, 0)" stroke-opacity="1.0" stroke-linecap="round" stroke-linejoin="round"/>
    <path d="M 57.65211868286133 181.9568634033203 C 86.11665344238281 211.62684631347656 136.39707946777344 196.89193725585938 137.9810791015625 162.802490234375" stroke-width="3.0" fill="none" stroke="rgb(0, 0, 0)" stroke-opacity="1.0" stroke-linecap="round" stroke-linejoin="round"/>
    <path d="M 81.86531066894531 13.567248344421387 C 93.68317413330078 78.48751068115234 89.66776275634766 10.407764434814453 87.47994232177734 54.11286544799805" stroke-width="3.0" fill="none" stroke="rgb(0, 0, 0)" stroke-opacity="1.0" stroke-linecap="round" stroke-linejoin="round"/>
    <path d="M 60.23286437988281 92.23149871826172 C 47.155914306640625 127.62794494628906 76.9101333618164 132.3867645263672 60.56216812133789 119.19976806640625" stroke-width="3.0" fill="none" stroke="rgb(0, 0, 0)" stroke-opacity="1.0" stroke-linecap="round" stroke-linejoin="round"/>
    <path d="M 146.08096313476562 75.26921844482422 C 196.64822387695312 63.4899787902832 206.44863891601562 87.55352020263672 141.0336151123047 87.4577407836914" stroke-width="3.0" fill="none" stroke="rgb(0, 0, 0)" stroke-opacity="1.0" stroke-linecap="round" stroke-linejoin="round"/>
    <path d="M 148.6132049560547 95.30402374267578 C 190.69039916992188 97.36299133300781 175.60137939453125 98.72682189941406 189.30758666992188 112.18658447265625" stroke-width="3.0" fill="none" stroke="rgb(0, 0, 0)" stroke-opacity="1.0" stroke-linecap="round" stroke-linejoin="round"/>
    <path d="M 129.05392456054688 153.6249237060547 C 173.86959838867188 155.1086883544922 99.91311645507812 146.66207885742188 101.6954574584961 153.71533203125" stroke-width="3.0" fill="none" stroke="rgb(0, 0, 0)" stroke-opacity="1.0" stroke-linecap="round" stroke-linejoin="round"/>
    <path d="M 179.5048828125 8.795116424560547 C 190.84616088867188 15.379471778869629 167.599853515625 93.5384750366211 184.6812744140625 62.13725662231445" stroke-width="3.0" fill="none" stroke="rgb(0, 0, 0)" stroke-opacity="1.0" stroke-linecap="round" stroke-linejoin="round"/>
    <path d="M 147.4300537109375 31.48398780822754 C 107.46454620361328 27.482439041137695 134.1964111328125 20.709714889526367 130.6339874267578 64.8689956665039" stroke-width="3.0" fill="none" stroke="rgb(0, 0, 0)" stroke-opacity="1.0" stroke-linecap="round" stroke-linejoin="round"/>
    <path d="M 105.39109802246094 47.17094421386719 C 64.08673858642578 -9.836159706115723 83.47212219238281 1.0157105922698975 119.6044692993164 31.392305374145508" stroke-width="3.0" fill="none" stroke="rgb(0, 0, 0)" stroke-opacity="1.0" stroke-linecap="round" stroke-linejoin="round"/>
    <path d="M 43.1629638671875 158.7565460205078 C 42.25175857543945 161.43069458007812 40.76942825317383 155.83828735351562 50.763755798339844 173.78993225097656" stroke-width="3.0" fill="none" stroke="rgb(0, 0, 0)" stroke-opacity="1.0" stroke-linecap="round" stroke-linejoin="round"/>
    <path d="M 59.04982376098633 66.11643981933594 C 17.935441970825195 121.33489227294922 38.443389892578125 141.0286407470703 44.37383270263672 162.7183380126953" stroke-width="3.0" fill="none" stroke="rgb(0, 0, 0)" stroke-opacity="1.0" stroke-linecap="round" stroke-linejoin="round"/>
    <path d="M 69.3049545288086 133.99041748046875 C 137.7469482421875 168.1320037841797 110.59166717529297 148.61233520507812 88.94422912597656 142.92303466796875" stroke-width="3.0" fill="none" stroke="rgb(0, 0, 0)" stroke-opacity="1.0" stroke-linecap="round" stroke-linejoin="round"/>
    <path d="M 84.04261016845703 198.3878173828125 C 64.95500946044922 199.5785369873047 46.153560638427734 177.67999267578125 39.44894790649414 149.5122833251953" stroke-width="3.0" fill="none" stroke="rgb(0, 0, 0)" stroke-opacity="1.0" stroke-linecap="round" stroke-linejoin="round"/>
    <path d="M 47.95812225341797 169.06390380859375 C 67.22000885009766 202.8000030517578 48.277679443359375 175.7477569580078 38.79602813720703 146.951904296875" stroke-width="3.0" fill="none" stroke="rgb(0, 0, 0)" stroke-opacity="1.0" stroke-linecap="round" stroke-linejoin="round"/>
    <path d="M 81.89640808105469 54.19232177734375 C 60.78563690185547 57.97511291503906 60.94767379760742 66.51422882080078 36.97521209716797 109.06952667236328" stroke-width="3.0" fill="none" stroke="rgb(0, 0, 0)" stroke-opacity="1.0" stroke-linecap="round" stroke-linejoin="round"/>
    <path d="M 146.2406005859375 142.9941864013672 C 113.23941802978516 162.62060546875 74.75584411621094 154.8212890625 144.45538330078125 150.52001953125" stroke-width="3.0" fill="none" stroke="rgb(0, 0, 0)" stroke-opacity="1.0" stroke-linecap="round" stroke-linejoin="round"/>
    <path d="M 148.0445098876953 29.4914608001709 C 144.3479766845703 38.8030891418457 139.6610565185547 12.826210021972656 136.0941619873047 75.33699798583984" stroke-width="3.0" fill="none" stroke="rgb(0, 0, 0)" stroke-opacity="1.0" stroke-linecap="round" stroke-linejoin="round"/>
    <path d="M 144.27310180664062 101.85135650634766 C 129.3958282470703 110.06034088134766 123.02123260498047 104.2944107055664 117.71730041503906 103.59721374511719" stroke-width="3.0" fill="none" stroke="rgb(0, 0, 0)" stroke-opacity="1.0" stroke-linecap="round" stroke-linejoin="round"/>
    <path d="M 135.0167694091797 72.28524780273438 C 141.50985717773438 51.481224060058594 135.11158752441406 69.49546813964844 136.6610565185547 69.53652954101562" stroke-width="3.0" fill="none" stroke="rgb(0, 0, 0)" stroke-opacity="1.0" stroke-linecap="round" stroke-linejoin="round"/>
    <path d="M 138.1761932373047 166.22816467285156 C 134.17745971679688 168.77027893066406 142.67108154296875 164.22894287109375 145.5435791015625 144.41529846191406" stroke-width="3.0" fill="none" stroke="rgb(0, 0, 0)" stroke-opacity="1.0" stroke-linecap="round" stroke-linejoin="round"/>
    <path d="M 193.3677520751953 96.16537475585938 C 162.7806854248047 66.16160583496094 184.26559448242188 60.94086456298828 183.0122528076172 95.89549255371094" stroke-width="3.0" fill="none" stroke="rgb(0, 0, 0)" stroke-opacity="1.0" stroke-linecap="round" stroke-linejoin="round"/>
    <path d="M 154.83990478515625 78.36045837402344 C 124.91007995605469 60.066192626953125 209.97132873535156 87.44820404052734 180.20188903808594 63.749271392822266" stroke-width="3.0" fill="none" stroke="rgb(0, 0, 0)" stroke-opacity="1.0" stroke-linecap="round" stroke-linejoin="round"/>
    <path d="M 112.87935638427734 83.93437194824219 C 89.09429931640625 74.16763305664062 135.34593200683594 76.18484497070312 108.43882751464844 82.03797149658203" stroke-width="3.0" fill="none" stroke="rgb(0, 0, 0)" stroke-opacity="1.0" stroke-linecap="round" stroke-linejoin="round"/>
    <path d="M 168.43629455566406 131.11898803710938 C 158.48086547851562 157.61170959472656 90.01457214355469 151.333740234375 96.11956024169922 148.6330108642578" stroke-width="3.0" fill="none" stroke="rgb(0, 0, 0)" stroke-opacity="1.0" stroke-linecap="round" stroke-linejoin="round"/>
    <path d="M 123.44712829589844 89.8833236694336 C 142.8065185546875 98.60042572021484 130.52760314941406 76.85540008544922 128.57508850097656 104.79618835449219" stroke-width="3.0" fill="none" stroke="rgb(0, 0, 0)" stroke-opacity="1.0" stroke-linecap="round" stroke-linejoin="round"/>
    <path d="M 188.72610473632812 109.87528991699219 C 173.02537536621094 86.86262512207031 168.50006103515625 95.43692016601562 145.98440551757812 86.58052062988281" stroke-width="3.0" fill="none" stroke="rgb(0, 0, 0)" stroke-opacity="1.0" stroke-linecap="round" stroke-linejoin="round"/>
    <path d="M 91.76336669921875 21.802661895751953 C 126.11595916748047 26.22413444519043 84.81501770019531 30.037052154541016 150.36764526367188 27.284347534179688" stroke-width="3.0" fill="none" stroke="rgb(0, 0, 0)" stroke-opacity="1.0" stroke-linecap="round" stroke-linejoin="round"/>
    <path d="M 58.0438346862793 108.03170013427734 C 61.323551177978516 96.70645141601562 52.14681625366211 117.16625213623047 68.67560577392578 133.66683959960938" stroke-width="3.0" fill="none" stroke="rgb(0, 0, 0)" stroke-opacity="1.0" stroke-linecap="round" stroke-linejoin="round"/>
    <path d="M 135.91763305664062 106.77690124511719 C 124.41210174560547 89.62632751464844 122.62391662597656 124.04562377929688 111.7509994506836 89.23747253417969" stroke-width="3.0" fill="none" stroke="rgb(0, 0, 0)" stroke-opacity="1.0" stroke-linecap="round" stroke-linejoin="round"/>
    <path d="M 38.60989761352539 148.68528747558594 C 18.43632698059082 120.03178405761719 38.464630126953125 70.87574005126953 67.9100570678711 60.045249938964844" stroke-width="3.0" fill="none" stroke="rgb(0, 0, 0)" stroke-opacity="1.0" stroke-linecap="round" stroke-linejoin="round"/>
    <path d="M 97.13565063476562 198.243408203125 C 85.296875 197.51510620117188 77.25576782226562 200.74586486816406 109.9325942993164 197.34632873535156" stroke-width="3.0" fill="none" stroke="rgb(0, 0, 0)" stroke-opacity="1.0" stroke-linecap="round" stroke-linejoin="round"/>
    <path d="M 171.77606201171875 129.10240173339844 C 196.72398376464844 112.34718322753906 192.14437866210938 87.38642120361328 152.67112731933594 89.21049499511719" stroke-width="3.0" fill="none" stroke="rgb(0, 0, 0)" stroke-opacity="1.0" stroke-linecap="round" stroke-linejoin="round"/>
    <path d="M 161.15435791015625 70.25870513916016 C 130.56460571289062 81.77262878417969 166.91795349121094 82.0002212524414 153.4702911376953 71.38204956054688" stroke-width="3.0" fill="none" stroke="rgb(0, 0, 0)" stroke-opacity="1.0" stroke-linecap="round" stroke-linejoin="round"/>
    <path d="M 140.7280731201172 81.69483947753906 C 139.3887481689453 36.552284240722656 199.88621520996094 115.4710464477539 178.3629608154297 46.7036018371582" stroke-width="3.0" fill="none" stroke="rgb(0, 0, 0)" stroke-opacity="1.0" stroke-linecap="round" stroke-linejoin="round"/>
    <path d="M 155.92416381835938 96.40531921386719 C 174.30902099609375 104.86112213134766 182.50216674804688 104.26844787597656 186.25332641601562 122.76151275634766" stroke-width="3.0" fill="none" stroke="rgb(0, 0, 0)" stroke-opacity="1.0" stroke-linecap="round" stroke-linejoin="round"/>
    <path d="M 179.9212188720703 14.309527397155762 C 176.3545379638672 45.26221466064453 173.31817626953125 21.085935592651367 157.5459747314453 40.015830993652344" stroke-width="3.0" fill="none" stroke="rgb(0, 0, 0)" stroke-opacity="1.0" stroke-linecap="round" stroke-linejoin="round"/>
    <path d="M 121.01221466064453 102.67892456054688 C 149.03651428222656 96.46202087402344 132.22518920898438 110.42436218261719 128.08517456054688 101.84330749511719" stroke-width="3.0" fill="none" stroke="rgb(0, 0, 0)" stroke-opacity="1.0" stroke-linecap="round" stroke-linejoin="round"/>
    <path d="M 60.069908142089844 91.44312286376953 C 55.42707443237305 103.50202941894531 58.831661224365234 112.76514434814453 59.752803802490234 107.96522521972656" stroke-width="3.0" fill="none" stroke="rgb(0, 0, 0)" stroke-opacity="1.0" stroke-linecap="round" stroke-linejoin="round"/>
    <path d="M 121.4379653930664 78.40473937988281 C 125.38453674316406 49.7224235534668 114.80203247070312 56.11455154418945 118.44866180419922 37.595497131347656" stroke-width="3.0" fill="none" stroke="rgb(0, 0, 0)" stroke-opacity="1.0" stroke-linecap="round" stroke-linejoin="round"/>
    <path d="M 141.433837890625 32.026893615722656 C 143.55844116210938 40.201820373535156 158.5869140625 7.938027381896973 178.90602111816406 8.986501693725586" stroke-width="3.0" fill="none" stroke="rgb(0, 0, 0)" stroke-opacity="1.0" stroke-linecap="round" stroke-linejoin="round"/>
  </g>
</svg>
