<?xml version="1.0" ?>
<svg xmlns="http://www.w3.org/2000/svg" version="1.1" width="224" height="224">
  <defs/>
  <g>
    <path d="M 60.66677474975586 100.1189193725586 C 62.5435676574707 86.89461517333984 55.704288482666016 96.27920532226562 59.17866134643555 76.78388977050781" stroke-width="3.0" fill="none" stroke="rgb(0, 0, 0)" stroke-opacity="1.0" stroke-linecap="round" stroke-linejoin="round"/>
    <path d="M 186.95787048339844 121.32112884521484 C 180.19212341308594 110.63018035888672 192.07699584960938 81.41349792480469 181.58099365234375 126.61637115478516" stroke-width="3.0" fill="none" stroke="rgb(0, 0, 0)" stroke-opacity="1.0" stroke-linecap="round" stroke-linejoin="round"/>
    <path d="M 55.62992477416992 112.48135375976562 C 62.83985900878906 96.48997497558594 57.00277328491211 128.1730499267578 72.55878448486328 134.67787170410156" stroke-width="3.0" fill="none" stroke="rgb(0, 0, 0)" stroke-opacity="1.0" stroke-linecap="round" stroke-linejoin="round"/>
    <path d="M 184.6313934326172 94.42391967773438 C 142.43597412109375 82.67430114746094 180.42098999023438 83.69651794433594 191.30516052246094 106.69731903076172" stroke-width="3.0" fill="none" stroke="rgb(0, 0, 0)" stroke-opacity="1.0" stroke-linecap="round" stroke-linejoin="round"/>
    <path d="M 178.1082763671875 57.85605239868164 C 189.34347534179688 100.62799072265625 177.28118896484375 102.2538070678711 182.77691650390625 73.77497100830078" stroke-width="3.0" fill="none" stroke="rgb(0, 0, 0)" stroke-opacity="1.0" stroke-linecap="round" stroke-linejoin="round"/>
    <path d="M 124.51237487792969 98.17674255371094 C 144.27191162109375 113.66342163085938 102.62334442138672 101.44232940673828 134.7006378173828 102.47283172607422" stroke-width="3.0" fill="none" stroke="rgb(0, 0, 0)" stroke-opacity="1.0" stroke-linecap="round" stroke-linejoin="round"/>
    <path d="M 183.07949829101562 86.41851806640625 C 186.209228515625 79.35014343261719 189.27655029296875 70.11177062988281 139.07994079589844 86.05750274658203" stroke-width="3.0" fill="none" stroke="rgb(0, 0, 0)" stroke-opacity="1.0" stroke-linecap="round" stroke-linejoin="round"/>
    <path d="M 66.70596313476562 189.84329223632812 C 39.10478973388672 163.89694213867188 51.342281341552734 170.2222442626953 48.811798095703125 171.45643615722656" stroke-width="3.0" fill="none" stroke="rgb(0, 0, 0)" stroke-opacity="1.0" stroke-linecap="round" stroke-linejoin="round"/>
    <path d="M 58.54310607910156 182.62486267089844 C 91.75625610351562 211.01573181152344 125.99222564697266 198.1971893310547 138.3863067626953 171.5672607421875" stroke-width="3.0" fill="none" stroke="rgb(0, 0, 0)" stroke-opacity="1.0" stroke-linecap="round" stroke-linejoin="round"/>
    <path d="M 83.15862274169922 25.2171688079834 C 93.30862426757812 83.94725036621094 92.64810180664062 18.315250396728516 86.43295288085938 58.13761520385742" stroke-width="3.0" fill="none" stroke="rgb(0, 0, 0)" stroke-opacity="1.0" stroke-linecap="round" stroke-linejoin="round"/>
    <path d="M 54.73081588745117 82.5152359008789 C 68.30690002441406 143.45701599121094 69.55088806152344 145.3282012939453 68.4557113647461 134.3125762939453" stroke-width="3.0" fill="none" stroke="rgb(0, 0, 0)" stroke-opacity="1.0" stroke-linecap="round" stroke-linejoin="round"/>
    <path d="M 144.4143524169922 68.6252212524414 C 201.97401428222656 64.05950164794922 192.8630828857422 89.39521789550781 139.09024047851562 83.64109802246094" stroke-width="3.0" fill="none" stroke="rgb(0, 0, 0)" stroke-opacity="1.0" stroke-linecap="round" stroke-linejoin="round"/>
    <path d="M 157.72000122070312 95.4122314453125 C 181.86062622070312 100.8418960571289 182.23561096191406 98.07711029052734 194.40960693359375 115.498779296875" stroke-width="3.0" fill="none" stroke="rgb(0, 0, 0)" stroke-opacity="1.0" stroke-linecap="round" stroke-linejoin="round"/>
    <path d="M 119.31095886230469 152.353759765625 C 152.353759765625 153.69070434570312 102.3482894897461 148.9363555908203 98.84297180175781 154.86033630371094" stroke-width="3.0" fill="none" stroke="rgb(0, 0, 0)" stroke-opacity="1.0" stroke-linecap="round" stroke-linejoin="round"/>
    <path d="M 179.3880615234375 8.48291301727295 C 188.5148468017578 26.249113082885742 173.0164031982422 80.58086395263672 180.5611572265625 60.04207229614258" stroke-width="3.0" fill="none" stroke="rgb(0, 0, 0)" stroke-opacity="1.0" stroke-linecap="round" stroke-linejoin="round"/>
    <path d="M 136.06068420410156 30.37076759338379 C 104.67610168457031 23.52168846130371 134.63037109375 42.518680572509766 123.25630187988281 76.50810241699219" stroke-width="3.0" fill="none" stroke="rgb(0, 0, 0)" stroke-opacity="1.0" stroke-linecap="round" stroke-linejoin="round"/>
    <path d="M 97.52073669433594 46.83971405029297 C 67.70503997802734 -6.274005889892578 83.4402084350586 5.144967079162598 121.07062530517578 34.59333801269531" stroke-width="3.0" fill="none" stroke="rgb(0, 0, 0)" stroke-opacity="1.0" stroke-linecap="round" stroke-linejoin="round"/>
    <path d="M 46.663265228271484 166.2598114013672 C 42.11815643310547 154.98284912109375 37.20509338378906 149.4666290283203 48.2296142578125 170.30477905273438" stroke-width="3.0" fill="none" stroke="rgb(0, 0, 0)" stroke-opacity="1.0" stroke-linecap="round" stroke-linejoin="round"/>
    <path d="M 46.711795806884766 90.36812591552734 C 18.549299240112305 133.7630157470703 39.655189514160156 143.7348175048828 45.331138610839844 165.50711059570312" stroke-width="3.0" fill="none" stroke="rgb(0, 0, 0)" stroke-opacity="1.0" stroke-linecap="round" stroke-linejoin="round"/>
    <path d="M 71.66345977783203 140.3192138671875 C 115.12682342529297 161.37168884277344 86.91604614257812 151.4064483642578 87.5621337890625 144.72474670410156" stroke-width="3.0" fill="none" stroke="rgb(0, 0, 0)" stroke-opacity="1.0" stroke-linecap="round" stroke-linejoin="round"/>
    <path d="M 90.28750610351562 196.1155242919922 C 69.51256561279297 203.83042907714844 48.436092376708984 175.54505920410156 46.586639404296875 168.57766723632812" stroke-width="3.0" fill="none" stroke="rgb(0, 0, 0)" stroke-opacity="1.0" stroke-linecap="round" stroke-linejoin="round"/>
    <path d="M 50.95228958129883 172.74830627441406 C 65.65985870361328 196.5860137939453 43.93223190307617 173.98590087890625 39.67265319824219 150.0673828125" stroke-width="3.0" fill="none" stroke="rgb(0, 0, 0)" stroke-opacity="1.0" stroke-linecap="round" stroke-linejoin="round"/>
    <path d="M 82.72571563720703 54.669532775878906 C 55.81565475463867 57.635562896728516 55.03852844238281 73.95635986328125 34.726097106933594 114.61857604980469" stroke-width="3.0" fill="none" stroke="rgb(0, 0, 0)" stroke-opacity="1.0" stroke-linecap="round" stroke-linejoin="round"/>
    <path d="M 156.63763427734375 138.20811462402344 C 111.3906021118164 157.67196655273438 103.3431167602539 157.9282684326172 148.0978546142578 146.09066772460938" stroke-width="3.0" fill="none" stroke="rgb(0, 0, 0)" stroke-opacity="1.0" stroke-linecap="round" stroke-linejoin="round"/>
    <path d="M 149.62693786621094 28.318309783935547 C 137.4248504638672 34.98140335083008 130.75686645507812 15.207453727722168 139.60523986816406 84.21357727050781" stroke-width="3.0" fill="none" stroke="rgb(0, 0, 0)" stroke-opacity="1.0" stroke-linecap="round" stroke-linejoin="round"/>
    <path d="M 147.86709594726562 98.15164184570312 C 136.30752563476562 111.06745147705078 133.83851623535156 97.64198303222656 119.33708190917969 90.97543334960938" stroke-width="3.0" fill="none" stroke="rgb(0, 0, 0)" stroke-opacity="1.0" stroke-linecap="round" stroke-linejoin="round"/>
    <path d="M 135.7380828857422 75.88513946533203 C 139.66200256347656 55.484622955322266 129.93301391601562 73.90594482421875 138.54879760742188 77.19406127929688" stroke-width="3.0" fill="none" stroke="rgb(0, 0, 0)" stroke-opacity="1.0" stroke-linecap="round" stroke-linejoin="round"/>
    <path d="M 140.88670349121094 166.87281799316406 C 130.06553649902344 180.27586364746094 141.55126953125 171.5517120361328 147.56007385253906 147.64369201660156" stroke-width="3.0" fill="none" stroke="rgb(0, 0, 0)" stroke-opacity="1.0" stroke-linecap="round" stroke-linejoin="round"/>
    <path d="M 194.01719665527344 94.70204162597656 C 162.36610412597656 71.99520111083984 168.38465881347656 80.21351623535156 187.24049377441406 95.09571838378906" stroke-width="3.0" fill="none" stroke="rgb(0, 0, 0)" stroke-opacity="1.0" stroke-linecap="round" stroke-linejoin="round"/>
    <path d="M 156.29661560058594 73.36263275146484 C 125.69239044189453 54.036231994628906 198.23997497558594 89.46072387695312 180.97616577148438 63.04572677612305" stroke-width="3.0" fill="none" stroke="rgb(0, 0, 0)" stroke-opacity="1.0" stroke-linecap="round" stroke-linejoin="round"/>
    <path d="M 113.52821350097656 83.14640808105469 C 90.2232894897461 72.4372329711914 138.2384490966797 80.32978820800781 108.78239440917969 81.9850845336914" stroke-width="3.0" fill="none" stroke="rgb(0, 0, 0)" stroke-opacity="1.0" stroke-linecap="round" stroke-linejoin="round"/>
    <path d="M 167.80250549316406 127.72453308105469 C 147.09622192382812 158.0843505859375 103.67559051513672 146.47178649902344 103.74211883544922 157.12489318847656" stroke-width="3.0" fill="none" stroke="rgb(0, 0, 0)" stroke-opacity="1.0" stroke-linecap="round" stroke-linejoin="round"/>
    <path d="M 125.14634704589844 88.90670013427734 C 141.36061096191406 98.50463104248047 129.29306030273438 69.64704132080078 129.83059692382812 107.22774505615234" stroke-width="3.0" fill="none" stroke="rgb(0, 0, 0)" stroke-opacity="1.0" stroke-linecap="round" stroke-linejoin="round"/>
    <path d="M 185.20457458496094 111.79470825195312 C 162.93081665039062 87.0818862915039 186.47982788085938 89.33612060546875 151.456298828125 87.06149291992188" stroke-width="3.0" fill="none" stroke="rgb(0, 0, 0)" stroke-opacity="1.0" stroke-linecap="round" stroke-linejoin="round"/>
    <path d="M 84.10746765136719 7.513545989990234 C 115.49151611328125 17.780811309814453 103.53772735595703 34.1579704284668 134.69708251953125 29.665027618408203" stroke-width="3.0" fill="none" stroke="rgb(0, 0, 0)" stroke-opacity="1.0" stroke-linecap="round" stroke-linejoin="round"/>
    <path d="M 62.478515625 119.0204086303711 C 62.785247802734375 109.08782958984375 62.24385070800781 124.48413848876953 66.88612365722656 128.430908203125" stroke-width="3.0" fill="none" stroke="rgb(0, 0, 0)" stroke-opacity="1.0" stroke-linecap="round" stroke-linejoin="round"/>
    <path d="M 132.94740295410156 106.67328643798828 C 140.0576629638672 90.95399475097656 121.95075225830078 120.12815856933594 117.56849670410156 88.82256317138672" stroke-width="3.0" fill="none" stroke="rgb(0, 0, 0)" stroke-opacity="1.0" stroke-linecap="round" stroke-linejoin="round"/>
    <path d="M 31.88673973083496 134.2209930419922 C 28.281322479248047 119.8720474243164 35.63510513305664 86.41947174072266 57.691444396972656 71.25385284423828" stroke-width="3.0" fill="none" stroke="rgb(0, 0, 0)" stroke-opacity="1.0" stroke-linecap="round" stroke-linejoin="round"/>
    <path d="M 96.54275512695312 196.27525329589844 C 64.892578125 194.97720336914062 70.18730926513672 191.45974731445312 103.94088745117188 197.96014404296875" stroke-width="3.0" fill="none" stroke="rgb(0, 0, 0)" stroke-opacity="1.0" stroke-linecap="round" stroke-linejoin="round"/>
    <path d="M 170.0621795654297 128.91305541992188 C 200.6941680908203 115.64408111572266 181.26315307617188 93.87691497802734 155.84312438964844 88.95120239257812" stroke-width="3.0" fill="none" stroke="rgb(0, 0, 0)" stroke-opacity="1.0" stroke-linecap="round" stroke-linejoin="round"/>
    <path d="M 152.21090698242188 65.70214080810547 C 131.48544311523438 83.603515625 175.68612670898438 75.03108978271484 144.82666015625 74.3325424194336" stroke-width="3.0" fill="none" stroke="rgb(0, 0, 0)" stroke-opacity="1.0" stroke-linecap="round" stroke-linejoin="round"/>
    <path d="M 138.2450714111328 80.74808502197266 C 145.40936279296875 36.485233306884766 203.8465576171875 110.6237564086914 178.15151977539062 48.60398483276367" stroke-width="3.0" fill="none" stroke="rgb(0, 0, 0)" stroke-opacity="1.0" stroke-linecap="round" stroke-linejoin="round"/>
    <path d="M 153.32489013671875 99.86634063720703 C 170.27122497558594 105.87702178955078 171.38519287109375 100.87805938720703 183.6666259765625 117.3728256225586" stroke-width="3.0" fill="none" stroke="rgb(0, 0, 0)" stroke-opacity="1.0" stroke-linecap="round" stroke-linejoin="round"/>
    <path d="M 179.91018676757812 17.97501564025879 C 172.3248291015625 33.57866668701172 168.65261840820312 11.755481719970703 150.86831665039062 36.41188430786133" stroke-width="3.0" fill="none" stroke="rgb(0, 0, 0)" stroke-opacity="1.0" stroke-linecap="round" stroke-linejoin="round"/>
    <path d="M 123.81570434570312 98.19609069824219 C 147.88198852539062 100.46569061279297 137.70816040039062 113.52571105957031 122.05541229248047 97.51824951171875" stroke-width="3.0" fill="none" stroke="rgb(0, 0, 0)" stroke-opacity="1.0" stroke-linecap="round" stroke-linejoin="round"/>
    <path d="M 68.02609252929688 121.98336029052734 C 53.82040023803711 112.53006744384766 62.32456588745117 112.0166015625 59.93546676635742 115.6639175415039" stroke-width="3.0" fill="none" stroke="rgb(0, 0, 0)" stroke-opacity="1.0" stroke-linecap="round" stroke-linejoin="round"/>
    <path d="M 123.71363830566406 75.51250457763672 C 123.70162200927734 44.494117736816406 117.44706726074219 57.685672760009766 123.03266143798828 36.95477294921875" stroke-width="3.0" fill="none" stroke="rgb(0, 0, 0)" stroke-opacity="1.0" stroke-linecap="round" stroke-linejoin="round"/>
    <path d="M 150.7450714111328 27.063644409179688 C 144.25030517578125 33.820247650146484 166.4921875 9.14257526397705 178.06787109375 9.292415618896484" stroke-width="3.0" fill="none" stroke="rgb(0, 0, 0)" stroke-opacity="1.0" stroke-linecap="round" stroke-linejoin="round"/>
  </g>
</svg>
