<?xml version="1.0" ?>
<svg xmlns="http://www.w3.org/2000/svg" version="1.1" width="224" height="224">
  <defs/>
  <g>
    <path d="M 60.174163818359375 97.9652328491211 C 64.60822296142578 100.22627258300781 55.67997360229492 90.523681640625 67.30541229248047 61.16390609741211" stroke-width="3.0" fill="none" stroke="rgb(0, 0, 0)" stroke-opacity="1.0" stroke-linecap="round" stroke-linejoin="round"/>
    <path d="M 188.0930633544922 110.18794250488281 C 182.7876434326172 113.14057922363281 193.80978393554688 99.1695327758789 177.78794860839844 127.71635437011719" stroke-width="3.0" fill="none" stroke="rgb(0, 0, 0)" stroke-opacity="1.0" stroke-linecap="round" stroke-linejoin="round"/>
    <path d="M 62.28752899169922 121.5204849243164 C 55.1916618347168 81.24837493896484 56.38501739501953 122.91463470458984 63.383811950683594 127.28943634033203" stroke-width="3.0" fill="none" stroke="rgb(0, 0, 0)" stroke-opacity="1.0" stroke-linecap="round" stroke-linejoin="round"/>
    <path d="M 186.9137420654297 95.80979919433594 C 151.02569580078125 70.50800323486328 185.9303436279297 74.14260864257812 186.8466033935547 103.5923843383789" stroke-width="3.0" fill="none" stroke="rgb(0, 0, 0)" stroke-opacity="1.0" stroke-linecap="round" stroke-linejoin="round"/>
    <path d="M 175.5158233642578 40.71080780029297 C 194.9359588623047 89.924072265625 173.56851196289062 106.71578979492188 180.72543334960938 65.2543716430664" stroke-width="3.0" fill="none" stroke="rgb(0, 0, 0)" stroke-opacity="1.0" stroke-linecap="round" stroke-linejoin="round"/>
    <path d="M 127.97079467773438 102.61565399169922 C 148.86863708496094 118.99331665039062 96.37380981445312 102.45677947998047 136.34002685546875 106.80174255371094" stroke-width="3.0" fill="none" stroke="rgb(0, 0, 0)" stroke-opacity="1.0" stroke-linecap="round" stroke-linejoin="round"/>
    <path d="M 181.83718872070312 90.40499114990234 C 170.9996337890625 90.2172622680664 183.94619750976562 70.34535217285156 159.5642852783203 87.56260681152344" stroke-width="3.0" fill="none" stroke="rgb(0, 0, 0)" stroke-opacity="1.0" stroke-linecap="round" stroke-linejoin="round"/>
    <path d="M 66.47740173339844 191.06390380859375 C 41.223567962646484 168.41758728027344 48.49518966674805 164.52882385253906 55.989654541015625 186.86563110351562" stroke-width="3.0" fill="none" stroke="rgb(0, 0, 0)" stroke-opacity="1.0" stroke-linecap="round" stroke-linejoin="round"/>
    <path d="M 58.14471435546875 183.958251953125 C 83.09899139404297 211.01400756835938 134.67945861816406 194.75466918945312 140.68328857421875 163.4812469482422" stroke-width="3.0" fill="none" stroke="rgb(0, 0, 0)" stroke-opacity="1.0" stroke-linecap="round" stroke-linejoin="round"/>
    <path d="M 80.92444610595703 13.586135864257812 C 93.25039672851562 78.10721588134766 88.87007141113281 8.790523529052734 86.7574234008789 55.539207458496094" stroke-width="3.0" fill="none" stroke="rgb(0, 0, 0)" stroke-opacity="1.0" stroke-linecap="round" stroke-linejoin="round"/>
    <path d="M 61.02998733520508 95.6473388671875 C 50.119903564453125 132.23020935058594 73.6888656616211 131.92604064941406 59.854557037353516 121.79328918457031" stroke-width="3.0" fill="none" stroke="rgb(0, 0, 0)" stroke-opacity="1.0" stroke-linecap="round" stroke-linejoin="round"/>
    <path d="M 146.01760864257812 73.92835998535156 C 194.7509307861328 64.74989318847656 192.0563201904297 86.20179748535156 140.2122039794922 85.80952453613281" stroke-width="3.0" fill="none" stroke="rgb(0, 0, 0)" stroke-opacity="1.0" stroke-linecap="round" stroke-linejoin="round"/>
    <path d="M 149.23268127441406 97.54300689697266 C 180.41677856445312 96.36470794677734 179.2584228515625 95.15036010742188 196.19752502441406 113.73401641845703" stroke-width="3.0" fill="none" stroke="rgb(0, 0, 0)" stroke-opacity="1.0" stroke-linecap="round" stroke-linejoin="round"/>
    <path d="M 122.62258911132812 146.8171844482422 C 162.75250244140625 160.55589294433594 99.06917572021484 140.46148681640625 97.9802017211914 152.33535766601562" stroke-width="3.0" fill="none" stroke="rgb(0, 0, 0)" stroke-opacity="1.0" stroke-linecap="round" stroke-linejoin="round"/>
    <path d="M 180.30479431152344 7.723598480224609 C 189.66162109375 16.610652923583984 163.05313110351562 94.7665023803711 181.93972778320312 56.77265930175781" stroke-width="3.0" fill="none" stroke="rgb(0, 0, 0)" stroke-opacity="1.0" stroke-linecap="round" stroke-linejoin="round"/>
    <path d="M 147.70018005371094 27.716894149780273 C 114.50902557373047 26.51454734802246 139.8498077392578 31.55002784729004 133.43040466308594 65.75055694580078" stroke-width="3.0" fill="none" stroke="rgb(0, 0, 0)" stroke-opacity="1.0" stroke-linecap="round" stroke-linejoin="round"/>
    <path d="M 104.18560028076172 49.72250747680664 C 62.04668045043945 -5.65673828125 83.12556457519531 2.560732364654541 119.19136047363281 30.94362449645996" stroke-width="3.0" fill="none" stroke="rgb(0, 0, 0)" stroke-opacity="1.0" stroke-linecap="round" stroke-linejoin="round"/>
    <path d="M 45.36370086669922 163.5940704345703 C 44.51148986816406 159.83279418945312 39.89238739013672 155.1692352294922 49.10761642456055 171.04647827148438" stroke-width="3.0" fill="none" stroke="rgb(0, 0, 0)" stroke-opacity="1.0" stroke-linecap="round" stroke-linejoin="round"/>
    <path d="M 57.677127838134766 71.94536590576172 C 25.08942222595215 132.79727172851562 42.0426025390625 133.19390869140625 43.32797622680664 159.93017578125" stroke-width="3.0" fill="none" stroke="rgb(0, 0, 0)" stroke-opacity="1.0" stroke-linecap="round" stroke-linejoin="round"/>
    <path d="M 71.85979461669922 137.00657653808594 C 135.9366455078125 159.93045043945312 102.13241577148438 147.5104217529297 88.18048095703125 143.49624633789062" stroke-width="3.0" fill="none" stroke="rgb(0, 0, 0)" stroke-opacity="1.0" stroke-linecap="round" stroke-linejoin="round"/>
    <path d="M 94.19085693359375 198.1246337890625 C 63.90913391113281 200.4602813720703 47.91297912597656 177.67808532714844 43.36545944213867 158.772216796875" stroke-width="3.0" fill="none" stroke="rgb(0, 0, 0)" stroke-opacity="1.0" stroke-linecap="round" stroke-linejoin="round"/>
    <path d="M 46.55841827392578 173.89161682128906 C 68.10322570800781 199.92764282226562 49.886356353759766 173.6978302001953 36.613365173339844 141.39224243164062" stroke-width="3.0" fill="none" stroke="rgb(0, 0, 0)" stroke-opacity="1.0" stroke-linecap="round" stroke-linejoin="round"/>
    <path d="M 81.2048110961914 55.64031219482422 C 55.99820327758789 58.82526779174805 66.72941589355469 72.27227783203125 41.10244369506836 112.03948211669922" stroke-width="3.0" fill="none" stroke="rgb(0, 0, 0)" stroke-opacity="1.0" stroke-linecap="round" stroke-linejoin="round"/>
    <path d="M 156.94210815429688 140.2116241455078 C 101.41268920898438 154.35951232910156 73.5001449584961 153.68585205078125 145.68028259277344 148.9227752685547" stroke-width="3.0" fill="none" stroke="rgb(0, 0, 0)" stroke-opacity="1.0" stroke-linecap="round" stroke-linejoin="round"/>
    <path d="M 152.4450225830078 26.688583374023438 C 145.67483520507812 32.50682830810547 139.42181396484375 15.745988845825195 138.36785888671875 80.79156494140625" stroke-width="3.0" fill="none" stroke="rgb(0, 0, 0)" stroke-opacity="1.0" stroke-linecap="round" stroke-linejoin="round"/>
    <path d="M 146.4228057861328 102.32274627685547 C 131.22268676757812 114.32402801513672 123.45368194580078 106.7777328491211 116.76872253417969 98.3178939819336" stroke-width="3.0" fill="none" stroke="rgb(0, 0, 0)" stroke-opacity="1.0" stroke-linecap="round" stroke-linejoin="round"/>
    <path d="M 139.2902069091797 64.92423248291016 C 144.0914306640625 54.09043884277344 128.7542266845703 73.90007019042969 139.030029296875 76.48979187011719" stroke-width="3.0" fill="none" stroke="rgb(0, 0, 0)" stroke-opacity="1.0" stroke-linecap="round" stroke-linejoin="round"/>
    <path d="M 137.50198364257812 165.20294189453125 C 130.96009826660156 171.0830535888672 144.6516571044922 162.95684814453125 145.3426055908203 145.2660675048828" stroke-width="3.0" fill="none" stroke="rgb(0, 0, 0)" stroke-opacity="1.0" stroke-linecap="round" stroke-linejoin="round"/>
    <path d="M 193.8628387451172 96.24114227294922 C 165.246826171875 66.23580169677734 175.72132873535156 69.6104965209961 188.2467803955078 97.91683197021484" stroke-width="3.0" fill="none" stroke="rgb(0, 0, 0)" stroke-opacity="1.0" stroke-linecap="round" stroke-linejoin="round"/>
    <path d="M 150.3494110107422 76.03517150878906 C 122.38778686523438 55.14750671386719 210.15664672851562 88.47151184082031 172.9656524658203 66.6269302368164" stroke-width="3.0" fill="none" stroke="rgb(0, 0, 0)" stroke-opacity="1.0" stroke-linecap="round" stroke-linejoin="round"/>
    <path d="M 114.41390991210938 81.72093200683594 C 82.31615447998047 73.1666030883789 141.86521911621094 73.997314453125 108.09918212890625 80.17911529541016" stroke-width="3.0" fill="none" stroke="rgb(0, 0, 0)" stroke-opacity="1.0" stroke-linecap="round" stroke-linejoin="round"/>
    <path d="M 165.7867889404297 129.66024780273438 C 151.33102416992188 159.03469848632812 98.65931701660156 144.6774444580078 91.25043487548828 147.5637664794922" stroke-width="3.0" fill="none" stroke="rgb(0, 0, 0)" stroke-opacity="1.0" stroke-linecap="round" stroke-linejoin="round"/>
    <path d="M 122.32108306884766 88.89302062988281 C 143.7806854248047 98.72136688232422 130.51129150390625 74.43872833251953 125.34503173828125 109.04360961914062" stroke-width="3.0" fill="none" stroke="rgb(0, 0, 0)" stroke-opacity="1.0" stroke-linecap="round" stroke-linejoin="round"/>
    <path d="M 186.3876953125 110.72975158691406 C 168.2482452392578 87.65425872802734 173.68479919433594 95.5426254272461 142.0068817138672 84.13691711425781" stroke-width="3.0" fill="none" stroke="rgb(0, 0, 0)" stroke-opacity="1.0" stroke-linecap="round" stroke-linejoin="round"/>
    <path d="M 91.09870910644531 25.88766098022461 C 127.27217102050781 27.100923538208008 89.8503646850586 31.673078536987305 148.84323120117188 28.73015785217285" stroke-width="3.0" fill="none" stroke="rgb(0, 0, 0)" stroke-opacity="1.0" stroke-linecap="round" stroke-linejoin="round"/>
    <path d="M 59.078758239746094 115.56083679199219 C 64.79428100585938 100.84186553955078 48.36561584472656 117.05989074707031 73.52845001220703 136.35528564453125" stroke-width="3.0" fill="none" stroke="rgb(0, 0, 0)" stroke-opacity="1.0" stroke-linecap="round" stroke-linejoin="round"/>
    <path d="M 137.35438537597656 106.00357818603516 C 121.08766174316406 89.77117156982422 127.51378631591797 118.33826446533203 114.38058471679688 89.08811950683594" stroke-width="3.0" fill="none" stroke="rgb(0, 0, 0)" stroke-opacity="1.0" stroke-linecap="round" stroke-linejoin="round"/>
    <path d="M 39.26164627075195 145.45193481445312 C 25.861112594604492 126.9017562866211 38.92924499511719 79.59683990478516 62.60072326660156 65.34548950195312" stroke-width="3.0" fill="none" stroke="rgb(0, 0, 0)" stroke-opacity="1.0" stroke-linecap="round" stroke-linejoin="round"/>
    <path d="M 102.34904479980469 196.39505004882812 C 77.86454772949219 196.9803009033203 70.07645416259766 197.26968383789062 101.8393325805664 196.15484619140625" stroke-width="3.0" fill="none" stroke="rgb(0, 0, 0)" stroke-opacity="1.0" stroke-linecap="round" stroke-linejoin="round"/>
    <path d="M 169.51394653320312 127.98456573486328 C 198.51272583007812 111.02107238769531 193.3281707763672 85.50700378417969 153.19715881347656 86.80399322509766" stroke-width="3.0" fill="none" stroke="rgb(0, 0, 0)" stroke-opacity="1.0" stroke-linecap="round" stroke-linejoin="round"/>
    <path d="M 152.3915252685547 70.69319152832031 C 132.6694793701172 81.2618179321289 171.21975708007812 82.15384674072266 149.82945251464844 70.75749206542969" stroke-width="3.0" fill="none" stroke="rgb(0, 0, 0)" stroke-opacity="1.0" stroke-linecap="round" stroke-linejoin="round"/>
    <path d="M 138.07766723632812 74.16548919677734 C 143.45494079589844 39.232662200927734 193.96669006347656 107.96340942382812 175.00709533691406 50.386409759521484" stroke-width="3.0" fill="none" stroke="rgb(0, 0, 0)" stroke-opacity="1.0" stroke-linecap="round" stroke-linejoin="round"/>
    <path d="M 153.25738525390625 97.12474822998047 C 174.90093994140625 106.92520904541016 180.83352661132812 101.07807922363281 184.91885375976562 121.26741790771484" stroke-width="3.0" fill="none" stroke="rgb(0, 0, 0)" stroke-opacity="1.0" stroke-linecap="round" stroke-linejoin="round"/>
    <path d="M 176.76263427734375 16.05730438232422 C 174.1756591796875 41.2740592956543 174.65354919433594 21.437599182128906 158.20347595214844 35.98698043823242" stroke-width="3.0" fill="none" stroke="rgb(0, 0, 0)" stroke-opacity="1.0" stroke-linecap="round" stroke-linejoin="round"/>
    <path d="M 120.77839660644531 104.59004974365234 C 148.0559844970703 100.42381286621094 127.2983627319336 116.71099853515625 120.96314239501953 103.62720489501953" stroke-width="3.0" fill="none" stroke="rgb(0, 0, 0)" stroke-opacity="1.0" stroke-linecap="round" stroke-linejoin="round"/>
    <path d="M 62.290950775146484 111.74567413330078 C 54.16798782348633 106.54254150390625 56.807159423828125 110.925537109375 62.88320541381836 119.24906921386719" stroke-width="3.0" fill="none" stroke="rgb(0, 0, 0)" stroke-opacity="1.0" stroke-linecap="round" stroke-linejoin="round"/>
    <path d="M 122.17530822753906 72.32439422607422 C 125.11901092529297 44.96065139770508 114.0578384399414 59.663509368896484 120.28014373779297 32.80632781982422" stroke-width="3.0" fill="none" stroke="rgb(0, 0, 0)" stroke-opacity="1.0" stroke-linecap="round" stroke-linejoin="round"/>
    <path d="M 143.558837890625 31.177330017089844 C 145.63307189941406 40.00838088989258 162.56036376953125 7.257735729217529 180.19642639160156 7.521733283996582" stroke-width="3.0" fill="none" stroke="rgb(0, 0, 0)" stroke-opacity="1.0" stroke-linecap="round" stroke-linejoin="round"/>
  </g>
</svg>
