<?xml version="1.0" ?>
<svg xmlns="http://www.w3.org/2000/svg" version="1.1" width="224" height="224">
  <defs/>
  <g>
    <path d="M 58.86091995239258 98.03656768798828 C 64.06818389892578 95.96897888183594 51.2491340637207 92.06819152832031 54.76008605957031 69.69929504394531" stroke-width="3.0" fill="none" stroke="rgb(0, 0, 0)" stroke-opacity="1.0" stroke-linecap="round" stroke-linejoin="round"/>
    <path d="M 191.9682159423828 111.15235900878906 C 184.75135803222656 112.1675796508789 192.6649627685547 85.39532470703125 183.15402221679688 124.22576141357422" stroke-width="3.0" fill="none" stroke="rgb(0, 0, 0)" stroke-opacity="1.0" stroke-linecap="round" stroke-linejoin="round"/>
    <path d="M 62.540122985839844 117.66671752929688 C 59.800132751464844 88.7774887084961 55.71839141845703 132.559814453125 65.72938537597656 126.74577331542969" stroke-width="3.0" fill="none" stroke="rgb(0, 0, 0)" stroke-opacity="1.0" stroke-linecap="round" stroke-linejoin="round"/>
    <path d="M 189.5013885498047 95.22900390625 C 151.0671844482422 72.34124755859375 185.7509307861328 77.4704360961914 187.2031707763672 101.95780944824219" stroke-width="3.0" fill="none" stroke="rgb(0, 0, 0)" stroke-opacity="1.0" stroke-linecap="round" stroke-linejoin="round"/>
    <path d="M 177.69293212890625 54.701271057128906 C 190.87586975097656 91.53279876708984 179.3310546875 93.2383804321289 180.69772338867188 70.11193084716797" stroke-width="3.0" fill="none" stroke="rgb(0, 0, 0)" stroke-opacity="1.0" stroke-linecap="round" stroke-linejoin="round"/>
    <path d="M 131.0325469970703 100.2339096069336 C 158.2178497314453 116.33882141113281 97.19194030761719 103.6634521484375 134.3302764892578 104.0339126586914" stroke-width="3.0" fill="none" stroke="rgb(0, 0, 0)" stroke-opacity="1.0" stroke-linecap="round" stroke-linejoin="round"/>
    <path d="M 178.24635314941406 87.8883056640625 C 180.6119384765625 72.98316955566406 196.34693908691406 73.3125228881836 149.74224853515625 86.80113220214844" stroke-width="3.0" fill="none" stroke="rgb(0, 0, 0)" stroke-opacity="1.0" stroke-linecap="round" stroke-linejoin="round"/>
    <path d="M 66.3512954711914 191.29714965820312 C 39.680641174316406 165.5749053955078 51.38251876831055 169.3474884033203 49.625816345214844 175.54493713378906" stroke-width="3.0" fill="none" stroke="rgb(0, 0, 0)" stroke-opacity="1.0" stroke-linecap="round" stroke-linejoin="round"/>
    <path d="M 55.16830825805664 184.8178253173828 C 89.73970031738281 211.76220703125 128.1758270263672 196.9425811767578 137.23004150390625 169.20750427246094" stroke-width="3.0" fill="none" stroke="rgb(0, 0, 0)" stroke-opacity="1.0" stroke-linecap="round" stroke-linejoin="round"/>
    <path d="M 83.27833557128906 17.12259864807129 C 94.56150817871094 74.23575592041016 86.0223388671875 6.7778167724609375 87.0484848022461 56.55229568481445" stroke-width="3.0" fill="none" stroke="rgb(0, 0, 0)" stroke-opacity="1.0" stroke-linecap="round" stroke-linejoin="round"/>
    <path d="M 57.24855422973633 83.96414184570312 C 59.35579299926758 140.3357391357422 71.0897445678711 137.13265991210938 60.85261917114258 122.46204376220703" stroke-width="3.0" fill="none" stroke="rgb(0, 0, 0)" stroke-opacity="1.0" stroke-linecap="round" stroke-linejoin="round"/>
    <path d="M 147.34703063964844 73.84382629394531 C 199.22866821289062 61.79838562011719 191.7617950439453 88.06687927246094 141.41432189941406 84.89750671386719" stroke-width="3.0" fill="none" stroke="rgb(0, 0, 0)" stroke-opacity="1.0" stroke-linecap="round" stroke-linejoin="round"/>
    <path d="M 149.954833984375 93.6180191040039 C 181.62017822265625 96.66129302978516 180.13719177246094 92.46918487548828 196.4286346435547 114.24537658691406" stroke-width="3.0" fill="none" stroke="rgb(0, 0, 0)" stroke-opacity="1.0" stroke-linecap="round" stroke-linejoin="round"/>
    <path d="M 117.23704528808594 149.5126953125 C 155.4965362548828 157.8338623046875 102.22945404052734 148.9672088623047 105.50499725341797 152.44873046875" stroke-width="3.0" fill="none" stroke="rgb(0, 0, 0)" stroke-opacity="1.0" stroke-linecap="round" stroke-linejoin="round"/>
    <path d="M 181.15972900390625 10.761265754699707 C 189.82785034179688 25.30751609802246 167.55152893066406 93.66813659667969 184.0184326171875 60.11027526855469" stroke-width="3.0" fill="none" stroke="rgb(0, 0, 0)" stroke-opacity="1.0" stroke-linecap="round" stroke-linejoin="round"/>
    <path d="M 139.23512268066406 33.107582092285156 C 107.55745697021484 21.53978157043457 137.16949462890625 38.38712692260742 120.89552307128906 85.39836883544922" stroke-width="3.0" fill="none" stroke="rgb(0, 0, 0)" stroke-opacity="1.0" stroke-linecap="round" stroke-linejoin="round"/>
    <path d="M 104.71275329589844 50.88358688354492 C 62.55800247192383 -8.980453491210938 81.52672576904297 1.8012751340866089 121.92107391357422 28.810190200805664" stroke-width="3.0" fill="none" stroke="rgb(0, 0, 0)" stroke-opacity="1.0" stroke-linecap="round" stroke-linejoin="round"/>
    <path d="M 47.54777526855469 169.5817108154297 C 43.28404235839844 158.6370086669922 39.7337760925293 153.9413299560547 48.02436065673828 171.87716674804688" stroke-width="3.0" fill="none" stroke="rgb(0, 0, 0)" stroke-opacity="1.0" stroke-linecap="round" stroke-linejoin="round"/>
    <path d="M 48.476295471191406 75.02606201171875 C 12.507848739624023 126.39177703857422 35.93018341064453 140.95709228515625 44.66679000854492 167.59971618652344" stroke-width="3.0" fill="none" stroke="rgb(0, 0, 0)" stroke-opacity="1.0" stroke-linecap="round" stroke-linejoin="round"/>
    <path d="M 66.00044250488281 134.0794219970703 C 125.55899810791016 161.05679321289062 92.9984359741211 151.24942016601562 85.82502746582031 140.80104064941406" stroke-width="3.0" fill="none" stroke="rgb(0, 0, 0)" stroke-opacity="1.0" stroke-linecap="round" stroke-linejoin="round"/>
    <path d="M 83.10688781738281 197.48977661132812 C 69.8389892578125 202.50192260742188 48.79240036010742 174.89894104003906 47.08775329589844 167.25485229492188" stroke-width="3.0" fill="none" stroke="rgb(0, 0, 0)" stroke-opacity="1.0" stroke-linecap="round" stroke-linejoin="round"/>
    <path d="M 48.41818618774414 169.4022674560547 C 67.08612060546875 196.82676696777344 48.816551208496094 171.12562561035156 39.804996490478516 155.91358947753906" stroke-width="3.0" fill="none" stroke="rgb(0, 0, 0)" stroke-opacity="1.0" stroke-linecap="round" stroke-linejoin="round"/>
    <path d="M 82.81336975097656 52.30923080444336 C 53.77078628540039 57.975372314453125 54.57225036621094 71.44200134277344 33.116153717041016 105.8333969116211" stroke-width="3.0" fill="none" stroke="rgb(0, 0, 0)" stroke-opacity="1.0" stroke-linecap="round" stroke-linejoin="round"/>
    <path d="M 160.4346160888672 139.89524841308594 C 103.93423461914062 158.56057739257812 88.06584167480469 158.1931610107422 150.83956909179688 144.6895751953125" stroke-width="3.0" fill="none" stroke="rgb(0, 0, 0)" stroke-opacity="1.0" stroke-linecap="round" stroke-linejoin="round"/>
    <path d="M 149.74087524414062 29.767919540405273 C 143.9061737060547 33.89976119995117 133.00010681152344 13.004036903381348 138.2428436279297 83.16845703125" stroke-width="3.0" fill="none" stroke="rgb(0, 0, 0)" stroke-opacity="1.0" stroke-linecap="round" stroke-linejoin="round"/>
    <path d="M 145.29554748535156 102.8477554321289 C 123.15202331542969 111.9940414428711 118.23029327392578 107.15980529785156 108.19367980957031 95.85359191894531" stroke-width="3.0" fill="none" stroke="rgb(0, 0, 0)" stroke-opacity="1.0" stroke-linecap="round" stroke-linejoin="round"/>
    <path d="M 137.89292907714844 71.56210327148438 C 137.36166381835938 52.718162536621094 131.994873046875 75.37555694580078 137.57785034179688 82.14244079589844" stroke-width="3.0" fill="none" stroke="rgb(0, 0, 0)" stroke-opacity="1.0" stroke-linecap="round" stroke-linejoin="round"/>
    <path d="M 141.192138671875 162.47804260253906 C 127.7493667602539 178.50050354003906 145.27503967285156 171.1531524658203 144.4470977783203 145.5680694580078" stroke-width="3.0" fill="none" stroke="rgb(0, 0, 0)" stroke-opacity="1.0" stroke-linecap="round" stroke-linejoin="round"/>
    <path d="M 195.98837280273438 97.08234405517578 C 162.46109008789062 72.72430419921875 164.5591278076172 79.71849822998047 180.78524780273438 95.84812927246094" stroke-width="3.0" fill="none" stroke="rgb(0, 0, 0)" stroke-opacity="1.0" stroke-linecap="round" stroke-linejoin="round"/>
    <path d="M 155.35939025878906 75.6275405883789 C 133.17575073242188 52.69538879394531 200.9862823486328 94.5318832397461 181.5467529296875 62.587223052978516" stroke-width="3.0" fill="none" stroke="rgb(0, 0, 0)" stroke-opacity="1.0" stroke-linecap="round" stroke-linejoin="round"/>
    <path d="M 115.00103759765625 79.7729721069336 C 85.07674407958984 66.9565658569336 143.328857421875 71.93762969970703 107.81019592285156 79.69449615478516" stroke-width="3.0" fill="none" stroke="rgb(0, 0, 0)" stroke-opacity="1.0" stroke-linecap="round" stroke-linejoin="round"/>
    <path d="M 168.3925323486328 128.6095733642578 C 146.76109313964844 161.0064239501953 104.26567840576172 147.18612670898438 98.65755462646484 149.12034606933594" stroke-width="3.0" fill="none" stroke="rgb(0, 0, 0)" stroke-opacity="1.0" stroke-linecap="round" stroke-linejoin="round"/>
    <path d="M 123.51581573486328 93.4280014038086 C 141.94996643066406 103.64973449707031 132.8146209716797 73.93209838867188 128.18894958496094 106.89766693115234" stroke-width="3.0" fill="none" stroke="rgb(0, 0, 0)" stroke-opacity="1.0" stroke-linecap="round" stroke-linejoin="round"/>
    <path d="M 190.26962280273438 106.25301361083984 C 154.54566955566406 92.3557357788086 170.17483520507812 96.24574279785156 142.91766357421875 86.2037124633789" stroke-width="3.0" fill="none" stroke="rgb(0, 0, 0)" stroke-opacity="1.0" stroke-linecap="round" stroke-linejoin="round"/>
    <path d="M 84.207763671875 14.568991661071777 C 123.61289978027344 25.617656707763672 96.06863403320312 33.71662139892578 139.6599578857422 29.394832611083984" stroke-width="3.0" fill="none" stroke="rgb(0, 0, 0)" stroke-opacity="1.0" stroke-linecap="round" stroke-linejoin="round"/>
    <path d="M 62.85972213745117 117.44419860839844 C 63.05562973022461 108.76566314697266 60.462646484375 119.68820190429688 67.80452728271484 126.94702911376953" stroke-width="3.0" fill="none" stroke="rgb(0, 0, 0)" stroke-opacity="1.0" stroke-linecap="round" stroke-linejoin="round"/>
    <path d="M 134.98426818847656 106.44300079345703 C 116.50698852539062 91.20049285888672 117.7293930053711 121.39004516601562 107.46179962158203 89.77507781982422" stroke-width="3.0" fill="none" stroke="rgb(0, 0, 0)" stroke-opacity="1.0" stroke-linecap="round" stroke-linejoin="round"/>
    <path d="M 31.153287887573242 135.2838897705078 C 26.384084701538086 118.08985900878906 32.19272994995117 85.22504425048828 59.09962463378906 64.53902435302734" stroke-width="3.0" fill="none" stroke="rgb(0, 0, 0)" stroke-opacity="1.0" stroke-linecap="round" stroke-linejoin="round"/>
    <path d="M 106.97168731689453 198.12344360351562 C 68.45242309570312 202.3848114013672 72.22285461425781 197.0401611328125 102.947021484375 197.3792266845703" stroke-width="3.0" fill="none" stroke="rgb(0, 0, 0)" stroke-opacity="1.0" stroke-linecap="round" stroke-linejoin="round"/>
    <path d="M 168.9247283935547 127.5212631225586 C 204.968994140625 112.48368835449219 186.59573364257812 91.00825500488281 156.09164428710938 86.46983337402344" stroke-width="3.0" fill="none" stroke="rgb(0, 0, 0)" stroke-opacity="1.0" stroke-linecap="round" stroke-linejoin="round"/>
    <path d="M 150.03880310058594 66.65387725830078 C 136.80706787109375 85.35506439208984 177.44163513183594 73.96123504638672 148.3795928955078 70.86177062988281" stroke-width="3.0" fill="none" stroke="rgb(0, 0, 0)" stroke-opacity="1.0" stroke-linecap="round" stroke-linejoin="round"/>
    <path d="M 141.94581604003906 76.7827377319336 C 144.58279418945312 39.35628128051758 192.0339813232422 114.43428039550781 179.78387451171875 42.12289810180664" stroke-width="3.0" fill="none" stroke="rgb(0, 0, 0)" stroke-opacity="1.0" stroke-linecap="round" stroke-linejoin="round"/>
    <path d="M 145.69447326660156 98.02729034423828 C 169.2386474609375 104.28717803955078 174.7154083251953 99.5411148071289 183.63539123535156 116.54218292236328" stroke-width="3.0" fill="none" stroke="rgb(0, 0, 0)" stroke-opacity="1.0" stroke-linecap="round" stroke-linejoin="round"/>
    <path d="M 180.1605987548828 22.386655807495117 C 176.85726928710938 50.35438537597656 168.99766540527344 25.897541046142578 153.09454345703125 35.063899993896484" stroke-width="3.0" fill="none" stroke="rgb(0, 0, 0)" stroke-opacity="1.0" stroke-linecap="round" stroke-linejoin="round"/>
    <path d="M 120.62610626220703 104.36615753173828 C 143.10293579101562 104.0935287475586 130.1593475341797 115.94122314453125 118.93907165527344 106.38250732421875" stroke-width="3.0" fill="none" stroke="rgb(0, 0, 0)" stroke-opacity="1.0" stroke-linecap="round" stroke-linejoin="round"/>
    <path d="M 66.55000305175781 117.59484100341797 C 55.70220947265625 113.70222473144531 62.3852653503418 109.76896667480469 63.317039489746094 119.06812286376953" stroke-width="3.0" fill="none" stroke="rgb(0, 0, 0)" stroke-opacity="1.0" stroke-linecap="round" stroke-linejoin="round"/>
    <path d="M 124.07839965820312 74.57575988769531 C 119.94566345214844 40.075653076171875 109.88980865478516 58.894020080566406 116.21733093261719 34.13359451293945" stroke-width="3.0" fill="none" stroke="rgb(0, 0, 0)" stroke-opacity="1.0" stroke-linecap="round" stroke-linejoin="round"/>
    <path d="M 151.6946258544922 27.039213180541992 C 143.54531860351562 34.679386138916016 165.8730926513672 7.4979047775268555 178.91818237304688 9.264820098876953" stroke-width="3.0" fill="none" stroke="rgb(0, 0, 0)" stroke-opacity="1.0" stroke-linecap="round" stroke-linejoin="round"/>
  </g>
</svg>
