<?xml version="1.0" ?>
<svg xmlns="http://www.w3.org/2000/svg" version="1.1" width="224" height="224">
  <defs/>
  <g>
    <path d="M 66.97774505615234 99.48475646972656 C 64.91012573242188 98.8783950805664 59.23866653442383 97.76889038085938 62.045345306396484 93.89047241210938" stroke-width="3.0" fill="none" stroke="rgb(0, 0, 0)" stroke-opacity="1.0" stroke-linecap="round" stroke-linejoin="round"/>
    <path d="M 181.06283569335938 131.29722595214844 C 171.38426208496094 114.48868560791016 166.8529510498047 119.30158233642578 184.17453002929688 126.91447448730469" stroke-width="3.0" fill="none" stroke="rgb(0, 0, 0)" stroke-opacity="1.0" stroke-linecap="round" stroke-linejoin="round"/>
    <path d="M 56.630287170410156 113.31758117675781 C 49.96080780029297 112.06383514404297 54.04098129272461 98.69366455078125 48.41999053955078 111.35497283935547" stroke-width="3.0" fill="none" stroke="rgb(0, 0, 0)" stroke-opacity="1.0" stroke-linecap="round" stroke-linejoin="round"/>
    <path d="M 167.85923767089844 98.93246459960938 C 162.385986328125 107.17851257324219 157.02244567871094 104.65000915527344 166.3334503173828 113.85010528564453" stroke-width="3.0" fill="none" stroke="rgb(0, 0, 0)" stroke-opacity="1.0" stroke-linecap="round" stroke-linejoin="round"/>
    <path d="M 183.23614501953125 78.30833435058594 C 176.84703063964844 78.73636627197266 176.33311462402344 81.00182342529297 189.1609649658203 90.97052001953125" stroke-width="3.0" fill="none" stroke="rgb(0, 0, 0)" stroke-opacity="1.0" stroke-linecap="round" stroke-linejoin="round"/>
    <path d="M 127.81300354003906 112.8053207397461 C 118.49994659423828 113.43920135498047 127.0424575805664 116.7287368774414 123.62467193603516 114.246826171875" stroke-width="3.0" fill="none" stroke="rgb(0, 0, 0)" stroke-opacity="1.0" stroke-linecap="round" stroke-linejoin="round"/>
    <path d="M 176.45980834960938 85.60565185546875 C 175.6383514404297 81.63727569580078 178.1432647705078 87.86509704589844 167.91256713867188 91.40819549560547" stroke-width="3.0" fill="none" stroke="rgb(0, 0, 0)" stroke-opacity="1.0" stroke-linecap="round" stroke-linejoin="round"/>
    <path d="M 56.919532775878906 173.7715606689453 C 55.1346321105957 167.91612243652344 55.469078063964844 175.00132751464844 60.113487243652344 163.97564697265625" stroke-width="3.0" fill="none" stroke="rgb(0, 0, 0)" stroke-opacity="1.0" stroke-linecap="round" stroke-linejoin="round"/>
    <path d="M 77.60821533203125 192.80764770507812 C 76.19930267333984 193.00942993164062 83.57736206054688 195.38778686523438 82.63807678222656 195.08120727539062" stroke-width="3.0" fill="none" stroke="rgb(0, 0, 0)" stroke-opacity="1.0" stroke-linecap="round" stroke-linejoin="round"/>
    <path d="M 91.5051040649414 71.23953247070312 C 84.77027130126953 73.9338607788086 85.89044189453125 80.1187515258789 86.39100646972656 75.73743438720703" stroke-width="3.0" fill="none" stroke="rgb(0, 0, 0)" stroke-opacity="1.0" stroke-linecap="round" stroke-linejoin="round"/>
    <path d="M 80.98052978515625 144.9058380126953 C 80.25284576416016 145.71023559570312 82.02779388427734 147.62326049804688 85.48635864257812 148.0179443359375" stroke-width="3.0" fill="none" stroke="rgb(0, 0, 0)" stroke-opacity="1.0" stroke-linecap="round" stroke-linejoin="round"/>
    <path d="M 171.7855987548828 89.33307647705078 C 174.04525756835938 96.34117126464844 175.6773223876953 94.30256652832031 163.34938049316406 93.56947326660156" stroke-width="3.0" fill="none" stroke="rgb(0, 0, 0)" stroke-opacity="1.0" stroke-linecap="round" stroke-linejoin="round"/>
    <path d="M 158.4807891845703 103.62982177734375 C 170.61061096191406 99.00582122802734 156.23817443847656 102.85803985595703 165.0475616455078 110.48480987548828" stroke-width="3.0" fill="none" stroke="rgb(0, 0, 0)" stroke-opacity="1.0" stroke-linecap="round" stroke-linejoin="round"/>
    <path d="M 86.4022216796875 173.51022338867188 C 90.41964721679688 179.49855041503906 98.41220092773438 182.1356658935547 94.86537170410156 186.8228759765625" stroke-width="3.0" fill="none" stroke="rgb(0, 0, 0)" stroke-opacity="1.0" stroke-linecap="round" stroke-linejoin="round"/>
    <path d="M 166.14913940429688 36.73936080932617 C 164.53973388671875 28.154296875 167.58798217773438 36.445552825927734 176.69679260253906 40.311832427978516" stroke-width="3.0" fill="none" stroke="rgb(0, 0, 0)" stroke-opacity="1.0" stroke-linecap="round" stroke-linejoin="round"/>
    <path d="M 125.76204681396484 27.455307006835938 C 122.76919555664062 39.84614562988281 124.87545776367188 39.150638580322266 129.34393310546875 50.96631622314453" stroke-width="3.0" fill="none" stroke="rgb(0, 0, 0)" stroke-opacity="1.0" stroke-linecap="round" stroke-linejoin="round"/>
    <path d="M 78.86238098144531 17.244159698486328 C 77.20960998535156 8.835210800170898 82.7278823852539 14.325760841369629 95.75257110595703 30.270401000976562" stroke-width="3.0" fill="none" stroke="rgb(0, 0, 0)" stroke-opacity="1.0" stroke-linecap="round" stroke-linejoin="round"/>
    <path d="M 46.28415298461914 167.09217834472656 C 44.87976837158203 160.57424926757812 41.59178161621094 159.29759216308594 48.0944938659668 154.89222717285156" stroke-width="3.0" fill="none" stroke="rgb(0, 0, 0)" stroke-opacity="1.0" stroke-linecap="round" stroke-linejoin="round"/>
    <path d="M 49.82521438598633 144.45118713378906 C 50.91584777832031 134.6927947998047 50.37145233154297 146.39605712890625 55.12080001831055 142.4615478515625" stroke-width="3.0" fill="none" stroke="rgb(0, 0, 0)" stroke-opacity="1.0" stroke-linecap="round" stroke-linejoin="round"/>
    <path d="M 73.32537078857422 165.1667938232422 C 73.39896392822266 163.57423400878906 78.4291763305664 162.0609893798828 75.40583038330078 162.63063049316406" stroke-width="3.0" fill="none" stroke="rgb(0, 0, 0)" stroke-opacity="1.0" stroke-linecap="round" stroke-linejoin="round"/>
    <path d="M 76.19807434082031 187.3181610107422 C 74.58036804199219 182.2818603515625 73.71356964111328 190.18978881835938 62.353759765625 180.90890502929688" stroke-width="3.0" fill="none" stroke="rgb(0, 0, 0)" stroke-opacity="1.0" stroke-linecap="round" stroke-linejoin="round"/>
    <path d="M 43.338314056396484 152.98326110839844 C 52.04731750488281 155.03953552246094 40.929080963134766 149.66531372070312 46.47330856323242 153.14556884765625" stroke-width="3.0" fill="none" stroke="rgb(0, 0, 0)" stroke-opacity="1.0" stroke-linecap="round" stroke-linejoin="round"/>
    <path d="M 64.28772735595703 83.5124740600586 C 52.792476654052734 85.37838745117188 54.47929763793945 78.46896362304688 41.012298583984375 87.97357177734375" stroke-width="3.0" fill="none" stroke="rgb(0, 0, 0)" stroke-opacity="1.0" stroke-linecap="round" stroke-linejoin="round"/>
    <path d="M 137.16207885742188 158.17059326171875 C 124.40467071533203 140.903564453125 127.22465515136719 129.05136108398438 127.6706314086914 145.17355346679688" stroke-width="3.0" fill="none" stroke="rgb(0, 0, 0)" stroke-opacity="1.0" stroke-linecap="round" stroke-linejoin="round"/>
    <path d="M 138.6565704345703 53.9109001159668 C 136.85708618164062 49.983489990234375 139.98507690429688 59.843143463134766 143.7273712158203 59.61328125" stroke-width="3.0" fill="none" stroke="rgb(0, 0, 0)" stroke-opacity="1.0" stroke-linecap="round" stroke-linejoin="round"/>
    <path d="M 142.43223571777344 112.15682983398438 C 136.0704345703125 115.84623718261719 126.02928161621094 109.80814361572266 131.65115356445312 110.5003890991211" stroke-width="3.0" fill="none" stroke="rgb(0, 0, 0)" stroke-opacity="1.0" stroke-linecap="round" stroke-linejoin="round"/>
    <path d="M 149.20614624023438 58.31842041015625 C 154.4281005859375 58.34614944458008 160.13674926757812 51.705406188964844 164.6664581298828 58.67778778076172" stroke-width="3.0" fill="none" stroke="rgb(0, 0, 0)" stroke-opacity="1.0" stroke-linecap="round" stroke-linejoin="round"/>
    <path d="M 100.75813293457031 175.99313354492188 C 97.34898376464844 176.09059143066406 83.1381607055664 172.82305908203125 111.49397277832031 178.45008850097656" stroke-width="3.0" fill="none" stroke="rgb(0, 0, 0)" stroke-opacity="1.0" stroke-linecap="round" stroke-linejoin="round"/>
    <path d="M 182.88682556152344 90.78949737548828 C 187.41921997070312 90.35580444335938 185.55764770507812 93.15972900390625 180.80848693847656 85.46205139160156" stroke-width="3.0" fill="none" stroke="rgb(0, 0, 0)" stroke-opacity="1.0" stroke-linecap="round" stroke-linejoin="round"/>
    <path d="M 175.9126434326172 87.06912231445312 C 172.41461181640625 90.64777374267578 171.57321166992188 89.29523468017578 170.38095092773438 91.06348419189453" stroke-width="3.0" fill="none" stroke="rgb(0, 0, 0)" stroke-opacity="1.0" stroke-linecap="round" stroke-linejoin="round"/>
    <path d="M 111.25896453857422 74.44532775878906 C 109.7043685913086 77.98038482666016 122.39739990234375 70.832275390625 111.51201629638672 80.67324829101562" stroke-width="3.0" fill="none" stroke="rgb(0, 0, 0)" stroke-opacity="1.0" stroke-linecap="round" stroke-linejoin="round"/>
    <path d="M 114.92518615722656 141.34881591796875 C 111.01359558105469 135.53192138671875 110.78994750976562 136.9668426513672 111.23043060302734 138.67300415039062" stroke-width="3.0" fill="none" stroke="rgb(0, 0, 0)" stroke-opacity="1.0" stroke-linecap="round" stroke-linejoin="round"/>
    <path d="M 127.81541442871094 89.1218490600586 C 142.1020965576172 88.76508331298828 138.9739227294922 88.42971801757812 133.18983459472656 92.8049545288086" stroke-width="3.0" fill="none" stroke="rgb(0, 0, 0)" stroke-opacity="1.0" stroke-linecap="round" stroke-linejoin="round"/>
    <path d="M 165.21820068359375 105.24800872802734 C 163.01535034179688 98.72381591796875 165.74618530273438 99.90301513671875 163.12132263183594 97.4526596069336" stroke-width="3.0" fill="none" stroke="rgb(0, 0, 0)" stroke-opacity="1.0" stroke-linecap="round" stroke-linejoin="round"/>
    <path d="M 100.62110900878906 21.597579956054688 C 101.56808471679688 20.146657943725586 106.24222564697266 24.370136260986328 105.58197784423828 23.96068572998047" stroke-width="3.0" fill="none" stroke="rgb(0, 0, 0)" stroke-opacity="1.0" stroke-linecap="round" stroke-linejoin="round"/>
    <path d="M 50.60416030883789 107.7603530883789 C 53.12923812866211 111.89696502685547 63.928497314453125 118.71512603759766 56.49892807006836 119.99785614013672" stroke-width="3.0" fill="none" stroke="rgb(0, 0, 0)" stroke-opacity="1.0" stroke-linecap="round" stroke-linejoin="round"/>
    <path d="M 113.67571258544922 109.9778823852539 C 107.1490707397461 105.59888458251953 109.34154510498047 107.81608581542969 109.19673156738281 105.60956573486328" stroke-width="3.0" fill="none" stroke="rgb(0, 0, 0)" stroke-opacity="1.0" stroke-linecap="round" stroke-linejoin="round"/>
    <path d="M 43.48137664794922 112.42073059082031 C 42.87044143676758 100.851318359375 42.10348892211914 101.76092529296875 43.378910064697266 104.73445129394531" stroke-width="3.0" fill="none" stroke="rgb(0, 0, 0)" stroke-opacity="1.0" stroke-linecap="round" stroke-linejoin="round"/>
    <path d="M 81.00177764892578 177.65769958496094 C 76.5537338256836 179.1792449951172 84.0732421875 188.36399841308594 82.52706909179688 182.4421844482422" stroke-width="3.0" fill="none" stroke="rgb(0, 0, 0)" stroke-opacity="1.0" stroke-linecap="round" stroke-linejoin="round"/>
    <path d="M 165.79808044433594 122.20475769042969 C 164.0426483154297 118.88433837890625 160.7180633544922 116.43670654296875 156.20420837402344 108.42279052734375" stroke-width="3.0" fill="none" stroke="rgb(0, 0, 0)" stroke-opacity="1.0" stroke-linecap="round" stroke-linejoin="round"/>
    <path d="M 142.92849731445312 83.47073364257812 C 144.27606201171875 77.78096008300781 137.4482421875 77.38368225097656 140.66708374023438 83.78974914550781" stroke-width="3.0" fill="none" stroke="rgb(0, 0, 0)" stroke-opacity="1.0" stroke-linecap="round" stroke-linejoin="round"/>
    <path d="M 163.94601440429688 83.98438262939453 C 173.32725524902344 81.18352508544922 169.59188842773438 78.54950714111328 170.8218536376953 77.72923278808594" stroke-width="3.0" fill="none" stroke="rgb(0, 0, 0)" stroke-opacity="1.0" stroke-linecap="round" stroke-linejoin="round"/>
    <path d="M 144.0001220703125 121.11607360839844 C 142.22706604003906 117.99845886230469 144.65713500976562 118.14804077148438 147.5082244873047 115.2669448852539" stroke-width="3.0" fill="none" stroke="rgb(0, 0, 0)" stroke-opacity="1.0" stroke-linecap="round" stroke-linejoin="round"/>
    <path d="M 165.3149871826172 30.36823081970215 C 174.15699768066406 33.72219467163086 182.11131286621094 25.861766815185547 174.6116943359375 37.07241439819336" stroke-width="3.0" fill="none" stroke="rgb(0, 0, 0)" stroke-opacity="1.0" stroke-linecap="round" stroke-linejoin="round"/>
    <path d="M 120.27161407470703 110.99665069580078 C 125.3527603149414 110.8025131225586 115.52049255371094 111.67729949951172 114.74578857421875 110.3627700805664" stroke-width="3.0" fill="none" stroke="rgb(0, 0, 0)" stroke-opacity="1.0" stroke-linecap="round" stroke-linejoin="round"/>
    <path d="M 52.89738464355469 110.85140228271484 C 52.45896530151367 105.01004791259766 44.160362243652344 100.33500671386719 50.09911346435547 110.8492660522461" stroke-width="3.0" fill="none" stroke="rgb(0, 0, 0)" stroke-opacity="1.0" stroke-linecap="round" stroke-linejoin="round"/>
    <path d="M 121.76492309570312 71.13397979736328 C 116.26396942138672 64.5974349975586 115.8990707397461 62.19122314453125 112.4553451538086 59.83958435058594" stroke-width="3.0" fill="none" stroke="rgb(0, 0, 0)" stroke-opacity="1.0" stroke-linecap="round" stroke-linejoin="round"/>
    <path d="M 163.87477111816406 46.96023178100586 C 154.31863403320312 44.72529602050781 158.81695556640625 38.38904571533203 162.08921813964844 30.461139678955078" stroke-width="3.0" fill="none" stroke="rgb(0, 0, 0)" stroke-opacity="1.0" stroke-linecap="round" stroke-linejoin="round"/>
  </g>
</svg>
