<?xml version="1.0" ?>
<svg xmlns="http://www.w3.org/2000/svg" version="1.1" width="224" height="224">
  <defs/>
  <g>
    <path d="M 52.730831146240234 117.21528625488281 C 56.09589385986328 117.93692779541016 44.28927230834961 107.00984191894531 39.436790466308594 94.5790786743164" stroke-width="3.0" fill="none" stroke="rgb(0, 0, 0)" stroke-opacity="1.0" stroke-linecap="round" stroke-linejoin="round"/>
    <path d="M 181.24143981933594 127.70818328857422 C 182.17491149902344 111.11558532714844 187.74652099609375 114.86197662353516 189.01173400878906 120.88041687011719" stroke-width="3.0" fill="none" stroke="rgb(0, 0, 0)" stroke-opacity="1.0" stroke-linecap="round" stroke-linejoin="round"/>
    <path d="M 50.119869232177734 112.8480224609375 C 50.42431640625 114.37890625 47.55100631713867 107.55764770507812 51.77360153198242 115.6836166381836" stroke-width="3.0" fill="none" stroke="rgb(0, 0, 0)" stroke-opacity="1.0" stroke-linecap="round" stroke-linejoin="round"/>
    <path d="M 184.17233276367188 96.9213638305664 C 152.3781280517578 92.47935485839844 172.2684783935547 75.98503112792969 196.0504150390625 113.01119232177734" stroke-width="3.0" fill="none" stroke="rgb(0, 0, 0)" stroke-opacity="1.0" stroke-linecap="round" stroke-linejoin="round"/>
    <path d="M 185.99459838867188 73.86583709716797 C 184.07420349121094 94.6941909790039 181.54917907714844 84.56735229492188 186.62960815429688 67.09009552001953" stroke-width="3.0" fill="none" stroke="rgb(0, 0, 0)" stroke-opacity="1.0" stroke-linecap="round" stroke-linejoin="round"/>
    <path d="M 130.5076141357422 100.0024642944336 C 144.07412719726562 115.68095397949219 108.13589477539062 99.48152160644531 132.33778381347656 104.75031280517578" stroke-width="3.0" fill="none" stroke="rgb(0, 0, 0)" stroke-opacity="1.0" stroke-linecap="round" stroke-linejoin="round"/>
    <path d="M 168.46209716796875 97.03579711914062 C 198.89651489257812 70.67521667480469 186.79736328125 76.46807861328125 155.08216857910156 88.3245620727539" stroke-width="3.0" fill="none" stroke="rgb(0, 0, 0)" stroke-opacity="1.0" stroke-linecap="round" stroke-linejoin="round"/>
    <path d="M 49.96803665161133 180.22010803222656 C 35.32297134399414 153.76654052734375 43.86222457885742 161.56494140625 39.269935607910156 152.63226318359375" stroke-width="3.0" fill="none" stroke="rgb(0, 0, 0)" stroke-opacity="1.0" stroke-linecap="round" stroke-linejoin="round"/>
    <path d="M 68.66558074951172 191.02210998535156 C 89.07025146484375 200.56353759765625 105.79582977294922 194.01528930664062 103.29520416259766 194.68849182128906" stroke-width="3.0" fill="none" stroke="rgb(0, 0, 0)" stroke-opacity="1.0" stroke-linecap="round" stroke-linejoin="round"/>
    <path d="M 86.97049713134766 27.371187210083008 C 88.36808776855469 72.31723022460938 86.25540161132812 24.912635803222656 90.55943298339844 59.538665771484375" stroke-width="3.0" fill="none" stroke="rgb(0, 0, 0)" stroke-opacity="1.0" stroke-linecap="round" stroke-linejoin="round"/>
    <path d="M 59.12508010864258 126.05592346191406 C 68.0890121459961 138.83189392089844 86.8521728515625 142.4375 86.23677825927734 143.51878356933594" stroke-width="3.0" fill="none" stroke="rgb(0, 0, 0)" stroke-opacity="1.0" stroke-linecap="round" stroke-linejoin="round"/>
    <path d="M 149.6930694580078 74.13837432861328 C 210.0026092529297 73.718017578125 186.24191284179688 85.65342712402344 142.19985961914062 84.90239715576172" stroke-width="3.0" fill="none" stroke="rgb(0, 0, 0)" stroke-opacity="1.0" stroke-linecap="round" stroke-linejoin="round"/>
    <path d="M 148.63038635253906 100.02444458007812 C 178.4024200439453 104.78836822509766 175.08132934570312 99.89950561523438 188.3171844482422 108.5480728149414" stroke-width="3.0" fill="none" stroke="rgb(0, 0, 0)" stroke-opacity="1.0" stroke-linecap="round" stroke-linejoin="round"/>
    <path d="M 100.10301208496094 154.1192169189453 C 120.1985092163086 159.7117156982422 108.68504333496094 186.02932739257812 110.9683609008789 189.67041015625" stroke-width="3.0" fill="none" stroke="rgb(0, 0, 0)" stroke-opacity="1.0" stroke-linecap="round" stroke-linejoin="round"/>
    <path d="M 173.0721435546875 10.219400405883789 C 188.5933837890625 -3.0390994548797607 177.25372314453125 48.998260498046875 185.7613067626953 60.394954681396484" stroke-width="3.0" fill="none" stroke="rgb(0, 0, 0)" stroke-opacity="1.0" stroke-linecap="round" stroke-linejoin="round"/>
    <path d="M 129.84451293945312 32.45640182495117 C 130.75816345214844 64.37323760986328 135.3225860595703 39.145938873291016 133.3966827392578 69.6966552734375" stroke-width="3.0" fill="none" stroke="rgb(0, 0, 0)" stroke-opacity="1.0" stroke-linecap="round" stroke-linejoin="round"/>
    <path d="M 93.84339141845703 47.06133270263672 C 70.60567474365234 -0.8837203979492188 82.94499969482422 5.7506279945373535 103.585205078125 39.92353439331055" stroke-width="3.0" fill="none" stroke="rgb(0, 0, 0)" stroke-opacity="1.0" stroke-linecap="round" stroke-linejoin="round"/>
    <path d="M 41.51004409790039 161.34799194335938 C 41.191402435302734 153.32797241210938 44.11414337158203 153.7845001220703 41.14535903930664 157.8524627685547" stroke-width="3.0" fill="none" stroke="rgb(0, 0, 0)" stroke-opacity="1.0" stroke-linecap="round" stroke-linejoin="round"/>
    <path d="M 30.32085418701172 102.64757537841797 C 23.35187339782715 126.0955810546875 35.35121154785156 142.93612670898438 39.3719482421875 152.83982849121094" stroke-width="3.0" fill="none" stroke="rgb(0, 0, 0)" stroke-opacity="1.0" stroke-linecap="round" stroke-linejoin="round"/>
    <path d="M 88.3108139038086 146.97085571289062 C 98.54761505126953 155.56854248046875 101.8006362915039 154.81935119628906 91.8541259765625 150.05532836914062" stroke-width="3.0" fill="none" stroke="rgb(0, 0, 0)" stroke-opacity="1.0" stroke-linecap="round" stroke-linejoin="round"/>
    <path d="M 74.54114532470703 195.5823211669922 C 46.32004928588867 180.2543487548828 64.45658874511719 185.09701538085938 47.066349029541016 172.1929168701172" stroke-width="3.0" fill="none" stroke="rgb(0, 0, 0)" stroke-opacity="1.0" stroke-linecap="round" stroke-linejoin="round"/>
    <path d="M 43.17942428588867 165.14801025390625 C 55.01923751831055 177.86898803710938 36.70533752441406 161.78204345703125 38.67971420288086 147.18270874023438" stroke-width="3.0" fill="none" stroke="rgb(0, 0, 0)" stroke-opacity="1.0" stroke-linecap="round" stroke-linejoin="round"/>
    <path d="M 84.57689666748047 53.58054733276367 C 57.34595489501953 56.37228775024414 43.973411560058594 72.26081085205078 30.929256439208984 104.43323516845703" stroke-width="3.0" fill="none" stroke="rgb(0, 0, 0)" stroke-opacity="1.0" stroke-linecap="round" stroke-linejoin="round"/>
    <path d="M 151.5000457763672 148.39443969726562 C 144.93374633789062 166.07916259765625 128.3233184814453 146.01834106445312 137.80519104003906 163.17861938476562" stroke-width="3.0" fill="none" stroke="rgb(0, 0, 0)" stroke-opacity="1.0" stroke-linecap="round" stroke-linejoin="round"/>
    <path d="M 142.24693298339844 32.03411102294922 C 149.60963439941406 64.18486785888672 137.96267700195312 59.878543853759766 139.71890258789062 79.1485595703125" stroke-width="3.0" fill="none" stroke="rgb(0, 0, 0)" stroke-opacity="1.0" stroke-linecap="round" stroke-linejoin="round"/>
    <path d="M 144.11317443847656 99.24665069580078 C 127.48793029785156 114.66709899902344 117.94923400878906 101.09969329833984 130.00680541992188 102.78233337402344" stroke-width="3.0" fill="none" stroke="rgb(0, 0, 0)" stroke-opacity="1.0" stroke-linecap="round" stroke-linejoin="round"/>
    <path d="M 138.46319580078125 74.8119888305664 C 148.45941162109375 55.63614273071289 152.24774169921875 60.06732940673828 150.10250854492188 58.75259780883789" stroke-width="3.0" fill="none" stroke="rgb(0, 0, 0)" stroke-opacity="1.0" stroke-linecap="round" stroke-linejoin="round"/>
    <path d="M 119.93416595458984 186.5183563232422 C 95.08110809326172 191.20779418945312 118.23036193847656 202.0633544921875 134.50588989257812 168.79916381835938" stroke-width="3.0" fill="none" stroke="rgb(0, 0, 0)" stroke-opacity="1.0" stroke-linecap="round" stroke-linejoin="round"/>
    <path d="M 194.6761016845703 95.01589965820312 C 158.59654235839844 70.05952453613281 140.02740478515625 96.58614349365234 185.74082946777344 86.60520935058594" stroke-width="3.0" fill="none" stroke="rgb(0, 0, 0)" stroke-opacity="1.0" stroke-linecap="round" stroke-linejoin="round"/>
    <path d="M 168.24879455566406 71.63101959228516 C 190.73431396484375 74.54886627197266 195.71664428710938 79.19551849365234 166.67738342285156 73.68709564208984" stroke-width="3.0" fill="none" stroke="rgb(0, 0, 0)" stroke-opacity="1.0" stroke-linecap="round" stroke-linejoin="round"/>
    <path d="M 109.41761779785156 78.40983581542969 C 87.87820434570312 71.99173736572266 137.87448120117188 76.9586181640625 105.8430404663086 83.32244873046875" stroke-width="3.0" fill="none" stroke="rgb(0, 0, 0)" stroke-opacity="1.0" stroke-linecap="round" stroke-linejoin="round"/>
    <path d="M 143.15145874023438 158.83775329589844 C 130.23048400878906 151.89329528808594 122.01190948486328 158.0199737548828 105.1158676147461 138.69952392578125" stroke-width="3.0" fill="none" stroke="rgb(0, 0, 0)" stroke-opacity="1.0" stroke-linecap="round" stroke-linejoin="round"/>
    <path d="M 121.86431121826172 89.96526336669922 C 138.11048889160156 98.77485656738281 133.08694458007812 77.62784576416016 128.19448852539062 97.58378601074219" stroke-width="3.0" fill="none" stroke="rgb(0, 0, 0)" stroke-opacity="1.0" stroke-linecap="round" stroke-linejoin="round"/>
    <path d="M 187.92916870117188 100.36873626708984 C 178.0677947998047 82.2874526977539 187.96153259277344 97.516845703125 138.79701232910156 83.30797576904297" stroke-width="3.0" fill="none" stroke="rgb(0, 0, 0)" stroke-opacity="1.0" stroke-linecap="round" stroke-linejoin="round"/>
    <path d="M 84.68321990966797 11.24902629852295 C 111.8859634399414 18.50827980041504 112.21272277832031 34.133460998535156 123.41522216796875 32.8474235534668" stroke-width="3.0" fill="none" stroke="rgb(0, 0, 0)" stroke-opacity="1.0" stroke-linecap="round" stroke-linejoin="round"/>
    <path d="M 51.54140090942383 115.69316864013672 C 49.542232513427734 109.07231903076172 56.854618072509766 123.88990783691406 53.841556549072266 116.96068572998047" stroke-width="3.0" fill="none" stroke="rgb(0, 0, 0)" stroke-opacity="1.0" stroke-linecap="round" stroke-linejoin="round"/>
    <path d="M 113.35240936279297 103.28130340576172 C 98.9418716430664 85.80917358398438 117.38401794433594 104.53421783447266 103.95870208740234 94.31980895996094" stroke-width="3.0" fill="none" stroke="rgb(0, 0, 0)" stroke-opacity="1.0" stroke-linecap="round" stroke-linejoin="round"/>
    <path d="M 28.880443572998047 125.08272552490234 C 28.801389694213867 98.38453674316406 29.774049758911133 103.52862548828125 31.094823837280273 116.31696319580078" stroke-width="3.0" fill="none" stroke="rgb(0, 0, 0)" stroke-opacity="1.0" stroke-linecap="round" stroke-linejoin="round"/>
    <path d="M 92.45352935791016 196.524169921875 C 74.24247741699219 196.07786560058594 70.83258056640625 196.1416778564453 96.3756103515625 198.09255981445312" stroke-width="3.0" fill="none" stroke="rgb(0, 0, 0)" stroke-opacity="1.0" stroke-linecap="round" stroke-linejoin="round"/>
    <path d="M 152.3593292236328 140.67306518554688 C 212.45521545410156 113.99590301513672 181.43829345703125 97.66119384765625 152.20452880859375 90.93502807617188" stroke-width="3.0" fill="none" stroke="rgb(0, 0, 0)" stroke-opacity="1.0" stroke-linecap="round" stroke-linejoin="round"/>
    <path d="M 156.1152801513672 76.64425659179688 C 126.5733642578125 75.64203643798828 169.19943237304688 86.50428771972656 150.15289306640625 69.93596649169922" stroke-width="3.0" fill="none" stroke="rgb(0, 0, 0)" stroke-opacity="1.0" stroke-linecap="round" stroke-linejoin="round"/>
    <path d="M 146.6490020751953 73.18668365478516 C 144.95848083496094 52.49305725097656 185.79055786132812 102.14895629882812 186.10816955566406 61.47626495361328" stroke-width="3.0" fill="none" stroke="rgb(0, 0, 0)" stroke-opacity="1.0" stroke-linecap="round" stroke-linejoin="round"/>
    <path d="M 149.48146057128906 95.27354431152344 C 162.36212158203125 100.75770568847656 172.82916259765625 105.58394622802734 186.07424926757812 112.55388641357422" stroke-width="3.0" fill="none" stroke="rgb(0, 0, 0)" stroke-opacity="1.0" stroke-linecap="round" stroke-linejoin="round"/>
    <path d="M 176.67755126953125 16.72924041748047 C 167.80877685546875 40.614768981933594 179.16127014160156 24.93661880493164 162.815185546875 41.13206100463867" stroke-width="3.0" fill="none" stroke="rgb(0, 0, 0)" stroke-opacity="1.0" stroke-linecap="round" stroke-linejoin="round"/>
    <path d="M 125.77816009521484 107.04959106445312 C 151.81748962402344 107.03236389160156 124.3738021850586 112.18982696533203 113.36571502685547 102.20976257324219" stroke-width="3.0" fill="none" stroke="rgb(0, 0, 0)" stroke-opacity="1.0" stroke-linecap="round" stroke-linejoin="round"/>
    <path d="M 51.82046890258789 115.27303314208984 C 51.3360595703125 116.61841583251953 45.52432632446289 109.25635528564453 59.71022033691406 127.33197784423828" stroke-width="3.0" fill="none" stroke="rgb(0, 0, 0)" stroke-opacity="1.0" stroke-linecap="round" stroke-linejoin="round"/>
    <path d="M 121.16834259033203 80.40300750732422 C 127.52946472167969 57.998138427734375 116.43570709228516 54.629634857177734 122.80492401123047 37.001468658447266" stroke-width="3.0" fill="none" stroke="rgb(0, 0, 0)" stroke-opacity="1.0" stroke-linecap="round" stroke-linejoin="round"/>
    <path d="M 149.38931274414062 29.984764099121094 C 148.0997772216797 40.440162658691406 151.12933349609375 18.232030868530273 176.75819396972656 6.992255687713623" stroke-width="3.0" fill="none" stroke="rgb(0, 0, 0)" stroke-opacity="1.0" stroke-linecap="round" stroke-linejoin="round"/>
  </g>
</svg>
