<?xml version="1.0" ?>
<svg xmlns="http://www.w3.org/2000/svg" version="1.1" width="224" height="224">
  <defs/>
  <g>
    <path d="M 63.607234954833984 78.9471206665039 C 62.81317901611328 79.00609588623047 67.08120727539062 82.24341583251953 60.27325439453125 72.71466827392578" stroke-width="3.0" fill="none" stroke="rgb(0, 0, 0)" stroke-opacity="1.0" stroke-linecap="round" stroke-linejoin="round"/>
    <path d="M 185.1110076904297 122.01815795898438 C 179.9618682861328 115.17655944824219 201.37574768066406 96.13172912597656 174.87667846679688 126.93595123291016" stroke-width="3.0" fill="none" stroke="rgb(0, 0, 0)" stroke-opacity="1.0" stroke-linecap="round" stroke-linejoin="round"/>
    <path d="M 64.5272216796875 125.48301696777344 C 63.52079772949219 104.0672607421875 53.368309020996094 130.723388671875 71.29802703857422 122.72323608398438" stroke-width="3.0" fill="none" stroke="rgb(0, 0, 0)" stroke-opacity="1.0" stroke-linecap="round" stroke-linejoin="round"/>
    <path d="M 183.7628936767578 98.41036987304688 C 143.89431762695312 88.31542205810547 176.0944366455078 74.38130950927734 193.45379638671875 113.13446807861328" stroke-width="3.0" fill="none" stroke="rgb(0, 0, 0)" stroke-opacity="1.0" stroke-linecap="round" stroke-linejoin="round"/>
    <path d="M 184.91387939453125 60.41188430786133 C 175.14767456054688 116.21278381347656 182.28851318359375 104.2440414428711 180.63323974609375 70.44317626953125" stroke-width="3.0" fill="none" stroke="rgb(0, 0, 0)" stroke-opacity="1.0" stroke-linecap="round" stroke-linejoin="round"/>
    <path d="M 121.04325866699219 103.95806121826172 C 148.3632049560547 116.92237091064453 113.46757507324219 93.88023376464844 136.49734497070312 105.29624938964844" stroke-width="3.0" fill="none" stroke="rgb(0, 0, 0)" stroke-opacity="1.0" stroke-linecap="round" stroke-linejoin="round"/>
    <path d="M 170.4315185546875 93.29142761230469 C 191.14796447753906 88.43931579589844 179.31439208984375 73.26251983642578 158.51719665527344 87.46755981445312" stroke-width="3.0" fill="none" stroke="rgb(0, 0, 0)" stroke-opacity="1.0" stroke-linecap="round" stroke-linejoin="round"/>
    <path d="M 57.94245147705078 184.98294067382812 C 37.04387283325195 157.0756072998047 46.64431381225586 167.35629272460938 49.521949768066406 174.02642822265625" stroke-width="3.0" fill="none" stroke="rgb(0, 0, 0)" stroke-opacity="1.0" stroke-linecap="round" stroke-linejoin="round"/>
    <path d="M 57.05793762207031 182.9814453125 C 92.48787689208984 211.65708923339844 111.12983703613281 195.59214782714844 132.311279296875 181.1102752685547" stroke-width="3.0" fill="none" stroke="rgb(0, 0, 0)" stroke-opacity="1.0" stroke-linecap="round" stroke-linejoin="round"/>
    <path d="M 86.51884460449219 35.371925354003906 C 98.0904541015625 77.23246002197266 83.18411254882812 10.113992691040039 83.53594970703125 60.16124725341797" stroke-width="3.0" fill="none" stroke="rgb(0, 0, 0)" stroke-opacity="1.0" stroke-linecap="round" stroke-linejoin="round"/>
    <path d="M 55.939353942871094 102.68618774414062 C 65.29505157470703 136.99179077148438 96.37345886230469 162.44320678710938 94.71660614013672 148.97125244140625" stroke-width="3.0" fill="none" stroke="rgb(0, 0, 0)" stroke-opacity="1.0" stroke-linecap="round" stroke-linejoin="round"/>
    <path d="M 144.87513732910156 71.18274688720703 C 204.71119689941406 64.48955535888672 189.53414916992188 82.74589538574219 148.78619384765625 85.73453521728516" stroke-width="3.0" fill="none" stroke="rgb(0, 0, 0)" stroke-opacity="1.0" stroke-linecap="round" stroke-linejoin="round"/>
    <path d="M 151.2397003173828 97.38644409179688 C 190.88833618164062 107.91487884521484 178.191650390625 106.53461456298828 195.826171875 112.11302185058594" stroke-width="3.0" fill="none" stroke="rgb(0, 0, 0)" stroke-opacity="1.0" stroke-linecap="round" stroke-linejoin="round"/>
    <path d="M 129.53997802734375 159.85604858398438 C 146.11215209960938 149.56594848632812 124.40731811523438 156.25807189941406 108.22444152832031 157.54928588867188" stroke-width="3.0" fill="none" stroke="rgb(0, 0, 0)" stroke-opacity="1.0" stroke-linecap="round" stroke-linejoin="round"/>
    <path d="M 178.08224487304688 7.978517055511475 C 187.9143524169922 24.834625244140625 174.30575561523438 61.5165901184082 177.3135528564453 49.901065826416016" stroke-width="3.0" fill="none" stroke="rgb(0, 0, 0)" stroke-opacity="1.0" stroke-linecap="round" stroke-linejoin="round"/>
    <path d="M 129.73486328125 30.37474250793457 C 123.4052734375 53.58496856689453 132.5768585205078 33.01618576049805 125.32514190673828 68.61234283447266" stroke-width="3.0" fill="none" stroke="rgb(0, 0, 0)" stroke-opacity="1.0" stroke-linecap="round" stroke-linejoin="round"/>
    <path d="M 87.25215148925781 53.80210876464844 C 80.3143539428711 -9.285650253295898 82.1701889038086 0.5921610593795776 106.25106811523438 42.709625244140625" stroke-width="3.0" fill="none" stroke="rgb(0, 0, 0)" stroke-opacity="1.0" stroke-linecap="round" stroke-linejoin="round"/>
    <path d="M 46.6972541809082 167.39486694335938 C 40.310813903808594 151.3170166015625 36.298282623291016 143.29107666015625 45.25893783569336 167.31011962890625" stroke-width="3.0" fill="none" stroke="rgb(0, 0, 0)" stroke-opacity="1.0" stroke-linecap="round" stroke-linejoin="round"/>
    <path d="M 35.81864929199219 101.09248352050781 C 19.43105125427246 128.87281799316406 38.704750061035156 145.65145874023438 42.38755416870117 155.5438995361328" stroke-width="3.0" fill="none" stroke="rgb(0, 0, 0)" stroke-opacity="1.0" stroke-linecap="round" stroke-linejoin="round"/>
    <path d="M 88.55829620361328 147.57437133789062 C 105.02106475830078 162.63528442382812 108.86835479736328 161.95094299316406 101.3572769165039 155.36378479003906" stroke-width="3.0" fill="none" stroke="rgb(0, 0, 0)" stroke-opacity="1.0" stroke-linecap="round" stroke-linejoin="round"/>
    <path d="M 85.1294937133789 197.4071044921875 C 68.80783081054688 199.6573944091797 49.973724365234375 177.38595581054688 48.20506286621094 171.5154571533203" stroke-width="3.0" fill="none" stroke="rgb(0, 0, 0)" stroke-opacity="1.0" stroke-linecap="round" stroke-linejoin="round"/>
    <path d="M 46.936885833740234 171.4073944091797 C 63.314205169677734 191.12869262695312 42.54812240600586 166.437255859375 40.65044403076172 150.30245971679688" stroke-width="3.0" fill="none" stroke="rgb(0, 0, 0)" stroke-opacity="1.0" stroke-linecap="round" stroke-linejoin="round"/>
    <path d="M 79.51380157470703 53.72542953491211 C 62.48566436767578 58.16460418701172 49.204261779785156 73.3153076171875 32.45650100708008 108.40447998046875" stroke-width="3.0" fill="none" stroke="rgb(0, 0, 0)" stroke-opacity="1.0" stroke-linecap="round" stroke-linejoin="round"/>
    <path d="M 152.54849243164062 140.48638916015625 C 124.39744567871094 160.8389129638672 118.39694213867188 156.09423828125 131.2031707763672 157.48043823242188" stroke-width="3.0" fill="none" stroke="rgb(0, 0, 0)" stroke-opacity="1.0" stroke-linecap="round" stroke-linejoin="round"/>
    <path d="M 141.36915588378906 29.809368133544922 C 147.97036743164062 50.31641387939453 137.32176208496094 47.89647674560547 136.1729736328125 81.11491394042969" stroke-width="3.0" fill="none" stroke="rgb(0, 0, 0)" stroke-opacity="1.0" stroke-linecap="round" stroke-linejoin="round"/>
    <path d="M 146.2362518310547 98.97967529296875 C 130.59580993652344 110.6479263305664 131.4189453125 113.63745880126953 117.8939208984375 104.92374420166016" stroke-width="3.0" fill="none" stroke="rgb(0, 0, 0)" stroke-opacity="1.0" stroke-linecap="round" stroke-linejoin="round"/>
    <path d="M 136.19813537597656 74.03780364990234 C 144.95655822753906 54.296138763427734 130.59381103515625 57.240909576416016 135.95945739746094 78.84908294677734" stroke-width="3.0" fill="none" stroke="rgb(0, 0, 0)" stroke-opacity="1.0" stroke-linecap="round" stroke-linejoin="round"/>
    <path d="M 133.44029235839844 179.42462158203125 C 129.37969970703125 183.9558563232422 138.2407989501953 179.90499877929688 145.32115173339844 147.9212646484375" stroke-width="3.0" fill="none" stroke="rgb(0, 0, 0)" stroke-opacity="1.0" stroke-linecap="round" stroke-linejoin="round"/>
    <path d="M 194.60816955566406 97.17351531982422 C 169.1641845703125 69.34600830078125 161.5572509765625 78.91287994384766 188.6244659423828 90.89434051513672" stroke-width="3.0" fill="none" stroke="rgb(0, 0, 0)" stroke-opacity="1.0" stroke-linecap="round" stroke-linejoin="round"/>
    <path d="M 147.87030029296875 76.73783874511719 C 155.70335388183594 58.375057220458984 190.49234008789062 92.9499282836914 180.36729431152344 66.0428466796875" stroke-width="3.0" fill="none" stroke="rgb(0, 0, 0)" stroke-opacity="1.0" stroke-linecap="round" stroke-linejoin="round"/>
    <path d="M 111.72553253173828 79.42657470703125 C 82.5280990600586 75.44147491455078 142.9160614013672 75.28045654296875 107.8187484741211 82.33807373046875" stroke-width="3.0" fill="none" stroke="rgb(0, 0, 0)" stroke-opacity="1.0" stroke-linecap="round" stroke-linejoin="round"/>
    <path d="M 160.45773315429688 133.137451171875 C 128.52273559570312 168.3965606689453 124.93494415283203 153.8119659423828 106.41749572753906 159.76995849609375" stroke-width="3.0" fill="none" stroke="rgb(0, 0, 0)" stroke-opacity="1.0" stroke-linecap="round" stroke-linejoin="round"/>
    <path d="M 123.6169204711914 90.54329681396484 C 138.7955780029297 103.15398406982422 133.4910888671875 70.53851318359375 127.05350494384766 107.28782653808594" stroke-width="3.0" fill="none" stroke="rgb(0, 0, 0)" stroke-opacity="1.0" stroke-linecap="round" stroke-linejoin="round"/>
    <path d="M 187.5281982421875 112.36016845703125 C 174.89137268066406 85.61009216308594 184.66709899902344 95.19324493408203 141.17247009277344 83.36477661132812" stroke-width="3.0" fill="none" stroke="rgb(0, 0, 0)" stroke-opacity="1.0" stroke-linecap="round" stroke-linejoin="round"/>
    <path d="M 87.36688232421875 10.371539115905762 C 104.70742797851562 11.228287696838379 118.30033874511719 35.2265510559082 122.643310546875 31.49333953857422" stroke-width="3.0" fill="none" stroke="rgb(0, 0, 0)" stroke-opacity="1.0" stroke-linecap="round" stroke-linejoin="round"/>
    <path d="M 64.78703308105469 125.8879623413086 C 67.4206314086914 110.2610092163086 62.081180572509766 127.8651351928711 62.77699279785156 123.04126739501953" stroke-width="3.0" fill="none" stroke="rgb(0, 0, 0)" stroke-opacity="1.0" stroke-linecap="round" stroke-linejoin="round"/>
    <path d="M 135.56236267089844 106.54065704345703 C 122.97288513183594 93.43186950683594 113.95838928222656 113.99388122558594 111.15855407714844 94.5921401977539" stroke-width="3.0" fill="none" stroke="rgb(0, 0, 0)" stroke-opacity="1.0" stroke-linecap="round" stroke-linejoin="round"/>
    <path d="M 32.137451171875 135.18394470214844 C 26.13043212890625 94.57159423828125 39.811988830566406 100.04155731201172 49.91611862182617 79.1162338256836" stroke-width="3.0" fill="none" stroke="rgb(0, 0, 0)" stroke-opacity="1.0" stroke-linecap="round" stroke-linejoin="round"/>
    <path d="M 77.94099426269531 196.17852783203125 C 72.19918060302734 191.7086181640625 67.70890045166016 192.8386993408203 94.3832778930664 198.01577758789062" stroke-width="3.0" fill="none" stroke="rgb(0, 0, 0)" stroke-opacity="1.0" stroke-linecap="round" stroke-linejoin="round"/>
    <path d="M 159.93577575683594 129.17306518554688 C 203.7371826171875 121.76583862304688 176.07083129882812 99.34427642822266 156.00140380859375 92.4728012084961" stroke-width="3.0" fill="none" stroke="rgb(0, 0, 0)" stroke-opacity="1.0" stroke-linecap="round" stroke-linejoin="round"/>
    <path d="M 157.73858642578125 70.00440216064453 C 133.3393096923828 85.82771301269531 171.12075805664062 77.3542251586914 147.6414794921875 68.37877655029297" stroke-width="3.0" fill="none" stroke="rgb(0, 0, 0)" stroke-opacity="1.0" stroke-linecap="round" stroke-linejoin="round"/>
    <path d="M 141.99392700195312 78.20286560058594 C 146.84719848632812 42.53020477294922 194.57594299316406 111.55074310302734 178.95916748046875 44.09756088256836" stroke-width="3.0" fill="none" stroke="rgb(0, 0, 0)" stroke-opacity="1.0" stroke-linecap="round" stroke-linejoin="round"/>
    <path d="M 160.22647094726562 99.96070098876953 C 169.21534729003906 109.05770111083984 170.40365600585938 102.7705307006836 181.5513916015625 121.55973815917969" stroke-width="3.0" fill="none" stroke="rgb(0, 0, 0)" stroke-opacity="1.0" stroke-linecap="round" stroke-linejoin="round"/>
    <path d="M 176.62869262695312 17.75946617126465 C 167.1663055419922 40.94057083129883 176.33544921875 18.488357543945312 162.04324340820312 35.075138092041016" stroke-width="3.0" fill="none" stroke="rgb(0, 0, 0)" stroke-opacity="1.0" stroke-linecap="round" stroke-linejoin="round"/>
    <path d="M 116.27418518066406 104.20240020751953 C 144.31419372558594 101.10021209716797 136.1190948486328 112.11988067626953 119.2722396850586 102.99991607666016" stroke-width="3.0" fill="none" stroke="rgb(0, 0, 0)" stroke-opacity="1.0" stroke-linecap="round" stroke-linejoin="round"/>
    <path d="M 79.38815307617188 137.97897338867188 C 52.582374572753906 119.87417602539062 61.32571792602539 112.10618591308594 61.8590202331543 121.83565521240234" stroke-width="3.0" fill="none" stroke="rgb(0, 0, 0)" stroke-opacity="1.0" stroke-linecap="round" stroke-linejoin="round"/>
    <path d="M 123.59845733642578 76.61814880371094 C 126.26885986328125 39.90552520751953 120.05938720703125 56.87276077270508 118.95358276367188 36.57249450683594" stroke-width="3.0" fill="none" stroke="rgb(0, 0, 0)" stroke-opacity="1.0" stroke-linecap="round" stroke-linejoin="round"/>
    <path d="M 152.2533721923828 26.23979949951172 C 146.36204528808594 37.587913513183594 160.12017822265625 11.222543716430664 178.600341796875 7.861493110656738" stroke-width="3.0" fill="none" stroke="rgb(0, 0, 0)" stroke-opacity="1.0" stroke-linecap="round" stroke-linejoin="round"/>
  </g>
</svg>
