<?xml version="1.0" ?>
<svg xmlns="http://www.w3.org/2000/svg" version="1.1" width="224" height="224">
  <defs/>
  <g>
    <path d="M 58.83881378173828 100.1500244140625 C 68.5346450805664 96.3869400024414 54.14776611328125 89.43289184570312 64.85384368896484 65.3908920288086" stroke-width="3.0" fill="none" stroke="rgb(0, 0, 0)" stroke-opacity="1.0" stroke-linecap="round" stroke-linejoin="round"/>
    <path d="M 195.86056518554688 115.061767578125 C 186.19615173339844 110.81006622314453 188.0519561767578 98.9037094116211 182.87083435058594 124.89869689941406" stroke-width="3.0" fill="none" stroke="rgb(0, 0, 0)" stroke-opacity="1.0" stroke-linecap="round" stroke-linejoin="round"/>
    <path d="M 61.74905776977539 121.8990478515625 C 60.32071304321289 84.13802337646484 60.1317024230957 117.1585464477539 63.96242141723633 124.55630493164062" stroke-width="3.0" fill="none" stroke="rgb(0, 0, 0)" stroke-opacity="1.0" stroke-linecap="round" stroke-linejoin="round"/>
    <path d="M 188.42324829101562 95.24341583251953 C 143.60838317871094 75.73306274414062 189.20277404785156 76.29061889648438 190.57203674316406 101.95550537109375" stroke-width="3.0" fill="none" stroke="rgb(0, 0, 0)" stroke-opacity="1.0" stroke-linecap="round" stroke-linejoin="round"/>
    <path d="M 177.39764404296875 43.74894332885742 C 195.77488708496094 92.71549987792969 176.6950225830078 109.66081237792969 181.2881622314453 69.03882598876953" stroke-width="3.0" fill="none" stroke="rgb(0, 0, 0)" stroke-opacity="1.0" stroke-linecap="round" stroke-linejoin="round"/>
    <path d="M 128.39598083496094 100.97415924072266 C 147.2761688232422 117.74127960205078 93.01887512207031 103.29182434082031 135.68251037597656 101.61727905273438" stroke-width="3.0" fill="none" stroke="rgb(0, 0, 0)" stroke-opacity="1.0" stroke-linecap="round" stroke-linejoin="round"/>
    <path d="M 183.47315979003906 82.95686340332031 C 178.9767303466797 78.51240539550781 198.58480834960938 74.12326049804688 150.2560577392578 84.25521850585938" stroke-width="3.0" fill="none" stroke="rgb(0, 0, 0)" stroke-opacity="1.0" stroke-linecap="round" stroke-linejoin="round"/>
    <path d="M 65.65148162841797 190.15512084960938 C 41.115753173828125 168.09263610839844 50.560428619384766 166.01687622070312 48.360260009765625 170.6327667236328" stroke-width="3.0" fill="none" stroke="rgb(0, 0, 0)" stroke-opacity="1.0" stroke-linecap="round" stroke-linejoin="round"/>
    <path d="M 59.19160079956055 185.60943603515625 C 84.42955017089844 209.9609375 133.96710205078125 195.69912719726562 134.0222930908203 164.6881561279297" stroke-width="3.0" fill="none" stroke="rgb(0, 0, 0)" stroke-opacity="1.0" stroke-linecap="round" stroke-linejoin="round"/>
    <path d="M 82.00426483154297 13.947297096252441 C 95.73019409179688 79.93231964111328 87.65393829345703 8.671637535095215 84.07658386230469 56.98028564453125" stroke-width="3.0" fill="none" stroke="rgb(0, 0, 0)" stroke-opacity="1.0" stroke-linecap="round" stroke-linejoin="round"/>
    <path d="M 60.25581741333008 87.28352355957031 C 54.131526947021484 139.0846405029297 73.81310272216797 134.10989379882812 62.31996154785156 120.51622009277344" stroke-width="3.0" fill="none" stroke="rgb(0, 0, 0)" stroke-opacity="1.0" stroke-linecap="round" stroke-linejoin="round"/>
    <path d="M 146.22039794921875 72.53910827636719 C 198.72119140625 59.59944534301758 192.408935546875 86.0721435546875 140.13079833984375 85.17233276367188" stroke-width="3.0" fill="none" stroke="rgb(0, 0, 0)" stroke-opacity="1.0" stroke-linecap="round" stroke-linejoin="round"/>
    <path d="M 148.0690460205078 96.2420883178711 C 179.40040588378906 98.24960327148438 181.2490692138672 96.80165100097656 194.45440673828125 114.34791564941406" stroke-width="3.0" fill="none" stroke="rgb(0, 0, 0)" stroke-opacity="1.0" stroke-linecap="round" stroke-linejoin="round"/>
    <path d="M 120.37024688720703 149.4684600830078 C 161.42294311523438 158.65628051757812 110.10734558105469 141.5615692138672 103.84341430664062 154.75730895996094" stroke-width="3.0" fill="none" stroke="rgb(0, 0, 0)" stroke-opacity="1.0" stroke-linecap="round" stroke-linejoin="round"/>
    <path d="M 177.54385375976562 7.699665546417236 C 188.29861450195312 23.658363342285156 168.2775421142578 94.30303955078125 178.90972900390625 47.71552276611328" stroke-width="3.0" fill="none" stroke="rgb(0, 0, 0)" stroke-opacity="1.0" stroke-linecap="round" stroke-linejoin="round"/>
    <path d="M 140.5000457763672 32.9916877746582 C 112.00726318359375 23.848711013793945 137.66400146484375 39.865718841552734 129.16944885253906 73.98302459716797" stroke-width="3.0" fill="none" stroke="rgb(0, 0, 0)" stroke-opacity="1.0" stroke-linecap="round" stroke-linejoin="round"/>
    <path d="M 107.15475463867188 43.79581069946289 C 61.1953125 -8.148822784423828 81.28102111816406 1.29939603805542 117.50775909423828 30.495969772338867" stroke-width="3.0" fill="none" stroke="rgb(0, 0, 0)" stroke-opacity="1.0" stroke-linecap="round" stroke-linejoin="round"/>
    <path d="M 45.913612365722656 168.35122680664062 C 44.54970169067383 157.7288360595703 43.725643157958984 150.53663635253906 46.15937042236328 170.70555114746094" stroke-width="3.0" fill="none" stroke="rgb(0, 0, 0)" stroke-opacity="1.0" stroke-linecap="round" stroke-linejoin="round"/>
    <path d="M 55.614707946777344 79.2320785522461 C 24.153892517089844 134.5126953125 44.026702880859375 135.57687377929688 46.99519348144531 162.8641357421875" stroke-width="3.0" fill="none" stroke="rgb(0, 0, 0)" stroke-opacity="1.0" stroke-linecap="round" stroke-linejoin="round"/>
    <path d="M 71.46379852294922 138.7274627685547 C 134.1336212158203 159.62002563476562 98.28408813476562 150.13131713867188 87.42914581298828 146.74513244628906" stroke-width="3.0" fill="none" stroke="rgb(0, 0, 0)" stroke-opacity="1.0" stroke-linecap="round" stroke-linejoin="round"/>
    <path d="M 87.86177062988281 198.22840881347656 C 65.93798065185547 197.33750915527344 47.16459274291992 177.3607635498047 45.894771575927734 165.84718322753906" stroke-width="3.0" fill="none" stroke="rgb(0, 0, 0)" stroke-opacity="1.0" stroke-linecap="round" stroke-linejoin="round"/>
    <path d="M 49.19407653808594 174.0574188232422 C 67.93019104003906 199.60108947753906 46.31483459472656 175.38967895507812 39.90998840332031 148.12123107910156" stroke-width="3.0" fill="none" stroke="rgb(0, 0, 0)" stroke-opacity="1.0" stroke-linecap="round" stroke-linejoin="round"/>
    <path d="M 84.01111602783203 62.5977668762207 C 57.67930221557617 60.22929763793945 53.53715515136719 73.92938995361328 42.14041519165039 111.2562255859375" stroke-width="3.0" fill="none" stroke="rgb(0, 0, 0)" stroke-opacity="1.0" stroke-linecap="round" stroke-linejoin="round"/>
    <path d="M 157.7129364013672 141.07235717773438 C 105.7782974243164 157.85574340820312 85.98192596435547 157.17359924316406 141.6917724609375 150.88169860839844" stroke-width="3.0" fill="none" stroke="rgb(0, 0, 0)" stroke-opacity="1.0" stroke-linecap="round" stroke-linejoin="round"/>
    <path d="M 150.66189575195312 26.878908157348633 C 147.58604431152344 30.878711700439453 136.13870239257812 16.723953247070312 140.9578094482422 76.63661193847656" stroke-width="3.0" fill="none" stroke="rgb(0, 0, 0)" stroke-opacity="1.0" stroke-linecap="round" stroke-linejoin="round"/>
    <path d="M 144.6187286376953 100.17047882080078 C 123.92720031738281 111.67927551269531 119.18452453613281 105.48218536376953 115.82009887695312 94.07998657226562" stroke-width="3.0" fill="none" stroke="rgb(0, 0, 0)" stroke-opacity="1.0" stroke-linecap="round" stroke-linejoin="round"/>
    <path d="M 137.01902770996094 69.80811309814453 C 145.5771026611328 54.05891418457031 128.7230224609375 63.32933807373047 137.9996795654297 81.79422760009766" stroke-width="3.0" fill="none" stroke="rgb(0, 0, 0)" stroke-opacity="1.0" stroke-linecap="round" stroke-linejoin="round"/>
    <path d="M 138.55873107910156 160.40489196777344 C 127.24503326416016 173.22305297851562 143.21603393554688 166.20672607421875 145.25225830078125 147.002197265625" stroke-width="3.0" fill="none" stroke="rgb(0, 0, 0)" stroke-opacity="1.0" stroke-linecap="round" stroke-linejoin="round"/>
    <path d="M 195.03524780273438 95.24443054199219 C 173.76535034179688 60.78792953491211 175.50282287597656 70.8423080444336 187.41448974609375 90.38422393798828" stroke-width="3.0" fill="none" stroke="rgb(0, 0, 0)" stroke-opacity="1.0" stroke-linecap="round" stroke-linejoin="round"/>
    <path d="M 150.26014709472656 78.4725570678711 C 126.715087890625 54.21059799194336 209.4805145263672 89.61769104003906 175.33631896972656 62.23398971557617" stroke-width="3.0" fill="none" stroke="rgb(0, 0, 0)" stroke-opacity="1.0" stroke-linecap="round" stroke-linejoin="round"/>
    <path d="M 113.821533203125 75.43090057373047 C 78.6950454711914 67.26551818847656 138.4180450439453 69.1328125 108.5548324584961 72.260498046875" stroke-width="3.0" fill="none" stroke="rgb(0, 0, 0)" stroke-opacity="1.0" stroke-linecap="round" stroke-linejoin="round"/>
    <path d="M 165.3310089111328 131.72715759277344 C 148.36187744140625 160.54798889160156 104.6746597290039 148.76153564453125 94.96723175048828 151.92066955566406" stroke-width="3.0" fill="none" stroke="rgb(0, 0, 0)" stroke-opacity="1.0" stroke-linecap="round" stroke-linejoin="round"/>
    <path d="M 121.31793975830078 90.65408325195312 C 142.75119018554688 96.7430419921875 126.05438232421875 66.8870849609375 129.4374237060547 105.04021453857422" stroke-width="3.0" fill="none" stroke="rgb(0, 0, 0)" stroke-opacity="1.0" stroke-linecap="round" stroke-linejoin="round"/>
    <path d="M 188.845458984375 115.64237976074219 C 164.19894409179688 86.06925201416016 171.97140502929688 100.1259994506836 147.3162078857422 84.95661163330078" stroke-width="3.0" fill="none" stroke="rgb(0, 0, 0)" stroke-opacity="1.0" stroke-linecap="round" stroke-linejoin="round"/>
    <path d="M 95.07648468017578 26.577594757080078 C 126.31295776367188 28.022838592529297 87.58137512207031 32.611328125 144.0653076171875 28.858505249023438" stroke-width="3.0" fill="none" stroke="rgb(0, 0, 0)" stroke-opacity="1.0" stroke-linecap="round" stroke-linejoin="round"/>
    <path d="M 60.97517395019531 116.8514175415039 C 60.96165084838867 109.51742553710938 50.66877746582031 125.86219024658203 72.2810287475586 138.44216918945312" stroke-width="3.0" fill="none" stroke="rgb(0, 0, 0)" stroke-opacity="1.0" stroke-linecap="round" stroke-linejoin="round"/>
    <path d="M 135.31715393066406 102.32252502441406 C 120.50320434570312 92.47493743896484 126.82185363769531 115.92090606689453 110.24093627929688 85.99319458007812" stroke-width="3.0" fill="none" stroke="rgb(0, 0, 0)" stroke-opacity="1.0" stroke-linecap="round" stroke-linejoin="round"/>
    <path d="M 39.890228271484375 147.62973022460938 C 27.009920120239258 123.00505828857422 34.81793975830078 85.0407943725586 60.707130432128906 69.87109375" stroke-width="3.0" fill="none" stroke="rgb(0, 0, 0)" stroke-opacity="1.0" stroke-linecap="round" stroke-linejoin="round"/>
    <path d="M 103.58744812011719 196.67161560058594 C 79.60840606689453 199.2900848388672 71.8516845703125 197.5178985595703 108.1191635131836 196.21859741210938" stroke-width="3.0" fill="none" stroke="rgb(0, 0, 0)" stroke-opacity="1.0" stroke-linecap="round" stroke-linejoin="round"/>
    <path d="M 167.60670471191406 128.24217224121094 C 200.11492919921875 123.03510284423828 187.12872314453125 84.28556060791016 155.58311462402344 85.0672836303711" stroke-width="3.0" fill="none" stroke="rgb(0, 0, 0)" stroke-opacity="1.0" stroke-linecap="round" stroke-linejoin="round"/>
    <path d="M 156.22714233398438 73.16952514648438 C 132.78469848632812 87.18329620361328 170.4828338623047 75.97884368896484 148.82803344726562 72.31849670410156" stroke-width="3.0" fill="none" stroke="rgb(0, 0, 0)" stroke-opacity="1.0" stroke-linecap="round" stroke-linejoin="round"/>
    <path d="M 137.6941375732422 74.28282928466797 C 138.69644165039062 39.03627014160156 203.87110900878906 110.99945068359375 173.22201538085938 46.21802520751953" stroke-width="3.0" fill="none" stroke="rgb(0, 0, 0)" stroke-opacity="1.0" stroke-linecap="round" stroke-linejoin="round"/>
    <path d="M 154.3571014404297 97.4819564819336 C 175.50680541992188 108.9365234375 172.53872680664062 102.98382568359375 183.81346130371094 122.75255584716797" stroke-width="3.0" fill="none" stroke="rgb(0, 0, 0)" stroke-opacity="1.0" stroke-linecap="round" stroke-linejoin="round"/>
    <path d="M 180.75222778320312 16.150516510009766 C 169.98507690429688 45.68132781982422 177.7868194580078 24.697275161743164 166.5910186767578 38.563934326171875" stroke-width="3.0" fill="none" stroke="rgb(0, 0, 0)" stroke-opacity="1.0" stroke-linecap="round" stroke-linejoin="round"/>
    <path d="M 121.96018981933594 105.64263916015625 C 143.47311401367188 100.6993408203125 130.35345458984375 116.1587905883789 121.19702911376953 102.93475341796875" stroke-width="3.0" fill="none" stroke="rgb(0, 0, 0)" stroke-opacity="1.0" stroke-linecap="round" stroke-linejoin="round"/>
    <path d="M 61.416893005371094 115.051025390625 C 57.67012023925781 109.52415466308594 61.45043182373047 109.4890365600586 61.663414001464844 118.4399185180664" stroke-width="3.0" fill="none" stroke="rgb(0, 0, 0)" stroke-opacity="1.0" stroke-linecap="round" stroke-linejoin="round"/>
    <path d="M 123.35340881347656 68.96922302246094 C 120.3351821899414 38.51841735839844 112.71581268310547 54.195804595947266 115.58092498779297 30.571561813354492" stroke-width="3.0" fill="none" stroke="rgb(0, 0, 0)" stroke-opacity="1.0" stroke-linecap="round" stroke-linejoin="round"/>
    <path d="M 149.33828735351562 29.443859100341797 C 145.14234924316406 36.10124969482422 162.45599365234375 8.879555702209473 178.5480499267578 9.130105018615723" stroke-width="3.0" fill="none" stroke="rgb(0, 0, 0)" stroke-opacity="1.0" stroke-linecap="round" stroke-linejoin="round"/>
  </g>
</svg>
