<?xml version="1.0" ?>
<svg xmlns="http://www.w3.org/2000/svg" version="1.1" width="224" height="224">
  <defs/>
  <g>
    <path d="M 58.31821823120117 96.30972290039062 C 64.76390838623047 84.67837524414062 56.020973205566406 83.93734741210938 73.02206420898438 58.017948150634766" stroke-width="3.0" fill="none" stroke="rgb(0, 0, 0)" stroke-opacity="1.0" stroke-linecap="round" stroke-linejoin="round"/>
    <path d="M 195.8509063720703 115.08196258544922 C 183.879150390625 101.20626068115234 186.7151336669922 97.61753845214844 177.54400634765625 128.19149780273438" stroke-width="3.0" fill="none" stroke="rgb(0, 0, 0)" stroke-opacity="1.0" stroke-linecap="round" stroke-linejoin="round"/>
    <path d="M 60.753501892089844 119.01236724853516 C 54.24256896972656 87.5618896484375 64.56095123291016 121.89019775390625 66.05254364013672 117.48513793945312" stroke-width="3.0" fill="none" stroke="rgb(0, 0, 0)" stroke-opacity="1.0" stroke-linecap="round" stroke-linejoin="round"/>
    <path d="M 185.01846313476562 94.26301574707031 C 154.14149475097656 69.64067840576172 181.46697998046875 75.02095794677734 188.563720703125 98.17586517333984" stroke-width="3.0" fill="none" stroke="rgb(0, 0, 0)" stroke-opacity="1.0" stroke-linecap="round" stroke-linejoin="round"/>
    <path d="M 177.6631317138672 44.618011474609375 C 195.90359497070312 96.8104476928711 179.683349609375 106.69868469238281 180.26614379882812 56.647300720214844" stroke-width="3.0" fill="none" stroke="rgb(0, 0, 0)" stroke-opacity="1.0" stroke-linecap="round" stroke-linejoin="round"/>
    <path d="M 128.0912628173828 98.50218200683594 C 154.24681091308594 113.62290954589844 104.01029968261719 99.05128479003906 135.83102416992188 105.7237777709961" stroke-width="3.0" fill="none" stroke="rgb(0, 0, 0)" stroke-opacity="1.0" stroke-linecap="round" stroke-linejoin="round"/>
    <path d="M 187.02879333496094 88.39201354980469 C 170.9625244140625 88.42200469970703 185.4090118408203 72.5741195678711 154.15830993652344 88.20834350585938" stroke-width="3.0" fill="none" stroke="rgb(0, 0, 0)" stroke-opacity="1.0" stroke-linecap="round" stroke-linejoin="round"/>
    <path d="M 64.73197937011719 193.1112823486328 C 41.567867279052734 169.1655731201172 45.71001434326172 169.68814086914062 62.01933288574219 188.4777069091797" stroke-width="3.0" fill="none" stroke="rgb(0, 0, 0)" stroke-opacity="1.0" stroke-linecap="round" stroke-linejoin="round"/>
    <path d="M 56.52029037475586 185.0659942626953 C 82.05533599853516 213.8646240234375 135.43064880371094 196.38137817382812 140.00001525878906 163.62583923339844" stroke-width="3.0" fill="none" stroke="rgb(0, 0, 0)" stroke-opacity="1.0" stroke-linecap="round" stroke-linejoin="round"/>
    <path d="M 82.08922576904297 11.525632858276367 C 91.76375579833984 77.67793273925781 89.11079406738281 7.318542003631592 86.29542541503906 50.1502799987793" stroke-width="3.0" fill="none" stroke="rgb(0, 0, 0)" stroke-opacity="1.0" stroke-linecap="round" stroke-linejoin="round"/>
    <path d="M 62.42576599121094 91.78166198730469 C 50.589481353759766 129.6033477783203 76.63847351074219 132.47067260742188 61.93560791015625 118.33904266357422" stroke-width="3.0" fill="none" stroke="rgb(0, 0, 0)" stroke-opacity="1.0" stroke-linecap="round" stroke-linejoin="round"/>
    <path d="M 144.96009826660156 72.76909637451172 C 194.81517028808594 63.90978240966797 204.5688018798828 85.16068267822266 140.60194396972656 87.41126251220703" stroke-width="3.0" fill="none" stroke="rgb(0, 0, 0)" stroke-opacity="1.0" stroke-linecap="round" stroke-linejoin="round"/>
    <path d="M 150.51707458496094 95.45588684082031 C 189.35684204101562 98.11172485351562 176.53155517578125 99.32218170166016 194.4852294921875 111.89789581298828" stroke-width="3.0" fill="none" stroke="rgb(0, 0, 0)" stroke-opacity="1.0" stroke-linecap="round" stroke-linejoin="round"/>
    <path d="M 130.81410217285156 151.3485107421875 C 169.9796905517578 158.8369140625 97.4051284790039 146.1819610595703 100.60555267333984 154.26690673828125" stroke-width="3.0" fill="none" stroke="rgb(0, 0, 0)" stroke-opacity="1.0" stroke-linecap="round" stroke-linejoin="round"/>
    <path d="M 178.69647216796875 6.08868932723999 C 189.59747314453125 18.481122970581055 171.7584991455078 100.34408569335938 184.60707092285156 64.62318420410156" stroke-width="3.0" fill="none" stroke="rgb(0, 0, 0)" stroke-opacity="1.0" stroke-linecap="round" stroke-linejoin="round"/>
    <path d="M 147.39442443847656 29.6958065032959 C 108.71776580810547 27.764585494995117 133.79946899414062 22.448974609375 130.76756286621094 63.22537612915039" stroke-width="3.0" fill="none" stroke="rgb(0, 0, 0)" stroke-opacity="1.0" stroke-linecap="round" stroke-linejoin="round"/>
    <path d="M 102.96846008300781 52.03618240356445 C 64.84789276123047 -8.198899269104004 83.97445678710938 2.6857850551605225 121.15974426269531 30.82921600341797" stroke-width="3.0" fill="none" stroke="rgb(0, 0, 0)" stroke-opacity="1.0" stroke-linecap="round" stroke-linejoin="round"/>
    <path d="M 42.96486282348633 160.26161193847656 C 45.68061447143555 156.8665771484375 43.1135368347168 152.20716857910156 51.33427810668945 178.5827178955078" stroke-width="3.0" fill="none" stroke="rgb(0, 0, 0)" stroke-opacity="1.0" stroke-linecap="round" stroke-linejoin="round"/>
    <path d="M 62.27406311035156 68.7936782836914 C 21.827800750732422 119.96817779541016 41.66640853881836 142.7666015625 45.487884521484375 162.98085021972656" stroke-width="3.0" fill="none" stroke="rgb(0, 0, 0)" stroke-opacity="1.0" stroke-linecap="round" stroke-linejoin="round"/>
    <path d="M 70.70579528808594 135.4813232421875 C 137.7209930419922 167.30865478515625 108.03366088867188 150.3736114501953 87.90718078613281 143.5862274169922" stroke-width="3.0" fill="none" stroke="rgb(0, 0, 0)" stroke-opacity="1.0" stroke-linecap="round" stroke-linejoin="round"/>
    <path d="M 87.0474853515625 199.5438232421875 C 66.85689544677734 197.4960479736328 45.647193908691406 176.58200073242188 41.250370025634766 151.3632049560547" stroke-width="3.0" fill="none" stroke="rgb(0, 0, 0)" stroke-opacity="1.0" stroke-linecap="round" stroke-linejoin="round"/>
    <path d="M 48.43092346191406 174.09146118164062 C 70.7236099243164 198.26600646972656 48.80170440673828 174.1104736328125 39.170875549316406 147.0939483642578" stroke-width="3.0" fill="none" stroke="rgb(0, 0, 0)" stroke-opacity="1.0" stroke-linecap="round" stroke-linejoin="round"/>
    <path d="M 83.81063842773438 55.55684280395508 C 60.234928131103516 56.151676177978516 63.53926086425781 67.50110626220703 39.53608703613281 114.39239501953125" stroke-width="3.0" fill="none" stroke="rgb(0, 0, 0)" stroke-opacity="1.0" stroke-linecap="round" stroke-linejoin="round"/>
    <path d="M 147.8160400390625 143.84454345703125 C 112.05461120605469 162.2452850341797 70.5415267944336 147.86099243164062 143.91256713867188 149.959228515625" stroke-width="3.0" fill="none" stroke="rgb(0, 0, 0)" stroke-opacity="1.0" stroke-linecap="round" stroke-linejoin="round"/>
    <path d="M 148.8706817626953 28.041461944580078 C 140.9939727783203 34.17055130004883 137.29591369628906 8.589595794677734 137.0731658935547 77.87594604492188" stroke-width="3.0" fill="none" stroke="rgb(0, 0, 0)" stroke-opacity="1.0" stroke-linecap="round" stroke-linejoin="round"/>
    <path d="M 145.80950927734375 101.01941680908203 C 128.61973571777344 112.9257583618164 121.09327697753906 107.02986145019531 115.8682632446289 99.94481658935547" stroke-width="3.0" fill="none" stroke="rgb(0, 0, 0)" stroke-opacity="1.0" stroke-linecap="round" stroke-linejoin="round"/>
    <path d="M 136.0543212890625 73.23991394042969 C 140.2041015625 50.76200485229492 133.60546875 66.9420166015625 134.60189819335938 70.990478515625" stroke-width="3.0" fill="none" stroke="rgb(0, 0, 0)" stroke-opacity="1.0" stroke-linecap="round" stroke-linejoin="round"/>
    <path d="M 137.4989013671875 165.0872802734375 C 132.85569763183594 168.0470428466797 144.3529510498047 164.58494567871094 146.80917358398438 147.61573791503906" stroke-width="3.0" fill="none" stroke="rgb(0, 0, 0)" stroke-opacity="1.0" stroke-linecap="round" stroke-linejoin="round"/>
    <path d="M 194.8499298095703 94.64439392089844 C 161.83274841308594 67.42440795898438 184.88522338867188 62.09796142578125 185.4662628173828 97.15689086914062" stroke-width="3.0" fill="none" stroke="rgb(0, 0, 0)" stroke-opacity="1.0" stroke-linecap="round" stroke-linejoin="round"/>
    <path d="M 152.9185791015625 79.44483184814453 C 122.88592529296875 54.42098617553711 210.98269653320312 85.5667953491211 180.16595458984375 63.836944580078125" stroke-width="3.0" fill="none" stroke="rgb(0, 0, 0)" stroke-opacity="1.0" stroke-linecap="round" stroke-linejoin="round"/>
    <path d="M 113.99603271484375 81.7092514038086 C 89.81685638427734 70.4322509765625 133.32752990722656 75.781982421875 111.42538452148438 80.97032928466797" stroke-width="3.0" fill="none" stroke="rgb(0, 0, 0)" stroke-opacity="1.0" stroke-linecap="round" stroke-linejoin="round"/>
    <path d="M 168.44053649902344 130.7877655029297 C 158.4720916748047 156.8404541015625 89.0446548461914 152.0887908935547 93.95758819580078 148.8277587890625" stroke-width="3.0" fill="none" stroke="rgb(0, 0, 0)" stroke-opacity="1.0" stroke-linecap="round" stroke-linejoin="round"/>
    <path d="M 123.98155975341797 89.92631530761719 C 142.66751098632812 97.50760650634766 130.22789001464844 72.29861450195312 129.6693572998047 104.70355987548828" stroke-width="3.0" fill="none" stroke="rgb(0, 0, 0)" stroke-opacity="1.0" stroke-linecap="round" stroke-linejoin="round"/>
    <path d="M 185.9921112060547 116.7778549194336 C 168.74038696289062 85.48251342773438 170.70310974121094 95.8842544555664 142.6491241455078 84.5762939453125" stroke-width="3.0" fill="none" stroke="rgb(0, 0, 0)" stroke-opacity="1.0" stroke-linecap="round" stroke-linejoin="round"/>
    <path d="M 90.4316177368164 20.803428649902344 C 124.59226989746094 28.062501907348633 82.320068359375 32.153770446777344 149.6441192626953 27.017635345458984" stroke-width="3.0" fill="none" stroke="rgb(0, 0, 0)" stroke-opacity="1.0" stroke-linecap="round" stroke-linejoin="round"/>
    <path d="M 58.866004943847656 109.3033447265625 C 61.53733825683594 98.9870376586914 55.02397155761719 114.46289825439453 71.26538848876953 134.33876037597656" stroke-width="3.0" fill="none" stroke="rgb(0, 0, 0)" stroke-opacity="1.0" stroke-linecap="round" stroke-linejoin="round"/>
    <path d="M 134.31825256347656 107.08790588378906 C 125.53327178955078 86.58413696289062 120.14202117919922 121.53653717041016 113.26908874511719 87.55846405029297" stroke-width="3.0" fill="none" stroke="rgb(0, 0, 0)" stroke-opacity="1.0" stroke-linecap="round" stroke-linejoin="round"/>
    <path d="M 39.624267578125 147.79165649414062 C 21.937726974487305 123.42559051513672 40.770484924316406 74.22996520996094 66.63821411132812 59.16863250732422" stroke-width="3.0" fill="none" stroke="rgb(0, 0, 0)" stroke-opacity="1.0" stroke-linecap="round" stroke-linejoin="round"/>
    <path d="M 93.77469635009766 197.95274353027344 C 80.87883758544922 201.8844451904297 73.55876922607422 198.34744262695312 103.93157958984375 198.22325134277344" stroke-width="3.0" fill="none" stroke="rgb(0, 0, 0)" stroke-opacity="1.0" stroke-linecap="round" stroke-linejoin="round"/>
    <path d="M 171.69354248046875 129.49903869628906 C 194.85574340820312 109.6440200805664 191.9095916748047 87.77339172363281 151.2288360595703 90.05278015136719" stroke-width="3.0" fill="none" stroke="rgb(0, 0, 0)" stroke-opacity="1.0" stroke-linecap="round" stroke-linejoin="round"/>
    <path d="M 160.08787536621094 70.14618682861328 C 129.98141479492188 80.7056884765625 166.35659790039062 84.4720230102539 152.280029296875 69.59600067138672" stroke-width="3.0" fill="none" stroke="rgb(0, 0, 0)" stroke-opacity="1.0" stroke-linecap="round" stroke-linejoin="round"/>
    <path d="M 141.0486297607422 81.9206314086914 C 142.42466735839844 35.36930465698242 203.1169891357422 112.26325225830078 179.2235870361328 47.05023956298828" stroke-width="3.0" fill="none" stroke="rgb(0, 0, 0)" stroke-opacity="1.0" stroke-linecap="round" stroke-linejoin="round"/>
    <path d="M 156.7168731689453 97.30850982666016 C 174.9807891845703 105.71244049072266 180.1153106689453 103.90369415283203 183.68641662597656 125.883544921875" stroke-width="3.0" fill="none" stroke="rgb(0, 0, 0)" stroke-opacity="1.0" stroke-linecap="round" stroke-linejoin="round"/>
    <path d="M 178.08531188964844 13.631550788879395 C 173.65037536621094 45.28818893432617 173.6725311279297 20.24614143371582 163.0732879638672 40.52775955200195" stroke-width="3.0" fill="none" stroke="rgb(0, 0, 0)" stroke-opacity="1.0" stroke-linecap="round" stroke-linejoin="round"/>
    <path d="M 124.47982788085938 101.82332611083984 C 144.9862518310547 99.17610168457031 130.76669311523438 110.67285919189453 127.58329772949219 100.70537567138672" stroke-width="3.0" fill="none" stroke="rgb(0, 0, 0)" stroke-opacity="1.0" stroke-linecap="round" stroke-linejoin="round"/>
    <path d="M 63.22755432128906 95.27369689941406 C 54.61374282836914 103.58837890625 58.02091598510742 112.89641571044922 59.21994400024414 107.78184509277344" stroke-width="3.0" fill="none" stroke="rgb(0, 0, 0)" stroke-opacity="1.0" stroke-linecap="round" stroke-linejoin="round"/>
    <path d="M 121.39739227294922 74.90677642822266 C 125.59813690185547 43.90175247192383 117.51040649414062 56.22602462768555 119.40135192871094 35.51708221435547" stroke-width="3.0" fill="none" stroke="rgb(0, 0, 0)" stroke-opacity="1.0" stroke-linecap="round" stroke-linejoin="round"/>
    <path d="M 144.16098022460938 31.43437957763672 C 143.84730529785156 39.6583251953125 160.3911590576172 8.164423942565918 174.90054321289062 7.892139911651611" stroke-width="3.0" fill="none" stroke="rgb(0, 0, 0)" stroke-opacity="1.0" stroke-linecap="round" stroke-linejoin="round"/>
  </g>
</svg>
