<?xml version="1.0" ?>
<svg xmlns="http://www.w3.org/2000/svg" version="1.1" width="224" height="224">
  <defs/>
  <g>
    <path d="M 54.18901062011719 119.86223602294922 C 55.16930389404297 119.65252685546875 46.69422912597656 110.28346252441406 42.89474868774414 95.01446533203125" stroke-width="3.0" fill="none" stroke="rgb(0, 0, 0)" stroke-opacity="1.0" stroke-linecap="round" stroke-linejoin="round"/>
    <path d="M 182.1575164794922 124.99845886230469 C 185.93795776367188 108.72368621826172 185.6904754638672 115.0466079711914 187.74859619140625 119.94100189208984" stroke-width="3.0" fill="none" stroke="rgb(0, 0, 0)" stroke-opacity="1.0" stroke-linecap="round" stroke-linejoin="round"/>
    <path d="M 49.52545928955078 109.66119384765625 C 51.73201370239258 112.52841186523438 47.501739501953125 107.53569030761719 51.23506546020508 111.48706817626953" stroke-width="3.0" fill="none" stroke="rgb(0, 0, 0)" stroke-opacity="1.0" stroke-linecap="round" stroke-linejoin="round"/>
    <path d="M 184.50303649902344 97.1834487915039 C 154.84706115722656 98.09668731689453 174.20713806152344 83.1962890625 195.73532104492188 113.51567077636719" stroke-width="3.0" fill="none" stroke="rgb(0, 0, 0)" stroke-opacity="1.0" stroke-linecap="round" stroke-linejoin="round"/>
    <path d="M 185.8047637939453 75.91082000732422 C 183.6118621826172 85.57047271728516 174.88731384277344 79.31334686279297 184.92559814453125 64.8533935546875" stroke-width="3.0" fill="none" stroke="rgb(0, 0, 0)" stroke-opacity="1.0" stroke-linecap="round" stroke-linejoin="round"/>
    <path d="M 126.74288940429688 98.22257995605469 C 135.02330017089844 114.91484832763672 111.07389831542969 100.27272033691406 135.32479858398438 103.53606414794922" stroke-width="3.0" fill="none" stroke="rgb(0, 0, 0)" stroke-opacity="1.0" stroke-linecap="round" stroke-linejoin="round"/>
    <path d="M 168.8207550048828 93.87230682373047 C 196.28689575195312 63.72038269042969 180.72450256347656 67.22989654541016 160.50469970703125 83.77991485595703" stroke-width="3.0" fill="none" stroke="rgb(0, 0, 0)" stroke-opacity="1.0" stroke-linecap="round" stroke-linejoin="round"/>
    <path d="M 54.155426025390625 180.11790466308594 C 36.879207611083984 152.03253173828125 44.07504653930664 158.45042419433594 41.419185638427734 157.01690673828125" stroke-width="3.0" fill="none" stroke="rgb(0, 0, 0)" stroke-opacity="1.0" stroke-linecap="round" stroke-linejoin="round"/>
    <path d="M 66.99835205078125 192.3950958251953 C 86.58612060546875 202.57833862304688 112.13517761230469 194.69088745117188 104.64266967773438 196.41989135742188" stroke-width="3.0" fill="none" stroke="rgb(0, 0, 0)" stroke-opacity="1.0" stroke-linecap="round" stroke-linejoin="round"/>
    <path d="M 89.33956909179688 27.044456481933594 C 93.37067413330078 62.8914794921875 87.64258575439453 31.12722396850586 88.81697845458984 53.26485061645508" stroke-width="3.0" fill="none" stroke="rgb(0, 0, 0)" stroke-opacity="1.0" stroke-linecap="round" stroke-linejoin="round"/>
    <path d="M 58.693878173828125 127.64258575439453 C 68.99896240234375 140.47491455078125 83.0739974975586 145.00930786132812 81.7891616821289 142.5466766357422" stroke-width="3.0" fill="none" stroke="rgb(0, 0, 0)" stroke-opacity="1.0" stroke-linecap="round" stroke-linejoin="round"/>
    <path d="M 171.05455017089844 81.28598022460938 C 196.1833038330078 76.90357971191406 172.82681274414062 80.55879211425781 140.57701110839844 89.05911254882812" stroke-width="3.0" fill="none" stroke="rgb(0, 0, 0)" stroke-opacity="1.0" stroke-linecap="round" stroke-linejoin="round"/>
    <path d="M 158.62985229492188 99.9374771118164 C 176.98977661132812 101.43962097167969 171.02406311035156 99.0748291015625 188.8833465576172 108.34103393554688" stroke-width="3.0" fill="none" stroke="rgb(0, 0, 0)" stroke-opacity="1.0" stroke-linecap="round" stroke-linejoin="round"/>
    <path d="M 96.82123565673828 156.8151397705078 C 117.6485595703125 167.7909393310547 104.5970687866211 186.16941833496094 110.67823791503906 190.07943725585938" stroke-width="3.0" fill="none" stroke="rgb(0, 0, 0)" stroke-opacity="1.0" stroke-linecap="round" stroke-linejoin="round"/>
    <path d="M 170.66160583496094 12.523709297180176 C 188.90086364746094 2.2781786918640137 177.65708923339844 37.261112213134766 185.8599853515625 58.383094787597656" stroke-width="3.0" fill="none" stroke="rgb(0, 0, 0)" stroke-opacity="1.0" stroke-linecap="round" stroke-linejoin="round"/>
    <path d="M 131.9456024169922 30.98411750793457 C 126.09273529052734 66.68366241455078 133.14840698242188 34.5883903503418 130.8552703857422 65.21336364746094" stroke-width="3.0" fill="none" stroke="rgb(0, 0, 0)" stroke-opacity="1.0" stroke-linecap="round" stroke-linejoin="round"/>
    <path d="M 97.11160278320312 45.89204406738281 C 67.48922729492188 -4.807479381561279 82.1273422241211 4.658247470855713 103.73371124267578 42.47329330444336" stroke-width="3.0" fill="none" stroke="rgb(0, 0, 0)" stroke-opacity="1.0" stroke-linecap="round" stroke-linejoin="round"/>
    <path d="M 46.12883758544922 163.78311157226562 C 39.6043815612793 156.5858612060547 44.10267639160156 159.5120849609375 44.225555419921875 164.3135528564453" stroke-width="3.0" fill="none" stroke="rgb(0, 0, 0)" stroke-opacity="1.0" stroke-linecap="round" stroke-linejoin="round"/>
    <path d="M 33.042335510253906 105.1782455444336 C 23.5152530670166 129.62423706054688 36.449703216552734 140.1250762939453 42.669677734375 156.77392578125" stroke-width="3.0" fill="none" stroke="rgb(0, 0, 0)" stroke-opacity="1.0" stroke-linecap="round" stroke-linejoin="round"/>
    <path d="M 86.89315032958984 146.84397888183594 C 94.94906616210938 158.2448272705078 98.56182098388672 157.72157287597656 89.84986877441406 150.1218719482422" stroke-width="3.0" fill="none" stroke="rgb(0, 0, 0)" stroke-opacity="1.0" stroke-linecap="round" stroke-linejoin="round"/>
    <path d="M 72.50862121582031 195.30184936523438 C 49.998138427734375 177.56703186035156 67.6456298828125 190.9855499267578 49.24791717529297 174.4746551513672" stroke-width="3.0" fill="none" stroke="rgb(0, 0, 0)" stroke-opacity="1.0" stroke-linecap="round" stroke-linejoin="round"/>
    <path d="M 41.290672302246094 156.63136291503906 C 51.98004150390625 168.33474731445312 40.59965896606445 157.57640075683594 37.05966567993164 149.75225830078125" stroke-width="3.0" fill="none" stroke="rgb(0, 0, 0)" stroke-opacity="1.0" stroke-linecap="round" stroke-linejoin="round"/>
    <path d="M 78.69025421142578 55.49934387207031 C 51.460269927978516 63.072792053222656 50.49007034301758 73.55441284179688 31.377159118652344 106.079833984375" stroke-width="3.0" fill="none" stroke="rgb(0, 0, 0)" stroke-opacity="1.0" stroke-linecap="round" stroke-linejoin="round"/>
    <path d="M 149.04254150390625 157.89263916015625 C 145.17910766601562 159.92857360839844 127.34668731689453 145.62921142578125 142.08604431152344 162.54722595214844" stroke-width="3.0" fill="none" stroke="rgb(0, 0, 0)" stroke-opacity="1.0" stroke-linecap="round" stroke-linejoin="round"/>
    <path d="M 140.62826538085938 29.492931365966797 C 148.87384033203125 54.60309600830078 133.11363220214844 54.11037826538086 140.1157989501953 78.62325286865234" stroke-width="3.0" fill="none" stroke="rgb(0, 0, 0)" stroke-opacity="1.0" stroke-linecap="round" stroke-linejoin="round"/>
    <path d="M 142.6017608642578 100.37923431396484 C 125.07199096679688 114.38910675048828 119.70085906982422 103.10655975341797 127.21865844726562 101.73340606689453" stroke-width="3.0" fill="none" stroke="rgb(0, 0, 0)" stroke-opacity="1.0" stroke-linecap="round" stroke-linejoin="round"/>
    <path d="M 139.69387817382812 74.92244720458984 C 142.75845336914062 47.533939361572266 145.61773681640625 58.60850524902344 146.7418975830078 46.80652618408203" stroke-width="3.0" fill="none" stroke="rgb(0, 0, 0)" stroke-opacity="1.0" stroke-linecap="round" stroke-linejoin="round"/>
    <path d="M 117.39622497558594 189.1428985595703 C 101.30216217041016 190.56504821777344 111.94611358642578 204.33468627929688 135.60855102539062 171.5873565673828" stroke-width="3.0" fill="none" stroke="rgb(0, 0, 0)" stroke-opacity="1.0" stroke-linecap="round" stroke-linejoin="round"/>
    <path d="M 190.0606231689453 92.9354019165039 C 159.75160217285156 82.17871856689453 150.48573303222656 97.34624481201172 187.2036590576172 82.28522491455078" stroke-width="3.0" fill="none" stroke="rgb(0, 0, 0)" stroke-opacity="1.0" stroke-linecap="round" stroke-linejoin="round"/>
    <path d="M 162.7580108642578 76.80509185791016 C 189.4868927001953 77.86624908447266 196.55593872070312 71.20753479003906 163.62811279296875 76.561767578125" stroke-width="3.0" fill="none" stroke="rgb(0, 0, 0)" stroke-opacity="1.0" stroke-linecap="round" stroke-linejoin="round"/>
    <path d="M 109.68328857421875 78.21257019042969 C 88.76374816894531 70.2542724609375 138.41754150390625 74.77880859375 105.83033752441406 81.1243896484375" stroke-width="3.0" fill="none" stroke="rgb(0, 0, 0)" stroke-opacity="1.0" stroke-linecap="round" stroke-linejoin="round"/>
    <path d="M 136.3223419189453 155.17921447753906 C 140.28375244140625 152.39535522460938 128.66766357421875 152.72494506835938 106.11988830566406 137.68765258789062" stroke-width="3.0" fill="none" stroke="rgb(0, 0, 0)" stroke-opacity="1.0" stroke-linecap="round" stroke-linejoin="round"/>
    <path d="M 123.17578125 87.3792724609375 C 134.49237060546875 102.66609191894531 134.86907958984375 77.8072280883789 127.7651138305664 93.99637603759766" stroke-width="3.0" fill="none" stroke="rgb(0, 0, 0)" stroke-opacity="1.0" stroke-linecap="round" stroke-linejoin="round"/>
    <path d="M 187.4736328125 98.53372955322266 C 171.5617218017578 84.39028930664062 184.68557739257812 100.41576385498047 143.1165008544922 84.11275482177734" stroke-width="3.0" fill="none" stroke="rgb(0, 0, 0)" stroke-opacity="1.0" stroke-linecap="round" stroke-linejoin="round"/>
    <path d="M 84.06454467773438 8.75847339630127 C 113.0352783203125 18.79810905456543 115.61750793457031 34.403690338134766 124.19872283935547 31.3125" stroke-width="3.0" fill="none" stroke="rgb(0, 0, 0)" stroke-opacity="1.0" stroke-linecap="round" stroke-linejoin="round"/>
    <path d="M 52.027950286865234 116.15364074707031 C 49.53071594238281 109.50920104980469 57.057884216308594 123.20477294921875 51.700626373291016 113.02117156982422" stroke-width="3.0" fill="none" stroke="rgb(0, 0, 0)" stroke-opacity="1.0" stroke-linecap="round" stroke-linejoin="round"/>
    <path d="M 117.18943786621094 102.66173553466797 C 93.10729217529297 87.75001525878906 121.35059356689453 102.58157348632812 106.73603820800781 94.40091705322266" stroke-width="3.0" fill="none" stroke="rgb(0, 0, 0)" stroke-opacity="1.0" stroke-linecap="round" stroke-linejoin="round"/>
    <path d="M 29.570905685424805 116.9655990600586 C 33.47212600708008 97.22293853759766 32.720298767089844 101.7621078491211 30.280372619628906 115.59590911865234" stroke-width="3.0" fill="none" stroke="rgb(0, 0, 0)" stroke-opacity="1.0" stroke-linecap="round" stroke-linejoin="round"/>
    <path d="M 91.38507843017578 196.27479553222656 C 71.73287200927734 199.28965759277344 69.31372833251953 193.9459228515625 89.8897933959961 197.97775268554688" stroke-width="3.0" fill="none" stroke="rgb(0, 0, 0)" stroke-opacity="1.0" stroke-linecap="round" stroke-linejoin="round"/>
    <path d="M 157.89817810058594 135.4036407470703 C 209.43446350097656 113.10379791259766 178.71348571777344 97.49142456054688 149.0234375 93.26636505126953" stroke-width="3.0" fill="none" stroke="rgb(0, 0, 0)" stroke-opacity="1.0" stroke-linecap="round" stroke-linejoin="round"/>
    <path d="M 155.2234649658203 76.20997619628906 C 128.2678680419922 68.22525787353516 162.06492614746094 91.16548156738281 146.91322326660156 74.68740844726562" stroke-width="3.0" fill="none" stroke="rgb(0, 0, 0)" stroke-opacity="1.0" stroke-linecap="round" stroke-linejoin="round"/>
    <path d="M 144.6626434326172 77.43072509765625 C 145.21034240722656 58.314788818359375 186.2316131591797 93.91422271728516 183.0542755126953 60.319786071777344" stroke-width="3.0" fill="none" stroke="rgb(0, 0, 0)" stroke-opacity="1.0" stroke-linecap="round" stroke-linejoin="round"/>
    <path d="M 147.6050262451172 98.0566635131836 C 156.83792114257812 96.97151947021484 169.90420532226562 109.19571685791016 184.27890014648438 111.9717788696289" stroke-width="3.0" fill="none" stroke="rgb(0, 0, 0)" stroke-opacity="1.0" stroke-linecap="round" stroke-linejoin="round"/>
    <path d="M 177.359375 18.567846298217773 C 171.9342041015625 46.53847885131836 175.3383026123047 27.480588912963867 166.8204803466797 40.2122917175293" stroke-width="3.0" fill="none" stroke="rgb(0, 0, 0)" stroke-opacity="1.0" stroke-linecap="round" stroke-linejoin="round"/>
    <path d="M 124.54661560058594 105.22679138183594 C 154.25027465820312 107.18447875976562 129.66436767578125 96.59855651855469 111.93267059326172 101.97660827636719" stroke-width="3.0" fill="none" stroke="rgb(0, 0, 0)" stroke-opacity="1.0" stroke-linecap="round" stroke-linejoin="round"/>
    <path d="M 51.86528778076172 113.09121704101562 C 54.7660026550293 113.49148559570312 46.49052429199219 108.15506744384766 59.247222900390625 127.20747375488281" stroke-width="3.0" fill="none" stroke="rgb(0, 0, 0)" stroke-opacity="1.0" stroke-linecap="round" stroke-linejoin="round"/>
    <path d="M 119.50723266601562 80.8042221069336 C 129.57626342773438 60.20764923095703 117.44420623779297 54.25901412963867 122.68330383300781 31.427892684936523" stroke-width="3.0" fill="none" stroke="rgb(0, 0, 0)" stroke-opacity="1.0" stroke-linecap="round" stroke-linejoin="round"/>
    <path d="M 145.66636657714844 28.994098663330078 C 148.87213134765625 34.18354415893555 152.1127471923828 16.789140701293945 174.4712371826172 11.043423652648926" stroke-width="3.0" fill="none" stroke="rgb(0, 0, 0)" stroke-opacity="1.0" stroke-linecap="round" stroke-linejoin="round"/>
  </g>
</svg>
