<?xml version="1.0" ?>
<svg xmlns="http://www.w3.org/2000/svg" version="1.1" width="224" height="224">
  <defs/>
  <g>
    <path d="M 55.097450256347656 119.79562377929688 C 56.35371017456055 119.30465698242188 47.24899673461914 110.38998413085938 43.031097412109375 95.0410385131836" stroke-width="3.0" fill="none" stroke="rgb(0, 0, 0)" stroke-opacity="1.0" stroke-linecap="round" stroke-linejoin="round"/>
    <path d="M 182.4613494873047 127.3401870727539 C 187.0078125 109.52984619140625 184.5537567138672 115.35000610351562 189.269287109375 118.99117279052734" stroke-width="3.0" fill="none" stroke="rgb(0, 0, 0)" stroke-opacity="1.0" stroke-linecap="round" stroke-linejoin="round"/>
    <path d="M 49.14405822753906 109.53058624267578 C 52.15087890625 112.18524932861328 47.62021255493164 107.78205108642578 50.39134979248047 111.20355987548828" stroke-width="3.0" fill="none" stroke="rgb(0, 0, 0)" stroke-opacity="1.0" stroke-linecap="round" stroke-linejoin="round"/>
    <path d="M 183.5325469970703 97.20075225830078 C 154.97042846679688 94.77152252197266 172.41856384277344 82.2538833618164 195.65769958496094 113.07628631591797" stroke-width="3.0" fill="none" stroke="rgb(0, 0, 0)" stroke-opacity="1.0" stroke-linecap="round" stroke-linejoin="round"/>
    <path d="M 186.40310668945312 73.59014892578125 C 183.1278839111328 84.12925720214844 174.9263153076172 78.27214813232422 185.8052215576172 66.90645599365234" stroke-width="3.0" fill="none" stroke="rgb(0, 0, 0)" stroke-opacity="1.0" stroke-linecap="round" stroke-linejoin="round"/>
    <path d="M 127.8237075805664 96.08036804199219 C 135.44091796875 114.44283294677734 111.79798889160156 100.76567077636719 135.1226043701172 103.95125579833984" stroke-width="3.0" fill="none" stroke="rgb(0, 0, 0)" stroke-opacity="1.0" stroke-linecap="round" stroke-linejoin="round"/>
    <path d="M 169.86509704589844 95.85832214355469 C 195.39671325683594 62.198734283447266 181.02638244628906 66.7242431640625 160.52508544921875 81.39122772216797" stroke-width="3.0" fill="none" stroke="rgb(0, 0, 0)" stroke-opacity="1.0" stroke-linecap="round" stroke-linejoin="round"/>
    <path d="M 53.74923324584961 180.84568786621094 C 35.50353240966797 153.4070281982422 42.535064697265625 160.0382080078125 41.09452819824219 157.13502502441406" stroke-width="3.0" fill="none" stroke="rgb(0, 0, 0)" stroke-opacity="1.0" stroke-linecap="round" stroke-linejoin="round"/>
    <path d="M 67.40267944335938 188.82774353027344 C 90.57994842529297 198.3444366455078 113.724365234375 193.83929443359375 104.57396697998047 194.73387145996094" stroke-width="3.0" fill="none" stroke="rgb(0, 0, 0)" stroke-opacity="1.0" stroke-linecap="round" stroke-linejoin="round"/>
    <path d="M 89.52252960205078 24.314903259277344 C 91.56463623046875 60.62818145751953 88.83031463623047 30.371774673461914 89.04593658447266 54.045494079589844" stroke-width="3.0" fill="none" stroke="rgb(0, 0, 0)" stroke-opacity="1.0" stroke-linecap="round" stroke-linejoin="round"/>
    <path d="M 59.38460159301758 127.33409881591797 C 69.8035659790039 139.65890502929688 83.60021209716797 143.28195190429688 84.43264770507812 143.10365295410156" stroke-width="3.0" fill="none" stroke="rgb(0, 0, 0)" stroke-opacity="1.0" stroke-linecap="round" stroke-linejoin="round"/>
    <path d="M 169.260498046875 80.32938385009766 C 193.0278778076172 74.72798156738281 172.46861267089844 81.79666137695312 140.9474334716797 87.15320587158203" stroke-width="3.0" fill="none" stroke="rgb(0, 0, 0)" stroke-opacity="1.0" stroke-linecap="round" stroke-linejoin="round"/>
    <path d="M 158.21975708007812 99.65838623046875 C 175.52684020996094 102.82022857666016 169.71292114257812 100.97608947753906 189.92239379882812 107.94112396240234" stroke-width="3.0" fill="none" stroke="rgb(0, 0, 0)" stroke-opacity="1.0" stroke-linecap="round" stroke-linejoin="round"/>
    <path d="M 95.8161849975586 157.12667846679688 C 114.28845977783203 170.18304443359375 103.1020278930664 187.29925537109375 110.2896499633789 192.93438720703125" stroke-width="3.0" fill="none" stroke="rgb(0, 0, 0)" stroke-opacity="1.0" stroke-linecap="round" stroke-linejoin="round"/>
    <path d="M 170.14129638671875 10.746248245239258 C 189.53564453125 3.371433973312378 176.44862365722656 35.3149528503418 185.47640991210938 58.653133392333984" stroke-width="3.0" fill="none" stroke="rgb(0, 0, 0)" stroke-opacity="1.0" stroke-linecap="round" stroke-linejoin="round"/>
    <path d="M 131.35252380371094 30.76004409790039 C 126.2187728881836 67.6290283203125 131.58474731445312 34.184814453125 129.31753540039062 65.89312744140625" stroke-width="3.0" fill="none" stroke="rgb(0, 0, 0)" stroke-opacity="1.0" stroke-linecap="round" stroke-linejoin="round"/>
    <path d="M 98.81379699707031 44.13705062866211 C 68.76431274414062 -5.377031326293945 84.04730987548828 3.727754831314087 103.18255615234375 42.37394714355469" stroke-width="3.0" fill="none" stroke="rgb(0, 0, 0)" stroke-opacity="1.0" stroke-linecap="round" stroke-linejoin="round"/>
    <path d="M 47.864139556884766 166.19271850585938 C 37.87525939941406 159.24325561523438 43.33362579345703 160.72349548339844 43.668888092041016 165.06520080566406" stroke-width="3.0" fill="none" stroke="rgb(0, 0, 0)" stroke-opacity="1.0" stroke-linecap="round" stroke-linejoin="round"/>
    <path d="M 32.33338928222656 105.11225891113281 C 23.275400161743164 132.8461151123047 33.97224426269531 141.71104431152344 44.21696090698242 158.51638793945312" stroke-width="3.0" fill="none" stroke="rgb(0, 0, 0)" stroke-opacity="1.0" stroke-linecap="round" stroke-linejoin="round"/>
    <path d="M 86.66719055175781 148.1873016357422 C 94.41385650634766 158.779541015625 97.42766571044922 159.28662109375 87.9264144897461 150.96424865722656" stroke-width="3.0" fill="none" stroke="rgb(0, 0, 0)" stroke-opacity="1.0" stroke-linecap="round" stroke-linejoin="round"/>
    <path d="M 72.36925506591797 193.56846618652344 C 49.966400146484375 178.50042724609375 67.59031677246094 191.7010040283203 49.712528228759766 174.20872497558594" stroke-width="3.0" fill="none" stroke="rgb(0, 0, 0)" stroke-opacity="1.0" stroke-linecap="round" stroke-linejoin="round"/>
    <path d="M 40.866188049316406 156.29811096191406 C 49.39777374267578 170.31005859375 39.1766242980957 159.6448516845703 37.47090530395508 148.96612548828125" stroke-width="3.0" fill="none" stroke="rgb(0, 0, 0)" stroke-opacity="1.0" stroke-linecap="round" stroke-linejoin="round"/>
    <path d="M 76.36005401611328 54.85396194458008 C 49.049896240234375 63.394798278808594 49.26410675048828 71.75334930419922 32.55757522583008 106.90228271484375" stroke-width="3.0" fill="none" stroke="rgb(0, 0, 0)" stroke-opacity="1.0" stroke-linecap="round" stroke-linejoin="round"/>
    <path d="M 149.81069946289062 157.47845458984375 C 144.78770446777344 161.188232421875 126.22576141357422 147.2227020263672 142.58265686035156 162.59780883789062" stroke-width="3.0" fill="none" stroke="rgb(0, 0, 0)" stroke-opacity="1.0" stroke-linecap="round" stroke-linejoin="round"/>
    <path d="M 140.8489227294922 30.835235595703125 C 147.95188903808594 51.48540115356445 131.5418243408203 51.8539924621582 138.0486297607422 82.1646957397461" stroke-width="3.0" fill="none" stroke="rgb(0, 0, 0)" stroke-opacity="1.0" stroke-linecap="round" stroke-linejoin="round"/>
    <path d="M 144.24652099609375 101.18280792236328 C 126.81900024414062 113.64097595214844 120.61099243164062 102.31009674072266 127.76321411132812 101.51581573486328" stroke-width="3.0" fill="none" stroke="rgb(0, 0, 0)" stroke-opacity="1.0" stroke-linecap="round" stroke-linejoin="round"/>
    <path d="M 137.7827606201172 73.60838317871094 C 145.59222412109375 49.83428192138672 146.21359252929688 58.401973724365234 148.91067504882812 47.419002532958984" stroke-width="3.0" fill="none" stroke="rgb(0, 0, 0)" stroke-opacity="1.0" stroke-linecap="round" stroke-linejoin="round"/>
    <path d="M 115.64710235595703 190.89630126953125 C 100.43971252441406 190.4437713623047 112.016845703125 204.22509765625 136.05116271972656 172.02593994140625" stroke-width="3.0" fill="none" stroke="rgb(0, 0, 0)" stroke-opacity="1.0" stroke-linecap="round" stroke-linejoin="round"/>
    <path d="M 189.52438354492188 91.2990951538086 C 157.65350341796875 83.44397735595703 150.22225952148438 97.0141830444336 188.5264129638672 80.32843780517578" stroke-width="3.0" fill="none" stroke="rgb(0, 0, 0)" stroke-opacity="1.0" stroke-linecap="round" stroke-linejoin="round"/>
    <path d="M 165.44508361816406 76.80473327636719 C 187.79513549804688 74.71257019042969 195.1019287109375 69.0509262084961 164.4856414794922 75.4668960571289" stroke-width="3.0" fill="none" stroke="rgb(0, 0, 0)" stroke-opacity="1.0" stroke-linecap="round" stroke-linejoin="round"/>
    <path d="M 108.96955108642578 76.96464538574219 C 90.99156951904297 70.45709228515625 139.83616638183594 74.49600219726562 104.88282012939453 80.28485107421875" stroke-width="3.0" fill="none" stroke="rgb(0, 0, 0)" stroke-opacity="1.0" stroke-linecap="round" stroke-linejoin="round"/>
    <path d="M 135.3592071533203 155.693359375 C 140.60202026367188 152.80198669433594 127.78945922851562 155.18844604492188 104.37683868408203 138.14581298828125" stroke-width="3.0" fill="none" stroke="rgb(0, 0, 0)" stroke-opacity="1.0" stroke-linecap="round" stroke-linejoin="round"/>
    <path d="M 121.60611724853516 87.2018051147461 C 136.00607299804688 101.77124786376953 136.0052032470703 77.79376983642578 127.51954650878906 93.97269439697266" stroke-width="3.0" fill="none" stroke="rgb(0, 0, 0)" stroke-opacity="1.0" stroke-linecap="round" stroke-linejoin="round"/>
    <path d="M 188.2840576171875 99.68669891357422 C 172.1192626953125 85.35345458984375 183.22628784179688 102.05142211914062 140.880859375 84.67066192626953" stroke-width="3.0" fill="none" stroke="rgb(0, 0, 0)" stroke-opacity="1.0" stroke-linecap="round" stroke-linejoin="round"/>
    <path d="M 84.25843048095703 10.537395477294922 C 113.6429443359375 18.520238876342773 117.4705810546875 33.16797637939453 124.498779296875 30.35236930847168" stroke-width="3.0" fill="none" stroke="rgb(0, 0, 0)" stroke-opacity="1.0" stroke-linecap="round" stroke-linejoin="round"/>
    <path d="M 53.50931930541992 114.83940124511719 C 49.21880340576172 109.52961730957031 56.089698791503906 123.8818130493164 51.35631561279297 113.2511215209961" stroke-width="3.0" fill="none" stroke="rgb(0, 0, 0)" stroke-opacity="1.0" stroke-linecap="round" stroke-linejoin="round"/>
    <path d="M 118.58236694335938 101.80532836914062 C 96.11759948730469 86.4014663696289 119.13617706298828 105.06085968017578 105.59376525878906 93.59770202636719" stroke-width="3.0" fill="none" stroke="rgb(0, 0, 0)" stroke-opacity="1.0" stroke-linecap="round" stroke-linejoin="round"/>
    <path d="M 29.98953628540039 116.53121948242188 C 34.779258728027344 98.3819808959961 34.758872985839844 103.65058135986328 29.67205047607422 116.02006530761719" stroke-width="3.0" fill="none" stroke="rgb(0, 0, 0)" stroke-opacity="1.0" stroke-linecap="round" stroke-linejoin="round"/>
    <path d="M 90.0916748046875 194.68447875976562 C 71.0398941040039 196.84738159179688 69.23194122314453 193.85189819335938 90.60748291015625 195.3451385498047" stroke-width="3.0" fill="none" stroke="rgb(0, 0, 0)" stroke-opacity="1.0" stroke-linecap="round" stroke-linejoin="round"/>
    <path d="M 159.4707489013672 136.10894775390625 C 210.53846740722656 113.57256317138672 179.3255157470703 97.87135314941406 150.2806396484375 93.10295867919922" stroke-width="3.0" fill="none" stroke="rgb(0, 0, 0)" stroke-opacity="1.0" stroke-linecap="round" stroke-linejoin="round"/>
    <path d="M 155.34877014160156 76.3304443359375 C 126.73699188232422 67.54359436035156 161.1300048828125 90.60436248779297 148.08395385742188 73.93164825439453" stroke-width="3.0" fill="none" stroke="rgb(0, 0, 0)" stroke-opacity="1.0" stroke-linecap="round" stroke-linejoin="round"/>
    <path d="M 143.31527709960938 77.63252258300781 C 144.97821044921875 58.095909118652344 183.04354858398438 95.34947967529297 184.051025390625 60.10722351074219" stroke-width="3.0" fill="none" stroke="rgb(0, 0, 0)" stroke-opacity="1.0" stroke-linecap="round" stroke-linejoin="round"/>
    <path d="M 147.8619384765625 98.61077880859375 C 156.6450653076172 98.34567260742188 170.94131469726562 108.44374084472656 183.67074584960938 114.46611785888672" stroke-width="3.0" fill="none" stroke="rgb(0, 0, 0)" stroke-opacity="1.0" stroke-linecap="round" stroke-linejoin="round"/>
    <path d="M 177.15789794921875 18.69009017944336 C 172.29544067382812 45.53628921508789 174.8286895751953 25.507793426513672 166.43515014648438 41.17192077636719" stroke-width="3.0" fill="none" stroke="rgb(0, 0, 0)" stroke-opacity="1.0" stroke-linecap="round" stroke-linejoin="round"/>
    <path d="M 125.19075775146484 105.08773040771484 C 156.130126953125 108.2454833984375 129.2740020751953 96.88772583007812 112.59976959228516 100.9451904296875" stroke-width="3.0" fill="none" stroke="rgb(0, 0, 0)" stroke-opacity="1.0" stroke-linecap="round" stroke-linejoin="round"/>
    <path d="M 51.76919937133789 112.8909683227539 C 54.50997543334961 113.05503845214844 46.87808609008789 107.49777221679688 59.54189682006836 127.64348602294922" stroke-width="3.0" fill="none" stroke="rgb(0, 0, 0)" stroke-opacity="1.0" stroke-linecap="round" stroke-linejoin="round"/>
    <path d="M 121.32695007324219 80.99698638916016 C 129.8134002685547 61.514549255371094 116.0315933227539 55.250003814697266 121.49876403808594 31.428647994995117" stroke-width="3.0" fill="none" stroke="rgb(0, 0, 0)" stroke-opacity="1.0" stroke-linecap="round" stroke-linejoin="round"/>
    <path d="M 145.98379516601562 30.69180679321289 C 148.9134521484375 33.242515563964844 152.68447875976562 17.74858283996582 174.2709503173828 9.505045890808105" stroke-width="3.0" fill="none" stroke="rgb(0, 0, 0)" stroke-opacity="1.0" stroke-linecap="round" stroke-linejoin="round"/>
  </g>
</svg>
