<?xml version="1.0" ?>
<svg xmlns="http://www.w3.org/2000/svg" version="1.1" width="224" height="224">
  <defs/>
  <g>
    <path d="M 61.92656707763672 89.10871124267578 C 77.73318481445312 77.48289489746094 63.02342224121094 82.29150390625 81.37957763671875 57.091217041015625" stroke-width="3.0" fill="none" stroke="rgb(0, 0, 0)" stroke-opacity="1.0" stroke-linecap="round" stroke-linejoin="round"/>
    <path d="M 196.49600219726562 113.46267700195312 C 183.0362091064453 100.34420013427734 195.31468200683594 100.25089263916016 179.5352325439453 127.72932434082031" stroke-width="3.0" fill="none" stroke="rgb(0, 0, 0)" stroke-opacity="1.0" stroke-linecap="round" stroke-linejoin="round"/>
    <path d="M 60.144718170166016 114.43436431884766 C 52.399112701416016 90.07315063476562 57.19308090209961 115.00428009033203 61.34653091430664 108.99279022216797" stroke-width="3.0" fill="none" stroke="rgb(0, 0, 0)" stroke-opacity="1.0" stroke-linecap="round" stroke-linejoin="round"/>
    <path d="M 187.8491668701172 92.91771697998047 C 149.53680419921875 75.8592300415039 183.08309936523438 76.21070861816406 189.4668426513672 97.37108612060547" stroke-width="3.0" fill="none" stroke="rgb(0, 0, 0)" stroke-opacity="1.0" stroke-linecap="round" stroke-linejoin="round"/>
    <path d="M 175.4574737548828 58.58443832397461 C 195.47265625 86.69416809082031 179.9645233154297 101.9382553100586 178.3006591796875 47.540409088134766" stroke-width="3.0" fill="none" stroke="rgb(0, 0, 0)" stroke-opacity="1.0" stroke-linecap="round" stroke-linejoin="round"/>
    <path d="M 130.5191650390625 97.1700439453125 C 155.07058715820312 107.59381866455078 96.65435791015625 99.8858642578125 135.54046630859375 100.05970001220703" stroke-width="3.0" fill="none" stroke="rgb(0, 0, 0)" stroke-opacity="1.0" stroke-linecap="round" stroke-linejoin="round"/>
    <path d="M 185.59719848632812 100.4256820678711 C 161.11984252929688 89.18181610107422 199.37400817871094 69.12419128417969 153.5323486328125 87.5458984375" stroke-width="3.0" fill="none" stroke="rgb(0, 0, 0)" stroke-opacity="1.0" stroke-linecap="round" stroke-linejoin="round"/>
    <path d="M 63.79712677001953 189.48536682128906 C 43.070106506347656 168.26483154296875 46.32352066040039 169.70164489746094 64.6214370727539 190.50460815429688" stroke-width="3.0" fill="none" stroke="rgb(0, 0, 0)" stroke-opacity="1.0" stroke-linecap="round" stroke-linejoin="round"/>
    <path d="M 58.997127532958984 185.96978759765625 C 90.98369598388672 215.05101013183594 135.71849060058594 196.43380737304688 136.18096923828125 158.61143493652344" stroke-width="3.0" fill="none" stroke="rgb(0, 0, 0)" stroke-opacity="1.0" stroke-linecap="round" stroke-linejoin="round"/>
    <path d="M 81.07598114013672 11.409062385559082 C 90.46125030517578 68.3191146850586 85.8355941772461 11.457250595092773 84.15003967285156 50.134952545166016" stroke-width="3.0" fill="none" stroke="rgb(0, 0, 0)" stroke-opacity="1.0" stroke-linecap="round" stroke-linejoin="round"/>
    <path d="M 63.24982833862305 89.59291076660156 C 45.26666259765625 120.44947052001953 77.88933563232422 126.27940368652344 61.44614791870117 116.9266586303711" stroke-width="3.0" fill="none" stroke="rgb(0, 0, 0)" stroke-opacity="1.0" stroke-linecap="round" stroke-linejoin="round"/>
    <path d="M 147.59478759765625 76.26984405517578 C 193.96578979492188 61.14434814453125 204.26260375976562 84.88243103027344 139.704345703125 85.57735443115234" stroke-width="3.0" fill="none" stroke="rgb(0, 0, 0)" stroke-opacity="1.0" stroke-linecap="round" stroke-linejoin="round"/>
    <path d="M 151.74624633789062 94.2324447631836 C 188.1208038330078 98.13337707519531 181.19969177246094 105.71219635009766 188.01654052734375 112.65267181396484" stroke-width="3.0" fill="none" stroke="rgb(0, 0, 0)" stroke-opacity="1.0" stroke-linecap="round" stroke-linejoin="round"/>
    <path d="M 135.02088928222656 149.87188720703125 C 179.09500122070312 153.45506286621094 93.0794677734375 144.1296844482422 94.26158905029297 150.14251708984375" stroke-width="3.0" fill="none" stroke="rgb(0, 0, 0)" stroke-opacity="1.0" stroke-linecap="round" stroke-linejoin="round"/>
    <path d="M 180.44351196289062 7.814474582672119 C 190.8063507080078 19.29891586303711 164.8251953125 92.34822845458984 179.86618041992188 60.37770462036133" stroke-width="3.0" fill="none" stroke="rgb(0, 0, 0)" stroke-opacity="1.0" stroke-linecap="round" stroke-linejoin="round"/>
    <path d="M 149.4340362548828 28.23486328125 C 105.18185424804688 33.45875930786133 135.21571350097656 20.52665138244629 124.49981689453125 67.0498275756836" stroke-width="3.0" fill="none" stroke="rgb(0, 0, 0)" stroke-opacity="1.0" stroke-linecap="round" stroke-linejoin="round"/>
    <path d="M 109.37608337402344 49.65172576904297 C 63.280845642089844 -9.938886642456055 84.9597396850586 -0.7135000228881836 120.54092407226562 32.438350677490234" stroke-width="3.0" fill="none" stroke="rgb(0, 0, 0)" stroke-opacity="1.0" stroke-linecap="round" stroke-linejoin="round"/>
    <path d="M 44.01685333251953 162.2869110107422 C 44.617279052734375 158.5117645263672 40.63265609741211 157.49331665039062 53.290584564208984 180.834716796875" stroke-width="3.0" fill="none" stroke="rgb(0, 0, 0)" stroke-opacity="1.0" stroke-linecap="round" stroke-linejoin="round"/>
    <path d="M 60.7310791015625 69.64854431152344 C 15.20499324798584 117.20403289794922 37.97227478027344 143.89776611328125 44.9482536315918 163.9281768798828" stroke-width="3.0" fill="none" stroke="rgb(0, 0, 0)" stroke-opacity="1.0" stroke-linecap="round" stroke-linejoin="round"/>
    <path d="M 71.33714294433594 135.87911987304688 C 146.14710998535156 166.01319885253906 119.31282043457031 146.9001007080078 88.03204345703125 145.63568115234375" stroke-width="3.0" fill="none" stroke="rgb(0, 0, 0)" stroke-opacity="1.0" stroke-linecap="round" stroke-linejoin="round"/>
    <path d="M 82.94855499267578 198.71568298339844 C 67.31653594970703 199.6878204345703 47.88706588745117 176.40585327148438 38.557376861572266 148.00831604003906" stroke-width="3.0" fill="none" stroke="rgb(0, 0, 0)" stroke-opacity="1.0" stroke-linecap="round" stroke-linejoin="round"/>
    <path d="M 48.148067474365234 174.38221740722656 C 72.79888916015625 197.8862762451172 48.659786224365234 178.78550720214844 41.430999755859375 155.0753936767578" stroke-width="3.0" fill="none" stroke="rgb(0, 0, 0)" stroke-opacity="1.0" stroke-linecap="round" stroke-linejoin="round"/>
    <path d="M 81.87837219238281 53.03779220581055 C 61.782928466796875 58.44619369506836 59.24201583862305 64.26858520507812 33.36341857910156 109.09452819824219" stroke-width="3.0" fill="none" stroke="rgb(0, 0, 0)" stroke-opacity="1.0" stroke-linecap="round" stroke-linejoin="round"/>
    <path d="M 150.94715881347656 146.94456481933594 C 110.77266693115234 157.6059112548828 61.30033493041992 147.98220825195312 146.05197143554688 146.47105407714844" stroke-width="3.0" fill="none" stroke="rgb(0, 0, 0)" stroke-opacity="1.0" stroke-linecap="round" stroke-linejoin="round"/>
    <path d="M 149.29592895507812 27.853256225585938 C 142.9600830078125 37.201908111572266 138.98802185058594 12.008517265319824 136.311767578125 75.38776397705078" stroke-width="3.0" fill="none" stroke="rgb(0, 0, 0)" stroke-opacity="1.0" stroke-linecap="round" stroke-linejoin="round"/>
    <path d="M 145.40664672851562 96.42961883544922 C 126.92450714111328 111.19564819335938 122.52202606201172 103.35785675048828 123.2152328491211 102.87995147705078" stroke-width="3.0" fill="none" stroke="rgb(0, 0, 0)" stroke-opacity="1.0" stroke-linecap="round" stroke-linejoin="round"/>
    <path d="M 135.42691040039062 71.42766571044922 C 146.09030151367188 54.982208251953125 137.19485473632812 67.03054809570312 136.4446258544922 69.20276641845703" stroke-width="3.0" fill="none" stroke="rgb(0, 0, 0)" stroke-opacity="1.0" stroke-linecap="round" stroke-linejoin="round"/>
    <path d="M 140.9800567626953 158.76425170898438 C 133.6757354736328 166.2055206298828 141.0183563232422 163.1402130126953 152.25965881347656 142.80125427246094" stroke-width="3.0" fill="none" stroke="rgb(0, 0, 0)" stroke-opacity="1.0" stroke-linecap="round" stroke-linejoin="round"/>
    <path d="M 195.19866943359375 94.71289825439453 C 155.83688354492188 74.77578735351562 188.7450408935547 61.324066162109375 179.9973907470703 98.02669525146484" stroke-width="3.0" fill="none" stroke="rgb(0, 0, 0)" stroke-opacity="1.0" stroke-linecap="round" stroke-linejoin="round"/>
    <path d="M 153.0917205810547 77.52674865722656 C 120.23910522460938 54.599124908447266 205.1604461669922 90.78911590576172 180.3731231689453 61.9912109375" stroke-width="3.0" fill="none" stroke="rgb(0, 0, 0)" stroke-opacity="1.0" stroke-linecap="round" stroke-linejoin="round"/>
    <path d="M 113.69120788574219 81.84037017822266 C 85.94229125976562 74.10633850097656 137.81214904785156 74.52293395996094 108.33198547363281 81.28816986083984" stroke-width="3.0" fill="none" stroke="rgb(0, 0, 0)" stroke-opacity="1.0" stroke-linecap="round" stroke-linejoin="round"/>
    <path d="M 167.66043090820312 132.78233337402344 C 156.55166625976562 154.54188537597656 87.46678161621094 147.53773498535156 91.52510070800781 145.67958068847656" stroke-width="3.0" fill="none" stroke="rgb(0, 0, 0)" stroke-opacity="1.0" stroke-linecap="round" stroke-linejoin="round"/>
    <path d="M 124.48005676269531 89.2686767578125 C 142.77645874023438 97.98460388183594 127.79818725585938 71.32205963134766 130.04266357421875 105.06660461425781" stroke-width="3.0" fill="none" stroke="rgb(0, 0, 0)" stroke-opacity="1.0" stroke-linecap="round" stroke-linejoin="round"/>
    <path d="M 186.49563598632812 109.50463104248047 C 172.49172973632812 88.24992370605469 169.94297790527344 93.65341186523438 139.89695739746094 81.74308013916016" stroke-width="3.0" fill="none" stroke="rgb(0, 0, 0)" stroke-opacity="1.0" stroke-linecap="round" stroke-linejoin="round"/>
    <path d="M 93.12496185302734 25.12772560119629 C 126.26034545898438 28.553192138671875 86.2489013671875 29.635202407836914 146.56301879882812 29.63422393798828" stroke-width="3.0" fill="none" stroke="rgb(0, 0, 0)" stroke-opacity="1.0" stroke-linecap="round" stroke-linejoin="round"/>
    <path d="M 56.39718246459961 109.25782012939453 C 56.83233642578125 93.20716857910156 52.27989959716797 113.12315368652344 73.60186767578125 136.8028106689453" stroke-width="3.0" fill="none" stroke="rgb(0, 0, 0)" stroke-opacity="1.0" stroke-linecap="round" stroke-linejoin="round"/>
    <path d="M 128.97027587890625 107.3282241821289 C 133.66226196289062 90.6618881225586 125.24208068847656 120.57658386230469 110.89571380615234 88.92037963867188" stroke-width="3.0" fill="none" stroke="rgb(0, 0, 0)" stroke-opacity="1.0" stroke-linecap="round" stroke-linejoin="round"/>
    <path d="M 39.615543365478516 151.71212768554688 C 20.229686737060547 120.85746002197266 40.87592315673828 68.03971099853516 69.64608764648438 57.89927291870117" stroke-width="3.0" fill="none" stroke="rgb(0, 0, 0)" stroke-opacity="1.0" stroke-linecap="round" stroke-linejoin="round"/>
    <path d="M 110.80293273925781 197.88677978515625 C 89.81908416748047 201.49636840820312 96.76211547851562 201.53225708007812 108.37279510498047 197.00636291503906" stroke-width="3.0" fill="none" stroke="rgb(0, 0, 0)" stroke-opacity="1.0" stroke-linecap="round" stroke-linejoin="round"/>
    <path d="M 169.72210693359375 129.86534118652344 C 196.77745056152344 114.70114135742188 192.24960327148438 86.52693176269531 155.85037231445312 87.30400848388672" stroke-width="3.0" fill="none" stroke="rgb(0, 0, 0)" stroke-opacity="1.0" stroke-linecap="round" stroke-linejoin="round"/>
    <path d="M 157.9987335205078 70.7618637084961 C 132.25062561035156 79.80998229980469 168.83831787109375 82.38502502441406 154.32386779785156 72.97335815429688" stroke-width="3.0" fill="none" stroke="rgb(0, 0, 0)" stroke-opacity="1.0" stroke-linecap="round" stroke-linejoin="round"/>
    <path d="M 140.22837829589844 78.29900360107422 C 150.0180206298828 41.01026153564453 196.9154510498047 119.8106918334961 176.51429748535156 36.84964370727539" stroke-width="3.0" fill="none" stroke="rgb(0, 0, 0)" stroke-opacity="1.0" stroke-linecap="round" stroke-linejoin="round"/>
    <path d="M 155.73269653320312 95.25128936767578 C 175.03201293945312 103.33477783203125 180.42286682128906 103.16699981689453 185.4315643310547 123.68610382080078" stroke-width="3.0" fill="none" stroke="rgb(0, 0, 0)" stroke-opacity="1.0" stroke-linecap="round" stroke-linejoin="round"/>
    <path d="M 176.9537353515625 16.28500747680664 C 171.50177001953125 38.13876724243164 177.53131103515625 13.5636568069458 161.10488891601562 36.28831100463867" stroke-width="3.0" fill="none" stroke="rgb(0, 0, 0)" stroke-opacity="1.0" stroke-linecap="round" stroke-linejoin="round"/>
    <path d="M 121.1029052734375 100.46257019042969 C 134.7107696533203 93.81764221191406 127.2210464477539 114.184814453125 135.22760009765625 101.50304412841797" stroke-width="3.0" fill="none" stroke="rgb(0, 0, 0)" stroke-opacity="1.0" stroke-linecap="round" stroke-linejoin="round"/>
    <path d="M 61.52628707885742 96.30034637451172 C 52.122589111328125 108.62100982666016 56.05253219604492 110.70687103271484 62.77637481689453 100.43814849853516" stroke-width="3.0" fill="none" stroke="rgb(0, 0, 0)" stroke-opacity="1.0" stroke-linecap="round" stroke-linejoin="round"/>
    <path d="M 121.0434799194336 76.29198455810547 C 125.81086730957031 42.46598815917969 114.47708892822266 50.537193298339844 120.37767791748047 35.390342712402344" stroke-width="3.0" fill="none" stroke="rgb(0, 0, 0)" stroke-opacity="1.0" stroke-linecap="round" stroke-linejoin="round"/>
    <path d="M 140.9447784423828 28.34588050842285 C 145.5380401611328 44.928531646728516 154.7199249267578 11.644734382629395 178.4577178955078 8.938300132751465" stroke-width="3.0" fill="none" stroke="rgb(0, 0, 0)" stroke-opacity="1.0" stroke-linecap="round" stroke-linejoin="round"/>
  </g>
</svg>
