<?xml version="1.0" ?>
<svg xmlns="http://www.w3.org/2000/svg" version="1.1" width="224" height="224">
  <defs/>
  <g>
    <path d="M 59.470664978027344 102.03158569335938 C 57.442012786865234 98.43321228027344 50.226741790771484 93.93218994140625 56.367156982421875 72.09478759765625" stroke-width="3.0" fill="none" stroke="rgb(0, 0, 0)" stroke-opacity="1.0" stroke-linecap="round" stroke-linejoin="round"/>
    <path d="M 192.86573791503906 108.77577209472656 C 185.33538818359375 108.45651245117188 190.6293182373047 82.65743255615234 183.4976348876953 124.23664855957031" stroke-width="3.0" fill="none" stroke="rgb(0, 0, 0)" stroke-opacity="1.0" stroke-linecap="round" stroke-linejoin="round"/>
    <path d="M 58.58881759643555 117.38932037353516 C 62.518795013427734 94.71221923828125 54.83386993408203 134.48544311523438 66.79964447021484 126.9899673461914" stroke-width="3.0" fill="none" stroke="rgb(0, 0, 0)" stroke-opacity="1.0" stroke-linecap="round" stroke-linejoin="round"/>
    <path d="M 186.50445556640625 92.28744506835938 C 149.19810485839844 75.25376892089844 183.10470581054688 80.23777770996094 187.95443725585938 103.06085205078125" stroke-width="3.0" fill="none" stroke="rgb(0, 0, 0)" stroke-opacity="1.0" stroke-linecap="round" stroke-linejoin="round"/>
    <path d="M 178.1835174560547 53.18754577636719 C 193.4719696044922 97.65747833251953 178.5933380126953 97.96129608154297 179.32814025878906 72.36292266845703" stroke-width="3.0" fill="none" stroke="rgb(0, 0, 0)" stroke-opacity="1.0" stroke-linecap="round" stroke-linejoin="round"/>
    <path d="M 128.6166534423828 99.71641540527344 C 157.38595581054688 114.28055572509766 97.7944107055664 101.38186645507812 133.62281799316406 104.5791015625" stroke-width="3.0" fill="none" stroke="rgb(0, 0, 0)" stroke-opacity="1.0" stroke-linecap="round" stroke-linejoin="round"/>
    <path d="M 179.45840454101562 88.36888122558594 C 184.78695678710938 74.41716003417969 199.186279296875 73.73945617675781 147.84661865234375 85.44224548339844" stroke-width="3.0" fill="none" stroke="rgb(0, 0, 0)" stroke-opacity="1.0" stroke-linecap="round" stroke-linejoin="round"/>
    <path d="M 66.284912109375 190.99560546875 C 39.78227996826172 165.0806884765625 51.044464111328125 169.7480010986328 49.80327224731445 174.21731567382812" stroke-width="3.0" fill="none" stroke="rgb(0, 0, 0)" stroke-opacity="1.0" stroke-linecap="round" stroke-linejoin="round"/>
    <path d="M 57.848609924316406 184.16976928710938 C 90.45459747314453 215.3512420654297 127.03108978271484 200.29127502441406 137.1370849609375 170.1692657470703" stroke-width="3.0" fill="none" stroke="rgb(0, 0, 0)" stroke-opacity="1.0" stroke-linecap="round" stroke-linejoin="round"/>
    <path d="M 83.44558715820312 16.468236923217773 C 93.12846374511719 71.1699447631836 87.77364349365234 2.921220541000366 85.36182403564453 59.112918853759766" stroke-width="3.0" fill="none" stroke="rgb(0, 0, 0)" stroke-opacity="1.0" stroke-linecap="round" stroke-linejoin="round"/>
    <path d="M 55.9314079284668 85.44945526123047 C 61.94954299926758 140.6693878173828 73.9117431640625 137.21974182128906 59.91046142578125 123.5018081665039" stroke-width="3.0" fill="none" stroke="rgb(0, 0, 0)" stroke-opacity="1.0" stroke-linecap="round" stroke-linejoin="round"/>
    <path d="M 147.53797912597656 74.49052429199219 C 198.7938232421875 63.181434631347656 188.91091918945312 87.81797790527344 143.8709716796875 84.82469940185547" stroke-width="3.0" fill="none" stroke="rgb(0, 0, 0)" stroke-opacity="1.0" stroke-linecap="round" stroke-linejoin="round"/>
    <path d="M 153.79481506347656 94.7250747680664 C 180.75839233398438 99.41410827636719 181.09671020507812 91.71339416503906 195.6602020263672 111.32193756103516" stroke-width="3.0" fill="none" stroke="rgb(0, 0, 0)" stroke-opacity="1.0" stroke-linecap="round" stroke-linejoin="round"/>
    <path d="M 118.17648315429688 149.80018615722656 C 154.03404235839844 154.40895080566406 103.39667510986328 149.9583282470703 96.30481719970703 153.23062133789062" stroke-width="3.0" fill="none" stroke="rgb(0, 0, 0)" stroke-opacity="1.0" stroke-linecap="round" stroke-linejoin="round"/>
    <path d="M 179.8289031982422 7.2766571044921875 C 189.15200805664062 25.05577850341797 169.87026977539062 93.06351470947266 182.98472595214844 58.22964096069336" stroke-width="3.0" fill="none" stroke="rgb(0, 0, 0)" stroke-opacity="1.0" stroke-linecap="round" stroke-linejoin="round"/>
    <path d="M 135.9859161376953 34.581058502197266 C 106.25035095214844 25.747255325317383 135.60995483398438 40.55609130859375 122.53069305419922 82.40599060058594" stroke-width="3.0" fill="none" stroke="rgb(0, 0, 0)" stroke-opacity="1.0" stroke-linecap="round" stroke-linejoin="round"/>
    <path d="M 104.98579406738281 50.45616912841797 C 62.50966262817383 -3.5028064250946045 83.64356231689453 3.4684457778930664 121.46257781982422 32.93885803222656" stroke-width="3.0" fill="none" stroke="rgb(0, 0, 0)" stroke-opacity="1.0" stroke-linecap="round" stroke-linejoin="round"/>
    <path d="M 48.15058898925781 168.88145446777344 C 41.48571014404297 159.93743896484375 40.4516487121582 152.1475830078125 49.18183135986328 170.2166290283203" stroke-width="3.0" fill="none" stroke="rgb(0, 0, 0)" stroke-opacity="1.0" stroke-linecap="round" stroke-linejoin="round"/>
    <path d="M 47.32921600341797 78.81056213378906 C 16.527976989746094 124.38768768310547 38.672359466552734 141.3351593017578 45.69282913208008 167.05149841308594" stroke-width="3.0" fill="none" stroke="rgb(0, 0, 0)" stroke-opacity="1.0" stroke-linecap="round" stroke-linejoin="round"/>
    <path d="M 68.33623504638672 135.0585479736328 C 126.3436508178711 156.94473266601562 91.8676986694336 149.00259399414062 84.81704711914062 142.71910095214844" stroke-width="3.0" fill="none" stroke="rgb(0, 0, 0)" stroke-opacity="1.0" stroke-linecap="round" stroke-linejoin="round"/>
    <path d="M 85.3770523071289 199.74957275390625 C 69.9186782836914 203.32965087890625 47.78718566894531 175.79092407226562 46.300113677978516 168.0321807861328" stroke-width="3.0" fill="none" stroke="rgb(0, 0, 0)" stroke-opacity="1.0" stroke-linecap="round" stroke-linejoin="round"/>
    <path d="M 48.62607192993164 169.8056182861328 C 66.09050750732422 197.40676879882812 48.90240478515625 170.94329833984375 38.46847152709961 151.8522491455078" stroke-width="3.0" fill="none" stroke="rgb(0, 0, 0)" stroke-opacity="1.0" stroke-linecap="round" stroke-linejoin="round"/>
    <path d="M 81.09040069580078 53.841705322265625 C 55.95193099975586 60.29058837890625 55.08528518676758 72.38240051269531 31.605852127075195 108.57011413574219" stroke-width="3.0" fill="none" stroke="rgb(0, 0, 0)" stroke-opacity="1.0" stroke-linecap="round" stroke-linejoin="round"/>
    <path d="M 160.68409729003906 138.2025146484375 C 102.10195922851562 155.1070556640625 86.33914184570312 153.16696166992188 148.36102294921875 144.31658935546875" stroke-width="3.0" fill="none" stroke="rgb(0, 0, 0)" stroke-opacity="1.0" stroke-linecap="round" stroke-linejoin="round"/>
    <path d="M 150.06173706054688 28.219572067260742 C 141.03997802734375 33.739986419677734 129.73031616210938 13.055716514587402 139.26971435546875 84.78257751464844" stroke-width="3.0" fill="none" stroke="rgb(0, 0, 0)" stroke-opacity="1.0" stroke-linecap="round" stroke-linejoin="round"/>
    <path d="M 146.94163513183594 101.48352813720703 C 123.99759674072266 113.51609802246094 122.7429428100586 107.46077728271484 114.5874252319336 93.75053405761719" stroke-width="3.0" fill="none" stroke="rgb(0, 0, 0)" stroke-opacity="1.0" stroke-linecap="round" stroke-linejoin="round"/>
    <path d="M 138.8271942138672 71.5411148071289 C 137.26296997070312 51.206939697265625 133.5919647216797 72.46074676513672 140.4956512451172 78.09586334228516" stroke-width="3.0" fill="none" stroke="rgb(0, 0, 0)" stroke-opacity="1.0" stroke-linecap="round" stroke-linejoin="round"/>
    <path d="M 141.16680908203125 161.63735961914062 C 126.85733795166016 178.3779296875 140.9753875732422 169.01588439941406 146.84945678710938 145.30686950683594" stroke-width="3.0" fill="none" stroke="rgb(0, 0, 0)" stroke-opacity="1.0" stroke-linecap="round" stroke-linejoin="round"/>
    <path d="M 196.1161651611328 95.75312042236328 C 163.95228576660156 71.2596664428711 164.19227600097656 80.270263671875 182.67843627929688 95.39598083496094" stroke-width="3.0" fill="none" stroke="rgb(0, 0, 0)" stroke-opacity="1.0" stroke-linecap="round" stroke-linejoin="round"/>
    <path d="M 154.51280212402344 77.55049133300781 C 130.4381561279297 53.05363845825195 196.86843872070312 94.33419799804688 182.63734436035156 60.877906799316406" stroke-width="3.0" fill="none" stroke="rgb(0, 0, 0)" stroke-opacity="1.0" stroke-linecap="round" stroke-linejoin="round"/>
    <path d="M 115.7929916381836 81.59408569335938 C 80.6091537475586 71.12541961669922 145.5550994873047 76.08487701416016 106.07793426513672 82.93092346191406" stroke-width="3.0" fill="none" stroke="rgb(0, 0, 0)" stroke-opacity="1.0" stroke-linecap="round" stroke-linejoin="round"/>
    <path d="M 169.62356567382812 127.826416015625 C 149.21205139160156 158.33604431152344 106.05113983154297 146.0669708251953 100.56195068359375 152.0555877685547" stroke-width="3.0" fill="none" stroke="rgb(0, 0, 0)" stroke-opacity="1.0" stroke-linecap="round" stroke-linejoin="round"/>
    <path d="M 125.08606719970703 89.2507553100586 C 145.81564331054688 101.28834533691406 130.00247192382812 73.23049926757812 128.18624877929688 104.81277465820312" stroke-width="3.0" fill="none" stroke="rgb(0, 0, 0)" stroke-opacity="1.0" stroke-linecap="round" stroke-linejoin="round"/>
    <path d="M 188.9464874267578 108.83232116699219 C 155.1710205078125 90.23676300048828 174.48117065429688 94.40885925292969 143.7672882080078 87.04627990722656" stroke-width="3.0" fill="none" stroke="rgb(0, 0, 0)" stroke-opacity="1.0" stroke-linecap="round" stroke-linejoin="round"/>
    <path d="M 82.70651245117188 13.407007217407227 C 116.66141510009766 27.92966079711914 96.52913665771484 34.66556167602539 136.54330444335938 31.67540740966797" stroke-width="3.0" fill="none" stroke="rgb(0, 0, 0)" stroke-opacity="1.0" stroke-linecap="round" stroke-linejoin="round"/>
    <path d="M 59.50230407714844 118.96770477294922 C 61.08695983886719 109.70848846435547 57.054466247558594 120.55303955078125 64.88127136230469 128.1513214111328" stroke-width="3.0" fill="none" stroke="rgb(0, 0, 0)" stroke-opacity="1.0" stroke-linecap="round" stroke-linejoin="round"/>
    <path d="M 135.38084411621094 106.71497344970703 C 123.447265625 90.1517562866211 120.33402252197266 116.6900405883789 113.27183532714844 88.42417907714844" stroke-width="3.0" fill="none" stroke="rgb(0, 0, 0)" stroke-opacity="1.0" stroke-linecap="round" stroke-linejoin="round"/>
    <path d="M 32.17023849487305 133.9066162109375 C 28.613067626953125 116.51968383789062 31.582536697387695 82.97710418701172 61.019439697265625 65.92115020751953" stroke-width="3.0" fill="none" stroke="rgb(0, 0, 0)" stroke-opacity="1.0" stroke-linecap="round" stroke-linejoin="round"/>
    <path d="M 103.263916015625 200.26072692871094 C 66.96241760253906 200.58998107910156 70.70796966552734 199.2574462890625 102.03911590576172 200.52874755859375" stroke-width="3.0" fill="none" stroke="rgb(0, 0, 0)" stroke-opacity="1.0" stroke-linecap="round" stroke-linejoin="round"/>
    <path d="M 169.7238311767578 127.68785858154297 C 206.25387573242188 110.82813262939453 186.77175903320312 93.57176208496094 156.49673461914062 85.35281372070312" stroke-width="3.0" fill="none" stroke="rgb(0, 0, 0)" stroke-opacity="1.0" stroke-linecap="round" stroke-linejoin="round"/>
    <path d="M 147.32669067382812 68.09921264648438 C 136.5076141357422 89.0095443725586 178.33367919921875 74.56952667236328 144.95858764648438 72.48502349853516" stroke-width="3.0" fill="none" stroke="rgb(0, 0, 0)" stroke-opacity="1.0" stroke-linecap="round" stroke-linejoin="round"/>
    <path d="M 140.4698028564453 74.53128814697266 C 137.97486877441406 38.836936950683594 193.11619567871094 112.40532684326172 178.419677734375 42.49788284301758" stroke-width="3.0" fill="none" stroke="rgb(0, 0, 0)" stroke-opacity="1.0" stroke-linecap="round" stroke-linejoin="round"/>
    <path d="M 150.82347106933594 99.9599609375 C 167.2773895263672 102.79666900634766 169.8448028564453 101.79013061523438 183.2111358642578 118.12114715576172" stroke-width="3.0" fill="none" stroke="rgb(0, 0, 0)" stroke-opacity="1.0" stroke-linecap="round" stroke-linejoin="round"/>
    <path d="M 180.89932250976562 21.001415252685547 C 175.17872619628906 44.55364227294922 164.9357452392578 17.372303009033203 153.87811279296875 33.57965850830078" stroke-width="3.0" fill="none" stroke="rgb(0, 0, 0)" stroke-opacity="1.0" stroke-linecap="round" stroke-linejoin="round"/>
    <path d="M 121.48178100585938 103.1795654296875 C 148.2552490234375 102.85469818115234 135.78338623046875 112.84314727783203 118.69596862792969 102.89352416992188" stroke-width="3.0" fill="none" stroke="rgb(0, 0, 0)" stroke-opacity="1.0" stroke-linecap="round" stroke-linejoin="round"/>
    <path d="M 63.59127426147461 117.52922058105469 C 55.03738021850586 114.02793884277344 60.97860336303711 110.42351531982422 61.53776550292969 118.90884399414062" stroke-width="3.0" fill="none" stroke="rgb(0, 0, 0)" stroke-opacity="1.0" stroke-linecap="round" stroke-linejoin="round"/>
    <path d="M 122.76335906982422 76.16732025146484 C 121.12250518798828 40.588951110839844 112.79684448242188 58.32862854003906 115.56908416748047 37.143978118896484" stroke-width="3.0" fill="none" stroke="rgb(0, 0, 0)" stroke-opacity="1.0" stroke-linecap="round" stroke-linejoin="round"/>
    <path d="M 151.41256713867188 25.643823623657227 C 143.73196411132812 34.58810043334961 165.2992706298828 5.607755184173584 179.17572021484375 8.860438346862793" stroke-width="3.0" fill="none" stroke="rgb(0, 0, 0)" stroke-opacity="1.0" stroke-linecap="round" stroke-linejoin="round"/>
  </g>
</svg>
