<?xml version="1.0" ?>
<svg xmlns="http://www.w3.org/2000/svg" version="1.1" width="224" height="224">
  <defs/>
  <g>
    <path d="M 64.87999725341797 77.53103637695312 C 65.99046325683594 77.98311614990234 68.43506622314453 81.86145782470703 59.248287200927734 71.18055725097656" stroke-width="3.0" fill="none" stroke="rgb(0, 0, 0)" stroke-opacity="1.0" stroke-linecap="round" stroke-linejoin="round"/>
    <path d="M 185.6736297607422 120.94906616210938 C 182.311767578125 119.53978729248047 200.7897186279297 95.82908630371094 176.8074188232422 128.05435180664062" stroke-width="3.0" fill="none" stroke="rgb(0, 0, 0)" stroke-opacity="1.0" stroke-linecap="round" stroke-linejoin="round"/>
    <path d="M 62.2315559387207 124.53434753417969 C 58.27048110961914 97.602783203125 54.174827575683594 129.90065002441406 71.29705810546875 128.35324096679688" stroke-width="3.0" fill="none" stroke="rgb(0, 0, 0)" stroke-opacity="1.0" stroke-linecap="round" stroke-linejoin="round"/>
    <path d="M 184.35256958007812 99.02124786376953 C 145.10726928710938 89.1113052368164 174.68382263183594 78.7728271484375 195.89564514160156 112.569580078125" stroke-width="3.0" fill="none" stroke="rgb(0, 0, 0)" stroke-opacity="1.0" stroke-linecap="round" stroke-linejoin="round"/>
    <path d="M 183.2726593017578 60.10394287109375 C 172.64463806152344 114.44926452636719 185.33761596679688 103.25526428222656 183.31088256835938 70.61959838867188" stroke-width="3.0" fill="none" stroke="rgb(0, 0, 0)" stroke-opacity="1.0" stroke-linecap="round" stroke-linejoin="round"/>
    <path d="M 120.54629516601562 105.48091125488281 C 148.5275115966797 116.55394744873047 113.39434814453125 93.3198471069336 136.85238647460938 104.25676727294922" stroke-width="3.0" fill="none" stroke="rgb(0, 0, 0)" stroke-opacity="1.0" stroke-linecap="round" stroke-linejoin="round"/>
    <path d="M 168.90391540527344 96.77384185791016 C 189.12777709960938 86.66980743408203 177.5444793701172 71.45236206054688 157.02879333496094 83.67208862304688" stroke-width="3.0" fill="none" stroke="rgb(0, 0, 0)" stroke-opacity="1.0" stroke-linecap="round" stroke-linejoin="round"/>
    <path d="M 58.370079040527344 184.14390563964844 C 37.107479095458984 156.68313598632812 46.889339447021484 166.94004821777344 50.650550842285156 173.25469970703125" stroke-width="3.0" fill="none" stroke="rgb(0, 0, 0)" stroke-opacity="1.0" stroke-linecap="round" stroke-linejoin="round"/>
    <path d="M 56.65895462036133 183.04669189453125 C 97.9560775756836 211.8313751220703 110.7440414428711 196.94979858398438 130.62612915039062 179.3258056640625" stroke-width="3.0" fill="none" stroke="rgb(0, 0, 0)" stroke-opacity="1.0" stroke-linecap="round" stroke-linejoin="round"/>
    <path d="M 85.43609619140625 32.345558166503906 C 97.12327575683594 78.02921295166016 82.87035369873047 10.582444190979004 82.81507110595703 58.34626770019531" stroke-width="3.0" fill="none" stroke="rgb(0, 0, 0)" stroke-opacity="1.0" stroke-linecap="round" stroke-linejoin="round"/>
    <path d="M 58.208316802978516 103.6612319946289 C 62.51668167114258 137.22032165527344 96.00263977050781 160.34234619140625 94.36984252929688 149.48023986816406" stroke-width="3.0" fill="none" stroke="rgb(0, 0, 0)" stroke-opacity="1.0" stroke-linecap="round" stroke-linejoin="round"/>
    <path d="M 144.76930236816406 71.75224304199219 C 203.6734619140625 67.79988861083984 189.77294921875 83.77375793457031 149.25332641601562 84.62281799316406" stroke-width="3.0" fill="none" stroke="rgb(0, 0, 0)" stroke-opacity="1.0" stroke-linecap="round" stroke-linejoin="round"/>
    <path d="M 151.3828582763672 96.50401306152344 C 188.62892150878906 109.26097106933594 178.65968322753906 106.05654907226562 196.6861114501953 114.08328247070312" stroke-width="3.0" fill="none" stroke="rgb(0, 0, 0)" stroke-opacity="1.0" stroke-linecap="round" stroke-linejoin="round"/>
    <path d="M 128.73033142089844 159.32272338867188 C 145.31912231445312 150.6144256591797 124.04216003417969 156.0925750732422 110.4239273071289 156.34725952148438" stroke-width="3.0" fill="none" stroke="rgb(0, 0, 0)" stroke-opacity="1.0" stroke-linecap="round" stroke-linejoin="round"/>
    <path d="M 179.554443359375 8.884588241577148 C 187.4818115234375 24.29435920715332 174.6715087890625 62.697200775146484 178.2371826171875 50.4759521484375" stroke-width="3.0" fill="none" stroke="rgb(0, 0, 0)" stroke-opacity="1.0" stroke-linecap="round" stroke-linejoin="round"/>
    <path d="M 128.60047912597656 31.57649803161621 C 119.06578826904297 58.22538375854492 128.50750732421875 36.4295539855957 123.96820831298828 68.26685333251953" stroke-width="3.0" fill="none" stroke="rgb(0, 0, 0)" stroke-opacity="1.0" stroke-linecap="round" stroke-linejoin="round"/>
    <path d="M 86.7138671875 53.673622131347656 C 76.13567352294922 -8.691052436828613 83.01042175292969 -0.623785674571991 106.25521850585938 40.19558334350586" stroke-width="3.0" fill="none" stroke="rgb(0, 0, 0)" stroke-opacity="1.0" stroke-linecap="round" stroke-linejoin="round"/>
    <path d="M 46.66849899291992 166.9143524169922 C 38.935997009277344 153.3326416015625 37.11812210083008 143.4569549560547 46.55605697631836 167.01040649414062" stroke-width="3.0" fill="none" stroke="rgb(0, 0, 0)" stroke-opacity="1.0" stroke-linecap="round" stroke-linejoin="round"/>
    <path d="M 34.144535064697266 98.66423797607422 C 20.3265380859375 126.59591674804688 38.913352966308594 145.9814910888672 41.67725372314453 156.01937866210938" stroke-width="3.0" fill="none" stroke="rgb(0, 0, 0)" stroke-opacity="1.0" stroke-linecap="round" stroke-linejoin="round"/>
    <path d="M 87.74981689453125 147.60910034179688 C 106.56616973876953 162.57815551757812 108.44752502441406 164.50222778320312 103.39451599121094 154.87200927734375" stroke-width="3.0" fill="none" stroke="rgb(0, 0, 0)" stroke-opacity="1.0" stroke-linecap="round" stroke-linejoin="round"/>
    <path d="M 85.193359375 197.34725952148438 C 69.05322265625 199.73443603515625 50.39432144165039 177.1045379638672 47.96017837524414 171.35693359375" stroke-width="3.0" fill="none" stroke="rgb(0, 0, 0)" stroke-opacity="1.0" stroke-linecap="round" stroke-linejoin="round"/>
    <path d="M 47.54374313354492 169.0998992919922 C 61.46134948730469 193.10610961914062 43.25967788696289 166.35511779785156 39.9613151550293 151.08737182617188" stroke-width="3.0" fill="none" stroke="rgb(0, 0, 0)" stroke-opacity="1.0" stroke-linecap="round" stroke-linejoin="round"/>
    <path d="M 78.5884017944336 54.72935104370117 C 62.697383880615234 59.081295013427734 46.96833801269531 71.93550872802734 31.373048782348633 106.06604766845703" stroke-width="3.0" fill="none" stroke="rgb(0, 0, 0)" stroke-opacity="1.0" stroke-linecap="round" stroke-linejoin="round"/>
    <path d="M 151.8771514892578 141.8314208984375 C 124.11772155761719 159.6969451904297 117.43051147460938 154.407470703125 133.14593505859375 158.32659912109375" stroke-width="3.0" fill="none" stroke="rgb(0, 0, 0)" stroke-opacity="1.0" stroke-linecap="round" stroke-linejoin="round"/>
    <path d="M 142.7416534423828 29.69719696044922 C 148.18653869628906 49.34935760498047 135.85499572753906 49.67581558227539 136.19302368164062 80.11299896240234" stroke-width="3.0" fill="none" stroke="rgb(0, 0, 0)" stroke-opacity="1.0" stroke-linecap="round" stroke-linejoin="round"/>
    <path d="M 146.4811248779297 100.14844512939453 C 128.35572814941406 110.97806549072266 130.26708984375 112.14476776123047 120.15443420410156 105.31964874267578" stroke-width="3.0" fill="none" stroke="rgb(0, 0, 0)" stroke-opacity="1.0" stroke-linecap="round" stroke-linejoin="round"/>
    <path d="M 135.12271118164062 73.95537567138672 C 143.93222045898438 54.50474548339844 131.54959106445312 59.70069122314453 135.78628540039062 78.51298522949219" stroke-width="3.0" fill="none" stroke="rgb(0, 0, 0)" stroke-opacity="1.0" stroke-linecap="round" stroke-linejoin="round"/>
    <path d="M 131.32943725585938 178.62350463867188 C 126.78398895263672 182.95945739746094 137.00758361816406 179.05221557617188 145.51622009277344 147.66497802734375" stroke-width="3.0" fill="none" stroke="rgb(0, 0, 0)" stroke-opacity="1.0" stroke-linecap="round" stroke-linejoin="round"/>
    <path d="M 193.4288330078125 97.2718505859375 C 165.5154266357422 71.14617919921875 157.0797576904297 80.71761322021484 186.61891174316406 92.63308715820312" stroke-width="3.0" fill="none" stroke="rgb(0, 0, 0)" stroke-opacity="1.0" stroke-linecap="round" stroke-linejoin="round"/>
    <path d="M 148.08734130859375 75.6014175415039 C 157.80169677734375 59.63995361328125 192.5367889404297 91.87982177734375 179.28338623046875 67.4642333984375" stroke-width="3.0" fill="none" stroke="rgb(0, 0, 0)" stroke-opacity="1.0" stroke-linecap="round" stroke-linejoin="round"/>
    <path d="M 115.11662292480469 81.02188110351562 C 86.09130096435547 74.87105560302734 141.47384643554688 73.07559204101562 109.32719421386719 82.10755157470703" stroke-width="3.0" fill="none" stroke="rgb(0, 0, 0)" stroke-opacity="1.0" stroke-linecap="round" stroke-linejoin="round"/>
    <path d="M 157.39303588867188 134.88082885742188 C 126.71701049804688 168.49095153808594 122.5627670288086 153.77944946289062 105.31280517578125 159.66622924804688" stroke-width="3.0" fill="none" stroke="rgb(0, 0, 0)" stroke-opacity="1.0" stroke-linecap="round" stroke-linejoin="round"/>
    <path d="M 125.38785552978516 89.80363464355469 C 143.61228942871094 102.50765991210938 134.99037170410156 68.94692993164062 127.44305419921875 106.737060546875" stroke-width="3.0" fill="none" stroke="rgb(0, 0, 0)" stroke-opacity="1.0" stroke-linecap="round" stroke-linejoin="round"/>
    <path d="M 187.64840698242188 113.65129852294922 C 175.48684692382812 84.2273941040039 182.92593383789062 97.1904067993164 141.34207153320312 83.5163345336914" stroke-width="3.0" fill="none" stroke="rgb(0, 0, 0)" stroke-opacity="1.0" stroke-linecap="round" stroke-linejoin="round"/>
    <path d="M 84.02601623535156 8.22105598449707 C 105.68572998046875 10.888006210327148 118.29590606689453 38.055213928222656 120.7853775024414 30.183860778808594" stroke-width="3.0" fill="none" stroke="rgb(0, 0, 0)" stroke-opacity="1.0" stroke-linecap="round" stroke-linejoin="round"/>
    <path d="M 64.91385650634766 125.63168334960938 C 65.46662902832031 110.42648315429688 63.65467834472656 128.19625854492188 63.5568962097168 123.09146118164062" stroke-width="3.0" fill="none" stroke="rgb(0, 0, 0)" stroke-opacity="1.0" stroke-linecap="round" stroke-linejoin="round"/>
    <path d="M 136.3314971923828 104.70816040039062 C 127.56936645507812 91.5291976928711 117.08719635009766 113.52088928222656 112.88260650634766 87.40472412109375" stroke-width="3.0" fill="none" stroke="rgb(0, 0, 0)" stroke-opacity="1.0" stroke-linecap="round" stroke-linejoin="round"/>
    <path d="M 31.2951717376709 133.24635314941406 C 23.74701690673828 98.73516845703125 39.1512451171875 101.67146301269531 46.911441802978516 77.69560241699219" stroke-width="3.0" fill="none" stroke="rgb(0, 0, 0)" stroke-opacity="1.0" stroke-linecap="round" stroke-linejoin="round"/>
    <path d="M 77.64937591552734 195.9949951171875 C 71.44402313232422 193.134521484375 67.75699615478516 192.8466033935547 93.66543579101562 199.40390014648438" stroke-width="3.0" fill="none" stroke="rgb(0, 0, 0)" stroke-opacity="1.0" stroke-linecap="round" stroke-linejoin="round"/>
    <path d="M 158.8163604736328 131.86569213867188 C 204.0570068359375 121.40550231933594 175.988037109375 99.91500091552734 156.49256896972656 92.43467712402344" stroke-width="3.0" fill="none" stroke="rgb(0, 0, 0)" stroke-opacity="1.0" stroke-linecap="round" stroke-linejoin="round"/>
    <path d="M 157.98988342285156 71.1224136352539 C 133.17005920410156 85.62117767333984 172.21176147460938 79.28459930419922 148.14219665527344 68.16604614257812" stroke-width="3.0" fill="none" stroke="rgb(0, 0, 0)" stroke-opacity="1.0" stroke-linecap="round" stroke-linejoin="round"/>
    <path d="M 142.65353393554688 78.62178039550781 C 150.0460662841797 41.78212356567383 195.23675537109375 112.95780944824219 178.70452880859375 46.37063980102539" stroke-width="3.0" fill="none" stroke="rgb(0, 0, 0)" stroke-opacity="1.0" stroke-linecap="round" stroke-linejoin="round"/>
    <path d="M 158.82858276367188 99.9208984375 C 169.9011993408203 108.7748031616211 170.91737365722656 101.82635498046875 179.24472045898438 120.27538299560547" stroke-width="3.0" fill="none" stroke="rgb(0, 0, 0)" stroke-opacity="1.0" stroke-linecap="round" stroke-linejoin="round"/>
    <path d="M 176.51454162597656 15.337006568908691 C 164.11134338378906 41.87665939331055 174.38807678222656 20.397075653076172 158.44561767578125 34.98863983154297" stroke-width="3.0" fill="none" stroke="rgb(0, 0, 0)" stroke-opacity="1.0" stroke-linecap="round" stroke-linejoin="round"/>
    <path d="M 119.90373992919922 104.4512939453125 C 144.160888671875 101.80001831054688 135.1336669921875 113.25830841064453 119.152099609375 101.10187530517578" stroke-width="3.0" fill="none" stroke="rgb(0, 0, 0)" stroke-opacity="1.0" stroke-linecap="round" stroke-linejoin="round"/>
    <path d="M 77.32278442382812 138.02566528320312 C 52.94529724121094 120.72734069824219 61.7066535949707 111.75370025634766 61.441139221191406 121.56421661376953" stroke-width="3.0" fill="none" stroke="rgb(0, 0, 0)" stroke-opacity="1.0" stroke-linecap="round" stroke-linejoin="round"/>
    <path d="M 123.70501708984375 73.88287353515625 C 124.45564270019531 39.56005096435547 115.65660858154297 57.48964309692383 120.63349914550781 34.5367317199707" stroke-width="3.0" fill="none" stroke="rgb(0, 0, 0)" stroke-opacity="1.0" stroke-linecap="round" stroke-linejoin="round"/>
    <path d="M 150.35931396484375 26.1871337890625 C 144.72154235839844 36.10383605957031 158.12188720703125 9.636900901794434 176.53985595703125 8.7628755569458" stroke-width="3.0" fill="none" stroke="rgb(0, 0, 0)" stroke-opacity="1.0" stroke-linecap="round" stroke-linejoin="round"/>
  </g>
</svg>
