<?xml version="1.0" ?>
<svg xmlns="http://www.w3.org/2000/svg" version="1.1" width="224" height="224">
  <defs/>
  <g>
    <path d="M 50.37287139892578 117.44969177246094 C 54.347877502441406 118.6009521484375 39.60358428955078 106.68003845214844 39.782264709472656 99.65997314453125" stroke-width="3.0" fill="none" stroke="rgb(0, 0, 0)" stroke-opacity="1.0" stroke-linecap="round" stroke-linejoin="round"/>
    <path d="M 182.90640258789062 127.32035064697266 C 183.20050048828125 117.74659729003906 187.65538024902344 116.52784729003906 188.30484008789062 120.32063293457031" stroke-width="3.0" fill="none" stroke="rgb(0, 0, 0)" stroke-opacity="1.0" stroke-linecap="round" stroke-linejoin="round"/>
    <path d="M 49.868526458740234 115.23162078857422 C 50.0127067565918 110.73424530029297 46.23508071899414 112.92120361328125 54.458656311035156 122.27725982666016" stroke-width="3.0" fill="none" stroke="rgb(0, 0, 0)" stroke-opacity="1.0" stroke-linecap="round" stroke-linejoin="round"/>
    <path d="M 179.62277221679688 98.2166748046875 C 152.63580322265625 92.6991958618164 170.42538452148438 83.54138946533203 197.46961975097656 113.86183166503906" stroke-width="3.0" fill="none" stroke="rgb(0, 0, 0)" stroke-opacity="1.0" stroke-linecap="round" stroke-linejoin="round"/>
    <path d="M 184.53057861328125 75.14195251464844 C 181.4143524169922 98.1208267211914 172.59085083007812 88.6183853149414 184.98562622070312 64.82495880126953" stroke-width="3.0" fill="none" stroke="rgb(0, 0, 0)" stroke-opacity="1.0" stroke-linecap="round" stroke-linejoin="round"/>
    <path d="M 131.51820373535156 102.7557601928711 C 149.13758850097656 115.61786651611328 104.80587768554688 108.89132690429688 134.26211547851562 108.48570251464844" stroke-width="3.0" fill="none" stroke="rgb(0, 0, 0)" stroke-opacity="1.0" stroke-linecap="round" stroke-linejoin="round"/>
    <path d="M 164.26683044433594 98.67749786376953 C 195.74049377441406 71.57493591308594 182.48292541503906 74.09844970703125 150.73985290527344 87.1937255859375" stroke-width="3.0" fill="none" stroke="rgb(0, 0, 0)" stroke-opacity="1.0" stroke-linecap="round" stroke-linejoin="round"/>
    <path d="M 52.8977165222168 178.66021728515625 C 35.97879409790039 151.5596160888672 47.61025619506836 161.45118713378906 41.30365753173828 152.3143310546875" stroke-width="3.0" fill="none" stroke="rgb(0, 0, 0)" stroke-opacity="1.0" stroke-linecap="round" stroke-linejoin="round"/>
    <path d="M 65.85734558105469 190.04209899902344 C 88.53498840332031 201.5201873779297 109.95894622802734 197.9313201904297 110.783935546875 197.04632568359375" stroke-width="3.0" fill="none" stroke="rgb(0, 0, 0)" stroke-opacity="1.0" stroke-linecap="round" stroke-linejoin="round"/>
    <path d="M 88.14146423339844 30.609609603881836 C 88.26543426513672 66.4591064453125 89.72675323486328 19.804052352905273 89.23350524902344 42.58004379272461" stroke-width="3.0" fill="none" stroke="rgb(0, 0, 0)" stroke-opacity="1.0" stroke-linecap="round" stroke-linejoin="round"/>
    <path d="M 54.690860748291016 128.58816528320312 C 67.7564926147461 140.5816650390625 88.82999420166016 149.45921325683594 91.0211181640625 145.7510986328125" stroke-width="3.0" fill="none" stroke="rgb(0, 0, 0)" stroke-opacity="1.0" stroke-linecap="round" stroke-linejoin="round"/>
    <path d="M 149.1731414794922 70.26070404052734 C 204.80010986328125 71.0030288696289 182.3104705810547 84.86563873291016 145.27542114257812 88.17151641845703" stroke-width="3.0" fill="none" stroke="rgb(0, 0, 0)" stroke-opacity="1.0" stroke-linecap="round" stroke-linejoin="round"/>
    <path d="M 148.39828491210938 99.53590393066406 C 174.68988037109375 102.28207397460938 171.8238983154297 99.47541809082031 189.214599609375 110.40744018554688" stroke-width="3.0" fill="none" stroke="rgb(0, 0, 0)" stroke-opacity="1.0" stroke-linecap="round" stroke-linejoin="round"/>
    <path d="M 97.72787475585938 152.665771484375 C 124.08949279785156 157.0394744873047 111.04509735107422 187.52963256835938 112.3603286743164 184.92333984375" stroke-width="3.0" fill="none" stroke="rgb(0, 0, 0)" stroke-opacity="1.0" stroke-linecap="round" stroke-linejoin="round"/>
    <path d="M 172.4434356689453 9.548798561096191 C 196.34881591796875 0.4887979030609131 173.89535522460938 50.4829216003418 183.63291931152344 60.97128677368164" stroke-width="3.0" fill="none" stroke="rgb(0, 0, 0)" stroke-opacity="1.0" stroke-linecap="round" stroke-linejoin="round"/>
    <path d="M 131.01356506347656 30.335718154907227 C 127.9815902709961 54.625160217285156 134.8295135498047 38.463687896728516 131.0064697265625 67.70916748046875" stroke-width="3.0" fill="none" stroke="rgb(0, 0, 0)" stroke-opacity="1.0" stroke-linecap="round" stroke-linejoin="round"/>
    <path d="M 93.20753479003906 45.0052375793457 C 72.11930084228516 1.225953459739685 83.60905456542969 5.503707408905029 103.6793441772461 34.56363296508789" stroke-width="3.0" fill="none" stroke="rgb(0, 0, 0)" stroke-opacity="1.0" stroke-linecap="round" stroke-linejoin="round"/>
    <path d="M 44.630157470703125 161.52447509765625 C 40.94921875 152.2292938232422 38.74660110473633 151.60662841796875 42.0147705078125 154.0970458984375" stroke-width="3.0" fill="none" stroke="rgb(0, 0, 0)" stroke-opacity="1.0" stroke-linecap="round" stroke-linejoin="round"/>
    <path d="M 31.77782440185547 108.77578735351562 C 25.582073211669922 127.52175903320312 35.760337829589844 143.00164794921875 41.976104736328125 154.70260620117188" stroke-width="3.0" fill="none" stroke="rgb(0, 0, 0)" stroke-opacity="1.0" stroke-linecap="round" stroke-linejoin="round"/>
    <path d="M 85.40129089355469 146.47120666503906 C 99.78366088867188 154.95046997070312 101.68852996826172 156.2864990234375 97.0768814086914 153.81735229492188" stroke-width="3.0" fill="none" stroke="rgb(0, 0, 0)" stroke-opacity="1.0" stroke-linecap="round" stroke-linejoin="round"/>
    <path d="M 75.85169982910156 195.7515106201172 C 46.98247528076172 180.18228149414062 62.00092315673828 181.4988250732422 47.57300567626953 171.114990234375" stroke-width="3.0" fill="none" stroke="rgb(0, 0, 0)" stroke-opacity="1.0" stroke-linecap="round" stroke-linejoin="round"/>
    <path d="M 43.51283645629883 163.79164123535156 C 57.89303970336914 182.95790100097656 41.729610443115234 160.91810607910156 39.17215347290039 149.92886352539062" stroke-width="3.0" fill="none" stroke="rgb(0, 0, 0)" stroke-opacity="1.0" stroke-linecap="round" stroke-linejoin="round"/>
    <path d="M 84.7184066772461 55.69129180908203 C 59.62736511230469 50.3111457824707 47.272796630859375 75.9816665649414 30.81655502319336 107.85550689697266" stroke-width="3.0" fill="none" stroke="rgb(0, 0, 0)" stroke-opacity="1.0" stroke-linecap="round" stroke-linejoin="round"/>
    <path d="M 147.33193969726562 142.51187133789062 C 142.689697265625 165.37588500976562 121.95242309570312 151.35601806640625 133.228759765625 160.16319274902344" stroke-width="3.0" fill="none" stroke="rgb(0, 0, 0)" stroke-opacity="1.0" stroke-linecap="round" stroke-linejoin="round"/>
    <path d="M 139.4982452392578 32.436031341552734 C 148.2405548095703 61.707828521728516 136.09397888183594 52.91897201538086 141.10958862304688 81.97003173828125" stroke-width="3.0" fill="none" stroke="rgb(0, 0, 0)" stroke-opacity="1.0" stroke-linecap="round" stroke-linejoin="round"/>
    <path d="M 143.63638305664062 101.08944702148438 C 115.5999984741211 106.53250885009766 108.49714660644531 101.95842742919922 128.94927978515625 111.75314331054688" stroke-width="3.0" fill="none" stroke="rgb(0, 0, 0)" stroke-opacity="1.0" stroke-linecap="round" stroke-linejoin="round"/>
    <path d="M 138.85411071777344 72.47513580322266 C 148.08287048339844 52.04706573486328 150.79527282714844 57.000919342041016 142.45204162597656 65.51520538330078" stroke-width="3.0" fill="none" stroke="rgb(0, 0, 0)" stroke-opacity="1.0" stroke-linecap="round" stroke-linejoin="round"/>
    <path d="M 125.21134948730469 186.62782287597656 C 93.66497802734375 201.7788848876953 124.31980895996094 203.56907653808594 138.7021484375 159.3911895751953" stroke-width="3.0" fill="none" stroke="rgb(0, 0, 0)" stroke-opacity="1.0" stroke-linecap="round" stroke-linejoin="round"/>
    <path d="M 195.49862670898438 95.78426361083984 C 159.38967895507812 69.04812622070312 132.1923065185547 97.41864776611328 185.21969604492188 86.07015991210938" stroke-width="3.0" fill="none" stroke="rgb(0, 0, 0)" stroke-opacity="1.0" stroke-linecap="round" stroke-linejoin="round"/>
    <path d="M 164.32315063476562 70.9631118774414 C 188.57867431640625 62.766815185546875 194.97679138183594 79.76626586914062 168.56138610839844 72.13674926757812" stroke-width="3.0" fill="none" stroke="rgb(0, 0, 0)" stroke-opacity="1.0" stroke-linecap="round" stroke-linejoin="round"/>
    <path d="M 113.20768737792969 79.8046875 C 84.87276458740234 70.22510528564453 139.70701599121094 73.56996154785156 106.38098907470703 80.79058074951172" stroke-width="3.0" fill="none" stroke="rgb(0, 0, 0)" stroke-opacity="1.0" stroke-linecap="round" stroke-linejoin="round"/>
    <path d="M 139.48362731933594 158.1939697265625 C 129.5532684326172 156.4512481689453 124.7861328125 161.115234375 106.9729232788086 139.0647430419922" stroke-width="3.0" fill="none" stroke="rgb(0, 0, 0)" stroke-opacity="1.0" stroke-linecap="round" stroke-linejoin="round"/>
    <path d="M 121.37731170654297 92.07491302490234 C 138.93331909179688 99.26168060302734 132.5425567626953 78.16648864746094 127.64457702636719 100.04507446289062" stroke-width="3.0" fill="none" stroke="rgb(0, 0, 0)" stroke-opacity="1.0" stroke-linecap="round" stroke-linejoin="round"/>
    <path d="M 189.787109375 102.30706024169922 C 177.8528289794922 85.58924865722656 184.4101104736328 96.20093536376953 140.2473602294922 85.04106903076172" stroke-width="3.0" fill="none" stroke="rgb(0, 0, 0)" stroke-opacity="1.0" stroke-linecap="round" stroke-linejoin="round"/>
    <path d="M 83.64037322998047 10.67611312866211 C 111.47877502441406 21.19156265258789 114.68852996826172 35.54221725463867 124.6518783569336 30.94621467590332" stroke-width="3.0" fill="none" stroke="rgb(0, 0, 0)" stroke-opacity="1.0" stroke-linecap="round" stroke-linejoin="round"/>
    <path d="M 50.59171676635742 117.33087158203125 C 46.169315338134766 110.10435485839844 54.607643127441406 123.7703857421875 51.50516128540039 119.66334533691406" stroke-width="3.0" fill="none" stroke="rgb(0, 0, 0)" stroke-opacity="1.0" stroke-linecap="round" stroke-linejoin="round"/>
    <path d="M 111.29348754882812 103.77394104003906 C 97.43792724609375 87.75594329833984 113.6333236694336 109.37611389160156 101.84441375732422 90.7898178100586" stroke-width="3.0" fill="none" stroke="rgb(0, 0, 0)" stroke-opacity="1.0" stroke-linecap="round" stroke-linejoin="round"/>
    <path d="M 30.433645248413086 127.74652862548828 C 28.284887313842773 102.44830322265625 35.15119552612305 102.50332641601562 29.96562957763672 116.30754089355469" stroke-width="3.0" fill="none" stroke="rgb(0, 0, 0)" stroke-opacity="1.0" stroke-linecap="round" stroke-linejoin="round"/>
    <path d="M 88.60906219482422 198.48388671875 C 73.08390808105469 195.1319580078125 69.17288970947266 197.9528045654297 94.27936553955078 198.16305541992188" stroke-width="3.0" fill="none" stroke="rgb(0, 0, 0)" stroke-opacity="1.0" stroke-linecap="round" stroke-linejoin="round"/>
    <path d="M 146.7298126220703 146.81764221191406 C 212.72129821777344 115.05326843261719 180.59141540527344 101.15907287597656 153.20700073242188 93.99809265136719" stroke-width="3.0" fill="none" stroke="rgb(0, 0, 0)" stroke-opacity="1.0" stroke-linecap="round" stroke-linejoin="round"/>
    <path d="M 154.63449096679688 75.0533676147461 C 122.36335754394531 77.28892517089844 176.7037811279297 84.48371887207031 148.9833526611328 70.800048828125" stroke-width="3.0" fill="none" stroke="rgb(0, 0, 0)" stroke-opacity="1.0" stroke-linecap="round" stroke-linejoin="round"/>
    <path d="M 145.44735717773438 74.37413024902344 C 147.40045166015625 49.9963493347168 183.24786376953125 101.24569702148438 183.05442810058594 54.6929931640625" stroke-width="3.0" fill="none" stroke="rgb(0, 0, 0)" stroke-opacity="1.0" stroke-linecap="round" stroke-linejoin="round"/>
    <path d="M 149.10360717773438 98.81855010986328 C 160.4793701171875 102.87274932861328 172.16864013671875 109.30335235595703 184.90623474121094 116.04834747314453" stroke-width="3.0" fill="none" stroke="rgb(0, 0, 0)" stroke-opacity="1.0" stroke-linecap="round" stroke-linejoin="round"/>
    <path d="M 177.81210327148438 15.13088321685791 C 170.07627868652344 45.80805587768555 175.44781494140625 27.132099151611328 160.34173583984375 38.71863555908203" stroke-width="3.0" fill="none" stroke="rgb(0, 0, 0)" stroke-opacity="1.0" stroke-linecap="round" stroke-linejoin="round"/>
    <path d="M 127.07077026367188 104.22992706298828 C 146.51025390625 104.79277038574219 124.93577575683594 114.6166763305664 105.14408874511719 100.3487777709961" stroke-width="3.0" fill="none" stroke="rgb(0, 0, 0)" stroke-opacity="1.0" stroke-linecap="round" stroke-linejoin="round"/>
    <path d="M 49.82035446166992 117.11446380615234 C 52.4570198059082 116.50679016113281 44.54168701171875 110.26596069335938 58.8090705871582 131.15005493164062" stroke-width="3.0" fill="none" stroke="rgb(0, 0, 0)" stroke-opacity="1.0" stroke-linecap="round" stroke-linejoin="round"/>
    <path d="M 124.86015319824219 76.43749237060547 C 127.74065399169922 56.53338623046875 120.08775329589844 53.313682556152344 122.4768295288086 33.23454284667969" stroke-width="3.0" fill="none" stroke="rgb(0, 0, 0)" stroke-opacity="1.0" stroke-linecap="round" stroke-linejoin="round"/>
    <path d="M 144.31460571289062 30.51422119140625 C 144.15777587890625 40.15327072143555 150.06082153320312 16.506807327270508 175.77432250976562 8.82266902923584" stroke-width="3.0" fill="none" stroke="rgb(0, 0, 0)" stroke-opacity="1.0" stroke-linecap="round" stroke-linejoin="round"/>
  </g>
</svg>
