<?xml version="1.0" ?>
<svg xmlns="http://www.w3.org/2000/svg" version="1.1" width="224" height="224">
  <defs/>
  <g>
    <path d="M 55.836517333984375 116.14140319824219 C 56.43326950073242 118.8745346069336 47.27718734741211 112.37484741210938 44.82061004638672 93.64010620117188" stroke-width="3.0" fill="none" stroke="rgb(0, 0, 0)" stroke-opacity="1.0" stroke-linecap="round" stroke-linejoin="round"/>
    <path d="M 182.80563354492188 126.39585876464844 C 183.51956176757812 109.62567138671875 181.442626953125 112.8065414428711 187.64657592773438 120.58094024658203" stroke-width="3.0" fill="none" stroke="rgb(0, 0, 0)" stroke-opacity="1.0" stroke-linecap="round" stroke-linejoin="round"/>
    <path d="M 49.83509063720703 109.16917419433594 C 54.74570846557617 115.45948028564453 52.839874267578125 107.30015563964844 52.506168365478516 112.05545806884766" stroke-width="3.0" fill="none" stroke="rgb(0, 0, 0)" stroke-opacity="1.0" stroke-linecap="round" stroke-linejoin="round"/>
    <path d="M 187.24400329589844 100.79508209228516 C 157.96119689941406 94.6835708618164 174.04066467285156 83.2835693359375 194.60418701171875 112.86505126953125" stroke-width="3.0" fill="none" stroke="rgb(0, 0, 0)" stroke-opacity="1.0" stroke-linecap="round" stroke-linejoin="round"/>
    <path d="M 183.1910400390625 74.47792053222656 C 185.19052124023438 78.74967956542969 178.70521545410156 73.22614288330078 181.85592651367188 73.66441345214844" stroke-width="3.0" fill="none" stroke="rgb(0, 0, 0)" stroke-opacity="1.0" stroke-linecap="round" stroke-linejoin="round"/>
    <path d="M 129.8535614013672 99.99864959716797 C 125.76238250732422 113.11824035644531 119.0289077758789 106.07319641113281 136.16909790039062 104.28703308105469" stroke-width="3.0" fill="none" stroke="rgb(0, 0, 0)" stroke-opacity="1.0" stroke-linecap="round" stroke-linejoin="round"/>
    <path d="M 171.5445098876953 85.2719497680664 C 196.23065185546875 70.26445770263672 187.493408203125 73.10775756835938 161.76669311523438 84.0499496459961" stroke-width="3.0" fill="none" stroke="rgb(0, 0, 0)" stroke-opacity="1.0" stroke-linecap="round" stroke-linejoin="round"/>
    <path d="M 56.99673080444336 182.16725158691406 C 34.609275817871094 159.02740478515625 49.09614944458008 163.32736206054688 43.88304901123047 163.0304412841797" stroke-width="3.0" fill="none" stroke="rgb(0, 0, 0)" stroke-opacity="1.0" stroke-linecap="round" stroke-linejoin="round"/>
    <path d="M 68.75141143798828 190.15310668945312 C 93.41704559326172 200.81153869628906 115.0460205078125 199.1678924560547 94.00082397460938 188.85462951660156" stroke-width="3.0" fill="none" stroke="rgb(0, 0, 0)" stroke-opacity="1.0" stroke-linecap="round" stroke-linejoin="round"/>
    <path d="M 93.8293685913086 28.621597290039062 C 91.52268981933594 54.910037994384766 97.67012023925781 29.530290603637695 94.7303466796875 47.854469299316406" stroke-width="3.0" fill="none" stroke="rgb(0, 0, 0)" stroke-opacity="1.0" stroke-linecap="round" stroke-linejoin="round"/>
    <path d="M 61.01333236694336 129.1710968017578 C 69.21726989746094 144.8941650390625 78.50822448730469 147.2369842529297 82.4707260131836 151.62814331054688" stroke-width="3.0" fill="none" stroke="rgb(0, 0, 0)" stroke-opacity="1.0" stroke-linecap="round" stroke-linejoin="round"/>
    <path d="M 164.1958465576172 81.2701416015625 C 188.95877075195312 69.7099609375 178.50209045410156 88.20311737060547 156.18946838378906 88.9417953491211" stroke-width="3.0" fill="none" stroke="rgb(0, 0, 0)" stroke-opacity="1.0" stroke-linecap="round" stroke-linejoin="round"/>
    <path d="M 156.014892578125 99.80589294433594 C 173.1309051513672 100.84124755859375 165.041015625 101.3378677368164 183.46990966796875 106.22555541992188" stroke-width="3.0" fill="none" stroke="rgb(0, 0, 0)" stroke-opacity="1.0" stroke-linecap="round" stroke-linejoin="round"/>
    <path d="M 86.65540313720703 165.88055419921875 C 89.13734436035156 184.92874145507812 93.97577667236328 186.87191772460938 100.4576644897461 189.79298400878906" stroke-width="3.0" fill="none" stroke="rgb(0, 0, 0)" stroke-opacity="1.0" stroke-linecap="round" stroke-linejoin="round"/>
    <path d="M 172.32681274414062 9.669567108154297 C 182.11988830566406 2.7421844005584717 182.42820739746094 24.30643081665039 179.9256134033203 56.85625076293945" stroke-width="3.0" fill="none" stroke="rgb(0, 0, 0)" stroke-opacity="1.0" stroke-linecap="round" stroke-linejoin="round"/>
    <path d="M 130.16148376464844 32.15018844604492 C 123.72667694091797 56.16192626953125 127.62226867675781 32.51442337036133 128.56666564941406 62.040672302246094" stroke-width="3.0" fill="none" stroke="rgb(0, 0, 0)" stroke-opacity="1.0" stroke-linecap="round" stroke-linejoin="round"/>
    <path d="M 99.88680267333984 46.715362548828125 C 70.38412475585938 -5.429479598999023 88.86886596679688 2.2298948764801025 106.80045318603516 42.04944610595703" stroke-width="3.0" fill="none" stroke="rgb(0, 0, 0)" stroke-opacity="1.0" stroke-linecap="round" stroke-linejoin="round"/>
    <path d="M 49.633941650390625 169.35023498535156 C 36.63257598876953 159.10519409179688 49.627437591552734 161.6788787841797 44.05062484741211 163.69554138183594" stroke-width="3.0" fill="none" stroke="rgb(0, 0, 0)" stroke-opacity="1.0" stroke-linecap="round" stroke-linejoin="round"/>
    <path d="M 32.098873138427734 111.94644165039062 C 28.19327735900879 130.35482788085938 35.71780776977539 139.99139404296875 42.97694396972656 155.177001953125" stroke-width="3.0" fill="none" stroke="rgb(0, 0, 0)" stroke-opacity="1.0" stroke-linecap="round" stroke-linejoin="round"/>
    <path d="M 78.8573226928711 156.2694091796875 C 87.48625183105469 166.1884002685547 86.45006561279297 168.0128631591797 82.40790557861328 160.1455841064453" stroke-width="3.0" fill="none" stroke="rgb(0, 0, 0)" stroke-opacity="1.0" stroke-linecap="round" stroke-linejoin="round"/>
    <path d="M 75.77383422851562 193.24151611328125 C 48.54609680175781 176.49722290039062 72.47145080566406 190.48907470703125 48.90196990966797 173.28738403320312" stroke-width="3.0" fill="none" stroke="rgb(0, 0, 0)" stroke-opacity="1.0" stroke-linecap="round" stroke-linejoin="round"/>
    <path d="M 41.85343551635742 159.87303161621094 C 48.335662841796875 165.49461364746094 39.19550323486328 156.0510711669922 38.540382385253906 145.73292541503906" stroke-width="3.0" fill="none" stroke="rgb(0, 0, 0)" stroke-opacity="1.0" stroke-linecap="round" stroke-linejoin="round"/>
    <path d="M 64.9299545288086 59.628013610839844 C 44.63633728027344 70.57429504394531 48.5735969543457 73.97821807861328 32.53186798095703 106.64620208740234" stroke-width="3.0" fill="none" stroke="rgb(0, 0, 0)" stroke-opacity="1.0" stroke-linecap="round" stroke-linejoin="round"/>
    <path d="M 144.4380340576172 159.77906799316406 C 131.98939514160156 160.4696044921875 126.16874694824219 151.9741668701172 138.50743103027344 166.1011505126953" stroke-width="3.0" fill="none" stroke="rgb(0, 0, 0)" stroke-opacity="1.0" stroke-linecap="round" stroke-linejoin="round"/>
    <path d="M 138.7666473388672 33.18791580200195 C 148.2887420654297 48.19765090942383 132.31231689453125 48.62258529663086 138.5782928466797 83.03541564941406" stroke-width="3.0" fill="none" stroke="rgb(0, 0, 0)" stroke-opacity="1.0" stroke-linecap="round" stroke-linejoin="round"/>
    <path d="M 145.5490264892578 98.40719604492188 C 132.42799377441406 112.79167175292969 113.95204162597656 104.50205993652344 128.37942504882812 105.09605407714844" stroke-width="3.0" fill="none" stroke="rgb(0, 0, 0)" stroke-opacity="1.0" stroke-linecap="round" stroke-linejoin="round"/>
    <path d="M 139.1139373779297 73.21514892578125 C 141.80162048339844 52.12054443359375 151.36392211914062 52.46598434448242 150.29055786132812 48.153236389160156" stroke-width="3.0" fill="none" stroke="rgb(0, 0, 0)" stroke-opacity="1.0" stroke-linecap="round" stroke-linejoin="round"/>
    <path d="M 106.56401062011719 192.87722778320312 C 87.24565124511719 181.5541534423828 100.52405548095703 208.496337890625 130.14300537109375 183.6134796142578" stroke-width="3.0" fill="none" stroke="rgb(0, 0, 0)" stroke-opacity="1.0" stroke-linecap="round" stroke-linejoin="round"/>
    <path d="M 188.41102600097656 91.90980529785156 C 161.28512573242188 84.75138092041016 164.96878051757812 88.6519775390625 175.67364501953125 80.46306610107422" stroke-width="3.0" fill="none" stroke="rgb(0, 0, 0)" stroke-opacity="1.0" stroke-linecap="round" stroke-linejoin="round"/>
    <path d="M 172.16651916503906 85.92044830322266 C 187.6636199951172 78.2777328491211 194.66134643554688 86.24590301513672 165.47003173828125 81.71170043945312" stroke-width="3.0" fill="none" stroke="rgb(0, 0, 0)" stroke-opacity="1.0" stroke-linecap="round" stroke-linejoin="round"/>
    <path d="M 109.26211547851562 76.62604522705078 C 88.65974426269531 71.282958984375 140.8711395263672 72.55091857910156 106.40455627441406 78.91349792480469" stroke-width="3.0" fill="none" stroke="rgb(0, 0, 0)" stroke-opacity="1.0" stroke-linecap="round" stroke-linejoin="round"/>
    <path d="M 134.7847900390625 161.34381103515625 C 141.9095458984375 156.19129943847656 129.88954162597656 157.69943237304688 109.75142669677734 144.93788146972656" stroke-width="3.0" fill="none" stroke="rgb(0, 0, 0)" stroke-opacity="1.0" stroke-linecap="round" stroke-linejoin="round"/>
    <path d="M 123.2567367553711 88.68389129638672 C 143.01828002929688 97.93301391601562 128.04017639160156 78.96918487548828 128.5598602294922 96.05720520019531" stroke-width="3.0" fill="none" stroke="rgb(0, 0, 0)" stroke-opacity="1.0" stroke-linecap="round" stroke-linejoin="round"/>
    <path d="M 187.32769775390625 96.53164672851562 C 174.00450134277344 88.81327056884766 183.98483276367188 98.70146942138672 141.5300750732422 87.65068817138672" stroke-width="3.0" fill="none" stroke="rgb(0, 0, 0)" stroke-opacity="1.0" stroke-linecap="round" stroke-linejoin="round"/>
    <path d="M 86.21560668945312 8.511553764343262 C 110.2906265258789 18.136552810668945 117.49368286132812 36.71676254272461 124.69727325439453 32.3291015625" stroke-width="3.0" fill="none" stroke="rgb(0, 0, 0)" stroke-opacity="1.0" stroke-linecap="round" stroke-linejoin="round"/>
    <path d="M 51.020912170410156 109.46192932128906 C 49.46186828613281 109.42194366455078 58.283607482910156 122.35519409179688 52.6875 112.9544448852539" stroke-width="3.0" fill="none" stroke="rgb(0, 0, 0)" stroke-opacity="1.0" stroke-linecap="round" stroke-linejoin="round"/>
    <path d="M 119.14311981201172 103.94766235351562 C 97.94556427001953 92.79835510253906 129.60797119140625 104.59367370605469 104.8657455444336 97.06724548339844" stroke-width="3.0" fill="none" stroke="rgb(0, 0, 0)" stroke-opacity="1.0" stroke-linecap="round" stroke-linejoin="round"/>
    <path d="M 31.593473434448242 119.29051971435547 C 35.97000503540039 95.05933380126953 33.820404052734375 103.16536712646484 32.77101135253906 112.64866638183594" stroke-width="3.0" fill="none" stroke="rgb(0, 0, 0)" stroke-opacity="1.0" stroke-linecap="round" stroke-linejoin="round"/>
    <path d="M 84.42414855957031 196.70005798339844 C 74.98023986816406 193.6282196044922 75.3740234375 195.53909301757812 89.05662536621094 196.8533172607422" stroke-width="3.0" fill="none" stroke="rgb(0, 0, 0)" stroke-opacity="1.0" stroke-linecap="round" stroke-linejoin="round"/>
    <path d="M 165.90194702148438 135.07228088378906 C 200.95382690429688 107.69002532958984 174.78106689453125 98.16250610351562 150.07171630859375 93.71468353271484" stroke-width="3.0" fill="none" stroke="rgb(0, 0, 0)" stroke-opacity="1.0" stroke-linecap="round" stroke-linejoin="round"/>
    <path d="M 153.25656127929688 76.15869140625 C 132.17811584472656 64.18964385986328 155.07786560058594 89.3192367553711 154.32421875 71.41824340820312" stroke-width="3.0" fill="none" stroke="rgb(0, 0, 0)" stroke-opacity="1.0" stroke-linecap="round" stroke-linejoin="round"/>
    <path d="M 143.56105041503906 77.55453491210938 C 150.5206756591797 59.42131042480469 167.3017120361328 82.54381561279297 179.65200805664062 70.41867065429688" stroke-width="3.0" fill="none" stroke="rgb(0, 0, 0)" stroke-opacity="1.0" stroke-linecap="round" stroke-linejoin="round"/>
    <path d="M 152.9455108642578 101.13795471191406 C 155.6917266845703 100.0240478515625 171.81280517578125 104.43824768066406 183.08518981933594 113.97381591796875" stroke-width="3.0" fill="none" stroke="rgb(0, 0, 0)" stroke-opacity="1.0" stroke-linecap="round" stroke-linejoin="round"/>
    <path d="M 176.9837188720703 17.585058212280273 C 171.02589416503906 42.01674270629883 173.2488250732422 24.739076614379883 161.5004425048828 36.81834030151367" stroke-width="3.0" fill="none" stroke="rgb(0, 0, 0)" stroke-opacity="1.0" stroke-linecap="round" stroke-linejoin="round"/>
    <path d="M 125.42603302001953 107.42054748535156 C 143.51417541503906 111.56118774414062 134.0982666015625 92.73875427246094 116.8170394897461 108.84501647949219" stroke-width="3.0" fill="none" stroke="rgb(0, 0, 0)" stroke-opacity="1.0" stroke-linecap="round" stroke-linejoin="round"/>
    <path d="M 47.3981819152832 105.51411437988281 C 53.11989212036133 110.0675277709961 47.26227569580078 106.58583068847656 59.3726921081543 125.28538513183594" stroke-width="3.0" fill="none" stroke="rgb(0, 0, 0)" stroke-opacity="1.0" stroke-linecap="round" stroke-linejoin="round"/>
    <path d="M 119.90986633300781 81.09613037109375 C 131.1256866455078 60.93783950805664 113.84429168701172 50.556907653808594 116.23050689697266 38.60493850708008" stroke-width="3.0" fill="none" stroke="rgb(0, 0, 0)" stroke-opacity="1.0" stroke-linecap="round" stroke-linejoin="round"/>
    <path d="M 147.9545135498047 34.377479553222656 C 155.32220458984375 29.696762084960938 150.14019775390625 20.481861114501953 174.59902954101562 8.48397159576416" stroke-width="3.0" fill="none" stroke="rgb(0, 0, 0)" stroke-opacity="1.0" stroke-linecap="round" stroke-linejoin="round"/>
  </g>
</svg>
