<?xml version="1.0" ?>
<svg xmlns="http://www.w3.org/2000/svg" version="1.1" width="224" height="224">
  <defs/>
  <g>
    <path d="M 62.11083221435547 98.24600982666016 C 66.14624786376953 94.65937805175781 52.548954010009766 89.80193328857422 58.701942443847656 68.20142364501953" stroke-width="3.0" fill="none" stroke="rgb(0, 0, 0)" stroke-opacity="1.0" stroke-linecap="round" stroke-linejoin="round"/>
    <path d="M 193.4547882080078 112.95468139648438 C 188.77447509765625 116.82197570800781 195.10440063476562 88.0220718383789 184.1908721923828 121.6705551147461" stroke-width="3.0" fill="none" stroke="rgb(0, 0, 0)" stroke-opacity="1.0" stroke-linecap="round" stroke-linejoin="round"/>
    <path d="M 62.11619186401367 119.3250503540039 C 59.81605529785156 87.4836196899414 61.79874038696289 128.5469207763672 67.8423080444336 123.77944946289062" stroke-width="3.0" fill="none" stroke="rgb(0, 0, 0)" stroke-opacity="1.0" stroke-linecap="round" stroke-linejoin="round"/>
    <path d="M 186.2943878173828 93.26363372802734 C 147.1399383544922 72.23575592041016 185.72940063476562 76.44123840332031 184.97415161132812 100.25211334228516" stroke-width="3.0" fill="none" stroke="rgb(0, 0, 0)" stroke-opacity="1.0" stroke-linecap="round" stroke-linejoin="round"/>
    <path d="M 174.9154510498047 49.68953323364258 C 193.9286651611328 84.20024108886719 179.038330078125 95.55833435058594 182.0328826904297 69.5960693359375" stroke-width="3.0" fill="none" stroke="rgb(0, 0, 0)" stroke-opacity="1.0" stroke-linecap="round" stroke-linejoin="round"/>
    <path d="M 127.58193969726562 100.95314025878906 C 153.40536499023438 114.53252410888672 98.28801727294922 103.25818634033203 135.49403381347656 107.7068862915039" stroke-width="3.0" fill="none" stroke="rgb(0, 0, 0)" stroke-opacity="1.0" stroke-linecap="round" stroke-linejoin="round"/>
    <path d="M 182.3114776611328 83.00700378417969 C 176.16444396972656 74.12721252441406 194.59275817871094 73.23751068115234 149.67787170410156 86.58763122558594" stroke-width="3.0" fill="none" stroke="rgb(0, 0, 0)" stroke-opacity="1.0" stroke-linecap="round" stroke-linejoin="round"/>
    <path d="M 66.5177001953125 191.24868774414062 C 39.04995346069336 166.9021453857422 50.547332763671875 169.00335693359375 49.5292854309082 173.98788452148438" stroke-width="3.0" fill="none" stroke="rgb(0, 0, 0)" stroke-opacity="1.0" stroke-linecap="round" stroke-linejoin="round"/>
    <path d="M 58.58237075805664 185.39321899414062 C 84.80751037597656 213.06878662109375 132.69371032714844 196.73443603515625 135.83929443359375 165.862548828125" stroke-width="3.0" fill="none" stroke="rgb(0, 0, 0)" stroke-opacity="1.0" stroke-linecap="round" stroke-linejoin="round"/>
    <path d="M 82.49518585205078 14.216506004333496 C 95.23114776611328 75.2855453491211 86.25997924804688 5.179818153381348 85.98558807373047 55.796382904052734" stroke-width="3.0" fill="none" stroke="rgb(0, 0, 0)" stroke-opacity="1.0" stroke-linecap="round" stroke-linejoin="round"/>
    <path d="M 61.05457305908203 85.82935333251953 C 59.66019058227539 138.69589233398438 72.8304672241211 134.68040466308594 62.18528747558594 120.7779541015625" stroke-width="3.0" fill="none" stroke="rgb(0, 0, 0)" stroke-opacity="1.0" stroke-linecap="round" stroke-linejoin="round"/>
    <path d="M 145.1963348388672 73.83934020996094 C 199.49842834472656 62.76454162597656 196.3285675048828 90.1961669921875 139.6712188720703 84.81008911132812" stroke-width="3.0" fill="none" stroke="rgb(0, 0, 0)" stroke-opacity="1.0" stroke-linecap="round" stroke-linejoin="round"/>
    <path d="M 150.52801513671875 92.95350646972656 C 181.80335998535156 96.12955474853516 183.7103729248047 95.25508880615234 195.7655029296875 113.83403015136719" stroke-width="3.0" fill="none" stroke="rgb(0, 0, 0)" stroke-opacity="1.0" stroke-linecap="round" stroke-linejoin="round"/>
    <path d="M 115.85986328125 147.89198303222656 C 157.27993774414062 157.8472442626953 102.5362319946289 144.2493133544922 106.00467681884766 153.74490356445312" stroke-width="3.0" fill="none" stroke="rgb(0, 0, 0)" stroke-opacity="1.0" stroke-linecap="round" stroke-linejoin="round"/>
    <path d="M 178.56228637695312 8.472671508789062 C 188.79685974121094 23.543371200561523 167.69261169433594 90.02115631103516 180.46701049804688 52.840274810791016" stroke-width="3.0" fill="none" stroke="rgb(0, 0, 0)" stroke-opacity="1.0" stroke-linecap="round" stroke-linejoin="round"/>
    <path d="M 139.5643768310547 33.05915832519531 C 106.6438980102539 19.644174575805664 137.64938354492188 50.47828674316406 121.83993530273438 83.07546997070312" stroke-width="3.0" fill="none" stroke="rgb(0, 0, 0)" stroke-opacity="1.0" stroke-linecap="round" stroke-linejoin="round"/>
    <path d="M 104.19721221923828 47.737361907958984 C 61.075408935546875 -7.4964118003845215 83.42422485351562 -0.9944701194763184 120.9214859008789 32.205387115478516" stroke-width="3.0" fill="none" stroke="rgb(0, 0, 0)" stroke-opacity="1.0" stroke-linecap="round" stroke-linejoin="round"/>
    <path d="M 48.543251037597656 169.20034790039062 C 42.07198715209961 161.29861450195312 38.883888244628906 155.97854614257812 49.04766082763672 171.64964294433594" stroke-width="3.0" fill="none" stroke="rgb(0, 0, 0)" stroke-opacity="1.0" stroke-linecap="round" stroke-linejoin="round"/>
    <path d="M 51.94105911254883 77.8339614868164 C 13.205389976501465 123.03677368164062 37.489173889160156 141.13401794433594 46.59881591796875 166.79185485839844" stroke-width="3.0" fill="none" stroke="rgb(0, 0, 0)" stroke-opacity="1.0" stroke-linecap="round" stroke-linejoin="round"/>
    <path d="M 70.93350219726562 132.34600830078125 C 133.55288696289062 157.1182098388672 98.23889923095703 148.51002502441406 87.05047607421875 140.05430603027344" stroke-width="3.0" fill="none" stroke="rgb(0, 0, 0)" stroke-opacity="1.0" stroke-linecap="round" stroke-linejoin="round"/>
    <path d="M 88.70449829101562 198.76673889160156 C 70.18697357177734 199.11297607421875 47.8489875793457 175.18905639648438 47.2735710144043 167.04563903808594" stroke-width="3.0" fill="none" stroke="rgb(0, 0, 0)" stroke-opacity="1.0" stroke-linecap="round" stroke-linejoin="round"/>
    <path d="M 48.12260818481445 171.21571350097656 C 70.41270446777344 193.79527282714844 45.81740188598633 173.9536895751953 38.26640319824219 151.54302978515625" stroke-width="3.0" fill="none" stroke="rgb(0, 0, 0)" stroke-opacity="1.0" stroke-linecap="round" stroke-linejoin="round"/>
    <path d="M 80.90701293945312 54.10260009765625 C 56.98311233520508 57.00069046020508 55.957862854003906 73.65413665771484 32.62125015258789 108.19620513916016" stroke-width="3.0" fill="none" stroke="rgb(0, 0, 0)" stroke-opacity="1.0" stroke-linecap="round" stroke-linejoin="round"/>
    <path d="M 154.39251708984375 136.70005798339844 C 101.29859161376953 154.27151489257812 87.5113754272461 160.13731384277344 147.0623779296875 145.51797485351562" stroke-width="3.0" fill="none" stroke="rgb(0, 0, 0)" stroke-opacity="1.0" stroke-linecap="round" stroke-linejoin="round"/>
    <path d="M 150.27325439453125 27.822690963745117 C 147.173095703125 31.59623908996582 133.65032958984375 15.591818809509277 138.22640991210938 73.31704711914062" stroke-width="3.0" fill="none" stroke="rgb(0, 0, 0)" stroke-opacity="1.0" stroke-linecap="round" stroke-linejoin="round"/>
    <path d="M 143.86598205566406 100.569091796875 C 123.08433532714844 111.23462677001953 118.62767028808594 105.2974624633789 109.8512191772461 96.85108184814453" stroke-width="3.0" fill="none" stroke="rgb(0, 0, 0)" stroke-opacity="1.0" stroke-linecap="round" stroke-linejoin="round"/>
    <path d="M 137.96969604492188 71.68949890136719 C 141.45155334472656 44.5012321472168 129.6709442138672 64.11136627197266 137.80804443359375 76.74620056152344" stroke-width="3.0" fill="none" stroke="rgb(0, 0, 0)" stroke-opacity="1.0" stroke-linecap="round" stroke-linejoin="round"/>
    <path d="M 139.0573272705078 158.95480346679688 C 126.61231994628906 177.55567932128906 142.43638610839844 168.91075134277344 145.26321411132812 144.621337890625" stroke-width="3.0" fill="none" stroke="rgb(0, 0, 0)" stroke-opacity="1.0" stroke-linecap="round" stroke-linejoin="round"/>
    <path d="M 195.50750732421875 92.72650146484375 C 164.01895141601562 70.61994934082031 165.99024963378906 77.47735595703125 185.77540588378906 86.9595947265625" stroke-width="3.0" fill="none" stroke="rgb(0, 0, 0)" stroke-opacity="1.0" stroke-linecap="round" stroke-linejoin="round"/>
    <path d="M 151.75521850585938 77.76567077636719 C 130.5229034423828 53.82682800292969 201.2815399169922 92.94415283203125 180.5913848876953 60.42030334472656" stroke-width="3.0" fill="none" stroke="rgb(0, 0, 0)" stroke-opacity="1.0" stroke-linecap="round" stroke-linejoin="round"/>
    <path d="M 111.14295196533203 80.9456558227539 C 77.11978149414062 70.7330551147461 137.98545837402344 73.37159729003906 108.72607421875 77.14664459228516" stroke-width="3.0" fill="none" stroke="rgb(0, 0, 0)" stroke-opacity="1.0" stroke-linecap="round" stroke-linejoin="round"/>
    <path d="M 169.00526428222656 128.95445251464844 C 141.8510284423828 157.9988555908203 101.04361724853516 143.8514404296875 101.43216705322266 153.03591918945312" stroke-width="3.0" fill="none" stroke="rgb(0, 0, 0)" stroke-opacity="1.0" stroke-linecap="round" stroke-linejoin="round"/>
    <path d="M 125.23445129394531 91.59666442871094 C 142.69097900390625 104.23212432861328 132.71273803710938 71.21973419189453 129.23040771484375 106.8060531616211" stroke-width="3.0" fill="none" stroke="rgb(0, 0, 0)" stroke-opacity="1.0" stroke-linecap="round" stroke-linejoin="round"/>
    <path d="M 189.39109802246094 112.04225158691406 C 157.6742706298828 88.1253890991211 170.48362731933594 96.64193725585938 145.29974365234375 84.78275299072266" stroke-width="3.0" fill="none" stroke="rgb(0, 0, 0)" stroke-opacity="1.0" stroke-linecap="round" stroke-linejoin="round"/>
    <path d="M 92.89318084716797 20.665361404418945 C 125.61168670654297 28.56441307067871 93.53720092773438 32.61411666870117 142.17318725585938 29.34925079345703" stroke-width="3.0" fill="none" stroke="rgb(0, 0, 0)" stroke-opacity="1.0" stroke-linecap="round" stroke-linejoin="round"/>
    <path d="M 63.54710388183594 116.40534973144531 C 64.43099975585938 107.96857452392578 55.86052703857422 128.62789916992188 69.38980865478516 131.1533966064453" stroke-width="3.0" fill="none" stroke="rgb(0, 0, 0)" stroke-opacity="1.0" stroke-linecap="round" stroke-linejoin="round"/>
    <path d="M 138.47732543945312 103.13768005371094 C 112.83305358886719 92.92057800292969 121.37760162353516 120.34547424316406 105.87503814697266 88.0882568359375" stroke-width="3.0" fill="none" stroke="rgb(0, 0, 0)" stroke-opacity="1.0" stroke-linecap="round" stroke-linejoin="round"/>
    <path d="M 33.668190002441406 141.2289581298828 C 26.434566497802734 122.9417724609375 32.01482391357422 81.63333129882812 61.42348098754883 66.52548217773438" stroke-width="3.0" fill="none" stroke="rgb(0, 0, 0)" stroke-opacity="1.0" stroke-linecap="round" stroke-linejoin="round"/>
    <path d="M 108.41214752197266 196.27255249023438 C 77.1636734008789 203.7624053955078 77.00685119628906 196.648681640625 101.63555145263672 199.3370361328125" stroke-width="3.0" fill="none" stroke="rgb(0, 0, 0)" stroke-opacity="1.0" stroke-linecap="round" stroke-linejoin="round"/>
    <path d="M 170.22012329101562 129.03277587890625 C 204.40341186523438 120.70845794677734 186.0178680419922 89.18118286132812 158.28126525878906 87.08765411376953" stroke-width="3.0" fill="none" stroke="rgb(0, 0, 0)" stroke-opacity="1.0" stroke-linecap="round" stroke-linejoin="round"/>
    <path d="M 150.30538940429688 66.777099609375 C 132.31724548339844 86.11173248291016 169.61761474609375 76.78436279296875 149.05767822265625 69.8882064819336" stroke-width="3.0" fill="none" stroke="rgb(0, 0, 0)" stroke-opacity="1.0" stroke-linecap="round" stroke-linejoin="round"/>
    <path d="M 142.83839416503906 78.08802032470703 C 145.1498260498047 41.455623626708984 192.8046875 112.6835708618164 177.7525177001953 42.878108978271484" stroke-width="3.0" fill="none" stroke="rgb(0, 0, 0)" stroke-opacity="1.0" stroke-linecap="round" stroke-linejoin="round"/>
    <path d="M 146.61985778808594 97.85342407226562 C 172.1435089111328 105.67919921875 174.28175354003906 100.57186889648438 183.23843383789062 119.81715393066406" stroke-width="3.0" fill="none" stroke="rgb(0, 0, 0)" stroke-opacity="1.0" stroke-linecap="round" stroke-linejoin="round"/>
    <path d="M 175.96697998046875 19.338762283325195 C 173.09434509277344 41.74108123779297 172.87974548339844 20.615100860595703 157.94749450683594 38.17340087890625" stroke-width="3.0" fill="none" stroke="rgb(0, 0, 0)" stroke-opacity="1.0" stroke-linecap="round" stroke-linejoin="round"/>
    <path d="M 120.5039291381836 105.37161254882812 C 142.67831420898438 104.5765380859375 129.96910095214844 115.59126281738281 121.41034698486328 105.71830749511719" stroke-width="3.0" fill="none" stroke="rgb(0, 0, 0)" stroke-opacity="1.0" stroke-linecap="round" stroke-linejoin="round"/>
    <path d="M 67.19353485107422 115.52677917480469 C 59.72947311401367 111.32483673095703 64.78548431396484 107.93687438964844 65.9940185546875 120.77816772460938" stroke-width="3.0" fill="none" stroke="rgb(0, 0, 0)" stroke-opacity="1.0" stroke-linecap="round" stroke-linejoin="round"/>
    <path d="M 122.21764373779297 76.72122192382812 C 120.7715835571289 37.100372314453125 113.71617126464844 61.760555267333984 118.26341247558594 31.563627243041992" stroke-width="3.0" fill="none" stroke="rgb(0, 0, 0)" stroke-opacity="1.0" stroke-linecap="round" stroke-linejoin="round"/>
    <path d="M 151.0906982421875 26.74254608154297 C 144.64381408691406 34.74333953857422 163.05406188964844 6.768268585205078 177.71270751953125 8.580574035644531" stroke-width="3.0" fill="none" stroke="rgb(0, 0, 0)" stroke-opacity="1.0" stroke-linecap="round" stroke-linejoin="round"/>
  </g>
</svg>
