<?xml version="1.0" ?>
<svg xmlns="http://www.w3.org/2000/svg" version="1.1" width="224" height="224">
  <defs/>
  <g>
    <path d="M 61.272457122802734 96.78406524658203 C 65.7287826538086 85.50943756103516 54.46792221069336 83.27583312988281 72.12147521972656 56.995018005371094" stroke-width="3.0" fill="none" stroke="rgb(0, 0, 0)" stroke-opacity="1.0" stroke-linecap="round" stroke-linejoin="round"/>
    <path d="M 197.88731384277344 113.47550201416016 C 184.156005859375 100.25701141357422 188.59033203125 98.09075164794922 177.6410369873047 127.23652648925781" stroke-width="3.0" fill="none" stroke="rgb(0, 0, 0)" stroke-opacity="1.0" stroke-linecap="round" stroke-linejoin="round"/>
    <path d="M 60.62178421020508 118.92428588867188 C 54.273658752441406 87.538330078125 63.01858901977539 123.52269744873047 67.48597717285156 117.1782455444336" stroke-width="3.0" fill="none" stroke="rgb(0, 0, 0)" stroke-opacity="1.0" stroke-linecap="round" stroke-linejoin="round"/>
    <path d="M 185.30499267578125 93.99346160888672 C 154.14756774902344 69.20196533203125 181.82606506347656 74.162353515625 188.62632751464844 97.65296936035156" stroke-width="3.0" fill="none" stroke="rgb(0, 0, 0)" stroke-opacity="1.0" stroke-linecap="round" stroke-linejoin="round"/>
    <path d="M 177.9685516357422 43.937747955322266 C 194.68955993652344 95.10370635986328 179.83535766601562 105.15904235839844 180.24044799804688 56.96725845336914" stroke-width="3.0" fill="none" stroke="rgb(0, 0, 0)" stroke-opacity="1.0" stroke-linecap="round" stroke-linejoin="round"/>
    <path d="M 131.15267944335938 99.372314453125 C 155.4088897705078 113.57415771484375 102.29190063476562 101.53058624267578 135.47207641601562 106.10569763183594" stroke-width="3.0" fill="none" stroke="rgb(0, 0, 0)" stroke-opacity="1.0" stroke-linecap="round" stroke-linejoin="round"/>
    <path d="M 185.99209594726562 88.48223114013672 C 169.45001220703125 88.25540924072266 183.4345703125 70.7636489868164 154.39529418945312 87.8294677734375" stroke-width="3.0" fill="none" stroke="rgb(0, 0, 0)" stroke-opacity="1.0" stroke-linecap="round" stroke-linejoin="round"/>
    <path d="M 65.50628662109375 191.87867736816406 C 41.82783126831055 169.90623474121094 47.45884704589844 168.54757690429688 61.69046401977539 189.7225341796875" stroke-width="3.0" fill="none" stroke="rgb(0, 0, 0)" stroke-opacity="1.0" stroke-linecap="round" stroke-linejoin="round"/>
    <path d="M 58.32268142700195 184.30043029785156 C 80.40191650390625 214.7039794921875 132.7126007080078 195.8578643798828 141.56410217285156 163.55335998535156" stroke-width="3.0" fill="none" stroke="rgb(0, 0, 0)" stroke-opacity="1.0" stroke-linecap="round" stroke-linejoin="round"/>
    <path d="M 82.76368713378906 11.368246078491211 C 92.15791320800781 79.41399383544922 90.14582061767578 9.81320858001709 87.45664978027344 53.585296630859375" stroke-width="3.0" fill="none" stroke="rgb(0, 0, 0)" stroke-opacity="1.0" stroke-linecap="round" stroke-linejoin="round"/>
    <path d="M 60.0700569152832 90.64170837402344 C 49.57203674316406 128.64166259765625 77.3633041381836 132.16845703125 61.88616180419922 118.4126205444336" stroke-width="3.0" fill="none" stroke="rgb(0, 0, 0)" stroke-opacity="1.0" stroke-linecap="round" stroke-linejoin="round"/>
    <path d="M 146.56045532226562 73.51768493652344 C 197.9635467529297 65.07880401611328 208.4444122314453 86.68400573730469 142.7457733154297 87.6854019165039" stroke-width="3.0" fill="none" stroke="rgb(0, 0, 0)" stroke-opacity="1.0" stroke-linecap="round" stroke-linejoin="round"/>
    <path d="M 149.13299560546875 96.08517456054688 C 187.62049865722656 100.07807159423828 173.2823028564453 101.90277862548828 191.73922729492188 113.93307495117188" stroke-width="3.0" fill="none" stroke="rgb(0, 0, 0)" stroke-opacity="1.0" stroke-linecap="round" stroke-linejoin="round"/>
    <path d="M 130.49948120117188 152.94012451171875 C 170.4794158935547 158.5056915283203 97.58429718017578 145.77801513671875 98.9945068359375 154.0899658203125" stroke-width="3.0" fill="none" stroke="rgb(0, 0, 0)" stroke-opacity="1.0" stroke-linecap="round" stroke-linejoin="round"/>
    <path d="M 177.62294006347656 9.527021408081055 C 189.97036743164062 17.25657844543457 170.5131378173828 98.60173034667969 187.28256225585938 61.64415740966797" stroke-width="3.0" fill="none" stroke="rgb(0, 0, 0)" stroke-opacity="1.0" stroke-linecap="round" stroke-linejoin="round"/>
    <path d="M 147.45797729492188 30.230112075805664 C 107.72053527832031 29.14435386657715 133.44606018066406 22.571455001831055 129.47216796875 63.74578094482422" stroke-width="3.0" fill="none" stroke="rgb(0, 0, 0)" stroke-opacity="1.0" stroke-linecap="round" stroke-linejoin="round"/>
    <path d="M 105.24189758300781 48.220947265625 C 65.08207702636719 -7.486055374145508 83.89434051513672 3.6479666233062744 120.54118347167969 32.70880126953125" stroke-width="3.0" fill="none" stroke="rgb(0, 0, 0)" stroke-opacity="1.0" stroke-linecap="round" stroke-linejoin="round"/>
    <path d="M 43.29106903076172 159.60968017578125 C 43.906166076660156 159.31201171875 42.635921478271484 153.4280242919922 50.913204193115234 175.25730895996094" stroke-width="3.0" fill="none" stroke="rgb(0, 0, 0)" stroke-opacity="1.0" stroke-linecap="round" stroke-linejoin="round"/>
    <path d="M 61.42145919799805 68.7845458984375 C 21.26523208618164 121.52658081054688 40.52903747558594 143.2736053466797 46.153587341308594 162.0662841796875" stroke-width="3.0" fill="none" stroke="rgb(0, 0, 0)" stroke-opacity="1.0" stroke-linecap="round" stroke-linejoin="round"/>
    <path d="M 72.05313110351562 133.6632080078125 C 138.8466033935547 166.9270477294922 108.81511688232422 150.82887268066406 87.90885925292969 147.12130737304688" stroke-width="3.0" fill="none" stroke="rgb(0, 0, 0)" stroke-opacity="1.0" stroke-linecap="round" stroke-linejoin="round"/>
    <path d="M 86.05882263183594 199.0999755859375 C 65.77507781982422 198.2791290283203 45.39182662963867 177.42295837402344 41.932220458984375 150.65492248535156" stroke-width="3.0" fill="none" stroke="rgb(0, 0, 0)" stroke-opacity="1.0" stroke-linecap="round" stroke-linejoin="round"/>
    <path d="M 47.9242057800293 171.71234130859375 C 68.88650512695312 200.0050811767578 47.6187744140625 175.6328582763672 39.4918212890625 146.9041748046875" stroke-width="3.0" fill="none" stroke="rgb(0, 0, 0)" stroke-opacity="1.0" stroke-linecap="round" stroke-linejoin="round"/>
    <path d="M 82.03877258300781 54.111263275146484 C 61.576515197753906 57.53749084472656 62.376060485839844 67.25262451171875 37.374107360839844 111.20634460449219" stroke-width="3.0" fill="none" stroke="rgb(0, 0, 0)" stroke-opacity="1.0" stroke-linecap="round" stroke-linejoin="round"/>
    <path d="M 147.786376953125 144.0384063720703 C 112.44970703125 162.57278442382812 72.18849182128906 150.96173095703125 146.6044464111328 149.5723114013672" stroke-width="3.0" fill="none" stroke="rgb(0, 0, 0)" stroke-opacity="1.0" stroke-linecap="round" stroke-linejoin="round"/>
    <path d="M 148.23031616210938 27.066287994384766 C 140.3572540283203 34.46967697143555 136.6142120361328 8.361648559570312 137.96360778808594 78.31520080566406" stroke-width="3.0" fill="none" stroke="rgb(0, 0, 0)" stroke-opacity="1.0" stroke-linecap="round" stroke-linejoin="round"/>
    <path d="M 145.9446563720703 100.36125946044922 C 128.9152069091797 110.45356750488281 123.2671127319336 103.98680877685547 116.6048583984375 100.97915649414062" stroke-width="3.0" fill="none" stroke="rgb(0, 0, 0)" stroke-opacity="1.0" stroke-linecap="round" stroke-linejoin="round"/>
    <path d="M 135.85137939453125 74.02173614501953 C 139.51609802246094 50.208717346191406 133.16864013671875 67.11237335205078 132.9404296875 72.99037170410156" stroke-width="3.0" fill="none" stroke="rgb(0, 0, 0)" stroke-opacity="1.0" stroke-linecap="round" stroke-linejoin="round"/>
    <path d="M 139.5160675048828 166.64398193359375 C 134.0287628173828 168.23004150390625 145.66932678222656 165.51258850097656 148.15118408203125 148.37022399902344" stroke-width="3.0" fill="none" stroke="rgb(0, 0, 0)" stroke-opacity="1.0" stroke-linecap="round" stroke-linejoin="round"/>
    <path d="M 193.97434997558594 95.10611724853516 C 162.6644744873047 66.48302459716797 186.1863250732422 61.33932876586914 186.8712158203125 96.70346069335938" stroke-width="3.0" fill="none" stroke="rgb(0, 0, 0)" stroke-opacity="1.0" stroke-linecap="round" stroke-linejoin="round"/>
    <path d="M 153.2830810546875 79.1259994506836 C 124.7302474975586 56.38233184814453 210.81924438476562 86.38056182861328 180.4110565185547 63.882083892822266" stroke-width="3.0" fill="none" stroke="rgb(0, 0, 0)" stroke-opacity="1.0" stroke-linecap="round" stroke-linejoin="round"/>
    <path d="M 114.7428970336914 82.4403305053711 C 91.17144012451172 70.44842529296875 132.64971923828125 75.81475067138672 110.7076187133789 80.80144500732422" stroke-width="3.0" fill="none" stroke="rgb(0, 0, 0)" stroke-opacity="1.0" stroke-linecap="round" stroke-linejoin="round"/>
    <path d="M 169.87020874023438 128.9672393798828 C 157.2711639404297 156.52902221679688 88.55223846435547 152.63128662109375 95.27800750732422 149.8824920654297" stroke-width="3.0" fill="none" stroke="rgb(0, 0, 0)" stroke-opacity="1.0" stroke-linecap="round" stroke-linejoin="round"/>
    <path d="M 124.5448989868164 89.68728637695312 C 142.25994873046875 98.12327575683594 129.1731719970703 73.25862121582031 129.142333984375 103.45258331298828" stroke-width="3.0" fill="none" stroke="rgb(0, 0, 0)" stroke-opacity="1.0" stroke-linecap="round" stroke-linejoin="round"/>
    <path d="M 186.49688720703125 115.14596557617188 C 171.87295532226562 84.4646224975586 170.64630126953125 96.71040344238281 144.7745361328125 87.77908325195312" stroke-width="3.0" fill="none" stroke="rgb(0, 0, 0)" stroke-opacity="1.0" stroke-linecap="round" stroke-linejoin="round"/>
    <path d="M 88.28857421875 24.790016174316406 C 124.033203125 29.360862731933594 82.96312713623047 30.972139358520508 149.18829345703125 28.354141235351562" stroke-width="3.0" fill="none" stroke="rgb(0, 0, 0)" stroke-opacity="1.0" stroke-linecap="round" stroke-linejoin="round"/>
    <path d="M 58.371639251708984 109.23591613769531 C 60.64389419555664 97.42401885986328 55.482078552246094 114.18453216552734 69.68675994873047 135.68592834472656" stroke-width="3.0" fill="none" stroke="rgb(0, 0, 0)" stroke-opacity="1.0" stroke-linecap="round" stroke-linejoin="round"/>
    <path d="M 133.5651397705078 105.27123260498047 C 122.94989776611328 84.92200469970703 121.0556640625 120.76327514648438 112.9681396484375 88.57688903808594" stroke-width="3.0" fill="none" stroke="rgb(0, 0, 0)" stroke-opacity="1.0" stroke-linecap="round" stroke-linejoin="round"/>
    <path d="M 39.910953521728516 148.04762268066406 C 20.925453186035156 120.6834487915039 38.60847854614258 70.83805084228516 67.10211944580078 59.96733474731445" stroke-width="3.0" fill="none" stroke="rgb(0, 0, 0)" stroke-opacity="1.0" stroke-linecap="round" stroke-linejoin="round"/>
    <path d="M 95.84219360351562 199.161865234375 C 83.15397644042969 200.69949340820312 75.06907653808594 196.99034118652344 104.90138244628906 198.46604919433594" stroke-width="3.0" fill="none" stroke="rgb(0, 0, 0)" stroke-opacity="1.0" stroke-linecap="round" stroke-linejoin="round"/>
    <path d="M 170.79983520507812 129.1985321044922 C 196.51905822753906 109.80266571044922 193.13255310058594 87.29931640625 152.26129150390625 89.01715087890625" stroke-width="3.0" fill="none" stroke="rgb(0, 0, 0)" stroke-opacity="1.0" stroke-linecap="round" stroke-linejoin="round"/>
    <path d="M 160.28619384765625 70.75701141357422 C 129.6341552734375 82.3924331665039 166.7066192626953 84.80948638916016 153.5579071044922 70.24685668945312" stroke-width="3.0" fill="none" stroke="rgb(0, 0, 0)" stroke-opacity="1.0" stroke-linecap="round" stroke-linejoin="round"/>
    <path d="M 142.38624572753906 82.04365539550781 C 144.13462829589844 36.13294982910156 201.86679077148438 113.89347839355469 179.6567840576172 45.84056091308594" stroke-width="3.0" fill="none" stroke="rgb(0, 0, 0)" stroke-opacity="1.0" stroke-linecap="round" stroke-linejoin="round"/>
    <path d="M 157.09706115722656 96.10164642333984 C 172.8346710205078 104.77444458007812 175.26751708984375 106.0867919921875 182.5662078857422 123.69766998291016" stroke-width="3.0" fill="none" stroke="rgb(0, 0, 0)" stroke-opacity="1.0" stroke-linecap="round" stroke-linejoin="round"/>
    <path d="M 177.13075256347656 14.82931137084961 C 173.6267547607422 45.291534423828125 176.60902404785156 21.607322692871094 161.4535369873047 41.86585998535156" stroke-width="3.0" fill="none" stroke="rgb(0, 0, 0)" stroke-opacity="1.0" stroke-linecap="round" stroke-linejoin="round"/>
    <path d="M 124.51763153076172 101.58118438720703 C 144.77699279785156 99.34068298339844 131.06149291992188 110.90186309814453 127.87557220458984 100.89112091064453" stroke-width="3.0" fill="none" stroke="rgb(0, 0, 0)" stroke-opacity="1.0" stroke-linecap="round" stroke-linejoin="round"/>
    <path d="M 61.946693420410156 92.91606903076172 C 54.006858825683594 102.9141616821289 57.77665710449219 113.2548599243164 58.99791717529297 108.20269775390625" stroke-width="3.0" fill="none" stroke="rgb(0, 0, 0)" stroke-opacity="1.0" stroke-linecap="round" stroke-linejoin="round"/>
    <path d="M 120.92684936523438 76.53495788574219 C 126.53720092773438 44.21235656738281 116.95167541503906 55.34523391723633 118.45559692382812 36.33663558959961" stroke-width="3.0" fill="none" stroke="rgb(0, 0, 0)" stroke-opacity="1.0" stroke-linecap="round" stroke-linejoin="round"/>
    <path d="M 143.61148071289062 31.71330451965332 C 143.50875854492188 39.7155647277832 160.13983154296875 8.686659812927246 177.86434936523438 8.056488990783691" stroke-width="3.0" fill="none" stroke="rgb(0, 0, 0)" stroke-opacity="1.0" stroke-linecap="round" stroke-linejoin="round"/>
  </g>
</svg>
