<?xml version="1.0" ?>
<svg xmlns="http://www.w3.org/2000/svg" version="1.1" width="224" height="224">
  <defs/>
  <g>
    <path d="M 55.91387939453125 116.12906646728516 C 58.931270599365234 117.82473754882812 49.66835021972656 111.45640563964844 45.49077606201172 95.1480712890625" stroke-width="3.0" fill="none" stroke="rgb(0, 0, 0)" stroke-opacity="1.0" stroke-linecap="round" stroke-linejoin="round"/>
    <path d="M 182.42181396484375 125.45757293701172 C 181.7384796142578 109.90248107910156 179.81175231933594 113.37692260742188 186.8914337158203 120.8397445678711" stroke-width="3.0" fill="none" stroke="rgb(0, 0, 0)" stroke-opacity="1.0" stroke-linecap="round" stroke-linejoin="round"/>
    <path d="M 51.65217208862305 109.96046447753906 C 53.77720642089844 116.9869155883789 53.013553619384766 107.80797576904297 53.04050827026367 112.29707336425781" stroke-width="3.0" fill="none" stroke="rgb(0, 0, 0)" stroke-opacity="1.0" stroke-linecap="round" stroke-linejoin="round"/>
    <path d="M 186.820556640625 101.03365325927734 C 159.27032470703125 91.56375122070312 175.2075958251953 81.81356048583984 195.1653289794922 113.3899154663086" stroke-width="3.0" fill="none" stroke="rgb(0, 0, 0)" stroke-opacity="1.0" stroke-linecap="round" stroke-linejoin="round"/>
    <path d="M 181.64627075195312 75.43647003173828 C 184.90052795410156 79.67748260498047 179.45535278320312 73.10285949707031 181.37660217285156 74.21785736083984" stroke-width="3.0" fill="none" stroke="rgb(0, 0, 0)" stroke-opacity="1.0" stroke-linecap="round" stroke-linejoin="round"/>
    <path d="M 131.27688598632812 101.19268798828125 C 125.27476501464844 113.02105712890625 118.9677734375 106.65509033203125 136.3909912109375 103.44691467285156" stroke-width="3.0" fill="none" stroke="rgb(0, 0, 0)" stroke-opacity="1.0" stroke-linecap="round" stroke-linejoin="round"/>
    <path d="M 170.17759704589844 85.63143157958984 C 193.4722442626953 76.32099151611328 185.67807006835938 76.92240905761719 161.281005859375 83.20587921142578" stroke-width="3.0" fill="none" stroke="rgb(0, 0, 0)" stroke-opacity="1.0" stroke-linecap="round" stroke-linejoin="round"/>
    <path d="M 54.411277770996094 184.33958435058594 C 36.43968963623047 157.35690307617188 50.24049377441406 163.7364044189453 44.201847076416016 163.4896240234375" stroke-width="3.0" fill="none" stroke="rgb(0, 0, 0)" stroke-opacity="1.0" stroke-linecap="round" stroke-linejoin="round"/>
    <path d="M 69.229248046875 190.07327270507812 C 94.7273941040039 196.09434509277344 114.14795684814453 197.78768920898438 95.32176208496094 188.8540802001953" stroke-width="3.0" fill="none" stroke="rgb(0, 0, 0)" stroke-opacity="1.0" stroke-linecap="round" stroke-linejoin="round"/>
    <path d="M 93.75423431396484 32.4268684387207 C 92.36607360839844 53.99468994140625 98.82135772705078 30.878604888916016 93.68789672851562 48.100006103515625" stroke-width="3.0" fill="none" stroke="rgb(0, 0, 0)" stroke-opacity="1.0" stroke-linecap="round" stroke-linejoin="round"/>
    <path d="M 60.58246612548828 127.82072448730469 C 70.33853149414062 145.02574157714844 77.54405975341797 148.39219665527344 81.37953186035156 151.6881866455078" stroke-width="3.0" fill="none" stroke="rgb(0, 0, 0)" stroke-opacity="1.0" stroke-linecap="round" stroke-linejoin="round"/>
    <path d="M 164.16970825195312 81.64320373535156 C 188.49160766601562 70.51338195800781 178.74432373046875 89.74048614501953 155.64076232910156 87.39137268066406" stroke-width="3.0" fill="none" stroke="rgb(0, 0, 0)" stroke-opacity="1.0" stroke-linecap="round" stroke-linejoin="round"/>
    <path d="M 154.80419921875 101.4636001586914 C 172.94728088378906 100.56658935546875 163.9483642578125 102.58108520507812 185.63999938964844 105.51602172851562" stroke-width="3.0" fill="none" stroke="rgb(0, 0, 0)" stroke-opacity="1.0" stroke-linecap="round" stroke-linejoin="round"/>
    <path d="M 85.14984130859375 165.83335876464844 C 90.77986907958984 182.82217407226562 95.66368103027344 186.5469970703125 98.72454071044922 190.7781524658203" stroke-width="3.0" fill="none" stroke="rgb(0, 0, 0)" stroke-opacity="1.0" stroke-linecap="round" stroke-linejoin="round"/>
    <path d="M 171.51336669921875 8.366835594177246 C 183.4591064453125 2.6248204708099365 184.56280517578125 24.431543350219727 179.80181884765625 57.09539031982422" stroke-width="3.0" fill="none" stroke="rgb(0, 0, 0)" stroke-opacity="1.0" stroke-linecap="round" stroke-linejoin="round"/>
    <path d="M 129.5045623779297 31.254138946533203 C 125.01441192626953 53.234619140625 126.6431655883789 31.869722366333008 130.70985412597656 63.393211364746094" stroke-width="3.0" fill="none" stroke="rgb(0, 0, 0)" stroke-opacity="1.0" stroke-linecap="round" stroke-linejoin="round"/>
    <path d="M 98.93557739257812 47.71086502075195 C 69.34722137451172 -7.366493225097656 87.99510192871094 1.2403758764266968 107.8836669921875 42.213714599609375" stroke-width="3.0" fill="none" stroke="rgb(0, 0, 0)" stroke-opacity="1.0" stroke-linecap="round" stroke-linejoin="round"/>
    <path d="M 49.646461486816406 171.55162048339844 C 36.77596664428711 158.15338134765625 49.7530632019043 161.27780151367188 44.37019348144531 163.4530792236328" stroke-width="3.0" fill="none" stroke="rgb(0, 0, 0)" stroke-opacity="1.0" stroke-linecap="round" stroke-linejoin="round"/>
    <path d="M 31.466650009155273 113.8492660522461 C 29.634742736816406 130.61068725585938 36.19413757324219 139.85067749023438 42.07450866699219 154.37367248535156" stroke-width="3.0" fill="none" stroke="rgb(0, 0, 0)" stroke-opacity="1.0" stroke-linecap="round" stroke-linejoin="round"/>
    <path d="M 79.10126495361328 158.38990783691406 C 86.51924133300781 166.6885986328125 86.40512084960938 167.72694396972656 81.70789337158203 161.6160125732422" stroke-width="3.0" fill="none" stroke="rgb(0, 0, 0)" stroke-opacity="1.0" stroke-linecap="round" stroke-linejoin="round"/>
    <path d="M 75.02375030517578 194.0658416748047 C 45.916893005371094 177.5529022216797 70.24463653564453 191.91534423828125 47.57352828979492 175.5279083251953" stroke-width="3.0" fill="none" stroke="rgb(0, 0, 0)" stroke-opacity="1.0" stroke-linecap="round" stroke-linejoin="round"/>
    <path d="M 42.224483489990234 158.71986389160156 C 47.95109939575195 164.9776611328125 39.71451950073242 155.73849487304688 37.970855712890625 147.85601806640625" stroke-width="3.0" fill="none" stroke="rgb(0, 0, 0)" stroke-opacity="1.0" stroke-linecap="round" stroke-linejoin="round"/>
    <path d="M 64.26494598388672 59.477752685546875 C 46.10737228393555 72.0219497680664 49.394554138183594 74.3941650390625 32.30171585083008 105.99003601074219" stroke-width="3.0" fill="none" stroke="rgb(0, 0, 0)" stroke-opacity="1.0" stroke-linecap="round" stroke-linejoin="round"/>
    <path d="M 143.30636596679688 162.78939819335938 C 130.2755889892578 162.1865234375 126.59461212158203 152.0410614013672 137.97801208496094 167.02272033691406" stroke-width="3.0" fill="none" stroke="rgb(0, 0, 0)" stroke-opacity="1.0" stroke-linecap="round" stroke-linejoin="round"/>
    <path d="M 138.255615234375 30.115005493164062 C 149.5733184814453 50.254249572753906 130.53578186035156 49.429710388183594 138.77264404296875 80.91552734375" stroke-width="3.0" fill="none" stroke="rgb(0, 0, 0)" stroke-opacity="1.0" stroke-linecap="round" stroke-linejoin="round"/>
    <path d="M 147.4923553466797 98.4365234375 C 132.1348419189453 111.78771209716797 112.26302337646484 104.02643585205078 127.99900817871094 105.43067169189453" stroke-width="3.0" fill="none" stroke="rgb(0, 0, 0)" stroke-opacity="1.0" stroke-linecap="round" stroke-linejoin="round"/>
    <path d="M 138.69757080078125 72.62869262695312 C 141.03952026367188 51.66661071777344 150.0180206298828 50.06723403930664 147.090576171875 48.728153228759766" stroke-width="3.0" fill="none" stroke="rgb(0, 0, 0)" stroke-opacity="1.0" stroke-linecap="round" stroke-linejoin="round"/>
    <path d="M 105.84679412841797 193.70558166503906 C 84.341796875 180.04066467285156 94.29138946533203 207.97544860839844 125.63187408447266 182.75694274902344" stroke-width="3.0" fill="none" stroke="rgb(0, 0, 0)" stroke-opacity="1.0" stroke-linecap="round" stroke-linejoin="round"/>
    <path d="M 188.1824951171875 92.8926010131836 C 162.13232421875 85.12542724609375 166.324462890625 93.1385726928711 174.75466918945312 80.85952758789062" stroke-width="3.0" fill="none" stroke="rgb(0, 0, 0)" stroke-opacity="1.0" stroke-linecap="round" stroke-linejoin="round"/>
    <path d="M 174.33566284179688 85.50529479980469 C 185.12718200683594 80.11528015136719 191.89727783203125 89.17559814453125 165.84567260742188 82.46145629882812" stroke-width="3.0" fill="none" stroke="rgb(0, 0, 0)" stroke-opacity="1.0" stroke-linecap="round" stroke-linejoin="round"/>
    <path d="M 109.02214050292969 75.33576202392578 C 86.15343475341797 70.20732879638672 139.5484619140625 71.34361267089844 106.93255615234375 77.86863708496094" stroke-width="3.0" fill="none" stroke="rgb(0, 0, 0)" stroke-opacity="1.0" stroke-linecap="round" stroke-linejoin="round"/>
    <path d="M 134.61785888671875 161.2873992919922 C 139.91549682617188 160.23216247558594 127.01753234863281 162.9344024658203 108.17302703857422 145.97755432128906" stroke-width="3.0" fill="none" stroke="rgb(0, 0, 0)" stroke-opacity="1.0" stroke-linecap="round" stroke-linejoin="round"/>
    <path d="M 123.04229736328125 87.22380828857422 C 142.27613830566406 97.48522186279297 130.11630249023438 77.6515884399414 131.00999450683594 95.5706787109375" stroke-width="3.0" fill="none" stroke="rgb(0, 0, 0)" stroke-opacity="1.0" stroke-linecap="round" stroke-linejoin="round"/>
    <path d="M 187.73367309570312 97.03439331054688 C 173.84640502929688 88.28478240966797 184.15158081054688 98.2449722290039 141.6236114501953 87.01151275634766" stroke-width="3.0" fill="none" stroke="rgb(0, 0, 0)" stroke-opacity="1.0" stroke-linecap="round" stroke-linejoin="round"/>
    <path d="M 83.71296691894531 10.769392967224121 C 108.60225677490234 19.46463966369629 116.19479370117188 36.67264175415039 122.44446563720703 31.914785385131836" stroke-width="3.0" fill="none" stroke="rgb(0, 0, 0)" stroke-opacity="1.0" stroke-linecap="round" stroke-linejoin="round"/>
    <path d="M 53.46342086791992 107.19303131103516 C 49.72468566894531 109.84178924560547 57.66779708862305 122.63812255859375 53.3046760559082 112.92089080810547" stroke-width="3.0" fill="none" stroke="rgb(0, 0, 0)" stroke-opacity="1.0" stroke-linecap="round" stroke-linejoin="round"/>
    <path d="M 121.6199722290039 102.5934829711914 C 99.7273941040039 92.81802368164062 131.94744873046875 101.12432098388672 107.36669921875 94.99417877197266" stroke-width="3.0" fill="none" stroke="rgb(0, 0, 0)" stroke-opacity="1.0" stroke-linecap="round" stroke-linejoin="round"/>
    <path d="M 30.829484939575195 118.49039459228516 C 36.230262756347656 95.53986358642578 34.9509391784668 105.16696166992188 31.113765716552734 111.65423583984375" stroke-width="3.0" fill="none" stroke="rgb(0, 0, 0)" stroke-opacity="1.0" stroke-linecap="round" stroke-linejoin="round"/>
    <path d="M 84.58605194091797 194.12733459472656 C 75.1235122680664 193.2016143798828 75.53606414794922 195.34100341796875 88.35215759277344 195.81588745117188" stroke-width="3.0" fill="none" stroke="rgb(0, 0, 0)" stroke-opacity="1.0" stroke-linecap="round" stroke-linejoin="round"/>
    <path d="M 167.02027893066406 134.3044891357422 C 200.86705017089844 106.69027709960938 175.29632568359375 97.23628234863281 151.13201904296875 94.4429931640625" stroke-width="3.0" fill="none" stroke="rgb(0, 0, 0)" stroke-opacity="1.0" stroke-linecap="round" stroke-linejoin="round"/>
    <path d="M 152.90744018554688 74.58959197998047 C 131.35755920410156 65.44953918457031 154.19879150390625 92.65857696533203 153.57318115234375 73.1717529296875" stroke-width="3.0" fill="none" stroke="rgb(0, 0, 0)" stroke-opacity="1.0" stroke-linecap="round" stroke-linejoin="round"/>
    <path d="M 142.0084686279297 77.0185775756836 C 154.6679229736328 60.862037658691406 165.71685791015625 80.08390808105469 180.41342163085938 69.2962875366211" stroke-width="3.0" fill="none" stroke="rgb(0, 0, 0)" stroke-opacity="1.0" stroke-linecap="round" stroke-linejoin="round"/>
    <path d="M 150.7519989013672 98.61685180664062 C 155.44662475585938 100.59967041015625 170.8996124267578 104.2503890991211 182.23080444335938 115.61812591552734" stroke-width="3.0" fill="none" stroke="rgb(0, 0, 0)" stroke-opacity="1.0" stroke-linecap="round" stroke-linejoin="round"/>
    <path d="M 176.6219940185547 17.938180923461914 C 172.39308166503906 43.174442291259766 173.76332092285156 30.23927116394043 162.20645141601562 37.415313720703125" stroke-width="3.0" fill="none" stroke="rgb(0, 0, 0)" stroke-opacity="1.0" stroke-linecap="round" stroke-linejoin="round"/>
    <path d="M 123.3023910522461 107.77782440185547 C 145.12222290039062 113.91097259521484 135.0650177001953 95.13758087158203 118.00161743164062 107.73572540283203" stroke-width="3.0" fill="none" stroke="rgb(0, 0, 0)" stroke-opacity="1.0" stroke-linecap="round" stroke-linejoin="round"/>
    <path d="M 50.53453826904297 104.42984771728516 C 55.6519775390625 108.54586791992188 47.605594635009766 106.50604248046875 59.924861907958984 124.99817657470703" stroke-width="3.0" fill="none" stroke="rgb(0, 0, 0)" stroke-opacity="1.0" stroke-linecap="round" stroke-linejoin="round"/>
    <path d="M 119.54817962646484 79.47111511230469 C 128.713134765625 62.46951675415039 111.72272491455078 50.697200775146484 114.65108489990234 38.689937591552734" stroke-width="3.0" fill="none" stroke="rgb(0, 0, 0)" stroke-opacity="1.0" stroke-linecap="round" stroke-linejoin="round"/>
    <path d="M 146.8020782470703 34.78889083862305 C 155.75697326660156 29.73280906677246 150.341064453125 20.093664169311523 174.7493133544922 8.26968765258789" stroke-width="3.0" fill="none" stroke="rgb(0, 0, 0)" stroke-opacity="1.0" stroke-linecap="round" stroke-linejoin="round"/>
  </g>
</svg>
