<?xml version="1.0" ?>
<svg xmlns="http://www.w3.org/2000/svg" version="1.1" width="224" height="224">
  <defs/>
  <g>
    <path d="M 52.74042510986328 97.68032836914062 C 57.011192321777344 101.85429382324219 53.16682052612305 99.52902221679688 43.39615249633789 85.49732971191406" stroke-width="3.0" fill="none" stroke="rgb(0, 0, 0)" stroke-opacity="1.0" stroke-linecap="round" stroke-linejoin="round"/>
    <path d="M 183.35641479492188 121.65705108642578 C 180.04666137695312 106.96611785888672 193.11529541015625 102.10672760009766 178.1033172607422 127.20767974853516" stroke-width="3.0" fill="none" stroke="rgb(0, 0, 0)" stroke-opacity="1.0" stroke-linecap="round" stroke-linejoin="round"/>
    <path d="M 59.70814514160156 119.20926666259766 C 55.71235656738281 109.25521850585938 55.456695556640625 109.21686553955078 67.22763061523438 124.56806182861328" stroke-width="3.0" fill="none" stroke="rgb(0, 0, 0)" stroke-opacity="1.0" stroke-linecap="round" stroke-linejoin="round"/>
    <path d="M 183.26852416992188 96.8218002319336 C 150.11793518066406 87.09521484375 175.34571838378906 79.94197082519531 195.48765563964844 113.56369018554688" stroke-width="3.0" fill="none" stroke="rgb(0, 0, 0)" stroke-opacity="1.0" stroke-linecap="round" stroke-linejoin="round"/>
    <path d="M 180.3230438232422 71.37823486328125 C 173.57887268066406 99.09980773925781 186.7761688232422 93.4457778930664 180.69674682617188 58.73281478881836" stroke-width="3.0" fill="none" stroke="rgb(0, 0, 0)" stroke-opacity="1.0" stroke-linecap="round" stroke-linejoin="round"/>
    <path d="M 124.76885223388672 98.51962280273438 C 146.9860076904297 110.17733001708984 105.17443084716797 98.20919036865234 135.73727416992188 104.60416412353516" stroke-width="3.0" fill="none" stroke="rgb(0, 0, 0)" stroke-opacity="1.0" stroke-linecap="round" stroke-linejoin="round"/>
    <path d="M 167.6529083251953 103.44287872314453 C 196.6436309814453 81.24956512451172 183.08387756347656 70.4588623046875 153.79638671875 86.39153289794922" stroke-width="3.0" fill="none" stroke="rgb(0, 0, 0)" stroke-opacity="1.0" stroke-linecap="round" stroke-linejoin="round"/>
    <path d="M 57.24708938598633 183.1185760498047 C 38.73643493652344 154.8223876953125 49.62083053588867 164.2090301513672 47.7852783203125 171.3584442138672" stroke-width="3.0" fill="none" stroke="rgb(0, 0, 0)" stroke-opacity="1.0" stroke-linecap="round" stroke-linejoin="round"/>
    <path d="M 57.770565032958984 181.8271942138672 C 89.0279541015625 210.34486389160156 111.93502807617188 197.37448120117188 133.6920623779297 178.55479431152344" stroke-width="3.0" fill="none" stroke="rgb(0, 0, 0)" stroke-opacity="1.0" stroke-linecap="round" stroke-linejoin="round"/>
    <path d="M 82.97270965576172 29.84397315979004 C 98.6817855834961 58.56837844848633 80.35176849365234 8.829020500183105 84.23844146728516 50.06251525878906" stroke-width="3.0" fill="none" stroke="rgb(0, 0, 0)" stroke-opacity="1.0" stroke-linecap="round" stroke-linejoin="round"/>
    <path d="M 60.50416946411133 115.26905822753906 C 56.40771484375 133.64019775390625 105.55253601074219 152.8341064453125 99.0531005859375 153.94773864746094" stroke-width="3.0" fill="none" stroke="rgb(0, 0, 0)" stroke-opacity="1.0" stroke-linecap="round" stroke-linejoin="round"/>
    <path d="M 144.5089569091797 73.1218490600586 C 205.8841552734375 65.40223693847656 185.15321350097656 83.68978881835938 148.9341278076172 86.22309112548828" stroke-width="3.0" fill="none" stroke="rgb(0, 0, 0)" stroke-opacity="1.0" stroke-linecap="round" stroke-linejoin="round"/>
    <path d="M 148.75245666503906 96.38451385498047 C 180.58685302734375 103.48098754882812 179.0216827392578 102.83230590820312 190.44207763671875 109.53365325927734" stroke-width="3.0" fill="none" stroke="rgb(0, 0, 0)" stroke-opacity="1.0" stroke-linecap="round" stroke-linejoin="round"/>
    <path d="M 113.05257415771484 155.38043212890625 C 145.29327392578125 144.72146606445312 116.4207763671875 156.09156799316406 123.0370101928711 149.90142822265625" stroke-width="3.0" fill="none" stroke="rgb(0, 0, 0)" stroke-opacity="1.0" stroke-linecap="round" stroke-linejoin="round"/>
    <path d="M 177.42189025878906 8.077776908874512 C 190.51600646972656 6.507101058959961 172.7642364501953 58.98220443725586 178.7996063232422 50.17333984375" stroke-width="3.0" fill="none" stroke="rgb(0, 0, 0)" stroke-opacity="1.0" stroke-linecap="round" stroke-linejoin="round"/>
    <path d="M 134.6837921142578 32.91373825073242 C 123.0384750366211 58.988704681396484 137.61886596679688 40.55203628540039 127.92872619628906 73.35628509521484" stroke-width="3.0" fill="none" stroke="rgb(0, 0, 0)" stroke-opacity="1.0" stroke-linecap="round" stroke-linejoin="round"/>
    <path d="M 87.92925262451172 43.44232177734375 C 73.26499938964844 -4.87691593170166 87.60808563232422 -2.7372372150421143 106.45136260986328 37.79367446899414" stroke-width="3.0" fill="none" stroke="rgb(0, 0, 0)" stroke-opacity="1.0" stroke-linecap="round" stroke-linejoin="round"/>
    <path d="M 45.9190559387207 165.25161743164062 C 40.53873825073242 152.16246032714844 38.90953063964844 143.9874267578125 42.22576904296875 156.5269317626953" stroke-width="3.0" fill="none" stroke="rgb(0, 0, 0)" stroke-opacity="1.0" stroke-linecap="round" stroke-linejoin="round"/>
    <path d="M 33.07299041748047 102.84724426269531 C 21.041292190551758 124.30624389648438 35.501609802246094 145.7751922607422 40.29096984863281 153.4528350830078" stroke-width="3.0" fill="none" stroke="rgb(0, 0, 0)" stroke-opacity="1.0" stroke-linecap="round" stroke-linejoin="round"/>
    <path d="M 91.34950256347656 146.00473022460938 C 107.23402404785156 159.16648864746094 121.3764419555664 142.63189697265625 110.71040344238281 157.1858673095703" stroke-width="3.0" fill="none" stroke="rgb(0, 0, 0)" stroke-opacity="1.0" stroke-linecap="round" stroke-linejoin="round"/>
    <path d="M 78.68494415283203 196.87850952148438 C 63.31334686279297 197.1722412109375 57.37113571166992 178.1600799560547 49.54500198364258 175.41033935546875" stroke-width="3.0" fill="none" stroke="rgb(0, 0, 0)" stroke-opacity="1.0" stroke-linecap="round" stroke-linejoin="round"/>
    <path d="M 45.95817565917969 162.7660369873047 C 58.64642333984375 192.6083221435547 43.146568298339844 163.9207305908203 39.810211181640625 151.67127990722656" stroke-width="3.0" fill="none" stroke="rgb(0, 0, 0)" stroke-opacity="1.0" stroke-linecap="round" stroke-linejoin="round"/>
    <path d="M 79.32646942138672 52.37885665893555 C 53.36443328857422 58.127071380615234 48.189537048339844 70.11940002441406 32.68296432495117 105.92575073242188" stroke-width="3.0" fill="none" stroke="rgb(0, 0, 0)" stroke-opacity="1.0" stroke-linecap="round" stroke-linejoin="round"/>
    <path d="M 149.53990173339844 142.16726684570312 C 129.55995178222656 155.73318481445312 117.20755767822266 148.75234985351562 130.2506866455078 151.93081665039062" stroke-width="3.0" fill="none" stroke="rgb(0, 0, 0)" stroke-opacity="1.0" stroke-linecap="round" stroke-linejoin="round"/>
    <path d="M 142.11398315429688 31.115577697753906 C 145.14260864257812 69.4529800415039 132.71636962890625 54.92346954345703 137.0488739013672 75.00796508789062" stroke-width="3.0" fill="none" stroke="rgb(0, 0, 0)" stroke-opacity="1.0" stroke-linecap="round" stroke-linejoin="round"/>
    <path d="M 146.44346618652344 100.72607421875 C 118.27818298339844 111.71028137207031 132.5745391845703 108.88957214355469 141.41429138183594 105.26538848876953" stroke-width="3.0" fill="none" stroke="rgb(0, 0, 0)" stroke-opacity="1.0" stroke-linecap="round" stroke-linejoin="round"/>
    <path d="M 136.9475860595703 72.42208862304688 C 143.71372985839844 56.89949417114258 134.2622528076172 63.59465026855469 137.47178649902344 68.75517272949219" stroke-width="3.0" fill="none" stroke="rgb(0, 0, 0)" stroke-opacity="1.0" stroke-linecap="round" stroke-linejoin="round"/>
    <path d="M 135.49945068359375 172.9539337158203 C 122.78379821777344 186.04226684570312 139.71238708496094 181.60032653808594 142.59828186035156 147.1681365966797" stroke-width="3.0" fill="none" stroke="rgb(0, 0, 0)" stroke-opacity="1.0" stroke-linecap="round" stroke-linejoin="round"/>
    <path d="M 195.3600616455078 95.60589599609375 C 169.0648956298828 73.29131317138672 149.03369140625 84.39778900146484 181.7463836669922 85.71798706054688" stroke-width="3.0" fill="none" stroke="rgb(0, 0, 0)" stroke-opacity="1.0" stroke-linecap="round" stroke-linejoin="round"/>
    <path d="M 148.68763732910156 78.99212646484375 C 162.09571838378906 63.32794189453125 201.5412139892578 76.77139282226562 177.076416015625 62.117679595947266" stroke-width="3.0" fill="none" stroke="rgb(0, 0, 0)" stroke-opacity="1.0" stroke-linecap="round" stroke-linejoin="round"/>
    <path d="M 116.11969757080078 82.2560043334961 C 96.39111328125 71.35314178466797 135.06150817871094 76.94146728515625 111.31812286376953 81.75852966308594" stroke-width="3.0" fill="none" stroke="rgb(0, 0, 0)" stroke-opacity="1.0" stroke-linecap="round" stroke-linejoin="round"/>
    <path d="M 150.17721557617188 141.20907592773438 C 140.43934631347656 161.92239379882812 113.86918640136719 143.75181579589844 104.3460693359375 156.56007385253906" stroke-width="3.0" fill="none" stroke="rgb(0, 0, 0)" stroke-opacity="1.0" stroke-linecap="round" stroke-linejoin="round"/>
    <path d="M 124.32404327392578 88.74097442626953 C 142.25631713867188 100.9070053100586 132.04115295410156 72.1165771484375 127.99852752685547 104.13336944580078" stroke-width="3.0" fill="none" stroke="rgb(0, 0, 0)" stroke-opacity="1.0" stroke-linecap="round" stroke-linejoin="round"/>
    <path d="M 191.9197998046875 111.30115509033203 C 180.30870056152344 76.37870025634766 179.19482421875 95.85780334472656 140.46702575683594 84.18119049072266" stroke-width="3.0" fill="none" stroke="rgb(0, 0, 0)" stroke-opacity="1.0" stroke-linecap="round" stroke-linejoin="round"/>
    <path d="M 86.5333251953125 8.94251823425293 C 105.24935913085938 14.298879623413086 115.1732177734375 32.28281784057617 121.08126068115234 28.828826904296875" stroke-width="3.0" fill="none" stroke="rgb(0, 0, 0)" stroke-opacity="1.0" stroke-linecap="round" stroke-linejoin="round"/>
    <path d="M 60.720359802246094 120.74454498291016 C 54.824947357177734 114.78209686279297 67.69618225097656 133.67709350585938 63.401206970214844 119.7847671508789" stroke-width="3.0" fill="none" stroke="rgb(0, 0, 0)" stroke-opacity="1.0" stroke-linecap="round" stroke-linejoin="round"/>
    <path d="M 139.11907958984375 102.4934310913086 C 126.54315948486328 98.06702423095703 128.1061248779297 116.92739868164062 116.22290802001953 90.33325958251953" stroke-width="3.0" fill="none" stroke="rgb(0, 0, 0)" stroke-opacity="1.0" stroke-linecap="round" stroke-linejoin="round"/>
    <path d="M 30.72089958190918 131.51651000976562 C 25.477474212646484 116.93756103515625 31.946969985961914 98.87184143066406 33.36830520629883 104.58296203613281" stroke-width="3.0" fill="none" stroke="rgb(0, 0, 0)" stroke-opacity="1.0" stroke-linecap="round" stroke-linejoin="round"/>
    <path d="M 78.95362854003906 197.3215789794922 C 74.37773132324219 192.867919921875 68.02342224121094 199.98475646972656 93.23397064208984 199.30410766601562" stroke-width="3.0" fill="none" stroke="rgb(0, 0, 0)" stroke-opacity="1.0" stroke-linecap="round" stroke-linejoin="round"/>
    <path d="M 150.6234130859375 139.75262451171875 C 209.0352783203125 112.43402862548828 182.80531311035156 96.14662170410156 153.93475341796875 91.82831573486328" stroke-width="3.0" fill="none" stroke="rgb(0, 0, 0)" stroke-opacity="1.0" stroke-linecap="round" stroke-linejoin="round"/>
    <path d="M 158.46139526367188 69.91365814208984 C 125.2913589477539 79.85719299316406 172.6449432373047 84.95711517333984 146.45762634277344 69.71082305908203" stroke-width="3.0" fill="none" stroke="rgb(0, 0, 0)" stroke-opacity="1.0" stroke-linecap="round" stroke-linejoin="round"/>
    <path d="M 139.8597869873047 79.92994689941406 C 147.95263671875 44.372459411621094 192.4447479248047 108.20532989501953 176.6345977783203 46.99314498901367" stroke-width="3.0" fill="none" stroke="rgb(0, 0, 0)" stroke-opacity="1.0" stroke-linecap="round" stroke-linejoin="round"/>
    <path d="M 160.18405151367188 100.00104522705078 C 164.09275817871094 104.5208969116211 176.87127685546875 103.40425872802734 182.72483825683594 117.45787811279297" stroke-width="3.0" fill="none" stroke="rgb(0, 0, 0)" stroke-opacity="1.0" stroke-linecap="round" stroke-linejoin="round"/>
    <path d="M 178.4337158203125 18.757095336914062 C 173.42791748046875 43.1760139465332 175.848876953125 22.25006675720215 160.12738037109375 39.441993713378906" stroke-width="3.0" fill="none" stroke="rgb(0, 0, 0)" stroke-opacity="1.0" stroke-linecap="round" stroke-linejoin="round"/>
    <path d="M 117.05397033691406 103.10791015625 C 138.53704833984375 104.01483154296875 131.47593688964844 111.49832153320312 116.13092041015625 95.6407241821289" stroke-width="3.0" fill="none" stroke="rgb(0, 0, 0)" stroke-opacity="1.0" stroke-linecap="round" stroke-linejoin="round"/>
    <path d="M 64.3441390991211 126.65876770019531 C 46.85749816894531 98.48328399658203 48.67353057861328 110.20747375488281 62.45968246459961 122.18688201904297" stroke-width="3.0" fill="none" stroke="rgb(0, 0, 0)" stroke-opacity="1.0" stroke-linecap="round" stroke-linejoin="round"/>
    <path d="M 125.40565490722656 78.16199493408203 C 129.82025146484375 37.71833419799805 117.69783020019531 53.224510192871094 128.03099060058594 30.736047744750977" stroke-width="3.0" fill="none" stroke="rgb(0, 0, 0)" stroke-opacity="1.0" stroke-linecap="round" stroke-linejoin="round"/>
    <path d="M 144.1436004638672 32.71914291381836 C 144.6239471435547 39.50724792480469 158.29586791992188 10.296210289001465 179.9900665283203 8.098968505859375" stroke-width="3.0" fill="none" stroke="rgb(0, 0, 0)" stroke-opacity="1.0" stroke-linecap="round" stroke-linejoin="round"/>
  </g>
</svg>
