<?xml version="1.0" ?>
<svg xmlns="http://www.w3.org/2000/svg" version="1.1" width="224" height="224">
  <defs/>
  <g>
    <path d="M 53.79124450683594 118.8267822265625 C 57.299339294433594 118.83430480957031 47.35810470581055 111.86963653564453 43.85690689086914 94.93096923828125" stroke-width="3.0" fill="none" stroke="rgb(0, 0, 0)" stroke-opacity="1.0" stroke-linecap="round" stroke-linejoin="round"/>
    <path d="M 184.93836975097656 124.52561950683594 C 182.60699462890625 108.34078216552734 182.36715698242188 112.6133041381836 188.1027374267578 117.12120819091797" stroke-width="3.0" fill="none" stroke="rgb(0, 0, 0)" stroke-opacity="1.0" stroke-linecap="round" stroke-linejoin="round"/>
    <path d="M 48.5745964050293 108.5279769897461 C 53.907588958740234 113.44225311279297 51.945865631103516 106.73224639892578 51.37395477294922 112.16149139404297" stroke-width="3.0" fill="none" stroke="rgb(0, 0, 0)" stroke-opacity="1.0" stroke-linecap="round" stroke-linejoin="round"/>
    <path d="M 186.85333251953125 98.78710174560547 C 157.44314575195312 94.78996276855469 172.81939697265625 84.34632873535156 194.59304809570312 110.6076431274414" stroke-width="3.0" fill="none" stroke="rgb(0, 0, 0)" stroke-opacity="1.0" stroke-linecap="round" stroke-linejoin="round"/>
    <path d="M 183.5619659423828 71.35260772705078 C 181.4622802734375 79.9301528930664 174.66282653808594 74.52706146240234 183.63973999023438 70.97306823730469" stroke-width="3.0" fill="none" stroke="rgb(0, 0, 0)" stroke-opacity="1.0" stroke-linecap="round" stroke-linejoin="round"/>
    <path d="M 129.41476440429688 100.53141784667969 C 127.61225128173828 112.69720458984375 117.6843490600586 102.34044647216797 133.31536865234375 104.74954223632812" stroke-width="3.0" fill="none" stroke="rgb(0, 0, 0)" stroke-opacity="1.0" stroke-linecap="round" stroke-linejoin="round"/>
    <path d="M 172.5689697265625 84.31797790527344 C 194.68919372558594 63.973934173583984 184.79440307617188 68.66558837890625 161.69717407226562 84.75013732910156" stroke-width="3.0" fill="none" stroke="rgb(0, 0, 0)" stroke-opacity="1.0" stroke-linecap="round" stroke-linejoin="round"/>
    <path d="M 55.462284088134766 181.37255859375 C 38.735374450683594 155.74508666992188 52.13859939575195 160.5513153076172 43.66242599487305 162.25648498535156" stroke-width="3.0" fill="none" stroke="rgb(0, 0, 0)" stroke-opacity="1.0" stroke-linecap="round" stroke-linejoin="round"/>
    <path d="M 67.19537353515625 189.4306182861328 C 94.61837005615234 200.23162841796875 116.8090591430664 199.0049591064453 97.71239471435547 188.70899963378906" stroke-width="3.0" fill="none" stroke="rgb(0, 0, 0)" stroke-opacity="1.0" stroke-linecap="round" stroke-linejoin="round"/>
    <path d="M 92.30555725097656 25.453344345092773 C 92.12173461914062 55.45811080932617 95.15625762939453 29.088977813720703 93.6429672241211 46.899314880371094" stroke-width="3.0" fill="none" stroke="rgb(0, 0, 0)" stroke-opacity="1.0" stroke-linecap="round" stroke-linejoin="round"/>
    <path d="M 59.90739822387695 129.1278533935547 C 70.47976684570312 142.64915466308594 78.7468490600586 147.6279754638672 82.07022094726562 150.0528564453125" stroke-width="3.0" fill="none" stroke="rgb(0, 0, 0)" stroke-opacity="1.0" stroke-linecap="round" stroke-linejoin="round"/>
    <path d="M 167.1577911376953 79.33161163330078 C 191.33395385742188 71.70824432373047 175.93051147460938 84.17655181884766 151.67959594726562 89.21418762207031" stroke-width="3.0" fill="none" stroke="rgb(0, 0, 0)" stroke-opacity="1.0" stroke-linecap="round" stroke-linejoin="round"/>
    <path d="M 157.3406219482422 100.72338104248047 C 172.0091552734375 101.87406921386719 165.43576049804688 100.9325942993164 185.50257873535156 104.36355590820312" stroke-width="3.0" fill="none" stroke="rgb(0, 0, 0)" stroke-opacity="1.0" stroke-linecap="round" stroke-linejoin="round"/>
    <path d="M 88.10785675048828 164.50894165039062 C 96.11284637451172 184.05413818359375 93.69049835205078 187.2913360595703 101.17884826660156 190.65347290039062" stroke-width="3.0" fill="none" stroke="rgb(0, 0, 0)" stroke-opacity="1.0" stroke-linecap="round" stroke-linejoin="round"/>
    <path d="M 172.37591552734375 9.498708724975586 C 181.09063720703125 1.9159363508224487 181.8976287841797 24.371984481811523 182.88381958007812 64.17003631591797" stroke-width="3.0" fill="none" stroke="rgb(0, 0, 0)" stroke-opacity="1.0" stroke-linecap="round" stroke-linejoin="round"/>
    <path d="M 130.01577758789062 34.35035705566406 C 122.77509307861328 60.406368255615234 128.27903747558594 37.499794006347656 129.54994201660156 61.136714935302734" stroke-width="3.0" fill="none" stroke="rgb(0, 0, 0)" stroke-opacity="1.0" stroke-linecap="round" stroke-linejoin="round"/>
    <path d="M 99.60457611083984 46.5257568359375 C 69.02185821533203 -3.8073911666870117 89.42426300048828 1.5891269445419312 107.44670104980469 41.15934753417969" stroke-width="3.0" fill="none" stroke="rgb(0, 0, 0)" stroke-opacity="1.0" stroke-linecap="round" stroke-linejoin="round"/>
    <path d="M 47.561946868896484 168.17991638183594 C 38.221229553222656 161.44967651367188 52.29892349243164 162.047119140625 44.369205474853516 163.86795043945312" stroke-width="3.0" fill="none" stroke="rgb(0, 0, 0)" stroke-opacity="1.0" stroke-linecap="round" stroke-linejoin="round"/>
    <path d="M 31.23114585876465 109.4916763305664 C 26.816390991210938 129.52586364746094 34.91548156738281 140.7475128173828 44.519596099853516 157.26473999023438" stroke-width="3.0" fill="none" stroke="rgb(0, 0, 0)" stroke-opacity="1.0" stroke-linecap="round" stroke-linejoin="round"/>
    <path d="M 78.34627532958984 153.46702575683594 C 89.08766174316406 164.35137939453125 88.60415649414062 166.83692932128906 83.30838775634766 159.22711181640625" stroke-width="3.0" fill="none" stroke="rgb(0, 0, 0)" stroke-opacity="1.0" stroke-linecap="round" stroke-linejoin="round"/>
    <path d="M 76.58740997314453 194.9083709716797 C 49.086544036865234 177.6845245361328 70.64160919189453 192.35540771484375 49.087894439697266 173.77427673339844" stroke-width="3.0" fill="none" stroke="rgb(0, 0, 0)" stroke-opacity="1.0" stroke-linecap="round" stroke-linejoin="round"/>
    <path d="M 45.44930648803711 157.1712646484375 C 46.3996467590332 168.34178161621094 39.644649505615234 156.0616455078125 37.835811614990234 146.14930725097656" stroke-width="3.0" fill="none" stroke="rgb(0, 0, 0)" stroke-opacity="1.0" stroke-linecap="round" stroke-linejoin="round"/>
    <path d="M 66.5097885131836 59.361328125 C 45.903385162353516 72.78902435302734 48.16144943237305 73.48877716064453 33.57918930053711 105.0029296875" stroke-width="3.0" fill="none" stroke="rgb(0, 0, 0)" stroke-opacity="1.0" stroke-linecap="round" stroke-linejoin="round"/>
    <path d="M 141.6812744140625 159.53292846679688 C 134.9863739013672 159.26004028320312 126.90116882324219 150.92994689941406 138.03321838378906 163.9428253173828" stroke-width="3.0" fill="none" stroke="rgb(0, 0, 0)" stroke-opacity="1.0" stroke-linecap="round" stroke-linejoin="round"/>
    <path d="M 139.6363525390625 34.883487701416016 C 150.4351348876953 53.70064163208008 133.001220703125 47.51190948486328 138.82626342773438 83.49699401855469" stroke-width="3.0" fill="none" stroke="rgb(0, 0, 0)" stroke-opacity="1.0" stroke-linecap="round" stroke-linejoin="round"/>
    <path d="M 146.14857482910156 98.02444458007812 C 131.4630889892578 111.48067474365234 112.12106323242188 103.41449737548828 127.6883544921875 103.11753845214844" stroke-width="3.0" fill="none" stroke="rgb(0, 0, 0)" stroke-opacity="1.0" stroke-linecap="round" stroke-linejoin="round"/>
    <path d="M 137.94622802734375 74.62916564941406 C 144.9203338623047 53.99488830566406 151.98707580566406 54.951412200927734 151.21678161621094 48.418121337890625" stroke-width="3.0" fill="none" stroke="rgb(0, 0, 0)" stroke-opacity="1.0" stroke-linecap="round" stroke-linejoin="round"/>
    <path d="M 109.69035339355469 193.78082275390625 C 84.70802307128906 182.94906616210938 103.30538940429688 207.97613525390625 132.56028747558594 181.92837524414062" stroke-width="3.0" fill="none" stroke="rgb(0, 0, 0)" stroke-opacity="1.0" stroke-linecap="round" stroke-linejoin="round"/>
    <path d="M 190.13442993164062 89.0024642944336 C 156.99502563476562 85.6645736694336 159.89718627929688 88.62015533447266 175.60311889648438 78.42765045166016" stroke-width="3.0" fill="none" stroke="rgb(0, 0, 0)" stroke-opacity="1.0" stroke-linecap="round" stroke-linejoin="round"/>
    <path d="M 169.25057983398438 85.01307678222656 C 190.28402709960938 72.23815155029297 198.4993133544922 88.65896606445312 164.94290161132812 83.839599609375" stroke-width="3.0" fill="none" stroke="rgb(0, 0, 0)" stroke-opacity="1.0" stroke-linecap="round" stroke-linejoin="round"/>
    <path d="M 109.68122100830078 77.04869842529297 C 89.10324096679688 68.4151382446289 140.2608642578125 70.0398178100586 106.6656723022461 78.69021606445312" stroke-width="3.0" fill="none" stroke="rgb(0, 0, 0)" stroke-opacity="1.0" stroke-linecap="round" stroke-linejoin="round"/>
    <path d="M 136.88389587402344 158.09837341308594 C 139.96661376953125 157.6985626220703 128.9448699951172 158.1006622314453 108.59832763671875 139.76312255859375" stroke-width="3.0" fill="none" stroke="rgb(0, 0, 0)" stroke-opacity="1.0" stroke-linecap="round" stroke-linejoin="round"/>
    <path d="M 123.7911148071289 88.96270751953125 C 138.5648956298828 104.0101089477539 133.19580078125 75.09867858886719 128.86842346191406 97.7340316772461" stroke-width="3.0" fill="none" stroke="rgb(0, 0, 0)" stroke-opacity="1.0" stroke-linecap="round" stroke-linejoin="round"/>
    <path d="M 185.74240112304688 95.77752685546875 C 173.7747344970703 87.79285430908203 185.78829956054688 96.80815887451172 143.29994201660156 88.62965393066406" stroke-width="3.0" fill="none" stroke="rgb(0, 0, 0)" stroke-opacity="1.0" stroke-linecap="round" stroke-linejoin="round"/>
    <path d="M 85.93669128417969 10.02224063873291 C 108.50069427490234 19.935293197631836 115.43189239501953 37.11509323120117 122.52662658691406 35.123695373535156" stroke-width="3.0" fill="none" stroke="rgb(0, 0, 0)" stroke-opacity="1.0" stroke-linecap="round" stroke-linejoin="round"/>
    <path d="M 50.917293548583984 113.01829528808594 C 48.9866943359375 109.6801528930664 60.39506912231445 121.53880310058594 51.99558639526367 113.22914123535156" stroke-width="3.0" fill="none" stroke="rgb(0, 0, 0)" stroke-opacity="1.0" stroke-linecap="round" stroke-linejoin="round"/>
    <path d="M 119.60467529296875 104.8525619506836 C 91.69906616210938 100.38685607910156 124.01513671875 112.86547088623047 98.21109008789062 99.08322143554688" stroke-width="3.0" fill="none" stroke="rgb(0, 0, 0)" stroke-opacity="1.0" stroke-linecap="round" stroke-linejoin="round"/>
    <path d="M 31.209484100341797 118.98914337158203 C 35.67901611328125 95.65567016601562 33.264434814453125 103.55362701416016 31.935136795043945 114.03604125976562" stroke-width="3.0" fill="none" stroke="rgb(0, 0, 0)" stroke-opacity="1.0" stroke-linecap="round" stroke-linejoin="round"/>
    <path d="M 85.03272247314453 196.49969482421875 C 74.41642761230469 195.68936157226562 74.96015167236328 196.1376953125 90.34346771240234 197.48016357421875" stroke-width="3.0" fill="none" stroke="rgb(0, 0, 0)" stroke-opacity="1.0" stroke-linecap="round" stroke-linejoin="round"/>
    <path d="M 163.9535369873047 136.68214416503906 C 203.0498046875 112.69512939453125 174.59927368164062 98.03298950195312 151.18572998046875 94.62206268310547" stroke-width="3.0" fill="none" stroke="rgb(0, 0, 0)" stroke-opacity="1.0" stroke-linecap="round" stroke-linejoin="round"/>
    <path d="M 153.39317321777344 76.56204223632812 C 134.06231689453125 63.17148971557617 159.8364715576172 91.50943756103516 152.33531188964844 71.60929107666016" stroke-width="3.0" fill="none" stroke="rgb(0, 0, 0)" stroke-opacity="1.0" stroke-linecap="round" stroke-linejoin="round"/>
    <path d="M 143.08888244628906 76.67047119140625 C 149.43301391601562 56.65387725830078 171.50218200683594 78.55048370361328 183.1607666015625 67.85682678222656" stroke-width="3.0" fill="none" stroke="rgb(0, 0, 0)" stroke-opacity="1.0" stroke-linecap="round" stroke-linejoin="round"/>
    <path d="M 150.34022521972656 100.0807876586914 C 155.39401245117188 98.1605453491211 169.82774353027344 108.87454986572266 183.04286193847656 114.41841888427734" stroke-width="3.0" fill="none" stroke="rgb(0, 0, 0)" stroke-opacity="1.0" stroke-linecap="round" stroke-linejoin="round"/>
    <path d="M 175.56719970703125 16.611684799194336 C 170.4635467529297 41.359066009521484 174.66738891601562 27.0052433013916 162.2317352294922 38.35375213623047" stroke-width="3.0" fill="none" stroke="rgb(0, 0, 0)" stroke-opacity="1.0" stroke-linecap="round" stroke-linejoin="round"/>
    <path d="M 127.06758117675781 107.673828125 C 145.72769165039062 112.42196655273438 131.35748291015625 92.70547485351562 112.86753845214844 109.01964569091797" stroke-width="3.0" fill="none" stroke="rgb(0, 0, 0)" stroke-opacity="1.0" stroke-linecap="round" stroke-linejoin="round"/>
    <path d="M 46.763099670410156 106.38845825195312 C 51.01659393310547 111.9007797241211 47.02550506591797 106.78754425048828 61.21136474609375 128.997314453125" stroke-width="3.0" fill="none" stroke="rgb(0, 0, 0)" stroke-opacity="1.0" stroke-linecap="round" stroke-linejoin="round"/>
    <path d="M 122.52607727050781 84.28478240966797 C 131.08131408691406 58.95433807373047 114.83702087402344 48.53596878051758 115.48692321777344 37.864112854003906" stroke-width="3.0" fill="none" stroke="rgb(0, 0, 0)" stroke-opacity="1.0" stroke-linecap="round" stroke-linejoin="round"/>
    <path d="M 147.1030731201172 33.01134490966797 C 154.5572052001953 29.797658920288086 149.7713623046875 19.660572052001953 174.07398986816406 7.982430934906006" stroke-width="3.0" fill="none" stroke="rgb(0, 0, 0)" stroke-opacity="1.0" stroke-linecap="round" stroke-linejoin="round"/>
  </g>
</svg>
