<?xml version="1.0" ?>
<svg xmlns="http://www.w3.org/2000/svg" version="1.1" width="224" height="224">
  <defs/>
  <g>
    <path d="M 52.41252136230469 116.23819732666016 C 56.71773910522461 116.59452819824219 40.82260513305664 106.80310821533203 40.016326904296875 96.20965576171875" stroke-width="3.0" fill="none" stroke="rgb(0, 0, 0)" stroke-opacity="1.0" stroke-linecap="round" stroke-linejoin="round"/>
    <path d="M 181.77650451660156 125.64383697509766 C 181.80517578125 112.95047760009766 186.60118103027344 115.6436996459961 187.63284301757812 120.36202239990234" stroke-width="3.0" fill="none" stroke="rgb(0, 0, 0)" stroke-opacity="1.0" stroke-linecap="round" stroke-linejoin="round"/>
    <path d="M 50.0214729309082 113.16667175292969 C 49.24867630004883 110.5770263671875 44.9024543762207 111.04864501953125 52.50531005859375 115.88815307617188" stroke-width="3.0" fill="none" stroke="rgb(0, 0, 0)" stroke-opacity="1.0" stroke-linecap="round" stroke-linejoin="round"/>
    <path d="M 182.9683380126953 99.3618392944336 C 154.03245544433594 90.68943786621094 171.9247589111328 77.63392639160156 194.46009826660156 114.69607543945312" stroke-width="3.0" fill="none" stroke="rgb(0, 0, 0)" stroke-opacity="1.0" stroke-linecap="round" stroke-linejoin="round"/>
    <path d="M 183.33154296875 74.64191436767578 C 186.276611328125 95.52664947509766 177.4508819580078 83.90789794921875 186.40158081054688 67.06486511230469" stroke-width="3.0" fill="none" stroke="rgb(0, 0, 0)" stroke-opacity="1.0" stroke-linecap="round" stroke-linejoin="round"/>
    <path d="M 131.8240203857422 100.10604095458984 C 151.97705078125 114.7809829711914 106.51004028320312 104.16024780273438 133.35430908203125 102.19451141357422" stroke-width="3.0" fill="none" stroke="rgb(0, 0, 0)" stroke-opacity="1.0" stroke-linecap="round" stroke-linejoin="round"/>
    <path d="M 172.7847442626953 97.47127532958984 C 201.14328002929688 71.58139038085938 188.66195678710938 76.89289855957031 152.23281860351562 87.98788452148438" stroke-width="3.0" fill="none" stroke="rgb(0, 0, 0)" stroke-opacity="1.0" stroke-linecap="round" stroke-linejoin="round"/>
    <path d="M 52.64239501953125 179.1441192626953 C 38.910587310791016 150.9849395751953 47.112850189208984 161.4429168701172 39.72931671142578 152.55865478515625" stroke-width="3.0" fill="none" stroke="rgb(0, 0, 0)" stroke-opacity="1.0" stroke-linecap="round" stroke-linejoin="round"/>
    <path d="M 66.4628677368164 189.99124145507812 C 90.79409790039062 201.70431518554688 106.73163604736328 197.54734802246094 106.94699096679688 193.1023406982422" stroke-width="3.0" fill="none" stroke="rgb(0, 0, 0)" stroke-opacity="1.0" stroke-linecap="round" stroke-linejoin="round"/>
    <path d="M 88.3543930053711 27.3715877532959 C 91.56837463378906 71.36288452148438 93.66154479980469 25.21114158630371 92.11591339111328 54.24994659423828" stroke-width="3.0" fill="none" stroke="rgb(0, 0, 0)" stroke-opacity="1.0" stroke-linecap="round" stroke-linejoin="round"/>
    <path d="M 56.84894943237305 126.24148559570312 C 66.62405395507812 142.12730407714844 86.13278198242188 145.3617401123047 85.45923614501953 143.18572998046875" stroke-width="3.0" fill="none" stroke="rgb(0, 0, 0)" stroke-opacity="1.0" stroke-linecap="round" stroke-linejoin="round"/>
    <path d="M 151.9311065673828 71.39349365234375 C 208.69671630859375 71.4674301147461 185.931884765625 86.59978485107422 144.37762451171875 87.49376678466797" stroke-width="3.0" fill="none" stroke="rgb(0, 0, 0)" stroke-opacity="1.0" stroke-linecap="round" stroke-linejoin="round"/>
    <path d="M 148.37681579589844 98.40850067138672 C 175.82086181640625 103.29622650146484 170.80526733398438 99.04342651367188 188.1500244140625 109.80580139160156" stroke-width="3.0" fill="none" stroke="rgb(0, 0, 0)" stroke-opacity="1.0" stroke-linecap="round" stroke-linejoin="round"/>
    <path d="M 99.79051208496094 153.67172241210938 C 123.44209289550781 156.84173583984375 109.90370178222656 186.59420776367188 111.85063171386719 188.8211669921875" stroke-width="3.0" fill="none" stroke="rgb(0, 0, 0)" stroke-opacity="1.0" stroke-linecap="round" stroke-linejoin="round"/>
    <path d="M 173.44711303710938 10.575433731079102 C 191.00131225585938 0.38908305764198303 176.61447143554688 48.03412628173828 185.91375732421875 60.19731903076172" stroke-width="3.0" fill="none" stroke="rgb(0, 0, 0)" stroke-opacity="1.0" stroke-linecap="round" stroke-linejoin="round"/>
    <path d="M 132.5198516845703 32.39572525024414 C 128.8363800048828 51.39809036254883 137.91580200195312 38.486412048339844 130.605712890625 68.79718780517578" stroke-width="3.0" fill="none" stroke="rgb(0, 0, 0)" stroke-opacity="1.0" stroke-linecap="round" stroke-linejoin="round"/>
    <path d="M 96.57526397705078 44.81155014038086 C 68.6879653930664 -4.464249610900879 82.19889831542969 0.9141876697540283 101.94391632080078 41.09789276123047" stroke-width="3.0" fill="none" stroke="rgb(0, 0, 0)" stroke-opacity="1.0" stroke-linecap="round" stroke-linejoin="round"/>
    <path d="M 45.16659164428711 161.54818725585938 C 40.637699127197266 152.0486297607422 39.902984619140625 150.59246826171875 40.44060516357422 154.6790313720703" stroke-width="3.0" fill="none" stroke="rgb(0, 0, 0)" stroke-opacity="1.0" stroke-linecap="round" stroke-linejoin="round"/>
    <path d="M 32.22493362426758 108.76670837402344 C 25.89351463317871 124.6023941040039 36.65439987182617 142.9940948486328 41.41417694091797 154.11825561523438" stroke-width="3.0" fill="none" stroke="rgb(0, 0, 0)" stroke-opacity="1.0" stroke-linecap="round" stroke-linejoin="round"/>
    <path d="M 88.07683563232422 147.00738525390625 C 99.413330078125 153.82217407226562 102.90592193603516 153.11636352539062 95.069580078125 150.1435089111328" stroke-width="3.0" fill="none" stroke="rgb(0, 0, 0)" stroke-opacity="1.0" stroke-linecap="round" stroke-linejoin="round"/>
    <path d="M 74.8658447265625 195.98037719726562 C 46.980072021484375 177.85043334960938 62.936195373535156 180.82078552246094 47.068485260009766 171.17713928222656" stroke-width="3.0" fill="none" stroke="rgb(0, 0, 0)" stroke-opacity="1.0" stroke-linecap="round" stroke-linejoin="round"/>
    <path d="M 43.81483840942383 164.68768310546875 C 58.39130783081055 180.5158233642578 40.344356536865234 161.1421356201172 38.392452239990234 149.25242614746094" stroke-width="3.0" fill="none" stroke="rgb(0, 0, 0)" stroke-opacity="1.0" stroke-linecap="round" stroke-linejoin="round"/>
    <path d="M 84.82630157470703 52.67667770385742 C 59.119590759277344 54.063072204589844 44.324119567871094 73.65526580810547 31.57969093322754 106.67656707763672" stroke-width="3.0" fill="none" stroke="rgb(0, 0, 0)" stroke-opacity="1.0" stroke-linecap="round" stroke-linejoin="round"/>
    <path d="M 147.5298309326172 141.5526580810547 C 140.9834747314453 163.5218963623047 123.93145751953125 143.90771484375 138.2242889404297 158.6592254638672" stroke-width="3.0" fill="none" stroke="rgb(0, 0, 0)" stroke-opacity="1.0" stroke-linecap="round" stroke-linejoin="round"/>
    <path d="M 141.88136291503906 32.28009796142578 C 152.53317260742188 60.288978576660156 137.2449188232422 53.60725784301758 139.4618377685547 80.51507568359375" stroke-width="3.0" fill="none" stroke="rgb(0, 0, 0)" stroke-opacity="1.0" stroke-linecap="round" stroke-linejoin="round"/>
    <path d="M 144.1055450439453 102.74424743652344 C 128.5952606201172 115.87129211425781 115.15898132324219 101.16748046875 131.71165466308594 105.5779800415039" stroke-width="3.0" fill="none" stroke="rgb(0, 0, 0)" stroke-opacity="1.0" stroke-linecap="round" stroke-linejoin="round"/>
    <path d="M 138.0334930419922 75.0556869506836 C 149.52130126953125 54.73198699951172 149.9453887939453 57.513092041015625 146.96978759765625 59.87104415893555" stroke-width="3.0" fill="none" stroke="rgb(0, 0, 0)" stroke-opacity="1.0" stroke-linecap="round" stroke-linejoin="round"/>
    <path d="M 122.94773864746094 185.66200256347656 C 90.67284393310547 196.8344268798828 118.21952056884766 202.4435272216797 135.20016479492188 164.96604919433594" stroke-width="3.0" fill="none" stroke="rgb(0, 0, 0)" stroke-opacity="1.0" stroke-linecap="round" stroke-linejoin="round"/>
    <path d="M 193.61874389648438 95.98694610595703 C 162.8541259765625 69.88446807861328 137.17608642578125 100.61223602294922 187.59085083007812 87.05310821533203" stroke-width="3.0" fill="none" stroke="rgb(0, 0, 0)" stroke-opacity="1.0" stroke-linecap="round" stroke-linejoin="round"/>
    <path d="M 164.61012268066406 70.05126953125 C 188.81948852539062 69.93340301513672 194.5489044189453 79.40703582763672 168.25901794433594 73.10574340820312" stroke-width="3.0" fill="none" stroke="rgb(0, 0, 0)" stroke-opacity="1.0" stroke-linecap="round" stroke-linejoin="round"/>
    <path d="M 108.76588439941406 80.4605941772461 C 87.67818450927734 72.6021728515625 142.27761840820312 73.69383239746094 103.33537292480469 82.41694641113281" stroke-width="3.0" fill="none" stroke="rgb(0, 0, 0)" stroke-opacity="1.0" stroke-linecap="round" stroke-linejoin="round"/>
    <path d="M 141.1910858154297 154.62925720214844 C 130.36441040039062 150.6470184326172 124.93207550048828 159.3523406982422 103.77530670166016 143.24049377441406" stroke-width="3.0" fill="none" stroke="rgb(0, 0, 0)" stroke-opacity="1.0" stroke-linecap="round" stroke-linejoin="round"/>
    <path d="M 122.22727966308594 90.50460052490234 C 138.46998596191406 98.41513061523438 133.78834533691406 80.63017272949219 129.34661865234375 95.30958557128906" stroke-width="3.0" fill="none" stroke="rgb(0, 0, 0)" stroke-opacity="1.0" stroke-linecap="round" stroke-linejoin="round"/>
    <path d="M 188.90599060058594 98.30323791503906 C 179.86668395996094 85.55193328857422 187.6492156982422 98.2542953491211 141.24957275390625 86.51313018798828" stroke-width="3.0" fill="none" stroke="rgb(0, 0, 0)" stroke-opacity="1.0" stroke-linecap="round" stroke-linejoin="round"/>
    <path d="M 85.41291809082031 9.408736228942871 C 110.54350280761719 21.452171325683594 113.533935546875 34.74428939819336 123.1448974609375 31.62005043029785" stroke-width="3.0" fill="none" stroke="rgb(0, 0, 0)" stroke-opacity="1.0" stroke-linecap="round" stroke-linejoin="round"/>
    <path d="M 52.52427291870117 115.5039291381836 C 48.15841293334961 109.96723175048828 56.66209030151367 123.75135040283203 52.2874870300293 116.50043487548828" stroke-width="3.0" fill="none" stroke="rgb(0, 0, 0)" stroke-opacity="1.0" stroke-linecap="round" stroke-linejoin="round"/>
    <path d="M 109.86809539794922 103.30109405517578 C 98.66749572753906 88.0650634765625 112.2872314453125 109.2413558959961 102.52621459960938 91.47990417480469" stroke-width="3.0" fill="none" stroke="rgb(0, 0, 0)" stroke-opacity="1.0" stroke-linecap="round" stroke-linejoin="round"/>
    <path d="M 30.40201759338379 125.64867401123047 C 29.663667678833008 101.8181381225586 33.8693733215332 104.54352569580078 30.8356990814209 117.80596160888672" stroke-width="3.0" fill="none" stroke="rgb(0, 0, 0)" stroke-opacity="1.0" stroke-linecap="round" stroke-linejoin="round"/>
    <path d="M 90.62088775634766 197.60617065429688 C 73.70039367675781 197.46543884277344 71.05008697509766 194.3666229248047 92.92446899414062 196.74612426757812" stroke-width="3.0" fill="none" stroke="rgb(0, 0, 0)" stroke-opacity="1.0" stroke-linecap="round" stroke-linejoin="round"/>
    <path d="M 146.24090576171875 143.44467163085938 C 213.88253784179688 114.30796813964844 183.05140686035156 97.30203247070312 152.27597045898438 94.25434112548828" stroke-width="3.0" fill="none" stroke="rgb(0, 0, 0)" stroke-opacity="1.0" stroke-linecap="round" stroke-linejoin="round"/>
    <path d="M 156.18772888183594 75.23027038574219 C 121.7445297241211 78.32071685791016 172.5132293701172 85.80903625488281 147.1528778076172 71.95894622802734" stroke-width="3.0" fill="none" stroke="rgb(0, 0, 0)" stroke-opacity="1.0" stroke-linecap="round" stroke-linejoin="round"/>
    <path d="M 144.6199493408203 76.06657409667969 C 145.90451049804688 50.62740707397461 188.43313598632812 101.1191177368164 183.90374755859375 57.81109619140625" stroke-width="3.0" fill="none" stroke="rgb(0, 0, 0)" stroke-opacity="1.0" stroke-linecap="round" stroke-linejoin="round"/>
    <path d="M 151.2111358642578 98.86370849609375 C 161.614013671875 101.42777252197266 173.1952362060547 106.76058197021484 185.14724731445312 113.76049041748047" stroke-width="3.0" fill="none" stroke="rgb(0, 0, 0)" stroke-opacity="1.0" stroke-linecap="round" stroke-linejoin="round"/>
    <path d="M 177.73004150390625 15.188787460327148 C 168.68751525878906 42.93171310424805 179.98951721191406 23.761390686035156 164.08815002441406 39.5429801940918" stroke-width="3.0" fill="none" stroke="rgb(0, 0, 0)" stroke-opacity="1.0" stroke-linecap="round" stroke-linejoin="round"/>
    <path d="M 125.24193572998047 105.4557113647461 C 149.01925659179688 104.42162322998047 127.19251251220703 110.6063232421875 108.44078826904297 101.91471099853516" stroke-width="3.0" fill="none" stroke="rgb(0, 0, 0)" stroke-opacity="1.0" stroke-linecap="round" stroke-linejoin="round"/>
    <path d="M 52.05451583862305 115.33316802978516 C 51.64160919189453 115.71717071533203 44.94230651855469 109.34220123291016 58.66185760498047 130.43075561523438" stroke-width="3.0" fill="none" stroke="rgb(0, 0, 0)" stroke-opacity="1.0" stroke-linecap="round" stroke-linejoin="round"/>
    <path d="M 121.76476287841797 80.1020736694336 C 128.21551513671875 58.550559997558594 119.43028259277344 55.94227600097656 122.83512878417969 35.058536529541016" stroke-width="3.0" fill="none" stroke="rgb(0, 0, 0)" stroke-opacity="1.0" stroke-linecap="round" stroke-linejoin="round"/>
    <path d="M 146.33914184570312 31.31884765625 C 146.82240295410156 41.090946197509766 150.0813751220703 15.695816040039062 176.66722106933594 8.044154167175293" stroke-width="3.0" fill="none" stroke="rgb(0, 0, 0)" stroke-opacity="1.0" stroke-linecap="round" stroke-linejoin="round"/>
  </g>
</svg>
