<?xml version="1.0" ?>
<svg xmlns="http://www.w3.org/2000/svg" version="1.1" width="224" height="224">
  <defs/>
  <g>
    <path d="M 68.65434265136719 78.86541748046875 C 68.87614440917969 78.46829223632812 74.49236297607422 79.77664947509766 54.2435188293457 73.37743377685547" stroke-width="3.0" fill="none" stroke="rgb(0, 0, 0)" stroke-opacity="1.0" stroke-linecap="round" stroke-linejoin="round"/>
    <path d="M 183.0192108154297 125.04668426513672 C 175.87594604492188 111.61985778808594 197.91278076171875 88.74164581298828 175.35658264160156 129.55442810058594" stroke-width="3.0" fill="none" stroke="rgb(0, 0, 0)" stroke-opacity="1.0" stroke-linecap="round" stroke-linejoin="round"/>
    <path d="M 60.97821044921875 118.92999267578125 C 56.49882888793945 109.48509216308594 55.302879333496094 126.10194396972656 66.64063262939453 132.7390899658203" stroke-width="3.0" fill="none" stroke="rgb(0, 0, 0)" stroke-opacity="1.0" stroke-linecap="round" stroke-linejoin="round"/>
    <path d="M 183.6659393310547 90.24858093261719 C 140.29896545410156 90.0908203125 172.59230041503906 78.91173553466797 193.57521057128906 108.4447250366211" stroke-width="3.0" fill="none" stroke="rgb(0, 0, 0)" stroke-opacity="1.0" stroke-linecap="round" stroke-linejoin="round"/>
    <path d="M 179.6763916015625 66.90845489501953 C 177.4146728515625 112.94120788574219 183.5690460205078 101.5999526977539 180.67152404785156 74.60247802734375" stroke-width="3.0" fill="none" stroke="rgb(0, 0, 0)" stroke-opacity="1.0" stroke-linecap="round" stroke-linejoin="round"/>
    <path d="M 127.12090301513672 104.60279846191406 C 147.6703643798828 110.21260833740234 102.01332092285156 93.5338363647461 135.7963409423828 99.21839141845703" stroke-width="3.0" fill="none" stroke="rgb(0, 0, 0)" stroke-opacity="1.0" stroke-linecap="round" stroke-linejoin="round"/>
    <path d="M 174.8150177001953 81.11872863769531 C 192.09552001953125 88.4966812133789 183.8452606201172 73.5755844116211 156.87672424316406 89.08151245117188" stroke-width="3.0" fill="none" stroke="rgb(0, 0, 0)" stroke-opacity="1.0" stroke-linecap="round" stroke-linejoin="round"/>
    <path d="M 63.8634033203125 188.94271850585938 C 36.920101165771484 157.23670959472656 48.45383071899414 165.2515106201172 49.211822509765625 173.11875915527344" stroke-width="3.0" fill="none" stroke="rgb(0, 0, 0)" stroke-opacity="1.0" stroke-linecap="round" stroke-linejoin="round"/>
    <path d="M 55.63436508178711 180.67123413085938 C 89.86902618408203 212.13406372070312 113.95328521728516 196.93020629882812 132.09515380859375 181.93936157226562" stroke-width="3.0" fill="none" stroke="rgb(0, 0, 0)" stroke-opacity="1.0" stroke-linecap="round" stroke-linejoin="round"/>
    <path d="M 86.31551361083984 26.65519142150879 C 92.291015625 81.8934097290039 82.59939575195312 10.424861907958984 86.81819152832031 53.72419738769531" stroke-width="3.0" fill="none" stroke="rgb(0, 0, 0)" stroke-opacity="1.0" stroke-linecap="round" stroke-linejoin="round"/>
    <path d="M 48.3818244934082 89.9546127319336 C 60.9253044128418 142.69741821289062 88.49459838867188 153.48065185546875 76.1316909790039 145.43911743164062" stroke-width="3.0" fill="none" stroke="rgb(0, 0, 0)" stroke-opacity="1.0" stroke-linecap="round" stroke-linejoin="round"/>
    <path d="M 153.26715087890625 73.25658416748047 C 202.44554138183594 64.81083679199219 184.7518768310547 84.87266540527344 139.68096923828125 86.66533660888672" stroke-width="3.0" fill="none" stroke="rgb(0, 0, 0)" stroke-opacity="1.0" stroke-linecap="round" stroke-linejoin="round"/>
    <path d="M 152.655517578125 95.43877410888672 C 185.88511657714844 104.22944641113281 176.37855529785156 102.2217788696289 196.09066772460938 114.1551742553711" stroke-width="3.0" fill="none" stroke="rgb(0, 0, 0)" stroke-opacity="1.0" stroke-linecap="round" stroke-linejoin="round"/>
    <path d="M 108.2120132446289 153.28533935546875 C 144.40684509277344 149.32908630371094 123.03337860107422 155.7946319580078 105.99315643310547 155.50759887695312" stroke-width="3.0" fill="none" stroke="rgb(0, 0, 0)" stroke-opacity="1.0" stroke-linecap="round" stroke-linejoin="round"/>
    <path d="M 177.42715454101562 9.646940231323242 C 186.6498260498047 23.21587371826172 173.3365478515625 71.9225082397461 180.50531005859375 57.57356262207031" stroke-width="3.0" fill="none" stroke="rgb(0, 0, 0)" stroke-opacity="1.0" stroke-linecap="round" stroke-linejoin="round"/>
    <path d="M 135.49057006835938 33.234893798828125 C 130.34092712402344 45.005245208740234 136.55162048339844 52.236541748046875 128.00990295410156 62.79813003540039" stroke-width="3.0" fill="none" stroke="rgb(0, 0, 0)" stroke-opacity="1.0" stroke-linecap="round" stroke-linejoin="round"/>
    <path d="M 90.95269012451172 43.07198715209961 C 71.0973892211914 -1.5796854496002197 89.8255386352539 -2.9796488285064697 111.93116760253906 36.726837158203125" stroke-width="3.0" fill="none" stroke="rgb(0, 0, 0)" stroke-opacity="1.0" stroke-linecap="round" stroke-linejoin="round"/>
    <path d="M 47.438594818115234 172.0791473388672 C 40.522552490234375 153.85293579101562 36.677425384521484 147.0148162841797 47.13469314575195 170.3413848876953" stroke-width="3.0" fill="none" stroke="rgb(0, 0, 0)" stroke-opacity="1.0" stroke-linecap="round" stroke-linejoin="round"/>
    <path d="M 36.19907760620117 98.16470336914062 C 18.94537353515625 129.9874267578125 41.53769302368164 146.5884246826172 43.609256744384766 164.4714813232422" stroke-width="3.0" fill="none" stroke="rgb(0, 0, 0)" stroke-opacity="1.0" stroke-linecap="round" stroke-linejoin="round"/>
    <path d="M 87.64703369140625 151.19432067871094 C 115.56712341308594 158.74351501464844 98.57676696777344 157.42230224609375 99.96927642822266 152.8751220703125" stroke-width="3.0" fill="none" stroke="rgb(0, 0, 0)" stroke-opacity="1.0" stroke-linecap="round" stroke-linejoin="round"/>
    <path d="M 87.64006042480469 198.0696563720703 C 69.56584930419922 202.81834411621094 48.55106735229492 176.31246948242188 48.7078971862793 169.54324340820312" stroke-width="3.0" fill="none" stroke="rgb(0, 0, 0)" stroke-opacity="1.0" stroke-linecap="round" stroke-linejoin="round"/>
    <path d="M 48.99820327758789 173.38917541503906 C 64.412841796875 196.72059631347656 48.18909454345703 168.746826171875 37.438323974609375 146.0751953125" stroke-width="3.0" fill="none" stroke="rgb(0, 0, 0)" stroke-opacity="1.0" stroke-linecap="round" stroke-linejoin="round"/>
    <path d="M 79.2212142944336 56.55699157714844 C 63.28269958496094 58.05047607421875 48.04365921020508 72.10855102539062 32.9284553527832 107.31224822998047" stroke-width="3.0" fill="none" stroke="rgb(0, 0, 0)" stroke-opacity="1.0" stroke-linecap="round" stroke-linejoin="round"/>
    <path d="M 153.74658203125 140.3221435546875 C 114.51657104492188 153.1363983154297 117.07437133789062 160.31260681152344 143.52430725097656 144.14222717285156" stroke-width="3.0" fill="none" stroke="rgb(0, 0, 0)" stroke-opacity="1.0" stroke-linecap="round" stroke-linejoin="round"/>
    <path d="M 151.37582397460938 25.49262237548828 C 142.05662536621094 35.56959915161133 135.93600463867188 19.63802146911621 135.6730194091797 82.28592681884766" stroke-width="3.0" fill="none" stroke="rgb(0, 0, 0)" stroke-opacity="1.0" stroke-linecap="round" stroke-linejoin="round"/>
    <path d="M 147.09188842773438 93.66412353515625 C 128.6851806640625 106.69222259521484 130.2168426513672 108.73611450195312 120.88484954833984 101.68448638916016" stroke-width="3.0" fill="none" stroke="rgb(0, 0, 0)" stroke-opacity="1.0" stroke-linecap="round" stroke-linejoin="round"/>
    <path d="M 134.5694122314453 73.81767272949219 C 143.39669799804688 60.489051818847656 127.80746459960938 62.12321472167969 134.8872528076172 78.80008697509766" stroke-width="3.0" fill="none" stroke="rgb(0, 0, 0)" stroke-opacity="1.0" stroke-linecap="round" stroke-linejoin="round"/>
    <path d="M 134.89651489257812 178.24267578125 C 129.6895751953125 181.8421173095703 141.12216186523438 179.7537078857422 148.84347534179688 145.5456085205078" stroke-width="3.0" fill="none" stroke="rgb(0, 0, 0)" stroke-opacity="1.0" stroke-linecap="round" stroke-linejoin="round"/>
    <path d="M 196.43844604492188 93.70612335205078 C 167.26588439941406 73.88592529296875 167.12100219726562 82.71715545654297 182.14828491210938 88.08755493164062" stroke-width="3.0" fill="none" stroke="rgb(0, 0, 0)" stroke-opacity="1.0" stroke-linecap="round" stroke-linejoin="round"/>
    <path d="M 156.494140625 78.61177062988281 C 123.47123718261719 61.46784973144531 198.88055419921875 81.95018005371094 181.2832489013672 63.352638244628906" stroke-width="3.0" fill="none" stroke="rgb(0, 0, 0)" stroke-opacity="1.0" stroke-linecap="round" stroke-linejoin="round"/>
    <path d="M 109.55108642578125 76.81117248535156 C 82.49676513671875 69.6689453125 141.88462829589844 72.67125701904297 107.14200592041016 78.71443939208984" stroke-width="3.0" fill="none" stroke="rgb(0, 0, 0)" stroke-opacity="1.0" stroke-linecap="round" stroke-linejoin="round"/>
    <path d="M 163.5742950439453 129.9145050048828 C 142.8467254638672 157.52418518066406 120.45834350585938 148.4898223876953 102.80193328857422 156.77366638183594" stroke-width="3.0" fill="none" stroke="rgb(0, 0, 0)" stroke-opacity="1.0" stroke-linecap="round" stroke-linejoin="round"/>
    <path d="M 116.93353271484375 89.55541229248047 C 142.4197235107422 97.54157257080078 123.26226806640625 65.3450927734375 126.54993438720703 105.81266784667969" stroke-width="3.0" fill="none" stroke="rgb(0, 0, 0)" stroke-opacity="1.0" stroke-linecap="round" stroke-linejoin="round"/>
    <path d="M 188.36361694335938 114.54981231689453 C 171.89564514160156 87.26246643066406 181.68772888183594 83.40503692626953 149.4115753173828 88.83136749267578" stroke-width="3.0" fill="none" stroke="rgb(0, 0, 0)" stroke-opacity="1.0" stroke-linecap="round" stroke-linejoin="round"/>
    <path d="M 86.75072479248047 10.96438217163086 C 103.77303314208984 13.068034172058105 113.30005645751953 36.849456787109375 121.63005828857422 30.914974212646484" stroke-width="3.0" fill="none" stroke="rgb(0, 0, 0)" stroke-opacity="1.0" stroke-linecap="round" stroke-linejoin="round"/>
    <path d="M 59.803802490234375 123.14004516601562 C 54.31013870239258 117.23282623291016 62.57470703125 126.97907257080078 61.05971145629883 122.8692398071289" stroke-width="3.0" fill="none" stroke="rgb(0, 0, 0)" stroke-opacity="1.0" stroke-linecap="round" stroke-linejoin="round"/>
    <path d="M 136.74911499023438 104.3070297241211 C 120.43352508544922 88.0975570678711 121.00659942626953 121.36804962158203 111.72453308105469 92.41947174072266" stroke-width="3.0" fill="none" stroke="rgb(0, 0, 0)" stroke-opacity="1.0" stroke-linecap="round" stroke-linejoin="round"/>
    <path d="M 30.03508949279785 126.89752197265625 C 27.468244552612305 98.97195434570312 37.417789459228516 99.85655212402344 48.866912841796875 78.76603698730469" stroke-width="3.0" fill="none" stroke="rgb(0, 0, 0)" stroke-opacity="1.0" stroke-linecap="round" stroke-linejoin="round"/>
    <path d="M 79.69056701660156 197.44140625 C 70.42447662353516 193.5303955078125 64.73886108398438 196.35400390625 101.04534912109375 199.81533813476562" stroke-width="3.0" fill="none" stroke="rgb(0, 0, 0)" stroke-opacity="1.0" stroke-linecap="round" stroke-linejoin="round"/>
    <path d="M 164.30563354492188 130.71243286132812 C 201.21426391601562 112.61444854736328 180.36016845703125 96.39031219482422 158.26377868652344 89.2800064086914" stroke-width="3.0" fill="none" stroke="rgb(0, 0, 0)" stroke-opacity="1.0" stroke-linecap="round" stroke-linejoin="round"/>
    <path d="M 152.25436401367188 68.05412292480469 C 137.05589294433594 89.22760772705078 178.47286987304688 75.4541015625 148.35621643066406 68.72181701660156" stroke-width="3.0" fill="none" stroke="rgb(0, 0, 0)" stroke-opacity="1.0" stroke-linecap="round" stroke-linejoin="round"/>
    <path d="M 140.6830291748047 76.58358764648438 C 148.09776306152344 44.168174743652344 197.8043975830078 111.34355163574219 178.1700897216797 42.91422653198242" stroke-width="3.0" fill="none" stroke="rgb(0, 0, 0)" stroke-opacity="1.0" stroke-linecap="round" stroke-linejoin="round"/>
    <path d="M 154.60499572753906 96.0518798828125 C 168.49472045898438 105.42908477783203 176.1848602294922 103.37877655029297 181.70814514160156 118.65975189208984" stroke-width="3.0" fill="none" stroke="rgb(0, 0, 0)" stroke-opacity="1.0" stroke-linecap="round" stroke-linejoin="round"/>
    <path d="M 175.6874542236328 12.36710262298584 C 169.5531768798828 42.651798248291016 181.3472900390625 19.47965431213379 164.1488494873047 33.505157470703125" stroke-width="3.0" fill="none" stroke="rgb(0, 0, 0)" stroke-opacity="1.0" stroke-linecap="round" stroke-linejoin="round"/>
    <path d="M 121.53217315673828 101.90309143066406 C 146.01596069335938 100.09039306640625 131.60443115234375 112.30494689941406 119.40322875976562 103.14479064941406" stroke-width="3.0" fill="none" stroke="rgb(0, 0, 0)" stroke-opacity="1.0" stroke-linecap="round" stroke-linejoin="round"/>
    <path d="M 69.64545440673828 134.4232635498047 C 51.749332427978516 121.6293716430664 61.14643478393555 113.0069351196289 59.209083557128906 117.77105712890625" stroke-width="3.0" fill="none" stroke="rgb(0, 0, 0)" stroke-opacity="1.0" stroke-linecap="round" stroke-linejoin="round"/>
    <path d="M 123.7186050415039 71.99211883544922 C 133.625732421875 34.797767639160156 123.45699310302734 53.55305480957031 127.64897155761719 32.264015197753906" stroke-width="3.0" fill="none" stroke="rgb(0, 0, 0)" stroke-opacity="1.0" stroke-linecap="round" stroke-linejoin="round"/>
    <path d="M 158.92404174804688 22.099714279174805 C 150.91781616210938 35.96672821044922 165.96817016601562 6.772118091583252 178.38394165039062 7.670371055603027" stroke-width="3.0" fill="none" stroke="rgb(0, 0, 0)" stroke-opacity="1.0" stroke-linecap="round" stroke-linejoin="round"/>
  </g>
</svg>
