<?xml version="1.0" ?>
<svg xmlns="http://www.w3.org/2000/svg" version="1.1" width="224" height="224">
  <defs/>
  <g>
    <path d="M 60.330684661865234 99.39493560791016 C 58.60060501098633 91.47551727294922 59.33915710449219 103.33747863769531 51.768798828125 88.20975494384766" stroke-width="3.0" fill="none" stroke="rgb(0, 0, 0)" stroke-opacity="1.0" stroke-linecap="round" stroke-linejoin="round"/>
    <path d="M 182.81533813476562 123.59988403320312 C 178.03077697753906 113.96405029296875 202.54864501953125 85.94413757324219 174.7342987060547 129.2374725341797" stroke-width="3.0" fill="none" stroke="rgb(0, 0, 0)" stroke-opacity="1.0" stroke-linecap="round" stroke-linejoin="round"/>
    <path d="M 58.020973205566406 110.02564239501953 C 54.929447174072266 107.60455322265625 53.778465270996094 128.80360412597656 64.1856460571289 132.14356994628906" stroke-width="3.0" fill="none" stroke="rgb(0, 0, 0)" stroke-opacity="1.0" stroke-linecap="round" stroke-linejoin="round"/>
    <path d="M 186.53541564941406 92.67729187011719 C 135.70999145507812 91.35379028320312 178.58843994140625 86.51183319091797 187.9617156982422 105.18877410888672" stroke-width="3.0" fill="none" stroke="rgb(0, 0, 0)" stroke-opacity="1.0" stroke-linecap="round" stroke-linejoin="round"/>
    <path d="M 178.82177734375 72.34133911132812 C 193.3323211669922 108.9863052368164 179.72463989257812 106.56315612792969 176.60369873046875 72.42418670654297" stroke-width="3.0" fill="none" stroke="rgb(0, 0, 0)" stroke-opacity="1.0" stroke-linecap="round" stroke-linejoin="round"/>
    <path d="M 119.71504974365234 107.7662124633789 C 143.78245544433594 118.4910659790039 110.18852233886719 93.23731994628906 139.67333984375 97.6305160522461" stroke-width="3.0" fill="none" stroke="rgb(0, 0, 0)" stroke-opacity="1.0" stroke-linecap="round" stroke-linejoin="round"/>
    <path d="M 180.14724731445312 91.34495544433594 C 184.19100952148438 81.14336395263672 184.641357421875 69.86920166015625 140.1111602783203 87.38162231445312" stroke-width="3.0" fill="none" stroke="rgb(0, 0, 0)" stroke-opacity="1.0" stroke-linecap="round" stroke-linejoin="round"/>
    <path d="M 66.1095962524414 189.06466674804688 C 38.52584457397461 163.45265197753906 50.17985916137695 171.18528747558594 47.87566375732422 170.8800811767578" stroke-width="3.0" fill="none" stroke="rgb(0, 0, 0)" stroke-opacity="1.0" stroke-linecap="round" stroke-linejoin="round"/>
    <path d="M 55.318641662597656 180.35951232910156 C 94.08401489257812 209.7242889404297 118.04161071777344 196.29513549804688 134.09747314453125 174.63417053222656" stroke-width="3.0" fill="none" stroke="rgb(0, 0, 0)" stroke-opacity="1.0" stroke-linecap="round" stroke-linejoin="round"/>
    <path d="M 84.05055236816406 29.018726348876953 C 96.57738494873047 80.77191925048828 84.94632720947266 11.130955696105957 83.95645904541016 52.461692810058594" stroke-width="3.0" fill="none" stroke="rgb(0, 0, 0)" stroke-opacity="1.0" stroke-linecap="round" stroke-linejoin="round"/>
    <path d="M 47.031856536865234 88.34646606445312 C 65.8581771850586 144.5614471435547 78.73403930664062 147.88058471679688 74.75994110107422 142.13372802734375" stroke-width="3.0" fill="none" stroke="rgb(0, 0, 0)" stroke-opacity="1.0" stroke-linecap="round" stroke-linejoin="round"/>
    <path d="M 149.87600708007812 71.28528594970703 C 200.9921417236328 63.70093536376953 192.372802734375 94.76815032958984 142.68113708496094 83.68753814697266" stroke-width="3.0" fill="none" stroke="rgb(0, 0, 0)" stroke-opacity="1.0" stroke-linecap="round" stroke-linejoin="round"/>
    <path d="M 149.9600067138672 96.55351257324219 C 181.1357879638672 103.86404418945312 176.07623291015625 99.45487213134766 195.03981018066406 112.85491180419922" stroke-width="3.0" fill="none" stroke="rgb(0, 0, 0)" stroke-opacity="1.0" stroke-linecap="round" stroke-linejoin="round"/>
    <path d="M 115.57417297363281 150.32476806640625 C 149.6941375732422 156.66506958007812 117.35148620605469 145.8090362548828 103.89142608642578 157.99986267089844" stroke-width="3.0" fill="none" stroke="rgb(0, 0, 0)" stroke-opacity="1.0" stroke-linecap="round" stroke-linejoin="round"/>
    <path d="M 180.3192901611328 8.377382278442383 C 187.95199584960938 24.483043670654297 170.6273956298828 69.77873992919922 180.09796142578125 54.234222412109375" stroke-width="3.0" fill="none" stroke="rgb(0, 0, 0)" stroke-opacity="1.0" stroke-linecap="round" stroke-linejoin="round"/>
    <path d="M 132.16958618164062 28.72024154663086 C 125.38710021972656 37.80036163330078 135.53549194335938 43.94546890258789 124.31996154785156 64.06991577148438" stroke-width="3.0" fill="none" stroke="rgb(0, 0, 0)" stroke-opacity="1.0" stroke-linecap="round" stroke-linejoin="round"/>
    <path d="M 92.9315414428711 44.85449981689453 C 69.66146850585938 -4.558267593383789 86.95542907714844 1.360734462738037 111.37523651123047 31.66324234008789" stroke-width="3.0" fill="none" stroke="rgb(0, 0, 0)" stroke-opacity="1.0" stroke-linecap="round" stroke-linejoin="round"/>
    <path d="M 46.419620513916016 165.26121520996094 C 40.78936767578125 154.02703857421875 37.436031341552734 146.85206604003906 48.73188781738281 168.76931762695312" stroke-width="3.0" fill="none" stroke="rgb(0, 0, 0)" stroke-opacity="1.0" stroke-linecap="round" stroke-linejoin="round"/>
    <path d="M 35.60414123535156 98.43125915527344 C 19.32872772216797 132.21311950683594 40.70881271362305 145.61329650878906 44.58473205566406 163.8677520751953" stroke-width="3.0" fill="none" stroke="rgb(0, 0, 0)" stroke-opacity="1.0" stroke-linecap="round" stroke-linejoin="round"/>
    <path d="M 77.35999298095703 143.51597595214844 C 115.30601501464844 156.46112060546875 90.9840087890625 153.32254028320312 96.20452880859375 150.1512908935547" stroke-width="3.0" fill="none" stroke="rgb(0, 0, 0)" stroke-opacity="1.0" stroke-linecap="round" stroke-linejoin="round"/>
    <path d="M 90.86712646484375 196.83447265625 C 69.4319839477539 203.15121459960938 49.454017639160156 175.5572967529297 47.70164108276367 170.19622802734375" stroke-width="3.0" fill="none" stroke="rgb(0, 0, 0)" stroke-opacity="1.0" stroke-linecap="round" stroke-linejoin="round"/>
    <path d="M 49.167518615722656 172.96202087402344 C 67.27828216552734 190.77857971191406 45.4190673828125 172.65269470214844 43.1848030090332 151.87806701660156" stroke-width="3.0" fill="none" stroke="rgb(0, 0, 0)" stroke-opacity="1.0" stroke-linecap="round" stroke-linejoin="round"/>
    <path d="M 79.56304931640625 51.81563949584961 C 61.95896530151367 56.78238296508789 47.683929443359375 71.11726379394531 33.51317596435547 106.86614227294922" stroke-width="3.0" fill="none" stroke="rgb(0, 0, 0)" stroke-opacity="1.0" stroke-linecap="round" stroke-linejoin="round"/>
    <path d="M 158.4405059814453 139.7960662841797 C 114.02397918701172 158.08453369140625 108.83861541748047 160.22476196289062 147.57777404785156 146.9987335205078" stroke-width="3.0" fill="none" stroke="rgb(0, 0, 0)" stroke-opacity="1.0" stroke-linecap="round" stroke-linejoin="round"/>
    <path d="M 150.642333984375 24.194536209106445 C 135.11209106445312 33.60076904296875 130.28269958496094 4.006853103637695 138.30274963378906 83.26011657714844" stroke-width="3.0" fill="none" stroke="rgb(0, 0, 0)" stroke-opacity="1.0" stroke-linecap="round" stroke-linejoin="round"/>
    <path d="M 142.26991271972656 90.76229858398438 C 132.68728637695312 105.64202117919922 129.7310791015625 101.18273162841797 117.57136535644531 102.33782196044922" stroke-width="3.0" fill="none" stroke="rgb(0, 0, 0)" stroke-opacity="1.0" stroke-linecap="round" stroke-linejoin="round"/>
    <path d="M 138.3238525390625 80.1632080078125 C 136.56253051757812 54.86533737182617 133.28346252441406 63.884132385253906 137.4286346435547 73.98876953125" stroke-width="3.0" fill="none" stroke="rgb(0, 0, 0)" stroke-opacity="1.0" stroke-linecap="round" stroke-linejoin="round"/>
    <path d="M 137.318115234375 169.24761962890625 C 126.09587860107422 178.22923278808594 140.66102600097656 174.07064819335938 143.55271911621094 145.08914184570312" stroke-width="3.0" fill="none" stroke="rgb(0, 0, 0)" stroke-opacity="1.0" stroke-linecap="round" stroke-linejoin="round"/>
    <path d="M 196.47174072265625 96.0083999633789 C 166.9871368408203 72.6321029663086 163.0784149169922 83.67633056640625 189.5082244873047 93.47571563720703" stroke-width="3.0" fill="none" stroke="rgb(0, 0, 0)" stroke-opacity="1.0" stroke-linecap="round" stroke-linejoin="round"/>
    <path d="M 153.94664001464844 74.80364990234375 C 119.75293731689453 57.966556549072266 203.2883758544922 80.16387176513672 180.16049194335938 66.87174224853516" stroke-width="3.0" fill="none" stroke="rgb(0, 0, 0)" stroke-opacity="1.0" stroke-linecap="round" stroke-linejoin="round"/>
    <path d="M 112.99444580078125 81.9248046875 C 95.08196258544922 70.44001007080078 132.87979125976562 77.27818298339844 107.86416625976562 81.60179138183594" stroke-width="3.0" fill="none" stroke="rgb(0, 0, 0)" stroke-opacity="1.0" stroke-linecap="round" stroke-linejoin="round"/>
    <path d="M 166.31463623046875 128.0467529296875 C 151.91282653808594 157.871826171875 114.22738647460938 147.98934936523438 98.15589904785156 152.7874755859375" stroke-width="3.0" fill="none" stroke="rgb(0, 0, 0)" stroke-opacity="1.0" stroke-linecap="round" stroke-linejoin="round"/>
    <path d="M 121.32522583007812 90.62403106689453 C 138.03102111816406 103.43270111083984 127.27548217773438 69.27226257324219 126.90665435791016 105.59455108642578" stroke-width="3.0" fill="none" stroke="rgb(0, 0, 0)" stroke-opacity="1.0" stroke-linecap="round" stroke-linejoin="round"/>
    <path d="M 186.03411865234375 112.8287582397461 C 167.701904296875 86.05902862548828 185.60836791992188 87.7896957397461 151.794677734375 90.62520599365234" stroke-width="3.0" fill="none" stroke="rgb(0, 0, 0)" stroke-opacity="1.0" stroke-linecap="round" stroke-linejoin="round"/>
    <path d="M 85.05132293701172 7.202885627746582 C 108.06395721435547 13.382182121276855 114.91123962402344 36.074974060058594 130.18446350097656 27.658845901489258" stroke-width="3.0" fill="none" stroke="rgb(0, 0, 0)" stroke-opacity="1.0" stroke-linecap="round" stroke-linejoin="round"/>
    <path d="M 60.06997299194336 118.21880340576172 C 57.386470794677734 116.1186294555664 62.881168365478516 127.23966217041016 70.0412368774414 133.95101928710938" stroke-width="3.0" fill="none" stroke="rgb(0, 0, 0)" stroke-opacity="1.0" stroke-linecap="round" stroke-linejoin="round"/>
    <path d="M 128.66534423828125 103.8864974975586 C 138.0828094482422 90.73023986816406 116.96903228759766 119.08834838867188 108.62604522705078 93.40943145751953" stroke-width="3.0" fill="none" stroke="rgb(0, 0, 0)" stroke-opacity="1.0" stroke-linecap="round" stroke-linejoin="round"/>
    <path d="M 30.271005630493164 131.4061737060547 C 27.30497932434082 105.6688461303711 37.35049819946289 99.53480529785156 52.56654739379883 76.96266174316406" stroke-width="3.0" fill="none" stroke="rgb(0, 0, 0)" stroke-opacity="1.0" stroke-linecap="round" stroke-linejoin="round"/>
    <path d="M 82.64099884033203 196.46176147460938 C 67.71150970458984 193.54861450195312 67.88224792480469 199.4636993408203 105.77674865722656 197.78738403320312" stroke-width="3.0" fill="none" stroke="rgb(0, 0, 0)" stroke-opacity="1.0" stroke-linecap="round" stroke-linejoin="round"/>
    <path d="M 166.56939697265625 130.13096618652344 C 200.09971618652344 112.41727447509766 180.3291015625 95.65130615234375 154.34140014648438 90.88859558105469" stroke-width="3.0" fill="none" stroke="rgb(0, 0, 0)" stroke-opacity="1.0" stroke-linecap="round" stroke-linejoin="round"/>
    <path d="M 149.90658569335938 69.7840805053711 C 136.1986541748047 81.98685455322266 170.5310516357422 74.22064971923828 146.71597290039062 69.64818572998047" stroke-width="3.0" fill="none" stroke="rgb(0, 0, 0)" stroke-opacity="1.0" stroke-linecap="round" stroke-linejoin="round"/>
    <path d="M 138.5944061279297 74.00303649902344 C 146.64593505859375 39.64983367919922 199.2346954345703 111.85139465332031 177.56515502929688 42.40913772583008" stroke-width="3.0" fill="none" stroke="rgb(0, 0, 0)" stroke-opacity="1.0" stroke-linecap="round" stroke-linejoin="round"/>
    <path d="M 156.16539001464844 98.00572967529297 C 168.6793975830078 105.26065826416016 174.28512573242188 101.44628143310547 182.63197326660156 117.58052825927734" stroke-width="3.0" fill="none" stroke="rgb(0, 0, 0)" stroke-opacity="1.0" stroke-linecap="round" stroke-linejoin="round"/>
    <path d="M 175.63723754882812 18.784908294677734 C 164.18960571289062 41.754486083984375 173.52877807617188 21.23923683166504 158.87266540527344 35.18414306640625" stroke-width="3.0" fill="none" stroke="rgb(0, 0, 0)" stroke-opacity="1.0" stroke-linecap="round" stroke-linejoin="round"/>
    <path d="M 117.43085479736328 100.7138442993164 C 144.87086486816406 91.80801391601562 133.47988891601562 108.6599349975586 121.0778579711914 105.00939178466797" stroke-width="3.0" fill="none" stroke="rgb(0, 0, 0)" stroke-opacity="1.0" stroke-linecap="round" stroke-linejoin="round"/>
    <path d="M 65.69156646728516 124.78264617919922 C 50.997703552246094 118.04022979736328 58.8803825378418 112.06497192382812 57.66728591918945 115.7641372680664" stroke-width="3.0" fill="none" stroke="rgb(0, 0, 0)" stroke-opacity="1.0" stroke-linecap="round" stroke-linejoin="round"/>
    <path d="M 124.78716278076172 73.45368194580078 C 130.2281036376953 37.00975036621094 124.22473907470703 54.31352233886719 125.55008697509766 28.86836814880371" stroke-width="3.0" fill="none" stroke="rgb(0, 0, 0)" stroke-opacity="1.0" stroke-linecap="round" stroke-linejoin="round"/>
    <path d="M 153.619140625 20.431921005249023 C 146.9292755126953 29.627288818359375 163.49745178222656 7.191390037536621 179.33062744140625 7.2872138023376465" stroke-width="3.0" fill="none" stroke="rgb(0, 0, 0)" stroke-opacity="1.0" stroke-linecap="round" stroke-linejoin="round"/>
  </g>
</svg>
