<?xml version="1.0" ?>
<svg xmlns="http://www.w3.org/2000/svg" version="1.1" width="224" height="224">
  <defs/>
  <g>
    <path d="M 63.69332504272461 90.62006378173828 C 64.89326477050781 90.7685546875 69.85047149658203 95.13130187988281 51.2783317565918 83.72843170166016" stroke-width="3.0" fill="none" stroke="rgb(0, 0, 0)" stroke-opacity="1.0" stroke-linecap="round" stroke-linejoin="round"/>
    <path d="M 183.13685607910156 123.28815460205078 C 175.86563110351562 112.45927429199219 196.74771118164062 84.80451202392578 175.22093200683594 129.00738525390625" stroke-width="3.0" fill="none" stroke="rgb(0, 0, 0)" stroke-opacity="1.0" stroke-linecap="round" stroke-linejoin="round"/>
    <path d="M 52.96768569946289 103.82430267333984 C 47.59788513183594 108.09809875488281 55.23234558105469 123.95096588134766 69.04608154296875 130.6533966064453" stroke-width="3.0" fill="none" stroke="rgb(0, 0, 0)" stroke-opacity="1.0" stroke-linecap="round" stroke-linejoin="round"/>
    <path d="M 185.64657592773438 89.67736053466797 C 136.66969299316406 91.59442138671875 174.59019470214844 83.96885681152344 188.85093688964844 106.818115234375" stroke-width="3.0" fill="none" stroke="rgb(0, 0, 0)" stroke-opacity="1.0" stroke-linecap="round" stroke-linejoin="round"/>
    <path d="M 181.72494506835938 70.02825927734375 C 191.31036376953125 113.4112319946289 187.98277282714844 102.42507934570312 185.05978393554688 72.05967712402344" stroke-width="3.0" fill="none" stroke="rgb(0, 0, 0)" stroke-opacity="1.0" stroke-linecap="round" stroke-linejoin="round"/>
    <path d="M 123.91592407226562 106.58623504638672 C 145.70249938964844 112.42736053466797 111.34402465820312 92.25628662109375 139.97625732421875 101.04865264892578" stroke-width="3.0" fill="none" stroke="rgb(0, 0, 0)" stroke-opacity="1.0" stroke-linecap="round" stroke-linejoin="round"/>
    <path d="M 171.9367218017578 87.42522430419922 C 197.76605224609375 85.35196685791016 193.24623107910156 73.45201873779297 148.63734436035156 85.70833587646484" stroke-width="3.0" fill="none" stroke="rgb(0, 0, 0)" stroke-opacity="1.0" stroke-linecap="round" stroke-linejoin="round"/>
    <path d="M 65.1744155883789 190.13302612304688 C 38.82646179199219 161.11289978027344 49.2710075378418 170.66732788085938 48.79729461669922 170.41061401367188" stroke-width="3.0" fill="none" stroke="rgb(0, 0, 0)" stroke-opacity="1.0" stroke-linecap="round" stroke-linejoin="round"/>
    <path d="M 55.8173942565918 181.30113220214844 C 87.43647766113281 211.7555389404297 119.79743957519531 196.2189178466797 135.36233520507812 175.6807403564453" stroke-width="3.0" fill="none" stroke="rgb(0, 0, 0)" stroke-opacity="1.0" stroke-linecap="round" stroke-linejoin="round"/>
    <path d="M 83.92855834960938 23.74517250061035 C 92.03107452392578 82.04619598388672 81.76033782958984 7.064848899841309 83.7015380859375 49.42076110839844" stroke-width="3.0" fill="none" stroke="rgb(0, 0, 0)" stroke-opacity="1.0" stroke-linecap="round" stroke-linejoin="round"/>
    <path d="M 47.04659652709961 91.43746948242188 C 64.53925323486328 143.7298126220703 82.4423828125 153.00643920898438 75.02163696289062 145.01275634765625" stroke-width="3.0" fill="none" stroke="rgb(0, 0, 0)" stroke-opacity="1.0" stroke-linecap="round" stroke-linejoin="round"/>
    <path d="M 152.86859130859375 74.33753967285156 C 203.65074157714844 63.25393295288086 192.6031036376953 95.6389389038086 143.44940185546875 82.26677703857422" stroke-width="3.0" fill="none" stroke="rgb(0, 0, 0)" stroke-opacity="1.0" stroke-linecap="round" stroke-linejoin="round"/>
    <path d="M 148.94537353515625 95.97039031982422 C 186.41114807128906 100.37140655517578 175.2086944580078 100.15132904052734 196.783203125 113.26246643066406" stroke-width="3.0" fill="none" stroke="rgb(0, 0, 0)" stroke-opacity="1.0" stroke-linecap="round" stroke-linejoin="round"/>
    <path d="M 110.41523742675781 151.3651123046875 C 147.84400939941406 156.16636657714844 122.58406829833984 147.48095703125 105.53499603271484 157.63185119628906" stroke-width="3.0" fill="none" stroke="rgb(0, 0, 0)" stroke-opacity="1.0" stroke-linecap="round" stroke-linejoin="round"/>
    <path d="M 179.075927734375 9.622076034545898 C 187.2439727783203 20.387378692626953 171.63890075683594 70.97708129882812 181.6525115966797 54.908451080322266" stroke-width="3.0" fill="none" stroke="rgb(0, 0, 0)" stroke-opacity="1.0" stroke-linecap="round" stroke-linejoin="round"/>
    <path d="M 133.6922149658203 29.534650802612305 C 129.40919494628906 46.1329460144043 135.7195587158203 51.72810745239258 128.4388427734375 67.46827697753906" stroke-width="3.0" fill="none" stroke="rgb(0, 0, 0)" stroke-opacity="1.0" stroke-linecap="round" stroke-linejoin="round"/>
    <path d="M 89.2952651977539 42.11782455444336 C 68.61345672607422 -0.5241171717643738 90.20429229736328 -2.5570719242095947 115.50762939453125 34.79538345336914" stroke-width="3.0" fill="none" stroke="rgb(0, 0, 0)" stroke-opacity="1.0" stroke-linecap="round" stroke-linejoin="round"/>
    <path d="M 47.09172439575195 170.056396484375 C 40.833641052246094 153.87847900390625 38.12532424926758 146.28697204589844 47.73920440673828 169.36585998535156" stroke-width="3.0" fill="none" stroke="rgb(0, 0, 0)" stroke-opacity="1.0" stroke-linecap="round" stroke-linejoin="round"/>
    <path d="M 35.624961853027344 97.66272735595703 C 21.917194366455078 131.897216796875 41.20191955566406 147.0679931640625 43.581783294677734 163.87379455566406" stroke-width="3.0" fill="none" stroke="rgb(0, 0, 0)" stroke-opacity="1.0" stroke-linecap="round" stroke-linejoin="round"/>
    <path d="M 79.17495727539062 148.7919158935547 C 112.81581115722656 160.21817016601562 89.88385772705078 156.5523681640625 97.2158203125 150.53131103515625" stroke-width="3.0" fill="none" stroke="rgb(0, 0, 0)" stroke-opacity="1.0" stroke-linecap="round" stroke-linejoin="round"/>
    <path d="M 87.54698181152344 197.01368713378906 C 71.16313934326172 202.2679443359375 48.98894119262695 175.4664764404297 48.11729049682617 170.5884552001953" stroke-width="3.0" fill="none" stroke="rgb(0, 0, 0)" stroke-opacity="1.0" stroke-linecap="round" stroke-linejoin="round"/>
    <path d="M 49.41366958618164 170.4834442138672 C 65.72488403320312 194.3127899169922 45.700862884521484 172.55422973632812 38.017581939697266 149.5644989013672" stroke-width="3.0" fill="none" stroke="rgb(0, 0, 0)" stroke-opacity="1.0" stroke-linecap="round" stroke-linejoin="round"/>
    <path d="M 81.36199951171875 54.12515640258789 C 62.05553436279297 57.76491928100586 46.85832214355469 70.80964660644531 32.845237731933594 106.12361907958984" stroke-width="3.0" fill="none" stroke="rgb(0, 0, 0)" stroke-opacity="1.0" stroke-linecap="round" stroke-linejoin="round"/>
    <path d="M 155.72311401367188 139.2788848876953 C 111.85738372802734 155.02781677246094 109.12400817871094 159.80056762695312 143.03402709960938 146.00108337402344" stroke-width="3.0" fill="none" stroke="rgb(0, 0, 0)" stroke-opacity="1.0" stroke-linecap="round" stroke-linejoin="round"/>
    <path d="M 150.5516357421875 22.882253646850586 C 141.47593688964844 39.736473083496094 134.29689025878906 -0.15749722719192505 136.83604431152344 79.44300079345703" stroke-width="3.0" fill="none" stroke="rgb(0, 0, 0)" stroke-opacity="1.0" stroke-linecap="round" stroke-linejoin="round"/>
    <path d="M 144.25245666503906 95.7950439453125 C 129.5348358154297 106.33221435546875 131.71646118164062 107.32383728027344 126.71562957763672 101.53633880615234" stroke-width="3.0" fill="none" stroke="rgb(0, 0, 0)" stroke-opacity="1.0" stroke-linecap="round" stroke-linejoin="round"/>
    <path d="M 137.151123046875 76.75305938720703 C 137.25778198242188 57.59185791015625 133.64584350585938 64.70687103271484 136.1173858642578 75.45101165771484" stroke-width="3.0" fill="none" stroke="rgb(0, 0, 0)" stroke-opacity="1.0" stroke-linecap="round" stroke-linejoin="round"/>
    <path d="M 135.60205078125 174.8157958984375 C 130.11520385742188 178.97476196289062 140.7541961669922 175.10317993164062 147.75718688964844 147.60284423828125" stroke-width="3.0" fill="none" stroke="rgb(0, 0, 0)" stroke-opacity="1.0" stroke-linecap="round" stroke-linejoin="round"/>
    <path d="M 195.4154815673828 96.5615005493164 C 168.526123046875 72.67007446289062 164.014404296875 82.77143096923828 185.92263793945312 92.04744720458984" stroke-width="3.0" fill="none" stroke="rgb(0, 0, 0)" stroke-opacity="1.0" stroke-linecap="round" stroke-linejoin="round"/>
    <path d="M 156.86276245117188 77.89190673828125 C 127.77809143066406 62.48424530029297 207.26463317871094 81.38943481445312 180.98089599609375 66.81028747558594" stroke-width="3.0" fill="none" stroke="rgb(0, 0, 0)" stroke-opacity="1.0" stroke-linecap="round" stroke-linejoin="round"/>
    <path d="M 108.97784423828125 77.97205352783203 C 92.60934448242188 71.7271728515625 139.9848175048828 76.69905853271484 108.24040222167969 81.67948150634766" stroke-width="3.0" fill="none" stroke="rgb(0, 0, 0)" stroke-opacity="1.0" stroke-linecap="round" stroke-linejoin="round"/>
    <path d="M 163.4157257080078 131.44125366210938 C 145.69529724121094 155.5395050048828 115.41765594482422 148.49351501464844 99.7403335571289 155.14303588867188" stroke-width="3.0" fill="none" stroke="rgb(0, 0, 0)" stroke-opacity="1.0" stroke-linecap="round" stroke-linejoin="round"/>
    <path d="M 123.45645141601562 88.53569030761719 C 142.47715759277344 98.77864837646484 124.16812896728516 69.59407043457031 129.8380889892578 103.99825286865234" stroke-width="3.0" fill="none" stroke="rgb(0, 0, 0)" stroke-opacity="1.0" stroke-linecap="round" stroke-linejoin="round"/>
    <path d="M 186.89796447753906 108.85099029541016 C 169.4511260986328 86.0749282836914 183.87913513183594 85.70380401611328 153.10586547851562 91.67666625976562" stroke-width="3.0" fill="none" stroke="rgb(0, 0, 0)" stroke-opacity="1.0" stroke-linecap="round" stroke-linejoin="round"/>
    <path d="M 84.35538482666016 9.805038452148438 C 104.9306411743164 16.877939224243164 120.82794189453125 34.90007781982422 120.3055419921875 28.461074829101562" stroke-width="3.0" fill="none" stroke="rgb(0, 0, 0)" stroke-opacity="1.0" stroke-linecap="round" stroke-linejoin="round"/>
    <path d="M 59.73898696899414 123.47576904296875 C 53.24314880371094 117.71782684326172 59.63957595825195 128.8209991455078 68.0587158203125 139.48715209960938" stroke-width="3.0" fill="none" stroke="rgb(0, 0, 0)" stroke-opacity="1.0" stroke-linecap="round" stroke-linejoin="round"/>
    <path d="M 134.0424346923828 105.26493072509766 C 126.38912200927734 89.24515533447266 124.52339172363281 120.4992446899414 109.89164733886719 88.95976257324219" stroke-width="3.0" fill="none" stroke="rgb(0, 0, 0)" stroke-opacity="1.0" stroke-linecap="round" stroke-linejoin="round"/>
    <path d="M 32.583370208740234 131.01394653320312 C 28.190963745117188 102.3398666381836 37.63882064819336 98.60215759277344 49.68106460571289 77.25732421875" stroke-width="3.0" fill="none" stroke="rgb(0, 0, 0)" stroke-opacity="1.0" stroke-linecap="round" stroke-linejoin="round"/>
    <path d="M 80.52465057373047 197.6437530517578 C 71.24851989746094 190.66738891601562 68.66954040527344 196.77392578125 102.26966857910156 198.95574951171875" stroke-width="3.0" fill="none" stroke="rgb(0, 0, 0)" stroke-opacity="1.0" stroke-linecap="round" stroke-linejoin="round"/>
    <path d="M 163.4768829345703 131.7779998779297 C 199.69313049316406 114.65235900878906 180.37803649902344 93.54637145996094 154.62179565429688 91.12895965576172" stroke-width="3.0" fill="none" stroke="rgb(0, 0, 0)" stroke-opacity="1.0" stroke-linecap="round" stroke-linejoin="round"/>
    <path d="M 149.99420166015625 69.8936538696289 C 137.3306427001953 85.47107696533203 178.86346435546875 76.35590362548828 149.84169006347656 68.5051498413086" stroke-width="3.0" fill="none" stroke="rgb(0, 0, 0)" stroke-opacity="1.0" stroke-linecap="round" stroke-linejoin="round"/>
    <path d="M 141.66574096679688 77.7878646850586 C 149.18597412109375 44.544647216796875 202.1329803466797 114.9572525024414 175.84312438964844 42.99470138549805" stroke-width="3.0" fill="none" stroke="rgb(0, 0, 0)" stroke-opacity="1.0" stroke-linecap="round" stroke-linejoin="round"/>
    <path d="M 156.0062713623047 97.46102142333984 C 170.20697021484375 101.46967315673828 175.69113159179688 104.24933624267578 183.48770141601562 118.49537658691406" stroke-width="3.0" fill="none" stroke="rgb(0, 0, 0)" stroke-opacity="1.0" stroke-linecap="round" stroke-linejoin="round"/>
    <path d="M 177.80149841308594 17.590213775634766 C 165.2049102783203 41.62844467163086 181.38075256347656 24.268539428710938 161.99981689453125 32.18794631958008" stroke-width="3.0" fill="none" stroke="rgb(0, 0, 0)" stroke-opacity="1.0" stroke-linecap="round" stroke-linejoin="round"/>
    <path d="M 120.3281021118164 101.71439361572266 C 145.7778778076172 96.33860778808594 130.49256896972656 111.08940124511719 117.88310241699219 100.65076446533203" stroke-width="3.0" fill="none" stroke="rgb(0, 0, 0)" stroke-opacity="1.0" stroke-linecap="round" stroke-linejoin="round"/>
    <path d="M 67.26702880859375 130.96282958984375 C 50.43362045288086 120.94139862060547 59.89223861694336 111.45463562011719 57.170494079589844 115.49010467529297" stroke-width="3.0" fill="none" stroke="rgb(0, 0, 0)" stroke-opacity="1.0" stroke-linecap="round" stroke-linejoin="round"/>
    <path d="M 127.0531234741211 74.99386596679688 C 133.56536865234375 36.46458435058594 122.98693084716797 49.93517303466797 127.39591217041016 29.956289291381836" stroke-width="3.0" fill="none" stroke="rgb(0, 0, 0)" stroke-opacity="1.0" stroke-linecap="round" stroke-linejoin="round"/>
    <path d="M 155.32301330566406 20.156768798828125 C 145.1175994873047 28.63631248474121 163.1747589111328 6.680233478546143 177.91673278808594 9.704364776611328" stroke-width="3.0" fill="none" stroke="rgb(0, 0, 0)" stroke-opacity="1.0" stroke-linecap="round" stroke-linejoin="round"/>
  </g>
</svg>
