<?xml version="1.0" ?>
<svg xmlns="http://www.w3.org/2000/svg" version="1.1" width="224" height="224">
  <defs/>
  <g>
    <path d="M 54.884986877441406 114.94134521484375 C 59.019004821777344 115.4382095336914 45.54570007324219 104.43975067138672 45.375370025634766 83.95272827148438" stroke-width="3.0" fill="none" stroke="rgb(0, 0, 0)" stroke-opacity="1.0" stroke-linecap="round" stroke-linejoin="round"/>
    <path d="M 180.63499450683594 127.61853790283203 C 178.27789306640625 119.6019058227539 185.70928955078125 114.2825698852539 185.56712341308594 116.35633850097656" stroke-width="3.0" fill="none" stroke="rgb(0, 0, 0)" stroke-opacity="1.0" stroke-linecap="round" stroke-linejoin="round"/>
    <path d="M 54.42374038696289 115.57804870605469 C 54.86406326293945 108.22219848632812 51.056732177734375 105.22212982177734 58.36921310424805 118.56977081298828" stroke-width="3.0" fill="none" stroke="rgb(0, 0, 0)" stroke-opacity="1.0" stroke-linecap="round" stroke-linejoin="round"/>
    <path d="M 186.9400634765625 95.86245727539062 C 156.96514892578125 89.37813568115234 170.05072021484375 86.19546508789062 196.71826171875 113.55931854248047" stroke-width="3.0" fill="none" stroke="rgb(0, 0, 0)" stroke-opacity="1.0" stroke-linecap="round" stroke-linejoin="round"/>
    <path d="M 176.41952514648438 74.82266998291016 C 180.1057586669922 94.57894134521484 179.13099670410156 92.8070068359375 182.62588500976562 66.24710083007812" stroke-width="3.0" fill="none" stroke="rgb(0, 0, 0)" stroke-opacity="1.0" stroke-linecap="round" stroke-linejoin="round"/>
    <path d="M 128.19464111328125 103.6241226196289 C 147.73504638671875 105.16352844238281 106.43340301513672 102.15155792236328 142.2459716796875 103.02236938476562" stroke-width="3.0" fill="none" stroke="rgb(0, 0, 0)" stroke-opacity="1.0" stroke-linecap="round" stroke-linejoin="round"/>
    <path d="M 173.84307861328125 101.33145904541016 C 194.8046417236328 77.78408813476562 173.37814331054688 73.07695007324219 159.87863159179688 85.75159454345703" stroke-width="3.0" fill="none" stroke="rgb(0, 0, 0)" stroke-opacity="1.0" stroke-linecap="round" stroke-linejoin="round"/>
    <path d="M 52.693519592285156 176.46188354492188 C 33.91147994995117 158.53424072265625 51.959556579589844 163.3324737548828 42.910396575927734 163.0558319091797" stroke-width="3.0" fill="none" stroke="rgb(0, 0, 0)" stroke-opacity="1.0" stroke-linecap="round" stroke-linejoin="round"/>
    <path d="M 63.33772277832031 191.3805694580078 C 86.7834243774414 204.84048461914062 109.48023986816406 197.45870971679688 118.59414672851562 191.56057739257812" stroke-width="3.0" fill="none" stroke="rgb(0, 0, 0)" stroke-opacity="1.0" stroke-linecap="round" stroke-linejoin="round"/>
    <path d="M 89.8602523803711 38.021278381347656 C 90.5970458984375 55.68777847290039 85.74712371826172 12.767264366149902 85.10910034179688 52.785526275634766" stroke-width="3.0" fill="none" stroke="rgb(0, 0, 0)" stroke-opacity="1.0" stroke-linecap="round" stroke-linejoin="round"/>
    <path d="M 60.13465118408203 126.79239654541016 C 63.77644348144531 139.09494018554688 93.87286376953125 146.9695281982422 96.06378936767578 155.21592712402344" stroke-width="3.0" fill="none" stroke="rgb(0, 0, 0)" stroke-opacity="1.0" stroke-linecap="round" stroke-linejoin="round"/>
    <path d="M 153.40089416503906 70.34784698486328 C 207.59225463867188 74.35358428955078 180.61550903320312 78.18699645996094 149.37306213378906 87.18566131591797" stroke-width="3.0" fill="none" stroke="rgb(0, 0, 0)" stroke-opacity="1.0" stroke-linecap="round" stroke-linejoin="round"/>
    <path d="M 146.9763641357422 98.23538970947266 C 175.29356384277344 100.41484832763672 175.7485809326172 99.22965240478516 186.5606231689453 112.52701568603516" stroke-width="3.0" fill="none" stroke="rgb(0, 0, 0)" stroke-opacity="1.0" stroke-linecap="round" stroke-linejoin="round"/>
    <path d="M 106.10908508300781 159.07107543945312 C 143.24346923828125 150.28736877441406 109.14511108398438 159.25460815429688 108.84561920166016 152.77151489257812" stroke-width="3.0" fill="none" stroke="rgb(0, 0, 0)" stroke-opacity="1.0" stroke-linecap="round" stroke-linejoin="round"/>
    <path d="M 172.2272186279297 10.823080062866211 C 193.25115966796875 2.903597116470337 175.37510681152344 57.41398620605469 182.08816528320312 57.22652053833008" stroke-width="3.0" fill="none" stroke="rgb(0, 0, 0)" stroke-opacity="1.0" stroke-linecap="round" stroke-linejoin="round"/>
    <path d="M 129.03604125976562 32.2139892578125 C 125.37254333496094 55.31227111816406 135.04042053222656 39.0697021484375 128.65151977539062 69.32483673095703" stroke-width="3.0" fill="none" stroke="rgb(0, 0, 0)" stroke-opacity="1.0" stroke-linecap="round" stroke-linejoin="round"/>
    <path d="M 88.96732330322266 49.14631271362305 C 78.05470275878906 -6.035946369171143 85.41463470458984 0.20722763240337372 105.11772918701172 39.288997650146484" stroke-width="3.0" fill="none" stroke="rgb(0, 0, 0)" stroke-opacity="1.0" stroke-linecap="round" stroke-linejoin="round"/>
    <path d="M 44.31889343261719 162.68377685546875 C 40.928619384765625 153.09361267089844 36.56525421142578 150.039794921875 37.78557205200195 147.33595275878906" stroke-width="3.0" fill="none" stroke="rgb(0, 0, 0)" stroke-opacity="1.0" stroke-linecap="round" stroke-linejoin="round"/>
    <path d="M 32.53986358642578 108.27603912353516 C 26.016353607177734 128.31680297851562 35.985496520996094 143.3497772216797 42.52976989746094 152.93597412109375" stroke-width="3.0" fill="none" stroke="rgb(0, 0, 0)" stroke-opacity="1.0" stroke-linecap="round" stroke-linejoin="round"/>
    <path d="M 87.3265609741211 149.45143127441406 C 103.11570739746094 157.96646118164062 106.13397979736328 159.92381286621094 92.20137786865234 153.2034454345703" stroke-width="3.0" fill="none" stroke="rgb(0, 0, 0)" stroke-opacity="1.0" stroke-linecap="round" stroke-linejoin="round"/>
    <path d="M 74.49420166015625 197.55799865722656 C 53.57019805908203 184.8416748046875 55.68146514892578 186.80882263183594 46.86809158325195 173.48863220214844" stroke-width="3.0" fill="none" stroke="rgb(0, 0, 0)" stroke-opacity="1.0" stroke-linecap="round" stroke-linejoin="round"/>
    <path d="M 43.06407928466797 163.4479522705078 C 57.663841247558594 188.89144897460938 40.665184020996094 164.70033264160156 39.50249481201172 152.5498046875" stroke-width="3.0" fill="none" stroke="rgb(0, 0, 0)" stroke-opacity="1.0" stroke-linecap="round" stroke-linejoin="round"/>
    <path d="M 79.52542114257812 56.50190353393555 C 58.710784912109375 58.433998107910156 48.229732513427734 75.60073852539062 32.2020378112793 107.3444595336914" stroke-width="3.0" fill="none" stroke="rgb(0, 0, 0)" stroke-opacity="1.0" stroke-linecap="round" stroke-linejoin="round"/>
    <path d="M 153.21725463867188 143.6350555419922 C 137.8132781982422 155.8220977783203 119.65870666503906 153.98880004882812 132.65895080566406 156.6569061279297" stroke-width="3.0" fill="none" stroke="rgb(0, 0, 0)" stroke-opacity="1.0" stroke-linecap="round" stroke-linejoin="round"/>
    <path d="M 135.30650329589844 33.55580139160156 C 142.97401428222656 71.43545532226562 131.16250610351562 51.84086990356445 142.90884399414062 76.18291473388672" stroke-width="3.0" fill="none" stroke="rgb(0, 0, 0)" stroke-opacity="1.0" stroke-linecap="round" stroke-linejoin="round"/>
    <path d="M 144.94256591796875 102.01297760009766 C 118.03482818603516 102.8701400756836 120.412109375 113.74591064453125 140.27334594726562 103.58367156982422" stroke-width="3.0" fill="none" stroke="rgb(0, 0, 0)" stroke-opacity="1.0" stroke-linecap="round" stroke-linejoin="round"/>
    <path d="M 139.9835662841797 78.551513671875 C 144.4678955078125 51.56108093261719 140.9969482421875 58.55677032470703 140.4133758544922 65.80632019042969" stroke-width="3.0" fill="none" stroke="rgb(0, 0, 0)" stroke-opacity="1.0" stroke-linecap="round" stroke-linejoin="round"/>
    <path d="M 129.6233673095703 184.65350341796875 C 103.0704574584961 198.4881591796875 135.34933471679688 192.66258239746094 144.0723876953125 154.79005432128906" stroke-width="3.0" fill="none" stroke="rgb(0, 0, 0)" stroke-opacity="1.0" stroke-linecap="round" stroke-linejoin="round"/>
    <path d="M 191.64273071289062 96.60139465332031 C 167.3175048828125 73.178955078125 141.45896911621094 93.6872787475586 183.84400939941406 81.79904174804688" stroke-width="3.0" fill="none" stroke="rgb(0, 0, 0)" stroke-opacity="1.0" stroke-linecap="round" stroke-linejoin="round"/>
    <path d="M 147.77667236328125 77.61003112792969 C 190.06137084960938 59.75224304199219 191.3341522216797 76.9818115234375 170.48304748535156 70.45123291015625" stroke-width="3.0" fill="none" stroke="rgb(0, 0, 0)" stroke-opacity="1.0" stroke-linecap="round" stroke-linejoin="round"/>
    <path d="M 107.06104278564453 77.41578674316406 C 88.24125671386719 70.16191864013672 134.56939697265625 74.8245849609375 105.72080993652344 79.24842071533203" stroke-width="3.0" fill="none" stroke="rgb(0, 0, 0)" stroke-opacity="1.0" stroke-linecap="round" stroke-linejoin="round"/>
    <path d="M 148.44558715820312 146.80929565429688 C 145.41317749023438 159.77842712402344 126.53318786621094 151.9735870361328 105.79609680175781 156.84603881835938" stroke-width="3.0" fill="none" stroke="rgb(0, 0, 0)" stroke-opacity="1.0" stroke-linecap="round" stroke-linejoin="round"/>
    <path d="M 123.8288345336914 90.28282928466797 C 142.3494415283203 100.194580078125 131.0755157470703 73.7468032836914 130.7142333984375 103.22893524169922" stroke-width="3.0" fill="none" stroke="rgb(0, 0, 0)" stroke-opacity="1.0" stroke-linecap="round" stroke-linejoin="round"/>
    <path d="M 189.00030517578125 114.01649475097656 C 184.92056274414062 83.7452163696289 181.94447326660156 94.57489013671875 141.3100128173828 83.37864685058594" stroke-width="3.0" fill="none" stroke="rgb(0, 0, 0)" stroke-opacity="1.0" stroke-linecap="round" stroke-linejoin="round"/>
    <path d="M 87.80457305908203 8.988789558410645 C 110.41242980957031 16.570465087890625 115.571044921875 33.046791076660156 123.87733459472656 31.17586898803711" stroke-width="3.0" fill="none" stroke="rgb(0, 0, 0)" stroke-opacity="1.0" stroke-linecap="round" stroke-linejoin="round"/>
    <path d="M 54.3671875 114.56290435791016 C 52.71220016479492 106.5462417602539 57.637969970703125 121.251708984375 57.56189727783203 120.07495880126953" stroke-width="3.0" fill="none" stroke="rgb(0, 0, 0)" stroke-opacity="1.0" stroke-linecap="round" stroke-linejoin="round"/>
    <path d="M 117.53015899658203 98.79166412353516 C 107.45675659179688 86.13823699951172 123.07625579833984 108.26982879638672 108.56632995605469 88.77914428710938" stroke-width="3.0" fill="none" stroke="rgb(0, 0, 0)" stroke-opacity="1.0" stroke-linecap="round" stroke-linejoin="round"/>
    <path d="M 31.365055084228516 131.98838806152344 C 26.97138786315918 115.54243469238281 34.821136474609375 102.218994140625 30.555200576782227 116.15541076660156" stroke-width="3.0" fill="none" stroke="rgb(0, 0, 0)" stroke-opacity="1.0" stroke-linecap="round" stroke-linejoin="round"/>
    <path d="M 83.82693481445312 199.0065155029297 C 74.22440338134766 197.7865753173828 70.00508117675781 197.7471466064453 96.9780502319336 198.2352752685547" stroke-width="3.0" fill="none" stroke="rgb(0, 0, 0)" stroke-opacity="1.0" stroke-linecap="round" stroke-linejoin="round"/>
    <path d="M 153.21929931640625 144.04248046875 C 206.8236083984375 112.12962341308594 177.90591430664062 97.96575164794922 151.9955596923828 90.67279815673828" stroke-width="3.0" fill="none" stroke="rgb(0, 0, 0)" stroke-opacity="1.0" stroke-linecap="round" stroke-linejoin="round"/>
    <path d="M 158.06492614746094 70.98845672607422 C 120.086181640625 81.05445861816406 173.50196838378906 81.95394134521484 146.61843872070312 67.9752197265625" stroke-width="3.0" fill="none" stroke="rgb(0, 0, 0)" stroke-opacity="1.0" stroke-linecap="round" stroke-linejoin="round"/>
    <path d="M 144.98902893066406 74.7132339477539 C 144.4859619140625 48.587398529052734 193.3278045654297 108.8056869506836 178.6961669921875 53.1298713684082" stroke-width="3.0" fill="none" stroke="rgb(0, 0, 0)" stroke-opacity="1.0" stroke-linecap="round" stroke-linejoin="round"/>
    <path d="M 151.36050415039062 98.73983001708984 C 164.7164764404297 99.955810546875 173.71705627441406 109.23947143554688 182.68527221679688 116.39714050292969" stroke-width="3.0" fill="none" stroke="rgb(0, 0, 0)" stroke-opacity="1.0" stroke-linecap="round" stroke-linejoin="round"/>
    <path d="M 177.41009521484375 14.930168151855469 C 175.76829528808594 47.03665542602539 176.99745178222656 24.98265266418457 161.91624450683594 38.12525939941406" stroke-width="3.0" fill="none" stroke="rgb(0, 0, 0)" stroke-opacity="1.0" stroke-linecap="round" stroke-linejoin="round"/>
    <path d="M 128.16986083984375 104.64079284667969 C 140.06996154785156 103.50782775878906 133.74844360351562 113.08000183105469 111.31729888916016 95.51773834228516" stroke-width="3.0" fill="none" stroke="rgb(0, 0, 0)" stroke-opacity="1.0" stroke-linecap="round" stroke-linejoin="round"/>
    <path d="M 54.11838150024414 113.91354370117188 C 57.23762130737305 112.98775482177734 49.16060256958008 108.07391357421875 60.11165237426758 127.2005386352539" stroke-width="3.0" fill="none" stroke="rgb(0, 0, 0)" stroke-opacity="1.0" stroke-linecap="round" stroke-linejoin="round"/>
    <path d="M 127.00743103027344 77.92119598388672 C 129.10540771484375 45.96699905395508 119.36221313476562 52.46665573120117 123.34835815429688 32.44074249267578" stroke-width="3.0" fill="none" stroke="rgb(0, 0, 0)" stroke-opacity="1.0" stroke-linecap="round" stroke-linejoin="round"/>
    <path d="M 142.1673583984375 32.995601654052734 C 143.70480346679688 39.14277267456055 150.0599365234375 17.55257797241211 179.15602111816406 7.940291404724121" stroke-width="3.0" fill="none" stroke="rgb(0, 0, 0)" stroke-opacity="1.0" stroke-linecap="round" stroke-linejoin="round"/>
  </g>
</svg>
