<?xml version="1.0" ?>
<svg xmlns="http://www.w3.org/2000/svg" version="1.1" width="224" height="224">
  <defs/>
  <g>
    <path d="M 65.12003326416016 82.48255920410156 C 64.34265899658203 82.35675048828125 66.06037902832031 84.08580780029297 59.48782730102539 70.80904388427734" stroke-width="3.0" fill="none" stroke="rgb(0, 0, 0)" stroke-opacity="1.0" stroke-linecap="round" stroke-linejoin="round"/>
    <path d="M 184.68795776367188 121.34761810302734 C 180.6953125 112.79655456542969 199.02090454101562 94.6430435180664 174.7149200439453 129.27822875976562" stroke-width="3.0" fill="none" stroke="rgb(0, 0, 0)" stroke-opacity="1.0" stroke-linecap="round" stroke-linejoin="round"/>
    <path d="M 62.867103576660156 123.4942626953125 C 57.529144287109375 98.12327575683594 63.18080520629883 125.31709289550781 67.61270904541016 128.00213623046875" stroke-width="3.0" fill="none" stroke="rgb(0, 0, 0)" stroke-opacity="1.0" stroke-linecap="round" stroke-linejoin="round"/>
    <path d="M 182.84524536132812 100.52264404296875 C 152.14974975585938 86.61614990234375 174.1747589111328 81.8160400390625 196.11749267578125 114.1704330444336" stroke-width="3.0" fill="none" stroke="rgb(0, 0, 0)" stroke-opacity="1.0" stroke-linecap="round" stroke-linejoin="round"/>
    <path d="M 184.78033447265625 61.40386962890625 C 173.65798950195312 112.91387939453125 180.11965942382812 99.86007690429688 184.12440490722656 69.11993408203125" stroke-width="3.0" fill="none" stroke="rgb(0, 0, 0)" stroke-opacity="1.0" stroke-linecap="round" stroke-linejoin="round"/>
    <path d="M 124.10993957519531 102.76821899414062 C 147.65423583984375 116.3434066772461 106.47499084472656 95.96115112304688 135.29409790039062 104.46192169189453" stroke-width="3.0" fill="none" stroke="rgb(0, 0, 0)" stroke-opacity="1.0" stroke-linecap="round" stroke-linejoin="round"/>
    <path d="M 174.57009887695312 96.94692993164062 C 188.29312133789062 89.05217742919922 176.6970977783203 75.2124252319336 154.8957977294922 85.35769653320312" stroke-width="3.0" fill="none" stroke="rgb(0, 0, 0)" stroke-opacity="1.0" stroke-linecap="round" stroke-linejoin="round"/>
    <path d="M 58.728126525878906 183.79232788085938 C 36.568443298339844 156.27322387695312 47.385040283203125 165.6502685546875 50.875282287597656 173.2333526611328" stroke-width="3.0" fill="none" stroke="rgb(0, 0, 0)" stroke-opacity="1.0" stroke-linecap="round" stroke-linejoin="round"/>
    <path d="M 58.051876068115234 184.4932098388672 C 97.771240234375 211.41908264160156 113.2802505493164 198.36984252929688 132.91812133789062 181.326416015625" stroke-width="3.0" fill="none" stroke="rgb(0, 0, 0)" stroke-opacity="1.0" stroke-linecap="round" stroke-linejoin="round"/>
    <path d="M 85.75350952148438 34.742088317871094 C 98.88092803955078 74.41886901855469 80.2459945678711 13.009078979492188 84.00883483886719 57.012840270996094" stroke-width="3.0" fill="none" stroke="rgb(0, 0, 0)" stroke-opacity="1.0" stroke-linecap="round" stroke-linejoin="round"/>
    <path d="M 56.40156173706055 102.26849365234375 C 62.986324310302734 136.16244506835938 95.26022338867188 160.13815307617188 95.69709777832031 150.87942504882812" stroke-width="3.0" fill="none" stroke="rgb(0, 0, 0)" stroke-opacity="1.0" stroke-linecap="round" stroke-linejoin="round"/>
    <path d="M 143.0009765625 73.63494110107422 C 204.29090881347656 69.45176696777344 190.50877380371094 83.21912384033203 152.22869873046875 85.16222381591797" stroke-width="3.0" fill="none" stroke="rgb(0, 0, 0)" stroke-opacity="1.0" stroke-linecap="round" stroke-linejoin="round"/>
    <path d="M 152.10227966308594 96.96394348144531 C 184.0478515625 103.07788848876953 171.00820922851562 106.34246826171875 194.4569854736328 112.4454345703125" stroke-width="3.0" fill="none" stroke="rgb(0, 0, 0)" stroke-opacity="1.0" stroke-linecap="round" stroke-linejoin="round"/>
    <path d="M 118.68055725097656 153.9781494140625 C 145.22023010253906 148.5853729248047 124.12203216552734 159.209228515625 113.56008911132812 156.8920440673828" stroke-width="3.0" fill="none" stroke="rgb(0, 0, 0)" stroke-opacity="1.0" stroke-linecap="round" stroke-linejoin="round"/>
    <path d="M 180.25640869140625 8.920276641845703 C 190.0996551513672 22.64626121520996 174.81761169433594 60.022239685058594 179.7379150390625 49.65597915649414" stroke-width="3.0" fill="none" stroke="rgb(0, 0, 0)" stroke-opacity="1.0" stroke-linecap="round" stroke-linejoin="round"/>
    <path d="M 127.87598419189453 29.00152015686035 C 123.98507690429688 54.920799255371094 133.96127319335938 36.43083572387695 124.5086898803711 72.25933074951172" stroke-width="3.0" fill="none" stroke="rgb(0, 0, 0)" stroke-opacity="1.0" stroke-linecap="round" stroke-linejoin="round"/>
    <path d="M 88.17146301269531 53.20199203491211 C 75.78520202636719 -7.740026473999023 83.4704360961914 -0.33019840717315674 107.89236450195312 42.13262939453125" stroke-width="3.0" fill="none" stroke="rgb(0, 0, 0)" stroke-opacity="1.0" stroke-linecap="round" stroke-linejoin="round"/>
    <path d="M 47.560646057128906 167.17376708984375 C 39.83533477783203 154.8566131591797 37.18164825439453 146.66249084472656 45.93197250366211 167.61724853515625" stroke-width="3.0" fill="none" stroke="rgb(0, 0, 0)" stroke-opacity="1.0" stroke-linecap="round" stroke-linejoin="round"/>
    <path d="M 35.11051559448242 102.22136688232422 C 22.357074737548828 122.89893341064453 38.9937858581543 145.97647094726562 40.30983352661133 151.9333038330078" stroke-width="3.0" fill="none" stroke="rgb(0, 0, 0)" stroke-opacity="1.0" stroke-linecap="round" stroke-linejoin="round"/>
    <path d="M 88.705810546875 149.79327392578125 C 107.09607696533203 159.36520385742188 107.41542053222656 165.42477416992188 105.17081451416016 154.2713165283203" stroke-width="3.0" fill="none" stroke="rgb(0, 0, 0)" stroke-opacity="1.0" stroke-linecap="round" stroke-linejoin="round"/>
    <path d="M 81.91909790039062 197.00559997558594 C 68.70109558105469 199.405517578125 49.88079071044922 177.910400390625 46.99003982543945 169.7525634765625" stroke-width="3.0" fill="none" stroke="rgb(0, 0, 0)" stroke-opacity="1.0" stroke-linecap="round" stroke-linejoin="round"/>
    <path d="M 46.52198028564453 166.0651092529297 C 61.59063720703125 192.9785614013672 45.19088363647461 164.16207885742188 40.31431579589844 151.19692993164062" stroke-width="3.0" fill="none" stroke="rgb(0, 0, 0)" stroke-opacity="1.0" stroke-linecap="round" stroke-linejoin="round"/>
    <path d="M 76.9970703125 54.01646423339844 C 60.994529724121094 56.37879180908203 48.274169921875 72.7248306274414 33.0378303527832 105.18083953857422" stroke-width="3.0" fill="none" stroke="rgb(0, 0, 0)" stroke-opacity="1.0" stroke-linecap="round" stroke-linejoin="round"/>
    <path d="M 148.8992156982422 142.3009796142578 C 127.39997100830078 160.1494140625 116.8050308227539 151.14678955078125 133.1791534423828 156.26824951171875" stroke-width="3.0" fill="none" stroke="rgb(0, 0, 0)" stroke-opacity="1.0" stroke-linecap="round" stroke-linejoin="round"/>
    <path d="M 138.07989501953125 28.498016357421875 C 148.81219482421875 66.07544708251953 135.06195068359375 54.5009880065918 136.79214477539062 79.10440826416016" stroke-width="3.0" fill="none" stroke="rgb(0, 0, 0)" stroke-opacity="1.0" stroke-linecap="round" stroke-linejoin="round"/>
    <path d="M 148.20570373535156 101.59858703613281 C 118.16732025146484 113.46720886230469 136.17494201660156 110.58043670654297 124.1593246459961 105.29293060302734" stroke-width="3.0" fill="none" stroke="rgb(0, 0, 0)" stroke-opacity="1.0" stroke-linecap="round" stroke-linejoin="round"/>
    <path d="M 136.76463317871094 76.01941680908203 C 146.50448608398438 56.3001708984375 132.95835876464844 56.74496841430664 136.00473022460938 78.05976104736328" stroke-width="3.0" fill="none" stroke="rgb(0, 0, 0)" stroke-opacity="1.0" stroke-linecap="round" stroke-linejoin="round"/>
    <path d="M 132.4971923828125 180.0849151611328 C 128.16558837890625 184.9656219482422 137.2184600830078 179.0475311279297 145.1234893798828 147.11546325683594" stroke-width="3.0" fill="none" stroke="rgb(0, 0, 0)" stroke-opacity="1.0" stroke-linecap="round" stroke-linejoin="round"/>
    <path d="M 194.500732421875 95.66698455810547 C 168.15570068359375 68.99219512939453 151.53964233398438 84.8332290649414 183.94918823242188 88.19217681884766" stroke-width="3.0" fill="none" stroke="rgb(0, 0, 0)" stroke-opacity="1.0" stroke-linecap="round" stroke-linejoin="round"/>
    <path d="M 147.7643585205078 77.78001403808594 C 160.78640747070312 67.3675537109375 191.25323486328125 93.00440979003906 181.03787231445312 65.03298950195312" stroke-width="3.0" fill="none" stroke="rgb(0, 0, 0)" stroke-opacity="1.0" stroke-linecap="round" stroke-linejoin="round"/>
    <path d="M 113.19287109375 82.66082763671875 C 82.8979263305664 72.77430725097656 141.4225311279297 76.18943786621094 107.40750885009766 81.90555572509766" stroke-width="3.0" fill="none" stroke="rgb(0, 0, 0)" stroke-opacity="1.0" stroke-linecap="round" stroke-linejoin="round"/>
    <path d="M 155.3984375 135.37486267089844 C 128.2241973876953 166.3585662841797 116.8990478515625 151.1864471435547 106.76940155029297 159.02191162109375" stroke-width="3.0" fill="none" stroke="rgb(0, 0, 0)" stroke-opacity="1.0" stroke-linecap="round" stroke-linejoin="round"/>
    <path d="M 125.34931182861328 88.96212005615234 C 144.01853942871094 103.98164367675781 134.12351989746094 70.03306579589844 129.19232177734375 106.81867218017578" stroke-width="3.0" fill="none" stroke="rgb(0, 0, 0)" stroke-opacity="1.0" stroke-linecap="round" stroke-linejoin="round"/>
    <path d="M 190.07177734375 109.55606842041016 C 181.0006866455078 82.25016021728516 185.773193359375 93.52741241455078 140.38999938964844 83.95903015136719" stroke-width="3.0" fill="none" stroke="rgb(0, 0, 0)" stroke-opacity="1.0" stroke-linecap="round" stroke-linejoin="round"/>
    <path d="M 86.67537689208984 9.596508979797363 C 102.66314697265625 11.176935195922852 115.93060302734375 32.37104797363281 121.14840698242188 29.44769859313965" stroke-width="3.0" fill="none" stroke="rgb(0, 0, 0)" stroke-opacity="1.0" stroke-linecap="round" stroke-linejoin="round"/>
    <path d="M 62.365272521972656 126.2643051147461 C 60.64286804199219 112.50247955322266 66.29832458496094 131.28070068359375 63.87346267700195 123.65614318847656" stroke-width="3.0" fill="none" stroke="rgb(0, 0, 0)" stroke-opacity="1.0" stroke-linecap="round" stroke-linejoin="round"/>
    <path d="M 138.01593017578125 104.33767700195312 C 125.17902374267578 93.7382583618164 120.34042358398438 117.74459838867188 110.78099822998047 89.7770004272461" stroke-width="3.0" fill="none" stroke="rgb(0, 0, 0)" stroke-opacity="1.0" stroke-linecap="round" stroke-linejoin="round"/>
    <path d="M 32.670188903808594 132.25518798828125 C 25.782560348510742 99.55792236328125 39.68355178833008 104.13385772705078 44.05827331542969 86.1395034790039" stroke-width="3.0" fill="none" stroke="rgb(0, 0, 0)" stroke-opacity="1.0" stroke-linecap="round" stroke-linejoin="round"/>
    <path d="M 76.63355255126953 196.48480224609375 C 70.3775405883789 194.4817657470703 67.33045196533203 193.3723602294922 96.38311767578125 199.46273803710938" stroke-width="3.0" fill="none" stroke="rgb(0, 0, 0)" stroke-opacity="1.0" stroke-linecap="round" stroke-linejoin="round"/>
    <path d="M 158.09996032714844 132.7386932373047 C 206.85279846191406 118.2397232055664 178.5965576171875 100.32862854003906 155.27552795410156 91.52262115478516" stroke-width="3.0" fill="none" stroke="rgb(0, 0, 0)" stroke-opacity="1.0" stroke-linecap="round" stroke-linejoin="round"/>
    <path d="M 158.42413330078125 71.31806182861328 C 134.45262145996094 83.1882553100586 170.2128448486328 82.83961486816406 145.24954223632812 70.32157897949219" stroke-width="3.0" fill="none" stroke="rgb(0, 0, 0)" stroke-opacity="1.0" stroke-linecap="round" stroke-linejoin="round"/>
    <path d="M 141.55870056152344 79.45501708984375 C 148.81883239746094 44.58906936645508 195.4737091064453 114.95525360107422 180.2018280029297 44.732295989990234" stroke-width="3.0" fill="none" stroke="rgb(0, 0, 0)" stroke-opacity="1.0" stroke-linecap="round" stroke-linejoin="round"/>
    <path d="M 155.40866088867188 99.09315490722656 C 168.77841186523438 106.6989517211914 171.05152893066406 101.43147277832031 182.39830017089844 118.90946197509766" stroke-width="3.0" fill="none" stroke="rgb(0, 0, 0)" stroke-opacity="1.0" stroke-linecap="round" stroke-linejoin="round"/>
    <path d="M 179.70016479492188 18.948871612548828 C 173.9709014892578 44.35770797729492 175.61329650878906 25.875614166259766 163.59295654296875 38.83406448364258" stroke-width="3.0" fill="none" stroke="rgb(0, 0, 0)" stroke-opacity="1.0" stroke-linecap="round" stroke-linejoin="round"/>
    <path d="M 119.5125732421875 102.66159057617188 C 145.40924072265625 101.84928131103516 129.7417449951172 115.7126235961914 119.81366729736328 103.97856140136719" stroke-width="3.0" fill="none" stroke="rgb(0, 0, 0)" stroke-opacity="1.0" stroke-linecap="round" stroke-linejoin="round"/>
    <path d="M 79.43989562988281 137.20046997070312 C 53.105403900146484 118.85086059570312 59.5757942199707 110.78557586669922 59.77789306640625 121.73920440673828" stroke-width="3.0" fill="none" stroke="rgb(0, 0, 0)" stroke-opacity="1.0" stroke-linecap="round" stroke-linejoin="round"/>
    <path d="M 123.10958862304688 76.07711029052734 C 127.09861755371094 42.300010681152344 117.22480010986328 58.064598083496094 118.83576965332031 29.543153762817383" stroke-width="3.0" fill="none" stroke="rgb(0, 0, 0)" stroke-opacity="1.0" stroke-linecap="round" stroke-linejoin="round"/>
    <path d="M 147.5734405517578 29.99623680114746 C 143.8920440673828 38.35306930541992 159.91134643554688 10.191056251525879 178.33607482910156 7.998141288757324" stroke-width="3.0" fill="none" stroke="rgb(0, 0, 0)" stroke-opacity="1.0" stroke-linecap="round" stroke-linejoin="round"/>
  </g>
</svg>
