<?xml version="1.0" ?>
<svg xmlns="http://www.w3.org/2000/svg" version="1.1" width="224" height="224">
  <defs/>
  <g>
    <path d="M 58.86073303222656 95.26028442382812 C 59.80583953857422 100.16032409667969 53.36306381225586 90.69075012207031 65.56033325195312 63.3339958190918" stroke-width="3.0" fill="none" stroke="rgb(0, 0, 0)" stroke-opacity="1.0" stroke-linecap="round" stroke-linejoin="round"/>
    <path d="M 189.2252655029297 111.96629333496094 C 183.36241149902344 113.61640167236328 193.3058319091797 99.12149047851562 180.72450256347656 126.17403411865234" stroke-width="3.0" fill="none" stroke="rgb(0, 0, 0)" stroke-opacity="1.0" stroke-linecap="round" stroke-linejoin="round"/>
    <path d="M 60.76016616821289 121.76732635498047 C 51.098026275634766 83.85856628417969 54.82551956176758 120.5643310546875 63.99424362182617 125.687255859375" stroke-width="3.0" fill="none" stroke="rgb(0, 0, 0)" stroke-opacity="1.0" stroke-linecap="round" stroke-linejoin="round"/>
    <path d="M 187.59617614746094 92.51607513427734 C 149.12132263183594 68.9200210571289 182.0640411376953 76.49308013916016 187.76185607910156 105.45486450195312" stroke-width="3.0" fill="none" stroke="rgb(0, 0, 0)" stroke-opacity="1.0" stroke-linecap="round" stroke-linejoin="round"/>
    <path d="M 175.90634155273438 42.27708053588867 C 192.87173461914062 87.90996551513672 171.6114044189453 106.00328063964844 183.42501831054688 68.4382095336914" stroke-width="3.0" fill="none" stroke="rgb(0, 0, 0)" stroke-opacity="1.0" stroke-linecap="round" stroke-linejoin="round"/>
    <path d="M 127.52216339111328 101.80133819580078 C 148.89308166503906 120.69497680664062 94.77213287353516 100.2428970336914 135.65036010742188 106.55673217773438" stroke-width="3.0" fill="none" stroke="rgb(0, 0, 0)" stroke-opacity="1.0" stroke-linecap="round" stroke-linejoin="round"/>
    <path d="M 178.28558349609375 91.13463592529297 C 179.5774383544922 88.58425903320312 188.72186279296875 70.23149871826172 150.5983428955078 85.88907623291016" stroke-width="3.0" fill="none" stroke="rgb(0, 0, 0)" stroke-opacity="1.0" stroke-linecap="round" stroke-linejoin="round"/>
    <path d="M 68.8258285522461 191.7528533935547 C 40.89015197753906 166.7628936767578 45.87890625 165.94100952148438 50.21675109863281 177.3549041748047" stroke-width="3.0" fill="none" stroke="rgb(0, 0, 0)" stroke-opacity="1.0" stroke-linecap="round" stroke-linejoin="round"/>
    <path d="M 58.951175689697266 185.5930938720703 C 82.33228302001953 212.82260131835938 130.845458984375 195.13026428222656 139.79583740234375 162.3318634033203" stroke-width="3.0" fill="none" stroke="rgb(0, 0, 0)" stroke-opacity="1.0" stroke-linecap="round" stroke-linejoin="round"/>
    <path d="M 81.29563903808594 13.501354217529297 C 94.645751953125 73.7550277709961 87.35887908935547 8.161843299865723 85.89090728759766 51.028778076171875" stroke-width="3.0" fill="none" stroke="rgb(0, 0, 0)" stroke-opacity="1.0" stroke-linecap="round" stroke-linejoin="round"/>
    <path d="M 57.80546951293945 95.54365539550781 C 50.24545669555664 132.69879150390625 73.08937072753906 130.6916961669922 59.59933090209961 120.78571319580078" stroke-width="3.0" fill="none" stroke="rgb(0, 0, 0)" stroke-opacity="1.0" stroke-linecap="round" stroke-linejoin="round"/>
    <path d="M 146.15057373046875 73.55931854248047 C 194.9494171142578 64.30183410644531 191.38539123535156 89.09188842773438 138.5830841064453 86.89682006835938" stroke-width="3.0" fill="none" stroke="rgb(0, 0, 0)" stroke-opacity="1.0" stroke-linecap="round" stroke-linejoin="round"/>
    <path d="M 148.37548828125 97.39136505126953 C 180.37860107421875 98.07804870605469 181.3089599609375 95.3739013671875 195.03335571289062 112.74105072021484" stroke-width="3.0" fill="none" stroke="rgb(0, 0, 0)" stroke-opacity="1.0" stroke-linecap="round" stroke-linejoin="round"/>
    <path d="M 122.84366607666016 149.7443084716797 C 161.51104736328125 162.06373596191406 101.3027114868164 145.595458984375 97.44554138183594 151.41920471191406" stroke-width="3.0" fill="none" stroke="rgb(0, 0, 0)" stroke-opacity="1.0" stroke-linecap="round" stroke-linejoin="round"/>
    <path d="M 178.24520874023438 8.501724243164062 C 187.09300231933594 18.29476547241211 170.19578552246094 102.73019409179688 181.44053649902344 53.73771286010742" stroke-width="3.0" fill="none" stroke="rgb(0, 0, 0)" stroke-opacity="1.0" stroke-linecap="round" stroke-linejoin="round"/>
    <path d="M 145.64553833007812 35.02858352661133 C 110.26402282714844 25.361635208129883 137.10427856445312 33.54006576538086 134.89125061035156 69.39952087402344" stroke-width="3.0" fill="none" stroke="rgb(0, 0, 0)" stroke-opacity="1.0" stroke-linecap="round" stroke-linejoin="round"/>
    <path d="M 106.01713562011719 48.48856735229492 C 62.554595947265625 -7.795570373535156 83.98492431640625 0.1337231993675232 119.86421966552734 29.823328018188477" stroke-width="3.0" fill="none" stroke="rgb(0, 0, 0)" stroke-opacity="1.0" stroke-linecap="round" stroke-linejoin="round"/>
    <path d="M 43.31749725341797 162.7372283935547 C 42.60366439819336 160.29830932617188 40.7414436340332 153.8072052001953 47.13529968261719 170.52499389648438" stroke-width="3.0" fill="none" stroke="rgb(0, 0, 0)" stroke-opacity="1.0" stroke-linecap="round" stroke-linejoin="round"/>
    <path d="M 54.982234954833984 73.90311431884766 C 23.00517463684082 128.64596557617188 40.99563980102539 134.96768188476562 43.3613395690918 158.45594787597656" stroke-width="3.0" fill="none" stroke="rgb(0, 0, 0)" stroke-opacity="1.0" stroke-linecap="round" stroke-linejoin="round"/>
    <path d="M 74.05087280273438 137.85292053222656 C 132.02040100097656 164.23489379882812 102.1331558227539 147.23765563964844 87.3175048828125 144.34735107421875" stroke-width="3.0" fill="none" stroke="rgb(0, 0, 0)" stroke-opacity="1.0" stroke-linecap="round" stroke-linejoin="round"/>
    <path d="M 100.40499114990234 198.8846435546875 C 66.04451751708984 195.97705078125 47.87250518798828 176.32333374023438 43.829124450683594 160.38458251953125" stroke-width="3.0" fill="none" stroke="rgb(0, 0, 0)" stroke-opacity="1.0" stroke-linecap="round" stroke-linejoin="round"/>
    <path d="M 48.20945358276367 172.27540588378906 C 67.93364715576172 199.85174560546875 47.73114776611328 176.27902221679688 36.397727966308594 141.36280822753906" stroke-width="3.0" fill="none" stroke="rgb(0, 0, 0)" stroke-opacity="1.0" stroke-linecap="round" stroke-linejoin="round"/>
    <path d="M 81.69685363769531 55.900962829589844 C 54.19573211669922 58.982887268066406 67.20173645019531 74.27052307128906 40.714996337890625 110.85652923583984" stroke-width="3.0" fill="none" stroke="rgb(0, 0, 0)" stroke-opacity="1.0" stroke-linecap="round" stroke-linejoin="round"/>
    <path d="M 155.28919982910156 140.16419982910156 C 101.23414611816406 154.31460571289062 74.97689819335938 152.90538024902344 145.50265502929688 151.34715270996094" stroke-width="3.0" fill="none" stroke="rgb(0, 0, 0)" stroke-opacity="1.0" stroke-linecap="round" stroke-linejoin="round"/>
    <path d="M 150.75221252441406 26.37202262878418 C 148.36155700683594 32.93126678466797 138.35548400878906 18.30093765258789 137.65773010253906 79.05976104736328" stroke-width="3.0" fill="none" stroke="rgb(0, 0, 0)" stroke-opacity="1.0" stroke-linecap="round" stroke-linejoin="round"/>
    <path d="M 144.0894012451172 101.30567932128906 C 126.74097442626953 118.93470001220703 127.2535400390625 108.90270233154297 115.70023345947266 97.45011901855469" stroke-width="3.0" fill="none" stroke="rgb(0, 0, 0)" stroke-opacity="1.0" stroke-linecap="round" stroke-linejoin="round"/>
    <path d="M 137.49664306640625 64.00457763671875 C 143.85948181152344 54.41816329956055 130.60806274414062 72.61479949951172 141.0490264892578 86.95423889160156" stroke-width="3.0" fill="none" stroke="rgb(0, 0, 0)" stroke-opacity="1.0" stroke-linecap="round" stroke-linejoin="round"/>
    <path d="M 139.44686889648438 166.0209197998047 C 130.42269897460938 171.3556365966797 146.70245361328125 164.15869140625 145.72862243652344 146.1533203125" stroke-width="3.0" fill="none" stroke="rgb(0, 0, 0)" stroke-opacity="1.0" stroke-linecap="round" stroke-linejoin="round"/>
    <path d="M 195.37904357910156 95.31211853027344 C 162.97691345214844 67.45784759521484 183.6674346923828 68.15771484375 187.99395751953125 95.825439453125" stroke-width="3.0" fill="none" stroke="rgb(0, 0, 0)" stroke-opacity="1.0" stroke-linecap="round" stroke-linejoin="round"/>
    <path d="M 152.22047424316406 77.09658813476562 C 126.53627014160156 55.305423736572266 208.18368530273438 88.75686645507812 173.72364807128906 66.86510467529297" stroke-width="3.0" fill="none" stroke="rgb(0, 0, 0)" stroke-opacity="1.0" stroke-linecap="round" stroke-linejoin="round"/>
    <path d="M 118.28559875488281 78.80899810791016 C 84.90572357177734 69.86793518066406 144.10885620117188 72.24596405029297 110.645751953125 82.47779083251953" stroke-width="3.0" fill="none" stroke="rgb(0, 0, 0)" stroke-opacity="1.0" stroke-linecap="round" stroke-linejoin="round"/>
    <path d="M 167.07118225097656 129.18724060058594 C 149.0243682861328 161.08595275878906 100.4633560180664 145.24745178222656 91.3880386352539 146.67526245117188" stroke-width="3.0" fill="none" stroke="rgb(0, 0, 0)" stroke-opacity="1.0" stroke-linecap="round" stroke-linejoin="round"/>
    <path d="M 124.99747467041016 92.6690902709961 C 144.98703002929688 100.33741760253906 130.2488555908203 74.56818389892578 130.69720458984375 108.78119659423828" stroke-width="3.0" fill="none" stroke="rgb(0, 0, 0)" stroke-opacity="1.0" stroke-linecap="round" stroke-linejoin="round"/>
    <path d="M 185.26071166992188 109.59698486328125 C 168.94915771484375 89.3447036743164 171.40399169921875 97.16703796386719 145.0347900390625 87.175537109375" stroke-width="3.0" fill="none" stroke="rgb(0, 0, 0)" stroke-opacity="1.0" stroke-linecap="round" stroke-linejoin="round"/>
    <path d="M 92.81118774414062 27.069467544555664 C 125.83219146728516 32.0507698059082 87.66815185546875 35.64130783081055 148.7216033935547 29.790111541748047" stroke-width="3.0" fill="none" stroke="rgb(0, 0, 0)" stroke-opacity="1.0" stroke-linecap="round" stroke-linejoin="round"/>
    <path d="M 58.90925598144531 109.3934326171875 C 62.45705795288086 100.79566192626953 44.484130859375 121.0192642211914 74.04914855957031 138.12442016601562" stroke-width="3.0" fill="none" stroke="rgb(0, 0, 0)" stroke-opacity="1.0" stroke-linecap="round" stroke-linejoin="round"/>
    <path d="M 135.55992126464844 105.68667602539062 C 121.68118286132812 92.02571105957031 124.24832153320312 119.37439727783203 112.19065856933594 89.84146881103516" stroke-width="3.0" fill="none" stroke="rgb(0, 0, 0)" stroke-opacity="1.0" stroke-linecap="round" stroke-linejoin="round"/>
    <path d="M 39.97895050048828 144.5883331298828 C 25.93181800842285 127.02852630615234 37.2443733215332 78.6190185546875 61.142452239990234 66.23929595947266" stroke-width="3.0" fill="none" stroke="rgb(0, 0, 0)" stroke-opacity="1.0" stroke-linecap="round" stroke-linejoin="round"/>
    <path d="M 102.10001373291016 196.89938354492188 C 76.88052368164062 196.89517211914062 69.12525939941406 196.81532287597656 109.98380279541016 196.0258026123047" stroke-width="3.0" fill="none" stroke="rgb(0, 0, 0)" stroke-opacity="1.0" stroke-linecap="round" stroke-linejoin="round"/>
    <path d="M 170.82177734375 128.28094482421875 C 199.5131072998047 115.22607421875 192.1929473876953 85.3521728515625 153.36349487304688 90.07810974121094" stroke-width="3.0" fill="none" stroke="rgb(0, 0, 0)" stroke-opacity="1.0" stroke-linecap="round" stroke-linejoin="round"/>
    <path d="M 151.1699981689453 73.79373168945312 C 130.9001007080078 84.96354675292969 169.17758178710938 80.01696014404297 146.8272247314453 69.4581298828125" stroke-width="3.0" fill="none" stroke="rgb(0, 0, 0)" stroke-opacity="1.0" stroke-linecap="round" stroke-linejoin="round"/>
    <path d="M 140.41357421875 79.53477478027344 C 146.40699768066406 43.4444465637207 194.8388214111328 109.95174407958984 177.1763153076172 49.76414489746094" stroke-width="3.0" fill="none" stroke="rgb(0, 0, 0)" stroke-opacity="1.0" stroke-linecap="round" stroke-linejoin="round"/>
    <path d="M 155.22152709960938 98.44961547851562 C 175.496826171875 106.89562225341797 176.6732940673828 100.14837646484375 186.29367065429688 121.87419891357422" stroke-width="3.0" fill="none" stroke="rgb(0, 0, 0)" stroke-opacity="1.0" stroke-linecap="round" stroke-linejoin="round"/>
    <path d="M 176.07566833496094 15.311393737792969 C 169.0829315185547 42.229305267333984 174.99276733398438 21.666547775268555 160.3750457763672 36.83113098144531" stroke-width="3.0" fill="none" stroke="rgb(0, 0, 0)" stroke-opacity="1.0" stroke-linecap="round" stroke-linejoin="round"/>
    <path d="M 120.76539611816406 104.28176879882812 C 145.4279327392578 98.8016357421875 124.8251953125 114.33023071289062 120.65579223632812 102.82466888427734" stroke-width="3.0" fill="none" stroke="rgb(0, 0, 0)" stroke-opacity="1.0" stroke-linecap="round" stroke-linejoin="round"/>
    <path d="M 62.78734588623047 118.95938110351562 C 52.07490539550781 113.21553039550781 57.92932891845703 111.27486419677734 62.28024673461914 120.40288543701172" stroke-width="3.0" fill="none" stroke="rgb(0, 0, 0)" stroke-opacity="1.0" stroke-linecap="round" stroke-linejoin="round"/>
    <path d="M 123.37818908691406 72.16696166992188 C 121.75592041015625 44.71962356567383 113.6363296508789 57.21516036987305 119.31243896484375 31.339160919189453" stroke-width="3.0" fill="none" stroke="rgb(0, 0, 0)" stroke-opacity="1.0" stroke-linecap="round" stroke-linejoin="round"/>
    <path d="M 145.37559509277344 30.844650268554688 C 143.92527770996094 38.042388916015625 162.71441650390625 8.422419548034668 177.76577758789062 9.202399253845215" stroke-width="3.0" fill="none" stroke="rgb(0, 0, 0)" stroke-opacity="1.0" stroke-linecap="round" stroke-linejoin="round"/>
  </g>
</svg>
