<?xml version="1.0" ?>
<svg xmlns="http://www.w3.org/2000/svg" version="1.1" width="224" height="224">
  <defs/>
  <g>
    <path d="M 65.42317962646484 80.29692840576172 C 64.94677734375 82.38585662841797 66.50482177734375 83.88367462158203 57.14733123779297 73.17975616455078" stroke-width="3.0" fill="none" stroke="rgb(0, 0, 0)" stroke-opacity="1.0" stroke-linecap="round" stroke-linejoin="round"/>
    <path d="M 185.0675048828125 121.86021423339844 C 183.5552215576172 112.26802825927734 198.44888305664062 93.86612701416016 177.3587646484375 126.66537475585938" stroke-width="3.0" fill="none" stroke="rgb(0, 0, 0)" stroke-opacity="1.0" stroke-linecap="round" stroke-linejoin="round"/>
    <path d="M 62.946475982666016 124.09361267089844 C 54.585655212402344 99.60765075683594 59.78767395019531 127.17865753173828 65.88704681396484 129.55706787109375" stroke-width="3.0" fill="none" stroke="rgb(0, 0, 0)" stroke-opacity="1.0" stroke-linecap="round" stroke-linejoin="round"/>
    <path d="M 183.9689483642578 99.13679504394531 C 153.68939208984375 84.68899536132812 174.1040496826172 81.57062530517578 196.46189880371094 114.45257568359375" stroke-width="3.0" fill="none" stroke="rgb(0, 0, 0)" stroke-opacity="1.0" stroke-linecap="round" stroke-linejoin="round"/>
    <path d="M 183.0718231201172 62.21227264404297 C 176.62542724609375 113.30921936035156 181.3222198486328 99.86353302001953 185.65696716308594 69.99786376953125" stroke-width="3.0" fill="none" stroke="rgb(0, 0, 0)" stroke-opacity="1.0" stroke-linecap="round" stroke-linejoin="round"/>
    <path d="M 123.99320983886719 102.99853515625 C 147.05075073242188 116.82379150390625 105.2730941772461 97.77132415771484 135.0575714111328 103.07750701904297" stroke-width="3.0" fill="none" stroke="rgb(0, 0, 0)" stroke-opacity="1.0" stroke-linecap="round" stroke-linejoin="round"/>
    <path d="M 175.2071075439453 98.0678939819336 C 188.51638793945312 88.1865005493164 177.36328125 74.82679748535156 156.55091857910156 86.18193054199219" stroke-width="3.0" fill="none" stroke="rgb(0, 0, 0)" stroke-opacity="1.0" stroke-linecap="round" stroke-linejoin="round"/>
    <path d="M 58.776817321777344 183.64358520507812 C 36.34790802001953 156.51988220214844 46.60296630859375 166.72996520996094 50.33778381347656 173.77186584472656" stroke-width="3.0" fill="none" stroke="rgb(0, 0, 0)" stroke-opacity="1.0" stroke-linecap="round" stroke-linejoin="round"/>
    <path d="M 58.731300354003906 184.3555908203125 C 96.31731414794922 212.10400390625 113.8594970703125 198.6912078857422 132.77088928222656 181.05889892578125" stroke-width="3.0" fill="none" stroke="rgb(0, 0, 0)" stroke-opacity="1.0" stroke-linecap="round" stroke-linejoin="round"/>
    <path d="M 86.47342681884766 34.83362579345703 C 100.01544189453125 71.5831298828125 84.42546844482422 12.116074562072754 84.7773208618164 53.769264221191406" stroke-width="3.0" fill="none" stroke="rgb(0, 0, 0)" stroke-opacity="1.0" stroke-linecap="round" stroke-linejoin="round"/>
    <path d="M 53.131568908691406 102.87263488769531 C 62.68803024291992 135.2415771484375 97.12303924560547 158.95721435546875 96.99658203125 151.7164306640625" stroke-width="3.0" fill="none" stroke="rgb(0, 0, 0)" stroke-opacity="1.0" stroke-linecap="round" stroke-linejoin="round"/>
    <path d="M 142.03594970703125 74.9742660522461 C 202.9184112548828 68.0126953125 188.5711212158203 81.98388671875 152.5367431640625 87.12316131591797" stroke-width="3.0" fill="none" stroke="rgb(0, 0, 0)" stroke-opacity="1.0" stroke-linecap="round" stroke-linejoin="round"/>
    <path d="M 150.76712036132812 96.82157897949219 C 186.25564575195312 101.56919860839844 174.51791381835938 104.41678619384766 194.15280151367188 113.25373840332031" stroke-width="3.0" fill="none" stroke="rgb(0, 0, 0)" stroke-opacity="1.0" stroke-linecap="round" stroke-linejoin="round"/>
    <path d="M 120.06578063964844 155.6317901611328 C 145.1216278076172 148.43113708496094 124.25621032714844 159.74810791015625 116.15879821777344 153.57174682617188" stroke-width="3.0" fill="none" stroke="rgb(0, 0, 0)" stroke-opacity="1.0" stroke-linecap="round" stroke-linejoin="round"/>
    <path d="M 179.70672607421875 8.186810493469238 C 189.0438995361328 22.076480865478516 174.90516662597656 59.11066818237305 180.4415283203125 49.27786636352539" stroke-width="3.0" fill="none" stroke="rgb(0, 0, 0)" stroke-opacity="1.0" stroke-linecap="round" stroke-linejoin="round"/>
    <path d="M 129.5242462158203 30.649930953979492 C 124.04281616210938 55.28547668457031 134.7166290283203 37.93220901489258 124.68413543701172 70.70667266845703" stroke-width="3.0" fill="none" stroke="rgb(0, 0, 0)" stroke-opacity="1.0" stroke-linecap="round" stroke-linejoin="round"/>
    <path d="M 88.9917221069336 52.18687057495117 C 75.93763732910156 -6.0363383293151855 83.8016357421875 1.0441701412200928 107.56219482421875 42.20542526245117" stroke-width="3.0" fill="none" stroke="rgb(0, 0, 0)" stroke-opacity="1.0" stroke-linecap="round" stroke-linejoin="round"/>
    <path d="M 47.731754302978516 166.5636444091797 C 40.4124641418457 154.22572326660156 37.466644287109375 146.58700561523438 44.256103515625 166.94842529296875" stroke-width="3.0" fill="none" stroke="rgb(0, 0, 0)" stroke-opacity="1.0" stroke-linecap="round" stroke-linejoin="round"/>
    <path d="M 34.611572265625 102.22393798828125 C 21.593524932861328 123.04252624511719 36.79777526855469 148.34840393066406 40.23332977294922 151.44384765625" stroke-width="3.0" fill="none" stroke="rgb(0, 0, 0)" stroke-opacity="1.0" stroke-linecap="round" stroke-linejoin="round"/>
    <path d="M 91.64787292480469 147.62232971191406 C 102.3658218383789 159.70372009277344 103.76797485351562 164.4442596435547 105.71814727783203 153.93333435058594" stroke-width="3.0" fill="none" stroke="rgb(0, 0, 0)" stroke-opacity="1.0" stroke-linecap="round" stroke-linejoin="round"/>
    <path d="M 81.78691864013672 196.36502075195312 C 68.01555633544922 200.20327758789062 50.657630920410156 177.7036590576172 46.66715621948242 169.64340209960938" stroke-width="3.0" fill="none" stroke="rgb(0, 0, 0)" stroke-opacity="1.0" stroke-linecap="round" stroke-linejoin="round"/>
    <path d="M 46.42422103881836 165.7714080810547 C 60.92876052856445 193.27236938476562 45.901100158691406 163.18092346191406 39.67963409423828 151.66412353515625" stroke-width="3.0" fill="none" stroke="rgb(0, 0, 0)" stroke-opacity="1.0" stroke-linecap="round" stroke-linejoin="round"/>
    <path d="M 81.3277587890625 56.62221908569336 C 61.02122116088867 56.266605377197266 48.8435173034668 73.10670471191406 32.36687088012695 104.65716552734375" stroke-width="3.0" fill="none" stroke="rgb(0, 0, 0)" stroke-opacity="1.0" stroke-linecap="round" stroke-linejoin="round"/>
    <path d="M 148.42974853515625 141.70130920410156 C 126.01628112792969 158.3590545654297 116.083984375 150.29872131347656 132.41358947753906 155.8084716796875" stroke-width="3.0" fill="none" stroke="rgb(0, 0, 0)" stroke-opacity="1.0" stroke-linecap="round" stroke-linejoin="round"/>
    <path d="M 137.1741943359375 30.094831466674805 C 148.33802795410156 66.11043548583984 134.73568725585938 55.25266647338867 136.52720642089844 81.04131317138672" stroke-width="3.0" fill="none" stroke="rgb(0, 0, 0)" stroke-opacity="1.0" stroke-linecap="round" stroke-linejoin="round"/>
    <path d="M 147.3524169921875 99.65306854248047 C 117.9024658203125 112.5971450805664 138.55020141601562 109.67086791992188 126.7216567993164 104.12018585205078" stroke-width="3.0" fill="none" stroke="rgb(0, 0, 0)" stroke-opacity="1.0" stroke-linecap="round" stroke-linejoin="round"/>
    <path d="M 136.8155517578125 75.69930267333984 C 147.06556701660156 56.90519332885742 131.28985595703125 57.26729965209961 134.4971160888672 76.68414306640625" stroke-width="3.0" fill="none" stroke="rgb(0, 0, 0)" stroke-opacity="1.0" stroke-linecap="round" stroke-linejoin="round"/>
    <path d="M 133.0055694580078 180.02114868164062 C 129.2133026123047 185.71820068359375 139.97332763671875 179.76318359375 145.50904846191406 148.29612731933594" stroke-width="3.0" fill="none" stroke="rgb(0, 0, 0)" stroke-opacity="1.0" stroke-linecap="round" stroke-linejoin="round"/>
    <path d="M 192.0149688720703 95.73111724853516 C 166.77552795410156 69.33018493652344 150.2303466796875 84.11843872070312 183.61166381835938 87.10610961914062" stroke-width="3.0" fill="none" stroke="rgb(0, 0, 0)" stroke-opacity="1.0" stroke-linecap="round" stroke-linejoin="round"/>
    <path d="M 145.72471618652344 77.60167694091797 C 160.93272399902344 64.73186492919922 191.2625274658203 90.39500427246094 182.0992889404297 64.13639068603516" stroke-width="3.0" fill="none" stroke="rgb(0, 0, 0)" stroke-opacity="1.0" stroke-linecap="round" stroke-linejoin="round"/>
    <path d="M 114.31480407714844 83.58452606201172 C 80.82969665527344 74.17284393310547 138.99237060546875 76.20501708984375 106.9779052734375 81.86000061035156" stroke-width="3.0" fill="none" stroke="rgb(0, 0, 0)" stroke-opacity="1.0" stroke-linecap="round" stroke-linejoin="round"/>
    <path d="M 155.73196411132812 134.55514526367188 C 130.27085876464844 166.49462890625 115.39506530761719 151.3502197265625 105.3172607421875 158.859375" stroke-width="3.0" fill="none" stroke="rgb(0, 0, 0)" stroke-opacity="1.0" stroke-linecap="round" stroke-linejoin="round"/>
    <path d="M 124.66133117675781 90.17282104492188 C 142.21876525878906 103.25682067871094 133.156494140625 68.69100952148438 128.70579528808594 105.8075942993164" stroke-width="3.0" fill="none" stroke="rgb(0, 0, 0)" stroke-opacity="1.0" stroke-linecap="round" stroke-linejoin="round"/>
    <path d="M 190.210693359375 109.92575073242188 C 180.2514190673828 84.60765838623047 185.2104034423828 94.34414672851562 140.51043701171875 83.41500854492188" stroke-width="3.0" fill="none" stroke="rgb(0, 0, 0)" stroke-opacity="1.0" stroke-linecap="round" stroke-linejoin="round"/>
    <path d="M 86.8836441040039 10.416312217712402 C 101.7090835571289 11.902607917785645 116.10773468017578 31.07123374938965 120.87809753417969 29.275423049926758" stroke-width="3.0" fill="none" stroke="rgb(0, 0, 0)" stroke-opacity="1.0" stroke-linecap="round" stroke-linejoin="round"/>
    <path d="M 60.49446105957031 123.6123275756836 C 59.0282096862793 112.77428436279297 65.80709838867188 131.4982452392578 61.69332504272461 122.71778869628906" stroke-width="3.0" fill="none" stroke="rgb(0, 0, 0)" stroke-opacity="1.0" stroke-linecap="round" stroke-linejoin="round"/>
    <path d="M 138.03021240234375 106.16240692138672 C 124.02538299560547 94.80076599121094 119.60887908935547 118.17085266113281 114.8696517944336 91.47093200683594" stroke-width="3.0" fill="none" stroke="rgb(0, 0, 0)" stroke-opacity="1.0" stroke-linecap="round" stroke-linejoin="round"/>
    <path d="M 31.625221252441406 132.61248779296875 C 25.802845001220703 100.16327667236328 38.12410354614258 101.05891418457031 44.45978546142578 86.2606430053711" stroke-width="3.0" fill="none" stroke="rgb(0, 0, 0)" stroke-opacity="1.0" stroke-linecap="round" stroke-linejoin="round"/>
    <path d="M 78.7065658569336 195.55677795410156 C 71.38748931884766 193.60475158691406 69.41573333740234 191.82164001464844 96.29732513427734 199.7874298095703" stroke-width="3.0" fill="none" stroke="rgb(0, 0, 0)" stroke-opacity="1.0" stroke-linecap="round" stroke-linejoin="round"/>
    <path d="M 157.20712280273438 132.46685791015625 C 208.7615203857422 116.58427429199219 181.69224548339844 98.17107391357422 156.4997100830078 91.49246978759766" stroke-width="3.0" fill="none" stroke="rgb(0, 0, 0)" stroke-opacity="1.0" stroke-linecap="round" stroke-linejoin="round"/>
    <path d="M 156.5428924560547 71.85521697998047 C 132.6271209716797 84.50306701660156 173.39627075195312 85.13190460205078 146.1666259765625 70.24412536621094" stroke-width="3.0" fill="none" stroke="rgb(0, 0, 0)" stroke-opacity="1.0" stroke-linecap="round" stroke-linejoin="round"/>
    <path d="M 142.15992736816406 78.49072265625 C 146.79681396484375 44.50654983520508 195.60354614257812 114.97591400146484 179.7743682861328 44.57835006713867" stroke-width="3.0" fill="none" stroke="rgb(0, 0, 0)" stroke-opacity="1.0" stroke-linecap="round" stroke-linejoin="round"/>
    <path d="M 156.61849975585938 96.9919204711914 C 170.5269775390625 105.44571685791016 172.94483947753906 100.7529525756836 182.49517822265625 118.28916931152344" stroke-width="3.0" fill="none" stroke="rgb(0, 0, 0)" stroke-opacity="1.0" stroke-linecap="round" stroke-linejoin="round"/>
    <path d="M 177.3928985595703 18.50583839416504 C 173.3785858154297 42.61409378051758 176.23861694335938 26.42738151550293 160.94496154785156 38.8287467956543" stroke-width="3.0" fill="none" stroke="rgb(0, 0, 0)" stroke-opacity="1.0" stroke-linecap="round" stroke-linejoin="round"/>
    <path d="M 118.66633605957031 102.55712890625 C 145.9462127685547 103.29823303222656 131.0940704345703 116.15758514404297 120.2366714477539 103.75687408447266" stroke-width="3.0" fill="none" stroke="rgb(0, 0, 0)" stroke-opacity="1.0" stroke-linecap="round" stroke-linejoin="round"/>
    <path d="M 79.9991226196289 138.08937072753906 C 51.200279235839844 119.87295532226562 58.90446472167969 109.79723358154297 62.35806655883789 118.68342590332031" stroke-width="3.0" fill="none" stroke="rgb(0, 0, 0)" stroke-opacity="1.0" stroke-linecap="round" stroke-linejoin="round"/>
    <path d="M 122.72322082519531 75.0147933959961 C 127.9769287109375 41.84549331665039 117.82888793945312 58.37594985961914 121.21317291259766 28.854936599731445" stroke-width="3.0" fill="none" stroke="rgb(0, 0, 0)" stroke-opacity="1.0" stroke-linecap="round" stroke-linejoin="round"/>
    <path d="M 147.7677764892578 30.784740447998047 C 142.65939331054688 37.784603118896484 160.10824584960938 10.345417976379395 178.4730682373047 8.045709609985352" stroke-width="3.0" fill="none" stroke="rgb(0, 0, 0)" stroke-opacity="1.0" stroke-linecap="round" stroke-linejoin="round"/>
  </g>
</svg>
