<?xml version="1.0" ?>
<svg xmlns="http://www.w3.org/2000/svg" version="1.1" width="224" height="224">
  <defs/>
  <g>
    <path d="M 56.769996643066406 113.9336929321289 C 59.93324279785156 116.28311920166016 47.8382453918457 103.84516906738281 45.695343017578125 83.82714080810547" stroke-width="3.0" fill="none" stroke="rgb(0, 0, 0)" stroke-opacity="1.0" stroke-linecap="round" stroke-linejoin="round"/>
    <path d="M 179.0542449951172 126.39498138427734 C 177.13616943359375 111.79192352294922 186.52468872070312 116.45668029785156 182.88978576660156 116.3909912109375" stroke-width="3.0" fill="none" stroke="rgb(0, 0, 0)" stroke-opacity="1.0" stroke-linecap="round" stroke-linejoin="round"/>
    <path d="M 54.50670623779297 106.93421173095703 C 55.37147903442383 116.96588897705078 53.004234313964844 107.44599914550781 60.52991485595703 113.06752014160156" stroke-width="3.0" fill="none" stroke="rgb(0, 0, 0)" stroke-opacity="1.0" stroke-linecap="round" stroke-linejoin="round"/>
    <path d="M 185.5677032470703 94.12845611572266 C 159.79855346679688 83.47782135009766 171.87937927246094 83.80228424072266 197.3484344482422 111.1868896484375" stroke-width="3.0" fill="none" stroke="rgb(0, 0, 0)" stroke-opacity="1.0" stroke-linecap="round" stroke-linejoin="round"/>
    <path d="M 180.28219604492188 73.2952880859375 C 175.42054748535156 97.73279571533203 184.47181701660156 95.78170013427734 182.64198303222656 62.90571212768555" stroke-width="3.0" fill="none" stroke="rgb(0, 0, 0)" stroke-opacity="1.0" stroke-linecap="round" stroke-linejoin="round"/>
    <path d="M 129.3385467529297 101.67446899414062 C 150.84439086914062 98.99882507324219 101.33393859863281 99.41563415527344 130.47474670410156 106.4527816772461" stroke-width="3.0" fill="none" stroke="rgb(0, 0, 0)" stroke-opacity="1.0" stroke-linecap="round" stroke-linejoin="round"/>
    <path d="M 172.63198852539062 100.92247009277344 C 202.58419799804688 76.9498291015625 171.9654541015625 68.40836334228516 155.7747344970703 86.16951751708984" stroke-width="3.0" fill="none" stroke="rgb(0, 0, 0)" stroke-opacity="1.0" stroke-linecap="round" stroke-linejoin="round"/>
    <path d="M 54.90017318725586 176.9180450439453 C 38.351173400878906 161.4745330810547 54.01462173461914 163.57086181640625 45.60490417480469 163.75381469726562" stroke-width="3.0" fill="none" stroke="rgb(0, 0, 0)" stroke-opacity="1.0" stroke-linecap="round" stroke-linejoin="round"/>
    <path d="M 64.33084106445312 189.941162109375 C 90.1118392944336 208.49813842773438 107.17826080322266 200.94754028320312 122.76301574707031 187.6165008544922" stroke-width="3.0" fill="none" stroke="rgb(0, 0, 0)" stroke-opacity="1.0" stroke-linecap="round" stroke-linejoin="round"/>
    <path d="M 86.48603057861328 42.0179557800293 C 93.64947509765625 52.95428466796875 83.1796875 19.317115783691406 84.75519561767578 56.276641845703125" stroke-width="3.0" fill="none" stroke="rgb(0, 0, 0)" stroke-opacity="1.0" stroke-linecap="round" stroke-linejoin="round"/>
    <path d="M 61.598350524902344 124.4212875366211 C 58.69838333129883 136.5917510986328 91.06480407714844 155.5599822998047 100.7398681640625 151.49400329589844" stroke-width="3.0" fill="none" stroke="rgb(0, 0, 0)" stroke-opacity="1.0" stroke-linecap="round" stroke-linejoin="round"/>
    <path d="M 147.77085876464844 71.69900512695312 C 209.3928985595703 75.78416442871094 183.6998291015625 81.40419006347656 146.60433959960938 84.20309448242188" stroke-width="3.0" fill="none" stroke="rgb(0, 0, 0)" stroke-opacity="1.0" stroke-linecap="round" stroke-linejoin="round"/>
    <path d="M 149.12342834472656 95.6888656616211 C 178.52513122558594 99.67333221435547 180.33209228515625 98.66294860839844 186.5747528076172 112.71182250976562" stroke-width="3.0" fill="none" stroke="rgb(0, 0, 0)" stroke-opacity="1.0" stroke-linecap="round" stroke-linejoin="round"/>
    <path d="M 110.22927856445312 158.9894561767578 C 144.37384033203125 151.1362762451172 115.17915344238281 164.25599670410156 131.19754028320312 156.6983642578125" stroke-width="3.0" fill="none" stroke="rgb(0, 0, 0)" stroke-opacity="1.0" stroke-linecap="round" stroke-linejoin="round"/>
    <path d="M 173.19924926757812 10.12021255493164 C 193.38763427734375 2.9872448444366455 172.7436981201172 56.12491226196289 181.35816955566406 55.50755310058594" stroke-width="3.0" fill="none" stroke="rgb(0, 0, 0)" stroke-opacity="1.0" stroke-linecap="round" stroke-linejoin="round"/>
    <path d="M 130.36680603027344 30.33302879333496 C 126.60575866699219 51.74492263793945 135.99990844726562 39.25199890136719 127.35174560546875 69.67262268066406" stroke-width="3.0" fill="none" stroke="rgb(0, 0, 0)" stroke-opacity="1.0" stroke-linecap="round" stroke-linejoin="round"/>
    <path d="M 89.2225570678711 50.39980697631836 C 71.09892272949219 -7.052286148071289 85.22571563720703 -3.643801212310791 108.4337158203125 37.9991340637207" stroke-width="3.0" fill="none" stroke="rgb(0, 0, 0)" stroke-opacity="1.0" stroke-linecap="round" stroke-linejoin="round"/>
    <path d="M 45.32557678222656 163.133056640625 C 40.090213775634766 155.40301513671875 37.419227600097656 147.20091247558594 38.88292694091797 148.94686889648438" stroke-width="3.0" fill="none" stroke="rgb(0, 0, 0)" stroke-opacity="1.0" stroke-linecap="round" stroke-linejoin="round"/>
    <path d="M 32.77051544189453 108.43070220947266 C 25.053178787231445 127.6484146118164 35.05133056640625 144.66587829589844 44.50190734863281 155.37977600097656" stroke-width="3.0" fill="none" stroke="rgb(0, 0, 0)" stroke-opacity="1.0" stroke-linecap="round" stroke-linejoin="round"/>
    <path d="M 87.18558502197266 149.6443634033203 C 101.97562408447266 158.00230407714844 104.55745697021484 155.0430908203125 104.73682403564453 157.85279846191406" stroke-width="3.0" fill="none" stroke="rgb(0, 0, 0)" stroke-opacity="1.0" stroke-linecap="round" stroke-linejoin="round"/>
    <path d="M 76.62039184570312 197.94775390625 C 54.70642852783203 186.5144805908203 56.239410400390625 184.95089721679688 48.0830192565918 172.42649841308594" stroke-width="3.0" fill="none" stroke="rgb(0, 0, 0)" stroke-opacity="1.0" stroke-linecap="round" stroke-linejoin="round"/>
    <path d="M 44.80731964111328 165.57669067382812 C 58.59640884399414 189.6190948486328 43.132591247558594 163.2664031982422 40.82395553588867 151.3458709716797" stroke-width="3.0" fill="none" stroke="rgb(0, 0, 0)" stroke-opacity="1.0" stroke-linecap="round" stroke-linejoin="round"/>
    <path d="M 80.90143585205078 53.24272918701172 C 57.167762756347656 58.743797302246094 48.291343688964844 73.9334945678711 33.490177154541016 108.16696166992188" stroke-width="3.0" fill="none" stroke="rgb(0, 0, 0)" stroke-opacity="1.0" stroke-linecap="round" stroke-linejoin="round"/>
    <path d="M 150.66717529296875 143.0461883544922 C 136.9561004638672 158.4044952392578 119.09452056884766 155.85183715820312 133.05917358398438 154.92771911621094" stroke-width="3.0" fill="none" stroke="rgb(0, 0, 0)" stroke-opacity="1.0" stroke-linecap="round" stroke-linejoin="round"/>
    <path d="M 140.06199645996094 30.384822845458984 C 142.99903869628906 63.14015579223633 130.44166564941406 58.72127914428711 142.55435180664062 75.56216430664062" stroke-width="3.0" fill="none" stroke="rgb(0, 0, 0)" stroke-opacity="1.0" stroke-linecap="round" stroke-linejoin="round"/>
    <path d="M 145.63597106933594 98.93363952636719 C 116.98819732666016 107.48003387451172 128.38504028320312 112.94853210449219 138.16156005859375 104.21363830566406" stroke-width="3.0" fill="none" stroke="rgb(0, 0, 0)" stroke-opacity="1.0" stroke-linecap="round" stroke-linejoin="round"/>
    <path d="M 140.00013732910156 76.99388885498047 C 141.72471618652344 51.87554931640625 140.27748107910156 62.76007843017578 138.45230102539062 67.23252868652344" stroke-width="3.0" fill="none" stroke="rgb(0, 0, 0)" stroke-opacity="1.0" stroke-linecap="round" stroke-linejoin="round"/>
    <path d="M 133.75401306152344 180.52288818359375 C 108.29244232177734 195.6058807373047 140.2764892578125 188.8675079345703 145.12860107421875 153.96121215820312" stroke-width="3.0" fill="none" stroke="rgb(0, 0, 0)" stroke-opacity="1.0" stroke-linecap="round" stroke-linejoin="round"/>
    <path d="M 194.51318359375 92.66210174560547 C 171.80238342285156 70.56034088134766 143.61572265625 83.09346008300781 184.09136962890625 82.5530776977539" stroke-width="3.0" fill="none" stroke="rgb(0, 0, 0)" stroke-opacity="1.0" stroke-linecap="round" stroke-linejoin="round"/>
    <path d="M 146.5088653564453 77.30907440185547 C 173.5814971923828 61.270965576171875 193.71728515625 79.59603881835938 173.50775146484375 67.07867431640625" stroke-width="3.0" fill="none" stroke="rgb(0, 0, 0)" stroke-opacity="1.0" stroke-linecap="round" stroke-linejoin="round"/>
    <path d="M 107.12133026123047 79.1510009765625 C 91.07080841064453 70.94715881347656 135.4344482421875 75.67723846435547 106.75836181640625 80.58453369140625" stroke-width="3.0" fill="none" stroke="rgb(0, 0, 0)" stroke-opacity="1.0" stroke-linecap="round" stroke-linejoin="round"/>
    <path d="M 147.12232971191406 143.83859252929688 C 140.03211975097656 163.0264892578125 125.24974060058594 153.64825439453125 106.46996307373047 158.19898986816406" stroke-width="3.0" fill="none" stroke="rgb(0, 0, 0)" stroke-opacity="1.0" stroke-linecap="round" stroke-linejoin="round"/>
    <path d="M 124.64966583251953 89.2771224975586 C 141.7102813720703 100.17766571044922 132.89109802246094 73.27176666259766 129.83163452148438 103.76470947265625" stroke-width="3.0" fill="none" stroke="rgb(0, 0, 0)" stroke-opacity="1.0" stroke-linecap="round" stroke-linejoin="round"/>
    <path d="M 187.1298370361328 113.25391387939453 C 176.850341796875 76.12567901611328 182.99227905273438 92.34202575683594 141.76315307617188 83.5124282836914" stroke-width="3.0" fill="none" stroke="rgb(0, 0, 0)" stroke-opacity="1.0" stroke-linecap="round" stroke-linejoin="round"/>
    <path d="M 87.17965698242188 7.544260501861572 C 110.2438735961914 15.273721694946289 115.08418273925781 33.00479507446289 123.75029754638672 29.530550003051758" stroke-width="3.0" fill="none" stroke="rgb(0, 0, 0)" stroke-opacity="1.0" stroke-linecap="round" stroke-linejoin="round"/>
    <path d="M 58.105587005615234 112.89694213867188 C 54.066200256347656 106.37052917480469 58.364837646484375 121.5057373046875 55.9033088684082 111.26496887207031" stroke-width="3.0" fill="none" stroke="rgb(0, 0, 0)" stroke-opacity="1.0" stroke-linecap="round" stroke-linejoin="round"/>
    <path d="M 125.3895492553711 106.93721008300781 C 101.6427001953125 94.70523071289062 126.35224914550781 107.51648712158203 109.80237579345703 88.91179656982422" stroke-width="3.0" fill="none" stroke="rgb(0, 0, 0)" stroke-opacity="1.0" stroke-linecap="round" stroke-linejoin="round"/>
    <path d="M 31.597509384155273 132.17208862304688 C 27.65613555908203 116.37638854980469 35.05604934692383 104.17948150634766 31.049413681030273 116.11087036132812" stroke-width="3.0" fill="none" stroke="rgb(0, 0, 0)" stroke-opacity="1.0" stroke-linecap="round" stroke-linejoin="round"/>
    <path d="M 82.12174987792969 198.63748168945312 C 74.51519012451172 197.3214569091797 69.62149047851562 200.06057739257812 97.21868896484375 200.5573272705078" stroke-width="3.0" fill="none" stroke="rgb(0, 0, 0)" stroke-opacity="1.0" stroke-linecap="round" stroke-linejoin="round"/>
    <path d="M 153.60107421875 141.26583862304688 C 208.25674438476562 111.5237045288086 180.94183349609375 95.65196228027344 157.08067321777344 90.18921661376953" stroke-width="3.0" fill="none" stroke="rgb(0, 0, 0)" stroke-opacity="1.0" stroke-linecap="round" stroke-linejoin="round"/>
    <path d="M 158.60708618164062 69.1187744140625 C 122.52400970458984 81.15570068359375 174.27975463867188 82.80830383300781 145.4788360595703 68.03630828857422" stroke-width="3.0" fill="none" stroke="rgb(0, 0, 0)" stroke-opacity="1.0" stroke-linecap="round" stroke-linejoin="round"/>
    <path d="M 144.13584899902344 74.64376831054688 C 143.89442443847656 46.39794921875 198.9215850830078 105.48941802978516 177.54627990722656 49.713287353515625" stroke-width="3.0" fill="none" stroke="rgb(0, 0, 0)" stroke-opacity="1.0" stroke-linecap="round" stroke-linejoin="round"/>
    <path d="M 152.6887969970703 96.4166259765625 C 167.73944091796875 100.2220458984375 179.77610778808594 102.86458587646484 183.2921905517578 116.20906066894531" stroke-width="3.0" fill="none" stroke="rgb(0, 0, 0)" stroke-opacity="1.0" stroke-linecap="round" stroke-linejoin="round"/>
    <path d="M 178.44186401367188 15.38374137878418 C 167.76104736328125 36.87773513793945 170.58261108398438 18.71002960205078 156.15016174316406 36.610836029052734" stroke-width="3.0" fill="none" stroke="rgb(0, 0, 0)" stroke-opacity="1.0" stroke-linecap="round" stroke-linejoin="round"/>
    <path d="M 121.14678955078125 102.55319213867188 C 148.35125732421875 100.59514617919922 129.44776916503906 111.9447021484375 112.66266632080078 95.45489501953125" stroke-width="3.0" fill="none" stroke="rgb(0, 0, 0)" stroke-opacity="1.0" stroke-linecap="round" stroke-linejoin="round"/>
    <path d="M 55.88314437866211 110.97649383544922 C 53.591373443603516 107.85635375976562 50.5620002746582 104.53472900390625 61.80952835083008 126.53842163085938" stroke-width="3.0" fill="none" stroke="rgb(0, 0, 0)" stroke-opacity="1.0" stroke-linecap="round" stroke-linejoin="round"/>
    <path d="M 123.75982666015625 77.14979553222656 C 128.6603240966797 40.99340057373047 117.94378662109375 52.8008918762207 120.6945571899414 31.64351463317871" stroke-width="3.0" fill="none" stroke="rgb(0, 0, 0)" stroke-opacity="1.0" stroke-linecap="round" stroke-linejoin="round"/>
    <path d="M 144.91561889648438 30.56174087524414 C 144.36813354492188 35.031288146972656 151.48492431640625 14.036742210388184 177.50819396972656 8.631682395935059" stroke-width="3.0" fill="none" stroke="rgb(0, 0, 0)" stroke-opacity="1.0" stroke-linecap="round" stroke-linejoin="round"/>
  </g>
</svg>
