<?xml version="1.0" ?>
<svg xmlns="http://www.w3.org/2000/svg" version="1.1" width="224" height="224">
  <defs/>
  <g>
    <path d="M 56.35807418823242 103.6778564453125 C 60.478424072265625 90.39083862304688 48.60186767578125 94.7620620727539 55.44447326660156 77.43810272216797" stroke-width="3.0" fill="none" stroke="rgb(0, 0, 0)" stroke-opacity="1.0" stroke-linecap="round" stroke-linejoin="round"/>
    <path d="M 185.8111572265625 117.45906829833984 C 181.2785186767578 112.17033386230469 189.65823364257812 82.61351776123047 180.44873046875 125.86988067626953" stroke-width="3.0" fill="none" stroke="rgb(0, 0, 0)" stroke-opacity="1.0" stroke-linecap="round" stroke-linejoin="round"/>
    <path d="M 58.77167510986328 117.75100708007812 C 61.48305130004883 98.25300598144531 51.171592712402344 131.99977111816406 66.73893737792969 135.47622680664062" stroke-width="3.0" fill="none" stroke="rgb(0, 0, 0)" stroke-opacity="1.0" stroke-linecap="round" stroke-linejoin="round"/>
    <path d="M 186.32652282714844 94.59452056884766 C 152.237548828125 78.30622863769531 181.7910614013672 81.57984924316406 186.4617462158203 106.33744049072266" stroke-width="3.0" fill="none" stroke="rgb(0, 0, 0)" stroke-opacity="1.0" stroke-linecap="round" stroke-linejoin="round"/>
    <path d="M 178.74977111816406 57.097129821777344 C 189.50404357910156 99.70137786865234 175.29051208496094 99.55973815917969 180.31436157226562 72.58675384521484" stroke-width="3.0" fill="none" stroke="rgb(0, 0, 0)" stroke-opacity="1.0" stroke-linecap="round" stroke-linejoin="round"/>
    <path d="M 130.38003540039062 98.98750305175781 C 152.564453125 120.75524139404297 99.2033462524414 101.38211822509766 131.79421997070312 104.13057708740234" stroke-width="3.0" fill="none" stroke="rgb(0, 0, 0)" stroke-opacity="1.0" stroke-linecap="round" stroke-linejoin="round"/>
    <path d="M 183.18177795410156 86.23259735107422 C 186.83282470703125 74.05329132080078 195.23875427246094 70.88117980957031 142.38961791992188 89.78167724609375" stroke-width="3.0" fill="none" stroke="rgb(0, 0, 0)" stroke-opacity="1.0" stroke-linecap="round" stroke-linejoin="round"/>
    <path d="M 66.07907104492188 190.5283660888672 C 39.094974517822266 165.50025939941406 52.25083923339844 169.34329223632812 48.58537673950195 171.57432556152344" stroke-width="3.0" fill="none" stroke="rgb(0, 0, 0)" stroke-opacity="1.0" stroke-linecap="round" stroke-linejoin="round"/>
    <path d="M 55.716636657714844 183.9234161376953 C 89.6601333618164 211.90155029296875 122.74819946289062 197.16314697265625 135.99267578125 169.97573852539062" stroke-width="3.0" fill="none" stroke="rgb(0, 0, 0)" stroke-opacity="1.0" stroke-linecap="round" stroke-linejoin="round"/>
    <path d="M 84.78622436523438 22.1033992767334 C 96.79621124267578 78.98611450195312 90.68229675292969 11.833918571472168 83.95556640625 58.07379913330078" stroke-width="3.0" fill="none" stroke="rgb(0, 0, 0)" stroke-opacity="1.0" stroke-linecap="round" stroke-linejoin="round"/>
    <path d="M 53.50794219970703 85.23200988769531 C 59.67945098876953 144.41920471191406 69.05650329589844 142.30572509765625 59.69559097290039 131.50701904296875" stroke-width="3.0" fill="none" stroke="rgb(0, 0, 0)" stroke-opacity="1.0" stroke-linecap="round" stroke-linejoin="round"/>
    <path d="M 147.2473907470703 70.73538970947266 C 202.42605590820312 65.4008560180664 191.84034729003906 86.93854522705078 143.0794677734375 84.10028839111328" stroke-width="3.0" fill="none" stroke="rgb(0, 0, 0)" stroke-opacity="1.0" stroke-linecap="round" stroke-linejoin="round"/>
    <path d="M 156.73175048828125 93.14215087890625 C 180.12088012695312 102.09001922607422 183.48374938964844 95.11708068847656 194.88560485839844 113.38866424560547" stroke-width="3.0" fill="none" stroke="rgb(0, 0, 0)" stroke-opacity="1.0" stroke-linecap="round" stroke-linejoin="round"/>
    <path d="M 119.78165435791016 150.84344482421875 C 152.87184143066406 153.35079956054688 101.3469467163086 147.4019775390625 100.14651489257812 153.82215881347656" stroke-width="3.0" fill="none" stroke="rgb(0, 0, 0)" stroke-opacity="1.0" stroke-linecap="round" stroke-linejoin="round"/>
    <path d="M 178.83047485351562 9.23427963256836 C 189.53965759277344 27.626819610595703 170.76287841796875 87.37114715576172 182.52481079101562 55.09084701538086" stroke-width="3.0" fill="none" stroke="rgb(0, 0, 0)" stroke-opacity="1.0" stroke-linecap="round" stroke-linejoin="round"/>
    <path d="M 135.3065185546875 30.211740493774414 C 102.11073303222656 24.452486038208008 134.7420196533203 43.052757263183594 124.08379364013672 77.24568176269531" stroke-width="3.0" fill="none" stroke="rgb(0, 0, 0)" stroke-opacity="1.0" stroke-linecap="round" stroke-linejoin="round"/>
    <path d="M 101.4852066040039 47.07374572753906 C 65.5309829711914 -4.048059463500977 87.4660415649414 -0.6487983465194702 118.63063049316406 32.38886260986328" stroke-width="3.0" fill="none" stroke="rgb(0, 0, 0)" stroke-opacity="1.0" stroke-linecap="round" stroke-linejoin="round"/>
    <path d="M 46.793033599853516 168.99195861816406 C 40.936031341552734 157.1948699951172 39.49031066894531 148.6135711669922 48.88430404663086 169.16787719726562" stroke-width="3.0" fill="none" stroke="rgb(0, 0, 0)" stroke-opacity="1.0" stroke-linecap="round" stroke-linejoin="round"/>
    <path d="M 43.48902893066406 81.51901245117188 C 14.588752746582031 126.96429443359375 39.56089401245117 138.28787231445312 45.544979095458984 165.04371643066406" stroke-width="3.0" fill="none" stroke="rgb(0, 0, 0)" stroke-opacity="1.0" stroke-linecap="round" stroke-linejoin="round"/>
    <path d="M 65.35112762451172 140.21299743652344 C 120.0180435180664 160.1129913330078 89.10682678222656 147.5267333984375 82.5025634765625 145.01351928710938" stroke-width="3.0" fill="none" stroke="rgb(0, 0, 0)" stroke-opacity="1.0" stroke-linecap="round" stroke-linejoin="round"/>
    <path d="M 89.5904541015625 198.83767700195312 C 69.76771545410156 204.6639404296875 47.75590133666992 176.2224578857422 48.05610656738281 167.9036407470703" stroke-width="3.0" fill="none" stroke="rgb(0, 0, 0)" stroke-opacity="1.0" stroke-linecap="round" stroke-linejoin="round"/>
    <path d="M 49.629913330078125 171.3385467529297 C 66.28903198242188 196.2087860107422 46.92717361450195 172.46788024902344 40.39686965942383 151.3073272705078" stroke-width="3.0" fill="none" stroke="rgb(0, 0, 0)" stroke-opacity="1.0" stroke-linecap="round" stroke-linejoin="round"/>
    <path d="M 81.32051086425781 52.628692626953125 C 55.578678131103516 57.420989990234375 54.07496643066406 73.04306030273438 32.07952117919922 108.84796905517578" stroke-width="3.0" fill="none" stroke="rgb(0, 0, 0)" stroke-opacity="1.0" stroke-linecap="round" stroke-linejoin="round"/>
    <path d="M 159.25735473632812 138.88754272460938 C 102.80562591552734 153.54568481445312 94.8329849243164 161.26548767089844 144.150390625 144.96072387695312" stroke-width="3.0" fill="none" stroke="rgb(0, 0, 0)" stroke-opacity="1.0" stroke-linecap="round" stroke-linejoin="round"/>
    <path d="M 150.82606506347656 28.73186683654785 C 137.771240234375 30.739280700683594 127.81713104248047 16.103275299072266 141.04364013671875 81.19779968261719" stroke-width="3.0" fill="none" stroke="rgb(0, 0, 0)" stroke-opacity="1.0" stroke-linecap="round" stroke-linejoin="round"/>
    <path d="M 149.5930633544922 101.16385650634766 C 130.24313354492188 115.69047546386719 131.53839111328125 102.7254867553711 117.11344909667969 89.72468566894531" stroke-width="3.0" fill="none" stroke="rgb(0, 0, 0)" stroke-opacity="1.0" stroke-linecap="round" stroke-linejoin="round"/>
    <path d="M 138.3705596923828 72.04650115966797 C 140.7263946533203 54.44074630737305 134.38978576660156 78.16930389404297 140.54067993164062 77.94054412841797" stroke-width="3.0" fill="none" stroke="rgb(0, 0, 0)" stroke-opacity="1.0" stroke-linecap="round" stroke-linejoin="round"/>
    <path d="M 138.2643280029297 164.7529754638672 C 126.94417572021484 178.48826599121094 140.66293334960938 169.6772003173828 146.03770446777344 145.0941619873047" stroke-width="3.0" fill="none" stroke="rgb(0, 0, 0)" stroke-opacity="1.0" stroke-linecap="round" stroke-linejoin="round"/>
    <path d="M 194.8106231689453 96.6496353149414 C 163.4536590576172 70.2519760131836 167.45291137695312 77.22657012939453 178.55479431152344 96.83124542236328" stroke-width="3.0" fill="none" stroke="rgb(0, 0, 0)" stroke-opacity="1.0" stroke-linecap="round" stroke-linejoin="round"/>
    <path d="M 155.4488067626953 73.97987365722656 C 133.0591278076172 53.091426849365234 196.7218780517578 92.8719711303711 181.72206115722656 61.62762451171875" stroke-width="3.0" fill="none" stroke="rgb(0, 0, 0)" stroke-opacity="1.0" stroke-linecap="round" stroke-linejoin="round"/>
    <path d="M 116.85897064208984 85.17162322998047 C 84.5717544555664 76.57466125488281 143.43362426757812 80.9124526977539 108.22565460205078 85.27007293701172" stroke-width="3.0" fill="none" stroke="rgb(0, 0, 0)" stroke-opacity="1.0" stroke-linecap="round" stroke-linejoin="round"/>
    <path d="M 168.454833984375 128.31922912597656 C 146.97830200195312 155.5706024169922 110.79632568359375 147.86334228515625 107.59477233886719 157.25833129882812" stroke-width="3.0" fill="none" stroke="rgb(0, 0, 0)" stroke-opacity="1.0" stroke-linecap="round" stroke-linejoin="round"/>
    <path d="M 127.71212005615234 91.28075408935547 C 146.21498107910156 100.47502136230469 131.17210388183594 76.67194366455078 132.29324340820312 105.46843719482422" stroke-width="3.0" fill="none" stroke="rgb(0, 0, 0)" stroke-opacity="1.0" stroke-linecap="round" stroke-linejoin="round"/>
    <path d="M 186.18939208984375 113.65493774414062 C 159.81520080566406 86.73543548583984 184.34059143066406 91.46015167236328 148.5422821044922 87.35594177246094" stroke-width="3.0" fill="none" stroke="rgb(0, 0, 0)" stroke-opacity="1.0" stroke-linecap="round" stroke-linejoin="round"/>
    <path d="M 83.20225524902344 9.101675987243652 C 117.82632446289062 19.424190521240234 101.7707290649414 33.106788635253906 137.84869384765625 29.11419105529785" stroke-width="3.0" fill="none" stroke="rgb(0, 0, 0)" stroke-opacity="1.0" stroke-linecap="round" stroke-linejoin="round"/>
    <path d="M 60.443275451660156 118.30155181884766 C 58.57248306274414 113.12545013427734 60.65013122558594 122.35354614257812 63.491973876953125 126.35759735107422" stroke-width="3.0" fill="none" stroke="rgb(0, 0, 0)" stroke-opacity="1.0" stroke-linecap="round" stroke-linejoin="round"/>
    <path d="M 138.78738403320312 107.49669647216797 C 139.72352600097656 93.96392059326172 123.54061126708984 119.29705810546875 116.62651824951172 90.46963500976562" stroke-width="3.0" fill="none" stroke="rgb(0, 0, 0)" stroke-opacity="1.0" stroke-linecap="round" stroke-linejoin="round"/>
    <path d="M 33.01808166503906 133.8732147216797 C 27.511825561523438 118.18383026123047 35.06934356689453 88.41957092285156 55.64991760253906 66.5135498046875" stroke-width="3.0" fill="none" stroke="rgb(0, 0, 0)" stroke-opacity="1.0" stroke-linecap="round" stroke-linejoin="round"/>
    <path d="M 94.41454315185547 198.78282165527344 C 65.41874694824219 194.24734497070312 65.3281021118164 199.88485717773438 102.53589630126953 197.9207305908203" stroke-width="3.0" fill="none" stroke="rgb(0, 0, 0)" stroke-opacity="1.0" stroke-linecap="round" stroke-linejoin="round"/>
    <path d="M 170.5151824951172 127.00457763671875 C 201.3553466796875 112.65606689453125 181.76222229003906 96.53937530517578 154.5440216064453 87.03076171875" stroke-width="3.0" fill="none" stroke="rgb(0, 0, 0)" stroke-opacity="1.0" stroke-linecap="round" stroke-linejoin="round"/>
    <path d="M 152.9532470703125 67.23164367675781 C 137.80665588378906 84.91028594970703 178.58673095703125 75.23448944091797 148.86770629882812 74.15984344482422" stroke-width="3.0" fill="none" stroke="rgb(0, 0, 0)" stroke-opacity="1.0" stroke-linecap="round" stroke-linejoin="round"/>
    <path d="M 141.3484649658203 76.70935821533203 C 138.77391052246094 37.206302642822266 194.73573303222656 111.63131713867188 178.28550720214844 47.607505798339844" stroke-width="3.0" fill="none" stroke="rgb(0, 0, 0)" stroke-opacity="1.0" stroke-linecap="round" stroke-linejoin="round"/>
    <path d="M 151.13064575195312 97.13584899902344 C 174.29592895507812 102.23263549804688 171.0374298095703 97.91475677490234 179.83502197265625 120.17923736572266" stroke-width="3.0" fill="none" stroke="rgb(0, 0, 0)" stroke-opacity="1.0" stroke-linecap="round" stroke-linejoin="round"/>
    <path d="M 180.11627197265625 14.818353652954102 C 181.24009704589844 40.14974594116211 162.40359497070312 18.02043342590332 149.09939575195312 39.2549934387207" stroke-width="3.0" fill="none" stroke="rgb(0, 0, 0)" stroke-opacity="1.0" stroke-linecap="round" stroke-linejoin="round"/>
    <path d="M 120.64669799804688 103.05052185058594 C 156.6422119140625 102.36760711669922 140.12640380859375 111.35494995117188 119.09294128417969 97.31497955322266" stroke-width="3.0" fill="none" stroke="rgb(0, 0, 0)" stroke-opacity="1.0" stroke-linecap="round" stroke-linejoin="round"/>
    <path d="M 64.74826049804688 121.16376495361328 C 53.524532318115234 109.5709228515625 58.61434555053711 108.77486419677734 60.3731803894043 117.739990234375" stroke-width="3.0" fill="none" stroke="rgb(0, 0, 0)" stroke-opacity="1.0" stroke-linecap="round" stroke-linejoin="round"/>
    <path d="M 124.04393005371094 73.40348052978516 C 124.09503936767578 38.07121658325195 119.09342193603516 59.6639518737793 121.47628784179688 38.873538970947266" stroke-width="3.0" fill="none" stroke="rgb(0, 0, 0)" stroke-opacity="1.0" stroke-linecap="round" stroke-linejoin="round"/>
    <path d="M 153.09124755859375 26.408565521240234 C 145.62989807128906 35.34315872192383 164.06439208984375 6.305854320526123 178.03553771972656 9.847744941711426" stroke-width="3.0" fill="none" stroke="rgb(0, 0, 0)" stroke-opacity="1.0" stroke-linecap="round" stroke-linejoin="round"/>
  </g>
</svg>
