<?xml version="1.0" ?>
<svg xmlns="http://www.w3.org/2000/svg" version="1.1" width="224" height="224">
  <defs/>
  <g>
    <path d="M 59.981536865234375 95.61322021484375 C 59.23193359375 101.23474884033203 55.31377410888672 91.6922836303711 64.3188705444336 63.140655517578125" stroke-width="3.0" fill="none" stroke="rgb(0, 0, 0)" stroke-opacity="1.0" stroke-linecap="round" stroke-linejoin="round"/>
    <path d="M 189.01148986816406 110.24364471435547 C 182.82725524902344 113.43254852294922 191.0782928466797 97.41080474853516 179.77935791015625 127.08233642578125" stroke-width="3.0" fill="none" stroke="rgb(0, 0, 0)" stroke-opacity="1.0" stroke-linecap="round" stroke-linejoin="round"/>
    <path d="M 58.240108489990234 123.27310943603516 C 52.47515869140625 83.56450653076172 54.96430206298828 120.90975952148438 65.80435180664062 125.35132598876953" stroke-width="3.0" fill="none" stroke="rgb(0, 0, 0)" stroke-opacity="1.0" stroke-linecap="round" stroke-linejoin="round"/>
    <path d="M 184.76722717285156 94.70919799804688 C 146.73001098632812 70.17618560791016 182.1363067626953 77.10070037841797 189.10926818847656 104.2974624633789" stroke-width="3.0" fill="none" stroke="rgb(0, 0, 0)" stroke-opacity="1.0" stroke-linecap="round" stroke-linejoin="round"/>
    <path d="M 177.47802734375 42.87665939331055 C 195.3986358642578 84.6986312866211 172.03421020507812 104.41165924072266 182.8054962158203 69.20988464355469" stroke-width="3.0" fill="none" stroke="rgb(0, 0, 0)" stroke-opacity="1.0" stroke-linecap="round" stroke-linejoin="round"/>
    <path d="M 127.49629211425781 102.11835479736328 C 147.9597930908203 121.80721282958984 93.47616577148438 100.6086654663086 137.2134246826172 106.3647232055664" stroke-width="3.0" fill="none" stroke="rgb(0, 0, 0)" stroke-opacity="1.0" stroke-linecap="round" stroke-linejoin="round"/>
    <path d="M 177.54652404785156 93.77763366699219 C 180.2486114501953 87.87186431884766 190.9841766357422 71.08938598632812 151.52760314941406 87.93228912353516" stroke-width="3.0" fill="none" stroke="rgb(0, 0, 0)" stroke-opacity="1.0" stroke-linecap="round" stroke-linejoin="round"/>
    <path d="M 67.82770538330078 192.40866088867188 C 41.734375 166.7223663330078 47.749183654785156 165.65316772460938 52.34474182128906 174.47926330566406" stroke-width="3.0" fill="none" stroke="rgb(0, 0, 0)" stroke-opacity="1.0" stroke-linecap="round" stroke-linejoin="round"/>
    <path d="M 59.8198356628418 185.50137329101562 C 84.84758758544922 212.81900024414062 132.56739807128906 196.34324645996094 141.57908630371094 164.09373474121094" stroke-width="3.0" fill="none" stroke="rgb(0, 0, 0)" stroke-opacity="1.0" stroke-linecap="round" stroke-linejoin="round"/>
    <path d="M 81.34529876708984 13.571060180664062 C 96.03186798095703 76.3309555053711 85.86310577392578 12.49170970916748 83.93849182128906 51.06769943237305" stroke-width="3.0" fill="none" stroke="rgb(0, 0, 0)" stroke-opacity="1.0" stroke-linecap="round" stroke-linejoin="round"/>
    <path d="M 57.24724197387695 95.2590103149414 C 51.79878234863281 132.8026123046875 73.43342590332031 130.45323181152344 57.49238204956055 120.1695785522461" stroke-width="3.0" fill="none" stroke="rgb(0, 0, 0)" stroke-opacity="1.0" stroke-linecap="round" stroke-linejoin="round"/>
    <path d="M 145.1300506591797 73.12496948242188 C 196.30621337890625 60.86079025268555 192.22630310058594 89.66072845458984 140.1572265625 87.04244232177734" stroke-width="3.0" fill="none" stroke="rgb(0, 0, 0)" stroke-opacity="1.0" stroke-linecap="round" stroke-linejoin="round"/>
    <path d="M 150.15582275390625 97.1533432006836 C 179.53811645507812 96.7834701538086 177.83409118652344 96.87724304199219 196.4337615966797 113.0688705444336" stroke-width="3.0" fill="none" stroke="rgb(0, 0, 0)" stroke-opacity="1.0" stroke-linecap="round" stroke-linejoin="round"/>
    <path d="M 122.35320281982422 148.99307250976562 C 162.151611328125 159.72938537597656 102.45375061035156 145.6940460205078 95.53894805908203 151.25765991210938" stroke-width="3.0" fill="none" stroke="rgb(0, 0, 0)" stroke-opacity="1.0" stroke-linecap="round" stroke-linejoin="round"/>
    <path d="M 179.33050537109375 8.464879035949707 C 188.67877197265625 18.705739974975586 171.13296508789062 102.72539520263672 180.7987823486328 53.685203552246094" stroke-width="3.0" fill="none" stroke="rgb(0, 0, 0)" stroke-opacity="1.0" stroke-linecap="round" stroke-linejoin="round"/>
    <path d="M 147.86422729492188 32.82260513305664 C 111.65254974365234 22.861019134521484 137.02212524414062 32.622379302978516 130.7954559326172 73.49893951416016" stroke-width="3.0" fill="none" stroke="rgb(0, 0, 0)" stroke-opacity="1.0" stroke-linecap="round" stroke-linejoin="round"/>
    <path d="M 106.40391540527344 49.75321578979492 C 62.8116340637207 -6.9423956871032715 84.06820678710938 1.0935773849487305 119.84369659423828 30.498945236206055" stroke-width="3.0" fill="none" stroke="rgb(0, 0, 0)" stroke-opacity="1.0" stroke-linecap="round" stroke-linejoin="round"/>
    <path d="M 44.607479095458984 161.5430908203125 C 43.4071159362793 159.47171020507812 42.63055419921875 152.2103729248047 47.810115814208984 169.9130096435547" stroke-width="3.0" fill="none" stroke="rgb(0, 0, 0)" stroke-opacity="1.0" stroke-linecap="round" stroke-linejoin="round"/>
    <path d="M 56.71668243408203 77.33480072021484 C 24.225996017456055 131.41290283203125 40.70185089111328 135.8318328857422 44.414058685302734 158.5087127685547" stroke-width="3.0" fill="none" stroke="rgb(0, 0, 0)" stroke-opacity="1.0" stroke-linecap="round" stroke-linejoin="round"/>
    <path d="M 75.06251525878906 136.43911743164062 C 134.02896118164062 161.7510223388672 103.18740844726562 145.2123260498047 86.78834533691406 144.91603088378906" stroke-width="3.0" fill="none" stroke="rgb(0, 0, 0)" stroke-opacity="1.0" stroke-linecap="round" stroke-linejoin="round"/>
    <path d="M 98.55369567871094 197.85153198242188 C 64.2778549194336 198.7227020263672 47.43681335449219 177.8855438232422 44.37677001953125 160.7795867919922" stroke-width="3.0" fill="none" stroke="rgb(0, 0, 0)" stroke-opacity="1.0" stroke-linecap="round" stroke-linejoin="round"/>
    <path d="M 49.787498474121094 171.13174438476562 C 68.04973602294922 200.33935546875 47.78390884399414 176.3558349609375 36.865692138671875 140.98770141601562" stroke-width="3.0" fill="none" stroke="rgb(0, 0, 0)" stroke-opacity="1.0" stroke-linecap="round" stroke-linejoin="round"/>
    <path d="M 82.84219360351562 56.9894905090332 C 52.788272857666016 58.395565032958984 65.53636932373047 73.58292388916016 39.656681060791016 109.86334991455078" stroke-width="3.0" fill="none" stroke="rgb(0, 0, 0)" stroke-opacity="1.0" stroke-linecap="round" stroke-linejoin="round"/>
    <path d="M 156.7501678466797 142.29417419433594 C 101.758544921875 155.2938995361328 75.0267562866211 151.18893432617188 145.30796813964844 149.42137145996094" stroke-width="3.0" fill="none" stroke="rgb(0, 0, 0)" stroke-opacity="1.0" stroke-linecap="round" stroke-linejoin="round"/>
    <path d="M 149.8817138671875 26.887725830078125 C 146.69515991210938 32.670372009277344 135.2924041748047 16.95025634765625 137.42543029785156 78.76337432861328" stroke-width="3.0" fill="none" stroke="rgb(0, 0, 0)" stroke-opacity="1.0" stroke-linecap="round" stroke-linejoin="round"/>
    <path d="M 144.15707397460938 100.22027587890625 C 126.96102142333984 116.30641174316406 130.07275390625 105.9713363647461 116.41911315917969 96.13671112060547" stroke-width="3.0" fill="none" stroke="rgb(0, 0, 0)" stroke-opacity="1.0" stroke-linecap="round" stroke-linejoin="round"/>
    <path d="M 137.3660430908203 65.81317901611328 C 144.1100616455078 53.98468017578125 132.11888122558594 70.98473358154297 141.88720703125 82.57726287841797" stroke-width="3.0" fill="none" stroke="rgb(0, 0, 0)" stroke-opacity="1.0" stroke-linecap="round" stroke-linejoin="round"/>
    <path d="M 139.0734405517578 165.03440856933594 C 129.39724731445312 169.23182678222656 147.87950134277344 164.16488647460938 146.02447509765625 147.03358459472656" stroke-width="3.0" fill="none" stroke="rgb(0, 0, 0)" stroke-opacity="1.0" stroke-linecap="round" stroke-linejoin="round"/>
    <path d="M 195.9971160888672 94.3973388671875 C 162.7348175048828 67.28351593017578 184.384521484375 67.79845428466797 188.24525451660156 97.52786254882812" stroke-width="3.0" fill="none" stroke="rgb(0, 0, 0)" stroke-opacity="1.0" stroke-linecap="round" stroke-linejoin="round"/>
    <path d="M 152.0611114501953 78.1065444946289 C 129.30337524414062 56.27669906616211 209.55422973632812 89.44658660888672 177.11709594726562 66.47154235839844" stroke-width="3.0" fill="none" stroke="rgb(0, 0, 0)" stroke-opacity="1.0" stroke-linecap="round" stroke-linejoin="round"/>
    <path d="M 119.08149719238281 77.62582397460938 C 82.81626892089844 71.27242279052734 145.17599487304688 73.2638931274414 112.92517852783203 82.1242446899414" stroke-width="3.0" fill="none" stroke="rgb(0, 0, 0)" stroke-opacity="1.0" stroke-linecap="round" stroke-linejoin="round"/>
    <path d="M 168.14132690429688 129.50286865234375 C 148.7285919189453 160.69223022460938 100.71246337890625 144.85882568359375 92.25786590576172 147.27374267578125" stroke-width="3.0" fill="none" stroke="rgb(0, 0, 0)" stroke-opacity="1.0" stroke-linecap="round" stroke-linejoin="round"/>
    <path d="M 126.6624984741211 90.96397399902344 C 145.62448120117188 99.5980224609375 129.27960205078125 73.83187103271484 130.11126708984375 108.16680145263672" stroke-width="3.0" fill="none" stroke="rgb(0, 0, 0)" stroke-opacity="1.0" stroke-linecap="round" stroke-linejoin="round"/>
    <path d="M 185.86810302734375 111.34490203857422 C 166.81051635742188 89.49285125732422 171.99301147460938 95.53533935546875 145.12374877929688 87.00407409667969" stroke-width="3.0" fill="none" stroke="rgb(0, 0, 0)" stroke-opacity="1.0" stroke-linecap="round" stroke-linejoin="round"/>
    <path d="M 92.00411987304688 26.485759735107422 C 126.54520416259766 29.04484748840332 87.74627685546875 32.798458099365234 148.60934448242188 27.975109100341797" stroke-width="3.0" fill="none" stroke="rgb(0, 0, 0)" stroke-opacity="1.0" stroke-linecap="round" stroke-linejoin="round"/>
    <path d="M 57.01444625854492 108.62303161621094 C 61.98099899291992 100.63911437988281 44.68179702758789 123.12914276123047 73.4114990234375 136.5913543701172" stroke-width="3.0" fill="none" stroke="rgb(0, 0, 0)" stroke-opacity="1.0" stroke-linecap="round" stroke-linejoin="round"/>
    <path d="M 136.69610595703125 104.19280242919922 C 121.26428985595703 91.99122619628906 124.4229507446289 119.65289306640625 112.53109741210938 88.38072967529297" stroke-width="3.0" fill="none" stroke="rgb(0, 0, 0)" stroke-opacity="1.0" stroke-linecap="round" stroke-linejoin="round"/>
    <path d="M 38.99588394165039 145.31793212890625 C 24.820091247558594 128.16253662109375 36.24691390991211 77.40123748779297 61.14753341674805 67.08895111083984" stroke-width="3.0" fill="none" stroke="rgb(0, 0, 0)" stroke-opacity="1.0" stroke-linecap="round" stroke-linejoin="round"/>
    <path d="M 103.00807189941406 197.46710205078125 C 77.46092987060547 196.10386657714844 70.20726013183594 197.33116149902344 108.10130310058594 195.58245849609375" stroke-width="3.0" fill="none" stroke="rgb(0, 0, 0)" stroke-opacity="1.0" stroke-linecap="round" stroke-linejoin="round"/>
    <path d="M 169.8894805908203 129.09793090820312 C 198.21542358398438 115.40038299560547 191.23500061035156 83.30148315429688 154.04360961914062 90.90848541259766" stroke-width="3.0" fill="none" stroke="rgb(0, 0, 0)" stroke-opacity="1.0" stroke-linecap="round" stroke-linejoin="round"/>
    <path d="M 151.1619110107422 75.07496643066406 C 132.60385131835938 83.94454193115234 172.70330810546875 79.07459259033203 149.8162078857422 68.52104187011719" stroke-width="3.0" fill="none" stroke="rgb(0, 0, 0)" stroke-opacity="1.0" stroke-linecap="round" stroke-linejoin="round"/>
    <path d="M 140.85894775390625 78.01525115966797 C 142.250732421875 43.503150939941406 194.08840942382812 111.87080383300781 177.6941680908203 48.719078063964844" stroke-width="3.0" fill="none" stroke="rgb(0, 0, 0)" stroke-opacity="1.0" stroke-linecap="round" stroke-linejoin="round"/>
    <path d="M 154.85076904296875 96.02571105957031 C 175.2852783203125 106.3355941772461 172.9232635498047 102.27520751953125 185.76515197753906 120.99526977539062" stroke-width="3.0" fill="none" stroke="rgb(0, 0, 0)" stroke-opacity="1.0" stroke-linecap="round" stroke-linejoin="round"/>
    <path d="M 175.6331024169922 18.502422332763672 C 169.0906524658203 44.465362548828125 174.2651824951172 22.932809829711914 159.4556121826172 37.20343017578125" stroke-width="3.0" fill="none" stroke="rgb(0, 0, 0)" stroke-opacity="1.0" stroke-linecap="round" stroke-linejoin="round"/>
    <path d="M 120.86185455322266 104.57788848876953 C 144.60208129882812 99.58354949951172 124.78624725341797 115.84420013427734 120.91201782226562 104.01409149169922" stroke-width="3.0" fill="none" stroke="rgb(0, 0, 0)" stroke-opacity="1.0" stroke-linecap="round" stroke-linejoin="round"/>
    <path d="M 64.04063415527344 120.09266662597656 C 52.01026153564453 113.79558563232422 57.674598693847656 112.9200439453125 62.97866439819336 118.33697509765625" stroke-width="3.0" fill="none" stroke="rgb(0, 0, 0)" stroke-opacity="1.0" stroke-linecap="round" stroke-linejoin="round"/>
    <path d="M 124.56684875488281 74.3106460571289 C 123.23783111572266 44.40030288696289 112.58354187011719 58.51095199584961 119.19642639160156 31.475893020629883" stroke-width="3.0" fill="none" stroke="rgb(0, 0, 0)" stroke-opacity="1.0" stroke-linecap="round" stroke-linejoin="round"/>
    <path d="M 146.7259063720703 30.78461265563965 C 145.0492401123047 38.08457565307617 161.8931121826172 7.654867172241211 177.8972625732422 9.363936424255371" stroke-width="3.0" fill="none" stroke="rgb(0, 0, 0)" stroke-opacity="1.0" stroke-linecap="round" stroke-linejoin="round"/>
  </g>
</svg>
