<?xml version="1.0" ?>
<svg xmlns="http://www.w3.org/2000/svg" version="1.1" width="224" height="224">
  <defs/>
  <g>
    <path d="M 59.75356674194336 101.15233612060547 C 66.25502014160156 100.19849395751953 52.77318572998047 88.50993347167969 67.10625457763672 61.08808135986328" stroke-width="3.0" fill="none" stroke="rgb(0, 0, 0)" stroke-opacity="1.0" stroke-linecap="round" stroke-linejoin="round"/>
    <path d="M 190.1783447265625 110.43511962890625 C 185.0446014404297 107.12173461914062 191.6842498779297 95.78804779052734 181.5352325439453 124.57171630859375" stroke-width="3.0" fill="none" stroke="rgb(0, 0, 0)" stroke-opacity="1.0" stroke-linecap="round" stroke-linejoin="round"/>
    <path d="M 62.32489776611328 123.67520904541016 C 59.20779800415039 82.31590270996094 59.328880310058594 124.4554214477539 63.84799575805664 123.3287582397461" stroke-width="3.0" fill="none" stroke="rgb(0, 0, 0)" stroke-opacity="1.0" stroke-linecap="round" stroke-linejoin="round"/>
    <path d="M 184.2237091064453 95.64295959472656 C 153.0591278076172 72.52825164794922 181.43809509277344 78.44622802734375 184.87246704101562 103.86894226074219" stroke-width="3.0" fill="none" stroke="rgb(0, 0, 0)" stroke-opacity="1.0" stroke-linecap="round" stroke-linejoin="round"/>
    <path d="M 176.2573699951172 40.518798828125 C 193.73565673828125 95.78942108154297 173.48504638671875 108.9776611328125 182.02264404296875 61.60947036743164" stroke-width="3.0" fill="none" stroke="rgb(0, 0, 0)" stroke-opacity="1.0" stroke-linecap="round" stroke-linejoin="round"/>
    <path d="M 130.0963592529297 100.11707305908203 C 151.7555389404297 115.3319320678711 99.75431060791016 97.92882537841797 139.99386596679688 105.3251953125" stroke-width="3.0" fill="none" stroke="rgb(0, 0, 0)" stroke-opacity="1.0" stroke-linecap="round" stroke-linejoin="round"/>
    <path d="M 181.97242736816406 89.3360366821289 C 166.54661560058594 88.25990295410156 185.2781524658203 70.7655029296875 158.8412322998047 85.15111541748047" stroke-width="3.0" fill="none" stroke="rgb(0, 0, 0)" stroke-opacity="1.0" stroke-linecap="round" stroke-linejoin="round"/>
    <path d="M 65.7838134765625 189.43130493164062 C 42.39480209350586 167.87001037597656 46.70552062988281 169.49151611328125 59.59832763671875 185.49717712402344" stroke-width="3.0" fill="none" stroke="rgb(0, 0, 0)" stroke-opacity="1.0" stroke-linecap="round" stroke-linejoin="round"/>
    <path d="M 55.9962043762207 183.88059997558594 C 86.59739685058594 209.62802124023438 131.8958740234375 195.13783264160156 138.4390411376953 163.61221313476562" stroke-width="3.0" fill="none" stroke="rgb(0, 0, 0)" stroke-opacity="1.0" stroke-linecap="round" stroke-linejoin="round"/>
    <path d="M 81.86453247070312 13.350248336791992 C 90.54977416992188 79.11668395996094 87.65513610839844 8.724832534790039 83.4968032836914 54.89806365966797" stroke-width="3.0" fill="none" stroke="rgb(0, 0, 0)" stroke-opacity="1.0" stroke-linecap="round" stroke-linejoin="round"/>
    <path d="M 62.259586334228516 93.56998443603516 C 48.152217864990234 130.1656036376953 74.3755874633789 129.47201538085938 60.91006851196289 119.56957244873047" stroke-width="3.0" fill="none" stroke="rgb(0, 0, 0)" stroke-opacity="1.0" stroke-linecap="round" stroke-linejoin="round"/>
    <path d="M 147.79959106445312 72.44732666015625 C 190.25677490234375 68.07788848876953 194.314697265625 88.90375518798828 140.7095184326172 84.6619644165039" stroke-width="3.0" fill="none" stroke="rgb(0, 0, 0)" stroke-opacity="1.0" stroke-linecap="round" stroke-linejoin="round"/>
    <path d="M 149.8562774658203 97.40101623535156 C 182.60707092285156 98.14759826660156 180.48928833007812 97.1826400756836 195.18544006347656 114.13744354248047" stroke-width="3.0" fill="none" stroke="rgb(0, 0, 0)" stroke-opacity="1.0" stroke-linecap="round" stroke-linejoin="round"/>
    <path d="M 125.27411651611328 145.7415771484375 C 165.92892456054688 161.7889404296875 102.45462799072266 144.47805786132812 98.00524139404297 151.04986572265625" stroke-width="3.0" fill="none" stroke="rgb(0, 0, 0)" stroke-opacity="1.0" stroke-linecap="round" stroke-linejoin="round"/>
    <path d="M 180.56015014648438 9.336511611938477 C 190.60800170898438 18.447765350341797 165.3313446044922 98.4244613647461 181.6448211669922 58.9447135925293" stroke-width="3.0" fill="none" stroke="rgb(0, 0, 0)" stroke-opacity="1.0" stroke-linecap="round" stroke-linejoin="round"/>
    <path d="M 145.8980712890625 31.135255813598633 C 111.84857177734375 28.278221130371094 135.2304229736328 33.665809631347656 129.16189575195312 63.25428771972656" stroke-width="3.0" fill="none" stroke="rgb(0, 0, 0)" stroke-opacity="1.0" stroke-linecap="round" stroke-linejoin="round"/>
    <path d="M 105.27957916259766 43.912818908691406 C 63.036434173583984 -8.971963882446289 82.98699188232422 1.0482853651046753 121.4456558227539 33.52417755126953" stroke-width="3.0" fill="none" stroke="rgb(0, 0, 0)" stroke-opacity="1.0" stroke-linecap="round" stroke-linejoin="round"/>
    <path d="M 44.83578872680664 164.05128479003906 C 43.899375915527344 160.3627166748047 39.490928649902344 155.9295654296875 50.51891326904297 172.76229858398438" stroke-width="3.0" fill="none" stroke="rgb(0, 0, 0)" stroke-opacity="1.0" stroke-linecap="round" stroke-linejoin="round"/>
    <path d="M 55.78944778442383 68.44340515136719 C 20.612594604492188 128.81544494628906 39.6500129699707 136.2232666015625 45.058162689208984 161.4699249267578" stroke-width="3.0" fill="none" stroke="rgb(0, 0, 0)" stroke-opacity="1.0" stroke-linecap="round" stroke-linejoin="round"/>
    <path d="M 71.41190338134766 136.35211181640625 C 134.6183624267578 162.98602294921875 101.51127624511719 151.6493682861328 85.44874572753906 141.9518280029297" stroke-width="3.0" fill="none" stroke="rgb(0, 0, 0)" stroke-opacity="1.0" stroke-linecap="round" stroke-linejoin="round"/>
    <path d="M 91.52266693115234 197.83056640625 C 64.55204772949219 201.65216064453125 46.659420013427734 177.6914825439453 42.525333404541016 154.85755920410156" stroke-width="3.0" fill="none" stroke="rgb(0, 0, 0)" stroke-opacity="1.0" stroke-linecap="round" stroke-linejoin="round"/>
    <path d="M 51.50277328491211 174.20933532714844 C 69.16901397705078 198.3564453125 45.67267990112305 177.62413024902344 36.12468338012695 142.19815063476562" stroke-width="3.0" fill="none" stroke="rgb(0, 0, 0)" stroke-opacity="1.0" stroke-linecap="round" stroke-linejoin="round"/>
    <path d="M 79.43280029296875 55.79856872558594 C 55.98614501953125 59.10842514038086 62.31731414794922 70.1285629272461 37.86811447143555 113.34902954101562" stroke-width="3.0" fill="none" stroke="rgb(0, 0, 0)" stroke-opacity="1.0" stroke-linecap="round" stroke-linejoin="round"/>
    <path d="M 156.53524780273438 141.83338928222656 C 102.02371215820312 155.1903839111328 70.86135864257812 151.79107666015625 144.84530639648438 149.17013549804688" stroke-width="3.0" fill="none" stroke="rgb(0, 0, 0)" stroke-opacity="1.0" stroke-linecap="round" stroke-linejoin="round"/>
    <path d="M 149.75059509277344 28.567550659179688 C 142.15213012695312 37.2343635559082 133.6175079345703 13.762031555175781 138.5991668701172 76.99513244628906" stroke-width="3.0" fill="none" stroke="rgb(0, 0, 0)" stroke-opacity="1.0" stroke-linecap="round" stroke-linejoin="round"/>
    <path d="M 147.29127502441406 102.0525894165039 C 125.82052612304688 114.67582702636719 120.58783721923828 108.99447631835938 112.86810302734375 92.08162689208984" stroke-width="3.0" fill="none" stroke="rgb(0, 0, 0)" stroke-opacity="1.0" stroke-linecap="round" stroke-linejoin="round"/>
    <path d="M 137.7610321044922 64.55418395996094 C 148.28160095214844 59.26433181762695 134.0765380859375 73.3806381225586 139.93878173828125 74.73783874511719" stroke-width="3.0" fill="none" stroke="rgb(0, 0, 0)" stroke-opacity="1.0" stroke-linecap="round" stroke-linejoin="round"/>
    <path d="M 136.45834350585938 164.83351135253906 C 131.2457275390625 166.4552459716797 147.32566833496094 161.60910034179688 149.43783569335938 144.95108032226562" stroke-width="3.0" fill="none" stroke="rgb(0, 0, 0)" stroke-opacity="1.0" stroke-linecap="round" stroke-linejoin="round"/>
    <path d="M 194.8050994873047 94.89010620117188 C 164.7108917236328 66.23294067382812 176.07321166992188 68.5536117553711 189.03616333007812 98.62220764160156" stroke-width="3.0" fill="none" stroke="rgb(0, 0, 0)" stroke-opacity="1.0" stroke-linecap="round" stroke-linejoin="round"/>
    <path d="M 152.5150146484375 77.46446228027344 C 120.55643463134766 56.501487731933594 211.98382568359375 89.71459197998047 174.20016479492188 66.56402587890625" stroke-width="3.0" fill="none" stroke="rgb(0, 0, 0)" stroke-opacity="1.0" stroke-linecap="round" stroke-linejoin="round"/>
    <path d="M 113.42411041259766 80.68943786621094 C 87.90843200683594 72.19738006591797 132.59580993652344 74.599853515625 108.6712646484375 79.57518768310547" stroke-width="3.0" fill="none" stroke="rgb(0, 0, 0)" stroke-opacity="1.0" stroke-linecap="round" stroke-linejoin="round"/>
    <path d="M 167.7064971923828 132.71804809570312 C 153.52230834960938 159.8014678955078 96.74732208251953 146.32992553710938 88.05884552001953 145.28506469726562" stroke-width="3.0" fill="none" stroke="rgb(0, 0, 0)" stroke-opacity="1.0" stroke-linecap="round" stroke-linejoin="round"/>
    <path d="M 122.81648254394531 90.3331527709961 C 146.01797485351562 98.72425842285156 129.33168029785156 70.89911651611328 129.6913604736328 107.30729675292969" stroke-width="3.0" fill="none" stroke="rgb(0, 0, 0)" stroke-opacity="1.0" stroke-linecap="round" stroke-linejoin="round"/>
    <path d="M 186.76258850097656 110.86689758300781 C 167.4122772216797 90.6598892211914 171.04808044433594 97.93900299072266 140.2662811279297 83.52811431884766" stroke-width="3.0" fill="none" stroke="rgb(0, 0, 0)" stroke-opacity="1.0" stroke-linecap="round" stroke-linejoin="round"/>
    <path d="M 91.02998352050781 22.971357345581055 C 129.69528198242188 28.54228401184082 90.55030059814453 33.127132415771484 149.55206298828125 29.72752571105957" stroke-width="3.0" fill="none" stroke="rgb(0, 0, 0)" stroke-opacity="1.0" stroke-linecap="round" stroke-linejoin="round"/>
    <path d="M 56.92123031616211 110.72603607177734 C 67.88516998291016 97.94015502929688 51.278404235839844 119.464111328125 72.88275146484375 137.05007934570312" stroke-width="3.0" fill="none" stroke="rgb(0, 0, 0)" stroke-opacity="1.0" stroke-linecap="round" stroke-linejoin="round"/>
    <path d="M 140.0367431640625 105.06784057617188 C 123.49876403808594 88.7676010131836 125.97257232666016 121.37012481689453 114.99519348144531 88.24849700927734" stroke-width="3.0" fill="none" stroke="rgb(0, 0, 0)" stroke-opacity="1.0" stroke-linecap="round" stroke-linejoin="round"/>
    <path d="M 36.32056427001953 145.06211853027344 C 21.739852905273438 121.96236419677734 37.026275634765625 77.99015045166016 62.10861587524414 61.84077453613281" stroke-width="3.0" fill="none" stroke="rgb(0, 0, 0)" stroke-opacity="1.0" stroke-linecap="round" stroke-linejoin="round"/>
    <path d="M 91.12447357177734 194.85662841796875 C 76.55284118652344 198.46763610839844 70.26835632324219 197.07644653320312 101.11075592041016 198.20169067382812" stroke-width="3.0" fill="none" stroke="rgb(0, 0, 0)" stroke-opacity="1.0" stroke-linecap="round" stroke-linejoin="round"/>
    <path d="M 171.45909118652344 130.54624938964844 C 196.1924591064453 110.05791473388672 192.2967529296875 87.588134765625 152.1038360595703 88.65850067138672" stroke-width="3.0" fill="none" stroke="rgb(0, 0, 0)" stroke-opacity="1.0" stroke-linecap="round" stroke-linejoin="round"/>
    <path d="M 155.36822509765625 69.66521453857422 C 128.9593963623047 78.60659790039062 165.2393798828125 82.69205474853516 151.29800415039062 69.36073303222656" stroke-width="3.0" fill="none" stroke="rgb(0, 0, 0)" stroke-opacity="1.0" stroke-linecap="round" stroke-linejoin="round"/>
    <path d="M 139.1313018798828 80.30302429199219 C 144.04835510253906 40.997989654541016 201.99964904785156 111.59312438964844 177.50889587402344 51.08504104614258" stroke-width="3.0" fill="none" stroke="rgb(0, 0, 0)" stroke-opacity="1.0" stroke-linecap="round" stroke-linejoin="round"/>
    <path d="M 155.21273803710938 97.42610931396484 C 172.59246826171875 106.39051818847656 177.49862670898438 105.45469665527344 185.34046936035156 122.6600112915039" stroke-width="3.0" fill="none" stroke="rgb(0, 0, 0)" stroke-opacity="1.0" stroke-linecap="round" stroke-linejoin="round"/>
    <path d="M 176.65133666992188 16.625215530395508 C 173.0415802001953 45.585426330566406 171.30697631835938 27.03782844543457 159.82574462890625 41.715023040771484" stroke-width="3.0" fill="none" stroke="rgb(0, 0, 0)" stroke-opacity="1.0" stroke-linecap="round" stroke-linejoin="round"/>
    <path d="M 118.74497985839844 105.97307586669922 C 148.19415283203125 98.31932830810547 126.92691040039062 115.84710693359375 123.75873565673828 103.97234344482422" stroke-width="3.0" fill="none" stroke="rgb(0, 0, 0)" stroke-opacity="1.0" stroke-linecap="round" stroke-linejoin="round"/>
    <path d="M 60.04346466064453 106.6498794555664 C 59.370819091796875 105.23088073730469 54.795143127441406 116.86853790283203 60.86822509765625 119.96804809570312" stroke-width="3.0" fill="none" stroke="rgb(0, 0, 0)" stroke-opacity="1.0" stroke-linecap="round" stroke-linejoin="round"/>
    <path d="M 120.55747985839844 74.3109130859375 C 125.24474334716797 42.51362228393555 117.10395050048828 57.611228942871094 120.66407012939453 35.78474426269531" stroke-width="3.0" fill="none" stroke="rgb(0, 0, 0)" stroke-opacity="1.0" stroke-linecap="round" stroke-linejoin="round"/>
    <path d="M 144.34677124023438 31.914505004882812 C 143.7946319580078 39.0631217956543 160.44009399414062 9.545251846313477 178.82469177246094 8.315925598144531" stroke-width="3.0" fill="none" stroke="rgb(0, 0, 0)" stroke-opacity="1.0" stroke-linecap="round" stroke-linejoin="round"/>
  </g>
</svg>
