<?xml version="1.0" ?>
<svg xmlns="http://www.w3.org/2000/svg" version="1.1" width="224" height="224">
  <defs/>
  <g>
    <path d="M 66.58226776123047 71.92698669433594 C 68.47249603271484 73.13410186767578 73.10917663574219 76.49128723144531 61.46540451049805 69.06977081298828" stroke-width="3.0" fill="none" stroke="rgb(0, 0, 0)" stroke-opacity="1.0" stroke-linecap="round" stroke-linejoin="round"/>
    <path d="M 183.50967407226562 121.32391357421875 C 178.7342529296875 113.22761535644531 200.72906494140625 91.47734832763672 175.66746520996094 128.599365234375" stroke-width="3.0" fill="none" stroke="rgb(0, 0, 0)" stroke-opacity="1.0" stroke-linecap="round" stroke-linejoin="round"/>
    <path d="M 57.912628173828125 120.83486938476562 C 58.429168701171875 114.34651184082031 55.372989654541016 122.964111328125 68.28839111328125 126.60391998291016" stroke-width="3.0" fill="none" stroke="rgb(0, 0, 0)" stroke-opacity="1.0" stroke-linecap="round" stroke-linejoin="round"/>
    <path d="M 184.73858642578125 91.13982391357422 C 144.7293701171875 84.61603546142578 176.72006225585938 73.48638153076172 191.46871948242188 107.72587585449219" stroke-width="3.0" fill="none" stroke="rgb(0, 0, 0)" stroke-opacity="1.0" stroke-linecap="round" stroke-linejoin="round"/>
    <path d="M 181.0523223876953 63.7555046081543 C 174.725341796875 113.95655822753906 180.80755615234375 102.40497589111328 184.8761749267578 71.48858642578125" stroke-width="3.0" fill="none" stroke="rgb(0, 0, 0)" stroke-opacity="1.0" stroke-linecap="round" stroke-linejoin="round"/>
    <path d="M 125.86286163330078 104.46700286865234 C 142.3685760498047 116.95330810546875 103.03655242919922 95.28944396972656 135.12350463867188 103.11323547363281" stroke-width="3.0" fill="none" stroke="rgb(0, 0, 0)" stroke-opacity="1.0" stroke-linecap="round" stroke-linejoin="round"/>
    <path d="M 171.88485717773438 88.04114532470703 C 192.3045654296875 91.50889587402344 180.94029235839844 71.473876953125 160.68125915527344 84.77679443359375" stroke-width="3.0" fill="none" stroke="rgb(0, 0, 0)" stroke-opacity="1.0" stroke-linecap="round" stroke-linejoin="round"/>
    <path d="M 61.44322967529297 187.94210815429688 C 36.23555374145508 158.02796936035156 49.587860107421875 166.14605712890625 50.653629302978516 174.35076904296875" stroke-width="3.0" fill="none" stroke="rgb(0, 0, 0)" stroke-opacity="1.0" stroke-linecap="round" stroke-linejoin="round"/>
    <path d="M 54.932796478271484 180.29867553710938 C 87.97566986083984 211.3313446044922 117.89547729492188 196.79933166503906 132.92185974121094 180.00926208496094" stroke-width="3.0" fill="none" stroke="rgb(0, 0, 0)" stroke-opacity="1.0" stroke-linecap="round" stroke-linejoin="round"/>
    <path d="M 87.3629150390625 28.022188186645508 C 96.15242767333984 76.63919830322266 86.07223510742188 6.6337714195251465 86.04022216796875 51.82661819458008" stroke-width="3.0" fill="none" stroke="rgb(0, 0, 0)" stroke-opacity="1.0" stroke-linecap="round" stroke-linejoin="round"/>
    <path d="M 45.54759979248047 93.20470428466797 C 65.15660858154297 141.01821899414062 90.88526916503906 158.2079315185547 83.27941131591797 148.7637176513672" stroke-width="3.0" fill="none" stroke="rgb(0, 0, 0)" stroke-opacity="1.0" stroke-linecap="round" stroke-linejoin="round"/>
    <path d="M 148.8758087158203 73.37849426269531 C 206.51719665527344 68.64222717285156 187.931396484375 85.7857894897461 146.36122131347656 85.10342407226562" stroke-width="3.0" fill="none" stroke="rgb(0, 0, 0)" stroke-opacity="1.0" stroke-linecap="round" stroke-linejoin="round"/>
    <path d="M 154.0240478515625 94.13743591308594 C 188.40533447265625 104.74576568603516 174.6339111328125 105.28910064697266 193.54714965820312 114.04994201660156" stroke-width="3.0" fill="none" stroke="rgb(0, 0, 0)" stroke-opacity="1.0" stroke-linecap="round" stroke-linejoin="round"/>
    <path d="M 119.33602905273438 152.33572387695312 C 143.91464233398438 151.4665069580078 124.76687622070312 160.6260223388672 104.66696166992188 150.24282836914062" stroke-width="3.0" fill="none" stroke="rgb(0, 0, 0)" stroke-opacity="1.0" stroke-linecap="round" stroke-linejoin="round"/>
    <path d="M 181.59259033203125 9.053875923156738 C 187.06893920898438 26.405651092529297 172.65423583984375 66.01886749267578 178.80287170410156 52.741397857666016" stroke-width="3.0" fill="none" stroke="rgb(0, 0, 0)" stroke-opacity="1.0" stroke-linecap="round" stroke-linejoin="round"/>
    <path d="M 133.67637634277344 29.173830032348633 C 125.09591674804688 50.55671310424805 134.2755889892578 43.00166320800781 125.22606658935547 68.3458023071289" stroke-width="3.0" fill="none" stroke="rgb(0, 0, 0)" stroke-opacity="1.0" stroke-linecap="round" stroke-linejoin="round"/>
    <path d="M 89.92831420898438 45.2112922668457 C 75.32354736328125 -4.903017520904541 88.87776184082031 -3.4551029205322266 115.20164489746094 36.65467071533203" stroke-width="3.0" fill="none" stroke="rgb(0, 0, 0)" stroke-opacity="1.0" stroke-linecap="round" stroke-linejoin="round"/>
    <path d="M 49.006813049316406 168.75973510742188 C 41.57938003540039 152.05262756347656 37.186580657958984 144.6165008544922 48.636924743652344 168.10606384277344" stroke-width="3.0" fill="none" stroke="rgb(0, 0, 0)" stroke-opacity="1.0" stroke-linecap="round" stroke-linejoin="round"/>
    <path d="M 35.97797393798828 97.57207489013672 C 19.603742599487305 125.70394897460938 40.883907318115234 147.50045776367188 43.048152923583984 160.01046752929688" stroke-width="3.0" fill="none" stroke="rgb(0, 0, 0)" stroke-opacity="1.0" stroke-linecap="round" stroke-linejoin="round"/>
    <path d="M 86.30916595458984 152.71446228027344 C 108.30488586425781 160.80531311035156 104.28492736816406 155.74740600585938 96.87541961669922 150.5973663330078" stroke-width="3.0" fill="none" stroke="rgb(0, 0, 0)" stroke-opacity="1.0" stroke-linecap="round" stroke-linejoin="round"/>
    <path d="M 86.7368392944336 197.92666625976562 C 68.16107940673828 201.97467041015625 51.288185119628906 176.4487762451172 48.86309051513672 170.2757568359375" stroke-width="3.0" fill="none" stroke="rgb(0, 0, 0)" stroke-opacity="1.0" stroke-linecap="round" stroke-linejoin="round"/>
    <path d="M 48.6350212097168 171.6984405517578 C 64.33209991455078 194.1995086669922 44.81023406982422 169.53350830078125 39.14982223510742 148.48455810546875" stroke-width="3.0" fill="none" stroke="rgb(0, 0, 0)" stroke-opacity="1.0" stroke-linecap="round" stroke-linejoin="round"/>
    <path d="M 78.57843017578125 53.920982360839844 C 63.384681701660156 60.96033477783203 43.79840087890625 70.6445083618164 33.65834045410156 107.3591537475586" stroke-width="3.0" fill="none" stroke="rgb(0, 0, 0)" stroke-opacity="1.0" stroke-linecap="round" stroke-linejoin="round"/>
    <path d="M 153.66993713378906 139.53463745117188 C 122.31392669677734 161.55613708496094 117.1546859741211 159.47438049316406 142.90013122558594 150.47251892089844" stroke-width="3.0" fill="none" stroke="rgb(0, 0, 0)" stroke-opacity="1.0" stroke-linecap="round" stroke-linejoin="round"/>
    <path d="M 144.17459106445312 29.429391860961914 C 147.77505493164062 41.0638542175293 137.56297302246094 32.11271286010742 135.2763214111328 82.0377197265625" stroke-width="3.0" fill="none" stroke="rgb(0, 0, 0)" stroke-opacity="1.0" stroke-linecap="round" stroke-linejoin="round"/>
    <path d="M 145.54345703125 93.2962875366211 C 130.8621826171875 107.1251220703125 134.81304931640625 112.93854522705078 119.49790954589844 102.46424865722656" stroke-width="3.0" fill="none" stroke="rgb(0, 0, 0)" stroke-opacity="1.0" stroke-linecap="round" stroke-linejoin="round"/>
    <path d="M 135.76380920410156 75.43026733398438 C 144.3639373779297 56.225101470947266 129.92706298828125 61.755950927734375 135.2058868408203 77.9576187133789" stroke-width="3.0" fill="none" stroke="rgb(0, 0, 0)" stroke-opacity="1.0" stroke-linecap="round" stroke-linejoin="round"/>
    <path d="M 135.49749755859375 176.55909729003906 C 129.78961181640625 182.58067321777344 135.41915893554688 179.09957885742188 146.97894287109375 145.6298370361328" stroke-width="3.0" fill="none" stroke="rgb(0, 0, 0)" stroke-opacity="1.0" stroke-linecap="round" stroke-linejoin="round"/>
    <path d="M 195.4498291015625 95.61686706542969 C 169.65286254882812 72.9271469116211 167.2433624267578 83.07817077636719 186.2117156982422 88.15042877197266" stroke-width="3.0" fill="none" stroke="rgb(0, 0, 0)" stroke-opacity="1.0" stroke-linecap="round" stroke-linejoin="round"/>
    <path d="M 151.0730438232422 78.74198150634766 C 131.99481201171875 57.50468063354492 202.2206268310547 87.42257690429688 183.69110107421875 68.82077026367188" stroke-width="3.0" fill="none" stroke="rgb(0, 0, 0)" stroke-opacity="1.0" stroke-linecap="round" stroke-linejoin="round"/>
    <path d="M 109.47289276123047 75.43586730957031 C 76.69859313964844 68.90647888183594 149.27658081054688 70.69281768798828 105.67001342773438 78.0866470336914" stroke-width="3.0" fill="none" stroke="rgb(0, 0, 0)" stroke-opacity="1.0" stroke-linecap="round" stroke-linejoin="round"/>
    <path d="M 162.31463623046875 130.05747985839844 C 136.50311279296875 163.92828369140625 118.90294647216797 147.20652770996094 101.9378662109375 156.2679901123047" stroke-width="3.0" fill="none" stroke="rgb(0, 0, 0)" stroke-opacity="1.0" stroke-linecap="round" stroke-linejoin="round"/>
    <path d="M 120.96336364746094 89.49872589111328 C 140.2925262451172 101.6418685913086 125.22357177734375 68.73760986328125 127.82713317871094 107.15190124511719" stroke-width="3.0" fill="none" stroke="rgb(0, 0, 0)" stroke-opacity="1.0" stroke-linecap="round" stroke-linejoin="round"/>
    <path d="M 188.45144653320312 112.03558349609375 C 171.58897399902344 88.4409408569336 181.6693878173828 88.60163116455078 147.45034790039062 84.76334381103516" stroke-width="3.0" fill="none" stroke="rgb(0, 0, 0)" stroke-opacity="1.0" stroke-linecap="round" stroke-linejoin="round"/>
    <path d="M 84.68159484863281 8.14487075805664 C 104.27682495117188 11.846845626831055 115.6965560913086 35.1810188293457 120.5560302734375 28.87672996520996" stroke-width="3.0" fill="none" stroke="rgb(0, 0, 0)" stroke-opacity="1.0" stroke-linecap="round" stroke-linejoin="round"/>
    <path d="M 60.44959259033203 124.00506591796875 C 58.852394104003906 119.53656005859375 61.172874450683594 131.87977600097656 61.84929275512695 125.8810043334961" stroke-width="3.0" fill="none" stroke="rgb(0, 0, 0)" stroke-opacity="1.0" stroke-linecap="round" stroke-linejoin="round"/>
    <path d="M 137.7905731201172 104.08594512939453 C 125.00242614746094 88.85192108154297 117.95140075683594 118.80463409423828 107.12715911865234 87.1976318359375" stroke-width="3.0" fill="none" stroke="rgb(0, 0, 0)" stroke-opacity="1.0" stroke-linecap="round" stroke-linejoin="round"/>
    <path d="M 31.91398048400879 133.93565368652344 C 26.50298309326172 103.00092315673828 38.38166427612305 100.11400604248047 48.76546096801758 78.75226593017578" stroke-width="3.0" fill="none" stroke="rgb(0, 0, 0)" stroke-opacity="1.0" stroke-linecap="round" stroke-linejoin="round"/>
    <path d="M 80.69938659667969 197.03077697753906 C 72.23734283447266 190.5216064453125 65.20136260986328 196.89785766601562 101.4062728881836 196.8083953857422" stroke-width="3.0" fill="none" stroke="rgb(0, 0, 0)" stroke-opacity="1.0" stroke-linecap="round" stroke-linejoin="round"/>
    <path d="M 161.8159637451172 131.88551330566406 C 200.1550750732422 116.41929626464844 179.34776306152344 94.86248779296875 158.7919464111328 88.07535552978516" stroke-width="3.0" fill="none" stroke="rgb(0, 0, 0)" stroke-opacity="1.0" stroke-linecap="round" stroke-linejoin="round"/>
    <path d="M 153.02798461914062 69.32002258300781 C 130.4380645751953 88.03898620605469 175.0016326904297 75.28621673583984 148.70736694335938 74.9549331665039" stroke-width="3.0" fill="none" stroke="rgb(0, 0, 0)" stroke-opacity="1.0" stroke-linecap="round" stroke-linejoin="round"/>
    <path d="M 140.42791748046875 75.02941131591797 C 146.7938690185547 42.13040542602539 197.4366912841797 113.97235870361328 180.14134216308594 48.413387298583984" stroke-width="3.0" fill="none" stroke="rgb(0, 0, 0)" stroke-opacity="1.0" stroke-linecap="round" stroke-linejoin="round"/>
    <path d="M 159.2215118408203 96.00218963623047 C 169.94921875 105.15919494628906 175.0851593017578 103.94782257080078 182.42308044433594 119.77339172363281" stroke-width="3.0" fill="none" stroke="rgb(0, 0, 0)" stroke-opacity="1.0" stroke-linecap="round" stroke-linejoin="round"/>
    <path d="M 177.72682189941406 16.539470672607422 C 167.55319213867188 47.925662994384766 174.4292755126953 24.438051223754883 162.63455200195312 38.103233337402344" stroke-width="3.0" fill="none" stroke="rgb(0, 0, 0)" stroke-opacity="1.0" stroke-linecap="round" stroke-linejoin="round"/>
    <path d="M 120.5108413696289 104.33718872070312 C 146.58917236328125 103.59435272216797 138.68946838378906 112.4478759765625 121.53262329101562 104.12081909179688" stroke-width="3.0" fill="none" stroke="rgb(0, 0, 0)" stroke-opacity="1.0" stroke-linecap="round" stroke-linejoin="round"/>
    <path d="M 73.91136932373047 136.26771545410156 C 50.60553741455078 125.05452728271484 61.954139709472656 114.41185760498047 57.50431823730469 119.51307678222656" stroke-width="3.0" fill="none" stroke="rgb(0, 0, 0)" stroke-opacity="1.0" stroke-linecap="round" stroke-linejoin="round"/>
    <path d="M 124.78902435302734 71.75764465332031 C 129.38259887695312 37.42367935180664 120.36158752441406 52.46658706665039 125.70001220703125 30.271879196166992" stroke-width="3.0" fill="none" stroke="rgb(0, 0, 0)" stroke-opacity="1.0" stroke-linecap="round" stroke-linejoin="round"/>
    <path d="M 155.7240447998047 25.522907257080078 C 148.39602661132812 36.53656005859375 163.17300415039062 8.207481384277344 179.23825073242188 7.747615814208984" stroke-width="3.0" fill="none" stroke="rgb(0, 0, 0)" stroke-opacity="1.0" stroke-linecap="round" stroke-linejoin="round"/>
  </g>
</svg>
