<?xml version="1.0" ?>
<svg xmlns="http://www.w3.org/2000/svg" version="1.1" width="224" height="224">
  <defs/>
  <g>
    <path d="M 52.83295440673828 118.15342712402344 C 55.66887664794922 118.49309539794922 43.647682189941406 108.11640930175781 40.25483703613281 95.71505737304688" stroke-width="3.0" fill="none" stroke="rgb(0, 0, 0)" stroke-opacity="1.0" stroke-linecap="round" stroke-linejoin="round"/>
    <path d="M 179.8020477294922 127.35187530517578 C 180.75865173339844 109.2475814819336 184.55743408203125 116.08062744140625 187.58828735351562 122.26051330566406" stroke-width="3.0" fill="none" stroke="rgb(0, 0, 0)" stroke-opacity="1.0" stroke-linecap="round" stroke-linejoin="round"/>
    <path d="M 49.95147705078125 113.10933685302734 C 50.69725036621094 114.0553970336914 47.49394226074219 107.42809295654297 52.15713882446289 115.33289337158203" stroke-width="3.0" fill="none" stroke="rgb(0, 0, 0)" stroke-opacity="1.0" stroke-linecap="round" stroke-linejoin="round"/>
    <path d="M 184.3519744873047 97.00054168701172 C 153.18206787109375 93.45624542236328 173.01443481445312 77.51288604736328 196.2865753173828 113.15570068359375" stroke-width="3.0" fill="none" stroke="rgb(0, 0, 0)" stroke-opacity="1.0" stroke-linecap="round" stroke-linejoin="round"/>
    <path d="M 186.190185546875 74.29861450195312 C 185.19772338867188 93.97183227539062 182.50274658203125 84.3014907836914 186.50625610351562 65.81326293945312" stroke-width="3.0" fill="none" stroke="rgb(0, 0, 0)" stroke-opacity="1.0" stroke-linecap="round" stroke-linejoin="round"/>
    <path d="M 128.8532257080078 102.74459838867188 C 138.7263946533203 119.01403045654297 110.55552673339844 99.70716094970703 135.42796325683594 110.2733154296875" stroke-width="3.0" fill="none" stroke="rgb(0, 0, 0)" stroke-opacity="1.0" stroke-linecap="round" stroke-linejoin="round"/>
    <path d="M 165.68934631347656 96.23297882080078 C 205.19029235839844 71.16085815429688 187.12181091308594 72.29319763183594 154.99398803710938 85.51924133300781" stroke-width="3.0" fill="none" stroke="rgb(0, 0, 0)" stroke-opacity="1.0" stroke-linecap="round" stroke-linejoin="round"/>
    <path d="M 51.960140228271484 180.69036865234375 C 35.45721435546875 153.54275512695312 46.59043502807617 158.13949584960938 40.10615158081055 151.83944702148438" stroke-width="3.0" fill="none" stroke="rgb(0, 0, 0)" stroke-opacity="1.0" stroke-linecap="round" stroke-linejoin="round"/>
    <path d="M 68.45040893554688 191.44874572753906 C 87.50850677490234 201.49667358398438 105.9828872680664 193.3849334716797 105.2723617553711 194.994873046875" stroke-width="3.0" fill="none" stroke="rgb(0, 0, 0)" stroke-opacity="1.0" stroke-linecap="round" stroke-linejoin="round"/>
    <path d="M 86.77837371826172 22.478313446044922 C 91.33890533447266 69.60475158691406 85.72118377685547 22.925546646118164 90.99566650390625 60.90517807006836" stroke-width="3.0" fill="none" stroke="rgb(0, 0, 0)" stroke-opacity="1.0" stroke-linecap="round" stroke-linejoin="round"/>
    <path d="M 60.19941711425781 126.775146484375 C 68.18522644042969 137.62237548828125 87.65703582763672 141.38092041015625 86.10235595703125 145.33609008789062" stroke-width="3.0" fill="none" stroke="rgb(0, 0, 0)" stroke-opacity="1.0" stroke-linecap="round" stroke-linejoin="round"/>
    <path d="M 149.72756958007812 72.68819427490234 C 207.05873107910156 77.11809539794922 184.68850708007812 86.20112609863281 144.5353240966797 85.36385345458984" stroke-width="3.0" fill="none" stroke="rgb(0, 0, 0)" stroke-opacity="1.0" stroke-linecap="round" stroke-linejoin="round"/>
    <path d="M 148.7044219970703 101.87677764892578 C 176.61781311035156 101.12142944335938 173.7050323486328 101.81841278076172 187.9665985107422 106.48331451416016" stroke-width="3.0" fill="none" stroke="rgb(0, 0, 0)" stroke-opacity="1.0" stroke-linecap="round" stroke-linejoin="round"/>
    <path d="M 97.04359436035156 154.82974243164062 C 116.07971954345703 160.6879119873047 102.93081665039062 185.7891845703125 109.82549285888672 188.92178344726562" stroke-width="3.0" fill="none" stroke="rgb(0, 0, 0)" stroke-opacity="1.0" stroke-linecap="round" stroke-linejoin="round"/>
    <path d="M 172.6551971435547 9.935903549194336 C 190.75360107421875 -1.4595603942871094 177.57656860351562 50.009735107421875 186.63465881347656 61.12145233154297" stroke-width="3.0" fill="none" stroke="rgb(0, 0, 0)" stroke-opacity="1.0" stroke-linecap="round" stroke-linejoin="round"/>
    <path d="M 134.70506286621094 34.04017639160156 C 132.1793670654297 67.81409454345703 137.1446990966797 39.78154754638672 132.57057189941406 67.26215362548828" stroke-width="3.0" fill="none" stroke="rgb(0, 0, 0)" stroke-opacity="1.0" stroke-linecap="round" stroke-linejoin="round"/>
    <path d="M 93.68310546875 48.33363342285156 C 69.42034912109375 0.9437677264213562 78.05980682373047 10.683061599731445 98.75389099121094 43.68869400024414" stroke-width="3.0" fill="none" stroke="rgb(0, 0, 0)" stroke-opacity="1.0" stroke-linecap="round" stroke-linejoin="round"/>
    <path d="M 42.394344329833984 161.40304565429688 C 43.64833450317383 154.1113739013672 45.44845199584961 156.45135498046875 41.45628356933594 158.98976135253906" stroke-width="3.0" fill="none" stroke="rgb(0, 0, 0)" stroke-opacity="1.0" stroke-linecap="round" stroke-linejoin="round"/>
    <path d="M 32.51748275756836 105.1893539428711 C 22.255321502685547 124.41588592529297 37.112579345703125 141.2876739501953 38.922264099121094 151.71054077148438" stroke-width="3.0" fill="none" stroke="rgb(0, 0, 0)" stroke-opacity="1.0" stroke-linecap="round" stroke-linejoin="round"/>
    <path d="M 89.2930679321289 147.2445526123047 C 98.22926330566406 155.75648498535156 100.80006408691406 156.04425048828125 91.4332504272461 149.9495086669922" stroke-width="3.0" fill="none" stroke="rgb(0, 0, 0)" stroke-opacity="1.0" stroke-linecap="round" stroke-linejoin="round"/>
    <path d="M 75.93218231201172 195.04981994628906 C 47.85138702392578 177.55555725097656 64.70220184326172 184.91908264160156 45.9997673034668 171.40765380859375" stroke-width="3.0" fill="none" stroke="rgb(0, 0, 0)" stroke-opacity="1.0" stroke-linecap="round" stroke-linejoin="round"/>
    <path d="M 42.907466888427734 164.10906982421875 C 54.93231964111328 175.30789184570312 36.23194122314453 162.02423095703125 40.005592346191406 148.26611328125" stroke-width="3.0" fill="none" stroke="rgb(0, 0, 0)" stroke-opacity="1.0" stroke-linecap="round" stroke-linejoin="round"/>
    <path d="M 84.60413360595703 54.518131256103516 C 56.837947845458984 57.959564208984375 45.47136688232422 73.04540252685547 31.54400634765625 105.15196990966797" stroke-width="3.0" fill="none" stroke="rgb(0, 0, 0)" stroke-opacity="1.0" stroke-linecap="round" stroke-linejoin="round"/>
    <path d="M 148.67698669433594 153.42764282226562 C 141.9524383544922 161.5089111328125 127.54949188232422 145.02230834960938 139.17715454101562 162.1513671875" stroke-width="3.0" fill="none" stroke="rgb(0, 0, 0)" stroke-opacity="1.0" stroke-linecap="round" stroke-linejoin="round"/>
    <path d="M 141.55860900878906 32.1552848815918 C 152.7115936279297 59.437965393066406 137.43359375 57.78559494018555 137.80023193359375 77.92219543457031" stroke-width="3.0" fill="none" stroke="rgb(0, 0, 0)" stroke-opacity="1.0" stroke-linecap="round" stroke-linejoin="round"/>
    <path d="M 146.24298095703125 101.59494018554688 C 131.6439666748047 115.53201293945312 119.64323425292969 100.91887664794922 130.29444885253906 104.3863296508789" stroke-width="3.0" fill="none" stroke="rgb(0, 0, 0)" stroke-opacity="1.0" stroke-linecap="round" stroke-linejoin="round"/>
    <path d="M 139.3749237060547 75.19329833984375 C 150.37796020507812 54.96138000488281 150.0626983642578 55.987449645996094 151.15452575683594 54.14934158325195" stroke-width="3.0" fill="none" stroke="rgb(0, 0, 0)" stroke-opacity="1.0" stroke-linecap="round" stroke-linejoin="round"/>
    <path d="M 119.99422454833984 187.00831604003906 C 95.01211547851562 189.49195861816406 115.62477111816406 201.28782653808594 136.3111114501953 169.41053771972656" stroke-width="3.0" fill="none" stroke="rgb(0, 0, 0)" stroke-opacity="1.0" stroke-linecap="round" stroke-linejoin="round"/>
    <path d="M 193.47109985351562 93.67314910888672 C 160.20181274414062 70.59955596923828 144.3660125732422 99.82493591308594 185.54205322265625 86.36779022216797" stroke-width="3.0" fill="none" stroke="rgb(0, 0, 0)" stroke-opacity="1.0" stroke-linecap="round" stroke-linejoin="round"/>
    <path d="M 170.6514129638672 71.76825714111328 C 192.3306427001953 67.37836456298828 196.1156005859375 77.61422729492188 164.7264862060547 77.2277603149414" stroke-width="3.0" fill="none" stroke="rgb(0, 0, 0)" stroke-opacity="1.0" stroke-linecap="round" stroke-linejoin="round"/>
    <path d="M 109.22232055664062 80.0310287475586 C 88.0930404663086 73.46195220947266 141.35275268554688 76.75941467285156 106.47368621826172 81.74397277832031" stroke-width="3.0" fill="none" stroke="rgb(0, 0, 0)" stroke-opacity="1.0" stroke-linecap="round" stroke-linejoin="round"/>
    <path d="M 141.64952087402344 160.23533630371094 C 135.72555541992188 148.00341796875 123.49610900878906 153.83065795898438 104.45435333251953 140.6382598876953" stroke-width="3.0" fill="none" stroke="rgb(0, 0, 0)" stroke-opacity="1.0" stroke-linecap="round" stroke-linejoin="round"/>
    <path d="M 123.32921600341797 89.92352294921875 C 142.2811279296875 98.6366195678711 134.0161590576172 77.5584487915039 130.06997680664062 97.73582458496094" stroke-width="3.0" fill="none" stroke="rgb(0, 0, 0)" stroke-opacity="1.0" stroke-linecap="round" stroke-linejoin="round"/>
    <path d="M 188.33596801757812 99.17311096191406 C 178.29026794433594 83.46409606933594 188.30784606933594 98.93146514892578 139.55868530273438 82.12883758544922" stroke-width="3.0" fill="none" stroke="rgb(0, 0, 0)" stroke-opacity="1.0" stroke-linecap="round" stroke-linejoin="round"/>
    <path d="M 82.087890625 10.802766799926758 C 112.48335266113281 19.455652236938477 112.98100280761719 33.37925338745117 122.89351654052734 30.71277618408203" stroke-width="3.0" fill="none" stroke="rgb(0, 0, 0)" stroke-opacity="1.0" stroke-linecap="round" stroke-linejoin="round"/>
    <path d="M 52.16209030151367 115.48929595947266 C 50.39889144897461 108.77862548828125 54.855140686035156 124.88355255126953 52.9483642578125 116.05855560302734" stroke-width="3.0" fill="none" stroke="rgb(0, 0, 0)" stroke-opacity="1.0" stroke-linecap="round" stroke-linejoin="round"/>
    <path d="M 115.71253967285156 101.686767578125 C 96.71161651611328 87.70299530029297 119.99861145019531 103.61035919189453 106.26588439941406 93.61239624023438" stroke-width="3.0" fill="none" stroke="rgb(0, 0, 0)" stroke-opacity="1.0" stroke-linecap="round" stroke-linejoin="round"/>
    <path d="M 31.402070999145508 122.5278091430664 C 31.343555450439453 98.65870666503906 33.32844543457031 105.62844848632812 28.848268508911133 119.80892181396484" stroke-width="3.0" fill="none" stroke="rgb(0, 0, 0)" stroke-opacity="1.0" stroke-linecap="round" stroke-linejoin="round"/>
    <path d="M 93.2957763671875 197.9762420654297 C 74.30486297607422 196.05003356933594 71.35797119140625 195.3226318359375 94.61570739746094 196.91000366210938" stroke-width="3.0" fill="none" stroke="rgb(0, 0, 0)" stroke-opacity="1.0" stroke-linecap="round" stroke-linejoin="round"/>
    <path d="M 155.80783081054688 139.77662658691406 C 210.01022338867188 109.2866439819336 180.4502716064453 98.62449645996094 150.965576171875 91.76241302490234" stroke-width="3.0" fill="none" stroke="rgb(0, 0, 0)" stroke-opacity="1.0" stroke-linecap="round" stroke-linejoin="round"/>
    <path d="M 152.43247985839844 74.75946807861328 C 127.15670013427734 73.21382904052734 171.06410217285156 84.61224365234375 150.9404754638672 71.19943237304688" stroke-width="3.0" fill="none" stroke="rgb(0, 0, 0)" stroke-opacity="1.0" stroke-linecap="round" stroke-linejoin="round"/>
    <path d="M 146.03262329101562 73.9620361328125 C 145.1300048828125 53.75542068481445 187.80824279785156 100.86801147460938 184.48081970214844 61.581424713134766" stroke-width="3.0" fill="none" stroke="rgb(0, 0, 0)" stroke-opacity="1.0" stroke-linecap="round" stroke-linejoin="round"/>
    <path d="M 148.1338348388672 97.22232818603516 C 161.84129333496094 101.36011505126953 171.97357177734375 105.47679901123047 182.29672241210938 114.17096710205078" stroke-width="3.0" fill="none" stroke="rgb(0, 0, 0)" stroke-opacity="1.0" stroke-linecap="round" stroke-linejoin="round"/>
    <path d="M 178.65374755859375 16.303775787353516 C 168.3998565673828 39.783626556396484 180.83253479003906 27.413969039916992 163.7635498046875 38.144771575927734" stroke-width="3.0" fill="none" stroke="rgb(0, 0, 0)" stroke-opacity="1.0" stroke-linecap="round" stroke-linejoin="round"/>
    <path d="M 126.09376525878906 106.36198425292969 C 152.9398651123047 104.13511657714844 125.75637817382812 109.15809631347656 112.53274536132812 101.9959716796875" stroke-width="3.0" fill="none" stroke="rgb(0, 0, 0)" stroke-opacity="1.0" stroke-linecap="round" stroke-linejoin="round"/>
    <path d="M 50.06216812133789 114.55378723144531 C 52.01551818847656 116.18717193603516 45.93744659423828 108.99451446533203 59.63071060180664 126.24913787841797" stroke-width="3.0" fill="none" stroke="rgb(0, 0, 0)" stroke-opacity="1.0" stroke-linecap="round" stroke-linejoin="round"/>
    <path d="M 122.66952514648438 81.41493225097656 C 132.4130096435547 57.82744598388672 116.5809097290039 54.205989837646484 122.11107635498047 37.6903190612793" stroke-width="3.0" fill="none" stroke="rgb(0, 0, 0)" stroke-opacity="1.0" stroke-linecap="round" stroke-linejoin="round"/>
    <path d="M 145.68470764160156 32.235679626464844 C 148.51609802246094 39.187530517578125 150.9727783203125 17.38550567626953 175.31643676757812 7.709840774536133" stroke-width="3.0" fill="none" stroke="rgb(0, 0, 0)" stroke-opacity="1.0" stroke-linecap="round" stroke-linejoin="round"/>
  </g>
</svg>
