<?xml version="1.0" ?>
<svg xmlns="http://www.w3.org/2000/svg" version="1.1" width="224" height="224">
  <defs/>
  <g>
    <path d="M 58.277313232421875 97.37850952148438 C 66.48014831542969 92.52910614013672 56.56563949584961 88.15401458740234 71.29349517822266 60.813995361328125" stroke-width="3.0" fill="none" stroke="rgb(0, 0, 0)" stroke-opacity="1.0" stroke-linecap="round" stroke-linejoin="round"/>
    <path d="M 190.55641174316406 110.61260986328125 C 186.5128936767578 107.41142272949219 192.67263793945312 96.2296371459961 182.35096740722656 127.08116149902344" stroke-width="3.0" fill="none" stroke="rgb(0, 0, 0)" stroke-opacity="1.0" stroke-linecap="round" stroke-linejoin="round"/>
    <path d="M 62.523101806640625 122.75091552734375 C 56.47097396850586 84.47578430175781 58.86115264892578 124.91891479492188 63.952369689941406 123.10478973388672" stroke-width="3.0" fill="none" stroke="rgb(0, 0, 0)" stroke-opacity="1.0" stroke-linecap="round" stroke-linejoin="round"/>
    <path d="M 185.178466796875 94.93970489501953 C 155.8536834716797 68.5711898803711 180.6646728515625 77.02041625976562 187.92013549804688 102.55178833007812" stroke-width="3.0" fill="none" stroke="rgb(0, 0, 0)" stroke-opacity="1.0" stroke-linecap="round" stroke-linejoin="round"/>
    <path d="M 176.27041625976562 40.76813888549805 C 191.89010620117188 97.3415298461914 176.1181640625 108.9229507446289 181.46385192871094 61.51155471801758" stroke-width="3.0" fill="none" stroke="rgb(0, 0, 0)" stroke-opacity="1.0" stroke-linecap="round" stroke-linejoin="round"/>
    <path d="M 129.81967163085938 101.14166259765625 C 150.4206085205078 117.32129669189453 98.0232162475586 100.45175170898438 140.1731414794922 105.57167053222656" stroke-width="3.0" fill="none" stroke="rgb(0, 0, 0)" stroke-opacity="1.0" stroke-linecap="round" stroke-linejoin="round"/>
    <path d="M 180.42279052734375 89.57198333740234 C 162.3444061279297 91.06188201904297 184.7666473388672 74.50267791748047 156.9036865234375 86.32505798339844" stroke-width="3.0" fill="none" stroke="rgb(0, 0, 0)" stroke-opacity="1.0" stroke-linecap="round" stroke-linejoin="round"/>
    <path d="M 65.76459503173828 190.05023193359375 C 41.9614372253418 167.89910888671875 46.568180084228516 169.05772399902344 62.36335754394531 190.312255859375" stroke-width="3.0" fill="none" stroke="rgb(0, 0, 0)" stroke-opacity="1.0" stroke-linecap="round" stroke-linejoin="round"/>
    <path d="M 56.746803283691406 183.32736206054688 C 89.02899932861328 210.7571563720703 130.24102783203125 196.26272583007812 134.26817321777344 161.7974853515625" stroke-width="3.0" fill="none" stroke="rgb(0, 0, 0)" stroke-opacity="1.0" stroke-linecap="round" stroke-linejoin="round"/>
    <path d="M 83.07410430908203 12.51659870147705 C 89.15875244140625 80.73085021972656 88.01703643798828 14.631224632263184 84.29129791259766 55.096885681152344" stroke-width="3.0" fill="none" stroke="rgb(0, 0, 0)" stroke-opacity="1.0" stroke-linecap="round" stroke-linejoin="round"/>
    <path d="M 59.824363708496094 93.39834594726562 C 49.826229095458984 127.97787475585938 76.41887664794922 127.94751739501953 61.20030212402344 118.91685485839844" stroke-width="3.0" fill="none" stroke="rgb(0, 0, 0)" stroke-opacity="1.0" stroke-linecap="round" stroke-linejoin="round"/>
    <path d="M 147.55438232421875 73.22064971923828 C 190.4723358154297 71.75099182128906 197.4188690185547 90.15443420410156 137.47811889648438 86.30804443359375" stroke-width="3.0" fill="none" stroke="rgb(0, 0, 0)" stroke-opacity="1.0" stroke-linecap="round" stroke-linejoin="round"/>
    <path d="M 149.98892211914062 95.81481170654297 C 181.70098876953125 100.71256256103516 176.1422882080078 99.54116821289062 194.73184204101562 115.03156280517578" stroke-width="3.0" fill="none" stroke="rgb(0, 0, 0)" stroke-opacity="1.0" stroke-linecap="round" stroke-linejoin="round"/>
    <path d="M 130.52000427246094 145.13438415527344 C 165.74110412597656 160.4013671875 99.44506072998047 146.13296508789062 95.89398193359375 152.1244659423828" stroke-width="3.0" fill="none" stroke="rgb(0, 0, 0)" stroke-opacity="1.0" stroke-linecap="round" stroke-linejoin="round"/>
    <path d="M 178.9732208251953 10.940583229064941 C 189.59335327148438 20.70708656311035 165.8164825439453 100.56716918945312 182.29319763183594 59.004432678222656" stroke-width="3.0" fill="none" stroke="rgb(0, 0, 0)" stroke-opacity="1.0" stroke-linecap="round" stroke-linejoin="round"/>
    <path d="M 145.1734161376953 30.415159225463867 C 110.121337890625 24.56287956237793 135.11843872070312 30.570798873901367 128.25315856933594 61.61786651611328" stroke-width="3.0" fill="none" stroke="rgb(0, 0, 0)" stroke-opacity="1.0" stroke-linecap="round" stroke-linejoin="round"/>
    <path d="M 102.0470199584961 46.679405212402344 C 63.65135192871094 -6.660453796386719 84.99122619628906 1.2455757856369019 120.43607330322266 34.260032653808594" stroke-width="3.0" fill="none" stroke="rgb(0, 0, 0)" stroke-opacity="1.0" stroke-linecap="round" stroke-linejoin="round"/>
    <path d="M 44.798789978027344 163.34585571289062 C 44.683101654052734 159.03709411621094 41.25362014770508 153.7645721435547 48.783748626708984 176.11990356445312" stroke-width="3.0" fill="none" stroke="rgb(0, 0, 0)" stroke-opacity="1.0" stroke-linecap="round" stroke-linejoin="round"/>
    <path d="M 58.0932502746582 68.17571258544922 C 21.28652000427246 125.1014404296875 41.29741668701172 137.10858154296875 43.06333541870117 161.62869262695312" stroke-width="3.0" fill="none" stroke="rgb(0, 0, 0)" stroke-opacity="1.0" stroke-linecap="round" stroke-linejoin="round"/>
    <path d="M 72.90412139892578 134.76043701171875 C 136.39938354492188 161.89588928222656 103.9836196899414 148.6040496826172 84.63536071777344 144.47915649414062" stroke-width="3.0" fill="none" stroke="rgb(0, 0, 0)" stroke-opacity="1.0" stroke-linecap="round" stroke-linejoin="round"/>
    <path d="M 89.685546875 197.7110595703125 C 66.29475402832031 201.2347412109375 49.142086029052734 176.00289916992188 42.62294006347656 154.2531280517578" stroke-width="3.0" fill="none" stroke="rgb(0, 0, 0)" stroke-opacity="1.0" stroke-linecap="round" stroke-linejoin="round"/>
    <path d="M 49.066184997558594 175.35826110839844 C 68.82936096191406 198.31964111328125 47.174468994140625 176.12857055664062 36.804542541503906 143.59681701660156" stroke-width="3.0" fill="none" stroke="rgb(0, 0, 0)" stroke-opacity="1.0" stroke-linecap="round" stroke-linejoin="round"/>
    <path d="M 79.5835189819336 54.81999588012695 C 58.39177322387695 61.723262786865234 64.69719696044922 72.06053161621094 38.4949836730957 117.45284271240234" stroke-width="3.0" fill="none" stroke="rgb(0, 0, 0)" stroke-opacity="1.0" stroke-linecap="round" stroke-linejoin="round"/>
    <path d="M 158.39285278320312 142.91493225097656 C 102.52980041503906 154.7388458251953 68.93343353271484 148.5885009765625 142.38726806640625 151.9801025390625" stroke-width="3.0" fill="none" stroke="rgb(0, 0, 0)" stroke-opacity="1.0" stroke-linecap="round" stroke-linejoin="round"/>
    <path d="M 149.8430633544922 28.262548446655273 C 145.24729919433594 34.03948211669922 136.55731201171875 12.813883781433105 136.00006103515625 74.26020812988281" stroke-width="3.0" fill="none" stroke="rgb(0, 0, 0)" stroke-opacity="1.0" stroke-linecap="round" stroke-linejoin="round"/>
    <path d="M 146.4470977783203 103.0387191772461 C 127.38220977783203 113.97242736816406 122.57159423828125 108.26372528076172 112.2895278930664 92.59773254394531" stroke-width="3.0" fill="none" stroke="rgb(0, 0, 0)" stroke-opacity="1.0" stroke-linecap="round" stroke-linejoin="round"/>
    <path d="M 139.26467895507812 70.0150375366211 C 143.64479064941406 56.89177322387695 131.52285766601562 70.24887084960938 139.2486114501953 71.05802917480469" stroke-width="3.0" fill="none" stroke="rgb(0, 0, 0)" stroke-opacity="1.0" stroke-linecap="round" stroke-linejoin="round"/>
    <path d="M 136.7254180908203 163.2685089111328 C 132.99522399902344 167.11734008789062 145.79322814941406 161.05596923828125 146.06065368652344 142.0508575439453" stroke-width="3.0" fill="none" stroke="rgb(0, 0, 0)" stroke-opacity="1.0" stroke-linecap="round" stroke-linejoin="round"/>
    <path d="M 195.76878356933594 94.02778625488281 C 162.4378204345703 66.95075988769531 172.04310607910156 70.29269409179688 191.39694213867188 98.1352310180664" stroke-width="3.0" fill="none" stroke="rgb(0, 0, 0)" stroke-opacity="1.0" stroke-linecap="round" stroke-linejoin="round"/>
    <path d="M 152.51841735839844 78.22722625732422 C 119.91619110107422 56.482269287109375 212.4674530029297 87.17758178710938 172.73269653320312 68.22106170654297" stroke-width="3.0" fill="none" stroke="rgb(0, 0, 0)" stroke-opacity="1.0" stroke-linecap="round" stroke-linejoin="round"/>
    <path d="M 114.28113555908203 83.293701171875 C 88.77567291259766 73.70514678955078 135.2589874267578 76.60172271728516 107.3211669921875 82.47826385498047" stroke-width="3.0" fill="none" stroke="rgb(0, 0, 0)" stroke-opacity="1.0" stroke-linecap="round" stroke-linejoin="round"/>
    <path d="M 168.0927734375 131.04217529296875 C 154.0987548828125 157.15170288085938 94.52384948730469 145.8712615966797 87.9341049194336 146.47482299804688" stroke-width="3.0" fill="none" stroke="rgb(0, 0, 0)" stroke-opacity="1.0" stroke-linecap="round" stroke-linejoin="round"/>
    <path d="M 120.62446594238281 88.69332122802734 C 142.75550842285156 99.87744140625 122.58920288085938 70.9586181640625 127.53168487548828 106.06668090820312" stroke-width="3.0" fill="none" stroke="rgb(0, 0, 0)" stroke-opacity="1.0" stroke-linecap="round" stroke-linejoin="round"/>
    <path d="M 188.34027099609375 109.7499008178711 C 168.08460998535156 88.21195220947266 169.75218200683594 98.89009857177734 141.28334045410156 83.17320251464844" stroke-width="3.0" fill="none" stroke="rgb(0, 0, 0)" stroke-opacity="1.0" stroke-linecap="round" stroke-linejoin="round"/>
    <path d="M 92.3932113647461 25.08545684814453 C 126.00316619873047 33.49092483520508 88.36849975585938 31.98285484313965 150.09518432617188 28.001008987426758" stroke-width="3.0" fill="none" stroke="rgb(0, 0, 0)" stroke-opacity="1.0" stroke-linecap="round" stroke-linejoin="round"/>
    <path d="M 58.79261779785156 116.42586517333984 C 63.702964782714844 95.26721954345703 50.2625732421875 115.9425277709961 73.77757263183594 137.4152069091797" stroke-width="3.0" fill="none" stroke="rgb(0, 0, 0)" stroke-opacity="1.0" stroke-linecap="round" stroke-linejoin="round"/>
    <path d="M 137.07667541503906 105.0501937866211 C 118.12226867675781 87.3099594116211 122.21590423583984 125.3121109008789 111.222412109375 89.47512817382812" stroke-width="3.0" fill="none" stroke="rgb(0, 0, 0)" stroke-opacity="1.0" stroke-linecap="round" stroke-linejoin="round"/>
    <path d="M 36.74367141723633 144.3147430419922 C 23.651371002197266 120.8220443725586 38.50652313232422 77.61433410644531 63.20006561279297 61.72265625" stroke-width="3.0" fill="none" stroke="rgb(0, 0, 0)" stroke-opacity="1.0" stroke-linecap="round" stroke-linejoin="round"/>
    <path d="M 89.15579223632812 198.99420166015625 C 78.74227142333984 197.26531982421875 72.01217651367188 196.411865234375 103.50221252441406 197.40341186523438" stroke-width="3.0" fill="none" stroke="rgb(0, 0, 0)" stroke-opacity="1.0" stroke-linecap="round" stroke-linejoin="round"/>
    <path d="M 172.2117919921875 131.27296447753906 C 199.34681701660156 111.06182861328125 194.18431091308594 88.42689514160156 150.717041015625 89.58269500732422" stroke-width="3.0" fill="none" stroke="rgb(0, 0, 0)" stroke-opacity="1.0" stroke-linecap="round" stroke-linejoin="round"/>
    <path d="M 157.18997192382812 70.90980529785156 C 129.0319366455078 82.42542266845703 166.3494110107422 85.62836456298828 153.6173095703125 69.426513671875" stroke-width="3.0" fill="none" stroke="rgb(0, 0, 0)" stroke-opacity="1.0" stroke-linecap="round" stroke-linejoin="round"/>
    <path d="M 138.18637084960938 77.78997039794922 C 143.05477905273438 40.85316848754883 208.33822631835938 115.01058959960938 176.60516357421875 53.10966491699219" stroke-width="3.0" fill="none" stroke="rgb(0, 0, 0)" stroke-opacity="1.0" stroke-linecap="round" stroke-linejoin="round"/>
    <path d="M 153.26678466796875 97.23837280273438 C 173.9163055419922 106.5440444946289 180.51344299316406 102.9933853149414 185.86614990234375 124.41506958007812" stroke-width="3.0" fill="none" stroke="rgb(0, 0, 0)" stroke-opacity="1.0" stroke-linecap="round" stroke-linejoin="round"/>
    <path d="M 176.54345703125 14.954756736755371 C 172.78054809570312 44.965606689453125 172.4172821044922 24.828399658203125 159.71923828125 39.41114807128906" stroke-width="3.0" fill="none" stroke="rgb(0, 0, 0)" stroke-opacity="1.0" stroke-linecap="round" stroke-linejoin="round"/>
    <path d="M 121.90605926513672 104.5653076171875 C 148.95993041992188 97.14429473876953 127.07483673095703 113.17913818359375 123.16252899169922 104.36630249023438" stroke-width="3.0" fill="none" stroke="rgb(0, 0, 0)" stroke-opacity="1.0" stroke-linecap="round" stroke-linejoin="round"/>
    <path d="M 60.119110107421875 105.28044891357422 C 59.465877532958984 105.31900787353516 54.77862548828125 116.02328491210938 61.30827713012695 119.15782165527344" stroke-width="3.0" fill="none" stroke="rgb(0, 0, 0)" stroke-opacity="1.0" stroke-linecap="round" stroke-linejoin="round"/>
    <path d="M 121.433349609375 76.78343963623047 C 126.89167785644531 47.58415603637695 117.3424301147461 57.71855163574219 122.72388458251953 36.0068244934082" stroke-width="3.0" fill="none" stroke="rgb(0, 0, 0)" stroke-opacity="1.0" stroke-linecap="round" stroke-linejoin="round"/>
    <path d="M 144.3770294189453 31.16265869140625 C 143.0736083984375 38.27177810668945 160.10789489746094 9.076902389526367 178.88717651367188 9.168663024902344" stroke-width="3.0" fill="none" stroke="rgb(0, 0, 0)" stroke-opacity="1.0" stroke-linecap="round" stroke-linejoin="round"/>
  </g>
</svg>
