<?xml version="1.0" ?>
<svg xmlns="http://www.w3.org/2000/svg" version="1.1" width="224" height="224">
  <defs/>
  <g>
    <path d="M 60.1651496887207 108.56241607666016 C 63.673675537109375 109.4428939819336 55.39045333862305 108.4417953491211 46.80620193481445 106.54444122314453" stroke-width="3.0" fill="none" stroke="rgb(0, 0, 0)" stroke-opacity="1.0" stroke-linecap="round" stroke-linejoin="round"/>
    <path d="M 181.26478576660156 124.9637222290039 C 179.0541229248047 112.21037292480469 179.88131713867188 114.90109252929688 184.1727752685547 123.2247314453125" stroke-width="3.0" fill="none" stroke="rgb(0, 0, 0)" stroke-opacity="1.0" stroke-linecap="round" stroke-linejoin="round"/>
    <path d="M 56.972599029541016 110.4391860961914 C 57.9704475402832 116.8886489868164 55.34749221801758 104.40829467773438 56.40918731689453 111.4947738647461" stroke-width="3.0" fill="none" stroke="rgb(0, 0, 0)" stroke-opacity="1.0" stroke-linecap="round" stroke-linejoin="round"/>
    <path d="M 179.19271850585938 99.75879669189453 C 155.34271240234375 103.740966796875 168.63511657714844 93.77865600585938 193.0028533935547 112.61799621582031" stroke-width="3.0" fill="none" stroke="rgb(0, 0, 0)" stroke-opacity="1.0" stroke-linecap="round" stroke-linejoin="round"/>
    <path d="M 181.63121032714844 79.08155822753906 C 183.83636474609375 84.95497131347656 176.69627380371094 75.27676391601562 181.68405151367188 81.59481811523438" stroke-width="3.0" fill="none" stroke="rgb(0, 0, 0)" stroke-opacity="1.0" stroke-linecap="round" stroke-linejoin="round"/>
    <path d="M 129.76983642578125 101.26089477539062 C 120.98495483398438 112.428955078125 120.57372283935547 107.62358856201172 132.5641632080078 107.24964141845703" stroke-width="3.0" fill="none" stroke="rgb(0, 0, 0)" stroke-opacity="1.0" stroke-linecap="round" stroke-linejoin="round"/>
    <path d="M 172.62515258789062 81.7381820678711 C 188.0699462890625 78.64427947998047 179.6148223876953 79.01832580566406 160.30877685546875 84.32466888427734" stroke-width="3.0" fill="none" stroke="rgb(0, 0, 0)" stroke-opacity="1.0" stroke-linecap="round" stroke-linejoin="round"/>
    <path d="M 56.91958236694336 181.6361541748047 C 38.428871154785156 155.52377319335938 49.65659713745117 162.2747802734375 46.26019287109375 159.7131805419922" stroke-width="3.0" fill="none" stroke="rgb(0, 0, 0)" stroke-opacity="1.0" stroke-linecap="round" stroke-linejoin="round"/>
    <path d="M 72.11414337158203 184.8092803955078 C 81.62781524658203 192.51324462890625 98.34913635253906 191.412841796875 82.5907974243164 184.59837341308594" stroke-width="3.0" fill="none" stroke="rgb(0, 0, 0)" stroke-opacity="1.0" stroke-linecap="round" stroke-linejoin="round"/>
    <path d="M 88.4251937866211 47.23591995239258 C 83.65805053710938 66.57109832763672 88.58203887939453 64.94995880126953 85.87788391113281 59.22515106201172" stroke-width="3.0" fill="none" stroke="rgb(0, 0, 0)" stroke-opacity="1.0" stroke-linecap="round" stroke-linejoin="round"/>
    <path d="M 66.18147277832031 126.94452667236328 C 71.68251037597656 150.19949340820312 77.80007934570312 148.7980499267578 77.81153869628906 151.81678771972656" stroke-width="3.0" fill="none" stroke="rgb(0, 0, 0)" stroke-opacity="1.0" stroke-linecap="round" stroke-linejoin="round"/>
    <path d="M 167.24635314941406 83.97130584716797 C 185.5982666015625 77.44207000732422 173.7794189453125 89.8596420288086 154.3831329345703 87.42546844482422" stroke-width="3.0" fill="none" stroke="rgb(0, 0, 0)" stroke-opacity="1.0" stroke-linecap="round" stroke-linejoin="round"/>
    <path d="M 156.8414306640625 105.58820343017578 C 176.35675048828125 101.00146484375 162.74465942382812 101.60992431640625 181.62159729003906 103.93639373779297" stroke-width="3.0" fill="none" stroke="rgb(0, 0, 0)" stroke-opacity="1.0" stroke-linecap="round" stroke-linejoin="round"/>
    <path d="M 76.70118713378906 171.1932830810547 C 79.12918853759766 185.33724975585938 92.89995574951172 183.3528594970703 97.4949951171875 192.22671508789062" stroke-width="3.0" fill="none" stroke="rgb(0, 0, 0)" stroke-opacity="1.0" stroke-linecap="round" stroke-linejoin="round"/>
    <path d="M 174.243408203125 8.468103408813477 C 184.88113403320312 -1.9834222793579102 185.49957275390625 24.093019485473633 175.5690155029297 51.280696868896484" stroke-width="3.0" fill="none" stroke="rgb(0, 0, 0)" stroke-opacity="1.0" stroke-linecap="round" stroke-linejoin="round"/>
    <path d="M 125.88090515136719 33.620811462402344 C 123.33130645751953 47.62934875488281 123.0824203491211 42.27898406982422 126.08600616455078 54.830848693847656" stroke-width="3.0" fill="none" stroke="rgb(0, 0, 0)" stroke-opacity="1.0" stroke-linecap="round" stroke-linejoin="round"/>
    <path d="M 89.61615753173828 50.881797790527344 C 79.01522064208984 -13.25717830657959 86.83362579345703 2.869473695755005 99.05963897705078 40.70659637451172" stroke-width="3.0" fill="none" stroke="rgb(0, 0, 0)" stroke-opacity="1.0" stroke-linecap="round" stroke-linejoin="round"/>
    <path d="M 50.84486770629883 166.57733154296875 C 36.68962097167969 151.6056365966797 48.23774719238281 161.0123748779297 46.101749420166016 160.1315460205078" stroke-width="3.0" fill="none" stroke="rgb(0, 0, 0)" stroke-opacity="1.0" stroke-linecap="round" stroke-linejoin="round"/>
    <path d="M 37.64285659790039 121.84454345703125 C 40.167930603027344 134.783447265625 33.82521057128906 143.72154235839844 41.068389892578125 147.3256072998047" stroke-width="3.0" fill="none" stroke="rgb(0, 0, 0)" stroke-opacity="1.0" stroke-linecap="round" stroke-linejoin="round"/>
    <path d="M 70.51686096191406 158.39012145996094 C 76.45025634765625 167.53994750976562 76.85894775390625 171.1515350341797 77.41350555419922 171.0003662109375" stroke-width="3.0" fill="none" stroke="rgb(0, 0, 0)" stroke-opacity="1.0" stroke-linecap="round" stroke-linejoin="round"/>
    <path d="M 72.43426513671875 189.05108642578125 C 53.19228744506836 173.86343383789062 71.86402130126953 193.64944458007812 52.58893585205078 176.97215270996094" stroke-width="3.0" fill="none" stroke="rgb(0, 0, 0)" stroke-opacity="1.0" stroke-linecap="round" stroke-linejoin="round"/>
    <path d="M 43.60299301147461 158.23129272460938 C 46.08719253540039 160.8528289794922 41.45707321166992 151.5751495361328 37.80180358886719 144.82249450683594" stroke-width="3.0" fill="none" stroke="rgb(0, 0, 0)" stroke-opacity="1.0" stroke-linecap="round" stroke-linejoin="round"/>
    <path d="M 62.6005859375 59.73738098144531 C 48.947486877441406 78.031982421875 48.0135383605957 72.52437591552734 41.103057861328125 111.24785614013672" stroke-width="3.0" fill="none" stroke="rgb(0, 0, 0)" stroke-opacity="1.0" stroke-linecap="round" stroke-linejoin="round"/>
    <path d="M 137.746826171875 156.2587127685547 C 128.98971557617188 154.67710876464844 129.6920623779297 151.67481994628906 142.602783203125 162.2291259765625" stroke-width="3.0" fill="none" stroke="rgb(0, 0, 0)" stroke-opacity="1.0" stroke-linecap="round" stroke-linejoin="round"/>
    <path d="M 139.90701293945312 32.64323425292969 C 149.0926513671875 51.837886810302734 139.06764221191406 53.80555725097656 136.2807159423828 73.12024688720703" stroke-width="3.0" fill="none" stroke="rgb(0, 0, 0)" stroke-opacity="1.0" stroke-linecap="round" stroke-linejoin="round"/>
    <path d="M 146.37344360351562 100.77095031738281 C 127.35246276855469 107.28801727294922 113.33323669433594 104.96698760986328 128.19500732421875 106.43586730957031" stroke-width="3.0" fill="none" stroke="rgb(0, 0, 0)" stroke-opacity="1.0" stroke-linecap="round" stroke-linejoin="round"/>
    <path d="M 143.58714294433594 64.800537109375 C 145.64283752441406 58.6075553894043 156.97149658203125 51.52307891845703 152.15956115722656 57.056846618652344" stroke-width="3.0" fill="none" stroke="rgb(0, 0, 0)" stroke-opacity="1.0" stroke-linecap="round" stroke-linejoin="round"/>
    <path d="M 106.2229232788086 191.2076416015625 C 76.07263946533203 177.07997131347656 94.45950317382812 201.1540985107422 125.18103790283203 184.3326416015625" stroke-width="3.0" fill="none" stroke="rgb(0, 0, 0)" stroke-opacity="1.0" stroke-linecap="round" stroke-linejoin="round"/>
    <path d="M 182.99363708496094 92.3039779663086 C 171.65386962890625 77.6397705078125 170.3517608642578 92.95989990234375 174.4235382080078 82.42818450927734" stroke-width="3.0" fill="none" stroke="rgb(0, 0, 0)" stroke-opacity="1.0" stroke-linecap="round" stroke-linejoin="round"/>
    <path d="M 170.84922790527344 81.80474090576172 C 180.08006286621094 84.35906219482422 188.0641326904297 92.16683959960938 168.45635986328125 86.79253387451172" stroke-width="3.0" fill="none" stroke="rgb(0, 0, 0)" stroke-opacity="1.0" stroke-linecap="round" stroke-linejoin="round"/>
    <path d="M 114.9084243774414 76.59944152832031 C 95.96446990966797 70.4313735961914 135.08802795410156 68.3738784790039 110.3680419921875 74.70445251464844" stroke-width="3.0" fill="none" stroke="rgb(0, 0, 0)" stroke-opacity="1.0" stroke-linecap="round" stroke-linejoin="round"/>
    <path d="M 133.7144012451172 156.24314880371094 C 136.05027770996094 156.8675994873047 129.08126831054688 154.59449768066406 126.08839416503906 151.37571716308594" stroke-width="3.0" fill="none" stroke="rgb(0, 0, 0)" stroke-opacity="1.0" stroke-linecap="round" stroke-linejoin="round"/>
    <path d="M 124.13175964355469 91.23371124267578 C 138.0625762939453 94.95606231689453 133.29452514648438 80.30403900146484 129.14724731445312 95.26372528076172" stroke-width="3.0" fill="none" stroke="rgb(0, 0, 0)" stroke-opacity="1.0" stroke-linecap="round" stroke-linejoin="round"/>
    <path d="M 184.2335205078125 96.66291809082031 C 171.93841552734375 95.11563110351562 185.877197265625 98.2322769165039 145.225341796875 89.65296936035156" stroke-width="3.0" fill="none" stroke="rgb(0, 0, 0)" stroke-opacity="1.0" stroke-linecap="round" stroke-linejoin="round"/>
    <path d="M 88.10243225097656 6.501533508300781 C 109.13864135742188 15.841888427734375 111.90877532958984 34.96733474731445 119.91338348388672 34.39928436279297" stroke-width="3.0" fill="none" stroke="rgb(0, 0, 0)" stroke-opacity="1.0" stroke-linecap="round" stroke-linejoin="round"/>
    <path d="M 55.163883209228516 109.16511535644531 C 52.70842361450195 108.85061645507812 64.37654113769531 118.2685775756836 56.61035919189453 111.30888366699219" stroke-width="3.0" fill="none" stroke="rgb(0, 0, 0)" stroke-opacity="1.0" stroke-linecap="round" stroke-linejoin="round"/>
    <path d="M 120.93936157226562 100.26122283935547 C 94.74518585205078 95.08555603027344 131.3923797607422 97.3134994506836 108.93814849853516 94.645263671875" stroke-width="3.0" fill="none" stroke="rgb(0, 0, 0)" stroke-opacity="1.0" stroke-linecap="round" stroke-linejoin="round"/>
    <path d="M 38.11176681518555 120.73824310302734 C 41.964012145996094 99.55278778076172 45.10997009277344 109.49440002441406 41.239227294921875 113.40391540527344" stroke-width="3.0" fill="none" stroke="rgb(0, 0, 0)" stroke-opacity="1.0" stroke-linecap="round" stroke-linejoin="round"/>
    <path d="M 85.23187255859375 188.04225158691406 C 75.83561706542969 188.85923767089844 76.12238311767578 192.47579956054688 85.8711929321289 188.1814727783203" stroke-width="3.0" fill="none" stroke="rgb(0, 0, 0)" stroke-opacity="1.0" stroke-linecap="round" stroke-linejoin="round"/>
    <path d="M 175.55068969726562 133.23573303222656 C 191.1831817626953 107.36219024658203 167.50416564941406 102.62459564208984 148.6534423828125 96.76566314697266" stroke-width="3.0" fill="none" stroke="rgb(0, 0, 0)" stroke-opacity="1.0" stroke-linecap="round" stroke-linejoin="round"/>
    <path d="M 153.8077850341797 74.72673034667969 C 141.94802856445312 57.62773513793945 147.73670959472656 89.67073059082031 157.8849639892578 76.78641510009766" stroke-width="3.0" fill="none" stroke="rgb(0, 0, 0)" stroke-opacity="1.0" stroke-linecap="round" stroke-linejoin="round"/>
    <path d="M 151.055419921875 68.52184295654297 C 167.3597412109375 67.693359375 175.0728302001953 76.71205139160156 181.57427978515625 71.25752258300781" stroke-width="3.0" fill="none" stroke="rgb(0, 0, 0)" stroke-opacity="1.0" stroke-linecap="round" stroke-linejoin="round"/>
    <path d="M 151.0366668701172 102.09706115722656 C 156.24945068359375 102.87586212158203 167.35342407226562 104.9402084350586 180.6765899658203 116.35689544677734" stroke-width="3.0" fill="none" stroke="rgb(0, 0, 0)" stroke-opacity="1.0" stroke-linecap="round" stroke-linejoin="round"/>
    <path d="M 170.6343231201172 21.009471893310547 C 164.30589294433594 41.95796203613281 161.34552001953125 26.21723175048828 165.40084838867188 40.65720748901367" stroke-width="3.0" fill="none" stroke="rgb(0, 0, 0)" stroke-opacity="1.0" stroke-linecap="round" stroke-linejoin="round"/>
    <path d="M 121.43399810791016 108.54991912841797 C 151.974853515625 114.34844207763672 126.6362533569336 95.20630645751953 116.75389862060547 106.26995086669922" stroke-width="3.0" fill="none" stroke="rgb(0, 0, 0)" stroke-opacity="1.0" stroke-linecap="round" stroke-linejoin="round"/>
    <path d="M 57.46127700805664 109.7376937866211 C 56.42485046386719 108.46511840820312 51.51455307006836 102.14293670654297 64.39470672607422 126.39952850341797" stroke-width="3.0" fill="none" stroke="rgb(0, 0, 0)" stroke-opacity="1.0" stroke-linecap="round" stroke-linejoin="round"/>
    <path d="M 118.30559539794922 82.65202331542969 C 131.2771759033203 56.533206939697266 116.92268371582031 54.117286682128906 113.83685302734375 41.237030029296875" stroke-width="3.0" fill="none" stroke="rgb(0, 0, 0)" stroke-opacity="1.0" stroke-linecap="round" stroke-linejoin="round"/>
    <path d="M 144.4544677734375 32.947872161865234 C 157.11390686035156 26.77566909790039 152.406982421875 18.646747589111328 175.50018310546875 7.517660617828369" stroke-width="3.0" fill="none" stroke="rgb(0, 0, 0)" stroke-opacity="1.0" stroke-linecap="round" stroke-linejoin="round"/>
  </g>
</svg>
