<?xml version="1.0" ?>
<svg xmlns="http://www.w3.org/2000/svg" version="1.1" width="224" height="224">
  <defs/>
  <g>
    <path d="M 65.24559783935547 99.48417663574219 C 63.57909393310547 98.05630493164062 61.077144622802734 97.61658477783203 56.90010452270508 92.19419860839844" stroke-width="3.0" fill="none" stroke="rgb(0, 0, 0)" stroke-opacity="1.0" stroke-linecap="round" stroke-linejoin="round"/>
    <path d="M 180.17706298828125 132.15220642089844 C 176.03257751464844 119.61815643310547 172.61260986328125 122.28790283203125 183.42205810546875 127.23228454589844" stroke-width="3.0" fill="none" stroke="rgb(0, 0, 0)" stroke-opacity="1.0" stroke-linecap="round" stroke-linejoin="round"/>
    <path d="M 55.48394775390625 109.74295806884766 C 52.3812255859375 106.9775390625 50.36882781982422 96.58815002441406 50.79303741455078 106.24310302734375" stroke-width="3.0" fill="none" stroke="rgb(0, 0, 0)" stroke-opacity="1.0" stroke-linecap="round" stroke-linejoin="round"/>
    <path d="M 177.10714721679688 96.69322967529297 C 168.46435546875 114.3045425415039 164.6199951171875 96.37371826171875 182.46044921875 114.15304565429688" stroke-width="3.0" fill="none" stroke="rgb(0, 0, 0)" stroke-opacity="1.0" stroke-linecap="round" stroke-linejoin="round"/>
    <path d="M 180.8159942626953 76.53105163574219 C 178.64212036132812 80.6291732788086 175.93540954589844 75.28095245361328 184.8126983642578 88.07392883300781" stroke-width="3.0" fill="none" stroke="rgb(0, 0, 0)" stroke-opacity="1.0" stroke-linecap="round" stroke-linejoin="round"/>
    <path d="M 130.14564514160156 107.37986755371094 C 121.70430755615234 114.08638763427734 120.05402374267578 107.31720733642578 124.24067687988281 106.13640594482422" stroke-width="3.0" fill="none" stroke="rgb(0, 0, 0)" stroke-opacity="1.0" stroke-linecap="round" stroke-linejoin="round"/>
    <path d="M 171.78797912597656 83.97858428955078 C 182.7456512451172 89.73990631103516 178.97732543945312 83.37052917480469 160.3018341064453 88.08152770996094" stroke-width="3.0" fill="none" stroke="rgb(0, 0, 0)" stroke-opacity="1.0" stroke-linecap="round" stroke-linejoin="round"/>
    <path d="M 58.30593490600586 176.1043701171875 C 57.365516662597656 164.93994140625 55.12059783935547 180.24240112304688 58.68764114379883 164.91307067871094" stroke-width="3.0" fill="none" stroke="rgb(0, 0, 0)" stroke-opacity="1.0" stroke-linecap="round" stroke-linejoin="round"/>
    <path d="M 78.0370864868164 190.0098114013672 C 76.97724151611328 189.44325256347656 86.36331176757812 188.40431213378906 82.02218627929688 184.9170684814453" stroke-width="3.0" fill="none" stroke="rgb(0, 0, 0)" stroke-opacity="1.0" stroke-linecap="round" stroke-linejoin="round"/>
    <path d="M 83.84315490722656 49.36173629760742 C 80.68756103515625 73.79817199707031 88.87158966064453 84.35814666748047 83.93644714355469 70.85916900634766" stroke-width="3.0" fill="none" stroke="rgb(0, 0, 0)" stroke-opacity="1.0" stroke-linecap="round" stroke-linejoin="round"/>
    <path d="M 73.4600601196289 141.52200317382812 C 73.51862335205078 149.68759155273438 75.9434814453125 149.27859497070312 78.41978454589844 151.65805053710938" stroke-width="3.0" fill="none" stroke="rgb(0, 0, 0)" stroke-opacity="1.0" stroke-linecap="round" stroke-linejoin="round"/>
    <path d="M 174.03648376464844 92.44660949707031 C 182.35128784179688 85.2421646118164 178.13259887695312 95.18451690673828 153.92799377441406 93.4730453491211" stroke-width="3.0" fill="none" stroke="rgb(0, 0, 0)" stroke-opacity="1.0" stroke-linecap="round" stroke-linejoin="round"/>
    <path d="M 153.79446411132812 102.24858093261719 C 175.3014678955078 100.6548843383789 160.37152099609375 98.55784606933594 176.23541259765625 103.74267578125" stroke-width="3.0" fill="none" stroke="rgb(0, 0, 0)" stroke-opacity="1.0" stroke-linecap="round" stroke-linejoin="round"/>
    <path d="M 84.62308502197266 174.1540069580078 C 89.28533935546875 181.51979064941406 99.29985809326172 182.26239013671875 98.78996276855469 187.54469299316406" stroke-width="3.0" fill="none" stroke="rgb(0, 0, 0)" stroke-opacity="1.0" stroke-linecap="round" stroke-linejoin="round"/>
    <path d="M 173.57118225097656 19.630645751953125 C 175.92506408691406 12.256580352783203 178.24798583984375 30.526824951171875 177.9652557373047 52.18227005004883" stroke-width="3.0" fill="none" stroke="rgb(0, 0, 0)" stroke-opacity="1.0" stroke-linecap="round" stroke-linejoin="round"/>
    <path d="M 126.07926177978516 37.66334915161133 C 127.51837921142578 47.59865951538086 131.60289001464844 41.67822265625 129.3841094970703 52.32442855834961" stroke-width="3.0" fill="none" stroke="rgb(0, 0, 0)" stroke-opacity="1.0" stroke-linecap="round" stroke-linejoin="round"/>
    <path d="M 86.49954223632812 29.826570510864258 C 78.90303039550781 -4.295775413513184 82.68247985839844 8.901948928833008 96.2078628540039 47.81400680541992" stroke-width="3.0" fill="none" stroke="rgb(0, 0, 0)" stroke-opacity="1.0" stroke-linecap="round" stroke-linejoin="round"/>
    <path d="M 47.543426513671875 165.5284881591797 C 46.40253829956055 154.3491973876953 41.90664291381836 159.6743927001953 46.52341842651367 156.67161560058594" stroke-width="3.0" fill="none" stroke="rgb(0, 0, 0)" stroke-opacity="1.0" stroke-linecap="round" stroke-linejoin="round"/>
    <path d="M 49.19587326049805 137.0863037109375 C 56.136959075927734 138.71192932128906 38.619808197021484 142.2457275390625 43.84595489501953 142.32785034179688" stroke-width="3.0" fill="none" stroke="rgb(0, 0, 0)" stroke-opacity="1.0" stroke-linecap="round" stroke-linejoin="round"/>
    <path d="M 71.08238220214844 165.0943145751953 C 73.96349334716797 161.3128204345703 76.00898742675781 162.1328125 74.41405487060547 162.50384521484375" stroke-width="3.0" fill="none" stroke="rgb(0, 0, 0)" stroke-opacity="1.0" stroke-linecap="round" stroke-linejoin="round"/>
    <path d="M 72.24829864501953 187.66766357421875 C 65.59746551513672 170.37106323242188 74.7854232788086 189.06088256835938 65.63114929199219 174.59658813476562" stroke-width="3.0" fill="none" stroke="rgb(0, 0, 0)" stroke-opacity="1.0" stroke-linecap="round" stroke-linejoin="round"/>
    <path d="M 44.54905700683594 158.46719360351562 C 47.9617919921875 162.54122924804688 37.58805847167969 150.20277404785156 44.546173095703125 158.17071533203125" stroke-width="3.0" fill="none" stroke="rgb(0, 0, 0)" stroke-opacity="1.0" stroke-linecap="round" stroke-linejoin="round"/>
    <path d="M 67.30899047851562 72.4397201538086 C 51.19135665893555 83.95875549316406 61.617469787597656 72.64484405517578 43.03401184082031 104.85865020751953" stroke-width="3.0" fill="none" stroke="rgb(0, 0, 0)" stroke-opacity="1.0" stroke-linecap="round" stroke-linejoin="round"/>
    <path d="M 143.094482421875 162.531494140625 C 127.41486358642578 146.11367797851562 132.0926971435547 136.17071533203125 132.13624572753906 153.40695190429688" stroke-width="3.0" fill="none" stroke="rgb(0, 0, 0)" stroke-opacity="1.0" stroke-linecap="round" stroke-linejoin="round"/>
    <path d="M 138.64414978027344 36.14470672607422 C 135.7001953125 51.7501335144043 137.49537658691406 67.85600280761719 137.2113800048828 75.99069213867188" stroke-width="3.0" fill="none" stroke="rgb(0, 0, 0)" stroke-opacity="1.0" stroke-linecap="round" stroke-linejoin="round"/>
    <path d="M 145.2984161376953 104.45010375976562 C 133.5867462158203 111.04142761230469 121.36248016357422 106.22219848632812 122.81137084960938 107.21966552734375" stroke-width="3.0" fill="none" stroke="rgb(0, 0, 0)" stroke-opacity="1.0" stroke-linecap="round" stroke-linejoin="round"/>
    <path d="M 145.1877899169922 68.26116943359375 C 142.95814514160156 60.54555130004883 155.16111755371094 51.21089172363281 153.59938049316406 55.49137878417969" stroke-width="3.0" fill="none" stroke="rgb(0, 0, 0)" stroke-opacity="1.0" stroke-linecap="round" stroke-linejoin="round"/>
    <path d="M 102.86247253417969 184.85385131835938 C 97.22099304199219 177.61244201660156 76.75353240966797 182.72103881835938 126.85476684570312 184.84213256835938" stroke-width="3.0" fill="none" stroke="rgb(0, 0, 0)" stroke-opacity="1.0" stroke-linecap="round" stroke-linejoin="round"/>
    <path d="M 183.06625366210938 86.51041412353516 C 186.0045166015625 82.36700439453125 179.66893005371094 95.83599853515625 182.04507446289062 84.0133056640625" stroke-width="3.0" fill="none" stroke="rgb(0, 0, 0)" stroke-opacity="1.0" stroke-linecap="round" stroke-linejoin="round"/>
    <path d="M 176.36660766601562 90.19972229003906 C 175.06051635742188 89.05577850341797 177.65689086914062 93.22728729248047 174.9439239501953 92.88459014892578" stroke-width="3.0" fill="none" stroke="rgb(0, 0, 0)" stroke-opacity="1.0" stroke-linecap="round" stroke-linejoin="round"/>
    <path d="M 107.81428527832031 78.96099853515625 C 95.93528747558594 69.55882263183594 128.09710693359375 79.0289077758789 110.81291198730469 80.41983795166016" stroke-width="3.0" fill="none" stroke="rgb(0, 0, 0)" stroke-opacity="1.0" stroke-linecap="round" stroke-linejoin="round"/>
    <path d="M 128.14239501953125 153.03170776367188 C 118.4736099243164 138.5079345703125 125.541259765625 146.67376708984375 122.6021499633789 148.34860229492188" stroke-width="3.0" fill="none" stroke="rgb(0, 0, 0)" stroke-opacity="1.0" stroke-linecap="round" stroke-linejoin="round"/>
    <path d="M 122.08170318603516 91.80728912353516 C 141.48680114746094 103.66027069091797 134.6171417236328 81.33688354492188 129.3602294921875 99.58052825927734" stroke-width="3.0" fill="none" stroke="rgb(0, 0, 0)" stroke-opacity="1.0" stroke-linecap="round" stroke-linejoin="round"/>
    <path d="M 174.89430236816406 103.68437194824219 C 170.96127319335938 88.90966033935547 178.61541748046875 99.59170532226562 151.1994171142578 97.04615783691406" stroke-width="3.0" fill="none" stroke="rgb(0, 0, 0)" stroke-opacity="1.0" stroke-linecap="round" stroke-linejoin="round"/>
    <path d="M 82.68317413330078 7.664856910705566 C 102.27031707763672 22.34764289855957 114.82052612304688 29.913375854492188 113.45117950439453 36.76834487915039" stroke-width="3.0" fill="none" stroke="rgb(0, 0, 0)" stroke-opacity="1.0" stroke-linecap="round" stroke-linejoin="round"/>
    <path d="M 53.23788070678711 109.28948974609375 C 53.25343704223633 109.55648803710938 65.21215057373047 118.43140411376953 56.46646499633789 110.08419036865234" stroke-width="3.0" fill="none" stroke="rgb(0, 0, 0)" stroke-opacity="1.0" stroke-linecap="round" stroke-linejoin="round"/>
    <path d="M 117.00006866455078 106.7673568725586 C 101.46024322509766 109.20069122314453 117.62187957763672 101.23640441894531 104.93777465820312 105.71536254882812" stroke-width="3.0" fill="none" stroke="rgb(0, 0, 0)" stroke-opacity="1.0" stroke-linecap="round" stroke-linejoin="round"/>
    <path d="M 39.24797439575195 117.95085144042969 C 43.10270309448242 99.42652893066406 43.194847106933594 103.4881820678711 41.18634796142578 110.01126098632812" stroke-width="3.0" fill="none" stroke="rgb(0, 0, 0)" stroke-opacity="1.0" stroke-linecap="round" stroke-linejoin="round"/>
    <path d="M 84.11223602294922 182.9370574951172 C 78.14934539794922 189.02842712402344 78.9914321899414 194.5118865966797 83.63249206542969 180.8564910888672" stroke-width="3.0" fill="none" stroke="rgb(0, 0, 0)" stroke-opacity="1.0" stroke-linecap="round" stroke-linejoin="round"/>
    <path d="M 171.57664489746094 124.60408020019531 C 171.5502166748047 116.56391143798828 166.61688232421875 104.80559539794922 148.6964111328125 100.63056945800781" stroke-width="3.0" fill="none" stroke="rgb(0, 0, 0)" stroke-opacity="1.0" stroke-linecap="round" stroke-linejoin="round"/>
    <path d="M 139.81729125976562 81.28097534179688 C 154.05276489257812 77.13349914550781 135.1908721923828 86.03678131103516 153.11627197265625 81.60956573486328" stroke-width="3.0" fill="none" stroke="rgb(0, 0, 0)" stroke-opacity="1.0" stroke-linecap="round" stroke-linejoin="round"/>
    <path d="M 161.44097900390625 70.701171875 C 170.07159423828125 70.01712799072266 175.10243225097656 75.53610229492188 178.6991424560547 71.54206848144531" stroke-width="3.0" fill="none" stroke="rgb(0, 0, 0)" stroke-opacity="1.0" stroke-linecap="round" stroke-linejoin="round"/>
    <path d="M 141.2511444091797 112.0294189453125 C 150.96768188476562 117.73181915283203 152.6356964111328 117.5425033569336 151.1258544921875 116.6197280883789" stroke-width="3.0" fill="none" stroke="rgb(0, 0, 0)" stroke-opacity="1.0" stroke-linecap="round" stroke-linejoin="round"/>
    <path d="M 168.64178466796875 26.02004051208496 C 172.41143798828125 41.49459457397461 159.30636596679688 36.19169616699219 170.4951171875 48.254127502441406" stroke-width="3.0" fill="none" stroke="rgb(0, 0, 0)" stroke-opacity="1.0" stroke-linecap="round" stroke-linejoin="round"/>
    <path d="M 122.46871185302734 114.64981842041016 C 140.56935119628906 104.21477508544922 123.15259552001953 104.71844482421875 114.97034454345703 113.87574768066406" stroke-width="3.0" fill="none" stroke="rgb(0, 0, 0)" stroke-opacity="1.0" stroke-linecap="round" stroke-linejoin="round"/>
    <path d="M 52.07735824584961 107.17195892333984 C 46.881019592285156 105.54412078857422 45.15094757080078 101.47730255126953 62.961544036865234 123.8814697265625" stroke-width="3.0" fill="none" stroke="rgb(0, 0, 0)" stroke-opacity="1.0" stroke-linecap="round" stroke-linejoin="round"/>
    <path d="M 121.59899139404297 76.91496276855469 C 121.99896240234375 60.40916442871094 116.50648498535156 61.36421585083008 109.23334503173828 58.697898864746094" stroke-width="3.0" fill="none" stroke="rgb(0, 0, 0)" stroke-opacity="1.0" stroke-linecap="round" stroke-linejoin="round"/>
    <path d="M 149.119873046875 36.32524490356445 C 161.42913818359375 28.431339263916016 154.241943359375 25.83546257019043 173.16357421875 14.915884017944336" stroke-width="3.0" fill="none" stroke="rgb(0, 0, 0)" stroke-opacity="1.0" stroke-linecap="round" stroke-linejoin="round"/>
  </g>
</svg>
