<?xml version="1.0" ?>
<svg xmlns="http://www.w3.org/2000/svg" version="1.1" width="224" height="224">
  <defs/>
  <g>
    <path d="M 64.23565673828125 91.02876281738281 C 82.15731048583984 79.37760925292969 64.97801971435547 83.500244140625 83.06001281738281 60.159767150878906" stroke-width="3.0" fill="none" stroke="rgb(0, 0, 0)" stroke-opacity="1.0" stroke-linecap="round" stroke-linejoin="round"/>
    <path d="M 196.81222534179688 114.2981948852539 C 181.7493896484375 99.6094970703125 190.61509704589844 98.23833465576172 177.93788146972656 128.04049682617188" stroke-width="3.0" fill="none" stroke="rgb(0, 0, 0)" stroke-opacity="1.0" stroke-linecap="round" stroke-linejoin="round"/>
    <path d="M 61.02138137817383 111.77845001220703 C 52.51039505004883 90.60250854492188 56.979637145996094 116.10081481933594 62.475738525390625 107.82012176513672" stroke-width="3.0" fill="none" stroke="rgb(0, 0, 0)" stroke-opacity="1.0" stroke-linecap="round" stroke-linejoin="round"/>
    <path d="M 186.491943359375 93.64199829101562 C 145.65771484375 76.96206665039062 182.54774475097656 76.27798461914062 189.71185302734375 98.02635955810547" stroke-width="3.0" fill="none" stroke="rgb(0, 0, 0)" stroke-opacity="1.0" stroke-linecap="round" stroke-linejoin="round"/>
    <path d="M 174.39125061035156 59.8101806640625 C 193.556640625 89.3386459350586 180.21507263183594 101.33985137939453 177.7461700439453 47.79621887207031" stroke-width="3.0" fill="none" stroke="rgb(0, 0, 0)" stroke-opacity="1.0" stroke-linecap="round" stroke-linejoin="round"/>
    <path d="M 130.3760986328125 97.66302490234375 C 155.52670288085938 107.83604431152344 96.8516616821289 100.37569427490234 136.1492156982422 99.97057342529297" stroke-width="3.0" fill="none" stroke="rgb(0, 0, 0)" stroke-opacity="1.0" stroke-linecap="round" stroke-linejoin="round"/>
    <path d="M 186.36917114257812 98.74676513671875 C 162.09292602539062 90.53515625 201.273193359375 70.84729766845703 153.54705810546875 86.61195373535156" stroke-width="3.0" fill="none" stroke="rgb(0, 0, 0)" stroke-opacity="1.0" stroke-linecap="round" stroke-linejoin="round"/>
    <path d="M 64.13317108154297 189.0421905517578 C 43.42057418823242 167.7855224609375 46.294132232666016 169.70936584472656 64.73943328857422 190.83761596679688" stroke-width="3.0" fill="none" stroke="rgb(0, 0, 0)" stroke-opacity="1.0" stroke-linecap="round" stroke-linejoin="round"/>
    <path d="M 57.227073669433594 185.96823120117188 C 91.23165893554688 213.62567138671875 135.0467529296875 195.29827880859375 136.64291381835938 158.8077392578125" stroke-width="3.0" fill="none" stroke="rgb(0, 0, 0)" stroke-opacity="1.0" stroke-linecap="round" stroke-linejoin="round"/>
    <path d="M 81.1473159790039 9.038999557495117 C 90.49433135986328 70.04531860351562 87.11443328857422 14.346129417419434 84.33008575439453 49.88949966430664" stroke-width="3.0" fill="none" stroke="rgb(0, 0, 0)" stroke-opacity="1.0" stroke-linecap="round" stroke-linejoin="round"/>
    <path d="M 67.18506622314453 91.51231384277344 C 44.80066680908203 120.46429443359375 76.89585876464844 127.38358306884766 59.952301025390625 119.10545349121094" stroke-width="3.0" fill="none" stroke="rgb(0, 0, 0)" stroke-opacity="1.0" stroke-linecap="round" stroke-linejoin="round"/>
    <path d="M 145.62303161621094 75.5558853149414 C 193.04698181152344 60.92844009399414 204.1236572265625 85.4275131225586 138.7436981201172 85.21562194824219" stroke-width="3.0" fill="none" stroke="rgb(0, 0, 0)" stroke-opacity="1.0" stroke-linecap="round" stroke-linejoin="round"/>
    <path d="M 152.00210571289062 93.88140106201172 C 186.77513122558594 98.92345428466797 181.91427612304688 106.64214324951172 188.6938018798828 110.71041870117188" stroke-width="3.0" fill="none" stroke="rgb(0, 0, 0)" stroke-opacity="1.0" stroke-linecap="round" stroke-linejoin="round"/>
    <path d="M 135.7092742919922 147.6023406982422 C 179.57948303222656 155.02197265625 92.55162811279297 148.16119384765625 93.09657287597656 149.83177185058594" stroke-width="3.0" fill="none" stroke="rgb(0, 0, 0)" stroke-opacity="1.0" stroke-linecap="round" stroke-linejoin="round"/>
    <path d="M 179.44082641601562 8.73287582397461 C 190.0035400390625 21.375940322875977 164.84005737304688 93.85508728027344 180.20069885253906 61.338035583496094" stroke-width="3.0" fill="none" stroke="rgb(0, 0, 0)" stroke-opacity="1.0" stroke-linecap="round" stroke-linejoin="round"/>
    <path d="M 148.79551696777344 27.688901901245117 C 104.45954132080078 32.81435012817383 136.02105712890625 19.957921981811523 124.614013671875 65.68814849853516" stroke-width="3.0" fill="none" stroke="rgb(0, 0, 0)" stroke-opacity="1.0" stroke-linecap="round" stroke-linejoin="round"/>
    <path d="M 109.56576538085938 48.036128997802734 C 61.173248291015625 -7.502013683319092 81.27555084228516 3.1796178817749023 119.6604232788086 33.818450927734375" stroke-width="3.0" fill="none" stroke="rgb(0, 0, 0)" stroke-opacity="1.0" stroke-linecap="round" stroke-linejoin="round"/>
    <path d="M 44.37801742553711 162.20980834960938 C 45.30582809448242 158.20681762695312 42.12886047363281 156.3126678466797 54.568294525146484 180.58924865722656" stroke-width="3.0" fill="none" stroke="rgb(0, 0, 0)" stroke-opacity="1.0" stroke-linecap="round" stroke-linejoin="round"/>
    <path d="M 62.726436614990234 72.34941101074219 C 16.29837989807129 121.82147216796875 38.7193603515625 141.77084350585938 45.71916198730469 162.78375244140625" stroke-width="3.0" fill="none" stroke="rgb(0, 0, 0)" stroke-opacity="1.0" stroke-linecap="round" stroke-linejoin="round"/>
    <path d="M 72.22406768798828 134.65748596191406 C 148.34585571289062 165.072021484375 120.77715301513672 147.37413024902344 88.98387908935547 145.6874237060547" stroke-width="3.0" fill="none" stroke="rgb(0, 0, 0)" stroke-opacity="1.0" stroke-linecap="round" stroke-linejoin="round"/>
    <path d="M 82.57849884033203 199.5459747314453 C 69.18968963623047 199.0786895751953 49.545753479003906 174.9627227783203 38.92514419555664 148.23529052734375" stroke-width="3.0" fill="none" stroke="rgb(0, 0, 0)" stroke-opacity="1.0" stroke-linecap="round" stroke-linejoin="round"/>
    <path d="M 50.164886474609375 171.28196716308594 C 72.34563446044922 197.50341796875 46.613067626953125 181.55360412597656 41.74011993408203 155.39395141601562" stroke-width="3.0" fill="none" stroke="rgb(0, 0, 0)" stroke-opacity="1.0" stroke-linecap="round" stroke-linejoin="round"/>
    <path d="M 83.26646423339844 55.2302131652832 C 64.09902954101562 59.36910629272461 60.87423324584961 66.53970336914062 34.36724853515625 111.45952606201172" stroke-width="3.0" fill="none" stroke="rgb(0, 0, 0)" stroke-opacity="1.0" stroke-linecap="round" stroke-linejoin="round"/>
    <path d="M 148.37579345703125 146.68948364257812 C 109.37257385253906 158.11587524414062 58.573238372802734 149.95465087890625 145.9263458251953 146.7324676513672" stroke-width="3.0" fill="none" stroke="rgb(0, 0, 0)" stroke-opacity="1.0" stroke-linecap="round" stroke-linejoin="round"/>
    <path d="M 148.61135864257812 28.486753463745117 C 142.04751586914062 36.295841217041016 140.00653076171875 10.83594799041748 137.0410614013672 75.12388610839844" stroke-width="3.0" fill="none" stroke="rgb(0, 0, 0)" stroke-opacity="1.0" stroke-linecap="round" stroke-linejoin="round"/>
    <path d="M 145.33201599121094 97.29759216308594 C 128.73391723632812 111.95443725585938 121.98974609375 103.23075866699219 122.9510726928711 103.06089782714844" stroke-width="3.0" fill="none" stroke="rgb(0, 0, 0)" stroke-opacity="1.0" stroke-linecap="round" stroke-linejoin="round"/>
    <path d="M 136.0788116455078 71.62149810791016 C 145.07711791992188 54.102535247802734 135.97779846191406 65.1339111328125 135.45346069335938 68.22087097167969" stroke-width="3.0" fill="none" stroke="rgb(0, 0, 0)" stroke-opacity="1.0" stroke-linecap="round" stroke-linejoin="round"/>
    <path d="M 141.09390258789062 156.0282440185547 C 130.52610778808594 163.512451171875 138.4447784423828 160.23870849609375 153.0579833984375 144.21214294433594" stroke-width="3.0" fill="none" stroke="rgb(0, 0, 0)" stroke-opacity="1.0" stroke-linecap="round" stroke-linejoin="round"/>
    <path d="M 195.29856872558594 96.45790100097656 C 157.70697021484375 74.03079223632812 187.25621032714844 61.53421401977539 177.94052124023438 97.52449035644531" stroke-width="3.0" fill="none" stroke="rgb(0, 0, 0)" stroke-opacity="1.0" stroke-linecap="round" stroke-linejoin="round"/>
    <path d="M 154.2757110595703 77.25837707519531 C 120.13248443603516 55.18544387817383 205.3560333251953 90.79873657226562 180.11404418945312 62.09064483642578" stroke-width="3.0" fill="none" stroke="rgb(0, 0, 0)" stroke-opacity="1.0" stroke-linecap="round" stroke-linejoin="round"/>
    <path d="M 114.40755462646484 82.60870361328125 C 88.99337768554688 75.1407699584961 138.9757537841797 75.35391235351562 106.92851257324219 83.43367004394531" stroke-width="3.0" fill="none" stroke="rgb(0, 0, 0)" stroke-opacity="1.0" stroke-linecap="round" stroke-linejoin="round"/>
    <path d="M 168.14419555664062 132.52413940429688 C 157.71493530273438 154.8593292236328 87.9461669921875 147.33485412597656 91.80409240722656 144.54080200195312" stroke-width="3.0" fill="none" stroke="rgb(0, 0, 0)" stroke-opacity="1.0" stroke-linecap="round" stroke-linejoin="round"/>
    <path d="M 123.69217681884766 88.69806671142578 C 142.4544677734375 98.68799591064453 127.43318176269531 74.04824829101562 129.34573364257812 105.77061462402344" stroke-width="3.0" fill="none" stroke="rgb(0, 0, 0)" stroke-opacity="1.0" stroke-linecap="round" stroke-linejoin="round"/>
    <path d="M 187.3428192138672 108.89120483398438 C 172.8312225341797 88.2874984741211 169.44715881347656 94.50252532958984 141.00746154785156 82.45155334472656" stroke-width="3.0" fill="none" stroke="rgb(0, 0, 0)" stroke-opacity="1.0" stroke-linecap="round" stroke-linejoin="round"/>
    <path d="M 95.31886291503906 24.45780372619629 C 126.40039825439453 29.42005157470703 85.7020263671875 31.34996223449707 146.46971130371094 28.381633758544922" stroke-width="3.0" fill="none" stroke="rgb(0, 0, 0)" stroke-opacity="1.0" stroke-linecap="round" stroke-linejoin="round"/>
    <path d="M 54.245269775390625 105.25033569335938 C 57.251182556152344 94.05194854736328 51.982940673828125 114.08967590332031 73.99530029296875 136.85882568359375" stroke-width="3.0" fill="none" stroke="rgb(0, 0, 0)" stroke-opacity="1.0" stroke-linecap="round" stroke-linejoin="round"/>
    <path d="M 129.0363006591797 107.8248519897461 C 133.51107788085938 90.13198852539062 123.58924865722656 120.40668487548828 109.91423797607422 89.2685317993164" stroke-width="3.0" fill="none" stroke="rgb(0, 0, 0)" stroke-opacity="1.0" stroke-linecap="round" stroke-linejoin="round"/>
    <path d="M 39.71869659423828 148.41537475585938 C 17.892810821533203 122.6668930053711 41.355384826660156 69.51448822021484 71.45342254638672 58.555564880371094" stroke-width="3.0" fill="none" stroke="rgb(0, 0, 0)" stroke-opacity="1.0" stroke-linecap="round" stroke-linejoin="round"/>
    <path d="M 110.6133804321289 196.5536346435547 C 89.54857635498047 200.65687561035156 94.62357330322266 200.27822875976562 107.17208862304688 197.62095642089844" stroke-width="3.0" fill="none" stroke="rgb(0, 0, 0)" stroke-opacity="1.0" stroke-linecap="round" stroke-linejoin="round"/>
    <path d="M 168.669189453125 129.2433319091797 C 197.373291015625 114.23914337158203 193.5250244140625 85.07762145996094 156.4783172607422 87.47014617919922" stroke-width="3.0" fill="none" stroke="rgb(0, 0, 0)" stroke-opacity="1.0" stroke-linecap="round" stroke-linejoin="round"/>
    <path d="M 157.4739227294922 70.59085083007812 C 131.10980224609375 80.71348571777344 168.1284637451172 82.5069351196289 154.10736083984375 72.95793914794922" stroke-width="3.0" fill="none" stroke="rgb(0, 0, 0)" stroke-opacity="1.0" stroke-linecap="round" stroke-linejoin="round"/>
    <path d="M 140.36441040039062 77.96583557128906 C 150.20596313476562 42.14664840698242 198.21597290039062 120.6053466796875 177.04685974121094 35.86845016479492" stroke-width="3.0" fill="none" stroke="rgb(0, 0, 0)" stroke-opacity="1.0" stroke-linecap="round" stroke-linejoin="round"/>
    <path d="M 157.20947265625 94.06629943847656 C 173.56468200683594 104.97965240478516 180.8252410888672 103.81177520751953 184.43162536621094 119.76592254638672" stroke-width="3.0" fill="none" stroke="rgb(0, 0, 0)" stroke-opacity="1.0" stroke-linecap="round" stroke-linejoin="round"/>
    <path d="M 176.67523193359375 16.94558334350586 C 167.80821228027344 37.877662658691406 179.31248474121094 16.83167839050293 160.5988311767578 36.88430404663086" stroke-width="3.0" fill="none" stroke="rgb(0, 0, 0)" stroke-opacity="1.0" stroke-linecap="round" stroke-linejoin="round"/>
    <path d="M 119.29566192626953 99.97534942626953 C 136.9433135986328 93.48506927490234 127.44100952148438 114.03522491455078 135.11705017089844 101.51605987548828" stroke-width="3.0" fill="none" stroke="rgb(0, 0, 0)" stroke-opacity="1.0" stroke-linecap="round" stroke-linejoin="round"/>
    <path d="M 63.32447052001953 97.24079895019531 C 49.35295486450195 106.0364990234375 55.39556121826172 110.51557159423828 62.765228271484375 101.53274536132812" stroke-width="3.0" fill="none" stroke="rgb(0, 0, 0)" stroke-opacity="1.0" stroke-linecap="round" stroke-linejoin="round"/>
    <path d="M 122.75502014160156 75.97840881347656 C 127.31169128417969 41.686119079589844 114.83519744873047 52.28074264526367 118.29399871826172 34.5881462097168" stroke-width="3.0" fill="none" stroke="rgb(0, 0, 0)" stroke-opacity="1.0" stroke-linecap="round" stroke-linejoin="round"/>
    <path d="M 142.80117797851562 30.152116775512695 C 145.21307373046875 43.70866012573242 154.2470245361328 11.162521362304688 177.9036865234375 8.73147964477539" stroke-width="3.0" fill="none" stroke="rgb(0, 0, 0)" stroke-opacity="1.0" stroke-linecap="round" stroke-linejoin="round"/>
  </g>
</svg>
