<?xml version="1.0" ?>
<svg xmlns="http://www.w3.org/2000/svg" version="1.1" width="224" height="224">
  <defs/>
  <g>
    <path d="M 64.2110366821289 78.35647583007812 C 65.86783599853516 77.73836517333984 66.6671371459961 83.00468444824219 59.056114196777344 69.58578491210938" stroke-width="3.0" fill="none" stroke="rgb(0, 0, 0)" stroke-opacity="1.0" stroke-linecap="round" stroke-linejoin="round"/>
    <path d="M 185.10806274414062 123.8691635131836 C 180.0711212158203 116.58174896240234 199.7045135498047 91.18324279785156 176.50296020507812 129.24342346191406" stroke-width="3.0" fill="none" stroke="rgb(0, 0, 0)" stroke-opacity="1.0" stroke-linecap="round" stroke-linejoin="round"/>
    <path d="M 59.375484466552734 119.37144470214844 C 58.1537971496582 114.35459899902344 55.88911056518555 122.31800079345703 68.78392791748047 128.619140625" stroke-width="3.0" fill="none" stroke="rgb(0, 0, 0)" stroke-opacity="1.0" stroke-linecap="round" stroke-linejoin="round"/>
    <path d="M 184.364013671875 92.4620361328125 C 146.3250274658203 82.13197326660156 175.30917358398438 72.91085052490234 189.39759826660156 107.93773651123047" stroke-width="3.0" fill="none" stroke="rgb(0, 0, 0)" stroke-opacity="1.0" stroke-linecap="round" stroke-linejoin="round"/>
    <path d="M 184.38604736328125 66.00457763671875 C 174.57640075683594 115.29615783691406 182.40182495117188 103.95216369628906 184.08700561523438 74.47174835205078" stroke-width="3.0" fill="none" stroke="rgb(0, 0, 0)" stroke-opacity="1.0" stroke-linecap="round" stroke-linejoin="round"/>
    <path d="M 121.88957214355469 101.13494873046875 C 144.72164916992188 116.67545318603516 108.33094787597656 94.95264434814453 134.09486389160156 105.1749038696289" stroke-width="3.0" fill="none" stroke="rgb(0, 0, 0)" stroke-opacity="1.0" stroke-linecap="round" stroke-linejoin="round"/>
    <path d="M 171.7774200439453 89.1529541015625 C 193.0464324951172 94.2727279663086 179.93365478515625 73.1259536743164 160.480224609375 84.96196746826172" stroke-width="3.0" fill="none" stroke="rgb(0, 0, 0)" stroke-opacity="1.0" stroke-linecap="round" stroke-linejoin="round"/>
    <path d="M 60.980770111083984 186.4755859375 C 38.809322357177734 155.46669006347656 47.97620391845703 168.86260986328125 50.91169738769531 172.91595458984375" stroke-width="3.0" fill="none" stroke="rgb(0, 0, 0)" stroke-opacity="1.0" stroke-linecap="round" stroke-linejoin="round"/>
    <path d="M 54.060699462890625 180.1683807373047 C 88.637451171875 210.65048217773438 116.70340728759766 195.73599243164062 132.4005584716797 180.3666534423828" stroke-width="3.0" fill="none" stroke="rgb(0, 0, 0)" stroke-opacity="1.0" stroke-linecap="round" stroke-linejoin="round"/>
    <path d="M 83.97415924072266 28.722686767578125 C 94.11373901367188 80.78540802001953 84.12313079833984 8.54041576385498 84.57457733154297 57.24612808227539" stroke-width="3.0" fill="none" stroke="rgb(0, 0, 0)" stroke-opacity="1.0" stroke-linecap="round" stroke-linejoin="round"/>
    <path d="M 46.50448226928711 95.39608001708984 C 64.32463836669922 140.86083984375 91.98062133789062 157.1902618408203 89.1185302734375 151.1016845703125" stroke-width="3.0" fill="none" stroke="rgb(0, 0, 0)" stroke-opacity="1.0" stroke-linecap="round" stroke-linejoin="round"/>
    <path d="M 148.71263122558594 73.62482452392578 C 206.36878967285156 69.46724700927734 188.03411865234375 84.80298614501953 142.29612731933594 87.8900146484375" stroke-width="3.0" fill="none" stroke="rgb(0, 0, 0)" stroke-opacity="1.0" stroke-linecap="round" stroke-linejoin="round"/>
    <path d="M 151.696044921875 93.66326141357422 C 193.1336212158203 102.63262939453125 177.99801635742188 104.89578247070312 194.00054931640625 113.79080963134766" stroke-width="3.0" fill="none" stroke="rgb(0, 0, 0)" stroke-opacity="1.0" stroke-linecap="round" stroke-linejoin="round"/>
    <path d="M 122.30976867675781 154.03994750976562 C 142.83267211914062 146.5128631591797 124.87226867675781 159.6072235107422 104.8105697631836 152.9607696533203" stroke-width="3.0" fill="none" stroke="rgb(0, 0, 0)" stroke-opacity="1.0" stroke-linecap="round" stroke-linejoin="round"/>
    <path d="M 180.5541229248047 8.955134391784668 C 186.7905731201172 24.816253662109375 172.35804748535156 64.3984603881836 178.63180541992188 52.696197509765625" stroke-width="3.0" fill="none" stroke="rgb(0, 0, 0)" stroke-opacity="1.0" stroke-linecap="round" stroke-linejoin="round"/>
    <path d="M 133.4528350830078 34.41957092285156 C 126.20862579345703 48.18946075439453 134.54025268554688 41.726112365722656 126.14199829101562 70.34165954589844" stroke-width="3.0" fill="none" stroke="rgb(0, 0, 0)" stroke-opacity="1.0" stroke-linecap="round" stroke-linejoin="round"/>
    <path d="M 87.22225189208984 48.18518829345703 C 75.43111419677734 -7.282526016235352 84.27618408203125 -1.5960623025894165 112.64888763427734 40.37043762207031" stroke-width="3.0" fill="none" stroke="rgb(0, 0, 0)" stroke-opacity="1.0" stroke-linecap="round" stroke-linejoin="round"/>
    <path d="M 47.57407760620117 168.89100646972656 C 39.70143508911133 153.43092346191406 37.83072280883789 143.54644775390625 45.837589263916016 164.75827026367188" stroke-width="3.0" fill="none" stroke="rgb(0, 0, 0)" stroke-opacity="1.0" stroke-linecap="round" stroke-linejoin="round"/>
    <path d="M 36.02979278564453 98.13777160644531 C 19.03032875061035 125.22413635253906 40.92798614501953 146.80355834960938 42.123779296875 159.16021728515625" stroke-width="3.0" fill="none" stroke="rgb(0, 0, 0)" stroke-opacity="1.0" stroke-linecap="round" stroke-linejoin="round"/>
    <path d="M 86.85362243652344 151.0621795654297 C 107.79583740234375 160.72552490234375 98.62496948242188 160.9416046142578 93.30613708496094 151.77908325195312" stroke-width="3.0" fill="none" stroke="rgb(0, 0, 0)" stroke-opacity="1.0" stroke-linecap="round" stroke-linejoin="round"/>
    <path d="M 86.99794006347656 197.46401977539062 C 69.37834930419922 198.91873168945312 49.89485549926758 176.66476440429688 48.099308013916016 171.8410186767578" stroke-width="3.0" fill="none" stroke="rgb(0, 0, 0)" stroke-opacity="1.0" stroke-linecap="round" stroke-linejoin="round"/>
    <path d="M 48.4953498840332 172.11256408691406 C 64.6839370727539 193.66397094726562 43.802181243896484 169.2278289794922 39.06372833251953 148.59031677246094" stroke-width="3.0" fill="none" stroke="rgb(0, 0, 0)" stroke-opacity="1.0" stroke-linecap="round" stroke-linejoin="round"/>
    <path d="M 79.22410583496094 53.24839782714844 C 62.531982421875 59.631011962890625 43.76627731323242 70.51587677001953 32.11502456665039 106.28275299072266" stroke-width="3.0" fill="none" stroke="rgb(0, 0, 0)" stroke-opacity="1.0" stroke-linecap="round" stroke-linejoin="round"/>
    <path d="M 154.91305541992188 137.84304809570312 C 119.1332778930664 157.43553161621094 117.84900665283203 155.1586151123047 134.63473510742188 154.76377868652344" stroke-width="3.0" fill="none" stroke="rgb(0, 0, 0)" stroke-opacity="1.0" stroke-linecap="round" stroke-linejoin="round"/>
    <path d="M 144.54054260253906 28.136520385742188 C 147.2159881591797 41.570404052734375 134.7198028564453 31.171968460083008 137.61500549316406 82.0749282836914" stroke-width="3.0" fill="none" stroke="rgb(0, 0, 0)" stroke-opacity="1.0" stroke-linecap="round" stroke-linejoin="round"/>
    <path d="M 149.31253051757812 100.06694793701172 C 130.84100341796875 105.90068817138672 132.2759246826172 113.24425506591797 117.68966674804688 104.36582946777344" stroke-width="3.0" fill="none" stroke="rgb(0, 0, 0)" stroke-opacity="1.0" stroke-linecap="round" stroke-linejoin="round"/>
    <path d="M 137.3762664794922 76.02716064453125 C 145.4212646484375 56.301483154296875 129.05589294433594 62.495365142822266 136.61514282226562 78.3586196899414" stroke-width="3.0" fill="none" stroke="rgb(0, 0, 0)" stroke-opacity="1.0" stroke-linecap="round" stroke-linejoin="round"/>
    <path d="M 134.87794494628906 176.5413818359375 C 130.8735809326172 183.16392517089844 137.47401428222656 180.41156005859375 146.83248901367188 145.3446044921875" stroke-width="3.0" fill="none" stroke="rgb(0, 0, 0)" stroke-opacity="1.0" stroke-linecap="round" stroke-linejoin="round"/>
    <path d="M 196.12588500976562 95.37374114990234 C 171.00509643554688 72.50997924804688 167.50296020507812 82.56854248046875 188.35337829589844 87.46814727783203" stroke-width="3.0" fill="none" stroke="rgb(0, 0, 0)" stroke-opacity="1.0" stroke-linecap="round" stroke-linejoin="round"/>
    <path d="M 149.15371704101562 76.66637420654297 C 128.4046630859375 57.92197036743164 195.81639099121094 92.37793731689453 179.11328125 67.19835662841797" stroke-width="3.0" fill="none" stroke="rgb(0, 0, 0)" stroke-opacity="1.0" stroke-linecap="round" stroke-linejoin="round"/>
    <path d="M 109.80006408691406 76.38948822021484 C 79.82630157470703 70.47154235839844 153.27235412597656 72.98426818847656 102.1341552734375 81.91667938232422" stroke-width="3.0" fill="none" stroke="rgb(0, 0, 0)" stroke-opacity="1.0" stroke-linecap="round" stroke-linejoin="round"/>
    <path d="M 160.24147033691406 130.96470642089844 C 131.47708129882812 164.36451721191406 118.22526550292969 149.14886474609375 102.2182846069336 157.23947143554688" stroke-width="3.0" fill="none" stroke="rgb(0, 0, 0)" stroke-opacity="1.0" stroke-linecap="round" stroke-linejoin="round"/>
    <path d="M 124.54254150390625 88.01023864746094 C 141.21217346191406 100.6767807006836 130.550048828125 70.3324966430664 127.82330322265625 107.55310821533203" stroke-width="3.0" fill="none" stroke="rgb(0, 0, 0)" stroke-opacity="1.0" stroke-linecap="round" stroke-linejoin="round"/>
    <path d="M 187.47683715820312 110.66795349121094 C 170.41958618164062 88.27963256835938 183.62928771972656 88.38699340820312 142.642333984375 82.62138366699219" stroke-width="3.0" fill="none" stroke="rgb(0, 0, 0)" stroke-opacity="1.0" stroke-linecap="round" stroke-linejoin="round"/>
    <path d="M 83.83885192871094 7.29459810256958 C 105.65560913085938 10.978582382202148 118.19404602050781 34.7627067565918 123.29454040527344 28.419404983520508" stroke-width="3.0" fill="none" stroke="rgb(0, 0, 0)" stroke-opacity="1.0" stroke-linecap="round" stroke-linejoin="round"/>
    <path d="M 58.24885940551758 122.9885482788086 C 59.49076461791992 118.6348648071289 61.62923812866211 131.49269104003906 61.96192169189453 125.7026596069336" stroke-width="3.0" fill="none" stroke="rgb(0, 0, 0)" stroke-opacity="1.0" stroke-linecap="round" stroke-linejoin="round"/>
    <path d="M 138.25839233398438 104.39764404296875 C 119.66529083251953 92.88021850585938 117.58922576904297 117.44386291503906 108.08261108398438 88.55595397949219" stroke-width="3.0" fill="none" stroke="rgb(0, 0, 0)" stroke-opacity="1.0" stroke-linecap="round" stroke-linejoin="round"/>
    <path d="M 31.802474975585938 132.14369201660156 C 28.044727325439453 102.91769409179688 40.72590255737305 101.76554107666016 47.56499099731445 76.55755615234375" stroke-width="3.0" fill="none" stroke="rgb(0, 0, 0)" stroke-opacity="1.0" stroke-linecap="round" stroke-linejoin="round"/>
    <path d="M 77.74372100830078 197.12448120117188 C 70.9971923828125 192.2809600830078 63.73637008666992 197.1795654296875 103.97732543945312 197.97775268554688" stroke-width="3.0" fill="none" stroke="rgb(0, 0, 0)" stroke-opacity="1.0" stroke-linecap="round" stroke-linejoin="round"/>
    <path d="M 165.0010223388672 131.48524475097656 C 201.22605895996094 116.97498321533203 180.5809326171875 92.98369598388672 159.25975036621094 89.71163940429688" stroke-width="3.0" fill="none" stroke="rgb(0, 0, 0)" stroke-opacity="1.0" stroke-linecap="round" stroke-linejoin="round"/>
    <path d="M 154.39236450195312 68.73397064208984 C 133.8699188232422 85.84331512451172 175.4780731201172 76.90118408203125 148.09568786621094 74.97270965576172" stroke-width="3.0" fill="none" stroke="rgb(0, 0, 0)" stroke-opacity="1.0" stroke-linecap="round" stroke-linejoin="round"/>
    <path d="M 142.20079040527344 77.4350814819336 C 149.3680877685547 44.65388870239258 196.25686645507812 113.0085678100586 179.73486328125 45.38788986206055" stroke-width="3.0" fill="none" stroke="rgb(0, 0, 0)" stroke-opacity="1.0" stroke-linecap="round" stroke-linejoin="round"/>
    <path d="M 160.31488037109375 96.37034606933594 C 167.9932861328125 106.66382598876953 176.3856964111328 103.27135467529297 182.95126342773438 120.21635437011719" stroke-width="3.0" fill="none" stroke="rgb(0, 0, 0)" stroke-opacity="1.0" stroke-linecap="round" stroke-linejoin="round"/>
    <path d="M 176.25242614746094 14.38431453704834 C 167.11752319335938 46.17605972290039 173.60195922851562 22.872432708740234 159.3676300048828 38.093021392822266" stroke-width="3.0" fill="none" stroke="rgb(0, 0, 0)" stroke-opacity="1.0" stroke-linecap="round" stroke-linejoin="round"/>
    <path d="M 120.2466812133789 104.09510040283203 C 144.2327117919922 103.70071411132812 137.26864624023438 110.58740234375 120.24337005615234 104.52275848388672" stroke-width="3.0" fill="none" stroke="rgb(0, 0, 0)" stroke-opacity="1.0" stroke-linecap="round" stroke-linejoin="round"/>
    <path d="M 73.8348617553711 135.15951538085938 C 50.189979553222656 126.2464599609375 62.200035095214844 114.54698944091797 58.32991409301758 120.0610122680664" stroke-width="3.0" fill="none" stroke="rgb(0, 0, 0)" stroke-opacity="1.0" stroke-linecap="round" stroke-linejoin="round"/>
    <path d="M 125.26036071777344 72.114501953125 C 127.50983428955078 36.843170166015625 118.31494903564453 50.951560974121094 124.0067367553711 33.29064178466797" stroke-width="3.0" fill="none" stroke="rgb(0, 0, 0)" stroke-opacity="1.0" stroke-linecap="round" stroke-linejoin="round"/>
    <path d="M 152.16232299804688 23.257150650024414 C 145.99496459960938 34.40644454956055 161.00543212890625 9.16080093383789 179.1568145751953 7.968823432922363" stroke-width="3.0" fill="none" stroke="rgb(0, 0, 0)" stroke-opacity="1.0" stroke-linecap="round" stroke-linejoin="round"/>
  </g>
</svg>
