<?xml version="1.0" ?>
<svg xmlns="http://www.w3.org/2000/svg" version="1.1" width="224" height="224">
  <defs/>
  <g>
    <path d="M 58.559268951416016 99.55394744873047 C 54.15171813964844 93.30028533935547 55.53352355957031 100.71288299560547 51.27610397338867 77.64203643798828" stroke-width="3.0" fill="none" stroke="rgb(0, 0, 0)" stroke-opacity="1.0" stroke-linecap="round" stroke-linejoin="round"/>
    <path d="M 187.43231201171875 117.84493255615234 C 181.56155395507812 112.90059661865234 197.62826538085938 81.47608184814453 180.0786895751953 125.85051727294922" stroke-width="3.0" fill="none" stroke="rgb(0, 0, 0)" stroke-opacity="1.0" stroke-linecap="round" stroke-linejoin="round"/>
    <path d="M 60.00802993774414 108.8710708618164 C 61.03753662109375 104.36796569824219 59.722328186035156 123.75798034667969 68.2676010131836 134.4440460205078" stroke-width="3.0" fill="none" stroke="rgb(0, 0, 0)" stroke-opacity="1.0" stroke-linecap="round" stroke-linejoin="round"/>
    <path d="M 185.50112915039062 94.86239624023438 C 138.57102966308594 83.84663391113281 180.94342041015625 82.30891418457031 191.9525146484375 104.00496673583984" stroke-width="3.0" fill="none" stroke="rgb(0, 0, 0)" stroke-opacity="1.0" stroke-linecap="round" stroke-linejoin="round"/>
    <path d="M 182.53555297851562 68.91256713867188 C 187.5133514404297 100.85735321044922 181.04820251464844 100.8196792602539 180.8289031982422 73.0776138305664" stroke-width="3.0" fill="none" stroke="rgb(0, 0, 0)" stroke-opacity="1.0" stroke-linecap="round" stroke-linejoin="round"/>
    <path d="M 121.560791015625 100.14371490478516 C 140.49032592773438 117.38905334472656 106.92321014404297 96.08119201660156 138.1426544189453 100.06342315673828" stroke-width="3.0" fill="none" stroke="rgb(0, 0, 0)" stroke-opacity="1.0" stroke-linecap="round" stroke-linejoin="round"/>
    <path d="M 183.52578735351562 91.6452407836914 C 181.21449279785156 76.65726470947266 190.00852966308594 71.32223510742188 146.13099670410156 85.1621322631836" stroke-width="3.0" fill="none" stroke="rgb(0, 0, 0)" stroke-opacity="1.0" stroke-linecap="round" stroke-linejoin="round"/>
    <path d="M 64.81657409667969 191.5068817138672 C 37.97876739501953 163.20066833496094 50.306209564208984 167.68626403808594 48.26177978515625 170.1991424560547" stroke-width="3.0" fill="none" stroke="rgb(0, 0, 0)" stroke-opacity="1.0" stroke-linecap="round" stroke-linejoin="round"/>
    <path d="M 57.98467254638672 184.2365264892578 C 86.23920440673828 212.89088439941406 120.3785400390625 196.91282653808594 134.52297973632812 172.80348205566406" stroke-width="3.0" fill="none" stroke="rgb(0, 0, 0)" stroke-opacity="1.0" stroke-linecap="round" stroke-linejoin="round"/>
    <path d="M 84.47291564941406 33.21623229980469 C 96.6583480834961 80.08111572265625 87.19878387451172 6.895510196685791 84.28492736816406 52.49610900878906" stroke-width="3.0" fill="none" stroke="rgb(0, 0, 0)" stroke-opacity="1.0" stroke-linecap="round" stroke-linejoin="round"/>
    <path d="M 52.35866928100586 83.17005157470703 C 68.99979400634766 142.7381134033203 76.74253845214844 144.30270385742188 68.92382049560547 136.95919799804688" stroke-width="3.0" fill="none" stroke="rgb(0, 0, 0)" stroke-opacity="1.0" stroke-linecap="round" stroke-linejoin="round"/>
    <path d="M 147.52613830566406 70.20092010498047 C 203.34237670898438 65.49565887451172 195.75448608398438 88.82501983642578 136.29730224609375 83.10202026367188" stroke-width="3.0" fill="none" stroke="rgb(0, 0, 0)" stroke-opacity="1.0" stroke-linecap="round" stroke-linejoin="round"/>
    <path d="M 150.41270446777344 92.86039733886719 C 181.635009765625 100.18568420410156 180.62066650390625 99.13349914550781 195.59658813476562 113.1867446899414" stroke-width="3.0" fill="none" stroke="rgb(0, 0, 0)" stroke-opacity="1.0" stroke-linecap="round" stroke-linejoin="round"/>
    <path d="M 119.89189147949219 151.467041015625 C 151.2801971435547 155.543212890625 110.66667175292969 146.5984649658203 102.2554931640625 155.53878784179688" stroke-width="3.0" fill="none" stroke="rgb(0, 0, 0)" stroke-opacity="1.0" stroke-linecap="round" stroke-linejoin="round"/>
    <path d="M 179.62567138671875 7.462521076202393 C 186.26467895507812 24.83811378479004 173.8347930908203 73.88712310791016 177.67015075683594 50.42230987548828" stroke-width="3.0" fill="none" stroke="rgb(0, 0, 0)" stroke-opacity="1.0" stroke-linecap="round" stroke-linejoin="round"/>
    <path d="M 135.89517211914062 28.63208770751953 C 113.00279235839844 24.00434112548828 134.82337951660156 44.719642639160156 124.70301818847656 68.60223388671875" stroke-width="3.0" fill="none" stroke="rgb(0, 0, 0)" stroke-opacity="1.0" stroke-linecap="round" stroke-linejoin="round"/>
    <path d="M 95.62944793701172 47.26470184326172 C 68.57828521728516 -5.5729899406433105 86.88497924804688 0.5803608894348145 120.75115203857422 31.33362579345703" stroke-width="3.0" fill="none" stroke="rgb(0, 0, 0)" stroke-opacity="1.0" stroke-linecap="round" stroke-linejoin="round"/>
    <path d="M 46.86662292480469 165.93203735351562 C 42.39820098876953 154.50442504882812 39.024559020996094 147.11180114746094 48.087928771972656 171.33705139160156" stroke-width="3.0" fill="none" stroke="rgb(0, 0, 0)" stroke-opacity="1.0" stroke-linecap="round" stroke-linejoin="round"/>
    <path d="M 35.823486328125 97.71086883544922 C 22.19538116455078 133.0084228515625 41.731632232666016 145.4848175048828 44.68328094482422 163.31016540527344" stroke-width="3.0" fill="none" stroke="rgb(0, 0, 0)" stroke-opacity="1.0" stroke-linecap="round" stroke-linejoin="round"/>
    <path d="M 73.11790466308594 142.48504638671875 C 113.0819320678711 159.39260864257812 93.95903015136719 152.9486541748047 94.9476547241211 148.5826873779297" stroke-width="3.0" fill="none" stroke="rgb(0, 0, 0)" stroke-opacity="1.0" stroke-linecap="round" stroke-linejoin="round"/>
    <path d="M 89.1016845703125 197.21612548828125 C 67.97418212890625 202.43341064453125 48.34598922729492 176.24847412109375 48.27235794067383 170.0759735107422" stroke-width="3.0" fill="none" stroke="rgb(0, 0, 0)" stroke-opacity="1.0" stroke-linecap="round" stroke-linejoin="round"/>
    <path d="M 49.517189025878906 174.48912048339844 C 66.22218322753906 194.88035583496094 46.40885543823242 171.39959716796875 41.409122467041016 150.1370849609375" stroke-width="3.0" fill="none" stroke="rgb(0, 0, 0)" stroke-opacity="1.0" stroke-linecap="round" stroke-linejoin="round"/>
    <path d="M 79.62584686279297 53.94211196899414 C 63.241241455078125 53.084163665771484 49.138999938964844 72.71407318115234 32.19232177734375 110.41161346435547" stroke-width="3.0" fill="none" stroke="rgb(0, 0, 0)" stroke-opacity="1.0" stroke-linecap="round" stroke-linejoin="round"/>
    <path d="M 157.63961791992188 143.9967498779297 C 112.20033264160156 157.498291015625 102.81161499023438 153.43917846679688 148.24868774414062 148.45709228515625" stroke-width="3.0" fill="none" stroke="rgb(0, 0, 0)" stroke-opacity="1.0" stroke-linecap="round" stroke-linejoin="round"/>
    <path d="M 153.56576538085938 25.433469772338867 C 138.7763671875 29.173913955688477 129.3717041015625 11.92645263671875 139.95729064941406 78.78028869628906" stroke-width="3.0" fill="none" stroke="rgb(0, 0, 0)" stroke-opacity="1.0" stroke-linecap="round" stroke-linejoin="round"/>
    <path d="M 144.53616333007812 92.2818603515625 C 134.7813720703125 104.13690185546875 127.94635772705078 95.29386138916016 116.88188934326172 100.45547485351562" stroke-width="3.0" fill="none" stroke="rgb(0, 0, 0)" stroke-opacity="1.0" stroke-linecap="round" stroke-linejoin="round"/>
    <path d="M 135.7644805908203 77.39439392089844 C 139.82608032226562 62.14383316040039 130.97799682617188 73.92105102539062 137.55108642578125 82.02851104736328" stroke-width="3.0" fill="none" stroke="rgb(0, 0, 0)" stroke-opacity="1.0" stroke-linecap="round" stroke-linejoin="round"/>
    <path d="M 139.3496856689453 166.22769165039062 C 126.27645111083984 179.20802307128906 140.8983612060547 172.5858917236328 148.15499877929688 146.71694946289062" stroke-width="3.0" fill="none" stroke="rgb(0, 0, 0)" stroke-opacity="1.0" stroke-linecap="round" stroke-linejoin="round"/>
    <path d="M 195.0188751220703 95.00676727294922 C 166.3842010498047 75.32981872558594 176.10470581054688 79.35132598876953 185.97589111328125 94.75458526611328" stroke-width="3.0" fill="none" stroke="rgb(0, 0, 0)" stroke-opacity="1.0" stroke-linecap="round" stroke-linejoin="round"/>
    <path d="M 155.61671447753906 69.20633697509766 C 120.96099853515625 57.02972412109375 208.1620635986328 84.18508911132812 176.8682861328125 67.01001739501953" stroke-width="3.0" fill="none" stroke="rgb(0, 0, 0)" stroke-opacity="1.0" stroke-linecap="round" stroke-linejoin="round"/>
    <path d="M 111.18941497802734 83.1483383178711 C 91.18984985351562 73.66061401367188 131.8208465576172 77.61738586425781 107.25445556640625 83.13519287109375" stroke-width="3.0" fill="none" stroke="rgb(0, 0, 0)" stroke-opacity="1.0" stroke-linecap="round" stroke-linejoin="round"/>
    <path d="M 166.55850219726562 128.9333953857422 C 155.13050842285156 158.97268676757812 112.17622375488281 147.8858642578125 101.041259765625 152.94204711914062" stroke-width="3.0" fill="none" stroke="rgb(0, 0, 0)" stroke-opacity="1.0" stroke-linecap="round" stroke-linejoin="round"/>
    <path d="M 121.02483367919922 88.00700378417969 C 137.3865203857422 97.74480438232422 126.231689453125 71.71393585205078 123.98112487792969 104.76631164550781" stroke-width="3.0" fill="none" stroke="rgb(0, 0, 0)" stroke-opacity="1.0" stroke-linecap="round" stroke-linejoin="round"/>
    <path d="M 183.03074645996094 113.69976043701172 C 167.3654022216797 84.70303344726562 191.19989013671875 84.63412475585938 151.26446533203125 88.8481216430664" stroke-width="3.0" fill="none" stroke="rgb(0, 0, 0)" stroke-opacity="1.0" stroke-linecap="round" stroke-linejoin="round"/>
    <path d="M 86.72298431396484 9.573145866394043 C 107.12879180908203 17.2535400390625 105.38382720947266 32.9622917175293 132.14686584472656 27.754968643188477" stroke-width="3.0" fill="none" stroke="rgb(0, 0, 0)" stroke-opacity="1.0" stroke-linecap="round" stroke-linejoin="round"/>
    <path d="M 61.010009765625 116.58619689941406 C 58.682071685791016 109.99502563476562 63.85319137573242 122.62242889404297 68.6729507446289 132.93287658691406" stroke-width="3.0" fill="none" stroke="rgb(0, 0, 0)" stroke-opacity="1.0" stroke-linecap="round" stroke-linejoin="round"/>
    <path d="M 130.10450744628906 106.22933959960938 C 141.62899780273438 91.10798645019531 118.54413604736328 118.04898071289062 111.0084457397461 90.04558563232422" stroke-width="3.0" fill="none" stroke="rgb(0, 0, 0)" stroke-opacity="1.0" stroke-linecap="round" stroke-linejoin="round"/>
    <path d="M 32.17192840576172 131.61538696289062 C 26.13210678100586 110.43104553222656 34.908905029296875 91.1898193359375 54.839988708496094 69.721435546875" stroke-width="3.0" fill="none" stroke="rgb(0, 0, 0)" stroke-opacity="1.0" stroke-linecap="round" stroke-linejoin="round"/>
    <path d="M 83.5491943359375 198.1560516357422 C 68.3333969116211 191.30679321289062 70.9197998046875 197.1249542236328 102.49858093261719 198.21878051757812" stroke-width="3.0" fill="none" stroke="rgb(0, 0, 0)" stroke-opacity="1.0" stroke-linecap="round" stroke-linejoin="round"/>
    <path d="M 168.68484497070312 129.7668914794922 C 202.60728454589844 110.93578338623047 181.86599731445312 96.10955810546875 156.49102783203125 89.00236511230469" stroke-width="3.0" fill="none" stroke="rgb(0, 0, 0)" stroke-opacity="1.0" stroke-linecap="round" stroke-linejoin="round"/>
    <path d="M 155.55787658691406 71.2330551147461 C 138.63526916503906 84.07353973388672 168.3424530029297 73.71966552734375 148.56338500976562 71.26979064941406" stroke-width="3.0" fill="none" stroke="rgb(0, 0, 0)" stroke-opacity="1.0" stroke-linecap="round" stroke-linejoin="round"/>
    <path d="M 140.71876525878906 76.5002212524414 C 141.99098205566406 37.676456451416016 197.90650939941406 112.4489517211914 177.6439971923828 45.814388275146484" stroke-width="3.0" fill="none" stroke="rgb(0, 0, 0)" stroke-opacity="1.0" stroke-linecap="round" stroke-linejoin="round"/>
    <path d="M 153.05528259277344 99.55157470703125 C 169.22744750976562 106.10205841064453 174.367431640625 102.24505615234375 181.3603973388672 118.5596923828125" stroke-width="3.0" fill="none" stroke="rgb(0, 0, 0)" stroke-opacity="1.0" stroke-linecap="round" stroke-linejoin="round"/>
    <path d="M 177.17153930664062 15.951491355895996 C 167.9103240966797 36.9547119140625 171.41342163085938 19.797094345092773 152.56785583496094 33.66842269897461" stroke-width="3.0" fill="none" stroke="rgb(0, 0, 0)" stroke-opacity="1.0" stroke-linecap="round" stroke-linejoin="round"/>
    <path d="M 117.27729797363281 99.51885986328125 C 145.3284912109375 90.68995666503906 134.28599548339844 112.6407241821289 117.72542572021484 102.49435424804688" stroke-width="3.0" fill="none" stroke="rgb(0, 0, 0)" stroke-opacity="1.0" stroke-linecap="round" stroke-linejoin="round"/>
    <path d="M 69.33172607421875 126.46721649169922 C 54.54624938964844 113.1302490234375 61.9081916809082 108.31208801269531 61.20838928222656 115.02061462402344" stroke-width="3.0" fill="none" stroke="rgb(0, 0, 0)" stroke-opacity="1.0" stroke-linecap="round" stroke-linejoin="round"/>
    <path d="M 122.2675552368164 76.88668060302734 C 127.71015930175781 44.82799530029297 116.52892303466797 54.29296112060547 121.1002426147461 38.466697692871094" stroke-width="3.0" fill="none" stroke="rgb(0, 0, 0)" stroke-opacity="1.0" stroke-linecap="round" stroke-linejoin="round"/>
    <path d="M 156.16397094726562 21.8523006439209 C 148.6479949951172 32.20277404785156 164.5570526123047 7.024451732635498 178.70127868652344 7.48455286026001" stroke-width="3.0" fill="none" stroke="rgb(0, 0, 0)" stroke-opacity="1.0" stroke-linecap="round" stroke-linejoin="round"/>
  </g>
</svg>
