<?xml version="1.0" ?>
<svg xmlns="http://www.w3.org/2000/svg" version="1.1" width="224" height="224">
  <defs/>
  <g>
    <path d="M 60.253135681152344 95.84326934814453 C 66.40497589111328 87.54332733154297 55.8390998840332 86.58291625976562 73.18374633789062 59.32857131958008" stroke-width="3.0" fill="none" stroke="rgb(0, 0, 0)" stroke-opacity="1.0" stroke-linecap="round" stroke-linejoin="round"/>
    <path d="M 191.7352294921875 111.2864761352539 C 188.3994903564453 107.94972229003906 194.8592529296875 97.69397735595703 180.0533905029297 127.95043182373047" stroke-width="3.0" fill="none" stroke="rgb(0, 0, 0)" stroke-opacity="1.0" stroke-linecap="round" stroke-linejoin="round"/>
    <path d="M 62.10702896118164 122.5292739868164 C 53.37997817993164 86.65742492675781 58.06367874145508 125.29151916503906 63.89336013793945 123.094482421875" stroke-width="3.0" fill="none" stroke="rgb(0, 0, 0)" stroke-opacity="1.0" stroke-linecap="round" stroke-linejoin="round"/>
    <path d="M 185.47174072265625 94.6302490234375 C 155.50909423828125 69.44918823242188 179.76669311523438 77.9906997680664 187.23216247558594 102.84223175048828" stroke-width="3.0" fill="none" stroke="rgb(0, 0, 0)" stroke-opacity="1.0" stroke-linecap="round" stroke-linejoin="round"/>
    <path d="M 178.05755615234375 42.15814971923828 C 192.43231201171875 98.85669708251953 178.16957092285156 110.12311553955078 182.59458923339844 61.559715270996094" stroke-width="3.0" fill="none" stroke="rgb(0, 0, 0)" stroke-opacity="1.0" stroke-linecap="round" stroke-linejoin="round"/>
    <path d="M 129.09632873535156 102.24315643310547 C 149.3241729736328 118.93108367919922 97.4169921875 101.52415466308594 139.30467224121094 104.21039581298828" stroke-width="3.0" fill="none" stroke="rgb(0, 0, 0)" stroke-opacity="1.0" stroke-linecap="round" stroke-linejoin="round"/>
    <path d="M 183.27139282226562 86.76732635498047 C 169.3833770751953 85.39119720458984 190.54441833496094 71.53133392333984 156.6231689453125 86.58361053466797" stroke-width="3.0" fill="none" stroke="rgb(0, 0, 0)" stroke-opacity="1.0" stroke-linecap="round" stroke-linejoin="round"/>
    <path d="M 64.61727905273438 191.10696411132812 C 41.60805892944336 168.62521362304688 45.46098327636719 170.35328674316406 62.144927978515625 186.3360595703125" stroke-width="3.0" fill="none" stroke="rgb(0, 0, 0)" stroke-opacity="1.0" stroke-linecap="round" stroke-linejoin="round"/>
    <path d="M 58.161865234375 182.2569580078125 C 90.78460693359375 211.2381591796875 133.6798858642578 197.3415985107422 136.09303283691406 161.291259765625" stroke-width="3.0" fill="none" stroke="rgb(0, 0, 0)" stroke-opacity="1.0" stroke-linecap="round" stroke-linejoin="round"/>
    <path d="M 82.58338165283203 12.966944694519043 C 91.43093872070312 78.51486206054688 91.435791015625 13.673873901367188 83.14732360839844 56.49604415893555" stroke-width="3.0" fill="none" stroke="rgb(0, 0, 0)" stroke-opacity="1.0" stroke-linecap="round" stroke-linejoin="round"/>
    <path d="M 60.83784103393555 93.13389587402344 C 50.3524055480957 128.0496826171875 75.98015594482422 128.60104370117188 60.723941802978516 118.94331359863281" stroke-width="3.0" fill="none" stroke="rgb(0, 0, 0)" stroke-opacity="1.0" stroke-linecap="round" stroke-linejoin="round"/>
    <path d="M 147.2399444580078 72.54888153076172 C 190.19606018066406 72.13126373291016 198.42324829101562 90.12247467041016 138.515625 87.08263397216797" stroke-width="3.0" fill="none" stroke="rgb(0, 0, 0)" stroke-opacity="1.0" stroke-linecap="round" stroke-linejoin="round"/>
    <path d="M 149.00123596191406 97.03144073486328 C 180.91639709472656 101.10863494873047 175.0160369873047 100.61660766601562 195.44613647460938 115.31130981445312" stroke-width="3.0" fill="none" stroke="rgb(0, 0, 0)" stroke-opacity="1.0" stroke-linecap="round" stroke-linejoin="round"/>
    <path d="M 130.2181854248047 149.75279235839844 C 166.49839782714844 162.00302124023438 98.66512298583984 144.32479858398438 94.85762786865234 149.02886962890625" stroke-width="3.0" fill="none" stroke="rgb(0, 0, 0)" stroke-opacity="1.0" stroke-linecap="round" stroke-linejoin="round"/>
    <path d="M 178.6061553955078 7.5413713455200195 C 188.4676055908203 19.59427261352539 167.2348175048828 100.05400848388672 182.5435333251953 55.15392303466797" stroke-width="3.0" fill="none" stroke="rgb(0, 0, 0)" stroke-opacity="1.0" stroke-linecap="round" stroke-linejoin="round"/>
    <path d="M 145.09417724609375 30.571590423583984 C 109.93797302246094 25.57345199584961 134.78201293945312 29.960485458374023 127.09891510009766 62.54671859741211" stroke-width="3.0" fill="none" stroke="rgb(0, 0, 0)" stroke-opacity="1.0" stroke-linecap="round" stroke-linejoin="round"/>
    <path d="M 101.71614074707031 47.10234451293945 C 64.36751556396484 -4.092578411102295 86.38189697265625 2.596860885620117 120.94874572753906 33.601016998291016" stroke-width="3.0" fill="none" stroke="rgb(0, 0, 0)" stroke-opacity="1.0" stroke-linecap="round" stroke-linejoin="round"/>
    <path d="M 45.566810607910156 162.65533447265625 C 43.795982360839844 159.47396850585938 38.08799743652344 155.82827758789062 50.49204635620117 174.54002380371094" stroke-width="3.0" fill="none" stroke="rgb(0, 0, 0)" stroke-opacity="1.0" stroke-linecap="round" stroke-linejoin="round"/>
    <path d="M 59.62763214111328 69.5567398071289 C 21.397441864013672 125.46217346191406 40.563232421875 138.34378051757812 43.89859390258789 162.0244140625" stroke-width="3.0" fill="none" stroke="rgb(0, 0, 0)" stroke-opacity="1.0" stroke-linecap="round" stroke-linejoin="round"/>
    <path d="M 72.09083557128906 134.38961791992188 C 134.3343048095703 165.6631317138672 103.5894546508789 150.85794067382812 86.0790786743164 143.23866271972656" stroke-width="3.0" fill="none" stroke="rgb(0, 0, 0)" stroke-opacity="1.0" stroke-linecap="round" stroke-linejoin="round"/>
    <path d="M 88.44828033447266 198.293212890625 C 64.91986846923828 202.70286560058594 48.70172882080078 176.97398376464844 42.57877731323242 154.17648315429688" stroke-width="3.0" fill="none" stroke="rgb(0, 0, 0)" stroke-opacity="1.0" stroke-linecap="round" stroke-linejoin="round"/>
    <path d="M 49.65909194946289 173.9498291015625 C 67.27008819580078 200.77427673339844 49.282936096191406 174.4652862548828 38.46846389770508 143.13153076171875" stroke-width="3.0" fill="none" stroke="rgb(0, 0, 0)" stroke-opacity="1.0" stroke-linecap="round" stroke-linejoin="round"/>
    <path d="M 79.75688934326172 56.095088958740234 C 56.253170013427734 59.23678970336914 64.90616607666016 70.64138793945312 38.065372467041016 119.94896697998047" stroke-width="3.0" fill="none" stroke="rgb(0, 0, 0)" stroke-opacity="1.0" stroke-linecap="round" stroke-linejoin="round"/>
    <path d="M 157.2607879638672 143.5644989013672 C 103.88713073730469 158.81849670410156 68.94090270996094 149.65672302246094 141.6777801513672 150.501220703125" stroke-width="3.0" fill="none" stroke="rgb(0, 0, 0)" stroke-opacity="1.0" stroke-linecap="round" stroke-linejoin="round"/>
    <path d="M 149.84043884277344 28.03626823425293 C 146.10958862304688 33.21674346923828 137.5690460205078 12.591800689697266 137.21275329589844 73.69908142089844" stroke-width="3.0" fill="none" stroke="rgb(0, 0, 0)" stroke-opacity="1.0" stroke-linecap="round" stroke-linejoin="round"/>
    <path d="M 144.18338012695312 100.76929473876953 C 124.29551696777344 114.68902587890625 121.62608337402344 110.39137268066406 113.44713592529297 94.20133209228516" stroke-width="3.0" fill="none" stroke="rgb(0, 0, 0)" stroke-opacity="1.0" stroke-linecap="round" stroke-linejoin="round"/>
    <path d="M 137.85597229003906 70.7132339477539 C 141.82142639160156 55.973758697509766 132.02279663085938 70.79737091064453 139.7886199951172 71.6528091430664" stroke-width="3.0" fill="none" stroke="rgb(0, 0, 0)" stroke-opacity="1.0" stroke-linecap="round" stroke-linejoin="round"/>
    <path d="M 136.10061645507812 161.25146484375 C 131.10940551757812 164.32174682617188 144.77935791015625 159.76776123046875 146.43453979492188 146.74879455566406" stroke-width="3.0" fill="none" stroke="rgb(0, 0, 0)" stroke-opacity="1.0" stroke-linecap="round" stroke-linejoin="round"/>
    <path d="M 194.60491943359375 94.61698913574219 C 165.5226593017578 65.44308471679688 177.29176330566406 66.84681701660156 190.30723571777344 97.12671661376953" stroke-width="3.0" fill="none" stroke="rgb(0, 0, 0)" stroke-opacity="1.0" stroke-linecap="round" stroke-linejoin="round"/>
    <path d="M 154.1092071533203 77.60789489746094 C 120.57418060302734 57.39592361450195 212.67579650878906 88.30360412597656 175.27565002441406 67.97615814208984" stroke-width="3.0" fill="none" stroke="rgb(0, 0, 0)" stroke-opacity="1.0" stroke-linecap="round" stroke-linejoin="round"/>
    <path d="M 112.6087646484375 82.33526611328125 C 84.23707580566406 72.30062866210938 134.75570678710938 74.32657623291016 107.82058715820312 81.3279037475586" stroke-width="3.0" fill="none" stroke="rgb(0, 0, 0)" stroke-opacity="1.0" stroke-linecap="round" stroke-linejoin="round"/>
    <path d="M 170.86692810058594 130.50340270996094 C 154.19093322753906 155.3252716064453 92.56841278076172 146.3238983154297 89.95664978027344 147.0575714111328" stroke-width="3.0" fill="none" stroke="rgb(0, 0, 0)" stroke-opacity="1.0" stroke-linecap="round" stroke-linejoin="round"/>
    <path d="M 121.11815643310547 88.52826690673828 C 140.44122314453125 97.58735656738281 124.35771942138672 72.2818374633789 128.022216796875 107.67656707763672" stroke-width="3.0" fill="none" stroke="rgb(0, 0, 0)" stroke-opacity="1.0" stroke-linecap="round" stroke-linejoin="round"/>
    <path d="M 188.90689086914062 109.27466583251953 C 168.7573699951172 87.00533294677734 168.82412719726562 99.03461456298828 141.63067626953125 82.8556900024414" stroke-width="3.0" fill="none" stroke="rgb(0, 0, 0)" stroke-opacity="1.0" stroke-linecap="round" stroke-linejoin="round"/>
    <path d="M 91.01032257080078 24.64544105529785 C 126.65496826171875 30.920446395874023 88.04112243652344 31.371091842651367 150.3953857421875 28.128856658935547" stroke-width="3.0" fill="none" stroke="rgb(0, 0, 0)" stroke-opacity="1.0" stroke-linecap="round" stroke-linejoin="round"/>
    <path d="M 59.63981246948242 116.13931274414062 C 61.36973190307617 95.58711242675781 49.03482437133789 115.78229522705078 71.52566528320312 137.27960205078125" stroke-width="3.0" fill="none" stroke="rgb(0, 0, 0)" stroke-opacity="1.0" stroke-linecap="round" stroke-linejoin="round"/>
    <path d="M 136.20352172851562 105.37879943847656 C 119.71195983886719 86.10102081298828 121.94707489013672 124.04510498046875 111.94682312011719 91.4638671875" stroke-width="3.0" fill="none" stroke="rgb(0, 0, 0)" stroke-opacity="1.0" stroke-linecap="round" stroke-linejoin="round"/>
    <path d="M 38.224456787109375 143.80294799804688 C 23.962162017822266 119.5140151977539 38.338714599609375 76.68949127197266 65.00655364990234 62.1458625793457" stroke-width="3.0" fill="none" stroke="rgb(0, 0, 0)" stroke-opacity="1.0" stroke-linecap="round" stroke-linejoin="round"/>
    <path d="M 88.42830657958984 196.8148956298828 C 80.24266052246094 196.09072875976562 72.8165283203125 195.7245330810547 103.191162109375 197.27322387695312" stroke-width="3.0" fill="none" stroke="rgb(0, 0, 0)" stroke-opacity="1.0" stroke-linecap="round" stroke-linejoin="round"/>
    <path d="M 169.34121704101562 129.16123962402344 C 200.6433563232422 110.61780548095703 195.6649169921875 88.70695495605469 150.72369384765625 91.61774444580078" stroke-width="3.0" fill="none" stroke="rgb(0, 0, 0)" stroke-opacity="1.0" stroke-linecap="round" stroke-linejoin="round"/>
    <path d="M 158.41162109375 70.91199493408203 C 129.26730346679688 80.7915267944336 166.30641174316406 83.52857208251953 153.494140625 68.2603759765625" stroke-width="3.0" fill="none" stroke="rgb(0, 0, 0)" stroke-opacity="1.0" stroke-linecap="round" stroke-linejoin="round"/>
    <path d="M 138.8284149169922 77.0704345703125 C 141.4660186767578 39.23649597167969 208.30453491210938 114.84378814697266 177.1844482421875 52.65643310546875" stroke-width="3.0" fill="none" stroke="rgb(0, 0, 0)" stroke-opacity="1.0" stroke-linecap="round" stroke-linejoin="round"/>
    <path d="M 154.4864044189453 96.64833068847656 C 172.39227294921875 109.20604705810547 181.39837646484375 102.92529296875 185.523193359375 123.62796020507812" stroke-width="3.0" fill="none" stroke="rgb(0, 0, 0)" stroke-opacity="1.0" stroke-linecap="round" stroke-linejoin="round"/>
    <path d="M 177.7325439453125 17.101436614990234 C 177.15213012695312 45.03790283203125 174.33700561523438 22.25602912902832 159.85765075683594 39.31928253173828" stroke-width="3.0" fill="none" stroke="rgb(0, 0, 0)" stroke-opacity="1.0" stroke-linecap="round" stroke-linejoin="round"/>
    <path d="M 121.9808120727539 103.09388732910156 C 147.2927703857422 97.37303924560547 126.31596374511719 113.08263397216797 122.8729019165039 104.53598022460938" stroke-width="3.0" fill="none" stroke="rgb(0, 0, 0)" stroke-opacity="1.0" stroke-linecap="round" stroke-linejoin="round"/>
    <path d="M 61.68907928466797 104.20488739013672 C 59.737491607666016 104.93279266357422 55.54076385498047 115.15682220458984 62.474815368652344 117.75275421142578" stroke-width="3.0" fill="none" stroke="rgb(0, 0, 0)" stroke-opacity="1.0" stroke-linecap="round" stroke-linejoin="round"/>
    <path d="M 121.03336334228516 76.90424346923828 C 127.0558090209961 49.4493522644043 116.60140991210938 58.61822509765625 119.26739501953125 36.87602996826172" stroke-width="3.0" fill="none" stroke="rgb(0, 0, 0)" stroke-opacity="1.0" stroke-linecap="round" stroke-linejoin="round"/>
    <path d="M 144.09764099121094 30.70343589782715 C 143.55230712890625 38.76729965209961 161.291259765625 9.2545166015625 177.23312377929688 7.856252193450928" stroke-width="3.0" fill="none" stroke="rgb(0, 0, 0)" stroke-opacity="1.0" stroke-linecap="round" stroke-linejoin="round"/>
  </g>
</svg>
