<?xml version="1.0" ?>
<svg xmlns="http://www.w3.org/2000/svg" version="1.1" width="224" height="224">
  <defs/>
  <g>
    <path d="M 59.21674728393555 95.1352310180664 C 60.342220306396484 86.1812515258789 55.47772979736328 83.81982421875 72.90030670166016 57.600318908691406" stroke-width="3.0" fill="none" stroke="rgb(0, 0, 0)" stroke-opacity="1.0" stroke-linecap="round" stroke-linejoin="round"/>
    <path d="M 195.60806274414062 115.10916900634766 C 181.37437438964844 104.70494079589844 188.46829223632812 97.59040069580078 178.37774658203125 128.06533813476562" stroke-width="3.0" fill="none" stroke="rgb(0, 0, 0)" stroke-opacity="1.0" stroke-linecap="round" stroke-linejoin="round"/>
    <path d="M 60.6357536315918 118.82563018798828 C 54.22106170654297 87.24736785888672 61.35681915283203 124.4797134399414 65.48260498046875 118.14932250976562" stroke-width="3.0" fill="none" stroke="rgb(0, 0, 0)" stroke-opacity="1.0" stroke-linecap="round" stroke-linejoin="round"/>
    <path d="M 185.0621337890625 94.70525360107422 C 154.1628875732422 68.79671478271484 180.20809936523438 75.00393676757812 187.32794189453125 98.97601318359375" stroke-width="3.0" fill="none" stroke="rgb(0, 0, 0)" stroke-opacity="1.0" stroke-linecap="round" stroke-linejoin="round"/>
    <path d="M 177.4591827392578 48.42139434814453 C 195.5520477294922 94.70862579345703 181.8937225341797 104.22419738769531 182.243408203125 56.46647644042969" stroke-width="3.0" fill="none" stroke="rgb(0, 0, 0)" stroke-opacity="1.0" stroke-linecap="round" stroke-linejoin="round"/>
    <path d="M 131.8003387451172 100.264892578125 C 154.0410919189453 116.25882720947266 99.9232177734375 101.70379638671875 135.27093505859375 102.79833221435547" stroke-width="3.0" fill="none" stroke="rgb(0, 0, 0)" stroke-opacity="1.0" stroke-linecap="round" stroke-linejoin="round"/>
    <path d="M 185.95663452148438 87.73847961425781 C 169.6406707763672 88.0368881225586 183.63710021972656 71.03935241699219 153.45794677734375 87.41988372802734" stroke-width="3.0" fill="none" stroke="rgb(0, 0, 0)" stroke-opacity="1.0" stroke-linecap="round" stroke-linejoin="round"/>
    <path d="M 66.01148223876953 191.10400390625 C 40.6402473449707 171.8372802734375 48.79607391357422 167.0572509765625 61.842498779296875 189.71124267578125" stroke-width="3.0" fill="none" stroke="rgb(0, 0, 0)" stroke-opacity="1.0" stroke-linecap="round" stroke-linejoin="round"/>
    <path d="M 57.44183349609375 183.7796630859375 C 83.8336181640625 214.2897186279297 134.2086944580078 197.5376739501953 139.15509033203125 163.42453002929688" stroke-width="3.0" fill="none" stroke="rgb(0, 0, 0)" stroke-opacity="1.0" stroke-linecap="round" stroke-linejoin="round"/>
    <path d="M 81.47731018066406 12.872030258178711 C 92.92366790771484 79.8435287475586 90.54691314697266 10.665424346923828 87.81240844726562 52.5648078918457" stroke-width="3.0" fill="none" stroke="rgb(0, 0, 0)" stroke-opacity="1.0" stroke-linecap="round" stroke-linejoin="round"/>
    <path d="M 60.451908111572266 91.24246215820312 C 49.07077407836914 127.87562561035156 78.11275482177734 131.93484497070312 61.515743255615234 118.77735900878906" stroke-width="3.0" fill="none" stroke="rgb(0, 0, 0)" stroke-opacity="1.0" stroke-linecap="round" stroke-linejoin="round"/>
    <path d="M 146.14344787597656 74.8100814819336 C 196.28700256347656 64.98187255859375 206.3487548828125 87.12846374511719 141.22970581054688 86.84703826904297" stroke-width="3.0" fill="none" stroke="rgb(0, 0, 0)" stroke-opacity="1.0" stroke-linecap="round" stroke-linejoin="round"/>
    <path d="M 148.82080078125 97.39407348632812 C 186.7151641845703 100.42398071289062 172.6166229248047 102.38048553466797 190.1513214111328 112.07852172851562" stroke-width="3.0" fill="none" stroke="rgb(0, 0, 0)" stroke-opacity="1.0" stroke-linecap="round" stroke-linejoin="round"/>
    <path d="M 131.00865173339844 154.23983764648438 C 172.23817443847656 155.18121337890625 100.07264709472656 146.0885772705078 100.96275329589844 155.3321075439453" stroke-width="3.0" fill="none" stroke="rgb(0, 0, 0)" stroke-opacity="1.0" stroke-linecap="round" stroke-linejoin="round"/>
    <path d="M 179.61203002929688 9.494560241699219 C 191.81423950195312 15.969082832336426 169.57484436035156 95.72139739990234 183.78968811035156 59.88212585449219" stroke-width="3.0" fill="none" stroke="rgb(0, 0, 0)" stroke-opacity="1.0" stroke-linecap="round" stroke-linejoin="round"/>
    <path d="M 147.41954040527344 29.637353897094727 C 107.28302001953125 26.130159378051758 134.14132690429688 19.806419372558594 130.23223876953125 64.94976043701172" stroke-width="3.0" fill="none" stroke="rgb(0, 0, 0)" stroke-opacity="1.0" stroke-linecap="round" stroke-linejoin="round"/>
    <path d="M 105.42733764648438 47.70180892944336 C 63.82685089111328 -5.982564926147461 84.3270492553711 2.9491982460021973 120.75804901123047 31.822511672973633" stroke-width="3.0" fill="none" stroke="rgb(0, 0, 0)" stroke-opacity="1.0" stroke-linecap="round" stroke-linejoin="round"/>
    <path d="M 44.040863037109375 159.4990997314453 C 42.68790817260742 160.8770294189453 41.57694625854492 154.88485717773438 49.95060729980469 174.89601135253906" stroke-width="3.0" fill="none" stroke="rgb(0, 0, 0)" stroke-opacity="1.0" stroke-linecap="round" stroke-linejoin="round"/>
    <path d="M 58.14614486694336 67.1571273803711 C 19.902372360229492 121.38115692138672 39.86040496826172 141.69207763671875 44.10464859008789 162.4975128173828" stroke-width="3.0" fill="none" stroke="rgb(0, 0, 0)" stroke-opacity="1.0" stroke-linecap="round" stroke-linejoin="round"/>
    <path d="M 69.62217712402344 135.3227081298828 C 136.6455841064453 169.11959838867188 109.6235122680664 149.47056579589844 90.20462036132812 142.70748901367188" stroke-width="3.0" fill="none" stroke="rgb(0, 0, 0)" stroke-opacity="1.0" stroke-linecap="round" stroke-linejoin="round"/>
    <path d="M 85.19709014892578 197.5952606201172 C 64.88700866699219 198.9597625732422 45.73443603515625 177.86376953125 41.75994873046875 150.2890625" stroke-width="3.0" fill="none" stroke="rgb(0, 0, 0)" stroke-opacity="1.0" stroke-linecap="round" stroke-linejoin="round"/>
    <path d="M 47.487247467041016 170.08277893066406 C 67.3908920288086 201.65966796875 47.220821380615234 176.32403564453125 39.321258544921875 146.900634765625" stroke-width="3.0" fill="none" stroke="rgb(0, 0, 0)" stroke-opacity="1.0" stroke-linecap="round" stroke-linejoin="round"/>
    <path d="M 82.57223510742188 55.24698257446289 C 61.204166412353516 59.235633850097656 59.53290557861328 65.58934783935547 37.40336608886719 108.60263061523438" stroke-width="3.0" fill="none" stroke="rgb(0, 0, 0)" stroke-opacity="1.0" stroke-linecap="round" stroke-linejoin="round"/>
    <path d="M 148.8773956298828 143.92137145996094 C 113.48863983154297 163.6263427734375 73.51863098144531 154.23118591308594 145.84605407714844 150.18064880371094" stroke-width="3.0" fill="none" stroke="rgb(0, 0, 0)" stroke-opacity="1.0" stroke-linecap="round" stroke-linejoin="round"/>
    <path d="M 148.05633544921875 28.567773818969727 C 143.05825805664062 37.3545036315918 138.68951416015625 11.388084411621094 137.15011596679688 76.47856140136719" stroke-width="3.0" fill="none" stroke="rgb(0, 0, 0)" stroke-opacity="1.0" stroke-linecap="round" stroke-linejoin="round"/>
    <path d="M 144.38668823242188 99.60092163085938 C 127.98355102539062 110.58854675292969 123.05558013916016 105.12506103515625 118.06353759765625 101.76976776123047" stroke-width="3.0" fill="none" stroke="rgb(0, 0, 0)" stroke-opacity="1.0" stroke-linecap="round" stroke-linejoin="round"/>
    <path d="M 136.8063201904297 74.22095489501953 C 140.27171325683594 50.546810150146484 135.259521484375 69.12342834472656 135.5297088623047 70.77408599853516" stroke-width="3.0" fill="none" stroke="rgb(0, 0, 0)" stroke-opacity="1.0" stroke-linecap="round" stroke-linejoin="round"/>
    <path d="M 139.92501831054688 167.13619995117188 C 134.50015258789062 168.17735290527344 146.04312133789062 165.6675567626953 147.93154907226562 147.0067596435547" stroke-width="3.0" fill="none" stroke="rgb(0, 0, 0)" stroke-opacity="1.0" stroke-linecap="round" stroke-linejoin="round"/>
    <path d="M 193.37191772460938 96.5859375 C 163.49378967285156 65.9281234741211 186.15187072753906 60.63617706298828 185.32923889160156 95.80341339111328" stroke-width="3.0" fill="none" stroke="rgb(0, 0, 0)" stroke-opacity="1.0" stroke-linecap="round" stroke-linejoin="round"/>
    <path d="M 154.3990936279297 78.56114959716797 C 125.37455749511719 58.19900894165039 211.79603576660156 86.57132720947266 180.72203063964844 63.976776123046875" stroke-width="3.0" fill="none" stroke="rgb(0, 0, 0)" stroke-opacity="1.0" stroke-linecap="round" stroke-linejoin="round"/>
    <path d="M 113.44512939453125 82.67172241210938 C 88.80740356445312 71.94741821289062 131.591064453125 76.2795181274414 108.8250503540039 81.07624053955078" stroke-width="3.0" fill="none" stroke="rgb(0, 0, 0)" stroke-opacity="1.0" stroke-linecap="round" stroke-linejoin="round"/>
    <path d="M 169.3838653564453 129.5672607421875 C 157.39492797851562 156.07774353027344 88.24987030029297 151.86822509765625 95.85205841064453 149.83929443359375" stroke-width="3.0" fill="none" stroke="rgb(0, 0, 0)" stroke-opacity="1.0" stroke-linecap="round" stroke-linejoin="round"/>
    <path d="M 121.75715637207031 91.04969787597656 C 141.8834686279297 100.10845947265625 129.684326171875 75.92801666259766 129.5664520263672 103.9864501953125" stroke-width="3.0" fill="none" stroke="rgb(0, 0, 0)" stroke-opacity="1.0" stroke-linecap="round" stroke-linejoin="round"/>
    <path d="M 186.17926025390625 112.603759765625 C 172.33404541015625 85.09921264648438 169.93016052246094 95.36672973632812 145.76278686523438 87.1058120727539" stroke-width="3.0" fill="none" stroke="rgb(0, 0, 0)" stroke-opacity="1.0" stroke-linecap="round" stroke-linejoin="round"/>
    <path d="M 91.46857452392578 22.212120056152344 C 126.22313690185547 25.82746696472168 83.89051055908203 29.67942237854004 149.1058807373047 27.761207580566406" stroke-width="3.0" fill="none" stroke="rgb(0, 0, 0)" stroke-opacity="1.0" stroke-linecap="round" stroke-linejoin="round"/>
    <path d="M 59.62485885620117 109.0722427368164 C 62.11347579956055 96.96090698242188 53.83832931518555 116.15591430664062 68.66806030273438 133.63282775878906" stroke-width="3.0" fill="none" stroke="rgb(0, 0, 0)" stroke-opacity="1.0" stroke-linecap="round" stroke-linejoin="round"/>
    <path d="M 134.61378479003906 106.21395111083984 C 125.52009582519531 88.16067504882812 123.18802642822266 122.34403991699219 112.46005249023438 90.29224395751953" stroke-width="3.0" fill="none" stroke="rgb(0, 0, 0)" stroke-opacity="1.0" stroke-linecap="round" stroke-linejoin="round"/>
    <path d="M 39.7268180847168 147.28619384765625 C 19.71297836303711 121.9400863647461 39.04294967651367 71.21955871582031 68.03045654296875 60.63809585571289" stroke-width="3.0" fill="none" stroke="rgb(0, 0, 0)" stroke-opacity="1.0" stroke-linecap="round" stroke-linejoin="round"/>
    <path d="M 96.57579040527344 198.46498107910156 C 84.83544921875 198.2177276611328 76.598876953125 199.0811767578125 105.80499267578125 197.12828063964844" stroke-width="3.0" fill="none" stroke="rgb(0, 0, 0)" stroke-opacity="1.0" stroke-linecap="round" stroke-linejoin="round"/>
    <path d="M 171.29969787597656 129.40415954589844 C 196.6628875732422 111.02243041992188 192.69866943359375 88.42076873779297 152.34060668945312 90.01200103759766" stroke-width="3.0" fill="none" stroke="rgb(0, 0, 0)" stroke-opacity="1.0" stroke-linecap="round" stroke-linejoin="round"/>
    <path d="M 161.09420776367188 70.99736785888672 C 130.4568634033203 83.37963104248047 166.4721221923828 84.64583587646484 152.71084594726562 72.10263061523438" stroke-width="3.0" fill="none" stroke="rgb(0, 0, 0)" stroke-opacity="1.0" stroke-linecap="round" stroke-linejoin="round"/>
    <path d="M 141.51397705078125 80.9991683959961 C 139.46559143066406 34.815059661865234 200.0978546142578 114.9122085571289 178.6712646484375 46.72096252441406" stroke-width="3.0" fill="none" stroke="rgb(0, 0, 0)" stroke-opacity="1.0" stroke-linecap="round" stroke-linejoin="round"/>
    <path d="M 157.44920349121094 96.30088806152344 C 175.0937957763672 102.99015045166016 178.22561645507812 104.3138198852539 184.52670288085938 124.14815521240234" stroke-width="3.0" fill="none" stroke="rgb(0, 0, 0)" stroke-opacity="1.0" stroke-linecap="round" stroke-linejoin="round"/>
    <path d="M 176.56781005859375 13.893153190612793 C 174.76075744628906 45.79889678955078 175.58432006835938 21.183364868164062 157.850830078125 41.00477981567383" stroke-width="3.0" fill="none" stroke="rgb(0, 0, 0)" stroke-opacity="1.0" stroke-linecap="round" stroke-linejoin="round"/>
    <path d="M 124.13846588134766 101.46409606933594 C 146.27151489257812 98.38297271728516 131.39364624023438 110.6947250366211 127.65055847167969 101.07881927490234" stroke-width="3.0" fill="none" stroke="rgb(0, 0, 0)" stroke-opacity="1.0" stroke-linecap="round" stroke-linejoin="round"/>
    <path d="M 60.9830436706543 91.63651275634766 C 55.936126708984375 102.95977783203125 59.32461929321289 113.16674041748047 59.194984436035156 108.21565246582031" stroke-width="3.0" fill="none" stroke="rgb(0, 0, 0)" stroke-opacity="1.0" stroke-linecap="round" stroke-linejoin="round"/>
    <path d="M 120.60711669921875 77.17664337158203 C 126.44149017333984 47.871803283691406 116.13691711425781 55.94481658935547 118.3815689086914 37.68378829956055" stroke-width="3.0" fill="none" stroke="rgb(0, 0, 0)" stroke-opacity="1.0" stroke-linecap="round" stroke-linejoin="round"/>
    <path d="M 143.30810546875 32.67244338989258 C 144.51686096191406 41.283103942871094 160.0095672607422 9.7366943359375 180.1656951904297 8.51852798461914" stroke-width="3.0" fill="none" stroke="rgb(0, 0, 0)" stroke-opacity="1.0" stroke-linecap="round" stroke-linejoin="round"/>
  </g>
</svg>
