<?xml version="1.0" ?>
<svg xmlns="http://www.w3.org/2000/svg" version="1.1" width="224" height="224">
  <defs/>
  <g>
    <path d="M 65.53131866455078 101.61693572998047 C 63.57670593261719 97.29255676269531 61.33467483520508 96.5426025390625 60.41365051269531 89.77835083007812" stroke-width="3.0" fill="none" stroke="rgb(0, 0, 0)" stroke-opacity="1.0" stroke-linecap="round" stroke-linejoin="round"/>
    <path d="M 184.90426635742188 130.67507934570312 C 174.10549926757812 119.1639633178711 171.35752868652344 120.106201171875 183.18443298339844 128.11907958984375" stroke-width="3.0" fill="none" stroke="rgb(0, 0, 0)" stroke-opacity="1.0" stroke-linecap="round" stroke-linejoin="round"/>
    <path d="M 54.22478103637695 110.85459899902344 C 47.92152786254883 110.63095092773438 54.91771697998047 97.53047180175781 50.76811981201172 107.526611328125" stroke-width="3.0" fill="none" stroke="rgb(0, 0, 0)" stroke-opacity="1.0" stroke-linecap="round" stroke-linejoin="round"/>
    <path d="M 169.17584228515625 97.61531066894531 C 166.0596466064453 110.27298736572266 160.46986389160156 101.11469268798828 172.04388427734375 114.74334716796875" stroke-width="3.0" fill="none" stroke="rgb(0, 0, 0)" stroke-opacity="1.0" stroke-linecap="round" stroke-linejoin="round"/>
    <path d="M 180.124267578125 79.03181457519531 C 174.7615966796875 80.3996810913086 176.60250854492188 77.7203369140625 190.4248504638672 90.17860412597656" stroke-width="3.0" fill="none" stroke="rgb(0, 0, 0)" stroke-opacity="1.0" stroke-linecap="round" stroke-linejoin="round"/>
    <path d="M 127.54874420166016 108.32978820800781 C 118.54422760009766 115.98912048339844 125.23272705078125 117.77054595947266 124.71290588378906 116.29721069335938" stroke-width="3.0" fill="none" stroke="rgb(0, 0, 0)" stroke-opacity="1.0" stroke-linecap="round" stroke-linejoin="round"/>
    <path d="M 177.1149139404297 85.0982894897461 C 179.11048889160156 84.25967407226562 178.84259033203125 87.06438446044922 159.62701416015625 89.32975006103516" stroke-width="3.0" fill="none" stroke="rgb(0, 0, 0)" stroke-opacity="1.0" stroke-linecap="round" stroke-linejoin="round"/>
    <path d="M 63.79459762573242 174.01626586914062 C 61.205787658691406 162.3332061767578 58.73538589477539 178.09776306152344 65.1370849609375 167.39743041992188" stroke-width="3.0" fill="none" stroke="rgb(0, 0, 0)" stroke-opacity="1.0" stroke-linecap="round" stroke-linejoin="round"/>
    <path d="M 79.13348388671875 190.43971252441406 C 77.10002899169922 189.2316131591797 83.69037628173828 192.66282653808594 82.22221374511719 193.84640502929688" stroke-width="3.0" fill="none" stroke="rgb(0, 0, 0)" stroke-opacity="1.0" stroke-linecap="round" stroke-linejoin="round"/>
    <path d="M 86.04551696777344 59.092918395996094 C 85.84779357910156 73.67975616455078 85.41304016113281 82.10823822021484 86.006591796875 71.57389068603516" stroke-width="3.0" fill="none" stroke="rgb(0, 0, 0)" stroke-opacity="1.0" stroke-linecap="round" stroke-linejoin="round"/>
    <path d="M 80.00587463378906 145.27662658691406 C 78.5601577758789 146.81671142578125 80.12467193603516 147.8306884765625 84.10868072509766 151.43057250976562" stroke-width="3.0" fill="none" stroke="rgb(0, 0, 0)" stroke-opacity="1.0" stroke-linecap="round" stroke-linejoin="round"/>
    <path d="M 176.61663818359375 91.42645263671875 C 181.1370391845703 90.43321228027344 178.7499237060547 94.16162109375 159.54623413085938 95.99193572998047" stroke-width="3.0" fill="none" stroke="rgb(0, 0, 0)" stroke-opacity="1.0" stroke-linecap="round" stroke-linejoin="round"/>
    <path d="M 155.648193359375 105.85478210449219 C 175.86795043945312 99.64013671875 162.04502868652344 102.04429626464844 169.84420776367188 106.8109130859375" stroke-width="3.0" fill="none" stroke="rgb(0, 0, 0)" stroke-opacity="1.0" stroke-linecap="round" stroke-linejoin="round"/>
    <path d="M 86.32068634033203 173.5733642578125 C 90.96134948730469 181.296630859375 100.15380096435547 181.86834716796875 98.00532531738281 183.98239135742188" stroke-width="3.0" fill="none" stroke="rgb(0, 0, 0)" stroke-opacity="1.0" stroke-linecap="round" stroke-linejoin="round"/>
    <path d="M 165.77801513671875 27.566335678100586 C 161.9408416748047 25.07795524597168 170.18368530273438 35.27709197998047 171.89047241210938 42.682308197021484" stroke-width="3.0" fill="none" stroke="rgb(0, 0, 0)" stroke-opacity="1.0" stroke-linecap="round" stroke-linejoin="round"/>
    <path d="M 133.7149200439453 29.6050968170166 C 127.30781555175781 38.98926544189453 130.69186401367188 41.507652282714844 133.18728637695312 53.32036590576172" stroke-width="3.0" fill="none" stroke="rgb(0, 0, 0)" stroke-opacity="1.0" stroke-linecap="round" stroke-linejoin="round"/>
    <path d="M 77.18978881835938 22.097949981689453 C 77.0350341796875 6.850243091583252 83.81646728515625 12.343271255493164 97.12688446044922 38.31311798095703" stroke-width="3.0" fill="none" stroke="rgb(0, 0, 0)" stroke-opacity="1.0" stroke-linecap="round" stroke-linejoin="round"/>
    <path d="M 47.39456558227539 166.2720489501953 C 42.20506286621094 160.7651824951172 38.908538818359375 158.44326782226562 48.104637145996094 155.7906951904297" stroke-width="3.0" fill="none" stroke="rgb(0, 0, 0)" stroke-opacity="1.0" stroke-linecap="round" stroke-linejoin="round"/>
    <path d="M 49.39198684692383 140.0549774169922 C 53.5328483581543 136.09251403808594 42.45846176147461 149.53494262695312 50.04692840576172 145.00244140625" stroke-width="3.0" fill="none" stroke="rgb(0, 0, 0)" stroke-opacity="1.0" stroke-linecap="round" stroke-linejoin="round"/>
    <path d="M 73.446533203125 165.95538330078125 C 75.62507629394531 163.03919982910156 77.77719116210938 160.92454528808594 75.4272689819336 163.42559814453125" stroke-width="3.0" fill="none" stroke="rgb(0, 0, 0)" stroke-opacity="1.0" stroke-linecap="round" stroke-linejoin="round"/>
    <path d="M 75.72330474853516 184.8373260498047 C 65.40863037109375 181.05555725097656 73.18773651123047 188.1814422607422 61.1009407043457 179.26341247558594" stroke-width="3.0" fill="none" stroke="rgb(0, 0, 0)" stroke-opacity="1.0" stroke-linecap="round" stroke-linejoin="round"/>
    <path d="M 44.89371871948242 159.00631713867188 C 52.17311477661133 160.44688415527344 39.14078140258789 148.83306884765625 43.22428512573242 155.93209838867188" stroke-width="3.0" fill="none" stroke="rgb(0, 0, 0)" stroke-opacity="1.0" stroke-linecap="round" stroke-linejoin="round"/>
    <path d="M 60.378173828125 72.00596618652344 C 52.134281158447266 87.36998748779297 53.00150680541992 73.65602111816406 42.767005920410156 91.9925308227539" stroke-width="3.0" fill="none" stroke="rgb(0, 0, 0)" stroke-opacity="1.0" stroke-linecap="round" stroke-linejoin="round"/>
    <path d="M 148.0235137939453 167.3466339111328 C 127.52531433105469 141.11558532714844 131.34385681152344 127.86797332763672 130.801513671875 142.8020782470703" stroke-width="3.0" fill="none" stroke="rgb(0, 0, 0)" stroke-opacity="1.0" stroke-linecap="round" stroke-linejoin="round"/>
    <path d="M 139.69375610351562 56.03630828857422 C 141.25198364257812 50.71451187133789 135.52708435058594 64.27235412597656 135.1586456298828 71.49763488769531" stroke-width="3.0" fill="none" stroke="rgb(0, 0, 0)" stroke-opacity="1.0" stroke-linecap="round" stroke-linejoin="round"/>
    <path d="M 148.71446228027344 106.4591293334961 C 134.57777404785156 114.70784759521484 125.22439575195312 107.19190216064453 123.47907257080078 106.95732116699219" stroke-width="3.0" fill="none" stroke="rgb(0, 0, 0)" stroke-opacity="1.0" stroke-linecap="round" stroke-linejoin="round"/>
    <path d="M 155.08106994628906 61.235897064208984 C 148.87171936035156 56.316043853759766 158.2610321044922 53.10575485229492 159.79644775390625 55.155662536621094" stroke-width="3.0" fill="none" stroke="rgb(0, 0, 0)" stroke-opacity="1.0" stroke-linecap="round" stroke-linejoin="round"/>
    <path d="M 101.64652252197266 177.88616943359375 C 97.4956283569336 176.49118041992188 80.0974349975586 174.7752227783203 118.20571899414062 179.69033813476562" stroke-width="3.0" fill="none" stroke="rgb(0, 0, 0)" stroke-opacity="1.0" stroke-linecap="round" stroke-linejoin="round"/>
    <path d="M 185.32545471191406 87.93827819824219 C 188.48699951171875 86.05036926269531 183.27798461914062 95.21531677246094 182.5390625 84.74192810058594" stroke-width="3.0" fill="none" stroke="rgb(0, 0, 0)" stroke-opacity="1.0" stroke-linecap="round" stroke-linejoin="round"/>
    <path d="M 177.47113037109375 92.23089599609375 C 172.97067260742188 91.99608612060547 174.28836059570312 92.41363525390625 173.20069885253906 92.3660659790039" stroke-width="3.0" fill="none" stroke="rgb(0, 0, 0)" stroke-opacity="1.0" stroke-linecap="round" stroke-linejoin="round"/>
    <path d="M 110.91101837158203 77.01898956298828 C 111.83644104003906 70.38838958740234 132.59341430664062 80.97157287597656 112.5665283203125 77.33358001708984" stroke-width="3.0" fill="none" stroke="rgb(0, 0, 0)" stroke-opacity="1.0" stroke-linecap="round" stroke-linejoin="round"/>
    <path d="M 118.1400146484375 144.9300079345703 C 111.29300689697266 136.4291534423828 113.32374572753906 144.32211303710938 117.32563781738281 141.7357940673828" stroke-width="3.0" fill="none" stroke="rgb(0, 0, 0)" stroke-opacity="1.0" stroke-linecap="round" stroke-linejoin="round"/>
    <path d="M 129.5232391357422 91.76140594482422 C 142.8706512451172 91.11520385742188 136.50547790527344 86.85430145263672 127.29938507080078 96.09087371826172" stroke-width="3.0" fill="none" stroke="rgb(0, 0, 0)" stroke-opacity="1.0" stroke-linecap="round" stroke-linejoin="round"/>
    <path d="M 168.0784454345703 112.16148376464844 C 168.18182373046875 98.0103759765625 173.09861755371094 97.69625091552734 156.57803344726562 101.19320678710938" stroke-width="3.0" fill="none" stroke="rgb(0, 0, 0)" stroke-opacity="1.0" stroke-linecap="round" stroke-linejoin="round"/>
    <path d="M 91.4511947631836 19.512969970703125 C 99.71784210205078 24.140296936035156 107.0860595703125 26.88241195678711 106.60981750488281 26.475217819213867" stroke-width="3.0" fill="none" stroke="rgb(0, 0, 0)" stroke-opacity="1.0" stroke-linecap="round" stroke-linejoin="round"/>
    <path d="M 50.314605712890625 110.25213623046875 C 51.04600143432617 114.57835388183594 65.50485229492188 121.02901458740234 58.1523551940918 118.53271484375" stroke-width="3.0" fill="none" stroke="rgb(0, 0, 0)" stroke-opacity="1.0" stroke-linecap="round" stroke-linejoin="round"/>
    <path d="M 115.4566879272461 106.7324447631836 C 106.4223403930664 109.60840606689453 106.2602310180664 108.76409149169922 110.76909637451172 106.36162567138672" stroke-width="3.0" fill="none" stroke="rgb(0, 0, 0)" stroke-opacity="1.0" stroke-linecap="round" stroke-linejoin="round"/>
    <path d="M 39.72578430175781 111.98851776123047 C 41.54773712158203 102.8912353515625 41.785614013671875 106.21212005615234 41.78715896606445 107.18744659423828" stroke-width="3.0" fill="none" stroke="rgb(0, 0, 0)" stroke-opacity="1.0" stroke-linecap="round" stroke-linejoin="round"/>
    <path d="M 81.7640380859375 180.78262329101562 C 84.84822082519531 184.32821655273438 83.00423431396484 190.6793212890625 84.22880554199219 178.65103149414062" stroke-width="3.0" fill="none" stroke="rgb(0, 0, 0)" stroke-opacity="1.0" stroke-linecap="round" stroke-linejoin="round"/>
    <path d="M 164.68994140625 123.91532897949219 C 163.7150115966797 118.63563537597656 164.1892547607422 112.4488754272461 154.82252502441406 105.21522521972656" stroke-width="3.0" fill="none" stroke="rgb(0, 0, 0)" stroke-opacity="1.0" stroke-linecap="round" stroke-linejoin="round"/>
    <path d="M 147.1346435546875 84.10157775878906 C 151.49208068847656 74.08065032958984 133.0590362548828 78.19609832763672 145.77354431152344 82.92343139648438" stroke-width="3.0" fill="none" stroke="rgb(0, 0, 0)" stroke-opacity="1.0" stroke-linecap="round" stroke-linejoin="round"/>
    <path d="M 162.4327392578125 78.67415618896484 C 170.19142150878906 78.29777526855469 170.48117065429688 75.6539077758789 172.95326232910156 72.12934112548828" stroke-width="3.0" fill="none" stroke="rgb(0, 0, 0)" stroke-opacity="1.0" stroke-linecap="round" stroke-linejoin="round"/>
    <path d="M 145.3802947998047 118.02922821044922 C 150.75436401367188 116.47881317138672 148.98878479003906 120.00563049316406 150.13963317871094 121.96862030029297" stroke-width="3.0" fill="none" stroke="rgb(0, 0, 0)" stroke-opacity="1.0" stroke-linecap="round" stroke-linejoin="round"/>
    <path d="M 165.43206787109375 29.075393676757812 C 176.52767944335938 35.772422790527344 169.16505432128906 28.668825149536133 172.3595428466797 39.634361267089844" stroke-width="3.0" fill="none" stroke="rgb(0, 0, 0)" stroke-opacity="1.0" stroke-linecap="round" stroke-linejoin="round"/>
    <path d="M 118.83289337158203 110.51856994628906 C 124.83482360839844 106.0906753540039 116.70121765136719 108.55860900878906 115.62855529785156 112.22794342041016" stroke-width="3.0" fill="none" stroke="rgb(0, 0, 0)" stroke-opacity="1.0" stroke-linecap="round" stroke-linejoin="round"/>
    <path d="M 50.90849304199219 112.49082946777344 C 52.640953063964844 105.41571044921875 46.01234436035156 100.80821990966797 55.759498596191406 111.45598602294922" stroke-width="3.0" fill="none" stroke="rgb(0, 0, 0)" stroke-opacity="1.0" stroke-linecap="round" stroke-linejoin="round"/>
    <path d="M 123.45331573486328 73.04985809326172 C 119.5427017211914 61.90559387207031 119.95401763916016 64.15611267089844 107.71002197265625 58.9630012512207" stroke-width="3.0" fill="none" stroke="rgb(0, 0, 0)" stroke-opacity="1.0" stroke-linecap="round" stroke-linejoin="round"/>
    <path d="M 160.4753875732422 47.67333221435547 C 160.57342529296875 36.014198303222656 156.88380432128906 32.343589782714844 162.22325134277344 21.658105850219727" stroke-width="3.0" fill="none" stroke="rgb(0, 0, 0)" stroke-opacity="1.0" stroke-linecap="round" stroke-linejoin="round"/>
  </g>
</svg>
