<?xml version="1.0" ?>
<svg xmlns="http://www.w3.org/2000/svg" version="1.1" width="224" height="224">
  <defs/>
  <g>
    <path d="M 63.56668472290039 100.49333953857422 C 63.49441909790039 97.10670471191406 60.38469696044922 97.50640106201172 60.8667106628418 89.96931457519531" stroke-width="3.0" fill="none" stroke="rgb(0, 0, 0)" stroke-opacity="1.0" stroke-linecap="round" stroke-linejoin="round"/>
    <path d="M 183.449951171875 130.6439971923828 C 174.2642059326172 121.40423583984375 169.27166748046875 124.2043228149414 183.02293395996094 128.09976196289062" stroke-width="3.0" fill="none" stroke="rgb(0, 0, 0)" stroke-opacity="1.0" stroke-linecap="round" stroke-linejoin="round"/>
    <path d="M 53.819923400878906 110.79353332519531 C 47.172725677490234 109.62203216552734 52.61320877075195 95.22174072265625 49.78889465332031 106.00094604492188" stroke-width="3.0" fill="none" stroke="rgb(0, 0, 0)" stroke-opacity="1.0" stroke-linecap="round" stroke-linejoin="round"/>
    <path d="M 171.37982177734375 98.17159271240234 C 167.70103454589844 112.06631469726562 163.0531005859375 98.29948425292969 172.66883850097656 114.93665313720703" stroke-width="3.0" fill="none" stroke="rgb(0, 0, 0)" stroke-opacity="1.0" stroke-linecap="round" stroke-linejoin="round"/>
    <path d="M 180.16525268554688 78.19110870361328 C 175.44886779785156 83.80036926269531 174.5874786376953 80.22089385986328 191.1138458251953 89.48075866699219" stroke-width="3.0" fill="none" stroke="rgb(0, 0, 0)" stroke-opacity="1.0" stroke-linecap="round" stroke-linejoin="round"/>
    <path d="M 128.68479919433594 109.29496002197266 C 121.88949584960938 117.07796478271484 128.9772186279297 115.99396514892578 124.63322448730469 112.09843444824219" stroke-width="3.0" fill="none" stroke="rgb(0, 0, 0)" stroke-opacity="1.0" stroke-linecap="round" stroke-linejoin="round"/>
    <path d="M 175.94491577148438 81.71159362792969 C 180.63267517089844 85.17781829833984 178.5559539794922 82.72402954101562 161.29202270507812 85.03491973876953" stroke-width="3.0" fill="none" stroke="rgb(0, 0, 0)" stroke-opacity="1.0" stroke-linecap="round" stroke-linejoin="round"/>
    <path d="M 61.45505142211914 172.01734924316406 C 59.818260192871094 163.47019958496094 57.79058837890625 178.1107635498047 62.8649787902832 166.037841796875" stroke-width="3.0" fill="none" stroke="rgb(0, 0, 0)" stroke-opacity="1.0" stroke-linecap="round" stroke-linejoin="round"/>
    <path d="M 79.72260284423828 189.95037841796875 C 77.61636352539062 187.87269592285156 83.2480239868164 191.3316192626953 84.18827056884766 191.05567932128906" stroke-width="3.0" fill="none" stroke="rgb(0, 0, 0)" stroke-opacity="1.0" stroke-linecap="round" stroke-linejoin="round"/>
    <path d="M 83.37761688232422 54.41911315917969 C 84.49677276611328 73.3419418334961 90.8569564819336 82.07840728759766 85.51031494140625 71.27194213867188" stroke-width="3.0" fill="none" stroke="rgb(0, 0, 0)" stroke-opacity="1.0" stroke-linecap="round" stroke-linejoin="round"/>
    <path d="M 77.07841491699219 147.57330322265625 C 77.08101654052734 147.5218505859375 78.882080078125 148.84329223632812 84.27691650390625 150.56710815429688" stroke-width="3.0" fill="none" stroke="rgb(0, 0, 0)" stroke-opacity="1.0" stroke-linecap="round" stroke-linejoin="round"/>
    <path d="M 174.7846221923828 91.9131851196289 C 182.3269805908203 88.90138244628906 179.50596618652344 95.27607727050781 158.5469970703125 97.11766052246094" stroke-width="3.0" fill="none" stroke="rgb(0, 0, 0)" stroke-opacity="1.0" stroke-linecap="round" stroke-linejoin="round"/>
    <path d="M 154.8135528564453 104.29043579101562 C 177.2686767578125 100.55638885498047 162.28646850585938 101.14336395263672 172.88099670410156 105.6886978149414" stroke-width="3.0" fill="none" stroke="rgb(0, 0, 0)" stroke-opacity="1.0" stroke-linecap="round" stroke-linejoin="round"/>
    <path d="M 85.31558990478516 173.75360107421875 C 92.39904022216797 180.1461944580078 101.38382720947266 180.72598266601562 98.88721466064453 185.4617919921875" stroke-width="3.0" fill="none" stroke="rgb(0, 0, 0)" stroke-opacity="1.0" stroke-linecap="round" stroke-linejoin="round"/>
    <path d="M 168.59890747070312 25.444149017333984 C 162.93190002441406 22.773698806762695 171.6356658935547 33.92159652709961 170.5746307373047 45.22825241088867" stroke-width="3.0" fill="none" stroke="rgb(0, 0, 0)" stroke-opacity="1.0" stroke-linecap="round" stroke-linejoin="round"/>
    <path d="M 128.29452514648438 32.947452545166016 C 128.43801879882812 42.88250732421875 130.15689086914062 45.85251998901367 131.96852111816406 51.09736251831055" stroke-width="3.0" fill="none" stroke="rgb(0, 0, 0)" stroke-opacity="1.0" stroke-linecap="round" stroke-linejoin="round"/>
    <path d="M 77.22191619873047 21.812891006469727 C 73.1837158203125 1.888733983039856 82.46532440185547 10.482658386230469 99.20531463623047 40.58561706542969" stroke-width="3.0" fill="none" stroke="rgb(0, 0, 0)" stroke-opacity="1.0" stroke-linecap="round" stroke-linejoin="round"/>
    <path d="M 46.07139587402344 165.81410217285156 C 42.19539260864258 159.2483673095703 39.02806854248047 157.3237762451172 48.731815338134766 157.18084716796875" stroke-width="3.0" fill="none" stroke="rgb(0, 0, 0)" stroke-opacity="1.0" stroke-linecap="round" stroke-linejoin="round"/>
    <path d="M 50.772029876708984 139.8438262939453 C 55.844276428222656 140.15237426757812 42.41218566894531 150.44232177734375 46.61787033081055 144.9618682861328" stroke-width="3.0" fill="none" stroke="rgb(0, 0, 0)" stroke-opacity="1.0" stroke-linecap="round" stroke-linejoin="round"/>
    <path d="M 73.96620178222656 166.27377319335938 C 76.60899353027344 163.79173278808594 79.06763458251953 161.8914337158203 76.05867004394531 163.8065948486328" stroke-width="3.0" fill="none" stroke="rgb(0, 0, 0)" stroke-opacity="1.0" stroke-linecap="round" stroke-linejoin="round"/>
    <path d="M 75.22400665283203 185.39974975585938 C 62.628231048583984 175.61917114257812 72.1433334350586 188.5740509033203 63.652862548828125 179.2952117919922" stroke-width="3.0" fill="none" stroke="rgb(0, 0, 0)" stroke-opacity="1.0" stroke-linecap="round" stroke-linejoin="round"/>
    <path d="M 44.61313247680664 158.70460510253906 C 50.77621078491211 161.04074096679688 39.09954071044922 150.73594665527344 43.49220275878906 157.90380859375" stroke-width="3.0" fill="none" stroke="rgb(0, 0, 0)" stroke-opacity="1.0" stroke-linecap="round" stroke-linejoin="round"/>
    <path d="M 62.670936584472656 72.24005889892578 C 50.659629821777344 85.95283508300781 52.87244415283203 71.41316223144531 42.39790344238281 97.52765655517578" stroke-width="3.0" fill="none" stroke="rgb(0, 0, 0)" stroke-opacity="1.0" stroke-linecap="round" stroke-linejoin="round"/>
    <path d="M 149.9630584716797 168.14739990234375 C 129.315673828125 141.13107299804688 136.6524658203125 127.04122924804688 133.1573944091797 144.65625" stroke-width="3.0" fill="none" stroke="rgb(0, 0, 0)" stroke-opacity="1.0" stroke-linecap="round" stroke-linejoin="round"/>
    <path d="M 139.0897674560547 55.46351623535156 C 143.31121826171875 53.902217864990234 137.45225524902344 66.45745849609375 138.15440368652344 75.69732666015625" stroke-width="3.0" fill="none" stroke="rgb(0, 0, 0)" stroke-opacity="1.0" stroke-linecap="round" stroke-linejoin="round"/>
    <path d="M 147.9427032470703 104.24002075195312 C 135.81634521484375 113.9490966796875 123.60163116455078 106.23921966552734 123.97012329101562 103.21156311035156" stroke-width="3.0" fill="none" stroke="rgb(0, 0, 0)" stroke-opacity="1.0" stroke-linecap="round" stroke-linejoin="round"/>
    <path d="M 151.34307861328125 62.75899124145508 C 141.87503051757812 56.368995666503906 154.45436096191406 52.98460388183594 153.81788635253906 53.583675384521484" stroke-width="3.0" fill="none" stroke="rgb(0, 0, 0)" stroke-opacity="1.0" stroke-linecap="round" stroke-linejoin="round"/>
    <path d="M 99.84541320800781 179.2252197265625 C 97.42289733886719 178.5579376220703 78.0478286743164 179.3646240234375 121.83617401123047 181.90255737304688" stroke-width="3.0" fill="none" stroke="rgb(0, 0, 0)" stroke-opacity="1.0" stroke-linecap="round" stroke-linejoin="round"/>
    <path d="M 184.99241638183594 87.16574096679688 C 188.84751892089844 86.20281219482422 181.67933654785156 96.98423767089844 184.1195526123047 83.63593292236328" stroke-width="3.0" fill="none" stroke="rgb(0, 0, 0)" stroke-opacity="1.0" stroke-linecap="round" stroke-linejoin="round"/>
    <path d="M 178.64918518066406 91.79714965820312 C 172.43084716796875 90.79928588867188 174.0963897705078 92.81346130371094 173.76031494140625 93.21831512451172" stroke-width="3.0" fill="none" stroke="rgb(0, 0, 0)" stroke-opacity="1.0" stroke-linecap="round" stroke-linejoin="round"/>
    <path d="M 109.7913589477539 77.23278045654297 C 107.08110809326172 69.20902252197266 130.6675567626953 81.70568084716797 110.6678466796875 78.8331527709961" stroke-width="3.0" fill="none" stroke="rgb(0, 0, 0)" stroke-opacity="1.0" stroke-linecap="round" stroke-linejoin="round"/>
    <path d="M 119.06919860839844 148.47854614257812 C 111.43476867675781 138.28594970703125 115.69580078125 145.7174835205078 118.43521881103516 145.2790069580078" stroke-width="3.0" fill="none" stroke="rgb(0, 0, 0)" stroke-opacity="1.0" stroke-linecap="round" stroke-linejoin="round"/>
    <path d="M 129.15402221679688 92.03331756591797 C 143.83914184570312 95.80593872070312 136.625 88.3113021850586 130.2903594970703 98.15880584716797" stroke-width="3.0" fill="none" stroke="rgb(0, 0, 0)" stroke-opacity="1.0" stroke-linecap="round" stroke-linejoin="round"/>
    <path d="M 170.36553955078125 110.48231506347656 C 167.97947692871094 94.44550323486328 174.36343383789062 97.72730255126953 155.52651977539062 100.78178405761719" stroke-width="3.0" fill="none" stroke="rgb(0, 0, 0)" stroke-opacity="1.0" stroke-linecap="round" stroke-linejoin="round"/>
    <path d="M 88.38214874267578 15.63096809387207 C 101.83635711669922 22.549484252929688 107.19165802001953 28.255950927734375 107.88496398925781 31.222780227661133" stroke-width="3.0" fill="none" stroke="rgb(0, 0, 0)" stroke-opacity="1.0" stroke-linecap="round" stroke-linejoin="round"/>
    <path d="M 51.93185806274414 109.99354553222656 C 51.610294342041016 113.07630920410156 65.8184585571289 120.20537567138672 57.557838439941406 117.56940460205078" stroke-width="3.0" fill="none" stroke="rgb(0, 0, 0)" stroke-opacity="1.0" stroke-linecap="round" stroke-linejoin="round"/>
    <path d="M 116.74823760986328 104.6556625366211 C 107.61180877685547 111.94905090332031 111.99420166015625 113.42945098876953 111.33167266845703 106.98735046386719" stroke-width="3.0" fill="none" stroke="rgb(0, 0, 0)" stroke-opacity="1.0" stroke-linecap="round" stroke-linejoin="round"/>
    <path d="M 37.72053527832031 113.46558380126953 C 44.14152145385742 104.41909790039062 41.74472427368164 106.12042999267578 41.11908721923828 107.67030334472656" stroke-width="3.0" fill="none" stroke="rgb(0, 0, 0)" stroke-opacity="1.0" stroke-linecap="round" stroke-linejoin="round"/>
    <path d="M 82.5179443359375 180.52508544921875 C 84.55677795410156 185.06515502929688 80.73949432373047 190.70703125 84.78548431396484 180.3271942138672" stroke-width="3.0" fill="none" stroke="rgb(0, 0, 0)" stroke-opacity="1.0" stroke-linecap="round" stroke-linejoin="round"/>
    <path d="M 165.900390625 124.17789459228516 C 164.9703369140625 118.97076416015625 164.10531616210938 111.49822235107422 152.76480102539062 104.70869445800781" stroke-width="3.0" fill="none" stroke="rgb(0, 0, 0)" stroke-opacity="1.0" stroke-linecap="round" stroke-linejoin="round"/>
    <path d="M 144.48692321777344 82.44564056396484 C 151.6503143310547 73.80619812011719 133.23501586914062 77.53942108154297 148.2993927001953 82.9728012084961" stroke-width="3.0" fill="none" stroke="rgb(0, 0, 0)" stroke-opacity="1.0" stroke-linecap="round" stroke-linejoin="round"/>
    <path d="M 163.84962463378906 79.36386108398438 C 169.27911376953125 78.29147338867188 171.3567352294922 75.23917388916016 176.02142333984375 73.7994155883789" stroke-width="3.0" fill="none" stroke="rgb(0, 0, 0)" stroke-opacity="1.0" stroke-linecap="round" stroke-linejoin="round"/>
    <path d="M 146.42721557617188 112.77149963378906 C 150.16078186035156 119.82644653320312 148.46640014648438 121.76333618164062 147.3820343017578 124.39115142822266" stroke-width="3.0" fill="none" stroke="rgb(0, 0, 0)" stroke-opacity="1.0" stroke-linecap="round" stroke-linejoin="round"/>
    <path d="M 167.80577087402344 26.398984909057617 C 177.9530487060547 36.60457229614258 168.73934936523438 30.632400512695312 173.50204467773438 40.744056701660156" stroke-width="3.0" fill="none" stroke="rgb(0, 0, 0)" stroke-opacity="1.0" stroke-linecap="round" stroke-linejoin="round"/>
    <path d="M 118.72571563720703 112.69413757324219 C 125.79022979736328 102.82866668701172 116.01563262939453 105.53404998779297 113.32260131835938 112.22400665283203" stroke-width="3.0" fill="none" stroke="rgb(0, 0, 0)" stroke-opacity="1.0" stroke-linecap="round" stroke-linejoin="round"/>
    <path d="M 51.31827163696289 112.93524932861328 C 51.126670837402344 105.63208770751953 46.79353713989258 99.63939666748047 57.151527404785156 116.81251525878906" stroke-width="3.0" fill="none" stroke="rgb(0, 0, 0)" stroke-opacity="1.0" stroke-linecap="round" stroke-linejoin="round"/>
    <path d="M 123.68077087402344 72.27212524414062 C 120.96293640136719 62.818687438964844 119.54322052001953 66.39244079589844 107.21719360351562 58.435787200927734" stroke-width="3.0" fill="none" stroke="rgb(0, 0, 0)" stroke-opacity="1.0" stroke-linecap="round" stroke-linejoin="round"/>
    <path d="M 161.848388671875 49.143985748291016 C 162.07041931152344 34.5484733581543 157.6895751953125 31.471960067749023 165.49600219726562 20.471878051757812" stroke-width="3.0" fill="none" stroke="rgb(0, 0, 0)" stroke-opacity="1.0" stroke-linecap="round" stroke-linejoin="round"/>
  </g>
</svg>
