<?xml version="1.0" ?>
<svg xmlns="http://www.w3.org/2000/svg" version="1.1" width="224" height="224">
  <defs/>
  <g>
    <path d="M 54.575531005859375 96.11685180664062 C 58.0250129699707 101.07003784179688 51.9775390625 100.028076171875 45.560420989990234 79.11760711669922" stroke-width="3.0" fill="none" stroke="rgb(0, 0, 0)" stroke-opacity="1.0" stroke-linecap="round" stroke-linejoin="round"/>
    <path d="M 184.11119079589844 121.92865753173828 C 176.53726196289062 106.36203002929688 190.9023895263672 99.03287506103516 177.57081604003906 126.85054779052734" stroke-width="3.0" fill="none" stroke="rgb(0, 0, 0)" stroke-opacity="1.0" stroke-linecap="round" stroke-linejoin="round"/>
    <path d="M 61.60546875 119.35208892822266 C 57.22907257080078 107.09252166748047 51.96506118774414 113.6842041015625 67.99715423583984 122.65841674804688" stroke-width="3.0" fill="none" stroke="rgb(0, 0, 0)" stroke-opacity="1.0" stroke-linecap="round" stroke-linejoin="round"/>
    <path d="M 184.26889038085938 98.94351196289062 C 150.81741333007812 85.79257202148438 174.44525146484375 80.22465515136719 195.39608764648438 113.65995788574219" stroke-width="3.0" fill="none" stroke="rgb(0, 0, 0)" stroke-opacity="1.0" stroke-linecap="round" stroke-linejoin="round"/>
    <path d="M 184.53970336914062 72.04057312011719 C 176.95303344726562 100.31723022460938 185.6890106201172 92.97818756103516 180.09341430664062 56.53012466430664" stroke-width="3.0" fill="none" stroke="rgb(0, 0, 0)" stroke-opacity="1.0" stroke-linecap="round" stroke-linejoin="round"/>
    <path d="M 125.65904235839844 104.04502868652344 C 145.57894897460938 112.99321746826172 103.28520965576172 101.405517578125 133.49098205566406 102.966064453125" stroke-width="3.0" fill="none" stroke="rgb(0, 0, 0)" stroke-opacity="1.0" stroke-linecap="round" stroke-linejoin="round"/>
    <path d="M 167.66152954101562 102.49503326416016 C 199.4947052001953 80.24437713623047 186.42967224121094 69.8829574584961 154.5861053466797 86.74922943115234" stroke-width="3.0" fill="none" stroke="rgb(0, 0, 0)" stroke-opacity="1.0" stroke-linecap="round" stroke-linejoin="round"/>
    <path d="M 57.17223358154297 181.8276824951172 C 36.580875396728516 157.19778442382812 46.69882583618164 167.63485717773438 47.9909553527832 168.38067626953125" stroke-width="3.0" fill="none" stroke="rgb(0, 0, 0)" stroke-opacity="1.0" stroke-linecap="round" stroke-linejoin="round"/>
    <path d="M 56.29470443725586 182.9052734375 C 92.5788803100586 211.3213348388672 109.64978790283203 198.00701904296875 133.0284881591797 180.5350799560547" stroke-width="3.0" fill="none" stroke="rgb(0, 0, 0)" stroke-opacity="1.0" stroke-linecap="round" stroke-linejoin="round"/>
    <path d="M 85.35258483886719 29.94605827331543 C 96.66694641113281 62.64300537109375 84.24250030517578 8.175013542175293 84.41765594482422 49.8697395324707" stroke-width="3.0" fill="none" stroke="rgb(0, 0, 0)" stroke-opacity="1.0" stroke-linecap="round" stroke-linejoin="round"/>
    <path d="M 63.82275390625 112.80077362060547 C 54.289039611816406 136.31985473632812 102.4638671875 155.85598754882812 99.93040466308594 153.28720092773438" stroke-width="3.0" fill="none" stroke="rgb(0, 0, 0)" stroke-opacity="1.0" stroke-linecap="round" stroke-linejoin="round"/>
    <path d="M 146.26950073242188 75.86099243164062 C 208.0738983154297 65.16179656982422 187.51364135742188 83.88589477539062 148.41891479492188 86.63683319091797" stroke-width="3.0" fill="none" stroke="rgb(0, 0, 0)" stroke-opacity="1.0" stroke-linecap="round" stroke-linejoin="round"/>
    <path d="M 151.4198455810547 96.2193603515625 C 179.92965698242188 102.90892028808594 177.5711212158203 102.97579193115234 188.21142578125 112.68463897705078" stroke-width="3.0" fill="none" stroke="rgb(0, 0, 0)" stroke-opacity="1.0" stroke-linecap="round" stroke-linejoin="round"/>
    <path d="M 112.09275817871094 153.66078186035156 C 145.18670654296875 143.34974670410156 117.01090240478516 159.6392364501953 117.5041275024414 150.11111450195312" stroke-width="3.0" fill="none" stroke="rgb(0, 0, 0)" stroke-opacity="1.0" stroke-linecap="round" stroke-linejoin="round"/>
    <path d="M 174.4515838623047 6.752325057983398 C 190.10581970214844 9.804760932922363 174.14395141601562 62.401824951171875 179.49270629882812 46.975425720214844" stroke-width="3.0" fill="none" stroke="rgb(0, 0, 0)" stroke-opacity="1.0" stroke-linecap="round" stroke-linejoin="round"/>
    <path d="M 132.03134155273438 30.959300994873047 C 123.25312042236328 56.70600509643555 135.9796905517578 39.01146697998047 126.93356323242188 71.63680267333984" stroke-width="3.0" fill="none" stroke="rgb(0, 0, 0)" stroke-opacity="1.0" stroke-linecap="round" stroke-linejoin="round"/>
    <path d="M 88.86080169677734 46.98653793334961 C 73.74465942382812 -5.02742862701416 86.32329559326172 -1.54202139377594 104.87889099121094 43.62729263305664" stroke-width="3.0" fill="none" stroke="rgb(0, 0, 0)" stroke-opacity="1.0" stroke-linecap="round" stroke-linejoin="round"/>
    <path d="M 45.144100189208984 165.58668518066406 C 39.08699035644531 153.42779541015625 38.6431884765625 144.2220001220703 42.21149444580078 156.4330596923828" stroke-width="3.0" fill="none" stroke="rgb(0, 0, 0)" stroke-opacity="1.0" stroke-linecap="round" stroke-linejoin="round"/>
    <path d="M 33.915279388427734 102.71259307861328 C 23.832178115844727 125.89302062988281 35.93697738647461 146.927734375 40.07404327392578 152.3115997314453" stroke-width="3.0" fill="none" stroke="rgb(0, 0, 0)" stroke-opacity="1.0" stroke-linecap="round" stroke-linejoin="round"/>
    <path d="M 89.05488586425781 150.07142639160156 C 102.97056579589844 156.94273376464844 121.45142364501953 138.55239868164062 110.55236053466797 156.0878448486328" stroke-width="3.0" fill="none" stroke="rgb(0, 0, 0)" stroke-opacity="1.0" stroke-linecap="round" stroke-linejoin="round"/>
    <path d="M 79.65017700195312 197.7161865234375 C 64.62271118164062 196.28175354003906 53.452171325683594 179.71292114257812 50.91659164428711 175.1409454345703" stroke-width="3.0" fill="none" stroke="rgb(0, 0, 0)" stroke-opacity="1.0" stroke-linecap="round" stroke-linejoin="round"/>
    <path d="M 43.70827102661133 163.93092346191406 C 58.91164779663086 191.66688537597656 45.75966262817383 160.89541625976562 38.94042205810547 149.1017303466797" stroke-width="3.0" fill="none" stroke="rgb(0, 0, 0)" stroke-opacity="1.0" stroke-linecap="round" stroke-linejoin="round"/>
    <path d="M 80.22799682617188 53.07556915283203 C 54.6707878112793 54.198326110839844 51.55218505859375 72.48746490478516 32.36125183105469 106.26544952392578" stroke-width="3.0" fill="none" stroke="rgb(0, 0, 0)" stroke-opacity="1.0" stroke-linecap="round" stroke-linejoin="round"/>
    <path d="M 147.4085693359375 142.02471923828125 C 129.9573211669922 157.3249969482422 118.31187438964844 148.69427490234375 129.721923828125 151.13954162597656" stroke-width="3.0" fill="none" stroke="rgb(0, 0, 0)" stroke-opacity="1.0" stroke-linecap="round" stroke-linejoin="round"/>
    <path d="M 142.18563842773438 30.757333755493164 C 147.2969207763672 70.80943298339844 134.65089416503906 57.2142448425293 137.2991485595703 77.22229766845703" stroke-width="3.0" fill="none" stroke="rgb(0, 0, 0)" stroke-opacity="1.0" stroke-linecap="round" stroke-linejoin="round"/>
    <path d="M 146.57252502441406 97.4311294555664 C 120.25098419189453 112.27725982666016 130.598388671875 105.37112426757812 139.8717041015625 103.60842895507812" stroke-width="3.0" fill="none" stroke="rgb(0, 0, 0)" stroke-opacity="1.0" stroke-linecap="round" stroke-linejoin="round"/>
    <path d="M 138.4913787841797 73.56224822998047 C 146.2823944091797 57.00934600830078 135.2839813232422 63.835960388183594 136.8782196044922 69.91789245605469" stroke-width="3.0" fill="none" stroke="rgb(0, 0, 0)" stroke-opacity="1.0" stroke-linecap="round" stroke-linejoin="round"/>
    <path d="M 135.7643585205078 173.96221923828125 C 125.63169860839844 187.21876525878906 137.65264892578125 180.07276916503906 147.18405151367188 148.0718994140625" stroke-width="3.0" fill="none" stroke="rgb(0, 0, 0)" stroke-opacity="1.0" stroke-linecap="round" stroke-linejoin="round"/>
    <path d="M 194.71658325195312 95.50678253173828 C 170.69097900390625 70.80168151855469 150.09124755859375 83.07546997070312 181.78005981445312 86.64009094238281" stroke-width="3.0" fill="none" stroke="rgb(0, 0, 0)" stroke-opacity="1.0" stroke-linecap="round" stroke-linejoin="round"/>
    <path d="M 151.09910583496094 78.05096435546875 C 162.1737823486328 65.04485321044922 199.7383270263672 79.4849624633789 178.87506103515625 64.17415618896484" stroke-width="3.0" fill="none" stroke="rgb(0, 0, 0)" stroke-opacity="1.0" stroke-linecap="round" stroke-linejoin="round"/>
    <path d="M 114.85255432128906 84.35559844970703 C 89.41024017333984 74.05306243896484 135.90151977539062 77.91226959228516 112.14457702636719 82.5574722290039" stroke-width="3.0" fill="none" stroke="rgb(0, 0, 0)" stroke-opacity="1.0" stroke-linecap="round" stroke-linejoin="round"/>
    <path d="M 150.6046600341797 138.28578186035156 C 139.28582763671875 161.4220733642578 113.24253845214844 143.5811767578125 99.66397094726562 155.88307189941406" stroke-width="3.0" fill="none" stroke="rgb(0, 0, 0)" stroke-opacity="1.0" stroke-linecap="round" stroke-linejoin="round"/>
    <path d="M 126.1360092163086 89.5560073852539 C 138.35830688476562 97.97223663330078 133.9196014404297 74.55302429199219 126.99568939208984 105.24513244628906" stroke-width="3.0" fill="none" stroke="rgb(0, 0, 0)" stroke-opacity="1.0" stroke-linecap="round" stroke-linejoin="round"/>
    <path d="M 187.6055450439453 110.58560180664062 C 183.34194946289062 77.55133056640625 183.56410217285156 97.34839630126953 141.00828552246094 84.66941833496094" stroke-width="3.0" fill="none" stroke="rgb(0, 0, 0)" stroke-opacity="1.0" stroke-linecap="round" stroke-linejoin="round"/>
    <path d="M 86.8930892944336 7.5308685302734375 C 105.17738342285156 13.318952560424805 117.75004577636719 30.908966064453125 122.65128326416016 30.528823852539062" stroke-width="3.0" fill="none" stroke="rgb(0, 0, 0)" stroke-opacity="1.0" stroke-linecap="round" stroke-linejoin="round"/>
    <path d="M 62.79843521118164 119.3804931640625 C 60.148319244384766 111.83149719238281 64.75764465332031 133.38723754882812 65.51734161376953 118.00059509277344" stroke-width="3.0" fill="none" stroke="rgb(0, 0, 0)" stroke-opacity="1.0" stroke-linecap="round" stroke-linejoin="round"/>
    <path d="M 138.00729370117188 101.72703552246094 C 121.36190795898438 94.4473876953125 125.2026596069336 118.70124053955078 113.86416625976562 90.32723999023438" stroke-width="3.0" fill="none" stroke="rgb(0, 0, 0)" stroke-opacity="1.0" stroke-linecap="round" stroke-linejoin="round"/>
    <path d="M 32.2006950378418 131.32151794433594 C 28.496593475341797 118.0994644165039 34.2869873046875 102.98709106445312 33.76225280761719 103.50260162353516" stroke-width="3.0" fill="none" stroke="rgb(0, 0, 0)" stroke-opacity="1.0" stroke-linecap="round" stroke-linejoin="round"/>
    <path d="M 80.74354553222656 197.47499084472656 C 74.8096923828125 191.7330780029297 71.9639892578125 193.7735137939453 93.68798828125 199.37890625" stroke-width="3.0" fill="none" stroke="rgb(0, 0, 0)" stroke-opacity="1.0" stroke-linecap="round" stroke-linejoin="round"/>
    <path d="M 150.6603546142578 137.21075439453125 C 208.5050811767578 113.68009948730469 181.1163330078125 99.0660400390625 154.5067138671875 91.81792449951172" stroke-width="3.0" fill="none" stroke="rgb(0, 0, 0)" stroke-opacity="1.0" stroke-linecap="round" stroke-linejoin="round"/>
    <path d="M 160.07562255859375 70.09806823730469 C 126.12789916992188 79.1781997680664 174.57095336914062 85.66341400146484 147.41134643554688 71.32661437988281" stroke-width="3.0" fill="none" stroke="rgb(0, 0, 0)" stroke-opacity="1.0" stroke-linecap="round" stroke-linejoin="round"/>
    <path d="M 140.71932983398438 81.08985900878906 C 146.6864776611328 44.40425109863281 197.29124450683594 108.04310607910156 179.36911010742188 46.281951904296875" stroke-width="3.0" fill="none" stroke="rgb(0, 0, 0)" stroke-opacity="1.0" stroke-linecap="round" stroke-linejoin="round"/>
    <path d="M 157.73477172851562 99.16546630859375 C 164.9357147216797 103.71683502197266 176.11187744140625 102.81134796142578 182.09515380859375 118.95252990722656" stroke-width="3.0" fill="none" stroke="rgb(0, 0, 0)" stroke-opacity="1.0" stroke-linecap="round" stroke-linejoin="round"/>
    <path d="M 177.4835662841797 15.779382705688477 C 171.22422790527344 41.4428825378418 175.3405303955078 21.74675178527832 161.96531677246094 36.33084487915039" stroke-width="3.0" fill="none" stroke="rgb(0, 0, 0)" stroke-opacity="1.0" stroke-linecap="round" stroke-linejoin="round"/>
    <path d="M 116.5436782836914 101.1221923828125 C 137.60618591308594 104.89599609375 129.01492309570312 112.35105895996094 115.3467025756836 97.82929992675781" stroke-width="3.0" fill="none" stroke="rgb(0, 0, 0)" stroke-opacity="1.0" stroke-linecap="round" stroke-linejoin="round"/>
    <path d="M 67.34727478027344 126.823974609375 C 50.63484573364258 95.52312469482422 55.177364349365234 101.8838882446289 62.777374267578125 121.55587768554688" stroke-width="3.0" fill="none" stroke="rgb(0, 0, 0)" stroke-opacity="1.0" stroke-linecap="round" stroke-linejoin="round"/>
    <path d="M 124.42228698730469 78.81476593017578 C 129.70431518554688 38.876914978027344 119.52984619140625 55.596588134765625 126.01528930664062 31.22371482849121" stroke-width="3.0" fill="none" stroke="rgb(0, 0, 0)" stroke-opacity="1.0" stroke-linecap="round" stroke-linejoin="round"/>
    <path d="M 146.7242889404297 30.09906005859375 C 143.59005737304688 39.36479949951172 156.54991149902344 8.970075607299805 177.76483154296875 7.99393367767334" stroke-width="3.0" fill="none" stroke="rgb(0, 0, 0)" stroke-opacity="1.0" stroke-linecap="round" stroke-linejoin="round"/>
  </g>
</svg>
