<?xml version="1.0" ?>
<svg xmlns="http://www.w3.org/2000/svg" version="1.1" width="224" height="224">
  <defs/>
  <g>
    <path d="M 59.605064392089844 100.17256164550781 C 62.072906494140625 85.87251281738281 50.94074630737305 98.64583587646484 53.02949142456055 76.43855285644531" stroke-width="3.0" fill="none" stroke="rgb(0, 0, 0)" stroke-opacity="1.0" stroke-linecap="round" stroke-linejoin="round"/>
    <path d="M 187.77305603027344 119.05387115478516 C 180.60147094726562 114.77031707763672 193.72337341308594 79.83950805664062 181.99728393554688 125.95820617675781" stroke-width="3.0" fill="none" stroke="rgb(0, 0, 0)" stroke-opacity="1.0" stroke-linecap="round" stroke-linejoin="round"/>
    <path d="M 57.6160774230957 112.2419662475586 C 62.140079498291016 97.01622772216797 54.57099914550781 126.35794830322266 71.23490905761719 133.96751403808594" stroke-width="3.0" fill="none" stroke="rgb(0, 0, 0)" stroke-opacity="1.0" stroke-linecap="round" stroke-linejoin="round"/>
    <path d="M 183.5880584716797 95.0766372680664 C 141.6363067626953 85.665771484375 183.29672241210938 84.87833404541016 191.01866149902344 106.74662780761719" stroke-width="3.0" fill="none" stroke="rgb(0, 0, 0)" stroke-opacity="1.0" stroke-linecap="round" stroke-linejoin="round"/>
    <path d="M 180.9115447998047 59.30416488647461 C 184.5907440185547 97.4571304321289 175.5213165283203 99.51720428466797 179.421630859375 72.76122283935547" stroke-width="3.0" fill="none" stroke="rgb(0, 0, 0)" stroke-opacity="1.0" stroke-linecap="round" stroke-linejoin="round"/>
    <path d="M 120.780517578125 100.35248565673828 C 146.96694946289062 111.60306549072266 106.48176574707031 97.93612670898438 138.28448486328125 97.6611099243164" stroke-width="3.0" fill="none" stroke="rgb(0, 0, 0)" stroke-opacity="1.0" stroke-linecap="round" stroke-linejoin="round"/>
    <path d="M 185.42233276367188 88.49456787109375 C 185.38172912597656 78.30889892578125 189.8964385986328 70.7336654663086 141.73770141601562 87.87220764160156" stroke-width="3.0" fill="none" stroke="rgb(0, 0, 0)" stroke-opacity="1.0" stroke-linecap="round" stroke-linejoin="round"/>
    <path d="M 65.19065856933594 189.90896606445312 C 39.178871154785156 163.38214111328125 51.95869827270508 168.45181274414062 48.77886199951172 171.10400390625" stroke-width="3.0" fill="none" stroke="rgb(0, 0, 0)" stroke-opacity="1.0" stroke-linecap="round" stroke-linejoin="round"/>
    <path d="M 56.08467102050781 183.5086212158203 C 89.94930267333984 210.00746154785156 124.40523529052734 196.42282104492188 138.0257568359375 170.70594787597656" stroke-width="3.0" fill="none" stroke="rgb(0, 0, 0)" stroke-opacity="1.0" stroke-linecap="round" stroke-linejoin="round"/>
    <path d="M 85.4632797241211 30.297119140625 C 93.71690368652344 82.95215606689453 84.29499816894531 18.715879440307617 85.44947814941406 57.247589111328125" stroke-width="3.0" fill="none" stroke="rgb(0, 0, 0)" stroke-opacity="1.0" stroke-linecap="round" stroke-linejoin="round"/>
    <path d="M 52.94038772583008 80.9095458984375 C 69.6114273071289 143.01438903808594 71.5589599609375 145.2332763671875 69.49752807617188 135.24876403808594" stroke-width="3.0" fill="none" stroke="rgb(0, 0, 0)" stroke-opacity="1.0" stroke-linecap="round" stroke-linejoin="round"/>
    <path d="M 145.48562622070312 67.42426300048828 C 202.01426696777344 63.13923263549805 193.36880493164062 88.54286193847656 138.8820037841797 82.75544738769531" stroke-width="3.0" fill="none" stroke="rgb(0, 0, 0)" stroke-opacity="1.0" stroke-linecap="round" stroke-linejoin="round"/>
    <path d="M 152.3998260498047 93.2808837890625 C 180.5313262939453 101.9410171508789 182.99620056152344 100.7596206665039 198.40921020507812 113.10003662109375" stroke-width="3.0" fill="none" stroke="rgb(0, 0, 0)" stroke-opacity="1.0" stroke-linecap="round" stroke-linejoin="round"/>
    <path d="M 118.74703979492188 154.6073760986328 C 152.4096221923828 153.83006286621094 107.39205932617188 149.1431427001953 97.67086029052734 155.64674377441406" stroke-width="3.0" fill="none" stroke="rgb(0, 0, 0)" stroke-opacity="1.0" stroke-linecap="round" stroke-linejoin="round"/>
    <path d="M 178.74855041503906 8.759373664855957 C 192.58802795410156 26.473825454711914 174.67994689941406 77.99737548828125 180.57937622070312 58.97560501098633" stroke-width="3.0" fill="none" stroke="rgb(0, 0, 0)" stroke-opacity="1.0" stroke-linecap="round" stroke-linejoin="round"/>
    <path d="M 136.58534240722656 31.224224090576172 C 103.95807647705078 32.18867874145508 136.58900451660156 38.132198333740234 124.27921295166016 73.7877426147461" stroke-width="3.0" fill="none" stroke="rgb(0, 0, 0)" stroke-opacity="1.0" stroke-linecap="round" stroke-linejoin="round"/>
    <path d="M 96.81138610839844 44.83683395385742 C 67.93872833251953 -6.390941143035889 82.83554077148438 6.057557106018066 122.46710205078125 36.66037368774414" stroke-width="3.0" fill="none" stroke="rgb(0, 0, 0)" stroke-opacity="1.0" stroke-linecap="round" stroke-linejoin="round"/>
    <path d="M 45.89218521118164 165.79637145996094 C 42.39950942993164 154.4854736328125 38.16741180419922 148.12179565429688 47.56989288330078 172.5615692138672" stroke-width="3.0" fill="none" stroke="rgb(0, 0, 0)" stroke-opacity="1.0" stroke-linecap="round" stroke-linejoin="round"/>
    <path d="M 45.286258697509766 93.07671356201172 C 18.213321685791016 134.4798583984375 40.254215240478516 143.5316925048828 45.08728790283203 164.66241455078125" stroke-width="3.0" fill="none" stroke="rgb(0, 0, 0)" stroke-opacity="1.0" stroke-linecap="round" stroke-linejoin="round"/>
    <path d="M 69.10191345214844 139.76626586914062 C 111.90098571777344 162.11880493164062 89.96693420410156 149.78480529785156 88.1958999633789 147.51805114746094" stroke-width="3.0" fill="none" stroke="rgb(0, 0, 0)" stroke-opacity="1.0" stroke-linecap="round" stroke-linejoin="round"/>
    <path d="M 90.65184020996094 195.65557861328125 C 68.93572998046875 202.79925537109375 48.54597473144531 176.15606689453125 48.99518585205078 169.43643188476562" stroke-width="3.0" fill="none" stroke="rgb(0, 0, 0)" stroke-opacity="1.0" stroke-linecap="round" stroke-linejoin="round"/>
    <path d="M 50.73562240600586 173.47073364257812 C 68.2850570678711 193.58364868164062 45.60987091064453 171.5443572998047 39.73418426513672 148.66189575195312" stroke-width="3.0" fill="none" stroke="rgb(0, 0, 0)" stroke-opacity="1.0" stroke-linecap="round" stroke-linejoin="round"/>
    <path d="M 79.27271270751953 54.56465148925781 C 60.47571563720703 54.70463562011719 52.90439224243164 74.10871124267578 35.074981689453125 115.07063293457031" stroke-width="3.0" fill="none" stroke="rgb(0, 0, 0)" stroke-opacity="1.0" stroke-linecap="round" stroke-linejoin="round"/>
    <path d="M 157.33367919921875 140.10284423828125 C 112.60511016845703 159.00746154785156 102.65718078613281 156.50341796875 148.7278289794922 146.07958984375" stroke-width="3.0" fill="none" stroke="rgb(0, 0, 0)" stroke-opacity="1.0" stroke-linecap="round" stroke-linejoin="round"/>
    <path d="M 149.38136291503906 28.060712814331055 C 135.1701202392578 33.748592376708984 126.824462890625 11.623713493347168 138.2962646484375 84.42308807373047" stroke-width="3.0" fill="none" stroke="rgb(0, 0, 0)" stroke-opacity="1.0" stroke-linecap="round" stroke-linejoin="round"/>
    <path d="M 141.36619567871094 93.28142547607422 C 136.33639526367188 106.97990417480469 128.86456298828125 98.63656616210938 118.7513656616211 98.4802474975586" stroke-width="3.0" fill="none" stroke="rgb(0, 0, 0)" stroke-opacity="1.0" stroke-linecap="round" stroke-linejoin="round"/>
    <path d="M 134.88763427734375 76.31078338623047 C 138.32803344726562 55.9907112121582 128.02157592773438 72.32603454589844 137.1638641357422 78.20359802246094" stroke-width="3.0" fill="none" stroke="rgb(0, 0, 0)" stroke-opacity="1.0" stroke-linecap="round" stroke-linejoin="round"/>
    <path d="M 140.9943084716797 166.83815002441406 C 132.18289184570312 182.40237426757812 142.1783447265625 172.5542755126953 146.75535583496094 148.0277557373047" stroke-width="3.0" fill="none" stroke="rgb(0, 0, 0)" stroke-opacity="1.0" stroke-linecap="round" stroke-linejoin="round"/>
    <path d="M 195.36279296875 94.78067016601562 C 162.36495971679688 73.8790283203125 170.58584594726562 79.88705444335938 183.7799072265625 94.14786529541016" stroke-width="3.0" fill="none" stroke="rgb(0, 0, 0)" stroke-opacity="1.0" stroke-linecap="round" stroke-linejoin="round"/>
    <path d="M 155.6808319091797 68.05377960205078 C 125.22618865966797 54.59379196166992 206.84603881835938 86.4245834350586 180.06011962890625 64.65274810791016" stroke-width="3.0" fill="none" stroke="rgb(0, 0, 0)" stroke-opacity="1.0" stroke-linecap="round" stroke-linejoin="round"/>
    <path d="M 113.58842468261719 80.94856262207031 C 91.96783447265625 71.56858825683594 138.9642791748047 76.25279998779297 110.07854461669922 81.70818328857422" stroke-width="3.0" fill="none" stroke="rgb(0, 0, 0)" stroke-opacity="1.0" stroke-linecap="round" stroke-linejoin="round"/>
    <path d="M 168.07162475585938 127.94744873046875 C 148.74264526367188 159.61817932128906 106.3643798828125 151.7010040283203 105.76614379882812 156.53903198242188" stroke-width="3.0" fill="none" stroke="rgb(0, 0, 0)" stroke-opacity="1.0" stroke-linecap="round" stroke-linejoin="round"/>
    <path d="M 124.31256103515625 88.63514709472656 C 139.9726104736328 98.96330261230469 124.86227416992188 72.49360656738281 126.93707275390625 103.95160675048828" stroke-width="3.0" fill="none" stroke="rgb(0, 0, 0)" stroke-opacity="1.0" stroke-linecap="round" stroke-linejoin="round"/>
    <path d="M 185.87283325195312 110.82481384277344 C 160.3229217529297 88.33296203613281 185.52749633789062 89.604248046875 149.4438934326172 86.8882064819336" stroke-width="3.0" fill="none" stroke="rgb(0, 0, 0)" stroke-opacity="1.0" stroke-linecap="round" stroke-linejoin="round"/>
    <path d="M 86.58562469482422 8.919548034667969 C 113.7157211303711 18.443628311157227 104.19264221191406 35.64707946777344 134.10911560058594 27.99323081970215" stroke-width="3.0" fill="none" stroke="rgb(0, 0, 0)" stroke-opacity="1.0" stroke-linecap="round" stroke-linejoin="round"/>
    <path d="M 61.41922378540039 115.67576599121094 C 56.13078689575195 109.19808197021484 55.80083084106445 125.64331817626953 66.58720397949219 129.74139404296875" stroke-width="3.0" fill="none" stroke="rgb(0, 0, 0)" stroke-opacity="1.0" stroke-linecap="round" stroke-linejoin="round"/>
    <path d="M 126.02291870117188 108.70735168457031 C 141.41192626953125 90.1411361694336 119.3056869506836 117.20349884033203 114.94523620605469 92.30801391601562" stroke-width="3.0" fill="none" stroke="rgb(0, 0, 0)" stroke-opacity="1.0" stroke-linecap="round" stroke-linejoin="round"/>
    <path d="M 31.690053939819336 132.72433471679688 C 27.835893630981445 117.57819366455078 35.756004333496094 87.89353942871094 55.26323699951172 69.25093841552734" stroke-width="3.0" fill="none" stroke="rgb(0, 0, 0)" stroke-opacity="1.0" stroke-linecap="round" stroke-linejoin="round"/>
    <path d="M 91.57038116455078 199.4107666015625 C 61.90409469604492 197.35984802246094 67.88689422607422 194.5587921142578 104.44994354248047 196.37789916992188" stroke-width="3.0" fill="none" stroke="rgb(0, 0, 0)" stroke-opacity="1.0" stroke-linecap="round" stroke-linejoin="round"/>
    <path d="M 170.26210021972656 131.4652557373047 C 200.06300354003906 116.51573944091797 179.4180145263672 95.92182922363281 155.57217407226562 87.78855895996094" stroke-width="3.0" fill="none" stroke="rgb(0, 0, 0)" stroke-opacity="1.0" stroke-linecap="round" stroke-linejoin="round"/>
    <path d="M 157.4712677001953 71.03308868408203 C 132.76673889160156 84.62089538574219 174.8856964111328 72.37991333007812 146.62828063964844 70.64727783203125" stroke-width="3.0" fill="none" stroke="rgb(0, 0, 0)" stroke-opacity="1.0" stroke-linecap="round" stroke-linejoin="round"/>
    <path d="M 137.821533203125 76.92158508300781 C 140.62948608398438 36.67510223388672 199.5900115966797 112.04049682617188 179.75546264648438 47.67820358276367" stroke-width="3.0" fill="none" stroke="rgb(0, 0, 0)" stroke-opacity="1.0" stroke-linecap="round" stroke-linejoin="round"/>
    <path d="M 150.77508544921875 98.56671905517578 C 169.30099487304688 104.47595977783203 170.43553161621094 102.20427703857422 183.07337951660156 118.75837707519531" stroke-width="3.0" fill="none" stroke="rgb(0, 0, 0)" stroke-opacity="1.0" stroke-linecap="round" stroke-linejoin="round"/>
    <path d="M 171.52137756347656 17.939767837524414 C 168.99073791503906 28.53687286376953 169.18167114257812 12.088581085205078 146.70050048828125 33.03742218017578" stroke-width="3.0" fill="none" stroke="rgb(0, 0, 0)" stroke-opacity="1.0" stroke-linecap="round" stroke-linejoin="round"/>
    <path d="M 117.33820343017578 94.22974395751953 C 144.7911834716797 93.54530334472656 128.5200958251953 116.71903228759766 122.2918701171875 102.02477264404297" stroke-width="3.0" fill="none" stroke="rgb(0, 0, 0)" stroke-opacity="1.0" stroke-linecap="round" stroke-linejoin="round"/>
    <path d="M 66.87284088134766 122.635986328125 C 50.6152458190918 116.13441467285156 61.09056091308594 112.60266876220703 60.3099365234375 116.29683685302734" stroke-width="3.0" fill="none" stroke="rgb(0, 0, 0)" stroke-opacity="1.0" stroke-linecap="round" stroke-linejoin="round"/>
    <path d="M 124.31018829345703 76.30371856689453 C 124.10015869140625 44.14352798461914 120.1436767578125 50.99281311035156 119.47698211669922 35.761444091796875" stroke-width="3.0" fill="none" stroke="rgb(0, 0, 0)" stroke-opacity="1.0" stroke-linecap="round" stroke-linejoin="round"/>
    <path d="M 151.05197143554688 26.639223098754883 C 145.0187225341797 33.89140319824219 165.38375854492188 6.224910259246826 175.95582580566406 9.971339225769043" stroke-width="3.0" fill="none" stroke="rgb(0, 0, 0)" stroke-opacity="1.0" stroke-linecap="round" stroke-linejoin="round"/>
  </g>
</svg>
