<?xml version="1.0" ?>
<svg xmlns="http://www.w3.org/2000/svg" version="1.1" width="224" height="224">
  <defs/>
  <g>
    <path d="M 57.093544006347656 115.16207122802734 C 59.21992874145508 116.63957977294922 52.17007064819336 111.27974700927734 49.57801818847656 96.78034973144531" stroke-width="3.0" fill="none" stroke="rgb(0, 0, 0)" stroke-opacity="1.0" stroke-linecap="round" stroke-linejoin="round"/>
    <path d="M 180.49803161621094 126.8522720336914 C 175.32411193847656 112.0630874633789 179.51925659179688 113.9471206665039 184.44772338867188 123.59171295166016" stroke-width="3.0" fill="none" stroke="rgb(0, 0, 0)" stroke-opacity="1.0" stroke-linecap="round" stroke-linejoin="round"/>
    <path d="M 55.11627197265625 110.61649322509766 C 55.98056411743164 117.8978500366211 55.01576614379883 106.30795288085938 56.818328857421875 108.95436096191406" stroke-width="3.0" fill="none" stroke="rgb(0, 0, 0)" stroke-opacity="1.0" stroke-linecap="round" stroke-linejoin="round"/>
    <path d="M 184.89682006835938 100.09465026855469 C 156.1832275390625 99.02474212646484 171.91966247558594 87.41364288330078 194.47117614746094 113.78715515136719" stroke-width="3.0" fill="none" stroke="rgb(0, 0, 0)" stroke-opacity="1.0" stroke-linecap="round" stroke-linejoin="round"/>
    <path d="M 182.96414184570312 77.70982360839844 C 183.50732421875 86.45411682128906 176.32127380371094 76.63159942626953 181.87648010253906 79.48320770263672" stroke-width="3.0" fill="none" stroke="rgb(0, 0, 0)" stroke-opacity="1.0" stroke-linecap="round" stroke-linejoin="round"/>
    <path d="M 132.23779296875 101.47071075439453 C 121.78494262695312 111.51719665527344 118.85095977783203 106.8617172241211 136.01010131835938 107.94136810302734" stroke-width="3.0" fill="none" stroke="rgb(0, 0, 0)" stroke-opacity="1.0" stroke-linecap="round" stroke-linejoin="round"/>
    <path d="M 167.861083984375 85.36935424804688 C 191.77969360351562 82.39871978759766 185.587158203125 83.95529174804688 162.1226348876953 84.81137084960938" stroke-width="3.0" fill="none" stroke="rgb(0, 0, 0)" stroke-opacity="1.0" stroke-linecap="round" stroke-linejoin="round"/>
    <path d="M 55.415401458740234 181.5006103515625 C 36.27299880981445 161.05966186523438 52.58785629272461 159.1265106201172 44.365962982177734 161.52484130859375" stroke-width="3.0" fill="none" stroke="rgb(0, 0, 0)" stroke-opacity="1.0" stroke-linecap="round" stroke-linejoin="round"/>
    <path d="M 75.38090515136719 189.25848388671875 C 89.74372100830078 190.38330078125 105.90184783935547 194.99420166015625 89.86971282958984 184.49061584472656" stroke-width="3.0" fill="none" stroke="rgb(0, 0, 0)" stroke-opacity="1.0" stroke-linecap="round" stroke-linejoin="round"/>
    <path d="M 91.2327651977539 39.29887771606445 C 91.13448333740234 56.312503814697266 89.32120513916016 40.688072204589844 90.84165954589844 50.02838897705078" stroke-width="3.0" fill="none" stroke="rgb(0, 0, 0)" stroke-opacity="1.0" stroke-linecap="round" stroke-linejoin="round"/>
    <path d="M 61.665016174316406 128.48573303222656 C 70.74311828613281 148.44139099121094 78.08973693847656 148.480712890625 79.92022705078125 152.53927612304688" stroke-width="3.0" fill="none" stroke="rgb(0, 0, 0)" stroke-opacity="1.0" stroke-linecap="round" stroke-linejoin="round"/>
    <path d="M 165.1017303466797 83.86005401611328 C 186.88375854492188 75.05900573730469 175.65911865234375 88.57025909423828 159.06393432617188 86.82678985595703" stroke-width="3.0" fill="none" stroke="rgb(0, 0, 0)" stroke-opacity="1.0" stroke-linecap="round" stroke-linejoin="round"/>
    <path d="M 158.1443328857422 100.88568878173828 C 176.37353515625 100.8031005859375 163.47572326660156 105.34651947021484 183.9943084716797 107.4344482421875" stroke-width="3.0" fill="none" stroke="rgb(0, 0, 0)" stroke-opacity="1.0" stroke-linecap="round" stroke-linejoin="round"/>
    <path d="M 80.88381958007812 167.4619140625 C 85.6088638305664 184.92587280273438 91.46528625488281 187.68780517578125 95.3229751586914 190.99362182617188" stroke-width="3.0" fill="none" stroke="rgb(0, 0, 0)" stroke-opacity="1.0" stroke-linecap="round" stroke-linejoin="round"/>
    <path d="M 173.86361694335938 10.464900016784668 C 181.40806579589844 -5.152220726013184 187.0299072265625 24.097206115722656 181.02590942382812 51.12594223022461" stroke-width="3.0" fill="none" stroke="rgb(0, 0, 0)" stroke-opacity="1.0" stroke-linecap="round" stroke-linejoin="round"/>
    <path d="M 130.43490600585938 31.76272964477539 C 128.6710205078125 49.75580596923828 124.63695526123047 34.43525695800781 128.967041015625 65.86319732666016" stroke-width="3.0" fill="none" stroke="rgb(0, 0, 0)" stroke-opacity="1.0" stroke-linecap="round" stroke-linejoin="round"/>
    <path d="M 96.34762573242188 50.09235382080078 C 67.06775665283203 -6.236180305480957 86.32157897949219 2.8174502849578857 106.02477264404297 42.2917366027832" stroke-width="3.0" fill="none" stroke="rgb(0, 0, 0)" stroke-opacity="1.0" stroke-linecap="round" stroke-linejoin="round"/>
    <path d="M 49.92292022705078 169.62261962890625 C 35.74576187133789 157.3658447265625 49.49573516845703 162.88894653320312 45.66065979003906 160.95498657226562" stroke-width="3.0" fill="none" stroke="rgb(0, 0, 0)" stroke-opacity="1.0" stroke-linecap="round" stroke-linejoin="round"/>
    <path d="M 32.07268142700195 117.94740295410156 C 32.397342681884766 132.62159729003906 33.50752639770508 140.7112579345703 42.07362365722656 152.78941345214844" stroke-width="3.0" fill="none" stroke="rgb(0, 0, 0)" stroke-opacity="1.0" stroke-linecap="round" stroke-linejoin="round"/>
    <path d="M 74.26859283447266 158.44309997558594 C 82.24337005615234 166.30685424804688 82.76810455322266 168.1787872314453 78.87088012695312 165.79864501953125" stroke-width="3.0" fill="none" stroke="rgb(0, 0, 0)" stroke-opacity="1.0" stroke-linecap="round" stroke-linejoin="round"/>
    <path d="M 73.31749725341797 189.6126251220703 C 47.85124588012695 178.34654235839844 75.4061050415039 191.69346618652344 49.15134048461914 175.73512268066406" stroke-width="3.0" fill="none" stroke="rgb(0, 0, 0)" stroke-opacity="1.0" stroke-linecap="round" stroke-linejoin="round"/>
    <path d="M 44.43038558959961 155.89939880371094 C 44.74972915649414 162.8481903076172 39.76280212402344 154.31430053710938 37.007408142089844 145.48329162597656" stroke-width="3.0" fill="none" stroke="rgb(0, 0, 0)" stroke-opacity="1.0" stroke-linecap="round" stroke-linejoin="round"/>
    <path d="M 64.28382873535156 61.51430892944336 C 47.12202072143555 75.18965148925781 51.08232879638672 75.2292251586914 33.24134826660156 107.79070281982422" stroke-width="3.0" fill="none" stroke="rgb(0, 0, 0)" stroke-opacity="1.0" stroke-linecap="round" stroke-linejoin="round"/>
    <path d="M 150.2294158935547 158.26113891601562 C 126.42061614990234 163.89842224121094 126.08067321777344 153.3054656982422 136.9959716796875 168.42605590820312" stroke-width="3.0" fill="none" stroke="rgb(0, 0, 0)" stroke-opacity="1.0" stroke-linecap="round" stroke-linejoin="round"/>
    <path d="M 139.17945861816406 31.609739303588867 C 149.77516174316406 55.10114669799805 134.42962646484375 49.53664016723633 141.40975952148438 77.06521606445312" stroke-width="3.0" fill="none" stroke="rgb(0, 0, 0)" stroke-opacity="1.0" stroke-linecap="round" stroke-linejoin="round"/>
    <path d="M 145.43460083007812 100.07908630371094 C 130.3277587890625 109.57125091552734 112.56096649169922 102.47473907470703 128.07064819335938 105.19141387939453" stroke-width="3.0" fill="none" stroke="rgb(0, 0, 0)" stroke-opacity="1.0" stroke-linecap="round" stroke-linejoin="round"/>
    <path d="M 141.60565185546875 70.45344543457031 C 141.59030151367188 53.685081481933594 152.27149963378906 49.83588409423828 148.02178955078125 52.33751678466797" stroke-width="3.0" fill="none" stroke="rgb(0, 0, 0)" stroke-opacity="1.0" stroke-linecap="round" stroke-linejoin="round"/>
    <path d="M 105.07991027832031 195.2655487060547 C 80.4205551147461 175.9030303955078 98.09213256835938 209.5214080810547 126.98729705810547 186.66293334960938" stroke-width="3.0" fill="none" stroke="rgb(0, 0, 0)" stroke-opacity="1.0" stroke-linecap="round" stroke-linejoin="round"/>
    <path d="M 181.31964111328125 98.45203399658203 C 165.26451110839844 79.01879119873047 167.29116821289062 89.90904235839844 173.57321166992188 81.85202026367188" stroke-width="3.0" fill="none" stroke="rgb(0, 0, 0)" stroke-opacity="1.0" stroke-linecap="round" stroke-linejoin="round"/>
    <path d="M 170.1965789794922 88.29525756835938 C 186.69590759277344 82.38752746582031 193.12977600097656 91.41590881347656 164.32785034179688 86.89362335205078" stroke-width="3.0" fill="none" stroke="rgb(0, 0, 0)" stroke-opacity="1.0" stroke-linecap="round" stroke-linejoin="round"/>
    <path d="M 116.09907531738281 74.19467163085938 C 86.20784759521484 71.44007873535156 137.80108642578125 66.72806549072266 108.26079559326172 74.89531707763672" stroke-width="3.0" fill="none" stroke="rgb(0, 0, 0)" stroke-opacity="1.0" stroke-linecap="round" stroke-linejoin="round"/>
    <path d="M 133.62400817871094 159.7900848388672 C 137.40663146972656 159.8190155029297 128.1768341064453 159.75746154785156 116.47210693359375 153.1556854248047" stroke-width="3.0" fill="none" stroke="rgb(0, 0, 0)" stroke-opacity="1.0" stroke-linecap="round" stroke-linejoin="round"/>
    <path d="M 123.8049545288086 89.28221893310547 C 140.74876403808594 100.44754791259766 136.38031005859375 78.0963134765625 130.0124053955078 97.69682312011719" stroke-width="3.0" fill="none" stroke="rgb(0, 0, 0)" stroke-opacity="1.0" stroke-linecap="round" stroke-linejoin="round"/>
    <path d="M 187.4981689453125 90.0171127319336 C 172.98028564453125 87.98128509521484 185.12928771972656 97.35929870605469 144.86190795898438 86.93595886230469" stroke-width="3.0" fill="none" stroke="rgb(0, 0, 0)" stroke-opacity="1.0" stroke-linecap="round" stroke-linejoin="round"/>
    <path d="M 82.52290344238281 10.716179847717285 C 108.5505599975586 18.459318161010742 114.88661193847656 35.284820556640625 122.58423614501953 31.81353187561035" stroke-width="3.0" fill="none" stroke="rgb(0, 0, 0)" stroke-opacity="1.0" stroke-linecap="round" stroke-linejoin="round"/>
    <path d="M 53.800071716308594 109.96382904052734 C 52.14335632324219 108.98558807373047 62.36600112915039 120.6778793334961 56.42424392700195 112.85174560546875" stroke-width="3.0" fill="none" stroke="rgb(0, 0, 0)" stroke-opacity="1.0" stroke-linecap="round" stroke-linejoin="round"/>
    <path d="M 118.40187072753906 103.0291748046875 C 93.36287689208984 100.07608032226562 131.17747497558594 98.8967056274414 105.11920928955078 95.02843475341797" stroke-width="3.0" fill="none" stroke="rgb(0, 0, 0)" stroke-opacity="1.0" stroke-linecap="round" stroke-linejoin="round"/>
    <path d="M 32.808990478515625 117.42647552490234 C 35.743988037109375 91.7249984741211 38.05036544799805 106.93609619140625 33.71937942504883 107.77192687988281" stroke-width="3.0" fill="none" stroke="rgb(0, 0, 0)" stroke-opacity="1.0" stroke-linecap="round" stroke-linejoin="round"/>
    <path d="M 85.22958374023438 190.01092529296875 C 75.849365234375 190.33201599121094 75.79605865478516 193.66807556152344 86.61164855957031 191.11912536621094" stroke-width="3.0" fill="none" stroke="rgb(0, 0, 0)" stroke-opacity="1.0" stroke-linecap="round" stroke-linejoin="round"/>
    <path d="M 171.01263427734375 133.34730529785156 C 194.34063720703125 101.48645782470703 173.36390686035156 96.05058288574219 149.2244415283203 95.9168701171875" stroke-width="3.0" fill="none" stroke="rgb(0, 0, 0)" stroke-opacity="1.0" stroke-linecap="round" stroke-linejoin="round"/>
    <path d="M 153.15394592285156 78.02322387695312 C 142.6324005126953 64.98860931396484 144.70889282226562 88.3335952758789 159.0790557861328 73.91511535644531" stroke-width="3.0" fill="none" stroke="rgb(0, 0, 0)" stroke-opacity="1.0" stroke-linecap="round" stroke-linejoin="round"/>
    <path d="M 148.8043670654297 70.48953247070312 C 164.29620361328125 66.69784545898438 165.7666015625 75.0224838256836 181.31190490722656 70.31025695800781" stroke-width="3.0" fill="none" stroke="rgb(0, 0, 0)" stroke-opacity="1.0" stroke-linecap="round" stroke-linejoin="round"/>
    <path d="M 148.8817138671875 100.8833236694336 C 155.45457458496094 102.5519790649414 167.10264587402344 104.55786895751953 182.6946563720703 116.43421936035156" stroke-width="3.0" fill="none" stroke="rgb(0, 0, 0)" stroke-opacity="1.0" stroke-linecap="round" stroke-linejoin="round"/>
    <path d="M 173.61065673828125 20.049226760864258 C 169.037353515625 40.729034423828125 168.16268920898438 27.457740783691406 165.23236083984375 40.325069427490234" stroke-width="3.0" fill="none" stroke="rgb(0, 0, 0)" stroke-opacity="1.0" stroke-linecap="round" stroke-linejoin="round"/>
    <path d="M 122.27352142333984 108.31920623779297 C 151.26593017578125 117.30039978027344 133.4302520751953 93.70524597167969 116.74767303466797 106.9013671875" stroke-width="3.0" fill="none" stroke="rgb(0, 0, 0)" stroke-opacity="1.0" stroke-linecap="round" stroke-linejoin="round"/>
    <path d="M 52.470741271972656 106.1590576171875 C 56.09991455078125 108.949462890625 50.46733856201172 103.99046325683594 63.0213623046875 127.8486099243164" stroke-width="3.0" fill="none" stroke="rgb(0, 0, 0)" stroke-opacity="1.0" stroke-linecap="round" stroke-linejoin="round"/>
    <path d="M 122.35163116455078 83.54554748535156 C 131.35621643066406 64.993896484375 113.1019515991211 52.06139373779297 114.62385559082031 39.862789154052734" stroke-width="3.0" fill="none" stroke="rgb(0, 0, 0)" stroke-opacity="1.0" stroke-linecap="round" stroke-linejoin="round"/>
    <path d="M 145.47735595703125 31.918466567993164 C 154.44859313964844 25.192678451538086 151.6881561279297 19.495586395263672 176.05783081054688 8.085836410522461" stroke-width="3.0" fill="none" stroke="rgb(0, 0, 0)" stroke-opacity="1.0" stroke-linecap="round" stroke-linejoin="round"/>
  </g>
</svg>
