<?xml version="1.0" ?>
<svg xmlns="http://www.w3.org/2000/svg" version="1.1" width="224" height="224">
  <defs/>
  <g>
    <path d="M 64.84852600097656 80.6661376953125 C 67.19696044921875 83.42900848388672 67.23516845703125 82.3558120727539 55.04221725463867 73.4025650024414" stroke-width="3.0" fill="none" stroke="rgb(0, 0, 0)" stroke-opacity="1.0" stroke-linecap="round" stroke-linejoin="round"/>
    <path d="M 182.96543884277344 125.01907348632812 C 177.66827392578125 110.70856475830078 198.43643188476562 97.44319915771484 173.6595458984375 130.5811767578125" stroke-width="3.0" fill="none" stroke="rgb(0, 0, 0)" stroke-opacity="1.0" stroke-linecap="round" stroke-linejoin="round"/>
    <path d="M 63.550537109375 118.18289184570312 C 64.76642608642578 106.16238403320312 50.78867721557617 117.28966522216797 71.47509002685547 127.50627899169922" stroke-width="3.0" fill="none" stroke="rgb(0, 0, 0)" stroke-opacity="1.0" stroke-linecap="round" stroke-linejoin="round"/>
    <path d="M 186.35125732421875 101.39157104492188 C 158.34494018554688 84.81964874267578 178.03863525390625 81.06076049804688 195.83062744140625 112.73571014404297" stroke-width="3.0" fill="none" stroke="rgb(0, 0, 0)" stroke-opacity="1.0" stroke-linecap="round" stroke-linejoin="round"/>
    <path d="M 184.71498107910156 71.14482879638672 C 183.23150634765625 106.48353576660156 184.2548065185547 96.05409240722656 182.78379821777344 58.34839630126953" stroke-width="3.0" fill="none" stroke="rgb(0, 0, 0)" stroke-opacity="1.0" stroke-linecap="round" stroke-linejoin="round"/>
    <path d="M 126.1841812133789 100.9822769165039 C 147.53884887695312 112.9825210571289 103.78050231933594 98.77706909179688 137.9776611328125 102.98461151123047" stroke-width="3.0" fill="none" stroke="rgb(0, 0, 0)" stroke-opacity="1.0" stroke-linecap="round" stroke-linejoin="round"/>
    <path d="M 172.66954040527344 101.58183288574219 C 194.79396057128906 85.78751373291016 181.66616821289062 72.37767028808594 156.62940979003906 85.79078674316406" stroke-width="3.0" fill="none" stroke="rgb(0, 0, 0)" stroke-opacity="1.0" stroke-linecap="round" stroke-linejoin="round"/>
    <path d="M 56.79899597167969 182.8057861328125 C 38.22724914550781 155.65074157714844 47.89519500732422 166.37896728515625 47.660762786865234 171.5869903564453" stroke-width="3.0" fill="none" stroke="rgb(0, 0, 0)" stroke-opacity="1.0" stroke-linecap="round" stroke-linejoin="round"/>
    <path d="M 57.632450103759766 182.66224670410156 C 89.99909210205078 211.06350708007812 112.37822723388672 197.14743041992188 133.8010711669922 179.70729064941406" stroke-width="3.0" fill="none" stroke="rgb(0, 0, 0)" stroke-opacity="1.0" stroke-linecap="round" stroke-linejoin="round"/>
    <path d="M 90.34687805175781 26.5501766204834 C 105.5635986328125 56.85919189453125 86.8409423828125 5.8872809410095215 91.4163818359375 49.05194854736328" stroke-width="3.0" fill="none" stroke="rgb(0, 0, 0)" stroke-opacity="1.0" stroke-linecap="round" stroke-linejoin="round"/>
    <path d="M 60.43376922607422 114.88294982910156 C 58.41603469848633 133.69955444335938 103.36911010742188 156.4413299560547 97.1160888671875 155.85458374023438" stroke-width="3.0" fill="none" stroke="rgb(0, 0, 0)" stroke-opacity="1.0" stroke-linecap="round" stroke-linejoin="round"/>
    <path d="M 145.18814086914062 73.42613220214844 C 200.53916931152344 69.16563415527344 183.01351928710938 82.1009292602539 148.93508911132812 83.96585845947266" stroke-width="3.0" fill="none" stroke="rgb(0, 0, 0)" stroke-opacity="1.0" stroke-linecap="round" stroke-linejoin="round"/>
    <path d="M 150.99818420410156 96.03328704833984 C 177.4788360595703 103.34048461914062 177.05287170410156 103.24756622314453 189.31707763671875 113.01266479492188" stroke-width="3.0" fill="none" stroke="rgb(0, 0, 0)" stroke-opacity="1.0" stroke-linecap="round" stroke-linejoin="round"/>
    <path d="M 120.64618682861328 157.6837615966797 C 146.116943359375 146.49427795410156 119.06541442871094 158.48731994628906 120.4352798461914 152.26882934570312" stroke-width="3.0" fill="none" stroke="rgb(0, 0, 0)" stroke-opacity="1.0" stroke-linecap="round" stroke-linejoin="round"/>
    <path d="M 177.70706176757812 7.816375255584717 C 187.27896118164062 14.089690208435059 171.9920196533203 58.184776306152344 176.83555603027344 47.80669021606445" stroke-width="3.0" fill="none" stroke="rgb(0, 0, 0)" stroke-opacity="1.0" stroke-linecap="round" stroke-linejoin="round"/>
    <path d="M 131.6755828857422 30.284931182861328 C 122.29534912109375 59.56166458129883 132.39198303222656 37.08450698852539 125.92496490478516 70.51854705810547" stroke-width="3.0" fill="none" stroke="rgb(0, 0, 0)" stroke-opacity="1.0" stroke-linecap="round" stroke-linejoin="round"/>
    <path d="M 94.6661376953125 44.44640350341797 C 71.28382110595703 -3.5167226791381836 85.05298614501953 -1.6242597103118896 110.10494232177734 40.41225051879883" stroke-width="3.0" fill="none" stroke="rgb(0, 0, 0)" stroke-opacity="1.0" stroke-linecap="round" stroke-linejoin="round"/>
    <path d="M 45.36823654174805 165.95687866210938 C 40.58268737792969 153.64102172851562 37.98945999145508 148.18638610839844 43.94928741455078 158.9638214111328" stroke-width="3.0" fill="none" stroke="rgb(0, 0, 0)" stroke-opacity="1.0" stroke-linecap="round" stroke-linejoin="round"/>
    <path d="M 33.454742431640625 102.38973236083984 C 24.292770385742188 127.70741271972656 38.25631332397461 144.7059783935547 40.941314697265625 151.57762145996094" stroke-width="3.0" fill="none" stroke="rgb(0, 0, 0)" stroke-opacity="1.0" stroke-linecap="round" stroke-linejoin="round"/>
    <path d="M 89.03851318359375 149.6273651123047 C 103.12939453125 161.19187927246094 116.46861267089844 147.95619201660156 106.43526458740234 162.04527282714844" stroke-width="3.0" fill="none" stroke="rgb(0, 0, 0)" stroke-opacity="1.0" stroke-linecap="round" stroke-linejoin="round"/>
    <path d="M 80.94087219238281 199.12213134765625 C 67.68494415283203 197.96307373046875 51.77928161621094 177.81375122070312 49.85449981689453 172.65792846679688" stroke-width="3.0" fill="none" stroke="rgb(0, 0, 0)" stroke-opacity="1.0" stroke-linecap="round" stroke-linejoin="round"/>
    <path d="M 44.268009185791016 162.33876037597656 C 60.923095703125 191.7042694091797 43.51424026489258 164.25341796875 35.76241683959961 144.7599639892578" stroke-width="3.0" fill="none" stroke="rgb(0, 0, 0)" stroke-opacity="1.0" stroke-linecap="round" stroke-linejoin="round"/>
    <path d="M 81.56954193115234 56.07369613647461 C 56.740814208984375 57.2846565246582 50.74162673950195 72.59883117675781 32.806034088134766 105.87105560302734" stroke-width="3.0" fill="none" stroke="rgb(0, 0, 0)" stroke-opacity="1.0" stroke-linecap="round" stroke-linejoin="round"/>
    <path d="M 149.46974182128906 140.74588012695312 C 128.67239379882812 159.107421875 119.85845184326172 150.50819396972656 128.84426879882812 152.6619110107422" stroke-width="3.0" fill="none" stroke="rgb(0, 0, 0)" stroke-opacity="1.0" stroke-linecap="round" stroke-linejoin="round"/>
    <path d="M 139.9237060546875 30.397045135498047 C 144.1605987548828 63.33980941772461 136.4224395751953 56.249202728271484 135.2209930419922 74.44915771484375" stroke-width="3.0" fill="none" stroke="rgb(0, 0, 0)" stroke-opacity="1.0" stroke-linecap="round" stroke-linejoin="round"/>
    <path d="M 147.0862579345703 98.6167221069336 C 117.13744354248047 110.80702209472656 136.33538818359375 109.2684097290039 138.77125549316406 103.18522644042969" stroke-width="3.0" fill="none" stroke="rgb(0, 0, 0)" stroke-opacity="1.0" stroke-linecap="round" stroke-linejoin="round"/>
    <path d="M 135.8119659423828 71.54946899414062 C 145.25694274902344 55.3524055480957 131.58737182617188 61.727088928222656 135.19610595703125 72.30894470214844" stroke-width="3.0" fill="none" stroke="rgb(0, 0, 0)" stroke-opacity="1.0" stroke-linecap="round" stroke-linejoin="round"/>
    <path d="M 134.9817657470703 177.6852569580078 C 125.3812255859375 185.89443969726562 138.72683715820312 179.02734375 143.04904174804688 145.95541381835938" stroke-width="3.0" fill="none" stroke="rgb(0, 0, 0)" stroke-opacity="1.0" stroke-linecap="round" stroke-linejoin="round"/>
    <path d="M 192.02186584472656 95.3152847290039 C 166.26449584960938 75.11316680908203 156.52281188964844 81.2845687866211 183.00889587402344 83.66963195800781" stroke-width="3.0" fill="none" stroke="rgb(0, 0, 0)" stroke-opacity="1.0" stroke-linecap="round" stroke-linejoin="round"/>
    <path d="M 152.1072998046875 76.70887756347656 C 158.18408203125 63.12232971191406 200.24185180664062 78.82083129882812 179.17369079589844 66.17708587646484" stroke-width="3.0" fill="none" stroke="rgb(0, 0, 0)" stroke-opacity="1.0" stroke-linecap="round" stroke-linejoin="round"/>
    <path d="M 117.71881103515625 81.55081939697266 C 83.97642517089844 75.29012298583984 136.6295166015625 73.26013946533203 116.50022888183594 78.86968231201172" stroke-width="3.0" fill="none" stroke="rgb(0, 0, 0)" stroke-opacity="1.0" stroke-linecap="round" stroke-linejoin="round"/>
    <path d="M 154.16885375976562 136.25123596191406 C 132.36106872558594 167.78416442871094 111.32510375976562 150.35128784179688 102.47607421875 159.04376220703125" stroke-width="3.0" fill="none" stroke="rgb(0, 0, 0)" stroke-opacity="1.0" stroke-linecap="round" stroke-linejoin="round"/>
    <path d="M 127.2735595703125 89.195556640625 C 142.31146240234375 98.62141418457031 134.67576599121094 71.15655517578125 129.3165740966797 105.52027893066406" stroke-width="3.0" fill="none" stroke="rgb(0, 0, 0)" stroke-opacity="1.0" stroke-linecap="round" stroke-linejoin="round"/>
    <path d="M 185.59765625 112.01397705078125 C 183.72042846679688 78.8934326171875 190.22885131835938 95.07807159423828 140.41323852539062 82.64836120605469" stroke-width="3.0" fill="none" stroke="rgb(0, 0, 0)" stroke-opacity="1.0" stroke-linecap="round" stroke-linejoin="round"/>
    <path d="M 86.08065032958984 9.533014297485352 C 104.3770980834961 13.035414695739746 115.09577941894531 33.606204986572266 120.90850067138672 30.17066192626953" stroke-width="3.0" fill="none" stroke="rgb(0, 0, 0)" stroke-opacity="1.0" stroke-linecap="round" stroke-linejoin="round"/>
    <path d="M 65.81291961669922 120.54325866699219 C 60.26587677001953 113.0484619140625 69.41387176513672 131.61834716796875 63.19508361816406 121.07919311523438" stroke-width="3.0" fill="none" stroke="rgb(0, 0, 0)" stroke-opacity="1.0" stroke-linecap="round" stroke-linejoin="round"/>
    <path d="M 138.919921875 101.67854309082031 C 115.84864807128906 91.06482696533203 120.43135833740234 111.67279815673828 113.28977966308594 89.72468566894531" stroke-width="3.0" fill="none" stroke="rgb(0, 0, 0)" stroke-opacity="1.0" stroke-linecap="round" stroke-linejoin="round"/>
    <path d="M 31.816776275634766 130.18507385253906 C 29.246477127075195 104.32343292236328 34.92152404785156 106.74028015136719 34.65062713623047 100.36100006103516" stroke-width="3.0" fill="none" stroke="rgb(0, 0, 0)" stroke-opacity="1.0" stroke-linecap="round" stroke-linejoin="round"/>
    <path d="M 84.29212951660156 198.02992248535156 C 70.95157623291016 193.81968688964844 66.98217010498047 194.42210388183594 92.70696258544922 200.21136474609375" stroke-width="3.0" fill="none" stroke="rgb(0, 0, 0)" stroke-opacity="1.0" stroke-linecap="round" stroke-linejoin="round"/>
    <path d="M 155.8345947265625 137.4849395751953 C 204.04405212402344 113.25116729736328 178.25076293945312 98.194580078125 158.7557830810547 91.20606231689453" stroke-width="3.0" fill="none" stroke="rgb(0, 0, 0)" stroke-opacity="1.0" stroke-linecap="round" stroke-linejoin="round"/>
    <path d="M 157.08474731445312 71.96832275390625 C 123.10240173339844 79.45310974121094 175.6251220703125 81.84248352050781 148.15426635742188 70.01864624023438" stroke-width="3.0" fill="none" stroke="rgb(0, 0, 0)" stroke-opacity="1.0" stroke-linecap="round" stroke-linejoin="round"/>
    <path d="M 139.33139038085938 79.06089782714844 C 149.35757446289062 39.90445327758789 191.32228088378906 109.90740203857422 177.8336639404297 46.50790023803711" stroke-width="3.0" fill="none" stroke="rgb(0, 0, 0)" stroke-opacity="1.0" stroke-linecap="round" stroke-linejoin="round"/>
    <path d="M 157.661376953125 97.78813934326172 C 165.48989868164062 103.50949096679688 177.6276397705078 97.93133544921875 183.29408264160156 114.50640106201172" stroke-width="3.0" fill="none" stroke="rgb(0, 0, 0)" stroke-opacity="1.0" stroke-linecap="round" stroke-linejoin="round"/>
    <path d="M 178.4352569580078 14.368416786193848 C 166.59515380859375 40.32535171508789 174.87933349609375 20.22188377380371 157.49244689941406 37.160972595214844" stroke-width="3.0" fill="none" stroke="rgb(0, 0, 0)" stroke-opacity="1.0" stroke-linecap="round" stroke-linejoin="round"/>
    <path d="M 122.79423522949219 101.57108306884766 C 145.51109313964844 101.25543212890625 125.66706848144531 113.41535949707031 120.41255187988281 98.37479400634766" stroke-width="3.0" fill="none" stroke="rgb(0, 0, 0)" stroke-opacity="1.0" stroke-linecap="round" stroke-linejoin="round"/>
    <path d="M 73.19168853759766 130.03123474121094 C 42.68622970581055 104.77669525146484 54.79718017578125 108.21565246582031 66.19351959228516 121.45307159423828" stroke-width="3.0" fill="none" stroke="rgb(0, 0, 0)" stroke-opacity="1.0" stroke-linecap="round" stroke-linejoin="round"/>
    <path d="M 124.58684539794922 73.10482788085938 C 124.1443862915039 39.25703430175781 116.68067169189453 57.07324981689453 123.57252502441406 31.259721755981445" stroke-width="3.0" fill="none" stroke="rgb(0, 0, 0)" stroke-opacity="1.0" stroke-linecap="round" stroke-linejoin="round"/>
    <path d="M 145.4492950439453 30.1350154876709 C 143.515869140625 38.296695709228516 157.09695434570312 9.796621322631836 178.5783233642578 7.57467794418335" stroke-width="3.0" fill="none" stroke="rgb(0, 0, 0)" stroke-opacity="1.0" stroke-linecap="round" stroke-linejoin="round"/>
  </g>
</svg>
