<?xml version="1.0" ?>
<svg xmlns="http://www.w3.org/2000/svg" version="1.1" width="224" height="224">
  <defs/>
  <g>
    <path d="M 60.941444396972656 93.41063690185547 C 58.42002487182617 92.74911499023438 65.57845306396484 98.52383422851562 51.255088806152344 84.3957290649414" stroke-width="3.0" fill="none" stroke="rgb(0, 0, 0)" stroke-opacity="1.0" stroke-linecap="round" stroke-linejoin="round"/>
    <path d="M 182.84317016601562 123.65412902832031 C 177.3957061767578 113.7735824584961 203.4988250732422 87.67588806152344 173.82090759277344 128.7607879638672" stroke-width="3.0" fill="none" stroke="rgb(0, 0, 0)" stroke-opacity="1.0" stroke-linecap="round" stroke-linejoin="round"/>
    <path d="M 58.401145935058594 108.63513946533203 C 51.479618072509766 107.99394989013672 55.51593780517578 125.14588165283203 64.16567993164062 133.4679412841797" stroke-width="3.0" fill="none" stroke="rgb(0, 0, 0)" stroke-opacity="1.0" stroke-linecap="round" stroke-linejoin="round"/>
    <path d="M 186.45657348632812 92.38134765625 C 135.8954315185547 94.06272888183594 176.3537139892578 87.7489013671875 189.93467712402344 105.43204498291016" stroke-width="3.0" fill="none" stroke="rgb(0, 0, 0)" stroke-opacity="1.0" stroke-linecap="round" stroke-linejoin="round"/>
    <path d="M 177.1276397705078 72.89486694335938 C 195.0753631591797 111.86760711669922 186.75665283203125 103.46224212646484 182.38035583496094 70.37700653076172" stroke-width="3.0" fill="none" stroke="rgb(0, 0, 0)" stroke-opacity="1.0" stroke-linecap="round" stroke-linejoin="round"/>
    <path d="M 121.28851318359375 105.51058197021484 C 149.0337371826172 113.88883209228516 114.1106185913086 92.64634704589844 138.1501922607422 100.34485626220703" stroke-width="3.0" fill="none" stroke="rgb(0, 0, 0)" stroke-opacity="1.0" stroke-linecap="round" stroke-linejoin="round"/>
    <path d="M 179.24671936035156 89.38007354736328 C 192.88815307617188 82.82833099365234 193.63560485839844 76.6635513305664 144.6351776123047 88.21546173095703" stroke-width="3.0" fill="none" stroke="rgb(0, 0, 0)" stroke-opacity="1.0" stroke-linecap="round" stroke-linejoin="round"/>
    <path d="M 65.57282257080078 189.79580688476562 C 38.80461502075195 163.0182342529297 50.44871520996094 170.78541564941406 48.104068756103516 170.57269287109375" stroke-width="3.0" fill="none" stroke="rgb(0, 0, 0)" stroke-opacity="1.0" stroke-linecap="round" stroke-linejoin="round"/>
    <path d="M 55.71285629272461 180.98062133789062 C 90.82029724121094 211.11224365234375 117.99349975585938 196.43264770507812 132.91336059570312 176.08074951171875" stroke-width="3.0" fill="none" stroke="rgb(0, 0, 0)" stroke-opacity="1.0" stroke-linecap="round" stroke-linejoin="round"/>
    <path d="M 85.36380767822266 28.550413131713867 C 92.11749267578125 81.1737289428711 81.37861633300781 6.826535701751709 84.64234161376953 52.738258361816406" stroke-width="3.0" fill="none" stroke="rgb(0, 0, 0)" stroke-opacity="1.0" stroke-linecap="round" stroke-linejoin="round"/>
    <path d="M 49.52376937866211 90.29385375976562 C 64.66162109375 144.44834899902344 79.42168426513672 149.48985290527344 73.12323760986328 145.50735473632812" stroke-width="3.0" fill="none" stroke="rgb(0, 0, 0)" stroke-opacity="1.0" stroke-linecap="round" stroke-linejoin="round"/>
    <path d="M 151.08363342285156 71.61895751953125 C 198.36692810058594 60.96165084838867 189.48634338378906 94.5274887084961 140.10609436035156 82.9632339477539" stroke-width="3.0" fill="none" stroke="rgb(0, 0, 0)" stroke-opacity="1.0" stroke-linecap="round" stroke-linejoin="round"/>
    <path d="M 150.04368591308594 96.71791076660156 C 182.4159393310547 104.12725830078125 176.4969024658203 98.20848846435547 196.12547302246094 114.66368103027344" stroke-width="3.0" fill="none" stroke="rgb(0, 0, 0)" stroke-opacity="1.0" stroke-linecap="round" stroke-linejoin="round"/>
    <path d="M 112.1959228515625 152.61679077148438 C 149.0994873046875 156.6558074951172 120.06586456298828 150.31764221191406 103.88180541992188 157.1504364013672" stroke-width="3.0" fill="none" stroke="rgb(0, 0, 0)" stroke-opacity="1.0" stroke-linecap="round" stroke-linejoin="round"/>
    <path d="M 179.70664978027344 8.79140853881836 C 185.77267456054688 22.31505012512207 171.09437561035156 70.57435607910156 180.33660888671875 53.71936798095703" stroke-width="3.0" fill="none" stroke="rgb(0, 0, 0)" stroke-opacity="1.0" stroke-linecap="round" stroke-linejoin="round"/>
    <path d="M 132.79722595214844 29.379079818725586 C 125.74890899658203 42.863189697265625 136.46148681640625 48.01788330078125 126.82733917236328 64.96466064453125" stroke-width="3.0" fill="none" stroke="rgb(0, 0, 0)" stroke-opacity="1.0" stroke-linecap="round" stroke-linejoin="round"/>
    <path d="M 91.78819274902344 41.932838439941406 C 69.41645812988281 -2.801790714263916 87.26030731201172 1.1200814247131348 111.66158294677734 32.72904586791992" stroke-width="3.0" fill="none" stroke="rgb(0, 0, 0)" stroke-opacity="1.0" stroke-linecap="round" stroke-linejoin="round"/>
    <path d="M 46.87228775024414 169.00755310058594 C 40.19305419921875 154.161865234375 36.79813003540039 147.2289581298828 47.434837341308594 169.72213745117188" stroke-width="3.0" fill="none" stroke="rgb(0, 0, 0)" stroke-opacity="1.0" stroke-linecap="round" stroke-linejoin="round"/>
    <path d="M 37.298038482666016 98.83460998535156 C 22.27289390563965 133.1808624267578 42.010643005371094 145.56658935546875 44.292110443115234 164.56607055664062" stroke-width="3.0" fill="none" stroke="rgb(0, 0, 0)" stroke-opacity="1.0" stroke-linecap="round" stroke-linejoin="round"/>
    <path d="M 76.37367248535156 147.61346435546875 C 112.68055725097656 159.92263793945312 89.02404022216797 155.3529510498047 97.05870056152344 151.13609313964844" stroke-width="3.0" fill="none" stroke="rgb(0, 0, 0)" stroke-opacity="1.0" stroke-linecap="round" stroke-linejoin="round"/>
    <path d="M 88.6844711303711 196.74305725097656 C 69.7876205444336 203.60765075683594 49.0606689453125 175.9468994140625 47.96030044555664 170.498291015625" stroke-width="3.0" fill="none" stroke="rgb(0, 0, 0)" stroke-opacity="1.0" stroke-linecap="round" stroke-linejoin="round"/>
    <path d="M 48.010459899902344 171.1273193359375 C 63.996803283691406 196.0166473388672 46.849510192871094 171.16635131835938 40.368995666503906 152.22833251953125" stroke-width="3.0" fill="none" stroke="rgb(0, 0, 0)" stroke-opacity="1.0" stroke-linecap="round" stroke-linejoin="round"/>
    <path d="M 81.69891357421875 57.66962432861328 C 64.50253295898438 59.015830993652344 48.192867279052734 73.0671615600586 33.71059799194336 107.05209350585938" stroke-width="3.0" fill="none" stroke="rgb(0, 0, 0)" stroke-opacity="1.0" stroke-linecap="round" stroke-linejoin="round"/>
    <path d="M 157.89266967773438 138.90838623046875 C 111.50450897216797 154.7544403076172 106.12894439697266 155.54473876953125 145.8048858642578 148.09274291992188" stroke-width="3.0" fill="none" stroke="rgb(0, 0, 0)" stroke-opacity="1.0" stroke-linecap="round" stroke-linejoin="round"/>
    <path d="M 150.03448486328125 23.285560607910156 C 136.30007934570312 38.55363082885742 135.5345458984375 0.32618820667266846 134.99200439453125 82.83355712890625" stroke-width="3.0" fill="none" stroke="rgb(0, 0, 0)" stroke-opacity="1.0" stroke-linecap="round" stroke-linejoin="round"/>
    <path d="M 146.2152557373047 93.58197021484375 C 130.5919647216797 108.11641693115234 132.6588897705078 109.86430358886719 119.29297637939453 104.20661926269531" stroke-width="3.0" fill="none" stroke="rgb(0, 0, 0)" stroke-opacity="1.0" stroke-linecap="round" stroke-linejoin="round"/>
    <path d="M 135.6096649169922 79.26335144042969 C 142.82504272460938 55.54627990722656 131.3741455078125 64.87958526611328 133.85531616210938 68.9609146118164" stroke-width="3.0" fill="none" stroke="rgb(0, 0, 0)" stroke-opacity="1.0" stroke-linecap="round" stroke-linejoin="round"/>
    <path d="M 136.77928161621094 171.47315979003906 C 129.35719299316406 180.03103637695312 140.7748260498047 174.38592529296875 145.5245819091797 147.35520935058594" stroke-width="3.0" fill="none" stroke="rgb(0, 0, 0)" stroke-opacity="1.0" stroke-linecap="round" stroke-linejoin="round"/>
    <path d="M 195.04879760742188 94.9895248413086 C 165.71267700195312 73.4736328125 166.5797882080078 80.2966537475586 190.53028869628906 92.90103149414062" stroke-width="3.0" fill="none" stroke="rgb(0, 0, 0)" stroke-opacity="1.0" stroke-linecap="round" stroke-linejoin="round"/>
    <path d="M 153.07318115234375 75.55982971191406 C 121.02969360351562 57.550537109375 202.0993194580078 77.56893920898438 180.1631317138672 66.4391860961914" stroke-width="3.0" fill="none" stroke="rgb(0, 0, 0)" stroke-opacity="1.0" stroke-linecap="round" stroke-linejoin="round"/>
    <path d="M 112.22836303710938 82.69889831542969 C 95.47492980957031 72.66661071777344 139.2388458251953 80.2602310180664 109.78115844726562 84.52383422851562" stroke-width="3.0" fill="none" stroke="rgb(0, 0, 0)" stroke-opacity="1.0" stroke-linecap="round" stroke-linejoin="round"/>
    <path d="M 165.59278869628906 130.75485229492188 C 147.60414123535156 156.3038330078125 114.22624206542969 149.20252990722656 96.28868865966797 154.84840393066406" stroke-width="3.0" fill="none" stroke="rgb(0, 0, 0)" stroke-opacity="1.0" stroke-linecap="round" stroke-linejoin="round"/>
    <path d="M 120.89437866210938 89.0851821899414 C 139.15745544433594 98.0298843383789 125.76769256591797 71.31487274169922 127.09335327148438 106.0929946899414" stroke-width="3.0" fill="none" stroke="rgb(0, 0, 0)" stroke-opacity="1.0" stroke-linecap="round" stroke-linejoin="round"/>
    <path d="M 185.27565002441406 113.45274353027344 C 167.7888946533203 86.60231018066406 182.79034423828125 87.38031768798828 151.24346923828125 91.50715637207031" stroke-width="3.0" fill="none" stroke="rgb(0, 0, 0)" stroke-opacity="1.0" stroke-linecap="round" stroke-linejoin="round"/>
    <path d="M 88.96405029296875 7.736196041107178 C 108.72863006591797 11.170039176940918 122.97430419921875 31.72771453857422 130.33412170410156 28.962324142456055" stroke-width="3.0" fill="none" stroke="rgb(0, 0, 0)" stroke-opacity="1.0" stroke-linecap="round" stroke-linejoin="round"/>
    <path d="M 56.12693405151367 122.50684356689453 C 55.58515548706055 117.14511108398438 63.08625793457031 126.91264343261719 68.29706573486328 136.69110107421875" stroke-width="3.0" fill="none" stroke="rgb(0, 0, 0)" stroke-opacity="1.0" stroke-linecap="round" stroke-linejoin="round"/>
    <path d="M 128.3268585205078 103.42543029785156 C 130.9527587890625 89.84976959228516 117.63825225830078 121.45446014404297 106.95404052734375 90.10311126708984" stroke-width="3.0" fill="none" stroke="rgb(0, 0, 0)" stroke-opacity="1.0" stroke-linecap="round" stroke-linejoin="round"/>
    <path d="M 32.82876968383789 130.65341186523438 C 28.17386245727539 102.7391357421875 37.18757629394531 98.9207763671875 52.62217712402344 74.38353729248047" stroke-width="3.0" fill="none" stroke="rgb(0, 0, 0)" stroke-opacity="1.0" stroke-linecap="round" stroke-linejoin="round"/>
    <path d="M 82.52921295166016 197.8214111328125 C 68.6185302734375 191.73910522460938 68.70446014404297 194.76251220703125 105.2723388671875 197.357421875" stroke-width="3.0" fill="none" stroke="rgb(0, 0, 0)" stroke-opacity="1.0" stroke-linecap="round" stroke-linejoin="round"/>
    <path d="M 166.73443603515625 130.14479064941406 C 200.3782196044922 112.99853515625 180.17935180664062 96.09101867675781 155.3668212890625 91.69037628173828" stroke-width="3.0" fill="none" stroke="rgb(0, 0, 0)" stroke-opacity="1.0" stroke-linecap="round" stroke-linejoin="round"/>
    <path d="M 149.15516662597656 70.38738250732422 C 135.50404357910156 84.47886657714844 172.4901580810547 76.14141082763672 146.91943359375 69.55046081542969" stroke-width="3.0" fill="none" stroke="rgb(0, 0, 0)" stroke-opacity="1.0" stroke-linecap="round" stroke-linejoin="round"/>
    <path d="M 139.20420837402344 72.52173614501953 C 147.3249969482422 39.661766052246094 198.22048950195312 111.2508544921875 177.39642333984375 39.60531997680664" stroke-width="3.0" fill="none" stroke="rgb(0, 0, 0)" stroke-opacity="1.0" stroke-linecap="round" stroke-linejoin="round"/>
    <path d="M 157.288330078125 98.69465637207031 C 168.67755126953125 104.82571411132812 175.69717407226562 103.65814971923828 181.08607482910156 117.0051040649414" stroke-width="3.0" fill="none" stroke="rgb(0, 0, 0)" stroke-opacity="1.0" stroke-linecap="round" stroke-linejoin="round"/>
    <path d="M 176.94895935058594 20.074621200561523 C 165.3062286376953 43.9925537109375 174.77928161621094 23.404829025268555 161.48741149902344 34.08540344238281" stroke-width="3.0" fill="none" stroke="rgb(0, 0, 0)" stroke-opacity="1.0" stroke-linecap="round" stroke-linejoin="round"/>
    <path d="M 118.65483093261719 102.00140380859375 C 144.1697998046875 95.37491607666016 130.61441040039062 108.59561920166016 120.53597259521484 104.79766845703125" stroke-width="3.0" fill="none" stroke="rgb(0, 0, 0)" stroke-opacity="1.0" stroke-linecap="round" stroke-linejoin="round"/>
    <path d="M 66.94652557373047 128.23342895507812 C 50.49391555786133 119.16922760009766 59.0906982421875 111.26083374023438 57.91998291015625 116.26742553710938" stroke-width="3.0" fill="none" stroke="rgb(0, 0, 0)" stroke-opacity="1.0" stroke-linecap="round" stroke-linejoin="round"/>
    <path d="M 123.47761535644531 77.91302490234375 C 132.38294982910156 38.676815032958984 121.00001525878906 51.60604476928711 125.97269439697266 30.509681701660156" stroke-width="3.0" fill="none" stroke="rgb(0, 0, 0)" stroke-opacity="1.0" stroke-linecap="round" stroke-linejoin="round"/>
    <path d="M 156.8139190673828 20.782936096191406 C 148.26011657714844 31.488515853881836 163.4147186279297 7.441623687744141 179.34713745117188 8.823392868041992" stroke-width="3.0" fill="none" stroke="rgb(0, 0, 0)" stroke-opacity="1.0" stroke-linecap="round" stroke-linejoin="round"/>
  </g>
</svg>
