<?xml version="1.0" ?>
<svg xmlns="http://www.w3.org/2000/svg" version="1.1" width="224" height="224">
  <defs/>
  <g>
    <path d="M 62.45291519165039 90.11280059814453 C 77.28230285644531 77.38580322265625 62.06980895996094 78.95162963867188 78.41475677490234 59.07263946533203" stroke-width="3.0" fill="none" stroke="rgb(0, 0, 0)" stroke-opacity="1.0" stroke-linecap="round" stroke-linejoin="round"/>
    <path d="M 195.38442993164062 112.2219009399414 C 182.91062927246094 101.14839935302734 196.95037841796875 100.75523376464844 178.02243041992188 126.58830261230469" stroke-width="3.0" fill="none" stroke="rgb(0, 0, 0)" stroke-opacity="1.0" stroke-linecap="round" stroke-linejoin="round"/>
    <path d="M 60.971004486083984 116.37359619140625 C 52.86161422729492 88.11144256591797 58.498497009277344 113.0667953491211 61.28797912597656 109.5274887084961" stroke-width="3.0" fill="none" stroke="rgb(0, 0, 0)" stroke-opacity="1.0" stroke-linecap="round" stroke-linejoin="round"/>
    <path d="M 188.08529663085938 92.99065399169922 C 150.19082641601562 76.65835571289062 182.54299926757812 77.22783660888672 190.6385040283203 98.08604431152344" stroke-width="3.0" fill="none" stroke="rgb(0, 0, 0)" stroke-opacity="1.0" stroke-linecap="round" stroke-linejoin="round"/>
    <path d="M 174.08421325683594 55.20244598388672 C 194.04615783691406 89.65771484375 178.4136505126953 104.46475982666016 178.6544647216797 49.539066314697266" stroke-width="3.0" fill="none" stroke="rgb(0, 0, 0)" stroke-opacity="1.0" stroke-linecap="round" stroke-linejoin="round"/>
    <path d="M 130.49398803710938 98.1806411743164 C 155.79107666015625 106.51009368896484 96.41667938232422 98.62175750732422 135.7593994140625 101.34884643554688" stroke-width="3.0" fill="none" stroke="rgb(0, 0, 0)" stroke-opacity="1.0" stroke-linecap="round" stroke-linejoin="round"/>
    <path d="M 186.3097381591797 102.25873565673828 C 163.91079711914062 87.45149993896484 196.27255249023438 66.2801742553711 152.8023681640625 87.18476867675781" stroke-width="3.0" fill="none" stroke="rgb(0, 0, 0)" stroke-opacity="1.0" stroke-linecap="round" stroke-linejoin="round"/>
    <path d="M 63.21074295043945 189.66751098632812 C 44.09907913208008 166.76837158203125 44.69648742675781 171.44686889648438 65.0308609008789 189.43344116210938" stroke-width="3.0" fill="none" stroke="rgb(0, 0, 0)" stroke-opacity="1.0" stroke-linecap="round" stroke-linejoin="round"/>
    <path d="M 59.770320892333984 184.64007568359375 C 85.07857513427734 211.9131317138672 139.37466430664062 193.12814331054688 137.52674865722656 161.52394104003906" stroke-width="3.0" fill="none" stroke="rgb(0, 0, 0)" stroke-opacity="1.0" stroke-linecap="round" stroke-linejoin="round"/>
    <path d="M 83.01580047607422 13.458526611328125 C 94.89695739746094 70.3119125366211 88.7103271484375 16.46489715576172 83.76153564453125 49.7265625" stroke-width="3.0" fill="none" stroke="rgb(0, 0, 0)" stroke-opacity="1.0" stroke-linecap="round" stroke-linejoin="round"/>
    <path d="M 61.4702262878418 91.64871978759766 C 48.25727081298828 121.81258392333984 78.62301635742188 126.4898681640625 59.06499099731445 115.83232879638672" stroke-width="3.0" fill="none" stroke="rgb(0, 0, 0)" stroke-opacity="1.0" stroke-linecap="round" stroke-linejoin="round"/>
    <path d="M 145.1798858642578 75.20560455322266 C 193.7386474609375 62.01356887817383 205.7394561767578 88.09111022949219 140.16307067871094 86.15131378173828" stroke-width="3.0" fill="none" stroke="rgb(0, 0, 0)" stroke-opacity="1.0" stroke-linecap="round" stroke-linejoin="round"/>
    <path d="M 150.67164611816406 96.14696502685547 C 187.3730010986328 101.08108520507812 180.0580291748047 105.63335418701172 185.13998413085938 113.05189514160156" stroke-width="3.0" fill="none" stroke="rgb(0, 0, 0)" stroke-opacity="1.0" stroke-linecap="round" stroke-linejoin="round"/>
    <path d="M 133.33966064453125 151.59197998046875 C 178.25375366210938 154.31179809570312 93.8746566772461 142.48696899414062 95.53080749511719 150.79981994628906" stroke-width="3.0" fill="none" stroke="rgb(0, 0, 0)" stroke-opacity="1.0" stroke-linecap="round" stroke-linejoin="round"/>
    <path d="M 178.0485076904297 7.329261779785156 C 189.69525146484375 16.616226196289062 164.54092407226562 89.21136474609375 184.40721130371094 60.186763763427734" stroke-width="3.0" fill="none" stroke="rgb(0, 0, 0)" stroke-opacity="1.0" stroke-linecap="round" stroke-linejoin="round"/>
    <path d="M 151.21937561035156 28.32282066345215 C 109.55587768554688 32.68133544921875 136.96914672851562 20.75872230529785 124.30701446533203 67.20787811279297" stroke-width="3.0" fill="none" stroke="rgb(0, 0, 0)" stroke-opacity="1.0" stroke-linecap="round" stroke-linejoin="round"/>
    <path d="M 107.08450317382812 48.23806381225586 C 61.0943717956543 -6.805519104003906 83.21585845947266 1.4749253988265991 121.40206146240234 33.25276565551758" stroke-width="3.0" fill="none" stroke="rgb(0, 0, 0)" stroke-opacity="1.0" stroke-linecap="round" stroke-linejoin="round"/>
    <path d="M 44.3044319152832 161.7616729736328 C 44.823829650878906 158.40785217285156 40.09473419189453 158.12339782714844 51.100399017333984 179.38360595703125" stroke-width="3.0" fill="none" stroke="rgb(0, 0, 0)" stroke-opacity="1.0" stroke-linecap="round" stroke-linejoin="round"/>
    <path d="M 58.778934478759766 66.76651000976562 C 14.72787094116211 112.62830352783203 37.265777587890625 146.29696655273438 45.424617767333984 163.98597717285156" stroke-width="3.0" fill="none" stroke="rgb(0, 0, 0)" stroke-opacity="1.0" stroke-linecap="round" stroke-linejoin="round"/>
    <path d="M 72.58618927001953 133.1827850341797 C 145.9757537841797 165.3346710205078 117.02935791015625 148.32363891601562 88.00997924804688 143.67355346679688" stroke-width="3.0" fill="none" stroke="rgb(0, 0, 0)" stroke-opacity="1.0" stroke-linecap="round" stroke-linejoin="round"/>
    <path d="M 86.15397644042969 196.2852783203125 C 64.63531494140625 198.528564453125 45.85722351074219 178.4147186279297 39.5250358581543 148.8889617919922" stroke-width="3.0" fill="none" stroke="rgb(0, 0, 0)" stroke-opacity="1.0" stroke-linecap="round" stroke-linejoin="round"/>
    <path d="M 47.151344299316406 173.5343475341797 C 72.1575927734375 199.74322509765625 49.350372314453125 177.12612915039062 41.824737548828125 150.31790161132812" stroke-width="3.0" fill="none" stroke="rgb(0, 0, 0)" stroke-opacity="1.0" stroke-linecap="round" stroke-linejoin="round"/>
    <path d="M 81.29951477050781 53.86685562133789 C 60.368377685546875 57.79405212402344 59.346839904785156 63.61137771606445 34.27617263793945 105.9790267944336" stroke-width="3.0" fill="none" stroke="rgb(0, 0, 0)" stroke-opacity="1.0" stroke-linecap="round" stroke-linejoin="round"/>
    <path d="M 148.4883575439453 144.97486877441406 C 111.12752532958984 158.62692260742188 63.910465240478516 148.28782653808594 146.00930786132812 148.48353576660156" stroke-width="3.0" fill="none" stroke="rgb(0, 0, 0)" stroke-opacity="1.0" stroke-linecap="round" stroke-linejoin="round"/>
    <path d="M 150.69039916992188 26.95296859741211 C 144.8525390625 39.130638122558594 141.15444946289062 14.800298690795898 136.6167449951172 73.96379852294922" stroke-width="3.0" fill="none" stroke="rgb(0, 0, 0)" stroke-opacity="1.0" stroke-linecap="round" stroke-linejoin="round"/>
    <path d="M 145.1919403076172 97.57687377929688 C 125.84605407714844 112.23604583740234 124.61647033691406 105.13977813720703 124.08650207519531 102.34397888183594" stroke-width="3.0" fill="none" stroke="rgb(0, 0, 0)" stroke-opacity="1.0" stroke-linecap="round" stroke-linejoin="round"/>
    <path d="M 136.30101013183594 71.71805572509766 C 145.43905639648438 52.236656188964844 136.85580444335938 65.44747161865234 135.70773315429688 68.53016662597656" stroke-width="3.0" fill="none" stroke="rgb(0, 0, 0)" stroke-opacity="1.0" stroke-linecap="round" stroke-linejoin="round"/>
    <path d="M 139.38955688476562 162.3250274658203 C 135.45018005371094 168.54515075683594 141.24261474609375 163.85765075683594 151.65170288085938 141.06344604492188" stroke-width="3.0" fill="none" stroke="rgb(0, 0, 0)" stroke-opacity="1.0" stroke-linecap="round" stroke-linejoin="round"/>
    <path d="M 193.54934692382812 96.71034240722656 C 159.34335327148438 74.15816497802734 190.326904296875 60.30583572387695 177.01634216308594 95.4298095703125" stroke-width="3.0" fill="none" stroke="rgb(0, 0, 0)" stroke-opacity="1.0" stroke-linecap="round" stroke-linejoin="round"/>
    <path d="M 153.74172973632812 77.83368682861328 C 120.90630340576172 55.45456314086914 204.11326599121094 89.90235137939453 181.30108642578125 59.91933059692383" stroke-width="3.0" fill="none" stroke="rgb(0, 0, 0)" stroke-opacity="1.0" stroke-linecap="round" stroke-linejoin="round"/>
    <path d="M 115.68449401855469 82.08043670654297 C 86.80892944335938 74.29822540283203 138.0456085205078 73.54434204101562 109.44282531738281 82.87674713134766" stroke-width="3.0" fill="none" stroke="rgb(0, 0, 0)" stroke-opacity="1.0" stroke-linecap="round" stroke-linejoin="round"/>
    <path d="M 166.9158935546875 130.5857696533203 C 153.76531982421875 153.70535278320312 86.87129211425781 148.97235107421875 91.84542083740234 146.5797576904297" stroke-width="3.0" fill="none" stroke="rgb(0, 0, 0)" stroke-opacity="1.0" stroke-linecap="round" stroke-linejoin="round"/>
    <path d="M 124.3094711303711 88.91889190673828 C 141.905517578125 96.39344787597656 130.0372772216797 72.71297454833984 129.49832153320312 106.04198455810547" stroke-width="3.0" fill="none" stroke="rgb(0, 0, 0)" stroke-opacity="1.0" stroke-linecap="round" stroke-linejoin="round"/>
    <path d="M 186.0482635498047 109.27923583984375 C 173.76666259765625 88.24380493164062 169.5040740966797 94.06194305419922 141.49755859375 83.08206176757812" stroke-width="3.0" fill="none" stroke="rgb(0, 0, 0)" stroke-opacity="1.0" stroke-linecap="round" stroke-linejoin="round"/>
    <path d="M 90.9292984008789 21.80976676940918 C 124.50499725341797 28.68294334411621 84.78020477294922 29.27216911315918 146.5260772705078 29.50640296936035" stroke-width="3.0" fill="none" stroke="rgb(0, 0, 0)" stroke-opacity="1.0" stroke-linecap="round" stroke-linejoin="round"/>
    <path d="M 59.31471252441406 107.4111328125 C 57.10554504394531 92.64887237548828 51.50114059448242 114.30660247802734 73.84408569335938 135.871826171875" stroke-width="3.0" fill="none" stroke="rgb(0, 0, 0)" stroke-opacity="1.0" stroke-linecap="round" stroke-linejoin="round"/>
    <path d="M 128.6132049560547 106.92816162109375 C 132.7570037841797 89.92232513427734 125.27323913574219 119.52753448486328 112.0947494506836 91.39789581298828" stroke-width="3.0" fill="none" stroke="rgb(0, 0, 0)" stroke-opacity="1.0" stroke-linecap="round" stroke-linejoin="round"/>
    <path d="M 40.94557571411133 151.62747192382812 C 21.868518829345703 120.84850311279297 41.01736068725586 66.92335510253906 68.25745391845703 58.507606506347656" stroke-width="3.0" fill="none" stroke="rgb(0, 0, 0)" stroke-opacity="1.0" stroke-linecap="round" stroke-linejoin="round"/>
    <path d="M 107.84431457519531 196.3318634033203 C 87.3904800415039 202.1033935546875 91.55082702636719 197.7417755126953 109.05130004882812 196.02626037597656" stroke-width="3.0" fill="none" stroke="rgb(0, 0, 0)" stroke-opacity="1.0" stroke-linecap="round" stroke-linejoin="round"/>
    <path d="M 168.7522430419922 128.44981384277344 C 199.78839111328125 114.2956314086914 193.7965087890625 88.2967300415039 155.8954620361328 85.6412353515625" stroke-width="3.0" fill="none" stroke="rgb(0, 0, 0)" stroke-opacity="1.0" stroke-linecap="round" stroke-linejoin="round"/>
    <path d="M 157.04754638671875 70.52091979980469 C 130.0531005859375 80.17695617675781 165.4551239013672 82.72247314453125 150.5537872314453 72.58796691894531" stroke-width="3.0" fill="none" stroke="rgb(0, 0, 0)" stroke-opacity="1.0" stroke-linecap="round" stroke-linejoin="round"/>
    <path d="M 139.35693359375 78.72191619873047 C 145.8439178466797 40.53596496582031 198.77587890625 120.17181396484375 177.56900024414062 41.74761199951172" stroke-width="3.0" fill="none" stroke="rgb(0, 0, 0)" stroke-opacity="1.0" stroke-linecap="round" stroke-linejoin="round"/>
    <path d="M 154.42457580566406 96.31806182861328 C 171.57427978515625 105.83645629882812 177.5543975830078 105.94456481933594 183.45664978027344 122.19682312011719" stroke-width="3.0" fill="none" stroke="rgb(0, 0, 0)" stroke-opacity="1.0" stroke-linecap="round" stroke-linejoin="round"/>
    <path d="M 177.44847106933594 14.112914085388184 C 173.63807678222656 40.40420913696289 180.18568420410156 16.334331512451172 160.00477600097656 38.01609802246094" stroke-width="3.0" fill="none" stroke="rgb(0, 0, 0)" stroke-opacity="1.0" stroke-linecap="round" stroke-linejoin="round"/>
    <path d="M 120.65054321289062 100.65241241455078 C 135.4054412841797 92.55059051513672 127.43627166748047 113.55360412597656 135.03529357910156 101.26818084716797" stroke-width="3.0" fill="none" stroke="rgb(0, 0, 0)" stroke-opacity="1.0" stroke-linecap="round" stroke-linejoin="round"/>
    <path d="M 62.2530632019043 93.93585205078125 C 58.19438552856445 111.39200592041016 55.12852478027344 109.3373031616211 64.45450592041016 99.07759857177734" stroke-width="3.0" fill="none" stroke="rgb(0, 0, 0)" stroke-opacity="1.0" stroke-linecap="round" stroke-linejoin="round"/>
    <path d="M 121.01524353027344 73.20841217041016 C 125.16621398925781 43.917938232421875 113.61075592041016 49.19620132446289 118.41004943847656 36.20539093017578" stroke-width="3.0" fill="none" stroke="rgb(0, 0, 0)" stroke-opacity="1.0" stroke-linecap="round" stroke-linejoin="round"/>
    <path d="M 138.3527069091797 33.48207473754883 C 145.9633331298828 46.48911666870117 155.45541381835938 13.16100788116455 178.23387145996094 8.754189491271973" stroke-width="3.0" fill="none" stroke="rgb(0, 0, 0)" stroke-opacity="1.0" stroke-linecap="round" stroke-linejoin="round"/>
  </g>
</svg>
