<?xml version="1.0" ?>
<svg xmlns="http://www.w3.org/2000/svg" version="1.1" width="224" height="224">
  <defs/>
  <g>
    <path d="M 58.71538543701172 96.7491226196289 C 58.560646057128906 100.05949401855469 53.45336151123047 90.7341079711914 63.61627197265625 63.59482192993164" stroke-width="3.0" fill="none" stroke="rgb(0, 0, 0)" stroke-opacity="1.0" stroke-linecap="round" stroke-linejoin="round"/>
    <path d="M 191.88558959960938 110.98357391357422 C 183.34388732910156 115.2440185546875 190.53904724121094 96.75814819335938 179.91061401367188 127.8365707397461" stroke-width="3.0" fill="none" stroke="rgb(0, 0, 0)" stroke-opacity="1.0" stroke-linecap="round" stroke-linejoin="round"/>
    <path d="M 57.84354782104492 121.56358337402344 C 56.83715057373047 82.6240234375 56.11636734008789 121.2883529663086 65.44593811035156 125.4405517578125" stroke-width="3.0" fill="none" stroke="rgb(0, 0, 0)" stroke-opacity="1.0" stroke-linecap="round" stroke-linejoin="round"/>
    <path d="M 185.77992248535156 94.61934661865234 C 146.13059997558594 71.89163970947266 183.60049438476562 78.38642120361328 189.4270782470703 103.83390045166016" stroke-width="3.0" fill="none" stroke="rgb(0, 0, 0)" stroke-opacity="1.0" stroke-linecap="round" stroke-linejoin="round"/>
    <path d="M 180.24012756347656 40.7600212097168 C 194.4186553955078 84.11930847167969 170.83445739746094 104.7497329711914 181.20372009277344 68.79962921142578" stroke-width="3.0" fill="none" stroke="rgb(0, 0, 0)" stroke-opacity="1.0" stroke-linecap="round" stroke-linejoin="round"/>
    <path d="M 127.89681243896484 102.35414123535156 C 149.50880432128906 121.11113739013672 93.40882873535156 99.61956787109375 137.1932373046875 105.20578002929688" stroke-width="3.0" fill="none" stroke="rgb(0, 0, 0)" stroke-opacity="1.0" stroke-linecap="round" stroke-linejoin="round"/>
    <path d="M 177.9064483642578 93.2652816772461 C 178.3955535888672 86.7716293334961 190.81053161621094 71.0836181640625 150.21383666992188 88.295654296875" stroke-width="3.0" fill="none" stroke="rgb(0, 0, 0)" stroke-opacity="1.0" stroke-linecap="round" stroke-linejoin="round"/>
    <path d="M 67.78688049316406 189.6227264404297 C 42.897125244140625 165.57855224609375 48.45932388305664 166.11734008789062 52.446495056152344 174.4681854248047" stroke-width="3.0" fill="none" stroke="rgb(0, 0, 0)" stroke-opacity="1.0" stroke-linecap="round" stroke-linejoin="round"/>
    <path d="M 57.30541229248047 186.02133178710938 C 87.54032135009766 209.89527893066406 132.1603240966797 195.04991149902344 140.10533142089844 164.20956420898438" stroke-width="3.0" fill="none" stroke="rgb(0, 0, 0)" stroke-opacity="1.0" stroke-linecap="round" stroke-linejoin="round"/>
    <path d="M 81.9474868774414 13.610123634338379 C 97.87861633300781 77.26905059814453 86.57870483398438 14.735206604003906 85.66053009033203 53.169639587402344" stroke-width="3.0" fill="none" stroke="rgb(0, 0, 0)" stroke-opacity="1.0" stroke-linecap="round" stroke-linejoin="round"/>
    <path d="M 58.948612213134766 95.74677276611328 C 52.493961334228516 133.25308227539062 73.28785705566406 130.31381225585938 57.09706115722656 119.80950164794922" stroke-width="3.0" fill="none" stroke="rgb(0, 0, 0)" stroke-opacity="1.0" stroke-linecap="round" stroke-linejoin="round"/>
    <path d="M 146.64210510253906 74.87550354003906 C 196.89112854003906 61.63767623901367 190.59555053710938 88.21451568603516 143.5177764892578 87.34994506835938" stroke-width="3.0" fill="none" stroke="rgb(0, 0, 0)" stroke-opacity="1.0" stroke-linecap="round" stroke-linejoin="round"/>
    <path d="M 149.86256408691406 96.52723693847656 C 178.0972137451172 97.58344268798828 174.5668182373047 99.18383026123047 196.44943237304688 115.56798553466797" stroke-width="3.0" fill="none" stroke="rgb(0, 0, 0)" stroke-opacity="1.0" stroke-linecap="round" stroke-linejoin="round"/>
    <path d="M 122.03111267089844 148.74261474609375 C 162.06375122070312 158.41738891601562 103.4150161743164 144.9077606201172 95.41629028320312 149.85568237304688" stroke-width="3.0" fill="none" stroke="rgb(0, 0, 0)" stroke-opacity="1.0" stroke-linecap="round" stroke-linejoin="round"/>
    <path d="M 178.906982421875 8.581035614013672 C 187.9425048828125 19.159828186035156 170.7169952392578 101.53057861328125 182.85121154785156 53.91877746582031" stroke-width="3.0" fill="none" stroke="rgb(0, 0, 0)" stroke-opacity="1.0" stroke-linecap="round" stroke-linejoin="round"/>
    <path d="M 147.2816619873047 32.05057907104492 C 112.84009552001953 25.19599723815918 135.5149688720703 33.51810073852539 128.62203979492188 75.46466064453125" stroke-width="3.0" fill="none" stroke="rgb(0, 0, 0)" stroke-opacity="1.0" stroke-linecap="round" stroke-linejoin="round"/>
    <path d="M 106.11295318603516 49.235469818115234 C 60.90899658203125 -6.602560520172119 81.92317962646484 1.7609632015228271 120.61467742919922 29.443248748779297" stroke-width="3.0" fill="none" stroke="rgb(0, 0, 0)" stroke-opacity="1.0" stroke-linecap="round" stroke-linejoin="round"/>
    <path d="M 46.307952880859375 160.0989532470703 C 43.07524108886719 159.16680908203125 41.6171760559082 152.78994750976562 47.85285568237305 169.61996459960938" stroke-width="3.0" fill="none" stroke="rgb(0, 0, 0)" stroke-opacity="1.0" stroke-linecap="round" stroke-linejoin="round"/>
    <path d="M 53.68128204345703 76.44900512695312 C 25.234664916992188 131.57015991210938 41.55385971069336 136.00038146972656 43.754432678222656 159.1835479736328" stroke-width="3.0" fill="none" stroke="rgb(0, 0, 0)" stroke-opacity="1.0" stroke-linecap="round" stroke-linejoin="round"/>
    <path d="M 75.28695678710938 136.55120849609375 C 135.075439453125 160.30491638183594 103.71588897705078 144.1155548095703 87.76412200927734 144.87550354003906" stroke-width="3.0" fill="none" stroke="rgb(0, 0, 0)" stroke-opacity="1.0" stroke-linecap="round" stroke-linejoin="round"/>
    <path d="M 94.76660919189453 195.36573791503906 C 64.23802185058594 200.17825317382812 50.187355041503906 177.21559143066406 44.76654815673828 160.902587890625" stroke-width="3.0" fill="none" stroke="rgb(0, 0, 0)" stroke-opacity="1.0" stroke-linecap="round" stroke-linejoin="round"/>
    <path d="M 51.780757904052734 169.62152099609375 C 72.4737777709961 196.10047912597656 50.20551681518555 173.15924072265625 36.71047592163086 141.38006591796875" stroke-width="3.0" fill="none" stroke="rgb(0, 0, 0)" stroke-opacity="1.0" stroke-linecap="round" stroke-linejoin="round"/>
    <path d="M 82.97744750976562 59.038230895996094 C 51.4472770690918 55.958526611328125 63.90728759765625 73.16297149658203 39.6336669921875 110.47765350341797" stroke-width="3.0" fill="none" stroke="rgb(0, 0, 0)" stroke-opacity="1.0" stroke-linecap="round" stroke-linejoin="round"/>
    <path d="M 156.21546936035156 141.70225524902344 C 101.53021240234375 154.98056030273438 75.74637603759766 151.96034240722656 145.060302734375 149.91326904296875" stroke-width="3.0" fill="none" stroke="rgb(0, 0, 0)" stroke-opacity="1.0" stroke-linecap="round" stroke-linejoin="round"/>
    <path d="M 149.71856689453125 27.069271087646484 C 146.41387939453125 34.145381927490234 135.45191955566406 16.916831970214844 138.78517150878906 78.85291290283203" stroke-width="3.0" fill="none" stroke="rgb(0, 0, 0)" stroke-opacity="1.0" stroke-linecap="round" stroke-linejoin="round"/>
    <path d="M 145.8631134033203 99.54092407226562 C 125.91204833984375 114.63905334472656 126.45429992675781 105.7121810913086 115.45075988769531 95.67095184326172" stroke-width="3.0" fill="none" stroke="rgb(0, 0, 0)" stroke-opacity="1.0" stroke-linecap="round" stroke-linejoin="round"/>
    <path d="M 139.10751342773438 70.03099822998047 C 146.4825897216797 55.3941764831543 134.05519104003906 70.73017120361328 137.98931884765625 83.24888610839844" stroke-width="3.0" fill="none" stroke="rgb(0, 0, 0)" stroke-opacity="1.0" stroke-linecap="round" stroke-linejoin="round"/>
    <path d="M 138.8838348388672 165.26324462890625 C 128.90628051757812 169.0188751220703 148.5578155517578 163.9755096435547 146.5151824951172 148.39065551757812" stroke-width="3.0" fill="none" stroke="rgb(0, 0, 0)" stroke-opacity="1.0" stroke-linecap="round" stroke-linejoin="round"/>
    <path d="M 193.6328125 94.62275695800781 C 163.07412719726562 67.15800476074219 185.4226531982422 67.4472427368164 187.43963623046875 96.2161636352539" stroke-width="3.0" fill="none" stroke="rgb(0, 0, 0)" stroke-opacity="1.0" stroke-linecap="round" stroke-linejoin="round"/>
    <path d="M 149.2281951904297 79.91218566894531 C 129.2124481201172 56.66672897338867 213.28216552734375 88.83515167236328 177.24172973632812 65.32496643066406" stroke-width="3.0" fill="none" stroke="rgb(0, 0, 0)" stroke-opacity="1.0" stroke-linecap="round" stroke-linejoin="round"/>
    <path d="M 118.17696380615234 79.1904525756836 C 80.37908935546875 71.50891876220703 143.44004821777344 74.1609115600586 112.15179443359375 82.45235443115234" stroke-width="3.0" fill="none" stroke="rgb(0, 0, 0)" stroke-opacity="1.0" stroke-linecap="round" stroke-linejoin="round"/>
    <path d="M 167.05043029785156 129.2374725341797 C 148.7874755859375 161.25209045410156 101.65948486328125 144.66978454589844 91.39191436767578 146.67958068847656" stroke-width="3.0" fill="none" stroke="rgb(0, 0, 0)" stroke-opacity="1.0" stroke-linecap="round" stroke-linejoin="round"/>
    <path d="M 125.39134979248047 91.64595794677734 C 143.7783203125 97.7979736328125 129.24305725097656 73.69852447509766 129.88870239257812 108.38810729980469" stroke-width="3.0" fill="none" stroke="rgb(0, 0, 0)" stroke-opacity="1.0" stroke-linecap="round" stroke-linejoin="round"/>
    <path d="M 186.7322998046875 113.75011444091797 C 165.73526000976562 87.03689575195312 174.04754638671875 94.39115905761719 145.98158264160156 87.04173278808594" stroke-width="3.0" fill="none" stroke="rgb(0, 0, 0)" stroke-opacity="1.0" stroke-linecap="round" stroke-linejoin="round"/>
    <path d="M 92.62103271484375 26.99823570251465 C 126.91522216796875 24.953794479370117 87.12101745605469 31.08217430114746 149.02120971679688 29.051298141479492" stroke-width="3.0" fill="none" stroke="rgb(0, 0, 0)" stroke-opacity="1.0" stroke-linecap="round" stroke-linejoin="round"/>
    <path d="M 57.893798828125 109.94158935546875 C 65.47904968261719 102.72381591796875 47.729347229003906 124.0281982421875 72.10238647460938 135.85317993164062" stroke-width="3.0" fill="none" stroke="rgb(0, 0, 0)" stroke-opacity="1.0" stroke-linecap="round" stroke-linejoin="round"/>
    <path d="M 136.18873596191406 103.64935302734375 C 119.6445083618164 91.87152862548828 126.61534118652344 118.2076644897461 112.93812561035156 89.1495361328125" stroke-width="3.0" fill="none" stroke="rgb(0, 0, 0)" stroke-opacity="1.0" stroke-linecap="round" stroke-linejoin="round"/>
    <path d="M 39.079689025878906 144.00161743164062 C 24.28154182434082 127.90111541748047 36.091766357421875 77.9404296875 60.425819396972656 66.00248718261719" stroke-width="3.0" fill="none" stroke="rgb(0, 0, 0)" stroke-opacity="1.0" stroke-linecap="round" stroke-linejoin="round"/>
    <path d="M 103.27967071533203 197.169677734375 C 78.31495666503906 198.69866943359375 71.44319915771484 200.05274963378906 108.17460632324219 196.32688903808594" stroke-width="3.0" fill="none" stroke="rgb(0, 0, 0)" stroke-opacity="1.0" stroke-linecap="round" stroke-linejoin="round"/>
    <path d="M 169.5597686767578 132.24874877929688 C 196.05648803710938 115.8553466796875 189.46746826171875 83.4085693359375 153.67483520507812 91.19837951660156" stroke-width="3.0" fill="none" stroke="rgb(0, 0, 0)" stroke-opacity="1.0" stroke-linecap="round" stroke-linejoin="round"/>
    <path d="M 154.8022918701172 75.42232513427734 C 133.650634765625 85.01128387451172 173.056884765625 79.21663665771484 150.77792358398438 67.40030670166016" stroke-width="3.0" fill="none" stroke="rgb(0, 0, 0)" stroke-opacity="1.0" stroke-linecap="round" stroke-linejoin="round"/>
    <path d="M 141.9219207763672 77.61590576171875 C 141.9743194580078 41.91721725463867 198.4600830078125 110.15046691894531 178.0735626220703 48.18865203857422" stroke-width="3.0" fill="none" stroke="rgb(0, 0, 0)" stroke-opacity="1.0" stroke-linecap="round" stroke-linejoin="round"/>
    <path d="M 154.07992553710938 96.89358520507812 C 178.47329711914062 103.29149627685547 171.57034301757812 101.44288635253906 186.0142059326172 123.566650390625" stroke-width="3.0" fill="none" stroke="rgb(0, 0, 0)" stroke-opacity="1.0" stroke-linecap="round" stroke-linejoin="round"/>
    <path d="M 175.57449340820312 19.01019859313965 C 172.1024627685547 47.144775390625 175.34815979003906 23.775348663330078 159.6648406982422 41.21989059448242" stroke-width="3.0" fill="none" stroke="rgb(0, 0, 0)" stroke-opacity="1.0" stroke-linecap="round" stroke-linejoin="round"/>
    <path d="M 121.764892578125 105.16240692138672 C 145.65249633789062 100.74381256103516 126.94790649414062 117.74972534179688 121.71160888671875 104.36031341552734" stroke-width="3.0" fill="none" stroke="rgb(0, 0, 0)" stroke-opacity="1.0" stroke-linecap="round" stroke-linejoin="round"/>
    <path d="M 64.4364013671875 120.10144805908203 C 52.672183990478516 113.5187759399414 58.771156311035156 111.54985046386719 61.88280487060547 117.58153533935547" stroke-width="3.0" fill="none" stroke="rgb(0, 0, 0)" stroke-opacity="1.0" stroke-linecap="round" stroke-linejoin="round"/>
    <path d="M 122.9705581665039 73.19129180908203 C 122.22904968261719 44.77744674682617 112.2430648803711 60.20114517211914 119.65660095214844 31.71684455871582" stroke-width="3.0" fill="none" stroke="rgb(0, 0, 0)" stroke-opacity="1.0" stroke-linecap="round" stroke-linejoin="round"/>
    <path d="M 147.3922882080078 31.03241539001465 C 145.41790771484375 37.80170822143555 160.7913055419922 7.099620819091797 179.08395385742188 8.79389476776123" stroke-width="3.0" fill="none" stroke="rgb(0, 0, 0)" stroke-opacity="1.0" stroke-linecap="round" stroke-linejoin="round"/>
  </g>
</svg>
