<?xml version="1.0" ?>
<svg xmlns="http://www.w3.org/2000/svg" version="1.1" width="224" height="224">
  <defs/>
  <g>
    <path d="M 61.480472564697266 98.61129760742188 C 56.0902214050293 92.66561889648438 59.73308563232422 101.06206512451172 50.47537612915039 79.70052337646484" stroke-width="3.0" fill="none" stroke="rgb(0, 0, 0)" stroke-opacity="1.0" stroke-linecap="round" stroke-linejoin="round"/>
    <path d="M 184.7218780517578 121.68016052246094 C 178.435302734375 115.79126739501953 203.4327392578125 85.79322814941406 175.83229064941406 128.07969665527344" stroke-width="3.0" fill="none" stroke="rgb(0, 0, 0)" stroke-opacity="1.0" stroke-linecap="round" stroke-linejoin="round"/>
    <path d="M 60.17813491821289 107.78526306152344 C 61.928192138671875 105.62813568115234 59.115665435791016 125.81718444824219 67.51933288574219 133.25564575195312" stroke-width="3.0" fill="none" stroke="rgb(0, 0, 0)" stroke-opacity="1.0" stroke-linecap="round" stroke-linejoin="round"/>
    <path d="M 185.88999938964844 97.6593017578125 C 136.20199584960938 90.20191192626953 181.43296813964844 81.15708923339844 190.36354064941406 103.2690658569336" stroke-width="3.0" fill="none" stroke="rgb(0, 0, 0)" stroke-opacity="1.0" stroke-linecap="round" stroke-linejoin="round"/>
    <path d="M 182.69322204589844 69.61719512939453 C 189.23193359375 102.81070709228516 179.3698272705078 102.8441390991211 176.97071838378906 73.4343490600586" stroke-width="3.0" fill="none" stroke="rgb(0, 0, 0)" stroke-opacity="1.0" stroke-linecap="round" stroke-linejoin="round"/>
    <path d="M 123.69664001464844 101.22957611083984 C 142.0774688720703 114.81571960449219 107.50272369384766 93.842529296875 138.26524353027344 101.0625991821289" stroke-width="3.0" fill="none" stroke="rgb(0, 0, 0)" stroke-opacity="1.0" stroke-linecap="round" stroke-linejoin="round"/>
    <path d="M 182.22166442871094 92.1041030883789 C 180.5353546142578 80.40422821044922 187.70114135742188 72.4937973022461 144.86444091796875 88.07369995117188" stroke-width="3.0" fill="none" stroke="rgb(0, 0, 0)" stroke-opacity="1.0" stroke-linecap="round" stroke-linejoin="round"/>
    <path d="M 65.71094512939453 189.56126403808594 C 37.06017303466797 164.69700622558594 49.47029113769531 169.76022338867188 48.27348709106445 170.3406219482422" stroke-width="3.0" fill="none" stroke="rgb(0, 0, 0)" stroke-opacity="1.0" stroke-linecap="round" stroke-linejoin="round"/>
    <path d="M 57.18842697143555 182.00967407226562 C 89.04180145263672 209.3643798828125 122.60366821289062 195.42762756347656 134.36419677734375 173.9607696533203" stroke-width="3.0" fill="none" stroke="rgb(0, 0, 0)" stroke-opacity="1.0" stroke-linecap="round" stroke-linejoin="round"/>
    <path d="M 83.40752410888672 26.357582092285156 C 94.46440124511719 84.31573486328125 84.21299743652344 14.349526405334473 85.80072784423828 53.32365036010742" stroke-width="3.0" fill="none" stroke="rgb(0, 0, 0)" stroke-opacity="1.0" stroke-linecap="round" stroke-linejoin="round"/>
    <path d="M 51.60072708129883 82.86870574951172 C 68.75840759277344 143.67791748046875 76.12680053710938 147.4284210205078 74.89744567871094 138.40957641601562" stroke-width="3.0" fill="none" stroke="rgb(0, 0, 0)" stroke-opacity="1.0" stroke-linecap="round" stroke-linejoin="round"/>
    <path d="M 148.47816467285156 68.73482513427734 C 202.46688842773438 65.77154541015625 195.93637084960938 91.49186706542969 140.021240234375 83.66836547851562" stroke-width="3.0" fill="none" stroke="rgb(0, 0, 0)" stroke-opacity="1.0" stroke-linecap="round" stroke-linejoin="round"/>
    <path d="M 150.2974395751953 93.4052505493164 C 180.24078369140625 102.90474700927734 176.8195037841797 99.801025390625 196.75555419921875 115.55381774902344" stroke-width="3.0" fill="none" stroke="rgb(0, 0, 0)" stroke-opacity="1.0" stroke-linecap="round" stroke-linejoin="round"/>
    <path d="M 119.41954040527344 152.0603485107422 C 150.06961059570312 156.630126953125 113.89949035644531 142.50804138183594 103.50784301757812 154.7435760498047" stroke-width="3.0" fill="none" stroke="rgb(0, 0, 0)" stroke-opacity="1.0" stroke-linecap="round" stroke-linejoin="round"/>
    <path d="M 180.42120361328125 9.840999603271484 C 187.73129272460938 25.79290771484375 172.63995361328125 73.8342056274414 181.11013793945312 54.02800750732422" stroke-width="3.0" fill="none" stroke="rgb(0, 0, 0)" stroke-opacity="1.0" stroke-linecap="round" stroke-linejoin="round"/>
    <path d="M 135.89830017089844 28.22919273376465 C 121.17723846435547 29.665340423583984 135.78839111328125 44.009613037109375 127.2770004272461 66.3570785522461" stroke-width="3.0" fill="none" stroke="rgb(0, 0, 0)" stroke-opacity="1.0" stroke-linecap="round" stroke-linejoin="round"/>
    <path d="M 95.74545288085938 48.13650894165039 C 68.11640930175781 -3.189465284347534 87.7095947265625 0.747013509273529 118.31483459472656 29.028133392333984" stroke-width="3.0" fill="none" stroke="rgb(0, 0, 0)" stroke-opacity="1.0" stroke-linecap="round" stroke-linejoin="round"/>
    <path d="M 45.79568862915039 164.97451782226562 C 40.696556091308594 154.89047241210938 36.68490982055664 148.42245483398438 46.99435043334961 171.84080505371094" stroke-width="3.0" fill="none" stroke="rgb(0, 0, 0)" stroke-opacity="1.0" stroke-linecap="round" stroke-linejoin="round"/>
    <path d="M 35.59660339355469 99.37220764160156 C 22.094608306884766 131.84361267089844 40.60078430175781 147.2200469970703 43.59897232055664 165.10467529296875" stroke-width="3.0" fill="none" stroke="rgb(0, 0, 0)" stroke-opacity="1.0" stroke-linecap="round" stroke-linejoin="round"/>
    <path d="M 76.83407592773438 143.0633087158203 C 113.56090545654297 159.21487426757812 93.33477020263672 153.59542846679688 97.57606506347656 149.0955047607422" stroke-width="3.0" fill="none" stroke="rgb(0, 0, 0)" stroke-opacity="1.0" stroke-linecap="round" stroke-linejoin="round"/>
    <path d="M 91.6948013305664 196.02247619628906 C 69.58011627197266 199.7663116455078 46.8928108215332 176.17747497558594 47.52742385864258 170.59756469726562" stroke-width="3.0" fill="none" stroke="rgb(0, 0, 0)" stroke-opacity="1.0" stroke-linecap="round" stroke-linejoin="round"/>
    <path d="M 48.74604034423828 173.8871612548828 C 66.15668487548828 193.83140563964844 46.15158462524414 171.64404296875 41.87849426269531 155.36666870117188" stroke-width="3.0" fill="none" stroke="rgb(0, 0, 0)" stroke-opacity="1.0" stroke-linecap="round" stroke-linejoin="round"/>
    <path d="M 79.57646942138672 51.041114807128906 C 62.20671463012695 53.34080505371094 49.7183723449707 72.76002502441406 31.34393310546875 110.04354858398438" stroke-width="3.0" fill="none" stroke="rgb(0, 0, 0)" stroke-opacity="1.0" stroke-linecap="round" stroke-linejoin="round"/>
    <path d="M 157.67930603027344 139.118408203125 C 111.23806762695312 154.2940673828125 105.4067153930664 155.0257568359375 147.13558959960938 145.97091674804688" stroke-width="3.0" fill="none" stroke="rgb(0, 0, 0)" stroke-opacity="1.0" stroke-linecap="round" stroke-linejoin="round"/>
    <path d="M 152.04420471191406 28.2746524810791 C 138.16546630859375 32.303855895996094 130.2512969970703 11.484774589538574 140.5870819091797 78.86888885498047" stroke-width="3.0" fill="none" stroke="rgb(0, 0, 0)" stroke-opacity="1.0" stroke-linecap="round" stroke-linejoin="round"/>
    <path d="M 144.29566955566406 93.93738555908203 C 136.224609375 106.8692626953125 130.1878662109375 100.17231750488281 117.93448638916016 102.9873275756836" stroke-width="3.0" fill="none" stroke="rgb(0, 0, 0)" stroke-opacity="1.0" stroke-linecap="round" stroke-linejoin="round"/>
    <path d="M 137.3916015625 79.53860473632812 C 134.74044799804688 57.937538146972656 131.209228515625 68.57930755615234 136.6885528564453 77.6749267578125" stroke-width="3.0" fill="none" stroke="rgb(0, 0, 0)" stroke-opacity="1.0" stroke-linecap="round" stroke-linejoin="round"/>
    <path d="M 138.92518615722656 168.39610290527344 C 129.99609375 181.69772338867188 142.5206756591797 174.5497283935547 146.7964630126953 145.91075134277344" stroke-width="3.0" fill="none" stroke="rgb(0, 0, 0)" stroke-opacity="1.0" stroke-linecap="round" stroke-linejoin="round"/>
    <path d="M 194.61141967773438 97.27020263671875 C 171.6083526611328 72.29747009277344 169.90013122558594 83.00209045410156 187.81890869140625 95.98534393310547" stroke-width="3.0" fill="none" stroke="rgb(0, 0, 0)" stroke-opacity="1.0" stroke-linecap="round" stroke-linejoin="round"/>
    <path d="M 156.8204345703125 70.59159088134766 C 118.86278533935547 60.37370681762695 202.0690460205078 85.17391967773438 179.5900115966797 61.34606170654297" stroke-width="3.0" fill="none" stroke="rgb(0, 0, 0)" stroke-opacity="1.0" stroke-linecap="round" stroke-linejoin="round"/>
    <path d="M 112.5164794921875 83.42146301269531 C 91.68990325927734 71.93006134033203 128.5898895263672 77.51988983154297 108.45335388183594 81.66175842285156" stroke-width="3.0" fill="none" stroke="rgb(0, 0, 0)" stroke-opacity="1.0" stroke-linecap="round" stroke-linejoin="round"/>
    <path d="M 166.6217498779297 129.8210906982422 C 154.77357482910156 156.20626831054688 112.2562484741211 145.86074829101562 100.47814178466797 153.03273010253906" stroke-width="3.0" fill="none" stroke="rgb(0, 0, 0)" stroke-opacity="1.0" stroke-linecap="round" stroke-linejoin="round"/>
    <path d="M 117.6729965209961 87.94905853271484 C 137.75601196289062 98.00611114501953 124.68293762207031 67.64322662353516 123.89466857910156 104.64625549316406" stroke-width="3.0" fill="none" stroke="rgb(0, 0, 0)" stroke-opacity="1.0" stroke-linecap="round" stroke-linejoin="round"/>
    <path d="M 185.97801208496094 111.6795883178711 C 167.81895446777344 85.31177520751953 187.8057403564453 87.12605285644531 152.3463897705078 89.28752899169922" stroke-width="3.0" fill="none" stroke="rgb(0, 0, 0)" stroke-opacity="1.0" stroke-linecap="round" stroke-linejoin="round"/>
    <path d="M 84.35824584960938 12.070345878601074 C 106.75371551513672 16.594308853149414 110.08177947998047 33.88079833984375 129.82354736328125 31.24115753173828" stroke-width="3.0" fill="none" stroke="rgb(0, 0, 0)" stroke-opacity="1.0" stroke-linecap="round" stroke-linejoin="round"/>
    <path d="M 60.65962600708008 119.52511596679688 C 55.22026062011719 117.42848205566406 57.9726448059082 131.7247314453125 69.07537078857422 135.33071899414062" stroke-width="3.0" fill="none" stroke="rgb(0, 0, 0)" stroke-opacity="1.0" stroke-linecap="round" stroke-linejoin="round"/>
    <path d="M 129.21583557128906 104.0343246459961 C 138.74363708496094 90.68781280517578 116.56729125976562 119.65419006347656 110.85868072509766 92.87281036376953" stroke-width="3.0" fill="none" stroke="rgb(0, 0, 0)" stroke-opacity="1.0" stroke-linecap="round" stroke-linejoin="round"/>
    <path d="M 31.14826774597168 134.04119873046875 C 27.27108383178711 103.20064544677734 34.49180603027344 94.3712387084961 52.26326370239258 75.55807495117188" stroke-width="3.0" fill="none" stroke="rgb(0, 0, 0)" stroke-opacity="1.0" stroke-linecap="round" stroke-linejoin="round"/>
    <path d="M 82.86779022216797 195.89366149902344 C 69.08573913574219 190.67535400390625 69.84693145751953 200.60604858398438 106.08212280273438 197.75010681152344" stroke-width="3.0" fill="none" stroke="rgb(0, 0, 0)" stroke-opacity="1.0" stroke-linecap="round" stroke-linejoin="round"/>
    <path d="M 167.8561248779297 129.71580505371094 C 200.90921020507812 111.3862533569336 180.94505310058594 95.56659698486328 156.57080078125 88.9789047241211" stroke-width="3.0" fill="none" stroke="rgb(0, 0, 0)" stroke-opacity="1.0" stroke-linecap="round" stroke-linejoin="round"/>
    <path d="M 153.7591094970703 69.52820587158203 C 139.38006591796875 83.04586791992188 168.3848876953125 73.13748168945312 145.18435668945312 70.01850128173828" stroke-width="3.0" fill="none" stroke="rgb(0, 0, 0)" stroke-opacity="1.0" stroke-linecap="round" stroke-linejoin="round"/>
    <path d="M 139.82467651367188 74.70881652832031 C 141.79469299316406 38.55903244018555 200.37600708007812 113.25628662109375 176.98728942871094 44.35117721557617" stroke-width="3.0" fill="none" stroke="rgb(0, 0, 0)" stroke-opacity="1.0" stroke-linecap="round" stroke-linejoin="round"/>
    <path d="M 157.98036193847656 95.3120346069336 C 168.88107299804688 105.65343475341797 173.9659881591797 102.14727020263672 183.11744689941406 117.42315673828125" stroke-width="3.0" fill="none" stroke="rgb(0, 0, 0)" stroke-opacity="1.0" stroke-linecap="round" stroke-linejoin="round"/>
    <path d="M 178.30621337890625 15.746357917785645 C 166.45001220703125 41.4371452331543 174.25772094726562 18.632143020629883 156.40359497070312 37.247955322265625" stroke-width="3.0" fill="none" stroke="rgb(0, 0, 0)" stroke-opacity="1.0" stroke-linecap="round" stroke-linejoin="round"/>
    <path d="M 114.89533233642578 100.77638244628906 C 145.7415771484375 89.18232727050781 134.22021484375 110.9489517211914 120.48186492919922 104.27999114990234" stroke-width="3.0" fill="none" stroke="rgb(0, 0, 0)" stroke-opacity="1.0" stroke-linecap="round" stroke-linejoin="round"/>
    <path d="M 68.3519515991211 127.55023193359375 C 51.89393997192383 114.23717498779297 58.237369537353516 111.4806137084961 58.16064453125 115.29957580566406" stroke-width="3.0" fill="none" stroke="rgb(0, 0, 0)" stroke-opacity="1.0" stroke-linecap="round" stroke-linejoin="round"/>
    <path d="M 124.85298919677734 77.52911376953125 C 130.7032012939453 37.66407012939453 119.1460952758789 54.15514373779297 123.94576263427734 32.63132095336914" stroke-width="3.0" fill="none" stroke="rgb(0, 0, 0)" stroke-opacity="1.0" stroke-linecap="round" stroke-linejoin="round"/>
    <path d="M 155.80845642089844 22.644800186157227 C 147.41082763671875 30.93381118774414 164.9935760498047 7.974074840545654 177.92642211914062 7.9374566078186035" stroke-width="3.0" fill="none" stroke="rgb(0, 0, 0)" stroke-opacity="1.0" stroke-linecap="round" stroke-linejoin="round"/>
  </g>
</svg>
