<?xml version="1.0" ?>
<svg xmlns="http://www.w3.org/2000/svg" version="1.1" width="224" height="224">
  <defs/>
  <g>
    <path d="M 60.28723907470703 90.44291687011719 C 73.1442642211914 81.55107879638672 61.3059196472168 73.29875183105469 80.5581283569336 59.54618453979492" stroke-width="3.0" fill="none" stroke="rgb(0, 0, 0)" stroke-opacity="1.0" stroke-linecap="round" stroke-linejoin="round"/>
    <path d="M 196.11305236816406 113.99373626708984 C 181.7763671875 97.63280487060547 191.7548828125 98.8497543334961 177.30264282226562 128.42787170410156" stroke-width="3.0" fill="none" stroke="rgb(0, 0, 0)" stroke-opacity="1.0" stroke-linecap="round" stroke-linejoin="round"/>
    <path d="M 61.715579986572266 117.32109069824219 C 51.37922668457031 89.40975189208984 58.157779693603516 113.04806518554688 61.09284210205078 109.86598205566406" stroke-width="3.0" fill="none" stroke="rgb(0, 0, 0)" stroke-opacity="1.0" stroke-linecap="round" stroke-linejoin="round"/>
    <path d="M 189.33363342285156 90.66117095947266 C 147.0172576904297 78.24546813964844 182.97897338867188 74.6567153930664 189.14730834960938 96.35572052001953" stroke-width="3.0" fill="none" stroke="rgb(0, 0, 0)" stroke-opacity="1.0" stroke-linecap="round" stroke-linejoin="round"/>
    <path d="M 176.93060302734375 47.64986801147461 C 193.90538024902344 87.87491607666016 181.46795654296875 99.35944366455078 180.20599365234375 54.23985290527344" stroke-width="3.0" fill="none" stroke="rgb(0, 0, 0)" stroke-opacity="1.0" stroke-linecap="round" stroke-linejoin="round"/>
    <path d="M 128.3164825439453 102.18240356445312 C 152.44046020507812 109.77540588378906 99.8673095703125 95.5836410522461 136.3734588623047 100.42160034179688" stroke-width="3.0" fill="none" stroke="rgb(0, 0, 0)" stroke-opacity="1.0" stroke-linecap="round" stroke-linejoin="round"/>
    <path d="M 182.9819793701172 96.95243835449219 C 162.2145233154297 89.56568145751953 188.90611267089844 71.25406646728516 149.81588745117188 87.95352935791016" stroke-width="3.0" fill="none" stroke="rgb(0, 0, 0)" stroke-opacity="1.0" stroke-linecap="round" stroke-linejoin="round"/>
    <path d="M 64.93414306640625 191.7544403076172 C 44.03029251098633 166.38197326660156 44.7999267578125 167.96133422851562 65.86370086669922 189.89553833007812" stroke-width="3.0" fill="none" stroke="rgb(0, 0, 0)" stroke-opacity="1.0" stroke-linecap="round" stroke-linejoin="round"/>
    <path d="M 57.98231506347656 181.72926330566406 C 81.16725158691406 211.94822692871094 139.05587768554688 193.61509704589844 136.824951171875 159.79049682617188" stroke-width="3.0" fill="none" stroke="rgb(0, 0, 0)" stroke-opacity="1.0" stroke-linecap="round" stroke-linejoin="round"/>
    <path d="M 82.14141082763672 12.687541961669922 C 89.93951416015625 71.0436782836914 85.8345947265625 7.163527011871338 82.4173583984375 49.86787033081055" stroke-width="3.0" fill="none" stroke="rgb(0, 0, 0)" stroke-opacity="1.0" stroke-linecap="round" stroke-linejoin="round"/>
    <path d="M 61.15931701660156 92.32872772216797 C 43.185325622558594 125.998779296875 76.454345703125 129.3217315673828 60.20017623901367 116.5855484008789" stroke-width="3.0" fill="none" stroke="rgb(0, 0, 0)" stroke-opacity="1.0" stroke-linecap="round" stroke-linejoin="round"/>
    <path d="M 145.14454650878906 74.44794464111328 C 194.02166748046875 58.53681945800781 202.88229370117188 86.09024047851562 140.98851013183594 85.69506072998047" stroke-width="3.0" fill="none" stroke="rgb(0, 0, 0)" stroke-opacity="1.0" stroke-linecap="round" stroke-linejoin="round"/>
    <path d="M 151.00918579101562 96.00811767578125 C 190.97386169433594 100.42556762695312 180.1382598876953 102.43858337402344 188.51776123046875 111.63248443603516" stroke-width="3.0" fill="none" stroke="rgb(0, 0, 0)" stroke-opacity="1.0" stroke-linecap="round" stroke-linejoin="round"/>
    <path d="M 125.36200714111328 155.26487731933594 C 178.76995849609375 156.4916534423828 97.6683120727539 146.28343200683594 96.07093811035156 152.3454132080078" stroke-width="3.0" fill="none" stroke="rgb(0, 0, 0)" stroke-opacity="1.0" stroke-linecap="round" stroke-linejoin="round"/>
    <path d="M 177.08412170410156 7.81469202041626 C 190.5214080810547 16.455869674682617 167.26565551757812 90.27593231201172 184.902099609375 61.10564041137695" stroke-width="3.0" fill="none" stroke="rgb(0, 0, 0)" stroke-opacity="1.0" stroke-linecap="round" stroke-linejoin="round"/>
    <path d="M 147.27650451660156 27.230403900146484 C 109.38961791992188 32.98218536376953 132.8890380859375 24.964879989624023 129.48898315429688 63.64936828613281" stroke-width="3.0" fill="none" stroke="rgb(0, 0, 0)" stroke-opacity="1.0" stroke-linecap="round" stroke-linejoin="round"/>
    <path d="M 109.37773132324219 48.16080856323242 C 60.66360092163086 -6.945822715759277 83.76944732666016 -0.30542123317718506 119.2343978881836 31.663143157958984" stroke-width="3.0" fill="none" stroke="rgb(0, 0, 0)" stroke-opacity="1.0" stroke-linecap="round" stroke-linejoin="round"/>
    <path d="M 42.24785232543945 159.16268920898438 C 42.602298736572266 159.8760986328125 40.29848861694336 156.16885375976562 49.94260025024414 176.5373992919922" stroke-width="3.0" fill="none" stroke="rgb(0, 0, 0)" stroke-opacity="1.0" stroke-linecap="round" stroke-linejoin="round"/>
    <path d="M 59.74831008911133 63.77932357788086 C 15.53146743774414 115.27173614501953 37.449954986572266 142.52847290039062 43.81791687011719 164.56617736816406" stroke-width="3.0" fill="none" stroke="rgb(0, 0, 0)" stroke-opacity="1.0" stroke-linecap="round" stroke-linejoin="round"/>
    <path d="M 67.38145446777344 134.73403930664062 C 140.1941680908203 171.45547485351562 113.620849609375 152.3936767578125 88.35488891601562 142.14935302734375" stroke-width="3.0" fill="none" stroke="rgb(0, 0, 0)" stroke-opacity="1.0" stroke-linecap="round" stroke-linejoin="round"/>
    <path d="M 83.09341430664062 198.99639892578125 C 67.05508422851562 200.0440216064453 47.730918884277344 175.84815979003906 37.784969329833984 149.35903930664062" stroke-width="3.0" fill="none" stroke="rgb(0, 0, 0)" stroke-opacity="1.0" stroke-linecap="round" stroke-linejoin="round"/>
    <path d="M 48.12705612182617 168.75259399414062 C 69.5192642211914 202.73587036132812 47.23806381225586 178.5462646484375 37.90989303588867 147.28224182128906" stroke-width="3.0" fill="none" stroke="rgb(0, 0, 0)" stroke-opacity="1.0" stroke-linecap="round" stroke-linejoin="round"/>
    <path d="M 80.91586303710938 54.388614654541016 C 59.37276077270508 59.18898391723633 60.11876678466797 63.7260627746582 32.209285736083984 107.9817123413086" stroke-width="3.0" fill="none" stroke="rgb(0, 0, 0)" stroke-opacity="1.0" stroke-linecap="round" stroke-linejoin="round"/>
    <path d="M 147.4910888671875 146.19021606445312 C 112.72310638427734 160.51400756835938 70.179931640625 155.27894592285156 142.47088623046875 150.2136993408203" stroke-width="3.0" fill="none" stroke="rgb(0, 0, 0)" stroke-opacity="1.0" stroke-linecap="round" stroke-linejoin="round"/>
    <path d="M 148.5326690673828 27.784658432006836 C 144.47239685058594 41.39476776123047 143.04734802246094 16.058332443237305 137.06283569335938 71.39720153808594" stroke-width="3.0" fill="none" stroke="rgb(0, 0, 0)" stroke-opacity="1.0" stroke-linecap="round" stroke-linejoin="round"/>
    <path d="M 145.8153076171875 97.7377700805664 C 126.47599792480469 111.8351058959961 123.72197723388672 104.84352111816406 119.93380737304688 100.8298568725586" stroke-width="3.0" fill="none" stroke="rgb(0, 0, 0)" stroke-opacity="1.0" stroke-linecap="round" stroke-linejoin="round"/>
    <path d="M 137.04458618164062 68.13835144042969 C 146.56871032714844 55.887996673583984 133.10910034179688 65.55296325683594 137.61337280273438 67.07373046875" stroke-width="3.0" fill="none" stroke="rgb(0, 0, 0)" stroke-opacity="1.0" stroke-linecap="round" stroke-linejoin="round"/>
    <path d="M 137.51962280273438 164.1337127685547 C 135.3374481201172 170.10519409179688 139.99359130859375 163.44558715820312 148.4807891845703 142.85891723632812" stroke-width="3.0" fill="none" stroke="rgb(0, 0, 0)" stroke-opacity="1.0" stroke-linecap="round" stroke-linejoin="round"/>
    <path d="M 193.07960510253906 94.45848846435547 C 162.72537231445312 67.98169708251953 188.25949096679688 59.63936233520508 178.24961853027344 94.10670471191406" stroke-width="3.0" fill="none" stroke="rgb(0, 0, 0)" stroke-opacity="1.0" stroke-linecap="round" stroke-linejoin="round"/>
    <path d="M 153.03497314453125 78.00764465332031 C 121.5115966796875 59.394771575927734 206.17530822753906 88.91409301757812 181.76417541503906 61.01802444458008" stroke-width="3.0" fill="none" stroke="rgb(0, 0, 0)" stroke-opacity="1.0" stroke-linecap="round" stroke-linejoin="round"/>
    <path d="M 118.51443481445312 81.40645599365234 C 90.29048156738281 75.62576293945312 136.52157592773438 74.61707305908203 110.1011734008789 81.90753936767578" stroke-width="3.0" fill="none" stroke="rgb(0, 0, 0)" stroke-opacity="1.0" stroke-linecap="round" stroke-linejoin="round"/>
    <path d="M 166.7550811767578 129.17759704589844 C 154.4160919189453 156.56167602539062 88.72579956054688 150.82394409179688 92.83932495117188 146.61936950683594" stroke-width="3.0" fill="none" stroke="rgb(0, 0, 0)" stroke-opacity="1.0" stroke-linecap="round" stroke-linejoin="round"/>
    <path d="M 123.11380767822266 87.76582336425781 C 142.19815063476562 99.14168548583984 131.51368713378906 67.55950164794922 128.01979064941406 104.00492858886719" stroke-width="3.0" fill="none" stroke="rgb(0, 0, 0)" stroke-opacity="1.0" stroke-linecap="round" stroke-linejoin="round"/>
    <path d="M 183.419677734375 109.53642272949219 C 172.26458740234375 88.64813995361328 168.821044921875 95.24872589111328 142.5933074951172 86.1967544555664" stroke-width="3.0" fill="none" stroke="rgb(0, 0, 0)" stroke-opacity="1.0" stroke-linecap="round" stroke-linejoin="round"/>
    <path d="M 92.13801574707031 19.640949249267578 C 124.52947998046875 28.455257415771484 86.87731170654297 29.51628875732422 147.7355499267578 29.827545166015625" stroke-width="3.0" fill="none" stroke="rgb(0, 0, 0)" stroke-opacity="1.0" stroke-linecap="round" stroke-linejoin="round"/>
    <path d="M 56.77656936645508 105.07828521728516 C 60.64265060424805 94.01463317871094 51.901451110839844 120.00540161132812 71.72024536132812 136.8448028564453" stroke-width="3.0" fill="none" stroke="rgb(0, 0, 0)" stroke-opacity="1.0" stroke-linecap="round" stroke-linejoin="round"/>
    <path d="M 134.62060546875 105.04531860351562 C 132.6846160888672 87.68675994873047 124.97643280029297 120.28419494628906 115.68292999267578 92.46378326416016" stroke-width="3.0" fill="none" stroke="rgb(0, 0, 0)" stroke-opacity="1.0" stroke-linecap="round" stroke-linejoin="round"/>
    <path d="M 40.05657196044922 150.35568237304688 C 19.728778839111328 121.25120544433594 40.441925048828125 69.16249084472656 66.68595886230469 58.95933532714844" stroke-width="3.0" fill="none" stroke="rgb(0, 0, 0)" stroke-opacity="1.0" stroke-linecap="round" stroke-linejoin="round"/>
    <path d="M 98.78368377685547 198.4578857421875 C 85.77416229248047 195.87557983398438 86.99296569824219 199.77499389648438 108.91265106201172 195.95591735839844" stroke-width="3.0" fill="none" stroke="rgb(0, 0, 0)" stroke-opacity="1.0" stroke-linecap="round" stroke-linejoin="round"/>
    <path d="M 166.58302307128906 129.46646118164062 C 198.0170440673828 113.34659576416016 192.83090209960938 83.74034118652344 155.01808166503906 86.07093048095703" stroke-width="3.0" fill="none" stroke="rgb(0, 0, 0)" stroke-opacity="1.0" stroke-linecap="round" stroke-linejoin="round"/>
    <path d="M 156.9585418701172 69.92401885986328 C 125.86243438720703 81.33039855957031 166.1312255859375 84.47631072998047 152.28314208984375 73.00126647949219" stroke-width="3.0" fill="none" stroke="rgb(0, 0, 0)" stroke-opacity="1.0" stroke-linecap="round" stroke-linejoin="round"/>
    <path d="M 140.41383361816406 79.00969696044922 C 145.0591278076172 41.51675796508789 200.67889404296875 118.83135986328125 178.18511962890625 42.33324432373047" stroke-width="3.0" fill="none" stroke="rgb(0, 0, 0)" stroke-opacity="1.0" stroke-linecap="round" stroke-linejoin="round"/>
    <path d="M 154.80633544921875 96.64962768554688 C 173.1553955078125 103.73811340332031 178.41505432128906 105.64765167236328 182.5054168701172 124.40081787109375" stroke-width="3.0" fill="none" stroke="rgb(0, 0, 0)" stroke-opacity="1.0" stroke-linecap="round" stroke-linejoin="round"/>
    <path d="M 176.71533203125 10.894598960876465 C 172.4381866455078 46.99592971801758 175.8722686767578 20.469730377197266 158.6865997314453 39.399322509765625" stroke-width="3.0" fill="none" stroke="rgb(0, 0, 0)" stroke-opacity="1.0" stroke-linecap="round" stroke-linejoin="round"/>
    <path d="M 119.77173614501953 99.81013488769531 C 144.9537353515625 91.53385925292969 132.911865234375 114.62958526611328 130.83627319335938 104.06537628173828" stroke-width="3.0" fill="none" stroke="rgb(0, 0, 0)" stroke-opacity="1.0" stroke-linecap="round" stroke-linejoin="round"/>
    <path d="M 62.405357360839844 93.62258911132812 C 51.644432067871094 108.02042388916016 52.868507385253906 108.97665405273438 63.34239959716797 98.66976928710938" stroke-width="3.0" fill="none" stroke="rgb(0, 0, 0)" stroke-opacity="1.0" stroke-linecap="round" stroke-linejoin="round"/>
    <path d="M 123.69827270507812 79.73667907714844 C 128.7367401123047 49.97554016113281 114.27611541748047 51.32492446899414 116.96989440917969 35.58850860595703" stroke-width="3.0" fill="none" stroke="rgb(0, 0, 0)" stroke-opacity="1.0" stroke-linecap="round" stroke-linejoin="round"/>
    <path d="M 136.58984375 27.711000442504883 C 147.45321655273438 45.26142883300781 158.79498291015625 7.587946891784668 175.7036895751953 8.613503456115723" stroke-width="3.0" fill="none" stroke="rgb(0, 0, 0)" stroke-opacity="1.0" stroke-linecap="round" stroke-linejoin="round"/>
  </g>
</svg>
