<?xml version="1.0" ?>
<svg xmlns="http://www.w3.org/2000/svg" version="1.1" width="224" height="224">
  <defs/>
  <g>
    <path d="M 58.905975341796875 100.620361328125 C 66.55972290039062 98.21586608886719 53.410064697265625 88.1899185180664 67.98397064208984 60.681495666503906" stroke-width="3.0" fill="none" stroke="rgb(0, 0, 0)" stroke-opacity="1.0" stroke-linecap="round" stroke-linejoin="round"/>
    <path d="M 190.32794189453125 109.57147979736328 C 185.368896484375 106.99591827392578 191.6207733154297 95.68705749511719 181.1694793701172 125.70011138916016" stroke-width="3.0" fill="none" stroke="rgb(0, 0, 0)" stroke-opacity="1.0" stroke-linecap="round" stroke-linejoin="round"/>
    <path d="M 62.07078552246094 123.45472717285156 C 57.5298957824707 83.31810760498047 59.166378021240234 124.62617492675781 63.9381103515625 123.1560287475586" stroke-width="3.0" fill="none" stroke="rgb(0, 0, 0)" stroke-opacity="1.0" stroke-linecap="round" stroke-linejoin="round"/>
    <path d="M 184.50099182128906 95.58243560791016 C 151.85459899902344 72.2701644897461 178.66571044921875 79.61454010009766 185.62612915039062 103.626220703125" stroke-width="3.0" fill="none" stroke="rgb(0, 0, 0)" stroke-opacity="1.0" stroke-linecap="round" stroke-linejoin="round"/>
    <path d="M 175.68515014648438 40.72132873535156 C 193.0664520263672 96.71308135986328 174.55433654785156 108.50788879394531 179.76683044433594 61.34626007080078" stroke-width="3.0" fill="none" stroke="rgb(0, 0, 0)" stroke-opacity="1.0" stroke-linecap="round" stroke-linejoin="round"/>
    <path d="M 130.31658935546875 99.98429870605469 C 151.21771240234375 116.1561050415039 98.94922637939453 99.17266845703125 140.1955108642578 105.38361358642578" stroke-width="3.0" fill="none" stroke="rgb(0, 0, 0)" stroke-opacity="1.0" stroke-linecap="round" stroke-linejoin="round"/>
    <path d="M 181.0170440673828 89.79069519042969 C 163.30792236328125 89.90782165527344 182.88548278808594 72.17333984375 157.2705078125 84.67008209228516" stroke-width="3.0" fill="none" stroke="rgb(0, 0, 0)" stroke-opacity="1.0" stroke-linecap="round" stroke-linejoin="round"/>
    <path d="M 64.9661865234375 190.97509765625 C 40.99999237060547 169.57327270507812 46.060394287109375 170.28175354003906 62.44539260864258 187.40855407714844" stroke-width="3.0" fill="none" stroke="rgb(0, 0, 0)" stroke-opacity="1.0" stroke-linecap="round" stroke-linejoin="round"/>
    <path d="M 57.43571090698242 183.0421905517578 C 89.77859497070312 211.28306579589844 131.34442138671875 197.31106567382812 137.78456115722656 164.84873962402344" stroke-width="3.0" fill="none" stroke="rgb(0, 0, 0)" stroke-opacity="1.0" stroke-linecap="round" stroke-linejoin="round"/>
    <path d="M 80.80426025390625 14.028873443603516 C 87.55560302734375 81.25638580322266 85.3434829711914 12.528754234313965 83.12162780761719 55.325714111328125" stroke-width="3.0" fill="none" stroke="rgb(0, 0, 0)" stroke-opacity="1.0" stroke-linecap="round" stroke-linejoin="round"/>
    <path d="M 59.5745964050293 92.81277465820312 C 48.64531326293945 128.71920776367188 76.22750091552734 128.26022338867188 61.581302642822266 119.22489929199219" stroke-width="3.0" fill="none" stroke="rgb(0, 0, 0)" stroke-opacity="1.0" stroke-linecap="round" stroke-linejoin="round"/>
    <path d="M 148.69808959960938 72.5447998046875 C 193.05157470703125 68.39205932617188 197.98382568359375 88.93362426757812 139.77593994140625 85.01686096191406" stroke-width="3.0" fill="none" stroke="rgb(0, 0, 0)" stroke-opacity="1.0" stroke-linecap="round" stroke-linejoin="round"/>
    <path d="M 149.23086547851562 97.14842224121094 C 184.90972900390625 97.25460052490234 181.5606231689453 95.17915344238281 196.68701171875 114.74495697021484" stroke-width="3.0" fill="none" stroke="rgb(0, 0, 0)" stroke-opacity="1.0" stroke-linecap="round" stroke-linejoin="round"/>
    <path d="M 126.69820404052734 145.73655700683594 C 164.81143188476562 161.3059539794922 100.1837158203125 146.49752807617188 97.08649444580078 152.44322204589844" stroke-width="3.0" fill="none" stroke="rgb(0, 0, 0)" stroke-opacity="1.0" stroke-linecap="round" stroke-linejoin="round"/>
    <path d="M 179.71746826171875 10.77876091003418 C 190.67308044433594 21.077587127685547 165.4927215576172 100.22530364990234 181.3372039794922 58.285675048828125" stroke-width="3.0" fill="none" stroke="rgb(0, 0, 0)" stroke-opacity="1.0" stroke-linecap="round" stroke-linejoin="round"/>
    <path d="M 145.4088134765625 30.663904190063477 C 110.79229736328125 25.057960510253906 135.71348571777344 31.7745361328125 129.3016815185547 64.10604095458984" stroke-width="3.0" fill="none" stroke="rgb(0, 0, 0)" stroke-opacity="1.0" stroke-linecap="round" stroke-linejoin="round"/>
    <path d="M 103.37981414794922 46.91224670410156 C 63.86375427246094 -7.786385536193848 85.3753433227539 0.020906375721096992 121.11904907226562 31.663244247436523" stroke-width="3.0" fill="none" stroke="rgb(0, 0, 0)" stroke-opacity="1.0" stroke-linecap="round" stroke-linejoin="round"/>
    <path d="M 44.315914154052734 164.30966186523438 C 42.967376708984375 160.83900451660156 38.43022155761719 157.01629638671875 49.20518493652344 175.69984436035156" stroke-width="3.0" fill="none" stroke="rgb(0, 0, 0)" stroke-opacity="1.0" stroke-linecap="round" stroke-linejoin="round"/>
    <path d="M 58.00761032104492 68.500244140625 C 21.713716506958008 128.02932739257812 40.262088775634766 137.51051330566406 44.32408905029297 161.09336853027344" stroke-width="3.0" fill="none" stroke="rgb(0, 0, 0)" stroke-opacity="1.0" stroke-linecap="round" stroke-linejoin="round"/>
    <path d="M 71.55322265625 136.85643005371094 C 134.95103454589844 162.999755859375 102.65100860595703 150.18063354492188 84.85540771484375 143.46458435058594" stroke-width="3.0" fill="none" stroke="rgb(0, 0, 0)" stroke-opacity="1.0" stroke-linecap="round" stroke-linejoin="round"/>
    <path d="M 90.67378997802734 196.68331909179688 C 65.07962799072266 201.29266357421875 47.60835266113281 177.04933166503906 42.73176956176758 154.22830200195312" stroke-width="3.0" fill="none" stroke="rgb(0, 0, 0)" stroke-opacity="1.0" stroke-linecap="round" stroke-linejoin="round"/>
    <path d="M 51.227664947509766 174.14450073242188 C 69.5285415649414 197.69163513183594 46.92131042480469 176.5411834716797 37.07185363769531 142.8402862548828" stroke-width="3.0" fill="none" stroke="rgb(0, 0, 0)" stroke-opacity="1.0" stroke-linecap="round" stroke-linejoin="round"/>
    <path d="M 78.35537719726562 55.298301696777344 C 57.29255294799805 60.539669036865234 64.15335845947266 71.59172821044922 36.876136779785156 114.4620590209961" stroke-width="3.0" fill="none" stroke="rgb(0, 0, 0)" stroke-opacity="1.0" stroke-linecap="round" stroke-linejoin="round"/>
    <path d="M 157.8734130859375 142.84536743164062 C 102.03001403808594 153.6385955810547 69.47378540039062 146.9666290283203 143.5066680908203 149.41925048828125" stroke-width="3.0" fill="none" stroke="rgb(0, 0, 0)" stroke-opacity="1.0" stroke-linecap="round" stroke-linejoin="round"/>
    <path d="M 149.37796020507812 27.887847900390625 C 143.3006591796875 34.911231994628906 134.50177001953125 12.494145393371582 138.48715209960938 74.5195083618164" stroke-width="3.0" fill="none" stroke="rgb(0, 0, 0)" stroke-opacity="1.0" stroke-linecap="round" stroke-linejoin="round"/>
    <path d="M 146.88525390625 102.36478424072266 C 126.66303253173828 115.01417541503906 120.1520004272461 109.35626983642578 114.04412078857422 92.03132629394531" stroke-width="3.0" fill="none" stroke="rgb(0, 0, 0)" stroke-opacity="1.0" stroke-linecap="round" stroke-linejoin="round"/>
    <path d="M 138.19505310058594 67.24547576904297 C 145.7603759765625 58.1270637512207 132.37327575683594 71.43213653564453 139.64630126953125 73.04180908203125" stroke-width="3.0" fill="none" stroke="rgb(0, 0, 0)" stroke-opacity="1.0" stroke-linecap="round" stroke-linejoin="round"/>
    <path d="M 136.67149353027344 164.09078979492188 C 130.47840881347656 165.2353973388672 145.75485229492188 159.81436157226562 148.76431274414062 143.91627502441406" stroke-width="3.0" fill="none" stroke="rgb(0, 0, 0)" stroke-opacity="1.0" stroke-linecap="round" stroke-linejoin="round"/>
    <path d="M 193.569091796875 95.41401672363281 C 163.49862670898438 66.68130493164062 173.2010040283203 69.75724792480469 188.64288330078125 100.09037017822266" stroke-width="3.0" fill="none" stroke="rgb(0, 0, 0)" stroke-opacity="1.0" stroke-linecap="round" stroke-linejoin="round"/>
    <path d="M 152.60888671875 79.09477233886719 C 120.96854400634766 58.28623962402344 212.85614013671875 89.36415100097656 174.75921630859375 66.98986053466797" stroke-width="3.0" fill="none" stroke="rgb(0, 0, 0)" stroke-opacity="1.0" stroke-linecap="round" stroke-linejoin="round"/>
    <path d="M 112.29850006103516 82.61470031738281 C 86.99002075195312 71.9925537109375 132.90859985351562 74.28916931152344 107.67481994628906 80.75979614257812" stroke-width="3.0" fill="none" stroke="rgb(0, 0, 0)" stroke-opacity="1.0" stroke-linecap="round" stroke-linejoin="round"/>
    <path d="M 167.01023864746094 131.11148071289062 C 153.24913024902344 158.2599334716797 95.77999877929688 145.92385864257812 87.75826263427734 144.95916748046875" stroke-width="3.0" fill="none" stroke="rgb(0, 0, 0)" stroke-opacity="1.0" stroke-linecap="round" stroke-linejoin="round"/>
    <path d="M 120.98625183105469 89.60415649414062 C 145.3665313720703 99.62445831298828 126.82147979736328 70.5557632446289 129.77439880371094 106.54124450683594" stroke-width="3.0" fill="none" stroke="rgb(0, 0, 0)" stroke-opacity="1.0" stroke-linecap="round" stroke-linejoin="round"/>
    <path d="M 186.2746124267578 111.48543548583984 C 167.6018829345703 89.3749008178711 171.064697265625 98.30925750732422 139.45082092285156 82.76856994628906" stroke-width="3.0" fill="none" stroke="rgb(0, 0, 0)" stroke-opacity="1.0" stroke-linecap="round" stroke-linejoin="round"/>
    <path d="M 91.64337921142578 23.112628936767578 C 128.20237731933594 32.3193244934082 90.08965301513672 33.652400970458984 149.7062530517578 27.988422393798828" stroke-width="3.0" fill="none" stroke="rgb(0, 0, 0)" stroke-opacity="1.0" stroke-linecap="round" stroke-linejoin="round"/>
    <path d="M 58.25925064086914 114.18344116210938 C 65.67676544189453 96.60670471191406 50.276092529296875 119.17047119140625 72.87212371826172 137.37901306152344" stroke-width="3.0" fill="none" stroke="rgb(0, 0, 0)" stroke-opacity="1.0" stroke-linecap="round" stroke-linejoin="round"/>
    <path d="M 139.33580017089844 105.4625473022461 C 121.17687225341797 90.15095520019531 124.08462524414062 125.39079284667969 112.46743774414062 89.18055725097656" stroke-width="3.0" fill="none" stroke="rgb(0, 0, 0)" stroke-opacity="1.0" stroke-linecap="round" stroke-linejoin="round"/>
    <path d="M 36.924781799316406 144.96165466308594 C 25.079978942871094 119.96112060546875 38.38125228881836 78.20984649658203 63.402584075927734 62.420467376708984" stroke-width="3.0" fill="none" stroke="rgb(0, 0, 0)" stroke-opacity="1.0" stroke-linecap="round" stroke-linejoin="round"/>
    <path d="M 90.81695556640625 198.23931884765625 C 77.06116485595703 198.4995880126953 70.4451904296875 197.84193420410156 102.25536346435547 196.19146728515625" stroke-width="3.0" fill="none" stroke="rgb(0, 0, 0)" stroke-opacity="1.0" stroke-linecap="round" stroke-linejoin="round"/>
    <path d="M 170.87875366210938 130.73655700683594 C 196.60867309570312 110.38862609863281 192.3315887451172 89.19719696044922 151.33067321777344 89.09461975097656" stroke-width="3.0" fill="none" stroke="rgb(0, 0, 0)" stroke-opacity="1.0" stroke-linecap="round" stroke-linejoin="round"/>
    <path d="M 156.7298126220703 70.82447052001953 C 130.2215576171875 81.265380859375 164.79124450683594 85.50381469726562 150.08309936523438 70.55147552490234" stroke-width="3.0" fill="none" stroke="rgb(0, 0, 0)" stroke-opacity="1.0" stroke-linecap="round" stroke-linejoin="round"/>
    <path d="M 137.97300720214844 77.8099365234375 C 143.37185668945312 39.95927047729492 205.97959899902344 112.51848602294922 176.06759643554688 52.60995101928711" stroke-width="3.0" fill="none" stroke="rgb(0, 0, 0)" stroke-opacity="1.0" stroke-linecap="round" stroke-linejoin="round"/>
    <path d="M 153.99261474609375 98.63394927978516 C 174.86138916015625 106.235595703125 182.11595153808594 101.74439239501953 185.83395385742188 121.83008575439453" stroke-width="3.0" fill="none" stroke="rgb(0, 0, 0)" stroke-opacity="1.0" stroke-linecap="round" stroke-linejoin="round"/>
    <path d="M 177.6013641357422 15.815025329589844 C 171.25668334960938 45.10673522949219 169.1697235107422 25.30189323425293 160.14793395996094 41.330718994140625" stroke-width="3.0" fill="none" stroke="rgb(0, 0, 0)" stroke-opacity="1.0" stroke-linecap="round" stroke-linejoin="round"/>
    <path d="M 119.22806549072266 106.41572570800781 C 148.75918579101562 97.5817642211914 127.56944274902344 114.08319854736328 124.0606918334961 103.84617614746094" stroke-width="3.0" fill="none" stroke="rgb(0, 0, 0)" stroke-opacity="1.0" stroke-linecap="round" stroke-linejoin="round"/>
    <path d="M 60.015647888183594 106.61112213134766 C 59.172855377197266 105.31461334228516 54.20133972167969 116.83930969238281 60.766273498535156 119.86798095703125" stroke-width="3.0" fill="none" stroke="rgb(0, 0, 0)" stroke-opacity="1.0" stroke-linecap="round" stroke-linejoin="round"/>
    <path d="M 119.14063262939453 73.58518981933594 C 125.24764251708984 45.29150390625 115.95948028564453 56.03617477416992 121.55940246582031 35.967674255371094" stroke-width="3.0" fill="none" stroke="rgb(0, 0, 0)" stroke-opacity="1.0" stroke-linecap="round" stroke-linejoin="round"/>
    <path d="M 144.39520263671875 31.403942108154297 C 143.1498260498047 38.30687713623047 159.87461853027344 9.984700202941895 180.59275817871094 9.28977108001709" stroke-width="3.0" fill="none" stroke="rgb(0, 0, 0)" stroke-opacity="1.0" stroke-linecap="round" stroke-linejoin="round"/>
  </g>
</svg>
