<?xml version="1.0" ?>
<svg xmlns="http://www.w3.org/2000/svg" version="1.1" width="224" height="224">
  <defs/>
  <g>
    <path d="M 57.63311767578125 113.13923645019531 C 59.582489013671875 116.85531616210938 49.472530364990234 103.48727416992188 43.88007354736328 84.91877746582031" stroke-width="3.0" fill="none" stroke="rgb(0, 0, 0)" stroke-opacity="1.0" stroke-linecap="round" stroke-linejoin="round"/>
    <path d="M 181.57447814941406 125.86724853515625 C 175.93017578125 108.0172348022461 184.54788208007812 115.28189849853516 182.93075561523438 116.72608184814453" stroke-width="3.0" fill="none" stroke="rgb(0, 0, 0)" stroke-opacity="1.0" stroke-linecap="round" stroke-linejoin="round"/>
    <path d="M 52.77860641479492 104.66722106933594 C 56.25830078125 116.30522918701172 52.114845275878906 109.98310089111328 58.96200942993164 116.1126937866211" stroke-width="3.0" fill="none" stroke="rgb(0, 0, 0)" stroke-opacity="1.0" stroke-linecap="round" stroke-linejoin="round"/>
    <path d="M 186.51124572753906 94.44823455810547 C 158.62149047851562 84.1543960571289 171.0637664794922 84.6576156616211 196.08236694335938 112.34796905517578" stroke-width="3.0" fill="none" stroke="rgb(0, 0, 0)" stroke-opacity="1.0" stroke-linecap="round" stroke-linejoin="round"/>
    <path d="M 181.3333740234375 73.39078521728516 C 177.2328338623047 97.63645935058594 183.72296142578125 95.6116943359375 182.6412353515625 62.04924392700195" stroke-width="3.0" fill="none" stroke="rgb(0, 0, 0)" stroke-opacity="1.0" stroke-linecap="round" stroke-linejoin="round"/>
    <path d="M 129.4756317138672 101.2557373046875 C 151.0662078857422 96.34627532958984 99.55438995361328 98.76890563964844 130.33767700195312 107.08206176757812" stroke-width="3.0" fill="none" stroke="rgb(0, 0, 0)" stroke-opacity="1.0" stroke-linecap="round" stroke-linejoin="round"/>
    <path d="M 171.94412231445312 100.95310974121094 C 201.4226531982422 78.06480407714844 171.5809783935547 68.99075317382812 155.3084259033203 85.25830078125" stroke-width="3.0" fill="none" stroke="rgb(0, 0, 0)" stroke-opacity="1.0" stroke-linecap="round" stroke-linejoin="round"/>
    <path d="M 54.63835906982422 177.443359375 C 37.5877799987793 159.25799560546875 51.66194534301758 161.89984130859375 44.103878021240234 164.01699829101562" stroke-width="3.0" fill="none" stroke="rgb(0, 0, 0)" stroke-opacity="1.0" stroke-linecap="round" stroke-linejoin="round"/>
    <path d="M 62.9023551940918 188.8905487060547 C 90.73397827148438 205.37539672851562 106.8614501953125 198.26364135742188 123.68913269042969 186.7860565185547" stroke-width="3.0" fill="none" stroke="rgb(0, 0, 0)" stroke-opacity="1.0" stroke-linecap="round" stroke-linejoin="round"/>
    <path d="M 86.07669830322266 42.785072326660156 C 93.40738677978516 58.230892181396484 82.26640319824219 24.70907974243164 85.49834442138672 58.219215393066406" stroke-width="3.0" fill="none" stroke="rgb(0, 0, 0)" stroke-opacity="1.0" stroke-linecap="round" stroke-linejoin="round"/>
    <path d="M 62.01821517944336 122.07797241210938 C 57.35149383544922 136.3333740234375 92.753662109375 153.63677978515625 102.69012451171875 151.70249938964844" stroke-width="3.0" fill="none" stroke="rgb(0, 0, 0)" stroke-opacity="1.0" stroke-linecap="round" stroke-linejoin="round"/>
    <path d="M 145.93255615234375 72.69071960449219 C 210.4651641845703 76.5678482055664 184.58956909179688 81.43496704101562 146.31517028808594 85.4102554321289" stroke-width="3.0" fill="none" stroke="rgb(0, 0, 0)" stroke-opacity="1.0" stroke-linecap="round" stroke-linejoin="round"/>
    <path d="M 149.37623596191406 95.2685317993164 C 179.44313049316406 99.17200469970703 183.1353302001953 98.20394897460938 187.0384521484375 112.90845489501953" stroke-width="3.0" fill="none" stroke="rgb(0, 0, 0)" stroke-opacity="1.0" stroke-linecap="round" stroke-linejoin="round"/>
    <path d="M 110.94567108154297 159.18751525878906 C 144.4288787841797 149.02243041992188 115.71839141845703 163.46109008789062 130.15969848632812 156.00364685058594" stroke-width="3.0" fill="none" stroke="rgb(0, 0, 0)" stroke-opacity="1.0" stroke-linecap="round" stroke-linejoin="round"/>
    <path d="M 172.91017150878906 10.235286712646484 C 192.28073120117188 3.301889657974243 170.3666229248047 57.44938659667969 178.54310607910156 55.63463592529297" stroke-width="3.0" fill="none" stroke="rgb(0, 0, 0)" stroke-opacity="1.0" stroke-linecap="round" stroke-linejoin="round"/>
    <path d="M 130.8162384033203 29.85026741027832 C 126.82879638671875 52.297428131103516 135.79978942871094 39.02775192260742 126.71680450439453 71.4598617553711" stroke-width="3.0" fill="none" stroke="rgb(0, 0, 0)" stroke-opacity="1.0" stroke-linecap="round" stroke-linejoin="round"/>
    <path d="M 89.51741790771484 50.44517517089844 C 71.34522247314453 -7.679024696350098 83.97021484375 -2.9497897624969482 110.09748077392578 37.403316497802734" stroke-width="3.0" fill="none" stroke="rgb(0, 0, 0)" stroke-opacity="1.0" stroke-linecap="round" stroke-linejoin="round"/>
    <path d="M 46.090301513671875 162.4292755126953 C 42.38855743408203 153.25149536132812 38.47210693359375 145.96534729003906 39.740360260009766 148.95623779296875" stroke-width="3.0" fill="none" stroke="rgb(0, 0, 0)" stroke-opacity="1.0" stroke-linecap="round" stroke-linejoin="round"/>
    <path d="M 33.123992919921875 107.1415786743164 C 25.421478271484375 127.52790832519531 36.03046417236328 143.4228057861328 43.84858322143555 156.48101806640625" stroke-width="3.0" fill="none" stroke="rgb(0, 0, 0)" stroke-opacity="1.0" stroke-linecap="round" stroke-linejoin="round"/>
    <path d="M 88.87670135498047 149.06332397460938 C 102.75096893310547 158.33956909179688 105.78307342529297 155.47457885742188 104.30635833740234 158.8046417236328" stroke-width="3.0" fill="none" stroke="rgb(0, 0, 0)" stroke-opacity="1.0" stroke-linecap="round" stroke-linejoin="round"/>
    <path d="M 76.87857055664062 198.17752075195312 C 55.78752517700195 186.18670654296875 57.73460388183594 183.4080047607422 48.62889099121094 172.7523651123047" stroke-width="3.0" fill="none" stroke="rgb(0, 0, 0)" stroke-opacity="1.0" stroke-linecap="round" stroke-linejoin="round"/>
    <path d="M 46.705684661865234 165.0726776123047 C 59.38680648803711 188.9461669921875 43.416229248046875 163.00184631347656 40.647918701171875 151.3028564453125" stroke-width="3.0" fill="none" stroke="rgb(0, 0, 0)" stroke-opacity="1.0" stroke-linecap="round" stroke-linejoin="round"/>
    <path d="M 80.41162109375 52.844268798828125 C 56.78860092163086 57.400386810302734 49.52581024169922 74.20435333251953 32.860076904296875 108.19526672363281" stroke-width="3.0" fill="none" stroke="rgb(0, 0, 0)" stroke-opacity="1.0" stroke-linecap="round" stroke-linejoin="round"/>
    <path d="M 153.6098175048828 142.12754821777344 C 136.99990844726562 159.11245727539062 119.31361389160156 156.8672332763672 133.118408203125 155.34828186035156" stroke-width="3.0" fill="none" stroke="rgb(0, 0, 0)" stroke-opacity="1.0" stroke-linecap="round" stroke-linejoin="round"/>
    <path d="M 139.2840576171875 30.530969619750977 C 146.4956512451172 63.048282623291016 128.5977783203125 59.88391876220703 139.90203857421875 75.96967315673828" stroke-width="3.0" fill="none" stroke="rgb(0, 0, 0)" stroke-opacity="1.0" stroke-linecap="round" stroke-linejoin="round"/>
    <path d="M 146.50152587890625 98.7883529663086 C 116.56394958496094 107.76458740234375 127.78485870361328 112.11714172363281 136.30601501464844 103.12014770507812" stroke-width="3.0" fill="none" stroke="rgb(0, 0, 0)" stroke-opacity="1.0" stroke-linecap="round" stroke-linejoin="round"/>
    <path d="M 138.46009826660156 80.4516372680664 C 142.20233154296875 52.2514762878418 140.54014587402344 63.140174865722656 137.9697723388672 67.40906524658203" stroke-width="3.0" fill="none" stroke="rgb(0, 0, 0)" stroke-opacity="1.0" stroke-linecap="round" stroke-linejoin="round"/>
    <path d="M 134.04493713378906 180.7230224609375 C 108.18287658691406 194.03941345214844 141.00732421875 188.20950317382812 143.79774475097656 152.67408752441406" stroke-width="3.0" fill="none" stroke="rgb(0, 0, 0)" stroke-opacity="1.0" stroke-linecap="round" stroke-linejoin="round"/>
    <path d="M 193.694580078125 94.5976333618164 C 171.28384399414062 72.53938293457031 143.90390014648438 85.02999877929688 183.9863739013672 85.65856170654297" stroke-width="3.0" fill="none" stroke="rgb(0, 0, 0)" stroke-opacity="1.0" stroke-linecap="round" stroke-linejoin="round"/>
    <path d="M 146.13063049316406 77.50304412841797 C 171.84539794921875 60.9652214050293 194.2550506591797 79.64057922363281 174.18655395507812 68.46298217773438" stroke-width="3.0" fill="none" stroke="rgb(0, 0, 0)" stroke-opacity="1.0" stroke-linecap="round" stroke-linejoin="round"/>
    <path d="M 109.18460845947266 77.21661376953125 C 93.34504699707031 69.51641845703125 135.5499725341797 74.63372039794922 108.12511444091797 81.20315551757812" stroke-width="3.0" fill="none" stroke="rgb(0, 0, 0)" stroke-opacity="1.0" stroke-linecap="round" stroke-linejoin="round"/>
    <path d="M 148.82855224609375 143.9770965576172 C 141.34027099609375 164.10496520996094 125.3739013671875 154.58799743652344 105.20143127441406 157.02294921875" stroke-width="3.0" fill="none" stroke="rgb(0, 0, 0)" stroke-opacity="1.0" stroke-linecap="round" stroke-linejoin="round"/>
    <path d="M 124.28632354736328 87.16609191894531 C 142.9359588623047 99.4382095336914 131.28013610839844 72.22368621826172 129.1974639892578 103.27737426757812" stroke-width="3.0" fill="none" stroke="rgb(0, 0, 0)" stroke-opacity="1.0" stroke-linecap="round" stroke-linejoin="round"/>
    <path d="M 188.95510864257812 115.30154418945312 C 177.80641174316406 75.56156921386719 183.07183837890625 95.06395721435547 141.59634399414062 83.63268280029297" stroke-width="3.0" fill="none" stroke="rgb(0, 0, 0)" stroke-opacity="1.0" stroke-linecap="round" stroke-linejoin="round"/>
    <path d="M 85.78329467773438 8.881855010986328 C 109.16728210449219 15.816372871398926 116.31473541259766 33.3906364440918 124.9176025390625 29.816661834716797" stroke-width="3.0" fill="none" stroke="rgb(0, 0, 0)" stroke-opacity="1.0" stroke-linecap="round" stroke-linejoin="round"/>
    <path d="M 59.01795196533203 115.74188232421875 C 54.5390739440918 106.1595230102539 58.83091354370117 121.22686004638672 54.822452545166016 111.49281311035156" stroke-width="3.0" fill="none" stroke="rgb(0, 0, 0)" stroke-opacity="1.0" stroke-linecap="round" stroke-linejoin="round"/>
    <path d="M 124.62996673583984 108.30529022216797 C 101.29695892333984 96.4183578491211 126.91631317138672 107.55094909667969 110.76197814941406 90.37712860107422" stroke-width="3.0" fill="none" stroke="rgb(0, 0, 0)" stroke-opacity="1.0" stroke-linecap="round" stroke-linejoin="round"/>
    <path d="M 31.972396850585938 132.1026153564453 C 27.061614990234375 117.16655731201172 35.34947967529297 104.91947174072266 31.187393188476562 115.55389404296875" stroke-width="3.0" fill="none" stroke="rgb(0, 0, 0)" stroke-opacity="1.0" stroke-linecap="round" stroke-linejoin="round"/>
    <path d="M 80.55569458007812 198.45252990722656 C 75.09611511230469 194.98040771484375 70.53478240966797 196.93077087402344 97.12700653076172 198.08905029296875" stroke-width="3.0" fill="none" stroke="rgb(0, 0, 0)" stroke-opacity="1.0" stroke-linecap="round" stroke-linejoin="round"/>
    <path d="M 152.0873260498047 143.05780029296875 C 206.3724822998047 110.23693084716797 180.38035583496094 94.09982299804688 156.8203582763672 90.61607360839844" stroke-width="3.0" fill="none" stroke="rgb(0, 0, 0)" stroke-opacity="1.0" stroke-linecap="round" stroke-linejoin="round"/>
    <path d="M 160.54322814941406 69.92520904541016 C 125.14839935302734 81.14878845214844 172.443359375 82.63294982910156 145.87252807617188 67.87451934814453" stroke-width="3.0" fill="none" stroke="rgb(0, 0, 0)" stroke-opacity="1.0" stroke-linecap="round" stroke-linejoin="round"/>
    <path d="M 143.8790740966797 75.29293060302734 C 142.7989959716797 47.54084396362305 197.44459533691406 107.10428619384766 175.58741760253906 50.874149322509766" stroke-width="3.0" fill="none" stroke="rgb(0, 0, 0)" stroke-opacity="1.0" stroke-linecap="round" stroke-linejoin="round"/>
    <path d="M 154.5817108154297 95.73622131347656 C 168.88450622558594 100.0059814453125 181.07522583007812 101.2684097290039 183.89602661132812 116.15301513671875" stroke-width="3.0" fill="none" stroke="rgb(0, 0, 0)" stroke-opacity="1.0" stroke-linecap="round" stroke-linejoin="round"/>
    <path d="M 178.0750274658203 14.770626068115234 C 168.3119659423828 39.20561981201172 170.881591796875 17.91473960876465 156.37779235839844 37.615447998046875" stroke-width="3.0" fill="none" stroke="rgb(0, 0, 0)" stroke-opacity="1.0" stroke-linecap="round" stroke-linejoin="round"/>
    <path d="M 120.91281127929688 102.7147445678711 C 149.5452423095703 101.64358520507812 132.5210723876953 111.52081298828125 111.65458679199219 96.0634765625" stroke-width="3.0" fill="none" stroke="rgb(0, 0, 0)" stroke-opacity="1.0" stroke-linecap="round" stroke-linejoin="round"/>
    <path d="M 59.117591857910156 109.96440887451172 C 54.40077209472656 106.91548919677734 50.824893951416016 104.04300689697266 62.189178466796875 126.14238739013672" stroke-width="3.0" fill="none" stroke="rgb(0, 0, 0)" stroke-opacity="1.0" stroke-linecap="round" stroke-linejoin="round"/>
    <path d="M 124.67144012451172 76.21219635009766 C 131.10867309570312 40.766849517822266 117.16708374023438 52.63215255737305 121.26908111572266 32.49708557128906" stroke-width="3.0" fill="none" stroke="rgb(0, 0, 0)" stroke-opacity="1.0" stroke-linecap="round" stroke-linejoin="round"/>
    <path d="M 144.89109802246094 29.754196166992188 C 145.80064392089844 36.99491882324219 153.67193603515625 16.374492645263672 177.9597625732422 8.36421012878418" stroke-width="3.0" fill="none" stroke="rgb(0, 0, 0)" stroke-opacity="1.0" stroke-linecap="round" stroke-linejoin="round"/>
  </g>
</svg>
