<?xml version="1.0" ?>
<svg xmlns="http://www.w3.org/2000/svg" version="1.1" width="224" height="224">
  <defs/>
  <g>
    <path d="M 59.787498474121094 99.79277038574219 C 61.637298583984375 87.47711944580078 51.788841247558594 98.06289672851562 54.2247200012207 76.33489990234375" stroke-width="3.0" fill="none" stroke="rgb(0, 0, 0)" stroke-opacity="1.0" stroke-linecap="round" stroke-linejoin="round"/>
    <path d="M 186.36256408691406 120.34344482421875 C 179.7857208251953 111.1201171875 191.98094177246094 79.62650299072266 180.9075927734375 127.00227355957031" stroke-width="3.0" fill="none" stroke="rgb(0, 0, 0)" stroke-opacity="1.0" stroke-linecap="round" stroke-linejoin="round"/>
    <path d="M 57.85347366333008 110.2575454711914 C 62.437705993652344 96.12459564208984 56.36661911010742 127.12178039550781 72.06128692626953 135.42942810058594" stroke-width="3.0" fill="none" stroke="rgb(0, 0, 0)" stroke-opacity="1.0" stroke-linecap="round" stroke-linejoin="round"/>
    <path d="M 182.11941528320312 96.82772064208984 C 142.68453979492188 84.0593490600586 184.97711181640625 81.68280792236328 191.61683654785156 105.57818603515625" stroke-width="3.0" fill="none" stroke="rgb(0, 0, 0)" stroke-opacity="1.0" stroke-linecap="round" stroke-linejoin="round"/>
    <path d="M 181.9916229248047 58.30685806274414 C 187.55093383789062 98.1708755493164 176.0025634765625 100.91329193115234 182.2611541748047 73.7492446899414" stroke-width="3.0" fill="none" stroke="rgb(0, 0, 0)" stroke-opacity="1.0" stroke-linecap="round" stroke-linejoin="round"/>
    <path d="M 122.62592315673828 99.1215591430664 C 146.42173767089844 111.97456359863281 105.47248077392578 99.31045532226562 136.42349243164062 99.29704284667969" stroke-width="3.0" fill="none" stroke="rgb(0, 0, 0)" stroke-opacity="1.0" stroke-linecap="round" stroke-linejoin="round"/>
    <path d="M 184.8656005859375 87.83336639404297 C 185.53744506835938 79.15042114257812 187.59381103515625 68.76961517333984 138.30859375 88.53528594970703" stroke-width="3.0" fill="none" stroke="rgb(0, 0, 0)" stroke-opacity="1.0" stroke-linecap="round" stroke-linejoin="round"/>
    <path d="M 65.10760498046875 190.78269958496094 C 38.81460189819336 164.23660278320312 51.447086334228516 169.70494079589844 48.75132751464844 171.39862060546875" stroke-width="3.0" fill="none" stroke="rgb(0, 0, 0)" stroke-opacity="1.0" stroke-linecap="round" stroke-linejoin="round"/>
    <path d="M 58.87569046020508 181.9605255126953 C 90.37389373779297 210.9673309326172 123.6157455444336 197.06643676757812 138.34188842773438 170.89456176757812" stroke-width="3.0" fill="none" stroke="rgb(0, 0, 0)" stroke-opacity="1.0" stroke-linecap="round" stroke-linejoin="round"/>
    <path d="M 85.44432830810547 26.213430404663086 C 95.50982666015625 82.38037109375 91.50028228759766 19.78264808654785 86.7696762084961 57.47683334350586" stroke-width="3.0" fill="none" stroke="rgb(0, 0, 0)" stroke-opacity="1.0" stroke-linecap="round" stroke-linejoin="round"/>
    <path d="M 53.880916595458984 80.8526382446289 C 69.2009506225586 143.0716094970703 71.35611724853516 144.93775939941406 69.07515716552734 134.2722930908203" stroke-width="3.0" fill="none" stroke="rgb(0, 0, 0)" stroke-opacity="1.0" stroke-linecap="round" stroke-linejoin="round"/>
    <path d="M 145.6103057861328 66.91217041015625 C 205.7141571044922 64.4530258178711 197.46826171875 89.36204528808594 140.4217987060547 81.09420013427734" stroke-width="3.0" fill="none" stroke="rgb(0, 0, 0)" stroke-opacity="1.0" stroke-linecap="round" stroke-linejoin="round"/>
    <path d="M 156.18345642089844 94.8365249633789 C 181.4038543701172 101.14114379882812 183.59262084960938 99.213623046875 195.21817016601562 114.20185089111328" stroke-width="3.0" fill="none" stroke="rgb(0, 0, 0)" stroke-opacity="1.0" stroke-linecap="round" stroke-linejoin="round"/>
    <path d="M 119.3031005859375 154.5958709716797 C 152.24147033691406 155.22705078125 104.49559783935547 148.37925720214844 99.20310974121094 153.8705596923828" stroke-width="3.0" fill="none" stroke="rgb(0, 0, 0)" stroke-opacity="1.0" stroke-linecap="round" stroke-linejoin="round"/>
    <path d="M 177.84304809570312 7.745669841766357 C 190.04995727539062 26.980247497558594 173.83837890625 80.00420379638672 180.07461547851562 59.5347900390625" stroke-width="3.0" fill="none" stroke="rgb(0, 0, 0)" stroke-opacity="1.0" stroke-linecap="round" stroke-linejoin="round"/>
    <path d="M 136.46746826171875 28.96375274658203 C 105.40406799316406 29.930335998535156 136.01333618164062 40.48898696899414 124.38394165039062 76.00238037109375" stroke-width="3.0" fill="none" stroke="rgb(0, 0, 0)" stroke-opacity="1.0" stroke-linecap="round" stroke-linejoin="round"/>
    <path d="M 97.07533264160156 46.16147232055664 C 67.53348541259766 -7.272190093994141 82.41117858886719 5.495654106140137 121.9683837890625 34.824546813964844" stroke-width="3.0" fill="none" stroke="rgb(0, 0, 0)" stroke-opacity="1.0" stroke-linecap="round" stroke-linejoin="round"/>
    <path d="M 45.664249420166016 166.50228881835938 C 42.23324966430664 154.77890014648438 37.963218688964844 148.53114318847656 49.29545211791992 169.8300018310547" stroke-width="3.0" fill="none" stroke="rgb(0, 0, 0)" stroke-opacity="1.0" stroke-linecap="round" stroke-linejoin="round"/>
    <path d="M 45.56890869140625 89.63162231445312 C 19.52290916442871 133.2187042236328 40.80375289916992 144.07582092285156 45.235530853271484 164.83074951171875" stroke-width="3.0" fill="none" stroke="rgb(0, 0, 0)" stroke-opacity="1.0" stroke-linecap="round" stroke-linejoin="round"/>
    <path d="M 71.41567993164062 139.3126983642578 C 112.99407958984375 162.41087341308594 87.42010498046875 152.5160675048828 88.49285888671875 145.5393524169922" stroke-width="3.0" fill="none" stroke="rgb(0, 0, 0)" stroke-opacity="1.0" stroke-linecap="round" stroke-linejoin="round"/>
    <path d="M 90.56927490234375 195.60183715820312 C 69.11552429199219 203.2587127685547 48.70372772216797 175.6160888671875 47.27011489868164 169.57228088378906" stroke-width="3.0" fill="none" stroke="rgb(0, 0, 0)" stroke-opacity="1.0" stroke-linecap="round" stroke-linejoin="round"/>
    <path d="M 50.39655685424805 173.90206909179688 C 67.08875274658203 195.19754028320312 45.54269790649414 171.8445587158203 38.81045150756836 150.49716186523438" stroke-width="3.0" fill="none" stroke="rgb(0, 0, 0)" stroke-opacity="1.0" stroke-linecap="round" stroke-linejoin="round"/>
    <path d="M 80.26216125488281 55.19712448120117 C 57.30436325073242 55.56680679321289 54.14969253540039 73.83544921875 34.27360153198242 114.37953186035156" stroke-width="3.0" fill="none" stroke="rgb(0, 0, 0)" stroke-opacity="1.0" stroke-linecap="round" stroke-linejoin="round"/>
    <path d="M 157.79678344726562 140.4640350341797 C 112.88239288330078 159.24317932128906 103.04934692382812 156.98556518554688 149.76821899414062 146.112060546875" stroke-width="3.0" fill="none" stroke="rgb(0, 0, 0)" stroke-opacity="1.0" stroke-linecap="round" stroke-linejoin="round"/>
    <path d="M 149.24554443359375 28.48436737060547 C 135.19613647460938 34.3834114074707 127.6859359741211 12.895601272583008 138.0399932861328 82.81745147705078" stroke-width="3.0" fill="none" stroke="rgb(0, 0, 0)" stroke-opacity="1.0" stroke-linecap="round" stroke-linejoin="round"/>
    <path d="M 144.48179626464844 94.89081573486328 C 138.1697540283203 110.1843490600586 132.72900390625 98.1309585571289 117.72416687011719 95.53153228759766" stroke-width="3.0" fill="none" stroke="rgb(0, 0, 0)" stroke-opacity="1.0" stroke-linecap="round" stroke-linejoin="round"/>
    <path d="M 134.80133056640625 75.62644958496094 C 138.6725616455078 55.88141632080078 127.69940948486328 74.20374298095703 135.65525817871094 79.04521942138672" stroke-width="3.0" fill="none" stroke="rgb(0, 0, 0)" stroke-opacity="1.0" stroke-linecap="round" stroke-linejoin="round"/>
    <path d="M 141.846923828125 167.37567138671875 C 130.68325805664062 181.11264038085938 141.5583953857422 171.82110595703125 148.2556915283203 148.1690216064453" stroke-width="3.0" fill="none" stroke="rgb(0, 0, 0)" stroke-opacity="1.0" stroke-linecap="round" stroke-linejoin="round"/>
    <path d="M 196.30455017089844 93.14698791503906 C 163.84576416015625 72.01469421386719 173.4267578125 77.61860656738281 187.5861358642578 94.2341079711914" stroke-width="3.0" fill="none" stroke="rgb(0, 0, 0)" stroke-opacity="1.0" stroke-linecap="round" stroke-linejoin="round"/>
    <path d="M 155.5441436767578 72.0378646850586 C 124.9453125 54.80509567260742 200.88882446289062 87.8179931640625 180.31369018554688 63.469425201416016" stroke-width="3.0" fill="none" stroke="rgb(0, 0, 0)" stroke-opacity="1.0" stroke-linecap="round" stroke-linejoin="round"/>
    <path d="M 113.29873657226562 81.38732147216797 C 92.06986999511719 70.15813446044922 139.33331298828125 77.02960205078125 110.03014373779297 81.81993865966797" stroke-width="3.0" fill="none" stroke="rgb(0, 0, 0)" stroke-opacity="1.0" stroke-linecap="round" stroke-linejoin="round"/>
    <path d="M 169.04356384277344 128.4209442138672 C 148.08526611328125 159.36447143554688 105.15834045410156 149.89468383789062 104.0221939086914 157.3727264404297" stroke-width="3.0" fill="none" stroke="rgb(0, 0, 0)" stroke-opacity="1.0" stroke-linecap="round" stroke-linejoin="round"/>
    <path d="M 124.56478881835938 88.58875274658203 C 142.436767578125 100.00282287597656 130.32650756835938 73.17060852050781 129.63961791992188 106.42628479003906" stroke-width="3.0" fill="none" stroke="rgb(0, 0, 0)" stroke-opacity="1.0" stroke-linecap="round" stroke-linejoin="round"/>
    <path d="M 185.4542236328125 111.05728149414062 C 160.69845581054688 88.48654174804688 184.8753204345703 90.50520324707031 150.45416259765625 87.25067138671875" stroke-width="3.0" fill="none" stroke="rgb(0, 0, 0)" stroke-opacity="1.0" stroke-linecap="round" stroke-linejoin="round"/>
    <path d="M 83.75148010253906 7.016936302185059 C 114.43821716308594 18.368846893310547 105.24946594238281 34.36207962036133 134.91526794433594 30.965984344482422" stroke-width="3.0" fill="none" stroke="rgb(0, 0, 0)" stroke-opacity="1.0" stroke-linecap="round" stroke-linejoin="round"/>
    <path d="M 62.263938903808594 117.6001968383789 C 60.73085021972656 109.45044708251953 59.62149429321289 125.40180969238281 65.83031463623047 129.98065185546875" stroke-width="3.0" fill="none" stroke="rgb(0, 0, 0)" stroke-opacity="1.0" stroke-linecap="round" stroke-linejoin="round"/>
    <path d="M 129.445068359375 107.07908630371094 C 140.10226440429688 90.28772735595703 123.29766082763672 118.44151306152344 117.45531463623047 85.95519256591797" stroke-width="3.0" fill="none" stroke="rgb(0, 0, 0)" stroke-opacity="1.0" stroke-linecap="round" stroke-linejoin="round"/>
    <path d="M 33.219970703125 133.4150848388672 C 29.502626419067383 119.4548568725586 36.772560119628906 87.684326171875 55.209922790527344 68.88850402832031" stroke-width="3.0" fill="none" stroke="rgb(0, 0, 0)" stroke-opacity="1.0" stroke-linecap="round" stroke-linejoin="round"/>
    <path d="M 93.92667388916016 196.07090759277344 C 64.15611267089844 195.27879333496094 69.90886688232422 192.10971069335938 104.32504272460938 197.46360778808594" stroke-width="3.0" fill="none" stroke="rgb(0, 0, 0)" stroke-opacity="1.0" stroke-linecap="round" stroke-linejoin="round"/>
    <path d="M 170.8402557373047 129.5706787109375 C 202.0242462158203 117.4751205444336 181.01885986328125 94.77603149414062 155.53123474121094 88.3761215209961" stroke-width="3.0" fill="none" stroke="rgb(0, 0, 0)" stroke-opacity="1.0" stroke-linecap="round" stroke-linejoin="round"/>
    <path d="M 153.7942657470703 68.95997619628906 C 129.3350372314453 84.93677520751953 174.96536254882812 73.03240966796875 145.60073852539062 72.82711029052734" stroke-width="3.0" fill="none" stroke="rgb(0, 0, 0)" stroke-opacity="1.0" stroke-linecap="round" stroke-linejoin="round"/>
    <path d="M 139.31094360351562 77.00106048583984 C 144.69973754882812 34.23977279663086 203.3394775390625 108.82759857177734 179.61248779296875 47.51892852783203" stroke-width="3.0" fill="none" stroke="rgb(0, 0, 0)" stroke-opacity="1.0" stroke-linecap="round" stroke-linejoin="round"/>
    <path d="M 152.10459899902344 98.9668197631836 C 169.832275390625 105.67927551269531 170.93701171875 101.1977310180664 183.01715087890625 118.15890502929688" stroke-width="3.0" fill="none" stroke="rgb(0, 0, 0)" stroke-opacity="1.0" stroke-linecap="round" stroke-linejoin="round"/>
    <path d="M 175.2078399658203 14.7100248336792 C 169.7835693359375 29.713157653808594 171.56387329101562 14.24140453338623 149.1047821044922 34.94662857055664" stroke-width="3.0" fill="none" stroke="rgb(0, 0, 0)" stroke-opacity="1.0" stroke-linecap="round" stroke-linejoin="round"/>
    <path d="M 119.7306900024414 94.86186218261719 C 145.38580322265625 98.20043182373047 133.1184844970703 116.35585021972656 120.58908081054688 101.72135925292969" stroke-width="3.0" fill="none" stroke="rgb(0, 0, 0)" stroke-opacity="1.0" stroke-linecap="round" stroke-linejoin="round"/>
    <path d="M 67.71681213378906 122.83731842041016 C 51.8806037902832 115.01691436767578 61.63412094116211 112.83987426757812 59.64110565185547 116.55015563964844" stroke-width="3.0" fill="none" stroke="rgb(0, 0, 0)" stroke-opacity="1.0" stroke-linecap="round" stroke-linejoin="round"/>
    <path d="M 124.45472717285156 75.61809539794922 C 125.12207794189453 44.44780349731445 116.95368957519531 54.87248992919922 121.29701232910156 36.61988830566406" stroke-width="3.0" fill="none" stroke="rgb(0, 0, 0)" stroke-opacity="1.0" stroke-linecap="round" stroke-linejoin="round"/>
    <path d="M 150.79507446289062 27.413307189941406 C 144.29428100585938 33.83652877807617 166.6699676513672 8.419183731079102 178.57308959960938 7.939676761627197" stroke-width="3.0" fill="none" stroke="rgb(0, 0, 0)" stroke-opacity="1.0" stroke-linecap="round" stroke-linejoin="round"/>
  </g>
</svg>
