<?xml version="1.0" ?>
<svg xmlns="http://www.w3.org/2000/svg" version="1.1" width="224" height="224">
  <defs/>
  <g>
    <path d="M 63.18977355957031 81.27727508544922 C 63.85367202758789 79.6228256225586 63.85763931274414 85.41059112548828 59.13606643676758 69.68787384033203" stroke-width="3.0" fill="none" stroke="rgb(0, 0, 0)" stroke-opacity="1.0" stroke-linecap="round" stroke-linejoin="round"/>
    <path d="M 182.5777587890625 124.32713317871094 C 180.572998046875 115.68428802490234 198.93373107910156 91.11103820800781 174.75108337402344 128.69473266601562" stroke-width="3.0" fill="none" stroke="rgb(0, 0, 0)" stroke-opacity="1.0" stroke-linecap="round" stroke-linejoin="round"/>
    <path d="M 59.42799758911133 119.39128112792969 C 57.50405502319336 114.81300354003906 55.721500396728516 122.43466186523438 68.87505340576172 128.33482360839844" stroke-width="3.0" fill="none" stroke="rgb(0, 0, 0)" stroke-opacity="1.0" stroke-linecap="round" stroke-linejoin="round"/>
    <path d="M 184.03298950195312 92.15953826904297 C 148.1005859375 81.59870910644531 173.300048828125 73.9839859008789 189.16592407226562 109.03955841064453" stroke-width="3.0" fill="none" stroke="rgb(0, 0, 0)" stroke-opacity="1.0" stroke-linecap="round" stroke-linejoin="round"/>
    <path d="M 183.97491455078125 64.20130920410156 C 173.66668701171875 115.07086181640625 181.7482147216797 103.75738525390625 185.172607421875 75.35211181640625" stroke-width="3.0" fill="none" stroke="rgb(0, 0, 0)" stroke-opacity="1.0" stroke-linecap="round" stroke-linejoin="round"/>
    <path d="M 121.92848205566406 102.43648529052734 C 144.7228240966797 116.6761245727539 108.2991714477539 94.97578430175781 134.0811004638672 105.26665496826172" stroke-width="3.0" fill="none" stroke="rgb(0, 0, 0)" stroke-opacity="1.0" stroke-linecap="round" stroke-linejoin="round"/>
    <path d="M 172.2230987548828 88.94036102294922 C 192.80157470703125 95.19610595703125 179.01368713378906 74.4691390991211 159.1815185546875 85.19969177246094" stroke-width="3.0" fill="none" stroke="rgb(0, 0, 0)" stroke-opacity="1.0" stroke-linecap="round" stroke-linejoin="round"/>
    <path d="M 60.35400390625 186.4545135498047 C 38.443153381347656 156.17543029785156 47.512229919433594 168.91636657714844 47.49427795410156 172.73236083984375" stroke-width="3.0" fill="none" stroke="rgb(0, 0, 0)" stroke-opacity="1.0" stroke-linecap="round" stroke-linejoin="round"/>
    <path d="M 54.40281677246094 180.36984252929688 C 88.50233459472656 211.71713256835938 117.32209777832031 196.89187622070312 131.5653839111328 180.60585021972656" stroke-width="3.0" fill="none" stroke="rgb(0, 0, 0)" stroke-opacity="1.0" stroke-linecap="round" stroke-linejoin="round"/>
    <path d="M 82.45413208007812 29.294116973876953 C 94.1669692993164 79.12422180175781 83.82872772216797 5.070455551147461 84.23106384277344 59.668128967285156" stroke-width="3.0" fill="none" stroke="rgb(0, 0, 0)" stroke-opacity="1.0" stroke-linecap="round" stroke-linejoin="round"/>
    <path d="M 48.91699981689453 95.83250427246094 C 63.45637893676758 141.01841735839844 92.19156646728516 156.90264892578125 88.12850952148438 149.90516662597656" stroke-width="3.0" fill="none" stroke="rgb(0, 0, 0)" stroke-opacity="1.0" stroke-linecap="round" stroke-linejoin="round"/>
    <path d="M 149.6138153076172 74.97604370117188 C 204.66360473632812 68.53389739990234 186.1519012451172 83.51655578613281 139.56935119628906 86.70797729492188" stroke-width="3.0" fill="none" stroke="rgb(0, 0, 0)" stroke-opacity="1.0" stroke-linecap="round" stroke-linejoin="round"/>
    <path d="M 153.20066833496094 95.41776275634766 C 193.71939086914062 103.10115051269531 176.30447387695312 106.23927307128906 194.17108154296875 115.83869171142578" stroke-width="3.0" fill="none" stroke="rgb(0, 0, 0)" stroke-opacity="1.0" stroke-linecap="round" stroke-linejoin="round"/>
    <path d="M 122.6459732055664 153.7482147216797 C 142.6397247314453 144.4632568359375 124.7724838256836 158.95635986328125 104.82058715820312 154.47882080078125" stroke-width="3.0" fill="none" stroke="rgb(0, 0, 0)" stroke-opacity="1.0" stroke-linecap="round" stroke-linejoin="round"/>
    <path d="M 180.12657165527344 10.251218795776367 C 187.23330688476562 24.840177536010742 174.01785278320312 65.1765365600586 179.20864868164062 52.393096923828125" stroke-width="3.0" fill="none" stroke="rgb(0, 0, 0)" stroke-opacity="1.0" stroke-linecap="round" stroke-linejoin="round"/>
    <path d="M 131.90365600585938 30.024778366088867 C 125.87313079833984 47.14943313598633 134.6754150390625 41.10595703125 125.81622314453125 69.45384979248047" stroke-width="3.0" fill="none" stroke="rgb(0, 0, 0)" stroke-opacity="1.0" stroke-linecap="round" stroke-linejoin="round"/>
    <path d="M 85.94691467285156 48.39338302612305 C 73.80374145507812 -7.863988399505615 83.3011474609375 -1.8956639766693115 111.24773406982422 41.160926818847656" stroke-width="3.0" fill="none" stroke="rgb(0, 0, 0)" stroke-opacity="1.0" stroke-linecap="round" stroke-linejoin="round"/>
    <path d="M 47.77580261230469 167.72364807128906 C 39.574188232421875 153.3090362548828 36.69618606567383 144.4797821044922 45.293861389160156 164.05398559570312" stroke-width="3.0" fill="none" stroke="rgb(0, 0, 0)" stroke-opacity="1.0" stroke-linecap="round" stroke-linejoin="round"/>
    <path d="M 37.061893463134766 98.62301635742188 C 20.31011962890625 125.75653839111328 41.04574203491211 147.2951202392578 42.54934310913086 158.93003845214844" stroke-width="3.0" fill="none" stroke="rgb(0, 0, 0)" stroke-opacity="1.0" stroke-linecap="round" stroke-linejoin="round"/>
    <path d="M 86.39331817626953 150.42178344726562 C 106.78952026367188 161.59176635742188 99.35774230957031 161.06439208984375 93.97882080078125 151.71617126464844" stroke-width="3.0" fill="none" stroke="rgb(0, 0, 0)" stroke-opacity="1.0" stroke-linecap="round" stroke-linejoin="round"/>
    <path d="M 85.0606460571289 198.06869506835938 C 68.71231079101562 199.59559631347656 50.10737991333008 176.8471221923828 48.701446533203125 171.6124267578125" stroke-width="3.0" fill="none" stroke="rgb(0, 0, 0)" stroke-opacity="1.0" stroke-linecap="round" stroke-linejoin="round"/>
    <path d="M 49.18268966674805 171.302978515625 C 65.287109375 192.58079528808594 42.73459243774414 169.32687377929688 38.48239517211914 148.90750122070312" stroke-width="3.0" fill="none" stroke="rgb(0, 0, 0)" stroke-opacity="1.0" stroke-linecap="round" stroke-linejoin="round"/>
    <path d="M 78.87690734863281 55.678062438964844 C 62.62701416015625 59.3973503112793 45.566383361816406 71.53387451171875 32.65165328979492 107.28968811035156" stroke-width="3.0" fill="none" stroke="rgb(0, 0, 0)" stroke-opacity="1.0" stroke-linecap="round" stroke-linejoin="round"/>
    <path d="M 155.67845153808594 138.3387451171875 C 120.89559173583984 158.50694274902344 118.80821990966797 154.8383026123047 134.01620483398438 154.1696014404297" stroke-width="3.0" fill="none" stroke="rgb(0, 0, 0)" stroke-opacity="1.0" stroke-linecap="round" stroke-linejoin="round"/>
    <path d="M 143.70558166503906 30.07946014404297 C 147.4692840576172 45.114707946777344 135.7861328125 31.751283645629883 138.69113159179688 81.21473693847656" stroke-width="3.0" fill="none" stroke="rgb(0, 0, 0)" stroke-opacity="1.0" stroke-linecap="round" stroke-linejoin="round"/>
    <path d="M 151.1151123046875 98.8636245727539 C 133.6238555908203 107.59736633300781 134.18624877929688 113.0733413696289 118.04759979248047 104.1197738647461" stroke-width="3.0" fill="none" stroke="rgb(0, 0, 0)" stroke-opacity="1.0" stroke-linecap="round" stroke-linejoin="round"/>
    <path d="M 137.8052520751953 76.33383178710938 C 145.28506469726562 56.7343864440918 130.10079956054688 62.657264709472656 138.00994873046875 77.31309509277344" stroke-width="3.0" fill="none" stroke="rgb(0, 0, 0)" stroke-opacity="1.0" stroke-linecap="round" stroke-linejoin="round"/>
    <path d="M 135.18270874023438 177.02484130859375 C 129.44400024414062 182.4990997314453 137.11581420898438 180.08102416992188 146.36767578125 145.4391632080078" stroke-width="3.0" fill="none" stroke="rgb(0, 0, 0)" stroke-opacity="1.0" stroke-linecap="round" stroke-linejoin="round"/>
    <path d="M 194.2433319091797 95.5842514038086 C 169.7012176513672 72.41340637207031 166.940185546875 81.50804901123047 186.8982391357422 88.27765655517578" stroke-width="3.0" fill="none" stroke="rgb(0, 0, 0)" stroke-opacity="1.0" stroke-linecap="round" stroke-linejoin="round"/>
    <path d="M 149.13290405273438 75.92745971679688 C 134.49253845214844 54.34107208251953 196.80615234375 91.79640197753906 179.2424774169922 67.90927124023438" stroke-width="3.0" fill="none" stroke="rgb(0, 0, 0)" stroke-opacity="1.0" stroke-linecap="round" stroke-linejoin="round"/>
    <path d="M 109.40664672851562 77.35932159423828 C 78.74463653564453 70.9561996459961 153.3137664794922 74.1171646118164 105.25035858154297 84.1717300415039" stroke-width="3.0" fill="none" stroke="rgb(0, 0, 0)" stroke-opacity="1.0" stroke-linecap="round" stroke-linejoin="round"/>
    <path d="M 162.0718536376953 133.68682861328125 C 130.42013549804688 164.76438903808594 118.64286041259766 151.3958282470703 103.77271270751953 157.0917205810547" stroke-width="3.0" fill="none" stroke="rgb(0, 0, 0)" stroke-opacity="1.0" stroke-linecap="round" stroke-linejoin="round"/>
    <path d="M 123.89830780029297 89.00971984863281 C 141.13023376464844 101.54181671142578 130.0271759033203 69.26803588867188 127.08287811279297 106.92179107666016" stroke-width="3.0" fill="none" stroke="rgb(0, 0, 0)" stroke-opacity="1.0" stroke-linecap="round" stroke-linejoin="round"/>
    <path d="M 187.35401916503906 111.59669494628906 C 170.97169494628906 89.01062774658203 182.7209014892578 89.84353637695312 141.8966522216797 82.76734161376953" stroke-width="3.0" fill="none" stroke="rgb(0, 0, 0)" stroke-opacity="1.0" stroke-linecap="round" stroke-linejoin="round"/>
    <path d="M 83.34510803222656 7.112854480743408 C 104.81118774414062 12.405346870422363 117.99700927734375 35.48318862915039 121.75987243652344 30.723073959350586" stroke-width="3.0" fill="none" stroke="rgb(0, 0, 0)" stroke-opacity="1.0" stroke-linecap="round" stroke-linejoin="round"/>
    <path d="M 58.356719970703125 121.26200103759766 C 61.00581741333008 117.5228500366211 62.365699768066406 130.9141387939453 62.17045593261719 125.34981536865234" stroke-width="3.0" fill="none" stroke="rgb(0, 0, 0)" stroke-opacity="1.0" stroke-linecap="round" stroke-linejoin="round"/>
    <path d="M 137.79127502441406 104.56172180175781 C 119.19703674316406 93.73836517333984 119.51174926757812 116.08316802978516 106.88633728027344 91.09578704833984" stroke-width="3.0" fill="none" stroke="rgb(0, 0, 0)" stroke-opacity="1.0" stroke-linecap="round" stroke-linejoin="round"/>
    <path d="M 32.38011932373047 132.6646728515625 C 28.316858291625977 102.07073211669922 40.28974533081055 100.00180053710938 48.79795455932617 76.00473022460938" stroke-width="3.0" fill="none" stroke="rgb(0, 0, 0)" stroke-opacity="1.0" stroke-linecap="round" stroke-linejoin="round"/>
    <path d="M 77.10137176513672 196.699462890625 C 70.86727142333984 191.69004821777344 65.27944946289062 193.4344940185547 100.3520736694336 197.74734497070312" stroke-width="3.0" fill="none" stroke="rgb(0, 0, 0)" stroke-opacity="1.0" stroke-linecap="round" stroke-linejoin="round"/>
    <path d="M 162.79061889648438 130.8024444580078 C 198.5966033935547 116.46078491210938 178.6363525390625 92.76014709472656 155.64134216308594 90.51958465576172" stroke-width="3.0" fill="none" stroke="rgb(0, 0, 0)" stroke-opacity="1.0" stroke-linecap="round" stroke-linejoin="round"/>
    <path d="M 154.65328979492188 68.8191909790039 C 134.34030151367188 84.73664855957031 175.1525421142578 77.58275604248047 147.4072265625 75.51789855957031" stroke-width="3.0" fill="none" stroke="rgb(0, 0, 0)" stroke-opacity="1.0" stroke-linecap="round" stroke-linejoin="round"/>
    <path d="M 142.37840270996094 77.41316223144531 C 150.19522094726562 42.89189529418945 194.52760314941406 111.0158462524414 178.85556030273438 44.11659240722656" stroke-width="3.0" fill="none" stroke="rgb(0, 0, 0)" stroke-opacity="1.0" stroke-linecap="round" stroke-linejoin="round"/>
    <path d="M 160.53892517089844 96.68055725097656 C 169.92901611328125 105.15672302246094 178.53443908691406 100.38641357421875 182.7710723876953 121.1668701171875" stroke-width="3.0" fill="none" stroke="rgb(0, 0, 0)" stroke-opacity="1.0" stroke-linecap="round" stroke-linejoin="round"/>
    <path d="M 175.10792541503906 13.882122039794922 C 166.11766052246094 43.307437896728516 173.86373901367188 21.363853454589844 159.92782592773438 37.6964111328125" stroke-width="3.0" fill="none" stroke="rgb(0, 0, 0)" stroke-opacity="1.0" stroke-linecap="round" stroke-linejoin="round"/>
    <path d="M 120.27072143554688 104.08477020263672 C 144.37353515625 103.829833984375 137.67694091796875 110.25953674316406 120.47412872314453 103.8613510131836" stroke-width="3.0" fill="none" stroke="rgb(0, 0, 0)" stroke-opacity="1.0" stroke-linecap="round" stroke-linejoin="round"/>
    <path d="M 74.21016693115234 136.63992309570312 C 50.58747482299805 126.00575256347656 62.25507354736328 113.70149230957031 60.415252685546875 120.6180648803711" stroke-width="3.0" fill="none" stroke="rgb(0, 0, 0)" stroke-opacity="1.0" stroke-linecap="round" stroke-linejoin="round"/>
    <path d="M 125.0994873046875 73.40998840332031 C 127.17410278320312 37.57220458984375 118.37733459472656 49.41691207885742 123.70494079589844 33.519866943359375" stroke-width="3.0" fill="none" stroke="rgb(0, 0, 0)" stroke-opacity="1.0" stroke-linecap="round" stroke-linejoin="round"/>
    <path d="M 153.40354919433594 24.045360565185547 C 147.21176147460938 35.61994171142578 161.3578338623047 9.677380561828613 179.34506225585938 8.355144500732422" stroke-width="3.0" fill="none" stroke="rgb(0, 0, 0)" stroke-opacity="1.0" stroke-linecap="round" stroke-linejoin="round"/>
  </g>
</svg>
