<?xml version="1.0" ?>
<svg xmlns="http://www.w3.org/2000/svg" version="1.1" width="224" height="224">
  <defs/>
  <g>
    <path d="M 59.537818908691406 100.32550811767578 C 62.50141906738281 86.92247009277344 52.69118881225586 95.61906433105469 57.00758743286133 76.8298568725586" stroke-width="3.0" fill="none" stroke="rgb(0, 0, 0)" stroke-opacity="1.0" stroke-linecap="round" stroke-linejoin="round"/>
    <path d="M 186.11138916015625 121.46174621582031 C 180.4013214111328 110.93777465820312 190.40528869628906 82.52790069580078 181.71224975585938 124.95744323730469" stroke-width="3.0" fill="none" stroke="rgb(0, 0, 0)" stroke-opacity="1.0" stroke-linecap="round" stroke-linejoin="round"/>
    <path d="M 58.358856201171875 116.67884063720703 C 63.49983596801758 98.06719207763672 55.02035140991211 130.19654846191406 69.8704605102539 135.90126037597656" stroke-width="3.0" fill="none" stroke="rgb(0, 0, 0)" stroke-opacity="1.0" stroke-linecap="round" stroke-linejoin="round"/>
    <path d="M 185.44857788085938 95.9596176147461 C 143.9592742919922 84.31400299072266 180.7238006591797 84.79125213623047 189.29083251953125 105.78972625732422" stroke-width="3.0" fill="none" stroke="rgb(0, 0, 0)" stroke-opacity="1.0" stroke-linecap="round" stroke-linejoin="round"/>
    <path d="M 177.8979034423828 56.57993698120117 C 191.63262939453125 100.63398742675781 175.91094970703125 102.09817504882812 180.50900268554688 73.18470001220703" stroke-width="3.0" fill="none" stroke="rgb(0, 0, 0)" stroke-opacity="1.0" stroke-linecap="round" stroke-linejoin="round"/>
    <path d="M 127.96892547607422 97.70886993408203 C 145.98500061035156 115.29179382324219 102.44866943359375 101.38684844970703 133.5638885498047 103.1871109008789" stroke-width="3.0" fill="none" stroke="rgb(0, 0, 0)" stroke-opacity="1.0" stroke-linecap="round" stroke-linejoin="round"/>
    <path d="M 181.8820037841797 85.64360046386719 C 186.2371063232422 76.66802215576172 193.81546020507812 72.5673828125 143.04153442382812 87.33594512939453" stroke-width="3.0" fill="none" stroke="rgb(0, 0, 0)" stroke-opacity="1.0" stroke-linecap="round" stroke-linejoin="round"/>
    <path d="M 66.402587890625 190.39028930664062 C 38.11338424682617 165.6392822265625 51.36454772949219 170.75941467285156 49.11998748779297 171.319580078125" stroke-width="3.0" fill="none" stroke="rgb(0, 0, 0)" stroke-opacity="1.0" stroke-linecap="round" stroke-linejoin="round"/>
    <path d="M 57.173038482666016 183.172607421875 C 91.1389389038086 209.2080078125 124.07662200927734 196.044677734375 135.9055938720703 170.18894958496094" stroke-width="3.0" fill="none" stroke="rgb(0, 0, 0)" stroke-opacity="1.0" stroke-linecap="round" stroke-linejoin="round"/>
    <path d="M 83.07465362548828 24.91447639465332 C 90.92371368408203 82.87723541259766 89.38805389404297 15.336179733276367 86.47896575927734 56.70179748535156" stroke-width="3.0" fill="none" stroke="rgb(0, 0, 0)" stroke-opacity="1.0" stroke-linecap="round" stroke-linejoin="round"/>
    <path d="M 56.38300323486328 84.42668914794922 C 66.37923431396484 143.90733337402344 69.20159149169922 145.1602325439453 68.83943176269531 132.8848419189453" stroke-width="3.0" fill="none" stroke="rgb(0, 0, 0)" stroke-opacity="1.0" stroke-linecap="round" stroke-linejoin="round"/>
    <path d="M 144.93223571777344 70.88298797607422 C 203.1890106201172 65.02400970458984 192.45533752441406 87.89348602294922 142.52296447753906 83.42819213867188" stroke-width="3.0" fill="none" stroke="rgb(0, 0, 0)" stroke-opacity="1.0" stroke-linecap="round" stroke-linejoin="round"/>
    <path d="M 155.88670349121094 92.96666717529297 C 179.6100616455078 101.87560272216797 178.26358032226562 100.30537414550781 197.33352661132812 113.66272735595703" stroke-width="3.0" fill="none" stroke="rgb(0, 0, 0)" stroke-opacity="1.0" stroke-linecap="round" stroke-linejoin="round"/>
    <path d="M 119.24235534667969 151.96531677246094 C 152.28369140625 153.6396942138672 100.5790786743164 149.03453063964844 98.6862564086914 155.0496826171875" stroke-width="3.0" fill="none" stroke="rgb(0, 0, 0)" stroke-opacity="1.0" stroke-linecap="round" stroke-linejoin="round"/>
    <path d="M 179.56967163085938 9.029121398925781 C 186.75863647460938 26.056529998779297 172.41551208496094 82.61842346191406 181.2129669189453 60.744407653808594" stroke-width="3.0" fill="none" stroke="rgb(0, 0, 0)" stroke-opacity="1.0" stroke-linecap="round" stroke-linejoin="round"/>
    <path d="M 136.31390380859375 29.605390548706055 C 105.50047302246094 21.63428497314453 134.2995147705078 42.31266403198242 123.23931121826172 79.26036071777344" stroke-width="3.0" fill="none" stroke="rgb(0, 0, 0)" stroke-opacity="1.0" stroke-linecap="round" stroke-linejoin="round"/>
    <path d="M 96.7242202758789 47.28314208984375 C 64.47328186035156 -6.053156852722168 82.15581512451172 3.54805326461792 121.69609832763672 32.26353454589844" stroke-width="3.0" fill="none" stroke="rgb(0, 0, 0)" stroke-opacity="1.0" stroke-linecap="round" stroke-linejoin="round"/>
    <path d="M 46.23489761352539 166.15406799316406 C 41.716400146484375 155.81683349609375 37.22292709350586 149.84010314941406 47.98455810546875 170.52322387695312" stroke-width="3.0" fill="none" stroke="rgb(0, 0, 0)" stroke-opacity="1.0" stroke-linecap="round" stroke-linejoin="round"/>
    <path d="M 44.622535705566406 86.92613220214844 C 18.553316116333008 132.64926147460938 40.48343276977539 141.61997985839844 45.887062072753906 165.69078063964844" stroke-width="3.0" fill="none" stroke="rgb(0, 0, 0)" stroke-opacity="1.0" stroke-linecap="round" stroke-linejoin="round"/>
    <path d="M 70.52220153808594 141.75608825683594 C 115.47267150878906 161.74594116210938 86.48136901855469 151.25531005859375 83.07120513916016 145.47909545898438" stroke-width="3.0" fill="none" stroke="rgb(0, 0, 0)" stroke-opacity="1.0" stroke-linecap="round" stroke-linejoin="round"/>
    <path d="M 90.79212951660156 195.6946258544922 C 69.79383850097656 202.96240234375 47.55791473388672 175.75160217285156 47.004119873046875 167.57456970214844" stroke-width="3.0" fill="none" stroke="rgb(0, 0, 0)" stroke-opacity="1.0" stroke-linecap="round" stroke-linejoin="round"/>
    <path d="M 49.8793830871582 173.0951690673828 C 65.61941528320312 196.7446746826172 45.63937759399414 172.9907684326172 39.43341827392578 151.4305877685547" stroke-width="3.0" fill="none" stroke="rgb(0, 0, 0)" stroke-opacity="1.0" stroke-linecap="round" stroke-linejoin="round"/>
    <path d="M 81.72903442382812 53.25509262084961 C 56.52703857421875 58.70944595336914 54.349952697753906 73.86739349365234 33.281192779541016 112.43319702148438" stroke-width="3.0" fill="none" stroke="rgb(0, 0, 0)" stroke-opacity="1.0" stroke-linecap="round" stroke-linejoin="round"/>
    <path d="M 157.75637817382812 138.273193359375 C 108.89857482910156 155.07180786132812 101.74787139892578 157.64549255371094 148.2718963623047 146.18685913085938" stroke-width="3.0" fill="none" stroke="rgb(0, 0, 0)" stroke-opacity="1.0" stroke-linecap="round" stroke-linejoin="round"/>
    <path d="M 150.10902404785156 28.139986038208008 C 138.20074462890625 29.53542709350586 132.07789611816406 13.782291412353516 140.20387268066406 84.24423217773438" stroke-width="3.0" fill="none" stroke="rgb(0, 0, 0)" stroke-opacity="1.0" stroke-linecap="round" stroke-linejoin="round"/>
    <path d="M 147.617919921875 101.74609375 C 134.12269592285156 113.788818359375 132.43324279785156 100.02999877929688 119.89603424072266 91.3157730102539" stroke-width="3.0" fill="none" stroke="rgb(0, 0, 0)" stroke-opacity="1.0" stroke-linecap="round" stroke-linejoin="round"/>
    <path d="M 138.23605346679688 74.56089782714844 C 141.0206298828125 55.542938232421875 131.5231170654297 77.31056213378906 138.6062469482422 79.2538833618164" stroke-width="3.0" fill="none" stroke="rgb(0, 0, 0)" stroke-opacity="1.0" stroke-linecap="round" stroke-linejoin="round"/>
    <path d="M 139.17929077148438 165.99618530273438 C 127.5948257446289 177.84324645996094 142.62774658203125 171.08023071289062 146.11122131347656 148.35079956054688" stroke-width="3.0" fill="none" stroke="rgb(0, 0, 0)" stroke-opacity="1.0" stroke-linecap="round" stroke-linejoin="round"/>
    <path d="M 194.17990112304688 97.52247619628906 C 161.30621337890625 73.137451171875 167.6138916015625 80.95986938476562 186.43858337402344 96.34504699707031" stroke-width="3.0" fill="none" stroke="rgb(0, 0, 0)" stroke-opacity="1.0" stroke-linecap="round" stroke-linejoin="round"/>
    <path d="M 158.04721069335938 72.38700103759766 C 129.92405700683594 50.92319869995117 199.88121032714844 88.77474975585938 181.15565490722656 63.26791000366211" stroke-width="3.0" fill="none" stroke="rgb(0, 0, 0)" stroke-opacity="1.0" stroke-linecap="round" stroke-linejoin="round"/>
    <path d="M 116.66342163085938 83.09864044189453 C 91.3403091430664 70.8631591796875 139.6153564453125 78.34125518798828 108.93528747558594 83.66777801513672" stroke-width="3.0" fill="none" stroke="rgb(0, 0, 0)" stroke-opacity="1.0" stroke-linecap="round" stroke-linejoin="round"/>
    <path d="M 167.6422576904297 127.3910140991211 C 144.9257049560547 155.45132446289062 104.98625946044922 145.5576934814453 104.41209411621094 157.2056884765625" stroke-width="3.0" fill="none" stroke="rgb(0, 0, 0)" stroke-opacity="1.0" stroke-linecap="round" stroke-linejoin="round"/>
    <path d="M 127.44597625732422 89.18115234375 C 144.26846313476562 95.46369934082031 131.11338806152344 71.8646011352539 132.54718017578125 108.03065490722656" stroke-width="3.0" fill="none" stroke="rgb(0, 0, 0)" stroke-opacity="1.0" stroke-linecap="round" stroke-linejoin="round"/>
    <path d="M 185.2411651611328 111.58952331542969 C 161.50074768066406 86.15797424316406 184.954345703125 88.51861572265625 151.1853790283203 87.6063461303711" stroke-width="3.0" fill="none" stroke="rgb(0, 0, 0)" stroke-opacity="1.0" stroke-linecap="round" stroke-linejoin="round"/>
    <path d="M 85.64656066894531 9.433709144592285 C 116.66582489013672 17.462871551513672 104.34690856933594 32.69010925292969 134.99935913085938 28.90526580810547" stroke-width="3.0" fill="none" stroke="rgb(0, 0, 0)" stroke-opacity="1.0" stroke-linecap="round" stroke-linejoin="round"/>
    <path d="M 61.591026306152344 119.19991302490234 C 64.22553253173828 109.23966979980469 64.80052185058594 123.65070343017578 65.34584045410156 125.54379272460938" stroke-width="3.0" fill="none" stroke="rgb(0, 0, 0)" stroke-opacity="1.0" stroke-linecap="round" stroke-linejoin="round"/>
    <path d="M 134.09664916992188 106.41545867919922 C 141.1680450439453 90.61508178710938 123.1256103515625 119.29647827148438 116.11677551269531 87.35033416748047" stroke-width="3.0" fill="none" stroke="rgb(0, 0, 0)" stroke-opacity="1.0" stroke-linecap="round" stroke-linejoin="round"/>
    <path d="M 31.70933723449707 132.13458251953125 C 27.955659866333008 121.59053039550781 36.06132125854492 86.53933715820312 59.888404846191406 68.53626251220703" stroke-width="3.0" fill="none" stroke="rgb(0, 0, 0)" stroke-opacity="1.0" stroke-linecap="round" stroke-linejoin="round"/>
    <path d="M 96.26571655273438 197.3786163330078 C 64.62994384765625 197.43931579589844 69.05018615722656 194.27835083007812 104.68099212646484 196.69522094726562" stroke-width="3.0" fill="none" stroke="rgb(0, 0, 0)" stroke-opacity="1.0" stroke-linecap="round" stroke-linejoin="round"/>
    <path d="M 170.0947723388672 128.85182189941406 C 199.56117248535156 114.47073364257812 181.5938720703125 92.98735046386719 154.99169921875 89.27484893798828" stroke-width="3.0" fill="none" stroke="rgb(0, 0, 0)" stroke-opacity="1.0" stroke-linecap="round" stroke-linejoin="round"/>
    <path d="M 151.95680236816406 66.4280014038086 C 131.3885955810547 84.49031829833984 174.60997009277344 75.32659149169922 145.9688262939453 72.44680786132812" stroke-width="3.0" fill="none" stroke="rgb(0, 0, 0)" stroke-opacity="1.0" stroke-linecap="round" stroke-linejoin="round"/>
    <path d="M 137.83189392089844 80.47518920898438 C 144.54421997070312 36.65413284301758 202.7405242919922 110.82623291015625 177.44873046875 47.4570426940918" stroke-width="3.0" fill="none" stroke="rgb(0, 0, 0)" stroke-opacity="1.0" stroke-linecap="round" stroke-linejoin="round"/>
    <path d="M 153.6792449951172 98.22080993652344 C 170.94041442871094 104.17249298095703 170.51629638671875 101.51603698730469 183.72640991210938 117.59419250488281" stroke-width="3.0" fill="none" stroke="rgb(0, 0, 0)" stroke-opacity="1.0" stroke-linecap="round" stroke-linejoin="round"/>
    <path d="M 179.9278564453125 18.620153427124023 C 175.5607452392578 36.200584411621094 165.5540771484375 10.252237319946289 151.24691772460938 35.7781867980957" stroke-width="3.0" fill="none" stroke="rgb(0, 0, 0)" stroke-opacity="1.0" stroke-linecap="round" stroke-linejoin="round"/>
    <path d="M 122.43132019042969 99.28536987304688 C 147.93907165527344 104.6464614868164 137.76226806640625 115.62644958496094 122.15727996826172 98.77291870117188" stroke-width="3.0" fill="none" stroke="rgb(0, 0, 0)" stroke-opacity="1.0" stroke-linecap="round" stroke-linejoin="round"/>
    <path d="M 67.23074340820312 123.05634307861328 C 56.38603591918945 109.38261413574219 63.13591384887695 111.11613464355469 59.23292541503906 115.41432189941406" stroke-width="3.0" fill="none" stroke="rgb(0, 0, 0)" stroke-opacity="1.0" stroke-linecap="round" stroke-linejoin="round"/>
    <path d="M 122.56590270996094 75.51296997070312 C 122.07568359375 44.0964469909668 116.75776672363281 59.19590759277344 121.68070220947266 37.323097229003906" stroke-width="3.0" fill="none" stroke="rgb(0, 0, 0)" stroke-opacity="1.0" stroke-linecap="round" stroke-linejoin="round"/>
    <path d="M 151.3542022705078 27.15083122253418 C 144.2439422607422 33.65334701538086 165.35362243652344 7.868288040161133 177.4326934814453 8.229334831237793" stroke-width="3.0" fill="none" stroke="rgb(0, 0, 0)" stroke-opacity="1.0" stroke-linecap="round" stroke-linejoin="round"/>
  </g>
</svg>
