<?xml version="1.0" ?>
<svg xmlns="http://www.w3.org/2000/svg" version="1.1" width="224" height="224">
  <defs/>
  <g>
    <path d="M 64.08222198486328 76.92561340332031 C 64.77220916748047 79.84223175048828 67.44955444335938 83.30401611328125 59.915679931640625 71.0023422241211" stroke-width="3.0" fill="none" stroke="rgb(0, 0, 0)" stroke-opacity="1.0" stroke-linecap="round" stroke-linejoin="round"/>
    <path d="M 183.4159698486328 123.36481475830078 C 176.35787963867188 115.98506927490234 197.98329162597656 93.86752319335938 176.0579833984375 127.88611602783203" stroke-width="3.0" fill="none" stroke="rgb(0, 0, 0)" stroke-opacity="1.0" stroke-linecap="round" stroke-linejoin="round"/>
    <path d="M 63.64753723144531 123.89218139648438 C 56.99848937988281 97.21894073486328 58.965145111083984 126.96732330322266 69.28778076171875 132.2754669189453" stroke-width="3.0" fill="none" stroke="rgb(0, 0, 0)" stroke-opacity="1.0" stroke-linecap="round" stroke-linejoin="round"/>
    <path d="M 185.0557861328125 100.44617462158203 C 148.474853515625 87.8038330078125 174.19129943847656 80.42227172851562 196.65196228027344 112.90937042236328" stroke-width="3.0" fill="none" stroke="rgb(0, 0, 0)" stroke-opacity="1.0" stroke-linecap="round" stroke-linejoin="round"/>
    <path d="M 183.4646759033203 63.091976165771484 C 175.51893615722656 114.81928253173828 185.07815551757812 103.05879211425781 182.33287048339844 70.42167663574219" stroke-width="3.0" fill="none" stroke="rgb(0, 0, 0)" stroke-opacity="1.0" stroke-linecap="round" stroke-linejoin="round"/>
    <path d="M 120.96774291992188 104.21435546875 C 147.8888397216797 116.3742904663086 110.12216186523438 93.51893615722656 136.756591796875 104.49217224121094" stroke-width="3.0" fill="none" stroke="rgb(0, 0, 0)" stroke-opacity="1.0" stroke-linecap="round" stroke-linejoin="round"/>
    <path d="M 168.49755859375 97.72537994384766 C 188.51202392578125 87.84002685546875 178.58126831054688 74.74504089355469 156.3546600341797 87.1863021850586" stroke-width="3.0" fill="none" stroke="rgb(0, 0, 0)" stroke-opacity="1.0" stroke-linecap="round" stroke-linejoin="round"/>
    <path d="M 58.04091262817383 184.35464477539062 C 36.85879898071289 156.3665008544922 47.06881332397461 166.07647705078125 50.09481430053711 174.70755004882812" stroke-width="3.0" fill="none" stroke="rgb(0, 0, 0)" stroke-opacity="1.0" stroke-linecap="round" stroke-linejoin="round"/>
    <path d="M 57.805301666259766 183.0791015625 C 97.25242614746094 211.3207550048828 111.73231506347656 197.13694763183594 131.28919982910156 179.62806701660156" stroke-width="3.0" fill="none" stroke="rgb(0, 0, 0)" stroke-opacity="1.0" stroke-linecap="round" stroke-linejoin="round"/>
    <path d="M 85.74535369873047 34.636207580566406 C 98.21471405029297 76.06965637207031 81.06310272216797 10.733968734741211 83.3254623413086 60.94857406616211" stroke-width="3.0" fill="none" stroke="rgb(0, 0, 0)" stroke-opacity="1.0" stroke-linecap="round" stroke-linejoin="round"/>
    <path d="M 57.40396499633789 104.48668670654297 C 65.45673370361328 134.7671356201172 98.46015167236328 157.45755004882812 94.33401489257812 151.65370178222656" stroke-width="3.0" fill="none" stroke="rgb(0, 0, 0)" stroke-opacity="1.0" stroke-linecap="round" stroke-linejoin="round"/>
    <path d="M 145.6778564453125 72.22897338867188 C 204.53041076660156 71.19773864746094 190.82513427734375 84.19511413574219 149.5711212158203 84.99771881103516" stroke-width="3.0" fill="none" stroke="rgb(0, 0, 0)" stroke-opacity="1.0" stroke-linecap="round" stroke-linejoin="round"/>
    <path d="M 150.65771484375 97.43551635742188 C 190.6889190673828 103.25997924804688 178.0968017578125 102.98640441894531 195.23666381835938 112.90821075439453" stroke-width="3.0" fill="none" stroke="rgb(0, 0, 0)" stroke-opacity="1.0" stroke-linecap="round" stroke-linejoin="round"/>
    <path d="M 123.149169921875 159.7877960205078 C 145.88009643554688 150.7683563232422 123.71354675292969 154.67041015625 110.17699432373047 155.4636993408203" stroke-width="3.0" fill="none" stroke="rgb(0, 0, 0)" stroke-opacity="1.0" stroke-linecap="round" stroke-linejoin="round"/>
    <path d="M 177.42535400390625 8.500689506530762 C 187.45928955078125 23.949628829956055 173.3463897705078 59.799644470214844 178.26185607910156 50.05017852783203" stroke-width="3.0" fill="none" stroke="rgb(0, 0, 0)" stroke-opacity="1.0" stroke-linecap="round" stroke-linejoin="round"/>
    <path d="M 129.35665893554688 30.521018981933594 C 122.8464126586914 56.18328857421875 131.89447021484375 35.84617614746094 123.97412872314453 72.44766235351562" stroke-width="3.0" fill="none" stroke="rgb(0, 0, 0)" stroke-opacity="1.0" stroke-linecap="round" stroke-linejoin="round"/>
    <path d="M 87.6200942993164 54.643394470214844 C 76.73089599609375 -8.699524879455566 83.7416000366211 -0.842413604259491 107.02335357666016 37.98823547363281" stroke-width="3.0" fill="none" stroke="rgb(0, 0, 0)" stroke-opacity="1.0" stroke-linecap="round" stroke-linejoin="round"/>
    <path d="M 46.22167205810547 167.8394317626953 C 41.03956985473633 153.4611053466797 38.10142517089844 144.73951721191406 46.23893737792969 168.09219360351562" stroke-width="3.0" fill="none" stroke="rgb(0, 0, 0)" stroke-opacity="1.0" stroke-linecap="round" stroke-linejoin="round"/>
    <path d="M 34.93941116333008 99.97843933105469 C 21.73386573791504 125.36573791503906 37.988739013671875 147.29425048828125 40.8661994934082 155.99180603027344" stroke-width="3.0" fill="none" stroke="rgb(0, 0, 0)" stroke-opacity="1.0" stroke-linecap="round" stroke-linejoin="round"/>
    <path d="M 86.67333221435547 149.18972778320312 C 109.5434799194336 160.44236755371094 108.17927551269531 165.21681213378906 103.3141860961914 152.95901489257812" stroke-width="3.0" fill="none" stroke="rgb(0, 0, 0)" stroke-opacity="1.0" stroke-linecap="round" stroke-linejoin="round"/>
    <path d="M 84.0407943725586 197.53582763671875 C 68.31336212158203 199.2838592529297 48.94553756713867 178.85618591308594 48.47819137573242 170.82310485839844" stroke-width="3.0" fill="none" stroke="rgb(0, 0, 0)" stroke-opacity="1.0" stroke-linecap="round" stroke-linejoin="round"/>
    <path d="M 45.48438262939453 167.29763793945312 C 62.78761672973633 191.19454956054688 43.2664680480957 165.80918884277344 38.988059997558594 152.25311279296875" stroke-width="3.0" fill="none" stroke="rgb(0, 0, 0)" stroke-opacity="1.0" stroke-linecap="round" stroke-linejoin="round"/>
    <path d="M 78.6160659790039 55.035545349121094 C 63.51417541503906 59.33633804321289 46.728240966796875 72.39215850830078 32.390560150146484 105.06558227539062" stroke-width="3.0" fill="none" stroke="rgb(0, 0, 0)" stroke-opacity="1.0" stroke-linecap="round" stroke-linejoin="round"/>
    <path d="M 150.11746215820312 142.02391052246094 C 125.94435119628906 160.71701049804688 117.43766021728516 154.42787170410156 132.49099731445312 157.6974334716797" stroke-width="3.0" fill="none" stroke="rgb(0, 0, 0)" stroke-opacity="1.0" stroke-linecap="round" stroke-linejoin="round"/>
    <path d="M 141.35655212402344 32.055198669433594 C 148.56573486328125 59.357933044433594 135.32496643066406 53.24124526977539 136.40550231933594 79.59075164794922" stroke-width="3.0" fill="none" stroke="rgb(0, 0, 0)" stroke-opacity="1.0" stroke-linecap="round" stroke-linejoin="round"/>
    <path d="M 147.117431640625 101.72167205810547 C 122.29457092285156 112.81752014160156 136.2977294921875 108.8616714477539 121.89611053466797 106.8902359008789" stroke-width="3.0" fill="none" stroke="rgb(0, 0, 0)" stroke-opacity="1.0" stroke-linecap="round" stroke-linejoin="round"/>
    <path d="M 134.89920043945312 75.9102783203125 C 143.53184509277344 55.68912124633789 130.82191467285156 60.80594253540039 135.25991821289062 75.89801025390625" stroke-width="3.0" fill="none" stroke="rgb(0, 0, 0)" stroke-opacity="1.0" stroke-linecap="round" stroke-linejoin="round"/>
    <path d="M 130.95291137695312 178.5985107421875 C 125.32638549804688 182.08355712890625 137.9550323486328 179.01300048828125 147.02847290039062 146.38034057617188" stroke-width="3.0" fill="none" stroke="rgb(0, 0, 0)" stroke-opacity="1.0" stroke-linecap="round" stroke-linejoin="round"/>
    <path d="M 194.6685333251953 95.2464370727539 C 161.234375 74.66014099121094 150.9445037841797 83.5378646850586 184.079833984375 92.13341522216797" stroke-width="3.0" fill="none" stroke="rgb(0, 0, 0)" stroke-opacity="1.0" stroke-linecap="round" stroke-linejoin="round"/>
    <path d="M 146.36663818359375 75.15426635742188 C 161.1463623046875 61.3983039855957 194.5294952392578 90.47974395751953 180.29061889648438 66.98770904541016" stroke-width="3.0" fill="none" stroke="rgb(0, 0, 0)" stroke-opacity="1.0" stroke-linecap="round" stroke-linejoin="round"/>
    <path d="M 116.33413696289062 81.17593383789062 C 82.1298828125 72.38548278808594 136.76864624023438 75.5227279663086 109.68583679199219 80.66574096679688" stroke-width="3.0" fill="none" stroke="rgb(0, 0, 0)" stroke-opacity="1.0" stroke-linecap="round" stroke-linejoin="round"/>
    <path d="M 157.94610595703125 136.7559814453125 C 130.6151580810547 168.61215209960938 122.8517074584961 150.32644653320312 106.72196197509766 157.4769744873047" stroke-width="3.0" fill="none" stroke="rgb(0, 0, 0)" stroke-opacity="1.0" stroke-linecap="round" stroke-linejoin="round"/>
    <path d="M 125.9302978515625 89.76774597167969 C 142.18704223632812 102.59757232666016 134.98011779785156 70.025146484375 129.43150329589844 107.6936264038086" stroke-width="3.0" fill="none" stroke="rgb(0, 0, 0)" stroke-opacity="1.0" stroke-linecap="round" stroke-linejoin="round"/>
    <path d="M 187.43341064453125 112.66345977783203 C 176.5313720703125 83.45613861083984 185.0301513671875 95.28569793701172 140.1537322998047 82.22389221191406" stroke-width="3.0" fill="none" stroke="rgb(0, 0, 0)" stroke-opacity="1.0" stroke-linecap="round" stroke-linejoin="round"/>
    <path d="M 84.6988525390625 7.6056952476501465 C 105.30034637451172 10.357625007629395 118.80268096923828 37.975162506103516 120.12334442138672 30.430789947509766" stroke-width="3.0" fill="none" stroke="rgb(0, 0, 0)" stroke-opacity="1.0" stroke-linecap="round" stroke-linejoin="round"/>
    <path d="M 65.30467224121094 125.26099395751953 C 65.04448699951172 110.85508728027344 68.79912567138672 129.20321655273438 65.95620727539062 123.37711334228516" stroke-width="3.0" fill="none" stroke="rgb(0, 0, 0)" stroke-opacity="1.0" stroke-linecap="round" stroke-linejoin="round"/>
    <path d="M 136.33486938476562 104.37452697753906 C 123.93494415283203 93.19194030761719 115.02558898925781 118.56844329833984 117.87417602539062 87.79751586914062" stroke-width="3.0" fill="none" stroke="rgb(0, 0, 0)" stroke-opacity="1.0" stroke-linecap="round" stroke-linejoin="round"/>
    <path d="M 31.475303649902344 132.55233764648438 C 25.998483657836914 100.8081283569336 39.50810241699219 102.52714538574219 46.038299560546875 80.55591583251953" stroke-width="3.0" fill="none" stroke="rgb(0, 0, 0)" stroke-opacity="1.0" stroke-linecap="round" stroke-linejoin="round"/>
    <path d="M 78.07549285888672 194.76622009277344 C 70.81468200683594 194.79293823242188 67.40193939208984 193.62425231933594 93.31989288330078 199.29183959960938" stroke-width="3.0" fill="none" stroke="rgb(0, 0, 0)" stroke-opacity="1.0" stroke-linecap="round" stroke-linejoin="round"/>
    <path d="M 158.3841094970703 133.3624267578125 C 204.38780212402344 118.66822052001953 177.77365112304688 98.36002349853516 155.78858947753906 93.4637222290039" stroke-width="3.0" fill="none" stroke="rgb(0, 0, 0)" stroke-opacity="1.0" stroke-linecap="round" stroke-linejoin="round"/>
    <path d="M 157.51100158691406 71.39456176757812 C 132.5127716064453 84.42491912841797 172.3753204345703 80.94695281982422 147.70404052734375 69.33177185058594" stroke-width="3.0" fill="none" stroke="rgb(0, 0, 0)" stroke-opacity="1.0" stroke-linecap="round" stroke-linejoin="round"/>
    <path d="M 141.11883544921875 77.8471450805664 C 147.76119995117188 42.013938903808594 195.36512756347656 114.24615478515625 178.8771514892578 47.18321228027344" stroke-width="3.0" fill="none" stroke="rgb(0, 0, 0)" stroke-opacity="1.0" stroke-linecap="round" stroke-linejoin="round"/>
    <path d="M 156.7547149658203 99.87945556640625 C 168.57705688476562 108.61128234863281 172.6005096435547 100.89222717285156 183.20213317871094 116.92089080810547" stroke-width="3.0" fill="none" stroke="rgb(0, 0, 0)" stroke-opacity="1.0" stroke-linecap="round" stroke-linejoin="round"/>
    <path d="M 175.5652313232422 15.161042213439941 C 166.39215087890625 42.91123580932617 173.40147399902344 23.344026565551758 160.12803649902344 37.48868942260742" stroke-width="3.0" fill="none" stroke="rgb(0, 0, 0)" stroke-opacity="1.0" stroke-linecap="round" stroke-linejoin="round"/>
    <path d="M 119.58655548095703 104.07998657226562 C 143.6330108642578 100.6756362915039 132.21136474609375 115.10259246826172 119.74696350097656 102.30125427246094" stroke-width="3.0" fill="none" stroke="rgb(0, 0, 0)" stroke-opacity="1.0" stroke-linecap="round" stroke-linejoin="round"/>
    <path d="M 80.51207733154297 136.58029174804688 C 52.841304779052734 120.14969635009766 61.63035202026367 113.0932846069336 60.73865509033203 121.00240325927734" stroke-width="3.0" fill="none" stroke="rgb(0, 0, 0)" stroke-opacity="1.0" stroke-linecap="round" stroke-linejoin="round"/>
    <path d="M 121.21629333496094 73.93606567382812 C 122.81131744384766 41.108821868896484 116.08829498291016 57.35985565185547 119.10184478759766 33.44477081298828" stroke-width="3.0" fill="none" stroke="rgb(0, 0, 0)" stroke-opacity="1.0" stroke-linecap="round" stroke-linejoin="round"/>
    <path d="M 152.98968505859375 28.791481018066406 C 147.85723876953125 39.25105285644531 159.70547485351562 11.199028968811035 177.97976684570312 9.47002124786377" stroke-width="3.0" fill="none" stroke="rgb(0, 0, 0)" stroke-opacity="1.0" stroke-linecap="round" stroke-linejoin="round"/>
  </g>
</svg>
