<?xml version="1.0" ?>
<svg xmlns="http://www.w3.org/2000/svg" version="1.1" width="224" height="224">
  <defs/>
  <g>
    <path d="M 67.15919494628906 79.51457214355469 C 65.72434997558594 76.99140167236328 68.95989990234375 82.08680725097656 62.475582122802734 69.6376953125" stroke-width="3.0" fill="none" stroke="rgb(0, 0, 0)" stroke-opacity="1.0" stroke-linecap="round" stroke-linejoin="round"/>
    <path d="M 184.6849822998047 121.0517349243164 C 174.43028259277344 111.2569808959961 201.6197967529297 97.04789733886719 175.48472595214844 127.50723266601562" stroke-width="3.0" fill="none" stroke="rgb(0, 0, 0)" stroke-opacity="1.0" stroke-linecap="round" stroke-linejoin="round"/>
    <path d="M 61.26082992553711 129.41192626953125 C 62.660526275634766 108.34449768066406 56.78992462158203 124.80719757080078 69.6865005493164 126.91553497314453" stroke-width="3.0" fill="none" stroke="rgb(0, 0, 0)" stroke-opacity="1.0" stroke-linecap="round" stroke-linejoin="round"/>
    <path d="M 184.36489868164062 98.64464569091797 C 147.13230895996094 87.2292709350586 174.15235900878906 75.57217407226562 193.60751342773438 110.91023254394531" stroke-width="3.0" fill="none" stroke="rgb(0, 0, 0)" stroke-opacity="1.0" stroke-linecap="round" stroke-linejoin="round"/>
    <path d="M 181.91282653808594 65.68962097167969 C 186.09381103515625 119.1066665649414 179.7012939453125 106.7268295288086 178.9054718017578 73.36212158203125" stroke-width="3.0" fill="none" stroke="rgb(0, 0, 0)" stroke-opacity="1.0" stroke-linecap="round" stroke-linejoin="round"/>
    <path d="M 120.97044372558594 103.27769470214844 C 146.5225372314453 116.5511474609375 113.14793395996094 92.94239807128906 137.10911560058594 103.6279525756836" stroke-width="3.0" fill="none" stroke="rgb(0, 0, 0)" stroke-opacity="1.0" stroke-linecap="round" stroke-linejoin="round"/>
    <path d="M 171.3046875 94.18364715576172 C 192.8507080078125 88.20165252685547 177.84713745117188 69.74574279785156 154.24172973632812 84.15958404541016" stroke-width="3.0" fill="none" stroke="rgb(0, 0, 0)" stroke-opacity="1.0" stroke-linecap="round" stroke-linejoin="round"/>
    <path d="M 57.48550796508789 185.1456298828125 C 37.53120803833008 156.30126953125 46.09621047973633 168.13572692871094 49.7976188659668 173.52537536621094" stroke-width="3.0" fill="none" stroke="rgb(0, 0, 0)" stroke-opacity="1.0" stroke-linecap="round" stroke-linejoin="round"/>
    <path d="M 55.62937927246094 181.46923828125 C 89.54999542236328 211.31593322753906 117.73246002197266 196.95510864257812 130.5257568359375 180.8599395751953" stroke-width="3.0" fill="none" stroke="rgb(0, 0, 0)" stroke-opacity="1.0" stroke-linecap="round" stroke-linejoin="round"/>
    <path d="M 85.37237548828125 29.84726333618164 C 99.42782592773438 74.59139251708984 87.24457550048828 8.539926528930664 84.48613739013672 59.89615249633789" stroke-width="3.0" fill="none" stroke="rgb(0, 0, 0)" stroke-opacity="1.0" stroke-linecap="round" stroke-linejoin="round"/>
    <path d="M 51.72938919067383 102.93122100830078 C 63.55522537231445 137.6996307373047 97.2413558959961 158.8599395751953 90.82894134521484 151.5324249267578" stroke-width="3.0" fill="none" stroke="rgb(0, 0, 0)" stroke-opacity="1.0" stroke-linecap="round" stroke-linejoin="round"/>
    <path d="M 145.7768096923828 69.68264770507812 C 204.4683837890625 66.91574096679688 189.465576171875 82.83382415771484 143.52493286132812 83.39234161376953" stroke-width="3.0" fill="none" stroke="rgb(0, 0, 0)" stroke-opacity="1.0" stroke-linecap="round" stroke-linejoin="round"/>
    <path d="M 151.38153076171875 96.0382080078125 C 193.11550903320312 105.44243621826172 175.38653564453125 110.85369110107422 196.08433532714844 113.73234558105469" stroke-width="3.0" fill="none" stroke="rgb(0, 0, 0)" stroke-opacity="1.0" stroke-linecap="round" stroke-linejoin="round"/>
    <path d="M 129.6300811767578 157.70867919921875 C 145.15982055664062 146.91656494140625 124.62185668945312 157.40342712402344 107.96321868896484 154.47752380371094" stroke-width="3.0" fill="none" stroke="rgb(0, 0, 0)" stroke-opacity="1.0" stroke-linecap="round" stroke-linejoin="round"/>
    <path d="M 178.56736755371094 8.20926284790039 C 186.9541473388672 23.846284866333008 175.530517578125 64.05947875976562 178.7953643798828 50.58956527709961" stroke-width="3.0" fill="none" stroke="rgb(0, 0, 0)" stroke-opacity="1.0" stroke-linecap="round" stroke-linejoin="round"/>
    <path d="M 131.0154571533203 31.471277236938477 C 123.547607421875 57.534446716308594 132.72869873046875 35.743770599365234 124.1347885131836 71.39998626708984" stroke-width="3.0" fill="none" stroke="rgb(0, 0, 0)" stroke-opacity="1.0" stroke-linecap="round" stroke-linejoin="round"/>
    <path d="M 90.0367660522461 55.58182144165039 C 78.49898529052734 -9.148645401000977 84.66768646240234 -1.384984016418457 108.67497253417969 44.23899841308594" stroke-width="3.0" fill="none" stroke="rgb(0, 0, 0)" stroke-opacity="1.0" stroke-linecap="round" stroke-linejoin="round"/>
    <path d="M 46.490787506103516 170.28610229492188 C 41.798892974853516 151.37631225585938 37.706790924072266 143.58726501464844 45.12894821166992 165.96656799316406" stroke-width="3.0" fill="none" stroke="rgb(0, 0, 0)" stroke-opacity="1.0" stroke-linecap="round" stroke-linejoin="round"/>
    <path d="M 36.00188446044922 97.06283569335938 C 21.274341583251953 129.09976196289062 39.94462966918945 146.13575744628906 41.47336196899414 156.75929260253906" stroke-width="3.0" fill="none" stroke="rgb(0, 0, 0)" stroke-opacity="1.0" stroke-linecap="round" stroke-linejoin="round"/>
    <path d="M 85.90497589111328 148.3287353515625 C 109.4478988647461 159.55125427246094 106.22142028808594 160.45249938964844 101.83995056152344 153.3394775390625" stroke-width="3.0" fill="none" stroke="rgb(0, 0, 0)" stroke-opacity="1.0" stroke-linecap="round" stroke-linejoin="round"/>
    <path d="M 82.62075805664062 196.82054138183594 C 69.64797973632812 201.3780975341797 49.73862838745117 177.36489868164062 48.04058074951172 171.87899780273438" stroke-width="3.0" fill="none" stroke="rgb(0, 0, 0)" stroke-opacity="1.0" stroke-linecap="round" stroke-linejoin="round"/>
    <path d="M 48.65568923950195 172.15988159179688 C 63.09870147705078 191.26966857910156 44.52690887451172 165.05740356445312 39.885189056396484 150.9708709716797" stroke-width="3.0" fill="none" stroke="rgb(0, 0, 0)" stroke-opacity="1.0" stroke-linecap="round" stroke-linejoin="round"/>
    <path d="M 79.34123229980469 53.862518310546875 C 63.6602783203125 61.51576614379883 44.94424057006836 70.87252807617188 32.12371063232422 106.69100952148438" stroke-width="3.0" fill="none" stroke="rgb(0, 0, 0)" stroke-opacity="1.0" stroke-linecap="round" stroke-linejoin="round"/>
    <path d="M 153.1425323486328 139.89161682128906 C 122.6285629272461 158.8879852294922 116.06217193603516 152.9882049560547 130.74447631835938 156.02688598632812" stroke-width="3.0" fill="none" stroke="rgb(0, 0, 0)" stroke-opacity="1.0" stroke-linecap="round" stroke-linejoin="round"/>
    <path d="M 144.2080078125 29.355554580688477 C 149.9141387939453 52.44602966308594 139.37266540527344 46.687889099121094 136.7760772705078 78.91092681884766" stroke-width="3.0" fill="none" stroke="rgb(0, 0, 0)" stroke-opacity="1.0" stroke-linecap="round" stroke-linejoin="round"/>
    <path d="M 145.86012268066406 98.45879364013672 C 128.36785888671875 108.35238647460938 132.76190185546875 112.29631042480469 118.0201416015625 103.817138671875" stroke-width="3.0" fill="none" stroke="rgb(0, 0, 0)" stroke-opacity="1.0" stroke-linecap="round" stroke-linejoin="round"/>
    <path d="M 138.3146514892578 74.27859497070312 C 149.1671600341797 55.707096099853516 129.74832153320312 58.643218994140625 136.19618225097656 77.25912475585938" stroke-width="3.0" fill="none" stroke="rgb(0, 0, 0)" stroke-opacity="1.0" stroke-linecap="round" stroke-linejoin="round"/>
    <path d="M 133.04408264160156 178.7243194580078 C 128.20767211914062 183.03158569335938 135.51544189453125 179.0322265625 144.71656799316406 146.37283325195312" stroke-width="3.0" fill="none" stroke="rgb(0, 0, 0)" stroke-opacity="1.0" stroke-linecap="round" stroke-linejoin="round"/>
    <path d="M 193.06549072265625 97.63146209716797 C 166.78907775878906 71.6428451538086 159.20713806152344 82.08683013916016 187.86656188964844 91.42485809326172" stroke-width="3.0" fill="none" stroke="rgb(0, 0, 0)" stroke-opacity="1.0" stroke-linecap="round" stroke-linejoin="round"/>
    <path d="M 147.83572387695312 74.81642150878906 C 147.73272705078125 56.72481918334961 195.2606201171875 91.76171875 180.85415649414062 66.20173645019531" stroke-width="3.0" fill="none" stroke="rgb(0, 0, 0)" stroke-opacity="1.0" stroke-linecap="round" stroke-linejoin="round"/>
    <path d="M 108.6117935180664 79.07746124267578 C 79.40369415283203 75.10516357421875 148.4430694580078 74.89503479003906 105.60942840576172 83.8416748046875" stroke-width="3.0" fill="none" stroke="rgb(0, 0, 0)" stroke-opacity="1.0" stroke-linecap="round" stroke-linejoin="round"/>
    <path d="M 160.08517456054688 131.60626220703125 C 127.80065155029297 165.53501892089844 124.15081024169922 153.01219177246094 105.07240295410156 157.18994140625" stroke-width="3.0" fill="none" stroke="rgb(0, 0, 0)" stroke-opacity="1.0" stroke-linecap="round" stroke-linejoin="round"/>
    <path d="M 122.58242797851562 88.79408264160156 C 141.1078643798828 102.16647338867188 129.8989715576172 68.976318359375 127.79279327392578 106.77243041992188" stroke-width="3.0" fill="none" stroke="rgb(0, 0, 0)" stroke-opacity="1.0" stroke-linecap="round" stroke-linejoin="round"/>
    <path d="M 188.75621032714844 110.27207946777344 C 175.73114013671875 88.21403503417969 185.34921264648438 94.17784881591797 140.17083740234375 83.02619171142578" stroke-width="3.0" fill="none" stroke="rgb(0, 0, 0)" stroke-opacity="1.0" stroke-linecap="round" stroke-linejoin="round"/>
    <path d="M 89.65242767333984 9.105672836303711 C 104.16876983642578 12.779054641723633 116.06163024902344 37.46776580810547 122.41815948486328 29.90056610107422" stroke-width="3.0" fill="none" stroke="rgb(0, 0, 0)" stroke-opacity="1.0" stroke-linecap="round" stroke-linejoin="round"/>
    <path d="M 61.44806671142578 119.49414825439453 C 61.81394577026367 112.80665588378906 62.01957702636719 128.81829833984375 62.990516662597656 123.11515808105469" stroke-width="3.0" fill="none" stroke="rgb(0, 0, 0)" stroke-opacity="1.0" stroke-linecap="round" stroke-linejoin="round"/>
    <path d="M 136.64759826660156 102.26044464111328 C 120.42451477050781 92.99632263183594 118.62210083007812 116.06608581542969 108.55181121826172 90.49229431152344" stroke-width="3.0" fill="none" stroke="rgb(0, 0, 0)" stroke-opacity="1.0" stroke-linecap="round" stroke-linejoin="round"/>
    <path d="M 31.131061553955078 133.65872192382812 C 25.216772079467773 97.37342071533203 42.95332336425781 102.81458282470703 51.15810012817383 74.49358367919922" stroke-width="3.0" fill="none" stroke="rgb(0, 0, 0)" stroke-opacity="1.0" stroke-linecap="round" stroke-linejoin="round"/>
    <path d="M 78.28294372558594 195.11199951171875 C 69.96624755859375 196.16375732421875 66.32171630859375 193.4191131591797 98.84191131591797 198.77223205566406" stroke-width="3.0" fill="none" stroke="rgb(0, 0, 0)" stroke-opacity="1.0" stroke-linecap="round" stroke-linejoin="round"/>
    <path d="M 158.19593811035156 132.07321166992188 C 201.43467712402344 123.49237060546875 177.7086639404297 94.535400390625 156.08384704589844 91.78791809082031" stroke-width="3.0" fill="none" stroke="rgb(0, 0, 0)" stroke-opacity="1.0" stroke-linecap="round" stroke-linejoin="round"/>
    <path d="M 157.2143096923828 69.97996520996094 C 131.50392150878906 83.95023345947266 170.96597290039062 77.28289794921875 148.02725219726562 71.42221069335938" stroke-width="3.0" fill="none" stroke="rgb(0, 0, 0)" stroke-opacity="1.0" stroke-linecap="round" stroke-linejoin="round"/>
    <path d="M 142.47235107421875 76.75403594970703 C 149.40127563476562 44.8171501159668 197.4967803955078 111.14825439453125 178.51853942871094 45.589881896972656" stroke-width="3.0" fill="none" stroke="rgb(0, 0, 0)" stroke-opacity="1.0" stroke-linecap="round" stroke-linejoin="round"/>
    <path d="M 159.03102111816406 98.7627182006836 C 168.86904907226562 107.73396301269531 170.27529907226562 102.43218994140625 182.23878479003906 124.57910919189453" stroke-width="3.0" fill="none" stroke="rgb(0, 0, 0)" stroke-opacity="1.0" stroke-linecap="round" stroke-linejoin="round"/>
    <path d="M 176.76905822753906 16.501319885253906 C 169.80462646484375 42.93665313720703 175.37669372558594 18.516353607177734 160.00498962402344 38.82524871826172" stroke-width="3.0" fill="none" stroke="rgb(0, 0, 0)" stroke-opacity="1.0" stroke-linecap="round" stroke-linejoin="round"/>
    <path d="M 119.88002014160156 103.99560546875 C 144.8374786376953 103.29900360107422 137.46107482910156 110.1687240600586 119.91836547851562 103.38478088378906" stroke-width="3.0" fill="none" stroke="rgb(0, 0, 0)" stroke-opacity="1.0" stroke-linecap="round" stroke-linejoin="round"/>
    <path d="M 73.79375457763672 136.53306579589844 C 53.44080352783203 127.4826889038086 65.31948852539062 112.37930297851562 62.23334503173828 121.40713500976562" stroke-width="3.0" fill="none" stroke="rgb(0, 0, 0)" stroke-opacity="1.0" stroke-linecap="round" stroke-linejoin="round"/>
    <path d="M 124.43096923828125 74.39020538330078 C 124.65030670166016 39.84333038330078 115.4880142211914 57.952110290527344 117.11930084228516 37.2475700378418" stroke-width="3.0" fill="none" stroke="rgb(0, 0, 0)" stroke-opacity="1.0" stroke-linecap="round" stroke-linejoin="round"/>
    <path d="M 152.76475524902344 26.092178344726562 C 146.79600524902344 37.176849365234375 160.61807250976562 7.944001197814941 178.76589965820312 8.92426872253418" stroke-width="3.0" fill="none" stroke="rgb(0, 0, 0)" stroke-opacity="1.0" stroke-linecap="round" stroke-linejoin="round"/>
  </g>
</svg>
