<?xml version="1.0" ?>
<svg xmlns="http://www.w3.org/2000/svg" version="1.1" width="224" height="224">
  <defs/>
  <g>
    <path d="M 58.728721618652344 97.98179626464844 C 66.32025146484375 94.66985321044922 53.87767791748047 90.64389038085938 55.79701232910156 69.4007797241211" stroke-width="3.0" fill="none" stroke="rgb(0, 0, 0)" stroke-opacity="1.0" stroke-linecap="round" stroke-linejoin="round"/>
    <path d="M 191.744384765625 112.12772369384766 C 184.42117309570312 112.85034942626953 194.0389404296875 86.04724884033203 185.09619140625 122.81289672851562" stroke-width="3.0" fill="none" stroke="rgb(0, 0, 0)" stroke-opacity="1.0" stroke-linecap="round" stroke-linejoin="round"/>
    <path d="M 62.11125946044922 117.2959976196289 C 61.838279724121094 86.28297424316406 59.23625183105469 131.6034393310547 66.31175231933594 127.76309204101562" stroke-width="3.0" fill="none" stroke="rgb(0, 0, 0)" stroke-opacity="1.0" stroke-linecap="round" stroke-linejoin="round"/>
    <path d="M 188.4148406982422 92.97891998291016 C 151.74412536621094 71.3855972290039 185.46249389648438 77.5317611694336 186.91387939453125 101.64154052734375" stroke-width="3.0" fill="none" stroke="rgb(0, 0, 0)" stroke-opacity="1.0" stroke-linecap="round" stroke-linejoin="round"/>
    <path d="M 177.96820068359375 54.96044921875 C 192.2073974609375 90.8187255859375 180.1619415283203 93.12650299072266 180.8660888671875 69.72388458251953" stroke-width="3.0" fill="none" stroke="rgb(0, 0, 0)" stroke-opacity="1.0" stroke-linecap="round" stroke-linejoin="round"/>
    <path d="M 130.26234436035156 100.5286865234375 C 153.95230102539062 117.18270874023438 95.68721771240234 104.70964813232422 133.9561004638672 104.48920440673828" stroke-width="3.0" fill="none" stroke="rgb(0, 0, 0)" stroke-opacity="1.0" stroke-linecap="round" stroke-linejoin="round"/>
    <path d="M 178.40879821777344 88.70710754394531 C 179.9176483154297 74.2468032836914 196.6490478515625 73.95598602294922 149.54296875 86.37081146240234" stroke-width="3.0" fill="none" stroke="rgb(0, 0, 0)" stroke-opacity="1.0" stroke-linecap="round" stroke-linejoin="round"/>
    <path d="M 67.05587005615234 191.09205627441406 C 38.413028717041016 167.2548828125 50.426048278808594 170.2965545654297 50.80978012084961 175.0009765625" stroke-width="3.0" fill="none" stroke="rgb(0, 0, 0)" stroke-opacity="1.0" stroke-linecap="round" stroke-linejoin="round"/>
    <path d="M 57.77080535888672 183.95181274414062 C 88.05575561523438 211.36439514160156 128.68698120117188 196.07408142089844 135.7280731201172 167.96621704101562" stroke-width="3.0" fill="none" stroke="rgb(0, 0, 0)" stroke-opacity="1.0" stroke-linecap="round" stroke-linejoin="round"/>
    <path d="M 81.7803955078125 17.492807388305664 C 95.57439422607422 75.23444366455078 86.02655029296875 8.099285125732422 87.17994689941406 55.386940002441406" stroke-width="3.0" fill="none" stroke="rgb(0, 0, 0)" stroke-opacity="1.0" stroke-linecap="round" stroke-linejoin="round"/>
    <path d="M 58.623023986816406 84.53160095214844 C 61.48253631591797 139.35345458984375 72.98856353759766 136.00680541992188 62.609619140625 121.19973754882812" stroke-width="3.0" fill="none" stroke="rgb(0, 0, 0)" stroke-opacity="1.0" stroke-linecap="round" stroke-linejoin="round"/>
    <path d="M 149.1560821533203 72.96813201904297 C 198.86709594726562 61.15437316894531 192.54092407226562 88.21165466308594 141.15936279296875 85.58338165283203" stroke-width="3.0" fill="none" stroke="rgb(0, 0, 0)" stroke-opacity="1.0" stroke-linecap="round" stroke-linejoin="round"/>
    <path d="M 149.66030883789062 94.44597625732422 C 182.52548217773438 96.14403533935547 182.74990844726562 92.06761169433594 196.08213806152344 112.3588638305664" stroke-width="3.0" fill="none" stroke="rgb(0, 0, 0)" stroke-opacity="1.0" stroke-linecap="round" stroke-linejoin="round"/>
    <path d="M 117.41329956054688 148.0917510986328 C 156.0454864501953 155.67677307128906 102.00377655029297 147.1747283935547 105.24942016601562 154.43099975585938" stroke-width="3.0" fill="none" stroke="rgb(0, 0, 0)" stroke-opacity="1.0" stroke-linecap="round" stroke-linejoin="round"/>
    <path d="M 180.86766052246094 11.031074523925781 C 188.7560272216797 26.28461456298828 168.6606903076172 94.70805358886719 183.71067810058594 59.913482666015625" stroke-width="3.0" fill="none" stroke="rgb(0, 0, 0)" stroke-opacity="1.0" stroke-linecap="round" stroke-linejoin="round"/>
    <path d="M 139.5055389404297 33.58967590332031 C 106.53681182861328 23.39673614501953 137.73590087890625 43.078895568847656 122.27678680419922 84.54792785644531" stroke-width="3.0" fill="none" stroke="rgb(0, 0, 0)" stroke-opacity="1.0" stroke-linecap="round" stroke-linejoin="round"/>
    <path d="M 104.55023956298828 49.902587890625 C 61.70785903930664 -9.253154754638672 81.33738708496094 0.9103139638900757 120.88339233398438 30.93072509765625" stroke-width="3.0" fill="none" stroke="rgb(0, 0, 0)" stroke-opacity="1.0" stroke-linecap="round" stroke-linejoin="round"/>
    <path d="M 47.594696044921875 169.69302368164062 C 42.22136306762695 159.86378479003906 39.36142349243164 154.47207641601562 47.76273727416992 172.2489471435547" stroke-width="3.0" fill="none" stroke="rgb(0, 0, 0)" stroke-opacity="1.0" stroke-linecap="round" stroke-linejoin="round"/>
    <path d="M 49.57657241821289 76.22010040283203 C 11.004006385803223 122.99324035644531 37.27827072143555 138.50746154785156 45.7767448425293 168.45730590820312" stroke-width="3.0" fill="none" stroke="rgb(0, 0, 0)" stroke-opacity="1.0" stroke-linecap="round" stroke-linejoin="round"/>
    <path d="M 66.68975830078125 132.90907287597656 C 127.03023529052734 160.9370574951172 94.69059753417969 150.3553009033203 85.90313720703125 140.38748168945312" stroke-width="3.0" fill="none" stroke="rgb(0, 0, 0)" stroke-opacity="1.0" stroke-linecap="round" stroke-linejoin="round"/>
    <path d="M 82.73372650146484 196.96188354492188 C 68.45164489746094 202.5548095703125 46.66056823730469 176.37789916992188 46.30828857421875 167.90940856933594" stroke-width="3.0" fill="none" stroke="rgb(0, 0, 0)" stroke-opacity="1.0" stroke-linecap="round" stroke-linejoin="round"/>
    <path d="M 46.972991943359375 171.71530151367188 C 67.11524963378906 197.34007263183594 48.72052001953125 171.4736785888672 42.20379638671875 154.8394775390625" stroke-width="3.0" fill="none" stroke="rgb(0, 0, 0)" stroke-opacity="1.0" stroke-linecap="round" stroke-linejoin="round"/>
    <path d="M 82.14744567871094 52.93027114868164 C 53.51697540283203 56.9578857421875 56.145320892333984 72.60549926757812 33.942535400390625 108.05799102783203" stroke-width="3.0" fill="none" stroke="rgb(0, 0, 0)" stroke-opacity="1.0" stroke-linecap="round" stroke-linejoin="round"/>
    <path d="M 158.61459350585938 139.8974609375 C 102.45618438720703 155.71421813964844 86.97392272949219 156.64024353027344 151.77931213378906 145.1084747314453" stroke-width="3.0" fill="none" stroke="rgb(0, 0, 0)" stroke-opacity="1.0" stroke-linecap="round" stroke-linejoin="round"/>
    <path d="M 149.8765106201172 28.157882690429688 C 146.2510986328125 32.440792083740234 133.52398681640625 14.10536003112793 137.05841064453125 82.87705993652344" stroke-width="3.0" fill="none" stroke="rgb(0, 0, 0)" stroke-opacity="1.0" stroke-linecap="round" stroke-linejoin="round"/>
    <path d="M 143.53553771972656 103.60684204101562 C 124.61640930175781 112.80545806884766 118.93809509277344 106.40446472167969 108.69105529785156 95.87655639648438" stroke-width="3.0" fill="none" stroke="rgb(0, 0, 0)" stroke-opacity="1.0" stroke-linecap="round" stroke-linejoin="round"/>
    <path d="M 137.94699096679688 70.70156860351562 C 137.2794189453125 50.12077713012695 129.3078155517578 72.65947723388672 137.16688537597656 79.15828704833984" stroke-width="3.0" fill="none" stroke="rgb(0, 0, 0)" stroke-opacity="1.0" stroke-linecap="round" stroke-linejoin="round"/>
    <path d="M 140.6759033203125 163.05955505371094 C 126.25469970703125 177.29348754882812 143.81871032714844 169.40419006347656 144.81283569335938 145.20359802246094" stroke-width="3.0" fill="none" stroke="rgb(0, 0, 0)" stroke-opacity="1.0" stroke-linecap="round" stroke-linejoin="round"/>
    <path d="M 196.5895538330078 95.94468688964844 C 163.12234497070312 71.76541137695312 165.83335876464844 78.18815612792969 183.40640258789062 93.04022216796875" stroke-width="3.0" fill="none" stroke="rgb(0, 0, 0)" stroke-opacity="1.0" stroke-linecap="round" stroke-linejoin="round"/>
    <path d="M 153.70819091796875 76.03634643554688 C 131.38169860839844 53.77095031738281 200.95675659179688 93.95178985595703 181.80096435546875 61.60593795776367" stroke-width="3.0" fill="none" stroke="rgb(0, 0, 0)" stroke-opacity="1.0" stroke-linecap="round" stroke-linejoin="round"/>
    <path d="M 118.87086486816406 77.88433837890625 C 87.62852478027344 68.77608489990234 140.12513732910156 74.0175552368164 107.94087982177734 81.12772369384766" stroke-width="3.0" fill="none" stroke="rgb(0, 0, 0)" stroke-opacity="1.0" stroke-linecap="round" stroke-linejoin="round"/>
    <path d="M 170.19686889648438 130.22021484375 C 144.78219604492188 161.42257690429688 103.26753997802734 149.37149047851562 99.08656311035156 150.44085693359375" stroke-width="3.0" fill="none" stroke="rgb(0, 0, 0)" stroke-opacity="1.0" stroke-linecap="round" stroke-linejoin="round"/>
    <path d="M 125.96743774414062 90.42957305908203 C 140.25704956054688 102.95613098144531 132.20867919921875 71.97278594970703 127.35814666748047 106.3072738647461" stroke-width="3.0" fill="none" stroke="rgb(0, 0, 0)" stroke-opacity="1.0" stroke-linecap="round" stroke-linejoin="round"/>
    <path d="M 189.872802734375 107.9891357421875 C 155.64976501464844 90.67814636230469 170.9880828857422 95.86235809326172 144.38304138183594 86.36592102050781" stroke-width="3.0" fill="none" stroke="rgb(0, 0, 0)" stroke-opacity="1.0" stroke-linecap="round" stroke-linejoin="round"/>
    <path d="M 85.2784423828125 16.647411346435547 C 124.39115905761719 27.35521697998047 93.23786926269531 34.66145324707031 139.8645477294922 29.371835708618164" stroke-width="3.0" fill="none" stroke="rgb(0, 0, 0)" stroke-opacity="1.0" stroke-linecap="round" stroke-linejoin="round"/>
    <path d="M 64.78260040283203 117.1636962890625 C 65.50347137451172 108.20962524414062 61.1463623046875 121.01499938964844 68.37488555908203 127.60346984863281" stroke-width="3.0" fill="none" stroke="rgb(0, 0, 0)" stroke-opacity="1.0" stroke-linecap="round" stroke-linejoin="round"/>
    <path d="M 136.8228302001953 105.1535415649414 C 117.72675323486328 92.4411392211914 118.88333892822266 123.19342041015625 106.09728240966797 89.2625503540039" stroke-width="3.0" fill="none" stroke="rgb(0, 0, 0)" stroke-opacity="1.0" stroke-linecap="round" stroke-linejoin="round"/>
    <path d="M 32.4398307800293 133.78884887695312 C 28.009498596191406 121.8955078125 34.71458435058594 86.2440185546875 59.51448059082031 64.3597640991211" stroke-width="3.0" fill="none" stroke="rgb(0, 0, 0)" stroke-opacity="1.0" stroke-linecap="round" stroke-linejoin="round"/>
    <path d="M 107.43731689453125 196.55026245117188 C 70.45977783203125 204.51739501953125 73.58930206298828 197.26747131347656 104.65284729003906 198.87701416015625" stroke-width="3.0" fill="none" stroke="rgb(0, 0, 0)" stroke-opacity="1.0" stroke-linecap="round" stroke-linejoin="round"/>
    <path d="M 169.86573791503906 127.13634490966797 C 206.68496704101562 115.52762603759766 187.39320373535156 90.11626434326172 156.37353515625 85.70035552978516" stroke-width="3.0" fill="none" stroke="rgb(0, 0, 0)" stroke-opacity="1.0" stroke-linecap="round" stroke-linejoin="round"/>
    <path d="M 149.98350524902344 66.49873352050781 C 134.93869018554688 84.77784729003906 175.60691833496094 73.70407104492188 148.4329071044922 69.15283203125" stroke-width="3.0" fill="none" stroke="rgb(0, 0, 0)" stroke-opacity="1.0" stroke-linecap="round" stroke-linejoin="round"/>
    <path d="M 141.1995391845703 76.8721694946289 C 147.8189697265625 37.96348571777344 192.65609741210938 111.87161254882812 178.90011596679688 42.29292678833008" stroke-width="3.0" fill="none" stroke="rgb(0, 0, 0)" stroke-opacity="1.0" stroke-linecap="round" stroke-linejoin="round"/>
    <path d="M 145.47592163085938 98.447998046875 C 169.21055603027344 106.10580444335938 175.11056518554688 99.64541625976562 185.4412384033203 114.9198989868164" stroke-width="3.0" fill="none" stroke="rgb(0, 0, 0)" stroke-opacity="1.0" stroke-linecap="round" stroke-linejoin="round"/>
    <path d="M 177.6602020263672 17.9753475189209 C 172.8042755126953 48.29952621459961 167.13121032714844 29.57686996459961 152.6842498779297 36.578407287597656" stroke-width="3.0" fill="none" stroke="rgb(0, 0, 0)" stroke-opacity="1.0" stroke-linecap="round" stroke-linejoin="round"/>
    <path d="M 120.6516342163086 104.68075561523438 C 143.75509643554688 104.7256851196289 131.16920471191406 116.20668029785156 119.63619995117188 106.08242797851562" stroke-width="3.0" fill="none" stroke="rgb(0, 0, 0)" stroke-opacity="1.0" stroke-linecap="round" stroke-linejoin="round"/>
    <path d="M 66.35572052001953 116.80511474609375 C 56.076087951660156 114.18470764160156 62.91177749633789 109.35118865966797 63.03157043457031 119.19402313232422" stroke-width="3.0" fill="none" stroke="rgb(0, 0, 0)" stroke-opacity="1.0" stroke-linecap="round" stroke-linejoin="round"/>
    <path d="M 122.51294708251953 75.29362487792969 C 119.27067565917969 39.723899841308594 110.93643951416016 57.70288848876953 117.66078186035156 33.17529296875" stroke-width="3.0" fill="none" stroke="rgb(0, 0, 0)" stroke-opacity="1.0" stroke-linecap="round" stroke-linejoin="round"/>
    <path d="M 150.97607421875 26.44229507446289 C 144.05152893066406 34.87186813354492 165.26156616210938 8.679805755615234 178.6219940185547 9.32848834991455" stroke-width="3.0" fill="none" stroke="rgb(0, 0, 0)" stroke-opacity="1.0" stroke-linecap="round" stroke-linejoin="round"/>
  </g>
</svg>
