<?xml version="1.0" ?>
<svg xmlns="http://www.w3.org/2000/svg" version="1.1" width="224" height="224">
  <defs/>
  <g>
    <path d="M 66.21469116210938 73.95555114746094 C 67.93942260742188 75.01719665527344 71.49017333984375 78.5759048461914 60.46723937988281 70.47718048095703" stroke-width="3.0" fill="none" stroke="rgb(0, 0, 0)" stroke-opacity="1.0" stroke-linecap="round" stroke-linejoin="round"/>
    <path d="M 183.88819885253906 123.16783905029297 C 177.98269653320312 112.99102783203125 198.2880401611328 89.9290542602539 176.3781280517578 128.8457794189453" stroke-width="3.0" fill="none" stroke="rgb(0, 0, 0)" stroke-opacity="1.0" stroke-linecap="round" stroke-linejoin="round"/>
    <path d="M 57.81821060180664 120.36158752441406 C 56.265865325927734 116.25238800048828 53.81502914428711 124.45831298828125 66.99981689453125 127.64623260498047" stroke-width="3.0" fill="none" stroke="rgb(0, 0, 0)" stroke-opacity="1.0" stroke-linecap="round" stroke-linejoin="round"/>
    <path d="M 183.36746215820312 91.37775421142578 C 144.3784942626953 83.70183563232422 175.15969848632812 73.87793731689453 191.3209228515625 107.87054443359375" stroke-width="3.0" fill="none" stroke="rgb(0, 0, 0)" stroke-opacity="1.0" stroke-linecap="round" stroke-linejoin="round"/>
    <path d="M 182.72772216796875 66.09168243408203 C 176.25282287597656 115.47018432617188 182.8550262451172 104.1757583618164 184.3427734375 72.51129150390625" stroke-width="3.0" fill="none" stroke="rgb(0, 0, 0)" stroke-opacity="1.0" stroke-linecap="round" stroke-linejoin="round"/>
    <path d="M 124.54796600341797 102.04491424560547 C 144.7606658935547 116.65503692626953 108.74730682373047 94.66183471679688 136.70277404785156 102.73320007324219" stroke-width="3.0" fill="none" stroke="rgb(0, 0, 0)" stroke-opacity="1.0" stroke-linecap="round" stroke-linejoin="round"/>
    <path d="M 171.85047912597656 89.83167266845703 C 193.20635986328125 93.78186798095703 181.1315460205078 72.95113372802734 160.15428161621094 84.52816009521484" stroke-width="3.0" fill="none" stroke="rgb(0, 0, 0)" stroke-opacity="1.0" stroke-linecap="round" stroke-linejoin="round"/>
    <path d="M 59.93484878540039 187.652587890625 C 37.51903533935547 156.85321044921875 48.60905838012695 167.90139770507812 50.75633239746094 174.12303161621094" stroke-width="3.0" fill="none" stroke="rgb(0, 0, 0)" stroke-opacity="1.0" stroke-linecap="round" stroke-linejoin="round"/>
    <path d="M 55.43180465698242 179.58367919921875 C 88.69204711914062 211.05226135253906 118.5958251953125 196.83871459960938 132.2119598388672 180.04725646972656" stroke-width="3.0" fill="none" stroke="rgb(0, 0, 0)" stroke-opacity="1.0" stroke-linecap="round" stroke-linejoin="round"/>
    <path d="M 84.3986587524414 28.389789581298828 C 95.87227630615234 78.27778625488281 85.32998657226562 7.599367618560791 84.2029800415039 54.54264450073242" stroke-width="3.0" fill="none" stroke="rgb(0, 0, 0)" stroke-opacity="1.0" stroke-linecap="round" stroke-linejoin="round"/>
    <path d="M 44.09730529785156 93.41207122802734 C 65.41734313964844 140.60093688964844 91.5996322631836 157.5982666015625 86.07621765136719 150.21864318847656" stroke-width="3.0" fill="none" stroke="rgb(0, 0, 0)" stroke-opacity="1.0" stroke-linecap="round" stroke-linejoin="round"/>
    <path d="M 148.84410095214844 74.86148071289062 C 205.43875122070312 69.42135620117188 185.9609832763672 82.36756134033203 140.2172393798828 85.85157012939453" stroke-width="3.0" fill="none" stroke="rgb(0, 0, 0)" stroke-opacity="1.0" stroke-linecap="round" stroke-linejoin="round"/>
    <path d="M 153.0606231689453 93.56997680664062 C 190.88934326171875 103.193359375 176.251708984375 104.93994903564453 194.59730529785156 113.8905258178711" stroke-width="3.0" fill="none" stroke="rgb(0, 0, 0)" stroke-opacity="1.0" stroke-linecap="round" stroke-linejoin="round"/>
    <path d="M 121.42998504638672 153.1335906982422 C 143.10044860839844 148.12095642089844 124.87026977539062 160.81997680664062 103.4208984375 151.4593505859375" stroke-width="3.0" fill="none" stroke="rgb(0, 0, 0)" stroke-opacity="1.0" stroke-linecap="round" stroke-linejoin="round"/>
    <path d="M 180.3555908203125 7.69840669631958 C 186.86082458496094 26.12295150756836 173.33895874023438 66.05244445800781 179.36563110351562 53.60068130493164" stroke-width="3.0" fill="none" stroke="rgb(0, 0, 0)" stroke-opacity="1.0" stroke-linecap="round" stroke-linejoin="round"/>
    <path d="M 131.59451293945312 31.74445343017578 C 123.9476547241211 51.559532165527344 134.72970581054688 44.481903076171875 126.1812515258789 69.39802551269531" stroke-width="3.0" fill="none" stroke="rgb(0, 0, 0)" stroke-opacity="1.0" stroke-linecap="round" stroke-linejoin="round"/>
    <path d="M 89.73149108886719 46.57699203491211 C 76.7730484008789 -6.1460089683532715 87.22541809082031 -2.548593521118164 112.9713134765625 39.43572998046875" stroke-width="3.0" fill="none" stroke="rgb(0, 0, 0)" stroke-opacity="1.0" stroke-linecap="round" stroke-linejoin="round"/>
    <path d="M 47.67218017578125 169.3674774169922 C 41.196170806884766 152.244140625 37.503639221191406 144.0678253173828 46.53752899169922 167.78123474121094" stroke-width="3.0" fill="none" stroke="rgb(0, 0, 0)" stroke-opacity="1.0" stroke-linecap="round" stroke-linejoin="round"/>
    <path d="M 37.23207092285156 98.22937774658203 C 20.625730514526367 127.00743865966797 40.987483978271484 147.7356719970703 43.91960144042969 158.3412628173828" stroke-width="3.0" fill="none" stroke="rgb(0, 0, 0)" stroke-opacity="1.0" stroke-linecap="round" stroke-linejoin="round"/>
    <path d="M 87.03109741210938 151.7421112060547 C 108.2197265625 160.3336944580078 99.2781753540039 159.254638671875 94.93241882324219 149.53285217285156" stroke-width="3.0" fill="none" stroke="rgb(0, 0, 0)" stroke-opacity="1.0" stroke-linecap="round" stroke-linejoin="round"/>
    <path d="M 86.4648666381836 197.8153533935547 C 68.37390899658203 201.82215881347656 51.29339599609375 176.42628479003906 49.434303283691406 170.1426239013672" stroke-width="3.0" fill="none" stroke="rgb(0, 0, 0)" stroke-opacity="1.0" stroke-linecap="round" stroke-linejoin="round"/>
    <path d="M 47.99814224243164 172.1920928955078 C 63.61827087402344 194.82492065429688 43.733642578125 170.02774047851562 39.90283966064453 148.59860229492188" stroke-width="3.0" fill="none" stroke="rgb(0, 0, 0)" stroke-opacity="1.0" stroke-linecap="round" stroke-linejoin="round"/>
    <path d="M 78.99811553955078 52.8518180847168 C 64.41416931152344 61.73706817626953 44.38124465942383 71.91718292236328 32.64917755126953 106.73686981201172" stroke-width="3.0" fill="none" stroke="rgb(0, 0, 0)" stroke-opacity="1.0" stroke-linecap="round" stroke-linejoin="round"/>
    <path d="M 154.5376739501953 139.36390686035156 C 122.71484375 161.58070373535156 118.48994445800781 159.28707885742188 139.6995391845703 152.04034423828125" stroke-width="3.0" fill="none" stroke="rgb(0, 0, 0)" stroke-opacity="1.0" stroke-linecap="round" stroke-linejoin="round"/>
    <path d="M 145.7473602294922 28.06281280517578 C 147.64828491210938 40.374412536621094 135.962646484375 31.93443489074707 137.37689208984375 82.40689086914062" stroke-width="3.0" fill="none" stroke="rgb(0, 0, 0)" stroke-opacity="1.0" stroke-linecap="round" stroke-linejoin="round"/>
    <path d="M 145.8906707763672 95.87696075439453 C 131.34864807128906 107.0835189819336 133.51495361328125 113.58740234375 117.8155746459961 104.05416107177734" stroke-width="3.0" fill="none" stroke="rgb(0, 0, 0)" stroke-opacity="1.0" stroke-linecap="round" stroke-linejoin="round"/>
    <path d="M 135.80760192871094 75.37928009033203 C 144.0977783203125 55.19997024536133 129.9353790283203 61.809913635253906 135.38064575195312 79.85306549072266" stroke-width="3.0" fill="none" stroke="rgb(0, 0, 0)" stroke-opacity="1.0" stroke-linecap="round" stroke-linejoin="round"/>
    <path d="M 135.3905792236328 176.1884002685547 C 128.6219482421875 181.39520263671875 137.46401977539062 179.77828979492188 146.83450317382812 145.1474609375" stroke-width="3.0" fill="none" stroke="rgb(0, 0, 0)" stroke-opacity="1.0" stroke-linecap="round" stroke-linejoin="round"/>
    <path d="M 197.41348266601562 95.01094818115234 C 170.52450561523438 72.86781311035156 168.86703491210938 82.27571868896484 187.56126403808594 87.43461608886719" stroke-width="3.0" fill="none" stroke="rgb(0, 0, 0)" stroke-opacity="1.0" stroke-linecap="round" stroke-linejoin="round"/>
    <path d="M 149.41912841796875 77.53746032714844 C 127.93331146240234 57.76759338378906 199.1949462890625 90.372802734375 182.4860076904297 69.14152526855469" stroke-width="3.0" fill="none" stroke="rgb(0, 0, 0)" stroke-opacity="1.0" stroke-linecap="round" stroke-linejoin="round"/>
    <path d="M 109.71263122558594 74.72117614746094 C 77.14466094970703 70.34021759033203 150.50650024414062 72.04276275634766 104.89106750488281 78.2007827758789" stroke-width="3.0" fill="none" stroke="rgb(0, 0, 0)" stroke-opacity="1.0" stroke-linecap="round" stroke-linejoin="round"/>
    <path d="M 162.1291961669922 130.27906799316406 C 135.04360961914062 165.75927734375 118.87774658203125 148.83546447753906 102.04866027832031 156.45799255371094" stroke-width="3.0" fill="none" stroke="rgb(0, 0, 0)" stroke-opacity="1.0" stroke-linecap="round" stroke-linejoin="round"/>
    <path d="M 125.0014877319336 88.07433319091797 C 141.89930725097656 100.01298522949219 129.16883850097656 68.54398345947266 129.59559631347656 107.43450927734375" stroke-width="3.0" fill="none" stroke="rgb(0, 0, 0)" stroke-opacity="1.0" stroke-linecap="round" stroke-linejoin="round"/>
    <path d="M 188.8948211669922 110.87483978271484 C 172.54931640625 87.8609848022461 183.5170440673828 89.43727111816406 146.09744262695312 84.55697631835938" stroke-width="3.0" fill="none" stroke="rgb(0, 0, 0)" stroke-opacity="1.0" stroke-linecap="round" stroke-linejoin="round"/>
    <path d="M 85.14959716796875 7.973041534423828 C 108.04864501953125 8.224148750305176 119.5397720336914 32.462974548339844 123.08466339111328 26.91970443725586" stroke-width="3.0" fill="none" stroke="rgb(0, 0, 0)" stroke-opacity="1.0" stroke-linecap="round" stroke-linejoin="round"/>
    <path d="M 59.436214447021484 123.91624450683594 C 59.00373077392578 119.2824935913086 61.30886459350586 131.7608184814453 61.88459396362305 125.82946014404297" stroke-width="3.0" fill="none" stroke="rgb(0, 0, 0)" stroke-opacity="1.0" stroke-linecap="round" stroke-linejoin="round"/>
    <path d="M 136.57595825195312 104.4207763671875 C 120.0870361328125 90.18557739257812 115.73157501220703 119.0499038696289 106.54183959960938 86.66508483886719" stroke-width="3.0" fill="none" stroke="rgb(0, 0, 0)" stroke-opacity="1.0" stroke-linecap="round" stroke-linejoin="round"/>
    <path d="M 32.225318908691406 133.15011596679688 C 27.232778549194336 102.12918090820312 38.48516845703125 99.79235076904297 48.81205749511719 78.18526458740234" stroke-width="3.0" fill="none" stroke="rgb(0, 0, 0)" stroke-opacity="1.0" stroke-linecap="round" stroke-linejoin="round"/>
    <path d="M 80.57657623291016 196.2548828125 C 71.95279693603516 191.761474609375 63.778228759765625 199.50537109375 103.78365325927734 198.8275909423828" stroke-width="3.0" fill="none" stroke="rgb(0, 0, 0)" stroke-opacity="1.0" stroke-linecap="round" stroke-linejoin="round"/>
    <path d="M 162.64596557617188 130.93807983398438 C 201.17881774902344 117.68408966064453 178.7604522705078 96.12062072753906 158.49102783203125 89.7203140258789" stroke-width="3.0" fill="none" stroke="rgb(0, 0, 0)" stroke-opacity="1.0" stroke-linecap="round" stroke-linejoin="round"/>
    <path d="M 154.15037536621094 68.81694030761719 C 133.14825439453125 86.4571533203125 175.34237670898438 76.30823516845703 148.1680145263672 75.91436767578125" stroke-width="3.0" fill="none" stroke="rgb(0, 0, 0)" stroke-opacity="1.0" stroke-linecap="round" stroke-linejoin="round"/>
    <path d="M 140.68832397460938 76.37037658691406 C 148.16192626953125 43.66157531738281 195.08956909179688 113.791748046875 177.159912109375 47.559547424316406" stroke-width="3.0" fill="none" stroke="rgb(0, 0, 0)" stroke-opacity="1.0" stroke-linecap="round" stroke-linejoin="round"/>
    <path d="M 158.54689025878906 96.36282348632812 C 170.5624237060547 104.58855438232422 175.29173278808594 103.8050765991211 182.57089233398438 120.33348846435547" stroke-width="3.0" fill="none" stroke="rgb(0, 0, 0)" stroke-opacity="1.0" stroke-linecap="round" stroke-linejoin="round"/>
    <path d="M 178.294189453125 15.824243545532227 C 167.13043212890625 46.17749786376953 174.65582275390625 23.734880447387695 160.52850341796875 39.389808654785156" stroke-width="3.0" fill="none" stroke="rgb(0, 0, 0)" stroke-opacity="1.0" stroke-linecap="round" stroke-linejoin="round"/>
    <path d="M 120.39277648925781 104.0531005859375 C 145.44033813476562 104.41193389892578 138.06088256835938 111.70011138916016 120.19851684570312 105.18134307861328" stroke-width="3.0" fill="none" stroke="rgb(0, 0, 0)" stroke-opacity="1.0" stroke-linecap="round" stroke-linejoin="round"/>
    <path d="M 74.21043395996094 133.7506561279297 C 49.130680084228516 126.28187561035156 61.496646881103516 115.21129608154297 57.437068939208984 119.76435852050781" stroke-width="3.0" fill="none" stroke="rgb(0, 0, 0)" stroke-opacity="1.0" stroke-linecap="round" stroke-linejoin="round"/>
    <path d="M 124.89627838134766 72.82962799072266 C 129.28915405273438 34.845455169677734 119.79009246826172 51.632286071777344 123.72505187988281 31.474750518798828" stroke-width="3.0" fill="none" stroke="rgb(0, 0, 0)" stroke-opacity="1.0" stroke-linecap="round" stroke-linejoin="round"/>
    <path d="M 154.0770721435547 24.422670364379883 C 146.7681121826172 35.08008575439453 162.0422821044922 9.369746208190918 180.47715759277344 8.05681037902832" stroke-width="3.0" fill="none" stroke="rgb(0, 0, 0)" stroke-opacity="1.0" stroke-linecap="round" stroke-linejoin="round"/>
  </g>
</svg>
