<?xml version="1.0" ?>
<svg xmlns="http://www.w3.org/2000/svg" version="1.1" width="224" height="224">
  <defs/>
  <g>
    <path d="M 62.040306091308594 90.83812713623047 C 77.00798797607422 78.31891632080078 63.80582046508789 77.70743560791016 77.80123901367188 60.51948165893555" stroke-width="3.0" fill="none" stroke="rgb(0, 0, 0)" stroke-opacity="1.0" stroke-linecap="round" stroke-linejoin="round"/>
    <path d="M 197.3240203857422 113.81363677978516 C 181.1332244873047 99.14065551757812 192.62750244140625 96.97870635986328 179.08392333984375 127.16808319091797" stroke-width="3.0" fill="none" stroke="rgb(0, 0, 0)" stroke-opacity="1.0" stroke-linecap="round" stroke-linejoin="round"/>
    <path d="M 61.624359130859375 116.44506072998047 C 51.9827995300293 89.30585479736328 58.083152770996094 114.69144439697266 61.50596237182617 109.13594055175781" stroke-width="3.0" fill="none" stroke="rgb(0, 0, 0)" stroke-opacity="1.0" stroke-linecap="round" stroke-linejoin="round"/>
    <path d="M 188.02883911132812 92.86345672607422 C 147.14840698242188 78.38433074951172 182.1883087158203 76.50994110107422 189.18963623046875 96.173095703125" stroke-width="3.0" fill="none" stroke="rgb(0, 0, 0)" stroke-opacity="1.0" stroke-linecap="round" stroke-linejoin="round"/>
    <path d="M 175.57455444335938 50.438331604003906 C 193.9604034423828 87.77083587646484 180.17332458496094 101.74200439453125 179.49346923828125 53.99762725830078" stroke-width="3.0" fill="none" stroke="rgb(0, 0, 0)" stroke-opacity="1.0" stroke-linecap="round" stroke-linejoin="round"/>
    <path d="M 130.1359405517578 97.1483383178711 C 152.82823181152344 107.24332427978516 95.62932586669922 97.77571105957031 138.1386260986328 101.88275909423828" stroke-width="3.0" fill="none" stroke="rgb(0, 0, 0)" stroke-opacity="1.0" stroke-linecap="round" stroke-linejoin="round"/>
    <path d="M 184.374267578125 99.39761352539062 C 161.15684509277344 91.63490295410156 192.16754150390625 68.77407836914062 149.71316528320312 86.75020599365234" stroke-width="3.0" fill="none" stroke="rgb(0, 0, 0)" stroke-opacity="1.0" stroke-linecap="round" stroke-linejoin="round"/>
    <path d="M 65.82534790039062 189.14312744140625 C 45.140384674072266 165.51014709472656 43.72713088989258 172.4276885986328 64.2165756225586 191.30880737304688" stroke-width="3.0" fill="none" stroke="rgb(0, 0, 0)" stroke-opacity="1.0" stroke-linecap="round" stroke-linejoin="round"/>
    <path d="M 59.63457489013672 182.68588256835938 C 81.98694610595703 211.59671020507812 139.8782958984375 192.40663146972656 138.459716796875 162.3084716796875" stroke-width="3.0" fill="none" stroke="rgb(0, 0, 0)" stroke-opacity="1.0" stroke-linecap="round" stroke-linejoin="round"/>
    <path d="M 82.12879943847656 15.779321670532227 C 94.03081512451172 73.47630310058594 90.29712677001953 16.500089645385742 86.03949737548828 51.98556137084961" stroke-width="3.0" fill="none" stroke="rgb(0, 0, 0)" stroke-opacity="1.0" stroke-linecap="round" stroke-linejoin="round"/>
    <path d="M 60.886226654052734 92.756591796875 C 47.06256866455078 123.2166748046875 80.4768295288086 126.43976593017578 59.80302810668945 114.43901824951172" stroke-width="3.0" fill="none" stroke="rgb(0, 0, 0)" stroke-opacity="1.0" stroke-linecap="round" stroke-linejoin="round"/>
    <path d="M 144.72137451171875 75.78279113769531 C 196.08709716796875 58.271602630615234 206.49114990234375 85.88302612304688 140.04835510253906 86.15249633789062" stroke-width="3.0" fill="none" stroke="rgb(0, 0, 0)" stroke-opacity="1.0" stroke-linecap="round" stroke-linejoin="round"/>
    <path d="M 151.3218994140625 96.58308410644531 C 188.094970703125 101.27910614013672 182.41078186035156 105.34430694580078 186.9017791748047 112.20929718017578" stroke-width="3.0" fill="none" stroke="rgb(0, 0, 0)" stroke-opacity="1.0" stroke-linecap="round" stroke-linejoin="round"/>
    <path d="M 132.54293823242188 151.7418212890625 C 178.03724670410156 155.2830352783203 94.58454132080078 143.1018829345703 96.81008911132812 149.69435119628906" stroke-width="3.0" fill="none" stroke="rgb(0, 0, 0)" stroke-opacity="1.0" stroke-linecap="round" stroke-linejoin="round"/>
    <path d="M 177.31138610839844 9.374354362487793 C 189.1946563720703 15.507855415344238 165.99656677246094 86.89785766601562 185.005615234375 61.337562561035156" stroke-width="3.0" fill="none" stroke="rgb(0, 0, 0)" stroke-opacity="1.0" stroke-linecap="round" stroke-linejoin="round"/>
    <path d="M 149.33926391601562 28.322154998779297 C 109.0822982788086 31.37440299987793 134.177490234375 19.712474822998047 126.41856384277344 68.47352600097656" stroke-width="3.0" fill="none" stroke="rgb(0, 0, 0)" stroke-opacity="1.0" stroke-linecap="round" stroke-linejoin="round"/>
    <path d="M 108.27793884277344 45.840518951416016 C 61.21166229248047 -5.618373870849609 83.89747619628906 1.7600293159484863 119.8280258178711 32.12213897705078" stroke-width="3.0" fill="none" stroke="rgb(0, 0, 0)" stroke-opacity="1.0" stroke-linecap="round" stroke-linejoin="round"/>
    <path d="M 42.971309661865234 159.2699737548828 C 42.484352111816406 159.9136962890625 38.023765563964844 159.46786499023438 51.63375473022461 178.0688934326172" stroke-width="3.0" fill="none" stroke="rgb(0, 0, 0)" stroke-opacity="1.0" stroke-linecap="round" stroke-linejoin="round"/>
    <path d="M 60.12622833251953 66.2667236328125 C 17.081727981567383 114.5798568725586 37.91859817504883 147.1122589111328 43.45798110961914 165.0991668701172" stroke-width="3.0" fill="none" stroke="rgb(0, 0, 0)" stroke-opacity="1.0" stroke-linecap="round" stroke-linejoin="round"/>
    <path d="M 69.93783569335938 131.3398895263672 C 145.19357299804688 165.68345642089844 116.11253356933594 149.41229248046875 88.35588836669922 144.29116821289062" stroke-width="3.0" fill="none" stroke="rgb(0, 0, 0)" stroke-opacity="1.0" stroke-linecap="round" stroke-linejoin="round"/>
    <path d="M 84.08715057373047 196.819580078125 C 65.53352355957031 198.20025634765625 44.2942008972168 177.90086364746094 38.198787689208984 149.3716583251953" stroke-width="3.0" fill="none" stroke="rgb(0, 0, 0)" stroke-opacity="1.0" stroke-linecap="round" stroke-linejoin="round"/>
    <path d="M 47.607391357421875 171.0108184814453 C 72.45233917236328 199.04359436035156 46.746150970458984 178.55923461914062 39.391151428222656 149.66995239257812" stroke-width="3.0" fill="none" stroke="rgb(0, 0, 0)" stroke-opacity="1.0" stroke-linecap="round" stroke-linejoin="round"/>
    <path d="M 81.57442474365234 55.71702575683594 C 59.72929000854492 59.54030990600586 60.336204528808594 64.16109466552734 35.58213424682617 107.09272766113281" stroke-width="3.0" fill="none" stroke="rgb(0, 0, 0)" stroke-opacity="1.0" stroke-linecap="round" stroke-linejoin="round"/>
    <path d="M 145.83944702148438 146.91665649414062 C 112.34342193603516 158.16326904296875 66.39104461669922 148.78228759765625 147.3573760986328 150.45840454101562" stroke-width="3.0" fill="none" stroke="rgb(0, 0, 0)" stroke-opacity="1.0" stroke-linecap="round" stroke-linejoin="round"/>
    <path d="M 150.9052276611328 26.971418380737305 C 143.26963806152344 39.19210433959961 139.723876953125 13.298727035522461 137.18988037109375 74.84351348876953" stroke-width="3.0" fill="none" stroke="rgb(0, 0, 0)" stroke-opacity="1.0" stroke-linecap="round" stroke-linejoin="round"/>
    <path d="M 144.6217041015625 98.77455139160156 C 123.26664733886719 110.13336944580078 127.67497253417969 104.54158020019531 122.55644226074219 99.21261596679688" stroke-width="3.0" fill="none" stroke="rgb(0, 0, 0)" stroke-opacity="1.0" stroke-linecap="round" stroke-linejoin="round"/>
    <path d="M 137.931884765625 69.91329956054688 C 146.7911376953125 54.06049346923828 132.9883575439453 62.26327896118164 137.93017578125 69.06596374511719" stroke-width="3.0" fill="none" stroke="rgb(0, 0, 0)" stroke-opacity="1.0" stroke-linecap="round" stroke-linejoin="round"/>
    <path d="M 140.60482788085938 163.95791625976562 C 136.96022033691406 170.67514038085938 140.895263671875 164.16917419433594 150.6343536376953 141.0672607421875" stroke-width="3.0" fill="none" stroke="rgb(0, 0, 0)" stroke-opacity="1.0" stroke-linecap="round" stroke-linejoin="round"/>
    <path d="M 193.86248779296875 94.45323944091797 C 163.85374450683594 70.60237121582031 192.23104858398438 60.02995300292969 179.9822998046875 94.82292938232422" stroke-width="3.0" fill="none" stroke="rgb(0, 0, 0)" stroke-opacity="1.0" stroke-linecap="round" stroke-linejoin="round"/>
    <path d="M 152.8584747314453 78.0824203491211 C 121.22573852539062 54.92796325683594 205.7279815673828 89.26908111572266 182.35079956054688 61.13701629638672" stroke-width="3.0" fill="none" stroke="rgb(0, 0, 0)" stroke-opacity="1.0" stroke-linecap="round" stroke-linejoin="round"/>
    <path d="M 114.66071319580078 83.91236114501953 C 88.94918060302734 76.9954605102539 135.2117919921875 75.04035186767578 110.02252960205078 83.12118530273438" stroke-width="3.0" fill="none" stroke="rgb(0, 0, 0)" stroke-opacity="1.0" stroke-linecap="round" stroke-linejoin="round"/>
    <path d="M 167.0631561279297 130.10159301757812 C 156.32655334472656 155.70053100585938 88.89083862304688 149.03717041015625 92.57633209228516 145.13645935058594" stroke-width="3.0" fill="none" stroke="rgb(0, 0, 0)" stroke-opacity="1.0" stroke-linecap="round" stroke-linejoin="round"/>
    <path d="M 126.87676239013672 88.5440673828125 C 139.90208435058594 97.40290069580078 131.5185089111328 74.7591323852539 129.3123016357422 105.47177124023438" stroke-width="3.0" fill="none" stroke="rgb(0, 0, 0)" stroke-opacity="1.0" stroke-linecap="round" stroke-linejoin="round"/>
    <path d="M 185.97593688964844 109.34163665771484 C 172.32066345214844 92.07524108886719 167.6738739013672 95.67186737060547 141.1837615966797 83.36314392089844" stroke-width="3.0" fill="none" stroke="rgb(0, 0, 0)" stroke-opacity="1.0" stroke-linecap="round" stroke-linejoin="round"/>
    <path d="M 91.91497039794922 20.431072235107422 C 121.69635009765625 27.66836166381836 82.15596771240234 26.796329498291016 146.26251220703125 29.308292388916016" stroke-width="3.0" fill="none" stroke="rgb(0, 0, 0)" stroke-opacity="1.0" stroke-linecap="round" stroke-linejoin="round"/>
    <path d="M 58.045570373535156 105.95000457763672 C 61.301658630371094 93.23185729980469 52.54786682128906 115.51210021972656 73.28372955322266 136.49520874023438" stroke-width="3.0" fill="none" stroke="rgb(0, 0, 0)" stroke-opacity="1.0" stroke-linecap="round" stroke-linejoin="round"/>
    <path d="M 131.90301513671875 105.38204193115234 C 131.36056518554688 90.37738037109375 125.43991088867188 120.6467056274414 110.87193298339844 89.1990966796875" stroke-width="3.0" fill="none" stroke="rgb(0, 0, 0)" stroke-opacity="1.0" stroke-linecap="round" stroke-linejoin="round"/>
    <path d="M 38.35966110229492 151.1548614501953 C 17.151952743530273 122.43864440917969 40.735347747802734 71.4078369140625 68.91162109375 59.64692687988281" stroke-width="3.0" fill="none" stroke="rgb(0, 0, 0)" stroke-opacity="1.0" stroke-linecap="round" stroke-linejoin="round"/>
    <path d="M 105.18707275390625 197.37408447265625 C 85.66354370117188 196.1758575439453 86.95757293701172 195.4191436767578 105.96482849121094 196.24879455566406" stroke-width="3.0" fill="none" stroke="rgb(0, 0, 0)" stroke-opacity="1.0" stroke-linecap="round" stroke-linejoin="round"/>
    <path d="M 168.30279541015625 129.7847900390625 C 198.95179748535156 115.37358093261719 193.08946228027344 86.68472290039062 154.25338745117188 89.70957946777344" stroke-width="3.0" fill="none" stroke="rgb(0, 0, 0)" stroke-opacity="1.0" stroke-linecap="round" stroke-linejoin="round"/>
    <path d="M 157.49081420898438 71.22529602050781 C 130.4791259765625 82.17446899414062 165.3818359375 83.87284088134766 150.9470977783203 72.10828399658203" stroke-width="3.0" fill="none" stroke="rgb(0, 0, 0)" stroke-opacity="1.0" stroke-linecap="round" stroke-linejoin="round"/>
    <path d="M 140.46533203125 80.36060333251953 C 142.14871215820312 38.95105743408203 202.27349853515625 117.36275482177734 179.0283966064453 41.77748107910156" stroke-width="3.0" fill="none" stroke="rgb(0, 0, 0)" stroke-opacity="1.0" stroke-linecap="round" stroke-linejoin="round"/>
    <path d="M 154.44007873535156 97.60774230957031 C 173.56556701660156 104.42056274414062 181.36134338378906 103.44010162353516 184.9542694091797 122.72653198242188" stroke-width="3.0" fill="none" stroke="rgb(0, 0, 0)" stroke-opacity="1.0" stroke-linecap="round" stroke-linejoin="round"/>
    <path d="M 176.9130401611328 13.58554744720459 C 173.35755920410156 46.1246452331543 174.95724487304688 17.38224983215332 160.8213653564453 37.847259521484375" stroke-width="3.0" fill="none" stroke="rgb(0, 0, 0)" stroke-opacity="1.0" stroke-linecap="round" stroke-linejoin="round"/>
    <path d="M 120.25297546386719 101.54019165039062 C 142.0824432373047 89.78721618652344 130.12838745117188 112.69487762451172 134.3095245361328 101.65775299072266" stroke-width="3.0" fill="none" stroke="rgb(0, 0, 0)" stroke-opacity="1.0" stroke-linecap="round" stroke-linejoin="round"/>
    <path d="M 63.16315460205078 92.40373229980469 C 54.044857025146484 108.58163452148438 55.44719696044922 111.0296859741211 63.3079833984375 96.54462432861328" stroke-width="3.0" fill="none" stroke="rgb(0, 0, 0)" stroke-opacity="1.0" stroke-linecap="round" stroke-linejoin="round"/>
    <path d="M 122.22239685058594 76.37407684326172 C 127.63163757324219 45.31481170654297 112.63199615478516 48.59995651245117 117.97554016113281 35.06328201293945" stroke-width="3.0" fill="none" stroke="rgb(0, 0, 0)" stroke-opacity="1.0" stroke-linecap="round" stroke-linejoin="round"/>
    <path d="M 138.81057739257812 30.724742889404297 C 146.50929260253906 44.949913024902344 156.94192504882812 11.767507553100586 179.17205810546875 8.716266632080078" stroke-width="3.0" fill="none" stroke="rgb(0, 0, 0)" stroke-opacity="1.0" stroke-linecap="round" stroke-linejoin="round"/>
  </g>
</svg>
