<?xml version="1.0" ?>
<svg xmlns="http://www.w3.org/2000/svg" version="1.1" width="224" height="224">
  <defs/>
  <g>
    <path d="M 61.49489974975586 100.28084564208984 C 62.948814392089844 101.17443084716797 54.304710388183594 91.57699584960938 67.42143249511719 59.65828323364258" stroke-width="3.0" fill="none" stroke="rgb(0, 0, 0)" stroke-opacity="1.0" stroke-linecap="round" stroke-linejoin="round"/>
    <path d="M 187.9272918701172 112.82887268066406 C 184.34750366210938 112.49622344970703 192.95831298828125 97.55813598632812 179.51348876953125 128.33847045898438" stroke-width="3.0" fill="none" stroke="rgb(0, 0, 0)" stroke-opacity="1.0" stroke-linecap="round" stroke-linejoin="round"/>
    <path d="M 60.68406677246094 124.16260528564453 C 56.50132369995117 81.17973327636719 57.470340728759766 124.11055755615234 62.69047927856445 125.35700988769531" stroke-width="3.0" fill="none" stroke="rgb(0, 0, 0)" stroke-opacity="1.0" stroke-linecap="round" stroke-linejoin="round"/>
    <path d="M 185.27796936035156 96.36407470703125 C 150.51873779296875 73.605224609375 184.7110137939453 76.19976806640625 185.02633666992188 104.33026123046875" stroke-width="3.0" fill="none" stroke="rgb(0, 0, 0)" stroke-opacity="1.0" stroke-linecap="round" stroke-linejoin="round"/>
    <path d="M 179.01600646972656 43.096473693847656 C 193.5493621826172 91.58429718017578 170.79405212402344 107.64446258544922 180.37498474121094 63.553810119628906" stroke-width="3.0" fill="none" stroke="rgb(0, 0, 0)" stroke-opacity="1.0" stroke-linecap="round" stroke-linejoin="round"/>
    <path d="M 129.74581909179688 100.89678192138672 C 149.3239288330078 119.7420654296875 98.40432739257812 101.3406753540039 137.64198303222656 106.31620788574219" stroke-width="3.0" fill="none" stroke="rgb(0, 0, 0)" stroke-opacity="1.0" stroke-linecap="round" stroke-linejoin="round"/>
    <path d="M 182.28074645996094 90.0114974975586 C 169.03994750976562 90.24311828613281 183.28912353515625 71.06673431396484 160.11549377441406 86.76722717285156" stroke-width="3.0" fill="none" stroke="rgb(0, 0, 0)" stroke-opacity="1.0" stroke-linecap="round" stroke-linejoin="round"/>
    <path d="M 65.04488372802734 190.3322296142578 C 41.46177291870117 169.47113037109375 48.2170524597168 166.47378540039062 56.04016876220703 177.0757293701172" stroke-width="3.0" fill="none" stroke="rgb(0, 0, 0)" stroke-opacity="1.0" stroke-linecap="round" stroke-linejoin="round"/>
    <path d="M 56.17461013793945 183.31570434570312 C 85.16865539550781 208.91796875 135.00442504882812 194.5494384765625 140.0475311279297 163.42173767089844" stroke-width="3.0" fill="none" stroke="rgb(0, 0, 0)" stroke-opacity="1.0" stroke-linecap="round" stroke-linejoin="round"/>
    <path d="M 80.17584228515625 11.501203536987305 C 92.14925384521484 80.13615417480469 84.1037368774414 8.562273979187012 84.59430694580078 55.198246002197266" stroke-width="3.0" fill="none" stroke="rgb(0, 0, 0)" stroke-opacity="1.0" stroke-linecap="round" stroke-linejoin="round"/>
    <path d="M 62.58189392089844 94.65357971191406 C 48.403934478759766 132.25604248046875 73.37361145019531 130.19435119628906 61.307777404785156 119.92564392089844" stroke-width="3.0" fill="none" stroke="rgb(0, 0, 0)" stroke-opacity="1.0" stroke-linecap="round" stroke-linejoin="round"/>
    <path d="M 144.6897430419922 72.70250701904297 C 191.9622344970703 66.67973327636719 192.8058624267578 88.2901382446289 142.42054748535156 86.22349548339844" stroke-width="3.0" fill="none" stroke="rgb(0, 0, 0)" stroke-opacity="1.0" stroke-linecap="round" stroke-linejoin="round"/>
    <path d="M 150.44554138183594 98.16522979736328 C 180.16285705566406 100.9660873413086 181.74461364746094 97.88774108886719 195.7393341064453 114.16265869140625" stroke-width="3.0" fill="none" stroke="rgb(0, 0, 0)" stroke-opacity="1.0" stroke-linecap="round" stroke-linejoin="round"/>
    <path d="M 123.59519958496094 144.97853088378906 C 164.97659301757812 160.09378051757812 101.32317352294922 141.6169891357422 96.95291137695312 151.3765869140625" stroke-width="3.0" fill="none" stroke="rgb(0, 0, 0)" stroke-opacity="1.0" stroke-linecap="round" stroke-linejoin="round"/>
    <path d="M 176.98538208007812 9.58870792388916 C 190.72964477539062 19.990880966186523 165.2564697265625 95.96220397949219 181.1766357421875 56.71303176879883" stroke-width="3.0" fill="none" stroke="rgb(0, 0, 0)" stroke-opacity="1.0" stroke-linecap="round" stroke-linejoin="round"/>
    <path d="M 146.92445373535156 29.937007904052734 C 113.0731201171875 31.432222366333008 139.5352020263672 32.086368560791016 131.9045867919922 63.250099182128906" stroke-width="3.0" fill="none" stroke="rgb(0, 0, 0)" stroke-opacity="1.0" stroke-linecap="round" stroke-linejoin="round"/>
    <path d="M 104.88479614257812 48.47159194946289 C 61.62643814086914 -8.833727836608887 83.14576721191406 -0.7319580316543579 119.68006134033203 33.54671096801758" stroke-width="3.0" fill="none" stroke="rgb(0, 0, 0)" stroke-opacity="1.0" stroke-linecap="round" stroke-linejoin="round"/>
    <path d="M 45.44237518310547 163.7317352294922 C 45.59085464477539 159.10549926757812 41.92258834838867 153.64781188964844 49.55064392089844 171.12413024902344" stroke-width="3.0" fill="none" stroke="rgb(0, 0, 0)" stroke-opacity="1.0" stroke-linecap="round" stroke-linejoin="round"/>
    <path d="M 56.01715087890625 67.02926635742188 C 22.809064865112305 129.06878662109375 44.120418548583984 129.931396484375 43.77118682861328 160.51632690429688" stroke-width="3.0" fill="none" stroke="rgb(0, 0, 0)" stroke-opacity="1.0" stroke-linecap="round" stroke-linejoin="round"/>
    <path d="M 71.2139663696289 136.85009765625 C 137.04295349121094 159.3252716064453 102.70721435546875 147.8944091796875 86.33627319335938 144.92510986328125" stroke-width="3.0" fill="none" stroke="rgb(0, 0, 0)" stroke-opacity="1.0" stroke-linecap="round" stroke-linejoin="round"/>
    <path d="M 93.154296875 196.32151794433594 C 64.98388671875 201.20492553710938 47.70085144042969 177.0529327392578 42.704246520996094 156.76393127441406" stroke-width="3.0" fill="none" stroke="rgb(0, 0, 0)" stroke-opacity="1.0" stroke-linecap="round" stroke-linejoin="round"/>
    <path d="M 50.83391571044922 174.29225158691406 C 67.11386108398438 200.21826171875 49.2409782409668 174.1891632080078 36.78146743774414 140.85992431640625" stroke-width="3.0" fill="none" stroke="rgb(0, 0, 0)" stroke-opacity="1.0" stroke-linecap="round" stroke-linejoin="round"/>
    <path d="M 80.88374328613281 53.81645965576172 C 55.315677642822266 59.065372467041016 61.93939208984375 69.90062713623047 38.40266418457031 111.74127960205078" stroke-width="3.0" fill="none" stroke="rgb(0, 0, 0)" stroke-opacity="1.0" stroke-linecap="round" stroke-linejoin="round"/>
    <path d="M 157.25436401367188 142.1059112548828 C 100.93563842773438 154.54440307617188 70.91975402832031 152.2542266845703 143.4369659423828 146.5917510986328" stroke-width="3.0" fill="none" stroke="rgb(0, 0, 0)" stroke-opacity="1.0" stroke-linecap="round" stroke-linejoin="round"/>
    <path d="M 151.87973022460938 27.040307998657227 C 142.2766571044922 33.812339782714844 134.32553100585938 13.74392318725586 136.4677734375 80.03008270263672" stroke-width="3.0" fill="none" stroke="rgb(0, 0, 0)" stroke-opacity="1.0" stroke-linecap="round" stroke-linejoin="round"/>
    <path d="M 147.59779357910156 102.66322326660156 C 131.90855407714844 115.25502014160156 126.60601043701172 105.97834014892578 114.36322784423828 94.82140350341797" stroke-width="3.0" fill="none" stroke="rgb(0, 0, 0)" stroke-opacity="1.0" stroke-linecap="round" stroke-linejoin="round"/>
    <path d="M 137.32044982910156 61.92435836791992 C 144.9693145751953 52.92391586303711 130.76065063476562 72.6390609741211 135.59500122070312 77.99519348144531" stroke-width="3.0" fill="none" stroke="rgb(0, 0, 0)" stroke-opacity="1.0" stroke-linecap="round" stroke-linejoin="round"/>
    <path d="M 137.518798828125 166.53594970703125 C 131.06214904785156 168.47203063964844 147.6999969482422 162.85818481445312 146.86061096191406 145.48130798339844" stroke-width="3.0" fill="none" stroke="rgb(0, 0, 0)" stroke-opacity="1.0" stroke-linecap="round" stroke-linejoin="round"/>
    <path d="M 194.17852783203125 94.8292007446289 C 164.18600463867188 66.72084045410156 176.01730346679688 68.98544311523438 189.12094116210938 98.0858383178711" stroke-width="3.0" fill="none" stroke="rgb(0, 0, 0)" stroke-opacity="1.0" stroke-linecap="round" stroke-linejoin="round"/>
    <path d="M 152.60751342773438 76.82275390625 C 122.5264663696289 54.07292175292969 213.08023071289062 87.26915740966797 174.04034423828125 67.52306365966797" stroke-width="3.0" fill="none" stroke="rgb(0, 0, 0)" stroke-opacity="1.0" stroke-linecap="round" stroke-linejoin="round"/>
    <path d="M 117.37698364257812 79.12924194335938 C 86.38580322265625 70.16687774658203 136.7684783935547 73.39584350585938 109.2692642211914 82.94945526123047" stroke-width="3.0" fill="none" stroke="rgb(0, 0, 0)" stroke-opacity="1.0" stroke-linecap="round" stroke-linejoin="round"/>
    <path d="M 169.83987426757812 129.99850463867188 C 152.05613708496094 157.4993896484375 96.17964172363281 144.63490295410156 89.8259048461914 144.36239624023438" stroke-width="3.0" fill="none" stroke="rgb(0, 0, 0)" stroke-opacity="1.0" stroke-linecap="round" stroke-linejoin="round"/>
    <path d="M 122.72748565673828 91.28865051269531 C 144.4767303466797 99.196044921875 131.3850555419922 71.28207397460938 127.77269744873047 107.6868667602539" stroke-width="3.0" fill="none" stroke="rgb(0, 0, 0)" stroke-opacity="1.0" stroke-linecap="round" stroke-linejoin="round"/>
    <path d="M 186.5011749267578 110.86431884765625 C 166.8942413330078 89.80476379394531 171.65249633789062 96.99537658691406 139.6305389404297 84.60774993896484" stroke-width="3.0" fill="none" stroke="rgb(0, 0, 0)" stroke-opacity="1.0" stroke-linecap="round" stroke-linejoin="round"/>
    <path d="M 90.95440673828125 25.13331413269043 C 127.8087387084961 28.13812828063965 87.72234344482422 34.30401611328125 147.9234161376953 29.355154037475586" stroke-width="3.0" fill="none" stroke="rgb(0, 0, 0)" stroke-opacity="1.0" stroke-linecap="round" stroke-linejoin="round"/>
    <path d="M 57.493595123291016 113.28343200683594 C 67.01554870605469 97.50764465332031 50.77691650390625 116.77373504638672 72.074462890625 138.70533752441406" stroke-width="3.0" fill="none" stroke="rgb(0, 0, 0)" stroke-opacity="1.0" stroke-linecap="round" stroke-linejoin="round"/>
    <path d="M 137.90106201171875 106.29499053955078 C 123.4161148071289 90.46863555908203 128.03628540039062 118.67601013183594 116.04621124267578 87.9295654296875" stroke-width="3.0" fill="none" stroke="rgb(0, 0, 0)" stroke-opacity="1.0" stroke-linecap="round" stroke-linejoin="round"/>
    <path d="M 38.87363815307617 145.79498291015625 C 26.28143882751465 123.01251220703125 36.977943420410156 76.02394104003906 62.62000274658203 62.60401916503906" stroke-width="3.0" fill="none" stroke="rgb(0, 0, 0)" stroke-opacity="1.0" stroke-linecap="round" stroke-linejoin="round"/>
    <path d="M 98.90437316894531 194.74771118164062 C 77.79908752441406 195.94337463378906 70.75056457519531 195.4278564453125 99.90510559082031 195.7770538330078" stroke-width="3.0" fill="none" stroke="rgb(0, 0, 0)" stroke-opacity="1.0" stroke-linecap="round" stroke-linejoin="round"/>
    <path d="M 170.65338134765625 130.1256103515625 C 197.924072265625 114.35514068603516 190.68441772460938 87.97852325439453 151.98764038085938 86.55986785888672" stroke-width="3.0" fill="none" stroke="rgb(0, 0, 0)" stroke-opacity="1.0" stroke-linecap="round" stroke-linejoin="round"/>
    <path d="M 155.24850463867188 71.27803802490234 C 128.8388671875 80.37113189697266 164.52696228027344 81.9736099243164 150.05270385742188 69.60529327392578" stroke-width="3.0" fill="none" stroke="rgb(0, 0, 0)" stroke-opacity="1.0" stroke-linecap="round" stroke-linejoin="round"/>
    <path d="M 138.31837463378906 74.59593963623047 C 143.81597900390625 39.57670593261719 198.8096923828125 109.31201934814453 176.3601531982422 51.515506744384766" stroke-width="3.0" fill="none" stroke="rgb(0, 0, 0)" stroke-opacity="1.0" stroke-linecap="round" stroke-linejoin="round"/>
    <path d="M 152.92225646972656 98.75936889648438 C 172.49392700195312 107.36719512939453 178.21278381347656 104.35940551757812 185.0955047607422 123.3690185546875" stroke-width="3.0" fill="none" stroke="rgb(0, 0, 0)" stroke-opacity="1.0" stroke-linecap="round" stroke-linejoin="round"/>
    <path d="M 178.0564727783203 17.823925018310547 C 171.4413299560547 42.38829040527344 171.13409423828125 23.474184036254883 158.7633056640625 38.409690856933594" stroke-width="3.0" fill="none" stroke="rgb(0, 0, 0)" stroke-opacity="1.0" stroke-linecap="round" stroke-linejoin="round"/>
    <path d="M 123.155029296875 104.13782501220703 C 148.63209533691406 97.7818832397461 128.43592834472656 115.06196594238281 122.47834014892578 102.7775650024414" stroke-width="3.0" fill="none" stroke="rgb(0, 0, 0)" stroke-opacity="1.0" stroke-linecap="round" stroke-linejoin="round"/>
    <path d="M 60.00439453125 107.30779266357422 C 57.99210739135742 105.04460906982422 55.341182708740234 114.8794174194336 61.81184387207031 119.69132232666016" stroke-width="3.0" fill="none" stroke="rgb(0, 0, 0)" stroke-opacity="1.0" stroke-linecap="round" stroke-linejoin="round"/>
    <path d="M 120.01698303222656 72.76713562011719 C 122.20132446289062 46.231483459472656 114.67389678955078 60.85527038574219 121.6811752319336 35.09022521972656" stroke-width="3.0" fill="none" stroke="rgb(0, 0, 0)" stroke-opacity="1.0" stroke-linecap="round" stroke-linejoin="round"/>
    <path d="M 143.28565979003906 32.790924072265625 C 145.14886474609375 39.5489387512207 161.45358276367188 7.930961608886719 177.21795654296875 11.146604537963867" stroke-width="3.0" fill="none" stroke="rgb(0, 0, 0)" stroke-opacity="1.0" stroke-linecap="round" stroke-linejoin="round"/>
  </g>
</svg>
