<?xml version="1.0" ?>
<svg xmlns="http://www.w3.org/2000/svg" version="1.1" width="224" height="224">
  <defs/>
  <g>
    <path d="M 60.48524475097656 93.57515716552734 C 69.32355499267578 83.19417572021484 54.55600357055664 83.31851196289062 72.73394012451172 58.8729248046875" stroke-width="3.0" fill="none" stroke="rgb(0, 0, 0)" stroke-opacity="1.0" stroke-linecap="round" stroke-linejoin="round"/>
    <path d="M 194.4765625 111.78296661376953 C 186.68826293945312 104.26509094238281 191.14248657226562 96.48133850097656 180.28504943847656 126.9111557006836" stroke-width="3.0" fill="none" stroke="rgb(0, 0, 0)" stroke-opacity="1.0" stroke-linecap="round" stroke-linejoin="round"/>
    <path d="M 64.41463470458984 121.0179214477539 C 54.04378890991211 87.42205810546875 60.45722961425781 124.19893646240234 64.75348663330078 122.8169174194336" stroke-width="3.0" fill="none" stroke="rgb(0, 0, 0)" stroke-opacity="1.0" stroke-linecap="round" stroke-linejoin="round"/>
    <path d="M 185.2366943359375 93.94964599609375 C 153.3748779296875 71.7035903930664 180.03244018554688 78.13338470458984 188.57839965820312 99.64753723144531" stroke-width="3.0" fill="none" stroke="rgb(0, 0, 0)" stroke-opacity="1.0" stroke-linecap="round" stroke-linejoin="round"/>
    <path d="M 177.2186279296875 41.98741149902344 C 196.24119567871094 97.00679779052734 176.24209594726562 110.48741149902344 181.33929443359375 58.72378158569336" stroke-width="3.0" fill="none" stroke="rgb(0, 0, 0)" stroke-opacity="1.0" stroke-linecap="round" stroke-linejoin="round"/>
    <path d="M 131.53341674804688 100.09721374511719 C 147.69862365722656 117.39720153808594 97.97478485107422 101.30256652832031 135.35409545898438 108.46414184570312" stroke-width="3.0" fill="none" stroke="rgb(0, 0, 0)" stroke-opacity="1.0" stroke-linecap="round" stroke-linejoin="round"/>
    <path d="M 185.55978393554688 87.05403900146484 C 173.15049743652344 81.67343139648438 188.48019409179688 66.9446792602539 153.12535095214844 85.75615692138672" stroke-width="3.0" fill="none" stroke="rgb(0, 0, 0)" stroke-opacity="1.0" stroke-linecap="round" stroke-linejoin="round"/>
    <path d="M 65.7134780883789 191.0404052734375 C 40.257938385009766 171.00210571289062 48.257747650146484 166.81936645507812 60.83995056152344 189.49258422851562" stroke-width="3.0" fill="none" stroke="rgb(0, 0, 0)" stroke-opacity="1.0" stroke-linecap="round" stroke-linejoin="round"/>
    <path d="M 56.11494827270508 184.7923583984375 C 87.50804138183594 212.9785919189453 134.04432678222656 197.19720458984375 139.9261932373047 158.82620239257812" stroke-width="3.0" fill="none" stroke="rgb(0, 0, 0)" stroke-opacity="1.0" stroke-linecap="round" stroke-linejoin="round"/>
    <path d="M 82.59954833984375 13.549503326416016 C 90.96556854248047 73.8934097290039 90.62345886230469 6.9481658935546875 88.12007141113281 51.23685073852539" stroke-width="3.0" fill="none" stroke="rgb(0, 0, 0)" stroke-opacity="1.0" stroke-linecap="round" stroke-linejoin="round"/>
    <path d="M 61.37434387207031 94.75845336914062 C 50.183650970458984 128.55418395996094 75.6148910522461 130.31724548339844 60.557777404785156 119.21601104736328" stroke-width="3.0" fill="none" stroke="rgb(0, 0, 0)" stroke-opacity="1.0" stroke-linecap="round" stroke-linejoin="round"/>
    <path d="M 145.11300659179688 73.91648864746094 C 189.8378448486328 69.68579864501953 198.4307861328125 87.05804443359375 138.7665557861328 84.55024719238281" stroke-width="3.0" fill="none" stroke="rgb(0, 0, 0)" stroke-opacity="1.0" stroke-linecap="round" stroke-linejoin="round"/>
    <path d="M 149.55201721191406 96.19827270507812 C 181.0924530029297 101.40363311767578 174.54869079589844 101.75332641601562 196.6321258544922 114.7059326171875" stroke-width="3.0" fill="none" stroke="rgb(0, 0, 0)" stroke-opacity="1.0" stroke-linecap="round" stroke-linejoin="round"/>
    <path d="M 130.85409545898438 149.43557739257812 C 168.29127502441406 158.87615966796875 96.73201751708984 144.61605834960938 100.33806610107422 152.59019470214844" stroke-width="3.0" fill="none" stroke="rgb(0, 0, 0)" stroke-opacity="1.0" stroke-linecap="round" stroke-linejoin="round"/>
    <path d="M 177.68011474609375 6.852989673614502 C 190.42218017578125 20.288719177246094 169.19979858398438 101.3030014038086 182.2407684326172 58.58101272583008" stroke-width="3.0" fill="none" stroke="rgb(0, 0, 0)" stroke-opacity="1.0" stroke-linecap="round" stroke-linejoin="round"/>
    <path d="M 144.98875427246094 30.95980453491211 C 110.04912567138672 26.297727584838867 134.5625762939453 28.848487854003906 131.05433654785156 64.6128158569336" stroke-width="3.0" fill="none" stroke="rgb(0, 0, 0)" stroke-opacity="1.0" stroke-linecap="round" stroke-linejoin="round"/>
    <path d="M 102.7091293334961 46.76683807373047 C 62.83908462524414 -7.697786331176758 84.98323822021484 -0.14192119240760803 120.46507263183594 32.796260833740234" stroke-width="3.0" fill="none" stroke="rgb(0, 0, 0)" stroke-opacity="1.0" stroke-linecap="round" stroke-linejoin="round"/>
    <path d="M 44.969383239746094 162.29019165039062 C 46.31550979614258 157.45449829101562 39.31196594238281 156.245849609375 51.588226318359375 176.47561645507812" stroke-width="3.0" fill="none" stroke="rgb(0, 0, 0)" stroke-opacity="1.0" stroke-linecap="round" stroke-linejoin="round"/>
    <path d="M 58.97309112548828 66.83204650878906 C 22.72933578491211 121.86772918701172 41.556522369384766 141.8765106201172 45.065338134765625 162.7255096435547" stroke-width="3.0" fill="none" stroke="rgb(0, 0, 0)" stroke-opacity="1.0" stroke-linecap="round" stroke-linejoin="round"/>
    <path d="M 69.55577087402344 135.1910858154297 C 136.9958953857422 165.516357421875 106.3451919555664 149.8478240966797 86.20767211914062 141.98915100097656" stroke-width="3.0" fill="none" stroke="rgb(0, 0, 0)" stroke-opacity="1.0" stroke-linecap="round" stroke-linejoin="round"/>
    <path d="M 89.38652801513672 195.75514221191406 C 67.7422866821289 198.41395568847656 47.329566955566406 175.39974975585938 43.611854553222656 154.52899169921875" stroke-width="3.0" fill="none" stroke="rgb(0, 0, 0)" stroke-opacity="1.0" stroke-linecap="round" stroke-linejoin="round"/>
    <path d="M 49.83218765258789 173.16404724121094 C 66.58201599121094 202.00192260742188 47.98800277709961 175.61758422851562 38.114097595214844 144.177978515625" stroke-width="3.0" fill="none" stroke="rgb(0, 0, 0)" stroke-opacity="1.0" stroke-linecap="round" stroke-linejoin="round"/>
    <path d="M 83.47078704833984 54.28841018676758 C 57.43515396118164 60.20567321777344 64.50820922851562 68.91851806640625 38.129539489746094 118.04371643066406" stroke-width="3.0" fill="none" stroke="rgb(0, 0, 0)" stroke-opacity="1.0" stroke-linecap="round" stroke-linejoin="round"/>
    <path d="M 151.77804565429688 143.5500946044922 C 107.4334945678711 160.83482360839844 68.24044799804688 145.78028869628906 143.8773193359375 149.9947052001953" stroke-width="3.0" fill="none" stroke="rgb(0, 0, 0)" stroke-opacity="1.0" stroke-linecap="round" stroke-linejoin="round"/>
    <path d="M 150.51734924316406 27.634769439697266 C 146.39625549316406 34.00381851196289 137.4268341064453 13.443721771240234 137.80154418945312 73.51969146728516" stroke-width="3.0" fill="none" stroke="rgb(0, 0, 0)" stroke-opacity="1.0" stroke-linecap="round" stroke-linejoin="round"/>
    <path d="M 145.0240020751953 101.12457275390625 C 125.9774169921875 112.1305923461914 122.83509063720703 107.71754455566406 112.91073608398438 95.43018341064453" stroke-width="3.0" fill="none" stroke="rgb(0, 0, 0)" stroke-opacity="1.0" stroke-linecap="round" stroke-linejoin="round"/>
    <path d="M 136.79995727539062 72.10246276855469 C 140.40504455566406 53.4794807434082 133.1356201171875 68.13921356201172 139.5156707763672 70.43836212158203" stroke-width="3.0" fill="none" stroke="rgb(0, 0, 0)" stroke-opacity="1.0" stroke-linecap="round" stroke-linejoin="round"/>
    <path d="M 138.2917938232422 163.1311798095703 C 131.87838745117188 167.21615600585938 141.74400329589844 160.48825073242188 144.71759033203125 146.66119384765625" stroke-width="3.0" fill="none" stroke="rgb(0, 0, 0)" stroke-opacity="1.0" stroke-linecap="round" stroke-linejoin="round"/>
    <path d="M 194.92913818359375 97.11956024169922 C 169.15859985351562 64.27676391601562 182.81402587890625 63.20833206176758 186.96963500976562 99.44074249267578" stroke-width="3.0" fill="none" stroke="rgb(0, 0, 0)" stroke-opacity="1.0" stroke-linecap="round" stroke-linejoin="round"/>
    <path d="M 152.6499481201172 76.3172607421875 C 120.3707504272461 56.48371124267578 215.95619201660156 85.40838623046875 176.356689453125 62.41051483154297" stroke-width="3.0" fill="none" stroke="rgb(0, 0, 0)" stroke-opacity="1.0" stroke-linecap="round" stroke-linejoin="round"/>
    <path d="M 116.00150299072266 80.80343627929688 C 86.8197250366211 71.88202667236328 137.77467346191406 74.76395416259766 107.9889144897461 82.60784912109375" stroke-width="3.0" fill="none" stroke="rgb(0, 0, 0)" stroke-opacity="1.0" stroke-linecap="round" stroke-linejoin="round"/>
    <path d="M 168.47633361816406 130.16590881347656 C 159.06629943847656 155.437255859375 91.14189147949219 146.68231201171875 90.92604064941406 146.40977478027344" stroke-width="3.0" fill="none" stroke="rgb(0, 0, 0)" stroke-opacity="1.0" stroke-linecap="round" stroke-linejoin="round"/>
    <path d="M 121.20870208740234 89.2282485961914 C 143.74900817871094 98.3076171875 128.0712890625 73.61334228515625 129.10389709472656 108.56995391845703" stroke-width="3.0" fill="none" stroke="rgb(0, 0, 0)" stroke-opacity="1.0" stroke-linecap="round" stroke-linejoin="round"/>
    <path d="M 189.48162841796875 108.41937255859375 C 169.42044067382812 86.89835357666016 168.56268310546875 98.12130737304688 142.8484344482422 81.00537109375" stroke-width="3.0" fill="none" stroke="rgb(0, 0, 0)" stroke-opacity="1.0" stroke-linecap="round" stroke-linejoin="round"/>
    <path d="M 92.37796783447266 20.457660675048828 C 125.1570816040039 30.09779930114746 85.26930236816406 31.8553466796875 148.4597625732422 28.363691329956055" stroke-width="3.0" fill="none" stroke="rgb(0, 0, 0)" stroke-opacity="1.0" stroke-linecap="round" stroke-linejoin="round"/>
    <path d="M 64.32627868652344 112.95133972167969 C 60.34902572631836 96.77156066894531 45.99094009399414 118.67487335205078 69.7648696899414 133.35006713867188" stroke-width="3.0" fill="none" stroke="rgb(0, 0, 0)" stroke-opacity="1.0" stroke-linecap="round" stroke-linejoin="round"/>
    <path d="M 133.70118713378906 108.29142761230469 C 121.03331756591797 88.36231994628906 120.47615051269531 123.35942077636719 112.83702850341797 91.67083740234375" stroke-width="3.0" fill="none" stroke="rgb(0, 0, 0)" stroke-opacity="1.0" stroke-linecap="round" stroke-linejoin="round"/>
    <path d="M 38.40833282470703 146.33689880371094 C 23.583833694458008 121.02595520019531 38.63510513305664 74.42445373535156 66.12828826904297 61.22001266479492" stroke-width="3.0" fill="none" stroke="rgb(0, 0, 0)" stroke-opacity="1.0" stroke-linecap="round" stroke-linejoin="round"/>
    <path d="M 85.9371109008789 198.77345275878906 C 81.5141372680664 194.8318328857422 73.68834686279297 194.04290771484375 102.04893493652344 197.3893280029297" stroke-width="3.0" fill="none" stroke="rgb(0, 0, 0)" stroke-opacity="1.0" stroke-linecap="round" stroke-linejoin="round"/>
    <path d="M 170.98562622070312 129.7622528076172 C 198.74569702148438 111.77456665039062 193.63526916503906 87.91104888916016 148.7061767578125 90.38330078125" stroke-width="3.0" fill="none" stroke="rgb(0, 0, 0)" stroke-opacity="1.0" stroke-linecap="round" stroke-linejoin="round"/>
    <path d="M 159.23170471191406 70.12987518310547 C 129.3787841796875 79.03361511230469 167.99009704589844 83.3981704711914 154.40370178222656 68.65332794189453" stroke-width="3.0" fill="none" stroke="rgb(0, 0, 0)" stroke-opacity="1.0" stroke-linecap="round" stroke-linejoin="round"/>
    <path d="M 138.98387145996094 78.40560913085938 C 138.10952758789062 37.57384490966797 207.02191162109375 114.43547821044922 178.64407348632812 50.53657150268555" stroke-width="3.0" fill="none" stroke="rgb(0, 0, 0)" stroke-opacity="1.0" stroke-linecap="round" stroke-linejoin="round"/>
    <path d="M 157.36888122558594 98.43841552734375 C 174.36492919921875 108.58116912841797 183.44483947753906 101.88475036621094 186.4686737060547 123.93722534179688" stroke-width="3.0" fill="none" stroke="rgb(0, 0, 0)" stroke-opacity="1.0" stroke-linecap="round" stroke-linejoin="round"/>
    <path d="M 175.8635711669922 15.209715843200684 C 173.232666015625 45.312808990478516 175.36502075195312 22.295650482177734 160.16537475585938 40.53395462036133" stroke-width="3.0" fill="none" stroke="rgb(0, 0, 0)" stroke-opacity="1.0" stroke-linecap="round" stroke-linejoin="round"/>
    <path d="M 122.05750274658203 105.0973129272461 C 146.7472381591797 100.12432098388672 128.44097900390625 112.23545837402344 124.43921661376953 102.90223693847656" stroke-width="3.0" fill="none" stroke="rgb(0, 0, 0)" stroke-opacity="1.0" stroke-linecap="round" stroke-linejoin="round"/>
    <path d="M 61.2622184753418 103.32852935791016 C 57.36703872680664 103.3740463256836 56.07884979248047 113.11497497558594 61.073951721191406 109.95484161376953" stroke-width="3.0" fill="none" stroke="rgb(0, 0, 0)" stroke-opacity="1.0" stroke-linecap="round" stroke-linejoin="round"/>
    <path d="M 121.29315948486328 75.76058197021484 C 126.06404876708984 53.04719161987305 115.40413665771484 58.37742233276367 121.07563018798828 36.97550964355469" stroke-width="3.0" fill="none" stroke="rgb(0, 0, 0)" stroke-opacity="1.0" stroke-linecap="round" stroke-linejoin="round"/>
    <path d="M 144.84373474121094 31.250864028930664 C 143.47239685058594 38.9792366027832 160.9094696044922 9.604613304138184 175.4556121826172 7.442761421203613" stroke-width="3.0" fill="none" stroke="rgb(0, 0, 0)" stroke-opacity="1.0" stroke-linecap="round" stroke-linejoin="round"/>
  </g>
</svg>
