<?xml version="1.0" ?>
<svg xmlns="http://www.w3.org/2000/svg" version="1.1" width="224" height="224">
  <defs/>
  <g>
    <path d="M 61.01850891113281 99.80451965332031 C 66.19011688232422 93.90530395507812 52.0480842590332 89.32125091552734 65.06867980957031 63.10905456542969" stroke-width="3.0" fill="none" stroke="rgb(0, 0, 0)" stroke-opacity="1.0" stroke-linecap="round" stroke-linejoin="round"/>
    <path d="M 197.8959197998047 114.14398193359375 C 190.24171447753906 108.9610824584961 189.12417602539062 95.48747253417969 184.07728576660156 126.24103546142578" stroke-width="3.0" fill="none" stroke="rgb(0, 0, 0)" stroke-opacity="1.0" stroke-linecap="round" stroke-linejoin="round"/>
    <path d="M 60.49591064453125 122.766357421875 C 57.483802795410156 87.02149963378906 60.602046966552734 116.71461486816406 68.36369323730469 122.34788513183594" stroke-width="3.0" fill="none" stroke="rgb(0, 0, 0)" stroke-opacity="1.0" stroke-linecap="round" stroke-linejoin="round"/>
    <path d="M 187.7484893798828 94.74134063720703 C 141.88548278808594 75.20674133300781 188.62908935546875 75.81121063232422 188.33590698242188 103.33647155761719" stroke-width="3.0" fill="none" stroke="rgb(0, 0, 0)" stroke-opacity="1.0" stroke-linecap="round" stroke-linejoin="round"/>
    <path d="M 176.92657470703125 41.05418014526367 C 193.6994171142578 89.76164245605469 177.2725372314453 104.09758758544922 182.15325927734375 69.81974792480469" stroke-width="3.0" fill="none" stroke="rgb(0, 0, 0)" stroke-opacity="1.0" stroke-linecap="round" stroke-linejoin="round"/>
    <path d="M 131.22439575195312 100.8781509399414 C 153.42098999023438 116.12171173095703 98.95985412597656 103.432373046875 135.18984985351562 103.07597351074219" stroke-width="3.0" fill="none" stroke="rgb(0, 0, 0)" stroke-opacity="1.0" stroke-linecap="round" stroke-linejoin="round"/>
    <path d="M 183.12124633789062 82.55509948730469 C 178.1064910888672 77.3909912109375 198.50936889648438 75.54610443115234 154.64791870117188 89.29553985595703" stroke-width="3.0" fill="none" stroke="rgb(0, 0, 0)" stroke-opacity="1.0" stroke-linecap="round" stroke-linejoin="round"/>
    <path d="M 65.14071655273438 190.7825164794922 C 40.30400466918945 168.94712829589844 50.09608459472656 165.58189392089844 48.005374908447266 172.4756317138672" stroke-width="3.0" fill="none" stroke="rgb(0, 0, 0)" stroke-opacity="1.0" stroke-linecap="round" stroke-linejoin="round"/>
    <path d="M 58.939239501953125 186.07211303710938 C 83.3647232055664 214.12083435058594 132.68605041503906 197.48211669921875 135.71910095214844 166.32455444335938" stroke-width="3.0" fill="none" stroke="rgb(0, 0, 0)" stroke-opacity="1.0" stroke-linecap="round" stroke-linejoin="round"/>
    <path d="M 82.61451721191406 14.199661254882812 C 92.7831802368164 80.11312866210938 88.27923583984375 9.048203468322754 86.58580780029297 55.82426834106445" stroke-width="3.0" fill="none" stroke="rgb(0, 0, 0)" stroke-opacity="1.0" stroke-linecap="round" stroke-linejoin="round"/>
    <path d="M 60.95638656616211 85.53828430175781 C 59.431419372558594 138.400390625 75.8938217163086 134.5787811279297 61.36314392089844 121.56024169921875" stroke-width="3.0" fill="none" stroke="rgb(0, 0, 0)" stroke-opacity="1.0" stroke-linecap="round" stroke-linejoin="round"/>
    <path d="M 148.98284912109375 74.60320281982422 C 201.24087524414062 62.452903747558594 197.06106567382812 90.02039337158203 140.98196411132812 85.76953125" stroke-width="3.0" fill="none" stroke="rgb(0, 0, 0)" stroke-opacity="1.0" stroke-linecap="round" stroke-linejoin="round"/>
    <path d="M 148.0083770751953 96.69041442871094 C 177.3851318359375 97.17969512939453 181.04788208007812 99.20225524902344 193.82713317871094 110.66017150878906" stroke-width="3.0" fill="none" stroke="rgb(0, 0, 0)" stroke-opacity="1.0" stroke-linecap="round" stroke-linejoin="round"/>
    <path d="M 116.79393005371094 149.76409912109375 C 159.4121856689453 161.8792266845703 110.79268646240234 147.1892852783203 102.70243835449219 154.4058837890625" stroke-width="3.0" fill="none" stroke="rgb(0, 0, 0)" stroke-opacity="1.0" stroke-linecap="round" stroke-linejoin="round"/>
    <path d="M 178.09539794921875 8.812162399291992 C 187.81674194335938 22.10956382751465 168.2910614013672 93.11634063720703 180.51051330566406 47.78926086425781" stroke-width="3.0" fill="none" stroke="rgb(0, 0, 0)" stroke-opacity="1.0" stroke-linecap="round" stroke-linejoin="round"/>
    <path d="M 140.09046936035156 32.88156509399414 C 108.53508758544922 22.06519889831543 136.86373901367188 45.828128814697266 127.59003448486328 76.77053833007812" stroke-width="3.0" fill="none" stroke="rgb(0, 0, 0)" stroke-opacity="1.0" stroke-linecap="round" stroke-linejoin="round"/>
    <path d="M 105.0461196899414 50.47016525268555 C 63.24396896362305 -5.454493045806885 86.77975463867188 -0.4346475899219513 120.02410888671875 33.30208206176758" stroke-width="3.0" fill="none" stroke="rgb(0, 0, 0)" stroke-opacity="1.0" stroke-linecap="round" stroke-linejoin="round"/>
    <path d="M 48.31953430175781 169.38980102539062 C 43.631263732910156 158.69984436035156 40.626678466796875 152.8013458251953 48.285037994384766 171.25718688964844" stroke-width="3.0" fill="none" stroke="rgb(0, 0, 0)" stroke-opacity="1.0" stroke-linecap="round" stroke-linejoin="round"/>
    <path d="M 56.09004211425781 76.3878173828125 C 26.06792640686035 133.0174560546875 45.982303619384766 138.75669860839844 44.665061950683594 163.5359344482422" stroke-width="3.0" fill="none" stroke="rgb(0, 0, 0)" stroke-opacity="1.0" stroke-linecap="round" stroke-linejoin="round"/>
    <path d="M 70.73382568359375 138.0000762939453 C 132.2463836669922 161.26657104492188 96.79535675048828 152.3281707763672 88.64141082763672 144.4169158935547" stroke-width="3.0" fill="none" stroke="rgb(0, 0, 0)" stroke-opacity="1.0" stroke-linecap="round" stroke-linejoin="round"/>
    <path d="M 85.83893585205078 197.93064880371094 C 68.88379669189453 198.98654174804688 48.81141662597656 175.07948303222656 45.83958053588867 166.2874298095703" stroke-width="3.0" fill="none" stroke="rgb(0, 0, 0)" stroke-opacity="1.0" stroke-linecap="round" stroke-linejoin="round"/>
    <path d="M 48.93594741821289 173.34202575683594 C 66.84420776367188 198.43218994140625 45.42497634887695 175.9340057373047 41.084922790527344 146.47743225097656" stroke-width="3.0" fill="none" stroke="rgb(0, 0, 0)" stroke-opacity="1.0" stroke-linecap="round" stroke-linejoin="round"/>
    <path d="M 83.65470886230469 61.63175964355469 C 57.27535629272461 58.15900802612305 53.36083984375 73.42462921142578 42.09101486206055 112.52503967285156" stroke-width="3.0" fill="none" stroke="rgb(0, 0, 0)" stroke-opacity="1.0" stroke-linecap="round" stroke-linejoin="round"/>
    <path d="M 160.04161071777344 140.86148071289062 C 105.03987121582031 157.55433654785156 88.74396514892578 162.7254180908203 147.60140991210938 149.6866455078125" stroke-width="3.0" fill="none" stroke="rgb(0, 0, 0)" stroke-opacity="1.0" stroke-linecap="round" stroke-linejoin="round"/>
    <path d="M 149.8534698486328 26.372474670410156 C 148.470458984375 29.277332305908203 136.98414611816406 16.9299259185791 137.1311798095703 76.70125579833984" stroke-width="3.0" fill="none" stroke="rgb(0, 0, 0)" stroke-opacity="1.0" stroke-linecap="round" stroke-linejoin="round"/>
    <path d="M 143.5714569091797 98.98915100097656 C 121.3849868774414 111.92688751220703 119.05058288574219 107.43795776367188 113.41223907470703 98.47926330566406" stroke-width="3.0" fill="none" stroke="rgb(0, 0, 0)" stroke-opacity="1.0" stroke-linecap="round" stroke-linejoin="round"/>
    <path d="M 137.1181640625 70.21482849121094 C 143.89576721191406 53.532379150390625 129.6490478515625 62.64777755737305 139.312255859375 81.43146514892578" stroke-width="3.0" fill="none" stroke="rgb(0, 0, 0)" stroke-opacity="1.0" stroke-linecap="round" stroke-linejoin="round"/>
    <path d="M 140.62612915039062 160.42819213867188 C 129.50534057617188 175.77044677734375 141.8238983154297 167.20281982421875 140.65452575683594 147.19818115234375" stroke-width="3.0" fill="none" stroke="rgb(0, 0, 0)" stroke-opacity="1.0" stroke-linecap="round" stroke-linejoin="round"/>
    <path d="M 195.43899536132812 95.55241394042969 C 171.30152893066406 63.581031799316406 171.50038146972656 73.3176498413086 185.66294860839844 84.52933502197266" stroke-width="3.0" fill="none" stroke="rgb(0, 0, 0)" stroke-opacity="1.0" stroke-linecap="round" stroke-linejoin="round"/>
    <path d="M 149.3641815185547 78.33244323730469 C 127.4939193725586 53.126041412353516 205.17770385742188 91.52711486816406 176.04576110839844 63.92855453491211" stroke-width="3.0" fill="none" stroke="rgb(0, 0, 0)" stroke-opacity="1.0" stroke-linecap="round" stroke-linejoin="round"/>
    <path d="M 109.38285827636719 79.34407806396484 C 73.71662139892578 70.87762451171875 138.75076293945312 69.92494201660156 107.51748657226562 76.00093078613281" stroke-width="3.0" fill="none" stroke="rgb(0, 0, 0)" stroke-opacity="1.0" stroke-linecap="round" stroke-linejoin="round"/>
    <path d="M 166.57064819335938 131.61932373046875 C 146.4849853515625 159.4076690673828 105.55230712890625 148.98536682128906 99.14762115478516 151.57557678222656" stroke-width="3.0" fill="none" stroke="rgb(0, 0, 0)" stroke-opacity="1.0" stroke-linecap="round" stroke-linejoin="round"/>
    <path d="M 122.88742065429688 89.68891906738281 C 142.1935272216797 100.57093811035156 130.3965301513672 64.2165756225586 128.05178833007812 104.53153228759766" stroke-width="3.0" fill="none" stroke="rgb(0, 0, 0)" stroke-opacity="1.0" stroke-linecap="round" stroke-linejoin="round"/>
    <path d="M 192.386962890625 115.64173889160156 C 161.23321533203125 87.15324401855469 171.13836669921875 98.3669204711914 145.13363647460938 86.74816131591797" stroke-width="3.0" fill="none" stroke="rgb(0, 0, 0)" stroke-opacity="1.0" stroke-linecap="round" stroke-linejoin="round"/>
    <path d="M 92.45379638671875 25.843154907226562 C 126.72359466552734 28.599262237548828 89.48279571533203 33.807369232177734 142.81517028808594 29.324708938598633" stroke-width="3.0" fill="none" stroke="rgb(0, 0, 0)" stroke-opacity="1.0" stroke-linecap="round" stroke-linejoin="round"/>
    <path d="M 61.31905746459961 117.04904174804688 C 63.67292785644531 107.8331069946289 55.33803939819336 124.7791519165039 71.36786651611328 135.27052307128906" stroke-width="3.0" fill="none" stroke="rgb(0, 0, 0)" stroke-opacity="1.0" stroke-linecap="round" stroke-linejoin="round"/>
    <path d="M 135.23374938964844 102.56092834472656 C 117.24192810058594 93.8066177368164 120.54650115966797 119.91118621826172 108.16658782958984 88.05181884765625" stroke-width="3.0" fill="none" stroke="rgb(0, 0, 0)" stroke-opacity="1.0" stroke-linecap="round" stroke-linejoin="round"/>
    <path d="M 39.66950607299805 147.0540313720703 C 27.799942016601562 124.03618621826172 34.321712493896484 83.78397369384766 58.39216232299805 66.84007263183594" stroke-width="3.0" fill="none" stroke="rgb(0, 0, 0)" stroke-opacity="1.0" stroke-linecap="round" stroke-linejoin="round"/>
    <path d="M 108.90234375 195.6752471923828 C 78.83961486816406 198.12326049804688 72.51725006103516 196.59774780273438 105.30923461914062 197.9325714111328" stroke-width="3.0" fill="none" stroke="rgb(0, 0, 0)" stroke-opacity="1.0" stroke-linecap="round" stroke-linejoin="round"/>
    <path d="M 169.34898376464844 129.78192138671875 C 203.0585479736328 122.57560729980469 188.44058227539062 86.5827865600586 157.1703338623047 89.8460464477539" stroke-width="3.0" fill="none" stroke="rgb(0, 0, 0)" stroke-opacity="1.0" stroke-linecap="round" stroke-linejoin="round"/>
    <path d="M 153.88540649414062 71.27747344970703 C 133.600341796875 87.28814697265625 168.79991149902344 76.92400360107422 147.9823760986328 71.33499908447266" stroke-width="3.0" fill="none" stroke="rgb(0, 0, 0)" stroke-opacity="1.0" stroke-linecap="round" stroke-linejoin="round"/>
    <path d="M 140.55551147460938 75.92549896240234 C 142.67308044433594 40.99033737182617 197.74757385253906 112.56261444091797 174.44845581054688 46.132789611816406" stroke-width="3.0" fill="none" stroke="rgb(0, 0, 0)" stroke-opacity="1.0" stroke-linecap="round" stroke-linejoin="round"/>
    <path d="M 153.84580993652344 97.26878356933594 C 176.57073974609375 107.45405578613281 174.51156616210938 100.08328247070312 184.5989990234375 121.39501953125" stroke-width="3.0" fill="none" stroke="rgb(0, 0, 0)" stroke-opacity="1.0" stroke-linecap="round" stroke-linejoin="round"/>
    <path d="M 175.55267333984375 16.277381896972656 C 172.866943359375 44.501976013183594 175.72732543945312 23.492481231689453 168.0673828125 41.197017669677734" stroke-width="3.0" fill="none" stroke="rgb(0, 0, 0)" stroke-opacity="1.0" stroke-linecap="round" stroke-linejoin="round"/>
    <path d="M 122.1531982421875 105.5531997680664 C 144.9752960205078 102.45183563232422 130.30381774902344 116.83307647705078 120.61842346191406 104.9124984741211" stroke-width="3.0" fill="none" stroke="rgb(0, 0, 0)" stroke-opacity="1.0" stroke-linecap="round" stroke-linejoin="round"/>
    <path d="M 63.800270080566406 112.45519256591797 C 60.782833099365234 107.84276580810547 62.7982292175293 108.72838592529297 61.85651397705078 119.79022979736328" stroke-width="3.0" fill="none" stroke="rgb(0, 0, 0)" stroke-opacity="1.0" stroke-linecap="round" stroke-linejoin="round"/>
    <path d="M 121.97720336914062 71.8198013305664 C 118.44063568115234 44.487979888916016 109.48164367675781 60.880069732666016 117.4714126586914 29.550458908081055" stroke-width="3.0" fill="none" stroke="rgb(0, 0, 0)" stroke-opacity="1.0" stroke-linecap="round" stroke-linejoin="round"/>
    <path d="M 150.79678344726562 27.727981567382812 C 144.1588134765625 34.760101318359375 162.58071899414062 7.909759998321533 176.90174865722656 9.029878616333008" stroke-width="3.0" fill="none" stroke="rgb(0, 0, 0)" stroke-opacity="1.0" stroke-linecap="round" stroke-linejoin="round"/>
  </g>
</svg>
