<?xml version="1.0" ?>
<svg xmlns="http://www.w3.org/2000/svg" version="1.1" width="224" height="224">
  <defs/>
  <g>
    <path d="M 64.66858673095703 80.61150360107422 C 65.79936981201172 81.62023162841797 67.5858383178711 82.56961822509766 54.64842224121094 74.24983978271484" stroke-width="3.0" fill="none" stroke="rgb(0, 0, 0)" stroke-opacity="1.0" stroke-linecap="round" stroke-linejoin="round"/>
    <path d="M 186.20936584472656 122.34007263183594 C 180.46995544433594 115.52447509765625 198.3090057373047 93.97859954833984 178.77732849121094 126.72002410888672" stroke-width="3.0" fill="none" stroke="rgb(0, 0, 0)" stroke-opacity="1.0" stroke-linecap="round" stroke-linejoin="round"/>
    <path d="M 61.183555603027344 128.0017852783203 C 49.92692184448242 102.24647521972656 49.64023971557617 125.22731018066406 69.61231231689453 125.66151428222656" stroke-width="3.0" fill="none" stroke="rgb(0, 0, 0)" stroke-opacity="1.0" stroke-linecap="round" stroke-linejoin="round"/>
    <path d="M 183.43545532226562 97.58991241455078 C 152.98411560058594 84.07332611083984 174.94638061523438 81.37835693359375 195.70997619628906 114.22402954101562" stroke-width="3.0" fill="none" stroke="rgb(0, 0, 0)" stroke-opacity="1.0" stroke-linecap="round" stroke-linejoin="round"/>
    <path d="M 181.67698669433594 58.65717315673828 C 173.70938110351562 110.30815124511719 180.12286376953125 97.01168823242188 184.31300354003906 65.25206756591797" stroke-width="3.0" fill="none" stroke="rgb(0, 0, 0)" stroke-opacity="1.0" stroke-linecap="round" stroke-linejoin="round"/>
    <path d="M 123.302001953125 102.93213653564453 C 146.11033630371094 115.78498077392578 100.92635345458984 98.7606201171875 135.3411102294922 101.8614730834961" stroke-width="3.0" fill="none" stroke="rgb(0, 0, 0)" stroke-opacity="1.0" stroke-linecap="round" stroke-linejoin="round"/>
    <path d="M 173.62205505371094 100.18238830566406 C 189.79995727539062 85.5871353149414 177.6511688232422 71.44065856933594 160.2933349609375 87.03351593017578" stroke-width="3.0" fill="none" stroke="rgb(0, 0, 0)" stroke-opacity="1.0" stroke-linecap="round" stroke-linejoin="round"/>
    <path d="M 57.789005279541016 183.79794311523438 C 37.74125289916992 155.51170349121094 46.64445877075195 167.67041015625 50.09972381591797 173.7907257080078" stroke-width="3.0" fill="none" stroke="rgb(0, 0, 0)" stroke-opacity="1.0" stroke-linecap="round" stroke-linejoin="round"/>
    <path d="M 58.12810134887695 183.8741912841797 C 86.13004302978516 210.18495178222656 113.27301025390625 195.37225341796875 130.9373016357422 178.6574249267578" stroke-width="3.0" fill="none" stroke="rgb(0, 0, 0)" stroke-opacity="1.0" stroke-linecap="round" stroke-linejoin="round"/>
    <path d="M 87.78966522216797 31.514881134033203 C 101.38978576660156 67.05632019042969 84.08224487304688 13.778564453125 86.85589599609375 53.2110710144043" stroke-width="3.0" fill="none" stroke="rgb(0, 0, 0)" stroke-opacity="1.0" stroke-linecap="round" stroke-linejoin="round"/>
    <path d="M 55.35506820678711 113.09632873535156 C 59.364501953125 136.01722717285156 98.84606170654297 158.0381317138672 98.59968566894531 155.60003662109375" stroke-width="3.0" fill="none" stroke="rgb(0, 0, 0)" stroke-opacity="1.0" stroke-linecap="round" stroke-linejoin="round"/>
    <path d="M 142.8766326904297 76.03997039794922 C 203.3842010498047 62.63990020751953 187.404296875 82.79165649414062 152.86215209960938 86.79307556152344" stroke-width="3.0" fill="none" stroke="rgb(0, 0, 0)" stroke-opacity="1.0" stroke-linecap="round" stroke-linejoin="round"/>
    <path d="M 149.82421875 96.39629364013672 C 181.99166870117188 102.48129272460938 175.5894012451172 103.68274688720703 195.0387420654297 112.41729736328125" stroke-width="3.0" fill="none" stroke="rgb(0, 0, 0)" stroke-opacity="1.0" stroke-linecap="round" stroke-linejoin="round"/>
    <path d="M 122.8869857788086 153.93777465820312 C 143.4019775390625 142.587646484375 118.24242401123047 160.43199157714844 119.9781494140625 151.84930419921875" stroke-width="3.0" fill="none" stroke="rgb(0, 0, 0)" stroke-opacity="1.0" stroke-linecap="round" stroke-linejoin="round"/>
    <path d="M 178.97677612304688 8.811086654663086 C 188.0201416015625 20.63709831237793 173.97695922851562 60.238616943359375 180.1385040283203 50.310447692871094" stroke-width="3.0" fill="none" stroke="rgb(0, 0, 0)" stroke-opacity="1.0" stroke-linecap="round" stroke-linejoin="round"/>
    <path d="M 129.1826171875 31.30752182006836 C 122.3315200805664 56.1737174987793 131.58851623535156 38.95071029663086 124.55455017089844 66.90397644042969" stroke-width="3.0" fill="none" stroke="rgb(0, 0, 0)" stroke-opacity="1.0" stroke-linecap="round" stroke-linejoin="round"/>
    <path d="M 91.61888122558594 51.43052673339844 C 75.64881134033203 -7.14799165725708 83.14556121826172 -0.16003040969371796 109.21359252929688 40.16083526611328" stroke-width="3.0" fill="none" stroke="rgb(0, 0, 0)" stroke-opacity="1.0" stroke-linecap="round" stroke-linejoin="round"/>
    <path d="M 43.724037170410156 164.56385803222656 C 41.00751495361328 153.741943359375 41.29924774169922 146.000732421875 43.74026870727539 161.58238220214844" stroke-width="3.0" fill="none" stroke="rgb(0, 0, 0)" stroke-opacity="1.0" stroke-linecap="round" stroke-linejoin="round"/>
    <path d="M 36.28511428833008 104.2055892944336 C 22.51197624206543 124.64752960205078 38.73899841308594 145.142822265625 40.18348693847656 150.24122619628906" stroke-width="3.0" fill="none" stroke="rgb(0, 0, 0)" stroke-opacity="1.0" stroke-linecap="round" stroke-linejoin="round"/>
    <path d="M 96.69548034667969 154.5010223388672 C 101.17604064941406 161.3657684326172 114.02855682373047 154.80592346191406 103.8028564453125 153.3846893310547" stroke-width="3.0" fill="none" stroke="rgb(0, 0, 0)" stroke-opacity="1.0" stroke-linecap="round" stroke-linejoin="round"/>
    <path d="M 81.58453369140625 196.527099609375 C 67.75897979736328 200.97715759277344 53.89128494262695 175.81214904785156 48.31584930419922 173.01719665527344" stroke-width="3.0" fill="none" stroke="rgb(0, 0, 0)" stroke-opacity="1.0" stroke-linecap="round" stroke-linejoin="round"/>
    <path d="M 45.78178024291992 166.62911987304688 C 59.46843719482422 192.18960571289062 43.893714904785156 163.880859375 37.29951477050781 147.1484832763672" stroke-width="3.0" fill="none" stroke="rgb(0, 0, 0)" stroke-opacity="1.0" stroke-linecap="round" stroke-linejoin="round"/>
    <path d="M 80.61743927001953 55.50797653198242 C 58.460548400878906 54.719722747802734 49.39602279663086 73.06472778320312 32.18802261352539 107.47126770019531" stroke-width="3.0" fill="none" stroke="rgb(0, 0, 0)" stroke-opacity="1.0" stroke-linecap="round" stroke-linejoin="round"/>
    <path d="M 147.96368408203125 140.9468231201172 C 127.72322082519531 157.71630859375 118.92384338378906 149.7361602783203 130.73892211914062 153.97264099121094" stroke-width="3.0" fill="none" stroke="rgb(0, 0, 0)" stroke-opacity="1.0" stroke-linecap="round" stroke-linejoin="round"/>
    <path d="M 139.16712951660156 30.50437355041504 C 147.7740020751953 61.48695373535156 136.60720825195312 54.40896224975586 135.27272033691406 80.16390991210938" stroke-width="3.0" fill="none" stroke="rgb(0, 0, 0)" stroke-opacity="1.0" stroke-linecap="round" stroke-linejoin="round"/>
    <path d="M 148.8566436767578 99.90550994873047 C 117.70599365234375 111.34774780273438 138.96664428710938 108.36122131347656 136.79673767089844 103.91493225097656" stroke-width="3.0" fill="none" stroke="rgb(0, 0, 0)" stroke-opacity="1.0" stroke-linecap="round" stroke-linejoin="round"/>
    <path d="M 136.70236206054688 75.2059326171875 C 145.91943359375 57.942352294921875 132.85646057128906 61.49325180053711 134.91802978515625 74.18501281738281" stroke-width="3.0" fill="none" stroke="rgb(0, 0, 0)" stroke-opacity="1.0" stroke-linecap="round" stroke-linejoin="round"/>
    <path d="M 136.0154571533203 175.0095672607422 C 125.39224243164062 185.31834411621094 139.7666778564453 179.31471252441406 145.75833129882812 150.65557861328125" stroke-width="3.0" fill="none" stroke="rgb(0, 0, 0)" stroke-opacity="1.0" stroke-linecap="round" stroke-linejoin="round"/>
    <path d="M 194.0918731689453 97.10568237304688 C 167.31661987304688 73.48764038085938 157.5833740234375 80.45352172851562 183.0469512939453 86.50537109375" stroke-width="3.0" fill="none" stroke="rgb(0, 0, 0)" stroke-opacity="1.0" stroke-linecap="round" stroke-linejoin="round"/>
    <path d="M 149.13946533203125 78.9688949584961 C 160.7295684814453 61.353660583496094 195.326904296875 83.35372161865234 178.97901916503906 65.43199920654297" stroke-width="3.0" fill="none" stroke="rgb(0, 0, 0)" stroke-opacity="1.0" stroke-linecap="round" stroke-linejoin="round"/>
    <path d="M 115.06086730957031 82.37255859375 C 84.9605712890625 77.78327941894531 138.27200317382812 75.89322662353516 109.05081939697266 83.38321685791016" stroke-width="3.0" fill="none" stroke="rgb(0, 0, 0)" stroke-opacity="1.0" stroke-linecap="round" stroke-linejoin="round"/>
    <path d="M 153.4869842529297 136.6444091796875 C 134.88784790039062 167.98500061035156 111.68167877197266 146.22463989257812 101.74756622314453 156.43692016601562" stroke-width="3.0" fill="none" stroke="rgb(0, 0, 0)" stroke-opacity="1.0" stroke-linecap="round" stroke-linejoin="round"/>
    <path d="M 125.87288665771484 91.26094818115234 C 142.49293518066406 102.45547485351562 135.87252807617188 71.93926239013672 129.26425170898438 106.11963653564453" stroke-width="3.0" fill="none" stroke="rgb(0, 0, 0)" stroke-opacity="1.0" stroke-linecap="round" stroke-linejoin="round"/>
    <path d="M 192.18153381347656 112.2854995727539 C 179.2239532470703 82.86038970947266 188.07583618164062 92.59150695800781 141.58409118652344 85.2343521118164" stroke-width="3.0" fill="none" stroke="rgb(0, 0, 0)" stroke-opacity="1.0" stroke-linecap="round" stroke-linejoin="round"/>
    <path d="M 85.16460418701172 9.18730354309082 C 100.57286071777344 13.742805480957031 116.32505798339844 31.21460723876953 118.12950897216797 30.524188995361328" stroke-width="3.0" fill="none" stroke="rgb(0, 0, 0)" stroke-opacity="1.0" stroke-linecap="round" stroke-linejoin="round"/>
    <path d="M 59.96186447143555 125.30083465576172 C 55.1696891784668 115.05207061767578 64.19082641601562 132.86834716796875 58.12053680419922 122.71308135986328" stroke-width="3.0" fill="none" stroke="rgb(0, 0, 0)" stroke-opacity="1.0" stroke-linecap="round" stroke-linejoin="round"/>
    <path d="M 137.944091796875 106.025634765625 C 120.34996032714844 94.54066467285156 122.36225128173828 115.7541732788086 109.83616638183594 92.3600082397461" stroke-width="3.0" fill="none" stroke="rgb(0, 0, 0)" stroke-opacity="1.0" stroke-linecap="round" stroke-linejoin="round"/>
    <path d="M 32.68812561035156 132.6100616455078 C 28.066072463989258 105.16388702392578 38.515201568603516 107.68339538574219 40.12808609008789 94.11248779296875" stroke-width="3.0" fill="none" stroke="rgb(0, 0, 0)" stroke-opacity="1.0" stroke-linecap="round" stroke-linejoin="round"/>
    <path d="M 80.25113677978516 196.8437042236328 C 71.58695983886719 195.02809143066406 67.85651397705078 194.39971923828125 94.14346313476562 196.84730529785156" stroke-width="3.0" fill="none" stroke="rgb(0, 0, 0)" stroke-opacity="1.0" stroke-linecap="round" stroke-linejoin="round"/>
    <path d="M 155.59678649902344 135.2701873779297 C 205.80081176757812 117.09248352050781 179.36849975585938 97.92887115478516 154.2050323486328 92.01338958740234" stroke-width="3.0" fill="none" stroke="rgb(0, 0, 0)" stroke-opacity="1.0" stroke-linecap="round" stroke-linejoin="round"/>
    <path d="M 157.70578002929688 73.23704528808594 C 123.414306640625 83.03274536132812 175.5355682373047 82.34698486328125 147.31124877929688 69.92448425292969" stroke-width="3.0" fill="none" stroke="rgb(0, 0, 0)" stroke-opacity="1.0" stroke-linecap="round" stroke-linejoin="round"/>
    <path d="M 141.11831665039062 80.76547241210938 C 150.18153381347656 41.232017517089844 195.65782165527344 112.10275268554688 179.79501342773438 43.81830978393555" stroke-width="3.0" fill="none" stroke="rgb(0, 0, 0)" stroke-opacity="1.0" stroke-linecap="round" stroke-linejoin="round"/>
    <path d="M 157.4409942626953 99.99067687988281 C 170.29852294921875 102.15595245361328 170.8277130126953 103.484619140625 182.39266967773438 116.852294921875" stroke-width="3.0" fill="none" stroke="rgb(0, 0, 0)" stroke-opacity="1.0" stroke-linecap="round" stroke-linejoin="round"/>
    <path d="M 178.97364807128906 19.590360641479492 C 173.34385681152344 42.615352630615234 177.13864135742188 23.152650833129883 160.85311889648438 38.3956413269043" stroke-width="3.0" fill="none" stroke="rgb(0, 0, 0)" stroke-opacity="1.0" stroke-linecap="round" stroke-linejoin="round"/>
    <path d="M 119.52216339111328 102.06402587890625 C 142.77532958984375 103.2352294921875 131.64028930664062 114.7479019165039 120.56122589111328 102.7645034790039" stroke-width="3.0" fill="none" stroke="rgb(0, 0, 0)" stroke-opacity="1.0" stroke-linecap="round" stroke-linejoin="round"/>
    <path d="M 73.1539077758789 135.56031799316406 C 49.01204299926758 119.74087524414062 58.99076843261719 108.0517578125 59.00236892700195 126.38929748535156" stroke-width="3.0" fill="none" stroke="rgb(0, 0, 0)" stroke-opacity="1.0" stroke-linecap="round" stroke-linejoin="round"/>
    <path d="M 121.99917602539062 77.59175109863281 C 127.21949768066406 36.22050476074219 116.0222396850586 55.64540481567383 122.81752014160156 31.650081634521484" stroke-width="3.0" fill="none" stroke="rgb(0, 0, 0)" stroke-opacity="1.0" stroke-linecap="round" stroke-linejoin="round"/>
    <path d="M 147.4434356689453 32.644203186035156 C 145.37103271484375 40.46524429321289 158.9115447998047 9.628499031066895 178.3665771484375 8.156098365783691" stroke-width="3.0" fill="none" stroke="rgb(0, 0, 0)" stroke-opacity="1.0" stroke-linecap="round" stroke-linejoin="round"/>
  </g>
</svg>
