<?xml version="1.0" ?>
<svg xmlns="http://www.w3.org/2000/svg" version="1.1" width="224" height="224">
  <defs/>
  <g>
    <path d="M 64.8189926147461 80.15438079833984 C 67.80376434326172 81.03502655029297 68.05923461914062 81.37168884277344 54.30167007446289 74.24874114990234" stroke-width="3.0" fill="none" stroke="rgb(0, 0, 0)" stroke-opacity="1.0" stroke-linecap="round" stroke-linejoin="round"/>
    <path d="M 184.39231872558594 122.50360870361328 C 177.5164794921875 115.64620208740234 196.2360382080078 93.69918823242188 175.13418579101562 129.56307983398438" stroke-width="3.0" fill="none" stroke="rgb(0, 0, 0)" stroke-opacity="1.0" stroke-linecap="round" stroke-linejoin="round"/>
    <path d="M 58.80156326293945 122.1435546875 C 51.82358932495117 107.38117218017578 48.9620246887207 113.44336700439453 71.68488311767578 135.3081817626953" stroke-width="3.0" fill="none" stroke="rgb(0, 0, 0)" stroke-opacity="1.0" stroke-linecap="round" stroke-linejoin="round"/>
    <path d="M 186.71548461914062 101.31837463378906 C 155.1781005859375 84.51703643798828 174.331298828125 83.77446746826172 195.97669982910156 113.2022705078125" stroke-width="3.0" fill="none" stroke="rgb(0, 0, 0)" stroke-opacity="1.0" stroke-linecap="round" stroke-linejoin="round"/>
    <path d="M 180.58538818359375 65.0421142578125 C 180.7233428955078 107.09042358398438 186.50360107421875 96.63426971435547 182.58946228027344 59.681270599365234" stroke-width="3.0" fill="none" stroke="rgb(0, 0, 0)" stroke-opacity="1.0" stroke-linecap="round" stroke-linejoin="round"/>
    <path d="M 123.74461364746094 102.5445556640625 C 147.68861389160156 113.86410522460938 101.76092529296875 99.13327026367188 134.5014190673828 102.99996948242188" stroke-width="3.0" fill="none" stroke="rgb(0, 0, 0)" stroke-opacity="1.0" stroke-linecap="round" stroke-linejoin="round"/>
    <path d="M 171.95001220703125 98.78079223632812 C 192.986572265625 84.21405792236328 181.55166625976562 70.33403015136719 160.73866271972656 88.13258361816406" stroke-width="3.0" fill="none" stroke="rgb(0, 0, 0)" stroke-opacity="1.0" stroke-linecap="round" stroke-linejoin="round"/>
    <path d="M 56.81163787841797 182.7936553955078 C 38.774696350097656 154.75765991210938 48.02632522583008 166.25555419921875 49.620079040527344 173.29115295410156" stroke-width="3.0" fill="none" stroke="rgb(0, 0, 0)" stroke-opacity="1.0" stroke-linecap="round" stroke-linejoin="round"/>
    <path d="M 56.35857009887695 183.56288146972656 C 88.88088989257812 208.76492309570312 115.56184387207031 196.009521484375 132.61766052246094 180.71595764160156" stroke-width="3.0" fill="none" stroke="rgb(0, 0, 0)" stroke-opacity="1.0" stroke-linecap="round" stroke-linejoin="round"/>
    <path d="M 86.98971557617188 32.22224044799805 C 105.41661834716797 61.31937789916992 84.37198638916016 11.005162239074707 86.97607421875 51.34293746948242" stroke-width="3.0" fill="none" stroke="rgb(0, 0, 0)" stroke-opacity="1.0" stroke-linecap="round" stroke-linejoin="round"/>
    <path d="M 56.48563003540039 115.70929718017578 C 56.41447067260742 135.6532745361328 99.82315826416016 159.22227478027344 96.52349090576172 155.7174835205078" stroke-width="3.0" fill="none" stroke="rgb(0, 0, 0)" stroke-opacity="1.0" stroke-linecap="round" stroke-linejoin="round"/>
    <path d="M 144.7541961669922 73.74551391601562 C 203.4827880859375 63.94672393798828 185.1415557861328 81.14221954345703 149.56973266601562 88.38648223876953" stroke-width="3.0" fill="none" stroke="rgb(0, 0, 0)" stroke-opacity="1.0" stroke-linecap="round" stroke-linejoin="round"/>
    <path d="M 151.20286560058594 96.48167419433594 C 181.6782989501953 100.6818618774414 178.3187255859375 101.69831085205078 189.64682006835938 110.90653228759766" stroke-width="3.0" fill="none" stroke="rgb(0, 0, 0)" stroke-opacity="1.0" stroke-linecap="round" stroke-linejoin="round"/>
    <path d="M 122.69375610351562 159.25994873046875 C 145.1270294189453 146.4013671875 118.59481811523438 163.2079315185547 121.7834243774414 153.93214416503906" stroke-width="3.0" fill="none" stroke="rgb(0, 0, 0)" stroke-opacity="1.0" stroke-linecap="round" stroke-linejoin="round"/>
    <path d="M 177.5647430419922 8.469094276428223 C 190.28009033203125 18.458072662353516 175.84466552734375 62.13656997680664 178.81536865234375 48.89959716796875" stroke-width="3.0" fill="none" stroke="rgb(0, 0, 0)" stroke-opacity="1.0" stroke-linecap="round" stroke-linejoin="round"/>
    <path d="M 129.90513610839844 31.919715881347656 C 122.1464614868164 55.795127868652344 131.9503936767578 33.42005157470703 126.27633666992188 69.88085174560547" stroke-width="3.0" fill="none" stroke="rgb(0, 0, 0)" stroke-opacity="1.0" stroke-linecap="round" stroke-linejoin="round"/>
    <path d="M 93.91121673583984 45.58172607421875 C 73.55669403076172 -2.746225595474243 85.33837890625 0.6702297925949097 104.83953857421875 41.923946380615234" stroke-width="3.0" fill="none" stroke="rgb(0, 0, 0)" stroke-opacity="1.0" stroke-linecap="round" stroke-linejoin="round"/>
    <path d="M 44.8864631652832 163.57040405273438 C 38.8018798828125 154.59307861328125 38.4645881652832 147.0794677734375 42.49711227416992 158.76644897460938" stroke-width="3.0" fill="none" stroke="rgb(0, 0, 0)" stroke-opacity="1.0" stroke-linecap="round" stroke-linejoin="round"/>
    <path d="M 34.51543045043945 102.74922943115234 C 23.8866024017334 128.8054656982422 37.078983306884766 146.27476501464844 41.698055267333984 152.35838317871094" stroke-width="3.0" fill="none" stroke="rgb(0, 0, 0)" stroke-opacity="1.0" stroke-linecap="round" stroke-linejoin="round"/>
    <path d="M 89.74285125732422 150.64105224609375 C 100.7684326171875 160.71397399902344 115.0968246459961 145.9224090576172 104.49131774902344 160.09963989257812" stroke-width="3.0" fill="none" stroke="rgb(0, 0, 0)" stroke-opacity="1.0" stroke-linecap="round" stroke-linejoin="round"/>
    <path d="M 82.68543243408203 196.26795959472656 C 67.9176025390625 199.22659301757812 51.957801818847656 177.29815673828125 49.7379264831543 172.67340087890625" stroke-width="3.0" fill="none" stroke="rgb(0, 0, 0)" stroke-opacity="1.0" stroke-linecap="round" stroke-linejoin="round"/>
    <path d="M 44.85362243652344 164.0773468017578 C 58.597145080566406 194.5382080078125 46.68746566772461 162.1126251220703 34.74243927001953 144.13890075683594" stroke-width="3.0" fill="none" stroke="rgb(0, 0, 0)" stroke-opacity="1.0" stroke-linecap="round" stroke-linejoin="round"/>
    <path d="M 81.99335479736328 54.11869430541992 C 55.653709411621094 57.44841384887695 50.321651458740234 71.94335174560547 33.508419036865234 106.73027801513672" stroke-width="3.0" fill="none" stroke="rgb(0, 0, 0)" stroke-opacity="1.0" stroke-linecap="round" stroke-linejoin="round"/>
    <path d="M 147.9933319091797 141.5599822998047 C 128.48121643066406 160.8476104736328 120.606689453125 150.94996643066406 128.72628784179688 152.5652313232422" stroke-width="3.0" fill="none" stroke="rgb(0, 0, 0)" stroke-opacity="1.0" stroke-linecap="round" stroke-linejoin="round"/>
    <path d="M 139.79409790039062 30.896286010742188 C 145.8585662841797 61.39254379272461 135.67465209960938 54.11027908325195 136.9282989501953 77.58403015136719" stroke-width="3.0" fill="none" stroke="rgb(0, 0, 0)" stroke-opacity="1.0" stroke-linecap="round" stroke-linejoin="round"/>
    <path d="M 147.32347106933594 100.808837890625 C 117.40670013427734 110.4864273071289 137.7122344970703 107.18548583984375 140.0599822998047 104.28884887695312" stroke-width="3.0" fill="none" stroke="rgb(0, 0, 0)" stroke-opacity="1.0" stroke-linecap="round" stroke-linejoin="round"/>
    <path d="M 137.2430419921875 74.27627563476562 C 145.79673767089844 56.581275939941406 132.2345733642578 60.82646560668945 137.05880737304688 71.99788665771484" stroke-width="3.0" fill="none" stroke="rgb(0, 0, 0)" stroke-opacity="1.0" stroke-linecap="round" stroke-linejoin="round"/>
    <path d="M 134.84275817871094 175.9046173095703 C 127.29642486572266 186.59812927246094 138.28628540039062 179.4026641845703 144.74234008789062 149.53700256347656" stroke-width="3.0" fill="none" stroke="rgb(0, 0, 0)" stroke-opacity="1.0" stroke-linecap="round" stroke-linejoin="round"/>
    <path d="M 194.8881378173828 95.63591766357422 C 169.8052978515625 74.06134796142578 157.3164520263672 81.42914581298828 182.0232696533203 86.42280578613281" stroke-width="3.0" fill="none" stroke="rgb(0, 0, 0)" stroke-opacity="1.0" stroke-linecap="round" stroke-linejoin="round"/>
    <path d="M 150.3250732421875 78.24845123291016 C 159.41366577148438 64.25770568847656 201.06155395507812 80.79692840576172 179.42759704589844 66.42881774902344" stroke-width="3.0" fill="none" stroke="rgb(0, 0, 0)" stroke-opacity="1.0" stroke-linecap="round" stroke-linejoin="round"/>
    <path d="M 116.48090362548828 81.20934295654297 C 81.73484802246094 77.80075073242188 134.3778533935547 71.85968780517578 115.4354476928711 80.3755874633789" stroke-width="3.0" fill="none" stroke="rgb(0, 0, 0)" stroke-opacity="1.0" stroke-linecap="round" stroke-linejoin="round"/>
    <path d="M 154.7674560546875 137.79495239257812 C 135.46560668945312 168.6015167236328 110.49595642089844 145.58287048339844 100.0983657836914 158.87229919433594" stroke-width="3.0" fill="none" stroke="rgb(0, 0, 0)" stroke-opacity="1.0" stroke-linecap="round" stroke-linejoin="round"/>
    <path d="M 125.67438507080078 88.26167297363281 C 143.2524871826172 99.50811767578125 130.01705932617188 71.65360260009766 128.85986328125 105.05508422851562" stroke-width="3.0" fill="none" stroke="rgb(0, 0, 0)" stroke-opacity="1.0" stroke-linecap="round" stroke-linejoin="round"/>
    <path d="M 187.62657165527344 111.95819854736328 C 182.3505859375 78.96503448486328 190.51791381835938 93.38724517822266 140.81735229492188 86.04643249511719" stroke-width="3.0" fill="none" stroke="rgb(0, 0, 0)" stroke-opacity="1.0" stroke-linecap="round" stroke-linejoin="round"/>
    <path d="M 86.12808990478516 8.795228958129883 C 102.04757690429688 13.456350326538086 116.79632568359375 32.917999267578125 120.39263153076172 32.88955307006836" stroke-width="3.0" fill="none" stroke="rgb(0, 0, 0)" stroke-opacity="1.0" stroke-linecap="round" stroke-linejoin="round"/>
    <path d="M 61.48119354248047 123.65729522705078 C 57.06194305419922 114.95806884765625 63.37961959838867 134.70509338378906 59.5177001953125 120.50054168701172" stroke-width="3.0" fill="none" stroke="rgb(0, 0, 0)" stroke-opacity="1.0" stroke-linecap="round" stroke-linejoin="round"/>
    <path d="M 138.8455047607422 102.32072448730469 C 116.79174041748047 91.88780975341797 120.15516662597656 114.22955322265625 112.84632873535156 89.67589569091797" stroke-width="3.0" fill="none" stroke="rgb(0, 0, 0)" stroke-opacity="1.0" stroke-linecap="round" stroke-linejoin="round"/>
    <path d="M 30.74234962463379 131.1829071044922 C 27.484752655029297 105.27554321289062 33.44215774536133 102.28111267089844 38.96628189086914 92.95310974121094" stroke-width="3.0" fill="none" stroke="rgb(0, 0, 0)" stroke-opacity="1.0" stroke-linecap="round" stroke-linejoin="round"/>
    <path d="M 83.21448516845703 198.35897827148438 C 70.06251525878906 196.14222717285156 66.25853729248047 194.5392608642578 90.08734130859375 196.35960388183594" stroke-width="3.0" fill="none" stroke="rgb(0, 0, 0)" stroke-opacity="1.0" stroke-linecap="round" stroke-linejoin="round"/>
    <path d="M 155.73631286621094 135.09759521484375 C 205.41799926757812 116.12265014648438 178.8741455078125 97.77655792236328 158.9344482421875 92.97156524658203" stroke-width="3.0" fill="none" stroke="rgb(0, 0, 0)" stroke-opacity="1.0" stroke-linecap="round" stroke-linejoin="round"/>
    <path d="M 157.72341918945312 72.44392395019531 C 123.34461212158203 82.19034576416016 176.63446044921875 82.53590393066406 146.4742889404297 70.3802490234375" stroke-width="3.0" fill="none" stroke="rgb(0, 0, 0)" stroke-opacity="1.0" stroke-linecap="round" stroke-linejoin="round"/>
    <path d="M 139.97915649414062 81.01683044433594 C 148.27796936035156 42.895355224609375 190.6201629638672 112.89073944091797 180.00587463378906 44.09469223022461" stroke-width="3.0" fill="none" stroke="rgb(0, 0, 0)" stroke-opacity="1.0" stroke-linecap="round" stroke-linejoin="round"/>
    <path d="M 158.55783081054688 97.3948745727539 C 165.34783935546875 104.75070190429688 172.31739807128906 101.98902130126953 184.04627990722656 115.03731536865234" stroke-width="3.0" fill="none" stroke="rgb(0, 0, 0)" stroke-opacity="1.0" stroke-linecap="round" stroke-linejoin="round"/>
    <path d="M 175.31202697753906 15.78209400177002 C 167.90240478515625 43.271629333496094 177.0935516357422 21.370803833007812 159.6208038330078 37.512657165527344" stroke-width="3.0" fill="none" stroke="rgb(0, 0, 0)" stroke-opacity="1.0" stroke-linecap="round" stroke-linejoin="round"/>
    <path d="M 120.74109649658203 101.77469635009766 C 144.35658264160156 103.94573211669922 131.74142456054688 113.1933822631836 119.9068374633789 102.0226058959961" stroke-width="3.0" fill="none" stroke="rgb(0, 0, 0)" stroke-opacity="1.0" stroke-linecap="round" stroke-linejoin="round"/>
    <path d="M 70.76319122314453 128.16261291503906 C 42.1153564453125 111.13460540771484 54.40855407714844 111.59567260742188 64.02964782714844 123.37889862060547" stroke-width="3.0" fill="none" stroke="rgb(0, 0, 0)" stroke-opacity="1.0" stroke-linecap="round" stroke-linejoin="round"/>
    <path d="M 125.01853942871094 72.22689819335938 C 125.57587432861328 36.721961975097656 118.8792953491211 55.91289520263672 122.8097152709961 31.187870025634766" stroke-width="3.0" fill="none" stroke="rgb(0, 0, 0)" stroke-opacity="1.0" stroke-linecap="round" stroke-linejoin="round"/>
    <path d="M 146.00035095214844 31.05279541015625 C 144.0470733642578 39.47129821777344 157.99752807617188 10.777005195617676 179.8555908203125 9.545491218566895" stroke-width="3.0" fill="none" stroke="rgb(0, 0, 0)" stroke-opacity="1.0" stroke-linecap="round" stroke-linejoin="round"/>
  </g>
</svg>
