<?xml version="1.0" ?>
<svg xmlns="http://www.w3.org/2000/svg" version="1.1" width="224" height="224">
  <defs/>
  <g>
    <path d="M 60.61727523803711 97.2823715209961 C 61.569034576416016 94.08149719238281 52.04906463623047 88.97230529785156 61.81478500366211 62.37788772583008" stroke-width="3.0" fill="none" stroke="rgb(0, 0, 0)" stroke-opacity="1.0" stroke-linecap="round" stroke-linejoin="round"/>
    <path d="M 195.49993896484375 115.08314514160156 C 183.67918395996094 113.74400329589844 187.15802001953125 99.79796600341797 182.8817901611328 125.56008911132812" stroke-width="3.0" fill="none" stroke="rgb(0, 0, 0)" stroke-opacity="1.0" stroke-linecap="round" stroke-linejoin="round"/>
    <path d="M 60.38405227661133 122.47162628173828 C 64.23241424560547 80.52698516845703 53.84782791137695 120.52605438232422 60.98106384277344 124.15707397460938" stroke-width="3.0" fill="none" stroke="rgb(0, 0, 0)" stroke-opacity="1.0" stroke-linecap="round" stroke-linejoin="round"/>
    <path d="M 187.67596435546875 95.17877197265625 C 141.84742736816406 71.77771759033203 184.1220703125 78.37476348876953 190.69012451171875 102.98440551757812" stroke-width="3.0" fill="none" stroke="rgb(0, 0, 0)" stroke-opacity="1.0" stroke-linecap="round" stroke-linejoin="round"/>
    <path d="M 176.3404083251953 45.78847885131836 C 195.07107543945312 88.90532684326172 173.4627227783203 108.37084197998047 182.251708984375 69.4253158569336" stroke-width="3.0" fill="none" stroke="rgb(0, 0, 0)" stroke-opacity="1.0" stroke-linecap="round" stroke-linejoin="round"/>
    <path d="M 127.36012268066406 102.11370849609375 C 147.2244415283203 122.13420104980469 96.04212188720703 98.99114227294922 136.3754119873047 103.11572265625" stroke-width="3.0" fill="none" stroke="rgb(0, 0, 0)" stroke-opacity="1.0" stroke-linecap="round" stroke-linejoin="round"/>
    <path d="M 179.46542358398438 88.20529174804688 C 177.72622680664062 81.54405212402344 195.19801330566406 71.36576843261719 149.65919494628906 86.31607818603516" stroke-width="3.0" fill="none" stroke="rgb(0, 0, 0)" stroke-opacity="1.0" stroke-linecap="round" stroke-linejoin="round"/>
    <path d="M 66.2099609375 189.74964904785156 C 42.528656005859375 166.4727325439453 53.18354415893555 163.37188720703125 50.96034622192383 173.0767822265625" stroke-width="3.0" fill="none" stroke="rgb(0, 0, 0)" stroke-opacity="1.0" stroke-linecap="round" stroke-linejoin="round"/>
    <path d="M 61.3087158203125 185.03311157226562 C 84.49794006347656 209.43896484375 134.98687744140625 194.69195556640625 140.71139526367188 164.34335327148438" stroke-width="3.0" fill="none" stroke="rgb(0, 0, 0)" stroke-opacity="1.0" stroke-linecap="round" stroke-linejoin="round"/>
    <path d="M 82.4209976196289 10.520026206970215 C 97.06057739257812 77.69947814941406 88.15045166015625 11.3002290725708 87.2394027709961 54.05352020263672" stroke-width="3.0" fill="none" stroke="rgb(0, 0, 0)" stroke-opacity="1.0" stroke-linecap="round" stroke-linejoin="round"/>
    <path d="M 59.602745056152344 92.42725372314453 C 51.33278274536133 135.993408203125 71.76943969726562 131.548828125 58.87135314941406 119.90617370605469" stroke-width="3.0" fill="none" stroke="rgb(0, 0, 0)" stroke-opacity="1.0" stroke-linecap="round" stroke-linejoin="round"/>
    <path d="M 148.00375366210938 74.88033294677734 C 199.75863647460938 58.619163513183594 192.0438232421875 89.84783172607422 139.67626953125 86.11483001708984" stroke-width="3.0" fill="none" stroke="rgb(0, 0, 0)" stroke-opacity="1.0" stroke-linecap="round" stroke-linejoin="round"/>
    <path d="M 148.76275634765625 96.8609390258789 C 181.28945922851562 94.85853576660156 180.9263458251953 92.11357116699219 195.90931701660156 112.74851989746094" stroke-width="3.0" fill="none" stroke="rgb(0, 0, 0)" stroke-opacity="1.0" stroke-linecap="round" stroke-linejoin="round"/>
    <path d="M 121.45064544677734 150.24932861328125 C 161.71641540527344 157.76675415039062 107.25614929199219 142.00001525878906 100.39955139160156 152.9803466796875" stroke-width="3.0" fill="none" stroke="rgb(0, 0, 0)" stroke-opacity="1.0" stroke-linecap="round" stroke-linejoin="round"/>
    <path d="M 180.43833923339844 7.742526054382324 C 188.41790771484375 20.21870231628418 168.1683349609375 96.5372314453125 180.9772186279297 50.14582061767578" stroke-width="3.0" fill="none" stroke="rgb(0, 0, 0)" stroke-opacity="1.0" stroke-linecap="round" stroke-linejoin="round"/>
    <path d="M 143.03233337402344 34.44444274902344 C 112.92251586914062 25.893735885620117 136.04873657226562 30.551916122436523 129.6608123779297 76.94327545166016" stroke-width="3.0" fill="none" stroke="rgb(0, 0, 0)" stroke-opacity="1.0" stroke-linecap="round" stroke-linejoin="round"/>
    <path d="M 108.91988372802734 44.473724365234375 C 60.146575927734375 -2.6351897716522217 83.06551361083984 1.9463485479354858 118.85474395751953 30.81991958618164" stroke-width="3.0" fill="none" stroke="rgb(0, 0, 0)" stroke-opacity="1.0" stroke-linecap="round" stroke-linejoin="round"/>
    <path d="M 44.5244026184082 163.16278076171875 C 41.071380615234375 158.03721618652344 41.83456802368164 149.79483032226562 48.18074417114258 167.4836883544922" stroke-width="3.0" fill="none" stroke="rgb(0, 0, 0)" stroke-opacity="1.0" stroke-linecap="round" stroke-linejoin="round"/>
    <path d="M 52.44556427001953 81.07740020751953 C 23.0883731842041 133.7020263671875 40.435726165771484 136.04376220703125 44.344181060791016 159.1404571533203" stroke-width="3.0" fill="none" stroke="rgb(0, 0, 0)" stroke-opacity="1.0" stroke-linecap="round" stroke-linejoin="round"/>
    <path d="M 75.15843963623047 141.08692932128906 C 136.6345672607422 157.84451293945312 100.263916015625 149.35438537597656 88.37908172607422 144.6121826171875" stroke-width="3.0" fill="none" stroke="rgb(0, 0, 0)" stroke-opacity="1.0" stroke-linecap="round" stroke-linejoin="round"/>
    <path d="M 89.15908813476562 198.81996154785156 C 64.33570861816406 198.61068725585938 48.97831726074219 177.7882843017578 44.845787048339844 162.62693786621094" stroke-width="3.0" fill="none" stroke="rgb(0, 0, 0)" stroke-opacity="1.0" stroke-linecap="round" stroke-linejoin="round"/>
    <path d="M 51.79627990722656 171.2167510986328 C 71.07453155517578 198.12881469726562 50.43714141845703 172.30076599121094 37.5071907043457 144.0902557373047" stroke-width="3.0" fill="none" stroke="rgb(0, 0, 0)" stroke-opacity="1.0" stroke-linecap="round" stroke-linejoin="round"/>
    <path d="M 84.05780029296875 59.38444137573242 C 55.36355972290039 55.350379943847656 56.545719146728516 73.42554473876953 38.95527267456055 112.20819091796875" stroke-width="3.0" fill="none" stroke="rgb(0, 0, 0)" stroke-opacity="1.0" stroke-linecap="round" stroke-linejoin="round"/>
    <path d="M 155.6910858154297 140.35162353515625 C 102.92753601074219 154.9495086669922 82.11188507080078 157.67874145507812 143.3914337158203 148.85958862304688" stroke-width="3.0" fill="none" stroke="rgb(0, 0, 0)" stroke-opacity="1.0" stroke-linecap="round" stroke-linejoin="round"/>
    <path d="M 151.49131774902344 27.919679641723633 C 147.20150756835938 33.74607467651367 136.49130249023438 17.79068946838379 140.74375915527344 77.36444854736328" stroke-width="3.0" fill="none" stroke="rgb(0, 0, 0)" stroke-opacity="1.0" stroke-linecap="round" stroke-linejoin="round"/>
    <path d="M 145.30751037597656 101.14444732666016 C 126.68933868408203 110.85347747802734 124.29421997070312 102.88733673095703 114.48121643066406 94.62727355957031" stroke-width="3.0" fill="none" stroke="rgb(0, 0, 0)" stroke-opacity="1.0" stroke-linecap="round" stroke-linejoin="round"/>
    <path d="M 139.9644775390625 71.397705078125 C 149.33956909179688 56.17169952392578 133.4440155029297 69.61422729492188 139.44235229492188 80.64947509765625" stroke-width="3.0" fill="none" stroke="rgb(0, 0, 0)" stroke-opacity="1.0" stroke-linecap="round" stroke-linejoin="round"/>
    <path d="M 138.7779083251953 165.37242126464844 C 128.691162109375 172.9086151123047 145.6827392578125 166.9088134765625 146.2903289794922 147.1407470703125" stroke-width="3.0" fill="none" stroke="rgb(0, 0, 0)" stroke-opacity="1.0" stroke-linecap="round" stroke-linejoin="round"/>
    <path d="M 196.16673278808594 94.33305358886719 C 165.48500061035156 64.72277069091797 178.45626831054688 70.46075439453125 186.59136962890625 93.46269989013672" stroke-width="3.0" fill="none" stroke="rgb(0, 0, 0)" stroke-opacity="1.0" stroke-linecap="round" stroke-linejoin="round"/>
    <path d="M 149.36328125 79.03704071044922 C 126.70281982421875 53.59299850463867 210.77488708496094 87.65314483642578 175.0883026123047 62.95738220214844" stroke-width="3.0" fill="none" stroke="rgb(0, 0, 0)" stroke-opacity="1.0" stroke-linecap="round" stroke-linejoin="round"/>
    <path d="M 113.09320068359375 81.51220703125 C 79.22119140625 72.51709747314453 140.1708526611328 72.03565216064453 109.101318359375 77.6243667602539" stroke-width="3.0" fill="none" stroke="rgb(0, 0, 0)" stroke-opacity="1.0" stroke-linecap="round" stroke-linejoin="round"/>
    <path d="M 165.88885498046875 130.9656524658203 C 144.88636779785156 158.81146240234375 101.26741027832031 146.1981658935547 94.41663360595703 150.48348999023438" stroke-width="3.0" fill="none" stroke="rgb(0, 0, 0)" stroke-opacity="1.0" stroke-linecap="round" stroke-linejoin="round"/>
    <path d="M 124.11529541015625 92.00535583496094 C 143.79759216308594 100.3713607788086 127.51512908935547 74.75887298583984 129.70237731933594 107.69259643554688" stroke-width="3.0" fill="none" stroke="rgb(0, 0, 0)" stroke-opacity="1.0" stroke-linecap="round" stroke-linejoin="round"/>
    <path d="M 188.2269744873047 117.4374771118164 C 167.014404296875 83.8457260131836 174.66575622558594 98.60480499267578 144.64572143554688 86.80976867675781" stroke-width="3.0" fill="none" stroke="rgb(0, 0, 0)" stroke-opacity="1.0" stroke-linecap="round" stroke-linejoin="round"/>
    <path d="M 92.4560317993164 27.249784469604492 C 131.12371826171875 25.881542205810547 90.69224548339844 29.68160057067871 145.55364990234375 30.4559268951416" stroke-width="3.0" fill="none" stroke="rgb(0, 0, 0)" stroke-opacity="1.0" stroke-linecap="round" stroke-linejoin="round"/>
    <path d="M 60.800384521484375 114.19783020019531 C 65.30838775634766 102.35132598876953 54.93131637573242 123.53582763671875 73.28938293457031 138.0129852294922" stroke-width="3.0" fill="none" stroke="rgb(0, 0, 0)" stroke-opacity="1.0" stroke-linecap="round" stroke-linejoin="round"/>
    <path d="M 131.30348205566406 104.79116821289062 C 124.68656921386719 93.36792755126953 126.2699203491211 119.1001205444336 111.80247497558594 89.19682312011719" stroke-width="3.0" fill="none" stroke="rgb(0, 0, 0)" stroke-opacity="1.0" stroke-linecap="round" stroke-linejoin="round"/>
    <path d="M 38.248661041259766 146.93365478515625 C 23.380271911621094 122.702392578125 31.60439109802246 76.99876403808594 57.11970138549805 65.68946075439453" stroke-width="3.0" fill="none" stroke="rgb(0, 0, 0)" stroke-opacity="1.0" stroke-linecap="round" stroke-linejoin="round"/>
    <path d="M 101.61869049072266 196.90032958984375 C 78.41783905029297 197.11550903320312 68.92939758300781 192.51087951660156 107.45325469970703 194.95140075683594" stroke-width="3.0" fill="none" stroke="rgb(0, 0, 0)" stroke-opacity="1.0" stroke-linecap="round" stroke-linejoin="round"/>
    <path d="M 168.10800170898438 131.40805053710938 C 197.7650909423828 121.22109985351562 188.16452026367188 82.91300964355469 155.0823211669922 86.4745864868164" stroke-width="3.0" fill="none" stroke="rgb(0, 0, 0)" stroke-opacity="1.0" stroke-linecap="round" stroke-linejoin="round"/>
    <path d="M 155.8679962158203 73.03461456298828 C 132.61871337890625 85.46141052246094 170.17523193359375 78.59534454345703 146.51210021972656 70.14924621582031" stroke-width="3.0" fill="none" stroke="rgb(0, 0, 0)" stroke-opacity="1.0" stroke-linecap="round" stroke-linejoin="round"/>
    <path d="M 140.10646057128906 75.53772735595703 C 143.14260864257812 41.14806365966797 203.93055725097656 112.5312728881836 175.3542938232422 47.98940658569336" stroke-width="3.0" fill="none" stroke="rgb(0, 0, 0)" stroke-opacity="1.0" stroke-linecap="round" stroke-linejoin="round"/>
    <path d="M 153.09127807617188 97.66828918457031 C 177.46337890625 104.42693328857422 172.05809020996094 102.73701477050781 184.88868713378906 121.4952392578125" stroke-width="3.0" fill="none" stroke="rgb(0, 0, 0)" stroke-opacity="1.0" stroke-linecap="round" stroke-linejoin="round"/>
    <path d="M 176.21551513671875 15.835068702697754 C 170.6954345703125 47.437320709228516 174.2274932861328 21.97932243347168 158.69447326660156 38.3388557434082" stroke-width="3.0" fill="none" stroke="rgb(0, 0, 0)" stroke-opacity="1.0" stroke-linecap="round" stroke-linejoin="round"/>
    <path d="M 124.05821990966797 106.81434631347656 C 150.31137084960938 100.41083526611328 134.06748962402344 116.29510498046875 121.24617767333984 103.35992431640625" stroke-width="3.0" fill="none" stroke="rgb(0, 0, 0)" stroke-opacity="1.0" stroke-linecap="round" stroke-linejoin="round"/>
    <path d="M 65.4295425415039 118.14130401611328 C 57.10009765625 109.4539566040039 59.86687469482422 110.04828643798828 58.27048110961914 117.01789855957031" stroke-width="3.0" fill="none" stroke="rgb(0, 0, 0)" stroke-opacity="1.0" stroke-linecap="round" stroke-linejoin="round"/>
    <path d="M 123.6164321899414 70.32123565673828 C 122.3432846069336 39.50613784790039 113.97911834716797 55.93315887451172 119.65553283691406 31.50829315185547" stroke-width="3.0" fill="none" stroke="rgb(0, 0, 0)" stroke-opacity="1.0" stroke-linecap="round" stroke-linejoin="round"/>
    <path d="M 147.9190673828125 30.41008949279785 C 144.3374481201172 35.91823959350586 161.28271484375 8.565122604370117 177.4208221435547 9.363678932189941" stroke-width="3.0" fill="none" stroke="rgb(0, 0, 0)" stroke-opacity="1.0" stroke-linecap="round" stroke-linejoin="round"/>
  </g>
</svg>
