<?xml version="1.0" ?>
<svg xmlns="http://www.w3.org/2000/svg" version="1.1" width="224" height="224">
  <defs/>
  <g>
    <path d="M 56.94697952270508 114.28897857666016 C 53.6656494140625 119.11559295654297 54.939517974853516 100.71131134033203 45.07219696044922 85.88540649414062" stroke-width="3.0" fill="none" stroke="rgb(0, 0, 0)" stroke-opacity="1.0" stroke-linecap="round" stroke-linejoin="round"/>
    <path d="M 182.7382049560547 122.73873901367188 C 178.62435913085938 105.0878677368164 183.88233947753906 116.18500518798828 182.088623046875 120.1609878540039" stroke-width="3.0" fill="none" stroke="rgb(0, 0, 0)" stroke-opacity="1.0" stroke-linecap="round" stroke-linejoin="round"/>
    <path d="M 54.26472473144531 103.52985382080078 C 56.95985412597656 115.61576080322266 52.91142272949219 108.88920593261719 57.33933639526367 115.11335754394531" stroke-width="3.0" fill="none" stroke="rgb(0, 0, 0)" stroke-opacity="1.0" stroke-linecap="round" stroke-linejoin="round"/>
    <path d="M 183.7751922607422 91.65693664550781 C 158.82762145996094 82.84788513183594 172.2517852783203 83.4675521850586 196.32740783691406 113.00598907470703" stroke-width="3.0" fill="none" stroke="rgb(0, 0, 0)" stroke-opacity="1.0" stroke-linecap="round" stroke-linejoin="round"/>
    <path d="M 181.5692901611328 73.12410736083984 C 175.63287353515625 96.94461822509766 187.77658081054688 93.98185729980469 182.92030334472656 60.948974609375" stroke-width="3.0" fill="none" stroke="rgb(0, 0, 0)" stroke-opacity="1.0" stroke-linecap="round" stroke-linejoin="round"/>
    <path d="M 126.18084716796875 102.58999633789062 C 150.53146362304688 98.94688415527344 104.02994537353516 100.12687683105469 135.7719268798828 101.93389129638672" stroke-width="3.0" fill="none" stroke="rgb(0, 0, 0)" stroke-opacity="1.0" stroke-linecap="round" stroke-linejoin="round"/>
    <path d="M 167.18344116210938 98.4419174194336 C 206.5518798828125 78.3816909790039 177.1289825439453 69.04332733154297 158.19281005859375 85.4266586303711" stroke-width="3.0" fill="none" stroke="rgb(0, 0, 0)" stroke-opacity="1.0" stroke-linecap="round" stroke-linejoin="round"/>
    <path d="M 54.166194915771484 182.61851501464844 C 35.82789611816406 159.19613647460938 47.95829772949219 161.70046997070312 45.122962951660156 163.96641540527344" stroke-width="3.0" fill="none" stroke="rgb(0, 0, 0)" stroke-opacity="1.0" stroke-linecap="round" stroke-linejoin="round"/>
    <path d="M 61.4903564453125 186.66844177246094 C 91.01850891113281 207.03094482421875 109.70100402832031 198.94650268554688 124.92267608642578 185.13365173339844" stroke-width="3.0" fill="none" stroke="rgb(0, 0, 0)" stroke-opacity="1.0" stroke-linecap="round" stroke-linejoin="round"/>
    <path d="M 85.55670928955078 40.49320983886719 C 93.5130844116211 60.9109001159668 83.39521026611328 25.17343521118164 85.06298828125 56.96091842651367" stroke-width="3.0" fill="none" stroke="rgb(0, 0, 0)" stroke-opacity="1.0" stroke-linecap="round" stroke-linejoin="round"/>
    <path d="M 60.103050231933594 120.53019714355469 C 51.68843460083008 135.36087036132812 98.57823181152344 153.92431640625 94.41349792480469 149.89743041992188" stroke-width="3.0" fill="none" stroke="rgb(0, 0, 0)" stroke-opacity="1.0" stroke-linecap="round" stroke-linejoin="round"/>
    <path d="M 146.40206909179688 68.22482299804688 C 211.9114532470703 69.659423828125 185.20603942871094 82.75457763671875 147.10360717773438 83.61772918701172" stroke-width="3.0" fill="none" stroke="rgb(0, 0, 0)" stroke-opacity="1.0" stroke-linecap="round" stroke-linejoin="round"/>
    <path d="M 150.52456665039062 95.40787506103516 C 179.95864868164062 100.22406005859375 183.16851806640625 98.49998474121094 189.4986572265625 114.0701904296875" stroke-width="3.0" fill="none" stroke="rgb(0, 0, 0)" stroke-opacity="1.0" stroke-linecap="round" stroke-linejoin="round"/>
    <path d="M 108.8803939819336 156.0702362060547 C 142.70689392089844 145.42088317871094 112.71550750732422 157.3191375732422 125.45270538330078 151.51348876953125" stroke-width="3.0" fill="none" stroke="rgb(0, 0, 0)" stroke-opacity="1.0" stroke-linecap="round" stroke-linejoin="round"/>
    <path d="M 175.95745849609375 7.5272440910339355 C 193.46340942382812 2.211271047592163 173.2194061279297 59.34520721435547 180.92361450195312 54.98834228515625" stroke-width="3.0" fill="none" stroke="rgb(0, 0, 0)" stroke-opacity="1.0" stroke-linecap="round" stroke-linejoin="round"/>
    <path d="M 130.8196258544922 30.196382522583008 C 124.23927307128906 58.14531707763672 136.51080322265625 34.95375061035156 126.17032623291016 70.95691680908203" stroke-width="3.0" fill="none" stroke="rgb(0, 0, 0)" stroke-opacity="1.0" stroke-linecap="round" stroke-linejoin="round"/>
    <path d="M 89.5848617553711 49.22410202026367 C 72.50918579101562 -5.0041985511779785 85.19051361083984 -0.9695225358009338 111.44464111328125 37.72835159301758" stroke-width="3.0" fill="none" stroke="rgb(0, 0, 0)" stroke-opacity="1.0" stroke-linecap="round" stroke-linejoin="round"/>
    <path d="M 44.321285247802734 161.33465576171875 C 41.371131896972656 154.67730712890625 38.286720275878906 145.70339965820312 38.433982849121094 150.7333221435547" stroke-width="3.0" fill="none" stroke="rgb(0, 0, 0)" stroke-opacity="1.0" stroke-linecap="round" stroke-linejoin="round"/>
    <path d="M 35.14992141723633 102.29076385498047 C 24.639720916748047 129.56793212890625 35.9793701171875 142.93780517578125 40.94269561767578 156.87725830078125" stroke-width="3.0" fill="none" stroke="rgb(0, 0, 0)" stroke-opacity="1.0" stroke-linecap="round" stroke-linejoin="round"/>
    <path d="M 86.23157501220703 149.3498992919922 C 99.82846069335938 161.00001525878906 110.66378021240234 147.55963134765625 105.0576171875 158.91014099121094" stroke-width="3.0" fill="none" stroke="rgb(0, 0, 0)" stroke-opacity="1.0" stroke-linecap="round" stroke-linejoin="round"/>
    <path d="M 77.78435516357422 195.63014221191406 C 59.3778076171875 187.18161010742188 57.072242736816406 180.890625 46.88275146484375 173.5123291015625" stroke-width="3.0" fill="none" stroke="rgb(0, 0, 0)" stroke-opacity="1.0" stroke-linecap="round" stroke-linejoin="round"/>
    <path d="M 45.232391357421875 165.99649047851562 C 61.572330474853516 189.08201599121094 41.144439697265625 165.3711395263672 40.857826232910156 154.1326446533203" stroke-width="3.0" fill="none" stroke="rgb(0, 0, 0)" stroke-opacity="1.0" stroke-linecap="round" stroke-linejoin="round"/>
    <path d="M 79.603759765625 53.47136306762695 C 55.92502975463867 59.89690399169922 50.67997741699219 72.37232208251953 32.65279769897461 107.24292755126953" stroke-width="3.0" fill="none" stroke="rgb(0, 0, 0)" stroke-opacity="1.0" stroke-linecap="round" stroke-linejoin="round"/>
    <path d="M 153.9282989501953 142.24766540527344 C 137.46751403808594 159.04400634765625 119.95944213867188 153.29727172851562 132.39744567871094 152.03854370117188" stroke-width="3.0" fill="none" stroke="rgb(0, 0, 0)" stroke-opacity="1.0" stroke-linecap="round" stroke-linejoin="round"/>
    <path d="M 140.02659606933594 29.95749282836914 C 147.1132049560547 59.70701599121094 131.63841247558594 57.83378982543945 135.31317138671875 74.3727035522461" stroke-width="3.0" fill="none" stroke="rgb(0, 0, 0)" stroke-opacity="1.0" stroke-linecap="round" stroke-linejoin="round"/>
    <path d="M 146.87767028808594 99.05804443359375 C 118.12031555175781 107.2113265991211 130.77896118164062 111.40054321289062 138.32322692871094 102.96497344970703" stroke-width="3.0" fill="none" stroke="rgb(0, 0, 0)" stroke-opacity="1.0" stroke-linecap="round" stroke-linejoin="round"/>
    <path d="M 135.9004669189453 76.43827819824219 C 143.1642303466797 52.94466781616211 137.27371215820312 63.31795120239258 136.4817657470703 69.4884033203125" stroke-width="3.0" fill="none" stroke="rgb(0, 0, 0)" stroke-opacity="1.0" stroke-linecap="round" stroke-linejoin="round"/>
    <path d="M 131.76034545898438 182.19796752929688 C 113.21041870117188 191.93359375 138.751708984375 187.6239776611328 144.83621215820312 150.32638549804688" stroke-width="3.0" fill="none" stroke="rgb(0, 0, 0)" stroke-opacity="1.0" stroke-linecap="round" stroke-linejoin="round"/>
    <path d="M 195.44992065429688 92.9070053100586 C 173.99163818359375 74.02216339111328 148.40707397460938 81.95440673828125 183.763671875 80.69681549072266" stroke-width="3.0" fill="none" stroke="rgb(0, 0, 0)" stroke-opacity="1.0" stroke-linecap="round" stroke-linejoin="round"/>
    <path d="M 147.66915893554688 76.1214599609375 C 164.20962524414062 57.42754364013672 195.47100830078125 79.19932556152344 181.14743041992188 65.15178680419922" stroke-width="3.0" fill="none" stroke="rgb(0, 0, 0)" stroke-opacity="1.0" stroke-linecap="round" stroke-linejoin="round"/>
    <path d="M 107.83462524414062 81.68632507324219 C 89.4704818725586 73.80591583251953 135.57073974609375 78.25684356689453 107.42713928222656 82.34687805175781" stroke-width="3.0" fill="none" stroke="rgb(0, 0, 0)" stroke-opacity="1.0" stroke-linecap="round" stroke-linejoin="round"/>
    <path d="M 152.2322998046875 138.81390380859375 C 133.4462127685547 158.7789764404297 122.7032699584961 150.1065673828125 99.66545104980469 154.66323852539062" stroke-width="3.0" fill="none" stroke="rgb(0, 0, 0)" stroke-opacity="1.0" stroke-linecap="round" stroke-linejoin="round"/>
    <path d="M 122.72490692138672 89.97193145751953 C 139.8057861328125 99.1500015258789 131.73867797851562 73.9751968383789 127.7491683959961 104.06492614746094" stroke-width="3.0" fill="none" stroke="rgb(0, 0, 0)" stroke-opacity="1.0" stroke-linecap="round" stroke-linejoin="round"/>
    <path d="M 185.7247772216797 113.23582458496094 C 178.25863647460938 75.35640716552734 187.27345275878906 91.81165313720703 140.35169982910156 82.28742980957031" stroke-width="3.0" fill="none" stroke="rgb(0, 0, 0)" stroke-opacity="1.0" stroke-linecap="round" stroke-linejoin="round"/>
    <path d="M 86.65426635742188 9.691326141357422 C 108.8751449584961 14.853106498718262 113.8797836303711 33.837703704833984 125.3355484008789 30.273944854736328" stroke-width="3.0" fill="none" stroke="rgb(0, 0, 0)" stroke-opacity="1.0" stroke-linecap="round" stroke-linejoin="round"/>
    <path d="M 59.34652328491211 117.10738372802734 C 50.99494552612305 108.07701873779297 62.634639739990234 119.51089477539062 56.936161041259766 110.57172393798828" stroke-width="3.0" fill="none" stroke="rgb(0, 0, 0)" stroke-opacity="1.0" stroke-linecap="round" stroke-linejoin="round"/>
    <path d="M 130.4451446533203 106.86387634277344 C 105.1513442993164 97.18748474121094 119.11402893066406 114.21161651611328 109.78739929199219 90.22728729248047" stroke-width="3.0" fill="none" stroke="rgb(0, 0, 0)" stroke-opacity="1.0" stroke-linecap="round" stroke-linejoin="round"/>
    <path d="M 31.254350662231445 130.54249572753906 C 26.907705307006836 116.54327392578125 34.405723571777344 104.45853424072266 32.57234191894531 112.35301971435547" stroke-width="3.0" fill="none" stroke="rgb(0, 0, 0)" stroke-opacity="1.0" stroke-linecap="round" stroke-linejoin="round"/>
    <path d="M 78.04046630859375 196.4200897216797 C 77.93878173828125 193.7014923095703 74.39625549316406 200.1613006591797 96.21688842773438 198.57656860351562" stroke-width="3.0" fill="none" stroke="rgb(0, 0, 0)" stroke-opacity="1.0" stroke-linecap="round" stroke-linejoin="round"/>
    <path d="M 150.77499389648438 142.9174346923828 C 208.7045135498047 114.8466567993164 180.7278594970703 93.8224105834961 154.08119201660156 88.98707580566406" stroke-width="3.0" fill="none" stroke="rgb(0, 0, 0)" stroke-opacity="1.0" stroke-linecap="round" stroke-linejoin="round"/>
    <path d="M 157.54574584960938 68.75481414794922 C 125.33910369873047 78.45323181152344 170.72091674804688 83.73085021972656 147.544677734375 70.1199951171875" stroke-width="3.0" fill="none" stroke="rgb(0, 0, 0)" stroke-opacity="1.0" stroke-linecap="round" stroke-linejoin="round"/>
    <path d="M 142.44155883789062 75.34434509277344 C 146.3098907470703 44.35249710083008 198.98239135742188 103.73280334472656 177.90524291992188 49.98660659790039" stroke-width="3.0" fill="none" stroke="rgb(0, 0, 0)" stroke-opacity="1.0" stroke-linecap="round" stroke-linejoin="round"/>
    <path d="M 155.06298828125 96.89835357666016 C 165.9951934814453 102.86868286132812 181.6627197265625 102.95158386230469 185.2683563232422 115.85480499267578" stroke-width="3.0" fill="none" stroke="rgb(0, 0, 0)" stroke-opacity="1.0" stroke-linecap="round" stroke-linejoin="round"/>
    <path d="M 178.4238739013672 14.95451831817627 C 170.68844604492188 43.94491958618164 174.71998596191406 22.258533477783203 157.7897491455078 36.97551345825195" stroke-width="3.0" fill="none" stroke="rgb(0, 0, 0)" stroke-opacity="1.0" stroke-linecap="round" stroke-linejoin="round"/>
    <path d="M 118.65463256835938 102.35802459716797 C 142.85523986816406 103.95587921142578 125.26956176757812 115.75833129882812 112.10102844238281 98.2007064819336" stroke-width="3.0" fill="none" stroke="rgb(0, 0, 0)" stroke-opacity="1.0" stroke-linecap="round" stroke-linejoin="round"/>
    <path d="M 58.84202194213867 113.07818603515625 C 54.494544982910156 102.4155044555664 47.710052490234375 105.44627380371094 63.16177749633789 128.5443878173828" stroke-width="3.0" fill="none" stroke="rgb(0, 0, 0)" stroke-opacity="1.0" stroke-linecap="round" stroke-linejoin="round"/>
    <path d="M 122.43577575683594 76.9858169555664 C 130.08547973632812 40.226356506347656 120.46803283691406 52.77653884887695 124.838623046875 31.969970703125" stroke-width="3.0" fill="none" stroke="rgb(0, 0, 0)" stroke-opacity="1.0" stroke-linecap="round" stroke-linejoin="round"/>
    <path d="M 144.89947509765625 28.21358871459961 C 145.4230194091797 36.369651794433594 153.71517944335938 12.81117057800293 177.91636657714844 6.307508945465088" stroke-width="3.0" fill="none" stroke="rgb(0, 0, 0)" stroke-opacity="1.0" stroke-linecap="round" stroke-linejoin="round"/>
  </g>
</svg>
