<?xml version="1.0" ?>
<svg xmlns="http://www.w3.org/2000/svg" version="1.1" width="224" height="224">
  <defs/>
  <g>
    <path d="M 55.333396911621094 109.37261962890625 C 54.00246047973633 116.49919891357422 54.427833557128906 102.13667297363281 45.84316635131836 85.88726806640625" stroke-width="3.0" fill="none" stroke="rgb(0, 0, 0)" stroke-opacity="1.0" stroke-linecap="round" stroke-linejoin="round"/>
    <path d="M 187.17538452148438 120.65632629394531 C 180.9310760498047 104.03433227539062 181.5987091064453 113.0501937866211 179.0955047607422 127.003662109375" stroke-width="3.0" fill="none" stroke="rgb(0, 0, 0)" stroke-opacity="1.0" stroke-linecap="round" stroke-linejoin="round"/>
    <path d="M 57.329917907714844 108.40074920654297 C 53.644073486328125 112.5223388671875 52.6989631652832 109.50159454345703 59.319637298583984 118.43983459472656" stroke-width="3.0" fill="none" stroke="rgb(0, 0, 0)" stroke-opacity="1.0" stroke-linecap="round" stroke-linejoin="round"/>
    <path d="M 180.27333068847656 91.58294677734375 C 156.12310791015625 83.60286712646484 173.36373901367188 83.13187408447266 196.72842407226562 113.59801483154297" stroke-width="3.0" fill="none" stroke="rgb(0, 0, 0)" stroke-opacity="1.0" stroke-linecap="round" stroke-linejoin="round"/>
    <path d="M 182.15794372558594 71.89057922363281 C 177.82183837890625 94.50393676757812 186.1077117919922 90.45795440673828 183.3445281982422 58.5827522277832" stroke-width="3.0" fill="none" stroke="rgb(0, 0, 0)" stroke-opacity="1.0" stroke-linecap="round" stroke-linejoin="round"/>
    <path d="M 123.75521087646484 100.76789855957031 C 152.7738494873047 95.04707336425781 109.78462982177734 96.36289978027344 137.40745544433594 100.81533813476562" stroke-width="3.0" fill="none" stroke="rgb(0, 0, 0)" stroke-opacity="1.0" stroke-linecap="round" stroke-linejoin="round"/>
    <path d="M 167.66615295410156 99.27760314941406 C 202.01022338867188 80.89196014404297 175.6132354736328 65.67716217041016 158.06590270996094 84.89906311035156" stroke-width="3.0" fill="none" stroke="rgb(0, 0, 0)" stroke-opacity="1.0" stroke-linecap="round" stroke-linejoin="round"/>
    <path d="M 56.43934631347656 183.25328063964844 C 38.911399841308594 156.39942932128906 44.228153228759766 164.06007385253906 47.03605651855469 164.2303009033203" stroke-width="3.0" fill="none" stroke="rgb(0, 0, 0)" stroke-opacity="1.0" stroke-linecap="round" stroke-linejoin="round"/>
    <path d="M 59.904998779296875 187.6805877685547 C 92.02922821044922 207.4129638671875 110.25608825683594 198.61495971679688 128.40438842773438 182.61203002929688" stroke-width="3.0" fill="none" stroke="rgb(0, 0, 0)" stroke-opacity="1.0" stroke-linecap="round" stroke-linejoin="round"/>
    <path d="M 84.10940551757812 39.89759063720703 C 95.93798828125 60.334529876708984 81.04119873046875 25.11519432067871 84.23700714111328 56.67401885986328" stroke-width="3.0" fill="none" stroke="rgb(0, 0, 0)" stroke-opacity="1.0" stroke-linecap="round" stroke-linejoin="round"/>
    <path d="M 61.931053161621094 118.61396789550781 C 57.87126541137695 128.40484619140625 104.9903564453125 151.486328125 100.3127670288086 146.88836669921875" stroke-width="3.0" fill="none" stroke="rgb(0, 0, 0)" stroke-opacity="1.0" stroke-linecap="round" stroke-linejoin="round"/>
    <path d="M 144.33370971679688 73.12005615234375 C 210.72381591796875 66.3252182006836 185.28855895996094 82.38734436035156 149.71807861328125 84.6501235961914" stroke-width="3.0" fill="none" stroke="rgb(0, 0, 0)" stroke-opacity="1.0" stroke-linecap="round" stroke-linejoin="round"/>
    <path d="M 150.75103759765625 94.63638305664062 C 185.87228393554688 99.27885437011719 184.432861328125 95.24258422851562 190.0452423095703 112.62925720214844" stroke-width="3.0" fill="none" stroke="rgb(0, 0, 0)" stroke-opacity="1.0" stroke-linecap="round" stroke-linejoin="round"/>
    <path d="M 112.36231994628906 157.32154846191406 C 141.7120361328125 141.38050842285156 113.10185241699219 154.92649841308594 124.37013244628906 151.8257598876953" stroke-width="3.0" fill="none" stroke="rgb(0, 0, 0)" stroke-opacity="1.0" stroke-linecap="round" stroke-linejoin="round"/>
    <path d="M 176.552490234375 8.15747356414795 C 189.96856689453125 3.876483201980591 174.8871307373047 61.566253662109375 180.6674041748047 53.93162536621094" stroke-width="3.0" fill="none" stroke="rgb(0, 0, 0)" stroke-opacity="1.0" stroke-linecap="round" stroke-linejoin="round"/>
    <path d="M 131.53973388671875 29.889240264892578 C 125.77339172363281 56.531768798828125 137.8911895751953 30.459333419799805 125.45592498779297 74.64900207519531" stroke-width="3.0" fill="none" stroke="rgb(0, 0, 0)" stroke-opacity="1.0" stroke-linecap="round" stroke-linejoin="round"/>
    <path d="M 88.00907897949219 50.24599838256836 C 72.71472930908203 -8.588090896606445 83.23271179199219 -1.0448578596115112 113.35365295410156 32.54204177856445" stroke-width="3.0" fill="none" stroke="rgb(0, 0, 0)" stroke-opacity="1.0" stroke-linecap="round" stroke-linejoin="round"/>
    <path d="M 43.0223503112793 163.32656860351562 C 40.303504943847656 153.95314025878906 38.0270881652832 146.4011993408203 39.68421936035156 154.09002685546875" stroke-width="3.0" fill="none" stroke="rgb(0, 0, 0)" stroke-opacity="1.0" stroke-linecap="round" stroke-linejoin="round"/>
    <path d="M 36.95538330078125 101.37564849853516 C 22.73035430908203 127.4626693725586 36.24538803100586 142.21768188476562 42.32650375366211 155.3967742919922" stroke-width="3.0" fill="none" stroke="rgb(0, 0, 0)" stroke-opacity="1.0" stroke-linecap="round" stroke-linejoin="round"/>
    <path d="M 88.70584106445312 142.24098205566406 C 104.63673400878906 160.3747100830078 117.80885314941406 142.17254638671875 111.71903991699219 158.48654174804688" stroke-width="3.0" fill="none" stroke="rgb(0, 0, 0)" stroke-opacity="1.0" stroke-linecap="round" stroke-linejoin="round"/>
    <path d="M 79.75202941894531 198.52359008789062 C 61.521976470947266 189.99996948242188 55.32254409790039 180.8127899169922 49.102210998535156 173.47067260742188" stroke-width="3.0" fill="none" stroke="rgb(0, 0, 0)" stroke-opacity="1.0" stroke-linecap="round" stroke-linejoin="round"/>
    <path d="M 45.473167419433594 164.62124633789062 C 59.771236419677734 194.0639190673828 43.190284729003906 165.5912322998047 39.7357177734375 154.50315856933594" stroke-width="3.0" fill="none" stroke="rgb(0, 0, 0)" stroke-opacity="1.0" stroke-linecap="round" stroke-linejoin="round"/>
    <path d="M 78.54240417480469 53.45988082885742 C 54.18459701538086 60.24540328979492 54.1785888671875 73.18587493896484 33.53837203979492 107.2509994506836" stroke-width="3.0" fill="none" stroke="rgb(0, 0, 0)" stroke-opacity="1.0" stroke-linecap="round" stroke-linejoin="round"/>
    <path d="M 154.2025909423828 140.12767028808594 C 141.28797912597656 158.83058166503906 119.52169036865234 146.40223693847656 133.8291473388672 151.19921875" stroke-width="3.0" fill="none" stroke="rgb(0, 0, 0)" stroke-opacity="1.0" stroke-linecap="round" stroke-linejoin="round"/>
    <path d="M 139.28515625 29.551855087280273 C 148.6200408935547 64.55680084228516 131.9415283203125 54.48893737792969 136.22796630859375 75.76948547363281" stroke-width="3.0" fill="none" stroke="rgb(0, 0, 0)" stroke-opacity="1.0" stroke-linecap="round" stroke-linejoin="round"/>
    <path d="M 146.61277770996094 97.65087890625 C 115.17082214355469 105.44059753417969 133.7440185546875 108.22367095947266 136.10806274414062 102.66048431396484" stroke-width="3.0" fill="none" stroke="rgb(0, 0, 0)" stroke-opacity="1.0" stroke-linecap="round" stroke-linejoin="round"/>
    <path d="M 136.88197326660156 70.45987701416016 C 143.8509063720703 55.2292366027832 135.0684356689453 63.98999786376953 135.33267211914062 68.34917449951172" stroke-width="3.0" fill="none" stroke="rgb(0, 0, 0)" stroke-opacity="1.0" stroke-linecap="round" stroke-linejoin="round"/>
    <path d="M 134.51336669921875 174.98416137695312 C 117.7929916381836 186.60049438476562 138.97459411621094 184.75242614746094 144.90065002441406 147.27377319335938" stroke-width="3.0" fill="none" stroke="rgb(0, 0, 0)" stroke-opacity="1.0" stroke-linecap="round" stroke-linejoin="round"/>
    <path d="M 193.5699920654297 95.19972229003906 C 167.5957489013672 73.92652893066406 150.61846923828125 80.36621856689453 183.92645263671875 84.42964172363281" stroke-width="3.0" fill="none" stroke="rgb(0, 0, 0)" stroke-opacity="1.0" stroke-linecap="round" stroke-linejoin="round"/>
    <path d="M 148.06686401367188 76.76919555664062 C 170.23556518554688 63.22522735595703 200.5367889404297 76.18202209472656 179.76052856445312 65.06968688964844" stroke-width="3.0" fill="none" stroke="rgb(0, 0, 0)" stroke-opacity="1.0" stroke-linecap="round" stroke-linejoin="round"/>
    <path d="M 110.64067077636719 78.8965072631836 C 92.22062683105469 70.55281066894531 139.06504821777344 79.23973083496094 107.32234954833984 82.46400451660156" stroke-width="3.0" fill="none" stroke="rgb(0, 0, 0)" stroke-opacity="1.0" stroke-linecap="round" stroke-linejoin="round"/>
    <path d="M 149.46868896484375 140.7635955810547 C 129.20162963867188 156.96022033691406 121.1955795288086 145.91278076171875 104.7021484375 156.46910095214844" stroke-width="3.0" fill="none" stroke="rgb(0, 0, 0)" stroke-opacity="1.0" stroke-linecap="round" stroke-linejoin="round"/>
    <path d="M 123.49717712402344 89.37751007080078 C 144.7124481201172 96.50408935546875 131.36717224121094 67.27757263183594 131.02882385253906 103.1248550415039" stroke-width="3.0" fill="none" stroke="rgb(0, 0, 0)" stroke-opacity="1.0" stroke-linecap="round" stroke-linejoin="round"/>
    <path d="M 187.1725311279297 112.72525787353516 C 179.21157836914062 73.47130584716797 184.91473388671875 92.69183349609375 141.1708526611328 81.95552062988281" stroke-width="3.0" fill="none" stroke="rgb(0, 0, 0)" stroke-opacity="1.0" stroke-linecap="round" stroke-linejoin="round"/>
    <path d="M 87.22795867919922 7.691779613494873 C 107.70771026611328 13.429616928100586 114.78763580322266 33.159053802490234 124.89151000976562 30.335662841796875" stroke-width="3.0" fill="none" stroke="rgb(0, 0, 0)" stroke-opacity="1.0" stroke-linecap="round" stroke-linejoin="round"/>
    <path d="M 60.016265869140625 122.21199798583984 C 49.035640716552734 109.68629455566406 66.1732406616211 117.15017700195312 58.96311569213867 115.34646606445312" stroke-width="3.0" fill="none" stroke="rgb(0, 0, 0)" stroke-opacity="1.0" stroke-linecap="round" stroke-linejoin="round"/>
    <path d="M 130.736572265625 106.3055648803711 C 117.13921356201172 94.91412353515625 122.60482025146484 108.69053649902344 114.04265594482422 88.80008697509766" stroke-width="3.0" fill="none" stroke="rgb(0, 0, 0)" stroke-opacity="1.0" stroke-linecap="round" stroke-linejoin="round"/>
    <path d="M 32.435699462890625 132.51992797851562 C 28.26787757873535 114.4344253540039 35.03925323486328 103.3427734375 32.108909606933594 111.88188171386719" stroke-width="3.0" fill="none" stroke="rgb(0, 0, 0)" stroke-opacity="1.0" stroke-linecap="round" stroke-linejoin="round"/>
    <path d="M 77.15682983398438 197.7696075439453 C 71.92261505126953 194.052978515625 69.61359405517578 193.27577209472656 92.8680648803711 199.6436004638672" stroke-width="3.0" fill="none" stroke="rgb(0, 0, 0)" stroke-opacity="1.0" stroke-linecap="round" stroke-linejoin="round"/>
    <path d="M 152.55955505371094 140.4285125732422 C 210.48086547851562 112.49183654785156 184.39572143554688 92.52981567382812 154.41758728027344 89.4422836303711" stroke-width="3.0" fill="none" stroke="rgb(0, 0, 0)" stroke-opacity="1.0" stroke-linecap="round" stroke-linejoin="round"/>
    <path d="M 156.24612426757812 69.41282653808594 C 125.60411071777344 79.23115539550781 174.2108917236328 85.00628662109375 144.8258819580078 70.07859802246094" stroke-width="3.0" fill="none" stroke="rgb(0, 0, 0)" stroke-opacity="1.0" stroke-linecap="round" stroke-linejoin="round"/>
    <path d="M 140.04551696777344 78.399169921875 C 147.10418701171875 44.591453552246094 195.09613037109375 107.2994155883789 178.34584045410156 49.1241340637207" stroke-width="3.0" fill="none" stroke="rgb(0, 0, 0)" stroke-opacity="1.0" stroke-linecap="round" stroke-linejoin="round"/>
    <path d="M 156.0711212158203 96.76587677001953 C 167.2964324951172 100.36090850830078 183.7683868408203 100.03565216064453 186.9328155517578 112.6084976196289" stroke-width="3.0" fill="none" stroke="rgb(0, 0, 0)" stroke-opacity="1.0" stroke-linecap="round" stroke-linejoin="round"/>
    <path d="M 178.6063690185547 16.863515853881836 C 170.6045684814453 43.936676025390625 174.6602020263672 23.11227035522461 158.47409057617188 38.45162582397461" stroke-width="3.0" fill="none" stroke="rgb(0, 0, 0)" stroke-opacity="1.0" stroke-linecap="round" stroke-linejoin="round"/>
    <path d="M 114.07079315185547 98.00814819335938 C 141.41653442382812 105.8840103149414 132.8541259765625 114.14962768554688 116.91545867919922 94.44908905029297" stroke-width="3.0" fill="none" stroke="rgb(0, 0, 0)" stroke-opacity="1.0" stroke-linecap="round" stroke-linejoin="round"/>
    <path d="M 56.826725006103516 118.94448852539062 C 57.971614837646484 101.7579116821289 52.027400970458984 106.84855651855469 61.21519470214844 127.78838348388672" stroke-width="3.0" fill="none" stroke="rgb(0, 0, 0)" stroke-opacity="1.0" stroke-linecap="round" stroke-linejoin="round"/>
    <path d="M 124.48153686523438 80.21446990966797 C 127.97633361816406 36.55718994140625 118.4913101196289 51.98527145385742 123.56441497802734 32.5157356262207" stroke-width="3.0" fill="none" stroke="rgb(0, 0, 0)" stroke-opacity="1.0" stroke-linecap="round" stroke-linejoin="round"/>
    <path d="M 148.96875 29.7857608795166 C 145.81552124023438 37.19438934326172 155.26429748535156 11.854316711425781 177.77349853515625 7.774150848388672" stroke-width="3.0" fill="none" stroke="rgb(0, 0, 0)" stroke-opacity="1.0" stroke-linecap="round" stroke-linejoin="round"/>
  </g>
</svg>
