<?xml version="1.0" ?>
<svg xmlns="http://www.w3.org/2000/svg" version="1.1" width="224" height="224">
  <defs/>
  <g>
    <path d="M 69.01959991455078 82.08518981933594 C 68.32484436035156 82.21646118164062 73.67577362060547 84.25315856933594 52.81291961669922 77.5441665649414" stroke-width="3.0" fill="none" stroke="rgb(0, 0, 0)" stroke-opacity="1.0" stroke-linecap="round" stroke-linejoin="round"/>
    <path d="M 182.94435119628906 124.83396911621094 C 180.15570068359375 117.02909088134766 202.79371643066406 92.14608764648438 174.06060791015625 128.13877868652344" stroke-width="3.0" fill="none" stroke="rgb(0, 0, 0)" stroke-opacity="1.0" stroke-linecap="round" stroke-linejoin="round"/>
    <path d="M 57.68465042114258 115.1821517944336 C 52.72148895263672 108.73345947265625 56.26156997680664 124.90863800048828 66.66963195800781 132.81729125976562" stroke-width="3.0" fill="none" stroke="rgb(0, 0, 0)" stroke-opacity="1.0" stroke-linecap="round" stroke-linejoin="round"/>
    <path d="M 183.9626007080078 90.59078216552734 C 139.6317138671875 89.2012710571289 174.4639434814453 79.23167419433594 191.36627197265625 106.86457824707031" stroke-width="3.0" fill="none" stroke="rgb(0, 0, 0)" stroke-opacity="1.0" stroke-linecap="round" stroke-linejoin="round"/>
    <path d="M 180.1925048828125 69.42337799072266 C 178.1727294921875 110.8509750366211 182.731689453125 98.90693664550781 184.7590789794922 73.54561614990234" stroke-width="3.0" fill="none" stroke="rgb(0, 0, 0)" stroke-opacity="1.0" stroke-linecap="round" stroke-linejoin="round"/>
    <path d="M 126.84085845947266 105.25800323486328 C 147.07872009277344 112.02412414550781 106.3703384399414 93.22467041015625 135.92588806152344 100.81754302978516" stroke-width="3.0" fill="none" stroke="rgb(0, 0, 0)" stroke-opacity="1.0" stroke-linecap="round" stroke-linejoin="round"/>
    <path d="M 174.64561462402344 82.63213348388672 C 193.20193481445312 88.8175048828125 183.73500061035156 72.499267578125 152.89834594726562 88.77574920654297" stroke-width="3.0" fill="none" stroke="rgb(0, 0, 0)" stroke-opacity="1.0" stroke-linecap="round" stroke-linejoin="round"/>
    <path d="M 64.0721664428711 190.77005004882812 C 35.3281135559082 159.8167724609375 48.542781829833984 165.3975830078125 49.19559097290039 173.15065002441406" stroke-width="3.0" fill="none" stroke="rgb(0, 0, 0)" stroke-opacity="1.0" stroke-linecap="round" stroke-linejoin="round"/>
    <path d="M 56.918609619140625 180.84373474121094 C 89.6148910522461 213.21995544433594 112.09288787841797 196.4611053466797 131.2737579345703 178.10313415527344" stroke-width="3.0" fill="none" stroke="rgb(0, 0, 0)" stroke-opacity="1.0" stroke-linecap="round" stroke-linejoin="round"/>
    <path d="M 83.50210571289062 25.63801383972168 C 93.66006469726562 84.27000427246094 85.1826171875 11.757933616638184 85.66112518310547 58.381587982177734" stroke-width="3.0" fill="none" stroke="rgb(0, 0, 0)" stroke-opacity="1.0" stroke-linecap="round" stroke-linejoin="round"/>
    <path d="M 45.88718032836914 86.61766815185547 C 61.88141632080078 143.1993865966797 87.22503662109375 150.2412567138672 77.98685455322266 141.82778930664062" stroke-width="3.0" fill="none" stroke="rgb(0, 0, 0)" stroke-opacity="1.0" stroke-linecap="round" stroke-linejoin="round"/>
    <path d="M 155.46942138671875 74.44332122802734 C 207.1504669189453 61.48638916015625 186.66720581054688 83.41140747070312 140.3982391357422 86.43695068359375" stroke-width="3.0" fill="none" stroke="rgb(0, 0, 0)" stroke-opacity="1.0" stroke-linecap="round" stroke-linejoin="round"/>
    <path d="M 152.77841186523438 97.38311767578125 C 187.67288208007812 100.8865966796875 175.90896606445312 101.35636901855469 195.70289611816406 114.31829071044922" stroke-width="3.0" fill="none" stroke="rgb(0, 0, 0)" stroke-opacity="1.0" stroke-linecap="round" stroke-linejoin="round"/>
    <path d="M 107.90040588378906 156.00119018554688 C 146.002685546875 155.47682189941406 123.83971405029297 152.87501525878906 105.55548858642578 156.56387329101562" stroke-width="3.0" fill="none" stroke="rgb(0, 0, 0)" stroke-opacity="1.0" stroke-linecap="round" stroke-linejoin="round"/>
    <path d="M 178.34423828125 8.25037956237793 C 187.38253784179688 21.58109474182129 172.01100158691406 71.10209655761719 180.04098510742188 56.366268157958984" stroke-width="3.0" fill="none" stroke="rgb(0, 0, 0)" stroke-opacity="1.0" stroke-linecap="round" stroke-linejoin="round"/>
    <path d="M 135.2624053955078 30.98468589782715 C 128.15316772460938 49.12766647338867 136.02798461914062 54.544620513916016 126.95367431640625 65.89264678955078" stroke-width="3.0" fill="none" stroke="rgb(0, 0, 0)" stroke-opacity="1.0" stroke-linecap="round" stroke-linejoin="round"/>
    <path d="M 92.2637939453125 41.2603759765625 C 70.61207580566406 -0.17371408641338348 89.61395263671875 -1.0874296426773071 115.91878509521484 32.00924301147461" stroke-width="3.0" fill="none" stroke="rgb(0, 0, 0)" stroke-opacity="1.0" stroke-linecap="round" stroke-linejoin="round"/>
    <path d="M 47.9127082824707 169.88731384277344 C 40.925559997558594 153.71388244628906 38.80719757080078 145.42535400390625 48.271053314208984 169.62979125976562" stroke-width="3.0" fill="none" stroke="rgb(0, 0, 0)" stroke-opacity="1.0" stroke-linecap="round" stroke-linejoin="round"/>
    <path d="M 35.61692810058594 96.48502349853516 C 20.527984619140625 127.92250061035156 42.178192138671875 145.7599334716797 44.092350006103516 164.92274475097656" stroke-width="3.0" fill="none" stroke="rgb(0, 0, 0)" stroke-opacity="1.0" stroke-linecap="round" stroke-linejoin="round"/>
    <path d="M 79.55281829833984 149.07125854492188 C 116.4749526977539 156.9661407470703 97.48915100097656 157.82171630859375 103.82147979736328 150.64724731445312" stroke-width="3.0" fill="none" stroke="rgb(0, 0, 0)" stroke-opacity="1.0" stroke-linecap="round" stroke-linejoin="round"/>
    <path d="M 88.53642272949219 198.8954315185547 C 70.54119110107422 201.79966735839844 46.231536865234375 177.3659210205078 48.341407775878906 170.17098999023438" stroke-width="3.0" fill="none" stroke="rgb(0, 0, 0)" stroke-opacity="1.0" stroke-linecap="round" stroke-linejoin="round"/>
    <path d="M 49.13352584838867 173.36485290527344 C 67.031494140625 193.90087890625 46.09280776977539 171.0808563232422 37.15004348754883 146.19985961914062" stroke-width="3.0" fill="none" stroke="rgb(0, 0, 0)" stroke-opacity="1.0" stroke-linecap="round" stroke-linejoin="round"/>
    <path d="M 79.61976623535156 54.83933639526367 C 61.419918060302734 55.804237365722656 47.85173034667969 71.16390991210938 31.88654899597168 105.51603698730469" stroke-width="3.0" fill="none" stroke="rgb(0, 0, 0)" stroke-opacity="1.0" stroke-linecap="round" stroke-linejoin="round"/>
    <path d="M 154.68658447265625 139.36117553710938 C 114.5716781616211 153.551025390625 118.46611022949219 162.2366485595703 143.9920654296875 146.06033325195312" stroke-width="3.0" fill="none" stroke="rgb(0, 0, 0)" stroke-opacity="1.0" stroke-linecap="round" stroke-linejoin="round"/>
    <path d="M 152.30801391601562 25.752609252929688 C 140.1264190673828 42.011451721191406 136.26910400390625 12.173910140991211 137.53424072265625 81.64070892333984" stroke-width="3.0" fill="none" stroke="rgb(0, 0, 0)" stroke-opacity="1.0" stroke-linecap="round" stroke-linejoin="round"/>
    <path d="M 148.40687561035156 94.57328033447266 C 129.72132873535156 107.91460418701172 127.86921691894531 109.8476791381836 123.18132781982422 101.29840087890625" stroke-width="3.0" fill="none" stroke="rgb(0, 0, 0)" stroke-opacity="1.0" stroke-linecap="round" stroke-linejoin="round"/>
    <path d="M 133.8862762451172 70.8363265991211 C 141.85289001464844 61.3543815612793 128.0006866455078 66.8101577758789 137.9566650390625 79.13661193847656" stroke-width="3.0" fill="none" stroke="rgb(0, 0, 0)" stroke-opacity="1.0" stroke-linecap="round" stroke-linejoin="round"/>
    <path d="M 133.96185302734375 175.30442810058594 C 126.32794952392578 174.521240234375 143.71188354492188 178.33656311035156 147.552734375 145.26112365722656" stroke-width="3.0" fill="none" stroke="rgb(0, 0, 0)" stroke-opacity="1.0" stroke-linecap="round" stroke-linejoin="round"/>
    <path d="M 193.59375 91.81378936767578 C 168.70533752441406 73.48588562011719 167.93345642089844 81.9186782836914 183.76734924316406 88.2952651977539" stroke-width="3.0" fill="none" stroke="rgb(0, 0, 0)" stroke-opacity="1.0" stroke-linecap="round" stroke-linejoin="round"/>
    <path d="M 154.5250701904297 76.46849060058594 C 122.78016662597656 61.239009857177734 203.15911865234375 82.77694702148438 178.9582977294922 65.06136322021484" stroke-width="3.0" fill="none" stroke="rgb(0, 0, 0)" stroke-opacity="1.0" stroke-linecap="round" stroke-linejoin="round"/>
    <path d="M 109.32514190673828 76.61922454833984 C 86.66504669189453 69.42202758789062 140.4700164794922 75.36917877197266 108.13916778564453 79.66519927978516" stroke-width="3.0" fill="none" stroke="rgb(0, 0, 0)" stroke-opacity="1.0" stroke-linecap="round" stroke-linejoin="round"/>
    <path d="M 162.6707305908203 129.44393920898438 C 144.38157653808594 156.79446411132812 119.70307159423828 149.82371520996094 104.83951568603516 155.51004028320312" stroke-width="3.0" fill="none" stroke="rgb(0, 0, 0)" stroke-opacity="1.0" stroke-linecap="round" stroke-linejoin="round"/>
    <path d="M 118.89813232421875 87.33963775634766 C 142.4346923828125 99.12751007080078 124.49868774414062 70.72371673583984 128.82684326171875 107.15899658203125" stroke-width="3.0" fill="none" stroke="rgb(0, 0, 0)" stroke-opacity="1.0" stroke-linecap="round" stroke-linejoin="round"/>
    <path d="M 185.58428955078125 111.4981460571289 C 170.44369506835938 87.631103515625 180.4733123779297 83.76181030273438 150.13758850097656 89.78717803955078" stroke-width="3.0" fill="none" stroke="rgb(0, 0, 0)" stroke-opacity="1.0" stroke-linecap="round" stroke-linejoin="round"/>
    <path d="M 85.3105239868164 9.666419982910156 C 106.39635467529297 13.252578735351562 117.83304595947266 35.35614776611328 122.77269744873047 29.279207229614258" stroke-width="3.0" fill="none" stroke="rgb(0, 0, 0)" stroke-opacity="1.0" stroke-linecap="round" stroke-linejoin="round"/>
    <path d="M 60.11363220214844 122.5138931274414 C 54.48488235473633 115.78910827636719 61.44432830810547 128.57427978515625 66.3927993774414 127.80586242675781" stroke-width="3.0" fill="none" stroke="rgb(0, 0, 0)" stroke-opacity="1.0" stroke-linecap="round" stroke-linejoin="round"/>
    <path d="M 138.34986877441406 103.7979965209961 C 125.20081329345703 91.37505340576172 127.44769287109375 119.24944305419922 112.93013763427734 92.06246948242188" stroke-width="3.0" fill="none" stroke="rgb(0, 0, 0)" stroke-opacity="1.0" stroke-linecap="round" stroke-linejoin="round"/>
    <path d="M 31.236709594726562 129.3168487548828 C 29.340824127197266 97.83511352539062 35.5452766418457 95.68328857421875 46.95127868652344 76.08847045898438" stroke-width="3.0" fill="none" stroke="rgb(0, 0, 0)" stroke-opacity="1.0" stroke-linecap="round" stroke-linejoin="round"/>
    <path d="M 79.66004180908203 197.86160278320312 C 72.01571655273438 192.49546813964844 65.24549102783203 199.8353271484375 100.2546615600586 197.4559783935547" stroke-width="3.0" fill="none" stroke="rgb(0, 0, 0)" stroke-opacity="1.0" stroke-linecap="round" stroke-linejoin="round"/>
    <path d="M 164.21337890625 130.09890747070312 C 200.80056762695312 114.5610580444336 178.4239044189453 98.3554916381836 155.35867309570312 90.07422637939453" stroke-width="3.0" fill="none" stroke="rgb(0, 0, 0)" stroke-opacity="1.0" stroke-linecap="round" stroke-linejoin="round"/>
    <path d="M 149.72805786132812 69.27559661865234 C 135.47409057617188 87.46980285644531 174.5828399658203 76.53140258789062 146.68629455566406 68.36331939697266" stroke-width="3.0" fill="none" stroke="rgb(0, 0, 0)" stroke-opacity="1.0" stroke-linecap="round" stroke-linejoin="round"/>
    <path d="M 142.1149139404297 76.5931625366211 C 147.8125 44.028221130371094 198.47296142578125 112.9630355834961 177.29417419433594 42.41338348388672" stroke-width="3.0" fill="none" stroke="rgb(0, 0, 0)" stroke-opacity="1.0" stroke-linecap="round" stroke-linejoin="round"/>
    <path d="M 153.9990692138672 97.77056121826172 C 169.1492919921875 103.73054504394531 174.29188537597656 104.53858184814453 181.83229064941406 118.83456420898438" stroke-width="3.0" fill="none" stroke="rgb(0, 0, 0)" stroke-opacity="1.0" stroke-linecap="round" stroke-linejoin="round"/>
    <path d="M 177.0351104736328 15.464335441589355 C 171.76885986328125 41.68695068359375 179.45628356933594 15.55314826965332 167.17100524902344 37.158470153808594" stroke-width="3.0" fill="none" stroke="rgb(0, 0, 0)" stroke-opacity="1.0" stroke-linecap="round" stroke-linejoin="round"/>
    <path d="M 117.0866928100586 101.56550598144531 C 147.9631805419922 99.45801544189453 130.43321228027344 114.43840026855469 117.92233276367188 101.42106628417969" stroke-width="3.0" fill="none" stroke="rgb(0, 0, 0)" stroke-opacity="1.0" stroke-linecap="round" stroke-linejoin="round"/>
    <path d="M 70.36032104492188 131.42701721191406 C 49.585357666015625 126.58502960205078 62.145816802978516 113.86688995361328 58.84600830078125 116.90596771240234" stroke-width="3.0" fill="none" stroke="rgb(0, 0, 0)" stroke-opacity="1.0" stroke-linecap="round" stroke-linejoin="round"/>
    <path d="M 123.74240112304688 72.51359558105469 C 132.67613220214844 36.05565643310547 123.20120239257812 50.317909240722656 127.75590515136719 30.879470825195312" stroke-width="3.0" fill="none" stroke="rgb(0, 0, 0)" stroke-opacity="1.0" stroke-linecap="round" stroke-linejoin="round"/>
    <path d="M 156.7729034423828 19.142677307128906 C 146.940673828125 31.626405715942383 165.2434539794922 9.025729179382324 179.01902770996094 7.737706184387207" stroke-width="3.0" fill="none" stroke="rgb(0, 0, 0)" stroke-opacity="1.0" stroke-linecap="round" stroke-linejoin="round"/>
  </g>
</svg>
