<?xml version="1.0" ?>
<svg xmlns="http://www.w3.org/2000/svg" version="1.1" width="224" height="224">
  <defs/>
  <g>
    <path d="M 63.81663513183594 82.92630767822266 C 66.55467224121094 85.25337982177734 65.72953796386719 84.70806884765625 54.29008102416992 74.89564514160156" stroke-width="3.0" fill="none" stroke="rgb(0, 0, 0)" stroke-opacity="1.0" stroke-linecap="round" stroke-linejoin="round"/>
    <path d="M 183.40676879882812 123.9967269897461 C 179.59962463378906 109.58956146240234 198.19309997558594 98.43180847167969 175.9346923828125 129.54234313964844" stroke-width="3.0" fill="none" stroke="rgb(0, 0, 0)" stroke-opacity="1.0" stroke-linecap="round" stroke-linejoin="round"/>
    <path d="M 65.56879425048828 117.46051025390625 C 67.78836059570312 102.94019317626953 52.0246696472168 117.77542114257812 72.12022399902344 123.19245147705078" stroke-width="3.0" fill="none" stroke="rgb(0, 0, 0)" stroke-opacity="1.0" stroke-linecap="round" stroke-linejoin="round"/>
    <path d="M 185.1498565673828 100.26368713378906 C 154.15078735351562 87.49775695800781 176.13345336914062 81.6192626953125 196.86941528320312 111.86438751220703" stroke-width="3.0" fill="none" stroke="rgb(0, 0, 0)" stroke-opacity="1.0" stroke-linecap="round" stroke-linejoin="round"/>
    <path d="M 183.70082092285156 73.65392303466797 C 180.50033569335938 105.70848846435547 178.93162536621094 95.48592376708984 182.2412872314453 57.89292526245117" stroke-width="3.0" fill="none" stroke="rgb(0, 0, 0)" stroke-opacity="1.0" stroke-linecap="round" stroke-linejoin="round"/>
    <path d="M 126.20902252197266 103.36109161376953 C 146.33767700195312 112.46955871582031 100.44850158691406 99.2374267578125 138.030517578125 102.1658935546875" stroke-width="3.0" fill="none" stroke="rgb(0, 0, 0)" stroke-opacity="1.0" stroke-linecap="round" stroke-linejoin="round"/>
    <path d="M 172.15672302246094 104.69085693359375 C 195.3798065185547 87.10713958740234 181.11692810058594 72.80345153808594 155.35592651367188 85.53936004638672" stroke-width="3.0" fill="none" stroke="rgb(0, 0, 0)" stroke-opacity="1.0" stroke-linecap="round" stroke-linejoin="round"/>
    <path d="M 57.35884094238281 182.1892852783203 C 38.33147430419922 155.5999298095703 49.16429138183594 165.6896209716797 47.57198715209961 171.4757080078125" stroke-width="3.0" fill="none" stroke="rgb(0, 0, 0)" stroke-opacity="1.0" stroke-linecap="round" stroke-linejoin="round"/>
    <path d="M 58.43654251098633 182.08566284179688 C 92.0285415649414 212.29800415039062 112.74470520019531 198.8626708984375 131.64430236816406 179.35385131835938" stroke-width="3.0" fill="none" stroke="rgb(0, 0, 0)" stroke-opacity="1.0" stroke-linecap="round" stroke-linejoin="round"/>
    <path d="M 90.09344482421875 28.20760726928711 C 103.87403869628906 58.883182525634766 88.07282257080078 6.281102657318115 90.04988098144531 48.38595962524414" stroke-width="3.0" fill="none" stroke="rgb(0, 0, 0)" stroke-opacity="1.0" stroke-linecap="round" stroke-linejoin="round"/>
    <path d="M 66.5887451171875 113.34488677978516 C 59.03586959838867 134.73509216308594 104.07077026367188 155.66204833984375 98.00527954101562 156.898681640625" stroke-width="3.0" fill="none" stroke="rgb(0, 0, 0)" stroke-opacity="1.0" stroke-linecap="round" stroke-linejoin="round"/>
    <path d="M 146.56834411621094 72.03736877441406 C 198.8236083984375 68.60281372070312 182.01116943359375 83.55216217041016 151.28631591796875 84.75729370117188" stroke-width="3.0" fill="none" stroke="rgb(0, 0, 0)" stroke-opacity="1.0" stroke-linecap="round" stroke-linejoin="round"/>
    <path d="M 150.4341583251953 94.76234436035156 C 179.76287841796875 101.78593444824219 178.5682373046875 101.84619903564453 190.03257751464844 112.08636474609375" stroke-width="3.0" fill="none" stroke="rgb(0, 0, 0)" stroke-opacity="1.0" stroke-linecap="round" stroke-linejoin="round"/>
    <path d="M 119.0998306274414 159.76480102539062 C 146.26185607910156 145.486083984375 118.26079559326172 156.9023895263672 119.49986267089844 152.2550811767578" stroke-width="3.0" fill="none" stroke="rgb(0, 0, 0)" stroke-opacity="1.0" stroke-linecap="round" stroke-linejoin="round"/>
    <path d="M 179.71636962890625 6.703728675842285 C 191.088623046875 13.954826354980469 175.93080139160156 63.01647186279297 178.0604248046875 47.60552978515625" stroke-width="3.0" fill="none" stroke="rgb(0, 0, 0)" stroke-opacity="1.0" stroke-linecap="round" stroke-linejoin="round"/>
    <path d="M 131.59017944335938 31.6473445892334 C 122.41682434082031 61.576690673828125 131.73345947265625 39.06599807739258 124.65567016601562 70.59306335449219" stroke-width="3.0" fill="none" stroke="rgb(0, 0, 0)" stroke-opacity="1.0" stroke-linecap="round" stroke-linejoin="round"/>
    <path d="M 95.40770721435547 44.969078063964844 C 73.35436248779297 -2.8855435848236084 83.94052124023438 1.2723478078842163 110.39007568359375 40.3958740234375" stroke-width="3.0" fill="none" stroke="rgb(0, 0, 0)" stroke-opacity="1.0" stroke-linecap="round" stroke-linejoin="round"/>
    <path d="M 46.75860595703125 165.10800170898438 C 41.49933624267578 152.7397918701172 38.94594955444336 147.14144897460938 43.326263427734375 158.7703857421875" stroke-width="3.0" fill="none" stroke="rgb(0, 0, 0)" stroke-opacity="1.0" stroke-linecap="round" stroke-linejoin="round"/>
    <path d="M 34.062164306640625 103.53284454345703 C 22.202016830444336 128.555908203125 37.112361907958984 144.3137969970703 40.40522384643555 151.38453674316406" stroke-width="3.0" fill="none" stroke="rgb(0, 0, 0)" stroke-opacity="1.0" stroke-linecap="round" stroke-linejoin="round"/>
    <path d="M 88.42415618896484 150.33535766601562 C 103.74605560302734 161.20645141601562 116.36929321289062 148.1412811279297 105.93795776367188 160.48736572265625" stroke-width="3.0" fill="none" stroke="rgb(0, 0, 0)" stroke-opacity="1.0" stroke-linecap="round" stroke-linejoin="round"/>
    <path d="M 82.56086730957031 196.70529174804688 C 66.84638977050781 197.6790771484375 50.721527099609375 178.85189819335938 49.693294525146484 173.3338165283203" stroke-width="3.0" fill="none" stroke="rgb(0, 0, 0)" stroke-opacity="1.0" stroke-linecap="round" stroke-linejoin="round"/>
    <path d="M 43.82701110839844 163.0136260986328 C 60.41658020019531 191.89730834960938 42.76173400878906 164.57798767089844 37.488914489746094 143.9705047607422" stroke-width="3.0" fill="none" stroke="rgb(0, 0, 0)" stroke-opacity="1.0" stroke-linecap="round" stroke-linejoin="round"/>
    <path d="M 82.40426635742188 54.57058334350586 C 55.39393997192383 55.757484436035156 50.59056091308594 71.72673797607422 33.6650276184082 106.96849822998047" stroke-width="3.0" fill="none" stroke="rgb(0, 0, 0)" stroke-opacity="1.0" stroke-linecap="round" stroke-linejoin="round"/>
    <path d="M 150.60073852539062 141.85594177246094 C 129.6626434326172 159.28399658203125 119.93287658691406 149.7290802001953 128.8870086669922 152.31845092773438" stroke-width="3.0" fill="none" stroke="rgb(0, 0, 0)" stroke-opacity="1.0" stroke-linecap="round" stroke-linejoin="round"/>
    <path d="M 140.23736572265625 31.548940658569336 C 145.72808837890625 65.26395416259766 135.78993225097656 55.37622833251953 135.56375122070312 74.21820831298828" stroke-width="3.0" fill="none" stroke="rgb(0, 0, 0)" stroke-opacity="1.0" stroke-linecap="round" stroke-linejoin="round"/>
    <path d="M 146.17526245117188 97.76202392578125 C 114.34648895263672 109.16655731201172 133.78366088867188 108.66758728027344 136.4140167236328 102.17671966552734" stroke-width="3.0" fill="none" stroke="rgb(0, 0, 0)" stroke-opacity="1.0" stroke-linecap="round" stroke-linejoin="round"/>
    <path d="M 136.52603149414062 70.36924743652344 C 147.95529174804688 55.80006790161133 131.02769470214844 59.924320220947266 134.68280029296875 69.52779388427734" stroke-width="3.0" fill="none" stroke="rgb(0, 0, 0)" stroke-opacity="1.0" stroke-linecap="round" stroke-linejoin="round"/>
    <path d="M 134.61595153808594 177.11959838867188 C 125.64970397949219 186.5574951171875 138.75762939453125 179.0504913330078 146.12564086914062 146.64797973632812" stroke-width="3.0" fill="none" stroke="rgb(0, 0, 0)" stroke-opacity="1.0" stroke-linecap="round" stroke-linejoin="round"/>
    <path d="M 191.5467071533203 96.02804565429688 C 168.50094604492188 73.91107177734375 156.261474609375 83.3852767944336 183.63099670410156 84.95779418945312" stroke-width="3.0" fill="none" stroke="rgb(0, 0, 0)" stroke-opacity="1.0" stroke-linecap="round" stroke-linejoin="round"/>
    <path d="M 151.47137451171875 76.81491088867188 C 159.54180908203125 62.58835983276367 197.70419311523438 77.72180938720703 175.90414428710938 65.30156707763672" stroke-width="3.0" fill="none" stroke="rgb(0, 0, 0)" stroke-opacity="1.0" stroke-linecap="round" stroke-linejoin="round"/>
    <path d="M 115.80236053466797 80.25650024414062 C 84.19202423095703 72.88824462890625 134.75601196289062 73.6018295288086 114.37232208251953 77.94112396240234" stroke-width="3.0" fill="none" stroke="rgb(0, 0, 0)" stroke-opacity="1.0" stroke-linecap="round" stroke-linejoin="round"/>
    <path d="M 154.62318420410156 137.0283966064453 C 137.108642578125 168.0613250732422 113.83378601074219 148.75466918945312 100.164794921875 159.8208465576172" stroke-width="3.0" fill="none" stroke="rgb(0, 0, 0)" stroke-opacity="1.0" stroke-linecap="round" stroke-linejoin="round"/>
    <path d="M 126.13020324707031 87.81857299804688 C 143.461669921875 99.06356048583984 133.9009552001953 71.0982666015625 129.04383850097656 105.1987533569336" stroke-width="3.0" fill="none" stroke="rgb(0, 0, 0)" stroke-opacity="1.0" stroke-linecap="round" stroke-linejoin="round"/>
    <path d="M 183.64219665527344 111.66997528076172 C 181.89443969726562 79.4490966796875 189.24459838867188 95.17605590820312 139.76963806152344 82.3165283203125" stroke-width="3.0" fill="none" stroke="rgb(0, 0, 0)" stroke-opacity="1.0" stroke-linecap="round" stroke-linejoin="round"/>
    <path d="M 86.8653793334961 7.800675392150879 C 103.48214721679688 14.384848594665527 115.5174789428711 34.27558898925781 119.20023345947266 32.07054138183594" stroke-width="3.0" fill="none" stroke="rgb(0, 0, 0)" stroke-opacity="1.0" stroke-linecap="round" stroke-linejoin="round"/>
    <path d="M 64.7782974243164 120.92572021484375 C 58.73099899291992 113.76934051513672 70.61236572265625 130.1606903076172 66.02327728271484 119.32805633544922" stroke-width="3.0" fill="none" stroke="rgb(0, 0, 0)" stroke-opacity="1.0" stroke-linecap="round" stroke-linejoin="round"/>
    <path d="M 137.83116149902344 103.30186462402344 C 114.02136993408203 92.77975463867188 123.30107116699219 111.40066528320312 115.84039306640625 86.57917022705078" stroke-width="3.0" fill="none" stroke="rgb(0, 0, 0)" stroke-opacity="1.0" stroke-linecap="round" stroke-linejoin="round"/>
    <path d="M 30.85365867614746 131.2110137939453 C 29.92037582397461 108.94805908203125 36.29313278198242 108.62628936767578 35.42230224609375 101.5302963256836" stroke-width="3.0" fill="none" stroke="rgb(0, 0, 0)" stroke-opacity="1.0" stroke-linecap="round" stroke-linejoin="round"/>
    <path d="M 84.82804870605469 198.476806640625 C 70.43265533447266 194.94732666015625 65.40023803710938 196.4392547607422 93.29280853271484 199.449462890625" stroke-width="3.0" fill="none" stroke="rgb(0, 0, 0)" stroke-opacity="1.0" stroke-linecap="round" stroke-linejoin="round"/>
    <path d="M 157.26138305664062 138.54981994628906 C 205.896728515625 114.48944854736328 178.34262084960938 99.85962677001953 158.96246337890625 90.0498275756836" stroke-width="3.0" fill="none" stroke="rgb(0, 0, 0)" stroke-opacity="1.0" stroke-linecap="round" stroke-linejoin="round"/>
    <path d="M 157.48651123046875 72.2080307006836 C 122.85643005371094 78.74628448486328 174.5697784423828 80.41311645507812 149.0337677001953 70.01048278808594" stroke-width="3.0" fill="none" stroke="rgb(0, 0, 0)" stroke-opacity="1.0" stroke-linecap="round" stroke-linejoin="round"/>
    <path d="M 139.48097229003906 77.79889678955078 C 146.7787322998047 42.72526550292969 191.33653259277344 112.66847229003906 177.94281005859375 46.81940460205078" stroke-width="3.0" fill="none" stroke="rgb(0, 0, 0)" stroke-opacity="1.0" stroke-linecap="round" stroke-linejoin="round"/>
    <path d="M 158.08631896972656 98.5671615600586 C 164.37742614746094 103.53213500976562 173.50851440429688 101.0538558959961 183.89390563964844 119.08911895751953" stroke-width="3.0" fill="none" stroke="rgb(0, 0, 0)" stroke-opacity="1.0" stroke-linecap="round" stroke-linejoin="round"/>
    <path d="M 177.44065856933594 13.203206062316895 C 167.01512145996094 41.43135070800781 172.8949737548828 21.313932418823242 158.9263458251953 35.08040237426758" stroke-width="3.0" fill="none" stroke="rgb(0, 0, 0)" stroke-opacity="1.0" stroke-linecap="round" stroke-linejoin="round"/>
    <path d="M 122.35165405273438 101.49533081054688 C 144.341796875 101.48844146728516 126.0501480102539 113.26477813720703 118.48641204833984 98.5494155883789" stroke-width="3.0" fill="none" stroke="rgb(0, 0, 0)" stroke-opacity="1.0" stroke-linecap="round" stroke-linejoin="round"/>
    <path d="M 71.9557113647461 129.06512451171875 C 49.30479049682617 96.97913360595703 56.98509979248047 103.31134796142578 66.5730972290039 118.56159210205078" stroke-width="3.0" fill="none" stroke="rgb(0, 0, 0)" stroke-opacity="1.0" stroke-linecap="round" stroke-linejoin="round"/>
    <path d="M 124.02851867675781 74.87763214111328 C 126.02538299560547 40.34354019165039 115.749267578125 57.85785675048828 123.54531860351562 32.31482696533203" stroke-width="3.0" fill="none" stroke="rgb(0, 0, 0)" stroke-opacity="1.0" stroke-linecap="round" stroke-linejoin="round"/>
    <path d="M 146.02699279785156 30.48516845703125 C 143.9716796875 39.61447525024414 158.56454467773438 11.147037506103516 178.3597869873047 7.9502787590026855" stroke-width="3.0" fill="none" stroke="rgb(0, 0, 0)" stroke-opacity="1.0" stroke-linecap="round" stroke-linejoin="round"/>
  </g>
</svg>
