<?xml version="1.0" ?>
<svg xmlns="http://www.w3.org/2000/svg" version="1.1" width="224" height="224">
  <defs/>
  <g>
    <path d="M 53.54637145996094 117.99434661865234 C 55.4016227722168 118.80593872070312 44.400634765625 108.21602630615234 40.671058654785156 97.08074951171875" stroke-width="3.0" fill="none" stroke="rgb(0, 0, 0)" stroke-opacity="1.0" stroke-linecap="round" stroke-linejoin="round"/>
    <path d="M 179.6853485107422 129.2216796875 C 181.3946990966797 108.67842102050781 186.4188232421875 115.54325866699219 184.2109832763672 121.38834381103516" stroke-width="3.0" fill="none" stroke="rgb(0, 0, 0)" stroke-opacity="1.0" stroke-linecap="round" stroke-linejoin="round"/>
    <path d="M 50.388668060302734 112.2546157836914 C 50.369625091552734 114.80321502685547 47.26890182495117 108.16756439208984 52.25351333618164 115.2398681640625" stroke-width="3.0" fill="none" stroke="rgb(0, 0, 0)" stroke-opacity="1.0" stroke-linecap="round" stroke-linejoin="round"/>
    <path d="M 184.91029357910156 96.9590835571289 C 154.35072326660156 93.33171844482422 173.29666137695312 78.7882080078125 195.3531036376953 114.47042846679688" stroke-width="3.0" fill="none" stroke="rgb(0, 0, 0)" stroke-opacity="1.0" stroke-linecap="round" stroke-linejoin="round"/>
    <path d="M 186.44216918945312 75.11943054199219 C 184.1565704345703 93.6287841796875 181.26834106445312 84.14286041259766 187.01499938964844 65.96526336669922" stroke-width="3.0" fill="none" stroke="rgb(0, 0, 0)" stroke-opacity="1.0" stroke-linecap="round" stroke-linejoin="round"/>
    <path d="M 132.46136474609375 101.46481323242188 C 135.0596160888672 117.4521484375 110.35908508300781 99.46452331542969 130.7840576171875 108.52175903320312" stroke-width="3.0" fill="none" stroke="rgb(0, 0, 0)" stroke-opacity="1.0" stroke-linecap="round" stroke-linejoin="round"/>
    <path d="M 164.11036682128906 95.10649108886719 C 203.37045288085938 69.33407592773438 186.33384704589844 71.55121612548828 158.93484497070312 87.07266998291016" stroke-width="3.0" fill="none" stroke="rgb(0, 0, 0)" stroke-opacity="1.0" stroke-linecap="round" stroke-linejoin="round"/>
    <path d="M 51.92137145996094 179.70425415039062 C 34.86527633666992 153.40203857421875 45.47076416015625 158.396728515625 41.89578628540039 153.2449493408203" stroke-width="3.0" fill="none" stroke="rgb(0, 0, 0)" stroke-opacity="1.0" stroke-linecap="round" stroke-linejoin="round"/>
    <path d="M 68.7880859375 190.7296600341797 C 86.42806243896484 202.85421752929688 107.34712982177734 194.98582458496094 104.88680267333984 193.46470642089844" stroke-width="3.0" fill="none" stroke="rgb(0, 0, 0)" stroke-opacity="1.0" stroke-linecap="round" stroke-linejoin="round"/>
    <path d="M 87.25302124023438 22.038095474243164 C 92.74944305419922 69.36365509033203 85.51741027832031 23.352291107177734 90.48595428466797 59.8541374206543" stroke-width="3.0" fill="none" stroke="rgb(0, 0, 0)" stroke-opacity="1.0" stroke-linecap="round" stroke-linejoin="round"/>
    <path d="M 59.70735168457031 127.47624969482422 C 68.38130187988281 138.08152770996094 86.44107055664062 143.8542938232422 85.17958068847656 144.88543701171875" stroke-width="3.0" fill="none" stroke="rgb(0, 0, 0)" stroke-opacity="1.0" stroke-linecap="round" stroke-linejoin="round"/>
    <path d="M 152.21348571777344 72.85487365722656 C 205.72695922851562 75.85721588134766 183.2532501220703 85.03157806396484 145.8296661376953 85.05181884765625" stroke-width="3.0" fill="none" stroke="rgb(0, 0, 0)" stroke-opacity="1.0" stroke-linecap="round" stroke-linejoin="round"/>
    <path d="M 149.35279846191406 101.97077941894531 C 175.43478393554688 99.73821258544922 171.67198181152344 103.05252838134766 187.3361358642578 107.23446655273438" stroke-width="3.0" fill="none" stroke="rgb(0, 0, 0)" stroke-opacity="1.0" stroke-linecap="round" stroke-linejoin="round"/>
    <path d="M 95.92237091064453 154.9120635986328 C 114.66943359375 162.4359130859375 104.43258666992188 186.73834228515625 110.61123657226562 189.66893005371094" stroke-width="3.0" fill="none" stroke="rgb(0, 0, 0)" stroke-opacity="1.0" stroke-linecap="round" stroke-linejoin="round"/>
    <path d="M 171.61387634277344 9.67121696472168 C 191.72720336914062 0.3165943920612335 176.6133270263672 50.37408447265625 186.23321533203125 61.671287536621094" stroke-width="3.0" fill="none" stroke="rgb(0, 0, 0)" stroke-opacity="1.0" stroke-linecap="round" stroke-linejoin="round"/>
    <path d="M 133.50833129882812 32.07101821899414 C 132.352783203125 68.34474182128906 135.53956604003906 39.30997085571289 132.8199462890625 67.0189208984375" stroke-width="3.0" fill="none" stroke="rgb(0, 0, 0)" stroke-opacity="1.0" stroke-linecap="round" stroke-linejoin="round"/>
    <path d="M 93.67428588867188 47.10381317138672 C 66.18989562988281 1.5213377475738525 78.93254089355469 8.272502899169922 97.6842041015625 44.15656280517578" stroke-width="3.0" fill="none" stroke="rgb(0, 0, 0)" stroke-opacity="1.0" stroke-linecap="round" stroke-linejoin="round"/>
    <path d="M 42.720550537109375 162.5899200439453 C 44.11994934082031 153.75205993652344 47.02267074584961 158.6134490966797 43.014122009277344 160.45889282226562" stroke-width="3.0" fill="none" stroke="rgb(0, 0, 0)" stroke-opacity="1.0" stroke-linecap="round" stroke-linejoin="round"/>
    <path d="M 33.16099548339844 104.88597106933594 C 25.568784713745117 123.6225814819336 39.306278228759766 140.5585479736328 38.503719329833984 151.57485961914062" stroke-width="3.0" fill="none" stroke="rgb(0, 0, 0)" stroke-opacity="1.0" stroke-linecap="round" stroke-linejoin="round"/>
    <path d="M 89.40455627441406 146.91424560546875 C 97.30452728271484 156.99888610839844 99.85572814941406 157.26278686523438 90.63324737548828 150.09982299804688" stroke-width="3.0" fill="none" stroke="rgb(0, 0, 0)" stroke-opacity="1.0" stroke-linecap="round" stroke-linejoin="round"/>
    <path d="M 76.48900604248047 196.75404357910156 C 47.98615264892578 177.06788635253906 64.30628204345703 185.4697265625 46.279170989990234 171.23448181152344" stroke-width="3.0" fill="none" stroke="rgb(0, 0, 0)" stroke-opacity="1.0" stroke-linecap="round" stroke-linejoin="round"/>
    <path d="M 42.928260803222656 163.53060913085938 C 54.23759841918945 174.727783203125 35.890830993652344 161.51104736328125 39.59340286254883 147.47576904296875" stroke-width="3.0" fill="none" stroke="rgb(0, 0, 0)" stroke-opacity="1.0" stroke-linecap="round" stroke-linejoin="round"/>
    <path d="M 83.83650970458984 53.765750885009766 C 56.02886962890625 56.77226257324219 46.987220764160156 73.57379150390625 32.21212387084961 106.41242218017578" stroke-width="3.0" fill="none" stroke="rgb(0, 0, 0)" stroke-opacity="1.0" stroke-linecap="round" stroke-linejoin="round"/>
    <path d="M 147.67489624023438 156.9813690185547 C 142.7852020263672 161.38731384277344 128.3870086669922 143.6087646484375 138.90896606445312 163.56068420410156" stroke-width="3.0" fill="none" stroke="rgb(0, 0, 0)" stroke-opacity="1.0" stroke-linecap="round" stroke-linejoin="round"/>
    <path d="M 140.87680053710938 33.58020782470703 C 152.81082153320312 57.335548400878906 135.920654296875 56.53087615966797 138.43765258789062 79.47134399414062" stroke-width="3.0" fill="none" stroke="rgb(0, 0, 0)" stroke-opacity="1.0" stroke-linecap="round" stroke-linejoin="round"/>
    <path d="M 145.4191131591797 101.4112319946289 C 132.5624237060547 115.65653228759766 119.8779067993164 101.2233657836914 130.04635620117188 104.2259750366211" stroke-width="3.0" fill="none" stroke="rgb(0, 0, 0)" stroke-opacity="1.0" stroke-linecap="round" stroke-linejoin="round"/>
    <path d="M 139.7753143310547 72.49017333984375 C 149.25640869140625 52.932106018066406 151.90744018554688 57.73451614379883 153.45437622070312 52.497379302978516" stroke-width="3.0" fill="none" stroke="rgb(0, 0, 0)" stroke-opacity="1.0" stroke-linecap="round" stroke-linejoin="round"/>
    <path d="M 120.01083374023438 186.65261840820312 C 96.34866333007812 190.5366668701172 115.1518783569336 201.9576416015625 135.47775268554688 168.29794311523438" stroke-width="3.0" fill="none" stroke="rgb(0, 0, 0)" stroke-opacity="1.0" stroke-linecap="round" stroke-linejoin="round"/>
    <path d="M 191.66383361816406 94.8280258178711 C 159.1279296875 73.802978515625 143.69076538085938 101.00541687011719 186.57516479492188 85.52224731445312" stroke-width="3.0" fill="none" stroke="rgb(0, 0, 0)" stroke-opacity="1.0" stroke-linecap="round" stroke-linejoin="round"/>
    <path d="M 168.0062255859375 72.36614990234375 C 193.04922485351562 68.97063446044922 196.5309600830078 75.78793334960938 163.5242156982422 75.36935424804688" stroke-width="3.0" fill="none" stroke="rgb(0, 0, 0)" stroke-opacity="1.0" stroke-linecap="round" stroke-linejoin="round"/>
    <path d="M 109.50231170654297 80.11514282226562 C 87.97388458251953 73.88716125488281 143.24008178710938 77.22123718261719 105.32373809814453 81.85369873046875" stroke-width="3.0" fill="none" stroke="rgb(0, 0, 0)" stroke-opacity="1.0" stroke-linecap="round" stroke-linejoin="round"/>
    <path d="M 139.84034729003906 158.94529724121094 C 136.19631958007812 151.1451873779297 124.02408599853516 153.90402221679688 107.21036529541016 141.32928466796875" stroke-width="3.0" fill="none" stroke="rgb(0, 0, 0)" stroke-opacity="1.0" stroke-linecap="round" stroke-linejoin="round"/>
    <path d="M 123.5362319946289 90.10416412353516 C 140.97979736328125 99.18724822998047 132.60009765625 80.0019760131836 129.08670043945312 97.21733856201172" stroke-width="3.0" fill="none" stroke="rgb(0, 0, 0)" stroke-opacity="1.0" stroke-linecap="round" stroke-linejoin="round"/>
    <path d="M 187.76351928710938 98.91539764404297 C 177.11822509765625 83.10843658447266 186.45755004882812 100.61095428466797 139.5672149658203 84.73990631103516" stroke-width="3.0" fill="none" stroke="rgb(0, 0, 0)" stroke-opacity="1.0" stroke-linecap="round" stroke-linejoin="round"/>
    <path d="M 81.7078628540039 13.772785186767578 C 112.6714859008789 19.922163009643555 111.87158203125 36.064002990722656 126.22262573242188 32.554039001464844" stroke-width="3.0" fill="none" stroke="rgb(0, 0, 0)" stroke-opacity="1.0" stroke-linecap="round" stroke-linejoin="round"/>
    <path d="M 52.48783874511719 115.74279022216797 C 51.44696044921875 108.53507232666016 55.58189010620117 124.68665313720703 53.2988166809082 115.80333709716797" stroke-width="3.0" fill="none" stroke="rgb(0, 0, 0)" stroke-opacity="1.0" stroke-linecap="round" stroke-linejoin="round"/>
    <path d="M 119.20042419433594 99.18126678466797 C 96.94043731689453 87.20821380615234 121.46227264404297 102.82360076904297 109.62981414794922 92.21940612792969" stroke-width="3.0" fill="none" stroke="rgb(0, 0, 0)" stroke-opacity="1.0" stroke-linecap="round" stroke-linejoin="round"/>
    <path d="M 31.096281051635742 122.79525756835938 C 33.2044563293457 98.92427825927734 35.135108947753906 106.0106201171875 30.175899505615234 119.10719299316406" stroke-width="3.0" fill="none" stroke="rgb(0, 0, 0)" stroke-opacity="1.0" stroke-linecap="round" stroke-linejoin="round"/>
    <path d="M 92.80957794189453 196.6219024658203 C 74.36006164550781 195.96981811523438 71.46424102783203 196.75869750976562 95.08895111083984 197.0269317626953" stroke-width="3.0" fill="none" stroke="rgb(0, 0, 0)" stroke-opacity="1.0" stroke-linecap="round" stroke-linejoin="round"/>
    <path d="M 156.87147521972656 138.7749481201172 C 208.87417602539062 108.77379608154297 179.72132873535156 98.5102767944336 150.75462341308594 91.61408996582031" stroke-width="3.0" fill="none" stroke="rgb(0, 0, 0)" stroke-opacity="1.0" stroke-linecap="round" stroke-linejoin="round"/>
    <path d="M 152.8781280517578 74.44254302978516 C 128.27426147460938 73.02017974853516 168.42233276367188 83.84754943847656 149.78883361816406 71.56559753417969" stroke-width="3.0" fill="none" stroke="rgb(0, 0, 0)" stroke-opacity="1.0" stroke-linecap="round" stroke-linejoin="round"/>
    <path d="M 144.63206481933594 74.09368133544922 C 142.8784942626953 54.68086242675781 186.539306640625 100.35270690917969 184.93675231933594 62.0178337097168" stroke-width="3.0" fill="none" stroke="rgb(0, 0, 0)" stroke-opacity="1.0" stroke-linecap="round" stroke-linejoin="round"/>
    <path d="M 150.1268768310547 96.67189025878906 C 161.0782928466797 102.03740692138672 171.94577026367188 105.72688293457031 182.78616333007812 112.74030303955078" stroke-width="3.0" fill="none" stroke="rgb(0, 0, 0)" stroke-opacity="1.0" stroke-linecap="round" stroke-linejoin="round"/>
    <path d="M 177.21717834472656 15.036230087280273 C 166.1719207763672 39.80206298828125 179.43287658691406 27.496030807495117 164.4359130859375 42.10212707519531" stroke-width="3.0" fill="none" stroke="rgb(0, 0, 0)" stroke-opacity="1.0" stroke-linecap="round" stroke-linejoin="round"/>
    <path d="M 126.1570816040039 106.15717315673828 C 153.34390258789062 103.84546661376953 127.2499008178711 107.41802215576172 112.56239318847656 100.96027374267578" stroke-width="3.0" fill="none" stroke="rgb(0, 0, 0)" stroke-opacity="1.0" stroke-linecap="round" stroke-linejoin="round"/>
    <path d="M 52.26995086669922 112.73667907714844 C 53.24970626831055 115.40869903564453 46.61601257324219 108.58462524414062 58.89372253417969 126.85197448730469" stroke-width="3.0" fill="none" stroke="rgb(0, 0, 0)" stroke-opacity="1.0" stroke-linecap="round" stroke-linejoin="round"/>
    <path d="M 122.70964050292969 82.2796630859375 C 132.6626434326172 56.8483772277832 117.9329605102539 54.21284103393555 123.66426849365234 37.13991928100586" stroke-width="3.0" fill="none" stroke="rgb(0, 0, 0)" stroke-opacity="1.0" stroke-linecap="round" stroke-linejoin="round"/>
    <path d="M 145.4351806640625 33.32273483276367 C 146.89279174804688 36.929500579833984 150.4700164794922 16.693191528320312 175.24240112304688 8.589691162109375" stroke-width="3.0" fill="none" stroke="rgb(0, 0, 0)" stroke-opacity="1.0" stroke-linecap="round" stroke-linejoin="round"/>
  </g>
</svg>
