<?xml version="1.0" ?>
<svg xmlns="http://www.w3.org/2000/svg" version="1.1" width="224" height="224">
  <defs/>
  <g>
    <path d="M 61.27000045776367 102.94009399414062 C 66.16146850585938 103.3282699584961 58.03675079345703 103.13150787353516 49.766395568847656 100.63091278076172" stroke-width="3.0" fill="none" stroke="rgb(0, 0, 0)" stroke-opacity="1.0" stroke-linecap="round" stroke-linejoin="round"/>
    <path d="M 181.42608642578125 124.86251068115234 C 179.892578125 113.42158508300781 181.78115844726562 117.07395935058594 183.43865966796875 127.23387145996094" stroke-width="3.0" fill="none" stroke="rgb(0, 0, 0)" stroke-opacity="1.0" stroke-linecap="round" stroke-linejoin="round"/>
    <path d="M 53.44379806518555 113.00897216796875 C 55.64825439453125 116.28594207763672 53.22565460205078 99.32780456542969 55.10646057128906 112.05590057373047" stroke-width="3.0" fill="none" stroke="rgb(0, 0, 0)" stroke-opacity="1.0" stroke-linecap="round" stroke-linejoin="round"/>
    <path d="M 177.90061950683594 96.54011535644531 C 157.6898956298828 106.60086822509766 166.7395782470703 97.46697998046875 186.58544921875 114.45914459228516" stroke-width="3.0" fill="none" stroke="rgb(0, 0, 0)" stroke-opacity="1.0" stroke-linecap="round" stroke-linejoin="round"/>
    <path d="M 182.0948028564453 77.50513458251953 C 185.18893432617188 83.74007415771484 178.69229125976562 74.1249008178711 185.3300323486328 82.67652130126953" stroke-width="3.0" fill="none" stroke="rgb(0, 0, 0)" stroke-opacity="1.0" stroke-linecap="round" stroke-linejoin="round"/>
    <path d="M 130.349609375 100.40277862548828 C 120.5894775390625 111.21686553955078 120.98140716552734 104.70938873291016 133.1502227783203 104.84851837158203" stroke-width="3.0" fill="none" stroke="rgb(0, 0, 0)" stroke-opacity="1.0" stroke-linecap="round" stroke-linejoin="round"/>
    <path d="M 169.2679901123047 81.14291381835938 C 186.5900115966797 84.20288848876953 177.34072875976562 82.04473876953125 158.91102600097656 84.06317901611328" stroke-width="3.0" fill="none" stroke="rgb(0, 0, 0)" stroke-opacity="1.0" stroke-linecap="round" stroke-linejoin="round"/>
    <path d="M 57.23258972167969 181.1609344482422 C 52.169464111328125 159.57797241210938 46.49788284301758 177.07086181640625 51.205501556396484 169.11648559570312" stroke-width="3.0" fill="none" stroke="rgb(0, 0, 0)" stroke-opacity="1.0" stroke-linecap="round" stroke-linejoin="round"/>
    <path d="M 77.61117553710938 183.61968994140625 C 78.75431060791016 190.49185180664062 88.0185775756836 192.59808349609375 84.43124389648438 183.290771484375" stroke-width="3.0" fill="none" stroke="rgb(0, 0, 0)" stroke-opacity="1.0" stroke-linecap="round" stroke-linejoin="round"/>
    <path d="M 88.29414367675781 51.8552360534668 C 81.8310317993164 71.9194107055664 87.48072814941406 76.59427642822266 83.79605102539062 66.13713073730469" stroke-width="3.0" fill="none" stroke="rgb(0, 0, 0)" stroke-opacity="1.0" stroke-linecap="round" stroke-linejoin="round"/>
    <path d="M 66.4518051147461 130.67913818359375 C 72.04757690429688 151.8779296875 76.20686340332031 149.1692657470703 78.16197967529297 151.64442443847656" stroke-width="3.0" fill="none" stroke="rgb(0, 0, 0)" stroke-opacity="1.0" stroke-linecap="round" stroke-linejoin="round"/>
    <path d="M 169.66326904296875 91.54522705078125 C 183.33847045898438 78.8511734008789 174.5120391845703 91.93891906738281 152.01791381835938 87.64563751220703" stroke-width="3.0" fill="none" stroke="rgb(0, 0, 0)" stroke-opacity="1.0" stroke-linecap="round" stroke-linejoin="round"/>
    <path d="M 157.35498046875 100.84956359863281 C 172.6913604736328 100.0290298461914 161.70687866210938 97.87000274658203 173.6617889404297 102.50455474853516" stroke-width="3.0" fill="none" stroke="rgb(0, 0, 0)" stroke-opacity="1.0" stroke-linecap="round" stroke-linejoin="round"/>
    <path d="M 77.88259887695312 173.52651977539062 C 83.58927154541016 182.1511993408203 93.45880889892578 182.3200225830078 94.5911865234375 187.7188720703125" stroke-width="3.0" fill="none" stroke="rgb(0, 0, 0)" stroke-opacity="1.0" stroke-linecap="round" stroke-linejoin="round"/>
    <path d="M 176.06382751464844 10.271524429321289 C 186.26902770996094 -5.1756911277771 186.30319213867188 24.17572593688965 178.54327392578125 51.468719482421875" stroke-width="3.0" fill="none" stroke="rgb(0, 0, 0)" stroke-opacity="1.0" stroke-linecap="round" stroke-linejoin="round"/>
    <path d="M 127.40950775146484 34.01006317138672 C 124.10321044921875 48.79844284057617 125.06068420410156 44.987606048583984 126.40694427490234 53.13003921508789" stroke-width="3.0" fill="none" stroke="rgb(0, 0, 0)" stroke-opacity="1.0" stroke-linecap="round" stroke-linejoin="round"/>
    <path d="M 89.3917465209961 53.90407943725586 C 75.2970962524414 -14.212536811828613 85.05292510986328 2.546508312225342 95.70706176757812 44.0418701171875" stroke-width="3.0" fill="none" stroke="rgb(0, 0, 0)" stroke-opacity="1.0" stroke-linecap="round" stroke-linejoin="round"/>
    <path d="M 53.446372985839844 169.93655395507812 C 41.27797317504883 149.33302307128906 47.50995635986328 162.8572235107422 47.70515441894531 159.1913604736328" stroke-width="3.0" fill="none" stroke="rgb(0, 0, 0)" stroke-opacity="1.0" stroke-linecap="round" stroke-linejoin="round"/>
    <path d="M 42.43226623535156 134.5128631591797 C 44.93390655517578 133.37738037109375 36.16743850708008 142.1254119873047 37.50666809082031 141.6243896484375" stroke-width="3.0" fill="none" stroke="rgb(0, 0, 0)" stroke-opacity="1.0" stroke-linecap="round" stroke-linejoin="round"/>
    <path d="M 72.42986297607422 165.45274353027344 C 74.1894302368164 165.0734405517578 71.9692153930664 168.58087158203125 74.3133544921875 168.51963806152344" stroke-width="3.0" fill="none" stroke="rgb(0, 0, 0)" stroke-opacity="1.0" stroke-linecap="round" stroke-linejoin="round"/>
    <path d="M 74.165283203125 188.2408447265625 C 55.771507263183594 173.2272491455078 71.42485046386719 193.37142944335938 61.269371032714844 177.87091064453125" stroke-width="3.0" fill="none" stroke="rgb(0, 0, 0)" stroke-opacity="1.0" stroke-linecap="round" stroke-linejoin="round"/>
    <path d="M 45.112937927246094 159.95127868652344 C 50.32821273803711 162.54632568359375 37.930389404296875 150.40736389160156 42.23513412475586 152.6495361328125" stroke-width="3.0" fill="none" stroke="rgb(0, 0, 0)" stroke-opacity="1.0" stroke-linecap="round" stroke-linejoin="round"/>
    <path d="M 63.92539978027344 60.49148178100586 C 48.3212776184082 78.0222396850586 54.73847198486328 72.68177795410156 41.30266189575195 108.81185150146484" stroke-width="3.0" fill="none" stroke="rgb(0, 0, 0)" stroke-opacity="1.0" stroke-linecap="round" stroke-linejoin="round"/>
    <path d="M 142.57994079589844 159.24179077148438 C 125.46321105957031 157.32452392578125 127.07748413085938 153.71363830566406 142.4289093017578 161.57070922851562" stroke-width="3.0" fill="none" stroke="rgb(0, 0, 0)" stroke-opacity="1.0" stroke-linecap="round" stroke-linejoin="round"/>
    <path d="M 140.8745574951172 35.97958755493164 C 143.01486206054688 55.98017501831055 136.52391052246094 59.609619140625 140.1527862548828 74.20974731445312" stroke-width="3.0" fill="none" stroke="rgb(0, 0, 0)" stroke-opacity="1.0" stroke-linecap="round" stroke-linejoin="round"/>
    <path d="M 147.09165954589844 103.37562561035156 C 130.05882263183594 109.50768280029297 114.86038208007812 106.7335205078125 127.2720718383789 109.45984649658203" stroke-width="3.0" fill="none" stroke="rgb(0, 0, 0)" stroke-opacity="1.0" stroke-linecap="round" stroke-linejoin="round"/>
    <path d="M 145.92864990234375 70.76945495605469 C 144.1584014892578 58.867156982421875 156.14599609375 51.54631042480469 151.88035583496094 55.3178596496582" stroke-width="3.0" fill="none" stroke="rgb(0, 0, 0)" stroke-opacity="1.0" stroke-linecap="round" stroke-linejoin="round"/>
    <path d="M 108.97320556640625 188.62451171875 C 84.74796295166016 177.29074096679688 85.8027114868164 192.42124938964844 135.4805908203125 183.94651794433594" stroke-width="3.0" fill="none" stroke="rgb(0, 0, 0)" stroke-opacity="1.0" stroke-linecap="round" stroke-linejoin="round"/>
    <path d="M 177.2643280029297 85.51410675048828 C 175.78048706054688 79.00484466552734 175.75057983398438 94.37621307373047 178.68064880371094 87.43527221679688" stroke-width="3.0" fill="none" stroke="rgb(0, 0, 0)" stroke-opacity="1.0" stroke-linecap="round" stroke-linejoin="round"/>
    <path d="M 171.8132781982422 86.65440368652344 C 183.47352600097656 82.74969482421875 188.85279846191406 89.0268325805664 173.0086212158203 92.04412841796875" stroke-width="3.0" fill="none" stroke="rgb(0, 0, 0)" stroke-opacity="1.0" stroke-linecap="round" stroke-linejoin="round"/>
    <path d="M 109.3153305053711 77.6766357421875 C 90.18194580078125 69.30110168457031 137.5450439453125 72.62079620361328 107.04222106933594 80.7861099243164" stroke-width="3.0" fill="none" stroke="rgb(0, 0, 0)" stroke-opacity="1.0" stroke-linecap="round" stroke-linejoin="round"/>
    <path d="M 128.70228576660156 154.28921508789062 C 130.3490447998047 150.96060180664062 128.88763427734375 156.53915405273438 127.61550903320312 156.1041259765625" stroke-width="3.0" fill="none" stroke="rgb(0, 0, 0)" stroke-opacity="1.0" stroke-linecap="round" stroke-linejoin="round"/>
    <path d="M 122.7579116821289 89.98030090332031 C 140.06826782226562 97.68868255615234 133.1418914794922 79.51680755615234 128.96343994140625 95.46012878417969" stroke-width="3.0" fill="none" stroke="rgb(0, 0, 0)" stroke-opacity="1.0" stroke-linecap="round" stroke-linejoin="round"/>
    <path d="M 182.0023651123047 97.41494750976562 C 175.62542724609375 88.76905822753906 184.40269470214844 100.99048614501953 147.30970764160156 92.37085723876953" stroke-width="3.0" fill="none" stroke="rgb(0, 0, 0)" stroke-opacity="1.0" stroke-linecap="round" stroke-linejoin="round"/>
    <path d="M 86.11387634277344 9.148846626281738 C 107.99147033691406 18.172616958618164 114.66437530517578 33.19627380371094 119.96437072753906 32.67543029785156" stroke-width="3.0" fill="none" stroke="rgb(0, 0, 0)" stroke-opacity="1.0" stroke-linecap="round" stroke-linejoin="round"/>
    <path d="M 54.19657516479492 109.75814819335938 C 52.15533447265625 109.53386688232422 65.4973373413086 117.52294921875 54.41375732421875 111.94367218017578" stroke-width="3.0" fill="none" stroke="rgb(0, 0, 0)" stroke-opacity="1.0" stroke-linecap="round" stroke-linejoin="round"/>
    <path d="M 121.21440887451172 100.82832336425781 C 98.85616302490234 97.61796569824219 128.4593048095703 100.74791717529297 106.39291381835938 94.92239379882812" stroke-width="3.0" fill="none" stroke="rgb(0, 0, 0)" stroke-opacity="1.0" stroke-linecap="round" stroke-linejoin="round"/>
    <path d="M 37.47880172729492 123.23046875 C 42.16828918457031 97.75749969482422 49.31011962890625 105.7000732421875 40.47885513305664 111.05509948730469" stroke-width="3.0" fill="none" stroke="rgb(0, 0, 0)" stroke-opacity="1.0" stroke-linecap="round" stroke-linejoin="round"/>
    <path d="M 84.70686340332031 186.48045349121094 C 77.27210998535156 191.4930877685547 75.04772186279297 195.51058959960938 86.0692367553711 181.43521118164062" stroke-width="3.0" fill="none" stroke="rgb(0, 0, 0)" stroke-opacity="1.0" stroke-linecap="round" stroke-linejoin="round"/>
    <path d="M 178.40475463867188 134.1837158203125 C 185.8257598876953 114.05870056152344 163.36830139160156 104.42671966552734 146.488037109375 99.61404418945312" stroke-width="3.0" fill="none" stroke="rgb(0, 0, 0)" stroke-opacity="1.0" stroke-linecap="round" stroke-linejoin="round"/>
    <path d="M 143.9239501953125 78.74842071533203 C 148.92453002929688 72.15390014648438 139.73765563964844 95.27709197998047 149.5449676513672 77.73101043701172" stroke-width="3.0" fill="none" stroke="rgb(0, 0, 0)" stroke-opacity="1.0" stroke-linecap="round" stroke-linejoin="round"/>
    <path d="M 162.19345092773438 71.34818267822266 C 167.68177795410156 71.62703704833984 175.62442016601562 75.00250244140625 180.9815673828125 72.98629760742188" stroke-width="3.0" fill="none" stroke="rgb(0, 0, 0)" stroke-opacity="1.0" stroke-linecap="round" stroke-linejoin="round"/>
    <path d="M 149.85757446289062 105.07877349853516 C 155.36154174804688 104.77442169189453 163.00509643554688 106.89402770996094 170.84890747070312 122.20797729492188" stroke-width="3.0" fill="none" stroke="rgb(0, 0, 0)" stroke-opacity="1.0" stroke-linecap="round" stroke-linejoin="round"/>
    <path d="M 172.21202087402344 20.638254165649414 C 164.1282958984375 43.39435958862305 161.4628448486328 29.18059730529785 165.95254516601562 43.76547622680664" stroke-width="3.0" fill="none" stroke="rgb(0, 0, 0)" stroke-opacity="1.0" stroke-linecap="round" stroke-linejoin="round"/>
    <path d="M 122.77030181884766 109.31817626953125 C 155.533203125 113.39222717285156 125.23344421386719 95.14974212646484 117.08950805664062 107.33103942871094" stroke-width="3.0" fill="none" stroke="rgb(0, 0, 0)" stroke-opacity="1.0" stroke-linecap="round" stroke-linejoin="round"/>
    <path d="M 56.24858474731445 112.39820861816406 C 59.15516662597656 107.73545837402344 47.26683044433594 107.01626586914062 63.62071990966797 127.04927062988281" stroke-width="3.0" fill="none" stroke="rgb(0, 0, 0)" stroke-opacity="1.0" stroke-linecap="round" stroke-linejoin="round"/>
    <path d="M 121.73523712158203 79.27884674072266 C 125.38931274414062 57.437538146972656 115.92771911621094 54.58542251586914 116.56468963623047 45.63457107543945" stroke-width="3.0" fill="none" stroke="rgb(0, 0, 0)" stroke-opacity="1.0" stroke-linecap="round" stroke-linejoin="round"/>
    <path d="M 147.00233459472656 35.264244079589844 C 158.7781219482422 27.707536697387695 154.6622772216797 22.013675689697266 177.17674255371094 8.540983200073242" stroke-width="3.0" fill="none" stroke="rgb(0, 0, 0)" stroke-opacity="1.0" stroke-linecap="round" stroke-linejoin="round"/>
  </g>
</svg>
