<?xml version="1.0" ?>
<svg xmlns="http://www.w3.org/2000/svg" version="1.1" width="224" height="224">
  <defs/>
  <g>
    <path d="M 63.32063674926758 79.85678100585938 C 63.27450942993164 80.27769470214844 65.45936584472656 84.61820983886719 59.89712905883789 69.47406005859375" stroke-width="3.0" fill="none" stroke="rgb(0, 0, 0)" stroke-opacity="1.0" stroke-linecap="round" stroke-linejoin="round"/>
    <path d="M 181.9051513671875 122.35957336425781 C 177.56239318847656 114.4854965209961 200.05213928222656 93.91899871826172 173.66754150390625 128.82281494140625" stroke-width="3.0" fill="none" stroke="rgb(0, 0, 0)" stroke-opacity="1.0" stroke-linecap="round" stroke-linejoin="round"/>
    <path d="M 60.07592010498047 119.06840515136719 C 59.957828521728516 112.97758483886719 58.11174392700195 120.6847152709961 68.70921325683594 128.7082061767578" stroke-width="3.0" fill="none" stroke="rgb(0, 0, 0)" stroke-opacity="1.0" stroke-linecap="round" stroke-linejoin="round"/>
    <path d="M 184.64842224121094 93.49974060058594 C 146.91140747070312 84.23856353759766 171.31610107421875 75.80542755126953 191.86422729492188 109.32638549804688" stroke-width="3.0" fill="none" stroke="rgb(0, 0, 0)" stroke-opacity="1.0" stroke-linecap="round" stroke-linejoin="round"/>
    <path d="M 183.3831787109375 65.27446746826172 C 174.87774658203125 115.03607177734375 180.82847595214844 103.0099105834961 183.23204040527344 76.01251220703125" stroke-width="3.0" fill="none" stroke="rgb(0, 0, 0)" stroke-opacity="1.0" stroke-linecap="round" stroke-linejoin="round"/>
    <path d="M 121.8084945678711 102.48653411865234 C 144.72555541992188 116.6782455444336 108.22464752197266 95.03046417236328 134.0845489501953 105.49394226074219" stroke-width="3.0" fill="none" stroke="rgb(0, 0, 0)" stroke-opacity="1.0" stroke-linecap="round" stroke-linejoin="round"/>
    <path d="M 173.16107177734375 87.30921173095703 C 192.157958984375 93.50989532470703 178.41534423828125 73.87261962890625 158.2414093017578 85.94725799560547" stroke-width="3.0" fill="none" stroke="rgb(0, 0, 0)" stroke-opacity="1.0" stroke-linecap="round" stroke-linejoin="round"/>
    <path d="M 58.56700897216797 186.4269256591797 C 39.14685821533203 155.25540161132812 46.407371520996094 169.5093994140625 48.132747650146484 171.8834228515625" stroke-width="3.0" fill="none" stroke="rgb(0, 0, 0)" stroke-opacity="1.0" stroke-linecap="round" stroke-linejoin="round"/>
    <path d="M 54.4318733215332 180.58306884765625 C 88.11821746826172 211.77212524414062 116.11042785644531 196.45733642578125 130.8857421875 182.09573364257812" stroke-width="3.0" fill="none" stroke="rgb(0, 0, 0)" stroke-opacity="1.0" stroke-linecap="round" stroke-linejoin="round"/>
    <path d="M 84.70008087158203 27.339672088623047 C 95.7300796508789 77.33015441894531 83.40995788574219 3.9555370807647705 83.18878173828125 61.666259765625" stroke-width="3.0" fill="none" stroke="rgb(0, 0, 0)" stroke-opacity="1.0" stroke-linecap="round" stroke-linejoin="round"/>
    <path d="M 48.7026252746582 96.30204772949219 C 61.96879577636719 141.17166137695312 92.98678588867188 155.44552612304688 90.44627380371094 149.9946746826172" stroke-width="3.0" fill="none" stroke="rgb(0, 0, 0)" stroke-opacity="1.0" stroke-linecap="round" stroke-linejoin="round"/>
    <path d="M 150.7059783935547 74.47079467773438 C 203.36021423339844 66.23408508300781 185.44891357421875 82.61491394042969 142.7350311279297 86.67711639404297" stroke-width="3.0" fill="none" stroke="rgb(0, 0, 0)" stroke-opacity="1.0" stroke-linecap="round" stroke-linejoin="round"/>
    <path d="M 151.4188690185547 95.51193237304688 C 193.7537384033203 103.85125732421875 175.97412109375 105.92589569091797 194.39732360839844 115.72758483886719" stroke-width="3.0" fill="none" stroke="rgb(0, 0, 0)" stroke-opacity="1.0" stroke-linecap="round" stroke-linejoin="round"/>
    <path d="M 125.25849151611328 156.78172302246094 C 143.93377685546875 145.05914306640625 124.77679443359375 156.69190979003906 107.68595123291016 152.93841552734375" stroke-width="3.0" fill="none" stroke="rgb(0, 0, 0)" stroke-opacity="1.0" stroke-linecap="round" stroke-linejoin="round"/>
    <path d="M 179.26795959472656 9.453413963317871 C 186.79283142089844 25.922983169555664 174.76962280273438 65.20507049560547 178.88742065429688 51.828983306884766" stroke-width="3.0" fill="none" stroke="rgb(0, 0, 0)" stroke-opacity="1.0" stroke-linecap="round" stroke-linejoin="round"/>
    <path d="M 129.85317993164062 31.95810890197754 C 125.03176879882812 48.198646545410156 135.16368103027344 39.35782241821289 125.54610443115234 69.02635192871094" stroke-width="3.0" fill="none" stroke="rgb(0, 0, 0)" stroke-opacity="1.0" stroke-linecap="round" stroke-linejoin="round"/>
    <path d="M 86.47566223144531 49.57749938964844 C 76.21392822265625 -5.129581451416016 85.42835235595703 -0.03229260444641113 109.99307250976562 39.976139068603516" stroke-width="3.0" fill="none" stroke="rgb(0, 0, 0)" stroke-opacity="1.0" stroke-linecap="round" stroke-linejoin="round"/>
    <path d="M 47.0564079284668 168.32972717285156 C 40.81025695800781 152.02520751953125 36.31612014770508 144.7615966796875 45.293792724609375 164.2049560546875" stroke-width="3.0" fill="none" stroke="rgb(0, 0, 0)" stroke-opacity="1.0" stroke-linecap="round" stroke-linejoin="round"/>
    <path d="M 37.400203704833984 98.0083999633789 C 21.078153610229492 126.9035415649414 40.20217514038086 148.7565460205078 43.04375076293945 158.65478515625" stroke-width="3.0" fill="none" stroke="rgb(0, 0, 0)" stroke-opacity="1.0" stroke-linecap="round" stroke-linejoin="round"/>
    <path d="M 85.62940216064453 150.83163452148438 C 107.60192108154297 161.1771697998047 102.25914764404297 159.23655700683594 94.15422821044922 152.0017852783203" stroke-width="3.0" fill="none" stroke="rgb(0, 0, 0)" stroke-opacity="1.0" stroke-linecap="round" stroke-linejoin="round"/>
    <path d="M 84.48136138916016 196.8993682861328 C 68.39603424072266 199.75465393066406 49.77622985839844 177.15965270996094 48.20098876953125 171.8964385986328" stroke-width="3.0" fill="none" stroke="rgb(0, 0, 0)" stroke-opacity="1.0" stroke-linecap="round" stroke-linejoin="round"/>
    <path d="M 47.70497131347656 173.26007080078125 C 62.91868209838867 194.89816284179688 43.522926330566406 168.52093505859375 39.23435592651367 148.93771362304688" stroke-width="3.0" fill="none" stroke="rgb(0, 0, 0)" stroke-opacity="1.0" stroke-linecap="round" stroke-linejoin="round"/>
    <path d="M 78.82306671142578 55.272216796875 C 62.75664520263672 59.03611373901367 46.88283157348633 72.29197692871094 32.70930099487305 107.71001434326172" stroke-width="3.0" fill="none" stroke="rgb(0, 0, 0)" stroke-opacity="1.0" stroke-linecap="round" stroke-linejoin="round"/>
    <path d="M 155.5005340576172 138.47824096679688 C 120.74213409423828 157.45022583007812 117.10487365722656 152.4176788330078 133.1468048095703 154.18765258789062" stroke-width="3.0" fill="none" stroke="rgb(0, 0, 0)" stroke-opacity="1.0" stroke-linecap="round" stroke-linejoin="round"/>
    <path d="M 142.08740234375 29.834714889526367 C 146.25265502929688 47.47407913208008 135.95217895507812 33.73997116088867 137.10784912109375 82.08423614501953" stroke-width="3.0" fill="none" stroke="rgb(0, 0, 0)" stroke-opacity="1.0" stroke-linecap="round" stroke-linejoin="round"/>
    <path d="M 149.3957977294922 99.76715850830078 C 133.52687072753906 108.19026947021484 134.6782989501953 113.38793182373047 118.93737030029297 104.01205444335938" stroke-width="3.0" fill="none" stroke="rgb(0, 0, 0)" stroke-opacity="1.0" stroke-linecap="round" stroke-linejoin="round"/>
    <path d="M 136.65953063964844 75.31263732910156 C 144.27308654785156 55.44708251953125 131.89700317382812 63.24937057495117 135.6307830810547 78.54521942138672" stroke-width="3.0" fill="none" stroke="rgb(0, 0, 0)" stroke-opacity="1.0" stroke-linecap="round" stroke-linejoin="round"/>
    <path d="M 134.49484252929688 178.5548095703125 C 128.2637176513672 182.08766174316406 137.3944854736328 179.92791748046875 145.9839324951172 145.63648986816406" stroke-width="3.0" fill="none" stroke="rgb(0, 0, 0)" stroke-opacity="1.0" stroke-linecap="round" stroke-linejoin="round"/>
    <path d="M 193.94509887695312 95.94310760498047 C 169.97793579101562 71.13858795166016 166.76890563964844 80.1481704711914 186.34141540527344 89.76954650878906" stroke-width="3.0" fill="none" stroke="rgb(0, 0, 0)" stroke-opacity="1.0" stroke-linecap="round" stroke-linejoin="round"/>
    <path d="M 150.01803588867188 76.6833724975586 C 139.9866943359375 53.500648498535156 195.78379821777344 92.91593933105469 178.85903930664062 68.53079223632812" stroke-width="3.0" fill="none" stroke="rgb(0, 0, 0)" stroke-opacity="1.0" stroke-linecap="round" stroke-linejoin="round"/>
    <path d="M 111.95122528076172 78.33545684814453 C 76.15869903564453 72.19937133789062 151.180419921875 75.35619354248047 104.74406433105469 82.03013610839844" stroke-width="3.0" fill="none" stroke="rgb(0, 0, 0)" stroke-opacity="1.0" stroke-linecap="round" stroke-linejoin="round"/>
    <path d="M 161.33334350585938 133.0560302734375 C 129.5995635986328 164.30975341796875 119.7433853149414 150.5437774658203 103.17378234863281 156.5208740234375" stroke-width="3.0" fill="none" stroke="rgb(0, 0, 0)" stroke-opacity="1.0" stroke-linecap="round" stroke-linejoin="round"/>
    <path d="M 125.46339416503906 89.33441162109375 C 141.7786102294922 101.34671783447266 132.82720947265625 70.07579803466797 128.58018493652344 107.67514038085938" stroke-width="3.0" fill="none" stroke="rgb(0, 0, 0)" stroke-opacity="1.0" stroke-linecap="round" stroke-linejoin="round"/>
    <path d="M 186.14996337890625 112.84197998046875 C 170.61044311523438 89.77723693847656 182.7762908935547 91.43097686767578 141.76470947265625 81.68988800048828" stroke-width="3.0" fill="none" stroke="rgb(0, 0, 0)" stroke-opacity="1.0" stroke-linecap="round" stroke-linejoin="round"/>
    <path d="M 85.72608184814453 7.878643035888672 C 105.74970245361328 11.469010353088379 117.33525085449219 35.62187957763672 122.22002410888672 30.11078643798828" stroke-width="3.0" fill="none" stroke="rgb(0, 0, 0)" stroke-opacity="1.0" stroke-linecap="round" stroke-linejoin="round"/>
    <path d="M 58.63651657104492 120.9978256225586 C 61.159000396728516 117.37084197998047 62.4286003112793 130.831298828125 62.61960983276367 124.4356918334961" stroke-width="3.0" fill="none" stroke="rgb(0, 0, 0)" stroke-opacity="1.0" stroke-linecap="round" stroke-linejoin="round"/>
    <path d="M 137.723876953125 103.78543090820312 C 116.89598083496094 93.53058624267578 118.91020965576172 114.43919372558594 106.91738891601562 92.21125030517578" stroke-width="3.0" fill="none" stroke="rgb(0, 0, 0)" stroke-opacity="1.0" stroke-linecap="round" stroke-linejoin="round"/>
    <path d="M 31.962261199951172 132.7063446044922 C 27.358335494995117 100.32849884033203 42.56421661376953 102.36396026611328 49.373939514160156 75.98895263671875" stroke-width="3.0" fill="none" stroke="rgb(0, 0, 0)" stroke-opacity="1.0" stroke-linecap="round" stroke-linejoin="round"/>
    <path d="M 78.48335266113281 194.94261169433594 C 70.77144622802734 192.16860961914062 65.6957015991211 192.92086791992188 98.9368667602539 198.0924835205078" stroke-width="3.0" fill="none" stroke="rgb(0, 0, 0)" stroke-opacity="1.0" stroke-linecap="round" stroke-linejoin="round"/>
    <path d="M 163.0472412109375 130.6825408935547 C 201.01548767089844 116.97631072998047 179.6696319580078 93.19154357910156 155.50784301757812 90.69508361816406" stroke-width="3.0" fill="none" stroke="rgb(0, 0, 0)" stroke-opacity="1.0" stroke-linecap="round" stroke-linejoin="round"/>
    <path d="M 157.1535186767578 70.49291229248047 C 134.18209838867188 85.3387680053711 172.4979705810547 78.34321594238281 148.08106994628906 75.7640151977539" stroke-width="3.0" fill="none" stroke="rgb(0, 0, 0)" stroke-opacity="1.0" stroke-linecap="round" stroke-linejoin="round"/>
    <path d="M 141.55441284179688 77.76142883300781 C 147.50880432128906 43.4210090637207 195.1095428466797 112.43215942382812 178.5239715576172 43.74778366088867" stroke-width="3.0" fill="none" stroke="rgb(0, 0, 0)" stroke-opacity="1.0" stroke-linecap="round" stroke-linejoin="round"/>
    <path d="M 159.01548767089844 98.60643005371094 C 170.42013549804688 104.91275787353516 175.47158813476562 100.67425537109375 182.3436737060547 125.43054962158203" stroke-width="3.0" fill="none" stroke="rgb(0, 0, 0)" stroke-opacity="1.0" stroke-linecap="round" stroke-linejoin="round"/>
    <path d="M 176.3196563720703 14.132428169250488 C 166.7595977783203 41.99482727050781 174.6713104248047 21.021656036376953 160.45115661621094 36.205867767333984" stroke-width="3.0" fill="none" stroke="rgb(0, 0, 0)" stroke-opacity="1.0" stroke-linecap="round" stroke-linejoin="round"/>
    <path d="M 120.31558227539062 103.98905181884766 C 144.28414916992188 103.98388671875 137.7995147705078 110.06551361083984 120.50231170654297 103.49800872802734" stroke-width="3.0" fill="none" stroke="rgb(0, 0, 0)" stroke-opacity="1.0" stroke-linecap="round" stroke-linejoin="round"/>
    <path d="M 73.99440002441406 135.77426147460938 C 49.012611389160156 127.18113708496094 61.019508361816406 112.86504364013672 60.83815002441406 120.34297943115234" stroke-width="3.0" fill="none" stroke="rgb(0, 0, 0)" stroke-opacity="1.0" stroke-linecap="round" stroke-linejoin="round"/>
    <path d="M 123.66819763183594 75.26614379882812 C 127.9501953125 37.4548225402832 118.59358978271484 50.27590560913086 122.34134674072266 34.104347229003906" stroke-width="3.0" fill="none" stroke="rgb(0, 0, 0)" stroke-opacity="1.0" stroke-linecap="round" stroke-linejoin="round"/>
    <path d="M 152.85572814941406 23.911020278930664 C 147.1100616455078 35.19327926635742 160.79531860351562 8.440247535705566 176.66122436523438 8.338532447814941" stroke-width="3.0" fill="none" stroke="rgb(0, 0, 0)" stroke-opacity="1.0" stroke-linecap="round" stroke-linejoin="round"/>
  </g>
</svg>
