<?xml version="1.0" ?>
<svg xmlns="http://www.w3.org/2000/svg" version="1.1" width="224" height="224">
  <defs/>
  <g>
    <path d="M 54.929691314697266 92.57886505126953 C 63.344608306884766 96.283935546875 57.621212005615234 94.68413543701172 48.755977630615234 78.20817565917969" stroke-width="3.0" fill="none" stroke="rgb(0, 0, 0)" stroke-opacity="1.0" stroke-linecap="round" stroke-linejoin="round"/>
    <path d="M 185.0186767578125 121.6623764038086 C 180.39227294921875 107.20340728759766 194.11331176757812 99.4410171508789 177.4835205078125 126.79962158203125" stroke-width="3.0" fill="none" stroke="rgb(0, 0, 0)" stroke-opacity="1.0" stroke-linecap="round" stroke-linejoin="round"/>
    <path d="M 61.8459358215332 119.00614166259766 C 60.405067443847656 103.35493469238281 53.97404098510742 113.53756713867188 69.56085205078125 123.67594909667969" stroke-width="3.0" fill="none" stroke="rgb(0, 0, 0)" stroke-opacity="1.0" stroke-linecap="round" stroke-linejoin="round"/>
    <path d="M 184.6585693359375 98.5919418334961 C 150.65093994140625 85.21153259277344 174.0675506591797 79.583984375 193.9528045654297 113.31822967529297" stroke-width="3.0" fill="none" stroke="rgb(0, 0, 0)" stroke-opacity="1.0" stroke-linecap="round" stroke-linejoin="round"/>
    <path d="M 187.08102416992188 72.01719665527344 C 178.68658447265625 101.3870620727539 182.63470458984375 93.35749816894531 180.7422332763672 59.9871826171875" stroke-width="3.0" fill="none" stroke="rgb(0, 0, 0)" stroke-opacity="1.0" stroke-linecap="round" stroke-linejoin="round"/>
    <path d="M 125.72946166992188 104.47217559814453 C 144.12789916992188 113.55937194824219 99.61309051513672 103.33985137939453 134.76406860351562 102.38806915283203" stroke-width="3.0" fill="none" stroke="rgb(0, 0, 0)" stroke-opacity="1.0" stroke-linecap="round" stroke-linejoin="round"/>
    <path d="M 166.60560607910156 100.9952621459961 C 199.68173217773438 81.5275650024414 187.33547973632812 71.69524383544922 155.04791259765625 87.7904281616211" stroke-width="3.0" fill="none" stroke="rgb(0, 0, 0)" stroke-opacity="1.0" stroke-linecap="round" stroke-linejoin="round"/>
    <path d="M 57.11140441894531 181.4478759765625 C 37.52587127685547 156.2978515625 48.3436393737793 166.36412048339844 46.9810791015625 168.60333251953125" stroke-width="3.0" fill="none" stroke="rgb(0, 0, 0)" stroke-opacity="1.0" stroke-linecap="round" stroke-linejoin="round"/>
    <path d="M 57.37348556518555 181.81639099121094 C 93.25939178466797 210.23843383789062 111.80648803710938 197.89459228515625 132.79734802246094 180.2268829345703" stroke-width="3.0" fill="none" stroke="rgb(0, 0, 0)" stroke-opacity="1.0" stroke-linecap="round" stroke-linejoin="round"/>
    <path d="M 85.52759552001953 31.017902374267578 C 96.6735610961914 63.585594177246094 82.85226440429688 8.099666595458984 85.44383239746094 50.51032257080078" stroke-width="3.0" fill="none" stroke="rgb(0, 0, 0)" stroke-opacity="1.0" stroke-linecap="round" stroke-linejoin="round"/>
    <path d="M 64.7576904296875 114.20700073242188 C 55.229393005371094 136.24720764160156 102.42649841308594 156.60121154785156 99.742431640625 153.66798400878906" stroke-width="3.0" fill="none" stroke="rgb(0, 0, 0)" stroke-opacity="1.0" stroke-linecap="round" stroke-linejoin="round"/>
    <path d="M 145.6301727294922 74.09907531738281 C 204.6088104248047 64.20599365234375 186.01370239257812 84.62109375 150.70755004882812 87.35808563232422" stroke-width="3.0" fill="none" stroke="rgb(0, 0, 0)" stroke-opacity="1.0" stroke-linecap="round" stroke-linejoin="round"/>
    <path d="M 150.74221801757812 95.96385192871094 C 179.5120849609375 102.82302856445312 176.36978149414062 103.27658081054688 188.53807067871094 111.92086791992188" stroke-width="3.0" fill="none" stroke="rgb(0, 0, 0)" stroke-opacity="1.0" stroke-linecap="round" stroke-linejoin="round"/>
    <path d="M 112.92571258544922 155.26219177246094 C 145.2306671142578 143.52676391601562 115.93428039550781 157.4079132080078 116.96656036376953 148.90003967285156" stroke-width="3.0" fill="none" stroke="rgb(0, 0, 0)" stroke-opacity="1.0" stroke-linecap="round" stroke-linejoin="round"/>
    <path d="M 176.33372497558594 8.159674644470215 C 188.99417114257812 9.701078414916992 173.94493103027344 63.475494384765625 178.77012634277344 46.476768493652344" stroke-width="3.0" fill="none" stroke="rgb(0, 0, 0)" stroke-opacity="1.0" stroke-linecap="round" stroke-linejoin="round"/>
    <path d="M 131.54571533203125 30.809364318847656 C 123.71443939208984 54.670799255371094 134.3570556640625 36.997257232666016 127.11542510986328 71.67908477783203" stroke-width="3.0" fill="none" stroke="rgb(0, 0, 0)" stroke-opacity="1.0" stroke-linecap="round" stroke-linejoin="round"/>
    <path d="M 88.72379302978516 47.644351959228516 C 73.68653869628906 -7.087216377258301 83.2260971069336 -1.388717770576477 104.79872131347656 41.73344039916992" stroke-width="3.0" fill="none" stroke="rgb(0, 0, 0)" stroke-opacity="1.0" stroke-linecap="round" stroke-linejoin="round"/>
    <path d="M 45.14680480957031 165.6348114013672 C 39.300228118896484 153.52703857421875 37.696006774902344 145.76622009277344 41.377986907958984 156.8399658203125" stroke-width="3.0" fill="none" stroke="rgb(0, 0, 0)" stroke-opacity="1.0" stroke-linecap="round" stroke-linejoin="round"/>
    <path d="M 34.67118453979492 104.17277526855469 C 23.788883209228516 126.1877670288086 36.519161224365234 146.18496704101562 39.97618103027344 151.4107208251953" stroke-width="3.0" fill="none" stroke="rgb(0, 0, 0)" stroke-opacity="1.0" stroke-linecap="round" stroke-linejoin="round"/>
    <path d="M 88.57081604003906 148.896728515625 C 104.23249816894531 156.80343627929688 122.55963134765625 144.76890563964844 107.79383850097656 157.30859375" stroke-width="3.0" fill="none" stroke="rgb(0, 0, 0)" stroke-opacity="1.0" stroke-linecap="round" stroke-linejoin="round"/>
    <path d="M 80.8460464477539 197.67929077148438 C 66.28389739990234 195.2384796142578 51.12187194824219 179.82606506347656 50.69319152832031 174.1498565673828" stroke-width="3.0" fill="none" stroke="rgb(0, 0, 0)" stroke-opacity="1.0" stroke-linecap="round" stroke-linejoin="round"/>
    <path d="M 43.704261779785156 164.00967407226562 C 56.669960021972656 194.82371520996094 44.61322784423828 162.28990173339844 39.32926559448242 148.12432861328125" stroke-width="3.0" fill="none" stroke="rgb(0, 0, 0)" stroke-opacity="1.0" stroke-linecap="round" stroke-linejoin="round"/>
    <path d="M 80.40591430664062 53.06713104248047 C 55.066436767578125 54.500423431396484 51.88954162597656 72.5163345336914 32.478939056396484 106.6721420288086" stroke-width="3.0" fill="none" stroke="rgb(0, 0, 0)" stroke-opacity="1.0" stroke-linecap="round" stroke-linejoin="round"/>
    <path d="M 148.057861328125 141.79507446289062 C 129.86114501953125 157.48770141601562 118.5484848022461 148.42950439453125 129.42172241210938 150.9248046875" stroke-width="3.0" fill="none" stroke="rgb(0, 0, 0)" stroke-opacity="1.0" stroke-linecap="round" stroke-linejoin="round"/>
    <path d="M 139.99488830566406 30.704975128173828 C 147.57151794433594 71.18363189697266 135.9605255126953 57.09543991088867 135.73284912109375 76.89446258544922" stroke-width="3.0" fill="none" stroke="rgb(0, 0, 0)" stroke-opacity="1.0" stroke-linecap="round" stroke-linejoin="round"/>
    <path d="M 146.69818115234375 97.38301086425781 C 118.60822296142578 111.59871673583984 131.8445587158203 107.14697265625 137.12078857421875 104.56682586669922" stroke-width="3.0" fill="none" stroke="rgb(0, 0, 0)" stroke-opacity="1.0" stroke-linecap="round" stroke-linejoin="round"/>
    <path d="M 137.26220703125 72.3055191040039 C 146.74365234375 56.52896499633789 134.5211181640625 63.16972351074219 136.50067138671875 69.8210220336914" stroke-width="3.0" fill="none" stroke="rgb(0, 0, 0)" stroke-opacity="1.0" stroke-linecap="round" stroke-linejoin="round"/>
    <path d="M 136.49569702148438 175.44140625 C 126.66200256347656 187.5761260986328 138.8011474609375 179.90623474121094 147.0500946044922 148.2769775390625" stroke-width="3.0" fill="none" stroke="rgb(0, 0, 0)" stroke-opacity="1.0" stroke-linecap="round" stroke-linejoin="round"/>
    <path d="M 192.45387268066406 96.56288146972656 C 171.71986389160156 70.68917846679688 152.62872314453125 83.06117248535156 182.34686279296875 86.19927215576172" stroke-width="3.0" fill="none" stroke="rgb(0, 0, 0)" stroke-opacity="1.0" stroke-linecap="round" stroke-linejoin="round"/>
    <path d="M 150.2914276123047 77.18048095703125 C 161.7205810546875 65.0170669555664 203.59613037109375 79.18924713134766 178.9254608154297 64.15103149414062" stroke-width="3.0" fill="none" stroke="rgb(0, 0, 0)" stroke-opacity="1.0" stroke-linecap="round" stroke-linejoin="round"/>
    <path d="M 113.91531372070312 83.97834014892578 C 87.18202209472656 74.96131896972656 136.05821228027344 77.91294860839844 111.9581069946289 82.30293273925781" stroke-width="3.0" fill="none" stroke="rgb(0, 0, 0)" stroke-opacity="1.0" stroke-linecap="round" stroke-linejoin="round"/>
    <path d="M 152.87191772460938 138.04315185546875 C 139.79112243652344 162.47474670410156 113.81660461425781 143.11473083496094 100.99311828613281 156.52418518066406" stroke-width="3.0" fill="none" stroke="rgb(0, 0, 0)" stroke-opacity="1.0" stroke-linecap="round" stroke-linejoin="round"/>
    <path d="M 126.32168579101562 91.00272369384766 C 139.1082305908203 98.58937072753906 133.2024688720703 75.38314819335938 127.60454559326172 105.70521545410156" stroke-width="3.0" fill="none" stroke="rgb(0, 0, 0)" stroke-opacity="1.0" stroke-linecap="round" stroke-linejoin="round"/>
    <path d="M 188.34689331054688 110.98245239257812 C 181.4036102294922 78.63613891601562 184.61376953125 95.71691131591797 142.0629425048828 84.7751693725586" stroke-width="3.0" fill="none" stroke="rgb(0, 0, 0)" stroke-opacity="1.0" stroke-linecap="round" stroke-linejoin="round"/>
    <path d="M 85.53433227539062 8.723907470703125 C 104.07569885253906 14.644240379333496 116.26314544677734 33.44884490966797 118.67401885986328 31.900609970092773" stroke-width="3.0" fill="none" stroke="rgb(0, 0, 0)" stroke-opacity="1.0" stroke-linecap="round" stroke-linejoin="round"/>
    <path d="M 63.375816345214844 119.13436126708984 C 62.16372299194336 111.23922729492188 65.34635162353516 133.1822509765625 62.749420166015625 120.268310546875" stroke-width="3.0" fill="none" stroke="rgb(0, 0, 0)" stroke-opacity="1.0" stroke-linecap="round" stroke-linejoin="round"/>
    <path d="M 137.82418823242188 101.4341049194336 C 115.3917465209961 93.0531234741211 120.39387512207031 118.38003540039062 111.33553314208984 91.07070922851562" stroke-width="3.0" fill="none" stroke="rgb(0, 0, 0)" stroke-opacity="1.0" stroke-linecap="round" stroke-linejoin="round"/>
    <path d="M 29.61029815673828 131.26158142089844 C 27.18281364440918 116.82020568847656 34.24679183959961 104.84478759765625 34.895938873291016 104.49247741699219" stroke-width="3.0" fill="none" stroke="rgb(0, 0, 0)" stroke-opacity="1.0" stroke-linecap="round" stroke-linejoin="round"/>
    <path d="M 83.44408416748047 196.95248413085938 C 72.21810913085938 195.8635711669922 67.66447448730469 195.96731567382812 93.61527252197266 199.81600952148438" stroke-width="3.0" fill="none" stroke="rgb(0, 0, 0)" stroke-opacity="1.0" stroke-linecap="round" stroke-linejoin="round"/>
    <path d="M 153.12716674804688 137.26077270507812 C 206.902099609375 111.58335876464844 180.5471649169922 98.43355560302734 155.8681182861328 91.56645965576172" stroke-width="3.0" fill="none" stroke="rgb(0, 0, 0)" stroke-opacity="1.0" stroke-linecap="round" stroke-linejoin="round"/>
    <path d="M 159.56614685058594 70.58999633789062 C 126.39874267578125 78.94982147216797 175.6099090576172 85.52751159667969 148.3982391357422 70.90234375" stroke-width="3.0" fill="none" stroke="rgb(0, 0, 0)" stroke-opacity="1.0" stroke-linecap="round" stroke-linejoin="round"/>
    <path d="M 140.48704528808594 79.51834106445312 C 144.6898651123047 44.3595085144043 196.9116668701172 110.0819091796875 178.9501190185547 46.6130485534668" stroke-width="3.0" fill="none" stroke="rgb(0, 0, 0)" stroke-opacity="1.0" stroke-linecap="round" stroke-linejoin="round"/>
    <path d="M 157.2520294189453 99.02568817138672 C 164.77554321289062 103.61215209960938 175.29856872558594 101.89307403564453 184.49029541015625 118.49930572509766" stroke-width="3.0" fill="none" stroke="rgb(0, 0, 0)" stroke-opacity="1.0" stroke-linecap="round" stroke-linejoin="round"/>
    <path d="M 176.9468231201172 16.68952178955078 C 170.3411407470703 41.23344421386719 174.7444305419922 22.070571899414062 163.0431671142578 35.75364303588867" stroke-width="3.0" fill="none" stroke="rgb(0, 0, 0)" stroke-opacity="1.0" stroke-linecap="round" stroke-linejoin="round"/>
    <path d="M 117.43094635009766 102.71332550048828 C 139.08290100097656 104.38381958007812 129.2003631591797 112.24295043945312 115.58419799804688 98.33637237548828" stroke-width="3.0" fill="none" stroke="rgb(0, 0, 0)" stroke-opacity="1.0" stroke-linecap="round" stroke-linejoin="round"/>
    <path d="M 68.13141632080078 128.11557006835938 C 50.276859283447266 97.08658599853516 56.20256423950195 102.1771011352539 63.58550262451172 121.48807525634766" stroke-width="3.0" fill="none" stroke="rgb(0, 0, 0)" stroke-opacity="1.0" stroke-linecap="round" stroke-linejoin="round"/>
    <path d="M 124.49850463867188 77.968017578125 C 129.7541961669922 41.08614730834961 119.41475677490234 57.152008056640625 123.38897705078125 30.863590240478516" stroke-width="3.0" fill="none" stroke="rgb(0, 0, 0)" stroke-opacity="1.0" stroke-linecap="round" stroke-linejoin="round"/>
    <path d="M 145.890869140625 29.768360137939453 C 143.07582092285156 39.34990310668945 156.5697784423828 8.816060066223145 176.2727813720703 5.071844577789307" stroke-width="3.0" fill="none" stroke="rgb(0, 0, 0)" stroke-opacity="1.0" stroke-linecap="round" stroke-linejoin="round"/>
  </g>
</svg>
