<?xml version="1.0" ?>
<svg xmlns="http://www.w3.org/2000/svg" version="1.1" width="224" height="224">
  <defs/>
  <g>
    <path d="M 56.59516525268555 120.1136703491211 C 57.726688385009766 119.13421630859375 47.95147705078125 111.6107177734375 45.553165435791016 94.96040344238281" stroke-width="3.0" fill="none" stroke="rgb(0, 0, 0)" stroke-opacity="1.0" stroke-linecap="round" stroke-linejoin="round"/>
    <path d="M 181.56150817871094 127.12017822265625 C 186.20082092285156 108.55805206298828 181.35348510742188 113.27351379394531 186.4230194091797 121.80187225341797" stroke-width="3.0" fill="none" stroke="rgb(0, 0, 0)" stroke-opacity="1.0" stroke-linecap="round" stroke-linejoin="round"/>
    <path d="M 48.96869659423828 105.05298614501953 C 52.27278518676758 112.37362670898438 47.94154357910156 104.82272338867188 49.71989059448242 108.99742889404297" stroke-width="3.0" fill="none" stroke="rgb(0, 0, 0)" stroke-opacity="1.0" stroke-linecap="round" stroke-linejoin="round"/>
    <path d="M 182.40301513671875 99.20354461669922 C 157.96397399902344 91.49758911132812 171.58267211914062 81.12317657470703 194.62022399902344 112.81912231445312" stroke-width="3.0" fill="none" stroke="rgb(0, 0, 0)" stroke-opacity="1.0" stroke-linecap="round" stroke-linejoin="round"/>
    <path d="M 184.11550903320312 70.7657470703125 C 181.7229461669922 77.8121337890625 176.2541046142578 77.07893371582031 187.2509765625 65.49214935302734" stroke-width="3.0" fill="none" stroke="rgb(0, 0, 0)" stroke-opacity="1.0" stroke-linecap="round" stroke-linejoin="round"/>
    <path d="M 130.11184692382812 99.6992416381836 C 129.4921417236328 111.49357604980469 116.6459732055664 100.7292709350586 135.20452880859375 103.67914581298828" stroke-width="3.0" fill="none" stroke="rgb(0, 0, 0)" stroke-opacity="1.0" stroke-linecap="round" stroke-linejoin="round"/>
    <path d="M 174.49444580078125 84.1544189453125 C 198.26290893554688 60.42268371582031 187.28224182128906 66.64957427978516 160.65585327148438 86.82013702392578" stroke-width="3.0" fill="none" stroke="rgb(0, 0, 0)" stroke-opacity="1.0" stroke-linecap="round" stroke-linejoin="round"/>
    <path d="M 55.71786880493164 183.56524658203125 C 36.99454879760742 152.18251037597656 42.99151611328125 165.0431365966797 42.49152374267578 158.11190795898438" stroke-width="3.0" fill="none" stroke="rgb(0, 0, 0)" stroke-opacity="1.0" stroke-linecap="round" stroke-linejoin="round"/>
    <path d="M 67.82528686523438 189.03411865234375 C 92.16266632080078 198.15911865234375 115.4232406616211 195.98648071289062 106.44651794433594 193.56602478027344" stroke-width="3.0" fill="none" stroke="rgb(0, 0, 0)" stroke-opacity="1.0" stroke-linecap="round" stroke-linejoin="round"/>
    <path d="M 92.03621673583984 21.741018295288086 C 94.01370239257812 55.496002197265625 92.43907165527344 26.6550350189209 92.36803436279297 51.695350646972656" stroke-width="3.0" fill="none" stroke="rgb(0, 0, 0)" stroke-opacity="1.0" stroke-linecap="round" stroke-linejoin="round"/>
    <path d="M 60.56006622314453 126.57756042480469 C 70.04366302490234 141.40464782714844 80.06707000732422 147.30010986328125 84.02059173583984 147.0768280029297" stroke-width="3.0" fill="none" stroke="rgb(0, 0, 0)" stroke-opacity="1.0" stroke-linecap="round" stroke-linejoin="round"/>
    <path d="M 166.9130096435547 79.4745864868164 C 189.4890899658203 71.86377716064453 173.53955078125 83.76407623291016 147.6604766845703 87.57347106933594" stroke-width="3.0" fill="none" stroke="rgb(0, 0, 0)" stroke-opacity="1.0" stroke-linecap="round" stroke-linejoin="round"/>
    <path d="M 158.16648864746094 101.10355377197266 C 171.20469665527344 100.71153259277344 168.02659606933594 100.67791748046875 190.2153778076172 107.52471923828125" stroke-width="3.0" fill="none" stroke="rgb(0, 0, 0)" stroke-opacity="1.0" stroke-linecap="round" stroke-linejoin="round"/>
    <path d="M 90.21668243408203 161.55252075195312 C 104.17334747314453 176.73028564453125 99.03409576416016 182.7857666015625 106.65988159179688 191.15672302246094" stroke-width="3.0" fill="none" stroke="rgb(0, 0, 0)" stroke-opacity="1.0" stroke-linecap="round" stroke-linejoin="round"/>
    <path d="M 172.2869415283203 11.426431655883789 C 186.9952392578125 3.8855855464935303 180.3023681640625 26.837121963500977 183.46026611328125 62.30647659301758" stroke-width="3.0" fill="none" stroke="rgb(0, 0, 0)" stroke-opacity="1.0" stroke-linecap="round" stroke-linejoin="round"/>
    <path d="M 132.5799102783203 32.40924072265625 C 126.3599624633789 60.69192123413086 131.60118103027344 39.01242446899414 130.6627655029297 71.06224060058594" stroke-width="3.0" fill="none" stroke="rgb(0, 0, 0)" stroke-opacity="1.0" stroke-linecap="round" stroke-linejoin="round"/>
    <path d="M 99.83320617675781 47.989078521728516 C 70.5728988647461 -9.655784606933594 85.75788879394531 0.7883949875831604 109.68730163574219 41.94816970825195" stroke-width="3.0" fill="none" stroke="rgb(0, 0, 0)" stroke-opacity="1.0" stroke-linecap="round" stroke-linejoin="round"/>
    <path d="M 48.08359909057617 169.77911376953125 C 42.26987075805664 156.73651123046875 49.06000518798828 159.46713256835938 45.101505279541016 165.12818908691406" stroke-width="3.0" fill="none" stroke="rgb(0, 0, 0)" stroke-opacity="1.0" stroke-linecap="round" stroke-linejoin="round"/>
    <path d="M 33.2286491394043 112.48494720458984 C 26.99311065673828 128.0028076171875 38.86259841918945 138.87481689453125 42.564571380615234 159.50938415527344" stroke-width="3.0" fill="none" stroke="rgb(0, 0, 0)" stroke-opacity="1.0" stroke-linecap="round" stroke-linejoin="round"/>
    <path d="M 81.60650634765625 151.91421508789062 C 92.12002563476562 161.09527587890625 92.05663299560547 165.5134735107422 85.10681915283203 155.68409729003906" stroke-width="3.0" fill="none" stroke="rgb(0, 0, 0)" stroke-opacity="1.0" stroke-linecap="round" stroke-linejoin="round"/>
    <path d="M 73.97869110107422 193.47190856933594 C 51.51637268066406 179.96331787109375 72.66378784179688 191.12904357910156 48.45856857299805 175.46730041503906" stroke-width="3.0" fill="none" stroke="rgb(0, 0, 0)" stroke-opacity="1.0" stroke-linecap="round" stroke-linejoin="round"/>
    <path d="M 43.07270812988281 155.5939483642578 C 47.03182601928711 170.31741333007812 42.1214599609375 156.2670440673828 38.0787239074707 146.0619659423828" stroke-width="3.0" fill="none" stroke="rgb(0, 0, 0)" stroke-opacity="1.0" stroke-linecap="round" stroke-linejoin="round"/>
    <path d="M 65.82614135742188 56.089942932128906 C 46.94245529174805 72.77848815917969 49.187068939208984 72.47166442871094 34.321041107177734 104.6170425415039" stroke-width="3.0" fill="none" stroke="rgb(0, 0, 0)" stroke-opacity="1.0" stroke-linecap="round" stroke-linejoin="round"/>
    <path d="M 143.79811096191406 159.9490203857422 C 142.38133239746094 161.1729278564453 126.95381927490234 149.62283325195312 140.3481903076172 164.00274658203125" stroke-width="3.0" fill="none" stroke="rgb(0, 0, 0)" stroke-opacity="1.0" stroke-linecap="round" stroke-linejoin="round"/>
    <path d="M 142.22039794921875 31.848995208740234 C 149.48812866210938 54.62417984008789 133.37733459472656 52.82356262207031 139.6205291748047 82.0150146484375" stroke-width="3.0" fill="none" stroke="rgb(0, 0, 0)" stroke-opacity="1.0" stroke-linecap="round" stroke-linejoin="round"/>
    <path d="M 143.61695861816406 103.37544250488281 C 129.55381774902344 111.70279693603516 116.0018310546875 102.4181137084961 127.75321960449219 101.73863220214844" stroke-width="3.0" fill="none" stroke="rgb(0, 0, 0)" stroke-opacity="1.0" stroke-linecap="round" stroke-linejoin="round"/>
    <path d="M 138.08180236816406 77.82367706298828 C 143.60792541503906 46.611202239990234 148.70285034179688 55.764404296875 147.69166564941406 50.206302642822266" stroke-width="3.0" fill="none" stroke="rgb(0, 0, 0)" stroke-opacity="1.0" stroke-linecap="round" stroke-linejoin="round"/>
    <path d="M 116.12274932861328 192.2341766357422 C 93.90828704833984 190.5524444580078 105.27366638183594 210.48255920410156 138.0923614501953 174.2342529296875" stroke-width="3.0" fill="none" stroke="rgb(0, 0, 0)" stroke-opacity="1.0" stroke-linecap="round" stroke-linejoin="round"/>
    <path d="M 187.7154083251953 89.8814926147461 C 155.5880126953125 78.16233825683594 156.16513061523438 90.90431213378906 179.2689971923828 83.8048324584961" stroke-width="3.0" fill="none" stroke="rgb(0, 0, 0)" stroke-opacity="1.0" stroke-linecap="round" stroke-linejoin="round"/>
    <path d="M 172.1787567138672 84.9182357788086 C 198.38607788085938 84.5048828125 198.82736206054688 82.17012023925781 164.29615783691406 81.37944030761719" stroke-width="3.0" fill="none" stroke="rgb(0, 0, 0)" stroke-opacity="1.0" stroke-linecap="round" stroke-linejoin="round"/>
    <path d="M 110.855224609375 79.0470199584961 C 92.53585052490234 70.4530029296875 141.0845489501953 76.80631256103516 109.6637191772461 80.3242416381836" stroke-width="3.0" fill="none" stroke="rgb(0, 0, 0)" stroke-opacity="1.0" stroke-linecap="round" stroke-linejoin="round"/>
    <path d="M 136.27964782714844 159.60147094726562 C 140.0526123046875 156.32460021972656 125.98381042480469 156.8740997314453 104.33786010742188 140.4397735595703" stroke-width="3.0" fill="none" stroke="rgb(0, 0, 0)" stroke-opacity="1.0" stroke-linecap="round" stroke-linejoin="round"/>
    <path d="M 124.17339324951172 89.33776092529297 C 139.44247436523438 101.34013366699219 133.30906677246094 76.45462036132812 129.70301818847656 95.98291015625" stroke-width="3.0" fill="none" stroke="rgb(0, 0, 0)" stroke-opacity="1.0" stroke-linecap="round" stroke-linejoin="round"/>
    <path d="M 188.52664184570312 97.34617614746094 C 170.45928955078125 83.72827911376953 187.03280639648438 96.8646011352539 140.50894165039062 87.2286605834961" stroke-width="3.0" fill="none" stroke="rgb(0, 0, 0)" stroke-opacity="1.0" stroke-linecap="round" stroke-linejoin="round"/>
    <path d="M 86.91038513183594 7.3102874755859375 C 113.66148376464844 17.326642990112305 115.19457244873047 36.14385223388672 125.14456939697266 31.10981559753418" stroke-width="3.0" fill="none" stroke="rgb(0, 0, 0)" stroke-opacity="1.0" stroke-linecap="round" stroke-linejoin="round"/>
    <path d="M 53.347530364990234 112.55431365966797 C 50.59269332885742 108.57171630859375 60.59196090698242 121.83355712890625 52.85146713256836 112.9347152709961" stroke-width="3.0" fill="none" stroke="rgb(0, 0, 0)" stroke-opacity="1.0" stroke-linecap="round" stroke-linejoin="round"/>
    <path d="M 122.54138946533203 100.08838653564453 C 97.37999725341797 89.37454986572266 127.28886413574219 101.38449096679688 104.88670349121094 88.09709167480469" stroke-width="3.0" fill="none" stroke="rgb(0, 0, 0)" stroke-opacity="1.0" stroke-linecap="round" stroke-linejoin="round"/>
    <path d="M 31.306110382080078 117.18648529052734 C 33.374229431152344 97.541259765625 36.158199310302734 106.5087890625 31.507434844970703 113.68429565429688" stroke-width="3.0" fill="none" stroke="rgb(0, 0, 0)" stroke-opacity="1.0" stroke-linecap="round" stroke-linejoin="round"/>
    <path d="M 85.80316162109375 194.4479217529297 C 73.28370666503906 195.97897338867188 73.95088195800781 191.1970977783203 90.47339630126953 194.99314880371094" stroke-width="3.0" fill="none" stroke="rgb(0, 0, 0)" stroke-opacity="1.0" stroke-linecap="round" stroke-linejoin="round"/>
    <path d="M 162.76185607910156 135.8551788330078 C 207.36544799804688 115.21035766601562 177.59410095214844 94.77296447753906 148.81149291992188 94.37500762939453" stroke-width="3.0" fill="none" stroke="rgb(0, 0, 0)" stroke-opacity="1.0" stroke-linecap="round" stroke-linejoin="round"/>
    <path d="M 154.88966369628906 77.0281982421875 C 125.40252685546875 69.32842254638672 161.39820861816406 90.49352264404297 154.20974731445312 70.36007690429688" stroke-width="3.0" fill="none" stroke="rgb(0, 0, 0)" stroke-opacity="1.0" stroke-linecap="round" stroke-linejoin="round"/>
    <path d="M 145.45164489746094 76.84258270263672 C 146.42015075683594 58.302040100097656 174.2567596435547 89.02842712402344 185.0834503173828 60.80320739746094" stroke-width="3.0" fill="none" stroke="rgb(0, 0, 0)" stroke-opacity="1.0" stroke-linecap="round" stroke-linejoin="round"/>
    <path d="M 146.54820251464844 100.11256408691406 C 157.84298706054688 99.55248260498047 171.4773712158203 107.48223114013672 184.2073516845703 113.8427734375" stroke-width="3.0" fill="none" stroke="rgb(0, 0, 0)" stroke-opacity="1.0" stroke-linecap="round" stroke-linejoin="round"/>
    <path d="M 178.95616149902344 16.915668487548828 C 174.65078735351562 46.5034294128418 174.75164794921875 30.35555648803711 165.76490783691406 41.8397331237793" stroke-width="3.0" fill="none" stroke="rgb(0, 0, 0)" stroke-opacity="1.0" stroke-linecap="round" stroke-linejoin="round"/>
    <path d="M 125.02661895751953 103.72820281982422 C 149.27268981933594 110.09627532958984 126.1014404296875 93.8429946899414 112.18309783935547 105.02017211914062" stroke-width="3.0" fill="none" stroke="rgb(0, 0, 0)" stroke-opacity="1.0" stroke-linecap="round" stroke-linejoin="round"/>
    <path d="M 50.4541015625 108.95028686523438 C 53.04059982299805 111.55188751220703 48.21432113647461 105.5982437133789 61.48466873168945 128.35682678222656" stroke-width="3.0" fill="none" stroke="rgb(0, 0, 0)" stroke-opacity="1.0" stroke-linecap="round" stroke-linejoin="round"/>
    <path d="M 122.02932739257812 83.55665588378906 C 132.5813446044922 59.17325973510742 113.8283462524414 53.53062057495117 118.03254699707031 37.137939453125" stroke-width="3.0" fill="none" stroke="rgb(0, 0, 0)" stroke-opacity="1.0" stroke-linecap="round" stroke-linejoin="round"/>
    <path d="M 148.18333435058594 31.325668334960938 C 152.0969696044922 30.329710006713867 151.73577880859375 18.529966354370117 174.5877685546875 10.239073753356934" stroke-width="3.0" fill="none" stroke="rgb(0, 0, 0)" stroke-opacity="1.0" stroke-linecap="round" stroke-linejoin="round"/>
  </g>
</svg>
