<?xml version="1.0" ?>
<svg xmlns="http://www.w3.org/2000/svg" version="1.1" width="224" height="224">
  <defs/>
  <g>
    <path d="M 52.543975830078125 117.36579895019531 C 55.20323181152344 118.47953033447266 44.842830657958984 105.1611099243164 41.46509552001953 89.21097564697266" stroke-width="3.0" fill="none" stroke="rgb(0, 0, 0)" stroke-opacity="1.0" stroke-linecap="round" stroke-linejoin="round"/>
    <path d="M 181.99691772460938 126.9648208618164 C 181.68218994140625 116.66824340820312 183.48756408691406 113.55915832519531 186.91030883789062 119.97390747070312" stroke-width="3.0" fill="none" stroke="rgb(0, 0, 0)" stroke-opacity="1.0" stroke-linecap="round" stroke-linejoin="round"/>
    <path d="M 51.86799240112305 115.08741760253906 C 47.447364807128906 110.22654724121094 50.596710205078125 104.96465301513672 55.8322868347168 123.48145294189453" stroke-width="3.0" fill="none" stroke="rgb(0, 0, 0)" stroke-opacity="1.0" stroke-linecap="round" stroke-linejoin="round"/>
    <path d="M 183.35963439941406 97.84976196289062 C 153.00379943847656 89.39946746826172 173.16546630859375 78.3712158203125 193.9116973876953 113.8216781616211" stroke-width="3.0" fill="none" stroke="rgb(0, 0, 0)" stroke-opacity="1.0" stroke-linecap="round" stroke-linejoin="round"/>
    <path d="M 178.48155212402344 74.45462036132812 C 178.4672088623047 100.27192687988281 179.14170837402344 93.89286041259766 184.9799346923828 66.3718490600586" stroke-width="3.0" fill="none" stroke="rgb(0, 0, 0)" stroke-opacity="1.0" stroke-linecap="round" stroke-linejoin="round"/>
    <path d="M 129.41734313964844 101.08026885986328 C 144.4958038330078 106.27359008789062 101.98307037353516 105.35700988769531 136.7657012939453 103.755126953125" stroke-width="3.0" fill="none" stroke="rgb(0, 0, 0)" stroke-opacity="1.0" stroke-linecap="round" stroke-linejoin="round"/>
    <path d="M 170.03778076171875 98.65963745117188 C 198.2347869873047 72.31855010986328 184.16336059570312 74.7874984741211 152.9164276123047 88.14179992675781" stroke-width="3.0" fill="none" stroke="rgb(0, 0, 0)" stroke-opacity="1.0" stroke-linecap="round" stroke-linejoin="round"/>
    <path d="M 51.101932525634766 179.888671875 C 34.466453552246094 151.82391357421875 48.80720138549805 164.39292907714844 43.528133392333984 162.40396118164062" stroke-width="3.0" fill="none" stroke="rgb(0, 0, 0)" stroke-opacity="1.0" stroke-linecap="round" stroke-linejoin="round"/>
    <path d="M 65.36511993408203 190.16209411621094 C 85.64868927001953 203.6306915283203 110.51238250732422 196.3630828857422 114.05381774902344 193.79269409179688" stroke-width="3.0" fill="none" stroke="rgb(0, 0, 0)" stroke-opacity="1.0" stroke-linecap="round" stroke-linejoin="round"/>
    <path d="M 89.2269058227539 31.814163208007812 C 90.10938262939453 53.98149490356445 89.049560546875 11.248290061950684 85.24874877929688 51.96697235107422" stroke-width="3.0" fill="none" stroke="rgb(0, 0, 0)" stroke-opacity="1.0" stroke-linecap="round" stroke-linejoin="round"/>
    <path d="M 57.122982025146484 126.34683227539062 C 64.6388931274414 141.93275451660156 93.94007110595703 148.04417419433594 91.54359436035156 153.76229858398438" stroke-width="3.0" fill="none" stroke="rgb(0, 0, 0)" stroke-opacity="1.0" stroke-linecap="round" stroke-linejoin="round"/>
    <path d="M 150.95053100585938 69.2631607055664 C 207.626953125 77.37728118896484 183.84954833984375 82.86461639404297 148.4422149658203 89.21469116210938" stroke-width="3.0" fill="none" stroke="rgb(0, 0, 0)" stroke-opacity="1.0" stroke-linecap="round" stroke-linejoin="round"/>
    <path d="M 146.4105682373047 98.19268035888672 C 174.87716674804688 99.88546752929688 177.2708740234375 100.38371276855469 184.70213317871094 106.73777770996094" stroke-width="3.0" fill="none" stroke="rgb(0, 0, 0)" stroke-opacity="1.0" stroke-linecap="round" stroke-linejoin="round"/>
    <path d="M 101.56825256347656 156.04248046875 C 140.6889190673828 148.39321899414062 119.31002044677734 180.2113800048828 120.99008178710938 176.84658813476562" stroke-width="3.0" fill="none" stroke="rgb(0, 0, 0)" stroke-opacity="1.0" stroke-linecap="round" stroke-linejoin="round"/>
    <path d="M 169.85215759277344 9.60427474975586 C 194.551513671875 0.7511950731277466 172.5515899658203 56.58808135986328 183.95828247070312 61.315704345703125" stroke-width="3.0" fill="none" stroke="rgb(0, 0, 0)" stroke-opacity="1.0" stroke-linecap="round" stroke-linejoin="round"/>
    <path d="M 129.3596954345703 30.51045036315918 C 127.81403350830078 50.83242416381836 137.3570098876953 40.17821502685547 130.202880859375 67.88646697998047" stroke-width="3.0" fill="none" stroke="rgb(0, 0, 0)" stroke-opacity="1.0" stroke-linecap="round" stroke-linejoin="round"/>
    <path d="M 90.609375 50.43410110473633 C 72.74754333496094 -5.081221103668213 82.88693237304688 0.7381472587585449 98.89476776123047 43.30887222290039" stroke-width="3.0" fill="none" stroke="rgb(0, 0, 0)" stroke-opacity="1.0" stroke-linecap="round" stroke-linejoin="round"/>
    <path d="M 43.15009307861328 162.84219360351562 C 40.09838104248047 153.45635986328125 37.82056427001953 152.23211669921875 41.38429260253906 152.0147705078125" stroke-width="3.0" fill="none" stroke="rgb(0, 0, 0)" stroke-opacity="1.0" stroke-linecap="round" stroke-linejoin="round"/>
    <path d="M 32.66798400878906 108.62535095214844 C 25.342880249023438 130.09165954589844 37.657047271728516 140.83697509765625 40.896846771240234 156.9210205078125" stroke-width="3.0" fill="none" stroke="rgb(0, 0, 0)" stroke-opacity="1.0" stroke-linecap="round" stroke-linejoin="round"/>
    <path d="M 83.7038803100586 147.134033203125 C 102.71709442138672 154.21629333496094 104.45929718017578 154.71949768066406 91.26722717285156 152.93902587890625" stroke-width="3.0" fill="none" stroke="rgb(0, 0, 0)" stroke-opacity="1.0" stroke-linecap="round" stroke-linejoin="round"/>
    <path d="M 75.4697494506836 195.9841766357422 C 53.14683532714844 182.69029235839844 60.40485382080078 184.22183227539062 48.33143997192383 170.7742462158203" stroke-width="3.0" fill="none" stroke="rgb(0, 0, 0)" stroke-opacity="1.0" stroke-linecap="round" stroke-linejoin="round"/>
    <path d="M 42.779876708984375 164.47482299804688 C 54.561641693115234 191.25344848632812 41.03228759765625 164.93914794921875 39.20703887939453 149.1193389892578" stroke-width="3.0" fill="none" stroke="rgb(0, 0, 0)" stroke-opacity="1.0" stroke-linecap="round" stroke-linejoin="round"/>
    <path d="M 82.19557189941406 55.48075485229492 C 56.71813201904297 54.83335494995117 46.06039047241211 73.89909362792969 32.19991683959961 108.3084716796875" stroke-width="3.0" fill="none" stroke="rgb(0, 0, 0)" stroke-opacity="1.0" stroke-linecap="round" stroke-linejoin="round"/>
    <path d="M 147.9490966796875 145.60340881347656 C 140.95989990234375 161.34823608398438 122.0836410522461 152.07298278808594 129.71237182617188 158.79457092285156" stroke-width="3.0" fill="none" stroke="rgb(0, 0, 0)" stroke-opacity="1.0" stroke-linecap="round" stroke-linejoin="round"/>
    <path d="M 138.8657989501953 31.751441955566406 C 147.9842529296875 66.02800750732422 132.5735321044922 50.76200866699219 137.45652770996094 82.30242156982422" stroke-width="3.0" fill="none" stroke="rgb(0, 0, 0)" stroke-opacity="1.0" stroke-linecap="round" stroke-linejoin="round"/>
    <path d="M 143.3213653564453 100.60163879394531 C 115.23693084716797 98.1875228881836 105.39378356933594 104.00274658203125 139.11795043945312 103.41072845458984" stroke-width="3.0" fill="none" stroke="rgb(0, 0, 0)" stroke-opacity="1.0" stroke-linecap="round" stroke-linejoin="round"/>
    <path d="M 137.2447052001953 69.28546905517578 C 149.76158142089844 54.73075485229492 144.13890075683594 57.7374382019043 139.25579833984375 72.9773178100586" stroke-width="3.0" fill="none" stroke="rgb(0, 0, 0)" stroke-opacity="1.0" stroke-linecap="round" stroke-linejoin="round"/>
    <path d="M 125.5086898803711 186.52508544921875 C 96.125244140625 198.5922088623047 129.79579162597656 197.81053161621094 141.1299591064453 156.56715393066406" stroke-width="3.0" fill="none" stroke="rgb(0, 0, 0)" stroke-opacity="1.0" stroke-linecap="round" stroke-linejoin="round"/>
    <path d="M 192.7323760986328 95.67787170410156 C 158.7574920654297 67.83269500732422 138.0803680419922 97.50450134277344 185.19593811035156 87.1806640625" stroke-width="3.0" fill="none" stroke="rgb(0, 0, 0)" stroke-opacity="1.0" stroke-linecap="round" stroke-linejoin="round"/>
    <path d="M 154.63648986816406 71.2693099975586 C 188.2031707763672 70.18067169189453 196.14654541015625 81.41080474853516 169.8904266357422 73.30148315429688" stroke-width="3.0" fill="none" stroke="rgb(0, 0, 0)" stroke-opacity="1.0" stroke-linecap="round" stroke-linejoin="round"/>
    <path d="M 107.48160552978516 79.32447052001953 C 91.84065246582031 72.52047729492188 140.3799285888672 76.00894165039062 106.93052673339844 82.29950714111328" stroke-width="3.0" fill="none" stroke="rgb(0, 0, 0)" stroke-opacity="1.0" stroke-linecap="round" stroke-linejoin="round"/>
    <path d="M 141.50189208984375 152.78753662109375 C 140.75283813476562 159.8414306640625 125.78998565673828 152.81466674804688 106.07330322265625 154.86276245117188" stroke-width="3.0" fill="none" stroke="rgb(0, 0, 0)" stroke-opacity="1.0" stroke-linecap="round" stroke-linejoin="round"/>
    <path d="M 123.61024475097656 88.04499053955078 C 140.73623657226562 100.4226303100586 130.71234130859375 73.1968765258789 128.67041015625 102.70298767089844" stroke-width="3.0" fill="none" stroke="rgb(0, 0, 0)" stroke-opacity="1.0" stroke-linecap="round" stroke-linejoin="round"/>
    <path d="M 189.12432861328125 110.10308837890625 C 182.52349853515625 84.4687271118164 183.22213745117188 95.86027526855469 142.1293487548828 85.17494201660156" stroke-width="3.0" fill="none" stroke="rgb(0, 0, 0)" stroke-opacity="1.0" stroke-linecap="round" stroke-linejoin="round"/>
    <path d="M 85.94842529296875 8.129521369934082 C 112.194580078125 18.140838623046875 115.9166030883789 33.36699676513672 121.38822937011719 32.20188522338867" stroke-width="3.0" fill="none" stroke="rgb(0, 0, 0)" stroke-opacity="1.0" stroke-linecap="round" stroke-linejoin="round"/>
    <path d="M 51.918617248535156 117.0555648803711 C 47.871246337890625 109.037841796875 55.19279479980469 123.59593200683594 54.4405517578125 121.18089294433594" stroke-width="3.0" fill="none" stroke="rgb(0, 0, 0)" stroke-opacity="1.0" stroke-linecap="round" stroke-linejoin="round"/>
    <path d="M 113.9310302734375 100.57929229736328 C 104.11153411865234 85.8780746459961 118.493896484375 109.65562438964844 104.87229919433594 88.1785659790039" stroke-width="3.0" fill="none" stroke="rgb(0, 0, 0)" stroke-opacity="1.0" stroke-linecap="round" stroke-linejoin="round"/>
    <path d="M 31.591535568237305 129.32154846191406 C 29.14377212524414 108.15898132324219 34.26824951171875 102.83711242675781 30.677873611450195 116.70742797851562" stroke-width="3.0" fill="none" stroke="rgb(0, 0, 0)" stroke-opacity="1.0" stroke-linecap="round" stroke-linejoin="round"/>
    <path d="M 86.13462829589844 197.3555908203125 C 73.41674041748047 196.67074584960938 69.52373504638672 196.1759796142578 95.36559295654297 199.22691345214844" stroke-width="3.0" fill="none" stroke="rgb(0, 0, 0)" stroke-opacity="1.0" stroke-linecap="round" stroke-linejoin="round"/>
    <path d="M 149.15341186523438 144.63235473632812 C 210.33895874023438 111.95174407958984 181.64794921875 95.27474212646484 150.4328155517578 92.96424865722656" stroke-width="3.0" fill="none" stroke="rgb(0, 0, 0)" stroke-opacity="1.0" stroke-linecap="round" stroke-linejoin="round"/>
    <path d="M 156.20425415039062 74.673095703125 C 121.09815216064453 82.76824188232422 180.5381317138672 79.4544906616211 148.5072021484375 73.85967254638672" stroke-width="3.0" fill="none" stroke="rgb(0, 0, 0)" stroke-opacity="1.0" stroke-linecap="round" stroke-linejoin="round"/>
    <path d="M 141.66259765625 77.56864929199219 C 146.20660400390625 52.7863655090332 190.4365692138672 101.42503356933594 180.23573303222656 51.72066116333008" stroke-width="3.0" fill="none" stroke="rgb(0, 0, 0)" stroke-opacity="1.0" stroke-linecap="round" stroke-linejoin="round"/>
    <path d="M 148.7893829345703 99.861572265625 C 160.3938446044922 102.3750228881836 176.035888671875 106.72859954833984 185.527099609375 113.8467788696289" stroke-width="3.0" fill="none" stroke="rgb(0, 0, 0)" stroke-opacity="1.0" stroke-linecap="round" stroke-linejoin="round"/>
    <path d="M 176.83566284179688 16.697147369384766 C 172.12684631347656 44.21610641479492 173.4356231689453 24.019927978515625 159.7272491455078 35.503074645996094" stroke-width="3.0" fill="none" stroke="rgb(0, 0, 0)" stroke-opacity="1.0" stroke-linecap="round" stroke-linejoin="round"/>
    <path d="M 127.57543182373047 105.60702514648438 C 141.125 105.96831512451172 127.58576965332031 113.60733795166016 110.2181167602539 98.09796142578125" stroke-width="3.0" fill="none" stroke="rgb(0, 0, 0)" stroke-opacity="1.0" stroke-linecap="round" stroke-linejoin="round"/>
    <path d="M 52.268455505371094 117.81884765625 C 53.636661529541016 115.2999267578125 46.850711822509766 108.12140655517578 59.87702941894531 131.01986694335938" stroke-width="3.0" fill="none" stroke="rgb(0, 0, 0)" stroke-opacity="1.0" stroke-linecap="round" stroke-linejoin="round"/>
    <path d="M 122.00684356689453 74.55306243896484 C 125.19059753417969 52.62772750854492 117.9782943725586 53.3525390625 122.3869400024414 29.18741226196289" stroke-width="3.0" fill="none" stroke="rgb(0, 0, 0)" stroke-opacity="1.0" stroke-linecap="round" stroke-linejoin="round"/>
    <path d="M 143.36138916015625 30.30550193786621 C 143.6864776611328 40.599273681640625 150.63131713867188 16.982173919677734 176.38641357421875 8.46973705291748" stroke-width="3.0" fill="none" stroke="rgb(0, 0, 0)" stroke-opacity="1.0" stroke-linecap="round" stroke-linejoin="round"/>
  </g>
</svg>
