<?xml version="1.0" ?>
<svg xmlns="http://www.w3.org/2000/svg" version="1.1" width="224" height="224">
  <defs/>
  <g>
    <path d="M 64.55908966064453 79.10702514648438 C 66.24161529541016 76.96649169921875 68.60334014892578 81.73306274414062 59.624900817871094 71.0968017578125" stroke-width="3.0" fill="none" stroke="rgb(0, 0, 0)" stroke-opacity="1.0" stroke-linecap="round" stroke-linejoin="round"/>
    <path d="M 185.27548217773438 118.14812469482422 C 178.55145263671875 115.40330505371094 202.87173461914062 97.70310974121094 172.84767150878906 130.7729949951172" stroke-width="3.0" fill="none" stroke="rgb(0, 0, 0)" stroke-opacity="1.0" stroke-linecap="round" stroke-linejoin="round"/>
    <path d="M 59.30983352661133 119.67455291748047 C 58.93344497680664 112.10375213623047 58.910186767578125 121.51358032226562 68.28643798828125 126.54109954833984" stroke-width="3.0" fill="none" stroke="rgb(0, 0, 0)" stroke-opacity="1.0" stroke-linecap="round" stroke-linejoin="round"/>
    <path d="M 183.4623260498047 96.90414428710938 C 147.24266052246094 87.76988220214844 174.47129821777344 75.13180541992188 193.87417602539062 110.77587127685547" stroke-width="3.0" fill="none" stroke="rgb(0, 0, 0)" stroke-opacity="1.0" stroke-linecap="round" stroke-linejoin="round"/>
    <path d="M 183.3444366455078 63.860347747802734 C 187.1522979736328 117.34812927246094 180.7587432861328 105.14302062988281 179.2134246826172 77.13229370117188" stroke-width="3.0" fill="none" stroke="rgb(0, 0, 0)" stroke-opacity="1.0" stroke-linecap="round" stroke-linejoin="round"/>
    <path d="M 121.43692016601562 102.76077270507812 C 144.781005859375 116.67351531982422 108.3762435913086 94.9488296508789 136.70379638671875 105.92137908935547" stroke-width="3.0" fill="none" stroke="rgb(0, 0, 0)" stroke-opacity="1.0" stroke-linecap="round" stroke-linejoin="round"/>
    <path d="M 171.70252990722656 90.80887603759766 C 190.30059814453125 91.92076873779297 177.54685974121094 72.16422271728516 157.54322814941406 87.64615631103516" stroke-width="3.0" fill="none" stroke="rgb(0, 0, 0)" stroke-opacity="1.0" stroke-linecap="round" stroke-linejoin="round"/>
    <path d="M 57.786991119384766 185.86289978027344 C 38.72965621948242 155.7881317138672 47.43842315673828 168.53570556640625 49.141357421875 172.40977478027344" stroke-width="3.0" fill="none" stroke="rgb(0, 0, 0)" stroke-opacity="1.0" stroke-linecap="round" stroke-linejoin="round"/>
    <path d="M 55.44411849975586 179.8773193359375 C 87.46025085449219 212.06224060058594 114.48446655273438 196.15846252441406 130.34632873535156 180.92088317871094" stroke-width="3.0" fill="none" stroke="rgb(0, 0, 0)" stroke-opacity="1.0" stroke-linecap="round" stroke-linejoin="round"/>
    <path d="M 83.78654479980469 29.08047103881836 C 96.00828552246094 78.21443939208984 82.46350860595703 9.025843620300293 81.59037780761719 58.93867874145508" stroke-width="3.0" fill="none" stroke="rgb(0, 0, 0)" stroke-opacity="1.0" stroke-linecap="round" stroke-linejoin="round"/>
    <path d="M 50.95466232299805 94.68621826171875 C 61.56155014038086 139.48329162597656 95.4500961303711 155.72793579101562 91.72891235351562 148.95248413085938" stroke-width="3.0" fill="none" stroke="rgb(0, 0, 0)" stroke-opacity="1.0" stroke-linecap="round" stroke-linejoin="round"/>
    <path d="M 151.5182647705078 72.28240966796875 C 205.47662353515625 67.94510650634766 189.6921844482422 85.09944915771484 144.37339782714844 83.23067474365234" stroke-width="3.0" fill="none" stroke="rgb(0, 0, 0)" stroke-opacity="1.0" stroke-linecap="round" stroke-linejoin="round"/>
    <path d="M 150.4906005859375 97.79733276367188 C 193.78485107421875 104.95378875732422 178.14093017578125 105.75456237792969 196.50942993164062 114.46736907958984" stroke-width="3.0" fill="none" stroke="rgb(0, 0, 0)" stroke-opacity="1.0" stroke-linecap="round" stroke-linejoin="round"/>
    <path d="M 127.13153839111328 157.08450317382812 C 145.4871826171875 146.6305694580078 125.14247131347656 157.81105041503906 110.58358764648438 154.42306518554688" stroke-width="3.0" fill="none" stroke="rgb(0, 0, 0)" stroke-opacity="1.0" stroke-linecap="round" stroke-linejoin="round"/>
    <path d="M 177.28741455078125 9.197474479675293 C 188.71217346191406 25.852277755737305 174.61727905273438 63.409881591796875 178.25804138183594 51.170814514160156" stroke-width="3.0" fill="none" stroke="rgb(0, 0, 0)" stroke-opacity="1.0" stroke-linecap="round" stroke-linejoin="round"/>
    <path d="M 129.00125122070312 29.303302764892578 C 126.4726791381836 49.97994613647461 133.87252807617188 34.26689910888672 124.97723388671875 69.02218627929688" stroke-width="3.0" fill="none" stroke="rgb(0, 0, 0)" stroke-opacity="1.0" stroke-linecap="round" stroke-linejoin="round"/>
    <path d="M 86.01312255859375 53.463531494140625 C 74.53083038330078 -9.629521369934082 83.97533416748047 -3.236250877380371 111.82133483886719 40.14497375488281" stroke-width="3.0" fill="none" stroke="rgb(0, 0, 0)" stroke-opacity="1.0" stroke-linecap="round" stroke-linejoin="round"/>
    <path d="M 46.533416748046875 170.65109252929688 C 39.34995651245117 153.4904022216797 37.301292419433594 143.90965270996094 44.78384780883789 164.23634338378906" stroke-width="3.0" fill="none" stroke="rgb(0, 0, 0)" stroke-opacity="1.0" stroke-linecap="round" stroke-linejoin="round"/>
    <path d="M 36.92332458496094 96.62605285644531 C 19.6257381439209 127.58187103271484 39.777626037597656 147.09722900390625 41.43905258178711 158.4614715576172" stroke-width="3.0" fill="none" stroke="rgb(0, 0, 0)" stroke-opacity="1.0" stroke-linecap="round" stroke-linejoin="round"/>
    <path d="M 86.28755950927734 149.46458435058594 C 109.06808471679688 160.01580810546875 100.72008514404297 160.80410766601562 97.84400939941406 151.2013397216797" stroke-width="3.0" fill="none" stroke="rgb(0, 0, 0)" stroke-opacity="1.0" stroke-linecap="round" stroke-linejoin="round"/>
    <path d="M 83.18270111083984 196.73904418945312 C 68.18558502197266 201.94386291503906 51.19521713256836 176.5672607421875 48.60911560058594 171.25701904296875" stroke-width="3.0" fill="none" stroke="rgb(0, 0, 0)" stroke-opacity="1.0" stroke-linecap="round" stroke-linejoin="round"/>
    <path d="M 47.63037109375 173.76560974121094 C 63.43497085571289 192.40589904785156 43.70295715332031 167.79830932617188 38.47939682006836 149.88296508789062" stroke-width="3.0" fill="none" stroke="rgb(0, 0, 0)" stroke-opacity="1.0" stroke-linecap="round" stroke-linejoin="round"/>
    <path d="M 78.54693603515625 54.98868179321289 C 63.553836822509766 61.15320587158203 45.90168380737305 71.72096252441406 32.144012451171875 107.769775390625" stroke-width="3.0" fill="none" stroke="rgb(0, 0, 0)" stroke-opacity="1.0" stroke-linecap="round" stroke-linejoin="round"/>
    <path d="M 154.820556640625 139.62319946289062 C 122.02315521240234 158.4210968017578 116.2177734375 153.22006225585938 131.1932373046875 156.35121154785156" stroke-width="3.0" fill="none" stroke="rgb(0, 0, 0)" stroke-opacity="1.0" stroke-linecap="round" stroke-linejoin="round"/>
    <path d="M 144.1884765625 31.27838706970215 C 147.52976989746094 49.15353775024414 137.16796875 38.81435012817383 136.22950744628906 80.22265625" stroke-width="3.0" fill="none" stroke="rgb(0, 0, 0)" stroke-opacity="1.0" stroke-linecap="round" stroke-linejoin="round"/>
    <path d="M 147.04750061035156 100.57475280761719 C 130.3422393798828 106.96202087402344 134.51748657226562 113.33674621582031 118.79668426513672 104.10363006591797" stroke-width="3.0" fill="none" stroke="rgb(0, 0, 0)" stroke-opacity="1.0" stroke-linecap="round" stroke-linejoin="round"/>
    <path d="M 135.46018981933594 72.7723159790039 C 144.33804321289062 54.9619255065918 129.63966369628906 63.113685607910156 136.20875549316406 78.05728912353516" stroke-width="3.0" fill="none" stroke="rgb(0, 0, 0)" stroke-opacity="1.0" stroke-linecap="round" stroke-linejoin="round"/>
    <path d="M 131.5774383544922 178.65469360351562 C 128.3175048828125 182.862548828125 136.1836700439453 179.42098999023438 146.11526489257812 146.36474609375" stroke-width="3.0" fill="none" stroke="rgb(0, 0, 0)" stroke-opacity="1.0" stroke-linecap="round" stroke-linejoin="round"/>
    <path d="M 196.05320739746094 96.51719665527344 C 167.099609375 70.90693664550781 162.4582977294922 79.18814086914062 186.68435668945312 89.0864028930664" stroke-width="3.0" fill="none" stroke="rgb(0, 0, 0)" stroke-opacity="1.0" stroke-linecap="round" stroke-linejoin="round"/>
    <path d="M 147.16259765625 77.90325927734375 C 139.86123657226562 55.07299041748047 190.492919921875 93.36175537109375 179.75674438476562 65.21318817138672" stroke-width="3.0" fill="none" stroke="rgb(0, 0, 0)" stroke-opacity="1.0" stroke-linecap="round" stroke-linejoin="round"/>
    <path d="M 113.29318237304688 76.88795471191406 C 77.24674987792969 70.23587799072266 151.19041442871094 73.41698455810547 106.69007110595703 81.42839813232422" stroke-width="3.0" fill="none" stroke="rgb(0, 0, 0)" stroke-opacity="1.0" stroke-linecap="round" stroke-linejoin="round"/>
    <path d="M 162.2989044189453 131.93763732910156 C 127.14886474609375 165.6510009765625 122.8719482421875 152.72714233398438 105.58206939697266 156.9410858154297" stroke-width="3.0" fill="none" stroke="rgb(0, 0, 0)" stroke-opacity="1.0" stroke-linecap="round" stroke-linejoin="round"/>
    <path d="M 124.76253509521484 91.43234252929688 C 144.57733154296875 102.21670532226562 132.44139099121094 72.30519104003906 129.38145446777344 107.94036865234375" stroke-width="3.0" fill="none" stroke="rgb(0, 0, 0)" stroke-opacity="1.0" stroke-linecap="round" stroke-linejoin="round"/>
    <path d="M 190.5592498779297 111.83130645751953 C 172.5735626220703 89.75167083740234 183.9825439453125 93.14656829833984 141.75723266601562 82.6984634399414" stroke-width="3.0" fill="none" stroke="rgb(0, 0, 0)" stroke-opacity="1.0" stroke-linecap="round" stroke-linejoin="round"/>
    <path d="M 87.86058807373047 9.39806842803955 C 104.02967071533203 13.134894371032715 117.76776123046875 33.78208923339844 122.15228271484375 29.727201461791992" stroke-width="3.0" fill="none" stroke="rgb(0, 0, 0)" stroke-opacity="1.0" stroke-linecap="round" stroke-linejoin="round"/>
    <path d="M 59.25919723510742 120.66513061523438 C 60.81956481933594 117.27449798583984 62.2173957824707 130.82571411132812 62.822811126708984 123.99129486083984" stroke-width="3.0" fill="none" stroke="rgb(0, 0, 0)" stroke-opacity="1.0" stroke-linecap="round" stroke-linejoin="round"/>
    <path d="M 137.96949768066406 103.35992431640625 C 118.1928939819336 94.51458740234375 120.63932037353516 114.73995208740234 111.27628326416016 87.54743957519531" stroke-width="3.0" fill="none" stroke="rgb(0, 0, 0)" stroke-opacity="1.0" stroke-linecap="round" stroke-linejoin="round"/>
    <path d="M 31.67817497253418 134.23049926757812 C 30.250804901123047 94.37824249267578 42.35015869140625 99.1522216796875 50.50584030151367 76.72128295898438" stroke-width="3.0" fill="none" stroke="rgb(0, 0, 0)" stroke-opacity="1.0" stroke-linecap="round" stroke-linejoin="round"/>
    <path d="M 78.39346313476562 196.99961853027344 C 69.77725982666016 194.67445373535156 65.31111907958984 193.84356689453125 98.61071014404297 197.63414001464844" stroke-width="3.0" fill="none" stroke="rgb(0, 0, 0)" stroke-opacity="1.0" stroke-linecap="round" stroke-linejoin="round"/>
    <path d="M 162.53775024414062 133.06976318359375 C 201.8904571533203 121.07660675048828 177.78201293945312 95.66607666015625 155.2526397705078 90.7777099609375" stroke-width="3.0" fill="none" stroke="rgb(0, 0, 0)" stroke-opacity="1.0" stroke-linecap="round" stroke-linejoin="round"/>
    <path d="M 159.02740478515625 70.15198516845703 C 135.7198486328125 83.27954864501953 171.86973571777344 75.44226837158203 148.30157470703125 71.16387176513672" stroke-width="3.0" fill="none" stroke="rgb(0, 0, 0)" stroke-opacity="1.0" stroke-linecap="round" stroke-linejoin="round"/>
    <path d="M 141.36219787597656 75.19868469238281 C 146.0877227783203 43.64057922363281 194.05189514160156 111.71179962158203 179.65957641601562 43.07097625732422" stroke-width="3.0" fill="none" stroke="rgb(0, 0, 0)" stroke-opacity="1.0" stroke-linecap="round" stroke-linejoin="round"/>
    <path d="M 157.28855895996094 98.08567810058594 C 168.48565673828125 107.86254119873047 173.3289794921875 101.12493896484375 183.64242553710938 125.7129898071289" stroke-width="3.0" fill="none" stroke="rgb(0, 0, 0)" stroke-opacity="1.0" stroke-linecap="round" stroke-linejoin="round"/>
    <path d="M 174.8933563232422 15.737310409545898 C 166.2252960205078 42.65046691894531 175.76060485839844 21.33765983581543 161.13539123535156 33.759857177734375" stroke-width="3.0" fill="none" stroke="rgb(0, 0, 0)" stroke-opacity="1.0" stroke-linecap="round" stroke-linejoin="round"/>
    <path d="M 120.65762329101562 102.0384750366211 C 144.3105010986328 104.06991577148438 137.81443786621094 110.05286407470703 120.16534423828125 103.23873138427734" stroke-width="3.0" fill="none" stroke="rgb(0, 0, 0)" stroke-opacity="1.0" stroke-linecap="round" stroke-linejoin="round"/>
    <path d="M 75.17559814453125 133.63743591308594 C 50.980655670166016 128.02569580078125 61.803314208984375 112.02277374267578 59.3021240234375 120.48690032958984" stroke-width="3.0" fill="none" stroke="rgb(0, 0, 0)" stroke-opacity="1.0" stroke-linecap="round" stroke-linejoin="round"/>
    <path d="M 125.49610137939453 72.12996673583984 C 127.63361358642578 37.32236862182617 121.16455078125 50.383689880371094 123.11366271972656 35.392982482910156" stroke-width="3.0" fill="none" stroke="rgb(0, 0, 0)" stroke-opacity="1.0" stroke-linecap="round" stroke-linejoin="round"/>
    <path d="M 153.66964721679688 25.134241104125977 C 148.29324340820312 36.84893798828125 160.53309631347656 7.582294464111328 175.8904266357422 8.120110511779785" stroke-width="3.0" fill="none" stroke="rgb(0, 0, 0)" stroke-opacity="1.0" stroke-linecap="round" stroke-linejoin="round"/>
  </g>
</svg>
