<?xml version="1.0" ?>
<svg xmlns="http://www.w3.org/2000/svg" version="1.1" width="224" height="224">
  <defs/>
  <g>
    <path d="M 53.76393508911133 116.85774230957031 C 58.25658416748047 117.09456634521484 45.44119644165039 104.53067779541016 44.067596435546875 86.54505157470703" stroke-width="3.0" fill="none" stroke="rgb(0, 0, 0)" stroke-opacity="1.0" stroke-linecap="round" stroke-linejoin="round"/>
    <path d="M 181.50254821777344 125.76945495605469 C 178.93556213378906 117.46890258789062 184.8826446533203 114.55236053466797 186.3709259033203 119.98699951171875" stroke-width="3.0" fill="none" stroke="rgb(0, 0, 0)" stroke-opacity="1.0" stroke-linecap="round" stroke-linejoin="round"/>
    <path d="M 52.8242301940918 115.40251159667969 C 51.42198944091797 109.24504089355469 49.207515716552734 107.36396026611328 55.70458221435547 121.44270324707031" stroke-width="3.0" fill="none" stroke="rgb(0, 0, 0)" stroke-opacity="1.0" stroke-linecap="round" stroke-linejoin="round"/>
    <path d="M 184.2684326171875 98.64839172363281 C 153.5482940673828 90.23969268798828 174.6309356689453 79.23603057861328 195.5849151611328 114.5508041381836" stroke-width="3.0" fill="none" stroke="rgb(0, 0, 0)" stroke-opacity="1.0" stroke-linecap="round" stroke-linejoin="round"/>
    <path d="M 175.6765594482422 73.7520523071289 C 177.53707885742188 100.50823211669922 180.6576385498047 95.8133316040039 184.4038543701172 66.03446197509766" stroke-width="3.0" fill="none" stroke="rgb(0, 0, 0)" stroke-opacity="1.0" stroke-linecap="round" stroke-linejoin="round"/>
    <path d="M 127.86266326904297 104.63996887207031 C 144.17501831054688 105.0119400024414 97.37107849121094 100.19361114501953 138.3650665283203 101.12922668457031" stroke-width="3.0" fill="none" stroke="rgb(0, 0, 0)" stroke-opacity="1.0" stroke-linecap="round" stroke-linejoin="round"/>
    <path d="M 173.48760986328125 100.71141052246094 C 194.10923767089844 75.35558319091797 179.6655731201172 75.31014251708984 153.29965209960938 89.45521545410156" stroke-width="3.0" fill="none" stroke="rgb(0, 0, 0)" stroke-opacity="1.0" stroke-linecap="round" stroke-linejoin="round"/>
    <path d="M 52.30069351196289 177.71192932128906 C 32.45980453491211 156.25575256347656 51.16551208496094 165.29502868652344 43.4956169128418 164.97073364257812" stroke-width="3.0" fill="none" stroke="rgb(0, 0, 0)" stroke-opacity="1.0" stroke-linecap="round" stroke-linejoin="round"/>
    <path d="M 64.76807403564453 191.32728576660156 C 84.93052673339844 205.28729248046875 109.43341064453125 196.70538330078125 114.09025573730469 191.86178588867188" stroke-width="3.0" fill="none" stroke="rgb(0, 0, 0)" stroke-opacity="1.0" stroke-linecap="round" stroke-linejoin="round"/>
    <path d="M 87.31532287597656 36.97926330566406 C 90.80108642578125 49.62368392944336 85.92123413085938 2.1959593296051025 84.64424133300781 50.759742736816406" stroke-width="3.0" fill="none" stroke="rgb(0, 0, 0)" stroke-opacity="1.0" stroke-linecap="round" stroke-linejoin="round"/>
    <path d="M 58.4699592590332 124.78591918945312 C 66.11714172363281 139.59695434570312 93.55713653564453 147.65802001953125 91.87939453125 152.4337921142578" stroke-width="3.0" fill="none" stroke="rgb(0, 0, 0)" stroke-opacity="1.0" stroke-linecap="round" stroke-linejoin="round"/>
    <path d="M 156.97256469726562 71.29954528808594 C 204.90602111816406 79.21165466308594 182.41123962402344 83.59453582763672 150.5986328125 87.95840454101562" stroke-width="3.0" fill="none" stroke="rgb(0, 0, 0)" stroke-opacity="1.0" stroke-linecap="round" stroke-linejoin="round"/>
    <path d="M 148.27098083496094 96.76355743408203 C 174.92784118652344 102.55403900146484 179.79881286621094 100.52741241455078 186.0724639892578 109.33515930175781" stroke-width="3.0" fill="none" stroke="rgb(0, 0, 0)" stroke-opacity="1.0" stroke-linecap="round" stroke-linejoin="round"/>
    <path d="M 99.5037612915039 155.4640350341797 C 145.6703338623047 148.68101501464844 117.89793395996094 172.49034118652344 120.63191223144531 171.31866455078125" stroke-width="3.0" fill="none" stroke="rgb(0, 0, 0)" stroke-opacity="1.0" stroke-linecap="round" stroke-linejoin="round"/>
    <path d="M 171.8096466064453 10.218555450439453 C 192.20594787597656 -0.1579185426235199 173.9661407470703 59.162105560302734 183.7138214111328 55.772483825683594" stroke-width="3.0" fill="none" stroke="rgb(0, 0, 0)" stroke-opacity="1.0" stroke-linecap="round" stroke-linejoin="round"/>
    <path d="M 126.20792388916016 32.005836486816406 C 127.60293579101562 52.23115921020508 135.57920837402344 38.35032653808594 128.48406982421875 66.40908813476562" stroke-width="3.0" fill="none" stroke="rgb(0, 0, 0)" stroke-opacity="1.0" stroke-linecap="round" stroke-linejoin="round"/>
    <path d="M 89.10372161865234 48.11079025268555 C 73.65782165527344 -3.9833245277404785 82.85576629638672 1.6133854389190674 102.49732208251953 37.41716384887695" stroke-width="3.0" fill="none" stroke="rgb(0, 0, 0)" stroke-opacity="1.0" stroke-linecap="round" stroke-linejoin="round"/>
    <path d="M 42.76362228393555 163.0690155029297 C 38.17094039916992 155.26576232910156 39.01661682128906 149.6730499267578 37.02355194091797 145.4359130859375" stroke-width="3.0" fill="none" stroke="rgb(0, 0, 0)" stroke-opacity="1.0" stroke-linecap="round" stroke-linejoin="round"/>
    <path d="M 33.28060531616211 107.79328918457031 C 24.866901397705078 131.2866973876953 35.936279296875 141.9849395751953 41.22256851196289 157.33982849121094" stroke-width="3.0" fill="none" stroke="rgb(0, 0, 0)" stroke-opacity="1.0" stroke-linecap="round" stroke-linejoin="round"/>
    <path d="M 86.27408599853516 148.30032348632812 C 103.54520416259766 156.3462371826172 106.79193115234375 157.36126708984375 92.48809814453125 150.77001953125" stroke-width="3.0" fill="none" stroke="rgb(0, 0, 0)" stroke-opacity="1.0" stroke-linecap="round" stroke-linejoin="round"/>
    <path d="M 74.31950378417969 196.9677276611328 C 52.85345458984375 184.0841522216797 57.98069381713867 186.11990356445312 47.21779251098633 171.9263153076172" stroke-width="3.0" fill="none" stroke="rgb(0, 0, 0)" stroke-opacity="1.0" stroke-linecap="round" stroke-linejoin="round"/>
    <path d="M 43.2120246887207 164.39376831054688 C 55.95657730102539 191.0523681640625 41.8726921081543 163.93548583984375 36.78528594970703 150.18589782714844" stroke-width="3.0" fill="none" stroke="rgb(0, 0, 0)" stroke-opacity="1.0" stroke-linecap="round" stroke-linejoin="round"/>
    <path d="M 80.05839538574219 53.303932189941406 C 57.18788528442383 57.611209869384766 47.74505615234375 75.05584716796875 32.78647994995117 107.84417724609375" stroke-width="3.0" fill="none" stroke="rgb(0, 0, 0)" stroke-opacity="1.0" stroke-linecap="round" stroke-linejoin="round"/>
    <path d="M 149.96133422851562 143.76318359375 C 138.91769409179688 157.92027282714844 121.51171112060547 153.35733032226562 132.706298828125 156.22805786132812" stroke-width="3.0" fill="none" stroke="rgb(0, 0, 0)" stroke-opacity="1.0" stroke-linecap="round" stroke-linejoin="round"/>
    <path d="M 134.13560485839844 32.41448974609375 C 144.11619567871094 68.03594207763672 131.18646240234375 51.302284240722656 141.0911407470703 78.58427429199219" stroke-width="3.0" fill="none" stroke="rgb(0, 0, 0)" stroke-opacity="1.0" stroke-linecap="round" stroke-linejoin="round"/>
    <path d="M 144.34507751464844 99.33130645751953 C 120.85826110839844 103.31951141357422 114.00402069091797 108.66202545166016 137.07594299316406 104.30110168457031" stroke-width="3.0" fill="none" stroke="rgb(0, 0, 0)" stroke-opacity="1.0" stroke-linecap="round" stroke-linejoin="round"/>
    <path d="M 136.97360229492188 79.04070281982422 C 144.3197784423828 51.34972381591797 140.13706970214844 57.40302276611328 139.06080627441406 71.22565460205078" stroke-width="3.0" fill="none" stroke="rgb(0, 0, 0)" stroke-opacity="1.0" stroke-linecap="round" stroke-linejoin="round"/>
    <path d="M 125.94577026367188 183.46792602539062 C 98.48597717285156 198.20668029785156 129.99110412597656 195.47865295410156 141.318359375 156.14639282226562" stroke-width="3.0" fill="none" stroke="rgb(0, 0, 0)" stroke-opacity="1.0" stroke-linecap="round" stroke-linejoin="round"/>
    <path d="M 191.9320831298828 97.34973907470703 C 156.53382873535156 72.5931167602539 137.3692169189453 96.1321029663086 185.60757446289062 84.4271240234375" stroke-width="3.0" fill="none" stroke="rgb(0, 0, 0)" stroke-opacity="1.0" stroke-linecap="round" stroke-linejoin="round"/>
    <path d="M 145.18284606933594 76.09794616699219 C 192.68511962890625 65.69032287597656 195.14976501464844 83.037109375 170.63311767578125 74.45183563232422" stroke-width="3.0" fill="none" stroke="rgb(0, 0, 0)" stroke-opacity="1.0" stroke-linecap="round" stroke-linejoin="round"/>
    <path d="M 109.72207641601562 78.24932098388672 C 91.6297378540039 71.02081298828125 138.49505615234375 75.65261840820312 107.02664947509766 80.6854248046875" stroke-width="3.0" fill="none" stroke="rgb(0, 0, 0)" stroke-opacity="1.0" stroke-linecap="round" stroke-linejoin="round"/>
    <path d="M 143.63809204101562 151.40130615234375 C 144.7514190673828 158.27325439453125 127.1352767944336 153.57383728027344 107.33981323242188 157.36248779296875" stroke-width="3.0" fill="none" stroke="rgb(0, 0, 0)" stroke-opacity="1.0" stroke-linecap="round" stroke-linejoin="round"/>
    <path d="M 121.09976959228516 90.27386474609375 C 141.3844451904297 100.53434753417969 130.1585693359375 72.94678497314453 127.24137115478516 102.45410919189453" stroke-width="3.0" fill="none" stroke="rgb(0, 0, 0)" stroke-opacity="1.0" stroke-linecap="round" stroke-linejoin="round"/>
    <path d="M 189.60426330566406 109.60291290283203 C 185.516845703125 82.83650207519531 183.84959411621094 96.70950317382812 140.98924255371094 83.93390655517578" stroke-width="3.0" fill="none" stroke="rgb(0, 0, 0)" stroke-opacity="1.0" stroke-linecap="round" stroke-linejoin="round"/>
    <path d="M 85.17549133300781 8.269448280334473 C 110.22191619873047 16.84644317626953 115.88063049316406 32.70770263671875 121.67855834960938 31.626327514648438" stroke-width="3.0" fill="none" stroke="rgb(0, 0, 0)" stroke-opacity="1.0" stroke-linecap="round" stroke-linejoin="round"/>
    <path d="M 53.62175750732422 115.80673217773438 C 50.99951934814453 107.56402587890625 57.74871063232422 122.24906158447266 55.74090576171875 121.44258117675781" stroke-width="3.0" fill="none" stroke="rgb(0, 0, 0)" stroke-opacity="1.0" stroke-linecap="round" stroke-linejoin="round"/>
    <path d="M 112.05763244628906 101.38337707519531 C 106.58401489257812 85.34264373779297 114.05159759521484 111.6925277709961 108.45403289794922 86.36377716064453" stroke-width="3.0" fill="none" stroke="rgb(0, 0, 0)" stroke-opacity="1.0" stroke-linecap="round" stroke-linejoin="round"/>
    <path d="M 31.430843353271484 131.58338928222656 C 28.157001495361328 110.62482452392578 34.31877899169922 102.64884185791016 31.495298385620117 116.74359130859375" stroke-width="3.0" fill="none" stroke="rgb(0, 0, 0)" stroke-opacity="1.0" stroke-linecap="round" stroke-linejoin="round"/>
    <path d="M 84.08079528808594 198.55728149414062 C 73.5974349975586 195.93359375 69.3951644897461 198.36538696289062 95.3685302734375 197.1224365234375" stroke-width="3.0" fill="none" stroke="rgb(0, 0, 0)" stroke-opacity="1.0" stroke-linecap="round" stroke-linejoin="round"/>
    <path d="M 151.15103149414062 141.39529418945312 C 211.2655792236328 111.15586853027344 182.20103454589844 98.4333724975586 152.0156707763672 92.69892883300781" stroke-width="3.0" fill="none" stroke="rgb(0, 0, 0)" stroke-opacity="1.0" stroke-linecap="round" stroke-linejoin="round"/>
    <path d="M 157.17298889160156 75.5813217163086 C 120.64848327636719 83.68084716796875 179.12979125976562 82.18718719482422 146.8773193359375 74.6541519165039" stroke-width="3.0" fill="none" stroke="rgb(0, 0, 0)" stroke-opacity="1.0" stroke-linecap="round" stroke-linejoin="round"/>
    <path d="M 139.90530395507812 77.1198501586914 C 148.44537353515625 49.98102951049805 190.68812561035156 101.54403686523438 181.26878356933594 51.48784637451172" stroke-width="3.0" fill="none" stroke="rgb(0, 0, 0)" stroke-opacity="1.0" stroke-linecap="round" stroke-linejoin="round"/>
    <path d="M 150.48422241210938 98.6604232788086 C 161.78005981445312 100.3504409790039 174.0057373046875 108.66970825195312 185.30870056152344 115.44747161865234" stroke-width="3.0" fill="none" stroke="rgb(0, 0, 0)" stroke-opacity="1.0" stroke-linecap="round" stroke-linejoin="round"/>
    <path d="M 177.538818359375 16.840547561645508 C 173.32814025878906 44.97858428955078 173.9031982421875 28.400598526000977 162.98309326171875 37.585548400878906" stroke-width="3.0" fill="none" stroke="rgb(0, 0, 0)" stroke-opacity="1.0" stroke-linecap="round" stroke-linejoin="round"/>
    <path d="M 127.62838745117188 105.68601989746094 C 139.79830932617188 105.96532440185547 128.2055206298828 114.94967651367188 111.88713836669922 97.54908752441406" stroke-width="3.0" fill="none" stroke="rgb(0, 0, 0)" stroke-opacity="1.0" stroke-linecap="round" stroke-linejoin="round"/>
    <path d="M 54.457679748535156 116.04424285888672 C 54.678466796875 114.38436889648438 47.71017837524414 108.43434143066406 60.1501350402832 128.88101196289062" stroke-width="3.0" fill="none" stroke="rgb(0, 0, 0)" stroke-opacity="1.0" stroke-linecap="round" stroke-linejoin="round"/>
    <path d="M 121.65814971923828 75.59852600097656 C 123.81546783447266 50.21569061279297 116.71847534179688 52.51048278808594 120.8607406616211 33.21383285522461" stroke-width="3.0" fill="none" stroke="rgb(0, 0, 0)" stroke-opacity="1.0" stroke-linecap="round" stroke-linejoin="round"/>
    <path d="M 143.46339416503906 32.24459457397461 C 143.5961456298828 39.8539924621582 150.24996948242188 15.642045021057129 177.05381774902344 8.39435863494873" stroke-width="3.0" fill="none" stroke="rgb(0, 0, 0)" stroke-opacity="1.0" stroke-linecap="round" stroke-linejoin="round"/>
  </g>
</svg>
