<?xml version="1.0" ?>
<svg xmlns="http://www.w3.org/2000/svg" version="1.1" width="224" height="224">
  <defs/>
  <g>
    <path d="M 61.03351593017578 102.48371887207031 C 66.26689147949219 102.73737335205078 57.15678787231445 102.84314727783203 48.94835662841797 95.80471801757812" stroke-width="3.0" fill="none" stroke="rgb(0, 0, 0)" stroke-opacity="1.0" stroke-linecap="round" stroke-linejoin="round"/>
    <path d="M 183.49037170410156 125.24190521240234 C 176.17788696289062 118.98128509521484 178.9791259765625 120.69266510009766 183.89450073242188 127.62208557128906" stroke-width="3.0" fill="none" stroke="rgb(0, 0, 0)" stroke-opacity="1.0" stroke-linecap="round" stroke-linejoin="round"/>
    <path d="M 53.81626892089844 112.48794555664062 C 53.75926971435547 116.31888580322266 53.67613220214844 98.53093719482422 53.53752899169922 111.81166076660156" stroke-width="3.0" fill="none" stroke="rgb(0, 0, 0)" stroke-opacity="1.0" stroke-linecap="round" stroke-linejoin="round"/>
    <path d="M 178.61317443847656 98.45380401611328 C 160.9622802734375 109.51409149169922 166.73240661621094 93.02665710449219 184.2310791015625 115.16902160644531" stroke-width="3.0" fill="none" stroke="rgb(0, 0, 0)" stroke-opacity="1.0" stroke-linecap="round" stroke-linejoin="round"/>
    <path d="M 183.1401824951172 77.88725280761719 C 184.28868103027344 84.96876525878906 178.80178833007812 74.29875946044922 182.58554077148438 84.94247436523438" stroke-width="3.0" fill="none" stroke="rgb(0, 0, 0)" stroke-opacity="1.0" stroke-linecap="round" stroke-linejoin="round"/>
    <path d="M 129.5104522705078 101.81925201416016 C 120.0433120727539 110.72607421875 120.24034118652344 103.6437759399414 131.884521484375 105.09304809570312" stroke-width="3.0" fill="none" stroke="rgb(0, 0, 0)" stroke-opacity="1.0" stroke-linecap="round" stroke-linejoin="round"/>
    <path d="M 169.30323791503906 81.62515258789062 C 187.0720672607422 89.2755126953125 179.13064575195312 84.1582260131836 160.2484893798828 87.90618896484375" stroke-width="3.0" fill="none" stroke="rgb(0, 0, 0)" stroke-opacity="1.0" stroke-linecap="round" stroke-linejoin="round"/>
    <path d="M 56.86445236206055 176.5961456298828 C 54.387596130371094 164.2952423095703 50.3248291015625 181.1376953125 57.0544548034668 169.12069702148438" stroke-width="3.0" fill="none" stroke="rgb(0, 0, 0)" stroke-opacity="1.0" stroke-linecap="round" stroke-linejoin="round"/>
    <path d="M 75.46617126464844 184.7021026611328 C 81.18878936767578 189.3912811279297 90.11031341552734 192.00454711914062 83.5486831665039 186.71694946289062" stroke-width="3.0" fill="none" stroke="rgb(0, 0, 0)" stroke-opacity="1.0" stroke-linecap="round" stroke-linejoin="round"/>
    <path d="M 85.65104675292969 52.316585540771484 C 81.42504119873047 72.11155700683594 88.52986145019531 80.19337463378906 82.85743713378906 67.22008514404297" stroke-width="3.0" fill="none" stroke="rgb(0, 0, 0)" stroke-opacity="1.0" stroke-linecap="round" stroke-linejoin="round"/>
    <path d="M 67.13787078857422 140.4054718017578 C 73.48773956298828 151.44871520996094 76.95996856689453 149.86341857910156 76.53999328613281 151.96099853515625" stroke-width="3.0" fill="none" stroke="rgb(0, 0, 0)" stroke-opacity="1.0" stroke-linecap="round" stroke-linejoin="round"/>
    <path d="M 171.94557189941406 91.99201202392578 C 181.14772033691406 77.0408706665039 172.50686645507812 91.0641860961914 153.98489379882812 87.8470230102539" stroke-width="3.0" fill="none" stroke="rgb(0, 0, 0)" stroke-opacity="1.0" stroke-linecap="round" stroke-linejoin="round"/>
    <path d="M 156.8232421875 99.29398345947266 C 170.882568359375 103.90386962890625 161.24533081054688 100.63565063476562 172.46090698242188 100.34588623046875" stroke-width="3.0" fill="none" stroke="rgb(0, 0, 0)" stroke-opacity="1.0" stroke-linecap="round" stroke-linejoin="round"/>
    <path d="M 80.60108184814453 174.9799346923828 C 84.13420867919922 182.0753631591797 96.6275405883789 179.14425659179688 97.4771499633789 186.64256286621094" stroke-width="3.0" fill="none" stroke="rgb(0, 0, 0)" stroke-opacity="1.0" stroke-linecap="round" stroke-linejoin="round"/>
    <path d="M 174.31503295898438 10.92380142211914 C 182.21978759765625 -1.0215470790863037 184.11578369140625 26.10025978088379 175.68606567382812 52.74188232421875" stroke-width="3.0" fill="none" stroke="rgb(0, 0, 0)" stroke-opacity="1.0" stroke-linecap="round" stroke-linejoin="round"/>
    <path d="M 125.96817779541016 34.68152618408203 C 123.51421356201172 45.567691802978516 127.346923828125 41.78463363647461 127.30520629882812 53.27390670776367" stroke-width="3.0" fill="none" stroke="rgb(0, 0, 0)" stroke-opacity="1.0" stroke-linecap="round" stroke-linejoin="round"/>
    <path d="M 87.04499816894531 55.6889533996582 C 73.25922393798828 -14.798972129821777 89.41766357421875 -0.16897542774677277 95.8586196899414 44.9185791015625" stroke-width="3.0" fill="none" stroke="rgb(0, 0, 0)" stroke-opacity="1.0" stroke-linecap="round" stroke-linejoin="round"/>
    <path d="M 51.43058395385742 171.84669494628906 C 42.44179916381836 151.72152709960938 48.17203140258789 163.3750457763672 45.918548583984375 158.17391967773438" stroke-width="3.0" fill="none" stroke="rgb(0, 0, 0)" stroke-opacity="1.0" stroke-linecap="round" stroke-linejoin="round"/>
    <path d="M 45.9679069519043 138.81808471679688 C 49.65626907348633 136.35653686523438 39.492496490478516 145.69467163085938 41.670467376708984 142.5166015625" stroke-width="3.0" fill="none" stroke="rgb(0, 0, 0)" stroke-opacity="1.0" stroke-linecap="round" stroke-linejoin="round"/>
    <path d="M 73.60504150390625 168.7295379638672 C 76.82649993896484 164.79989624023438 74.9612045288086 165.2977294921875 75.37351989746094 164.46405029296875" stroke-width="3.0" fill="none" stroke="rgb(0, 0, 0)" stroke-opacity="1.0" stroke-linecap="round" stroke-linejoin="round"/>
    <path d="M 73.63764953613281 189.8468475341797 C 55.794952392578125 172.5001220703125 70.39217376708984 193.1349639892578 60.21165084838867 179.11180114746094" stroke-width="3.0" fill="none" stroke="rgb(0, 0, 0)" stroke-opacity="1.0" stroke-linecap="round" stroke-linejoin="round"/>
    <path d="M 45.62002944946289 162.1142120361328 C 48.73336410522461 164.25209045410156 36.764129638671875 151.49179077148438 39.813907623291016 156.20730590820312" stroke-width="3.0" fill="none" stroke="rgb(0, 0, 0)" stroke-opacity="1.0" stroke-linecap="round" stroke-linejoin="round"/>
    <path d="M 64.04907989501953 58.845733642578125 C 47.15099334716797 81.26893615722656 53.50006103515625 71.49256134033203 43.473045349121094 106.99197387695312" stroke-width="3.0" fill="none" stroke="rgb(0, 0, 0)" stroke-opacity="1.0" stroke-linecap="round" stroke-linejoin="round"/>
    <path d="M 147.36358642578125 156.17221069335938 C 126.07574462890625 155.28086853027344 129.51927185058594 150.2123565673828 143.06150817871094 161.27224731445312" stroke-width="3.0" fill="none" stroke="rgb(0, 0, 0)" stroke-opacity="1.0" stroke-linecap="round" stroke-linejoin="round"/>
    <path d="M 138.77755737304688 37.78607940673828 C 138.13278198242188 54.70599365234375 136.19137573242188 61.97689437866211 138.97854614257812 75.53723907470703" stroke-width="3.0" fill="none" stroke="rgb(0, 0, 0)" stroke-opacity="1.0" stroke-linecap="round" stroke-linejoin="round"/>
    <path d="M 147.27975463867188 102.80538940429688 C 130.3470458984375 108.26011657714844 115.8467788696289 106.75801849365234 123.95561981201172 110.2599868774414" stroke-width="3.0" fill="none" stroke="rgb(0, 0, 0)" stroke-opacity="1.0" stroke-linecap="round" stroke-linejoin="round"/>
    <path d="M 145.77288818359375 68.72837829589844 C 142.02867126464844 58.642276763916016 156.85507202148438 53.06547164916992 152.76675415039062 55.5118408203125" stroke-width="3.0" fill="none" stroke="rgb(0, 0, 0)" stroke-opacity="1.0" stroke-linecap="round" stroke-linejoin="round"/>
    <path d="M 108.5367431640625 188.0194091796875 C 90.2918701171875 176.00198364257812 79.7154769897461 188.56602478027344 131.6330108642578 182.62681579589844" stroke-width="3.0" fill="none" stroke="rgb(0, 0, 0)" stroke-opacity="1.0" stroke-linecap="round" stroke-linejoin="round"/>
    <path d="M 177.50135803222656 86.080322265625 C 174.22950744628906 79.6824722290039 174.4040985107422 95.27745056152344 178.47862243652344 87.74117279052734" stroke-width="3.0" fill="none" stroke="rgb(0, 0, 0)" stroke-opacity="1.0" stroke-linecap="round" stroke-linejoin="round"/>
    <path d="M 173.91200256347656 91.19705200195312 C 181.92172241210938 86.50202941894531 184.24209594726562 87.26810455322266 174.93948364257812 92.6552734375" stroke-width="3.0" fill="none" stroke="rgb(0, 0, 0)" stroke-opacity="1.0" stroke-linecap="round" stroke-linejoin="round"/>
    <path d="M 109.88903045654297 78.20748901367188 C 90.02146911621094 71.20345306396484 136.13145446777344 75.23695373535156 107.23759460449219 81.38636016845703" stroke-width="3.0" fill="none" stroke="rgb(0, 0, 0)" stroke-opacity="1.0" stroke-linecap="round" stroke-linejoin="round"/>
    <path d="M 130.72836303710938 157.47340393066406 C 123.71724700927734 150.93997192382812 130.00172424316406 154.2344512939453 128.46177673339844 156.7971649169922" stroke-width="3.0" fill="none" stroke="rgb(0, 0, 0)" stroke-opacity="1.0" stroke-linecap="round" stroke-linejoin="round"/>
    <path d="M 123.25130462646484 89.90467834472656 C 134.1282958984375 99.43933868408203 132.8136749267578 79.80281066894531 128.6585693359375 96.79130554199219" stroke-width="3.0" fill="none" stroke="rgb(0, 0, 0)" stroke-opacity="1.0" stroke-linecap="round" stroke-linejoin="round"/>
    <path d="M 179.8009796142578 101.28368377685547 C 179.2751007080078 87.43821716308594 183.92257690429688 100.24720764160156 150.59677124023438 95.28569793701172" stroke-width="3.0" fill="none" stroke="rgb(0, 0, 0)" stroke-opacity="1.0" stroke-linecap="round" stroke-linejoin="round"/>
    <path d="M 87.76116943359375 8.876386642456055 C 108.76760864257812 17.599451065063477 114.05757141113281 34.318016052246094 118.18360900878906 32.900657653808594" stroke-width="3.0" fill="none" stroke="rgb(0, 0, 0)" stroke-opacity="1.0" stroke-linecap="round" stroke-linejoin="round"/>
    <path d="M 53.547706604003906 111.40946197509766 C 51.492576599121094 111.36351776123047 66.02122497558594 117.22364044189453 53.5301513671875 112.0915298461914" stroke-width="3.0" fill="none" stroke="rgb(0, 0, 0)" stroke-opacity="1.0" stroke-linecap="round" stroke-linejoin="round"/>
    <path d="M 121.44112396240234 103.4593734741211 C 95.4865493774414 101.99720001220703 118.67375183105469 101.9193344116211 106.96488189697266 96.69735717773438" stroke-width="3.0" fill="none" stroke="rgb(0, 0, 0)" stroke-opacity="1.0" stroke-linecap="round" stroke-linejoin="round"/>
    <path d="M 38.10648727416992 122.2925796508789 C 41.770050048828125 96.73079681396484 46.19590377807617 103.13746643066406 40.90483856201172 112.17700958251953" stroke-width="3.0" fill="none" stroke="rgb(0, 0, 0)" stroke-opacity="1.0" stroke-linecap="round" stroke-linejoin="round"/>
    <path d="M 83.84684753417969 185.1538848876953 C 76.5964584350586 187.3872833251953 73.837158203125 191.51930236816406 84.15084075927734 183.85340881347656" stroke-width="3.0" fill="none" stroke="rgb(0, 0, 0)" stroke-opacity="1.0" stroke-linecap="round" stroke-linejoin="round"/>
    <path d="M 179.48780822753906 134.12274169921875 C 182.72848510742188 112.57603454589844 163.88803100585938 103.0882568359375 145.42263793945312 98.5062255859375" stroke-width="3.0" fill="none" stroke="rgb(0, 0, 0)" stroke-opacity="1.0" stroke-linecap="round" stroke-linejoin="round"/>
    <path d="M 144.6981658935547 77.48482513427734 C 150.87423706054688 75.4776840209961 138.82760620117188 95.3402328491211 150.68003845214844 78.63738250732422" stroke-width="3.0" fill="none" stroke="rgb(0, 0, 0)" stroke-opacity="1.0" stroke-linecap="round" stroke-linejoin="round"/>
    <path d="M 161.1053466796875 74.29084014892578 C 169.41712951660156 69.37434387207031 174.995361328125 76.6728515625 182.10914611816406 71.80724334716797" stroke-width="3.0" fill="none" stroke="rgb(0, 0, 0)" stroke-opacity="1.0" stroke-linecap="round" stroke-linejoin="round"/>
    <path d="M 152.71560668945312 103.93880462646484 C 155.56988525390625 106.75934600830078 159.5061492919922 108.55548095703125 164.2700958251953 120.2342529296875" stroke-width="3.0" fill="none" stroke="rgb(0, 0, 0)" stroke-opacity="1.0" stroke-linecap="round" stroke-linejoin="round"/>
    <path d="M 171.22177124023438 20.92142105102539 C 163.18814086914062 41.70310974121094 162.02151489257812 29.463899612426758 165.50865173339844 43.952693939208984" stroke-width="3.0" fill="none" stroke="rgb(0, 0, 0)" stroke-opacity="1.0" stroke-linecap="round" stroke-linejoin="round"/>
    <path d="M 120.04460144042969 109.72543334960938 C 154.0164031982422 109.9141616821289 121.62127685546875 97.60963439941406 113.81005096435547 107.74108123779297" stroke-width="3.0" fill="none" stroke="rgb(0, 0, 0)" stroke-opacity="1.0" stroke-linecap="round" stroke-linejoin="round"/>
    <path d="M 54.32540512084961 111.70500183105469 C 54.9622688293457 106.79439544677734 45.56802749633789 105.49685668945312 64.56633758544922 124.80757141113281" stroke-width="3.0" fill="none" stroke="rgb(0, 0, 0)" stroke-opacity="1.0" stroke-linecap="round" stroke-linejoin="round"/>
    <path d="M 121.10438537597656 80.3426742553711 C 126.80806732177734 57.947166442871094 117.5866928100586 53.31009292602539 118.8073959350586 50.7774772644043" stroke-width="3.0" fill="none" stroke="rgb(0, 0, 0)" stroke-opacity="1.0" stroke-linecap="round" stroke-linejoin="round"/>
    <path d="M 146.09619140625 32.534183502197266 C 158.96493530273438 27.47910499572754 153.60723876953125 20.093151092529297 177.14273071289062 8.06558895111084" stroke-width="3.0" fill="none" stroke="rgb(0, 0, 0)" stroke-opacity="1.0" stroke-linecap="round" stroke-linejoin="round"/>
  </g>
</svg>
