<?xml version="1.0" ?>
<svg xmlns="http://www.w3.org/2000/svg" version="1.1" width="224" height="224">
  <defs/>
  <g>
    <path d="M 61.62025451660156 90.41852569580078 C 77.08174896240234 77.45158386230469 61.60153579711914 80.14539337158203 79.61787414550781 57.1422233581543" stroke-width="3.0" fill="none" stroke="rgb(0, 0, 0)" stroke-opacity="1.0" stroke-linecap="round" stroke-linejoin="round"/>
    <path d="M 195.444091796875 114.99656677246094 C 181.27108764648438 103.97956085205078 195.8145294189453 100.96989440917969 178.0459747314453 127.9044418334961" stroke-width="3.0" fill="none" stroke="rgb(0, 0, 0)" stroke-opacity="1.0" stroke-linecap="round" stroke-linejoin="round"/>
    <path d="M 61.236263275146484 115.62117004394531 C 52.35374069213867 89.02705383300781 57.3525390625 114.19857025146484 61.160247802734375 108.84137725830078" stroke-width="3.0" fill="none" stroke="rgb(0, 0, 0)" stroke-opacity="1.0" stroke-linecap="round" stroke-linejoin="round"/>
    <path d="M 188.60166931152344 92.70874786376953 C 151.96958923339844 74.90013885498047 182.660400390625 77.09395599365234 190.60733032226562 97.48945617675781" stroke-width="3.0" fill="none" stroke="rgb(0, 0, 0)" stroke-opacity="1.0" stroke-linecap="round" stroke-linejoin="round"/>
    <path d="M 173.9191131591797 56.173370361328125 C 194.9073944091797 88.57880401611328 179.2721405029297 103.8400650024414 178.7838134765625 48.362525939941406" stroke-width="3.0" fill="none" stroke="rgb(0, 0, 0)" stroke-opacity="1.0" stroke-linecap="round" stroke-linejoin="round"/>
    <path d="M 130.6636199951172 97.19377899169922 C 155.33090209960938 107.09417724609375 96.53558349609375 99.22002410888672 135.4724884033203 100.72467803955078" stroke-width="3.0" fill="none" stroke="rgb(0, 0, 0)" stroke-opacity="1.0" stroke-linecap="round" stroke-linejoin="round"/>
    <path d="M 187.13076782226562 101.37905883789062 C 163.4060821533203 87.91514587402344 197.71823120117188 66.40399932861328 152.83279418945312 85.87043762207031" stroke-width="3.0" fill="none" stroke="rgb(0, 0, 0)" stroke-opacity="1.0" stroke-linecap="round" stroke-linejoin="round"/>
    <path d="M 63.53086471557617 189.5317840576172 C 43.24737548828125 167.99952697753906 45.84706497192383 170.22567749023438 64.85823059082031 189.95997619628906" stroke-width="3.0" fill="none" stroke="rgb(0, 0, 0)" stroke-opacity="1.0" stroke-linecap="round" stroke-linejoin="round"/>
    <path d="M 59.11103439331055 185.48233032226562 C 88.00597381591797 213.32135009765625 137.38636779785156 194.61431884765625 137.76673889160156 159.62611389160156" stroke-width="3.0" fill="none" stroke="rgb(0, 0, 0)" stroke-opacity="1.0" stroke-linecap="round" stroke-linejoin="round"/>
    <path d="M 82.34815216064453 13.664532661437988 C 93.53022766113281 67.84365844726562 86.37864685058594 11.487811088562012 83.02185821533203 50.673095703125" stroke-width="3.0" fill="none" stroke="rgb(0, 0, 0)" stroke-opacity="1.0" stroke-linecap="round" stroke-linejoin="round"/>
    <path d="M 62.562496185302734 90.66490173339844 C 47.237998962402344 121.57115936279297 78.17644500732422 126.54004669189453 60.533443450927734 117.0995864868164" stroke-width="3.0" fill="none" stroke="rgb(0, 0, 0)" stroke-opacity="1.0" stroke-linecap="round" stroke-linejoin="round"/>
    <path d="M 144.06309509277344 74.11727142333984 C 192.75753784179688 59.99592971801758 204.20606994628906 85.82691192626953 139.25448608398438 84.33940887451172" stroke-width="3.0" fill="none" stroke="rgb(0, 0, 0)" stroke-opacity="1.0" stroke-linecap="round" stroke-linejoin="round"/>
    <path d="M 151.80178833007812 94.68132781982422 C 190.01480102539062 98.031005859375 181.73097229003906 104.59910583496094 186.07301330566406 113.18724060058594" stroke-width="3.0" fill="none" stroke="rgb(0, 0, 0)" stroke-opacity="1.0" stroke-linecap="round" stroke-linejoin="round"/>
    <path d="M 133.9625701904297 152.6087646484375 C 178.3348846435547 155.3919219970703 93.58139038085938 143.75341796875 95.04069519042969 150.26527404785156" stroke-width="3.0" fill="none" stroke="rgb(0, 0, 0)" stroke-opacity="1.0" stroke-linecap="round" stroke-linejoin="round"/>
    <path d="M 178.81631469726562 9.393696784973145 C 190.4300537109375 18.747882843017578 164.0102081298828 91.0146713256836 179.84251403808594 59.75822067260742" stroke-width="3.0" fill="none" stroke="rgb(0, 0, 0)" stroke-opacity="1.0" stroke-linecap="round" stroke-linejoin="round"/>
    <path d="M 150.7491912841797 28.1868896484375 C 108.57664489746094 31.018814086914062 137.5821533203125 17.76000213623047 125.58463287353516 67.25773620605469" stroke-width="3.0" fill="none" stroke="rgb(0, 0, 0)" stroke-opacity="1.0" stroke-linecap="round" stroke-linejoin="round"/>
    <path d="M 106.80923461914062 49.5329475402832 C 60.5848388671875 -8.725260734558105 83.2953109741211 -0.8343256115913391 119.33642578125 32.51105880737305" stroke-width="3.0" fill="none" stroke="rgb(0, 0, 0)" stroke-opacity="1.0" stroke-linecap="round" stroke-linejoin="round"/>
    <path d="M 44.10219955444336 162.16357421875 C 44.45466613769531 158.73599243164062 39.70967102050781 158.4275665283203 51.64311218261719 181.78985595703125" stroke-width="3.0" fill="none" stroke="rgb(0, 0, 0)" stroke-opacity="1.0" stroke-linecap="round" stroke-linejoin="round"/>
    <path d="M 57.533058166503906 65.17922973632812 C 14.40900707244873 114.61985778808594 37.27462387084961 144.8350067138672 45.69862365722656 163.42799377441406" stroke-width="3.0" fill="none" stroke="rgb(0, 0, 0)" stroke-opacity="1.0" stroke-linecap="round" stroke-linejoin="round"/>
    <path d="M 72.06885528564453 135.24082946777344 C 144.0558319091797 167.49057006835938 117.5655517578125 147.48301696777344 87.56405639648438 144.82691955566406" stroke-width="3.0" fill="none" stroke="rgb(0, 0, 0)" stroke-opacity="1.0" stroke-linecap="round" stroke-linejoin="round"/>
    <path d="M 84.84513092041016 198.33078002929688 C 64.19922637939453 200.6605987548828 44.76636505126953 179.06442260742188 38.76200485229492 148.45664978027344" stroke-width="3.0" fill="none" stroke="rgb(0, 0, 0)" stroke-opacity="1.0" stroke-linecap="round" stroke-linejoin="round"/>
    <path d="M 46.45698928833008 174.02346801757812 C 73.87666320800781 197.1169891357422 49.703857421875 176.88087463378906 40.34232711791992 154.4915313720703" stroke-width="3.0" fill="none" stroke="rgb(0, 0, 0)" stroke-opacity="1.0" stroke-linecap="round" stroke-linejoin="round"/>
    <path d="M 81.76275634765625 53.9847526550293 C 60.37722396850586 56.44783020019531 59.26032638549805 63.41823959350586 34.27145767211914 107.16793823242188" stroke-width="3.0" fill="none" stroke="rgb(0, 0, 0)" stroke-opacity="1.0" stroke-linecap="round" stroke-linejoin="round"/>
    <path d="M 149.63047790527344 145.83644104003906 C 110.99610137939453 159.608642578125 62.61565017700195 148.84896850585938 145.90533447265625 148.0546417236328" stroke-width="3.0" fill="none" stroke="rgb(0, 0, 0)" stroke-opacity="1.0" stroke-linecap="round" stroke-linejoin="round"/>
    <path d="M 150.677490234375 28.43546485900879 C 143.6302947998047 38.25534439086914 138.96600341796875 13.055930137634277 136.00875854492188 75.09210968017578" stroke-width="3.0" fill="none" stroke="rgb(0, 0, 0)" stroke-opacity="1.0" stroke-linecap="round" stroke-linejoin="round"/>
    <path d="M 144.7045440673828 98.12747955322266 C 126.18297576904297 110.98589324951172 122.35211944580078 103.76675415039062 123.27338409423828 102.88928985595703" stroke-width="3.0" fill="none" stroke="rgb(0, 0, 0)" stroke-opacity="1.0" stroke-linecap="round" stroke-linejoin="round"/>
    <path d="M 135.95790100097656 72.91943359375 C 145.71112060546875 53.612606048583984 137.15931701660156 66.42529296875 136.48414611816406 69.55459594726562" stroke-width="3.0" fill="none" stroke="rgb(0, 0, 0)" stroke-opacity="1.0" stroke-linecap="round" stroke-linejoin="round"/>
    <path d="M 140.7821502685547 162.2515106201172 C 135.16766357421875 167.64894104003906 141.0570831298828 163.41244506835938 151.55360412597656 140.84323120117188" stroke-width="3.0" fill="none" stroke="rgb(0, 0, 0)" stroke-opacity="1.0" stroke-linecap="round" stroke-linejoin="round"/>
    <path d="M 193.5360107421875 95.53343200683594 C 155.76010131835938 75.03710174560547 189.37161254882812 60.30214309692383 178.63204956054688 96.86360168457031" stroke-width="3.0" fill="none" stroke="rgb(0, 0, 0)" stroke-opacity="1.0" stroke-linecap="round" stroke-linejoin="round"/>
    <path d="M 154.25086975097656 76.78917694091797 C 119.69426727294922 56.10974884033203 204.46719360351562 92.4777603149414 180.95436096191406 62.056182861328125" stroke-width="3.0" fill="none" stroke="rgb(0, 0, 0)" stroke-opacity="1.0" stroke-linecap="round" stroke-linejoin="round"/>
    <path d="M 114.75808715820312 82.07183837890625 C 85.97248840332031 74.15019226074219 137.3330841064453 74.14866638183594 109.21902465820312 81.7904052734375" stroke-width="3.0" fill="none" stroke="rgb(0, 0, 0)" stroke-opacity="1.0" stroke-linecap="round" stroke-linejoin="round"/>
    <path d="M 167.00108337402344 131.26255798339844 C 154.15310668945312 152.74887084960938 86.21131134033203 147.61203002929688 91.5666732788086 146.41844177246094" stroke-width="3.0" fill="none" stroke="rgb(0, 0, 0)" stroke-opacity="1.0" stroke-linecap="round" stroke-linejoin="round"/>
    <path d="M 124.52623748779297 88.49124908447266 C 142.7285614013672 96.9974365234375 128.86676025390625 72.12091064453125 130.11752319335938 105.67616271972656" stroke-width="3.0" fill="none" stroke="rgb(0, 0, 0)" stroke-opacity="1.0" stroke-linecap="round" stroke-linejoin="round"/>
    <path d="M 186.38267517089844 109.353759765625 C 172.67283630371094 87.91075134277344 170.27145385742188 93.15624237060547 140.71939086914062 82.16423797607422" stroke-width="3.0" fill="none" stroke="rgb(0, 0, 0)" stroke-opacity="1.0" stroke-linecap="round" stroke-linejoin="round"/>
    <path d="M 91.94352722167969 22.52882194519043 C 126.86410522460938 26.83134651184082 87.19898986816406 28.09621810913086 146.76541137695312 29.22629737854004" stroke-width="3.0" fill="none" stroke="rgb(0, 0, 0)" stroke-opacity="1.0" stroke-linecap="round" stroke-linejoin="round"/>
    <path d="M 57.22175598144531 107.9977798461914 C 55.95733642578125 92.59048461914062 51.404109954833984 113.85115051269531 73.98399353027344 136.1912384033203" stroke-width="3.0" fill="none" stroke="rgb(0, 0, 0)" stroke-opacity="1.0" stroke-linecap="round" stroke-linejoin="round"/>
    <path d="M 129.91697692871094 107.8262710571289 C 133.74673461914062 90.56739044189453 125.43883514404297 120.25125885009766 111.14505767822266 89.56307983398438" stroke-width="3.0" fill="none" stroke="rgb(0, 0, 0)" stroke-opacity="1.0" stroke-linecap="round" stroke-linejoin="round"/>
    <path d="M 40.86613082885742 150.29859924316406 C 20.373517990112305 120.31350708007812 40.548282623291016 67.44109344482422 68.70952606201172 58.17103576660156" stroke-width="3.0" fill="none" stroke="rgb(0, 0, 0)" stroke-opacity="1.0" stroke-linecap="round" stroke-linejoin="round"/>
    <path d="M 108.36785125732422 196.25967407226562 C 88.12583923339844 200.64385986328125 94.66175079345703 200.02606201171875 108.6143798828125 196.16722106933594" stroke-width="3.0" fill="none" stroke="rgb(0, 0, 0)" stroke-opacity="1.0" stroke-linecap="round" stroke-linejoin="round"/>
    <path d="M 169.48251342773438 128.87417602539062 C 199.0278778076172 114.99388122558594 192.99603271484375 88.56572723388672 155.42996215820312 86.62326049804688" stroke-width="3.0" fill="none" stroke="rgb(0, 0, 0)" stroke-opacity="1.0" stroke-linecap="round" stroke-linejoin="round"/>
    <path d="M 156.70237731933594 70.2744140625 C 130.16978454589844 79.90103149414062 167.4331512451172 83.23787689208984 153.47352600097656 72.78942108154297" stroke-width="3.0" fill="none" stroke="rgb(0, 0, 0)" stroke-opacity="1.0" stroke-linecap="round" stroke-linejoin="round"/>
    <path d="M 139.25912475585938 78.40048217773438 C 147.2841339111328 41.10248565673828 198.0126495361328 120.00011444091797 177.85008239746094 39.5416374206543" stroke-width="3.0" fill="none" stroke="rgb(0, 0, 0)" stroke-opacity="1.0" stroke-linecap="round" stroke-linejoin="round"/>
    <path d="M 155.1925506591797 95.48278045654297 C 174.02093505859375 104.186279296875 179.25228881835938 104.01313018798828 185.6432647705078 123.8060073852539" stroke-width="3.0" fill="none" stroke="rgb(0, 0, 0)" stroke-opacity="1.0" stroke-linecap="round" stroke-linejoin="round"/>
    <path d="M 178.02500915527344 14.666545867919922 C 172.64532470703125 40.04790115356445 177.6523895263672 15.138416290283203 159.83958435058594 37.002166748046875" stroke-width="3.0" fill="none" stroke="rgb(0, 0, 0)" stroke-opacity="1.0" stroke-linecap="round" stroke-linejoin="round"/>
    <path d="M 122.15159606933594 99.9952163696289 C 133.929443359375 92.35818481445312 126.98927307128906 113.68396759033203 135.08929443359375 101.2457504272461" stroke-width="3.0" fill="none" stroke="rgb(0, 0, 0)" stroke-opacity="1.0" stroke-linecap="round" stroke-linejoin="round"/>
    <path d="M 63.037940979003906 95.01084899902344 C 56.31983947753906 110.84600830078125 56.28142166137695 110.67306518554688 63.13457107543945 101.49565124511719" stroke-width="3.0" fill="none" stroke="rgb(0, 0, 0)" stroke-opacity="1.0" stroke-linecap="round" stroke-linejoin="round"/>
    <path d="M 122.08110809326172 76.00054931640625 C 125.7263412475586 43.546630859375 115.58501434326172 49.175506591796875 120.15325927734375 35.49557113647461" stroke-width="3.0" fill="none" stroke="rgb(0, 0, 0)" stroke-opacity="1.0" stroke-linecap="round" stroke-linejoin="round"/>
    <path d="M 140.7328338623047 29.5583438873291 C 144.37384033203125 44.611507415771484 153.50576782226562 11.563924789428711 178.09938049316406 6.651538372039795" stroke-width="3.0" fill="none" stroke="rgb(0, 0, 0)" stroke-opacity="1.0" stroke-linecap="round" stroke-linejoin="round"/>
  </g>
</svg>
