<?xml version="1.0" ?>
<svg xmlns="http://www.w3.org/2000/svg" version="1.1" width="224" height="224">
  <defs/>
  <g>
    <path d="M 60.31805419921875 98.92646789550781 C 65.3504867553711 98.405517578125 58.364295959472656 98.68913269042969 50.46110916137695 100.4303970336914" stroke-width="3.0" fill="none" stroke="rgb(0, 0, 0)" stroke-opacity="1.0" stroke-linecap="round" stroke-linejoin="round"/>
    <path d="M 181.4788055419922 130.70480346679688 C 174.0020751953125 122.08891296386719 175.8736114501953 123.42449188232422 180.97341918945312 129.43136596679688" stroke-width="3.0" fill="none" stroke="rgb(0, 0, 0)" stroke-opacity="1.0" stroke-linecap="round" stroke-linejoin="round"/>
    <path d="M 54.57792663574219 110.18797302246094 C 48.425941467285156 116.41593170166016 49.459991455078125 97.82426452636719 51.95775604248047 110.33848571777344" stroke-width="3.0" fill="none" stroke="rgb(0, 0, 0)" stroke-opacity="1.0" stroke-linecap="round" stroke-linejoin="round"/>
    <path d="M 177.17970275878906 97.33245849609375 C 163.82904052734375 111.41533660888672 164.40936279296875 96.52796173095703 185.7625274658203 116.15019226074219" stroke-width="3.0" fill="none" stroke="rgb(0, 0, 0)" stroke-opacity="1.0" stroke-linecap="round" stroke-linejoin="round"/>
    <path d="M 182.97866821289062 77.3237075805664 C 184.5972900390625 84.28395080566406 178.71661376953125 74.06803131103516 184.6269073486328 83.65858459472656" stroke-width="3.0" fill="none" stroke="rgb(0, 0, 0)" stroke-opacity="1.0" stroke-linecap="round" stroke-linejoin="round"/>
    <path d="M 127.44869232177734 104.1622543334961 C 121.07183074951172 111.80878448486328 121.37814331054688 104.11708068847656 125.16937255859375 108.30950927734375" stroke-width="3.0" fill="none" stroke="rgb(0, 0, 0)" stroke-opacity="1.0" stroke-linecap="round" stroke-linejoin="round"/>
    <path d="M 172.40914916992188 80.78363800048828 C 189.02073669433594 85.5917739868164 179.4847412109375 81.8204345703125 158.4603729248047 85.93161010742188" stroke-width="3.0" fill="none" stroke="rgb(0, 0, 0)" stroke-opacity="1.0" stroke-linecap="round" stroke-linejoin="round"/>
    <path d="M 56.28389358520508 176.6111602783203 C 55.28845977783203 161.85089111328125 51.045440673828125 180.5461883544922 58.88835525512695 166.5871124267578" stroke-width="3.0" fill="none" stroke="rgb(0, 0, 0)" stroke-opacity="1.0" stroke-linecap="round" stroke-linejoin="round"/>
    <path d="M 76.91128540039062 188.3388214111328 C 78.99470520019531 190.1898193359375 89.68785095214844 189.8368377685547 83.69586181640625 186.66529846191406" stroke-width="3.0" fill="none" stroke="rgb(0, 0, 0)" stroke-opacity="1.0" stroke-linecap="round" stroke-linejoin="round"/>
    <path d="M 83.95568084716797 54.32872772216797 C 79.68880462646484 71.64358520507812 87.08013916015625 84.25576782226562 79.5129623413086 65.1429672241211" stroke-width="3.0" fill="none" stroke="rgb(0, 0, 0)" stroke-opacity="1.0" stroke-linecap="round" stroke-linejoin="round"/>
    <path d="M 68.15972137451172 145.1092071533203 C 73.2293701171875 152.0050811767578 75.77902221679688 149.17420959472656 77.13285827636719 151.77586364746094" stroke-width="3.0" fill="none" stroke="rgb(0, 0, 0)" stroke-opacity="1.0" stroke-linecap="round" stroke-linejoin="round"/>
    <path d="M 171.9112548828125 90.65923309326172 C 181.7092742919922 80.53254699707031 175.99618530273438 92.0287094116211 152.08612060546875 88.32492065429688" stroke-width="3.0" fill="none" stroke="rgb(0, 0, 0)" stroke-opacity="1.0" stroke-linecap="round" stroke-linejoin="round"/>
    <path d="M 155.40916442871094 101.67374420166016 C 172.41749572753906 102.16607666015625 161.0502166748047 106.58850860595703 172.9033966064453 103.00825500488281" stroke-width="3.0" fill="none" stroke="rgb(0, 0, 0)" stroke-opacity="1.0" stroke-linecap="round" stroke-linejoin="round"/>
    <path d="M 82.8839111328125 175.58981323242188 C 86.71302032470703 179.6238555908203 96.12654876708984 181.35655212402344 98.87596893310547 186.7469482421875" stroke-width="3.0" fill="none" stroke="rgb(0, 0, 0)" stroke-opacity="1.0" stroke-linecap="round" stroke-linejoin="round"/>
    <path d="M 175.23521423339844 11.58395767211914 C 182.66868591308594 0.7510020136833191 184.8415985107422 27.569955825805664 175.67547607421875 51.24706268310547" stroke-width="3.0" fill="none" stroke="rgb(0, 0, 0)" stroke-opacity="1.0" stroke-linecap="round" stroke-linejoin="round"/>
    <path d="M 127.84613037109375 34.3797492980957 C 122.68926239013672 46.245826721191406 129.42808532714844 41.98722839355469 127.35140228271484 52.32073211669922" stroke-width="3.0" fill="none" stroke="rgb(0, 0, 0)" stroke-opacity="1.0" stroke-linecap="round" stroke-linejoin="round"/>
    <path d="M 84.5347671508789 55.25898361206055 C 74.54346466064453 -15.173198699951172 90.87664031982422 -1.3059254884719849 95.4270248413086 43.510902404785156" stroke-width="3.0" fill="none" stroke="rgb(0, 0, 0)" stroke-opacity="1.0" stroke-linecap="round" stroke-linejoin="round"/>
    <path d="M 51.0538215637207 169.39173889160156 C 47.83176803588867 151.0144805908203 48.61663818359375 163.0667266845703 46.71379470825195 157.58413696289062" stroke-width="3.0" fill="none" stroke="rgb(0, 0, 0)" stroke-opacity="1.0" stroke-linecap="round" stroke-linejoin="round"/>
    <path d="M 45.96299743652344 139.96792602539062 C 51.83755874633789 136.60861206054688 38.5207405090332 145.2547149658203 41.672515869140625 141.25234985351562" stroke-width="3.0" fill="none" stroke="rgb(0, 0, 0)" stroke-opacity="1.0" stroke-linecap="round" stroke-linejoin="round"/>
    <path d="M 71.91802978515625 165.01043701171875 C 75.67235565185547 163.2326202392578 75.08330535888672 162.57501220703125 73.54328918457031 163.8072509765625" stroke-width="3.0" fill="none" stroke="rgb(0, 0, 0)" stroke-opacity="1.0" stroke-linecap="round" stroke-linejoin="round"/>
    <path d="M 69.75780487060547 187.72869873046875 C 53.738040924072266 172.5008087158203 72.38631439208984 190.7192840576172 64.11406707763672 174.8233184814453" stroke-width="3.0" fill="none" stroke="rgb(0, 0, 0)" stroke-opacity="1.0" stroke-linecap="round" stroke-linejoin="round"/>
    <path d="M 46.22493362426758 160.34408569335938 C 50.640689849853516 160.5670166015625 37.850929260253906 150.40777587890625 43.331783294677734 155.9069366455078" stroke-width="3.0" fill="none" stroke="rgb(0, 0, 0)" stroke-opacity="1.0" stroke-linecap="round" stroke-linejoin="round"/>
    <path d="M 65.14893341064453 60.44978713989258 C 48.595497131347656 83.58954620361328 57.255516052246094 71.31997680664062 44.77985382080078 106.28428649902344" stroke-width="3.0" fill="none" stroke="rgb(0, 0, 0)" stroke-opacity="1.0" stroke-linecap="round" stroke-linejoin="round"/>
    <path d="M 146.83421325683594 156.997802734375 C 125.6971435546875 154.34695434570312 130.23109436035156 146.83935546875 140.9990692138672 159.81150817871094" stroke-width="3.0" fill="none" stroke="rgb(0, 0, 0)" stroke-opacity="1.0" stroke-linecap="round" stroke-linejoin="round"/>
    <path d="M 139.74725341796875 40.191200256347656 C 135.4357147216797 52.59775161743164 138.37896728515625 64.2838363647461 135.98411560058594 77.03456115722656" stroke-width="3.0" fill="none" stroke="rgb(0, 0, 0)" stroke-opacity="1.0" stroke-linecap="round" stroke-linejoin="round"/>
    <path d="M 144.49851989746094 104.4583969116211 C 132.92588806152344 111.57255554199219 116.98397827148438 109.43301391601562 122.08154296875 109.84273529052734" stroke-width="3.0" fill="none" stroke="rgb(0, 0, 0)" stroke-opacity="1.0" stroke-linecap="round" stroke-linejoin="round"/>
    <path d="M 146.18316650390625 68.10006713867188 C 141.37351989746094 57.60075759887695 156.61082458496094 53.46580505371094 152.99603271484375 53.82337951660156" stroke-width="3.0" fill="none" stroke="rgb(0, 0, 0)" stroke-opacity="1.0" stroke-linecap="round" stroke-linejoin="round"/>
    <path d="M 108.85517120361328 185.58465576171875 C 93.07300567626953 175.65032958984375 76.83313751220703 186.04669189453125 133.65118408203125 184.031494140625" stroke-width="3.0" fill="none" stroke="rgb(0, 0, 0)" stroke-opacity="1.0" stroke-linecap="round" stroke-linejoin="round"/>
    <path d="M 181.548583984375 86.8864974975586 C 178.1032257080078 79.22911071777344 175.87936401367188 96.11637115478516 177.95457458496094 87.48707580566406" stroke-width="3.0" fill="none" stroke="rgb(0, 0, 0)" stroke-opacity="1.0" stroke-linecap="round" stroke-linejoin="round"/>
    <path d="M 174.0988311767578 91.860595703125 C 180.32070922851562 88.58165740966797 182.23727416992188 88.68428039550781 175.04331970214844 94.04206085205078" stroke-width="3.0" fill="none" stroke="rgb(0, 0, 0)" stroke-opacity="1.0" stroke-linecap="round" stroke-linejoin="round"/>
    <path d="M 111.14289093017578 78.57825469970703 C 93.60926818847656 72.72300720214844 133.65866088867188 74.87632751464844 110.33480834960938 81.203125" stroke-width="3.0" fill="none" stroke="rgb(0, 0, 0)" stroke-opacity="1.0" stroke-linecap="round" stroke-linejoin="round"/>
    <path d="M 131.8817596435547 154.9032745361328 C 121.99374389648438 144.45713806152344 127.9775390625 151.106201171875 126.36186981201172 152.27976989746094" stroke-width="3.0" fill="none" stroke="rgb(0, 0, 0)" stroke-opacity="1.0" stroke-linecap="round" stroke-linejoin="round"/>
    <path d="M 123.6685791015625 89.08747863769531 C 144.619873046875 102.81969451904297 132.12315368652344 77.98004150390625 126.75465393066406 100.04470825195312" stroke-width="3.0" fill="none" stroke="rgb(0, 0, 0)" stroke-opacity="1.0" stroke-linecap="round" stroke-linejoin="round"/>
    <path d="M 176.61117553710938 103.40856170654297 C 176.34524536132812 88.37102508544922 182.02978515625 97.21185302734375 150.05055236816406 93.66448974609375" stroke-width="3.0" fill="none" stroke="rgb(0, 0, 0)" stroke-opacity="1.0" stroke-linecap="round" stroke-linejoin="round"/>
    <path d="M 88.25334930419922 9.210700035095215 C 105.8143310546875 19.009340286254883 113.18170166015625 34.62432098388672 120.05147552490234 34.26454162597656" stroke-width="3.0" fill="none" stroke="rgb(0, 0, 0)" stroke-opacity="1.0" stroke-linecap="round" stroke-linejoin="round"/>
    <path d="M 52.796844482421875 112.7978744506836 C 51.43342590332031 112.15864562988281 66.68708801269531 116.66136932373047 54.79273986816406 110.93936157226562" stroke-width="3.0" fill="none" stroke="rgb(0, 0, 0)" stroke-opacity="1.0" stroke-linecap="round" stroke-linejoin="round"/>
    <path d="M 119.85462951660156 105.67912292480469 C 99.70011901855469 101.61984252929688 121.68958282470703 102.16242980957031 105.29257202148438 98.93450927734375" stroke-width="3.0" fill="none" stroke="rgb(0, 0, 0)" stroke-opacity="1.0" stroke-linecap="round" stroke-linejoin="round"/>
    <path d="M 37.29725646972656 121.29058837890625 C 45.57548904418945 101.95146942138672 47.528411865234375 106.37293243408203 40.782962799072266 113.02057647705078" stroke-width="3.0" fill="none" stroke="rgb(0, 0, 0)" stroke-opacity="1.0" stroke-linecap="round" stroke-linejoin="round"/>
    <path d="M 82.57768249511719 183.08570861816406 C 77.76851654052734 188.63861083984375 74.46781158447266 190.728759765625 83.85551452636719 185.63243103027344" stroke-width="3.0" fill="none" stroke="rgb(0, 0, 0)" stroke-opacity="1.0" stroke-linecap="round" stroke-linejoin="round"/>
    <path d="M 175.99720764160156 130.72218322753906 C 172.39414978027344 120.4229507446289 161.7902374267578 102.86752319335938 146.89657592773438 101.74977111816406" stroke-width="3.0" fill="none" stroke="rgb(0, 0, 0)" stroke-opacity="1.0" stroke-linecap="round" stroke-linejoin="round"/>
    <path d="M 142.9613800048828 82.78672790527344 C 154.5126495361328 77.28087615966797 138.3297882080078 92.35794830322266 151.11776733398438 80.4813003540039" stroke-width="3.0" fill="none" stroke="rgb(0, 0, 0)" stroke-opacity="1.0" stroke-linecap="round" stroke-linejoin="round"/>
    <path d="M 160.56578063964844 69.18741607666016 C 168.8553009033203 69.95622253417969 176.04782104492188 75.58710479736328 182.4578857421875 72.71879577636719" stroke-width="3.0" fill="none" stroke="rgb(0, 0, 0)" stroke-opacity="1.0" stroke-linecap="round" stroke-linejoin="round"/>
    <path d="M 151.20700073242188 106.8902816772461 C 154.72781372070312 109.56268310546875 156.2007598876953 111.03412628173828 158.84933471679688 119.12322998046875" stroke-width="3.0" fill="none" stroke="rgb(0, 0, 0)" stroke-opacity="1.0" stroke-linecap="round" stroke-linejoin="round"/>
    <path d="M 171.9962615966797 23.012287139892578 C 164.4681396484375 40.618099212646484 162.68145751953125 31.148229598999023 168.0708770751953 45.646759033203125" stroke-width="3.0" fill="none" stroke="rgb(0, 0, 0)" stroke-opacity="1.0" stroke-linecap="round" stroke-linejoin="round"/>
    <path d="M 121.14897155761719 111.72290802001953 C 152.2593536376953 111.44188690185547 121.7379150390625 100.68143463134766 116.01020050048828 111.43760681152344" stroke-width="3.0" fill="none" stroke="rgb(0, 0, 0)" stroke-opacity="1.0" stroke-linecap="round" stroke-linejoin="round"/>
    <path d="M 52.47494888305664 110.9531478881836 C 53.500179290771484 105.82245635986328 43.794464111328125 106.82096862792969 62.68290328979492 124.84937286376953" stroke-width="3.0" fill="none" stroke="rgb(0, 0, 0)" stroke-opacity="1.0" stroke-linecap="round" stroke-linejoin="round"/>
    <path d="M 122.62007904052734 78.10283660888672 C 123.9495620727539 59.34075927734375 115.36866760253906 56.60829162597656 114.2103271484375 56.20408248901367" stroke-width="3.0" fill="none" stroke="rgb(0, 0, 0)" stroke-opacity="1.0" stroke-linecap="round" stroke-linejoin="round"/>
    <path d="M 147.3808135986328 34.2520866394043 C 159.02830505371094 26.560707092285156 153.24252319335938 20.197072982788086 176.63433837890625 8.274450302124023" stroke-width="3.0" fill="none" stroke="rgb(0, 0, 0)" stroke-opacity="1.0" stroke-linecap="round" stroke-linejoin="round"/>
  </g>
</svg>
