<?xml version="1.0" ?>
<svg xmlns="http://www.w3.org/2000/svg" version="1.1" width="224" height="224">
  <defs/>
  <g>
    <path d="M 53.813201904296875 115.6282730102539 C 57.977840423583984 116.20233917236328 45.250885009765625 104.70207977294922 46.11971664428711 85.56484985351562" stroke-width="3.0" fill="none" stroke="rgb(0, 0, 0)" stroke-opacity="1.0" stroke-linecap="round" stroke-linejoin="round"/>
    <path d="M 180.4608154296875 126.63353729248047 C 177.76214599609375 118.17536926269531 185.28541564941406 114.01020812988281 186.35052490234375 118.44857788085938" stroke-width="3.0" fill="none" stroke="rgb(0, 0, 0)" stroke-opacity="1.0" stroke-linecap="round" stroke-linejoin="round"/>
    <path d="M 53.878238677978516 115.41996765136719 C 54.02524185180664 106.97595977783203 47.823326110839844 107.25007629394531 56.44322967529297 120.31649017333984" stroke-width="3.0" fill="none" stroke="rgb(0, 0, 0)" stroke-opacity="1.0" stroke-linecap="round" stroke-linejoin="round"/>
    <path d="M 185.76307678222656 98.12380981445312 C 156.27737426757812 90.59457397460938 171.7217254638672 84.02288055419922 195.79476928710938 113.52098846435547" stroke-width="3.0" fill="none" stroke="rgb(0, 0, 0)" stroke-opacity="1.0" stroke-linecap="round" stroke-linejoin="round"/>
    <path d="M 174.8518524169922 75.01187133789062 C 178.17611694335938 97.20531463623047 181.38409423828125 94.31411743164062 183.0152587890625 65.64425659179688" stroke-width="3.0" fill="none" stroke="rgb(0, 0, 0)" stroke-opacity="1.0" stroke-linecap="round" stroke-linejoin="round"/>
    <path d="M 127.98731994628906 104.28746795654297 C 145.5301971435547 105.3811264038086 101.05757904052734 100.33385467529297 142.0742950439453 101.78620147705078" stroke-width="3.0" fill="none" stroke="rgb(0, 0, 0)" stroke-opacity="1.0" stroke-linecap="round" stroke-linejoin="round"/>
    <path d="M 174.95956420898438 101.9922103881836 C 193.8584442138672 78.68956756591797 173.60269165039062 74.5143814086914 159.0950927734375 86.48851013183594" stroke-width="3.0" fill="none" stroke="rgb(0, 0, 0)" stroke-opacity="1.0" stroke-linecap="round" stroke-linejoin="round"/>
    <path d="M 53.17976379394531 176.16055297851562 C 33.16170883178711 157.63827514648438 52.85805130004883 162.61978149414062 43.9752311706543 164.55621337890625" stroke-width="3.0" fill="none" stroke="rgb(0, 0, 0)" stroke-opacity="1.0" stroke-linecap="round" stroke-linejoin="round"/>
    <path d="M 65.03841400146484 190.2724151611328 C 85.68270874023438 205.77334594726562 109.26932525634766 197.50857543945312 117.11368560791016 192.67684936523438" stroke-width="3.0" fill="none" stroke="rgb(0, 0, 0)" stroke-opacity="1.0" stroke-linecap="round" stroke-linejoin="round"/>
    <path d="M 89.87393188476562 37.03856658935547 C 91.24758911132812 53.27941131591797 87.14115905761719 9.219118118286133 83.84947967529297 51.7677116394043" stroke-width="3.0" fill="none" stroke="rgb(0, 0, 0)" stroke-opacity="1.0" stroke-linecap="round" stroke-linejoin="round"/>
    <path d="M 58.92966842651367 127.12816619873047 C 64.34864044189453 139.05470275878906 95.19930267333984 145.71417236328125 95.0730209350586 153.8018035888672" stroke-width="3.0" fill="none" stroke="rgb(0, 0, 0)" stroke-opacity="1.0" stroke-linecap="round" stroke-linejoin="round"/>
    <path d="M 155.81130981445312 70.79441833496094 C 205.02322387695312 75.67463684082031 180.4247283935547 80.7569351196289 150.97813415527344 86.88996124267578" stroke-width="3.0" fill="none" stroke="rgb(0, 0, 0)" stroke-opacity="1.0" stroke-linecap="round" stroke-linejoin="round"/>
    <path d="M 146.5412139892578 98.28311920166016 C 172.4669189453125 104.67996215820312 175.677490234375 101.7733154296875 186.58975219726562 111.8614501953125" stroke-width="3.0" fill="none" stroke="rgb(0, 0, 0)" stroke-opacity="1.0" stroke-linecap="round" stroke-linejoin="round"/>
    <path d="M 103.20587158203125 159.22239685058594 C 143.09417724609375 145.4202880859375 111.22364807128906 159.60723876953125 113.68285369873047 159.81507873535156" stroke-width="3.0" fill="none" stroke="rgb(0, 0, 0)" stroke-opacity="1.0" stroke-linecap="round" stroke-linejoin="round"/>
    <path d="M 173.4840545654297 10.084466934204102 C 192.78038024902344 -0.13546325266361237 173.00611877441406 56.61448287963867 180.8603057861328 57.8441276550293" stroke-width="3.0" fill="none" stroke="rgb(0, 0, 0)" stroke-opacity="1.0" stroke-linecap="round" stroke-linejoin="round"/>
    <path d="M 128.67076110839844 32.13619613647461 C 125.12350463867188 56.437339782714844 133.74786376953125 39.16594314575195 128.43280029296875 68.17776489257812" stroke-width="3.0" fill="none" stroke="rgb(0, 0, 0)" stroke-opacity="1.0" stroke-linecap="round" stroke-linejoin="round"/>
    <path d="M 89.23751068115234 48.89307403564453 C 77.61536407470703 -6.958439350128174 84.1901626586914 -0.055218473076820374 104.35487365722656 39.833595275878906" stroke-width="3.0" fill="none" stroke="rgb(0, 0, 0)" stroke-opacity="1.0" stroke-linecap="round" stroke-linejoin="round"/>
    <path d="M 43.825714111328125 162.82627868652344 C 39.30398178100586 154.56378173828125 37.308570861816406 152.4639434814453 38.513580322265625 145.50152587890625" stroke-width="3.0" fill="none" stroke="rgb(0, 0, 0)" stroke-opacity="1.0" stroke-linecap="round" stroke-linejoin="round"/>
    <path d="M 33.65633010864258 108.09913635253906 C 26.1149959564209 130.32711791992188 35.24332809448242 143.72459411621094 41.84879684448242 155.62777709960938" stroke-width="3.0" fill="none" stroke="rgb(0, 0, 0)" stroke-opacity="1.0" stroke-linecap="round" stroke-linejoin="round"/>
    <path d="M 88.02571105957031 147.82261657714844 C 104.2551498413086 155.3736114501953 107.3006820678711 156.66494750976562 92.41532135009766 150.96229553222656" stroke-width="3.0" fill="none" stroke="rgb(0, 0, 0)" stroke-opacity="1.0" stroke-linecap="round" stroke-linejoin="round"/>
    <path d="M 74.07500457763672 196.56065368652344 C 54.53903579711914 183.84112548828125 58.86478042602539 184.7132110595703 47.94382095336914 172.41026306152344" stroke-width="3.0" fill="none" stroke="rgb(0, 0, 0)" stroke-opacity="1.0" stroke-linecap="round" stroke-linejoin="round"/>
    <path d="M 42.8314208984375 163.61456298828125 C 57.59761047363281 188.93128967285156 40.763729095458984 164.81185913085938 39.737510681152344 151.79432678222656" stroke-width="3.0" fill="none" stroke="rgb(0, 0, 0)" stroke-opacity="1.0" stroke-linecap="round" stroke-linejoin="round"/>
    <path d="M 80.15996551513672 54.94105911254883 C 57.48628234863281 56.299781799316406 48.33102035522461 75.38777923583984 33.81751251220703 108.63298034667969" stroke-width="3.0" fill="none" stroke="rgb(0, 0, 0)" stroke-opacity="1.0" stroke-linecap="round" stroke-linejoin="round"/>
    <path d="M 153.67813110351562 144.6092987060547 C 138.25161743164062 156.8777618408203 120.6899185180664 155.37265014648438 132.75283813476562 155.9901580810547" stroke-width="3.0" fill="none" stroke="rgb(0, 0, 0)" stroke-opacity="1.0" stroke-linecap="round" stroke-linejoin="round"/>
    <path d="M 136.1005096435547 32.97323226928711 C 144.44407653808594 70.11041259765625 131.81532287597656 51.49664306640625 142.54051208496094 77.32421875" stroke-width="3.0" fill="none" stroke="rgb(0, 0, 0)" stroke-opacity="1.0" stroke-linecap="round" stroke-linejoin="round"/>
    <path d="M 143.92471313476562 101.791748046875 C 123.01053619384766 106.1038818359375 119.86603546142578 115.16356658935547 140.9275360107422 104.51046752929688" stroke-width="3.0" fill="none" stroke="rgb(0, 0, 0)" stroke-opacity="1.0" stroke-linecap="round" stroke-linejoin="round"/>
    <path d="M 135.01478576660156 79.3482894897461 C 144.2211456298828 51.5198860168457 139.748046875 58.39507293701172 137.46652221679688 65.2281494140625" stroke-width="3.0" fill="none" stroke="rgb(0, 0, 0)" stroke-opacity="1.0" stroke-linecap="round" stroke-linejoin="round"/>
    <path d="M 128.23870849609375 184.17227172851562 C 102.4852523803711 198.69764709472656 135.7233428955078 194.57994079589844 144.68748474121094 156.75645446777344" stroke-width="3.0" fill="none" stroke="rgb(0, 0, 0)" stroke-opacity="1.0" stroke-linecap="round" stroke-linejoin="round"/>
    <path d="M 190.8471221923828 95.75218963623047 C 166.51568603515625 71.94995880126953 140.2482147216797 93.89448547363281 182.75567626953125 80.82283020019531" stroke-width="3.0" fill="none" stroke="rgb(0, 0, 0)" stroke-opacity="1.0" stroke-linecap="round" stroke-linejoin="round"/>
    <path d="M 144.8962860107422 78.33667755126953 C 193.49868774414062 62.5986213684082 192.5565948486328 78.68170166015625 168.6410369873047 71.06929016113281" stroke-width="3.0" fill="none" stroke="rgb(0, 0, 0)" stroke-opacity="1.0" stroke-linecap="round" stroke-linejoin="round"/>
    <path d="M 106.35914611816406 78.58888244628906 C 86.89517974853516 69.90303802490234 136.6214599609375 73.70181274414062 106.30345153808594 80.25370025634766" stroke-width="3.0" fill="none" stroke="rgb(0, 0, 0)" stroke-opacity="1.0" stroke-linecap="round" stroke-linejoin="round"/>
    <path d="M 148.9263153076172 148.6479949951172 C 146.6756134033203 158.5797576904297 127.5574722290039 153.20095825195312 108.00419616699219 159.454833984375" stroke-width="3.0" fill="none" stroke="rgb(0, 0, 0)" stroke-opacity="1.0" stroke-linecap="round" stroke-linejoin="round"/>
    <path d="M 125.53578186035156 91.79619598388672 C 142.06973266601562 101.57857513427734 131.27578735351562 74.72560119628906 129.9512176513672 103.2579116821289" stroke-width="3.0" fill="none" stroke="rgb(0, 0, 0)" stroke-opacity="1.0" stroke-linecap="round" stroke-linejoin="round"/>
    <path d="M 189.47776794433594 112.03553009033203 C 185.0999755859375 84.2308349609375 181.75946044921875 95.74325561523438 138.97064208984375 84.0468978881836" stroke-width="3.0" fill="none" stroke="rgb(0, 0, 0)" stroke-opacity="1.0" stroke-linecap="round" stroke-linejoin="round"/>
    <path d="M 86.13662719726562 9.581094741821289 C 109.2882308959961 17.948122024536133 115.61640167236328 33.61582565307617 122.27191925048828 31.110998153686523" stroke-width="3.0" fill="none" stroke="rgb(0, 0, 0)" stroke-opacity="1.0" stroke-linecap="round" stroke-linejoin="round"/>
    <path d="M 53.91758728027344 115.61766815185547 C 52.51068878173828 106.75890350341797 57.89293670654297 121.43887329101562 55.7332763671875 120.83673858642578" stroke-width="3.0" fill="none" stroke="rgb(0, 0, 0)" stroke-opacity="1.0" stroke-linecap="round" stroke-linejoin="round"/>
    <path d="M 113.07597351074219 98.71272277832031 C 108.82508850097656 85.63997650146484 120.144775390625 109.67188262939453 105.48014068603516 87.43155670166016" stroke-width="3.0" fill="none" stroke="rgb(0, 0, 0)" stroke-opacity="1.0" stroke-linecap="round" stroke-linejoin="round"/>
    <path d="M 30.859092712402344 132.4524383544922 C 27.639530181884766 114.75651550292969 36.162132263183594 103.3338851928711 31.145614624023438 116.39376831054688" stroke-width="3.0" fill="none" stroke="rgb(0, 0, 0)" stroke-opacity="1.0" stroke-linecap="round" stroke-linejoin="round"/>
    <path d="M 82.88728332519531 199.80104064941406 C 73.51185607910156 198.2631072998047 69.97919464111328 196.0431671142578 96.0680160522461 197.9851837158203" stroke-width="3.0" fill="none" stroke="rgb(0, 0, 0)" stroke-opacity="1.0" stroke-linecap="round" stroke-linejoin="round"/>
    <path d="M 152.8513641357422 142.90089416503906 C 207.96266174316406 111.20867156982422 179.50686645507812 97.3082046508789 149.9381866455078 92.10040283203125" stroke-width="3.0" fill="none" stroke="rgb(0, 0, 0)" stroke-opacity="1.0" stroke-linecap="round" stroke-linejoin="round"/>
    <path d="M 157.22323608398438 71.95751190185547 C 121.59391784667969 80.48331451416016 176.42843627929688 81.32447052001953 147.39126586914062 68.47286224365234" stroke-width="3.0" fill="none" stroke="rgb(0, 0, 0)" stroke-opacity="1.0" stroke-linecap="round" stroke-linejoin="round"/>
    <path d="M 145.96421813964844 75.46461486816406 C 146.32476806640625 48.327571868896484 191.09759521484375 105.88502502441406 180.74285888671875 52.428802490234375" stroke-width="3.0" fill="none" stroke="rgb(0, 0, 0)" stroke-opacity="1.0" stroke-linecap="round" stroke-linejoin="round"/>
    <path d="M 151.17564392089844 99.06974792480469 C 163.7632293701172 99.83503723144531 173.17308044433594 109.80813598632812 183.27523803710938 115.80167388916016" stroke-width="3.0" fill="none" stroke="rgb(0, 0, 0)" stroke-opacity="1.0" stroke-linecap="round" stroke-linejoin="round"/>
    <path d="M 179.29660034179688 15.238587379455566 C 173.66934204101562 47.12336349487305 175.4537811279297 26.929962158203125 162.86941528320312 39.41141891479492" stroke-width="3.0" fill="none" stroke="rgb(0, 0, 0)" stroke-opacity="1.0" stroke-linecap="round" stroke-linejoin="round"/>
    <path d="M 128.0937957763672 104.92826080322266 C 140.2240753173828 103.17144012451172 132.06729125976562 113.16886138916016 109.76498413085938 98.4654541015625" stroke-width="3.0" fill="none" stroke="rgb(0, 0, 0)" stroke-opacity="1.0" stroke-linecap="round" stroke-linejoin="round"/>
    <path d="M 54.06520462036133 114.1878433227539 C 57.379112243652344 113.35960388183594 48.8281364440918 108.36515045166016 60.162506103515625 128.39508056640625" stroke-width="3.0" fill="none" stroke="rgb(0, 0, 0)" stroke-opacity="1.0" stroke-linecap="round" stroke-linejoin="round"/>
    <path d="M 125.61246490478516 78.00745391845703 C 126.67642974853516 47.85319519042969 120.38398742675781 51.9496955871582 121.26529693603516 32.30624771118164" stroke-width="3.0" fill="none" stroke="rgb(0, 0, 0)" stroke-opacity="1.0" stroke-linecap="round" stroke-linejoin="round"/>
    <path d="M 142.98037719726562 34.52485656738281 C 145.06829833984375 41.34583282470703 150.39862060546875 17.057811737060547 178.04525756835938 7.798850059509277" stroke-width="3.0" fill="none" stroke="rgb(0, 0, 0)" stroke-opacity="1.0" stroke-linecap="round" stroke-linejoin="round"/>
  </g>
</svg>
