<?xml version="1.0" ?>
<svg xmlns="http://www.w3.org/2000/svg" version="1.1" width="224" height="224">
  <defs/>
  <g>
    <path d="M 66.92623138427734 78.54952239990234 C 66.3590316772461 77.00194549560547 68.75381469726562 82.2603759765625 64.52592468261719 70.34239959716797" stroke-width="3.0" fill="none" stroke="rgb(0, 0, 0)" stroke-opacity="1.0" stroke-linecap="round" stroke-linejoin="round"/>
    <path d="M 185.69503784179688 120.53450775146484 C 175.34979248046875 114.09889221191406 200.85421752929688 96.52398681640625 173.81846618652344 128.98593139648438" stroke-width="3.0" fill="none" stroke="rgb(0, 0, 0)" stroke-opacity="1.0" stroke-linecap="round" stroke-linejoin="round"/>
    <path d="M 61.52457809448242 122.49785614013672 C 61.434181213378906 108.38536834716797 58.12345504760742 122.73282623291016 68.58332824707031 127.2465591430664" stroke-width="3.0" fill="none" stroke="rgb(0, 0, 0)" stroke-opacity="1.0" stroke-linecap="round" stroke-linejoin="round"/>
    <path d="M 183.62754821777344 99.19795227050781 C 147.41384887695312 86.87644958496094 174.2955322265625 74.69129943847656 193.63980102539062 109.78884887695312" stroke-width="3.0" fill="none" stroke="rgb(0, 0, 0)" stroke-opacity="1.0" stroke-linecap="round" stroke-linejoin="round"/>
    <path d="M 182.86297607421875 65.01142883300781 C 186.41493225097656 119.13104248046875 178.80589294433594 107.09415435791016 178.94998168945312 75.35438537597656" stroke-width="3.0" fill="none" stroke="rgb(0, 0, 0)" stroke-opacity="1.0" stroke-linecap="round" stroke-linejoin="round"/>
    <path d="M 121.23869323730469 102.71028900146484 C 145.2733612060547 116.64583587646484 109.48949432373047 94.53590393066406 138.4529571533203 103.53424835205078" stroke-width="3.0" fill="none" stroke="rgb(0, 0, 0)" stroke-opacity="1.0" stroke-linecap="round" stroke-linejoin="round"/>
    <path d="M 168.7266387939453 92.6850814819336 C 193.1652069091797 87.93640899658203 178.8351287841797 70.03182983398438 155.50328063964844 85.7337646484375" stroke-width="3.0" fill="none" stroke="rgb(0, 0, 0)" stroke-opacity="1.0" stroke-linecap="round" stroke-linejoin="round"/>
    <path d="M 58.8700065612793 183.83238220214844 C 37.819889068603516 155.9243927001953 45.20214080810547 169.324951171875 49.03314208984375 174.27957153320312" stroke-width="3.0" fill="none" stroke="rgb(0, 0, 0)" stroke-opacity="1.0" stroke-linecap="round" stroke-linejoin="round"/>
    <path d="M 55.42510986328125 180.88992309570312 C 89.69927978515625 212.11630249023438 117.41207122802734 197.68370056152344 130.78109741210938 180.96510314941406" stroke-width="3.0" fill="none" stroke="rgb(0, 0, 0)" stroke-opacity="1.0" stroke-linecap="round" stroke-linejoin="round"/>
    <path d="M 85.39110565185547 27.700035095214844 C 97.30677032470703 76.45802307128906 84.77558898925781 10.506034851074219 84.3360824584961 60.08219528198242" stroke-width="3.0" fill="none" stroke="rgb(0, 0, 0)" stroke-opacity="1.0" stroke-linecap="round" stroke-linejoin="round"/>
    <path d="M 51.0156135559082 99.83616638183594 C 60.50766372680664 139.8802947998047 95.07719421386719 158.98309326171875 91.11298370361328 150.8515625" stroke-width="3.0" fill="none" stroke="rgb(0, 0, 0)" stroke-opacity="1.0" stroke-linecap="round" stroke-linejoin="round"/>
    <path d="M 148.53128051757812 70.2708969116211 C 204.76358032226562 65.8503646850586 189.5794219970703 84.14004516601562 143.83482360839844 85.4997787475586" stroke-width="3.0" fill="none" stroke="rgb(0, 0, 0)" stroke-opacity="1.0" stroke-linecap="round" stroke-linejoin="round"/>
    <path d="M 151.09423828125 94.36786651611328 C 193.27047729492188 104.70084381103516 175.32870483398438 110.01387786865234 196.13693237304688 114.11046600341797" stroke-width="3.0" fill="none" stroke="rgb(0, 0, 0)" stroke-opacity="1.0" stroke-linecap="round" stroke-linejoin="round"/>
    <path d="M 128.94569396972656 158.55746459960938 C 145.5521240234375 146.53448486328125 124.98361206054688 156.642578125 110.02732849121094 153.55758666992188" stroke-width="3.0" fill="none" stroke="rgb(0, 0, 0)" stroke-opacity="1.0" stroke-linecap="round" stroke-linejoin="round"/>
    <path d="M 178.3254852294922 9.272295951843262 C 187.03323364257812 23.73217010498047 175.99432373046875 65.13582611083984 180.0604705810547 51.45266342163086" stroke-width="3.0" fill="none" stroke="rgb(0, 0, 0)" stroke-opacity="1.0" stroke-linecap="round" stroke-linejoin="round"/>
    <path d="M 130.46823120117188 31.134410858154297 C 122.99877166748047 54.692420959472656 136.14280700683594 36.12892532348633 126.97518157958984 72.31483459472656" stroke-width="3.0" fill="none" stroke="rgb(0, 0, 0)" stroke-opacity="1.0" stroke-linecap="round" stroke-linejoin="round"/>
    <path d="M 88.88314056396484 52.04124450683594 C 78.39352416992188 -9.954599380493164 85.05287170410156 -2.5405702590942383 111.70042419433594 43.99919509887695" stroke-width="3.0" fill="none" stroke="rgb(0, 0, 0)" stroke-opacity="1.0" stroke-linecap="round" stroke-linejoin="round"/>
    <path d="M 47.76803207397461 169.6729278564453 C 39.48209762573242 153.57614135742188 35.100975036621094 145.90101623535156 44.60550308227539 164.60292053222656" stroke-width="3.0" fill="none" stroke="rgb(0, 0, 0)" stroke-opacity="1.0" stroke-linecap="round" stroke-linejoin="round"/>
    <path d="M 38.52115249633789 97.59614562988281 C 22.906190872192383 129.14833068847656 41.17182540893555 146.35604858398438 41.844783782958984 156.4511260986328" stroke-width="3.0" fill="none" stroke="rgb(0, 0, 0)" stroke-opacity="1.0" stroke-linecap="round" stroke-linejoin="round"/>
    <path d="M 84.70970153808594 149.45263671875 C 112.04731750488281 157.44078063964844 106.2447280883789 159.82005310058594 100.00132751464844 152.2234344482422" stroke-width="3.0" fill="none" stroke="rgb(0, 0, 0)" stroke-opacity="1.0" stroke-linecap="round" stroke-linejoin="round"/>
    <path d="M 83.10432434082031 197.99557495117188 C 69.89727783203125 201.11737060546875 49.64582061767578 177.19496154785156 47.22224807739258 172.3284912109375" stroke-width="3.0" fill="none" stroke="rgb(0, 0, 0)" stroke-opacity="1.0" stroke-linecap="round" stroke-linejoin="round"/>
    <path d="M 49.43169021606445 171.67221069335938 C 62.88339614868164 192.2034454345703 43.2701530456543 167.26486206054688 39.6860237121582 151.55186462402344" stroke-width="3.0" fill="none" stroke="rgb(0, 0, 0)" stroke-opacity="1.0" stroke-linecap="round" stroke-linejoin="round"/>
    <path d="M 80.8729248046875 53.47489547729492 C 63.69913864135742 61.25959014892578 45.11826705932617 71.25395965576172 32.67481231689453 106.89205932617188" stroke-width="3.0" fill="none" stroke="rgb(0, 0, 0)" stroke-opacity="1.0" stroke-linecap="round" stroke-linejoin="round"/>
    <path d="M 154.9275665283203 140.19284057617188 C 122.43680572509766 158.86187744140625 116.33744812011719 153.42286682128906 130.7907257080078 155.94129943847656" stroke-width="3.0" fill="none" stroke="rgb(0, 0, 0)" stroke-opacity="1.0" stroke-linecap="round" stroke-linejoin="round"/>
    <path d="M 141.93714904785156 32.505489349365234 C 150.0381317138672 52.220069885253906 139.2086181640625 45.666587829589844 136.96539306640625 79.74993133544922" stroke-width="3.0" fill="none" stroke="rgb(0, 0, 0)" stroke-opacity="1.0" stroke-linecap="round" stroke-linejoin="round"/>
    <path d="M 146.94937133789062 97.48750305175781 C 128.91236877441406 107.33394622802734 134.31834411621094 112.15444946289062 118.04373931884766 103.79297637939453" stroke-width="3.0" fill="none" stroke="rgb(0, 0, 0)" stroke-opacity="1.0" stroke-linecap="round" stroke-linejoin="round"/>
    <path d="M 134.53834533691406 71.41130065917969 C 146.3708038330078 52.89366149902344 133.07554626464844 60.35741424560547 135.3768768310547 76.87981414794922" stroke-width="3.0" fill="none" stroke="rgb(0, 0, 0)" stroke-opacity="1.0" stroke-linecap="round" stroke-linejoin="round"/>
    <path d="M 132.24107360839844 178.29833984375 C 129.98538208007812 183.92886352539062 135.31307983398438 179.14540100097656 144.40451049804688 146.01727294921875" stroke-width="3.0" fill="none" stroke="rgb(0, 0, 0)" stroke-opacity="1.0" stroke-linecap="round" stroke-linejoin="round"/>
    <path d="M 194.27757263183594 95.81294250488281 C 167.71829223632812 70.88760375976562 162.3235626220703 79.692138671875 187.34524536132812 90.72822570800781" stroke-width="3.0" fill="none" stroke="rgb(0, 0, 0)" stroke-opacity="1.0" stroke-linecap="round" stroke-linejoin="round"/>
    <path d="M 146.73715209960938 76.0803451538086 C 145.15847778320312 55.72361755371094 194.9563446044922 91.80635833740234 180.69593811035156 65.35160064697266" stroke-width="3.0" fill="none" stroke="rgb(0, 0, 0)" stroke-opacity="1.0" stroke-linecap="round" stroke-linejoin="round"/>
    <path d="M 111.48738861083984 78.93489074707031 C 80.13574981689453 73.30651092529297 150.40650939941406 72.76175689697266 105.04066467285156 82.36971282958984" stroke-width="3.0" fill="none" stroke="rgb(0, 0, 0)" stroke-opacity="1.0" stroke-linecap="round" stroke-linejoin="round"/>
    <path d="M 161.2666015625 132.04559326171875 C 128.7997283935547 166.38072204589844 124.81378936767578 153.55227661132812 104.60026550292969 157.71127319335938" stroke-width="3.0" fill="none" stroke="rgb(0, 0, 0)" stroke-opacity="1.0" stroke-linecap="round" stroke-linejoin="round"/>
    <path d="M 122.65607452392578 90.15404510498047 C 140.5254669189453 100.31534576416016 129.88307189941406 69.47103118896484 128.47647094726562 107.17677307128906" stroke-width="3.0" fill="none" stroke="rgb(0, 0, 0)" stroke-opacity="1.0" stroke-linecap="round" stroke-linejoin="round"/>
    <path d="M 190.18885803222656 110.58672332763672 C 174.34912109375 88.9544906616211 184.35739135742188 94.00096893310547 141.02268981933594 82.79421997070312" stroke-width="3.0" fill="none" stroke="rgb(0, 0, 0)" stroke-opacity="1.0" stroke-linecap="round" stroke-linejoin="round"/>
    <path d="M 89.72982025146484 10.627352714538574 C 104.57585906982422 13.006779670715332 117.09061431884766 36.822776794433594 122.41849517822266 31.865550994873047" stroke-width="3.0" fill="none" stroke="rgb(0, 0, 0)" stroke-opacity="1.0" stroke-linecap="round" stroke-linejoin="round"/>
    <path d="M 59.41596221923828 120.17161560058594 C 61.75109100341797 115.42467498779297 62.67217254638672 130.000244140625 63.22275924682617 123.69571685791016" stroke-width="3.0" fill="none" stroke="rgb(0, 0, 0)" stroke-opacity="1.0" stroke-linecap="round" stroke-linejoin="round"/>
    <path d="M 137.96131896972656 102.83963775634766 C 119.10661315917969 95.4622573852539 120.02045440673828 115.21541595458984 110.25778198242188 88.8284683227539" stroke-width="3.0" fill="none" stroke="rgb(0, 0, 0)" stroke-opacity="1.0" stroke-linecap="round" stroke-linejoin="round"/>
    <path d="M 32.61737060546875 130.9366912841797 C 25.85249137878418 97.3125228881836 41.07781982421875 99.8777084350586 51.90378952026367 75.34901428222656" stroke-width="3.0" fill="none" stroke="rgb(0, 0, 0)" stroke-opacity="1.0" stroke-linecap="round" stroke-linejoin="round"/>
    <path d="M 79.47901916503906 195.48260498046875 C 69.77796936035156 195.94065856933594 65.92889404296875 193.37461853027344 98.377685546875 198.24722290039062" stroke-width="3.0" fill="none" stroke="rgb(0, 0, 0)" stroke-opacity="1.0" stroke-linecap="round" stroke-linejoin="round"/>
    <path d="M 159.9998779296875 131.78721618652344 C 201.64376831054688 122.42706298828125 177.54017639160156 95.63983154296875 155.6175537109375 91.33309936523438" stroke-width="3.0" fill="none" stroke="rgb(0, 0, 0)" stroke-opacity="1.0" stroke-linecap="round" stroke-linejoin="round"/>
    <path d="M 158.64564514160156 70.40130615234375 C 133.1962890625 84.37602233886719 171.0500030517578 78.10027313232422 147.108154296875 72.6210708618164" stroke-width="3.0" fill="none" stroke="rgb(0, 0, 0)" stroke-opacity="1.0" stroke-linecap="round" stroke-linejoin="round"/>
    <path d="M 141.73634338378906 76.26589965820312 C 148.60264587402344 45.39497375488281 196.82943725585938 110.53459930419922 179.17254638671875 44.87551498413086" stroke-width="3.0" fill="none" stroke="rgb(0, 0, 0)" stroke-opacity="1.0" stroke-linecap="round" stroke-linejoin="round"/>
    <path d="M 158.79324340820312 97.67263793945312 C 169.8106231689453 106.61573791503906 170.07034301757812 102.20394897460938 180.70046997070312 124.18153381347656" stroke-width="3.0" fill="none" stroke="rgb(0, 0, 0)" stroke-opacity="1.0" stroke-linecap="round" stroke-linejoin="round"/>
    <path d="M 177.60125732421875 17.87096405029297 C 170.35629272460938 43.887386322021484 177.74603271484375 21.359310150146484 160.77651977539062 39.49962615966797" stroke-width="3.0" fill="none" stroke="rgb(0, 0, 0)" stroke-opacity="1.0" stroke-linecap="round" stroke-linejoin="round"/>
    <path d="M 120.22206115722656 102.78308868408203 C 144.7650146484375 104.10411071777344 137.9895477294922 109.88992309570312 120.08687591552734 102.95165252685547" stroke-width="3.0" fill="none" stroke="rgb(0, 0, 0)" stroke-opacity="1.0" stroke-linecap="round" stroke-linejoin="round"/>
    <path d="M 74.05865478515625 138.1648712158203 C 54.30525207519531 128.6274871826172 64.72044372558594 111.40528106689453 59.9213981628418 120.51216888427734" stroke-width="3.0" fill="none" stroke="rgb(0, 0, 0)" stroke-opacity="1.0" stroke-linecap="round" stroke-linejoin="round"/>
    <path d="M 124.75377655029297 74.68273162841797 C 127.55040740966797 35.80641555786133 116.902587890625 54.169715881347656 116.499755859375 35.349998474121094" stroke-width="3.0" fill="none" stroke="rgb(0, 0, 0)" stroke-opacity="1.0" stroke-linecap="round" stroke-linejoin="round"/>
    <path d="M 153.63211059570312 26.532848358154297 C 147.82571411132812 38.231781005859375 162.0710906982422 8.089198112487793 177.78848266601562 8.814336776733398" stroke-width="3.0" fill="none" stroke="rgb(0, 0, 0)" stroke-opacity="1.0" stroke-linecap="round" stroke-linejoin="round"/>
  </g>
</svg>
