<?xml version="1.0" ?>
<svg xmlns="http://www.w3.org/2000/svg" version="1.1" width="224" height="224">
  <defs/>
  <g>
    <path d="M 61.02848434448242 98.61231994628906 C 65.8189468383789 94.5324478149414 54.60218811035156 90.2582015991211 56.33900451660156 69.3250503540039" stroke-width="3.0" fill="none" stroke="rgb(0, 0, 0)" stroke-opacity="1.0" stroke-linecap="round" stroke-linejoin="round"/>
    <path d="M 191.24098205566406 113.63282012939453 C 185.5585479736328 113.68978881835938 194.59500122070312 86.15148162841797 184.10418701171875 122.31178283691406" stroke-width="3.0" fill="none" stroke="rgb(0, 0, 0)" stroke-opacity="1.0" stroke-linecap="round" stroke-linejoin="round"/>
    <path d="M 64.47673034667969 117.3131332397461 C 61.191856384277344 86.42961120605469 58.59536361694336 131.36376953125 66.43877410888672 128.15573120117188" stroke-width="3.0" fill="none" stroke="rgb(0, 0, 0)" stroke-opacity="1.0" stroke-linecap="round" stroke-linejoin="round"/>
    <path d="M 187.22454833984375 93.64225006103516 C 150.90406799316406 72.1114730834961 185.74224853515625 77.38362121582031 187.39614868164062 101.1557846069336" stroke-width="3.0" fill="none" stroke="rgb(0, 0, 0)" stroke-opacity="1.0" stroke-linecap="round" stroke-linejoin="round"/>
    <path d="M 176.34869384765625 55.724510192871094 C 194.2247314453125 89.72506713867188 180.9390869140625 93.60359191894531 180.96617126464844 69.65355682373047" stroke-width="3.0" fill="none" stroke="rgb(0, 0, 0)" stroke-opacity="1.0" stroke-linecap="round" stroke-linejoin="round"/>
    <path d="M 130.98228454589844 100.62916564941406 C 152.73983764648438 115.19535827636719 94.82344055175781 104.13890075683594 133.70101928710938 104.31317138671875" stroke-width="3.0" fill="none" stroke="rgb(0, 0, 0)" stroke-opacity="1.0" stroke-linecap="round" stroke-linejoin="round"/>
    <path d="M 180.29393005371094 87.09916687011719 C 179.8623809814453 75.16122436523438 196.1090087890625 73.53301239013672 148.7435760498047 85.1936264038086" stroke-width="3.0" fill="none" stroke="rgb(0, 0, 0)" stroke-opacity="1.0" stroke-linecap="round" stroke-linejoin="round"/>
    <path d="M 66.6077880859375 192.0212860107422 C 38.06050109863281 167.6961212158203 50.05463409423828 170.65365600585938 50.90109634399414 174.01930236816406" stroke-width="3.0" fill="none" stroke="rgb(0, 0, 0)" stroke-opacity="1.0" stroke-linecap="round" stroke-linejoin="round"/>
    <path d="M 58.570579528808594 184.90933227539062 C 87.2738265991211 213.9532012939453 129.1074676513672 197.76210021972656 135.00819396972656 166.8280029296875" stroke-width="3.0" fill="none" stroke="rgb(0, 0, 0)" stroke-opacity="1.0" stroke-linecap="round" stroke-linejoin="round"/>
    <path d="M 80.30564880371094 16.764232635498047 C 94.41596221923828 75.95249938964844 86.38377380371094 8.966697692871094 87.2110595703125 55.021419525146484" stroke-width="3.0" fill="none" stroke="rgb(0, 0, 0)" stroke-opacity="1.0" stroke-linecap="round" stroke-linejoin="round"/>
    <path d="M 59.76829528808594 83.00627136230469 C 60.90857696533203 139.12611389160156 72.29336547851562 135.6623992919922 62.702823638916016 120.5939712524414" stroke-width="3.0" fill="none" stroke="rgb(0, 0, 0)" stroke-opacity="1.0" stroke-linecap="round" stroke-linejoin="round"/>
    <path d="M 147.4405517578125 72.4100112915039 C 199.2960662841797 62.268165588378906 194.2220001220703 88.28005981445312 139.66419982910156 84.2405014038086" stroke-width="3.0" fill="none" stroke="rgb(0, 0, 0)" stroke-opacity="1.0" stroke-linecap="round" stroke-linejoin="round"/>
    <path d="M 149.05722045898438 92.63336944580078 C 181.51100158691406 96.34773254394531 182.22610473632812 94.42412567138672 195.9594268798828 112.81895446777344" stroke-width="3.0" fill="none" stroke="rgb(0, 0, 0)" stroke-opacity="1.0" stroke-linecap="round" stroke-linejoin="round"/>
    <path d="M 117.36629486083984 148.00389099121094 C 156.30471801757812 156.59979248046875 101.57390594482422 147.00733947753906 104.77757263183594 153.50076293945312" stroke-width="3.0" fill="none" stroke="rgb(0, 0, 0)" stroke-opacity="1.0" stroke-linecap="round" stroke-linejoin="round"/>
    <path d="M 179.24740600585938 10.309409141540527 C 186.4734344482422 26.32893180847168 169.43516540527344 94.6593246459961 182.898681640625 59.95343017578125" stroke-width="3.0" fill="none" stroke="rgb(0, 0, 0)" stroke-opacity="1.0" stroke-linecap="round" stroke-linejoin="round"/>
    <path d="M 139.8727569580078 32.59701919555664 C 107.1198501586914 22.319808959960938 138.0347900390625 46.06099319458008 122.60932159423828 83.76950073242188" stroke-width="3.0" fill="none" stroke="rgb(0, 0, 0)" stroke-opacity="1.0" stroke-linecap="round" stroke-linejoin="round"/>
    <path d="M 103.75920867919922 49.092037200927734 C 56.98737335205078 -7.693361282348633 79.81428527832031 -1.8291652202606201 119.9345703125 32.908931732177734" stroke-width="3.0" fill="none" stroke="rgb(0, 0, 0)" stroke-opacity="1.0" stroke-linecap="round" stroke-linejoin="round"/>
    <path d="M 47.02888107299805 170.301025390625 C 41.42207336425781 160.79212951660156 41.32981491088867 152.39556884765625 49.27457046508789 171.04640197753906" stroke-width="3.0" fill="none" stroke="rgb(0, 0, 0)" stroke-opacity="1.0" stroke-linecap="round" stroke-linejoin="round"/>
    <path d="M 51.66261672973633 76.35134887695312 C 12.951115608215332 122.91881561279297 37.736328125 140.20254516601562 45.84761047363281 169.1094512939453" stroke-width="3.0" fill="none" stroke="rgb(0, 0, 0)" stroke-opacity="1.0" stroke-linecap="round" stroke-linejoin="round"/>
    <path d="M 69.50316619873047 132.07394409179688 C 129.41744995117188 159.61460876464844 96.29943084716797 148.94723510742188 85.66036987304688 140.4029998779297" stroke-width="3.0" fill="none" stroke="rgb(0, 0, 0)" stroke-opacity="1.0" stroke-linecap="round" stroke-linejoin="round"/>
    <path d="M 83.80384826660156 200.1984405517578 C 69.36972045898438 202.3013916015625 46.92323303222656 176.0054168701172 46.93655014038086 167.6213836669922" stroke-width="3.0" fill="none" stroke="rgb(0, 0, 0)" stroke-opacity="1.0" stroke-linecap="round" stroke-linejoin="round"/>
    <path d="M 48.709529876708984 170.8113555908203 C 67.4735107421875 196.99624633789062 47.02694320678711 173.04632568359375 41.22997283935547 154.8174591064453" stroke-width="3.0" fill="none" stroke="rgb(0, 0, 0)" stroke-opacity="1.0" stroke-linecap="round" stroke-linejoin="round"/>
    <path d="M 82.46206665039062 52.875980377197266 C 55.66886520385742 58.97319793701172 55.71403884887695 73.23613739013672 33.05208206176758 108.40463256835938" stroke-width="3.0" fill="none" stroke="rgb(0, 0, 0)" stroke-opacity="1.0" stroke-linecap="round" stroke-linejoin="round"/>
    <path d="M 158.15187072753906 139.47824096679688 C 101.35069274902344 154.08462524414062 87.26665496826172 158.722412109375 150.8798065185547 144.33543395996094" stroke-width="3.0" fill="none" stroke="rgb(0, 0, 0)" stroke-opacity="1.0" stroke-linecap="round" stroke-linejoin="round"/>
    <path d="M 150.01254272460938 28.280609130859375 C 146.65736389160156 32.24604415893555 132.22421264648438 14.446012496948242 138.13787841796875 80.86589813232422" stroke-width="3.0" fill="none" stroke="rgb(0, 0, 0)" stroke-opacity="1.0" stroke-linecap="round" stroke-linejoin="round"/>
    <path d="M 143.85536193847656 102.20390319824219 C 126.20551300048828 113.81929016113281 120.46742248535156 105.26414489746094 111.66696166992188 95.2286148071289" stroke-width="3.0" fill="none" stroke="rgb(0, 0, 0)" stroke-opacity="1.0" stroke-linecap="round" stroke-linejoin="round"/>
    <path d="M 138.93136596679688 71.8283920288086 C 139.1146240234375 46.66748809814453 131.2974090576172 68.54796600341797 137.834228515625 76.40182495117188" stroke-width="3.0" fill="none" stroke="rgb(0, 0, 0)" stroke-opacity="1.0" stroke-linecap="round" stroke-linejoin="round"/>
    <path d="M 138.63748168945312 161.35955810546875 C 125.85676574707031 177.8951873779297 143.0335693359375 169.12142944335938 145.26824951171875 144.92379760742188" stroke-width="3.0" fill="none" stroke="rgb(0, 0, 0)" stroke-opacity="1.0" stroke-linecap="round" stroke-linejoin="round"/>
    <path d="M 196.70248413085938 96.87945556640625 C 161.4435577392578 72.88555908203125 165.3750457763672 78.4639663696289 186.38217163085938 89.57445526123047" stroke-width="3.0" fill="none" stroke="rgb(0, 0, 0)" stroke-opacity="1.0" stroke-linecap="round" stroke-linejoin="round"/>
    <path d="M 154.77952575683594 75.67265319824219 C 130.38070678710938 54.31092071533203 199.554443359375 92.53826904296875 181.4481201171875 60.082481384277344" stroke-width="3.0" fill="none" stroke="rgb(0, 0, 0)" stroke-opacity="1.0" stroke-linecap="round" stroke-linejoin="round"/>
    <path d="M 117.49357604980469 80.68521118164062 C 86.25912475585938 69.18666076660156 139.31301879882812 72.6253890991211 107.48310089111328 77.88693237304688" stroke-width="3.0" fill="none" stroke="rgb(0, 0, 0)" stroke-opacity="1.0" stroke-linecap="round" stroke-linejoin="round"/>
    <path d="M 170.10052490234375 129.74859619140625 C 142.0327911376953 159.31265258789062 102.38269805908203 147.7374267578125 99.51084899902344 150.68382263183594" stroke-width="3.0" fill="none" stroke="rgb(0, 0, 0)" stroke-opacity="1.0" stroke-linecap="round" stroke-linejoin="round"/>
    <path d="M 121.72860717773438 89.6209487915039 C 139.506591796875 100.06431579589844 130.02798461914062 68.98529052734375 126.16954803466797 105.15435791015625" stroke-width="3.0" fill="none" stroke="rgb(0, 0, 0)" stroke-opacity="1.0" stroke-linecap="round" stroke-linejoin="round"/>
    <path d="M 189.7803497314453 108.53812408447266 C 156.5823211669922 89.20318603515625 169.91603088378906 96.73815155029297 144.80462646484375 87.04293823242188" stroke-width="3.0" fill="none" stroke="rgb(0, 0, 0)" stroke-opacity="1.0" stroke-linecap="round" stroke-linejoin="round"/>
    <path d="M 85.06334686279297 19.00358009338379 C 123.04399871826172 29.845458984375 92.40567779541016 32.54630661010742 140.40145874023438 30.12436866760254" stroke-width="3.0" fill="none" stroke="rgb(0, 0, 0)" stroke-opacity="1.0" stroke-linecap="round" stroke-linejoin="round"/>
    <path d="M 63.71162414550781 116.85929870605469 C 64.76525115966797 108.20696258544922 58.429893493652344 125.53681945800781 67.9604721069336 129.7591094970703" stroke-width="3.0" fill="none" stroke="rgb(0, 0, 0)" stroke-opacity="1.0" stroke-linecap="round" stroke-linejoin="round"/>
    <path d="M 137.52284240722656 105.36415100097656 C 116.0042724609375 92.4722900390625 120.33464050292969 121.48258972167969 108.22853088378906 87.44992065429688" stroke-width="3.0" fill="none" stroke="rgb(0, 0, 0)" stroke-opacity="1.0" stroke-linecap="round" stroke-linejoin="round"/>
    <path d="M 32.7894287109375 135.42002868652344 C 28.489316940307617 123.1610336303711 34.42094421386719 84.46610260009766 59.93136215209961 64.77789306640625" stroke-width="3.0" fill="none" stroke="rgb(0, 0, 0)" stroke-opacity="1.0" stroke-linecap="round" stroke-linejoin="round"/>
    <path d="M 108.884033203125 197.01882934570312 C 73.47272491455078 199.84762573242188 75.61597442626953 196.55702209472656 103.20365905761719 198.20835876464844" stroke-width="3.0" fill="none" stroke="rgb(0, 0, 0)" stroke-opacity="1.0" stroke-linecap="round" stroke-linejoin="round"/>
    <path d="M 168.88475036621094 127.14110565185547 C 205.4940948486328 114.33460998535156 188.46316528320312 87.62230682373047 156.73667907714844 87.0554428100586" stroke-width="3.0" fill="none" stroke="rgb(0, 0, 0)" stroke-opacity="1.0" stroke-linecap="round" stroke-linejoin="round"/>
    <path d="M 151.32530212402344 66.37547302246094 C 133.41786193847656 83.44428253173828 171.412841796875 73.91399383544922 148.0926971435547 69.74048614501953" stroke-width="3.0" fill="none" stroke="rgb(0, 0, 0)" stroke-opacity="1.0" stroke-linecap="round" stroke-linejoin="round"/>
    <path d="M 142.58749389648438 76.7944107055664 C 146.6119842529297 38.08853530883789 193.6713104248047 110.82196807861328 179.4750213623047 41.592769622802734" stroke-width="3.0" fill="none" stroke="rgb(0, 0, 0)" stroke-opacity="1.0" stroke-linecap="round" stroke-linejoin="round"/>
    <path d="M 149.98489379882812 99.18309783935547 C 170.47254943847656 104.7315902709961 174.50267028808594 100.31327819824219 183.33883666992188 118.25108337402344" stroke-width="3.0" fill="none" stroke="rgb(0, 0, 0)" stroke-opacity="1.0" stroke-linecap="round" stroke-linejoin="round"/>
    <path d="M 177.19992065429688 15.988176345825195 C 169.3398895263672 42.838687896728516 167.23861694335938 25.55194854736328 155.7840118408203 38.298030853271484" stroke-width="3.0" fill="none" stroke="rgb(0, 0, 0)" stroke-opacity="1.0" stroke-linecap="round" stroke-linejoin="round"/>
    <path d="M 120.40797424316406 105.43966674804688 C 143.5036163330078 105.17781066894531 130.85302734375 115.64891052246094 119.57997131347656 106.03987121582031" stroke-width="3.0" fill="none" stroke="rgb(0, 0, 0)" stroke-opacity="1.0" stroke-linecap="round" stroke-linejoin="round"/>
    <path d="M 65.72450256347656 119.01409149169922 C 57.440040588378906 113.60235595703125 63.765159606933594 108.648681640625 62.98222351074219 119.19139862060547" stroke-width="3.0" fill="none" stroke="rgb(0, 0, 0)" stroke-opacity="1.0" stroke-linecap="round" stroke-linejoin="round"/>
    <path d="M 123.42520141601562 75.70217895507812 C 120.54737091064453 36.49991226196289 112.00296783447266 58.1995735168457 117.54037475585938 32.937110900878906" stroke-width="3.0" fill="none" stroke="rgb(0, 0, 0)" stroke-opacity="1.0" stroke-linecap="round" stroke-linejoin="round"/>
    <path d="M 151.48268127441406 26.854089736938477 C 144.9545135498047 35.50679016113281 164.8743133544922 8.376936912536621 177.36489868164062 8.300125122070312" stroke-width="3.0" fill="none" stroke="rgb(0, 0, 0)" stroke-opacity="1.0" stroke-linecap="round" stroke-linejoin="round"/>
  </g>
</svg>
