<?xml version="1.0" ?>
<svg xmlns="http://www.w3.org/2000/svg" version="1.1" width="224" height="224">
  <defs/>
  <g>
    <path d="M 67.1329116821289 88.61564636230469 C 66.5638427734375 89.01997375488281 72.10791015625 91.71903228759766 52.53599166870117 78.12652587890625" stroke-width="3.0" fill="none" stroke="rgb(0, 0, 0)" stroke-opacity="1.0" stroke-linecap="round" stroke-linejoin="round"/>
    <path d="M 183.80064392089844 123.78577423095703 C 177.75347900390625 111.06009674072266 200.29275512695312 89.05850982666016 175.51129150390625 129.48770141601562" stroke-width="3.0" fill="none" stroke="rgb(0, 0, 0)" stroke-opacity="1.0" stroke-linecap="round" stroke-linejoin="round"/>
    <path d="M 58.3292236328125 111.4088134765625 C 54.667076110839844 107.52751159667969 58.02185821533203 123.37477111816406 68.65371704101562 132.40176391601562" stroke-width="3.0" fill="none" stroke="rgb(0, 0, 0)" stroke-opacity="1.0" stroke-linecap="round" stroke-linejoin="round"/>
    <path d="M 185.71908569335938 92.21199035644531 C 139.3416290283203 88.08399200439453 175.26979064941406 80.56432342529297 189.75381469726562 106.71309661865234" stroke-width="3.0" fill="none" stroke="rgb(0, 0, 0)" stroke-opacity="1.0" stroke-linecap="round" stroke-linejoin="round"/>
    <path d="M 183.21603393554688 68.76361846923828 C 190.39816284179688 112.06637573242188 190.4146728515625 99.9091567993164 186.24737548828125 73.25569915771484" stroke-width="3.0" fill="none" stroke="rgb(0, 0, 0)" stroke-opacity="1.0" stroke-linecap="round" stroke-linejoin="round"/>
    <path d="M 126.75556945800781 104.79303741455078 C 147.252685546875 112.32561492919922 108.26033782958984 92.92893981933594 136.75987243652344 102.56307220458984" stroke-width="3.0" fill="none" stroke="rgb(0, 0, 0)" stroke-opacity="1.0" stroke-linecap="round" stroke-linejoin="round"/>
    <path d="M 175.14112854003906 83.6522445678711 C 195.84701538085938 87.35580444335938 186.4329376220703 71.62970733642578 149.0169219970703 86.36090087890625" stroke-width="3.0" fill="none" stroke="rgb(0, 0, 0)" stroke-opacity="1.0" stroke-linecap="round" stroke-linejoin="round"/>
    <path d="M 64.45117950439453 190.45550537109375 C 35.54816436767578 162.9850616455078 51.17798614501953 166.04229736328125 49.154544830322266 173.91075134277344" stroke-width="3.0" fill="none" stroke="rgb(0, 0, 0)" stroke-opacity="1.0" stroke-linecap="round" stroke-linejoin="round"/>
    <path d="M 54.89168930053711 181.34263610839844 C 91.91410827636719 211.2010955810547 121.81553649902344 197.79522705078125 131.34661865234375 175.4475860595703" stroke-width="3.0" fill="none" stroke="rgb(0, 0, 0)" stroke-opacity="1.0" stroke-linecap="round" stroke-linejoin="round"/>
    <path d="M 85.08197021484375 24.6135311126709 C 93.15772247314453 82.1578598022461 83.66813659667969 7.957753658294678 84.99901580810547 53.625511169433594" stroke-width="3.0" fill="none" stroke="rgb(0, 0, 0)" stroke-opacity="1.0" stroke-linecap="round" stroke-linejoin="round"/>
    <path d="M 46.75642395019531 86.93411254882812 C 64.59420013427734 142.7423858642578 85.79652404785156 151.34300231933594 75.83013153076172 143.8004913330078" stroke-width="3.0" fill="none" stroke="rgb(0, 0, 0)" stroke-opacity="1.0" stroke-linecap="round" stroke-linejoin="round"/>
    <path d="M 154.27186584472656 75.664306640625 C 202.2285919189453 62.37838363647461 186.68881225585938 88.80577850341797 142.45663452148438 82.94046783447266" stroke-width="3.0" fill="none" stroke="rgb(0, 0, 0)" stroke-opacity="1.0" stroke-linecap="round" stroke-linejoin="round"/>
    <path d="M 151.93228149414062 95.29429626464844 C 186.8507843017578 101.60200500488281 176.1446533203125 100.43341064453125 196.39163208007812 113.11927032470703" stroke-width="3.0" fill="none" stroke="rgb(0, 0, 0)" stroke-opacity="1.0" stroke-linecap="round" stroke-linejoin="round"/>
    <path d="M 109.815185546875 156.2870330810547 C 146.8946075439453 156.10928344726562 124.2562255859375 148.77838134765625 105.52880859375 156.85125732421875" stroke-width="3.0" fill="none" stroke="rgb(0, 0, 0)" stroke-opacity="1.0" stroke-linecap="round" stroke-linejoin="round"/>
    <path d="M 179.11813354492188 9.371770858764648 C 186.55166625976562 19.244237899780273 168.7647705078125 69.13919830322266 180.32154846191406 55.75479507446289" stroke-width="3.0" fill="none" stroke="rgb(0, 0, 0)" stroke-opacity="1.0" stroke-linecap="round" stroke-linejoin="round"/>
    <path d="M 133.8716278076172 31.252796173095703 C 129.8671875 49.06732940673828 134.99734497070312 52.34921646118164 125.9199447631836 66.23873138427734" stroke-width="3.0" fill="none" stroke="rgb(0, 0, 0)" stroke-opacity="1.0" stroke-linecap="round" stroke-linejoin="round"/>
    <path d="M 91.94979095458984 42.17210388183594 C 68.88352966308594 2.2540483474731445 91.30718231201172 -1.6206485033035278 114.55809020996094 30.90085220336914" stroke-width="3.0" fill="none" stroke="rgb(0, 0, 0)" stroke-opacity="1.0" stroke-linecap="round" stroke-linejoin="round"/>
    <path d="M 47.62974548339844 169.0386962890625 C 38.1340217590332 156.3481903076172 36.078125 147.8804168701172 47.65485763549805 169.6312255859375" stroke-width="3.0" fill="none" stroke="rgb(0, 0, 0)" stroke-opacity="1.0" stroke-linecap="round" stroke-linejoin="round"/>
    <path d="M 35.596534729003906 95.94390869140625 C 21.136112213134766 131.38600158691406 41.242374420166016 146.96014404296875 44.523494720458984 162.369384765625" stroke-width="3.0" fill="none" stroke="rgb(0, 0, 0)" stroke-opacity="1.0" stroke-linecap="round" stroke-linejoin="round"/>
    <path d="M 81.0531997680664 146.93365478515625 C 115.66979217529297 157.2252960205078 89.8221664428711 158.84085083007812 99.26338195800781 149.9571533203125" stroke-width="3.0" fill="none" stroke="rgb(0, 0, 0)" stroke-opacity="1.0" stroke-linecap="round" stroke-linejoin="round"/>
    <path d="M 85.97452545166016 197.1082763671875 C 71.23594665527344 203.2022705078125 48.15575408935547 176.0145263671875 47.139381408691406 171.15367126464844" stroke-width="3.0" fill="none" stroke="rgb(0, 0, 0)" stroke-opacity="1.0" stroke-linecap="round" stroke-linejoin="round"/>
    <path d="M 49.571510314941406 172.27236938476562 C 65.61591339111328 195.53004455566406 44.27656936645508 173.73031616210938 37.86988830566406 147.31602478027344" stroke-width="3.0" fill="none" stroke="rgb(0, 0, 0)" stroke-opacity="1.0" stroke-linecap="round" stroke-linejoin="round"/>
    <path d="M 78.86432647705078 53.322879791259766 C 62.138771057128906 57.884525299072266 47.585845947265625 71.27314758300781 33.01954650878906 105.92898559570312" stroke-width="3.0" fill="none" stroke="rgb(0, 0, 0)" stroke-opacity="1.0" stroke-linecap="round" stroke-linejoin="round"/>
    <path d="M 154.67262268066406 139.4805450439453 C 115.13062286376953 156.26934814453125 118.03108215332031 165.28802490234375 143.72378540039062 146.76844787597656" stroke-width="3.0" fill="none" stroke="rgb(0, 0, 0)" stroke-opacity="1.0" stroke-linecap="round" stroke-linejoin="round"/>
    <path d="M 152.55747985839844 24.775972366333008 C 142.18080139160156 40.89237976074219 135.720947265625 1.9358932971954346 137.00457763671875 80.622314453125" stroke-width="3.0" fill="none" stroke="rgb(0, 0, 0)" stroke-opacity="1.0" stroke-linecap="round" stroke-linejoin="round"/>
    <path d="M 146.77894592285156 95.69713592529297 C 134.22042846679688 109.26173400878906 130.27198791503906 108.73118591308594 123.94812774658203 100.88182830810547" stroke-width="3.0" fill="none" stroke="rgb(0, 0, 0)" stroke-opacity="1.0" stroke-linecap="round" stroke-linejoin="round"/>
    <path d="M 137.73094177246094 68.69367218017578 C 140.37782287597656 58.36457824707031 129.7569580078125 66.22439575195312 138.38442993164062 77.1155014038086" stroke-width="3.0" fill="none" stroke="rgb(0, 0, 0)" stroke-opacity="1.0" stroke-linecap="round" stroke-linejoin="round"/>
    <path d="M 131.81756591796875 172.98141479492188 C 125.38450622558594 174.08934020996094 138.1259765625 173.8072509765625 144.94886779785156 145.4498291015625" stroke-width="3.0" fill="none" stroke="rgb(0, 0, 0)" stroke-opacity="1.0" stroke-linecap="round" stroke-linejoin="round"/>
    <path d="M 193.97576904296875 95.010986328125 C 167.30809020996094 74.2770004272461 164.77000427246094 83.39830780029297 182.47474670410156 89.05291748046875" stroke-width="3.0" fill="none" stroke="rgb(0, 0, 0)" stroke-opacity="1.0" stroke-linecap="round" stroke-linejoin="round"/>
    <path d="M 156.50343322753906 77.65582275390625 C 128.2664337158203 63.13527297973633 205.03883361816406 81.83251953125 179.46238708496094 68.34738159179688" stroke-width="3.0" fill="none" stroke="rgb(0, 0, 0)" stroke-opacity="1.0" stroke-linecap="round" stroke-linejoin="round"/>
    <path d="M 109.29086303710938 77.35154724121094 C 90.61521911621094 68.87287902832031 139.64218139648438 75.33788299560547 108.2002182006836 79.70053100585938" stroke-width="3.0" fill="none" stroke="rgb(0, 0, 0)" stroke-opacity="1.0" stroke-linecap="round" stroke-linejoin="round"/>
    <path d="M 161.8585205078125 130.06288146972656 C 144.80284118652344 155.42942810058594 117.0443115234375 148.71177673339844 101.5315170288086 154.8240509033203" stroke-width="3.0" fill="none" stroke="rgb(0, 0, 0)" stroke-opacity="1.0" stroke-linecap="round" stroke-linejoin="round"/>
    <path d="M 125.5363540649414 87.92353820800781 C 144.5675506591797 99.2269287109375 128.4622344970703 71.20490264892578 131.06832885742188 106.28035736083984" stroke-width="3.0" fill="none" stroke="rgb(0, 0, 0)" stroke-opacity="1.0" stroke-linecap="round" stroke-linejoin="round"/>
    <path d="M 185.16253662109375 109.61502838134766 C 169.51223754882812 86.17528533935547 180.53173828125 83.13822174072266 147.40191650390625 90.53055572509766" stroke-width="3.0" fill="none" stroke="rgb(0, 0, 0)" stroke-opacity="1.0" stroke-linecap="round" stroke-linejoin="round"/>
    <path d="M 83.52599334716797 9.027153015136719 C 104.21102905273438 16.603275299072266 120.73945617675781 33.46650695800781 121.44239807128906 29.6506404876709" stroke-width="3.0" fill="none" stroke="rgb(0, 0, 0)" stroke-opacity="1.0" stroke-linecap="round" stroke-linejoin="round"/>
    <path d="M 59.373695373535156 123.4205093383789 C 53.004634857177734 117.00822448730469 60.4166145324707 128.04322814941406 70.9859619140625 130.79786682128906" stroke-width="3.0" fill="none" stroke="rgb(0, 0, 0)" stroke-opacity="1.0" stroke-linecap="round" stroke-linejoin="round"/>
    <path d="M 137.01658630371094 106.55216979980469 C 127.22785949707031 90.00719451904297 127.82587432861328 118.27381896972656 111.79645538330078 90.92699432373047" stroke-width="3.0" fill="none" stroke="rgb(0, 0, 0)" stroke-opacity="1.0" stroke-linecap="round" stroke-linejoin="round"/>
    <path d="M 30.494295120239258 130.17828369140625 C 28.83234977722168 101.85745239257812 36.6574592590332 96.70639038085938 48.71341323852539 75.51915740966797" stroke-width="3.0" fill="none" stroke="rgb(0, 0, 0)" stroke-opacity="1.0" stroke-linecap="round" stroke-linejoin="round"/>
    <path d="M 79.7261734008789 198.25865173339844 C 73.69285583496094 189.93975830078125 67.33380889892578 198.14207458496094 100.98731994628906 199.61473083496094" stroke-width="3.0" fill="none" stroke="rgb(0, 0, 0)" stroke-opacity="1.0" stroke-linecap="round" stroke-linejoin="round"/>
    <path d="M 165.39947509765625 132.0580596923828 C 199.81370544433594 116.2698974609375 179.8477783203125 93.14155578613281 152.94253540039062 89.59516906738281" stroke-width="3.0" fill="none" stroke="rgb(0, 0, 0)" stroke-opacity="1.0" stroke-linecap="round" stroke-linejoin="round"/>
    <path d="M 148.95404052734375 69.01244354248047 C 138.73773193359375 85.45259094238281 178.4803009033203 77.82042694091797 148.73887634277344 68.88916015625" stroke-width="3.0" fill="none" stroke="rgb(0, 0, 0)" stroke-opacity="1.0" stroke-linecap="round" stroke-linejoin="round"/>
    <path d="M 141.4447479248047 77.70499420166016 C 147.16641235351562 45.162811279296875 202.4158477783203 113.363525390625 175.3999786376953 44.84779357910156" stroke-width="3.0" fill="none" stroke="rgb(0, 0, 0)" stroke-opacity="1.0" stroke-linecap="round" stroke-linejoin="round"/>
    <path d="M 154.35641479492188 95.46829223632812 C 169.1905059814453 103.38990783691406 177.17974853515625 104.64913940429688 184.4452362060547 116.99211120605469" stroke-width="3.0" fill="none" stroke="rgb(0, 0, 0)" stroke-opacity="1.0" stroke-linecap="round" stroke-linejoin="round"/>
    <path d="M 176.44158935546875 16.522602081298828 C 171.16650390625 42.59294509887695 178.60914611816406 15.960919380187988 163.97555541992188 32.97257995605469" stroke-width="3.0" fill="none" stroke="rgb(0, 0, 0)" stroke-opacity="1.0" stroke-linecap="round" stroke-linejoin="round"/>
    <path d="M 120.45220947265625 102.18207550048828 C 147.67916870117188 101.53618621826172 132.18609619140625 115.31603240966797 118.95903015136719 100.60347747802734" stroke-width="3.0" fill="none" stroke="rgb(0, 0, 0)" stroke-opacity="1.0" stroke-linecap="round" stroke-linejoin="round"/>
    <path d="M 69.71017456054688 132.1649627685547 C 49.01759719848633 123.55622100830078 59.50269317626953 111.55370330810547 57.57408905029297 115.84097290039062" stroke-width="3.0" fill="none" stroke="rgb(0, 0, 0)" stroke-opacity="1.0" stroke-linecap="round" stroke-linejoin="round"/>
    <path d="M 123.9443130493164 71.36656188964844 C 131.4092559814453 36.53316879272461 122.87369537353516 50.60437774658203 127.06991577148438 29.316301345825195" stroke-width="3.0" fill="none" stroke="rgb(0, 0, 0)" stroke-opacity="1.0" stroke-linecap="round" stroke-linejoin="round"/>
    <path d="M 156.7382049560547 20.711816787719727 C 147.74249267578125 31.904876708984375 164.1646270751953 7.598476409912109 178.98333740234375 8.686654090881348" stroke-width="3.0" fill="none" stroke="rgb(0, 0, 0)" stroke-opacity="1.0" stroke-linecap="round" stroke-linejoin="round"/>
  </g>
</svg>
