<?xml version="1.0" ?>
<svg xmlns="http://www.w3.org/2000/svg" version="1.1" width="224" height="224">
  <defs/>
  <g>
    <path d="M 56.6406364440918 113.33721160888672 C 56.831459045410156 118.46039581298828 50.398963928222656 103.5403060913086 43.902015686035156 86.55913543701172" stroke-width="3.0" fill="none" stroke="rgb(0, 0, 0)" stroke-opacity="1.0" stroke-linecap="round" stroke-linejoin="round"/>
    <path d="M 183.66513061523438 124.20245361328125 C 178.30364990234375 106.82170867919922 183.99072265625 116.25283813476562 182.936767578125 118.7059326171875" stroke-width="3.0" fill="none" stroke="rgb(0, 0, 0)" stroke-opacity="1.0" stroke-linecap="round" stroke-linejoin="round"/>
    <path d="M 53.07224655151367 106.54283905029297 C 60.55060577392578 112.79827117919922 53.98210144042969 108.69850158691406 56.441802978515625 116.64633178710938" stroke-width="3.0" fill="none" stroke="rgb(0, 0, 0)" stroke-opacity="1.0" stroke-linecap="round" stroke-linejoin="round"/>
    <path d="M 183.58871459960938 94.5010986328125 C 158.20220947265625 83.90460968017578 171.6221466064453 83.91432189941406 195.4296112060547 113.4021224975586" stroke-width="3.0" fill="none" stroke="rgb(0, 0, 0)" stroke-opacity="1.0" stroke-linecap="round" stroke-linejoin="round"/>
    <path d="M 181.46774291992188 73.35496520996094 C 177.39212036132812 97.07112884521484 187.59071350097656 95.13018035888672 181.84613037109375 63.43672561645508" stroke-width="3.0" fill="none" stroke="rgb(0, 0, 0)" stroke-opacity="1.0" stroke-linecap="round" stroke-linejoin="round"/>
    <path d="M 127.49042510986328 101.84241485595703 C 150.9714813232422 98.63182830810547 99.63457489013672 99.65219116210938 133.61351013183594 103.64376068115234" stroke-width="3.0" fill="none" stroke="rgb(0, 0, 0)" stroke-opacity="1.0" stroke-linecap="round" stroke-linejoin="round"/>
    <path d="M 169.9018096923828 98.63139343261719 C 203.85409545898438 79.83460235595703 173.11402893066406 70.81111907958984 155.7606964111328 85.69540405273438" stroke-width="3.0" fill="none" stroke="rgb(0, 0, 0)" stroke-opacity="1.0" stroke-linecap="round" stroke-linejoin="round"/>
    <path d="M 54.32133483886719 179.71229553222656 C 35.62162780761719 158.75596618652344 48.68024826049805 161.17205810546875 45.73431396484375 162.85279846191406" stroke-width="3.0" fill="none" stroke="rgb(0, 0, 0)" stroke-opacity="1.0" stroke-linecap="round" stroke-linejoin="round"/>
    <path d="M 62.86802673339844 187.3242645263672 C 94.71622467041016 204.8981170654297 109.10548400878906 199.24891662597656 125.42890167236328 186.9861602783203" stroke-width="3.0" fill="none" stroke="rgb(0, 0, 0)" stroke-opacity="1.0" stroke-linecap="round" stroke-linejoin="round"/>
    <path d="M 87.22813415527344 37.99005126953125 C 90.46373748779297 62.89407730102539 82.20145416259766 26.40267562866211 85.39244842529297 58.253509521484375" stroke-width="3.0" fill="none" stroke="rgb(0, 0, 0)" stroke-opacity="1.0" stroke-linecap="round" stroke-linejoin="round"/>
    <path d="M 60.79314041137695 122.09503173828125 C 53.85340118408203 135.09109497070312 96.72463989257812 154.5506134033203 99.89680480957031 150.7750701904297" stroke-width="3.0" fill="none" stroke="rgb(0, 0, 0)" stroke-opacity="1.0" stroke-linecap="round" stroke-linejoin="round"/>
    <path d="M 145.43382263183594 71.0654067993164 C 210.1354522705078 75.12103271484375 184.85467529296875 83.20787811279297 147.83554077148438 84.09300994873047" stroke-width="3.0" fill="none" stroke="rgb(0, 0, 0)" stroke-opacity="1.0" stroke-linecap="round" stroke-linejoin="round"/>
    <path d="M 152.80409240722656 95.2584228515625 C 179.44781494140625 98.49147033691406 185.27162170410156 98.43314361572266 188.56300354003906 112.87635040283203" stroke-width="3.0" fill="none" stroke="rgb(0, 0, 0)" stroke-opacity="1.0" stroke-linecap="round" stroke-linejoin="round"/>
    <path d="M 110.0570297241211 158.2222900390625 C 144.1869659423828 148.8280792236328 113.92266082763672 159.16156005859375 127.95014953613281 152.67315673828125" stroke-width="3.0" fill="none" stroke="rgb(0, 0, 0)" stroke-opacity="1.0" stroke-linecap="round" stroke-linejoin="round"/>
    <path d="M 175.35646057128906 7.255131244659424 C 190.9742889404297 0.36793652176856995 170.09197998046875 56.590614318847656 178.04769897460938 52.87209701538086" stroke-width="3.0" fill="none" stroke="rgb(0, 0, 0)" stroke-opacity="1.0" stroke-linecap="round" stroke-linejoin="round"/>
    <path d="M 130.55056762695312 31.470977783203125 C 123.39134979248047 54.13435745239258 132.06773376464844 36.48251724243164 125.94474792480469 72.86271667480469" stroke-width="3.0" fill="none" stroke="rgb(0, 0, 0)" stroke-opacity="1.0" stroke-linecap="round" stroke-linejoin="round"/>
    <path d="M 88.38899230957031 51.224822998046875 C 70.66793823242188 -4.011081695556641 84.340087890625 -0.1751311868429184 113.79856872558594 34.991878509521484" stroke-width="3.0" fill="none" stroke="rgb(0, 0, 0)" stroke-opacity="1.0" stroke-linecap="round" stroke-linejoin="round"/>
    <path d="M 45.00383758544922 161.20697021484375 C 42.04104995727539 153.8871612548828 36.52018356323242 147.7296142578125 39.19363021850586 149.58425903320312" stroke-width="3.0" fill="none" stroke="rgb(0, 0, 0)" stroke-opacity="1.0" stroke-linecap="round" stroke-linejoin="round"/>
    <path d="M 34.888023376464844 105.81132507324219 C 24.500221252441406 127.82569885253906 36.89841842651367 142.00912475585938 42.505889892578125 156.6975555419922" stroke-width="3.0" fill="none" stroke="rgb(0, 0, 0)" stroke-opacity="1.0" stroke-linecap="round" stroke-linejoin="round"/>
    <path d="M 88.0657958984375 150.16583251953125 C 103.58534240722656 158.7978057861328 109.09649658203125 154.609375 106.38790893554688 155.89479064941406" stroke-width="3.0" fill="none" stroke="rgb(0, 0, 0)" stroke-opacity="1.0" stroke-linecap="round" stroke-linejoin="round"/>
    <path d="M 76.20917510986328 197.77920532226562 C 57.32188034057617 186.64523315429688 56.89034652709961 182.6811065673828 47.52180862426758 172.31715393066406" stroke-width="3.0" fill="none" stroke="rgb(0, 0, 0)" stroke-opacity="1.0" stroke-linecap="round" stroke-linejoin="round"/>
    <path d="M 45.569984436035156 165.26300048828125 C 59.41587829589844 189.38404846191406 41.92658615112305 163.94970703125 40.734947204589844 154.29440307617188" stroke-width="3.0" fill="none" stroke="rgb(0, 0, 0)" stroke-opacity="1.0" stroke-linecap="round" stroke-linejoin="round"/>
    <path d="M 80.42818450927734 52.00821304321289 C 55.36329650878906 57.94033432006836 49.2380256652832 72.53250885009766 33.07923889160156 108.9892349243164" stroke-width="3.0" fill="none" stroke="rgb(0, 0, 0)" stroke-opacity="1.0" stroke-linecap="round" stroke-linejoin="round"/>
    <path d="M 153.88050842285156 140.73878479003906 C 135.38882446289062 158.88357543945312 120.10287475585938 157.627197265625 132.95823669433594 153.49696350097656" stroke-width="3.0" fill="none" stroke="rgb(0, 0, 0)" stroke-opacity="1.0" stroke-linecap="round" stroke-linejoin="round"/>
    <path d="M 139.7386932373047 30.750165939331055 C 149.9379119873047 62.21863555908203 130.8424835205078 57.729103088378906 135.72073364257812 74.74171447753906" stroke-width="3.0" fill="none" stroke="rgb(0, 0, 0)" stroke-opacity="1.0" stroke-linecap="round" stroke-linejoin="round"/>
    <path d="M 148.31520080566406 96.9560775756836 C 119.65481567382812 107.5555419921875 131.18077087402344 112.05509948730469 138.81854248046875 100.154052734375" stroke-width="3.0" fill="none" stroke="rgb(0, 0, 0)" stroke-opacity="1.0" stroke-linecap="round" stroke-linejoin="round"/>
    <path d="M 136.4509735107422 78.3287582397461 C 139.708740234375 51.97756576538086 137.7606201171875 63.174476623535156 135.54177856445312 69.5199966430664" stroke-width="3.0" fill="none" stroke="rgb(0, 0, 0)" stroke-opacity="1.0" stroke-linecap="round" stroke-linejoin="round"/>
    <path d="M 132.99533081054688 180.72885131835938 C 110.7871322631836 192.75559997558594 139.00990295410156 187.90907287597656 144.18113708496094 150.96810913085938" stroke-width="3.0" fill="none" stroke="rgb(0, 0, 0)" stroke-opacity="1.0" stroke-linecap="round" stroke-linejoin="round"/>
    <path d="M 193.2814178466797 96.18864440917969 C 169.2147979736328 76.98406219482422 146.63136291503906 83.78182220458984 184.33749389648438 82.67975616455078" stroke-width="3.0" fill="none" stroke="rgb(0, 0, 0)" stroke-opacity="1.0" stroke-linecap="round" stroke-linejoin="round"/>
    <path d="M 145.39840698242188 76.15985870361328 C 166.8883056640625 61.85795593261719 194.07424926757812 82.56436157226562 179.06219482421875 67.7933120727539" stroke-width="3.0" fill="none" stroke="rgb(0, 0, 0)" stroke-opacity="1.0" stroke-linecap="round" stroke-linejoin="round"/>
    <path d="M 110.74070739746094 79.32637786865234 C 93.592041015625 71.6074447631836 136.6851043701172 75.76570892333984 108.4627685546875 83.03323364257812" stroke-width="3.0" fill="none" stroke="rgb(0, 0, 0)" stroke-opacity="1.0" stroke-linecap="round" stroke-linejoin="round"/>
    <path d="M 152.78726196289062 142.67201232910156 C 138.9449005126953 159.635009765625 124.16072845458984 148.61302185058594 104.74518585205078 155.6410675048828" stroke-width="3.0" fill="none" stroke="rgb(0, 0, 0)" stroke-opacity="1.0" stroke-linecap="round" stroke-linejoin="round"/>
    <path d="M 126.75067138671875 89.01353454589844 C 143.40658569335938 99.01737976074219 131.87640380859375 72.18209838867188 129.72610473632812 103.3719253540039" stroke-width="3.0" fill="none" stroke="rgb(0, 0, 0)" stroke-opacity="1.0" stroke-linecap="round" stroke-linejoin="round"/>
    <path d="M 186.68032836914062 113.48030853271484 C 178.309326171875 77.95785522460938 184.92294311523438 97.0821304321289 140.6768798828125 82.12020874023438" stroke-width="3.0" fill="none" stroke="rgb(0, 0, 0)" stroke-opacity="1.0" stroke-linecap="round" stroke-linejoin="round"/>
    <path d="M 84.38500213623047 8.774384498596191 C 108.10823059082031 16.004457473754883 114.9148178100586 34.376060485839844 123.77347564697266 31.93662452697754" stroke-width="3.0" fill="none" stroke="rgb(0, 0, 0)" stroke-opacity="1.0" stroke-linecap="round" stroke-linejoin="round"/>
    <path d="M 58.21922302246094 116.27120971679688 C 53.39747619628906 107.25447845458984 60.11052322387695 120.9641342163086 55.282745361328125 111.81884002685547" stroke-width="3.0" fill="none" stroke="rgb(0, 0, 0)" stroke-opacity="1.0" stroke-linecap="round" stroke-linejoin="round"/>
    <path d="M 126.65380859375 106.17911529541016 C 106.97341918945312 93.97692108154297 122.8397445678711 110.88479614257812 110.30294036865234 91.173828125" stroke-width="3.0" fill="none" stroke="rgb(0, 0, 0)" stroke-opacity="1.0" stroke-linecap="round" stroke-linejoin="round"/>
    <path d="M 31.98392105102539 129.99957275390625 C 28.497352600097656 117.20207977294922 33.861549377441406 102.32144927978516 32.22751998901367 112.69876861572266" stroke-width="3.0" fill="none" stroke="rgb(0, 0, 0)" stroke-opacity="1.0" stroke-linecap="round" stroke-linejoin="round"/>
    <path d="M 80.05563354492188 198.06407165527344 C 74.71951293945312 197.33790588378906 70.75346374511719 197.57374572753906 96.39769744873047 198.14402770996094" stroke-width="3.0" fill="none" stroke="rgb(0, 0, 0)" stroke-opacity="1.0" stroke-linecap="round" stroke-linejoin="round"/>
    <path d="M 152.18382263183594 144.34326171875 C 208.18917846679688 112.96839904785156 181.20741271972656 93.23013305664062 155.7147979736328 90.64545440673828" stroke-width="3.0" fill="none" stroke="rgb(0, 0, 0)" stroke-opacity="1.0" stroke-linecap="round" stroke-linejoin="round"/>
    <path d="M 157.0486602783203 68.68167877197266 C 124.84224700927734 78.93317413330078 171.54656982421875 83.29061889648438 148.80982971191406 70.01985168457031" stroke-width="3.0" fill="none" stroke="rgb(0, 0, 0)" stroke-opacity="1.0" stroke-linecap="round" stroke-linejoin="round"/>
    <path d="M 142.26783752441406 76.22217559814453 C 148.2792510986328 46.02176284790039 200.30831909179688 103.5300064086914 173.4080352783203 48.64677810668945" stroke-width="3.0" fill="none" stroke="rgb(0, 0, 0)" stroke-opacity="1.0" stroke-linecap="round" stroke-linejoin="round"/>
    <path d="M 155.06492614746094 95.71607971191406 C 167.82510375976562 102.99647521972656 184.4870147705078 100.81828308105469 185.2812042236328 115.68856048583984" stroke-width="3.0" fill="none" stroke="rgb(0, 0, 0)" stroke-opacity="1.0" stroke-linecap="round" stroke-linejoin="round"/>
    <path d="M 178.0072784423828 14.703065872192383 C 167.6598663330078 39.66746520996094 172.44293212890625 19.499771118164062 157.2932891845703 37.27096939086914" stroke-width="3.0" fill="none" stroke="rgb(0, 0, 0)" stroke-opacity="1.0" stroke-linecap="round" stroke-linejoin="round"/>
    <path d="M 121.10804748535156 101.83020782470703 C 147.4288330078125 103.48999786376953 132.48098754882812 113.76397705078125 110.48318481445312 96.21504974365234" stroke-width="3.0" fill="none" stroke="rgb(0, 0, 0)" stroke-opacity="1.0" stroke-linecap="round" stroke-linejoin="round"/>
    <path d="M 57.406410217285156 111.0429916381836 C 52.76637268066406 107.3104248046875 48.96233367919922 104.38252258300781 60.22496795654297 127.00772857666016" stroke-width="3.0" fill="none" stroke="rgb(0, 0, 0)" stroke-opacity="1.0" stroke-linecap="round" stroke-linejoin="round"/>
    <path d="M 123.84288024902344 77.02678680419922 C 129.1598358154297 42.66205978393555 119.13712310791016 53.02346420288086 123.80690002441406 31.71823501586914" stroke-width="3.0" fill="none" stroke="rgb(0, 0, 0)" stroke-opacity="1.0" stroke-linecap="round" stroke-linejoin="round"/>
    <path d="M 145.65914916992188 31.07084846496582 C 146.98941040039062 38.02358627319336 154.19017028808594 14.37848949432373 177.7252960205078 6.40678596496582" stroke-width="3.0" fill="none" stroke="rgb(0, 0, 0)" stroke-opacity="1.0" stroke-linecap="round" stroke-linejoin="round"/>
  </g>
</svg>
