<?xml version="1.0" ?>
<svg xmlns="http://www.w3.org/2000/svg" version="1.1" width="224" height="224">
  <defs/>
  <g>
    <path d="M 54.861900329589844 101.95773315429688 C 49.230003356933594 106.22242736816406 54.083683013916016 100.95413208007812 45.42753982543945 79.67449188232422" stroke-width="3.0" fill="none" stroke="rgb(0, 0, 0)" stroke-opacity="1.0" stroke-linecap="round" stroke-linejoin="round"/>
    <path d="M 186.6278839111328 120.28275299072266 C 183.75930786132812 105.31893157958984 193.41941833496094 103.28608703613281 178.41400146484375 126.84707641601562" stroke-width="3.0" fill="none" stroke="rgb(0, 0, 0)" stroke-opacity="1.0" stroke-linecap="round" stroke-linejoin="round"/>
    <path d="M 56.222164154052734 116.60472869873047 C 54.875572204589844 113.47689819335938 53.613834381103516 115.2791519165039 62.13746643066406 124.96737670898438" stroke-width="3.0" fill="none" stroke="rgb(0, 0, 0)" stroke-opacity="1.0" stroke-linecap="round" stroke-linejoin="round"/>
    <path d="M 182.0271759033203 95.91818237304688 C 151.73886108398438 86.98286437988281 175.15692138671875 80.47664642333984 195.2208709716797 114.40911102294922" stroke-width="3.0" fill="none" stroke="rgb(0, 0, 0)" stroke-opacity="1.0" stroke-linecap="round" stroke-linejoin="round"/>
    <path d="M 180.16915893554688 71.22437286376953 C 174.14089965820312 98.1068344116211 185.78692626953125 93.176513671875 181.04837036132812 58.031028747558594" stroke-width="3.0" fill="none" stroke="rgb(0, 0, 0)" stroke-opacity="1.0" stroke-linecap="round" stroke-linejoin="round"/>
    <path d="M 122.43207550048828 101.19895935058594 C 148.13084411621094 106.30091094970703 108.10320281982422 96.53536224365234 137.15260314941406 101.81939697265625" stroke-width="3.0" fill="none" stroke="rgb(0, 0, 0)" stroke-opacity="1.0" stroke-linecap="round" stroke-linejoin="round"/>
    <path d="M 168.22744750976562 102.49974822998047 C 198.38681030273438 81.19437408447266 185.0548553466797 71.53388214111328 154.60694885253906 87.98229217529297" stroke-width="3.0" fill="none" stroke="rgb(0, 0, 0)" stroke-opacity="1.0" stroke-linecap="round" stroke-linejoin="round"/>
    <path d="M 57.361995697021484 183.19430541992188 C 38.51945114135742 154.6987762451172 45.326637268066406 166.1875457763672 47.11563491821289 171.2052001953125" stroke-width="3.0" fill="none" stroke="rgb(0, 0, 0)" stroke-opacity="1.0" stroke-linecap="round" stroke-linejoin="round"/>
    <path d="M 57.8106689453125 182.65286254882812 C 86.3486557006836 211.78147888183594 113.56893920898438 198.47898864746094 133.7098846435547 178.964111328125" stroke-width="3.0" fill="none" stroke="rgb(0, 0, 0)" stroke-opacity="1.0" stroke-linecap="round" stroke-linejoin="round"/>
    <path d="M 84.05460357666016 30.67768669128418 C 96.52450561523438 64.36325073242188 79.44993591308594 15.52912425994873 84.50846099853516 50.909515380859375" stroke-width="3.0" fill="none" stroke="rgb(0, 0, 0)" stroke-opacity="1.0" stroke-linecap="round" stroke-linejoin="round"/>
    <path d="M 62.56148147583008 119.6553955078125 C 53.876773834228516 134.5394287109375 106.9004135131836 151.53607177734375 96.47377014160156 153.56683349609375" stroke-width="3.0" fill="none" stroke="rgb(0, 0, 0)" stroke-opacity="1.0" stroke-linecap="round" stroke-linejoin="round"/>
    <path d="M 145.1119842529297 72.98265838623047 C 205.14230346679688 67.31255340576172 186.19247436523438 85.36577606201172 147.31069946289062 85.66978454589844" stroke-width="3.0" fill="none" stroke="rgb(0, 0, 0)" stroke-opacity="1.0" stroke-linecap="round" stroke-linejoin="round"/>
    <path d="M 150.82003784179688 98.18704223632812 C 183.79237365722656 101.26925659179688 179.12953186035156 99.5426025390625 189.7587127685547 112.90489959716797" stroke-width="3.0" fill="none" stroke="rgb(0, 0, 0)" stroke-opacity="1.0" stroke-linecap="round" stroke-linejoin="round"/>
    <path d="M 111.74790954589844 156.9148406982422 C 145.35533142089844 145.4808349609375 115.18059539794922 155.02197265625 122.48676300048828 151.124755859375" stroke-width="3.0" fill="none" stroke="rgb(0, 0, 0)" stroke-opacity="1.0" stroke-linecap="round" stroke-linejoin="round"/>
    <path d="M 176.5051727294922 10.373719215393066 C 191.4232940673828 5.236193656921387 173.10813903808594 59.43159484863281 179.3166961669922 52.865013122558594" stroke-width="3.0" fill="none" stroke="rgb(0, 0, 0)" stroke-opacity="1.0" stroke-linecap="round" stroke-linejoin="round"/>
    <path d="M 135.11251831054688 32.02547073364258 C 125.09988403320312 56.16584014892578 135.84083557128906 37.51331329345703 123.94312286376953 70.76541900634766" stroke-width="3.0" fill="none" stroke="rgb(0, 0, 0)" stroke-opacity="1.0" stroke-linecap="round" stroke-linejoin="round"/>
    <path d="M 86.22441101074219 47.15519714355469 C 73.78836059570312 -4.223923683166504 84.44304656982422 0.5305986404418945 108.13191223144531 36.07658004760742" stroke-width="3.0" fill="none" stroke="rgb(0, 0, 0)" stroke-opacity="1.0" stroke-linecap="round" stroke-linejoin="round"/>
    <path d="M 43.901710510253906 166.05072021484375 C 40.9229850769043 153.16030883789062 35.23551559448242 148.21539306640625 39.57038497924805 156.35711669921875" stroke-width="3.0" fill="none" stroke="rgb(0, 0, 0)" stroke-opacity="1.0" stroke-linecap="round" stroke-linejoin="round"/>
    <path d="M 34.43647003173828 102.177001953125 C 23.305309295654297 125.5412368774414 35.705543518066406 145.9480438232422 40.304656982421875 154.3292694091797" stroke-width="3.0" fill="none" stroke="rgb(0, 0, 0)" stroke-opacity="1.0" stroke-linecap="round" stroke-linejoin="round"/>
    <path d="M 90.54381561279297 145.5851287841797 C 107.47173309326172 160.29052734375 119.61412048339844 144.49900817871094 110.72966003417969 158.23623657226562" stroke-width="3.0" fill="none" stroke="rgb(0, 0, 0)" stroke-opacity="1.0" stroke-linecap="round" stroke-linejoin="round"/>
    <path d="M 78.63568878173828 199.10952758789062 C 64.6648941040039 193.69757080078125 52.72674560546875 181.59194946289062 50.045711517333984 175.2594451904297" stroke-width="3.0" fill="none" stroke="rgb(0, 0, 0)" stroke-opacity="1.0" stroke-linecap="round" stroke-linejoin="round"/>
    <path d="M 44.4687614440918 163.26551818847656 C 59.15631103515625 192.423828125 44.797630310058594 162.6167449951172 40.35398483276367 153.77236938476562" stroke-width="3.0" fill="none" stroke="rgb(0, 0, 0)" stroke-opacity="1.0" stroke-linecap="round" stroke-linejoin="round"/>
    <path d="M 83.7325668334961 56.10828399658203 C 54.71470260620117 57.5240478515625 47.90199661254883 70.02291107177734 31.932634353637695 104.46305847167969" stroke-width="3.0" fill="none" stroke="rgb(0, 0, 0)" stroke-opacity="1.0" stroke-linecap="round" stroke-linejoin="round"/>
    <path d="M 151.17816162109375 138.80929565429688 C 135.83517456054688 158.78067016601562 118.4950942993164 148.02279663085938 130.03720092773438 151.25653076171875" stroke-width="3.0" fill="none" stroke="rgb(0, 0, 0)" stroke-opacity="1.0" stroke-linecap="round" stroke-linejoin="round"/>
    <path d="M 143.14767456054688 30.386327743530273 C 146.86875915527344 72.0926284790039 132.82073974609375 53.99742889404297 136.28054809570312 75.47189331054688" stroke-width="3.0" fill="none" stroke="rgb(0, 0, 0)" stroke-opacity="1.0" stroke-linecap="round" stroke-linejoin="round"/>
    <path d="M 147.62371826171875 100.61028289794922 C 114.32245635986328 107.50762939453125 136.15264892578125 111.34327697753906 140.04217529296875 102.27091979980469" stroke-width="3.0" fill="none" stroke="rgb(0, 0, 0)" stroke-opacity="1.0" stroke-linecap="round" stroke-linejoin="round"/>
    <path d="M 137.2660369873047 72.27539825439453 C 145.5310516357422 57.78105163574219 135.72933959960938 64.54328155517578 137.93255615234375 66.63251495361328" stroke-width="3.0" fill="none" stroke="rgb(0, 0, 0)" stroke-opacity="1.0" stroke-linecap="round" stroke-linejoin="round"/>
    <path d="M 136.77313232421875 175.0099639892578 C 126.5715560913086 188.3818359375 138.76657104492188 182.76715087890625 144.76199340820312 147.55120849609375" stroke-width="3.0" fill="none" stroke="rgb(0, 0, 0)" stroke-opacity="1.0" stroke-linecap="round" stroke-linejoin="round"/>
    <path d="M 194.2055206298828 96.10384368896484 C 164.37472534179688 77.41593933105469 148.7776336669922 83.37515258789062 182.67880249023438 83.99573516845703" stroke-width="3.0" fill="none" stroke="rgb(0, 0, 0)" stroke-opacity="1.0" stroke-linecap="round" stroke-linejoin="round"/>
    <path d="M 147.08348083496094 77.97040557861328 C 161.05267333984375 65.0761489868164 202.17462158203125 78.6441650390625 177.34478759765625 65.9738540649414" stroke-width="3.0" fill="none" stroke="rgb(0, 0, 0)" stroke-opacity="1.0" stroke-linecap="round" stroke-linejoin="round"/>
    <path d="M 111.14124298095703 81.0992431640625 C 94.26439666748047 70.40814971923828 130.927001953125 77.25729370117188 107.99848937988281 81.9192123413086" stroke-width="3.0" fill="none" stroke="rgb(0, 0, 0)" stroke-opacity="1.0" stroke-linecap="round" stroke-linejoin="round"/>
    <path d="M 151.22122192382812 143.30641174316406 C 135.61256408691406 161.11680603027344 116.17310333251953 147.21217346191406 105.22105407714844 157.5490264892578" stroke-width="3.0" fill="none" stroke="rgb(0, 0, 0)" stroke-opacity="1.0" stroke-linecap="round" stroke-linejoin="round"/>
    <path d="M 122.5648193359375 90.3859634399414 C 141.47833251953125 99.48394012451172 130.20619201660156 73.98371124267578 128.29437255859375 104.56478118896484" stroke-width="3.0" fill="none" stroke="rgb(0, 0, 0)" stroke-opacity="1.0" stroke-linecap="round" stroke-linejoin="round"/>
    <path d="M 192.44386291503906 113.89250946044922 C 175.32493591308594 75.55836486816406 175.8000946044922 95.65628051757812 140.2494659423828 84.33218383789062" stroke-width="3.0" fill="none" stroke="rgb(0, 0, 0)" stroke-opacity="1.0" stroke-linecap="round" stroke-linejoin="round"/>
    <path d="M 82.8138427734375 9.842317581176758 C 105.8212890625 15.986860275268555 114.20947265625 33.757652282714844 120.5669937133789 30.43353271484375" stroke-width="3.0" fill="none" stroke="rgb(0, 0, 0)" stroke-opacity="1.0" stroke-linecap="round" stroke-linejoin="round"/>
    <path d="M 58.39693832397461 123.43534851074219 C 52.56816864013672 117.1874008178711 67.47928619384766 133.7336883544922 58.319374084472656 122.56819915771484" stroke-width="3.0" fill="none" stroke="rgb(0, 0, 0)" stroke-opacity="1.0" stroke-linecap="round" stroke-linejoin="round"/>
    <path d="M 138.48048400878906 101.90428924560547 C 123.1043701171875 95.15580749511719 123.25926971435547 114.96481323242188 110.19776153564453 92.974609375" stroke-width="3.0" fill="none" stroke="rgb(0, 0, 0)" stroke-opacity="1.0" stroke-linecap="round" stroke-linejoin="round"/>
    <path d="M 31.37198257446289 132.41864013671875 C 26.138307571411133 115.65204620361328 32.97794723510742 99.64082336425781 31.23244285583496 109.11064147949219" stroke-width="3.0" fill="none" stroke="rgb(0, 0, 0)" stroke-opacity="1.0" stroke-linecap="round" stroke-linejoin="round"/>
    <path d="M 78.85494995117188 198.5658721923828 C 72.31219482421875 194.9266815185547 67.53189849853516 197.6341552734375 92.73368835449219 200.455078125" stroke-width="3.0" fill="none" stroke="rgb(0, 0, 0)" stroke-opacity="1.0" stroke-linecap="round" stroke-linejoin="round"/>
    <path d="M 151.90444946289062 140.92723083496094 C 210.28622436523438 112.90887451171875 183.82838439941406 95.3379898071289 151.58370971679688 91.50181579589844" stroke-width="3.0" fill="none" stroke="rgb(0, 0, 0)" stroke-opacity="1.0" stroke-linecap="round" stroke-linejoin="round"/>
    <path d="M 157.23733520507812 70.13337707519531 C 123.41231536865234 80.83870697021484 173.891357421875 85.15505981445312 146.29830932617188 69.66395568847656" stroke-width="3.0" fill="none" stroke="rgb(0, 0, 0)" stroke-opacity="1.0" stroke-linecap="round" stroke-linejoin="round"/>
    <path d="M 140.06724548339844 79.2169189453125 C 147.35121154785156 44.470458984375 193.7467803955078 108.44473266601562 176.06834411621094 47.97972106933594" stroke-width="3.0" fill="none" stroke="rgb(0, 0, 0)" stroke-opacity="1.0" stroke-linecap="round" stroke-linejoin="round"/>
    <path d="M 160.45574951171875 98.56474304199219 C 166.27142333984375 101.62480163574219 177.9794464111328 102.55543518066406 182.42808532714844 115.16165924072266" stroke-width="3.0" fill="none" stroke="rgb(0, 0, 0)" stroke-opacity="1.0" stroke-linecap="round" stroke-linejoin="round"/>
    <path d="M 176.17918395996094 15.490674018859863 C 171.3725128173828 44.6009521484375 175.5056915283203 24.338186264038086 161.98095703125 38.30373001098633" stroke-width="3.0" fill="none" stroke="rgb(0, 0, 0)" stroke-opacity="1.0" stroke-linecap="round" stroke-linejoin="round"/>
    <path d="M 119.2822494506836 101.39020538330078 C 137.92559814453125 104.61298370361328 131.68553161621094 112.66940307617188 111.49884033203125 97.5916519165039" stroke-width="3.0" fill="none" stroke="rgb(0, 0, 0)" stroke-opacity="1.0" stroke-linecap="round" stroke-linejoin="round"/>
    <path d="M 58.90336227416992 123.76211547851562 C 49.84071350097656 98.62255096435547 53.863243103027344 106.68010711669922 62.03493118286133 124.03404235839844" stroke-width="3.0" fill="none" stroke="rgb(0, 0, 0)" stroke-opacity="1.0" stroke-linecap="round" stroke-linejoin="round"/>
    <path d="M 120.45442962646484 76.39411926269531 C 130.16685485839844 39.93168258666992 118.64533996582031 53.20445251464844 125.92697143554688 31.308034896850586" stroke-width="3.0" fill="none" stroke="rgb(0, 0, 0)" stroke-opacity="1.0" stroke-linecap="round" stroke-linejoin="round"/>
    <path d="M 145.26861572265625 32.232906341552734 C 144.92425537109375 38.75946044921875 157.5115966796875 10.840555191040039 179.9614715576172 7.000985622406006" stroke-width="3.0" fill="none" stroke="rgb(0, 0, 0)" stroke-opacity="1.0" stroke-linecap="round" stroke-linejoin="round"/>
  </g>
</svg>
