<?xml version="1.0" ?>
<svg xmlns="http://www.w3.org/2000/svg" version="1.1" width="224" height="224">
  <defs/>
  <g>
    <path d="M 56.67302703857422 119.89317321777344 C 58.59339904785156 118.72013854980469 47.973426818847656 111.63516998291016 45.24199295043945 94.78269958496094" stroke-width="3.0" fill="none" stroke="rgb(0, 0, 0)" stroke-opacity="1.0" stroke-linecap="round" stroke-linejoin="round"/>
    <path d="M 182.6367950439453 127.89495086669922 C 186.48086547851562 108.05375671386719 182.78823852539062 111.88471984863281 188.36083984375 119.58551788330078" stroke-width="3.0" fill="none" stroke="rgb(0, 0, 0)" stroke-opacity="1.0" stroke-linecap="round" stroke-linejoin="round"/>
    <path d="M 48.64695739746094 105.91376495361328 C 52.96033477783203 110.53065490722656 48.11109161376953 104.29132843017578 50.21693420410156 109.03875732421875" stroke-width="3.0" fill="none" stroke="rgb(0, 0, 0)" stroke-opacity="1.0" stroke-linecap="round" stroke-linejoin="round"/>
    <path d="M 182.8774871826172 98.41856384277344 C 158.91714477539062 90.9083251953125 172.97447204589844 80.85739135742188 195.90914916992188 112.03455352783203" stroke-width="3.0" fill="none" stroke="rgb(0, 0, 0)" stroke-opacity="1.0" stroke-linecap="round" stroke-linejoin="round"/>
    <path d="M 185.0147705078125 71.69404602050781 C 182.55787658691406 79.26564025878906 173.47445678710938 75.19544982910156 184.1815185546875 66.91383361816406" stroke-width="3.0" fill="none" stroke="rgb(0, 0, 0)" stroke-opacity="1.0" stroke-linecap="round" stroke-linejoin="round"/>
    <path d="M 130.3637237548828 99.28366088867188 C 129.09945678710938 111.49114227294922 116.64286804199219 100.81494903564453 134.76234436035156 104.01749420166016" stroke-width="3.0" fill="none" stroke="rgb(0, 0, 0)" stroke-opacity="1.0" stroke-linecap="round" stroke-linejoin="round"/>
    <path d="M 174.12759399414062 84.2010269165039 C 199.20668029785156 62.976829528808594 186.70135498046875 67.55830383300781 159.23269653320312 86.78585052490234" stroke-width="3.0" fill="none" stroke="rgb(0, 0, 0)" stroke-opacity="1.0" stroke-linecap="round" stroke-linejoin="round"/>
    <path d="M 57.08911895751953 184.7271728515625 C 37.256309509277344 152.7185516357422 46.153564453125 162.7362060546875 43.250518798828125 161.0107421875" stroke-width="3.0" fill="none" stroke="rgb(0, 0, 0)" stroke-opacity="1.0" stroke-linecap="round" stroke-linejoin="round"/>
    <path d="M 68.66667175292969 189.0106658935547 C 92.0759048461914 197.62367248535156 114.0257568359375 195.32229614257812 104.483642578125 189.21713256835938" stroke-width="3.0" fill="none" stroke="rgb(0, 0, 0)" stroke-opacity="1.0" stroke-linecap="round" stroke-linejoin="round"/>
    <path d="M 90.32150268554688 24.138885498046875 C 93.02444458007812 56.50641632080078 94.82942199707031 29.792098999023438 92.08320617675781 53.04103088378906" stroke-width="3.0" fill="none" stroke="rgb(0, 0, 0)" stroke-opacity="1.0" stroke-linecap="round" stroke-linejoin="round"/>
    <path d="M 60.38312530517578 127.47625732421875 C 69.5699462890625 142.04666137695312 80.44151306152344 146.072021484375 82.88815307617188 148.0556640625" stroke-width="3.0" fill="none" stroke="rgb(0, 0, 0)" stroke-opacity="1.0" stroke-linecap="round" stroke-linejoin="round"/>
    <path d="M 162.61318969726562 79.40426635742188 C 189.1114044189453 73.21488189697266 173.18341064453125 83.7939453125 147.04466247558594 90.51598358154297" stroke-width="3.0" fill="none" stroke="rgb(0, 0, 0)" stroke-opacity="1.0" stroke-linecap="round" stroke-linejoin="round"/>
    <path d="M 159.3143310546875 101.53712463378906 C 174.1944122314453 99.75043487548828 166.7388153076172 102.35562133789062 186.65550231933594 106.56809997558594" stroke-width="3.0" fill="none" stroke="rgb(0, 0, 0)" stroke-opacity="1.0" stroke-linecap="round" stroke-linejoin="round"/>
    <path d="M 89.89218139648438 163.47119140625 C 103.3984603881836 178.5345916748047 94.67308044433594 184.85317993164062 104.51870727539062 189.0538330078125" stroke-width="3.0" fill="none" stroke="rgb(0, 0, 0)" stroke-opacity="1.0" stroke-linecap="round" stroke-linejoin="round"/>
    <path d="M 171.72430419921875 10.022364616394043 C 186.33775329589844 3.429763078689575 182.53746032714844 24.72075843811035 181.5695343017578 61.6858024597168" stroke-width="3.0" fill="none" stroke="rgb(0, 0, 0)" stroke-opacity="1.0" stroke-linecap="round" stroke-linejoin="round"/>
    <path d="M 129.89044189453125 32.4133186340332 C 126.69467163085938 61.246280670166016 128.6442108154297 41.891632080078125 129.63441467285156 61.66746520996094" stroke-width="3.0" fill="none" stroke="rgb(0, 0, 0)" stroke-opacity="1.0" stroke-linecap="round" stroke-linejoin="round"/>
    <path d="M 97.3641128540039 50.08260726928711 C 73.06953430175781 -4.960033893585205 87.92391204833984 3.992135524749756 107.54247283935547 44.33466720581055" stroke-width="3.0" fill="none" stroke="rgb(0, 0, 0)" stroke-opacity="1.0" stroke-linecap="round" stroke-linejoin="round"/>
    <path d="M 47.77973556518555 170.40931701660156 C 41.192237854003906 158.64561462402344 50.539154052734375 160.84967041015625 44.66644287109375 163.8428497314453" stroke-width="3.0" fill="none" stroke="rgb(0, 0, 0)" stroke-opacity="1.0" stroke-linecap="round" stroke-linejoin="round"/>
    <path d="M 35.22910690307617 110.01214599609375 C 28.521743774414062 128.06919860839844 37.503971099853516 139.39207458496094 44.34190368652344 158.39991760253906" stroke-width="3.0" fill="none" stroke="rgb(0, 0, 0)" stroke-opacity="1.0" stroke-linecap="round" stroke-linejoin="round"/>
    <path d="M 80.38310241699219 152.48707580566406 C 89.109130859375 163.97976684570312 91.54524230957031 165.165771484375 84.52010345458984 157.818359375" stroke-width="3.0" fill="none" stroke="rgb(0, 0, 0)" stroke-opacity="1.0" stroke-linecap="round" stroke-linejoin="round"/>
    <path d="M 76.02645874023438 193.9609375 C 50.7364387512207 180.2066650390625 73.4439697265625 191.25802612304688 49.0294075012207 176.8314666748047" stroke-width="3.0" fill="none" stroke="rgb(0, 0, 0)" stroke-opacity="1.0" stroke-linecap="round" stroke-linejoin="round"/>
    <path d="M 41.17079544067383 156.63755798339844 C 47.805545806884766 169.1952362060547 45.663360595703125 153.6368865966797 39.25112533569336 145.173828125" stroke-width="3.0" fill="none" stroke="rgb(0, 0, 0)" stroke-opacity="1.0" stroke-linecap="round" stroke-linejoin="round"/>
    <path d="M 66.62452697753906 59.89215087890625 C 48.33149337768555 74.90916442871094 49.82733154296875 73.77009582519531 34.160682678222656 105.39541625976562" stroke-width="3.0" fill="none" stroke="rgb(0, 0, 0)" stroke-opacity="1.0" stroke-linecap="round" stroke-linejoin="round"/>
    <path d="M 144.31591796875 158.7855682373047 C 138.9727783203125 162.06365966796875 129.48526000976562 150.1956787109375 138.67147827148438 164.86961364746094" stroke-width="3.0" fill="none" stroke="rgb(0, 0, 0)" stroke-opacity="1.0" stroke-linecap="round" stroke-linejoin="round"/>
    <path d="M 142.77487182617188 31.696651458740234 C 151.60537719726562 56.82882308959961 133.9633026123047 51.315040588378906 141.6400604248047 83.49352264404297" stroke-width="3.0" fill="none" stroke="rgb(0, 0, 0)" stroke-opacity="1.0" stroke-linecap="round" stroke-linejoin="round"/>
    <path d="M 144.9959259033203 100.7430419921875 C 130.4400634765625 112.7684555053711 116.31177520751953 104.35494232177734 128.53204345703125 102.2127456665039" stroke-width="3.0" fill="none" stroke="rgb(0, 0, 0)" stroke-opacity="1.0" stroke-linecap="round" stroke-linejoin="round"/>
    <path d="M 140.7345428466797 74.87718963623047 C 146.26919555664062 51.648841857910156 149.5886993408203 56.36910629272461 153.29493713378906 47.17448425292969" stroke-width="3.0" fill="none" stroke="rgb(0, 0, 0)" stroke-opacity="1.0" stroke-linecap="round" stroke-linejoin="round"/>
    <path d="M 112.07559967041016 192.20523071289062 C 89.2138900756836 186.5614013671875 105.79336547851562 209.95423889160156 134.9597930908203 175.29385375976562" stroke-width="3.0" fill="none" stroke="rgb(0, 0, 0)" stroke-opacity="1.0" stroke-linecap="round" stroke-linejoin="round"/>
    <path d="M 186.00328063964844 86.74254608154297 C 155.46234130859375 80.16816711425781 157.1398162841797 88.86221313476562 177.5272216796875 86.26004028320312" stroke-width="3.0" fill="none" stroke="rgb(0, 0, 0)" stroke-opacity="1.0" stroke-linecap="round" stroke-linejoin="round"/>
    <path d="M 170.55572509765625 86.662109375 C 195.55711364746094 78.22789764404297 198.8630828857422 82.29347229003906 163.20639038085938 83.55152893066406" stroke-width="3.0" fill="none" stroke="rgb(0, 0, 0)" stroke-opacity="1.0" stroke-linecap="round" stroke-linejoin="round"/>
    <path d="M 111.40237426757812 79.27320861816406 C 90.77851867675781 70.88140106201172 139.90151977539062 74.81066131591797 107.22801971435547 80.83448028564453" stroke-width="3.0" fill="none" stroke="rgb(0, 0, 0)" stroke-opacity="1.0" stroke-linecap="round" stroke-linejoin="round"/>
    <path d="M 137.0686798095703 158.93792724609375 C 141.5812530517578 155.23472595214844 126.6031265258789 157.88595581054688 104.25194549560547 140.4226531982422" stroke-width="3.0" fill="none" stroke="rgb(0, 0, 0)" stroke-opacity="1.0" stroke-linecap="round" stroke-linejoin="round"/>
    <path d="M 122.97572326660156 89.0055160522461 C 139.0726776123047 101.17230224609375 137.798828125 75.70838928222656 128.52940368652344 96.21791076660156" stroke-width="3.0" fill="none" stroke="rgb(0, 0, 0)" stroke-opacity="1.0" stroke-linecap="round" stroke-linejoin="round"/>
    <path d="M 186.9576416015625 93.82771301269531 C 171.21380615234375 85.0181884765625 187.593505859375 95.8913345336914 143.20120239257812 88.82485961914062" stroke-width="3.0" fill="none" stroke="rgb(0, 0, 0)" stroke-opacity="1.0" stroke-linecap="round" stroke-linejoin="round"/>
    <path d="M 85.9696044921875 11.31788158416748 C 109.80230712890625 19.373205184936523 113.3259506225586 36.75279235839844 122.2353286743164 32.794776916503906" stroke-width="3.0" fill="none" stroke="rgb(0, 0, 0)" stroke-opacity="1.0" stroke-linecap="round" stroke-linejoin="round"/>
    <path d="M 52.15805435180664 113.10590362548828 C 49.12682342529297 109.5835952758789 61.111671447753906 121.233642578125 53.04860305786133 112.75025939941406" stroke-width="3.0" fill="none" stroke="rgb(0, 0, 0)" stroke-opacity="1.0" stroke-linecap="round" stroke-linejoin="round"/>
    <path d="M 118.39232635498047 103.11595916748047 C 90.86347198486328 98.98837280273438 126.66069793701172 103.5816421508789 101.63920593261719 94.79566192626953" stroke-width="3.0" fill="none" stroke="rgb(0, 0, 0)" stroke-opacity="1.0" stroke-linecap="round" stroke-linejoin="round"/>
    <path d="M 32.95361328125 117.94718933105469 C 33.79072189331055 96.0335464477539 35.56578826904297 107.19850158691406 32.32780456542969 114.53433990478516" stroke-width="3.0" fill="none" stroke="rgb(0, 0, 0)" stroke-opacity="1.0" stroke-linecap="round" stroke-linejoin="round"/>
    <path d="M 85.78192138671875 193.22967529296875 C 73.62468719482422 195.50979614257812 74.57966613769531 190.02406311035156 90.05986022949219 194.1354217529297" stroke-width="3.0" fill="none" stroke="rgb(0, 0, 0)" stroke-opacity="1.0" stroke-linecap="round" stroke-linejoin="round"/>
    <path d="M 162.5764617919922 133.0995635986328 C 207.1191864013672 115.00092315673828 177.3715362548828 95.97725677490234 150.74761962890625 93.96014404296875" stroke-width="3.0" fill="none" stroke="rgb(0, 0, 0)" stroke-opacity="1.0" stroke-linecap="round" stroke-linejoin="round"/>
    <path d="M 155.94107055664062 73.59115600585938 C 131.50534057617188 63.444576263427734 167.15635681152344 90.1614761352539 155.37037658691406 71.03529357910156" stroke-width="3.0" fill="none" stroke="rgb(0, 0, 0)" stroke-opacity="1.0" stroke-linecap="round" stroke-linejoin="round"/>
    <path d="M 147.98974609375 77.60194396972656 C 146.0369110107422 56.046974182128906 169.2442169189453 84.30764770507812 183.57176208496094 65.19961547851562" stroke-width="3.0" fill="none" stroke="rgb(0, 0, 0)" stroke-opacity="1.0" stroke-linecap="round" stroke-linejoin="round"/>
    <path d="M 150.10084533691406 98.14175415039062 C 156.99334716796875 96.32913208007812 170.65887451171875 107.96891784667969 183.51556396484375 114.34456634521484" stroke-width="3.0" fill="none" stroke="rgb(0, 0, 0)" stroke-opacity="1.0" stroke-linecap="round" stroke-linejoin="round"/>
    <path d="M 177.31553649902344 15.068440437316895 C 172.71835327148438 41.98291778564453 174.22116088867188 27.81279182434082 166.19956970214844 37.675941467285156" stroke-width="3.0" fill="none" stroke="rgb(0, 0, 0)" stroke-opacity="1.0" stroke-linecap="round" stroke-linejoin="round"/>
    <path d="M 124.85751342773438 103.81439971923828 C 148.13328552246094 108.20319366455078 131.0440216064453 93.36103820800781 112.2205581665039 108.63978576660156" stroke-width="3.0" fill="none" stroke="rgb(0, 0, 0)" stroke-opacity="1.0" stroke-linecap="round" stroke-linejoin="round"/>
    <path d="M 49.99114227294922 108.15617370605469 C 53.38153839111328 110.56855010986328 49.23783874511719 104.55166625976562 61.69369888305664 128.90196228027344" stroke-width="3.0" fill="none" stroke="rgb(0, 0, 0)" stroke-opacity="1.0" stroke-linecap="round" stroke-linejoin="round"/>
    <path d="M 123.404052734375 82.628173828125 C 130.53347778320312 60.61900329589844 112.02645111083984 51.43874740600586 120.01361083984375 37.50939178466797" stroke-width="3.0" fill="none" stroke="rgb(0, 0, 0)" stroke-opacity="1.0" stroke-linecap="round" stroke-linejoin="round"/>
    <path d="M 147.6725616455078 31.049100875854492 C 152.97068786621094 31.14828872680664 150.43466186523438 19.453580856323242 174.5327606201172 8.908319473266602" stroke-width="3.0" fill="none" stroke="rgb(0, 0, 0)" stroke-opacity="1.0" stroke-linecap="round" stroke-linejoin="round"/>
  </g>
</svg>
