<?xml version="1.0" ?>
<svg xmlns="http://www.w3.org/2000/svg" version="1.1" width="224" height="224">
  <defs/>
  <g>
    <path d="M 64.96510314941406 81.39607238769531 C 65.32136535644531 81.57723236083984 67.37710571289062 82.95232391357422 55.6462287902832 74.61176300048828" stroke-width="3.0" fill="none" stroke="rgb(0, 0, 0)" stroke-opacity="1.0" stroke-linecap="round" stroke-linejoin="round"/>
    <path d="M 185.56771850585938 120.48889923095703 C 179.43197631835938 114.12659454345703 199.62518310546875 94.9681167602539 178.3868865966797 127.34766387939453" stroke-width="3.0" fill="none" stroke="rgb(0, 0, 0)" stroke-opacity="1.0" stroke-linecap="round" stroke-linejoin="round"/>
    <path d="M 62.0202522277832 127.37666320800781 C 52.221527099609375 97.6466293334961 52.62271499633789 125.7697982788086 66.19863891601562 128.1807403564453" stroke-width="3.0" fill="none" stroke="rgb(0, 0, 0)" stroke-opacity="1.0" stroke-linecap="round" stroke-linejoin="round"/>
    <path d="M 183.00340270996094 97.69154357910156 C 153.62429809570312 84.14290618896484 174.1156463623047 82.05948638916016 196.05526733398438 114.6375732421875" stroke-width="3.0" fill="none" stroke="rgb(0, 0, 0)" stroke-opacity="1.0" stroke-linecap="round" stroke-linejoin="round"/>
    <path d="M 181.80296325683594 58.50021743774414 C 174.32090759277344 110.63875579833984 179.2997283935547 96.58747100830078 184.3910675048828 66.56920623779297" stroke-width="3.0" fill="none" stroke="rgb(0, 0, 0)" stroke-opacity="1.0" stroke-linecap="round" stroke-linejoin="round"/>
    <path d="M 123.27680206298828 102.94390869140625 C 145.39846801757812 116.18424987792969 99.71516418457031 98.16889190673828 135.9852752685547 102.96356964111328" stroke-width="3.0" fill="none" stroke="rgb(0, 0, 0)" stroke-opacity="1.0" stroke-linecap="round" stroke-linejoin="round"/>
    <path d="M 173.22401428222656 100.19623565673828 C 189.2510986328125 84.71001434326172 176.7144012451172 70.38919067382812 158.58908081054688 85.61618041992188" stroke-width="3.0" fill="none" stroke="rgb(0, 0, 0)" stroke-opacity="1.0" stroke-linecap="round" stroke-linejoin="round"/>
    <path d="M 57.980350494384766 184.058349609375 C 38.26443862915039 154.58009338378906 46.76031494140625 167.46807861328125 50.27947235107422 173.64476013183594" stroke-width="3.0" fill="none" stroke="rgb(0, 0, 0)" stroke-opacity="1.0" stroke-linecap="round" stroke-linejoin="round"/>
    <path d="M 58.94013214111328 182.8893585205078 C 90.2210464477539 209.52183532714844 111.76505279541016 195.0092315673828 132.06234741210938 178.16488647460938" stroke-width="3.0" fill="none" stroke="rgb(0, 0, 0)" stroke-opacity="1.0" stroke-linecap="round" stroke-linejoin="round"/>
    <path d="M 88.36628723144531 32.32685852050781 C 100.17288208007812 66.60973358154297 83.06080627441406 8.980057716369629 84.56031036376953 53.28995895385742" stroke-width="3.0" fill="none" stroke="rgb(0, 0, 0)" stroke-opacity="1.0" stroke-linecap="round" stroke-linejoin="round"/>
    <path d="M 53.925567626953125 111.71638488769531 C 60.13784408569336 135.9287567138672 97.49053192138672 159.1211395263672 96.72335052490234 157.57562255859375" stroke-width="3.0" fill="none" stroke="rgb(0, 0, 0)" stroke-opacity="1.0" stroke-linecap="round" stroke-linejoin="round"/>
    <path d="M 142.48963928222656 75.06452178955078 C 205.66952514648438 61.198219299316406 189.6044158935547 81.17432403564453 151.35699462890625 86.21822357177734" stroke-width="3.0" fill="none" stroke="rgb(0, 0, 0)" stroke-opacity="1.0" stroke-linecap="round" stroke-linejoin="round"/>
    <path d="M 151.07635498046875 96.25051879882812 C 182.87144470214844 102.10696411132812 173.6788787841797 104.50990295410156 192.71481323242188 113.24961853027344" stroke-width="3.0" fill="none" stroke="rgb(0, 0, 0)" stroke-opacity="1.0" stroke-linecap="round" stroke-linejoin="round"/>
    <path d="M 124.11508178710938 155.275146484375 C 144.60328674316406 145.43870544433594 119.36302185058594 162.1434783935547 122.5437240600586 150.8459930419922" stroke-width="3.0" fill="none" stroke="rgb(0, 0, 0)" stroke-opacity="1.0" stroke-linecap="round" stroke-linejoin="round"/>
    <path d="M 177.91819763183594 8.653319358825684 C 188.5585174560547 22.203767776489258 174.52235412597656 60.06591796875 180.20428466796875 50.07822036743164" stroke-width="3.0" fill="none" stroke="rgb(0, 0, 0)" stroke-opacity="1.0" stroke-linecap="round" stroke-linejoin="round"/>
    <path d="M 131.0631103515625 31.30301284790039 C 122.94107818603516 57.595584869384766 131.4067840576172 41.91299057006836 124.94595336914062 68.34258270263672" stroke-width="3.0" fill="none" stroke="rgb(0, 0, 0)" stroke-opacity="1.0" stroke-linecap="round" stroke-linejoin="round"/>
    <path d="M 90.03290557861328 51.12930679321289 C 75.54904174804688 -8.210841178894043 80.87187194824219 0.5877284407615662 107.42440032958984 43.51594543457031" stroke-width="3.0" fill="none" stroke="rgb(0, 0, 0)" stroke-opacity="1.0" stroke-linecap="round" stroke-linejoin="round"/>
    <path d="M 45.99522018432617 164.81224060058594 C 40.542030334472656 153.9699249267578 38.0201301574707 147.56202697753906 43.28520202636719 163.4253387451172" stroke-width="3.0" fill="none" stroke="rgb(0, 0, 0)" stroke-opacity="1.0" stroke-linecap="round" stroke-linejoin="round"/>
    <path d="M 35.50025177001953 102.29409790039062 C 23.18772315979004 124.64153289794922 37.711063385009766 147.1344451904297 39.86907196044922 151.78089904785156" stroke-width="3.0" fill="none" stroke="rgb(0, 0, 0)" stroke-opacity="1.0" stroke-linecap="round" stroke-linejoin="round"/>
    <path d="M 95.80780029296875 154.136962890625 C 101.54000854492188 160.32237243652344 112.63978576660156 157.0363006591797 102.5025405883789 153.4895782470703" stroke-width="3.0" fill="none" stroke="rgb(0, 0, 0)" stroke-opacity="1.0" stroke-linecap="round" stroke-linejoin="round"/>
    <path d="M 82.17049407958984 196.64599609375 C 68.8600845336914 199.95989990234375 54.9059944152832 174.6021270751953 48.147254943847656 172.36505126953125" stroke-width="3.0" fill="none" stroke="rgb(0, 0, 0)" stroke-opacity="1.0" stroke-linecap="round" stroke-linejoin="round"/>
    <path d="M 46.83635330200195 165.83091735839844 C 59.588436126708984 192.2555389404297 44.22249984741211 163.58250427246094 38.19270706176758 146.961669921875" stroke-width="3.0" fill="none" stroke="rgb(0, 0, 0)" stroke-opacity="1.0" stroke-linecap="round" stroke-linejoin="round"/>
    <path d="M 80.77508544921875 57.541725158691406 C 61.96257400512695 56.763648986816406 50.70236587524414 75.25923919677734 33.15900802612305 104.83795928955078" stroke-width="3.0" fill="none" stroke="rgb(0, 0, 0)" stroke-opacity="1.0" stroke-linecap="round" stroke-linejoin="round"/>
    <path d="M 149.27978515625 141.49990844726562 C 127.7547836303711 156.84555053710938 117.6592025756836 147.87469482421875 130.9438934326172 153.9117889404297" stroke-width="3.0" fill="none" stroke="rgb(0, 0, 0)" stroke-opacity="1.0" stroke-linecap="round" stroke-linejoin="round"/>
    <path d="M 140.35850524902344 31.052661895751953 C 146.7274932861328 60.95867919921875 134.94418334960938 53.91012191772461 134.66798400878906 80.47007751464844" stroke-width="3.0" fill="none" stroke="rgb(0, 0, 0)" stroke-opacity="1.0" stroke-linecap="round" stroke-linejoin="round"/>
    <path d="M 148.74960327148438 99.40411376953125 C 118.92201232910156 111.757080078125 141.5724334716797 109.19718170166016 135.04812622070312 103.57211303710938" stroke-width="3.0" fill="none" stroke="rgb(0, 0, 0)" stroke-opacity="1.0" stroke-linecap="round" stroke-linejoin="round"/>
    <path d="M 135.89019775390625 74.71642303466797 C 145.8673858642578 56.989990234375 130.65760803222656 58.78740692138672 136.2707977294922 73.8696517944336" stroke-width="3.0" fill="none" stroke="rgb(0, 0, 0)" stroke-opacity="1.0" stroke-linecap="round" stroke-linejoin="round"/>
    <path d="M 136.69960021972656 175.14869689941406 C 124.66503143310547 184.61502075195312 139.29380798339844 179.05332946777344 145.47853088378906 152.0684814453125" stroke-width="3.0" fill="none" stroke="rgb(0, 0, 0)" stroke-opacity="1.0" stroke-linecap="round" stroke-linejoin="round"/>
    <path d="M 195.39076232910156 96.64070892333984 C 167.30030822753906 72.69853973388672 156.10818481445312 81.79869842529297 184.20819091796875 85.95355987548828" stroke-width="3.0" fill="none" stroke="rgb(0, 0, 0)" stroke-opacity="1.0" stroke-linecap="round" stroke-linejoin="round"/>
    <path d="M 146.83351135253906 78.28300476074219 C 161.99612426757812 60.66737365722656 193.01588439941406 84.31352233886719 179.06832885742188 66.62135314941406" stroke-width="3.0" fill="none" stroke="rgb(0, 0, 0)" stroke-opacity="1.0" stroke-linecap="round" stroke-linejoin="round"/>
    <path d="M 114.4670181274414 83.90322875976562 C 87.15640258789062 77.2500991821289 139.27801513671875 74.08549499511719 108.38690185546875 83.97402954101562" stroke-width="3.0" fill="none" stroke="rgb(0, 0, 0)" stroke-opacity="1.0" stroke-linecap="round" stroke-linejoin="round"/>
    <path d="M 151.9794921875 135.9737091064453 C 135.69088745117188 170.49794006347656 113.02360534667969 149.2047882080078 103.33394622802734 156.762451171875" stroke-width="3.0" fill="none" stroke="rgb(0, 0, 0)" stroke-opacity="1.0" stroke-linecap="round" stroke-linejoin="round"/>
    <path d="M 124.31600952148438 91.28280639648438 C 140.90740966796875 101.62764739990234 134.1636199951172 69.78314971923828 128.16122436523438 105.27342224121094" stroke-width="3.0" fill="none" stroke="rgb(0, 0, 0)" stroke-opacity="1.0" stroke-linecap="round" stroke-linejoin="round"/>
    <path d="M 190.92344665527344 111.77163696289062 C 180.5374755859375 82.03691864013672 189.0894775390625 91.90158081054688 142.08042907714844 83.89718627929688" stroke-width="3.0" fill="none" stroke="rgb(0, 0, 0)" stroke-opacity="1.0" stroke-linecap="round" stroke-linejoin="round"/>
    <path d="M 87.04251098632812 6.742084980010986 C 101.0021743774414 12.76838207244873 116.84353637695312 30.432449340820312 116.76866149902344 29.472623825073242" stroke-width="3.0" fill="none" stroke="rgb(0, 0, 0)" stroke-opacity="1.0" stroke-linecap="round" stroke-linejoin="round"/>
    <path d="M 59.95875930786133 125.25797271728516 C 55.20810317993164 114.93582916259766 64.62621307373047 132.56655883789062 59.82492446899414 121.22589111328125" stroke-width="3.0" fill="none" stroke="rgb(0, 0, 0)" stroke-opacity="1.0" stroke-linecap="round" stroke-linejoin="round"/>
    <path d="M 137.45408630371094 105.2291488647461 C 120.76071166992188 94.83880615234375 120.70652770996094 117.72557830810547 110.37551879882812 91.77433013916016" stroke-width="3.0" fill="none" stroke="rgb(0, 0, 0)" stroke-opacity="1.0" stroke-linecap="round" stroke-linejoin="round"/>
    <path d="M 31.365148544311523 132.6861572265625 C 27.347761154174805 102.03465270996094 39.73283386230469 108.01590728759766 40.632381439208984 94.9362564086914" stroke-width="3.0" fill="none" stroke="rgb(0, 0, 0)" stroke-opacity="1.0" stroke-linecap="round" stroke-linejoin="round"/>
    <path d="M 80.75518035888672 194.57879638671875 C 72.59319305419922 193.5848388671875 68.41092681884766 194.39877319335938 95.1565933227539 196.68324279785156" stroke-width="3.0" fill="none" stroke="rgb(0, 0, 0)" stroke-opacity="1.0" stroke-linecap="round" stroke-linejoin="round"/>
    <path d="M 154.9575958251953 134.67465209960938 C 207.83505249023438 116.52093505859375 182.19766235351562 95.9102783203125 155.8507537841797 90.5051040649414" stroke-width="3.0" fill="none" stroke="rgb(0, 0, 0)" stroke-opacity="1.0" stroke-linecap="round" stroke-linejoin="round"/>
    <path d="M 155.91676330566406 71.84574127197266 C 122.40471649169922 83.30058288574219 173.59005737304688 83.80979919433594 145.83404541015625 70.39948272705078" stroke-width="3.0" fill="none" stroke="rgb(0, 0, 0)" stroke-opacity="1.0" stroke-linecap="round" stroke-linejoin="round"/>
    <path d="M 139.73451232910156 80.5129623413086 C 146.8435821533203 43.3331184387207 195.218017578125 114.56405639648438 180.0207061767578 44.558570861816406" stroke-width="3.0" fill="none" stroke="rgb(0, 0, 0)" stroke-opacity="1.0" stroke-linecap="round" stroke-linejoin="round"/>
    <path d="M 157.2877960205078 97.88510131835938 C 169.73228454589844 104.834716796875 173.49957275390625 102.49932098388672 182.20895385742188 117.52189636230469" stroke-width="3.0" fill="none" stroke="rgb(0, 0, 0)" stroke-opacity="1.0" stroke-linecap="round" stroke-linejoin="round"/>
    <path d="M 178.09207153320312 18.502769470214844 C 173.67832946777344 41.9569091796875 176.0081329345703 24.69527816772461 159.9875946044922 37.034793853759766" stroke-width="3.0" fill="none" stroke="rgb(0, 0, 0)" stroke-opacity="1.0" stroke-linecap="round" stroke-linejoin="round"/>
    <path d="M 117.43614196777344 104.0728988647461 C 141.9479217529297 103.10936737060547 129.9125213623047 114.67943572998047 119.03622436523438 104.06515502929688" stroke-width="3.0" fill="none" stroke="rgb(0, 0, 0)" stroke-opacity="1.0" stroke-linecap="round" stroke-linejoin="round"/>
    <path d="M 77.11813354492188 138.20654296875 C 49.625877380371094 119.9144058227539 57.527530670166016 108.93579864501953 59.25926971435547 124.22894287109375" stroke-width="3.0" fill="none" stroke="rgb(0, 0, 0)" stroke-opacity="1.0" stroke-linecap="round" stroke-linejoin="round"/>
    <path d="M 123.67166900634766 76.16122436523438 C 126.5814208984375 36.08997344970703 114.88719940185547 54.53360366821289 122.26547241210938 30.292068481445312" stroke-width="3.0" fill="none" stroke="rgb(0, 0, 0)" stroke-opacity="1.0" stroke-linecap="round" stroke-linejoin="round"/>
    <path d="M 146.94468688964844 30.387863159179688 C 143.1236114501953 38.54417037963867 159.3751220703125 9.697556495666504 178.3416748046875 8.370970726013184" stroke-width="3.0" fill="none" stroke="rgb(0, 0, 0)" stroke-opacity="1.0" stroke-linecap="round" stroke-linejoin="round"/>
  </g>
</svg>
