<?xml version="1.0" ?>
<svg xmlns="http://www.w3.org/2000/svg" version="1.1" width="224" height="224">
  <defs/>
  <g>
    <path d="M 55.4119987487793 114.6148681640625 C 59.95389175415039 115.52413940429688 47.06365966796875 103.80274963378906 45.383338928222656 82.0514144897461" stroke-width="3.0" fill="none" stroke="rgb(0, 0, 0)" stroke-opacity="1.0" stroke-linecap="round" stroke-linejoin="round"/>
    <path d="M 181.98614501953125 125.44306182861328 C 179.0745086669922 114.50215148925781 187.39535522460938 116.89744567871094 182.89138793945312 115.56925201416016" stroke-width="3.0" fill="none" stroke="rgb(0, 0, 0)" stroke-opacity="1.0" stroke-linecap="round" stroke-linejoin="round"/>
    <path d="M 58.95640182495117 114.5774154663086 C 52.77813720703125 114.63091278076172 52.11817932128906 105.57612609863281 58.749969482421875 122.78612518310547" stroke-width="3.0" fill="none" stroke="rgb(0, 0, 0)" stroke-opacity="1.0" stroke-linecap="round" stroke-linejoin="round"/>
    <path d="M 183.04608154296875 95.7654037475586 C 156.62742614746094 87.73963928222656 167.8899383544922 88.37309265136719 194.17214965820312 111.63922882080078" stroke-width="3.0" fill="none" stroke="rgb(0, 0, 0)" stroke-opacity="1.0" stroke-linecap="round" stroke-linejoin="round"/>
    <path d="M 181.9846649169922 72.29558563232422 C 180.8926239013672 95.94786071777344 183.2297821044922 94.24226379394531 183.9757537841797 64.41570281982422" stroke-width="3.0" fill="none" stroke="rgb(0, 0, 0)" stroke-opacity="1.0" stroke-linecap="round" stroke-linejoin="round"/>
    <path d="M 129.17709350585938 101.55360412597656 C 150.9643096923828 99.81848907470703 104.9660415649414 97.65885925292969 136.4478759765625 106.22809600830078" stroke-width="3.0" fill="none" stroke="rgb(0, 0, 0)" stroke-opacity="1.0" stroke-linecap="round" stroke-linejoin="round"/>
    <path d="M 172.50347900390625 100.18876647949219 C 203.1334991455078 76.69761657714844 172.69114685058594 69.59107208251953 155.885009765625 84.898193359375" stroke-width="3.0" fill="none" stroke="rgb(0, 0, 0)" stroke-opacity="1.0" stroke-linecap="round" stroke-linejoin="round"/>
    <path d="M 53.797080993652344 178.2349395751953 C 35.45647048950195 162.64828491210938 53.288551330566406 163.7039031982422 45.4622688293457 162.12254333496094" stroke-width="3.0" fill="none" stroke="rgb(0, 0, 0)" stroke-opacity="1.0" stroke-linecap="round" stroke-linejoin="round"/>
    <path d="M 63.240108489990234 191.88681030273438 C 86.6324234008789 207.75311279296875 109.22837829589844 200.0135040283203 120.77039337158203 189.21498107910156" stroke-width="3.0" fill="none" stroke="rgb(0, 0, 0)" stroke-opacity="1.0" stroke-linecap="round" stroke-linejoin="round"/>
    <path d="M 91.35726165771484 40.725852966308594 C 92.76040649414062 52.64072799682617 83.49566650390625 14.405187606811523 85.33482360839844 52.369781494140625" stroke-width="3.0" fill="none" stroke="rgb(0, 0, 0)" stroke-opacity="1.0" stroke-linecap="round" stroke-linejoin="round"/>
    <path d="M 61.759788513183594 126.2453842163086 C 59.131099700927734 140.47828674316406 90.93218231201172 151.4582977294922 101.61935424804688 155.9633331298828" stroke-width="3.0" fill="none" stroke="rgb(0, 0, 0)" stroke-opacity="1.0" stroke-linecap="round" stroke-linejoin="round"/>
    <path d="M 151.36453247070312 69.4491958618164 C 210.23272705078125 73.26348876953125 182.21597290039062 78.02605438232422 147.53793334960938 84.30888366699219" stroke-width="3.0" fill="none" stroke="rgb(0, 0, 0)" stroke-opacity="1.0" stroke-linecap="round" stroke-linejoin="round"/>
    <path d="M 149.24342346191406 98.6539306640625 C 176.21400451660156 100.45342254638672 176.864990234375 99.6849594116211 186.0425567626953 112.17509460449219" stroke-width="3.0" fill="none" stroke="rgb(0, 0, 0)" stroke-opacity="1.0" stroke-linecap="round" stroke-linejoin="round"/>
    <path d="M 107.81229400634766 160.9048309326172 C 143.1977081298828 150.3052978515625 108.27072143554688 161.23648071289062 114.69359588623047 151.44459533691406" stroke-width="3.0" fill="none" stroke="rgb(0, 0, 0)" stroke-opacity="1.0" stroke-linecap="round" stroke-linejoin="round"/>
    <path d="M 174.13462829589844 9.356307983398438 C 191.65005493164062 -0.7059359550476074 173.9578857421875 55.71482467651367 182.572998046875 56.61647033691406" stroke-width="3.0" fill="none" stroke="rgb(0, 0, 0)" stroke-opacity="1.0" stroke-linecap="round" stroke-linejoin="round"/>
    <path d="M 130.9249725341797 30.846033096313477 C 124.4034423828125 55.40005874633789 133.80247497558594 38.74425506591797 127.94573974609375 69.52535247802734" stroke-width="3.0" fill="none" stroke="rgb(0, 0, 0)" stroke-opacity="1.0" stroke-linecap="round" stroke-linejoin="round"/>
    <path d="M 89.02896881103516 49.156578063964844 C 74.37505340576172 -7.726501941680908 83.82058715820312 -1.6259692907333374 105.78276062011719 38.372745513916016" stroke-width="3.0" fill="none" stroke="rgb(0, 0, 0)" stroke-opacity="1.0" stroke-linecap="round" stroke-linejoin="round"/>
    <path d="M 45.54346466064453 162.40481567382812 C 41.887996673583984 153.05886840820312 36.492225646972656 147.6502227783203 37.63703536987305 147.03060913085938" stroke-width="3.0" fill="none" stroke="rgb(0, 0, 0)" stroke-opacity="1.0" stroke-linecap="round" stroke-linejoin="round"/>
    <path d="M 32.476844787597656 108.5881576538086 C 26.671091079711914 125.76712799072266 36.49228286743164 144.28555297851562 42.34552764892578 156.41847229003906" stroke-width="3.0" fill="none" stroke="rgb(0, 0, 0)" stroke-opacity="1.0" stroke-linecap="round" stroke-linejoin="round"/>
    <path d="M 87.4515380859375 147.70925903320312 C 101.13195037841797 159.85760498046875 103.83051300048828 159.62449645996094 106.24259948730469 158.4947052001953" stroke-width="3.0" fill="none" stroke="rgb(0, 0, 0)" stroke-opacity="1.0" stroke-linecap="round" stroke-linejoin="round"/>
    <path d="M 76.3138427734375 197.6072235107422 C 53.985477447509766 186.4104461669922 56.54612731933594 185.48167419433594 48.066776275634766 173.09422302246094" stroke-width="3.0" fill="none" stroke="rgb(0, 0, 0)" stroke-opacity="1.0" stroke-linecap="round" stroke-linejoin="round"/>
    <path d="M 45.495304107666016 163.86614990234375 C 59.927921295166016 186.95510864257812 40.04985809326172 164.87551879882812 40.36088180541992 153.04119873046875" stroke-width="3.0" fill="none" stroke="rgb(0, 0, 0)" stroke-opacity="1.0" stroke-linecap="round" stroke-linejoin="round"/>
    <path d="M 80.34979248046875 55.341407775878906 C 57.11650085449219 59.17607498168945 46.3563346862793 73.26900482177734 33.336307525634766 107.32280731201172" stroke-width="3.0" fill="none" stroke="rgb(0, 0, 0)" stroke-opacity="1.0" stroke-linecap="round" stroke-linejoin="round"/>
    <path d="M 150.45208740234375 141.9752960205078 C 139.24609375 158.76971435546875 120.468505859375 156.13243103027344 133.5167236328125 155.09518432617188" stroke-width="3.0" fill="none" stroke="rgb(0, 0, 0)" stroke-opacity="1.0" stroke-linecap="round" stroke-linejoin="round"/>
    <path d="M 139.4046173095703 31.378732681274414 C 141.63674926757812 68.69994354248047 130.39794921875 57.289939880371094 142.66612243652344 75.43643188476562" stroke-width="3.0" fill="none" stroke="rgb(0, 0, 0)" stroke-opacity="1.0" stroke-linecap="round" stroke-linejoin="round"/>
    <path d="M 146.4470672607422 100.65225982666016 C 117.28331756591797 104.79724884033203 127.5901870727539 112.72814178466797 138.43087768554688 103.06768035888672" stroke-width="3.0" fill="none" stroke="rgb(0, 0, 0)" stroke-opacity="1.0" stroke-linecap="round" stroke-linejoin="round"/>
    <path d="M 139.135498046875 76.67326354980469 C 144.85696411132812 52.782169342041016 139.6588897705078 61.073333740234375 138.9904327392578 67.00569915771484" stroke-width="3.0" fill="none" stroke="rgb(0, 0, 0)" stroke-opacity="1.0" stroke-linecap="round" stroke-linejoin="round"/>
    <path d="M 131.51744079589844 180.93785095214844 C 104.09674072265625 194.99444580078125 140.8560333251953 191.7336883544922 142.12664794921875 153.70559692382812" stroke-width="3.0" fill="none" stroke="rgb(0, 0, 0)" stroke-opacity="1.0" stroke-linecap="round" stroke-linejoin="round"/>
    <path d="M 193.2547149658203 97.38479614257812 C 164.15786743164062 76.40910339355469 141.70318603515625 86.46932983398438 185.04270935058594 80.2331314086914" stroke-width="3.0" fill="none" stroke="rgb(0, 0, 0)" stroke-opacity="1.0" stroke-linecap="round" stroke-linejoin="round"/>
    <path d="M 145.94459533691406 75.84244537353516 C 177.08889770507812 59.10626983642578 193.67079162597656 77.307861328125 173.26995849609375 66.04778289794922" stroke-width="3.0" fill="none" stroke="rgb(0, 0, 0)" stroke-opacity="1.0" stroke-linecap="round" stroke-linejoin="round"/>
    <path d="M 109.2686538696289 76.6772232055664 C 89.03242492675781 67.82150268554688 135.13302612304688 73.65341186523438 105.01053619384766 78.680419921875" stroke-width="3.0" fill="none" stroke="rgb(0, 0, 0)" stroke-opacity="1.0" stroke-linecap="round" stroke-linejoin="round"/>
    <path d="M 148.27508544921875 145.04641723632812 C 141.04315185546875 162.83480834960938 124.82952117919922 154.6273956298828 107.78453826904297 157.50222778320312" stroke-width="3.0" fill="none" stroke="rgb(0, 0, 0)" stroke-opacity="1.0" stroke-linecap="round" stroke-linejoin="round"/>
    <path d="M 125.68830871582031 89.56465148925781 C 144.22866821289062 100.45753479003906 134.8889923095703 74.36750793457031 129.15316772460938 103.57830810546875" stroke-width="3.0" fill="none" stroke="rgb(0, 0, 0)" stroke-opacity="1.0" stroke-linecap="round" stroke-linejoin="round"/>
    <path d="M 189.11375427246094 113.46780395507812 C 180.53805541992188 80.30718231201172 181.44761657714844 95.35868835449219 141.22706604003906 82.76581573486328" stroke-width="3.0" fill="none" stroke="rgb(0, 0, 0)" stroke-opacity="1.0" stroke-linecap="round" stroke-linejoin="round"/>
    <path d="M 87.94126892089844 8.512457847595215 C 107.19334411621094 17.977407455444336 114.291748046875 33.01900863647461 124.0541000366211 32.92741012573242" stroke-width="3.0" fill="none" stroke="rgb(0, 0, 0)" stroke-opacity="1.0" stroke-linecap="round" stroke-linejoin="round"/>
    <path d="M 55.01507568359375 112.51876068115234 C 53.10157012939453 106.26859283447266 57.19786071777344 121.69662475585938 55.88469314575195 115.9930419921875" stroke-width="3.0" fill="none" stroke="rgb(0, 0, 0)" stroke-opacity="1.0" stroke-linecap="round" stroke-linejoin="round"/>
    <path d="M 124.248779296875 104.89520263671875 C 104.95478057861328 89.63628387451172 120.2359619140625 111.04755401611328 106.2402114868164 88.81058502197266" stroke-width="3.0" fill="none" stroke="rgb(0, 0, 0)" stroke-opacity="1.0" stroke-linecap="round" stroke-linejoin="round"/>
    <path d="M 32.2276611328125 132.41273498535156 C 28.660245895385742 115.58651733398438 33.551177978515625 101.43688201904297 31.057409286499023 116.30667877197266" stroke-width="3.0" fill="none" stroke="rgb(0, 0, 0)" stroke-opacity="1.0" stroke-linecap="round" stroke-linejoin="round"/>
    <path d="M 83.5032958984375 199.77394104003906 C 73.97273254394531 200.037353515625 69.18183135986328 200.13392639160156 97.26631164550781 200.04345703125" stroke-width="3.0" fill="none" stroke="rgb(0, 0, 0)" stroke-opacity="1.0" stroke-linecap="round" stroke-linejoin="round"/>
    <path d="M 152.4425811767578 143.4723663330078 C 207.0607452392578 114.89471435546875 177.1735076904297 98.8043212890625 153.10598754882812 90.69866180419922" stroke-width="3.0" fill="none" stroke="rgb(0, 0, 0)" stroke-opacity="1.0" stroke-linecap="round" stroke-linejoin="round"/>
    <path d="M 157.69223022460938 69.7031021118164 C 119.59674835205078 80.1567611694336 175.2472381591797 80.71833038330078 147.14894104003906 69.95350646972656" stroke-width="3.0" fill="none" stroke="rgb(0, 0, 0)" stroke-opacity="1.0" stroke-linecap="round" stroke-linejoin="round"/>
    <path d="M 144.058837890625 73.53932189941406 C 143.4660186767578 46.87601089477539 199.43479919433594 107.48914337158203 178.07997131347656 47.96438980102539" stroke-width="3.0" fill="none" stroke="rgb(0, 0, 0)" stroke-opacity="1.0" stroke-linecap="round" stroke-linejoin="round"/>
    <path d="M 151.3662109375 97.0045394897461 C 165.16842651367188 102.09465026855469 176.8580780029297 106.63227081298828 182.43731689453125 116.71704864501953" stroke-width="3.0" fill="none" stroke="rgb(0, 0, 0)" stroke-opacity="1.0" stroke-linecap="round" stroke-linejoin="round"/>
    <path d="M 177.35093688964844 16.858905792236328 C 168.1725311279297 37.67945861816406 173.72569274902344 18.81341552734375 160.10684204101562 34.82028579711914" stroke-width="3.0" fill="none" stroke="rgb(0, 0, 0)" stroke-opacity="1.0" stroke-linecap="round" stroke-linejoin="round"/>
    <path d="M 124.00792694091797 103.2277603149414 C 144.39024353027344 102.74736785888672 130.6160430908203 113.96050262451172 107.27760314941406 96.91311645507812" stroke-width="3.0" fill="none" stroke="rgb(0, 0, 0)" stroke-opacity="1.0" stroke-linecap="round" stroke-linejoin="round"/>
    <path d="M 55.305931091308594 112.18528747558594 C 54.50326156616211 110.09819030761719 50.573909759521484 105.16864013671875 58.645103454589844 126.61177062988281" stroke-width="3.0" fill="none" stroke="rgb(0, 0, 0)" stroke-opacity="1.0" stroke-linecap="round" stroke-linejoin="round"/>
    <path d="M 124.72329711914062 76.60774230957031 C 130.2661895751953 41.57133865356445 120.68526458740234 51.940452575683594 124.79882049560547 30.590679168701172" stroke-width="3.0" fill="none" stroke="rgb(0, 0, 0)" stroke-opacity="1.0" stroke-linecap="round" stroke-linejoin="round"/>
    <path d="M 144.8275909423828 30.112138748168945 C 144.9404296875 37.112640380859375 150.43226623535156 14.491830825805664 177.74252319335938 8.51437759399414" stroke-width="3.0" fill="none" stroke="rgb(0, 0, 0)" stroke-opacity="1.0" stroke-linecap="round" stroke-linejoin="round"/>
  </g>
</svg>
