<?xml version="1.0" ?>
<svg xmlns="http://www.w3.org/2000/svg" version="1.1" width="224" height="224">
  <defs/>
  <g>
    <path d="M 53.58100509643555 120.05134582519531 C 54.91090774536133 119.92868041992188 45.47233200073242 110.08441162109375 42.98115158081055 94.78591918945312" stroke-width="3.0" fill="none" stroke="rgb(0, 0, 0)" stroke-opacity="1.0" stroke-linecap="round" stroke-linejoin="round"/>
    <path d="M 179.79241943359375 125.59742736816406 C 182.95562744140625 109.61802673339844 183.7647247314453 117.99746704101562 185.8115692138672 120.38868713378906" stroke-width="3.0" fill="none" stroke="rgb(0, 0, 0)" stroke-opacity="1.0" stroke-linecap="round" stroke-linejoin="round"/>
    <path d="M 48.78398895263672 110.38445281982422 C 50.441184997558594 114.56339263916016 47.79460144042969 107.68412780761719 51.57210922241211 114.62083435058594" stroke-width="3.0" fill="none" stroke="rgb(0, 0, 0)" stroke-opacity="1.0" stroke-linecap="round" stroke-linejoin="round"/>
    <path d="M 185.55715942382812 98.64866638183594 C 155.4043426513672 100.29600524902344 176.88958740234375 82.38200378417969 195.33255004882812 113.22593688964844" stroke-width="3.0" fill="none" stroke="rgb(0, 0, 0)" stroke-opacity="1.0" stroke-linecap="round" stroke-linejoin="round"/>
    <path d="M 185.45648193359375 79.82101440429688 C 182.5404052734375 88.84840393066406 177.1683807373047 81.60787963867188 185.86575317382812 64.86280822753906" stroke-width="3.0" fill="none" stroke="rgb(0, 0, 0)" stroke-opacity="1.0" stroke-linecap="round" stroke-linejoin="round"/>
    <path d="M 131.095703125 97.07286834716797 C 133.73373413085938 115.67110443115234 113.97075653076172 100.07987213134766 136.00437927246094 103.78269958496094" stroke-width="3.0" fill="none" stroke="rgb(0, 0, 0)" stroke-opacity="1.0" stroke-linecap="round" stroke-linejoin="round"/>
    <path d="M 163.9893035888672 96.95223999023438 C 201.882568359375 66.07853698730469 183.46759033203125 68.20914459228516 159.2232666015625 84.95447540283203" stroke-width="3.0" fill="none" stroke="rgb(0, 0, 0)" stroke-opacity="1.0" stroke-linecap="round" stroke-linejoin="round"/>
    <path d="M 54.949466705322266 181.54986572265625 C 36.916873931884766 151.1917266845703 41.740997314453125 159.94358825683594 44.384464263916016 157.7972869873047" stroke-width="3.0" fill="none" stroke="rgb(0, 0, 0)" stroke-opacity="1.0" stroke-linecap="round" stroke-linejoin="round"/>
    <path d="M 67.4439926147461 192.5734405517578 C 84.5335922241211 200.65342712402344 111.5162124633789 193.28749084472656 103.73990631103516 194.57533264160156" stroke-width="3.0" fill="none" stroke="rgb(0, 0, 0)" stroke-opacity="1.0" stroke-linecap="round" stroke-linejoin="round"/>
    <path d="M 87.57315826416016 24.560070037841797 C 92.77272033691406 67.24958801269531 88.90707397460938 31.888900756835938 89.7788314819336 51.06074142456055" stroke-width="3.0" fill="none" stroke="rgb(0, 0, 0)" stroke-opacity="1.0" stroke-linecap="round" stroke-linejoin="round"/>
    <path d="M 58.37845230102539 128.52493286132812 C 67.04349517822266 142.27362060546875 82.79014587402344 147.9931640625 82.20964813232422 145.2404022216797" stroke-width="3.0" fill="none" stroke="rgb(0, 0, 0)" stroke-opacity="1.0" stroke-linecap="round" stroke-linejoin="round"/>
    <path d="M 168.01953125 82.88985443115234 C 198.24427795410156 76.81620788574219 175.75650024414062 82.11287689208984 142.71005249023438 87.73588562011719" stroke-width="3.0" fill="none" stroke="rgb(0, 0, 0)" stroke-opacity="1.0" stroke-linecap="round" stroke-linejoin="round"/>
    <path d="M 156.32122802734375 100.05680084228516 C 176.17066955566406 101.4910888671875 171.48658752441406 99.91375732421875 186.34303283691406 108.2163314819336" stroke-width="3.0" fill="none" stroke="rgb(0, 0, 0)" stroke-opacity="1.0" stroke-linecap="round" stroke-linejoin="round"/>
    <path d="M 96.92095184326172 155.98448181152344 C 115.1254653930664 166.36041259765625 104.05817413330078 187.1895294189453 110.42146301269531 192.04432678222656" stroke-width="3.0" fill="none" stroke="rgb(0, 0, 0)" stroke-opacity="1.0" stroke-linecap="round" stroke-linejoin="round"/>
    <path d="M 170.88314819335938 10.574173927307129 C 189.91046142578125 0.11932516098022461 176.1329345703125 41.4874382019043 184.13414001464844 59.80013656616211" stroke-width="3.0" fill="none" stroke="rgb(0, 0, 0)" stroke-opacity="1.0" stroke-linecap="round" stroke-linejoin="round"/>
    <path d="M 134.39320373535156 31.876869201660156 C 128.5142822265625 66.33458709716797 131.42752075195312 38.11922836303711 131.2971649169922 65.26660919189453" stroke-width="3.0" fill="none" stroke="rgb(0, 0, 0)" stroke-opacity="1.0" stroke-linecap="round" stroke-linejoin="round"/>
    <path d="M 94.72110748291016 47.029136657714844 C 68.68136596679688 -3.4403631687164307 84.74201202392578 2.9063193798065186 103.00362396240234 42.11846923828125" stroke-width="3.0" fill="none" stroke="rgb(0, 0, 0)" stroke-opacity="1.0" stroke-linecap="round" stroke-linejoin="round"/>
    <path d="M 43.9076042175293 161.21923828125 C 41.1194953918457 154.09678649902344 42.090736389160156 161.04397583007812 43.73252868652344 162.28236389160156" stroke-width="3.0" fill="none" stroke="rgb(0, 0, 0)" stroke-opacity="1.0" stroke-linecap="round" stroke-linejoin="round"/>
    <path d="M 32.56488800048828 103.94355773925781 C 23.292098999023438 128.13357543945312 34.68899154663086 142.74853515625 43.096378326416016 156.34268188476562" stroke-width="3.0" fill="none" stroke="rgb(0, 0, 0)" stroke-opacity="1.0" stroke-linecap="round" stroke-linejoin="round"/>
    <path d="M 87.55128479003906 146.7882537841797 C 97.14026641845703 156.2108917236328 98.18440246582031 158.34722900390625 91.33904266357422 150.26522827148438" stroke-width="3.0" fill="none" stroke="rgb(0, 0, 0)" stroke-opacity="1.0" stroke-linecap="round" stroke-linejoin="round"/>
    <path d="M 72.43930053710938 195.1129150390625 C 46.703311920166016 179.95814514160156 70.16862487792969 189.35179138183594 47.356563568115234 173.3135986328125" stroke-width="3.0" fill="none" stroke="rgb(0, 0, 0)" stroke-opacity="1.0" stroke-linecap="round" stroke-linejoin="round"/>
    <path d="M 43.755104064941406 159.03689575195312 C 51.08378601074219 170.52999877929688 39.20681381225586 157.84622192382812 37.79595947265625 148.5369110107422" stroke-width="3.0" fill="none" stroke="rgb(0, 0, 0)" stroke-opacity="1.0" stroke-linecap="round" stroke-linejoin="round"/>
    <path d="M 84.72297668457031 56.08164596557617 C 51.27862548828125 57.37761306762695 47.09370803833008 71.20912170410156 32.12249755859375 106.76400756835938" stroke-width="3.0" fill="none" stroke="rgb(0, 0, 0)" stroke-opacity="1.0" stroke-linecap="round" stroke-linejoin="round"/>
    <path d="M 148.59100341796875 157.1569366455078 C 143.19447326660156 162.6508331298828 129.73236083984375 144.68545532226562 139.9936065673828 162.22911071777344" stroke-width="3.0" fill="none" stroke="rgb(0, 0, 0)" stroke-opacity="1.0" stroke-linecap="round" stroke-linejoin="round"/>
    <path d="M 141.9033203125 31.18406867980957 C 148.44772338867188 51.76991271972656 135.00729370117188 52.9765625 138.30067443847656 79.94746398925781" stroke-width="3.0" fill="none" stroke="rgb(0, 0, 0)" stroke-opacity="1.0" stroke-linecap="round" stroke-linejoin="round"/>
    <path d="M 143.4709930419922 101.2228775024414 C 126.37461853027344 116.45507049560547 122.48228454589844 104.45938873291016 127.85865020751953 102.32548522949219" stroke-width="3.0" fill="none" stroke="rgb(0, 0, 0)" stroke-opacity="1.0" stroke-linecap="round" stroke-linejoin="round"/>
    <path d="M 138.9857940673828 76.24786376953125 C 145.97010803222656 48.10572052001953 147.01463317871094 58.181278228759766 152.72691345214844 45.53234100341797" stroke-width="3.0" fill="none" stroke="rgb(0, 0, 0)" stroke-opacity="1.0" stroke-linecap="round" stroke-linejoin="round"/>
    <path d="M 120.67051696777344 186.71286010742188 C 96.71000671386719 189.2348175048828 112.25785827636719 203.7059326171875 137.2240753173828 171.02105712890625" stroke-width="3.0" fill="none" stroke="rgb(0, 0, 0)" stroke-opacity="1.0" stroke-linecap="round" stroke-linejoin="round"/>
    <path d="M 190.57418823242188 94.29061889648438 C 163.9316864013672 75.17308807373047 153.01898193359375 99.7470932006836 185.06930541992188 84.78750610351562" stroke-width="3.0" fill="none" stroke="rgb(0, 0, 0)" stroke-opacity="1.0" stroke-linecap="round" stroke-linejoin="round"/>
    <path d="M 161.08009338378906 75.3974609375 C 190.446533203125 78.87310028076172 197.0419158935547 72.46096801757812 164.0352325439453 78.52120208740234" stroke-width="3.0" fill="none" stroke="rgb(0, 0, 0)" stroke-opacity="1.0" stroke-linecap="round" stroke-linejoin="round"/>
    <path d="M 108.43014526367188 79.86094665527344 C 89.0412826538086 72.55473327636719 143.4163360595703 75.64939880371094 105.73066711425781 82.41217803955078" stroke-width="3.0" fill="none" stroke="rgb(0, 0, 0)" stroke-opacity="1.0" stroke-linecap="round" stroke-linejoin="round"/>
    <path d="M 137.25555419921875 155.9066162109375 C 139.22108459472656 152.6144256591797 126.91999053955078 153.177490234375 107.17634582519531 138.0167999267578" stroke-width="3.0" fill="none" stroke="rgb(0, 0, 0)" stroke-opacity="1.0" stroke-linecap="round" stroke-linejoin="round"/>
    <path d="M 124.86488342285156 87.11741638183594 C 135.90985107421875 101.78864288330078 136.15576171875 75.89645385742188 129.612548828125 96.43338012695312" stroke-width="3.0" fill="none" stroke="rgb(0, 0, 0)" stroke-opacity="1.0" stroke-linecap="round" stroke-linejoin="round"/>
    <path d="M 188.59376525878906 99.4117660522461 C 171.4192352294922 80.9093246459961 183.96286010742188 99.25670623779297 141.9126434326172 83.5130844116211" stroke-width="3.0" fill="none" stroke="rgb(0, 0, 0)" stroke-opacity="1.0" stroke-linecap="round" stroke-linejoin="round"/>
    <path d="M 83.04944610595703 10.886164665222168 C 114.47340393066406 17.31142807006836 117.54619598388672 33.14894485473633 128.67413330078125 29.942678451538086" stroke-width="3.0" fill="none" stroke="rgb(0, 0, 0)" stroke-opacity="1.0" stroke-linecap="round" stroke-linejoin="round"/>
    <path d="M 52.56991195678711 116.67750549316406 C 49.63071823120117 109.72344970703125 56.342350006103516 124.1113510131836 50.15007019042969 113.85567474365234" stroke-width="3.0" fill="none" stroke="rgb(0, 0, 0)" stroke-opacity="1.0" stroke-linecap="round" stroke-linejoin="round"/>
    <path d="M 119.04962158203125 100.54035949707031 C 95.46038818359375 86.10824584960938 121.53715515136719 102.3667984008789 109.00482940673828 94.22779846191406" stroke-width="3.0" fill="none" stroke="rgb(0, 0, 0)" stroke-opacity="1.0" stroke-linecap="round" stroke-linejoin="round"/>
    <path d="M 29.60637664794922 117.49102020263672 C 34.26592254638672 97.67562103271484 33.45732116699219 102.2787857055664 31.871591567993164 116.807373046875" stroke-width="3.0" fill="none" stroke="rgb(0, 0, 0)" stroke-opacity="1.0" stroke-linecap="round" stroke-linejoin="round"/>
    <path d="M 89.863037109375 196.2903289794922 C 72.53064727783203 195.31552124023438 69.4258804321289 194.20570373535156 93.37503051757812 196.58001708984375" stroke-width="3.0" fill="none" stroke="rgb(0, 0, 0)" stroke-opacity="1.0" stroke-linecap="round" stroke-linejoin="round"/>
    <path d="M 157.05203247070312 135.7454833984375 C 207.2620086669922 113.667724609375 177.35269165039062 95.94340515136719 150.6602020263672 91.49376678466797" stroke-width="3.0" fill="none" stroke="rgb(0, 0, 0)" stroke-opacity="1.0" stroke-linecap="round" stroke-linejoin="round"/>
    <path d="M 155.3039093017578 75.7260971069336 C 130.9178466796875 71.30277252197266 164.37200927734375 89.17332458496094 149.9852752685547 70.61882781982422" stroke-width="3.0" fill="none" stroke="rgb(0, 0, 0)" stroke-opacity="1.0" stroke-linecap="round" stroke-linejoin="round"/>
    <path d="M 143.18687438964844 78.54399871826172 C 142.93807983398438 56.76433563232422 189.36753845214844 92.54105377197266 182.73416137695312 61.292728424072266" stroke-width="3.0" fill="none" stroke="rgb(0, 0, 0)" stroke-opacity="1.0" stroke-linecap="round" stroke-linejoin="round"/>
    <path d="M 146.63629150390625 96.94749450683594 C 159.40597534179688 93.38631439208984 169.8328399658203 107.4871826171875 183.8356170654297 113.20696258544922" stroke-width="3.0" fill="none" stroke="rgb(0, 0, 0)" stroke-opacity="1.0" stroke-linecap="round" stroke-linejoin="round"/>
    <path d="M 175.22369384765625 18.461912155151367 C 167.83023071289062 46.649688720703125 174.20982360839844 31.595415115356445 165.48046875 40.6453742980957" stroke-width="3.0" fill="none" stroke="rgb(0, 0, 0)" stroke-opacity="1.0" stroke-linecap="round" stroke-linejoin="round"/>
    <path d="M 125.72500610351562 105.64700317382812 C 152.89956665039062 107.18524169921875 129.9549560546875 100.54373168945312 112.05986785888672 100.95899200439453" stroke-width="3.0" fill="none" stroke="rgb(0, 0, 0)" stroke-opacity="1.0" stroke-linecap="round" stroke-linejoin="round"/>
    <path d="M 50.885047912597656 113.72917175292969 C 53.348365783691406 114.91820526123047 46.493370056152344 108.39305114746094 58.279808044433594 128.156494140625" stroke-width="3.0" fill="none" stroke="rgb(0, 0, 0)" stroke-opacity="1.0" stroke-linecap="round" stroke-linejoin="round"/>
    <path d="M 125.45081329345703 80.20574188232422 C 131.98175048828125 58.65504837036133 118.90848541259766 54.07047653198242 123.94503021240234 33.90918731689453" stroke-width="3.0" fill="none" stroke="rgb(0, 0, 0)" stroke-opacity="1.0" stroke-linecap="round" stroke-linejoin="round"/>
    <path d="M 145.92001342773438 31.069374084472656 C 148.60011291503906 35.264644622802734 151.89247131347656 17.215076446533203 174.23423767089844 8.379230499267578" stroke-width="3.0" fill="none" stroke="rgb(0, 0, 0)" stroke-opacity="1.0" stroke-linecap="round" stroke-linejoin="round"/>
  </g>
</svg>
