<?xml version="1.0" ?>
<svg xmlns="http://www.w3.org/2000/svg" version="1.1" width="224" height="224">
  <defs/>
  <g>
    <path d="M 54.68281936645508 109.39409637451172 C 53.54282760620117 116.59973907470703 55.05660629272461 102.24235534667969 46.15287780761719 86.25950622558594" stroke-width="3.0" fill="none" stroke="rgb(0, 0, 0)" stroke-opacity="1.0" stroke-linecap="round" stroke-linejoin="round"/>
    <path d="M 186.08148193359375 122.04612731933594 C 180.2023162841797 102.0504379272461 186.81121826171875 111.33247375488281 178.86056518554688 126.70979309082031" stroke-width="3.0" fill="none" stroke="rgb(0, 0, 0)" stroke-opacity="1.0" stroke-linecap="round" stroke-linejoin="round"/>
    <path d="M 58.60080337524414 109.95487213134766 C 54.61194610595703 110.14856719970703 52.75962448120117 112.66809844970703 59.59337615966797 118.7931137084961" stroke-width="3.0" fill="none" stroke="rgb(0, 0, 0)" stroke-opacity="1.0" stroke-linecap="round" stroke-linejoin="round"/>
    <path d="M 180.19400024414062 90.75029754638672 C 154.87081909179688 85.61421966552734 173.80038452148438 83.2000503540039 195.77491760253906 112.79067993164062" stroke-width="3.0" fill="none" stroke="rgb(0, 0, 0)" stroke-opacity="1.0" stroke-linecap="round" stroke-linejoin="round"/>
    <path d="M 182.36997985839844 71.65719604492188 C 177.0775909423828 93.55928802490234 186.1428985595703 89.93538665771484 181.85641479492188 60.323089599609375" stroke-width="3.0" fill="none" stroke="rgb(0, 0, 0)" stroke-opacity="1.0" stroke-linecap="round" stroke-linejoin="round"/>
    <path d="M 123.38701629638672 101.8402328491211 C 153.45559692382812 100.07300567626953 112.46435546875 99.01786041259766 139.99899291992188 101.03089904785156" stroke-width="3.0" fill="none" stroke="rgb(0, 0, 0)" stroke-opacity="1.0" stroke-linecap="round" stroke-linejoin="round"/>
    <path d="M 165.98416137695312 98.58792114257812 C 198.09915161132812 81.5028076171875 174.05447387695312 66.53334045410156 156.50807189941406 85.22066497802734" stroke-width="3.0" fill="none" stroke="rgb(0, 0, 0)" stroke-opacity="1.0" stroke-linecap="round" stroke-linejoin="round"/>
    <path d="M 56.52843475341797 182.40606689453125 C 39.1214485168457 155.84051513671875 44.930686950683594 164.60299682617188 45.01797866821289 168.01158142089844" stroke-width="3.0" fill="none" stroke="rgb(0, 0, 0)" stroke-opacity="1.0" stroke-linecap="round" stroke-linejoin="round"/>
    <path d="M 60.40766525268555 186.08848571777344 C 93.72559356689453 208.37371826171875 112.38458251953125 200.22750854492188 129.70724487304688 182.59254455566406" stroke-width="3.0" fill="none" stroke="rgb(0, 0, 0)" stroke-opacity="1.0" stroke-linecap="round" stroke-linejoin="round"/>
    <path d="M 82.62649536132812 37.50368118286133 C 95.6493911743164 61.55141830444336 81.35221099853516 23.39791488647461 83.81497192382812 52.913047790527344" stroke-width="3.0" fill="none" stroke="rgb(0, 0, 0)" stroke-opacity="1.0" stroke-linecap="round" stroke-linejoin="round"/>
    <path d="M 59.69955062866211 122.53375244140625 C 54.83269119262695 128.8935089111328 106.05269622802734 150.18748474121094 100.0936050415039 148.7364959716797" stroke-width="3.0" fill="none" stroke="rgb(0, 0, 0)" stroke-opacity="1.0" stroke-linecap="round" stroke-linejoin="round"/>
    <path d="M 144.08726501464844 73.92290496826172 C 210.4206085205078 65.10411071777344 185.85731506347656 82.75147247314453 148.93179321289062 84.96107482910156" stroke-width="3.0" fill="none" stroke="rgb(0, 0, 0)" stroke-opacity="1.0" stroke-linecap="round" stroke-linejoin="round"/>
    <path d="M 150.3376922607422 94.46578979492188 C 186.71791076660156 98.19967651367188 183.35496520996094 94.51883697509766 190.55209350585938 113.12667846679688" stroke-width="3.0" fill="none" stroke="rgb(0, 0, 0)" stroke-opacity="1.0" stroke-linecap="round" stroke-linejoin="round"/>
    <path d="M 113.66458129882812 156.81813049316406 C 141.59991455078125 140.22901916503906 113.58444213867188 154.920654296875 124.63975524902344 151.78309631347656" stroke-width="3.0" fill="none" stroke="rgb(0, 0, 0)" stroke-opacity="1.0" stroke-linecap="round" stroke-linejoin="round"/>
    <path d="M 174.9256134033203 6.721316337585449 C 188.2525177001953 3.5259084701538086 175.26287841796875 61.83380889892578 180.61952209472656 52.89271926879883" stroke-width="3.0" fill="none" stroke="rgb(0, 0, 0)" stroke-opacity="1.0" stroke-linecap="round" stroke-linejoin="round"/>
    <path d="M 130.73081970214844 29.56925392150879 C 126.53467559814453 56.21609878540039 136.0927734375 28.93691062927246 124.87588500976562 71.30979919433594" stroke-width="3.0" fill="none" stroke="rgb(0, 0, 0)" stroke-opacity="1.0" stroke-linecap="round" stroke-linejoin="round"/>
    <path d="M 87.60648345947266 49.4483757019043 C 73.6154556274414 -7.187441825866699 83.4840316772461 0.4427017867565155 114.81780242919922 33.69466781616211" stroke-width="3.0" fill="none" stroke="rgb(0, 0, 0)" stroke-opacity="1.0" stroke-linecap="round" stroke-linejoin="round"/>
    <path d="M 44.068359375 163.9339141845703 C 39.57443618774414 154.3507537841797 37.44804763793945 146.4320068359375 40.79653549194336 154.09571838378906" stroke-width="3.0" fill="none" stroke="rgb(0, 0, 0)" stroke-opacity="1.0" stroke-linecap="round" stroke-linejoin="round"/>
    <path d="M 36.56572341918945 100.57144927978516 C 23.8021183013916 127.32356262207031 36.13673782348633 143.09556579589844 40.45417022705078 157.05714416503906" stroke-width="3.0" fill="none" stroke="rgb(0, 0, 0)" stroke-opacity="1.0" stroke-linecap="round" stroke-linejoin="round"/>
    <path d="M 87.89057922363281 142.3278350830078 C 106.24422454833984 163.8450469970703 120.67610931396484 144.13739013671875 112.00387573242188 157.655517578125" stroke-width="3.0" fill="none" stroke="rgb(0, 0, 0)" stroke-opacity="1.0" stroke-linecap="round" stroke-linejoin="round"/>
    <path d="M 79.69131469726562 196.60899353027344 C 60.660667419433594 193.0215301513672 56.14187240600586 180.26019287109375 48.16996383666992 173.64443969726562" stroke-width="3.0" fill="none" stroke="rgb(0, 0, 0)" stroke-opacity="1.0" stroke-linecap="round" stroke-linejoin="round"/>
    <path d="M 45.91126251220703 163.23666381835938 C 59.245689392089844 194.35687255859375 42.02867126464844 166.50164794921875 40.38261795043945 153.98435974121094" stroke-width="3.0" fill="none" stroke="rgb(0, 0, 0)" stroke-opacity="1.0" stroke-linecap="round" stroke-linejoin="round"/>
    <path d="M 78.37429809570312 53.29591369628906 C 53.507347106933594 60.71751403808594 53.515594482421875 72.7728500366211 33.112281799316406 107.16620635986328" stroke-width="3.0" fill="none" stroke="rgb(0, 0, 0)" stroke-opacity="1.0" stroke-linecap="round" stroke-linejoin="round"/>
    <path d="M 152.3313446044922 139.4306640625 C 140.28688049316406 159.18505859375 119.75408172607422 146.802978515625 132.9154052734375 150.8096466064453" stroke-width="3.0" fill="none" stroke="rgb(0, 0, 0)" stroke-opacity="1.0" stroke-linecap="round" stroke-linejoin="round"/>
    <path d="M 139.634521484375 29.73320770263672 C 149.97805786132812 66.93003845214844 132.48995971679688 56.69786071777344 135.667236328125 75.90234375" stroke-width="3.0" fill="none" stroke="rgb(0, 0, 0)" stroke-opacity="1.0" stroke-linecap="round" stroke-linejoin="round"/>
    <path d="M 147.4595947265625 98.37747192382812 C 114.60053253173828 106.32083129882812 133.54112243652344 109.86392974853516 137.8880157470703 102.42471313476562" stroke-width="3.0" fill="none" stroke="rgb(0, 0, 0)" stroke-opacity="1.0" stroke-linecap="round" stroke-linejoin="round"/>
    <path d="M 136.21847534179688 72.2029800415039 C 143.83917236328125 56.07394790649414 135.94541931152344 64.86214447021484 138.29183959960938 68.38309478759766" stroke-width="3.0" fill="none" stroke="rgb(0, 0, 0)" stroke-opacity="1.0" stroke-linecap="round" stroke-linejoin="round"/>
    <path d="M 137.1049041748047 175.5660858154297 C 121.50496673583984 188.2628173828125 140.6260528564453 185.15245056152344 145.77145385742188 147.17449951171875" stroke-width="3.0" fill="none" stroke="rgb(0, 0, 0)" stroke-opacity="1.0" stroke-linecap="round" stroke-linejoin="round"/>
    <path d="M 194.14413452148438 95.6741714477539 C 166.77413940429688 74.4372329711914 150.5832061767578 80.51776885986328 185.24111938476562 84.4321517944336" stroke-width="3.0" fill="none" stroke="rgb(0, 0, 0)" stroke-opacity="1.0" stroke-linecap="round" stroke-linejoin="round"/>
    <path d="M 148.00619506835938 76.8888931274414 C 168.47972106933594 63.585174560546875 198.54209899902344 75.61235046386719 178.29054260253906 64.71857452392578" stroke-width="3.0" fill="none" stroke="rgb(0, 0, 0)" stroke-opacity="1.0" stroke-linecap="round" stroke-linejoin="round"/>
    <path d="M 109.40013122558594 78.86678314208984 C 91.60594177246094 69.02931213378906 139.71583557128906 77.45356750488281 109.17298889160156 78.8515853881836" stroke-width="3.0" fill="none" stroke="rgb(0, 0, 0)" stroke-opacity="1.0" stroke-linecap="round" stroke-linejoin="round"/>
    <path d="M 149.97752380371094 142.19210815429688 C 128.2205810546875 157.051513671875 120.4583740234375 145.10916137695312 107.00914001464844 156.45753479003906" stroke-width="3.0" fill="none" stroke="rgb(0, 0, 0)" stroke-opacity="1.0" stroke-linecap="round" stroke-linejoin="round"/>
    <path d="M 125.73111724853516 89.6929702758789 C 146.0049285888672 94.19359588623047 131.75775146484375 69.85457611083984 129.80758666992188 103.56766510009766" stroke-width="3.0" fill="none" stroke="rgb(0, 0, 0)" stroke-opacity="1.0" stroke-linecap="round" stroke-linejoin="round"/>
    <path d="M 188.08059692382812 111.94161987304688 C 179.11192321777344 74.70284271240234 182.18048095703125 95.77710723876953 141.5395050048828 81.45877075195312" stroke-width="3.0" fill="none" stroke="rgb(0, 0, 0)" stroke-opacity="1.0" stroke-linecap="round" stroke-linejoin="round"/>
    <path d="M 87.39961242675781 8.023758888244629 C 108.30001831054688 12.731672286987305 113.6994857788086 32.63393020629883 123.81800079345703 29.931743621826172" stroke-width="3.0" fill="none" stroke="rgb(0, 0, 0)" stroke-opacity="1.0" stroke-linecap="round" stroke-linejoin="round"/>
    <path d="M 61.37538146972656 121.79131317138672 C 50.69331741333008 110.34417724609375 65.40906524658203 121.75680541992188 58.994930267333984 116.48804473876953" stroke-width="3.0" fill="none" stroke="rgb(0, 0, 0)" stroke-opacity="1.0" stroke-linecap="round" stroke-linejoin="round"/>
    <path d="M 131.12681579589844 105.67861938476562 C 119.42399597167969 93.26712799072266 121.30762481689453 108.09053039550781 112.76228332519531 89.50221252441406" stroke-width="3.0" fill="none" stroke="rgb(0, 0, 0)" stroke-opacity="1.0" stroke-linecap="round" stroke-linejoin="round"/>
    <path d="M 32.00822448730469 132.5382843017578 C 27.500810623168945 115.1165771484375 35.03640365600586 102.97750091552734 32.371429443359375 111.78746032714844" stroke-width="3.0" fill="none" stroke="rgb(0, 0, 0)" stroke-opacity="1.0" stroke-linecap="round" stroke-linejoin="round"/>
    <path d="M 78.81320190429688 195.8214874267578 C 71.49533081054688 195.66287231445312 68.57020568847656 195.2482452392578 93.35816192626953 199.25015258789062" stroke-width="3.0" fill="none" stroke="rgb(0, 0, 0)" stroke-opacity="1.0" stroke-linecap="round" stroke-linejoin="round"/>
    <path d="M 151.99411010742188 139.7506561279297 C 209.3415985107422 111.48002624511719 183.70330810546875 92.71244812011719 154.95912170410156 90.22196197509766" stroke-width="3.0" fill="none" stroke="rgb(0, 0, 0)" stroke-opacity="1.0" stroke-linecap="round" stroke-linejoin="round"/>
    <path d="M 156.6439208984375 69.90536499023438 C 124.84515380859375 79.39102172851562 171.78265380859375 85.40435791015625 144.50198364257812 68.70097351074219" stroke-width="3.0" fill="none" stroke="rgb(0, 0, 0)" stroke-opacity="1.0" stroke-linecap="round" stroke-linejoin="round"/>
    <path d="M 139.7643585205078 78.07064056396484 C 146.53709411621094 44.05196762084961 194.88157653808594 107.56346130371094 177.63507080078125 48.889007568359375" stroke-width="3.0" fill="none" stroke="rgb(0, 0, 0)" stroke-opacity="1.0" stroke-linecap="round" stroke-linejoin="round"/>
    <path d="M 157.3785400390625 95.60521697998047 C 165.996826171875 100.93209075927734 179.6343536376953 102.59561920166016 184.98007202148438 115.24540710449219" stroke-width="3.0" fill="none" stroke="rgb(0, 0, 0)" stroke-opacity="1.0" stroke-linecap="round" stroke-linejoin="round"/>
    <path d="M 177.3853759765625 16.93633270263672 C 170.05604553222656 43.551273345947266 174.77438354492188 25.255666732788086 161.19554138183594 39.21937561035156" stroke-width="3.0" fill="none" stroke="rgb(0, 0, 0)" stroke-opacity="1.0" stroke-linecap="round" stroke-linejoin="round"/>
    <path d="M 117.5771484375 99.97522735595703 C 144.4836883544922 104.04888153076172 133.1761474609375 113.60400390625 115.64398956298828 95.1608657836914" stroke-width="3.0" fill="none" stroke="rgb(0, 0, 0)" stroke-opacity="1.0" stroke-linecap="round" stroke-linejoin="round"/>
    <path d="M 58.377376556396484 120.14271545410156 C 54.939849853515625 103.00576782226562 49.35029220581055 108.12439727783203 60.61458206176758 127.54141998291016" stroke-width="3.0" fill="none" stroke="rgb(0, 0, 0)" stroke-opacity="1.0" stroke-linecap="round" stroke-linejoin="round"/>
    <path d="M 124.14627075195312 77.59878540039062 C 131.49383544921875 34.90171432495117 121.16036987304688 50.72803497314453 122.99359130859375 33.036773681640625" stroke-width="3.0" fill="none" stroke="rgb(0, 0, 0)" stroke-opacity="1.0" stroke-linecap="round" stroke-linejoin="round"/>
    <path d="M 149.12904357910156 29.7499942779541 C 146.54417419433594 37.581695556640625 155.1382598876953 9.973742485046387 176.67396545410156 6.98810338973999" stroke-width="3.0" fill="none" stroke="rgb(0, 0, 0)" stroke-opacity="1.0" stroke-linecap="round" stroke-linejoin="round"/>
  </g>
</svg>
