<?xml version="1.0" ?>
<svg xmlns="http://www.w3.org/2000/svg" version="1.1" width="224" height="224">
  <defs/>
  <g>
    <path d="M 60.41628646850586 94.410400390625 C 68.94898986816406 81.00485229492188 54.612823486328125 81.3503646850586 71.16043090820312 58.40366744995117" stroke-width="3.0" fill="none" stroke="rgb(0, 0, 0)" stroke-opacity="1.0" stroke-linecap="round" stroke-linejoin="round"/>
    <path d="M 195.20367431640625 112.45733642578125 C 185.11863708496094 103.00170135498047 188.58831787109375 95.64189147949219 180.28355407714844 127.95789337158203" stroke-width="3.0" fill="none" stroke="rgb(0, 0, 0)" stroke-opacity="1.0" stroke-linecap="round" stroke-linejoin="round"/>
    <path d="M 60.94286346435547 122.13768768310547 C 53.94380187988281 87.95112609863281 64.17131042480469 121.7406005859375 66.05120086669922 121.56790924072266" stroke-width="3.0" fill="none" stroke="rgb(0, 0, 0)" stroke-opacity="1.0" stroke-linecap="round" stroke-linejoin="round"/>
    <path d="M 185.0125732421875 93.92679595947266 C 150.57052612304688 73.77748107910156 179.54638671875 78.9099349975586 189.4678497314453 98.66791534423828" stroke-width="3.0" fill="none" stroke="rgb(0, 0, 0)" stroke-opacity="1.0" stroke-linecap="round" stroke-linejoin="round"/>
    <path d="M 177.2332305908203 44.97114181518555 C 196.5982666015625 96.23628234863281 176.36839294433594 109.81776428222656 182.10350036621094 58.8096809387207" stroke-width="3.0" fill="none" stroke="rgb(0, 0, 0)" stroke-opacity="1.0" stroke-linecap="round" stroke-linejoin="round"/>
    <path d="M 131.95909118652344 102.18061065673828 C 151.71444702148438 120.5195083618164 100.68639373779297 103.58087158203125 134.98629760742188 108.54696655273438" stroke-width="3.0" fill="none" stroke="rgb(0, 0, 0)" stroke-opacity="1.0" stroke-linecap="round" stroke-linejoin="round"/>
    <path d="M 186.074462890625 87.75259399414062 C 171.75396728515625 83.97488403320312 186.12168884277344 68.72117614746094 153.42623901367188 87.07110595703125" stroke-width="3.0" fill="none" stroke="rgb(0, 0, 0)" stroke-opacity="1.0" stroke-linecap="round" stroke-linejoin="round"/>
    <path d="M 65.23827362060547 192.0632781982422 C 39.9593505859375 170.56451416015625 46.63283157348633 167.8731231689453 61.745445251464844 188.35116577148438" stroke-width="3.0" fill="none" stroke="rgb(0, 0, 0)" stroke-opacity="1.0" stroke-linecap="round" stroke-linejoin="round"/>
    <path d="M 55.840431213378906 184.7633514404297 C 85.8296890258789 212.10975646972656 134.4470977783203 196.19041442871094 137.21142578125 158.9897918701172" stroke-width="3.0" fill="none" stroke="rgb(0, 0, 0)" stroke-opacity="1.0" stroke-linecap="round" stroke-linejoin="round"/>
    <path d="M 82.3931884765625 11.220561027526855 C 93.47669982910156 71.52717590332031 88.48707580566406 4.756320476531982 86.70035552978516 51.548912048339844" stroke-width="3.0" fill="none" stroke="rgb(0, 0, 0)" stroke-opacity="1.0" stroke-linecap="round" stroke-linejoin="round"/>
    <path d="M 61.963287353515625 96.97306823730469 C 50.92379379272461 128.44944763183594 74.92613983154297 130.9447479248047 59.78254699707031 118.85157775878906" stroke-width="3.0" fill="none" stroke="rgb(0, 0, 0)" stroke-opacity="1.0" stroke-linecap="round" stroke-linejoin="round"/>
    <path d="M 146.0047149658203 74.00885772705078 C 190.45315551757812 68.13058471679688 199.1461181640625 86.35407257080078 139.38482666015625 86.38180541992188" stroke-width="3.0" fill="none" stroke="rgb(0, 0, 0)" stroke-opacity="1.0" stroke-linecap="round" stroke-linejoin="round"/>
    <path d="M 150.11854553222656 97.07238006591797 C 181.32264709472656 101.94242095947266 174.5972137451172 102.57231140136719 196.6586456298828 114.2117691040039" stroke-width="3.0" fill="none" stroke="rgb(0, 0, 0)" stroke-opacity="1.0" stroke-linecap="round" stroke-linejoin="round"/>
    <path d="M 131.2705535888672 148.94798278808594 C 168.68223571777344 159.44378662109375 96.60023498535156 146.145751953125 102.80497741699219 153.51559448242188" stroke-width="3.0" fill="none" stroke="rgb(0, 0, 0)" stroke-opacity="1.0" stroke-linecap="round" stroke-linejoin="round"/>
    <path d="M 176.65599060058594 9.594654083251953 C 189.1837921142578 19.735626220703125 168.74563598632812 99.93560028076172 182.7622833251953 59.22319412231445" stroke-width="3.0" fill="none" stroke="rgb(0, 0, 0)" stroke-opacity="1.0" stroke-linecap="round" stroke-linejoin="round"/>
    <path d="M 144.86769104003906 30.85100746154785 C 110.07931518554688 23.084888458251953 132.89320373535156 25.80227279663086 130.9587860107422 65.2944564819336" stroke-width="3.0" fill="none" stroke="rgb(0, 0, 0)" stroke-opacity="1.0" stroke-linecap="round" stroke-linejoin="round"/>
    <path d="M 104.22813415527344 47.11735534667969 C 65.24723815917969 -8.328959465026855 84.66815948486328 2.1909730434417725 120.24471282958984 34.04299545288086" stroke-width="3.0" fill="none" stroke="rgb(0, 0, 0)" stroke-opacity="1.0" stroke-linecap="round" stroke-linejoin="round"/>
    <path d="M 44.13523864746094 162.35287475585938 C 45.519500732421875 158.03408813476562 37.71513366699219 157.6300811767578 52.467735290527344 177.4092254638672" stroke-width="3.0" fill="none" stroke="rgb(0, 0, 0)" stroke-opacity="1.0" stroke-linecap="round" stroke-linejoin="round"/>
    <path d="M 59.37929153442383 66.45714569091797 C 21.120359420776367 119.63001251220703 40.6606559753418 142.571533203125 45.212650299072266 162.7005157470703" stroke-width="3.0" fill="none" stroke="rgb(0, 0, 0)" stroke-opacity="1.0" stroke-linecap="round" stroke-linejoin="round"/>
    <path d="M 68.1784439086914 136.61688232421875 C 137.74127197265625 165.5968017578125 105.96418762207031 151.21578979492188 85.71549224853516 142.48681640625" stroke-width="3.0" fill="none" stroke="rgb(0, 0, 0)" stroke-opacity="1.0" stroke-linecap="round" stroke-linejoin="round"/>
    <path d="M 88.66057586669922 197.66622924804688 C 68.03880310058594 196.0613555908203 44.616878509521484 176.0232696533203 42.46177291870117 156.75975036621094" stroke-width="3.0" fill="none" stroke="rgb(0, 0, 0)" stroke-opacity="1.0" stroke-linecap="round" stroke-linejoin="round"/>
    <path d="M 49.77568054199219 173.03228759765625 C 68.01819610595703 200.72256469726562 47.91577911376953 175.29147338867188 36.998802185058594 145.06680297851562" stroke-width="3.0" fill="none" stroke="rgb(0, 0, 0)" stroke-opacity="1.0" stroke-linecap="round" stroke-linejoin="round"/>
    <path d="M 82.97636413574219 54.529396057128906 C 56.51483154296875 57.745460510253906 63.05150604248047 66.58837127685547 36.184688568115234 114.23396301269531" stroke-width="3.0" fill="none" stroke="rgb(0, 0, 0)" stroke-opacity="1.0" stroke-linecap="round" stroke-linejoin="round"/>
    <path d="M 151.47731018066406 144.7862091064453 C 108.82574462890625 161.41983032226562 68.42349243164062 144.9514617919922 143.90538024902344 149.3423309326172" stroke-width="3.0" fill="none" stroke="rgb(0, 0, 0)" stroke-opacity="1.0" stroke-linecap="round" stroke-linejoin="round"/>
    <path d="M 151.36346435546875 28.21190643310547 C 145.9375 33.832130432128906 137.04122924804688 12.815585136413574 136.43191528320312 75.76537322998047" stroke-width="3.0" fill="none" stroke="rgb(0, 0, 0)" stroke-opacity="1.0" stroke-linecap="round" stroke-linejoin="round"/>
    <path d="M 145.51853942871094 102.21450805664062 C 127.87810516357422 112.93368530273438 121.19853973388672 107.8284683227539 111.1299819946289 97.73303985595703" stroke-width="3.0" fill="none" stroke="rgb(0, 0, 0)" stroke-opacity="1.0" stroke-linecap="round" stroke-linejoin="round"/>
    <path d="M 136.69529724121094 73.03850555419922 C 140.92091369628906 52.62428283691406 134.31842041015625 68.12866973876953 138.56349182128906 70.18822479248047" stroke-width="3.0" fill="none" stroke="rgb(0, 0, 0)" stroke-opacity="1.0" stroke-linecap="round" stroke-linejoin="round"/>
    <path d="M 137.01512145996094 163.09414672851562 C 131.15171813964844 167.0041961669922 141.4754180908203 161.33718872070312 144.42715454101562 146.45289611816406" stroke-width="3.0" fill="none" stroke="rgb(0, 0, 0)" stroke-opacity="1.0" stroke-linecap="round" stroke-linejoin="round"/>
    <path d="M 195.64141845703125 97.81966400146484 C 166.92247009277344 65.38048553466797 182.89315795898438 62.95408248901367 185.99679565429688 98.76006317138672" stroke-width="3.0" fill="none" stroke="rgb(0, 0, 0)" stroke-opacity="1.0" stroke-linecap="round" stroke-linejoin="round"/>
    <path d="M 151.68856811523438 76.91219329833984 C 121.90415954589844 55.847328186035156 215.2845916748047 85.39958953857422 175.95616149902344 62.9615364074707" stroke-width="3.0" fill="none" stroke="rgb(0, 0, 0)" stroke-opacity="1.0" stroke-linecap="round" stroke-linejoin="round"/>
    <path d="M 115.474853515625 83.00005340576172 C 85.58201599121094 71.86334228515625 136.9368438720703 74.5577163696289 110.20709228515625 82.05509948730469" stroke-width="3.0" fill="none" stroke="rgb(0, 0, 0)" stroke-opacity="1.0" stroke-linecap="round" stroke-linejoin="round"/>
    <path d="M 168.84030151367188 129.87515258789062 C 157.92848205566406 153.15451049804688 88.89913177490234 147.11512756347656 91.53226470947266 148.34291076660156" stroke-width="3.0" fill="none" stroke="rgb(0, 0, 0)" stroke-opacity="1.0" stroke-linecap="round" stroke-linejoin="round"/>
    <path d="M 122.24967193603516 89.85592651367188 C 145.1616668701172 99.88048553466797 127.5391845703125 72.39322662353516 127.49800872802734 106.72576141357422" stroke-width="3.0" fill="none" stroke="rgb(0, 0, 0)" stroke-opacity="1.0" stroke-linecap="round" stroke-linejoin="round"/>
    <path d="M 189.39137268066406 108.71361541748047 C 169.47499084472656 88.12712860107422 167.2970733642578 98.9339370727539 139.71273803710938 82.1646499633789" stroke-width="3.0" fill="none" stroke="rgb(0, 0, 0)" stroke-opacity="1.0" stroke-linecap="round" stroke-linejoin="round"/>
    <path d="M 89.40607452392578 22.005550384521484 C 125.72673797607422 28.986698150634766 86.33772277832031 30.20754051208496 148.54644775390625 27.592029571533203" stroke-width="3.0" fill="none" stroke="rgb(0, 0, 0)" stroke-opacity="1.0" stroke-linecap="round" stroke-linejoin="round"/>
    <path d="M 59.0375862121582 109.03669738769531 C 64.93783569335938 99.47232055664062 54.085731506347656 116.68534851074219 69.35860443115234 134.462890625" stroke-width="3.0" fill="none" stroke="rgb(0, 0, 0)" stroke-opacity="1.0" stroke-linecap="round" stroke-linejoin="round"/>
    <path d="M 132.29380798339844 107.77289581298828 C 122.17276763916016 86.42125701904297 121.65449523925781 120.96916198730469 113.78773498535156 88.95411682128906" stroke-width="3.0" fill="none" stroke="rgb(0, 0, 0)" stroke-opacity="1.0" stroke-linecap="round" stroke-linejoin="round"/>
    <path d="M 38.06398391723633 147.2388458251953 C 22.69753074645996 122.30276489257812 39.408058166503906 75.01307678222656 66.37906646728516 59.71415710449219" stroke-width="3.0" fill="none" stroke="rgb(0, 0, 0)" stroke-opacity="1.0" stroke-linecap="round" stroke-linejoin="round"/>
    <path d="M 88.5806655883789 197.18519592285156 C 81.55101776123047 197.18629455566406 72.56478881835938 197.20742797851562 101.53945922851562 198.89431762695312" stroke-width="3.0" fill="none" stroke="rgb(0, 0, 0)" stroke-opacity="1.0" stroke-linecap="round" stroke-linejoin="round"/>
    <path d="M 171.81976318359375 129.8388671875 C 198.5721435546875 110.09056854248047 194.2967071533203 85.7236557006836 150.22239685058594 88.20305633544922" stroke-width="3.0" fill="none" stroke="rgb(0, 0, 0)" stroke-opacity="1.0" stroke-linecap="round" stroke-linejoin="round"/>
    <path d="M 159.03395080566406 69.14905548095703 C 129.9269561767578 79.20057678222656 167.87269592285156 84.50699615478516 154.0028533935547 68.80415344238281" stroke-width="3.0" fill="none" stroke="rgb(0, 0, 0)" stroke-opacity="1.0" stroke-linecap="round" stroke-linejoin="round"/>
    <path d="M 137.1671905517578 79.29916381835938 C 138.5950164794922 36.761871337890625 205.49658203125 112.86493682861328 180.3289031982422 47.76298904418945" stroke-width="3.0" fill="none" stroke="rgb(0, 0, 0)" stroke-opacity="1.0" stroke-linecap="round" stroke-linejoin="round"/>
    <path d="M 157.19337463378906 98.44328308105469 C 173.37954711914062 108.2108383178711 179.1632537841797 104.5345230102539 184.7397003173828 122.5347671508789" stroke-width="3.0" fill="none" stroke="rgb(0, 0, 0)" stroke-opacity="1.0" stroke-linecap="round" stroke-linejoin="round"/>
    <path d="M 178.87481689453125 14.480374336242676 C 174.8075714111328 47.66737747192383 175.58067321777344 23.06130599975586 158.91212463378906 40.658695220947266" stroke-width="3.0" fill="none" stroke="rgb(0, 0, 0)" stroke-opacity="1.0" stroke-linecap="round" stroke-linejoin="round"/>
    <path d="M 123.03541564941406 106.94892120361328 C 147.43643188476562 99.7811050415039 129.22955322265625 110.77010345458984 124.99867248535156 101.78640747070312" stroke-width="3.0" fill="none" stroke="rgb(0, 0, 0)" stroke-opacity="1.0" stroke-linecap="round" stroke-linejoin="round"/>
    <path d="M 64.30580139160156 103.60774993896484 C 56.689273834228516 105.77183532714844 55.41641616821289 112.56312561035156 59.560752868652344 107.81221008300781" stroke-width="3.0" fill="none" stroke="rgb(0, 0, 0)" stroke-opacity="1.0" stroke-linecap="round" stroke-linejoin="round"/>
    <path d="M 121.38195037841797 73.20167541503906 C 126.26187133789062 51.91801071166992 118.99813079833984 58.666439056396484 121.71737670898438 36.073326110839844" stroke-width="3.0" fill="none" stroke="rgb(0, 0, 0)" stroke-opacity="1.0" stroke-linecap="round" stroke-linejoin="round"/>
    <path d="M 144.5027313232422 31.821645736694336 C 144.09815979003906 39.841983795166016 160.91397094726562 9.522293090820312 175.86373901367188 8.676470756530762" stroke-width="3.0" fill="none" stroke="rgb(0, 0, 0)" stroke-opacity="1.0" stroke-linecap="round" stroke-linejoin="round"/>
  </g>
</svg>
