<?xml version="1.0" ?>
<svg xmlns="http://www.w3.org/2000/svg" version="1.1" width="224" height="224">
  <defs/>
  <g>
    <path d="M 58.022457122802734 103.18367004394531 C 59.52647018432617 92.42757415771484 48.106300354003906 95.92565155029297 54.44100570678711 74.10893249511719" stroke-width="3.0" fill="none" stroke="rgb(0, 0, 0)" stroke-opacity="1.0" stroke-linecap="round" stroke-linejoin="round"/>
    <path d="M 189.045166015625 115.19710540771484 C 183.2401123046875 111.33677673339844 191.88323974609375 83.1741943359375 181.92335510253906 124.78324890136719" stroke-width="3.0" fill="none" stroke="rgb(0, 0, 0)" stroke-opacity="1.0" stroke-linecap="round" stroke-linejoin="round"/>
    <path d="M 57.34440612792969 117.09680938720703 C 59.07464599609375 95.26846313476562 52.527645111083984 131.939697265625 66.685546875 127.43916320800781" stroke-width="3.0" fill="none" stroke="rgb(0, 0, 0)" stroke-opacity="1.0" stroke-linecap="round" stroke-linejoin="round"/>
    <path d="M 185.45590209960938 93.89816284179688 C 150.27859497070312 77.44405364990234 182.2748565673828 81.19307708740234 186.6559295654297 104.50572204589844" stroke-width="3.0" fill="none" stroke="rgb(0, 0, 0)" stroke-opacity="1.0" stroke-linecap="round" stroke-linejoin="round"/>
    <path d="M 178.53213500976562 56.76506042480469 C 185.552734375 100.05599975585938 177.07687377929688 98.71044921875 180.57928466796875 72.16450500488281" stroke-width="3.0" fill="none" stroke="rgb(0, 0, 0)" stroke-opacity="1.0" stroke-linecap="round" stroke-linejoin="round"/>
    <path d="M 132.63006591796875 98.05828094482422 C 152.691650390625 116.6445541381836 100.98450469970703 98.84602355957031 132.3933868408203 105.24337768554688" stroke-width="3.0" fill="none" stroke="rgb(0, 0, 0)" stroke-opacity="1.0" stroke-linecap="round" stroke-linejoin="round"/>
    <path d="M 181.90838623046875 87.0979995727539 C 181.87652587890625 73.04901123046875 196.11717224121094 72.22303009033203 143.80364990234375 86.86204528808594" stroke-width="3.0" fill="none" stroke="rgb(0, 0, 0)" stroke-opacity="1.0" stroke-linecap="round" stroke-linejoin="round"/>
    <path d="M 65.95243072509766 191.38555908203125 C 39.62214660644531 165.28126525878906 52.7377815246582 168.44039916992188 49.61003494262695 173.72909545898438" stroke-width="3.0" fill="none" stroke="rgb(0, 0, 0)" stroke-opacity="1.0" stroke-linecap="round" stroke-linejoin="round"/>
    <path d="M 57.69188690185547 183.1967315673828 C 89.51363372802734 213.0810546875 128.99642944335938 199.09072875976562 137.13027954101562 170.82984924316406" stroke-width="3.0" fill="none" stroke="rgb(0, 0, 0)" stroke-opacity="1.0" stroke-linecap="round" stroke-linejoin="round"/>
    <path d="M 83.84327697753906 17.41687774658203 C 94.27223205566406 75.71157836914062 89.75394439697266 6.518155097961426 82.74385833740234 57.65900421142578" stroke-width="3.0" fill="none" stroke="rgb(0, 0, 0)" stroke-opacity="1.0" stroke-linecap="round" stroke-linejoin="round"/>
    <path d="M 54.422149658203125 87.5753402709961 C 60.05638122558594 143.25648498535156 73.61715698242188 139.64453125 61.97284698486328 126.0374755859375" stroke-width="3.0" fill="none" stroke="rgb(0, 0, 0)" stroke-opacity="1.0" stroke-linecap="round" stroke-linejoin="round"/>
    <path d="M 147.55270385742188 73.760009765625 C 201.7451171875 64.23190307617188 189.56594848632812 85.81401824951172 139.1703338623047 85.68152618408203" stroke-width="3.0" fill="none" stroke="rgb(0, 0, 0)" stroke-opacity="1.0" stroke-linecap="round" stroke-linejoin="round"/>
    <path d="M 156.92752075195312 93.37366485595703 C 177.7230682373047 105.39850616455078 185.06346130371094 94.40741729736328 195.06101989746094 113.47547149658203" stroke-width="3.0" fill="none" stroke="rgb(0, 0, 0)" stroke-opacity="1.0" stroke-linecap="round" stroke-linejoin="round"/>
    <path d="M 120.04512786865234 151.30133056640625 C 153.45555114746094 152.85647583007812 104.0489501953125 146.08279418945312 97.14297485351562 153.6357879638672" stroke-width="3.0" fill="none" stroke="rgb(0, 0, 0)" stroke-opacity="1.0" stroke-linecap="round" stroke-linejoin="round"/>
    <path d="M 180.52291870117188 8.507488250732422 C 189.81246948242188 27.72516441345215 170.81179809570312 91.70944213867188 180.8290557861328 56.710296630859375" stroke-width="3.0" fill="none" stroke="rgb(0, 0, 0)" stroke-opacity="1.0" stroke-linecap="round" stroke-linejoin="round"/>
    <path d="M 135.65562438964844 32.85198974609375 C 104.66918182373047 27.200969696044922 136.98989868164062 39.76222610473633 123.96576690673828 83.3699722290039" stroke-width="3.0" fill="none" stroke="rgb(0, 0, 0)" stroke-opacity="1.0" stroke-linecap="round" stroke-linejoin="round"/>
    <path d="M 104.6434097290039 47.205596923828125 C 61.878456115722656 -4.260534286499023 85.23873901367188 -1.3331648111343384 118.22994232177734 32.772769927978516" stroke-width="3.0" fill="none" stroke="rgb(0, 0, 0)" stroke-opacity="1.0" stroke-linecap="round" stroke-linejoin="round"/>
    <path d="M 48.168216705322266 168.7481231689453 C 43.73722839355469 155.98208618164062 38.66787338256836 151.43357849121094 47.37761306762695 170.9716796875" stroke-width="3.0" fill="none" stroke="rgb(0, 0, 0)" stroke-opacity="1.0" stroke-linecap="round" stroke-linejoin="round"/>
    <path d="M 46.358245849609375 83.035888671875 C 13.408864974975586 122.95455169677734 38.7587890625 138.66482543945312 45.425296783447266 165.43418884277344" stroke-width="3.0" fill="none" stroke="rgb(0, 0, 0)" stroke-opacity="1.0" stroke-linecap="round" stroke-linejoin="round"/>
    <path d="M 68.42998504638672 137.32962036132812 C 124.2341079711914 156.8302459716797 90.86656188964844 146.470947265625 83.81546020507812 144.60110473632812" stroke-width="3.0" fill="none" stroke="rgb(0, 0, 0)" stroke-opacity="1.0" stroke-linecap="round" stroke-linejoin="round"/>
    <path d="M 87.8963394165039 199.60293579101562 C 70.59674835205078 204.2828826904297 48.65077590942383 175.21067810058594 46.22903060913086 167.99327087402344" stroke-width="3.0" fill="none" stroke="rgb(0, 0, 0)" stroke-opacity="1.0" stroke-linecap="round" stroke-linejoin="round"/>
    <path d="M 46.57880401611328 171.4202117919922 C 65.89817810058594 197.08425903320312 49.41460037231445 170.0876007080078 39.08562088012695 151.1750030517578" stroke-width="3.0" fill="none" stroke="rgb(0, 0, 0)" stroke-opacity="1.0" stroke-linecap="round" stroke-linejoin="round"/>
    <path d="M 79.41204833984375 52.142799377441406 C 56.617828369140625 61.39707946777344 52.99825668334961 71.89139556884766 32.30059051513672 108.96820831298828" stroke-width="3.0" fill="none" stroke="rgb(0, 0, 0)" stroke-opacity="1.0" stroke-linecap="round" stroke-linejoin="round"/>
    <path d="M 158.71046447753906 138.51461791992188 C 103.04579162597656 156.8588104248047 91.15811920166016 160.42250061035156 144.6241455078125 142.57969665527344" stroke-width="3.0" fill="none" stroke="rgb(0, 0, 0)" stroke-opacity="1.0" stroke-linecap="round" stroke-linejoin="round"/>
    <path d="M 150.8148193359375 28.68700408935547 C 139.23716735839844 31.925777435302734 128.67996215820312 14.257864952087402 141.10073852539062 81.10073852539062" stroke-width="3.0" fill="none" stroke="rgb(0, 0, 0)" stroke-opacity="1.0" stroke-linecap="round" stroke-linejoin="round"/>
    <path d="M 146.37115478515625 99.86334228515625 C 127.05767822265625 115.7036361694336 124.23413848876953 106.91558837890625 117.3934097290039 92.99610137939453" stroke-width="3.0" fill="none" stroke="rgb(0, 0, 0)" stroke-opacity="1.0" stroke-linecap="round" stroke-linejoin="round"/>
    <path d="M 139.73187255859375 70.92558288574219 C 138.62205505371094 52.23666000366211 130.7595977783203 75.23707580566406 139.8440704345703 76.22762298583984" stroke-width="3.0" fill="none" stroke="rgb(0, 0, 0)" stroke-opacity="1.0" stroke-linecap="round" stroke-linejoin="round"/>
    <path d="M 140.16342163085938 164.09059143066406 C 129.306640625 179.93875122070312 142.34437561035156 170.423095703125 146.57431030273438 144.97262573242188" stroke-width="3.0" fill="none" stroke="rgb(0, 0, 0)" stroke-opacity="1.0" stroke-linecap="round" stroke-linejoin="round"/>
    <path d="M 194.42044067382812 96.0716552734375 C 162.3803253173828 70.36730194091797 164.04901123046875 78.6920394897461 180.00379943847656 95.70967102050781" stroke-width="3.0" fill="none" stroke="rgb(0, 0, 0)" stroke-opacity="1.0" stroke-linecap="round" stroke-linejoin="round"/>
    <path d="M 155.07107543945312 74.67719268798828 C 131.2412109375 52.62630081176758 195.36602783203125 92.98259735107422 182.49070739746094 60.25614929199219" stroke-width="3.0" fill="none" stroke="rgb(0, 0, 0)" stroke-opacity="1.0" stroke-linecap="round" stroke-linejoin="round"/>
    <path d="M 116.64437866210938 84.33390045166016 C 82.43022155761719 74.40918731689453 145.79461669921875 77.81317138671875 104.91414642333984 85.17474365234375" stroke-width="3.0" fill="none" stroke="rgb(0, 0, 0)" stroke-opacity="1.0" stroke-linecap="round" stroke-linejoin="round"/>
    <path d="M 168.851318359375 127.44597625732422 C 149.24908447265625 156.5500030517578 110.18061065673828 146.91726684570312 105.23993682861328 155.5966033935547" stroke-width="3.0" fill="none" stroke="rgb(0, 0, 0)" stroke-opacity="1.0" stroke-linecap="round" stroke-linejoin="round"/>
    <path d="M 123.42103576660156 92.78055572509766 C 142.8322296142578 95.88416290283203 128.55581665039062 70.64971160888672 129.83523559570312 104.2210464477539" stroke-width="3.0" fill="none" stroke="rgb(0, 0, 0)" stroke-opacity="1.0" stroke-linecap="round" stroke-linejoin="round"/>
    <path d="M 187.2967529296875 111.5743179321289 C 158.3515625 87.28490447998047 182.01959228515625 91.36800384521484 146.75601196289062 86.25967407226562" stroke-width="3.0" fill="none" stroke="rgb(0, 0, 0)" stroke-opacity="1.0" stroke-linecap="round" stroke-linejoin="round"/>
    <path d="M 83.94075012207031 11.974518775939941 C 116.4892349243164 24.446332931518555 98.0193862915039 35.989959716796875 135.75885009765625 30.078304290771484" stroke-width="3.0" fill="none" stroke="rgb(0, 0, 0)" stroke-opacity="1.0" stroke-linecap="round" stroke-linejoin="round"/>
    <path d="M 58.423404693603516 119.21993255615234 C 59.14078903198242 110.650146484375 57.31245040893555 119.72429656982422 64.64617919921875 128.60089111328125" stroke-width="3.0" fill="none" stroke="rgb(0, 0, 0)" stroke-opacity="1.0" stroke-linecap="round" stroke-linejoin="round"/>
    <path d="M 137.43246459960938 105.48268127441406 C 130.9873809814453 88.10194396972656 120.85398864746094 112.38011932373047 115.27886199951172 90.58238220214844" stroke-width="3.0" fill="none" stroke="rgb(0, 0, 0)" stroke-opacity="1.0" stroke-linecap="round" stroke-linejoin="round"/>
    <path d="M 32.316192626953125 134.66336059570312 C 28.368810653686523 116.79413604736328 32.51599884033203 84.17401885986328 59.49794387817383 67.36652374267578" stroke-width="3.0" fill="none" stroke="rgb(0, 0, 0)" stroke-opacity="1.0" stroke-linecap="round" stroke-linejoin="round"/>
    <path d="M 99.07543182373047 200.5442657470703 C 69.01490783691406 191.5641632080078 69.87866973876953 197.68359375 102.655029296875 198.84307861328125" stroke-width="3.0" fill="none" stroke="rgb(0, 0, 0)" stroke-opacity="1.0" stroke-linecap="round" stroke-linejoin="round"/>
    <path d="M 172.33456420898438 128.9701385498047 C 200.70388793945312 111.42638397216797 182.06936645507812 96.02226257324219 154.28382873535156 87.14871215820312" stroke-width="3.0" fill="none" stroke="rgb(0, 0, 0)" stroke-opacity="1.0" stroke-linecap="round" stroke-linejoin="round"/>
    <path d="M 149.09646606445312 66.81636810302734 C 137.63226318359375 87.37125396728516 178.37779235839844 72.74691772460938 147.05296325683594 68.71766662597656" stroke-width="3.0" fill="none" stroke="rgb(0, 0, 0)" stroke-opacity="1.0" stroke-linecap="round" stroke-linejoin="round"/>
    <path d="M 140.52293395996094 76.50067901611328 C 139.63742065429688 39.166290283203125 196.3842315673828 111.92938995361328 178.9303436279297 44.717159271240234" stroke-width="3.0" fill="none" stroke="rgb(0, 0, 0)" stroke-opacity="1.0" stroke-linecap="round" stroke-linejoin="round"/>
    <path d="M 156.08847045898438 97.61611938476562 C 169.86012268066406 99.10921478271484 171.14048767089844 99.59782409667969 184.9270782470703 117.65093231201172" stroke-width="3.0" fill="none" stroke="rgb(0, 0, 0)" stroke-opacity="1.0" stroke-linecap="round" stroke-linejoin="round"/>
    <path d="M 176.71437072753906 16.568927764892578 C 178.7161865234375 45.19603729248047 167.42333984375 17.616065979003906 147.3769989013672 36.905582427978516" stroke-width="3.0" fill="none" stroke="rgb(0, 0, 0)" stroke-opacity="1.0" stroke-linecap="round" stroke-linejoin="round"/>
    <path d="M 122.51256561279297 104.09521484375 C 154.99156188964844 102.46680450439453 139.38241577148438 110.57341766357422 118.49378967285156 98.91539764404297" stroke-width="3.0" fill="none" stroke="rgb(0, 0, 0)" stroke-opacity="1.0" stroke-linecap="round" stroke-linejoin="round"/>
    <path d="M 63.211605072021484 120.7828598022461 C 51.331336975097656 114.77313232421875 58.96977233886719 109.03924560546875 60.052635192871094 118.3470687866211" stroke-width="3.0" fill="none" stroke="rgb(0, 0, 0)" stroke-opacity="1.0" stroke-linecap="round" stroke-linejoin="round"/>
    <path d="M 124.6596908569336 74.47039031982422 C 121.83258819580078 42.172061920166016 114.64118957519531 61.63701629638672 121.05204010009766 39.44478225708008" stroke-width="3.0" fill="none" stroke="rgb(0, 0, 0)" stroke-opacity="1.0" stroke-linecap="round" stroke-linejoin="round"/>
    <path d="M 151.91543579101562 25.90188217163086 C 143.36959838867188 34.223915100097656 166.0034942626953 8.827313423156738 178.26495361328125 9.68720817565918" stroke-width="3.0" fill="none" stroke="rgb(0, 0, 0)" stroke-opacity="1.0" stroke-linecap="round" stroke-linejoin="round"/>
  </g>
</svg>
