<?xml version="1.0" ?>
<svg xmlns="http://www.w3.org/2000/svg" version="1.1" width="224" height="224">
  <defs/>
  <g>
    <path d="M 63.5546989440918 81.26465606689453 C 65.62767028808594 81.02008819580078 66.43929290771484 84.23078918457031 57.904052734375 72.44515228271484" stroke-width="3.0" fill="none" stroke="rgb(0, 0, 0)" stroke-opacity="1.0" stroke-linecap="round" stroke-linejoin="round"/>
    <path d="M 183.4573974609375 122.50970458984375 C 178.31417846679688 114.17051696777344 199.6479034423828 95.57332611083984 173.40673828125 128.88795471191406" stroke-width="3.0" fill="none" stroke="rgb(0, 0, 0)" stroke-opacity="1.0" stroke-linecap="round" stroke-linejoin="round"/>
    <path d="M 60.54901885986328 123.15153503417969 C 59.80698776245117 96.50725555419922 63.398929595947266 125.84469604492188 66.00935363769531 130.64682006835938" stroke-width="3.0" fill="none" stroke="rgb(0, 0, 0)" stroke-opacity="1.0" stroke-linecap="round" stroke-linejoin="round"/>
    <path d="M 185.83731079101562 100.09159851074219 C 150.78248596191406 86.31140899658203 174.20838928222656 80.4332504272461 195.61810302734375 113.86637115478516" stroke-width="3.0" fill="none" stroke="rgb(0, 0, 0)" stroke-opacity="1.0" stroke-linecap="round" stroke-linejoin="round"/>
    <path d="M 184.94093322753906 60.504356384277344 C 172.30162048339844 113.33341217041016 181.85621643066406 101.4688491821289 186.20635986328125 70.66898345947266" stroke-width="3.0" fill="none" stroke="rgb(0, 0, 0)" stroke-opacity="1.0" stroke-linecap="round" stroke-linejoin="round"/>
    <path d="M 123.90076446533203 102.89344024658203 C 147.6016387939453 116.01718139648438 107.16102600097656 93.78941345214844 135.68173217773438 104.31612396240234" stroke-width="3.0" fill="none" stroke="rgb(0, 0, 0)" stroke-opacity="1.0" stroke-linecap="round" stroke-linejoin="round"/>
    <path d="M 174.1247100830078 95.61598205566406 C 187.6918487548828 89.60631561279297 175.85577392578125 75.07050323486328 155.7814483642578 86.44026184082031" stroke-width="3.0" fill="none" stroke="rgb(0, 0, 0)" stroke-opacity="1.0" stroke-linecap="round" stroke-linejoin="round"/>
    <path d="M 58.25703430175781 184.18186950683594 C 36.99591064453125 155.83392333984375 47.390045166015625 165.56690979003906 50.06046676635742 173.83302307128906" stroke-width="3.0" fill="none" stroke="rgb(0, 0, 0)" stroke-opacity="1.0" stroke-linecap="round" stroke-linejoin="round"/>
    <path d="M 57.09579086303711 184.48193359375 C 95.60183715820312 208.9882354736328 111.41065979003906 195.20558166503906 131.5092315673828 179.30960083007812" stroke-width="3.0" fill="none" stroke="rgb(0, 0, 0)" stroke-opacity="1.0" stroke-linecap="round" stroke-linejoin="round"/>
    <path d="M 85.66673278808594 33.2036247253418 C 98.3270034790039 75.13220977783203 81.74430847167969 11.420378684997559 83.62107849121094 56.85103988647461" stroke-width="3.0" fill="none" stroke="rgb(0, 0, 0)" stroke-opacity="1.0" stroke-linecap="round" stroke-linejoin="round"/>
    <path d="M 58.969200134277344 101.34719848632812 C 65.55009460449219 134.97064208984375 96.3683090209961 159.7449188232422 95.28075408935547 150.65945434570312" stroke-width="3.0" fill="none" stroke="rgb(0, 0, 0)" stroke-opacity="1.0" stroke-linecap="round" stroke-linejoin="round"/>
    <path d="M 144.25965881347656 73.13235473632812 C 205.25698852539062 69.77678680419922 191.0818328857422 82.72984313964844 150.83839416503906 86.22879028320312" stroke-width="3.0" fill="none" stroke="rgb(0, 0, 0)" stroke-opacity="1.0" stroke-linecap="round" stroke-linejoin="round"/>
    <path d="M 151.77671813964844 97.75196075439453 C 187.4622039794922 100.74137115478516 171.7827911376953 104.67927551269531 194.46182250976562 112.79218292236328" stroke-width="3.0" fill="none" stroke="rgb(0, 0, 0)" stroke-opacity="1.0" stroke-linecap="round" stroke-linejoin="round"/>
    <path d="M 118.4897232055664 156.05709838867188 C 145.51779174804688 149.06053161621094 123.48310089111328 155.0198516845703 111.66184997558594 155.9933624267578" stroke-width="3.0" fill="none" stroke="rgb(0, 0, 0)" stroke-opacity="1.0" stroke-linecap="round" stroke-linejoin="round"/>
    <path d="M 179.5979766845703 8.616129875183105 C 188.72776794433594 23.559307098388672 175.48390197753906 62.170223236083984 179.97203063964844 50.073516845703125" stroke-width="3.0" fill="none" stroke="rgb(0, 0, 0)" stroke-opacity="1.0" stroke-linecap="round" stroke-linejoin="round"/>
    <path d="M 128.09097290039062 29.8592529296875 C 122.19156646728516 55.62744140625 132.63748168945312 37.59392166137695 125.87800598144531 74.72103118896484" stroke-width="3.0" fill="none" stroke="rgb(0, 0, 0)" stroke-opacity="1.0" stroke-linecap="round" stroke-linejoin="round"/>
    <path d="M 87.07731628417969 52.95255661010742 C 75.97543334960938 -8.882190704345703 82.41596984863281 -0.5820459723472595 107.0384292602539 41.751190185546875" stroke-width="3.0" fill="none" stroke="rgb(0, 0, 0)" stroke-opacity="1.0" stroke-linecap="round" stroke-linejoin="round"/>
    <path d="M 46.665523529052734 168.17315673828125 C 40.40883255004883 154.390380859375 38.48624801635742 145.1935272216797 46.30491256713867 168.21365356445312" stroke-width="3.0" fill="none" stroke="rgb(0, 0, 0)" stroke-opacity="1.0" stroke-linecap="round" stroke-linejoin="round"/>
    <path d="M 34.612300872802734 101.48829650878906 C 21.49061393737793 124.94108581542969 38.00458908081055 146.6121826171875 40.853302001953125 153.54977416992188" stroke-width="3.0" fill="none" stroke="rgb(0, 0, 0)" stroke-opacity="1.0" stroke-linecap="round" stroke-linejoin="round"/>
    <path d="M 86.87274169921875 150.37156677246094 C 110.36626434326172 158.635009765625 112.00480651855469 164.10057067871094 104.79790496826172 153.68231201171875" stroke-width="3.0" fill="none" stroke="rgb(0, 0, 0)" stroke-opacity="1.0" stroke-linecap="round" stroke-linejoin="round"/>
    <path d="M 82.47982788085938 197.69808959960938 C 68.82803344726562 199.10052490234375 49.76167297363281 177.966552734375 48.63407516479492 169.32382202148438" stroke-width="3.0" fill="none" stroke="rgb(0, 0, 0)" stroke-opacity="1.0" stroke-linecap="round" stroke-linejoin="round"/>
    <path d="M 46.00367736816406 166.69873046875 C 60.87626647949219 193.7824249267578 43.58503723144531 165.90966796875 39.375762939453125 150.71144104003906" stroke-width="3.0" fill="none" stroke="rgb(0, 0, 0)" stroke-opacity="1.0" stroke-linecap="round" stroke-linejoin="round"/>
    <path d="M 78.23792266845703 53.393280029296875 C 62.76100540161133 57.9600944519043 47.98677444458008 73.13805389404297 32.61355209350586 104.81452941894531" stroke-width="3.0" fill="none" stroke="rgb(0, 0, 0)" stroke-opacity="1.0" stroke-linecap="round" stroke-linejoin="round"/>
    <path d="M 148.9814453125 142.4331817626953 C 127.07251739501953 159.75372314453125 116.31109619140625 151.03285217285156 133.3267364501953 155.31484985351562" stroke-width="3.0" fill="none" stroke="rgb(0, 0, 0)" stroke-opacity="1.0" stroke-linecap="round" stroke-linejoin="round"/>
    <path d="M 137.76390075683594 30.1243896484375 C 148.49989318847656 64.6319351196289 134.86862182617188 53.49797058105469 136.2641143798828 81.14079284667969" stroke-width="3.0" fill="none" stroke="rgb(0, 0, 0)" stroke-opacity="1.0" stroke-linecap="round" stroke-linejoin="round"/>
    <path d="M 147.32305908203125 100.9036636352539 C 118.8400650024414 113.70921325683594 135.66204833984375 109.7394790649414 122.57538604736328 105.902099609375" stroke-width="3.0" fill="none" stroke="rgb(0, 0, 0)" stroke-opacity="1.0" stroke-linecap="round" stroke-linejoin="round"/>
    <path d="M 136.79452514648438 76.73523712158203 C 144.97036743164062 57.51632308959961 131.2747039794922 58.12516403198242 137.65187072753906 76.36520385742188" stroke-width="3.0" fill="none" stroke="rgb(0, 0, 0)" stroke-opacity="1.0" stroke-linecap="round" stroke-linejoin="round"/>
    <path d="M 130.67230224609375 179.18728637695312 C 124.67005920410156 182.54234313964844 136.13763427734375 178.18304443359375 145.9365234375 146.6235809326172" stroke-width="3.0" fill="none" stroke="rgb(0, 0, 0)" stroke-opacity="1.0" stroke-linecap="round" stroke-linejoin="round"/>
    <path d="M 193.06399536132812 97.0695571899414 C 167.22958374023438 71.96098327636719 153.37960815429688 86.60442352294922 184.2362823486328 91.57402801513672" stroke-width="3.0" fill="none" stroke="rgb(0, 0, 0)" stroke-opacity="1.0" stroke-linecap="round" stroke-linejoin="round"/>
    <path d="M 147.2971649169922 74.57762908935547 C 161.7902374267578 63.69537353515625 193.4499053955078 90.84883117675781 181.87843322753906 66.63237762451172" stroke-width="3.0" fill="none" stroke="rgb(0, 0, 0)" stroke-opacity="1.0" stroke-linecap="round" stroke-linejoin="round"/>
    <path d="M 113.42549896240234 83.0734634399414 C 83.57431030273438 71.19390869140625 140.38751220703125 74.08436584472656 107.00755310058594 81.97342681884766" stroke-width="3.0" fill="none" stroke="rgb(0, 0, 0)" stroke-opacity="1.0" stroke-linecap="round" stroke-linejoin="round"/>
    <path d="M 157.59707641601562 137.58680725097656 C 131.02296447753906 167.4893035888672 119.55708312988281 150.31375122070312 108.34292602539062 159.70458984375" stroke-width="3.0" fill="none" stroke="rgb(0, 0, 0)" stroke-opacity="1.0" stroke-linecap="round" stroke-linejoin="round"/>
    <path d="M 124.3129653930664 90.98030090332031 C 139.95091247558594 102.78823852539062 132.80796813964844 67.41917419433594 127.73233032226562 106.27892303466797" stroke-width="3.0" fill="none" stroke="rgb(0, 0, 0)" stroke-opacity="1.0" stroke-linecap="round" stroke-linejoin="round"/>
    <path d="M 186.48741149902344 111.56896209716797 C 177.16014099121094 84.05937194824219 183.43142700195312 96.25613403320312 140.99270629882812 83.56287384033203" stroke-width="3.0" fill="none" stroke="rgb(0, 0, 0)" stroke-opacity="1.0" stroke-linecap="round" stroke-linejoin="round"/>
    <path d="M 86.62049102783203 8.331493377685547 C 101.81262969970703 12.151254653930664 115.13126373291016 35.63095474243164 120.47867584228516 30.760927200317383" stroke-width="3.0" fill="none" stroke="rgb(0, 0, 0)" stroke-opacity="1.0" stroke-linecap="round" stroke-linejoin="round"/>
    <path d="M 67.39331817626953 124.37799835205078 C 62.928810119628906 112.06912994384766 67.61952209472656 130.49256896972656 65.27916717529297 123.637451171875" stroke-width="3.0" fill="none" stroke="rgb(0, 0, 0)" stroke-opacity="1.0" stroke-linecap="round" stroke-linejoin="round"/>
    <path d="M 137.1747283935547 104.53165435791016 C 125.57516479492188 94.9246597290039 119.74163818359375 118.84130859375 111.78629302978516 89.02334594726562" stroke-width="3.0" fill="none" stroke="rgb(0, 0, 0)" stroke-opacity="1.0" stroke-linecap="round" stroke-linejoin="round"/>
    <path d="M 31.42999267578125 133.0439453125 C 25.329078674316406 101.4249496459961 40.80146408081055 107.16844940185547 43.89646530151367 85.43204498291016" stroke-width="3.0" fill="none" stroke="rgb(0, 0, 0)" stroke-opacity="1.0" stroke-linecap="round" stroke-linejoin="round"/>
    <path d="M 76.51087951660156 196.30174255371094 C 70.66485595703125 193.92178344726562 67.55252838134766 192.71148681640625 96.1226806640625 198.39813232421875" stroke-width="3.0" fill="none" stroke="rgb(0, 0, 0)" stroke-opacity="1.0" stroke-linecap="round" stroke-linejoin="round"/>
    <path d="M 158.02122497558594 134.9445343017578 C 203.7494659423828 116.8404769897461 177.3883056640625 98.90249633789062 158.17274475097656 92.00898742675781" stroke-width="3.0" fill="none" stroke="rgb(0, 0, 0)" stroke-opacity="1.0" stroke-linecap="round" stroke-linejoin="round"/>
    <path d="M 158.2772979736328 70.97361755371094 C 134.1447296142578 82.7913818359375 170.03860473632812 81.43537139892578 147.25238037109375 71.68556213378906" stroke-width="3.0" fill="none" stroke="rgb(0, 0, 0)" stroke-opacity="1.0" stroke-linecap="round" stroke-linejoin="round"/>
    <path d="M 141.81492614746094 77.40938568115234 C 147.93359375 41.4091796875 194.6761932373047 114.18909454345703 181.05694580078125 44.97366714477539" stroke-width="3.0" fill="none" stroke="rgb(0, 0, 0)" stroke-opacity="1.0" stroke-linecap="round" stroke-linejoin="round"/>
    <path d="M 156.85861206054688 97.92403411865234 C 168.25315856933594 107.3634033203125 171.28634643554688 101.51322174072266 183.7793426513672 117.90621948242188" stroke-width="3.0" fill="none" stroke="rgb(0, 0, 0)" stroke-opacity="1.0" stroke-linecap="round" stroke-linejoin="round"/>
    <path d="M 175.0730743408203 17.469745635986328 C 172.66592407226562 45.20967483520508 176.05856323242188 27.028629302978516 162.8806915283203 37.84381103515625" stroke-width="3.0" fill="none" stroke="rgb(0, 0, 0)" stroke-opacity="1.0" stroke-linecap="round" stroke-linejoin="round"/>
    <path d="M 119.68248748779297 103.58950805664062 C 143.613525390625 100.73501586914062 128.6571044921875 115.13517761230469 118.68766021728516 104.2066650390625" stroke-width="3.0" fill="none" stroke="rgb(0, 0, 0)" stroke-opacity="1.0" stroke-linecap="round" stroke-linejoin="round"/>
    <path d="M 80.39476776123047 134.99835205078125 C 54.385780334472656 117.71601104736328 60.222900390625 111.51478576660156 58.85342025756836 122.20207214355469" stroke-width="3.0" fill="none" stroke="rgb(0, 0, 0)" stroke-opacity="1.0" stroke-linecap="round" stroke-linejoin="round"/>
    <path d="M 123.46267700195312 77.0417709350586 C 124.86084747314453 41.863037109375 116.48887634277344 57.384559631347656 119.7960205078125 30.91988754272461" stroke-width="3.0" fill="none" stroke="rgb(0, 0, 0)" stroke-opacity="1.0" stroke-linecap="round" stroke-linejoin="round"/>
    <path d="M 150.06996154785156 29.095470428466797 C 144.00753784179688 37.245609283447266 158.59982299804688 9.329191207885742 178.4404754638672 9.170845031738281" stroke-width="3.0" fill="none" stroke="rgb(0, 0, 0)" stroke-opacity="1.0" stroke-linecap="round" stroke-linejoin="round"/>
  </g>
</svg>
