<?xml version="1.0" ?>
<svg xmlns="http://www.w3.org/2000/svg" version="1.1" width="224" height="224">
  <defs/>
  <g>
    <path d="M 59.607975006103516 110.69155883789062 C 62.95609664916992 112.25823974609375 54.319637298583984 109.11526489257812 46.003116607666016 103.19808959960938" stroke-width="3.0" fill="none" stroke="rgb(0, 0, 0)" stroke-opacity="1.0" stroke-linecap="round" stroke-linejoin="round"/>
    <path d="M 182.14352416992188 128.08724975585938 C 177.65733337402344 112.57424926757812 178.96092224121094 115.16258239746094 185.42913818359375 123.8944320678711" stroke-width="3.0" fill="none" stroke="rgb(0, 0, 0)" stroke-opacity="1.0" stroke-linecap="round" stroke-linejoin="round"/>
    <path d="M 56.59309387207031 110.41557312011719 C 57.7438850402832 117.10663604736328 55.21046829223633 105.46489715576172 56.796356201171875 110.5259017944336" stroke-width="3.0" fill="none" stroke="rgb(0, 0, 0)" stroke-opacity="1.0" stroke-linecap="round" stroke-linejoin="round"/>
    <path d="M 179.60789489746094 99.48957061767578 C 155.07252502441406 103.68299102783203 169.18841552734375 93.43988037109375 191.8323974609375 112.23672485351562" stroke-width="3.0" fill="none" stroke="rgb(0, 0, 0)" stroke-opacity="1.0" stroke-linecap="round" stroke-linejoin="round"/>
    <path d="M 183.4685516357422 78.95099639892578 C 183.9783172607422 85.30738067626953 175.14578247070312 76.13410949707031 181.51266479492188 78.84648895263672" stroke-width="3.0" fill="none" stroke="rgb(0, 0, 0)" stroke-opacity="1.0" stroke-linecap="round" stroke-linejoin="round"/>
    <path d="M 129.60731506347656 100.31768035888672 C 121.2497329711914 112.72200012207031 121.06001281738281 108.9744644165039 134.92808532714844 106.28529357910156" stroke-width="3.0" fill="none" stroke="rgb(0, 0, 0)" stroke-opacity="1.0" stroke-linecap="round" stroke-linejoin="round"/>
    <path d="M 170.71238708496094 81.13001251220703 C 189.5607452392578 80.12007141113281 181.876708984375 81.0075454711914 161.31854248046875 84.88398742675781" stroke-width="3.0" fill="none" stroke="rgb(0, 0, 0)" stroke-opacity="1.0" stroke-linecap="round" stroke-linejoin="round"/>
    <path d="M 56.32179641723633 180.96670532226562 C 36.50007247924805 156.58404541015625 49.47694396972656 160.36331176757812 46.22017288208008 159.0812225341797" stroke-width="3.0" fill="none" stroke="rgb(0, 0, 0)" stroke-opacity="1.0" stroke-linecap="round" stroke-linejoin="round"/>
    <path d="M 75.20354461669922 186.12478637695312 C 84.23307037353516 190.95582580566406 101.99373626708984 190.86831665039062 83.58058166503906 182.80377197265625" stroke-width="3.0" fill="none" stroke="rgb(0, 0, 0)" stroke-opacity="1.0" stroke-linecap="round" stroke-linejoin="round"/>
    <path d="M 89.54743957519531 46.59757614135742 C 87.4296646118164 67.08279418945312 90.25702667236328 63.82649230957031 87.87299346923828 52.77025604248047" stroke-width="3.0" fill="none" stroke="rgb(0, 0, 0)" stroke-opacity="1.0" stroke-linecap="round" stroke-linejoin="round"/>
    <path d="M 64.60749816894531 127.29981231689453 C 72.65884399414062 148.32858276367188 78.86920166015625 148.703125 80.1604232788086 151.8219451904297" stroke-width="3.0" fill="none" stroke="rgb(0, 0, 0)" stroke-opacity="1.0" stroke-linecap="round" stroke-linejoin="round"/>
    <path d="M 165.940185546875 83.19469451904297 C 186.49627685546875 78.68718719482422 175.152587890625 90.2917251586914 156.28134155273438 88.13362121582031" stroke-width="3.0" fill="none" stroke="rgb(0, 0, 0)" stroke-opacity="1.0" stroke-linecap="round" stroke-linejoin="round"/>
    <path d="M 157.68753051757812 104.1873550415039 C 176.2748260498047 100.96174621582031 162.62762451171875 102.80937957763672 182.86265563964844 106.54976654052734" stroke-width="3.0" fill="none" stroke="rgb(0, 0, 0)" stroke-opacity="1.0" stroke-linecap="round" stroke-linejoin="round"/>
    <path d="M 77.7099609375 170.369140625 C 81.83676147460938 184.22836303710938 94.20983123779297 182.62185668945312 96.89402770996094 192.42942810058594" stroke-width="3.0" fill="none" stroke="rgb(0, 0, 0)" stroke-opacity="1.0" stroke-linecap="round" stroke-linejoin="round"/>
    <path d="M 174.9929962158203 9.20430850982666 C 185.251953125 -1.8832120895385742 184.54832458496094 22.94478988647461 174.8105926513672 52.129112243652344" stroke-width="3.0" fill="none" stroke="rgb(0, 0, 0)" stroke-opacity="1.0" stroke-linecap="round" stroke-linejoin="round"/>
    <path d="M 127.7330551147461 32.60969161987305 C 126.72579956054688 49.67607879638672 124.5998306274414 42.245845794677734 129.46096801757812 59.34266662597656" stroke-width="3.0" fill="none" stroke="rgb(0, 0, 0)" stroke-opacity="1.0" stroke-linecap="round" stroke-linejoin="round"/>
    <path d="M 91.83541870117188 49.85981369018555 C 78.82405090332031 -11.65437126159668 86.11166381835938 4.453557014465332 100.91100311279297 41.33938217163086" stroke-width="3.0" fill="none" stroke="rgb(0, 0, 0)" stroke-opacity="1.0" stroke-linecap="round" stroke-linejoin="round"/>
    <path d="M 50.21527099609375 168.23756408691406 C 35.67698287963867 153.20628356933594 47.903404235839844 161.45594787597656 45.82456588745117 160.30126953125" stroke-width="3.0" fill="none" stroke="rgb(0, 0, 0)" stroke-opacity="1.0" stroke-linecap="round" stroke-linejoin="round"/>
    <path d="M 36.51858901977539 120.73985290527344 C 34.25092315673828 134.15673828125 34.46638488769531 141.29515075683594 40.652976989746094 148.06552124023438" stroke-width="3.0" fill="none" stroke="rgb(0, 0, 0)" stroke-opacity="1.0" stroke-linecap="round" stroke-linejoin="round"/>
    <path d="M 71.9417724609375 158.76951599121094 C 75.76329040527344 168.56947326660156 78.8949966430664 170.67979431152344 77.76652526855469 169.48165893554688" stroke-width="3.0" fill="none" stroke="rgb(0, 0, 0)" stroke-opacity="1.0" stroke-linecap="round" stroke-linejoin="round"/>
    <path d="M 73.81509399414062 188.68997192382812 C 51.12677764892578 175.95480346679688 73.25182342529297 193.35195922851562 50.91849136352539 176.68264770507812" stroke-width="3.0" fill="none" stroke="rgb(0, 0, 0)" stroke-opacity="1.0" stroke-linecap="round" stroke-linejoin="round"/>
    <path d="M 44.65537643432617 157.3804473876953 C 44.93716049194336 162.3362274169922 39.18070983886719 154.13328552246094 38.7634162902832 144.6758270263672" stroke-width="3.0" fill="none" stroke="rgb(0, 0, 0)" stroke-opacity="1.0" stroke-linecap="round" stroke-linejoin="round"/>
    <path d="M 61.09467315673828 59.26735305786133 C 50.17367172241211 78.1246566772461 48.7081184387207 73.57085418701172 38.81955337524414 110.57620239257812" stroke-width="3.0" fill="none" stroke="rgb(0, 0, 0)" stroke-opacity="1.0" stroke-linecap="round" stroke-linejoin="round"/>
    <path d="M 141.01898193359375 158.2101593017578 C 127.96737670898438 157.28431701660156 127.37413787841797 155.43246459960938 142.862548828125 161.69082641601562" stroke-width="3.0" fill="none" stroke="rgb(0, 0, 0)" stroke-opacity="1.0" stroke-linecap="round" stroke-linejoin="round"/>
    <path d="M 140.2740936279297 32.493160247802734 C 151.28280639648438 53.796695709228516 141.25645446777344 55.12147521972656 139.1088104248047 74.91152954101562" stroke-width="3.0" fill="none" stroke="rgb(0, 0, 0)" stroke-opacity="1.0" stroke-linecap="round" stroke-linejoin="round"/>
    <path d="M 147.2574005126953 100.64990997314453 C 128.5889434814453 107.89952850341797 113.14030456542969 103.34981536865234 128.19187927246094 105.72276306152344" stroke-width="3.0" fill="none" stroke="rgb(0, 0, 0)" stroke-opacity="1.0" stroke-linecap="round" stroke-linejoin="round"/>
    <path d="M 145.3690948486328 65.68611145019531 C 146.68394470214844 58.934043884277344 156.5338592529297 51.103912353515625 151.60598754882812 54.87918472290039" stroke-width="3.0" fill="none" stroke="rgb(0, 0, 0)" stroke-opacity="1.0" stroke-linecap="round" stroke-linejoin="round"/>
    <path d="M 105.99034118652344 193.58949279785156 C 76.49742889404297 175.4318389892578 96.96221923828125 203.36572265625 127.51998901367188 186.13352966308594" stroke-width="3.0" fill="none" stroke="rgb(0, 0, 0)" stroke-opacity="1.0" stroke-linecap="round" stroke-linejoin="round"/>
    <path d="M 181.7445831298828 91.07710266113281 C 169.86111450195312 75.44036102294922 168.65817260742188 90.58513641357422 173.65977478027344 81.84920501708984" stroke-width="3.0" fill="none" stroke="rgb(0, 0, 0)" stroke-opacity="1.0" stroke-linecap="round" stroke-linejoin="round"/>
    <path d="M 170.89198303222656 83.43675231933594 C 184.42564392089844 82.3712158203125 191.9295654296875 90.96753692626953 169.20907592773438 86.81539154052734" stroke-width="3.0" fill="none" stroke="rgb(0, 0, 0)" stroke-opacity="1.0" stroke-linecap="round" stroke-linejoin="round"/>
    <path d="M 118.42264556884766 75.26254272460938 C 93.02678680419922 69.72205352783203 136.44178771972656 67.39572143554688 112.32508087158203 76.74748229980469" stroke-width="3.0" fill="none" stroke="rgb(0, 0, 0)" stroke-opacity="1.0" stroke-linecap="round" stroke-linejoin="round"/>
    <path d="M 133.51625061035156 157.08705139160156 C 135.88339233398438 158.412109375 129.20118713378906 155.2659149169922 125.68382263183594 153.28256225585938" stroke-width="3.0" fill="none" stroke="rgb(0, 0, 0)" stroke-opacity="1.0" stroke-linecap="round" stroke-linejoin="round"/>
    <path d="M 124.85518646240234 90.21922302246094 C 140.470458984375 96.49517822265625 131.65704345703125 80.79719543457031 128.5582275390625 95.8296127319336" stroke-width="3.0" fill="none" stroke="rgb(0, 0, 0)" stroke-opacity="1.0" stroke-linecap="round" stroke-linejoin="round"/>
    <path d="M 183.72659301757812 98.75935363769531 C 171.4573974609375 97.22366333007812 185.228271484375 99.31710052490234 144.1893310546875 89.99614715576172" stroke-width="3.0" fill="none" stroke="rgb(0, 0, 0)" stroke-opacity="1.0" stroke-linecap="round" stroke-linejoin="round"/>
    <path d="M 88.3359146118164 7.47832727432251 C 109.09136199951172 15.755064964294434 112.66078186035156 33.95895004272461 119.81048583984375 33.106407165527344" stroke-width="3.0" fill="none" stroke="rgb(0, 0, 0)" stroke-opacity="1.0" stroke-linecap="round" stroke-linejoin="round"/>
    <path d="M 54.87141036987305 109.04915618896484 C 53.0059700012207 108.31402587890625 64.1569595336914 118.63478088378906 56.76616287231445 111.39820861816406" stroke-width="3.0" fill="none" stroke="rgb(0, 0, 0)" stroke-opacity="1.0" stroke-linecap="round" stroke-linejoin="round"/>
    <path d="M 121.15042114257812 100.49270629882812 C 92.90202331542969 95.96898651123047 130.9443359375 98.14981079101562 108.58714294433594 95.76909637451172" stroke-width="3.0" fill="none" stroke="rgb(0, 0, 0)" stroke-opacity="1.0" stroke-linecap="round" stroke-linejoin="round"/>
    <path d="M 36.307090759277344 119.20316314697266 C 40.68854904174805 97.77273559570312 38.917545318603516 106.64264678955078 39.22285079956055 114.15907287597656" stroke-width="3.0" fill="none" stroke="rgb(0, 0, 0)" stroke-opacity="1.0" stroke-linecap="round" stroke-linejoin="round"/>
    <path d="M 85.38771057128906 188.3125457763672 C 75.76024627685547 189.42575073242188 75.75203704833984 191.6854248046875 85.69503784179688 188.2891845703125" stroke-width="3.0" fill="none" stroke="rgb(0, 0, 0)" stroke-opacity="1.0" stroke-linecap="round" stroke-linejoin="round"/>
    <path d="M 173.34230041503906 134.57339477539062 C 190.0685577392578 105.97266387939453 168.0875244140625 101.65699005126953 149.5567626953125 94.3138427734375" stroke-width="3.0" fill="none" stroke="rgb(0, 0, 0)" stroke-opacity="1.0" stroke-linecap="round" stroke-linejoin="round"/>
    <path d="M 153.95932006835938 75.71581268310547 C 139.911865234375 58.49300003051758 145.14990234375 94.49519348144531 159.77642822265625 77.45427703857422" stroke-width="3.0" fill="none" stroke="rgb(0, 0, 0)" stroke-opacity="1.0" stroke-linecap="round" stroke-linejoin="round"/>
    <path d="M 147.7905731201172 68.71857452392578 C 165.09544372558594 69.99175262451172 172.7759246826172 75.74942016601562 181.7651824951172 71.98084259033203" stroke-width="3.0" fill="none" stroke="rgb(0, 0, 0)" stroke-opacity="1.0" stroke-linecap="round" stroke-linejoin="round"/>
    <path d="M 150.48138427734375 102.73580932617188 C 156.74661254882812 102.25252532958984 168.1085205078125 103.0291748046875 180.62063598632812 117.13424682617188" stroke-width="3.0" fill="none" stroke="rgb(0, 0, 0)" stroke-opacity="1.0" stroke-linecap="round" stroke-linejoin="round"/>
    <path d="M 171.52088928222656 19.615751266479492 C 163.86611938476562 40.02738571166992 161.6204833984375 23.038076400756836 164.60231018066406 40.54613494873047" stroke-width="3.0" fill="none" stroke="rgb(0, 0, 0)" stroke-opacity="1.0" stroke-linecap="round" stroke-linejoin="round"/>
    <path d="M 121.37530517578125 107.55473327636719 C 151.67645263671875 115.04776000976562 127.51752471923828 92.50629425048828 116.4549331665039 106.15020751953125" stroke-width="3.0" fill="none" stroke="rgb(0, 0, 0)" stroke-opacity="1.0" stroke-linecap="round" stroke-linejoin="round"/>
    <path d="M 55.62151336669922 107.95772552490234 C 55.54054641723633 108.90108489990234 51.97023010253906 101.92517852783203 67.41828155517578 123.49874114990234" stroke-width="3.0" fill="none" stroke="rgb(0, 0, 0)" stroke-opacity="1.0" stroke-linecap="round" stroke-linejoin="round"/>
    <path d="M 119.90731048583984 82.9477310180664 C 132.4930877685547 60.230735778808594 115.83575439453125 53.22653579711914 113.8616943359375 40.40008544921875" stroke-width="3.0" fill="none" stroke="rgb(0, 0, 0)" stroke-opacity="1.0" stroke-linecap="round" stroke-linejoin="round"/>
    <path d="M 146.05996704101562 31.542213439941406 C 156.3644561767578 25.86852264404297 152.66981506347656 19.289222717285156 175.803466796875 7.727365016937256" stroke-width="3.0" fill="none" stroke="rgb(0, 0, 0)" stroke-opacity="1.0" stroke-linecap="round" stroke-linejoin="round"/>
  </g>
</svg>
