<?xml version="1.0" ?>
<svg xmlns="http://www.w3.org/2000/svg" version="1.1" width="224" height="224">
  <defs/>
  <g>
    <path d="M 56.29295349121094 110.1016845703125 C 54.70006561279297 116.00957489013672 57.74366760253906 99.05594635009766 46.33156204223633 84.82499694824219" stroke-width="3.0" fill="none" stroke="rgb(0, 0, 0)" stroke-opacity="1.0" stroke-linecap="round" stroke-linejoin="round"/>
    <path d="M 185.85321044921875 122.67459869384766 C 179.53939819335938 104.88678741455078 185.0115509033203 115.4796371459961 179.1121063232422 126.24356079101562" stroke-width="3.0" fill="none" stroke="rgb(0, 0, 0)" stroke-opacity="1.0" stroke-linecap="round" stroke-linejoin="round"/>
    <path d="M 58.300201416015625 102.8844985961914 C 57.82648468017578 115.63562774658203 54.045101165771484 108.72212982177734 58.870540618896484 111.6382827758789" stroke-width="3.0" fill="none" stroke="rgb(0, 0, 0)" stroke-opacity="1.0" stroke-linecap="round" stroke-linejoin="round"/>
    <path d="M 181.33895874023438 91.79573059082031 C 156.2913360595703 83.41590118408203 172.4932403564453 83.7452621459961 195.11111450195312 114.68965148925781" stroke-width="3.0" fill="none" stroke="rgb(0, 0, 0)" stroke-opacity="1.0" stroke-linecap="round" stroke-linejoin="round"/>
    <path d="M 182.09275817871094 72.42870330810547 C 178.10385131835938 96.06681823730469 188.39016723632812 92.23298645019531 182.63003540039062 60.433929443359375" stroke-width="3.0" fill="none" stroke="rgb(0, 0, 0)" stroke-opacity="1.0" stroke-linecap="round" stroke-linejoin="round"/>
    <path d="M 126.25943756103516 103.54133605957031 C 152.17730712890625 96.84130859375 107.9381103515625 96.55972290039062 134.72276306152344 102.48287200927734" stroke-width="3.0" fill="none" stroke="rgb(0, 0, 0)" stroke-opacity="1.0" stroke-linecap="round" stroke-linejoin="round"/>
    <path d="M 168.47853088378906 98.77458953857422 C 205.7776336669922 84.08251953125 174.35850524902344 68.94459533691406 157.22984313964844 81.8585205078125" stroke-width="3.0" fill="none" stroke="rgb(0, 0, 0)" stroke-opacity="1.0" stroke-linecap="round" stroke-linejoin="round"/>
    <path d="M 55.825538635253906 183.60963439941406 C 38.74055862426758 156.42498779296875 47.84109878540039 161.7333526611328 46.7049560546875 165.5099639892578" stroke-width="3.0" fill="none" stroke="rgb(0, 0, 0)" stroke-opacity="1.0" stroke-linecap="round" stroke-linejoin="round"/>
    <path d="M 60.58469009399414 186.89013671875 C 89.54631042480469 206.0493927001953 109.16757202148438 197.14840698242188 125.9498519897461 184.77610778808594" stroke-width="3.0" fill="none" stroke="rgb(0, 0, 0)" stroke-opacity="1.0" stroke-linecap="round" stroke-linejoin="round"/>
    <path d="M 84.88603210449219 38.22285079956055 C 93.35472869873047 60.30063247680664 82.43968963623047 23.958606719970703 86.08116149902344 55.85464859008789" stroke-width="3.0" fill="none" stroke="rgb(0, 0, 0)" stroke-opacity="1.0" stroke-linecap="round" stroke-linejoin="round"/>
    <path d="M 60.07160568237305 122.24235534667969 C 54.618080139160156 133.32569885253906 98.7300033569336 157.45730590820312 101.47514343261719 151.13975524902344" stroke-width="3.0" fill="none" stroke="rgb(0, 0, 0)" stroke-opacity="1.0" stroke-linecap="round" stroke-linejoin="round"/>
    <path d="M 143.67005920410156 69.94375610351562 C 213.2104949951172 66.36500549316406 184.9151611328125 80.73237609863281 148.9333953857422 82.88270568847656" stroke-width="3.0" fill="none" stroke="rgb(0, 0, 0)" stroke-opacity="1.0" stroke-linecap="round" stroke-linejoin="round"/>
    <path d="M 149.8731231689453 92.8255615234375 C 183.83583068847656 98.13361358642578 184.15863037109375 96.02786254882812 188.88870239257812 114.15066528320312" stroke-width="3.0" fill="none" stroke="rgb(0, 0, 0)" stroke-opacity="1.0" stroke-linecap="round" stroke-linejoin="round"/>
    <path d="M 108.40424346923828 157.22772216796875 C 143.24281311035156 146.9954376220703 113.55857849121094 158.42613220214844 124.40441131591797 151.81185913085938" stroke-width="3.0" fill="none" stroke="rgb(0, 0, 0)" stroke-opacity="1.0" stroke-linecap="round" stroke-linejoin="round"/>
    <path d="M 174.90806579589844 8.593053817749023 C 189.9890594482422 4.329706192016602 175.31996154785156 62.34797668457031 181.86329650878906 55.72706604003906" stroke-width="3.0" fill="none" stroke="rgb(0, 0, 0)" stroke-opacity="1.0" stroke-linecap="round" stroke-linejoin="round"/>
    <path d="M 131.81495666503906 31.314041137695312 C 126.6145248413086 54.235931396484375 135.8504638671875 29.298017501831055 125.1439437866211 76.4155502319336" stroke-width="3.0" fill="none" stroke="rgb(0, 0, 0)" stroke-opacity="1.0" stroke-linecap="round" stroke-linejoin="round"/>
    <path d="M 89.34381103515625 51.25936508178711 C 72.27637481689453 -5.167356491088867 86.06813049316406 -1.5065258741378784 112.3183822631836 31.85702133178711" stroke-width="3.0" fill="none" stroke="rgb(0, 0, 0)" stroke-opacity="1.0" stroke-linecap="round" stroke-linejoin="round"/>
    <path d="M 43.15414810180664 161.6664581298828 C 43.025611877441406 152.83261108398438 36.3576545715332 148.25454711914062 40.38837814331055 152.4375762939453" stroke-width="3.0" fill="none" stroke="rgb(0, 0, 0)" stroke-opacity="1.0" stroke-linecap="round" stroke-linejoin="round"/>
    <path d="M 37.11597442626953 102.12230682373047 C 22.5827693939209 128.14938354492188 36.761207580566406 141.51283264160156 41.358028411865234 155.4339599609375" stroke-width="3.0" fill="none" stroke="rgb(0, 0, 0)" stroke-opacity="1.0" stroke-linecap="round" stroke-linejoin="round"/>
    <path d="M 87.67903900146484 147.28323364257812 C 101.66292572021484 165.15194702148438 115.1745834350586 144.9676971435547 108.61975860595703 158.75640869140625" stroke-width="3.0" fill="none" stroke="rgb(0, 0, 0)" stroke-opacity="1.0" stroke-linecap="round" stroke-linejoin="round"/>
    <path d="M 77.10913848876953 198.4235382080078 C 58.19753646850586 190.80821228027344 57.71128463745117 180.16543579101562 48.81103515625 174.1049041748047" stroke-width="3.0" fill="none" stroke="rgb(0, 0, 0)" stroke-opacity="1.0" stroke-linecap="round" stroke-linejoin="round"/>
    <path d="M 45.60391616821289 164.8138885498047 C 58.67325210571289 194.86965942382812 43.29120635986328 165.45669555664062 40.79258728027344 154.9842529296875" stroke-width="3.0" fill="none" stroke="rgb(0, 0, 0)" stroke-opacity="1.0" stroke-linecap="round" stroke-linejoin="round"/>
    <path d="M 81.63279724121094 52.74093246459961 C 55.81922149658203 59.72313690185547 53.724586486816406 73.7075424194336 33.42266082763672 107.83061981201172" stroke-width="3.0" fill="none" stroke="rgb(0, 0, 0)" stroke-opacity="1.0" stroke-linecap="round" stroke-linejoin="round"/>
    <path d="M 153.6157989501953 140.2324981689453 C 138.9228515625 158.70938110351562 119.44444274902344 148.8899383544922 132.87249755859375 153.4252166748047" stroke-width="3.0" fill="none" stroke="rgb(0, 0, 0)" stroke-opacity="1.0" stroke-linecap="round" stroke-linejoin="round"/>
    <path d="M 141.19590759277344 30.133071899414062 C 148.28221130371094 67.68501281738281 131.65274047851562 57.92871856689453 135.65621948242188 72.9871826171875" stroke-width="3.0" fill="none" stroke="rgb(0, 0, 0)" stroke-opacity="1.0" stroke-linecap="round" stroke-linejoin="round"/>
    <path d="M 146.960693359375 96.9506607055664 C 119.21607208251953 108.10999298095703 131.48500061035156 108.5268325805664 135.2883758544922 102.82666015625" stroke-width="3.0" fill="none" stroke="rgb(0, 0, 0)" stroke-opacity="1.0" stroke-linecap="round" stroke-linejoin="round"/>
    <path d="M 135.3133544921875 72.78640747070312 C 142.16551208496094 53.52900695800781 135.05064392089844 63.479759216308594 136.58030700683594 69.36589050292969" stroke-width="3.0" fill="none" stroke="rgb(0, 0, 0)" stroke-opacity="1.0" stroke-linecap="round" stroke-linejoin="round"/>
    <path d="M 134.80015563964844 180.5400848388672 C 115.9417953491211 187.75372314453125 141.2293243408203 186.1884765625 146.02426147460938 150.27471923828125" stroke-width="3.0" fill="none" stroke="rgb(0, 0, 0)" stroke-opacity="1.0" stroke-linecap="round" stroke-linejoin="round"/>
    <path d="M 195.41859436035156 93.97967529296875 C 168.98776245117188 74.05612182617188 149.89410400390625 80.76306915283203 183.84226989746094 80.6544189453125" stroke-width="3.0" fill="none" stroke="rgb(0, 0, 0)" stroke-opacity="1.0" stroke-linecap="round" stroke-linejoin="round"/>
    <path d="M 148.67864990234375 76.05229187011719 C 171.12774658203125 60.16947555541992 200.22445678710938 74.99405670166016 177.95492553710938 62.3170280456543" stroke-width="3.0" fill="none" stroke="rgb(0, 0, 0)" stroke-opacity="1.0" stroke-linecap="round" stroke-linejoin="round"/>
    <path d="M 111.06600189208984 79.82997131347656 C 93.36125183105469 72.26385498046875 138.11514282226562 78.11991119384766 106.24395751953125 82.97653198242188" stroke-width="3.0" fill="none" stroke="rgb(0, 0, 0)" stroke-opacity="1.0" stroke-linecap="round" stroke-linejoin="round"/>
    <path d="M 149.39385986328125 140.41213989257812 C 129.7786865234375 155.5673065185547 122.7448959350586 149.98162841796875 101.1636962890625 156.49688720703125" stroke-width="3.0" fill="none" stroke="rgb(0, 0, 0)" stroke-opacity="1.0" stroke-linecap="round" stroke-linejoin="round"/>
    <path d="M 124.48944091796875 88.39702606201172 C 142.00021362304688 96.33213806152344 131.77304077148438 69.61043548583984 129.2833251953125 103.60906982421875" stroke-width="3.0" fill="none" stroke="rgb(0, 0, 0)" stroke-opacity="1.0" stroke-linecap="round" stroke-linejoin="round"/>
    <path d="M 187.2719268798828 112.98966217041016 C 179.37774658203125 75.18922424316406 186.06777954101562 91.94208526611328 140.5276336669922 81.92789459228516" stroke-width="3.0" fill="none" stroke="rgb(0, 0, 0)" stroke-opacity="1.0" stroke-linecap="round" stroke-linejoin="round"/>
    <path d="M 87.1392822265625 7.703121662139893 C 109.3009033203125 13.904300689697266 117.20599365234375 35.705177307128906 125.33026123046875 30.681678771972656" stroke-width="3.0" fill="none" stroke="rgb(0, 0, 0)" stroke-opacity="1.0" stroke-linecap="round" stroke-linejoin="round"/>
    <path d="M 62.423126220703125 118.81625366210938 C 47.99638748168945 109.86557006835938 64.66048431396484 118.79510498046875 56.29325485229492 115.16690826416016" stroke-width="3.0" fill="none" stroke="rgb(0, 0, 0)" stroke-opacity="1.0" stroke-linecap="round" stroke-linejoin="round"/>
    <path d="M 131.42872619628906 105.96207427978516 C 113.97956848144531 94.6868667602539 122.40974426269531 108.59219360351562 109.28530883789062 90.52193450927734" stroke-width="3.0" fill="none" stroke="rgb(0, 0, 0)" stroke-opacity="1.0" stroke-linecap="round" stroke-linejoin="round"/>
    <path d="M 31.394926071166992 132.05996704101562 C 28.190597534179688 114.35057067871094 35.1727409362793 103.57804870605469 32.80924606323242 112.38121032714844" stroke-width="3.0" fill="none" stroke="rgb(0, 0, 0)" stroke-opacity="1.0" stroke-linecap="round" stroke-linejoin="round"/>
    <path d="M 77.1445083618164 196.96470642089844 C 73.9848403930664 197.69937133789062 64.77326965332031 199.6956024169922 93.14134979248047 199.16275024414062" stroke-width="3.0" fill="none" stroke="rgb(0, 0, 0)" stroke-opacity="1.0" stroke-linecap="round" stroke-linejoin="round"/>
    <path d="M 151.176513671875 139.94070434570312 C 209.40638732910156 113.2958984375 182.83511352539062 92.55378723144531 152.87313842773438 87.81936645507812" stroke-width="3.0" fill="none" stroke="rgb(0, 0, 0)" stroke-opacity="1.0" stroke-linecap="round" stroke-linejoin="round"/>
    <path d="M 156.86053466796875 68.45047760009766 C 124.03002166748047 80.00274658203125 173.24041748046875 83.36714172363281 146.36167907714844 67.97970581054688" stroke-width="3.0" fill="none" stroke="rgb(0, 0, 0)" stroke-opacity="1.0" stroke-linecap="round" stroke-linejoin="round"/>
    <path d="M 140.9279022216797 76.07105255126953 C 145.5746307373047 44.288475036621094 196.92886352539062 105.84886932373047 177.92835998535156 49.00130844116211" stroke-width="3.0" fill="none" stroke="rgb(0, 0, 0)" stroke-opacity="1.0" stroke-linecap="round" stroke-linejoin="round"/>
    <path d="M 157.17279052734375 94.19044494628906 C 167.8768768310547 100.18944549560547 182.85848999023438 100.81587219238281 185.78329467773438 114.12225341796875" stroke-width="3.0" fill="none" stroke="rgb(0, 0, 0)" stroke-opacity="1.0" stroke-linecap="round" stroke-linejoin="round"/>
    <path d="M 178.04676818847656 13.7754545211792 C 172.0931854248047 48.49990463256836 171.88967895507812 21.056894302368164 157.65237426757812 40.68735122680664" stroke-width="3.0" fill="none" stroke="rgb(0, 0, 0)" stroke-opacity="1.0" stroke-linecap="round" stroke-linejoin="round"/>
    <path d="M 113.5610580444336 97.28437805175781 C 141.8633270263672 105.64793395996094 129.10609436035156 115.62916564941406 113.84931945800781 96.52313232421875" stroke-width="3.0" fill="none" stroke="rgb(0, 0, 0)" stroke-opacity="1.0" stroke-linecap="round" stroke-linejoin="round"/>
    <path d="M 57.59041976928711 117.18630981445312 C 55.34900665283203 103.24881744384766 49.543636322021484 107.1825942993164 63.4954719543457 126.24661254882812" stroke-width="3.0" fill="none" stroke="rgb(0, 0, 0)" stroke-opacity="1.0" stroke-linecap="round" stroke-linejoin="round"/>
    <path d="M 124.21150207519531 78.08744049072266 C 130.05859375 37.81571578979492 121.79530334472656 51.87196350097656 124.48139953613281 32.726593017578125" stroke-width="3.0" fill="none" stroke="rgb(0, 0, 0)" stroke-opacity="1.0" stroke-linecap="round" stroke-linejoin="round"/>
    <path d="M 147.45709228515625 29.365615844726562 C 145.0989990234375 36.80802917480469 154.1051788330078 12.529645919799805 176.910400390625 7.883810520172119" stroke-width="3.0" fill="none" stroke="rgb(0, 0, 0)" stroke-opacity="1.0" stroke-linecap="round" stroke-linejoin="round"/>
  </g>
</svg>
