<?xml version="1.0" ?>
<svg xmlns="http://www.w3.org/2000/svg" version="1.1" width="224" height="224">
  <defs/>
  <g>
    <path d="M 56.070682525634766 115.73497772216797 C 60.46426010131836 116.62178802490234 51.39820861816406 110.72339630126953 44.01675796508789 95.04617309570312" stroke-width="3.0" fill="none" stroke="rgb(0, 0, 0)" stroke-opacity="1.0" stroke-linecap="round" stroke-linejoin="round"/>
    <path d="M 178.5207977294922 129.8575439453125 C 178.8091278076172 109.844482421875 179.57077026367188 112.8421401977539 184.34828186035156 123.46288299560547" stroke-width="3.0" fill="none" stroke="rgb(0, 0, 0)" stroke-opacity="1.0" stroke-linecap="round" stroke-linejoin="round"/>
    <path d="M 54.441471099853516 110.72686004638672 C 54.60411071777344 118.5255355834961 54.54225158691406 109.22183990478516 56.11684036254883 108.08453369140625" stroke-width="3.0" fill="none" stroke="rgb(0, 0, 0)" stroke-opacity="1.0" stroke-linecap="round" stroke-linejoin="round"/>
    <path d="M 185.4861297607422 100.40190887451172 C 157.33364868164062 96.52513122558594 172.25599670410156 86.3969955444336 193.03109741210938 113.79768371582031" stroke-width="3.0" fill="none" stroke="rgb(0, 0, 0)" stroke-opacity="1.0" stroke-linecap="round" stroke-linejoin="round"/>
    <path d="M 181.826171875 75.91651916503906 C 185.86521911621094 81.11458587646484 179.988037109375 73.45927429199219 183.38670349121094 77.19800567626953" stroke-width="3.0" fill="none" stroke="rgb(0, 0, 0)" stroke-opacity="1.0" stroke-linecap="round" stroke-linejoin="round"/>
    <path d="M 131.0049591064453 100.82577514648438 C 123.04472351074219 112.20519256591797 118.07926940917969 106.80361938476562 136.04403686523438 107.65444946289062" stroke-width="3.0" fill="none" stroke="rgb(0, 0, 0)" stroke-opacity="1.0" stroke-linecap="round" stroke-linejoin="round"/>
    <path d="M 167.74356079101562 85.6375961303711 C 191.5115509033203 79.77037048339844 184.77194213867188 80.5132064819336 160.27374267578125 83.93090057373047" stroke-width="3.0" fill="none" stroke="rgb(0, 0, 0)" stroke-opacity="1.0" stroke-linecap="round" stroke-linejoin="round"/>
    <path d="M 55.04916763305664 183.56871032714844 C 35.87763214111328 157.7603302001953 50.64458084106445 162.7430419921875 44.418983459472656 163.28782653808594" stroke-width="3.0" fill="none" stroke="rgb(0, 0, 0)" stroke-opacity="1.0" stroke-linecap="round" stroke-linejoin="round"/>
    <path d="M 71.00692749023438 191.3011932373047 C 89.20492553710938 196.05551147460938 103.43641662597656 199.89820861816406 89.39875030517578 185.03395080566406" stroke-width="3.0" fill="none" stroke="rgb(0, 0, 0)" stroke-opacity="1.0" stroke-linecap="round" stroke-linejoin="round"/>
    <path d="M 91.94098663330078 37.310909271240234 C 90.61461639404297 52.82933044433594 91.95574188232422 31.890914916992188 92.16594696044922 53.49128341674805" stroke-width="3.0" fill="none" stroke="rgb(0, 0, 0)" stroke-opacity="1.0" stroke-linecap="round" stroke-linejoin="round"/>
    <path d="M 60.76320266723633 127.21135711669922 C 70.2232894897461 147.07875061035156 77.28545379638672 148.45652770996094 80.10952758789062 151.60948181152344" stroke-width="3.0" fill="none" stroke="rgb(0, 0, 0)" stroke-opacity="1.0" stroke-linecap="round" stroke-linejoin="round"/>
    <path d="M 164.3269500732422 82.0157241821289 C 188.07835388183594 74.29205322265625 177.5820770263672 89.3860092163086 155.50872802734375 86.03209686279297" stroke-width="3.0" fill="none" stroke="rgb(0, 0, 0)" stroke-opacity="1.0" stroke-linecap="round" stroke-linejoin="round"/>
    <path d="M 154.59255981445312 103.3999252319336 C 174.8632354736328 100.10009002685547 162.19869995117188 105.649169921875 186.65267944335938 105.9774398803711" stroke-width="3.0" fill="none" stroke="rgb(0, 0, 0)" stroke-opacity="1.0" stroke-linecap="round" stroke-linejoin="round"/>
    <path d="M 81.70002746582031 166.08995056152344 C 85.84085083007812 184.13563537597656 94.51400756835938 186.18051147460938 97.43929290771484 190.00169372558594" stroke-width="3.0" fill="none" stroke="rgb(0, 0, 0)" stroke-opacity="1.0" stroke-linecap="round" stroke-linejoin="round"/>
    <path d="M 172.29774475097656 10.786208152770996 C 180.34634399414062 -1.5367732048034668 184.54779052734375 24.781187057495117 178.65921020507812 52.47065353393555" stroke-width="3.0" fill="none" stroke="rgb(0, 0, 0)" stroke-opacity="1.0" stroke-linecap="round" stroke-linejoin="round"/>
    <path d="M 129.66441345214844 30.774080276489258 C 126.3250503540039 48.184722900390625 123.12663269042969 30.275362014770508 126.41981506347656 68.80719757080078" stroke-width="3.0" fill="none" stroke="rgb(0, 0, 0)" stroke-opacity="1.0" stroke-linecap="round" stroke-linejoin="round"/>
    <path d="M 99.18753814697266 45.40449142456055 C 67.32421875 -4.36581563949585 85.38755798339844 5.567743301391602 106.85657501220703 40.18388748168945" stroke-width="3.0" fill="none" stroke="rgb(0, 0, 0)" stroke-opacity="1.0" stroke-linecap="round" stroke-linejoin="round"/>
    <path d="M 49.962120056152344 170.2659912109375 C 37.03787612915039 156.71446228027344 49.49962615966797 162.7613983154297 45.05113220214844 163.12953186035156" stroke-width="3.0" fill="none" stroke="rgb(0, 0, 0)" stroke-opacity="1.0" stroke-linecap="round" stroke-linejoin="round"/>
    <path d="M 31.366548538208008 115.97515869140625 C 29.158323287963867 132.33056640625 34.756980895996094 139.9604949951172 41.05356979370117 152.967041015625" stroke-width="3.0" fill="none" stroke="rgb(0, 0, 0)" stroke-opacity="1.0" stroke-linecap="round" stroke-linejoin="round"/>
    <path d="M 77.70536804199219 158.4437713623047 C 83.13578033447266 168.17478942871094 83.40740966796875 168.81625366210938 80.37734985351562 162.43896484375" stroke-width="3.0" fill="none" stroke="rgb(0, 0, 0)" stroke-opacity="1.0" stroke-linecap="round" stroke-linejoin="round"/>
    <path d="M 74.97246551513672 192.30604553222656 C 47.62054443359375 177.0962371826172 72.87057495117188 192.5734100341797 49.567325592041016 174.96832275390625" stroke-width="3.0" fill="none" stroke="rgb(0, 0, 0)" stroke-opacity="1.0" stroke-linecap="round" stroke-linejoin="round"/>
    <path d="M 42.21665954589844 157.42677307128906 C 45.51978302001953 165.5351104736328 39.97484588623047 155.7261199951172 36.759857177734375 146.56817626953125" stroke-width="3.0" fill="none" stroke="rgb(0, 0, 0)" stroke-opacity="1.0" stroke-linecap="round" stroke-linejoin="round"/>
    <path d="M 64.29305267333984 62.16242599487305 C 47.19314193725586 73.95612335205078 49.03257751464844 74.32662963867188 33.5778923034668 107.31187438964844" stroke-width="3.0" fill="none" stroke="rgb(0, 0, 0)" stroke-opacity="1.0" stroke-linecap="round" stroke-linejoin="round"/>
    <path d="M 143.4182586669922 160.84056091308594 C 126.25180053710938 161.8247528076172 126.59681701660156 151.85008239746094 138.65341186523438 169.93356323242188" stroke-width="3.0" fill="none" stroke="rgb(0, 0, 0)" stroke-opacity="1.0" stroke-linecap="round" stroke-linejoin="round"/>
    <path d="M 137.35467529296875 29.762678146362305 C 147.16903686523438 54.484107971191406 130.62510681152344 50.358985900878906 140.3009490966797 81.54722595214844" stroke-width="3.0" fill="none" stroke="rgb(0, 0, 0)" stroke-opacity="1.0" stroke-linecap="round" stroke-linejoin="round"/>
    <path d="M 145.1824951171875 99.24132537841797 C 129.5373077392578 110.4910888671875 110.79114532470703 104.86558532714844 127.76265716552734 106.10540008544922" stroke-width="3.0" fill="none" stroke="rgb(0, 0, 0)" stroke-opacity="1.0" stroke-linecap="round" stroke-linejoin="round"/>
    <path d="M 139.51821899414062 71.60446166992188 C 142.73036193847656 52.954559326171875 150.40513610839844 48.971405029296875 146.1163787841797 51.206024169921875" stroke-width="3.0" fill="none" stroke="rgb(0, 0, 0)" stroke-opacity="1.0" stroke-linecap="round" stroke-linejoin="round"/>
    <path d="M 104.66642761230469 192.83367919921875 C 83.32907104492188 177.56442260742188 95.30770874023438 209.98687744140625 126.17135620117188 184.66981506347656" stroke-width="3.0" fill="none" stroke="rgb(0, 0, 0)" stroke-opacity="1.0" stroke-linecap="round" stroke-linejoin="round"/>
    <path d="M 184.78878784179688 96.63442993164062 C 164.52569580078125 79.65582275390625 167.49220275878906 89.42477416992188 173.5457763671875 80.63582611083984" stroke-width="3.0" fill="none" stroke="rgb(0, 0, 0)" stroke-opacity="1.0" stroke-linecap="round" stroke-linejoin="round"/>
    <path d="M 173.67994689941406 85.9701919555664 C 185.34475708007812 81.64344024658203 191.79815673828125 91.9556884765625 166.60643005371094 84.2962646484375" stroke-width="3.0" fill="none" stroke="rgb(0, 0, 0)" stroke-opacity="1.0" stroke-linecap="round" stroke-linejoin="round"/>
    <path d="M 111.32730865478516 74.87583923339844 C 84.61638641357422 72.1123046875 139.55331420898438 67.67300415039062 107.53565979003906 79.08699798583984" stroke-width="3.0" fill="none" stroke="rgb(0, 0, 0)" stroke-opacity="1.0" stroke-linecap="round" stroke-linejoin="round"/>
    <path d="M 133.56153869628906 160.9757537841797 C 139.55349731445312 158.64102172851562 130.00357055664062 158.6732177734375 114.21794128417969 146.69406127929688" stroke-width="3.0" fill="none" stroke="rgb(0, 0, 0)" stroke-opacity="1.0" stroke-linecap="round" stroke-linejoin="round"/>
    <path d="M 122.1251220703125 88.48365783691406 C 141.17800903320312 98.79890441894531 132.95654296875 75.12745666503906 129.6498565673828 95.8281021118164" stroke-width="3.0" fill="none" stroke="rgb(0, 0, 0)" stroke-opacity="1.0" stroke-linecap="round" stroke-linejoin="round"/>
    <path d="M 189.19833374023438 94.33402252197266 C 173.6559600830078 86.61422729492188 182.97000122070312 101.33147430419922 142.78536987304688 86.9766845703125" stroke-width="3.0" fill="none" stroke="rgb(0, 0, 0)" stroke-opacity="1.0" stroke-linecap="round" stroke-linejoin="round"/>
    <path d="M 82.55025482177734 8.847333908081055 C 111.31172943115234 16.409608840942383 116.3238754272461 36.54119110107422 123.42450714111328 30.975101470947266" stroke-width="3.0" fill="none" stroke="rgb(0, 0, 0)" stroke-opacity="1.0" stroke-linecap="round" stroke-linejoin="round"/>
    <path d="M 54.283023834228516 109.5838623046875 C 52.379940032958984 108.7159652709961 60.387542724609375 121.50272369384766 53.95877456665039 114.69534301757812" stroke-width="3.0" fill="none" stroke="rgb(0, 0, 0)" stroke-opacity="1.0" stroke-linecap="round" stroke-linejoin="round"/>
    <path d="M 120.64444732666016 101.27513885498047 C 102.31462097167969 95.77804565429688 135.80259704589844 99.52493286132812 107.22162628173828 92.94891357421875" stroke-width="3.0" fill="none" stroke="rgb(0, 0, 0)" stroke-opacity="1.0" stroke-linecap="round" stroke-linejoin="round"/>
    <path d="M 30.870784759521484 119.03064727783203 C 35.82906723022461 93.96554565429688 35.714927673339844 105.30823516845703 34.22269821166992 107.27742004394531" stroke-width="3.0" fill="none" stroke="rgb(0, 0, 0)" stroke-opacity="1.0" stroke-linecap="round" stroke-linejoin="round"/>
    <path d="M 85.43949890136719 194.55116271972656 C 75.5630111694336 191.17459106445312 75.69801330566406 197.15390014648438 87.46086120605469 195.1670379638672" stroke-width="3.0" fill="none" stroke="rgb(0, 0, 0)" stroke-opacity="1.0" stroke-linecap="round" stroke-linejoin="round"/>
    <path d="M 169.70083618164062 136.4037628173828 C 197.36526489257812 104.21937561035156 174.2274627685547 95.90908813476562 148.1568145751953 95.38334655761719" stroke-width="3.0" fill="none" stroke="rgb(0, 0, 0)" stroke-opacity="1.0" stroke-linecap="round" stroke-linejoin="round"/>
    <path d="M 152.03634643554688 76.95745086669922 C 139.539306640625 63.35844421386719 151.88613891601562 90.13912200927734 154.01295471191406 72.40406799316406" stroke-width="3.0" fill="none" stroke="rgb(0, 0, 0)" stroke-opacity="1.0" stroke-linecap="round" stroke-linejoin="round"/>
    <path d="M 145.4872283935547 70.83246612548828 C 159.87327575683594 64.822998046875 164.34445190429688 77.400634765625 181.9089813232422 70.72988891601562" stroke-width="3.0" fill="none" stroke="rgb(0, 0, 0)" stroke-opacity="1.0" stroke-linecap="round" stroke-linejoin="round"/>
    <path d="M 149.0990753173828 101.40292358398438 C 155.56112670898438 102.34107208251953 168.68453979492188 103.52381896972656 181.8223114013672 117.59370422363281" stroke-width="3.0" fill="none" stroke="rgb(0, 0, 0)" stroke-opacity="1.0" stroke-linecap="round" stroke-linejoin="round"/>
    <path d="M 176.84898376464844 19.543489456176758 C 173.41824340820312 40.92790222167969 172.58837890625 27.26626205444336 164.34625244140625 38.71279525756836" stroke-width="3.0" fill="none" stroke="rgb(0, 0, 0)" stroke-opacity="1.0" stroke-linecap="round" stroke-linejoin="round"/>
    <path d="M 122.86685180664062 108.50870513916016 C 150.26243591308594 117.43215942382812 136.1053924560547 94.07401275634766 117.8436508178711 106.4218978881836" stroke-width="3.0" fill="none" stroke="rgb(0, 0, 0)" stroke-opacity="1.0" stroke-linecap="round" stroke-linejoin="round"/>
    <path d="M 50.01059341430664 105.67243194580078 C 55.50286865234375 108.50009155273438 45.68537902832031 107.86821746826172 62.243202209472656 125.9420394897461" stroke-width="3.0" fill="none" stroke="rgb(0, 0, 0)" stroke-opacity="1.0" stroke-linecap="round" stroke-linejoin="round"/>
    <path d="M 119.76399230957031 80.4961166381836 C 125.8327407836914 65.64828491210938 111.82505798339844 50.590389251708984 114.22442626953125 39.31858825683594" stroke-width="3.0" fill="none" stroke="rgb(0, 0, 0)" stroke-opacity="1.0" stroke-linecap="round" stroke-linejoin="round"/>
    <path d="M 146.7939453125 32.135406494140625 C 154.0572509765625 26.333694458007812 150.5770263671875 20.631982803344727 175.6206512451172 8.413544654846191" stroke-width="3.0" fill="none" stroke="rgb(0, 0, 0)" stroke-opacity="1.0" stroke-linecap="round" stroke-linejoin="round"/>
  </g>
</svg>
