<?xml version="1.0" ?>
<svg xmlns="http://www.w3.org/2000/svg" version="1.1" width="224" height="224">
  <defs/>
  <g>
    <path d="M 61.502376556396484 102.49861907958984 C 66.28561401367188 103.46825408935547 58.223697662353516 102.23970794677734 49.0079460144043 96.0404281616211" stroke-width="3.0" fill="none" stroke="rgb(0, 0, 0)" stroke-opacity="1.0" stroke-linecap="round" stroke-linejoin="round"/>
    <path d="M 181.75918579101562 125.63826751708984 C 179.0780792236328 115.1049575805664 182.2576904296875 117.9066390991211 184.0053253173828 126.9238052368164" stroke-width="3.0" fill="none" stroke="rgb(0, 0, 0)" stroke-opacity="1.0" stroke-linecap="round" stroke-linejoin="round"/>
    <path d="M 53.852210998535156 112.79067993164062 C 54.58076477050781 116.29092407226562 53.2981071472168 98.71573638916016 54.8865966796875 111.82514953613281" stroke-width="3.0" fill="none" stroke="rgb(0, 0, 0)" stroke-opacity="1.0" stroke-linecap="round" stroke-linejoin="round"/>
    <path d="M 178.5024871826172 97.86017608642578 C 158.90377807617188 109.30158996582031 166.54771423339844 96.82334899902344 185.23660278320312 115.550537109375" stroke-width="3.0" fill="none" stroke="rgb(0, 0, 0)" stroke-opacity="1.0" stroke-linecap="round" stroke-linejoin="round"/>
    <path d="M 182.38851928710938 76.87934112548828 C 184.3052520751953 84.70037078857422 178.44583129882812 74.41557312011719 184.4052276611328 83.12120819091797" stroke-width="3.0" fill="none" stroke="rgb(0, 0, 0)" stroke-opacity="1.0" stroke-linecap="round" stroke-linejoin="round"/>
    <path d="M 129.13485717773438 100.24883270263672 C 120.4888916015625 111.14141845703125 120.82351684570312 104.20435333251953 133.03482055664062 104.4997329711914" stroke-width="3.0" fill="none" stroke="rgb(0, 0, 0)" stroke-opacity="1.0" stroke-linecap="round" stroke-linejoin="round"/>
    <path d="M 169.59315490722656 80.67266845703125 C 187.64366149902344 87.1087646484375 178.5323486328125 84.04682922363281 159.29957580566406 86.67538452148438" stroke-width="3.0" fill="none" stroke="rgb(0, 0, 0)" stroke-opacity="1.0" stroke-linecap="round" stroke-linejoin="round"/>
    <path d="M 57.029205322265625 178.5989990234375 C 53.97349548339844 162.46986389160156 48.34551239013672 179.51988220214844 53.78302001953125 170.06163024902344" stroke-width="3.0" fill="none" stroke="rgb(0, 0, 0)" stroke-opacity="1.0" stroke-linecap="round" stroke-linejoin="round"/>
    <path d="M 76.9858627319336 183.57464599609375 C 79.66349792480469 190.0243377685547 88.41344451904297 192.04037475585938 84.53203582763672 184.11514282226562" stroke-width="3.0" fill="none" stroke="rgb(0, 0, 0)" stroke-opacity="1.0" stroke-linecap="round" stroke-linejoin="round"/>
    <path d="M 86.20491027832031 51.51904296875 C 81.51471710205078 71.65007019042969 88.46995544433594 78.39876556396484 83.64822387695312 68.11607360839844" stroke-width="3.0" fill="none" stroke="rgb(0, 0, 0)" stroke-opacity="1.0" stroke-linecap="round" stroke-linejoin="round"/>
    <path d="M 66.99539947509766 134.94384765625 C 73.76250457763672 150.8433837890625 78.19737243652344 148.43026733398438 77.7650375366211 151.56256103515625" stroke-width="3.0" fill="none" stroke="rgb(0, 0, 0)" stroke-opacity="1.0" stroke-linecap="round" stroke-linejoin="round"/>
    <path d="M 172.90855407714844 91.81507110595703 C 182.25296020507812 77.61030578613281 173.56497192382812 90.19549560546875 152.1062469482422 88.4014892578125" stroke-width="3.0" fill="none" stroke="rgb(0, 0, 0)" stroke-opacity="1.0" stroke-linecap="round" stroke-linejoin="round"/>
    <path d="M 156.73072814941406 100.64936828613281 C 172.4650421142578 103.68284606933594 161.80503845214844 100.08985137939453 173.45587158203125 101.08854675292969" stroke-width="3.0" fill="none" stroke="rgb(0, 0, 0)" stroke-opacity="1.0" stroke-linecap="round" stroke-linejoin="round"/>
    <path d="M 78.93131256103516 174.54481506347656 C 83.55274963378906 183.70645141601562 95.36035919189453 181.1541748046875 96.47038269042969 187.51649475097656" stroke-width="3.0" fill="none" stroke="rgb(0, 0, 0)" stroke-opacity="1.0" stroke-linecap="round" stroke-linejoin="round"/>
    <path d="M 174.41111755371094 10.622998237609863 C 183.75389099121094 -2.05623722076416 184.25914001464844 24.970300674438477 176.50086975097656 50.48231506347656" stroke-width="3.0" fill="none" stroke="rgb(0, 0, 0)" stroke-opacity="1.0" stroke-linecap="round" stroke-linejoin="round"/>
    <path d="M 126.77840423583984 34.0856819152832 C 123.00104522705078 47.76262664794922 125.40644073486328 43.71883773803711 128.0320587158203 53.31603240966797" stroke-width="3.0" fill="none" stroke="rgb(0, 0, 0)" stroke-opacity="1.0" stroke-linecap="round" stroke-linejoin="round"/>
    <path d="M 88.34043884277344 55.08083724975586 C 74.41281127929688 -14.298182487487793 87.361083984375 1.3972022533416748 95.8028793334961 45.84385299682617" stroke-width="3.0" fill="none" stroke="rgb(0, 0, 0)" stroke-opacity="1.0" stroke-linecap="round" stroke-linejoin="round"/>
    <path d="M 52.1049690246582 171.4617156982422 C 39.05897521972656 153.34304809570312 46.612457275390625 164.28768920898438 47.671546936035156 158.96148681640625" stroke-width="3.0" fill="none" stroke="rgb(0, 0, 0)" stroke-opacity="1.0" stroke-linecap="round" stroke-linejoin="round"/>
    <path d="M 45.941200256347656 138.21832275390625 C 47.91690444946289 135.48829650878906 39.37639236450195 145.06639099121094 38.50090408325195 142.40167236328125" stroke-width="3.0" fill="none" stroke="rgb(0, 0, 0)" stroke-opacity="1.0" stroke-linecap="round" stroke-linejoin="round"/>
    <path d="M 73.19251251220703 168.89450073242188 C 75.97493743896484 164.5904998779297 75.36296844482422 166.61598205566406 74.98899841308594 164.8606719970703" stroke-width="3.0" fill="none" stroke="rgb(0, 0, 0)" stroke-opacity="1.0" stroke-linecap="round" stroke-linejoin="round"/>
    <path d="M 73.61103057861328 188.3414306640625 C 55.189727783203125 173.05596923828125 73.13394165039062 192.04058837890625 62.52845001220703 178.1875457763672" stroke-width="3.0" fill="none" stroke="rgb(0, 0, 0)" stroke-opacity="1.0" stroke-linecap="round" stroke-linejoin="round"/>
    <path d="M 45.0444221496582 161.11856079101562 C 51.083255767822266 161.91941833496094 40.99513626098633 148.34893798828125 42.73295211791992 152.69207763671875" stroke-width="3.0" fill="none" stroke="rgb(0, 0, 0)" stroke-opacity="1.0" stroke-linecap="round" stroke-linejoin="round"/>
    <path d="M 63.71117401123047 59.843711853027344 C 46.90509033203125 79.06243133544922 55.179893493652344 72.34537506103516 41.49727249145508 107.09845733642578" stroke-width="3.0" fill="none" stroke="rgb(0, 0, 0)" stroke-opacity="1.0" stroke-linecap="round" stroke-linejoin="round"/>
    <path d="M 144.8980712890625 156.05970764160156 C 125.92186737060547 157.6011199951172 127.88790130615234 154.75860595703125 144.32431030273438 160.33570861816406" stroke-width="3.0" fill="none" stroke="rgb(0, 0, 0)" stroke-opacity="1.0" stroke-linecap="round" stroke-linejoin="round"/>
    <path d="M 140.2810516357422 36.41490173339844 C 139.9603271484375 55.34772491455078 136.87246704101562 60.932621002197266 140.52279663085938 73.97616577148438" stroke-width="3.0" fill="none" stroke="rgb(0, 0, 0)" stroke-opacity="1.0" stroke-linecap="round" stroke-linejoin="round"/>
    <path d="M 146.2071990966797 104.20736694335938 C 130.35609436035156 109.35338592529297 115.16706848144531 106.7594223022461 126.41626739501953 109.69140625" stroke-width="3.0" fill="none" stroke="rgb(0, 0, 0)" stroke-opacity="1.0" stroke-linecap="round" stroke-linejoin="round"/>
    <path d="M 145.03701782226562 70.04288482666016 C 144.0466766357422 59.629852294921875 157.08082580566406 52.24149703979492 152.05084228515625 54.634056091308594" stroke-width="3.0" fill="none" stroke="rgb(0, 0, 0)" stroke-opacity="1.0" stroke-linecap="round" stroke-linejoin="round"/>
    <path d="M 108.56123352050781 188.40553283691406 C 87.07518005371094 176.48316955566406 81.5074234008789 189.36952209472656 132.0870819091797 180.905517578125" stroke-width="3.0" fill="none" stroke="rgb(0, 0, 0)" stroke-opacity="1.0" stroke-linecap="round" stroke-linejoin="round"/>
    <path d="M 177.32550048828125 85.666748046875 C 175.34329223632812 79.25979614257812 175.34349060058594 94.81795501708984 178.5662841796875 87.59159851074219" stroke-width="3.0" fill="none" stroke="rgb(0, 0, 0)" stroke-opacity="1.0" stroke-linecap="round" stroke-linejoin="round"/>
    <path d="M 172.29396057128906 89.86656951904297 C 183.31808471679688 85.24604034423828 186.8837890625 87.87451934814453 173.31442260742188 90.02140045166016" stroke-width="3.0" fill="none" stroke="rgb(0, 0, 0)" stroke-opacity="1.0" stroke-linecap="round" stroke-linejoin="round"/>
    <path d="M 107.53170776367188 77.64969635009766 C 88.28140258789062 71.59070587158203 136.85179138183594 76.18639373779297 106.96086883544922 80.4637451171875" stroke-width="3.0" fill="none" stroke="rgb(0, 0, 0)" stroke-opacity="1.0" stroke-linecap="round" stroke-linejoin="round"/>
    <path d="M 128.35678100585938 156.18954467773438 C 126.0186996459961 151.6529998779297 128.6546173095703 155.6771697998047 128.2463836669922 156.81117248535156" stroke-width="3.0" fill="none" stroke="rgb(0, 0, 0)" stroke-opacity="1.0" stroke-linecap="round" stroke-linejoin="round"/>
    <path d="M 123.5262680053711 90.5869369506836 C 136.5763702392578 97.1827621459961 133.13662719726562 80.02952575683594 128.2470703125 96.23202514648438" stroke-width="3.0" fill="none" stroke="rgb(0, 0, 0)" stroke-opacity="1.0" stroke-linecap="round" stroke-linejoin="round"/>
    <path d="M 179.77711486816406 96.91478729248047 C 178.18960571289062 90.25131225585938 185.30288696289062 101.73017883300781 150.56178283691406 92.04090118408203" stroke-width="3.0" fill="none" stroke="rgb(0, 0, 0)" stroke-opacity="1.0" stroke-linecap="round" stroke-linejoin="round"/>
    <path d="M 86.87616729736328 8.675804138183594 C 106.7241439819336 19.061397552490234 113.97759246826172 33.82240295410156 118.81912231445312 31.04558563232422" stroke-width="3.0" fill="none" stroke="rgb(0, 0, 0)" stroke-opacity="1.0" stroke-linecap="round" stroke-linejoin="round"/>
    <path d="M 53.90333557128906 110.34251403808594 C 51.87577438354492 110.17877960205078 65.67742919921875 117.40798950195312 52.471290588378906 112.40541076660156" stroke-width="3.0" fill="none" stroke="rgb(0, 0, 0)" stroke-opacity="1.0" stroke-linecap="round" stroke-linejoin="round"/>
    <path d="M 121.4543228149414 102.20329284667969 C 97.56757354736328 100.56227111816406 124.49937438964844 102.96630859375 106.44691467285156 95.40145874023438" stroke-width="3.0" fill="none" stroke="rgb(0, 0, 0)" stroke-opacity="1.0" stroke-linecap="round" stroke-linejoin="round"/>
    <path d="M 37.831756591796875 122.81389617919922 C 42.66876983642578 98.0427017211914 49.6921272277832 105.99920654296875 40.750667572021484 110.95319366455078" stroke-width="3.0" fill="none" stroke="rgb(0, 0, 0)" stroke-opacity="1.0" stroke-linecap="round" stroke-linejoin="round"/>
    <path d="M 84.69697570800781 187.1414337158203 C 76.89543151855469 189.71078491210938 74.09327697753906 193.219482421875 85.40383911132812 181.94287109375" stroke-width="3.0" fill="none" stroke="rgb(0, 0, 0)" stroke-opacity="1.0" stroke-linecap="round" stroke-linejoin="round"/>
    <path d="M 178.84295654296875 133.87655639648438 C 184.3394012451172 113.13352966308594 163.17218017578125 104.98120880126953 146.5901336669922 98.71226501464844" stroke-width="3.0" fill="none" stroke="rgb(0, 0, 0)" stroke-opacity="1.0" stroke-linecap="round" stroke-linejoin="round"/>
    <path d="M 145.38369750976562 78.10822296142578 C 148.9030303955078 73.62891387939453 139.494140625 95.49043273925781 150.81686401367188 77.76465606689453" stroke-width="3.0" fill="none" stroke="rgb(0, 0, 0)" stroke-opacity="1.0" stroke-linecap="round" stroke-linejoin="round"/>
    <path d="M 161.16485595703125 73.86039733886719 C 168.79774475097656 70.86467742919922 175.02975463867188 75.32022857666016 182.7049560546875 71.93096160888672" stroke-width="3.0" fill="none" stroke="rgb(0, 0, 0)" stroke-opacity="1.0" stroke-linecap="round" stroke-linejoin="round"/>
    <path d="M 153.01808166503906 106.33126831054688 C 156.7103271484375 105.16327667236328 162.4043731689453 105.96881866455078 166.79248046875 122.12810516357422" stroke-width="3.0" fill="none" stroke="rgb(0, 0, 0)" stroke-opacity="1.0" stroke-linecap="round" stroke-linejoin="round"/>
    <path d="M 172.14859008789062 20.605079650878906 C 163.98800659179688 43.13031768798828 161.263671875 29.737735748291016 166.54815673828125 43.90279006958008" stroke-width="3.0" fill="none" stroke="rgb(0, 0, 0)" stroke-opacity="1.0" stroke-linecap="round" stroke-linejoin="round"/>
    <path d="M 121.36284637451172 110.14814758300781 C 156.21572875976562 110.80648040771484 124.2585678100586 96.03622436523438 114.97277069091797 105.83601379394531" stroke-width="3.0" fill="none" stroke="rgb(0, 0, 0)" stroke-opacity="1.0" stroke-linecap="round" stroke-linejoin="round"/>
    <path d="M 55.05181121826172 112.42572021484375 C 57.096378326416016 107.64380645751953 46.80280303955078 106.25025939941406 65.30449676513672 125.13777923583984" stroke-width="3.0" fill="none" stroke="rgb(0, 0, 0)" stroke-opacity="1.0" stroke-linecap="round" stroke-linejoin="round"/>
    <path d="M 120.65933227539062 80.1366958618164 C 127.40812683105469 58.0568733215332 116.48746490478516 54.27602767944336 117.03215026855469 48.4593505859375" stroke-width="3.0" fill="none" stroke="rgb(0, 0, 0)" stroke-opacity="1.0" stroke-linecap="round" stroke-linejoin="round"/>
    <path d="M 147.16830444335938 34.364871978759766 C 158.3986053466797 26.490171432495117 153.5821990966797 20.222564697265625 177.0489501953125 8.227875709533691" stroke-width="3.0" fill="none" stroke="rgb(0, 0, 0)" stroke-opacity="1.0" stroke-linecap="round" stroke-linejoin="round"/>
  </g>
</svg>
