<?xml version="1.0" ?>
<svg xmlns="http://www.w3.org/2000/svg" version="1.1" width="224" height="224">
  <defs/>
  <g>
    <path d="M 58.160911560058594 114.84525299072266 C 59.84325408935547 115.8495101928711 51.91221618652344 110.88455200195312 47.493255615234375 99.10440826416016" stroke-width="3.0" fill="none" stroke="rgb(0, 0, 0)" stroke-opacity="1.0" stroke-linecap="round" stroke-linejoin="round"/>
    <path d="M 180.90037536621094 128.80484008789062 C 179.06439208984375 112.09934997558594 179.97665405273438 114.81954956054688 184.20590209960938 121.86083984375" stroke-width="3.0" fill="none" stroke="rgb(0, 0, 0)" stroke-opacity="1.0" stroke-linecap="round" stroke-linejoin="round"/>
    <path d="M 56.28948974609375 110.36676788330078 C 57.59075927734375 116.99401092529297 55.330467224121094 105.86629486083984 56.45545959472656 110.12600708007812" stroke-width="3.0" fill="none" stroke="rgb(0, 0, 0)" stroke-opacity="1.0" stroke-linecap="round" stroke-linejoin="round"/>
    <path d="M 181.0716552734375 98.67273712158203 C 155.95448303222656 100.51698303222656 171.88558959960938 87.9900131225586 193.13685607910156 112.53919219970703" stroke-width="3.0" fill="none" stroke="rgb(0, 0, 0)" stroke-opacity="1.0" stroke-linecap="round" stroke-linejoin="round"/>
    <path d="M 183.34645080566406 77.64286804199219 C 183.8584442138672 89.00114440917969 174.3118438720703 78.23748779296875 181.2088165283203 79.66590118408203" stroke-width="3.0" fill="none" stroke="rgb(0, 0, 0)" stroke-opacity="1.0" stroke-linecap="round" stroke-linejoin="round"/>
    <path d="M 131.24256896972656 99.6473159790039 C 120.60116577148438 111.02616119384766 119.395263671875 107.49790954589844 136.31631469726562 107.12883758544922" stroke-width="3.0" fill="none" stroke="rgb(0, 0, 0)" stroke-opacity="1.0" stroke-linecap="round" stroke-linejoin="round"/>
    <path d="M 168.02369689941406 84.14277648925781 C 190.8893585205078 81.21167755126953 184.7557830810547 83.76570129394531 161.87989807128906 84.1981201171875" stroke-width="3.0" fill="none" stroke="rgb(0, 0, 0)" stroke-opacity="1.0" stroke-linecap="round" stroke-linejoin="round"/>
    <path d="M 54.23031997680664 181.2261962890625 C 37.05710220336914 159.27618408203125 51.51680374145508 157.55506896972656 44.59654998779297 161.07350158691406" stroke-width="3.0" fill="none" stroke="rgb(0, 0, 0)" stroke-opacity="1.0" stroke-linecap="round" stroke-linejoin="round"/>
    <path d="M 75.3991470336914 189.08291625976562 C 88.59578704833984 189.41558837890625 105.00779724121094 194.3492889404297 88.04310607910156 183.6855010986328" stroke-width="3.0" fill="none" stroke="rgb(0, 0, 0)" stroke-opacity="1.0" stroke-linecap="round" stroke-linejoin="round"/>
    <path d="M 89.3371810913086 41.70296859741211 C 88.53134155273438 62.426170349121094 92.5252685546875 52.77345657348633 91.43338012695312 48.244869232177734" stroke-width="3.0" fill="none" stroke="rgb(0, 0, 0)" stroke-opacity="1.0" stroke-linecap="round" stroke-linejoin="round"/>
    <path d="M 60.70310592651367 128.80540466308594 C 71.5704345703125 148.58087158203125 78.62109375 148.80630493164062 79.51817321777344 151.8578643798828" stroke-width="3.0" fill="none" stroke="rgb(0, 0, 0)" stroke-opacity="1.0" stroke-linecap="round" stroke-linejoin="round"/>
    <path d="M 163.56666564941406 83.1340560913086 C 187.9272003173828 74.05558776855469 176.2791748046875 88.52714538574219 157.2813262939453 89.4357681274414" stroke-width="3.0" fill="none" stroke="rgb(0, 0, 0)" stroke-opacity="1.0" stroke-linecap="round" stroke-linejoin="round"/>
    <path d="M 158.02232360839844 102.20572662353516 C 176.57077026367188 102.29254150390625 162.70941162109375 106.52568054199219 183.70286560058594 108.43463897705078" stroke-width="3.0" fill="none" stroke="rgb(0, 0, 0)" stroke-opacity="1.0" stroke-linecap="round" stroke-linejoin="round"/>
    <path d="M 78.36820220947266 168.27450561523438 C 87.15633392333984 183.02923583984375 93.97325897216797 185.15000915527344 95.84164428710938 190.38314819335938" stroke-width="3.0" fill="none" stroke="rgb(0, 0, 0)" stroke-opacity="1.0" stroke-linecap="round" stroke-linejoin="round"/>
    <path d="M 175.1072998046875 11.15500545501709 C 182.6572723388672 -3.3511240482330322 186.56861877441406 24.233917236328125 178.7900390625 51.09426498413086" stroke-width="3.0" fill="none" stroke="rgb(0, 0, 0)" stroke-opacity="1.0" stroke-linecap="round" stroke-linejoin="round"/>
    <path d="M 129.8780059814453 31.49521827697754 C 128.32435607910156 49.97605514526367 124.58514404296875 36.95730209350586 128.51132202148438 64.57087707519531" stroke-width="3.0" fill="none" stroke="rgb(0, 0, 0)" stroke-opacity="1.0" stroke-linecap="round" stroke-linejoin="round"/>
    <path d="M 95.26246643066406 46.70098876953125 C 68.38835144042969 -6.782669544219971 84.36530303955078 5.258269786834717 104.21453094482422 43.75342559814453" stroke-width="3.0" fill="none" stroke="rgb(0, 0, 0)" stroke-opacity="1.0" stroke-linecap="round" stroke-linejoin="round"/>
    <path d="M 49.54984664916992 170.5099334716797 C 35.170494079589844 156.2316131591797 48.86033630371094 161.3117218017578 45.69736099243164 160.45404052734375" stroke-width="3.0" fill="none" stroke="rgb(0, 0, 0)" stroke-opacity="1.0" stroke-linecap="round" stroke-linejoin="round"/>
    <path d="M 32.7508659362793 119.64257049560547 C 29.12761878967285 132.41664123535156 34.69189453125 139.22747802734375 39.99183654785156 152.58157348632812" stroke-width="3.0" fill="none" stroke="rgb(0, 0, 0)" stroke-opacity="1.0" stroke-linecap="round" stroke-linejoin="round"/>
    <path d="M 74.63203430175781 157.0920867919922 C 78.70757293701172 167.7109832763672 81.1103744506836 169.07139587402344 78.07686614990234 166.4625244140625" stroke-width="3.0" fill="none" stroke="rgb(0, 0, 0)" stroke-opacity="1.0" stroke-linecap="round" stroke-linejoin="round"/>
    <path d="M 73.88185119628906 188.8805694580078 C 48.75232696533203 178.26153564453125 75.53520202636719 192.17599487304688 50.49616622924805 174.55923461914062" stroke-width="3.0" fill="none" stroke="rgb(0, 0, 0)" stroke-opacity="1.0" stroke-linecap="round" stroke-linejoin="round"/>
    <path d="M 42.093082427978516 158.02012634277344 C 43.61238098144531 163.92495727539062 38.99189758300781 155.0800323486328 36.4390869140625 145.86007690429688" stroke-width="3.0" fill="none" stroke="rgb(0, 0, 0)" stroke-opacity="1.0" stroke-linecap="round" stroke-linejoin="round"/>
    <path d="M 63.06572341918945 62.1500129699707 C 47.668460845947266 75.32374572753906 50.78260803222656 74.9354019165039 34.297420501708984 108.8271255493164" stroke-width="3.0" fill="none" stroke="rgb(0, 0, 0)" stroke-opacity="1.0" stroke-linecap="round" stroke-linejoin="round"/>
    <path d="M 149.87681579589844 157.34658813476562 C 126.77607727050781 161.25094604492188 125.3642349243164 154.74679565429688 137.427978515625 167.6706085205078" stroke-width="3.0" fill="none" stroke="rgb(0, 0, 0)" stroke-opacity="1.0" stroke-linecap="round" stroke-linejoin="round"/>
    <path d="M 140.44435119628906 31.690645217895508 C 151.22715759277344 53.29636001586914 136.84048461914062 49.91743850708008 140.80831909179688 75.68246459960938" stroke-width="3.0" fill="none" stroke="rgb(0, 0, 0)" stroke-opacity="1.0" stroke-linecap="round" stroke-linejoin="round"/>
    <path d="M 147.07264709472656 99.8971176147461 C 130.0222930908203 109.42318725585938 112.73191833496094 102.56591796875 128.06753540039062 105.3553466796875" stroke-width="3.0" fill="none" stroke="rgb(0, 0, 0)" stroke-opacity="1.0" stroke-linecap="round" stroke-linejoin="round"/>
    <path d="M 142.7277069091797 68.23358154296875 C 143.66856384277344 55.25697326660156 153.31976318359375 49.88999938964844 149.59573364257812 53.45630645751953" stroke-width="3.0" fill="none" stroke="rgb(0, 0, 0)" stroke-opacity="1.0" stroke-linecap="round" stroke-linejoin="round"/>
    <path d="M 104.2140121459961 194.1162872314453 C 81.21903228759766 174.32142639160156 101.92655944824219 207.70457458496094 126.55937957763672 187.63037109375" stroke-width="3.0" fill="none" stroke="rgb(0, 0, 0)" stroke-opacity="1.0" stroke-linecap="round" stroke-linejoin="round"/>
    <path d="M 183.2395477294922 95.26116180419922 C 166.926513671875 77.18000793457031 167.45892333984375 89.93048095703125 173.2310333251953 82.7559814453125" stroke-width="3.0" fill="none" stroke="rgb(0, 0, 0)" stroke-opacity="1.0" stroke-linecap="round" stroke-linejoin="round"/>
    <path d="M 170.78326416015625 88.79314422607422 C 187.378662109375 83.83391571044922 193.63790893554688 96.44473266601562 164.62899780273438 88.55809783935547" stroke-width="3.0" fill="none" stroke="rgb(0, 0, 0)" stroke-opacity="1.0" stroke-linecap="round" stroke-linejoin="round"/>
    <path d="M 118.83609771728516 75.54573822021484 C 85.94145965576172 70.9508056640625 136.14527893066406 66.15546417236328 109.15740203857422 73.98072052001953" stroke-width="3.0" fill="none" stroke="rgb(0, 0, 0)" stroke-opacity="1.0" stroke-linecap="round" stroke-linejoin="round"/>
    <path d="M 133.49440002441406 158.619384765625 C 136.60171508789062 159.25576782226562 127.81475830078125 159.64125061035156 118.37437438964844 156.31695556640625" stroke-width="3.0" fill="none" stroke="rgb(0, 0, 0)" stroke-opacity="1.0" stroke-linecap="round" stroke-linejoin="round"/>
    <path d="M 123.39170837402344 91.60840606689453 C 139.99363708496094 100.11803436279297 134.35580444335938 78.80179595947266 129.3319091796875 96.97471618652344" stroke-width="3.0" fill="none" stroke="rgb(0, 0, 0)" stroke-opacity="1.0" stroke-linecap="round" stroke-linejoin="round"/>
    <path d="M 185.19927978515625 94.07966613769531 C 172.0966033935547 92.44416809082031 184.83432006835938 99.9166030883789 145.1476593017578 89.78105926513672" stroke-width="3.0" fill="none" stroke="rgb(0, 0, 0)" stroke-opacity="1.0" stroke-linecap="round" stroke-linejoin="round"/>
    <path d="M 83.79582214355469 10.235091209411621 C 106.67337799072266 18.922225952148438 112.40467071533203 34.67068099975586 122.67579650878906 31.17463493347168" stroke-width="3.0" fill="none" stroke="rgb(0, 0, 0)" stroke-opacity="1.0" stroke-linecap="round" stroke-linejoin="round"/>
    <path d="M 53.909854888916016 109.85031127929688 C 52.40341567993164 108.73340606689453 63.129241943359375 119.88154602050781 54.8260383605957 113.0543441772461" stroke-width="3.0" fill="none" stroke="rgb(0, 0, 0)" stroke-opacity="1.0" stroke-linecap="round" stroke-linejoin="round"/>
    <path d="M 119.49217224121094 102.31385803222656 C 93.60076141357422 97.80223083496094 132.42539978027344 97.59497833251953 105.54325866699219 97.43699645996094" stroke-width="3.0" fill="none" stroke="rgb(0, 0, 0)" stroke-opacity="1.0" stroke-linecap="round" stroke-linejoin="round"/>
    <path d="M 32.526580810546875 117.23458099365234 C 38.2302360534668 94.13807678222656 38.69607925415039 107.34130096435547 35.22233200073242 110.90894317626953" stroke-width="3.0" fill="none" stroke="rgb(0, 0, 0)" stroke-opacity="1.0" stroke-linecap="round" stroke-linejoin="round"/>
    <path d="M 85.0588607788086 189.27293395996094 C 75.9752197265625 187.4656524658203 76.10834503173828 186.55035400390625 85.51630401611328 187.98777770996094" stroke-width="3.0" fill="none" stroke="rgb(0, 0, 0)" stroke-opacity="1.0" stroke-linecap="round" stroke-linejoin="round"/>
    <path d="M 173.09519958496094 134.95982360839844 C 193.0377655029297 103.00286865234375 171.7940216064453 97.01795959472656 150.17808532714844 95.64407348632812" stroke-width="3.0" fill="none" stroke="rgb(0, 0, 0)" stroke-opacity="1.0" stroke-linecap="round" stroke-linejoin="round"/>
    <path d="M 153.57521057128906 76.73587036132812 C 143.42376708984375 62.75888442993164 142.86375427246094 93.22904205322266 158.6184539794922 75.2779312133789" stroke-width="3.0" fill="none" stroke="rgb(0, 0, 0)" stroke-opacity="1.0" stroke-linecap="round" stroke-linejoin="round"/>
    <path d="M 147.73883056640625 71.02531433105469 C 162.82530212402344 71.74410247802734 167.6267852783203 77.68232727050781 182.11471557617188 69.9917984008789" stroke-width="3.0" fill="none" stroke="rgb(0, 0, 0)" stroke-opacity="1.0" stroke-linecap="round" stroke-linejoin="round"/>
    <path d="M 149.2246856689453 99.45016479492188 C 156.3621368408203 101.5025634765625 166.3870391845703 104.68321228027344 180.7838897705078 117.82030487060547" stroke-width="3.0" fill="none" stroke="rgb(0, 0, 0)" stroke-opacity="1.0" stroke-linecap="round" stroke-linejoin="round"/>
    <path d="M 171.00123596191406 19.071680068969727 C 165.9398651123047 40.392154693603516 165.43080139160156 26.409236907958984 163.71597290039062 39.95558547973633" stroke-width="3.0" fill="none" stroke="rgb(0, 0, 0)" stroke-opacity="1.0" stroke-linecap="round" stroke-linejoin="round"/>
    <path d="M 121.90719604492188 107.4486312866211 C 150.9297332763672 117.19955444335938 131.21522521972656 92.54254150390625 116.00370025634766 107.40174865722656" stroke-width="3.0" fill="none" stroke="rgb(0, 0, 0)" stroke-opacity="1.0" stroke-linecap="round" stroke-linejoin="round"/>
    <path d="M 52.709503173828125 107.25299072265625 C 54.28287124633789 109.75694274902344 49.81157302856445 104.38493347167969 61.689910888671875 128.5091094970703" stroke-width="3.0" fill="none" stroke="rgb(0, 0, 0)" stroke-opacity="1.0" stroke-linecap="round" stroke-linejoin="round"/>
    <path d="M 121.22144317626953 85.02507019042969 C 131.22903442382812 63.592994689941406 113.00936126708984 52.8210334777832 115.3487319946289 40.015655517578125" stroke-width="3.0" fill="none" stroke="rgb(0, 0, 0)" stroke-opacity="1.0" stroke-linecap="round" stroke-linejoin="round"/>
    <path d="M 146.3468475341797 33.726802825927734 C 155.31195068359375 25.93379020690918 151.810546875 19.019432067871094 176.51882934570312 8.817235946655273" stroke-width="3.0" fill="none" stroke="rgb(0, 0, 0)" stroke-opacity="1.0" stroke-linecap="round" stroke-linejoin="round"/>
  </g>
</svg>
