<?xml version="1.0" ?>
<svg xmlns="http://www.w3.org/2000/svg" version="1.1" width="224" height="224">
  <defs/>
  <g>
    <path d="M 64.79954528808594 79.06758117675781 C 65.1786880493164 76.7754898071289 67.60576629638672 82.05049133300781 60.61332321166992 70.13959503173828" stroke-width="3.0" fill="none" stroke="rgb(0, 0, 0)" stroke-opacity="1.0" stroke-linecap="round" stroke-linejoin="round"/>
    <path d="M 185.36631774902344 120.92269134521484 C 176.89321899414062 112.85173797607422 202.99032592773438 98.57351684570312 174.77867126464844 126.6909408569336" stroke-width="3.0" fill="none" stroke="rgb(0, 0, 0)" stroke-opacity="1.0" stroke-linecap="round" stroke-linejoin="round"/>
    <path d="M 64.68609619140625 127.10062408447266 C 63.20619201660156 107.244140625 54.290828704833984 127.35456085205078 69.02371215820312 126.91471862792969" stroke-width="3.0" fill="none" stroke="rgb(0, 0, 0)" stroke-opacity="1.0" stroke-linecap="round" stroke-linejoin="round"/>
    <path d="M 184.172607421875 97.9674072265625 C 145.07069396972656 86.26310729980469 173.52976989746094 75.0824203491211 193.60919189453125 111.1082992553711" stroke-width="3.0" fill="none" stroke="rgb(0, 0, 0)" stroke-opacity="1.0" stroke-linecap="round" stroke-linejoin="round"/>
    <path d="M 181.7509002685547 66.00171661376953 C 187.2430419921875 118.2137222290039 185.0247802734375 104.70179748535156 181.25558471679688 71.05165100097656" stroke-width="3.0" fill="none" stroke="rgb(0, 0, 0)" stroke-opacity="1.0" stroke-linecap="round" stroke-linejoin="round"/>
    <path d="M 120.79154205322266 104.00225830078125 C 148.27842712402344 116.69245910644531 118.29129791259766 91.5435562133789 138.7714385986328 103.47711944580078" stroke-width="3.0" fill="none" stroke="rgb(0, 0, 0)" stroke-opacity="1.0" stroke-linecap="round" stroke-linejoin="round"/>
    <path d="M 172.0185546875 93.67713928222656 C 191.889892578125 88.99542999267578 177.6856231689453 71.17768859863281 154.96524047851562 85.04193115234375" stroke-width="3.0" fill="none" stroke="rgb(0, 0, 0)" stroke-opacity="1.0" stroke-linecap="round" stroke-linejoin="round"/>
    <path d="M 58.04444885253906 185.29725646972656 C 38.617637634277344 155.13058471679688 46.226009368896484 168.0235137939453 49.636409759521484 173.71438598632812" stroke-width="3.0" fill="none" stroke="rgb(0, 0, 0)" stroke-opacity="1.0" stroke-linecap="round" stroke-linejoin="round"/>
    <path d="M 55.733646392822266 181.25413513183594 C 89.61300659179688 209.61846923828125 114.23418426513672 194.35800170898438 130.34597778320312 179.64353942871094" stroke-width="3.0" fill="none" stroke="rgb(0, 0, 0)" stroke-opacity="1.0" stroke-linecap="round" stroke-linejoin="round"/>
    <path d="M 87.72443389892578 31.65068817138672 C 100.0716552734375 74.68516540527344 85.55838775634766 10.196002960205078 84.46632385253906 57.76777648925781" stroke-width="3.0" fill="none" stroke="rgb(0, 0, 0)" stroke-opacity="1.0" stroke-linecap="round" stroke-linejoin="round"/>
    <path d="M 54.50991439819336 103.95246887207031 C 65.11219024658203 136.4840850830078 98.98074340820312 157.89024353027344 91.50139617919922 149.83409118652344" stroke-width="3.0" fill="none" stroke="rgb(0, 0, 0)" stroke-opacity="1.0" stroke-linecap="round" stroke-linejoin="round"/>
    <path d="M 144.90672302246094 70.80599975585938 C 205.155029296875 67.12976837158203 190.04898071289062 83.211669921875 146.51687622070312 84.86641693115234" stroke-width="3.0" fill="none" stroke="rgb(0, 0, 0)" stroke-opacity="1.0" stroke-linecap="round" stroke-linejoin="round"/>
    <path d="M 150.68971252441406 96.32028198242188 C 192.41444396972656 106.28048706054688 176.15127563476562 109.70808410644531 194.7736053466797 115.6449203491211" stroke-width="3.0" fill="none" stroke="rgb(0, 0, 0)" stroke-opacity="1.0" stroke-linecap="round" stroke-linejoin="round"/>
    <path d="M 130.32598876953125 157.31895446777344 C 146.1079864501953 150.0829620361328 124.85553741455078 159.07139587402344 106.90513610839844 154.763916015625" stroke-width="3.0" fill="none" stroke="rgb(0, 0, 0)" stroke-opacity="1.0" stroke-linecap="round" stroke-linejoin="round"/>
    <path d="M 178.62411499023438 9.707460403442383 C 187.10816955566406 22.969120025634766 173.6349639892578 61.13167953491211 178.1282958984375 50.11396026611328" stroke-width="3.0" fill="none" stroke="rgb(0, 0, 0)" stroke-opacity="1.0" stroke-linecap="round" stroke-linejoin="round"/>
    <path d="M 129.6990509033203 30.03289794921875 C 122.54059600830078 57.53158950805664 132.623779296875 35.54485321044922 124.58002471923828 70.29946899414062" stroke-width="3.0" fill="none" stroke="rgb(0, 0, 0)" stroke-opacity="1.0" stroke-linecap="round" stroke-linejoin="round"/>
    <path d="M 89.81178283691406 52.65869903564453 C 78.64262390136719 -10.9724760055542 84.01456451416016 -2.394012451171875 107.19286346435547 44.21290588378906" stroke-width="3.0" fill="none" stroke="rgb(0, 0, 0)" stroke-opacity="1.0" stroke-linecap="round" stroke-linejoin="round"/>
    <path d="M 46.56403732299805 169.2376251220703 C 38.28961944580078 153.89199829101562 36.1253662109375 143.9955596923828 47.001102447509766 165.814208984375" stroke-width="3.0" fill="none" stroke="rgb(0, 0, 0)" stroke-opacity="1.0" stroke-linecap="round" stroke-linejoin="round"/>
    <path d="M 35.9846076965332 97.67269897460938 C 21.29644203186035 130.9817352294922 38.53875732421875 147.01512145996094 40.68273162841797 156.9403533935547" stroke-width="3.0" fill="none" stroke="rgb(0, 0, 0)" stroke-opacity="1.0" stroke-linecap="round" stroke-linejoin="round"/>
    <path d="M 85.5933837890625 150.26795959472656 C 108.75083923339844 159.63978576660156 104.34459686279297 160.9031524658203 100.82757568359375 153.0244903564453" stroke-width="3.0" fill="none" stroke="rgb(0, 0, 0)" stroke-opacity="1.0" stroke-linecap="round" stroke-linejoin="round"/>
    <path d="M 82.38861846923828 195.55894470214844 C 69.5904541015625 200.57078552246094 50.13417434692383 177.095703125 48.095584869384766 171.597412109375" stroke-width="3.0" fill="none" stroke="rgb(0, 0, 0)" stroke-opacity="1.0" stroke-linecap="round" stroke-linejoin="round"/>
    <path d="M 48.468563079833984 172.11941528320312 C 62.777706146240234 191.44908142089844 42.336856842041016 166.76043701171875 39.72743606567383 151.26217651367188" stroke-width="3.0" fill="none" stroke="rgb(0, 0, 0)" stroke-opacity="1.0" stroke-linecap="round" stroke-linejoin="round"/>
    <path d="M 80.22288513183594 55.37749481201172 C 62.43525314331055 58.848506927490234 46.50254821777344 71.41152954101562 31.764659881591797 107.46714782714844" stroke-width="3.0" fill="none" stroke="rgb(0, 0, 0)" stroke-opacity="1.0" stroke-linecap="round" stroke-linejoin="round"/>
    <path d="M 153.65908813476562 141.021484375 C 123.480712890625 159.69747924804688 116.73533630371094 153.81515502929688 130.80902099609375 156.4260711669922" stroke-width="3.0" fill="none" stroke="rgb(0, 0, 0)" stroke-opacity="1.0" stroke-linecap="round" stroke-linejoin="round"/>
    <path d="M 145.56690979003906 30.556642532348633 C 150.59510803222656 52.112060546875 139.79698181152344 47.2284049987793 137.99441528320312 80.07636260986328" stroke-width="3.0" fill="none" stroke="rgb(0, 0, 0)" stroke-opacity="1.0" stroke-linecap="round" stroke-linejoin="round"/>
    <path d="M 147.4430389404297 100.29638671875 C 128.30892944335938 107.90350341796875 131.25689697265625 111.18122863769531 117.38926696777344 104.23074340820312" stroke-width="3.0" fill="none" stroke="rgb(0, 0, 0)" stroke-opacity="1.0" stroke-linecap="round" stroke-linejoin="round"/>
    <path d="M 138.5186309814453 74.71260070800781 C 149.01060485839844 55.92886734008789 133.47872924804688 58.5037841796875 137.06455993652344 79.32334899902344" stroke-width="3.0" fill="none" stroke="rgb(0, 0, 0)" stroke-opacity="1.0" stroke-linecap="round" stroke-linejoin="round"/>
    <path d="M 131.61105346679688 177.71713256835938 C 126.94436645507812 181.83221435546875 137.30905151367188 179.289794921875 146.1304931640625 147.15545654296875" stroke-width="3.0" fill="none" stroke="rgb(0, 0, 0)" stroke-opacity="1.0" stroke-linecap="round" stroke-linejoin="round"/>
    <path d="M 194.87245178222656 97.61969757080078 C 170.10446166992188 69.38106536865234 160.70948791503906 80.98079681396484 188.01100158691406 91.28038787841797" stroke-width="3.0" fill="none" stroke="rgb(0, 0, 0)" stroke-opacity="1.0" stroke-linecap="round" stroke-linejoin="round"/>
    <path d="M 147.70956420898438 73.11204528808594 C 148.59410095214844 57.3604621887207 192.87660217285156 92.84410095214844 180.6290283203125 66.05846405029297" stroke-width="3.0" fill="none" stroke="rgb(0, 0, 0)" stroke-opacity="1.0" stroke-linecap="round" stroke-linejoin="round"/>
    <path d="M 108.49366760253906 80.43758392333984 C 80.8907699584961 74.24063873291016 147.52691650390625 74.81372833251953 105.676025390625 85.15870666503906" stroke-width="3.0" fill="none" stroke="rgb(0, 0, 0)" stroke-opacity="1.0" stroke-linecap="round" stroke-linejoin="round"/>
    <path d="M 160.3881378173828 132.56951904296875 C 129.5062713623047 167.37806701660156 125.07718658447266 153.0655975341797 106.13507080078125 157.87362670898438" stroke-width="3.0" fill="none" stroke="rgb(0, 0, 0)" stroke-opacity="1.0" stroke-linecap="round" stroke-linejoin="round"/>
    <path d="M 123.43917846679688 88.19576263427734 C 142.19888305664062 102.02999877929688 131.02626037597656 68.11908721923828 127.509033203125 106.52133178710938" stroke-width="3.0" fill="none" stroke="rgb(0, 0, 0)" stroke-opacity="1.0" stroke-linecap="round" stroke-linejoin="round"/>
    <path d="M 188.1239471435547 109.87079620361328 C 176.42591857910156 87.59601593017578 185.2437286376953 95.24031829833984 141.4766082763672 82.79000091552734" stroke-width="3.0" fill="none" stroke="rgb(0, 0, 0)" stroke-opacity="1.0" stroke-linecap="round" stroke-linejoin="round"/>
    <path d="M 87.14576721191406 9.651269912719727 C 103.99214935302734 13.38463020324707 116.8576431274414 36.83362579345703 121.58921813964844 31.0650634765625" stroke-width="3.0" fill="none" stroke="rgb(0, 0, 0)" stroke-opacity="1.0" stroke-linecap="round" stroke-linejoin="round"/>
    <path d="M 64.58531188964844 121.86222076416016 C 61.38617706298828 109.6087875366211 60.774417877197266 127.51498413085938 62.75627136230469 122.93148803710938" stroke-width="3.0" fill="none" stroke="rgb(0, 0, 0)" stroke-opacity="1.0" stroke-linecap="round" stroke-linejoin="round"/>
    <path d="M 134.6953887939453 104.96977233886719 C 120.51400756835938 92.37422943115234 116.48455810546875 115.58203125 110.99748992919922 92.74594116210938" stroke-width="3.0" fill="none" stroke="rgb(0, 0, 0)" stroke-opacity="1.0" stroke-linecap="round" stroke-linejoin="round"/>
    <path d="M 32.70415496826172 133.8630828857422 C 25.37394142150879 96.339599609375 41.94816207885742 101.9059066772461 49.44295120239258 75.61983489990234" stroke-width="3.0" fill="none" stroke="rgb(0, 0, 0)" stroke-opacity="1.0" stroke-linecap="round" stroke-linejoin="round"/>
    <path d="M 78.23382568359375 196.24241638183594 C 70.66947937011719 195.22555541992188 66.94267272949219 192.9383087158203 99.35409545898438 198.07533264160156" stroke-width="3.0" fill="none" stroke="rgb(0, 0, 0)" stroke-opacity="1.0" stroke-linecap="round" stroke-linejoin="round"/>
    <path d="M 158.99749755859375 132.7717742919922 C 202.05789184570312 124.07347869873047 176.90521240234375 96.01956176757812 156.32994079589844 91.25373077392578" stroke-width="3.0" fill="none" stroke="rgb(0, 0, 0)" stroke-opacity="1.0" stroke-linecap="round" stroke-linejoin="round"/>
    <path d="M 156.50576782226562 69.40596771240234 C 130.6754150390625 83.6305160522461 169.60116577148438 76.37490844726562 147.3811492919922 69.9979248046875" stroke-width="3.0" fill="none" stroke="rgb(0, 0, 0)" stroke-opacity="1.0" stroke-linecap="round" stroke-linejoin="round"/>
    <path d="M 141.85633850097656 77.63362121582031 C 148.39247131347656 43.784767150878906 196.93557739257812 110.8449478149414 179.8301239013672 44.690895080566406" stroke-width="3.0" fill="none" stroke="rgb(0, 0, 0)" stroke-opacity="1.0" stroke-linecap="round" stroke-linejoin="round"/>
    <path d="M 160.0765838623047 98.61000061035156 C 170.02330017089844 107.59986114501953 171.368896484375 101.91954803466797 182.7816925048828 126.15514373779297" stroke-width="3.0" fill="none" stroke="rgb(0, 0, 0)" stroke-opacity="1.0" stroke-linecap="round" stroke-linejoin="round"/>
    <path d="M 176.4801025390625 15.792623519897461 C 168.61598205566406 42.78820037841797 176.07896423339844 20.24541664123535 160.505615234375 39.16542053222656" stroke-width="3.0" fill="none" stroke="rgb(0, 0, 0)" stroke-opacity="1.0" stroke-linecap="round" stroke-linejoin="round"/>
    <path d="M 118.72935485839844 104.55487823486328 C 145.2486114501953 102.54999542236328 137.19236755371094 111.62004852294922 119.77165222167969 104.29022979736328" stroke-width="3.0" fill="none" stroke="rgb(0, 0, 0)" stroke-opacity="1.0" stroke-linecap="round" stroke-linejoin="round"/>
    <path d="M 75.10786437988281 135.70840454101562 C 53.995174407958984 124.74919891357422 64.29657745361328 112.04894256591797 62.42475128173828 121.61007690429688" stroke-width="3.0" fill="none" stroke="rgb(0, 0, 0)" stroke-opacity="1.0" stroke-linecap="round" stroke-linejoin="round"/>
    <path d="M 122.09959411621094 75.04843139648438 C 123.7322769165039 42.06566619873047 117.69220733642578 57.8544807434082 118.14178466796875 34.96183395385742" stroke-width="3.0" fill="none" stroke="rgb(0, 0, 0)" stroke-opacity="1.0" stroke-linecap="round" stroke-linejoin="round"/>
    <path d="M 152.6663360595703 25.939504623413086 C 147.25160217285156 37.277889251708984 159.64479064941406 8.216611862182617 179.21298217773438 10.259551048278809" stroke-width="3.0" fill="none" stroke="rgb(0, 0, 0)" stroke-opacity="1.0" stroke-linecap="round" stroke-linejoin="round"/>
  </g>
</svg>
