<?xml version="1.0" ?>
<svg xmlns="http://www.w3.org/2000/svg" version="1.1" width="224" height="224">
  <defs/>
  <g>
    <path d="M 57.93411636352539 113.1113052368164 C 59.10539627075195 117.2894515991211 50.872161865234375 103.02567291259766 43.540775299072266 86.49162292480469" stroke-width="3.0" fill="none" stroke="rgb(0, 0, 0)" stroke-opacity="1.0" stroke-linecap="round" stroke-linejoin="round"/>
    <path d="M 185.02940368652344 123.3396224975586 C 177.1584014892578 107.1446304321289 184.2638397216797 115.79524993896484 183.32217407226562 118.02288818359375" stroke-width="3.0" fill="none" stroke="rgb(0, 0, 0)" stroke-opacity="1.0" stroke-linecap="round" stroke-linejoin="round"/>
    <path d="M 52.998741149902344 106.33506774902344 C 59.65016174316406 113.90214538574219 53.59192657470703 109.08518981933594 57.07943344116211 116.48548126220703" stroke-width="3.0" fill="none" stroke="rgb(0, 0, 0)" stroke-opacity="1.0" stroke-linecap="round" stroke-linejoin="round"/>
    <path d="M 184.05755615234375 94.60501861572266 C 158.7608642578125 83.7409896850586 172.53639221191406 83.20784759521484 195.51904296875 113.14602661132812" stroke-width="3.0" fill="none" stroke="rgb(0, 0, 0)" stroke-opacity="1.0" stroke-linecap="round" stroke-linejoin="round"/>
    <path d="M 180.65570068359375 73.3475570678711 C 177.44703674316406 97.44261169433594 186.85850524902344 95.72513580322266 182.51031494140625 61.92613983154297" stroke-width="3.0" fill="none" stroke="rgb(0, 0, 0)" stroke-opacity="1.0" stroke-linecap="round" stroke-linejoin="round"/>
    <path d="M 129.12998962402344 101.52200317382812 C 151.7168731689453 96.94599914550781 100.16789245605469 100.00041198730469 131.35728454589844 106.20053100585938" stroke-width="3.0" fill="none" stroke="rgb(0, 0, 0)" stroke-opacity="1.0" stroke-linecap="round" stroke-linejoin="round"/>
    <path d="M 170.59523010253906 99.28683471679688 C 202.2783660888672 78.80261993408203 172.23829650878906 69.69407653808594 154.8627166748047 84.91875457763672" stroke-width="3.0" fill="none" stroke="rgb(0, 0, 0)" stroke-opacity="1.0" stroke-linecap="round" stroke-linejoin="round"/>
    <path d="M 53.84312438964844 178.26197814941406 C 35.418418884277344 160.09396362304688 49.482330322265625 161.990966796875 45.36482620239258 163.1396026611328" stroke-width="3.0" fill="none" stroke="rgb(0, 0, 0)" stroke-opacity="1.0" stroke-linecap="round" stroke-linejoin="round"/>
    <path d="M 62.71181869506836 188.38697814941406 C 90.0223617553711 204.7154541015625 106.68180084228516 197.2447967529297 124.46397399902344 186.4991912841797" stroke-width="3.0" fill="none" stroke="rgb(0, 0, 0)" stroke-opacity="1.0" stroke-linecap="round" stroke-linejoin="round"/>
    <path d="M 85.22911071777344 41.21339416503906 C 91.23457336425781 61.72925567626953 82.7846908569336 25.517868041992188 86.4181900024414 58.183780670166016" stroke-width="3.0" fill="none" stroke="rgb(0, 0, 0)" stroke-opacity="1.0" stroke-linecap="round" stroke-linejoin="round"/>
    <path d="M 60.76799392700195 121.30423736572266 C 52.29716873168945 138.20150756835938 92.39564514160156 155.2234344482422 100.53141021728516 151.7013702392578" stroke-width="3.0" fill="none" stroke="rgb(0, 0, 0)" stroke-opacity="1.0" stroke-linecap="round" stroke-linejoin="round"/>
    <path d="M 146.13381958007812 71.89170837402344 C 211.08531188964844 75.30378723144531 184.98968505859375 81.65242767333984 147.61253356933594 84.04345703125" stroke-width="3.0" fill="none" stroke="rgb(0, 0, 0)" stroke-opacity="1.0" stroke-linecap="round" stroke-linejoin="round"/>
    <path d="M 151.10157775878906 94.30841827392578 C 179.19039916992188 98.7880859375 184.59048461914062 98.83574676513672 188.34307861328125 112.70404815673828" stroke-width="3.0" fill="none" stroke="rgb(0, 0, 0)" stroke-opacity="1.0" stroke-linecap="round" stroke-linejoin="round"/>
    <path d="M 109.70051574707031 157.37643432617188 C 143.9917449951172 145.90870666503906 115.23643493652344 161.1239013671875 129.31857299804688 154.87188720703125" stroke-width="3.0" fill="none" stroke="rgb(0, 0, 0)" stroke-opacity="1.0" stroke-linecap="round" stroke-linejoin="round"/>
    <path d="M 172.84732055664062 9.53226089477539 C 190.53604125976562 2.25439453125 169.8111572265625 57.89262008666992 178.5628662109375 54.4107666015625" stroke-width="3.0" fill="none" stroke="rgb(0, 0, 0)" stroke-opacity="1.0" stroke-linecap="round" stroke-linejoin="round"/>
    <path d="M 130.2722625732422 31.255847930908203 C 126.24284362792969 52.91893768310547 135.6690673828125 39.40058517456055 126.63373565673828 72.13582611083984" stroke-width="3.0" fill="none" stroke="rgb(0, 0, 0)" stroke-opacity="1.0" stroke-linecap="round" stroke-linejoin="round"/>
    <path d="M 89.8292236328125 50.229942321777344 C 73.40050506591797 -5.015585899353027 85.45660400390625 -0.6990538835525513 113.59949493408203 34.934608459472656" stroke-width="3.0" fill="none" stroke="rgb(0, 0, 0)" stroke-opacity="1.0" stroke-linecap="round" stroke-linejoin="round"/>
    <path d="M 45.60122299194336 161.93936157226562 C 42.75806427001953 152.8749542236328 38.579776763916016 145.76341247558594 39.82163619995117 149.0779266357422" stroke-width="3.0" fill="none" stroke="rgb(0, 0, 0)" stroke-opacity="1.0" stroke-linecap="round" stroke-linejoin="round"/>
    <path d="M 33.544639587402344 105.54788208007812 C 26.042688369750977 127.05104064941406 37.22489547729492 142.36639404296875 42.235321044921875 157.1136474609375" stroke-width="3.0" fill="none" stroke="rgb(0, 0, 0)" stroke-opacity="1.0" stroke-linecap="round" stroke-linejoin="round"/>
    <path d="M 88.13558197021484 150.1797637939453 C 102.68218231201172 159.94337463378906 107.86072540283203 155.2415008544922 105.69544219970703 156.27488708496094" stroke-width="3.0" fill="none" stroke="rgb(0, 0, 0)" stroke-opacity="1.0" stroke-linecap="round" stroke-linejoin="round"/>
    <path d="M 77.56565856933594 197.27999877929688 C 56.32318878173828 186.5990753173828 56.780540466308594 183.48727416992188 47.91758728027344 173.83128356933594" stroke-width="3.0" fill="none" stroke="rgb(0, 0, 0)" stroke-opacity="1.0" stroke-linecap="round" stroke-linejoin="round"/>
    <path d="M 46.88432693481445 164.86892700195312 C 58.57011032104492 189.38699340820312 42.71035385131836 163.35794067382812 39.93021774291992 152.74671936035156" stroke-width="3.0" fill="none" stroke="rgb(0, 0, 0)" stroke-opacity="1.0" stroke-linecap="round" stroke-linejoin="round"/>
    <path d="M 80.65528869628906 52.42050552368164 C 56.87190628051758 58.64149475097656 49.481651306152344 73.831787109375 33.26486587524414 108.84947967529297" stroke-width="3.0" fill="none" stroke="rgb(0, 0, 0)" stroke-opacity="1.0" stroke-linecap="round" stroke-linejoin="round"/>
    <path d="M 154.3045654296875 141.30470275878906 C 135.47763061523438 158.20394897460938 119.0353012084961 156.85411071777344 132.79600524902344 153.12716674804688" stroke-width="3.0" fill="none" stroke="rgb(0, 0, 0)" stroke-opacity="1.0" stroke-linecap="round" stroke-linejoin="round"/>
    <path d="M 138.61158752441406 30.55038070678711 C 149.0284881591797 63.49554443359375 129.07687377929688 59.24862289428711 136.54786682128906 76.01600646972656" stroke-width="3.0" fill="none" stroke="rgb(0, 0, 0)" stroke-opacity="1.0" stroke-linecap="round" stroke-linejoin="round"/>
    <path d="M 147.17996215820312 97.45140838623047 C 115.6863021850586 107.0197525024414 129.73435974121094 114.18067932128906 136.91162109375 102.21025085449219" stroke-width="3.0" fill="none" stroke="rgb(0, 0, 0)" stroke-opacity="1.0" stroke-linecap="round" stroke-linejoin="round"/>
    <path d="M 137.2618408203125 78.7620620727539 C 139.70826721191406 52.0291633605957 140.0093231201172 63.497005462646484 137.6085968017578 69.36625671386719" stroke-width="3.0" fill="none" stroke="rgb(0, 0, 0)" stroke-opacity="1.0" stroke-linecap="round" stroke-linejoin="round"/>
    <path d="M 133.07835388183594 180.392333984375 C 110.48126983642578 194.3080291748047 140.62649536132812 188.3928680419922 143.9451904296875 151.8898162841797" stroke-width="3.0" fill="none" stroke="rgb(0, 0, 0)" stroke-opacity="1.0" stroke-linecap="round" stroke-linejoin="round"/>
    <path d="M 192.88104248046875 95.88134002685547 C 169.85345458984375 75.6656265258789 144.9219512939453 85.77726745605469 184.40126037597656 86.30561828613281" stroke-width="3.0" fill="none" stroke="rgb(0, 0, 0)" stroke-opacity="1.0" stroke-linecap="round" stroke-linejoin="round"/>
    <path d="M 145.4464111328125 77.47985076904297 C 170.43002319335938 63.519779205322266 193.82994079589844 82.37007141113281 176.09237670898438 67.8286361694336" stroke-width="3.0" fill="none" stroke="rgb(0, 0, 0)" stroke-opacity="1.0" stroke-linecap="round" stroke-linejoin="round"/>
    <path d="M 109.64778137207031 78.8284912109375 C 91.26290130615234 71.10065460205078 134.30661010742188 76.03863525390625 108.8816909790039 80.2824935913086" stroke-width="3.0" fill="none" stroke="rgb(0, 0, 0)" stroke-opacity="1.0" stroke-linecap="round" stroke-linejoin="round"/>
    <path d="M 150.27943420410156 141.89544677734375 C 140.41944885253906 162.7476043701172 124.46548461914062 153.50308227539062 105.06307220458984 157.749267578125" stroke-width="3.0" fill="none" stroke="rgb(0, 0, 0)" stroke-opacity="1.0" stroke-linecap="round" stroke-linejoin="round"/>
    <path d="M 126.4639663696289 88.06829833984375 C 143.6552276611328 99.80000305175781 130.99966430664062 72.79399108886719 129.9181365966797 103.339599609375" stroke-width="3.0" fill="none" stroke="rgb(0, 0, 0)" stroke-opacity="1.0" stroke-linecap="round" stroke-linejoin="round"/>
    <path d="M 188.24246215820312 114.2498779296875 C 178.195556640625 77.16632080078125 183.9123077392578 96.476318359375 140.3388671875 82.46569061279297" stroke-width="3.0" fill="none" stroke="rgb(0, 0, 0)" stroke-opacity="1.0" stroke-linecap="round" stroke-linejoin="round"/>
    <path d="M 83.94892120361328 7.601884365081787 C 107.85987091064453 16.473102569580078 115.43806457519531 34.247562408447266 123.66667175292969 30.29534149169922" stroke-width="3.0" fill="none" stroke="rgb(0, 0, 0)" stroke-opacity="1.0" stroke-linecap="round" stroke-linejoin="round"/>
    <path d="M 59.04170608520508 116.56498718261719 C 54.4424934387207 106.50627136230469 59.635955810546875 121.09424591064453 56.868343353271484 110.81890106201172" stroke-width="3.0" fill="none" stroke="rgb(0, 0, 0)" stroke-opacity="1.0" stroke-linecap="round" stroke-linejoin="round"/>
    <path d="M 126.36991119384766 105.88477325439453 C 106.61786651611328 93.17292785644531 127.1888198852539 107.50542449951172 110.56961822509766 89.58009338378906" stroke-width="3.0" fill="none" stroke="rgb(0, 0, 0)" stroke-opacity="1.0" stroke-linecap="round" stroke-linejoin="round"/>
    <path d="M 32.80198669433594 131.103515625 C 28.23264503479004 118.2773208618164 35.160858154296875 104.03376007080078 31.101398468017578 114.38473510742188" stroke-width="3.0" fill="none" stroke="rgb(0, 0, 0)" stroke-opacity="1.0" stroke-linecap="round" stroke-linejoin="round"/>
    <path d="M 79.99028778076172 195.72486877441406 C 74.39860534667969 196.8662109375 70.07390594482422 198.08218383789062 96.96500396728516 197.5153045654297" stroke-width="3.0" fill="none" stroke="rgb(0, 0, 0)" stroke-opacity="1.0" stroke-linecap="round" stroke-linejoin="round"/>
    <path d="M 151.66250610351562 143.40261840820312 C 207.45513916015625 110.25271606445312 181.94532775878906 92.50345611572266 156.0305938720703 91.11465454101562" stroke-width="3.0" fill="none" stroke="rgb(0, 0, 0)" stroke-opacity="1.0" stroke-linecap="round" stroke-linejoin="round"/>
    <path d="M 158.5211944580078 70.21000671386719 C 124.1645278930664 81.406494140625 170.94973754882812 83.43186950683594 148.44857788085938 68.69884490966797" stroke-width="3.0" fill="none" stroke="rgb(0, 0, 0)" stroke-opacity="1.0" stroke-linecap="round" stroke-linejoin="round"/>
    <path d="M 142.1095428466797 76.3575210571289 C 146.48287963867188 46.80076217651367 200.69178771972656 104.75546264648438 173.3926239013672 48.71088790893555" stroke-width="3.0" fill="none" stroke="rgb(0, 0, 0)" stroke-opacity="1.0" stroke-linecap="round" stroke-linejoin="round"/>
    <path d="M 155.33621215820312 95.0929183959961 C 168.1881561279297 102.43338012695312 182.97340393066406 101.1823501586914 184.92825317382812 115.04741668701172" stroke-width="3.0" fill="none" stroke="rgb(0, 0, 0)" stroke-opacity="1.0" stroke-linecap="round" stroke-linejoin="round"/>
    <path d="M 178.3860626220703 15.008487701416016 C 167.76730346679688 39.07624053955078 171.898193359375 18.601987838745117 156.09890747070312 37.42134094238281" stroke-width="3.0" fill="none" stroke="rgb(0, 0, 0)" stroke-opacity="1.0" stroke-linecap="round" stroke-linejoin="round"/>
    <path d="M 120.7469253540039 102.8240966796875 C 148.99351501464844 102.86651611328125 133.7723388671875 112.21760559082031 111.01043701171875 96.16890716552734" stroke-width="3.0" fill="none" stroke="rgb(0, 0, 0)" stroke-opacity="1.0" stroke-linecap="round" stroke-linejoin="round"/>
    <path d="M 59.148929595947266 112.23158264160156 C 52.04793930053711 109.00175476074219 50.601016998291016 103.34220123291016 61.27259826660156 125.94510650634766" stroke-width="3.0" fill="none" stroke="rgb(0, 0, 0)" stroke-opacity="1.0" stroke-linecap="round" stroke-linejoin="round"/>
    <path d="M 124.315673828125 76.8592758178711 C 130.6817626953125 41.18949508666992 117.43196105957031 52.60208511352539 121.92207336425781 32.499267578125" stroke-width="3.0" fill="none" stroke="rgb(0, 0, 0)" stroke-opacity="1.0" stroke-linecap="round" stroke-linejoin="round"/>
    <path d="M 145.87857055664062 31.043628692626953 C 145.63938903808594 36.430999755859375 152.71902465820312 13.612852096557617 177.69857788085938 5.648318767547607" stroke-width="3.0" fill="none" stroke="rgb(0, 0, 0)" stroke-opacity="1.0" stroke-linecap="round" stroke-linejoin="round"/>
  </g>
</svg>
