<?xml version="1.0" ?>
<svg xmlns="http://www.w3.org/2000/svg" version="1.1" width="224" height="224">
  <defs/>
  <g>
    <path d="M 56.24965286254883 114.25457763671875 C 61.339473724365234 114.90777587890625 46.64126968383789 103.84839630126953 44.36777114868164 82.1010971069336" stroke-width="3.0" fill="none" stroke="rgb(0, 0, 0)" stroke-opacity="1.0" stroke-linecap="round" stroke-linejoin="round"/>
    <path d="M 182.2445526123047 125.09729766845703 C 178.47447204589844 114.27491760253906 187.84567260742188 117.43576049804688 182.81900024414062 115.84227752685547" stroke-width="3.0" fill="none" stroke="rgb(0, 0, 0)" stroke-opacity="1.0" stroke-linecap="round" stroke-linejoin="round"/>
    <path d="M 57.70105743408203 111.08445739746094 C 53.81093215942383 116.9549560546875 54.51070785522461 104.03473663330078 58.32803726196289 114.97869873046875" stroke-width="3.0" fill="none" stroke="rgb(0, 0, 0)" stroke-opacity="1.0" stroke-linecap="round" stroke-linejoin="round"/>
    <path d="M 183.1253662109375 95.70162963867188 C 158.78724670410156 85.03585052490234 170.29965209960938 85.45807647705078 193.7433319091797 113.03649139404297" stroke-width="3.0" fill="none" stroke="rgb(0, 0, 0)" stroke-opacity="1.0" stroke-linecap="round" stroke-linejoin="round"/>
    <path d="M 181.23812866210938 72.69935607910156 C 178.71205139160156 97.00883483886719 184.31365966796875 95.17699432373047 183.8771514892578 64.48596954345703" stroke-width="3.0" fill="none" stroke="rgb(0, 0, 0)" stroke-opacity="1.0" stroke-linecap="round" stroke-linejoin="round"/>
    <path d="M 129.1806182861328 101.49666595458984 C 150.61456298828125 99.44342041015625 103.2995834350586 98.81983184814453 132.7928924560547 106.1737289428711" stroke-width="3.0" fill="none" stroke="rgb(0, 0, 0)" stroke-opacity="1.0" stroke-linecap="round" stroke-linejoin="round"/>
    <path d="M 173.09814453125 100.4513168334961 C 204.5029296875 76.12237548828125 172.2067108154297 67.8523941040039 154.15359497070312 84.60094451904297" stroke-width="3.0" fill="none" stroke="rgb(0, 0, 0)" stroke-opacity="1.0" stroke-linecap="round" stroke-linejoin="round"/>
    <path d="M 54.45596694946289 178.8895263671875 C 36.72401809692383 162.76919555664062 53.627906799316406 164.94569396972656 45.8956413269043 163.45555114746094" stroke-width="3.0" fill="none" stroke="rgb(0, 0, 0)" stroke-opacity="1.0" stroke-linecap="round" stroke-linejoin="round"/>
    <path d="M 65.10902404785156 190.77745056152344 C 88.81255340576172 207.6405792236328 107.73067474365234 200.13357543945312 122.57361602783203 188.9497833251953" stroke-width="3.0" fill="none" stroke="rgb(0, 0, 0)" stroke-opacity="1.0" stroke-linecap="round" stroke-linejoin="round"/>
    <path d="M 88.64095306396484 40.74033737182617 C 91.86768341064453 53.879459381103516 84.59391021728516 18.902536392211914 85.88736724853516 55.65731430053711" stroke-width="3.0" fill="none" stroke="rgb(0, 0, 0)" stroke-opacity="1.0" stroke-linecap="round" stroke-linejoin="round"/>
    <path d="M 61.944091796875 126.54316711425781 C 56.379127502441406 139.40463256835938 89.88715362548828 152.86697387695312 102.75153350830078 151.64877319335938" stroke-width="3.0" fill="none" stroke="rgb(0, 0, 0)" stroke-opacity="1.0" stroke-linecap="round" stroke-linejoin="round"/>
    <path d="M 150.0394287109375 69.80498504638672 C 209.7452850341797 76.06505584716797 183.52439880371094 80.65180206298828 147.2407989501953 84.01802825927734" stroke-width="3.0" fill="none" stroke="rgb(0, 0, 0)" stroke-opacity="1.0" stroke-linecap="round" stroke-linejoin="round"/>
    <path d="M 149.15306091308594 95.66949462890625 C 176.1290740966797 101.33174896240234 178.03750610351562 100.17105102539062 186.37814331054688 112.88018798828125" stroke-width="3.0" fill="none" stroke="rgb(0, 0, 0)" stroke-opacity="1.0" stroke-linecap="round" stroke-linejoin="round"/>
    <path d="M 108.88562774658203 156.1886749267578 C 143.93670654296875 149.94459533691406 112.45044708251953 159.99549865722656 125.58788299560547 150.1686248779297" stroke-width="3.0" fill="none" stroke="rgb(0, 0, 0)" stroke-opacity="1.0" stroke-linecap="round" stroke-linejoin="round"/>
    <path d="M 173.90591430664062 8.417927742004395 C 192.86647033691406 0.15907752513885498 174.08680725097656 54.69417953491211 181.97312927246094 55.875221252441406" stroke-width="3.0" fill="none" stroke="rgb(0, 0, 0)" stroke-opacity="1.0" stroke-linecap="round" stroke-linejoin="round"/>
    <path d="M 131.54034423828125 31.17268180847168 C 125.99801635742188 52.11793899536133 135.09149169921875 39.10905456542969 127.18016052246094 71.508544921875" stroke-width="3.0" fill="none" stroke="rgb(0, 0, 0)" stroke-opacity="1.0" stroke-linecap="round" stroke-linejoin="round"/>
    <path d="M 89.75322723388672 48.82335662841797 C 73.17538452148438 -5.668945789337158 85.80294036865234 -1.8859962224960327 107.24835205078125 37.73683547973633" stroke-width="3.0" fill="none" stroke="rgb(0, 0, 0)" stroke-opacity="1.0" stroke-linecap="round" stroke-linejoin="round"/>
    <path d="M 46.48379135131836 161.96966552734375 C 41.31877517700195 153.89883422851562 37.60429763793945 146.97950744628906 37.9400749206543 148.11257934570312" stroke-width="3.0" fill="none" stroke="rgb(0, 0, 0)" stroke-opacity="1.0" stroke-linecap="round" stroke-linejoin="round"/>
    <path d="M 32.201969146728516 107.94172668457031 C 26.47572135925293 126.23639678955078 36.35487365722656 144.2451629638672 42.836997985839844 156.51058959960938" stroke-width="3.0" fill="none" stroke="rgb(0, 0, 0)" stroke-opacity="1.0" stroke-linecap="round" stroke-linejoin="round"/>
    <path d="M 85.81514739990234 150.36868286132812 C 101.05661010742188 159.54588317871094 103.715576171875 157.53762817382812 105.9299545288086 158.57965087890625" stroke-width="3.0" fill="none" stroke="rgb(0, 0, 0)" stroke-opacity="1.0" stroke-linecap="round" stroke-linejoin="round"/>
    <path d="M 74.77513122558594 199.56272888183594 C 56.44670867919922 184.45675659179688 56.972862243652344 184.22702026367188 47.726993560791016 172.70013427734375" stroke-width="3.0" fill="none" stroke="rgb(0, 0, 0)" stroke-opacity="1.0" stroke-linecap="round" stroke-linejoin="round"/>
    <path d="M 46.56821060180664 164.04348754882812 C 58.437538146972656 189.17758178710938 40.99292755126953 165.02845764160156 40.788089752197266 151.94532775878906" stroke-width="3.0" fill="none" stroke="rgb(0, 0, 0)" stroke-opacity="1.0" stroke-linecap="round" stroke-linejoin="round"/>
    <path d="M 80.65946960449219 53.979942321777344 C 57.1370849609375 59.19203567504883 47.81669616699219 73.84832000732422 32.00971603393555 106.70364379882812" stroke-width="3.0" fill="none" stroke="rgb(0, 0, 0)" stroke-opacity="1.0" stroke-linecap="round" stroke-linejoin="round"/>
    <path d="M 149.7745819091797 142.25103759765625 C 138.5007781982422 159.31008911132812 119.93258666992188 156.05694580078125 133.2568817138672 154.65184020996094" stroke-width="3.0" fill="none" stroke="rgb(0, 0, 0)" stroke-opacity="1.0" stroke-linecap="round" stroke-linejoin="round"/>
    <path d="M 138.648193359375 30.359615325927734 C 141.9008026123047 65.2966537475586 131.34527587890625 57.96622848510742 143.16233825683594 75.38774871826172" stroke-width="3.0" fill="none" stroke="rgb(0, 0, 0)" stroke-opacity="1.0" stroke-linecap="round" stroke-linejoin="round"/>
    <path d="M 146.88536071777344 100.01969146728516 C 117.48040771484375 106.38580322265625 128.073974609375 112.67337036132812 140.2438201904297 103.94297790527344" stroke-width="3.0" fill="none" stroke="rgb(0, 0, 0)" stroke-opacity="1.0" stroke-linecap="round" stroke-linejoin="round"/>
    <path d="M 138.275146484375 78.70550537109375 C 140.6198272705078 51.9783821105957 139.32501220703125 62.32707595825195 138.70730590820312 67.23822784423828" stroke-width="3.0" fill="none" stroke="rgb(0, 0, 0)" stroke-opacity="1.0" stroke-linecap="round" stroke-linejoin="round"/>
    <path d="M 133.14566040039062 180.96043395996094 C 106.49700164794922 196.32077026367188 139.1634063720703 189.94384765625 143.36766052246094 153.56671142578125" stroke-width="3.0" fill="none" stroke="rgb(0, 0, 0)" stroke-opacity="1.0" stroke-linecap="round" stroke-linejoin="round"/>
    <path d="M 194.61038208007812 94.00666046142578 C 170.33309936523438 70.82852172851562 143.165771484375 82.8236312866211 184.4204559326172 80.6538314819336" stroke-width="3.0" fill="none" stroke="rgb(0, 0, 0)" stroke-opacity="1.0" stroke-linecap="round" stroke-linejoin="round"/>
    <path d="M 145.58328247070312 76.27842712402344 C 174.9220733642578 60.43903350830078 193.87278747558594 78.47254943847656 176.22445678710938 66.5517807006836" stroke-width="3.0" fill="none" stroke="rgb(0, 0, 0)" stroke-opacity="1.0" stroke-linecap="round" stroke-linejoin="round"/>
    <path d="M 109.39384460449219 77.49088287353516 C 90.35214233398438 69.32428741455078 133.87693786621094 74.17485046386719 106.56452178955078 79.48616027832031" stroke-width="3.0" fill="none" stroke="rgb(0, 0, 0)" stroke-opacity="1.0" stroke-linecap="round" stroke-linejoin="round"/>
    <path d="M 148.93690490722656 145.60179138183594 C 140.73106384277344 164.16722106933594 124.9095687866211 155.66184997558594 107.35310363769531 158.1439971923828" stroke-width="3.0" fill="none" stroke="rgb(0, 0, 0)" stroke-opacity="1.0" stroke-linecap="round" stroke-linejoin="round"/>
    <path d="M 123.89476776123047 91.3729019165039 C 142.3138885498047 100.60517883300781 134.09750366210938 73.59620666503906 129.4794464111328 103.7388687133789" stroke-width="3.0" fill="none" stroke="rgb(0, 0, 0)" stroke-opacity="1.0" stroke-linecap="round" stroke-linejoin="round"/>
    <path d="M 187.4051513671875 113.61933135986328 C 177.96807861328125 79.4644546508789 181.4015350341797 94.52445983886719 141.0513458251953 81.8383560180664" stroke-width="3.0" fill="none" stroke="rgb(0, 0, 0)" stroke-opacity="1.0" stroke-linecap="round" stroke-linejoin="round"/>
    <path d="M 86.55465698242188 8.449336051940918 C 106.72766876220703 18.470489501953125 112.71341705322266 33.72553253173828 122.31531524658203 31.112327575683594" stroke-width="3.0" fill="none" stroke="rgb(0, 0, 0)" stroke-opacity="1.0" stroke-linecap="round" stroke-linejoin="round"/>
    <path d="M 55.27274703979492 113.0505142211914 C 53.13714599609375 106.45472717285156 57.454437255859375 121.77490234375 55.81842041015625 112.5660629272461" stroke-width="3.0" fill="none" stroke="rgb(0, 0, 0)" stroke-opacity="1.0" stroke-linecap="round" stroke-linejoin="round"/>
    <path d="M 124.5873031616211 106.81456756591797 C 103.24015808105469 93.64131927490234 125.8724594116211 108.8716812133789 107.6563491821289 87.61576080322266" stroke-width="3.0" fill="none" stroke="rgb(0, 0, 0)" stroke-opacity="1.0" stroke-linecap="round" stroke-linejoin="round"/>
    <path d="M 31.91268539428711 132.4374237060547 C 28.47266387939453 116.18854522705078 34.393043518066406 102.87344360351562 30.288333892822266 115.78919219970703" stroke-width="3.0" fill="none" stroke="rgb(0, 0, 0)" stroke-opacity="1.0" stroke-linecap="round" stroke-linejoin="round"/>
    <path d="M 83.14630889892578 201.32135009765625 C 74.2341537475586 198.49554443359375 69.47706604003906 200.4849090576172 98.01026916503906 201.22305297851562" stroke-width="3.0" fill="none" stroke="rgb(0, 0, 0)" stroke-opacity="1.0" stroke-linecap="round" stroke-linejoin="round"/>
    <path d="M 151.79718017578125 141.11941528320312 C 207.4749298095703 113.39968872070312 178.7872772216797 97.42565155029297 155.63870239257812 90.93431091308594" stroke-width="3.0" fill="none" stroke="rgb(0, 0, 0)" stroke-opacity="1.0" stroke-linecap="round" stroke-linejoin="round"/>
    <path d="M 156.7586669921875 68.62431335449219 C 119.04156494140625 80.80718994140625 175.02359008789062 81.92613983154297 146.23361206054688 68.8935317993164" stroke-width="3.0" fill="none" stroke="rgb(0, 0, 0)" stroke-opacity="1.0" stroke-linecap="round" stroke-linejoin="round"/>
    <path d="M 142.75694274902344 74.7315444946289 C 143.980712890625 47.11167526245117 199.82797241210938 106.32332611083984 178.217041015625 47.522647857666016" stroke-width="3.0" fill="none" stroke="rgb(0, 0, 0)" stroke-opacity="1.0" stroke-linecap="round" stroke-linejoin="round"/>
    <path d="M 150.55252075195312 95.48300170898438 C 165.69187927246094 102.00775146484375 178.29710388183594 105.267822265625 184.54156494140625 115.47836303710938" stroke-width="3.0" fill="none" stroke="rgb(0, 0, 0)" stroke-opacity="1.0" stroke-linecap="round" stroke-linejoin="round"/>
    <path d="M 177.82298278808594 16.67737579345703 C 167.75999450683594 36.53507614135742 172.31149291992188 20.071361541748047 157.22537231445312 35.736968994140625" stroke-width="3.0" fill="none" stroke="rgb(0, 0, 0)" stroke-opacity="1.0" stroke-linecap="round" stroke-linejoin="round"/>
    <path d="M 121.863037109375 102.77372741699219 C 146.43310546875 100.9098129272461 129.640380859375 112.32221984863281 110.2171401977539 95.24987030029297" stroke-width="3.0" fill="none" stroke="rgb(0, 0, 0)" stroke-opacity="1.0" stroke-linecap="round" stroke-linejoin="round"/>
    <path d="M 54.60160446166992 112.10445404052734 C 55.01720428466797 108.24597930908203 51.80113220214844 103.67603302001953 59.459049224853516 125.87411499023438" stroke-width="3.0" fill="none" stroke="rgb(0, 0, 0)" stroke-opacity="1.0" stroke-linecap="round" stroke-linejoin="round"/>
    <path d="M 124.14375305175781 75.9370346069336 C 129.4145050048828 41.91304397583008 115.86312866210938 53.58047103881836 122.38996124267578 31.954547882080078" stroke-width="3.0" fill="none" stroke="rgb(0, 0, 0)" stroke-opacity="1.0" stroke-linecap="round" stroke-linejoin="round"/>
    <path d="M 143.54917907714844 30.09820556640625 C 145.43499755859375 36.86239242553711 151.48098754882812 14.135008811950684 177.13389587402344 7.59928560256958" stroke-width="3.0" fill="none" stroke="rgb(0, 0, 0)" stroke-opacity="1.0" stroke-linecap="round" stroke-linejoin="round"/>
  </g>
</svg>
