<?xml version="1.0" ?>
<svg xmlns="http://www.w3.org/2000/svg" version="1.1" width="224" height="224">
  <defs/>
  <g>
    <path d="M 60.792354583740234 105.75749206542969 C 65.29853057861328 105.00286102294922 56.670623779296875 107.46819305419922 48.297367095947266 103.84087371826172" stroke-width="3.0" fill="none" stroke="rgb(0, 0, 0)" stroke-opacity="1.0" stroke-linecap="round" stroke-linejoin="round"/>
    <path d="M 182.02020263671875 125.16381072998047 C 181.34596252441406 112.22740936279297 178.16357421875 117.06151580810547 183.86264038085938 126.99447631835938" stroke-width="3.0" fill="none" stroke="rgb(0, 0, 0)" stroke-opacity="1.0" stroke-linecap="round" stroke-linejoin="round"/>
    <path d="M 55.29220199584961 112.3516845703125 C 58.06660079956055 115.5716323852539 55.146339416503906 99.28607940673828 55.48133850097656 112.0919418334961" stroke-width="3.0" fill="none" stroke="rgb(0, 0, 0)" stroke-opacity="1.0" stroke-linecap="round" stroke-linejoin="round"/>
    <path d="M 179.2275848388672 97.70555877685547 C 156.48178100585938 105.86563873291016 166.42642211914062 99.0103988647461 188.51832580566406 113.31802368164062" stroke-width="3.0" fill="none" stroke="rgb(0, 0, 0)" stroke-opacity="1.0" stroke-linecap="round" stroke-linejoin="round"/>
    <path d="M 181.7459259033203 77.89202880859375 C 185.82489013671875 83.39249420166016 179.0184326171875 74.04046630859375 183.24630737304688 83.25157165527344" stroke-width="3.0" fill="none" stroke="rgb(0, 0, 0)" stroke-opacity="1.0" stroke-linecap="round" stroke-linejoin="round"/>
    <path d="M 128.65997314453125 101.16388702392578 C 119.42725372314453 109.64018249511719 119.01766204833984 102.647216796875 133.0940399169922 104.84280395507812" stroke-width="3.0" fill="none" stroke="rgb(0, 0, 0)" stroke-opacity="1.0" stroke-linecap="round" stroke-linejoin="round"/>
    <path d="M 174.2577667236328 80.5374526977539 C 185.74159240722656 81.57325744628906 176.4473114013672 78.45171356201172 160.9181365966797 82.53324127197266" stroke-width="3.0" fill="none" stroke="rgb(0, 0, 0)" stroke-opacity="1.0" stroke-linecap="round" stroke-linejoin="round"/>
    <path d="M 59.78335189819336 182.11776733398438 C 46.56036376953125 158.39056396484375 45.03109359741211 173.56954956054688 48.80009460449219 166.26246643066406" stroke-width="3.0" fill="none" stroke="rgb(0, 0, 0)" stroke-opacity="1.0" stroke-linecap="round" stroke-linejoin="round"/>
    <path d="M 75.54337310791016 185.94956970214844 C 81.31141662597656 188.5613250732422 90.1249008178711 192.48475646972656 84.10287475585938 183.43565368652344" stroke-width="3.0" fill="none" stroke="rgb(0, 0, 0)" stroke-opacity="1.0" stroke-linecap="round" stroke-linejoin="round"/>
    <path d="M 87.73851013183594 50.82096481323242 C 81.83515167236328 70.6324462890625 89.13568115234375 73.41619873046875 83.51021575927734 64.5333251953125" stroke-width="3.0" fill="none" stroke="rgb(0, 0, 0)" stroke-opacity="1.0" stroke-linecap="round" stroke-linejoin="round"/>
    <path d="M 63.94333267211914 128.80079650878906 C 72.9831314086914 150.7510986328125 77.89197540283203 147.51388549804688 77.79434204101562 152.10604858398438" stroke-width="3.0" fill="none" stroke="rgb(0, 0, 0)" stroke-opacity="1.0" stroke-linecap="round" stroke-linejoin="round"/>
    <path d="M 171.54736328125 91.50785064697266 C 184.43063354492188 77.2970962524414 172.67054748535156 88.55469512939453 151.52833557128906 87.97649383544922" stroke-width="3.0" fill="none" stroke="rgb(0, 0, 0)" stroke-opacity="1.0" stroke-linecap="round" stroke-linejoin="round"/>
    <path d="M 158.08941650390625 101.84857940673828 C 173.51614379882812 99.0311508178711 162.308837890625 96.85932159423828 177.61312866210938 102.4386978149414" stroke-width="3.0" fill="none" stroke="rgb(0, 0, 0)" stroke-opacity="1.0" stroke-linecap="round" stroke-linejoin="round"/>
    <path d="M 77.32926177978516 171.65231323242188 C 81.18389892578125 183.13433837890625 90.84748840332031 183.81422424316406 93.57866668701172 190.67005920410156" stroke-width="3.0" fill="none" stroke="rgb(0, 0, 0)" stroke-opacity="1.0" stroke-linecap="round" stroke-linejoin="round"/>
    <path d="M 175.83282470703125 9.965792655944824 C 184.59780883789062 -4.610500812530518 186.66688537597656 24.895030975341797 179.6234130859375 52.72161102294922" stroke-width="3.0" fill="none" stroke="rgb(0, 0, 0)" stroke-opacity="1.0" stroke-linecap="round" stroke-linejoin="round"/>
    <path d="M 126.98873901367188 35.87459182739258 C 123.02610778808594 48.20813751220703 123.80007934570312 44.50782775878906 125.28390502929688 51.859703063964844" stroke-width="3.0" fill="none" stroke="rgb(0, 0, 0)" stroke-opacity="1.0" stroke-linecap="round" stroke-linejoin="round"/>
    <path d="M 88.96601104736328 52.90119934082031 C 76.2308578491211 -14.01708698272705 84.80769348144531 2.848299264907837 96.04295349121094 43.92442321777344" stroke-width="3.0" fill="none" stroke="rgb(0, 0, 0)" stroke-opacity="1.0" stroke-linecap="round" stroke-linejoin="round"/>
    <path d="M 52.79092788696289 169.75950622558594 C 42.51118469238281 146.85134887695312 48.46923065185547 161.21250915527344 46.82426071166992 159.54051208496094" stroke-width="3.0" fill="none" stroke="rgb(0, 0, 0)" stroke-opacity="1.0" stroke-linecap="round" stroke-linejoin="round"/>
    <path d="M 41.881591796875 134.5059051513672 C 44.450721740722656 133.46621704101562 36.879032135009766 141.85328674316406 37.22211837768555 144.57508850097656" stroke-width="3.0" fill="none" stroke="rgb(0, 0, 0)" stroke-opacity="1.0" stroke-linecap="round" stroke-linejoin="round"/>
    <path d="M 74.04817199707031 164.0233154296875 C 74.8283920288086 165.97293090820312 77.42682647705078 166.25633239746094 77.40174865722656 170.7527618408203" stroke-width="3.0" fill="none" stroke="rgb(0, 0, 0)" stroke-opacity="1.0" stroke-linecap="round" stroke-linejoin="round"/>
    <path d="M 73.63249206542969 190.261962890625 C 55.98286437988281 174.1192626953125 73.72023010253906 193.13294982910156 60.43879699707031 177.35015869140625" stroke-width="3.0" fill="none" stroke="rgb(0, 0, 0)" stroke-opacity="1.0" stroke-linecap="round" stroke-linejoin="round"/>
    <path d="M 44.81674575805664 161.0064239501953 C 51.17777633666992 161.51168823242188 37.7140998840332 150.0421905517578 41.2613525390625 150.11431884765625" stroke-width="3.0" fill="none" stroke="rgb(0, 0, 0)" stroke-opacity="1.0" stroke-linecap="round" stroke-linejoin="round"/>
    <path d="M 63.52589416503906 59.217247009277344 C 50.26356887817383 77.21292114257812 57.23775863647461 73.90032196044922 40.921836853027344 109.58519744873047" stroke-width="3.0" fill="none" stroke="rgb(0, 0, 0)" stroke-opacity="1.0" stroke-linecap="round" stroke-linejoin="round"/>
    <path d="M 139.00254821777344 157.29843139648438 C 124.9640884399414 161.17572021484375 127.33917999267578 151.97496032714844 142.17623901367188 165.3116455078125" stroke-width="3.0" fill="none" stroke="rgb(0, 0, 0)" stroke-opacity="1.0" stroke-linecap="round" stroke-linejoin="round"/>
    <path d="M 140.08421325683594 35.72502899169922 C 147.59764099121094 56.66672897338867 137.357666015625 58.48611831665039 140.64129638671875 74.27618408203125" stroke-width="3.0" fill="none" stroke="rgb(0, 0, 0)" stroke-opacity="1.0" stroke-linecap="round" stroke-linejoin="round"/>
    <path d="M 147.07615661621094 102.07685852050781 C 129.6663360595703 109.17253112792969 114.65524291992188 106.58919525146484 127.6806411743164 110.22905731201172" stroke-width="3.0" fill="none" stroke="rgb(0, 0, 0)" stroke-opacity="1.0" stroke-linecap="round" stroke-linejoin="round"/>
    <path d="M 144.5130157470703 70.71382141113281 C 144.85556030273438 59.03309631347656 155.8308868408203 51.11141586303711 151.75595092773438 55.77434539794922" stroke-width="3.0" fill="none" stroke="rgb(0, 0, 0)" stroke-opacity="1.0" stroke-linecap="round" stroke-linejoin="round"/>
    <path d="M 107.9050064086914 192.32571411132812 C 79.32123565673828 179.58706665039062 87.41062927246094 195.373046875 134.3454132080078 187.52093505859375" stroke-width="3.0" fill="none" stroke="rgb(0, 0, 0)" stroke-opacity="1.0" stroke-linecap="round" stroke-linejoin="round"/>
    <path d="M 178.34307861328125 86.22563934326172 C 175.06271362304688 79.27887725830078 174.68531799316406 94.5762939453125 179.35934448242188 85.70562744140625" stroke-width="3.0" fill="none" stroke="rgb(0, 0, 0)" stroke-opacity="1.0" stroke-linecap="round" stroke-linejoin="round"/>
    <path d="M 171.93589782714844 84.21959686279297 C 182.21658325195312 82.78448486328125 188.8714141845703 89.68917846679688 171.0796356201172 91.39627838134766" stroke-width="3.0" fill="none" stroke="rgb(0, 0, 0)" stroke-opacity="1.0" stroke-linecap="round" stroke-linejoin="round"/>
    <path d="M 111.44561004638672 77.68753051757812 C 92.91343688964844 69.3830337524414 136.3241424560547 71.234375 108.50126647949219 79.17285919189453" stroke-width="3.0" fill="none" stroke="rgb(0, 0, 0)" stroke-opacity="1.0" stroke-linecap="round" stroke-linejoin="round"/>
    <path d="M 131.23988342285156 152.65240478515625 C 132.7812042236328 150.1335906982422 129.06825256347656 155.97605895996094 127.43860626220703 154.9451446533203" stroke-width="3.0" fill="none" stroke="rgb(0, 0, 0)" stroke-opacity="1.0" stroke-linecap="round" stroke-linejoin="round"/>
    <path d="M 124.91617584228516 87.65499877929688 C 142.3362579345703 96.4769515991211 132.31117248535156 77.7888412475586 129.4022216796875 95.9727783203125" stroke-width="3.0" fill="none" stroke="rgb(0, 0, 0)" stroke-opacity="1.0" stroke-linecap="round" stroke-linejoin="round"/>
    <path d="M 181.92149353027344 98.51817321777344 C 174.50537109375 90.78597259521484 184.45797729492188 102.4670181274414 148.2623291015625 91.87183380126953" stroke-width="3.0" fill="none" stroke="rgb(0, 0, 0)" stroke-opacity="1.0" stroke-linecap="round" stroke-linejoin="round"/>
    <path d="M 86.09825897216797 8.295748710632324 C 109.72722625732422 16.499109268188477 113.63312530517578 33.83076095581055 120.11337280273438 34.69636154174805" stroke-width="3.0" fill="none" stroke="rgb(0, 0, 0)" stroke-opacity="1.0" stroke-linecap="round" stroke-linejoin="round"/>
    <path d="M 54.51102828979492 109.43588256835938 C 52.275123596191406 109.19487762451172 65.62149047851562 116.40232849121094 55.86867904663086 110.99940490722656" stroke-width="3.0" fill="none" stroke="rgb(0, 0, 0)" stroke-opacity="1.0" stroke-linecap="round" stroke-linejoin="round"/>
    <path d="M 122.31343841552734 100.5545654296875 C 99.2822494506836 95.65953063964844 130.39878845214844 99.1944808959961 108.05609893798828 94.80602264404297" stroke-width="3.0" fill="none" stroke="rgb(0, 0, 0)" stroke-opacity="1.0" stroke-linecap="round" stroke-linejoin="round"/>
    <path d="M 37.71104431152344 122.4345474243164 C 41.51982879638672 97.18790435791016 48.28464889526367 104.64348602294922 40.55423355102539 111.1788330078125" stroke-width="3.0" fill="none" stroke="rgb(0, 0, 0)" stroke-opacity="1.0" stroke-linecap="round" stroke-linejoin="round"/>
    <path d="M 84.35492706298828 185.79129028320312 C 76.376953125 188.98081970214844 75.46044158935547 195.07383728027344 86.81707763671875 182.1742706298828" stroke-width="3.0" fill="none" stroke="rgb(0, 0, 0)" stroke-opacity="1.0" stroke-linecap="round" stroke-linejoin="round"/>
    <path d="M 177.47317504882812 132.646728515625 C 189.5587921142578 110.54029846191406 165.58700561523438 103.37801361083984 146.6097412109375 98.43425750732422" stroke-width="3.0" fill="none" stroke="rgb(0, 0, 0)" stroke-opacity="1.0" stroke-linecap="round" stroke-linejoin="round"/>
    <path d="M 144.948486328125 79.65885925292969 C 146.91595458984375 70.36181640625 138.2300262451172 95.17839050292969 148.16600036621094 78.17533111572266" stroke-width="3.0" fill="none" stroke="rgb(0, 0, 0)" stroke-opacity="1.0" stroke-linecap="round" stroke-linejoin="round"/>
    <path d="M 159.5330047607422 71.21367645263672 C 168.1624755859375 70.46337890625 176.864990234375 74.4962158203125 182.61941528320312 72.62175750732422" stroke-width="3.0" fill="none" stroke="rgb(0, 0, 0)" stroke-opacity="1.0" stroke-linecap="round" stroke-linejoin="round"/>
    <path d="M 149.15455627441406 105.82164764404297 C 155.7272186279297 101.74766540527344 163.11155700683594 106.06362915039062 171.8594207763672 122.43029022216797" stroke-width="3.0" fill="none" stroke="rgb(0, 0, 0)" stroke-opacity="1.0" stroke-linecap="round" stroke-linejoin="round"/>
    <path d="M 172.32510375976562 20.321998596191406 C 164.17466735839844 43.04369354248047 163.0204620361328 27.96916961669922 166.0114288330078 44.068443298339844" stroke-width="3.0" fill="none" stroke="rgb(0, 0, 0)" stroke-opacity="1.0" stroke-linecap="round" stroke-linejoin="round"/>
    <path d="M 123.50067901611328 108.36573791503906 C 153.3527069091797 113.54830932617188 124.40323638916016 93.65355682373047 118.315185546875 107.05286407470703" stroke-width="3.0" fill="none" stroke="rgb(0, 0, 0)" stroke-opacity="1.0" stroke-linecap="round" stroke-linejoin="round"/>
    <path d="M 57.225643157958984 112.73564910888672 C 60.932369232177734 108.08026885986328 49.14426040649414 106.37934875488281 62.32368850708008 128.34165954589844" stroke-width="3.0" fill="none" stroke="rgb(0, 0, 0)" stroke-opacity="1.0" stroke-linecap="round" stroke-linejoin="round"/>
    <path d="M 120.85359954833984 79.2281494140625 C 126.71747589111328 56.49550247192383 117.33211517333984 54.404354095458984 117.93980407714844 43.957427978515625" stroke-width="3.0" fill="none" stroke="rgb(0, 0, 0)" stroke-opacity="1.0" stroke-linecap="round" stroke-linejoin="round"/>
    <path d="M 147.14353942871094 33.8157844543457 C 157.8194580078125 26.19951629638672 153.459716796875 19.869518280029297 176.69113159179688 8.066688537597656" stroke-width="3.0" fill="none" stroke="rgb(0, 0, 0)" stroke-opacity="1.0" stroke-linecap="round" stroke-linejoin="round"/>
  </g>
</svg>
