<?xml version="1.0" ?>
<svg xmlns="http://www.w3.org/2000/svg" version="1.1" width="224" height="224">
  <defs/>
  <g>
    <path d="M 64.77671813964844 91.98343658447266 C 86.73841857910156 82.43145751953125 67.83883666992188 85.40830993652344 82.14754486083984 59.830970764160156" stroke-width="3.0" fill="none" stroke="rgb(0, 0, 0)" stroke-opacity="1.0" stroke-linecap="round" stroke-linejoin="round"/>
    <path d="M 196.61749267578125 113.84330749511719 C 183.3573760986328 96.82099151611328 190.3783416748047 96.98967742919922 177.8523712158203 128.59097290039062" stroke-width="3.0" fill="none" stroke="rgb(0, 0, 0)" stroke-opacity="1.0" stroke-linecap="round" stroke-linejoin="round"/>
    <path d="M 60.85615539550781 112.86076354980469 C 53.233646392822266 89.69419860839844 56.66353225708008 115.37517547607422 61.812828063964844 109.65013885498047" stroke-width="3.0" fill="none" stroke="rgb(0, 0, 0)" stroke-opacity="1.0" stroke-linecap="round" stroke-linejoin="round"/>
    <path d="M 186.98355102539062 92.48473358154297 C 144.77171325683594 76.33724975585938 180.8091278076172 77.42912292480469 188.5941619873047 100.34629821777344" stroke-width="3.0" fill="none" stroke="rgb(0, 0, 0)" stroke-opacity="1.0" stroke-linecap="round" stroke-linejoin="round"/>
    <path d="M 175.3666229248047 58.78316116333008 C 194.45498657226562 89.77227783203125 183.2818603515625 100.40446472167969 179.82838439941406 46.779205322265625" stroke-width="3.0" fill="none" stroke="rgb(0, 0, 0)" stroke-opacity="1.0" stroke-linecap="round" stroke-linejoin="round"/>
    <path d="M 129.9545135498047 98.647705078125 C 155.6177215576172 107.79953002929688 95.78983306884766 100.6515884399414 136.5255584716797 100.7684326171875" stroke-width="3.0" fill="none" stroke="rgb(0, 0, 0)" stroke-opacity="1.0" stroke-linecap="round" stroke-linejoin="round"/>
    <path d="M 185.92446899414062 98.37557983398438 C 161.695556640625 92.60725402832031 200.76353454589844 71.59086608886719 152.8986358642578 85.6495590209961" stroke-width="3.0" fill="none" stroke="rgb(0, 0, 0)" stroke-opacity="1.0" stroke-linecap="round" stroke-linejoin="round"/>
    <path d="M 64.02129364013672 189.04959106445312 C 43.60968017578125 167.50770568847656 46.658538818359375 169.17295837402344 66.3056411743164 189.01588439941406" stroke-width="3.0" fill="none" stroke="rgb(0, 0, 0)" stroke-opacity="1.0" stroke-linecap="round" stroke-linejoin="round"/>
    <path d="M 57.57132339477539 185.55722045898438 C 90.13783264160156 213.17115783691406 137.7644500732422 195.0855255126953 134.97784423828125 158.7537384033203" stroke-width="3.0" fill="none" stroke="rgb(0, 0, 0)" stroke-opacity="1.0" stroke-linecap="round" stroke-linejoin="round"/>
    <path d="M 81.52069091796875 10.277227401733398 C 90.72716522216797 71.06404113769531 87.01927947998047 16.647319793701172 83.0227279663086 54.768882751464844" stroke-width="3.0" fill="none" stroke="rgb(0, 0, 0)" stroke-opacity="1.0" stroke-linecap="round" stroke-linejoin="round"/>
    <path d="M 68.46000671386719 91.88617706298828 C 42.6239013671875 121.13845825195312 75.46183776855469 127.62873077392578 59.8613166809082 117.93653869628906" stroke-width="3.0" fill="none" stroke="rgb(0, 0, 0)" stroke-opacity="1.0" stroke-linecap="round" stroke-linejoin="round"/>
    <path d="M 145.40663146972656 71.93773651123047 C 194.1262664794922 59.71206283569336 206.51695251464844 86.68144226074219 140.83067321777344 86.77722930908203" stroke-width="3.0" fill="none" stroke="rgb(0, 0, 0)" stroke-opacity="1.0" stroke-linecap="round" stroke-linejoin="round"/>
    <path d="M 151.1488037109375 93.68646240234375 C 185.6599578857422 98.70328521728516 180.63380432128906 107.96356964111328 189.09335327148438 111.40337371826172" stroke-width="3.0" fill="none" stroke="rgb(0, 0, 0)" stroke-opacity="1.0" stroke-linecap="round" stroke-linejoin="round"/>
    <path d="M 135.13232421875 145.37925720214844 C 178.12872314453125 154.49192810058594 91.98668670654297 148.5646209716797 92.989501953125 149.63671875" stroke-width="3.0" fill="none" stroke="rgb(0, 0, 0)" stroke-opacity="1.0" stroke-linecap="round" stroke-linejoin="round"/>
    <path d="M 179.65863037109375 7.026288032531738 C 190.01527404785156 22.734601974487305 165.12977600097656 94.73735046386719 179.27029418945312 60.30803298950195" stroke-width="3.0" fill="none" stroke="rgb(0, 0, 0)" stroke-opacity="1.0" stroke-linecap="round" stroke-linejoin="round"/>
    <path d="M 150.03318786621094 27.42702865600586 C 104.2337875366211 34.31966018676758 135.05422973632812 18.75240135192871 125.5462646484375 65.04901123046875" stroke-width="3.0" fill="none" stroke="rgb(0, 0, 0)" stroke-opacity="1.0" stroke-linecap="round" stroke-linejoin="round"/>
    <path d="M 108.63973236083984 47.59046936035156 C 60.98295211791992 -6.674055099487305 84.03468322753906 0.3652932047843933 119.28471374511719 31.026071548461914" stroke-width="3.0" fill="none" stroke="rgb(0, 0, 0)" stroke-opacity="1.0" stroke-linecap="round" stroke-linejoin="round"/>
    <path d="M 44.30084991455078 162.35943603515625 C 43.9277229309082 159.80067443847656 40.76655578613281 157.80731201171875 54.86092758178711 180.62779235839844" stroke-width="3.0" fill="none" stroke="rgb(0, 0, 0)" stroke-opacity="1.0" stroke-linecap="round" stroke-linejoin="round"/>
    <path d="M 63.2521858215332 73.02642059326172 C 15.554062843322754 126.15219116210938 36.45021057128906 140.88059997558594 44.04322052001953 163.81324768066406" stroke-width="3.0" fill="none" stroke="rgb(0, 0, 0)" stroke-opacity="1.0" stroke-linecap="round" stroke-linejoin="round"/>
    <path d="M 71.62046813964844 135.1629180908203 C 147.7411346435547 167.4702911376953 121.11073303222656 148.72341918945312 87.49253845214844 145.48057556152344" stroke-width="3.0" fill="none" stroke="rgb(0, 0, 0)" stroke-opacity="1.0" stroke-linecap="round" stroke-linejoin="round"/>
    <path d="M 86.51627349853516 199.57705688476562 C 69.46339416503906 198.59390258789062 49.83063888549805 174.84317016601562 39.81573486328125 147.9542999267578" stroke-width="3.0" fill="none" stroke="rgb(0, 0, 0)" stroke-opacity="1.0" stroke-linecap="round" stroke-linejoin="round"/>
    <path d="M 51.02204513549805 169.8742218017578 C 72.4111328125 196.4370574951172 45.98292922973633 182.90818786621094 42.549686431884766 155.0601043701172" stroke-width="3.0" fill="none" stroke="rgb(0, 0, 0)" stroke-opacity="1.0" stroke-linecap="round" stroke-linejoin="round"/>
    <path d="M 82.72389221191406 57.08745193481445 C 65.25794219970703 60.1035270690918 60.28862380981445 66.65225219726562 36.51483917236328 112.02205657958984" stroke-width="3.0" fill="none" stroke="rgb(0, 0, 0)" stroke-opacity="1.0" stroke-linecap="round" stroke-linejoin="round"/>
    <path d="M 148.008544921875 147.54534912109375 C 109.50926208496094 157.84381103515625 58.19464874267578 149.53677368164062 146.00360107421875 147.54837036132812" stroke-width="3.0" fill="none" stroke="rgb(0, 0, 0)" stroke-opacity="1.0" stroke-linecap="round" stroke-linejoin="round"/>
    <path d="M 148.16983032226562 28.674829483032227 C 140.97140502929688 35.176822662353516 141.6798095703125 9.461160659790039 135.7921142578125 75.4922103881836" stroke-width="3.0" fill="none" stroke="rgb(0, 0, 0)" stroke-opacity="1.0" stroke-linecap="round" stroke-linejoin="round"/>
    <path d="M 146.01219177246094 96.52640533447266 C 127.30989837646484 110.34210205078125 120.77640533447266 102.77741241455078 122.654052734375 103.25675964355469" stroke-width="3.0" fill="none" stroke="rgb(0, 0, 0)" stroke-opacity="1.0" stroke-linecap="round" stroke-linejoin="round"/>
    <path d="M 136.90391540527344 72.06542205810547 C 142.73602294921875 52.10695266723633 132.51007080078125 60.349342346191406 135.56851196289062 70.70516967773438" stroke-width="3.0" fill="none" stroke="rgb(0, 0, 0)" stroke-opacity="1.0" stroke-linecap="round" stroke-linejoin="round"/>
    <path d="M 141.9681396484375 155.6873016357422 C 131.53163146972656 165.70648193359375 139.16070556640625 161.92901611328125 153.02914428710938 142.68826293945312" stroke-width="3.0" fill="none" stroke="rgb(0, 0, 0)" stroke-opacity="1.0" stroke-linecap="round" stroke-linejoin="round"/>
    <path d="M 194.5789031982422 96.90818786621094 C 161.40118408203125 72.85797119140625 189.4766387939453 61.15519332885742 178.36309814453125 97.07781219482422" stroke-width="3.0" fill="none" stroke="rgb(0, 0, 0)" stroke-opacity="1.0" stroke-linecap="round" stroke-linejoin="round"/>
    <path d="M 154.69528198242188 77.26067352294922 C 119.23685455322266 56.578460693359375 203.97549438476562 92.5564193725586 180.42283630371094 61.977542877197266" stroke-width="3.0" fill="none" stroke="rgb(0, 0, 0)" stroke-opacity="1.0" stroke-linecap="round" stroke-linejoin="round"/>
    <path d="M 116.14347076416016 83.46306610107422 C 87.97355651855469 74.09082794189453 139.251708984375 75.76771545410156 108.49446105957031 84.69270324707031" stroke-width="3.0" fill="none" stroke="rgb(0, 0, 0)" stroke-opacity="1.0" stroke-linecap="round" stroke-linejoin="round"/>
    <path d="M 167.72425842285156 133.08294677734375 C 158.5853729248047 155.0633087158203 88.54376983642578 147.01588439941406 91.7667236328125 143.61776733398438" stroke-width="3.0" fill="none" stroke="rgb(0, 0, 0)" stroke-opacity="1.0" stroke-linecap="round" stroke-linejoin="round"/>
    <path d="M 121.91825103759766 91.2984390258789 C 142.88284301757812 98.6144027709961 128.16970825195312 72.69778442382812 128.79180908203125 105.56694030761719" stroke-width="3.0" fill="none" stroke="rgb(0, 0, 0)" stroke-opacity="1.0" stroke-linecap="round" stroke-linejoin="round"/>
    <path d="M 187.0375213623047 109.34378814697266 C 172.10647583007812 89.69737243652344 169.1905975341797 94.59213256835938 141.0825958251953 81.15151977539062" stroke-width="3.0" fill="none" stroke="rgb(0, 0, 0)" stroke-opacity="1.0" stroke-linecap="round" stroke-linejoin="round"/>
    <path d="M 93.51228332519531 24.450544357299805 C 127.026611328125 28.660614013671875 85.8141098022461 31.047075271606445 146.56344604492188 29.14265251159668" stroke-width="3.0" fill="none" stroke="rgb(0, 0, 0)" stroke-opacity="1.0" stroke-linecap="round" stroke-linejoin="round"/>
    <path d="M 57.44621276855469 103.16875457763672 C 58.953369140625 96.62995910644531 49.73420715332031 119.33995056152344 73.97773742675781 137.50152587890625" stroke-width="3.0" fill="none" stroke="rgb(0, 0, 0)" stroke-opacity="1.0" stroke-linecap="round" stroke-linejoin="round"/>
    <path d="M 128.96487426757812 108.09657287597656 C 133.70436096191406 89.75594329833984 123.74739837646484 119.737548828125 111.48260498046875 91.2361831665039" stroke-width="3.0" fill="none" stroke="rgb(0, 0, 0)" stroke-opacity="1.0" stroke-linecap="round" stroke-linejoin="round"/>
    <path d="M 40.30459213256836 149.77731323242188 C 17.838321685791016 124.0547103881836 42.483009338378906 70.11953735351562 72.67959594726562 60.45866012573242" stroke-width="3.0" fill="none" stroke="rgb(0, 0, 0)" stroke-opacity="1.0" stroke-linecap="round" stroke-linejoin="round"/>
    <path d="M 110.9198226928711 195.8822479248047 C 90.48511505126953 201.14141845703125 95.74030303955078 200.90171813964844 105.55172729492188 197.65426635742188" stroke-width="3.0" fill="none" stroke="rgb(0, 0, 0)" stroke-opacity="1.0" stroke-linecap="round" stroke-linejoin="round"/>
    <path d="M 169.19932556152344 131.8688507080078 C 194.54843139648438 113.06385040283203 191.7678985595703 85.18636322021484 156.11512756347656 88.4038314819336" stroke-width="3.0" fill="none" stroke="rgb(0, 0, 0)" stroke-opacity="1.0" stroke-linecap="round" stroke-linejoin="round"/>
    <path d="M 157.86387634277344 70.7464599609375 C 131.72860717773438 81.3324966430664 168.47006225585938 82.88939666748047 154.02285766601562 73.6118392944336" stroke-width="3.0" fill="none" stroke="rgb(0, 0, 0)" stroke-opacity="1.0" stroke-linecap="round" stroke-linejoin="round"/>
    <path d="M 140.02163696289062 78.88080596923828 C 149.56631469726562 42.328041076660156 199.04803466796875 119.84745025634766 176.92474365234375 36.060054779052734" stroke-width="3.0" fill="none" stroke="rgb(0, 0, 0)" stroke-opacity="1.0" stroke-linecap="round" stroke-linejoin="round"/>
    <path d="M 156.9410400390625 94.65833282470703 C 171.60792541503906 106.44803619384766 179.8753204345703 104.74866485595703 185.3448944091797 121.12890625" stroke-width="3.0" fill="none" stroke="rgb(0, 0, 0)" stroke-opacity="1.0" stroke-linecap="round" stroke-linejoin="round"/>
    <path d="M 176.6442108154297 17.160850524902344 C 167.351806640625 40.31622314453125 176.527587890625 17.654233932495117 158.64540100097656 36.393253326416016" stroke-width="3.0" fill="none" stroke="rgb(0, 0, 0)" stroke-opacity="1.0" stroke-linecap="round" stroke-linejoin="round"/>
    <path d="M 119.2990493774414 100.42707061767578 C 138.5847625732422 93.04853820800781 127.10282135009766 113.80672454833984 134.86468505859375 101.46094512939453" stroke-width="3.0" fill="none" stroke="rgb(0, 0, 0)" stroke-opacity="1.0" stroke-linecap="round" stroke-linejoin="round"/>
    <path d="M 64.22399139404297 97.90475463867188 C 49.444862365722656 104.98712158203125 57.728267669677734 112.53912353515625 62.9761962890625 103.81745910644531" stroke-width="3.0" fill="none" stroke="rgb(0, 0, 0)" stroke-opacity="1.0" stroke-linecap="round" stroke-linejoin="round"/>
    <path d="M 123.28849792480469 76.72020721435547 C 126.81244659423828 41.09181594848633 114.78890228271484 53.10346603393555 118.77729797363281 34.45928955078125" stroke-width="3.0" fill="none" stroke="rgb(0, 0, 0)" stroke-opacity="1.0" stroke-linecap="round" stroke-linejoin="round"/>
    <path d="M 143.3759002685547 29.94013214111328 C 142.958740234375 41.583282470703125 153.7984161376953 11.151057243347168 178.03585815429688 6.101879596710205" stroke-width="3.0" fill="none" stroke="rgb(0, 0, 0)" stroke-opacity="1.0" stroke-linecap="round" stroke-linejoin="round"/>
  </g>
</svg>
