<?xml version="1.0" ?>
<svg xmlns="http://www.w3.org/2000/svg" version="1.1" width="224" height="224">
  <defs/>
  <g>
    <path d="M 97.16264343261719 101.37890625 C 118.16983795166016 104.16746520996094 119.24278259277344 122.72198486328125 117.22815704345703 133.18431091308594" stroke-width="3.0" fill="none" stroke="rgb(0, 0, 0)" stroke-opacity="1.0" stroke-linecap="round" stroke-linejoin="round"/>
    <path d="M 61.7452278137207 129.55743408203125 C 94.15876770019531 146.1046905517578 82.69186401367188 136.99017333984375 65.99134826660156 140.60955810546875" stroke-width="3.0" fill="none" stroke="rgb(0, 0, 0)" stroke-opacity="1.0" stroke-linecap="round" stroke-linejoin="round"/>
    <path d="M 44.874107360839844 120.85725402832031 C 0.08517652750015259 120.20958709716797 28.350521087646484 124.26361846923828 82.57599639892578 131.92283630371094" stroke-width="3.0" fill="none" stroke="rgb(0, 0, 0)" stroke-opacity="1.0" stroke-linecap="round" stroke-linejoin="round"/>
    <path d="M 30.44384765625 117.05915832519531 C 94.29181671142578 123.73698425292969 90.9546890258789 133.04823303222656 77.64091491699219 109.52889251708984" stroke-width="3.0" fill="none" stroke="rgb(0, 0, 0)" stroke-opacity="1.0" stroke-linecap="round" stroke-linejoin="round"/>
    <path d="M 97.7109146118164 95.10424041748047 C 187.13796997070312 120.95156860351562 171.86923217773438 109.27332305908203 94.0001449584961 91.95542907714844" stroke-width="3.0" fill="none" stroke="rgb(0, 0, 0)" stroke-opacity="1.0" stroke-linecap="round" stroke-linejoin="round"/>
    <path d="M 172.5803680419922 130.25753784179688 C 183.71022033691406 104.46064758300781 181.31004333496094 119.09476470947266 145.56173706054688 111.81074523925781" stroke-width="3.0" fill="none" stroke="rgb(0, 0, 0)" stroke-opacity="1.0" stroke-linecap="round" stroke-linejoin="round"/>
    <path d="M 67.94232177734375 104.46647644042969 C 113.18702697753906 99.31011199951172 105.75894927978516 99.48656463623047 49.1603889465332 97.48090362548828" stroke-width="3.0" fill="none" stroke="rgb(0, 0, 0)" stroke-opacity="1.0" stroke-linecap="round" stroke-linejoin="round"/>
    <path d="M 84.88116455078125 140.46498107910156 C 93.30754089355469 150.47415161132812 82.04854583740234 126.62738037109375 27.7110595703125 133.685302734375" stroke-width="3.0" fill="none" stroke="rgb(0, 0, 0)" stroke-opacity="1.0" stroke-linecap="round" stroke-linejoin="round"/>
    <path d="M 140.16635131835938 205.61708068847656 C 183.28726196289062 189.85926818847656 166.43838500976562 192.73794555664062 179.39198303222656 186.4007110595703" stroke-width="3.0" fill="none" stroke="rgb(0, 0, 0)" stroke-opacity="1.0" stroke-linecap="round" stroke-linejoin="round"/>
    <path d="M 158.56439208984375 108.6568374633789 C 173.89886474609375 111.64740753173828 178.90708923339844 107.54878234863281 197.1999053955078 113.97274780273438" stroke-width="3.0" fill="none" stroke="rgb(0, 0, 0)" stroke-opacity="1.0" stroke-linecap="round" stroke-linejoin="round"/>
    <path d="M 108.8810806274414 105.69306182861328 C 128.40399169921875 115.8349838256836 114.02691650390625 146.50767517089844 133.57119750976562 136.9852294921875" stroke-width="3.0" fill="none" stroke="rgb(0, 0, 0)" stroke-opacity="1.0" stroke-linecap="round" stroke-linejoin="round"/>
    <path d="M 30.86317253112793 100.32556915283203 C 102.9007568359375 109.31909942626953 77.94757843017578 97.21025085449219 42.07352828979492 101.64608764648438" stroke-width="3.0" fill="none" stroke="rgb(0, 0, 0)" stroke-opacity="1.0" stroke-linecap="round" stroke-linejoin="round"/>
    <path d="M 170.34561157226562 114.28565979003906 C 130.45953369140625 115.9607925415039 159.78036499023438 113.98614501953125 132.54835510253906 105.09122467041016" stroke-width="3.0" fill="none" stroke="rgb(0, 0, 0)" stroke-opacity="1.0" stroke-linecap="round" stroke-linejoin="round"/>
    <path d="M 103.22038269042969 188.1455841064453 C 103.15771484375 188.1729278564453 109.92472076416016 192.43936157226562 108.407958984375 192.22938537597656" stroke-width="3.0" fill="none" stroke="rgb(0, 0, 0)" stroke-opacity="1.0" stroke-linecap="round" stroke-linejoin="round"/>
    <path d="M 173.60496520996094 25.309036254882812 C 185.6156005859375 33.198734283447266 226.6907501220703 74.41362762451172 216.20852661132812 126.81987762451172" stroke-width="3.0" fill="none" stroke="rgb(0, 0, 0)" stroke-opacity="1.0" stroke-linecap="round" stroke-linejoin="round"/>
    <path d="M 106.6903305053711 83.55668640136719 C 142.83169555664062 81.22593688964844 138.27584838867188 80.65031433105469 129.37474060058594 96.69893646240234" stroke-width="3.0" fill="none" stroke="rgb(0, 0, 0)" stroke-opacity="1.0" stroke-linecap="round" stroke-linejoin="round"/>
    <path d="M 60.8891487121582 20.625097274780273 C 121.17691802978516 -10.426618576049805 166.75726318359375 19.98906135559082 184.0982208251953 33.57038497924805" stroke-width="3.0" fill="none" stroke="rgb(0, 0, 0)" stroke-opacity="1.0" stroke-linecap="round" stroke-linejoin="round"/>
    <path d="M 136.58273315429688 134.89561462402344 C 130.85958862304688 149.5485076904297 121.49972534179688 129.7691650390625 127.23590850830078 134.81712341308594" stroke-width="3.0" fill="none" stroke="rgb(0, 0, 0)" stroke-opacity="1.0" stroke-linecap="round" stroke-linejoin="round"/>
    <path d="M 69.94837951660156 135.39517211914062 C 52.155914306640625 142.26904296875 76.33477783203125 149.04124450683594 29.020387649536133 145.04946899414062" stroke-width="3.0" fill="none" stroke="rgb(0, 0, 0)" stroke-opacity="1.0" stroke-linecap="round" stroke-linejoin="round"/>
    <path d="M 170.5452423095703 134.0066375732422 C 190.85043334960938 165.29275512695312 184.0904541015625 102.38731384277344 178.01425170898438 128.1014404296875" stroke-width="3.0" fill="none" stroke="rgb(0, 0, 0)" stroke-opacity="1.0" stroke-linecap="round" stroke-linejoin="round"/>
    <path d="M 137.93551635742188 206.74209594726562 C 108.08028411865234 190.6625518798828 98.76240539550781 188.81851196289062 117.21064758300781 194.13723754882812" stroke-width="3.0" fill="none" stroke="rgb(0, 0, 0)" stroke-opacity="1.0" stroke-linecap="round" stroke-linejoin="round"/>
    <path d="M 52.92702865600586 136.31781005859375 C 62.75581359863281 116.46369171142578 59.427490234375 132.97605895996094 29.137283325195312 121.16097259521484" stroke-width="3.0" fill="none" stroke="rgb(0, 0, 0)" stroke-opacity="1.0" stroke-linecap="round" stroke-linejoin="round"/>
    <path d="M 97.2228775024414 93.86509704589844 C 44.45264434814453 87.64443969726562 -8.569098472595215 101.92495727539062 53.6563720703125 105.96477508544922" stroke-width="3.0" fill="none" stroke="rgb(0, 0, 0)" stroke-opacity="1.0" stroke-linecap="round" stroke-linejoin="round"/>
    <path d="M 72.42936706542969 112.06695556640625 C 70.59639739990234 119.109130859375 86.10031127929688 107.06310272216797 56.33197784423828 110.64378356933594" stroke-width="3.0" fill="none" stroke="rgb(0, 0, 0)" stroke-opacity="1.0" stroke-linecap="round" stroke-linejoin="round"/>
    <path d="M 158.0223388671875 99.54224395751953 C 111.12906646728516 84.39423370361328 153.5029754638672 97.14390563964844 168.00277709960938 98.00619506835938" stroke-width="3.0" fill="none" stroke="rgb(0, 0, 0)" stroke-opacity="1.0" stroke-linecap="round" stroke-linejoin="round"/>
    <path d="M 92.8758316040039 110.71450805664062 C 72.94387817382812 133.3660125732422 96.57003784179688 150.76223754882812 82.9908447265625 140.72808837890625" stroke-width="3.0" fill="none" stroke="rgb(0, 0, 0)" stroke-opacity="1.0" stroke-linecap="round" stroke-linejoin="round"/>
    <path d="M 21.818603515625 61.799034118652344 C 18.482572555541992 71.33537292480469 14.482549667358398 75.49651336669922 11.64169692993164 108.77330780029297" stroke-width="3.0" fill="none" stroke="rgb(0, 0, 0)" stroke-opacity="1.0" stroke-linecap="round" stroke-linejoin="round"/>
    <path d="M 183.5539093017578 184.5208282470703 C 195.20101928710938 164.44252014160156 205.94967651367188 165.78919982910156 217.92449951171875 121.0343017578125" stroke-width="3.0" fill="none" stroke="rgb(0, 0, 0)" stroke-opacity="1.0" stroke-linecap="round" stroke-linejoin="round"/>
    <path d="M 148.3994598388672 115.35869598388672 C 212.671875 119.92839050292969 208.21853637695312 114.44024658203125 145.53517150878906 110.76720428466797" stroke-width="3.0" fill="none" stroke="rgb(0, 0, 0)" stroke-opacity="1.0" stroke-linecap="round" stroke-linejoin="round"/>
    <path d="M 146.79916381835938 97.51382446289062 C 211.2577362060547 115.23228454589844 179.07867431640625 101.0896224975586 170.26580810546875 132.935546875" stroke-width="3.0" fill="none" stroke="rgb(0, 0, 0)" stroke-opacity="1.0" stroke-linecap="round" stroke-linejoin="round"/>
    <path d="M 144.8153839111328 97.46092987060547 C 149.3094482421875 95.72103881835938 135.996337890625 115.72505950927734 140.36541748046875 83.69793701171875" stroke-width="3.0" fill="none" stroke="rgb(0, 0, 0)" stroke-opacity="1.0" stroke-linecap="round" stroke-linejoin="round"/>
    <path d="M 80.56257629394531 143.2103271484375 C 124.47430419921875 166.9537353515625 119.3203353881836 81.07991790771484 79.69165802001953 117.06476593017578" stroke-width="3.0" fill="none" stroke="rgb(0, 0, 0)" stroke-opacity="1.0" stroke-linecap="round" stroke-linejoin="round"/>
    <path d="M 193.64273071289062 115.32659149169922 C 198.7427520751953 111.42062377929688 179.0582733154297 128.71617126464844 192.46888732910156 126.72220611572266" stroke-width="3.0" fill="none" stroke="rgb(0, 0, 0)" stroke-opacity="1.0" stroke-linecap="round" stroke-linejoin="round"/>
    <path d="M 144.6405792236328 106.56301879882812 C 119.72474670410156 79.46968078613281 176.13739013671875 101.19136810302734 140.7445831298828 101.12592315673828" stroke-width="3.0" fill="none" stroke="rgb(0, 0, 0)" stroke-opacity="1.0" stroke-linecap="round" stroke-linejoin="round"/>
    <path d="M 65.89810180664062 22.356657028198242 C 79.44428253173828 30.427663803100586 70.56929016113281 21.23436737060547 62.54861068725586 20.243206024169922" stroke-width="3.0" fill="none" stroke="rgb(0, 0, 0)" stroke-opacity="1.0" stroke-linecap="round" stroke-linejoin="round"/>
    <path d="M 45.87739944458008 131.51348876953125 C 100.56190490722656 129.0775604248047 84.36107635498047 134.04891967773438 42.038597106933594 134.84756469726562" stroke-width="3.0" fill="none" stroke="rgb(0, 0, 0)" stroke-opacity="1.0" stroke-linecap="round" stroke-linejoin="round"/>
    <path d="M 175.13450622558594 139.38414001464844 C 160.51950073242188 103.11016845703125 200.93182373046875 113.12288665771484 184.8260955810547 142.4875030517578" stroke-width="3.0" fill="none" stroke="rgb(0, 0, 0)" stroke-opacity="1.0" stroke-linecap="round" stroke-linejoin="round"/>
    <path d="M 43.74452209472656 138.3429412841797 C 17.003231048583984 96.95310974121094 5.321033954620361 105.91046905517578 76.38825988769531 109.04829406738281" stroke-width="3.0" fill="none" stroke="rgb(0, 0, 0)" stroke-opacity="1.0" stroke-linecap="round" stroke-linejoin="round"/>
    <path d="M 45.138389587402344 188.3047637939453 C 75.38803100585938 207.03646850585938 56.32625198364258 197.32687377929688 96.38874053955078 208.3881072998047" stroke-width="3.0" fill="none" stroke="rgb(0, 0, 0)" stroke-opacity="1.0" stroke-linecap="round" stroke-linejoin="round"/>
    <path d="M 117.80848693847656 126.44367980957031 C 128.22962951660156 148.51145935058594 137.55860900878906 133.5477294921875 124.75715637207031 139.91915893554688" stroke-width="3.0" fill="none" stroke="rgb(0, 0, 0)" stroke-opacity="1.0" stroke-linecap="round" stroke-linejoin="round"/>
    <path d="M 152.92408752441406 111.20983123779297 C 151.6600799560547 101.54278564453125 124.38451385498047 105.98490905761719 180.5731201171875 107.44099426269531" stroke-width="3.0" fill="none" stroke="rgb(0, 0, 0)" stroke-opacity="1.0" stroke-linecap="round" stroke-linejoin="round"/>
    <path d="M 79.24896240234375 105.03409576416016 C 96.84239196777344 111.98094177246094 56.0307731628418 94.22760009765625 36.765316009521484 100.94979095458984" stroke-width="3.0" fill="none" stroke="rgb(0, 0, 0)" stroke-opacity="1.0" stroke-linecap="round" stroke-linejoin="round"/>
    <path d="M 24.8770751953125 117.2927474975586 C 81.73026275634766 116.51255798339844 79.11337280273438 123.32051849365234 91.0282211303711 110.59727478027344" stroke-width="3.0" fill="none" stroke="rgb(0, 0, 0)" stroke-opacity="1.0" stroke-linecap="round" stroke-linejoin="round"/>
    <path d="M 20.87284278869629 62.03683090209961 C 48.44060134887695 22.85488510131836 39.36066436767578 37.76716995239258 58.30609893798828 22.569473266601562" stroke-width="3.0" fill="none" stroke="rgb(0, 0, 0)" stroke-opacity="1.0" stroke-linecap="round" stroke-linejoin="round"/>
    <path d="M 175.12599182128906 133.38905334472656 C 158.53076171875 135.70343017578125 136.64463806152344 131.6765594482422 113.67362213134766 136.72398376464844" stroke-width="3.0" fill="none" stroke="rgb(0, 0, 0)" stroke-opacity="1.0" stroke-linecap="round" stroke-linejoin="round"/>
    <path d="M 42.47433853149414 131.10247802734375 C 49.78154754638672 148.71446228027344 81.30404663085938 139.03260803222656 27.687366485595703 121.99977111816406" stroke-width="3.0" fill="none" stroke="rgb(0, 0, 0)" stroke-opacity="1.0" stroke-linecap="round" stroke-linejoin="round"/>
    <path d="M 97.66686248779297 87.91558837890625 C 110.82701110839844 77.50633239746094 123.37255096435547 90.0291519165039 126.37336730957031 83.88977813720703" stroke-width="3.0" fill="none" stroke="rgb(0, 0, 0)" stroke-opacity="1.0" stroke-linecap="round" stroke-linejoin="round"/>
    <path d="M 163.4525604248047 98.12268829345703 C 174.88841247558594 89.46917724609375 142.43698120117188 82.63589477539062 130.71002197265625 84.00466918945312" stroke-width="3.0" fill="none" stroke="rgb(0, 0, 0)" stroke-opacity="1.0" stroke-linecap="round" stroke-linejoin="round"/>
  </g>
</svg>
