<?xml version="1.0" ?>
<svg xmlns="http://www.w3.org/2000/svg" version="1.1" width="224" height="224">
  <defs/>
  <g>
    <path d="M 99.68425750732422 101.52176666259766 C 122.84805297851562 100.94314575195312 118.65628814697266 117.088623046875 125.85916137695312 125.20801544189453" stroke-width="3.0" fill="none" stroke="rgb(0, 0, 0)" stroke-opacity="1.0" stroke-linecap="round" stroke-linejoin="round"/>
    <path d="M 55.310386657714844 143.2205352783203 C 81.72193908691406 146.85533142089844 76.44892120361328 143.9728546142578 67.4441146850586 140.3951416015625" stroke-width="3.0" fill="none" stroke="rgb(0, 0, 0)" stroke-opacity="1.0" stroke-linecap="round" stroke-linejoin="round"/>
    <path d="M 36.078529357910156 118.26636505126953 C 10.698054313659668 111.552001953125 32.52274703979492 137.41453552246094 76.04303741455078 139.45533752441406" stroke-width="3.0" fill="none" stroke="rgb(0, 0, 0)" stroke-opacity="1.0" stroke-linecap="round" stroke-linejoin="round"/>
    <path d="M 42.27915573120117 124.83395385742188 C 88.8464584350586 127.10436248779297 94.52642059326172 133.51504516601562 75.72747039794922 103.02011108398438" stroke-width="3.0" fill="none" stroke="rgb(0, 0, 0)" stroke-opacity="1.0" stroke-linecap="round" stroke-linejoin="round"/>
    <path d="M 120.00993347167969 104.8542251586914 C 187.55841064453125 115.54045104980469 174.9951171875 101.6278305053711 91.85403442382812 95.318115234375" stroke-width="3.0" fill="none" stroke="rgb(0, 0, 0)" stroke-opacity="1.0" stroke-linecap="round" stroke-linejoin="round"/>
    <path d="M 171.1294708251953 126.75718688964844 C 177.45394897460938 116.67523193359375 171.66043090820312 122.2193832397461 142.9327850341797 116.72888946533203" stroke-width="3.0" fill="none" stroke="rgb(0, 0, 0)" stroke-opacity="1.0" stroke-linecap="round" stroke-linejoin="round"/>
    <path d="M 79.1500015258789 101.3755111694336 C 118.87162780761719 99.23835754394531 110.19771575927734 102.2900390625 54.0014533996582 98.74203491210938" stroke-width="3.0" fill="none" stroke="rgb(0, 0, 0)" stroke-opacity="1.0" stroke-linecap="round" stroke-linejoin="round"/>
    <path d="M 78.9228744506836 132.37918090820312 C 96.96435546875 150.76055908203125 77.52873992919922 141.3231964111328 47.100894927978516 137.3785400390625" stroke-width="3.0" fill="none" stroke="rgb(0, 0, 0)" stroke-opacity="1.0" stroke-linecap="round" stroke-linejoin="round"/>
    <path d="M 167.72039794921875 188.17030334472656 C 175.6532440185547 193.4770965576172 166.19500732421875 191.0258331298828 177.6035919189453 186.66763305664062" stroke-width="3.0" fill="none" stroke="rgb(0, 0, 0)" stroke-opacity="1.0" stroke-linecap="round" stroke-linejoin="round"/>
    <path d="M 163.65838623046875 101.68646240234375 C 174.87045288085938 105.509033203125 177.82774353027344 105.68086242675781 199.31991577148438 112.48140716552734" stroke-width="3.0" fill="none" stroke="rgb(0, 0, 0)" stroke-opacity="1.0" stroke-linecap="round" stroke-linejoin="round"/>
    <path d="M 107.6811752319336 106.89647674560547 C 122.5792465209961 116.95445251464844 114.40657806396484 145.91741943359375 138.0850372314453 133.2504119873047" stroke-width="3.0" fill="none" stroke="rgb(0, 0, 0)" stroke-opacity="1.0" stroke-linecap="round" stroke-linejoin="round"/>
    <path d="M 29.56195068359375 102.46064758300781 C 100.052490234375 105.74121856689453 77.70531463623047 105.072998046875 50.993736267089844 115.86595153808594" stroke-width="3.0" fill="none" stroke="rgb(0, 0, 0)" stroke-opacity="1.0" stroke-linecap="round" stroke-linejoin="round"/>
    <path d="M 162.78140258789062 121.5361328125 C 129.61074829101562 116.0101318359375 150.47341918945312 126.42951965332031 143.2484588623047 112.49817657470703" stroke-width="3.0" fill="none" stroke="rgb(0, 0, 0)" stroke-opacity="1.0" stroke-linecap="round" stroke-linejoin="round"/>
    <path d="M 102.61131286621094 184.6021728515625 C 103.66453552246094 185.96331787109375 111.02544403076172 191.94387817382812 105.97654724121094 189.5931396484375" stroke-width="3.0" fill="none" stroke="rgb(0, 0, 0)" stroke-opacity="1.0" stroke-linecap="round" stroke-linejoin="round"/>
    <path d="M 170.5548553466797 22.99679183959961 C 187.6363067626953 33.473609924316406 218.63003540039062 67.23905181884766 219.80442810058594 113.7259521484375" stroke-width="3.0" fill="none" stroke="rgb(0, 0, 0)" stroke-opacity="1.0" stroke-linecap="round" stroke-linejoin="round"/>
    <path d="M 105.41566467285156 84.84171295166016 C 148.05776977539062 83.69939422607422 139.06515502929688 79.86712646484375 126.07396697998047 99.38178253173828" stroke-width="3.0" fill="none" stroke="rgb(0, 0, 0)" stroke-opacity="1.0" stroke-linecap="round" stroke-linejoin="round"/>
    <path d="M 72.50199890136719 15.224127769470215 C 138.6753387451172 -3.6793832778930664 164.8808135986328 18.42740249633789 183.8105010986328 32.506141662597656" stroke-width="3.0" fill="none" stroke="rgb(0, 0, 0)" stroke-opacity="1.0" stroke-linecap="round" stroke-linejoin="round"/>
    <path d="M 139.8440704345703 134.6044158935547 C 138.12738037109375 147.51812744140625 121.65986633300781 135.36053466796875 128.64454650878906 136.89564514160156" stroke-width="3.0" fill="none" stroke="rgb(0, 0, 0)" stroke-opacity="1.0" stroke-linecap="round" stroke-linejoin="round"/>
    <path d="M 74.85686492919922 134.49205017089844 C 48.46684646606445 138.63949584960938 63.38777160644531 146.22293090820312 30.696287155151367 140.34002685546875" stroke-width="3.0" fill="none" stroke="rgb(0, 0, 0)" stroke-opacity="1.0" stroke-linecap="round" stroke-linejoin="round"/>
    <path d="M 168.2135772705078 132.6477508544922 C 189.3723907470703 169.6026153564453 188.10629272460938 100.84687805175781 178.4774932861328 127.88123321533203" stroke-width="3.0" fill="none" stroke="rgb(0, 0, 0)" stroke-opacity="1.0" stroke-linecap="round" stroke-linejoin="round"/>
    <path d="M 127.79691314697266 197.96612548828125 C 100.8687744140625 188.00950622558594 96.78692626953125 189.2774658203125 112.22479248046875 192.97999572753906" stroke-width="3.0" fill="none" stroke="rgb(0, 0, 0)" stroke-opacity="1.0" stroke-linecap="round" stroke-linejoin="round"/>
    <path d="M 46.2331428527832 140.12353515625 C 57.725196838378906 123.60538482666016 54.155616760253906 131.10940551757812 26.865650177001953 125.37914276123047" stroke-width="3.0" fill="none" stroke="rgb(0, 0, 0)" stroke-opacity="1.0" stroke-linecap="round" stroke-linejoin="round"/>
    <path d="M 92.26139831542969 96.45536804199219 C 53.11927032470703 93.58470153808594 -13.455684661865234 102.08955383300781 57.93893051147461 101.26620483398438" stroke-width="3.0" fill="none" stroke="rgb(0, 0, 0)" stroke-opacity="1.0" stroke-linecap="round" stroke-linejoin="round"/>
    <path d="M 68.86750030517578 118.25767517089844 C 78.6469497680664 111.73689270019531 90.07219696044922 110.42086791992188 61.44585037231445 105.99093627929688" stroke-width="3.0" fill="none" stroke="rgb(0, 0, 0)" stroke-opacity="1.0" stroke-linecap="round" stroke-linejoin="round"/>
    <path d="M 147.55255126953125 101.20661163330078 C 113.01874542236328 89.77992248535156 151.49415588378906 107.45132446289062 169.199951171875 98.3471450805664" stroke-width="3.0" fill="none" stroke="rgb(0, 0, 0)" stroke-opacity="1.0" stroke-linecap="round" stroke-linejoin="round"/>
    <path d="M 95.18392944335938 108.80706787109375 C 70.063232421875 129.6542205810547 90.85826873779297 158.76568603515625 89.23665618896484 142.60719299316406" stroke-width="3.0" fill="none" stroke="rgb(0, 0, 0)" stroke-opacity="1.0" stroke-linecap="round" stroke-linejoin="round"/>
    <path d="M 15.595362663269043 77.08102416992188 C 16.86040687561035 71.86613464355469 14.66270637512207 76.3565673828125 6.0289740562438965 109.10881042480469" stroke-width="3.0" fill="none" stroke="rgb(0, 0, 0)" stroke-opacity="1.0" stroke-linecap="round" stroke-linejoin="round"/>
    <path d="M 180.3213653564453 184.09393310546875 C 192.1913604736328 160.41163635253906 192.73001098632812 177.13002014160156 209.79869079589844 143.5845184326172" stroke-width="3.0" fill="none" stroke="rgb(0, 0, 0)" stroke-opacity="1.0" stroke-linecap="round" stroke-linejoin="round"/>
    <path d="M 154.7038116455078 110.65010070800781 C 210.73370361328125 116.0157699584961 207.2840118408203 114.87409973144531 153.53770446777344 113.79137420654297" stroke-width="3.0" fill="none" stroke="rgb(0, 0, 0)" stroke-opacity="1.0" stroke-linecap="round" stroke-linejoin="round"/>
    <path d="M 153.2847137451172 103.76863098144531 C 203.6895294189453 116.43089294433594 186.00999450683594 98.3062744140625 168.21292114257812 130.56121826171875" stroke-width="3.0" fill="none" stroke="rgb(0, 0, 0)" stroke-opacity="1.0" stroke-linecap="round" stroke-linejoin="round"/>
    <path d="M 143.87705993652344 102.87853240966797 C 145.54971313476562 94.73538208007812 128.3961181640625 107.63159942626953 138.54672241210938 85.00117492675781" stroke-width="3.0" fill="none" stroke="rgb(0, 0, 0)" stroke-opacity="1.0" stroke-linecap="round" stroke-linejoin="round"/>
    <path d="M 86.36222076416016 143.90992736816406 C 120.42584991455078 159.58914184570312 110.2221450805664 88.5601806640625 84.78540802001953 115.79766845703125" stroke-width="3.0" fill="none" stroke="rgb(0, 0, 0)" stroke-opacity="1.0" stroke-linecap="round" stroke-linejoin="round"/>
    <path d="M 193.02220153808594 118.14031219482422 C 194.25967407226562 113.33516693115234 184.18980407714844 137.16969299316406 192.34088134765625 127.68096923828125" stroke-width="3.0" fill="none" stroke="rgb(0, 0, 0)" stroke-opacity="1.0" stroke-linecap="round" stroke-linejoin="round"/>
    <path d="M 150.62506103515625 116.34371948242188 C 138.93800354003906 96.1891860961914 179.70489501953125 97.08808135986328 142.62808227539062 96.89241027832031" stroke-width="3.0" fill="none" stroke="rgb(0, 0, 0)" stroke-opacity="1.0" stroke-linecap="round" stroke-linejoin="round"/>
    <path d="M 66.32935333251953 20.673978805541992 C 80.68038940429688 32.07709884643555 80.83855438232422 24.204784393310547 62.024261474609375 23.055906295776367" stroke-width="3.0" fill="none" stroke="rgb(0, 0, 0)" stroke-opacity="1.0" stroke-linecap="round" stroke-linejoin="round"/>
    <path d="M 39.43935012817383 140.53916931152344 C 80.27754211425781 134.71388244628906 72.22633361816406 138.40625 45.83941650390625 143.5478057861328" stroke-width="3.0" fill="none" stroke="rgb(0, 0, 0)" stroke-opacity="1.0" stroke-linecap="round" stroke-linejoin="round"/>
    <path d="M 174.27542114257812 139.24656677246094 C 164.26275634765625 105.46426391601562 199.17501831054688 108.34742736816406 185.43148803710938 136.89743041992188" stroke-width="3.0" fill="none" stroke="rgb(0, 0, 0)" stroke-opacity="1.0" stroke-linecap="round" stroke-linejoin="round"/>
    <path d="M 49.052650451660156 142.93186950683594 C 29.858646392822266 106.3176498413086 28.694738388061523 96.51183319091797 72.26996612548828 111.95084381103516" stroke-width="3.0" fill="none" stroke="rgb(0, 0, 0)" stroke-opacity="1.0" stroke-linecap="round" stroke-linejoin="round"/>
    <path d="M 52.91069412231445 188.19210815429688 C 70.80023193359375 203.0247344970703 60.38454055786133 195.8710174560547 96.05431365966797 209.32003784179688" stroke-width="3.0" fill="none" stroke="rgb(0, 0, 0)" stroke-opacity="1.0" stroke-linecap="round" stroke-linejoin="round"/>
    <path d="M 119.28801727294922 124.82935333251953 C 124.95677947998047 150.8976593017578 129.4928436279297 130.00953674316406 124.91169738769531 137.2456512451172" stroke-width="3.0" fill="none" stroke="rgb(0, 0, 0)" stroke-opacity="1.0" stroke-linecap="round" stroke-linejoin="round"/>
    <path d="M 152.39552307128906 111.59424591064453 C 156.3562469482422 114.33167266845703 133.02484130859375 115.78372955322266 178.74517822265625 116.56979370117188" stroke-width="3.0" fill="none" stroke="rgb(0, 0, 0)" stroke-opacity="1.0" stroke-linecap="round" stroke-linejoin="round"/>
    <path d="M 87.80350494384766 113.65347290039062 C 82.78507995605469 128.34927368164062 52.28114318847656 108.95256042480469 36.70393371582031 97.44535827636719" stroke-width="3.0" fill="none" stroke="rgb(0, 0, 0)" stroke-opacity="1.0" stroke-linecap="round" stroke-linejoin="round"/>
    <path d="M 27.57063865661621 113.07929229736328 C 73.69837951660156 117.22451782226562 76.63507843017578 118.15338897705078 83.05122375488281 100.74346160888672" stroke-width="3.0" fill="none" stroke="rgb(0, 0, 0)" stroke-opacity="1.0" stroke-linecap="round" stroke-linejoin="round"/>
    <path d="M 25.25053596496582 57.12459182739258 C 47.462066650390625 24.17992401123047 41.60814666748047 41.6899528503418 56.520179748535156 24.343076705932617" stroke-width="3.0" fill="none" stroke="rgb(0, 0, 0)" stroke-opacity="1.0" stroke-linecap="round" stroke-linejoin="round"/>
    <path d="M 172.2364044189453 134.79794311523438 C 153.7939910888672 134.96067810058594 145.6077423095703 133.67135620117188 114.3320083618164 133.33030700683594" stroke-width="3.0" fill="none" stroke="rgb(0, 0, 0)" stroke-opacity="1.0" stroke-linecap="round" stroke-linejoin="round"/>
    <path d="M 28.03719711303711 128.443603515625 C 47.840240478515625 133.0277557373047 70.2962875366211 130.04595947265625 20.507434844970703 122.91814422607422" stroke-width="3.0" fill="none" stroke="rgb(0, 0, 0)" stroke-opacity="1.0" stroke-linecap="round" stroke-linejoin="round"/>
    <path d="M 88.30615234375 92.86465454101562 C 119.83695220947266 76.89462280273438 120.20808410644531 86.14013671875 118.86465454101562 88.8161849975586" stroke-width="3.0" fill="none" stroke="rgb(0, 0, 0)" stroke-opacity="1.0" stroke-linecap="round" stroke-linejoin="round"/>
    <path d="M 168.91470336914062 98.53194427490234 C 167.64781188964844 87.90875244140625 141.806396484375 84.78018951416016 136.7790985107422 83.82176971435547" stroke-width="3.0" fill="none" stroke="rgb(0, 0, 0)" stroke-opacity="1.0" stroke-linecap="round" stroke-linejoin="round"/>
  </g>
</svg>
