<?xml version="1.0" ?>
<svg xmlns="http://www.w3.org/2000/svg" version="1.1" width="224" height="224">
  <defs/>
  <g>
    <path d="M 67.63652038574219 106.06455993652344 C 120.75177764892578 90.3339614868164 117.85454559326172 146.19851684570312 106.04023742675781 151.282958984375" stroke-width="3.0" fill="none" stroke="rgb(0, 0, 0)" stroke-opacity="1.0" stroke-linecap="round" stroke-linejoin="round"/>
    <path d="M 76.28083038330078 132.0644989013672 C 95.90745544433594 160.42572021484375 74.13331604003906 143.940673828125 77.3916015625 133.3277130126953" stroke-width="3.0" fill="none" stroke="rgb(0, 0, 0)" stroke-opacity="1.0" stroke-linecap="round" stroke-linejoin="round"/>
    <path d="M 57.4427604675293 133.7490692138672 C 9.57323932647705 111.94861602783203 12.01357364654541 122.99044799804688 81.47989654541016 127.66629791259766" stroke-width="3.0" fill="none" stroke="rgb(0, 0, 0)" stroke-opacity="1.0" stroke-linecap="round" stroke-linejoin="round"/>
    <path d="M 24.67272186279297 116.51242065429688 C 102.84854888916016 127.26521301269531 75.45256805419922 122.75251770019531 83.24040985107422 126.6238784790039" stroke-width="3.0" fill="none" stroke="rgb(0, 0, 0)" stroke-opacity="1.0" stroke-linecap="round" stroke-linejoin="round"/>
    <path d="M 80.42659759521484 93.78536224365234 C 195.97503662109375 106.6574935913086 181.02296447753906 103.53620910644531 96.05674743652344 88.68348693847656" stroke-width="3.0" fill="none" stroke="rgb(0, 0, 0)" stroke-opacity="1.0" stroke-linecap="round" stroke-linejoin="round"/>
    <path d="M 175.63510131835938 144.73851013183594 C 162.62799072265625 106.38843536376953 219.70803833007812 110.62625122070312 148.78302001953125 109.11944580078125" stroke-width="3.0" fill="none" stroke="rgb(0, 0, 0)" stroke-opacity="1.0" stroke-linecap="round" stroke-linejoin="round"/>
    <path d="M 27.505794525146484 101.04293823242188 C 146.67459106445312 83.8753662109375 142.12693786621094 79.24691009521484 28.66709327697754 96.36355590820312" stroke-width="3.0" fill="none" stroke="rgb(0, 0, 0)" stroke-opacity="1.0" stroke-linecap="round" stroke-linejoin="round"/>
    <path d="M 76.2499771118164 139.62582397460938 C 96.9354476928711 133.2605743408203 75.95121002197266 144.74676513671875 36.08088684082031 141.20559692382812" stroke-width="3.0" fill="none" stroke="rgb(0, 0, 0)" stroke-opacity="1.0" stroke-linecap="round" stroke-linejoin="round"/>
    <path d="M 119.88948059082031 210.61373901367188 C 188.00299072265625 192.7759246826172 141.89410400390625 200.9393310546875 176.28712463378906 195.11354064941406" stroke-width="3.0" fill="none" stroke="rgb(0, 0, 0)" stroke-opacity="1.0" stroke-linecap="round" stroke-linejoin="round"/>
    <path d="M 148.2660369873047 108.8567123413086 C 187.11512756347656 110.99169921875 189.67733764648438 125.08418273925781 189.27853393554688 115.60542297363281" stroke-width="3.0" fill="none" stroke="rgb(0, 0, 0)" stroke-opacity="1.0" stroke-linecap="round" stroke-linejoin="round"/>
    <path d="M 97.32801818847656 103.71869659423828 C 133.55746459960938 116.16215515136719 96.23808288574219 141.2724151611328 143.23362731933594 136.8216552734375" stroke-width="3.0" fill="none" stroke="rgb(0, 0, 0)" stroke-opacity="1.0" stroke-linecap="round" stroke-linejoin="round"/>
    <path d="M 27.632312774658203 99.54918670654297 C 140.4043426513672 96.24468994140625 99.88713836669922 116.5718002319336 26.50326156616211 106.7552261352539" stroke-width="3.0" fill="none" stroke="rgb(0, 0, 0)" stroke-opacity="1.0" stroke-linecap="round" stroke-linejoin="round"/>
    <path d="M 181.7757110595703 114.10880279541016 C 138.7608642578125 108.35858917236328 166.20799255371094 111.3030776977539 107.93131256103516 107.01325225830078" stroke-width="3.0" fill="none" stroke="rgb(0, 0, 0)" stroke-opacity="1.0" stroke-linecap="round" stroke-linejoin="round"/>
    <path d="M 68.5925064086914 202.8607940673828 C 89.77931213378906 210.24961853027344 108.55174255371094 214.7855224609375 120.93235778808594 209.45643615722656" stroke-width="3.0" fill="none" stroke="rgb(0, 0, 0)" stroke-opacity="1.0" stroke-linecap="round" stroke-linejoin="round"/>
    <path d="M 175.3667755126953 25.033472061157227 C 190.01873779296875 32.413612365722656 230.90037536621094 79.98690795898438 214.23309326171875 137.9933319091797" stroke-width="3.0" fill="none" stroke="rgb(0, 0, 0)" stroke-opacity="1.0" stroke-linecap="round" stroke-linejoin="round"/>
    <path d="M 104.65526580810547 88.0283432006836 C 137.8780975341797 80.2960205078125 134.35171508789062 77.0264663696289 126.32806396484375 94.39813995361328" stroke-width="3.0" fill="none" stroke="rgb(0, 0, 0)" stroke-opacity="1.0" stroke-linecap="round" stroke-linejoin="round"/>
    <path d="M 69.28425598144531 24.52198028564453 C 105.3980941772461 -15.802349090576172 169.73269653320312 16.408952713012695 187.795654296875 36.00318145751953" stroke-width="3.0" fill="none" stroke="rgb(0, 0, 0)" stroke-opacity="1.0" stroke-linecap="round" stroke-linejoin="round"/>
    <path d="M 129.6519775390625 139.9515380859375 C 136.66339111328125 154.052978515625 145.04598999023438 129.0355987548828 139.15040588378906 141.34869384765625" stroke-width="3.0" fill="none" stroke="rgb(0, 0, 0)" stroke-opacity="1.0" stroke-linecap="round" stroke-linejoin="round"/>
    <path d="M 60.30333709716797 129.3616180419922 C 56.55924987792969 143.5138397216797 50.81113052368164 150.4789276123047 33.92131805419922 129.3259735107422" stroke-width="3.0" fill="none" stroke="rgb(0, 0, 0)" stroke-opacity="1.0" stroke-linecap="round" stroke-linejoin="round"/>
    <path d="M 168.7554168701172 139.13909912109375 C 184.59164428710938 169.21429443359375 185.89559936523438 107.60585021972656 178.37893676757812 133.1451416015625" stroke-width="3.0" fill="none" stroke="rgb(0, 0, 0)" stroke-opacity="1.0" stroke-linecap="round" stroke-linejoin="round"/>
    <path d="M 127.29218292236328 208.23028564453125 C 108.05211639404297 212.4165496826172 101.81339263916016 210.35914611816406 135.43789672851562 207.05906677246094" stroke-width="3.0" fill="none" stroke="rgb(0, 0, 0)" stroke-opacity="1.0" stroke-linecap="round" stroke-linejoin="round"/>
    <path d="M 57.33830261230469 147.82513427734375 C 78.98086547851562 142.19976806640625 49.774723052978516 160.10897827148438 35.19959259033203 127.59326934814453" stroke-width="3.0" fill="none" stroke="rgb(0, 0, 0)" stroke-opacity="1.0" stroke-linecap="round" stroke-linejoin="round"/>
    <path d="M 94.53668975830078 88.76002502441406 C 62.84600067138672 85.24100494384766 22.3496036529541 91.71278381347656 89.73298645019531 94.6723403930664" stroke-width="3.0" fill="none" stroke="rgb(0, 0, 0)" stroke-opacity="1.0" stroke-linecap="round" stroke-linejoin="round"/>
    <path d="M 78.08645629882812 100.53739929199219 C 82.62259674072266 108.37068939208984 102.939453125 135.10971069335938 46.17296600341797 125.71097564697266" stroke-width="3.0" fill="none" stroke="rgb(0, 0, 0)" stroke-opacity="1.0" stroke-linecap="round" stroke-linejoin="round"/>
    <path d="M 156.3985595703125 94.75064086914062 C 103.69383239746094 81.27003479003906 152.37445068359375 102.34017181396484 156.187744140625 96.66798400878906" stroke-width="3.0" fill="none" stroke="rgb(0, 0, 0)" stroke-opacity="1.0" stroke-linecap="round" stroke-linejoin="round"/>
    <path d="M 94.13761901855469 124.2972640991211 C 69.4070053100586 145.27175903320312 113.24253845214844 162.41241455078125 79.52025604248047 139.80380249023438" stroke-width="3.0" fill="none" stroke="rgb(0, 0, 0)" stroke-opacity="1.0" stroke-linecap="round" stroke-linejoin="round"/>
    <path d="M 26.35148811340332 49.03501892089844 C 19.94548988342285 66.99321746826172 -0.2493615448474884 98.06450653076172 8.289307594299316 130.11688232421875" stroke-width="3.0" fill="none" stroke="rgb(0, 0, 0)" stroke-opacity="1.0" stroke-linecap="round" stroke-linejoin="round"/>
    <path d="M 178.88340759277344 193.23544311523438 C 191.58953857421875 176.0902099609375 219.45962524414062 153.0143585205078 215.87899780273438 109.71385192871094" stroke-width="3.0" fill="none" stroke="rgb(0, 0, 0)" stroke-opacity="1.0" stroke-linecap="round" stroke-linejoin="round"/>
    <path d="M 144.85775756835938 108.67405700683594 C 213.71026611328125 121.84236907958984 202.9773712158203 112.43999481201172 160.29115295410156 103.02364349365234" stroke-width="3.0" fill="none" stroke="rgb(0, 0, 0)" stroke-opacity="1.0" stroke-linecap="round" stroke-linejoin="round"/>
    <path d="M 135.24867248535156 92.69966888427734 C 247.346923828125 119.74482727050781 166.42652893066406 106.41730499267578 168.3890380859375 137.7725067138672" stroke-width="3.0" fill="none" stroke="rgb(0, 0, 0)" stroke-opacity="1.0" stroke-linecap="round" stroke-linejoin="round"/>
    <path d="M 153.4674072265625 95.62437438964844 C 130.7100067138672 87.11814880371094 117.35372924804688 115.17057037353516 132.0068817138672 81.61906433105469" stroke-width="3.0" fill="none" stroke="rgb(0, 0, 0)" stroke-opacity="1.0" stroke-linecap="round" stroke-linejoin="round"/>
    <path d="M 81.34444427490234 145.90037536621094 C 125.3896484375 169.95957946777344 96.26055908203125 78.340576171875 89.0386962890625 130.71298217773438" stroke-width="3.0" fill="none" stroke="rgb(0, 0, 0)" stroke-opacity="1.0" stroke-linecap="round" stroke-linejoin="round"/>
    <path d="M 180.62686157226562 117.91630554199219 C 199.02439880371094 101.75560760498047 191.04429626464844 134.3402099609375 187.6661376953125 115.3543930053711" stroke-width="3.0" fill="none" stroke="rgb(0, 0, 0)" stroke-opacity="1.0" stroke-linecap="round" stroke-linejoin="round"/>
    <path d="M 133.4549560546875 98.86346435546875 C 107.88835906982422 93.03718566894531 189.48963928222656 107.67382049560547 136.18666076660156 99.47441864013672" stroke-width="3.0" fill="none" stroke="rgb(0, 0, 0)" stroke-opacity="1.0" stroke-linecap="round" stroke-linejoin="round"/>
    <path d="M 60.00634765625 20.912704467773438 C 96.36856079101562 -1.4448531866073608 82.61096954345703 -3.5559680461883545 61.588134765625 16.585773468017578" stroke-width="3.0" fill="none" stroke="rgb(0, 0, 0)" stroke-opacity="1.0" stroke-linecap="round" stroke-linejoin="round"/>
    <path d="M 32.514564514160156 129.2021484375 C 110.67509460449219 132.72747802734375 92.29278564453125 156.4391632080078 29.885286331176758 143.7292938232422" stroke-width="3.0" fill="none" stroke="rgb(0, 0, 0)" stroke-opacity="1.0" stroke-linecap="round" stroke-linejoin="round"/>
    <path d="M 175.13104248046875 146.79266357421875 C 159.05447387695312 104.35784149169922 203.97389221191406 114.01229095458984 180.2880859375 146.20655822753906" stroke-width="3.0" fill="none" stroke="rgb(0, 0, 0)" stroke-opacity="1.0" stroke-linecap="round" stroke-linejoin="round"/>
    <path d="M 56.72916030883789 132.24977111816406 C -0.8640905618667603 117.44916534423828 22.252037048339844 92.12003326416016 89.68202209472656 104.65644836425781" stroke-width="3.0" fill="none" stroke="rgb(0, 0, 0)" stroke-opacity="1.0" stroke-linecap="round" stroke-linejoin="round"/>
    <path d="M 7.017312049865723 118.36713409423828 C 13.634733200073242 190.59046936035156 77.39997100830078 211.36863708496094 99.7558822631836 211.18994140625" stroke-width="3.0" fill="none" stroke="rgb(0, 0, 0)" stroke-opacity="1.0" stroke-linecap="round" stroke-linejoin="round"/>
    <path d="M 99.97724914550781 152.13482666015625 C 140.66879272460938 151.5770263671875 145.13026428222656 151.09381103515625 106.78466796875 150.22572326660156" stroke-width="3.0" fill="none" stroke="rgb(0, 0, 0)" stroke-opacity="1.0" stroke-linecap="round" stroke-linejoin="round"/>
    <path d="M 159.07395935058594 111.07177734375 C 151.18426513671875 112.28321838378906 126.40656280517578 104.8390884399414 190.0528564453125 117.56027221679688" stroke-width="3.0" fill="none" stroke="rgb(0, 0, 0)" stroke-opacity="1.0" stroke-linecap="round" stroke-linejoin="round"/>
    <path d="M 41.525211334228516 97.1933822631836 C 78.09708404541016 117.26134490966797 47.218536376953125 88.57238006591797 49.816375732421875 118.7673110961914" stroke-width="3.0" fill="none" stroke="rgb(0, 0, 0)" stroke-opacity="1.0" stroke-linecap="round" stroke-linejoin="round"/>
    <path d="M 26.35793685913086 103.29562377929688 C 114.35796356201172 111.96833038330078 79.85354614257812 119.4769515991211 96.16661834716797 103.68077850341797" stroke-width="3.0" fill="none" stroke="rgb(0, 0, 0)" stroke-opacity="1.0" stroke-linecap="round" stroke-linejoin="round"/>
    <path d="M 26.823318481445312 48.665283203125 C 47.138999938964844 27.39256477355957 43.260406494140625 27.631023406982422 69.54458618164062 14.064433097839355" stroke-width="3.0" fill="none" stroke="rgb(0, 0, 0)" stroke-opacity="1.0" stroke-linecap="round" stroke-linejoin="round"/>
    <path d="M 180.96702575683594 141.98655700683594 C 154.06629943847656 138.5104217529297 90.81864166259766 141.94244384765625 124.0765609741211 138.5463104248047" stroke-width="3.0" fill="none" stroke="rgb(0, 0, 0)" stroke-opacity="1.0" stroke-linecap="round" stroke-linejoin="round"/>
    <path d="M 37.56404113769531 132.23037719726562 C 89.24505615234375 140.85621643066406 123.99414825439453 133.9767303466797 30.397762298583984 126.72067260742188" stroke-width="3.0" fill="none" stroke="rgb(0, 0, 0)" stroke-opacity="1.0" stroke-linecap="round" stroke-linejoin="round"/>
    <path d="M 100.24002075195312 92.05040740966797 C 102.65898895263672 84.05032348632812 120.99808502197266 86.90171813964844 124.97701263427734 86.70637512207031" stroke-width="3.0" fill="none" stroke="rgb(0, 0, 0)" stroke-opacity="1.0" stroke-linecap="round" stroke-linejoin="round"/>
    <path d="M 165.30308532714844 100.40277862548828 C 179.6924591064453 93.44578552246094 140.2840118408203 77.23773193359375 111.84058380126953 80.74714660644531" stroke-width="3.0" fill="none" stroke="rgb(0, 0, 0)" stroke-opacity="1.0" stroke-linecap="round" stroke-linejoin="round"/>
  </g>
</svg>
