<?xml version="1.0" ?>
<svg xmlns="http://www.w3.org/2000/svg" version="1.1" width="224" height="224">
  <defs/>
  <g>
    <path d="M 66.20645141601562 116.3757095336914 C 128.36605834960938 91.39189910888672 120.455078125 166.19805908203125 85.60269165039062 154.99024963378906" stroke-width="3.0" fill="none" stroke="rgb(0, 0, 0)" stroke-opacity="1.0" stroke-linecap="round" stroke-linejoin="round"/>
    <path d="M 70.56884002685547 136.81640625 C 106.54838562011719 149.15245056152344 80.82772827148438 140.81109619140625 68.18505096435547 130.9695281982422" stroke-width="3.0" fill="none" stroke="rgb(0, 0, 0)" stroke-opacity="1.0" stroke-linecap="round" stroke-linejoin="round"/>
    <path d="M 83.86636352539062 135.2958526611328 C 34.980106353759766 145.06298828125 47.95779037475586 143.87110900878906 83.52976989746094 144.09100341796875" stroke-width="3.0" fill="none" stroke="rgb(0, 0, 0)" stroke-opacity="1.0" stroke-linecap="round" stroke-linejoin="round"/>
    <path d="M 34.12346267700195 120.2094955444336 C 115.80821990966797 125.01807403564453 74.31674194335938 114.95252227783203 95.89913177490234 142.27716064453125" stroke-width="3.0" fill="none" stroke="rgb(0, 0, 0)" stroke-opacity="1.0" stroke-linecap="round" stroke-linejoin="round"/>
    <path d="M 120.8773193359375 81.390625 C 196.07589721679688 99.58104705810547 194.21316528320312 122.57968139648438 132.17701721191406 96.9005355834961" stroke-width="3.0" fill="none" stroke="rgb(0, 0, 0)" stroke-opacity="1.0" stroke-linecap="round" stroke-linejoin="round"/>
    <path d="M 169.91944885253906 138.93235778808594 C 166.7898406982422 97.47193145751953 218.32859802246094 126.39229583740234 126.7748031616211 110.97174072265625" stroke-width="3.0" fill="none" stroke="rgb(0, 0, 0)" stroke-opacity="1.0" stroke-linecap="round" stroke-linejoin="round"/>
    <path d="M 39.167354583740234 100.41551971435547 C 226.1364288330078 128.38616943359375 161.75096130371094 87.20109558105469 40.647090911865234 90.2373046875" stroke-width="3.0" fill="none" stroke="rgb(0, 0, 0)" stroke-opacity="1.0" stroke-linecap="round" stroke-linejoin="round"/>
    <path d="M 98.77812957763672 131.0062255859375 C 110.4245834350586 107.12356567382812 69.12635803222656 139.69105529785156 41.640201568603516 129.29656982421875" stroke-width="3.0" fill="none" stroke="rgb(0, 0, 0)" stroke-opacity="1.0" stroke-linecap="round" stroke-linejoin="round"/>
    <path d="M 124.04194641113281 214.76727294921875 C 171.07522583007812 202.5263214111328 173.9861297607422 197.75497436523438 183.4514923095703 187.99009704589844" stroke-width="3.0" fill="none" stroke="rgb(0, 0, 0)" stroke-opacity="1.0" stroke-linecap="round" stroke-linejoin="round"/>
    <path d="M 134.94491577148438 111.67051696777344 C 211.5994415283203 108.32099151611328 182.23065185546875 127.27886962890625 194.2790069580078 112.56240844726562" stroke-width="3.0" fill="none" stroke="rgb(0, 0, 0)" stroke-opacity="1.0" stroke-linecap="round" stroke-linejoin="round"/>
    <path d="M 101.60562133789062 108.0333480834961 C 134.1973114013672 134.87359619140625 87.64234161376953 135.10830688476562 167.96395874023438 133.88165283203125" stroke-width="3.0" fill="none" stroke="rgb(0, 0, 0)" stroke-opacity="1.0" stroke-linecap="round" stroke-linejoin="round"/>
    <path d="M 36.03492736816406 106.63475036621094 C 121.60989379882812 104.99166107177734 92.6399154663086 118.95999908447266 29.018232345581055 117.32864379882812" stroke-width="3.0" fill="none" stroke="rgb(0, 0, 0)" stroke-opacity="1.0" stroke-linecap="round" stroke-linejoin="round"/>
    <path d="M 173.43905639648438 104.54869842529297 C 138.6991729736328 117.65803527832031 167.38856506347656 104.3521728515625 74.96407318115234 99.2883071899414" stroke-width="3.0" fill="none" stroke="rgb(0, 0, 0)" stroke-opacity="1.0" stroke-linecap="round" stroke-linejoin="round"/>
    <path d="M 25.59368896484375 165.3201141357422 C 75.1223373413086 222.28829956054688 118.2416000366211 214.10696411132812 165.80894470214844 196.71868896484375" stroke-width="3.0" fill="none" stroke="rgb(0, 0, 0)" stroke-opacity="1.0" stroke-linecap="round" stroke-linejoin="round"/>
    <path d="M 178.00257873535156 30.823055267333984 C 187.10520935058594 37.49799346923828 230.4759521484375 84.29185485839844 213.3774871826172 138.5378875732422" stroke-width="3.0" fill="none" stroke="rgb(0, 0, 0)" stroke-opacity="1.0" stroke-linecap="round" stroke-linejoin="round"/>
    <path d="M 92.02068328857422 90.64510345458984 C 131.40919494628906 65.496826171875 166.15142822265625 86.8211898803711 140.24317932128906 85.15725708007812" stroke-width="3.0" fill="none" stroke="rgb(0, 0, 0)" stroke-opacity="1.0" stroke-linecap="round" stroke-linejoin="round"/>
    <path d="M 74.54509735107422 33.97123718261719 C 85.23296356201172 -16.324533462524414 169.93736267089844 12.468998908996582 192.2240447998047 44.4038200378418" stroke-width="3.0" fill="none" stroke="rgb(0, 0, 0)" stroke-opacity="1.0" stroke-linecap="round" stroke-linejoin="round"/>
    <path d="M 114.97728729248047 143.1162567138672 C 168.15325927734375 141.57530212402344 209.1894989013672 136.08636474609375 111.53253936767578 139.2722930908203" stroke-width="3.0" fill="none" stroke="rgb(0, 0, 0)" stroke-opacity="1.0" stroke-linecap="round" stroke-linejoin="round"/>
    <path d="M 70.66030883789062 127.08334350585938 C 75.06278228759766 141.13319396972656 38.83677291870117 158.8828125 35.507057189941406 117.47996520996094" stroke-width="3.0" fill="none" stroke="rgb(0, 0, 0)" stroke-opacity="1.0" stroke-linecap="round" stroke-linejoin="round"/>
    <path d="M 172.33946228027344 147.6216583251953 C 202.88723754882812 144.20433044433594 176.95388793945312 97.71235656738281 175.5559844970703 140.74876403808594" stroke-width="3.0" fill="none" stroke="rgb(0, 0, 0)" stroke-opacity="1.0" stroke-linecap="round" stroke-linejoin="round"/>
    <path d="M 186.2542724609375 186.30897521972656 C 168.54147338867188 189.0500946044922 184.31455993652344 184.5726776123047 173.4752655029297 188.8680877685547" stroke-width="3.0" fill="none" stroke="rgb(0, 0, 0)" stroke-opacity="1.0" stroke-linecap="round" stroke-linejoin="round"/>
    <path d="M 64.79357147216797 112.77985382080078 C 112.19546508789062 123.0882568359375 64.46480560302734 129.67701721191406 40.29547882080078 130.09495544433594" stroke-width="3.0" fill="none" stroke="rgb(0, 0, 0)" stroke-opacity="1.0" stroke-linecap="round" stroke-linejoin="round"/>
    <path d="M 121.14016723632812 83.22061920166016 C 108.60369873046875 93.75865936279297 69.70722961425781 96.80230712890625 112.44210815429688 81.17513275146484" stroke-width="3.0" fill="none" stroke="rgb(0, 0, 0)" stroke-opacity="1.0" stroke-linecap="round" stroke-linejoin="round"/>
    <path d="M 63.69681167602539 110.41476440429688 C 78.32498168945312 102.15043640136719 114.4552993774414 136.846923828125 42.241065979003906 124.02808380126953" stroke-width="3.0" fill="none" stroke="rgb(0, 0, 0)" stroke-opacity="1.0" stroke-linecap="round" stroke-linejoin="round"/>
    <path d="M 150.26950073242188 117.94574737548828 C 52.641815185546875 107.37089538574219 163.74745178222656 121.81973266601562 161.03207397460938 97.90872955322266" stroke-width="3.0" fill="none" stroke="rgb(0, 0, 0)" stroke-opacity="1.0" stroke-linecap="round" stroke-linejoin="round"/>
    <path d="M 93.22969818115234 110.7096939086914 C 61.729427337646484 146.23977661132812 114.31487274169922 160.8350372314453 80.21897888183594 146.57456970214844" stroke-width="3.0" fill="none" stroke="rgb(0, 0, 0)" stroke-opacity="1.0" stroke-linecap="round" stroke-linejoin="round"/>
    <path d="M 24.151155471801758 48.98970031738281 C 18.335697174072266 64.31671905517578 -0.8494125604629517 96.88817596435547 8.344891548156738 132.83680725097656" stroke-width="3.0" fill="none" stroke="rgb(0, 0, 0)" stroke-opacity="1.0" stroke-linecap="round" stroke-linejoin="round"/>
    <path d="M 183.38026428222656 189.14183044433594 C 188.92251586914062 184.37657165527344 227.5614471435547 143.20245361328125 214.6455535888672 94.65827178955078" stroke-width="3.0" fill="none" stroke="rgb(0, 0, 0)" stroke-opacity="1.0" stroke-linecap="round" stroke-linejoin="round"/>
    <path d="M 144.05116271972656 107.23706817626953 C 217.68161010742188 117.56793212890625 203.79473876953125 108.33732604980469 162.3232879638672 110.18871307373047" stroke-width="3.0" fill="none" stroke="rgb(0, 0, 0)" stroke-opacity="1.0" stroke-linecap="round" stroke-linejoin="round"/>
    <path d="M 139.75628662109375 95.87750244140625 C 263.67266845703125 122.80050659179688 140.72923278808594 102.68627166748047 173.68113708496094 147.09072875976562" stroke-width="3.0" fill="none" stroke="rgb(0, 0, 0)" stroke-opacity="1.0" stroke-linecap="round" stroke-linejoin="round"/>
    <path d="M 165.82357788085938 99.19317626953125 C 139.05908203125 52.15165328979492 122.78687286376953 126.37034606933594 132.94032287597656 86.10899353027344" stroke-width="3.0" fill="none" stroke="rgb(0, 0, 0)" stroke-opacity="1.0" stroke-linecap="round" stroke-linejoin="round"/>
    <path d="M 65.07218170166016 139.7859649658203 C 136.35693359375 166.57093811035156 93.89096069335938 85.8091049194336 84.9214859008789 133.7218017578125" stroke-width="3.0" fill="none" stroke="rgb(0, 0, 0)" stroke-opacity="1.0" stroke-linecap="round" stroke-linejoin="round"/>
    <path d="M 166.13380432128906 103.44880676269531 C 184.00180053710938 85.44849395751953 197.92445373535156 130.27635192871094 182.91323852539062 149.72607421875" stroke-width="3.0" fill="none" stroke="rgb(0, 0, 0)" stroke-opacity="1.0" stroke-linecap="round" stroke-linejoin="round"/>
    <path d="M 135.5566864013672 86.70707702636719 C 115.46891784667969 110.53101348876953 193.41006469726562 96.4977798461914 137.7126922607422 102.33163452148438" stroke-width="3.0" fill="none" stroke="rgb(0, 0, 0)" stroke-opacity="1.0" stroke-linecap="round" stroke-linejoin="round"/>
    <path d="M 62.00005340576172 18.656494140625 C 99.8337173461914 -9.241199493408203 110.08063507080078 -5.370476722717285 69.95140838623047 11.543360710144043" stroke-width="3.0" fill="none" stroke="rgb(0, 0, 0)" stroke-opacity="1.0" stroke-linecap="round" stroke-linejoin="round"/>
    <path d="M 27.952993392944336 121.0366439819336 C 93.99623107910156 140.5339813232422 101.1275634765625 143.2128448486328 22.267778396606445 143.3096466064453" stroke-width="3.0" fill="none" stroke="rgb(0, 0, 0)" stroke-opacity="1.0" stroke-linecap="round" stroke-linejoin="round"/>
    <path d="M 178.64871215820312 133.6370391845703 C 155.91090393066406 104.14741516113281 202.6284942626953 118.86557006835938 187.26919555664062 133.4485626220703" stroke-width="3.0" fill="none" stroke="rgb(0, 0, 0)" stroke-opacity="1.0" stroke-linecap="round" stroke-linejoin="round"/>
    <path d="M 67.14463806152344 131.408447265625 C 7.993049144744873 133.314697265625 23.74909210205078 86.0533447265625 71.6353530883789 99.65960693359375" stroke-width="3.0" fill="none" stroke="rgb(0, 0, 0)" stroke-opacity="1.0" stroke-linecap="round" stroke-linejoin="round"/>
    <path d="M 8.474248886108398 121.3661880493164 C 13.776995658874512 186.22946166992188 80.55801391601562 225.31292724609375 132.03143310546875 211.39837646484375" stroke-width="3.0" fill="none" stroke="rgb(0, 0, 0)" stroke-opacity="1.0" stroke-linecap="round" stroke-linejoin="round"/>
    <path d="M 60.8653564453125 155.28726196289062 C 190.06869506835938 154.09201049804688 224.75914001464844 140.45843505859375 109.0746841430664 148.8706817626953" stroke-width="3.0" fill="none" stroke="rgb(0, 0, 0)" stroke-opacity="1.0" stroke-linecap="round" stroke-linejoin="round"/>
    <path d="M 176.06544494628906 113.51170349121094 C 141.34033203125 113.64020538330078 131.5565185546875 99.93045806884766 187.9310302734375 116.04501342773438" stroke-width="3.0" fill="none" stroke="rgb(0, 0, 0)" stroke-opacity="1.0" stroke-linecap="round" stroke-linejoin="round"/>
    <path d="M 38.077091217041016 92.58588409423828 C 45.45243835449219 127.65020751953125 94.94300842285156 74.42141723632812 69.6976318359375 115.03654479980469" stroke-width="3.0" fill="none" stroke="rgb(0, 0, 0)" stroke-opacity="1.0" stroke-linecap="round" stroke-linejoin="round"/>
    <path d="M 31.168325424194336 112.40373229980469 C 130.39707946777344 114.21418762207031 79.72471618652344 135.9125518798828 95.02368927001953 118.2179183959961" stroke-width="3.0" fill="none" stroke="rgb(0, 0, 0)" stroke-opacity="1.0" stroke-linecap="round" stroke-linejoin="round"/>
    <path d="M 24.732934951782227 47.23725891113281 C 48.36488342285156 25.09343910217285 44.14137268066406 26.12893295288086 71.047119140625 11.185699462890625" stroke-width="3.0" fill="none" stroke="rgb(0, 0, 0)" stroke-opacity="1.0" stroke-linecap="round" stroke-linejoin="round"/>
    <path d="M 171.72280883789062 144.36654663085938 C 181.13803100585938 142.51705932617188 51.284210205078125 148.0489501953125 141.15699768066406 149.10520935058594" stroke-width="3.0" fill="none" stroke="rgb(0, 0, 0)" stroke-opacity="1.0" stroke-linecap="round" stroke-linejoin="round"/>
    <path d="M 38.88268280029297 116.88851165771484 C 82.45280456542969 129.56849670410156 113.28884887695312 127.85570526123047 46.84537887573242 126.96131896972656" stroke-width="3.0" fill="none" stroke="rgb(0, 0, 0)" stroke-opacity="1.0" stroke-linecap="round" stroke-linejoin="round"/>
    <path d="M 102.75711059570312 83.60308837890625 C 87.49740600585938 81.70829772949219 123.81303405761719 77.0502700805664 118.9398193359375 80.86164093017578" stroke-width="3.0" fill="none" stroke="rgb(0, 0, 0)" stroke-opacity="1.0" stroke-linecap="round" stroke-linejoin="round"/>
    <path d="M 161.63270568847656 95.84339141845703 C 183.4022979736328 93.24669647216797 121.82404327392578 73.68355560302734 104.70454406738281 89.37144470214844" stroke-width="3.0" fill="none" stroke="rgb(0, 0, 0)" stroke-opacity="1.0" stroke-linecap="round" stroke-linejoin="round"/>
  </g>
</svg>
