<?xml version="1.0" ?>
<svg xmlns="http://www.w3.org/2000/svg" version="1.1" width="224" height="224">
  <defs/>
  <g>
    <path d="M 67.11629486083984 108.61542510986328 C 125.1712875366211 91.21637725830078 122.52288818359375 147.02662658691406 101.51250457763672 153.6557159423828" stroke-width="3.0" fill="none" stroke="rgb(0, 0, 0)" stroke-opacity="1.0" stroke-linecap="round" stroke-linejoin="round"/>
    <path d="M 81.25270080566406 122.7938232421875 C 92.94823455810547 162.03416442871094 78.23960876464844 146.25253295898438 77.15152740478516 135.7259979248047" stroke-width="3.0" fill="none" stroke="rgb(0, 0, 0)" stroke-opacity="1.0" stroke-linecap="round" stroke-linejoin="round"/>
    <path d="M 61.73094940185547 129.6099853515625 C 4.6740546226501465 121.30021667480469 7.063797950744629 126.14366149902344 81.43177032470703 128.69534301757812" stroke-width="3.0" fill="none" stroke="rgb(0, 0, 0)" stroke-opacity="1.0" stroke-linecap="round" stroke-linejoin="round"/>
    <path d="M 23.366146087646484 122.07550048828125 C 112.10334014892578 125.85417175292969 75.70439910888672 120.1432876586914 80.97051239013672 130.93527221679688" stroke-width="3.0" fill="none" stroke="rgb(0, 0, 0)" stroke-opacity="1.0" stroke-linecap="round" stroke-linejoin="round"/>
    <path d="M 90.24909973144531 98.70162963867188 C 191.48719787597656 115.60199737548828 178.72561645507812 105.24369049072266 101.64457702636719 92.2175064086914" stroke-width="3.0" fill="none" stroke="rgb(0, 0, 0)" stroke-opacity="1.0" stroke-linecap="round" stroke-linejoin="round"/>
    <path d="M 172.80828857421875 147.0701141357422 C 157.84423828125 106.97186279296875 215.45530700683594 117.10529327392578 145.79763793945312 105.84268188476562" stroke-width="3.0" fill="none" stroke="rgb(0, 0, 0)" stroke-opacity="1.0" stroke-linecap="round" stroke-linejoin="round"/>
    <path d="M 39.42037582397461 99.20683288574219 C 151.96759033203125 82.0110092163086 140.3801727294922 77.1664810180664 38.73310852050781 95.13622283935547" stroke-width="3.0" fill="none" stroke="rgb(0, 0, 0)" stroke-opacity="1.0" stroke-linecap="round" stroke-linejoin="round"/>
    <path d="M 82.21857452392578 141.59677124023438 C 102.66615295410156 130.39199829101562 77.88240814208984 135.87710571289062 40.222110748291016 136.0224151611328" stroke-width="3.0" fill="none" stroke="rgb(0, 0, 0)" stroke-opacity="1.0" stroke-linecap="round" stroke-linejoin="round"/>
    <path d="M 122.42031860351562 211.6848907470703 C 189.5037384033203 196.54466247558594 140.25872802734375 205.03378295898438 176.3955535888672 195.8257293701172" stroke-width="3.0" fill="none" stroke="rgb(0, 0, 0)" stroke-opacity="1.0" stroke-linecap="round" stroke-linejoin="round"/>
    <path d="M 151.38327026367188 108.18386840820312 C 191.4701690673828 107.54910278320312 183.46347045898438 127.12863159179688 191.20249938964844 115.43153381347656" stroke-width="3.0" fill="none" stroke="rgb(0, 0, 0)" stroke-opacity="1.0" stroke-linecap="round" stroke-linejoin="round"/>
    <path d="M 100.54390716552734 104.13868713378906 C 135.89422607421875 117.42196655273438 92.70528411865234 140.39561462402344 147.7404327392578 135.15765380859375" stroke-width="3.0" fill="none" stroke="rgb(0, 0, 0)" stroke-opacity="1.0" stroke-linecap="round" stroke-linejoin="round"/>
    <path d="M 39.639549255371094 102.84810638427734 C 144.4962615966797 97.89950561523438 96.55496978759766 115.46253204345703 31.565664291381836 109.36727142333984" stroke-width="3.0" fill="none" stroke="rgb(0, 0, 0)" stroke-opacity="1.0" stroke-linecap="round" stroke-linejoin="round"/>
    <path d="M 189.0397491455078 115.46458435058594 C 140.29568481445312 107.06429290771484 166.62123107910156 111.34918975830078 99.2839126586914 105.23090362548828" stroke-width="3.0" fill="none" stroke="rgb(0, 0, 0)" stroke-opacity="1.0" stroke-linecap="round" stroke-linejoin="round"/>
    <path d="M 57.31528854370117 196.6305694580078 C 84.87141418457031 216.90585327148438 107.1603775024414 213.26123046875 123.48646545410156 212.18690490722656" stroke-width="3.0" fill="none" stroke="rgb(0, 0, 0)" stroke-opacity="1.0" stroke-linecap="round" stroke-linejoin="round"/>
    <path d="M 174.0074462890625 26.8405818939209 C 189.53103637695312 33.46011734008789 229.37136840820312 80.92556762695312 213.37823486328125 138.39093017578125" stroke-width="3.0" fill="none" stroke="rgb(0, 0, 0)" stroke-opacity="1.0" stroke-linecap="round" stroke-linejoin="round"/>
    <path d="M 97.95503997802734 81.4931869506836 C 140.77125549316406 72.7831039428711 145.27359008789062 83.77235412597656 131.6140899658203 94.00849151611328" stroke-width="3.0" fill="none" stroke="rgb(0, 0, 0)" stroke-opacity="1.0" stroke-linecap="round" stroke-linejoin="round"/>
    <path d="M 73.38571166992188 32.01771545410156 C 90.29039001464844 -15.887248992919922 174.24224853515625 14.760980606079102 188.8206024169922 39.47529220581055" stroke-width="3.0" fill="none" stroke="rgb(0, 0, 0)" stroke-opacity="1.0" stroke-linecap="round" stroke-linejoin="round"/>
    <path d="M 115.70542907714844 130.96778869628906 C 140.0745086669922 151.81130981445312 167.84298706054688 132.42152404785156 129.76095581054688 138.63958740234375" stroke-width="3.0" fill="none" stroke="rgb(0, 0, 0)" stroke-opacity="1.0" stroke-linecap="round" stroke-linejoin="round"/>
    <path d="M 74.98011016845703 129.36221313476562 C 58.17842102050781 140.40260314941406 48.39573669433594 149.48995971679688 37.61566925048828 126.05667877197266" stroke-width="3.0" fill="none" stroke="rgb(0, 0, 0)" stroke-opacity="1.0" stroke-linecap="round" stroke-linejoin="round"/>
    <path d="M 172.7715301513672 144.989013671875 C 187.52615356445312 161.25550842285156 183.28369140625 107.68681335449219 179.6309051513672 132.01052856445312" stroke-width="3.0" fill="none" stroke="rgb(0, 0, 0)" stroke-opacity="1.0" stroke-linecap="round" stroke-linejoin="round"/>
    <path d="M 136.8939208984375 209.4903564453125 C 104.72854614257812 211.94253540039062 100.62020111083984 211.29501342773438 132.9119873046875 208.44569396972656" stroke-width="3.0" fill="none" stroke="rgb(0, 0, 0)" stroke-opacity="1.0" stroke-linecap="round" stroke-linejoin="round"/>
    <path d="M 51.465965270996094 130.65359497070312 C 78.83548736572266 132.90371704101562 46.72498321533203 157.76730346679688 35.921661376953125 125.2366943359375" stroke-width="3.0" fill="none" stroke="rgb(0, 0, 0)" stroke-opacity="1.0" stroke-linecap="round" stroke-linejoin="round"/>
    <path d="M 103.06625366210938 93.56649017333984 C 63.249942779541016 93.8297119140625 16.254966735839844 97.64368438720703 93.39521026611328 98.39569091796875" stroke-width="3.0" fill="none" stroke="rgb(0, 0, 0)" stroke-opacity="1.0" stroke-linecap="round" stroke-linejoin="round"/>
    <path d="M 79.98211669921875 108.37023162841797 C 88.50920104980469 102.58592224121094 100.16094207763672 143.14964294433594 42.448097229003906 128.65789794921875" stroke-width="3.0" fill="none" stroke="rgb(0, 0, 0)" stroke-opacity="1.0" stroke-linecap="round" stroke-linejoin="round"/>
    <path d="M 151.35977172851562 96.72002410888672 C 96.15143585205078 85.73914337158203 157.8592987060547 100.85337829589844 153.81507873535156 96.97860717773438" stroke-width="3.0" fill="none" stroke="rgb(0, 0, 0)" stroke-opacity="1.0" stroke-linecap="round" stroke-linejoin="round"/>
    <path d="M 95.61955261230469 126.09467315673828 C 65.79203033447266 149.12896728515625 113.333740234375 158.30496215820312 83.30078887939453 143.90887451171875" stroke-width="3.0" fill="none" stroke="rgb(0, 0, 0)" stroke-opacity="1.0" stroke-linecap="round" stroke-linejoin="round"/>
    <path d="M 25.11176109313965 49.860843658447266 C 16.519737243652344 60.517032623291016 -0.3599488437175751 103.23213958740234 7.197571277618408 125.58028411865234" stroke-width="3.0" fill="none" stroke="rgb(0, 0, 0)" stroke-opacity="1.0" stroke-linecap="round" stroke-linejoin="round"/>
    <path d="M 178.5775909423828 193.3119659423828 C 190.52822875976562 177.478759765625 222.42115783691406 151.3669891357422 216.8509979248047 101.80581665039062" stroke-width="3.0" fill="none" stroke="rgb(0, 0, 0)" stroke-opacity="1.0" stroke-linecap="round" stroke-linejoin="round"/>
    <path d="M 145.89297485351562 110.2606201171875 C 214.2720947265625 120.78425598144531 199.06260681152344 112.14666748046875 165.2022247314453 103.83558654785156" stroke-width="3.0" fill="none" stroke="rgb(0, 0, 0)" stroke-opacity="1.0" stroke-linecap="round" stroke-linejoin="round"/>
    <path d="M 132.4400177001953 90.65299987792969 C 251.3078155517578 126.21527862548828 161.14437866210938 96.17887115478516 175.7197723388672 145.19497680664062" stroke-width="3.0" fill="none" stroke="rgb(0, 0, 0)" stroke-opacity="1.0" stroke-linecap="round" stroke-linejoin="round"/>
    <path d="M 142.8175811767578 93.19112396240234 C 134.51182556152344 80.86824035644531 120.04498291015625 112.67223358154297 134.76052856445312 82.122802734375" stroke-width="3.0" fill="none" stroke="rgb(0, 0, 0)" stroke-opacity="1.0" stroke-linecap="round" stroke-linejoin="round"/>
    <path d="M 78.86717224121094 149.72715759277344 C 132.259765625 156.13209533691406 94.08033752441406 79.54578399658203 90.29016876220703 134.70571899414062" stroke-width="3.0" fill="none" stroke="rgb(0, 0, 0)" stroke-opacity="1.0" stroke-linecap="round" stroke-linejoin="round"/>
    <path d="M 188.29898071289062 118.08515167236328 C 197.37582397460938 107.08968353271484 186.39353942871094 137.44566345214844 189.14297485351562 115.00064086914062" stroke-width="3.0" fill="none" stroke="rgb(0, 0, 0)" stroke-opacity="1.0" stroke-linecap="round" stroke-linejoin="round"/>
    <path d="M 139.6516876220703 88.18588256835938 C 109.0328598022461 94.96764373779297 191.55450439453125 99.9513931274414 136.4645538330078 96.6553726196289" stroke-width="3.0" fill="none" stroke="rgb(0, 0, 0)" stroke-opacity="1.0" stroke-linecap="round" stroke-linejoin="round"/>
    <path d="M 56.82099151611328 15.204846382141113 C 96.8155746459961 -9.161846160888672 95.3488998413086 -4.306573390960693 58.958648681640625 13.743188858032227" stroke-width="3.0" fill="none" stroke="rgb(0, 0, 0)" stroke-opacity="1.0" stroke-linecap="round" stroke-linejoin="round"/>
    <path d="M 37.7980842590332 123.21234130859375 C 110.18275451660156 136.1227569580078 100.08180236816406 163.8810577392578 35.6531867980957 141.02284240722656" stroke-width="3.0" fill="none" stroke="rgb(0, 0, 0)" stroke-opacity="1.0" stroke-linecap="round" stroke-linejoin="round"/>
    <path d="M 176.52664184570312 141.2941436767578 C 162.07188415527344 105.80355834960938 199.399658203125 119.54425048828125 181.66452026367188 145.52166748046875" stroke-width="3.0" fill="none" stroke="rgb(0, 0, 0)" stroke-opacity="1.0" stroke-linecap="round" stroke-linejoin="round"/>
    <path d="M 60.604347229003906 135.95152282714844 C 6.754974365234375 122.9491958618164 26.29506492614746 92.2282485961914 87.61726379394531 108.14732360839844" stroke-width="3.0" fill="none" stroke="rgb(0, 0, 0)" stroke-opacity="1.0" stroke-linecap="round" stroke-linejoin="round"/>
    <path d="M 6.555826187133789 120.66680145263672 C 17.523906707763672 191.12887573242188 76.36249542236328 206.70458984375 104.13166809082031 210.54592895507812" stroke-width="3.0" fill="none" stroke="rgb(0, 0, 0)" stroke-opacity="1.0" stroke-linecap="round" stroke-linejoin="round"/>
    <path d="M 85.14380645751953 153.2957763671875 C 147.91261291503906 154.4458770751953 149.6271209716797 153.89117431640625 105.28753662109375 153.28057861328125" stroke-width="3.0" fill="none" stroke="rgb(0, 0, 0)" stroke-opacity="1.0" stroke-linecap="round" stroke-linejoin="round"/>
    <path d="M 158.22499084472656 109.44597625732422 C 152.1011199951172 103.93860626220703 126.87970733642578 102.02347564697266 190.72036743164062 113.48295593261719" stroke-width="3.0" fill="none" stroke="rgb(0, 0, 0)" stroke-opacity="1.0" stroke-linecap="round" stroke-linejoin="round"/>
    <path d="M 49.86744689941406 97.73446655273438 C 80.18866729736328 120.68745422363281 36.40247344970703 91.93817138671875 50.308712005615234 119.39064025878906" stroke-width="3.0" fill="none" stroke="rgb(0, 0, 0)" stroke-opacity="1.0" stroke-linecap="round" stroke-linejoin="round"/>
    <path d="M 33.78079605102539 110.6486587524414 C 109.44889831542969 118.72645568847656 76.13856506347656 116.84530639648438 98.56306457519531 106.66744232177734" stroke-width="3.0" fill="none" stroke="rgb(0, 0, 0)" stroke-opacity="1.0" stroke-linecap="round" stroke-linejoin="round"/>
    <path d="M 25.48324203491211 49.73807907104492 C 45.853939056396484 24.687591552734375 40.177433013916016 26.3834228515625 66.13117218017578 9.438413619995117" stroke-width="3.0" fill="none" stroke="rgb(0, 0, 0)" stroke-opacity="1.0" stroke-linecap="round" stroke-linejoin="round"/>
    <path d="M 183.9837646484375 141.2845916748047 C 160.88720703125 140.44822692871094 82.6520767211914 147.5120849609375 125.43585205078125 140.74725341796875" stroke-width="3.0" fill="none" stroke="rgb(0, 0, 0)" stroke-opacity="1.0" stroke-linecap="round" stroke-linejoin="round"/>
    <path d="M 35.450870513916016 136.36251831054688 C 87.77444458007812 139.14553833007812 126.93844604492188 132.25973510742188 43.14924621582031 134.05540466308594" stroke-width="3.0" fill="none" stroke="rgb(0, 0, 0)" stroke-opacity="1.0" stroke-linecap="round" stroke-linejoin="round"/>
    <path d="M 101.7794189453125 86.17919158935547 C 96.90985870361328 86.06085968017578 120.93768310546875 82.441650390625 128.9444122314453 83.9319076538086" stroke-width="3.0" fill="none" stroke="rgb(0, 0, 0)" stroke-opacity="1.0" stroke-linecap="round" stroke-linejoin="round"/>
    <path d="M 161.5847930908203 98.89591979980469 C 179.2504425048828 91.26792907714844 137.132568359375 76.78482818603516 114.11067962646484 78.23052215576172" stroke-width="3.0" fill="none" stroke="rgb(0, 0, 0)" stroke-opacity="1.0" stroke-linecap="round" stroke-linejoin="round"/>
  </g>
</svg>
