<?xml version="1.0" ?>
<svg xmlns="http://www.w3.org/2000/svg" version="1.1" width="224" height="224">
  <defs/>
  <g>
    <path d="M 96.92500305175781 103.43138122558594 C 117.40288543701172 102.57067108154297 123.1594009399414 124.64833068847656 117.09996032714844 136.63107299804688" stroke-width="3.0" fill="none" stroke="rgb(0, 0, 0)" stroke-opacity="1.0" stroke-linecap="round" stroke-linejoin="round"/>
    <path d="M 60.19720458984375 131.39520263671875 C 95.58916473388672 147.15185546875 81.2524185180664 148.93231201171875 61.97327423095703 145.81150817871094" stroke-width="3.0" fill="none" stroke="rgb(0, 0, 0)" stroke-opacity="1.0" stroke-linecap="round" stroke-linejoin="round"/>
    <path d="M 40.4864501953125 127.60083770751953 C -2.4882404804229736 131.97166442871094 24.91360855102539 130.9463348388672 81.91763305664062 131.56800842285156" stroke-width="3.0" fill="none" stroke="rgb(0, 0, 0)" stroke-opacity="1.0" stroke-linecap="round" stroke-linejoin="round"/>
    <path d="M 25.647674560546875 123.33898162841797 C 91.0346908569336 130.5546112060547 89.49945831298828 131.13525390625 80.49195861816406 108.23267364501953" stroke-width="3.0" fill="none" stroke="rgb(0, 0, 0)" stroke-opacity="1.0" stroke-linecap="round" stroke-linejoin="round"/>
    <path d="M 94.96731567382812 91.2344741821289 C 180.5640106201172 126.26569366455078 166.17431640625 111.23599243164062 99.223388671875 88.07568359375" stroke-width="3.0" fill="none" stroke="rgb(0, 0, 0)" stroke-opacity="1.0" stroke-linecap="round" stroke-linejoin="round"/>
    <path d="M 169.4514923095703 132.69989013671875 C 176.1229705810547 107.05609130859375 182.11581420898438 118.89480590820312 145.305908203125 110.6308364868164" stroke-width="3.0" fill="none" stroke="rgb(0, 0, 0)" stroke-opacity="1.0" stroke-linecap="round" stroke-linejoin="round"/>
    <path d="M 70.56778717041016 104.07889556884766 C 111.864013671875 103.50517272949219 103.90786743164062 102.36048126220703 45.5306396484375 98.14662170410156" stroke-width="3.0" fill="none" stroke="rgb(0, 0, 0)" stroke-opacity="1.0" stroke-linecap="round" stroke-linejoin="round"/>
    <path d="M 83.90773010253906 141.7873992919922 C 89.43924713134766 149.14479064941406 85.36963653564453 130.257568359375 23.21515464782715 128.75047302246094" stroke-width="3.0" fill="none" stroke="rgb(0, 0, 0)" stroke-opacity="1.0" stroke-linecap="round" stroke-linejoin="round"/>
    <path d="M 139.36703491210938 205.38064575195312 C 186.90196228027344 193.52923583984375 159.7065887451172 197.17405700683594 179.08534240722656 189.72593688964844" stroke-width="3.0" fill="none" stroke="rgb(0, 0, 0)" stroke-opacity="1.0" stroke-linecap="round" stroke-linejoin="round"/>
    <path d="M 158.9379425048828 105.07810974121094 C 174.83409118652344 109.07491302490234 181.64773559570312 104.95988464355469 199.68312072753906 113.64270782470703" stroke-width="3.0" fill="none" stroke="rgb(0, 0, 0)" stroke-opacity="1.0" stroke-linecap="round" stroke-linejoin="round"/>
    <path d="M 108.80638885498047 105.43905639648438 C 130.83299255371094 116.47297668457031 114.60783386230469 145.02346801757812 130.31307983398438 139.40794372558594" stroke-width="3.0" fill="none" stroke="rgb(0, 0, 0)" stroke-opacity="1.0" stroke-linecap="round" stroke-linejoin="round"/>
    <path d="M 28.284311294555664 101.29752349853516 C 103.860595703125 107.80610656738281 77.44251251220703 96.41832733154297 34.04985427856445 101.4944839477539" stroke-width="3.0" fill="none" stroke="rgb(0, 0, 0)" stroke-opacity="1.0" stroke-linecap="round" stroke-linejoin="round"/>
    <path d="M 170.45082092285156 115.1815414428711 C 125.23165130615234 113.10027313232422 157.8515625 117.11510467529297 132.2015380859375 105.23184967041016" stroke-width="3.0" fill="none" stroke="rgb(0, 0, 0)" stroke-opacity="1.0" stroke-linecap="round" stroke-linejoin="round"/>
    <path d="M 102.67169952392578 189.41580200195312 C 103.43978118896484 187.00379943847656 110.47125244140625 191.43478393554688 109.31414794921875 191.37289428710938" stroke-width="3.0" fill="none" stroke="rgb(0, 0, 0)" stroke-opacity="1.0" stroke-linecap="round" stroke-linejoin="round"/>
    <path d="M 173.54629516601562 26.83798599243164 C 185.6227264404297 34.126502990722656 228.38327026367188 74.47119140625 214.92922973632812 125.89948272705078" stroke-width="3.0" fill="none" stroke="rgb(0, 0, 0)" stroke-opacity="1.0" stroke-linecap="round" stroke-linejoin="round"/>
    <path d="M 106.35382080078125 81.24299621582031 C 144.4646759033203 80.93712615966797 136.2667999267578 76.82928466796875 129.8373565673828 99.47713470458984" stroke-width="3.0" fill="none" stroke="rgb(0, 0, 0)" stroke-opacity="1.0" stroke-linecap="round" stroke-linejoin="round"/>
    <path d="M 55.36286163330078 23.203187942504883 C 124.4521255493164 -6.320837497711182 170.1905975341797 18.375459671020508 182.13037109375 34.647586822509766" stroke-width="3.0" fill="none" stroke="rgb(0, 0, 0)" stroke-opacity="1.0" stroke-linecap="round" stroke-linejoin="round"/>
    <path d="M 139.23959350585938 134.20802307128906 C 135.3995361328125 153.64793395996094 126.52312469482422 128.2834930419922 129.0244140625 133.4548797607422" stroke-width="3.0" fill="none" stroke="rgb(0, 0, 0)" stroke-opacity="1.0" stroke-linecap="round" stroke-linejoin="round"/>
    <path d="M 69.65353393554688 130.21507263183594 C 47.33612060546875 142.83070373535156 69.63982391357422 148.48480224609375 29.417482376098633 138.47665405273438" stroke-width="3.0" fill="none" stroke="rgb(0, 0, 0)" stroke-opacity="1.0" stroke-linecap="round" stroke-linejoin="round"/>
    <path d="M 169.131103515625 134.22500610351562 C 190.04579162597656 164.5535430908203 185.21026611328125 105.52924346923828 176.96871948242188 128.6807403564453" stroke-width="3.0" fill="none" stroke="rgb(0, 0, 0)" stroke-opacity="1.0" stroke-linecap="round" stroke-linejoin="round"/>
    <path d="M 138.7942657470703 204.46975708007812 C 109.54450225830078 192.57308959960938 98.21224212646484 196.62142944335938 119.21925354003906 197.3328094482422" stroke-width="3.0" fill="none" stroke="rgb(0, 0, 0)" stroke-opacity="1.0" stroke-linecap="round" stroke-linejoin="round"/>
    <path d="M 50.30778121948242 128.246826171875 C 60.745296478271484 112.7928237915039 56.64863586425781 135.33729553222656 27.093109130859375 124.99017333984375" stroke-width="3.0" fill="none" stroke="rgb(0, 0, 0)" stroke-opacity="1.0" stroke-linecap="round" stroke-linejoin="round"/>
    <path d="M 97.2115249633789 94.13098907470703 C 41.4776496887207 89.8059310913086 -7.505379676818848 102.04795837402344 57.270050048828125 105.1471176147461" stroke-width="3.0" fill="none" stroke="rgb(0, 0, 0)" stroke-opacity="1.0" stroke-linecap="round" stroke-linejoin="round"/>
    <path d="M 73.09088897705078 106.86627960205078 C 69.55420684814453 124.18429565429688 88.51435852050781 105.0803451538086 56.108924865722656 112.29931640625" stroke-width="3.0" fill="none" stroke="rgb(0, 0, 0)" stroke-opacity="1.0" stroke-linecap="round" stroke-linejoin="round"/>
    <path d="M 160.0111846923828 93.62860107421875 C 114.08085632324219 85.01561737060547 152.76797485351562 102.75881958007812 164.5824432373047 100.52605438232422" stroke-width="3.0" fill="none" stroke="rgb(0, 0, 0)" stroke-opacity="1.0" stroke-linecap="round" stroke-linejoin="round"/>
    <path d="M 92.15150451660156 110.47274017333984 C 69.20330047607422 135.22439575195312 96.85358428955078 150.29234313964844 83.42593383789062 141.9224090576172" stroke-width="3.0" fill="none" stroke="rgb(0, 0, 0)" stroke-opacity="1.0" stroke-linecap="round" stroke-linejoin="round"/>
    <path d="M 19.698097229003906 60.83268737792969 C 15.672521591186523 69.87649536132812 11.484950065612793 72.92013549804688 6.765181541442871 104.98162841796875" stroke-width="3.0" fill="none" stroke="rgb(0, 0, 0)" stroke-opacity="1.0" stroke-linecap="round" stroke-linejoin="round"/>
    <path d="M 183.82907104492188 188.5477752685547 C 196.67095947265625 167.3790740966797 210.8230743408203 160.9261474609375 215.9625244140625 119.62891387939453" stroke-width="3.0" fill="none" stroke="rgb(0, 0, 0)" stroke-opacity="1.0" stroke-linecap="round" stroke-linejoin="round"/>
    <path d="M 145.3573760986328 118.56597900390625 C 216.049560546875 116.29830169677734 210.29867553710938 114.4224624633789 144.38912963867188 108.30963134765625" stroke-width="3.0" fill="none" stroke="rgb(0, 0, 0)" stroke-opacity="1.0" stroke-linecap="round" stroke-linejoin="round"/>
    <path d="M 146.01161193847656 98.2674560546875 C 215.3085479736328 112.21980285644531 175.3097381591797 101.17185974121094 168.2294158935547 131.15603637695312" stroke-width="3.0" fill="none" stroke="rgb(0, 0, 0)" stroke-opacity="1.0" stroke-linecap="round" stroke-linejoin="round"/>
    <path d="M 144.9501953125 95.6583023071289 C 147.33621215820312 95.93948364257812 135.05699157714844 116.3275375366211 137.247802734375 85.4542007446289" stroke-width="3.0" fill="none" stroke="rgb(0, 0, 0)" stroke-opacity="1.0" stroke-linecap="round" stroke-linejoin="round"/>
    <path d="M 83.21138763427734 144.04800415039062 C 126.90690612792969 167.8497314453125 121.92157745361328 79.56047821044922 76.81072998046875 116.7641830444336" stroke-width="3.0" fill="none" stroke="rgb(0, 0, 0)" stroke-opacity="1.0" stroke-linecap="round" stroke-linejoin="round"/>
    <path d="M 192.77093505859375 114.09186553955078 C 196.85479736328125 108.05912780761719 178.5663604736328 131.33099365234375 190.73838806152344 121.92061614990234" stroke-width="3.0" fill="none" stroke="rgb(0, 0, 0)" stroke-opacity="1.0" stroke-linecap="round" stroke-linejoin="round"/>
    <path d="M 142.48440551757812 108.40823364257812 C 118.04601287841797 78.31497192382812 176.73085021972656 99.69705200195312 140.71737670898438 100.27140808105469" stroke-width="3.0" fill="none" stroke="rgb(0, 0, 0)" stroke-opacity="1.0" stroke-linecap="round" stroke-linejoin="round"/>
    <path d="M 63.16049575805664 20.154085159301758 C 86.43159484863281 20.98959732055664 77.31736755371094 16.980180740356445 68.69374084472656 21.238161087036133" stroke-width="3.0" fill="none" stroke="rgb(0, 0, 0)" stroke-opacity="1.0" stroke-linecap="round" stroke-linejoin="round"/>
    <path d="M 43.65001678466797 134.49697875976562 C 103.29009246826172 135.54969787597656 87.40571594238281 139.7592315673828 41.48689651489258 127.90724182128906" stroke-width="3.0" fill="none" stroke="rgb(0, 0, 0)" stroke-opacity="1.0" stroke-linecap="round" stroke-linejoin="round"/>
    <path d="M 175.6132354736328 138.98158264160156 C 162.05026245117188 100.68047332763672 199.30348205566406 113.95419311523438 183.2110137939453 141.78741455078125" stroke-width="3.0" fill="none" stroke="rgb(0, 0, 0)" stroke-opacity="1.0" stroke-linecap="round" stroke-linejoin="round"/>
    <path d="M 44.57162857055664 141.79742431640625 C 15.868634223937988 92.3418197631836 5.366631984710693 106.98694610595703 79.9321060180664 108.92747497558594" stroke-width="3.0" fill="none" stroke="rgb(0, 0, 0)" stroke-opacity="1.0" stroke-linecap="round" stroke-linejoin="round"/>
    <path d="M 32.115264892578125 185.22354125976562 C 77.88134765625 205.4213104248047 55.16048049926758 196.504150390625 96.32167053222656 203.0935821533203" stroke-width="3.0" fill="none" stroke="rgb(0, 0, 0)" stroke-opacity="1.0" stroke-linecap="round" stroke-linejoin="round"/>
    <path d="M 118.85745239257812 131.24905395507812 C 129.56695556640625 150.0146026611328 139.16458129882812 137.31463623046875 125.70738220214844 137.7324676513672" stroke-width="3.0" fill="none" stroke="rgb(0, 0, 0)" stroke-opacity="1.0" stroke-linecap="round" stroke-linejoin="round"/>
    <path d="M 152.0378875732422 112.10010528564453 C 149.86061096191406 102.9532699584961 123.7767105102539 103.00527954101562 178.67825317382812 110.61949157714844" stroke-width="3.0" fill="none" stroke="rgb(0, 0, 0)" stroke-opacity="1.0" stroke-linecap="round" stroke-linejoin="round"/>
    <path d="M 80.97356414794922 100.71363830566406 C 100.39683532714844 107.03276062011719 58.157108306884766 90.74269104003906 39.30711364746094 110.96979522705078" stroke-width="3.0" fill="none" stroke="rgb(0, 0, 0)" stroke-opacity="1.0" stroke-linecap="round" stroke-linejoin="round"/>
    <path d="M 29.645029067993164 115.39466094970703 C 88.82044982910156 116.51448059082031 75.99169921875 126.99456024169922 89.74337768554688 110.05451965332031" stroke-width="3.0" fill="none" stroke="rgb(0, 0, 0)" stroke-opacity="1.0" stroke-linecap="round" stroke-linejoin="round"/>
    <path d="M 20.45864486694336 59.43509292602539 C 49.31778335571289 22.95569610595703 34.38135528564453 38.63251876831055 53.888858795166016 24.07106590270996" stroke-width="3.0" fill="none" stroke="rgb(0, 0, 0)" stroke-opacity="1.0" stroke-linecap="round" stroke-linejoin="round"/>
    <path d="M 175.43470764160156 134.2917938232422 C 160.91497802734375 135.45379638671875 133.46185302734375 133.15966796875 112.64579772949219 137.1391143798828" stroke-width="3.0" fill="none" stroke="rgb(0, 0, 0)" stroke-opacity="1.0" stroke-linecap="round" stroke-linejoin="round"/>
    <path d="M 43.402042388916016 131.35641479492188 C 46.57822036743164 147.0460968017578 79.71698760986328 135.72044372558594 25.32932472229004 124.01518249511719" stroke-width="3.0" fill="none" stroke="rgb(0, 0, 0)" stroke-opacity="1.0" stroke-linecap="round" stroke-linejoin="round"/>
    <path d="M 95.92025756835938 83.32649993896484 C 111.87366485595703 80.306884765625 123.68721771240234 88.54782104492188 124.37939453125 82.51736450195312" stroke-width="3.0" fill="none" stroke="rgb(0, 0, 0)" stroke-opacity="1.0" stroke-linecap="round" stroke-linejoin="round"/>
    <path d="M 161.7758331298828 97.8629379272461 C 171.80899047851562 91.70150756835938 140.585205078125 80.9994888305664 131.2172088623047 81.30718994140625" stroke-width="3.0" fill="none" stroke="rgb(0, 0, 0)" stroke-opacity="1.0" stroke-linecap="round" stroke-linejoin="round"/>
  </g>
</svg>
