<?xml version="1.0" ?>
<svg xmlns="http://www.w3.org/2000/svg" version="1.1" width="224" height="224">
  <defs/>
  <g>
    <path d="M 70.61170959472656 106.19441986083984 C 121.30573272705078 92.824951171875 118.81666564941406 135.3148956298828 106.28427124023438 151.97640991210938" stroke-width="3.0" fill="none" stroke="rgb(0, 0, 0)" stroke-opacity="1.0" stroke-linecap="round" stroke-linejoin="round"/>
    <path d="M 81.18614959716797 128.33163452148438 C 101.3506851196289 157.32456970214844 73.0250473022461 147.82138061523438 81.10098266601562 131.45199584960938" stroke-width="3.0" fill="none" stroke="rgb(0, 0, 0)" stroke-opacity="1.0" stroke-linecap="round" stroke-linejoin="round"/>
    <path d="M 52.67999267578125 127.18021392822266 C -2.187008857727051 115.16841125488281 5.619243144989014 123.4383316040039 83.55025482177734 124.3953628540039" stroke-width="3.0" fill="none" stroke="rgb(0, 0, 0)" stroke-opacity="1.0" stroke-linecap="round" stroke-linejoin="round"/>
    <path d="M 23.204914093017578 109.20333099365234 C 103.64720916748047 120.3648681640625 85.80944061279297 112.91313934326172 85.18544006347656 119.4835433959961" stroke-width="3.0" fill="none" stroke="rgb(0, 0, 0)" stroke-opacity="1.0" stroke-linecap="round" stroke-linejoin="round"/>
    <path d="M 102.24512481689453 92.94032287597656 C 192.25990295410156 108.7066879272461 171.19461059570312 113.8851318359375 113.27503967285156 91.59937286376953" stroke-width="3.0" fill="none" stroke="rgb(0, 0, 0)" stroke-opacity="1.0" stroke-linecap="round" stroke-linejoin="round"/>
    <path d="M 172.79635620117188 144.05177307128906 C 162.9952850341797 110.3750228881836 217.2510986328125 115.14447784423828 143.41806030273438 101.42001342773438" stroke-width="3.0" fill="none" stroke="rgb(0, 0, 0)" stroke-opacity="1.0" stroke-linecap="round" stroke-linejoin="round"/>
    <path d="M 30.089412689208984 98.65303039550781 C 144.817626953125 89.515380859375 138.69140625 86.3337631225586 31.62773323059082 93.32525634765625" stroke-width="3.0" fill="none" stroke="rgb(0, 0, 0)" stroke-opacity="1.0" stroke-linecap="round" stroke-linejoin="round"/>
    <path d="M 70.67313385009766 130.64193725585938 C 102.78336334228516 131.59849548339844 82.08486938476562 139.14503479003906 40.910179138183594 131.47315979003906" stroke-width="3.0" fill="none" stroke="rgb(0, 0, 0)" stroke-opacity="1.0" stroke-linecap="round" stroke-linejoin="round"/>
    <path d="M 120.30638885498047 213.2749786376953 C 198.98992919921875 193.26197814941406 149.6029815673828 202.09671020507812 177.6763153076172 195.57740783691406" stroke-width="3.0" fill="none" stroke="rgb(0, 0, 0)" stroke-opacity="1.0" stroke-linecap="round" stroke-linejoin="round"/>
    <path d="M 150.24514770507812 107.56202697753906 C 184.53213500976562 107.28429412841797 189.5615234375 124.0385513305664 192.95162963867188 115.80435180664062" stroke-width="3.0" fill="none" stroke="rgb(0, 0, 0)" stroke-opacity="1.0" stroke-linecap="round" stroke-linejoin="round"/>
    <path d="M 96.15658569335938 103.07215118408203 C 129.7189483642578 105.49649810791016 105.45490264892578 140.0140380859375 139.5628204345703 133.5506591796875" stroke-width="3.0" fill="none" stroke="rgb(0, 0, 0)" stroke-opacity="1.0" stroke-linecap="round" stroke-linejoin="round"/>
    <path d="M 23.734107971191406 101.65742492675781 C 145.3961639404297 97.43157958984375 102.3249282836914 111.2524642944336 21.15711784362793 107.04496765136719" stroke-width="3.0" fill="none" stroke="rgb(0, 0, 0)" stroke-opacity="1.0" stroke-linecap="round" stroke-linejoin="round"/>
    <path d="M 179.96421813964844 115.93726348876953 C 129.92437744140625 107.58999633789062 160.9130401611328 114.228271484375 116.79449462890625 107.3016357421875" stroke-width="3.0" fill="none" stroke="rgb(0, 0, 0)" stroke-opacity="1.0" stroke-linecap="round" stroke-linejoin="round"/>
    <path d="M 71.47015380859375 204.37518310546875 C 87.1816635131836 210.54437255859375 105.91613006591797 213.58953857421875 118.59963989257812 210.30023193359375" stroke-width="3.0" fill="none" stroke="rgb(0, 0, 0)" stroke-opacity="1.0" stroke-linecap="round" stroke-linejoin="round"/>
    <path d="M 173.38247680664062 27.50440788269043 C 188.03073120117188 36.1057243347168 230.5673370361328 77.87178802490234 214.2378692626953 136.6456756591797" stroke-width="3.0" fill="none" stroke="rgb(0, 0, 0)" stroke-opacity="1.0" stroke-linecap="round" stroke-linejoin="round"/>
    <path d="M 115.19322967529297 81.77133178710938 C 136.76087951660156 79.64910125732422 133.7799072265625 79.88125610351562 124.2363052368164 96.55431365966797" stroke-width="3.0" fill="none" stroke="rgb(0, 0, 0)" stroke-opacity="1.0" stroke-linecap="round" stroke-linejoin="round"/>
    <path d="M 65.5218734741211 25.525442123413086 C 116.20921325683594 -8.585535049438477 168.31085205078125 20.024921417236328 188.95944213867188 37.79544448852539" stroke-width="3.0" fill="none" stroke="rgb(0, 0, 0)" stroke-opacity="1.0" stroke-linecap="round" stroke-linejoin="round"/>
    <path d="M 127.66802215576172 133.20199584960938 C 132.63458251953125 153.75790405273438 144.01329040527344 129.29254150390625 138.84498596191406 135.93128967285156" stroke-width="3.0" fill="none" stroke="rgb(0, 0, 0)" stroke-opacity="1.0" stroke-linecap="round" stroke-linejoin="round"/>
    <path d="M 64.17195892333984 129.25592041015625 C 57.09943771362305 137.7410888671875 67.00341796875 145.98048400878906 17.24245262145996 131.59649658203125" stroke-width="3.0" fill="none" stroke="rgb(0, 0, 0)" stroke-opacity="1.0" stroke-linecap="round" stroke-linejoin="round"/>
    <path d="M 168.50875854492188 138.43914794921875 C 189.15589904785156 167.2032012939453 182.7071533203125 103.99542236328125 177.0973358154297 132.8858184814453" stroke-width="3.0" fill="none" stroke="rgb(0, 0, 0)" stroke-opacity="1.0" stroke-linecap="round" stroke-linejoin="round"/>
    <path d="M 130.07070922851562 209.42332458496094 C 106.2597427368164 212.86453247070312 101.75592041015625 214.8224639892578 132.93287658691406 211.48814392089844" stroke-width="3.0" fill="none" stroke="rgb(0, 0, 0)" stroke-opacity="1.0" stroke-linecap="round" stroke-linejoin="round"/>
    <path d="M 56.63700866699219 146.1148223876953 C 81.33633422851562 143.8267059326172 62.514583587646484 155.66265869140625 22.281339645385742 131.9300079345703" stroke-width="3.0" fill="none" stroke="rgb(0, 0, 0)" stroke-opacity="1.0" stroke-linecap="round" stroke-linejoin="round"/>
    <path d="M 91.29754638671875 85.96490478515625 C 53.903011322021484 84.3247299194336 12.17369556427002 93.578857421875 77.40171813964844 92.34603118896484" stroke-width="3.0" fill="none" stroke="rgb(0, 0, 0)" stroke-opacity="1.0" stroke-linecap="round" stroke-linejoin="round"/>
    <path d="M 74.36383056640625 102.03955078125 C 83.59532928466797 107.04515838623047 108.3734130859375 119.46080017089844 54.60735321044922 118.56526947021484" stroke-width="3.0" fill="none" stroke="rgb(0, 0, 0)" stroke-opacity="1.0" stroke-linecap="round" stroke-linejoin="round"/>
    <path d="M 160.969970703125 95.52336883544922 C 110.71102142333984 81.01881408691406 153.470458984375 100.8116683959961 152.77023315429688 94.23613739013672" stroke-width="3.0" fill="none" stroke="rgb(0, 0, 0)" stroke-opacity="1.0" stroke-linecap="round" stroke-linejoin="round"/>
    <path d="M 96.54368591308594 118.68182373046875 C 66.93710327148438 141.823974609375 112.98775482177734 156.07406616210938 81.26043701171875 141.252685546875" stroke-width="3.0" fill="none" stroke="rgb(0, 0, 0)" stroke-opacity="1.0" stroke-linecap="round" stroke-linejoin="round"/>
    <path d="M 25.990678787231445 50.402591705322266 C 18.892181396484375 65.4308853149414 0.9416362047195435 94.07052612304688 7.870068550109863 128.84584045410156" stroke-width="3.0" fill="none" stroke="rgb(0, 0, 0)" stroke-opacity="1.0" stroke-linecap="round" stroke-linejoin="round"/>
    <path d="M 179.94927978515625 193.04571533203125 C 189.9530792236328 176.01173400878906 216.97157287597656 153.92079162597656 215.50975036621094 114.96879577636719" stroke-width="3.0" fill="none" stroke="rgb(0, 0, 0)" stroke-opacity="1.0" stroke-linecap="round" stroke-linejoin="round"/>
    <path d="M 150.3141632080078 108.29168701171875 C 211.3789520263672 121.96121978759766 204.53573608398438 111.97517395019531 153.194580078125 107.4447250366211" stroke-width="3.0" fill="none" stroke="rgb(0, 0, 0)" stroke-opacity="1.0" stroke-linecap="round" stroke-linejoin="round"/>
    <path d="M 139.96685791015625 95.93228912353516 C 233.71006774902344 114.46456146240234 161.54600524902344 102.984619140625 169.1856689453125 135.97706604003906" stroke-width="3.0" fill="none" stroke="rgb(0, 0, 0)" stroke-opacity="1.0" stroke-linecap="round" stroke-linejoin="round"/>
    <path d="M 156.10008239746094 97.7772445678711 C 133.9417266845703 84.83451843261719 123.6154556274414 114.257080078125 134.7203826904297 82.57905578613281" stroke-width="3.0" fill="none" stroke="rgb(0, 0, 0)" stroke-opacity="1.0" stroke-linecap="round" stroke-linejoin="round"/>
    <path d="M 82.59268951416016 145.00877380371094 C 127.42285919189453 168.69979858398438 102.93682861328125 80.91957092285156 87.6034164428711 126.24906921386719" stroke-width="3.0" fill="none" stroke="rgb(0, 0, 0)" stroke-opacity="1.0" stroke-linecap="round" stroke-linejoin="round"/>
    <path d="M 175.202392578125 118.66021728515625 C 196.638671875 98.45671081542969 189.85110473632812 134.1702117919922 188.3848876953125 114.35513305664062" stroke-width="3.0" fill="none" stroke="rgb(0, 0, 0)" stroke-opacity="1.0" stroke-linecap="round" stroke-linejoin="round"/>
    <path d="M 134.12973022460938 99.07853698730469 C 107.73753356933594 93.72028350830078 187.02841186523438 114.2528076171875 136.83702087402344 100.60799407958984" stroke-width="3.0" fill="none" stroke="rgb(0, 0, 0)" stroke-opacity="1.0" stroke-linecap="round" stroke-linejoin="round"/>
    <path d="M 64.49176025390625 24.80325698852539 C 104.60565185546875 12.687400817871094 88.4310531616211 7.760244846343994 64.1634521484375 22.561031341552734" stroke-width="3.0" fill="none" stroke="rgb(0, 0, 0)" stroke-opacity="1.0" stroke-linecap="round" stroke-linejoin="round"/>
    <path d="M 28.319108963012695 128.388916015625 C 115.1973648071289 134.9853057861328 98.85784912109375 151.7001953125 31.029706954956055 143.31629943847656" stroke-width="3.0" fill="none" stroke="rgb(0, 0, 0)" stroke-opacity="1.0" stroke-linecap="round" stroke-linejoin="round"/>
    <path d="M 176.00897216796875 145.26332092285156 C 158.472900390625 103.68669128417969 198.663818359375 117.8515853881836 181.55792236328125 143.12188720703125" stroke-width="3.0" fill="none" stroke="rgb(0, 0, 0)" stroke-opacity="1.0" stroke-linecap="round" stroke-linejoin="round"/>
    <path d="M 51.332942962646484 140.20437622070312 C 0.5361325144767761 100.1390380859375 14.91028881072998 94.50538635253906 79.9438247680664 110.02802276611328" stroke-width="3.0" fill="none" stroke="rgb(0, 0, 0)" stroke-opacity="1.0" stroke-linecap="round" stroke-linejoin="round"/>
    <path d="M 5.7411065101623535 121.05938720703125 C 14.753289222717285 189.91488647460938 78.20789337158203 210.18185424804688 98.37504577636719 210.19711303710938" stroke-width="3.0" fill="none" stroke="rgb(0, 0, 0)" stroke-opacity="1.0" stroke-linecap="round" stroke-linejoin="round"/>
    <path d="M 110.71255493164062 155.7419891357422 C 137.60853576660156 159.4838104248047 142.02981567382812 160.6001434326172 114.75440216064453 156.8524627685547" stroke-width="3.0" fill="none" stroke="rgb(0, 0, 0)" stroke-opacity="1.0" stroke-linecap="round" stroke-linejoin="round"/>
    <path d="M 154.6218719482422 105.96943664550781 C 152.10992431640625 106.88106536865234 129.26217651367188 101.95603942871094 190.13894653320312 118.37687683105469" stroke-width="3.0" fill="none" stroke="rgb(0, 0, 0)" stroke-opacity="1.0" stroke-linecap="round" stroke-linejoin="round"/>
    <path d="M 56.02290344238281 97.8692855834961 C 82.5876235961914 118.91090393066406 50.487796783447266 85.41181182861328 45.48487091064453 119.1366958618164" stroke-width="3.0" fill="none" stroke="rgb(0, 0, 0)" stroke-opacity="1.0" stroke-linecap="round" stroke-linejoin="round"/>
    <path d="M 30.6124324798584 96.864990234375 C 112.18350219726562 109.89444732666016 75.98139190673828 123.44277954101562 95.1554946899414 105.37274169921875" stroke-width="3.0" fill="none" stroke="rgb(0, 0, 0)" stroke-opacity="1.0" stroke-linecap="round" stroke-linejoin="round"/>
    <path d="M 26.969532012939453 48.417537689208984 C 50.11594009399414 26.129318237304688 38.11963653564453 28.659223556518555 65.0911636352539 17.943544387817383" stroke-width="3.0" fill="none" stroke="rgb(0, 0, 0)" stroke-opacity="1.0" stroke-linecap="round" stroke-linejoin="round"/>
    <path d="M 182.88973999023438 140.577392578125 C 153.5217742919922 137.9753875732422 95.1640625 134.02685546875 123.57146453857422 133.75469970703125" stroke-width="3.0" fill="none" stroke="rgb(0, 0, 0)" stroke-opacity="1.0" stroke-linecap="round" stroke-linejoin="round"/>
    <path d="M 37.72986602783203 132.59210205078125 C 87.54073333740234 135.0346221923828 117.14765930175781 130.03953552246094 28.16429901123047 127.2459945678711" stroke-width="3.0" fill="none" stroke="rgb(0, 0, 0)" stroke-opacity="1.0" stroke-linecap="round" stroke-linejoin="round"/>
    <path d="M 95.79173278808594 86.21295928955078 C 104.03524780273438 81.5092544555664 122.23353576660156 79.42542266845703 132.4950714111328 82.41258239746094" stroke-width="3.0" fill="none" stroke="rgb(0, 0, 0)" stroke-opacity="1.0" stroke-linecap="round" stroke-linejoin="round"/>
    <path d="M 161.4322509765625 99.36819458007812 C 179.9665069580078 99.673583984375 136.54432678222656 78.6774673461914 124.69721984863281 82.01710510253906" stroke-width="3.0" fill="none" stroke="rgb(0, 0, 0)" stroke-opacity="1.0" stroke-linecap="round" stroke-linejoin="round"/>
  </g>
</svg>
