<?xml version="1.0" ?>
<svg xmlns="http://www.w3.org/2000/svg" version="1.1" width="224" height="224">
  <defs/>
  <g>
    <path d="M 69.89703369140625 109.30789947509766 C 126.55371856689453 93.60691833496094 120.06011199951172 149.32040405273438 96.42703247070312 151.74546813964844" stroke-width="3.0" fill="none" stroke="rgb(0, 0, 0)" stroke-opacity="1.0" stroke-linecap="round" stroke-linejoin="round"/>
    <path d="M 78.11808013916016 121.04029846191406 C 94.36972045898438 161.68077087402344 81.02333068847656 144.64010620117188 78.00312042236328 133.05551147460938" stroke-width="3.0" fill="none" stroke="rgb(0, 0, 0)" stroke-opacity="1.0" stroke-linecap="round" stroke-linejoin="round"/>
    <path d="M 58.89440155029297 132.07235717773438 C 17.922515869140625 160.37960815429688 8.351061820983887 157.28684997558594 72.8347396850586 132.2820281982422" stroke-width="3.0" fill="none" stroke="rgb(0, 0, 0)" stroke-opacity="1.0" stroke-linecap="round" stroke-linejoin="round"/>
    <path d="M 47.02431106567383 125.35486602783203 C 115.71133422851562 131.93531799316406 78.19860076904297 121.78288269042969 85.50338745117188 143.42945861816406" stroke-width="3.0" fill="none" stroke="rgb(0, 0, 0)" stroke-opacity="1.0" stroke-linecap="round" stroke-linejoin="round"/>
    <path d="M 93.2955093383789 86.5964584350586 C 203.76980590820312 90.27423095703125 192.41815185546875 100.81463623046875 105.89436340332031 98.33232879638672" stroke-width="3.0" fill="none" stroke="rgb(0, 0, 0)" stroke-opacity="1.0" stroke-linecap="round" stroke-linejoin="round"/>
    <path d="M 164.6548309326172 140.0526123046875 C 167.9395294189453 100.42548370361328 212.30447387695312 111.70252227783203 143.41140747070312 108.1484375" stroke-width="3.0" fill="none" stroke="rgb(0, 0, 0)" stroke-opacity="1.0" stroke-linecap="round" stroke-linejoin="round"/>
    <path d="M 29.294342041015625 98.99604034423828 C 172.13902282714844 95.68607330322266 163.6958770751953 91.7518081665039 54.2777214050293 88.17147827148438" stroke-width="3.0" fill="none" stroke="rgb(0, 0, 0)" stroke-opacity="1.0" stroke-linecap="round" stroke-linejoin="round"/>
    <path d="M 90.63575744628906 140.07615661621094 C 92.02476501464844 130.41744995117188 73.79571533203125 139.75001525878906 42.02510070800781 131.358154296875" stroke-width="3.0" fill="none" stroke="rgb(0, 0, 0)" stroke-opacity="1.0" stroke-linecap="round" stroke-linejoin="round"/>
    <path d="M 109.57315063476562 215.19821166992188 C 187.36187744140625 193.63583374023438 149.1959228515625 205.39016723632812 178.181640625 192.80667114257812" stroke-width="3.0" fill="none" stroke="rgb(0, 0, 0)" stroke-opacity="1.0" stroke-linecap="round" stroke-linejoin="round"/>
    <path d="M 161.27549743652344 109.63809967041016 C 199.635498046875 113.64323425292969 188.032470703125 129.09046936035156 193.71473693847656 116.208740234375" stroke-width="3.0" fill="none" stroke="rgb(0, 0, 0)" stroke-opacity="1.0" stroke-linecap="round" stroke-linejoin="round"/>
    <path d="M 104.11638641357422 104.24097442626953 C 133.02159118652344 118.3707275390625 100.48165893554688 148.43038940429688 158.1439208984375 150.39105224609375" stroke-width="3.0" fill="none" stroke="rgb(0, 0, 0)" stroke-opacity="1.0" stroke-linecap="round" stroke-linejoin="round"/>
    <path d="M 40.265052795410156 103.63500213623047 C 129.6854705810547 97.9715576171875 79.29130554199219 120.98736572265625 36.00596237182617 105.50562286376953" stroke-width="3.0" fill="none" stroke="rgb(0, 0, 0)" stroke-opacity="1.0" stroke-linecap="round" stroke-linejoin="round"/>
    <path d="M 192.75950622558594 112.22977447509766 C 153.66307067871094 107.43196105957031 169.8322296142578 109.53668212890625 87.05430603027344 102.28482055664062" stroke-width="3.0" fill="none" stroke="rgb(0, 0, 0)" stroke-opacity="1.0" stroke-linecap="round" stroke-linejoin="round"/>
    <path d="M 38.34331512451172 183.9862823486328 C 82.18470764160156 215.66851806640625 116.95771026611328 211.57362365722656 129.7919464111328 207.13316345214844" stroke-width="3.0" fill="none" stroke="rgb(0, 0, 0)" stroke-opacity="1.0" stroke-linecap="round" stroke-linejoin="round"/>
    <path d="M 178.48703002929688 28.17804527282715 C 187.92567443847656 38.35075759887695 231.79443359375 79.6795883178711 214.80291748046875 138.2344512939453" stroke-width="3.0" fill="none" stroke="rgb(0, 0, 0)" stroke-opacity="1.0" stroke-linecap="round" stroke-linejoin="round"/>
    <path d="M 92.53829193115234 84.30989074707031 C 139.15660095214844 73.43013000488281 153.75933837890625 91.90425109863281 132.84461975097656 91.36000061035156" stroke-width="3.0" fill="none" stroke="rgb(0, 0, 0)" stroke-opacity="1.0" stroke-linecap="round" stroke-linejoin="round"/>
    <path d="M 72.06905364990234 28.505191802978516 C 88.7240219116211 -15.238785743713379 174.545166015625 11.295268058776855 191.41905212402344 42.37721252441406" stroke-width="3.0" fill="none" stroke="rgb(0, 0, 0)" stroke-opacity="1.0" stroke-linecap="round" stroke-linejoin="round"/>
    <path d="M 114.96420288085938 138.81195068359375 C 158.17086791992188 139.0231475830078 191.6278533935547 136.0441436767578 130.51710510253906 143.06536865234375" stroke-width="3.0" fill="none" stroke="rgb(0, 0, 0)" stroke-opacity="1.0" stroke-linecap="round" stroke-linejoin="round"/>
    <path d="M 74.3355941772461 120.7242202758789 C 68.93665313720703 140.09744262695312 43.23021697998047 154.11865234375 38.57147979736328 128.45123291015625" stroke-width="3.0" fill="none" stroke="rgb(0, 0, 0)" stroke-opacity="1.0" stroke-linecap="round" stroke-linejoin="round"/>
    <path d="M 171.7981719970703 146.55087280273438 C 192.72406005859375 159.5681915283203 181.55043029785156 102.79171752929688 180.4731903076172 134.63816833496094" stroke-width="3.0" fill="none" stroke="rgb(0, 0, 0)" stroke-opacity="1.0" stroke-linecap="round" stroke-linejoin="round"/>
    <path d="M 153.60116577148438 197.13731384277344 C 97.18760681152344 194.3116912841797 102.24128723144531 196.16700744628906 154.48263549804688 192.46566772460938" stroke-width="3.0" fill="none" stroke="rgb(0, 0, 0)" stroke-opacity="1.0" stroke-linecap="round" stroke-linejoin="round"/>
    <path d="M 70.81720733642578 109.56063079833984 C 69.58501434326172 137.46249389648438 56.14896774291992 152.69142150878906 40.53847885131836 123.66524505615234" stroke-width="3.0" fill="none" stroke="rgb(0, 0, 0)" stroke-opacity="1.0" stroke-linecap="round" stroke-linejoin="round"/>
    <path d="M 109.3485107421875 91.21253967285156 C 76.85767364501953 79.0234375 34.84794998168945 84.87372589111328 98.05560302734375 87.61383056640625" stroke-width="3.0" fill="none" stroke="rgb(0, 0, 0)" stroke-opacity="1.0" stroke-linecap="round" stroke-linejoin="round"/>
    <path d="M 76.78778076171875 108.47998809814453 C 81.50774383544922 102.62749481201172 104.28826904296875 137.82354736328125 50.5646858215332 116.5262680053711" stroke-width="3.0" fill="none" stroke="rgb(0, 0, 0)" stroke-opacity="1.0" stroke-linecap="round" stroke-linejoin="round"/>
    <path d="M 154.41908264160156 100.19771575927734 C 85.5550308227539 98.03054809570312 156.01673889160156 100.8441162109375 154.5265655517578 102.59112548828125" stroke-width="3.0" fill="none" stroke="rgb(0, 0, 0)" stroke-opacity="1.0" stroke-linecap="round" stroke-linejoin="round"/>
    <path d="M 93.921142578125 111.9311752319336 C 74.73072052001953 144.348876953125 121.07096099853516 155.26463317871094 84.2931137084961 141.6704559326172" stroke-width="3.0" fill="none" stroke="rgb(0, 0, 0)" stroke-opacity="1.0" stroke-linecap="round" stroke-linejoin="round"/>
    <path d="M 24.611345291137695 50.22270584106445 C 19.227855682373047 66.16656494140625 -2.102674722671509 94.07035827636719 9.784722328186035 130.0758514404297" stroke-width="3.0" fill="none" stroke="rgb(0, 0, 0)" stroke-opacity="1.0" stroke-linecap="round" stroke-linejoin="round"/>
    <path d="M 181.09434509277344 190.77423095703125 C 191.2270965576172 181.91049194335938 227.20266723632812 146.60874938964844 217.78565979003906 99.94315338134766" stroke-width="3.0" fill="none" stroke="rgb(0, 0, 0)" stroke-opacity="1.0" stroke-linecap="round" stroke-linejoin="round"/>
    <path d="M 152.35340881347656 111.1688232421875 C 219.66030883789062 123.18460083007812 203.77842712402344 112.13385009765625 171.39877319335938 98.57369232177734" stroke-width="3.0" fill="none" stroke="rgb(0, 0, 0)" stroke-opacity="1.0" stroke-linecap="round" stroke-linejoin="round"/>
    <path d="M 130.72312927246094 91.23434448242188 C 251.9906005859375 125.6429672241211 149.5532989501953 93.11127471923828 173.8451385498047 143.96200561523438" stroke-width="3.0" fill="none" stroke="rgb(0, 0, 0)" stroke-opacity="1.0" stroke-linecap="round" stroke-linejoin="round"/>
    <path d="M 144.06387329101562 93.6611557006836 C 135.48036193847656 64.90142822265625 120.90582275390625 121.12403106689453 126.76637268066406 84.57250213623047" stroke-width="3.0" fill="none" stroke="rgb(0, 0, 0)" stroke-opacity="1.0" stroke-linecap="round" stroke-linejoin="round"/>
    <path d="M 74.41788482666016 147.13584899902344 C 141.00111389160156 152.66220092773438 87.6626968383789 90.21968078613281 99.5628662109375 135.28741455078125" stroke-width="3.0" fill="none" stroke="rgb(0, 0, 0)" stroke-opacity="1.0" stroke-linecap="round" stroke-linejoin="round"/>
    <path d="M 185.04800415039062 119.20159149169922 C 183.16571044921875 104.25277709960938 193.5527801513672 133.3005828857422 188.83554077148438 134.15682983398438" stroke-width="3.0" fill="none" stroke="rgb(0, 0, 0)" stroke-opacity="1.0" stroke-linecap="round" stroke-linejoin="round"/>
    <path d="M 137.56739807128906 94.16986083984375 C 107.41883850097656 90.25785064697266 195.0171356201172 101.74909973144531 143.26663208007812 97.10347747802734" stroke-width="3.0" fill="none" stroke="rgb(0, 0, 0)" stroke-opacity="1.0" stroke-linecap="round" stroke-linejoin="round"/>
    <path d="M 60.727012634277344 9.4957857131958 C 97.88388061523438 -12.072945594787598 94.54602813720703 -13.467241287231445 63.48816680908203 9.512444496154785" stroke-width="3.0" fill="none" stroke="rgb(0, 0, 0)" stroke-opacity="1.0" stroke-linecap="round" stroke-linejoin="round"/>
    <path d="M 29.978809356689453 118.79644775390625 C 104.64070892333984 136.49465942382812 106.66386413574219 159.78114318847656 38.18138122558594 147.6041259765625" stroke-width="3.0" fill="none" stroke="rgb(0, 0, 0)" stroke-opacity="1.0" stroke-linecap="round" stroke-linejoin="round"/>
    <path d="M 169.4708251953125 143.11959838867188 C 160.0619354248047 101.03555297851562 206.1751251220703 116.32087707519531 182.4784393310547 146.13267517089844" stroke-width="3.0" fill="none" stroke="rgb(0, 0, 0)" stroke-opacity="1.0" stroke-linecap="round" stroke-linejoin="round"/>
    <path d="M 61.857547760009766 139.48828125 C 13.716279983520508 116.07467651367188 31.268939971923828 85.0498046875 81.14566802978516 108.71920776367188" stroke-width="3.0" fill="none" stroke="rgb(0, 0, 0)" stroke-opacity="1.0" stroke-linecap="round" stroke-linejoin="round"/>
    <path d="M 6.146793842315674 119.38485717773438 C 14.998404502868652 187.67901611328125 79.20924377441406 218.35516357421875 113.16097259521484 213.7277374267578" stroke-width="3.0" fill="none" stroke="rgb(0, 0, 0)" stroke-opacity="1.0" stroke-linecap="round" stroke-linejoin="round"/>
    <path d="M 73.08270263671875 150.84393310546875 C 171.50323486328125 153.60560607910156 182.86477661132812 144.8804168701172 109.99273681640625 148.1529541015625" stroke-width="3.0" fill="none" stroke="rgb(0, 0, 0)" stroke-opacity="1.0" stroke-linecap="round" stroke-linejoin="round"/>
    <path d="M 169.16604614257812 113.60935974121094 C 137.49139404296875 105.89492797851562 117.04368591308594 104.39000701904297 191.77679443359375 116.57511138916016" stroke-width="3.0" fill="none" stroke="rgb(0, 0, 0)" stroke-opacity="1.0" stroke-linecap="round" stroke-linejoin="round"/>
    <path d="M 60.91434097290039 88.65965270996094 C 39.079524993896484 131.90846252441406 43.509273529052734 90.5092544555664 52.67454528808594 117.938720703125" stroke-width="3.0" fill="none" stroke="rgb(0, 0, 0)" stroke-opacity="1.0" stroke-linecap="round" stroke-linejoin="round"/>
    <path d="M 29.01576805114746 120.73107147216797 C 114.73353576660156 117.95968627929688 70.44841003417969 122.06196594238281 92.99600219726562 105.70677947998047" stroke-width="3.0" fill="none" stroke="rgb(0, 0, 0)" stroke-opacity="1.0" stroke-linecap="round" stroke-linejoin="round"/>
    <path d="M 25.464202880859375 48.759315490722656 C 47.16987991333008 23.812637329101562 41.50303649902344 25.59872055053711 63.524574279785156 8.253179550170898" stroke-width="3.0" fill="none" stroke="rgb(0, 0, 0)" stroke-opacity="1.0" stroke-linecap="round" stroke-linejoin="round"/>
    <path d="M 185.36866760253906 142.39413452148438 C 173.4456024169922 145.42103576660156 74.47237396240234 149.0679931640625 124.26123809814453 133.5379180908203" stroke-width="3.0" fill="none" stroke="rgb(0, 0, 0)" stroke-opacity="1.0" stroke-linecap="round" stroke-linejoin="round"/>
    <path d="M 35.25408935546875 127.0715560913086 C 86.89665985107422 128.2875213623047 123.45158386230469 134.60646057128906 41.00688552856445 129.54116821289062" stroke-width="3.0" fill="none" stroke="rgb(0, 0, 0)" stroke-opacity="1.0" stroke-linecap="round" stroke-linejoin="round"/>
    <path d="M 99.31771850585938 91.90254211425781 C 86.92916870117188 85.44134521484375 113.34336853027344 78.28713989257812 111.8283462524414 80.55428314208984" stroke-width="3.0" fill="none" stroke="rgb(0, 0, 0)" stroke-opacity="1.0" stroke-linecap="round" stroke-linejoin="round"/>
    <path d="M 153.92953491210938 101.59700012207031 C 171.98863220214844 88.7359390258789 130.90618896484375 73.70075988769531 104.98332977294922 81.2017593383789" stroke-width="3.0" fill="none" stroke="rgb(0, 0, 0)" stroke-opacity="1.0" stroke-linecap="round" stroke-linejoin="round"/>
  </g>
</svg>
