<?xml version="1.0" ?>
<svg xmlns="http://www.w3.org/2000/svg" version="1.1" width="224" height="224">
  <defs/>
  <g>
    <path d="M 111.83533477783203 105.86559295654297 C 131.70835876464844 110.29046630859375 126.16604614257812 113.288818359375 125.42263793945312 123.35411071777344" stroke-width="3.0" fill="none" stroke="rgb(0, 0, 0)" stroke-opacity="1.0" stroke-linecap="round" stroke-linejoin="round"/>
    <path d="M 66.11026763916016 131.34811401367188 C 73.95220947265625 151.98077392578125 70.00354766845703 145.09185791015625 72.24593353271484 127.03923034667969" stroke-width="3.0" fill="none" stroke="rgb(0, 0, 0)" stroke-opacity="1.0" stroke-linecap="round" stroke-linejoin="round"/>
    <path d="M 42.516109466552734 113.06210327148438 C 18.90707015991211 116.1048583984375 40.13422775268555 126.5762710571289 71.10242462158203 137.22125244140625" stroke-width="3.0" fill="none" stroke="rgb(0, 0, 0)" stroke-opacity="1.0" stroke-linecap="round" stroke-linejoin="round"/>
    <path d="M 49.341590881347656 122.4040756225586 C 76.76936340332031 124.72817993164062 84.66402435302734 136.44717407226562 76.93965911865234 108.78874969482422" stroke-width="3.0" fill="none" stroke="rgb(0, 0, 0)" stroke-opacity="1.0" stroke-linecap="round" stroke-linejoin="round"/>
    <path d="M 129.4784698486328 103.71112823486328 C 181.55931091308594 113.31819915771484 168.9739227294922 104.43672180175781 94.75749206542969 92.87693786621094" stroke-width="3.0" fill="none" stroke="rgb(0, 0, 0)" stroke-opacity="1.0" stroke-linecap="round" stroke-linejoin="round"/>
    <path d="M 169.28541564941406 128.220703125 C 167.6353759765625 124.90342712402344 171.50270080566406 128.03640747070312 150.4088592529297 128.40060424804688" stroke-width="3.0" fill="none" stroke="rgb(0, 0, 0)" stroke-opacity="1.0" stroke-linecap="round" stroke-linejoin="round"/>
    <path d="M 71.3686294555664 98.41532135009766 C 102.67402648925781 96.98396301269531 97.28447723388672 109.34908294677734 63.76667785644531 108.21128845214844" stroke-width="3.0" fill="none" stroke="rgb(0, 0, 0)" stroke-opacity="1.0" stroke-linecap="round" stroke-linejoin="round"/>
    <path d="M 71.12316131591797 145.45065307617188 C 77.79393005371094 145.3261260986328 64.03623962402344 144.93447875976562 54.7640380859375 139.3572540283203" stroke-width="3.0" fill="none" stroke="rgb(0, 0, 0)" stroke-opacity="1.0" stroke-linecap="round" stroke-linejoin="round"/>
    <path d="M 166.1007080078125 196.12399291992188 C 158.45724487304688 206.08917236328125 170.08407592773438 195.48062133789062 174.10191345214844 189.7454071044922" stroke-width="3.0" fill="none" stroke="rgb(0, 0, 0)" stroke-opacity="1.0" stroke-linecap="round" stroke-linejoin="round"/>
    <path d="M 164.2355194091797 99.07849884033203 C 180.81248474121094 105.83969116210938 180.12611389160156 101.27716827392578 199.01136779785156 113.62530517578125" stroke-width="3.0" fill="none" stroke="rgb(0, 0, 0)" stroke-opacity="1.0" stroke-linecap="round" stroke-linejoin="round"/>
    <path d="M 122.51273345947266 110.51057434082031 C 131.31759643554688 122.51472473144531 124.85881805419922 149.92503356933594 139.21229553222656 131.4489288330078" stroke-width="3.0" fill="none" stroke="rgb(0, 0, 0)" stroke-opacity="1.0" stroke-linecap="round" stroke-linejoin="round"/>
    <path d="M 39.483436584472656 100.75698852539062 C 95.88323211669922 99.72947692871094 76.86538696289062 106.4502182006836 59.14198303222656 117.97590637207031" stroke-width="3.0" fill="none" stroke="rgb(0, 0, 0)" stroke-opacity="1.0" stroke-linecap="round" stroke-linejoin="round"/>
    <path d="M 153.37139892578125 130.84056091308594 C 130.50457763671875 130.20213317871094 150.68080139160156 127.29846954345703 142.36619567871094 113.13758087158203" stroke-width="3.0" fill="none" stroke="rgb(0, 0, 0)" stroke-opacity="1.0" stroke-linecap="round" stroke-linejoin="round"/>
    <path d="M 118.91694641113281 176.4725341796875 C 109.95455169677734 172.683349609375 112.19242095947266 179.0823974609375 112.27257537841797 172.85679626464844" stroke-width="3.0" fill="none" stroke="rgb(0, 0, 0)" stroke-opacity="1.0" stroke-linecap="round" stroke-linejoin="round"/>
    <path d="M 171.57644653320312 24.6624755859375 C 192.6034698486328 37.97710037231445 204.8614044189453 56.228271484375 216.7356414794922 94.14265441894531" stroke-width="3.0" fill="none" stroke="rgb(0, 0, 0)" stroke-opacity="1.0" stroke-linecap="round" stroke-linejoin="round"/>
    <path d="M 99.10970306396484 78.5582046508789 C 149.47096252441406 78.50679016113281 137.3928985595703 83.38968658447266 127.17747497558594 95.82073211669922" stroke-width="3.0" fill="none" stroke="rgb(0, 0, 0)" stroke-opacity="1.0" stroke-linecap="round" stroke-linejoin="round"/>
    <path d="M 117.08987426757812 12.599711418151855 C 146.46826171875 12.074718475341797 162.90460205078125 20.717979431152344 179.73463439941406 31.083105087280273" stroke-width="3.0" fill="none" stroke="rgb(0, 0, 0)" stroke-opacity="1.0" stroke-linecap="round" stroke-linejoin="round"/>
    <path d="M 137.43296813964844 135.7541961669922 C 140.50877380371094 139.08380126953125 128.15174865722656 141.7528076171875 137.74783325195312 134.552734375" stroke-width="3.0" fill="none" stroke="rgb(0, 0, 0)" stroke-opacity="1.0" stroke-linecap="round" stroke-linejoin="round"/>
    <path d="M 71.09037017822266 136.25816345214844 C 50.86034393310547 150.849853515625 60.659000396728516 149.6754150390625 34.39073944091797 141.71507263183594" stroke-width="3.0" fill="none" stroke="rgb(0, 0, 0)" stroke-opacity="1.0" stroke-linecap="round" stroke-linejoin="round"/>
    <path d="M 170.03868103027344 132.36599731445312 C 188.84951782226562 165.58319091796875 189.19540405273438 98.4285888671875 174.24684143066406 130.46241760253906" stroke-width="3.0" fill="none" stroke="rgb(0, 0, 0)" stroke-opacity="1.0" stroke-linecap="round" stroke-linejoin="round"/>
    <path d="M 115.49832153320312 200.5685577392578 C 114.91531372070312 190.9222412109375 112.47502899169922 192.29444885253906 119.95861053466797 192.06936645507812" stroke-width="3.0" fill="none" stroke="rgb(0, 0, 0)" stroke-opacity="1.0" stroke-linecap="round" stroke-linejoin="round"/>
    <path d="M 51.951446533203125 136.21795654296875 C 53.87053298950195 121.7847900390625 52.642601013183594 118.98760986328125 31.542808532714844 127.31602478027344" stroke-width="3.0" fill="none" stroke="rgb(0, 0, 0)" stroke-opacity="1.0" stroke-linecap="round" stroke-linejoin="round"/>
    <path d="M 64.77279663085938 102.39717864990234 C 68.74939727783203 111.52489471435547 29.0548152923584 110.06957244873047 62.39542770385742 103.45549011230469" stroke-width="3.0" fill="none" stroke="rgb(0, 0, 0)" stroke-opacity="1.0" stroke-linecap="round" stroke-linejoin="round"/>
    <path d="M 72.63043212890625 119.76136779785156 C 73.91273498535156 106.5740966796875 79.9586410522461 112.55573272705078 57.181495666503906 114.67320251464844" stroke-width="3.0" fill="none" stroke="rgb(0, 0, 0)" stroke-opacity="1.0" stroke-linecap="round" stroke-linejoin="round"/>
    <path d="M 147.46231079101562 105.1124267578125 C 115.51737976074219 91.25852966308594 153.67991638183594 119.62240600585938 161.29794311523438 95.8382568359375" stroke-width="3.0" fill="none" stroke="rgb(0, 0, 0)" stroke-opacity="1.0" stroke-linecap="round" stroke-linejoin="round"/>
    <path d="M 87.43221282958984 107.73457336425781 C 72.78387451171875 126.97016906738281 81.49755096435547 188.27113342285156 77.88739776611328 131.08924865722656" stroke-width="3.0" fill="none" stroke="rgb(0, 0, 0)" stroke-opacity="1.0" stroke-linecap="round" stroke-linejoin="round"/>
    <path d="M 15.651580810546875 84.07525634765625 C 19.273563385009766 79.80502319335938 15.85901927947998 72.8707504272461 11.665552139282227 107.85716247558594" stroke-width="3.0" fill="none" stroke="rgb(0, 0, 0)" stroke-opacity="1.0" stroke-linecap="round" stroke-linejoin="round"/>
    <path d="M 177.03509521484375 185.59674072265625 C 184.70172119140625 174.45130920410156 181.229248046875 188.08187866210938 194.000244140625 160.1980743408203" stroke-width="3.0" fill="none" stroke="rgb(0, 0, 0)" stroke-opacity="1.0" stroke-linecap="round" stroke-linejoin="round"/>
    <path d="M 162.8547821044922 112.61748504638672 C 205.28652954101562 120.44142150878906 208.43202209472656 112.176513671875 159.55325317382812 104.38106536865234" stroke-width="3.0" fill="none" stroke="rgb(0, 0, 0)" stroke-opacity="1.0" stroke-linecap="round" stroke-linejoin="round"/>
    <path d="M 151.07374572753906 103.96701049804688 C 181.49923706054688 115.95460510253906 178.72833251953125 101.84601593017578 169.13002014160156 132.45468139648438" stroke-width="3.0" fill="none" stroke="rgb(0, 0, 0)" stroke-opacity="1.0" stroke-linecap="round" stroke-linejoin="round"/>
    <path d="M 142.05010986328125 104.93643951416016 C 145.17210388183594 100.20220947265625 133.2605438232422 119.40327453613281 138.74610900878906 83.5604476928711" stroke-width="3.0" fill="none" stroke="rgb(0, 0, 0)" stroke-opacity="1.0" stroke-linecap="round" stroke-linejoin="round"/>
    <path d="M 103.80372619628906 147.85781860351562 C 122.08112335205078 125.99969482421875 104.85868072509766 87.75177764892578 88.36138153076172 106.5438461303711" stroke-width="3.0" fill="none" stroke="rgb(0, 0, 0)" stroke-opacity="1.0" stroke-linecap="round" stroke-linejoin="round"/>
    <path d="M 195.88711547851562 112.5080337524414 C 194.2073211669922 111.98932647705078 190.13638305664062 116.30094146728516 189.44908142089844 119.65776062011719" stroke-width="3.0" fill="none" stroke="rgb(0, 0, 0)" stroke-opacity="1.0" stroke-linecap="round" stroke-linejoin="round"/>
    <path d="M 156.16795349121094 121.58229064941406 C 146.6700439453125 100.22743225097656 178.5219268798828 101.96586608886719 143.54409790039062 100.4610824584961" stroke-width="3.0" fill="none" stroke="rgb(0, 0, 0)" stroke-opacity="1.0" stroke-linecap="round" stroke-linejoin="round"/>
    <path d="M 68.60736083984375 20.875253677368164 C 85.4250717163086 33.74957275390625 87.44532775878906 28.01783561706543 64.3776626586914 22.64577293395996" stroke-width="3.0" fill="none" stroke="rgb(0, 0, 0)" stroke-opacity="1.0" stroke-linecap="round" stroke-linejoin="round"/>
    <path d="M 51.46775436401367 131.25588989257812 C 78.32975769042969 132.14662170410156 67.76396179199219 134.47923278808594 55.009315490722656 144.21395874023438" stroke-width="3.0" fill="none" stroke="rgb(0, 0, 0)" stroke-opacity="1.0" stroke-linecap="round" stroke-linejoin="round"/>
    <path d="M 167.47364807128906 126.65143585205078 C 176.36761474609375 111.90510559082031 193.51605224609375 112.48196411132812 186.66744995117188 131.88868713378906" stroke-width="3.0" fill="none" stroke="rgb(0, 0, 0)" stroke-opacity="1.0" stroke-linecap="round" stroke-linejoin="round"/>
    <path d="M 49.801170349121094 135.752197265625 C 36.34089660644531 97.29545593261719 24.935714721679688 97.66036224365234 69.19766998291016 112.6495132446289" stroke-width="3.0" fill="none" stroke="rgb(0, 0, 0)" stroke-opacity="1.0" stroke-linecap="round" stroke-linejoin="round"/>
    <path d="M 94.9910659790039 177.30783081054688 C 90.30516052246094 164.96177673339844 89.7764892578125 169.58358764648438 96.48079681396484 182.833251953125" stroke-width="3.0" fill="none" stroke="rgb(0, 0, 0)" stroke-opacity="1.0" stroke-linecap="round" stroke-linejoin="round"/>
    <path d="M 118.9905776977539 130.4876708984375 C 118.98727416992188 147.43162536621094 116.32652282714844 125.3097915649414 119.09197998046875 130.03329467773438" stroke-width="3.0" fill="none" stroke="rgb(0, 0, 0)" stroke-opacity="1.0" stroke-linecap="round" stroke-linejoin="round"/>
    <path d="M 155.09552001953125 114.49569702148438 C 156.2959747314453 120.23240661621094 133.90065002441406 111.55333709716797 182.7423095703125 114.76311492919922" stroke-width="3.0" fill="none" stroke="rgb(0, 0, 0)" stroke-opacity="1.0" stroke-linecap="round" stroke-linejoin="round"/>
    <path d="M 74.13549041748047 113.68989562988281 C 72.8963851928711 119.8136978149414 57.01927185058594 117.561767578125 70.83430480957031 113.9784927368164" stroke-width="3.0" fill="none" stroke="rgb(0, 0, 0)" stroke-opacity="1.0" stroke-linecap="round" stroke-linejoin="round"/>
    <path d="M 42.78898239135742 117.52571105957031 C 68.43367004394531 120.31819915771484 94.56756591796875 121.62995910644531 71.83724975585938 125.96752166748047" stroke-width="3.0" fill="none" stroke="rgb(0, 0, 0)" stroke-opacity="1.0" stroke-linecap="round" stroke-linejoin="round"/>
    <path d="M 24.425079345703125 57.30474090576172 C 43.42819595336914 27.92328453063965 41.52851867675781 36.594547271728516 49.879058837890625 27.333599090576172" stroke-width="3.0" fill="none" stroke="rgb(0, 0, 0)" stroke-opacity="1.0" stroke-linecap="round" stroke-linejoin="round"/>
    <path d="M 168.3648681640625 132.13375854492188 C 149.83909606933594 131.47483825683594 155.5489959716797 132.84378051757812 119.73214721679688 131.04742431640625" stroke-width="3.0" fill="none" stroke="rgb(0, 0, 0)" stroke-opacity="1.0" stroke-linecap="round" stroke-linejoin="round"/>
    <path d="M 29.907896041870117 121.78158569335938 C 39.13569641113281 127.56907653808594 60.663368225097656 119.61920928955078 27.17375373840332 122.74790954589844" stroke-width="3.0" fill="none" stroke="rgb(0, 0, 0)" stroke-opacity="1.0" stroke-linecap="round" stroke-linejoin="round"/>
    <path d="M 87.31080627441406 89.6841049194336 C 107.46212768554688 71.82013702392578 107.07942199707031 86.54424285888672 109.09732818603516 90.69863891601562" stroke-width="3.0" fill="none" stroke="rgb(0, 0, 0)" stroke-opacity="1.0" stroke-linecap="round" stroke-linejoin="round"/>
    <path d="M 166.34686279296875 100.56949615478516 C 166.7311553955078 88.3644027709961 146.98707580566406 84.70538330078125 142.53265380859375 84.80319213867188" stroke-width="3.0" fill="none" stroke="rgb(0, 0, 0)" stroke-opacity="1.0" stroke-linecap="round" stroke-linejoin="round"/>
  </g>
</svg>
