<?xml version="1.0" ?>
<svg xmlns="http://www.w3.org/2000/svg" version="1.1" width="224" height="224">
  <defs/>
  <g>
    <path d="M 77.04418182373047 116.84830474853516 C 127.85205078125 91.48072814941406 118.85627746582031 162.385498046875 87.43338775634766 151.18527221679688" stroke-width="3.0" fill="none" stroke="rgb(0, 0, 0)" stroke-opacity="1.0" stroke-linecap="round" stroke-linejoin="round"/>
    <path d="M 70.62429809570312 135.7746124267578 C 97.00770568847656 163.49864196777344 84.44869232177734 148.22975158691406 76.56446838378906 129.55703735351562" stroke-width="3.0" fill="none" stroke="rgb(0, 0, 0)" stroke-opacity="1.0" stroke-linecap="round" stroke-linejoin="round"/>
    <path d="M 89.37093353271484 148.20594787597656 C 37.603981018066406 145.17123413085938 55.25201416015625 157.2945098876953 81.57120513916016 132.08848571777344" stroke-width="3.0" fill="none" stroke="rgb(0, 0, 0)" stroke-opacity="1.0" stroke-linecap="round" stroke-linejoin="round"/>
    <path d="M 40.873111724853516 123.20101165771484 C 119.8448257446289 132.27488708496094 75.639404296875 116.20323181152344 67.71479034423828 147.7356719970703" stroke-width="3.0" fill="none" stroke="rgb(0, 0, 0)" stroke-opacity="1.0" stroke-linecap="round" stroke-linejoin="round"/>
    <path d="M 112.05575561523438 80.18974304199219 C 198.09906005859375 93.97232818603516 193.1058349609375 112.6693344116211 127.9969711303711 98.78949737548828" stroke-width="3.0" fill="none" stroke="rgb(0, 0, 0)" stroke-opacity="1.0" stroke-linecap="round" stroke-linejoin="round"/>
    <path d="M 166.71444702148438 135.3497314453125 C 173.9536895751953 96.39058685302734 207.39120483398438 112.59392547607422 144.27027893066406 102.56614685058594" stroke-width="3.0" fill="none" stroke="rgb(0, 0, 0)" stroke-opacity="1.0" stroke-linecap="round" stroke-linejoin="round"/>
    <path d="M 28.393478393554688 102.07747650146484 C 194.0290985107422 113.3338851928711 167.30902099609375 89.59423065185547 38.742000579833984 93.97467041015625" stroke-width="3.0" fill="none" stroke="rgb(0, 0, 0)" stroke-opacity="1.0" stroke-linecap="round" stroke-linejoin="round"/>
    <path d="M 102.98833465576172 137.66835021972656 C 115.69065856933594 103.62078094482422 100.67256164550781 135.02764892578125 39.94136047363281 128.02993774414062" stroke-width="3.0" fill="none" stroke="rgb(0, 0, 0)" stroke-opacity="1.0" stroke-linecap="round" stroke-linejoin="round"/>
    <path d="M 119.43106842041016 212.09967041015625 C 178.85476684570312 195.83621215820312 170.58018493652344 196.11415100097656 182.4901580810547 190.08644104003906" stroke-width="3.0" fill="none" stroke="rgb(0, 0, 0)" stroke-opacity="1.0" stroke-linecap="round" stroke-linejoin="round"/>
    <path d="M 153.69680786132812 114.62583923339844 C 210.66946411132812 112.91780090332031 182.42364501953125 126.27619171142578 200.05320739746094 111.6364517211914" stroke-width="3.0" fill="none" stroke="rgb(0, 0, 0)" stroke-opacity="1.0" stroke-linecap="round" stroke-linejoin="round"/>
    <path d="M 100.60783386230469 107.77894592285156 C 138.08505249023438 118.17457580566406 92.5428466796875 147.5463104248047 157.54405212402344 144.56271362304688" stroke-width="3.0" fill="none" stroke="rgb(0, 0, 0)" stroke-opacity="1.0" stroke-linecap="round" stroke-linejoin="round"/>
    <path d="M 30.246444702148438 107.34100341796875 C 121.4627456665039 105.81137084960938 95.63813781738281 121.90410614013672 32.34949493408203 115.73155975341797" stroke-width="3.0" fill="none" stroke="rgb(0, 0, 0)" stroke-opacity="1.0" stroke-linecap="round" stroke-linejoin="round"/>
    <path d="M 185.930419921875 108.11212158203125 C 150.38377380371094 114.68024444580078 170.5276641845703 106.21318817138672 72.43891906738281 100.6004638671875" stroke-width="3.0" fill="none" stroke="rgb(0, 0, 0)" stroke-opacity="1.0" stroke-linecap="round" stroke-linejoin="round"/>
    <path d="M 28.000234603881836 169.71337890625 C 72.78604888916016 218.8425750732422 118.2141342163086 209.7744140625 135.24851989746094 204.127685546875" stroke-width="3.0" fill="none" stroke="rgb(0, 0, 0)" stroke-opacity="1.0" stroke-linecap="round" stroke-linejoin="round"/>
    <path d="M 177.9737091064453 26.294349670410156 C 190.8163299560547 35.82380294799805 235.44215393066406 79.2588119506836 213.57008361816406 139.3887481689453" stroke-width="3.0" fill="none" stroke="rgb(0, 0, 0)" stroke-opacity="1.0" stroke-linecap="round" stroke-linejoin="round"/>
    <path d="M 91.24736785888672 93.85621643066406 C 120.08185577392578 68.39004516601562 153.8437042236328 99.84793090820312 139.54298400878906 92.06549835205078" stroke-width="3.0" fill="none" stroke="rgb(0, 0, 0)" stroke-opacity="1.0" stroke-linecap="round" stroke-linejoin="round"/>
    <path d="M 68.50145721435547 30.4476375579834 C 87.52742004394531 -15.265993118286133 172.9405975341797 9.67265796661377 195.92416381835938 43.07900619506836" stroke-width="3.0" fill="none" stroke="rgb(0, 0, 0)" stroke-opacity="1.0" stroke-linecap="round" stroke-linejoin="round"/>
    <path d="M 116.10620880126953 135.93020629882812 C 166.11561584472656 140.4068603515625 204.9703826904297 135.5852813720703 122.97277069091797 133.16893005371094" stroke-width="3.0" fill="none" stroke="rgb(0, 0, 0)" stroke-opacity="1.0" stroke-linecap="round" stroke-linejoin="round"/>
    <path d="M 82.43675994873047 133.51768493652344 C 83.67606353759766 145.99176025390625 26.342798233032227 156.7880401611328 41.22382736206055 133.6779327392578" stroke-width="3.0" fill="none" stroke="rgb(0, 0, 0)" stroke-opacity="1.0" stroke-linecap="round" stroke-linejoin="round"/>
    <path d="M 176.95652770996094 145.3597869873047 C 200.1455841064453 147.11477661132812 178.11387634277344 101.14772033691406 174.2159423828125 132.07479858398438" stroke-width="3.0" fill="none" stroke="rgb(0, 0, 0)" stroke-opacity="1.0" stroke-linecap="round" stroke-linejoin="round"/>
    <path d="M 180.84405517578125 190.61257934570312 C 132.52223205566406 187.15248107910156 139.61154174804688 175.87081909179688 175.67254638671875 192.0179901123047" stroke-width="3.0" fill="none" stroke="rgb(0, 0, 0)" stroke-opacity="1.0" stroke-linecap="round" stroke-linejoin="round"/>
    <path d="M 69.47000122070312 112.08148193359375 C 96.09820556640625 133.98257446289062 63.948936462402344 145.7664031982422 29.849565505981445 123.3538818359375" stroke-width="3.0" fill="none" stroke="rgb(0, 0, 0)" stroke-opacity="1.0" stroke-linecap="round" stroke-linejoin="round"/>
    <path d="M 111.09556579589844 81.69971466064453 C 103.56988525390625 81.1937484741211 65.78231048583984 73.6567153930664 114.5135498046875 82.24410247802734" stroke-width="3.0" fill="none" stroke="rgb(0, 0, 0)" stroke-opacity="1.0" stroke-linecap="round" stroke-linejoin="round"/>
    <path d="M 74.93669891357422 114.54316711425781 C 80.09281921386719 111.99358367919922 114.53234100341797 125.30604553222656 47.22920608520508 117.8010482788086" stroke-width="3.0" fill="none" stroke="rgb(0, 0, 0)" stroke-opacity="1.0" stroke-linecap="round" stroke-linejoin="round"/>
    <path d="M 152.0959014892578 114.16482543945312 C 68.21736907958984 104.27411651611328 158.4667205810547 109.66134643554688 164.95506286621094 94.42184448242188" stroke-width="3.0" fill="none" stroke="rgb(0, 0, 0)" stroke-opacity="1.0" stroke-linecap="round" stroke-linejoin="round"/>
    <path d="M 95.5338363647461 110.10999298095703 C 59.6988410949707 146.34442138671875 110.84132385253906 149.44046020507812 81.0871810913086 147.39114379882812" stroke-width="3.0" fill="none" stroke="rgb(0, 0, 0)" stroke-opacity="1.0" stroke-linecap="round" stroke-linejoin="round"/>
    <path d="M 24.165849685668945 50.65399169921875 C 18.933025360107422 66.05731964111328 -0.7606518268585205 98.10725402832031 7.45654821395874 130.25387573242188" stroke-width="3.0" fill="none" stroke="rgb(0, 0, 0)" stroke-opacity="1.0" stroke-linecap="round" stroke-linejoin="round"/>
    <path d="M 181.69268798828125 190.48699951171875 C 188.96339416503906 182.94041442871094 227.61148071289062 142.03366088867188 218.21646118164062 98.94920349121094" stroke-width="3.0" fill="none" stroke="rgb(0, 0, 0)" stroke-opacity="1.0" stroke-linecap="round" stroke-linejoin="round"/>
    <path d="M 150.4599609375 115.89982604980469 C 221.91018676757812 121.3922348022461 209.90377807617188 104.23828125 163.68896484375 100.38138580322266" stroke-width="3.0" fill="none" stroke="rgb(0, 0, 0)" stroke-opacity="1.0" stroke-linecap="round" stroke-linejoin="round"/>
    <path d="M 133.1468048095703 104.50651550292969 C 264.4605712890625 123.61058807373047 140.3896942138672 95.98809814453125 174.0662078857422 146.44229125976562" stroke-width="3.0" fill="none" stroke="rgb(0, 0, 0)" stroke-opacity="1.0" stroke-linecap="round" stroke-linejoin="round"/>
    <path d="M 163.24244689941406 97.90735626220703 C 140.43887329101562 65.6125717163086 124.66521453857422 131.1073760986328 133.36795043945312 81.98045349121094" stroke-width="3.0" fill="none" stroke="rgb(0, 0, 0)" stroke-opacity="1.0" stroke-linecap="round" stroke-linejoin="round"/>
    <path d="M 61.01632308959961 143.1074676513672 C 141.17684936523438 165.5416717529297 90.01441955566406 91.98792266845703 97.407958984375 127.40624237060547" stroke-width="3.0" fill="none" stroke="rgb(0, 0, 0)" stroke-opacity="1.0" stroke-linecap="round" stroke-linejoin="round"/>
    <path d="M 166.51663208007812 110.40769958496094 C 187.36851501464844 99.85588836669922 200.20359802246094 127.13638305664062 181.81809997558594 146.59791564941406" stroke-width="3.0" fill="none" stroke="rgb(0, 0, 0)" stroke-opacity="1.0" stroke-linecap="round" stroke-linejoin="round"/>
    <path d="M 133.98255920410156 81.84391784667969 C 112.3191146850586 112.39491271972656 191.115234375 105.22512817382812 141.69271850585938 98.07146453857422" stroke-width="3.0" fill="none" stroke="rgb(0, 0, 0)" stroke-opacity="1.0" stroke-linecap="round" stroke-linejoin="round"/>
    <path d="M 61.43519973754883 19.532060623168945 C 105.82496643066406 -8.105517387390137 106.10401153564453 -7.939309120178223 69.34288024902344 12.178001403808594" stroke-width="3.0" fill="none" stroke="rgb(0, 0, 0)" stroke-opacity="1.0" stroke-linecap="round" stroke-linejoin="round"/>
    <path d="M 30.091087341308594 119.52210235595703 C 88.61563110351562 139.2571258544922 95.18366241455078 144.6943817138672 33.7617073059082 139.02023315429688" stroke-width="3.0" fill="none" stroke="rgb(0, 0, 0)" stroke-opacity="1.0" stroke-linecap="round" stroke-linejoin="round"/>
    <path d="M 175.04661560058594 138.03370666503906 C 156.57952880859375 98.69549560546875 198.82566833496094 121.03044891357422 183.597412109375 134.88523864746094" stroke-width="3.0" fill="none" stroke="rgb(0, 0, 0)" stroke-opacity="1.0" stroke-linecap="round" stroke-linejoin="round"/>
    <path d="M 59.28510665893555 143.96849060058594 C 14.308714866638184 119.88523864746094 29.176210403442383 82.41062927246094 53.953285217285156 104.74423217773438" stroke-width="3.0" fill="none" stroke="rgb(0, 0, 0)" stroke-opacity="1.0" stroke-linecap="round" stroke-linejoin="round"/>
    <path d="M 4.675000190734863 122.81523895263672 C 15.188725471496582 187.17369079589844 79.06346130371094 220.80084228515625 118.76737976074219 212.12890625" stroke-width="3.0" fill="none" stroke="rgb(0, 0, 0)" stroke-opacity="1.0" stroke-linecap="round" stroke-linejoin="round"/>
    <path d="M 69.61103820800781 151.88861083984375 C 190.8771514892578 149.78765869140625 213.95977783203125 140.99679565429688 113.4836196899414 142.8968505859375" stroke-width="3.0" fill="none" stroke="rgb(0, 0, 0)" stroke-opacity="1.0" stroke-linecap="round" stroke-linejoin="round"/>
    <path d="M 172.17367553710938 122.43109893798828 C 140.10694885253906 113.16407012939453 117.78245544433594 115.27213287353516 189.51473999023438 115.68651580810547" stroke-width="3.0" fill="none" stroke="rgb(0, 0, 0)" stroke-opacity="1.0" stroke-linecap="round" stroke-linejoin="round"/>
    <path d="M 28.329639434814453 101.94827270507812 C 29.96446990966797 118.46011352539062 63.30934143066406 77.22052001953125 53.9981575012207 114.18744659423828" stroke-width="3.0" fill="none" stroke="rgb(0, 0, 0)" stroke-opacity="1.0" stroke-linecap="round" stroke-linejoin="round"/>
    <path d="M 33.059417724609375 119.36885833740234 C 127.4306411743164 124.94832611083984 75.4798812866211 127.8617935180664 103.89746856689453 119.96678924560547" stroke-width="3.0" fill="none" stroke="rgb(0, 0, 0)" stroke-opacity="1.0" stroke-linecap="round" stroke-linejoin="round"/>
    <path d="M 25.597198486328125 48.85322570800781 C 49.440643310546875 24.13475227355957 44.956050872802734 25.980119705200195 67.72499084472656 13.762614250183105" stroke-width="3.0" fill="none" stroke="rgb(0, 0, 0)" stroke-opacity="1.0" stroke-linecap="round" stroke-linejoin="round"/>
    <path d="M 181.72262573242188 146.18846130371094 C 182.39183044433594 149.34146118164062 59.32693099975586 146.28201293945312 136.09873962402344 138.49371337890625" stroke-width="3.0" fill="none" stroke="rgb(0, 0, 0)" stroke-opacity="1.0" stroke-linecap="round" stroke-linejoin="round"/>
    <path d="M 39.74796676635742 126.84523010253906 C 90.61053466796875 125.96539306640625 129.6280517578125 127.2509536743164 44.07726287841797 132.7486572265625" stroke-width="3.0" fill="none" stroke="rgb(0, 0, 0)" stroke-opacity="1.0" stroke-linecap="round" stroke-linejoin="round"/>
    <path d="M 99.85370635986328 82.37169647216797 C 86.24044036865234 87.2316665649414 123.17538452148438 78.99478912353516 114.28560638427734 82.34663391113281" stroke-width="3.0" fill="none" stroke="rgb(0, 0, 0)" stroke-opacity="1.0" stroke-linecap="round" stroke-linejoin="round"/>
    <path d="M 172.14227294921875 106.39710998535156 C 173.61509704589844 95.26747131347656 120.81057739257812 66.48717498779297 87.9149169921875 83.22969818115234" stroke-width="3.0" fill="none" stroke="rgb(0, 0, 0)" stroke-opacity="1.0" stroke-linecap="round" stroke-linejoin="round"/>
  </g>
</svg>
