<?xml version="1.0" ?>
<svg xmlns="http://www.w3.org/2000/svg" version="1.1" width="224" height="224">
  <defs/>
  <g>
    <path d="M 116.99995422363281 120.99996948242188 C 118.8582763671875 121.88970184326172 117.9694595336914 119.18973541259766 118.09526062011719 120.12416076660156" stroke-width="3.0" fill="none" stroke="rgb(0, 0, 0)" stroke-opacity="1.0" stroke-linecap="round" stroke-linejoin="round"/>
    <path d="M 68.99932861328125 130.99893188476562 C 72.17716217041016 126.7972640991211 71.91548156738281 127.73104858398438 76.48675537109375 127.78353118896484" stroke-width="3.0" fill="none" stroke="rgb(0, 0, 0)" stroke-opacity="1.0" stroke-linecap="round" stroke-linejoin="round"/>
    <path d="M 47.999786376953125 123.0010757446289 C 43.55815887451172 127.86448669433594 44.882530212402344 125.07047271728516 49.471561431884766 130.47781372070312" stroke-width="3.0" fill="none" stroke="rgb(0, 0, 0)" stroke-opacity="1.0" stroke-linecap="round" stroke-linejoin="round"/>
    <path d="M 65.00004577636719 120.99991607666016 C 70.47396087646484 125.50384521484375 66.34834289550781 128.07821655273438 70.81519317626953 130.1388702392578" stroke-width="3.0" fill="none" stroke="rgb(0, 0, 0)" stroke-opacity="1.0" stroke-linecap="round" stroke-linejoin="round"/>
    <path d="M 131.0004425048828 113.00019836425781 C 130.68873596191406 110.52686309814453 129.95094299316406 111.76952362060547 134.57647705078125 116.99566650390625" stroke-width="3.0" fill="none" stroke="rgb(0, 0, 0)" stroke-opacity="1.0" stroke-linecap="round" stroke-linejoin="round"/>
    <path d="M 155.99984741210938 125.00013732910156 C 153.7428436279297 129.09182739257812 153.0596466064453 132.50814819335938 151.60549926757812 127.06529235839844" stroke-width="3.0" fill="none" stroke="rgb(0, 0, 0)" stroke-opacity="1.0" stroke-linecap="round" stroke-linejoin="round"/>
    <path d="M 59.99814224243164 114.00019836425781 C 62.45927429199219 112.86698150634766 66.09711456298828 114.78290557861328 58.51185989379883 114.67838287353516" stroke-width="3.0" fill="none" stroke="rgb(0, 0, 0)" stroke-opacity="1.0" stroke-linecap="round" stroke-linejoin="round"/>
    <path d="M 58.99995422363281 148.9999542236328 C 63.11552047729492 144.1820831298828 59.160118103027344 148.2813262939453 55.69942092895508 151.0371551513672" stroke-width="3.0" fill="none" stroke="rgb(0, 0, 0)" stroke-opacity="1.0" stroke-linecap="round" stroke-linejoin="round"/>
    <path d="M 163.0000457763672 199.00006103515625 C 160.07257080078125 204.23667907714844 163.46836853027344 205.65248107910156 160.76898193359375 203.63829040527344" stroke-width="3.0" fill="none" stroke="rgb(0, 0, 0)" stroke-opacity="1.0" stroke-linecap="round" stroke-linejoin="round"/>
    <path d="M 172.99989318847656 110.00009155273438 C 171.08901977539062 114.84786224365234 166.7105712890625 115.42218017578125 169.02919006347656 116.0387191772461" stroke-width="3.0" fill="none" stroke="rgb(0, 0, 0)" stroke-opacity="1.0" stroke-linecap="round" stroke-linejoin="round"/>
    <path d="M 126.99960327148438 137.9997100830078 C 130.52020263671875 136.451416015625 135.71575927734375 137.6070556640625 136.69830322265625 138.99053955078125" stroke-width="3.0" fill="none" stroke="rgb(0, 0, 0)" stroke-opacity="1.0" stroke-linecap="round" stroke-linejoin="round"/>
    <path d="M 71.0001220703125 118.00004577636719 C 74.078369140625 116.71105194091797 74.92566680908203 116.36125946044922 69.44895935058594 110.8544692993164" stroke-width="3.0" fill="none" stroke="rgb(0, 0, 0)" stroke-opacity="1.0" stroke-linecap="round" stroke-linejoin="round"/>
    <path d="M 148.99977111816406 121.99981689453125 C 150.26007080078125 121.7559814453125 149.9993896484375 117.16110229492188 152.8842315673828 121.3805160522461" stroke-width="3.0" fill="none" stroke="rgb(0, 0, 0)" stroke-opacity="1.0" stroke-linecap="round" stroke-linejoin="round"/>
    <path d="M 110.99996948242188 169.0001678466797 C 115.7411880493164 172.83602905273438 120.20101928710938 177.57443237304688 118.65615844726562 178.3563690185547" stroke-width="3.0" fill="none" stroke="rgb(0, 0, 0)" stroke-opacity="1.0" stroke-linecap="round" stroke-linejoin="round"/>
    <path d="M 190.99989318847656 52.00001525878906 C 191.2996368408203 49.487178802490234 194.78965759277344 55.401187896728516 199.2139434814453 54.40743637084961" stroke-width="3.0" fill="none" stroke="rgb(0, 0, 0)" stroke-opacity="1.0" stroke-linecap="round" stroke-linejoin="round"/>
    <path d="M 128.00015258789062 82.99992370605469 C 133.04298400878906 83.8924331665039 134.4835968017578 83.68743896484375 138.04238891601562 90.35701751708984" stroke-width="3.0" fill="none" stroke="rgb(0, 0, 0)" stroke-opacity="1.0" stroke-linecap="round" stroke-linejoin="round"/>
    <path d="M 156.00003051757812 16.000038146972656 C 161.28468322753906 13.322481155395508 160.54872131347656 13.170663833618164 164.0059814453125 17.03559684753418" stroke-width="3.0" fill="none" stroke="rgb(0, 0, 0)" stroke-opacity="1.0" stroke-linecap="round" stroke-linejoin="round"/>
    <path d="M 152.00021362304688 141.0000762939453 C 149.12237548828125 143.5928192138672 144.83413696289062 140.46461486816406 150.13299560546875 140.58616638183594" stroke-width="3.0" fill="none" stroke="rgb(0, 0, 0)" stroke-opacity="1.0" stroke-linecap="round" stroke-linejoin="round"/>
    <path d="M 56.99961471557617 135.99996948242188 C 58.54332733154297 131.52618408203125 54.57902145385742 131.74734497070312 49.48430633544922 132.5680389404297" stroke-width="3.0" fill="none" stroke="rgb(0, 0, 0)" stroke-opacity="1.0" stroke-linecap="round" stroke-linejoin="round"/>
    <path d="M 173.99949645996094 145.99996948242188 C 178.59197998046875 146.38287353515625 180.6145782470703 141.08177185058594 182.12657165527344 140.27320861816406" stroke-width="3.0" fill="none" stroke="rgb(0, 0, 0)" stroke-opacity="1.0" stroke-linecap="round" stroke-linejoin="round"/>
    <path d="M 127.00017547607422 207.0004119873047 C 127.8508529663086 205.7817840576172 128.3919219970703 211.1634979248047 121.2038803100586 207.80560302734375" stroke-width="3.0" fill="none" stroke="rgb(0, 0, 0)" stroke-opacity="1.0" stroke-linecap="round" stroke-linejoin="round"/>
    <path d="M 45.99580764770508 139.99990844726562 C 49.16362762451172 134.47181701660156 44.95133590698242 131.23143005371094 48.319644927978516 138.12413024902344" stroke-width="3.0" fill="none" stroke="rgb(0, 0, 0)" stroke-opacity="1.0" stroke-linecap="round" stroke-linejoin="round"/>
    <path d="M 64.00006866455078 116.99983215332031 C 60.65337371826172 114.16706085205078 54.19692611694336 111.47808837890625 51.065311431884766 113.12364196777344" stroke-width="3.0" fill="none" stroke="rgb(0, 0, 0)" stroke-opacity="1.0" stroke-linecap="round" stroke-linejoin="round"/>
    <path d="M 69.99993896484375 135.9998779296875 C 68.32284545898438 130.4198455810547 66.36450958251953 125.26072692871094 63.894290924072266 132.72879028320312" stroke-width="3.0" fill="none" stroke="rgb(0, 0, 0)" stroke-opacity="1.0" stroke-linecap="round" stroke-linejoin="round"/>
    <path d="M 153.99954223632812 89.00008392333984 C 148.63330078125 87.41654205322266 153.21636962890625 93.2048568725586 155.9137420654297 89.5025634765625" stroke-width="3.0" fill="none" stroke="rgb(0, 0, 0)" stroke-opacity="1.0" stroke-linecap="round" stroke-linejoin="round"/>
    <path d="M 82.99995422363281 125.00016021728516 C 82.93368530273438 130.22792053222656 77.98452758789062 134.198486328125 81.85252380371094 132.43267822265625" stroke-width="3.0" fill="none" stroke="rgb(0, 0, 0)" stroke-opacity="1.0" stroke-linecap="round" stroke-linejoin="round"/>
    <path d="M 10.000025749206543 97.00005340576172 C 9.207670211791992 98.08409118652344 8.561594009399414 94.44208526611328 6.243873119354248 95.43243408203125" stroke-width="3.0" fill="none" stroke="rgb(0, 0, 0)" stroke-opacity="1.0" stroke-linecap="round" stroke-linejoin="round"/>
    <path d="M 182.99990844726562 181.99560546875 C 183.7735595703125 180.09811401367188 179.6627960205078 178.49673461914062 185.4440155029297 177.70668029785156" stroke-width="3.0" fill="none" stroke="rgb(0, 0, 0)" stroke-opacity="1.0" stroke-linecap="round" stroke-linejoin="round"/>
    <path d="M 177.99993896484375 117.0001220703125 C 176.67971801757812 113.53532409667969 179.384765625 111.70096588134766 174.2962646484375 109.24738311767578" stroke-width="3.0" fill="none" stroke="rgb(0, 0, 0)" stroke-opacity="1.0" stroke-linecap="round" stroke-linejoin="round"/>
    <path d="M 174.00033569335938 113.99993133544922 C 173.0892791748047 119.07489776611328 169.4356231689453 116.69895935058594 167.85748291015625 119.70500183105469" stroke-width="3.0" fill="none" stroke="rgb(0, 0, 0)" stroke-opacity="1.0" stroke-linecap="round" stroke-linejoin="round"/>
    <path d="M 138.00003051757812 106.99991607666016 C 141.49708557128906 106.35626220703125 141.91348266601562 105.10708618164062 142.9539337158203 106.79124450683594" stroke-width="3.0" fill="none" stroke="rgb(0, 0, 0)" stroke-opacity="1.0" stroke-linecap="round" stroke-linejoin="round"/>
    <path d="M 101.00007629394531 134.99996948242188 C 97.41699981689453 129.55393981933594 95.56221008300781 126.63546752929688 95.10127258300781 125.2762222290039" stroke-width="3.0" fill="none" stroke="rgb(0, 0, 0)" stroke-opacity="1.0" stroke-linecap="round" stroke-linejoin="round"/>
    <path d="M 190.9993438720703 115.99995422363281 C 193.2050323486328 114.76353454589844 192.24652099609375 113.6688461303711 194.5067596435547 112.75291442871094" stroke-width="3.0" fill="none" stroke="rgb(0, 0, 0)" stroke-opacity="1.0" stroke-linecap="round" stroke-linejoin="round"/>
    <path d="M 150.99989318847656 121.99968719482422 C 152.81654357910156 114.92422485351562 152.2044677734375 112.22738647460938 148.3702850341797 114.53519439697266" stroke-width="3.0" fill="none" stroke="rgb(0, 0, 0)" stroke-opacity="1.0" stroke-linecap="round" stroke-linejoin="round"/>
    <path d="M 76.00001525878906 17.999839782714844 C 77.85729217529297 16.687837600708008 80.71868896484375 20.987266540527344 78.6591796875 20.881866455078125" stroke-width="3.0" fill="none" stroke="rgb(0, 0, 0)" stroke-opacity="1.0" stroke-linecap="round" stroke-linejoin="round"/>
    <path d="M 50.00006866455078 124.00013732910156 C 51.628082275390625 129.45909118652344 55.82875442504883 132.95980834960938 52.33489990234375 138.55377197265625" stroke-width="3.0" fill="none" stroke="rgb(0, 0, 0)" stroke-opacity="1.0" stroke-linecap="round" stroke-linejoin="round"/>
    <path d="M 171.00015258789062 123.00010681152344 C 174.49044799804688 118.33515930175781 177.01666259765625 123.7874755859375 175.91712951660156 127.78622436523438" stroke-width="3.0" fill="none" stroke="rgb(0, 0, 0)" stroke-opacity="1.0" stroke-linecap="round" stroke-linejoin="round"/>
    <path d="M 48.00151824951172 125.99950408935547 C 47.94103240966797 122.79122161865234 50.37507247924805 117.21754455566406 53.9897575378418 117.53530883789062" stroke-width="3.0" fill="none" stroke="rgb(0, 0, 0)" stroke-opacity="1.0" stroke-linecap="round" stroke-linejoin="round"/>
    <path d="M 117.00038146972656 180.0001983642578 C 112.49524688720703 175.73194885253906 114.16698455810547 179.916748046875 111.70280456542969 185.27606201171875" stroke-width="3.0" fill="none" stroke="rgb(0, 0, 0)" stroke-opacity="1.0" stroke-linecap="round" stroke-linejoin="round"/>
    <path d="M 123.0000991821289 127.00028228759766 C 120.52191162109375 130.96414184570312 119.36495971679688 126.27521514892578 114.8419189453125 125.74911499023438" stroke-width="3.0" fill="none" stroke="rgb(0, 0, 0)" stroke-opacity="1.0" stroke-linecap="round" stroke-linejoin="round"/>
    <path d="M 157.99989318847656 110.99956512451172 C 159.27439880371094 114.87895202636719 155.1687774658203 113.2814712524414 156.85745239257812 111.56816864013672" stroke-width="3.0" fill="none" stroke="rgb(0, 0, 0)" stroke-opacity="1.0" stroke-linecap="round" stroke-linejoin="round"/>
    <path d="M 58.99992370605469 115.99993896484375 C 63.16481018066406 113.51789855957031 55.77337646484375 108.37332916259766 57.80012893676758 109.02708435058594" stroke-width="3.0" fill="none" stroke="rgb(0, 0, 0)" stroke-opacity="1.0" stroke-linecap="round" stroke-linejoin="round"/>
    <path d="M 69.00019836425781 129.99989318847656 C 74.00121307373047 134.91024780273438 78.5926742553711 127.78235626220703 83.36650848388672 130.03684997558594" stroke-width="3.0" fill="none" stroke="rgb(0, 0, 0)" stroke-opacity="1.0" stroke-linecap="round" stroke-linejoin="round"/>
    <path d="M 42.99921798706055 43.999935150146484 C 44.7390251159668 44.37895202636719 47.25113296508789 47.94645309448242 47.82172775268555 48.37229537963867" stroke-width="3.0" fill="none" stroke="rgb(0, 0, 0)" stroke-opacity="1.0" stroke-linecap="round" stroke-linejoin="round"/>
    <path d="M 157.9998321533203 126.00006103515625 C 154.71559143066406 128.97549438476562 149.22264099121094 125.06703186035156 145.36175537109375 126.3111801147461" stroke-width="3.0" fill="none" stroke="rgb(0, 0, 0)" stroke-opacity="1.0" stroke-linecap="round" stroke-linejoin="round"/>
    <path d="M 34.00007247924805 128.9999542236328 C 36.44729995727539 125.18866729736328 39.79664611816406 122.04967498779297 34.03250503540039 127.44730377197266" stroke-width="3.0" fill="none" stroke="rgb(0, 0, 0)" stroke-opacity="1.0" stroke-linecap="round" stroke-linejoin="round"/>
    <path d="M 107.0000991821289 102.00006103515625 C 106.64266204833984 100.82194519042969 107.18514251708984 98.50825500488281 106.9399642944336 95.59263610839844" stroke-width="3.0" fill="none" stroke="rgb(0, 0, 0)" stroke-opacity="1.0" stroke-linecap="round" stroke-linejoin="round"/>
    <path d="M 161.99996948242188 93.00003051757812 C 156.94041442871094 89.41146850585938 157.19850158691406 84.60529327392578 154.11415100097656 84.68443298339844" stroke-width="3.0" fill="none" stroke="rgb(0, 0, 0)" stroke-opacity="1.0" stroke-linecap="round" stroke-linejoin="round"/>
  </g>
</svg>
