<?xml version="1.0" ?>
<svg xmlns="http://www.w3.org/2000/svg" version="1.1" width="224" height="224">
  <defs/>
  <g>
    <path d="M 67.48733520507812 109.02384948730469 C 122.75574493408203 91.88327026367188 121.71002960205078 145.4391632080078 97.87469482421875 153.1191864013672" stroke-width="3.0" fill="none" stroke="rgb(0, 0, 0)" stroke-opacity="1.0" stroke-linecap="round" stroke-linejoin="round"/>
    <path d="M 79.37232208251953 127.99723052978516 C 99.7778549194336 155.85496520996094 74.9970703125 144.76194763183594 78.4950942993164 135.38290405273438" stroke-width="3.0" fill="none" stroke="rgb(0, 0, 0)" stroke-opacity="1.0" stroke-linecap="round" stroke-linejoin="round"/>
    <path d="M 61.37852478027344 132.90232849121094 C 8.43105697631836 155.0747833251953 3.95861554145813 155.7906951904297 72.37236785888672 129.9896697998047" stroke-width="3.0" fill="none" stroke="rgb(0, 0, 0)" stroke-opacity="1.0" stroke-linecap="round" stroke-linejoin="round"/>
    <path d="M 24.420148849487305 122.79566192626953 C 119.75897979736328 129.4451904296875 82.0484848022461 125.15697479248047 78.70220947265625 135.6426239013672" stroke-width="3.0" fill="none" stroke="rgb(0, 0, 0)" stroke-opacity="1.0" stroke-linecap="round" stroke-linejoin="round"/>
    <path d="M 92.13056945800781 96.15217590332031 C 197.87045288085938 108.77812194824219 186.1792755126953 100.34198760986328 104.31851196289062 90.98346710205078" stroke-width="3.0" fill="none" stroke="rgb(0, 0, 0)" stroke-opacity="1.0" stroke-linecap="round" stroke-linejoin="round"/>
    <path d="M 172.884765625 142.4003448486328 C 164.1932830810547 106.81163024902344 223.92791748046875 118.45378875732422 141.6089324951172 107.76091003417969" stroke-width="3.0" fill="none" stroke="rgb(0, 0, 0)" stroke-opacity="1.0" stroke-linecap="round" stroke-linejoin="round"/>
    <path d="M 31.038965225219727 97.47624969482422 C 160.08517456054688 83.22750091552734 145.83628845214844 73.14990234375 38.42457580566406 93.40135955810547" stroke-width="3.0" fill="none" stroke="rgb(0, 0, 0)" stroke-opacity="1.0" stroke-linecap="round" stroke-linejoin="round"/>
    <path d="M 80.22257995605469 143.6134033203125 C 96.89411163330078 133.4168701171875 75.80430603027344 139.97970581054688 45.687767028808594 139.24197387695312" stroke-width="3.0" fill="none" stroke="rgb(0, 0, 0)" stroke-opacity="1.0" stroke-linecap="round" stroke-linejoin="round"/>
    <path d="M 118.80907440185547 209.27845764160156 C 188.48951721191406 193.66427612304688 138.74363708496094 200.43637084960938 173.6294403076172 193.963623046875" stroke-width="3.0" fill="none" stroke="rgb(0, 0, 0)" stroke-opacity="1.0" stroke-linecap="round" stroke-linejoin="round"/>
    <path d="M 152.5137481689453 109.05615234375 C 194.1839141845703 103.48786926269531 179.09194946289062 126.81249237060547 187.3152618408203 115.01496887207031" stroke-width="3.0" fill="none" stroke="rgb(0, 0, 0)" stroke-opacity="1.0" stroke-linecap="round" stroke-linejoin="round"/>
    <path d="M 102.6962890625 105.54597473144531 C 131.13211059570312 123.1506576538086 96.38471984863281 145.83120727539062 154.85435485839844 142.91744995117188" stroke-width="3.0" fill="none" stroke="rgb(0, 0, 0)" stroke-opacity="1.0" stroke-linecap="round" stroke-linejoin="round"/>
    <path d="M 34.4182243347168 102.5831298828125 C 143.20774841308594 100.49625396728516 90.31281280517578 116.5144271850586 28.073322296142578 109.2500228881836" stroke-width="3.0" fill="none" stroke="rgb(0, 0, 0)" stroke-opacity="1.0" stroke-linecap="round" stroke-linejoin="round"/>
    <path d="M 191.57846069335938 112.13844299316406 C 144.50662231445312 102.27828979492188 167.08792114257812 107.75894165039062 93.31715393066406 102.64862823486328" stroke-width="3.0" fill="none" stroke="rgb(0, 0, 0)" stroke-opacity="1.0" stroke-linecap="round" stroke-linejoin="round"/>
    <path d="M 53.207210540771484 194.36581420898438 C 82.16565704345703 216.7132110595703 110.50043487548828 214.43597412109375 123.41703033447266 210.15350341796875" stroke-width="3.0" fill="none" stroke="rgb(0, 0, 0)" stroke-opacity="1.0" stroke-linecap="round" stroke-linejoin="round"/>
    <path d="M 176.34434509277344 26.751262664794922 C 188.31881713867188 35.439674377441406 229.12664794921875 81.32233428955078 214.50643920898438 137.43499755859375" stroke-width="3.0" fill="none" stroke="rgb(0, 0, 0)" stroke-opacity="1.0" stroke-linecap="round" stroke-linejoin="round"/>
    <path d="M 93.61682891845703 89.71469116210938 C 132.8776092529297 66.78880310058594 148.8398895263672 93.0528564453125 134.8280029296875 96.52416229248047" stroke-width="3.0" fill="none" stroke="rgb(0, 0, 0)" stroke-opacity="1.0" stroke-linecap="round" stroke-linejoin="round"/>
    <path d="M 72.27095794677734 29.795595169067383 C 91.79902648925781 -13.61567497253418 172.7474822998047 14.26801872253418 192.4869384765625 43.46230697631836" stroke-width="3.0" fill="none" stroke="rgb(0, 0, 0)" stroke-opacity="1.0" stroke-linecap="round" stroke-linejoin="round"/>
    <path d="M 114.01455688476562 136.2037353515625 C 144.05612182617188 150.19232177734375 179.7986297607422 135.6971893310547 130.368408203125 144.60250854492188" stroke-width="3.0" fill="none" stroke="rgb(0, 0, 0)" stroke-opacity="1.0" stroke-linecap="round" stroke-linejoin="round"/>
    <path d="M 61.473873138427734 126.15593719482422 C 66.29293060302734 148.48077392578125 51.00507736206055 155.1704559326172 35.554893493652344 126.30445098876953" stroke-width="3.0" fill="none" stroke="rgb(0, 0, 0)" stroke-opacity="1.0" stroke-linecap="round" stroke-linejoin="round"/>
    <path d="M 172.2304229736328 142.46780395507812 C 188.97836303710938 161.1044921875 182.19252014160156 103.06272888183594 178.69424438476562 131.38482666015625" stroke-width="3.0" fill="none" stroke="rgb(0, 0, 0)" stroke-opacity="1.0" stroke-linecap="round" stroke-linejoin="round"/>
    <path d="M 136.44284057617188 207.2482452392578 C 103.26495361328125 207.8124542236328 99.08670043945312 210.40025329589844 132.08648681640625 208.4727783203125" stroke-width="3.0" fill="none" stroke="rgb(0, 0, 0)" stroke-opacity="1.0" stroke-linecap="round" stroke-linejoin="round"/>
    <path d="M 46.05786895751953 122.64476776123047 C 74.46932220458984 134.49932861328125 48.803165435791016 158.6536407470703 40.33305358886719 124.61585998535156" stroke-width="3.0" fill="none" stroke="rgb(0, 0, 0)" stroke-opacity="1.0" stroke-linecap="round" stroke-linejoin="round"/>
    <path d="M 105.10055541992188 91.05150604248047 C 64.07316589355469 97.2850341796875 15.856118202209473 96.36672973632812 94.1235580444336 96.71743774414062" stroke-width="3.0" fill="none" stroke="rgb(0, 0, 0)" stroke-opacity="1.0" stroke-linecap="round" stroke-linejoin="round"/>
    <path d="M 84.47225952148438 103.38972473144531 C 91.24649810791016 100.51932525634766 105.4853286743164 141.48959350585938 39.543148040771484 125.59831237792969" stroke-width="3.0" fill="none" stroke="rgb(0, 0, 0)" stroke-opacity="1.0" stroke-linecap="round" stroke-linejoin="round"/>
    <path d="M 151.6842498779297 96.86685180664062 C 98.41619110107422 84.82015991210938 157.80262756347656 101.41988372802734 153.06382751464844 99.62909698486328" stroke-width="3.0" fill="none" stroke="rgb(0, 0, 0)" stroke-opacity="1.0" stroke-linecap="round" stroke-linejoin="round"/>
    <path d="M 97.4614028930664 118.2025146484375 C 64.12565612792969 153.53411865234375 115.48834991455078 151.43528747558594 80.4161148071289 140.56927490234375" stroke-width="3.0" fill="none" stroke="rgb(0, 0, 0)" stroke-opacity="1.0" stroke-linecap="round" stroke-linejoin="round"/>
    <path d="M 24.358266830444336 49.62113952636719 C 19.1131534576416 64.8758544921875 0.5516543388366699 91.87891387939453 7.199143409729004 127.53848266601562" stroke-width="3.0" fill="none" stroke="rgb(0, 0, 0)" stroke-opacity="1.0" stroke-linecap="round" stroke-linejoin="round"/>
    <path d="M 177.96824645996094 192.01824951171875 C 189.87652587890625 179.14537048339844 224.0183563232422 148.86724853515625 216.73423767089844 101.0235595703125" stroke-width="3.0" fill="none" stroke="rgb(0, 0, 0)" stroke-opacity="1.0" stroke-linecap="round" stroke-linejoin="round"/>
    <path d="M 152.93698120117188 108.37332153320312 C 207.57012939453125 119.29867553710938 193.21307373046875 111.45304107666016 170.13333129882812 103.89555358886719" stroke-width="3.0" fill="none" stroke="rgb(0, 0, 0)" stroke-opacity="1.0" stroke-linecap="round" stroke-linejoin="round"/>
    <path d="M 134.77239990234375 92.0201416015625 C 250.67044067382812 130.06350708007812 155.31356811523438 95.33423614501953 175.39076232910156 143.6078338623047" stroke-width="3.0" fill="none" stroke="rgb(0, 0, 0)" stroke-opacity="1.0" stroke-linecap="round" stroke-linejoin="round"/>
    <path d="M 143.03977966308594 95.06507110595703 C 136.74752807617188 76.09188079833984 116.61396026611328 114.16845703125 134.6876983642578 84.39820861816406" stroke-width="3.0" fill="none" stroke="rgb(0, 0, 0)" stroke-opacity="1.0" stroke-linecap="round" stroke-linejoin="round"/>
    <path d="M 83.82371520996094 149.30426025390625 C 133.58084106445312 148.7900848388672 86.07933044433594 78.16199493408203 93.71858978271484 135.72438049316406" stroke-width="3.0" fill="none" stroke="rgb(0, 0, 0)" stroke-opacity="1.0" stroke-linecap="round" stroke-linejoin="round"/>
    <path d="M 187.71673583984375 117.64856719970703 C 188.87535095214844 102.74200439453125 182.21881103515625 135.46629333496094 189.3087921142578 113.91010284423828" stroke-width="3.0" fill="none" stroke="rgb(0, 0, 0)" stroke-opacity="1.0" stroke-linecap="round" stroke-linejoin="round"/>
    <path d="M 137.95599365234375 96.48011016845703 C 106.91544342041016 99.10345458984375 189.70013427734375 105.91622924804688 136.2452392578125 97.435546875" stroke-width="3.0" fill="none" stroke="rgb(0, 0, 0)" stroke-opacity="1.0" stroke-linecap="round" stroke-linejoin="round"/>
    <path d="M 59.01287841796875 12.061375617980957 C 90.81597900390625 -16.932540893554688 93.4485855102539 -12.96462631225586 57.63447570800781 11.001604080200195" stroke-width="3.0" fill="none" stroke="rgb(0, 0, 0)" stroke-opacity="1.0" stroke-linecap="round" stroke-linejoin="round"/>
    <path d="M 29.152141571044922 127.32501220703125 C 109.79693603515625 135.07443237304688 104.29289245605469 159.7734375 34.23139953613281 143.68983459472656" stroke-width="3.0" fill="none" stroke="rgb(0, 0, 0)" stroke-opacity="1.0" stroke-linecap="round" stroke-linejoin="round"/>
    <path d="M 177.3782196044922 138.4805908203125 C 160.87159729003906 102.53401947021484 200.92868041992188 116.84832763671875 181.8236541748047 144.77841186523438" stroke-width="3.0" fill="none" stroke="rgb(0, 0, 0)" stroke-opacity="1.0" stroke-linecap="round" stroke-linejoin="round"/>
    <path d="M 56.64712905883789 141.39205932617188 C 7.576622009277344 118.4366455078125 23.027442932128906 91.4542236328125 84.64279174804688 111.93551635742188" stroke-width="3.0" fill="none" stroke="rgb(0, 0, 0)" stroke-opacity="1.0" stroke-linecap="round" stroke-linejoin="round"/>
    <path d="M 6.261912822723389 120.5926284790039 C 13.767574310302734 192.2594451904297 75.57674407958984 207.79908752441406 110.72419738769531 209.17013549804688" stroke-width="3.0" fill="none" stroke="rgb(0, 0, 0)" stroke-opacity="1.0" stroke-linecap="round" stroke-linejoin="round"/>
    <path d="M 85.07421112060547 151.14987182617188 C 162.3520050048828 151.76463317871094 169.0315704345703 152.24502563476562 107.489990234375 148.1580810546875" stroke-width="3.0" fill="none" stroke="rgb(0, 0, 0)" stroke-opacity="1.0" stroke-linecap="round" stroke-linejoin="round"/>
    <path d="M 157.5999298095703 106.7640380859375 C 148.99290466308594 108.62511444091797 123.60990142822266 104.08293914794922 189.34304809570312 114.15827941894531" stroke-width="3.0" fill="none" stroke="rgb(0, 0, 0)" stroke-opacity="1.0" stroke-linecap="round" stroke-linejoin="round"/>
    <path d="M 48.39813995361328 98.99246978759766 C 76.87269592285156 123.93341827392578 38.954593658447266 90.28062438964844 43.3636360168457 118.48595428466797" stroke-width="3.0" fill="none" stroke="rgb(0, 0, 0)" stroke-opacity="1.0" stroke-linecap="round" stroke-linejoin="round"/>
    <path d="M 30.91348648071289 117.65669250488281 C 109.19342041015625 121.51292419433594 76.43331909179688 121.71631622314453 99.52314758300781 106.33983612060547" stroke-width="3.0" fill="none" stroke="rgb(0, 0, 0)" stroke-opacity="1.0" stroke-linecap="round" stroke-linejoin="round"/>
    <path d="M 24.10951042175293 49.261653900146484 C 45.428794860839844 25.513172149658203 40.37068557739258 27.14328384399414 64.17571258544922 7.736634254455566" stroke-width="3.0" fill="none" stroke="rgb(0, 0, 0)" stroke-opacity="1.0" stroke-linecap="round" stroke-linejoin="round"/>
    <path d="M 181.17376708984375 138.40850830078125 C 162.44984436035156 141.1927032470703 74.02500915527344 145.6506805419922 125.59967803955078 137.33035278320312" stroke-width="3.0" fill="none" stroke="rgb(0, 0, 0)" stroke-opacity="1.0" stroke-linecap="round" stroke-linejoin="round"/>
    <path d="M 42.81593322753906 137.40989685058594 C 82.82720947265625 135.7132110595703 120.41314697265625 131.32505798339844 34.774452209472656 129.1601104736328" stroke-width="3.0" fill="none" stroke="rgb(0, 0, 0)" stroke-opacity="1.0" stroke-linecap="round" stroke-linejoin="round"/>
    <path d="M 100.57669067382812 88.43804168701172 C 95.97772216796875 86.78411102294922 119.04547119140625 87.44181823730469 129.70404052734375 87.77022552490234" stroke-width="3.0" fill="none" stroke="rgb(0, 0, 0)" stroke-opacity="1.0" stroke-linecap="round" stroke-linejoin="round"/>
    <path d="M 157.61257934570312 99.08918762207031 C 177.9727325439453 93.20014190673828 135.97731018066406 74.4010009765625 116.20425415039062 83.22758483886719" stroke-width="3.0" fill="none" stroke="rgb(0, 0, 0)" stroke-opacity="1.0" stroke-linecap="round" stroke-linejoin="round"/>
  </g>
</svg>
