<?xml version="1.0" ?>
<svg xmlns="http://www.w3.org/2000/svg" version="1.1" width="224" height="224">
  <defs/>
  <g>
    <path d="M 66.69073486328125 109.9748764038086 C 125.834716796875 91.00037384033203 120.64717864990234 149.24388122558594 99.44222259521484 152.8308563232422" stroke-width="3.0" fill="none" stroke="rgb(0, 0, 0)" stroke-opacity="1.0" stroke-linecap="round" stroke-linejoin="round"/>
    <path d="M 79.23474884033203 122.58390808105469 C 98.5845718383789 158.36495971679688 78.17729949951172 143.048583984375 81.65725708007812 134.53916931152344" stroke-width="3.0" fill="none" stroke="rgb(0, 0, 0)" stroke-opacity="1.0" stroke-linecap="round" stroke-linejoin="round"/>
    <path d="M 57.174896240234375 130.34848022460938 C 8.626642227172852 153.24722290039062 -2.6038854122161865 152.30230712890625 70.08757781982422 129.16209411621094" stroke-width="3.0" fill="none" stroke="rgb(0, 0, 0)" stroke-opacity="1.0" stroke-linecap="round" stroke-linejoin="round"/>
    <path d="M 27.023517608642578 125.51658630371094 C 119.98245239257812 127.6963882446289 82.9466323852539 125.53668975830078 85.99372863769531 139.72889709472656" stroke-width="3.0" fill="none" stroke="rgb(0, 0, 0)" stroke-opacity="1.0" stroke-linecap="round" stroke-linejoin="round"/>
    <path d="M 94.33190155029297 94.51077270507812 C 204.6804962158203 94.69200134277344 191.4332275390625 91.25311279296875 107.67153930664062 90.76498413085938" stroke-width="3.0" fill="none" stroke="rgb(0, 0, 0)" stroke-opacity="1.0" stroke-linecap="round" stroke-linejoin="round"/>
    <path d="M 170.12875366210938 143.0587158203125 C 171.4083709716797 102.27339935302734 213.2522430419922 123.50458526611328 140.05433654785156 108.1841812133789" stroke-width="3.0" fill="none" stroke="rgb(0, 0, 0)" stroke-opacity="1.0" stroke-linecap="round" stroke-linejoin="round"/>
    <path d="M 30.37389373779297 102.65214538574219 C 170.84280395507812 95.47711181640625 161.5926055908203 89.2626953125 44.55066680908203 98.45161437988281" stroke-width="3.0" fill="none" stroke="rgb(0, 0, 0)" stroke-opacity="1.0" stroke-linecap="round" stroke-linejoin="round"/>
    <path d="M 83.66067504882812 143.28738403320312 C 89.53243255615234 130.4520721435547 72.1403579711914 138.0578155517578 45.08645248413086 135.23255920410156" stroke-width="3.0" fill="none" stroke="rgb(0, 0, 0)" stroke-opacity="1.0" stroke-linecap="round" stroke-linejoin="round"/>
    <path d="M 115.58649444580078 208.55555725097656 C 193.67941284179688 195.8441162109375 146.01913452148438 202.70333862304688 179.5052947998047 194.87539672851562" stroke-width="3.0" fill="none" stroke="rgb(0, 0, 0)" stroke-opacity="1.0" stroke-linecap="round" stroke-linejoin="round"/>
    <path d="M 159.58924865722656 112.13838958740234 C 195.5284881591797 113.78919219970703 182.68218994140625 129.1956787109375 191.98818969726562 115.49962615966797" stroke-width="3.0" fill="none" stroke="rgb(0, 0, 0)" stroke-opacity="1.0" stroke-linecap="round" stroke-linejoin="round"/>
    <path d="M 102.73162078857422 102.8747329711914 C 136.06260681152344 116.78536224365234 107.28713989257812 148.92283630371094 153.26600646972656 146.17799377441406" stroke-width="3.0" fill="none" stroke="rgb(0, 0, 0)" stroke-opacity="1.0" stroke-linecap="round" stroke-linejoin="round"/>
    <path d="M 29.72023582458496 99.77059173583984 C 137.536376953125 102.95220184326172 86.20682525634766 119.61272430419922 31.24749183654785 103.63296508789062" stroke-width="3.0" fill="none" stroke="rgb(0, 0, 0)" stroke-opacity="1.0" stroke-linecap="round" stroke-linejoin="round"/>
    <path d="M 186.97760009765625 118.52726745605469 C 145.85174560546875 113.63292694091797 169.9055633544922 104.6626968383789 83.4408950805664 103.6600112915039" stroke-width="3.0" fill="none" stroke="rgb(0, 0, 0)" stroke-opacity="1.0" stroke-linecap="round" stroke-linejoin="round"/>
    <path d="M 43.69984436035156 188.543212890625 C 78.017822265625 216.33688354492188 113.67183685302734 209.56031799316406 127.97660064697266 208.72833251953125" stroke-width="3.0" fill="none" stroke="rgb(0, 0, 0)" stroke-opacity="1.0" stroke-linecap="round" stroke-linejoin="round"/>
    <path d="M 176.5943603515625 29.707294464111328 C 188.34536743164062 38.02327346801758 230.84230041503906 78.15193176269531 213.5797119140625 138.06594848632812" stroke-width="3.0" fill="none" stroke="rgb(0, 0, 0)" stroke-opacity="1.0" stroke-linecap="round" stroke-linejoin="round"/>
    <path d="M 95.33082580566406 91.21197509765625 C 134.75523376464844 67.92071533203125 143.65892028808594 87.46231079101562 129.6500244140625 94.82059478759766" stroke-width="3.0" fill="none" stroke="rgb(0, 0, 0)" stroke-opacity="1.0" stroke-linecap="round" stroke-linejoin="round"/>
    <path d="M 74.67518615722656 27.36295509338379 C 86.50597381591797 -16.167423248291016 169.50558471679688 13.763968467712402 189.27723693847656 42.68675231933594" stroke-width="3.0" fill="none" stroke="rgb(0, 0, 0)" stroke-opacity="1.0" stroke-linecap="round" stroke-linejoin="round"/>
    <path d="M 117.64720153808594 132.08753967285156 C 150.5451202392578 148.6775360107422 185.71717834472656 138.56907653808594 128.20054626464844 138.7622528076172" stroke-width="3.0" fill="none" stroke="rgb(0, 0, 0)" stroke-opacity="1.0" stroke-linecap="round" stroke-linejoin="round"/>
    <path d="M 67.78244018554688 124.11372375488281 C 71.85405731201172 145.07635498046875 42.20784378051758 157.22987365722656 43.990394592285156 126.51429748535156" stroke-width="3.0" fill="none" stroke="rgb(0, 0, 0)" stroke-opacity="1.0" stroke-linecap="round" stroke-linejoin="round"/>
    <path d="M 170.3201904296875 145.99716186523438 C 190.91200256347656 164.07168579101562 185.20928955078125 102.58865356445312 181.39453125 133.9493408203125" stroke-width="3.0" fill="none" stroke="rgb(0, 0, 0)" stroke-opacity="1.0" stroke-linecap="round" stroke-linejoin="round"/>
    <path d="M 145.7615966796875 191.4708709716797 C 87.77832794189453 187.13070678710938 90.76898956298828 183.57598876953125 141.12582397460938 204.50091552734375" stroke-width="3.0" fill="none" stroke="rgb(0, 0, 0)" stroke-opacity="1.0" stroke-linecap="round" stroke-linejoin="round"/>
    <path d="M 56.14251708984375 115.63445281982422 C 72.63453674316406 133.74880981445312 58.74421691894531 150.70315551757812 47.830326080322266 120.88829803466797" stroke-width="3.0" fill="none" stroke="rgb(0, 0, 0)" stroke-opacity="1.0" stroke-linecap="round" stroke-linejoin="round"/>
    <path d="M 112.63119506835938 85.06639862060547 C 65.17596435546875 84.83907318115234 21.573930740356445 86.71107482910156 98.0310287475586 88.90570068359375" stroke-width="3.0" fill="none" stroke="rgb(0, 0, 0)" stroke-opacity="1.0" stroke-linecap="round" stroke-linejoin="round"/>
    <path d="M 82.05792999267578 103.72217559814453 C 85.0796890258789 101.6242904663086 106.3918685913086 136.39891052246094 42.89666748046875 117.04073333740234" stroke-width="3.0" fill="none" stroke="rgb(0, 0, 0)" stroke-opacity="1.0" stroke-linecap="round" stroke-linejoin="round"/>
    <path d="M 152.16285705566406 96.68424987792969 C 92.6158447265625 89.8275375366211 156.18922424316406 104.46455383300781 157.42431640625 102.84159088134766" stroke-width="3.0" fill="none" stroke="rgb(0, 0, 0)" stroke-opacity="1.0" stroke-linecap="round" stroke-linejoin="round"/>
    <path d="M 96.06346130371094 117.54316711425781 C 66.20939636230469 144.84950256347656 119.48719024658203 155.7621612548828 82.8558578491211 141.81982421875" stroke-width="3.0" fill="none" stroke="rgb(0, 0, 0)" stroke-opacity="1.0" stroke-linecap="round" stroke-linejoin="round"/>
    <path d="M 23.736820220947266 50.62468719482422 C 18.114545822143555 62.669700622558594 3.4254424571990967 99.12371063232422 9.21849536895752 129.24110412597656" stroke-width="3.0" fill="none" stroke="rgb(0, 0, 0)" stroke-opacity="1.0" stroke-linecap="round" stroke-linejoin="round"/>
    <path d="M 181.51290893554688 192.6588897705078 C 190.96104431152344 180.61590576171875 227.2154541015625 147.83633422851562 215.50851440429688 97.0243148803711" stroke-width="3.0" fill="none" stroke="rgb(0, 0, 0)" stroke-opacity="1.0" stroke-linecap="round" stroke-linejoin="round"/>
    <path d="M 156.28720092773438 108.80088806152344 C 214.6807861328125 119.92276000976562 199.1299591064453 110.36085510253906 170.3134307861328 98.83987426757812" stroke-width="3.0" fill="none" stroke="rgb(0, 0, 0)" stroke-opacity="1.0" stroke-linecap="round" stroke-linejoin="round"/>
    <path d="M 130.53036499023438 95.23377227783203 C 257.9872131347656 130.04168701171875 157.5832061767578 94.39983367919922 178.05630493164062 143.71136474609375" stroke-width="3.0" fill="none" stroke="rgb(0, 0, 0)" stroke-opacity="1.0" stroke-linecap="round" stroke-linejoin="round"/>
    <path d="M 142.377197265625 96.59974670410156 C 127.84244537353516 68.38394165039062 128.10614013671875 117.20806884765625 128.08335876464844 83.9076919555664" stroke-width="3.0" fill="none" stroke="rgb(0, 0, 0)" stroke-opacity="1.0" stroke-linecap="round" stroke-linejoin="round"/>
    <path d="M 77.73182678222656 150.53228759765625 C 135.93295288085938 145.87472534179688 81.35211181640625 86.43220520019531 93.78087615966797 138.51702880859375" stroke-width="3.0" fill="none" stroke="rgb(0, 0, 0)" stroke-opacity="1.0" stroke-linecap="round" stroke-linejoin="round"/>
    <path d="M 185.4549102783203 120.7738265991211 C 184.2535858154297 102.7151107788086 192.47093200683594 136.1603546142578 190.48211669921875 135.11279296875" stroke-width="3.0" fill="none" stroke="rgb(0, 0, 0)" stroke-opacity="1.0" stroke-linecap="round" stroke-linejoin="round"/>
    <path d="M 136.1374969482422 96.56182098388672 C 105.68360900878906 89.30848693847656 190.73033142089844 100.21704864501953 142.79827880859375 96.75480651855469" stroke-width="3.0" fill="none" stroke="rgb(0, 0, 0)" stroke-opacity="1.0" stroke-linecap="round" stroke-linejoin="round"/>
    <path d="M 59.15182113647461 10.178304672241211 C 96.83708190917969 -12.890557289123535 95.64086151123047 -12.114797592163086 59.156402587890625 10.201390266418457" stroke-width="3.0" fill="none" stroke="rgb(0, 0, 0)" stroke-opacity="1.0" stroke-linecap="round" stroke-linejoin="round"/>
    <path d="M 27.07619285583496 125.44841003417969 C 110.6624755859375 134.59442138671875 108.17288208007812 153.40701293945312 35.05672073364258 146.48663330078125" stroke-width="3.0" fill="none" stroke="rgb(0, 0, 0)" stroke-opacity="1.0" stroke-linecap="round" stroke-linejoin="round"/>
    <path d="M 173.3345489501953 147.81324768066406 C 163.1313018798828 103.07540893554688 205.3668670654297 118.54560089111328 183.7456512451172 147.545166015625" stroke-width="3.0" fill="none" stroke="rgb(0, 0, 0)" stroke-opacity="1.0" stroke-linecap="round" stroke-linejoin="round"/>
    <path d="M 65.66143798828125 136.23489379882812 C 10.873154640197754 117.8094711303711 26.59589958190918 90.05604553222656 83.4751205444336 109.86036682128906" stroke-width="3.0" fill="none" stroke="rgb(0, 0, 0)" stroke-opacity="1.0" stroke-linecap="round" stroke-linejoin="round"/>
    <path d="M 7.018299102783203 122.38240051269531 C 10.310379981994629 190.016357421875 79.06145477294922 206.8720245361328 117.11537170410156 206.61801147460938" stroke-width="3.0" fill="none" stroke="rgb(0, 0, 0)" stroke-opacity="1.0" stroke-linecap="round" stroke-linejoin="round"/>
    <path d="M 78.5071029663086 151.1130828857422 C 164.61212158203125 156.53778076171875 172.37646484375 156.54019165039062 108.67659759521484 147.93927001953125" stroke-width="3.0" fill="none" stroke="rgb(0, 0, 0)" stroke-opacity="1.0" stroke-linecap="round" stroke-linejoin="round"/>
    <path d="M 161.5718994140625 113.58236694335938 C 147.64964294433594 110.93229675292969 124.1679458618164 101.84370422363281 190.27008056640625 114.44012451171875" stroke-width="3.0" fill="none" stroke="rgb(0, 0, 0)" stroke-opacity="1.0" stroke-linecap="round" stroke-linejoin="round"/>
    <path d="M 54.270389556884766 92.31179809570312 C 56.4813232421875 124.34516143798828 42.57429122924805 87.46223449707031 50.84321594238281 115.54930114746094" stroke-width="3.0" fill="none" stroke="rgb(0, 0, 0)" stroke-opacity="1.0" stroke-linecap="round" stroke-linejoin="round"/>
    <path d="M 30.833288192749023 119.46302032470703 C 113.41337585449219 117.37425994873047 64.70366668701172 129.13670349121094 93.7441635131836 103.64826202392578" stroke-width="3.0" fill="none" stroke="rgb(0, 0, 0)" stroke-opacity="1.0" stroke-linecap="round" stroke-linejoin="round"/>
    <path d="M 25.565086364746094 48.90729904174805 C 46.39596939086914 25.332307815551758 41.29452133178711 25.51705551147461 63.689414978027344 6.86879825592041" stroke-width="3.0" fill="none" stroke="rgb(0, 0, 0)" stroke-opacity="1.0" stroke-linecap="round" stroke-linejoin="round"/>
    <path d="M 179.77464294433594 145.1326904296875 C 168.219970703125 141.5281524658203 83.12385559082031 148.231689453125 130.44558715820312 138.52508544921875" stroke-width="3.0" fill="none" stroke="rgb(0, 0, 0)" stroke-opacity="1.0" stroke-linecap="round" stroke-linejoin="round"/>
    <path d="M 35.00263595581055 128.30064392089844 C 83.63156127929688 132.92498779296875 121.48545837402344 132.3094024658203 35.48514175415039 131.8004913330078" stroke-width="3.0" fill="none" stroke="rgb(0, 0, 0)" stroke-opacity="1.0" stroke-linecap="round" stroke-linejoin="round"/>
    <path d="M 101.37447357177734 87.95992279052734 C 95.06884765625 87.66345977783203 115.57707214355469 78.48898315429688 114.1883544921875 81.6546630859375" stroke-width="3.0" fill="none" stroke="rgb(0, 0, 0)" stroke-opacity="1.0" stroke-linecap="round" stroke-linejoin="round"/>
    <path d="M 157.53402709960938 101.78888702392578 C 175.08450317382812 89.38467407226562 131.14085388183594 75.32261657714844 109.71839141845703 82.14950561523438" stroke-width="3.0" fill="none" stroke="rgb(0, 0, 0)" stroke-opacity="1.0" stroke-linecap="round" stroke-linejoin="round"/>
  </g>
</svg>
