<?xml version="1.0" ?>
<svg xmlns="http://www.w3.org/2000/svg" version="1.1" width="224" height="224">
  <defs/>
  <g>
    <path d="M 94.78240966796875 98.23224639892578 C 114.72550964355469 101.41242218017578 119.64533233642578 125.24995422363281 115.82799530029297 136.99085998535156" stroke-width="3.0" fill="none" stroke="rgb(0, 0, 0)" stroke-opacity="1.0" stroke-linecap="round" stroke-linejoin="round"/>
    <path d="M 62.22288131713867 128.74404907226562 C 100.64210510253906 148.0316619873047 85.66327667236328 139.7892303466797 63.8861198425293 141.037109375" stroke-width="3.0" fill="none" stroke="rgb(0, 0, 0)" stroke-opacity="1.0" stroke-linecap="round" stroke-linejoin="round"/>
    <path d="M 47.20781326293945 132.1732940673828 C 0.8108932971954346 146.2591552734375 25.98835563659668 138.67657470703125 80.92430877685547 132.3907012939453" stroke-width="3.0" fill="none" stroke="rgb(0, 0, 0)" stroke-opacity="1.0" stroke-linecap="round" stroke-linejoin="round"/>
    <path d="M 25.171951293945312 121.0102767944336 C 90.78722381591797 126.69831085205078 85.53813171386719 131.74441528320312 82.75630187988281 108.12141418457031" stroke-width="3.0" fill="none" stroke="rgb(0, 0, 0)" stroke-opacity="1.0" stroke-linecap="round" stroke-linejoin="round"/>
    <path d="M 93.31181335449219 92.07972717285156 C 182.84352111816406 123.89947509765625 169.7841796875 107.90939331054688 97.66263580322266 91.82369995117188" stroke-width="3.0" fill="none" stroke="rgb(0, 0, 0)" stroke-opacity="1.0" stroke-linecap="round" stroke-linejoin="round"/>
    <path d="M 171.54542541503906 134.12905883789062 C 180.82781982421875 106.16584777832031 187.860595703125 112.32734680175781 140.59347534179688 111.01669311523438" stroke-width="3.0" fill="none" stroke="rgb(0, 0, 0)" stroke-opacity="1.0" stroke-linecap="round" stroke-linejoin="round"/>
    <path d="M 56.57569122314453 104.38050842285156 C 112.85896301269531 98.59124755859375 105.36974334716797 94.6612548828125 44.063655853271484 93.69100952148438" stroke-width="3.0" fill="none" stroke="rgb(0, 0, 0)" stroke-opacity="1.0" stroke-linecap="round" stroke-linejoin="round"/>
    <path d="M 82.21595764160156 143.8692626953125 C 89.68477630615234 148.0027618408203 87.11924743652344 130.351318359375 27.009361267089844 122.7303237915039" stroke-width="3.0" fill="none" stroke="rgb(0, 0, 0)" stroke-opacity="1.0" stroke-linecap="round" stroke-linejoin="round"/>
    <path d="M 136.6975555419922 203.31561279296875 C 189.29270935058594 196.1772918701172 160.1379852294922 199.41600036621094 180.19581604003906 192.4917755126953" stroke-width="3.0" fill="none" stroke="rgb(0, 0, 0)" stroke-opacity="1.0" stroke-linecap="round" stroke-linejoin="round"/>
    <path d="M 158.5054931640625 106.95648193359375 C 175.36203002929688 111.08878326416016 179.06533813476562 108.35567474365234 197.63331604003906 116.2064437866211" stroke-width="3.0" fill="none" stroke="rgb(0, 0, 0)" stroke-opacity="1.0" stroke-linecap="round" stroke-linejoin="round"/>
    <path d="M 108.65670013427734 104.1749038696289 C 130.4804229736328 117.70565795898438 112.87986755371094 144.34523010253906 130.82891845703125 137.97915649414062" stroke-width="3.0" fill="none" stroke="rgb(0, 0, 0)" stroke-opacity="1.0" stroke-linecap="round" stroke-linejoin="round"/>
    <path d="M 22.952953338623047 101.29759979248047 C 109.84988403320312 105.17129516601562 82.42833709716797 97.41416931152344 30.131919860839844 104.10240936279297" stroke-width="3.0" fill="none" stroke="rgb(0, 0, 0)" stroke-opacity="1.0" stroke-linecap="round" stroke-linejoin="round"/>
    <path d="M 172.6663055419922 116.03926086425781 C 119.63871002197266 108.82608795166016 152.83541870117188 120.31167602539062 131.21163940429688 104.90595245361328" stroke-width="3.0" fill="none" stroke="rgb(0, 0, 0)" stroke-opacity="1.0" stroke-linecap="round" stroke-linejoin="round"/>
    <path d="M 103.62760925292969 186.92416381835938 C 102.52659606933594 187.30691528320312 108.97871398925781 192.96409606933594 107.89653778076172 191.0474395751953" stroke-width="3.0" fill="none" stroke="rgb(0, 0, 0)" stroke-opacity="1.0" stroke-linecap="round" stroke-linejoin="round"/>
    <path d="M 173.85430908203125 28.45929718017578 C 186.57052612304688 31.079893112182617 225.4130401611328 77.32317352294922 215.58436584472656 128.5366668701172" stroke-width="3.0" fill="none" stroke="rgb(0, 0, 0)" stroke-opacity="1.0" stroke-linecap="round" stroke-linejoin="round"/>
    <path d="M 104.02305603027344 82.55619049072266 C 141.44444274902344 81.08277893066406 137.3238067626953 81.32650756835938 128.2230987548828 98.95368194580078" stroke-width="3.0" fill="none" stroke="rgb(0, 0, 0)" stroke-opacity="1.0" stroke-linecap="round" stroke-linejoin="round"/>
    <path d="M 59.89830017089844 23.63155174255371 C 125.10882568359375 -9.693233489990234 164.1841278076172 18.925561904907227 184.44503784179688 36.373504638671875" stroke-width="3.0" fill="none" stroke="rgb(0, 0, 0)" stroke-opacity="1.0" stroke-linecap="round" stroke-linejoin="round"/>
    <path d="M 140.9614715576172 137.61923217773438 C 132.17373657226562 155.4014892578125 128.40509033203125 129.6220703125 133.462646484375 135.34690856933594" stroke-width="3.0" fill="none" stroke="rgb(0, 0, 0)" stroke-opacity="1.0" stroke-linecap="round" stroke-linejoin="round"/>
    <path d="M 71.18400573730469 125.61799621582031 C 48.77349853515625 140.7054443359375 68.7875747680664 147.7972412109375 30.82599639892578 139.33535766601562" stroke-width="3.0" fill="none" stroke="rgb(0, 0, 0)" stroke-opacity="1.0" stroke-linecap="round" stroke-linejoin="round"/>
    <path d="M 167.99778747558594 134.2647705078125 C 191.6961212158203 164.55844116210938 184.31015014648438 105.63655853271484 178.71990966796875 127.2353515625" stroke-width="3.0" fill="none" stroke="rgb(0, 0, 0)" stroke-opacity="1.0" stroke-linecap="round" stroke-linejoin="round"/>
    <path d="M 135.5377960205078 203.31590270996094 C 111.42630004882812 193.4972381591797 102.77393341064453 194.591064453125 116.02081298828125 196.5504913330078" stroke-width="3.0" fill="none" stroke="rgb(0, 0, 0)" stroke-opacity="1.0" stroke-linecap="round" stroke-linejoin="round"/>
    <path d="M 50.420841217041016 131.4005889892578 C 62.87443161010742 116.69425201416016 60.07848358154297 137.428466796875 24.556791305541992 125.05014038085938" stroke-width="3.0" fill="none" stroke="rgb(0, 0, 0)" stroke-opacity="1.0" stroke-linecap="round" stroke-linejoin="round"/>
    <path d="M 100.96138000488281 92.86664581298828 C 35.71713638305664 92.43572998046875 -13.24135684967041 99.67697143554688 63.02113723754883 106.54309844970703" stroke-width="3.0" fill="none" stroke="rgb(0, 0, 0)" stroke-opacity="1.0" stroke-linecap="round" stroke-linejoin="round"/>
    <path d="M 70.94773864746094 105.21138000488281 C 68.35306549072266 121.71356964111328 91.3744125366211 108.77265930175781 57.08818435668945 112.66852569580078" stroke-width="3.0" fill="none" stroke="rgb(0, 0, 0)" stroke-opacity="1.0" stroke-linecap="round" stroke-linejoin="round"/>
    <path d="M 159.7925262451172 95.2431411743164 C 113.50846099853516 85.34750366210938 153.24468994140625 102.8125991821289 166.38731384277344 98.44715881347656" stroke-width="3.0" fill="none" stroke="rgb(0, 0, 0)" stroke-opacity="1.0" stroke-linecap="round" stroke-linejoin="round"/>
    <path d="M 93.11837005615234 106.4758071899414 C 69.59088134765625 138.52076721191406 97.63407135009766 151.23666381835938 84.47465515136719 140.5157470703125" stroke-width="3.0" fill="none" stroke="rgb(0, 0, 0)" stroke-opacity="1.0" stroke-linecap="round" stroke-linejoin="round"/>
    <path d="M 21.76469612121582 60.42720031738281 C 17.708324432373047 70.98714447021484 13.402738571166992 76.50800323486328 9.053719520568848 113.11365509033203" stroke-width="3.0" fill="none" stroke="rgb(0, 0, 0)" stroke-opacity="1.0" stroke-linecap="round" stroke-linejoin="round"/>
    <path d="M 183.76699829101562 190.120361328125 C 197.73081970214844 168.59361267089844 211.80337524414062 159.89309692382812 217.40895080566406 120.6303482055664" stroke-width="3.0" fill="none" stroke="rgb(0, 0, 0)" stroke-opacity="1.0" stroke-linecap="round" stroke-linejoin="round"/>
    <path d="M 140.7101287841797 115.29620361328125 C 212.77468872070312 120.36750793457031 206.22625732421875 117.398193359375 144.41722106933594 107.81332397460938" stroke-width="3.0" fill="none" stroke="rgb(0, 0, 0)" stroke-opacity="1.0" stroke-linecap="round" stroke-linejoin="round"/>
    <path d="M 146.65614318847656 96.89096069335938 C 217.9970703125 114.1791000366211 174.826171875 106.63361358642578 166.58389282226562 133.17999267578125" stroke-width="3.0" fill="none" stroke="rgb(0, 0, 0)" stroke-opacity="1.0" stroke-linecap="round" stroke-linejoin="round"/>
    <path d="M 145.07615661621094 95.74344635009766 C 145.4583282470703 95.80767822265625 133.9385528564453 116.26577758789062 136.1452178955078 87.21627807617188" stroke-width="3.0" fill="none" stroke="rgb(0, 0, 0)" stroke-opacity="1.0" stroke-linecap="round" stroke-linejoin="round"/>
    <path d="M 82.19922637939453 143.80892944335938 C 126.64414978027344 169.99916076660156 117.45068359375 77.69981384277344 80.38365936279297 119.10335540771484" stroke-width="3.0" fill="none" stroke="rgb(0, 0, 0)" stroke-opacity="1.0" stroke-linecap="round" stroke-linejoin="round"/>
    <path d="M 193.10879516601562 113.95116424560547 C 200.392822265625 111.2935562133789 183.84373474121094 137.49249267578125 188.5517120361328 118.03035736083984" stroke-width="3.0" fill="none" stroke="rgb(0, 0, 0)" stroke-opacity="1.0" stroke-linecap="round" stroke-linejoin="round"/>
    <path d="M 144.84469604492188 106.30921173095703 C 119.42202758789062 79.47093200683594 181.65859985351562 103.36280059814453 142.8458251953125 102.69288635253906" stroke-width="3.0" fill="none" stroke="rgb(0, 0, 0)" stroke-opacity="1.0" stroke-linecap="round" stroke-linejoin="round"/>
    <path d="M 63.294219970703125 23.624954223632812 C 89.7303237915039 19.37934684753418 77.39053344726562 12.833253860473633 64.73690032958984 25.21857261657715" stroke-width="3.0" fill="none" stroke="rgb(0, 0, 0)" stroke-opacity="1.0" stroke-linecap="round" stroke-linejoin="round"/>
    <path d="M 33.06841278076172 132.59332275390625 C 107.2603988647461 137.14913940429688 94.75768280029297 133.660400390625 43.686248779296875 124.23616027832031" stroke-width="3.0" fill="none" stroke="rgb(0, 0, 0)" stroke-opacity="1.0" stroke-linecap="round" stroke-linejoin="round"/>
    <path d="M 176.526611328125 139.97401428222656 C 165.08152770996094 99.53649139404297 200.82752990722656 116.29541778564453 184.2921142578125 142.3709259033203" stroke-width="3.0" fill="none" stroke="rgb(0, 0, 0)" stroke-opacity="1.0" stroke-linecap="round" stroke-linejoin="round"/>
    <path d="M 44.480709075927734 138.26693725585938 C 12.39244270324707 95.03856658935547 5.703792572021484 107.3952865600586 82.51567077636719 113.0741958618164" stroke-width="3.0" fill="none" stroke="rgb(0, 0, 0)" stroke-opacity="1.0" stroke-linecap="round" stroke-linejoin="round"/>
    <path d="M 24.880542755126953 173.74127197265625 C 72.942138671875 207.90687561035156 54.062835693359375 196.29013061523438 96.69190979003906 204.24734497070312" stroke-width="3.0" fill="none" stroke="rgb(0, 0, 0)" stroke-opacity="1.0" stroke-linecap="round" stroke-linejoin="round"/>
    <path d="M 118.25149536132812 132.38232421875 C 132.24501037597656 153.06393432617188 142.19839477539062 142.20433044433594 125.87779235839844 140.693603515625" stroke-width="3.0" fill="none" stroke="rgb(0, 0, 0)" stroke-opacity="1.0" stroke-linecap="round" stroke-linejoin="round"/>
    <path d="M 152.03591918945312 112.63536834716797 C 150.14414978027344 105.37885284423828 125.32584381103516 102.59410095214844 176.53123474121094 110.06953430175781" stroke-width="3.0" fill="none" stroke="rgb(0, 0, 0)" stroke-opacity="1.0" stroke-linecap="round" stroke-linejoin="round"/>
    <path d="M 82.87932586669922 102.0074691772461 C 98.85675811767578 111.12203979492188 55.90142822265625 93.70653533935547 37.08672332763672 111.78564453125" stroke-width="3.0" fill="none" stroke="rgb(0, 0, 0)" stroke-opacity="1.0" stroke-linecap="round" stroke-linejoin="round"/>
    <path d="M 27.085206985473633 114.96334838867188 C 90.27997589111328 117.10343170166016 70.97086334228516 124.25233459472656 89.90967559814453 108.1409912109375" stroke-width="3.0" fill="none" stroke="rgb(0, 0, 0)" stroke-opacity="1.0" stroke-linecap="round" stroke-linejoin="round"/>
    <path d="M 21.863040924072266 60.619178771972656 C 49.857391357421875 24.522743225097656 34.716278076171875 39.534175872802734 53.492820739746094 25.239469528198242" stroke-width="3.0" fill="none" stroke="rgb(0, 0, 0)" stroke-opacity="1.0" stroke-linecap="round" stroke-linejoin="round"/>
    <path d="M 176.5056915283203 132.5377655029297 C 159.95997619628906 135.40794372558594 134.57623291015625 134.51708984375 115.17522430419922 139.73081970214844" stroke-width="3.0" fill="none" stroke="rgb(0, 0, 0)" stroke-opacity="1.0" stroke-linecap="round" stroke-linejoin="round"/>
    <path d="M 39.02500915527344 132.41488647460938 C 46.26451110839844 146.69190979003906 83.51158905029297 131.2698211669922 27.51830291748047 123.39044189453125" stroke-width="3.0" fill="none" stroke="rgb(0, 0, 0)" stroke-opacity="1.0" stroke-linecap="round" stroke-linejoin="round"/>
    <path d="M 101.66674041748047 85.61627197265625 C 113.52594757080078 78.66917419433594 126.6658706665039 85.40202331542969 123.3777084350586 83.7015151977539" stroke-width="3.0" fill="none" stroke="rgb(0, 0, 0)" stroke-opacity="1.0" stroke-linecap="round" stroke-linejoin="round"/>
    <path d="M 163.6033935546875 96.70654296875 C 173.4559326171875 90.88377380371094 139.95802307128906 83.1983871459961 130.3369598388672 82.52378845214844" stroke-width="3.0" fill="none" stroke="rgb(0, 0, 0)" stroke-opacity="1.0" stroke-linecap="round" stroke-linejoin="round"/>
  </g>
</svg>
