<?xml version="1.0" ?>
<svg xmlns="http://www.w3.org/2000/svg" version="1.1" width="224" height="224">
  <defs/>
  <g>
    <path d="M 72.80796813964844 110.425048828125 C 125.54632568359375 92.23152923583984 121.12789154052734 160.34373474121094 90.9400863647461 152.214111328125" stroke-width="3.0" fill="none" stroke="rgb(0, 0, 0)" stroke-opacity="1.0" stroke-linecap="round" stroke-linejoin="round"/>
    <path d="M 79.44757080078125 129.17166137695312 C 96.67481994628906 159.27139282226562 87.98472595214844 149.21652221679688 86.07679748535156 127.35015106201172" stroke-width="3.0" fill="none" stroke="rgb(0, 0, 0)" stroke-opacity="1.0" stroke-linecap="round" stroke-linejoin="round"/>
    <path d="M 85.04508972167969 152.1135711669922 C 25.158414840698242 150.46998596191406 41.47575759887695 161.13998413085938 80.04837036132812 133.25082397460938" stroke-width="3.0" fill="none" stroke="rgb(0, 0, 0)" stroke-opacity="1.0" stroke-linecap="round" stroke-linejoin="round"/>
    <path d="M 48.770137786865234 122.08981323242188 C 120.84711456298828 133.09326171875 68.46446228027344 121.92347717285156 56.01187515258789 146.56040954589844" stroke-width="3.0" fill="none" stroke="rgb(0, 0, 0)" stroke-opacity="1.0" stroke-linecap="round" stroke-linejoin="round"/>
    <path d="M 110.58360290527344 86.29227447509766 C 195.22645568847656 92.3663558959961 187.44818115234375 116.02245330810547 119.65238952636719 97.67901611328125" stroke-width="3.0" fill="none" stroke="rgb(0, 0, 0)" stroke-opacity="1.0" stroke-linecap="round" stroke-linejoin="round"/>
    <path d="M 169.10838317871094 135.81414794921875 C 175.02638244628906 101.26981353759766 204.30657958984375 122.97185516357422 136.24166870117188 113.41131591796875" stroke-width="3.0" fill="none" stroke="rgb(0, 0, 0)" stroke-opacity="1.0" stroke-linecap="round" stroke-linejoin="round"/>
    <path d="M 30.83265495300293 98.61679077148438 C 181.26766967773438 112.64262390136719 160.03939819335938 96.70864868164062 42.130226135253906 93.70571899414062" stroke-width="3.0" fill="none" stroke="rgb(0, 0, 0)" stroke-opacity="1.0" stroke-linecap="round" stroke-linejoin="round"/>
    <path d="M 95.27422332763672 136.66432189941406 C 113.09756469726562 107.30743408203125 95.71112060546875 136.42657470703125 42.328941345214844 131.35873413085938" stroke-width="3.0" fill="none" stroke="rgb(0, 0, 0)" stroke-opacity="1.0" stroke-linecap="round" stroke-linejoin="round"/>
    <path d="M 105.82025909423828 214.6825408935547 C 181.34913635253906 197.23118591308594 168.9647674560547 197.6727752685547 181.70066833496094 191.2013702392578" stroke-width="3.0" fill="none" stroke="rgb(0, 0, 0)" stroke-opacity="1.0" stroke-linecap="round" stroke-linejoin="round"/>
    <path d="M 163.20391845703125 115.34623718261719 C 209.7127685546875 114.54444122314453 186.59231567382812 123.21522521972656 196.85716247558594 111.47089385986328" stroke-width="3.0" fill="none" stroke="rgb(0, 0, 0)" stroke-opacity="1.0" stroke-linecap="round" stroke-linejoin="round"/>
    <path d="M 98.60771179199219 103.49231719970703 C 133.35951232910156 108.97943878173828 95.10416412353516 149.33262634277344 158.44749450683594 142.61050415039062" stroke-width="3.0" fill="none" stroke="rgb(0, 0, 0)" stroke-opacity="1.0" stroke-linecap="round" stroke-linejoin="round"/>
    <path d="M 30.892274856567383 104.97856140136719 C 132.8699951171875 101.26717376708984 99.68280792236328 121.42367553710938 32.201602935791016 117.80545806884766" stroke-width="3.0" fill="none" stroke="rgb(0, 0, 0)" stroke-opacity="1.0" stroke-linecap="round" stroke-linejoin="round"/>
    <path d="M 180.5950469970703 115.52135467529297 C 153.578857421875 111.14559936523438 173.79466247558594 105.04108428955078 76.6589126586914 100.30793762207031" stroke-width="3.0" fill="none" stroke="rgb(0, 0, 0)" stroke-opacity="1.0" stroke-linecap="round" stroke-linejoin="round"/>
    <path d="M 29.417037963867188 172.13412475585938 C 77.59135437011719 219.8052978515625 118.18170166015625 214.92271423339844 138.01084899902344 211.798828125" stroke-width="3.0" fill="none" stroke="rgb(0, 0, 0)" stroke-opacity="1.0" stroke-linecap="round" stroke-linejoin="round"/>
    <path d="M 180.04257202148438 30.22175407409668 C 188.74758911132812 35.714073181152344 228.55638122558594 81.9753189086914 213.56719970703125 135.67617797851562" stroke-width="3.0" fill="none" stroke="rgb(0, 0, 0)" stroke-opacity="1.0" stroke-linecap="round" stroke-linejoin="round"/>
    <path d="M 93.60059356689453 88.04618835449219 C 133.11251831054688 65.80740356445312 161.5970916748047 92.23287963867188 133.96714782714844 93.13896179199219" stroke-width="3.0" fill="none" stroke="rgb(0, 0, 0)" stroke-opacity="1.0" stroke-linecap="round" stroke-linejoin="round"/>
    <path d="M 73.79129791259766 30.42337989807129 C 95.888916015625 -13.810304641723633 172.638916015625 9.821853637695312 192.41970825195312 44.130165100097656" stroke-width="3.0" fill="none" stroke="rgb(0, 0, 0)" stroke-opacity="1.0" stroke-linecap="round" stroke-linejoin="round"/>
    <path d="M 122.54468536376953 132.5178680419922 C 166.79209899902344 134.9113311767578 207.82415771484375 128.70530700683594 120.10986328125 117.90049743652344" stroke-width="3.0" fill="none" stroke="rgb(0, 0, 0)" stroke-opacity="1.0" stroke-linecap="round" stroke-linejoin="round"/>
    <path d="M 88.63714599609375 140.4811553955078 C 84.78167724609375 146.884033203125 30.76933479309082 152.39926147460938 38.86735916137695 131.2184295654297" stroke-width="3.0" fill="none" stroke="rgb(0, 0, 0)" stroke-opacity="1.0" stroke-linecap="round" stroke-linejoin="round"/>
    <path d="M 177.34312438964844 142.00018310546875 C 199.6545867919922 150.01022338867188 177.21473693847656 102.18458557128906 177.9378662109375 132.76612854003906" stroke-width="3.0" fill="none" stroke="rgb(0, 0, 0)" stroke-opacity="1.0" stroke-linecap="round" stroke-linejoin="round"/>
    <path d="M 173.8612518310547 190.9681396484375 C 106.56500244140625 189.3805389404297 117.27741241455078 176.09762573242188 171.83924865722656 196.32327270507812" stroke-width="3.0" fill="none" stroke="rgb(0, 0, 0)" stroke-opacity="1.0" stroke-linecap="round" stroke-linejoin="round"/>
    <path d="M 72.47090911865234 106.92587280273438 C 79.67862701416016 135.5626983642578 55.285369873046875 151.5778350830078 32.72453689575195 122.8353271484375" stroke-width="3.0" fill="none" stroke="rgb(0, 0, 0)" stroke-opacity="1.0" stroke-linecap="round" stroke-linejoin="round"/>
    <path d="M 112.05023193359375 85.22779846191406 C 97.21989440917969 85.30397033691406 57.27273178100586 82.5174789428711 117.40953826904297 86.26252746582031" stroke-width="3.0" fill="none" stroke="rgb(0, 0, 0)" stroke-opacity="1.0" stroke-linecap="round" stroke-linejoin="round"/>
    <path d="M 70.51957702636719 115.22810363769531 C 77.2618408203125 102.9117431640625 108.27264404296875 121.17085266113281 45.7118034362793 114.923095703125" stroke-width="3.0" fill="none" stroke="rgb(0, 0, 0)" stroke-opacity="1.0" stroke-linecap="round" stroke-linejoin="round"/>
    <path d="M 149.44093322753906 110.09284973144531 C 87.5185317993164 101.14324188232422 164.19190979003906 110.64520263671875 161.46946716308594 95.120849609375" stroke-width="3.0" fill="none" stroke="rgb(0, 0, 0)" stroke-opacity="1.0" stroke-linecap="round" stroke-linejoin="round"/>
    <path d="M 95.69127655029297 119.52519226074219 C 65.98149108886719 147.164306640625 115.8956527709961 151.367431640625 84.83869934082031 152.13706970214844" stroke-width="3.0" fill="none" stroke="rgb(0, 0, 0)" stroke-opacity="1.0" stroke-linecap="round" stroke-linejoin="round"/>
    <path d="M 25.59292221069336 50.560508728027344 C 19.685264587402344 66.34591674804688 0.6935548782348633 95.92466735839844 7.032039642333984 128.71434020996094" stroke-width="3.0" fill="none" stroke="rgb(0, 0, 0)" stroke-opacity="1.0" stroke-linecap="round" stroke-linejoin="round"/>
    <path d="M 185.0692138671875 189.45790100097656 C 188.95233154296875 182.5041046142578 225.36985778808594 144.41708374023438 214.45191955566406 96.29722595214844" stroke-width="3.0" fill="none" stroke="rgb(0, 0, 0)" stroke-opacity="1.0" stroke-linecap="round" stroke-linejoin="round"/>
    <path d="M 152.83485412597656 111.32312774658203 C 209.9331817626953 120.18717193603516 198.11363220214844 108.67337036132812 165.3455047607422 102.3709945678711" stroke-width="3.0" fill="none" stroke="rgb(0, 0, 0)" stroke-opacity="1.0" stroke-linecap="round" stroke-linejoin="round"/>
    <path d="M 131.10072326660156 101.52979278564453 C 262.8220520019531 121.3343734741211 144.8775634765625 96.70731353759766 178.61520385742188 142.20721435546875" stroke-width="3.0" fill="none" stroke="rgb(0, 0, 0)" stroke-opacity="1.0" stroke-linecap="round" stroke-linejoin="round"/>
    <path d="M 157.85906982421875 95.3936538696289 C 142.658447265625 65.6755599975586 124.22743225097656 127.15166473388672 133.8363494873047 82.93135833740234" stroke-width="3.0" fill="none" stroke="rgb(0, 0, 0)" stroke-opacity="1.0" stroke-linecap="round" stroke-linejoin="round"/>
    <path d="M 66.22808837890625 143.2319793701172 C 140.05197143554688 169.7887725830078 91.59442901611328 86.23558807373047 96.6764907836914 128.34873962402344" stroke-width="3.0" fill="none" stroke="rgb(0, 0, 0)" stroke-opacity="1.0" stroke-linecap="round" stroke-linejoin="round"/>
    <path d="M 175.52630615234375 119.17668151855469 C 182.7642059326172 104.4219970703125 198.92965698242188 138.81686401367188 181.9013671875 144.95089721679688" stroke-width="3.0" fill="none" stroke="rgb(0, 0, 0)" stroke-opacity="1.0" stroke-linecap="round" stroke-linejoin="round"/>
    <path d="M 137.3275146484375 89.54499053955078 C 106.90650177001953 113.01021575927734 193.2163543701172 107.54678344726562 139.77813720703125 99.44529724121094" stroke-width="3.0" fill="none" stroke="rgb(0, 0, 0)" stroke-opacity="1.0" stroke-linecap="round" stroke-linejoin="round"/>
    <path d="M 59.91850662231445 12.709915161132812 C 98.57601928710938 -11.918089866638184 99.57440185546875 -11.40350341796875 64.56938171386719 8.367632865905762" stroke-width="3.0" fill="none" stroke="rgb(0, 0, 0)" stroke-opacity="1.0" stroke-linecap="round" stroke-linejoin="round"/>
    <path d="M 26.458024978637695 123.17124938964844 C 88.09074401855469 143.2250518798828 97.10636901855469 138.22958374023438 31.247655868530273 140.51329040527344" stroke-width="3.0" fill="none" stroke="rgb(0, 0, 0)" stroke-opacity="1.0" stroke-linecap="round" stroke-linejoin="round"/>
    <path d="M 175.6836700439453 140.31460571289062 C 165.62477111816406 102.65260314941406 203.26007080078125 114.0084228515625 184.3498992919922 135.7891845703125" stroke-width="3.0" fill="none" stroke="rgb(0, 0, 0)" stroke-opacity="1.0" stroke-linecap="round" stroke-linejoin="round"/>
    <path d="M 55.05740737915039 146.74501037597656 C 14.630911827087402 118.83704376220703 32.543434143066406 78.0217056274414 57.98236846923828 104.98111724853516" stroke-width="3.0" fill="none" stroke="rgb(0, 0, 0)" stroke-opacity="1.0" stroke-linecap="round" stroke-linejoin="round"/>
    <path d="M 6.348178386688232 120.20610046386719 C 14.632007598876953 185.73915100097656 80.80117797851562 220.92782592773438 117.97756958007812 213.82923889160156" stroke-width="3.0" fill="none" stroke="rgb(0, 0, 0)" stroke-opacity="1.0" stroke-linecap="round" stroke-linejoin="round"/>
    <path d="M 63.92972946166992 152.9060516357422 C 190.5833282470703 151.4905242919922 212.634033203125 139.90121459960938 110.65794372558594 141.4517822265625" stroke-width="3.0" fill="none" stroke="rgb(0, 0, 0)" stroke-opacity="1.0" stroke-linecap="round" stroke-linejoin="round"/>
    <path d="M 174.82217407226562 119.42489624023438 C 138.25820922851562 112.6703109741211 117.4063491821289 112.9063491821289 193.8578643798828 116.76726531982422" stroke-width="3.0" fill="none" stroke="rgb(0, 0, 0)" stroke-opacity="1.0" stroke-linecap="round" stroke-linejoin="round"/>
    <path d="M 38.19864273071289 96.63762664794922 C 34.02093505859375 118.76598358154297 57.8363151550293 77.68757629394531 53.42060089111328 113.78942108154297" stroke-width="3.0" fill="none" stroke="rgb(0, 0, 0)" stroke-opacity="1.0" stroke-linecap="round" stroke-linejoin="round"/>
    <path d="M 27.29556655883789 120.95691680908203 C 120.27764892578125 121.6948471069336 74.73987579345703 128.99595642089844 98.01608276367188 108.78518676757812" stroke-width="3.0" fill="none" stroke="rgb(0, 0, 0)" stroke-opacity="1.0" stroke-linecap="round" stroke-linejoin="round"/>
    <path d="M 25.997425079345703 49.1710205078125 C 49.8416862487793 23.520389556884766 41.86939239501953 26.72673797607422 66.61502838134766 8.202059745788574" stroke-width="3.0" fill="none" stroke="rgb(0, 0, 0)" stroke-opacity="1.0" stroke-linecap="round" stroke-linejoin="round"/>
    <path d="M 187.75717163085938 145.20945739746094 C 186.34483337402344 148.70423889160156 82.70962524414062 141.54014587402344 136.35594177246094 137.41043090820312" stroke-width="3.0" fill="none" stroke="rgb(0, 0, 0)" stroke-opacity="1.0" stroke-linecap="round" stroke-linejoin="round"/>
    <path d="M 38.920372009277344 124.20684814453125 C 86.56468963623047 127.36922454833984 127.0448226928711 133.5099334716797 46.37470626831055 134.06390380859375" stroke-width="3.0" fill="none" stroke="rgb(0, 0, 0)" stroke-opacity="1.0" stroke-linecap="round" stroke-linejoin="round"/>
    <path d="M 101.70653533935547 85.29984283447266 C 86.43083953857422 87.13887786865234 123.81550598144531 80.31197357177734 115.09201049804688 83.92962646484375" stroke-width="3.0" fill="none" stroke="rgb(0, 0, 0)" stroke-opacity="1.0" stroke-linecap="round" stroke-linejoin="round"/>
    <path d="M 163.3939971923828 105.87728881835938 C 176.72727966308594 91.54713439941406 128.32949829101562 69.83731842041016 91.78179931640625 84.03952026367188" stroke-width="3.0" fill="none" stroke="rgb(0, 0, 0)" stroke-opacity="1.0" stroke-linecap="round" stroke-linejoin="round"/>
  </g>
</svg>
