<?xml version="1.0" ?>
<svg xmlns="http://www.w3.org/2000/svg" version="1.1" width="224" height="224">
  <defs/>
  <g>
    <path d="M 72.67169952392578 112.94547271728516 C 125.21056365966797 83.839111328125 122.41873931884766 166.40985107421875 84.6336669921875 148.99575805664062" stroke-width="3.0" fill="none" stroke="rgb(0, 0, 0)" stroke-opacity="1.0" stroke-linecap="round" stroke-linejoin="round"/>
    <path d="M 87.78875732421875 126.41704559326172 C 107.04325103759766 169.3874053955078 81.36222839355469 133.96102905273438 67.8463134765625 128.2847900390625" stroke-width="3.0" fill="none" stroke="rgb(0, 0, 0)" stroke-opacity="1.0" stroke-linecap="round" stroke-linejoin="round"/>
    <path d="M 78.3269271850586 145.91281127929688 C 49.82389831542969 139.68540954589844 57.08969497680664 141.27059936523438 81.15904235839844 139.0940399169922" stroke-width="3.0" fill="none" stroke="rgb(0, 0, 0)" stroke-opacity="1.0" stroke-linecap="round" stroke-linejoin="round"/>
    <path d="M 30.930835723876953 125.91146087646484 C 141.7096405029297 127.62860870361328 68.52458190917969 137.36203002929688 101.85560607910156 144.97756958007812" stroke-width="3.0" fill="none" stroke="rgb(0, 0, 0)" stroke-opacity="1.0" stroke-linecap="round" stroke-linejoin="round"/>
    <path d="M 140.910888671875 85.94418334960938 C 179.32174682617188 106.42420959472656 182.02951049804688 126.16738891601562 147.42562866210938 91.26114654541016" stroke-width="3.0" fill="none" stroke="rgb(0, 0, 0)" stroke-opacity="1.0" stroke-linecap="round" stroke-linejoin="round"/>
    <path d="M 168.9852752685547 144.9784393310547 C 162.2232208251953 98.46074676513672 208.5881805419922 133.1607208251953 117.23985290527344 114.1639404296875" stroke-width="3.0" fill="none" stroke="rgb(0, 0, 0)" stroke-opacity="1.0" stroke-linecap="round" stroke-linejoin="round"/>
    <path d="M 32.084625244140625 105.66679382324219 C 257.44512939453125 120.63395690917969 143.57192993164062 82.94335174560547 29.9230899810791 94.46346282958984" stroke-width="3.0" fill="none" stroke="rgb(0, 0, 0)" stroke-opacity="1.0" stroke-linecap="round" stroke-linejoin="round"/>
    <path d="M 103.8841781616211 131.91177368164062 C 105.69115447998047 101.63439178466797 76.15082550048828 144.74244689941406 59.590049743652344 124.20603942871094" stroke-width="3.0" fill="none" stroke="rgb(0, 0, 0)" stroke-opacity="1.0" stroke-linecap="round" stroke-linejoin="round"/>
    <path d="M 119.1501235961914 213.81040954589844 C 161.10903930664062 206.3314666748047 178.1608123779297 194.5653839111328 184.7647247314453 186.1647186279297" stroke-width="3.0" fill="none" stroke="rgb(0, 0, 0)" stroke-opacity="1.0" stroke-linecap="round" stroke-linejoin="round"/>
    <path d="M 143.41879272460938 105.30718231201172 C 215.8091583251953 112.87944030761719 180.74671936035156 129.1452178955078 195.67764282226562 112.47783660888672" stroke-width="3.0" fill="none" stroke="rgb(0, 0, 0)" stroke-opacity="1.0" stroke-linecap="round" stroke-linejoin="round"/>
    <path d="M 107.81407928466797 107.173095703125 C 132.29222106933594 137.4768524169922 78.12989044189453 136.0631561279297 165.78993225097656 135.18789672851562" stroke-width="3.0" fill="none" stroke="rgb(0, 0, 0)" stroke-opacity="1.0" stroke-linecap="round" stroke-linejoin="round"/>
    <path d="M 30.182565689086914 98.75531768798828 C 119.6666488647461 112.29190063476562 95.90962219238281 122.45603942871094 31.09676170349121 110.22428894042969" stroke-width="3.0" fill="none" stroke="rgb(0, 0, 0)" stroke-opacity="1.0" stroke-linecap="round" stroke-linejoin="round"/>
    <path d="M 176.99818420410156 110.64781951904297 C 147.99928283691406 114.26129913330078 167.70860290527344 103.59202575683594 65.7668228149414 95.93710327148438" stroke-width="3.0" fill="none" stroke="rgb(0, 0, 0)" stroke-opacity="1.0" stroke-linecap="round" stroke-linejoin="round"/>
    <path d="M 20.041507720947266 157.0083770751953 C 71.7823486328125 223.5686798095703 124.77745819091797 213.4920654296875 163.36264038085938 198.4442596435547" stroke-width="3.0" fill="none" stroke="rgb(0, 0, 0)" stroke-opacity="1.0" stroke-linecap="round" stroke-linejoin="round"/>
    <path d="M 178.8077850341797 28.171422958374023 C 188.59153747558594 36.144630432128906 230.25833129882812 81.98648071289062 214.8572540283203 132.36302185058594" stroke-width="3.0" fill="none" stroke="rgb(0, 0, 0)" stroke-opacity="1.0" stroke-linecap="round" stroke-linejoin="round"/>
    <path d="M 93.76727294921875 92.0426254272461 C 124.3777847290039 67.79935455322266 169.47059631347656 97.84635925292969 145.5997772216797 85.54689025878906" stroke-width="3.0" fill="none" stroke="rgb(0, 0, 0)" stroke-opacity="1.0" stroke-linecap="round" stroke-linejoin="round"/>
    <path d="M 79.15912628173828 38.392921447753906 C 75.35798645019531 -18.240806579589844 172.77908325195312 6.65812873840332 194.39462280273438 44.58125305175781" stroke-width="3.0" fill="none" stroke="rgb(0, 0, 0)" stroke-opacity="1.0" stroke-linecap="round" stroke-linejoin="round"/>
    <path d="M 108.29969024658203 149.03443908691406 C 172.1227264404297 150.3199005126953 210.6786651611328 142.08953857421875 113.00872039794922 142.78256225585938" stroke-width="3.0" fill="none" stroke="rgb(0, 0, 0)" stroke-opacity="1.0" stroke-linecap="round" stroke-linejoin="round"/>
    <path d="M 67.89015197753906 131.2778778076172 C 77.77070617675781 144.4455108642578 17.229366302490234 159.8710479736328 51.61185836791992 108.2169418334961" stroke-width="3.0" fill="none" stroke="rgb(0, 0, 0)" stroke-opacity="1.0" stroke-linecap="round" stroke-linejoin="round"/>
    <path d="M 173.75103759765625 147.0399169921875 C 201.09765625 146.13897705078125 174.17776489257812 101.97843170166016 180.09112548828125 135.2196044921875" stroke-width="3.0" fill="none" stroke="rgb(0, 0, 0)" stroke-opacity="1.0" stroke-linecap="round" stroke-linejoin="round"/>
    <path d="M 190.43722534179688 178.10992431640625 C 168.79144287109375 189.15542602539062 182.90162658691406 194.6494903564453 167.1118927001953 193.02859497070312" stroke-width="3.0" fill="none" stroke="rgb(0, 0, 0)" stroke-opacity="1.0" stroke-linecap="round" stroke-linejoin="round"/>
    <path d="M 58.75729751586914 130.15042114257812 C 108.16815185546875 139.0759735107422 71.21125793457031 143.18296813964844 50.32975769042969 122.5067138671875" stroke-width="3.0" fill="none" stroke="rgb(0, 0, 0)" stroke-opacity="1.0" stroke-linecap="round" stroke-linejoin="round"/>
    <path d="M 113.51991271972656 83.57502746582031 C 106.58487701416016 88.5483627319336 84.45526123046875 97.01437377929688 117.98017120361328 84.85317993164062" stroke-width="3.0" fill="none" stroke="rgb(0, 0, 0)" stroke-opacity="1.0" stroke-linecap="round" stroke-linejoin="round"/>
    <path d="M 40.24729537963867 109.76904296875 C 93.03343200683594 103.02906799316406 128.01194763183594 140.75399780273438 40.60419845581055 123.52928924560547" stroke-width="3.0" fill="none" stroke="rgb(0, 0, 0)" stroke-opacity="1.0" stroke-linecap="round" stroke-linejoin="round"/>
    <path d="M 161.1762237548828 118.89787292480469 C 45.90613555908203 128.26629638671875 169.37803649902344 113.17053985595703 170.46435546875 102.64734649658203" stroke-width="3.0" fill="none" stroke="rgb(0, 0, 0)" stroke-opacity="1.0" stroke-linecap="round" stroke-linejoin="round"/>
    <path d="M 93.48113250732422 107.06478881835938 C 63.332706451416016 140.0219268798828 113.92750549316406 158.13204956054688 77.90068817138672 142.77432250976562" stroke-width="3.0" fill="none" stroke="rgb(0, 0, 0)" stroke-opacity="1.0" stroke-linecap="round" stroke-linejoin="round"/>
    <path d="M 25.51845932006836 48.55240249633789 C 18.5362491607666 66.56896209716797 -2.6460297107696533 92.2091064453125 19.077518463134766 153.06961059570312" stroke-width="3.0" fill="none" stroke="rgb(0, 0, 0)" stroke-opacity="1.0" stroke-linecap="round" stroke-linejoin="round"/>
    <path d="M 178.8730010986328 192.36788940429688 C 189.07135009765625 184.9674530029297 227.08619689941406 141.36636352539062 216.37928771972656 91.76582336425781" stroke-width="3.0" fill="none" stroke="rgb(0, 0, 0)" stroke-opacity="1.0" stroke-linecap="round" stroke-linejoin="round"/>
    <path d="M 155.4227752685547 98.14911651611328 C 217.0657501220703 116.07841491699219 194.69668579101562 118.7329330444336 167.71792602539062 103.85199737548828" stroke-width="3.0" fill="none" stroke="rgb(0, 0, 0)" stroke-opacity="1.0" stroke-linecap="round" stroke-linejoin="round"/>
    <path d="M 134.2805633544922 96.92626190185547 C 251.56430053710938 119.17241668701172 146.892333984375 100.71096801757812 173.62646484375 148.14968872070312" stroke-width="3.0" fill="none" stroke="rgb(0, 0, 0)" stroke-opacity="1.0" stroke-linecap="round" stroke-linejoin="round"/>
    <path d="M 154.44229125976562 107.60978698730469 C 138.9185333251953 47.3897705078125 128.27554321289062 129.7963104248047 137.4806671142578 85.25598907470703" stroke-width="3.0" fill="none" stroke="rgb(0, 0, 0)" stroke-opacity="1.0" stroke-linecap="round" stroke-linejoin="round"/>
    <path d="M 62.758522033691406 141.892578125 C 144.35044860839844 169.6531982421875 91.09912872314453 80.4166259765625 90.89736938476562 133.28900146484375" stroke-width="3.0" fill="none" stroke="rgb(0, 0, 0)" stroke-opacity="1.0" stroke-linecap="round" stroke-linejoin="round"/>
    <path d="M 169.76779174804688 111.36772155761719 C 176.68336486816406 90.64582824707031 201.58663940429688 141.68272399902344 180.79147338867188 144.70594787597656" stroke-width="3.0" fill="none" stroke="rgb(0, 0, 0)" stroke-opacity="1.0" stroke-linecap="round" stroke-linejoin="round"/>
    <path d="M 76.22270965576172 104.92975616455078 C 74.16654968261719 103.04605865478516 199.17478942871094 108.19147491455078 161.3063507080078 111.33168029785156" stroke-width="3.0" fill="none" stroke="rgb(0, 0, 0)" stroke-opacity="1.0" stroke-linecap="round" stroke-linejoin="round"/>
    <path d="M 61.66001892089844 12.510693550109863 C 93.6156234741211 -17.1235408782959 103.75139617919922 -14.099724769592285 69.56523132324219 4.985208988189697" stroke-width="3.0" fill="none" stroke="rgb(0, 0, 0)" stroke-opacity="1.0" stroke-linecap="round" stroke-linejoin="round"/>
    <path d="M 26.13318634033203 126.72557830810547 C 101.73785400390625 143.621337890625 111.48089599609375 156.2890625 33.694305419921875 146.95433044433594" stroke-width="3.0" fill="none" stroke="rgb(0, 0, 0)" stroke-opacity="1.0" stroke-linecap="round" stroke-linejoin="round"/>
    <path d="M 179.1251678466797 124.6603775024414 C 151.57240295410156 107.96797180175781 205.0025177001953 124.56307220458984 186.76141357421875 120.93378448486328" stroke-width="3.0" fill="none" stroke="rgb(0, 0, 0)" stroke-opacity="1.0" stroke-linecap="round" stroke-linejoin="round"/>
    <path d="M 66.92330932617188 137.10247802734375 C 8.396347999572754 141.0635986328125 24.37533187866211 84.13265991210938 61.20151901245117 99.75260925292969" stroke-width="3.0" fill="none" stroke="rgb(0, 0, 0)" stroke-opacity="1.0" stroke-linecap="round" stroke-linejoin="round"/>
    <path d="M 4.80580997467041 106.6648178100586 C 6.4116363525390625 186.36526489257812 81.9609375 227.6667022705078 132.09835815429688 209.4359130859375" stroke-width="3.0" fill="none" stroke="rgb(0, 0, 0)" stroke-opacity="1.0" stroke-linecap="round" stroke-linejoin="round"/>
    <path d="M 54.81428146362305 148.60879516601562 C 186.0297088623047 155.6441192626953 238.21253967285156 137.91339111328125 107.51200103759766 147.56553649902344" stroke-width="3.0" fill="none" stroke="rgb(0, 0, 0)" stroke-opacity="1.0" stroke-linecap="round" stroke-linejoin="round"/>
    <path d="M 166.43911743164062 102.47480773925781 C 91.08866882324219 125.32503509521484 90.32295989990234 101.6522445678711 187.46075439453125 114.89627075195312" stroke-width="3.0" fill="none" stroke="rgb(0, 0, 0)" stroke-opacity="1.0" stroke-linecap="round" stroke-linejoin="round"/>
    <path d="M 32.62326431274414 99.57454681396484 C 36.744415283203125 124.2888412475586 82.31983184814453 78.07559204101562 65.58870697021484 111.80982971191406" stroke-width="3.0" fill="none" stroke="rgb(0, 0, 0)" stroke-opacity="1.0" stroke-linecap="round" stroke-linejoin="round"/>
    <path d="M 31.849382400512695 122.3228988647461 C 125.18467712402344 117.91446685791016 73.89820098876953 136.79425048828125 98.54667663574219 116.45520782470703" stroke-width="3.0" fill="none" stroke="rgb(0, 0, 0)" stroke-opacity="1.0" stroke-linecap="round" stroke-linejoin="round"/>
    <path d="M 26.86925506591797 46.058311462402344 C 48.025115966796875 20.68300437927246 46.72065734863281 22.72589683532715 72.32935333251953 5.997622966766357" stroke-width="3.0" fill="none" stroke="rgb(0, 0, 0)" stroke-opacity="1.0" stroke-linecap="round" stroke-linejoin="round"/>
    <path d="M 172.89450073242188 143.53402709960938 C 182.8518829345703 136.84388732910156 55.998268127441406 150.0137939453125 133.0758819580078 145.32167053222656" stroke-width="3.0" fill="none" stroke="rgb(0, 0, 0)" stroke-opacity="1.0" stroke-linecap="round" stroke-linejoin="round"/>
    <path d="M 30.174510955810547 121.61299896240234 C 87.64439392089844 127.2096939086914 112.68486022949219 130.93466186523438 52.36128234863281 135.05429077148438" stroke-width="3.0" fill="none" stroke="rgb(0, 0, 0)" stroke-opacity="1.0" stroke-linecap="round" stroke-linejoin="round"/>
    <path d="M 109.00064086914062 88.49766540527344 C 105.41227722167969 99.05270385742188 123.69468688964844 79.77815246582031 119.98303985595703 82.94810485839844" stroke-width="3.0" fill="none" stroke="rgb(0, 0, 0)" stroke-opacity="1.0" stroke-linecap="round" stroke-linejoin="round"/>
    <path d="M 159.5321807861328 101.04166412353516 C 191.0214385986328 94.3183822631836 118.26679992675781 72.8193588256836 111.15140533447266 88.28670501708984" stroke-width="3.0" fill="none" stroke="rgb(0, 0, 0)" stroke-opacity="1.0" stroke-linecap="round" stroke-linejoin="round"/>
  </g>
</svg>
