<?xml version="1.0" ?>
<svg xmlns="http://www.w3.org/2000/svg" version="1.1" width="224" height="224">
  <defs/>
  <g>
    <path d="M 109.3721923828125 103.83919525146484 C 132.95263671875 109.96080780029297 129.92794799804688 111.67827606201172 126.95214080810547 125.69725036621094" stroke-width="3.0" fill="none" stroke="rgb(0, 0, 0)" stroke-opacity="1.0" stroke-linecap="round" stroke-linejoin="round"/>
    <path d="M 79.73396301269531 130.93411254882812 C 79.96432495117188 141.38795471191406 63.645076751708984 140.39735412597656 67.53496551513672 125.1465072631836" stroke-width="3.0" fill="none" stroke="rgb(0, 0, 0)" stroke-opacity="1.0" stroke-linecap="round" stroke-linejoin="round"/>
    <path d="M 35.76750183105469 118.37403106689453 C 15.164128303527832 115.48615264892578 36.91670227050781 129.12200927734375 70.37747955322266 137.68310546875" stroke-width="3.0" fill="none" stroke="rgb(0, 0, 0)" stroke-opacity="1.0" stroke-linecap="round" stroke-linejoin="round"/>
    <path d="M 51.685787200927734 123.58573913574219 C 74.2470474243164 120.63688659667969 78.76876068115234 132.24267578125 80.9918212890625 112.61670684814453" stroke-width="3.0" fill="none" stroke="rgb(0, 0, 0)" stroke-opacity="1.0" stroke-linecap="round" stroke-linejoin="round"/>
    <path d="M 130.2225799560547 105.1528549194336 C 178.33218383789062 114.46398162841797 166.78448486328125 104.60285186767578 103.0541000366211 90.98375701904297" stroke-width="3.0" fill="none" stroke="rgb(0, 0, 0)" stroke-opacity="1.0" stroke-linecap="round" stroke-linejoin="round"/>
    <path d="M 166.05612182617188 128.77609252929688 C 165.01431274414062 125.23445892333984 168.57516479492188 129.47320556640625 148.82241821289062 126.03748321533203" stroke-width="3.0" fill="none" stroke="rgb(0, 0, 0)" stroke-opacity="1.0" stroke-linecap="round" stroke-linejoin="round"/>
    <path d="M 70.42867279052734 104.04220581054688 C 93.61099243164062 102.38311767578125 90.15467834472656 110.74677276611328 65.6255874633789 110.59088134765625" stroke-width="3.0" fill="none" stroke="rgb(0, 0, 0)" stroke-opacity="1.0" stroke-linecap="round" stroke-linejoin="round"/>
    <path d="M 71.59252166748047 143.51870727539062 C 75.62626647949219 141.34368896484375 64.12303924560547 145.9075469970703 54.50649642944336 142.25173950195312" stroke-width="3.0" fill="none" stroke="rgb(0, 0, 0)" stroke-opacity="1.0" stroke-linecap="round" stroke-linejoin="round"/>
    <path d="M 165.1273956298828 196.7402801513672 C 154.82498168945312 204.03646850585938 169.6047821044922 195.75927734375 170.61183166503906 191.2342987060547" stroke-width="3.0" fill="none" stroke="rgb(0, 0, 0)" stroke-opacity="1.0" stroke-linecap="round" stroke-linejoin="round"/>
    <path d="M 163.34226989746094 100.06519317626953 C 181.30821228027344 103.7346420288086 178.3440704345703 102.21330261230469 198.0286407470703 111.86394500732422" stroke-width="3.0" fill="none" stroke="rgb(0, 0, 0)" stroke-opacity="1.0" stroke-linecap="round" stroke-linejoin="round"/>
    <path d="M 125.81737518310547 111.1412124633789 C 135.27947998046875 123.89984893798828 125.23574829101562 150.99012756347656 135.48313903808594 133.42677307128906" stroke-width="3.0" fill="none" stroke="rgb(0, 0, 0)" stroke-opacity="1.0" stroke-linecap="round" stroke-linejoin="round"/>
    <path d="M 41.3543815612793 107.43024444580078 C 84.26936340332031 96.76628112792969 70.90867614746094 112.04572296142578 61.05488204956055 119.08468627929688" stroke-width="3.0" fill="none" stroke="rgb(0, 0, 0)" stroke-opacity="1.0" stroke-linecap="round" stroke-linejoin="round"/>
    <path d="M 153.6946563720703 127.37628173828125 C 138.46749877929688 130.203369140625 148.45628356933594 120.75350189208984 148.8384552001953 113.88318634033203" stroke-width="3.0" fill="none" stroke="rgb(0, 0, 0)" stroke-opacity="1.0" stroke-linecap="round" stroke-linejoin="round"/>
    <path d="M 117.54508209228516 176.12001037597656 C 109.84064483642578 173.7814483642578 113.57012939453125 177.53988647460938 112.26126098632812 171.93264770507812" stroke-width="3.0" fill="none" stroke="rgb(0, 0, 0)" stroke-opacity="1.0" stroke-linecap="round" stroke-linejoin="round"/>
    <path d="M 173.32940673828125 25.429107666015625 C 195.07879638671875 38.62955856323242 207.05728149414062 51.1288948059082 214.49343872070312 87.78827667236328" stroke-width="3.0" fill="none" stroke="rgb(0, 0, 0)" stroke-opacity="1.0" stroke-linecap="round" stroke-linejoin="round"/>
    <path d="M 100.72383880615234 84.4489517211914 C 150.3096923828125 79.14521789550781 138.12896728515625 81.7292251586914 127.59762573242188 98.88397216796875" stroke-width="3.0" fill="none" stroke="rgb(0, 0, 0)" stroke-opacity="1.0" stroke-linecap="round" stroke-linejoin="round"/>
    <path d="M 124.4063949584961 10.551702499389648 C 149.26622009277344 11.904281616210938 163.6443634033203 16.961746215820312 180.33848571777344 29.751201629638672" stroke-width="3.0" fill="none" stroke="rgb(0, 0, 0)" stroke-opacity="1.0" stroke-linecap="round" stroke-linejoin="round"/>
    <path d="M 141.2895050048828 133.3453369140625 C 141.6129150390625 136.75099182128906 130.2687225341797 137.57984924316406 141.0529022216797 133.0767822265625" stroke-width="3.0" fill="none" stroke="rgb(0, 0, 0)" stroke-opacity="1.0" stroke-linecap="round" stroke-linejoin="round"/>
    <path d="M 67.24357604980469 134.15989685058594 C 49.87236785888672 153.43519592285156 62.50770950317383 150.50091552734375 31.26906967163086 142.52687072753906" stroke-width="3.0" fill="none" stroke="rgb(0, 0, 0)" stroke-opacity="1.0" stroke-linecap="round" stroke-linejoin="round"/>
    <path d="M 169.5167694091797 134.54026794433594 C 186.9765167236328 170.4197540283203 191.75599670410156 102.36011505126953 171.61521911621094 129.42080688476562" stroke-width="3.0" fill="none" stroke="rgb(0, 0, 0)" stroke-opacity="1.0" stroke-linecap="round" stroke-linejoin="round"/>
    <path d="M 112.5196304321289 201.914306640625 C 116.34880065917969 192.04005432128906 114.04544067382812 195.0330352783203 112.57064819335938 194.7093505859375" stroke-width="3.0" fill="none" stroke="rgb(0, 0, 0)" stroke-opacity="1.0" stroke-linecap="round" stroke-linejoin="round"/>
    <path d="M 51.54098892211914 134.17567443847656 C 55.98237228393555 121.93144989013672 50.029510498046875 113.33577728271484 30.9984188079834 126.64885711669922" stroke-width="3.0" fill="none" stroke="rgb(0, 0, 0)" stroke-opacity="1.0" stroke-linecap="round" stroke-linejoin="round"/>
    <path d="M 63.72077560424805 105.95387268066406 C 69.18789672851562 109.3215103149414 35.065677642822266 109.17403411865234 60.03479766845703 105.9361343383789" stroke-width="3.0" fill="none" stroke="rgb(0, 0, 0)" stroke-opacity="1.0" stroke-linecap="round" stroke-linejoin="round"/>
    <path d="M 76.21170806884766 124.65888977050781 C 73.10041046142578 107.4208755493164 76.97384643554688 111.36055755615234 56.87102127075195 119.17552947998047" stroke-width="3.0" fill="none" stroke="rgb(0, 0, 0)" stroke-opacity="1.0" stroke-linecap="round" stroke-linejoin="round"/>
    <path d="M 147.3083038330078 105.9078369140625 C 117.29718017578125 91.8334732055664 156.2039031982422 119.2984848022461 159.81312561035156 93.97390747070312" stroke-width="3.0" fill="none" stroke="rgb(0, 0, 0)" stroke-opacity="1.0" stroke-linecap="round" stroke-linejoin="round"/>
    <path d="M 84.46263885498047 108.16715240478516 C 73.81660461425781 124.05464935302734 77.27368927001953 184.50637817382812 75.80939483642578 133.61962890625" stroke-width="3.0" fill="none" stroke="rgb(0, 0, 0)" stroke-opacity="1.0" stroke-linecap="round" stroke-linejoin="round"/>
    <path d="M 17.937231063842773 83.28937530517578 C 18.89820098876953 78.81723022460938 16.16453742980957 70.44075012207031 14.937053680419922 103.77947998046875" stroke-width="3.0" fill="none" stroke="rgb(0, 0, 0)" stroke-opacity="1.0" stroke-linecap="round" stroke-linejoin="round"/>
    <path d="M 176.34515380859375 189.87551879882812 C 183.13931274414062 174.41261291503906 182.13583374023438 190.26051330566406 191.50680541992188 160.60491943359375" stroke-width="3.0" fill="none" stroke="rgb(0, 0, 0)" stroke-opacity="1.0" stroke-linecap="round" stroke-linejoin="round"/>
    <path d="M 165.45860290527344 113.7220458984375 C 200.3469696044922 116.19908142089844 204.1475067138672 111.6658706665039 160.57205200195312 104.70732116699219" stroke-width="3.0" fill="none" stroke="rgb(0, 0, 0)" stroke-opacity="1.0" stroke-linecap="round" stroke-linejoin="round"/>
    <path d="M 152.80760192871094 102.86962890625 C 180.25733947753906 117.73253631591797 178.6150360107422 102.3641357421875 166.54888916015625 129.83639526367188" stroke-width="3.0" fill="none" stroke="rgb(0, 0, 0)" stroke-opacity="1.0" stroke-linecap="round" stroke-linejoin="round"/>
    <path d="M 141.91134643554688 104.83372497558594 C 144.9708251953125 100.28317260742188 135.38961791992188 121.05469512939453 142.22561645507812 83.65230560302734" stroke-width="3.0" fill="none" stroke="rgb(0, 0, 0)" stroke-opacity="1.0" stroke-linecap="round" stroke-linejoin="round"/>
    <path d="M 108.84716796875 140.81748962402344 C 119.9183120727539 120.46361541748047 107.24250793457031 91.53724670410156 83.255126953125 104.98660278320312" stroke-width="3.0" fill="none" stroke="rgb(0, 0, 0)" stroke-opacity="1.0" stroke-linecap="round" stroke-linejoin="round"/>
    <path d="M 194.9478302001953 112.78778076171875 C 195.243408203125 116.41075897216797 190.23243713378906 117.34705352783203 189.4048309326172 120.90990447998047" stroke-width="3.0" fill="none" stroke="rgb(0, 0, 0)" stroke-opacity="1.0" stroke-linecap="round" stroke-linejoin="round"/>
    <path d="M 158.93328857421875 121.08226013183594 C 146.9173583984375 100.80564880371094 178.64862060546875 101.15435791015625 144.75230407714844 102.10124969482422" stroke-width="3.0" fill="none" stroke="rgb(0, 0, 0)" stroke-opacity="1.0" stroke-linecap="round" stroke-linejoin="round"/>
    <path d="M 67.21627044677734 25.11872673034668 C 88.315185546875 35.035362243652344 87.90657043457031 30.77452278137207 62.42388153076172 25.12691307067871" stroke-width="3.0" fill="none" stroke="rgb(0, 0, 0)" stroke-opacity="1.0" stroke-linecap="round" stroke-linejoin="round"/>
    <path d="M 50.3599967956543 132.9251708984375 C 72.1076431274414 134.19859313964844 61.269100189208984 133.226806640625 53.14851379394531 148.2724151611328" stroke-width="3.0" fill="none" stroke="rgb(0, 0, 0)" stroke-opacity="1.0" stroke-linecap="round" stroke-linejoin="round"/>
    <path d="M 167.0762939453125 123.68828582763672 C 174.51515197753906 109.23894500732422 191.51513671875 111.50991821289062 187.89724731445312 133.77139282226562" stroke-width="3.0" fill="none" stroke="rgb(0, 0, 0)" stroke-opacity="1.0" stroke-linecap="round" stroke-linejoin="round"/>
    <path d="M 50.27806854248047 135.4263153076172 C 39.19363784790039 100.91487121582031 25.88251304626465 104.74492645263672 65.92364501953125 113.32190704345703" stroke-width="3.0" fill="none" stroke="rgb(0, 0, 0)" stroke-opacity="1.0" stroke-linecap="round" stroke-linejoin="round"/>
    <path d="M 100.03315734863281 172.9897003173828 C 90.65347290039062 164.8810272216797 96.42122650146484 165.47328186035156 100.92768859863281 176.70404052734375" stroke-width="3.0" fill="none" stroke="rgb(0, 0, 0)" stroke-opacity="1.0" stroke-linecap="round" stroke-linejoin="round"/>
    <path d="M 119.54130554199219 129.13436889648438 C 122.64824676513672 144.02227783203125 114.72978210449219 122.39911651611328 121.18661499023438 130.9387664794922" stroke-width="3.0" fill="none" stroke="rgb(0, 0, 0)" stroke-opacity="1.0" stroke-linecap="round" stroke-linejoin="round"/>
    <path d="M 157.5492401123047 114.44613647460938 C 158.73667907714844 120.32200622558594 137.41685485839844 109.23339080810547 183.20480346679688 112.13653564453125" stroke-width="3.0" fill="none" stroke="rgb(0, 0, 0)" stroke-opacity="1.0" stroke-linecap="round" stroke-linejoin="round"/>
    <path d="M 73.05413818359375 114.9668960571289 C 76.4716796875 121.0638656616211 61.75819778442383 118.60395050048828 71.5027084350586 115.39862060546875" stroke-width="3.0" fill="none" stroke="rgb(0, 0, 0)" stroke-opacity="1.0" stroke-linecap="round" stroke-linejoin="round"/>
    <path d="M 48.64744186401367 113.55706787109375 C 67.01321411132812 118.97431945800781 92.77954864501953 116.56558227539062 72.62114715576172 124.26284790039062" stroke-width="3.0" fill="none" stroke="rgb(0, 0, 0)" stroke-opacity="1.0" stroke-linecap="round" stroke-linejoin="round"/>
    <path d="M 18.4195556640625 51.68064498901367 C 39.67976760864258 27.001829147338867 40.82313537597656 34.3227424621582 50.996612548828125 28.11012840270996" stroke-width="3.0" fill="none" stroke="rgb(0, 0, 0)" stroke-opacity="1.0" stroke-linecap="round" stroke-linejoin="round"/>
    <path d="M 165.8169708251953 133.1329803466797 C 148.57098388671875 132.1074981689453 154.02902221679688 132.91607666015625 121.04974365234375 129.23370361328125" stroke-width="3.0" fill="none" stroke="rgb(0, 0, 0)" stroke-opacity="1.0" stroke-linecap="round" stroke-linejoin="round"/>
    <path d="M 33.17733383178711 122.10806274414062 C 37.07472610473633 128.47479248046875 57.633338928222656 119.93405151367188 30.479455947875977 122.07698059082031" stroke-width="3.0" fill="none" stroke="rgb(0, 0, 0)" stroke-opacity="1.0" stroke-linecap="round" stroke-linejoin="round"/>
    <path d="M 90.39654541015625 95.04759979248047 C 106.25852966308594 72.78792572021484 106.6437759399414 88.50691223144531 112.31398010253906 88.64593505859375" stroke-width="3.0" fill="none" stroke="rgb(0, 0, 0)" stroke-opacity="1.0" stroke-linecap="round" stroke-linejoin="round"/>
    <path d="M 165.72442626953125 99.72206115722656 C 165.92640686035156 88.00432586669922 146.94252014160156 85.07267761230469 141.85418701171875 84.20703887939453" stroke-width="3.0" fill="none" stroke="rgb(0, 0, 0)" stroke-opacity="1.0" stroke-linecap="round" stroke-linejoin="round"/>
  </g>
</svg>
