<?xml version="1.0" ?>
<svg xmlns="http://www.w3.org/2000/svg" version="1.1" width="224" height="224">
  <defs/>
  <g>
    <path d="M 78.69991302490234 117.0528564453125 C 128.5416259765625 91.74290466308594 123.25106048583984 166.5873260498047 88.06195831298828 154.3781280517578" stroke-width="3.0" fill="none" stroke="rgb(0, 0, 0)" stroke-opacity="1.0" stroke-linecap="round" stroke-linejoin="round"/>
    <path d="M 64.11114501953125 134.52804565429688 C 90.75635528564453 168.32568359375 79.14624786376953 152.81527709960938 75.89688110351562 129.51364135742188" stroke-width="3.0" fill="none" stroke="rgb(0, 0, 0)" stroke-opacity="1.0" stroke-linecap="round" stroke-linejoin="round"/>
    <path d="M 87.08766174316406 139.71478271484375 C 37.34088134765625 144.22068786621094 55.86094284057617 155.76718139648438 86.79559326171875 135.33041381835938" stroke-width="3.0" fill="none" stroke="rgb(0, 0, 0)" stroke-opacity="1.0" stroke-linecap="round" stroke-linejoin="round"/>
    <path d="M 40.252952575683594 125.13606262207031 C 115.85774993896484 136.3520050048828 72.88009643554688 117.12425231933594 67.45097351074219 143.8119354248047" stroke-width="3.0" fill="none" stroke="rgb(0, 0, 0)" stroke-opacity="1.0" stroke-linecap="round" stroke-linejoin="round"/>
    <path d="M 111.35108184814453 80.72705841064453 C 196.8959197998047 95.61254119873047 194.3285369873047 112.0094223022461 125.92066192626953 97.79803466796875" stroke-width="3.0" fill="none" stroke="rgb(0, 0, 0)" stroke-opacity="1.0" stroke-linecap="round" stroke-linejoin="round"/>
    <path d="M 166.2088623046875 141.8558807373047 C 177.58050537109375 99.19881439208984 209.0147247314453 115.35600280761719 143.9269256591797 104.45079803466797" stroke-width="3.0" fill="none" stroke="rgb(0, 0, 0)" stroke-opacity="1.0" stroke-linecap="round" stroke-linejoin="round"/>
    <path d="M 27.499557495117188 103.3802490234375 C 192.11007690429688 120.27951049804688 158.2495574951172 90.31099700927734 40.23604202270508 96.32129669189453" stroke-width="3.0" fill="none" stroke="rgb(0, 0, 0)" stroke-opacity="1.0" stroke-linecap="round" stroke-linejoin="round"/>
    <path d="M 102.9083251953125 137.547607421875 C 114.0697250366211 101.89703369140625 93.02134704589844 135.78475952148438 34.77975082397461 130.10836791992188" stroke-width="3.0" fill="none" stroke="rgb(0, 0, 0)" stroke-opacity="1.0" stroke-linecap="round" stroke-linejoin="round"/>
    <path d="M 120.24854278564453 214.37864685058594 C 182.021484375 200.60711669921875 167.46241760253906 197.6024627685547 181.72384643554688 188.89892578125" stroke-width="3.0" fill="none" stroke="rgb(0, 0, 0)" stroke-opacity="1.0" stroke-linecap="round" stroke-linejoin="round"/>
    <path d="M 152.53518676757812 114.83306121826172 C 207.73550415039062 114.72876739501953 178.28533935546875 130.4574737548828 193.25697326660156 114.13540649414062" stroke-width="3.0" fill="none" stroke="rgb(0, 0, 0)" stroke-opacity="1.0" stroke-linecap="round" stroke-linejoin="round"/>
    <path d="M 99.97496795654297 107.34494018554688 C 137.1277313232422 118.22144317626953 97.12393951416016 146.33486938476562 162.33827209472656 142.46458435058594" stroke-width="3.0" fill="none" stroke="rgb(0, 0, 0)" stroke-opacity="1.0" stroke-linecap="round" stroke-linejoin="round"/>
    <path d="M 33.2662467956543 108.95172882080078 C 122.99699401855469 108.010498046875 96.3359146118164 118.04592895507812 35.489280700683594 111.20671844482422" stroke-width="3.0" fill="none" stroke="rgb(0, 0, 0)" stroke-opacity="1.0" stroke-linecap="round" stroke-linejoin="round"/>
    <path d="M 181.44781494140625 104.93171691894531 C 146.55007934570312 111.16305541992188 167.33322143554688 108.95335388183594 71.16368103027344 101.42845153808594" stroke-width="3.0" fill="none" stroke="rgb(0, 0, 0)" stroke-opacity="1.0" stroke-linecap="round" stroke-linejoin="round"/>
    <path d="M 26.696369171142578 170.8178253173828 C 70.03277587890625 220.37936401367188 119.3558349609375 211.4870147705078 142.79380798339844 209.87359619140625" stroke-width="3.0" fill="none" stroke="rgb(0, 0, 0)" stroke-opacity="1.0" stroke-linecap="round" stroke-linejoin="round"/>
    <path d="M 176.74691772460938 27.385740280151367 C 188.556640625 36.43413162231445 231.48951721191406 82.00665283203125 214.1767120361328 142.01719665527344" stroke-width="3.0" fill="none" stroke="rgb(0, 0, 0)" stroke-opacity="1.0" stroke-linecap="round" stroke-linejoin="round"/>
    <path d="M 85.17615509033203 87.4459228515625 C 116.4327163696289 65.430419921875 149.65933227539062 101.9101791381836 138.41604614257812 91.55990600585938" stroke-width="3.0" fill="none" stroke="rgb(0, 0, 0)" stroke-opacity="1.0" stroke-linecap="round" stroke-linejoin="round"/>
    <path d="M 71.2659912109375 33.35035705566406 C 98.83570861816406 -16.562223434448242 169.21009826660156 8.950607299804688 193.35215759277344 45.7748908996582" stroke-width="3.0" fill="none" stroke="rgb(0, 0, 0)" stroke-opacity="1.0" stroke-linecap="round" stroke-linejoin="round"/>
    <path d="M 114.71722412109375 137.21536254882812 C 164.7700958251953 135.56686401367188 204.30189514160156 136.65438842773438 122.4785385131836 134.71182250976562" stroke-width="3.0" fill="none" stroke="rgb(0, 0, 0)" stroke-opacity="1.0" stroke-linecap="round" stroke-linejoin="round"/>
    <path d="M 80.20515441894531 138.21258544921875 C 87.29948425292969 148.78062438964844 22.60898208618164 157.17710876464844 44.26644515991211 133.7249755859375" stroke-width="3.0" fill="none" stroke="rgb(0, 0, 0)" stroke-opacity="1.0" stroke-linecap="round" stroke-linejoin="round"/>
    <path d="M 173.58572387695312 145.78697204589844 C 200.5717010498047 144.7537078857422 180.0854949951172 104.56342315673828 180.14486694335938 133.4176025390625" stroke-width="3.0" fill="none" stroke="rgb(0, 0, 0)" stroke-opacity="1.0" stroke-linecap="round" stroke-linejoin="round"/>
    <path d="M 182.7561798095703 186.80262756347656 C 145.2152099609375 188.03524780273438 145.42010498046875 181.5675506591797 171.82659912109375 198.08377075195312" stroke-width="3.0" fill="none" stroke="rgb(0, 0, 0)" stroke-opacity="1.0" stroke-linecap="round" stroke-linejoin="round"/>
    <path d="M 66.59841918945312 111.18062591552734 C 93.03115844726562 133.58184814453125 62.53411102294922 147.052978515625 28.26858901977539 129.93524169921875" stroke-width="3.0" fill="none" stroke="rgb(0, 0, 0)" stroke-opacity="1.0" stroke-linecap="round" stroke-linejoin="round"/>
    <path d="M 110.87410736083984 77.75971984863281 C 105.62324523925781 79.42036437988281 67.75106048583984 71.34790802001953 114.55762481689453 81.82160186767578" stroke-width="3.0" fill="none" stroke="rgb(0, 0, 0)" stroke-opacity="1.0" stroke-linecap="round" stroke-linejoin="round"/>
    <path d="M 74.05368041992188 115.56869506835938 C 85.44573974609375 109.73046112060547 120.24319458007812 125.48499298095703 47.1706657409668 119.37908172607422" stroke-width="3.0" fill="none" stroke="rgb(0, 0, 0)" stroke-opacity="1.0" stroke-linecap="round" stroke-linejoin="round"/>
    <path d="M 154.39303588867188 112.49862670898438 C 63.24689483642578 105.02803039550781 160.25991821289062 112.17529296875 167.31361389160156 97.35733795166016" stroke-width="3.0" fill="none" stroke="rgb(0, 0, 0)" stroke-opacity="1.0" stroke-linecap="round" stroke-linejoin="round"/>
    <path d="M 96.89549255371094 109.3643798828125 C 65.68390655517578 148.5449676513672 116.23109436035156 152.97335815429688 82.78942108154297 143.7917938232422" stroke-width="3.0" fill="none" stroke="rgb(0, 0, 0)" stroke-opacity="1.0" stroke-linecap="round" stroke-linejoin="round"/>
    <path d="M 25.345293045043945 49.7412223815918 C 17.218801498413086 64.32062530517578 -2.3531370162963867 98.43629455566406 7.4183220863342285 131.74205017089844" stroke-width="3.0" fill="none" stroke="rgb(0, 0, 0)" stroke-opacity="1.0" stroke-linecap="round" stroke-linejoin="round"/>
    <path d="M 181.9871063232422 188.0948486328125 C 189.83950805664062 184.49948120117188 227.92648315429688 142.05892944335938 216.53587341308594 100.70033264160156" stroke-width="3.0" fill="none" stroke="rgb(0, 0, 0)" stroke-opacity="1.0" stroke-linecap="round" stroke-linejoin="round"/>
    <path d="M 152.0704803466797 115.1357421875 C 211.57273864746094 121.05792999267578 201.7263946533203 106.97657775878906 162.95248413085938 104.78507232666016" stroke-width="3.0" fill="none" stroke="rgb(0, 0, 0)" stroke-opacity="1.0" stroke-linecap="round" stroke-linejoin="round"/>
    <path d="M 133.56227111816406 103.28773498535156 C 264.44525146484375 122.14801025390625 140.37506103515625 92.0638427734375 173.28897094726562 147.55978393554688" stroke-width="3.0" fill="none" stroke="rgb(0, 0, 0)" stroke-opacity="1.0" stroke-linecap="round" stroke-linejoin="round"/>
    <path d="M 160.50660705566406 96.94721984863281 C 138.10340881347656 61.08633041381836 122.67289733886719 124.03831481933594 137.11341857910156 82.9446029663086" stroke-width="3.0" fill="none" stroke="rgb(0, 0, 0)" stroke-opacity="1.0" stroke-linecap="round" stroke-linejoin="round"/>
    <path d="M 65.29507446289062 143.1488037109375 C 144.96524047851562 169.11790466308594 89.72452545166016 86.8516845703125 93.05854797363281 134.89410400390625" stroke-width="3.0" fill="none" stroke="rgb(0, 0, 0)" stroke-opacity="1.0" stroke-linecap="round" stroke-linejoin="round"/>
    <path d="M 167.6278839111328 105.68805694580078 C 186.85476684570312 93.4979248046875 195.4060516357422 124.95201110839844 183.7938690185547 144.41554260253906" stroke-width="3.0" fill="none" stroke="rgb(0, 0, 0)" stroke-opacity="1.0" stroke-linecap="round" stroke-linejoin="round"/>
    <path d="M 134.82843017578125 83.11343383789062 C 111.1922378540039 114.21651458740234 191.13522338867188 106.11394500732422 141.65789794921875 103.364013671875" stroke-width="3.0" fill="none" stroke="rgb(0, 0, 0)" stroke-opacity="1.0" stroke-linecap="round" stroke-linejoin="round"/>
    <path d="M 63.8505859375 21.77010726928711 C 104.02243041992188 -8.78510570526123 106.90602111816406 -5.632638931274414 70.53308868408203 14.453638076782227" stroke-width="3.0" fill="none" stroke="rgb(0, 0, 0)" stroke-opacity="1.0" stroke-linecap="round" stroke-linejoin="round"/>
    <path d="M 32.62856674194336 121.46298217773438 C 90.874267578125 137.03851318359375 96.4094467163086 144.14389038085938 34.198936462402344 140.0314483642578" stroke-width="3.0" fill="none" stroke="rgb(0, 0, 0)" stroke-opacity="1.0" stroke-linecap="round" stroke-linejoin="round"/>
    <path d="M 178.0001983642578 139.2003173828125 C 157.2113494873047 98.1729507446289 201.705078125 120.84781646728516 186.62506103515625 134.20362854003906" stroke-width="3.0" fill="none" stroke="rgb(0, 0, 0)" stroke-opacity="1.0" stroke-linecap="round" stroke-linejoin="round"/>
    <path d="M 62.580196380615234 138.32186889648438 C 14.14586067199707 121.38388061523438 30.433204650878906 80.9771728515625 57.84225845336914 103.61111450195312" stroke-width="3.0" fill="none" stroke="rgb(0, 0, 0)" stroke-opacity="1.0" stroke-linecap="round" stroke-linejoin="round"/>
    <path d="M 5.428140640258789 121.51366424560547 C 15.413824081420898 187.63331604003906 77.99384307861328 220.3721466064453 120.30744171142578 212.71432495117188" stroke-width="3.0" fill="none" stroke="rgb(0, 0, 0)" stroke-opacity="1.0" stroke-linecap="round" stroke-linejoin="round"/>
    <path d="M 68.68544006347656 154.01138305664062 C 189.6905975341797 152.73492431640625 211.97715759277344 139.71542358398438 112.4422836303711 142.1731719970703" stroke-width="3.0" fill="none" stroke="rgb(0, 0, 0)" stroke-opacity="1.0" stroke-linecap="round" stroke-linejoin="round"/>
    <path d="M 174.30409240722656 117.46259307861328 C 141.8120880126953 107.66618347167969 118.85684967041016 111.73944854736328 190.36976623535156 115.3404541015625" stroke-width="3.0" fill="none" stroke="rgb(0, 0, 0)" stroke-opacity="1.0" stroke-linecap="round" stroke-linejoin="round"/>
    <path d="M 31.61873435974121 101.92623138427734 C 34.17230224609375 121.35161590576172 64.5560073852539 74.01117706298828 56.371124267578125 117.85710906982422" stroke-width="3.0" fill="none" stroke="rgb(0, 0, 0)" stroke-opacity="1.0" stroke-linecap="round" stroke-linejoin="round"/>
    <path d="M 29.347490310668945 120.3003158569336 C 128.08071899414062 123.24635314941406 77.32776641845703 130.74464416503906 102.94982147216797 119.88021087646484" stroke-width="3.0" fill="none" stroke="rgb(0, 0, 0)" stroke-opacity="1.0" stroke-linecap="round" stroke-linejoin="round"/>
    <path d="M 26.32716178894043 47.51541519165039 C 49.179420471191406 24.23696517944336 46.61062240600586 27.41509437561035 68.34658813476562 15.334039688110352" stroke-width="3.0" fill="none" stroke="rgb(0, 0, 0)" stroke-opacity="1.0" stroke-linecap="round" stroke-linejoin="round"/>
    <path d="M 182.75289916992188 146.3952178955078 C 174.42724609375 150.250244140625 51.752620697021484 151.66329956054688 140.58102416992188 147.4792938232422" stroke-width="3.0" fill="none" stroke="rgb(0, 0, 0)" stroke-opacity="1.0" stroke-linecap="round" stroke-linejoin="round"/>
    <path d="M 38.81818771362305 127.28948974609375 C 86.01971435546875 129.42730712890625 123.01373291015625 129.4124298095703 42.6083984375 134.5169677734375" stroke-width="3.0" fill="none" stroke="rgb(0, 0, 0)" stroke-opacity="1.0" stroke-linecap="round" stroke-linejoin="round"/>
    <path d="M 102.6029281616211 80.03094482421875 C 87.25201416015625 87.43225860595703 122.6270980834961 78.15634155273438 114.59581756591797 80.47688293457031" stroke-width="3.0" fill="none" stroke="rgb(0, 0, 0)" stroke-opacity="1.0" stroke-linecap="round" stroke-linejoin="round"/>
    <path d="M 171.623046875 108.9162368774414 C 172.80657958984375 94.70155334472656 123.1088638305664 65.53730010986328 92.2791748046875 81.55592346191406" stroke-width="3.0" fill="none" stroke="rgb(0, 0, 0)" stroke-opacity="1.0" stroke-linecap="round" stroke-linejoin="round"/>
  </g>
</svg>
