<?xml version="1.0" ?>
<svg xmlns="http://www.w3.org/2000/svg" version="1.1" width="224" height="224">
  <defs/>
  <g>
    <path d="M 80.27338409423828 106.41586303710938 C 118.61927795410156 93.52919006347656 120.63782501220703 128.09510803222656 113.36043548583984 142.44610595703125" stroke-width="3.0" fill="none" stroke="rgb(0, 0, 0)" stroke-opacity="1.0" stroke-linecap="round" stroke-linejoin="round"/>
    <path d="M 60.36233139038086 130.0923614501953 C 95.19116973876953 161.61851501464844 90.24861145019531 147.02435302734375 67.10610961914062 142.2879638671875" stroke-width="3.0" fill="none" stroke="rgb(0, 0, 0)" stroke-opacity="1.0" stroke-linecap="round" stroke-linejoin="round"/>
    <path d="M 42.605167388916016 129.1055450439453 C -18.733978271484375 116.31324768066406 -8.637182235717773 126.30007934570312 83.49494171142578 128.26751708984375" stroke-width="3.0" fill="none" stroke="rgb(0, 0, 0)" stroke-opacity="1.0" stroke-linecap="round" stroke-linejoin="round"/>
    <path d="M 25.63364028930664 116.47734069824219 C 94.02569580078125 124.47384643554688 82.48077392578125 124.20795440673828 86.97460174560547 123.96258544921875" stroke-width="3.0" fill="none" stroke="rgb(0, 0, 0)" stroke-opacity="1.0" stroke-linecap="round" stroke-linejoin="round"/>
    <path d="M 96.78291320800781 95.97378540039062 C 188.5734405517578 121.06783294677734 177.59539794921875 107.1026840209961 101.94737243652344 93.65351104736328" stroke-width="3.0" fill="none" stroke="rgb(0, 0, 0)" stroke-opacity="1.0" stroke-linecap="round" stroke-linejoin="round"/>
    <path d="M 172.9515380859375 135.03094482421875 C 177.4154052734375 105.9460678100586 200.03536987304688 123.32694244384766 144.4027099609375 105.94273376464844" stroke-width="3.0" fill="none" stroke="rgb(0, 0, 0)" stroke-opacity="1.0" stroke-linecap="round" stroke-linejoin="round"/>
    <path d="M 64.87410736083984 99.55094146728516 C 126.9830322265625 99.37932586669922 117.32335662841797 94.883544921875 39.715850830078125 97.13874053955078" stroke-width="3.0" fill="none" stroke="rgb(0, 0, 0)" stroke-opacity="1.0" stroke-linecap="round" stroke-linejoin="round"/>
    <path d="M 86.2874755859375 145.2061309814453 C 89.90177917480469 138.87998962402344 81.6025619506836 140.26438903808594 19.662857055664062 127.4312515258789" stroke-width="3.0" fill="none" stroke="rgb(0, 0, 0)" stroke-opacity="1.0" stroke-linecap="round" stroke-linejoin="round"/>
    <path d="M 127.8247299194336 206.84042358398438 C 192.5216064453125 192.77288818359375 149.92727661132812 198.7937469482422 175.4591827392578 194.55044555664062" stroke-width="3.0" fill="none" stroke="rgb(0, 0, 0)" stroke-opacity="1.0" stroke-linecap="round" stroke-linejoin="round"/>
    <path d="M 160.58412170410156 104.6274185180664 C 175.29515075683594 114.42140197753906 177.81063842773438 115.10193634033203 193.76434326171875 117.52704620361328" stroke-width="3.0" fill="none" stroke="rgb(0, 0, 0)" stroke-opacity="1.0" stroke-linecap="round" stroke-linejoin="round"/>
    <path d="M 102.03845977783203 105.05001068115234 C 125.34970092773438 109.29801940917969 113.78157043457031 146.98794555664062 133.790771484375 144.54591369628906" stroke-width="3.0" fill="none" stroke="rgb(0, 0, 0)" stroke-opacity="1.0" stroke-linecap="round" stroke-linejoin="round"/>
    <path d="M 14.16119384765625 109.46526336669922 C 124.09333801269531 111.06558227539062 93.682861328125 99.6120834350586 23.93424415588379 101.12895202636719" stroke-width="3.0" fill="none" stroke="rgb(0, 0, 0)" stroke-opacity="1.0" stroke-linecap="round" stroke-linejoin="round"/>
    <path d="M 177.22389221191406 108.88544464111328 C 121.72811889648438 102.02938842773438 155.7963409423828 109.30292510986328 127.92520141601562 103.84530639648438" stroke-width="3.0" fill="none" stroke="rgb(0, 0, 0)" stroke-opacity="1.0" stroke-linecap="round" stroke-linejoin="round"/>
    <path d="M 81.57392883300781 205.31161499023438 C 90.91263580322266 207.89743041992188 102.95218658447266 208.38914489746094 110.24015808105469 207.08331298828125" stroke-width="3.0" fill="none" stroke="rgb(0, 0, 0)" stroke-opacity="1.0" stroke-linecap="round" stroke-linejoin="round"/>
    <path d="M 173.1647491455078 27.83712387084961 C 188.57656860351562 33.497955322265625 226.03012084960938 73.86388397216797 215.1396026611328 130.92880249023438" stroke-width="3.0" fill="none" stroke="rgb(0, 0, 0)" stroke-opacity="1.0" stroke-linecap="round" stroke-linejoin="round"/>
    <path d="M 107.81712341308594 81.77330017089844 C 142.3092498779297 80.26119995117188 136.89739990234375 79.47443389892578 125.82855224609375 96.04931640625" stroke-width="3.0" fill="none" stroke="rgb(0, 0, 0)" stroke-opacity="1.0" stroke-linecap="round" stroke-linejoin="round"/>
    <path d="M 57.1545295715332 24.29913330078125 C 120.26980590820312 -9.815332412719727 163.78213500976562 20.368946075439453 185.13125610351562 35.95689010620117" stroke-width="3.0" fill="none" stroke="rgb(0, 0, 0)" stroke-opacity="1.0" stroke-linecap="round" stroke-linejoin="round"/>
    <path d="M 140.64498901367188 136.02223205566406 C 135.30674743652344 153.034912109375 138.97210693359375 124.98237609863281 138.92620849609375 143.58734130859375" stroke-width="3.0" fill="none" stroke="rgb(0, 0, 0)" stroke-opacity="1.0" stroke-linecap="round" stroke-linejoin="round"/>
    <path d="M 66.51802825927734 129.52476501464844 C 64.76899719238281 142.77418518066406 67.18907165527344 154.55084228515625 5.52604866027832 127.66997528076172" stroke-width="3.0" fill="none" stroke="rgb(0, 0, 0)" stroke-opacity="1.0" stroke-linecap="round" stroke-linejoin="round"/>
    <path d="M 168.82022094726562 136.6640625 C 191.4932861328125 165.97007751464844 185.87770080566406 102.68315124511719 178.5762939453125 130.19943237304688" stroke-width="3.0" fill="none" stroke="rgb(0, 0, 0)" stroke-opacity="1.0" stroke-linecap="round" stroke-linejoin="round"/>
    <path d="M 136.1001739501953 204.47463989257812 C 108.50311279296875 209.7999725341797 100.87566375732422 208.84866333007812 120.79468536376953 207.93992614746094" stroke-width="3.0" fill="none" stroke="rgb(0, 0, 0)" stroke-opacity="1.0" stroke-linecap="round" stroke-linejoin="round"/>
    <path d="M 56.75529479980469 132.92857360839844 C 64.38697052001953 131.94427490234375 60.946693420410156 151.24769592285156 30.733625411987305 121.4490737915039" stroke-width="3.0" fill="none" stroke="rgb(0, 0, 0)" stroke-opacity="1.0" stroke-linecap="round" stroke-linejoin="round"/>
    <path d="M 104.33253479003906 92.82752227783203 C 34.66289138793945 88.50463104248047 -15.424388885498047 98.12013244628906 71.01368713378906 99.45882415771484" stroke-width="3.0" fill="none" stroke="rgb(0, 0, 0)" stroke-opacity="1.0" stroke-linecap="round" stroke-linejoin="round"/>
    <path d="M 73.15322875976562 100.07667541503906 C 70.46135711669922 119.69392395019531 94.49079132080078 120.54178619384766 60.9862060546875 115.54911041259766" stroke-width="3.0" fill="none" stroke="rgb(0, 0, 0)" stroke-opacity="1.0" stroke-linecap="round" stroke-linejoin="round"/>
    <path d="M 148.0545196533203 94.71783447265625 C 116.52613830566406 83.208984375 155.18099975585938 103.96499633789062 166.83848571777344 97.73347473144531" stroke-width="3.0" fill="none" stroke="rgb(0, 0, 0)" stroke-opacity="1.0" stroke-linecap="round" stroke-linejoin="round"/>
    <path d="M 93.6326904296875 109.57732391357422 C 72.34901428222656 135.14756774902344 103.28992462158203 164.81788635253906 86.55485534667969 141.11212158203125" stroke-width="3.0" fill="none" stroke="rgb(0, 0, 0)" stroke-opacity="1.0" stroke-linecap="round" stroke-linejoin="round"/>
    <path d="M 23.65348243713379 49.946041107177734 C 12.708072662353516 67.57858276367188 6.442407131195068 84.13062286376953 5.167033672332764 115.636474609375" stroke-width="3.0" fill="none" stroke="rgb(0, 0, 0)" stroke-opacity="1.0" stroke-linecap="round" stroke-linejoin="round"/>
    <path d="M 179.00161743164062 192.5665740966797 C 195.54473876953125 173.13900756835938 218.0277099609375 153.77407836914062 216.1839599609375 116.90632629394531" stroke-width="3.0" fill="none" stroke="rgb(0, 0, 0)" stroke-opacity="1.0" stroke-linecap="round" stroke-linejoin="round"/>
    <path d="M 143.1383514404297 103.5076675415039 C 217.99754333496094 116.31128692626953 209.8018341064453 115.91802215576172 144.5004119873047 111.9714126586914" stroke-width="3.0" fill="none" stroke="rgb(0, 0, 0)" stroke-opacity="1.0" stroke-linecap="round" stroke-linejoin="round"/>
    <path d="M 141.18099975585938 94.03672790527344 C 230.75086975097656 118.69156646728516 168.24412536621094 103.0200424194336 170.5078887939453 136.45474243164062" stroke-width="3.0" fill="none" stroke="rgb(0, 0, 0)" stroke-opacity="1.0" stroke-linecap="round" stroke-linejoin="round"/>
    <path d="M 144.2379608154297 96.19261169433594 C 140.18978881835938 87.85062408447266 129.9412078857422 111.80992126464844 139.89108276367188 86.24349975585938" stroke-width="3.0" fill="none" stroke="rgb(0, 0, 0)" stroke-opacity="1.0" stroke-linecap="round" stroke-linejoin="round"/>
    <path d="M 80.12727355957031 147.66578674316406 C 129.04229736328125 166.41278076171875 112.7864990234375 80.45260620117188 83.24954223632812 120.40787506103516" stroke-width="3.0" fill="none" stroke="rgb(0, 0, 0)" stroke-opacity="1.0" stroke-linecap="round" stroke-linejoin="round"/>
    <path d="M 182.10337829589844 114.86263275146484 C 200.4365997314453 105.7939224243164 184.40760803222656 137.61520385742188 188.2304229736328 113.89302825927734" stroke-width="3.0" fill="none" stroke="rgb(0, 0, 0)" stroke-opacity="1.0" stroke-linecap="round" stroke-linejoin="round"/>
    <path d="M 142.79893493652344 96.778564453125 C 110.61670684814453 91.50172424316406 187.50152587890625 108.80359649658203 146.46090698242188 96.50030517578125" stroke-width="3.0" fill="none" stroke="rgb(0, 0, 0)" stroke-opacity="1.0" stroke-linecap="round" stroke-linejoin="round"/>
    <path d="M 64.8645248413086 21.953495025634766 C 94.26856231689453 14.838380813598633 81.86417388916016 9.079830169677734 69.14981842041016 24.323286056518555" stroke-width="3.0" fill="none" stroke="rgb(0, 0, 0)" stroke-opacity="1.0" stroke-linecap="round" stroke-linejoin="round"/>
    <path d="M 28.969453811645508 125.50098419189453 C 100.47647094726562 142.73138427734375 90.86743927001953 146.3619842529297 31.87516975402832 143.32064819335938" stroke-width="3.0" fill="none" stroke="rgb(0, 0, 0)" stroke-opacity="1.0" stroke-linecap="round" stroke-linejoin="round"/>
    <path d="M 175.7811737060547 143.9104766845703 C 166.5615234375 101.11113739013672 202.7395782470703 118.72459411621094 182.63043212890625 143.91363525390625" stroke-width="3.0" fill="none" stroke="rgb(0, 0, 0)" stroke-opacity="1.0" stroke-linecap="round" stroke-linejoin="round"/>
    <path d="M 40.39944076538086 137.06838989257812 C 11.200477600097656 93.93106079101562 17.53217887878418 100.26277160644531 82.17494201660156 107.62395477294922" stroke-width="3.0" fill="none" stroke="rgb(0, 0, 0)" stroke-opacity="1.0" stroke-linecap="round" stroke-linejoin="round"/>
    <path d="M 3.1831836700439453 135.89952087402344 C 31.189788818359375 197.71249389648438 69.67523193359375 202.2936553955078 89.48656463623047 207.62759399414062" stroke-width="3.0" fill="none" stroke="rgb(0, 0, 0)" stroke-opacity="1.0" stroke-linecap="round" stroke-linejoin="round"/>
    <path d="M 116.49041748046875 130.47445678710938 C 138.47320556640625 153.9918670654297 147.44146728515625 143.82025146484375 116.89720153808594 129.1878662109375" stroke-width="3.0" fill="none" stroke="rgb(0, 0, 0)" stroke-opacity="1.0" stroke-linecap="round" stroke-linejoin="round"/>
    <path d="M 154.25428771972656 107.43074035644531 C 153.9084014892578 110.67471313476562 128.25169372558594 100.47998046875 182.94915771484375 109.84518432617188" stroke-width="3.0" fill="none" stroke="rgb(0, 0, 0)" stroke-opacity="1.0" stroke-linecap="round" stroke-linejoin="round"/>
    <path d="M 73.8497543334961 109.0491714477539 C 92.44244384765625 123.31607055664062 47.92121505737305 98.18245697021484 60.45455551147461 121.3437728881836" stroke-width="3.0" fill="none" stroke="rgb(0, 0, 0)" stroke-opacity="1.0" stroke-linecap="round" stroke-linejoin="round"/>
    <path d="M 29.472566604614258 104.15666961669922 C 104.69378662109375 119.76824188232422 69.36060333251953 120.25950622558594 90.22309112548828 109.99247741699219" stroke-width="3.0" fill="none" stroke="rgb(0, 0, 0)" stroke-opacity="1.0" stroke-linecap="round" stroke-linejoin="round"/>
    <path d="M 24.28864288330078 49.037899017333984 C 48.955711364746094 27.35857582092285 31.74263572692871 39.53799819946289 56.36621856689453 23.980440139770508" stroke-width="3.0" fill="none" stroke="rgb(0, 0, 0)" stroke-opacity="1.0" stroke-linecap="round" stroke-linejoin="round"/>
    <path d="M 177.87222290039062 136.94500732421875 C 167.30943298339844 136.76490783691406 126.88215637207031 133.56459045410156 117.36408233642578 136.52536010742188" stroke-width="3.0" fill="none" stroke="rgb(0, 0, 0)" stroke-opacity="1.0" stroke-linecap="round" stroke-linejoin="round"/>
    <path d="M 37.85713577270508 125.22268676757812 C 58.14890670776367 131.26202392578125 77.93315887451172 134.943603515625 23.387813568115234 124.5666732788086" stroke-width="3.0" fill="none" stroke="rgb(0, 0, 0)" stroke-opacity="1.0" stroke-linecap="round" stroke-linejoin="round"/>
    <path d="M 87.313720703125 88.18262481689453 C 111.2330551147461 73.95099639892578 120.90360260009766 87.99967956542969 120.72264099121094 84.5302734375" stroke-width="3.0" fill="none" stroke="rgb(0, 0, 0)" stroke-opacity="1.0" stroke-linecap="round" stroke-linejoin="round"/>
    <path d="M 165.0656280517578 97.56269836425781 C 178.35171508789062 92.0346450805664 138.9134521484375 82.97915649414062 132.6068878173828 81.31824493408203" stroke-width="3.0" fill="none" stroke="rgb(0, 0, 0)" stroke-opacity="1.0" stroke-linecap="round" stroke-linejoin="round"/>
  </g>
</svg>
