<?xml version="1.0" ?>
<svg xmlns="http://www.w3.org/2000/svg" version="1.1" width="224" height="224">
  <defs/>
  <g>
    <path d="M 63.91507339477539 104.67908477783203 C 121.68572998046875 89.9581069946289 118.33003997802734 144.9629364013672 105.09567260742188 150.842041015625" stroke-width="3.0" fill="none" stroke="rgb(0, 0, 0)" stroke-opacity="1.0" stroke-linecap="round" stroke-linejoin="round"/>
    <path d="M 75.52062225341797 132.63047790527344 C 97.33765411376953 158.96066284179688 73.88114166259766 143.08758544921875 77.59049224853516 133.63417053222656" stroke-width="3.0" fill="none" stroke="rgb(0, 0, 0)" stroke-opacity="1.0" stroke-linecap="round" stroke-linejoin="round"/>
    <path d="M 58.653053283691406 132.50689697265625 C 12.310057640075684 109.92164611816406 11.198308944702148 124.27944946289062 82.34445190429688 128.6002197265625" stroke-width="3.0" fill="none" stroke="rgb(0, 0, 0)" stroke-opacity="1.0" stroke-linecap="round" stroke-linejoin="round"/>
    <path d="M 25.928314208984375 117.24114990234375 C 104.93555450439453 126.05940246582031 75.19630432128906 121.3860855102539 81.61321258544922 125.89163208007812" stroke-width="3.0" fill="none" stroke="rgb(0, 0, 0)" stroke-opacity="1.0" stroke-linecap="round" stroke-linejoin="round"/>
    <path d="M 80.41731262207031 93.81134796142578 C 196.41476440429688 105.92171478271484 181.1641845703125 103.69081115722656 95.09477233886719 90.35909271240234" stroke-width="3.0" fill="none" stroke="rgb(0, 0, 0)" stroke-opacity="1.0" stroke-linecap="round" stroke-linejoin="round"/>
    <path d="M 176.44346618652344 144.13552856445312 C 162.89784240722656 109.75348663330078 222.127197265625 115.32781219482422 148.9517364501953 111.08853912353516" stroke-width="3.0" fill="none" stroke="rgb(0, 0, 0)" stroke-opacity="1.0" stroke-linecap="round" stroke-linejoin="round"/>
    <path d="M 27.46304702758789 100.29122924804688 C 146.1676025390625 82.17520141601562 142.3338623046875 78.57644653320312 27.68152618408203 95.03292846679688" stroke-width="3.0" fill="none" stroke="rgb(0, 0, 0)" stroke-opacity="1.0" stroke-linecap="round" stroke-linejoin="round"/>
    <path d="M 77.11034393310547 141.0628662109375 C 96.27825164794922 134.22146606445312 75.187744140625 145.51771545410156 35.721824645996094 142.7150115966797" stroke-width="3.0" fill="none" stroke="rgb(0, 0, 0)" stroke-opacity="1.0" stroke-linecap="round" stroke-linejoin="round"/>
    <path d="M 119.86677551269531 211.9772491455078 C 185.2384033203125 192.51055908203125 140.12615966796875 202.9743194580078 175.22650146484375 194.75631713867188" stroke-width="3.0" fill="none" stroke="rgb(0, 0, 0)" stroke-opacity="1.0" stroke-linecap="round" stroke-linejoin="round"/>
    <path d="M 148.39215087890625 110.53388977050781 C 188.09478759765625 109.94246673583984 188.9741973876953 125.52769470214844 189.05447387695312 116.12279510498047" stroke-width="3.0" fill="none" stroke="rgb(0, 0, 0)" stroke-opacity="1.0" stroke-linecap="round" stroke-linejoin="round"/>
    <path d="M 98.42583465576172 101.84361267089844 C 132.91587829589844 113.4608154296875 95.24564361572266 141.99905395507812 143.30587768554688 136.3072509765625" stroke-width="3.0" fill="none" stroke="rgb(0, 0, 0)" stroke-opacity="1.0" stroke-linecap="round" stroke-linejoin="round"/>
    <path d="M 31.310470581054688 100.66476440429688 C 140.1983642578125 97.16065979003906 98.15364837646484 116.51100158691406 27.377595901489258 107.4715347290039" stroke-width="3.0" fill="none" stroke="rgb(0, 0, 0)" stroke-opacity="1.0" stroke-linecap="round" stroke-linejoin="round"/>
    <path d="M 184.3889923095703 110.65623474121094 C 138.82696533203125 108.45201110839844 166.1581268310547 111.89856719970703 106.08096313476562 104.1646499633789" stroke-width="3.0" fill="none" stroke="rgb(0, 0, 0)" stroke-opacity="1.0" stroke-linecap="round" stroke-linejoin="round"/>
    <path d="M 66.95089721679688 203.3455047607422 C 90.17344665527344 209.53077697753906 109.53422546386719 214.3079833984375 121.09457397460938 210.05870056152344" stroke-width="3.0" fill="none" stroke="rgb(0, 0, 0)" stroke-opacity="1.0" stroke-linecap="round" stroke-linejoin="round"/>
    <path d="M 174.56329345703125 26.122146606445312 C 188.69570922851562 33.800106048583984 229.8505096435547 80.87109375 214.32444763183594 138.9767303466797" stroke-width="3.0" fill="none" stroke="rgb(0, 0, 0)" stroke-opacity="1.0" stroke-linecap="round" stroke-linejoin="round"/>
    <path d="M 104.77790832519531 88.34080505371094 C 136.84744262695312 79.48703002929688 132.1988525390625 74.69154357910156 126.08200073242188 94.01961517333984" stroke-width="3.0" fill="none" stroke="rgb(0, 0, 0)" stroke-opacity="1.0" stroke-linecap="round" stroke-linejoin="round"/>
    <path d="M 72.31088256835938 27.608869552612305 C 103.86089324951172 -14.32989501953125 170.1470947265625 17.588558197021484 188.13856506347656 36.62207794189453" stroke-width="3.0" fill="none" stroke="rgb(0, 0, 0)" stroke-opacity="1.0" stroke-linecap="round" stroke-linejoin="round"/>
    <path d="M 129.3031463623047 140.21249389648438 C 136.4474639892578 156.6511688232422 146.06610107421875 130.646728515625 139.47210693359375 141.65805053710938" stroke-width="3.0" fill="none" stroke="rgb(0, 0, 0)" stroke-opacity="1.0" stroke-linecap="round" stroke-linejoin="round"/>
    <path d="M 60.917091369628906 129.54312133789062 C 55.82919692993164 143.96023559570312 47.428829193115234 151.76731872558594 33.453609466552734 129.9317626953125" stroke-width="3.0" fill="none" stroke="rgb(0, 0, 0)" stroke-opacity="1.0" stroke-linecap="round" stroke-linejoin="round"/>
    <path d="M 168.62843322753906 140.23414611816406 C 185.733154296875 170.28672790527344 186.9705047607422 107.00787353515625 180.2350311279297 132.41319274902344" stroke-width="3.0" fill="none" stroke="rgb(0, 0, 0)" stroke-opacity="1.0" stroke-linecap="round" stroke-linejoin="round"/>
    <path d="M 127.4225845336914 207.8678436279297 C 108.16411590576172 212.34005737304688 102.8537826538086 212.3861846923828 135.95635986328125 207.9031982421875" stroke-width="3.0" fill="none" stroke="rgb(0, 0, 0)" stroke-opacity="1.0" stroke-linecap="round" stroke-linejoin="round"/>
    <path d="M 57.24415969848633 145.60655212402344 C 80.05420684814453 141.78794860839844 52.494564056396484 158.41844177246094 37.747798919677734 125.81857299804688" stroke-width="3.0" fill="none" stroke="rgb(0, 0, 0)" stroke-opacity="1.0" stroke-linecap="round" stroke-linejoin="round"/>
    <path d="M 95.00897216796875 89.6649398803711 C 67.1981201171875 86.84146881103516 27.76955223083496 91.46376037597656 90.6829833984375 95.57623291015625" stroke-width="3.0" fill="none" stroke="rgb(0, 0, 0)" stroke-opacity="1.0" stroke-linecap="round" stroke-linejoin="round"/>
    <path d="M 80.4573745727539 100.29956817626953 C 86.864501953125 104.52134704589844 103.01261138916016 136.74290466308594 45.34819030761719 127.6001205444336" stroke-width="3.0" fill="none" stroke="rgb(0, 0, 0)" stroke-opacity="1.0" stroke-linecap="round" stroke-linejoin="round"/>
    <path d="M 157.38632202148438 92.93183135986328 C 101.26118469238281 83.58671569824219 150.45706176757812 104.55752563476562 156.934326171875 95.86085510253906" stroke-width="3.0" fill="none" stroke="rgb(0, 0, 0)" stroke-opacity="1.0" stroke-linecap="round" stroke-linejoin="round"/>
    <path d="M 93.95264434814453 124.27973175048828 C 67.68592071533203 143.178955078125 113.02027130126953 160.73680114746094 78.99995422363281 140.46353149414062" stroke-width="3.0" fill="none" stroke="rgb(0, 0, 0)" stroke-opacity="1.0" stroke-linecap="round" stroke-linejoin="round"/>
    <path d="M 25.86037254333496 48.93236541748047 C 18.235231399536133 65.23945617675781 -0.36619341373443604 97.2574234008789 8.48393440246582 130.0734100341797" stroke-width="3.0" fill="none" stroke="rgb(0, 0, 0)" stroke-opacity="1.0" stroke-linecap="round" stroke-linejoin="round"/>
    <path d="M 178.3799285888672 193.75399780273438 C 191.01657104492188 175.8800811767578 220.95774841308594 151.9221954345703 218.15423583984375 108.91498565673828" stroke-width="3.0" fill="none" stroke="rgb(0, 0, 0)" stroke-opacity="1.0" stroke-linecap="round" stroke-linejoin="round"/>
    <path d="M 143.63841247558594 109.66600799560547 C 212.9840545654297 121.49635314941406 199.2113494873047 114.23536682128906 155.34945678710938 106.64531707763672" stroke-width="3.0" fill="none" stroke="rgb(0, 0, 0)" stroke-opacity="1.0" stroke-linecap="round" stroke-linejoin="round"/>
    <path d="M 134.26446533203125 92.83177947998047 C 248.5487823486328 121.8189468383789 166.80889892578125 104.72560119628906 170.9798583984375 138.20828247070312" stroke-width="3.0" fill="none" stroke="rgb(0, 0, 0)" stroke-opacity="1.0" stroke-linecap="round" stroke-linejoin="round"/>
    <path d="M 149.86753845214844 95.88259887695312 C 129.73941040039062 86.77772521972656 115.09141540527344 114.43070983886719 129.46800231933594 82.89773559570312" stroke-width="3.0" fill="none" stroke="rgb(0, 0, 0)" stroke-opacity="1.0" stroke-linecap="round" stroke-linejoin="round"/>
    <path d="M 79.22760772705078 145.61236572265625 C 126.70790100097656 166.18270874023438 98.7397689819336 79.4394302368164 89.28868865966797 132.4168243408203" stroke-width="3.0" fill="none" stroke="rgb(0, 0, 0)" stroke-opacity="1.0" stroke-linecap="round" stroke-linejoin="round"/>
    <path d="M 181.8814697265625 117.47999572753906 C 199.4076385498047 99.88924407958984 190.84730529785156 133.726318359375 187.9649200439453 115.08450317382812" stroke-width="3.0" fill="none" stroke="rgb(0, 0, 0)" stroke-opacity="1.0" stroke-linecap="round" stroke-linejoin="round"/>
    <path d="M 133.45802307128906 98.90724182128906 C 107.92356872558594 92.96157836914062 189.64703369140625 107.0992660522461 136.03045654296875 99.56275177001953" stroke-width="3.0" fill="none" stroke="rgb(0, 0, 0)" stroke-opacity="1.0" stroke-linecap="round" stroke-linejoin="round"/>
    <path d="M 55.71160125732422 18.076030731201172 C 84.52192687988281 -8.259827613830566 79.53192901611328 -6.586991786956787 61.318145751953125 15.70815658569336" stroke-width="3.0" fill="none" stroke="rgb(0, 0, 0)" stroke-opacity="1.0" stroke-linecap="round" stroke-linejoin="round"/>
    <path d="M 35.032711029052734 131.101806640625 C 112.29568481445312 132.48321533203125 93.62157440185547 154.6654052734375 31.54448890686035 145.4955596923828" stroke-width="3.0" fill="none" stroke="rgb(0, 0, 0)" stroke-opacity="1.0" stroke-linecap="round" stroke-linejoin="round"/>
    <path d="M 173.4854278564453 147.51058959960938 C 159.47409057617188 105.78229522705078 204.67225646972656 115.05416870117188 180.1100616455078 146.63099670410156" stroke-width="3.0" fill="none" stroke="rgb(0, 0, 0)" stroke-opacity="1.0" stroke-linecap="round" stroke-linejoin="round"/>
    <path d="M 57.65346908569336 129.8211212158203 C -1.9819341897964478 118.44378662109375 21.198806762695312 91.8431396484375 90.38261413574219 105.63180541992188" stroke-width="3.0" fill="none" stroke="rgb(0, 0, 0)" stroke-opacity="1.0" stroke-linecap="round" stroke-linejoin="round"/>
    <path d="M 6.25378942489624 118.38782501220703 C 13.167844772338867 190.95095825195312 76.86016082763672 212.1701202392578 99.68267059326172 211.15704345703125" stroke-width="3.0" fill="none" stroke="rgb(0, 0, 0)" stroke-opacity="1.0" stroke-linecap="round" stroke-linejoin="round"/>
    <path d="M 99.2623291015625 153.06396484375 C 140.48916625976562 149.2637939453125 144.97084045410156 150.14891052246094 107.24365997314453 147.4679412841797" stroke-width="3.0" fill="none" stroke="rgb(0, 0, 0)" stroke-opacity="1.0" stroke-linecap="round" stroke-linejoin="round"/>
    <path d="M 159.26055908203125 109.63760375976562 C 151.54989624023438 109.97127532958984 126.77288818359375 104.11258697509766 189.467529296875 118.23606872558594" stroke-width="3.0" fill="none" stroke="rgb(0, 0, 0)" stroke-opacity="1.0" stroke-linecap="round" stroke-linejoin="round"/>
    <path d="M 42.90346145629883 93.57003784179688 C 78.59273529052734 116.63456726074219 44.963096618652344 88.11740112304688 47.79853057861328 118.60905456542969" stroke-width="3.0" fill="none" stroke="rgb(0, 0, 0)" stroke-opacity="1.0" stroke-linecap="round" stroke-linejoin="round"/>
    <path d="M 30.06557846069336 103.27532958984375 C 113.60161590576172 111.53716278076172 77.52410125732422 119.58287048339844 95.64688110351562 104.09429931640625" stroke-width="3.0" fill="none" stroke="rgb(0, 0, 0)" stroke-opacity="1.0" stroke-linecap="round" stroke-linejoin="round"/>
    <path d="M 26.772663116455078 47.91848373413086 C 46.65641784667969 27.17351531982422 43.843624114990234 27.51073455810547 67.39480590820312 10.182540893554688" stroke-width="3.0" fill="none" stroke="rgb(0, 0, 0)" stroke-opacity="1.0" stroke-linecap="round" stroke-linejoin="round"/>
    <path d="M 180.6084747314453 143.23629760742188 C 154.09259033203125 141.68533325195312 88.67622375488281 145.4597930908203 125.3468017578125 137.89866638183594" stroke-width="3.0" fill="none" stroke="rgb(0, 0, 0)" stroke-opacity="1.0" stroke-linecap="round" stroke-linejoin="round"/>
    <path d="M 37.1904411315918 132.70816040039062 C 88.85721588134766 140.0117950439453 123.91036224365234 134.70928955078125 30.715312957763672 127.89027404785156" stroke-width="3.0" fill="none" stroke="rgb(0, 0, 0)" stroke-opacity="1.0" stroke-linecap="round" stroke-linejoin="round"/>
    <path d="M 101.76860046386719 91.36592102050781 C 102.62260437011719 83.33353424072266 120.66319274902344 85.0916519165039 124.51407623291016 83.97490692138672" stroke-width="3.0" fill="none" stroke="rgb(0, 0, 0)" stroke-opacity="1.0" stroke-linecap="round" stroke-linejoin="round"/>
    <path d="M 165.10708618164062 102.17584228515625 C 178.7422637939453 93.51725769042969 139.64602661132812 77.7976303100586 109.8614501953125 80.97460174560547" stroke-width="3.0" fill="none" stroke="rgb(0, 0, 0)" stroke-opacity="1.0" stroke-linecap="round" stroke-linejoin="round"/>
  </g>
</svg>
