<?xml version="1.0" ?>
<svg xmlns="http://www.w3.org/2000/svg" version="1.1" width="224" height="224">
  <defs/>
  <g>
    <path d="M 75.5245361328125 106.8372573852539 C 120.24982452392578 91.77552032470703 121.55772399902344 130.57191467285156 112.08340454101562 147.1209716796875" stroke-width="3.0" fill="none" stroke="rgb(0, 0, 0)" stroke-opacity="1.0" stroke-linecap="round" stroke-linejoin="round"/>
    <path d="M 66.5278091430664 129.40618896484375 C 97.82205963134766 157.84100341796875 77.69915008544922 155.2657012939453 70.76834106445312 129.51930236816406" stroke-width="3.0" fill="none" stroke="rgb(0, 0, 0)" stroke-opacity="1.0" stroke-linecap="round" stroke-linejoin="round"/>
    <path d="M 44.45637130737305 127.4380874633789 C -11.931194305419922 111.66752624511719 -0.49093592166900635 121.30042266845703 85.40186309814453 125.94273376464844" stroke-width="3.0" fill="none" stroke="rgb(0, 0, 0)" stroke-opacity="1.0" stroke-linecap="round" stroke-linejoin="round"/>
    <path d="M 22.355838775634766 115.21715545654297 C 97.91319274902344 124.59294128417969 84.99463653564453 119.62474060058594 80.7246322631836 124.26368713378906" stroke-width="3.0" fill="none" stroke="rgb(0, 0, 0)" stroke-opacity="1.0" stroke-linecap="round" stroke-linejoin="round"/>
    <path d="M 98.27214050292969 96.69499969482422 C 190.98675537109375 120.42298889160156 179.1167755126953 108.26611328125 107.32514953613281 95.03785705566406" stroke-width="3.0" fill="none" stroke="rgb(0, 0, 0)" stroke-opacity="1.0" stroke-linecap="round" stroke-linejoin="round"/>
    <path d="M 174.85377502441406 141.91912841796875 C 171.15235900878906 101.78170013427734 201.63656616210938 119.65343475341797 146.6605224609375 106.39335632324219" stroke-width="3.0" fill="none" stroke="rgb(0, 0, 0)" stroke-opacity="1.0" stroke-linecap="round" stroke-linejoin="round"/>
    <path d="M 44.48597717285156 96.73566436767578 C 131.17648315429688 101.63766479492188 121.22923278808594 93.697509765625 48.719852447509766 92.91759490966797" stroke-width="3.0" fill="none" stroke="rgb(0, 0, 0)" stroke-opacity="1.0" stroke-linecap="round" stroke-linejoin="round"/>
    <path d="M 69.97608947753906 138.17129516601562 C 96.54424285888672 135.63584899902344 80.91515350341797 145.1953582763672 27.91915512084961 130.96214294433594" stroke-width="3.0" fill="none" stroke="rgb(0, 0, 0)" stroke-opacity="1.0" stroke-linecap="round" stroke-linejoin="round"/>
    <path d="M 126.8077621459961 209.41567993164062 C 193.15380859375 191.4068145751953 150.6441650390625 201.88795471191406 177.68080139160156 195.103515625" stroke-width="3.0" fill="none" stroke="rgb(0, 0, 0)" stroke-opacity="1.0" stroke-linecap="round" stroke-linejoin="round"/>
    <path d="M 156.96044921875 111.3140640258789 C 176.53286743164062 112.93989562988281 181.13543701171875 115.39159393310547 196.8490447998047 113.21360778808594" stroke-width="3.0" fill="none" stroke="rgb(0, 0, 0)" stroke-opacity="1.0" stroke-linecap="round" stroke-linejoin="round"/>
    <path d="M 100.4176254272461 103.4756088256836 C 130.2534637451172 103.31771087646484 115.75402069091797 145.990234375 137.15858459472656 143.67385864257812" stroke-width="3.0" fill="none" stroke="rgb(0, 0, 0)" stroke-opacity="1.0" stroke-linecap="round" stroke-linejoin="round"/>
    <path d="M 8.677501678466797 109.99024200439453 C 127.954345703125 108.31905364990234 97.5633316040039 106.50263214111328 20.189300537109375 100.79501342773438" stroke-width="3.0" fill="none" stroke="rgb(0, 0, 0)" stroke-opacity="1.0" stroke-linecap="round" stroke-linejoin="round"/>
    <path d="M 175.8697052001953 109.42023468017578 C 130.20724487304688 96.69319152832031 162.5572509765625 111.7979965209961 128.20962524414062 102.4181137084961" stroke-width="3.0" fill="none" stroke="rgb(0, 0, 0)" stroke-opacity="1.0" stroke-linecap="round" stroke-linejoin="round"/>
    <path d="M 82.92955780029297 206.82041931152344 C 89.7855453491211 209.62322998046875 105.75090026855469 214.0084686279297 110.91307067871094 211.20391845703125" stroke-width="3.0" fill="none" stroke="rgb(0, 0, 0)" stroke-opacity="1.0" stroke-linecap="round" stroke-linejoin="round"/>
    <path d="M 173.0999298095703 26.300674438476562 C 186.81005859375 36.29969024658203 226.99978637695312 75.91059875488281 213.91604614257812 134.21922302246094" stroke-width="3.0" fill="none" stroke="rgb(0, 0, 0)" stroke-opacity="1.0" stroke-linecap="round" stroke-linejoin="round"/>
    <path d="M 110.6612777709961 80.10299682617188 C 142.99806213378906 79.48136901855469 139.36077880859375 79.07269287109375 126.24996948242188 95.11601257324219" stroke-width="3.0" fill="none" stroke="rgb(0, 0, 0)" stroke-opacity="1.0" stroke-linecap="round" stroke-linejoin="round"/>
    <path d="M 54.23084259033203 20.579797744750977 C 115.40846252441406 -10.38429069519043 167.5166778564453 19.312862396240234 185.77894592285156 37.374671936035156" stroke-width="3.0" fill="none" stroke="rgb(0, 0, 0)" stroke-opacity="1.0" stroke-linecap="round" stroke-linejoin="round"/>
    <path d="M 134.83981323242188 133.3697967529297 C 130.2411346435547 155.23362731933594 145.54290771484375 123.84580993652344 139.69808959960938 141.8553924560547" stroke-width="3.0" fill="none" stroke="rgb(0, 0, 0)" stroke-opacity="1.0" stroke-linecap="round" stroke-linejoin="round"/>
    <path d="M 64.44017791748047 129.21022033691406 C 57.542518615722656 135.9015350341797 67.34817504882812 145.31314086914062 9.541718482971191 125.48324584960938" stroke-width="3.0" fill="none" stroke="rgb(0, 0, 0)" stroke-opacity="1.0" stroke-linecap="round" stroke-linejoin="round"/>
    <path d="M 169.09356689453125 135.82162475585938 C 193.24708557128906 165.30206298828125 186.52540588378906 105.9096908569336 179.89825439453125 127.64592742919922" stroke-width="3.0" fill="none" stroke="rgb(0, 0, 0)" stroke-opacity="1.0" stroke-linecap="round" stroke-linejoin="round"/>
    <path d="M 138.318603515625 207.06137084960938 C 108.25041961669922 215.92132568359375 99.85038757324219 210.5460968017578 129.00042724609375 207.71405029296875" stroke-width="3.0" fill="none" stroke="rgb(0, 0, 0)" stroke-opacity="1.0" stroke-linecap="round" stroke-linejoin="round"/>
    <path d="M 58.515113830566406 143.18887329101562 C 76.69954681396484 130.7788543701172 54.354122161865234 158.4332733154297 32.692909240722656 130.36175537109375" stroke-width="3.0" fill="none" stroke="rgb(0, 0, 0)" stroke-opacity="1.0" stroke-linecap="round" stroke-linejoin="round"/>
    <path d="M 96.189453125 87.83544921875 C 34.292537689208984 86.94183349609375 -15.613972663879395 95.40959930419922 66.38665771484375 96.4454345703125" stroke-width="3.0" fill="none" stroke="rgb(0, 0, 0)" stroke-opacity="1.0" stroke-linecap="round" stroke-linejoin="round"/>
    <path d="M 76.01988220214844 99.29242706298828 C 70.89716339111328 118.8119888305664 92.96815490722656 116.22066497802734 56.29615783691406 114.93993377685547" stroke-width="3.0" fill="none" stroke="rgb(0, 0, 0)" stroke-opacity="1.0" stroke-linecap="round" stroke-linejoin="round"/>
    <path d="M 149.22520446777344 97.6629638671875 C 123.11506652832031 78.81265258789062 160.3383331298828 100.68901824951172 164.65711975097656 96.69083404541016" stroke-width="3.0" fill="none" stroke="rgb(0, 0, 0)" stroke-opacity="1.0" stroke-linecap="round" stroke-linejoin="round"/>
    <path d="M 95.30889892578125 117.53240966796875 C 66.69805145263672 136.8470458984375 106.32166290283203 158.35870361328125 82.12918853759766 139.17510986328125" stroke-width="3.0" fill="none" stroke="rgb(0, 0, 0)" stroke-opacity="1.0" stroke-linecap="round" stroke-linejoin="round"/>
    <path d="M 24.147729873657227 49.06297302246094 C 14.4721097946167 67.70220947265625 1.3366235494613647 83.63040161132812 4.8701982498168945 125.7145767211914" stroke-width="3.0" fill="none" stroke="rgb(0, 0, 0)" stroke-opacity="1.0" stroke-linecap="round" stroke-linejoin="round"/>
    <path d="M 179.80307006835938 194.4805145263672 C 194.66403198242188 175.692138671875 216.90061950683594 152.6724853515625 215.177490234375 119.89636993408203" stroke-width="3.0" fill="none" stroke="rgb(0, 0, 0)" stroke-opacity="1.0" stroke-linecap="round" stroke-linejoin="round"/>
    <path d="M 146.47332763671875 106.8418197631836 C 209.87872314453125 118.159423828125 204.58815002441406 110.18643951416016 147.2625732421875 106.50618743896484" stroke-width="3.0" fill="none" stroke="rgb(0, 0, 0)" stroke-opacity="1.0" stroke-linecap="round" stroke-linejoin="round"/>
    <path d="M 140.9590606689453 94.7169418334961 C 232.73223876953125 118.13835144042969 170.4620361328125 98.85625457763672 173.35794067382812 137.57981872558594" stroke-width="3.0" fill="none" stroke="rgb(0, 0, 0)" stroke-opacity="1.0" stroke-linecap="round" stroke-linejoin="round"/>
    <path d="M 145.07138061523438 98.15937805175781 C 137.6173553466797 88.03179168701172 132.8330535888672 108.65139770507812 137.82577514648438 82.17155456542969" stroke-width="3.0" fill="none" stroke="rgb(0, 0, 0)" stroke-opacity="1.0" stroke-linecap="round" stroke-linejoin="round"/>
    <path d="M 82.35404968261719 145.07786560058594 C 133.60438537597656 165.35101318359375 107.99746704101562 79.15632629394531 84.70757293701172 118.76608276367188" stroke-width="3.0" fill="none" stroke="rgb(0, 0, 0)" stroke-opacity="1.0" stroke-linecap="round" stroke-linejoin="round"/>
    <path d="M 182.35385131835938 115.81254577636719 C 205.0825653076172 104.1166000366211 190.84561157226562 128.78392028808594 185.47543334960938 112.34934997558594" stroke-width="3.0" fill="none" stroke="rgb(0, 0, 0)" stroke-opacity="1.0" stroke-linecap="round" stroke-linejoin="round"/>
    <path d="M 139.47886657714844 105.17587280273438 C 106.797607421875 86.03713989257812 185.74368286132812 98.13046264648438 144.01077270507812 100.11717224121094" stroke-width="3.0" fill="none" stroke="rgb(0, 0, 0)" stroke-opacity="1.0" stroke-linecap="round" stroke-linejoin="round"/>
    <path d="M 59.10017395019531 22.076183319091797 C 91.20698547363281 7.955787658691406 80.07421875 4.305781841278076 59.85124206542969 16.860780715942383" stroke-width="3.0" fill="none" stroke="rgb(0, 0, 0)" stroke-opacity="1.0" stroke-linecap="round" stroke-linejoin="round"/>
    <path d="M 30.26944351196289 126.31153869628906 C 104.83486938476562 139.51205444335938 88.43798065185547 157.36712646484375 33.98477554321289 143.8372344970703" stroke-width="3.0" fill="none" stroke="rgb(0, 0, 0)" stroke-opacity="1.0" stroke-linecap="round" stroke-linejoin="round"/>
    <path d="M 178.96902465820312 139.9091796875 C 166.3261260986328 104.02320098876953 205.43197631835938 117.36797332763672 183.18545532226562 142.28440856933594" stroke-width="3.0" fill="none" stroke="rgb(0, 0, 0)" stroke-opacity="1.0" stroke-linecap="round" stroke-linejoin="round"/>
    <path d="M 37.371578216552734 138.01104736328125 C 12.300165176391602 102.85081481933594 23.85735511779785 101.83077239990234 85.84902954101562 109.24906921386719" stroke-width="3.0" fill="none" stroke="rgb(0, 0, 0)" stroke-opacity="1.0" stroke-linecap="round" stroke-linejoin="round"/>
    <path d="M 4.959867000579834 126.44615173339844 C 20.050554275512695 191.6340789794922 77.1088638305664 207.0884246826172 93.9615249633789 209.29876708984375" stroke-width="3.0" fill="none" stroke="rgb(0, 0, 0)" stroke-opacity="1.0" stroke-linecap="round" stroke-linejoin="round"/>
    <path d="M 119.6338119506836 129.15565490722656 C 142.74893188476562 150.706298828125 148.46603393554688 142.7498779296875 118.83924865722656 130.31068420410156" stroke-width="3.0" fill="none" stroke="rgb(0, 0, 0)" stroke-opacity="1.0" stroke-linecap="round" stroke-linejoin="round"/>
    <path d="M 154.90240478515625 107.0527572631836 C 155.1556396484375 107.40192413330078 128.56097412109375 103.70233154296875 181.64993286132812 118.67234802246094" stroke-width="3.0" fill="none" stroke="rgb(0, 0, 0)" stroke-opacity="1.0" stroke-linecap="round" stroke-linejoin="round"/>
    <path d="M 75.8162612915039 104.89254760742188 C 87.11087799072266 124.77989959716797 51.699623107910156 96.64370727539062 53.14616775512695 117.70478057861328" stroke-width="3.0" fill="none" stroke="rgb(0, 0, 0)" stroke-opacity="1.0" stroke-linecap="round" stroke-linejoin="round"/>
    <path d="M 26.61418914794922 104.09911346435547 C 103.38823699951172 117.45487213134766 71.63346099853516 119.50203704833984 91.82280731201172 103.91280364990234" stroke-width="3.0" fill="none" stroke="rgb(0, 0, 0)" stroke-opacity="1.0" stroke-linecap="round" stroke-linejoin="round"/>
    <path d="M 25.830326080322266 47.232215881347656 C 47.17015075683594 26.72458267211914 34.812889099121094 36.61003875732422 54.084320068359375 22.181743621826172" stroke-width="3.0" fill="none" stroke="rgb(0, 0, 0)" stroke-opacity="1.0" stroke-linecap="round" stroke-linejoin="round"/>
    <path d="M 180.93252563476562 134.27093505859375 C 170.066650390625 138.3718719482422 118.6572265625 133.13070678710938 120.41040802001953 134.1251678466797" stroke-width="3.0" fill="none" stroke="rgb(0, 0, 0)" stroke-opacity="1.0" stroke-linecap="round" stroke-linejoin="round"/>
    <path d="M 35.92949295043945 125.86627960205078 C 72.1392822265625 126.34268188476562 89.59886932373047 143.63983154296875 29.22913932800293 131.20753479003906" stroke-width="3.0" fill="none" stroke="rgb(0, 0, 0)" stroke-opacity="1.0" stroke-linecap="round" stroke-linejoin="round"/>
    <path d="M 96.5301513671875 88.23760986328125 C 108.90104675292969 77.70588684082031 118.39002990722656 81.52668762207031 125.62548828125 82.20177459716797" stroke-width="3.0" fill="none" stroke="rgb(0, 0, 0)" stroke-opacity="1.0" stroke-linecap="round" stroke-linejoin="round"/>
    <path d="M 167.2769012451172 101.06926727294922 C 178.59326171875 92.58326721191406 140.52603149414062 81.40245056152344 131.81326293945312 79.93050384521484" stroke-width="3.0" fill="none" stroke="rgb(0, 0, 0)" stroke-opacity="1.0" stroke-linecap="round" stroke-linejoin="round"/>
  </g>
</svg>
