<?xml version="1.0" ?>
<svg xmlns="http://www.w3.org/2000/svg" version="1.1" width="224" height="224">
  <defs/>
  <g>
    <path d="M 111.3937759399414 107.00813293457031 C 131.69549560546875 108.23271942138672 132.30638122558594 114.11116027832031 125.77648162841797 127.50102233886719" stroke-width="3.0" fill="none" stroke="rgb(0, 0, 0)" stroke-opacity="1.0" stroke-linecap="round" stroke-linejoin="round"/>
    <path d="M 68.53430938720703 130.05242919921875 C 80.3968276977539 137.57330322265625 64.8563461303711 138.58914184570312 74.72591400146484 125.3595962524414" stroke-width="3.0" fill="none" stroke="rgb(0, 0, 0)" stroke-opacity="1.0" stroke-linecap="round" stroke-linejoin="round"/>
    <path d="M 36.91189956665039 117.05335235595703 C 9.83366870880127 117.43016815185547 34.73027801513672 129.177490234375 67.219482421875 135.59786987304688" stroke-width="3.0" fill="none" stroke="rgb(0, 0, 0)" stroke-opacity="1.0" stroke-linecap="round" stroke-linejoin="round"/>
    <path d="M 51.086036682128906 122.48426818847656 C 69.30113983154297 122.21597290039062 68.40092468261719 127.64542388916016 80.3198013305664 117.71453094482422" stroke-width="3.0" fill="none" stroke="rgb(0, 0, 0)" stroke-opacity="1.0" stroke-linecap="round" stroke-linejoin="round"/>
    <path d="M 127.82828521728516 103.83489227294922 C 168.09262084960938 114.56591033935547 161.98390197753906 98.8380126953125 110.56805419921875 89.53817749023438" stroke-width="3.0" fill="none" stroke="rgb(0, 0, 0)" stroke-opacity="1.0" stroke-linecap="round" stroke-linejoin="round"/>
    <path d="M 164.11436462402344 127.52338409423828 C 163.0952911376953 122.15296173095703 165.39894104003906 129.71328735351562 149.7799072265625 129.07327270507812" stroke-width="3.0" fill="none" stroke="rgb(0, 0, 0)" stroke-opacity="1.0" stroke-linecap="round" stroke-linejoin="round"/>
    <path d="M 75.20833587646484 109.68090057373047 C 89.84169006347656 104.17495727539062 87.05778503417969 113.16627502441406 64.26197814941406 113.19042205810547" stroke-width="3.0" fill="none" stroke="rgb(0, 0, 0)" stroke-opacity="1.0" stroke-linecap="round" stroke-linejoin="round"/>
    <path d="M 71.86603546142578 142.64541625976562 C 72.72128295898438 136.93943786621094 62.78627014160156 143.64584350585938 52.72693634033203 144.73667907714844" stroke-width="3.0" fill="none" stroke="rgb(0, 0, 0)" stroke-opacity="1.0" stroke-linecap="round" stroke-linejoin="round"/>
    <path d="M 166.73414611816406 196.92098999023438 C 154.9199981689453 204.2113037109375 168.79542541503906 195.9300537109375 169.73484802246094 195.40670776367188" stroke-width="3.0" fill="none" stroke="rgb(0, 0, 0)" stroke-opacity="1.0" stroke-linecap="round" stroke-linejoin="round"/>
    <path d="M 163.9311065673828 100.7632064819336 C 182.67025756835938 102.105712890625 182.76080322265625 98.09312438964844 199.16256713867188 113.11296081542969" stroke-width="3.0" fill="none" stroke="rgb(0, 0, 0)" stroke-opacity="1.0" stroke-linecap="round" stroke-linejoin="round"/>
    <path d="M 127.203369140625 114.11808013916016 C 135.57958984375 125.38448333740234 125.5275650024414 150.1586456298828 133.57061767578125 135.26705932617188" stroke-width="3.0" fill="none" stroke="rgb(0, 0, 0)" stroke-opacity="1.0" stroke-linecap="round" stroke-linejoin="round"/>
    <path d="M 44.79670715332031 114.73091888427734 C 84.24765014648438 101.85884857177734 72.46929168701172 116.5168228149414 62.533409118652344 114.001220703125" stroke-width="3.0" fill="none" stroke="rgb(0, 0, 0)" stroke-opacity="1.0" stroke-linecap="round" stroke-linejoin="round"/>
    <path d="M 152.5121612548828 129.95704650878906 C 144.69749450683594 137.37161254882812 154.9713134765625 124.08789825439453 149.40330505371094 117.04939270019531" stroke-width="3.0" fill="none" stroke="rgb(0, 0, 0)" stroke-opacity="1.0" stroke-linecap="round" stroke-linejoin="round"/>
    <path d="M 117.6149673461914 174.37802124023438 C 110.42318725585938 174.0996856689453 112.6888427734375 179.2156982421875 113.39315795898438 174.01699829101562" stroke-width="3.0" fill="none" stroke="rgb(0, 0, 0)" stroke-opacity="1.0" stroke-linecap="round" stroke-linejoin="round"/>
    <path d="M 169.70814514160156 28.379894256591797 C 192.76844787597656 43.47366714477539 203.41871643066406 52.819149017333984 216.5194091796875 87.03343200683594" stroke-width="3.0" fill="none" stroke="rgb(0, 0, 0)" stroke-opacity="1.0" stroke-linecap="round" stroke-linejoin="round"/>
    <path d="M 103.26917266845703 80.55878448486328 C 151.8989715576172 77.38357543945312 139.9120330810547 81.89868927001953 128.53536987304688 104.14434051513672" stroke-width="3.0" fill="none" stroke="rgb(0, 0, 0)" stroke-opacity="1.0" stroke-linecap="round" stroke-linejoin="round"/>
    <path d="M 131.6174774169922 13.305524826049805 C 151.03082275390625 14.411452293395996 158.84747314453125 20.81050682067871 178.33567810058594 33.917762756347656" stroke-width="3.0" fill="none" stroke="rgb(0, 0, 0)" stroke-opacity="1.0" stroke-linecap="round" stroke-linejoin="round"/>
    <path d="M 142.97596740722656 133.31484985351562 C 142.83279418945312 139.7267303466797 129.91983032226562 140.3893280029297 141.32223510742188 134.8151092529297" stroke-width="3.0" fill="none" stroke="rgb(0, 0, 0)" stroke-opacity="1.0" stroke-linecap="round" stroke-linejoin="round"/>
    <path d="M 66.31971740722656 134.45828247070312 C 44.502235412597656 150.17674255371094 58.1358528137207 153.1360321044922 30.78208351135254 144.7455291748047" stroke-width="3.0" fill="none" stroke="rgb(0, 0, 0)" stroke-opacity="1.0" stroke-linecap="round" stroke-linejoin="round"/>
    <path d="M 170.63995361328125 133.14541625976562 C 185.25648498535156 170.7108154296875 192.69883728027344 102.99960327148438 173.95042419433594 128.0318603515625" stroke-width="3.0" fill="none" stroke="rgb(0, 0, 0)" stroke-opacity="1.0" stroke-linecap="round" stroke-linejoin="round"/>
    <path d="M 109.742431640625 200.01007080078125 C 116.3993911743164 194.30381774902344 112.18809509277344 194.69554138183594 116.75226593017578 196.3920440673828" stroke-width="3.0" fill="none" stroke="rgb(0, 0, 0)" stroke-opacity="1.0" stroke-linecap="round" stroke-linejoin="round"/>
    <path d="M 50.2837028503418 140.88331604003906 C 53.84358596801758 122.41580200195312 45.703834533691406 108.14678955078125 30.540813446044922 128.88894653320312" stroke-width="3.0" fill="none" stroke="rgb(0, 0, 0)" stroke-opacity="1.0" stroke-linecap="round" stroke-linejoin="round"/>
    <path d="M 62.9150276184082 111.52798461914062 C 69.27315521240234 113.2608413696289 38.515621185302734 110.23619079589844 56.287681579589844 108.78807067871094" stroke-width="3.0" fill="none" stroke="rgb(0, 0, 0)" stroke-opacity="1.0" stroke-linecap="round" stroke-linejoin="round"/>
    <path d="M 84.43867492675781 128.1605224609375 C 71.86446380615234 109.08662414550781 77.4833984375 112.54824829101562 58.432979583740234 122.32465362548828" stroke-width="3.0" fill="none" stroke="rgb(0, 0, 0)" stroke-opacity="1.0" stroke-linecap="round" stroke-linejoin="round"/>
    <path d="M 146.77305603027344 101.74214172363281 C 120.2009048461914 91.84141540527344 161.1405487060547 121.86662292480469 157.86558532714844 93.25250244140625" stroke-width="3.0" fill="none" stroke="rgb(0, 0, 0)" stroke-opacity="1.0" stroke-linecap="round" stroke-linejoin="round"/>
    <path d="M 83.46050262451172 104.462158203125 C 79.90966796875 123.91732025146484 82.40850067138672 174.01072692871094 77.1712646484375 132.62759399414062" stroke-width="3.0" fill="none" stroke="rgb(0, 0, 0)" stroke-opacity="1.0" stroke-linecap="round" stroke-linejoin="round"/>
    <path d="M 19.35400390625 83.70475769042969 C 23.065841674804688 80.29450225830078 21.939956665039062 72.61017608642578 13.514108657836914 98.44377899169922" stroke-width="3.0" fill="none" stroke="rgb(0, 0, 0)" stroke-opacity="1.0" stroke-linecap="round" stroke-linejoin="round"/>
    <path d="M 173.8417205810547 190.4504852294922 C 180.80416870117188 173.28939819335938 180.20379638671875 189.40936279296875 191.71469116210938 168.2503662109375" stroke-width="3.0" fill="none" stroke="rgb(0, 0, 0)" stroke-opacity="1.0" stroke-linecap="round" stroke-linejoin="round"/>
    <path d="M 171.89111328125 112.94396209716797 C 196.35885620117188 112.27557373046875 200.9769744873047 110.80424499511719 161.18475341796875 104.64358520507812" stroke-width="3.0" fill="none" stroke="rgb(0, 0, 0)" stroke-opacity="1.0" stroke-linecap="round" stroke-linejoin="round"/>
    <path d="M 153.8574981689453 104.32556915283203 C 177.27549743652344 117.59783935546875 175.1753387451172 101.07767486572266 167.16220092773438 128.35708618164062" stroke-width="3.0" fill="none" stroke="rgb(0, 0, 0)" stroke-opacity="1.0" stroke-linecap="round" stroke-linejoin="round"/>
    <path d="M 141.14378356933594 104.02184295654297 C 144.62646484375 99.42459869384766 135.84872436523438 120.03172302246094 141.3777313232422 84.02987670898438" stroke-width="3.0" fill="none" stroke="rgb(0, 0, 0)" stroke-opacity="1.0" stroke-linecap="round" stroke-linejoin="round"/>
    <path d="M 108.9837875366211 138.4922637939453 C 115.0610580444336 117.17346954345703 110.34745788574219 98.99661254882812 81.78775787353516 104.47355651855469" stroke-width="3.0" fill="none" stroke="rgb(0, 0, 0)" stroke-opacity="1.0" stroke-linecap="round" stroke-linejoin="round"/>
    <path d="M 195.35031127929688 112.00341033935547 C 197.69859313964844 120.50255584716797 193.4527587890625 117.44979858398438 192.6525115966797 124.68302917480469" stroke-width="3.0" fill="none" stroke="rgb(0, 0, 0)" stroke-opacity="1.0" stroke-linecap="round" stroke-linejoin="round"/>
    <path d="M 155.23565673828125 123.71833801269531 C 149.73512268066406 105.43159484863281 179.742919921875 97.7269058227539 146.21075439453125 99.9910888671875" stroke-width="3.0" fill="none" stroke="rgb(0, 0, 0)" stroke-opacity="1.0" stroke-linecap="round" stroke-linejoin="round"/>
    <path d="M 65.76885223388672 28.15909194946289 C 89.04253387451172 36.507850646972656 89.38848876953125 33.28418731689453 61.677268981933594 32.280094146728516" stroke-width="3.0" fill="none" stroke="rgb(0, 0, 0)" stroke-opacity="1.0" stroke-linecap="round" stroke-linejoin="round"/>
    <path d="M 49.964046478271484 132.61245727539062 C 68.80006408691406 140.42762756347656 58.92197799682617 134.21156311035156 51.32497787475586 141.24545288085938" stroke-width="3.0" fill="none" stroke="rgb(0, 0, 0)" stroke-opacity="1.0" stroke-linecap="round" stroke-linejoin="round"/>
    <path d="M 166.4547576904297 124.8167724609375 C 178.9215087890625 109.82416534423828 191.04676818847656 109.25973510742188 188.98318481445312 132.8643798828125" stroke-width="3.0" fill="none" stroke="rgb(0, 0, 0)" stroke-opacity="1.0" stroke-linecap="round" stroke-linejoin="round"/>
    <path d="M 45.646358489990234 139.8175811767578 C 39.55751419067383 104.66703796386719 27.780048370361328 110.69723510742188 61.33846664428711 113.66350555419922" stroke-width="3.0" fill="none" stroke="rgb(0, 0, 0)" stroke-opacity="1.0" stroke-linecap="round" stroke-linejoin="round"/>
    <path d="M 99.13670349121094 172.50796508789062 C 97.92163848876953 166.704833984375 97.91047668457031 166.57974243164062 101.58492279052734 180.67022705078125" stroke-width="3.0" fill="none" stroke="rgb(0, 0, 0)" stroke-opacity="1.0" stroke-linecap="round" stroke-linejoin="round"/>
    <path d="M 121.82489013671875 129.74742126464844 C 125.68710327148438 145.11570739746094 116.10291290283203 124.3853988647461 123.49982452392578 130.0305938720703" stroke-width="3.0" fill="none" stroke="rgb(0, 0, 0)" stroke-opacity="1.0" stroke-linecap="round" stroke-linejoin="round"/>
    <path d="M 157.85317993164062 114.15262603759766 C 166.44056701660156 123.91181945800781 151.00442504882812 107.44400024414062 184.39410400390625 110.18016052246094" stroke-width="3.0" fill="none" stroke="rgb(0, 0, 0)" stroke-opacity="1.0" stroke-linecap="round" stroke-linejoin="round"/>
    <path d="M 72.66082763671875 114.96063995361328 C 78.43602752685547 116.04408264160156 64.72402954101562 114.86434936523438 71.2531967163086 114.06140899658203" stroke-width="3.0" fill="none" stroke="rgb(0, 0, 0)" stroke-opacity="1.0" stroke-linecap="round" stroke-linejoin="round"/>
    <path d="M 52.17013168334961 120.10176849365234 C 63.527976989746094 124.31302642822266 85.18671417236328 114.78746032714844 80.95919799804688 129.10623168945312" stroke-width="3.0" fill="none" stroke="rgb(0, 0, 0)" stroke-opacity="1.0" stroke-linecap="round" stroke-linejoin="round"/>
    <path d="M 25.36753273010254 53.22272491455078 C 39.2431640625 30.54906463623047 43.78877639770508 32.95245361328125 53.58738708496094 28.68210792541504" stroke-width="3.0" fill="none" stroke="rgb(0, 0, 0)" stroke-opacity="1.0" stroke-linecap="round" stroke-linejoin="round"/>
    <path d="M 166.0729217529297 131.5212860107422 C 147.21914672851562 131.67994689941406 151.97219848632812 134.22203063964844 121.28762817382812 131.01783752441406" stroke-width="3.0" fill="none" stroke="rgb(0, 0, 0)" stroke-opacity="1.0" stroke-linecap="round" stroke-linejoin="round"/>
    <path d="M 34.061744689941406 121.26981353759766 C 35.597145080566406 131.95228576660156 52.00634002685547 122.7668228149414 28.485931396484375 120.11271667480469" stroke-width="3.0" fill="none" stroke="rgb(0, 0, 0)" stroke-opacity="1.0" stroke-linecap="round" stroke-linejoin="round"/>
    <path d="M 91.90654754638672 95.54019927978516 C 100.3071060180664 73.18448638916016 108.92658996582031 88.447265625 115.34197998046875 85.65921783447266" stroke-width="3.0" fill="none" stroke="rgb(0, 0, 0)" stroke-opacity="1.0" stroke-linecap="round" stroke-linejoin="round"/>
    <path d="M 170.1709442138672 99.0557861328125 C 165.5718536376953 86.52589416503906 150.2877960205078 83.60647583007812 140.13356018066406 83.57044219970703" stroke-width="3.0" fill="none" stroke="rgb(0, 0, 0)" stroke-opacity="1.0" stroke-linecap="round" stroke-linejoin="round"/>
  </g>
</svg>
