<?xml version="1.0" ?>
<svg xmlns="http://www.w3.org/2000/svg" version="1.1" width="224" height="224">
  <defs/>
  <g>
    <path d="M 74.0909652709961 105.96649169921875 C 119.83616638183594 94.46478271484375 122.6458740234375 139.19467163085938 105.85856628417969 150.678955078125" stroke-width="3.0" fill="none" stroke="rgb(0, 0, 0)" stroke-opacity="1.0" stroke-linecap="round" stroke-linejoin="round"/>
    <path d="M 80.24308013916016 129.3123321533203 C 101.02940368652344 154.41053771972656 72.12672424316406 145.79811096191406 78.70533752441406 127.74392700195312" stroke-width="3.0" fill="none" stroke="rgb(0, 0, 0)" stroke-opacity="1.0" stroke-linecap="round" stroke-linejoin="round"/>
    <path d="M 52.80426788330078 126.41033172607422 C -2.783233880996704 114.92935180664062 6.345663547515869 122.14281463623047 84.63322448730469 123.58531188964844" stroke-width="3.0" fill="none" stroke="rgb(0, 0, 0)" stroke-opacity="1.0" stroke-linecap="round" stroke-linejoin="round"/>
    <path d="M 23.484378814697266 107.02922821044922 C 106.5301513671875 118.3056640625 88.12519836425781 113.73853302001953 84.8429946899414 116.78532409667969" stroke-width="3.0" fill="none" stroke="rgb(0, 0, 0)" stroke-opacity="1.0" stroke-linecap="round" stroke-linejoin="round"/>
    <path d="M 102.20079803466797 94.04287719726562 C 190.863037109375 111.39781951904297 171.6098175048828 113.46525573730469 110.60760498046875 94.04544830322266" stroke-width="3.0" fill="none" stroke="rgb(0, 0, 0)" stroke-opacity="1.0" stroke-linecap="round" stroke-linejoin="round"/>
    <path d="M 175.46112060546875 141.5514373779297 C 162.77713012695312 108.92449188232422 216.3401336669922 115.94719696044922 142.8052215576172 103.15504455566406" stroke-width="3.0" fill="none" stroke="rgb(0, 0, 0)" stroke-opacity="1.0" stroke-linecap="round" stroke-linejoin="round"/>
    <path d="M 29.66422462463379 99.90484619140625 C 144.93162536621094 91.7712631225586 138.09959411621094 88.09173583984375 30.899322509765625 94.08782196044922" stroke-width="3.0" fill="none" stroke="rgb(0, 0, 0)" stroke-opacity="1.0" stroke-linecap="round" stroke-linejoin="round"/>
    <path d="M 70.37496948242188 130.95852661132812 C 103.0541000366211 132.72608947753906 83.7931137084961 137.4558868408203 40.209388732910156 130.13528442382812" stroke-width="3.0" fill="none" stroke="rgb(0, 0, 0)" stroke-opacity="1.0" stroke-linecap="round" stroke-linejoin="round"/>
    <path d="M 119.47274017333984 210.337158203125 C 197.0699005126953 189.96817016601562 151.0335235595703 203.54969787597656 177.09332275390625 193.24932861328125" stroke-width="3.0" fill="none" stroke="rgb(0, 0, 0)" stroke-opacity="1.0" stroke-linecap="round" stroke-linejoin="round"/>
    <path d="M 151.627197265625 108.72344970703125 C 186.54852294921875 105.99225616455078 189.38742065429688 122.24320220947266 190.07066345214844 114.80281829833984" stroke-width="3.0" fill="none" stroke="rgb(0, 0, 0)" stroke-opacity="1.0" stroke-linecap="round" stroke-linejoin="round"/>
    <path d="M 96.5453109741211 101.99076080322266 C 129.9385223388672 105.1165771484375 107.54346466064453 142.16070556640625 138.97921752929688 133.01123046875" stroke-width="3.0" fill="none" stroke="rgb(0, 0, 0)" stroke-opacity="1.0" stroke-linecap="round" stroke-linejoin="round"/>
    <path d="M 28.665063858032227 100.79969024658203 C 136.91488647460938 97.14755249023438 97.21139526367188 112.90545654296875 19.346664428710938 107.7597427368164" stroke-width="3.0" fill="none" stroke="rgb(0, 0, 0)" stroke-opacity="1.0" stroke-linecap="round" stroke-linejoin="round"/>
    <path d="M 177.43359375 119.46673583984375 C 128.1758270263672 109.0166015625 160.85292053222656 114.80850219726562 117.53570556640625 109.57520294189453" stroke-width="3.0" fill="none" stroke="rgb(0, 0, 0)" stroke-opacity="1.0" stroke-linecap="round" stroke-linejoin="round"/>
    <path d="M 72.31880187988281 203.4435272216797 C 88.07267761230469 208.5816650390625 106.791015625 212.50502014160156 118.15879821777344 211.06565856933594" stroke-width="3.0" fill="none" stroke="rgb(0, 0, 0)" stroke-opacity="1.0" stroke-linecap="round" stroke-linejoin="round"/>
    <path d="M 173.7366485595703 25.555212020874023 C 189.09371948242188 34.372314453125 229.2003173828125 76.79700469970703 213.53079223632812 137.04373168945312" stroke-width="3.0" fill="none" stroke="rgb(0, 0, 0)" stroke-opacity="1.0" stroke-linecap="round" stroke-linejoin="round"/>
    <path d="M 113.95079803466797 83.51387023925781 C 139.94647216796875 80.13253784179688 136.1953582763672 80.52693939208984 123.23612976074219 96.45494842529297" stroke-width="3.0" fill="none" stroke="rgb(0, 0, 0)" stroke-opacity="1.0" stroke-linecap="round" stroke-linejoin="round"/>
    <path d="M 65.5593490600586 23.467187881469727 C 115.50094604492188 -13.768840789794922 166.444091796875 17.19844627380371 189.5738067626953 38.65401840209961" stroke-width="3.0" fill="none" stroke="rgb(0, 0, 0)" stroke-opacity="1.0" stroke-linecap="round" stroke-linejoin="round"/>
    <path d="M 128.244140625 134.5586395263672 C 132.72866821289062 151.9872283935547 142.60235595703125 127.62997436523438 138.7935791015625 135.41001892089844" stroke-width="3.0" fill="none" stroke="rgb(0, 0, 0)" stroke-opacity="1.0" stroke-linecap="round" stroke-linejoin="round"/>
    <path d="M 62.534114837646484 128.9935760498047 C 54.586631774902344 137.6461639404297 64.96625518798828 147.5668487548828 18.67630386352539 132.35397338867188" stroke-width="3.0" fill="none" stroke="rgb(0, 0, 0)" stroke-opacity="1.0" stroke-linecap="round" stroke-linejoin="round"/>
    <path d="M 167.8739013671875 136.65879821777344 C 189.15737915039062 167.25885009765625 183.08694458007812 102.32674407958984 178.1138153076172 131.07936096191406" stroke-width="3.0" fill="none" stroke="rgb(0, 0, 0)" stroke-opacity="1.0" stroke-linecap="round" stroke-linejoin="round"/>
    <path d="M 129.8133544921875 208.44654846191406 C 105.9580078125 213.6802978515625 99.55838012695312 210.9888153076172 135.19012451171875 208.24765014648438" stroke-width="3.0" fill="none" stroke="rgb(0, 0, 0)" stroke-opacity="1.0" stroke-linecap="round" stroke-linejoin="round"/>
    <path d="M 57.391197204589844 145.1170654296875 C 81.22579193115234 147.49400329589844 62.77016067504883 156.9561309814453 19.592205047607422 133.93310546875" stroke-width="3.0" fill="none" stroke="rgb(0, 0, 0)" stroke-opacity="1.0" stroke-linecap="round" stroke-linejoin="round"/>
    <path d="M 92.30702209472656 87.40740203857422 C 56.86598587036133 86.14716339111328 11.515386581420898 94.85064697265625 75.6640625 92.086669921875" stroke-width="3.0" fill="none" stroke="rgb(0, 0, 0)" stroke-opacity="1.0" stroke-linecap="round" stroke-linejoin="round"/>
    <path d="M 74.4849624633789 103.94316864013672 C 80.32809448242188 112.93267059326172 106.73809051513672 120.72232818603516 59.30375289916992 114.14041137695312" stroke-width="3.0" fill="none" stroke="rgb(0, 0, 0)" stroke-opacity="1.0" stroke-linecap="round" stroke-linejoin="round"/>
    <path d="M 161.6068572998047 96.02526092529297 C 110.98209381103516 83.25642395019531 154.45733642578125 101.36283874511719 153.48745727539062 94.56173706054688" stroke-width="3.0" fill="none" stroke="rgb(0, 0, 0)" stroke-opacity="1.0" stroke-linecap="round" stroke-linejoin="round"/>
    <path d="M 97.12831115722656 118.38368225097656 C 67.03044128417969 142.4130859375 113.3143081665039 154.09605407714844 79.50875091552734 139.8565673828125" stroke-width="3.0" fill="none" stroke="rgb(0, 0, 0)" stroke-opacity="1.0" stroke-linecap="round" stroke-linejoin="round"/>
    <path d="M 26.457592010498047 50.123775482177734 C 17.784103393554688 65.08047485351562 -1.9101240634918213 94.30216217041016 7.224579334259033 128.90093994140625" stroke-width="3.0" fill="none" stroke="rgb(0, 0, 0)" stroke-opacity="1.0" stroke-linecap="round" stroke-linejoin="round"/>
    <path d="M 180.2434539794922 191.04017639160156 C 190.40245056152344 175.26168823242188 219.9236602783203 153.34988403320312 213.74391174316406 118.45280456542969" stroke-width="3.0" fill="none" stroke="rgb(0, 0, 0)" stroke-opacity="1.0" stroke-linecap="round" stroke-linejoin="round"/>
    <path d="M 145.10939025878906 106.71397399902344 C 210.6066131591797 123.33497619628906 206.72695922851562 110.25708770751953 154.1042938232422 106.5817642211914" stroke-width="3.0" fill="none" stroke="rgb(0, 0, 0)" stroke-opacity="1.0" stroke-linecap="round" stroke-linejoin="round"/>
    <path d="M 140.64590454101562 96.25552368164062 C 232.95703125 115.4524917602539 165.79727172851562 102.36865234375 170.17713928222656 137.13491821289062" stroke-width="3.0" fill="none" stroke="rgb(0, 0, 0)" stroke-opacity="1.0" stroke-linecap="round" stroke-linejoin="round"/>
    <path d="M 156.07797241210938 97.07595825195312 C 135.97610473632812 86.82817077636719 125.7235107421875 116.20248413085938 136.09263610839844 84.04061126708984" stroke-width="3.0" fill="none" stroke="rgb(0, 0, 0)" stroke-opacity="1.0" stroke-linecap="round" stroke-linejoin="round"/>
    <path d="M 79.87482452392578 146.61463928222656 C 127.37357330322266 167.29490661621094 101.93746185302734 81.50260162353516 87.5858154296875 126.8941879272461" stroke-width="3.0" fill="none" stroke="rgb(0, 0, 0)" stroke-opacity="1.0" stroke-linecap="round" stroke-linejoin="round"/>
    <path d="M 176.7641143798828 118.62947082519531 C 195.69613647460938 97.29869842529297 186.20103454589844 133.22152709960938 186.9585418701172 114.38218688964844" stroke-width="3.0" fill="none" stroke="rgb(0, 0, 0)" stroke-opacity="1.0" stroke-linecap="round" stroke-linejoin="round"/>
    <path d="M 133.6692657470703 100.58102416992188 C 106.92424011230469 95.9176025390625 186.71067810058594 114.74947357177734 138.89227294921875 101.22330474853516" stroke-width="3.0" fill="none" stroke="rgb(0, 0, 0)" stroke-opacity="1.0" stroke-linecap="round" stroke-linejoin="round"/>
    <path d="M 62.27099609375 26.025634765625 C 100.64754486083984 12.705775260925293 85.01531982421875 8.1536226272583 63.26494216918945 20.68358039855957" stroke-width="3.0" fill="none" stroke="rgb(0, 0, 0)" stroke-opacity="1.0" stroke-linecap="round" stroke-linejoin="round"/>
    <path d="M 29.75422477722168 124.69216918945312 C 113.93614196777344 135.33883666992188 98.08301544189453 152.26895141601562 34.01224136352539 145.00390625" stroke-width="3.0" fill="none" stroke="rgb(0, 0, 0)" stroke-opacity="1.0" stroke-linecap="round" stroke-linejoin="round"/>
    <path d="M 177.26504516601562 140.9163360595703 C 159.17262268066406 102.08705139160156 199.43492126464844 115.41117095947266 183.6891326904297 141.3199920654297" stroke-width="3.0" fill="none" stroke="rgb(0, 0, 0)" stroke-opacity="1.0" stroke-linecap="round" stroke-linejoin="round"/>
    <path d="M 47.57431411743164 136.16282653808594 C -0.003034055233001709 102.58899688720703 13.025607109069824 99.25082397460938 79.48854064941406 113.12479400634766" stroke-width="3.0" fill="none" stroke="rgb(0, 0, 0)" stroke-opacity="1.0" stroke-linecap="round" stroke-linejoin="round"/>
    <path d="M 7.3492655754089355 121.63473510742188 C 17.288122177124023 187.9686279296875 80.49908447265625 208.1477508544922 99.27100372314453 210.21630859375" stroke-width="3.0" fill="none" stroke="rgb(0, 0, 0)" stroke-opacity="1.0" stroke-linecap="round" stroke-linejoin="round"/>
    <path d="M 110.56631469726562 153.42156982421875 C 138.07313537597656 156.25799560546875 142.08441162109375 157.57640075683594 116.07439422607422 153.41839599609375" stroke-width="3.0" fill="none" stroke="rgb(0, 0, 0)" stroke-opacity="1.0" stroke-linecap="round" stroke-linejoin="round"/>
    <path d="M 154.63333129882812 105.95907592773438 C 152.1665496826172 107.05325317382812 129.72573852539062 101.71772003173828 189.49620056152344 117.59518432617188" stroke-width="3.0" fill="none" stroke="rgb(0, 0, 0)" stroke-opacity="1.0" stroke-linecap="round" stroke-linejoin="round"/>
    <path d="M 51.934932708740234 102.73800659179688 C 76.32865142822266 122.05802154541016 44.277156829833984 88.46534729003906 51.637516021728516 117.90867614746094" stroke-width="3.0" fill="none" stroke="rgb(0, 0, 0)" stroke-opacity="1.0" stroke-linecap="round" stroke-linejoin="round"/>
    <path d="M 29.341861724853516 97.77730560302734 C 107.4460220336914 111.61121368408203 70.91841125488281 123.80318450927734 94.73521423339844 101.53499603271484" stroke-width="3.0" fill="none" stroke="rgb(0, 0, 0)" stroke-opacity="1.0" stroke-linecap="round" stroke-linejoin="round"/>
    <path d="M 28.15752410888672 48.66474533081055 C 51.91807556152344 28.027956008911133 40.11543273925781 31.48657989501953 65.31637573242188 19.578460693359375" stroke-width="3.0" fill="none" stroke="rgb(0, 0, 0)" stroke-opacity="1.0" stroke-linecap="round" stroke-linejoin="round"/>
    <path d="M 183.43846130371094 140.64382934570312 C 154.90673828125 137.1011962890625 97.40961456298828 133.53646850585938 123.47957611083984 131.90550231933594" stroke-width="3.0" fill="none" stroke="rgb(0, 0, 0)" stroke-opacity="1.0" stroke-linecap="round" stroke-linejoin="round"/>
    <path d="M 37.91923904418945 128.16493225097656 C 87.02095031738281 133.95986938476562 115.15705108642578 132.8195037841797 25.799537658691406 124.2838363647461" stroke-width="3.0" fill="none" stroke="rgb(0, 0, 0)" stroke-opacity="1.0" stroke-linecap="round" stroke-linejoin="round"/>
    <path d="M 93.4381103515625 88.04802703857422 C 103.92811584472656 80.9469985961914 122.06385040283203 80.44700622558594 132.65658569335938 81.85651397705078" stroke-width="3.0" fill="none" stroke="rgb(0, 0, 0)" stroke-opacity="1.0" stroke-linecap="round" stroke-linejoin="round"/>
    <path d="M 165.62425231933594 99.58983612060547 C 181.4690399169922 98.51973724365234 139.4981689453125 77.51213836669922 124.8005599975586 82.21070098876953" stroke-width="3.0" fill="none" stroke="rgb(0, 0, 0)" stroke-opacity="1.0" stroke-linecap="round" stroke-linejoin="round"/>
  </g>
</svg>
