<?xml version="1.0" ?>
<svg xmlns="http://www.w3.org/2000/svg" version="1.1" width="224" height="224">
  <defs/>
  <g>
    <path d="M 72.76138305664062 107.75626373291016 C 131.86636352539062 95.29267883300781 120.17666625976562 153.66998291015625 95.20460510253906 151.2717742919922" stroke-width="3.0" fill="none" stroke="rgb(0, 0, 0)" stroke-opacity="1.0" stroke-linecap="round" stroke-linejoin="round"/>
    <path d="M 80.76533508300781 129.0093231201172 C 88.44544982910156 161.03857421875 76.44933319091797 144.25341796875 81.27787780761719 132.0089569091797" stroke-width="3.0" fill="none" stroke="rgb(0, 0, 0)" stroke-opacity="1.0" stroke-linecap="round" stroke-linejoin="round"/>
    <path d="M 73.92534637451172 134.21343994140625 C 42.532752990722656 170.75938415527344 42.49856948852539 167.82720947265625 75.03645324707031 133.17730712890625" stroke-width="3.0" fill="none" stroke="rgb(0, 0, 0)" stroke-opacity="1.0" stroke-linecap="round" stroke-linejoin="round"/>
    <path d="M 44.09049606323242 120.49516296386719 C 116.51399230957031 133.43240356445312 70.76395416259766 115.35628509521484 80.05848693847656 142.80471801757812" stroke-width="3.0" fill="none" stroke="rgb(0, 0, 0)" stroke-opacity="1.0" stroke-linecap="round" stroke-linejoin="round"/>
    <path d="M 104.21671295166016 91.17851257324219 C 196.86448669433594 90.70915222167969 190.40786743164062 106.42949676513672 107.52208709716797 99.61958312988281" stroke-width="3.0" fill="none" stroke="rgb(0, 0, 0)" stroke-opacity="1.0" stroke-linecap="round" stroke-linejoin="round"/>
    <path d="M 169.9874267578125 131.00938415527344 C 171.86192321777344 105.00117492675781 212.00608825683594 117.85912322998047 142.89407348632812 107.24615478515625" stroke-width="3.0" fill="none" stroke="rgb(0, 0, 0)" stroke-opacity="1.0" stroke-linecap="round" stroke-linejoin="round"/>
    <path d="M 30.792016983032227 101.5684814453125 C 178.2007598876953 106.99423217773438 167.78097534179688 94.66244506835938 34.349945068359375 99.29286193847656" stroke-width="3.0" fill="none" stroke="rgb(0, 0, 0)" stroke-opacity="1.0" stroke-linecap="round" stroke-linejoin="round"/>
    <path d="M 95.48705291748047 134.1033477783203 C 97.53520965576172 120.46745300292969 81.92477416992188 133.53297424316406 43.470664978027344 128.88946533203125" stroke-width="3.0" fill="none" stroke="rgb(0, 0, 0)" stroke-opacity="1.0" stroke-linecap="round" stroke-linejoin="round"/>
    <path d="M 112.48102569580078 213.96084594726562 C 187.66986083984375 198.0233154296875 161.479248046875 203.16781616210938 185.25604248046875 191.97764587402344" stroke-width="3.0" fill="none" stroke="rgb(0, 0, 0)" stroke-opacity="1.0" stroke-linecap="round" stroke-linejoin="round"/>
    <path d="M 162.08251953125 109.47452545166016 C 203.51763916015625 112.29734802246094 181.9230499267578 125.13658905029297 194.9961700439453 111.8555679321289" stroke-width="3.0" fill="none" stroke="rgb(0, 0, 0)" stroke-opacity="1.0" stroke-linecap="round" stroke-linejoin="round"/>
    <path d="M 104.62039947509766 104.95867919921875 C 133.99563598632812 114.14642333984375 99.16101837158203 150.9518280029297 156.4946746826172 149.9711151123047" stroke-width="3.0" fill="none" stroke="rgb(0, 0, 0)" stroke-opacity="1.0" stroke-linecap="round" stroke-linejoin="round"/>
    <path d="M 43.91334915161133 103.50829315185547 C 136.68453979492188 101.67682647705078 91.7203369140625 117.09395599365234 29.453022003173828 106.87713623046875" stroke-width="3.0" fill="none" stroke="rgb(0, 0, 0)" stroke-opacity="1.0" stroke-linecap="round" stroke-linejoin="round"/>
    <path d="M 186.44944763183594 102.88166809082031 C 155.42642211914062 103.78433990478516 171.8887481689453 113.03038787841797 86.0343017578125 101.32461547851562" stroke-width="3.0" fill="none" stroke="rgb(0, 0, 0)" stroke-opacity="1.0" stroke-linecap="round" stroke-linejoin="round"/>
    <path d="M 34.05675506591797 176.5369873046875 C 75.78411102294922 217.1813201904297 117.40007781982422 209.9014434814453 134.73397827148438 208.0150146484375" stroke-width="3.0" fill="none" stroke="rgb(0, 0, 0)" stroke-opacity="1.0" stroke-linecap="round" stroke-linejoin="round"/>
    <path d="M 175.8472900390625 28.18749237060547 C 188.17831420898438 36.65595626831055 233.08030700683594 84.50296783447266 216.2508544921875 127.48485565185547" stroke-width="3.0" fill="none" stroke="rgb(0, 0, 0)" stroke-opacity="1.0" stroke-linecap="round" stroke-linejoin="round"/>
    <path d="M 91.51038360595703 89.22633361816406 C 136.6396026611328 65.67919158935547 157.24024963378906 92.37845611572266 132.18128967285156 91.9224853515625" stroke-width="3.0" fill="none" stroke="rgb(0, 0, 0)" stroke-opacity="1.0" stroke-linecap="round" stroke-linejoin="round"/>
    <path d="M 71.58534240722656 29.37342643737793 C 94.90057373046875 -12.219895362854004 171.71864318847656 12.462488174438477 191.55113220214844 44.900169372558594" stroke-width="3.0" fill="none" stroke="rgb(0, 0, 0)" stroke-opacity="1.0" stroke-linecap="round" stroke-linejoin="round"/>
    <path d="M 114.49077606201172 139.85928344726562 C 164.81301879882812 135.04959106445312 201.472412109375 133.26058959960938 129.62452697753906 131.65147399902344" stroke-width="3.0" fill="none" stroke="rgb(0, 0, 0)" stroke-opacity="1.0" stroke-linecap="round" stroke-linejoin="round"/>
    <path d="M 83.3281478881836 126.42904663085938 C 72.89885711669922 147.69973754882812 44.338951110839844 161.90025329589844 32.308692932128906 130.66183471679688" stroke-width="3.0" fill="none" stroke="rgb(0, 0, 0)" stroke-opacity="1.0" stroke-linecap="round" stroke-linejoin="round"/>
    <path d="M 171.43695068359375 145.0511016845703 C 195.2447967529297 155.81777954101562 178.01039123535156 100.90969848632812 178.35009765625 133.15194702148438" stroke-width="3.0" fill="none" stroke="rgb(0, 0, 0)" stroke-opacity="1.0" stroke-linecap="round" stroke-linejoin="round"/>
    <path d="M 170.2444305419922 199.9215087890625 C 100.99348449707031 186.9210662841797 98.73013305664062 188.51600646972656 159.70155334472656 197.2965850830078" stroke-width="3.0" fill="none" stroke="rgb(0, 0, 0)" stroke-opacity="1.0" stroke-linecap="round" stroke-linejoin="round"/>
    <path d="M 69.65050506591797 111.80545806884766 C 73.0968246459961 139.50497436523438 57.88471984863281 153.72923278808594 39.146728515625 123.63815307617188" stroke-width="3.0" fill="none" stroke="rgb(0, 0, 0)" stroke-opacity="1.0" stroke-linecap="round" stroke-linejoin="round"/>
    <path d="M 117.1491470336914 90.16603088378906 C 91.37073516845703 89.48360443115234 49.40055847167969 91.81566619873047 106.23983001708984 88.96770477294922" stroke-width="3.0" fill="none" stroke="rgb(0, 0, 0)" stroke-opacity="1.0" stroke-linecap="round" stroke-linejoin="round"/>
    <path d="M 76.2787094116211 108.9598159790039 C 85.24819946289062 103.14993286132812 115.11112976074219 127.3021469116211 56.601097106933594 114.90494537353516" stroke-width="3.0" fill="none" stroke="rgb(0, 0, 0)" stroke-opacity="1.0" stroke-linecap="round" stroke-linejoin="round"/>
    <path d="M 152.63430786132812 98.92137145996094 C 85.42568969726562 96.18930053710938 157.14306640625 106.71077728271484 164.36390686035156 101.29988098144531" stroke-width="3.0" fill="none" stroke="rgb(0, 0, 0)" stroke-opacity="1.0" stroke-linecap="round" stroke-linejoin="round"/>
    <path d="M 96.83654022216797 114.28584289550781 C 68.43202209472656 163.70973205566406 114.35214233398438 151.5224609375 85.50435638427734 147.22225952148438" stroke-width="3.0" fill="none" stroke="rgb(0, 0, 0)" stroke-opacity="1.0" stroke-linecap="round" stroke-linejoin="round"/>
    <path d="M 24.20311737060547 49.868873596191406 C 17.389617919921875 63.974891662597656 0.16464881598949432 96.31109619140625 9.641023635864258 129.79403686523438" stroke-width="3.0" fill="none" stroke="rgb(0, 0, 0)" stroke-opacity="1.0" stroke-linecap="round" stroke-linejoin="round"/>
    <path d="M 186.23643493652344 191.1141357421875 C 192.3470458984375 182.34825134277344 226.40159606933594 147.7383270263672 218.47259521484375 98.13471221923828" stroke-width="3.0" fill="none" stroke="rgb(0, 0, 0)" stroke-opacity="1.0" stroke-linecap="round" stroke-linejoin="round"/>
    <path d="M 157.34481811523438 113.49372100830078 C 240.9170684814453 109.65504455566406 219.78955078125 103.2626953125 174.38575744628906 97.74604034423828" stroke-width="3.0" fill="none" stroke="rgb(0, 0, 0)" stroke-opacity="1.0" stroke-linecap="round" stroke-linejoin="round"/>
    <path d="M 133.85366821289062 95.17744445800781 C 264.3568420410156 119.21160125732422 150.05836486816406 97.006103515625 175.71572875976562 145.37472534179688" stroke-width="3.0" fill="none" stroke="rgb(0, 0, 0)" stroke-opacity="1.0" stroke-linecap="round" stroke-linejoin="round"/>
    <path d="M 143.29730224609375 94.2237777709961 C 142.81837463378906 58.90486145019531 120.7314453125 120.81825256347656 135.9597625732422 82.92093658447266" stroke-width="3.0" fill="none" stroke="rgb(0, 0, 0)" stroke-opacity="1.0" stroke-linecap="round" stroke-linejoin="round"/>
    <path d="M 62.47830581665039 140.0535430908203 C 141.74441528320312 158.64817810058594 92.01905059814453 94.0603256225586 101.75405883789062 126.5356216430664" stroke-width="3.0" fill="none" stroke="rgb(0, 0, 0)" stroke-opacity="1.0" stroke-linecap="round" stroke-linejoin="round"/>
    <path d="M 175.6809539794922 120.16576385498047 C 180.57347106933594 110.82144927978516 194.17507934570312 132.19085693359375 187.35574340820312 138.04476928710938" stroke-width="3.0" fill="none" stroke="rgb(0, 0, 0)" stroke-opacity="1.0" stroke-linecap="round" stroke-linejoin="round"/>
    <path d="M 136.28805541992188 95.59183502197266 C 106.92320251464844 94.5460433959961 194.92408752441406 102.11016082763672 137.0485076904297 99.00466918945312" stroke-width="3.0" fill="none" stroke="rgb(0, 0, 0)" stroke-opacity="1.0" stroke-linecap="round" stroke-linejoin="round"/>
    <path d="M 60.387840270996094 13.227324485778809 C 93.67826080322266 -15.93282413482666 97.56257629394531 -12.274762153625488 64.08170318603516 8.311084747314453" stroke-width="3.0" fill="none" stroke="rgb(0, 0, 0)" stroke-opacity="1.0" stroke-linecap="round" stroke-linejoin="round"/>
    <path d="M 27.272165298461914 122.58806610107422 C 109.12593078613281 135.9220733642578 115.48733520507812 153.24696350097656 31.105571746826172 145.13125610351562" stroke-width="3.0" fill="none" stroke="rgb(0, 0, 0)" stroke-opacity="1.0" stroke-linecap="round" stroke-linejoin="round"/>
    <path d="M 172.89503479003906 145.00115966796875 C 167.8336181640625 100.26942443847656 205.960205078125 112.5616226196289 182.45632934570312 143.8055419921875" stroke-width="3.0" fill="none" stroke="rgb(0, 0, 0)" stroke-opacity="1.0" stroke-linecap="round" stroke-linejoin="round"/>
    <path d="M 53.220123291015625 142.10719299316406 C 4.909526824951172 121.26752471923828 24.84697723388672 82.95508575439453 77.48130798339844 106.92231750488281" stroke-width="3.0" fill="none" stroke="rgb(0, 0, 0)" stroke-opacity="1.0" stroke-linecap="round" stroke-linejoin="round"/>
    <path d="M 7.528134822845459 117.55479431152344 C 14.988482475280762 187.49024963378906 78.99395751953125 220.70970153808594 113.64077758789062 212.87158203125" stroke-width="3.0" fill="none" stroke="rgb(0, 0, 0)" stroke-opacity="1.0" stroke-linecap="round" stroke-linejoin="round"/>
    <path d="M 62.173248291015625 152.9145050048828 C 174.652099609375 152.58181762695312 188.46670532226562 144.3656463623047 108.13225555419922 146.65188598632812" stroke-width="3.0" fill="none" stroke="rgb(0, 0, 0)" stroke-opacity="1.0" stroke-linecap="round" stroke-linejoin="round"/>
    <path d="M 173.6661376953125 110.63021087646484 C 138.37940979003906 109.4839096069336 119.93480682373047 105.08723449707031 196.54049682617188 112.27519226074219" stroke-width="3.0" fill="none" stroke="rgb(0, 0, 0)" stroke-opacity="1.0" stroke-linecap="round" stroke-linejoin="round"/>
    <path d="M 40.74092102050781 99.74604797363281 C 24.306909561157227 125.95631408691406 54.615631103515625 86.9169921875 54.32282257080078 115.65636444091797" stroke-width="3.0" fill="none" stroke="rgb(0, 0, 0)" stroke-opacity="1.0" stroke-linecap="round" stroke-linejoin="round"/>
    <path d="M 28.842241287231445 110.86015319824219 C 121.81118774414062 116.41641998291016 77.35276794433594 119.77961730957031 99.0506820678711 106.09403991699219" stroke-width="3.0" fill="none" stroke="rgb(0, 0, 0)" stroke-opacity="1.0" stroke-linecap="round" stroke-linejoin="round"/>
    <path d="M 24.152822494506836 48.10391616821289 C 46.03493881225586 21.44761085510254 43.78042984008789 26.03119659423828 65.32601165771484 8.365120887756348" stroke-width="3.0" fill="none" stroke="rgb(0, 0, 0)" stroke-opacity="1.0" stroke-linecap="round" stroke-linejoin="round"/>
    <path d="M 183.79049682617188 140.72018432617188 C 182.7914581298828 144.60406494140625 92.37838745117188 148.28955078125 118.91930389404297 132.84384155273438" stroke-width="3.0" fill="none" stroke="rgb(0, 0, 0)" stroke-opacity="1.0" stroke-linecap="round" stroke-linejoin="round"/>
    <path d="M 41.70401382446289 122.68379974365234 C 85.21289825439453 125.71925354003906 120.00321197509766 124.43875885009766 34.70354080200195 129.0950927734375" stroke-width="3.0" fill="none" stroke="rgb(0, 0, 0)" stroke-opacity="1.0" stroke-linecap="round" stroke-linejoin="round"/>
    <path d="M 103.2361831665039 88.85407257080078 C 89.69749450683594 90.93534851074219 120.5790023803711 86.16254425048828 112.21371459960938 85.4845199584961" stroke-width="3.0" fill="none" stroke="rgb(0, 0, 0)" stroke-opacity="1.0" stroke-linecap="round" stroke-linejoin="round"/>
    <path d="M 163.02053833007812 100.38372039794922 C 174.23191833496094 94.65518951416016 125.33171081542969 69.6251449584961 108.84031677246094 84.13977813720703" stroke-width="3.0" fill="none" stroke="rgb(0, 0, 0)" stroke-opacity="1.0" stroke-linecap="round" stroke-linejoin="round"/>
  </g>
</svg>
