<?xml version="1.0" ?>
<svg xmlns="http://www.w3.org/2000/svg" version="1.1" width="224" height="224">
  <defs/>
  <g>
    <path d="M 80.02743530273438 104.72130584716797 C 116.79069519042969 94.04238891601562 120.7293701171875 129.98414611816406 113.84674835205078 142.5619659423828" stroke-width="3.0" fill="none" stroke="rgb(0, 0, 0)" stroke-opacity="1.0" stroke-linecap="round" stroke-linejoin="round"/>
    <path d="M 61.54632568359375 130.27505493164062 C 94.81776428222656 161.6064910888672 90.24034118652344 147.57334899902344 68.09011840820312 142.24880981445312" stroke-width="3.0" fill="none" stroke="rgb(0, 0, 0)" stroke-opacity="1.0" stroke-linecap="round" stroke-linejoin="round"/>
    <path d="M 42.77781677246094 128.29151916503906 C -17.7818660736084 114.0653305053711 -7.495114326477051 123.81318664550781 83.80133819580078 128.69827270507812" stroke-width="3.0" fill="none" stroke="rgb(0, 0, 0)" stroke-opacity="1.0" stroke-linecap="round" stroke-linejoin="round"/>
    <path d="M 25.92479133605957 118.82881927490234 C 93.6112060546875 125.10888671875 82.6332778930664 123.12461853027344 86.33797454833984 122.88162994384766" stroke-width="3.0" fill="none" stroke="rgb(0, 0, 0)" stroke-opacity="1.0" stroke-linecap="round" stroke-linejoin="round"/>
    <path d="M 94.81084442138672 95.83666229248047 C 187.22415161132812 121.46825408935547 176.65673828125 106.80108642578125 99.86751556396484 94.4695053100586" stroke-width="3.0" fill="none" stroke="rgb(0, 0, 0)" stroke-opacity="1.0" stroke-linecap="round" stroke-linejoin="round"/>
    <path d="M 173.2117462158203 133.3068389892578 C 178.126953125 106.53335571289062 201.66038513183594 122.33747863769531 145.0904083251953 104.80195617675781" stroke-width="3.0" fill="none" stroke="rgb(0, 0, 0)" stroke-opacity="1.0" stroke-linecap="round" stroke-linejoin="round"/>
    <path d="M 65.01085662841797 100.42743682861328 C 127.19715881347656 98.96870422363281 117.60602569580078 92.06714630126953 42.21079635620117 97.54415893554688" stroke-width="3.0" fill="none" stroke="rgb(0, 0, 0)" stroke-opacity="1.0" stroke-linecap="round" stroke-linejoin="round"/>
    <path d="M 86.823486328125 142.26145935058594 C 93.51677703857422 135.08758544921875 82.44749450683594 138.928955078125 21.458547592163086 129.13360595703125" stroke-width="3.0" fill="none" stroke="rgb(0, 0, 0)" stroke-opacity="1.0" stroke-linecap="round" stroke-linejoin="round"/>
    <path d="M 127.90055847167969 206.99142456054688 C 191.39373779296875 191.77401733398438 150.9959716796875 200.05836486816406 174.6011505126953 194.24905395507812" stroke-width="3.0" fill="none" stroke="rgb(0, 0, 0)" stroke-opacity="1.0" stroke-linecap="round" stroke-linejoin="round"/>
    <path d="M 159.83872985839844 106.27306365966797 C 173.5304718017578 115.88799285888672 176.7832794189453 115.73147583007812 192.2616424560547 118.17151641845703" stroke-width="3.0" fill="none" stroke="rgb(0, 0, 0)" stroke-opacity="1.0" stroke-linecap="round" stroke-linejoin="round"/>
    <path d="M 103.1400146484375 104.14215087890625 C 126.9635009765625 108.1593246459961 115.91006469726562 145.925048828125 134.77540588378906 143.9788818359375" stroke-width="3.0" fill="none" stroke="rgb(0, 0, 0)" stroke-opacity="1.0" stroke-linecap="round" stroke-linejoin="round"/>
    <path d="M 16.5156307220459 106.64955139160156 C 122.25849914550781 108.99994659423828 91.98206329345703 100.54402923583984 26.52972984313965 99.19397735595703" stroke-width="3.0" fill="none" stroke="rgb(0, 0, 0)" stroke-opacity="1.0" stroke-linecap="round" stroke-linejoin="round"/>
    <path d="M 177.08334350585938 110.22401428222656 C 121.51569366455078 101.71044158935547 155.55955505371094 108.45858001708984 127.87992095947266 104.9453353881836" stroke-width="3.0" fill="none" stroke="rgb(0, 0, 0)" stroke-opacity="1.0" stroke-linecap="round" stroke-linejoin="round"/>
    <path d="M 82.61888885498047 205.55380249023438 C 91.87328338623047 206.87942504882812 104.03905487060547 211.06954956054688 107.91083526611328 207.71450805664062" stroke-width="3.0" fill="none" stroke="rgb(0, 0, 0)" stroke-opacity="1.0" stroke-linecap="round" stroke-linejoin="round"/>
    <path d="M 174.42515563964844 26.367746353149414 C 187.84027099609375 33.21567153930664 225.81346130371094 75.58915710449219 215.35507202148438 130.61705017089844" stroke-width="3.0" fill="none" stroke="rgb(0, 0, 0)" stroke-opacity="1.0" stroke-linecap="round" stroke-linejoin="round"/>
    <path d="M 107.25211334228516 81.2960433959961 C 141.4311065673828 79.52218627929688 136.49644470214844 80.5551528930664 127.51446533203125 96.61935424804688" stroke-width="3.0" fill="none" stroke="rgb(0, 0, 0)" stroke-opacity="1.0" stroke-linecap="round" stroke-linejoin="round"/>
    <path d="M 57.3448486328125 23.169265747070312 C 122.27713775634766 -12.41590404510498 163.68673706054688 18.046361923217773 186.18527221679688 35.37281799316406" stroke-width="3.0" fill="none" stroke="rgb(0, 0, 0)" stroke-opacity="1.0" stroke-linecap="round" stroke-linejoin="round"/>
    <path d="M 140.23516845703125 135.708740234375 C 135.4358673095703 153.35842895507812 137.32620239257812 125.13380432128906 137.12451171875 142.71002197265625" stroke-width="3.0" fill="none" stroke="rgb(0, 0, 0)" stroke-opacity="1.0" stroke-linecap="round" stroke-linejoin="round"/>
    <path d="M 70.58688354492188 132.32235717773438 C 66.25373077392578 143.51870727539062 67.65827178955078 155.2050018310547 3.176024913787842 128.07290649414062" stroke-width="3.0" fill="none" stroke="rgb(0, 0, 0)" stroke-opacity="1.0" stroke-linecap="round" stroke-linejoin="round"/>
    <path d="M 168.96136474609375 136.84674072265625 C 190.58682250976562 167.53213500976562 185.4278564453125 103.06013488769531 178.58860778808594 130.023681640625" stroke-width="3.0" fill="none" stroke="rgb(0, 0, 0)" stroke-opacity="1.0" stroke-linecap="round" stroke-linejoin="round"/>
    <path d="M 135.09725952148438 203.6398468017578 C 109.37102508544922 211.15057373046875 101.2880630493164 208.74270629882812 119.4864273071289 208.35922241210938" stroke-width="3.0" fill="none" stroke="rgb(0, 0, 0)" stroke-opacity="1.0" stroke-linecap="round" stroke-linejoin="round"/>
    <path d="M 60.14084243774414 129.21836853027344 C 64.5582275390625 129.4114532470703 58.08478927612305 150.58511352539062 29.887901306152344 121.67091369628906" stroke-width="3.0" fill="none" stroke="rgb(0, 0, 0)" stroke-opacity="1.0" stroke-linecap="round" stroke-linejoin="round"/>
    <path d="M 101.25650024414062 92.32998657226562 C 34.67191696166992 87.5526351928711 -15.859495162963867 99.5601806640625 70.5025634765625 100.6209716796875" stroke-width="3.0" fill="none" stroke="rgb(0, 0, 0)" stroke-opacity="1.0" stroke-linecap="round" stroke-linejoin="round"/>
    <path d="M 71.31095886230469 100.32972717285156 C 70.56950378417969 117.40856170654297 95.87503814697266 117.6988754272461 60.58732223510742 117.52693939208984" stroke-width="3.0" fill="none" stroke="rgb(0, 0, 0)" stroke-opacity="1.0" stroke-linecap="round" stroke-linejoin="round"/>
    <path d="M 147.79551696777344 94.00177001953125 C 116.57954406738281 83.46199798583984 155.8359832763672 103.80321502685547 168.69482421875 97.76886749267578" stroke-width="3.0" fill="none" stroke="rgb(0, 0, 0)" stroke-opacity="1.0" stroke-linecap="round" stroke-linejoin="round"/>
    <path d="M 92.06724548339844 108.72911834716797 C 72.80023193359375 133.6039581298828 104.63834381103516 161.9196319580078 87.265625 141.084228515625" stroke-width="3.0" fill="none" stroke="rgb(0, 0, 0)" stroke-opacity="1.0" stroke-linecap="round" stroke-linejoin="round"/>
    <path d="M 24.69029426574707 51.69906997680664 C 15.941642761230469 71.01805877685547 7.734495162963867 85.62152862548828 3.6032814979553223 114.68043518066406" stroke-width="3.0" fill="none" stroke="rgb(0, 0, 0)" stroke-opacity="1.0" stroke-linecap="round" stroke-linejoin="round"/>
    <path d="M 178.18150329589844 192.52316284179688 C 194.7565155029297 171.9310760498047 217.3345184326172 154.0435791015625 214.3865203857422 117.02828979492188" stroke-width="3.0" fill="none" stroke="rgb(0, 0, 0)" stroke-opacity="1.0" stroke-linecap="round" stroke-linejoin="round"/>
    <path d="M 141.19786071777344 103.491455078125 C 217.37905883789062 116.99787902832031 208.64837646484375 118.41787719726562 141.457763671875 112.56698608398438" stroke-width="3.0" fill="none" stroke="rgb(0, 0, 0)" stroke-opacity="1.0" stroke-linecap="round" stroke-linejoin="round"/>
    <path d="M 140.5468292236328 95.58721923828125 C 230.0943603515625 118.96057891845703 168.8750457763672 102.45252227783203 170.34593200683594 136.8623809814453" stroke-width="3.0" fill="none" stroke="rgb(0, 0, 0)" stroke-opacity="1.0" stroke-linecap="round" stroke-linejoin="round"/>
    <path d="M 145.3050994873047 98.13578796386719 C 140.2061309814453 88.49252319335938 127.26974487304688 110.96984100341797 137.40431213378906 83.99876403808594" stroke-width="3.0" fill="none" stroke="rgb(0, 0, 0)" stroke-opacity="1.0" stroke-linecap="round" stroke-linejoin="round"/>
    <path d="M 80.98753356933594 147.9742889404297 C 129.12391662597656 166.91867065429688 113.8158950805664 78.40760040283203 79.49401092529297 118.7291030883789" stroke-width="3.0" fill="none" stroke="rgb(0, 0, 0)" stroke-opacity="1.0" stroke-linecap="round" stroke-linejoin="round"/>
    <path d="M 183.3313751220703 116.17454528808594 C 199.93714904785156 105.94905853271484 183.8398895263672 138.61886596679688 188.51097106933594 114.50377655029297" stroke-width="3.0" fill="none" stroke="rgb(0, 0, 0)" stroke-opacity="1.0" stroke-linecap="round" stroke-linejoin="round"/>
    <path d="M 143.0407257080078 95.96195983886719 C 111.43543243408203 88.37293243408203 187.81829833984375 108.05696105957031 146.39988708496094 96.66204071044922" stroke-width="3.0" fill="none" stroke="rgb(0, 0, 0)" stroke-opacity="1.0" stroke-linecap="round" stroke-linejoin="round"/>
    <path d="M 65.8703842163086 20.85855484008789 C 94.04379272460938 15.579551696777344 80.79875183105469 9.105061531066895 71.31407165527344 24.16226577758789" stroke-width="3.0" fill="none" stroke="rgb(0, 0, 0)" stroke-opacity="1.0" stroke-linecap="round" stroke-linejoin="round"/>
    <path d="M 30.883481979370117 124.74248504638672 C 97.78964233398438 145.88031005859375 89.91525268554688 148.22938537597656 28.736900329589844 144.41937255859375" stroke-width="3.0" fill="none" stroke="rgb(0, 0, 0)" stroke-opacity="1.0" stroke-linecap="round" stroke-linejoin="round"/>
    <path d="M 175.83334350585938 143.32257080078125 C 166.38043212890625 100.65262603759766 203.27049255371094 118.57476806640625 182.7335662841797 143.0228729248047" stroke-width="3.0" fill="none" stroke="rgb(0, 0, 0)" stroke-opacity="1.0" stroke-linecap="round" stroke-linejoin="round"/>
    <path d="M 41.50262451171875 137.60304260253906 C 13.241189956665039 93.06442260742188 17.102535247802734 102.52399444580078 83.72493743896484 109.01978302001953" stroke-width="3.0" fill="none" stroke="rgb(0, 0, 0)" stroke-opacity="1.0" stroke-linecap="round" stroke-linejoin="round"/>
    <path d="M 2.217031240463257 137.65090942382812 C 35.445343017578125 196.6136016845703 70.20337677001953 199.4293670654297 88.75350189208984 207.57066345214844" stroke-width="3.0" fill="none" stroke="rgb(0, 0, 0)" stroke-opacity="1.0" stroke-linecap="round" stroke-linejoin="round"/>
    <path d="M 116.92657470703125 130.20779418945312 C 137.64588928222656 154.49734497070312 149.1614990234375 142.1660919189453 117.31404876708984 130.43759155273438" stroke-width="3.0" fill="none" stroke="rgb(0, 0, 0)" stroke-opacity="1.0" stroke-linecap="round" stroke-linejoin="round"/>
    <path d="M 154.0892333984375 108.8262710571289 C 153.45712280273438 112.14588165283203 128.16232299804688 100.40602111816406 182.3924560546875 110.87712860107422" stroke-width="3.0" fill="none" stroke="rgb(0, 0, 0)" stroke-opacity="1.0" stroke-linecap="round" stroke-linejoin="round"/>
    <path d="M 76.0412368774414 107.60540771484375 C 93.90129089355469 121.97130584716797 48.00263977050781 96.31697082519531 61.68537902832031 121.11392211914062" stroke-width="3.0" fill="none" stroke="rgb(0, 0, 0)" stroke-opacity="1.0" stroke-linecap="round" stroke-linejoin="round"/>
    <path d="M 28.875043869018555 105.1577377319336 C 103.88673400878906 118.88314056396484 70.49577331542969 119.18966674804688 90.04489135742188 107.4810562133789" stroke-width="3.0" fill="none" stroke="rgb(0, 0, 0)" stroke-opacity="1.0" stroke-linecap="round" stroke-linejoin="round"/>
    <path d="M 25.08618927001953 50.96980667114258 C 47.23310470581055 26.548688888549805 32.215126037597656 40.50300216674805 56.20595169067383 24.189529418945312" stroke-width="3.0" fill="none" stroke="rgb(0, 0, 0)" stroke-opacity="1.0" stroke-linecap="round" stroke-linejoin="round"/>
    <path d="M 179.74996948242188 138.57382202148438 C 166.94976806640625 137.17662048339844 126.56449890136719 134.53985595703125 117.0906753540039 136.19110107421875" stroke-width="3.0" fill="none" stroke="rgb(0, 0, 0)" stroke-opacity="1.0" stroke-linecap="round" stroke-linejoin="round"/>
    <path d="M 37.29721450805664 126.3628921508789 C 56.44365692138672 133.26353454589844 77.46634674072266 134.8466339111328 25.27507781982422 121.6327133178711" stroke-width="3.0" fill="none" stroke="rgb(0, 0, 0)" stroke-opacity="1.0" stroke-linecap="round" stroke-linejoin="round"/>
    <path d="M 87.63379669189453 88.35834503173828 C 109.66124725341797 73.88318634033203 120.78155517578125 88.82591247558594 119.26533508300781 85.68988037109375" stroke-width="3.0" fill="none" stroke="rgb(0, 0, 0)" stroke-opacity="1.0" stroke-linecap="round" stroke-linejoin="round"/>
    <path d="M 163.4804229736328 96.5625991821289 C 177.94955444335938 92.1368408203125 138.47955322265625 83.51148223876953 133.3445281982422 81.30416870117188" stroke-width="3.0" fill="none" stroke="rgb(0, 0, 0)" stroke-opacity="1.0" stroke-linecap="round" stroke-linejoin="round"/>
  </g>
</svg>
