<?xml version="1.0" ?>
<svg xmlns="http://www.w3.org/2000/svg" version="1.1" width="224" height="224">
  <defs/>
  <g>
    <path d="M 63.342010498046875 106.06596374511719 C 125.36787414550781 91.5363998413086 119.31822204589844 143.10394287109375 103.21757507324219 153.02664184570312" stroke-width="3.0" fill="none" stroke="rgb(0, 0, 0)" stroke-opacity="1.0" stroke-linecap="round" stroke-linejoin="round"/>
    <path d="M 74.19108581542969 132.76280212402344 C 98.9076156616211 157.9654083251953 71.51663970947266 145.3305206298828 75.52890014648438 134.3045196533203" stroke-width="3.0" fill="none" stroke="rgb(0, 0, 0)" stroke-opacity="1.0" stroke-linecap="round" stroke-linejoin="round"/>
    <path d="M 54.798057556152344 138.505859375 C 6.927224159240723 116.54277801513672 11.558767318725586 121.81796264648438 85.5114974975586 128.28578186035156" stroke-width="3.0" fill="none" stroke="rgb(0, 0, 0)" stroke-opacity="1.0" stroke-linecap="round" stroke-linejoin="round"/>
    <path d="M 26.86202621459961 119.2869873046875 C 109.53589630126953 123.75946044921875 76.85040283203125 120.17002868652344 83.23938751220703 124.25526428222656" stroke-width="3.0" fill="none" stroke="rgb(0, 0, 0)" stroke-opacity="1.0" stroke-linecap="round" stroke-linejoin="round"/>
    <path d="M 80.59003448486328 95.26020812988281 C 195.2787628173828 108.1899642944336 182.20407104492188 101.13267517089844 98.41487884521484 86.05187225341797" stroke-width="3.0" fill="none" stroke="rgb(0, 0, 0)" stroke-opacity="1.0" stroke-linecap="round" stroke-linejoin="round"/>
    <path d="M 175.33432006835938 145.47711181640625 C 155.62945556640625 109.65677642822266 220.71986389160156 118.97460174560547 149.60882568359375 111.17912292480469" stroke-width="3.0" fill="none" stroke="rgb(0, 0, 0)" stroke-opacity="1.0" stroke-linecap="round" stroke-linejoin="round"/>
    <path d="M 24.86815643310547 91.90018463134766 C 150.1273193359375 84.38426971435547 145.66998291015625 82.1589584350586 34.45180130004883 95.89227294921875" stroke-width="3.0" fill="none" stroke="rgb(0, 0, 0)" stroke-opacity="1.0" stroke-linecap="round" stroke-linejoin="round"/>
    <path d="M 79.94635009765625 142.4811248779297 C 97.49651336669922 134.77049255371094 74.16654968261719 142.63510131835938 34.864723205566406 139.10305786132812" stroke-width="3.0" fill="none" stroke="rgb(0, 0, 0)" stroke-opacity="1.0" stroke-linecap="round" stroke-linejoin="round"/>
    <path d="M 125.2724609375 210.9249267578125 C 187.22727966308594 193.61834716796875 140.54202270507812 204.2329864501953 176.9095001220703 195.20932006835938" stroke-width="3.0" fill="none" stroke="rgb(0, 0, 0)" stroke-opacity="1.0" stroke-linecap="round" stroke-linejoin="round"/>
    <path d="M 149.8032684326172 106.71052551269531 C 190.44200134277344 109.89382934570312 189.82879638671875 125.54499053955078 191.6239471435547 116.9047622680664" stroke-width="3.0" fill="none" stroke="rgb(0, 0, 0)" stroke-opacity="1.0" stroke-linecap="round" stroke-linejoin="round"/>
    <path d="M 96.48197937011719 103.82238006591797 C 137.04202270507812 114.12476348876953 98.02250671386719 141.64273071289062 137.61215209960938 137.0008544921875" stroke-width="3.0" fill="none" stroke="rgb(0, 0, 0)" stroke-opacity="1.0" stroke-linecap="round" stroke-linejoin="round"/>
    <path d="M 26.019882202148438 101.3458023071289 C 146.66552734375 96.79177856445312 97.33314514160156 112.58744812011719 30.82666778564453 107.72238159179688" stroke-width="3.0" fill="none" stroke="rgb(0, 0, 0)" stroke-opacity="1.0" stroke-linecap="round" stroke-linejoin="round"/>
    <path d="M 192.63809204101562 114.8291244506836 C 138.24337768554688 109.5975341796875 165.70103454589844 113.52584838867188 101.0503158569336 103.27384185791016" stroke-width="3.0" fill="none" stroke="rgb(0, 0, 0)" stroke-opacity="1.0" stroke-linecap="round" stroke-linejoin="round"/>
    <path d="M 63.27485656738281 202.5803680419922 C 87.89384460449219 211.25784301757812 109.95260620117188 213.05905151367188 122.07167053222656 210.2941131591797" stroke-width="3.0" fill="none" stroke="rgb(0, 0, 0)" stroke-opacity="1.0" stroke-linecap="round" stroke-linejoin="round"/>
    <path d="M 174.02767944335938 25.535737991333008 C 191.21311950683594 31.753129959106445 231.87527465820312 79.60589599609375 214.56576538085938 140.5884246826172" stroke-width="3.0" fill="none" stroke="rgb(0, 0, 0)" stroke-opacity="1.0" stroke-linecap="round" stroke-linejoin="round"/>
    <path d="M 100.8698501586914 85.0549087524414 C 138.67625427246094 77.26414489746094 135.1405487060547 75.13347625732422 125.49473571777344 93.24982452392578" stroke-width="3.0" fill="none" stroke="rgb(0, 0, 0)" stroke-opacity="1.0" stroke-linecap="round" stroke-linejoin="round"/>
    <path d="M 73.77862548828125 31.334739685058594 C 96.7284164428711 -16.364641189575195 170.04466247558594 17.132280349731445 187.77532958984375 35.505577087402344" stroke-width="3.0" fill="none" stroke="rgb(0, 0, 0)" stroke-opacity="1.0" stroke-linecap="round" stroke-linejoin="round"/>
    <path d="M 130.21263122558594 140.09043884277344 C 134.5508270263672 159.15560913085938 144.42642211914062 132.29071044921875 134.46505737304688 138.86618041992188" stroke-width="3.0" fill="none" stroke="rgb(0, 0, 0)" stroke-opacity="1.0" stroke-linecap="round" stroke-linejoin="round"/>
    <path d="M 65.58812713623047 131.67698669433594 C 56.81314468383789 139.89573669433594 47.08982849121094 148.08216857910156 37.47734451293945 125.39189147949219" stroke-width="3.0" fill="none" stroke="rgb(0, 0, 0)" stroke-opacity="1.0" stroke-linecap="round" stroke-linejoin="round"/>
    <path d="M 172.7328338623047 141.1199951171875 C 189.81483459472656 164.16458129882812 186.48118591308594 103.43988037109375 180.3926239013672 131.73097229003906" stroke-width="3.0" fill="none" stroke="rgb(0, 0, 0)" stroke-opacity="1.0" stroke-linecap="round" stroke-linejoin="round"/>
    <path d="M 129.17990112304688 208.55270385742188 C 107.08320617675781 210.84620666503906 103.84151458740234 214.81932067871094 134.50042724609375 208.79769897460938" stroke-width="3.0" fill="none" stroke="rgb(0, 0, 0)" stroke-opacity="1.0" stroke-linecap="round" stroke-linejoin="round"/>
    <path d="M 49.541664123535156 143.36134338378906 C 76.25862884521484 136.11151123046875 41.266963958740234 159.5825653076172 32.49915313720703 127.79351806640625" stroke-width="3.0" fill="none" stroke="rgb(0, 0, 0)" stroke-opacity="1.0" stroke-linecap="round" stroke-linejoin="round"/>
    <path d="M 96.52726745605469 90.48574829101562 C 67.46529388427734 87.69227600097656 25.540103912353516 92.30609130859375 93.03195190429688 95.01336669921875" stroke-width="3.0" fill="none" stroke="rgb(0, 0, 0)" stroke-opacity="1.0" stroke-linecap="round" stroke-linejoin="round"/>
    <path d="M 82.83750915527344 103.31918334960938 C 89.33989715576172 97.00837707519531 95.78771209716797 139.2588348388672 45.698299407958984 126.18216705322266" stroke-width="3.0" fill="none" stroke="rgb(0, 0, 0)" stroke-opacity="1.0" stroke-linecap="round" stroke-linejoin="round"/>
    <path d="M 156.7209014892578 94.85148620605469 C 99.46483612060547 78.46097564697266 154.7863311767578 99.89744567871094 155.71856689453125 91.057861328125" stroke-width="3.0" fill="none" stroke="rgb(0, 0, 0)" stroke-opacity="1.0" stroke-linecap="round" stroke-linejoin="round"/>
    <path d="M 96.09638977050781 122.20978546142578 C 69.64791107177734 149.65086364746094 113.85723876953125 159.89114379882812 77.78543090820312 141.67633056640625" stroke-width="3.0" fill="none" stroke="rgb(0, 0, 0)" stroke-opacity="1.0" stroke-linecap="round" stroke-linejoin="round"/>
    <path d="M 28.468347549438477 51.6153678894043 C 17.666776657104492 62.66767883300781 0.576296329498291 102.85755157470703 7.625171661376953 128.4407196044922" stroke-width="3.0" fill="none" stroke="rgb(0, 0, 0)" stroke-opacity="1.0" stroke-linecap="round" stroke-linejoin="round"/>
    <path d="M 177.19244384765625 193.03350830078125 C 192.7628173828125 178.8482208251953 222.1959228515625 151.70399475097656 217.71600341796875 109.79326629638672" stroke-width="3.0" fill="none" stroke="rgb(0, 0, 0)" stroke-opacity="1.0" stroke-linecap="round" stroke-linejoin="round"/>
    <path d="M 143.60882568359375 110.4622802734375 C 211.81179809570312 121.88724517822266 200.86917114257812 110.85498809814453 162.13829040527344 102.25508880615234" stroke-width="3.0" fill="none" stroke="rgb(0, 0, 0)" stroke-opacity="1.0" stroke-linecap="round" stroke-linejoin="round"/>
    <path d="M 136.99954223632812 89.5426025390625 C 244.44703674316406 127.82727813720703 167.12203979492188 98.8011703491211 176.78756713867188 139.9056854248047" stroke-width="3.0" fill="none" stroke="rgb(0, 0, 0)" stroke-opacity="1.0" stroke-linecap="round" stroke-linejoin="round"/>
    <path d="M 143.75698852539062 99.35222625732422 C 132.26910400390625 86.99370574951172 115.52491760253906 109.04969024658203 130.09234619140625 83.93663787841797" stroke-width="3.0" fill="none" stroke="rgb(0, 0, 0)" stroke-opacity="1.0" stroke-linecap="round" stroke-linejoin="round"/>
    <path d="M 80.6858139038086 148.52024841308594 C 128.71009826660156 160.72718811035156 97.95722198486328 77.59430694580078 85.21123504638672 133.8568572998047" stroke-width="3.0" fill="none" stroke="rgb(0, 0, 0)" stroke-opacity="1.0" stroke-linecap="round" stroke-linejoin="round"/>
    <path d="M 181.7931365966797 116.95246887207031 C 198.50750732421875 102.09874725341797 183.6954803466797 133.40252685546875 186.6448516845703 114.97283935546875" stroke-width="3.0" fill="none" stroke="rgb(0, 0, 0)" stroke-opacity="1.0" stroke-linecap="round" stroke-linejoin="round"/>
    <path d="M 134.57928466796875 97.55450439453125 C 105.78028106689453 101.28050231933594 189.68141174316406 109.66710662841797 136.10684204101562 97.51993560791016" stroke-width="3.0" fill="none" stroke="rgb(0, 0, 0)" stroke-opacity="1.0" stroke-linecap="round" stroke-linejoin="round"/>
    <path d="M 56.67479705810547 17.554428100585938 C 91.65956115722656 -7.427684307098389 89.02298736572266 -4.175186634063721 59.13868713378906 14.706920623779297" stroke-width="3.0" fill="none" stroke="rgb(0, 0, 0)" stroke-opacity="1.0" stroke-linecap="round" stroke-linejoin="round"/>
    <path d="M 38.37445831298828 124.00748443603516 C 110.31303405761719 133.99002075195312 94.19650268554688 161.955810546875 32.426395416259766 142.322265625" stroke-width="3.0" fill="none" stroke="rgb(0, 0, 0)" stroke-opacity="1.0" stroke-linecap="round" stroke-linejoin="round"/>
    <path d="M 177.70523071289062 143.54600524902344 C 162.2716064453125 100.51122283935547 207.2904815673828 113.93010711669922 182.1259765625 144.99734497070312" stroke-width="3.0" fill="none" stroke="rgb(0, 0, 0)" stroke-opacity="1.0" stroke-linecap="round" stroke-linejoin="round"/>
    <path d="M 57.50648498535156 129.48995971679688 C -0.06916597485542297 125.89717102050781 23.650463104248047 90.0299072265625 85.84342193603516 105.30816650390625" stroke-width="3.0" fill="none" stroke="rgb(0, 0, 0)" stroke-opacity="1.0" stroke-linecap="round" stroke-linejoin="round"/>
    <path d="M 5.578841686248779 119.46121215820312 C 15.874484062194824 190.62867736816406 75.75605773925781 214.52833557128906 101.2090835571289 211.7538299560547" stroke-width="3.0" fill="none" stroke="rgb(0, 0, 0)" stroke-opacity="1.0" stroke-linecap="round" stroke-linejoin="round"/>
    <path d="M 94.589111328125 152.78414916992188 C 143.9037628173828 152.726806640625 146.52291870117188 152.50704956054688 114.85881042480469 156.38296508789062" stroke-width="3.0" fill="none" stroke="rgb(0, 0, 0)" stroke-opacity="1.0" stroke-linecap="round" stroke-linejoin="round"/>
    <path d="M 157.64724731445312 112.09223937988281 C 149.76942443847656 113.68412780761719 125.95854949951172 104.66284942626953 191.1970977783203 113.94734191894531" stroke-width="3.0" fill="none" stroke="rgb(0, 0, 0)" stroke-opacity="1.0" stroke-linecap="round" stroke-linejoin="round"/>
    <path d="M 50.471683502197266 96.23623657226562 C 73.68608856201172 119.01740264892578 40.79376983642578 89.39178466796875 44.66157913208008 116.342041015625" stroke-width="3.0" fill="none" stroke="rgb(0, 0, 0)" stroke-opacity="1.0" stroke-linecap="round" stroke-linejoin="round"/>
    <path d="M 26.245609283447266 105.91314697265625 C 109.55709075927734 115.39501190185547 75.47989654541016 115.09015655517578 95.92727661132812 102.05017852783203" stroke-width="3.0" fill="none" stroke="rgb(0, 0, 0)" stroke-opacity="1.0" stroke-linecap="round" stroke-linejoin="round"/>
    <path d="M 28.881927490234375 49.2848014831543 C 45.020938873291016 24.691701889038086 41.37445068359375 26.641132354736328 65.81083679199219 9.19660758972168" stroke-width="3.0" fill="none" stroke="rgb(0, 0, 0)" stroke-opacity="1.0" stroke-linecap="round" stroke-linejoin="round"/>
    <path d="M 180.34222412109375 139.9149627685547 C 167.95068359375 145.05532836914062 88.7059326171875 143.0529022216797 119.43396759033203 137.00880432128906" stroke-width="3.0" fill="none" stroke="rgb(0, 0, 0)" stroke-opacity="1.0" stroke-linecap="round" stroke-linejoin="round"/>
    <path d="M 40.837493896484375 138.18333435058594 C 91.33016204833984 141.18466186523438 130.52093505859375 131.4742431640625 42.474449157714844 136.66929626464844" stroke-width="3.0" fill="none" stroke="rgb(0, 0, 0)" stroke-opacity="1.0" stroke-linecap="round" stroke-linejoin="round"/>
    <path d="M 101.64374542236328 89.10205078125 C 97.65119171142578 80.60375213623047 118.91899108886719 82.15126037597656 123.64339447021484 83.27444458007812" stroke-width="3.0" fill="none" stroke="rgb(0, 0, 0)" stroke-opacity="1.0" stroke-linecap="round" stroke-linejoin="round"/>
    <path d="M 165.01248168945312 100.15901947021484 C 174.70779418945312 94.00361633300781 136.76153564453125 74.771484375 111.38330078125 80.32467651367188" stroke-width="3.0" fill="none" stroke="rgb(0, 0, 0)" stroke-opacity="1.0" stroke-linecap="round" stroke-linejoin="round"/>
  </g>
</svg>
