<?xml version="1.0" ?>
<svg xmlns="http://www.w3.org/2000/svg" version="1.1" width="224" height="224">
  <defs/>
  <g>
    <path d="M 76.536865234375 108.3404541015625 C 121.37434387207031 91.91279602050781 122.70753479003906 133.89385986328125 116.73994445800781 147.29737854003906" stroke-width="3.0" fill="none" stroke="rgb(0, 0, 0)" stroke-opacity="1.0" stroke-linecap="round" stroke-linejoin="round"/>
    <path d="M 79.21023559570312 131.36512756347656 C 104.59910583496094 154.11402893066406 75.57121276855469 153.30203247070312 80.00078582763672 128.2041473388672" stroke-width="3.0" fill="none" stroke="rgb(0, 0, 0)" stroke-opacity="1.0" stroke-linecap="round" stroke-linejoin="round"/>
    <path d="M 48.57193374633789 129.03665161132812 C -7.710519313812256 123.03165435791016 6.756596565246582 123.74832153320312 86.67549896240234 124.85712432861328" stroke-width="3.0" fill="none" stroke="rgb(0, 0, 0)" stroke-opacity="1.0" stroke-linecap="round" stroke-linejoin="round"/>
    <path d="M 21.328901290893555 110.4716567993164 C 101.13957977294922 118.57807922363281 84.18544006347656 113.75006866455078 81.2398452758789 118.4082260131836" stroke-width="3.0" fill="none" stroke="rgb(0, 0, 0)" stroke-opacity="1.0" stroke-linecap="round" stroke-linejoin="round"/>
    <path d="M 102.2773666381836 96.86737060546875 C 190.6444549560547 115.79869842529297 177.75762939453125 107.0169906616211 110.97457122802734 94.62661743164062" stroke-width="3.0" fill="none" stroke="rgb(0, 0, 0)" stroke-opacity="1.0" stroke-linecap="round" stroke-linejoin="round"/>
    <path d="M 173.0056610107422 145.79110717773438 C 167.3189239501953 101.03961944580078 208.30587768554688 115.23429107666016 148.73880004882812 102.33253479003906" stroke-width="3.0" fill="none" stroke="rgb(0, 0, 0)" stroke-opacity="1.0" stroke-linecap="round" stroke-linejoin="round"/>
    <path d="M 37.648704528808594 99.87503051757812 C 135.1519012451172 98.43306732177734 127.38749694824219 92.6664810180664 45.18168258666992 95.0645523071289" stroke-width="3.0" fill="none" stroke="rgb(0, 0, 0)" stroke-opacity="1.0" stroke-linecap="round" stroke-linejoin="round"/>
    <path d="M 62.75021743774414 138.4220428466797 C 104.13462829589844 134.57913208007812 87.48283386230469 138.1281280517578 36.53190612792969 126.23892211914062" stroke-width="3.0" fill="none" stroke="rgb(0, 0, 0)" stroke-opacity="1.0" stroke-linecap="round" stroke-linejoin="round"/>
    <path d="M 122.83642578125 209.51747131347656 C 195.49537658691406 191.93524169921875 146.80609130859375 201.7210235595703 175.3531494140625 195.38291931152344" stroke-width="3.0" fill="none" stroke="rgb(0, 0, 0)" stroke-opacity="1.0" stroke-linecap="round" stroke-linejoin="round"/>
    <path d="M 143.8529510498047 109.85869598388672 C 177.9763641357422 112.89631652832031 185.62713623046875 123.71940612792969 196.8513946533203 113.21367645263672" stroke-width="3.0" fill="none" stroke="rgb(0, 0, 0)" stroke-opacity="1.0" stroke-linecap="round" stroke-linejoin="round"/>
    <path d="M 101.73402404785156 105.8355484008789 C 127.73484802246094 97.49179077148438 115.68175506591797 144.5137939453125 138.70823669433594 135.07406616210938" stroke-width="3.0" fill="none" stroke="rgb(0, 0, 0)" stroke-opacity="1.0" stroke-linecap="round" stroke-linejoin="round"/>
    <path d="M 13.25187873840332 106.94559478759766 C 126.71015930175781 103.243408203125 94.53118133544922 115.55982208251953 25.578227996826172 111.53777313232422" stroke-width="3.0" fill="none" stroke="rgb(0, 0, 0)" stroke-opacity="1.0" stroke-linecap="round" stroke-linejoin="round"/>
    <path d="M 177.0647430419922 114.86620330810547 C 124.81089782714844 107.68964385986328 160.44325256347656 112.6726303100586 117.92019653320312 105.81206512451172" stroke-width="3.0" fill="none" stroke="rgb(0, 0, 0)" stroke-opacity="1.0" stroke-linecap="round" stroke-linejoin="round"/>
    <path d="M 78.37965393066406 205.21615600585938 C 88.61062622070312 208.49041748046875 107.98469543457031 209.9049072265625 114.48362731933594 210.818359375" stroke-width="3.0" fill="none" stroke="rgb(0, 0, 0)" stroke-opacity="1.0" stroke-linecap="round" stroke-linejoin="round"/>
    <path d="M 173.781494140625 25.095867156982422 C 187.4772491455078 35.09497833251953 227.004638671875 76.47398376464844 214.34344482421875 134.7928009033203" stroke-width="3.0" fill="none" stroke="rgb(0, 0, 0)" stroke-opacity="1.0" stroke-linecap="round" stroke-linejoin="round"/>
    <path d="M 109.47734069824219 82.66867065429688 C 140.6704864501953 80.57261657714844 134.46546936035156 78.3797836303711 125.05766296386719 95.81116485595703" stroke-width="3.0" fill="none" stroke="rgb(0, 0, 0)" stroke-opacity="1.0" stroke-linecap="round" stroke-linejoin="round"/>
    <path d="M 63.21043395996094 24.091291427612305 C 120.36666107177734 -12.111302375793457 166.6806182861328 16.710891723632812 189.22177124023438 37.20644760131836" stroke-width="3.0" fill="none" stroke="rgb(0, 0, 0)" stroke-opacity="1.0" stroke-linecap="round" stroke-linejoin="round"/>
    <path d="M 131.95835876464844 139.04754638671875 C 136.4927215576172 158.07325744628906 150.6824188232422 128.92672729492188 144.96083068847656 137.8624267578125" stroke-width="3.0" fill="none" stroke="rgb(0, 0, 0)" stroke-opacity="1.0" stroke-linecap="round" stroke-linejoin="round"/>
    <path d="M 62.49510192871094 130.8741912841797 C 55.084373474121094 140.09181213378906 66.00714874267578 150.58346557617188 13.31060791015625 130.71636962890625" stroke-width="3.0" fill="none" stroke="rgb(0, 0, 0)" stroke-opacity="1.0" stroke-linecap="round" stroke-linejoin="round"/>
    <path d="M 168.39051818847656 141.7587432861328 C 188.5819091796875 166.12046813964844 182.58132934570312 105.68991088867188 179.3428497314453 132.9658203125" stroke-width="3.0" fill="none" stroke="rgb(0, 0, 0)" stroke-opacity="1.0" stroke-linecap="round" stroke-linejoin="round"/>
    <path d="M 137.8734588623047 207.33082580566406 C 107.19944763183594 210.4933319091797 101.53197479248047 211.92620849609375 132.48770141601562 209.63287353515625" stroke-width="3.0" fill="none" stroke="rgb(0, 0, 0)" stroke-opacity="1.0" stroke-linecap="round" stroke-linejoin="round"/>
    <path d="M 59.372928619384766 144.27566528320312 C 83.05022430419922 140.6415252685547 52.917823791503906 159.9998016357422 13.877732276916504 136.49891662597656" stroke-width="3.0" fill="none" stroke="rgb(0, 0, 0)" stroke-opacity="1.0" stroke-linecap="round" stroke-linejoin="round"/>
    <path d="M 91.83023071289062 89.88409423828125 C 44.764434814453125 88.41413879394531 -7.143375396728516 95.24640655517578 68.39423370361328 95.32275390625" stroke-width="3.0" fill="none" stroke="rgb(0, 0, 0)" stroke-opacity="1.0" stroke-linecap="round" stroke-linejoin="round"/>
    <path d="M 75.59478759765625 102.45117950439453 C 69.48902893066406 114.42758178710938 90.65469360351562 113.52202606201172 55.19137191772461 114.5755844116211" stroke-width="3.0" fill="none" stroke="rgb(0, 0, 0)" stroke-opacity="1.0" stroke-linecap="round" stroke-linejoin="round"/>
    <path d="M 158.3585662841797 95.15311431884766 C 116.7545394897461 78.13338470458984 157.45082092285156 102.78057861328125 155.51779174804688 95.29916381835938" stroke-width="3.0" fill="none" stroke="rgb(0, 0, 0)" stroke-opacity="1.0" stroke-linecap="round" stroke-linejoin="round"/>
    <path d="M 98.55945587158203 120.00860595703125 C 73.63093566894531 137.68966674804688 108.68083190917969 170.21414184570312 81.53228759765625 136.49476623535156" stroke-width="3.0" fill="none" stroke="rgb(0, 0, 0)" stroke-opacity="1.0" stroke-linecap="round" stroke-linejoin="round"/>
    <path d="M 24.4619083404541 46.61506271362305 C 15.796737670898438 65.07803344726562 0.02469991147518158 86.89361572265625 7.553520679473877 128.88987731933594" stroke-width="3.0" fill="none" stroke="rgb(0, 0, 0)" stroke-opacity="1.0" stroke-linecap="round" stroke-linejoin="round"/>
    <path d="M 178.20103454589844 194.3628387451172 C 191.34451293945312 176.00701904296875 217.8284912109375 151.22018432617188 215.02813720703125 119.95978546142578" stroke-width="3.0" fill="none" stroke="rgb(0, 0, 0)" stroke-opacity="1.0" stroke-linecap="round" stroke-linejoin="round"/>
    <path d="M 142.23248291015625 108.99604034423828 C 209.15940856933594 120.86164093017578 202.69854736328125 113.28251647949219 147.1612548828125 109.72080993652344" stroke-width="3.0" fill="none" stroke="rgb(0, 0, 0)" stroke-opacity="1.0" stroke-linecap="round" stroke-linejoin="round"/>
    <path d="M 142.43551635742188 95.44346618652344 C 232.82334899902344 119.29354858398438 166.9708709716797 100.29949951171875 170.33140563964844 139.13565063476562" stroke-width="3.0" fill="none" stroke="rgb(0, 0, 0)" stroke-opacity="1.0" stroke-linecap="round" stroke-linejoin="round"/>
    <path d="M 152.20693969726562 95.31342315673828 C 140.75039672851562 88.1102294921875 137.2188720703125 108.15701293945312 140.2921600341797 84.81507110595703" stroke-width="3.0" fill="none" stroke="rgb(0, 0, 0)" stroke-opacity="1.0" stroke-linecap="round" stroke-linejoin="round"/>
    <path d="M 85.11123657226562 150.51138305664062 C 132.24606323242188 166.92611694335938 109.83606719970703 77.39356994628906 85.02847290039062 124.28807067871094" stroke-width="3.0" fill="none" stroke="rgb(0, 0, 0)" stroke-opacity="1.0" stroke-linecap="round" stroke-linejoin="round"/>
    <path d="M 186.97604370117188 118.02120208740234 C 203.34645080566406 101.27667236328125 188.50588989257812 132.3681182861328 188.7792205810547 114.95962524414062" stroke-width="3.0" fill="none" stroke="rgb(0, 0, 0)" stroke-opacity="1.0" stroke-linecap="round" stroke-linejoin="round"/>
    <path d="M 135.82968139648438 100.1924819946289 C 104.63898468017578 96.67646789550781 186.0935821533203 114.60906219482422 143.0740203857422 101.07978057861328" stroke-width="3.0" fill="none" stroke="rgb(0, 0, 0)" stroke-opacity="1.0" stroke-linecap="round" stroke-linejoin="round"/>
    <path d="M 58.297603607177734 27.194114685058594 C 103.32638549804688 10.203025817871094 89.08184051513672 7.253425598144531 60.850406646728516 20.413694381713867" stroke-width="3.0" fill="none" stroke="rgb(0, 0, 0)" stroke-opacity="1.0" stroke-linecap="round" stroke-linejoin="round"/>
    <path d="M 25.874313354492188 126.45659637451172 C 108.11907196044922 141.9541778564453 95.12577056884766 152.24729919433594 31.534421920776367 144.5497589111328" stroke-width="3.0" fill="none" stroke="rgb(0, 0, 0)" stroke-opacity="1.0" stroke-linecap="round" stroke-linejoin="round"/>
    <path d="M 177.38580322265625 145.24253845214844 C 160.7749481201172 105.37859344482422 199.0774383544922 117.99305725097656 181.7757110595703 142.41639709472656" stroke-width="3.0" fill="none" stroke="rgb(0, 0, 0)" stroke-opacity="1.0" stroke-linecap="round" stroke-linejoin="round"/>
    <path d="M 45.13274383544922 139.2926483154297 C -1.0313547849655151 105.30821990966797 15.504810333251953 96.64986419677734 80.7669448852539 106.26919555664062" stroke-width="3.0" fill="none" stroke="rgb(0, 0, 0)" stroke-opacity="1.0" stroke-linecap="round" stroke-linejoin="round"/>
    <path d="M 6.518344879150391 127.29319763183594 C 19.429920196533203 189.94383239746094 77.43667602539062 210.04165649414062 101.79906463623047 209.152099609375" stroke-width="3.0" fill="none" stroke="rgb(0, 0, 0)" stroke-opacity="1.0" stroke-linecap="round" stroke-linejoin="round"/>
    <path d="M 117.00037384033203 143.85618591308594 C 139.84976196289062 144.34046936035156 146.9539031982422 144.35748291015625 120.468505859375 133.43919372558594" stroke-width="3.0" fill="none" stroke="rgb(0, 0, 0)" stroke-opacity="1.0" stroke-linecap="round" stroke-linejoin="round"/>
    <path d="M 154.76873779296875 107.81560516357422 C 152.8155517578125 112.81336212158203 129.29925537109375 101.8849105834961 191.75489807128906 111.71614074707031" stroke-width="3.0" fill="none" stroke="rgb(0, 0, 0)" stroke-opacity="1.0" stroke-linecap="round" stroke-linejoin="round"/>
    <path d="M 64.34858703613281 107.54847717285156 C 82.98338317871094 127.40251159667969 32.51816177368164 91.65998840332031 37.95197677612305 116.13822937011719" stroke-width="3.0" fill="none" stroke="rgb(0, 0, 0)" stroke-opacity="1.0" stroke-linecap="round" stroke-linejoin="round"/>
    <path d="M 28.780864715576172 96.85856628417969 C 112.6050033569336 113.33609008789062 74.3814468383789 122.057373046875 94.65790557861328 105.47267150878906" stroke-width="3.0" fill="none" stroke="rgb(0, 0, 0)" stroke-opacity="1.0" stroke-linecap="round" stroke-linejoin="round"/>
    <path d="M 26.956384658813477 45.30254364013672 C 48.48584747314453 27.010108947753906 36.939876556396484 35.56141662597656 60.02970504760742 21.70118522644043" stroke-width="3.0" fill="none" stroke="rgb(0, 0, 0)" stroke-opacity="1.0" stroke-linecap="round" stroke-linejoin="round"/>
    <path d="M 183.7258758544922 138.92062377929688 C 159.60089111328125 142.9670867919922 116.45186614990234 138.06683349609375 118.95700073242188 132.8201446533203" stroke-width="3.0" fill="none" stroke="rgb(0, 0, 0)" stroke-opacity="1.0" stroke-linecap="round" stroke-linejoin="round"/>
    <path d="M 34.86848831176758 131.6330108642578 C 77.47593688964844 128.78933715820312 102.49761199951172 131.05029296875 27.9135799407959 127.27511596679688" stroke-width="3.0" fill="none" stroke="rgb(0, 0, 0)" stroke-opacity="1.0" stroke-linecap="round" stroke-linejoin="round"/>
    <path d="M 90.2876205444336 90.34719848632812 C 109.470703125 76.02959442138672 117.10897064208984 80.589599609375 129.07125854492188 81.31301879882812" stroke-width="3.0" fill="none" stroke="rgb(0, 0, 0)" stroke-opacity="1.0" stroke-linecap="round" stroke-linejoin="round"/>
    <path d="M 164.8640899658203 100.1385269165039 C 177.7976837158203 93.0551528930664 134.83885192871094 79.03245544433594 125.17642974853516 80.80172729492188" stroke-width="3.0" fill="none" stroke="rgb(0, 0, 0)" stroke-opacity="1.0" stroke-linecap="round" stroke-linejoin="round"/>
  </g>
</svg>
