<?xml version="1.0" ?>
<svg xmlns="http://www.w3.org/2000/svg" version="1.1" width="224" height="224">
  <defs/>
  <g>
    <path d="M 74.49761962890625 113.788330078125 C 124.64395904541016 79.90328216552734 121.58885192871094 168.74465942382812 86.2726058959961 146.1372528076172" stroke-width="3.0" fill="none" stroke="rgb(0, 0, 0)" stroke-opacity="1.0" stroke-linecap="round" stroke-linejoin="round"/>
    <path d="M 89.8125228881836 125.66905212402344 C 107.6448745727539 163.4239959716797 84.76478576660156 135.13563537597656 66.33000946044922 137.2010040283203" stroke-width="3.0" fill="none" stroke="rgb(0, 0, 0)" stroke-opacity="1.0" stroke-linecap="round" stroke-linejoin="round"/>
    <path d="M 75.54840087890625 141.07276916503906 C 49.63340759277344 142.34043884277344 60.565120697021484 144.29449462890625 85.5545654296875 140.76051330566406" stroke-width="3.0" fill="none" stroke="rgb(0, 0, 0)" stroke-opacity="1.0" stroke-linecap="round" stroke-linejoin="round"/>
    <path d="M 30.982479095458984 119.56855010986328 C 129.1311492919922 129.1507110595703 69.47611999511719 140.25347900390625 100.2669448852539 140.27415466308594" stroke-width="3.0" fill="none" stroke="rgb(0, 0, 0)" stroke-opacity="1.0" stroke-linecap="round" stroke-linejoin="round"/>
    <path d="M 134.32240295410156 82.91362762451172 C 184.66546630859375 105.77882385253906 195.8783721923828 120.57640838623047 148.24472045898438 91.2678451538086" stroke-width="3.0" fill="none" stroke="rgb(0, 0, 0)" stroke-opacity="1.0" stroke-linecap="round" stroke-linejoin="round"/>
    <path d="M 170.21214294433594 146.3800506591797 C 163.71876525878906 102.62093353271484 208.5098419189453 133.7171630859375 113.49009704589844 108.21930694580078" stroke-width="3.0" fill="none" stroke="rgb(0, 0, 0)" stroke-opacity="1.0" stroke-linecap="round" stroke-linejoin="round"/>
    <path d="M 41.61598205566406 103.55916595458984 C 262.70147705078125 120.20146942138672 163.7718505859375 85.10832214355469 31.60687255859375 94.97256469726562" stroke-width="3.0" fill="none" stroke="rgb(0, 0, 0)" stroke-opacity="1.0" stroke-linecap="round" stroke-linejoin="round"/>
    <path d="M 98.64368438720703 130.99794006347656 C 105.0335922241211 102.07456970214844 75.68982696533203 147.90185546875 54.77055740356445 129.3376922607422" stroke-width="3.0" fill="none" stroke="rgb(0, 0, 0)" stroke-opacity="1.0" stroke-linecap="round" stroke-linejoin="round"/>
    <path d="M 118.04544067382812 217.0625762939453 C 162.99412536621094 207.9146270751953 175.54920959472656 194.28546142578125 182.8019256591797 188.78941345214844" stroke-width="3.0" fill="none" stroke="rgb(0, 0, 0)" stroke-opacity="1.0" stroke-linecap="round" stroke-linejoin="round"/>
    <path d="M 142.0091552734375 105.94317626953125 C 218.83482360839844 111.64457702636719 189.96278381347656 127.55271911621094 196.3408660888672 109.24717712402344" stroke-width="3.0" fill="none" stroke="rgb(0, 0, 0)" stroke-opacity="1.0" stroke-linecap="round" stroke-linejoin="round"/>
    <path d="M 109.66960906982422 109.13896179199219 C 129.92037963867188 145.4879150390625 72.95091247558594 139.12197875976562 169.9405517578125 135.52622985839844" stroke-width="3.0" fill="none" stroke="rgb(0, 0, 0)" stroke-opacity="1.0" stroke-linecap="round" stroke-linejoin="round"/>
    <path d="M 29.82196617126465 98.92872619628906 C 114.4389419555664 104.86672973632812 83.30054473876953 122.33697509765625 28.78896141052246 116.87539672851562" stroke-width="3.0" fill="none" stroke="rgb(0, 0, 0)" stroke-opacity="1.0" stroke-linecap="round" stroke-linejoin="round"/>
    <path d="M 178.92005920410156 101.41545104980469 C 149.02696228027344 107.85015106201172 167.30197143554688 102.1814193725586 65.19385528564453 99.74609375" stroke-width="3.0" fill="none" stroke="rgb(0, 0, 0)" stroke-opacity="1.0" stroke-linecap="round" stroke-linejoin="round"/>
    <path d="M 26.137548446655273 162.25633239746094 C 71.70752716064453 224.92190551757812 121.4122085571289 214.68096923828125 166.07127380371094 198.09268188476562" stroke-width="3.0" fill="none" stroke="rgb(0, 0, 0)" stroke-opacity="1.0" stroke-linecap="round" stroke-linejoin="round"/>
    <path d="M 179.3248748779297 29.097640991210938 C 188.17355346679688 37.8495979309082 229.5034942626953 79.08719635009766 212.40866088867188 138.40460205078125" stroke-width="3.0" fill="none" stroke="rgb(0, 0, 0)" stroke-opacity="1.0" stroke-linecap="round" stroke-linejoin="round"/>
    <path d="M 94.88298797607422 93.44515228271484 C 127.20599365234375 67.19476318359375 169.0184326171875 96.56952667236328 145.0645751953125 85.10645294189453" stroke-width="3.0" fill="none" stroke="rgb(0, 0, 0)" stroke-opacity="1.0" stroke-linecap="round" stroke-linejoin="round"/>
    <path d="M 68.79361724853516 37.30690383911133 C 80.41059875488281 -18.025548934936523 169.74041748046875 8.994218826293945 193.58892822265625 47.152103424072266" stroke-width="3.0" fill="none" stroke="rgb(0, 0, 0)" stroke-opacity="1.0" stroke-linecap="round" stroke-linejoin="round"/>
    <path d="M 108.63196563720703 152.63539123535156 C 166.44432067871094 144.53152465820312 205.20498657226562 147.90341186523438 106.00331115722656 143.5113067626953" stroke-width="3.0" fill="none" stroke="rgb(0, 0, 0)" stroke-opacity="1.0" stroke-linecap="round" stroke-linejoin="round"/>
    <path d="M 62.732421875 126.07967376708984 C 72.56338500976562 141.18910217285156 30.94508171081543 159.61936950683594 48.89814376831055 112.1105728149414" stroke-width="3.0" fill="none" stroke="rgb(0, 0, 0)" stroke-opacity="1.0" stroke-linecap="round" stroke-linejoin="round"/>
    <path d="M 176.23191833496094 146.81321716308594 C 203.92198181152344 145.29098510742188 172.93148803710938 99.06588745117188 178.4168701171875 137.8307342529297" stroke-width="3.0" fill="none" stroke="rgb(0, 0, 0)" stroke-opacity="1.0" stroke-linecap="round" stroke-linejoin="round"/>
    <path d="M 186.02865600585938 182.75155639648438 C 170.04473876953125 188.65304565429688 184.04225158691406 187.46311950683594 170.11444091796875 191.06846618652344" stroke-width="3.0" fill="none" stroke="rgb(0, 0, 0)" stroke-opacity="1.0" stroke-linecap="round" stroke-linejoin="round"/>
    <path d="M 61.727603912353516 124.45183563232422 C 112.95628356933594 129.49514770507812 67.56330871582031 142.94406127929688 46.5522346496582 128.8756866455078" stroke-width="3.0" fill="none" stroke="rgb(0, 0, 0)" stroke-opacity="1.0" stroke-linecap="round" stroke-linejoin="round"/>
    <path d="M 119.18944549560547 83.45734405517578 C 114.41542053222656 91.19570922851562 81.93002319335938 93.71778106689453 118.50810241699219 83.17082977294922" stroke-width="3.0" fill="none" stroke="rgb(0, 0, 0)" stroke-opacity="1.0" stroke-linecap="round" stroke-linejoin="round"/>
    <path d="M 51.94831085205078 114.14413452148438 C 88.26103973388672 119.12808227539062 129.415283203125 139.5170440673828 31.564598083496094 124.94235229492188" stroke-width="3.0" fill="none" stroke="rgb(0, 0, 0)" stroke-opacity="1.0" stroke-linecap="round" stroke-linejoin="round"/>
    <path d="M 155.15762329101562 121.10304260253906 C 45.23054885864258 121.68496704101562 171.33782958984375 113.40516662597656 170.03680419921875 107.18718719482422" stroke-width="3.0" fill="none" stroke="rgb(0, 0, 0)" stroke-opacity="1.0" stroke-linecap="round" stroke-linejoin="round"/>
    <path d="M 89.77590942382812 107.05572509765625 C 57.708885192871094 143.16336059570312 110.75496673583984 160.88133239746094 84.28974151611328 146.25120544433594" stroke-width="3.0" fill="none" stroke="rgb(0, 0, 0)" stroke-opacity="1.0" stroke-linecap="round" stroke-linejoin="round"/>
    <path d="M 25.68683433532715 48.88265609741211 C 19.708417892456055 63.823726654052734 -2.7681386470794678 93.7827377319336 10.88547420501709 138.61007690429688" stroke-width="3.0" fill="none" stroke="rgb(0, 0, 0)" stroke-opacity="1.0" stroke-linecap="round" stroke-linejoin="round"/>
    <path d="M 181.1668701171875 189.29519653320312 C 189.1169891357422 184.9037322998047 227.2025604248047 138.884765625 217.01388549804688 99.27101135253906" stroke-width="3.0" fill="none" stroke="rgb(0, 0, 0)" stroke-opacity="1.0" stroke-linecap="round" stroke-linejoin="round"/>
    <path d="M 129.9415283203125 99.09284210205078 C 228.22569274902344 109.67887878417969 198.21405029296875 111.82487487792969 171.13084411621094 104.23551940917969" stroke-width="3.0" fill="none" stroke="rgb(0, 0, 0)" stroke-opacity="1.0" stroke-linecap="round" stroke-linejoin="round"/>
    <path d="M 135.8017578125 87.68159484863281 C 251.44337463378906 118.80726623535156 145.27684020996094 101.92526245117188 175.84771728515625 146.9998779296875" stroke-width="3.0" fill="none" stroke="rgb(0, 0, 0)" stroke-opacity="1.0" stroke-linecap="round" stroke-linejoin="round"/>
    <path d="M 157.4973907470703 109.6842269897461 C 135.85113525390625 53.71646499633789 118.39825439453125 129.44271850585938 134.5272979736328 85.5855941772461" stroke-width="3.0" fill="none" stroke="rgb(0, 0, 0)" stroke-opacity="1.0" stroke-linecap="round" stroke-linejoin="round"/>
    <path d="M 64.96510314941406 139.58802795410156 C 143.1060333251953 163.29379272460938 88.37809753417969 74.95734405517578 88.38982391357422 136.55825805664062" stroke-width="3.0" fill="none" stroke="rgb(0, 0, 0)" stroke-opacity="1.0" stroke-linecap="round" stroke-linejoin="round"/>
    <path d="M 160.94271850585938 106.45121765136719 C 181.82296752929688 84.26062774658203 202.94166564941406 138.39572143554688 180.79994201660156 145.46151733398438" stroke-width="3.0" fill="none" stroke="rgb(0, 0, 0)" stroke-opacity="1.0" stroke-linecap="round" stroke-linejoin="round"/>
    <path d="M 79.75843048095703 98.8304443359375 C 76.01298522949219 97.17671203613281 192.01539611816406 102.53203582763672 158.69046020507812 111.22975158691406" stroke-width="3.0" fill="none" stroke="rgb(0, 0, 0)" stroke-opacity="1.0" stroke-linecap="round" stroke-linejoin="round"/>
    <path d="M 59.25080108642578 12.342100143432617 C 95.77426147460938 -14.944199562072754 105.23536682128906 -11.968130111694336 67.80193328857422 5.160521507263184" stroke-width="3.0" fill="none" stroke="rgb(0, 0, 0)" stroke-opacity="1.0" stroke-linecap="round" stroke-linejoin="round"/>
    <path d="M 32.74696731567383 126.55901336669922 C 95.54127502441406 139.2536163330078 100.3013687133789 150.6238250732422 28.960119247436523 144.89382934570312" stroke-width="3.0" fill="none" stroke="rgb(0, 0, 0)" stroke-opacity="1.0" stroke-linecap="round" stroke-linejoin="round"/>
    <path d="M 182.05859375 132.73109436035156 C 152.15850830078125 107.00534057617188 205.3848114013672 120.60494995117188 190.74627685546875 122.29633331298828" stroke-width="3.0" fill="none" stroke="rgb(0, 0, 0)" stroke-opacity="1.0" stroke-linecap="round" stroke-linejoin="round"/>
    <path d="M 67.9293441772461 125.37958526611328 C 5.580316066741943 134.4387969970703 22.982345581054688 87.57846069335938 68.04137420654297 101.62303924560547" stroke-width="3.0" fill="none" stroke="rgb(0, 0, 0)" stroke-opacity="1.0" stroke-linecap="round" stroke-linejoin="round"/>
    <path d="M 8.507855415344238 117.2644271850586 C 12.398160934448242 186.97718811035156 80.21048736572266 227.5142059326172 132.55880737304688 212.4949188232422" stroke-width="3.0" fill="none" stroke="rgb(0, 0, 0)" stroke-opacity="1.0" stroke-linecap="round" stroke-linejoin="round"/>
    <path d="M 51.02131652832031 149.65359497070312 C 189.5279998779297 154.88674926757812 234.2176513671875 137.2706298828125 105.5489501953125 149.84231567382812" stroke-width="3.0" fill="none" stroke="rgb(0, 0, 0)" stroke-opacity="1.0" stroke-linecap="round" stroke-linejoin="round"/>
    <path d="M 173.37722778320312 117.18090057373047 C 104.96050262451172 119.72996520996094 95.56304931640625 104.47986602783203 194.3856658935547 115.89892578125" stroke-width="3.0" fill="none" stroke="rgb(0, 0, 0)" stroke-opacity="1.0" stroke-linecap="round" stroke-linejoin="round"/>
    <path d="M 41.532535552978516 95.94496154785156 C 45.04377746582031 127.25843048095703 93.18672180175781 74.455078125 73.12364196777344 119.93424224853516" stroke-width="3.0" fill="none" stroke="rgb(0, 0, 0)" stroke-opacity="1.0" stroke-linecap="round" stroke-linejoin="round"/>
    <path d="M 33.68486404418945 126.22937774658203 C 125.60845184326172 117.9646224975586 81.91609954833984 141.4169464111328 96.74545288085938 116.8284683227539" stroke-width="3.0" fill="none" stroke="rgb(0, 0, 0)" stroke-opacity="1.0" stroke-linecap="round" stroke-linejoin="round"/>
    <path d="M 26.82634735107422 46.820526123046875 C 49.01204299926758 23.421297073364258 45.21149826049805 24.090539932250977 68.91300964355469 4.212700843811035" stroke-width="3.0" fill="none" stroke="rgb(0, 0, 0)" stroke-opacity="1.0" stroke-linecap="round" stroke-linejoin="round"/>
    <path d="M 176.06512451171875 145.27877807617188 C 177.3199920654297 137.080322265625 49.65463638305664 151.27146911621094 127.95350646972656 146.11058044433594" stroke-width="3.0" fill="none" stroke="rgb(0, 0, 0)" stroke-opacity="1.0" stroke-linecap="round" stroke-linejoin="round"/>
    <path d="M 28.811248779296875 117.8488540649414 C 80.3302001953125 132.6419677734375 111.67929077148438 130.9456329345703 45.38724136352539 130.20870971679688" stroke-width="3.0" fill="none" stroke="rgb(0, 0, 0)" stroke-opacity="1.0" stroke-linecap="round" stroke-linejoin="round"/>
    <path d="M 104.3310546875 88.88268280029297 C 100.92964172363281 96.08195495605469 132.0277099609375 80.98919677734375 129.59873962402344 81.50133514404297" stroke-width="3.0" fill="none" stroke="rgb(0, 0, 0)" stroke-opacity="1.0" stroke-linecap="round" stroke-linejoin="round"/>
    <path d="M 154.54046630859375 97.9705581665039 C 183.5365447998047 90.2271957397461 117.76350402832031 71.5939712524414 107.26496124267578 87.3674545288086" stroke-width="3.0" fill="none" stroke="rgb(0, 0, 0)" stroke-opacity="1.0" stroke-linecap="round" stroke-linejoin="round"/>
  </g>
</svg>
