<?xml version="1.0" ?>
<svg xmlns="http://www.w3.org/2000/svg" version="1.1" width="224" height="224">
  <defs/>
  <g>
    <path d="M 69.85482788085938 111.47483825683594 C 126.01434326171875 81.63664245605469 123.87272644042969 167.44778442382812 87.97767639160156 147.05850219726562" stroke-width="3.0" fill="none" stroke="rgb(0, 0, 0)" stroke-opacity="1.0" stroke-linecap="round" stroke-linejoin="round"/>
    <path d="M 93.13865661621094 120.79779052734375 C 102.13597106933594 169.55615234375 78.05839538574219 134.9697723388672 68.36409759521484 126.270751953125" stroke-width="3.0" fill="none" stroke="rgb(0, 0, 0)" stroke-opacity="1.0" stroke-linecap="round" stroke-linejoin="round"/>
    <path d="M 79.11683654785156 143.00196838378906 C 40.350189208984375 136.56405639648438 50.1184196472168 132.55226135253906 83.14315032958984 137.55966186523438" stroke-width="3.0" fill="none" stroke="rgb(0, 0, 0)" stroke-opacity="1.0" stroke-linecap="round" stroke-linejoin="round"/>
    <path d="M 29.404956817626953 127.68241119384766 C 132.67523193359375 133.93345642089844 64.40926361083984 132.70111083984375 101.17051696777344 142.60130310058594" stroke-width="3.0" fill="none" stroke="rgb(0, 0, 0)" stroke-opacity="1.0" stroke-linecap="round" stroke-linejoin="round"/>
    <path d="M 138.2725067138672 87.09635162353516 C 179.63796997070312 106.41920471191406 182.94981384277344 125.34623718261719 149.35044860839844 90.45545196533203" stroke-width="3.0" fill="none" stroke="rgb(0, 0, 0)" stroke-opacity="1.0" stroke-linecap="round" stroke-linejoin="round"/>
    <path d="M 173.04200744628906 144.44711303710938 C 163.8776397705078 102.88810729980469 215.67674255371094 130.1656494140625 112.83578491210938 117.06731414794922" stroke-width="3.0" fill="none" stroke="rgb(0, 0, 0)" stroke-opacity="1.0" stroke-linecap="round" stroke-linejoin="round"/>
    <path d="M 37.24477767944336 102.93111419677734 C 264.75250244140625 123.35139465332031 142.6221923828125 82.80088806152344 28.315628051757812 93.3643798828125" stroke-width="3.0" fill="none" stroke="rgb(0, 0, 0)" stroke-opacity="1.0" stroke-linecap="round" stroke-linejoin="round"/>
    <path d="M 101.80563354492188 129.9966278076172 C 102.79985046386719 101.15917205810547 75.58570861816406 148.2980499267578 56.322696685791016 129.7926788330078" stroke-width="3.0" fill="none" stroke="rgb(0, 0, 0)" stroke-opacity="1.0" stroke-linecap="round" stroke-linejoin="round"/>
    <path d="M 120.9281005859375 212.59617614746094 C 160.201904296875 206.63230895996094 177.2141571044922 193.2333221435547 185.89132690429688 183.06378173828125" stroke-width="3.0" fill="none" stroke="rgb(0, 0, 0)" stroke-opacity="1.0" stroke-linecap="round" stroke-linejoin="round"/>
    <path d="M 141.7156524658203 109.71160888671875 C 224.80990600585938 107.64344024658203 187.9600372314453 126.10723114013672 192.61233520507812 111.73490905761719" stroke-width="3.0" fill="none" stroke="rgb(0, 0, 0)" stroke-opacity="1.0" stroke-linecap="round" stroke-linejoin="round"/>
    <path d="M 106.33123779296875 106.25392150878906 C 132.01612854003906 143.5208740234375 77.6217269897461 134.38958740234375 167.4853515625 133.548583984375" stroke-width="3.0" fill="none" stroke="rgb(0, 0, 0)" stroke-opacity="1.0" stroke-linecap="round" stroke-linejoin="round"/>
    <path d="M 29.42308235168457 101.00391387939453 C 120.72868347167969 102.05938720703125 94.20257568359375 115.69908905029297 30.697458267211914 113.24774932861328" stroke-width="3.0" fill="none" stroke="rgb(0, 0, 0)" stroke-opacity="1.0" stroke-linecap="round" stroke-linejoin="round"/>
    <path d="M 187.21356201171875 108.53216552734375 C 148.99725341796875 115.72020721435547 168.3146209716797 105.35637664794922 61.522117614746094 101.96435546875" stroke-width="3.0" fill="none" stroke="rgb(0, 0, 0)" stroke-opacity="1.0" stroke-linecap="round" stroke-linejoin="round"/>
    <path d="M 22.085294723510742 155.58193969726562 C 65.53791809082031 225.07986450195312 117.11935424804688 206.77249145507812 164.6639404296875 198.01356506347656" stroke-width="3.0" fill="none" stroke="rgb(0, 0, 0)" stroke-opacity="1.0" stroke-linecap="round" stroke-linejoin="round"/>
    <path d="M 179.37875366210938 29.382919311523438 C 188.15643310546875 35.77985763549805 227.4276123046875 82.96372985839844 213.8895263671875 132.1546630859375" stroke-width="3.0" fill="none" stroke="rgb(0, 0, 0)" stroke-opacity="1.0" stroke-linecap="round" stroke-linejoin="round"/>
    <path d="M 92.7519760131836 91.56855773925781 C 128.14064025878906 67.9254150390625 169.81822204589844 97.1009521484375 143.0272674560547 86.99130249023438" stroke-width="3.0" fill="none" stroke="rgb(0, 0, 0)" stroke-opacity="1.0" stroke-linecap="round" stroke-linejoin="round"/>
    <path d="M 67.68017578125 35.94789505004883 C 76.90338897705078 -14.83877944946289 170.9761505126953 7.228194713592529 194.26266479492188 45.98176193237305" stroke-width="3.0" fill="none" stroke="rgb(0, 0, 0)" stroke-opacity="1.0" stroke-linecap="round" stroke-linejoin="round"/>
    <path d="M 105.60674285888672 149.5175323486328 C 176.14622497558594 147.556640625 217.28089904785156 142.20985412597656 113.64464569091797 142.70774841308594" stroke-width="3.0" fill="none" stroke="rgb(0, 0, 0)" stroke-opacity="1.0" stroke-linecap="round" stroke-linejoin="round"/>
    <path d="M 77.11284637451172 128.72398376464844 C 80.9665756225586 143.2124481201172 16.798044204711914 160.4273681640625 48.59734344482422 102.91769409179688" stroke-width="3.0" fill="none" stroke="rgb(0, 0, 0)" stroke-opacity="1.0" stroke-linecap="round" stroke-linejoin="round"/>
    <path d="M 172.3870086669922 148.37310791015625 C 199.25341796875 147.92860412597656 175.47781372070312 103.94168853759766 181.9135284423828 134.25572204589844" stroke-width="3.0" fill="none" stroke="rgb(0, 0, 0)" stroke-opacity="1.0" stroke-linecap="round" stroke-linejoin="round"/>
    <path d="M 186.99952697753906 175.12831115722656 C 162.6386260986328 192.27621459960938 178.45199584960938 197.4354248046875 166.5919189453125 190.8466339111328" stroke-width="3.0" fill="none" stroke="rgb(0, 0, 0)" stroke-opacity="1.0" stroke-linecap="round" stroke-linejoin="round"/>
    <path d="M 55.805335998535156 124.6907730102539 C 105.88406372070312 139.96395874023438 65.64191436767578 145.95709228515625 45.63053512573242 126.25900268554688" stroke-width="3.0" fill="none" stroke="rgb(0, 0, 0)" stroke-opacity="1.0" stroke-linecap="round" stroke-linejoin="round"/>
    <path d="M 116.44172668457031 85.29267120361328 C 101.84229278564453 87.25177764892578 82.84662628173828 97.37834167480469 119.03665161132812 86.65696716308594" stroke-width="3.0" fill="none" stroke="rgb(0, 0, 0)" stroke-opacity="1.0" stroke-linecap="round" stroke-linejoin="round"/>
    <path d="M 33.694419860839844 110.51688385009766 C 89.26219177246094 106.942138671875 124.59992218017578 134.67384338378906 35.39809799194336 122.24606323242188" stroke-width="3.0" fill="none" stroke="rgb(0, 0, 0)" stroke-opacity="1.0" stroke-linecap="round" stroke-linejoin="round"/>
    <path d="M 162.4957275390625 122.83045959472656 C 52.385040283203125 135.1665802001953 174.5279541015625 118.82793426513672 173.03062438964844 105.808349609375" stroke-width="3.0" fill="none" stroke="rgb(0, 0, 0)" stroke-opacity="1.0" stroke-linecap="round" stroke-linejoin="round"/>
    <path d="M 90.56425476074219 105.87045288085938 C 58.68461990356445 146.1043243408203 107.15065002441406 162.3221893310547 76.00648498535156 139.44825744628906" stroke-width="3.0" fill="none" stroke="rgb(0, 0, 0)" stroke-opacity="1.0" stroke-linecap="round" stroke-linejoin="round"/>
    <path d="M 25.49613380432129 48.57259750366211 C 19.816556930541992 68.87911987304688 -0.5546191334724426 91.55331420898438 22.002634048461914 150.50787353515625" stroke-width="3.0" fill="none" stroke="rgb(0, 0, 0)" stroke-opacity="1.0" stroke-linecap="round" stroke-linejoin="round"/>
    <path d="M 175.95455932617188 189.21893310546875 C 188.81480407714844 183.1521453857422 227.91607666015625 143.93565368652344 215.0032196044922 91.7945327758789" stroke-width="3.0" fill="none" stroke="rgb(0, 0, 0)" stroke-opacity="1.0" stroke-linecap="round" stroke-linejoin="round"/>
    <path d="M 159.01461791992188 98.05304718017578 C 222.1824493408203 118.09188079833984 202.9901885986328 118.29997253417969 168.54421997070312 100.27650451660156" stroke-width="3.0" fill="none" stroke="rgb(0, 0, 0)" stroke-opacity="1.0" stroke-linecap="round" stroke-linejoin="round"/>
    <path d="M 135.4703826904297 100.89329528808594 C 251.37481689453125 119.51168060302734 147.0805206298828 104.31829833984375 178.0820770263672 147.7120361328125" stroke-width="3.0" fill="none" stroke="rgb(0, 0, 0)" stroke-opacity="1.0" stroke-linecap="round" stroke-linejoin="round"/>
    <path d="M 149.95608520507812 110.86241149902344 C 137.51712036132812 50.9439582824707 130.54515075683594 133.7178192138672 139.79310607910156 85.05149841308594" stroke-width="3.0" fill="none" stroke="rgb(0, 0, 0)" stroke-opacity="1.0" stroke-linecap="round" stroke-linejoin="round"/>
    <path d="M 64.92449951171875 138.24237060546875 C 144.75347900390625 169.4734649658203 92.40204620361328 74.40119171142578 89.3294677734375 132.58238220214844" stroke-width="3.0" fill="none" stroke="rgb(0, 0, 0)" stroke-opacity="1.0" stroke-linecap="round" stroke-linejoin="round"/>
    <path d="M 167.80596923828125 115.54817962646484 C 176.70425415039062 97.25397491455078 205.14479064941406 140.253662109375 180.77195739746094 147.8398895263672" stroke-width="3.0" fill="none" stroke="rgb(0, 0, 0)" stroke-opacity="1.0" stroke-linecap="round" stroke-linejoin="round"/>
    <path d="M 74.28802490234375 99.1867904663086 C 76.07474517822266 95.10889434814453 197.61827087402344 115.77119445800781 159.5858917236328 113.36119842529297" stroke-width="3.0" fill="none" stroke="rgb(0, 0, 0)" stroke-opacity="1.0" stroke-linecap="round" stroke-linejoin="round"/>
    <path d="M 58.995452880859375 11.018322944641113 C 98.02730560302734 -14.684714317321777 106.56461334228516 -12.381423950195312 71.40258026123047 8.873477935791016" stroke-width="3.0" fill="none" stroke="rgb(0, 0, 0)" stroke-opacity="1.0" stroke-linecap="round" stroke-linejoin="round"/>
    <path d="M 32.13149642944336 126.58390808105469 C 102.62751007080078 144.46710205078125 111.73076629638672 160.76815795898438 30.9794979095459 149.38246154785156" stroke-width="3.0" fill="none" stroke="rgb(0, 0, 0)" stroke-opacity="1.0" stroke-linecap="round" stroke-linejoin="round"/>
    <path d="M 180.02516174316406 118.3331298828125 C 153.2769775390625 107.55799865722656 207.3054962158203 123.18181610107422 189.19764709472656 126.31015014648438" stroke-width="3.0" fill="none" stroke="rgb(0, 0, 0)" stroke-opacity="1.0" stroke-linecap="round" stroke-linejoin="round"/>
    <path d="M 70.8300552368164 139.29344177246094 C 7.286712169647217 137.94525146484375 22.367321014404297 85.34284210205078 60.91627502441406 106.38863372802734" stroke-width="3.0" fill="none" stroke="rgb(0, 0, 0)" stroke-opacity="1.0" stroke-linecap="round" stroke-linejoin="round"/>
    <path d="M 7.963589191436768 109.12713623046875 C 3.061077356338501 185.0270538330078 82.79102325439453 223.0260009765625 132.3141326904297 209.32601928710938" stroke-width="3.0" fill="none" stroke="rgb(0, 0, 0)" stroke-opacity="1.0" stroke-linecap="round" stroke-linejoin="round"/>
    <path d="M 54.566009521484375 151.81463623046875 C 180.72930908203125 154.51426696777344 232.97024536132812 139.8650665283203 107.07534790039062 147.21031188964844" stroke-width="3.0" fill="none" stroke="rgb(0, 0, 0)" stroke-opacity="1.0" stroke-linecap="round" stroke-linejoin="round"/>
    <path d="M 167.6402587890625 103.37225341796875 C 91.97699737548828 116.7261962890625 85.24608612060547 104.99259948730469 198.80149841308594 122.32057189941406" stroke-width="3.0" fill="none" stroke="rgb(0, 0, 0)" stroke-opacity="1.0" stroke-linecap="round" stroke-linejoin="round"/>
    <path d="M 26.443265914916992 96.77246856689453 C 32.70041275024414 126.51637268066406 78.4172134399414 87.4256820678711 68.40711975097656 119.6769027709961" stroke-width="3.0" fill="none" stroke="rgb(0, 0, 0)" stroke-opacity="1.0" stroke-linecap="round" stroke-linejoin="round"/>
    <path d="M 30.51779556274414 120.09953308105469 C 133.9356231689453 116.39195251464844 75.137939453125 130.66502380371094 98.21107482910156 116.01229858398438" stroke-width="3.0" fill="none" stroke="rgb(0, 0, 0)" stroke-opacity="1.0" stroke-linecap="round" stroke-linejoin="round"/>
    <path d="M 25.622879028320312 47.91646957397461 C 49.9843635559082 22.710920333862305 49.36552047729492 24.36793327331543 73.3009033203125 7.115666389465332" stroke-width="3.0" fill="none" stroke="rgb(0, 0, 0)" stroke-opacity="1.0" stroke-linecap="round" stroke-linejoin="round"/>
    <path d="M 170.87034606933594 142.59434509277344 C 180.7327117919922 134.8313446044922 56.81589126586914 147.06442260742188 135.0059814453125 143.7804718017578" stroke-width="3.0" fill="none" stroke="rgb(0, 0, 0)" stroke-opacity="1.0" stroke-linecap="round" stroke-linejoin="round"/>
    <path d="M 30.07113265991211 123.72595977783203 C 88.8028564453125 129.31211853027344 114.60218811035156 130.84786987304688 45.68827819824219 132.82325744628906" stroke-width="3.0" fill="none" stroke="rgb(0, 0, 0)" stroke-opacity="1.0" stroke-linecap="round" stroke-linejoin="round"/>
    <path d="M 115.47415161132812 87.70429229736328 C 121.33222961425781 102.66378784179688 120.89947509765625 80.31332397460938 117.19026947021484 85.80496978759766" stroke-width="3.0" fill="none" stroke="rgb(0, 0, 0)" stroke-opacity="1.0" stroke-linecap="round" stroke-linejoin="round"/>
    <path d="M 157.37840270996094 100.37873077392578 C 190.57235717773438 92.24014282226562 117.49057006835938 72.00259399414062 106.49657440185547 87.28916931152344" stroke-width="3.0" fill="none" stroke="rgb(0, 0, 0)" stroke-opacity="1.0" stroke-linecap="round" stroke-linejoin="round"/>
  </g>
</svg>
