<?xml version="1.0" ?>
<svg xmlns="http://www.w3.org/2000/svg" version="1.1" width="224" height="224">
  <defs/>
  <g>
    <path d="M 69.83753967285156 106.14179992675781 C 121.75310516357422 93.17374420166016 119.31970977783203 135.9261016845703 106.00109100341797 150.2509765625" stroke-width="3.0" fill="none" stroke="rgb(0, 0, 0)" stroke-opacity="1.0" stroke-linecap="round" stroke-linejoin="round"/>
    <path d="M 83.15960693359375 128.79893493652344 C 99.98686981201172 159.6617889404297 74.22235107421875 147.85060119628906 80.11839294433594 131.1842498779297" stroke-width="3.0" fill="none" stroke="rgb(0, 0, 0)" stroke-opacity="1.0" stroke-linecap="round" stroke-linejoin="round"/>
    <path d="M 51.57137680053711 130.55337524414062 C -3.9406826496124268 118.89171600341797 5.013493537902832 123.80518341064453 81.76712036132812 124.71139526367188" stroke-width="3.0" fill="none" stroke="rgb(0, 0, 0)" stroke-opacity="1.0" stroke-linecap="round" stroke-linejoin="round"/>
    <path d="M 22.558698654174805 111.09602355957031 C 104.03598022460938 118.64253234863281 85.72520446777344 110.91360473632812 83.48088836669922 120.91542053222656" stroke-width="3.0" fill="none" stroke="rgb(0, 0, 0)" stroke-opacity="1.0" stroke-linecap="round" stroke-linejoin="round"/>
    <path d="M 100.97530364990234 95.14269256591797 C 190.7540283203125 111.28485107421875 169.2349395751953 115.99925994873047 113.76178741455078 92.35340881347656" stroke-width="3.0" fill="none" stroke="rgb(0, 0, 0)" stroke-opacity="1.0" stroke-linecap="round" stroke-linejoin="round"/>
    <path d="M 172.90931701660156 143.42994689941406 C 161.28729248046875 109.1797103881836 212.9025115966797 117.25169372558594 141.28118896484375 104.90167236328125" stroke-width="3.0" fill="none" stroke="rgb(0, 0, 0)" stroke-opacity="1.0" stroke-linecap="round" stroke-linejoin="round"/>
    <path d="M 30.51595115661621 99.38716125488281 C 144.60545349121094 85.36542510986328 138.28431701660156 79.34429168701172 29.42558479309082 88.8480224609375" stroke-width="3.0" fill="none" stroke="rgb(0, 0, 0)" stroke-opacity="1.0" stroke-linecap="round" stroke-linejoin="round"/>
    <path d="M 70.51034545898438 130.47218322753906 C 102.10888671875 131.21917724609375 81.1378173828125 139.92648315429688 40.4909782409668 132.2425079345703" stroke-width="3.0" fill="none" stroke="rgb(0, 0, 0)" stroke-opacity="1.0" stroke-linecap="round" stroke-linejoin="round"/>
    <path d="M 118.80862426757812 212.5044403076172 C 197.88768005371094 193.69114685058594 148.80303955078125 202.3433837890625 177.15870666503906 195.6123504638672" stroke-width="3.0" fill="none" stroke="rgb(0, 0, 0)" stroke-opacity="1.0" stroke-linecap="round" stroke-linejoin="round"/>
    <path d="M 148.726318359375 109.41166687011719 C 181.68771362304688 109.28785705566406 186.4061279296875 126.15970611572266 192.32896423339844 116.26214599609375" stroke-width="3.0" fill="none" stroke="rgb(0, 0, 0)" stroke-opacity="1.0" stroke-linecap="round" stroke-linejoin="round"/>
    <path d="M 96.89729309082031 102.69105529785156 C 128.79261779785156 104.12519836425781 102.86174774169922 140.6585235595703 139.7198944091797 132.6765594482422" stroke-width="3.0" fill="none" stroke="rgb(0, 0, 0)" stroke-opacity="1.0" stroke-linecap="round" stroke-linejoin="round"/>
    <path d="M 22.570270538330078 100.96719360351562 C 147.06488037109375 98.35721588134766 103.63045501708984 111.14769744873047 22.218454360961914 104.97402954101562" stroke-width="3.0" fill="none" stroke="rgb(0, 0, 0)" stroke-opacity="1.0" stroke-linecap="round" stroke-linejoin="round"/>
    <path d="M 179.8043212890625 117.13090515136719 C 129.4533233642578 109.84384155273438 161.11375427246094 111.61544036865234 116.1427001953125 107.70542907714844" stroke-width="3.0" fill="none" stroke="rgb(0, 0, 0)" stroke-opacity="1.0" stroke-linecap="round" stroke-linejoin="round"/>
    <path d="M 71.53038787841797 204.16925048828125 C 87.36022186279297 210.7122344970703 105.92874908447266 214.57119750976562 119.7412338256836 211.40162658691406" stroke-width="3.0" fill="none" stroke="rgb(0, 0, 0)" stroke-opacity="1.0" stroke-linecap="round" stroke-linejoin="round"/>
    <path d="M 174.11985778808594 27.084016799926758 C 188.6051483154297 35.4560432434082 231.5956573486328 77.92127990722656 214.27821350097656 136.26620483398438" stroke-width="3.0" fill="none" stroke="rgb(0, 0, 0)" stroke-opacity="1.0" stroke-linecap="round" stroke-linejoin="round"/>
    <path d="M 114.13027954101562 82.7730712890625 C 136.0097198486328 81.12139129638672 134.57742309570312 81.77713012695312 127.69053649902344 97.25487518310547" stroke-width="3.0" fill="none" stroke="rgb(0, 0, 0)" stroke-opacity="1.0" stroke-linecap="round" stroke-linejoin="round"/>
    <path d="M 66.00048065185547 23.97860336303711 C 118.31211853027344 -10.632287979125977 170.37094116210938 17.046546936035156 186.8164825439453 37.63236999511719" stroke-width="3.0" fill="none" stroke="rgb(0, 0, 0)" stroke-opacity="1.0" stroke-linecap="round" stroke-linejoin="round"/>
    <path d="M 128.32611083984375 132.75564575195312 C 133.31155395507812 153.81117248535156 143.62423706054688 129.46495056152344 137.68701171875 136.09095764160156" stroke-width="3.0" fill="none" stroke="rgb(0, 0, 0)" stroke-opacity="1.0" stroke-linecap="round" stroke-linejoin="round"/>
    <path d="M 61.77415466308594 128.1736297607422 C 55.86222839355469 140.78659057617188 67.44294738769531 147.26675415039062 18.61372184753418 129.2696990966797" stroke-width="3.0" fill="none" stroke="rgb(0, 0, 0)" stroke-opacity="1.0" stroke-linecap="round" stroke-linejoin="round"/>
    <path d="M 167.0765380859375 137.21377563476562 C 188.1600341796875 167.25796508789062 181.95260620117188 105.668212890625 178.46438598632812 132.93099975585938" stroke-width="3.0" fill="none" stroke="rgb(0, 0, 0)" stroke-opacity="1.0" stroke-linecap="round" stroke-linejoin="round"/>
    <path d="M 131.28146362304688 211.62738037109375 C 106.42697143554688 211.9036865234375 102.80767059326172 215.4345703125 132.7969970703125 210.37451171875" stroke-width="3.0" fill="none" stroke="rgb(0, 0, 0)" stroke-opacity="1.0" stroke-linecap="round" stroke-linejoin="round"/>
    <path d="M 56.07682418823242 144.68406677246094 C 80.97036743164062 144.2789306640625 62.3223991394043 156.35711669921875 24.59773826599121 132.18508911132812" stroke-width="3.0" fill="none" stroke="rgb(0, 0, 0)" stroke-opacity="1.0" stroke-linecap="round" stroke-linejoin="round"/>
    <path d="M 94.66244506835938 86.61897277832031 C 55.76814270019531 85.89973449707031 14.613370895385742 92.12462615966797 80.44427490234375 91.64195251464844" stroke-width="3.0" fill="none" stroke="rgb(0, 0, 0)" stroke-opacity="1.0" stroke-linecap="round" stroke-linejoin="round"/>
    <path d="M 74.75067901611328 102.68196868896484 C 83.4439468383789 105.89965057373047 107.26419830322266 122.5101318359375 50.28585433959961 120.48947143554688" stroke-width="3.0" fill="none" stroke="rgb(0, 0, 0)" stroke-opacity="1.0" stroke-linecap="round" stroke-linejoin="round"/>
    <path d="M 158.5034942626953 95.38243865966797 C 108.2136001586914 81.89488220214844 150.9771270751953 102.56208038330078 152.60255432128906 94.93916320800781" stroke-width="3.0" fill="none" stroke="rgb(0, 0, 0)" stroke-opacity="1.0" stroke-linecap="round" stroke-linejoin="round"/>
    <path d="M 96.64838409423828 119.38243865966797 C 67.99040985107422 141.07713317871094 113.27845001220703 157.86737060546875 81.05496215820312 141.39817810058594" stroke-width="3.0" fill="none" stroke="rgb(0, 0, 0)" stroke-opacity="1.0" stroke-linecap="round" stroke-linejoin="round"/>
    <path d="M 24.835866928100586 48.79481887817383 C 17.66514015197754 64.9524917602539 0.09701560437679291 92.26837158203125 8.164905548095703 129.9790496826172" stroke-width="3.0" fill="none" stroke="rgb(0, 0, 0)" stroke-opacity="1.0" stroke-linecap="round" stroke-linejoin="round"/>
    <path d="M 179.79190063476562 194.30174255371094 C 191.80804443359375 177.07432556152344 219.34178161621094 155.68585205078125 215.55572509765625 114.85614776611328" stroke-width="3.0" fill="none" stroke="rgb(0, 0, 0)" stroke-opacity="1.0" stroke-linecap="round" stroke-linejoin="round"/>
    <path d="M 147.5181121826172 106.47964477539062 C 212.83135986328125 120.10365295410156 205.29043579101562 110.99771118164062 153.27613830566406 107.42610168457031" stroke-width="3.0" fill="none" stroke="rgb(0, 0, 0)" stroke-opacity="1.0" stroke-linecap="round" stroke-linejoin="round"/>
    <path d="M 139.0269317626953 96.84414672851562 C 232.60597229003906 116.3573989868164 160.642822265625 102.93568420410156 169.42123413085938 137.31422424316406" stroke-width="3.0" fill="none" stroke="rgb(0, 0, 0)" stroke-opacity="1.0" stroke-linecap="round" stroke-linejoin="round"/>
    <path d="M 156.6469268798828 97.42044830322266 C 134.5484161376953 86.83287811279297 121.48194885253906 115.20926666259766 132.56399536132812 81.45830535888672" stroke-width="3.0" fill="none" stroke="rgb(0, 0, 0)" stroke-opacity="1.0" stroke-linecap="round" stroke-linejoin="round"/>
    <path d="M 81.6050033569336 146.50962829589844 C 128.6248321533203 168.67669677734375 104.64234161376953 79.62701416015625 88.95789337158203 125.5326919555664" stroke-width="3.0" fill="none" stroke="rgb(0, 0, 0)" stroke-opacity="1.0" stroke-linecap="round" stroke-linejoin="round"/>
    <path d="M 176.0399932861328 120.18816375732422 C 196.12179565429688 98.86418151855469 188.4323272705078 134.41983032226562 187.9903106689453 114.5840072631836" stroke-width="3.0" fill="none" stroke="rgb(0, 0, 0)" stroke-opacity="1.0" stroke-linecap="round" stroke-linejoin="round"/>
    <path d="M 133.96591186523438 99.56095886230469 C 107.78414916992188 93.55089569091797 187.50022888183594 113.21771240234375 136.3675537109375 100.63025665283203" stroke-width="3.0" fill="none" stroke="rgb(0, 0, 0)" stroke-opacity="1.0" stroke-linecap="round" stroke-linejoin="round"/>
    <path d="M 65.58148193359375 23.5029296875 C 106.466796875 11.273321151733398 88.90764617919922 6.0105881690979 63.9357795715332 20.69662094116211" stroke-width="3.0" fill="none" stroke="rgb(0, 0, 0)" stroke-opacity="1.0" stroke-linecap="round" stroke-linejoin="round"/>
    <path d="M 28.75440216064453 127.35539245605469 C 115.45730590820312 133.44442749023438 98.47525787353516 151.48629760742188 33.02092361450195 143.28720092773438" stroke-width="3.0" fill="none" stroke="rgb(0, 0, 0)" stroke-opacity="1.0" stroke-linecap="round" stroke-linejoin="round"/>
    <path d="M 176.61305236816406 144.31057739257812 C 158.1959228515625 104.61827087402344 199.6770782470703 118.60831451416016 181.48785400390625 143.9408721923828" stroke-width="3.0" fill="none" stroke="rgb(0, 0, 0)" stroke-opacity="1.0" stroke-linecap="round" stroke-linejoin="round"/>
    <path d="M 51.7277946472168 135.99176025390625 C 0.5637582540512085 103.25228118896484 15.954079627990723 96.40591430664062 81.08132934570312 109.15929412841797" stroke-width="3.0" fill="none" stroke="rgb(0, 0, 0)" stroke-opacity="1.0" stroke-linecap="round" stroke-linejoin="round"/>
    <path d="M 6.252413749694824 120.18144989013672 C 15.456863403320312 189.0753173828125 79.4711685180664 207.2970733642578 99.1611328125 210.76373291015625" stroke-width="3.0" fill="none" stroke="rgb(0, 0, 0)" stroke-opacity="1.0" stroke-linecap="round" stroke-linejoin="round"/>
    <path d="M 107.97372436523438 156.2411651611328 C 136.219482421875 163.318603515625 141.2307891845703 164.6227569580078 114.0127944946289 157.0848846435547" stroke-width="3.0" fill="none" stroke="rgb(0, 0, 0)" stroke-opacity="1.0" stroke-linecap="round" stroke-linejoin="round"/>
    <path d="M 154.57333374023438 106.18852996826172 C 151.61351013183594 108.05963134765625 128.9667510986328 102.06612396240234 191.55044555664062 116.806640625" stroke-width="3.0" fill="none" stroke="rgb(0, 0, 0)" stroke-opacity="1.0" stroke-linecap="round" stroke-linejoin="round"/>
    <path d="M 55.98735427856445 99.32075500488281 C 84.01741027832031 118.75313568115234 53.271427154541016 85.55764770507812 48.95168685913086 117.81111145019531" stroke-width="3.0" fill="none" stroke="rgb(0, 0, 0)" stroke-opacity="1.0" stroke-linecap="round" stroke-linejoin="round"/>
    <path d="M 31.50386619567871 96.00776672363281 C 114.89652252197266 108.00894165039062 75.83711242675781 121.05659484863281 94.64564514160156 105.29569244384766" stroke-width="3.0" fill="none" stroke="rgb(0, 0, 0)" stroke-opacity="1.0" stroke-linecap="round" stroke-linejoin="round"/>
    <path d="M 25.775388717651367 47.743221282958984 C 48.027950286865234 25.583702087402344 40.48756408691406 30.52901840209961 65.8277359008789 19.256221771240234" stroke-width="3.0" fill="none" stroke="rgb(0, 0, 0)" stroke-opacity="1.0" stroke-linecap="round" stroke-linejoin="round"/>
    <path d="M 182.88682556152344 140.01358032226562 C 150.5670928955078 139.81320190429688 90.94731140136719 136.4232635498047 122.75643157958984 133.6922607421875" stroke-width="3.0" fill="none" stroke="rgb(0, 0, 0)" stroke-opacity="1.0" stroke-linecap="round" stroke-linejoin="round"/>
    <path d="M 39.470760345458984 130.25401306152344 C 87.9574203491211 133.75759887695312 117.75211334228516 130.6564178466797 29.013988494873047 127.31070709228516" stroke-width="3.0" fill="none" stroke="rgb(0, 0, 0)" stroke-opacity="1.0" stroke-linecap="round" stroke-linejoin="round"/>
    <path d="M 96.0044937133789 84.34222412109375 C 103.35950469970703 80.59848022460938 121.83841705322266 79.69078063964844 132.68951416015625 83.19584655761719" stroke-width="3.0" fill="none" stroke="rgb(0, 0, 0)" stroke-opacity="1.0" stroke-linecap="round" stroke-linejoin="round"/>
    <path d="M 162.33082580566406 99.80736541748047 C 183.3879852294922 96.45848846435547 137.70150756835938 78.31576538085938 124.68376159667969 81.27394104003906" stroke-width="3.0" fill="none" stroke="rgb(0, 0, 0)" stroke-opacity="1.0" stroke-linecap="round" stroke-linejoin="round"/>
  </g>
</svg>
