<?xml version="1.0" ?>
<svg xmlns="http://www.w3.org/2000/svg" version="1.1" width="224" height="224">
  <defs/>
  <g>
    <path d="M 74.01432800292969 115.1771469116211 C 125.5682144165039 84.83972930908203 123.2126693725586 167.41677856445312 85.9806900024414 148.0318145751953" stroke-width="3.0" fill="none" stroke="rgb(0, 0, 0)" stroke-opacity="1.0" stroke-linecap="round" stroke-linejoin="round"/>
    <path d="M 92.3922119140625 124.9854965209961 C 107.50276184082031 169.4766387939453 81.3505859375 134.35252380371094 67.63886260986328 127.97090148925781" stroke-width="3.0" fill="none" stroke="rgb(0, 0, 0)" stroke-opacity="1.0" stroke-linecap="round" stroke-linejoin="round"/>
    <path d="M 78.0931167602539 145.8856964111328 C 51.830047607421875 143.52288818359375 60.25213623046875 145.74595642089844 81.67951965332031 140.45852661132812" stroke-width="3.0" fill="none" stroke="rgb(0, 0, 0)" stroke-opacity="1.0" stroke-linecap="round" stroke-linejoin="round"/>
    <path d="M 29.603185653686523 125.51390075683594 C 141.92881774902344 125.27496337890625 66.61444854736328 136.3380584716797 100.528076171875 143.41818237304688" stroke-width="3.0" fill="none" stroke="rgb(0, 0, 0)" stroke-opacity="1.0" stroke-linecap="round" stroke-linejoin="round"/>
    <path d="M 144.20388793945312 84.51962280273438 C 186.724609375 104.59506225585938 188.9530029296875 124.95066833496094 147.8098907470703 91.14555358886719" stroke-width="3.0" fill="none" stroke="rgb(0, 0, 0)" stroke-opacity="1.0" stroke-linecap="round" stroke-linejoin="round"/>
    <path d="M 168.29055786132812 143.56263732910156 C 159.45181274414062 96.60025787353516 204.7275848388672 133.39944458007812 113.48328399658203 114.40531158447266" stroke-width="3.0" fill="none" stroke="rgb(0, 0, 0)" stroke-opacity="1.0" stroke-linecap="round" stroke-linejoin="round"/>
    <path d="M 31.879161834716797 102.9791030883789 C 256.4773254394531 118.7081298828125 143.12107849121094 83.98845672607422 31.08953857421875 95.04418182373047" stroke-width="3.0" fill="none" stroke="rgb(0, 0, 0)" stroke-opacity="1.0" stroke-linecap="round" stroke-linejoin="round"/>
    <path d="M 100.78656005859375 129.12127685546875 C 105.54322814941406 99.24950408935547 74.00945281982422 143.6259765625 57.522457122802734 124.6531982421875" stroke-width="3.0" fill="none" stroke="rgb(0, 0, 0)" stroke-opacity="1.0" stroke-linecap="round" stroke-linejoin="round"/>
    <path d="M 118.88216400146484 215.2912139892578 C 161.76112365722656 206.6605224609375 178.97201538085938 195.59146118164062 183.81466674804688 186.10781860351562" stroke-width="3.0" fill="none" stroke="rgb(0, 0, 0)" stroke-opacity="1.0" stroke-linecap="round" stroke-linejoin="round"/>
    <path d="M 141.5997772216797 106.74857330322266 C 214.8496856689453 114.2121810913086 179.19261169433594 128.8981475830078 195.34750366210938 110.66307067871094" stroke-width="3.0" fill="none" stroke="rgb(0, 0, 0)" stroke-opacity="1.0" stroke-linecap="round" stroke-linejoin="round"/>
    <path d="M 110.78011322021484 106.94212341308594 C 132.8477325439453 137.64852905273438 77.20265197753906 136.461669921875 164.97137451171875 133.59402465820312" stroke-width="3.0" fill="none" stroke="rgb(0, 0, 0)" stroke-opacity="1.0" stroke-linecap="round" stroke-linejoin="round"/>
    <path d="M 29.69831657409668 98.08536529541016 C 115.80946350097656 109.6491928100586 90.96429443359375 120.71833038330078 33.53291702270508 108.71139526367188" stroke-width="3.0" fill="none" stroke="rgb(0, 0, 0)" stroke-opacity="1.0" stroke-linecap="round" stroke-linejoin="round"/>
    <path d="M 174.82286071777344 110.29339599609375 C 148.9265899658203 114.31429290771484 167.45245361328125 105.6681900024414 64.66195678710938 98.189453125" stroke-width="3.0" fill="none" stroke="rgb(0, 0, 0)" stroke-opacity="1.0" stroke-linecap="round" stroke-linejoin="round"/>
    <path d="M 21.296031951904297 158.21026611328125 C 67.49369812011719 225.33331298828125 121.05670166015625 212.07318115234375 164.20376586914062 198.31358337402344" stroke-width="3.0" fill="none" stroke="rgb(0, 0, 0)" stroke-opacity="1.0" stroke-linecap="round" stroke-linejoin="round"/>
    <path d="M 177.0677947998047 30.283048629760742 C 186.4801788330078 38.859561920166016 230.06790161132812 83.29918670654297 214.0411834716797 131.96554565429688" stroke-width="3.0" fill="none" stroke="rgb(0, 0, 0)" stroke-opacity="1.0" stroke-linecap="round" stroke-linejoin="round"/>
    <path d="M 92.9122314453125 91.34716033935547 C 124.44581604003906 68.87155151367188 169.16860961914062 98.87946319580078 145.8304443359375 85.09037017822266" stroke-width="3.0" fill="none" stroke="rgb(0, 0, 0)" stroke-opacity="1.0" stroke-linecap="round" stroke-linejoin="round"/>
    <path d="M 78.3427963256836 37.80644226074219 C 73.936279296875 -18.268407821655273 170.6495819091797 8.123783111572266 192.40431213378906 45.68743896484375" stroke-width="3.0" fill="none" stroke="rgb(0, 0, 0)" stroke-opacity="1.0" stroke-linecap="round" stroke-linejoin="round"/>
    <path d="M 108.22148895263672 148.41351318359375 C 170.54339599609375 148.60818481445312 208.733154296875 141.40684509277344 112.53846740722656 142.3354034423828" stroke-width="3.0" fill="none" stroke="rgb(0, 0, 0)" stroke-opacity="1.0" stroke-linecap="round" stroke-linejoin="round"/>
    <path d="M 63.091148376464844 132.0681915283203 C 74.36929321289062 143.53123474121094 18.575889587402344 160.6903839111328 51.582550048828125 107.3451919555664" stroke-width="3.0" fill="none" stroke="rgb(0, 0, 0)" stroke-opacity="1.0" stroke-linecap="round" stroke-linejoin="round"/>
    <path d="M 174.2625732421875 146.59323120117188 C 201.8210906982422 145.97378540039062 174.8673553466797 101.16020965576172 179.36422729492188 135.8905487060547" stroke-width="3.0" fill="none" stroke="rgb(0, 0, 0)" stroke-opacity="1.0" stroke-linecap="round" stroke-linejoin="round"/>
    <path d="M 192.33645629882812 179.0190887451172 C 172.94046020507812 189.8984375 182.305908203125 193.40553283691406 166.8103790283203 192.64089965820312" stroke-width="3.0" fill="none" stroke="rgb(0, 0, 0)" stroke-opacity="1.0" stroke-linecap="round" stroke-linejoin="round"/>
    <path d="M 59.05651092529297 128.5790557861328 C 107.64567565917969 137.01332092285156 69.16764831542969 142.96231079101562 48.51221466064453 124.23768615722656" stroke-width="3.0" fill="none" stroke="rgb(0, 0, 0)" stroke-opacity="1.0" stroke-linecap="round" stroke-linejoin="round"/>
    <path d="M 115.429443359375 81.53349304199219 C 104.8864974975586 88.13257598876953 80.56415557861328 94.60942077636719 117.73251342773438 84.70182800292969" stroke-width="3.0" fill="none" stroke="rgb(0, 0, 0)" stroke-opacity="1.0" stroke-linecap="round" stroke-linejoin="round"/>
    <path d="M 41.37583541870117 107.57808685302734 C 94.14952850341797 102.07945251464844 128.9949951171875 143.82095336914062 40.78366470336914 126.21327209472656" stroke-width="3.0" fill="none" stroke="rgb(0, 0, 0)" stroke-opacity="1.0" stroke-linecap="round" stroke-linejoin="round"/>
    <path d="M 161.3904571533203 117.55655670166016 C 46.59349822998047 127.60370635986328 169.97314453125 114.35130310058594 168.31060791015625 102.8283920288086" stroke-width="3.0" fill="none" stroke="rgb(0, 0, 0)" stroke-opacity="1.0" stroke-linecap="round" stroke-linejoin="round"/>
    <path d="M 93.2629623413086 107.38526153564453 C 62.98725891113281 138.55282592773438 114.51073455810547 157.73495483398438 78.74102020263672 145.10850524902344" stroke-width="3.0" fill="none" stroke="rgb(0, 0, 0)" stroke-opacity="1.0" stroke-linecap="round" stroke-linejoin="round"/>
    <path d="M 26.08946418762207 48.50413131713867 C 19.574670791625977 66.65103149414062 -3.4458580017089844 97.10663604736328 17.630769729614258 145.7035369873047" stroke-width="3.0" fill="none" stroke="rgb(0, 0, 0)" stroke-opacity="1.0" stroke-linecap="round" stroke-linejoin="round"/>
    <path d="M 180.009765625 192.96380615234375 C 189.17576599121094 185.2299041748047 226.99110412597656 141.07374572753906 214.8793182373047 93.80897521972656" stroke-width="3.0" fill="none" stroke="rgb(0, 0, 0)" stroke-opacity="1.0" stroke-linecap="round" stroke-linejoin="round"/>
    <path d="M 151.22300720214844 95.38358306884766 C 220.75656127929688 113.1395034790039 196.24391174316406 116.53697204589844 170.9023895263672 103.1930923461914" stroke-width="3.0" fill="none" stroke="rgb(0, 0, 0)" stroke-opacity="1.0" stroke-linecap="round" stroke-linejoin="round"/>
    <path d="M 132.6690673828125 96.70112609863281 C 250.86505126953125 122.05604553222656 147.43389892578125 102.26834106445312 176.08779907226562 146.0934600830078" stroke-width="3.0" fill="none" stroke="rgb(0, 0, 0)" stroke-opacity="1.0" stroke-linecap="round" stroke-linejoin="round"/>
    <path d="M 154.5045166015625 107.49042510986328 C 137.25466918945312 46.892433166503906 125.39486694335938 128.35154724121094 137.43603515625 85.00202941894531" stroke-width="3.0" fill="none" stroke="rgb(0, 0, 0)" stroke-opacity="1.0" stroke-linecap="round" stroke-linejoin="round"/>
    <path d="M 63.644378662109375 142.1929931640625 C 146.34579467773438 167.51971435546875 93.05160522460938 77.8165512084961 94.11506652832031 131.33351135253906" stroke-width="3.0" fill="none" stroke="rgb(0, 0, 0)" stroke-opacity="1.0" stroke-linecap="round" stroke-linejoin="round"/>
    <path d="M 169.08546447753906 113.05957794189453 C 178.21990966796875 88.93070983886719 201.69378662109375 139.58551025390625 180.6217041015625 146.07403564453125" stroke-width="3.0" fill="none" stroke="rgb(0, 0, 0)" stroke-opacity="1.0" stroke-linecap="round" stroke-linejoin="round"/>
    <path d="M 76.911376953125 101.06511688232422 C 74.95189666748047 100.5724105834961 199.71316528320312 104.63919830322266 161.29844665527344 110.44087219238281" stroke-width="3.0" fill="none" stroke="rgb(0, 0, 0)" stroke-opacity="1.0" stroke-linecap="round" stroke-linejoin="round"/>
    <path d="M 61.59925079345703 12.232239723205566 C 91.25511932373047 -18.681772232055664 102.82384490966797 -14.451972007751465 71.1174545288086 6.483062267303467" stroke-width="3.0" fill="none" stroke="rgb(0, 0, 0)" stroke-opacity="1.0" stroke-linecap="round" stroke-linejoin="round"/>
    <path d="M 27.853729248046875 123.05206298828125 C 101.8332290649414 141.1285858154297 110.0205307006836 155.3360137939453 35.36663818359375 143.11810302734375" stroke-width="3.0" fill="none" stroke="rgb(0, 0, 0)" stroke-opacity="1.0" stroke-linecap="round" stroke-linejoin="round"/>
    <path d="M 179.03414916992188 124.89996337890625 C 151.7451934814453 108.19154357910156 205.59498596191406 121.56732177734375 186.53199768066406 120.7703628540039" stroke-width="3.0" fill="none" stroke="rgb(0, 0, 0)" stroke-opacity="1.0" stroke-linecap="round" stroke-linejoin="round"/>
    <path d="M 68.3272476196289 134.59857177734375 C 9.200652122497559 138.76007080078125 26.284521102905273 85.54194641113281 64.03882598876953 99.21300506591797" stroke-width="3.0" fill="none" stroke="rgb(0, 0, 0)" stroke-opacity="1.0" stroke-linecap="round" stroke-linejoin="round"/>
    <path d="M 5.563859939575195 108.31291198730469 C 6.770862579345703 186.02175903320312 82.5313491821289 227.26858520507812 133.77606201171875 211.14804077148438" stroke-width="3.0" fill="none" stroke="rgb(0, 0, 0)" stroke-opacity="1.0" stroke-linecap="round" stroke-linejoin="round"/>
    <path d="M 54.21382522583008 148.9890899658203 C 185.5681915283203 153.9559326171875 237.2805633544922 138.1385955810547 104.11991882324219 147.9236602783203" stroke-width="3.0" fill="none" stroke="rgb(0, 0, 0)" stroke-opacity="1.0" stroke-linecap="round" stroke-linejoin="round"/>
    <path d="M 168.1754608154297 100.2402114868164 C 88.86204528808594 123.77418518066406 92.66448211669922 101.17813110351562 188.892822265625 114.26795959472656" stroke-width="3.0" fill="none" stroke="rgb(0, 0, 0)" stroke-opacity="1.0" stroke-linecap="round" stroke-linejoin="round"/>
    <path d="M 30.248384475708008 99.80172729492188 C 36.115509033203125 123.96687316894531 78.4520034790039 76.32711791992188 62.57976150512695 113.80879974365234" stroke-width="3.0" fill="none" stroke="rgb(0, 0, 0)" stroke-opacity="1.0" stroke-linecap="round" stroke-linejoin="round"/>
    <path d="M 33.38749694824219 125.16960906982422 C 126.76985931396484 117.02896881103516 75.62950897216797 135.08230590820312 96.40461730957031 113.82560729980469" stroke-width="3.0" fill="none" stroke="rgb(0, 0, 0)" stroke-opacity="1.0" stroke-linecap="round" stroke-linejoin="round"/>
    <path d="M 27.191364288330078 46.96685791015625 C 50.21086120605469 22.62255096435547 46.00930404663086 22.997995376586914 72.13475799560547 6.338040351867676" stroke-width="3.0" fill="none" stroke="rgb(0, 0, 0)" stroke-opacity="1.0" stroke-linecap="round" stroke-linejoin="round"/>
    <path d="M 173.53150939941406 143.6851348876953 C 182.83950805664062 136.6156768798828 55.00278854370117 149.03851318359375 132.8485870361328 145.38290405273438" stroke-width="3.0" fill="none" stroke="rgb(0, 0, 0)" stroke-opacity="1.0" stroke-linecap="round" stroke-linejoin="round"/>
    <path d="M 32.25936508178711 117.53630065917969 C 86.39256286621094 128.50770568847656 112.74828338623047 132.6431884765625 52.14130401611328 134.68963623046875" stroke-width="3.0" fill="none" stroke="rgb(0, 0, 0)" stroke-opacity="1.0" stroke-linecap="round" stroke-linejoin="round"/>
    <path d="M 106.36153411865234 87.38941955566406 C 104.31790924072266 97.15643310546875 128.64996337890625 80.95697784423828 122.03345489501953 83.19815063476562" stroke-width="3.0" fill="none" stroke="rgb(0, 0, 0)" stroke-opacity="1.0" stroke-linecap="round" stroke-linejoin="round"/>
    <path d="M 159.18759155273438 101.88416290283203 C 190.67552185058594 93.08776092529297 119.92586517333984 72.11930847167969 111.94520568847656 89.09712219238281" stroke-width="3.0" fill="none" stroke="rgb(0, 0, 0)" stroke-opacity="1.0" stroke-linecap="round" stroke-linejoin="round"/>
  </g>
</svg>
