<?xml version="1.0" ?>
<svg xmlns="http://www.w3.org/2000/svg" version="1.1" width="224" height="224">
  <defs/>
  <g>
    <path d="M 97.04547882080078 100.95250701904297 C 118.74227905273438 104.92443084716797 119.99044799804688 122.0313949584961 115.43321228027344 131.21652221679688" stroke-width="3.0" fill="none" stroke="rgb(0, 0, 0)" stroke-opacity="1.0" stroke-linecap="round" stroke-linejoin="round"/>
    <path d="M 62.45479965209961 129.5714569091797 C 92.8190689086914 147.3249969482422 82.31907653808594 138.8463134765625 66.52710723876953 138.82325744628906" stroke-width="3.0" fill="none" stroke="rgb(0, 0, 0)" stroke-opacity="1.0" stroke-linecap="round" stroke-linejoin="round"/>
    <path d="M 44.829444885253906 121.91569519042969 C 0.844674825668335 121.58781433105469 28.861392974853516 124.46810913085938 82.97949981689453 131.58396911621094" stroke-width="3.0" fill="none" stroke="rgb(0, 0, 0)" stroke-opacity="1.0" stroke-linecap="round" stroke-linejoin="round"/>
    <path d="M 30.63983154296875 116.60942840576172 C 93.49833679199219 123.41385650634766 90.18629455566406 133.7415008544922 76.82942962646484 108.25008392333984" stroke-width="3.0" fill="none" stroke="rgb(0, 0, 0)" stroke-opacity="1.0" stroke-linecap="round" stroke-linejoin="round"/>
    <path d="M 104.66700744628906 98.3711166381836 C 186.61228942871094 121.84156036376953 171.73887634277344 109.54564666748047 92.60103607177734 92.3796615600586" stroke-width="3.0" fill="none" stroke="rgb(0, 0, 0)" stroke-opacity="1.0" stroke-linecap="round" stroke-linejoin="round"/>
    <path d="M 171.2555389404297 129.1160125732422 C 182.96096801757812 105.76531219482422 180.60079956054688 119.69562530517578 146.1142578125 111.65653228759766" stroke-width="3.0" fill="none" stroke="rgb(0, 0, 0)" stroke-opacity="1.0" stroke-linecap="round" stroke-linejoin="round"/>
    <path d="M 69.00533294677734 104.84981536865234 C 113.90919494628906 100.53129577636719 106.081787109375 101.95613861083984 50.22893524169922 98.89510345458984" stroke-width="3.0" fill="none" stroke="rgb(0, 0, 0)" stroke-opacity="1.0" stroke-linecap="round" stroke-linejoin="round"/>
    <path d="M 84.13237762451172 140.7400360107422 C 94.054443359375 151.33546447753906 80.62381744384766 128.39378356933594 29.983158111572266 135.7883758544922" stroke-width="3.0" fill="none" stroke="rgb(0, 0, 0)" stroke-opacity="1.0" stroke-linecap="round" stroke-linejoin="round"/>
    <path d="M 141.9218292236328 204.7997283935547 C 182.22021484375 188.9083251953125 162.6957550048828 187.62542724609375 181.31350708007812 185.51028442382812" stroke-width="3.0" fill="none" stroke="rgb(0, 0, 0)" stroke-opacity="1.0" stroke-linecap="round" stroke-linejoin="round"/>
    <path d="M 158.81536865234375 108.68048095703125 C 174.01513671875 110.23406982421875 178.54469299316406 106.35270690917969 197.7133026123047 113.6443862915039" stroke-width="3.0" fill="none" stroke="rgb(0, 0, 0)" stroke-opacity="1.0" stroke-linecap="round" stroke-linejoin="round"/>
    <path d="M 107.6949234008789 106.29644012451172 C 127.31704711914062 115.45433807373047 113.65544128417969 145.87869262695312 134.1986541748047 134.28236389160156" stroke-width="3.0" fill="none" stroke="rgb(0, 0, 0)" stroke-opacity="1.0" stroke-linecap="round" stroke-linejoin="round"/>
    <path d="M 30.45942497253418 101.52155303955078 C 103.00637817382812 110.60909271240234 78.73037719726562 95.3465805053711 43.108192443847656 102.79798126220703" stroke-width="3.0" fill="none" stroke="rgb(0, 0, 0)" stroke-opacity="1.0" stroke-linecap="round" stroke-linejoin="round"/>
    <path d="M 170.12725830078125 114.29878997802734 C 130.97523498535156 115.6923828125 159.95758056640625 114.02249145507812 132.85885620117188 105.70323944091797" stroke-width="3.0" fill="none" stroke="rgb(0, 0, 0)" stroke-opacity="1.0" stroke-linecap="round" stroke-linejoin="round"/>
    <path d="M 104.96734619140625 184.26986694335938 C 106.07502746582031 185.72247314453125 112.039794921875 190.48646545410156 110.82261657714844 189.03150939941406" stroke-width="3.0" fill="none" stroke="rgb(0, 0, 0)" stroke-opacity="1.0" stroke-linecap="round" stroke-linejoin="round"/>
    <path d="M 172.50387573242188 25.63336181640625 C 186.8545684814453 32.553462982177734 227.4000244140625 72.40897369384766 216.42665100097656 127.31954193115234" stroke-width="3.0" fill="none" stroke="rgb(0, 0, 0)" stroke-opacity="1.0" stroke-linecap="round" stroke-linejoin="round"/>
    <path d="M 105.8011703491211 82.1764144897461 C 143.66761779785156 81.4861068725586 138.5926055908203 80.68229675292969 130.14071655273438 97.2725601196289" stroke-width="3.0" fill="none" stroke="rgb(0, 0, 0)" stroke-opacity="1.0" stroke-linecap="round" stroke-linejoin="round"/>
    <path d="M 59.828887939453125 20.11444664001465 C 121.9548568725586 -11.387153625488281 166.99815368652344 18.923372268676758 183.18067932128906 34.39837646484375" stroke-width="3.0" fill="none" stroke="rgb(0, 0, 0)" stroke-opacity="1.0" stroke-linecap="round" stroke-linejoin="round"/>
    <path d="M 135.7740020751953 134.60572814941406 C 133.36697387695312 150.84495544433594 123.9610595703125 130.0790252685547 128.52639770507812 134.159423828125" stroke-width="3.0" fill="none" stroke="rgb(0, 0, 0)" stroke-opacity="1.0" stroke-linecap="round" stroke-linejoin="round"/>
    <path d="M 71.02445220947266 136.27285766601562 C 57.28512191772461 143.19589233398438 79.3369140625 150.6711883544922 29.844804763793945 146.04159545898438" stroke-width="3.0" fill="none" stroke="rgb(0, 0, 0)" stroke-opacity="1.0" stroke-linecap="round" stroke-linejoin="round"/>
    <path d="M 169.62863159179688 134.2884063720703 C 191.13836669921875 164.74453735351562 184.545654296875 103.05758666992188 176.4193115234375 127.11247253417969" stroke-width="3.0" fill="none" stroke="rgb(0, 0, 0)" stroke-opacity="1.0" stroke-linecap="round" stroke-linejoin="round"/>
    <path d="M 136.8387908935547 204.43124389648438 C 106.91069030761719 190.91380310058594 97.21694946289062 187.53416442871094 113.1229248046875 198.0048370361328" stroke-width="3.0" fill="none" stroke="rgb(0, 0, 0)" stroke-opacity="1.0" stroke-linecap="round" stroke-linejoin="round"/>
    <path d="M 52.55663299560547 135.38400268554688 C 61.804744720458984 113.78726196289062 58.51102066040039 131.55062866210938 28.95229148864746 121.31560516357422" stroke-width="3.0" fill="none" stroke="rgb(0, 0, 0)" stroke-opacity="1.0" stroke-linecap="round" stroke-linejoin="round"/>
    <path d="M 97.53166961669922 93.44583892822266 C 44.74140930175781 87.66377258300781 -11.764140129089355 102.20683288574219 53.68479919433594 106.3695068359375" stroke-width="3.0" fill="none" stroke="rgb(0, 0, 0)" stroke-opacity="1.0" stroke-linecap="round" stroke-linejoin="round"/>
    <path d="M 72.09734344482422 111.2231674194336 C 72.28802490234375 119.91077423095703 85.6359634399414 110.81062316894531 56.9201774597168 112.37482452392578" stroke-width="3.0" fill="none" stroke="rgb(0, 0, 0)" stroke-opacity="1.0" stroke-linecap="round" stroke-linejoin="round"/>
    <path d="M 158.05105590820312 101.24093627929688 C 112.21247100830078 83.14358520507812 154.08876037597656 96.04548645019531 166.56565856933594 97.93452453613281" stroke-width="3.0" fill="none" stroke="rgb(0, 0, 0)" stroke-opacity="1.0" stroke-linecap="round" stroke-linejoin="round"/>
    <path d="M 92.09893798828125 110.7530288696289 C 71.70995330810547 134.52322387695312 93.74217224121094 154.90383911132812 82.22119903564453 141.099609375" stroke-width="3.0" fill="none" stroke="rgb(0, 0, 0)" stroke-opacity="1.0" stroke-linecap="round" stroke-linejoin="round"/>
    <path d="M 20.989595413208008 62.04707717895508 C 18.124897003173828 70.74040222167969 13.436140060424805 75.52278137207031 12.349853515625 109.09698486328125" stroke-width="3.0" fill="none" stroke="rgb(0, 0, 0)" stroke-opacity="1.0" stroke-linecap="round" stroke-linejoin="round"/>
    <path d="M 184.63894653320312 182.72012329101562 C 198.71815490722656 167.00640869140625 205.24496459960938 168.3832244873047 218.22576904296875 120.64328002929688" stroke-width="3.0" fill="none" stroke="rgb(0, 0, 0)" stroke-opacity="1.0" stroke-linecap="round" stroke-linejoin="round"/>
    <path d="M 147.76222229003906 115.01183319091797 C 212.6973876953125 118.81204986572266 208.86244201660156 113.2063980102539 145.2089080810547 111.17547607421875" stroke-width="3.0" fill="none" stroke="rgb(0, 0, 0)" stroke-opacity="1.0" stroke-linecap="round" stroke-linejoin="round"/>
    <path d="M 147.2697296142578 96.8504638671875 C 211.74343872070312 115.0196533203125 181.54226684570312 101.2433090209961 168.4918975830078 131.6683807373047" stroke-width="3.0" fill="none" stroke="rgb(0, 0, 0)" stroke-opacity="1.0" stroke-linecap="round" stroke-linejoin="round"/>
    <path d="M 144.55892944335938 98.36358642578125 C 148.9454803466797 96.4107437133789 134.2108154296875 116.3753662109375 139.02232360839844 83.78973388671875" stroke-width="3.0" fill="none" stroke="rgb(0, 0, 0)" stroke-opacity="1.0" stroke-linecap="round" stroke-linejoin="round"/>
    <path d="M 78.67659759521484 142.8722381591797 C 121.74319458007812 166.26780700683594 118.17572784423828 81.83177185058594 81.38455200195312 117.9541244506836" stroke-width="3.0" fill="none" stroke="rgb(0, 0, 0)" stroke-opacity="1.0" stroke-linecap="round" stroke-linejoin="round"/>
    <path d="M 193.5303497314453 115.14549255371094 C 198.42311096191406 111.38077545166016 178.2736358642578 128.2134552001953 193.04946899414062 129.19117736816406" stroke-width="3.0" fill="none" stroke="rgb(0, 0, 0)" stroke-opacity="1.0" stroke-linecap="round" stroke-linejoin="round"/>
    <path d="M 143.844482421875 107.66282653808594 C 119.99343872070312 81.02151489257812 175.7916259765625 100.6561050415039 140.28404235839844 101.59166717529297" stroke-width="3.0" fill="none" stroke="rgb(0, 0, 0)" stroke-opacity="1.0" stroke-linecap="round" stroke-linejoin="round"/>
    <path d="M 65.91007232666016 21.709754943847656 C 83.33999633789062 26.455631256103516 72.47559356689453 20.958383560180664 61.18754196166992 18.59580421447754" stroke-width="3.0" fill="none" stroke="rgb(0, 0, 0)" stroke-opacity="1.0" stroke-linecap="round" stroke-linejoin="round"/>
    <path d="M 43.91731643676758 132.7887725830078 C 100.5461654663086 129.50047302246094 84.80934143066406 136.34930419921875 42.3227424621582 135.66424560546875" stroke-width="3.0" fill="none" stroke="rgb(0, 0, 0)" stroke-opacity="1.0" stroke-linecap="round" stroke-linejoin="round"/>
    <path d="M 175.39210510253906 140.7858123779297 C 161.78619384765625 103.12287902832031 200.77626037597656 112.09501647949219 184.07904052734375 141.94984436035156" stroke-width="3.0" fill="none" stroke="rgb(0, 0, 0)" stroke-opacity="1.0" stroke-linecap="round" stroke-linejoin="round"/>
    <path d="M 42.7959098815918 139.31814575195312 C 15.9888277053833 102.06501007080078 7.08987283706665 105.80671691894531 76.35867309570312 109.80509185791016" stroke-width="3.0" fill="none" stroke="rgb(0, 0, 0)" stroke-opacity="1.0" stroke-linecap="round" stroke-linejoin="round"/>
    <path d="M 46.31755447387695 190.8258056640625 C 75.76813507080078 206.28390502929688 56.194541931152344 197.5389404296875 96.2092514038086 211.59097290039062" stroke-width="3.0" fill="none" stroke="rgb(0, 0, 0)" stroke-opacity="1.0" stroke-linecap="round" stroke-linejoin="round"/>
    <path d="M 118.19273376464844 127.3363265991211 C 126.10926818847656 151.72801208496094 135.89743041992188 133.09381103515625 124.52095031738281 138.09825134277344" stroke-width="3.0" fill="none" stroke="rgb(0, 0, 0)" stroke-opacity="1.0" stroke-linecap="round" stroke-linejoin="round"/>
    <path d="M 152.90380859375 111.32721710205078 C 151.65921020507812 102.74462127685547 124.14057159423828 108.07386016845703 180.42822265625 109.76978302001953" stroke-width="3.0" fill="none" stroke="rgb(0, 0, 0)" stroke-opacity="1.0" stroke-linecap="round" stroke-linejoin="round"/>
    <path d="M 79.96019744873047 103.0133285522461 C 97.50846862792969 110.90283966064453 55.794654846191406 93.1236343383789 38.04380416870117 98.52943420410156" stroke-width="3.0" fill="none" stroke="rgb(0, 0, 0)" stroke-opacity="1.0" stroke-linecap="round" stroke-linejoin="round"/>
    <path d="M 23.68256378173828 115.98104858398438 C 79.5992431640625 118.30715942382812 78.23530578613281 123.45712280273438 92.6968765258789 110.55713653564453" stroke-width="3.0" fill="none" stroke="rgb(0, 0, 0)" stroke-opacity="1.0" stroke-linecap="round" stroke-linejoin="round"/>
    <path d="M 20.849441528320312 62.86786651611328 C 46.11247634887695 20.569602966308594 37.55419921875 36.05205535888672 58.157562255859375 20.583276748657227" stroke-width="3.0" fill="none" stroke="rgb(0, 0, 0)" stroke-opacity="1.0" stroke-linecap="round" stroke-linejoin="round"/>
    <path d="M 176.5404510498047 132.49835205078125 C 158.25294494628906 136.0890350341797 137.90162658691406 133.63027954101562 112.82302856445312 136.08082580566406" stroke-width="3.0" fill="none" stroke="rgb(0, 0, 0)" stroke-opacity="1.0" stroke-linecap="round" stroke-linejoin="round"/>
    <path d="M 40.31879806518555 131.94064331054688 C 51.178619384765625 148.20692443847656 79.70809936523438 140.60789489746094 27.520771026611328 121.99039459228516" stroke-width="3.0" fill="none" stroke="rgb(0, 0, 0)" stroke-opacity="1.0" stroke-linecap="round" stroke-linejoin="round"/>
    <path d="M 96.96781921386719 89.0821304321289 C 109.81021118164062 74.84005737304688 122.07156372070312 89.27738952636719 126.0684585571289 84.1011962890625" stroke-width="3.0" fill="none" stroke="rgb(0, 0, 0)" stroke-opacity="1.0" stroke-linecap="round" stroke-linejoin="round"/>
    <path d="M 163.4086151123047 98.65343475341797 C 175.20181274414062 87.61882781982422 142.53182983398438 84.62159729003906 131.139404296875 82.48033142089844" stroke-width="3.0" fill="none" stroke="rgb(0, 0, 0)" stroke-opacity="1.0" stroke-linecap="round" stroke-linejoin="round"/>
  </g>
</svg>
