<?xml version="1.0" ?>
<svg xmlns="http://www.w3.org/2000/svg" version="1.1" width="224" height="224">
  <defs/>
  <g>
    <path d="M 69.7707748413086 108.84309387207031 C 122.5020980834961 89.86687469482422 121.401611328125 148.67552185058594 101.45323181152344 153.71072387695312" stroke-width="3.0" fill="none" stroke="rgb(0, 0, 0)" stroke-opacity="1.0" stroke-linecap="round" stroke-linejoin="round"/>
    <path d="M 86.253662109375 128.70176696777344 C 92.22264862060547 161.85853576660156 75.66153717041016 147.78887939453125 76.95117950439453 135.4117889404297" stroke-width="3.0" fill="none" stroke="rgb(0, 0, 0)" stroke-opacity="1.0" stroke-linecap="round" stroke-linejoin="round"/>
    <path d="M 61.710079193115234 133.75241088867188 C 2.704209089279175 142.08798217773438 -1.9798060655593872 147.12889099121094 77.64484405517578 132.2210693359375" stroke-width="3.0" fill="none" stroke="rgb(0, 0, 0)" stroke-opacity="1.0" stroke-linecap="round" stroke-linejoin="round"/>
    <path d="M 28.277158737182617 121.76676177978516 C 113.79857635498047 123.97622680664062 78.07736206054688 122.59062194824219 79.0381851196289 134.5804901123047" stroke-width="3.0" fill="none" stroke="rgb(0, 0, 0)" stroke-opacity="1.0" stroke-linecap="round" stroke-linejoin="round"/>
    <path d="M 93.0272445678711 95.93588256835938 C 196.17831420898438 107.9367446899414 185.7201385498047 97.67758178710938 104.19026947021484 93.65982818603516" stroke-width="3.0" fill="none" stroke="rgb(0, 0, 0)" stroke-opacity="1.0" stroke-linecap="round" stroke-linejoin="round"/>
    <path d="M 171.61097717285156 140.9586639404297 C 161.06834411621094 110.35286712646484 224.08529663085938 116.56153869628906 145.46597290039062 106.83647155761719" stroke-width="3.0" fill="none" stroke="rgb(0, 0, 0)" stroke-opacity="1.0" stroke-linecap="round" stroke-linejoin="round"/>
    <path d="M 31.24842643737793 98.48223876953125 C 152.77401733398438 85.5210952758789 138.78692626953125 78.08899688720703 33.576087951660156 94.62096405029297" stroke-width="3.0" fill="none" stroke="rgb(0, 0, 0)" stroke-opacity="1.0" stroke-linecap="round" stroke-linejoin="round"/>
    <path d="M 77.06500244140625 142.2078094482422 C 100.99236297607422 130.84356689453125 77.51847839355469 135.4724578857422 37.67036056518555 133.8388214111328" stroke-width="3.0" fill="none" stroke="rgb(0, 0, 0)" stroke-opacity="1.0" stroke-linecap="round" stroke-linejoin="round"/>
    <path d="M 121.70719146728516 210.16116333007812 C 187.2752685546875 194.3903045654297 141.0345916748047 205.095458984375 176.75628662109375 194.59872436523438" stroke-width="3.0" fill="none" stroke="rgb(0, 0, 0)" stroke-opacity="1.0" stroke-linecap="round" stroke-linejoin="round"/>
    <path d="M 151.3371124267578 107.2432632446289 C 193.06236267089844 105.40535736083984 181.3082275390625 128.33944702148438 188.04159545898438 115.86558532714844" stroke-width="3.0" fill="none" stroke="rgb(0, 0, 0)" stroke-opacity="1.0" stroke-linecap="round" stroke-linejoin="round"/>
    <path d="M 104.29138946533203 103.50203704833984 C 135.30601501464844 121.53125 95.81642150878906 140.39564514160156 150.9866180419922 139.43080139160156" stroke-width="3.0" fill="none" stroke="rgb(0, 0, 0)" stroke-opacity="1.0" stroke-linecap="round" stroke-linejoin="round"/>
    <path d="M 40.57300567626953 102.53046417236328 C 142.70635986328125 99.9145278930664 95.02230072021484 116.58647918701172 31.933977127075195 108.45572662353516" stroke-width="3.0" fill="none" stroke="rgb(0, 0, 0)" stroke-opacity="1.0" stroke-linecap="round" stroke-linejoin="round"/>
    <path d="M 188.28968811035156 117.6441650390625 C 140.260009765625 108.86869049072266 166.21080017089844 112.69095611572266 96.58207702636719 106.01266479492188" stroke-width="3.0" fill="none" stroke="rgb(0, 0, 0)" stroke-opacity="1.0" stroke-linecap="round" stroke-linejoin="round"/>
    <path d="M 56.98541259765625 195.77828979492188 C 86.75714111328125 214.06756591796875 108.4901123046875 212.73516845703125 121.75665283203125 209.7708282470703" stroke-width="3.0" fill="none" stroke="rgb(0, 0, 0)" stroke-opacity="1.0" stroke-linecap="round" stroke-linejoin="round"/>
    <path d="M 174.755859375 25.210206985473633 C 189.2605743408203 34.64265441894531 229.91647338867188 80.68589782714844 214.00413513183594 137.4860076904297" stroke-width="3.0" fill="none" stroke="rgb(0, 0, 0)" stroke-opacity="1.0" stroke-linecap="round" stroke-linejoin="round"/>
    <path d="M 87.38199615478516 85.13074493408203 C 140.0968475341797 69.74090576171875 148.66989135742188 86.47645568847656 133.6428985595703 95.45783996582031" stroke-width="3.0" fill="none" stroke="rgb(0, 0, 0)" stroke-opacity="1.0" stroke-linecap="round" stroke-linejoin="round"/>
    <path d="M 71.62667846679688 30.41756820678711 C 87.1107406616211 -18.155845642089844 173.09783935546875 12.767406463623047 190.30892944335938 41.71377944946289" stroke-width="3.0" fill="none" stroke="rgb(0, 0, 0)" stroke-opacity="1.0" stroke-linecap="round" stroke-linejoin="round"/>
    <path d="M 117.76824951171875 133.72384643554688 C 143.9023895263672 150.42587280273438 176.3204345703125 134.19520568847656 131.12489318847656 142.92425537109375" stroke-width="3.0" fill="none" stroke="rgb(0, 0, 0)" stroke-opacity="1.0" stroke-linecap="round" stroke-linejoin="round"/>
    <path d="M 69.57704162597656 131.95860290527344 C 59.32316970825195 148.660888671875 49.62139129638672 156.16162109375 39.37173080444336 126.90779876708984" stroke-width="3.0" fill="none" stroke="rgb(0, 0, 0)" stroke-opacity="1.0" stroke-linecap="round" stroke-linejoin="round"/>
    <path d="M 173.6832275390625 143.61468505859375 C 186.40966796875 158.15084838867188 182.3434600830078 105.43020629882812 177.6732177734375 132.29779052734375" stroke-width="3.0" fill="none" stroke="rgb(0, 0, 0)" stroke-opacity="1.0" stroke-linecap="round" stroke-linejoin="round"/>
    <path d="M 135.6208038330078 206.25709533691406 C 103.11284637451172 208.4757843017578 98.63678741455078 209.14971923828125 132.6310577392578 207.61244201660156" stroke-width="3.0" fill="none" stroke="rgb(0, 0, 0)" stroke-opacity="1.0" stroke-linecap="round" stroke-linejoin="round"/>
    <path d="M 52.62413024902344 120.46564483642578 C 81.74398803710938 132.88673400878906 51.84867858886719 157.15110778808594 38.56342697143555 124.0953140258789" stroke-width="3.0" fill="none" stroke="rgb(0, 0, 0)" stroke-opacity="1.0" stroke-linecap="round" stroke-linejoin="round"/>
    <path d="M 106.33937072753906 93.72427368164062 C 64.43865203857422 96.52716827392578 16.174922943115234 96.91468811035156 92.77471923828125 96.29122924804688" stroke-width="3.0" fill="none" stroke="rgb(0, 0, 0)" stroke-opacity="1.0" stroke-linecap="round" stroke-linejoin="round"/>
    <path d="M 81.90103149414062 107.07980346679688 C 90.58946990966797 101.02226257324219 101.26448059082031 142.3592987060547 42.2043342590332 128.1949920654297" stroke-width="3.0" fill="none" stroke="rgb(0, 0, 0)" stroke-opacity="1.0" stroke-linecap="round" stroke-linejoin="round"/>
    <path d="M 151.40420532226562 97.80778503417969 C 97.02798461914062 86.74166107177734 157.5855712890625 101.86358642578125 153.47398376464844 97.39955139160156" stroke-width="3.0" fill="none" stroke="rgb(0, 0, 0)" stroke-opacity="1.0" stroke-linecap="round" stroke-linejoin="round"/>
    <path d="M 96.64440155029297 124.38401794433594 C 65.58942413330078 152.2999725341797 112.8073959350586 151.4173126220703 82.96888732910156 142.22833251953125" stroke-width="3.0" fill="none" stroke="rgb(0, 0, 0)" stroke-opacity="1.0" stroke-linecap="round" stroke-linejoin="round"/>
    <path d="M 26.090539932250977 50.203369140625 C 20.314163208007812 64.28118133544922 3.405216932296753 100.72630310058594 10.682860374450684 126.16236114501953" stroke-width="3.0" fill="none" stroke="rgb(0, 0, 0)" stroke-opacity="1.0" stroke-linecap="round" stroke-linejoin="round"/>
    <path d="M 179.31651306152344 192.36708068847656 C 189.62367248535156 177.15994262695312 223.3732452392578 150.8146514892578 216.34542846679688 99.87024688720703" stroke-width="3.0" fill="none" stroke="rgb(0, 0, 0)" stroke-opacity="1.0" stroke-linecap="round" stroke-linejoin="round"/>
    <path d="M 151.6606903076172 106.82595825195312 C 207.11021423339844 120.83271026611328 193.7889862060547 111.78263854980469 175.0712432861328 104.39744567871094" stroke-width="3.0" fill="none" stroke="rgb(0, 0, 0)" stroke-opacity="1.0" stroke-linecap="round" stroke-linejoin="round"/>
    <path d="M 131.04425048828125 92.00868225097656 C 249.11090087890625 128.709228515625 157.07586669921875 95.77951049804688 174.05746459960938 146.2112274169922" stroke-width="3.0" fill="none" stroke="rgb(0, 0, 0)" stroke-opacity="1.0" stroke-linecap="round" stroke-linejoin="round"/>
    <path d="M 143.09657287597656 93.12194061279297 C 139.3519744873047 79.38197326660156 116.91258239746094 111.84197235107422 133.51123046875 79.73827362060547" stroke-width="3.0" fill="none" stroke="rgb(0, 0, 0)" stroke-opacity="1.0" stroke-linecap="round" stroke-linejoin="round"/>
    <path d="M 81.32349395751953 149.31954956054688 C 128.9918670654297 151.99427795410156 91.6866455078125 82.15287780761719 91.72213745117188 136.27108764648438" stroke-width="3.0" fill="none" stroke="rgb(0, 0, 0)" stroke-opacity="1.0" stroke-linecap="round" stroke-linejoin="round"/>
    <path d="M 188.40623474121094 117.58143615722656 C 192.60813903808594 102.57007598876953 184.77479553222656 133.2764434814453 189.74058532714844 113.4819564819336" stroke-width="3.0" fill="none" stroke="rgb(0, 0, 0)" stroke-opacity="1.0" stroke-linecap="round" stroke-linejoin="round"/>
    <path d="M 139.9532012939453 94.31004333496094 C 109.14881134033203 94.57896423339844 191.17591857910156 101.10882568359375 136.5211639404297 96.677734375" stroke-width="3.0" fill="none" stroke="rgb(0, 0, 0)" stroke-opacity="1.0" stroke-linecap="round" stroke-linejoin="round"/>
    <path d="M 54.34735870361328 12.395147323608398 C 89.92899322509766 -16.19603729248047 80.68798065185547 -17.897891998291016 58.10377883911133 11.949112892150879" stroke-width="3.0" fill="none" stroke="rgb(0, 0, 0)" stroke-opacity="1.0" stroke-linecap="round" stroke-linejoin="round"/>
    <path d="M 34.385013580322266 125.72505950927734 C 112.4374008178711 135.09271240234375 103.79570770263672 161.1727752685547 33.78219985961914 143.361328125" stroke-width="3.0" fill="none" stroke="rgb(0, 0, 0)" stroke-opacity="1.0" stroke-linecap="round" stroke-linejoin="round"/>
    <path d="M 176.0063018798828 141.46458435058594 C 162.84642028808594 104.67079162597656 199.99417114257812 117.04008483886719 179.46878051757812 145.13514709472656" stroke-width="3.0" fill="none" stroke="rgb(0, 0, 0)" stroke-opacity="1.0" stroke-linecap="round" stroke-linejoin="round"/>
    <path d="M 60.58567428588867 140.0699920654297 C 12.024888038635254 121.8338623046875 30.433435440063477 91.5068359375 86.87474822998047 109.64926147460938" stroke-width="3.0" fill="none" stroke="rgb(0, 0, 0)" stroke-opacity="1.0" stroke-linecap="round" stroke-linejoin="round"/>
    <path d="M 8.07056713104248 120.07554626464844 C 17.571271896362305 192.80552673339844 74.65794372558594 206.87332153320312 110.31275939941406 208.79017639160156" stroke-width="3.0" fill="none" stroke="rgb(0, 0, 0)" stroke-opacity="1.0" stroke-linecap="round" stroke-linejoin="round"/>
    <path d="M 83.75704956054688 152.61280822753906 C 152.2271270751953 153.7161102294922 155.5580291748047 149.8296661376953 107.9966812133789 150.29217529296875" stroke-width="3.0" fill="none" stroke="rgb(0, 0, 0)" stroke-opacity="1.0" stroke-linecap="round" stroke-linejoin="round"/>
    <path d="M 157.75662231445312 111.10444641113281 C 149.70950317382812 109.33393096923828 124.59503936767578 103.9656982421875 189.7032928466797 115.03689575195312" stroke-width="3.0" fill="none" stroke="rgb(0, 0, 0)" stroke-opacity="1.0" stroke-linecap="round" stroke-linejoin="round"/>
    <path d="M 51.10285568237305 97.94117736816406 C 86.14543914794922 120.83704376220703 45.667388916015625 91.79176330566406 48.7511100769043 120.63843536376953" stroke-width="3.0" fill="none" stroke="rgb(0, 0, 0)" stroke-opacity="1.0" stroke-linecap="round" stroke-linejoin="round"/>
    <path d="M 33.44490432739258 111.69026947021484 C 111.29586029052734 118.00904846191406 77.61884307861328 117.00641632080078 99.28092193603516 105.79304504394531" stroke-width="3.0" fill="none" stroke="rgb(0, 0, 0)" stroke-opacity="1.0" stroke-linecap="round" stroke-linejoin="round"/>
    <path d="M 26.917648315429688 48.64308166503906 C 45.264652252197266 25.39630126953125 39.97193145751953 26.941335678100586 63.240135192871094 6.651517868041992" stroke-width="3.0" fill="none" stroke="rgb(0, 0, 0)" stroke-opacity="1.0" stroke-linecap="round" stroke-linejoin="round"/>
    <path d="M 181.31687927246094 142.78619384765625 C 162.0596160888672 141.27780151367188 79.48381042480469 146.02334594726562 127.16194915771484 140.0734100341797" stroke-width="3.0" fill="none" stroke="rgb(0, 0, 0)" stroke-opacity="1.0" stroke-linecap="round" stroke-linejoin="round"/>
    <path d="M 42.96098327636719 137.15476989746094 C 87.63626098632812 136.92440795898438 126.67717742919922 132.43763732910156 42.62940979003906 134.1345672607422" stroke-width="3.0" fill="none" stroke="rgb(0, 0, 0)" stroke-opacity="1.0" stroke-linecap="round" stroke-linejoin="round"/>
    <path d="M 101.54773712158203 87.30713653564453 C 96.72173309326172 87.38937377929688 119.57752227783203 83.76580047607422 126.36390686035156 85.28083038330078" stroke-width="3.0" fill="none" stroke="rgb(0, 0, 0)" stroke-opacity="1.0" stroke-linecap="round" stroke-linejoin="round"/>
    <path d="M 162.8810577392578 98.17855072021484 C 180.06045532226562 95.36979675292969 134.4590301513672 78.35960388183594 113.66661834716797 80.98526000976562" stroke-width="3.0" fill="none" stroke="rgb(0, 0, 0)" stroke-opacity="1.0" stroke-linecap="round" stroke-linejoin="round"/>
  </g>
</svg>
