<?xml version="1.0" ?>
<svg xmlns="http://www.w3.org/2000/svg" version="1.1" width="224" height="224">
  <defs/>
  <g>
    <path d="M 71.610107421875 109.27960205078125 C 125.8890609741211 94.26058197021484 118.4237289428711 152.10952758789062 96.0191421508789 150.28515625" stroke-width="3.0" fill="none" stroke="rgb(0, 0, 0)" stroke-opacity="1.0" stroke-linecap="round" stroke-linejoin="round"/>
    <path d="M 77.73381805419922 118.5660171508789 C 88.96029663085938 160.49171447753906 78.12001037597656 144.35049438476562 79.207275390625 131.44586181640625" stroke-width="3.0" fill="none" stroke="rgb(0, 0, 0)" stroke-opacity="1.0" stroke-linecap="round" stroke-linejoin="round"/>
    <path d="M 64.94165802001953 132.07965087890625 C 34.77131271362305 170.10946655273438 30.959224700927734 165.8480682373047 79.92051696777344 135.4755859375" stroke-width="3.0" fill="none" stroke="rgb(0, 0, 0)" stroke-opacity="1.0" stroke-linecap="round" stroke-linejoin="round"/>
    <path d="M 44.35027313232422 124.71173095703125 C 115.45716094970703 134.76840209960938 77.12799835205078 120.69651794433594 85.76116180419922 142.1686248779297" stroke-width="3.0" fill="none" stroke="rgb(0, 0, 0)" stroke-opacity="1.0" stroke-linecap="round" stroke-linejoin="round"/>
    <path d="M 97.04728698730469 81.57213592529297 C 200.7117919921875 86.26551055908203 189.88697814941406 101.2264633178711 104.61941528320312 95.48063659667969" stroke-width="3.0" fill="none" stroke="rgb(0, 0, 0)" stroke-opacity="1.0" stroke-linecap="round" stroke-linejoin="round"/>
    <path d="M 168.6798553466797 137.72280883789062 C 170.70782470703125 106.00967407226562 211.74208068847656 114.07486724853516 143.25294494628906 107.10285949707031" stroke-width="3.0" fill="none" stroke="rgb(0, 0, 0)" stroke-opacity="1.0" stroke-linecap="round" stroke-linejoin="round"/>
    <path d="M 31.661151885986328 99.76751708984375 C 173.00267028808594 94.87220764160156 165.0936279296875 88.68895721435547 48.07318115234375 88.99675750732422" stroke-width="3.0" fill="none" stroke="rgb(0, 0, 0)" stroke-opacity="1.0" stroke-linecap="round" stroke-linejoin="round"/>
    <path d="M 92.65126037597656 138.8574981689453 C 92.8055191040039 135.55775451660156 78.60240173339844 135.94168090820312 41.34214401245117 132.5039520263672" stroke-width="3.0" fill="none" stroke="rgb(0, 0, 0)" stroke-opacity="1.0" stroke-linecap="round" stroke-linejoin="round"/>
    <path d="M 108.15531921386719 212.65435791015625 C 188.66082763671875 195.43923950195312 152.67999267578125 204.31057739257812 178.8357696533203 191.47512817382812" stroke-width="3.0" fill="none" stroke="rgb(0, 0, 0)" stroke-opacity="1.0" stroke-linecap="round" stroke-linejoin="round"/>
    <path d="M 162.31993103027344 108.75316619873047 C 202.70230102539062 111.50455474853516 184.1449737548828 126.7637939453125 193.3168487548828 112.04490661621094" stroke-width="3.0" fill="none" stroke="rgb(0, 0, 0)" stroke-opacity="1.0" stroke-linecap="round" stroke-linejoin="round"/>
    <path d="M 103.08625030517578 104.29447937011719 C 131.17149353027344 120.19634246826172 97.6275863647461 152.9227752685547 154.74050903320312 152.51361083984375" stroke-width="3.0" fill="none" stroke="rgb(0, 0, 0)" stroke-opacity="1.0" stroke-linecap="round" stroke-linejoin="round"/>
    <path d="M 38.96560287475586 104.03703308105469 C 132.5099334716797 97.8661880493164 83.10591888427734 118.49468994140625 32.15707015991211 107.19400024414062" stroke-width="3.0" fill="none" stroke="rgb(0, 0, 0)" stroke-opacity="1.0" stroke-linecap="round" stroke-linejoin="round"/>
    <path d="M 188.1773223876953 108.60726165771484 C 154.11785888671875 106.61870574951172 170.13026428222656 109.08456420898438 86.70303344726562 102.4977798461914" stroke-width="3.0" fill="none" stroke="rgb(0, 0, 0)" stroke-opacity="1.0" stroke-linecap="round" stroke-linejoin="round"/>
    <path d="M 37.091060638427734 181.26280212402344 C 78.4652099609375 217.9022979736328 116.90205383300781 212.00509643554688 130.3126220703125 209.19305419921875" stroke-width="3.0" fill="none" stroke="rgb(0, 0, 0)" stroke-opacity="1.0" stroke-linecap="round" stroke-linejoin="round"/>
    <path d="M 177.4822540283203 27.62168312072754 C 189.09303283691406 37.13112258911133 231.93687438964844 78.41105651855469 211.72776794433594 130.1089324951172" stroke-width="3.0" fill="none" stroke="rgb(0, 0, 0)" stroke-opacity="1.0" stroke-linecap="round" stroke-linejoin="round"/>
    <path d="M 90.37689971923828 86.11930847167969 C 140.2833251953125 67.42704010009766 154.86166381835938 91.23888397216797 133.1082305908203 95.83219909667969" stroke-width="3.0" fill="none" stroke="rgb(0, 0, 0)" stroke-opacity="1.0" stroke-linecap="round" stroke-linejoin="round"/>
    <path d="M 72.00865936279297 28.495014190673828 C 89.6230697631836 -14.485032081604004 174.49192810058594 11.341184616088867 191.492919921875 43.351627349853516" stroke-width="3.0" fill="none" stroke="rgb(0, 0, 0)" stroke-opacity="1.0" stroke-linecap="round" stroke-linejoin="round"/>
    <path d="M 113.20816802978516 137.78897094726562 C 160.0706024169922 140.14952087402344 194.72666931152344 137.3525848388672 133.3081817626953 140.42962646484375" stroke-width="3.0" fill="none" stroke="rgb(0, 0, 0)" stroke-opacity="1.0" stroke-linecap="round" stroke-linejoin="round"/>
    <path d="M 80.50309753417969 122.98937225341797 C 69.5408935546875 145.44964599609375 49.96040725708008 159.05276489257812 35.283573150634766 127.62995910644531" stroke-width="3.0" fill="none" stroke="rgb(0, 0, 0)" stroke-opacity="1.0" stroke-linecap="round" stroke-linejoin="round"/>
    <path d="M 171.24325561523438 145.5155487060547 C 192.22071838378906 159.01731872558594 181.0359649658203 102.49555206298828 178.54409790039062 136.03868103027344" stroke-width="3.0" fill="none" stroke="rgb(0, 0, 0)" stroke-opacity="1.0" stroke-linecap="round" stroke-linejoin="round"/>
    <path d="M 168.37535095214844 196.55628967285156 C 100.08548736572266 184.4985809326172 100.89675903320312 182.49569702148438 163.11375427246094 198.4501953125" stroke-width="3.0" fill="none" stroke="rgb(0, 0, 0)" stroke-opacity="1.0" stroke-linecap="round" stroke-linejoin="round"/>
    <path d="M 70.21881103515625 110.16326904296875 C 69.50006103515625 138.96380615234375 53.68061828613281 155.14877319335938 40.509159088134766 122.82173919677734" stroke-width="3.0" fill="none" stroke="rgb(0, 0, 0)" stroke-opacity="1.0" stroke-linecap="round" stroke-linejoin="round"/>
    <path d="M 111.74147033691406 91.99624633789062 C 84.46966552734375 83.42859649658203 42.457908630371094 90.77745056152344 100.00120544433594 89.28231811523438" stroke-width="3.0" fill="none" stroke="rgb(0, 0, 0)" stroke-opacity="1.0" stroke-linecap="round" stroke-linejoin="round"/>
    <path d="M 76.27374267578125 108.90103912353516 C 84.2181167602539 104.0029067993164 110.28276824951172 135.67825317382812 52.24470901489258 116.78025817871094" stroke-width="3.0" fill="none" stroke="rgb(0, 0, 0)" stroke-opacity="1.0" stroke-linecap="round" stroke-linejoin="round"/>
    <path d="M 155.47398376464844 101.01020812988281 C 85.82630920410156 95.5542221069336 156.7389678955078 99.9849624633789 162.33847045898438 97.58715057373047" stroke-width="3.0" fill="none" stroke="rgb(0, 0, 0)" stroke-opacity="1.0" stroke-linecap="round" stroke-linejoin="round"/>
    <path d="M 95.85963439941406 119.45221710205078 C 70.6734848022461 155.46536254882812 115.64356231689453 152.4100341796875 85.26029968261719 143.2500457763672" stroke-width="3.0" fill="none" stroke="rgb(0, 0, 0)" stroke-opacity="1.0" stroke-linecap="round" stroke-linejoin="round"/>
    <path d="M 23.395709991455078 50.08148193359375 C 18.16905975341797 64.17417907714844 0.3979823887348175 96.427490234375 8.964866638183594 130.6392822265625" stroke-width="3.0" fill="none" stroke="rgb(0, 0, 0)" stroke-opacity="1.0" stroke-linecap="round" stroke-linejoin="round"/>
    <path d="M 181.68629455566406 189.89889526367188 C 189.6189727783203 179.1082000732422 226.8026885986328 145.37155151367188 216.9312744140625 98.18818664550781" stroke-width="3.0" fill="none" stroke="rgb(0, 0, 0)" stroke-opacity="1.0" stroke-linecap="round" stroke-linejoin="round"/>
    <path d="M 156.66064453125 108.15525817871094 C 228.8067169189453 115.70919036865234 209.48739624023438 110.35285949707031 173.10513305664062 99.39566040039062" stroke-width="3.0" fill="none" stroke="rgb(0, 0, 0)" stroke-opacity="1.0" stroke-linecap="round" stroke-linejoin="round"/>
    <path d="M 132.26773071289062 89.54297637939453 C 256.3724060058594 119.25135040283203 149.1729736328125 89.3253402709961 175.17605590820312 144.67333984375" stroke-width="3.0" fill="none" stroke="rgb(0, 0, 0)" stroke-opacity="1.0" stroke-linecap="round" stroke-linejoin="round"/>
    <path d="M 141.39328002929688 92.62178802490234 C 137.02252197265625 62.41365051269531 124.85545349121094 122.07643127441406 134.18943786621094 82.16397094726562" stroke-width="3.0" fill="none" stroke="rgb(0, 0, 0)" stroke-opacity="1.0" stroke-linecap="round" stroke-linejoin="round"/>
    <path d="M 66.78691101074219 150.84373474121094 C 136.3053436279297 154.50979614257812 87.33401489257812 89.13449096679688 100.78041076660156 133.3384246826172" stroke-width="3.0" fill="none" stroke="rgb(0, 0, 0)" stroke-opacity="1.0" stroke-linecap="round" stroke-linejoin="round"/>
    <path d="M 184.96739196777344 117.64169311523438 C 184.3633575439453 103.64964294433594 194.56027221679688 131.07081604003906 189.0172576904297 135.1890869140625" stroke-width="3.0" fill="none" stroke="rgb(0, 0, 0)" stroke-opacity="1.0" stroke-linecap="round" stroke-linejoin="round"/>
    <path d="M 137.40374755859375 95.06468963623047 C 106.77289581298828 92.46219635009766 194.68350219726562 101.79622650146484 141.7051544189453 96.24920654296875" stroke-width="3.0" fill="none" stroke="rgb(0, 0, 0)" stroke-opacity="1.0" stroke-linecap="round" stroke-linejoin="round"/>
    <path d="M 59.47093963623047 10.432334899902344 C 92.96592712402344 -16.19272804260254 94.12062072753906 -13.987414360046387 64.7933578491211 9.061392784118652" stroke-width="3.0" fill="none" stroke="rgb(0, 0, 0)" stroke-opacity="1.0" stroke-linecap="round" stroke-linejoin="round"/>
    <path d="M 27.537878036499023 124.97955322265625 C 106.78099822998047 138.67758178710938 114.01066589355469 155.95518493652344 39.34329605102539 141.91116333007812" stroke-width="3.0" fill="none" stroke="rgb(0, 0, 0)" stroke-opacity="1.0" stroke-linecap="round" stroke-linejoin="round"/>
    <path d="M 172.49388122558594 143.0832061767578 C 162.52857971191406 102.26641845703125 205.76300048828125 115.42456817626953 182.2364501953125 145.96969604492188" stroke-width="3.0" fill="none" stroke="rgb(0, 0, 0)" stroke-opacity="1.0" stroke-linecap="round" stroke-linejoin="round"/>
    <path d="M 55.46525573730469 135.8311004638672 C 6.520772457122803 118.9198226928711 26.01447296142578 85.31616973876953 77.69729614257812 109.18598937988281" stroke-width="3.0" fill="none" stroke="rgb(0, 0, 0)" stroke-opacity="1.0" stroke-linecap="round" stroke-linejoin="round"/>
    <path d="M 6.33841609954834 120.64104461669922 C 13.011090278625488 189.61181640625 76.93359375 219.7032928466797 112.23261260986328 213.06809997558594" stroke-width="3.0" fill="none" stroke="rgb(0, 0, 0)" stroke-opacity="1.0" stroke-linecap="round" stroke-linejoin="round"/>
    <path d="M 69.71896362304688 156.2006378173828 C 172.90240478515625 151.69898986816406 185.6023406982422 141.37510681152344 111.4888916015625 148.52513122558594" stroke-width="3.0" fill="none" stroke="rgb(0, 0, 0)" stroke-opacity="1.0" stroke-linecap="round" stroke-linejoin="round"/>
    <path d="M 172.61941528320312 109.67282104492188 C 139.1674041748047 103.29441833496094 119.82894134521484 102.11824798583984 192.6346435546875 114.59013366699219" stroke-width="3.0" fill="none" stroke="rgb(0, 0, 0)" stroke-opacity="1.0" stroke-linecap="round" stroke-linejoin="round"/>
    <path d="M 42.91712188720703 90.06018829345703 C 25.737733840942383 127.83070373535156 50.03501510620117 86.51712799072266 54.80187225341797 116.04309844970703" stroke-width="3.0" fill="none" stroke="rgb(0, 0, 0)" stroke-opacity="1.0" stroke-linecap="round" stroke-linejoin="round"/>
    <path d="M 28.447168350219727 120.77731323242188 C 115.99092864990234 120.1006088256836 71.09003448486328 121.55733489990234 97.41325378417969 108.85343170166016" stroke-width="3.0" fill="none" stroke="rgb(0, 0, 0)" stroke-opacity="1.0" stroke-linecap="round" stroke-linejoin="round"/>
    <path d="M 25.200851440429688 48.46844482421875 C 46.41128921508789 21.73476219177246 42.15177536010742 25.15924644470215 64.46023559570312 8.64140510559082" stroke-width="3.0" fill="none" stroke="rgb(0, 0, 0)" stroke-opacity="1.0" stroke-linecap="round" stroke-linejoin="round"/>
    <path d="M 180.6126251220703 141.59410095214844 C 181.00482177734375 149.59156799316406 87.2255630493164 150.45872497558594 119.2412109375 133.0393829345703" stroke-width="3.0" fill="none" stroke="rgb(0, 0, 0)" stroke-opacity="1.0" stroke-linecap="round" stroke-linejoin="round"/>
    <path d="M 38.986305236816406 128.94329833984375 C 86.53399658203125 128.4095001220703 122.48602294921875 133.39410400390625 39.8841552734375 130.90609741210938" stroke-width="3.0" fill="none" stroke="rgb(0, 0, 0)" stroke-opacity="1.0" stroke-linecap="round" stroke-linejoin="round"/>
    <path d="M 103.44151306152344 91.42096710205078 C 87.98963165283203 87.6296157836914 116.64957427978516 81.548583984375 111.48677062988281 82.60089874267578" stroke-width="3.0" fill="none" stroke="rgb(0, 0, 0)" stroke-opacity="1.0" stroke-linecap="round" stroke-linejoin="round"/>
    <path d="M 155.44927978515625 100.90963745117188 C 172.9364013671875 88.9251480102539 130.8494110107422 71.8031997680664 107.7254409790039 84.469970703125" stroke-width="3.0" fill="none" stroke="rgb(0, 0, 0)" stroke-opacity="1.0" stroke-linecap="round" stroke-linejoin="round"/>
  </g>
</svg>
