<?xml version="1.0" ?>
<svg xmlns="http://www.w3.org/2000/svg" version="1.1" width="224" height="224">
  <defs/>
  <g>
    <path d="M 75.3043212890625 110.36479949951172 C 123.140869140625 93.1672592163086 120.65169525146484 161.9182586669922 90.96785736083984 152.19920349121094" stroke-width="3.0" fill="none" stroke="rgb(0, 0, 0)" stroke-opacity="1.0" stroke-linecap="round" stroke-linejoin="round"/>
    <path d="M 76.65582275390625 128.6008758544922 C 91.6543960571289 160.69180297851562 87.0135726928711 148.8794708251953 87.28834533691406 127.05970001220703" stroke-width="3.0" fill="none" stroke="rgb(0, 0, 0)" stroke-opacity="1.0" stroke-linecap="round" stroke-linejoin="round"/>
    <path d="M 83.04853820800781 149.39515686035156 C 25.469022750854492 151.501220703125 40.64701843261719 161.88067626953125 80.39698028564453 133.08433532714844" stroke-width="3.0" fill="none" stroke="rgb(0, 0, 0)" stroke-opacity="1.0" stroke-linecap="round" stroke-linejoin="round"/>
    <path d="M 49.84916687011719 121.23047637939453 C 121.5497817993164 132.39955139160156 66.7186050415039 121.33612823486328 57.223175048828125 147.9526824951172" stroke-width="3.0" fill="none" stroke="rgb(0, 0, 0)" stroke-opacity="1.0" stroke-linecap="round" stroke-linejoin="round"/>
    <path d="M 111.58080291748047 86.71360778808594 C 197.81361389160156 92.34662628173828 189.96524047851562 115.90676879882812 118.03673553466797 96.18627166748047" stroke-width="3.0" fill="none" stroke="rgb(0, 0, 0)" stroke-opacity="1.0" stroke-linecap="round" stroke-linejoin="round"/>
    <path d="M 168.08956909179688 134.4003448486328 C 173.75607299804688 101.08047485351562 204.29380798339844 122.927490234375 140.36514282226562 109.9028091430664" stroke-width="3.0" fill="none" stroke="rgb(0, 0, 0)" stroke-opacity="1.0" stroke-linecap="round" stroke-linejoin="round"/>
    <path d="M 30.41122055053711 99.41828918457031 C 182.09591674804688 111.98086547851562 161.83120727539062 97.37525939941406 44.300987243652344 93.725341796875" stroke-width="3.0" fill="none" stroke="rgb(0, 0, 0)" stroke-opacity="1.0" stroke-linecap="round" stroke-linejoin="round"/>
    <path d="M 99.69539642333984 137.78854370117188 C 109.6606216430664 106.86849975585938 90.56883239746094 134.31838989257812 41.630916595458984 131.05917358398438" stroke-width="3.0" fill="none" stroke="rgb(0, 0, 0)" stroke-opacity="1.0" stroke-linecap="round" stroke-linejoin="round"/>
    <path d="M 106.2227554321289 214.4034423828125 C 182.57054138183594 198.25213623046875 166.87567138671875 198.1241455078125 183.24151611328125 190.6278533935547" stroke-width="3.0" fill="none" stroke="rgb(0, 0, 0)" stroke-opacity="1.0" stroke-linecap="round" stroke-linejoin="round"/>
    <path d="M 163.0202178955078 114.15593719482422 C 209.37710571289062 113.39667510986328 186.788330078125 123.61920928955078 198.55270385742188 112.97018432617188" stroke-width="3.0" fill="none" stroke="rgb(0, 0, 0)" stroke-opacity="1.0" stroke-linecap="round" stroke-linejoin="round"/>
    <path d="M 98.32618713378906 103.08161926269531 C 133.6683807373047 108.70098114013672 96.69970703125 148.19515991210938 159.54151916503906 143.6399688720703" stroke-width="3.0" fill="none" stroke="rgb(0, 0, 0)" stroke-opacity="1.0" stroke-linecap="round" stroke-linejoin="round"/>
    <path d="M 31.844160079956055 105.35489654541016 C 134.0216064453125 99.83704376220703 98.84379577636719 120.58529663085938 32.32671356201172 112.95398712158203" stroke-width="3.0" fill="none" stroke="rgb(0, 0, 0)" stroke-opacity="1.0" stroke-linecap="round" stroke-linejoin="round"/>
    <path d="M 181.79859924316406 115.52023315429688 C 153.37045288085938 111.96178436279297 172.3831024169922 108.94520568847656 80.61803436279297 99.34700775146484" stroke-width="3.0" fill="none" stroke="rgb(0, 0, 0)" stroke-opacity="1.0" stroke-linecap="round" stroke-linejoin="round"/>
    <path d="M 30.06165885925293 172.91644287109375 C 76.32633972167969 220.230224609375 117.08345794677734 213.90252685546875 138.2177734375 211.42857360839844" stroke-width="3.0" fill="none" stroke="rgb(0, 0, 0)" stroke-opacity="1.0" stroke-linecap="round" stroke-linejoin="round"/>
    <path d="M 179.20269775390625 30.56977653503418 C 187.01158142089844 37.31059646606445 227.82481384277344 83.2944107055664 215.81573486328125 136.1331787109375" stroke-width="3.0" fill="none" stroke="rgb(0, 0, 0)" stroke-opacity="1.0" stroke-linecap="round" stroke-linejoin="round"/>
    <path d="M 91.5943374633789 87.48474884033203 C 132.38357543945312 67.91128540039062 161.59140014648438 94.70817565917969 134.01878356933594 92.88125610351562" stroke-width="3.0" fill="none" stroke="rgb(0, 0, 0)" stroke-opacity="1.0" stroke-linecap="round" stroke-linejoin="round"/>
    <path d="M 73.66073608398438 29.821760177612305 C 94.51811218261719 -13.590437889099121 171.3502655029297 10.931865692138672 192.553466796875 43.47127914428711" stroke-width="3.0" fill="none" stroke="rgb(0, 0, 0)" stroke-opacity="1.0" stroke-linecap="round" stroke-linejoin="round"/>
    <path d="M 123.16419219970703 133.27626037597656 C 167.0225067138672 136.1323699951172 208.76071166992188 126.57589721679688 120.1884765625 120.034423828125" stroke-width="3.0" fill="none" stroke="rgb(0, 0, 0)" stroke-opacity="1.0" stroke-linecap="round" stroke-linejoin="round"/>
    <path d="M 84.51021575927734 137.7411651611328 C 82.7733154296875 146.93603515625 31.90630531311035 154.04803466796875 38.93511962890625 132.08737182617188" stroke-width="3.0" fill="none" stroke="rgb(0, 0, 0)" stroke-opacity="1.0" stroke-linecap="round" stroke-linejoin="round"/>
    <path d="M 175.0175018310547 142.20277404785156 C 198.11212158203125 149.3491973876953 177.92047119140625 102.18582916259766 178.15399169921875 133.30038452148438" stroke-width="3.0" fill="none" stroke="rgb(0, 0, 0)" stroke-opacity="1.0" stroke-linecap="round" stroke-linejoin="round"/>
    <path d="M 173.25743103027344 192.38711547851562 C 104.41598510742188 186.29417419433594 107.33267974853516 182.65618896484375 168.8148651123047 198.44671630859375" stroke-width="3.0" fill="none" stroke="rgb(0, 0, 0)" stroke-opacity="1.0" stroke-linecap="round" stroke-linejoin="round"/>
    <path d="M 71.33859252929688 106.83959197998047 C 74.97245788574219 134.51124572753906 54.223594665527344 150.8289794921875 32.07906723022461 121.55001068115234" stroke-width="3.0" fill="none" stroke="rgb(0, 0, 0)" stroke-opacity="1.0" stroke-linecap="round" stroke-linejoin="round"/>
    <path d="M 114.6038818359375 84.76176452636719 C 96.39169311523438 85.5692367553711 55.88608932495117 83.09121704101562 114.04753875732422 86.59046936035156" stroke-width="3.0" fill="none" stroke="rgb(0, 0, 0)" stroke-opacity="1.0" stroke-linecap="round" stroke-linejoin="round"/>
    <path d="M 70.70222473144531 118.3527603149414 C 75.596923828125 101.07989501953125 106.97637939453125 119.47119903564453 43.50349807739258 114.6277084350586" stroke-width="3.0" fill="none" stroke="rgb(0, 0, 0)" stroke-opacity="1.0" stroke-linecap="round" stroke-linejoin="round"/>
    <path d="M 150.5325927734375 107.62764739990234 C 87.94508361816406 99.62882995605469 161.2789764404297 109.74851989746094 158.53494262695312 95.40837860107422" stroke-width="3.0" fill="none" stroke="rgb(0, 0, 0)" stroke-opacity="1.0" stroke-linecap="round" stroke-linejoin="round"/>
    <path d="M 96.16706085205078 120.23410034179688 C 66.01575469970703 148.22421264648438 116.04959106445312 149.63311767578125 84.47211456298828 152.1121368408203" stroke-width="3.0" fill="none" stroke="rgb(0, 0, 0)" stroke-opacity="1.0" stroke-linecap="round" stroke-linejoin="round"/>
    <path d="M 26.22343635559082 51.83219528198242 C 18.094972610473633 63.65981674194336 2.501711845397949 96.64659881591797 7.467624664306641 128.2187042236328" stroke-width="3.0" fill="none" stroke="rgb(0, 0, 0)" stroke-opacity="1.0" stroke-linecap="round" stroke-linejoin="round"/>
    <path d="M 185.73687744140625 192.3074951171875 C 191.10621643066406 183.27354431152344 228.03587341308594 147.5228729248047 214.5155487060547 96.43866729736328" stroke-width="3.0" fill="none" stroke="rgb(0, 0, 0)" stroke-opacity="1.0" stroke-linecap="round" stroke-linejoin="round"/>
    <path d="M 151.8193359375 109.73580932617188 C 209.6829833984375 116.70721435546875 198.23590087890625 107.00105285644531 166.7483673095703 99.91131591796875" stroke-width="3.0" fill="none" stroke="rgb(0, 0, 0)" stroke-opacity="1.0" stroke-linecap="round" stroke-linejoin="round"/>
    <path d="M 130.7233428955078 101.97003936767578 C 262.7652282714844 121.31768798828125 144.50177001953125 96.50580596923828 177.59823608398438 141.26734924316406" stroke-width="3.0" fill="none" stroke="rgb(0, 0, 0)" stroke-opacity="1.0" stroke-linecap="round" stroke-linejoin="round"/>
    <path d="M 158.08724975585938 93.49565124511719 C 140.49855041503906 61.8657112121582 122.45816040039062 123.73499298095703 136.158203125 80.36994934082031" stroke-width="3.0" fill="none" stroke="rgb(0, 0, 0)" stroke-opacity="1.0" stroke-linecap="round" stroke-linejoin="round"/>
    <path d="M 66.49140167236328 144.2150115966797 C 140.1672821044922 171.82298278808594 91.75019836425781 87.39636993408203 98.3541259765625 127.45657348632812" stroke-width="3.0" fill="none" stroke="rgb(0, 0, 0)" stroke-opacity="1.0" stroke-linecap="round" stroke-linejoin="round"/>
    <path d="M 174.79159545898438 119.78905487060547 C 182.47891235351562 106.33551025390625 199.83152770996094 136.5997772216797 180.67897033691406 138.73867797851562" stroke-width="3.0" fill="none" stroke="rgb(0, 0, 0)" stroke-opacity="1.0" stroke-linecap="round" stroke-linejoin="round"/>
    <path d="M 136.41311645507812 91.6075210571289 C 104.25505065917969 113.25320434570312 191.83123779296875 108.2132568359375 136.36505126953125 98.34387969970703" stroke-width="3.0" fill="none" stroke="rgb(0, 0, 0)" stroke-opacity="1.0" stroke-linecap="round" stroke-linejoin="round"/>
    <path d="M 59.61058807373047 11.984107971191406 C 98.25247192382812 -12.290949821472168 99.972900390625 -11.02457332611084 64.50621032714844 8.351971626281738" stroke-width="3.0" fill="none" stroke="rgb(0, 0, 0)" stroke-opacity="1.0" stroke-linecap="round" stroke-linejoin="round"/>
    <path d="M 29.033233642578125 122.25531768798828 C 90.05835723876953 142.5025177001953 99.281982421875 138.23370361328125 33.89011001586914 141.3972625732422" stroke-width="3.0" fill="none" stroke="rgb(0, 0, 0)" stroke-opacity="1.0" stroke-linecap="round" stroke-linejoin="round"/>
    <path d="M 175.1968994140625 141.8153076171875 C 165.8013916015625 102.03636169433594 204.32986450195312 114.05030822753906 184.94390869140625 137.7226104736328" stroke-width="3.0" fill="none" stroke="rgb(0, 0, 0)" stroke-opacity="1.0" stroke-linecap="round" stroke-linejoin="round"/>
    <path d="M 53.772010803222656 147.08255004882812 C 11.830855369567871 119.84842681884766 31.13853645324707 78.13835144042969 60.80360412597656 105.18293762207031" stroke-width="3.0" fill="none" stroke="rgb(0, 0, 0)" stroke-opacity="1.0" stroke-linecap="round" stroke-linejoin="round"/>
    <path d="M 6.67584753036499 120.61557006835938 C 13.415773391723633 187.0215606689453 79.57954406738281 221.2222900390625 116.8622055053711 214.54531860351562" stroke-width="3.0" fill="none" stroke="rgb(0, 0, 0)" stroke-opacity="1.0" stroke-linecap="round" stroke-linejoin="round"/>
    <path d="M 63.65575408935547 152.96075439453125 C 189.0686492919922 151.90284729003906 210.00144958496094 143.8463897705078 109.76425170898438 143.68179321289062" stroke-width="3.0" fill="none" stroke="rgb(0, 0, 0)" stroke-opacity="1.0" stroke-linecap="round" stroke-linejoin="round"/>
    <path d="M 173.9886932373047 118.8885269165039 C 141.04444885253906 108.01141357421875 118.47667694091797 112.4381332397461 194.67608642578125 117.16573333740234" stroke-width="3.0" fill="none" stroke="rgb(0, 0, 0)" stroke-opacity="1.0" stroke-linecap="round" stroke-linejoin="round"/>
    <path d="M 38.7104377746582 97.14149475097656 C 34.44093704223633 118.99883270263672 57.945098876953125 76.75597381591797 53.665260314941406 114.63715362548828" stroke-width="3.0" fill="none" stroke="rgb(0, 0, 0)" stroke-opacity="1.0" stroke-linecap="round" stroke-linejoin="round"/>
    <path d="M 27.543180465698242 120.70775604248047 C 118.66160583496094 121.16036224365234 73.41563415527344 126.92225646972656 96.90898132324219 109.95523834228516" stroke-width="3.0" fill="none" stroke="rgb(0, 0, 0)" stroke-opacity="1.0" stroke-linecap="round" stroke-linejoin="round"/>
    <path d="M 26.464696884155273 50.21015930175781 C 49.53624725341797 23.219438552856445 43.24821090698242 27.35272216796875 65.67179107666016 7.579408645629883" stroke-width="3.0" fill="none" stroke="rgb(0, 0, 0)" stroke-opacity="1.0" stroke-linecap="round" stroke-linejoin="round"/>
    <path d="M 184.587646484375 148.0669708251953 C 186.2123260498047 150.12051391601562 84.26004791259766 143.83987426757812 135.6759490966797 135.53785705566406" stroke-width="3.0" fill="none" stroke="rgb(0, 0, 0)" stroke-opacity="1.0" stroke-linecap="round" stroke-linejoin="round"/>
    <path d="M 40.38274002075195 123.46134948730469 C 87.52137756347656 125.12806701660156 126.82537841796875 130.0316619873047 43.002098083496094 133.47219848632812" stroke-width="3.0" fill="none" stroke="rgb(0, 0, 0)" stroke-opacity="1.0" stroke-linecap="round" stroke-linejoin="round"/>
    <path d="M 101.64794921875 85.23332977294922 C 86.24951171875 86.97229766845703 123.53765869140625 80.49519348144531 114.94039154052734 83.97686767578125" stroke-width="3.0" fill="none" stroke="rgb(0, 0, 0)" stroke-opacity="1.0" stroke-linecap="round" stroke-linejoin="round"/>
    <path d="M 162.9086456298828 105.47879791259766 C 176.73028564453125 90.43231201171875 129.55105590820312 68.07331848144531 97.97317504882812 83.03620147705078" stroke-width="3.0" fill="none" stroke="rgb(0, 0, 0)" stroke-opacity="1.0" stroke-linecap="round" stroke-linejoin="round"/>
  </g>
</svg>
