<?xml version="1.0" ?>
<svg xmlns="http://www.w3.org/2000/svg" version="1.1" width="224" height="224">
  <defs/>
  <g>
    <path d="M 113.23780059814453 115.37136840820312 C 121.7117919921875 114.7313232421875 121.4166259765625 118.75470733642578 124.41998291015625 127.39306640625" stroke-width="3.0" fill="none" stroke="rgb(0, 0, 0)" stroke-opacity="1.0" stroke-linecap="round" stroke-linejoin="round"/>
    <path d="M 68.86661529541016 124.5999755859375 C 78.20036315917969 127.56705474853516 66.59025573730469 131.0945281982422 73.34809875488281 124.05979919433594" stroke-width="3.0" fill="none" stroke="rgb(0, 0, 0)" stroke-opacity="1.0" stroke-linecap="round" stroke-linejoin="round"/>
    <path d="M 43.23527908325195 117.59613800048828 C 21.15020751953125 111.78305053710938 36.96569061279297 129.56410217285156 51.43056869506836 122.46366882324219" stroke-width="3.0" fill="none" stroke="rgb(0, 0, 0)" stroke-opacity="1.0" stroke-linecap="round" stroke-linejoin="round"/>
    <path d="M 60.44376754760742 130.59906005859375 C 69.06538391113281 116.8486557006836 64.93431091308594 121.75004577636719 70.17166137695312 123.64289855957031" stroke-width="3.0" fill="none" stroke="rgb(0, 0, 0)" stroke-opacity="1.0" stroke-linecap="round" stroke-linejoin="round"/>
    <path d="M 130.75003051757812 101.89501190185547 C 140.58592224121094 102.52298736572266 149.52896118164062 95.15745544433594 121.41741943359375 92.64130401611328" stroke-width="3.0" fill="none" stroke="rgb(0, 0, 0)" stroke-opacity="1.0" stroke-linecap="round" stroke-linejoin="round"/>
    <path d="M 156.2379608154297 129.4212188720703 C 162.01853942871094 120.86588287353516 166.1010284423828 136.0220184326172 155.4615936279297 124.73460388183594" stroke-width="3.0" fill="none" stroke="rgb(0, 0, 0)" stroke-opacity="1.0" stroke-linecap="round" stroke-linejoin="round"/>
    <path d="M 68.92059326171875 106.00491333007812 C 76.93656158447266 104.97457122802734 80.36196899414062 117.9645767211914 65.09146881103516 115.66097259521484" stroke-width="3.0" fill="none" stroke="rgb(0, 0, 0)" stroke-opacity="1.0" stroke-linecap="round" stroke-linejoin="round"/>
    <path d="M 64.2857666015625 143.99093627929688 C 65.93419647216797 134.20736694335938 59.32810974121094 142.823974609375 49.87516784667969 144.81771850585938" stroke-width="3.0" fill="none" stroke="rgb(0, 0, 0)" stroke-opacity="1.0" stroke-linecap="round" stroke-linejoin="round"/>
    <path d="M 163.7842254638672 192.91873168945312 C 150.65335083007812 200.9208526611328 162.2334747314453 191.16941833496094 171.477294921875 194.22283935546875" stroke-width="3.0" fill="none" stroke="rgb(0, 0, 0)" stroke-opacity="1.0" stroke-linecap="round" stroke-linejoin="round"/>
    <path d="M 163.97216796875 101.5862045288086 C 180.9025115966797 109.5912857055664 176.72463989257812 106.05396270751953 200.6942596435547 115.93866729736328" stroke-width="3.0" fill="none" stroke="rgb(0, 0, 0)" stroke-opacity="1.0" stroke-linecap="round" stroke-linejoin="round"/>
    <path d="M 127.95732116699219 119.49516296386719 C 137.3052978515625 123.47420501708984 132.2903594970703 141.415771484375 139.36050415039062 132.8656768798828" stroke-width="3.0" fill="none" stroke="rgb(0, 0, 0)" stroke-opacity="1.0" stroke-linecap="round" stroke-linejoin="round"/>
    <path d="M 46.25519561767578 116.18321990966797 C 78.96666717529297 102.92733001708984 68.81946563720703 120.4859390258789 65.44169616699219 108.34209442138672" stroke-width="3.0" fill="none" stroke="rgb(0, 0, 0)" stroke-opacity="1.0" stroke-linecap="round" stroke-linejoin="round"/>
    <path d="M 152.5500946044922 127.33922576904297 C 145.1035614013672 122.49918365478516 159.921142578125 121.77125549316406 148.25221252441406 105.8340072631836" stroke-width="3.0" fill="none" stroke="rgb(0, 0, 0)" stroke-opacity="1.0" stroke-linecap="round" stroke-linejoin="round"/>
    <path d="M 114.74430847167969 177.201416015625 C 112.61154174804688 179.9650115966797 112.05786895751953 179.4617156982422 117.20679473876953 165.57606506347656" stroke-width="3.0" fill="none" stroke="rgb(0, 0, 0)" stroke-opacity="1.0" stroke-linecap="round" stroke-linejoin="round"/>
    <path d="M 172.09347534179688 24.862354278564453 C 194.88478088378906 45.625099182128906 201.04640197753906 49.178646087646484 210.4209442138672 85.75157165527344" stroke-width="3.0" fill="none" stroke="rgb(0, 0, 0)" stroke-opacity="1.0" stroke-linecap="round" stroke-linejoin="round"/>
    <path d="M 99.88954162597656 80.66098022460938 C 141.2641143798828 79.91350555419922 134.0693359375 86.89373779296875 130.88442993164062 103.5380859375" stroke-width="3.0" fill="none" stroke="rgb(0, 0, 0)" stroke-opacity="1.0" stroke-linecap="round" stroke-linejoin="round"/>
    <path d="M 136.6519012451172 12.566838264465332 C 157.1514434814453 15.422250747680664 156.81796264648438 17.148361206054688 179.76438903808594 30.855640411376953" stroke-width="3.0" fill="none" stroke="rgb(0, 0, 0)" stroke-opacity="1.0" stroke-linecap="round" stroke-linejoin="round"/>
    <path d="M 140.50933837890625 133.1343536376953 C 146.38681030273438 138.90748596191406 127.0962142944336 140.85531616210938 137.50865173339844 135.28485107421875" stroke-width="3.0" fill="none" stroke="rgb(0, 0, 0)" stroke-opacity="1.0" stroke-linecap="round" stroke-linejoin="round"/>
    <path d="M 61.21637725830078 133.2501983642578 C 46.37312698364258 145.52615356445312 48.6866455078125 152.84317016601562 39.02766799926758 138.39096069335938" stroke-width="3.0" fill="none" stroke="rgb(0, 0, 0)" stroke-opacity="1.0" stroke-linecap="round" stroke-linejoin="round"/>
    <path d="M 173.76727294921875 132.683349609375 C 186.33306884765625 163.0376739501953 196.0234375 109.0873031616211 173.821044921875 127.61015319824219" stroke-width="3.0" fill="none" stroke="rgb(0, 0, 0)" stroke-opacity="1.0" stroke-linecap="round" stroke-linejoin="round"/>
    <path d="M 120.76515197753906 207.76397705078125 C 129.3499298095703 204.63890075683594 127.79572296142578 201.19065856933594 124.43389129638672 204.60910034179688" stroke-width="3.0" fill="none" stroke="rgb(0, 0, 0)" stroke-opacity="1.0" stroke-linecap="round" stroke-linejoin="round"/>
    <path d="M 46.94321060180664 140.849365234375 C 52.542869567871094 127.82646942138672 39.96138381958008 108.35531616210938 33.468605041503906 129.73834228515625" stroke-width="3.0" fill="none" stroke="rgb(0, 0, 0)" stroke-opacity="1.0" stroke-linecap="round" stroke-linejoin="round"/>
    <path d="M 60.2752571105957 115.92117309570312 C 70.03750610351562 112.07689666748047 49.48093032836914 108.84101867675781 55.7161865234375 112.73600769042969" stroke-width="3.0" fill="none" stroke="rgb(0, 0, 0)" stroke-opacity="1.0" stroke-linecap="round" stroke-linejoin="round"/>
    <path d="M 84.41487121582031 132.4011993408203 C 73.98567962646484 105.75199127197266 81.00259399414062 108.64630889892578 51.955841064453125 116.63407897949219" stroke-width="3.0" fill="none" stroke="rgb(0, 0, 0)" stroke-opacity="1.0" stroke-linecap="round" stroke-linejoin="round"/>
    <path d="M 147.4333953857422 96.06482696533203 C 132.26858520507812 76.60499572753906 167.02288818359375 104.36749267578125 150.22972106933594 94.65756225585938" stroke-width="3.0" fill="none" stroke="rgb(0, 0, 0)" stroke-opacity="1.0" stroke-linecap="round" stroke-linejoin="round"/>
    <path d="M 77.73231506347656 105.17430114746094 C 72.16197204589844 113.72332763671875 75.17068481445312 151.47898864746094 71.08991241455078 133.63821411132812" stroke-width="3.0" fill="none" stroke="rgb(0, 0, 0)" stroke-opacity="1.0" stroke-linecap="round" stroke-linejoin="round"/>
    <path d="M 12.531315803527832 82.61441802978516 C 19.587425231933594 87.39554595947266 12.70525074005127 84.14286804199219 16.732877731323242 87.38175201416016" stroke-width="3.0" fill="none" stroke="rgb(0, 0, 0)" stroke-opacity="1.0" stroke-linecap="round" stroke-linejoin="round"/>
    <path d="M 179.3834686279297 189.4193878173828 C 181.85873413085938 181.0658416748047 179.790283203125 185.8654327392578 187.2689666748047 177.40464782714844" stroke-width="3.0" fill="none" stroke="rgb(0, 0, 0)" stroke-opacity="1.0" stroke-linecap="round" stroke-linejoin="round"/>
    <path d="M 170.05812072753906 110.62222290039062 C 193.2359161376953 114.9557113647461 198.8505401611328 108.30754089355469 158.29977416992188 111.50239562988281" stroke-width="3.0" fill="none" stroke="rgb(0, 0, 0)" stroke-opacity="1.0" stroke-linecap="round" stroke-linejoin="round"/>
    <path d="M 154.3743896484375 108.64386749267578 C 169.2928009033203 119.06744384765625 166.0347900390625 107.59315490722656 168.5956573486328 128.843994140625" stroke-width="3.0" fill="none" stroke="rgb(0, 0, 0)" stroke-opacity="1.0" stroke-linecap="round" stroke-linejoin="round"/>
    <path d="M 135.9278106689453 101.3329849243164 C 136.9267578125 97.36250305175781 132.2952423095703 115.37249755859375 137.07618713378906 83.1285400390625" stroke-width="3.0" fill="none" stroke="rgb(0, 0, 0)" stroke-opacity="1.0" stroke-linecap="round" stroke-linejoin="round"/>
    <path d="M 104.2129135131836 127.40876007080078 C 105.11246490478516 128.44869995117188 102.08915710449219 116.57257080078125 86.36404418945312 116.28388977050781" stroke-width="3.0" fill="none" stroke="rgb(0, 0, 0)" stroke-opacity="1.0" stroke-linecap="round" stroke-linejoin="round"/>
    <path d="M 195.27061462402344 116.41463470458984 C 193.15298461914062 113.04055786132812 190.5585174560547 111.28927612304688 190.2377471923828 126.27493286132812" stroke-width="3.0" fill="none" stroke="rgb(0, 0, 0)" stroke-opacity="1.0" stroke-linecap="round" stroke-linejoin="round"/>
    <path d="M 162.17831420898438 125.76229858398438 C 149.75770568847656 118.85611724853516 165.4886474609375 91.2374038696289 145.027099609375 100.0595703125" stroke-width="3.0" fill="none" stroke="rgb(0, 0, 0)" stroke-opacity="1.0" stroke-linecap="round" stroke-linejoin="round"/>
    <path d="M 69.05538177490234 27.918182373046875 C 91.9518814086914 35.15214157104492 90.8277587890625 32.76743698120117 66.87605285644531 29.979482650756836" stroke-width="3.0" fill="none" stroke="rgb(0, 0, 0)" stroke-opacity="1.0" stroke-linecap="round" stroke-linejoin="round"/>
    <path d="M 49.45692825317383 131.27244567871094 C 66.61540222167969 133.44451904296875 54.05303955078125 127.75987243652344 51.45241928100586 137.5537567138672" stroke-width="3.0" fill="none" stroke="rgb(0, 0, 0)" stroke-opacity="1.0" stroke-linecap="round" stroke-linejoin="round"/>
    <path d="M 168.98033142089844 123.22531127929688 C 173.85964965820312 108.97805786132812 192.41976928710938 113.94645690917969 191.95213317871094 131.4729766845703" stroke-width="3.0" fill="none" stroke="rgb(0, 0, 0)" stroke-opacity="1.0" stroke-linecap="round" stroke-linejoin="round"/>
    <path d="M 49.5158805847168 136.45266723632812 C 40.97826385498047 106.14827728271484 31.946666717529297 110.2724380493164 59.962921142578125 113.37030029296875" stroke-width="3.0" fill="none" stroke="rgb(0, 0, 0)" stroke-opacity="1.0" stroke-linecap="round" stroke-linejoin="round"/>
    <path d="M 99.59730529785156 170.76010131835938 C 95.62306213378906 173.30653381347656 106.47573852539062 170.6487579345703 105.0162124633789 175.90245056152344" stroke-width="3.0" fill="none" stroke="rgb(0, 0, 0)" stroke-opacity="1.0" stroke-linecap="round" stroke-linejoin="round"/>
    <path d="M 117.78181457519531 126.73748779296875 C 130.80596923828125 140.03189086914062 119.19233703613281 120.41065216064453 116.78755187988281 129.89927673339844" stroke-width="3.0" fill="none" stroke="rgb(0, 0, 0)" stroke-opacity="1.0" stroke-linecap="round" stroke-linejoin="round"/>
    <path d="M 154.5834503173828 105.48531341552734 C 164.40875244140625 119.27922821044922 151.82012939453125 103.8566665649414 178.5475311279297 115.83183288574219" stroke-width="3.0" fill="none" stroke="rgb(0, 0, 0)" stroke-opacity="1.0" stroke-linecap="round" stroke-linejoin="round"/>
    <path d="M 70.92562866210938 110.08183288574219 C 75.2926025390625 111.77764129638672 61.91812515258789 112.33216094970703 65.23892974853516 115.0953598022461" stroke-width="3.0" fill="none" stroke="rgb(0, 0, 0)" stroke-opacity="1.0" stroke-linecap="round" stroke-linejoin="round"/>
    <path d="M 61.54391860961914 121.51177978515625 C 63.753814697265625 130.04620361328125 72.8592529296875 117.97877502441406 77.08609008789062 124.21156311035156" stroke-width="3.0" fill="none" stroke="rgb(0, 0, 0)" stroke-opacity="1.0" stroke-linecap="round" stroke-linejoin="round"/>
    <path d="M 35.16037368774414 44.16798400878906 C 42.29844284057617 36.940208435058594 50.19784927368164 40.75552749633789 51.5654411315918 36.805728912353516" stroke-width="3.0" fill="none" stroke="rgb(0, 0, 0)" stroke-opacity="1.0" stroke-linecap="round" stroke-linejoin="round"/>
    <path d="M 167.37353515625 129.64785766601562 C 150.60568237304688 126.775634765625 152.1953887939453 126.85469055175781 129.1982421875 126.46041870117188" stroke-width="3.0" fill="none" stroke="rgb(0, 0, 0)" stroke-opacity="1.0" stroke-linecap="round" stroke-linejoin="round"/>
    <path d="M 29.795738220214844 125.26614379882812 C 34.002708435058594 131.86947631835938 50.50166702270508 120.51177978515625 29.371641159057617 122.729248046875" stroke-width="3.0" fill="none" stroke="rgb(0, 0, 0)" stroke-opacity="1.0" stroke-linecap="round" stroke-linejoin="round"/>
    <path d="M 93.68445587158203 94.21050262451172 C 103.00596618652344 70.5662841796875 110.49748229980469 83.08931732177734 112.26382446289062 84.78053283691406" stroke-width="3.0" fill="none" stroke="rgb(0, 0, 0)" stroke-opacity="1.0" stroke-linecap="round" stroke-linejoin="round"/>
    <path d="M 167.8201141357422 101.32595825195312 C 167.6364288330078 89.34957885742188 148.5631866455078 97.33426666259766 142.80874633789062 93.17284393310547" stroke-width="3.0" fill="none" stroke="rgb(0, 0, 0)" stroke-opacity="1.0" stroke-linecap="round" stroke-linejoin="round"/>
  </g>
</svg>
