<?xml version="1.0" ?>
<svg xmlns="http://www.w3.org/2000/svg" version="1.1" width="224" height="224">
  <defs/>
  <g>
    <path d="M 66.1075210571289 108.5231704711914 C 124.03998565673828 93.80072784423828 122.87706756591797 149.64222717285156 102.1669921875 153.85879516601562" stroke-width="3.0" fill="none" stroke="rgb(0, 0, 0)" stroke-opacity="1.0" stroke-linecap="round" stroke-linejoin="round"/>
    <path d="M 73.31074523925781 122.45599365234375 C 94.7373046875 160.27783203125 78.79652404785156 144.68380737304688 77.80154418945312 135.32843017578125" stroke-width="3.0" fill="none" stroke="rgb(0, 0, 0)" stroke-opacity="1.0" stroke-linecap="round" stroke-linejoin="round"/>
    <path d="M 60.68134307861328 132.17941284179688 C 6.036084175109863 117.98997497558594 8.666749954223633 123.68064880371094 85.57333374023438 129.57228088378906" stroke-width="3.0" fill="none" stroke="rgb(0, 0, 0)" stroke-opacity="1.0" stroke-linecap="round" stroke-linejoin="round"/>
    <path d="M 25.8687744140625 119.76091003417969 C 110.62631225585938 127.4195785522461 77.13780212402344 120.48763275146484 84.43795013427734 126.09391784667969" stroke-width="3.0" fill="none" stroke="rgb(0, 0, 0)" stroke-opacity="1.0" stroke-linecap="round" stroke-linejoin="round"/>
    <path d="M 90.90141296386719 95.6294174194336 C 194.6476593017578 111.52472686767578 182.4441375732422 101.36548614501953 102.95320129394531 90.08596801757812" stroke-width="3.0" fill="none" stroke="rgb(0, 0, 0)" stroke-opacity="1.0" stroke-linecap="round" stroke-linejoin="round"/>
    <path d="M 174.9556121826172 143.64810180664062 C 154.52183532714844 104.16382598876953 213.45240783691406 114.4163589477539 148.13734436035156 107.73954010009766" stroke-width="3.0" fill="none" stroke="rgb(0, 0, 0)" stroke-opacity="1.0" stroke-linecap="round" stroke-linejoin="round"/>
    <path d="M 37.52275466918945 99.9688720703125 C 149.53611755371094 77.09941864013672 141.493896484375 75.99279022216797 33.470054626464844 93.64018249511719" stroke-width="3.0" fill="none" stroke="rgb(0, 0, 0)" stroke-opacity="1.0" stroke-linecap="round" stroke-linejoin="round"/>
    <path d="M 80.42768859863281 140.2115020751953 C 102.63491821289062 129.76373291015625 77.6363525390625 136.12527465820312 38.77893829345703 137.3710174560547" stroke-width="3.0" fill="none" stroke="rgb(0, 0, 0)" stroke-opacity="1.0" stroke-linecap="round" stroke-linejoin="round"/>
    <path d="M 118.57501220703125 211.486083984375 C 187.87283325195312 194.106689453125 139.8001708984375 205.0470428466797 175.69235229492188 195.50868225097656" stroke-width="3.0" fill="none" stroke="rgb(0, 0, 0)" stroke-opacity="1.0" stroke-linecap="round" stroke-linejoin="round"/>
    <path d="M 150.81610107421875 110.67028045654297 C 190.6526336669922 107.88027954101562 182.83322143554688 126.62003326416016 191.77767944335938 115.72015380859375" stroke-width="3.0" fill="none" stroke="rgb(0, 0, 0)" stroke-opacity="1.0" stroke-linecap="round" stroke-linejoin="round"/>
    <path d="M 98.99006652832031 105.58795928955078 C 134.7761688232422 115.39773559570312 93.19499969482422 139.79750061035156 138.25689697265625 134.6129913330078" stroke-width="3.0" fill="none" stroke="rgb(0, 0, 0)" stroke-opacity="1.0" stroke-linecap="round" stroke-linejoin="round"/>
    <path d="M 34.480224609375 103.2335433959961 C 147.82400512695312 100.80353546142578 99.46023559570312 116.3426284790039 30.387798309326172 109.2697982788086" stroke-width="3.0" fill="none" stroke="rgb(0, 0, 0)" stroke-opacity="1.0" stroke-linecap="round" stroke-linejoin="round"/>
    <path d="M 188.59059143066406 115.71906280517578 C 138.58445739746094 109.33538818359375 166.39915466308594 112.33247375488281 99.42473602294922 104.14934539794922" stroke-width="3.0" fill="none" stroke="rgb(0, 0, 0)" stroke-opacity="1.0" stroke-linecap="round" stroke-linejoin="round"/>
    <path d="M 59.31443786621094 198.4688262939453 C 84.14669036865234 216.42445373535156 107.74014282226562 211.78207397460938 123.51924133300781 210.60308837890625" stroke-width="3.0" fill="none" stroke="rgb(0, 0, 0)" stroke-opacity="1.0" stroke-linecap="round" stroke-linejoin="round"/>
    <path d="M 175.28538513183594 25.99591064453125 C 188.78883361816406 35.41860580444336 233.02503967285156 81.56035614013672 213.33303833007812 139.8670654296875" stroke-width="3.0" fill="none" stroke="rgb(0, 0, 0)" stroke-opacity="1.0" stroke-linecap="round" stroke-linejoin="round"/>
    <path d="M 97.79029083251953 79.45996856689453 C 140.1908721923828 74.16043853759766 141.5888671875 81.18243408203125 130.1554412841797 95.93062591552734" stroke-width="3.0" fill="none" stroke="rgb(0, 0, 0)" stroke-opacity="1.0" stroke-linecap="round" stroke-linejoin="round"/>
    <path d="M 73.15017700195312 31.745134353637695 C 87.92080688476562 -19.6239013671875 171.04446411132812 14.16246509552002 188.21719360351562 38.77645492553711" stroke-width="3.0" fill="none" stroke="rgb(0, 0, 0)" stroke-opacity="1.0" stroke-linecap="round" stroke-linejoin="round"/>
    <path d="M 116.44248962402344 133.54161071777344 C 135.3072509765625 156.53778076171875 159.24000549316406 134.8787384033203 130.4281768798828 137.8490753173828" stroke-width="3.0" fill="none" stroke="rgb(0, 0, 0)" stroke-opacity="1.0" stroke-linecap="round" stroke-linejoin="round"/>
    <path d="M 75.82463836669922 130.60487365722656 C 57.663516998291016 138.3450927734375 47.546974182128906 147.90699768066406 38.58719253540039 125.52436828613281" stroke-width="3.0" fill="none" stroke="rgb(0, 0, 0)" stroke-opacity="1.0" stroke-linecap="round" stroke-linejoin="round"/>
    <path d="M 169.98402404785156 143.64523315429688 C 188.6571044921875 159.18923950195312 183.55967712402344 106.37765502929688 177.4642791748047 132.405029296875" stroke-width="3.0" fill="none" stroke="rgb(0, 0, 0)" stroke-opacity="1.0" stroke-linecap="round" stroke-linejoin="round"/>
    <path d="M 135.9204559326172 206.61668395996094 C 103.89724731445312 209.82110595703125 100.54267883300781 211.9285125732422 133.88198852539062 206.66986083984375" stroke-width="3.0" fill="none" stroke="rgb(0, 0, 0)" stroke-opacity="1.0" stroke-linecap="round" stroke-linejoin="round"/>
    <path d="M 49.753196716308594 131.53871154785156 C 75.03962707519531 135.8554229736328 45.81230163574219 160.86700439453125 38.59455108642578 125.75196838378906" stroke-width="3.0" fill="none" stroke="rgb(0, 0, 0)" stroke-opacity="1.0" stroke-linecap="round" stroke-linejoin="round"/>
    <path d="M 102.51144409179688 91.29669189453125 C 65.52401733398438 94.1207046508789 18.95502471923828 98.80928802490234 94.15579223632812 95.96717834472656" stroke-width="3.0" fill="none" stroke="rgb(0, 0, 0)" stroke-opacity="1.0" stroke-linecap="round" stroke-linejoin="round"/>
    <path d="M 81.77693176269531 104.51630401611328 C 89.4382553100586 98.00898742675781 96.91387939453125 143.4569854736328 43.407405853271484 130.4915008544922" stroke-width="3.0" fill="none" stroke="rgb(0, 0, 0)" stroke-opacity="1.0" stroke-linecap="round" stroke-linejoin="round"/>
    <path d="M 151.9001007080078 95.75444793701172 C 94.85611724853516 86.24188232421875 156.72845458984375 102.46176147460938 153.4844970703125 96.25247955322266" stroke-width="3.0" fill="none" stroke="rgb(0, 0, 0)" stroke-opacity="1.0" stroke-linecap="round" stroke-linejoin="round"/>
    <path d="M 95.9822769165039 129.04116821289062 C 69.29263305664062 142.4765625 115.67218017578125 158.68923950195312 81.92333984375 146.3377685546875" stroke-width="3.0" fill="none" stroke="rgb(0, 0, 0)" stroke-opacity="1.0" stroke-linecap="round" stroke-linejoin="round"/>
    <path d="M 26.26424217224121 51.63589096069336 C 17.919103622436523 62.476722717285156 -0.6929929852485657 102.87596130371094 7.700525760650635 129.90110778808594" stroke-width="3.0" fill="none" stroke="rgb(0, 0, 0)" stroke-opacity="1.0" stroke-linecap="round" stroke-linejoin="round"/>
    <path d="M 177.62811279296875 194.40460205078125 C 189.53053283691406 176.3512725830078 221.43618774414062 151.3965606689453 216.95509338378906 105.02815246582031" stroke-width="3.0" fill="none" stroke="rgb(0, 0, 0)" stroke-opacity="1.0" stroke-linecap="round" stroke-linejoin="round"/>
    <path d="M 147.97122192382812 105.29967498779297 C 212.713623046875 121.8614730834961 201.11253356933594 110.56489562988281 163.666015625 102.25223541259766" stroke-width="3.0" fill="none" stroke="rgb(0, 0, 0)" stroke-opacity="1.0" stroke-linecap="round" stroke-linejoin="round"/>
    <path d="M 136.39059448242188 91.00129699707031 C 250.71995544433594 127.56936645507812 161.94371032714844 96.61605072021484 174.93235778808594 139.8617401123047" stroke-width="3.0" fill="none" stroke="rgb(0, 0, 0)" stroke-opacity="1.0" stroke-linecap="round" stroke-linejoin="round"/>
    <path d="M 140.8193817138672 91.43455505371094 C 132.8275146484375 77.70880889892578 118.06883239746094 107.22452545166016 131.52737426757812 79.69391632080078" stroke-width="3.0" fill="none" stroke="rgb(0, 0, 0)" stroke-opacity="1.0" stroke-linecap="round" stroke-linejoin="round"/>
    <path d="M 79.89667510986328 151.01321411132812 C 131.58497619628906 158.31512451171875 96.52201843261719 80.39691925048828 91.05563354492188 135.6565399169922" stroke-width="3.0" fill="none" stroke="rgb(0, 0, 0)" stroke-opacity="1.0" stroke-linecap="round" stroke-linejoin="round"/>
    <path d="M 188.0052947998047 118.73373413085938 C 197.69020080566406 108.26485443115234 186.35772705078125 138.29345703125 187.9222412109375 114.11454010009766" stroke-width="3.0" fill="none" stroke="rgb(0, 0, 0)" stroke-opacity="1.0" stroke-linecap="round" stroke-linejoin="round"/>
    <path d="M 137.7545928955078 87.8932113647461 C 108.29328918457031 94.86219787597656 191.1103973388672 102.6741943359375 135.06805419921875 97.28569793701172" stroke-width="3.0" fill="none" stroke="rgb(0, 0, 0)" stroke-opacity="1.0" stroke-linecap="round" stroke-linejoin="round"/>
    <path d="M 54.332122802734375 14.115772247314453 C 94.79480743408203 -10.467048645019531 90.581787109375 -7.44467306137085 57.065738677978516 12.657645225524902" stroke-width="3.0" fill="none" stroke="rgb(0, 0, 0)" stroke-opacity="1.0" stroke-linecap="round" stroke-linejoin="round"/>
    <path d="M 36.26396560668945 124.71015167236328 C 111.59305572509766 136.85641479492188 100.00484466552734 164.5290069580078 31.651765823364258 142.36972045898438" stroke-width="3.0" fill="none" stroke="rgb(0, 0, 0)" stroke-opacity="1.0" stroke-linecap="round" stroke-linejoin="round"/>
    <path d="M 175.58612060546875 144.41049194335938 C 163.72454833984375 103.44410705566406 202.23056030273438 116.68450164794922 181.0719757080078 145.10693359375" stroke-width="3.0" fill="none" stroke="rgb(0, 0, 0)" stroke-opacity="1.0" stroke-linecap="round" stroke-linejoin="round"/>
    <path d="M 59.57872009277344 136.49453735351562 C 2.840057373046875 123.11548614501953 22.01637077331543 91.50574493408203 83.03005981445312 109.8309326171875" stroke-width="3.0" fill="none" stroke="rgb(0, 0, 0)" stroke-opacity="1.0" stroke-linecap="round" stroke-linejoin="round"/>
    <path d="M 6.595797538757324 118.8755111694336 C 17.47187042236328 190.6493682861328 76.63385772705078 207.29351806640625 103.04369354248047 210.58816528320312" stroke-width="3.0" fill="none" stroke="rgb(0, 0, 0)" stroke-opacity="1.0" stroke-linecap="round" stroke-linejoin="round"/>
    <path d="M 86.46792602539062 156.31600952148438 C 146.79286193847656 153.79913330078125 148.52789306640625 152.54429626464844 104.16793823242188 154.05889892578125" stroke-width="3.0" fill="none" stroke="rgb(0, 0, 0)" stroke-opacity="1.0" stroke-linecap="round" stroke-linejoin="round"/>
    <path d="M 158.04685974121094 110.47083282470703 C 150.9009246826172 109.01908111572266 125.12271118164062 104.99970245361328 190.01690673828125 115.46589660644531" stroke-width="3.0" fill="none" stroke="rgb(0, 0, 0)" stroke-opacity="1.0" stroke-linecap="round" stroke-linejoin="round"/>
    <path d="M 49.501060485839844 98.7333984375 C 78.8726577758789 120.26288604736328 41.13042068481445 93.50127410888672 49.521148681640625 119.52143096923828" stroke-width="3.0" fill="none" stroke="rgb(0, 0, 0)" stroke-opacity="1.0" stroke-linecap="round" stroke-linejoin="round"/>
    <path d="M 25.145505905151367 111.55310821533203 C 110.3952865600586 119.86880493164062 76.61791229248047 117.32269287109375 97.33473205566406 105.81219482421875" stroke-width="3.0" fill="none" stroke="rgb(0, 0, 0)" stroke-opacity="1.0" stroke-linecap="round" stroke-linejoin="round"/>
    <path d="M 26.10145378112793 48.69839859008789 C 45.62350845336914 24.583951950073242 41.5427131652832 26.542810440063477 63.62499237060547 8.407919883728027" stroke-width="3.0" fill="none" stroke="rgb(0, 0, 0)" stroke-opacity="1.0" stroke-linecap="round" stroke-linejoin="round"/>
    <path d="M 183.7569580078125 140.7535858154297 C 164.25320434570312 141.58827209472656 88.1119384765625 147.61302185058594 121.45243072509766 139.9046630859375" stroke-width="3.0" fill="none" stroke="rgb(0, 0, 0)" stroke-opacity="1.0" stroke-linecap="round" stroke-linejoin="round"/>
    <path d="M 35.66284942626953 136.90530395507812 C 88.92823791503906 139.22023010253906 128.94769287109375 133.018310546875 45.04609298706055 134.47682189941406" stroke-width="3.0" fill="none" stroke="rgb(0, 0, 0)" stroke-opacity="1.0" stroke-linecap="round" stroke-linejoin="round"/>
    <path d="M 102.06986999511719 84.1118392944336 C 96.75187683105469 83.74541473388672 120.3335952758789 83.09441375732422 124.13137817382812 84.43498229980469" stroke-width="3.0" fill="none" stroke="rgb(0, 0, 0)" stroke-opacity="1.0" stroke-linecap="round" stroke-linejoin="round"/>
    <path d="M 159.74143981933594 96.8318099975586 C 175.87149047851562 92.11963653564453 135.86141967773438 75.66941833496094 114.42920684814453 78.4765853881836" stroke-width="3.0" fill="none" stroke="rgb(0, 0, 0)" stroke-opacity="1.0" stroke-linecap="round" stroke-linejoin="round"/>
  </g>
</svg>
