<?xml version="1.0" ?>
<svg xmlns="http://www.w3.org/2000/svg" version="1.1" width="224" height="224">
  <defs/>
  <g>
    <path d="M 66.20375061035156 108.67041778564453 C 125.0801010131836 92.30003356933594 120.47940826416016 145.4928741455078 99.0683364868164 152.25741577148438" stroke-width="3.0" fill="none" stroke="rgb(0, 0, 0)" stroke-opacity="1.0" stroke-linecap="round" stroke-linejoin="round"/>
    <path d="M 72.354736328125 125.1866683959961 C 97.33544921875 157.34771728515625 75.37236785888672 144.81027221679688 81.10333251953125 135.7039337158203" stroke-width="3.0" fill="none" stroke="rgb(0, 0, 0)" stroke-opacity="1.0" stroke-linecap="round" stroke-linejoin="round"/>
    <path d="M 59.75631332397461 130.39463806152344 C 6.050544261932373 152.9186553955078 -2.4094619750976562 153.15675354003906 68.96820068359375 127.8615493774414" stroke-width="3.0" fill="none" stroke="rgb(0, 0, 0)" stroke-opacity="1.0" stroke-linecap="round" stroke-linejoin="round"/>
    <path d="M 27.410619735717773 122.72189331054688 C 121.03965759277344 123.06072998046875 83.01314544677734 123.05760192871094 80.6870346069336 138.2896728515625" stroke-width="3.0" fill="none" stroke="rgb(0, 0, 0)" stroke-opacity="1.0" stroke-linecap="round" stroke-linejoin="round"/>
    <path d="M 92.7484130859375 94.63468170166016 C 201.33787536621094 106.08258819580078 189.32606506347656 97.78367614746094 105.35197448730469 91.87557220458984" stroke-width="3.0" fill="none" stroke="rgb(0, 0, 0)" stroke-opacity="1.0" stroke-linecap="round" stroke-linejoin="round"/>
    <path d="M 170.8418731689453 139.05557250976562 C 164.0839385986328 107.46085357666016 217.80874633789062 123.43151092529297 139.79144287109375 109.25982666015625" stroke-width="3.0" fill="none" stroke="rgb(0, 0, 0)" stroke-opacity="1.0" stroke-linecap="round" stroke-linejoin="round"/>
    <path d="M 32.67341995239258 98.80636596679688 C 162.3844757080078 82.12248992919922 156.90805053710938 82.52114868164062 42.51203155517578 97.6403579711914" stroke-width="3.0" fill="none" stroke="rgb(0, 0, 0)" stroke-opacity="1.0" stroke-linecap="round" stroke-linejoin="round"/>
    <path d="M 82.90337371826172 143.0858612060547 C 95.82868957519531 133.3419189453125 75.04258728027344 140.44813537597656 45.18533706665039 136.24530029296875" stroke-width="3.0" fill="none" stroke="rgb(0, 0, 0)" stroke-opacity="1.0" stroke-linecap="round" stroke-linejoin="round"/>
    <path d="M 121.81090545654297 213.54580688476562 C 190.47732543945312 195.04791259765625 146.16868591308594 207.8660125732422 178.81719970703125 195.5583038330078" stroke-width="3.0" fill="none" stroke="rgb(0, 0, 0)" stroke-opacity="1.0" stroke-linecap="round" stroke-linejoin="round"/>
    <path d="M 158.1239013671875 104.45577239990234 C 196.26922607421875 108.44971466064453 186.28549194335938 127.79816436767578 192.96925354003906 116.30799865722656" stroke-width="3.0" fill="none" stroke="rgb(0, 0, 0)" stroke-opacity="1.0" stroke-linecap="round" stroke-linejoin="round"/>
    <path d="M 105.73163604736328 105.16987609863281 C 129.9475860595703 120.21734619140625 97.07955932617188 149.8269500732422 154.2576141357422 142.40440368652344" stroke-width="3.0" fill="none" stroke="rgb(0, 0, 0)" stroke-opacity="1.0" stroke-linecap="round" stroke-linejoin="round"/>
    <path d="M 32.30231857299805 101.42758178710938 C 139.66212463378906 102.10932159423828 86.4024658203125 117.9637222290039 30.496219635009766 106.22775268554688" stroke-width="3.0" fill="none" stroke="rgb(0, 0, 0)" stroke-opacity="1.0" stroke-linecap="round" stroke-linejoin="round"/>
    <path d="M 192.17587280273438 112.59528350830078 C 144.93524169921875 111.7281723022461 167.9736785888672 112.82270812988281 87.27876281738281 101.96503448486328" stroke-width="3.0" fill="none" stroke="rgb(0, 0, 0)" stroke-opacity="1.0" stroke-linecap="round" stroke-linejoin="round"/>
    <path d="M 48.73347473144531 191.39137268066406 C 80.37004852294922 214.74960327148438 115.12290954589844 212.92941284179688 127.9399185180664 212.4253692626953" stroke-width="3.0" fill="none" stroke="rgb(0, 0, 0)" stroke-opacity="1.0" stroke-linecap="round" stroke-linejoin="round"/>
    <path d="M 178.15367126464844 28.66561508178711 C 186.6752166748047 38.23319625854492 229.75535583496094 81.32852172851562 213.56008911132812 139.8398895263672" stroke-width="3.0" fill="none" stroke="rgb(0, 0, 0)" stroke-opacity="1.0" stroke-linecap="round" stroke-linejoin="round"/>
    <path d="M 92.73929595947266 91.15077209472656 C 135.66787719726562 71.23370361328125 147.273681640625 91.40766143798828 132.29959106445312 96.13214111328125" stroke-width="3.0" fill="none" stroke="rgb(0, 0, 0)" stroke-opacity="1.0" stroke-linecap="round" stroke-linejoin="round"/>
    <path d="M 76.34307098388672 29.058624267578125 C 92.67357635498047 -17.552783966064453 171.63101196289062 10.374757766723633 191.88418579101562 43.67934799194336" stroke-width="3.0" fill="none" stroke="rgb(0, 0, 0)" stroke-opacity="1.0" stroke-linecap="round" stroke-linejoin="round"/>
    <path d="M 113.85774993896484 132.5492401123047 C 145.71951293945312 150.52584838867188 182.51795959472656 135.1397705078125 129.69329833984375 143.02098083496094" stroke-width="3.0" fill="none" stroke="rgb(0, 0, 0)" stroke-opacity="1.0" stroke-linecap="round" stroke-linejoin="round"/>
    <path d="M 68.96649169921875 126.9017333984375 C 77.44313049316406 147.4120635986328 45.99445343017578 155.72488403320312 37.77028274536133 126.88639068603516" stroke-width="3.0" fill="none" stroke="rgb(0, 0, 0)" stroke-opacity="1.0" stroke-linecap="round" stroke-linejoin="round"/>
    <path d="M 172.8420867919922 142.71742248535156 C 190.3130340576172 163.87635803222656 183.5591583251953 105.29366302490234 177.83360290527344 129.6291961669922" stroke-width="3.0" fill="none" stroke="rgb(0, 0, 0)" stroke-opacity="1.0" stroke-linecap="round" stroke-linejoin="round"/>
    <path d="M 141.19216918945312 206.22015380859375 C 102.07624053955078 208.13014221191406 97.15188598632812 212.74502563476562 133.91363525390625 208.37745666503906" stroke-width="3.0" fill="none" stroke="rgb(0, 0, 0)" stroke-opacity="1.0" stroke-linecap="round" stroke-linejoin="round"/>
    <path d="M 53.40884780883789 118.31304931640625 C 77.46442413330078 135.09228515625 51.41604232788086 157.29470825195312 40.41553497314453 125.85824584960938" stroke-width="3.0" fill="none" stroke="rgb(0, 0, 0)" stroke-opacity="1.0" stroke-linecap="round" stroke-linejoin="round"/>
    <path d="M 106.20963287353516 89.4940414428711 C 63.65083694458008 98.14257049560547 15.324874877929688 95.20186614990234 94.62875366210938 95.90223693847656" stroke-width="3.0" fill="none" stroke="rgb(0, 0, 0)" stroke-opacity="1.0" stroke-linecap="round" stroke-linejoin="round"/>
    <path d="M 83.90555572509766 102.19693756103516 C 86.01176452636719 92.17904663085938 97.72689819335938 138.5250701904297 33.71920394897461 123.64965057373047" stroke-width="3.0" fill="none" stroke="rgb(0, 0, 0)" stroke-opacity="1.0" stroke-linecap="round" stroke-linejoin="round"/>
    <path d="M 151.30621337890625 96.724365234375 C 95.43473815917969 88.72181701660156 154.21742248535156 106.23478698730469 153.74195861816406 101.01065826416016" stroke-width="3.0" fill="none" stroke="rgb(0, 0, 0)" stroke-opacity="1.0" stroke-linecap="round" stroke-linejoin="round"/>
    <path d="M 96.40510559082031 118.50323486328125 C 61.8798828125 149.97605895996094 115.38923645019531 154.6219482421875 79.09581756591797 140.22645568847656" stroke-width="3.0" fill="none" stroke="rgb(0, 0, 0)" stroke-opacity="1.0" stroke-linecap="round" stroke-linejoin="round"/>
    <path d="M 25.48389434814453 52.88125228881836 C 20.363903045654297 65.64177703857422 0.29802557826042175 94.88101196289062 7.631010055541992 128.3299560546875" stroke-width="3.0" fill="none" stroke="rgb(0, 0, 0)" stroke-opacity="1.0" stroke-linecap="round" stroke-linejoin="round"/>
    <path d="M 180.65782165527344 194.1083526611328 C 190.24533081054688 180.21791076660156 225.02354431152344 147.07672119140625 215.79232788085938 100.30657958984375" stroke-width="3.0" fill="none" stroke="rgb(0, 0, 0)" stroke-opacity="1.0" stroke-linecap="round" stroke-linejoin="round"/>
    <path d="M 155.36685180664062 106.90520477294922 C 207.2447967529297 119.92650604248047 194.08950805664062 110.34430694580078 174.52188110351562 100.45845031738281" stroke-width="3.0" fill="none" stroke="rgb(0, 0, 0)" stroke-opacity="1.0" stroke-linecap="round" stroke-linejoin="round"/>
    <path d="M 132.3042449951172 92.5636978149414 C 255.12159729003906 126.64840698242188 152.30821228027344 92.76365661621094 174.5925750732422 142.49534606933594" stroke-width="3.0" fill="none" stroke="rgb(0, 0, 0)" stroke-opacity="1.0" stroke-linecap="round" stroke-linejoin="round"/>
    <path d="M 141.17318725585938 93.27665710449219 C 137.92559814453125 65.84635925292969 123.35409545898438 114.40741729736328 130.796630859375 85.16095733642578" stroke-width="3.0" fill="none" stroke="rgb(0, 0, 0)" stroke-opacity="1.0" stroke-linecap="round" stroke-linejoin="round"/>
    <path d="M 82.6146469116211 150.487548828125 C 132.02899169921875 146.0873565673828 86.7333755493164 80.74993133544922 90.54961395263672 135.7605438232422" stroke-width="3.0" fill="none" stroke="rgb(0, 0, 0)" stroke-opacity="1.0" stroke-linecap="round" stroke-linejoin="round"/>
    <path d="M 189.6772918701172 121.57827758789062 C 193.5552978515625 103.14032745361328 187.4048309326172 138.41055297851562 192.4547119140625 127.88565063476562" stroke-width="3.0" fill="none" stroke="rgb(0, 0, 0)" stroke-opacity="1.0" stroke-linecap="round" stroke-linejoin="round"/>
    <path d="M 135.84173583984375 94.37200164794922 C 104.93858337402344 92.14836883544922 189.6954345703125 102.81228637695312 136.1863250732422 95.75714874267578" stroke-width="3.0" fill="none" stroke="rgb(0, 0, 0)" stroke-opacity="1.0" stroke-linecap="round" stroke-linejoin="round"/>
    <path d="M 59.044464111328125 10.84769058227539 C 96.71604919433594 -12.925870895385742 94.8290023803711 -12.666086196899414 58.803531646728516 11.752038955688477" stroke-width="3.0" fill="none" stroke="rgb(0, 0, 0)" stroke-opacity="1.0" stroke-linecap="round" stroke-linejoin="round"/>
    <path d="M 27.648876190185547 126.43352508544922 C 109.64471435546875 134.9737091064453 104.78219604492188 156.60235595703125 33.06169509887695 147.41085815429688" stroke-width="3.0" fill="none" stroke="rgb(0, 0, 0)" stroke-opacity="1.0" stroke-linecap="round" stroke-linejoin="round"/>
    <path d="M 176.99278259277344 145.30523681640625 C 162.84344482421875 102.3397445678711 201.2598114013672 118.6061782836914 179.90940856933594 146.24803161621094" stroke-width="3.0" fill="none" stroke="rgb(0, 0, 0)" stroke-opacity="1.0" stroke-linecap="round" stroke-linejoin="round"/>
    <path d="M 61.7526741027832 135.7754364013672 C 6.739757537841797 122.09658813476562 24.50229835510254 90.75873565673828 84.98282623291016 109.010498046875" stroke-width="3.0" fill="none" stroke="rgb(0, 0, 0)" stroke-opacity="1.0" stroke-linecap="round" stroke-linejoin="round"/>
    <path d="M 6.843654155731201 121.33110809326172 C 10.54820442199707 189.7162322998047 79.01591491699219 206.1805877685547 113.975341796875 211.38638305664062" stroke-width="3.0" fill="none" stroke="rgb(0, 0, 0)" stroke-opacity="1.0" stroke-linecap="round" stroke-linejoin="round"/>
    <path d="M 84.93531036376953 152.90542602539062 C 164.6671600341797 151.2109832763672 171.8522186279297 152.84019470214844 106.34333038330078 148.5737762451172" stroke-width="3.0" fill="none" stroke="rgb(0, 0, 0)" stroke-opacity="1.0" stroke-linecap="round" stroke-linejoin="round"/>
    <path d="M 157.26414489746094 110.40260314941406 C 147.56588745117188 106.49297332763672 122.27426147460938 103.7242202758789 191.0818634033203 110.99869537353516" stroke-width="3.0" fill="none" stroke="rgb(0, 0, 0)" stroke-opacity="1.0" stroke-linecap="round" stroke-linejoin="round"/>
    <path d="M 53.17426681518555 96.33695220947266 C 67.98210144042969 123.51699829101562 35.092498779296875 90.1925048828125 50.74842834472656 111.8724594116211" stroke-width="3.0" fill="none" stroke="rgb(0, 0, 0)" stroke-opacity="1.0" stroke-linecap="round" stroke-linejoin="round"/>
    <path d="M 30.02845573425293 118.27497100830078 C 117.97611999511719 117.00680541992188 70.55115509033203 127.58682250976562 93.5484390258789 107.17291259765625" stroke-width="3.0" fill="none" stroke="rgb(0, 0, 0)" stroke-opacity="1.0" stroke-linecap="round" stroke-linejoin="round"/>
    <path d="M 26.981473922729492 51.513465881347656 C 47.096038818359375 26.115827560424805 41.473388671875 26.26569175720215 65.21063232421875 8.264294624328613" stroke-width="3.0" fill="none" stroke="rgb(0, 0, 0)" stroke-opacity="1.0" stroke-linecap="round" stroke-linejoin="round"/>
    <path d="M 181.65789794921875 140.8721160888672 C 164.5388641357422 137.03526306152344 80.17132568359375 143.25425720214844 122.78578186035156 135.39292907714844" stroke-width="3.0" fill="none" stroke="rgb(0, 0, 0)" stroke-opacity="1.0" stroke-linecap="round" stroke-linejoin="round"/>
    <path d="M 41.51654052734375 133.1426544189453 C 82.18020629882812 130.88836669921875 121.29938507080078 128.7576904296875 35.86769104003906 127.92436218261719" stroke-width="3.0" fill="none" stroke="rgb(0, 0, 0)" stroke-opacity="1.0" stroke-linecap="round" stroke-linejoin="round"/>
    <path d="M 103.68428039550781 87.2134017944336 C 95.2625732421875 88.9712905883789 118.61583709716797 84.1751937866211 116.86410522460938 84.13551330566406" stroke-width="3.0" fill="none" stroke="rgb(0, 0, 0)" stroke-opacity="1.0" stroke-linecap="round" stroke-linejoin="round"/>
    <path d="M 156.87030029296875 96.81427001953125 C 177.05332946777344 91.27684783935547 132.27134704589844 77.33006286621094 107.53306579589844 78.48628997802734" stroke-width="3.0" fill="none" stroke="rgb(0, 0, 0)" stroke-opacity="1.0" stroke-linecap="round" stroke-linejoin="round"/>
  </g>
</svg>
