<?xml version="1.0" ?>
<svg xmlns="http://www.w3.org/2000/svg" version="1.1" width="224" height="224">
  <defs/>
  <g>
    <path d="M 113.87786102294922 105.99044799804688 C 129.55398559570312 111.50151824951172 125.28941345214844 115.3507308959961 124.60013580322266 124.6377182006836" stroke-width="3.0" fill="none" stroke="rgb(0, 0, 0)" stroke-opacity="1.0" stroke-linecap="round" stroke-linejoin="round"/>
    <path d="M 62.79322052001953 133.1459503173828 C 73.2472152709961 152.29440307617188 75.92889404296875 144.56268310546875 73.03052520751953 133.98890686035156" stroke-width="3.0" fill="none" stroke="rgb(0, 0, 0)" stroke-opacity="1.0" stroke-linecap="round" stroke-linejoin="round"/>
    <path d="M 36.996150970458984 110.40998077392578 C 14.994670867919922 117.88618469238281 35.397315979003906 130.5472412109375 72.39415740966797 141.15248107910156" stroke-width="3.0" fill="none" stroke="rgb(0, 0, 0)" stroke-opacity="1.0" stroke-linecap="round" stroke-linejoin="round"/>
    <path d="M 47.70131301879883 123.54296112060547 C 77.10150146484375 123.87496948242188 82.8856201171875 135.53656005859375 77.28954315185547 105.7826919555664" stroke-width="3.0" fill="none" stroke="rgb(0, 0, 0)" stroke-opacity="1.0" stroke-linecap="round" stroke-linejoin="round"/>
    <path d="M 126.76887512207031 103.11742401123047 C 181.3931121826172 114.91807556152344 168.79025268554688 105.42517852783203 93.7266845703125 94.54499053955078" stroke-width="3.0" fill="none" stroke="rgb(0, 0, 0)" stroke-opacity="1.0" stroke-linecap="round" stroke-linejoin="round"/>
    <path d="M 170.947998046875 127.96224975585938 C 169.03138732910156 126.0291976928711 172.41229248046875 129.37710571289062 144.76962280273438 122.6809310913086" stroke-width="3.0" fill="none" stroke="rgb(0, 0, 0)" stroke-opacity="1.0" stroke-linecap="round" stroke-linejoin="round"/>
    <path d="M 72.12185668945312 100.13399505615234 C 111.68879699707031 96.14761352539062 104.54437255859375 108.4129638671875 63.3715934753418 109.42402648925781" stroke-width="3.0" fill="none" stroke="rgb(0, 0, 0)" stroke-opacity="1.0" stroke-linecap="round" stroke-linejoin="round"/>
    <path d="M 72.46099090576172 137.41258239746094 C 79.80157470703125 141.5819854736328 63.69438552856445 144.7708740234375 52.58949279785156 138.1844482421875" stroke-width="3.0" fill="none" stroke="rgb(0, 0, 0)" stroke-opacity="1.0" stroke-linecap="round" stroke-linejoin="round"/>
    <path d="M 166.26858520507812 191.34262084960938 C 156.67156982421875 203.03506469726562 165.9479522705078 192.82284545898438 172.32952880859375 190.2127685546875" stroke-width="3.0" fill="none" stroke="rgb(0, 0, 0)" stroke-opacity="1.0" stroke-linecap="round" stroke-linejoin="round"/>
    <path d="M 162.84552001953125 99.23326110839844 C 181.27182006835938 101.84672546386719 178.31590270996094 102.46602630615234 197.74522399902344 112.59890747070312" stroke-width="3.0" fill="none" stroke="rgb(0, 0, 0)" stroke-opacity="1.0" stroke-linecap="round" stroke-linejoin="round"/>
    <path d="M 116.06085205078125 110.84194946289062 C 128.4722137451172 126.18150329589844 121.0697250366211 155.4186553955078 137.23289489746094 136.76821899414062" stroke-width="3.0" fill="none" stroke="rgb(0, 0, 0)" stroke-opacity="1.0" stroke-linecap="round" stroke-linejoin="round"/>
    <path d="M 29.165273666381836 100.78919219970703 C 105.82556915283203 102.50175476074219 84.22992706298828 105.38067626953125 57.16674041748047 119.41694641113281" stroke-width="3.0" fill="none" stroke="rgb(0, 0, 0)" stroke-opacity="1.0" stroke-linecap="round" stroke-linejoin="round"/>
    <path d="M 155.4459228515625 126.33891296386719 C 128.17552185058594 125.1462631225586 149.36439514160156 129.0030059814453 142.6520538330078 113.97429656982422" stroke-width="3.0" fill="none" stroke="rgb(0, 0, 0)" stroke-opacity="1.0" stroke-linecap="round" stroke-linejoin="round"/>
    <path d="M 114.41278076171875 178.2253875732422 C 108.43573760986328 170.13951110839844 114.28687286376953 175.4866943359375 110.26915740966797 173.29331970214844" stroke-width="3.0" fill="none" stroke="rgb(0, 0, 0)" stroke-opacity="1.0" stroke-linecap="round" stroke-linejoin="round"/>
    <path d="M 169.7908172607422 23.77297592163086 C 190.6378631591797 40.26582336425781 208.6195068359375 56.065921783447266 216.6782989501953 98.4947509765625" stroke-width="3.0" fill="none" stroke="rgb(0, 0, 0)" stroke-opacity="1.0" stroke-linecap="round" stroke-linejoin="round"/>
    <path d="M 99.82553100585938 84.08638000488281 C 146.0227813720703 84.06452941894531 134.9685821533203 85.43074798583984 128.62322998046875 98.85379028320312" stroke-width="3.0" fill="none" stroke="rgb(0, 0, 0)" stroke-opacity="1.0" stroke-linecap="round" stroke-linejoin="round"/>
    <path d="M 117.27015686035156 11.67797565460205 C 144.40187072753906 9.653970718383789 164.48886108398438 20.446714401245117 180.4575958251953 30.5656681060791" stroke-width="3.0" fill="none" stroke="rgb(0, 0, 0)" stroke-opacity="1.0" stroke-linecap="round" stroke-linejoin="round"/>
    <path d="M 138.2811737060547 137.1510467529297 C 141.67141723632812 143.88548278808594 125.8415756225586 146.47532653808594 136.30615234375 134.13272094726562" stroke-width="3.0" fill="none" stroke="rgb(0, 0, 0)" stroke-opacity="1.0" stroke-linecap="round" stroke-linejoin="round"/>
    <path d="M 71.18535614013672 139.4099884033203 C 54.584983825683594 149.4654541015625 61.13043212890625 147.4984130859375 32.55791473388672 141.91441345214844" stroke-width="3.0" fill="none" stroke="rgb(0, 0, 0)" stroke-opacity="1.0" stroke-linecap="round" stroke-linejoin="round"/>
    <path d="M 169.31199645996094 133.5224609375 C 188.2466278076172 168.30123901367188 183.0205535888672 98.76152801513672 176.41732788085938 130.68582153320312" stroke-width="3.0" fill="none" stroke="rgb(0, 0, 0)" stroke-opacity="1.0" stroke-linecap="round" stroke-linejoin="round"/>
    <path d="M 120.89185333251953 193.95718383789062 C 111.88143920898438 186.35462951660156 112.95816802978516 185.7606964111328 111.21923065185547 193.6977996826172" stroke-width="3.0" fill="none" stroke="rgb(0, 0, 0)" stroke-opacity="1.0" stroke-linecap="round" stroke-linejoin="round"/>
    <path d="M 50.156585693359375 135.3874969482422 C 53.02894973754883 126.78733825683594 53.2331657409668 127.50216674804688 32.35093688964844 122.84275817871094" stroke-width="3.0" fill="none" stroke="rgb(0, 0, 0)" stroke-opacity="1.0" stroke-linecap="round" stroke-linejoin="round"/>
    <path d="M 73.43949127197266 99.76197052001953 C 65.82369995117188 108.56481170654297 10.640869140625 106.386474609375 54.76984786987305 102.41129302978516" stroke-width="3.0" fill="none" stroke="rgb(0, 0, 0)" stroke-opacity="1.0" stroke-linecap="round" stroke-linejoin="round"/>
    <path d="M 72.9355239868164 119.16834259033203 C 75.92198944091797 109.09855651855469 81.98805236816406 115.63799285888672 57.95616149902344 115.52789306640625" stroke-width="3.0" fill="none" stroke="rgb(0, 0, 0)" stroke-opacity="1.0" stroke-linecap="round" stroke-linejoin="round"/>
    <path d="M 147.6222381591797 104.68449401855469 C 115.60804748535156 90.58881378173828 151.5460968017578 118.40484619140625 166.22100830078125 97.61925506591797" stroke-width="3.0" fill="none" stroke="rgb(0, 0, 0)" stroke-opacity="1.0" stroke-linecap="round" stroke-linejoin="round"/>
    <path d="M 91.64048767089844 107.99462127685547 C 72.79476165771484 131.62869262695312 83.19822692871094 192.75985717773438 80.63078308105469 131.0117950439453" stroke-width="3.0" fill="none" stroke="rgb(0, 0, 0)" stroke-opacity="1.0" stroke-linecap="round" stroke-linejoin="round"/>
    <path d="M 14.50421142578125 82.72036743164062 C 15.901071548461914 78.26536560058594 15.564315795898438 75.42909240722656 7.193461894989014 108.35655975341797" stroke-width="3.0" fill="none" stroke="rgb(0, 0, 0)" stroke-opacity="1.0" stroke-linecap="round" stroke-linejoin="round"/>
    <path d="M 177.56129455566406 187.1254119873047 C 181.83099365234375 171.83216857910156 183.73631286621094 185.66189575195312 197.81143188476562 157.6739501953125" stroke-width="3.0" fill="none" stroke="rgb(0, 0, 0)" stroke-opacity="1.0" stroke-linecap="round" stroke-linejoin="round"/>
    <path d="M 159.10433959960938 110.89728546142578 C 209.68919372558594 115.4165267944336 210.6811981201172 111.54708862304688 158.74710083007812 107.7303466796875" stroke-width="3.0" fill="none" stroke="rgb(0, 0, 0)" stroke-opacity="1.0" stroke-linecap="round" stroke-linejoin="round"/>
    <path d="M 150.7121124267578 103.97894287109375 C 185.70880126953125 116.27909851074219 180.7178955078125 102.02227020263672 169.95632934570312 131.34384155273438" stroke-width="3.0" fill="none" stroke="rgb(0, 0, 0)" stroke-opacity="1.0" stroke-linecap="round" stroke-linejoin="round"/>
    <path d="M 142.01998901367188 104.8121337890625 C 143.9735107421875 98.84391021728516 129.0813446044922 115.92059326171875 140.2422332763672 85.90077209472656" stroke-width="3.0" fill="none" stroke="rgb(0, 0, 0)" stroke-opacity="1.0" stroke-linecap="round" stroke-linejoin="round"/>
    <path d="M 102.17500305175781 146.08285522460938 C 130.0973663330078 132.62176513671875 109.24724578857422 87.17688751220703 89.64908599853516 109.13716888427734" stroke-width="3.0" fill="none" stroke="rgb(0, 0, 0)" stroke-opacity="1.0" stroke-linecap="round" stroke-linejoin="round"/>
    <path d="M 196.656005859375 113.2852554321289 C 196.535888671875 114.86261749267578 191.6960906982422 117.7379150390625 190.585205078125 125.12382507324219" stroke-width="3.0" fill="none" stroke="rgb(0, 0, 0)" stroke-opacity="1.0" stroke-linecap="round" stroke-linejoin="round"/>
    <path d="M 159.0637969970703 120.40723419189453 C 145.34146118164062 96.69239044189453 178.22955322265625 100.0819320678711 143.47731018066406 101.86473083496094" stroke-width="3.0" fill="none" stroke="rgb(0, 0, 0)" stroke-opacity="1.0" stroke-linecap="round" stroke-linejoin="round"/>
    <path d="M 69.01057434082031 20.44538688659668 C 86.24002838134766 30.192123413085938 87.30387115478516 25.949546813964844 65.38941955566406 22.5269832611084" stroke-width="3.0" fill="none" stroke="rgb(0, 0, 0)" stroke-opacity="1.0" stroke-linecap="round" stroke-linejoin="round"/>
    <path d="M 44.82535171508789 133.06996154785156 C 76.9085464477539 129.00448608398438 68.3979263305664 136.92904663085938 59.12266159057617 142.43141174316406" stroke-width="3.0" fill="none" stroke="rgb(0, 0, 0)" stroke-opacity="1.0" stroke-linecap="round" stroke-linejoin="round"/>
    <path d="M 169.72703552246094 128.89242553710938 C 174.57374572753906 110.18804931640625 191.08607482910156 112.91126251220703 189.7342071533203 134.82252502441406" stroke-width="3.0" fill="none" stroke="rgb(0, 0, 0)" stroke-opacity="1.0" stroke-linecap="round" stroke-linejoin="round"/>
    <path d="M 47.13120651245117 139.87008666992188 C 29.950345993041992 96.44947814941406 22.786582946777344 91.9732437133789 69.13557434082031 112.13330841064453" stroke-width="3.0" fill="none" stroke="rgb(0, 0, 0)" stroke-opacity="1.0" stroke-linecap="round" stroke-linejoin="round"/>
    <path d="M 90.01542663574219 180.62850952148438 C 87.58595275878906 167.7339630126953 83.05197143554688 174.0557403564453 97.60124206542969 184.23068237304688" stroke-width="3.0" fill="none" stroke="rgb(0, 0, 0)" stroke-opacity="1.0" stroke-linecap="round" stroke-linejoin="round"/>
    <path d="M 119.52527618408203 126.67037963867188 C 117.98849487304688 149.0027618408203 120.33908081054688 127.16383361816406 121.63265228271484 131.96974182128906" stroke-width="3.0" fill="none" stroke="rgb(0, 0, 0)" stroke-opacity="1.0" stroke-linecap="round" stroke-linejoin="round"/>
    <path d="M 153.77230834960938 115.04436492919922 C 154.29502868652344 118.50434112548828 130.51979064941406 108.77838897705078 183.56890869140625 113.32456970214844" stroke-width="3.0" fill="none" stroke="rgb(0, 0, 0)" stroke-opacity="1.0" stroke-linecap="round" stroke-linejoin="round"/>
    <path d="M 85.66236877441406 119.66094207763672 C 78.46537780761719 124.61334228515625 50.755069732666016 116.26683044433594 59.87736511230469 103.9316635131836" stroke-width="3.0" fill="none" stroke="rgb(0, 0, 0)" stroke-opacity="1.0" stroke-linecap="round" stroke-linejoin="round"/>
    <path d="M 35.999813079833984 117.75885009765625 C 70.34165954589844 122.41324615478516 98.40090942382812 121.693359375 73.9017105102539 119.03937530517578" stroke-width="3.0" fill="none" stroke="rgb(0, 0, 0)" stroke-opacity="1.0" stroke-linecap="round" stroke-linejoin="round"/>
    <path d="M 25.340930938720703 57.40117645263672 C 43.5184211730957 28.62917137145996 41.79169845581055 40.680992126464844 50.012943267822266 29.20812225341797" stroke-width="3.0" fill="none" stroke="rgb(0, 0, 0)" stroke-opacity="1.0" stroke-linecap="round" stroke-linejoin="round"/>
    <path d="M 169.6282501220703 136.50082397460938 C 150.487060546875 134.82772827148438 150.6665496826172 134.09982299804688 118.71893310546875 136.18063354492188" stroke-width="3.0" fill="none" stroke="rgb(0, 0, 0)" stroke-opacity="1.0" stroke-linecap="round" stroke-linejoin="round"/>
    <path d="M 28.10793113708496 120.07549285888672 C 39.95752716064453 127.719970703125 61.83518981933594 122.4533462524414 28.355575561523438 124.2274169921875" stroke-width="3.0" fill="none" stroke="rgb(0, 0, 0)" stroke-opacity="1.0" stroke-linecap="round" stroke-linejoin="round"/>
    <path d="M 87.26318359375 88.16771697998047 C 106.23758697509766 72.07512664794922 106.00682067871094 87.59420013427734 108.05723571777344 90.49161529541016" stroke-width="3.0" fill="none" stroke="rgb(0, 0, 0)" stroke-opacity="1.0" stroke-linecap="round" stroke-linejoin="round"/>
    <path d="M 166.7374725341797 102.33256530761719 C 166.0943145751953 88.95918273925781 146.36436462402344 85.7271728515625 140.85784912109375 87.5804214477539" stroke-width="3.0" fill="none" stroke="rgb(0, 0, 0)" stroke-opacity="1.0" stroke-linecap="round" stroke-linejoin="round"/>
  </g>
</svg>
