<?xml version="1.0" ?>
<svg xmlns="http://www.w3.org/2000/svg" version="1.1" width="224" height="224">
  <defs/>
  <g>
    <path d="M 74.82124328613281 107.23619079589844 C 119.8337173461914 92.80459594726562 122.25672149658203 133.3256072998047 112.96112060546875 144.68380737304688" stroke-width="3.0" fill="none" stroke="rgb(0, 0, 0)" stroke-opacity="1.0" stroke-linecap="round" stroke-linejoin="round"/>
    <path d="M 67.48313903808594 127.49947357177734 C 96.92765808105469 157.39808654785156 76.44493103027344 154.86668395996094 74.1148681640625 128.0855712890625" stroke-width="3.0" fill="none" stroke="rgb(0, 0, 0)" stroke-opacity="1.0" stroke-linecap="round" stroke-linejoin="round"/>
    <path d="M 45.5812873840332 127.80906677246094 C -8.626306533813477 109.40791320800781 1.791823387145996 120.34990692138672 83.02143859863281 123.06697082519531" stroke-width="3.0" fill="none" stroke="rgb(0, 0, 0)" stroke-opacity="1.0" stroke-linecap="round" stroke-linejoin="round"/>
    <path d="M 24.399919509887695 114.90852355957031 C 100.82437133789062 121.56349182128906 84.95097351074219 120.21975708007812 81.18595886230469 119.4902114868164" stroke-width="3.0" fill="none" stroke="rgb(0, 0, 0)" stroke-opacity="1.0" stroke-linecap="round" stroke-linejoin="round"/>
    <path d="M 100.09783172607422 97.26991271972656 C 191.81874084472656 119.45964813232422 179.6844940185547 107.95203399658203 105.7302474975586 96.67207336425781" stroke-width="3.0" fill="none" stroke="rgb(0, 0, 0)" stroke-opacity="1.0" stroke-linecap="round" stroke-linejoin="round"/>
    <path d="M 174.09800720214844 140.61465454101562 C 171.72268676757812 102.0971908569336 203.0731964111328 118.81879425048828 146.83511352539062 105.92467498779297" stroke-width="3.0" fill="none" stroke="rgb(0, 0, 0)" stroke-opacity="1.0" stroke-linecap="round" stroke-linejoin="round"/>
    <path d="M 43.60023880004883 100.1924819946289 C 133.9012908935547 103.29016876220703 125.17339324951172 93.07844543457031 46.17710876464844 97.06920623779297" stroke-width="3.0" fill="none" stroke="rgb(0, 0, 0)" stroke-opacity="1.0" stroke-linecap="round" stroke-linejoin="round"/>
    <path d="M 63.732933044433594 140.0202178955078 C 99.51812744140625 137.13327026367188 84.87451171875 141.34323120117188 32.9229621887207 129.35142517089844" stroke-width="3.0" fill="none" stroke="rgb(0, 0, 0)" stroke-opacity="1.0" stroke-linecap="round" stroke-linejoin="round"/>
    <path d="M 125.14244842529297 208.87570190429688 C 193.4071807861328 190.97923278808594 148.35971069335938 200.08616638183594 176.13243103027344 193.72427368164062" stroke-width="3.0" fill="none" stroke="rgb(0, 0, 0)" stroke-opacity="1.0" stroke-linecap="round" stroke-linejoin="round"/>
    <path d="M 157.45291137695312 111.23976135253906 C 175.70248413085938 114.90127563476562 181.12953186035156 118.22673797607422 196.80673217773438 112.53690338134766" stroke-width="3.0" fill="none" stroke="rgb(0, 0, 0)" stroke-opacity="1.0" stroke-linecap="round" stroke-linejoin="round"/>
    <path d="M 99.3243408203125 103.64483642578125 C 127.39492797851562 101.8692398071289 116.248291015625 147.60643005371094 133.9908905029297 144.49417114257812" stroke-width="3.0" fill="none" stroke="rgb(0, 0, 0)" stroke-opacity="1.0" stroke-linecap="round" stroke-linejoin="round"/>
    <path d="M 11.722156524658203 110.03656768798828 C 129.3881072998047 105.96723937988281 100.33757781982422 102.98053741455078 27.461999893188477 100.98127746582031" stroke-width="3.0" fill="none" stroke="rgb(0, 0, 0)" stroke-opacity="1.0" stroke-linecap="round" stroke-linejoin="round"/>
    <path d="M 177.46505737304688 109.41095733642578 C 126.06037139892578 100.01065063476562 160.4021759033203 109.81781005859375 127.49164581298828 104.17805480957031" stroke-width="3.0" fill="none" stroke="rgb(0, 0, 0)" stroke-opacity="1.0" stroke-linecap="round" stroke-linejoin="round"/>
    <path d="M 80.01533508300781 206.67019653320312 C 88.61447143554688 209.11129760742188 106.39574432373047 212.871826171875 112.31949615478516 210.8134307861328" stroke-width="3.0" fill="none" stroke="rgb(0, 0, 0)" stroke-opacity="1.0" stroke-linecap="round" stroke-linejoin="round"/>
    <path d="M 173.418701171875 25.227834701538086 C 189.25001525878906 34.69523239135742 228.5662841796875 72.8442611694336 213.92562866210938 133.70758056640625" stroke-width="3.0" fill="none" stroke="rgb(0, 0, 0)" stroke-opacity="1.0" stroke-linecap="round" stroke-linejoin="round"/>
    <path d="M 108.33004760742188 81.82461547851562 C 143.5511932373047 77.81946563720703 139.43801879882812 79.44847106933594 125.86318969726562 96.4891357421875" stroke-width="3.0" fill="none" stroke="rgb(0, 0, 0)" stroke-opacity="1.0" stroke-linecap="round" stroke-linejoin="round"/>
    <path d="M 58.90416717529297 23.60767364501953 C 119.56233978271484 -9.740809440612793 167.684814453125 18.037778854370117 188.64173889160156 36.46513366699219" stroke-width="3.0" fill="none" stroke="rgb(0, 0, 0)" stroke-opacity="1.0" stroke-linecap="round" stroke-linejoin="round"/>
    <path d="M 133.573486328125 135.9500732421875 C 127.18997955322266 153.06256103515625 147.3533935546875 122.69026947021484 137.19766235351562 143.92250061035156" stroke-width="3.0" fill="none" stroke="rgb(0, 0, 0)" stroke-opacity="1.0" stroke-linecap="round" stroke-linejoin="round"/>
    <path d="M 61.746429443359375 136.05459594726562 C 58.55963134765625 138.2116241455078 72.9172134399414 142.1516571044922 17.69479751586914 123.96470642089844" stroke-width="3.0" fill="none" stroke="rgb(0, 0, 0)" stroke-opacity="1.0" stroke-linecap="round" stroke-linejoin="round"/>
    <path d="M 168.95352172851562 136.0771942138672 C 192.1299285888672 162.65541076660156 182.39584350585938 106.22442626953125 178.89329528808594 128.72926330566406" stroke-width="3.0" fill="none" stroke="rgb(0, 0, 0)" stroke-opacity="1.0" stroke-linecap="round" stroke-linejoin="round"/>
    <path d="M 137.80604553222656 206.69187927246094 C 109.32676696777344 215.9385528564453 100.6421127319336 211.06851196289062 132.3218994140625 208.50735473632812" stroke-width="3.0" fill="none" stroke="rgb(0, 0, 0)" stroke-opacity="1.0" stroke-linecap="round" stroke-linejoin="round"/>
    <path d="M 56.63629150390625 139.84390258789062 C 73.79019927978516 126.92901611328125 50.35557174682617 156.43460083007812 37.518375396728516 127.68312072753906" stroke-width="3.0" fill="none" stroke="rgb(0, 0, 0)" stroke-opacity="1.0" stroke-linecap="round" stroke-linejoin="round"/>
    <path d="M 90.55371856689453 90.51883697509766 C 41.03168487548828 89.63877868652344 -10.67333698272705 99.34220123291016 63.86639404296875 96.19502258300781" stroke-width="3.0" fill="none" stroke="rgb(0, 0, 0)" stroke-opacity="1.0" stroke-linecap="round" stroke-linejoin="round"/>
    <path d="M 73.0352554321289 98.78963470458984 C 70.75678253173828 116.92181396484375 94.12700653076172 115.70130920410156 52.15113830566406 114.12106323242188" stroke-width="3.0" fill="none" stroke="rgb(0, 0, 0)" stroke-opacity="1.0" stroke-linecap="round" stroke-linejoin="round"/>
    <path d="M 149.10462951660156 97.67636108398438 C 120.58517456054688 80.63766479492188 157.97525024414062 102.8544921875 162.25196838378906 96.2098388671875" stroke-width="3.0" fill="none" stroke="rgb(0, 0, 0)" stroke-opacity="1.0" stroke-linecap="round" stroke-linejoin="round"/>
    <path d="M 93.92383575439453 119.82193756103516 C 68.68598175048828 134.19180297851562 105.82673645019531 166.80215454101562 80.70287322998047 137.42349243164062" stroke-width="3.0" fill="none" stroke="rgb(0, 0, 0)" stroke-opacity="1.0" stroke-linecap="round" stroke-linejoin="round"/>
    <path d="M 25.106660842895508 48.10850524902344 C 17.024213790893555 67.93057250976562 3.255089282989502 87.28177642822266 7.814546585083008 125.42230987548828" stroke-width="3.0" fill="none" stroke="rgb(0, 0, 0)" stroke-opacity="1.0" stroke-linecap="round" stroke-linejoin="round"/>
    <path d="M 179.79965209960938 190.68995666503906 C 192.79335021972656 176.07249450683594 217.1023712158203 151.69503784179688 213.44691467285156 121.84112548828125" stroke-width="3.0" fill="none" stroke="rgb(0, 0, 0)" stroke-opacity="1.0" stroke-linecap="round" stroke-linejoin="round"/>
    <path d="M 143.90708923339844 107.53032684326172 C 206.7703094482422 121.3411636352539 202.26040649414062 111.84361267089844 147.42379760742188 105.70496368408203" stroke-width="3.0" fill="none" stroke="rgb(0, 0, 0)" stroke-opacity="1.0" stroke-linecap="round" stroke-linejoin="round"/>
    <path d="M 139.8826141357422 94.92047119140625 C 229.39126586914062 120.21705627441406 168.25469970703125 101.44298553466797 171.9644317626953 137.6979217529297" stroke-width="3.0" fill="none" stroke="rgb(0, 0, 0)" stroke-opacity="1.0" stroke-linecap="round" stroke-linejoin="round"/>
    <path d="M 148.46212768554688 95.30363464355469 C 139.82814025878906 89.75614929199219 131.27529907226562 107.98921966552734 139.5387725830078 83.01589965820312" stroke-width="3.0" fill="none" stroke="rgb(0, 0, 0)" stroke-opacity="1.0" stroke-linecap="round" stroke-linejoin="round"/>
    <path d="M 80.70177459716797 147.20089721679688 C 133.0625 167.8795166015625 106.20721435546875 82.00987243652344 83.53787231445312 118.37918090820312" stroke-width="3.0" fill="none" stroke="rgb(0, 0, 0)" stroke-opacity="1.0" stroke-linecap="round" stroke-linejoin="round"/>
    <path d="M 183.3563232421875 115.02172088623047 C 204.685791015625 101.74195098876953 190.08575439453125 129.61038208007812 185.95022583007812 114.5932388305664" stroke-width="3.0" fill="none" stroke="rgb(0, 0, 0)" stroke-opacity="1.0" stroke-linecap="round" stroke-linejoin="round"/>
    <path d="M 138.51661682128906 106.05496978759766 C 105.88766479492188 83.1177978515625 185.18402099609375 105.19480895996094 144.4293975830078 99.96126556396484" stroke-width="3.0" fill="none" stroke="rgb(0, 0, 0)" stroke-opacity="1.0" stroke-linecap="round" stroke-linejoin="round"/>
    <path d="M 62.038116455078125 22.056303024291992 C 101.62117004394531 14.85726261138916 84.69281005859375 4.84628438949585 64.04866790771484 19.56900405883789" stroke-width="3.0" fill="none" stroke="rgb(0, 0, 0)" stroke-opacity="1.0" stroke-linecap="round" stroke-linejoin="round"/>
    <path d="M 31.666641235351562 125.7312240600586 C 107.2099380493164 137.2383575439453 88.45767211914062 157.23538208007812 34.975955963134766 143.6818084716797" stroke-width="3.0" fill="none" stroke="rgb(0, 0, 0)" stroke-opacity="1.0" stroke-linecap="round" stroke-linejoin="round"/>
    <path d="M 177.44947814941406 143.12733459472656 C 163.97218322753906 101.98239135742188 203.036865234375 117.65801239013672 179.01858520507812 143.30496215820312" stroke-width="3.0" fill="none" stroke="rgb(0, 0, 0)" stroke-opacity="1.0" stroke-linecap="round" stroke-linejoin="round"/>
    <path d="M 39.409061431884766 139.0946502685547 C 13.557334899902344 100.32107543945312 24.312101364135742 99.106201171875 86.65343475341797 108.1295166015625" stroke-width="3.0" fill="none" stroke="rgb(0, 0, 0)" stroke-opacity="1.0" stroke-linecap="round" stroke-linejoin="round"/>
    <path d="M 7.2817888259887695 126.10201263427734 C 20.09634780883789 191.2828369140625 76.46575927734375 209.6009063720703 93.86792755126953 210.4885711669922" stroke-width="3.0" fill="none" stroke="rgb(0, 0, 0)" stroke-opacity="1.0" stroke-linecap="round" stroke-linejoin="round"/>
    <path d="M 119.87779998779297 129.34056091308594 C 137.86172485351562 152.65673828125 146.11192321777344 142.66290283203125 118.28158569335938 131.57769775390625" stroke-width="3.0" fill="none" stroke="rgb(0, 0, 0)" stroke-opacity="1.0" stroke-linecap="round" stroke-linejoin="round"/>
    <path d="M 154.95721435546875 106.94071197509766 C 156.08706665039062 105.36004638671875 132.29920959472656 101.04254913330078 187.74447631835938 115.56990814208984" stroke-width="3.0" fill="none" stroke="rgb(0, 0, 0)" stroke-opacity="1.0" stroke-linecap="round" stroke-linejoin="round"/>
    <path d="M 74.96554565429688 105.97801971435547 C 86.39425659179688 124.37419128417969 45.8571662902832 92.79600524902344 47.9805793762207 120.15808868408203" stroke-width="3.0" fill="none" stroke="rgb(0, 0, 0)" stroke-opacity="1.0" stroke-linecap="round" stroke-linejoin="round"/>
    <path d="M 25.348676681518555 105.20626831054688 C 104.6280288696289 118.45132446289062 70.7160873413086 116.39707946777344 92.87724304199219 105.18769073486328" stroke-width="3.0" fill="none" stroke="rgb(0, 0, 0)" stroke-opacity="1.0" stroke-linecap="round" stroke-linejoin="round"/>
    <path d="M 25.82546043395996 47.957176208496094 C 48.847747802734375 26.93692398071289 37.08698272705078 35.20651626586914 55.12712860107422 24.944726943969727" stroke-width="3.0" fill="none" stroke="rgb(0, 0, 0)" stroke-opacity="1.0" stroke-linecap="round" stroke-linejoin="round"/>
    <path d="M 183.0167999267578 134.9269561767578 C 170.5284881591797 135.88165283203125 122.30555725097656 132.97669982910156 120.01769256591797 134.7628631591797" stroke-width="3.0" fill="none" stroke="rgb(0, 0, 0)" stroke-opacity="1.0" stroke-linecap="round" stroke-linejoin="round"/>
    <path d="M 34.24992370605469 128.83056640625 C 73.10499572753906 127.6106185913086 94.0525131225586 139.49221801757812 29.901796340942383 126.4940414428711" stroke-width="3.0" fill="none" stroke="rgb(0, 0, 0)" stroke-opacity="1.0" stroke-linecap="round" stroke-linejoin="round"/>
    <path d="M 93.04743194580078 89.49597930908203 C 106.23517608642578 78.2940902709961 119.17308807373047 82.35277557373047 120.9188232421875 84.3120346069336" stroke-width="3.0" fill="none" stroke="rgb(0, 0, 0)" stroke-opacity="1.0" stroke-linecap="round" stroke-linejoin="round"/>
    <path d="M 162.23243713378906 97.77928161621094 C 175.32611083984375 91.48957824707031 139.91294860839844 80.66431427001953 130.04747009277344 81.3856430053711" stroke-width="3.0" fill="none" stroke="rgb(0, 0, 0)" stroke-opacity="1.0" stroke-linecap="round" stroke-linejoin="round"/>
  </g>
</svg>
