<?xml version="1.0" ?>
<svg xmlns="http://www.w3.org/2000/svg" version="1.1" width="224" height="224">
  <defs/>
  <g>
    <path d="M 98.42985534667969 102.74070739746094 C 122.36780548095703 104.84402465820312 117.34436798095703 119.26568603515625 120.7200698852539 130.19053649902344" stroke-width="3.0" fill="none" stroke="rgb(0, 0, 0)" stroke-opacity="1.0" stroke-linecap="round" stroke-linejoin="round"/>
    <path d="M 53.13422775268555 139.9300079345703 C 84.78516387939453 141.905029296875 80.42422485351562 130.63043212890625 67.6845474243164 138.95387268066406" stroke-width="3.0" fill="none" stroke="rgb(0, 0, 0)" stroke-opacity="1.0" stroke-linecap="round" stroke-linejoin="round"/>
    <path d="M 35.03314971923828 118.08027648925781 C 4.915859699249268 117.88090515136719 31.323904037475586 133.3383026123047 82.31161499023438 133.67173767089844" stroke-width="3.0" fill="none" stroke="rgb(0, 0, 0)" stroke-opacity="1.0" stroke-linecap="round" stroke-linejoin="round"/>
    <path d="M 36.67136764526367 122.38465881347656 C 91.82345581054688 120.5910873413086 90.52517700195312 133.81246948242188 76.13353729248047 103.70865631103516" stroke-width="3.0" fill="none" stroke="rgb(0, 0, 0)" stroke-opacity="1.0" stroke-linecap="round" stroke-linejoin="round"/>
    <path d="M 114.4726333618164 102.44868469238281 C 188.47720336914062 114.13236999511719 174.68434143066406 102.50782012939453 89.57935333251953 95.1906509399414" stroke-width="3.0" fill="none" stroke="rgb(0, 0, 0)" stroke-opacity="1.0" stroke-linecap="round" stroke-linejoin="round"/>
    <path d="M 171.29913330078125 126.6713638305664 C 176.58750915527344 114.77025604248047 172.4453582763672 121.30142974853516 143.6720428466797 111.75908660888672" stroke-width="3.0" fill="none" stroke="rgb(0, 0, 0)" stroke-opacity="1.0" stroke-linecap="round" stroke-linejoin="round"/>
    <path d="M 76.88780212402344 103.23267364501953 C 118.18678283691406 103.04839324951172 109.74949645996094 103.92008209228516 53.789066314697266 98.8814926147461" stroke-width="3.0" fill="none" stroke="rgb(0, 0, 0)" stroke-opacity="1.0" stroke-linecap="round" stroke-linejoin="round"/>
    <path d="M 78.85547637939453 135.6935272216797 C 98.59654998779297 150.4646453857422 82.20903015136719 138.01243591308594 46.59113693237305 144.4711151123047" stroke-width="3.0" fill="none" stroke="rgb(0, 0, 0)" stroke-opacity="1.0" stroke-linecap="round" stroke-linejoin="round"/>
    <path d="M 163.1400909423828 196.30789184570312 C 183.34539794921875 187.698486328125 170.45986938476562 192.55355834960938 180.0057373046875 188.39732360839844" stroke-width="3.0" fill="none" stroke="rgb(0, 0, 0)" stroke-opacity="1.0" stroke-linecap="round" stroke-linejoin="round"/>
    <path d="M 160.27696228027344 105.60921478271484 C 175.66864013671875 102.9563217163086 175.70736694335938 107.54731750488281 198.35630798339844 113.81076049804688" stroke-width="3.0" fill="none" stroke="rgb(0, 0, 0)" stroke-opacity="1.0" stroke-linecap="round" stroke-linejoin="round"/>
    <path d="M 108.40023040771484 105.95655822753906 C 121.19132995605469 116.55931854248047 108.68702697753906 148.31446838378906 139.51303100585938 131.7361297607422" stroke-width="3.0" fill="none" stroke="rgb(0, 0, 0)" stroke-opacity="1.0" stroke-linecap="round" stroke-linejoin="round"/>
    <path d="M 32.5605583190918 103.4881362915039 C 101.47863006591797 107.9509048461914 78.381103515625 105.30463409423828 47.5715446472168 113.697021484375" stroke-width="3.0" fill="none" stroke="rgb(0, 0, 0)" stroke-opacity="1.0" stroke-linecap="round" stroke-linejoin="round"/>
    <path d="M 165.32571411132812 121.05457305908203 C 127.02273559570312 118.82803344726562 152.54391479492188 121.80415344238281 136.519287109375 110.30162048339844" stroke-width="3.0" fill="none" stroke="rgb(0, 0, 0)" stroke-opacity="1.0" stroke-linecap="round" stroke-linejoin="round"/>
    <path d="M 104.84365844726562 187.8880157470703 C 102.92507934570312 191.2506561279297 112.0264892578125 185.5232391357422 107.81491088867188 189.4730224609375" stroke-width="3.0" fill="none" stroke="rgb(0, 0, 0)" stroke-opacity="1.0" stroke-linecap="round" stroke-linejoin="round"/>
    <path d="M 171.01596069335938 22.80412483215332 C 187.61207580566406 32.983856201171875 221.48585510253906 68.7028579711914 217.95172119140625 118.61932373046875" stroke-width="3.0" fill="none" stroke="rgb(0, 0, 0)" stroke-opacity="1.0" stroke-linecap="round" stroke-linejoin="round"/>
    <path d="M 105.61811065673828 85.45763397216797 C 143.42665100097656 81.32477569580078 135.36624145507812 78.55296325683594 126.39641571044922 98.85648345947266" stroke-width="3.0" fill="none" stroke="rgb(0, 0, 0)" stroke-opacity="1.0" stroke-linecap="round" stroke-linejoin="round"/>
    <path d="M 66.89140319824219 19.76939582824707 C 132.95875549316406 -7.723420143127441 164.28904724121094 18.570924758911133 184.11520385742188 34.43649673461914" stroke-width="3.0" fill="none" stroke="rgb(0, 0, 0)" stroke-opacity="1.0" stroke-linecap="round" stroke-linejoin="round"/>
    <path d="M 137.7172393798828 135.25079345703125 C 129.76101684570312 151.80386352539062 123.74313354492188 136.04832458496094 130.08224487304688 136.12074279785156" stroke-width="3.0" fill="none" stroke="rgb(0, 0, 0)" stroke-opacity="1.0" stroke-linecap="round" stroke-linejoin="round"/>
    <path d="M 70.57088470458984 136.53050231933594 C 51.85962677001953 142.78567504882812 71.099609375 154.1577911376953 34.14307403564453 142.08145141601562" stroke-width="3.0" fill="none" stroke="rgb(0, 0, 0)" stroke-opacity="1.0" stroke-linecap="round" stroke-linejoin="round"/>
    <path d="M 170.28611755371094 133.41065979003906 C 192.69415283203125 164.93963623046875 183.93594360351562 103.16242980957031 177.40884399414062 128.8928985595703" stroke-width="3.0" fill="none" stroke="rgb(0, 0, 0)" stroke-opacity="1.0" stroke-linecap="round" stroke-linejoin="round"/>
    <path d="M 130.7106475830078 200.6857452392578 C 99.38617706298828 196.12112426757812 97.14512634277344 189.21884155273438 113.45366668701172 196.97921752929688" stroke-width="3.0" fill="none" stroke="rgb(0, 0, 0)" stroke-opacity="1.0" stroke-linecap="round" stroke-linejoin="round"/>
    <path d="M 51.55811309814453 145.96633911132812 C 60.838645935058594 124.7018051147461 53.99102020263672 132.99371337890625 28.103023529052734 122.25516510009766" stroke-width="3.0" fill="none" stroke="rgb(0, 0, 0)" stroke-opacity="1.0" stroke-linecap="round" stroke-linejoin="round"/>
    <path d="M 99.31555938720703 95.40018463134766 C 52.23487854003906 90.65829467773438 -9.527566909790039 100.1187744140625 55.28095626831055 99.83071899414062" stroke-width="3.0" fill="none" stroke="rgb(0, 0, 0)" stroke-opacity="1.0" stroke-linecap="round" stroke-linejoin="round"/>
    <path d="M 65.66874694824219 117.26514434814453 C 79.18777465820312 117.4393081665039 91.00070190429688 105.91336822509766 56.681636810302734 101.4507064819336" stroke-width="3.0" fill="none" stroke="rgb(0, 0, 0)" stroke-opacity="1.0" stroke-linecap="round" stroke-linejoin="round"/>
    <path d="M 154.1899871826172 99.02375793457031 C 113.50462341308594 83.45372772216797 152.51589965820312 98.36415100097656 165.6658172607422 101.51480102539062" stroke-width="3.0" fill="none" stroke="rgb(0, 0, 0)" stroke-opacity="1.0" stroke-linecap="round" stroke-linejoin="round"/>
    <path d="M 92.70138549804688 108.71577453613281 C 71.95895385742188 129.63778686523438 93.45767974853516 152.7964324951172 82.72772979736328 146.91363525390625" stroke-width="3.0" fill="none" stroke="rgb(0, 0, 0)" stroke-opacity="1.0" stroke-linecap="round" stroke-linejoin="round"/>
    <path d="M 16.1523380279541 75.74540710449219 C 18.957889556884766 72.31452178955078 11.924352645874023 76.12238311767578 12.808545112609863 110.92498016357422" stroke-width="3.0" fill="none" stroke="rgb(0, 0, 0)" stroke-opacity="1.0" stroke-linecap="round" stroke-linejoin="round"/>
    <path d="M 185.5080108642578 185.10765075683594 C 199.1742401123047 163.47018432617188 202.47259521484375 179.4808807373047 215.48629760742188 130.79443359375" stroke-width="3.0" fill="none" stroke="rgb(0, 0, 0)" stroke-opacity="1.0" stroke-linecap="round" stroke-linejoin="round"/>
    <path d="M 149.3927001953125 115.54238891601562 C 213.102294921875 115.94225311279297 209.640625 112.44469451904297 150.47886657714844 113.80023193359375" stroke-width="3.0" fill="none" stroke="rgb(0, 0, 0)" stroke-opacity="1.0" stroke-linecap="round" stroke-linejoin="round"/>
    <path d="M 149.61544799804688 100.61665344238281 C 206.50924682617188 117.62805938720703 183.19692993164062 97.71607208251953 168.73626708984375 131.44163513183594" stroke-width="3.0" fill="none" stroke="rgb(0, 0, 0)" stroke-opacity="1.0" stroke-linecap="round" stroke-linejoin="round"/>
    <path d="M 147.53712463378906 96.5560073852539 C 143.57421875 89.26563262939453 128.2232666015625 110.8675308227539 136.74046325683594 84.14208221435547" stroke-width="3.0" fill="none" stroke="rgb(0, 0, 0)" stroke-opacity="1.0" stroke-linecap="round" stroke-linejoin="round"/>
    <path d="M 83.63420867919922 143.0561065673828 C 125.45096588134766 163.44032287597656 116.8719253540039 87.08097839355469 81.79081726074219 113.48432159423828" stroke-width="3.0" fill="none" stroke="rgb(0, 0, 0)" stroke-opacity="1.0" stroke-linecap="round" stroke-linejoin="round"/>
    <path d="M 190.13697814941406 113.54205322265625 C 195.992919921875 110.34354400634766 183.96832275390625 133.29238891601562 191.82420349121094 124.9841537475586" stroke-width="3.0" fill="none" stroke="rgb(0, 0, 0)" stroke-opacity="1.0" stroke-linecap="round" stroke-linejoin="round"/>
    <path d="M 147.15403747558594 111.60826873779297 C 130.8297576904297 91.29534149169922 178.73312377929688 98.54574584960938 142.09051513671875 98.25032806396484" stroke-width="3.0" fill="none" stroke="rgb(0, 0, 0)" stroke-opacity="1.0" stroke-linecap="round" stroke-linejoin="round"/>
    <path d="M 67.87100219726562 23.95829200744629 C 86.19825744628906 28.041522979736328 81.38768768310547 18.607818603515625 63.28889465332031 21.439668655395508" stroke-width="3.0" fill="none" stroke="rgb(0, 0, 0)" stroke-opacity="1.0" stroke-linecap="round" stroke-linejoin="round"/>
    <path d="M 41.88041305541992 134.92648315429688 C 84.63847351074219 130.7535400390625 76.26242065429688 142.03619384765625 40.71491622924805 140.69715881347656" stroke-width="3.0" fill="none" stroke="rgb(0, 0, 0)" stroke-opacity="1.0" stroke-linecap="round" stroke-linejoin="round"/>
    <path d="M 175.57432556152344 139.7384490966797 C 161.67572021484375 106.26496887207031 198.2998809814453 110.99751281738281 185.0445556640625 141.22056579589844" stroke-width="3.0" fill="none" stroke="rgb(0, 0, 0)" stroke-opacity="1.0" stroke-linecap="round" stroke-linejoin="round"/>
    <path d="M 45.09554672241211 140.0797882080078 C 22.161535263061523 105.28694152832031 19.924407958984375 98.54408264160156 71.55862426757812 112.6245346069336" stroke-width="3.0" fill="none" stroke="rgb(0, 0, 0)" stroke-opacity="1.0" stroke-linecap="round" stroke-linejoin="round"/>
    <path d="M 44.04725646972656 188.36141967773438 C 71.63452911376953 204.20870971679688 59.38047409057617 197.6257781982422 94.0188217163086 203.6797637939453" stroke-width="3.0" fill="none" stroke="rgb(0, 0, 0)" stroke-opacity="1.0" stroke-linecap="round" stroke-linejoin="round"/>
    <path d="M 117.36740112304688 124.94182586669922 C 127.65113830566406 154.3899383544922 133.18890380859375 132.99734497070312 124.41222381591797 142.21176147460938" stroke-width="3.0" fill="none" stroke="rgb(0, 0, 0)" stroke-opacity="1.0" stroke-linecap="round" stroke-linejoin="round"/>
    <path d="M 152.41343688964844 116.49076080322266 C 152.9993896484375 111.38645935058594 128.94325256347656 111.24752044677734 181.353759765625 108.31694030761719" stroke-width="3.0" fill="none" stroke="rgb(0, 0, 0)" stroke-opacity="1.0" stroke-linecap="round" stroke-linejoin="round"/>
    <path d="M 86.98446655273438 108.14180755615234 C 82.98108673095703 128.85012817382812 48.250911712646484 111.0172348022461 38.412559509277344 98.62150573730469" stroke-width="3.0" fill="none" stroke="rgb(0, 0, 0)" stroke-opacity="1.0" stroke-linecap="round" stroke-linejoin="round"/>
    <path d="M 23.057025909423828 114.23622131347656 C 71.84368133544922 117.37149810791016 74.61869812011719 117.58580780029297 89.02774047851562 101.8796157836914" stroke-width="3.0" fill="none" stroke="rgb(0, 0, 0)" stroke-opacity="1.0" stroke-linecap="round" stroke-linejoin="round"/>
    <path d="M 22.406780242919922 57.1973876953125 C 47.96247863769531 24.454627990722656 43.98469924926758 40.81809997558594 61.46345520019531 23.03274154663086" stroke-width="3.0" fill="none" stroke="rgb(0, 0, 0)" stroke-opacity="1.0" stroke-linecap="round" stroke-linejoin="round"/>
    <path d="M 174.9638671875 136.33445739746094 C 156.96315002441406 137.21743774414062 140.1691436767578 134.94302368164062 114.3349609375 135.0382537841797" stroke-width="3.0" fill="none" stroke="rgb(0, 0, 0)" stroke-opacity="1.0" stroke-linecap="round" stroke-linejoin="round"/>
    <path d="M 29.247215270996094 130.2742156982422 C 50.98197937011719 137.9646759033203 74.40992736816406 132.85061645507812 24.0551815032959 122.44672393798828" stroke-width="3.0" fill="none" stroke="rgb(0, 0, 0)" stroke-opacity="1.0" stroke-linecap="round" stroke-linejoin="round"/>
    <path d="M 94.76093292236328 91.4117660522461 C 114.19638061523438 75.25653839111328 121.88823699951172 91.2169189453125 125.70820617675781 87.40240478515625" stroke-width="3.0" fill="none" stroke="rgb(0, 0, 0)" stroke-opacity="1.0" stroke-linecap="round" stroke-linejoin="round"/>
    <path d="M 163.1200408935547 98.42953491210938 C 165.07765197753906 87.63812255859375 142.5858917236328 81.68230438232422 131.4613037109375 82.1002426147461" stroke-width="3.0" fill="none" stroke="rgb(0, 0, 0)" stroke-opacity="1.0" stroke-linecap="round" stroke-linejoin="round"/>
  </g>
</svg>
