<?xml version="1.0" ?>
<svg xmlns="http://www.w3.org/2000/svg" version="1.1" width="224" height="224">
  <defs/>
  <g>
    <path d="M 69.58750915527344 107.59007263183594 C 119.86624145507812 91.85464477539062 116.6122817993164 138.38352966308594 104.6951675415039 150.60873413085938" stroke-width="3.0" fill="none" stroke="rgb(0, 0, 0)" stroke-opacity="1.0" stroke-linecap="round" stroke-linejoin="round"/>
    <path d="M 81.12171936035156 131.35801696777344 C 97.18794250488281 162.46377563476562 78.58783721923828 144.8955535888672 77.50054931640625 131.73521423339844" stroke-width="3.0" fill="none" stroke="rgb(0, 0, 0)" stroke-opacity="1.0" stroke-linecap="round" stroke-linejoin="round"/>
    <path d="M 52.503387451171875 131.94921875 C -0.7655512094497681 119.57177734375 8.77650260925293 121.24690246582031 82.23543548583984 125.06202697753906" stroke-width="3.0" fill="none" stroke="rgb(0, 0, 0)" stroke-opacity="1.0" stroke-linecap="round" stroke-linejoin="round"/>
    <path d="M 19.887720108032227 114.91859436035156 C 101.0495376586914 120.78498077392578 80.91720581054688 109.46259307861328 84.35304260253906 117.7149887084961" stroke-width="3.0" fill="none" stroke="rgb(0, 0, 0)" stroke-opacity="1.0" stroke-linecap="round" stroke-linejoin="round"/>
    <path d="M 87.97323608398438 93.67735290527344 C 190.17747497558594 112.09380340576172 167.70504760742188 117.61105346679688 110.18404388427734 94.970703125" stroke-width="3.0" fill="none" stroke="rgb(0, 0, 0)" stroke-opacity="1.0" stroke-linecap="round" stroke-linejoin="round"/>
    <path d="M 174.7694091796875 142.68800354003906 C 162.29611206054688 108.51602935791016 212.59036254882812 117.26453399658203 145.5519561767578 107.90448760986328" stroke-width="3.0" fill="none" stroke="rgb(0, 0, 0)" stroke-opacity="1.0" stroke-linecap="round" stroke-linejoin="round"/>
    <path d="M 28.19202995300293 99.27913665771484 C 146.8195343017578 85.34442901611328 140.4051971435547 78.9091796875 27.951229095458984 91.57437896728516" stroke-width="3.0" fill="none" stroke="rgb(0, 0, 0)" stroke-opacity="1.0" stroke-linecap="round" stroke-linejoin="round"/>
    <path d="M 70.36261749267578 130.6665802001953 C 101.98095703125 130.8972625732422 80.75391387939453 140.01260375976562 38.59931564331055 132.38243103027344" stroke-width="3.0" fill="none" stroke="rgb(0, 0, 0)" stroke-opacity="1.0" stroke-linecap="round" stroke-linejoin="round"/>
    <path d="M 118.04420471191406 210.78648376464844 C 191.7083282470703 192.79458618164062 143.44192504882812 200.20184326171875 176.01080322265625 193.9381103515625" stroke-width="3.0" fill="none" stroke="rgb(0, 0, 0)" stroke-opacity="1.0" stroke-linecap="round" stroke-linejoin="round"/>
    <path d="M 143.25161743164062 110.04588317871094 C 184.54469299316406 111.91041564941406 189.52392578125 125.24842834472656 191.8816375732422 113.8325424194336" stroke-width="3.0" fill="none" stroke="rgb(0, 0, 0)" stroke-opacity="1.0" stroke-linecap="round" stroke-linejoin="round"/>
    <path d="M 97.25999450683594 101.45735931396484 C 127.56857299804688 108.76851654052734 98.86161804199219 138.21897888183594 140.90582275390625 134.32150268554688" stroke-width="3.0" fill="none" stroke="rgb(0, 0, 0)" stroke-opacity="1.0" stroke-linecap="round" stroke-linejoin="round"/>
    <path d="M 21.852123260498047 101.35986328125 C 146.52975463867188 96.22050476074219 101.9763412475586 111.78227996826172 22.47899055480957 106.34263610839844" stroke-width="3.0" fill="none" stroke="rgb(0, 0, 0)" stroke-opacity="1.0" stroke-linecap="round" stroke-linejoin="round"/>
    <path d="M 180.3473358154297 112.67228698730469 C 135.31661987304688 106.10047149658203 162.283203125 118.80721282958984 114.2771987915039 107.62735748291016" stroke-width="3.0" fill="none" stroke="rgb(0, 0, 0)" stroke-opacity="1.0" stroke-linecap="round" stroke-linejoin="round"/>
    <path d="M 71.92134857177734 203.76467895507812 C 88.54681396484375 209.64134216308594 106.27299499511719 214.3459014892578 121.21778106689453 208.44227600097656" stroke-width="3.0" fill="none" stroke="rgb(0, 0, 0)" stroke-opacity="1.0" stroke-linecap="round" stroke-linejoin="round"/>
    <path d="M 173.3477783203125 26.20766258239746 C 188.4304656982422 35.238739013671875 230.27825927734375 78.1354751586914 214.6850128173828 137.83534240722656" stroke-width="3.0" fill="none" stroke="rgb(0, 0, 0)" stroke-opacity="1.0" stroke-linecap="round" stroke-linejoin="round"/>
    <path d="M 110.46797943115234 82.24078369140625 C 131.96759033203125 80.63091278076172 130.8230743408203 81.3433837890625 127.56275939941406 97.15491485595703" stroke-width="3.0" fill="none" stroke="rgb(0, 0, 0)" stroke-opacity="1.0" stroke-linecap="round" stroke-linejoin="round"/>
    <path d="M 68.3666000366211 25.101133346557617 C 115.37129974365234 -13.312287330627441 165.70765686035156 18.357975006103516 188.2088623046875 36.744693756103516" stroke-width="3.0" fill="none" stroke="rgb(0, 0, 0)" stroke-opacity="1.0" stroke-linecap="round" stroke-linejoin="round"/>
    <path d="M 127.80741119384766 133.98101806640625 C 136.49905395507812 153.58602905273438 148.9971923828125 132.82403564453125 140.0072021484375 137.01695251464844" stroke-width="3.0" fill="none" stroke="rgb(0, 0, 0)" stroke-opacity="1.0" stroke-linecap="round" stroke-linejoin="round"/>
    <path d="M 62.92665481567383 124.46102905273438 C 56.12710952758789 144.2331085205078 63.51783752441406 149.01095581054688 22.049177169799805 130.91432189941406" stroke-width="3.0" fill="none" stroke="rgb(0, 0, 0)" stroke-opacity="1.0" stroke-linecap="round" stroke-linejoin="round"/>
    <path d="M 169.04757690429688 136.90126037597656 C 187.96620178222656 168.27127075195312 184.8227081298828 105.23461151123047 177.7730712890625 130.7634735107422" stroke-width="3.0" fill="none" stroke="rgb(0, 0, 0)" stroke-opacity="1.0" stroke-linecap="round" stroke-linejoin="round"/>
    <path d="M 131.10511779785156 209.1417999267578 C 107.98655700683594 210.69207763671875 103.84593200683594 212.508544921875 136.7449951171875 207.1021270751953" stroke-width="3.0" fill="none" stroke="rgb(0, 0, 0)" stroke-opacity="1.0" stroke-linecap="round" stroke-linejoin="round"/>
    <path d="M 55.47442626953125 148.4647216796875 C 76.88401794433594 147.24273681640625 55.108238220214844 162.0384521484375 29.051193237304688 129.6488800048828" stroke-width="3.0" fill="none" stroke="rgb(0, 0, 0)" stroke-opacity="1.0" stroke-linecap="round" stroke-linejoin="round"/>
    <path d="M 97.63314056396484 85.73114013671875 C 55.856163024902344 84.2445297241211 15.65460205078125 91.08827209472656 86.13024139404297 90.68378448486328" stroke-width="3.0" fill="none" stroke="rgb(0, 0, 0)" stroke-opacity="1.0" stroke-linecap="round" stroke-linejoin="round"/>
    <path d="M 75.06224822998047 101.60230255126953 C 79.48865509033203 106.55352020263672 102.68217468261719 124.85700225830078 43.38902282714844 114.83204650878906" stroke-width="3.0" fill="none" stroke="rgb(0, 0, 0)" stroke-opacity="1.0" stroke-linecap="round" stroke-linejoin="round"/>
    <path d="M 153.0524139404297 94.44224548339844 C 106.73023986816406 85.19691467285156 151.08653259277344 101.59796142578125 156.7666778564453 94.05406951904297" stroke-width="3.0" fill="none" stroke="rgb(0, 0, 0)" stroke-opacity="1.0" stroke-linecap="round" stroke-linejoin="round"/>
    <path d="M 96.53246307373047 118.4805679321289 C 67.87445831298828 139.65150451660156 114.06189727783203 156.12123107910156 81.69986724853516 140.94700622558594" stroke-width="3.0" fill="none" stroke="rgb(0, 0, 0)" stroke-opacity="1.0" stroke-linecap="round" stroke-linejoin="round"/>
    <path d="M 25.47871971130371 48.93626022338867 C 17.42604637145996 64.90532684326172 1.7922232151031494 89.8219985961914 9.61522102355957 131.25112915039062" stroke-width="3.0" fill="none" stroke="rgb(0, 0, 0)" stroke-opacity="1.0" stroke-linecap="round" stroke-linejoin="round"/>
    <path d="M 178.99168395996094 192.55784606933594 C 192.9747772216797 178.19772338867188 217.8564453125 155.64642333984375 215.8193817138672 113.23072814941406" stroke-width="3.0" fill="none" stroke="rgb(0, 0, 0)" stroke-opacity="1.0" stroke-linecap="round" stroke-linejoin="round"/>
    <path d="M 148.17767333984375 103.84589385986328 C 211.0313262939453 122.62110900878906 202.92620849609375 113.04135131835938 153.12936401367188 106.3958969116211" stroke-width="3.0" fill="none" stroke="rgb(0, 0, 0)" stroke-opacity="1.0" stroke-linecap="round" stroke-linejoin="round"/>
    <path d="M 136.5983123779297 97.87873077392578 C 240.01632690429688 117.36936950683594 165.0283966064453 104.10147094726562 169.86329650878906 138.5363006591797" stroke-width="3.0" fill="none" stroke="rgb(0, 0, 0)" stroke-opacity="1.0" stroke-linecap="round" stroke-linejoin="round"/>
    <path d="M 156.33419799804688 97.81521606445312 C 129.2601318359375 83.68119812011719 116.40052032470703 113.4565658569336 131.04920959472656 82.39039611816406" stroke-width="3.0" fill="none" stroke="rgb(0, 0, 0)" stroke-opacity="1.0" stroke-linecap="round" stroke-linejoin="round"/>
    <path d="M 82.74017333984375 142.26959228515625 C 125.3155288696289 167.151611328125 103.1081314086914 81.76114654541016 87.1271743774414 125.76961517333984" stroke-width="3.0" fill="none" stroke="rgb(0, 0, 0)" stroke-opacity="1.0" stroke-linecap="round" stroke-linejoin="round"/>
    <path d="M 176.87496948242188 119.17716979980469 C 196.35740661621094 100.378662109375 191.07713317871094 134.35525512695312 187.26449584960938 113.69039916992188" stroke-width="3.0" fill="none" stroke="rgb(0, 0, 0)" stroke-opacity="1.0" stroke-linecap="round" stroke-linejoin="round"/>
    <path d="M 132.621337890625 102.8072738647461 C 105.72520446777344 98.65184020996094 186.2976531982422 115.92107391357422 137.5630645751953 101.79303741455078" stroke-width="3.0" fill="none" stroke="rgb(0, 0, 0)" stroke-opacity="1.0" stroke-linecap="round" stroke-linejoin="round"/>
    <path d="M 63.18682098388672 23.538036346435547 C 107.93687438964844 7.290328502655029 95.43412017822266 7.1896586418151855 65.09126281738281 19.655170440673828" stroke-width="3.0" fill="none" stroke="rgb(0, 0, 0)" stroke-opacity="1.0" stroke-linecap="round" stroke-linejoin="round"/>
    <path d="M 28.526540756225586 129.2141876220703 C 117.92536163330078 133.36831665039062 99.5298080444336 156.44064331054688 33.32742691040039 144.3970947265625" stroke-width="3.0" fill="none" stroke="rgb(0, 0, 0)" stroke-opacity="1.0" stroke-linecap="round" stroke-linejoin="round"/>
    <path d="M 175.88848876953125 145.7410125732422 C 159.80023193359375 104.4017333984375 200.3157196044922 114.6753158569336 181.92515563964844 143.54969787597656" stroke-width="3.0" fill="none" stroke="rgb(0, 0, 0)" stroke-opacity="1.0" stroke-linecap="round" stroke-linejoin="round"/>
    <path d="M 48.18430709838867 137.73313903808594 C -2.3159005641937256 113.23147583007812 17.658641815185547 99.79989624023438 85.3421859741211 106.20003509521484" stroke-width="3.0" fill="none" stroke="rgb(0, 0, 0)" stroke-opacity="1.0" stroke-linecap="round" stroke-linejoin="round"/>
    <path d="M 7.5213623046875 118.76423645019531 C 14.314180374145508 192.62405395507812 74.9728775024414 211.988037109375 100.43084716796875 210.16432189941406" stroke-width="3.0" fill="none" stroke="rgb(0, 0, 0)" stroke-opacity="1.0" stroke-linecap="round" stroke-linejoin="round"/>
    <path d="M 107.85139465332031 155.1045379638672 C 135.53720092773438 163.08084106445312 142.4474639892578 161.97605895996094 110.26070404052734 155.43470764160156" stroke-width="3.0" fill="none" stroke="rgb(0, 0, 0)" stroke-opacity="1.0" stroke-linecap="round" stroke-linejoin="round"/>
    <path d="M 154.43475341796875 106.84097290039062 C 150.15232849121094 111.95779418945312 127.38412475585938 103.43563842773438 190.3640899658203 116.18683624267578" stroke-width="3.0" fill="none" stroke="rgb(0, 0, 0)" stroke-opacity="1.0" stroke-linecap="round" stroke-linejoin="round"/>
    <path d="M 49.91317367553711 98.69110107421875 C 83.26332092285156 118.85637664794922 49.66624069213867 84.93049621582031 48.10873794555664 112.18329620361328" stroke-width="3.0" fill="none" stroke="rgb(0, 0, 0)" stroke-opacity="1.0" stroke-linecap="round" stroke-linejoin="round"/>
    <path d="M 26.206506729125977 96.33321380615234 C 115.64948272705078 106.24241638183594 74.79291534423828 119.83033752441406 90.55917358398438 101.89485931396484" stroke-width="3.0" fill="none" stroke="rgb(0, 0, 0)" stroke-opacity="1.0" stroke-linecap="round" stroke-linejoin="round"/>
    <path d="M 25.389965057373047 48.10758590698242 C 47.79628372192383 26.51058006286621 40.22230911254883 29.785364151000977 67.49079895019531 19.725543975830078" stroke-width="3.0" fill="none" stroke="rgb(0, 0, 0)" stroke-opacity="1.0" stroke-linecap="round" stroke-linejoin="round"/>
    <path d="M 181.7910614013672 139.978759765625 C 148.15911865234375 142.11293029785156 89.08001708984375 139.72547912597656 120.61329650878906 128.9614715576172" stroke-width="3.0" fill="none" stroke="rgb(0, 0, 0)" stroke-opacity="1.0" stroke-linecap="round" stroke-linejoin="round"/>
    <path d="M 40.402591705322266 133.1935577392578 C 88.68839263916016 137.22393798828125 119.06917572021484 133.89849853515625 29.96080780029297 126.25260162353516" stroke-width="3.0" fill="none" stroke="rgb(0, 0, 0)" stroke-opacity="1.0" stroke-linecap="round" stroke-linejoin="round"/>
    <path d="M 99.44903564453125 88.65755462646484 C 103.3488540649414 83.12635803222656 122.54658508300781 80.0904312133789 131.18087768554688 83.45193481445312" stroke-width="3.0" fill="none" stroke="rgb(0, 0, 0)" stroke-opacity="1.0" stroke-linecap="round" stroke-linejoin="round"/>
    <path d="M 162.93177795410156 101.73619842529297 C 184.27732849121094 98.23258972167969 135.67800903320312 80.29778289794922 121.20104217529297 81.34214782714844" stroke-width="3.0" fill="none" stroke="rgb(0, 0, 0)" stroke-opacity="1.0" stroke-linecap="round" stroke-linejoin="round"/>
  </g>
</svg>
