<?xml version="1.0" ?>
<svg xmlns="http://www.w3.org/2000/svg" version="1.1" width="224" height="224">
  <defs/>
  <g>
    <path d="M 76.68214416503906 109.44206237792969 C 121.15750885009766 93.0079574584961 122.73257446289062 134.80918884277344 115.41166687011719 146.29598999023438" stroke-width="3.0" fill="none" stroke="rgb(0, 0, 0)" stroke-opacity="1.0" stroke-linecap="round" stroke-linejoin="round"/>
    <path d="M 81.31301879882812 132.08102416992188 C 101.19219970703125 154.58412170410156 73.83074951171875 154.26092529296875 81.39947509765625 127.0907211303711" stroke-width="3.0" fill="none" stroke="rgb(0, 0, 0)" stroke-opacity="1.0" stroke-linecap="round" stroke-linejoin="round"/>
    <path d="M 48.89619827270508 128.9397735595703 C -6.778199195861816 123.09587097167969 7.716604232788086 120.81500244140625 85.7015151977539 122.78684997558594" stroke-width="3.0" fill="none" stroke="rgb(0, 0, 0)" stroke-opacity="1.0" stroke-linecap="round" stroke-linejoin="round"/>
    <path d="M 21.144804000854492 109.3739013671875 C 102.270751953125 114.1663818359375 85.05496978759766 108.76911163330078 81.65079498291016 118.63381958007812" stroke-width="3.0" fill="none" stroke="rgb(0, 0, 0)" stroke-opacity="1.0" stroke-linecap="round" stroke-linejoin="round"/>
    <path d="M 102.0061264038086 97.36803436279297 C 190.09144592285156 115.50633239746094 177.16000366210938 106.89942932128906 110.02069091796875 94.31114959716797" stroke-width="3.0" fill="none" stroke="rgb(0, 0, 0)" stroke-opacity="1.0" stroke-linecap="round" stroke-linejoin="round"/>
    <path d="M 173.2265625 144.99591064453125 C 166.11849975585938 102.76870727539062 207.1329345703125 117.47592163085938 147.5280303955078 104.10609436035156" stroke-width="3.0" fill="none" stroke="rgb(0, 0, 0)" stroke-opacity="1.0" stroke-linecap="round" stroke-linejoin="round"/>
    <path d="M 36.06511306762695 100.24105072021484 C 136.9850616455078 100.12379455566406 129.0334930419922 94.77764892578125 45.490840911865234 95.22891998291016" stroke-width="3.0" fill="none" stroke="rgb(0, 0, 0)" stroke-opacity="1.0" stroke-linecap="round" stroke-linejoin="round"/>
    <path d="M 63.773555755615234 133.36387634277344 C 103.87229919433594 133.05960083007812 87.35246276855469 138.43026733398438 37.47227478027344 125.96879577636719" stroke-width="3.0" fill="none" stroke="rgb(0, 0, 0)" stroke-opacity="1.0" stroke-linecap="round" stroke-linejoin="round"/>
    <path d="M 122.5787582397461 209.45773315429688 C 195.75244140625 191.97195434570312 146.7636260986328 201.4091033935547 176.4707489013672 194.5095977783203" stroke-width="3.0" fill="none" stroke="rgb(0, 0, 0)" stroke-opacity="1.0" stroke-linecap="round" stroke-linejoin="round"/>
    <path d="M 144.20387268066406 107.37753295898438 C 180.312744140625 110.28170776367188 187.9276123046875 123.50321197509766 196.316162109375 112.9971694946289" stroke-width="3.0" fill="none" stroke="rgb(0, 0, 0)" stroke-opacity="1.0" stroke-linecap="round" stroke-linejoin="round"/>
    <path d="M 101.72915649414062 104.1521987915039 C 125.19458770751953 101.50718688964844 110.23504638671875 145.18527221679688 139.0109100341797 135.70968627929688" stroke-width="3.0" fill="none" stroke="rgb(0, 0, 0)" stroke-opacity="1.0" stroke-linecap="round" stroke-linejoin="round"/>
    <path d="M 12.89074993133545 104.68404388427734 C 124.87895965576172 101.08329010009766 91.63843536376953 115.110595703125 21.93537139892578 115.26588439941406" stroke-width="3.0" fill="none" stroke="rgb(0, 0, 0)" stroke-opacity="1.0" stroke-linecap="round" stroke-linejoin="round"/>
    <path d="M 177.17550659179688 114.80432891845703 C 125.31311798095703 107.05964660644531 160.68832397460938 111.75888061523438 117.24253845214844 106.60008239746094" stroke-width="3.0" fill="none" stroke="rgb(0, 0, 0)" stroke-opacity="1.0" stroke-linecap="round" stroke-linejoin="round"/>
    <path d="M 78.56083679199219 204.0652313232422 C 88.68671417236328 208.6842041015625 107.52466583251953 211.5438995361328 115.1920166015625 210.2593231201172" stroke-width="3.0" fill="none" stroke="rgb(0, 0, 0)" stroke-opacity="1.0" stroke-linecap="round" stroke-linejoin="round"/>
    <path d="M 172.4104766845703 26.567584991455078 C 189.46658325195312 33.98722839355469 228.6479034423828 74.32808685302734 214.32815551757812 135.08421325683594" stroke-width="3.0" fill="none" stroke="rgb(0, 0, 0)" stroke-opacity="1.0" stroke-linecap="round" stroke-linejoin="round"/>
    <path d="M 108.93524169921875 82.13160705566406 C 141.1645965576172 78.9825439453125 137.04348754882812 78.4791259765625 126.43114471435547 97.24031829833984" stroke-width="3.0" fill="none" stroke="rgb(0, 0, 0)" stroke-opacity="1.0" stroke-linecap="round" stroke-linejoin="round"/>
    <path d="M 63.16199493408203 23.77963638305664 C 118.18299865722656 -8.917892456054688 168.4873504638672 18.858016967773438 187.66119384765625 37.31290817260742" stroke-width="3.0" fill="none" stroke="rgb(0, 0, 0)" stroke-opacity="1.0" stroke-linecap="round" stroke-linejoin="round"/>
    <path d="M 131.3797149658203 138.65684509277344 C 137.39236450195312 157.5768585205078 147.64712524414062 127.15259552001953 142.81092834472656 135.55349731445312" stroke-width="3.0" fill="none" stroke="rgb(0, 0, 0)" stroke-opacity="1.0" stroke-linecap="round" stroke-linejoin="round"/>
    <path d="M 62.590633392333984 130.54910278320312 C 54.770965576171875 139.8638916015625 66.40353393554688 149.72251892089844 12.786588668823242 131.45069885253906" stroke-width="3.0" fill="none" stroke="rgb(0, 0, 0)" stroke-opacity="1.0" stroke-linecap="round" stroke-linejoin="round"/>
    <path d="M 170.99078369140625 141.42579650878906 C 191.1414031982422 165.83787536621094 184.84567260742188 107.87340545654297 180.10546875 135.37860107421875" stroke-width="3.0" fill="none" stroke="rgb(0, 0, 0)" stroke-opacity="1.0" stroke-linecap="round" stroke-linejoin="round"/>
    <path d="M 138.3446807861328 207.03323364257812 C 107.26122283935547 210.9591522216797 101.51322174072266 212.8314971923828 134.12063598632812 208.620849609375" stroke-width="3.0" fill="none" stroke="rgb(0, 0, 0)" stroke-opacity="1.0" stroke-linecap="round" stroke-linejoin="round"/>
    <path d="M 58.12906265258789 144.49533081054688 C 83.01179504394531 142.20193481445312 54.8918571472168 159.94290161132812 14.733743667602539 136.82774353027344" stroke-width="3.0" fill="none" stroke="rgb(0, 0, 0)" stroke-opacity="1.0" stroke-linecap="round" stroke-linejoin="round"/>
    <path d="M 90.2118148803711 89.7945327758789 C 46.320980072021484 89.43877410888672 -5.327449798583984 94.19409942626953 69.89103698730469 95.80887603759766" stroke-width="3.0" fill="none" stroke="rgb(0, 0, 0)" stroke-opacity="1.0" stroke-linecap="round" stroke-linejoin="round"/>
    <path d="M 75.37715911865234 101.58519744873047 C 69.39772033691406 116.59379577636719 92.4040298461914 115.2508544921875 54.328216552734375 115.9902572631836" stroke-width="3.0" fill="none" stroke="rgb(0, 0, 0)" stroke-opacity="1.0" stroke-linecap="round" stroke-linejoin="round"/>
    <path d="M 157.12637329101562 96.96878051757812 C 116.7032470703125 78.13156127929688 158.93768310546875 101.54872131347656 154.64453125 95.55066680908203" stroke-width="3.0" fill="none" stroke="rgb(0, 0, 0)" stroke-opacity="1.0" stroke-linecap="round" stroke-linejoin="round"/>
    <path d="M 96.75435638427734 119.15518188476562 C 73.22480773925781 137.0201416015625 109.71553802490234 168.3143310546875 82.42652130126953 135.24400329589844" stroke-width="3.0" fill="none" stroke="rgb(0, 0, 0)" stroke-opacity="1.0" stroke-linecap="round" stroke-linejoin="round"/>
    <path d="M 25.642566680908203 46.890228271484375 C 16.222055435180664 65.56779479980469 0.2814713716506958 86.50020599365234 7.938199996948242 129.9126739501953" stroke-width="3.0" fill="none" stroke="rgb(0, 0, 0)" stroke-opacity="1.0" stroke-linecap="round" stroke-linejoin="round"/>
    <path d="M 178.82907104492188 193.95806884765625 C 193.3907928466797 177.65924072265625 219.26663208007812 152.7209014892578 213.60897827148438 121.17012786865234" stroke-width="3.0" fill="none" stroke="rgb(0, 0, 0)" stroke-opacity="1.0" stroke-linecap="round" stroke-linejoin="round"/>
    <path d="M 142.37149047851562 109.8649673461914 C 211.35655212402344 119.14327239990234 205.6648712158203 110.02704620361328 148.2292938232422 108.4151382446289" stroke-width="3.0" fill="none" stroke="rgb(0, 0, 0)" stroke-opacity="1.0" stroke-linecap="round" stroke-linejoin="round"/>
    <path d="M 141.9002685546875 95.88818359375 C 230.70745849609375 119.30584716796875 163.90838623046875 98.20989990234375 168.52133178710938 138.4495086669922" stroke-width="3.0" fill="none" stroke="rgb(0, 0, 0)" stroke-opacity="1.0" stroke-linecap="round" stroke-linejoin="round"/>
    <path d="M 155.47360229492188 93.1007080078125 C 139.69187927246094 86.6613540649414 135.5619659423828 108.42048645019531 138.5592803955078 83.9382095336914" stroke-width="3.0" fill="none" stroke="rgb(0, 0, 0)" stroke-opacity="1.0" stroke-linecap="round" stroke-linejoin="round"/>
    <path d="M 86.43641662597656 149.5756072998047 C 132.59767150878906 166.02511596679688 108.97148132324219 75.75655364990234 84.59362030029297 124.07281494140625" stroke-width="3.0" fill="none" stroke="rgb(0, 0, 0)" stroke-opacity="1.0" stroke-linecap="round" stroke-linejoin="round"/>
    <path d="M 187.91697692871094 117.56218719482422 C 201.6929931640625 99.59738159179688 184.9723663330078 132.40174865722656 188.64865112304688 116.12799835205078" stroke-width="3.0" fill="none" stroke="rgb(0, 0, 0)" stroke-opacity="1.0" stroke-linecap="round" stroke-linejoin="round"/>
    <path d="M 136.14910888671875 101.67166137695312 C 105.14207458496094 96.27058410644531 186.06944274902344 115.1111068725586 142.45445251464844 101.71558380126953" stroke-width="3.0" fill="none" stroke="rgb(0, 0, 0)" stroke-opacity="1.0" stroke-linecap="round" stroke-linejoin="round"/>
    <path d="M 60.522705078125 27.792266845703125 C 102.9050064086914 10.774323463439941 89.28789520263672 8.188519477844238 62.239070892333984 21.937419891357422" stroke-width="3.0" fill="none" stroke="rgb(0, 0, 0)" stroke-opacity="1.0" stroke-linecap="round" stroke-linejoin="round"/>
    <path d="M 25.698253631591797 127.16320037841797 C 107.01509857177734 142.3579864501953 94.95348358154297 149.49395751953125 31.656930923461914 142.2762451171875" stroke-width="3.0" fill="none" stroke="rgb(0, 0, 0)" stroke-opacity="1.0" stroke-linecap="round" stroke-linejoin="round"/>
    <path d="M 177.50625610351562 146.6301727294922 C 162.75466918945312 106.93782806396484 201.94049072265625 118.76771545410156 184.8983917236328 143.0532989501953" stroke-width="3.0" fill="none" stroke="rgb(0, 0, 0)" stroke-opacity="1.0" stroke-linecap="round" stroke-linejoin="round"/>
    <path d="M 45.4716911315918 142.15660095214844 C -2.4121439456939697 103.9046859741211 13.803050994873047 95.04755401611328 79.978759765625 106.59416198730469" stroke-width="3.0" fill="none" stroke="rgb(0, 0, 0)" stroke-opacity="1.0" stroke-linecap="round" stroke-linejoin="round"/>
    <path d="M 6.5220947265625 127.30630493164062 C 18.73911476135254 190.52560424804688 77.15025329589844 208.74403381347656 102.8438949584961 208.0598602294922" stroke-width="3.0" fill="none" stroke="rgb(0, 0, 0)" stroke-opacity="1.0" stroke-linecap="round" stroke-linejoin="round"/>
    <path d="M 118.16167449951172 142.76690673828125 C 139.54641723632812 144.32461547851562 145.96055603027344 144.93817138671875 120.21353149414062 134.15814208984375" stroke-width="3.0" fill="none" stroke="rgb(0, 0, 0)" stroke-opacity="1.0" stroke-linecap="round" stroke-linejoin="round"/>
    <path d="M 154.77536010742188 107.86767578125 C 152.74203491210938 113.83597564697266 128.8491668701172 103.42456817626953 192.99378967285156 112.06243896484375" stroke-width="3.0" fill="none" stroke="rgb(0, 0, 0)" stroke-opacity="1.0" stroke-linecap="round" stroke-linejoin="round"/>
    <path d="M 67.2759780883789 104.24110412597656 C 85.07763671875 125.78421783447266 31.14411163330078 91.80494689941406 38.244056701660156 115.07716369628906" stroke-width="3.0" fill="none" stroke="rgb(0, 0, 0)" stroke-opacity="1.0" stroke-linecap="round" stroke-linejoin="round"/>
    <path d="M 28.76283073425293 97.09091186523438 C 112.80099487304688 112.3228988647461 72.29405212402344 120.89881134033203 93.09324645996094 104.95221710205078" stroke-width="3.0" fill="none" stroke="rgb(0, 0, 0)" stroke-opacity="1.0" stroke-linecap="round" stroke-linejoin="round"/>
    <path d="M 27.375741958618164 45.81205368041992 C 47.88203048706055 26.14093589782715 37.81138229370117 36.72530746459961 59.654327392578125 22.879959106445312" stroke-width="3.0" fill="none" stroke="rgb(0, 0, 0)" stroke-opacity="1.0" stroke-linecap="round" stroke-linejoin="round"/>
    <path d="M 182.78323364257812 139.54795837402344 C 157.73306274414062 144.05201721191406 113.00199127197266 139.20123291015625 120.54656219482422 133.89248657226562" stroke-width="3.0" fill="none" stroke="rgb(0, 0, 0)" stroke-opacity="1.0" stroke-linecap="round" stroke-linejoin="round"/>
    <path d="M 35.110713958740234 133.230224609375 C 78.5487289428711 130.1749725341797 103.79412841796875 129.62289428710938 28.4495906829834 125.9479751586914" stroke-width="3.0" fill="none" stroke="rgb(0, 0, 0)" stroke-opacity="1.0" stroke-linecap="round" stroke-linejoin="round"/>
    <path d="M 90.20988464355469 90.16362762451172 C 108.34027099609375 77.50890350341797 117.57589721679688 81.70320129394531 130.20118713378906 80.41065979003906" stroke-width="3.0" fill="none" stroke="rgb(0, 0, 0)" stroke-opacity="1.0" stroke-linecap="round" stroke-linejoin="round"/>
    <path d="M 163.51292419433594 98.14936065673828 C 177.9403839111328 93.64334106445312 134.71290588378906 78.59524536132812 125.02979278564453 80.79120635986328" stroke-width="3.0" fill="none" stroke="rgb(0, 0, 0)" stroke-opacity="1.0" stroke-linecap="round" stroke-linejoin="round"/>
  </g>
</svg>
