<?xml version="1.0" ?>
<svg xmlns="http://www.w3.org/2000/svg" version="1.1" width="224" height="224">
  <defs/>
  <g>
    <path d="M 97.7751235961914 101.2623062133789 C 117.79850769042969 102.18315124511719 117.76437377929688 122.84739685058594 116.7806167602539 133.28985595703125" stroke-width="3.0" fill="none" stroke="rgb(0, 0, 0)" stroke-opacity="1.0" stroke-linecap="round" stroke-linejoin="round"/>
    <path d="M 60.94957733154297 130.1238250732422 C 94.26078796386719 146.64663696289062 83.17613220214844 139.1269073486328 62.674137115478516 138.7010498046875" stroke-width="3.0" fill="none" stroke="rgb(0, 0, 0)" stroke-opacity="1.0" stroke-linecap="round" stroke-linejoin="round"/>
    <path d="M 44.42469787597656 121.18936157226562 C 0.5660282373428345 118.91153717041016 28.640928268432617 124.11602020263672 82.76204681396484 132.4316864013672" stroke-width="3.0" fill="none" stroke="rgb(0, 0, 0)" stroke-opacity="1.0" stroke-linecap="round" stroke-linejoin="round"/>
    <path d="M 29.745166778564453 118.46015930175781 C 92.72470092773438 124.93476104736328 89.43177795410156 130.8635711669922 77.81681060791016 109.65013885498047" stroke-width="3.0" fill="none" stroke="rgb(0, 0, 0)" stroke-opacity="1.0" stroke-linecap="round" stroke-linejoin="round"/>
    <path d="M 93.30858612060547 92.29705810546875 C 185.921630859375 122.0558853149414 172.14413452148438 107.69172668457031 95.37043762207031 91.05721282958984" stroke-width="3.0" fill="none" stroke="rgb(0, 0, 0)" stroke-opacity="1.0" stroke-linecap="round" stroke-linejoin="round"/>
    <path d="M 170.94093322753906 129.69525146484375 C 181.33094787597656 103.95233917236328 181.24716186523438 119.70236206054688 145.4119873046875 112.04541015625" stroke-width="3.0" fill="none" stroke="rgb(0, 0, 0)" stroke-opacity="1.0" stroke-linecap="round" stroke-linejoin="round"/>
    <path d="M 68.13733673095703 103.00149536132812 C 112.88990783691406 101.22676086425781 105.06009674072266 101.54407501220703 49.0875129699707 98.9996566772461" stroke-width="3.0" fill="none" stroke="rgb(0, 0, 0)" stroke-opacity="1.0" stroke-linecap="round" stroke-linejoin="round"/>
    <path d="M 85.21833038330078 139.94400024414062 C 94.63682556152344 148.74652099609375 84.37134552001953 126.7519760131836 26.019807815551758 127.6001205444336" stroke-width="3.0" fill="none" stroke="rgb(0, 0, 0)" stroke-opacity="1.0" stroke-linecap="round" stroke-linejoin="round"/>
    <path d="M 139.53192138671875 206.51268005371094 C 185.9047088623047 193.5146026611328 165.07595825195312 194.89817810058594 180.66424560546875 188.78335571289062" stroke-width="3.0" fill="none" stroke="rgb(0, 0, 0)" stroke-opacity="1.0" stroke-linecap="round" stroke-linejoin="round"/>
    <path d="M 158.6671600341797 107.46991729736328 C 174.0045623779297 110.74740600585938 179.4377899169922 106.72220611572266 196.50558471679688 114.2539291381836" stroke-width="3.0" fill="none" stroke="rgb(0, 0, 0)" stroke-opacity="1.0" stroke-linecap="round" stroke-linejoin="round"/>
    <path d="M 109.97162628173828 104.199462890625 C 129.24044799804688 115.86759948730469 114.5280990600586 145.92578125 132.8963165283203 137.2653045654297" stroke-width="3.0" fill="none" stroke="rgb(0, 0, 0)" stroke-opacity="1.0" stroke-linecap="round" stroke-linejoin="round"/>
    <path d="M 32.43212890625 100.69349670410156 C 102.55193328857422 109.11628723144531 77.29185485839844 93.9791259765625 40.296051025390625 96.08964538574219" stroke-width="3.0" fill="none" stroke="rgb(0, 0, 0)" stroke-opacity="1.0" stroke-linecap="round" stroke-linejoin="round"/>
    <path d="M 170.60748291015625 114.5452651977539 C 129.35400390625 116.58890533447266 158.71792602539062 115.07901000976562 132.31378173828125 104.24626159667969" stroke-width="3.0" fill="none" stroke="rgb(0, 0, 0)" stroke-opacity="1.0" stroke-linecap="round" stroke-linejoin="round"/>
    <path d="M 103.38252258300781 189.90977478027344 C 103.03614807128906 188.30770874023438 110.52591705322266 190.87310791015625 108.46610260009766 192.28271484375" stroke-width="3.0" fill="none" stroke="rgb(0, 0, 0)" stroke-opacity="1.0" stroke-linecap="round" stroke-linejoin="round"/>
    <path d="M 172.81610107421875 26.749906539916992 C 186.23548889160156 32.573974609375 226.8486328125 74.15784454345703 216.09536743164062 126.59213256835938" stroke-width="3.0" fill="none" stroke="rgb(0, 0, 0)" stroke-opacity="1.0" stroke-linecap="round" stroke-linejoin="round"/>
    <path d="M 106.64828491210938 84.07933807373047 C 141.35531616210938 81.85008239746094 137.123046875 81.14859771728516 127.81690216064453 96.53864288330078" stroke-width="3.0" fill="none" stroke="rgb(0, 0, 0)" stroke-opacity="1.0" stroke-linecap="round" stroke-linejoin="round"/>
    <path d="M 59.9085578918457 21.295141220092773 C 120.99696350097656 -9.778674125671387 167.891357421875 19.617881774902344 182.73300170898438 34.57490921020508" stroke-width="3.0" fill="none" stroke="rgb(0, 0, 0)" stroke-opacity="1.0" stroke-linecap="round" stroke-linejoin="round"/>
    <path d="M 139.30612182617188 138.1130828857422 C 132.0983428955078 152.9097137451172 119.88601684570312 131.19705200195312 126.7761459350586 135.0454864501953" stroke-width="3.0" fill="none" stroke="rgb(0, 0, 0)" stroke-opacity="1.0" stroke-linecap="round" stroke-linejoin="round"/>
    <path d="M 71.49024200439453 134.98292541503906 C 53.16996383666992 142.42953491210938 74.84520721435547 145.1266632080078 28.98131561279297 140.7108154296875" stroke-width="3.0" fill="none" stroke="rgb(0, 0, 0)" stroke-opacity="1.0" stroke-linecap="round" stroke-linejoin="round"/>
    <path d="M 171.4487762451172 132.6165008544922 C 188.57008361816406 164.82106018066406 182.44076538085938 103.27206420898438 178.03561401367188 128.05047607421875" stroke-width="3.0" fill="none" stroke="rgb(0, 0, 0)" stroke-opacity="1.0" stroke-linecap="round" stroke-linejoin="round"/>
    <path d="M 138.2229461669922 206.02108764648438 C 109.85967254638672 189.5490264892578 98.65168762207031 191.3046112060547 118.21226501464844 195.7710723876953" stroke-width="3.0" fill="none" stroke="rgb(0, 0, 0)" stroke-opacity="1.0" stroke-linecap="round" stroke-linejoin="round"/>
    <path d="M 53.15485382080078 132.4529571533203 C 63.14237594604492 117.7045669555664 58.763336181640625 136.31626892089844 28.526626586914062 124.044189453125" stroke-width="3.0" fill="none" stroke="rgb(0, 0, 0)" stroke-opacity="1.0" stroke-linecap="round" stroke-linejoin="round"/>
    <path d="M 96.70275115966797 93.97859954833984 C 44.616546630859375 87.06835174560547 -7.169825553894043 102.49214935302734 51.945106506347656 104.2894058227539" stroke-width="3.0" fill="none" stroke="rgb(0, 0, 0)" stroke-opacity="1.0" stroke-linecap="round" stroke-linejoin="round"/>
    <path d="M 71.77193450927734 113.03097534179688 C 70.19056701660156 120.98455047607422 86.49944305419922 106.34687805175781 56.19536209106445 109.35861206054688" stroke-width="3.0" fill="none" stroke="rgb(0, 0, 0)" stroke-opacity="1.0" stroke-linecap="round" stroke-linejoin="round"/>
    <path d="M 157.95785522460938 96.98088073730469 C 110.91112518310547 85.53572845458984 152.58155822753906 99.38208770751953 167.9320526123047 98.54751586914062" stroke-width="3.0" fill="none" stroke="rgb(0, 0, 0)" stroke-opacity="1.0" stroke-linecap="round" stroke-linejoin="round"/>
    <path d="M 92.1717758178711 108.44229888916016 C 72.27047729492188 134.73292541503906 96.52609252929688 152.93414306640625 83.12071990966797 141.76890563964844" stroke-width="3.0" fill="none" stroke="rgb(0, 0, 0)" stroke-opacity="1.0" stroke-linecap="round" stroke-linejoin="round"/>
    <path d="M 21.502166748046875 61.43706512451172 C 18.509559631347656 72.116943359375 13.422470092773438 74.47795867919922 7.077805042266846 106.97018432617188" stroke-width="3.0" fill="none" stroke="rgb(0, 0, 0)" stroke-opacity="1.0" stroke-linecap="round" stroke-linejoin="round"/>
    <path d="M 183.3120574951172 185.2496795654297 C 197.2116241455078 166.63536071777344 208.9099578857422 165.34120178222656 217.69696044921875 121.66201782226562" stroke-width="3.0" fill="none" stroke="rgb(0, 0, 0)" stroke-opacity="1.0" stroke-linecap="round" stroke-linejoin="round"/>
    <path d="M 146.20204162597656 116.26781463623047 C 214.11517333984375 119.32393646240234 208.70094299316406 115.50502014160156 145.96664428710938 109.98665618896484" stroke-width="3.0" fill="none" stroke="rgb(0, 0, 0)" stroke-opacity="1.0" stroke-linecap="round" stroke-linejoin="round"/>
    <path d="M 146.13169860839844 98.56031036376953 C 211.63180541992188 114.6823501586914 177.66461181640625 101.2811508178711 170.86468505859375 133.22169494628906" stroke-width="3.0" fill="none" stroke="rgb(0, 0, 0)" stroke-opacity="1.0" stroke-linecap="round" stroke-linejoin="round"/>
    <path d="M 145.3330535888672 97.22322845458984 C 149.56837463378906 96.54181671142578 135.8131561279297 117.01582336425781 139.2711944580078 85.09099578857422" stroke-width="3.0" fill="none" stroke="rgb(0, 0, 0)" stroke-opacity="1.0" stroke-linecap="round" stroke-linejoin="round"/>
    <path d="M 81.14134216308594 142.12570190429688 C 127.60867309570312 167.3530731201172 121.94257354736328 81.20466613769531 79.56285858154297 116.17274475097656" stroke-width="3.0" fill="none" stroke="rgb(0, 0, 0)" stroke-opacity="1.0" stroke-linecap="round" stroke-linejoin="round"/>
    <path d="M 193.31800842285156 114.81604766845703 C 198.62396240234375 110.43669128417969 179.99960327148438 130.2713623046875 192.31117248535156 125.92118835449219" stroke-width="3.0" fill="none" stroke="rgb(0, 0, 0)" stroke-opacity="1.0" stroke-linecap="round" stroke-linejoin="round"/>
    <path d="M 144.38604736328125 106.51505279541016 C 119.34464263916016 79.43389129638672 176.84429931640625 100.91588592529297 141.09930419921875 100.90279388427734" stroke-width="3.0" fill="none" stroke="rgb(0, 0, 0)" stroke-opacity="1.0" stroke-linecap="round" stroke-linejoin="round"/>
    <path d="M 62.987510681152344 22.302724838256836 C 76.89724731445312 31.954431533813477 70.4828109741211 20.11054039001465 64.41204833984375 19.339128494262695" stroke-width="3.0" fill="none" stroke="rgb(0, 0, 0)" stroke-opacity="1.0" stroke-linecap="round" stroke-linejoin="round"/>
    <path d="M 48.33835220336914 132.00823974609375 C 101.29132080078125 132.01300048828125 85.23687744140625 136.6665802001953 41.851593017578125 134.54112243652344" stroke-width="3.0" fill="none" stroke="rgb(0, 0, 0)" stroke-opacity="1.0" stroke-linecap="round" stroke-linejoin="round"/>
    <path d="M 175.4197235107422 139.0843963623047 C 160.3509979248047 104.0981216430664 200.53848266601562 114.8362045288086 183.36024475097656 142.10049438476562" stroke-width="3.0" fill="none" stroke="rgb(0, 0, 0)" stroke-opacity="1.0" stroke-linecap="round" stroke-linejoin="round"/>
    <path d="M 42.53730392456055 139.99110412597656 C 15.780330657958984 94.86498260498047 3.2935636043548584 106.72056579589844 78.8424301147461 107.53240966796875" stroke-width="3.0" fill="none" stroke="rgb(0, 0, 0)" stroke-opacity="1.0" stroke-linecap="round" stroke-linejoin="round"/>
    <path d="M 43.42259216308594 187.5819091796875 C 76.12041473388672 207.0720977783203 54.79999542236328 199.44679260253906 95.74638366699219 209.3760223388672" stroke-width="3.0" fill="none" stroke="rgb(0, 0, 0)" stroke-opacity="1.0" stroke-linecap="round" stroke-linejoin="round"/>
    <path d="M 116.6388168334961 127.56005096435547 C 127.90470886230469 148.8768768310547 138.11148071289062 134.91880798339844 124.63070678710938 138.535888671875" stroke-width="3.0" fill="none" stroke="rgb(0, 0, 0)" stroke-opacity="1.0" stroke-linecap="round" stroke-linejoin="round"/>
    <path d="M 152.9001922607422 111.24464416503906 C 151.48622131347656 100.61727142333984 124.66181182861328 103.93761444091797 180.16139221191406 106.95331573486328" stroke-width="3.0" fill="none" stroke="rgb(0, 0, 0)" stroke-opacity="1.0" stroke-linecap="round" stroke-linejoin="round"/>
    <path d="M 80.16848754882812 102.54804229736328 C 99.4330062866211 108.83047485351562 57.48280715942383 92.91853332519531 37.296302795410156 104.64918518066406" stroke-width="3.0" fill="none" stroke="rgb(0, 0, 0)" stroke-opacity="1.0" stroke-linecap="round" stroke-linejoin="round"/>
    <path d="M 25.568843841552734 117.3501205444336 C 84.45697784423828 116.06021118164062 79.6283187866211 125.35175323486328 88.98027801513672 110.42422485351562" stroke-width="3.0" fill="none" stroke="rgb(0, 0, 0)" stroke-opacity="1.0" stroke-linecap="round" stroke-linejoin="round"/>
    <path d="M 22.086759567260742 61.38983917236328 C 48.222694396972656 22.103015899658203 37.37891387939453 38.01972579956055 56.852699279785156 22.910999298095703" stroke-width="3.0" fill="none" stroke="rgb(0, 0, 0)" stroke-opacity="1.0" stroke-linecap="round" stroke-linejoin="round"/>
    <path d="M 176.22421264648438 132.92123413085938 C 158.23728942871094 138.14768981933594 135.79360961914062 132.40191650390625 114.94951629638672 137.81582641601562" stroke-width="3.0" fill="none" stroke="rgb(0, 0, 0)" stroke-opacity="1.0" stroke-linecap="round" stroke-linejoin="round"/>
    <path d="M 44.57666015625 129.60382080078125 C 50.60081481933594 146.159912109375 78.96424102783203 138.51611328125 26.33711051940918 123.2724838256836" stroke-width="3.0" fill="none" stroke="rgb(0, 0, 0)" stroke-opacity="1.0" stroke-linecap="round" stroke-linejoin="round"/>
    <path d="M 97.00009155273438 86.9625244140625 C 110.12373352050781 77.11640930175781 123.5741195678711 91.10382080078125 125.6082534790039 84.25775146484375" stroke-width="3.0" fill="none" stroke="rgb(0, 0, 0)" stroke-opacity="1.0" stroke-linecap="round" stroke-linejoin="round"/>
    <path d="M 164.1376495361328 97.44049072265625 C 176.08255004882812 90.25314331054688 142.633056640625 81.81759643554688 131.73379516601562 83.00481414794922" stroke-width="3.0" fill="none" stroke="rgb(0, 0, 0)" stroke-opacity="1.0" stroke-linecap="round" stroke-linejoin="round"/>
  </g>
</svg>
