<?xml version="1.0" ?>
<svg xmlns="http://www.w3.org/2000/svg" version="1.1" width="224" height="224">
  <defs/>
  <g>
    <path d="M 70.01653289794922 106.76588439941406 C 121.06005096435547 92.69282531738281 119.9710693359375 141.59197998046875 104.81904602050781 148.79974365234375" stroke-width="3.0" fill="none" stroke="rgb(0, 0, 0)" stroke-opacity="1.0" stroke-linecap="round" stroke-linejoin="round"/>
    <path d="M 80.35009765625 132.31690979003906 C 96.29920959472656 162.53573608398438 76.19639587402344 145.31069946289062 76.69527435302734 132.8323211669922" stroke-width="3.0" fill="none" stroke="rgb(0, 0, 0)" stroke-opacity="1.0" stroke-linecap="round" stroke-linejoin="round"/>
    <path d="M 52.731563568115234 131.73031616210938 C 0.10077553242444992 118.5018539428711 9.655311584472656 120.61795806884766 78.32914733886719 123.98515319824219" stroke-width="3.0" fill="none" stroke="rgb(0, 0, 0)" stroke-opacity="1.0" stroke-linecap="round" stroke-linejoin="round"/>
    <path d="M 19.387659072875977 115.66720581054688 C 102.20186614990234 119.89312744140625 79.93675231933594 109.7087173461914 80.86676025390625 118.71739959716797" stroke-width="3.0" fill="none" stroke="rgb(0, 0, 0)" stroke-opacity="1.0" stroke-linecap="round" stroke-linejoin="round"/>
    <path d="M 84.64371490478516 92.65594482421875 C 190.25257873535156 112.28767395019531 169.387451171875 115.90084075927734 108.7835922241211 91.3658447265625" stroke-width="3.0" fill="none" stroke="rgb(0, 0, 0)" stroke-opacity="1.0" stroke-linecap="round" stroke-linejoin="round"/>
    <path d="M 173.36338806152344 143.3350067138672 C 162.00579833984375 109.08634948730469 213.3681182861328 117.1617202758789 144.5811309814453 110.90222930908203" stroke-width="3.0" fill="none" stroke="rgb(0, 0, 0)" stroke-opacity="1.0" stroke-linecap="round" stroke-linejoin="round"/>
    <path d="M 25.825166702270508 99.81912994384766 C 147.04901123046875 84.44377136230469 140.74659729003906 77.71375274658203 28.740846633911133 92.36637115478516" stroke-width="3.0" fill="none" stroke="rgb(0, 0, 0)" stroke-opacity="1.0" stroke-linecap="round" stroke-linejoin="round"/>
    <path d="M 74.66810607910156 128.65174865722656 C 103.74773406982422 129.0686492919922 81.150634765625 139.55226135253906 37.66773986816406 132.30075073242188" stroke-width="3.0" fill="none" stroke="rgb(0, 0, 0)" stroke-opacity="1.0" stroke-linecap="round" stroke-linejoin="round"/>
    <path d="M 117.54442596435547 209.59010314941406 C 191.85781860351562 193.82940673828125 144.57887268066406 202.30838012695312 177.13722229003906 194.16409301757812" stroke-width="3.0" fill="none" stroke="rgb(0, 0, 0)" stroke-opacity="1.0" stroke-linecap="round" stroke-linejoin="round"/>
    <path d="M 146.03408813476562 110.05110931396484 C 186.31185913085938 110.75444793701172 191.28370666503906 124.08611297607422 191.0904541015625 114.4141616821289" stroke-width="3.0" fill="none" stroke="rgb(0, 0, 0)" stroke-opacity="1.0" stroke-linecap="round" stroke-linejoin="round"/>
    <path d="M 97.65462493896484 101.37547302246094 C 126.26874542236328 109.72681427001953 94.50836181640625 137.17079162597656 143.6204071044922 133.75547790527344" stroke-width="3.0" fill="none" stroke="rgb(0, 0, 0)" stroke-opacity="1.0" stroke-linecap="round" stroke-linejoin="round"/>
    <path d="M 22.433855056762695 102.13019561767578 C 145.382080078125 95.66903686523438 101.61441040039062 111.85872650146484 23.413394927978516 106.53433990478516" stroke-width="3.0" fill="none" stroke="rgb(0, 0, 0)" stroke-opacity="1.0" stroke-linecap="round" stroke-linejoin="round"/>
    <path d="M 180.6041259765625 113.63645935058594 C 137.35516357421875 108.3159408569336 164.93943786621094 112.5413818359375 113.0268783569336 105.15422821044922" stroke-width="3.0" fill="none" stroke="rgb(0, 0, 0)" stroke-opacity="1.0" stroke-linecap="round" stroke-linejoin="round"/>
    <path d="M 69.48772430419922 204.59844970703125 C 89.3099136352539 208.7395477294922 106.58950805664062 214.76751708984375 121.87576293945312 210.1857147216797" stroke-width="3.0" fill="none" stroke="rgb(0, 0, 0)" stroke-opacity="1.0" stroke-linecap="round" stroke-linejoin="round"/>
    <path d="M 173.08900451660156 26.176708221435547 C 189.1303253173828 34.56578063964844 231.59848022460938 78.04273986816406 215.7103729248047 138.43067932128906" stroke-width="3.0" fill="none" stroke="rgb(0, 0, 0)" stroke-opacity="1.0" stroke-linecap="round" stroke-linejoin="round"/>
    <path d="M 108.926025390625 81.22457885742188 C 132.49595642089844 79.15302276611328 131.0409698486328 80.7778549194336 125.51131439208984 95.62467956542969" stroke-width="3.0" fill="none" stroke="rgb(0, 0, 0)" stroke-opacity="1.0" stroke-linecap="round" stroke-linejoin="round"/>
    <path d="M 70.99211120605469 26.65521240234375 C 114.9812240600586 -13.509773254394531 165.9242706298828 18.221574783325195 187.93026733398438 36.584590911865234" stroke-width="3.0" fill="none" stroke="rgb(0, 0, 0)" stroke-opacity="1.0" stroke-linecap="round" stroke-linejoin="round"/>
    <path d="M 128.23184204101562 134.95419311523438 C 136.9031524658203 153.47825622558594 147.92440795898438 132.474609375 139.3579864501953 139.7960205078125" stroke-width="3.0" fill="none" stroke="rgb(0, 0, 0)" stroke-opacity="1.0" stroke-linecap="round" stroke-linejoin="round"/>
    <path d="M 65.20782470703125 123.47093200683594 C 58.739505767822266 143.169921875 63.84318161010742 147.2012939453125 25.865758895874023 128.8531494140625" stroke-width="3.0" fill="none" stroke="rgb(0, 0, 0)" stroke-opacity="1.0" stroke-linecap="round" stroke-linejoin="round"/>
    <path d="M 169.5360565185547 136.7100830078125 C 186.84483337402344 167.7092742919922 184.26153564453125 105.39080047607422 179.7567596435547 131.70106506347656" stroke-width="3.0" fill="none" stroke="rgb(0, 0, 0)" stroke-opacity="1.0" stroke-linecap="round" stroke-linejoin="round"/>
    <path d="M 130.6231689453125 209.5443572998047 C 108.56466674804688 211.82444763183594 104.20885467529297 213.47146606445312 136.93531799316406 206.9923553466797" stroke-width="3.0" fill="none" stroke="rgb(0, 0, 0)" stroke-opacity="1.0" stroke-linecap="round" stroke-linejoin="round"/>
    <path d="M 55.186405181884766 148.6678009033203 C 75.1368179321289 146.92100524902344 51.846290588378906 163.42369079589844 31.785140991210938 128.7088623046875" stroke-width="3.0" fill="none" stroke="rgb(0, 0, 0)" stroke-opacity="1.0" stroke-linecap="round" stroke-linejoin="round"/>
    <path d="M 96.07471466064453 87.19310760498047 C 56.09425354003906 85.01703643798828 15.571057319641113 91.70349884033203 85.57093048095703 90.68084716796875" stroke-width="3.0" fill="none" stroke="rgb(0, 0, 0)" stroke-opacity="1.0" stroke-linecap="round" stroke-linejoin="round"/>
    <path d="M 74.53081512451172 102.58808898925781 C 78.04258728027344 108.80699920654297 102.05271911621094 126.4041519165039 44.87981033325195 113.20536804199219" stroke-width="3.0" fill="none" stroke="rgb(0, 0, 0)" stroke-opacity="1.0" stroke-linecap="round" stroke-linejoin="round"/>
    <path d="M 156.4073944091797 90.87760162353516 C 106.4815673828125 81.62525177001953 150.62547302246094 102.78602600097656 159.4836883544922 94.39152526855469" stroke-width="3.0" fill="none" stroke="rgb(0, 0, 0)" stroke-opacity="1.0" stroke-linecap="round" stroke-linejoin="round"/>
    <path d="M 93.75544738769531 117.41583251953125 C 68.30098724365234 137.02610778808594 114.87239837646484 155.9740753173828 82.0799560546875 140.09713745117188" stroke-width="3.0" fill="none" stroke="rgb(0, 0, 0)" stroke-opacity="1.0" stroke-linecap="round" stroke-linejoin="round"/>
    <path d="M 24.188657760620117 48.60483169555664 C 16.81801414489746 64.83111572265625 -0.67104572057724 90.69279479980469 8.559552192687988 131.01107788085938" stroke-width="3.0" fill="none" stroke="rgb(0, 0, 0)" stroke-opacity="1.0" stroke-linecap="round" stroke-linejoin="round"/>
    <path d="M 178.84957885742188 191.58865356445312 C 193.3514404296875 177.16526794433594 221.83912658691406 157.2747039794922 217.5948486328125 112.4833755493164" stroke-width="3.0" fill="none" stroke="rgb(0, 0, 0)" stroke-opacity="1.0" stroke-linecap="round" stroke-linejoin="round"/>
    <path d="M 146.5584716796875 107.06819152832031 C 210.4678192138672 123.31232452392578 202.5474090576172 113.34247589111328 152.6533660888672 107.10124969482422" stroke-width="3.0" fill="none" stroke="rgb(0, 0, 0)" stroke-opacity="1.0" stroke-linecap="round" stroke-linejoin="round"/>
    <path d="M 133.2901153564453 98.69088745117188 C 239.87030029296875 116.68209075927734 164.67620849609375 103.69913482666016 170.6851043701172 137.94935607910156" stroke-width="3.0" fill="none" stroke="rgb(0, 0, 0)" stroke-opacity="1.0" stroke-linecap="round" stroke-linejoin="round"/>
    <path d="M 159.28024291992188 96.59381866455078 C 131.3336944580078 86.49606323242188 117.48974609375 114.31633758544922 131.0042724609375 83.68164825439453" stroke-width="3.0" fill="none" stroke="rgb(0, 0, 0)" stroke-opacity="1.0" stroke-linecap="round" stroke-linejoin="round"/>
    <path d="M 82.03788757324219 143.6425018310547 C 125.07970428466797 167.2511444091797 101.95166778564453 79.36714172363281 84.56348419189453 123.15272521972656" stroke-width="3.0" fill="none" stroke="rgb(0, 0, 0)" stroke-opacity="1.0" stroke-linecap="round" stroke-linejoin="round"/>
    <path d="M 176.54751586914062 118.83891296386719 C 195.18817138671875 100.03939056396484 189.5511474609375 132.9279022216797 186.96890258789062 112.82070922851562" stroke-width="3.0" fill="none" stroke="rgb(0, 0, 0)" stroke-opacity="1.0" stroke-linecap="round" stroke-linejoin="round"/>
    <path d="M 133.82884216308594 98.70803833007812 C 107.62834167480469 93.52887725830078 187.98074340820312 112.58037567138672 138.0937042236328 101.79224395751953" stroke-width="3.0" fill="none" stroke="rgb(0, 0, 0)" stroke-opacity="1.0" stroke-linecap="round" stroke-linejoin="round"/>
    <path d="M 62.549522399902344 22.68269920349121 C 108.51980590820312 7.4921064376831055 94.78001403808594 5.805757999420166 64.89209747314453 19.16438102722168" stroke-width="3.0" fill="none" stroke="rgb(0, 0, 0)" stroke-opacity="1.0" stroke-linecap="round" stroke-linejoin="round"/>
    <path d="M 28.28180694580078 129.30226135253906 C 119.63007354736328 133.08905029296875 101.23683166503906 157.17868041992188 34.750091552734375 142.83509826660156" stroke-width="3.0" fill="none" stroke="rgb(0, 0, 0)" stroke-opacity="1.0" stroke-linecap="round" stroke-linejoin="round"/>
    <path d="M 176.96092224121094 144.43077087402344 C 160.0030975341797 104.58466339111328 200.99420166015625 115.74429321289062 182.08689880371094 143.79098510742188" stroke-width="3.0" fill="none" stroke="rgb(0, 0, 0)" stroke-opacity="1.0" stroke-linecap="round" stroke-linejoin="round"/>
    <path d="M 50.959693908691406 140.78123474121094 C -1.237412452697754 113.7113037109375 19.097389221191406 98.37467956542969 85.58316802978516 104.71163940429688" stroke-width="3.0" fill="none" stroke="rgb(0, 0, 0)" stroke-opacity="1.0" stroke-linecap="round" stroke-linejoin="round"/>
    <path d="M 8.14046859741211 118.40209197998047 C 14.740175247192383 191.6382598876953 75.8885726928711 212.7075958251953 99.34761047363281 211.36595153808594" stroke-width="3.0" fill="none" stroke="rgb(0, 0, 0)" stroke-opacity="1.0" stroke-linecap="round" stroke-linejoin="round"/>
    <path d="M 107.56706237792969 152.49559020996094 C 137.92247009277344 156.13870239257812 142.73692321777344 160.10716247558594 107.800537109375 153.3382568359375" stroke-width="3.0" fill="none" stroke="rgb(0, 0, 0)" stroke-opacity="1.0" stroke-linecap="round" stroke-linejoin="round"/>
    <path d="M 154.4275665283203 106.87174987792969 C 150.08291625976562 112.14208984375 127.30221557617188 103.50878143310547 190.29698181152344 116.16446685791016" stroke-width="3.0" fill="none" stroke="rgb(0, 0, 0)" stroke-opacity="1.0" stroke-linecap="round" stroke-linejoin="round"/>
    <path d="M 48.206565856933594 99.26319122314453 C 82.89312744140625 119.41194915771484 49.840118408203125 85.36549377441406 48.18724060058594 112.7000961303711" stroke-width="3.0" fill="none" stroke="rgb(0, 0, 0)" stroke-opacity="1.0" stroke-linecap="round" stroke-linejoin="round"/>
    <path d="M 26.27379035949707 95.71397399902344 C 114.28327178955078 106.58353424072266 73.99624633789062 120.3181381225586 89.87496185302734 100.90677642822266" stroke-width="3.0" fill="none" stroke="rgb(0, 0, 0)" stroke-opacity="1.0" stroke-linecap="round" stroke-linejoin="round"/>
    <path d="M 25.056293487548828 46.73951721191406 C 48.5190315246582 27.34050941467285 40.864715576171875 28.790151596069336 66.83690643310547 17.256542205810547" stroke-width="3.0" fill="none" stroke="rgb(0, 0, 0)" stroke-opacity="1.0" stroke-linecap="round" stroke-linejoin="round"/>
    <path d="M 181.7698516845703 140.1346435546875 C 149.17672729492188 141.88816833496094 91.18683624267578 139.991455078125 119.92855834960938 131.27574157714844" stroke-width="3.0" fill="none" stroke="rgb(0, 0, 0)" stroke-opacity="1.0" stroke-linecap="round" stroke-linejoin="round"/>
    <path d="M 39.166542053222656 135.71128845214844 C 87.91667175292969 140.15744018554688 118.24853515625 135.71217346191406 30.11623191833496 126.12577056884766" stroke-width="3.0" fill="none" stroke="rgb(0, 0, 0)" stroke-opacity="1.0" stroke-linecap="round" stroke-linejoin="round"/>
    <path d="M 100.64872741699219 90.62577056884766 C 102.69315338134766 82.8340072631836 122.9105453491211 79.74463653564453 130.32115173339844 83.49372863769531" stroke-width="3.0" fill="none" stroke="rgb(0, 0, 0)" stroke-opacity="1.0" stroke-linecap="round" stroke-linejoin="round"/>
    <path d="M 162.36398315429688 98.82853698730469 C 182.7071533203125 98.87102508544922 136.2133026123047 79.319091796875 120.99250030517578 81.44722747802734" stroke-width="3.0" fill="none" stroke="rgb(0, 0, 0)" stroke-opacity="1.0" stroke-linecap="round" stroke-linejoin="round"/>
  </g>
</svg>
