<?xml version="1.0" ?>
<svg xmlns="http://www.w3.org/2000/svg" version="1.1" width="224" height="224">
  <defs/>
  <g>
    <path d="M 86.60256958007812 101.87167358398438 C 117.75807189941406 95.79241943359375 123.87974548339844 125.51667785644531 113.5440902709961 141.3580780029297" stroke-width="3.0" fill="none" stroke="rgb(0, 0, 0)" stroke-opacity="1.0" stroke-linecap="round" stroke-linejoin="round"/>
    <path d="M 61.462425231933594 127.08412170410156 C 95.63955688476562 144.85401916503906 82.3322525024414 135.6070556640625 66.30134582519531 137.14541625976562" stroke-width="3.0" fill="none" stroke="rgb(0, 0, 0)" stroke-opacity="1.0" stroke-linecap="round" stroke-linejoin="round"/>
    <path d="M 47.64931106567383 131.03118896484375 C -5.85273551940918 137.5612335205078 15.169611930847168 127.5177001953125 80.7564697265625 128.8837127685547" stroke-width="3.0" fill="none" stroke="rgb(0, 0, 0)" stroke-opacity="1.0" stroke-linecap="round" stroke-linejoin="round"/>
    <path d="M 24.52130699157715 124.56397247314453 C 90.20406341552734 127.81397247314453 84.38494873046875 131.4910430908203 82.33026123046875 116.40814208984375" stroke-width="3.0" fill="none" stroke="rgb(0, 0, 0)" stroke-opacity="1.0" stroke-linecap="round" stroke-linejoin="round"/>
    <path d="M 92.63570404052734 92.81430053710938 C 182.25137329101562 125.95947265625 172.6484375 103.77481079101562 99.47843933105469 92.64449310302734" stroke-width="3.0" fill="none" stroke="rgb(0, 0, 0)" stroke-opacity="1.0" stroke-linecap="round" stroke-linejoin="round"/>
    <path d="M 172.7202911376953 136.87136840820312 C 182.93975830078125 104.05589294433594 194.9778289794922 111.32797241210938 142.5290985107422 108.42467498779297" stroke-width="3.0" fill="none" stroke="rgb(0, 0, 0)" stroke-opacity="1.0" stroke-linecap="round" stroke-linejoin="round"/>
    <path d="M 55.014244079589844 100.82850646972656 C 119.6801986694336 95.34126281738281 112.40762329101562 89.78423309326172 40.6237678527832 93.31139373779297" stroke-width="3.0" fill="none" stroke="rgb(0, 0, 0)" stroke-opacity="1.0" stroke-linecap="round" stroke-linejoin="round"/>
    <path d="M 82.00626373291016 143.3885955810547 C 82.21829986572266 152.3015899658203 81.44525909423828 134.24264526367188 25.189136505126953 123.9478988647461" stroke-width="3.0" fill="none" stroke="rgb(0, 0, 0)" stroke-opacity="1.0" stroke-linecap="round" stroke-linejoin="round"/>
    <path d="M 136.5384979248047 205.7886962890625 C 190.82284545898438 195.7834930419922 154.7262420654297 199.19741821289062 176.4699249267578 194.31637573242188" stroke-width="3.0" fill="none" stroke="rgb(0, 0, 0)" stroke-opacity="1.0" stroke-linecap="round" stroke-linejoin="round"/>
    <path d="M 158.057861328125 107.38269805908203 C 174.95822143554688 109.29241180419922 179.5167694091797 105.33982849121094 195.7676239013672 113.08416748046875" stroke-width="3.0" fill="none" stroke="rgb(0, 0, 0)" stroke-opacity="1.0" stroke-linecap="round" stroke-linejoin="round"/>
    <path d="M 107.47990417480469 103.90563201904297 C 132.0310821533203 117.81733703613281 113.13674926757812 147.28857421875 131.7552032470703 141.23744201660156" stroke-width="3.0" fill="none" stroke="rgb(0, 0, 0)" stroke-opacity="1.0" stroke-linecap="round" stroke-linejoin="round"/>
    <path d="M 25.579025268554688 104.38247680664062 C 111.8698501586914 109.50554656982422 79.67444610595703 104.91053009033203 27.06241226196289 100.73155212402344" stroke-width="3.0" fill="none" stroke="rgb(0, 0, 0)" stroke-opacity="1.0" stroke-linecap="round" stroke-linejoin="round"/>
    <path d="M 172.723876953125 115.68109893798828 C 119.39459228515625 106.93334197998047 153.52838134765625 116.91869354248047 132.3987579345703 105.51469421386719" stroke-width="3.0" fill="none" stroke="rgb(0, 0, 0)" stroke-opacity="1.0" stroke-linecap="round" stroke-linejoin="round"/>
    <path d="M 96.65570068359375 195.776611328125 C 96.04442596435547 196.90834045410156 107.29739379882812 201.02194213867188 106.04950714111328 199.70127868652344" stroke-width="3.0" fill="none" stroke="rgb(0, 0, 0)" stroke-opacity="1.0" stroke-linecap="round" stroke-linejoin="round"/>
    <path d="M 175.74264526367188 28.362791061401367 C 186.40377807617188 34.40415954589844 226.24044799804688 75.51329040527344 215.760009765625 130.22312927246094" stroke-width="3.0" fill="none" stroke="rgb(0, 0, 0)" stroke-opacity="1.0" stroke-linecap="round" stroke-linejoin="round"/>
    <path d="M 106.46218872070312 81.4148178100586 C 138.8279571533203 81.27063751220703 134.65765380859375 82.15245819091797 126.88075256347656 97.47477722167969" stroke-width="3.0" fill="none" stroke="rgb(0, 0, 0)" stroke-opacity="1.0" stroke-linecap="round" stroke-linejoin="round"/>
    <path d="M 58.9433708190918 23.432096481323242 C 124.0777587890625 -7.393945693969727 165.6712646484375 19.856271743774414 186.06610107421875 35.40757751464844" stroke-width="3.0" fill="none" stroke="rgb(0, 0, 0)" stroke-opacity="1.0" stroke-linecap="round" stroke-linejoin="round"/>
    <path d="M 139.61338806152344 137.63571166992188 C 134.71405029296875 155.122802734375 132.5356903076172 129.55096435546875 133.09742736816406 137.52122497558594" stroke-width="3.0" fill="none" stroke="rgb(0, 0, 0)" stroke-opacity="1.0" stroke-linecap="round" stroke-linejoin="round"/>
    <path d="M 70.96900177001953 127.33460998535156 C 55.878173828125 140.85653686523438 66.98235321044922 153.13302612304688 22.089385986328125 131.4820556640625" stroke-width="3.0" fill="none" stroke="rgb(0, 0, 0)" stroke-opacity="1.0" stroke-linecap="round" stroke-linejoin="round"/>
    <path d="M 171.4505615234375 134.47337341308594 C 189.06532287597656 164.44969177246094 186.67662048339844 105.43669891357422 180.0692901611328 127.99848937988281" stroke-width="3.0" fill="none" stroke="rgb(0, 0, 0)" stroke-opacity="1.0" stroke-linecap="round" stroke-linejoin="round"/>
    <path d="M 135.52748107910156 203.60452270507812 C 110.31218719482422 197.589599609375 103.7200927734375 198.1712188720703 114.57197570800781 198.1532745361328" stroke-width="3.0" fill="none" stroke="rgb(0, 0, 0)" stroke-opacity="1.0" stroke-linecap="round" stroke-linejoin="round"/>
    <path d="M 56.607357025146484 139.52120971679688 C 65.86469268798828 126.59811401367188 61.96523666381836 142.86888122558594 25.767845153808594 122.3887710571289" stroke-width="3.0" fill="none" stroke="rgb(0, 0, 0)" stroke-opacity="1.0" stroke-linecap="round" stroke-linejoin="round"/>
    <path d="M 97.87669372558594 91.7392807006836 C 34.112857818603516 90.87567138671875 -15.28411865234375 99.03968811035156 65.55379486083984 110.28929901123047" stroke-width="3.0" fill="none" stroke="rgb(0, 0, 0)" stroke-opacity="1.0" stroke-linecap="round" stroke-linejoin="round"/>
    <path d="M 71.09651947021484 102.22442626953125 C 68.61675262451172 123.51815032958984 92.4068832397461 106.17977905273438 53.90431213378906 107.4728012084961" stroke-width="3.0" fill="none" stroke="rgb(0, 0, 0)" stroke-opacity="1.0" stroke-linecap="round" stroke-linejoin="round"/>
    <path d="M 158.1536865234375 95.40994262695312 C 112.56240844726562 85.4300308227539 152.6768798828125 103.62025451660156 165.8120880126953 96.35980987548828" stroke-width="3.0" fill="none" stroke="rgb(0, 0, 0)" stroke-opacity="1.0" stroke-linecap="round" stroke-linejoin="round"/>
    <path d="M 94.2149887084961 107.77985382080078 C 67.923583984375 137.35592651367188 98.51091003417969 150.33645629882812 84.71994018554688 142.3585662841797" stroke-width="3.0" fill="none" stroke="rgb(0, 0, 0)" stroke-opacity="1.0" stroke-linecap="round" stroke-linejoin="round"/>
    <path d="M 21.332324981689453 58.3393669128418 C 15.890717506408691 70.20178985595703 10.44423770904541 80.03193664550781 9.983240127563477 110.87043762207031" stroke-width="3.0" fill="none" stroke="rgb(0, 0, 0)" stroke-opacity="1.0" stroke-linecap="round" stroke-linejoin="round"/>
    <path d="M 179.593994140625 190.6376190185547 C 197.47030639648438 170.3525848388672 212.75149536132812 157.8549346923828 217.14486694335938 120.37523651123047" stroke-width="3.0" fill="none" stroke="rgb(0, 0, 0)" stroke-opacity="1.0" stroke-linecap="round" stroke-linejoin="round"/>
    <path d="M 140.34889221191406 109.49264526367188 C 218.26083374023438 118.7083740234375 214.03448486328125 111.71873474121094 148.32608032226562 106.02916717529297" stroke-width="3.0" fill="none" stroke="rgb(0, 0, 0)" stroke-opacity="1.0" stroke-linecap="round" stroke-linejoin="round"/>
    <path d="M 148.70167541503906 94.56242370605469 C 230.15708923339844 119.37537384033203 175.99717712402344 105.75668334960938 171.21047973632812 133.6345672607422" stroke-width="3.0" fill="none" stroke="rgb(0, 0, 0)" stroke-opacity="1.0" stroke-linecap="round" stroke-linejoin="round"/>
    <path d="M 146.0002899169922 93.80558013916016 C 140.73626708984375 91.81248474121094 130.28591918945312 112.894287109375 137.01649475097656 83.92957305908203" stroke-width="3.0" fill="none" stroke="rgb(0, 0, 0)" stroke-opacity="1.0" stroke-linecap="round" stroke-linejoin="round"/>
    <path d="M 80.90921783447266 141.97715759277344 C 129.17137145996094 171.55210876464844 116.54804229736328 73.21195220947266 79.73808288574219 120.1817398071289" stroke-width="3.0" fill="none" stroke="rgb(0, 0, 0)" stroke-opacity="1.0" stroke-linecap="round" stroke-linejoin="round"/>
    <path d="M 193.97987365722656 117.13382720947266 C 199.16650390625 109.04814147949219 184.42779541015625 137.90501403808594 190.67843627929688 116.31024932861328" stroke-width="3.0" fill="none" stroke="rgb(0, 0, 0)" stroke-opacity="1.0" stroke-linecap="round" stroke-linejoin="round"/>
    <path d="M 142.5865020751953 99.42778015136719 C 115.399169921875 80.71759033203125 188.83082580566406 103.82835388183594 148.01022338867188 103.74746704101562" stroke-width="3.0" fill="none" stroke="rgb(0, 0, 0)" stroke-opacity="1.0" stroke-linecap="round" stroke-linejoin="round"/>
    <path d="M 64.80213928222656 24.0286808013916 C 92.53791046142578 18.931217193603516 78.13720703125 13.435495376586914 63.510581970214844 25.493297576904297" stroke-width="3.0" fill="none" stroke="rgb(0, 0, 0)" stroke-opacity="1.0" stroke-linecap="round" stroke-linejoin="round"/>
    <path d="M 35.7335090637207 136.4230499267578 C 103.32540130615234 132.00714111328125 91.71898651123047 132.8092803955078 38.87472152709961 126.52061462402344" stroke-width="3.0" fill="none" stroke="rgb(0, 0, 0)" stroke-opacity="1.0" stroke-linecap="round" stroke-linejoin="round"/>
    <path d="M 177.6293487548828 140.80445861816406 C 163.06700134277344 100.92105102539062 202.84317016601562 115.80839538574219 183.73365783691406 142.5841827392578" stroke-width="3.0" fill="none" stroke="rgb(0, 0, 0)" stroke-opacity="1.0" stroke-linecap="round" stroke-linejoin="round"/>
    <path d="M 40.536006927490234 135.52883911132812 C 6.902078151702881 103.29872131347656 3.2691845893859863 108.9375991821289 82.99588012695312 110.92807006835938" stroke-width="3.0" fill="none" stroke="rgb(0, 0, 0)" stroke-opacity="1.0" stroke-linecap="round" stroke-linejoin="round"/>
    <path d="M 17.344459533691406 169.74423217773438 C 69.69229125976562 203.414306640625 56.10292434692383 197.00013732910156 93.41373443603516 202.28977966308594" stroke-width="3.0" fill="none" stroke="rgb(0, 0, 0)" stroke-opacity="1.0" stroke-linecap="round" stroke-linejoin="round"/>
    <path d="M 117.37300109863281 131.8232421875 C 131.70338439941406 155.71917724609375 144.83779907226562 140.4176788330078 126.45458221435547 140.3231964111328" stroke-width="3.0" fill="none" stroke="rgb(0, 0, 0)" stroke-opacity="1.0" stroke-linecap="round" stroke-linejoin="round"/>
    <path d="M 153.25973510742188 111.4881820678711 C 152.4884033203125 104.57564544677734 129.39698791503906 98.08168029785156 179.43260192871094 105.74708557128906" stroke-width="3.0" fill="none" stroke="rgb(0, 0, 0)" stroke-opacity="1.0" stroke-linecap="round" stroke-linejoin="round"/>
    <path d="M 83.75659942626953 101.68521118164062 C 96.81766510009766 112.27371978759766 48.0900764465332 96.61670684814453 31.104698181152344 108.91909790039062" stroke-width="3.0" fill="none" stroke="rgb(0, 0, 0)" stroke-opacity="1.0" stroke-linecap="round" stroke-linejoin="round"/>
    <path d="M 27.862300872802734 117.20010375976562 C 96.57579803466797 118.21321105957031 74.40045166015625 125.33983612060547 93.56792449951172 107.76513671875" stroke-width="3.0" fill="none" stroke="rgb(0, 0, 0)" stroke-opacity="1.0" stroke-linecap="round" stroke-linejoin="round"/>
    <path d="M 21.63996124267578 56.65150833129883 C 47.202754974365234 24.780668258666992 34.607826232910156 38.326377868652344 56.55389404296875 23.29798126220703" stroke-width="3.0" fill="none" stroke="rgb(0, 0, 0)" stroke-opacity="1.0" stroke-linecap="round" stroke-linejoin="round"/>
    <path d="M 180.51312255859375 133.6912841796875 C 160.02735900878906 138.41989135742188 134.80470275878906 135.30592346191406 117.2732925415039 138.1256866455078" stroke-width="3.0" fill="none" stroke="rgb(0, 0, 0)" stroke-opacity="1.0" stroke-linecap="round" stroke-linejoin="round"/>
    <path d="M 44.67490768432617 127.3653793334961 C 48.872989654541016 148.6351318359375 79.4559097290039 135.44427490234375 26.304861068725586 126.50939178466797" stroke-width="3.0" fill="none" stroke="rgb(0, 0, 0)" stroke-opacity="1.0" stroke-linecap="round" stroke-linejoin="round"/>
    <path d="M 96.40058898925781 86.89413452148438 C 108.75607299804688 75.74662017822266 126.28302764892578 83.01470184326172 124.63243865966797 82.71286010742188" stroke-width="3.0" fill="none" stroke="rgb(0, 0, 0)" stroke-opacity="1.0" stroke-linecap="round" stroke-linejoin="round"/>
    <path d="M 161.90609741210938 96.54373931884766 C 171.73776245117188 91.91345977783203 137.97581481933594 83.6437759399414 130.06790161132812 81.6211166381836" stroke-width="3.0" fill="none" stroke="rgb(0, 0, 0)" stroke-opacity="1.0" stroke-linecap="round" stroke-linejoin="round"/>
  </g>
</svg>
