<?xml version="1.0" ?>
<svg xmlns="http://www.w3.org/2000/svg" version="1.1" width="224" height="224">
  <defs/>
  <g>
    <path d="M 64.94585418701172 108.45276641845703 C 124.90995025634766 92.04303741455078 120.51666259765625 147.42529296875 99.60267639160156 152.7355194091797" stroke-width="3.0" fill="none" stroke="rgb(0, 0, 0)" stroke-opacity="1.0" stroke-linecap="round" stroke-linejoin="round"/>
    <path d="M 71.59516143798828 125.45639038085938 C 96.16893005371094 157.44036865234375 74.31362915039062 144.72584533691406 81.87462615966797 135.891845703125" stroke-width="3.0" fill="none" stroke="rgb(0, 0, 0)" stroke-opacity="1.0" stroke-linecap="round" stroke-linejoin="round"/>
    <path d="M 59.28428649902344 129.5653533935547 C 4.144538879394531 150.5886993408203 -1.6801738739013672 153.17530822753906 69.90206909179688 128.32041931152344" stroke-width="3.0" fill="none" stroke="rgb(0, 0, 0)" stroke-opacity="1.0" stroke-linecap="round" stroke-linejoin="round"/>
    <path d="M 28.959089279174805 121.3713150024414 C 118.59990692138672 123.08824920654297 82.11651611328125 125.71772766113281 80.00984191894531 138.64430236816406" stroke-width="3.0" fill="none" stroke="rgb(0, 0, 0)" stroke-opacity="1.0" stroke-linecap="round" stroke-linejoin="round"/>
    <path d="M 92.39010620117188 94.12199401855469 C 201.31781005859375 104.54261779785156 188.83506774902344 98.06664276123047 105.17977142333984 91.02567291259766" stroke-width="3.0" fill="none" stroke="rgb(0, 0, 0)" stroke-opacity="1.0" stroke-linecap="round" stroke-linejoin="round"/>
    <path d="M 169.83245849609375 137.37193298339844 C 163.79469299316406 104.34303283691406 215.35342407226562 122.86471557617188 140.0578155517578 109.00235748291016" stroke-width="3.0" fill="none" stroke="rgb(0, 0, 0)" stroke-opacity="1.0" stroke-linecap="round" stroke-linejoin="round"/>
    <path d="M 31.24523162841797 98.74168395996094 C 165.23257446289062 86.67647552490234 158.47007751464844 84.51490020751953 43.2813835144043 97.72019958496094" stroke-width="3.0" fill="none" stroke="rgb(0, 0, 0)" stroke-opacity="1.0" stroke-linecap="round" stroke-linejoin="round"/>
    <path d="M 82.56651306152344 143.4954376220703 C 91.74886322021484 133.165283203125 73.82102966308594 142.48269653320312 45.82542037963867 136.4741668701172" stroke-width="3.0" fill="none" stroke="rgb(0, 0, 0)" stroke-opacity="1.0" stroke-linecap="round" stroke-linejoin="round"/>
    <path d="M 121.75035095214844 212.0465545654297 C 190.87310791015625 194.49806213378906 145.06143188476562 205.6304168701172 178.3806915283203 195.6133270263672" stroke-width="3.0" fill="none" stroke="rgb(0, 0, 0)" stroke-opacity="1.0" stroke-linecap="round" stroke-linejoin="round"/>
    <path d="M 156.34645080566406 105.5699462890625 C 193.92904663085938 111.01292419433594 184.48153686523438 128.996337890625 190.06382751464844 116.16149139404297" stroke-width="3.0" fill="none" stroke="rgb(0, 0, 0)" stroke-opacity="1.0" stroke-linecap="round" stroke-linejoin="round"/>
    <path d="M 106.00741577148438 104.73561096191406 C 132.0489044189453 119.58783721923828 100.67019653320312 150.9715576171875 154.8312225341797 144.84310913085938" stroke-width="3.0" fill="none" stroke="rgb(0, 0, 0)" stroke-opacity="1.0" stroke-linecap="round" stroke-linejoin="round"/>
    <path d="M 31.44371795654297 101.83992767333984 C 139.92161560058594 100.92375183105469 86.31906127929688 119.98680877685547 31.938642501831055 105.27225494384766" stroke-width="3.0" fill="none" stroke="rgb(0, 0, 0)" stroke-opacity="1.0" stroke-linecap="round" stroke-linejoin="round"/>
    <path d="M 192.12892150878906 114.60511016845703 C 145.72462463378906 112.21913146972656 168.72010803222656 110.57736206054688 86.45104217529297 103.48197174072266" stroke-width="3.0" fill="none" stroke="rgb(0, 0, 0)" stroke-opacity="1.0" stroke-linecap="round" stroke-linejoin="round"/>
    <path d="M 47.15055847167969 190.84971618652344 C 78.65514373779297 216.5965118408203 114.02810668945312 211.9935760498047 128.21641540527344 210.27926635742188" stroke-width="3.0" fill="none" stroke="rgb(0, 0, 0)" stroke-opacity="1.0" stroke-linecap="round" stroke-linejoin="round"/>
    <path d="M 178.16989135742188 28.365840911865234 C 188.210205078125 37.354644775390625 231.44216918945312 79.73688507080078 212.61036682128906 138.0129852294922" stroke-width="3.0" fill="none" stroke="rgb(0, 0, 0)" stroke-opacity="1.0" stroke-linecap="round" stroke-linejoin="round"/>
    <path d="M 91.48683166503906 89.86499786376953 C 135.91128540039062 69.53060913085938 147.12948608398438 89.73262023925781 132.03988647460938 96.30257415771484" stroke-width="3.0" fill="none" stroke="rgb(0, 0, 0)" stroke-opacity="1.0" stroke-linecap="round" stroke-linejoin="round"/>
    <path d="M 75.61754608154297 28.457876205444336 C 90.58972930908203 -16.435169219970703 171.7524871826172 11.617364883422852 191.54766845703125 43.26416015625" stroke-width="3.0" fill="none" stroke="rgb(0, 0, 0)" stroke-opacity="1.0" stroke-linecap="round" stroke-linejoin="round"/>
    <path d="M 113.39071655273438 133.25062561035156 C 145.49069213867188 150.82969665527344 182.453369140625 136.35704040527344 129.14540100097656 142.9779510498047" stroke-width="3.0" fill="none" stroke="rgb(0, 0, 0)" stroke-opacity="1.0" stroke-linecap="round" stroke-linejoin="round"/>
    <path d="M 67.86714935302734 124.89778900146484 C 73.71188354492188 144.08596801757812 41.03816223144531 155.25369262695312 36.50567626953125 127.27261352539062" stroke-width="3.0" fill="none" stroke="rgb(0, 0, 0)" stroke-opacity="1.0" stroke-linecap="round" stroke-linejoin="round"/>
    <path d="M 171.3049774169922 142.0361328125 C 187.47303771972656 164.2313995361328 179.52456665039062 107.26229095458984 176.37554931640625 131.26971435546875" stroke-width="3.0" fill="none" stroke="rgb(0, 0, 0)" stroke-opacity="1.0" stroke-linecap="round" stroke-linejoin="round"/>
    <path d="M 143.32127380371094 204.6381072998047 C 100.5074234008789 205.89012145996094 95.9319076538086 211.1794891357422 135.7269744873047 207.9741668701172" stroke-width="3.0" fill="none" stroke="rgb(0, 0, 0)" stroke-opacity="1.0" stroke-linecap="round" stroke-linejoin="round"/>
    <path d="M 55.65363311767578 116.25447082519531 C 80.1327133178711 132.44911193847656 56.9332275390625 152.81533813476562 44.95808792114258 121.91183471679688" stroke-width="3.0" fill="none" stroke="rgb(0, 0, 0)" stroke-opacity="1.0" stroke-linecap="round" stroke-linejoin="round"/>
    <path d="M 107.62133026123047 89.08094787597656 C 61.7276496887207 95.2618637084961 14.724868774414062 92.50273895263672 95.1569595336914 94.50662994384766" stroke-width="3.0" fill="none" stroke="rgb(0, 0, 0)" stroke-opacity="1.0" stroke-linecap="round" stroke-linejoin="round"/>
    <path d="M 82.5405502319336 104.1951904296875 C 85.05411529541016 94.95018768310547 99.05884552001953 139.40419006347656 35.61180114746094 123.00006866455078" stroke-width="3.0" fill="none" stroke="rgb(0, 0, 0)" stroke-opacity="1.0" stroke-linecap="round" stroke-linejoin="round"/>
    <path d="M 151.35643005371094 96.08935546875 C 95.81881713867188 87.54377746582031 156.2694854736328 104.76525115966797 155.35427856445312 101.8935317993164" stroke-width="3.0" fill="none" stroke="rgb(0, 0, 0)" stroke-opacity="1.0" stroke-linecap="round" stroke-linejoin="round"/>
    <path d="M 95.64774322509766 119.13553619384766 C 62.533870697021484 149.20901489257812 116.65161895751953 154.31222534179688 80.61964416503906 141.7098846435547" stroke-width="3.0" fill="none" stroke="rgb(0, 0, 0)" stroke-opacity="1.0" stroke-linecap="round" stroke-linejoin="round"/>
    <path d="M 24.972251892089844 52.62356185913086 C 20.34929084777832 66.5311279296875 -1.6788103580474854 95.44639587402344 7.912448406219482 127.54301452636719" stroke-width="3.0" fill="none" stroke="rgb(0, 0, 0)" stroke-opacity="1.0" stroke-linecap="round" stroke-linejoin="round"/>
    <path d="M 180.26426696777344 193.58419799804688 C 188.0870361328125 178.36431884765625 224.95962524414062 146.29620361328125 216.19354248046875 99.57646179199219" stroke-width="3.0" fill="none" stroke="rgb(0, 0, 0)" stroke-opacity="1.0" stroke-linecap="round" stroke-linejoin="round"/>
    <path d="M 155.39967346191406 108.34666442871094 C 206.1046600341797 119.78014373779297 193.60313415527344 110.2096939086914 175.2872314453125 101.51802062988281" stroke-width="3.0" fill="none" stroke="rgb(0, 0, 0)" stroke-opacity="1.0" stroke-linecap="round" stroke-linejoin="round"/>
    <path d="M 131.62503051757812 93.28202056884766 C 255.47132873535156 127.89398193359375 152.2178192138672 92.60082244873047 172.93324279785156 143.34799194335938" stroke-width="3.0" fill="none" stroke="rgb(0, 0, 0)" stroke-opacity="1.0" stroke-linecap="round" stroke-linejoin="round"/>
    <path d="M 139.29624938964844 95.14726257324219 C 138.56825256347656 67.77738189697266 125.7169189453125 116.73406219482422 131.09848022460938 87.38504791259766" stroke-width="3.0" fill="none" stroke="rgb(0, 0, 0)" stroke-opacity="1.0" stroke-linecap="round" stroke-linejoin="round"/>
    <path d="M 81.68748474121094 150.17825317382812 C 134.44158935546875 146.82801818847656 87.7009506225586 83.08252716064453 91.48711395263672 136.16409301757812" stroke-width="3.0" fill="none" stroke="rgb(0, 0, 0)" stroke-opacity="1.0" stroke-linecap="round" stroke-linejoin="round"/>
    <path d="M 187.98057556152344 121.8251953125 C 190.81703186035156 101.83338165283203 187.6161651611328 136.79237365722656 190.82040405273438 129.08480834960938" stroke-width="3.0" fill="none" stroke="rgb(0, 0, 0)" stroke-opacity="1.0" stroke-linecap="round" stroke-linejoin="round"/>
    <path d="M 136.11045837402344 94.0235595703125 C 105.27386474609375 90.50183868408203 189.91693115234375 102.08720397949219 138.4409637451172 96.86318969726562" stroke-width="3.0" fill="none" stroke="rgb(0, 0, 0)" stroke-opacity="1.0" stroke-linecap="round" stroke-linejoin="round"/>
    <path d="M 59.30353927612305 10.89547061920166 C 96.1680908203125 -13.386353492736816 94.14640045166016 -13.175405502319336 59.0335807800293 11.617119789123535" stroke-width="3.0" fill="none" stroke="rgb(0, 0, 0)" stroke-opacity="1.0" stroke-linecap="round" stroke-linejoin="round"/>
    <path d="M 24.276695251464844 127.72193908691406 C 109.89913177490234 136.013916015625 105.1981201171875 158.23179626464844 33.718841552734375 148.27536010742188" stroke-width="3.0" fill="none" stroke="rgb(0, 0, 0)" stroke-opacity="1.0" stroke-linecap="round" stroke-linejoin="round"/>
    <path d="M 175.8303680419922 146.1006317138672 C 164.19393920898438 99.65676879882812 201.734375 115.55415344238281 180.8013916015625 147.5526885986328" stroke-width="3.0" fill="none" stroke="rgb(0, 0, 0)" stroke-opacity="1.0" stroke-linecap="round" stroke-linejoin="round"/>
    <path d="M 62.77690124511719 135.1199493408203 C 6.153762340545654 124.5621566772461 24.91082763671875 92.40625762939453 84.9326171875 109.57117462158203" stroke-width="3.0" fill="none" stroke="rgb(0, 0, 0)" stroke-opacity="1.0" stroke-linecap="round" stroke-linejoin="round"/>
    <path d="M 6.489799499511719 121.61859893798828 C 9.761021614074707 191.8670654296875 77.21233367919922 208.1720733642578 114.63493347167969 209.81983947753906" stroke-width="3.0" fill="none" stroke="rgb(0, 0, 0)" stroke-opacity="1.0" stroke-linecap="round" stroke-linejoin="round"/>
    <path d="M 85.18378448486328 152.51812744140625 C 164.45387268066406 151.05960083007812 171.6136932373047 153.817138671875 106.1065673828125 148.49942016601562" stroke-width="3.0" fill="none" stroke="rgb(0, 0, 0)" stroke-opacity="1.0" stroke-linecap="round" stroke-linejoin="round"/>
    <path d="M 159.7240447998047 109.29248809814453 C 146.85337829589844 107.66610717773438 122.40918731689453 102.71881103515625 190.72869873046875 112.76129913330078" stroke-width="3.0" fill="none" stroke="rgb(0, 0, 0)" stroke-opacity="1.0" stroke-linecap="round" stroke-linejoin="round"/>
    <path d="M 49.06132888793945 95.32675170898438 C 61.68397521972656 122.04357147216797 36.129825592041016 88.7501449584961 49.281436920166016 113.79412841796875" stroke-width="3.0" fill="none" stroke="rgb(0, 0, 0)" stroke-opacity="1.0" stroke-linecap="round" stroke-linejoin="round"/>
    <path d="M 29.8646297454834 117.76406860351562 C 118.16279602050781 116.66938018798828 71.1540298461914 127.99845886230469 94.58759307861328 107.75625610351562" stroke-width="3.0" fill="none" stroke="rgb(0, 0, 0)" stroke-opacity="1.0" stroke-linecap="round" stroke-linejoin="round"/>
    <path d="M 26.19598388671875 50.31293869018555 C 46.082916259765625 25.230844497680664 41.342552185058594 26.27475929260254 65.06330108642578 7.8293867111206055" stroke-width="3.0" fill="none" stroke="rgb(0, 0, 0)" stroke-opacity="1.0" stroke-linecap="round" stroke-linejoin="round"/>
    <path d="M 181.84910583496094 141.102294921875 C 164.3632354736328 136.16322326660156 83.13714599609375 144.27767944335938 126.58870697021484 135.61961364746094" stroke-width="3.0" fill="none" stroke="rgb(0, 0, 0)" stroke-opacity="1.0" stroke-linecap="round" stroke-linejoin="round"/>
    <path d="M 36.56349563598633 132.4627685546875 C 82.9405746459961 134.40615844726562 121.6390151977539 131.40283203125 35.268577575683594 128.3065185546875" stroke-width="3.0" fill="none" stroke="rgb(0, 0, 0)" stroke-opacity="1.0" stroke-linecap="round" stroke-linejoin="round"/>
    <path d="M 103.37460327148438 86.9544448852539 C 93.5949478149414 86.71455383300781 116.47139739990234 80.16873931884766 115.11109924316406 82.10826873779297" stroke-width="3.0" fill="none" stroke="rgb(0, 0, 0)" stroke-opacity="1.0" stroke-linecap="round" stroke-linejoin="round"/>
    <path d="M 156.54501342773438 97.33828735351562 C 176.90028381347656 92.55702209472656 130.54794311523438 78.34143829345703 106.84258270263672 80.58525848388672" stroke-width="3.0" fill="none" stroke="rgb(0, 0, 0)" stroke-opacity="1.0" stroke-linecap="round" stroke-linejoin="round"/>
  </g>
</svg>
