<?xml version="1.0" ?>
<svg xmlns="http://www.w3.org/2000/svg" version="1.1" width="224" height="224">
  <defs/>
  <g>
    <path d="M 73.92195129394531 105.89382934570312 C 119.03077697753906 92.39521026611328 121.29264068603516 133.62515258789062 113.74858093261719 144.9833221435547" stroke-width="3.0" fill="none" stroke="rgb(0, 0, 0)" stroke-opacity="1.0" stroke-linecap="round" stroke-linejoin="round"/>
    <path d="M 67.05997467041016 129.2096710205078 C 95.6073226928711 158.8347930908203 76.04299926757812 155.2664794921875 72.3115234375 128.60105895996094" stroke-width="3.0" fill="none" stroke="rgb(0, 0, 0)" stroke-opacity="1.0" stroke-linecap="round" stroke-linejoin="round"/>
    <path d="M 45.958740234375 127.66914367675781 C -7.97886848449707 108.84270477294922 2.4073214530944824 120.9780044555664 83.7631607055664 126.5183334350586" stroke-width="3.0" fill="none" stroke="rgb(0, 0, 0)" stroke-opacity="1.0" stroke-linecap="round" stroke-linejoin="round"/>
    <path d="M 24.6382999420166 114.16168975830078 C 100.55162811279297 122.41751098632812 84.88992309570312 121.62814331054688 80.98173522949219 120.63422393798828" stroke-width="3.0" fill="none" stroke="rgb(0, 0, 0)" stroke-opacity="1.0" stroke-linecap="round" stroke-linejoin="round"/>
    <path d="M 100.4253921508789 97.3863296508789 C 191.55621337890625 119.88859558105469 179.17201232910156 108.6321029663086 106.33058166503906 96.24198150634766" stroke-width="3.0" fill="none" stroke="rgb(0, 0, 0)" stroke-opacity="1.0" stroke-linecap="round" stroke-linejoin="round"/>
    <path d="M 173.85325622558594 140.58212280273438 C 171.10313415527344 102.32405853271484 203.7891387939453 118.97537231445312 147.01751708984375 105.92567443847656" stroke-width="3.0" fill="none" stroke="rgb(0, 0, 0)" stroke-opacity="1.0" stroke-linecap="round" stroke-linejoin="round"/>
    <path d="M 42.79502868652344 102.21582794189453 C 133.72955322265625 102.06669616699219 125.61811065673828 93.12216186523438 46.50675582885742 97.59989166259766" stroke-width="3.0" fill="none" stroke="rgb(0, 0, 0)" stroke-opacity="1.0" stroke-linecap="round" stroke-linejoin="round"/>
    <path d="M 65.4499740600586 138.93478393554688 C 100.6817855834961 136.1573028564453 85.14031219482422 140.91644287109375 34.22451400756836 129.0604705810547" stroke-width="3.0" fill="none" stroke="rgb(0, 0, 0)" stroke-opacity="1.0" stroke-linecap="round" stroke-linejoin="round"/>
    <path d="M 125.5273208618164 209.73268127441406 C 191.505859375 189.41030883789062 147.0981903076172 200.337158203125 177.14645385742188 194.45286560058594" stroke-width="3.0" fill="none" stroke="rgb(0, 0, 0)" stroke-opacity="1.0" stroke-linecap="round" stroke-linejoin="round"/>
    <path d="M 158.0413818359375 110.80784606933594 C 175.62425231933594 114.47232818603516 181.4954071044922 118.05037689208984 195.1649169921875 112.9168472290039" stroke-width="3.0" fill="none" stroke="rgb(0, 0, 0)" stroke-opacity="1.0" stroke-linecap="round" stroke-linejoin="round"/>
    <path d="M 100.67671966552734 104.93073272705078 C 127.89067077636719 99.45335388183594 116.72811889648438 147.67166137695312 133.30274963378906 144.35855102539062" stroke-width="3.0" fill="none" stroke="rgb(0, 0, 0)" stroke-opacity="1.0" stroke-linecap="round" stroke-linejoin="round"/>
    <path d="M 11.722548484802246 108.20332336425781 C 130.04833984375 103.0396728515625 101.45921325683594 102.43511199951172 27.021976470947266 103.66329956054688" stroke-width="3.0" fill="none" stroke="rgb(0, 0, 0)" stroke-opacity="1.0" stroke-linecap="round" stroke-linejoin="round"/>
    <path d="M 178.26698303222656 110.09965515136719 C 125.9079818725586 100.3429946899414 160.48440551757812 109.51101684570312 127.95386505126953 102.3117446899414" stroke-width="3.0" fill="none" stroke="rgb(0, 0, 0)" stroke-opacity="1.0" stroke-linecap="round" stroke-linejoin="round"/>
    <path d="M 78.79252624511719 207.546875 C 88.17914581298828 209.64013671875 106.49044799804688 213.0244598388672 112.35595703125 209.96432495117188" stroke-width="3.0" fill="none" stroke="rgb(0, 0, 0)" stroke-opacity="1.0" stroke-linecap="round" stroke-linejoin="round"/>
    <path d="M 172.81338500976562 25.315044403076172 C 187.26162719726562 36.10062026977539 227.0753936767578 74.886962890625 214.00979614257812 134.58584594726562" stroke-width="3.0" fill="none" stroke="rgb(0, 0, 0)" stroke-opacity="1.0" stroke-linecap="round" stroke-linejoin="round"/>
    <path d="M 107.39704895019531 80.40823364257812 C 143.23895263671875 78.6155014038086 138.7812957763672 80.38106536865234 128.83648681640625 96.39122009277344" stroke-width="3.0" fill="none" stroke="rgb(0, 0, 0)" stroke-opacity="1.0" stroke-linecap="round" stroke-linejoin="round"/>
    <path d="M 57.22007369995117 23.707426071166992 C 120.30677032470703 -10.806394577026367 166.8583984375 17.464059829711914 187.83522033691406 38.384212493896484" stroke-width="3.0" fill="none" stroke="rgb(0, 0, 0)" stroke-opacity="1.0" stroke-linecap="round" stroke-linejoin="round"/>
    <path d="M 133.392578125 135.53684997558594 C 125.26759338378906 151.33969116210938 146.01431274414062 120.56580352783203 136.2821807861328 140.11322021484375" stroke-width="3.0" fill="none" stroke="rgb(0, 0, 0)" stroke-opacity="1.0" stroke-linecap="round" stroke-linejoin="round"/>
    <path d="M 61.85879898071289 136.2283477783203 C 58.797115325927734 138.0327911376953 72.7339096069336 142.42330932617188 17.23366928100586 125.57707214355469" stroke-width="3.0" fill="none" stroke="rgb(0, 0, 0)" stroke-opacity="1.0" stroke-linecap="round" stroke-linejoin="round"/>
    <path d="M 169.3736114501953 136.7021026611328 C 191.71978759765625 163.1060028076172 180.97402954101562 105.01028442382812 178.71644592285156 129.9826202392578" stroke-width="3.0" fill="none" stroke="rgb(0, 0, 0)" stroke-opacity="1.0" stroke-linecap="round" stroke-linejoin="round"/>
    <path d="M 138.02577209472656 207.1486053466797 C 109.25564575195312 215.0347442626953 100.49168395996094 210.03814697265625 132.51564025878906 208.88406372070312" stroke-width="3.0" fill="none" stroke="rgb(0, 0, 0)" stroke-opacity="1.0" stroke-linecap="round" stroke-linejoin="round"/>
    <path d="M 56.11334991455078 139.43896484375 C 72.28895568847656 126.36737060546875 46.854454040527344 157.13291931152344 34.974822998046875 129.1893310546875" stroke-width="3.0" fill="none" stroke="rgb(0, 0, 0)" stroke-opacity="1.0" stroke-linecap="round" stroke-linejoin="round"/>
    <path d="M 89.01360321044922 90.35092163085938 C 40.88113021850586 89.27188873291016 -10.958909034729004 99.78219604492188 63.77809143066406 95.8363037109375" stroke-width="3.0" fill="none" stroke="rgb(0, 0, 0)" stroke-opacity="1.0" stroke-linecap="round" stroke-linejoin="round"/>
    <path d="M 73.07952117919922 100.15142822265625 C 69.60941314697266 116.94485473632812 92.50142669677734 115.13299560546875 53.26747131347656 113.75003051757812" stroke-width="3.0" fill="none" stroke="rgb(0, 0, 0)" stroke-opacity="1.0" stroke-linecap="round" stroke-linejoin="round"/>
    <path d="M 150.2811737060547 96.97779846191406 C 121.14599609375 80.173583984375 158.88795471191406 102.6365966796875 164.32139587402344 97.38446044921875" stroke-width="3.0" fill="none" stroke="rgb(0, 0, 0)" stroke-opacity="1.0" stroke-linecap="round" stroke-linejoin="round"/>
    <path d="M 94.3266372680664 115.94317626953125 C 72.36788177490234 131.70875549316406 107.88960266113281 168.25306701660156 82.27942657470703 135.77127075195312" stroke-width="3.0" fill="none" stroke="rgb(0, 0, 0)" stroke-opacity="1.0" stroke-linecap="round" stroke-linejoin="round"/>
    <path d="M 25.207420349121094 48.37809753417969 C 16.88520050048828 67.8896484375 2.514846086502075 86.68994903564453 8.430089950561523 125.4747085571289" stroke-width="3.0" fill="none" stroke="rgb(0, 0, 0)" stroke-opacity="1.0" stroke-linecap="round" stroke-linejoin="round"/>
    <path d="M 179.39996337890625 192.82760620117188 C 193.43927001953125 177.0690460205078 217.19927978515625 151.81346130371094 212.72682189941406 121.95642852783203" stroke-width="3.0" fill="none" stroke="rgb(0, 0, 0)" stroke-opacity="1.0" stroke-linecap="round" stroke-linejoin="round"/>
    <path d="M 144.5063934326172 106.031494140625 C 207.95584106445312 120.30055236816406 202.95989990234375 111.31464385986328 147.62913513183594 105.44750213623047" stroke-width="3.0" fill="none" stroke="rgb(0, 0, 0)" stroke-opacity="1.0" stroke-linecap="round" stroke-linejoin="round"/>
    <path d="M 142.58084106445312 92.12262725830078 C 232.28439331054688 117.84004211425781 169.0640106201172 101.8463134765625 171.0883026123047 137.75210571289062" stroke-width="3.0" fill="none" stroke="rgb(0, 0, 0)" stroke-opacity="1.0" stroke-linecap="round" stroke-linejoin="round"/>
    <path d="M 148.3079376220703 96.0887680053711 C 139.8231964111328 91.09809112548828 130.82125854492188 109.07183074951172 139.24954223632812 83.30267333984375" stroke-width="3.0" fill="none" stroke="rgb(0, 0, 0)" stroke-opacity="1.0" stroke-linecap="round" stroke-linejoin="round"/>
    <path d="M 80.98334503173828 146.4417266845703 C 132.73699951171875 168.2690887451172 105.8926773071289 82.2253646850586 85.730224609375 119.46259307861328" stroke-width="3.0" fill="none" stroke="rgb(0, 0, 0)" stroke-opacity="1.0" stroke-linecap="round" stroke-linejoin="round"/>
    <path d="M 182.6329803466797 114.39521026611328 C 202.63272094726562 100.63583374023438 188.32217407226562 128.5599822998047 186.31529235839844 114.03280639648438" stroke-width="3.0" fill="none" stroke="rgb(0, 0, 0)" stroke-opacity="1.0" stroke-linecap="round" stroke-linejoin="round"/>
    <path d="M 136.9262237548828 105.19950103759766 C 103.822021484375 88.16001892089844 184.5684051513672 109.96411895751953 146.18568420410156 97.72358703613281" stroke-width="3.0" fill="none" stroke="rgb(0, 0, 0)" stroke-opacity="1.0" stroke-linecap="round" stroke-linejoin="round"/>
    <path d="M 63.33566665649414 23.137311935424805 C 101.51042938232422 13.05659294128418 86.1598129272461 4.642796516418457 62.709903717041016 19.98154640197754" stroke-width="3.0" fill="none" stroke="rgb(0, 0, 0)" stroke-opacity="1.0" stroke-linecap="round" stroke-linejoin="round"/>
    <path d="M 30.345504760742188 127.58981323242188 C 105.4632568359375 138.5284881591797 89.40502166748047 154.32147216796875 33.279964447021484 142.22850036621094" stroke-width="3.0" fill="none" stroke="rgb(0, 0, 0)" stroke-opacity="1.0" stroke-linecap="round" stroke-linejoin="round"/>
    <path d="M 177.75787353515625 142.13926696777344 C 162.3040771484375 102.13460540771484 202.40451049804688 118.86383056640625 180.08941650390625 143.00807189941406" stroke-width="3.0" fill="none" stroke="rgb(0, 0, 0)" stroke-opacity="1.0" stroke-linecap="round" stroke-linejoin="round"/>
    <path d="M 40.58539962768555 139.58253479003906 C 11.529786109924316 101.81334686279297 22.452775955200195 100.65797424316406 85.94902801513672 108.77364349365234" stroke-width="3.0" fill="none" stroke="rgb(0, 0, 0)" stroke-opacity="1.0" stroke-linecap="round" stroke-linejoin="round"/>
    <path d="M 8.562894821166992 125.84471893310547 C 20.330001831054688 191.51528930664062 76.19456481933594 209.17919921875 93.98059844970703 209.6417236328125" stroke-width="3.0" fill="none" stroke="rgb(0, 0, 0)" stroke-opacity="1.0" stroke-linecap="round" stroke-linejoin="round"/>
    <path d="M 120.30950927734375 128.7029266357422 C 139.42465209960938 151.02159118652344 146.4373779296875 142.37774658203125 117.46025085449219 132.8483428955078" stroke-width="3.0" fill="none" stroke="rgb(0, 0, 0)" stroke-opacity="1.0" stroke-linecap="round" stroke-linejoin="round"/>
    <path d="M 155.0095977783203 106.95826721191406 C 155.9785614013672 106.03382873535156 132.2100372314453 101.18798065185547 189.98158264160156 115.8829574584961" stroke-width="3.0" fill="none" stroke="rgb(0, 0, 0)" stroke-opacity="1.0" stroke-linecap="round" stroke-linejoin="round"/>
    <path d="M 75.85816192626953 106.22579956054688 C 87.62908172607422 124.63262939453125 44.95199203491211 92.50916290283203 48.118202209472656 121.95128631591797" stroke-width="3.0" fill="none" stroke="rgb(0, 0, 0)" stroke-opacity="1.0" stroke-linecap="round" stroke-linejoin="round"/>
    <path d="M 24.272811889648438 107.73182678222656 C 106.4991455078125 118.46194458007812 72.30672454833984 116.7735366821289 92.6383285522461 103.91449737548828" stroke-width="3.0" fill="none" stroke="rgb(0, 0, 0)" stroke-opacity="1.0" stroke-linecap="round" stroke-linejoin="round"/>
    <path d="M 26.461368560791016 46.77534484863281 C 49.504695892333984 27.565641403198242 37.88114547729492 35.360252380371094 56.86460494995117 24.428804397583008" stroke-width="3.0" fill="none" stroke="rgb(0, 0, 0)" stroke-opacity="1.0" stroke-linecap="round" stroke-linejoin="round"/>
    <path d="M 184.0526885986328 135.51820373535156 C 170.6270751953125 134.92477416992188 124.32891082763672 132.02218627929688 119.26272583007812 134.61773681640625" stroke-width="3.0" fill="none" stroke="rgb(0, 0, 0)" stroke-opacity="1.0" stroke-linecap="round" stroke-linejoin="round"/>
    <path d="M 34.209381103515625 131.21751403808594 C 73.53819274902344 129.20071411132812 94.66693878173828 140.0854949951172 29.68305778503418 125.45960235595703" stroke-width="3.0" fill="none" stroke="rgb(0, 0, 0)" stroke-opacity="1.0" stroke-linecap="round" stroke-linejoin="round"/>
    <path d="M 93.05705261230469 90.21656036376953 C 107.6792221069336 79.19685363769531 119.76446533203125 81.96353149414062 122.08615112304688 83.84610748291016" stroke-width="3.0" fill="none" stroke="rgb(0, 0, 0)" stroke-opacity="1.0" stroke-linecap="round" stroke-linejoin="round"/>
    <path d="M 160.6134490966797 100.47909545898438 C 173.32635498046875 92.19744110107422 140.3746337890625 78.24974060058594 130.63467407226562 80.73394012451172" stroke-width="3.0" fill="none" stroke="rgb(0, 0, 0)" stroke-opacity="1.0" stroke-linecap="round" stroke-linejoin="round"/>
  </g>
</svg>
