<?xml version="1.0" ?>
<svg xmlns="http://www.w3.org/2000/svg" version="1.1" width="224" height="224">
  <defs/>
  <g>
    <path d="M 68.31199645996094 108.53572082519531 C 125.20301818847656 95.16754913330078 121.24264526367188 153.05104064941406 98.35100555419922 151.01736450195312" stroke-width="3.0" fill="none" stroke="rgb(0, 0, 0)" stroke-opacity="1.0" stroke-linecap="round" stroke-linejoin="round"/>
    <path d="M 78.49002838134766 122.71610260009766 C 95.42723846435547 160.68931579589844 84.63867950439453 141.86920166015625 79.35780334472656 135.00787353515625" stroke-width="3.0" fill="none" stroke="rgb(0, 0, 0)" stroke-opacity="1.0" stroke-linecap="round" stroke-linejoin="round"/>
    <path d="M 59.530635833740234 132.91366577148438 C 16.742847442626953 159.57029724121094 8.872636795043945 157.52362060546875 72.42072296142578 132.13543701171875" stroke-width="3.0" fill="none" stroke="rgb(0, 0, 0)" stroke-opacity="1.0" stroke-linecap="round" stroke-linejoin="round"/>
    <path d="M 47.2980842590332 126.48670959472656 C 118.13053131103516 128.91458129882812 80.66648864746094 120.75765991210938 87.21626281738281 142.72320556640625" stroke-width="3.0" fill="none" stroke="rgb(0, 0, 0)" stroke-opacity="1.0" stroke-linecap="round" stroke-linejoin="round"/>
    <path d="M 93.77947998046875 87.75784301757812 C 203.77249145507812 90.50584411621094 192.3165740966797 99.26113891601562 106.40735626220703 99.89190673828125" stroke-width="3.0" fill="none" stroke="rgb(0, 0, 0)" stroke-opacity="1.0" stroke-linecap="round" stroke-linejoin="round"/>
    <path d="M 167.72012329101562 139.89035034179688 C 169.15919494628906 98.68513488769531 213.61996459960938 112.7576675415039 143.2942352294922 107.14933013916016" stroke-width="3.0" fill="none" stroke="rgb(0, 0, 0)" stroke-opacity="1.0" stroke-linecap="round" stroke-linejoin="round"/>
    <path d="M 29.663089752197266 100.08023071289062 C 173.66505432128906 98.09307098388672 164.30618286132812 95.03443145751953 57.739837646484375 90.7281723022461" stroke-width="3.0" fill="none" stroke="rgb(0, 0, 0)" stroke-opacity="1.0" stroke-linecap="round" stroke-linejoin="round"/>
    <path d="M 93.27633666992188 140.26385498046875 C 95.52088165283203 131.78684997558594 73.53076934814453 140.11305236816406 41.51422119140625 130.85145568847656" stroke-width="3.0" fill="none" stroke="rgb(0, 0, 0)" stroke-opacity="1.0" stroke-linecap="round" stroke-linejoin="round"/>
    <path d="M 112.01615142822266 215.5903778076172 C 190.5541229248047 197.0048370361328 146.4563446044922 203.2825927734375 180.6463623046875 194.02127075195312" stroke-width="3.0" fill="none" stroke="rgb(0, 0, 0)" stroke-opacity="1.0" stroke-linecap="round" stroke-linejoin="round"/>
    <path d="M 160.23037719726562 110.6749496459961 C 196.68751525878906 115.60295104980469 186.12615966796875 129.68270874023438 192.8732452392578 115.2962646484375" stroke-width="3.0" fill="none" stroke="rgb(0, 0, 0)" stroke-opacity="1.0" stroke-linecap="round" stroke-linejoin="round"/>
    <path d="M 104.34461212158203 104.510498046875 C 133.3119659423828 118.8087158203125 99.63771057128906 150.1587677001953 155.68959045410156 150.9779510498047" stroke-width="3.0" fill="none" stroke="rgb(0, 0, 0)" stroke-opacity="1.0" stroke-linecap="round" stroke-linejoin="round"/>
    <path d="M 40.282012939453125 102.5219955444336 C 123.56053924560547 97.96435546875 74.06146240234375 121.05606842041016 33.671871185302734 107.5934066772461" stroke-width="3.0" fill="none" stroke="rgb(0, 0, 0)" stroke-opacity="1.0" stroke-linecap="round" stroke-linejoin="round"/>
    <path d="M 192.6610870361328 111.67774200439453 C 153.3075408935547 107.34535217285156 169.13780212402344 112.21133422851562 85.4119644165039 102.83097839355469" stroke-width="3.0" fill="none" stroke="rgb(0, 0, 0)" stroke-opacity="1.0" stroke-linecap="round" stroke-linejoin="round"/>
    <path d="M 39.57898712158203 185.43275451660156 C 82.45187377929688 215.2821807861328 116.39165496826172 211.10565185546875 130.18368530273438 205.68678283691406" stroke-width="3.0" fill="none" stroke="rgb(0, 0, 0)" stroke-opacity="1.0" stroke-linecap="round" stroke-linejoin="round"/>
    <path d="M 177.64453125 28.32168197631836 C 188.57904052734375 38.07238006591797 232.3528594970703 78.4931411743164 215.13755798339844 139.4212188720703" stroke-width="3.0" fill="none" stroke="rgb(0, 0, 0)" stroke-opacity="1.0" stroke-linecap="round" stroke-linejoin="round"/>
    <path d="M 92.26721954345703 84.96210479736328 C 139.40777587890625 72.89093780517578 154.0427703857422 91.71630859375 133.36866760253906 92.48413848876953" stroke-width="3.0" fill="none" stroke="rgb(0, 0, 0)" stroke-opacity="1.0" stroke-linecap="round" stroke-linejoin="round"/>
    <path d="M 73.93769836425781 28.25578498840332 C 89.80240631103516 -15.241265296936035 173.2135467529297 11.783865928649902 191.43612670898438 43.31904602050781" stroke-width="3.0" fill="none" stroke="rgb(0, 0, 0)" stroke-opacity="1.0" stroke-linecap="round" stroke-linejoin="round"/>
    <path d="M 114.84776306152344 136.4077606201172 C 157.55740356445312 136.6892547607422 190.91566467285156 137.32540893554688 130.4364471435547 140.64613342285156" stroke-width="3.0" fill="none" stroke="rgb(0, 0, 0)" stroke-opacity="1.0" stroke-linecap="round" stroke-linejoin="round"/>
    <path d="M 73.44471740722656 122.61955261230469 C 71.02216339111328 140.0847930908203 42.03757858276367 153.0193634033203 38.654449462890625 129.6226043701172" stroke-width="3.0" fill="none" stroke="rgb(0, 0, 0)" stroke-opacity="1.0" stroke-linecap="round" stroke-linejoin="round"/>
    <path d="M 172.33596801757812 144.70057678222656 C 193.85023498535156 158.8837890625 183.0045928955078 100.47425079345703 181.3268280029297 134.72813415527344" stroke-width="3.0" fill="none" stroke="rgb(0, 0, 0)" stroke-opacity="1.0" stroke-linecap="round" stroke-linejoin="round"/>
    <path d="M 152.568115234375 196.1563720703125 C 97.3775405883789 191.62289428710938 102.14995574951172 189.49290466308594 148.58839416503906 191.4566650390625" stroke-width="3.0" fill="none" stroke="rgb(0, 0, 0)" stroke-opacity="1.0" stroke-linecap="round" stroke-linejoin="round"/>
    <path d="M 70.95110321044922 109.63839721679688 C 69.8277587890625 138.29116821289062 56.29663848876953 153.46339416503906 43.29733657836914 123.54080963134766" stroke-width="3.0" fill="none" stroke="rgb(0, 0, 0)" stroke-opacity="1.0" stroke-linecap="round" stroke-linejoin="round"/>
    <path d="M 111.56441497802734 88.44656372070312 C 71.16605377197266 77.65257263183594 28.754568099975586 83.02922058105469 96.50794982910156 86.7384033203125" stroke-width="3.0" fill="none" stroke="rgb(0, 0, 0)" stroke-opacity="1.0" stroke-linecap="round" stroke-linejoin="round"/>
    <path d="M 76.37674713134766 109.60421752929688 C 79.71601867675781 105.37771606445312 103.17898559570312 139.3369140625 47.89923858642578 116.90176391601562" stroke-width="3.0" fill="none" stroke="rgb(0, 0, 0)" stroke-opacity="1.0" stroke-linecap="round" stroke-linejoin="round"/>
    <path d="M 151.8993377685547 100.09455871582031 C 85.84575653076172 98.47573852539062 155.7313995361328 101.45397186279297 153.4690704345703 103.58304595947266" stroke-width="3.0" fill="none" stroke="rgb(0, 0, 0)" stroke-opacity="1.0" stroke-linecap="round" stroke-linejoin="round"/>
    <path d="M 94.76314544677734 113.87972259521484 C 73.76429748535156 142.67514038085938 122.68910217285156 155.1383819580078 82.2911605834961 140.96124267578125" stroke-width="3.0" fill="none" stroke="rgb(0, 0, 0)" stroke-opacity="1.0" stroke-linecap="round" stroke-linejoin="round"/>
    <path d="M 25.08426284790039 50.59065628051758 C 19.438573837280273 65.665283203125 -0.5276473760604858 95.27566528320312 9.561909675598145 129.80690002441406" stroke-width="3.0" fill="none" stroke="rgb(0, 0, 0)" stroke-opacity="1.0" stroke-linecap="round" stroke-linejoin="round"/>
    <path d="M 181.82606506347656 192.86611938476562 C 188.14300537109375 178.8949737548828 226.87306213378906 145.52499389648438 216.98533630371094 99.5355224609375" stroke-width="3.0" fill="none" stroke="rgb(0, 0, 0)" stroke-opacity="1.0" stroke-linecap="round" stroke-linejoin="round"/>
    <path d="M 149.4637451171875 112.44036865234375 C 210.88076782226562 127.26677703857422 197.977783203125 113.0920639038086 172.88905334472656 97.11626434326172" stroke-width="3.0" fill="none" stroke="rgb(0, 0, 0)" stroke-opacity="1.0" stroke-linecap="round" stroke-linejoin="round"/>
    <path d="M 132.2833251953125 90.43582153320312 C 254.53070068359375 125.96324157714844 153.29412841796875 94.74107360839844 177.4403076171875 144.6614990234375" stroke-width="3.0" fill="none" stroke="rgb(0, 0, 0)" stroke-opacity="1.0" stroke-linecap="round" stroke-linejoin="round"/>
    <path d="M 145.53219604492188 93.99654388427734 C 132.59703063964844 65.38521575927734 121.43168640136719 119.64457702636719 126.57998657226562 83.47222900390625" stroke-width="3.0" fill="none" stroke="rgb(0, 0, 0)" stroke-opacity="1.0" stroke-linecap="round" stroke-linejoin="round"/>
    <path d="M 75.17400360107422 147.8048553466797 C 139.92481994628906 149.10604858398438 83.46785736083984 88.35787963867188 96.27448272705078 135.88267517089844" stroke-width="3.0" fill="none" stroke="rgb(0, 0, 0)" stroke-opacity="1.0" stroke-linecap="round" stroke-linejoin="round"/>
    <path d="M 185.96920776367188 118.88969421386719 C 184.56204223632812 102.7506332397461 192.43292236328125 131.9467010498047 186.0040283203125 132.6182861328125" stroke-width="3.0" fill="none" stroke="rgb(0, 0, 0)" stroke-opacity="1.0" stroke-linecap="round" stroke-linejoin="round"/>
    <path d="M 137.51510620117188 95.3290786743164 C 107.67435455322266 89.78618621826172 195.33790588378906 101.5724868774414 144.9169158935547 98.47893524169922" stroke-width="3.0" fill="none" stroke="rgb(0, 0, 0)" stroke-opacity="1.0" stroke-linecap="round" stroke-linejoin="round"/>
    <path d="M 62.509727478027344 10.943046569824219 C 99.86498260498047 -10.158698081970215 96.68035888671875 -11.486297607421875 62.20534896850586 9.477859497070312" stroke-width="3.0" fill="none" stroke="rgb(0, 0, 0)" stroke-opacity="1.0" stroke-linecap="round" stroke-linejoin="round"/>
    <path d="M 30.508752822875977 116.16007232666016 C 107.41209411621094 133.51113891601562 107.13363647460938 156.50051879882812 36.70524978637695 148.568115234375" stroke-width="3.0" fill="none" stroke="rgb(0, 0, 0)" stroke-opacity="1.0" stroke-linecap="round" stroke-linejoin="round"/>
    <path d="M 171.70736694335938 143.39773559570312 C 161.84738159179688 101.2814712524414 206.4944305419922 116.82793426513672 181.91542053222656 145.87351989746094" stroke-width="3.0" fill="none" stroke="rgb(0, 0, 0)" stroke-opacity="1.0" stroke-linecap="round" stroke-linejoin="round"/>
    <path d="M 64.56144714355469 139.3013916015625 C 14.864911079406738 120.41184997558594 34.37193298339844 88.7135009765625 78.86833190917969 110.92649841308594" stroke-width="3.0" fill="none" stroke="rgb(0, 0, 0)" stroke-opacity="1.0" stroke-linecap="round" stroke-linejoin="round"/>
    <path d="M 6.664912223815918 120.1032485961914 C 13.133959770202637 189.00816345214844 78.23128509521484 218.2082977294922 112.7894287109375 214.23251342773438" stroke-width="3.0" fill="none" stroke="rgb(0, 0, 0)" stroke-opacity="1.0" stroke-linecap="round" stroke-linejoin="round"/>
    <path d="M 75.39785766601562 151.4826202392578 C 171.42262268066406 154.06396484375 182.3817901611328 146.08872985839844 112.04882049560547 148.40277099609375" stroke-width="3.0" fill="none" stroke="rgb(0, 0, 0)" stroke-opacity="1.0" stroke-linecap="round" stroke-linejoin="round"/>
    <path d="M 168.37774658203125 107.03726196289062 C 137.32933044433594 108.97533416748047 117.37158966064453 103.88968658447266 191.31723022460938 115.81529998779297" stroke-width="3.0" fill="none" stroke="rgb(0, 0, 0)" stroke-opacity="1.0" stroke-linecap="round" stroke-linejoin="round"/>
    <path d="M 57.279605865478516 86.88928985595703 C 37.54290008544922 131.167724609375 41.07270050048828 90.87110900878906 52.20885467529297 118.94171142578125" stroke-width="3.0" fill="none" stroke="rgb(0, 0, 0)" stroke-opacity="1.0" stroke-linecap="round" stroke-linejoin="round"/>
    <path d="M 29.625608444213867 118.89646911621094 C 115.40524291992188 118.52503967285156 71.11852264404297 125.58146667480469 93.66980743408203 106.79598999023438" stroke-width="3.0" fill="none" stroke="rgb(0, 0, 0)" stroke-opacity="1.0" stroke-linecap="round" stroke-linejoin="round"/>
    <path d="M 25.972402572631836 48.83208465576172 C 45.256675720214844 23.55232810974121 42.19622039794922 26.45209312438965 64.79491424560547 9.181790351867676" stroke-width="3.0" fill="none" stroke="rgb(0, 0, 0)" stroke-opacity="1.0" stroke-linecap="round" stroke-linejoin="round"/>
    <path d="M 183.62074279785156 142.12649536132812 C 171.29685974121094 145.24349975585938 74.43853759765625 149.58868408203125 126.96565246582031 136.43234252929688" stroke-width="3.0" fill="none" stroke="rgb(0, 0, 0)" stroke-opacity="1.0" stroke-linecap="round" stroke-linejoin="round"/>
    <path d="M 35.92775344848633 127.1113052368164 C 85.19400787353516 130.96360778808594 122.37945556640625 135.22239685058594 40.61730194091797 130.28750610351562" stroke-width="3.0" fill="none" stroke="rgb(0, 0, 0)" stroke-opacity="1.0" stroke-linecap="round" stroke-linejoin="round"/>
    <path d="M 99.29802703857422 91.4862289428711 C 85.79816436767578 84.0030288696289 110.63980102539062 76.38674926757812 111.97115325927734 82.89995574951172" stroke-width="3.0" fill="none" stroke="rgb(0, 0, 0)" stroke-opacity="1.0" stroke-linecap="round" stroke-linejoin="round"/>
    <path d="M 154.8049774169922 100.20233917236328 C 171.03890991210938 89.5992202758789 129.071533203125 73.27204895019531 106.5208511352539 80.54535675048828" stroke-width="3.0" fill="none" stroke="rgb(0, 0, 0)" stroke-opacity="1.0" stroke-linecap="round" stroke-linejoin="round"/>
  </g>
</svg>
