<?xml version="1.0" ?>
<svg xmlns="http://www.w3.org/2000/svg" version="1.1" width="224" height="224">
  <defs/>
  <g>
    <path d="M 65.14990234375 108.60909271240234 C 125.6063461303711 93.32006072998047 123.96282958984375 148.28306579589844 102.30684661865234 153.69195556640625" stroke-width="3.0" fill="none" stroke="rgb(0, 0, 0)" stroke-opacity="1.0" stroke-linecap="round" stroke-linejoin="round"/>
    <path d="M 75.701416015625 120.75104522705078 C 93.12840270996094 161.73289489746094 77.87572479248047 146.172607421875 77.8697738647461 135.71742248535156" stroke-width="3.0" fill="none" stroke="rgb(0, 0, 0)" stroke-opacity="1.0" stroke-linecap="round" stroke-linejoin="round"/>
    <path d="M 60.36552047729492 132.34152221679688 C 5.3454270362854 119.28338623046875 8.78699779510498 123.62205505371094 83.22313690185547 130.18490600585938" stroke-width="3.0" fill="none" stroke="rgb(0, 0, 0)" stroke-opacity="1.0" stroke-linecap="round" stroke-linejoin="round"/>
    <path d="M 24.661724090576172 120.97352600097656 C 110.88997650146484 128.82810974121094 77.06420135498047 122.74833679199219 84.06534576416016 129.0612030029297" stroke-width="3.0" fill="none" stroke="rgb(0, 0, 0)" stroke-opacity="1.0" stroke-linecap="round" stroke-linejoin="round"/>
    <path d="M 90.0130386352539 98.69145965576172 C 191.2613067626953 116.23406982421875 178.3812255859375 105.81025695800781 101.24497985839844 92.07523345947266" stroke-width="3.0" fill="none" stroke="rgb(0, 0, 0)" stroke-opacity="1.0" stroke-linecap="round" stroke-linejoin="round"/>
    <path d="M 172.60208129882812 145.6748504638672 C 154.32090759277344 104.79804229736328 213.53375244140625 114.19513702392578 146.24746704101562 105.48089599609375" stroke-width="3.0" fill="none" stroke="rgb(0, 0, 0)" stroke-opacity="1.0" stroke-linecap="round" stroke-linejoin="round"/>
    <path d="M 39.02214813232422 100.4949722290039 C 152.1390838623047 81.3877944946289 141.3880157470703 77.48550415039062 37.55535888671875 93.87335968017578" stroke-width="3.0" fill="none" stroke="rgb(0, 0, 0)" stroke-opacity="1.0" stroke-linecap="round" stroke-linejoin="round"/>
    <path d="M 82.00061798095703 140.74893188476562 C 103.3393325805664 129.60084533691406 77.91889953613281 135.76412963867188 40.243133544921875 137.25811767578125" stroke-width="3.0" fill="none" stroke="rgb(0, 0, 0)" stroke-opacity="1.0" stroke-linecap="round" stroke-linejoin="round"/>
    <path d="M 120.60655212402344 210.97232055664062 C 189.31922912597656 195.37510681152344 139.93829345703125 204.61143493652344 177.18418884277344 196.29415893554688" stroke-width="3.0" fill="none" stroke="rgb(0, 0, 0)" stroke-opacity="1.0" stroke-linecap="round" stroke-linejoin="round"/>
    <path d="M 150.87741088867188 110.02053833007812 C 189.8072509765625 108.18457794189453 181.14393615722656 127.35477447509766 190.8523712158203 115.37176513671875" stroke-width="3.0" fill="none" stroke="rgb(0, 0, 0)" stroke-opacity="1.0" stroke-linecap="round" stroke-linejoin="round"/>
    <path d="M 99.30152893066406 105.19561767578125 C 134.59271240234375 116.31253051757812 92.7033920288086 138.88121032714844 144.1754913330078 135.79872131347656" stroke-width="3.0" fill="none" stroke="rgb(0, 0, 0)" stroke-opacity="1.0" stroke-linecap="round" stroke-linejoin="round"/>
    <path d="M 39.71206283569336 103.36744689941406 C 146.3770751953125 99.67723846435547 98.77216339111328 115.79125213623047 30.71444320678711 107.55655670166016" stroke-width="3.0" fill="none" stroke="rgb(0, 0, 0)" stroke-opacity="1.0" stroke-linecap="round" stroke-linejoin="round"/>
    <path d="M 188.81809997558594 115.79154968261719 C 139.53965759277344 107.89353942871094 166.66323852539062 111.29847717285156 99.41233825683594 104.64606475830078" stroke-width="3.0" fill="none" stroke="rgb(0, 0, 0)" stroke-opacity="1.0" stroke-linecap="round" stroke-linejoin="round"/>
    <path d="M 58.748775482177734 195.8307342529297 C 85.80925750732422 214.80206298828125 107.8590087890625 211.09274291992188 123.83736419677734 211.003173828125" stroke-width="3.0" fill="none" stroke="rgb(0, 0, 0)" stroke-opacity="1.0" stroke-linecap="round" stroke-linejoin="round"/>
    <path d="M 175.1822052001953 25.99429702758789 C 187.64817810058594 35.55179214477539 229.73927307128906 82.40361785888672 212.6403350830078 139.34091186523438" stroke-width="3.0" fill="none" stroke="rgb(0, 0, 0)" stroke-opacity="1.0" stroke-linecap="round" stroke-linejoin="round"/>
    <path d="M 98.9043960571289 80.49738311767578 C 140.05300903320312 73.76945495605469 142.98321533203125 82.76671600341797 130.58253479003906 94.50358581542969" stroke-width="3.0" fill="none" stroke="rgb(0, 0, 0)" stroke-opacity="1.0" stroke-linecap="round" stroke-linejoin="round"/>
    <path d="M 74.53169250488281 32.320030212402344 C 89.10619354248047 -18.40679168701172 171.61981201171875 14.53813648223877 189.2758331298828 39.634552001953125" stroke-width="3.0" fill="none" stroke="rgb(0, 0, 0)" stroke-opacity="1.0" stroke-linecap="round" stroke-linejoin="round"/>
    <path d="M 115.36260223388672 132.64952087402344 C 137.83474731445312 155.19081115722656 164.36354064941406 133.44178771972656 130.53054809570312 139.01048278808594" stroke-width="3.0" fill="none" stroke="rgb(0, 0, 0)" stroke-opacity="1.0" stroke-linecap="round" stroke-linejoin="round"/>
    <path d="M 75.04682159423828 127.77862548828125 C 57.31574630737305 138.73306274414062 48.24331283569336 148.49403381347656 39.34414291381836 125.47534942626953" stroke-width="3.0" fill="none" stroke="rgb(0, 0, 0)" stroke-opacity="1.0" stroke-linecap="round" stroke-linejoin="round"/>
    <path d="M 172.59616088867188 144.85923767089844 C 188.33868408203125 160.94534301757812 182.99871826171875 105.54066467285156 178.007080078125 130.81256103515625" stroke-width="3.0" fill="none" stroke="rgb(0, 0, 0)" stroke-opacity="1.0" stroke-linecap="round" stroke-linejoin="round"/>
    <path d="M 136.4586944580078 207.9737091064453 C 104.64989471435547 211.91281127929688 101.00028991699219 212.9114532470703 133.877685546875 209.55760192871094" stroke-width="3.0" fill="none" stroke="rgb(0, 0, 0)" stroke-opacity="1.0" stroke-linecap="round" stroke-linejoin="round"/>
    <path d="M 50.68064498901367 131.0459442138672 C 77.08318328857422 134.42507934570312 44.525901794433594 159.8709716796875 35.32270050048828 126.1800308227539" stroke-width="3.0" fill="none" stroke="rgb(0, 0, 0)" stroke-opacity="1.0" stroke-linecap="round" stroke-linejoin="round"/>
    <path d="M 103.15294647216797 92.22650146484375 C 64.795654296875 94.23255920410156 18.036148071289062 99.61710357666016 93.79622650146484 98.71855926513672" stroke-width="3.0" fill="none" stroke="rgb(0, 0, 0)" stroke-opacity="1.0" stroke-linecap="round" stroke-linejoin="round"/>
    <path d="M 80.13563537597656 107.2568588256836 C 86.92261505126953 100.22134399414062 96.6353530883789 142.4405517578125 42.35115432739258 128.89508056640625" stroke-width="3.0" fill="none" stroke="rgb(0, 0, 0)" stroke-opacity="1.0" stroke-linecap="round" stroke-linejoin="round"/>
    <path d="M 151.2594451904297 95.60248565673828 C 94.48021697998047 86.80919647216797 156.56472778320312 102.73046875 153.65846252441406 97.66056060791016" stroke-width="3.0" fill="none" stroke="rgb(0, 0, 0)" stroke-opacity="1.0" stroke-linecap="round" stroke-linejoin="round"/>
    <path d="M 95.23204803466797 126.5174789428711 C 67.33296966552734 143.9791717529297 114.61801147460938 158.30116271972656 83.08536529541016 145.04750061035156" stroke-width="3.0" fill="none" stroke="rgb(0, 0, 0)" stroke-opacity="1.0" stroke-linecap="round" stroke-linejoin="round"/>
    <path d="M 26.118824005126953 51.37786865234375 C 15.556902885437012 59.62904357910156 0.7362594604492188 101.18108367919922 10.270549774169922 127.97624206542969" stroke-width="3.0" fill="none" stroke="rgb(0, 0, 0)" stroke-opacity="1.0" stroke-linecap="round" stroke-linejoin="round"/>
    <path d="M 178.11863708496094 194.7122039794922 C 190.799072265625 177.64610290527344 222.29840087890625 151.70513916015625 217.69430541992188 104.5571517944336" stroke-width="3.0" fill="none" stroke="rgb(0, 0, 0)" stroke-opacity="1.0" stroke-linecap="round" stroke-linejoin="round"/>
    <path d="M 147.65524291992188 104.92582702636719 C 218.0519256591797 115.1901626586914 202.4086151123047 108.97222137451172 164.802734375 103.0005111694336" stroke-width="3.0" fill="none" stroke="rgb(0, 0, 0)" stroke-opacity="1.0" stroke-linecap="round" stroke-linejoin="round"/>
    <path d="M 134.0058135986328 90.41598510742188 C 252.58950805664062 127.2524642944336 162.8435821533203 98.504638671875 174.55178833007812 143.0842742919922" stroke-width="3.0" fill="none" stroke="rgb(0, 0, 0)" stroke-opacity="1.0" stroke-linecap="round" stroke-linejoin="round"/>
    <path d="M 140.63699340820312 92.45651245117188 C 134.20838928222656 79.2101058959961 119.10395050048828 109.87967681884766 133.82696533203125 81.10816192626953" stroke-width="3.0" fill="none" stroke="rgb(0, 0, 0)" stroke-opacity="1.0" stroke-linecap="round" stroke-linejoin="round"/>
    <path d="M 79.67461395263672 151.03829956054688 C 131.865234375 158.12246704101562 94.9805679321289 80.04225158691406 89.44007110595703 135.01837158203125" stroke-width="3.0" fill="none" stroke="rgb(0, 0, 0)" stroke-opacity="1.0" stroke-linecap="round" stroke-linejoin="round"/>
    <path d="M 188.32479858398438 118.43252563476562 C 197.60633850097656 107.51844024658203 187.0643310546875 137.64535522460938 190.28057861328125 114.92570495605469" stroke-width="3.0" fill="none" stroke="rgb(0, 0, 0)" stroke-opacity="1.0" stroke-linecap="round" stroke-linejoin="round"/>
    <path d="M 139.11544799804688 87.43208312988281 C 108.80365753173828 94.89672088623047 191.3202362060547 101.26187133789062 135.68898010253906 97.68041229248047" stroke-width="3.0" fill="none" stroke="rgb(0, 0, 0)" stroke-opacity="1.0" stroke-linecap="round" stroke-linejoin="round"/>
    <path d="M 54.8024787902832 13.968389511108398 C 94.32671356201172 -11.170292854309082 91.41940307617188 -7.106800079345703 57.44050598144531 12.434080123901367" stroke-width="3.0" fill="none" stroke="rgb(0, 0, 0)" stroke-opacity="1.0" stroke-linecap="round" stroke-linejoin="round"/>
    <path d="M 36.07746124267578 123.82120513916016 C 108.69083404541016 136.51980590820312 96.90069580078125 165.66505432128906 32.103118896484375 142.89833068847656" stroke-width="3.0" fill="none" stroke="rgb(0, 0, 0)" stroke-opacity="1.0" stroke-linecap="round" stroke-linejoin="round"/>
    <path d="M 177.4384002685547 143.25245666503906 C 164.60702514648438 106.0217056274414 201.33697509765625 119.75338745117188 180.64031982421875 144.4598388671875" stroke-width="3.0" fill="none" stroke="rgb(0, 0, 0)" stroke-opacity="1.0" stroke-linecap="round" stroke-linejoin="round"/>
    <path d="M 59.82632064819336 136.3417205810547 C 4.477769374847412 124.8028564453125 25.231496810913086 93.08850860595703 87.47589111328125 108.21332550048828" stroke-width="3.0" fill="none" stroke="rgb(0, 0, 0)" stroke-opacity="1.0" stroke-linecap="round" stroke-linejoin="round"/>
    <path d="M 5.873513221740723 119.06427764892578 C 19.352428436279297 190.30059814453125 76.55815124511719 207.75631713867188 103.1725082397461 211.01075744628906" stroke-width="3.0" fill="none" stroke="rgb(0, 0, 0)" stroke-opacity="1.0" stroke-linecap="round" stroke-linejoin="round"/>
    <path d="M 85.9757080078125 154.88497924804688 C 147.36898803710938 154.65977478027344 149.05677795410156 153.18150329589844 105.01237487792969 155.037841796875" stroke-width="3.0" fill="none" stroke="rgb(0, 0, 0)" stroke-opacity="1.0" stroke-linecap="round" stroke-linejoin="round"/>
    <path d="M 158.1751251220703 109.73892211914062 C 151.79856872558594 105.24249267578125 126.66675567626953 102.48058319091797 191.3072052001953 113.00994873046875" stroke-width="3.0" fill="none" stroke="rgb(0, 0, 0)" stroke-opacity="1.0" stroke-linecap="round" stroke-linejoin="round"/>
    <path d="M 46.602195739746094 102.02986907958984 C 77.36426544189453 121.45719909667969 37.8557243347168 92.12067413330078 49.395286560058594 119.32041931152344" stroke-width="3.0" fill="none" stroke="rgb(0, 0, 0)" stroke-opacity="1.0" stroke-linecap="round" stroke-linejoin="round"/>
    <path d="M 30.489578247070312 112.50797271728516 C 108.09204864501953 120.54283905029297 74.9621353149414 117.61687469482422 98.18274688720703 107.13864135742188" stroke-width="3.0" fill="none" stroke="rgb(0, 0, 0)" stroke-opacity="1.0" stroke-linecap="round" stroke-linejoin="round"/>
    <path d="M 25.682838439941406 49.64137268066406 C 45.37462615966797 24.10511589050293 39.880645751953125 25.401052474975586 63.77900314331055 8.035492897033691" stroke-width="3.0" fill="none" stroke="rgb(0, 0, 0)" stroke-opacity="1.0" stroke-linecap="round" stroke-linejoin="round"/>
    <path d="M 183.80628967285156 140.5059814453125 C 163.08566284179688 141.72866821289062 86.60806274414062 149.15240478515625 122.63319396972656 140.7540740966797" stroke-width="3.0" fill="none" stroke="rgb(0, 0, 0)" stroke-opacity="1.0" stroke-linecap="round" stroke-linejoin="round"/>
    <path d="M 35.723304748535156 136.3953094482422 C 88.33531951904297 138.82986450195312 128.01544189453125 132.41717529296875 43.71377182006836 133.15562438964844" stroke-width="3.0" fill="none" stroke="rgb(0, 0, 0)" stroke-opacity="1.0" stroke-linecap="round" stroke-linejoin="round"/>
    <path d="M 101.9142837524414 83.97306060791016 C 96.78648376464844 84.51531982421875 120.5911865234375 83.69548034667969 124.78203582763672 84.69462585449219" stroke-width="3.0" fill="none" stroke="rgb(0, 0, 0)" stroke-opacity="1.0" stroke-linecap="round" stroke-linejoin="round"/>
    <path d="M 159.92674255371094 95.90853118896484 C 177.52609252929688 92.21598052978516 135.72666931152344 77.28275299072266 113.95159912109375 77.87265014648438" stroke-width="3.0" fill="none" stroke="rgb(0, 0, 0)" stroke-opacity="1.0" stroke-linecap="round" stroke-linejoin="round"/>
  </g>
</svg>
