<?xml version="1.0" ?>
<svg xmlns="http://www.w3.org/2000/svg" version="1.1" width="224" height="224">
  <defs/>
  <g>
    <path d="M 68.6808853149414 111.44926452636719 C 128.4108123779297 82.74507904052734 121.95883178710938 161.54278564453125 84.82947540283203 145.2841339111328" stroke-width="3.0" fill="none" stroke="rgb(0, 0, 0)" stroke-opacity="1.0" stroke-linecap="round" stroke-linejoin="round"/>
    <path d="M 92.5766372680664 119.44652557373047 C 96.28608703613281 172.64979553222656 80.89871978759766 133.02764892578125 70.2168197631836 130.13140869140625" stroke-width="3.0" fill="none" stroke="rgb(0, 0, 0)" stroke-opacity="1.0" stroke-linecap="round" stroke-linejoin="round"/>
    <path d="M 79.27115631103516 137.85443115234375 C 29.77488136291504 131.5644989013672 43.651222229003906 121.46666717529297 78.84767150878906 134.50106811523438" stroke-width="3.0" fill="none" stroke="rgb(0, 0, 0)" stroke-opacity="1.0" stroke-linecap="round" stroke-linejoin="round"/>
    <path d="M 31.53517723083496 127.01473999023438 C 130.786376953125 133.8531036376953 62.4029426574707 122.76513671875 97.96363830566406 140.49388122558594" stroke-width="3.0" fill="none" stroke="rgb(0, 0, 0)" stroke-opacity="1.0" stroke-linecap="round" stroke-linejoin="round"/>
    <path d="M 137.51206970214844 89.64630126953125 C 164.04254150390625 115.38697814941406 189.02645874023438 122.5550537109375 134.96926879882812 91.64503479003906" stroke-width="3.0" fill="none" stroke="rgb(0, 0, 0)" stroke-opacity="1.0" stroke-linecap="round" stroke-linejoin="round"/>
    <path d="M 169.53982543945312 144.71983337402344 C 164.1558074951172 100.47378540039062 215.83082580566406 124.08760833740234 117.46284484863281 117.07392883300781" stroke-width="3.0" fill="none" stroke="rgb(0, 0, 0)" stroke-opacity="1.0" stroke-linecap="round" stroke-linejoin="round"/>
    <path d="M 35.648521423339844 106.84767150878906 C 272.00299072265625 115.37854766845703 136.82180786132812 83.13577270507812 30.51676368713379 96.834228515625" stroke-width="3.0" fill="none" stroke="rgb(0, 0, 0)" stroke-opacity="1.0" stroke-linecap="round" stroke-linejoin="round"/>
    <path d="M 99.88346862792969 129.60939025878906 C 107.58129119873047 97.36843872070312 86.83172607421875 149.664794921875 58.528499603271484 129.28294372558594" stroke-width="3.0" fill="none" stroke="rgb(0, 0, 0)" stroke-opacity="1.0" stroke-linecap="round" stroke-linejoin="round"/>
    <path d="M 120.7996826171875 213.5409698486328 C 163.16445922851562 206.2258758544922 179.86834716796875 196.63404846191406 189.4088592529297 180.88710021972656" stroke-width="3.0" fill="none" stroke="rgb(0, 0, 0)" stroke-opacity="1.0" stroke-linecap="round" stroke-linejoin="round"/>
    <path d="M 137.3673095703125 110.05008697509766 C 220.5279998779297 113.0118637084961 183.37432861328125 129.65821838378906 195.1141815185547 115.9435043334961" stroke-width="3.0" fill="none" stroke="rgb(0, 0, 0)" stroke-opacity="1.0" stroke-linecap="round" stroke-linejoin="round"/>
    <path d="M 110.02189636230469 108.59053802490234 C 135.6448211669922 145.4964141845703 77.01018524169922 138.2582550048828 168.60581970214844 140.4569549560547" stroke-width="3.0" fill="none" stroke="rgb(0, 0, 0)" stroke-opacity="1.0" stroke-linecap="round" stroke-linejoin="round"/>
    <path d="M 30.048063278198242 103.55126190185547 C 124.62986755371094 100.54434204101562 96.96842956542969 118.92233276367188 33.70344924926758 108.83523559570312" stroke-width="3.0" fill="none" stroke="rgb(0, 0, 0)" stroke-opacity="1.0" stroke-linecap="round" stroke-linejoin="round"/>
    <path d="M 179.92022705078125 110.15211486816406 C 136.4205322265625 124.72535705566406 167.66278076171875 103.25914001464844 69.2186508178711 96.96783447265625" stroke-width="3.0" fill="none" stroke="rgb(0, 0, 0)" stroke-opacity="1.0" stroke-linecap="round" stroke-linejoin="round"/>
    <path d="M 21.920289993286133 159.0299530029297 C 66.23944091796875 227.55921936035156 124.77684020996094 214.36351013183594 159.9188690185547 193.28273010253906" stroke-width="3.0" fill="none" stroke="rgb(0, 0, 0)" stroke-opacity="1.0" stroke-linecap="round" stroke-linejoin="round"/>
    <path d="M 179.9295196533203 31.430734634399414 C 188.24545288085938 35.77815246582031 229.02410888671875 84.08949279785156 216.31251525878906 128.66445922851562" stroke-width="3.0" fill="none" stroke="rgb(0, 0, 0)" stroke-opacity="1.0" stroke-linecap="round" stroke-linejoin="round"/>
    <path d="M 94.00859069824219 92.86534118652344 C 124.65740966796875 70.1872787475586 170.37135314941406 95.35328674316406 143.9910888671875 84.69024658203125" stroke-width="3.0" fill="none" stroke="rgb(0, 0, 0)" stroke-opacity="1.0" stroke-linecap="round" stroke-linejoin="round"/>
    <path d="M 74.5725326538086 37.23653793334961 C 78.21321105957031 -14.148612976074219 167.7659912109375 6.980483531951904 192.86520385742188 45.70745086669922" stroke-width="3.0" fill="none" stroke="rgb(0, 0, 0)" stroke-opacity="1.0" stroke-linecap="round" stroke-linejoin="round"/>
    <path d="M 102.916015625 149.37245178222656 C 175.40489196777344 147.60821533203125 216.0618896484375 141.9302978515625 112.24636840820312 136.80580139160156" stroke-width="3.0" fill="none" stroke="rgb(0, 0, 0)" stroke-opacity="1.0" stroke-linecap="round" stroke-linejoin="round"/>
    <path d="M 67.03118896484375 128.8022003173828 C 75.7916488647461 140.71142578125 21.981273651123047 164.2739715576172 55.08884048461914 105.34636688232422" stroke-width="3.0" fill="none" stroke="rgb(0, 0, 0)" stroke-opacity="1.0" stroke-linecap="round" stroke-linejoin="round"/>
    <path d="M 170.79827880859375 146.9949188232422 C 198.25584411621094 147.5712432861328 173.8131866455078 110.44100952148438 180.73175048828125 138.79302978515625" stroke-width="3.0" fill="none" stroke="rgb(0, 0, 0)" stroke-opacity="1.0" stroke-linecap="round" stroke-linejoin="round"/>
    <path d="M 194.41725158691406 176.15065002441406 C 167.58546447753906 195.49794006347656 181.07083129882812 191.21121215820312 160.45628356933594 193.3771514892578" stroke-width="3.0" fill="none" stroke="rgb(0, 0, 0)" stroke-opacity="1.0" stroke-linecap="round" stroke-linejoin="round"/>
    <path d="M 56.30486297607422 131.2799072265625 C 115.95516967773438 132.09901428222656 64.02396392822266 148.97145080566406 41.3160285949707 131.54469299316406" stroke-width="3.0" fill="none" stroke="rgb(0, 0, 0)" stroke-opacity="1.0" stroke-linecap="round" stroke-linejoin="round"/>
    <path d="M 124.77477264404297 87.41096496582031 C 101.22624969482422 84.57740020751953 85.68026733398438 93.96214294433594 119.77838897705078 91.07124328613281" stroke-width="3.0" fill="none" stroke="rgb(0, 0, 0)" stroke-opacity="1.0" stroke-linecap="round" stroke-linejoin="round"/>
    <path d="M 34.2838020324707 107.71294403076172 C 84.37701416015625 122.51317596435547 126.23809051513672 127.04757690429688 32.44761276245117 117.30828857421875" stroke-width="3.0" fill="none" stroke="rgb(0, 0, 0)" stroke-opacity="1.0" stroke-linecap="round" stroke-linejoin="round"/>
    <path d="M 166.7272491455078 127.15055847167969 C 46.218421936035156 130.60398864746094 179.40097045898438 125.59532165527344 171.9978790283203 112.69034576416016" stroke-width="3.0" fill="none" stroke="rgb(0, 0, 0)" stroke-opacity="1.0" stroke-linecap="round" stroke-linejoin="round"/>
    <path d="M 88.14532470703125 105.51297760009766 C 57.24859619140625 146.79989624023438 105.76931762695312 157.06565856933594 80.03463745117188 134.2064971923828" stroke-width="3.0" fill="none" stroke="rgb(0, 0, 0)" stroke-opacity="1.0" stroke-linecap="round" stroke-linejoin="round"/>
    <path d="M 25.772891998291016 49.26658630371094 C 20.056358337402344 74.80686950683594 -1.7796881198883057 93.08174896240234 19.469703674316406 153.59556579589844" stroke-width="3.0" fill="none" stroke="rgb(0, 0, 0)" stroke-opacity="1.0" stroke-linecap="round" stroke-linejoin="round"/>
    <path d="M 176.26837158203125 194.60568237304688 C 189.73477172851562 188.6163787841797 228.79473876953125 137.294677734375 216.6279754638672 97.19892883300781" stroke-width="3.0" fill="none" stroke="rgb(0, 0, 0)" stroke-opacity="1.0" stroke-linecap="round" stroke-linejoin="round"/>
    <path d="M 157.40072631835938 100.69506072998047 C 220.94729614257812 115.19856262207031 202.31759643554688 119.31035614013672 163.52392578125 104.14005279541016" stroke-width="3.0" fill="none" stroke="rgb(0, 0, 0)" stroke-opacity="1.0" stroke-linecap="round" stroke-linejoin="round"/>
    <path d="M 129.7233428955078 111.60763549804688 C 248.7259979248047 125.4778823852539 142.53762817382812 101.19526672363281 177.12709045410156 146.2333221435547" stroke-width="3.0" fill="none" stroke="rgb(0, 0, 0)" stroke-opacity="1.0" stroke-linecap="round" stroke-linejoin="round"/>
    <path d="M 150.4871368408203 111.49589538574219 C 138.70782470703125 50.067806243896484 126.8191909790039 132.0903778076172 136.74485778808594 84.02294158935547" stroke-width="3.0" fill="none" stroke="rgb(0, 0, 0)" stroke-opacity="1.0" stroke-linecap="round" stroke-linejoin="round"/>
    <path d="M 67.00061798095703 132.74168395996094 C 141.79994201660156 167.4651336669922 91.942626953125 72.02908325195312 91.23944854736328 136.3524169921875" stroke-width="3.0" fill="none" stroke="rgb(0, 0, 0)" stroke-opacity="1.0" stroke-linecap="round" stroke-linejoin="round"/>
    <path d="M 165.16006469726562 120.35022735595703 C 176.37051391601562 95.76721954345703 203.6527099609375 143.36605834960938 177.40286254882812 145.03541564941406" stroke-width="3.0" fill="none" stroke="rgb(0, 0, 0)" stroke-opacity="1.0" stroke-linecap="round" stroke-linejoin="round"/>
    <path d="M 67.78874206542969 109.80188751220703 C 76.78022766113281 93.95050811767578 202.1416778564453 114.18018341064453 164.30870056152344 110.89241027832031" stroke-width="3.0" fill="none" stroke="rgb(0, 0, 0)" stroke-opacity="1.0" stroke-linecap="round" stroke-linejoin="round"/>
    <path d="M 55.66630172729492 13.567784309387207 C 93.89021301269531 -18.746868133544922 108.46744537353516 -11.527286529541016 68.4243392944336 4.5680952072143555" stroke-width="3.0" fill="none" stroke="rgb(0, 0, 0)" stroke-opacity="1.0" stroke-linecap="round" stroke-linejoin="round"/>
    <path d="M 32.411155700683594 125.37452697753906 C 118.72025299072266 146.9188690185547 140.36109924316406 158.88706970214844 32.55656433105469 150.26275634765625" stroke-width="3.0" fill="none" stroke="rgb(0, 0, 0)" stroke-opacity="1.0" stroke-linecap="round" stroke-linejoin="round"/>
    <path d="M 181.81846618652344 117.487548828125 C 152.84373474121094 109.26570892333984 205.0489044189453 126.08757019042969 188.1224822998047 125.6169204711914" stroke-width="3.0" fill="none" stroke="rgb(0, 0, 0)" stroke-opacity="1.0" stroke-linecap="round" stroke-linejoin="round"/>
    <path d="M 73.04322052001953 137.7459716796875 C 11.50346565246582 138.88099670410156 26.937824249267578 85.47139739990234 61.18577194213867 112.0310287475586" stroke-width="3.0" fill="none" stroke="rgb(0, 0, 0)" stroke-opacity="1.0" stroke-linecap="round" stroke-linejoin="round"/>
    <path d="M 5.70507287979126 107.69454956054688 C -1.6540449857711792 183.17527770996094 84.14693450927734 229.88059997558594 130.77810668945312 212.8629913330078" stroke-width="3.0" fill="none" stroke="rgb(0, 0, 0)" stroke-opacity="1.0" stroke-linecap="round" stroke-linejoin="round"/>
    <path d="M 62.22732925415039 149.70108032226562 C 182.3695068359375 156.4697265625 238.16427612304688 138.372802734375 107.61430358886719 145.25245666503906" stroke-width="3.0" fill="none" stroke="rgb(0, 0, 0)" stroke-opacity="1.0" stroke-linecap="round" stroke-linejoin="round"/>
    <path d="M 168.57351684570312 104.11096954345703 C 88.4315185546875 113.66265869140625 96.69110870361328 91.65093994140625 192.7388916015625 122.04044342041016" stroke-width="3.0" fill="none" stroke="rgb(0, 0, 0)" stroke-opacity="1.0" stroke-linecap="round" stroke-linejoin="round"/>
    <path d="M 28.444644927978516 96.49494171142578 C 26.54044532775879 124.78062438964844 80.16070556640625 86.27461242675781 69.48494720458984 116.05010223388672" stroke-width="3.0" fill="none" stroke="rgb(0, 0, 0)" stroke-opacity="1.0" stroke-linecap="round" stroke-linejoin="round"/>
    <path d="M 30.78660011291504 121.73994445800781 C 136.86761474609375 121.36878204345703 75.99131774902344 130.1403350830078 99.65412139892578 119.0871353149414" stroke-width="3.0" fill="none" stroke="rgb(0, 0, 0)" stroke-opacity="1.0" stroke-linecap="round" stroke-linejoin="round"/>
    <path d="M 25.86223793029785 49.22351837158203 C 47.42814254760742 21.25631332397461 46.562843322753906 19.15978240966797 70.13865661621094 1.6396995782852173" stroke-width="3.0" fill="none" stroke="rgb(0, 0, 0)" stroke-opacity="1.0" stroke-linecap="round" stroke-linejoin="round"/>
    <path d="M 170.84536743164062 141.39404296875 C 189.50584411621094 137.8678741455078 52.333065032958984 145.31410217285156 132.3715057373047 139.03378295898438" stroke-width="3.0" fill="none" stroke="rgb(0, 0, 0)" stroke-opacity="1.0" stroke-linecap="round" stroke-linejoin="round"/>
    <path d="M 25.08493423461914 123.61688232421875 C 91.51060485839844 128.2811279296875 119.11106872558594 127.20809173583984 50.641849517822266 135.6377410888672" stroke-width="3.0" fill="none" stroke="rgb(0, 0, 0)" stroke-opacity="1.0" stroke-linecap="round" stroke-linejoin="round"/>
    <path d="M 120.83820343017578 84.37975311279297 C 123.95439910888672 102.94334411621094 127.4935531616211 75.74775695800781 126.88751983642578 85.02640533447266" stroke-width="3.0" fill="none" stroke="rgb(0, 0, 0)" stroke-opacity="1.0" stroke-linecap="round" stroke-linejoin="round"/>
    <path d="M 158.45053100585938 100.6314697265625 C 192.36289978027344 93.9811019897461 115.84410095214844 72.2766342163086 105.82731628417969 88.55828094482422" stroke-width="3.0" fill="none" stroke="rgb(0, 0, 0)" stroke-opacity="1.0" stroke-linecap="round" stroke-linejoin="round"/>
  </g>
</svg>
