<?xml version="1.0" ?>
<svg xmlns="http://www.w3.org/2000/svg" version="1.1" width="224" height="224">
  <defs/>
  <g>
    <path d="M 68.88858032226562 112.19723510742188 C 127.63436889648438 83.6388931274414 121.94363403320312 163.71583557128906 86.77593231201172 144.66217041015625" stroke-width="3.0" fill="none" stroke="rgb(0, 0, 0)" stroke-opacity="1.0" stroke-linecap="round" stroke-linejoin="round"/>
    <path d="M 93.15438079833984 118.78817749023438 C 94.77776336669922 173.19760131835938 77.44828033447266 136.28675842285156 67.82508087158203 132.4505615234375" stroke-width="3.0" fill="none" stroke="rgb(0, 0, 0)" stroke-opacity="1.0" stroke-linecap="round" stroke-linejoin="round"/>
    <path d="M 78.25332641601562 140.7460174560547 C 29.166820526123047 132.37522888183594 43.569976806640625 121.70932006835938 78.77997589111328 134.5666961669922" stroke-width="3.0" fill="none" stroke="rgb(0, 0, 0)" stroke-opacity="1.0" stroke-linecap="round" stroke-linejoin="round"/>
    <path d="M 26.801700592041016 128.9598388671875 C 130.93153381347656 136.89207458496094 63.07056427001953 126.42349243164062 98.82662200927734 141.36752319335938" stroke-width="3.0" fill="none" stroke="rgb(0, 0, 0)" stroke-opacity="1.0" stroke-linecap="round" stroke-linejoin="round"/>
    <path d="M 138.07492065429688 89.54127502441406 C 162.84654235839844 116.10700988769531 185.96868896484375 123.9999008178711 136.19500732421875 91.65303039550781" stroke-width="3.0" fill="none" stroke="rgb(0, 0, 0)" stroke-opacity="1.0" stroke-linecap="round" stroke-linejoin="round"/>
    <path d="M 170.5041961669922 144.75013732910156 C 163.4383087158203 100.52581787109375 214.9422149658203 125.2365951538086 118.11865997314453 117.84040069580078" stroke-width="3.0" fill="none" stroke="rgb(0, 0, 0)" stroke-opacity="1.0" stroke-linecap="round" stroke-linejoin="round"/>
    <path d="M 34.86456298828125 105.06425476074219 C 260.232666015625 117.20782470703125 132.01275634765625 80.54483795166016 30.30516815185547 95.79837036132812" stroke-width="3.0" fill="none" stroke="rgb(0, 0, 0)" stroke-opacity="1.0" stroke-linecap="round" stroke-linejoin="round"/>
    <path d="M 98.38345336914062 128.6484375 C 109.10961151123047 97.69356536865234 85.50443267822266 149.9359130859375 57.01312255859375 130.39512634277344" stroke-width="3.0" fill="none" stroke="rgb(0, 0, 0)" stroke-opacity="1.0" stroke-linecap="round" stroke-linejoin="round"/>
    <path d="M 120.77149200439453 216.66958618164062 C 162.5829620361328 206.2269287109375 181.14389038085938 196.1886749267578 190.27804565429688 180.9464569091797" stroke-width="3.0" fill="none" stroke="rgb(0, 0, 0)" stroke-opacity="1.0" stroke-linecap="round" stroke-linejoin="round"/>
    <path d="M 139.94520568847656 106.76661682128906 C 224.3160400390625 106.71610260009766 183.36814880371094 125.38404846191406 196.25843811035156 115.9276123046875" stroke-width="3.0" fill="none" stroke="rgb(0, 0, 0)" stroke-opacity="1.0" stroke-linecap="round" stroke-linejoin="round"/>
    <path d="M 108.22732543945312 109.44232940673828 C 134.50457763671875 141.16790771484375 75.4572525024414 133.15725708007812 169.6019744873047 133.6903076171875" stroke-width="3.0" fill="none" stroke="rgb(0, 0, 0)" stroke-opacity="1.0" stroke-linecap="round" stroke-linejoin="round"/>
    <path d="M 30.051753997802734 102.28736877441406 C 118.10873413085938 96.46383666992188 90.23766326904297 118.83810424804688 30.872238159179688 110.68095397949219" stroke-width="3.0" fill="none" stroke="rgb(0, 0, 0)" stroke-opacity="1.0" stroke-linecap="round" stroke-linejoin="round"/>
    <path d="M 184.68553161621094 111.748779296875 C 139.70989990234375 122.10737609863281 162.73126220703125 110.24365234375 67.21563720703125 95.90534210205078" stroke-width="3.0" fill="none" stroke="rgb(0, 0, 0)" stroke-opacity="1.0" stroke-linecap="round" stroke-linejoin="round"/>
    <path d="M 18.642087936401367 157.80392456054688 C 68.63178253173828 225.42494201660156 129.56031799316406 214.54600524902344 158.5896759033203 194.05316162109375" stroke-width="3.0" fill="none" stroke="rgb(0, 0, 0)" stroke-opacity="1.0" stroke-linecap="round" stroke-linejoin="round"/>
    <path d="M 179.30003356933594 29.855207443237305 C 190.313232421875 32.570770263671875 227.35926818847656 82.60142517089844 216.0928497314453 131.45188903808594" stroke-width="3.0" fill="none" stroke="rgb(0, 0, 0)" stroke-opacity="1.0" stroke-linecap="round" stroke-linejoin="round"/>
    <path d="M 92.13495635986328 90.85933685302734 C 123.08989715576172 71.48147583007812 170.09556579589844 97.8697738647461 143.48757934570312 86.19486999511719" stroke-width="3.0" fill="none" stroke="rgb(0, 0, 0)" stroke-opacity="1.0" stroke-linecap="round" stroke-linejoin="round"/>
    <path d="M 73.6112060546875 36.964412689208984 C 78.59770965576172 -15.272258758544922 166.38714599609375 7.4732770919799805 195.13426208496094 44.59374237060547" stroke-width="3.0" fill="none" stroke="rgb(0, 0, 0)" stroke-opacity="1.0" stroke-linecap="round" stroke-linejoin="round"/>
    <path d="M 103.523193359375 149.27978515625 C 177.69883728027344 146.0720977783203 219.428466796875 141.24261474609375 111.2386474609375 138.63235473632812" stroke-width="3.0" fill="none" stroke="rgb(0, 0, 0)" stroke-opacity="1.0" stroke-linecap="round" stroke-linejoin="round"/>
    <path d="M 71.43164825439453 129.3562774658203 C 79.8573226928711 142.46173095703125 25.218481063842773 163.98768615722656 54.18709945678711 103.69368743896484" stroke-width="3.0" fill="none" stroke="rgb(0, 0, 0)" stroke-opacity="1.0" stroke-linecap="round" stroke-linejoin="round"/>
    <path d="M 172.06130981445312 145.6671600341797 C 199.68319702148438 146.7303009033203 174.84860229492188 107.65796661376953 181.65211486816406 138.567138671875" stroke-width="3.0" fill="none" stroke="rgb(0, 0, 0)" stroke-opacity="1.0" stroke-linecap="round" stroke-linejoin="round"/>
    <path d="M 191.98092651367188 176.12738037109375 C 164.14956665039062 192.2584686279297 181.48638916015625 192.81605529785156 162.1000518798828 193.91329956054688" stroke-width="3.0" fill="none" stroke="rgb(0, 0, 0)" stroke-opacity="1.0" stroke-linecap="round" stroke-linejoin="round"/>
    <path d="M 55.78425979614258 130.41961669921875 C 113.1819839477539 133.60655212402344 64.36707305908203 149.07061767578125 42.41115951538086 131.3062286376953" stroke-width="3.0" fill="none" stroke="rgb(0, 0, 0)" stroke-opacity="1.0" stroke-linecap="round" stroke-linejoin="round"/>
    <path d="M 120.44197845458984 88.46826171875 C 102.0481185913086 84.97419738769531 87.70333099365234 95.80400848388672 116.76554870605469 89.35823822021484" stroke-width="3.0" fill="none" stroke="rgb(0, 0, 0)" stroke-opacity="1.0" stroke-linecap="round" stroke-linejoin="round"/>
    <path d="M 32.78443908691406 105.71882629394531 C 86.53180694580078 121.07524108886719 129.1947479248047 123.44467163085938 33.10786437988281 117.95835876464844" stroke-width="3.0" fill="none" stroke="rgb(0, 0, 0)" stroke-opacity="1.0" stroke-linecap="round" stroke-linejoin="round"/>
    <path d="M 168.47401428222656 124.1046371459961 C 45.46980285644531 125.43805694580078 178.50372314453125 123.68585968017578 172.03138732910156 112.0694580078125" stroke-width="3.0" fill="none" stroke="rgb(0, 0, 0)" stroke-opacity="1.0" stroke-linecap="round" stroke-linejoin="round"/>
    <path d="M 90.1259994506836 106.17281341552734 C 59.9157600402832 145.65098571777344 107.79570007324219 156.1957244873047 78.86632537841797 135.47955322265625" stroke-width="3.0" fill="none" stroke="rgb(0, 0, 0)" stroke-opacity="1.0" stroke-linecap="round" stroke-linejoin="round"/>
    <path d="M 25.06875991821289 49.84739685058594 C 16.97385025024414 71.01347351074219 -4.558375358581543 96.47101593017578 21.081031799316406 151.93865966796875" stroke-width="3.0" fill="none" stroke="rgb(0, 0, 0)" stroke-opacity="1.0" stroke-linecap="round" stroke-linejoin="round"/>
    <path d="M 175.10057067871094 193.95306396484375 C 188.5681915283203 186.48867797851562 228.4166259765625 138.74069213867188 215.91648864746094 94.62911987304688" stroke-width="3.0" fill="none" stroke="rgb(0, 0, 0)" stroke-opacity="1.0" stroke-linecap="round" stroke-linejoin="round"/>
    <path d="M 158.98170471191406 98.45884704589844 C 226.5343780517578 113.71866607666016 199.7142791748047 123.16749572753906 163.90455627441406 106.86335754394531" stroke-width="3.0" fill="none" stroke="rgb(0, 0, 0)" stroke-opacity="1.0" stroke-linecap="round" stroke-linejoin="round"/>
    <path d="M 132.49830627441406 109.19833374023438 C 248.44253540039062 122.90762329101562 141.14361572265625 100.78794860839844 175.97901916503906 146.7330322265625" stroke-width="3.0" fill="none" stroke="rgb(0, 0, 0)" stroke-opacity="1.0" stroke-linecap="round" stroke-linejoin="round"/>
    <path d="M 147.2400360107422 112.10075378417969 C 137.30006408691406 51.87311553955078 129.03570556640625 133.9594268798828 135.43211364746094 87.98173522949219" stroke-width="3.0" fill="none" stroke="rgb(0, 0, 0)" stroke-opacity="1.0" stroke-linecap="round" stroke-linejoin="round"/>
    <path d="M 66.31375122070312 134.15008544921875 C 141.54115295410156 168.4176483154297 92.11749267578125 72.3485107421875 90.68745422363281 134.85655212402344" stroke-width="3.0" fill="none" stroke="rgb(0, 0, 0)" stroke-opacity="1.0" stroke-linecap="round" stroke-linejoin="round"/>
    <path d="M 167.42015075683594 117.60881042480469 C 176.49732971191406 95.66959381103516 205.7040252685547 144.3278350830078 180.14584350585938 146.33653259277344" stroke-width="3.0" fill="none" stroke="rgb(0, 0, 0)" stroke-opacity="1.0" stroke-linecap="round" stroke-linejoin="round"/>
    <path d="M 66.34004974365234 109.85069274902344 C 76.5313491821289 97.38513946533203 201.7187042236328 116.12443542480469 163.86082458496094 111.87472534179688" stroke-width="3.0" fill="none" stroke="rgb(0, 0, 0)" stroke-opacity="1.0" stroke-linecap="round" stroke-linejoin="round"/>
    <path d="M 54.46451187133789 12.871674537658691 C 92.44446563720703 -20.08193016052246 108.1807632446289 -11.407679557800293 64.68790435791016 3.5768582820892334" stroke-width="3.0" fill="none" stroke="rgb(0, 0, 0)" stroke-opacity="1.0" stroke-linecap="round" stroke-linejoin="round"/>
    <path d="M 31.678911209106445 126.30260467529297 C 116.6771469116211 150.4017333984375 139.73818969726562 161.55972290039062 33.4581298828125 145.45050048828125" stroke-width="3.0" fill="none" stroke="rgb(0, 0, 0)" stroke-opacity="1.0" stroke-linecap="round" stroke-linejoin="round"/>
    <path d="M 181.48695373535156 118.66170501708984 C 152.8019561767578 109.46073913574219 205.13003540039062 125.27632141113281 187.92344665527344 125.78753662109375" stroke-width="3.0" fill="none" stroke="rgb(0, 0, 0)" stroke-opacity="1.0" stroke-linecap="round" stroke-linejoin="round"/>
    <path d="M 73.78093719482422 137.40663146972656 C 12.464042663574219 136.0558319091797 26.031110763549805 83.50324249267578 60.778987884521484 106.84579467773438" stroke-width="3.0" fill="none" stroke="rgb(0, 0, 0)" stroke-opacity="1.0" stroke-linecap="round" stroke-linejoin="round"/>
    <path d="M 7.015873432159424 107.97349548339844 C -0.257659912109375 181.91152954101562 85.22586822509766 227.9500274658203 132.0424346923828 211.93600463867188" stroke-width="3.0" fill="none" stroke="rgb(0, 0, 0)" stroke-opacity="1.0" stroke-linecap="round" stroke-linejoin="round"/>
    <path d="M 61.05909729003906 150.5801239013672 C 181.3426971435547 155.33729553222656 236.0966796875 135.09512329101562 107.35740661621094 147.1436767578125" stroke-width="3.0" fill="none" stroke="rgb(0, 0, 0)" stroke-opacity="1.0" stroke-linecap="round" stroke-linejoin="round"/>
    <path d="M 168.72935485839844 104.08159637451172 C 88.23995971679688 113.51759338378906 93.94644165039062 94.1109390258789 194.48902893066406 120.24703979492188" stroke-width="3.0" fill="none" stroke="rgb(0, 0, 0)" stroke-opacity="1.0" stroke-linecap="round" stroke-linejoin="round"/>
    <path d="M 29.074783325195312 98.75018310546875 C 26.717634201049805 129.13970947265625 76.63672637939453 85.27388000488281 67.08181762695312 115.11124420166016" stroke-width="3.0" fill="none" stroke="rgb(0, 0, 0)" stroke-opacity="1.0" stroke-linecap="round" stroke-linejoin="round"/>
    <path d="M 27.945098876953125 124.84972381591797 C 138.5999298095703 121.53089904785156 79.48188781738281 129.4046630859375 99.0290298461914 115.61611938476562" stroke-width="3.0" fill="none" stroke="rgb(0, 0, 0)" stroke-opacity="1.0" stroke-linecap="round" stroke-linejoin="round"/>
    <path d="M 25.391263961791992 47.40996170043945 C 45.47636032104492 19.205900192260742 46.592777252197266 19.741456985473633 69.98748779296875 1.575245976448059" stroke-width="3.0" fill="none" stroke="rgb(0, 0, 0)" stroke-opacity="1.0" stroke-linecap="round" stroke-linejoin="round"/>
    <path d="M 170.6355743408203 142.08657836914062 C 190.51963806152344 139.91647338867188 54.27782440185547 148.1141357421875 132.62905883789062 139.9590606689453" stroke-width="3.0" fill="none" stroke="rgb(0, 0, 0)" stroke-opacity="1.0" stroke-linecap="round" stroke-linejoin="round"/>
    <path d="M 25.758764266967773 126.40911865234375 C 91.39627838134766 129.4055633544922 120.50328826904297 130.72622680664062 52.299110412597656 135.52867126464844" stroke-width="3.0" fill="none" stroke="rgb(0, 0, 0)" stroke-opacity="1.0" stroke-linecap="round" stroke-linejoin="round"/>
    <path d="M 117.9513168334961 85.56197357177734 C 121.27296447753906 102.83402252197266 125.65093231201172 78.95936584472656 118.4375 85.40144348144531" stroke-width="3.0" fill="none" stroke="rgb(0, 0, 0)" stroke-opacity="1.0" stroke-linecap="round" stroke-linejoin="round"/>
    <path d="M 156.78802490234375 100.13422393798828 C 192.37850952148438 92.54560852050781 116.19435119628906 73.83575439453125 107.5106201171875 89.79570007324219" stroke-width="3.0" fill="none" stroke="rgb(0, 0, 0)" stroke-opacity="1.0" stroke-linecap="round" stroke-linejoin="round"/>
  </g>
</svg>
