<?xml version="1.0" ?>
<svg xmlns="http://www.w3.org/2000/svg" version="1.1" width="224" height="224">
  <defs/>
  <g>
    <path d="M 118.8222427368164 126.10919952392578 C 118.7195053100586 114.984619140625 115.83318328857422 118.83108520507812 121.89249420166016 124.74337005615234" stroke-width="3.0" fill="none" stroke="rgb(0, 0, 0)" stroke-opacity="1.0" stroke-linecap="round" stroke-linejoin="round"/>
    <path d="M 70.0598373413086 130.6376953125 C 71.29590606689453 119.95848846435547 64.2776107788086 130.01344299316406 74.01212310791016 126.7337417602539" stroke-width="3.0" fill="none" stroke="rgb(0, 0, 0)" stroke-opacity="1.0" stroke-linecap="round" stroke-linejoin="round"/>
    <path d="M 41.77909851074219 114.53804779052734 C 39.372894287109375 117.19369506835938 45.81996154785156 118.17805480957031 52.809818267822266 125.69220733642578" stroke-width="3.0" fill="none" stroke="rgb(0, 0, 0)" stroke-opacity="1.0" stroke-linecap="round" stroke-linejoin="round"/>
    <path d="M 59.24720764160156 130.58197021484375 C 68.29292297363281 119.0538330078125 64.67337036132812 125.64530944824219 67.16876220703125 129.3932342529297" stroke-width="3.0" fill="none" stroke="rgb(0, 0, 0)" stroke-opacity="1.0" stroke-linecap="round" stroke-linejoin="round"/>
    <path d="M 133.26341247558594 109.8781967163086 C 134.43350219726562 110.31517028808594 130.985107421875 108.54524230957031 132.99221801757812 109.28079986572266" stroke-width="3.0" fill="none" stroke="rgb(0, 0, 0)" stroke-opacity="1.0" stroke-linecap="round" stroke-linejoin="round"/>
    <path d="M 151.5825958251953 116.60496520996094 C 155.2342987060547 125.3205337524414 156.3523406982422 136.35775756835938 148.19686889648438 125.23888397216797" stroke-width="3.0" fill="none" stroke="rgb(0, 0, 0)" stroke-opacity="1.0" stroke-linecap="round" stroke-linejoin="round"/>
    <path d="M 65.09383392333984 100.4517822265625 C 75.99268341064453 104.59781646728516 79.96016693115234 117.24787902832031 65.34794616699219 114.43440246582031" stroke-width="3.0" fill="none" stroke="rgb(0, 0, 0)" stroke-opacity="1.0" stroke-linecap="round" stroke-linejoin="round"/>
    <path d="M 60.75849914550781 143.59654235839844 C 62.62334442138672 136.26707458496094 61.210289001464844 147.6099090576172 51.548606872558594 149.13446044921875" stroke-width="3.0" fill="none" stroke="rgb(0, 0, 0)" stroke-opacity="1.0" stroke-linecap="round" stroke-linejoin="round"/>
    <path d="M 162.3750457763672 196.24066162109375 C 157.3341522216797 201.0083770751953 162.47335815429688 194.9244384765625 165.04397583007812 198.15541076660156" stroke-width="3.0" fill="none" stroke="rgb(0, 0, 0)" stroke-opacity="1.0" stroke-linecap="round" stroke-linejoin="round"/>
    <path d="M 167.28561401367188 104.86872100830078 C 173.4424591064453 119.00080871582031 167.30142211914062 116.99051666259766 187.2982177734375 117.23036193847656" stroke-width="3.0" fill="none" stroke="rgb(0, 0, 0)" stroke-opacity="1.0" stroke-linecap="round" stroke-linejoin="round"/>
    <path d="M 127.52983856201172 130.257080078125 C 128.98873901367188 129.25210571289062 136.7669219970703 146.5778045654297 143.1051788330078 133.87278747558594" stroke-width="3.0" fill="none" stroke="rgb(0, 0, 0)" stroke-opacity="1.0" stroke-linecap="round" stroke-linejoin="round"/>
    <path d="M 56.92134475708008 112.4528579711914 C 71.57500457763672 108.22657775878906 65.24562072753906 125.796142578125 65.07807159423828 109.78521728515625" stroke-width="3.0" fill="none" stroke="rgb(0, 0, 0)" stroke-opacity="1.0" stroke-linecap="round" stroke-linejoin="round"/>
    <path d="M 150.0919647216797 118.98162078857422 C 152.5057373046875 122.94986724853516 147.88844299316406 123.74791717529297 148.719970703125 114.40083312988281" stroke-width="3.0" fill="none" stroke="rgb(0, 0, 0)" stroke-opacity="1.0" stroke-linecap="round" stroke-linejoin="round"/>
    <path d="M 115.63296508789062 169.31698608398438 C 120.34867095947266 173.14695739746094 118.88146209716797 172.8644256591797 119.31474304199219 175.60630798339844" stroke-width="3.0" fill="none" stroke="rgb(0, 0, 0)" stroke-opacity="1.0" stroke-linecap="round" stroke-linejoin="round"/>
    <path d="M 187.48399353027344 38.2709846496582 C 193.39437866210938 47.18731689453125 195.02464294433594 52.51322937011719 196.3469696044922 69.58534240722656" stroke-width="3.0" fill="none" stroke="rgb(0, 0, 0)" stroke-opacity="1.0" stroke-linecap="round" stroke-linejoin="round"/>
    <path d="M 120.76654815673828 75.87324523925781 C 142.84506225585938 80.27252197265625 144.9127960205078 84.18248748779297 140.1266632080078 96.66010284423828" stroke-width="3.0" fill="none" stroke="rgb(0, 0, 0)" stroke-opacity="1.0" stroke-linecap="round" stroke-linejoin="round"/>
    <path d="M 144.09307861328125 14.913623809814453 C 161.43385314941406 20.48639488220215 154.7462921142578 17.312828063964844 161.2420654296875 21.903608322143555" stroke-width="3.0" fill="none" stroke="rgb(0, 0, 0)" stroke-opacity="1.0" stroke-linecap="round" stroke-linejoin="round"/>
    <path d="M 150.5191192626953 138.9110565185547 C 146.5523223876953 144.4051971435547 145.3115997314453 143.3658905029297 149.98680114746094 139.7518768310547" stroke-width="3.0" fill="none" stroke="rgb(0, 0, 0)" stroke-opacity="1.0" stroke-linecap="round" stroke-linejoin="round"/>
    <path d="M 60.88706588745117 133.88148498535156 C 58.659912109375 130.3563690185547 53.38188552856445 129.69444274902344 47.34873962402344 122.14473724365234" stroke-width="3.0" fill="none" stroke="rgb(0, 0, 0)" stroke-opacity="1.0" stroke-linecap="round" stroke-linejoin="round"/>
    <path d="M 174.98388671875 143.06298828125 C 180.7765350341797 143.2247772216797 189.24014282226562 135.50711059570312 173.87367248535156 129.0391845703125" stroke-width="3.0" fill="none" stroke="rgb(0, 0, 0)" stroke-opacity="1.0" stroke-linecap="round" stroke-linejoin="round"/>
    <path d="M 118.4010009765625 208.89657592773438 C 127.18955993652344 205.43406677246094 134.9870147705078 199.77542114257812 124.51265716552734 206.09669494628906" stroke-width="3.0" fill="none" stroke="rgb(0, 0, 0)" stroke-opacity="1.0" stroke-linecap="round" stroke-linejoin="round"/>
    <path d="M 46.44784927368164 139.681640625 C 48.5179443359375 129.6942901611328 46.1038932800293 118.79989624023438 42.950191497802734 137.5671844482422" stroke-width="3.0" fill="none" stroke="rgb(0, 0, 0)" stroke-opacity="1.0" stroke-linecap="round" stroke-linejoin="round"/>
    <path d="M 61.1693229675293 117.44866180419922 C 63.29991149902344 112.04469299316406 48.42127990722656 111.2598876953125 52.92641067504883 112.6903076171875" stroke-width="3.0" fill="none" stroke="rgb(0, 0, 0)" stroke-opacity="1.0" stroke-linecap="round" stroke-linejoin="round"/>
    <path d="M 82.1079330444336 137.8597412109375 C 77.6131591796875 114.00127410888672 72.24187469482422 115.31405639648438 57.43940734863281 134.0810089111328" stroke-width="3.0" fill="none" stroke="rgb(0, 0, 0)" stroke-opacity="1.0" stroke-linecap="round" stroke-linejoin="round"/>
    <path d="M 147.9677734375 90.04231262207031 C 140.51510620117188 87.107666015625 167.28871154785156 97.42383575439453 142.25917053222656 94.24971008300781" stroke-width="3.0" fill="none" stroke="rgb(0, 0, 0)" stroke-opacity="1.0" stroke-linecap="round" stroke-linejoin="round"/>
    <path d="M 82.11624145507812 114.74910736083984 C 74.19352722167969 120.6233139038086 82.6759262084961 141.46641540527344 74.54850006103516 131.82379150390625" stroke-width="3.0" fill="none" stroke="rgb(0, 0, 0)" stroke-opacity="1.0" stroke-linecap="round" stroke-linejoin="round"/>
    <path d="M 7.885976314544678 84.00902557373047 C 15.175069808959961 90.95801544189453 12.282394409179688 90.65823364257812 13.409516334533691 91.15171813964844" stroke-width="3.0" fill="none" stroke="rgb(0, 0, 0)" stroke-opacity="1.0" stroke-linecap="round" stroke-linejoin="round"/>
    <path d="M 182.0152130126953 187.71942138671875 C 177.808349609375 182.48390197753906 170.8740692138672 182.45472717285156 187.16464233398438 183.45289611816406" stroke-width="3.0" fill="none" stroke="rgb(0, 0, 0)" stroke-opacity="1.0" stroke-linecap="round" stroke-linejoin="round"/>
    <path d="M 170.0664520263672 109.31903839111328 C 178.03163146972656 121.38622283935547 181.53677368164062 111.58091735839844 168.95034790039062 105.38496398925781" stroke-width="3.0" fill="none" stroke="rgb(0, 0, 0)" stroke-opacity="1.0" stroke-linecap="round" stroke-linejoin="round"/>
    <path d="M 168.9123077392578 113.4658432006836 C 170.51602172851562 120.34434509277344 161.79537963867188 117.47476196289062 168.68943786621094 124.39873504638672" stroke-width="3.0" fill="none" stroke="rgb(0, 0, 0)" stroke-opacity="1.0" stroke-linecap="round" stroke-linejoin="round"/>
    <path d="M 140.9340057373047 104.01814270019531 C 146.58657836914062 102.47966003417969 141.3455810546875 102.85295867919922 132.7592010498047 99.41120910644531" stroke-width="3.0" fill="none" stroke="rgb(0, 0, 0)" stroke-opacity="1.0" stroke-linecap="round" stroke-linejoin="round"/>
    <path d="M 98.50738525390625 128.98350524902344 C 104.4233627319336 123.45854187011719 102.58391571044922 122.9286117553711 95.80793762207031 119.17996978759766" stroke-width="3.0" fill="none" stroke="rgb(0, 0, 0)" stroke-opacity="1.0" stroke-linecap="round" stroke-linejoin="round"/>
    <path d="M 189.70188903808594 123.70470428466797 C 193.256103515625 115.94104766845703 200.6929931640625 116.21083068847656 191.4634246826172 115.94903564453125" stroke-width="3.0" fill="none" stroke="rgb(0, 0, 0)" stroke-opacity="1.0" stroke-linecap="round" stroke-linejoin="round"/>
    <path d="M 157.5740966796875 120.15462493896484 C 157.20408630371094 118.4551010131836 149.5045166015625 114.97122192382812 145.32752990722656 106.15579986572266" stroke-width="3.0" fill="none" stroke="rgb(0, 0, 0)" stroke-opacity="1.0" stroke-linecap="round" stroke-linejoin="round"/>
    <path d="M 72.4141616821289 18.40776824951172 C 91.93364715576172 19.063894271850586 88.18660736083984 16.53297996520996 72.5139389038086 22.461721420288086" stroke-width="3.0" fill="none" stroke="rgb(0, 0, 0)" stroke-opacity="1.0" stroke-linecap="round" stroke-linejoin="round"/>
    <path d="M 55.939598083496094 124.75593566894531 C 59.669551849365234 127.2349853515625 51.495025634765625 128.10452270507812 49.08892822265625 133.7010040283203" stroke-width="3.0" fill="none" stroke="rgb(0, 0, 0)" stroke-opacity="1.0" stroke-linecap="round" stroke-linejoin="round"/>
    <path d="M 169.3698272705078 117.60665893554688 C 176.27259826660156 107.5540771484375 186.07955932617188 113.33828735351562 184.57994079589844 127.74151611328125" stroke-width="3.0" fill="none" stroke="rgb(0, 0, 0)" stroke-opacity="1.0" stroke-linecap="round" stroke-linejoin="round"/>
    <path d="M 47.07991027832031 131.7662811279297 C 49.522647857666016 114.99034881591797 46.10541534423828 109.64231872558594 54.258148193359375 126.219970703125" stroke-width="3.0" fill="none" stroke="rgb(0, 0, 0)" stroke-opacity="1.0" stroke-linecap="round" stroke-linejoin="round"/>
    <path d="M 110.5983657836914 174.75941467285156 C 102.70208740234375 173.90994262695312 108.79737091064453 177.41908264160156 111.16463470458984 174.72683715820312" stroke-width="3.0" fill="none" stroke="rgb(0, 0, 0)" stroke-opacity="1.0" stroke-linecap="round" stroke-linejoin="round"/>
    <path d="M 119.36651611328125 125.16004943847656 C 123.26039123535156 125.65182495117188 126.5355224609375 125.89321899414062 117.89080810546875 134.39163208007812" stroke-width="3.0" fill="none" stroke="rgb(0, 0, 0)" stroke-opacity="1.0" stroke-linecap="round" stroke-linejoin="round"/>
    <path d="M 159.58226013183594 107.6258316040039 C 162.80409240722656 116.45994567871094 164.246337890625 103.26725769042969 161.91427612304688 116.38237762451172" stroke-width="3.0" fill="none" stroke="rgb(0, 0, 0)" stroke-opacity="1.0" stroke-linecap="round" stroke-linejoin="round"/>
    <path d="M 69.79644775390625 114.56867980957031 C 70.75886535644531 113.22032165527344 58.34416961669922 109.33922576904297 55.40302658081055 112.76538848876953" stroke-width="3.0" fill="none" stroke="rgb(0, 0, 0)" stroke-opacity="1.0" stroke-linecap="round" stroke-linejoin="round"/>
    <path d="M 64.63114929199219 129.0928955078125 C 66.46019744873047 131.3691864013672 72.13237762451172 118.39804077148438 75.23638916015625 126.95024108886719" stroke-width="3.0" fill="none" stroke="rgb(0, 0, 0)" stroke-opacity="1.0" stroke-linecap="round" stroke-linejoin="round"/>
    <path d="M 41.89582824707031 39.83332443237305 C 45.358436584472656 38.967708587646484 51.90809631347656 46.407676696777344 52.09093475341797 44.60597610473633" stroke-width="3.0" fill="none" stroke="rgb(0, 0, 0)" stroke-opacity="1.0" stroke-linecap="round" stroke-linejoin="round"/>
    <path d="M 164.71383666992188 130.8611297607422 C 148.9184112548828 129.7570343017578 148.34693908691406 129.2453155517578 137.40989685058594 132.22511291503906" stroke-width="3.0" fill="none" stroke="rgb(0, 0, 0)" stroke-opacity="1.0" stroke-linecap="round" stroke-linejoin="round"/>
    <path d="M 30.048797607421875 131.26991271972656 C 25.93312644958496 127.73658752441406 37.56679153442383 123.9520034790039 27.736818313598633 127.16094970703125" stroke-width="3.0" fill="none" stroke="rgb(0, 0, 0)" stroke-opacity="1.0" stroke-linecap="round" stroke-linejoin="round"/>
    <path d="M 102.56580352783203 97.78447723388672 C 104.28412628173828 89.96751403808594 107.63526916503906 92.54999542236328 108.80677795410156 76.83497619628906" stroke-width="3.0" fill="none" stroke="rgb(0, 0, 0)" stroke-opacity="1.0" stroke-linecap="round" stroke-linejoin="round"/>
    <path d="M 168.686279296875 99.65896606445312 C 154.3885040283203 92.96412658691406 151.81285095214844 90.1606674194336 148.0834197998047 91.77828216552734" stroke-width="3.0" fill="none" stroke="rgb(0, 0, 0)" stroke-opacity="1.0" stroke-linecap="round" stroke-linejoin="round"/>
  </g>
</svg>
