<?xml version="1.0" ?>
<svg xmlns="http://www.w3.org/2000/svg" version="1.1" width="224" height="224">
  <defs/>
  <g>
    <path d="M 79.01200866699219 114.00846099853516 C 126.75624084472656 80.80281829833984 122.91161346435547 168.1734619140625 86.26436614990234 145.9466552734375" stroke-width="3.0" fill="none" stroke="rgb(0, 0, 0)" stroke-opacity="1.0" stroke-linecap="round" stroke-linejoin="round"/>
    <path d="M 90.58038330078125 126.20404815673828 C 109.73030090332031 167.40667724609375 86.3276138305664 132.32571411132812 68.50994110107422 131.7004852294922" stroke-width="3.0" fill="none" stroke="rgb(0, 0, 0)" stroke-opacity="1.0" stroke-linecap="round" stroke-linejoin="round"/>
    <path d="M 73.88084411621094 141.8866424560547 C 49.92009353637695 143.4149169921875 60.9761848449707 147.08389282226562 80.89230346679688 141.55592346191406" stroke-width="3.0" fill="none" stroke="rgb(0, 0, 0)" stroke-opacity="1.0" stroke-linecap="round" stroke-linejoin="round"/>
    <path d="M 30.255756378173828 123.57096099853516 C 138.01608276367188 127.06409454345703 70.20112609863281 135.62330627441406 100.16539764404297 141.94703674316406" stroke-width="3.0" fill="none" stroke="rgb(0, 0, 0)" stroke-opacity="1.0" stroke-linecap="round" stroke-linejoin="round"/>
    <path d="M 136.06507873535156 83.31713104248047 C 182.57632446289062 107.37750244140625 193.7827911376953 122.36205291748047 149.83078002929688 90.43504333496094" stroke-width="3.0" fill="none" stroke="rgb(0, 0, 0)" stroke-opacity="1.0" stroke-linecap="round" stroke-linejoin="round"/>
    <path d="M 171.3775177001953 145.0902862548828 C 162.74400329589844 103.07318878173828 206.98184204101562 137.74652099609375 114.59860229492188 109.9122085571289" stroke-width="3.0" fill="none" stroke="rgb(0, 0, 0)" stroke-opacity="1.0" stroke-linecap="round" stroke-linejoin="round"/>
    <path d="M 27.685075759887695 103.27792358398438 C 255.94546508789062 119.80236053466797 148.48715209960938 85.23599243164062 32.12855529785156 93.99193572998047" stroke-width="3.0" fill="none" stroke="rgb(0, 0, 0)" stroke-opacity="1.0" stroke-linecap="round" stroke-linejoin="round"/>
    <path d="M 99.36196899414062 132.3151092529297 C 105.33153533935547 95.26813507080078 68.60592651367188 143.0349578857422 53.17571258544922 127.41647338867188" stroke-width="3.0" fill="none" stroke="rgb(0, 0, 0)" stroke-opacity="1.0" stroke-linecap="round" stroke-linejoin="round"/>
    <path d="M 118.66307067871094 215.5535125732422 C 161.7975616455078 206.031982421875 177.37229919433594 195.44586181640625 184.36752319335938 187.80838012695312" stroke-width="3.0" fill="none" stroke="rgb(0, 0, 0)" stroke-opacity="1.0" stroke-linecap="round" stroke-linejoin="round"/>
    <path d="M 144.3237762451172 107.27945709228516 C 215.94371032714844 115.10806274414062 183.98574829101562 129.79434204101562 193.4008026123047 110.68831634521484" stroke-width="3.0" fill="none" stroke="rgb(0, 0, 0)" stroke-opacity="1.0" stroke-linecap="round" stroke-linejoin="round"/>
    <path d="M 111.198486328125 108.07717895507812 C 132.06654357910156 143.72854614257812 74.9144287109375 141.66583251953125 168.1836395263672 136.91860961914062" stroke-width="3.0" fill="none" stroke="rgb(0, 0, 0)" stroke-opacity="1.0" stroke-linecap="round" stroke-linejoin="round"/>
    <path d="M 27.901592254638672 96.5270767211914 C 121.12238311767578 108.10923767089844 91.7662353515625 123.4614028930664 30.036441802978516 112.84490966796875" stroke-width="3.0" fill="none" stroke="rgb(0, 0, 0)" stroke-opacity="1.0" stroke-linecap="round" stroke-linejoin="round"/>
    <path d="M 175.5363311767578 104.6241455078125 C 147.5507049560547 113.84506225585938 166.1634521484375 107.38217163085938 65.77494049072266 96.84938049316406" stroke-width="3.0" fill="none" stroke="rgb(0, 0, 0)" stroke-opacity="1.0" stroke-linecap="round" stroke-linejoin="round"/>
    <path d="M 22.802858352661133 159.4326629638672 C 70.16824340820312 225.50546264648438 123.77652740478516 215.8686981201172 165.10324096679688 198.04151916503906" stroke-width="3.0" fill="none" stroke="rgb(0, 0, 0)" stroke-opacity="1.0" stroke-linecap="round" stroke-linejoin="round"/>
    <path d="M 179.53982543945312 29.219823837280273 C 190.31378173828125 35.67484664916992 232.41952514648438 78.42056274414062 212.1595001220703 135.26063537597656" stroke-width="3.0" fill="none" stroke="rgb(0, 0, 0)" stroke-opacity="1.0" stroke-linecap="round" stroke-linejoin="round"/>
    <path d="M 92.91339874267578 93.04981231689453 C 125.49993896484375 67.85012817382812 169.0220184326172 98.20606994628906 144.84820556640625 86.09490966796875" stroke-width="3.0" fill="none" stroke="rgb(0, 0, 0)" stroke-opacity="1.0" stroke-linecap="round" stroke-linejoin="round"/>
    <path d="M 72.2889175415039 40.3943977355957 C 78.02864074707031 -17.855239868164062 170.48336791992188 8.553744316101074 195.01002502441406 45.609703063964844" stroke-width="3.0" fill="none" stroke="rgb(0, 0, 0)" stroke-opacity="1.0" stroke-linecap="round" stroke-linejoin="round"/>
    <path d="M 107.58169555664062 152.01724243164062 C 166.42276000976562 147.6850128173828 203.7908935546875 146.70477294921875 110.38972473144531 141.89088439941406" stroke-width="3.0" fill="none" stroke="rgb(0, 0, 0)" stroke-opacity="1.0" stroke-linecap="round" stroke-linejoin="round"/>
    <path d="M 59.89657974243164 127.07713317871094 C 72.14783477783203 140.9439697265625 29.077415466308594 158.5947723388672 47.58242416381836 109.84774017333984" stroke-width="3.0" fill="none" stroke="rgb(0, 0, 0)" stroke-opacity="1.0" stroke-linecap="round" stroke-linejoin="round"/>
    <path d="M 175.22950744628906 146.67686462402344 C 201.82171630859375 145.5012969970703 173.04107666015625 96.66345977783203 179.6018829345703 138.264892578125" stroke-width="3.0" fill="none" stroke="rgb(0, 0, 0)" stroke-opacity="1.0" stroke-linecap="round" stroke-linejoin="round"/>
    <path d="M 190.4545440673828 179.18765258789062 C 169.52809143066406 187.67787170410156 183.14651489257812 190.50437927246094 169.08026123046875 192.9185028076172" stroke-width="3.0" fill="none" stroke="rgb(0, 0, 0)" stroke-opacity="1.0" stroke-linecap="round" stroke-linejoin="round"/>
    <path d="M 60.16342544555664 125.85093688964844 C 108.98575592041016 132.58387756347656 67.93103790283203 142.51661682128906 48.65910720825195 124.90660858154297" stroke-width="3.0" fill="none" stroke="rgb(0, 0, 0)" stroke-opacity="1.0" stroke-linecap="round" stroke-linejoin="round"/>
    <path d="M 115.68766021728516 82.7184066772461 C 111.75263977050781 90.68395233154297 80.16099548339844 94.01876831054688 118.57386016845703 83.92980194091797" stroke-width="3.0" fill="none" stroke="rgb(0, 0, 0)" stroke-opacity="1.0" stroke-linecap="round" stroke-linejoin="round"/>
    <path d="M 45.42345428466797 111.53907012939453 C 90.81940460205078 107.44623565673828 127.38670349121094 141.8582305908203 40.34935760498047 124.12702178955078" stroke-width="3.0" fill="none" stroke="rgb(0, 0, 0)" stroke-opacity="1.0" stroke-linecap="round" stroke-linejoin="round"/>
    <path d="M 161.12010192871094 123.7041015625 C 47.91403579711914 129.48455810546875 172.10357666015625 116.30604553222656 169.13787841796875 104.6312484741211" stroke-width="3.0" fill="none" stroke="rgb(0, 0, 0)" stroke-opacity="1.0" stroke-linecap="round" stroke-linejoin="round"/>
    <path d="M 94.69947814941406 107.56269073486328 C 64.9439468383789 141.05174255371094 115.13741302490234 158.05894470214844 86.30072784423828 142.86740112304688" stroke-width="3.0" fill="none" stroke="rgb(0, 0, 0)" stroke-opacity="1.0" stroke-linecap="round" stroke-linejoin="round"/>
    <path d="M 25.825759887695312 48.80437088012695 C 19.486473083496094 63.59394454956055 -1.8091909885406494 98.29014587402344 12.270173072814941 139.17453002929688" stroke-width="3.0" fill="none" stroke="rgb(0, 0, 0)" stroke-opacity="1.0" stroke-linecap="round" stroke-linejoin="round"/>
    <path d="M 181.0265655517578 191.08091735839844 C 187.3448486328125 184.28515625 225.51904296875 137.74107360839844 216.9877471923828 95.72957611083984" stroke-width="3.0" fill="none" stroke="rgb(0, 0, 0)" stroke-opacity="1.0" stroke-linecap="round" stroke-linejoin="round"/>
    <path d="M 136.4213409423828 92.58810424804688 C 219.6591796875 112.00579833984375 193.2560577392578 115.93074035644531 170.6587677001953 104.2798843383789" stroke-width="3.0" fill="none" stroke="rgb(0, 0, 0)" stroke-opacity="1.0" stroke-linecap="round" stroke-linejoin="round"/>
    <path d="M 132.857177734375 92.41743469238281 C 251.12371826171875 122.93521881103516 146.7769012451172 104.75756072998047 176.74844360351562 145.70875549316406" stroke-width="3.0" fill="none" stroke="rgb(0, 0, 0)" stroke-opacity="1.0" stroke-linecap="round" stroke-linejoin="round"/>
    <path d="M 157.88815307617188 107.40672302246094 C 137.55787658691406 48.87376022338867 122.87260437011719 127.97188568115234 140.8378143310547 86.19683074951172" stroke-width="3.0" fill="none" stroke="rgb(0, 0, 0)" stroke-opacity="1.0" stroke-linecap="round" stroke-linejoin="round"/>
    <path d="M 62.73003387451172 142.40695190429688 C 143.20791625976562 166.9837646484375 88.3368911743164 78.58453369140625 90.71043395996094 136.33773803710938" stroke-width="3.0" fill="none" stroke="rgb(0, 0, 0)" stroke-opacity="1.0" stroke-linecap="round" stroke-linejoin="round"/>
    <path d="M 163.1881866455078 108.21995544433594 C 178.18931579589844 84.81099700927734 200.2366943359375 138.87684631347656 179.21875 145.26712036132812" stroke-width="3.0" fill="none" stroke="rgb(0, 0, 0)" stroke-opacity="1.0" stroke-linecap="round" stroke-linejoin="round"/>
    <path d="M 78.48094940185547 101.49956512451172 C 76.35411834716797 97.6245346069336 196.07423400878906 97.61660766601562 161.1216583251953 106.73265838623047" stroke-width="3.0" fill="none" stroke="rgb(0, 0, 0)" stroke-opacity="1.0" stroke-linecap="round" stroke-linejoin="round"/>
    <path d="M 62.14131546020508 13.551669120788574 C 94.75565338134766 -16.087818145751953 105.60894775390625 -11.912359237670898 69.49044799804688 5.59004545211792" stroke-width="3.0" fill="none" stroke="rgb(0, 0, 0)" stroke-opacity="1.0" stroke-linecap="round" stroke-linejoin="round"/>
    <path d="M 32.4713020324707 124.01895141601562 C 102.1803970336914 140.1741943359375 109.72144317626953 155.73985290527344 32.81302261352539 146.58865356445312" stroke-width="3.0" fill="none" stroke="rgb(0, 0, 0)" stroke-opacity="1.0" stroke-linecap="round" stroke-linejoin="round"/>
    <path d="M 181.72454833984375 134.21852111816406 C 151.8783416748047 109.85747528076172 205.9397430419922 121.55220031738281 190.0887908935547 120.89247131347656" stroke-width="3.0" fill="none" stroke="rgb(0, 0, 0)" stroke-opacity="1.0" stroke-linecap="round" stroke-linejoin="round"/>
    <path d="M 68.50492858886719 130.55807495117188 C 7.581788539886475 137.17037963867188 25.741369247436523 88.90630340576172 69.65946197509766 102.06806945800781" stroke-width="3.0" fill="none" stroke="rgb(0, 0, 0)" stroke-opacity="1.0" stroke-linecap="round" stroke-linejoin="round"/>
    <path d="M 4.580278396606445 113.17044067382812 C 11.792868614196777 184.79148864746094 83.47534942626953 227.8272705078125 130.4328155517578 211.94969177246094" stroke-width="3.0" fill="none" stroke="rgb(0, 0, 0)" stroke-opacity="1.0" stroke-linecap="round" stroke-linejoin="round"/>
    <path d="M 49.83946228027344 149.75990295410156 C 186.9144744873047 154.81771850585938 235.03582763671875 137.4840545654297 106.66596221923828 149.68385314941406" stroke-width="3.0" fill="none" stroke="rgb(0, 0, 0)" stroke-opacity="1.0" stroke-linecap="round" stroke-linejoin="round"/>
    <path d="M 178.72364807128906 115.2763442993164 C 92.76116943359375 127.77793884277344 91.25746154785156 101.62510681152344 190.71514892578125 114.0866928100586" stroke-width="3.0" fill="none" stroke="rgb(0, 0, 0)" stroke-opacity="1.0" stroke-linecap="round" stroke-linejoin="round"/>
    <path d="M 36.78733825683594 96.91426849365234 C 45.220829010009766 123.47065734863281 89.42597961425781 72.90109252929688 69.73875427246094 116.47300720214844" stroke-width="3.0" fill="none" stroke="rgb(0, 0, 0)" stroke-opacity="1.0" stroke-linecap="round" stroke-linejoin="round"/>
    <path d="M 29.723133087158203 121.85236358642578 C 124.16312408447266 116.32978820800781 78.60157775878906 138.8790283203125 96.7372055053711 118.0003662109375" stroke-width="3.0" fill="none" stroke="rgb(0, 0, 0)" stroke-opacity="1.0" stroke-linecap="round" stroke-linejoin="round"/>
    <path d="M 27.05478286743164 46.876319885253906 C 48.90578842163086 22.78166961669922 46.960609436035156 25.237346649169922 71.33990478515625 4.864157676696777" stroke-width="3.0" fill="none" stroke="rgb(0, 0, 0)" stroke-opacity="1.0" stroke-linecap="round" stroke-linejoin="round"/>
    <path d="M 174.95773315429688 144.16636657714844 C 179.6505584716797 136.60626220703125 50.710601806640625 149.37933349609375 129.56094360351562 146.0950469970703" stroke-width="3.0" fill="none" stroke="rgb(0, 0, 0)" stroke-opacity="1.0" stroke-linecap="round" stroke-linejoin="round"/>
    <path d="M 31.83450698852539 115.59471893310547 C 81.88664245605469 131.70614624023438 111.2256088256836 133.6682891845703 44.6271858215332 130.70980834960938" stroke-width="3.0" fill="none" stroke="rgb(0, 0, 0)" stroke-opacity="1.0" stroke-linecap="round" stroke-linejoin="round"/>
    <path d="M 104.00926971435547 87.1572036743164 C 102.0202865600586 95.08490753173828 131.1922607421875 80.5772933959961 125.37586212158203 82.1717300415039" stroke-width="3.0" fill="none" stroke="rgb(0, 0, 0)" stroke-opacity="1.0" stroke-linecap="round" stroke-linejoin="round"/>
    <path d="M 156.24588012695312 99.14832305908203 C 186.56044006347656 93.74579620361328 115.81693267822266 72.45285034179688 109.45281219482422 87.21746063232422" stroke-width="3.0" fill="none" stroke="rgb(0, 0, 0)" stroke-opacity="1.0" stroke-linecap="round" stroke-linejoin="round"/>
  </g>
</svg>
