<?xml version="1.0" ?>
<svg xmlns="http://www.w3.org/2000/svg" version="1.1" width="224" height="224">
  <defs/>
  <g>
    <path d="M 75.87560272216797 107.63589477539062 C 120.04751586914062 92.06295013427734 122.44943237304688 132.19595336914062 113.24465942382812 145.82196044921875" stroke-width="3.0" fill="none" stroke="rgb(0, 0, 0)" stroke-opacity="1.0" stroke-linecap="round" stroke-linejoin="round"/>
    <path d="M 68.65762329101562 128.361083984375 C 96.52902221679688 158.14776611328125 74.66959381103516 156.20895385742188 74.28121185302734 129.27825927734375" stroke-width="3.0" fill="none" stroke="rgb(0, 0, 0)" stroke-opacity="1.0" stroke-linecap="round" stroke-linejoin="round"/>
    <path d="M 44.36627197265625 128.84274291992188 C -11.95808219909668 112.67701721191406 0.13053077459335327 121.24592590332031 85.26324462890625 128.08062744140625" stroke-width="3.0" fill="none" stroke="rgb(0, 0, 0)" stroke-opacity="1.0" stroke-linecap="round" stroke-linejoin="round"/>
    <path d="M 22.917665481567383 116.52599334716797 C 97.13329315185547 126.992431640625 84.50640869140625 120.7696762084961 80.29301452636719 122.372314453125" stroke-width="3.0" fill="none" stroke="rgb(0, 0, 0)" stroke-opacity="1.0" stroke-linecap="round" stroke-linejoin="round"/>
    <path d="M 97.84990692138672 97.48514556884766 C 190.48204040527344 121.47633361816406 178.864990234375 108.4952163696289 106.96835327148438 96.0062026977539" stroke-width="3.0" fill="none" stroke="rgb(0, 0, 0)" stroke-opacity="1.0" stroke-linecap="round" stroke-linejoin="round"/>
    <path d="M 175.48545837402344 141.6920623779297 C 171.30029296875 101.57202911376953 200.9672088623047 119.2994384765625 146.5912322998047 106.20165252685547" stroke-width="3.0" fill="none" stroke="rgb(0, 0, 0)" stroke-opacity="1.0" stroke-linecap="round" stroke-linejoin="round"/>
    <path d="M 42.995609283447266 97.73693084716797 C 132.14865112304688 101.18927764892578 122.85821533203125 91.97740936279297 46.498634338378906 95.37700653076172" stroke-width="3.0" fill="none" stroke="rgb(0, 0, 0)" stroke-opacity="1.0" stroke-linecap="round" stroke-linejoin="round"/>
    <path d="M 69.07789611816406 137.71597290039062 C 98.19261169433594 135.87937927246094 82.75225830078125 142.85000610351562 27.8514461517334 129.9359130859375" stroke-width="3.0" fill="none" stroke="rgb(0, 0, 0)" stroke-opacity="1.0" stroke-linecap="round" stroke-linejoin="round"/>
    <path d="M 126.98251342773438 209.80850219726562 C 194.3341522216797 193.12164306640625 150.52821350097656 201.78262329101562 177.06716918945312 194.6085968017578" stroke-width="3.0" fill="none" stroke="rgb(0, 0, 0)" stroke-opacity="1.0" stroke-linecap="round" stroke-linejoin="round"/>
    <path d="M 156.76148986816406 112.4632797241211 C 175.84759521484375 114.81050872802734 180.85211181640625 117.28543090820312 196.1680908203125 114.2079849243164" stroke-width="3.0" fill="none" stroke="rgb(0, 0, 0)" stroke-opacity="1.0" stroke-linecap="round" stroke-linejoin="round"/>
    <path d="M 99.60906219482422 103.7420883178711 C 129.4486846923828 105.54736328125 115.99359893798828 147.24513244628906 136.49237060546875 143.86392211914062" stroke-width="3.0" fill="none" stroke="rgb(0, 0, 0)" stroke-opacity="1.0" stroke-linecap="round" stroke-linejoin="round"/>
    <path d="M 10.202197074890137 109.18389129638672 C 126.73382568359375 109.02967834472656 96.7867202758789 106.73033142089844 25.02729034423828 98.57176208496094" stroke-width="3.0" fill="none" stroke="rgb(0, 0, 0)" stroke-opacity="1.0" stroke-linecap="round" stroke-linejoin="round"/>
    <path d="M 175.8834991455078 109.11959838867188 C 130.232666015625 96.46531677246094 162.87705993652344 108.17588806152344 127.69408416748047 104.06396484375" stroke-width="3.0" fill="none" stroke="rgb(0, 0, 0)" stroke-opacity="1.0" stroke-linecap="round" stroke-linejoin="round"/>
    <path d="M 81.97144317626953 208.38870239257812 C 89.5210952758789 208.6642608642578 106.69158935546875 211.79611206054688 111.48121643066406 211.08389282226562" stroke-width="3.0" fill="none" stroke="rgb(0, 0, 0)" stroke-opacity="1.0" stroke-linecap="round" stroke-linejoin="round"/>
    <path d="M 173.18711853027344 25.919429779052734 C 188.89126586914062 34.06993865966797 227.4036407470703 74.34149169921875 213.09007263183594 134.2225341796875" stroke-width="3.0" fill="none" stroke="rgb(0, 0, 0)" stroke-opacity="1.0" stroke-linecap="round" stroke-linejoin="round"/>
    <path d="M 109.564697265625 80.96124267578125 C 141.6400604248047 79.46871185302734 138.01187133789062 79.59285736083984 126.07112121582031 95.98383331298828" stroke-width="3.0" fill="none" stroke="rgb(0, 0, 0)" stroke-opacity="1.0" stroke-linecap="round" stroke-linejoin="round"/>
    <path d="M 55.21595764160156 20.383529663085938 C 114.23158264160156 -10.318897247314453 169.26275634765625 18.894580841064453 186.5192413330078 36.66117858886719" stroke-width="3.0" fill="none" stroke="rgb(0, 0, 0)" stroke-opacity="1.0" stroke-linecap="round" stroke-linejoin="round"/>
    <path d="M 135.12200927734375 134.23451232910156 C 129.95257568359375 154.94378662109375 146.78762817382812 123.53678131103516 140.46847534179688 141.96315002441406" stroke-width="3.0" fill="none" stroke="rgb(0, 0, 0)" stroke-opacity="1.0" stroke-linecap="round" stroke-linejoin="round"/>
    <path d="M 62.83198547363281 131.3002471923828 C 56.96121597290039 137.21417236328125 67.87194061279297 145.77548217773438 11.663283348083496 126.4259262084961" stroke-width="3.0" fill="none" stroke="rgb(0, 0, 0)" stroke-opacity="1.0" stroke-linecap="round" stroke-linejoin="round"/>
    <path d="M 169.60069274902344 135.3911590576172 C 194.4195098876953 165.51397705078125 186.6024932861328 105.77020263671875 179.7134246826172 127.40528869628906" stroke-width="3.0" fill="none" stroke="rgb(0, 0, 0)" stroke-opacity="1.0" stroke-linecap="round" stroke-linejoin="round"/>
    <path d="M 138.18597412109375 207.60345458984375 C 108.9109878540039 215.89608764648438 100.06432342529297 210.41461181640625 130.8246612548828 209.89617919921875" stroke-width="3.0" fill="none" stroke="rgb(0, 0, 0)" stroke-opacity="1.0" stroke-linecap="round" stroke-linejoin="round"/>
    <path d="M 57.39464569091797 140.95704650878906 C 76.5948486328125 130.2716064453125 54.475807189941406 157.6111602783203 35.512474060058594 128.60556030273438" stroke-width="3.0" fill="none" stroke="rgb(0, 0, 0)" stroke-opacity="1.0" stroke-linecap="round" stroke-linejoin="round"/>
    <path d="M 94.39321899414062 88.43310546875 C 35.30405044555664 87.5821762084961 -15.371106147766113 94.82948303222656 64.19084167480469 96.23870086669922" stroke-width="3.0" fill="none" stroke="rgb(0, 0, 0)" stroke-opacity="1.0" stroke-linecap="round" stroke-linejoin="round"/>
    <path d="M 74.65693664550781 100.10832214355469 C 69.65238189697266 116.82632446289062 92.37686157226562 114.05561828613281 55.43889617919922 112.23919677734375" stroke-width="3.0" fill="none" stroke="rgb(0, 0, 0)" stroke-opacity="1.0" stroke-linecap="round" stroke-linejoin="round"/>
    <path d="M 148.5993194580078 97.80719757080078 C 122.83147430419922 77.63924407958984 160.62916564941406 99.32980346679688 163.78692626953125 96.90601348876953" stroke-width="3.0" fill="none" stroke="rgb(0, 0, 0)" stroke-opacity="1.0" stroke-linecap="round" stroke-linejoin="round"/>
    <path d="M 96.02378845214844 116.28852081298828 C 67.48243713378906 137.67758178710938 104.67636108398438 164.5415496826172 80.53191375732422 140.0210723876953" stroke-width="3.0" fill="none" stroke="rgb(0, 0, 0)" stroke-opacity="1.0" stroke-linecap="round" stroke-linejoin="round"/>
    <path d="M 26.356285095214844 50.99131393432617 C 15.87414264678955 68.50306701660156 3.0016651153564453 84.92184448242188 6.880885601043701 125.69480895996094" stroke-width="3.0" fill="none" stroke="rgb(0, 0, 0)" stroke-opacity="1.0" stroke-linecap="round" stroke-linejoin="round"/>
    <path d="M 179.44699096679688 192.97047424316406 C 192.87661743164062 174.22341918945312 216.41921997070312 151.97898864746094 214.4532928466797 120.1955337524414" stroke-width="3.0" fill="none" stroke="rgb(0, 0, 0)" stroke-opacity="1.0" stroke-linecap="round" stroke-linejoin="round"/>
    <path d="M 146.0133056640625 106.86170959472656 C 208.3673858642578 119.10066986083984 202.92100524902344 111.03514099121094 147.1193389892578 106.36370849609375" stroke-width="3.0" fill="none" stroke="rgb(0, 0, 0)" stroke-opacity="1.0" stroke-linecap="round" stroke-linejoin="round"/>
    <path d="M 140.7445831298828 94.73565673828125 C 231.9480743408203 120.30945587158203 170.88287353515625 102.39833068847656 171.73635864257812 138.58743286132812" stroke-width="3.0" fill="none" stroke="rgb(0, 0, 0)" stroke-opacity="1.0" stroke-linecap="round" stroke-linejoin="round"/>
    <path d="M 146.4499053955078 98.34105682373047 C 137.2647247314453 89.46881866455078 132.05169677734375 108.4803237915039 139.50299072265625 82.81428527832031" stroke-width="3.0" fill="none" stroke="rgb(0, 0, 0)" stroke-opacity="1.0" stroke-linecap="round" stroke-linejoin="round"/>
    <path d="M 81.625 148.4169158935547 C 133.40345764160156 166.78941345214844 108.56989288330078 78.18275451660156 85.27532196044922 119.15618133544922" stroke-width="3.0" fill="none" stroke="rgb(0, 0, 0)" stroke-opacity="1.0" stroke-linecap="round" stroke-linejoin="round"/>
    <path d="M 183.1929931640625 115.45299530029297 C 204.97242736816406 102.32360076904297 189.82794189453125 128.4701385498047 184.81307983398438 113.05220031738281" stroke-width="3.0" fill="none" stroke="rgb(0, 0, 0)" stroke-opacity="1.0" stroke-linecap="round" stroke-linejoin="round"/>
    <path d="M 137.53514099121094 106.64451599121094 C 105.3361587524414 84.26200866699219 185.3879852294922 98.49583435058594 143.8437957763672 97.97027587890625" stroke-width="3.0" fill="none" stroke="rgb(0, 0, 0)" stroke-opacity="1.0" stroke-linecap="round" stroke-linejoin="round"/>
    <path d="M 57.253822326660156 21.664947509765625 C 92.7746810913086 10.934511184692383 80.34053039550781 6.699089050292969 60.73234558105469 16.938190460205078" stroke-width="3.0" fill="none" stroke="rgb(0, 0, 0)" stroke-opacity="1.0" stroke-linecap="round" stroke-linejoin="round"/>
    <path d="M 31.161354064941406 124.82845306396484 C 103.68878173828125 139.2891845703125 87.43521118164062 156.7439422607422 33.25654983520508 142.0713653564453" stroke-width="3.0" fill="none" stroke="rgb(0, 0, 0)" stroke-opacity="1.0" stroke-linecap="round" stroke-linejoin="round"/>
    <path d="M 178.7725830078125 140.6550750732422 C 166.52706909179688 103.917236328125 205.1345672607422 116.01325225830078 181.5452423095703 141.9918212890625" stroke-width="3.0" fill="none" stroke="rgb(0, 0, 0)" stroke-opacity="1.0" stroke-linecap="round" stroke-linejoin="round"/>
    <path d="M 36.515357971191406 140.11199951171875 C 10.0325288772583 99.79383087158203 21.88426399230957 98.73646545410156 85.6375732421875 108.78143310546875" stroke-width="3.0" fill="none" stroke="rgb(0, 0, 0)" stroke-opacity="1.0" stroke-linecap="round" stroke-linejoin="round"/>
    <path d="M 6.381580829620361 126.34168243408203 C 19.585092544555664 191.62278747558594 76.8756332397461 208.31199645996094 93.73946380615234 210.22360229492188" stroke-width="3.0" fill="none" stroke="rgb(0, 0, 0)" stroke-opacity="1.0" stroke-linecap="round" stroke-linejoin="round"/>
    <path d="M 118.72286224365234 130.30300903320312 C 141.13778686523438 151.81150817871094 148.03378295898438 143.09617614746094 118.62360382080078 131.09811401367188" stroke-width="3.0" fill="none" stroke="rgb(0, 0, 0)" stroke-opacity="1.0" stroke-linecap="round" stroke-linejoin="round"/>
    <path d="M 154.93588256835938 106.98477935791016 C 155.72930908203125 106.12071990966797 130.5305938720703 102.33905792236328 182.5894317626953 117.98616027832031" stroke-width="3.0" fill="none" stroke="rgb(0, 0, 0)" stroke-opacity="1.0" stroke-linecap="round" stroke-linejoin="round"/>
    <path d="M 76.25727844238281 105.46708679199219 C 87.12474822998047 125.34091186523438 49.910850524902344 95.97859191894531 50.20683670043945 117.02396392822266" stroke-width="3.0" fill="none" stroke="rgb(0, 0, 0)" stroke-opacity="1.0" stroke-linecap="round" stroke-linejoin="round"/>
    <path d="M 25.617847442626953 106.58063507080078 C 102.60965728759766 120.17316436767578 70.94845581054688 121.51539611816406 92.099365234375 104.7332534790039" stroke-width="3.0" fill="none" stroke="rgb(0, 0, 0)" stroke-opacity="1.0" stroke-linecap="round" stroke-linejoin="round"/>
    <path d="M 26.74478530883789 49.49215316772461 C 47.698463439941406 27.066511154174805 34.57698059082031 35.58454895019531 53.10163497924805 20.946969985961914" stroke-width="3.0" fill="none" stroke="rgb(0, 0, 0)" stroke-opacity="1.0" stroke-linecap="round" stroke-linejoin="round"/>
    <path d="M 181.38104248046875 134.86289978027344 C 170.55706787109375 137.78561401367188 119.27452087402344 132.37158203125 119.70414733886719 134.83079528808594" stroke-width="3.0" fill="none" stroke="rgb(0, 0, 0)" stroke-opacity="1.0" stroke-linecap="round" stroke-linejoin="round"/>
    <path d="M 35.090911865234375 127.20465850830078 C 72.79547882080078 125.88451385498047 91.42696380615234 141.68789672851562 31.967910766601562 127.66161346435547" stroke-width="3.0" fill="none" stroke="rgb(0, 0, 0)" stroke-opacity="1.0" stroke-linecap="round" stroke-linejoin="round"/>
    <path d="M 93.42805480957031 88.67444610595703 C 104.71451568603516 77.814453125 119.1446762084961 82.3076400756836 125.22859191894531 83.75489807128906" stroke-width="3.0" fill="none" stroke="rgb(0, 0, 0)" stroke-opacity="1.0" stroke-linecap="round" stroke-linejoin="round"/>
    <path d="M 166.6492919921875 99.75111389160156 C 178.78053283691406 93.58610534667969 140.98573303222656 80.38423919677734 131.071533203125 81.03246307373047" stroke-width="3.0" fill="none" stroke="rgb(0, 0, 0)" stroke-opacity="1.0" stroke-linecap="round" stroke-linejoin="round"/>
  </g>
</svg>
