<?xml version="1.0" ?>
<svg xmlns="http://www.w3.org/2000/svg" version="1.1" width="224" height="224">
  <defs/>
  <g>
    <path d="M 69.48409271240234 113.51769256591797 C 128.14639282226562 86.03596496582031 124.44175720214844 166.07168579101562 82.27662658691406 153.81190490722656" stroke-width="3.0" fill="none" stroke="rgb(0, 0, 0)" stroke-opacity="1.0" stroke-linecap="round" stroke-linejoin="round"/>
    <path d="M 75.86164855957031 135.93325805664062 C 99.48304748535156 163.99160766601562 77.21946716308594 148.5447998046875 64.01950073242188 136.39894104003906" stroke-width="3.0" fill="none" stroke="rgb(0, 0, 0)" stroke-opacity="1.0" stroke-linecap="round" stroke-linejoin="round"/>
    <path d="M 71.43421173095703 136.46673583984375 C 38.54901885986328 147.26783752441406 49.652320861816406 145.67919921875 77.40223693847656 140.63914489746094" stroke-width="3.0" fill="none" stroke="rgb(0, 0, 0)" stroke-opacity="1.0" stroke-linecap="round" stroke-linejoin="round"/>
    <path d="M 33.87533950805664 123.07601928710938 C 120.00503540039062 128.63461303710938 72.2150650024414 127.7235336303711 95.16883087158203 144.4586181640625" stroke-width="3.0" fill="none" stroke="rgb(0, 0, 0)" stroke-opacity="1.0" stroke-linecap="round" stroke-linejoin="round"/>
    <path d="M 130.5843963623047 81.85317993164062 C 195.9573974609375 98.51111602783203 195.81488037109375 122.98738861083984 139.67172241210938 93.04853057861328" stroke-width="3.0" fill="none" stroke="rgb(0, 0, 0)" stroke-opacity="1.0" stroke-linecap="round" stroke-linejoin="round"/>
    <path d="M 169.91751098632812 145.139892578125 C 167.6830596923828 100.75104522705078 213.6886444091797 131.88690185546875 125.36243438720703 118.72075653076172" stroke-width="3.0" fill="none" stroke="rgb(0, 0, 0)" stroke-opacity="1.0" stroke-linecap="round" stroke-linejoin="round"/>
    <path d="M 31.611482620239258 97.25286102294922 C 250.08457946777344 129.19346618652344 169.28173828125 84.3122787475586 32.53834915161133 96.41664123535156" stroke-width="3.0" fill="none" stroke="rgb(0, 0, 0)" stroke-opacity="1.0" stroke-linecap="round" stroke-linejoin="round"/>
    <path d="M 101.0300064086914 136.95870971679688 C 114.5899887084961 110.8595199584961 71.3304214477539 141.61492919921875 53.5431022644043 123.36947631835938" stroke-width="3.0" fill="none" stroke="rgb(0, 0, 0)" stroke-opacity="1.0" stroke-linecap="round" stroke-linejoin="round"/>
    <path d="M 122.71764373779297 214.4651641845703 C 167.4709930419922 204.9217529296875 172.49423217773438 194.7205047607422 181.635986328125 188.88560485839844" stroke-width="3.0" fill="none" stroke="rgb(0, 0, 0)" stroke-opacity="1.0" stroke-linecap="round" stroke-linejoin="round"/>
    <path d="M 131.74110412597656 116.11314392089844 C 210.99339294433594 115.65327453613281 183.7107696533203 133.12057495117188 194.4761199951172 112.27105712890625" stroke-width="3.0" fill="none" stroke="rgb(0, 0, 0)" stroke-opacity="1.0" stroke-linecap="round" stroke-linejoin="round"/>
    <path d="M 107.3301010131836 107.25411987304688 C 131.125 138.1448516845703 81.18819427490234 143.7266082763672 168.48077392578125 139.26658630371094" stroke-width="3.0" fill="none" stroke="rgb(0, 0, 0)" stroke-opacity="1.0" stroke-linecap="round" stroke-linejoin="round"/>
    <path d="M 32.552024841308594 104.04400634765625 C 110.90554809570312 108.8899154663086 87.38760375976562 119.55854797363281 30.9517822265625 115.19476318359375" stroke-width="3.0" fill="none" stroke="rgb(0, 0, 0)" stroke-opacity="1.0" stroke-linecap="round" stroke-linejoin="round"/>
    <path d="M 178.0079345703125 104.94341278076172 C 139.048095703125 117.22245788574219 164.2783966064453 103.84747314453125 70.6619873046875 102.48355865478516" stroke-width="3.0" fill="none" stroke="rgb(0, 0, 0)" stroke-opacity="1.0" stroke-linecap="round" stroke-linejoin="round"/>
    <path d="M 22.925233840942383 162.6089324951172 C 79.65128326416016 222.90875244140625 118.05155944824219 215.6726837158203 164.36341857910156 196.94290161132812" stroke-width="3.0" fill="none" stroke="rgb(0, 0, 0)" stroke-opacity="1.0" stroke-linecap="round" stroke-linejoin="round"/>
    <path d="M 182.07994079589844 30.033334732055664 C 187.3705596923828 37.151432037353516 232.58106994628906 85.34242248535156 213.84161376953125 138.8447723388672" stroke-width="3.0" fill="none" stroke="rgb(0, 0, 0)" stroke-opacity="1.0" stroke-linecap="round" stroke-linejoin="round"/>
    <path d="M 90.11509704589844 89.27889251708984 C 126.76284790039062 70.2478256225586 165.44137573242188 98.13709259033203 140.615478515625 88.46641540527344" stroke-width="3.0" fill="none" stroke="rgb(0, 0, 0)" stroke-opacity="1.0" stroke-linecap="round" stroke-linejoin="round"/>
    <path d="M 69.7199935913086 35.936588287353516 C 84.95963287353516 -15.789383888244629 172.4976348876953 10.87403392791748 192.84967041015625 42.941314697265625" stroke-width="3.0" fill="none" stroke="rgb(0, 0, 0)" stroke-opacity="1.0" stroke-linecap="round" stroke-linejoin="round"/>
    <path d="M 110.58141326904297 144.23936462402344 C 166.68788146972656 139.99075317382812 206.0811309814453 145.65760803222656 111.98643493652344 141.089599609375" stroke-width="3.0" fill="none" stroke="rgb(0, 0, 0)" stroke-opacity="1.0" stroke-linecap="round" stroke-linejoin="round"/>
    <path d="M 62.12629699707031 126.29783630371094 C 69.9267349243164 141.038818359375 38.154808044433594 160.47384643554688 41.12989044189453 117.83360290527344" stroke-width="3.0" fill="none" stroke="rgb(0, 0, 0)" stroke-opacity="1.0" stroke-linecap="round" stroke-linejoin="round"/>
    <path d="M 178.05418395996094 148.13583374023438 C 209.2594757080078 143.12246704101562 173.51055908203125 103.44445037841797 179.43701171875 140.5559539794922" stroke-width="3.0" fill="none" stroke="rgb(0, 0, 0)" stroke-opacity="1.0" stroke-linecap="round" stroke-linejoin="round"/>
    <path d="M 182.69378662109375 185.2982940673828 C 168.38876342773438 188.0492401123047 187.0576171875 188.64727783203125 166.9664306640625 191.12179565429688" stroke-width="3.0" fill="none" stroke="rgb(0, 0, 0)" stroke-opacity="1.0" stroke-linecap="round" stroke-linejoin="round"/>
    <path d="M 61.63279342651367 124.27505493164062 C 113.02888488769531 122.61673736572266 65.2649154663086 132.04600524902344 41.97748947143555 131.79901123046875" stroke-width="3.0" fill="none" stroke="rgb(0, 0, 0)" stroke-opacity="1.0" stroke-linecap="round" stroke-linejoin="round"/>
    <path d="M 118.00569915771484 83.32814025878906 C 103.99993896484375 86.30084991455078 77.55436706542969 91.10111236572266 115.37318420410156 82.53794860839844" stroke-width="3.0" fill="none" stroke="rgb(0, 0, 0)" stroke-opacity="1.0" stroke-linecap="round" stroke-linejoin="round"/>
    <path d="M 52.163597106933594 109.76608276367188 C 77.46680450439453 102.1152114868164 118.40252685546875 142.13121032714844 34.41704559326172 123.03162384033203" stroke-width="3.0" fill="none" stroke="rgb(0, 0, 0)" stroke-opacity="1.0" stroke-linecap="round" stroke-linejoin="round"/>
    <path d="M 148.6254425048828 122.71963500976562 C 49.00394058227539 116.97573852539062 175.01254272460938 121.51382446289062 175.14602661132812 101.08587646484375" stroke-width="3.0" fill="none" stroke="rgb(0, 0, 0)" stroke-opacity="1.0" stroke-linecap="round" stroke-linejoin="round"/>
    <path d="M 88.86653137207031 107.30654907226562 C 56.21166229248047 145.31126403808594 107.13204956054688 165.7762908935547 82.28702545166016 146.32308959960938" stroke-width="3.0" fill="none" stroke="rgb(0, 0, 0)" stroke-opacity="1.0" stroke-linecap="round" stroke-linejoin="round"/>
    <path d="M 25.18073844909668 50.90610885620117 C 18.811878204345703 65.5091552734375 -9.749979019165039 96.9715347290039 8.530900955200195 136.36309814453125" stroke-width="3.0" fill="none" stroke="rgb(0, 0, 0)" stroke-opacity="1.0" stroke-linecap="round" stroke-linejoin="round"/>
    <path d="M 182.59732055664062 187.77096557617188 C 188.96737670898438 184.14442443847656 227.07179260253906 142.04393005371094 216.32247924804688 99.30762481689453" stroke-width="3.0" fill="none" stroke="rgb(0, 0, 0)" stroke-opacity="1.0" stroke-linecap="round" stroke-linejoin="round"/>
    <path d="M 137.50250244140625 106.3406753540039 C 223.74842834472656 120.3862075805664 201.90237426757812 109.61547088623047 159.6140594482422 105.56184387207031" stroke-width="3.0" fill="none" stroke="rgb(0, 0, 0)" stroke-opacity="1.0" stroke-linecap="round" stroke-linejoin="round"/>
    <path d="M 132.79054260253906 92.50025177001953 C 257.29052734375 121.73712158203125 143.593994140625 106.75179290771484 176.97874450683594 149.06092834472656" stroke-width="3.0" fill="none" stroke="rgb(0, 0, 0)" stroke-opacity="1.0" stroke-linecap="round" stroke-linejoin="round"/>
    <path d="M 168.91770935058594 98.90975952148438 C 129.22010803222656 54.5473518371582 126.20977783203125 131.18603515625 132.78175354003906 82.16798400878906" stroke-width="3.0" fill="none" stroke="rgb(0, 0, 0)" stroke-opacity="1.0" stroke-linecap="round" stroke-linejoin="round"/>
    <path d="M 65.47828674316406 141.89974975585938 C 141.473876953125 168.31895446777344 94.6839370727539 76.6548080444336 87.11698150634766 134.8385009765625" stroke-width="3.0" fill="none" stroke="rgb(0, 0, 0)" stroke-opacity="1.0" stroke-linecap="round" stroke-linejoin="round"/>
    <path d="M 171.02276611328125 108.55586242675781 C 188.046142578125 84.38450622558594 203.85415649414062 133.36572265625 180.5091552734375 148.04144287109375" stroke-width="3.0" fill="none" stroke="rgb(0, 0, 0)" stroke-opacity="1.0" stroke-linecap="round" stroke-linejoin="round"/>
    <path d="M 90.84771728515625 96.02054595947266 C 82.6086196899414 103.47754669189453 188.32130432128906 94.85906982421875 156.6712188720703 106.31317901611328" stroke-width="3.0" fill="none" stroke="rgb(0, 0, 0)" stroke-opacity="1.0" stroke-linecap="round" stroke-linejoin="round"/>
    <path d="M 57.344425201416016 10.323148727416992 C 88.57111358642578 -20.07927703857422 99.70967102050781 -16.14273452758789 65.08208465576172 2.910238027572632" stroke-width="3.0" fill="none" stroke="rgb(0, 0, 0)" stroke-opacity="1.0" stroke-linecap="round" stroke-linejoin="round"/>
    <path d="M 28.574369430541992 123.1481704711914 C 94.55317687988281 141.37828063964844 100.28250122070312 150.2326202392578 20.601240158081055 150.9633331298828" stroke-width="3.0" fill="none" stroke="rgb(0, 0, 0)" stroke-opacity="1.0" stroke-linecap="round" stroke-linejoin="round"/>
    <path d="M 182.6786651611328 132.55184936523438 C 156.98159790039062 108.8346176147461 205.8590087890625 119.5095443725586 190.44952392578125 124.93939971923828" stroke-width="3.0" fill="none" stroke="rgb(0, 0, 0)" stroke-opacity="1.0" stroke-linecap="round" stroke-linejoin="round"/>
    <path d="M 69.8075180053711 127.12174987792969 C 8.763558387756348 126.6739273071289 21.2253360748291 89.39263153076172 75.07752227783203 101.98800659179688" stroke-width="3.0" fill="none" stroke="rgb(0, 0, 0)" stroke-opacity="1.0" stroke-linecap="round" stroke-linejoin="round"/>
    <path d="M 3.9562788009643555 121.96188354492188 C 16.2481689453125 183.83824157714844 82.63446044921875 227.62364196777344 132.14810180664062 213.7146453857422" stroke-width="3.0" fill="none" stroke="rgb(0, 0, 0)" stroke-opacity="1.0" stroke-linecap="round" stroke-linejoin="round"/>
    <path d="M 48.98297119140625 152.80126953125 C 189.215087890625 158.14309692382812 228.51441955566406 140.40823364257812 107.4365463256836 150.43089294433594" stroke-width="3.0" fill="none" stroke="rgb(0, 0, 0)" stroke-opacity="1.0" stroke-linecap="round" stroke-linejoin="round"/>
    <path d="M 172.0438690185547 122.00474548339844 C 129.15237426757812 128.30665588378906 119.29740142822266 113.00483703613281 191.7818603515625 116.04637145996094" stroke-width="3.0" fill="none" stroke="rgb(0, 0, 0)" stroke-opacity="1.0" stroke-linecap="round" stroke-linejoin="round"/>
    <path d="M 44.877803802490234 97.36731719970703 C 42.27322769165039 122.86406707763672 89.84209442138672 66.4273681640625 66.10860443115234 112.93441772460938" stroke-width="3.0" fill="none" stroke="rgb(0, 0, 0)" stroke-opacity="1.0" stroke-linecap="round" stroke-linejoin="round"/>
    <path d="M 29.707542419433594 119.49187469482422 C 121.45429229736328 117.05203247070312 78.33930206298828 140.34146118164062 100.95258331298828 123.3807144165039" stroke-width="3.0" fill="none" stroke="rgb(0, 0, 0)" stroke-opacity="1.0" stroke-linecap="round" stroke-linejoin="round"/>
    <path d="M 26.244565963745117 48.7406120300293 C 45.433292388916016 21.52840232849121 46.594215393066406 26.856313705444336 62.17649459838867 4.972408771514893" stroke-width="3.0" fill="none" stroke="rgb(0, 0, 0)" stroke-opacity="1.0" stroke-linecap="round" stroke-linejoin="round"/>
    <path d="M 176.804443359375 145.63624572753906 C 181.5263671875 142.14105224609375 49.35234832763672 151.5452423095703 135.02049255371094 151.09866333007812" stroke-width="3.0" fill="none" stroke="rgb(0, 0, 0)" stroke-opacity="1.0" stroke-linecap="round" stroke-linejoin="round"/>
    <path d="M 29.140859603881836 120.3526840209961 C 85.51506805419922 127.68640899658203 117.53496551513672 128.7142791748047 50.437232971191406 128.6056365966797" stroke-width="3.0" fill="none" stroke="rgb(0, 0, 0)" stroke-opacity="1.0" stroke-linecap="round" stroke-linejoin="round"/>
    <path d="M 102.42945098876953 86.19877624511719 C 93.57353973388672 90.15494537353516 129.45724487304688 79.9762954711914 125.31063079833984 83.06471252441406" stroke-width="3.0" fill="none" stroke="rgb(0, 0, 0)" stroke-opacity="1.0" stroke-linecap="round" stroke-linejoin="round"/>
    <path d="M 166.6056365966797 96.59417724609375 C 182.0352783203125 90.84423065185547 124.55529022216797 70.36186981201172 105.42559814453125 87.89945220947266" stroke-width="3.0" fill="none" stroke="rgb(0, 0, 0)" stroke-opacity="1.0" stroke-linecap="round" stroke-linejoin="round"/>
  </g>
</svg>
