<?xml version="1.0" ?>
<svg xmlns="http://www.w3.org/2000/svg" version="1.1" width="224" height="224">
  <defs/>
  <g>
    <path d="M 71.65446472167969 112.36149597167969 C 122.65030670166016 81.5115737915039 121.92650604248047 167.9737548828125 85.89295196533203 147.1531219482422" stroke-width="3.0" fill="none" stroke="rgb(0, 0, 0)" stroke-opacity="1.0" stroke-linecap="round" stroke-linejoin="round"/>
    <path d="M 91.9493637084961 126.6363754272461 C 107.26846313476562 164.15484619140625 84.92852783203125 139.52435302734375 65.14750671386719 137.6085662841797" stroke-width="3.0" fill="none" stroke="rgb(0, 0, 0)" stroke-opacity="1.0" stroke-linecap="round" stroke-linejoin="round"/>
    <path d="M 80.53590393066406 139.46983337402344 C 45.075321197509766 143.2759552001953 58.88197708129883 147.83047485351562 83.21707153320312 142.47361755371094" stroke-width="3.0" fill="none" stroke="rgb(0, 0, 0)" stroke-opacity="1.0" stroke-linecap="round" stroke-linejoin="round"/>
    <path d="M 34.29059600830078 121.20217895507812 C 125.67400360107422 129.72738647460938 71.92568969726562 135.68441772460938 99.76604461669922 139.538818359375" stroke-width="3.0" fill="none" stroke="rgb(0, 0, 0)" stroke-opacity="1.0" stroke-linecap="round" stroke-linejoin="round"/>
    <path d="M 131.26939392089844 83.30754852294922 C 186.24620056152344 104.23277282714844 196.6661834716797 120.20269012451172 147.65309143066406 91.38481140136719" stroke-width="3.0" fill="none" stroke="rgb(0, 0, 0)" stroke-opacity="1.0" stroke-linecap="round" stroke-linejoin="round"/>
    <path d="M 171.5227813720703 147.86935424804688 C 165.0161895751953 100.57610321044922 209.7606964111328 132.71835327148438 120.12140655517578 111.84319305419922" stroke-width="3.0" fill="none" stroke="rgb(0, 0, 0)" stroke-opacity="1.0" stroke-linecap="round" stroke-linejoin="round"/>
    <path d="M 30.124534606933594 102.44931030273438 C 259.1612243652344 122.34138488769531 168.65139770507812 84.97846984863281 31.63203239440918 95.54957580566406" stroke-width="3.0" fill="none" stroke="rgb(0, 0, 0)" stroke-opacity="1.0" stroke-linecap="round" stroke-linejoin="round"/>
    <path d="M 98.8057861328125 131.7857208251953 C 106.15008544921875 105.7496337890625 77.28804016113281 148.06959533691406 55.76009750366211 128.8035125732422" stroke-width="3.0" fill="none" stroke="rgb(0, 0, 0)" stroke-opacity="1.0" stroke-linecap="round" stroke-linejoin="round"/>
    <path d="M 117.77082061767578 214.69248962402344 C 163.05470275878906 205.6156005859375 175.2901153564453 194.49952697753906 183.4132843017578 189.15419006347656" stroke-width="3.0" fill="none" stroke="rgb(0, 0, 0)" stroke-opacity="1.0" stroke-linecap="round" stroke-linejoin="round"/>
    <path d="M 138.0489044189453 106.45706176757812 C 219.97576904296875 105.4966049194336 187.23043823242188 126.40483093261719 198.18429565429688 111.78536987304688" stroke-width="3.0" fill="none" stroke="rgb(0, 0, 0)" stroke-opacity="1.0" stroke-linecap="round" stroke-linejoin="round"/>
    <path d="M 109.79234313964844 108.6151351928711 C 129.0264892578125 143.48834228515625 76.40007019042969 143.87135314941406 169.78248596191406 140.62889099121094" stroke-width="3.0" fill="none" stroke="rgb(0, 0, 0)" stroke-opacity="1.0" stroke-linecap="round" stroke-linejoin="round"/>
    <path d="M 39.67353057861328 97.89292907714844 C 109.11288452148438 108.92308044433594 82.11695098876953 122.92022705078125 30.107717514038086 112.58180236816406" stroke-width="3.0" fill="none" stroke="rgb(0, 0, 0)" stroke-opacity="1.0" stroke-linecap="round" stroke-linejoin="round"/>
    <path d="M 180.48062133789062 101.82661437988281 C 147.00270080566406 106.53926849365234 166.37994384765625 97.09366607666016 68.13255310058594 98.35367584228516" stroke-width="3.0" fill="none" stroke="rgb(0, 0, 0)" stroke-opacity="1.0" stroke-linecap="round" stroke-linejoin="round"/>
    <path d="M 23.19447898864746 163.9401092529297 C 75.99836730957031 224.1056671142578 115.87681579589844 212.89744567871094 165.57496643066406 194.5057830810547" stroke-width="3.0" fill="none" stroke="rgb(0, 0, 0)" stroke-opacity="1.0" stroke-linecap="round" stroke-linejoin="round"/>
    <path d="M 181.59841918945312 31.88665008544922 C 187.4068145751953 38.79023742675781 232.65159606933594 81.83336639404297 214.11557006835938 137.84593200683594" stroke-width="3.0" fill="none" stroke="rgb(0, 0, 0)" stroke-opacity="1.0" stroke-linecap="round" stroke-linejoin="round"/>
    <path d="M 91.90325164794922 92.90532684326172 C 127.38389587402344 66.83889770507812 166.7328338623047 96.4993667602539 143.8492889404297 88.62894439697266" stroke-width="3.0" fill="none" stroke="rgb(0, 0, 0)" stroke-opacity="1.0" stroke-linecap="round" stroke-linejoin="round"/>
    <path d="M 66.96311950683594 37.770721435546875 C 86.46974182128906 -17.352035522460938 169.31240844726562 9.235635757446289 192.51693725585938 46.315731048583984" stroke-width="3.0" fill="none" stroke="rgb(0, 0, 0)" stroke-opacity="1.0" stroke-linecap="round" stroke-linejoin="round"/>
    <path d="M 108.79951477050781 150.16754150390625 C 166.0524139404297 145.66146850585938 204.87059020996094 148.3193817138672 109.16328430175781 143.0898895263672" stroke-width="3.0" fill="none" stroke="rgb(0, 0, 0)" stroke-opacity="1.0" stroke-linecap="round" stroke-linejoin="round"/>
    <path d="M 63.49155807495117 127.72518157958984 C 74.86251068115234 143.63160705566406 37.64765930175781 161.7469482421875 47.92913818359375 112.72920989990234" stroke-width="3.0" fill="none" stroke="rgb(0, 0, 0)" stroke-opacity="1.0" stroke-linecap="round" stroke-linejoin="round"/>
    <path d="M 175.5779571533203 147.5852508544922 C 205.87069702148438 140.23831176757812 173.85498046875 98.02813720703125 178.76495361328125 140.9827880859375" stroke-width="3.0" fill="none" stroke="rgb(0, 0, 0)" stroke-opacity="1.0" stroke-linecap="round" stroke-linejoin="round"/>
    <path d="M 186.10321044921875 184.3819122314453 C 170.96157836914062 190.0778045654297 184.244140625 187.98805236816406 169.08514404296875 192.34283447265625" stroke-width="3.0" fill="none" stroke="rgb(0, 0, 0)" stroke-opacity="1.0" stroke-linecap="round" stroke-linejoin="round"/>
    <path d="M 61.57305908203125 125.10906982421875 C 112.37316131591797 125.89646911621094 66.1410140991211 138.6376495361328 44.951419830322266 128.80133056640625" stroke-width="3.0" fill="none" stroke="rgb(0, 0, 0)" stroke-opacity="1.0" stroke-linecap="round" stroke-linejoin="round"/>
    <path d="M 115.68866729736328 81.54975891113281 C 107.23165893554688 88.36129760742188 79.72594451904297 91.7732925415039 114.31794738769531 81.28264617919922" stroke-width="3.0" fill="none" stroke="rgb(0, 0, 0)" stroke-opacity="1.0" stroke-linecap="round" stroke-linejoin="round"/>
    <path d="M 50.663822174072266 117.66852569580078 C 89.54881286621094 107.37100982666016 131.47964477539062 141.08621215820312 32.145904541015625 125.9135513305664" stroke-width="3.0" fill="none" stroke="rgb(0, 0, 0)" stroke-opacity="1.0" stroke-linecap="round" stroke-linejoin="round"/>
    <path d="M 151.66456604003906 118.29024505615234 C 42.8668327331543 113.80535125732422 168.27749633789062 110.92949676513672 170.5646209716797 103.61044311523438" stroke-width="3.0" fill="none" stroke="rgb(0, 0, 0)" stroke-opacity="1.0" stroke-linecap="round" stroke-linejoin="round"/>
    <path d="M 88.15666198730469 106.66558074951172 C 58.70710372924805 140.568115234375 112.64471435546875 160.0063018798828 82.07228088378906 147.7713623046875" stroke-width="3.0" fill="none" stroke="rgb(0, 0, 0)" stroke-opacity="1.0" stroke-linecap="round" stroke-linejoin="round"/>
    <path d="M 26.846887588500977 49.672325134277344 C 21.606800079345703 64.3563232421875 0.39216578006744385 98.36739349365234 11.696187973022461 138.4523468017578" stroke-width="3.0" fill="none" stroke="rgb(0, 0, 0)" stroke-opacity="1.0" stroke-linecap="round" stroke-linejoin="round"/>
    <path d="M 182.14720153808594 190.5327606201172 C 188.64666748046875 184.18939208984375 226.97317504882812 139.0842742919922 217.09564208984375 99.6910629272461" stroke-width="3.0" fill="none" stroke="rgb(0, 0, 0)" stroke-opacity="1.0" stroke-linecap="round" stroke-linejoin="round"/>
    <path d="M 133.44761657714844 101.67875671386719 C 228.3854522705078 116.12167358398438 203.0169677734375 109.2608871459961 171.39463806152344 104.18569946289062" stroke-width="3.0" fill="none" stroke="rgb(0, 0, 0)" stroke-opacity="1.0" stroke-linecap="round" stroke-linejoin="round"/>
    <path d="M 133.9059295654297 88.1347427368164 C 252.71096801757812 118.2456283569336 144.21681213378906 103.26454162597656 176.04478454589844 145.26991271972656" stroke-width="3.0" fill="none" stroke="rgb(0, 0, 0)" stroke-opacity="1.0" stroke-linecap="round" stroke-linejoin="round"/>
    <path d="M 158.49484252929688 108.39360809326172 C 132.02027893066406 55.05899429321289 123.31748962402344 132.15274047851562 133.34742736816406 81.6020278930664" stroke-width="3.0" fill="none" stroke="rgb(0, 0, 0)" stroke-opacity="1.0" stroke-linecap="round" stroke-linejoin="round"/>
    <path d="M 63.67656326293945 144.23170471191406 C 141.91903686523438 164.89743041992188 91.02416229248047 74.50345611572266 89.13213348388672 134.27220153808594" stroke-width="3.0" fill="none" stroke="rgb(0, 0, 0)" stroke-opacity="1.0" stroke-linecap="round" stroke-linejoin="round"/>
    <path d="M 161.4761199951172 106.1445541381836 C 181.86203002929688 84.70074462890625 202.73036193847656 140.44000244140625 183.0120086669922 145.28900146484375" stroke-width="3.0" fill="none" stroke="rgb(0, 0, 0)" stroke-opacity="1.0" stroke-linecap="round" stroke-linejoin="round"/>
    <path d="M 79.43070220947266 98.75835418701172 C 76.09078216552734 100.22650909423828 192.61102294921875 100.56725311279297 159.6820526123047 110.49285125732422" stroke-width="3.0" fill="none" stroke="rgb(0, 0, 0)" stroke-opacity="1.0" stroke-linecap="round" stroke-linejoin="round"/>
    <path d="M 58.517921447753906 11.013277053833008 C 92.24493408203125 -17.9676570892334 101.62394714355469 -15.053998947143555 67.02607727050781 2.989589214324951" stroke-width="3.0" fill="none" stroke="rgb(0, 0, 0)" stroke-opacity="1.0" stroke-linecap="round" stroke-linejoin="round"/>
    <path d="M 28.953535079956055 126.22225952148438 C 93.24254608154297 141.23248291015625 98.18780517578125 153.79244995117188 21.602272033691406 150.08895874023438" stroke-width="3.0" fill="none" stroke="rgb(0, 0, 0)" stroke-opacity="1.0" stroke-linecap="round" stroke-linejoin="round"/>
    <path d="M 181.32901000976562 135.17254638671875 C 152.10108947753906 104.94353485107422 205.5065155029297 116.7812728881836 190.17160034179688 122.44474029541016" stroke-width="3.0" fill="none" stroke="rgb(0, 0, 0)" stroke-opacity="1.0" stroke-linecap="round" stroke-linejoin="round"/>
    <path d="M 68.98936462402344 126.6101303100586 C 8.025222778320312 132.84390258789062 23.88730239868164 89.53720092773438 74.275390625 104.97811126708984" stroke-width="3.0" fill="none" stroke="rgb(0, 0, 0)" stroke-opacity="1.0" stroke-linecap="round" stroke-linejoin="round"/>
    <path d="M 9.073661804199219 121.20980834960938 C 13.881561279296875 186.41964721679688 79.94940948486328 226.10459899902344 133.19363403320312 213.38192749023438" stroke-width="3.0" fill="none" stroke="rgb(0, 0, 0)" stroke-opacity="1.0" stroke-linecap="round" stroke-linejoin="round"/>
    <path d="M 51.021602630615234 150.43264770507812 C 190.2969207763672 154.24192810058594 233.36618041992188 138.99073791503906 106.56224060058594 151.36476135253906" stroke-width="3.0" fill="none" stroke="rgb(0, 0, 0)" stroke-opacity="1.0" stroke-linecap="round" stroke-linejoin="round"/>
    <path d="M 174.79263305664062 119.24052429199219 C 115.82162475585938 114.24285888671875 102.67675018310547 104.14537048339844 192.15467834472656 115.87919616699219" stroke-width="3.0" fill="none" stroke="rgb(0, 0, 0)" stroke-opacity="1.0" stroke-linecap="round" stroke-linejoin="round"/>
    <path d="M 44.95097351074219 96.1388931274414 C 46.765628814697266 127.71688842773438 89.9360580444336 69.54571533203125 68.17620849609375 117.88712310791016" stroke-width="3.0" fill="none" stroke="rgb(0, 0, 0)" stroke-opacity="1.0" stroke-linecap="round" stroke-linejoin="round"/>
    <path d="M 28.25706672668457 121.05216217041016 C 127.09606170654297 114.64053344726562 86.53651428222656 141.89920043945312 94.98191833496094 116.10420227050781" stroke-width="3.0" fill="none" stroke="rgb(0, 0, 0)" stroke-opacity="1.0" stroke-linecap="round" stroke-linejoin="round"/>
    <path d="M 27.45755386352539 47.8059196472168 C 45.71220397949219 20.951223373413086 43.50872802734375 23.212993621826172 65.77933502197266 5.2502522468566895" stroke-width="3.0" fill="none" stroke="rgb(0, 0, 0)" stroke-opacity="1.0" stroke-linecap="round" stroke-linejoin="round"/>
    <path d="M 176.2405242919922 145.98171997070312 C 176.218994140625 138.26898193359375 47.73679733276367 151.13426208496094 128.5875244140625 147.38392639160156" stroke-width="3.0" fill="none" stroke="rgb(0, 0, 0)" stroke-opacity="1.0" stroke-linecap="round" stroke-linejoin="round"/>
    <path d="M 24.803207397460938 121.0271987915039 C 82.12686920166016 129.85047912597656 113.369384765625 128.39022827148438 47.24154281616211 128.50006103515625" stroke-width="3.0" fill="none" stroke="rgb(0, 0, 0)" stroke-opacity="1.0" stroke-linecap="round" stroke-linejoin="round"/>
    <path d="M 104.45667266845703 89.14119720458984 C 98.16231536865234 94.4036865234375 129.37351989746094 79.14443969726562 129.9743194580078 80.84368133544922" stroke-width="3.0" fill="none" stroke="rgb(0, 0, 0)" stroke-opacity="1.0" stroke-linecap="round" stroke-linejoin="round"/>
    <path d="M 157.84857177734375 96.59288787841797 C 182.02796936035156 91.36259460449219 118.37360382080078 70.53914642333984 99.88324737548828 84.18385314941406" stroke-width="3.0" fill="none" stroke="rgb(0, 0, 0)" stroke-opacity="1.0" stroke-linecap="round" stroke-linejoin="round"/>
  </g>
</svg>
