<?xml version="1.0" ?>
<svg xmlns="http://www.w3.org/2000/svg" version="1.1" width="224" height="224">
  <defs/>
  <g>
    <path d="M 76.546875 114.47498321533203 C 123.9247817993164 100.94464111328125 114.50643920898438 159.75148010253906 92.70890045166016 154.43359375" stroke-width="3.0" fill="none" stroke="rgb(0, 0, 0)" stroke-opacity="1.0" stroke-linecap="round" stroke-linejoin="round"/>
    <path d="M 79.4828872680664 129.28819274902344 C 82.9541015625 163.54164123535156 83.62996673583984 146.54710388183594 86.44792938232422 133.79090881347656" stroke-width="3.0" fill="none" stroke="rgb(0, 0, 0)" stroke-opacity="1.0" stroke-linecap="round" stroke-linejoin="round"/>
    <path d="M 82.3011245727539 136.455078125 C 29.363431930541992 161.96665954589844 32.64657211303711 163.46347045898438 73.66374206542969 130.47781372070312" stroke-width="3.0" fill="none" stroke="rgb(0, 0, 0)" stroke-opacity="1.0" stroke-linecap="round" stroke-linejoin="round"/>
    <path d="M 43.12477493286133 122.42314910888672 C 119.05221557617188 134.79678344726562 63.400211334228516 120.02648162841797 66.73648834228516 145.72927856445312" stroke-width="3.0" fill="none" stroke="rgb(0, 0, 0)" stroke-opacity="1.0" stroke-linecap="round" stroke-linejoin="round"/>
    <path d="M 107.79924774169922 91.70907592773438 C 201.0498809814453 86.6804428100586 192.55894470214844 107.90363311767578 109.68102264404297 97.426025390625" stroke-width="3.0" fill="none" stroke="rgb(0, 0, 0)" stroke-opacity="1.0" stroke-linecap="round" stroke-linejoin="round"/>
    <path d="M 169.14596557617188 134.71044921875 C 175.0174560546875 105.36314392089844 211.31149291992188 120.40575408935547 144.21633911132812 106.78326416015625" stroke-width="3.0" fill="none" stroke="rgb(0, 0, 0)" stroke-opacity="1.0" stroke-linecap="round" stroke-linejoin="round"/>
    <path d="M 28.36545181274414 100.70834350585938 C 178.46095275878906 107.61268615722656 165.07958984375 90.4495849609375 44.1225700378418 96.78327178955078" stroke-width="3.0" fill="none" stroke="rgb(0, 0, 0)" stroke-opacity="1.0" stroke-linecap="round" stroke-linejoin="round"/>
    <path d="M 101.15621185302734 130.81863403320312 C 116.99259185791016 112.80764770507812 91.78009796142578 133.5853271484375 43.27511215209961 130.54176330566406" stroke-width="3.0" fill="none" stroke="rgb(0, 0, 0)" stroke-opacity="1.0" stroke-linecap="round" stroke-linejoin="round"/>
    <path d="M 114.6422348022461 215.7795867919922 C 188.2477264404297 198.23223876953125 161.94302368164062 201.03762817382812 183.6352996826172 191.31143188476562" stroke-width="3.0" fill="none" stroke="rgb(0, 0, 0)" stroke-opacity="1.0" stroke-linecap="round" stroke-linejoin="round"/>
    <path d="M 162.9089813232422 110.17503356933594 C 207.60142517089844 109.85452270507812 182.66848754882812 123.17119598388672 194.98374938964844 111.5006103515625" stroke-width="3.0" fill="none" stroke="rgb(0, 0, 0)" stroke-opacity="1.0" stroke-linecap="round" stroke-linejoin="round"/>
    <path d="M 101.38166046142578 108.37211608886719 C 130.9712677001953 118.03216552734375 95.11492156982422 151.5928955078125 159.11553955078125 152.0696563720703" stroke-width="3.0" fill="none" stroke="rgb(0, 0, 0)" stroke-opacity="1.0" stroke-linecap="round" stroke-linejoin="round"/>
    <path d="M 49.42510986328125 110.78972625732422 C 128.6802520751953 108.09925079345703 90.8807144165039 124.06073760986328 30.431283950805664 110.26282501220703" stroke-width="3.0" fill="none" stroke="rgb(0, 0, 0)" stroke-opacity="1.0" stroke-linecap="round" stroke-linejoin="round"/>
    <path d="M 185.82968139648438 113.80524444580078 C 155.9117889404297 106.7988052368164 172.74093627929688 110.53995513916016 84.21644592285156 100.3983383178711" stroke-width="3.0" fill="none" stroke="rgb(0, 0, 0)" stroke-opacity="1.0" stroke-linecap="round" stroke-linejoin="round"/>
    <path d="M 28.99057960510254 176.726318359375 C 73.89724731445312 218.65296936035156 118.52589416503906 213.1581573486328 137.9628143310547 209.10987854003906" stroke-width="3.0" fill="none" stroke="rgb(0, 0, 0)" stroke-opacity="1.0" stroke-linecap="round" stroke-linejoin="round"/>
    <path d="M 175.1064910888672 29.107135772705078 C 187.46176147460938 36.58755111694336 230.69534301757812 85.87562561035156 216.27488708496094 127.45975494384766" stroke-width="3.0" fill="none" stroke="rgb(0, 0, 0)" stroke-opacity="1.0" stroke-linecap="round" stroke-linejoin="round"/>
    <path d="M 92.29922485351562 87.69474792480469 C 131.39158630371094 64.22135162353516 157.16961669921875 95.29680633544922 132.7437286376953 91.81663513183594" stroke-width="3.0" fill="none" stroke="rgb(0, 0, 0)" stroke-opacity="1.0" stroke-linecap="round" stroke-linejoin="round"/>
    <path d="M 73.14801788330078 28.548463821411133 C 93.3694076538086 -12.25925350189209 170.9556884765625 12.585074424743652 190.5997772216797 45.6192626953125" stroke-width="3.0" fill="none" stroke="rgb(0, 0, 0)" stroke-opacity="1.0" stroke-linecap="round" stroke-linejoin="round"/>
    <path d="M 117.22016906738281 131.9966278076172 C 168.36322021484375 137.33975219726562 206.5341796875 137.1987762451172 120.48893737792969 132.0906982421875" stroke-width="3.0" fill="none" stroke="rgb(0, 0, 0)" stroke-opacity="1.0" stroke-linecap="round" stroke-linejoin="round"/>
    <path d="M 80.96731567382812 126.14563751220703 C 74.30828857421875 145.02835083007812 36.6130485534668 159.53289794921875 33.12869644165039 132.2061004638672" stroke-width="3.0" fill="none" stroke="rgb(0, 0, 0)" stroke-opacity="1.0" stroke-linecap="round" stroke-linejoin="round"/>
    <path d="M 172.6350860595703 145.1058349609375 C 197.79217529296875 153.63670349121094 179.63671875 101.50402069091797 178.17352294921875 133.06585693359375" stroke-width="3.0" fill="none" stroke="rgb(0, 0, 0)" stroke-opacity="1.0" stroke-linecap="round" stroke-linejoin="round"/>
    <path d="M 168.9032745361328 199.06846618652344 C 100.56686401367188 188.59512329101562 99.74267578125 188.0286865234375 158.37799072265625 198.56536865234375" stroke-width="3.0" fill="none" stroke="rgb(0, 0, 0)" stroke-opacity="1.0" stroke-linecap="round" stroke-linejoin="round"/>
    <path d="M 72.81334686279297 109.58551025390625 C 70.93167877197266 139.5077667236328 56.545127868652344 155.16915893554688 45.139686584472656 121.11416625976562" stroke-width="3.0" fill="none" stroke="rgb(0, 0, 0)" stroke-opacity="1.0" stroke-linecap="round" stroke-linejoin="round"/>
    <path d="M 115.39079284667969 88.52437591552734 C 93.67742919921875 91.47425842285156 51.732208251953125 88.72590637207031 109.5176773071289 89.36425018310547" stroke-width="3.0" fill="none" stroke="rgb(0, 0, 0)" stroke-opacity="1.0" stroke-linecap="round" stroke-linejoin="round"/>
    <path d="M 76.48478698730469 112.80156707763672 C 79.48033905029297 104.0478744506836 109.86542510986328 120.41631317138672 50.23944091796875 118.8984603881836" stroke-width="3.0" fill="none" stroke="rgb(0, 0, 0)" stroke-opacity="1.0" stroke-linecap="round" stroke-linejoin="round"/>
    <path d="M 153.1009063720703 100.00778198242188 C 87.86144256591797 95.0928726196289 158.6875457763672 100.46845245361328 163.99595642089844 99.05342864990234" stroke-width="3.0" fill="none" stroke="rgb(0, 0, 0)" stroke-opacity="1.0" stroke-linecap="round" stroke-linejoin="round"/>
    <path d="M 93.40895080566406 120.13062286376953 C 69.64910888671875 150.0358428955078 118.00868225097656 149.355224609375 84.5267105102539 149.89498901367188" stroke-width="3.0" fill="none" stroke="rgb(0, 0, 0)" stroke-opacity="1.0" stroke-linecap="round" stroke-linejoin="round"/>
    <path d="M 25.138071060180664 52.338905334472656 C 20.025997161865234 67.45867919921875 -0.6420413255691528 96.87454223632812 7.709769248962402 129.13626098632812" stroke-width="3.0" fill="none" stroke="rgb(0, 0, 0)" stroke-opacity="1.0" stroke-linecap="round" stroke-linejoin="round"/>
    <path d="M 185.47012329101562 189.58642578125 C 190.8498992919922 181.01092529296875 224.63446044921875 149.3743896484375 217.2886505126953 96.30888366699219" stroke-width="3.0" fill="none" stroke="rgb(0, 0, 0)" stroke-opacity="1.0" stroke-linecap="round" stroke-linejoin="round"/>
    <path d="M 155.2567901611328 111.7012939453125 C 235.0787353515625 112.83064270019531 216.05601501464844 102.0513687133789 172.98544311523438 98.21770477294922" stroke-width="3.0" fill="none" stroke="rgb(0, 0, 0)" stroke-opacity="1.0" stroke-linecap="round" stroke-linejoin="round"/>
    <path d="M 131.08261108398438 102.54847717285156 C 267.34063720703125 120.72217559814453 147.44451904296875 98.88797760009766 175.4750518798828 141.78292846679688" stroke-width="3.0" fill="none" stroke="rgb(0, 0, 0)" stroke-opacity="1.0" stroke-linecap="round" stroke-linejoin="round"/>
    <path d="M 150.2483673095703 93.93130493164062 C 143.1937255859375 58.89485168457031 121.12885284423828 122.12493896484375 136.58126831054688 83.48599243164062" stroke-width="3.0" fill="none" stroke="rgb(0, 0, 0)" stroke-opacity="1.0" stroke-linecap="round" stroke-linejoin="round"/>
    <path d="M 62.911373138427734 141.12725830078125 C 140.45391845703125 166.645263671875 88.74759674072266 97.97272491455078 101.26087951660156 126.6432876586914" stroke-width="3.0" fill="none" stroke="rgb(0, 0, 0)" stroke-opacity="1.0" stroke-linecap="round" stroke-linejoin="round"/>
    <path d="M 174.5070037841797 118.8210678100586 C 184.33486938476562 112.19328308105469 197.8651123046875 130.17227172851562 182.09043884277344 138.19830322265625" stroke-width="3.0" fill="none" stroke="rgb(0, 0, 0)" stroke-opacity="1.0" stroke-linecap="round" stroke-linejoin="round"/>
    <path d="M 137.35006713867188 92.75497436523438 C 104.7428970336914 102.41699981689453 193.75686645507812 107.08746337890625 135.85643005371094 99.83600616455078" stroke-width="3.0" fill="none" stroke="rgb(0, 0, 0)" stroke-opacity="1.0" stroke-linecap="round" stroke-linejoin="round"/>
    <path d="M 60.257102966308594 14.02161979675293 C 96.9608383178711 -13.275812149047852 99.93363189697266 -10.751352310180664 65.70387268066406 8.997358322143555" stroke-width="3.0" fill="none" stroke="rgb(0, 0, 0)" stroke-opacity="1.0" stroke-linecap="round" stroke-linejoin="round"/>
    <path d="M 24.926637649536133 121.75838470458984 C 98.23954772949219 140.95953369140625 105.30109405517578 149.2823944091797 32.03445816040039 139.10256958007812" stroke-width="3.0" fill="none" stroke="rgb(0, 0, 0)" stroke-opacity="1.0" stroke-linecap="round" stroke-linejoin="round"/>
    <path d="M 172.9652099609375 143.96835327148438 C 168.7575225830078 102.01826477050781 204.40415954589844 112.31493377685547 181.33145141601562 140.57098388671875" stroke-width="3.0" fill="none" stroke="rgb(0, 0, 0)" stroke-opacity="1.0" stroke-linecap="round" stroke-linejoin="round"/>
    <path d="M 53.43466567993164 145.04470825195312 C 5.789902210235596 117.59649658203125 21.436155319213867 79.01177978515625 70.66919708251953 108.48612976074219" stroke-width="3.0" fill="none" stroke="rgb(0, 0, 0)" stroke-opacity="1.0" stroke-linecap="round" stroke-linejoin="round"/>
    <path d="M 7.922722816467285 119.42906951904297 C 13.594590187072754 186.8478240966797 80.47705841064453 221.27984619140625 114.30741882324219 215.05108642578125" stroke-width="3.0" fill="none" stroke="rgb(0, 0, 0)" stroke-opacity="1.0" stroke-linecap="round" stroke-linejoin="round"/>
    <path d="M 59.893150329589844 154.9242706298828 C 179.68603515625 152.3984375 196.3724822998047 146.74794006347656 111.44586181640625 148.95962524414062" stroke-width="3.0" fill="none" stroke="rgb(0, 0, 0)" stroke-opacity="1.0" stroke-linecap="round" stroke-linejoin="round"/>
    <path d="M 171.9700469970703 113.57771301269531 C 140.65158081054688 106.7721939086914 121.03186798095703 104.23075103759766 193.7926483154297 111.5634994506836" stroke-width="3.0" fill="none" stroke="rgb(0, 0, 0)" stroke-opacity="1.0" stroke-linecap="round" stroke-linejoin="round"/>
    <path d="M 42.3095588684082 98.07352447509766 C 31.11859130859375 124.25914764404297 62.6328010559082 81.24751281738281 54.58545684814453 117.59757995605469" stroke-width="3.0" fill="none" stroke="rgb(0, 0, 0)" stroke-opacity="1.0" stroke-linecap="round" stroke-linejoin="round"/>
    <path d="M 28.492490768432617 117.4393081665039 C 113.51420593261719 121.64430236816406 71.71279907226562 123.0002212524414 97.67046356201172 108.36552429199219" stroke-width="3.0" fill="none" stroke="rgb(0, 0, 0)" stroke-opacity="1.0" stroke-linecap="round" stroke-linejoin="round"/>
    <path d="M 25.9147891998291 50.59212875366211 C 46.095001220703125 21.633607864379883 42.41323471069336 24.9112491607666 66.426513671875 8.983922004699707" stroke-width="3.0" fill="none" stroke="rgb(0, 0, 0)" stroke-opacity="1.0" stroke-linecap="round" stroke-linejoin="round"/>
    <path d="M 183.82931518554688 142.06248474121094 C 188.45127868652344 143.29086303710938 93.10224914550781 145.00071716308594 121.82054901123047 132.39527893066406" stroke-width="3.0" fill="none" stroke="rgb(0, 0, 0)" stroke-opacity="1.0" stroke-linecap="round" stroke-linejoin="round"/>
    <path d="M 42.91017150878906 125.90653991699219 C 84.7597885131836 129.0731201171875 121.10042572021484 125.23917388916016 31.0961971282959 128.90594482421875" stroke-width="3.0" fill="none" stroke="rgb(0, 0, 0)" stroke-opacity="1.0" stroke-linecap="round" stroke-linejoin="round"/>
    <path d="M 102.4614486694336 86.00804138183594 C 88.29367065429688 88.83419036865234 120.33382415771484 84.67076110839844 110.13189697265625 81.63964080810547" stroke-width="3.0" fill="none" stroke="rgb(0, 0, 0)" stroke-opacity="1.0" stroke-linecap="round" stroke-linejoin="round"/>
    <path d="M 165.8112030029297 100.37212371826172 C 177.8001708984375 92.64521026611328 127.21704864501953 70.50262451171875 104.78292846679688 85.17769622802734" stroke-width="3.0" fill="none" stroke="rgb(0, 0, 0)" stroke-opacity="1.0" stroke-linecap="round" stroke-linejoin="round"/>
  </g>
</svg>
