<?xml version="1.0" ?>
<svg xmlns="http://www.w3.org/2000/svg" version="1.1" width="224" height="224">
  <defs/>
  <g>
    <path d="M 73.41954803466797 113.1043930053711 C 120.66316223144531 79.68412017822266 119.02446746826172 169.50352478027344 84.69522094726562 149.12213134765625" stroke-width="3.0" fill="none" stroke="rgb(0, 0, 0)" stroke-opacity="1.0" stroke-linecap="round" stroke-linejoin="round"/>
    <path d="M 88.78023529052734 127.97718048095703 C 110.22863006591797 163.62655639648438 85.82627868652344 138.5649871826172 65.42044067382812 138.93121337890625" stroke-width="3.0" fill="none" stroke="rgb(0, 0, 0)" stroke-opacity="1.0" stroke-linecap="round" stroke-linejoin="round"/>
    <path d="M 77.30900573730469 138.76560974121094 C 47.565025329589844 143.66099548339844 60.12519836425781 147.2475128173828 83.40836334228516 141.66847229003906" stroke-width="3.0" fill="none" stroke="rgb(0, 0, 0)" stroke-opacity="1.0" stroke-linecap="round" stroke-linejoin="round"/>
    <path d="M 32.81626510620117 120.08118438720703 C 125.8819580078125 129.55482482910156 70.30628967285156 137.88540649414062 98.27681732177734 139.8528594970703" stroke-width="3.0" fill="none" stroke="rgb(0, 0, 0)" stroke-opacity="1.0" stroke-linecap="round" stroke-linejoin="round"/>
    <path d="M 132.50152587890625 82.6854248046875 C 185.27146911621094 105.04772186279297 197.27230834960938 119.5995864868164 148.6704864501953 90.84740447998047" stroke-width="3.0" fill="none" stroke="rgb(0, 0, 0)" stroke-opacity="1.0" stroke-linecap="round" stroke-linejoin="round"/>
    <path d="M 171.2163543701172 147.03793334960938 C 165.04869079589844 102.06407928466797 208.6278839111328 134.49734497070312 116.74978637695312 110.12580871582031" stroke-width="3.0" fill="none" stroke="rgb(0, 0, 0)" stroke-opacity="1.0" stroke-linecap="round" stroke-linejoin="round"/>
    <path d="M 35.08152770996094 102.59080505371094 C 260.8388671875 122.44692993164062 167.65878295898438 85.03324127197266 32.325714111328125 95.9027099609375" stroke-width="3.0" fill="none" stroke="rgb(0, 0, 0)" stroke-opacity="1.0" stroke-linecap="round" stroke-linejoin="round"/>
    <path d="M 99.27278900146484 131.9212188720703 C 104.72041320800781 105.94660949707031 79.32719421386719 148.94699096679688 56.91806411743164 128.85601806640625" stroke-width="3.0" fill="none" stroke="rgb(0, 0, 0)" stroke-opacity="1.0" stroke-linecap="round" stroke-linejoin="round"/>
    <path d="M 116.58138275146484 214.1500244140625 C 162.15249633789062 205.2944793701172 175.42559814453125 194.3918914794922 184.0003204345703 189.9539031982422" stroke-width="3.0" fill="none" stroke="rgb(0, 0, 0)" stroke-opacity="1.0" stroke-linecap="round" stroke-linejoin="round"/>
    <path d="M 138.71104431152344 105.90400695800781 C 218.68963623046875 107.21070098876953 186.65081787109375 127.01587677001953 196.91818237304688 110.55654907226562" stroke-width="3.0" fill="none" stroke="rgb(0, 0, 0)" stroke-opacity="1.0" stroke-linecap="round" stroke-linejoin="round"/>
    <path d="M 107.79045867919922 110.3902359008789 C 126.5975570678711 146.78146362304688 72.07132720947266 144.56924438476562 167.76803588867188 135.9237823486328" stroke-width="3.0" fill="none" stroke="rgb(0, 0, 0)" stroke-opacity="1.0" stroke-linecap="round" stroke-linejoin="round"/>
    <path d="M 34.265289306640625 99.75452423095703 C 105.87318420410156 109.10591125488281 78.88330841064453 125.07421112060547 28.633134841918945 116.1109619140625" stroke-width="3.0" fill="none" stroke="rgb(0, 0, 0)" stroke-opacity="1.0" stroke-linecap="round" stroke-linejoin="round"/>
    <path d="M 180.69125366210938 102.2393569946289 C 148.8878936767578 104.41105651855469 167.62850952148438 95.24420928955078 66.2999496459961 98.83468627929688" stroke-width="3.0" fill="none" stroke="rgb(0, 0, 0)" stroke-opacity="1.0" stroke-linecap="round" stroke-linejoin="round"/>
    <path d="M 25.348817825317383 163.6092529296875 C 73.57916259765625 226.0699005126953 118.15523529052734 215.57632446289062 162.48565673828125 195.72373962402344" stroke-width="3.0" fill="none" stroke="rgb(0, 0, 0)" stroke-opacity="1.0" stroke-linecap="round" stroke-linejoin="round"/>
    <path d="M 181.7586212158203 31.879756927490234 C 187.35646057128906 39.61595916748047 233.1932373046875 80.39883422851562 214.2628173828125 137.33660888671875" stroke-width="3.0" fill="none" stroke="rgb(0, 0, 0)" stroke-opacity="1.0" stroke-linecap="round" stroke-linejoin="round"/>
    <path d="M 93.15745544433594 93.59136962890625 C 128.4586944580078 67.08473205566406 168.2970428466797 95.44544982910156 144.721923828125 87.937255859375" stroke-width="3.0" fill="none" stroke="rgb(0, 0, 0)" stroke-opacity="1.0" stroke-linecap="round" stroke-linejoin="round"/>
    <path d="M 69.21043395996094 37.32310104370117 C 84.64588165283203 -17.948081970214844 170.211669921875 8.658032417297363 193.99789428710938 45.15471267700195" stroke-width="3.0" fill="none" stroke="rgb(0, 0, 0)" stroke-opacity="1.0" stroke-linecap="round" stroke-linejoin="round"/>
    <path d="M 108.12329864501953 150.1326446533203 C 166.13328552246094 143.764892578125 205.01580810546875 146.87753295898438 107.47401428222656 143.40390014648438" stroke-width="3.0" fill="none" stroke="rgb(0, 0, 0)" stroke-opacity="1.0" stroke-linecap="round" stroke-linejoin="round"/>
    <path d="M 63.13036346435547 127.57067108154297 C 74.07979583740234 144.04920959472656 36.12568664550781 162.22828674316406 49.715328216552734 112.04705047607422" stroke-width="3.0" fill="none" stroke="rgb(0, 0, 0)" stroke-opacity="1.0" stroke-linecap="round" stroke-linejoin="round"/>
    <path d="M 174.55145263671875 147.1221923828125 C 204.6133270263672 140.2063751220703 173.12115478515625 96.8375244140625 178.71974182128906 139.9073944091797" stroke-width="3.0" fill="none" stroke="rgb(0, 0, 0)" stroke-opacity="1.0" stroke-linecap="round" stroke-linejoin="round"/>
    <path d="M 186.8427276611328 184.66259765625 C 169.98681640625 189.62808227539062 184.36135864257812 188.2802734375 168.99200439453125 191.12698364257812" stroke-width="3.0" fill="none" stroke="rgb(0, 0, 0)" stroke-opacity="1.0" stroke-linecap="round" stroke-linejoin="round"/>
    <path d="M 61.690921783447266 124.19817352294922 C 112.541259765625 125.85822296142578 66.37995147705078 139.20201110839844 45.41252136230469 127.96980285644531" stroke-width="3.0" fill="none" stroke="rgb(0, 0, 0)" stroke-opacity="1.0" stroke-linecap="round" stroke-linejoin="round"/>
    <path d="M 116.462158203125 82.02904510498047 C 109.66019439697266 89.34302520751953 80.4308853149414 92.22882843017578 115.2811279296875 81.67469787597656" stroke-width="3.0" fill="none" stroke="rgb(0, 0, 0)" stroke-opacity="1.0" stroke-linecap="round" stroke-linejoin="round"/>
    <path d="M 52.52350997924805 116.75343322753906 C 90.86074829101562 109.57272338867188 132.52716064453125 140.0009307861328 29.819154739379883 125.66033935546875" stroke-width="3.0" fill="none" stroke="rgb(0, 0, 0)" stroke-opacity="1.0" stroke-linecap="round" stroke-linejoin="round"/>
    <path d="M 152.12661743164062 120.16567993164062 C 42.49338912963867 117.0396728515625 169.13563537597656 111.97454071044922 170.78041076660156 105.41888427734375" stroke-width="3.0" fill="none" stroke="rgb(0, 0, 0)" stroke-opacity="1.0" stroke-linecap="round" stroke-linejoin="round"/>
    <path d="M 88.41338348388672 105.09952545166016 C 59.740074157714844 140.52589416503906 112.90313720703125 160.61639404296875 81.5854721069336 148.63697814941406" stroke-width="3.0" fill="none" stroke="rgb(0, 0, 0)" stroke-opacity="1.0" stroke-linecap="round" stroke-linejoin="round"/>
    <path d="M 25.2147216796875 48.20002365112305 C 20.831253051757812 64.14785766601562 -1.0139704942703247 95.94355773925781 12.17822265625 137.99343872070312" stroke-width="3.0" fill="none" stroke="rgb(0, 0, 0)" stroke-opacity="1.0" stroke-linecap="round" stroke-linejoin="round"/>
    <path d="M 182.71304321289062 191.72715759277344 C 187.81051635742188 183.82310485839844 226.56956481933594 137.24276733398438 216.84909057617188 100.97098541259766" stroke-width="3.0" fill="none" stroke="rgb(0, 0, 0)" stroke-opacity="1.0" stroke-linecap="round" stroke-linejoin="round"/>
    <path d="M 132.0800323486328 97.8827896118164 C 229.95384216308594 111.42292785644531 200.78562927246094 110.75235748291016 170.969970703125 104.83849334716797" stroke-width="3.0" fill="none" stroke="rgb(0, 0, 0)" stroke-opacity="1.0" stroke-linecap="round" stroke-linejoin="round"/>
    <path d="M 132.7644805908203 89.49555206298828 C 249.73855590820312 118.80702209472656 144.30653381347656 102.67677307128906 175.15911865234375 147.4230499267578" stroke-width="3.0" fill="none" stroke="rgb(0, 0, 0)" stroke-opacity="1.0" stroke-linecap="round" stroke-linejoin="round"/>
    <path d="M 158.8984375 108.6981430053711 C 135.8125457763672 54.12571716308594 122.85163879394531 131.84249877929688 130.7985382080078 82.28557586669922" stroke-width="3.0" fill="none" stroke="rgb(0, 0, 0)" stroke-opacity="1.0" stroke-linecap="round" stroke-linejoin="round"/>
    <path d="M 63.91865158081055 142.84664916992188 C 141.51087951660156 164.72640991210938 88.58511352539062 75.3529052734375 88.0534896850586 134.74588012695312" stroke-width="3.0" fill="none" stroke="rgb(0, 0, 0)" stroke-opacity="1.0" stroke-linecap="round" stroke-linejoin="round"/>
    <path d="M 160.87144470214844 105.54845428466797 C 181.34959411621094 84.54216003417969 202.0452117919922 140.11732482910156 182.40652465820312 146.4905242919922" stroke-width="3.0" fill="none" stroke="rgb(0, 0, 0)" stroke-opacity="1.0" stroke-linecap="round" stroke-linejoin="round"/>
    <path d="M 79.36347961425781 99.34043884277344 C 75.76032257080078 102.08175659179688 192.74725341796875 103.2137680053711 158.6021270751953 110.11209869384766" stroke-width="3.0" fill="none" stroke="rgb(0, 0, 0)" stroke-opacity="1.0" stroke-linecap="round" stroke-linejoin="round"/>
    <path d="M 58.89977264404297 11.66434097290039 C 93.17597961425781 -17.255451202392578 102.26046752929688 -14.588519096374512 67.5376968383789 2.862478733062744" stroke-width="3.0" fill="none" stroke="rgb(0, 0, 0)" stroke-opacity="1.0" stroke-linecap="round" stroke-linejoin="round"/>
    <path d="M 29.353456497192383 127.14846801757812 C 93.48619079589844 142.25413513183594 99.44054412841797 152.7013702392578 24.373369216918945 148.18930053710938" stroke-width="3.0" fill="none" stroke="rgb(0, 0, 0)" stroke-opacity="1.0" stroke-linecap="round" stroke-linejoin="round"/>
    <path d="M 180.2789764404297 135.4545440673828 C 150.40176391601562 105.05609893798828 204.7469482421875 118.14237976074219 189.55726623535156 121.65532684326172" stroke-width="3.0" fill="none" stroke="rgb(0, 0, 0)" stroke-opacity="1.0" stroke-linecap="round" stroke-linejoin="round"/>
    <path d="M 68.58073425292969 125.37882232666016 C 6.85723876953125 133.37770080566406 23.536176681518555 88.604248046875 72.7791519165039 102.9735336303711" stroke-width="3.0" fill="none" stroke="rgb(0, 0, 0)" stroke-opacity="1.0" stroke-linecap="round" stroke-linejoin="round"/>
    <path d="M 9.791176795959473 120.32710266113281 C 12.897549629211426 186.487548828125 80.2435302734375 225.61309814453125 133.27471923828125 212.17593383789062" stroke-width="3.0" fill="none" stroke="rgb(0, 0, 0)" stroke-opacity="1.0" stroke-linecap="round" stroke-linejoin="round"/>
    <path d="M 52.02485275268555 152.6121826171875 C 189.62025451660156 154.78016662597656 233.70582580566406 139.7624053955078 106.67832946777344 152.38592529296875" stroke-width="3.0" fill="none" stroke="rgb(0, 0, 0)" stroke-opacity="1.0" stroke-linecap="round" stroke-linejoin="round"/>
    <path d="M 172.85142517089844 119.0979995727539 C 111.50438690185547 114.89527130126953 99.86546325683594 102.21868133544922 194.38621520996094 115.4731674194336" stroke-width="3.0" fill="none" stroke="rgb(0, 0, 0)" stroke-opacity="1.0" stroke-linecap="round" stroke-linejoin="round"/>
    <path d="M 44.47510528564453 96.32086181640625 C 45.34419250488281 129.1079559326172 89.948486328125 71.87855529785156 68.95610046386719 117.38368225097656" stroke-width="3.0" fill="none" stroke="rgb(0, 0, 0)" stroke-opacity="1.0" stroke-linecap="round" stroke-linejoin="round"/>
    <path d="M 30.245038986206055 123.8382797241211 C 124.3200912475586 119.14823913574219 83.95630645751953 143.9920654296875 95.51460266113281 115.78108215332031" stroke-width="3.0" fill="none" stroke="rgb(0, 0, 0)" stroke-opacity="1.0" stroke-linecap="round" stroke-linejoin="round"/>
    <path d="M 26.774246215820312 47.26994323730469 C 45.635311126708984 20.865503311157227 45.7830810546875 25.403982162475586 64.95832061767578 4.815683364868164" stroke-width="3.0" fill="none" stroke="rgb(0, 0, 0)" stroke-opacity="1.0" stroke-linecap="round" stroke-linejoin="round"/>
    <path d="M 176.8037109375 145.7005615234375 C 177.00257873535156 138.1160888671875 48.38543701171875 151.8119354248047 127.25283813476562 148.4348602294922" stroke-width="3.0" fill="none" stroke="rgb(0, 0, 0)" stroke-opacity="1.0" stroke-linecap="round" stroke-linejoin="round"/>
    <path d="M 25.91292381286621 120.80216979980469 C 80.7412338256836 131.5040283203125 112.3427963256836 128.24241638183594 46.401954650878906 127.8357162475586" stroke-width="3.0" fill="none" stroke="rgb(0, 0, 0)" stroke-opacity="1.0" stroke-linecap="round" stroke-linejoin="round"/>
    <path d="M 104.21678161621094 88.7665023803711 C 99.10678100585938 94.4134521484375 130.33236694335938 79.68585968017578 130.17918395996094 81.68083190917969" stroke-width="3.0" fill="none" stroke="rgb(0, 0, 0)" stroke-opacity="1.0" stroke-linecap="round" stroke-linejoin="round"/>
    <path d="M 156.16464233398438 97.93185424804688 C 182.6678924560547 92.4869384765625 117.81388092041016 72.69487762451172 100.92638397216797 86.12761688232422" stroke-width="3.0" fill="none" stroke="rgb(0, 0, 0)" stroke-opacity="1.0" stroke-linecap="round" stroke-linejoin="round"/>
  </g>
</svg>
