<?xml version="1.0" ?>
<svg xmlns="http://www.w3.org/2000/svg" version="1.1" width="224" height="224">
  <defs/>
  <g>
    <path d="M 67.0124740600586 112.51795196533203 C 129.96864318847656 89.47607421875 121.86871337890625 161.64425659179688 87.34444427490234 151.77005004882812" stroke-width="3.0" fill="none" stroke="rgb(0, 0, 0)" stroke-opacity="1.0" stroke-linecap="round" stroke-linejoin="round"/>
    <path d="M 70.11798858642578 138.62481689453125 C 104.62489318847656 153.387939453125 79.02906799316406 147.55958557128906 73.50453186035156 129.7041473388672" stroke-width="3.0" fill="none" stroke="rgb(0, 0, 0)" stroke-opacity="1.0" stroke-linecap="round" stroke-linejoin="round"/>
    <path d="M 86.7767105102539 138.6455841064453 C 35.19066619873047 148.7606201171875 47.568302154541016 143.48779296875 84.08087158203125 145.0006866455078" stroke-width="3.0" fill="none" stroke="rgb(0, 0, 0)" stroke-opacity="1.0" stroke-linecap="round" stroke-linejoin="round"/>
    <path d="M 42.76439666748047 124.84086608886719 C 111.85643005371094 127.84579467773438 68.9866943359375 111.10811614990234 86.04456329345703 150.02658081054688" stroke-width="3.0" fill="none" stroke="rgb(0, 0, 0)" stroke-opacity="1.0" stroke-linecap="round" stroke-linejoin="round"/>
    <path d="M 117.27506256103516 80.50102996826172 C 195.44786071777344 99.94171905517578 193.63816833496094 121.07794189453125 128.06182861328125 95.70394134521484" stroke-width="3.0" fill="none" stroke="rgb(0, 0, 0)" stroke-opacity="1.0" stroke-linecap="round" stroke-linejoin="round"/>
    <path d="M 169.4796142578125 139.4090576171875 C 168.3157958984375 98.6626968383789 217.27084350585938 130.2552032470703 127.009521484375 113.41184997558594" stroke-width="3.0" fill="none" stroke="rgb(0, 0, 0)" stroke-opacity="1.0" stroke-linecap="round" stroke-linejoin="round"/>
    <path d="M 42.68087387084961 99.23168182373047 C 222.26148986816406 122.84476470947266 162.19403076171875 88.71167755126953 41.56473922729492 93.00355529785156" stroke-width="3.0" fill="none" stroke="rgb(0, 0, 0)" stroke-opacity="1.0" stroke-linecap="round" stroke-linejoin="round"/>
    <path d="M 100.3509750366211 132.8065643310547 C 109.83551788330078 103.57709503173828 68.34725189208984 138.33108520507812 40.82373809814453 128.6943817138672" stroke-width="3.0" fill="none" stroke="rgb(0, 0, 0)" stroke-opacity="1.0" stroke-linecap="round" stroke-linejoin="round"/>
    <path d="M 122.03044128417969 215.127197265625 C 173.07913208007812 203.61880493164062 170.0092315673828 195.7413330078125 183.4666290283203 188.70997619628906" stroke-width="3.0" fill="none" stroke="rgb(0, 0, 0)" stroke-opacity="1.0" stroke-linecap="round" stroke-linejoin="round"/>
    <path d="M 137.8855438232422 110.38391876220703 C 214.1376190185547 108.75446319580078 186.2002716064453 125.6541748046875 193.88510131835938 110.73834228515625" stroke-width="3.0" fill="none" stroke="rgb(0, 0, 0)" stroke-opacity="1.0" stroke-linecap="round" stroke-linejoin="round"/>
    <path d="M 104.25542449951172 106.22505187988281 C 135.80702209472656 127.37727355957031 91.49735260009766 139.8422393798828 166.7334747314453 131.60516357421875" stroke-width="3.0" fill="none" stroke="rgb(0, 0, 0)" stroke-opacity="1.0" stroke-linecap="round" stroke-linejoin="round"/>
    <path d="M 33.31952667236328 105.86211395263672 C 120.62820434570312 107.71697998046875 92.40010833740234 118.52630615234375 30.513137817382812 116.50281524658203" stroke-width="3.0" fill="none" stroke="rgb(0, 0, 0)" stroke-opacity="1.0" stroke-linecap="round" stroke-linejoin="round"/>
    <path d="M 174.60540771484375 106.34767150878906 C 140.63865661621094 118.77364349365234 167.90652465820312 103.97962951660156 74.9769515991211 101.41925048828125" stroke-width="3.0" fill="none" stroke="rgb(0, 0, 0)" stroke-opacity="1.0" stroke-linecap="round" stroke-linejoin="round"/>
    <path d="M 23.08747100830078 166.90097045898438 C 75.34248352050781 223.33377075195312 117.43433380126953 215.69851684570312 166.3851318359375 195.0663604736328" stroke-width="3.0" fill="none" stroke="rgb(0, 0, 0)" stroke-opacity="1.0" stroke-linecap="round" stroke-linejoin="round"/>
    <path d="M 179.0432891845703 30.268516540527344 C 189.02413940429688 36.30986404418945 231.6935577392578 81.34652709960938 213.46206665039062 138.68243408203125" stroke-width="3.0" fill="none" stroke="rgb(0, 0, 0)" stroke-opacity="1.0" stroke-linecap="round" stroke-linejoin="round"/>
    <path d="M 92.3915023803711 93.6307373046875 C 131.93032836914062 67.15340423583984 165.22573852539062 89.86561584472656 141.2729949951172 87.54812622070312" stroke-width="3.0" fill="none" stroke="rgb(0, 0, 0)" stroke-opacity="1.0" stroke-linecap="round" stroke-linejoin="round"/>
    <path d="M 75.05847930908203 36.260169982910156 C 91.88127899169922 -19.51333236694336 169.4295654296875 8.93997573852539 192.22198486328125 44.032081604003906" stroke-width="3.0" fill="none" stroke="rgb(0, 0, 0)" stroke-opacity="1.0" stroke-linecap="round" stroke-linejoin="round"/>
    <path d="M 114.58096313476562 143.38229370117188 C 169.7548065185547 145.85385131835938 209.96173095703125 131.73934936523438 114.2032241821289 141.82667541503906" stroke-width="3.0" fill="none" stroke="rgb(0, 0, 0)" stroke-opacity="1.0" stroke-linecap="round" stroke-linejoin="round"/>
    <path d="M 77.2788314819336 124.21700286865234 C 76.09545135498047 143.03614807128906 35.23634719848633 160.7682647705078 38.86751937866211 117.47034454345703" stroke-width="3.0" fill="none" stroke="rgb(0, 0, 0)" stroke-opacity="1.0" stroke-linecap="round" stroke-linejoin="round"/>
    <path d="M 174.5135498046875 146.25172424316406 C 205.04855346679688 144.6904296875 175.04537963867188 96.5970687866211 176.74501037597656 138.27931213378906" stroke-width="3.0" fill="none" stroke="rgb(0, 0, 0)" stroke-opacity="1.0" stroke-linecap="round" stroke-linejoin="round"/>
    <path d="M 184.90968322753906 185.92648315429688 C 168.3780059814453 188.73536682128906 186.5159912109375 185.5005340576172 169.7659912109375 190.92628479003906" stroke-width="3.0" fill="none" stroke="rgb(0, 0, 0)" stroke-opacity="1.0" stroke-linecap="round" stroke-linejoin="round"/>
    <path d="M 67.00888061523438 110.92512512207031 C 109.77108001708984 127.32362365722656 65.69338989257812 137.159912109375 41.92173385620117 130.7146453857422" stroke-width="3.0" fill="none" stroke="rgb(0, 0, 0)" stroke-opacity="1.0" stroke-linecap="round" stroke-linejoin="round"/>
    <path d="M 118.88002014160156 83.3753433227539 C 103.93407440185547 90.33751678466797 74.31645965576172 96.63245391845703 113.14954376220703 81.57772827148438" stroke-width="3.0" fill="none" stroke="rgb(0, 0, 0)" stroke-opacity="1.0" stroke-linecap="round" stroke-linejoin="round"/>
    <path d="M 68.80574798583984 110.85460662841797 C 77.7537612915039 99.09172821044922 110.59679412841797 129.27337646484375 43.93699264526367 118.68376922607422" stroke-width="3.0" fill="none" stroke="rgb(0, 0, 0)" stroke-opacity="1.0" stroke-linecap="round" stroke-linejoin="round"/>
    <path d="M 149.41888427734375 119.46664428710938 C 54.493587493896484 103.4979248046875 163.374755859375 120.74205017089844 156.434326171875 97.86229705810547" stroke-width="3.0" fill="none" stroke="rgb(0, 0, 0)" stroke-opacity="1.0" stroke-linecap="round" stroke-linejoin="round"/>
    <path d="M 92.94770812988281 109.56004333496094 C 63.682281494140625 143.365234375 119.01922607421875 153.2571258544922 83.07579040527344 142.31097412109375" stroke-width="3.0" fill="none" stroke="rgb(0, 0, 0)" stroke-opacity="1.0" stroke-linecap="round" stroke-linejoin="round"/>
    <path d="M 25.54865837097168 50.2235221862793 C 18.722957611083984 65.29927062988281 -1.294958472251892 97.33023071289062 7.4829936027526855 132.36216735839844" stroke-width="3.0" fill="none" stroke="rgb(0, 0, 0)" stroke-opacity="1.0" stroke-linecap="round" stroke-linejoin="round"/>
    <path d="M 182.49627685546875 188.64744567871094 C 187.0245819091797 182.19769287109375 226.9788818359375 142.55227661132812 216.9143829345703 93.46104431152344" stroke-width="3.0" fill="none" stroke="rgb(0, 0, 0)" stroke-opacity="1.0" stroke-linecap="round" stroke-linejoin="round"/>
    <path d="M 142.95706176757812 110.3962631225586 C 207.66920471191406 120.1171646118164 198.12005615234375 106.0620346069336 164.7802734375 107.89405822753906" stroke-width="3.0" fill="none" stroke="rgb(0, 0, 0)" stroke-opacity="1.0" stroke-linecap="round" stroke-linejoin="round"/>
    <path d="M 136.7821502685547 99.41753387451172 C 262.1981506347656 122.4584732055664 142.47906494140625 100.1363754272461 175.2662811279297 144.85704040527344" stroke-width="3.0" fill="none" stroke="rgb(0, 0, 0)" stroke-opacity="1.0" stroke-linecap="round" stroke-linejoin="round"/>
    <path d="M 163.2500457763672 100.42833709716797 C 141.45693969726562 53.96238708496094 124.54718017578125 127.8154296875 135.89495849609375 81.23857116699219" stroke-width="3.0" fill="none" stroke="rgb(0, 0, 0)" stroke-opacity="1.0" stroke-linecap="round" stroke-linejoin="round"/>
    <path d="M 70.21770477294922 138.90611267089844 C 137.2213592529297 167.4171600341797 91.12330627441406 79.79508972167969 89.7471694946289 132.9910430908203" stroke-width="3.0" fill="none" stroke="rgb(0, 0, 0)" stroke-opacity="1.0" stroke-linecap="round" stroke-linejoin="round"/>
    <path d="M 167.9373779296875 109.86624145507812 C 183.74671936035156 90.06210327148438 197.0743865966797 129.5394744873047 181.83311462402344 140.48666381835938" stroke-width="3.0" fill="none" stroke="rgb(0, 0, 0)" stroke-opacity="1.0" stroke-linecap="round" stroke-linejoin="round"/>
    <path d="M 139.16368103027344 89.1336898803711 C 117.1359634399414 110.35855865478516 194.31797790527344 97.23763275146484 140.76165771484375 103.26602172851562" stroke-width="3.0" fill="none" stroke="rgb(0, 0, 0)" stroke-opacity="1.0" stroke-linecap="round" stroke-linejoin="round"/>
    <path d="M 64.12306213378906 20.08685302734375 C 99.84661102294922 -10.26004409790039 107.33906555175781 -7.229428768157959 70.87174987792969 12.954980850219727" stroke-width="3.0" fill="none" stroke="rgb(0, 0, 0)" stroke-opacity="1.0" stroke-linecap="round" stroke-linejoin="round"/>
    <path d="M 26.898849487304688 117.05496978759766 C 90.92308807373047 143.19898986816406 98.57444763183594 146.7360076904297 26.151823043823242 141.4257354736328" stroke-width="3.0" fill="none" stroke="rgb(0, 0, 0)" stroke-opacity="1.0" stroke-linecap="round" stroke-linejoin="round"/>
    <path d="M 180.92266845703125 135.71319580078125 C 156.37123107910156 100.3875961303711 201.33343505859375 118.55719757080078 186.05380249023438 133.00973510742188" stroke-width="3.0" fill="none" stroke="rgb(0, 0, 0)" stroke-opacity="1.0" stroke-linecap="round" stroke-linejoin="round"/>
    <path d="M 68.67584228515625 123.9621810913086 C 10.89033031463623 127.40991973876953 24.691072463989258 84.48168182373047 69.67029571533203 99.95081329345703" stroke-width="3.0" fill="none" stroke="rgb(0, 0, 0)" stroke-opacity="1.0" stroke-linecap="round" stroke-linejoin="round"/>
    <path d="M 6.765923023223877 119.9975357055664 C 12.217360496520996 187.4256591796875 79.06025695800781 224.71209716796875 129.2978973388672 212.35128784179688" stroke-width="3.0" fill="none" stroke="rgb(0, 0, 0)" stroke-opacity="1.0" stroke-linecap="round" stroke-linejoin="round"/>
    <path d="M 61.8690299987793 150.39236450195312 C 187.96881103515625 150.3341827392578 221.32565307617188 140.463134765625 107.51068115234375 147.5307159423828" stroke-width="3.0" fill="none" stroke="rgb(0, 0, 0)" stroke-opacity="1.0" stroke-linecap="round" stroke-linejoin="round"/>
    <path d="M 175.16348266601562 111.33773803710938 C 140.9894256591797 115.36083221435547 129.44369506835938 101.52001190185547 187.3379364013672 117.77000427246094" stroke-width="3.0" fill="none" stroke="rgb(0, 0, 0)" stroke-opacity="1.0" stroke-linecap="round" stroke-linejoin="round"/>
    <path d="M 31.936906814575195 98.72559356689453 C 34.276954650878906 121.59105682373047 90.98392486572266 67.79473876953125 71.00735473632812 119.19728088378906" stroke-width="3.0" fill="none" stroke="rgb(0, 0, 0)" stroke-opacity="1.0" stroke-linecap="round" stroke-linejoin="round"/>
    <path d="M 28.215194702148438 114.29818725585938 C 123.85355377197266 117.94217681884766 75.37125396728516 138.78652954101562 97.27003479003906 117.57269287109375" stroke-width="3.0" fill="none" stroke="rgb(0, 0, 0)" stroke-opacity="1.0" stroke-linecap="round" stroke-linejoin="round"/>
    <path d="M 26.813966751098633 48.64579772949219 C 49.77117919921875 25.39801597595215 43.13934326171875 26.76556396484375 71.9124984741211 13.108345031738281" stroke-width="3.0" fill="none" stroke="rgb(0, 0, 0)" stroke-opacity="1.0" stroke-linecap="round" stroke-linejoin="round"/>
    <path d="M 172.101806640625 142.3251495361328 C 179.96328735351562 141.06298828125 51.283470153808594 146.8265380859375 140.99655151367188 145.37310791015625" stroke-width="3.0" fill="none" stroke="rgb(0, 0, 0)" stroke-opacity="1.0" stroke-linecap="round" stroke-linejoin="round"/>
    <path d="M 38.77092361450195 117.49201202392578 C 81.70600128173828 129.9486083984375 113.47647094726562 128.6219482421875 40.079437255859375 129.1704864501953" stroke-width="3.0" fill="none" stroke="rgb(0, 0, 0)" stroke-opacity="1.0" stroke-linecap="round" stroke-linejoin="round"/>
    <path d="M 103.263427734375 84.33232116699219 C 89.49427032470703 84.51116943359375 124.61837005615234 79.64506530761719 118.70027923583984 80.83079528808594" stroke-width="3.0" fill="none" stroke="rgb(0, 0, 0)" stroke-opacity="1.0" stroke-linecap="round" stroke-linejoin="round"/>
    <path d="M 161.7655487060547 102.78314208984375 C 181.2716522216797 91.54194641113281 122.8956069946289 69.56986236572266 96.58805847167969 84.58003234863281" stroke-width="3.0" fill="none" stroke="rgb(0, 0, 0)" stroke-opacity="1.0" stroke-linecap="round" stroke-linejoin="round"/>
  </g>
</svg>
