<?xml version="1.0" ?>
<svg xmlns="http://www.w3.org/2000/svg" version="1.1" width="224" height="224">
  <defs/>
  <g>
    <path d="M 105.11231231689453 102.99700164794922 C 123.97314453125 108.07655334472656 120.66740417480469 117.24854278564453 123.57516479492188 130.00186157226562" stroke-width="3.0" fill="none" stroke="rgb(0, 0, 0)" stroke-opacity="1.0" stroke-linecap="round" stroke-linejoin="round"/>
    <path d="M 58.230323791503906 141.80035400390625 C 77.81427001953125 146.3038787841797 72.04485321044922 145.00621032714844 74.5123519897461 132.5472869873047" stroke-width="3.0" fill="none" stroke="rgb(0, 0, 0)" stroke-opacity="1.0" stroke-linecap="round" stroke-linejoin="round"/>
    <path d="M 37.578948974609375 117.95288848876953 C 16.88473129272461 115.96670532226562 33.34085464477539 136.29339599609375 73.43550109863281 142.13026428222656" stroke-width="3.0" fill="none" stroke="rgb(0, 0, 0)" stroke-opacity="1.0" stroke-linecap="round" stroke-linejoin="round"/>
    <path d="M 43.44905471801758 123.68452453613281 C 88.01082611083984 123.88324737548828 88.49032592773438 134.96530151367188 75.00727081298828 106.27804565429688" stroke-width="3.0" fill="none" stroke="rgb(0, 0, 0)" stroke-opacity="1.0" stroke-linecap="round" stroke-linejoin="round"/>
    <path d="M 124.37350463867188 111.58390808105469 C 184.16586303710938 119.33759307861328 172.53466796875 104.03266143798828 95.75291442871094 96.81561279296875" stroke-width="3.0" fill="none" stroke="rgb(0, 0, 0)" stroke-opacity="1.0" stroke-linecap="round" stroke-linejoin="round"/>
    <path d="M 174.9941864013672 125.54827117919922 C 173.84341430664062 117.28154754638672 170.0441436767578 125.62767028808594 144.14915466308594 117.2127456665039" stroke-width="3.0" fill="none" stroke="rgb(0, 0, 0)" stroke-opacity="1.0" stroke-linecap="round" stroke-linejoin="round"/>
    <path d="M 74.45404052734375 101.27841186523438 C 118.73221588134766 100.77617645263672 110.1007308959961 102.3899154663086 59.64494323730469 109.47550964355469" stroke-width="3.0" fill="none" stroke="rgb(0, 0, 0)" stroke-opacity="1.0" stroke-linecap="round" stroke-linejoin="round"/>
    <path d="M 81.3304443359375 133.44326782226562 C 91.39816284179688 143.2208251953125 73.4876480102539 137.4342803955078 49.908897399902344 135.8544464111328" stroke-width="3.0" fill="none" stroke="rgb(0, 0, 0)" stroke-opacity="1.0" stroke-linecap="round" stroke-linejoin="round"/>
    <path d="M 170.14498901367188 189.8354949951172 C 165.10604858398438 199.88848876953125 166.8721466064453 192.7821502685547 174.5503387451172 188.77169799804688" stroke-width="3.0" fill="none" stroke="rgb(0, 0, 0)" stroke-opacity="1.0" stroke-linecap="round" stroke-linejoin="round"/>
    <path d="M 163.52072143554688 102.82373809814453 C 178.51280212402344 106.11859130859375 180.31097412109375 101.08360290527344 193.26824951171875 115.43136596679688" stroke-width="3.0" fill="none" stroke="rgb(0, 0, 0)" stroke-opacity="1.0" stroke-linecap="round" stroke-linejoin="round"/>
    <path d="M 113.60589599609375 110.03654479980469 C 122.00494384765625 126.02022552490234 117.10299682617188 152.2238006591797 136.7652587890625 136.22293090820312" stroke-width="3.0" fill="none" stroke="rgb(0, 0, 0)" stroke-opacity="1.0" stroke-linecap="round" stroke-linejoin="round"/>
    <path d="M 29.987878799438477 104.5195083618164 C 101.2735595703125 105.16608428955078 80.7940902709961 111.10317993164062 54.41411590576172 120.86053466796875" stroke-width="3.0" fill="none" stroke="rgb(0, 0, 0)" stroke-opacity="1.0" stroke-linecap="round" stroke-linejoin="round"/>
    <path d="M 160.40298461914062 121.64043426513672 C 126.81117248535156 119.01512145996094 143.09320068359375 120.64393615722656 142.004638671875 116.7018814086914" stroke-width="3.0" fill="none" stroke="rgb(0, 0, 0)" stroke-opacity="1.0" stroke-linecap="round" stroke-linejoin="round"/>
    <path d="M 108.68881225585938 179.41001892089844 C 107.35580444335938 176.39300537109375 111.40629577636719 185.0153045654297 107.88195037841797 180.87008666992188" stroke-width="3.0" fill="none" stroke="rgb(0, 0, 0)" stroke-opacity="1.0" stroke-linecap="round" stroke-linejoin="round"/>
    <path d="M 169.71591186523438 24.476364135742188 C 188.47315979003906 37.05055236816406 216.03797912597656 61.73052978515625 220.6186065673828 113.59856414794922" stroke-width="3.0" fill="none" stroke="rgb(0, 0, 0)" stroke-opacity="1.0" stroke-linecap="round" stroke-linejoin="round"/>
    <path d="M 101.90785217285156 81.92456817626953 C 150.0791473388672 80.21015167236328 142.64756774902344 79.05973052978516 127.82772064208984 99.79695892333984" stroke-width="3.0" fill="none" stroke="rgb(0, 0, 0)" stroke-opacity="1.0" stroke-linecap="round" stroke-linejoin="round"/>
    <path d="M 106.75831604003906 11.361370086669922 C 144.30616760253906 4.9012980461120605 164.76243591308594 18.55793571472168 178.85873413085938 34.454776763916016" stroke-width="3.0" fill="none" stroke="rgb(0, 0, 0)" stroke-opacity="1.0" stroke-linecap="round" stroke-linejoin="round"/>
    <path d="M 136.67242431640625 134.814697265625 C 142.46063232421875 148.7835693359375 123.1206283569336 143.81944274902344 130.51995849609375 137.2374725341797" stroke-width="3.0" fill="none" stroke="rgb(0, 0, 0)" stroke-opacity="1.0" stroke-linecap="round" stroke-linejoin="round"/>
    <path d="M 73.17003631591797 137.14910888671875 C 52.66000747680664 144.5694122314453 62.02544403076172 147.80569458007812 32.90311813354492 142.60072326660156" stroke-width="3.0" fill="none" stroke="rgb(0, 0, 0)" stroke-opacity="1.0" stroke-linecap="round" stroke-linejoin="round"/>
    <path d="M 169.90773010253906 131.84765625 C 193.1478729248047 169.1221466064453 187.22415161132812 98.1877212524414 179.510498046875 128.2253875732422" stroke-width="3.0" fill="none" stroke="rgb(0, 0, 0)" stroke-opacity="1.0" stroke-linecap="round" stroke-linejoin="round"/>
    <path d="M 116.6725845336914 197.2090301513672 C 106.34867858886719 187.4347381591797 105.93505096435547 181.41551208496094 111.45502471923828 192.45240783691406" stroke-width="3.0" fill="none" stroke="rgb(0, 0, 0)" stroke-opacity="1.0" stroke-linecap="round" stroke-linejoin="round"/>
    <path d="M 48.0879020690918 145.6309356689453 C 55.86314392089844 119.52346801757812 55.665992736816406 134.69813537597656 31.756885528564453 127.19466400146484" stroke-width="3.0" fill="none" stroke="rgb(0, 0, 0)" stroke-opacity="1.0" stroke-linecap="round" stroke-linejoin="round"/>
    <path d="M 67.98678588867188 102.22383117675781 C 60.44903564453125 106.47594451904297 1.5787097215652466 102.31071472167969 48.46125411987305 101.61774444580078" stroke-width="3.0" fill="none" stroke="rgb(0, 0, 0)" stroke-opacity="1.0" stroke-linecap="round" stroke-linejoin="round"/>
    <path d="M 68.16952514648438 118.881591796875 C 76.55479431152344 113.0865707397461 84.15008544921875 116.65023803710938 59.585243225097656 108.2357177734375" stroke-width="3.0" fill="none" stroke="rgb(0, 0, 0)" stroke-opacity="1.0" stroke-linecap="round" stroke-linejoin="round"/>
    <path d="M 151.03427124023438 99.45005798339844 C 118.11885070800781 88.95401000976562 152.34352111816406 113.2634048461914 165.57830810546875 96.67070770263672" stroke-width="3.0" fill="none" stroke="rgb(0, 0, 0)" stroke-opacity="1.0" stroke-linecap="round" stroke-linejoin="round"/>
    <path d="M 94.07071685791016 108.96031188964844 C 70.42948913574219 133.00082397460938 82.56100463867188 193.23361206054688 82.1983871459961 137.9998321533203" stroke-width="3.0" fill="none" stroke="rgb(0, 0, 0)" stroke-opacity="1.0" stroke-linecap="round" stroke-linejoin="round"/>
    <path d="M 16.392799377441406 81.84412384033203 C 20.044719696044922 78.39205932617188 12.273004531860352 76.11650848388672 11.43635368347168 109.02984619140625" stroke-width="3.0" fill="none" stroke="rgb(0, 0, 0)" stroke-opacity="1.0" stroke-linecap="round" stroke-linejoin="round"/>
    <path d="M 178.0597381591797 185.71974182128906 C 188.8642120361328 166.8641815185547 187.10946655273438 180.84495544433594 204.51025390625 150.47418212890625" stroke-width="3.0" fill="none" stroke="rgb(0, 0, 0)" stroke-opacity="1.0" stroke-linecap="round" stroke-linejoin="round"/>
    <path d="M 158.83692932128906 111.06710052490234 C 212.19381713867188 120.02423858642578 213.1877899169922 114.28580474853516 156.46681213378906 107.33475494384766" stroke-width="3.0" fill="none" stroke="rgb(0, 0, 0)" stroke-opacity="1.0" stroke-linecap="round" stroke-linejoin="round"/>
    <path d="M 150.75535583496094 102.63581848144531 C 202.19808959960938 111.79553985595703 190.61727905273438 101.1976318359375 170.17498779296875 126.75698852539062" stroke-width="3.0" fill="none" stroke="rgb(0, 0, 0)" stroke-opacity="1.0" stroke-linecap="round" stroke-linejoin="round"/>
    <path d="M 142.27655029296875 102.7397232055664 C 145.92343139648438 98.81202697753906 131.40052795410156 114.98814392089844 141.403076171875 85.66294860839844" stroke-width="3.0" fill="none" stroke="rgb(0, 0, 0)" stroke-opacity="1.0" stroke-linecap="round" stroke-linejoin="round"/>
    <path d="M 93.43423461914062 150.40809631347656 C 126.93083190917969 148.29600524902344 110.16372680664062 92.07667541503906 86.1380615234375 116.12810516357422" stroke-width="3.0" fill="none" stroke="rgb(0, 0, 0)" stroke-opacity="1.0" stroke-linecap="round" stroke-linejoin="round"/>
    <path d="M 193.3518829345703 116.8079605102539 C 195.75021362304688 115.24220275878906 184.3037109375 120.98758697509766 193.028076171875 125.48857116699219" stroke-width="3.0" fill="none" stroke="rgb(0, 0, 0)" stroke-opacity="1.0" stroke-linecap="round" stroke-linejoin="round"/>
    <path d="M 152.96072387695312 119.4151382446289 C 141.94322204589844 97.94019317626953 180.2549285888672 99.8619613647461 144.20559692382812 100.44902801513672" stroke-width="3.0" fill="none" stroke="rgb(0, 0, 0)" stroke-opacity="1.0" stroke-linecap="round" stroke-linejoin="round"/>
    <path d="M 66.84043884277344 21.6072940826416 C 80.0775375366211 32.87053298950195 78.54651641845703 28.210891723632812 63.97671127319336 23.05171775817871" stroke-width="3.0" fill="none" stroke="rgb(0, 0, 0)" stroke-opacity="1.0" stroke-linecap="round" stroke-linejoin="round"/>
    <path d="M 38.85651779174805 139.95352172851562 C 79.79737854003906 144.20761108398438 69.7834701538086 140.4383544921875 54.99279022216797 142.97845458984375" stroke-width="3.0" fill="none" stroke="rgb(0, 0, 0)" stroke-opacity="1.0" stroke-linecap="round" stroke-linejoin="round"/>
    <path d="M 175.13357543945312 138.9965057373047 C 167.58889770507812 103.93216705322266 197.04368591308594 108.36560821533203 188.41436767578125 136.599853515625" stroke-width="3.0" fill="none" stroke="rgb(0, 0, 0)" stroke-opacity="1.0" stroke-linecap="round" stroke-linejoin="round"/>
    <path d="M 45.6853141784668 137.02511596679688 C 33.50398254394531 105.58497619628906 30.795923233032227 97.45729064941406 70.1239242553711 115.57788848876953" stroke-width="3.0" fill="none" stroke="rgb(0, 0, 0)" stroke-opacity="1.0" stroke-linecap="round" stroke-linejoin="round"/>
    <path d="M 67.43174743652344 184.55140686035156 C 78.41617584228516 179.3330078125 71.11650848388672 185.7062530517578 97.06212615966797 189.8915557861328" stroke-width="3.0" fill="none" stroke="rgb(0, 0, 0)" stroke-opacity="1.0" stroke-linecap="round" stroke-linejoin="round"/>
    <path d="M 122.5846939086914 125.17695617675781 C 124.10884857177734 150.61605834960938 127.43682098388672 129.4245147705078 125.68184661865234 137.97496032714844" stroke-width="3.0" fill="none" stroke="rgb(0, 0, 0)" stroke-opacity="1.0" stroke-linecap="round" stroke-linejoin="round"/>
    <path d="M 152.25161743164062 112.69627380371094 C 155.97508239746094 117.2490005493164 133.02447509765625 113.81511688232422 181.96116638183594 115.9950180053711" stroke-width="3.0" fill="none" stroke="rgb(0, 0, 0)" stroke-opacity="1.0" stroke-linecap="round" stroke-linejoin="round"/>
    <path d="M 87.74938201904297 118.12295532226562 C 85.43387603759766 125.08663940429688 47.06294250488281 113.73421478271484 44.166107177734375 100.70640563964844" stroke-width="3.0" fill="none" stroke="rgb(0, 0, 0)" stroke-opacity="1.0" stroke-linecap="round" stroke-linejoin="round"/>
    <path d="M 30.399288177490234 113.63198852539062 C 72.10330963134766 122.3330078125 100.25186920166016 121.01802825927734 85.18412780761719 110.82164001464844" stroke-width="3.0" fill="none" stroke="rgb(0, 0, 0)" stroke-opacity="1.0" stroke-linecap="round" stroke-linejoin="round"/>
    <path d="M 20.158823013305664 60.47834777832031 C 39.17940139770508 27.32248878479004 36.165592193603516 42.05850601196289 51.261783599853516 27.016332626342773" stroke-width="3.0" fill="none" stroke="rgb(0, 0, 0)" stroke-opacity="1.0" stroke-linecap="round" stroke-linejoin="round"/>
    <path d="M 172.01882934570312 134.7236785888672 C 151.33132934570312 135.27023315429688 145.73155212402344 136.5774383544922 118.89641571044922 137.1571044921875" stroke-width="3.0" fill="none" stroke="rgb(0, 0, 0)" stroke-opacity="1.0" stroke-linecap="round" stroke-linejoin="round"/>
    <path d="M 27.21165657043457 124.89277648925781 C 44.38816452026367 129.84884643554688 65.65079498291016 124.99459838867188 32.16513442993164 124.5348892211914" stroke-width="3.0" fill="none" stroke="rgb(0, 0, 0)" stroke-opacity="1.0" stroke-linecap="round" stroke-linejoin="round"/>
    <path d="M 86.65119934082031 90.52526092529297 C 112.55054473876953 73.24453735351562 111.74951934814453 85.8616943359375 108.14075469970703 92.44239807128906" stroke-width="3.0" fill="none" stroke="rgb(0, 0, 0)" stroke-opacity="1.0" stroke-linecap="round" stroke-linejoin="round"/>
    <path d="M 170.0380401611328 98.21360778808594 C 168.26611328125 87.80000305175781 143.07106018066406 87.04994201660156 143.75172424316406 87.3035888671875" stroke-width="3.0" fill="none" stroke="rgb(0, 0, 0)" stroke-opacity="1.0" stroke-linecap="round" stroke-linejoin="round"/>
  </g>
</svg>
