<?xml version="1.0" ?>
<svg xmlns="http://www.w3.org/2000/svg" version="1.1" width="224" height="224">
  <defs/>
  <g>
    <path d="M 135.65560913085938 117.96810913085938 C 167.3323974609375 115.69790649414062 163.08981323242188 103.98651885986328 172.15728759765625 108.82467651367188" stroke-width="3.0" fill="none" stroke="rgb(0, 0, 0)" stroke-opacity="1.0" stroke-linecap="round" stroke-linejoin="round"/>
    <path d="M 106.41185760498047 153.60992431640625 C 56.12615203857422 181.7976531982422 72.35614013671875 179.5473175048828 152.93629455566406 152.52069091796875" stroke-width="3.0" fill="none" stroke="rgb(0, 0, 0)" stroke-opacity="1.0" stroke-linecap="round" stroke-linejoin="round"/>
    <path d="M 142.0132293701172 150.6856689453125 C 152.40512084960938 155.86126708984375 110.23567962646484 126.72753143310547 145.6294403076172 85.4638671875" stroke-width="3.0" fill="none" stroke="rgb(0, 0, 0)" stroke-opacity="1.0" stroke-linecap="round" stroke-linejoin="round"/>
    <path d="M 146.64939880371094 142.9853057861328 C 179.41456604003906 104.67174530029297 169.00074768066406 119.46704864501953 193.833984375 127.29562377929688" stroke-width="3.0" fill="none" stroke="rgb(0, 0, 0)" stroke-opacity="1.0" stroke-linecap="round" stroke-linejoin="round"/>
    <path d="M 152.65341186523438 73.32685089111328 C 229.63592529296875 72.08536529541016 224.5757598876953 159.18365478515625 157.88861083984375 155.78781127929688" stroke-width="3.0" fill="none" stroke="rgb(0, 0, 0)" stroke-opacity="1.0" stroke-linecap="round" stroke-linejoin="round"/>
    <path d="M 95.25361633300781 176.66200256347656 C 98.65747833251953 162.6339111328125 98.48750305175781 182.03489685058594 107.55805206298828 153.71832275390625" stroke-width="3.0" fill="none" stroke="rgb(0, 0, 0)" stroke-opacity="1.0" stroke-linecap="round" stroke-linejoin="round"/>
    <path d="M 96.54368591308594 119.28018951416016 C 134.6726837158203 126.11832427978516 89.02351379394531 90.62720489501953 112.18357849121094 131.18252563476562" stroke-width="3.0" fill="none" stroke="rgb(0, 0, 0)" stroke-opacity="1.0" stroke-linecap="round" stroke-linejoin="round"/>
    <path d="M 81.98291015625 191.46099853515625 C 188.95228576660156 185.2780303955078 164.94459533691406 180.29608154296875 49.484004974365234 186.08091735839844" stroke-width="3.0" fill="none" stroke="rgb(0, 0, 0)" stroke-opacity="1.0" stroke-linecap="round" stroke-linejoin="round"/>
    <path d="M 181.16627502441406 179.9562225341797 C 166.70668029785156 219.52621459960938 125.17558288574219 180.4965057373047 157.91986083984375 170.17494201660156" stroke-width="3.0" fill="none" stroke="rgb(0, 0, 0)" stroke-opacity="1.0" stroke-linecap="round" stroke-linejoin="round"/>
    <path d="M 152.76535034179688 82.96538543701172 C 193.4109344482422 74.54560852050781 219.88967895507812 121.01177215576172 182.33322143554688 146.7451629638672" stroke-width="3.0" fill="none" stroke="rgb(0, 0, 0)" stroke-opacity="1.0" stroke-linecap="round" stroke-linejoin="round"/>
    <path d="M 185.41183471679688 185.21328735351562 C 179.17681884765625 153.6490478515625 176.5315704345703 201.7393035888672 181.6824493408203 180.1022491455078" stroke-width="3.0" fill="none" stroke="rgb(0, 0, 0)" stroke-opacity="1.0" stroke-linecap="round" stroke-linejoin="round"/>
    <path d="M 139.7864227294922 154.9125213623047 C 122.61072540283203 148.3609161376953 130.90460205078125 147.43116760253906 140.74464416503906 148.88438415527344" stroke-width="3.0" fill="none" stroke="rgb(0, 0, 0)" stroke-opacity="1.0" stroke-linecap="round" stroke-linejoin="round"/>
    <path d="M 162.27066040039062 147.8073272705078 C 167.25624084472656 118.40113067626953 166.9609375 103.53760528564453 177.33551025390625 148.90203857421875" stroke-width="3.0" fill="none" stroke="rgb(0, 0, 0)" stroke-opacity="1.0" stroke-linecap="round" stroke-linejoin="round"/>
    <path d="M 149.20274353027344 174.62428283691406 C 152.16847229003906 214.52511596679688 192.58346557617188 173.11279296875 157.54180908203125 170.0196533203125" stroke-width="3.0" fill="none" stroke="rgb(0, 0, 0)" stroke-opacity="1.0" stroke-linecap="round" stroke-linejoin="round"/>
    <path d="M 84.62225341796875 57.624114990234375 C 124.61983489990234 37.62556457519531 189.10195922851562 89.00643920898438 163.81202697753906 39.73085021972656" stroke-width="3.0" fill="none" stroke="rgb(0, 0, 0)" stroke-opacity="1.0" stroke-linecap="round" stroke-linejoin="round"/>
    <path d="M 64.18059539794922 27.319311141967773 C 83.57392120361328 27.121458053588867 80.22406005859375 27.13163185119629 98.38040924072266 112.10997009277344" stroke-width="3.0" fill="none" stroke="rgb(0, 0, 0)" stroke-opacity="1.0" stroke-linecap="round" stroke-linejoin="round"/>
    <path d="M 64.93699645996094 22.573230743408203 C 127.04993438720703 28.08902931213379 72.23604583740234 29.714778900146484 63.246456146240234 23.7270565032959" stroke-width="3.0" fill="none" stroke="rgb(0, 0, 0)" stroke-opacity="1.0" stroke-linecap="round" stroke-linejoin="round"/>
    <path d="M 48.86090850830078 191.70201110839844 C 145.16403198242188 192.75965881347656 94.68733978271484 182.232666015625 53.50314712524414 174.2539825439453" stroke-width="3.0" fill="none" stroke="rgb(0, 0, 0)" stroke-opacity="1.0" stroke-linecap="round" stroke-linejoin="round"/>
    <path d="M 134.52728271484375 186.25357055664062 C 142.88780212402344 135.0469207763672 205.8988800048828 180.92820739746094 166.9886932373047 163.46954345703125" stroke-width="3.0" fill="none" stroke="rgb(0, 0, 0)" stroke-opacity="1.0" stroke-linecap="round" stroke-linejoin="round"/>
    <path d="M 52.74402618408203 184.10577392578125 C 117.96548461914062 186.19683837890625 109.64262390136719 167.5495147705078 57.00724792480469 174.2011260986328" stroke-width="3.0" fill="none" stroke="rgb(0, 0, 0)" stroke-opacity="1.0" stroke-linecap="round" stroke-linejoin="round"/>
    <path d="M 49.936317443847656 183.08241271972656 C 123.11668395996094 175.9107666015625 114.63995361328125 175.94505310058594 51.93792724609375 179.35072326660156" stroke-width="3.0" fill="none" stroke="rgb(0, 0, 0)" stroke-opacity="1.0" stroke-linecap="round" stroke-linejoin="round"/>
    <path d="M 102.95734405517578 186.11468505859375 C 97.15682220458984 169.06581115722656 111.44410705566406 185.3180694580078 76.75574493408203 184.2436065673828" stroke-width="3.0" fill="none" stroke="rgb(0, 0, 0)" stroke-opacity="1.0" stroke-linecap="round" stroke-linejoin="round"/>
    <path d="M 177.99240112304688 87.56280517578125 C 175.66197204589844 103.50432586669922 181.25839233398438 57.75197982788086 173.42001342773438 116.1102523803711" stroke-width="3.0" fill="none" stroke="rgb(0, 0, 0)" stroke-opacity="1.0" stroke-linecap="round" stroke-linejoin="round"/>
    <path d="M 105.533203125 170.0834503173828 C 35.18791198730469 171.82339477539062 56.00313949584961 177.25502014160156 70.07503509521484 175.46449279785156" stroke-width="3.0" fill="none" stroke="rgb(0, 0, 0)" stroke-opacity="1.0" stroke-linecap="round" stroke-linejoin="round"/>
    <path d="M 73.79973602294922 71.89854431152344 C 80.28936004638672 63.171566009521484 64.1085433959961 34.966007232666016 166.721435546875 52.21036148071289" stroke-width="3.0" fill="none" stroke="rgb(0, 0, 0)" stroke-opacity="1.0" stroke-linecap="round" stroke-linejoin="round"/>
    <path d="M 132.08506774902344 155.63037109375 C 153.03509521484375 154.40628051757812 126.36071014404297 142.60940551757812 130.34388732910156 159.75543212890625" stroke-width="3.0" fill="none" stroke="rgb(0, 0, 0)" stroke-opacity="1.0" stroke-linecap="round" stroke-linejoin="round"/>
    <path d="M 156.20980834960938 58.931819915771484 C 162.4285888671875 36.1904182434082 219.9516143798828 34.98052215576172 146.58445739746094 46.36872100830078" stroke-width="3.0" fill="none" stroke="rgb(0, 0, 0)" stroke-opacity="1.0" stroke-linecap="round" stroke-linejoin="round"/>
    <path d="M 55.46771240234375 177.63902282714844 C 51.71982955932617 184.52806091308594 41.51584243774414 200.02606201171875 54.23603057861328 173.0069122314453" stroke-width="3.0" fill="none" stroke="rgb(0, 0, 0)" stroke-opacity="1.0" stroke-linecap="round" stroke-linejoin="round"/>
    <path d="M 188.41876220703125 92.75704193115234 C 162.3740234375 121.15301513671875 159.44740295410156 117.97977447509766 177.79220581054688 86.60216522216797" stroke-width="3.0" fill="none" stroke="rgb(0, 0, 0)" stroke-opacity="1.0" stroke-linecap="round" stroke-linejoin="round"/>
    <path d="M 141.39979553222656 58.06252670288086 C 115.651123046875 101.88697052001953 97.63516235351562 151.1119384765625 111.7318344116211 116.18490600585938" stroke-width="3.0" fill="none" stroke="rgb(0, 0, 0)" stroke-opacity="1.0" stroke-linecap="round" stroke-linejoin="round"/>
    <path d="M 177.21678161621094 38.11805725097656 C 143.15765380859375 69.35730743408203 117.47184753417969 -11.082383155822754 164.22190856933594 119.08513641357422" stroke-width="3.0" fill="none" stroke="rgb(0, 0, 0)" stroke-opacity="1.0" stroke-linecap="round" stroke-linejoin="round"/>
    <path d="M 58.261436462402344 187.98471069335938 C 107.6125259399414 182.46763610839844 131.0061492919922 183.1136932373047 51.01795196533203 179.752197265625" stroke-width="3.0" fill="none" stroke="rgb(0, 0, 0)" stroke-opacity="1.0" stroke-linecap="round" stroke-linejoin="round"/>
    <path d="M 89.8287582397461 56.715572357177734 C 114.58209228515625 154.27273559570312 130.3802947998047 128.94813537597656 53.17746353149414 114.9596939086914" stroke-width="3.0" fill="none" stroke="rgb(0, 0, 0)" stroke-opacity="1.0" stroke-linecap="round" stroke-linejoin="round"/>
    <path d="M 185.59600830078125 139.8351593017578 C 163.88780212402344 109.68596649169922 172.49490356445312 114.97169494628906 186.38394165039062 110.00537109375" stroke-width="3.0" fill="none" stroke="rgb(0, 0, 0)" stroke-opacity="1.0" stroke-linecap="round" stroke-linejoin="round"/>
    <path d="M 81.48773956298828 30.93419075012207 C 36.292030334472656 22.168298721313477 56.84849166870117 28.420917510986328 76.65449523925781 33.165199279785156" stroke-width="3.0" fill="none" stroke="rgb(0, 0, 0)" stroke-opacity="1.0" stroke-linecap="round" stroke-linejoin="round"/>
    <path d="M 40.699275970458984 149.0371551513672 C 61.37424850463867 157.0392608642578 86.71065521240234 142.2356414794922 89.3356704711914 122.69731140136719" stroke-width="3.0" fill="none" stroke="rgb(0, 0, 0)" stroke-opacity="1.0" stroke-linecap="round" stroke-linejoin="round"/>
    <path d="M 163.4487762451172 117.26802062988281 C 124.3407974243164 135.3822784423828 142.54115295410156 128.51846313476562 138.2750244140625 131.5260467529297" stroke-width="3.0" fill="none" stroke="rgb(0, 0, 0)" stroke-opacity="1.0" stroke-linecap="round" stroke-linejoin="round"/>
    <path d="M 45.75823211669922 150.98336791992188 C 17.40325355529785 142.70086669921875 0.9603667259216309 95.3148422241211 41.74333953857422 76.25921630859375" stroke-width="3.0" fill="none" stroke="rgb(0, 0, 0)" stroke-opacity="1.0" stroke-linecap="round" stroke-linejoin="round"/>
    <path d="M 182.760498046875 178.30197143554688 C 174.94143676757812 191.64520263671875 196.80958557128906 186.6366729736328 171.38116455078125 164.40786743164062" stroke-width="3.0" fill="none" stroke="rgb(0, 0, 0)" stroke-opacity="1.0" stroke-linecap="round" stroke-linejoin="round"/>
    <path d="M 170.57772827148438 156.2620849609375 C 96.28820037841797 138.18849182128906 181.05381774902344 156.83738708496094 132.944091796875 153.7850799560547" stroke-width="3.0" fill="none" stroke="rgb(0, 0, 0)" stroke-opacity="1.0" stroke-linecap="round" stroke-linejoin="round"/>
    <path d="M 28.406705856323242 83.09139251708984 C 87.66525268554688 45.62558364868164 109.81339263916016 131.3185272216797 83.81465911865234 112.67829895019531" stroke-width="3.0" fill="none" stroke="rgb(0, 0, 0)" stroke-opacity="1.0" stroke-linecap="round" stroke-linejoin="round"/>
    <path d="M 105.22219848632812 114.93748474121094 C 93.55133819580078 149.62905883789062 95.40797424316406 115.3006362915039 72.74533081054688 86.67559051513672" stroke-width="3.0" fill="none" stroke="rgb(0, 0, 0)" stroke-opacity="1.0" stroke-linecap="round" stroke-linejoin="round"/>
    <path d="M 69.17359161376953 180.7257080078125 C 107.97259521484375 142.03614807128906 127.24029541015625 151.08834838867188 146.07421875 150.00100708007812" stroke-width="3.0" fill="none" stroke="rgb(0, 0, 0)" stroke-opacity="1.0" stroke-linecap="round" stroke-linejoin="round"/>
    <path d="M 84.9803237915039 32.30951690673828 C 90.10468292236328 60.31163024902344 90.2205581665039 37.464298248291016 74.61267852783203 69.55757904052734" stroke-width="3.0" fill="none" stroke="rgb(0, 0, 0)" stroke-opacity="1.0" stroke-linecap="round" stroke-linejoin="round"/>
    <path d="M 130.80923461914062 152.347412109375 C 204.26544189453125 157.49708557128906 134.37045288085938 138.66261291503906 137.409423828125 187.049072265625" stroke-width="3.0" fill="none" stroke="rgb(0, 0, 0)" stroke-opacity="1.0" stroke-linecap="round" stroke-linejoin="round"/>
    <path d="M 101.82938385009766 112.78766632080078 C 124.04310607910156 165.48687744140625 121.7723388671875 118.05557250976562 98.17414093017578 131.6835174560547" stroke-width="3.0" fill="none" stroke="rgb(0, 0, 0)" stroke-opacity="1.0" stroke-linecap="round" stroke-linejoin="round"/>
    <path d="M 177.1736297607422 51.85054016113281 C 168.9600067138672 40.815887451171875 189.41943359375 44.91304016113281 177.3412628173828 40.594329833984375" stroke-width="3.0" fill="none" stroke="rgb(0, 0, 0)" stroke-opacity="1.0" stroke-linecap="round" stroke-linejoin="round"/>
    <path d="M 94.17224884033203 54.48005676269531 C 76.6741714477539 66.38103485107422 93.29658508300781 47.08711242675781 54.5738525390625 117.48222351074219" stroke-width="3.0" fill="none" stroke="rgb(0, 0, 0)" stroke-opacity="1.0" stroke-linecap="round" stroke-linejoin="round"/>
  </g>
</svg>
