<?xml version="1.0" ?>
<svg xmlns="http://www.w3.org/2000/svg" version="1.1" width="224" height="224">
  <defs/>
  <g>
    <path d="M 77.21442413330078 111.45748901367188 C 85.19561767578125 142.04229736328125 84.54853057861328 137.34249877929688 80.684326171875 125.61449432373047" stroke-width="3.0" fill="none" stroke="rgb(0, 0, 0)" stroke-opacity="1.0" stroke-linecap="round" stroke-linejoin="round"/>
    <path d="M 109.54352569580078 161.27854919433594 C 54.312522888183594 164.57521057128906 54.852088928222656 141.90240478515625 85.05947875976562 138.60040283203125" stroke-width="3.0" fill="none" stroke="rgb(0, 0, 0)" stroke-opacity="1.0" stroke-linecap="round" stroke-linejoin="round"/>
    <path d="M 83.85894012451172 147.9234619140625 C 85.31527709960938 127.206787109375 78.74066925048828 138.44973754882812 93.61580657958984 154.21502685546875" stroke-width="3.0" fill="none" stroke="rgb(0, 0, 0)" stroke-opacity="1.0" stroke-linecap="round" stroke-linejoin="round"/>
    <path d="M 151.2261199951172 77.6266860961914 C 149.28799438476562 89.45042419433594 152.96035766601562 102.38321685791016 133.28233337402344 152.68618774414062" stroke-width="3.0" fill="none" stroke="rgb(0, 0, 0)" stroke-opacity="1.0" stroke-linecap="round" stroke-linejoin="round"/>
    <path d="M 150.32647705078125 98.32010650634766 C 170.1916961669922 77.88925170898438 205.6772918701172 114.98860931396484 147.1436004638672 119.20787811279297" stroke-width="3.0" fill="none" stroke="rgb(0, 0, 0)" stroke-opacity="1.0" stroke-linecap="round" stroke-linejoin="round"/>
    <path d="M 105.48045349121094 157.66656494140625 C 87.39727020263672 154.76315307617188 85.32935333251953 145.619873046875 87.03215026855469 147.97373962402344" stroke-width="3.0" fill="none" stroke="rgb(0, 0, 0)" stroke-opacity="1.0" stroke-linecap="round" stroke-linejoin="round"/>
    <path d="M 70.50263214111328 76.99612426757812 C 77.5079574584961 106.54078674316406 74.94915771484375 114.4959716796875 73.35964965820312 79.01456451416016" stroke-width="3.0" fill="none" stroke="rgb(0, 0, 0)" stroke-opacity="1.0" stroke-linecap="round" stroke-linejoin="round"/>
    <path d="M 115.2193374633789 160.3740234375 C 74.2341079711914 163.76744079589844 57.65866470336914 139.84169006347656 89.2367935180664 151.04042053222656" stroke-width="3.0" fill="none" stroke="rgb(0, 0, 0)" stroke-opacity="1.0" stroke-linecap="round" stroke-linejoin="round"/>
    <path d="M 82.65921783447266 161.270263671875 C 162.01588439941406 159.6091766357422 122.10574340820312 163.24307250976562 73.63367462158203 149.30780029296875" stroke-width="3.0" fill="none" stroke="rgb(0, 0, 0)" stroke-opacity="1.0" stroke-linecap="round" stroke-linejoin="round"/>
    <path d="M 165.7010498046875 91.59703063964844 C 146.65231323242188 90.25120544433594 151.25015258789062 82.01138305664062 150.31993103027344 96.98062133789062" stroke-width="3.0" fill="none" stroke="rgb(0, 0, 0)" stroke-opacity="1.0" stroke-linecap="round" stroke-linejoin="round"/>
    <path d="M 150.7294464111328 142.46331787109375 C 166.89492797851562 147.07464599609375 154.3323211669922 151.85507202148438 159.1223602294922 149.56101989746094" stroke-width="3.0" fill="none" stroke="rgb(0, 0, 0)" stroke-opacity="1.0" stroke-linecap="round" stroke-linejoin="round"/>
    <path d="M 86.3887939453125 149.124755859375 C 86.69474792480469 130.32992553710938 76.9795913696289 117.18201446533203 74.48828125 99.03413391113281" stroke-width="3.0" fill="none" stroke="rgb(0, 0, 0)" stroke-opacity="1.0" stroke-linecap="round" stroke-linejoin="round"/>
    <path d="M 79.09309387207031 120.58171844482422 C 78.78655242919922 117.65351867675781 76.83739471435547 111.5772476196289 89.06359100341797 147.9846649169922" stroke-width="3.0" fill="none" stroke="rgb(0, 0, 0)" stroke-opacity="1.0" stroke-linecap="round" stroke-linejoin="round"/>
    <path d="M 110.65838623046875 161.79957580566406 C 115.27800750732422 155.48294067382812 140.54005432128906 161.61529541015625 158.00408935546875 149.64234924316406" stroke-width="3.0" fill="none" stroke="rgb(0, 0, 0)" stroke-opacity="1.0" stroke-linecap="round" stroke-linejoin="round"/>
    <path d="M 71.5306396484375 74.43388366699219 C 90.1103744506836 67.36396026611328 129.7162628173828 84.009765625 100.00403594970703 47.00236129760742" stroke-width="3.0" fill="none" stroke="rgb(0, 0, 0)" stroke-opacity="1.0" stroke-linecap="round" stroke-linejoin="round"/>
    <path d="M 101.10435485839844 70.87100982666016 C 143.4560089111328 77.00633239746094 163.19851684570312 59.462711334228516 151.60784912109375 89.88004302978516" stroke-width="3.0" fill="none" stroke="rgb(0, 0, 0)" stroke-opacity="1.0" stroke-linecap="round" stroke-linejoin="round"/>
  </g>
</svg>
