<?xml version="1.0" ?>
<svg xmlns="http://www.w3.org/2000/svg" version="1.1" width="224" height="224">
  <defs/>
  <g>
    <path d="M 72.53778076171875 106.9599838256836 C 85.30378723144531 147.47381591796875 93.43709564208984 174.67298889160156 72.25052642822266 105.71931457519531" stroke-width="3.0" fill="none" stroke="rgb(0, 0, 0)" stroke-opacity="1.0" stroke-linecap="round" stroke-linejoin="round"/>
    <path d="M 121.85629272460938 164.93753051757812 C 61.6673698425293 169.2419891357422 51.60605239868164 142.76654052734375 79.37336730957031 140.55384826660156" stroke-width="3.0" fill="none" stroke="rgb(0, 0, 0)" stroke-opacity="1.0" stroke-linecap="round" stroke-linejoin="round"/>
    <path d="M 79.48135375976562 143.91456604003906 C 76.07909393310547 141.00100708007812 79.04095458984375 139.11712646484375 92.09842681884766 155.6901092529297" stroke-width="3.0" fill="none" stroke="rgb(0, 0, 0)" stroke-opacity="1.0" stroke-linecap="round" stroke-linejoin="round"/>
    <path d="M 151.23597717285156 82.63602447509766 C 147.7649688720703 82.39559173583984 156.54705810546875 84.19630432128906 133.6698760986328 151.0437469482422" stroke-width="3.0" fill="none" stroke="rgb(0, 0, 0)" stroke-opacity="1.0" stroke-linecap="round" stroke-linejoin="round"/>
    <path d="M 149.14584350585938 97.0494155883789 C 162.09449768066406 75.03178405761719 211.66998291015625 112.65776062011719 145.19815063476562 115.27714538574219" stroke-width="3.0" fill="none" stroke="rgb(0, 0, 0)" stroke-opacity="1.0" stroke-linecap="round" stroke-linejoin="round"/>
    <path d="M 92.94181060791016 155.69351196289062 C 76.09809112548828 149.78204345703125 76.98148345947266 126.18051147460938 83.95840454101562 148.5904083251953" stroke-width="3.0" fill="none" stroke="rgb(0, 0, 0)" stroke-opacity="1.0" stroke-linecap="round" stroke-linejoin="round"/>
    <path d="M 68.9521713256836 78.482666015625 C 70.41497039794922 102.80986022949219 74.87559509277344 122.80470275878906 70.67464447021484 89.25958251953125" stroke-width="3.0" fill="none" stroke="rgb(0, 0, 0)" stroke-opacity="1.0" stroke-linecap="round" stroke-linejoin="round"/>
    <path d="M 131.63177490234375 153.4407958984375 C 87.91065979003906 171.48236083984375 53.380924224853516 125.40018463134766 91.0108642578125 156.3992919921875" stroke-width="3.0" fill="none" stroke="rgb(0, 0, 0)" stroke-opacity="1.0" stroke-linecap="round" stroke-linejoin="round"/>
    <path d="M 122.70800018310547 163.23092651367188 C 159.4276580810547 159.04978942871094 91.21094512939453 173.56678771972656 82.08092498779297 145.95050048828125" stroke-width="3.0" fill="none" stroke="rgb(0, 0, 0)" stroke-opacity="1.0" stroke-linecap="round" stroke-linejoin="round"/>
    <path d="M 153.51150512695312 80.13848876953125 C 153.93304443359375 80.03742980957031 149.35470581054688 72.97098541259766 149.6232452392578 94.1789321899414" stroke-width="3.0" fill="none" stroke="rgb(0, 0, 0)" stroke-opacity="1.0" stroke-linecap="round" stroke-linejoin="round"/>
    <path d="M 137.1051788330078 146.9106903076172 C 173.339111328125 149.66224670410156 155.76348876953125 153.9498291015625 157.67454528808594 153.5142364501953" stroke-width="3.0" fill="none" stroke="rgb(0, 0, 0)" stroke-opacity="1.0" stroke-linecap="round" stroke-linejoin="round"/>
    <path d="M 94.03752136230469 154.4105224609375 C 87.77186584472656 146.3172149658203 81.18072509765625 122.9454345703125 80.23532104492188 74.72871398925781" stroke-width="3.0" fill="none" stroke="rgb(0, 0, 0)" stroke-opacity="1.0" stroke-linecap="round" stroke-linejoin="round"/>
    <path d="M 102.11526489257812 160.26327514648438 C 84.39961242675781 157.87457275390625 81.89264678955078 140.56570434570312 91.17513275146484 155.40455627441406" stroke-width="3.0" fill="none" stroke="rgb(0, 0, 0)" stroke-opacity="1.0" stroke-linecap="round" stroke-linejoin="round"/>
    <path d="M 86.61148834228516 153.01121520996094 C 98.4787826538086 166.3509979248047 147.10658264160156 166.0046844482422 161.0134735107422 150.9744415283203" stroke-width="3.0" fill="none" stroke="rgb(0, 0, 0)" stroke-opacity="1.0" stroke-linecap="round" stroke-linejoin="round"/>
    <path d="M 70.62418365478516 76.05035400390625 C 92.48927307128906 69.18611907958984 127.78401184082031 82.07560729980469 100.939697265625 45.181602478027344" stroke-width="3.0" fill="none" stroke="rgb(0, 0, 0)" stroke-opacity="1.0" stroke-linecap="round" stroke-linejoin="round"/>
    <path d="M 98.74635314941406 73.86775970458984 C 160.66737365722656 73.13712310791016 154.45396423339844 63.03517532348633 153.27867126464844 86.76800537109375" stroke-width="3.0" fill="none" stroke="rgb(0, 0, 0)" stroke-opacity="1.0" stroke-linecap="round" stroke-linejoin="round"/>
  </g>
</svg>
