<?xml version="1.0" ?>
<svg xmlns="http://www.w3.org/2000/svg" version="1.1" width="224" height="224">
  <defs/>
  <g>
    <path d="M 72.23016357421875 102.00188446044922 C 82.4467544555664 150.82078552246094 88.81983947753906 159.7065887451172 71.99539947509766 109.65249633789062" stroke-width="3.0" fill="none" stroke="rgb(0, 0, 0)" stroke-opacity="1.0" stroke-linecap="round" stroke-linejoin="round"/>
    <path d="M 115.13292694091797 167.36985778808594 C 56.54375457763672 168.88723754882812 54.19227981567383 143.93878173828125 80.74443054199219 137.09747314453125" stroke-width="3.0" fill="none" stroke="rgb(0, 0, 0)" stroke-opacity="1.0" stroke-linecap="round" stroke-linejoin="round"/>
    <path d="M 81.32133483886719 143.56427001953125 C 84.84452056884766 135.904541015625 77.62176513671875 146.68577575683594 94.51309204101562 158.1479949951172" stroke-width="3.0" fill="none" stroke="rgb(0, 0, 0)" stroke-opacity="1.0" stroke-linecap="round" stroke-linejoin="round"/>
    <path d="M 150.88092041015625 77.30159759521484 C 146.58360290527344 84.33229064941406 155.1126251220703 89.17036437988281 133.77420043945312 151.77423095703125" stroke-width="3.0" fill="none" stroke="rgb(0, 0, 0)" stroke-opacity="1.0" stroke-linecap="round" stroke-linejoin="round"/>
    <path d="M 149.2495574951172 97.08502197265625 C 163.3535614013672 72.22900390625 208.47047424316406 110.58141326904297 145.8244171142578 118.16983032226562" stroke-width="3.0" fill="none" stroke="rgb(0, 0, 0)" stroke-opacity="1.0" stroke-linecap="round" stroke-linejoin="round"/>
    <path d="M 96.18448638916016 155.13568115234375 C 83.58419799804688 148.49114990234375 72.72064208984375 134.19952392578125 83.93753051757812 145.35462951660156" stroke-width="3.0" fill="none" stroke="rgb(0, 0, 0)" stroke-opacity="1.0" stroke-linecap="round" stroke-linejoin="round"/>
    <path d="M 69.42109680175781 78.06452941894531 C 70.51730346679688 111.20342254638672 75.47319030761719 121.33880615234375 69.55878448486328 89.16008758544922" stroke-width="3.0" fill="none" stroke="rgb(0, 0, 0)" stroke-opacity="1.0" stroke-linecap="round" stroke-linejoin="round"/>
    <path d="M 133.71365356445312 153.61863708496094 C 88.17180633544922 173.90829467773438 58.70126724243164 121.82489013671875 91.4468994140625 153.6399383544922" stroke-width="3.0" fill="none" stroke="rgb(0, 0, 0)" stroke-opacity="1.0" stroke-linecap="round" stroke-linejoin="round"/>
    <path d="M 110.34843444824219 165.09046936035156 C 155.8537139892578 165.1589813232422 96.07139587402344 173.49696350097656 76.27528381347656 144.91859436035156" stroke-width="3.0" fill="none" stroke="rgb(0, 0, 0)" stroke-opacity="1.0" stroke-linecap="round" stroke-linejoin="round"/>
    <path d="M 159.05612182617188 88.63126373291016 C 156.29559326171875 84.90696716308594 147.8059844970703 81.41410827636719 152.21322631835938 93.28636932373047" stroke-width="3.0" fill="none" stroke="rgb(0, 0, 0)" stroke-opacity="1.0" stroke-linecap="round" stroke-linejoin="round"/>
    <path d="M 140.3989715576172 144.14706420898438 C 169.7410430908203 149.3223876953125 157.63345336914062 153.4433135986328 159.90975952148438 150.09690856933594" stroke-width="3.0" fill="none" stroke="rgb(0, 0, 0)" stroke-opacity="1.0" stroke-linecap="round" stroke-linejoin="round"/>
    <path d="M 89.85738372802734 146.9617156982422 C 88.70453643798828 137.677001953125 83.67501068115234 123.63896942138672 83.39397430419922 74.75135803222656" stroke-width="3.0" fill="none" stroke="rgb(0, 0, 0)" stroke-opacity="1.0" stroke-linecap="round" stroke-linejoin="round"/>
    <path d="M 94.98929595947266 156.68284606933594 C 83.35699462890625 136.11642456054688 85.5964584350586 120.10926055908203 92.26641845703125 156.2134246826172" stroke-width="3.0" fill="none" stroke="rgb(0, 0, 0)" stroke-opacity="1.0" stroke-linecap="round" stroke-linejoin="round"/>
    <path d="M 92.64907836914062 156.42433166503906 C 107.57492065429688 170.32730102539062 141.41285705566406 166.09095764160156 158.6377410888672 153.90374755859375" stroke-width="3.0" fill="none" stroke="rgb(0, 0, 0)" stroke-opacity="1.0" stroke-linecap="round" stroke-linejoin="round"/>
    <path d="M 71.2388916015625 75.5713119506836 C 96.75187683105469 70.47157287597656 129.45213317871094 84.01081085205078 98.60308074951172 48.65070724487305" stroke-width="3.0" fill="none" stroke="rgb(0, 0, 0)" stroke-opacity="1.0" stroke-linecap="round" stroke-linejoin="round"/>
    <path d="M 86.14454650878906 74.5704345703125 C 156.66741943359375 76.82270050048828 156.32196044921875 63.999855041503906 153.05772399902344 85.84085845947266" stroke-width="3.0" fill="none" stroke="rgb(0, 0, 0)" stroke-opacity="1.0" stroke-linecap="round" stroke-linejoin="round"/>
  </g>
</svg>
