<?xml version="1.0" ?>
<svg xmlns="http://www.w3.org/2000/svg" version="1.1" width="224" height="224">
  <defs/>
  <g>
    <path d="M 71.949462890625 106.19876098632812 C 83.0946273803711 149.86474609375 91.08907318115234 178.3212127685547 72.73249816894531 107.7938461303711" stroke-width="3.0" fill="none" stroke="rgb(0, 0, 0)" stroke-opacity="1.0" stroke-linecap="round" stroke-linejoin="round"/>
    <path d="M 124.05500793457031 166.25326538085938 C 60.267669677734375 172.7348175048828 51.931697845458984 143.20008850097656 79.19994354248047 139.56204223632812" stroke-width="3.0" fill="none" stroke="rgb(0, 0, 0)" stroke-opacity="1.0" stroke-linecap="round" stroke-linejoin="round"/>
    <path d="M 79.29891204833984 145.4273223876953 C 74.59300231933594 136.75421142578125 79.48738861083984 136.80174255371094 89.55171966552734 156.4949188232422" stroke-width="3.0" fill="none" stroke="rgb(0, 0, 0)" stroke-opacity="1.0" stroke-linecap="round" stroke-linejoin="round"/>
    <path d="M 151.833251953125 82.97151947021484 C 147.25064086914062 86.04534912109375 155.55699157714844 82.4444580078125 133.30865478515625 150.90396118164062" stroke-width="3.0" fill="none" stroke="rgb(0, 0, 0)" stroke-opacity="1.0" stroke-linecap="round" stroke-linejoin="round"/>
    <path d="M 149.0715789794922 96.65830993652344 C 158.7436065673828 77.89053344726562 214.40353393554688 112.8969955444336 144.40438842773438 117.67156219482422" stroke-width="3.0" fill="none" stroke="rgb(0, 0, 0)" stroke-opacity="1.0" stroke-linecap="round" stroke-linejoin="round"/>
    <path d="M 92.81688690185547 154.69158935546875 C 72.08277130126953 151.31594848632812 74.2726821899414 130.2550811767578 83.22366333007812 149.52220153808594" stroke-width="3.0" fill="none" stroke="rgb(0, 0, 0)" stroke-opacity="1.0" stroke-linecap="round" stroke-linejoin="round"/>
    <path d="M 68.94599914550781 78.18312072753906 C 72.13661193847656 99.72074890136719 73.80016326904297 123.06485748291016 70.5380630493164 92.3583755493164" stroke-width="3.0" fill="none" stroke="rgb(0, 0, 0)" stroke-opacity="1.0" stroke-linecap="round" stroke-linejoin="round"/>
    <path d="M 132.0425567626953 153.0062713623047 C 89.5925064086914 171.83816528320312 52.90253829956055 125.24708557128906 91.3909683227539 156.14718627929688" stroke-width="3.0" fill="none" stroke="rgb(0, 0, 0)" stroke-opacity="1.0" stroke-linecap="round" stroke-linejoin="round"/>
    <path d="M 122.7711181640625 166.604248046875 C 158.92364501953125 157.49258422851562 90.19391632080078 173.12020874023438 78.47303771972656 144.57345581054688" stroke-width="3.0" fill="none" stroke="rgb(0, 0, 0)" stroke-opacity="1.0" stroke-linecap="round" stroke-linejoin="round"/>
    <path d="M 154.84495544433594 79.26508331298828 C 154.4806671142578 81.62102508544922 147.51890563964844 74.39998626708984 149.75704956054688 94.32331848144531" stroke-width="3.0" fill="none" stroke="rgb(0, 0, 0)" stroke-opacity="1.0" stroke-linecap="round" stroke-linejoin="round"/>
    <path d="M 140.63648986816406 142.8896026611328 C 171.37481689453125 149.2581024169922 153.70994567871094 156.23048400878906 157.8436279296875 152.71139526367188" stroke-width="3.0" fill="none" stroke="rgb(0, 0, 0)" stroke-opacity="1.0" stroke-linecap="round" stroke-linejoin="round"/>
    <path d="M 93.85752868652344 156.5228729248047 C 84.9487075805664 151.32540893554688 82.27526092529297 124.0284423828125 81.79535675048828 74.60791015625" stroke-width="3.0" fill="none" stroke="rgb(0, 0, 0)" stroke-opacity="1.0" stroke-linecap="round" stroke-linejoin="round"/>
    <path d="M 98.51366424560547 159.0718536376953 C 85.33795928955078 156.83619689941406 82.38383483886719 140.2865753173828 90.17171478271484 153.57582092285156" stroke-width="3.0" fill="none" stroke="rgb(0, 0, 0)" stroke-opacity="1.0" stroke-linecap="round" stroke-linejoin="round"/>
    <path d="M 88.55101776123047 151.36770629882812 C 99.66658020019531 166.84002685546875 148.1999969482422 166.49578857421875 157.93106079101562 154.63372802734375" stroke-width="3.0" fill="none" stroke="rgb(0, 0, 0)" stroke-opacity="1.0" stroke-linecap="round" stroke-linejoin="round"/>
    <path d="M 70.28204345703125 76.01013946533203 C 99.54365539550781 68.05248260498047 135.9679412841797 81.86492156982422 101.86897277832031 47.70968246459961" stroke-width="3.0" fill="none" stroke="rgb(0, 0, 0)" stroke-opacity="1.0" stroke-linecap="round" stroke-linejoin="round"/>
    <path d="M 96.05072784423828 72.43848419189453 C 160.63168334960938 74.6614761352539 153.38380432128906 66.65845489501953 154.46299743652344 87.3423843383789" stroke-width="3.0" fill="none" stroke="rgb(0, 0, 0)" stroke-opacity="1.0" stroke-linecap="round" stroke-linejoin="round"/>
  </g>
</svg>
