<?xml version="1.0" ?>
<svg xmlns="http://www.w3.org/2000/svg" version="1.1" width="224" height="224">
  <defs/>
  <g>
    <path d="M 77.08507537841797 114.07367706298828 C 83.88877868652344 138.4647674560547 83.41503143310547 130.31307983398438 81.68047332763672 125.44835662841797" stroke-width="3.0" fill="none" stroke="rgb(0, 0, 0)" stroke-opacity="1.0" stroke-linecap="round" stroke-linejoin="round"/>
    <path d="M 96.23565673828125 161.719482421875 C 55.839561462402344 159.4588165283203 58.15843963623047 142.83396911621094 84.20905303955078 139.13270568847656" stroke-width="3.0" fill="none" stroke="rgb(0, 0, 0)" stroke-opacity="1.0" stroke-linecap="round" stroke-linejoin="round"/>
    <path d="M 83.33843231201172 151.198974609375 C 86.32686614990234 128.81698608398438 79.98258209228516 137.12295532226562 93.36495971679688 151.93495178222656" stroke-width="3.0" fill="none" stroke="rgb(0, 0, 0)" stroke-opacity="1.0" stroke-linecap="round" stroke-linejoin="round"/>
    <path d="M 151.91314697265625 76.86486053466797 C 150.7003936767578 89.61412048339844 150.70437622070312 105.49136352539062 132.79531860351562 153.0186767578125" stroke-width="3.0" fill="none" stroke="rgb(0, 0, 0)" stroke-opacity="1.0" stroke-linecap="round" stroke-linejoin="round"/>
    <path d="M 151.21438598632812 96.14906311035156 C 175.5849151611328 78.01588439941406 199.43418884277344 118.0728988647461 145.70533752441406 118.7598648071289" stroke-width="3.0" fill="none" stroke="rgb(0, 0, 0)" stroke-opacity="1.0" stroke-linecap="round" stroke-linejoin="round"/>
    <path d="M 101.2252197265625 154.55123901367188 C 90.86490631103516 152.21934509277344 86.41145324707031 144.910888671875 86.96113586425781 148.3707275390625" stroke-width="3.0" fill="none" stroke="rgb(0, 0, 0)" stroke-opacity="1.0" stroke-linecap="round" stroke-linejoin="round"/>
    <path d="M 69.37419891357422 77.2823257446289 C 76.1753921508789 107.71379852294922 75.65693664550781 120.560302734375 72.40038299560547 80.39252471923828" stroke-width="3.0" fill="none" stroke="rgb(0, 0, 0)" stroke-opacity="1.0" stroke-linecap="round" stroke-linejoin="round"/>
    <path d="M 111.68658447265625 160.3918914794922 C 71.83845520019531 161.11795043945312 57.35208511352539 140.32643127441406 90.74925994873047 150.62261962890625" stroke-width="3.0" fill="none" stroke="rgb(0, 0, 0)" stroke-opacity="1.0" stroke-linecap="round" stroke-linejoin="round"/>
    <path d="M 95.41119384765625 162.0390167236328 C 140.17184448242188 162.39291381835938 122.00650787353516 163.15992736816406 77.40119934082031 149.45008850097656" stroke-width="3.0" fill="none" stroke="rgb(0, 0, 0)" stroke-opacity="1.0" stroke-linecap="round" stroke-linejoin="round"/>
    <path d="M 167.6170196533203 91.9647445678711 C 158.44996643066406 90.63280487060547 152.0443572998047 80.82025146484375 150.5582275390625 97.55353546142578" stroke-width="3.0" fill="none" stroke="rgb(0, 0, 0)" stroke-opacity="1.0" stroke-linecap="round" stroke-linejoin="round"/>
    <path d="M 163.25282287597656 142.103271484375 C 167.08523559570312 143.86558532714844 154.45468139648438 153.22039794921875 160.82765197753906 147.1799774169922" stroke-width="3.0" fill="none" stroke="rgb(0, 0, 0)" stroke-opacity="1.0" stroke-linecap="round" stroke-linejoin="round"/>
    <path d="M 86.17263793945312 147.00120544433594 C 83.52399444580078 130.8533935546875 75.86076354980469 116.8770523071289 73.92510223388672 99.07917022705078" stroke-width="3.0" fill="none" stroke="rgb(0, 0, 0)" stroke-opacity="1.0" stroke-linecap="round" stroke-linejoin="round"/>
    <path d="M 78.62751770019531 120.50659942626953 C 79.77830505371094 121.70344543457031 78.11357116699219 112.56958770751953 86.65042877197266 142.13482666015625" stroke-width="3.0" fill="none" stroke="rgb(0, 0, 0)" stroke-opacity="1.0" stroke-linecap="round" stroke-linejoin="round"/>
    <path d="M 109.51863098144531 158.28456115722656 C 112.19481658935547 157.59410095214844 142.264892578125 159.78062438964844 157.32330322265625 150.07290649414062" stroke-width="3.0" fill="none" stroke="rgb(0, 0, 0)" stroke-opacity="1.0" stroke-linecap="round" stroke-linejoin="round"/>
    <path d="M 69.97129821777344 75.43728637695312 C 98.98017883300781 69.45755767822266 139.82102966308594 86.17095184326172 99.83663940429688 45.486209869384766" stroke-width="3.0" fill="none" stroke="rgb(0, 0, 0)" stroke-opacity="1.0" stroke-linecap="round" stroke-linejoin="round"/>
    <path d="M 105.6744613647461 71.07597351074219 C 140.77783203125 79.128662109375 162.24183654785156 55.62731170654297 149.45791625976562 89.69242095947266" stroke-width="3.0" fill="none" stroke="rgb(0, 0, 0)" stroke-opacity="1.0" stroke-linecap="round" stroke-linejoin="round"/>
  </g>
</svg>
