<?xml version="1.0" ?>
<svg xmlns="http://www.w3.org/2000/svg" version="1.1" width="224" height="224">
  <defs/>
  <g>
    <path d="M 70.56652069091797 98.62633514404297 C 82.7289047241211 151.1230926513672 89.66645050048828 168.3067169189453 72.01234436035156 104.73468017578125" stroke-width="3.0" fill="none" stroke="rgb(0, 0, 0)" stroke-opacity="1.0" stroke-linecap="round" stroke-linejoin="round"/>
    <path d="M 123.27166748046875 166.49729919433594 C 56.944725036621094 169.88323974609375 53.718265533447266 142.13035583496094 80.15343475341797 138.8317108154297" stroke-width="3.0" fill="none" stroke="rgb(0, 0, 0)" stroke-opacity="1.0" stroke-linecap="round" stroke-linejoin="round"/>
    <path d="M 81.05805969238281 143.8490447998047 C 80.49960327148438 139.06781005859375 79.0009536743164 145.53285217285156 94.54042053222656 157.31231689453125" stroke-width="3.0" fill="none" stroke="rgb(0, 0, 0)" stroke-opacity="1.0" stroke-linecap="round" stroke-linejoin="round"/>
    <path d="M 152.20291137695312 79.74861145019531 C 147.0837860107422 82.16011810302734 154.8270263671875 87.56613159179688 134.2306671142578 153.37759399414062" stroke-width="3.0" fill="none" stroke="rgb(0, 0, 0)" stroke-opacity="1.0" stroke-linecap="round" stroke-linejoin="round"/>
    <path d="M 149.55355834960938 93.48973083496094 C 159.84886169433594 73.27801513671875 211.0299835205078 113.2347640991211 144.8224334716797 118.6142807006836" stroke-width="3.0" fill="none" stroke="rgb(0, 0, 0)" stroke-opacity="1.0" stroke-linecap="round" stroke-linejoin="round"/>
    <path d="M 92.52876281738281 155.5077362060547 C 79.95938110351562 150.7040252685547 77.91073608398438 130.02499389648438 85.35675048828125 146.6410675048828" stroke-width="3.0" fill="none" stroke="rgb(0, 0, 0)" stroke-opacity="1.0" stroke-linecap="round" stroke-linejoin="round"/>
    <path d="M 68.2378921508789 77.49346160888672 C 71.78851318359375 108.83670806884766 74.60887908935547 122.20413970947266 69.77256774902344 88.85567474365234" stroke-width="3.0" fill="none" stroke="rgb(0, 0, 0)" stroke-opacity="1.0" stroke-linecap="round" stroke-linejoin="round"/>
    <path d="M 132.38809204101562 153.40396118164062 C 84.42745208740234 172.39585876464844 58.757110595703125 122.44188690185547 95.14833068847656 155.3374786376953" stroke-width="3.0" fill="none" stroke="rgb(0, 0, 0)" stroke-opacity="1.0" stroke-linecap="round" stroke-linejoin="round"/>
    <path d="M 119.90921783447266 165.1571502685547 C 160.08444213867188 162.98757934570312 93.86494445800781 173.49716186523438 79.88838958740234 145.38661193847656" stroke-width="3.0" fill="none" stroke="rgb(0, 0, 0)" stroke-opacity="1.0" stroke-linecap="round" stroke-linejoin="round"/>
    <path d="M 155.40042114257812 79.37859344482422 C 158.0281982421875 79.78368377685547 151.7237548828125 76.47761535644531 148.8525848388672 95.84569549560547" stroke-width="3.0" fill="none" stroke="rgb(0, 0, 0)" stroke-opacity="1.0" stroke-linecap="round" stroke-linejoin="round"/>
    <path d="M 138.83428955078125 141.10638427734375 C 171.2565460205078 146.73712158203125 156.82981872558594 154.2664031982422 160.15463256835938 151.07644653320312" stroke-width="3.0" fill="none" stroke="rgb(0, 0, 0)" stroke-opacity="1.0" stroke-linecap="round" stroke-linejoin="round"/>
    <path d="M 89.62586212158203 146.18418884277344 C 89.87480926513672 135.2134552001953 82.78857421875 125.13129425048828 82.35243225097656 74.24889373779297" stroke-width="3.0" fill="none" stroke="rgb(0, 0, 0)" stroke-opacity="1.0" stroke-linecap="round" stroke-linejoin="round"/>
    <path d="M 97.55318450927734 157.9331512451172 C 88.65999603271484 147.46481323242188 87.50004577636719 121.71855163574219 91.82438659667969 157.49876403808594" stroke-width="3.0" fill="none" stroke="rgb(0, 0, 0)" stroke-opacity="1.0" stroke-linecap="round" stroke-linejoin="round"/>
    <path d="M 90.81591796875 155.0360107421875 C 104.14513397216797 167.53456115722656 143.9341278076172 165.4346160888672 158.71942138671875 154.97914123535156" stroke-width="3.0" fill="none" stroke="rgb(0, 0, 0)" stroke-opacity="1.0" stroke-linecap="round" stroke-linejoin="round"/>
    <path d="M 71.13374328613281 76.11504364013672 C 91.81517791748047 70.7511978149414 128.41932678222656 80.75282287597656 101.55158233642578 49.334102630615234" stroke-width="3.0" fill="none" stroke="rgb(0, 0, 0)" stroke-opacity="1.0" stroke-linecap="round" stroke-linejoin="round"/>
    <path d="M 90.96327209472656 73.40919494628906 C 155.9524383544922 79.01604461669922 156.8930206298828 68.39750671386719 155.43072509765625 84.8885498046875" stroke-width="3.0" fill="none" stroke="rgb(0, 0, 0)" stroke-opacity="1.0" stroke-linecap="round" stroke-linejoin="round"/>
  </g>
</svg>
