<?xml version="1.0" ?>
<svg xmlns="http://www.w3.org/2000/svg" version="1.1" width="224" height="224">
  <defs/>
  <g>
    <path d="M 76.48371887207031 115.2439193725586 C 82.50257873535156 139.37112426757812 83.82703399658203 130.2080841064453 81.69751739501953 131.75460815429688" stroke-width="3.0" fill="none" stroke="rgb(0, 0, 0)" stroke-opacity="1.0" stroke-linecap="round" stroke-linejoin="round"/>
    <path d="M 90.07054138183594 162.1868896484375 C 55.52070999145508 162.139404296875 57.58131408691406 140.31817626953125 83.05269622802734 139.54946899414062" stroke-width="3.0" fill="none" stroke="rgb(0, 0, 0)" stroke-opacity="1.0" stroke-linecap="round" stroke-linejoin="round"/>
    <path d="M 83.75969696044922 149.64010620117188 C 85.60834503173828 128.37420654296875 79.22084045410156 137.32266235351562 91.17595672607422 152.90414428710938" stroke-width="3.0" fill="none" stroke="rgb(0, 0, 0)" stroke-opacity="1.0" stroke-linecap="round" stroke-linejoin="round"/>
    <path d="M 152.43968200683594 77.2630844116211 C 151.33526611328125 90.68922424316406 151.36459350585938 106.08683013916016 131.57081604003906 153.74935913085938" stroke-width="3.0" fill="none" stroke="rgb(0, 0, 0)" stroke-opacity="1.0" stroke-linecap="round" stroke-linejoin="round"/>
    <path d="M 153.53915405273438 95.8959732055664 C 177.0404510498047 79.12450408935547 199.961181640625 118.74726867675781 145.56338500976562 119.3633804321289" stroke-width="3.0" fill="none" stroke="rgb(0, 0, 0)" stroke-opacity="1.0" stroke-linecap="round" stroke-linejoin="round"/>
    <path d="M 99.21619415283203 157.41830444335938 C 89.00820922851562 153.76437377929688 85.86029052734375 147.37857055664062 86.95928192138672 148.29290771484375" stroke-width="3.0" fill="none" stroke="rgb(0, 0, 0)" stroke-opacity="1.0" stroke-linecap="round" stroke-linejoin="round"/>
    <path d="M 71.19335174560547 78.72140502929688 C 75.0658950805664 108.1181869506836 76.2686996459961 121.48023986816406 73.39454650878906 79.70535278320312" stroke-width="3.0" fill="none" stroke="rgb(0, 0, 0)" stroke-opacity="1.0" stroke-linecap="round" stroke-linejoin="round"/>
    <path d="M 110.70829010009766 160.98324584960938 C 68.72048950195312 164.4478759765625 57.77979278564453 144.66810607910156 91.79840087890625 152.15321350097656" stroke-width="3.0" fill="none" stroke="rgb(0, 0, 0)" stroke-opacity="1.0" stroke-linecap="round" stroke-linejoin="round"/>
    <path d="M 99.68280029296875 160.13436889648438 C 137.65406799316406 159.41790771484375 122.14434051513672 162.04556274414062 79.30266571044922 153.01492309570312" stroke-width="3.0" fill="none" stroke="rgb(0, 0, 0)" stroke-opacity="1.0" stroke-linecap="round" stroke-linejoin="round"/>
    <path d="M 168.14451599121094 90.85991668701172 C 158.2012939453125 90.3172607421875 149.5200653076172 80.06117248535156 152.55760192871094 97.26671600341797" stroke-width="3.0" fill="none" stroke="rgb(0, 0, 0)" stroke-opacity="1.0" stroke-linecap="round" stroke-linejoin="round"/>
    <path d="M 160.60284423828125 142.1840362548828 C 168.5859832763672 145.5824737548828 153.78860473632812 152.3290557861328 158.77676391601562 148.31689453125" stroke-width="3.0" fill="none" stroke="rgb(0, 0, 0)" stroke-opacity="1.0" stroke-linecap="round" stroke-linejoin="round"/>
    <path d="M 84.91654968261719 146.07815551757812 C 82.88582611083984 131.44017028808594 76.43031311035156 116.74248504638672 74.28775024414062 98.7822494506836" stroke-width="3.0" fill="none" stroke="rgb(0, 0, 0)" stroke-opacity="1.0" stroke-linecap="round" stroke-linejoin="round"/>
    <path d="M 78.51750183105469 121.08320617675781 C 77.55491638183594 122.82001495361328 77.78946685791016 113.32685089111328 85.31359100341797 141.52650451660156" stroke-width="3.0" fill="none" stroke="rgb(0, 0, 0)" stroke-opacity="1.0" stroke-linecap="round" stroke-linejoin="round"/>
    <path d="M 108.38605499267578 159.50228881835938 C 112.2469253540039 159.44981384277344 141.7586669921875 159.29348754882812 159.43434143066406 150.75242614746094" stroke-width="3.0" fill="none" stroke="rgb(0, 0, 0)" stroke-opacity="1.0" stroke-linecap="round" stroke-linejoin="round"/>
    <path d="M 73.04373931884766 75.69164276123047 C 104.95382690429688 71.96624755859375 145.09107971191406 87.32870483398438 101.45441436767578 45.951602935791016" stroke-width="3.0" fill="none" stroke="rgb(0, 0, 0)" stroke-opacity="1.0" stroke-linecap="round" stroke-linejoin="round"/>
    <path d="M 108.5792007446289 72.30818939208984 C 138.8724822998047 80.77379608154297 162.5985870361328 54.550621032714844 151.41452026367188 89.53202819824219" stroke-width="3.0" fill="none" stroke="rgb(0, 0, 0)" stroke-opacity="1.0" stroke-linecap="round" stroke-linejoin="round"/>
  </g>
</svg>
