<?xml version="1.0" ?>
<svg xmlns="http://www.w3.org/2000/svg" version="1.1" width="224" height="224">
  <defs/>
  <g>
    <path d="M 72.37268829345703 105.31011199951172 C 86.70362854003906 146.66262817382812 88.33467864990234 145.60890197753906 73.27189636230469 108.3427505493164" stroke-width="3.0" fill="none" stroke="rgb(0, 0, 0)" stroke-opacity="1.0" stroke-linecap="round" stroke-linejoin="round"/>
    <path d="M 109.34549713134766 165.749755859375 C 57.44736099243164 165.06430053710938 55.71955490112305 142.90011596679688 85.69363403320312 138.2506103515625" stroke-width="3.0" fill="none" stroke="rgb(0, 0, 0)" stroke-opacity="1.0" stroke-linecap="round" stroke-linejoin="round"/>
    <path d="M 83.20681762695312 148.44276428222656 C 83.8769302368164 132.1402130126953 78.9083023071289 141.74880981445312 94.45055389404297 158.41842651367188" stroke-width="3.0" fill="none" stroke="rgb(0, 0, 0)" stroke-opacity="1.0" stroke-linecap="round" stroke-linejoin="round"/>
    <path d="M 150.912353515625 76.39764404296875 C 147.56761169433594 88.90679168701172 154.8552703857422 98.6573486328125 129.87911987304688 154.7183837890625" stroke-width="3.0" fill="none" stroke="rgb(0, 0, 0)" stroke-opacity="1.0" stroke-linecap="round" stroke-linejoin="round"/>
    <path d="M 150.30386352539062 99.494140625 C 165.13525390625 75.09129333496094 207.56907653808594 113.63338470458984 145.06349182128906 117.7139663696289" stroke-width="3.0" fill="none" stroke="rgb(0, 0, 0)" stroke-opacity="1.0" stroke-linecap="round" stroke-linejoin="round"/>
    <path d="M 100.33897399902344 160.23214721679688 C 79.3106918334961 154.11288452148438 73.61473846435547 139.01559448242188 83.3406982421875 146.951416015625" stroke-width="3.0" fill="none" stroke="rgb(0, 0, 0)" stroke-opacity="1.0" stroke-linecap="round" stroke-linejoin="round"/>
    <path d="M 68.53421783447266 76.57864379882812 C 73.31739807128906 115.3743896484375 76.60735321044922 123.88597106933594 69.99525451660156 79.73389434814453" stroke-width="3.0" fill="none" stroke="rgb(0, 0, 0)" stroke-opacity="1.0" stroke-linecap="round" stroke-linejoin="round"/>
    <path d="M 124.97542572021484 162.11624145507812 C 87.55644989013672 165.38172912597656 64.63196563720703 136.48875427246094 84.12711334228516 152.74212646484375" stroke-width="3.0" fill="none" stroke="rgb(0, 0, 0)" stroke-opacity="1.0" stroke-linecap="round" stroke-linejoin="round"/>
    <path d="M 89.75662231445312 165.27699279785156 C 142.01710510253906 166.68080139160156 97.46047973632812 170.30018615722656 82.70611572265625 147.91433715820312" stroke-width="3.0" fill="none" stroke="rgb(0, 0, 0)" stroke-opacity="1.0" stroke-linecap="round" stroke-linejoin="round"/>
    <path d="M 157.38278198242188 91.32678985595703 C 147.958740234375 86.08100128173828 149.83338928222656 81.7969970703125 150.0064697265625 95.15148162841797" stroke-width="3.0" fill="none" stroke="rgb(0, 0, 0)" stroke-opacity="1.0" stroke-linecap="round" stroke-linejoin="round"/>
    <path d="M 139.11697387695312 143.7546844482422 C 171.7550811767578 149.83001708984375 156.09906005859375 153.6548309326172 157.9573516845703 152.5353546142578" stroke-width="3.0" fill="none" stroke="rgb(0, 0, 0)" stroke-opacity="1.0" stroke-linecap="round" stroke-linejoin="round"/>
    <path d="M 80.70352172851562 140.13833618164062 C 85.10108947753906 134.192138671875 79.89601135253906 119.64066314697266 78.70259094238281 93.38285827636719" stroke-width="3.0" fill="none" stroke="rgb(0, 0, 0)" stroke-opacity="1.0" stroke-linecap="round" stroke-linejoin="round"/>
    <path d="M 80.75947570800781 125.63595581054688 C 81.87139129638672 116.97418212890625 78.59420013427734 110.08844757080078 89.28652954101562 152.5410919189453" stroke-width="3.0" fill="none" stroke="rgb(0, 0, 0)" stroke-opacity="1.0" stroke-linecap="round" stroke-linejoin="round"/>
    <path d="M 99.03640747070312 160.8926544189453 C 113.0902099609375 160.87533569335938 141.86610412597656 161.5277862548828 160.03428649902344 152.61611938476562" stroke-width="3.0" fill="none" stroke="rgb(0, 0, 0)" stroke-opacity="1.0" stroke-linecap="round" stroke-linejoin="round"/>
    <path d="M 70.45247650146484 74.85624694824219 C 90.8785629272461 69.2544174194336 130.86444091796875 85.1264877319336 101.42784118652344 45.3028450012207" stroke-width="3.0" fill="none" stroke="rgb(0, 0, 0)" stroke-opacity="1.0" stroke-linecap="round" stroke-linejoin="round"/>
    <path d="M 97.74046325683594 73.04437255859375 C 154.45169067382812 75.82941436767578 160.0011749267578 61.308895111083984 150.4964599609375 88.827880859375" stroke-width="3.0" fill="none" stroke="rgb(0, 0, 0)" stroke-opacity="1.0" stroke-linecap="round" stroke-linejoin="round"/>
  </g>
</svg>
