<?xml version="1.0" ?>
<svg xmlns="http://www.w3.org/2000/svg" version="1.1" width="224" height="224">
  <defs/>
  <g>
    <path d="M 71.68132781982422 106.0625 C 82.95181274414062 150.10548400878906 92.15766906738281 177.23306274414062 72.08268737792969 107.50348663330078" stroke-width="3.0" fill="none" stroke="rgb(0, 0, 0)" stroke-opacity="1.0" stroke-linecap="round" stroke-linejoin="round"/>
    <path d="M 124.71272277832031 164.7400665283203 C 60.635658264160156 169.14480590820312 51.599632263183594 143.78903198242188 79.90751647949219 141.49378967285156" stroke-width="3.0" fill="none" stroke="rgb(0, 0, 0)" stroke-opacity="1.0" stroke-linecap="round" stroke-linejoin="round"/>
    <path d="M 78.74740600585938 145.5139923095703 C 75.31472778320312 138.12098693847656 80.15125274658203 137.07591247558594 89.90370178222656 156.9970245361328" stroke-width="3.0" fill="none" stroke="rgb(0, 0, 0)" stroke-opacity="1.0" stroke-linecap="round" stroke-linejoin="round"/>
    <path d="M 150.7898406982422 82.10696411132812 C 146.70779418945312 85.77897644042969 157.16761779785156 84.29664611816406 134.2830047607422 152.86329650878906" stroke-width="3.0" fill="none" stroke="rgb(0, 0, 0)" stroke-opacity="1.0" stroke-linecap="round" stroke-linejoin="round"/>
    <path d="M 149.3647918701172 97.14244842529297 C 160.21994018554688 76.3094482421875 213.29637145996094 110.80552673339844 144.41310119628906 118.18402099609375" stroke-width="3.0" fill="none" stroke="rgb(0, 0, 0)" stroke-opacity="1.0" stroke-linecap="round" stroke-linejoin="round"/>
    <path d="M 92.52869415283203 155.20703125 C 72.1769027709961 151.39666748046875 74.05379486083984 129.6011962890625 83.45256042480469 149.22268676757812" stroke-width="3.0" fill="none" stroke="rgb(0, 0, 0)" stroke-opacity="1.0" stroke-linecap="round" stroke-linejoin="round"/>
    <path d="M 69.60223388671875 79.57987976074219 C 69.85113525390625 100.59971618652344 74.27172088623047 121.43347930908203 71.06964111328125 92.65363311767578" stroke-width="3.0" fill="none" stroke="rgb(0, 0, 0)" stroke-opacity="1.0" stroke-linecap="round" stroke-linejoin="round"/>
    <path d="M 132.11325073242188 153.76748657226562 C 89.60199737548828 172.22535705566406 53.01504135131836 125.33987426757812 91.13729095458984 156.3134307861328" stroke-width="3.0" fill="none" stroke="rgb(0, 0, 0)" stroke-opacity="1.0" stroke-linecap="round" stroke-linejoin="round"/>
    <path d="M 123.95877075195312 165.57321166992188 C 159.72230529785156 158.213623046875 90.06758880615234 173.2426300048828 78.23391723632812 145.3186798095703" stroke-width="3.0" fill="none" stroke="rgb(0, 0, 0)" stroke-opacity="1.0" stroke-linecap="round" stroke-linejoin="round"/>
    <path d="M 154.5495147705078 79.50465393066406 C 154.74891662597656 80.55377960205078 148.42333984375 73.30813598632812 151.5342559814453 93.84187316894531" stroke-width="3.0" fill="none" stroke="rgb(0, 0, 0)" stroke-opacity="1.0" stroke-linecap="round" stroke-linejoin="round"/>
    <path d="M 139.33645629882812 143.47409057617188 C 171.85284423828125 150.93846130371094 154.52581787109375 154.2198028564453 158.06065368652344 152.7013397216797" stroke-width="3.0" fill="none" stroke="rgb(0, 0, 0)" stroke-opacity="1.0" stroke-linecap="round" stroke-linejoin="round"/>
    <path d="M 93.11318969726562 154.8290252685547 C 84.30432891845703 152.75523376464844 83.6661605834961 124.53424835205078 81.19398498535156 74.4595718383789" stroke-width="3.0" fill="none" stroke="rgb(0, 0, 0)" stroke-opacity="1.0" stroke-linecap="round" stroke-linejoin="round"/>
    <path d="M 99.18966674804688 157.3759307861328 C 85.21458435058594 156.64239501953125 81.94430541992188 141.9247589111328 90.81005859375 153.64517211914062" stroke-width="3.0" fill="none" stroke="rgb(0, 0, 0)" stroke-opacity="1.0" stroke-linecap="round" stroke-linejoin="round"/>
    <path d="M 87.95413208007812 152.64529418945312 C 96.68212127685547 167.4100341796875 147.33738708496094 165.27386474609375 158.8545379638672 154.39659118652344" stroke-width="3.0" fill="none" stroke="rgb(0, 0, 0)" stroke-opacity="1.0" stroke-linecap="round" stroke-linejoin="round"/>
    <path d="M 72.30721282958984 75.49878692626953 C 99.48252868652344 69.12871551513672 133.32559204101562 84.91838836669922 101.17130279541016 46.01266860961914" stroke-width="3.0" fill="none" stroke="rgb(0, 0, 0)" stroke-opacity="1.0" stroke-linecap="round" stroke-linejoin="round"/>
    <path d="M 95.7807388305664 73.87808227539062 C 161.17141723632812 75.87278747558594 154.66770935058594 67.25112915039062 153.6785125732422 87.37029266357422" stroke-width="3.0" fill="none" stroke="rgb(0, 0, 0)" stroke-opacity="1.0" stroke-linecap="round" stroke-linejoin="round"/>
  </g>
</svg>
