<?xml version="1.0" ?>
<svg xmlns="http://www.w3.org/2000/svg" version="1.1" width="224" height="224">
  <defs/>
  <g>
    <path d="M 79.99825286865234 116.20455169677734 C 84.19337463378906 136.19480895996094 82.0196762084961 124.33155059814453 81.8164291381836 123.75293731689453" stroke-width="3.0" fill="none" stroke="rgb(0, 0, 0)" stroke-opacity="1.0" stroke-linecap="round" stroke-linejoin="round"/>
    <path d="M 84.40876007080078 163.51898193359375 C 52.93156433105469 156.6252899169922 64.45016479492188 143.7555389404297 81.71973419189453 141.15721130371094" stroke-width="3.0" fill="none" stroke="rgb(0, 0, 0)" stroke-opacity="1.0" stroke-linecap="round" stroke-linejoin="round"/>
    <path d="M 89.86074829101562 143.0026092529297 C 83.99596405029297 130.01187133789062 78.39783477783203 136.099853515625 91.67626953125 146.74375915527344" stroke-width="3.0" fill="none" stroke="rgb(0, 0, 0)" stroke-opacity="1.0" stroke-linecap="round" stroke-linejoin="round"/>
    <path d="M 152.3477325439453 92.920166015625 C 149.8583984375 97.6767349243164 151.8997802734375 111.91260528564453 133.90194702148438 150.00782775878906" stroke-width="3.0" fill="none" stroke="rgb(0, 0, 0)" stroke-opacity="1.0" stroke-linecap="round" stroke-linejoin="round"/>
    <path d="M 154.12432861328125 87.29843139648438 C 180.5109100341797 86.84966278076172 187.50912475585938 118.46969604492188 151.58392333984375 121.59757995605469" stroke-width="3.0" fill="none" stroke="rgb(0, 0, 0)" stroke-opacity="1.0" stroke-linecap="round" stroke-linejoin="round"/>
    <path d="M 93.25051879882812 154.36204528808594 C 83.04483795166016 153.7943878173828 82.02659606933594 149.28945922851562 92.32788848876953 149.97900390625" stroke-width="3.0" fill="none" stroke="rgb(0, 0, 0)" stroke-opacity="1.0" stroke-linecap="round" stroke-linejoin="round"/>
    <path d="M 70.43936920166016 74.25985717773438 C 81.02622985839844 107.73738098144531 80.25276947021484 119.18286895751953 75.24222564697266 92.9023208618164" stroke-width="3.0" fill="none" stroke="rgb(0, 0, 0)" stroke-opacity="1.0" stroke-linecap="round" stroke-linejoin="round"/>
    <path d="M 111.04473114013672 165.45970153808594 C 63.986209869384766 166.2600860595703 69.22981262207031 156.98765563964844 88.27192687988281 160.76885986328125" stroke-width="3.0" fill="none" stroke="rgb(0, 0, 0)" stroke-opacity="1.0" stroke-linecap="round" stroke-linejoin="round"/>
    <path d="M 108.65220642089844 163.99192810058594 C 124.25587463378906 164.8050079345703 110.3374252319336 166.40444946289062 95.37200164794922 159.6376953125" stroke-width="3.0" fill="none" stroke="rgb(0, 0, 0)" stroke-opacity="1.0" stroke-linecap="round" stroke-linejoin="round"/>
    <path d="M 173.85556030273438 88.83734130859375 C 176.9165802001953 83.35005950927734 144.60279846191406 79.8503189086914 151.15451049804688 91.20314025878906" stroke-width="3.0" fill="none" stroke="rgb(0, 0, 0)" stroke-opacity="1.0" stroke-linecap="round" stroke-linejoin="round"/>
    <path d="M 165.2900848388672 150.5633544921875 C 165.8654327392578 152.20326232910156 159.2368621826172 158.47317504882812 164.37472534179688 152.7055206298828" stroke-width="3.0" fill="none" stroke="rgb(0, 0, 0)" stroke-opacity="1.0" stroke-linecap="round" stroke-linejoin="round"/>
    <path d="M 85.42059326171875 137.46295166015625 C 82.8685302734375 126.48226165771484 79.62232971191406 114.64176940917969 77.5240707397461 105.31126403808594" stroke-width="3.0" fill="none" stroke="rgb(0, 0, 0)" stroke-opacity="1.0" stroke-linecap="round" stroke-linejoin="round"/>
    <path d="M 81.11420440673828 120.08472442626953 C 82.3858413696289 118.91484832763672 78.70368957519531 111.4395751953125 86.62545013427734 138.89639282226562" stroke-width="3.0" fill="none" stroke="rgb(0, 0, 0)" stroke-opacity="1.0" stroke-linecap="round" stroke-linejoin="round"/>
    <path d="M 117.78797912597656 165.7222137451172 C 119.49954223632812 162.3247528076172 141.956298828125 168.75218200683594 160.98886108398438 155.83126831054688" stroke-width="3.0" fill="none" stroke="rgb(0, 0, 0)" stroke-opacity="1.0" stroke-linecap="round" stroke-linejoin="round"/>
    <path d="M 71.70911407470703 71.18708801269531 C 88.83524322509766 65.05763244628906 134.24203491210938 80.34820556640625 104.83921813964844 47.96961212158203" stroke-width="3.0" fill="none" stroke="rgb(0, 0, 0)" stroke-opacity="1.0" stroke-linecap="round" stroke-linejoin="round"/>
    <path d="M 103.0097427368164 68.30891418457031 C 124.20862579345703 74.57579040527344 169.07794189453125 61.63895797729492 155.7701416015625 80.92987823486328" stroke-width="3.0" fill="none" stroke="rgb(0, 0, 0)" stroke-opacity="1.0" stroke-linecap="round" stroke-linejoin="round"/>
  </g>
</svg>
