<?xml version="1.0" ?>
<svg xmlns="http://www.w3.org/2000/svg" version="1.1" width="224" height="224">
  <defs/>
  <g>
    <path d="M 70.84890747070312 97.45564270019531 C 83.35359954833984 150.15298461914062 92.98857116699219 165.1976318359375 72.86602783203125 103.86958312988281" stroke-width="3.0" fill="none" stroke="rgb(0, 0, 0)" stroke-opacity="1.0" stroke-linecap="round" stroke-linejoin="round"/>
    <path d="M 124.03669738769531 164.9178924560547 C 56.94217300415039 168.65771484375 54.1020622253418 143.11636352539062 80.77599334716797 138.76307678222656" stroke-width="3.0" fill="none" stroke="rgb(0, 0, 0)" stroke-opacity="1.0" stroke-linecap="round" stroke-linejoin="round"/>
    <path d="M 81.04618072509766 143.8447723388672 C 80.43063354492188 139.11233520507812 78.9300308227539 145.61331176757812 94.50733947753906 157.33277893066406" stroke-width="3.0" fill="none" stroke="rgb(0, 0, 0)" stroke-opacity="1.0" stroke-linecap="round" stroke-linejoin="round"/>
    <path d="M 153.8971405029297 79.1145248413086 C 148.48583984375 82.33793640136719 155.8776397705078 88.16069030761719 133.61985778808594 153.0346221923828" stroke-width="3.0" fill="none" stroke="rgb(0, 0, 0)" stroke-opacity="1.0" stroke-linecap="round" stroke-linejoin="round"/>
    <path d="M 150.05978393554688 93.63934326171875 C 160.1593475341797 72.83324432373047 210.8345184326172 114.26901245117188 145.1309814453125 118.3954086303711" stroke-width="3.0" fill="none" stroke="rgb(0, 0, 0)" stroke-opacity="1.0" stroke-linecap="round" stroke-linejoin="round"/>
    <path d="M 92.47074890136719 155.57411193847656 C 80.45104217529297 150.94505310058594 78.89703369140625 130.5531463623047 85.28125762939453 147.15655517578125" stroke-width="3.0" fill="none" stroke="rgb(0, 0, 0)" stroke-opacity="1.0" stroke-linecap="round" stroke-linejoin="round"/>
    <path d="M 68.95457458496094 76.99887084960938 C 71.9481430053711 109.00007629394531 75.19488525390625 122.05473327636719 71.17666625976562 88.68053436279297" stroke-width="3.0" fill="none" stroke="rgb(0, 0, 0)" stroke-opacity="1.0" stroke-linecap="round" stroke-linejoin="round"/>
    <path d="M 132.80734252929688 153.91290283203125 C 82.8431167602539 172.73727416992188 57.50419616699219 122.55099487304688 95.1168212890625 155.0360870361328" stroke-width="3.0" fill="none" stroke="rgb(0, 0, 0)" stroke-opacity="1.0" stroke-linecap="round" stroke-linejoin="round"/>
    <path d="M 120.19435119628906 165.5238494873047 C 160.46902465820312 163.44284057617188 93.70899200439453 173.5948486328125 79.50614929199219 145.75267028808594" stroke-width="3.0" fill="none" stroke="rgb(0, 0, 0)" stroke-opacity="1.0" stroke-linecap="round" stroke-linejoin="round"/>
    <path d="M 155.28672790527344 79.23591613769531 C 158.11386108398438 79.36567687988281 152.2899932861328 76.38641357421875 149.76058959960938 96.12482452392578" stroke-width="3.0" fill="none" stroke="rgb(0, 0, 0)" stroke-opacity="1.0" stroke-linecap="round" stroke-linejoin="round"/>
    <path d="M 138.59800720214844 141.65391540527344 C 171.46791076660156 148.6279754638672 157.88302612304688 153.75582885742188 160.9938507080078 151.68133544921875" stroke-width="3.0" fill="none" stroke="rgb(0, 0, 0)" stroke-opacity="1.0" stroke-linecap="round" stroke-linejoin="round"/>
    <path d="M 89.7382583618164 143.5873565673828 C 90.1684341430664 134.85739135742188 83.68181610107422 124.40596771240234 82.05642700195312 75.6584701538086" stroke-width="3.0" fill="none" stroke="rgb(0, 0, 0)" stroke-opacity="1.0" stroke-linecap="round" stroke-linejoin="round"/>
    <path d="M 96.65721893310547 156.85350036621094 C 87.64118194580078 150.36477661132812 88.589599609375 121.54048156738281 92.54784393310547 155.83860778808594" stroke-width="3.0" fill="none" stroke="rgb(0, 0, 0)" stroke-opacity="1.0" stroke-linecap="round" stroke-linejoin="round"/>
    <path d="M 92.55133056640625 154.69644165039062 C 104.4014892578125 169.92193603515625 143.2520294189453 167.31454467773438 159.39474487304688 154.8729705810547" stroke-width="3.0" fill="none" stroke="rgb(0, 0, 0)" stroke-opacity="1.0" stroke-linecap="round" stroke-linejoin="round"/>
    <path d="M 69.32017517089844 74.80059814453125 C 94.22209930419922 71.17562103271484 130.55081176757812 81.04273986816406 102.05583190917969 45.795902252197266" stroke-width="3.0" fill="none" stroke="rgb(0, 0, 0)" stroke-opacity="1.0" stroke-linecap="round" stroke-linejoin="round"/>
    <path d="M 90.26665496826172 73.11494445800781 C 153.6062469482422 78.8761215209961 155.45773315429688 68.05107879638672 156.1392822265625 83.93079376220703" stroke-width="3.0" fill="none" stroke="rgb(0, 0, 0)" stroke-opacity="1.0" stroke-linecap="round" stroke-linejoin="round"/>
  </g>
</svg>
