<?xml version="1.0" ?>
<svg xmlns="http://www.w3.org/2000/svg" version="1.1" width="224" height="224">
  <defs/>
  <g>
    <path d="M 79.53077697753906 115.23052978515625 C 84.038818359375 137.04698181152344 82.3524169921875 125.91626739501953 82.32389831542969 125.53710174560547" stroke-width="3.0" fill="none" stroke="rgb(0, 0, 0)" stroke-opacity="1.0" stroke-linecap="round" stroke-linejoin="round"/>
    <path d="M 85.76141357421875 164.21044921875 C 52.52373504638672 155.6859893798828 61.76950454711914 145.1781768798828 81.6426010131836 139.6449432373047" stroke-width="3.0" fill="none" stroke="rgb(0, 0, 0)" stroke-opacity="1.0" stroke-linecap="round" stroke-linejoin="round"/>
    <path d="M 87.9850082397461 145.49942016601562 C 83.67204284667969 129.5819854736328 83.00630187988281 133.671630859375 90.20633697509766 150.70059204101562" stroke-width="3.0" fill="none" stroke="rgb(0, 0, 0)" stroke-opacity="1.0" stroke-linecap="round" stroke-linejoin="round"/>
    <path d="M 151.00613403320312 86.55866241455078 C 148.60801696777344 92.05156707763672 151.08653259277344 109.72270965576172 127.87614440917969 159.3417205810547" stroke-width="3.0" fill="none" stroke="rgb(0, 0, 0)" stroke-opacity="1.0" stroke-linecap="round" stroke-linejoin="round"/>
    <path d="M 152.0325164794922 89.39476776123047 C 186.5852508544922 86.33573150634766 191.9541778564453 114.76700592041016 145.65989685058594 120.51678466796875" stroke-width="3.0" fill="none" stroke="rgb(0, 0, 0)" stroke-opacity="1.0" stroke-linecap="round" stroke-linejoin="round"/>
    <path d="M 92.19003295898438 156.9008026123047 C 83.86648559570312 155.53912353515625 83.85758209228516 156.20367431640625 91.43939971923828 150.8778839111328" stroke-width="3.0" fill="none" stroke="rgb(0, 0, 0)" stroke-opacity="1.0" stroke-linecap="round" stroke-linejoin="round"/>
    <path d="M 69.58073425292969 75.33112335205078 C 77.59991455078125 107.89806365966797 78.36518096923828 120.4486083984375 77.85432434082031 83.7685546875" stroke-width="3.0" fill="none" stroke="rgb(0, 0, 0)" stroke-opacity="1.0" stroke-linecap="round" stroke-linejoin="round"/>
    <path d="M 111.4697036743164 165.59068298339844 C 67.17671203613281 168.70372009277344 71.39110565185547 154.87646484375 91.1072006225586 162.1522979736328" stroke-width="3.0" fill="none" stroke="rgb(0, 0, 0)" stroke-opacity="1.0" stroke-linecap="round" stroke-linejoin="round"/>
    <path d="M 106.55363464355469 166.18017578125 C 126.43272399902344 163.81263732910156 109.61092376708984 165.80213928222656 89.19133758544922 160.81365966796875" stroke-width="3.0" fill="none" stroke="rgb(0, 0, 0)" stroke-opacity="1.0" stroke-linecap="round" stroke-linejoin="round"/>
    <path d="M 173.12205505371094 89.19234466552734 C 170.3287811279297 85.77983856201172 146.10655212402344 77.2927017211914 150.40719604492188 93.29163360595703" stroke-width="3.0" fill="none" stroke="rgb(0, 0, 0)" stroke-opacity="1.0" stroke-linecap="round" stroke-linejoin="round"/>
    <path d="M 163.11073303222656 142.78787231445312 C 172.56124877929688 147.81834411621094 157.42002868652344 155.16648864746094 163.2339630126953 150.6666259765625" stroke-width="3.0" fill="none" stroke="rgb(0, 0, 0)" stroke-opacity="1.0" stroke-linecap="round" stroke-linejoin="round"/>
    <path d="M 85.7116470336914 137.73536682128906 C 81.51299285888672 127.54698944091797 78.5980453491211 114.94634246826172 77.44901275634766 103.31019592285156" stroke-width="3.0" fill="none" stroke="rgb(0, 0, 0)" stroke-opacity="1.0" stroke-linecap="round" stroke-linejoin="round"/>
    <path d="M 80.76377868652344 120.44245147705078 C 80.64916229248047 119.06763458251953 77.50946807861328 111.8177261352539 86.16876983642578 140.31253051757812" stroke-width="3.0" fill="none" stroke="rgb(0, 0, 0)" stroke-opacity="1.0" stroke-linecap="round" stroke-linejoin="round"/>
    <path d="M 114.46728515625 165.18238830566406 C 116.9416275024414 164.88819885253906 142.84300231933594 164.50306701660156 160.72677612304688 153.2655029296875" stroke-width="3.0" fill="none" stroke="rgb(0, 0, 0)" stroke-opacity="1.0" stroke-linecap="round" stroke-linejoin="round"/>
    <path d="M 72.1281967163086 73.19096374511719 C 87.26433563232422 68.52523803710938 133.70741271972656 84.53726196289062 99.3337631225586 48.730804443359375" stroke-width="3.0" fill="none" stroke="rgb(0, 0, 0)" stroke-opacity="1.0" stroke-linecap="round" stroke-linejoin="round"/>
    <path d="M 102.63182067871094 70.62014770507812 C 128.30007934570312 79.19367218017578 166.35072326660156 61.92668914794922 151.07276916503906 84.87138366699219" stroke-width="3.0" fill="none" stroke="rgb(0, 0, 0)" stroke-opacity="1.0" stroke-linecap="round" stroke-linejoin="round"/>
  </g>
</svg>
