<?xml version="1.0" ?>
<svg xmlns="http://www.w3.org/2000/svg" version="1.1" width="224" height="224">
  <defs/>
  <g>
    <path d="M 72.86103057861328 100.93488311767578 C 82.1383285522461 149.03643798828125 92.4814682006836 167.7893524169922 73.45612335205078 107.88106536865234" stroke-width="3.0" fill="none" stroke="rgb(0, 0, 0)" stroke-opacity="1.0" stroke-linecap="round" stroke-linejoin="round"/>
    <path d="M 123.25274658203125 164.81814575195312 C 56.50727844238281 169.6096649169922 53.84852981567383 145.1318359375 79.62800598144531 137.73326110839844" stroke-width="3.0" fill="none" stroke="rgb(0, 0, 0)" stroke-opacity="1.0" stroke-linecap="round" stroke-linejoin="round"/>
    <path d="M 80.27173614501953 143.0331268310547 C 76.36743927001953 140.35342407226562 76.12960052490234 147.47430419921875 94.22525787353516 155.9752197265625" stroke-width="3.0" fill="none" stroke="rgb(0, 0, 0)" stroke-opacity="1.0" stroke-linecap="round" stroke-linejoin="round"/>
    <path d="M 151.8643035888672 76.84598541259766 C 148.62637329101562 75.77010345458984 156.5873260498047 86.15534973144531 133.38909912109375 152.13504028320312" stroke-width="3.0" fill="none" stroke="rgb(0, 0, 0)" stroke-opacity="1.0" stroke-linecap="round" stroke-linejoin="round"/>
    <path d="M 150.37071228027344 93.77565002441406 C 160.40225219726562 76.7383804321289 213.1672821044922 113.00405883789062 145.86729431152344 119.50260162353516" stroke-width="3.0" fill="none" stroke="rgb(0, 0, 0)" stroke-opacity="1.0" stroke-linecap="round" stroke-linejoin="round"/>
    <path d="M 94.00308227539062 155.28855895996094 C 82.48509216308594 148.82687377929688 75.26052856445312 134.11550903320312 84.43002319335938 150.34548950195312" stroke-width="3.0" fill="none" stroke="rgb(0, 0, 0)" stroke-opacity="1.0" stroke-linecap="round" stroke-linejoin="round"/>
    <path d="M 70.78816223144531 76.58627319335938 C 73.77106475830078 108.17420196533203 76.2416000366211 122.3302993774414 71.74398803710938 85.95470428466797" stroke-width="3.0" fill="none" stroke="rgb(0, 0, 0)" stroke-opacity="1.0" stroke-linecap="round" stroke-linejoin="round"/>
    <path d="M 133.34918212890625 152.72679138183594 C 80.97940826416016 174.23812866210938 57.348472595214844 121.7998275756836 93.93841552734375 154.21890258789062" stroke-width="3.0" fill="none" stroke="rgb(0, 0, 0)" stroke-opacity="1.0" stroke-linecap="round" stroke-linejoin="round"/>
    <path d="M 123.36328125 164.1394805908203 C 159.3284149169922 157.6667938232422 89.3606948852539 172.41200256347656 80.4615249633789 146.6116485595703" stroke-width="3.0" fill="none" stroke="rgb(0, 0, 0)" stroke-opacity="1.0" stroke-linecap="round" stroke-linejoin="round"/>
    <path d="M 152.91470336914062 78.73396301269531 C 154.50559997558594 77.83499145507812 149.9921875 73.83014678955078 150.0464630126953 92.45410919189453" stroke-width="3.0" fill="none" stroke="rgb(0, 0, 0)" stroke-opacity="1.0" stroke-linecap="round" stroke-linejoin="round"/>
    <path d="M 138.60165405273438 143.12379455566406 C 170.64781188964844 148.00112915039062 155.77723693847656 153.4824981689453 159.07156372070312 152.85003662109375" stroke-width="3.0" fill="none" stroke="rgb(0, 0, 0)" stroke-opacity="1.0" stroke-linecap="round" stroke-linejoin="round"/>
    <path d="M 89.25946807861328 144.34596252441406 C 89.58155059814453 136.29307556152344 83.6921615600586 124.70327758789062 83.26933288574219 74.66887664794922" stroke-width="3.0" fill="none" stroke="rgb(0, 0, 0)" stroke-opacity="1.0" stroke-linecap="round" stroke-linejoin="round"/>
    <path d="M 97.07038116455078 157.21548461914062 C 89.54869079589844 152.4622039794922 85.24579620361328 128.1113739013672 92.38668823242188 156.12796020507812" stroke-width="3.0" fill="none" stroke="rgb(0, 0, 0)" stroke-opacity="1.0" stroke-linecap="round" stroke-linejoin="round"/>
    <path d="M 90.85206604003906 152.80091857910156 C 108.8359603881836 166.74383544921875 143.47242736816406 166.07766723632812 159.08309936523438 154.44869995117188" stroke-width="3.0" fill="none" stroke="rgb(0, 0, 0)" stroke-opacity="1.0" stroke-linecap="round" stroke-linejoin="round"/>
    <path d="M 72.43387603759766 74.41747283935547 C 92.35417175292969 69.1947021484375 126.37020874023438 79.98551940917969 100.72579193115234 47.98701095581055" stroke-width="3.0" fill="none" stroke="rgb(0, 0, 0)" stroke-opacity="1.0" stroke-linecap="round" stroke-linejoin="round"/>
    <path d="M 94.63226318359375 70.53633117675781 C 153.3240509033203 75.94695281982422 155.49986267089844 64.00318145751953 154.7389678955078 86.8809585571289" stroke-width="3.0" fill="none" stroke="rgb(0, 0, 0)" stroke-opacity="1.0" stroke-linecap="round" stroke-linejoin="round"/>
  </g>
</svg>
