<?xml version="1.0" ?>
<svg xmlns="http://www.w3.org/2000/svg" version="1.1" width="224" height="224">
  <defs/>
  <g>
    <path d="M 72.43820190429688 110.45795440673828 C 83.08032989501953 147.62210083007812 92.39691925048828 172.93798828125 72.1653823852539 108.05155944824219" stroke-width="3.0" fill="none" stroke="rgb(0, 0, 0)" stroke-opacity="1.0" stroke-linecap="round" stroke-linejoin="round"/>
    <path d="M 119.1051254272461 164.04954528808594 C 59.135826110839844 167.3447265625 52.979984283447266 146.0619354248047 79.67415618896484 137.19786071777344" stroke-width="3.0" fill="none" stroke="rgb(0, 0, 0)" stroke-opacity="1.0" stroke-linecap="round" stroke-linejoin="round"/>
    <path d="M 81.92666625976562 142.40025329589844 C 72.26644134521484 145.40928649902344 73.78492736816406 147.69517517089844 94.00598907470703 156.88992309570312" stroke-width="3.0" fill="none" stroke="rgb(0, 0, 0)" stroke-opacity="1.0" stroke-linecap="round" stroke-linejoin="round"/>
    <path d="M 151.72653198242188 78.99791717529297 C 146.9164276123047 80.62168884277344 154.93685913085938 83.48682403564453 135.2166290283203 152.00091552734375" stroke-width="3.0" fill="none" stroke="rgb(0, 0, 0)" stroke-opacity="1.0" stroke-linecap="round" stroke-linejoin="round"/>
    <path d="M 149.12281799316406 97.2757339477539 C 161.01498413085938 77.16172790527344 216.09193420410156 114.8093032836914 145.5774688720703 119.18392944335938" stroke-width="3.0" fill="none" stroke="rgb(0, 0, 0)" stroke-opacity="1.0" stroke-linecap="round" stroke-linejoin="round"/>
    <path d="M 95.31333923339844 155.02752685546875 C 85.16289520263672 145.3289031982422 78.99011993408203 130.0281524658203 85.3272705078125 148.0806427001953" stroke-width="3.0" fill="none" stroke="rgb(0, 0, 0)" stroke-opacity="1.0" stroke-linecap="round" stroke-linejoin="round"/>
    <path d="M 69.17681121826172 76.62647247314453 C 71.36884307861328 105.94207763671875 75.89433288574219 124.02149963378906 69.6222152709961 89.40045928955078" stroke-width="3.0" fill="none" stroke="rgb(0, 0, 0)" stroke-opacity="1.0" stroke-linecap="round" stroke-linejoin="round"/>
    <path d="M 133.31668090820312 152.39398193359375 C 82.5789794921875 173.55108642578125 61.928138732910156 121.50737762451172 92.33853912353516 155.31439208984375" stroke-width="3.0" fill="none" stroke="rgb(0, 0, 0)" stroke-opacity="1.0" stroke-linecap="round" stroke-linejoin="round"/>
    <path d="M 120.957275390625 162.6418914794922 C 157.40965270996094 158.11793518066406 91.05220794677734 172.56494140625 82.45567321777344 145.61236572265625" stroke-width="3.0" fill="none" stroke="rgb(0, 0, 0)" stroke-opacity="1.0" stroke-linecap="round" stroke-linejoin="round"/>
    <path d="M 151.96852111816406 76.51585388183594 C 152.52557373046875 78.49061584472656 150.4246063232422 73.56351470947266 148.284423828125 94.72106170654297" stroke-width="3.0" fill="none" stroke="rgb(0, 0, 0)" stroke-opacity="1.0" stroke-linecap="round" stroke-linejoin="round"/>
    <path d="M 137.84861755371094 143.40191650390625 C 173.13705444335938 146.2410125732422 155.5051727294922 152.98817443847656 154.7317657470703 153.9645233154297" stroke-width="3.0" fill="none" stroke="rgb(0, 0, 0)" stroke-opacity="1.0" stroke-linecap="round" stroke-linejoin="round"/>
    <path d="M 93.13056182861328 154.15719604492188 C 89.92570495605469 141.9108123779297 82.28462982177734 124.50310516357422 83.10712432861328 75.56401824951172" stroke-width="3.0" fill="none" stroke="rgb(0, 0, 0)" stroke-opacity="1.0" stroke-linecap="round" stroke-linejoin="round"/>
    <path d="M 101.17281341552734 157.87313842773438 C 85.48807525634766 160.59683227539062 83.53729248046875 135.2625274658203 91.72563934326172 154.60484313964844" stroke-width="3.0" fill="none" stroke="rgb(0, 0, 0)" stroke-opacity="1.0" stroke-linecap="round" stroke-linejoin="round"/>
    <path d="M 93.75467681884766 154.0467071533203 C 101.99675750732422 167.83973693847656 141.52304077148438 166.40040588378906 159.20916748046875 152.9338836669922" stroke-width="3.0" fill="none" stroke="rgb(0, 0, 0)" stroke-opacity="1.0" stroke-linecap="round" stroke-linejoin="round"/>
    <path d="M 70.91633605957031 73.5845947265625 C 91.86382293701172 67.2354965209961 127.70048522949219 80.8973388671875 100.891845703125 47.75541305541992" stroke-width="3.0" fill="none" stroke="rgb(0, 0, 0)" stroke-opacity="1.0" stroke-linecap="round" stroke-linejoin="round"/>
    <path d="M 98.55619049072266 71.54531860351562 C 156.0480194091797 73.35453796386719 154.95542907714844 64.26423645019531 153.41465759277344 87.32377624511719" stroke-width="3.0" fill="none" stroke="rgb(0, 0, 0)" stroke-opacity="1.0" stroke-linecap="round" stroke-linejoin="round"/>
  </g>
</svg>
