<?xml version="1.0" ?>
<svg xmlns="http://www.w3.org/2000/svg" version="1.1" width="224" height="224">
  <defs/>
  <g>
    <path d="M 73.68781280517578 108.77596282958984 C 85.14144897460938 150.89720153808594 86.1034164428711 155.62619018554688 72.28669738769531 104.38916015625" stroke-width="3.0" fill="none" stroke="rgb(0, 0, 0)" stroke-opacity="1.0" stroke-linecap="round" stroke-linejoin="round"/>
    <path d="M 107.82662200927734 165.73043823242188 C 57.113868713378906 165.56663513183594 54.26088333129883 145.19650268554688 81.54440307617188 139.49642944335938" stroke-width="3.0" fill="none" stroke="rgb(0, 0, 0)" stroke-opacity="1.0" stroke-linecap="round" stroke-linejoin="round"/>
    <path d="M 77.4972152709961 147.48577880859375 C 82.44095611572266 133.22010803222656 78.11927032470703 143.50209045410156 96.74747467041016 159.72145080566406" stroke-width="3.0" fill="none" stroke="rgb(0, 0, 0)" stroke-opacity="1.0" stroke-linecap="round" stroke-linejoin="round"/>
    <path d="M 153.5148162841797 76.20872497558594 C 147.33665466308594 79.2308578491211 155.67811584472656 96.40072631835938 130.16436767578125 156.10618591308594" stroke-width="3.0" fill="none" stroke="rgb(0, 0, 0)" stroke-opacity="1.0" stroke-linecap="round" stroke-linejoin="round"/>
    <path d="M 148.58743286132812 99.15072631835938 C 164.97738647460938 74.86280059814453 208.52284240722656 113.47441864013672 145.2581329345703 118.6797866821289" stroke-width="3.0" fill="none" stroke="rgb(0, 0, 0)" stroke-opacity="1.0" stroke-linecap="round" stroke-linejoin="round"/>
    <path d="M 96.22970581054688 159.7626495361328 C 83.57259368896484 150.51979064941406 70.68851470947266 134.50538635253906 82.36656188964844 146.1945343017578" stroke-width="3.0" fill="none" stroke="rgb(0, 0, 0)" stroke-opacity="1.0" stroke-linecap="round" stroke-linejoin="round"/>
    <path d="M 70.00596618652344 75.65985107421875 C 72.88668060302734 110.4503402709961 74.20111083984375 120.35179901123047 70.74369812011719 83.03888702392578" stroke-width="3.0" fill="none" stroke="rgb(0, 0, 0)" stroke-opacity="1.0" stroke-linecap="round" stroke-linejoin="round"/>
    <path d="M 128.906005859375 162.77230834960938 C 89.7660903930664 169.1952362060547 58.83787536621094 129.11004638671875 85.27814483642578 152.24728393554688" stroke-width="3.0" fill="none" stroke="rgb(0, 0, 0)" stroke-opacity="1.0" stroke-linecap="round" stroke-linejoin="round"/>
    <path d="M 95.86507415771484 166.19879150390625 C 144.533447265625 165.49313354492188 97.48831939697266 167.9918212890625 79.99711608886719 145.31906127929688" stroke-width="3.0" fill="none" stroke="rgb(0, 0, 0)" stroke-opacity="1.0" stroke-linecap="round" stroke-linejoin="round"/>
    <path d="M 158.18435668945312 88.76953125 C 151.8873748779297 85.12080383300781 150.1195831298828 82.29721069335938 151.66445922851562 94.53046417236328" stroke-width="3.0" fill="none" stroke="rgb(0, 0, 0)" stroke-opacity="1.0" stroke-linecap="round" stroke-linejoin="round"/>
    <path d="M 139.40231323242188 144.1338653564453 C 172.2269287109375 148.52633666992188 155.9151153564453 152.92529296875 156.363037109375 153.58595275878906" stroke-width="3.0" fill="none" stroke="rgb(0, 0, 0)" stroke-opacity="1.0" stroke-linecap="round" stroke-linejoin="round"/>
    <path d="M 89.0734634399414 143.6929168701172 C 88.72063446044922 137.1619415283203 83.1898193359375 121.74382781982422 85.1058578491211 75.576416015625" stroke-width="3.0" fill="none" stroke="rgb(0, 0, 0)" stroke-opacity="1.0" stroke-linecap="round" stroke-linejoin="round"/>
    <path d="M 86.67436218261719 139.82470703125 C 85.75715637207031 123.76934051513672 84.15459442138672 113.54345703125 92.09774017333984 156.51101684570312" stroke-width="3.0" fill="none" stroke="rgb(0, 0, 0)" stroke-opacity="1.0" stroke-linecap="round" stroke-linejoin="round"/>
    <path d="M 92.61312866210938 159.14727783203125 C 108.85208129882812 164.99266052246094 143.9573974609375 163.10357666015625 157.4646453857422 156.5555877685547" stroke-width="3.0" fill="none" stroke="rgb(0, 0, 0)" stroke-opacity="1.0" stroke-linecap="round" stroke-linejoin="round"/>
    <path d="M 71.41767883300781 73.77609252929688 C 89.44371032714844 66.15158081054688 131.7129669189453 79.80097198486328 102.93849182128906 47.34595489501953" stroke-width="3.0" fill="none" stroke="rgb(0, 0, 0)" stroke-opacity="1.0" stroke-linecap="round" stroke-linejoin="round"/>
    <path d="M 97.23632049560547 70.92748260498047 C 153.11317443847656 72.616943359375 157.9076385498047 62.63861846923828 151.24269104003906 85.19406127929688" stroke-width="3.0" fill="none" stroke="rgb(0, 0, 0)" stroke-opacity="1.0" stroke-linecap="round" stroke-linejoin="round"/>
  </g>
</svg>
