<?xml version="1.0" ?>
<svg xmlns="http://www.w3.org/2000/svg" version="1.1" width="224" height="224">
  <defs/>
  <g>
    <path d="M 82.4330062866211 119.00699615478516 C 94.07061004638672 126.99209594726562 85.83206176757812 121.31279754638672 85.66873168945312 123.722412109375" stroke-width="3.0" fill="none" stroke="rgb(0, 0, 0)" stroke-opacity="1.0" stroke-linecap="round" stroke-linejoin="round"/>
    <path d="M 83.5882568359375 159.9475860595703 C 55.233158111572266 155.69883728027344 63.369850158691406 139.4470672607422 84.67757415771484 142.04071044921875" stroke-width="3.0" fill="none" stroke="rgb(0, 0, 0)" stroke-opacity="1.0" stroke-linecap="round" stroke-linejoin="round"/>
    <path d="M 90.16015625 137.6640625 C 74.35011291503906 138.03335571289062 67.75808715820312 139.1956024169922 91.39613342285156 142.60687255859375" stroke-width="3.0" fill="none" stroke="rgb(0, 0, 0)" stroke-opacity="1.0" stroke-linecap="round" stroke-linejoin="round"/>
    <path d="M 154.6721649169922 106.63220977783203 C 152.70289611816406 109.59141540527344 150.4197540283203 116.91130065917969 142.03578186035156 137.73683166503906" stroke-width="3.0" fill="none" stroke="rgb(0, 0, 0)" stroke-opacity="1.0" stroke-linecap="round" stroke-linejoin="round"/>
    <path d="M 171.76893615722656 95.03025817871094 C 181.92599487304688 99.4321517944336 183.5619354248047 99.33939361572266 169.8298797607422 111.27392578125" stroke-width="3.0" fill="none" stroke="rgb(0, 0, 0)" stroke-opacity="1.0" stroke-linecap="round" stroke-linejoin="round"/>
    <path d="M 93.7774429321289 148.46607971191406 C 86.73416900634766 152.9726104736328 82.79924774169922 149.5058135986328 87.93668365478516 150.7489013671875" stroke-width="3.0" fill="none" stroke="rgb(0, 0, 0)" stroke-opacity="1.0" stroke-linecap="round" stroke-linejoin="round"/>
    <path d="M 73.20411682128906 76.79815673828125 C 79.44544219970703 105.23937225341797 75.56179809570312 108.076904296875 74.66900634765625 97.4713363647461" stroke-width="3.0" fill="none" stroke="rgb(0, 0, 0)" stroke-opacity="1.0" stroke-linecap="round" stroke-linejoin="round"/>
    <path d="M 96.15095520019531 168.5559539794922 C 67.36920166015625 162.07357788085938 73.10826873779297 157.45602416992188 82.48141479492188 164.18690490722656" stroke-width="3.0" fill="none" stroke="rgb(0, 0, 0)" stroke-opacity="1.0" stroke-linecap="round" stroke-linejoin="round"/>
    <path d="M 114.22200775146484 168.29473876953125 C 120.54707336425781 168.5934600830078 114.18151092529297 171.414794921875 102.26935577392578 165.115478515625" stroke-width="3.0" fill="none" stroke="rgb(0, 0, 0)" stroke-opacity="1.0" stroke-linecap="round" stroke-linejoin="round"/>
    <path d="M 155.5664825439453 93.80131530761719 C 154.31228637695312 86.91322326660156 141.8628387451172 86.6683120727539 157.4133758544922 89.91724395751953" stroke-width="3.0" fill="none" stroke="rgb(0, 0, 0)" stroke-opacity="1.0" stroke-linecap="round" stroke-linejoin="round"/>
    <path d="M 153.9077606201172 146.8457489013672 C 153.06976318359375 157.8759307861328 148.8728485107422 158.80946350097656 157.37338256835938 149.92169189453125" stroke-width="3.0" fill="none" stroke="rgb(0, 0, 0)" stroke-opacity="1.0" stroke-linecap="round" stroke-linejoin="round"/>
    <path d="M 88.14585876464844 132.00083923339844 C 83.66638946533203 123.71621704101562 78.76207733154297 117.8785400390625 76.86837768554688 107.15431213378906" stroke-width="3.0" fill="none" stroke="rgb(0, 0, 0)" stroke-opacity="1.0" stroke-linecap="round" stroke-linejoin="round"/>
    <path d="M 84.7431411743164 118.3311996459961 C 91.97661590576172 122.71569061279297 84.44024658203125 115.52494049072266 88.76593017578125 134.6126708984375" stroke-width="3.0" fill="none" stroke="rgb(0, 0, 0)" stroke-opacity="1.0" stroke-linecap="round" stroke-linejoin="round"/>
    <path d="M 127.97669982910156 166.52951049804688 C 125.24793243408203 163.6808624267578 127.86116790771484 170.15187072753906 140.06829833984375 165.9095001220703" stroke-width="3.0" fill="none" stroke="rgb(0, 0, 0)" stroke-opacity="1.0" stroke-linecap="round" stroke-linejoin="round"/>
    <path d="M 76.77177429199219 74.73471069335938 C 97.62032318115234 68.2861328125 113.25811004638672 74.10501861572266 101.67083740234375 65.18537139892578" stroke-width="3.0" fill="none" stroke="rgb(0, 0, 0)" stroke-opacity="1.0" stroke-linecap="round" stroke-linejoin="round"/>
    <path d="M 112.51299285888672 71.64349365234375 C 121.71329498291016 71.93321228027344 135.9252471923828 73.593505859375 145.36595153808594 73.48820495605469" stroke-width="3.0" fill="none" stroke="rgb(0, 0, 0)" stroke-opacity="1.0" stroke-linecap="round" stroke-linejoin="round"/>
  </g>
</svg>
