<?xml version="1.0" ?>
<svg xmlns="http://www.w3.org/2000/svg" version="1.1" width="224" height="224">
  <defs/>
  <g>
    <path d="M 72.08313751220703 101.15113830566406 C 83.0594711303711 152.3246307373047 87.42650604248047 158.66346740722656 72.1727294921875 108.10232543945312" stroke-width="3.0" fill="none" stroke="rgb(0, 0, 0)" stroke-opacity="1.0" stroke-linecap="round" stroke-linejoin="round"/>
    <path d="M 108.64606475830078 165.40367126464844 C 57.91805648803711 165.15814208984375 55.09823226928711 144.33871459960938 81.0037612915039 138.28646850585938" stroke-width="3.0" fill="none" stroke="rgb(0, 0, 0)" stroke-opacity="1.0" stroke-linecap="round" stroke-linejoin="round"/>
    <path d="M 78.69141387939453 145.56838989257812 C 85.99005889892578 132.75022888183594 76.89457702636719 147.02615356445312 96.4334487915039 158.1370391845703" stroke-width="3.0" fill="none" stroke="rgb(0, 0, 0)" stroke-opacity="1.0" stroke-linecap="round" stroke-linejoin="round"/>
    <path d="M 151.57028198242188 76.26383209228516 C 147.57977294921875 83.03694915771484 154.20730590820312 89.5476303100586 133.14341735839844 153.15225219726562" stroke-width="3.0" fill="none" stroke="rgb(0, 0, 0)" stroke-opacity="1.0" stroke-linecap="round" stroke-linejoin="round"/>
    <path d="M 149.46380615234375 98.13809967041016 C 161.95452880859375 74.3936996459961 209.36703491210938 112.70233917236328 146.4630584716797 119.98281860351562" stroke-width="3.0" fill="none" stroke="rgb(0, 0, 0)" stroke-opacity="1.0" stroke-linecap="round" stroke-linejoin="round"/>
    <path d="M 97.38897705078125 158.58584594726562 C 81.79774475097656 151.07180786132812 71.71733856201172 135.81906127929688 84.3308334350586 146.50238037109375" stroke-width="3.0" fill="none" stroke="rgb(0, 0, 0)" stroke-opacity="1.0" stroke-linecap="round" stroke-linejoin="round"/>
    <path d="M 69.92366027832031 76.311279296875 C 72.16478729248047 112.74271392822266 74.5936050415039 121.77489471435547 70.98243713378906 88.21978759765625" stroke-width="3.0" fill="none" stroke="rgb(0, 0, 0)" stroke-opacity="1.0" stroke-linecap="round" stroke-linejoin="round"/>
    <path d="M 133.0264434814453 153.38145446777344 C 86.98892974853516 172.4300994873047 55.95055389404297 126.51835632324219 88.95109558105469 154.3369140625" stroke-width="3.0" fill="none" stroke="rgb(0, 0, 0)" stroke-opacity="1.0" stroke-linecap="round" stroke-linejoin="round"/>
    <path d="M 110.3768539428711 161.6850128173828 C 153.88011169433594 161.04132080078125 95.59266662597656 171.13668823242188 75.10896301269531 145.58203125" stroke-width="3.0" fill="none" stroke="rgb(0, 0, 0)" stroke-opacity="1.0" stroke-linecap="round" stroke-linejoin="round"/>
    <path d="M 157.92596435546875 90.49919128417969 C 154.0939483642578 85.19100952148438 146.14784240722656 83.15591430664062 150.04025268554688 93.8908462524414" stroke-width="3.0" fill="none" stroke="rgb(0, 0, 0)" stroke-opacity="1.0" stroke-linecap="round" stroke-linejoin="round"/>
    <path d="M 140.85235595703125 143.3257598876953 C 171.8295135498047 149.3223419189453 155.20053100585938 155.9810791015625 158.26795959472656 149.6404571533203" stroke-width="3.0" fill="none" stroke="rgb(0, 0, 0)" stroke-opacity="1.0" stroke-linecap="round" stroke-linejoin="round"/>
    <path d="M 91.87168884277344 144.723388671875 C 88.8880386352539 137.07083129882812 83.43584442138672 122.1856689453125 83.10303497314453 74.50676727294922" stroke-width="3.0" fill="none" stroke="rgb(0, 0, 0)" stroke-opacity="1.0" stroke-linecap="round" stroke-linejoin="round"/>
    <path d="M 94.65338897705078 158.6959991455078 C 86.45291137695312 132.0858917236328 85.25054931640625 119.10842895507812 95.32101440429688 158.4130096435547" stroke-width="3.0" fill="none" stroke="rgb(0, 0, 0)" stroke-opacity="1.0" stroke-linecap="round" stroke-linejoin="round"/>
    <path d="M 89.74442291259766 157.8871612548828 C 109.89363098144531 165.48912048339844 140.01133728027344 163.69825744628906 157.32847595214844 153.31866455078125" stroke-width="3.0" fill="none" stroke="rgb(0, 0, 0)" stroke-opacity="1.0" stroke-linecap="round" stroke-linejoin="round"/>
    <path d="M 71.73863983154297 74.89444732666016 C 94.41036987304688 67.39507293701172 128.2985382080078 83.99900817871094 100.4636001586914 43.9139289855957" stroke-width="3.0" fill="none" stroke="rgb(0, 0, 0)" stroke-opacity="1.0" stroke-linecap="round" stroke-linejoin="round"/>
    <path d="M 87.11929321289062 72.4438247680664 C 160.07382202148438 77.6617660522461 159.7786407470703 64.43766784667969 149.600341796875 85.12422180175781" stroke-width="3.0" fill="none" stroke="rgb(0, 0, 0)" stroke-opacity="1.0" stroke-linecap="round" stroke-linejoin="round"/>
  </g>
</svg>
