<?xml version="1.0" ?>
<svg xmlns="http://www.w3.org/2000/svg" version="1.1" width="224" height="224">
  <defs/>
  <g>
    <path d="M 73.304443359375 104.35855865478516 C 85.94065856933594 149.93899536132812 86.30034637451172 157.91331481933594 74.64781951904297 109.38514709472656" stroke-width="3.0" fill="none" stroke="rgb(0, 0, 0)" stroke-opacity="1.0" stroke-linecap="round" stroke-linejoin="round"/>
    <path d="M 108.59467315673828 165.63291931152344 C 58.18352508544922 164.0830841064453 54.9998664855957 144.42149353027344 80.1120834350586 135.19918823242188" stroke-width="3.0" fill="none" stroke="rgb(0, 0, 0)" stroke-opacity="1.0" stroke-linecap="round" stroke-linejoin="round"/>
    <path d="M 79.33151245117188 145.7770538330078 C 84.95658111572266 131.44625854492188 78.21208190917969 143.7504425048828 97.47176361083984 156.2903594970703" stroke-width="3.0" fill="none" stroke="rgb(0, 0, 0)" stroke-opacity="1.0" stroke-linecap="round" stroke-linejoin="round"/>
    <path d="M 151.31463623046875 80.59840393066406 C 148.78076171875 78.57032012939453 154.3958740234375 91.40728759765625 132.79605102539062 153.15724182128906" stroke-width="3.0" fill="none" stroke="rgb(0, 0, 0)" stroke-opacity="1.0" stroke-linecap="round" stroke-linejoin="round"/>
    <path d="M 148.73822021484375 98.92047119140625 C 163.25860595703125 71.93896484375 208.5911865234375 112.9988784790039 143.9248046875 118.27107238769531" stroke-width="3.0" fill="none" stroke="rgb(0, 0, 0)" stroke-opacity="1.0" stroke-linecap="round" stroke-linejoin="round"/>
    <path d="M 97.20304870605469 159.2377166748047 C 82.7419204711914 150.2337188720703 71.172119140625 133.6118621826172 85.30980682373047 146.34156799316406" stroke-width="3.0" fill="none" stroke="rgb(0, 0, 0)" stroke-opacity="1.0" stroke-linecap="round" stroke-linejoin="round"/>
    <path d="M 69.91495513916016 76.9317855834961 C 76.00003814697266 110.46012115478516 76.04845428466797 119.3210220336914 71.16841125488281 86.3656234741211" stroke-width="3.0" fill="none" stroke="rgb(0, 0, 0)" stroke-opacity="1.0" stroke-linecap="round" stroke-linejoin="round"/>
    <path d="M 132.3516082763672 154.1305694580078 C 89.5361557006836 172.00262451171875 56.69065856933594 124.83320617675781 88.78180694580078 152.0313720703125" stroke-width="3.0" fill="none" stroke="rgb(0, 0, 0)" stroke-opacity="1.0" stroke-linecap="round" stroke-linejoin="round"/>
    <path d="M 110.2840347290039 165.14837646484375 C 151.16015625 163.09022521972656 92.10004425048828 169.6076202392578 75.9396743774414 146.44886779785156" stroke-width="3.0" fill="none" stroke="rgb(0, 0, 0)" stroke-opacity="1.0" stroke-linecap="round" stroke-linejoin="round"/>
    <path d="M 158.1298828125 90.48860931396484 C 156.2215576171875 85.2042236328125 147.52890014648438 84.57242584228516 150.24185180664062 94.79650115966797" stroke-width="3.0" fill="none" stroke="rgb(0, 0, 0)" stroke-opacity="1.0" stroke-linecap="round" stroke-linejoin="round"/>
    <path d="M 139.86517333984375 142.57183837890625 C 171.89601135253906 148.01034545898438 154.32118225097656 153.6377410888672 159.64955139160156 149.6708526611328" stroke-width="3.0" fill="none" stroke="rgb(0, 0, 0)" stroke-opacity="1.0" stroke-linecap="round" stroke-linejoin="round"/>
    <path d="M 92.77272033691406 143.85629272460938 C 90.63102722167969 137.64797973632812 87.44844818115234 119.8927230834961 87.58712005615234 77.79219055175781" stroke-width="3.0" fill="none" stroke="rgb(0, 0, 0)" stroke-opacity="1.0" stroke-linecap="round" stroke-linejoin="round"/>
    <path d="M 96.46028900146484 155.97557067871094 C 88.96038818359375 127.85930633544922 87.6683578491211 116.85094451904297 95.60690307617188 159.39707946777344" stroke-width="3.0" fill="none" stroke="rgb(0, 0, 0)" stroke-opacity="1.0" stroke-linecap="round" stroke-linejoin="round"/>
    <path d="M 93.80690002441406 155.98524475097656 C 112.68791198730469 167.16627502441406 137.96298217773438 165.08499145507812 156.94944763183594 153.8825225830078" stroke-width="3.0" fill="none" stroke="rgb(0, 0, 0)" stroke-opacity="1.0" stroke-linecap="round" stroke-linejoin="round"/>
    <path d="M 71.68760681152344 74.57493591308594 C 89.63225555419922 72.17320251464844 129.5452880859375 85.22268676757812 99.77950286865234 45.02334213256836" stroke-width="3.0" fill="none" stroke="rgb(0, 0, 0)" stroke-opacity="1.0" stroke-linecap="round" stroke-linejoin="round"/>
    <path d="M 90.16747283935547 75.40434265136719 C 153.16448974609375 77.96714782714844 156.92018127441406 64.256591796875 152.16012573242188 86.17045593261719" stroke-width="3.0" fill="none" stroke="rgb(0, 0, 0)" stroke-opacity="1.0" stroke-linecap="round" stroke-linejoin="round"/>
  </g>
</svg>
