<?xml version="1.0" ?>
<svg xmlns="http://www.w3.org/2000/svg" version="1.1" width="224" height="224">
  <defs/>
  <g>
    <path d="M 73.32046508789062 107.52676391601562 C 87.05992889404297 148.09751892089844 85.4456787109375 155.43507385253906 73.4914321899414 106.37166595458984" stroke-width="3.0" fill="none" stroke="rgb(0, 0, 0)" stroke-opacity="1.0" stroke-linecap="round" stroke-linejoin="round"/>
    <path d="M 108.25344848632812 166.3973388671875 C 57.10753631591797 165.8813934326172 53.77867126464844 143.0961151123047 82.03057098388672 139.26937866210938" stroke-width="3.0" fill="none" stroke="rgb(0, 0, 0)" stroke-opacity="1.0" stroke-linecap="round" stroke-linejoin="round"/>
    <path d="M 76.5810775756836 146.8299560546875 C 82.63986206054688 132.02664184570312 80.42880249023438 141.98582458496094 96.84650421142578 158.8524627685547" stroke-width="3.0" fill="none" stroke="rgb(0, 0, 0)" stroke-opacity="1.0" stroke-linecap="round" stroke-linejoin="round"/>
    <path d="M 151.38919067382812 78.1326675415039 C 146.26931762695312 80.9507064819336 157.03305053710938 98.23918914794922 129.34686279296875 156.50631713867188" stroke-width="3.0" fill="none" stroke="rgb(0, 0, 0)" stroke-opacity="1.0" stroke-linecap="round" stroke-linejoin="round"/>
    <path d="M 148.8961639404297 98.32664489746094 C 164.13385009765625 75.37920379638672 207.99337768554688 115.05380249023438 144.61154174804688 118.64581298828125" stroke-width="3.0" fill="none" stroke="rgb(0, 0, 0)" stroke-opacity="1.0" stroke-linecap="round" stroke-linejoin="round"/>
    <path d="M 96.21929931640625 159.82711791992188 C 83.7592544555664 150.83033752441406 70.88011932373047 135.52061462402344 82.49685668945312 147.10752868652344" stroke-width="3.0" fill="none" stroke="rgb(0, 0, 0)" stroke-opacity="1.0" stroke-linecap="round" stroke-linejoin="round"/>
    <path d="M 69.23233795166016 76.92169189453125 C 73.86996459960938 110.08391571044922 74.04678344726562 120.79421997070312 70.20968627929688 82.72663116455078" stroke-width="3.0" fill="none" stroke="rgb(0, 0, 0)" stroke-opacity="1.0" stroke-linecap="round" stroke-linejoin="round"/>
    <path d="M 129.23153686523438 164.6210479736328 C 87.64710998535156 171.90196228027344 58.473793029785156 131.72463989257812 84.70938873291016 152.7350616455078" stroke-width="3.0" fill="none" stroke="rgb(0, 0, 0)" stroke-opacity="1.0" stroke-linecap="round" stroke-linejoin="round"/>
    <path d="M 95.11323547363281 165.835205078125 C 141.0583953857422 166.02114868164062 91.85308074951172 170.36790466308594 80.84893035888672 147.17933654785156" stroke-width="3.0" fill="none" stroke="rgb(0, 0, 0)" stroke-opacity="1.0" stroke-linecap="round" stroke-linejoin="round"/>
    <path d="M 158.67538452148438 90.55305480957031 C 151.82884216308594 83.95624542236328 148.98275756835938 81.22402954101562 151.033447265625 94.25701904296875" stroke-width="3.0" fill="none" stroke="rgb(0, 0, 0)" stroke-opacity="1.0" stroke-linecap="round" stroke-linejoin="round"/>
    <path d="M 138.565185546875 146.37840270996094 C 170.91400146484375 149.87716674804688 153.6201171875 152.05113220214844 158.1538543701172 154.18649291992188" stroke-width="3.0" fill="none" stroke="rgb(0, 0, 0)" stroke-opacity="1.0" stroke-linecap="round" stroke-linejoin="round"/>
    <path d="M 90.32003784179688 141.07925415039062 C 89.40972137451172 136.21481323242188 82.57170867919922 121.39627838134766 84.1307373046875 75.53599548339844" stroke-width="3.0" fill="none" stroke="rgb(0, 0, 0)" stroke-opacity="1.0" stroke-linecap="round" stroke-linejoin="round"/>
    <path d="M 88.82927703857422 136.72317504882812 C 85.827392578125 120.58106994628906 82.90567016601562 112.60855865478516 93.06961822509766 153.6088409423828" stroke-width="3.0" fill="none" stroke="rgb(0, 0, 0)" stroke-opacity="1.0" stroke-linecap="round" stroke-linejoin="round"/>
    <path d="M 94.94403839111328 157.95823669433594 C 111.17540740966797 166.15130615234375 143.20140075683594 163.98196411132812 157.30657958984375 154.39720153808594" stroke-width="3.0" fill="none" stroke="rgb(0, 0, 0)" stroke-opacity="1.0" stroke-linecap="round" stroke-linejoin="round"/>
    <path d="M 70.2217025756836 75.39254760742188 C 90.86461639404297 68.0540542602539 132.09201049804688 82.62638854980469 102.16893005371094 46.7265510559082" stroke-width="3.0" fill="none" stroke="rgb(0, 0, 0)" stroke-opacity="1.0" stroke-linecap="round" stroke-linejoin="round"/>
    <path d="M 98.43659973144531 71.93616485595703 C 151.6232147216797 74.93350982666016 156.83322143554688 61.75106430053711 152.95216369628906 86.69088745117188" stroke-width="3.0" fill="none" stroke="rgb(0, 0, 0)" stroke-opacity="1.0" stroke-linecap="round" stroke-linejoin="round"/>
  </g>
</svg>
