<?xml version="1.0" ?>
<svg xmlns="http://www.w3.org/2000/svg" version="1.1" width="224" height="224">
  <defs/>
  <g>
    <path d="M 72.81407165527344 106.33743286132812 C 83.80370330810547 153.5741424560547 84.24187469482422 158.30516052246094 72.5577392578125 106.60112762451172" stroke-width="3.0" fill="none" stroke="rgb(0, 0, 0)" stroke-opacity="1.0" stroke-linecap="round" stroke-linejoin="round"/>
    <path d="M 108.10404968261719 163.37966918945312 C 57.585391998291016 166.669677734375 54.25137710571289 142.9041748046875 78.9962387084961 137.7072296142578" stroke-width="3.0" fill="none" stroke="rgb(0, 0, 0)" stroke-opacity="1.0" stroke-linecap="round" stroke-linejoin="round"/>
    <path d="M 79.85880279541016 146.1373291015625 C 81.92221069335938 131.31207275390625 76.35759735107422 144.7612762451172 96.26164245605469 158.8606414794922" stroke-width="3.0" fill="none" stroke="rgb(0, 0, 0)" stroke-opacity="1.0" stroke-linecap="round" stroke-linejoin="round"/>
    <path d="M 151.7615203857422 78.52571868896484 C 148.18907165527344 78.44786834716797 154.81398010253906 93.90592956542969 132.3651580810547 155.32574462890625" stroke-width="3.0" fill="none" stroke="rgb(0, 0, 0)" stroke-opacity="1.0" stroke-linecap="round" stroke-linejoin="round"/>
    <path d="M 148.882568359375 98.52885437011719 C 163.9595947265625 72.69562530517578 207.1798858642578 113.6860580444336 144.1978759765625 118.08065032958984" stroke-width="3.0" fill="none" stroke="rgb(0, 0, 0)" stroke-opacity="1.0" stroke-linecap="round" stroke-linejoin="round"/>
    <path d="M 97.94183349609375 158.27207946777344 C 82.86509704589844 151.0155029296875 70.99198913574219 133.30355834960938 83.30622100830078 145.34214782714844" stroke-width="3.0" fill="none" stroke="rgb(0, 0, 0)" stroke-opacity="1.0" stroke-linecap="round" stroke-linejoin="round"/>
    <path d="M 69.77906799316406 76.59046936035156 C 72.92326354980469 111.66647338867188 74.39639282226562 121.27304077148438 71.1013412475586 82.53311157226562" stroke-width="3.0" fill="none" stroke="rgb(0, 0, 0)" stroke-opacity="1.0" stroke-linecap="round" stroke-linejoin="round"/>
    <path d="M 130.31124877929688 160.36407470703125 C 88.4618148803711 169.00772094726562 57.68772506713867 128.57437133789062 89.00971984863281 149.76754760742188" stroke-width="3.0" fill="none" stroke="rgb(0, 0, 0)" stroke-opacity="1.0" stroke-linecap="round" stroke-linejoin="round"/>
    <path d="M 102.20217895507812 163.79180908203125 C 145.6227569580078 161.96395874023438 92.96601867675781 168.68814086914062 76.44746398925781 147.02853393554688" stroke-width="3.0" fill="none" stroke="rgb(0, 0, 0)" stroke-opacity="1.0" stroke-linecap="round" stroke-linejoin="round"/>
    <path d="M 157.42599487304688 90.33792877197266 C 148.89817810058594 86.48812866210938 148.56185913085938 83.118408203125 151.6814727783203 94.78308868408203" stroke-width="3.0" fill="none" stroke="rgb(0, 0, 0)" stroke-opacity="1.0" stroke-linecap="round" stroke-linejoin="round"/>
    <path d="M 141.29168701171875 143.6476593017578 C 171.90090942382812 149.11785888671875 154.79632568359375 153.8335418701172 158.9749755859375 150.428955078125" stroke-width="3.0" fill="none" stroke="rgb(0, 0, 0)" stroke-opacity="1.0" stroke-linecap="round" stroke-linejoin="round"/>
    <path d="M 88.73013305664062 144.55474853515625 C 89.99816131591797 138.14573669433594 84.30571746826172 119.04402160644531 88.5715103149414 75.90428161621094" stroke-width="3.0" fill="none" stroke="rgb(0, 0, 0)" stroke-opacity="1.0" stroke-linecap="round" stroke-linejoin="round"/>
    <path d="M 89.75730895996094 145.86761474609375 C 88.36080169677734 123.74161529541016 85.5290298461914 114.1507339477539 93.26371002197266 157.3195343017578" stroke-width="3.0" fill="none" stroke="rgb(0, 0, 0)" stroke-opacity="1.0" stroke-linecap="round" stroke-linejoin="round"/>
    <path d="M 94.00333404541016 158.4486541748047 C 106.46575927734375 163.37522888183594 144.286865234375 162.12228393554688 158.39169311523438 152.20291137695312" stroke-width="3.0" fill="none" stroke="rgb(0, 0, 0)" stroke-opacity="1.0" stroke-linecap="round" stroke-linejoin="round"/>
    <path d="M 71.90180206298828 73.10566711425781 C 85.99546813964844 69.59967803955078 129.27017211914062 82.95477294921875 100.94931030273438 44.73682403564453" stroke-width="3.0" fill="none" stroke="rgb(0, 0, 0)" stroke-opacity="1.0" stroke-linecap="round" stroke-linejoin="round"/>
    <path d="M 91.5372085571289 72.09178161621094 C 152.73468017578125 74.5230941772461 158.51922607421875 63.321144104003906 151.3718719482422 85.40716552734375" stroke-width="3.0" fill="none" stroke="rgb(0, 0, 0)" stroke-opacity="1.0" stroke-linecap="round" stroke-linejoin="round"/>
  </g>
</svg>
