<?xml version="1.0" ?>
<svg xmlns="http://www.w3.org/2000/svg" version="1.1" width="224" height="224">
  <defs/>
  <g>
    <path d="M 71.55580139160156 108.00919342041016 C 84.36643981933594 148.10592651367188 91.50213623046875 176.3755340576172 72.5899658203125 106.45535278320312" stroke-width="3.0" fill="none" stroke="rgb(0, 0, 0)" stroke-opacity="1.0" stroke-linecap="round" stroke-linejoin="round"/>
    <path d="M 121.62129974365234 164.93296813964844 C 61.63670349121094 170.0443115234375 52.006202697753906 143.7439727783203 79.7956771850586 140.5166015625" stroke-width="3.0" fill="none" stroke="rgb(0, 0, 0)" stroke-opacity="1.0" stroke-linecap="round" stroke-linejoin="round"/>
    <path d="M 78.80248260498047 144.34573364257812 C 74.89665985107422 141.65045166015625 79.40703582763672 138.45594787597656 92.58705139160156 155.5425567626953" stroke-width="3.0" fill="none" stroke="rgb(0, 0, 0)" stroke-opacity="1.0" stroke-linecap="round" stroke-linejoin="round"/>
    <path d="M 151.70428466796875 80.67012786865234 C 147.85208129882812 81.20023345947266 157.12110900878906 85.14321899414062 133.2891845703125 151.73110961914062" stroke-width="3.0" fill="none" stroke="rgb(0, 0, 0)" stroke-opacity="1.0" stroke-linecap="round" stroke-linejoin="round"/>
    <path d="M 150.13612365722656 97.46979522705078 C 164.68356323242188 74.88902282714844 213.1103973388672 112.54041290283203 144.79428100585938 116.62637329101562" stroke-width="3.0" fill="none" stroke="rgb(0, 0, 0)" stroke-opacity="1.0" stroke-linecap="round" stroke-linejoin="round"/>
    <path d="M 92.91116333007812 155.7309112548828 C 76.18333435058594 150.04920959472656 77.55049896240234 126.90764617919922 85.00418853759766 148.35067749023438" stroke-width="3.0" fill="none" stroke="rgb(0, 0, 0)" stroke-opacity="1.0" stroke-linecap="round" stroke-linejoin="round"/>
    <path d="M 68.72383117675781 77.71540069580078 C 70.88318634033203 102.7537841796875 75.02986907958984 123.09759521484375 69.69862365722656 88.84979248046875" stroke-width="3.0" fill="none" stroke="rgb(0, 0, 0)" stroke-opacity="1.0" stroke-linecap="round" stroke-linejoin="round"/>
    <path d="M 132.8463592529297 153.7220916748047 C 86.90154266357422 170.6262664794922 53.15894317626953 124.8440933227539 91.15035247802734 156.33566284179688" stroke-width="3.0" fill="none" stroke="rgb(0, 0, 0)" stroke-opacity="1.0" stroke-linecap="round" stroke-linejoin="round"/>
    <path d="M 121.94538116455078 163.59031677246094 C 159.5037841796875 158.10073852539062 90.57035827636719 172.8755340576172 81.68594360351562 146.06869506835938" stroke-width="3.0" fill="none" stroke="rgb(0, 0, 0)" stroke-opacity="1.0" stroke-linecap="round" stroke-linejoin="round"/>
    <path d="M 152.7920684814453 80.30448913574219 C 152.1744384765625 79.85560607910156 148.57615661621094 72.54946899414062 149.92738342285156 94.90327453613281" stroke-width="3.0" fill="none" stroke="rgb(0, 0, 0)" stroke-opacity="1.0" stroke-linecap="round" stroke-linejoin="round"/>
    <path d="M 139.8058624267578 145.67398071289062 C 175.1633758544922 147.32521057128906 157.9351806640625 155.24554443359375 153.30357360839844 153.8371124267578" stroke-width="3.0" fill="none" stroke="rgb(0, 0, 0)" stroke-opacity="1.0" stroke-linecap="round" stroke-linejoin="round"/>
    <path d="M 92.51908874511719 154.56715393066406 C 84.44660949707031 149.13104248046875 82.54662322998047 124.9456558227539 81.80340576171875 74.61235809326172" stroke-width="3.0" fill="none" stroke="rgb(0, 0, 0)" stroke-opacity="1.0" stroke-linecap="round" stroke-linejoin="round"/>
    <path d="M 103.8049087524414 159.19667053222656 C 84.4797134399414 157.13699340820312 81.87100982666016 140.49952697753906 91.14580535888672 155.49334716796875" stroke-width="3.0" fill="none" stroke="rgb(0, 0, 0)" stroke-opacity="1.0" stroke-linecap="round" stroke-linejoin="round"/>
    <path d="M 86.4378433227539 152.8826904296875 C 100.13789367675781 166.39456176757812 148.3758544921875 167.2187042236328 160.9377899169922 151.62315368652344" stroke-width="3.0" fill="none" stroke="rgb(0, 0, 0)" stroke-opacity="1.0" stroke-linecap="round" stroke-linejoin="round"/>
    <path d="M 69.81298828125 75.49720001220703 C 95.67230987548828 70.0868148803711 129.12051391601562 84.78152465820312 100.33729553222656 44.797611236572266" stroke-width="3.0" fill="none" stroke="rgb(0, 0, 0)" stroke-opacity="1.0" stroke-linecap="round" stroke-linejoin="round"/>
    <path d="M 96.85655975341797 72.96234893798828 C 159.01373291015625 74.70821380615234 153.97286987304688 64.31595611572266 153.91847229003906 89.4805679321289" stroke-width="3.0" fill="none" stroke="rgb(0, 0, 0)" stroke-opacity="1.0" stroke-linecap="round" stroke-linejoin="round"/>
  </g>
</svg>
