<?xml version="1.0" ?>
<svg xmlns="http://www.w3.org/2000/svg" version="1.1" width="224" height="224">
  <defs/>
  <g>
    <path d="M 77.57737731933594 115.74071502685547 C 83.98919677734375 138.75942993164062 82.14014434814453 131.653076171875 82.07661437988281 130.17633056640625" stroke-width="3.0" fill="none" stroke="rgb(0, 0, 0)" stroke-opacity="1.0" stroke-linecap="round" stroke-linejoin="round"/>
    <path d="M 86.66133117675781 160.52830505371094 C 54.900291442871094 158.4549560546875 58.37308120727539 143.80458068847656 84.15326690673828 140.4377899169922" stroke-width="3.0" fill="none" stroke="rgb(0, 0, 0)" stroke-opacity="1.0" stroke-linecap="round" stroke-linejoin="round"/>
    <path d="M 84.20868682861328 149.70347595214844 C 82.83902740478516 128.7860870361328 80.6302719116211 135.67945861816406 90.06956481933594 153.4427490234375" stroke-width="3.0" fill="none" stroke="rgb(0, 0, 0)" stroke-opacity="1.0" stroke-linecap="round" stroke-linejoin="round"/>
    <path d="M 151.3228759765625 77.39512634277344 C 149.31866455078125 89.6649398803711 150.17469787597656 107.1528091430664 130.27484130859375 154.28297424316406" stroke-width="3.0" fill="none" stroke="rgb(0, 0, 0)" stroke-opacity="1.0" stroke-linecap="round" stroke-linejoin="round"/>
    <path d="M 152.34034729003906 94.07986450195312 C 178.60679626464844 80.04747772216797 196.93145751953125 118.45462799072266 146.38668823242188 120.71761322021484" stroke-width="3.0" fill="none" stroke="rgb(0, 0, 0)" stroke-opacity="1.0" stroke-linecap="round" stroke-linejoin="round"/>
    <path d="M 100.24878692626953 158.62054443359375 C 88.18406677246094 152.9414520263672 84.25597381591797 151.27951049804688 81.45928192138672 146.08843994140625" stroke-width="3.0" fill="none" stroke="rgb(0, 0, 0)" stroke-opacity="1.0" stroke-linecap="round" stroke-linejoin="round"/>
    <path d="M 69.65785217285156 75.46485900878906 C 75.70369720458984 107.54279327392578 76.58495330810547 121.38011932373047 73.36771392822266 82.82174682617188" stroke-width="3.0" fill="none" stroke="rgb(0, 0, 0)" stroke-opacity="1.0" stroke-linecap="round" stroke-linejoin="round"/>
    <path d="M 111.15579986572266 161.4519805908203 C 70.41064453125 165.84140014648438 60.61823654174805 150.55426025390625 92.57862854003906 158.03334045410156" stroke-width="3.0" fill="none" stroke="rgb(0, 0, 0)" stroke-opacity="1.0" stroke-linecap="round" stroke-linejoin="round"/>
    <path d="M 101.48338317871094 162.06326293945312 C 139.9375762939453 160.36993408203125 125.55145263671875 158.99429321289062 81.19345092773438 156.61705017089844" stroke-width="3.0" fill="none" stroke="rgb(0, 0, 0)" stroke-opacity="1.0" stroke-linecap="round" stroke-linejoin="round"/>
    <path d="M 167.55076599121094 91.23387145996094 C 160.27456665039062 89.7570571899414 148.9003448486328 80.16438293457031 150.61563110351562 96.31696319580078" stroke-width="3.0" fill="none" stroke="rgb(0, 0, 0)" stroke-opacity="1.0" stroke-linecap="round" stroke-linejoin="round"/>
    <path d="M 160.90548706054688 146.31153869628906 C 167.46871948242188 149.453125 153.0720977783203 152.3708953857422 160.77227783203125 149.9835968017578" stroke-width="3.0" fill="none" stroke="rgb(0, 0, 0)" stroke-opacity="1.0" stroke-linecap="round" stroke-linejoin="round"/>
    <path d="M 85.2853012084961 141.8861541748047 C 82.70166778564453 131.16029357910156 77.63640594482422 116.08158111572266 75.06561279296875 101.171142578125" stroke-width="3.0" fill="none" stroke="rgb(0, 0, 0)" stroke-opacity="1.0" stroke-linecap="round" stroke-linejoin="round"/>
    <path d="M 79.57839965820312 121.06670379638672 C 79.94356536865234 121.14937591552734 77.9888916015625 112.8095703125 83.99432373046875 141.92103576660156" stroke-width="3.0" fill="none" stroke="rgb(0, 0, 0)" stroke-opacity="1.0" stroke-linecap="round" stroke-linejoin="round"/>
    <path d="M 107.89537811279297 159.79847717285156 C 113.08786010742188 158.02371215820312 143.6735382080078 159.55014038085938 159.29757690429688 151.50119018554688" stroke-width="3.0" fill="none" stroke="rgb(0, 0, 0)" stroke-opacity="1.0" stroke-linecap="round" stroke-linejoin="round"/>
    <path d="M 72.50546264648438 74.2130126953125 C 100.66166687011719 72.98682403564453 141.8446044921875 88.74551391601562 100.38655090332031 46.810787200927734" stroke-width="3.0" fill="none" stroke="rgb(0, 0, 0)" stroke-opacity="1.0" stroke-linecap="round" stroke-linejoin="round"/>
    <path d="M 104.29747009277344 72.93782806396484 C 136.42825317382812 83.01575469970703 161.82186889648438 59.010047912597656 153.53562927246094 90.65655517578125" stroke-width="3.0" fill="none" stroke="rgb(0, 0, 0)" stroke-opacity="1.0" stroke-linecap="round" stroke-linejoin="round"/>
  </g>
</svg>
