<?xml version="1.0" ?>
<svg xmlns="http://www.w3.org/2000/svg" version="1.1" width="224" height="224">
  <defs/>
  <g>
    <path d="M 77.99665069580078 115.24443817138672 C 84.72168731689453 138.29737854003906 82.43785095214844 132.06727600097656 82.19557189941406 129.94891357421875" stroke-width="3.0" fill="none" stroke="rgb(0, 0, 0)" stroke-opacity="1.0" stroke-linecap="round" stroke-linejoin="round"/>
    <path d="M 87.51528930664062 162.1708221435547 C 56.92155456542969 159.3900146484375 60.964691162109375 142.7723846435547 85.56377410888672 141.68319702148438" stroke-width="3.0" fill="none" stroke="rgb(0, 0, 0)" stroke-opacity="1.0" stroke-linecap="round" stroke-linejoin="round"/>
    <path d="M 85.2955322265625 149.61436462402344 C 82.81513977050781 129.3214874267578 81.91658020019531 135.00550842285156 89.0786361694336 152.67381286621094" stroke-width="3.0" fill="none" stroke="rgb(0, 0, 0)" stroke-opacity="1.0" stroke-linecap="round" stroke-linejoin="round"/>
    <path d="M 151.65261840820312 77.95436096191406 C 151.3942413330078 89.88858032226562 150.1475830078125 107.78176879882812 129.55764770507812 156.38653564453125" stroke-width="3.0" fill="none" stroke="rgb(0, 0, 0)" stroke-opacity="1.0" stroke-linecap="round" stroke-linejoin="round"/>
    <path d="M 152.8770751953125 93.91693878173828 C 180.22483825683594 83.16363525390625 197.74148559570312 119.12678527832031 143.83262634277344 116.58345794677734" stroke-width="3.0" fill="none" stroke="rgb(0, 0, 0)" stroke-opacity="1.0" stroke-linecap="round" stroke-linejoin="round"/>
    <path d="M 99.86831665039062 159.75900268554688 C 87.8880844116211 153.46852111816406 85.90620422363281 149.35792541503906 82.95552062988281 147.96066284179688" stroke-width="3.0" fill="none" stroke="rgb(0, 0, 0)" stroke-opacity="1.0" stroke-linecap="round" stroke-linejoin="round"/>
    <path d="M 70.74320220947266 76.9372787475586 C 76.66278839111328 107.1773681640625 76.88399505615234 121.18470001220703 74.02757263183594 79.04293823242188" stroke-width="3.0" fill="none" stroke="rgb(0, 0, 0)" stroke-opacity="1.0" stroke-linecap="round" stroke-linejoin="round"/>
    <path d="M 111.7989501953125 163.83038330078125 C 71.6856689453125 166.01220703125 63.49568557739258 151.0993194580078 94.26498413085938 159.11134338378906" stroke-width="3.0" fill="none" stroke="rgb(0, 0, 0)" stroke-opacity="1.0" stroke-linecap="round" stroke-linejoin="round"/>
    <path d="M 103.64016723632812 163.44618225097656 C 135.8153076171875 163.10275268554688 120.73025512695312 162.30335998535156 81.05949401855469 157.91592407226562" stroke-width="3.0" fill="none" stroke="rgb(0, 0, 0)" stroke-opacity="1.0" stroke-linecap="round" stroke-linejoin="round"/>
    <path d="M 167.06289672851562 92.42919158935547 C 158.53369140625 91.85417175292969 146.46463012695312 80.13546752929688 151.5189666748047 96.27474975585938" stroke-width="3.0" fill="none" stroke="rgb(0, 0, 0)" stroke-opacity="1.0" stroke-linecap="round" stroke-linejoin="round"/>
    <path d="M 162.12318420410156 145.94638061523438 C 168.0309600830078 148.49925231933594 154.81394958496094 156.4621124267578 161.9869842529297 151.38217163085938" stroke-width="3.0" fill="none" stroke="rgb(0, 0, 0)" stroke-opacity="1.0" stroke-linecap="round" stroke-linejoin="round"/>
    <path d="M 85.06800079345703 141.3546142578125 C 82.7343521118164 130.29054260253906 77.267333984375 116.52181243896484 75.82256317138672 102.67659759521484" stroke-width="3.0" fill="none" stroke="rgb(0, 0, 0)" stroke-opacity="1.0" stroke-linecap="round" stroke-linejoin="round"/>
    <path d="M 79.07120513916016 121.52020263671875 C 79.14393615722656 121.81236267089844 76.95492553710938 114.01692199707031 85.23091125488281 141.4012451171875" stroke-width="3.0" fill="none" stroke="rgb(0, 0, 0)" stroke-opacity="1.0" stroke-linecap="round" stroke-linejoin="round"/>
    <path d="M 108.93773651123047 160.59597778320312 C 114.07376861572266 161.3282012939453 143.7284698486328 161.5242919921875 159.2875518798828 152.66900634765625" stroke-width="3.0" fill="none" stroke="rgb(0, 0, 0)" stroke-opacity="1.0" stroke-linecap="round" stroke-linejoin="round"/>
    <path d="M 72.27153015136719 74.47139739990234 C 99.4253158569336 70.56859588623047 139.76075744628906 86.26557159423828 101.48556518554688 46.667701721191406" stroke-width="3.0" fill="none" stroke="rgb(0, 0, 0)" stroke-opacity="1.0" stroke-linecap="round" stroke-linejoin="round"/>
    <path d="M 99.08979797363281 70.47196960449219 C 136.39382934570312 80.41100311279297 163.27476501464844 60.915645599365234 153.68898010253906 88.48790740966797" stroke-width="3.0" fill="none" stroke="rgb(0, 0, 0)" stroke-opacity="1.0" stroke-linecap="round" stroke-linejoin="round"/>
  </g>
</svg>
