<?xml version="1.0" ?>
<svg xmlns="http://www.w3.org/2000/svg" version="1.1" width="224" height="224">
  <defs/>
  <g>
    <path d="M 71.70172882080078 107.94511413574219 C 83.6256332397461 149.29263305664062 92.0329360961914 179.38050842285156 72.33451843261719 107.443359375" stroke-width="3.0" fill="none" stroke="rgb(0, 0, 0)" stroke-opacity="1.0" stroke-linecap="round" stroke-linejoin="round"/>
    <path d="M 121.93144226074219 165.8224334716797 C 61.04529571533203 172.14060974121094 50.18083572387695 140.8141326904297 79.09319305419922 139.18264770507812" stroke-width="3.0" fill="none" stroke="rgb(0, 0, 0)" stroke-opacity="1.0" stroke-linecap="round" stroke-linejoin="round"/>
    <path d="M 80.5196533203125 145.15060424804688 C 76.79916381835938 131.04367065429688 81.75859069824219 132.35519409179688 87.53945922851562 154.85009765625" stroke-width="3.0" fill="none" stroke="rgb(0, 0, 0)" stroke-opacity="1.0" stroke-linecap="round" stroke-linejoin="round"/>
    <path d="M 149.7382049560547 85.56639099121094 C 148.96812438964844 86.70761108398438 156.3192138671875 82.72712707519531 133.0380859375 150.8648681640625" stroke-width="3.0" fill="none" stroke="rgb(0, 0, 0)" stroke-opacity="1.0" stroke-linecap="round" stroke-linejoin="round"/>
    <path d="M 150.38990783691406 98.09083557128906 C 157.76644897460938 75.78340911865234 210.66932678222656 110.20899963378906 144.42892456054688 114.97850036621094" stroke-width="3.0" fill="none" stroke="rgb(0, 0, 0)" stroke-opacity="1.0" stroke-linecap="round" stroke-linejoin="round"/>
    <path d="M 93.88763427734375 153.55819702148438 C 69.50470733642578 153.9014892578125 73.61515045166016 136.76902770996094 82.59257507324219 151.73440551757812" stroke-width="3.0" fill="none" stroke="rgb(0, 0, 0)" stroke-opacity="1.0" stroke-linecap="round" stroke-linejoin="round"/>
    <path d="M 69.48563385009766 76.51673889160156 C 71.77981567382812 100.58424377441406 74.09230041503906 126.9463882446289 69.39484405517578 87.73839569091797" stroke-width="3.0" fill="none" stroke="rgb(0, 0, 0)" stroke-opacity="1.0" stroke-linecap="round" stroke-linejoin="round"/>
    <path d="M 133.28009033203125 152.89407348632812 C 92.70698547363281 174.47190856933594 54.92136001586914 123.09735107421875 92.94898986816406 154.296630859375" stroke-width="3.0" fill="none" stroke="rgb(0, 0, 0)" stroke-opacity="1.0" stroke-linecap="round" stroke-linejoin="round"/>
    <path d="M 123.19889068603516 166.6212921142578 C 159.47605895996094 156.61941528320312 88.40998840332031 174.32595825195312 80.88684844970703 144.65866088867188" stroke-width="3.0" fill="none" stroke="rgb(0, 0, 0)" stroke-opacity="1.0" stroke-linecap="round" stroke-linejoin="round"/>
    <path d="M 153.19557189941406 78.13138580322266 C 152.67359924316406 79.82554626464844 148.0987091064453 72.64873504638672 150.25791931152344 95.02693176269531" stroke-width="3.0" fill="none" stroke="rgb(0, 0, 0)" stroke-opacity="1.0" stroke-linecap="round" stroke-linejoin="round"/>
    <path d="M 137.9209747314453 145.53309631347656 C 173.08126831054688 149.09080505371094 152.12696838378906 152.72422790527344 157.4574432373047 152.9532470703125" stroke-width="3.0" fill="none" stroke="rgb(0, 0, 0)" stroke-opacity="1.0" stroke-linecap="round" stroke-linejoin="round"/>
    <path d="M 94.95685577392578 159.09646606445312 C 91.42230987548828 151.0063018798828 87.12716674804688 118.05767059326172 88.4298324584961 73.52149200439453" stroke-width="3.0" fill="none" stroke="rgb(0, 0, 0)" stroke-opacity="1.0" stroke-linecap="round" stroke-linejoin="round"/>
    <path d="M 100.55687713623047 160.7151641845703 C 86.00450897216797 154.65789794921875 82.73285675048828 139.6434783935547 89.41929626464844 154.53213500976562" stroke-width="3.0" fill="none" stroke="rgb(0, 0, 0)" stroke-opacity="1.0" stroke-linecap="round" stroke-linejoin="round"/>
    <path d="M 92.12759399414062 150.99176025390625 C 101.10760498046875 168.77906799316406 142.01168823242188 166.00491333007812 158.51406860351562 152.92999267578125" stroke-width="3.0" fill="none" stroke="rgb(0, 0, 0)" stroke-opacity="1.0" stroke-linecap="round" stroke-linejoin="round"/>
    <path d="M 72.03306579589844 74.28052520751953 C 93.20243835449219 69.79095458984375 129.35874938964844 83.69869995117188 99.24202728271484 44.94413375854492" stroke-width="3.0" fill="none" stroke="rgb(0, 0, 0)" stroke-opacity="1.0" stroke-linecap="round" stroke-linejoin="round"/>
    <path d="M 98.16173553466797 72.5759506225586 C 163.6066131591797 75.16678619384766 154.72177124023438 65.85468292236328 154.2357177734375 86.15377807617188" stroke-width="3.0" fill="none" stroke="rgb(0, 0, 0)" stroke-opacity="1.0" stroke-linecap="round" stroke-linejoin="round"/>
  </g>
</svg>
