<?xml version="1.0" ?>
<svg xmlns="http://www.w3.org/2000/svg" version="1.1" width="224" height="224">
  <defs/>
  <g>
    <path d="M 72.71437072753906 105.843994140625 C 85.01367950439453 149.20924377441406 88.01901245117188 146.35946655273438 75.02230834960938 108.4386978149414" stroke-width="3.0" fill="none" stroke="rgb(0, 0, 0)" stroke-opacity="1.0" stroke-linecap="round" stroke-linejoin="round"/>
    <path d="M 107.885009765625 165.52110290527344 C 55.0262565612793 166.08428955078125 53.16093444824219 143.3585662841797 82.5167465209961 141.53111267089844" stroke-width="3.0" fill="none" stroke="rgb(0, 0, 0)" stroke-opacity="1.0" stroke-linecap="round" stroke-linejoin="round"/>
    <path d="M 81.93180084228516 148.82891845703125 C 80.30339813232422 133.52642822265625 77.11063385009766 143.02694702148438 93.63257598876953 158.7321319580078" stroke-width="3.0" fill="none" stroke="rgb(0, 0, 0)" stroke-opacity="1.0" stroke-linecap="round" stroke-linejoin="round"/>
    <path d="M 152.18698120117188 77.13318634033203 C 147.564697265625 88.95439147949219 154.00540161132812 98.002685546875 130.53834533691406 155.8579559326172" stroke-width="3.0" fill="none" stroke="rgb(0, 0, 0)" stroke-opacity="1.0" stroke-linecap="round" stroke-linejoin="round"/>
    <path d="M 148.8570556640625 97.42131042480469 C 163.63088989257812 72.50872039794922 205.7482147216797 113.87519073486328 145.16848754882812 118.33363342285156" stroke-width="3.0" fill="none" stroke="rgb(0, 0, 0)" stroke-opacity="1.0" stroke-linecap="round" stroke-linejoin="round"/>
    <path d="M 100.25492095947266 160.54608154296875 C 79.67897033691406 154.41513061523438 75.01092529296875 140.3048095703125 83.80113983154297 147.4291534423828" stroke-width="3.0" fill="none" stroke="rgb(0, 0, 0)" stroke-opacity="1.0" stroke-linecap="round" stroke-linejoin="round"/>
    <path d="M 71.09259796142578 76.40967559814453 C 72.6100082397461 115.75050354003906 75.86065673828125 124.13742065429688 72.08197784423828 79.38639831542969" stroke-width="3.0" fill="none" stroke="rgb(0, 0, 0)" stroke-opacity="1.0" stroke-linecap="round" stroke-linejoin="round"/>
    <path d="M 123.2528305053711 161.06881713867188 C 87.6067886352539 164.64776611328125 65.60649108886719 136.37840270996094 84.68244934082031 152.63304138183594" stroke-width="3.0" fill="none" stroke="rgb(0, 0, 0)" stroke-opacity="1.0" stroke-linecap="round" stroke-linejoin="round"/>
    <path d="M 90.54657745361328 165.57313537597656 C 144.77857971191406 166.39688110351562 98.31327819824219 170.3145751953125 82.87828826904297 147.93988037109375" stroke-width="3.0" fill="none" stroke="rgb(0, 0, 0)" stroke-opacity="1.0" stroke-linecap="round" stroke-linejoin="round"/>
    <path d="M 158.75025939941406 89.5265121459961 C 149.5648651123047 85.08967590332031 150.10293579101562 81.36923217773438 149.56446838378906 95.24398040771484" stroke-width="3.0" fill="none" stroke="rgb(0, 0, 0)" stroke-opacity="1.0" stroke-linecap="round" stroke-linejoin="round"/>
    <path d="M 138.12619018554688 144.77281188964844 C 171.67758178710938 146.05023193359375 154.46539306640625 149.73179626464844 157.04360961914062 151.75088500976562" stroke-width="3.0" fill="none" stroke="rgb(0, 0, 0)" stroke-opacity="1.0" stroke-linecap="round" stroke-linejoin="round"/>
    <path d="M 85.29584503173828 137.8788299560547 C 83.948486328125 134.93511962890625 81.0348892211914 119.976806640625 82.50879669189453 92.2673568725586" stroke-width="3.0" fill="none" stroke="rgb(0, 0, 0)" stroke-opacity="1.0" stroke-linecap="round" stroke-linejoin="round"/>
    <path d="M 83.14875030517578 124.41708374023438 C 81.23548126220703 116.23519897460938 76.67322540283203 111.20231628417969 87.51385498046875 153.0557098388672" stroke-width="3.0" fill="none" stroke="rgb(0, 0, 0)" stroke-opacity="1.0" stroke-linecap="round" stroke-linejoin="round"/>
    <path d="M 100.21513366699219 158.812255859375 C 114.71852111816406 161.64500427246094 140.4774627685547 162.0976104736328 158.25885009765625 151.21194458007812" stroke-width="3.0" fill="none" stroke="rgb(0, 0, 0)" stroke-opacity="1.0" stroke-linecap="round" stroke-linejoin="round"/>
    <path d="M 74.42826080322266 74.09708404541016 C 89.56430053710938 70.01885986328125 131.14810180664062 85.05779266357422 100.38066864013672 44.84061813354492" stroke-width="3.0" fill="none" stroke="rgb(0, 0, 0)" stroke-opacity="1.0" stroke-linecap="round" stroke-linejoin="round"/>
    <path d="M 96.53034210205078 72.13951110839844 C 151.29209899902344 75.92716979980469 157.94224548339844 60.873355865478516 148.99525451660156 88.81755828857422" stroke-width="3.0" fill="none" stroke="rgb(0, 0, 0)" stroke-opacity="1.0" stroke-linecap="round" stroke-linejoin="round"/>
  </g>
</svg>
