<?xml version="1.0" ?>
<svg xmlns="http://www.w3.org/2000/svg" version="1.1" width="224" height="224">
  <defs/>
  <g>
    <path d="M 76.54339599609375 115.30228424072266 C 84.24083709716797 143.37754821777344 84.06837463378906 138.49656677246094 80.19388580322266 122.11436462402344" stroke-width="3.0" fill="none" stroke="rgb(0, 0, 0)" stroke-opacity="1.0" stroke-linecap="round" stroke-linejoin="round"/>
    <path d="M 107.91287231445312 158.9029541015625 C 48.890132904052734 165.20726013183594 49.99238204956055 146.1079864501953 84.49568176269531 141.320556640625" stroke-width="3.0" fill="none" stroke="rgb(0, 0, 0)" stroke-opacity="1.0" stroke-linecap="round" stroke-linejoin="round"/>
    <path d="M 83.5101089477539 147.7135467529297 C 82.53021240234375 127.63424682617188 77.85871124267578 139.06980895996094 92.7702865600586 153.25205993652344" stroke-width="3.0" fill="none" stroke="rgb(0, 0, 0)" stroke-opacity="1.0" stroke-linecap="round" stroke-linejoin="round"/>
    <path d="M 151.83631896972656 76.25033569335938 C 148.65109252929688 90.6175537109375 151.45281982421875 102.36432647705078 133.50198364257812 153.17742919921875" stroke-width="3.0" fill="none" stroke="rgb(0, 0, 0)" stroke-opacity="1.0" stroke-linecap="round" stroke-linejoin="round"/>
    <path d="M 149.25367736816406 95.23137664794922 C 170.14439392089844 77.40372467041016 206.3529815673828 117.50325012207031 144.73301696777344 119.00333404541016" stroke-width="3.0" fill="none" stroke="rgb(0, 0, 0)" stroke-opacity="1.0" stroke-linecap="round" stroke-linejoin="round"/>
    <path d="M 103.3073959350586 157.62745666503906 C 87.11560821533203 154.86231994628906 84.25659942626953 146.85287475585938 86.81883239746094 148.28880310058594" stroke-width="3.0" fill="none" stroke="rgb(0, 0, 0)" stroke-opacity="1.0" stroke-linecap="round" stroke-linejoin="round"/>
    <path d="M 69.43579864501953 75.40752410888672 C 75.93050384521484 107.97169494628906 75.07662200927734 115.97815704345703 71.64290618896484 81.96326446533203" stroke-width="3.0" fill="none" stroke="rgb(0, 0, 0)" stroke-opacity="1.0" stroke-linecap="round" stroke-linejoin="round"/>
    <path d="M 114.86927795410156 158.83901977539062 C 72.06181335449219 163.62741088867188 55.323272705078125 143.6966552734375 87.9873046875 149.8774871826172" stroke-width="3.0" fill="none" stroke="rgb(0, 0, 0)" stroke-opacity="1.0" stroke-linecap="round" stroke-linejoin="round"/>
    <path d="M 83.83460998535156 160.41207885742188 C 160.255859375 161.42919921875 124.85958099365234 162.03578186035156 71.44071197509766 149.2152862548828" stroke-width="3.0" fill="none" stroke="rgb(0, 0, 0)" stroke-opacity="1.0" stroke-linecap="round" stroke-linejoin="round"/>
    <path d="M 167.32423400878906 90.39030456542969 C 148.48524475097656 87.33255004882812 149.5343475341797 79.01154327392578 150.26002502441406 95.8314208984375" stroke-width="3.0" fill="none" stroke="rgb(0, 0, 0)" stroke-opacity="1.0" stroke-linecap="round" stroke-linejoin="round"/>
    <path d="M 158.62408447265625 144.62696838378906 C 166.79116821289062 149.2709503173828 154.20094299316406 152.30270385742188 158.81475830078125 149.3489227294922" stroke-width="3.0" fill="none" stroke="rgb(0, 0, 0)" stroke-opacity="1.0" stroke-linecap="round" stroke-linejoin="round"/>
    <path d="M 86.88334655761719 149.396240234375 C 83.73585510253906 132.37892150878906 75.57577514648438 119.27699279785156 74.5881118774414 100.52137756347656" stroke-width="3.0" fill="none" stroke="rgb(0, 0, 0)" stroke-opacity="1.0" stroke-linecap="round" stroke-linejoin="round"/>
    <path d="M 79.21359252929688 119.98969268798828 C 78.47550201416016 118.10273742675781 74.24217224121094 113.970947265625 87.81737518310547 147.60690307617188" stroke-width="3.0" fill="none" stroke="rgb(0, 0, 0)" stroke-opacity="1.0" stroke-linecap="round" stroke-linejoin="round"/>
    <path d="M 110.0765609741211 159.7090301513672 C 115.40975952148438 157.11306762695312 139.3478546142578 160.90631103515625 159.2909698486328 150.48110961914062" stroke-width="3.0" fill="none" stroke="rgb(0, 0, 0)" stroke-opacity="1.0" stroke-linecap="round" stroke-linejoin="round"/>
    <path d="M 70.93948364257812 73.26409912109375 C 91.49087524414062 68.92060089111328 129.07742309570312 86.5445785522461 100.46271514892578 48.25532913208008" stroke-width="3.0" fill="none" stroke="rgb(0, 0, 0)" stroke-opacity="1.0" stroke-linecap="round" stroke-linejoin="round"/>
    <path d="M 96.45201110839844 72.50664520263672 C 143.5413360595703 78.5660629272461 165.87014770507812 60.86894226074219 149.4940948486328 88.95848846435547" stroke-width="3.0" fill="none" stroke="rgb(0, 0, 0)" stroke-opacity="1.0" stroke-linecap="round" stroke-linejoin="round"/>
  </g>
</svg>
