<?xml version="1.0" ?>
<svg xmlns="http://www.w3.org/2000/svg" version="1.1" width="224" height="224">
  <defs/>
  <g>
    <path d="M 70.402099609375 98.6498031616211 C 81.221923828125 150.5043487548828 89.62397003173828 169.8547821044922 72.50601959228516 107.55577850341797" stroke-width="3.0" fill="none" stroke="rgb(0, 0, 0)" stroke-opacity="1.0" stroke-linecap="round" stroke-linejoin="round"/>
    <path d="M 123.1775894165039 165.6357879638672 C 56.96685791015625 169.23953247070312 53.40842819213867 143.2198486328125 80.89891815185547 138.31027221679688" stroke-width="3.0" fill="none" stroke="rgb(0, 0, 0)" stroke-opacity="1.0" stroke-linecap="round" stroke-linejoin="round"/>
    <path d="M 80.28746032714844 143.4224853515625 C 77.42572021484375 139.8244171142578 76.60755920410156 147.3777313232422 94.93867492675781 155.71636962890625" stroke-width="3.0" fill="none" stroke="rgb(0, 0, 0)" stroke-opacity="1.0" stroke-linecap="round" stroke-linejoin="round"/>
    <path d="M 152.2001953125 78.3053207397461 C 147.6743927001953 76.1825942993164 156.69094848632812 87.09451293945312 133.6532745361328 152.54055786132812" stroke-width="3.0" fill="none" stroke="rgb(0, 0, 0)" stroke-opacity="1.0" stroke-linecap="round" stroke-linejoin="round"/>
    <path d="M 148.70880126953125 95.17027282714844 C 162.4349365234375 75.39361572265625 212.9109649658203 110.06897735595703 143.83004760742188 118.48535919189453" stroke-width="3.0" fill="none" stroke="rgb(0, 0, 0)" stroke-opacity="1.0" stroke-linecap="round" stroke-linejoin="round"/>
    <path d="M 94.1545639038086 154.6773681640625 C 83.43775939941406 149.63082885742188 79.87898254394531 131.6890106201172 85.32701110839844 149.7447052001953" stroke-width="3.0" fill="none" stroke="rgb(0, 0, 0)" stroke-opacity="1.0" stroke-linecap="round" stroke-linejoin="round"/>
    <path d="M 69.62256622314453 76.3495101928711 C 71.78044128417969 109.16161346435547 74.73051452636719 123.19912719726562 69.56049346923828 86.55767822265625" stroke-width="3.0" fill="none" stroke="rgb(0, 0, 0)" stroke-opacity="1.0" stroke-linecap="round" stroke-linejoin="round"/>
    <path d="M 134.31178283691406 152.84567260742188 C 81.44380950927734 172.66046142578125 56.493316650390625 122.92935943603516 91.97845458984375 156.6016387939453" stroke-width="3.0" fill="none" stroke="rgb(0, 0, 0)" stroke-opacity="1.0" stroke-linecap="round" stroke-linejoin="round"/>
    <path d="M 121.17252349853516 164.71412658691406 C 160.72752380371094 160.17588806152344 92.41279602050781 172.01075744628906 81.697021484375 145.30348205566406" stroke-width="3.0" fill="none" stroke="rgb(0, 0, 0)" stroke-opacity="1.0" stroke-linecap="round" stroke-linejoin="round"/>
    <path d="M 151.6294708251953 79.08930969238281 C 153.2847900390625 77.77079010009766 150.67477416992188 73.79300689697266 149.20297241210938 92.49536895751953" stroke-width="3.0" fill="none" stroke="rgb(0, 0, 0)" stroke-opacity="1.0" stroke-linecap="round" stroke-linejoin="round"/>
    <path d="M 138.4346160888672 143.6461181640625 C 171.49417114257812 146.92572021484375 156.9839324951172 153.55178833007812 158.81423950195312 151.28140258789062" stroke-width="3.0" fill="none" stroke="rgb(0, 0, 0)" stroke-opacity="1.0" stroke-linecap="round" stroke-linejoin="round"/>
    <path d="M 89.20795440673828 142.7732391357422 C 88.17726135253906 136.73191833496094 83.64669799804688 125.7158203125 83.69534301757812 75.29175567626953" stroke-width="3.0" fill="none" stroke="rgb(0, 0, 0)" stroke-opacity="1.0" stroke-linecap="round" stroke-linejoin="round"/>
    <path d="M 96.5580825805664 158.0851287841797 C 89.61005401611328 152.65435791015625 84.74913024902344 128.515869140625 92.64339447021484 155.98599243164062" stroke-width="3.0" fill="none" stroke="rgb(0, 0, 0)" stroke-opacity="1.0" stroke-linecap="round" stroke-linejoin="round"/>
    <path d="M 90.89978790283203 153.60577392578125 C 106.17233276367188 167.3916473388672 141.4371337890625 164.6963348388672 159.15280151367188 152.77801513671875" stroke-width="3.0" fill="none" stroke="rgb(0, 0, 0)" stroke-opacity="1.0" stroke-linecap="round" stroke-linejoin="round"/>
    <path d="M 71.90062713623047 75.8563003540039 C 94.65425872802734 69.58548736572266 128.2581024169922 81.89886474609375 101.11860656738281 46.82762908935547" stroke-width="3.0" fill="none" stroke="rgb(0, 0, 0)" stroke-opacity="1.0" stroke-linecap="round" stroke-linejoin="round"/>
    <path d="M 91.77241516113281 73.7658920288086 C 155.73133850097656 76.96588897705078 156.8712158203125 65.84451293945312 153.81021118164062 86.04070281982422" stroke-width="3.0" fill="none" stroke="rgb(0, 0, 0)" stroke-opacity="1.0" stroke-linecap="round" stroke-linejoin="round"/>
  </g>
</svg>
