<?xml version="1.0" ?>
<svg xmlns="http://www.w3.org/2000/svg" version="1.1" width="224" height="224">
  <defs/>
  <g>
    <path d="M 76.66313171386719 113.85417175292969 C 83.69743347167969 139.53790283203125 82.60490417480469 131.35931396484375 78.61580657958984 117.89485168457031" stroke-width="3.0" fill="none" stroke="rgb(0, 0, 0)" stroke-opacity="1.0" stroke-linecap="round" stroke-linejoin="round"/>
    <path d="M 102.28280639648438 162.8549346923828 C 53.47616195678711 162.50437927246094 54.57743453979492 144.42657470703125 84.62226104736328 140.9081573486328" stroke-width="3.0" fill="none" stroke="rgb(0, 0, 0)" stroke-opacity="1.0" stroke-linecap="round" stroke-linejoin="round"/>
    <path d="M 82.97262573242188 147.77450561523438 C 83.72845458984375 128.1841583251953 78.67211151123047 138.34967041015625 93.19235229492188 153.66407775878906" stroke-width="3.0" fill="none" stroke="rgb(0, 0, 0)" stroke-opacity="1.0" stroke-linecap="round" stroke-linejoin="round"/>
    <path d="M 152.39004516601562 77.96562957763672 C 151.7905731201172 90.82275390625 151.3791046142578 104.88789367675781 130.60964965820312 154.17962646484375" stroke-width="3.0" fill="none" stroke="rgb(0, 0, 0)" stroke-opacity="1.0" stroke-linecap="round" stroke-linejoin="round"/>
    <path d="M 151.3006591796875 95.1613540649414 C 173.21554565429688 74.99980926513672 204.37815856933594 115.57379150390625 146.50413513183594 117.03266906738281" stroke-width="3.0" fill="none" stroke="rgb(0, 0, 0)" stroke-opacity="1.0" stroke-linecap="round" stroke-linejoin="round"/>
    <path d="M 102.46495056152344 154.9120635986328 C 88.86697387695312 154.94187927246094 86.30370330810547 144.98037719726562 86.96329498291016 148.16363525390625" stroke-width="3.0" fill="none" stroke="rgb(0, 0, 0)" stroke-opacity="1.0" stroke-linecap="round" stroke-linejoin="round"/>
    <path d="M 70.18077087402344 76.9780502319336 C 76.29446411132812 108.4740982055664 75.43421173095703 119.11691284179688 73.10913848876953 79.12434387207031" stroke-width="3.0" fill="none" stroke="rgb(0, 0, 0)" stroke-opacity="1.0" stroke-linecap="round" stroke-linejoin="round"/>
    <path d="M 110.25947570800781 160.54823303222656 C 78.51100158691406 160.57040405273438 60.78818893432617 140.5738067626953 87.96963500976562 152.5949249267578" stroke-width="3.0" fill="none" stroke="rgb(0, 0, 0)" stroke-opacity="1.0" stroke-linecap="round" stroke-linejoin="round"/>
    <path d="M 80.65939331054688 161.73866271972656 C 150.51417541503906 161.4636993408203 124.74048614501953 161.38308715820312 79.68533325195312 148.53347778320312" stroke-width="3.0" fill="none" stroke="rgb(0, 0, 0)" stroke-opacity="1.0" stroke-linecap="round" stroke-linejoin="round"/>
    <path d="M 168.13197326660156 89.79183197021484 C 155.61166381835938 88.66558837890625 154.1776580810547 79.06968688964844 150.50697326660156 97.51983642578125" stroke-width="3.0" fill="none" stroke="rgb(0, 0, 0)" stroke-opacity="1.0" stroke-linecap="round" stroke-linejoin="round"/>
    <path d="M 163.3021697998047 144.75735473632812 C 165.8002471923828 145.38067626953125 155.0895233154297 154.5888214111328 161.09364318847656 148.81765747070312" stroke-width="3.0" fill="none" stroke="rgb(0, 0, 0)" stroke-opacity="1.0" stroke-linecap="round" stroke-linejoin="round"/>
    <path d="M 86.29346466064453 148.54248046875 C 83.45795440673828 131.36016845703125 76.04423522949219 116.56766510009766 74.37378692626953 99.79969787597656" stroke-width="3.0" fill="none" stroke="rgb(0, 0, 0)" stroke-opacity="1.0" stroke-linecap="round" stroke-linejoin="round"/>
    <path d="M 79.2947998046875 120.07547760009766 C 80.44482421875 119.8346176147461 75.94651794433594 114.04264068603516 87.97565460205078 146.6195831298828" stroke-width="3.0" fill="none" stroke="rgb(0, 0, 0)" stroke-opacity="1.0" stroke-linecap="round" stroke-linejoin="round"/>
    <path d="M 110.79073333740234 157.18197631835938 C 114.93424224853516 158.88780212402344 140.20082092285156 162.22190856933594 159.6961669921875 150.62017822265625" stroke-width="3.0" fill="none" stroke="rgb(0, 0, 0)" stroke-opacity="1.0" stroke-linecap="round" stroke-linejoin="round"/>
    <path d="M 72.45662689208984 75.1741943359375 C 94.23741912841797 68.95973205566406 135.10427856445312 87.51337432861328 102.40989685058594 42.951942443847656" stroke-width="3.0" fill="none" stroke="rgb(0, 0, 0)" stroke-opacity="1.0" stroke-linecap="round" stroke-linejoin="round"/>
    <path d="M 102.4471206665039 71.80449676513672 C 140.92808532714844 79.62954711914062 163.23968505859375 59.21902084350586 150.92820739746094 89.45620727539062" stroke-width="3.0" fill="none" stroke="rgb(0, 0, 0)" stroke-opacity="1.0" stroke-linecap="round" stroke-linejoin="round"/>
  </g>
</svg>
