<?xml version="1.0" ?>
<svg xmlns="http://www.w3.org/2000/svg" version="1.1" width="224" height="224">
  <defs/>
  <g>
    <path d="M 76.68547058105469 114.47909545898438 C 84.1108169555664 143.34413146972656 84.99846649169922 137.33096313476562 78.59485626220703 124.13836669921875" stroke-width="3.0" fill="none" stroke="rgb(0, 0, 0)" stroke-opacity="1.0" stroke-linecap="round" stroke-linejoin="round"/>
    <path d="M 108.60638427734375 159.69686889648438 C 51.36966323852539 166.6338653564453 52.73466873168945 145.30313110351562 85.21663665771484 141.79417419433594" stroke-width="3.0" fill="none" stroke="rgb(0, 0, 0)" stroke-opacity="1.0" stroke-linecap="round" stroke-linejoin="round"/>
    <path d="M 82.75831604003906 147.89044189453125 C 81.84489440917969 127.68267059326172 78.17450714111328 138.639404296875 93.4312973022461 152.94239807128906" stroke-width="3.0" fill="none" stroke="rgb(0, 0, 0)" stroke-opacity="1.0" stroke-linecap="round" stroke-linejoin="round"/>
    <path d="M 151.79734802246094 77.38838195800781 C 147.55743408203125 89.56095123291016 150.6055450439453 101.42719268798828 134.4491729736328 151.7873992919922" stroke-width="3.0" fill="none" stroke="rgb(0, 0, 0)" stroke-opacity="1.0" stroke-linecap="round" stroke-linejoin="round"/>
    <path d="M 150.201171875 96.68804168701172 C 169.39389038085938 78.43387603759766 204.4515838623047 117.0096664428711 147.57508850097656 119.40318298339844" stroke-width="3.0" fill="none" stroke="rgb(0, 0, 0)" stroke-opacity="1.0" stroke-linecap="round" stroke-linejoin="round"/>
    <path d="M 104.29489135742188 156.8903350830078 C 86.92693328857422 154.49620056152344 84.19619750976562 146.92845153808594 86.81753540039062 148.23155212402344" stroke-width="3.0" fill="none" stroke="rgb(0, 0, 0)" stroke-opacity="1.0" stroke-linecap="round" stroke-linejoin="round"/>
    <path d="M 70.00975036621094 75.82502746582031 C 74.54081726074219 108.75043487548828 74.92638397216797 116.13894653320312 73.77478790283203 82.4292221069336" stroke-width="3.0" fill="none" stroke="rgb(0, 0, 0)" stroke-opacity="1.0" stroke-linecap="round" stroke-linejoin="round"/>
    <path d="M 114.5828628540039 159.86819458007812 C 71.66804504394531 165.00901794433594 56.11655807495117 143.02767944335938 88.27276611328125 149.64341735839844" stroke-width="3.0" fill="none" stroke="rgb(0, 0, 0)" stroke-opacity="1.0" stroke-linecap="round" stroke-linejoin="round"/>
    <path d="M 84.35440063476562 161.07752990722656 C 159.9141387939453 158.44393920898438 123.13145446777344 162.1827850341797 72.36410522460938 149.48255920410156" stroke-width="3.0" fill="none" stroke="rgb(0, 0, 0)" stroke-opacity="1.0" stroke-linecap="round" stroke-linejoin="round"/>
    <path d="M 166.6967010498047 92.49876403808594 C 148.82086181640625 87.48514556884766 150.00027465820312 79.52117919921875 148.98487854003906 96.27379608154297" stroke-width="3.0" fill="none" stroke="rgb(0, 0, 0)" stroke-opacity="1.0" stroke-linecap="round" stroke-linejoin="round"/>
    <path d="M 156.81326293945312 144.49810791015625 C 164.90505981445312 147.67018127441406 152.85008239746094 150.659912109375 158.8956298828125 149.3660125732422" stroke-width="3.0" fill="none" stroke="rgb(0, 0, 0)" stroke-opacity="1.0" stroke-linecap="round" stroke-linejoin="round"/>
    <path d="M 86.66992950439453 149.74105834960938 C 83.39217376708984 133.0409698486328 76.43672943115234 118.54229736328125 74.25810241699219 101.053955078125" stroke-width="3.0" fill="none" stroke="rgb(0, 0, 0)" stroke-opacity="1.0" stroke-linecap="round" stroke-linejoin="round"/>
    <path d="M 78.01486206054688 120.895751953125 C 78.95635223388672 117.89689636230469 74.08223724365234 114.24663543701172 88.52963256835938 147.30389404296875" stroke-width="3.0" fill="none" stroke="rgb(0, 0, 0)" stroke-opacity="1.0" stroke-linecap="round" stroke-linejoin="round"/>
    <path d="M 109.67121887207031 160.6254119873047 C 115.25768280029297 156.3311004638672 139.4153289794922 160.81243896484375 158.4608154296875 149.64859008789062" stroke-width="3.0" fill="none" stroke="rgb(0, 0, 0)" stroke-opacity="1.0" stroke-linecap="round" stroke-linejoin="round"/>
    <path d="M 70.93042755126953 73.86182403564453 C 93.20501708984375 68.69676971435547 131.70907592773438 85.90044403076172 100.70860290527344 48.094970703125" stroke-width="3.0" fill="none" stroke="rgb(0, 0, 0)" stroke-opacity="1.0" stroke-linecap="round" stroke-linejoin="round"/>
    <path d="M 96.34204864501953 72.7629623413086 C 141.4678497314453 77.60191345214844 163.451171875 60.867431640625 149.31126403808594 89.47259521484375" stroke-width="3.0" fill="none" stroke="rgb(0, 0, 0)" stroke-opacity="1.0" stroke-linecap="round" stroke-linejoin="round"/>
  </g>
</svg>
