<?xml version="1.0" ?>
<svg xmlns="http://www.w3.org/2000/svg" version="1.1" width="224" height="224">
  <defs/>
  <g>
    <path d="M 73.23622131347656 107.01586151123047 C 83.88909912109375 149.0021209716797 94.08495330810547 176.8756103515625 72.98107147216797 105.41312408447266" stroke-width="3.0" fill="none" stroke="rgb(0, 0, 0)" stroke-opacity="1.0" stroke-linecap="round" stroke-linejoin="round"/>
    <path d="M 122.49344635009766 165.32386779785156 C 62.33879470825195 171.7289276123047 53.28329849243164 142.79750061035156 81.37482452392578 141.73785400390625" stroke-width="3.0" fill="none" stroke="rgb(0, 0, 0)" stroke-opacity="1.0" stroke-linecap="round" stroke-linejoin="round"/>
    <path d="M 80.5331039428711 145.31076049804688 C 74.95559692382812 134.4414825439453 79.01490020751953 136.0750732421875 88.7845458984375 155.19879150390625" stroke-width="3.0" fill="none" stroke="rgb(0, 0, 0)" stroke-opacity="1.0" stroke-linecap="round" stroke-linejoin="round"/>
    <path d="M 149.60617065429688 84.95784759521484 C 148.26727294921875 86.83822631835938 156.43252563476562 83.2918701171875 134.2194061279297 151.05311584472656" stroke-width="3.0" fill="none" stroke="rgb(0, 0, 0)" stroke-opacity="1.0" stroke-linecap="round" stroke-linejoin="round"/>
    <path d="M 148.21328735351562 96.95699310302734 C 159.16473388671875 77.7506332397461 216.3441162109375 113.64034271240234 143.94668579101562 117.31482696533203" stroke-width="3.0" fill="none" stroke="rgb(0, 0, 0)" stroke-opacity="1.0" stroke-linecap="round" stroke-linejoin="round"/>
    <path d="M 92.89949798583984 153.68023681640625 C 69.58277893066406 151.6457061767578 71.54883575439453 133.5420379638672 82.75680541992188 150.66781616210938" stroke-width="3.0" fill="none" stroke="rgb(0, 0, 0)" stroke-opacity="1.0" stroke-linecap="round" stroke-linejoin="round"/>
    <path d="M 68.8936767578125 76.85063171386719 C 71.25289154052734 100.11670684814453 75.88484191894531 123.87987518310547 69.5240249633789 87.3499526977539" stroke-width="3.0" fill="none" stroke="rgb(0, 0, 0)" stroke-opacity="1.0" stroke-linecap="round" stroke-linejoin="round"/>
    <path d="M 131.7872314453125 153.19256591796875 C 91.94491577148438 174.52374267578125 54.847896575927734 123.70773315429688 93.17757415771484 154.32908630371094" stroke-width="3.0" fill="none" stroke="rgb(0, 0, 0)" stroke-opacity="1.0" stroke-linecap="round" stroke-linejoin="round"/>
    <path d="M 121.82315063476562 166.580078125 C 160.91783142089844 159.12974548339844 87.31922912597656 175.020263671875 79.258056640625 145.3810577392578" stroke-width="3.0" fill="none" stroke="rgb(0, 0, 0)" stroke-opacity="1.0" stroke-linecap="round" stroke-linejoin="round"/>
    <path d="M 152.7376708984375 77.88506317138672 C 153.52816772460938 79.78884887695312 148.59445190429688 72.7994613647461 148.78851318359375 95.22657012939453" stroke-width="3.0" fill="none" stroke="rgb(0, 0, 0)" stroke-opacity="1.0" stroke-linecap="round" stroke-linejoin="round"/>
    <path d="M 139.76780700683594 144.5657958984375 C 173.23056030273438 150.817626953125 152.802001953125 152.59201049804688 157.59823608398438 152.92300415039062" stroke-width="3.0" fill="none" stroke="rgb(0, 0, 0)" stroke-opacity="1.0" stroke-linecap="round" stroke-linejoin="round"/>
    <path d="M 95.27107238769531 157.3316650390625 C 90.2728271484375 150.9575653076172 86.64717102050781 118.8415756225586 84.25965881347656 74.21823120117188" stroke-width="3.0" fill="none" stroke="rgb(0, 0, 0)" stroke-opacity="1.0" stroke-linecap="round" stroke-linejoin="round"/>
    <path d="M 99.97808074951172 160.64291381835938 C 85.57807159423828 155.76556396484375 82.57801055908203 139.9940643310547 89.62986755371094 154.1620635986328" stroke-width="3.0" fill="none" stroke="rgb(0, 0, 0)" stroke-opacity="1.0" stroke-linecap="round" stroke-linejoin="round"/>
    <path d="M 89.22193145751953 152.1726837158203 C 98.7457046508789 170.5010528564453 140.5978240966797 166.68804931640625 158.96937561035156 152.70327758789062" stroke-width="3.0" fill="none" stroke="rgb(0, 0, 0)" stroke-opacity="1.0" stroke-linecap="round" stroke-linejoin="round"/>
    <path d="M 70.47219848632812 75.16624450683594 C 89.39208221435547 69.94651794433594 125.90376281738281 82.81397247314453 99.1731185913086 44.8929328918457" stroke-width="3.0" fill="none" stroke="rgb(0, 0, 0)" stroke-opacity="1.0" stroke-linecap="round" stroke-linejoin="round"/>
    <path d="M 98.10791015625 73.73648834228516 C 163.17401123046875 75.15789031982422 153.11805725097656 66.23883056640625 153.2729034423828 86.52749633789062" stroke-width="3.0" fill="none" stroke="rgb(0, 0, 0)" stroke-opacity="1.0" stroke-linecap="round" stroke-linejoin="round"/>
  </g>
</svg>
