<?xml version="1.0" ?>
<svg xmlns="http://www.w3.org/2000/svg" version="1.1" width="224" height="224">
  <defs/>
  <g>
    <path d="M 71.3573989868164 99.40943908691406 C 83.30319213867188 148.40164184570312 92.51408386230469 167.5791015625 72.6479263305664 108.4537353515625" stroke-width="3.0" fill="none" stroke="rgb(0, 0, 0)" stroke-opacity="1.0" stroke-linecap="round" stroke-linejoin="round"/>
    <path d="M 123.00884246826172 164.8351287841797 C 56.67078399658203 170.16217041015625 53.83201217651367 144.37283325195312 80.05567932128906 138.12213134765625" stroke-width="3.0" fill="none" stroke="rgb(0, 0, 0)" stroke-opacity="1.0" stroke-linecap="round" stroke-linejoin="round"/>
    <path d="M 80.10565185546875 143.5428009033203 C 76.70697021484375 140.17153930664062 76.46186065673828 147.14598083496094 94.7185287475586 155.5755615234375" stroke-width="3.0" fill="none" stroke="rgb(0, 0, 0)" stroke-opacity="1.0" stroke-linecap="round" stroke-linejoin="round"/>
    <path d="M 152.53768920898438 77.84580993652344 C 149.40692138671875 76.69740295410156 157.70509338378906 87.28192138671875 133.63829040527344 152.75729370117188" stroke-width="3.0" fill="none" stroke="rgb(0, 0, 0)" stroke-opacity="1.0" stroke-linecap="round" stroke-linejoin="round"/>
    <path d="M 150.17965698242188 95.62287139892578 C 159.56634521484375 77.96601867675781 211.4403839111328 112.94217681884766 144.59771728515625 118.98672485351562" stroke-width="3.0" fill="none" stroke="rgb(0, 0, 0)" stroke-opacity="1.0" stroke-linecap="round" stroke-linejoin="round"/>
    <path d="M 94.17748260498047 154.92880249023438 C 82.08319854736328 149.5579376220703 76.20445251464844 133.90316772460938 84.65555572509766 150.2156982421875" stroke-width="3.0" fill="none" stroke="rgb(0, 0, 0)" stroke-opacity="1.0" stroke-linecap="round" stroke-linejoin="round"/>
    <path d="M 70.66311645507812 77.7233657836914 C 71.82489776611328 109.1444091796875 75.04032135009766 122.9059066772461 70.61348724365234 86.0635986328125" stroke-width="3.0" fill="none" stroke="rgb(0, 0, 0)" stroke-opacity="1.0" stroke-linecap="round" stroke-linejoin="round"/>
    <path d="M 134.4420623779297 153.00880432128906 C 80.98654174804688 173.47061157226562 56.73660659790039 122.50861358642578 93.94490051269531 154.8434295654297" stroke-width="3.0" fill="none" stroke="rgb(0, 0, 0)" stroke-opacity="1.0" stroke-linecap="round" stroke-linejoin="round"/>
    <path d="M 122.2795181274414 165.1514129638672 C 160.53805541992188 158.31675720214844 90.7800064086914 171.5778350830078 80.89152526855469 145.9211883544922" stroke-width="3.0" fill="none" stroke="rgb(0, 0, 0)" stroke-opacity="1.0" stroke-linecap="round" stroke-linejoin="round"/>
    <path d="M 151.55670166015625 78.76250457763672 C 152.59605407714844 77.68631744384766 148.91314697265625 73.5324478149414 150.65814208984375 92.19975280761719" stroke-width="3.0" fill="none" stroke="rgb(0, 0, 0)" stroke-opacity="1.0" stroke-linecap="round" stroke-linejoin="round"/>
    <path d="M 138.39332580566406 143.12657165527344 C 170.6443328857422 147.80653381347656 155.9020538330078 153.84527587890625 158.4357147216797 151.72311401367188" stroke-width="3.0" fill="none" stroke="rgb(0, 0, 0)" stroke-opacity="1.0" stroke-linecap="round" stroke-linejoin="round"/>
    <path d="M 89.03905487060547 143.0547332763672 C 88.39449310302734 136.71485900878906 83.57205963134766 125.5969467163086 84.2311019897461 74.81656646728516" stroke-width="3.0" fill="none" stroke="rgb(0, 0, 0)" stroke-opacity="1.0" stroke-linecap="round" stroke-linejoin="round"/>
    <path d="M 96.40774536132812 158.23828125 C 89.18856811523438 153.7694549560547 84.74493408203125 128.97390747070312 92.355224609375 156.20623779296875" stroke-width="3.0" fill="none" stroke="rgb(0, 0, 0)" stroke-opacity="1.0" stroke-linecap="round" stroke-linejoin="round"/>
    <path d="M 90.45223236083984 153.26040649414062 C 107.07978820800781 166.4562225341797 142.08358764648438 164.57095336914062 158.36349487304688 152.91372680664062" stroke-width="3.0" fill="none" stroke="rgb(0, 0, 0)" stroke-opacity="1.0" stroke-linecap="round" stroke-linejoin="round"/>
    <path d="M 72.21967315673828 75.00010681152344 C 93.2648696899414 70.07472229003906 126.86763763427734 81.43179321289062 102.22422790527344 46.39756393432617" stroke-width="3.0" fill="none" stroke="rgb(0, 0, 0)" stroke-opacity="1.0" stroke-linecap="round" stroke-linejoin="round"/>
    <path d="M 92.66220092773438 72.76436614990234 C 155.01113891601562 76.75328826904297 156.22097778320312 64.7088394165039 153.9721221923828 86.69384002685547" stroke-width="3.0" fill="none" stroke="rgb(0, 0, 0)" stroke-opacity="1.0" stroke-linecap="round" stroke-linejoin="round"/>
  </g>
</svg>
