<?xml version="1.0" ?>
<svg xmlns="http://www.w3.org/2000/svg" version="1.1" width="224" height="224">
  <defs/>
  <g>
    <path d="M 78.32390594482422 115.39354705810547 C 84.45126342773438 137.36447143554688 82.70307159423828 127.88229370117188 81.71802520751953 128.540771484375" stroke-width="3.0" fill="none" stroke="rgb(0, 0, 0)" stroke-opacity="1.0" stroke-linecap="round" stroke-linejoin="round"/>
    <path d="M 90.78744506835938 163.2755889892578 C 53.03757095336914 160.2919921875 61.67692565917969 144.62420654296875 80.51976013183594 139.29454040527344" stroke-width="3.0" fill="none" stroke="rgb(0, 0, 0)" stroke-opacity="1.0" stroke-linecap="round" stroke-linejoin="round"/>
    <path d="M 88.68636322021484 147.3662109375 C 82.17778015136719 129.9535369873047 83.7510986328125 134.27845764160156 88.4402847290039 150.8014373779297" stroke-width="3.0" fill="none" stroke="rgb(0, 0, 0)" stroke-opacity="1.0" stroke-linecap="round" stroke-linejoin="round"/>
    <path d="M 151.89503479003906 77.54695892333984 C 147.9066925048828 90.81829071044922 150.52040100097656 110.58683013916016 131.72726440429688 156.52587890625" stroke-width="3.0" fill="none" stroke="rgb(0, 0, 0)" stroke-opacity="1.0" stroke-linecap="round" stroke-linejoin="round"/>
    <path d="M 152.42544555664062 91.19000244140625 C 184.13818359375 82.72134399414062 195.54164123535156 119.85330200195312 145.1568603515625 117.23616027832031" stroke-width="3.0" fill="none" stroke="rgb(0, 0, 0)" stroke-opacity="1.0" stroke-linecap="round" stroke-linejoin="round"/>
    <path d="M 92.02941131591797 156.70382690429688 C 87.33744049072266 153.15084838867188 85.79855346679688 151.40048217773438 87.46561431884766 149.5475311279297" stroke-width="3.0" fill="none" stroke="rgb(0, 0, 0)" stroke-opacity="1.0" stroke-linecap="round" stroke-linejoin="round"/>
    <path d="M 70.3781509399414 75.69490814208984 C 75.50245666503906 109.45101928710938 78.17330169677734 123.59215545654297 76.30838012695312 79.09194946289062" stroke-width="3.0" fill="none" stroke="rgb(0, 0, 0)" stroke-opacity="1.0" stroke-linecap="round" stroke-linejoin="round"/>
    <path d="M 112.22842407226562 164.1387481689453 C 70.4531021118164 165.45587158203125 66.16636657714844 151.47760009765625 89.62188720703125 162.0894775390625" stroke-width="3.0" fill="none" stroke="rgb(0, 0, 0)" stroke-opacity="1.0" stroke-linecap="round" stroke-linejoin="round"/>
    <path d="M 104.61529541015625 163.4740447998047 C 128.72903442382812 162.40658569335938 112.37230682373047 165.09205627441406 86.09255981445312 159.69007873535156" stroke-width="3.0" fill="none" stroke="rgb(0, 0, 0)" stroke-opacity="1.0" stroke-linecap="round" stroke-linejoin="round"/>
    <path d="M 170.0263671875 90.5947265625 C 166.3872528076172 90.32022857666016 141.84165954589844 80.41680145263672 151.9661102294922 92.05371856689453" stroke-width="3.0" fill="none" stroke="rgb(0, 0, 0)" stroke-opacity="1.0" stroke-linecap="round" stroke-linejoin="round"/>
    <path d="M 162.95474243164062 146.40939331054688 C 167.2667999267578 147.85498046875 155.84698486328125 157.5148162841797 162.013671875 151.11761474609375" stroke-width="3.0" fill="none" stroke="rgb(0, 0, 0)" stroke-opacity="1.0" stroke-linecap="round" stroke-linejoin="round"/>
    <path d="M 86.28167724609375 140.25711059570312 C 81.88326263427734 127.5044937133789 77.08295440673828 116.21944427490234 76.9212646484375 102.26368713378906" stroke-width="3.0" fill="none" stroke="rgb(0, 0, 0)" stroke-opacity="1.0" stroke-linecap="round" stroke-linejoin="round"/>
    <path d="M 80.52767944335938 121.57312774658203 C 78.71561431884766 120.50140380859375 75.83378601074219 113.6054458618164 84.89088439941406 141.295166015625" stroke-width="3.0" fill="none" stroke="rgb(0, 0, 0)" stroke-opacity="1.0" stroke-linecap="round" stroke-linejoin="round"/>
    <path d="M 111.83531951904297 163.90731811523438 C 115.90375518798828 164.01739501953125 143.1533966064453 164.32154846191406 160.4755401611328 153.02581787109375" stroke-width="3.0" fill="none" stroke="rgb(0, 0, 0)" stroke-opacity="1.0" stroke-linecap="round" stroke-linejoin="round"/>
    <path d="M 72.33832550048828 74.55694580078125 C 89.5740737915039 68.37576293945312 129.65646362304688 87.33335876464844 100.28016662597656 44.00564193725586" stroke-width="3.0" fill="none" stroke="rgb(0, 0, 0)" stroke-opacity="1.0" stroke-linecap="round" stroke-linejoin="round"/>
    <path d="M 99.10025787353516 71.69136047363281 C 131.27418518066406 78.74951934814453 166.24801635742188 63.65453338623047 150.5096435546875 84.68567657470703" stroke-width="3.0" fill="none" stroke="rgb(0, 0, 0)" stroke-opacity="1.0" stroke-linecap="round" stroke-linejoin="round"/>
  </g>
</svg>
