<?xml version="1.0" ?>
<svg xmlns="http://www.w3.org/2000/svg" version="1.1" width="224" height="224">
  <defs/>
  <g>
    <path d="M 75.62211608886719 111.4292221069336 C 83.55689239501953 149.6238250732422 85.0836410522461 148.8511505126953 76.70674133300781 111.15806579589844" stroke-width="3.0" fill="none" stroke="rgb(0, 0, 0)" stroke-opacity="1.0" stroke-linecap="round" stroke-linejoin="round"/>
    <path d="M 110.06797790527344 166.8834686279297 C 53.81489562988281 168.892333984375 53.20880889892578 144.0631866455078 83.27401733398438 138.59701538085938" stroke-width="3.0" fill="none" stroke="rgb(0, 0, 0)" stroke-opacity="1.0" stroke-linecap="round" stroke-linejoin="round"/>
    <path d="M 84.313720703125 148.68887329101562 C 84.83778381347656 132.18930053710938 78.80120086669922 142.38536071777344 94.73873901367188 157.12118530273438" stroke-width="3.0" fill="none" stroke="rgb(0, 0, 0)" stroke-opacity="1.0" stroke-linecap="round" stroke-linejoin="round"/>
    <path d="M 150.0471649169922 77.53092193603516 C 148.17428588867188 88.2002182006836 152.79617309570312 98.78057861328125 130.30604553222656 156.025390625" stroke-width="3.0" fill="none" stroke="rgb(0, 0, 0)" stroke-opacity="1.0" stroke-linecap="round" stroke-linejoin="round"/>
    <path d="M 149.23779296875 98.11800384521484 C 166.38369750976562 73.47137451171875 209.6697235107422 112.79767608642578 144.5675811767578 118.38431549072266" stroke-width="3.0" fill="none" stroke="rgb(0, 0, 0)" stroke-opacity="1.0" stroke-linecap="round" stroke-linejoin="round"/>
    <path d="M 101.24825286865234 161.15567016601562 C 79.66557312011719 154.51478576660156 76.65133666992188 146.15428161621094 85.27935791015625 147.39971923828125" stroke-width="3.0" fill="none" stroke="rgb(0, 0, 0)" stroke-opacity="1.0" stroke-linecap="round" stroke-linejoin="round"/>
    <path d="M 69.9509506225586 77.851318359375 C 76.12413787841797 106.4993896484375 74.95222473144531 116.50060272216797 73.50708770751953 78.96196746826172" stroke-width="3.0" fill="none" stroke="rgb(0, 0, 0)" stroke-opacity="1.0" stroke-linecap="round" stroke-linejoin="round"/>
    <path d="M 119.70831298828125 161.00177001953125 C 87.22338104248047 163.4588165283203 65.75910186767578 137.38157653808594 85.86348724365234 152.45957946777344" stroke-width="3.0" fill="none" stroke="rgb(0, 0, 0)" stroke-opacity="1.0" stroke-linecap="round" stroke-linejoin="round"/>
    <path d="M 89.57450866699219 166.57257080078125 C 152.9022674560547 165.82518005371094 102.02113342285156 170.4331817626953 82.02330017089844 148.1797637939453" stroke-width="3.0" fill="none" stroke="rgb(0, 0, 0)" stroke-opacity="1.0" stroke-linecap="round" stroke-linejoin="round"/>
    <path d="M 158.5697021484375 86.77889251708984 C 149.97265625 83.97578430175781 151.0236358642578 79.89363098144531 149.80923461914062 97.0731201171875" stroke-width="3.0" fill="none" stroke="rgb(0, 0, 0)" stroke-opacity="1.0" stroke-linecap="round" stroke-linejoin="round"/>
    <path d="M 139.21746826171875 142.35549926757812 C 169.92202758789062 144.30563354492188 157.78170776367188 153.30931091308594 157.59913635253906 153.18040466308594" stroke-width="3.0" fill="none" stroke="rgb(0, 0, 0)" stroke-opacity="1.0" stroke-linecap="round" stroke-linejoin="round"/>
    <path d="M 83.9114990234375 139.9507293701172 C 81.72323608398438 139.25360107421875 78.27896118164062 122.4894027709961 73.34451293945312 96.13819885253906" stroke-width="3.0" fill="none" stroke="rgb(0, 0, 0)" stroke-opacity="1.0" stroke-linecap="round" stroke-linejoin="round"/>
    <path d="M 79.72335052490234 125.89656829833984 C 77.26101684570312 119.26022338867188 76.62310791015625 111.25283813476562 87.4659652709961 152.54917907714844" stroke-width="3.0" fill="none" stroke="rgb(0, 0, 0)" stroke-opacity="1.0" stroke-linecap="round" stroke-linejoin="round"/>
    <path d="M 99.3663330078125 160.41737365722656 C 113.68640899658203 162.98663330078125 137.07240295410156 159.58544921875 157.54100036621094 152.53836059570312" stroke-width="3.0" fill="none" stroke="rgb(0, 0, 0)" stroke-opacity="1.0" stroke-linecap="round" stroke-linejoin="round"/>
    <path d="M 72.14521789550781 74.92876434326172 C 89.0191879272461 67.97654724121094 132.29397583007812 81.18392181396484 99.9925308227539 49.01838302612305" stroke-width="3.0" fill="none" stroke="rgb(0, 0, 0)" stroke-opacity="1.0" stroke-linecap="round" stroke-linejoin="round"/>
    <path d="M 100.38597106933594 73.28596496582031 C 143.92318725585938 76.37223815917969 160.89205932617188 63.9246940612793 151.5166778564453 89.55096435546875" stroke-width="3.0" fill="none" stroke="rgb(0, 0, 0)" stroke-opacity="1.0" stroke-linecap="round" stroke-linejoin="round"/>
  </g>
</svg>
