<?xml version="1.0" ?>
<svg xmlns="http://www.w3.org/2000/svg" version="1.1" width="224" height="224">
  <defs/>
  <g>
    <path d="M 64.58944702148438 93.7996826171875 C 89.89778900146484 78.15738677978516 71.77850341796875 86.54261016845703 82.05818176269531 58.841617584228516" stroke-width="3.0" fill="none" stroke="rgb(0, 0, 0)" stroke-opacity="1.0" stroke-linecap="round" stroke-linejoin="round"/>
    <path d="M 195.42288208007812 114.4144515991211 C 182.75607299804688 96.45491790771484 190.99234008789062 96.83721923828125 178.9868621826172 130.16635131835938" stroke-width="3.0" fill="none" stroke="rgb(0, 0, 0)" stroke-opacity="1.0" stroke-linecap="round" stroke-linejoin="round"/>
    <path d="M 58.789031982421875 115.85990905761719 C 52.98076248168945 90.59882354736328 55.54568099975586 116.01648712158203 59.899925231933594 113.5551528930664" stroke-width="3.0" fill="none" stroke="rgb(0, 0, 0)" stroke-opacity="1.0" stroke-linecap="round" stroke-linejoin="round"/>
    <path d="M 187.63238525390625 91.39958190917969 C 148.01947021484375 72.76537322998047 181.69662475585938 75.8187484741211 186.75543212890625 101.90958404541016" stroke-width="3.0" fill="none" stroke="rgb(0, 0, 0)" stroke-opacity="1.0" stroke-linecap="round" stroke-linejoin="round"/>
    <path d="M 176.32823181152344 58.564029693603516 C 193.9253692626953 90.2938003540039 182.93971252441406 100.29942321777344 177.9541473388672 47.55541229248047" stroke-width="3.0" fill="none" stroke="rgb(0, 0, 0)" stroke-opacity="1.0" stroke-linecap="round" stroke-linejoin="round"/>
    <path d="M 129.83753967285156 98.81074523925781 C 155.6662139892578 107.70950317382812 95.4968490600586 100.8857192993164 136.02845764160156 101.35497283935547" stroke-width="3.0" fill="none" stroke="rgb(0, 0, 0)" stroke-opacity="1.0" stroke-linecap="round" stroke-linejoin="round"/>
    <path d="M 185.78231811523438 98.86154174804688 C 163.3574981689453 93.90736389160156 202.27244567871094 70.49237060546875 152.83987426757812 86.31311798095703" stroke-width="3.0" fill="none" stroke="rgb(0, 0, 0)" stroke-opacity="1.0" stroke-linecap="round" stroke-linejoin="round"/>
    <path d="M 63.985939025878906 189.0504150390625 C 43.74122619628906 167.3183135986328 46.92835235595703 168.79232788085938 64.8851318359375 190.53302001953125" stroke-width="3.0" fill="none" stroke="rgb(0, 0, 0)" stroke-opacity="1.0" stroke-linecap="round" stroke-linejoin="round"/>
    <path d="M 59.32500457763672 185.755859375 C 87.12890625 213.92344665527344 138.51730346679688 194.7786865234375 135.22410583496094 158.76869201660156" stroke-width="3.0" fill="none" stroke="rgb(0, 0, 0)" stroke-opacity="1.0" stroke-linecap="round" stroke-linejoin="round"/>
    <path d="M 80.68268585205078 11.2601318359375 C 89.06726837158203 73.06820678710938 87.85946655273438 20.174516677856445 83.1884765625 58.04888153076172" stroke-width="3.0" fill="none" stroke="rgb(0, 0, 0)" stroke-opacity="1.0" stroke-linecap="round" stroke-linejoin="round"/>
    <path d="M 69.2057113647461 91.18193054199219 C 42.40544128417969 120.79637145996094 76.09361267089844 127.78498077392578 60.21883010864258 117.54650115966797" stroke-width="3.0" fill="none" stroke="rgb(0, 0, 0)" stroke-opacity="1.0" stroke-linecap="round" stroke-linejoin="round"/>
    <path d="M 146.29624938964844 71.67092895507812 C 195.17486572265625 62.76883316040039 207.35003662109375 87.03458404541016 140.21868896484375 85.17317962646484" stroke-width="3.0" fill="none" stroke="rgb(0, 0, 0)" stroke-opacity="1.0" stroke-linecap="round" stroke-linejoin="round"/>
    <path d="M 150.94813537597656 93.59048461914062 C 184.94114685058594 99.1234130859375 179.8056182861328 108.71086120605469 188.59552001953125 110.32572937011719" stroke-width="3.0" fill="none" stroke="rgb(0, 0, 0)" stroke-opacity="1.0" stroke-linecap="round" stroke-linejoin="round"/>
    <path d="M 134.12051391601562 143.9550018310547 C 178.30271911621094 156.27279663085938 91.98455047607422 149.80589294433594 92.4987564086914 149.86277770996094" stroke-width="3.0" fill="none" stroke="rgb(0, 0, 0)" stroke-opacity="1.0" stroke-linecap="round" stroke-linejoin="round"/>
    <path d="M 179.95681762695312 7.240969657897949 C 190.82717895507812 23.90707778930664 166.62257385253906 97.33817291259766 179.29977416992188 59.198421478271484" stroke-width="3.0" fill="none" stroke="rgb(0, 0, 0)" stroke-opacity="1.0" stroke-linecap="round" stroke-linejoin="round"/>
    <path d="M 150.32737731933594 27.438623428344727 C 105.73165130615234 33.214691162109375 134.46226501464844 15.759257316589355 125.06881713867188 66.05818176269531" stroke-width="3.0" fill="none" stroke="rgb(0, 0, 0)" stroke-opacity="1.0" stroke-linecap="round" stroke-linejoin="round"/>
    <path d="M 107.17985534667969 47.26805114746094 C 60.62873458862305 -5.974059104919434 84.92464447021484 -0.5038679838180542 117.79314422607422 31.307615280151367" stroke-width="3.0" fill="none" stroke="rgb(0, 0, 0)" stroke-opacity="1.0" stroke-linecap="round" stroke-linejoin="round"/>
    <path d="M 44.352935791015625 162.3512420654297 C 43.87451934814453 159.95880126953125 40.585758209228516 158.0731964111328 54.971466064453125 180.63400268554688" stroke-width="3.0" fill="none" stroke="rgb(0, 0, 0)" stroke-opacity="1.0" stroke-linecap="round" stroke-linejoin="round"/>
    <path d="M 63.02497863769531 72.07706451416016 C 14.95391845703125 126.47498321533203 37.297481536865234 136.8357391357422 46.17318344116211 161.31808471679688" stroke-width="3.0" fill="none" stroke="rgb(0, 0, 0)" stroke-opacity="1.0" stroke-linecap="round" stroke-linejoin="round"/>
    <path d="M 73.0645523071289 133.21107482910156 C 147.7309112548828 168.3953094482422 120.81822967529297 150.099609375 90.41661071777344 146.82177734375" stroke-width="3.0" fill="none" stroke="rgb(0, 0, 0)" stroke-opacity="1.0" stroke-linecap="round" stroke-linejoin="round"/>
    <path d="M 86.3385009765625 199.79112243652344 C 69.1639175415039 199.23243713378906 50.713382720947266 174.59024047851562 39.245079040527344 149.7615203857422" stroke-width="3.0" fill="none" stroke="rgb(0, 0, 0)" stroke-opacity="1.0" stroke-linecap="round" stroke-linejoin="round"/>
    <path d="M 50.81102752685547 170.88507080078125 C 72.22932434082031 195.15377807617188 45.54951095581055 183.80831909179688 43.02872848510742 154.6357421875" stroke-width="3.0" fill="none" stroke="rgb(0, 0, 0)" stroke-opacity="1.0" stroke-linecap="round" stroke-linejoin="round"/>
    <path d="M 82.69863891601562 57.20896911621094 C 66.84793853759766 61.646385192871094 61.05693435668945 68.1237564086914 37.00254821777344 113.97257995605469" stroke-width="3.0" fill="none" stroke="rgb(0, 0, 0)" stroke-opacity="1.0" stroke-linecap="round" stroke-linejoin="round"/>
    <path d="M 147.71426391601562 149.1864013671875 C 110.47246551513672 159.4583740234375 58.18003845214844 149.1924285888672 146.08106994628906 148.101806640625" stroke-width="3.0" fill="none" stroke="rgb(0, 0, 0)" stroke-opacity="1.0" stroke-linecap="round" stroke-linejoin="round"/>
    <path d="M 147.8402099609375 28.559228897094727 C 140.7027587890625 34.77743911743164 142.9339599609375 9.160869598388672 136.20599365234375 77.11155700683594" stroke-width="3.0" fill="none" stroke="rgb(0, 0, 0)" stroke-opacity="1.0" stroke-linecap="round" stroke-linejoin="round"/>
    <path d="M 148.12261962890625 97.9424057006836 C 128.14349365234375 111.99114227294922 121.75563049316406 103.61428833007812 123.00482940673828 103.07780456542969" stroke-width="3.0" fill="none" stroke="rgb(0, 0, 0)" stroke-opacity="1.0" stroke-linecap="round" stroke-linejoin="round"/>
    <path d="M 137.28334045410156 71.41229248046875 C 142.84825134277344 52.12555694580078 130.90158081054688 59.247520446777344 134.66519165039062 73.11087799072266" stroke-width="3.0" fill="none" stroke="rgb(0, 0, 0)" stroke-opacity="1.0" stroke-linecap="round" stroke-linejoin="round"/>
    <path d="M 141.3544464111328 154.88055419921875 C 131.36306762695312 166.1742401123047 139.83009338378906 163.3505096435547 152.0579833984375 139.74024963378906" stroke-width="3.0" fill="none" stroke="rgb(0, 0, 0)" stroke-opacity="1.0" stroke-linecap="round" stroke-linejoin="round"/>
    <path d="M 194.34716796875 96.9810562133789 C 162.6639404296875 73.16287994384766 191.73492431640625 60.9085578918457 180.5112762451172 95.56623077392578" stroke-width="3.0" fill="none" stroke="rgb(0, 0, 0)" stroke-opacity="1.0" stroke-linecap="round" stroke-linejoin="round"/>
    <path d="M 153.89137268066406 77.73076629638672 C 118.4233627319336 55.080406188964844 205.31832885742188 89.1922607421875 181.5690460205078 59.72840118408203" stroke-width="3.0" fill="none" stroke="rgb(0, 0, 0)" stroke-opacity="1.0" stroke-linecap="round" stroke-linejoin="round"/>
    <path d="M 116.2841567993164 84.26717376708984 C 86.38575744628906 73.2849349975586 138.79664611816406 76.04883575439453 111.17791748046875 84.2591552734375" stroke-width="3.0" fill="none" stroke="rgb(0, 0, 0)" stroke-opacity="1.0" stroke-linecap="round" stroke-linejoin="round"/>
    <path d="M 166.335693359375 132.46343994140625 C 157.60447692871094 153.02200317382812 86.9023666381836 146.61077880859375 90.75373840332031 144.69053649902344" stroke-width="3.0" fill="none" stroke="rgb(0, 0, 0)" stroke-opacity="1.0" stroke-linecap="round" stroke-linejoin="round"/>
    <path d="M 122.90137481689453 89.25099182128906 C 144.3018341064453 96.52752685546875 129.6614990234375 70.88533020019531 129.24790954589844 105.35982513427734" stroke-width="3.0" fill="none" stroke="rgb(0, 0, 0)" stroke-opacity="1.0" stroke-linecap="round" stroke-linejoin="round"/>
    <path d="M 187.52728271484375 109.33219909667969 C 170.95724487304688 90.94761657714844 169.2904510498047 94.28323364257812 140.0519256591797 82.06529235839844" stroke-width="3.0" fill="none" stroke="rgb(0, 0, 0)" stroke-opacity="1.0" stroke-linecap="round" stroke-linejoin="round"/>
    <path d="M 92.87338256835938 23.400279998779297 C 126.65000915527344 27.956531524658203 84.53406524658203 31.05927085876465 146.47032165527344 30.232559204101562" stroke-width="3.0" fill="none" stroke="rgb(0, 0, 0)" stroke-opacity="1.0" stroke-linecap="round" stroke-linejoin="round"/>
    <path d="M 58.901878356933594 102.48759460449219 C 61.335575103759766 96.65725708007812 51.0196647644043 118.98396301269531 74.72367858886719 138.23170471191406" stroke-width="3.0" fill="none" stroke="rgb(0, 0, 0)" stroke-opacity="1.0" stroke-linecap="round" stroke-linejoin="round"/>
    <path d="M 128.70277404785156 106.96282958984375 C 133.3809814453125 89.32289123535156 122.39823150634766 119.64620971679688 110.69227600097656 91.54549407958984" stroke-width="3.0" fill="none" stroke="rgb(0, 0, 0)" stroke-opacity="1.0" stroke-linecap="round" stroke-linejoin="round"/>
    <path d="M 41.50285720825195 152.57220458984375 C 21.245494842529297 125.56961822509766 43.54335403442383 67.63787078857422 72.19529724121094 58.82305145263672" stroke-width="3.0" fill="none" stroke="rgb(0, 0, 0)" stroke-opacity="1.0" stroke-linecap="round" stroke-linejoin="round"/>
    <path d="M 111.28111267089844 195.268798828125 C 92.11347961425781 201.74180603027344 96.49415588378906 200.705078125 104.51787567138672 197.70602416992188" stroke-width="3.0" fill="none" stroke="rgb(0, 0, 0)" stroke-opacity="1.0" stroke-linecap="round" stroke-linejoin="round"/>
    <path d="M 169.9052276611328 131.79937744140625 C 194.41209411621094 112.68746948242188 192.0558319091797 85.1434555053711 155.81594848632812 88.78704833984375" stroke-width="3.0" fill="none" stroke="rgb(0, 0, 0)" stroke-opacity="1.0" stroke-linecap="round" stroke-linejoin="round"/>
    <path d="M 158.0089874267578 70.52831268310547 C 131.99462890625 83.2878189086914 167.4541473388672 83.62129974365234 153.68092346191406 73.41155242919922" stroke-width="3.0" fill="none" stroke="rgb(0, 0, 0)" stroke-opacity="1.0" stroke-linecap="round" stroke-linejoin="round"/>
    <path d="M 140.50709533691406 77.95751953125 C 150.69386291503906 41.385154724121094 199.3987274169922 119.38052368164062 177.34793090820312 36.50979232788086" stroke-width="3.0" fill="none" stroke="rgb(0, 0, 0)" stroke-opacity="1.0" stroke-linecap="round" stroke-linejoin="round"/>
    <path d="M 157.7906951904297 95.17488861083984 C 174.79901123046875 104.17411804199219 182.64529418945312 100.3856201171875 184.8861083984375 124.3216552734375" stroke-width="3.0" fill="none" stroke="rgb(0, 0, 0)" stroke-opacity="1.0" stroke-linecap="round" stroke-linejoin="round"/>
    <path d="M 176.72523498535156 16.455556869506836 C 167.3564910888672 44.16584396362305 173.92193603515625 21.101383209228516 159.70574951171875 37.560482025146484" stroke-width="3.0" fill="none" stroke="rgb(0, 0, 0)" stroke-opacity="1.0" stroke-linecap="round" stroke-linejoin="round"/>
    <path d="M 118.80435180664062 100.84191131591797 C 138.4855499267578 93.81226348876953 125.81233215332031 113.517333984375 134.3553009033203 101.12326049804688" stroke-width="3.0" fill="none" stroke="rgb(0, 0, 0)" stroke-opacity="1.0" stroke-linecap="round" stroke-linejoin="round"/>
    <path d="M 63.37915802001953 96.06455993652344 C 49.87518310546875 106.1111068725586 58.68424987792969 116.23883056640625 63.80647659301758 102.44635009765625" stroke-width="3.0" fill="none" stroke="rgb(0, 0, 0)" stroke-opacity="1.0" stroke-linecap="round" stroke-linejoin="round"/>
    <path d="M 123.5263900756836 77.46428680419922 C 125.28703308105469 39.957332611083984 114.91261291503906 51.73710632324219 118.64480590820312 33.3788948059082" stroke-width="3.0" fill="none" stroke="rgb(0, 0, 0)" stroke-opacity="1.0" stroke-linecap="round" stroke-linejoin="round"/>
    <path d="M 144.2496795654297 30.273923873901367 C 143.21090698242188 42.283050537109375 155.58082580566406 13.027891159057617 178.59600830078125 7.342430591583252" stroke-width="3.0" fill="none" stroke="rgb(0, 0, 0)" stroke-opacity="1.0" stroke-linecap="round" stroke-linejoin="round"/>
  </g>
</svg>
