<?xml version="1.0" ?>
<svg xmlns="http://www.w3.org/2000/svg" version="1.1" width="224" height="224">
  <defs/>
  <g>
    <path d="M 83.9953384399414 171.87945556640625 C 155.96255493164062 168.48367309570312 89.60824584960938 172.16290283203125 122.10792541503906 105.93366241455078" stroke-width="3.0" fill="none" stroke="rgb(0, 0, 0)" stroke-opacity="1.0" stroke-linecap="round" stroke-linejoin="round"/>
    <path d="M 116.86878204345703 160.3567352294922 C 46.175811767578125 157.81283569335938 91.47213745117188 178.5560760498047 118.06822967529297 164.54757690429688" stroke-width="3.0" fill="none" stroke="rgb(0, 0, 0)" stroke-opacity="1.0" stroke-linecap="round" stroke-linejoin="round"/>
    <path d="M 123.84391784667969 178.12545776367188 C 152.47828674316406 180.02899169921875 139.33006286621094 172.84500122070312 142.63296508789062 166.40675354003906" stroke-width="3.0" fill="none" stroke="rgb(0, 0, 0)" stroke-opacity="1.0" stroke-linecap="round" stroke-linejoin="round"/>
    <path d="M 92.19925689697266 152.4719696044922 C 15.825313568115234 173.23028564453125 119.77411651611328 188.63462829589844 121.46585845947266 168.3033447265625" stroke-width="3.0" fill="none" stroke="rgb(0, 0, 0)" stroke-opacity="1.0" stroke-linecap="round" stroke-linejoin="round"/>
    <path d="M 130.34722900390625 142.82444763183594 C 133.5281219482422 162.01385498046875 130.2339630126953 164.64700317382812 131.37017822265625 177.79530334472656" stroke-width="3.0" fill="none" stroke="rgb(0, 0, 0)" stroke-opacity="1.0" stroke-linecap="round" stroke-linejoin="round"/>
    <path d="M 120.73455047607422 171.6654510498047 C 127.392578125 168.93008422851562 104.47374725341797 184.04867553710938 74.1732177734375 175.24862670898438" stroke-width="3.0" fill="none" stroke="rgb(0, 0, 0)" stroke-opacity="1.0" stroke-linecap="round" stroke-linejoin="round"/>
    <path d="M 142.99526977539062 166.16722106933594 C 153.7101593017578 161.73788452148438 150.01771545410156 160.15689086914062 146.86294555664062 140.57785034179688" stroke-width="3.0" fill="none" stroke="rgb(0, 0, 0)" stroke-opacity="1.0" stroke-linecap="round" stroke-linejoin="round"/>
    <path d="M 75.94200897216797 166.9810028076172 C 102.06641387939453 173.92977905273438 158.13966369628906 158.865478515625 79.91390991210938 167.3899688720703" stroke-width="3.0" fill="none" stroke="rgb(0, 0, 0)" stroke-opacity="1.0" stroke-linecap="round" stroke-linejoin="round"/>
    <path d="M 124.85125732421875 177.2082061767578 C 117.74085998535156 176.3817901611328 126.90821838378906 161.4197235107422 117.5490493774414 169.05039978027344" stroke-width="3.0" fill="none" stroke="rgb(0, 0, 0)" stroke-opacity="1.0" stroke-linecap="round" stroke-linejoin="round"/>
    <path d="M 149.83657836914062 80.53707885742188 C 126.78018951416016 132.07481384277344 157.64527893066406 80.83279418945312 140.67115783691406 170.23681640625" stroke-width="3.0" fill="none" stroke="rgb(0, 0, 0)" stroke-opacity="1.0" stroke-linecap="round" stroke-linejoin="round"/>
    <path d="M 117.11382293701172 165.58497619628906 C 95.7259521484375 175.12399291992188 101.6919174194336 148.87220764160156 117.0288314819336 167.75228881835938" stroke-width="3.0" fill="none" stroke="rgb(0, 0, 0)" stroke-opacity="1.0" stroke-linecap="round" stroke-linejoin="round"/>
    <path d="M 95.52790832519531 155.44122314453125 C 95.5750732421875 193.01840209960938 104.96316528320312 78.2837142944336 71.78025817871094 104.43138885498047" stroke-width="3.0" fill="none" stroke="rgb(0, 0, 0)" stroke-opacity="1.0" stroke-linecap="round" stroke-linejoin="round"/>
    <path d="M 95.13684844970703 157.2608184814453 C 108.86546325683594 162.5226593017578 140.09161376953125 169.1077117919922 81.05328369140625 165.1278533935547" stroke-width="3.0" fill="none" stroke="rgb(0, 0, 0)" stroke-opacity="1.0" stroke-linecap="round" stroke-linejoin="round"/>
    <path d="M 115.10811614990234 157.01663208007812 C 46.91929626464844 190.4541473388672 105.64393615722656 147.4347686767578 113.50198364257812 168.01327514648438" stroke-width="3.0" fill="none" stroke="rgb(0, 0, 0)" stroke-opacity="1.0" stroke-linecap="round" stroke-linejoin="round"/>
    <path d="M 118.700927734375 82.2657470703125 C 110.52147674560547 103.73446655273438 160.6460418701172 104.33297729492188 117.48359680175781 79.84000396728516" stroke-width="3.0" fill="none" stroke="rgb(0, 0, 0)" stroke-opacity="1.0" stroke-linecap="round" stroke-linejoin="round"/>
    <path d="M 120.1290054321289 102.25288391113281 C 132.95155334472656 67.36653900146484 175.12716674804688 100.65450286865234 127.03408813476562 100.79124450683594" stroke-width="3.0" fill="none" stroke="rgb(0, 0, 0)" stroke-opacity="1.0" stroke-linecap="round" stroke-linejoin="round"/>
  </g>
</svg>
