<?xml version="1.0" ?>
<svg xmlns="http://www.w3.org/2000/svg" version="1.1" width="224" height="224">
  <defs/>
  <g>
    <path d="M 135.09088134765625 228.31105041503906 C 156.7111358642578 247.35060119628906 145.0076904296875 240.17599487304688 146.3128662109375 229.32952880859375" stroke-width="3.0" fill="none" stroke="rgb(0, 0, 0)" stroke-opacity="1.0" stroke-linecap="round" stroke-linejoin="round"/>
    <path d="M 138.72767639160156 229.33702087402344 C 138.39990234375 232.7064208984375 138.15626525878906 239.8517303466797 137.33660888671875 222.54107666015625" stroke-width="3.0" fill="none" stroke="rgb(0, 0, 0)" stroke-opacity="1.0" stroke-linecap="round" stroke-linejoin="round"/>
    <path d="M 137.03875732421875 229.39944458007812 C 135.2373504638672 232.53042602539062 141.20806884765625 225.2880096435547 144.33700561523438 227.3555145263672" stroke-width="3.0" fill="none" stroke="rgb(0, 0, 0)" stroke-opacity="1.0" stroke-linecap="round" stroke-linejoin="round"/>
    <path d="M 137.79754638671875 224.42825317382812 C 138.75576782226562 225.62789916992188 132.85365295410156 229.15579223632812 136.68101501464844 231.4520263671875" stroke-width="3.0" fill="none" stroke="rgb(0, 0, 0)" stroke-opacity="1.0" stroke-linecap="round" stroke-linejoin="round"/>
    <path d="M 144.32528686523438 229.3486785888672 C 144.77444458007812 225.6340789794922 143.5771484375 226.4328155517578 145.0258026123047 228.54827880859375" stroke-width="3.0" fill="none" stroke="rgb(0, 0, 0)" stroke-opacity="1.0" stroke-linecap="round" stroke-linejoin="round"/>
    <path d="M 141.38504028320312 230.40135192871094 C 139.28903198242188 230.51547241210938 138.52969360351562 233.05307006835938 139.9210205078125 225.4518280029297" stroke-width="3.0" fill="none" stroke="rgb(0, 0, 0)" stroke-opacity="1.0" stroke-linecap="round" stroke-linejoin="round"/>
    <path d="M 136.00425720214844 227.93113708496094 C 138.44647216796875 228.9626922607422 142.65460205078125 229.4899444580078 139.44525146484375 227.41334533691406" stroke-width="3.0" fill="none" stroke="rgb(0, 0, 0)" stroke-opacity="1.0" stroke-linecap="round" stroke-linejoin="round"/>
    <path d="M 131.5494384765625 232.3800048828125 C 118.22998046875 222.35879516601562 137.9413604736328 221.31422424316406 137.88560485839844 225.59483337402344" stroke-width="3.0" fill="none" stroke="rgb(0, 0, 0)" stroke-opacity="1.0" stroke-linecap="round" stroke-linejoin="round"/>
    <path d="M 137.8404541015625 223.5076904296875 C 136.78709411621094 225.43714904785156 141.16519165039062 225.24673461914062 135.72161865234375 231.39215087890625" stroke-width="3.0" fill="none" stroke="rgb(0, 0, 0)" stroke-opacity="1.0" stroke-linecap="round" stroke-linejoin="round"/>
    <path d="M 137.1477813720703 221.264892578125 C 136.6813201904297 217.90684509277344 136.61648559570312 227.0950164794922 133.59300231933594 225.67068481445312" stroke-width="3.0" fill="none" stroke="rgb(0, 0, 0)" stroke-opacity="1.0" stroke-linecap="round" stroke-linejoin="round"/>
    <path d="M 133.68179321289062 226.65283203125 C 138.8966827392578 214.4125518798828 140.83688354492188 219.53477478027344 125.99151611328125 236.7067108154297" stroke-width="3.0" fill="none" stroke="rgb(0, 0, 0)" stroke-opacity="1.0" stroke-linecap="round" stroke-linejoin="round"/>
    <path d="M 146.0067596435547 233.91542053222656 C 138.82789611816406 233.23194885253906 120.2359848022461 234.3560791015625 119.25629425048828 227.94415283203125" stroke-width="3.0" fill="none" stroke="rgb(0, 0, 0)" stroke-opacity="1.0" stroke-linecap="round" stroke-linejoin="round"/>
    <path d="M 137.3652801513672 222.3834991455078 C 140.25970458984375 239.1193389892578 155.85440063476562 234.17742919921875 145.37997436523438 229.92874145507812" stroke-width="3.0" fill="none" stroke="rgb(0, 0, 0)" stroke-opacity="1.0" stroke-linecap="round" stroke-linejoin="round"/>
    <path d="M 130.56959533691406 226.70689392089844 C 130.1146240234375 219.8029327392578 128.91915893554688 227.33323669433594 143.39649963378906 233.73046875" stroke-width="3.0" fill="none" stroke="rgb(0, 0, 0)" stroke-opacity="1.0" stroke-linecap="round" stroke-linejoin="round"/>
    <path d="M 138.29376220703125 228.6806640625 C 136.76437377929688 221.19700622558594 129.30282592773438 232.75042724609375 150.1629180908203 229.32888793945312" stroke-width="3.0" fill="none" stroke="rgb(0, 0, 0)" stroke-opacity="1.0" stroke-linecap="round" stroke-linejoin="round"/>
    <path d="M 135.78878784179688 227.22369384765625 C 139.41424560546875 222.04022216796875 139.82546997070312 224.99061584472656 139.29583740234375 233.74073791503906" stroke-width="3.0" fill="none" stroke="rgb(0, 0, 0)" stroke-opacity="1.0" stroke-linecap="round" stroke-linejoin="round"/>
    <path d="M 138.11056518554688 231.55224609375 C 155.54257202148438 228.47291564941406 160.65188598632812 232.57315063476562 138.9498748779297 238.72557067871094" stroke-width="3.0" fill="none" stroke="rgb(0, 0, 0)" stroke-opacity="1.0" stroke-linecap="round" stroke-linejoin="round"/>
    <path d="M 136.09759521484375 225.8839111328125 C 126.86616516113281 232.15785217285156 111.65277862548828 224.7018280029297 119.64629364013672 226.51254272460938" stroke-width="3.0" fill="none" stroke="rgb(0, 0, 0)" stroke-opacity="1.0" stroke-linecap="round" stroke-linejoin="round"/>
    <path d="M 136.63308715820312 224.86058044433594 C 152.05519104003906 233.4422607421875 150.99374389648438 225.320068359375 126.34255981445312 226.99871826171875" stroke-width="3.0" fill="none" stroke="rgb(0, 0, 0)" stroke-opacity="1.0" stroke-linecap="round" stroke-linejoin="round"/>
    <path d="M 133.32980346679688 221.83905029296875 C 137.74453735351562 226.5240020751953 135.60281372070312 225.04885864257812 136.341796875 227.4896697998047" stroke-width="3.0" fill="none" stroke="rgb(0, 0, 0)" stroke-opacity="1.0" stroke-linecap="round" stroke-linejoin="round"/>
    <path d="M 141.74603271484375 233.17291259765625 C 135.63394165039062 221.67613220214844 139.139892578125 225.44573974609375 144.8379669189453 226.6289520263672" stroke-width="3.0" fill="none" stroke="rgb(0, 0, 0)" stroke-opacity="1.0" stroke-linecap="round" stroke-linejoin="round"/>
    <path d="M 140.0186309814453 229.19227600097656 C 145.3639373779297 227.9792022705078 144.16111755371094 226.86788940429688 146.129638671875 230.4715576171875" stroke-width="3.0" fill="none" stroke="rgb(0, 0, 0)" stroke-opacity="1.0" stroke-linecap="round" stroke-linejoin="round"/>
    <path d="M 134.99673461914062 228.0135498046875 C 135.95458984375 225.43338012695312 128.68299865722656 236.6907958984375 132.90895080566406 228.03948974609375" stroke-width="3.0" fill="none" stroke="rgb(0, 0, 0)" stroke-opacity="1.0" stroke-linecap="round" stroke-linejoin="round"/>
    <path d="M 142.02960205078125 233.68014526367188 C 138.14959716796875 228.1238250732422 135.39581298828125 217.6200408935547 139.1407012939453 227.63131713867188" stroke-width="3.0" fill="none" stroke="rgb(0, 0, 0)" stroke-opacity="1.0" stroke-linecap="round" stroke-linejoin="round"/>
    <path d="M 133.0958709716797 229.6444549560547 C 134.08645629882812 221.98385620117188 139.5012664794922 223.66783142089844 136.52806091308594 228.66734313964844" stroke-width="3.0" fill="none" stroke="rgb(0, 0, 0)" stroke-opacity="1.0" stroke-linecap="round" stroke-linejoin="round"/>
    <path d="M 157.6429443359375 234.57379150390625 C 155.06922912597656 230.59576416015625 151.65335083007812 230.80889892578125 154.57559204101562 234.0726776123047" stroke-width="3.0" fill="none" stroke="rgb(0, 0, 0)" stroke-opacity="1.0" stroke-linecap="round" stroke-linejoin="round"/>
    <path d="M 142.2135467529297 228.0835723876953 C 126.13575744628906 240.025634765625 118.5968017578125 226.59519958496094 132.64178466796875 232.9857635498047" stroke-width="3.0" fill="none" stroke="rgb(0, 0, 0)" stroke-opacity="1.0" stroke-linecap="round" stroke-linejoin="round"/>
    <path d="M 127.7851791381836 246.85501098632812 C 131.0304718017578 237.9077606201172 136.7725067138672 214.67356872558594 126.03923797607422 233.19677734375" stroke-width="3.0" fill="none" stroke="rgb(0, 0, 0)" stroke-opacity="1.0" stroke-linecap="round" stroke-linejoin="round"/>
    <path d="M 136.53314208984375 225.58804321289062 C 134.65084838867188 221.57447814941406 133.6114959716797 224.8004150390625 141.14939880371094 228.73052978515625" stroke-width="3.0" fill="none" stroke="rgb(0, 0, 0)" stroke-opacity="1.0" stroke-linecap="round" stroke-linejoin="round"/>
    <path d="M 126.69561767578125 228.13229370117188 C 137.68675231933594 235.6409149169922 121.75061798095703 231.1320343017578 124.60040283203125 226.0548553466797" stroke-width="3.0" fill="none" stroke="rgb(0, 0, 0)" stroke-opacity="1.0" stroke-linecap="round" stroke-linejoin="round"/>
    <path d="M 136.10658264160156 234.7128448486328 C 135.02392578125 226.49508666992188 132.86167907714844 223.55706787109375 135.4539794921875 228.8904266357422" stroke-width="3.0" fill="none" stroke="rgb(0, 0, 0)" stroke-opacity="1.0" stroke-linecap="round" stroke-linejoin="round"/>
    <path d="M 139.0040283203125 227.0262908935547 C 134.43121337890625 226.93954467773438 125.63565826416016 232.0566864013672 134.5688018798828 225.8203887939453" stroke-width="3.0" fill="none" stroke="rgb(0, 0, 0)" stroke-opacity="1.0" stroke-linecap="round" stroke-linejoin="round"/>
    <path d="M 134.48793029785156 238.2493896484375 C 124.01603698730469 233.7559051513672 122.99199676513672 232.6918182373047 146.7062225341797 230.5050048828125" stroke-width="3.0" fill="none" stroke="rgb(0, 0, 0)" stroke-opacity="1.0" stroke-linecap="round" stroke-linejoin="round"/>
    <path d="M 143.96888732910156 239.55162048339844 C 144.46058654785156 238.9739532470703 146.33192443847656 234.86590576171875 146.08274841308594 233.3250732421875" stroke-width="3.0" fill="none" stroke="rgb(0, 0, 0)" stroke-opacity="1.0" stroke-linecap="round" stroke-linejoin="round"/>
    <path d="M 140.1450958251953 231.051513671875 C 144.85581970214844 233.72666931152344 146.92271423339844 228.44122314453125 141.11314392089844 225.79367065429688" stroke-width="3.0" fill="none" stroke="rgb(0, 0, 0)" stroke-opacity="1.0" stroke-linecap="round" stroke-linejoin="round"/>
    <path d="M 137.19223022460938 223.27572631835938 C 135.58404541015625 218.79708862304688 141.4225616455078 233.35263061523438 139.787353515625 244.64239501953125" stroke-width="3.0" fill="none" stroke="rgb(0, 0, 0)" stroke-opacity="1.0" stroke-linecap="round" stroke-linejoin="round"/>
    <path d="M 141.5577392578125 237.58877563476562 C 134.9586639404297 221.2157745361328 133.00613403320312 226.67303466796875 142.3361053466797 225.0087890625" stroke-width="3.0" fill="none" stroke="rgb(0, 0, 0)" stroke-opacity="1.0" stroke-linecap="round" stroke-linejoin="round"/>
    <path d="M 135.83047485351562 224.4344940185547 C 133.84510803222656 225.07579040527344 142.4590606689453 222.1694793701172 137.93186950683594 226.51400756835938" stroke-width="3.0" fill="none" stroke="rgb(0, 0, 0)" stroke-opacity="1.0" stroke-linecap="round" stroke-linejoin="round"/>
    <path d="M 136.2788543701172 223.70895385742188 C 137.98733520507812 219.6890106201172 135.39476013183594 230.95355224609375 137.91766357421875 223.37559509277344" stroke-width="3.0" fill="none" stroke="rgb(0, 0, 0)" stroke-opacity="1.0" stroke-linecap="round" stroke-linejoin="round"/>
    <path d="M 150.77426147460938 228.1132049560547 C 138.09823608398438 226.52005004882812 133.93824768066406 220.77220153808594 135.88636779785156 224.95660400390625" stroke-width="3.0" fill="none" stroke="rgb(0, 0, 0)" stroke-opacity="1.0" stroke-linecap="round" stroke-linejoin="round"/>
    <path d="M 114.10684204101562 235.3734130859375 C 110.36183166503906 224.70538330078125 105.29096984863281 237.68270874023438 125.00626373291016 243.95904541015625" stroke-width="3.0" fill="none" stroke="rgb(0, 0, 0)" stroke-opacity="1.0" stroke-linecap="round" stroke-linejoin="round"/>
    <path d="M 129.0105743408203 226.54232788085938 C 135.0592803955078 235.5098419189453 137.0726776123047 225.724365234375 135.98477172851562 222.32925415039062" stroke-width="3.0" fill="none" stroke="rgb(0, 0, 0)" stroke-opacity="1.0" stroke-linecap="round" stroke-linejoin="round"/>
    <path d="M 138.50364685058594 224.51356506347656 C 137.68408203125 222.1528778076172 141.50802612304688 235.02708435058594 136.322998046875 245.28765869140625" stroke-width="3.0" fill="none" stroke="rgb(0, 0, 0)" stroke-opacity="1.0" stroke-linecap="round" stroke-linejoin="round"/>
    <path d="M 118.05976867675781 233.6337432861328 C 98.81208801269531 242.6485137939453 140.8184051513672 239.29844665527344 148.76611328125 237.25180053710938" stroke-width="3.0" fill="none" stroke="rgb(0, 0, 0)" stroke-opacity="1.0" stroke-linecap="round" stroke-linejoin="round"/>
    <path d="M 133.23455810546875 227.86749267578125 C 138.61184692382812 227.42172241210938 143.68971252441406 221.84848022460938 143.20111083984375 231.09576416015625" stroke-width="3.0" fill="none" stroke="rgb(0, 0, 0)" stroke-opacity="1.0" stroke-linecap="round" stroke-linejoin="round"/>
    <path d="M 142.52732849121094 226.6346893310547 C 151.93336486816406 223.26637268066406 151.25430297851562 235.71449279785156 130.61717224121094 232.130615234375" stroke-width="3.0" fill="none" stroke="rgb(0, 0, 0)" stroke-opacity="1.0" stroke-linecap="round" stroke-linejoin="round"/>
    <path d="M 127.6203842163086 227.52333068847656 C 145.25648498535156 227.3194580078125 121.6328125 214.23980712890625 128.3367462158203 225.57208251953125" stroke-width="3.0" fill="none" stroke="rgb(0, 0, 0)" stroke-opacity="1.0" stroke-linecap="round" stroke-linejoin="round"/>
    <path d="M 140.49246215820312 228.3258819580078 C 126.82905578613281 233.31053161621094 130.490234375 229.46934509277344 135.9782257080078 225.6311492919922" stroke-width="3.0" fill="none" stroke="rgb(0, 0, 0)" stroke-opacity="1.0" stroke-linecap="round" stroke-linejoin="round"/>
  </g>
</svg>
