<?xml version="1.0" ?>
<svg xmlns="http://www.w3.org/2000/svg" version="1.1" width="224" height="224">
  <defs/>
  <g>
    <path d="M 130.2777099609375 90.22539520263672 C 172.59994506835938 121.11186981201172 155.18873596191406 102.34447479248047 140.56813049316406 145.82118225097656" stroke-width="3.0" fill="none" stroke="rgb(0, 0, 0)" stroke-opacity="1.0" stroke-linecap="round" stroke-linejoin="round"/>
    <path d="M 130.31813049316406 138.09075927734375 C 169.47657775878906 116.37622833251953 136.86366271972656 120.09113311767578 119.51272583007812 146.2130889892578" stroke-width="3.0" fill="none" stroke="rgb(0, 0, 0)" stroke-opacity="1.0" stroke-linecap="round" stroke-linejoin="round"/>
    <path d="M 146.9512481689453 119.25447082519531 C 209.94070434570312 104.06300354003906 107.54060363769531 110.62567138671875 162.11729431152344 97.46500396728516" stroke-width="3.0" fill="none" stroke="rgb(0, 0, 0)" stroke-opacity="1.0" stroke-linecap="round" stroke-linejoin="round"/>
    <path d="M 173.54373168945312 96.05316162109375 C 132.8766632080078 106.59025573730469 127.58972930908203 91.4255599975586 177.2296905517578 102.56446075439453" stroke-width="3.0" fill="none" stroke="rgb(0, 0, 0)" stroke-opacity="1.0" stroke-linecap="round" stroke-linejoin="round"/>
    <path d="M 152.72509765625 101.68830871582031 C 169.38917541503906 117.61767578125 190.25094604492188 88.68268585205078 191.67845153808594 106.9392318725586" stroke-width="3.0" fill="none" stroke="rgb(0, 0, 0)" stroke-opacity="1.0" stroke-linecap="round" stroke-linejoin="round"/>
    <path d="M 144.72573852539062 121.66151428222656 C 128.52639770507812 156.34458923339844 137.04591369628906 152.25363159179688 151.4587860107422 119.82825469970703" stroke-width="3.0" fill="none" stroke="rgb(0, 0, 0)" stroke-opacity="1.0" stroke-linecap="round" stroke-linejoin="round"/>
    <path d="M 121.35491943359375 86.63007354736328 C 170.06878662109375 110.41566467285156 215.05810546875 99.23284149169922 155.26222229003906 86.98243713378906" stroke-width="3.0" fill="none" stroke="rgb(0, 0, 0)" stroke-opacity="1.0" stroke-linecap="round" stroke-linejoin="round"/>
    <path d="M 117.799560546875 187.24114990234375 C 156.42974853515625 89.14089965820312 152.39735412597656 155.0657958984375 127.74661254882812 184.13624572753906" stroke-width="3.0" fill="none" stroke="rgb(0, 0, 0)" stroke-opacity="1.0" stroke-linecap="round" stroke-linejoin="round"/>
    <path d="M 129.79278564453125 129.76197814941406 C 111.95536804199219 156.66024780273438 115.12586975097656 151.30850219726562 122.26750946044922 136.5675506591797" stroke-width="3.0" fill="none" stroke="rgb(0, 0, 0)" stroke-opacity="1.0" stroke-linecap="round" stroke-linejoin="round"/>
    <path d="M 124.09703826904297 90.24896240234375 C 180.98545837402344 141.98165893554688 205.29095458984375 79.61678314208984 151.25502014160156 86.0191650390625" stroke-width="3.0" fill="none" stroke="rgb(0, 0, 0)" stroke-opacity="1.0" stroke-linecap="round" stroke-linejoin="round"/>
    <path d="M 144.37057495117188 120.43392944335938 C 134.54283142089844 175.59202575683594 127.50277709960938 181.65835571289062 148.5775604248047 128.05178833007812" stroke-width="3.0" fill="none" stroke="rgb(0, 0, 0)" stroke-opacity="1.0" stroke-linecap="round" stroke-linejoin="round"/>
    <path d="M 139.0281982421875 122.71491241455078 C 213.27951049804688 99.27023315429688 159.5755615234375 103.6302490234375 125.56295776367188 82.22028350830078" stroke-width="3.0" fill="none" stroke="rgb(0, 0, 0)" stroke-opacity="1.0" stroke-linecap="round" stroke-linejoin="round"/>
    <path d="M 124.87792205810547 184.80125427246094 C 141.58724975585938 122.45271301269531 143.40460205078125 122.69219970703125 184.91822814941406 99.48139953613281" stroke-width="3.0" fill="none" stroke="rgb(0, 0, 0)" stroke-opacity="1.0" stroke-linecap="round" stroke-linejoin="round"/>
    <path d="M 139.90118408203125 133.8609619140625 C 115.88619995117188 163.45223999023438 119.11115264892578 175.55038452148438 105.66096496582031 185.96127319335938" stroke-width="3.0" fill="none" stroke="rgb(0, 0, 0)" stroke-opacity="1.0" stroke-linecap="round" stroke-linejoin="round"/>
    <path d="M 47.63949966430664 93.75740814208984 C 75.56916046142578 81.39724731445312 120.15401458740234 69.60185241699219 146.64950561523438 109.61322021484375" stroke-width="3.0" fill="none" stroke="rgb(0, 0, 0)" stroke-opacity="1.0" stroke-linecap="round" stroke-linejoin="round"/>
    <path d="M 34.567691802978516 83.2042007446289 C 60.1291389465332 76.97137451171875 114.0134506225586 72.00225067138672 141.89540100097656 95.00873565673828" stroke-width="3.0" fill="none" stroke="rgb(0, 0, 0)" stroke-opacity="1.0" stroke-linecap="round" stroke-linejoin="round"/>
    <path d="M 102.54468536376953 80.7127456665039 C 74.76704406738281 69.9876480102539 101.65768432617188 79.35926818847656 110.2865219116211 74.2940902709961" stroke-width="3.0" fill="none" stroke="rgb(0, 0, 0)" stroke-opacity="1.0" stroke-linecap="round" stroke-linejoin="round"/>
    <path d="M 138.04736328125 139.91693115234375 C 127.80448150634766 137.3978729248047 116.10818481445312 127.2990493774414 144.25942993164062 130.71238708496094" stroke-width="3.0" fill="none" stroke="rgb(0, 0, 0)" stroke-opacity="1.0" stroke-linecap="round" stroke-linejoin="round"/>
    <path d="M 130.31228637695312 179.2162322998047 C 155.1836700439453 113.07781982421875 162.54998779296875 110.61250305175781 140.4388885498047 126.33089447021484" stroke-width="3.0" fill="none" stroke="rgb(0, 0, 0)" stroke-opacity="1.0" stroke-linecap="round" stroke-linejoin="round"/>
    <path d="M 99.69873046875 185.5372772216797 C 125.62895202636719 147.7547607421875 111.8880615234375 130.81866455078125 149.64149475097656 117.18074035644531" stroke-width="3.0" fill="none" stroke="rgb(0, 0, 0)" stroke-opacity="1.0" stroke-linecap="round" stroke-linejoin="round"/>
    <path d="M 139.82713317871094 125.86468505859375 C 137.83714294433594 166.97271728515625 129.57664489746094 186.80613708496094 138.46791076660156 157.61929321289062" stroke-width="3.0" fill="none" stroke="rgb(0, 0, 0)" stroke-opacity="1.0" stroke-linecap="round" stroke-linejoin="round"/>
    <path d="M 120.30802917480469 146.33380126953125 C 142.60255432128906 134.90109252929688 140.85809326171875 103.56407928466797 119.65367889404297 147.3526153564453" stroke-width="3.0" fill="none" stroke="rgb(0, 0, 0)" stroke-opacity="1.0" stroke-linecap="round" stroke-linejoin="round"/>
    <path d="M 189.44627380371094 104.24945831298828 C 171.25328063964844 101.43873596191406 149.26312255859375 95.1505126953125 117.30673217773438 82.20333862304688" stroke-width="3.0" fill="none" stroke="rgb(0, 0, 0)" stroke-opacity="1.0" stroke-linecap="round" stroke-linejoin="round"/>
    <path d="M 134.4830780029297 140.21002197265625 C 184.47190856933594 100.50330352783203 128.894287109375 117.15757751464844 119.82046508789062 147.53634643554688" stroke-width="3.0" fill="none" stroke="rgb(0, 0, 0)" stroke-opacity="1.0" stroke-linecap="round" stroke-linejoin="round"/>
    <path d="M 105.9346694946289 80.54246520996094 C 70.27947235107422 85.43916320800781 116.46056365966797 68.76271057128906 169.1390380859375 101.1805191040039" stroke-width="3.0" fill="none" stroke="rgb(0, 0, 0)" stroke-opacity="1.0" stroke-linecap="round" stroke-linejoin="round"/>
    <path d="M 131.8000946044922 141.81427001953125 C 159.37132263183594 109.91034698486328 125.83770751953125 140.9690704345703 141.48011779785156 125.85363006591797" stroke-width="3.0" fill="none" stroke="rgb(0, 0, 0)" stroke-opacity="1.0" stroke-linecap="round" stroke-linejoin="round"/>
    <path d="M 56.9371223449707 55.8945426940918 C 79.9422836303711 80.18240356445312 106.848388671875 76.4319076538086 120.1921615600586 86.3536376953125" stroke-width="3.0" fill="none" stroke="rgb(0, 0, 0)" stroke-opacity="1.0" stroke-linecap="round" stroke-linejoin="round"/>
    <path d="M 101.7447280883789 177.06568908691406 C 116.45883178710938 164.45407104492188 120.75403594970703 154.51385498046875 142.27267456054688 120.92127227783203" stroke-width="3.0" fill="none" stroke="rgb(0, 0, 0)" stroke-opacity="1.0" stroke-linecap="round" stroke-linejoin="round"/>
    <path d="M 182.33851623535156 98.29008483886719 C 128.9684600830078 108.04093170166016 114.867431640625 96.01679229736328 176.36648559570312 93.25080871582031" stroke-width="3.0" fill="none" stroke="rgb(0, 0, 0)" stroke-opacity="1.0" stroke-linecap="round" stroke-linejoin="round"/>
    <path d="M 191.44192504882812 109.8001937866211 C 179.36631774902344 91.1500244140625 176.46961975097656 127.22920989990234 136.63035583496094 105.92692565917969" stroke-width="3.0" fill="none" stroke="rgb(0, 0, 0)" stroke-opacity="1.0" stroke-linecap="round" stroke-linejoin="round"/>
    <path d="M 110.82939910888672 79.14911651611328 C 153.70668029785156 76.41915130615234 138.57452392578125 100.40675354003906 176.30792236328125 92.48714447021484" stroke-width="3.0" fill="none" stroke="rgb(0, 0, 0)" stroke-opacity="1.0" stroke-linecap="round" stroke-linejoin="round"/>
    <path d="M 154.05661010742188 120.03553771972656 C 128.40524291992188 166.132568359375 116.45401000976562 140.44784545898438 149.54786682128906 120.32669830322266" stroke-width="3.0" fill="none" stroke="rgb(0, 0, 0)" stroke-opacity="1.0" stroke-linecap="round" stroke-linejoin="round"/>
  </g>
</svg>
