<?xml version="1.0" ?>
<svg xmlns="http://www.w3.org/2000/svg" version="1.1" width="224" height="224">
  <defs/>
  <g>
    <path d="M 139.5205535888672 114.91375732421875 C 167.5084228515625 101.29003143310547 152.65011596679688 114.23356628417969 143.35879516601562 122.23533630371094" stroke-width="3.0" fill="none" stroke="rgb(0, 0, 0)" stroke-opacity="1.0" stroke-linecap="round" stroke-linejoin="round"/>
    <path d="M 137.08419799804688 156.171875 C 150.66195678710938 119.06089782714844 136.8020477294922 126.53651428222656 137.28475952148438 149.3127899169922" stroke-width="3.0" fill="none" stroke="rgb(0, 0, 0)" stroke-opacity="1.0" stroke-linecap="round" stroke-linejoin="round"/>
    <path d="M 149.87657165527344 113.81300354003906 C 159.55209350585938 118.12517547607422 140.66783142089844 112.26441192626953 146.48240661621094 122.58483123779297" stroke-width="3.0" fill="none" stroke="rgb(0, 0, 0)" stroke-opacity="1.0" stroke-linecap="round" stroke-linejoin="round"/>
    <path d="M 152.06723022460938 120.43199920654297 C 149.5358428955078 126.15864562988281 145.03280639648438 136.44578552246094 150.67819213867188 116.32138061523438" stroke-width="3.0" fill="none" stroke="rgb(0, 0, 0)" stroke-opacity="1.0" stroke-linecap="round" stroke-linejoin="round"/>
    <path d="M 160.65628051757812 117.3765640258789 C 174.08290100097656 87.23396301269531 168.7121124267578 92.5487289428711 179.39634704589844 101.53678131103516" stroke-width="3.0" fill="none" stroke="rgb(0, 0, 0)" stroke-opacity="1.0" stroke-linecap="round" stroke-linejoin="round"/>
    <path d="M 138.91685485839844 120.35160827636719 C 115.45091247558594 133.58514404296875 121.44866180419922 146.54058837890625 136.59303283691406 130.24082946777344" stroke-width="3.0" fill="none" stroke="rgb(0, 0, 0)" stroke-opacity="1.0" stroke-linecap="round" stroke-linejoin="round"/>
    <path d="M 162.45883178710938 93.3386001586914 C 163.61361694335938 102.38721466064453 173.6063995361328 109.17638397216797 163.38528442382812 94.40618896484375" stroke-width="3.0" fill="none" stroke="rgb(0, 0, 0)" stroke-opacity="1.0" stroke-linecap="round" stroke-linejoin="round"/>
    <path d="M 122.7110366821289 179.50535583496094 C 132.59140014648438 136.22344970703125 143.11865234375 157.0554962158203 129.0251007080078 179.05650329589844" stroke-width="3.0" fill="none" stroke="rgb(0, 0, 0)" stroke-opacity="1.0" stroke-linecap="round" stroke-linejoin="round"/>
    <path d="M 125.66777038574219 156.21669006347656 C 107.26616668701172 192.9752655029297 109.0219955444336 176.45162963867188 119.83122253417969 166.20956420898438" stroke-width="3.0" fill="none" stroke="rgb(0, 0, 0)" stroke-opacity="1.0" stroke-linecap="round" stroke-linejoin="round"/>
    <path d="M 150.1250762939453 91.8856201171875 C 187.86456298828125 88.45930480957031 173.81700134277344 88.2409439086914 147.10069274902344 87.79337310791016" stroke-width="3.0" fill="none" stroke="rgb(0, 0, 0)" stroke-opacity="1.0" stroke-linecap="round" stroke-linejoin="round"/>
    <path d="M 135.63470458984375 145.17906188964844 C 128.6366424560547 144.96189880371094 138.1707763671875 160.8170623779297 134.14097595214844 152.0240936279297" stroke-width="3.0" fill="none" stroke="rgb(0, 0, 0)" stroke-opacity="1.0" stroke-linecap="round" stroke-linejoin="round"/>
    <path d="M 150.72003173828125 114.41718292236328 C 170.2655029296875 112.45246887207031 167.2383575439453 116.80960083007812 138.29124450683594 92.27003479003906" stroke-width="3.0" fill="none" stroke="rgb(0, 0, 0)" stroke-opacity="1.0" stroke-linecap="round" stroke-linejoin="round"/>
    <path d="M 136.93055725097656 161.25326538085938 C 145.16769409179688 132.36636352539062 148.20542907714844 124.3358154296875 158.86996459960938 117.11831665039062" stroke-width="3.0" fill="none" stroke="rgb(0, 0, 0)" stroke-opacity="1.0" stroke-linecap="round" stroke-linejoin="round"/>
    <path d="M 134.5063934326172 156.94676208496094 C 120.87310791015625 175.57373046875 128.798095703125 170.87234497070312 120.82538604736328 181.8956756591797" stroke-width="3.0" fill="none" stroke="rgb(0, 0, 0)" stroke-opacity="1.0" stroke-linecap="round" stroke-linejoin="round"/>
    <path d="M 67.00248718261719 83.92689514160156 C 76.43580627441406 80.85679626464844 106.1164321899414 77.22826385498047 117.67227172851562 79.33807373046875" stroke-width="3.0" fill="none" stroke="rgb(0, 0, 0)" stroke-opacity="1.0" stroke-linecap="round" stroke-linejoin="round"/>
    <path d="M 45.55802917480469 94.04702758789062 C 60.82759094238281 86.46820068359375 66.13337707519531 81.61554718017578 80.623046875 79.99923706054688" stroke-width="3.0" fill="none" stroke="rgb(0, 0, 0)" stroke-opacity="1.0" stroke-linecap="round" stroke-linejoin="round"/>
    <path d="M 44.055198669433594 61.32798767089844 C 49.239646911621094 64.54483032226562 53.17758560180664 66.85985565185547 92.76272583007812 76.11980438232422" stroke-width="3.0" fill="none" stroke="rgb(0, 0, 0)" stroke-opacity="1.0" stroke-linecap="round" stroke-linejoin="round"/>
    <path d="M 118.724609375 145.06944274902344 C 110.66944885253906 160.630859375 112.00900268554688 172.00242614746094 126.4839859008789 149.3068084716797" stroke-width="3.0" fill="none" stroke="rgb(0, 0, 0)" stroke-opacity="1.0" stroke-linecap="round" stroke-linejoin="round"/>
    <path d="M 134.4523468017578 167.87120056152344 C 142.16204833984375 137.7078399658203 139.6704559326172 143.9591064453125 122.07476043701172 142.2244415283203" stroke-width="3.0" fill="none" stroke="rgb(0, 0, 0)" stroke-opacity="1.0" stroke-linecap="round" stroke-linejoin="round"/>
    <path d="M 117.03451538085938 169.02259826660156 C 122.57777404785156 146.66078186035156 125.42204284667969 156.29644775390625 136.417236328125 141.42300415039062" stroke-width="3.0" fill="none" stroke="rgb(0, 0, 0)" stroke-opacity="1.0" stroke-linecap="round" stroke-linejoin="round"/>
    <path d="M 122.35128021240234 175.62301635742188 C 119.15557861328125 181.28564453125 116.73487854003906 193.1450958251953 124.8262710571289 167.88400268554688" stroke-width="3.0" fill="none" stroke="rgb(0, 0, 0)" stroke-opacity="1.0" stroke-linecap="round" stroke-linejoin="round"/>
    <path d="M 128.24227905273438 168.29083251953125 C 128.07008361816406 128.4066619873047 135.38427734375 109.02611541748047 136.11358642578125 153.84686279296875" stroke-width="3.0" fill="none" stroke="rgb(0, 0, 0)" stroke-opacity="1.0" stroke-linecap="round" stroke-linejoin="round"/>
    <path d="M 152.42733764648438 111.96514892578125 C 152.1441650390625 103.97986602783203 136.3686065673828 95.2970199584961 131.71578979492188 85.78380584716797" stroke-width="3.0" fill="none" stroke="rgb(0, 0, 0)" stroke-opacity="1.0" stroke-linecap="round" stroke-linejoin="round"/>
    <path d="M 121.3667984008789 154.3172607421875 C 139.46849060058594 124.66777801513672 125.97097778320312 127.69121551513672 117.5605697631836 151.96095275878906" stroke-width="3.0" fill="none" stroke="rgb(0, 0, 0)" stroke-opacity="1.0" stroke-linecap="round" stroke-linejoin="round"/>
    <path d="M 106.7582778930664 74.69363403320312 C 57.41765594482422 72.70576477050781 93.09744262695312 63.823543548583984 132.4619140625 88.6766586303711" stroke-width="3.0" fill="none" stroke="rgb(0, 0, 0)" stroke-opacity="1.0" stroke-linecap="round" stroke-linejoin="round"/>
    <path d="M 142.56443786621094 139.1427764892578 C 148.23751831054688 131.97607421875 136.85986328125 146.3678436279297 130.47840881347656 153.87620544433594" stroke-width="3.0" fill="none" stroke="rgb(0, 0, 0)" stroke-opacity="1.0" stroke-linecap="round" stroke-linejoin="round"/>
    <path d="M 58.25942611694336 86.88711547851562 C 77.91595458984375 86.3999252319336 77.22090148925781 77.20266723632812 102.31230163574219 77.49609375" stroke-width="3.0" fill="none" stroke="rgb(0, 0, 0)" stroke-opacity="1.0" stroke-linecap="round" stroke-linejoin="round"/>
    <path d="M 99.77240753173828 186.22769165039062 C 117.70366668701172 160.74160766601562 105.97318267822266 163.4886474609375 124.2762680053711 148.84408569335938" stroke-width="3.0" fill="none" stroke="rgb(0, 0, 0)" stroke-opacity="1.0" stroke-linecap="round" stroke-linejoin="round"/>
    <path d="M 169.6300506591797 101.39045715332031 C 158.5965118408203 84.98198699951172 156.1028594970703 90.7185287475586 165.9062042236328 109.26679229736328" stroke-width="3.0" fill="none" stroke="rgb(0, 0, 0)" stroke-opacity="1.0" stroke-linecap="round" stroke-linejoin="round"/>
    <path d="M 187.8046417236328 109.45050048828125 C 184.05874633789062 110.85910034179688 179.61634826660156 95.3556900024414 162.8959197998047 111.57987213134766" stroke-width="3.0" fill="none" stroke="rgb(0, 0, 0)" stroke-opacity="1.0" stroke-linecap="round" stroke-linejoin="round"/>
    <path d="M 114.7755355834961 80.03012084960938 C 146.0564727783203 81.4179916381836 140.59689331054688 86.97994995117188 162.8037109375 102.5671157836914" stroke-width="3.0" fill="none" stroke="rgb(0, 0, 0)" stroke-opacity="1.0" stroke-linecap="round" stroke-linejoin="round"/>
    <path d="M 140.4019775390625 133.57766723632812 C 108.36163330078125 152.6849365234375 112.59446716308594 146.0924072265625 131.830810546875 129.22958374023438" stroke-width="3.0" fill="none" stroke="rgb(0, 0, 0)" stroke-opacity="1.0" stroke-linecap="round" stroke-linejoin="round"/>
  </g>
</svg>
