<?xml version="1.0" ?>
<svg xmlns="http://www.w3.org/2000/svg" version="1.1" width="224" height="224">
  <defs/>
  <g>
    <path d="M 135.44760131835938 103.69905853271484 C 188.56451416015625 118.69540405273438 155.28688049316406 107.05029296875 132.0245819091797 128.71983337402344" stroke-width="3.0" fill="none" stroke="rgb(0, 0, 0)" stroke-opacity="1.0" stroke-linecap="round" stroke-linejoin="round"/>
    <path d="M 138.53857421875 136.9382781982422 C 150.83351135253906 120.17803955078125 134.34930419921875 123.56611633300781 129.54318237304688 151.62368774414062" stroke-width="3.0" fill="none" stroke="rgb(0, 0, 0)" stroke-opacity="1.0" stroke-linecap="round" stroke-linejoin="round"/>
    <path d="M 154.73927307128906 123.1917495727539 C 175.17567443847656 116.90634155273438 145.61082458496094 123.4294662475586 154.8057403564453 105.65131378173828" stroke-width="3.0" fill="none" stroke="rgb(0, 0, 0)" stroke-opacity="1.0" stroke-linecap="round" stroke-linejoin="round"/>
    <path d="M 154.72242736816406 113.42398071289062 C 142.08187866210938 117.67228698730469 120.56099700927734 94.04589080810547 149.94631958007812 105.95767211914062" stroke-width="3.0" fill="none" stroke="rgb(0, 0, 0)" stroke-opacity="1.0" stroke-linecap="round" stroke-linejoin="round"/>
    <path d="M 162.8120574951172 115.9709243774414 C 183.1663055419922 99.15302276611328 164.26148986816406 84.90457916259766 192.03009033203125 104.944091796875" stroke-width="3.0" fill="none" stroke="rgb(0, 0, 0)" stroke-opacity="1.0" stroke-linecap="round" stroke-linejoin="round"/>
    <path d="M 148.46836853027344 119.29854583740234 C 131.61790466308594 160.9973907470703 107.52691650390625 142.87884521484375 143.8587188720703 128.47386169433594" stroke-width="3.0" fill="none" stroke="rgb(0, 0, 0)" stroke-opacity="1.0" stroke-linecap="round" stroke-linejoin="round"/>
    <path d="M 145.96067810058594 90.70214080810547 C 161.58804321289062 110.19428253173828 203.341064453125 104.01461029052734 167.5741729736328 99.08782958984375" stroke-width="3.0" fill="none" stroke="rgb(0, 0, 0)" stroke-opacity="1.0" stroke-linecap="round" stroke-linejoin="round"/>
    <path d="M 122.19539642333984 177.36190795898438 C 141.75523376464844 126.10743713378906 144.20985412597656 155.57608032226562 129.04635620117188 182.0522918701172" stroke-width="3.0" fill="none" stroke="rgb(0, 0, 0)" stroke-opacity="1.0" stroke-linecap="round" stroke-linejoin="round"/>
    <path d="M 126.44549560546875 150.31761169433594 C 105.78570556640625 182.90975952148438 111.72615814208984 168.31895446777344 122.54883575439453 148.340087890625" stroke-width="3.0" fill="none" stroke="rgb(0, 0, 0)" stroke-opacity="1.0" stroke-linecap="round" stroke-linejoin="round"/>
    <path d="M 137.9380645751953 86.97602844238281 C 200.64149475097656 121.189697265625 190.7876434326172 85.56609344482422 159.64390563964844 90.17813110351562" stroke-width="3.0" fill="none" stroke="rgb(0, 0, 0)" stroke-opacity="1.0" stroke-linecap="round" stroke-linejoin="round"/>
    <path d="M 137.55152893066406 145.85414123535156 C 129.31845092773438 134.64547729492188 136.46815490722656 149.11183166503906 143.95596313476562 128.04122924804688" stroke-width="3.0" fill="none" stroke="rgb(0, 0, 0)" stroke-opacity="1.0" stroke-linecap="round" stroke-linejoin="round"/>
    <path d="M 149.46214294433594 108.53272247314453 C 184.90541076660156 107.28075408935547 163.97666931152344 120.05892181396484 139.67642211914062 106.81683349609375" stroke-width="3.0" fill="none" stroke="rgb(0, 0, 0)" stroke-opacity="1.0" stroke-linecap="round" stroke-linejoin="round"/>
    <path d="M 134.17770385742188 163.1723175048828 C 144.18467712402344 134.45040893554688 144.2244873046875 123.30110168457031 158.32147216796875 107.93307495117188" stroke-width="3.0" fill="none" stroke="rgb(0, 0, 0)" stroke-opacity="1.0" stroke-linecap="round" stroke-linejoin="round"/>
    <path d="M 132.0148468017578 145.38014221191406 C 122.4583511352539 178.880126953125 124.45256805419922 172.4723358154297 116.05036926269531 187.43063354492188" stroke-width="3.0" fill="none" stroke="rgb(0, 0, 0)" stroke-opacity="1.0" stroke-linecap="round" stroke-linejoin="round"/>
    <path d="M 48.8717155456543 92.66818237304688 C 74.42011260986328 79.65267944335938 110.4135513305664 71.95803833007812 144.86358642578125 90.33872985839844" stroke-width="3.0" fill="none" stroke="rgb(0, 0, 0)" stroke-opacity="1.0" stroke-linecap="round" stroke-linejoin="round"/>
    <path d="M 34.3107795715332 84.35323333740234 C 52.09645462036133 80.13187408447266 74.9974594116211 80.78254699707031 111.64018249511719 75.21865844726562" stroke-width="3.0" fill="none" stroke="rgb(0, 0, 0)" stroke-opacity="1.0" stroke-linecap="round" stroke-linejoin="round"/>
    <path d="M 61.20686340332031 57.124141693115234 C 57.20770263671875 55.94595718383789 73.46723175048828 72.40074157714844 101.92750549316406 75.67137908935547" stroke-width="3.0" fill="none" stroke="rgb(0, 0, 0)" stroke-opacity="1.0" stroke-linecap="round" stroke-linejoin="round"/>
    <path d="M 121.10749053955078 139.8488311767578 C 110.75018310546875 161.4857635498047 97.82613372802734 157.60682678222656 129.32431030273438 142.4113006591797" stroke-width="3.0" fill="none" stroke="rgb(0, 0, 0)" stroke-opacity="1.0" stroke-linecap="round" stroke-linejoin="round"/>
    <path d="M 129.05572509765625 179.43994140625 C 146.08755493164062 135.60763549804688 141.7996368408203 148.35678100585938 126.18667602539062 132.38279724121094" stroke-width="3.0" fill="none" stroke="rgb(0, 0, 0)" stroke-opacity="1.0" stroke-linecap="round" stroke-linejoin="round"/>
    <path d="M 98.83036041259766 185.19505310058594 C 123.39503479003906 141.40411376953125 119.55584716796875 140.80963134765625 128.95054626464844 130.85858154296875" stroke-width="3.0" fill="none" stroke="rgb(0, 0, 0)" stroke-opacity="1.0" stroke-linecap="round" stroke-linejoin="round"/>
    <path d="M 125.59337615966797 166.22564697265625 C 113.278076171875 177.4138946533203 117.5279312133789 198.45729064941406 126.10391998291016 162.75157165527344" stroke-width="3.0" fill="none" stroke="rgb(0, 0, 0)" stroke-opacity="1.0" stroke-linecap="round" stroke-linejoin="round"/>
    <path d="M 116.01226806640625 144.70362854003906 C 126.22559356689453 139.69361877441406 139.45504760742188 122.81153869628906 122.93327331542969 152.78363037109375" stroke-width="3.0" fill="none" stroke="rgb(0, 0, 0)" stroke-opacity="1.0" stroke-linecap="round" stroke-linejoin="round"/>
    <path d="M 156.97134399414062 114.21442413330078 C 158.24197387695312 105.57918548583984 133.82318115234375 101.03075408935547 124.68463897705078 89.6186752319336" stroke-width="3.0" fill="none" stroke="rgb(0, 0, 0)" stroke-opacity="1.0" stroke-linecap="round" stroke-linejoin="round"/>
    <path d="M 138.12567138671875 151.69871520996094 C 152.58128356933594 115.19564819335938 128.04554748535156 119.96089935302734 111.21772003173828 154.42449951171875" stroke-width="3.0" fill="none" stroke="rgb(0, 0, 0)" stroke-opacity="1.0" stroke-linecap="round" stroke-linejoin="round"/>
    <path d="M 95.63530731201172 75.21157836914062 C 58.521358489990234 96.767822265625 102.3111801147461 66.74313354492188 145.13819885253906 101.5672836303711" stroke-width="3.0" fill="none" stroke="rgb(0, 0, 0)" stroke-opacity="1.0" stroke-linecap="round" stroke-linejoin="round"/>
    <path d="M 133.10496520996094 143.8934783935547 C 149.67733764648438 120.51571655273438 131.33282470703125 131.2190704345703 134.97991943359375 148.7531280517578" stroke-width="3.0" fill="none" stroke="rgb(0, 0, 0)" stroke-opacity="1.0" stroke-linecap="round" stroke-linejoin="round"/>
    <path d="M 42.11101150512695 64.6754379272461 C 66.75023651123047 76.24689483642578 103.12247467041016 72.37085723876953 108.82976531982422 77.94806671142578" stroke-width="3.0" fill="none" stroke="rgb(0, 0, 0)" stroke-opacity="1.0" stroke-linecap="round" stroke-linejoin="round"/>
    <path d="M 103.98573303222656 188.26051330566406 C 127.50817108154297 165.00331115722656 114.27362823486328 159.50775146484375 141.01321411132812 139.36065673828125" stroke-width="3.0" fill="none" stroke="rgb(0, 0, 0)" stroke-opacity="1.0" stroke-linecap="round" stroke-linejoin="round"/>
    <path d="M 186.33773803710938 102.01053619384766 C 148.59263610839844 94.00840759277344 136.1348876953125 97.89654541015625 173.3961181640625 105.44407653808594" stroke-width="3.0" fill="none" stroke="rgb(0, 0, 0)" stroke-opacity="1.0" stroke-linecap="round" stroke-linejoin="round"/>
    <path d="M 191.24740600585938 106.28825378417969 C 185.41488647460938 103.4837646484375 184.8864288330078 101.50119018554688 162.40086364746094 116.35830688476562" stroke-width="3.0" fill="none" stroke="rgb(0, 0, 0)" stroke-opacity="1.0" stroke-linecap="round" stroke-linejoin="round"/>
    <path d="M 116.70140075683594 82.33073425292969 C 161.01609802246094 81.06482696533203 142.356201171875 99.98359680175781 183.36981201171875 97.64323425292969" stroke-width="3.0" fill="none" stroke="rgb(0, 0, 0)" stroke-opacity="1.0" stroke-linecap="round" stroke-linejoin="round"/>
    <path d="M 146.25405883789062 120.17662048339844 C 102.23770904541016 153.44972229003906 113.12946319580078 146.54605102539062 136.47488403320312 129.28787231445312" stroke-width="3.0" fill="none" stroke="rgb(0, 0, 0)" stroke-opacity="1.0" stroke-linecap="round" stroke-linejoin="round"/>
  </g>
</svg>
