<?xml version="1.0" ?>
<svg xmlns="http://www.w3.org/2000/svg" version="1.1" width="224" height="224">
  <defs/>
  <g>
    <path d="M 138.43948364257812 84.55899810791016 C 189.0347900390625 119.21308135986328 157.7780303955078 91.96772003173828 128.8337860107422 148.49822998046875" stroke-width="3.0" fill="none" stroke="rgb(0, 0, 0)" stroke-opacity="1.0" stroke-linecap="round" stroke-linejoin="round"/>
    <path d="M 108.05921936035156 161.48751831054688 C 160.298828125 101.49225616455078 138.89102172851562 124.79849243164062 122.24142456054688 164.39047241210938" stroke-width="3.0" fill="none" stroke="rgb(0, 0, 0)" stroke-opacity="1.0" stroke-linecap="round" stroke-linejoin="round"/>
    <path d="M 148.1374053955078 118.5436019897461 C 204.34646606445312 106.85830688476562 115.94627380371094 126.87335205078125 174.36004638671875 110.3387451171875" stroke-width="3.0" fill="none" stroke="rgb(0, 0, 0)" stroke-opacity="1.0" stroke-linecap="round" stroke-linejoin="round"/>
    <path d="M 167.6960906982422 101.67192840576172 C 123.82720947265625 106.60154724121094 113.46309661865234 100.72351837158203 183.89930725097656 97.84451293945312" stroke-width="3.0" fill="none" stroke="rgb(0, 0, 0)" stroke-opacity="1.0" stroke-linecap="round" stroke-linejoin="round"/>
    <path d="M 135.69508361816406 108.19682312011719 C 167.61322021484375 129.1986846923828 183.83839416503906 87.553466796875 190.60289001464844 106.04098510742188" stroke-width="3.0" fill="none" stroke="rgb(0, 0, 0)" stroke-opacity="1.0" stroke-linecap="round" stroke-linejoin="round"/>
    <path d="M 151.64529418945312 117.76973724365234 C 132.45535278320312 164.5679473876953 128.7840118408203 159.04046630859375 144.65000915527344 119.15784454345703" stroke-width="3.0" fill="none" stroke="rgb(0, 0, 0)" stroke-opacity="1.0" stroke-linecap="round" stroke-linejoin="round"/>
    <path d="M 120.73265075683594 87.85313415527344 C 162.7401580810547 116.19966888427734 220.72926330566406 98.74845886230469 158.91368103027344 87.48979187011719" stroke-width="3.0" fill="none" stroke="rgb(0, 0, 0)" stroke-opacity="1.0" stroke-linecap="round" stroke-linejoin="round"/>
    <path d="M 112.78950500488281 187.7197723388672 C 157.80125427246094 83.03987884521484 145.46499633789062 162.0413818359375 131.7262725830078 179.70416259765625" stroke-width="3.0" fill="none" stroke="rgb(0, 0, 0)" stroke-opacity="1.0" stroke-linecap="round" stroke-linejoin="round"/>
    <path d="M 132.3450164794922 126.33331298828125 C 114.9626235961914 153.2898712158203 118.67095184326172 153.70449829101562 129.65023803710938 133.93724060058594" stroke-width="3.0" fill="none" stroke="rgb(0, 0, 0)" stroke-opacity="1.0" stroke-linecap="round" stroke-linejoin="round"/>
    <path d="M 133.95278930664062 81.81609344482422 C 181.3036651611328 131.2689666748047 198.02908325195312 84.24655151367188 155.5682830810547 87.08206176757812" stroke-width="3.0" fill="none" stroke="rgb(0, 0, 0)" stroke-opacity="1.0" stroke-linecap="round" stroke-linejoin="round"/>
    <path d="M 143.12991333007812 120.40284729003906 C 143.18698120117188 173.83078002929688 129.8418426513672 173.3915252685547 155.8913116455078 116.95171356201172" stroke-width="3.0" fill="none" stroke="rgb(0, 0, 0)" stroke-opacity="1.0" stroke-linecap="round" stroke-linejoin="round"/>
    <path d="M 135.37210083007812 127.48258972167969 C 219.15013122558594 82.400146484375 166.53494262695312 112.5947494506836 116.57964324951172 85.52798461914062" stroke-width="3.0" fill="none" stroke="rgb(0, 0, 0)" stroke-opacity="1.0" stroke-linecap="round" stroke-linejoin="round"/>
    <path d="M 120.26785278320312 184.88246154785156 C 149.4932098388672 127.03357696533203 138.6679229736328 119.89610290527344 184.49024963378906 97.31481170654297" stroke-width="3.0" fill="none" stroke="rgb(0, 0, 0)" stroke-opacity="1.0" stroke-linecap="round" stroke-linejoin="round"/>
    <path d="M 138.17945861816406 121.06356811523438 C 103.93455505371094 147.26849365234375 115.07296752929688 170.544677734375 99.37822723388672 185.05996704101562" stroke-width="3.0" fill="none" stroke="rgb(0, 0, 0)" stroke-opacity="1.0" stroke-linecap="round" stroke-linejoin="round"/>
    <path d="M 49.35108184814453 93.21565246582031 C 75.83843231201172 79.05935668945312 116.21298217773438 68.27957153320312 151.88185119628906 112.41070556640625" stroke-width="3.0" fill="none" stroke="rgb(0, 0, 0)" stroke-opacity="1.0" stroke-linecap="round" stroke-linejoin="round"/>
    <path d="M 34.85258865356445 83.03137969970703 C 83.65225219726562 73.6998291015625 98.36141967773438 74.30374145507812 169.11170959472656 100.30604553222656" stroke-width="3.0" fill="none" stroke="rgb(0, 0, 0)" stroke-opacity="1.0" stroke-linecap="round" stroke-linejoin="round"/>
    <path d="M 105.2562026977539 80.71997833251953 C 71.86376190185547 72.32733154296875 91.72754669189453 78.0812759399414 106.59911346435547 73.44902038574219" stroke-width="3.0" fill="none" stroke="rgb(0, 0, 0)" stroke-opacity="1.0" stroke-linecap="round" stroke-linejoin="round"/>
    <path d="M 142.24534606933594 138.47804260253906 C 129.52536010742188 135.40225219726562 122.7403793334961 137.20510864257812 146.27407836914062 128.42327880859375" stroke-width="3.0" fill="none" stroke="rgb(0, 0, 0)" stroke-opacity="1.0" stroke-linecap="round" stroke-linejoin="round"/>
    <path d="M 122.26402282714844 181.91050720214844 C 151.74896240234375 110.68897247314453 164.02621459960938 116.3153305053711 140.3439178466797 127.66382598876953" stroke-width="3.0" fill="none" stroke="rgb(0, 0, 0)" stroke-opacity="1.0" stroke-linecap="round" stroke-linejoin="round"/>
    <path d="M 103.84429931640625 188.6979217529297 C 128.8970184326172 160.28024291992188 112.55070495605469 132.5668487548828 161.19093322753906 113.40966033935547" stroke-width="3.0" fill="none" stroke="rgb(0, 0, 0)" stroke-opacity="1.0" stroke-linecap="round" stroke-linejoin="round"/>
    <path d="M 152.57830810546875 121.15048217773438 C 135.02984619140625 164.68055725097656 121.56280517578125 199.09266662597656 137.6394805908203 159.95318603515625" stroke-width="3.0" fill="none" stroke="rgb(0, 0, 0)" stroke-opacity="1.0" stroke-linecap="round" stroke-linejoin="round"/>
    <path d="M 120.22592163085938 154.98269653320312 C 134.44996643066406 118.4575424194336 156.62811279296875 120.84758758544922 123.13885498046875 146.97618103027344" stroke-width="3.0" fill="none" stroke="rgb(0, 0, 0)" stroke-opacity="1.0" stroke-linecap="round" stroke-linejoin="round"/>
    <path d="M 176.8146209716797 100.17800903320312 C 167.45211791992188 107.23096466064453 154.62667846679688 85.7190933227539 130.68930053710938 82.71539306640625" stroke-width="3.0" fill="none" stroke="rgb(0, 0, 0)" stroke-opacity="1.0" stroke-linecap="round" stroke-linejoin="round"/>
    <path d="M 130.407470703125 138.910888671875 C 175.29627990722656 104.607421875 126.7172622680664 116.16386413574219 115.39837646484375 147.89108276367188" stroke-width="3.0" fill="none" stroke="rgb(0, 0, 0)" stroke-opacity="1.0" stroke-linecap="round" stroke-linejoin="round"/>
    <path d="M 128.48709106445312 86.96742248535156 C 67.05061340332031 75.59207916259766 106.91722106933594 71.26130676269531 172.27658081054688 109.57374572753906" stroke-width="3.0" fill="none" stroke="rgb(0, 0, 0)" stroke-opacity="1.0" stroke-linecap="round" stroke-linejoin="round"/>
    <path d="M 137.3729248046875 163.79159545898438 C 148.49441528320312 117.88987731933594 111.32791900634766 138.24913024902344 144.6204071044922 123.24098205566406" stroke-width="3.0" fill="none" stroke="rgb(0, 0, 0)" stroke-opacity="1.0" stroke-linecap="round" stroke-linejoin="round"/>
    <path d="M 56.80997848510742 56.787654876708984 C 86.41394805908203 82.27970886230469 100.6620864868164 73.88270568847656 140.79733276367188 84.85851287841797" stroke-width="3.0" fill="none" stroke="rgb(0, 0, 0)" stroke-opacity="1.0" stroke-linecap="round" stroke-linejoin="round"/>
    <path d="M 103.50232696533203 177.0380859375 C 120.84452056884766 164.24746704101562 119.34622192382812 151.44454956054688 142.00624084472656 126.83814239501953" stroke-width="3.0" fill="none" stroke="rgb(0, 0, 0)" stroke-opacity="1.0" stroke-linecap="round" stroke-linejoin="round"/>
    <path d="M 178.5449981689453 103.9150390625 C 129.52420043945312 106.11559295654297 114.8808364868164 109.24503326416016 176.20382690429688 106.88350677490234" stroke-width="3.0" fill="none" stroke="rgb(0, 0, 0)" stroke-opacity="1.0" stroke-linecap="round" stroke-linejoin="round"/>
    <path d="M 192.43955993652344 106.91951751708984 C 174.0180206298828 90.24999237060547 182.66847229003906 134.7048797607422 133.76158142089844 103.60704803466797" stroke-width="3.0" fill="none" stroke="rgb(0, 0, 0)" stroke-opacity="1.0" stroke-linecap="round" stroke-linejoin="round"/>
    <path d="M 108.97542572021484 82.1482925415039 C 160.96591186523438 75.03495025634766 136.1444091796875 98.18492889404297 185.7728729248047 97.84674835205078" stroke-width="3.0" fill="none" stroke="rgb(0, 0, 0)" stroke-opacity="1.0" stroke-linecap="round" stroke-linejoin="round"/>
    <path d="M 148.74227905273438 117.82086944580078 C 131.36334228515625 158.28379821777344 115.48619842529297 131.44778442382812 145.6295928955078 120.21560668945312" stroke-width="3.0" fill="none" stroke="rgb(0, 0, 0)" stroke-opacity="1.0" stroke-linecap="round" stroke-linejoin="round"/>
  </g>
</svg>
