<?xml version="1.0" ?>
<svg xmlns="http://www.w3.org/2000/svg" version="1.1" width="224" height="224">
  <defs/>
  <g>
    <path d="M 134.6359100341797 106.44143676757812 C 178.75157165527344 128.02328491210938 148.63897705078125 109.64366149902344 129.91934204101562 130.59359741210938" stroke-width="3.0" fill="none" stroke="rgb(0, 0, 0)" stroke-opacity="1.0" stroke-linecap="round" stroke-linejoin="round"/>
    <path d="M 136.4327392578125 134.40963745117188 C 157.12478637695312 114.58940887451172 134.3096466064453 120.36711120605469 125.12689971923828 148.55587768554688" stroke-width="3.0" fill="none" stroke="rgb(0, 0, 0)" stroke-opacity="1.0" stroke-linecap="round" stroke-linejoin="round"/>
    <path d="M 150.26109313964844 123.71700286865234 C 176.34829711914062 108.67375183105469 143.51095581054688 116.38584899902344 164.7440185546875 115.77937316894531" stroke-width="3.0" fill="none" stroke="rgb(0, 0, 0)" stroke-opacity="1.0" stroke-linecap="round" stroke-linejoin="round"/>
    <path d="M 165.53065490722656 113.86785125732422 C 138.10316467285156 109.22102355957031 118.00393676757812 99.17281341552734 158.2607879638672 112.17933654785156" stroke-width="3.0" fill="none" stroke="rgb(0, 0, 0)" stroke-opacity="1.0" stroke-linecap="round" stroke-linejoin="round"/>
    <path d="M 158.60072326660156 119.26759338378906 C 184.34165954589844 111.66259765625 171.95541381835938 83.07074737548828 188.98605346679688 108.7852783203125" stroke-width="3.0" fill="none" stroke="rgb(0, 0, 0)" stroke-opacity="1.0" stroke-linecap="round" stroke-linejoin="round"/>
    <path d="M 149.52476501464844 121.91944122314453 C 132.10205078125 160.86355590820312 115.93911743164062 149.7609100341797 139.62527465820312 127.74549865722656" stroke-width="3.0" fill="none" stroke="rgb(0, 0, 0)" stroke-opacity="1.0" stroke-linecap="round" stroke-linejoin="round"/>
    <path d="M 135.13165283203125 86.20268249511719 C 165.82139587402344 104.30449676513672 208.26576232910156 99.22787475585938 159.4757843017578 94.39273071289062" stroke-width="3.0" fill="none" stroke="rgb(0, 0, 0)" stroke-opacity="1.0" stroke-linecap="round" stroke-linejoin="round"/>
    <path d="M 122.3853988647461 174.5027313232422 C 145.170166015625 114.52703857421875 146.4967803955078 158.21096801757812 128.5306854248047 180.99781799316406" stroke-width="3.0" fill="none" stroke="rgb(0, 0, 0)" stroke-opacity="1.0" stroke-linecap="round" stroke-linejoin="round"/>
    <path d="M 128.89321899414062 141.82908630371094 C 98.9483871459961 192.72296142578125 102.31867218017578 174.64845275878906 120.31986999511719 145.02310180664062" stroke-width="3.0" fill="none" stroke="rgb(0, 0, 0)" stroke-opacity="1.0" stroke-linecap="round" stroke-linejoin="round"/>
    <path d="M 129.4171905517578 87.1307373046875 C 197.06932067871094 121.61676788330078 192.73451232910156 85.25666046142578 156.74948120117188 88.60396575927734" stroke-width="3.0" fill="none" stroke="rgb(0, 0, 0)" stroke-opacity="1.0" stroke-linecap="round" stroke-linejoin="round"/>
    <path d="M 135.29795837402344 139.5166015625 C 134.5314483642578 141.34852600097656 141.76773071289062 160.91941833496094 149.71998596191406 123.69385528564453" stroke-width="3.0" fill="none" stroke="rgb(0, 0, 0)" stroke-opacity="1.0" stroke-linecap="round" stroke-linejoin="round"/>
    <path d="M 146.737548828125 107.67930603027344 C 184.02197265625 112.38035583496094 158.36778259277344 125.09988403320312 136.46470642089844 100.4978256225586" stroke-width="3.0" fill="none" stroke="rgb(0, 0, 0)" stroke-opacity="1.0" stroke-linecap="round" stroke-linejoin="round"/>
    <path d="M 137.9967498779297 165.7258758544922 C 145.4984893798828 134.88461303710938 146.38121032714844 124.03485107421875 173.88478088378906 106.81405639648438" stroke-width="3.0" fill="none" stroke="rgb(0, 0, 0)" stroke-opacity="1.0" stroke-linecap="round" stroke-linejoin="round"/>
    <path d="M 137.2182159423828 142.05625915527344 C 123.26679229736328 179.15904235839844 126.68000793457031 176.07162475585938 117.06100463867188 186.14279174804688" stroke-width="3.0" fill="none" stroke="rgb(0, 0, 0)" stroke-opacity="1.0" stroke-linecap="round" stroke-linejoin="round"/>
    <path d="M 49.337162017822266 92.6075210571289 C 68.60804748535156 80.79305267333984 126.87824249267578 71.31165313720703 146.58824157714844 96.51704406738281" stroke-width="3.0" fill="none" stroke="rgb(0, 0, 0)" stroke-opacity="1.0" stroke-linecap="round" stroke-linejoin="round"/>
    <path d="M 31.466449737548828 84.89214324951172 C 51.02576446533203 82.44658660888672 77.66605377197266 76.00569152832031 105.96983337402344 79.51274871826172" stroke-width="3.0" fill="none" stroke="rgb(0, 0, 0)" stroke-opacity="1.0" stroke-linecap="round" stroke-linejoin="round"/>
    <path d="M 64.20537567138672 58.70329284667969 C 59.89201736450195 55.91862106323242 84.33091735839844 77.7537612915039 112.06254577636719 74.5395736694336" stroke-width="3.0" fill="none" stroke="rgb(0, 0, 0)" stroke-opacity="1.0" stroke-linecap="round" stroke-linejoin="round"/>
    <path d="M 124.01721954345703 140.75608825683594 C 116.99797821044922 156.5688934326172 106.86146545410156 151.05271911621094 134.49562072753906 140.5275421142578" stroke-width="3.0" fill="none" stroke="rgb(0, 0, 0)" stroke-opacity="1.0" stroke-linecap="round" stroke-linejoin="round"/>
    <path d="M 130.4208526611328 178.6404571533203 C 142.78733825683594 123.12684631347656 145.37005615234375 138.33839416503906 137.20846557617188 123.6943588256836" stroke-width="3.0" fill="none" stroke="rgb(0, 0, 0)" stroke-opacity="1.0" stroke-linecap="round" stroke-linejoin="round"/>
    <path d="M 99.74459838867188 186.88157653808594 C 127.7908935546875 144.61485290527344 123.23658752441406 143.87782287597656 138.37493896484375 136.0635223388672" stroke-width="3.0" fill="none" stroke="rgb(0, 0, 0)" stroke-opacity="1.0" stroke-linecap="round" stroke-linejoin="round"/>
    <path d="M 122.58697509765625 170.95263671875 C 118.7809829711914 184.0320281982422 109.61640167236328 194.45928955078125 127.80923461914062 168.67115783691406" stroke-width="3.0" fill="none" stroke="rgb(0, 0, 0)" stroke-opacity="1.0" stroke-linecap="round" stroke-linejoin="round"/>
    <path d="M 116.99059295654297 149.86422729492188 C 127.11422729492188 134.43283081054688 142.5029296875 118.78128814697266 120.12894439697266 142.88307189941406" stroke-width="3.0" fill="none" stroke="rgb(0, 0, 0)" stroke-opacity="1.0" stroke-linecap="round" stroke-linejoin="round"/>
    <path d="M 160.32508850097656 111.38534545898438 C 164.00608825683594 104.69547271728516 137.2080535888672 100.94463348388672 125.513671875 88.44515991210938" stroke-width="3.0" fill="none" stroke="rgb(0, 0, 0)" stroke-opacity="1.0" stroke-linecap="round" stroke-linejoin="round"/>
    <path d="M 130.2835235595703 146.31851196289062 C 155.1497802734375 117.61917114257812 127.49114990234375 119.50458526611328 114.73165893554688 151.83323669433594" stroke-width="3.0" fill="none" stroke="rgb(0, 0, 0)" stroke-opacity="1.0" stroke-linecap="round" stroke-linejoin="round"/>
    <path d="M 107.76924133300781 77.03048706054688 C 62.657928466796875 91.71668243408203 105.79830169677734 65.74581146240234 153.75352478027344 103.28841400146484" stroke-width="3.0" fill="none" stroke="rgb(0, 0, 0)" stroke-opacity="1.0" stroke-linecap="round" stroke-linejoin="round"/>
    <path d="M 140.16168212890625 149.64752197265625 C 148.947021484375 121.50931549072266 123.4261703491211 134.6395721435547 140.79995727539062 142.19290161132812" stroke-width="3.0" fill="none" stroke="rgb(0, 0, 0)" stroke-opacity="1.0" stroke-linecap="round" stroke-linejoin="round"/>
    <path d="M 42.66789245605469 62.78411102294922 C 48.47010040283203 69.47483825683594 103.9832992553711 75.32917785644531 110.84709930419922 79.86442565917969" stroke-width="3.0" fill="none" stroke="rgb(0, 0, 0)" stroke-opacity="1.0" stroke-linecap="round" stroke-linejoin="round"/>
    <path d="M 106.29471588134766 187.84619140625 C 126.25707244873047 169.137451171875 115.69560241699219 155.65570068359375 146.8103485107422 135.44593811035156" stroke-width="3.0" fill="none" stroke="rgb(0, 0, 0)" stroke-opacity="1.0" stroke-linecap="round" stroke-linejoin="round"/>
    <path d="M 181.5568389892578 100.63822174072266 C 141.2014923095703 103.51617431640625 125.19175720214844 110.89987182617188 170.7525634765625 106.83867645263672" stroke-width="3.0" fill="none" stroke="rgb(0, 0, 0)" stroke-opacity="1.0" stroke-linecap="round" stroke-linejoin="round"/>
    <path d="M 190.73666381835938 106.09695434570312 C 182.6307830810547 99.91091918945312 184.7457733154297 105.72624969482422 156.43048095703125 112.97752380371094" stroke-width="3.0" fill="none" stroke="rgb(0, 0, 0)" stroke-opacity="1.0" stroke-linecap="round" stroke-linejoin="round"/>
    <path d="M 114.3120346069336 82.25992584228516 C 162.40931701660156 79.03387451171875 137.10296630859375 103.2772216796875 181.0517578125 99.84866333007812" stroke-width="3.0" fill="none" stroke="rgb(0, 0, 0)" stroke-opacity="1.0" stroke-linecap="round" stroke-linejoin="round"/>
    <path d="M 144.76266479492188 124.70655059814453 C 104.95112609863281 154.63540649414062 117.61174011230469 151.91018676757812 146.38491821289062 132.85084533691406" stroke-width="3.0" fill="none" stroke="rgb(0, 0, 0)" stroke-opacity="1.0" stroke-linecap="round" stroke-linejoin="round"/>
  </g>
</svg>
