<?xml version="1.0" ?>
<svg xmlns="http://www.w3.org/2000/svg" version="1.1" width="224" height="224">
  <defs/>
  <g>
    <path d="M 139.055419921875 104.29117584228516 C 184.78070068359375 119.4722671508789 144.36819458007812 102.01427459716797 126.84750366210938 129.4708251953125" stroke-width="3.0" fill="none" stroke="rgb(0, 0, 0)" stroke-opacity="1.0" stroke-linecap="round" stroke-linejoin="round"/>
    <path d="M 136.0402069091797 127.36572265625 C 163.6307830810547 117.06361389160156 132.4151153564453 116.32926940917969 125.14559173583984 143.47779846191406" stroke-width="3.0" fill="none" stroke="rgb(0, 0, 0)" stroke-opacity="1.0" stroke-linecap="round" stroke-linejoin="round"/>
    <path d="M 142.33700561523438 118.43792724609375 C 186.3727264404297 116.53447723388672 136.6654510498047 116.60538482666016 165.3665771484375 108.50984954833984" stroke-width="3.0" fill="none" stroke="rgb(0, 0, 0)" stroke-opacity="1.0" stroke-linecap="round" stroke-linejoin="round"/>
    <path d="M 164.6221466064453 111.09544372558594 C 124.98461151123047 112.52067565917969 116.74188232421875 81.91094207763672 175.12400817871094 96.46525573730469" stroke-width="3.0" fill="none" stroke="rgb(0, 0, 0)" stroke-opacity="1.0" stroke-linecap="round" stroke-linejoin="round"/>
    <path d="M 156.98695373535156 114.50826263427734 C 178.149169921875 117.0013198852539 183.0521697998047 86.95624542236328 191.15025329589844 106.53234100341797" stroke-width="3.0" fill="none" stroke="rgb(0, 0, 0)" stroke-opacity="1.0" stroke-linecap="round" stroke-linejoin="round"/>
    <path d="M 148.9883575439453 119.4723892211914 C 137.8366241455078 161.7340087890625 128.73504638671875 151.11041259765625 139.96633911132812 124.25682067871094" stroke-width="3.0" fill="none" stroke="rgb(0, 0, 0)" stroke-opacity="1.0" stroke-linecap="round" stroke-linejoin="round"/>
    <path d="M 131.83511352539062 81.95870208740234 C 170.23062133789062 106.46052551269531 209.6810760498047 98.14453125 155.28480529785156 91.848388671875" stroke-width="3.0" fill="none" stroke="rgb(0, 0, 0)" stroke-opacity="1.0" stroke-linecap="round" stroke-linejoin="round"/>
    <path d="M 125.89228057861328 178.61312866210938 C 148.42367553710938 109.49763488769531 147.2411651611328 158.452392578125 128.96377563476562 183.3242645263672" stroke-width="3.0" fill="none" stroke="rgb(0, 0, 0)" stroke-opacity="1.0" stroke-linecap="round" stroke-linejoin="round"/>
    <path d="M 126.88433837890625 137.6705322265625 C 94.58142852783203 179.0789031982422 106.32618713378906 172.80584716796875 119.91917419433594 139.82447814941406" stroke-width="3.0" fill="none" stroke="rgb(0, 0, 0)" stroke-opacity="1.0" stroke-linecap="round" stroke-linejoin="round"/>
    <path d="M 122.59026336669922 87.61934661865234 C 193.302490234375 130.5874786376953 197.66244506835938 84.91946411132812 155.1013641357422 86.6873550415039" stroke-width="3.0" fill="none" stroke="rgb(0, 0, 0)" stroke-opacity="1.0" stroke-linecap="round" stroke-linejoin="round"/>
    <path d="M 143.2777557373047 140.16476440429688 C 138.79486083984375 144.48159790039062 137.82249450683594 162.30438232421875 147.4918975830078 126.52071380615234" stroke-width="3.0" fill="none" stroke="rgb(0, 0, 0)" stroke-opacity="1.0" stroke-linecap="round" stroke-linejoin="round"/>
    <path d="M 153.92408752441406 113.48882293701172 C 194.37583923339844 104.85981750488281 158.4803466796875 108.74967193603516 136.02967834472656 99.97480773925781" stroke-width="3.0" fill="none" stroke="rgb(0, 0, 0)" stroke-opacity="1.0" stroke-linecap="round" stroke-linejoin="round"/>
    <path d="M 135.53024291992188 163.4561309814453 C 148.0324249267578 134.5391082763672 144.6842498779297 117.48065948486328 175.23231506347656 100.8174819946289" stroke-width="3.0" fill="none" stroke="rgb(0, 0, 0)" stroke-opacity="1.0" stroke-linecap="round" stroke-linejoin="round"/>
    <path d="M 136.06214904785156 138.93910217285156 C 123.09521484375 177.10118103027344 122.2755126953125 174.2681427001953 119.18124389648438 185.46060180664062" stroke-width="3.0" fill="none" stroke="rgb(0, 0, 0)" stroke-opacity="1.0" stroke-linecap="round" stroke-linejoin="round"/>
    <path d="M 48.3181266784668 92.78449249267578 C 60.786617279052734 81.3271484375 122.5120849609375 74.10594177246094 154.19097900390625 98.3445053100586" stroke-width="3.0" fill="none" stroke="rgb(0, 0, 0)" stroke-opacity="1.0" stroke-linecap="round" stroke-linejoin="round"/>
    <path d="M 33.15143966674805 85.6396713256836 C 51.445884704589844 81.15584564208984 87.96439361572266 76.79195404052734 115.2188491821289 84.04582977294922" stroke-width="3.0" fill="none" stroke="rgb(0, 0, 0)" stroke-opacity="1.0" stroke-linecap="round" stroke-linejoin="round"/>
    <path d="M 64.4532470703125 62.96634292602539 C 59.13032150268555 58.72690200805664 87.10435485839844 79.87352752685547 109.27743530273438 73.60308074951172" stroke-width="3.0" fill="none" stroke="rgb(0, 0, 0)" stroke-opacity="1.0" stroke-linecap="round" stroke-linejoin="round"/>
    <path d="M 121.82897186279297 137.08885192871094 C 116.39991760253906 152.87025451660156 108.36320495605469 148.50613403320312 134.1939239501953 137.79989624023438" stroke-width="3.0" fill="none" stroke="rgb(0, 0, 0)" stroke-opacity="1.0" stroke-linecap="round" stroke-linejoin="round"/>
    <path d="M 130.568115234375 175.8971710205078 C 149.17637634277344 125.50169372558594 146.1011199951172 129.31591796875 144.9218292236328 118.9126968383789" stroke-width="3.0" fill="none" stroke="rgb(0, 0, 0)" stroke-opacity="1.0" stroke-linecap="round" stroke-linejoin="round"/>
    <path d="M 99.40766143798828 186.41766357421875 C 129.89666748046875 144.01487731933594 122.96586608886719 140.19577026367188 138.60513305664062 133.837158203125" stroke-width="3.0" fill="none" stroke="rgb(0, 0, 0)" stroke-opacity="1.0" stroke-linecap="round" stroke-linejoin="round"/>
    <path d="M 127.58016204833984 170.2422637939453 C 124.6220932006836 182.1475067138672 116.52731323242188 191.41009521484375 126.7615966796875 169.1910400390625" stroke-width="3.0" fill="none" stroke="rgb(0, 0, 0)" stroke-opacity="1.0" stroke-linecap="round" stroke-linejoin="round"/>
    <path d="M 119.67823791503906 137.61643981933594 C 134.0913543701172 140.6552734375 148.22259521484375 115.72906494140625 119.54513549804688 139.2445068359375" stroke-width="3.0" fill="none" stroke="rgb(0, 0, 0)" stroke-opacity="1.0" stroke-linecap="round" stroke-linejoin="round"/>
    <path d="M 170.79820251464844 109.4879150390625 C 163.21084594726562 108.97053527832031 140.3222198486328 103.65093231201172 122.24932098388672 87.84590148925781" stroke-width="3.0" fill="none" stroke="rgb(0, 0, 0)" stroke-opacity="1.0" stroke-linecap="round" stroke-linejoin="round"/>
    <path d="M 131.7237091064453 152.95193481445312 C 157.05601501464844 108.96685028076172 125.4037094116211 111.70252227783203 111.58457946777344 158.5963592529297" stroke-width="3.0" fill="none" stroke="rgb(0, 0, 0)" stroke-opacity="1.0" stroke-linecap="round" stroke-linejoin="round"/>
    <path d="M 102.30543518066406 75.92100524902344 C 54.444610595703125 85.0033187866211 100.43537902832031 68.2156753540039 159.79530334472656 104.25448608398438" stroke-width="3.0" fill="none" stroke="rgb(0, 0, 0)" stroke-opacity="1.0" stroke-linecap="round" stroke-linejoin="round"/>
    <path d="M 136.99246215820312 146.64541625976562 C 155.21395874023438 125.80986785888672 124.61195373535156 142.20130920410156 143.48928833007812 136.78981018066406" stroke-width="3.0" fill="none" stroke="rgb(0, 0, 0)" stroke-opacity="1.0" stroke-linecap="round" stroke-linejoin="round"/>
    <path d="M 42.37013626098633 63.463687896728516 C 48.73008728027344 73.59341430664062 103.86949920654297 77.44828033447266 114.30596160888672 79.2649154663086" stroke-width="3.0" fill="none" stroke="rgb(0, 0, 0)" stroke-opacity="1.0" stroke-linecap="round" stroke-linejoin="round"/>
    <path d="M 106.31436157226562 186.7296905517578 C 122.88328552246094 170.02052307128906 118.96977233886719 152.19639587402344 143.40185546875 128.98721313476562" stroke-width="3.0" fill="none" stroke="rgb(0, 0, 0)" stroke-opacity="1.0" stroke-linecap="round" stroke-linejoin="round"/>
    <path d="M 186.7947235107422 98.45833587646484 C 140.00637817382812 89.96964263916016 122.92996978759766 90.46808624267578 171.86924743652344 91.36811065673828" stroke-width="3.0" fill="none" stroke="rgb(0, 0, 0)" stroke-opacity="1.0" stroke-linecap="round" stroke-linejoin="round"/>
    <path d="M 189.601806640625 109.72621154785156 C 184.157470703125 99.71419525146484 173.78797912597656 108.74017333984375 145.86488342285156 98.94416046142578" stroke-width="3.0" fill="none" stroke="rgb(0, 0, 0)" stroke-opacity="1.0" stroke-linecap="round" stroke-linejoin="round"/>
    <path d="M 113.60399627685547 78.84020233154297 C 159.5354766845703 78.63469696044922 135.45973205566406 93.43072509765625 176.41616821289062 92.1060562133789" stroke-width="3.0" fill="none" stroke="rgb(0, 0, 0)" stroke-opacity="1.0" stroke-linecap="round" stroke-linejoin="round"/>
    <path d="M 153.53614807128906 120.42050170898438 C 109.21546173095703 153.7909698486328 118.2957992553711 142.91441345214844 135.98370361328125 121.26124572753906" stroke-width="3.0" fill="none" stroke="rgb(0, 0, 0)" stroke-opacity="1.0" stroke-linecap="round" stroke-linejoin="round"/>
  </g>
</svg>
