<?xml version="1.0" ?>
<svg xmlns="http://www.w3.org/2000/svg" version="1.1" width="224" height="224">
  <defs/>
  <g>
    <path d="M 132.12777709960938 91.90504455566406 C 171.4208984375 120.25363159179688 155.86849975585938 102.23218536376953 140.9237823486328 146.14324951171875" stroke-width="3.0" fill="none" stroke="rgb(0, 0, 0)" stroke-opacity="1.0" stroke-linecap="round" stroke-linejoin="round"/>
    <path d="M 130.26002502441406 132.92593383789062 C 165.69247436523438 115.78510284423828 132.07708740234375 115.68408966064453 121.06842041015625 142.8296356201172" stroke-width="3.0" fill="none" stroke="rgb(0, 0, 0)" stroke-opacity="1.0" stroke-linecap="round" stroke-linejoin="round"/>
    <path d="M 142.9032745361328 119.05986785888672 C 200.33877563476562 106.28641510009766 102.6363754272461 112.62208557128906 159.6067352294922 101.1727066040039" stroke-width="3.0" fill="none" stroke="rgb(0, 0, 0)" stroke-opacity="1.0" stroke-linecap="round" stroke-linejoin="round"/>
    <path d="M 172.98919677734375 108.47509765625 C 137.62184143066406 111.0017318725586 128.88006591796875 90.62606048583984 174.81976318359375 105.28982543945312" stroke-width="3.0" fill="none" stroke="rgb(0, 0, 0)" stroke-opacity="1.0" stroke-linecap="round" stroke-linejoin="round"/>
    <path d="M 149.88763427734375 104.14260864257812 C 168.69085693359375 112.3427734375 180.44944763183594 83.71097564697266 191.62591552734375 106.40636444091797" stroke-width="3.0" fill="none" stroke="rgb(0, 0, 0)" stroke-opacity="1.0" stroke-linecap="round" stroke-linejoin="round"/>
    <path d="M 143.01890563964844 118.72235870361328 C 127.69873809814453 161.4074249267578 136.24044799804688 157.6690216064453 151.6102752685547 120.82300567626953" stroke-width="3.0" fill="none" stroke="rgb(0, 0, 0)" stroke-opacity="1.0" stroke-linecap="round" stroke-linejoin="round"/>
    <path d="M 119.04151153564453 86.98998260498047 C 170.83969116210938 102.5154037475586 207.48873901367188 98.3294448852539 157.5007781982422 86.97344207763672" stroke-width="3.0" fill="none" stroke="rgb(0, 0, 0)" stroke-opacity="1.0" stroke-linecap="round" stroke-linejoin="round"/>
    <path d="M 118.7616958618164 185.9070281982422 C 150.91827392578125 87.1649169921875 139.78378295898438 143.5127716064453 126.58575439453125 182.1885986328125" stroke-width="3.0" fill="none" stroke="rgb(0, 0, 0)" stroke-opacity="1.0" stroke-linecap="round" stroke-linejoin="round"/>
    <path d="M 129.2078094482422 130.3240203857422 C 110.75638580322266 156.76974487304688 117.00979614257812 154.32928466796875 123.11885070800781 137.64190673828125" stroke-width="3.0" fill="none" stroke="rgb(0, 0, 0)" stroke-opacity="1.0" stroke-linecap="round" stroke-linejoin="round"/>
    <path d="M 129.60264587402344 85.52374267578125 C 187.19374084472656 138.99794006347656 198.7254638671875 80.90386199951172 153.49417114257812 86.06668090820312" stroke-width="3.0" fill="none" stroke="rgb(0, 0, 0)" stroke-opacity="1.0" stroke-linecap="round" stroke-linejoin="round"/>
    <path d="M 145.98304748535156 127.82600402832031 C 138.80113220214844 183.7461395263672 132.3484649658203 190.77882385253906 146.14337158203125 128.50131225585938" stroke-width="3.0" fill="none" stroke="rgb(0, 0, 0)" stroke-opacity="1.0" stroke-linecap="round" stroke-linejoin="round"/>
    <path d="M 140.13856506347656 123.36981964111328 C 209.52993774414062 92.12518310546875 157.8984832763672 104.65431213378906 127.7497787475586 83.09635162353516" stroke-width="3.0" fill="none" stroke="rgb(0, 0, 0)" stroke-opacity="1.0" stroke-linecap="round" stroke-linejoin="round"/>
    <path d="M 127.69084167480469 163.84457397460938 C 146.59901428222656 126.94722747802734 143.21490478515625 121.63358306884766 179.98355102539062 98.03530883789062" stroke-width="3.0" fill="none" stroke="rgb(0, 0, 0)" stroke-opacity="1.0" stroke-linecap="round" stroke-linejoin="round"/>
    <path d="M 137.20703125 131.3055877685547 C 118.60945892333984 168.3146209716797 119.15531921386719 176.9320526123047 107.16141510009766 188.55613708496094" stroke-width="3.0" fill="none" stroke="rgb(0, 0, 0)" stroke-opacity="1.0" stroke-linecap="round" stroke-linejoin="round"/>
    <path d="M 48.96839141845703 93.7624740600586 C 70.4080810546875 81.20751953125 122.63768005371094 70.7136459350586 147.15753173828125 106.97016143798828" stroke-width="3.0" fill="none" stroke="rgb(0, 0, 0)" stroke-opacity="1.0" stroke-linecap="round" stroke-linejoin="round"/>
    <path d="M 34.55122375488281 84.04827117919922 C 59.419864654541016 76.679443359375 110.87862396240234 69.3327407836914 133.1648712158203 96.50117492675781" stroke-width="3.0" fill="none" stroke="rgb(0, 0, 0)" stroke-opacity="1.0" stroke-linecap="round" stroke-linejoin="round"/>
    <path d="M 101.23563385009766 81.70587921142578 C 71.2195816040039 73.66844177246094 101.96168518066406 77.43143463134766 111.25391387939453 74.59574127197266" stroke-width="3.0" fill="none" stroke="rgb(0, 0, 0)" stroke-opacity="1.0" stroke-linecap="round" stroke-linejoin="round"/>
    <path d="M 135.69448852539062 141.40090942382812 C 119.64269256591797 143.1644744873047 110.40680694580078 135.6172637939453 143.86712646484375 135.45303344726562" stroke-width="3.0" fill="none" stroke="rgb(0, 0, 0)" stroke-opacity="1.0" stroke-linecap="round" stroke-linejoin="round"/>
    <path d="M 129.77732849121094 178.99864196777344 C 155.58604431152344 114.13760375976562 158.8202667236328 109.6998519897461 138.75929260253906 122.75909423828125" stroke-width="3.0" fill="none" stroke="rgb(0, 0, 0)" stroke-opacity="1.0" stroke-linecap="round" stroke-linejoin="round"/>
    <path d="M 101.16480255126953 186.45797729492188 C 127.5141830444336 142.9259796142578 112.64749908447266 133.7450408935547 144.40206909179688 130.1281280517578" stroke-width="3.0" fill="none" stroke="rgb(0, 0, 0)" stroke-opacity="1.0" stroke-linecap="round" stroke-linejoin="round"/>
    <path d="M 143.2981719970703 127.71490478515625 C 141.02317810058594 168.2497100830078 123.37342834472656 178.5769500732422 137.2191925048828 155.7543182373047" stroke-width="3.0" fill="none" stroke="rgb(0, 0, 0)" stroke-opacity="1.0" stroke-linecap="round" stroke-linejoin="round"/>
    <path d="M 119.60015106201172 147.3512420654297 C 136.90283203125 132.848388671875 140.08349609375 109.47400665283203 117.6100845336914 147.6773681640625" stroke-width="3.0" fill="none" stroke="rgb(0, 0, 0)" stroke-opacity="1.0" stroke-linecap="round" stroke-linejoin="round"/>
    <path d="M 185.27333068847656 98.92926025390625 C 168.58438110351562 106.3410415649414 146.32005310058594 98.95413970947266 117.14573669433594 79.78433990478516" stroke-width="3.0" fill="none" stroke="rgb(0, 0, 0)" stroke-opacity="1.0" stroke-linecap="round" stroke-linejoin="round"/>
    <path d="M 134.71917724609375 142.40550231933594 C 182.28187561035156 100.22716522216797 125.55994415283203 114.07261657714844 118.04811096191406 146.84091186523438" stroke-width="3.0" fill="none" stroke="rgb(0, 0, 0)" stroke-opacity="1.0" stroke-linecap="round" stroke-linejoin="round"/>
    <path d="M 105.32196044921875 79.45301818847656 C 68.60501861572266 87.8973159790039 116.62113189697266 70.2606201171875 171.04217529296875 99.4157485961914" stroke-width="3.0" fill="none" stroke="rgb(0, 0, 0)" stroke-opacity="1.0" stroke-linecap="round" stroke-linejoin="round"/>
    <path d="M 125.82146453857422 133.71827697753906 C 155.37864685058594 104.8626708984375 124.57390594482422 138.97027587890625 141.269287109375 125.47438049316406" stroke-width="3.0" fill="none" stroke="rgb(0, 0, 0)" stroke-opacity="1.0" stroke-linecap="round" stroke-linejoin="round"/>
    <path d="M 54.97297668457031 55.46504592895508 C 79.20713806152344 77.79045867919922 109.11540222167969 76.54420471191406 123.0410385131836 83.88133239746094" stroke-width="3.0" fill="none" stroke="rgb(0, 0, 0)" stroke-opacity="1.0" stroke-linecap="round" stroke-linejoin="round"/>
    <path d="M 102.717041015625 175.46865844726562 C 114.47850799560547 168.35238647460938 116.02989196777344 152.03555297851562 145.77932739257812 128.009521484375" stroke-width="3.0" fill="none" stroke="rgb(0, 0, 0)" stroke-opacity="1.0" stroke-linecap="round" stroke-linejoin="round"/>
    <path d="M 186.65139770507812 102.48857116699219 C 126.11273956298828 108.08631134033203 111.74452209472656 98.63557434082031 177.68235778808594 98.98704528808594" stroke-width="3.0" fill="none" stroke="rgb(0, 0, 0)" stroke-opacity="1.0" stroke-linecap="round" stroke-linejoin="round"/>
    <path d="M 191.98818969726562 107.50271606445312 C 174.01795959472656 88.5829086303711 178.59890747070312 132.05886840820312 135.1988067626953 104.19683837890625" stroke-width="3.0" fill="none" stroke="rgb(0, 0, 0)" stroke-opacity="1.0" stroke-linecap="round" stroke-linejoin="round"/>
    <path d="M 109.46473693847656 81.85906982421875 C 152.8005828857422 76.55157470703125 141.195556640625 98.52326965332031 178.05133056640625 98.9845199584961" stroke-width="3.0" fill="none" stroke="rgb(0, 0, 0)" stroke-opacity="1.0" stroke-linecap="round" stroke-linejoin="round"/>
    <path d="M 148.12521362304688 118.56455993652344 C 131.05233764648438 162.0464630126953 121.12853240966797 139.26869201660156 148.30227661132812 118.11471557617188" stroke-width="3.0" fill="none" stroke="rgb(0, 0, 0)" stroke-opacity="1.0" stroke-linecap="round" stroke-linejoin="round"/>
  </g>
</svg>
