<?xml version="1.0" ?>
<svg xmlns="http://www.w3.org/2000/svg" version="1.1" width="224" height="224">
  <defs/>
  <g>
    <path d="M 130.47088623046875 90.19345092773438 C 176.7466583251953 119.9312515258789 157.69395446777344 102.18916320800781 140.52316284179688 145.74819946289062" stroke-width="3.0" fill="none" stroke="rgb(0, 0, 0)" stroke-opacity="1.0" stroke-linecap="round" stroke-linejoin="round"/>
    <path d="M 129.3588409423828 137.48658752441406 C 167.765625 114.20153045654297 135.90744018554688 118.568115234375 120.0737533569336 146.76083374023438" stroke-width="3.0" fill="none" stroke="rgb(0, 0, 0)" stroke-opacity="1.0" stroke-linecap="round" stroke-linejoin="round"/>
    <path d="M 147.10589599609375 119.48096466064453 C 210.29612731933594 104.45741271972656 108.32811737060547 111.6893539428711 162.99078369140625 98.50765228271484" stroke-width="3.0" fill="none" stroke="rgb(0, 0, 0)" stroke-opacity="1.0" stroke-linecap="round" stroke-linejoin="round"/>
    <path d="M 172.57986450195312 88.50457763671875 C 131.3397216796875 103.32726287841797 126.90467834472656 92.3391342163086 175.793701171875 105.0554428100586" stroke-width="3.0" fill="none" stroke="rgb(0, 0, 0)" stroke-opacity="1.0" stroke-linecap="round" stroke-linejoin="round"/>
    <path d="M 149.4253692626953 103.47367858886719 C 168.6953582763672 116.43115997314453 191.54443359375 88.70726013183594 190.43260192871094 106.70521545410156" stroke-width="3.0" fill="none" stroke="rgb(0, 0, 0)" stroke-opacity="1.0" stroke-linecap="round" stroke-linejoin="round"/>
    <path d="M 144.23094177246094 121.37818145751953 C 127.85684204101562 155.84437561035156 137.2125244140625 152.26048278808594 151.5436553955078 119.87614440917969" stroke-width="3.0" fill="none" stroke="rgb(0, 0, 0)" stroke-opacity="1.0" stroke-linecap="round" stroke-linejoin="round"/>
    <path d="M 121.52993774414062 86.15428161621094 C 169.02410888671875 110.33776092529297 211.9269561767578 99.65653228759766 155.7352294921875 87.27046203613281" stroke-width="3.0" fill="none" stroke="rgb(0, 0, 0)" stroke-opacity="1.0" stroke-linecap="round" stroke-linejoin="round"/>
    <path d="M 118.12059783935547 185.3831024169922 C 156.07859802246094 88.87728118896484 149.66827392578125 152.99513244628906 129.2750244140625 183.56459045410156" stroke-width="3.0" fill="none" stroke="rgb(0, 0, 0)" stroke-opacity="1.0" stroke-linecap="round" stroke-linejoin="round"/>
    <path d="M 129.2388916015625 129.02374267578125 C 112.63013458251953 156.83819580078125 116.10147857666016 151.87120056152344 122.7453384399414 137.5424346923828" stroke-width="3.0" fill="none" stroke="rgb(0, 0, 0)" stroke-opacity="1.0" stroke-linecap="round" stroke-linejoin="round"/>
    <path d="M 124.2536392211914 90.13955688476562 C 179.8372344970703 142.3849334716797 205.91998291015625 81.21577453613281 152.04336547851562 86.63874053955078" stroke-width="3.0" fill="none" stroke="rgb(0, 0, 0)" stroke-opacity="1.0" stroke-linecap="round" stroke-linejoin="round"/>
    <path d="M 143.3699188232422 120.46471405029297 C 132.38832092285156 174.03759765625 126.48835754394531 180.85182189941406 148.50543212890625 127.97069549560547" stroke-width="3.0" fill="none" stroke="rgb(0, 0, 0)" stroke-opacity="1.0" stroke-linecap="round" stroke-linejoin="round"/>
    <path d="M 137.41915893554688 121.80860137939453 C 213.16317749023438 97.79914855957031 161.20977783203125 101.77227783203125 125.38746643066406 82.53659057617188" stroke-width="3.0" fill="none" stroke="rgb(0, 0, 0)" stroke-opacity="1.0" stroke-linecap="round" stroke-linejoin="round"/>
    <path d="M 124.80474853515625 182.19448852539062 C 141.78012084960938 122.65911865234375 143.3369140625 122.91761779785156 185.080322265625 99.2019271850586" stroke-width="3.0" fill="none" stroke="rgb(0, 0, 0)" stroke-opacity="1.0" stroke-linecap="round" stroke-linejoin="round"/>
    <path d="M 139.744873046875 133.3800811767578 C 116.14167022705078 163.6595001220703 119.0719985961914 175.5854949951172 106.44498443603516 188.4921112060547" stroke-width="3.0" fill="none" stroke="rgb(0, 0, 0)" stroke-opacity="1.0" stroke-linecap="round" stroke-linejoin="round"/>
    <path d="M 47.4307746887207 93.66156768798828 C 74.45525360107422 80.42098236083984 117.27465057373047 69.89909362792969 145.87339782714844 110.35888671875" stroke-width="3.0" fill="none" stroke="rgb(0, 0, 0)" stroke-opacity="1.0" stroke-linecap="round" stroke-linejoin="round"/>
    <path d="M 33.57130432128906 83.53346252441406 C 61.95744705200195 78.26575469970703 115.03760528564453 71.92557525634766 143.88111877441406 95.09469604492188" stroke-width="3.0" fill="none" stroke="rgb(0, 0, 0)" stroke-opacity="1.0" stroke-linecap="round" stroke-linejoin="round"/>
    <path d="M 102.30622100830078 80.91841125488281 C 74.21846771240234 70.50553131103516 99.8056869506836 80.49571228027344 112.2433090209961 73.82270812988281" stroke-width="3.0" fill="none" stroke="rgb(0, 0, 0)" stroke-opacity="1.0" stroke-linecap="round" stroke-linejoin="round"/>
    <path d="M 138.3358154296875 138.99009704589844 C 128.27113342285156 137.0894775390625 116.46297454833984 128.2806854248047 144.33168029785156 131.4420166015625" stroke-width="3.0" fill="none" stroke="rgb(0, 0, 0)" stroke-opacity="1.0" stroke-linecap="round" stroke-linejoin="round"/>
    <path d="M 130.83763122558594 180.1341552734375 C 155.23727416992188 113.157958984375 163.43959045410156 111.14945220947266 140.1533966064453 126.20759582519531" stroke-width="3.0" fill="none" stroke="rgb(0, 0, 0)" stroke-opacity="1.0" stroke-linecap="round" stroke-linejoin="round"/>
    <path d="M 99.80787658691406 185.6127166748047 C 125.0802001953125 148.30966186523438 112.90371704101562 131.26295471191406 151.3035125732422 117.66481018066406" stroke-width="3.0" fill="none" stroke="rgb(0, 0, 0)" stroke-opacity="1.0" stroke-linecap="round" stroke-linejoin="round"/>
    <path d="M 140.6547088623047 126.14875030517578 C 139.19676208496094 167.2503204345703 128.49928283691406 185.55227661132812 139.51551818847656 157.9121856689453" stroke-width="3.0" fill="none" stroke="rgb(0, 0, 0)" stroke-opacity="1.0" stroke-linecap="round" stroke-linejoin="round"/>
    <path d="M 119.46014404296875 145.9171142578125 C 141.0284881591797 132.18284606933594 141.09136962890625 103.50225830078125 120.33039855957031 148.1422119140625" stroke-width="3.0" fill="none" stroke="rgb(0, 0, 0)" stroke-opacity="1.0" stroke-linecap="round" stroke-linejoin="round"/>
    <path d="M 188.0629425048828 101.6845474243164 C 170.86273193359375 101.58372497558594 148.10887145996094 96.45848083496094 116.77960205078125 83.08206939697266" stroke-width="3.0" fill="none" stroke="rgb(0, 0, 0)" stroke-opacity="1.0" stroke-linecap="round" stroke-linejoin="round"/>
    <path d="M 134.46142578125 140.1154022216797 C 185.13255310058594 101.46891021728516 130.1753692626953 118.51210021972656 118.59883880615234 146.9340362548828" stroke-width="3.0" fill="none" stroke="rgb(0, 0, 0)" stroke-opacity="1.0" stroke-linecap="round" stroke-linejoin="round"/>
    <path d="M 105.80665588378906 80.8172378540039 C 71.218505859375 84.54481506347656 116.7597427368164 67.9659652709961 168.85374450683594 100.34661865234375" stroke-width="3.0" fill="none" stroke="rgb(0, 0, 0)" stroke-opacity="1.0" stroke-linecap="round" stroke-linejoin="round"/>
    <path d="M 135.7489013671875 145.6327362060547 C 161.3605194091797 111.68435668945312 126.20793151855469 141.15982055664062 141.49652099609375 125.78277587890625" stroke-width="3.0" fill="none" stroke="rgb(0, 0, 0)" stroke-opacity="1.0" stroke-linecap="round" stroke-linejoin="round"/>
    <path d="M 57.938087463378906 55.34196472167969 C 82.86947631835938 79.11210632324219 109.36713409423828 74.34005737304688 121.21810150146484 84.61308288574219" stroke-width="3.0" fill="none" stroke="rgb(0, 0, 0)" stroke-opacity="1.0" stroke-linecap="round" stroke-linejoin="round"/>
    <path d="M 102.01468658447266 177.00015258789062 C 116.57322692871094 164.72154235839844 120.60279846191406 154.3781280517578 141.9505157470703 120.53075408935547" stroke-width="3.0" fill="none" stroke="rgb(0, 0, 0)" stroke-opacity="1.0" stroke-linecap="round" stroke-linejoin="round"/>
    <path d="M 184.15414428710938 97.78606414794922 C 128.49472045898438 107.0103988647461 113.71882629394531 94.7305908203125 177.44302368164062 92.98770141601562" stroke-width="3.0" fill="none" stroke="rgb(0, 0, 0)" stroke-opacity="1.0" stroke-linecap="round" stroke-linejoin="round"/>
    <path d="M 191.41746520996094 109.30152893066406 C 176.32962036132812 92.35414123535156 176.5325927734375 128.91708374023438 137.73709106445312 107.1124267578125" stroke-width="3.0" fill="none" stroke="rgb(0, 0, 0)" stroke-opacity="1.0" stroke-linecap="round" stroke-linejoin="round"/>
    <path d="M 111.1537857055664 80.85377502441406 C 153.76870727539062 78.22189331054688 138.8375244140625 101.19190216064453 176.29022216796875 94.09117126464844" stroke-width="3.0" fill="none" stroke="rgb(0, 0, 0)" stroke-opacity="1.0" stroke-linecap="round" stroke-linejoin="round"/>
    <path d="M 154.138916015625 120.23246765136719 C 129.02191162109375 167.8488311767578 119.00103759765625 143.0858917236328 151.308349609375 121.53082275390625" stroke-width="3.0" fill="none" stroke="rgb(0, 0, 0)" stroke-opacity="1.0" stroke-linecap="round" stroke-linejoin="round"/>
  </g>
</svg>
