<?xml version="1.0" ?>
<svg xmlns="http://www.w3.org/2000/svg" version="1.1" width="224" height="224">
  <defs/>
  <g>
    <path d="M 137.56845092773438 107.84881591796875 C 182.171142578125 128.31393432617188 150.1399688720703 109.07444763183594 129.4307403564453 130.572509765625" stroke-width="3.0" fill="none" stroke="rgb(0, 0, 0)" stroke-opacity="1.0" stroke-linecap="round" stroke-linejoin="round"/>
    <path d="M 136.682373046875 132.85023498535156 C 160.5537567138672 118.21529388427734 135.8446044921875 122.35953521728516 128.13897705078125 148.30477905273438" stroke-width="3.0" fill="none" stroke="rgb(0, 0, 0)" stroke-opacity="1.0" stroke-linecap="round" stroke-linejoin="round"/>
    <path d="M 145.0579071044922 124.35861206054688 C 177.33326721191406 109.85895538330078 142.73464965820312 117.00139617919922 164.62460327148438 113.20970153808594" stroke-width="3.0" fill="none" stroke="rgb(0, 0, 0)" stroke-opacity="1.0" stroke-linecap="round" stroke-linejoin="round"/>
    <path d="M 164.7228240966797 116.069580078125 C 135.85516357421875 108.1153793334961 113.21756744384766 96.82725524902344 156.8535919189453 112.78009796142578" stroke-width="3.0" fill="none" stroke="rgb(0, 0, 0)" stroke-opacity="1.0" stroke-linecap="round" stroke-linejoin="round"/>
    <path d="M 156.7735595703125 119.88445281982422 C 181.2238006591797 112.23832702636719 171.94349670410156 83.32328033447266 189.39268493652344 105.34461975097656" stroke-width="3.0" fill="none" stroke="rgb(0, 0, 0)" stroke-opacity="1.0" stroke-linecap="round" stroke-linejoin="round"/>
    <path d="M 148.3690948486328 122.43695831298828 C 134.07456970214844 160.37100219726562 122.21859741210938 151.14572143554688 140.36880493164062 126.82441711425781" stroke-width="3.0" fill="none" stroke="rgb(0, 0, 0)" stroke-opacity="1.0" stroke-linecap="round" stroke-linejoin="round"/>
    <path d="M 135.46041870117188 87.21141815185547 C 165.1001434326172 106.15251159667969 206.0363311767578 96.21467590332031 158.2506103515625 86.66291809082031" stroke-width="3.0" fill="none" stroke="rgb(0, 0, 0)" stroke-opacity="1.0" stroke-linecap="round" stroke-linejoin="round"/>
    <path d="M 121.72122955322266 174.2528076171875 C 146.42135620117188 115.54544067382812 144.5236358642578 157.9085235595703 129.29141235351562 182.0674285888672" stroke-width="3.0" fill="none" stroke="rgb(0, 0, 0)" stroke-opacity="1.0" stroke-linecap="round" stroke-linejoin="round"/>
    <path d="M 127.48457336425781 140.89480590820312 C 95.21656799316406 195.3265380859375 97.84954071044922 176.18272399902344 120.87825775146484 145.94737243652344" stroke-width="3.0" fill="none" stroke="rgb(0, 0, 0)" stroke-opacity="1.0" stroke-linecap="round" stroke-linejoin="round"/>
    <path d="M 126.9717025756836 90.4524917602539 C 196.00787353515625 128.465087890625 198.82379150390625 85.72879791259766 154.40736389160156 88.3142318725586" stroke-width="3.0" fill="none" stroke="rgb(0, 0, 0)" stroke-opacity="1.0" stroke-linecap="round" stroke-linejoin="round"/>
    <path d="M 135.27818298339844 139.86769104003906 C 134.03456115722656 143.6800994873047 138.25503540039062 161.17611694335938 150.1571044921875 122.42159271240234" stroke-width="3.0" fill="none" stroke="rgb(0, 0, 0)" stroke-opacity="1.0" stroke-linecap="round" stroke-linejoin="round"/>
    <path d="M 150.4347381591797 105.70756530761719 C 188.179443359375 107.26731872558594 159.51126098632812 120.93400573730469 136.41004943847656 98.96015167236328" stroke-width="3.0" fill="none" stroke="rgb(0, 0, 0)" stroke-opacity="1.0" stroke-linecap="round" stroke-linejoin="round"/>
    <path d="M 138.87826538085938 163.93678283691406 C 148.33348083496094 134.0049285888672 144.81434631347656 118.97940063476562 175.8412628173828 107.2795639038086" stroke-width="3.0" fill="none" stroke="rgb(0, 0, 0)" stroke-opacity="1.0" stroke-linecap="round" stroke-linejoin="round"/>
    <path d="M 135.86741638183594 140.7606201171875 C 122.63398742675781 178.11585998535156 126.5925521850586 175.4967498779297 117.0772933959961 184.48573303222656" stroke-width="3.0" fill="none" stroke="rgb(0, 0, 0)" stroke-opacity="1.0" stroke-linecap="round" stroke-linejoin="round"/>
    <path d="M 48.84905242919922 93.45967864990234 C 62.88618469238281 82.3272476196289 131.04225158691406 73.60030364990234 156.85012817382812 95.33853149414062" stroke-width="3.0" fill="none" stroke="rgb(0, 0, 0)" stroke-opacity="1.0" stroke-linecap="round" stroke-linejoin="round"/>
    <path d="M 31.777000427246094 84.32569122314453 C 49.29602813720703 80.29716491699219 83.61876678466797 80.77849578857422 109.01304626464844 77.45757293701172" stroke-width="3.0" fill="none" stroke="rgb(0, 0, 0)" stroke-opacity="1.0" stroke-linecap="round" stroke-linejoin="round"/>
    <path d="M 63.65984344482422 59.61316680908203 C 60.066043853759766 58.081329345703125 81.74544525146484 77.82225036621094 111.06411743164062 75.63020324707031" stroke-width="3.0" fill="none" stroke="rgb(0, 0, 0)" stroke-opacity="1.0" stroke-linecap="round" stroke-linejoin="round"/>
    <path d="M 123.74209594726562 140.3369903564453 C 117.39730834960938 156.19778442382812 107.0026626586914 149.14649963378906 133.36941528320312 137.55453491210938" stroke-width="3.0" fill="none" stroke="rgb(0, 0, 0)" stroke-opacity="1.0" stroke-linecap="round" stroke-linejoin="round"/>
    <path d="M 131.02903747558594 179.38262939453125 C 143.33811950683594 121.91392517089844 149.2041473388672 134.38845825195312 143.4884490966797 124.4244613647461" stroke-width="3.0" fill="none" stroke="rgb(0, 0, 0)" stroke-opacity="1.0" stroke-linecap="round" stroke-linejoin="round"/>
    <path d="M 99.03021240234375 185.36862182617188 C 130.12603759765625 146.3712158203125 124.25202941894531 144.0843048095703 139.70310974121094 138.5785675048828" stroke-width="3.0" fill="none" stroke="rgb(0, 0, 0)" stroke-opacity="1.0" stroke-linecap="round" stroke-linejoin="round"/>
    <path d="M 121.59980010986328 173.7565460205078 C 116.62669372558594 183.91017150878906 111.12860870361328 196.8766632080078 126.7806396484375 168.70458984375" stroke-width="3.0" fill="none" stroke="rgb(0, 0, 0)" stroke-opacity="1.0" stroke-linecap="round" stroke-linejoin="round"/>
    <path d="M 116.73836517333984 149.271240234375 C 127.9696273803711 136.02500915527344 144.2006072998047 119.62593078613281 120.7579574584961 143.5640869140625" stroke-width="3.0" fill="none" stroke="rgb(0, 0, 0)" stroke-opacity="1.0" stroke-linecap="round" stroke-linejoin="round"/>
    <path d="M 164.53115844726562 114.02042388916016 C 162.25079345703125 109.1573715209961 136.82461547851562 103.50203704833984 123.87876892089844 87.2880859375" stroke-width="3.0" fill="none" stroke="rgb(0, 0, 0)" stroke-opacity="1.0" stroke-linecap="round" stroke-linejoin="round"/>
    <path d="M 130.72650146484375 145.08424377441406 C 159.29920959472656 118.62487030029297 127.93519592285156 118.46813201904297 111.88250732421875 154.9037628173828" stroke-width="3.0" fill="none" stroke="rgb(0, 0, 0)" stroke-opacity="1.0" stroke-linecap="round" stroke-linejoin="round"/>
    <path d="M 105.70589447021484 75.72586059570312 C 60.01161575317383 92.10879516601562 101.57657623291016 69.03372192382812 152.7952880859375 105.93232727050781" stroke-width="3.0" fill="none" stroke="rgb(0, 0, 0)" stroke-opacity="1.0" stroke-linecap="round" stroke-linejoin="round"/>
    <path d="M 140.00270080566406 151.2000274658203 C 148.751220703125 125.16465759277344 120.65851593017578 140.27659606933594 141.66152954101562 142.3097686767578" stroke-width="3.0" fill="none" stroke="rgb(0, 0, 0)" stroke-opacity="1.0" stroke-linecap="round" stroke-linejoin="round"/>
    <path d="M 42.09621810913086 63.761138916015625 C 48.622562408447266 70.05449676513672 101.5899658203125 78.83447265625 113.84986114501953 79.14097595214844" stroke-width="3.0" fill="none" stroke="rgb(0, 0, 0)" stroke-opacity="1.0" stroke-linecap="round" stroke-linejoin="round"/>
    <path d="M 105.69038391113281 187.51544189453125 C 125.45525360107422 167.8050994873047 117.02027130126953 154.1257781982422 146.46681213378906 133.64218139648438" stroke-width="3.0" fill="none" stroke="rgb(0, 0, 0)" stroke-opacity="1.0" stroke-linecap="round" stroke-linejoin="round"/>
    <path d="M 181.31549072265625 99.46072387695312 C 139.49024963378906 100.69574737548828 123.42449188232422 102.8475341796875 169.66065979003906 99.2191390991211" stroke-width="3.0" fill="none" stroke="rgb(0, 0, 0)" stroke-opacity="1.0" stroke-linecap="round" stroke-linejoin="round"/>
    <path d="M 190.61337280273438 108.16545104980469 C 181.90696716308594 102.49292755126953 182.0117645263672 106.79621124267578 153.9868927001953 110.67174530029297" stroke-width="3.0" fill="none" stroke="rgb(0, 0, 0)" stroke-opacity="1.0" stroke-linecap="round" stroke-linejoin="round"/>
    <path d="M 111.99918365478516 81.62801361083984 C 155.5412139892578 81.37688446044922 135.5256805419922 101.32725524902344 179.1786346435547 94.96804809570312" stroke-width="3.0" fill="none" stroke="rgb(0, 0, 0)" stroke-opacity="1.0" stroke-linecap="round" stroke-linejoin="round"/>
    <path d="M 148.33981323242188 127.22697448730469 C 104.7044677734375 153.01870727539062 117.31279754638672 149.99571228027344 146.2680206298828 131.4449462890625" stroke-width="3.0" fill="none" stroke="rgb(0, 0, 0)" stroke-opacity="1.0" stroke-linecap="round" stroke-linejoin="round"/>
  </g>
</svg>
