<?xml version="1.0" ?>
<svg xmlns="http://www.w3.org/2000/svg" version="1.1" width="224" height="224">
  <defs/>
  <g>
    <path d="M 134.5688934326172 94.92675018310547 C 181.2880096435547 126.73615264892578 152.25587463378906 106.78921508789062 128.56427001953125 137.5020294189453" stroke-width="3.0" fill="none" stroke="rgb(0, 0, 0)" stroke-opacity="1.0" stroke-linecap="round" stroke-linejoin="round"/>
    <path d="M 129.25779724121094 132.8556365966797 C 162.8914031982422 117.63175964355469 130.92666625976562 116.9693603515625 121.61418151855469 143.07240295410156" stroke-width="3.0" fill="none" stroke="rgb(0, 0, 0)" stroke-opacity="1.0" stroke-linecap="round" stroke-linejoin="round"/>
    <path d="M 147.79173278808594 119.12779998779297 C 203.44544982910156 112.87902069091797 99.952880859375 108.39496612548828 158.2957000732422 102.44882202148438" stroke-width="3.0" fill="none" stroke="rgb(0, 0, 0)" stroke-opacity="1.0" stroke-linecap="round" stroke-linejoin="round"/>
    <path d="M 169.8296661376953 108.06511688232422 C 142.01162719726562 105.93583679199219 127.77198028564453 87.49906158447266 178.46791076660156 104.08179473876953" stroke-width="3.0" fill="none" stroke="rgb(0, 0, 0)" stroke-opacity="1.0" stroke-linecap="round" stroke-linejoin="round"/>
    <path d="M 151.98931884765625 106.68418884277344 C 171.25868225097656 115.12059020996094 188.9954833984375 90.26925659179688 191.33114624023438 108.31778717041016" stroke-width="3.0" fill="none" stroke="rgb(0, 0, 0)" stroke-opacity="1.0" stroke-linecap="round" stroke-linejoin="round"/>
    <path d="M 146.83795166015625 121.47967529296875 C 137.59613037109375 173.11038208007812 123.23541259765625 158.60507202148438 143.5432891845703 129.96470642089844" stroke-width="3.0" fill="none" stroke="rgb(0, 0, 0)" stroke-opacity="1.0" stroke-linecap="round" stroke-linejoin="round"/>
    <path d="M 124.56717681884766 84.41295623779297 C 169.75534057617188 105.74471282958984 211.1586151123047 99.13850402832031 155.6204833984375 87.35832214355469" stroke-width="3.0" fill="none" stroke="rgb(0, 0, 0)" stroke-opacity="1.0" stroke-linecap="round" stroke-linejoin="round"/>
    <path d="M 121.13347625732422 186.4071807861328 C 145.08792114257812 91.42540740966797 146.6617889404297 154.68222045898438 132.66656494140625 178.08065795898438" stroke-width="3.0" fill="none" stroke="rgb(0, 0, 0)" stroke-opacity="1.0" stroke-linecap="round" stroke-linejoin="round"/>
    <path d="M 130.38650512695312 132.46876525878906 C 110.36785125732422 158.88587951660156 114.28218078613281 151.0550079345703 122.4574966430664 136.4925537109375" stroke-width="3.0" fill="none" stroke="rgb(0, 0, 0)" stroke-opacity="1.0" stroke-linecap="round" stroke-linejoin="round"/>
    <path d="M 126.16485595703125 81.02332305908203 C 186.8656768798828 139.62034606933594 198.1354217529297 82.28874969482422 156.99627685546875 87.17362976074219" stroke-width="3.0" fill="none" stroke="rgb(0, 0, 0)" stroke-opacity="1.0" stroke-linecap="round" stroke-linejoin="round"/>
    <path d="M 138.43690490722656 121.22640991210938 C 137.39175415039062 182.24781799316406 125.18199157714844 183.87271118164062 140.2956085205078 124.24895477294922" stroke-width="3.0" fill="none" stroke="rgb(0, 0, 0)" stroke-opacity="1.0" stroke-linecap="round" stroke-linejoin="round"/>
    <path d="M 138.19630432128906 123.21955871582031 C 206.95909118652344 103.77159118652344 156.13279724121094 110.19804382324219 128.34832763671875 87.35276794433594" stroke-width="3.0" fill="none" stroke="rgb(0, 0, 0)" stroke-opacity="1.0" stroke-linecap="round" stroke-linejoin="round"/>
    <path d="M 136.44651794433594 158.81161499023438 C 150.71095275878906 126.73429107666016 140.19593811035156 118.46401977539062 184.1697998046875 101.68952941894531" stroke-width="3.0" fill="none" stroke="rgb(0, 0, 0)" stroke-opacity="1.0" stroke-linecap="round" stroke-linejoin="round"/>
    <path d="M 135.11163330078125 131.14825439453125 C 119.01322937011719 169.530517578125 120.40086364746094 171.62518310546875 110.3102035522461 184.54249572753906" stroke-width="3.0" fill="none" stroke="rgb(0, 0, 0)" stroke-opacity="1.0" stroke-linecap="round" stroke-linejoin="round"/>
    <path d="M 49.072837829589844 93.84278869628906 C 70.28739166259766 80.285888671875 125.11759948730469 68.64257049560547 141.4256134033203 107.05033111572266" stroke-width="3.0" fill="none" stroke="rgb(0, 0, 0)" stroke-opacity="1.0" stroke-linecap="round" stroke-linejoin="round"/>
    <path d="M 34.34986114501953 81.88282012939453 C 58.876625061035156 75.83883666992188 95.40496826171875 70.7291030883789 132.71014404296875 94.65309143066406" stroke-width="3.0" fill="none" stroke="rgb(0, 0, 0)" stroke-opacity="1.0" stroke-linecap="round" stroke-linejoin="round"/>
    <path d="M 99.33984375 79.43880462646484 C 72.64334869384766 74.23252868652344 100.36026763916016 81.60613250732422 112.11276245117188 75.88419342041016" stroke-width="3.0" fill="none" stroke="rgb(0, 0, 0)" stroke-opacity="1.0" stroke-linecap="round" stroke-linejoin="round"/>
    <path d="M 132.89175415039062 134.43341064453125 C 119.5395278930664 142.40769958496094 111.54310607910156 138.60626220703125 144.2368927001953 138.47752380371094" stroke-width="3.0" fill="none" stroke="rgb(0, 0, 0)" stroke-opacity="1.0" stroke-linecap="round" stroke-linejoin="round"/>
    <path d="M 128.6282501220703 181.92433166503906 C 152.79933166503906 115.20133972167969 159.10960388183594 116.59783172607422 147.35755920410156 120.87003326416016" stroke-width="3.0" fill="none" stroke="rgb(0, 0, 0)" stroke-opacity="1.0" stroke-linecap="round" stroke-linejoin="round"/>
    <path d="M 98.94430541992188 186.02801513671875 C 127.28233337402344 138.58248901367188 116.72750091552734 131.65509033203125 140.94436645507812 124.35176086425781" stroke-width="3.0" fill="none" stroke="rgb(0, 0, 0)" stroke-opacity="1.0" stroke-linecap="round" stroke-linejoin="round"/>
    <path d="M 132.81309509277344 131.1402587890625 C 136.0048065185547 178.3287353515625 122.67879486083984 189.5414276123047 136.791259765625 155.57093811035156" stroke-width="3.0" fill="none" stroke="rgb(0, 0, 0)" stroke-opacity="1.0" stroke-linecap="round" stroke-linejoin="round"/>
    <path d="M 120.1349868774414 141.8070526123047 C 129.75155639648438 123.24272918701172 146.46495056152344 108.7450942993164 135.00152587890625 156.90126037597656" stroke-width="3.0" fill="none" stroke="rgb(0, 0, 0)" stroke-opacity="1.0" stroke-linecap="round" stroke-linejoin="round"/>
    <path d="M 181.8494873046875 100.62899780273438 C 171.3115997314453 94.79134368896484 144.0686492919922 98.12567901611328 113.46322631835938 83.34310150146484" stroke-width="3.0" fill="none" stroke="rgb(0, 0, 0)" stroke-opacity="1.0" stroke-linecap="round" stroke-linejoin="round"/>
    <path d="M 134.23123168945312 142.4607696533203 C 181.73764038085938 104.75639343261719 125.38072204589844 114.84365844726562 119.17981719970703 145.51312255859375" stroke-width="3.0" fill="none" stroke="rgb(0, 0, 0)" stroke-opacity="1.0" stroke-linecap="round" stroke-linejoin="round"/>
    <path d="M 109.10829162597656 80.16803741455078 C 74.42292785644531 86.0451889038086 114.3359603881836 66.818603515625 167.53643798828125 102.3943099975586" stroke-width="3.0" fill="none" stroke="rgb(0, 0, 0)" stroke-opacity="1.0" stroke-linecap="round" stroke-linejoin="round"/>
    <path d="M 128.3970184326172 134.17587280273438 C 156.50411987304688 106.0859146118164 124.7245864868164 139.16680908203125 141.31260681152344 120.074951171875" stroke-width="3.0" fill="none" stroke="rgb(0, 0, 0)" stroke-opacity="1.0" stroke-linecap="round" stroke-linejoin="round"/>
    <path d="M 54.340763092041016 55.44581985473633 C 77.13279724121094 75.30083465576172 109.76175689697266 78.59337615966797 110.44027709960938 83.41449737548828" stroke-width="3.0" fill="none" stroke="rgb(0, 0, 0)" stroke-opacity="1.0" stroke-linecap="round" stroke-linejoin="round"/>
    <path d="M 105.15805053710938 187.3204803466797 C 119.00370025634766 172.2272186279297 115.49008178710938 149.89996337890625 139.71726989746094 123.82392120361328" stroke-width="3.0" fill="none" stroke="rgb(0, 0, 0)" stroke-opacity="1.0" stroke-linecap="round" stroke-linejoin="round"/>
    <path d="M 187.55093383789062 104.35810089111328 C 128.43692016601562 97.02244567871094 111.24822235107422 92.82056427001953 179.4737548828125 97.6631851196289" stroke-width="3.0" fill="none" stroke="rgb(0, 0, 0)" stroke-opacity="1.0" stroke-linecap="round" stroke-linejoin="round"/>
    <path d="M 191.79774475097656 110.54622650146484 C 176.17430114746094 91.38226318359375 169.45724487304688 130.21104431152344 137.6678924560547 106.9743423461914" stroke-width="3.0" fill="none" stroke="rgb(0, 0, 0)" stroke-opacity="1.0" stroke-linecap="round" stroke-linejoin="round"/>
    <path d="M 109.53679656982422 82.43885040283203 C 154.7659149169922 78.3851318359375 144.16232299804688 99.2435073852539 179.28201293945312 102.01258087158203" stroke-width="3.0" fill="none" stroke="rgb(0, 0, 0)" stroke-opacity="1.0" stroke-linecap="round" stroke-linejoin="round"/>
    <path d="M 148.13787841796875 119.37483978271484 C 124.1353759765625 153.9160614013672 123.01712036132812 138.4811248779297 151.1661376953125 120.52853393554688" stroke-width="3.0" fill="none" stroke="rgb(0, 0, 0)" stroke-opacity="1.0" stroke-linecap="round" stroke-linejoin="round"/>
  </g>
</svg>
