<?xml version="1.0" ?>
<svg xmlns="http://www.w3.org/2000/svg" version="1.1" width="224" height="224">
  <defs/>
  <g>
    <path d="M 132.010498046875 94.82465362548828 C 178.52606201171875 126.26564025878906 159.7210693359375 95.09666442871094 142.66546630859375 150.13722229003906" stroke-width="3.0" fill="none" stroke="rgb(0, 0, 0)" stroke-opacity="1.0" stroke-linecap="round" stroke-linejoin="round"/>
    <path d="M 131.46340942382812 144.04100036621094 C 167.67271423339844 112.01378631591797 143.26028442382812 126.13719177246094 118.90751647949219 153.0070343017578" stroke-width="3.0" fill="none" stroke="rgb(0, 0, 0)" stroke-opacity="1.0" stroke-linecap="round" stroke-linejoin="round"/>
    <path d="M 145.04275512695312 120.46749114990234 C 211.6632843017578 103.07699584960938 108.85347747802734 114.7095947265625 173.79217529296875 105.91368865966797" stroke-width="3.0" fill="none" stroke="rgb(0, 0, 0)" stroke-opacity="1.0" stroke-linecap="round" stroke-linejoin="round"/>
    <path d="M 165.8564910888672 98.7331771850586 C 130.01028442382812 106.24958801269531 120.7827377319336 104.52348327636719 173.94227600097656 106.34034729003906" stroke-width="3.0" fill="none" stroke="rgb(0, 0, 0)" stroke-opacity="1.0" stroke-linecap="round" stroke-linejoin="round"/>
    <path d="M 145.10256958007812 103.65386962890625 C 164.5782012939453 120.73391723632812 179.6215362548828 86.96052551269531 191.6399383544922 107.51895141601562" stroke-width="3.0" fill="none" stroke="rgb(0, 0, 0)" stroke-opacity="1.0" stroke-linecap="round" stroke-linejoin="round"/>
    <path d="M 144.20529174804688 121.20459747314453 C 130.99826049804688 158.93751525878906 139.71473693847656 156.12286376953125 151.28550720214844 120.09982299804688" stroke-width="3.0" fill="none" stroke="rgb(0, 0, 0)" stroke-opacity="1.0" stroke-linecap="round" stroke-linejoin="round"/>
    <path d="M 124.55601501464844 86.05613708496094 C 166.45074462890625 118.60338592529297 214.9571533203125 99.32449340820312 158.18443298339844 90.36878204345703" stroke-width="3.0" fill="none" stroke="rgb(0, 0, 0)" stroke-opacity="1.0" stroke-linecap="round" stroke-linejoin="round"/>
    <path d="M 117.91021728515625 186.43423461914062 C 155.7108917236328 87.18896484375 146.30409240722656 160.5605926513672 128.3292236328125 182.71929931640625" stroke-width="3.0" fill="none" stroke="rgb(0, 0, 0)" stroke-opacity="1.0" stroke-linecap="round" stroke-linejoin="round"/>
    <path d="M 135.6068878173828 136.6142578125 C 112.6622543334961 157.0029754638672 113.95528411865234 147.920166015625 125.89820098876953 139.1136016845703" stroke-width="3.0" fill="none" stroke="rgb(0, 0, 0)" stroke-opacity="1.0" stroke-linecap="round" stroke-linejoin="round"/>
    <path d="M 128.31591796875 84.46460723876953 C 178.5245361328125 136.2346954345703 203.63052368164062 83.29301452636719 154.43670654296875 86.74600982666016" stroke-width="3.0" fill="none" stroke="rgb(0, 0, 0)" stroke-opacity="1.0" stroke-linecap="round" stroke-linejoin="round"/>
    <path d="M 146.81080627441406 120.30950164794922 C 137.37741088867188 174.04238891601562 126.01583862304688 177.2721405029297 147.90724182128906 127.25481414794922" stroke-width="3.0" fill="none" stroke="rgb(0, 0, 0)" stroke-opacity="1.0" stroke-linecap="round" stroke-linejoin="round"/>
    <path d="M 142.91952514648438 125.7071304321289 C 220.71910095214844 84.2465591430664 167.62266540527344 101.46050262451172 122.18640899658203 84.81859588623047" stroke-width="3.0" fill="none" stroke="rgb(0, 0, 0)" stroke-opacity="1.0" stroke-linecap="round" stroke-linejoin="round"/>
    <path d="M 121.98139953613281 183.92958068847656 C 139.882568359375 122.47299194335938 142.21299743652344 125.70938110351562 183.90933227539062 103.30248260498047" stroke-width="3.0" fill="none" stroke="rgb(0, 0, 0)" stroke-opacity="1.0" stroke-linecap="round" stroke-linejoin="round"/>
    <path d="M 138.94528198242188 130.47799682617188 C 119.39097595214844 166.62086486816406 120.17002868652344 175.23255920410156 106.19863891601562 188.39614868164062" stroke-width="3.0" fill="none" stroke="rgb(0, 0, 0)" stroke-opacity="1.0" stroke-linecap="round" stroke-linejoin="round"/>
    <path d="M 47.98545837402344 93.7606430053711 C 71.56572723388672 81.03826904296875 119.7413558959961 70.68480682373047 147.3837890625 110.24797821044922" stroke-width="3.0" fill="none" stroke="rgb(0, 0, 0)" stroke-opacity="1.0" stroke-linecap="round" stroke-linejoin="round"/>
    <path d="M 33.629608154296875 82.86565399169922 C 64.34720611572266 79.2123794555664 101.7674560546875 76.4133529663086 151.73289489746094 96.75650787353516" stroke-width="3.0" fill="none" stroke="rgb(0, 0, 0)" stroke-opacity="1.0" stroke-linecap="round" stroke-linejoin="round"/>
    <path d="M 106.96952819824219 80.48543548583984 C 78.1361312866211 67.62696838378906 97.24771881103516 77.26861572265625 109.72305297851562 73.89370727539062" stroke-width="3.0" fill="none" stroke="rgb(0, 0, 0)" stroke-opacity="1.0" stroke-linecap="round" stroke-linejoin="round"/>
    <path d="M 138.37118530273438 144.7351837158203 C 126.94609832763672 143.45065307617188 117.83051300048828 126.69438171386719 144.81910705566406 122.46415710449219" stroke-width="3.0" fill="none" stroke="rgb(0, 0, 0)" stroke-opacity="1.0" stroke-linecap="round" stroke-linejoin="round"/>
    <path d="M 129.53184509277344 179.755615234375 C 147.32997131347656 102.88346099853516 162.0597686767578 110.23019409179688 144.42015075683594 128.05364990234375" stroke-width="3.0" fill="none" stroke="rgb(0, 0, 0)" stroke-opacity="1.0" stroke-linecap="round" stroke-linejoin="round"/>
    <path d="M 97.1003189086914 184.46722412109375 C 122.58718872070312 152.07179260253906 111.96044921875 126.12690734863281 156.67208862304688 114.84660339355469" stroke-width="3.0" fill="none" stroke="rgb(0, 0, 0)" stroke-opacity="1.0" stroke-linecap="round" stroke-linejoin="round"/>
    <path d="M 148.19142150878906 128.53805541992188 C 137.9076690673828 164.0295867919922 127.3033218383789 187.49012756347656 138.100341796875 158.48223876953125" stroke-width="3.0" fill="none" stroke="rgb(0, 0, 0)" stroke-opacity="1.0" stroke-linecap="round" stroke-linejoin="round"/>
    <path d="M 116.49674987792969 149.0790557861328 C 136.51121520996094 126.09770965576172 143.5014190673828 110.5334243774414 120.23184204101562 145.72576904296875" stroke-width="3.0" fill="none" stroke="rgb(0, 0, 0)" stroke-opacity="1.0" stroke-linecap="round" stroke-linejoin="round"/>
    <path d="M 173.9627685546875 105.97724151611328 C 171.48594665527344 99.91171264648438 151.98300170898438 90.99427032470703 116.50203704833984 82.24076080322266" stroke-width="3.0" fill="none" stroke="rgb(0, 0, 0)" stroke-opacity="1.0" stroke-linecap="round" stroke-linejoin="round"/>
    <path d="M 136.38916015625 141.35614013671875 C 178.38954162597656 100.12349700927734 125.63866424560547 116.03656768798828 116.83343505859375 144.7749786376953" stroke-width="3.0" fill="none" stroke="rgb(0, 0, 0)" stroke-opacity="1.0" stroke-linecap="round" stroke-linejoin="round"/>
    <path d="M 112.4091567993164 81.88388061523438 C 71.84630584716797 83.9654769897461 117.93594360351562 67.2627182006836 171.6766815185547 101.51512145996094" stroke-width="3.0" fill="none" stroke="rgb(0, 0, 0)" stroke-opacity="1.0" stroke-linecap="round" stroke-linejoin="round"/>
    <path d="M 139.5807342529297 155.7194366455078 C 146.28622436523438 109.50826263427734 125.7694091796875 146.74734497070312 141.090087890625 127.18262481689453" stroke-width="3.0" fill="none" stroke="rgb(0, 0, 0)" stroke-opacity="1.0" stroke-linecap="round" stroke-linejoin="round"/>
    <path d="M 56.70606994628906 54.22654724121094 C 86.16451263427734 80.52623748779297 107.83716583251953 72.50895690917969 118.07649230957031 88.28018951416016" stroke-width="3.0" fill="none" stroke="rgb(0, 0, 0)" stroke-opacity="1.0" stroke-linecap="round" stroke-linejoin="round"/>
    <path d="M 102.84089660644531 179.11862182617188 C 117.25953674316406 165.59535217285156 118.49230194091797 152.34715270996094 139.68630981445312 120.45806121826172" stroke-width="3.0" fill="none" stroke="rgb(0, 0, 0)" stroke-opacity="1.0" stroke-linecap="round" stroke-linejoin="round"/>
    <path d="M 184.56259155273438 104.39334106445312 C 125.49401092529297 105.5345230102539 112.14109802246094 97.38430786132812 180.48716735839844 96.77318572998047" stroke-width="3.0" fill="none" stroke="rgb(0, 0, 0)" stroke-opacity="1.0" stroke-linecap="round" stroke-linejoin="round"/>
    <path d="M 191.26388549804688 109.87809753417969 C 174.49868774414062 90.65586853027344 177.06884765625 134.37335205078125 140.1479034423828 106.08151245117188" stroke-width="3.0" fill="none" stroke="rgb(0, 0, 0)" stroke-opacity="1.0" stroke-linecap="round" stroke-linejoin="round"/>
    <path d="M 109.1640396118164 81.16996765136719 C 161.0457000732422 77.15315246582031 142.07965087890625 101.483154296875 177.21665954589844 95.61677551269531" stroke-width="3.0" fill="none" stroke="rgb(0, 0, 0)" stroke-opacity="1.0" stroke-linecap="round" stroke-linejoin="round"/>
    <path d="M 154.5455780029297 119.36298370361328 C 132.8388671875 164.10650634765625 124.33770751953125 142.20643615722656 153.4105682373047 122.30290222167969" stroke-width="3.0" fill="none" stroke="rgb(0, 0, 0)" stroke-opacity="1.0" stroke-linecap="round" stroke-linejoin="round"/>
  </g>
</svg>
