<?xml version="1.0" ?>
<svg xmlns="http://www.w3.org/2000/svg" version="1.1" width="224" height="224">
  <defs/>
  <g>
    <path d="M 135.4344482421875 108.35374450683594 C 182.7521209716797 128.5938262939453 151.32675170898438 110.14847564697266 129.5609130859375 131.40257263183594" stroke-width="3.0" fill="none" stroke="rgb(0, 0, 0)" stroke-opacity="1.0" stroke-linecap="round" stroke-linejoin="round"/>
    <path d="M 136.56326293945312 131.19232177734375 C 160.75411987304688 118.97920989990234 134.93650817871094 121.4642562866211 128.77439880371094 149.54779052734375" stroke-width="3.0" fill="none" stroke="rgb(0, 0, 0)" stroke-opacity="1.0" stroke-linecap="round" stroke-linejoin="round"/>
    <path d="M 144.916748046875 125.27884674072266 C 179.64617919921875 111.27220153808594 142.62196350097656 116.42351531982422 164.50198364257812 111.85869598388672" stroke-width="3.0" fill="none" stroke="rgb(0, 0, 0)" stroke-opacity="1.0" stroke-linecap="round" stroke-linejoin="round"/>
    <path d="M 164.97093200683594 115.96308135986328 C 135.5244598388672 108.19693756103516 114.71600341796875 93.34037017822266 159.7576904296875 111.34481811523438" stroke-width="3.0" fill="none" stroke="rgb(0, 0, 0)" stroke-opacity="1.0" stroke-linecap="round" stroke-linejoin="round"/>
    <path d="M 157.39962768554688 117.85454559326172 C 181.73974609375 114.53117370605469 171.01263427734375 85.42975616455078 190.87135314941406 105.1651382446289" stroke-width="3.0" fill="none" stroke="rgb(0, 0, 0)" stroke-opacity="1.0" stroke-linecap="round" stroke-linejoin="round"/>
    <path d="M 150.0775909423828 122.78656768798828 C 134.83761596679688 160.40109252929688 121.66224670410156 150.19305419921875 138.8870391845703 124.82772827148438" stroke-width="3.0" fill="none" stroke="rgb(0, 0, 0)" stroke-opacity="1.0" stroke-linecap="round" stroke-linejoin="round"/>
    <path d="M 133.48252868652344 86.88856506347656 C 165.66778564453125 104.8780288696289 206.7119903564453 93.33711242675781 157.46609497070312 89.61649322509766" stroke-width="3.0" fill="none" stroke="rgb(0, 0, 0)" stroke-opacity="1.0" stroke-linecap="round" stroke-linejoin="round"/>
    <path d="M 123.90108489990234 176.7329864501953 C 148.7303009033203 117.5813217163086 146.07704162597656 160.2726593017578 129.48345947265625 181.04139709472656" stroke-width="3.0" fill="none" stroke="rgb(0, 0, 0)" stroke-opacity="1.0" stroke-linecap="round" stroke-linejoin="round"/>
    <path d="M 127.5490493774414 140.8284454345703 C 93.18716430664062 192.8928680419922 97.55484771728516 176.0579833984375 120.30424499511719 145.189208984375" stroke-width="3.0" fill="none" stroke="rgb(0, 0, 0)" stroke-opacity="1.0" stroke-linecap="round" stroke-linejoin="round"/>
    <path d="M 124.94681549072266 91.02989196777344 C 196.50222778320312 127.7491455078125 202.3361358642578 83.56900787353516 152.99632263183594 85.34021759033203" stroke-width="3.0" fill="none" stroke="rgb(0, 0, 0)" stroke-opacity="1.0" stroke-linecap="round" stroke-linejoin="round"/>
    <path d="M 135.23533630371094 140.04103088378906 C 134.28225708007812 144.9120635986328 138.5015869140625 162.2711181640625 149.32366943359375 121.61361694335938" stroke-width="3.0" fill="none" stroke="rgb(0, 0, 0)" stroke-opacity="1.0" stroke-linecap="round" stroke-linejoin="round"/>
    <path d="M 151.26649475097656 106.09451293945312 C 189.88287353515625 106.2803955078125 159.84547424316406 120.1847152709961 132.34603881835938 100.82511138916016" stroke-width="3.0" fill="none" stroke="rgb(0, 0, 0)" stroke-opacity="1.0" stroke-linecap="round" stroke-linejoin="round"/>
    <path d="M 137.63290405273438 164.56216430664062 C 148.10528564453125 134.51112365722656 145.91346740722656 120.7713394165039 176.60107421875 106.87322998046875" stroke-width="3.0" fill="none" stroke="rgb(0, 0, 0)" stroke-opacity="1.0" stroke-linecap="round" stroke-linejoin="round"/>
    <path d="M 134.05030822753906 139.50205993652344 C 121.13716888427734 177.0708465576172 127.70604705810547 178.6917724609375 118.61588287353516 185.12181091308594" stroke-width="3.0" fill="none" stroke="rgb(0, 0, 0)" stroke-opacity="1.0" stroke-linecap="round" stroke-linejoin="round"/>
    <path d="M 49.697750091552734 94.09803771972656 C 62.90734100341797 81.13906860351562 128.4854736328125 72.94447326660156 156.51463317871094 96.63427734375" stroke-width="3.0" fill="none" stroke="rgb(0, 0, 0)" stroke-opacity="1.0" stroke-linecap="round" stroke-linejoin="round"/>
    <path d="M 34.289794921875 85.28827667236328 C 49.74008560180664 78.95570373535156 83.9630126953125 80.25546264648438 111.05517578125 78.10838317871094" stroke-width="3.0" fill="none" stroke="rgb(0, 0, 0)" stroke-opacity="1.0" stroke-linecap="round" stroke-linejoin="round"/>
    <path d="M 63.760223388671875 60.460426330566406 C 61.263275146484375 58.164127349853516 81.93879699707031 80.48098754882812 111.75723266601562 75.37735748291016" stroke-width="3.0" fill="none" stroke="rgb(0, 0, 0)" stroke-opacity="1.0" stroke-linecap="round" stroke-linejoin="round"/>
    <path d="M 122.54524230957031 138.9798126220703 C 116.17105865478516 154.61082458496094 106.814697265625 148.8755340576172 133.33547973632812 137.44232177734375" stroke-width="3.0" fill="none" stroke="rgb(0, 0, 0)" stroke-opacity="1.0" stroke-linecap="round" stroke-linejoin="round"/>
    <path d="M 130.40357971191406 178.81016540527344 C 144.40040588378906 122.61673736572266 150.11279296875 133.8966522216797 140.77175903320312 125.17645263671875" stroke-width="3.0" fill="none" stroke="rgb(0, 0, 0)" stroke-opacity="1.0" stroke-linecap="round" stroke-linejoin="round"/>
    <path d="M 100.06130981445312 187.05300903320312 C 130.1621551513672 146.5140380859375 122.00945281982422 142.1502685546875 138.97470092773438 137.91928100585938" stroke-width="3.0" fill="none" stroke="rgb(0, 0, 0)" stroke-opacity="1.0" stroke-linecap="round" stroke-linejoin="round"/>
    <path d="M 123.65824890136719 175.0451202392578 C 117.11798858642578 183.58912658691406 111.51885223388672 196.26004028320312 126.31002044677734 167.70252990722656" stroke-width="3.0" fill="none" stroke="rgb(0, 0, 0)" stroke-opacity="1.0" stroke-linecap="round" stroke-linejoin="round"/>
    <path d="M 117.29264831542969 148.86373901367188 C 127.9010238647461 135.49642944335938 144.4247589111328 119.46797943115234 120.76620483398438 143.39974975585938" stroke-width="3.0" fill="none" stroke="rgb(0, 0, 0)" stroke-opacity="1.0" stroke-linecap="round" stroke-linejoin="round"/>
    <path d="M 164.6006622314453 115.26805114746094 C 161.69882202148438 110.3623046875 137.50401306152344 103.5500259399414 122.42105865478516 87.05980682373047" stroke-width="3.0" fill="none" stroke="rgb(0, 0, 0)" stroke-opacity="1.0" stroke-linecap="round" stroke-linejoin="round"/>
    <path d="M 130.6571502685547 145.1082000732422 C 159.69589233398438 120.69831085205078 127.98067474365234 119.40377807617188 109.97303009033203 156.7393798828125" stroke-width="3.0" fill="none" stroke="rgb(0, 0, 0)" stroke-opacity="1.0" stroke-linecap="round" stroke-linejoin="round"/>
    <path d="M 105.61983489990234 76.7098617553711 C 60.45927047729492 92.35755157470703 102.09638214111328 68.8818359375 154.09893798828125 104.78209686279297" stroke-width="3.0" fill="none" stroke="rgb(0, 0, 0)" stroke-opacity="1.0" stroke-linecap="round" stroke-linejoin="round"/>
    <path d="M 138.6516876220703 150.52911376953125 C 147.52880859375 125.1931381225586 120.28519439697266 140.11244201660156 143.37991333007812 141.58291625976562" stroke-width="3.0" fill="none" stroke="rgb(0, 0, 0)" stroke-opacity="1.0" stroke-linecap="round" stroke-linejoin="round"/>
    <path d="M 41.29793930053711 64.66691589355469 C 48.984031677246094 69.65443420410156 102.35475158691406 78.40657043457031 114.58390045166016 80.45259857177734" stroke-width="3.0" fill="none" stroke="rgb(0, 0, 0)" stroke-opacity="1.0" stroke-linecap="round" stroke-linejoin="round"/>
    <path d="M 106.3505859375 186.84693908691406 C 125.32467651367188 168.08074951171875 117.65135955810547 154.7896270751953 147.0166473388672 134.09255981445312" stroke-width="3.0" fill="none" stroke="rgb(0, 0, 0)" stroke-opacity="1.0" stroke-linecap="round" stroke-linejoin="round"/>
    <path d="M 180.93975830078125 100.211669921875 C 139.0608673095703 99.17443084716797 123.17652893066406 101.1303939819336 169.8656463623047 97.58167266845703" stroke-width="3.0" fill="none" stroke="rgb(0, 0, 0)" stroke-opacity="1.0" stroke-linecap="round" stroke-linejoin="round"/>
    <path d="M 191.84561157226562 107.08173370361328 C 180.36851501464844 99.81298828125 180.58612060546875 103.73499298095703 152.44020080566406 107.64590454101562" stroke-width="3.0" fill="none" stroke="rgb(0, 0, 0)" stroke-opacity="1.0" stroke-linecap="round" stroke-linejoin="round"/>
    <path d="M 112.66336822509766 79.12431335449219 C 155.31982421875 80.3420639038086 134.66551208496094 101.04263305664062 178.8251495361328 94.49961853027344" stroke-width="3.0" fill="none" stroke="rgb(0, 0, 0)" stroke-opacity="1.0" stroke-linecap="round" stroke-linejoin="round"/>
    <path d="M 148.86019897460938 127.48629760742188 C 104.79524230957031 152.9723663330078 117.77252197265625 150.486328125 147.36338806152344 132.7301788330078" stroke-width="3.0" fill="none" stroke="rgb(0, 0, 0)" stroke-opacity="1.0" stroke-linecap="round" stroke-linejoin="round"/>
  </g>
</svg>
