<?xml version="1.0" ?>
<svg xmlns="http://www.w3.org/2000/svg" version="1.1" width="224" height="224">
  <defs/>
  <g>
    <path d="M 136.212646484375 102.51349639892578 C 179.5320587158203 132.7572479248047 149.76873779296875 108.64601135253906 124.99040985107422 132.51589965820312" stroke-width="3.0" fill="none" stroke="rgb(0, 0, 0)" stroke-opacity="1.0" stroke-linecap="round" stroke-linejoin="round"/>
    <path d="M 133.84793090820312 139.92327880859375 C 165.00344848632812 122.3677749633789 130.0782928466797 116.87345123291016 121.07209014892578 141.83639526367188" stroke-width="3.0" fill="none" stroke="rgb(0, 0, 0)" stroke-opacity="1.0" stroke-linecap="round" stroke-linejoin="round"/>
    <path d="M 142.9761962890625 117.83540344238281 C 199.7120361328125 110.98143768310547 119.55827331542969 106.68182373046875 164.47323608398438 99.41840362548828" stroke-width="3.0" fill="none" stroke="rgb(0, 0, 0)" stroke-opacity="1.0" stroke-linecap="round" stroke-linejoin="round"/>
    <path d="M 170.09271240234375 108.22106170654297 C 137.46946716308594 104.56018829345703 126.1190414428711 87.16223907470703 178.1934051513672 101.83685302734375" stroke-width="3.0" fill="none" stroke="rgb(0, 0, 0)" stroke-opacity="1.0" stroke-linecap="round" stroke-linejoin="round"/>
    <path d="M 153.12350463867188 104.06012725830078 C 170.97201538085938 111.20382690429688 184.29751586914062 85.88372039794922 190.36065673828125 108.14981842041016" stroke-width="3.0" fill="none" stroke="rgb(0, 0, 0)" stroke-opacity="1.0" stroke-linecap="round" stroke-linejoin="round"/>
    <path d="M 142.90597534179688 122.0619125366211 C 134.79942321777344 171.4798583984375 130.49853515625 160.67849731445312 147.99493408203125 132.7614288330078" stroke-width="3.0" fill="none" stroke="rgb(0, 0, 0)" stroke-opacity="1.0" stroke-linecap="round" stroke-linejoin="round"/>
    <path d="M 127.30891418457031 84.52019500732422 C 164.84434509277344 106.98400115966797 211.04881286621094 93.9742431640625 155.21946716308594 90.2771224975586" stroke-width="3.0" fill="none" stroke="rgb(0, 0, 0)" stroke-opacity="1.0" stroke-linecap="round" stroke-linejoin="round"/>
    <path d="M 124.86050415039062 181.72401428222656 C 146.5178985595703 97.92062377929688 142.30612182617188 158.4010009765625 133.3534698486328 177.4951934814453" stroke-width="3.0" fill="none" stroke="rgb(0, 0, 0)" stroke-opacity="1.0" stroke-linecap="round" stroke-linejoin="round"/>
    <path d="M 128.9921417236328 130.97921752929688 C 111.38215637207031 159.65774536132812 115.84165954589844 152.2882537841797 123.1229476928711 136.2906036376953" stroke-width="3.0" fill="none" stroke="rgb(0, 0, 0)" stroke-opacity="1.0" stroke-linecap="round" stroke-linejoin="round"/>
    <path d="M 121.26103210449219 82.1202392578125 C 187.12733459472656 136.8877410888672 199.74847412109375 79.09193420410156 154.51268005371094 88.6971664428711" stroke-width="3.0" fill="none" stroke="rgb(0, 0, 0)" stroke-opacity="1.0" stroke-linecap="round" stroke-linejoin="round"/>
    <path d="M 144.4052276611328 125.699951171875 C 144.24757385253906 187.26934814453125 124.07504272460938 187.81263732910156 141.0811004638672 125.9381103515625" stroke-width="3.0" fill="none" stroke="rgb(0, 0, 0)" stroke-opacity="1.0" stroke-linecap="round" stroke-linejoin="round"/>
    <path d="M 139.73788452148438 124.3572006225586 C 204.87545776367188 101.12286376953125 156.25840759277344 108.1290283203125 132.80474853515625 92.10797119140625" stroke-width="3.0" fill="none" stroke="rgb(0, 0, 0)" stroke-opacity="1.0" stroke-linecap="round" stroke-linejoin="round"/>
    <path d="M 132.50543212890625 164.6140899658203 C 151.03109741210938 127.36304473876953 141.43495178222656 119.74163818359375 184.86776733398438 102.67991638183594" stroke-width="3.0" fill="none" stroke="rgb(0, 0, 0)" stroke-opacity="1.0" stroke-linecap="round" stroke-linejoin="round"/>
    <path d="M 136.2403564453125 132.63113403320312 C 120.77540588378906 172.6724090576172 121.78025817871094 176.47328186035156 114.19280242919922 186.58753967285156" stroke-width="3.0" fill="none" stroke="rgb(0, 0, 0)" stroke-opacity="1.0" stroke-linecap="round" stroke-linejoin="round"/>
    <path d="M 47.24519348144531 94.34556579589844 C 76.04048156738281 84.02031707763672 120.52108001708984 71.43182373046875 145.60655212402344 110.06354522705078" stroke-width="3.0" fill="none" stroke="rgb(0, 0, 0)" stroke-opacity="1.0" stroke-linecap="round" stroke-linejoin="round"/>
    <path d="M 33.791690826416016 83.10037994384766 C 56.703125 77.4084243774414 100.6814193725586 71.95221710205078 130.03936767578125 87.72908782958984" stroke-width="3.0" fill="none" stroke="rgb(0, 0, 0)" stroke-opacity="1.0" stroke-linecap="round" stroke-linejoin="round"/>
    <path d="M 93.93710327148438 74.44168853759766 C 74.83155059814453 69.08829498291016 98.87737274169922 76.6960220336914 105.92506408691406 73.03102111816406" stroke-width="3.0" fill="none" stroke="rgb(0, 0, 0)" stroke-opacity="1.0" stroke-linecap="round" stroke-linejoin="round"/>
    <path d="M 132.1564178466797 133.4651641845703 C 118.37948608398438 140.23617553710938 111.28326416015625 139.77743530273438 141.059814453125 136.85340881347656" stroke-width="3.0" fill="none" stroke="rgb(0, 0, 0)" stroke-opacity="1.0" stroke-linecap="round" stroke-linejoin="round"/>
    <path d="M 131.01513671875 181.33726501464844 C 152.8120574951172 116.6482162475586 160.32749938964844 121.53450775146484 152.7342071533203 120.37962341308594" stroke-width="3.0" fill="none" stroke="rgb(0, 0, 0)" stroke-opacity="1.0" stroke-linecap="round" stroke-linejoin="round"/>
    <path d="M 99.5730209350586 184.6229248046875 C 127.22225952148438 137.75584411621094 124.4903335571289 137.34425354003906 141.0508575439453 123.19147491455078" stroke-width="3.0" fill="none" stroke="rgb(0, 0, 0)" stroke-opacity="1.0" stroke-linecap="round" stroke-linejoin="round"/>
    <path d="M 128.5403594970703 130.95645141601562 C 134.5187530517578 181.82203674316406 136.16619873046875 189.37625122070312 132.29092407226562 155.30023193359375" stroke-width="3.0" fill="none" stroke="rgb(0, 0, 0)" stroke-opacity="1.0" stroke-linecap="round" stroke-linejoin="round"/>
    <path d="M 122.23764038085938 146.5133514404297 C 130.041259765625 121.26530456542969 151.1784210205078 108.47074890136719 133.43710327148438 144.6154022216797" stroke-width="3.0" fill="none" stroke="rgb(0, 0, 0)" stroke-opacity="1.0" stroke-linecap="round" stroke-linejoin="round"/>
    <path d="M 187.67489624023438 99.85505676269531 C 168.88282775878906 100.60887145996094 141.141845703125 99.4747543334961 114.15093994140625 84.31888580322266" stroke-width="3.0" fill="none" stroke="rgb(0, 0, 0)" stroke-opacity="1.0" stroke-linecap="round" stroke-linejoin="round"/>
    <path d="M 132.1511688232422 139.22117614746094 C 181.86721801757812 105.11438751220703 127.03468322753906 113.93998718261719 117.89830780029297 146.03517150878906" stroke-width="3.0" fill="none" stroke="rgb(0, 0, 0)" stroke-opacity="1.0" stroke-linecap="round" stroke-linejoin="round"/>
    <path d="M 102.39512634277344 80.38307189941406 C 70.03915405273438 80.89103698730469 106.65721893310547 68.08657836914062 167.09646606445312 102.95695495605469" stroke-width="3.0" fill="none" stroke="rgb(0, 0, 0)" stroke-opacity="1.0" stroke-linecap="round" stroke-linejoin="round"/>
    <path d="M 126.544189453125 130.38633728027344 C 159.47113037109375 104.10086822509766 127.62371826171875 139.92738342285156 149.07382202148438 133.25286865234375" stroke-width="3.0" fill="none" stroke="rgb(0, 0, 0)" stroke-opacity="1.0" stroke-linecap="round" stroke-linejoin="round"/>
    <path d="M 52.62681579589844 52.66558837890625 C 74.42149353027344 71.26605987548828 110.83651733398438 80.07404327392578 113.2211685180664 81.87266540527344" stroke-width="3.0" fill="none" stroke="rgb(0, 0, 0)" stroke-opacity="1.0" stroke-linecap="round" stroke-linejoin="round"/>
    <path d="M 106.0772933959961 187.98280334472656 C 121.90094757080078 176.2080535888672 115.8169937133789 150.61715698242188 141.01791381835938 126.36277770996094" stroke-width="3.0" fill="none" stroke="rgb(0, 0, 0)" stroke-opacity="1.0" stroke-linecap="round" stroke-linejoin="round"/>
    <path d="M 188.36122131347656 104.73489379882812 C 135.89840698242188 87.22562408447266 115.7100830078125 93.17064666748047 179.39710998535156 103.16898345947266" stroke-width="3.0" fill="none" stroke="rgb(0, 0, 0)" stroke-opacity="1.0" stroke-linecap="round" stroke-linejoin="round"/>
    <path d="M 191.14239501953125 107.02643585205078 C 170.15403747558594 95.69023895263672 171.55697631835938 118.56210327148438 133.81324768066406 106.78083038330078" stroke-width="3.0" fill="none" stroke="rgb(0, 0, 0)" stroke-opacity="1.0" stroke-linecap="round" stroke-linejoin="round"/>
    <path d="M 105.689697265625 80.34073638916016 C 158.6151123046875 77.71282196044922 142.08016967773438 102.74563598632812 174.89476013183594 105.26524353027344" stroke-width="3.0" fill="none" stroke="rgb(0, 0, 0)" stroke-opacity="1.0" stroke-linecap="round" stroke-linejoin="round"/>
    <path d="M 148.24269104003906 118.63544464111328 C 123.55952453613281 153.23776245117188 121.93651580810547 137.38128662109375 148.26748657226562 124.40550231933594" stroke-width="3.0" fill="none" stroke="rgb(0, 0, 0)" stroke-opacity="1.0" stroke-linecap="round" stroke-linejoin="round"/>
  </g>
</svg>
