<?xml version="1.0" ?>
<svg xmlns="http://www.w3.org/2000/svg" version="1.1" width="224" height="224">
  <defs/>
  <g>
    <path d="M 143.88772583007812 103.90959930419922 C 183.73133850097656 120.725341796875 152.10662841796875 108.2835464477539 127.38267517089844 134.20436096191406" stroke-width="3.0" fill="none" stroke="rgb(0, 0, 0)" stroke-opacity="1.0" stroke-linecap="round" stroke-linejoin="round"/>
    <path d="M 132.93272399902344 133.4939727783203 C 159.6121063232422 111.90155792236328 130.211181640625 113.78863525390625 123.35208892822266 145.64601135253906" stroke-width="3.0" fill="none" stroke="rgb(0, 0, 0)" stroke-opacity="1.0" stroke-linecap="round" stroke-linejoin="round"/>
    <path d="M 142.15805053710938 118.21984100341797 C 189.53074645996094 113.94515228271484 127.22018432617188 114.26333618164062 166.62364196777344 106.00321197509766" stroke-width="3.0" fill="none" stroke="rgb(0, 0, 0)" stroke-opacity="1.0" stroke-linecap="round" stroke-linejoin="round"/>
    <path d="M 173.22613525390625 103.89443969726562 C 135.7377166748047 107.52918243408203 130.88165283203125 85.63142395019531 167.9672393798828 110.28913116455078" stroke-width="3.0" fill="none" stroke="rgb(0, 0, 0)" stroke-opacity="1.0" stroke-linecap="round" stroke-linejoin="round"/>
    <path d="M 152.32662963867188 111.58932495117188 C 173.45123291015625 110.9528579711914 177.45697021484375 84.3307876586914 190.5377960205078 108.63565063476562" stroke-width="3.0" fill="none" stroke="rgb(0, 0, 0)" stroke-opacity="1.0" stroke-linecap="round" stroke-linejoin="round"/>
    <path d="M 148.41024780273438 122.69666290283203 C 119.52172088623047 149.53070068359375 116.97428131103516 143.01817321777344 139.0384521484375 123.75019073486328" stroke-width="3.0" fill="none" stroke="rgb(0, 0, 0)" stroke-opacity="1.0" stroke-linecap="round" stroke-linejoin="round"/>
    <path d="M 128.6895751953125 87.0866470336914 C 167.26490783691406 101.52928924560547 199.81967163085938 96.9189682006836 156.3142852783203 89.20006561279297" stroke-width="3.0" fill="none" stroke="rgb(0, 0, 0)" stroke-opacity="1.0" stroke-linecap="round" stroke-linejoin="round"/>
    <path d="M 122.4524917602539 178.41281127929688 C 148.61471557617188 106.93263244628906 143.29888916015625 163.58206176757812 127.6890640258789 181.8724822998047" stroke-width="3.0" fill="none" stroke="rgb(0, 0, 0)" stroke-opacity="1.0" stroke-linecap="round" stroke-linejoin="round"/>
    <path d="M 129.68055725097656 135.8767547607422 C 100.92375946044922 175.68939208984375 108.88921356201172 166.59671020507812 119.27136993408203 138.4839324951172" stroke-width="3.0" fill="none" stroke="rgb(0, 0, 0)" stroke-opacity="1.0" stroke-linecap="round" stroke-linejoin="round"/>
    <path d="M 118.91871643066406 88.70443725585938 C 187.6812744140625 135.09051513671875 197.97142028808594 80.496337890625 153.12779235839844 87.94376373291016" stroke-width="3.0" fill="none" stroke="rgb(0, 0, 0)" stroke-opacity="1.0" stroke-linecap="round" stroke-linejoin="round"/>
    <path d="M 131.41375732421875 131.10400390625 C 139.8575897216797 146.3984375 131.089599609375 157.6612548828125 149.1934814453125 125.29563903808594" stroke-width="3.0" fill="none" stroke="rgb(0, 0, 0)" stroke-opacity="1.0" stroke-linecap="round" stroke-linejoin="round"/>
    <path d="M 140.20681762695312 122.60567474365234 C 189.12745666503906 111.9378433227539 154.6423797607422 110.04916381835938 140.81129455566406 99.96756744384766" stroke-width="3.0" fill="none" stroke="rgb(0, 0, 0)" stroke-opacity="1.0" stroke-linecap="round" stroke-linejoin="round"/>
    <path d="M 135.91555786132812 168.43150329589844 C 148.40061950683594 131.83938598632812 142.7169952392578 117.50559997558594 183.12100219726562 101.2346420288086" stroke-width="3.0" fill="none" stroke="rgb(0, 0, 0)" stroke-opacity="1.0" stroke-linecap="round" stroke-linejoin="round"/>
    <path d="M 136.57492065429688 137.98410034179688 C 122.10323333740234 175.01560974121094 121.53423309326172 172.64181518554688 118.583984375 186.5674591064453" stroke-width="3.0" fill="none" stroke="rgb(0, 0, 0)" stroke-opacity="1.0" stroke-linecap="round" stroke-linejoin="round"/>
    <path d="M 47.8109245300293 91.83709716796875 C 69.39014434814453 81.07927703857422 123.7171859741211 72.71562957763672 151.1796112060547 111.11550903320312" stroke-width="3.0" fill="none" stroke="rgb(0, 0, 0)" stroke-opacity="1.0" stroke-linecap="round" stroke-linejoin="round"/>
    <path d="M 34.625492095947266 83.89102172851562 C 53.899330139160156 81.81348419189453 92.97257232666016 72.39043426513672 123.19314575195312 86.69908905029297" stroke-width="3.0" fill="none" stroke="rgb(0, 0, 0)" stroke-opacity="1.0" stroke-linecap="round" stroke-linejoin="round"/>
    <path d="M 69.47480773925781 63.56962585449219 C 63.331207275390625 60.15376281738281 89.56253051757812 78.27330017089844 108.16624450683594 73.71876525878906" stroke-width="3.0" fill="none" stroke="rgb(0, 0, 0)" stroke-opacity="1.0" stroke-linecap="round" stroke-linejoin="round"/>
    <path d="M 131.34730529785156 144.22178649902344 C 120.25862121582031 155.14151000976562 112.20167541503906 152.95091247558594 139.64727783203125 141.44418334960938" stroke-width="3.0" fill="none" stroke="rgb(0, 0, 0)" stroke-opacity="1.0" stroke-linecap="round" stroke-linejoin="round"/>
    <path d="M 128.36488342285156 180.0524139404297 C 148.61990356445312 117.1506576538086 155.4933319091797 120.46826171875 153.63070678710938 119.49950408935547" stroke-width="3.0" fill="none" stroke="rgb(0, 0, 0)" stroke-opacity="1.0" stroke-linecap="round" stroke-linejoin="round"/>
    <path d="M 100.65982818603516 184.74111938476562 C 130.11453247070312 143.28663635253906 124.01976013183594 139.08518981933594 134.7174835205078 125.33273315429688" stroke-width="3.0" fill="none" stroke="rgb(0, 0, 0)" stroke-opacity="1.0" stroke-linecap="round" stroke-linejoin="round"/>
    <path d="M 127.8830795288086 166.0462646484375 C 124.55487823486328 184.8109588623047 113.17982482910156 190.53977966308594 124.6737289428711 170.74549865722656" stroke-width="3.0" fill="none" stroke="rgb(0, 0, 0)" stroke-opacity="1.0" stroke-linecap="round" stroke-linejoin="round"/>
    <path d="M 123.18507385253906 142.72750854492188 C 129.3822784423828 125.78448486328125 146.39601135253906 110.2120590209961 125.02613830566406 148.81112670898438" stroke-width="3.0" fill="none" stroke="rgb(0, 0, 0)" stroke-opacity="1.0" stroke-linecap="round" stroke-linejoin="round"/>
    <path d="M 183.13340759277344 99.76190948486328 C 167.98931884765625 106.841796875 146.21873474121094 97.13945007324219 118.54278564453125 83.78793334960938" stroke-width="3.0" fill="none" stroke="rgb(0, 0, 0)" stroke-opacity="1.0" stroke-linecap="round" stroke-linejoin="round"/>
    <path d="M 132.89764404296875 146.27027893066406 C 167.3535919189453 107.67390441894531 124.99989318847656 111.18484497070312 112.99497985839844 156.53268432617188" stroke-width="3.0" fill="none" stroke="rgb(0, 0, 0)" stroke-opacity="1.0" stroke-linecap="round" stroke-linejoin="round"/>
    <path d="M 105.14628601074219 78.01483154296875 C 56.37180709838867 81.03392028808594 102.27780151367188 68.51514434814453 168.53402709960938 100.72064208984375" stroke-width="3.0" fill="none" stroke="rgb(0, 0, 0)" stroke-opacity="1.0" stroke-linecap="round" stroke-linejoin="round"/>
    <path d="M 124.35708618164062 143.2986602783203 C 161.9637908935547 123.12976837158203 127.66337585449219 141.33335876464844 144.2369842529297 137.023193359375" stroke-width="3.0" fill="none" stroke="rgb(0, 0, 0)" stroke-opacity="1.0" stroke-linecap="round" stroke-linejoin="round"/>
    <path d="M 42.6391716003418 63.02691650390625 C 54.704288482666016 71.93348693847656 109.2562484741211 76.0663833618164 113.89644622802734 80.72947692871094" stroke-width="3.0" fill="none" stroke="rgb(0, 0, 0)" stroke-opacity="1.0" stroke-linecap="round" stroke-linejoin="round"/>
    <path d="M 106.35726928710938 188.3107147216797 C 123.82327270507812 173.50926208496094 118.9649658203125 152.09727478027344 142.3050079345703 130.82843017578125" stroke-width="3.0" fill="none" stroke="rgb(0, 0, 0)" stroke-opacity="1.0" stroke-linecap="round" stroke-linejoin="round"/>
    <path d="M 188.69888305664062 108.59297180175781 C 140.16656494140625 89.87602233886719 122.2872543334961 91.6478271484375 166.0535125732422 104.59785461425781" stroke-width="3.0" fill="none" stroke="rgb(0, 0, 0)" stroke-opacity="1.0" stroke-linecap="round" stroke-linejoin="round"/>
    <path d="M 189.89210510253906 109.93980407714844 C 176.87425231933594 90.72505187988281 172.2416534423828 107.20646667480469 136.2235565185547 102.12464904785156" stroke-width="3.0" fill="none" stroke="rgb(0, 0, 0)" stroke-opacity="1.0" stroke-linecap="round" stroke-linejoin="round"/>
    <path d="M 108.69376373291016 80.71748352050781 C 160.41256713867188 82.70948028564453 141.136474609375 101.54126739501953 162.0033416748047 111.93315887451172" stroke-width="3.0" fill="none" stroke="rgb(0, 0, 0)" stroke-opacity="1.0" stroke-linecap="round" stroke-linejoin="round"/>
    <path d="M 153.2197265625 121.89529418945312 C 105.92842102050781 148.5525665283203 117.06969451904297 140.61856079101562 146.66526794433594 123.07108306884766" stroke-width="3.0" fill="none" stroke="rgb(0, 0, 0)" stroke-opacity="1.0" stroke-linecap="round" stroke-linejoin="round"/>
  </g>
</svg>
