<?xml version="1.0" ?>
<svg xmlns="http://www.w3.org/2000/svg" version="1.1" width="224" height="224">
  <defs/>
  <g>
    <path d="M 140.80030822753906 109.64598083496094 C 190.9662628173828 122.4759750366211 152.3713836669922 111.58417510986328 129.93357849121094 129.03871154785156" stroke-width="3.0" fill="none" stroke="rgb(0, 0, 0)" stroke-opacity="1.0" stroke-linecap="round" stroke-linejoin="round"/>
    <path d="M 136.5467071533203 134.7768096923828 C 155.49668884277344 116.2747802734375 132.1358642578125 120.60087585449219 127.86394500732422 149.9541473388672" stroke-width="3.0" fill="none" stroke="rgb(0, 0, 0)" stroke-opacity="1.0" stroke-linecap="round" stroke-linejoin="round"/>
    <path d="M 151.43576049804688 123.68968963623047 C 171.44122314453125 108.42963409423828 144.20614624023438 119.78143310546875 161.10269165039062 109.73023986816406" stroke-width="3.0" fill="none" stroke="rgb(0, 0, 0)" stroke-opacity="1.0" stroke-linecap="round" stroke-linejoin="round"/>
    <path d="M 160.49252319335938 107.83033752441406 C 142.55274963378906 113.38585662841797 125.13304138183594 83.81779479980469 155.52587890625 108.07366180419922" stroke-width="3.0" fill="none" stroke="rgb(0, 0, 0)" stroke-opacity="1.0" stroke-linecap="round" stroke-linejoin="round"/>
    <path d="M 162.20245361328125 117.24108123779297 C 184.58990478515625 108.28194427490234 172.7224578857422 79.9318618774414 190.44761657714844 105.95804595947266" stroke-width="3.0" fill="none" stroke="rgb(0, 0, 0)" stroke-opacity="1.0" stroke-linecap="round" stroke-linejoin="round"/>
    <path d="M 147.59910583496094 120.8501205444336 C 127.8763656616211 158.78172302246094 117.32638549804688 151.00411987304688 144.60433959960938 133.4347686767578" stroke-width="3.0" fill="none" stroke="rgb(0, 0, 0)" stroke-opacity="1.0" stroke-linecap="round" stroke-linejoin="round"/>
    <path d="M 143.15399169921875 85.07894897460938 C 167.5145721435547 101.65985870361328 207.4589385986328 97.19171142578125 163.7700958251953 98.6221694946289" stroke-width="3.0" fill="none" stroke="rgb(0, 0, 0)" stroke-opacity="1.0" stroke-linecap="round" stroke-linejoin="round"/>
    <path d="M 123.6928939819336 176.5616455078125 C 139.5982208251953 119.53540802001953 146.17007446289062 161.94851684570312 129.6723175048828 180.42767333984375" stroke-width="3.0" fill="none" stroke="rgb(0, 0, 0)" stroke-opacity="1.0" stroke-linecap="round" stroke-linejoin="round"/>
    <path d="M 127.67874908447266 140.9998321533203 C 102.36054229736328 188.00502014160156 105.32855987548828 168.39117431640625 119.51423645019531 144.16456604003906" stroke-width="3.0" fill="none" stroke="rgb(0, 0, 0)" stroke-opacity="1.0" stroke-linecap="round" stroke-linejoin="round"/>
    <path d="M 131.68319702148438 85.26510620117188 C 201.5970916748047 120.78108978271484 190.2090606689453 85.37105560302734 157.3255615234375 88.12339782714844" stroke-width="3.0" fill="none" stroke="rgb(0, 0, 0)" stroke-opacity="1.0" stroke-linecap="round" stroke-linejoin="round"/>
    <path d="M 134.263671875 141.80555725097656 C 130.4980926513672 143.44752502441406 140.53074645996094 160.46353149414062 148.828125 124.25978088378906" stroke-width="3.0" fill="none" stroke="rgb(0, 0, 0)" stroke-opacity="1.0" stroke-linecap="round" stroke-linejoin="round"/>
    <path d="M 140.63478088378906 109.75181579589844 C 184.93341064453125 114.42932891845703 164.50790405273438 119.61740112304688 135.29623413085938 105.8189468383789" stroke-width="3.0" fill="none" stroke="rgb(0, 0, 0)" stroke-opacity="1.0" stroke-linecap="round" stroke-linejoin="round"/>
    <path d="M 136.63392639160156 165.28237915039062 C 145.42417907714844 135.39834594726562 146.77516174316406 125.8138198852539 167.62689208984375 108.43374633789062" stroke-width="3.0" fill="none" stroke="rgb(0, 0, 0)" stroke-opacity="1.0" stroke-linecap="round" stroke-linejoin="round"/>
    <path d="M 139.0615997314453 147.85552978515625 C 121.82425689697266 179.4046173095703 125.070556640625 176.92552185058594 118.56124877929688 185.22128295898438" stroke-width="3.0" fill="none" stroke="rgb(0, 0, 0)" stroke-opacity="1.0" stroke-linecap="round" stroke-linejoin="round"/>
    <path d="M 49.240257263183594 94.0657730102539 C 75.73119354248047 81.35514831542969 121.18550109863281 71.3104248046875 150.73660278320312 91.95352172851562" stroke-width="3.0" fill="none" stroke="rgb(0, 0, 0)" stroke-opacity="1.0" stroke-linecap="round" stroke-linejoin="round"/>
    <path d="M 33.367088317871094 85.93807983398438 C 53.043373107910156 83.28717041015625 75.46304321289062 78.71109008789062 106.49864959716797 78.60360717773438" stroke-width="3.0" fill="none" stroke="rgb(0, 0, 0)" stroke-opacity="1.0" stroke-linecap="round" stroke-linejoin="round"/>
    <path d="M 62.40828323364258 57.30744171142578 C 60.591339111328125 56.20351028442383 77.99179077148438 75.28202819824219 105.1835708618164 74.31130981445312" stroke-width="3.0" fill="none" stroke="rgb(0, 0, 0)" stroke-opacity="1.0" stroke-linecap="round" stroke-linejoin="round"/>
    <path d="M 121.18109130859375 137.78102111816406 C 114.53701782226562 154.73403930664062 103.30814361572266 150.30548095703125 133.38870239257812 139.44725036621094" stroke-width="3.0" fill="none" stroke="rgb(0, 0, 0)" stroke-opacity="1.0" stroke-linecap="round" stroke-linejoin="round"/>
    <path d="M 130.6096954345703 179.2488250732422 C 145.57789611816406 129.0185089111328 142.9067840576172 142.12112426757812 127.75032806396484 130.54945373535156" stroke-width="3.0" fill="none" stroke="rgb(0, 0, 0)" stroke-opacity="1.0" stroke-linecap="round" stroke-linejoin="round"/>
    <path d="M 99.7764892578125 185.7886505126953 C 125.69867706298828 143.24191284179688 123.03141021728516 144.51377868652344 136.5959014892578 136.39675903320312" stroke-width="3.0" fill="none" stroke="rgb(0, 0, 0)" stroke-opacity="1.0" stroke-linecap="round" stroke-linejoin="round"/>
    <path d="M 125.74310302734375 169.8674774169922 C 115.90635681152344 179.53524780273438 118.75810241699219 197.88047790527344 126.99565124511719 164.7299041748047" stroke-width="3.0" fill="none" stroke="rgb(0, 0, 0)" stroke-opacity="1.0" stroke-linecap="round" stroke-linejoin="round"/>
    <path d="M 115.99496459960938 144.18173217773438 C 127.07283020019531 134.65769958496094 141.37452697753906 117.39471435546875 120.62493133544922 143.97982788085938" stroke-width="3.0" fill="none" stroke="rgb(0, 0, 0)" stroke-opacity="1.0" stroke-linecap="round" stroke-linejoin="round"/>
    <path d="M 156.75729370117188 113.53470611572266 C 160.24398803710938 107.7146224975586 136.6468048095703 101.2513427734375 127.62814331054688 85.57874298095703" stroke-width="3.0" fill="none" stroke="rgb(0, 0, 0)" stroke-opacity="1.0" stroke-linecap="round" stroke-linejoin="round"/>
    <path d="M 137.27001953125 152.12937927246094 C 153.52296447753906 117.95855712890625 124.4605712890625 118.89608001708984 115.86334991455078 149.10279846191406" stroke-width="3.0" fill="none" stroke="rgb(0, 0, 0)" stroke-opacity="1.0" stroke-linecap="round" stroke-linejoin="round"/>
    <path d="M 101.80489349365234 75.12152862548828 C 58.88612747192383 92.34114837646484 106.35475158691406 65.61556243896484 153.2064208984375 102.85054779052734" stroke-width="3.0" fill="none" stroke="rgb(0, 0, 0)" stroke-opacity="1.0" stroke-linecap="round" stroke-linejoin="round"/>
    <path d="M 138.47279357910156 147.3371124267578 C 146.88681030273438 119.6770248413086 119.6131820678711 130.2353973388672 134.07569885253906 146.4459991455078" stroke-width="3.0" fill="none" stroke="rgb(0, 0, 0)" stroke-opacity="1.0" stroke-linecap="round" stroke-linejoin="round"/>
    <path d="M 42.774112701416016 63.867774963378906 C 51.60213851928711 72.57102966308594 102.06610107421875 73.89595794677734 109.08648681640625 82.95817565917969" stroke-width="3.0" fill="none" stroke="rgb(0, 0, 0)" stroke-opacity="1.0" stroke-linecap="round" stroke-linejoin="round"/>
    <path d="M 106.3017807006836 186.96676635742188 C 126.05999755859375 165.66888427734375 115.69081115722656 157.4683380126953 141.3201904296875 137.70343017578125" stroke-width="3.0" fill="none" stroke="rgb(0, 0, 0)" stroke-opacity="1.0" stroke-linecap="round" stroke-linejoin="round"/>
    <path d="M 184.84896850585938 97.2785415649414 C 140.12716674804688 91.90313720703125 126.11634063720703 102.8536605834961 171.43597412109375 109.13768768310547" stroke-width="3.0" fill="none" stroke="rgb(0, 0, 0)" stroke-opacity="1.0" stroke-linecap="round" stroke-linejoin="round"/>
    <path d="M 190.32382202148438 107.56612396240234 C 183.16258239746094 100.76557159423828 184.5943145751953 103.17340850830078 157.38661193847656 115.3775405883789" stroke-width="3.0" fill="none" stroke="rgb(0, 0, 0)" stroke-opacity="1.0" stroke-linecap="round" stroke-linejoin="round"/>
    <path d="M 118.62108612060547 82.48908996582031 C 157.72769165039062 77.6897964477539 134.94198608398438 98.59153747558594 179.79510498046875 94.9717788696289" stroke-width="3.0" fill="none" stroke="rgb(0, 0, 0)" stroke-opacity="1.0" stroke-linecap="round" stroke-linejoin="round"/>
    <path d="M 151.59451293945312 124.14666748046875 C 106.37060546875 156.9839324951172 114.36959075927734 146.86863708496094 141.1672821044922 129.23147583007812" stroke-width="3.0" fill="none" stroke="rgb(0, 0, 0)" stroke-opacity="1.0" stroke-linecap="round" stroke-linejoin="round"/>
  </g>
</svg>
