<?xml version="1.0" ?>
<svg xmlns="http://www.w3.org/2000/svg" version="1.1" width="224" height="224">
  <defs/>
  <g>
    <path d="M 140.58010864257812 110.20402526855469 C 183.1866912841797 127.46279907226562 148.7604522705078 110.51273345947266 129.69920349121094 129.1987762451172" stroke-width="3.0" fill="none" stroke="rgb(0, 0, 0)" stroke-opacity="1.0" stroke-linecap="round" stroke-linejoin="round"/>
    <path d="M 135.73580932617188 134.15040588378906 C 155.37802124023438 116.26921844482422 133.04942321777344 121.72409057617188 127.49742889404297 151.12306213378906" stroke-width="3.0" fill="none" stroke="rgb(0, 0, 0)" stroke-opacity="1.0" stroke-linecap="round" stroke-linejoin="round"/>
    <path d="M 149.03182983398438 124.21649932861328 C 174.7781219482422 107.68624877929688 145.83364868164062 118.32260131835938 164.30760192871094 108.2300796508789" stroke-width="3.0" fill="none" stroke="rgb(0, 0, 0)" stroke-opacity="1.0" stroke-linecap="round" stroke-linejoin="round"/>
    <path d="M 162.84706115722656 106.920654296875 C 134.90841674804688 114.6978759765625 116.72219848632812 91.98439025878906 153.59608459472656 110.27273559570312" stroke-width="3.0" fill="none" stroke="rgb(0, 0, 0)" stroke-opacity="1.0" stroke-linecap="round" stroke-linejoin="round"/>
    <path d="M 163.31991577148438 117.03851318359375 C 183.90586853027344 109.76599884033203 170.58078002929688 81.97879028320312 191.19851684570312 104.96572875976562" stroke-width="3.0" fill="none" stroke="rgb(0, 0, 0)" stroke-opacity="1.0" stroke-linecap="round" stroke-linejoin="round"/>
    <path d="M 149.01040649414062 123.91443634033203 C 128.7084197998047 159.5144805908203 120.44318389892578 153.4095916748047 143.45303344726562 131.04917907714844" stroke-width="3.0" fill="none" stroke="rgb(0, 0, 0)" stroke-opacity="1.0" stroke-linecap="round" stroke-linejoin="round"/>
    <path d="M 141.8685302734375 84.67110443115234 C 167.10145568847656 101.83404541015625 207.88807678222656 99.86251831054688 163.5640411376953 95.6652603149414" stroke-width="3.0" fill="none" stroke="rgb(0, 0, 0)" stroke-opacity="1.0" stroke-linecap="round" stroke-linejoin="round"/>
    <path d="M 123.33921813964844 174.17156982421875 C 142.18043518066406 111.12531280517578 147.61441040039062 155.0370635986328 129.19602966308594 180.2010498046875" stroke-width="3.0" fill="none" stroke="rgb(0, 0, 0)" stroke-opacity="1.0" stroke-linecap="round" stroke-linejoin="round"/>
    <path d="M 128.30755615234375 141.5535888671875 C 100.99565124511719 188.99354553222656 102.12096405029297 167.88998413085938 119.77093505859375 144.8102264404297" stroke-width="3.0" fill="none" stroke="rgb(0, 0, 0)" stroke-opacity="1.0" stroke-linecap="round" stroke-linejoin="round"/>
    <path d="M 129.48243713378906 87.59162902832031 C 199.50845336914062 122.2022705078125 188.6795196533203 86.39547729492188 158.7039031982422 88.27035522460938" stroke-width="3.0" fill="none" stroke="rgb(0, 0, 0)" stroke-opacity="1.0" stroke-linecap="round" stroke-linejoin="round"/>
    <path d="M 134.89430236816406 139.32681274414062 C 131.11346435546875 134.9434356689453 138.9146728515625 150.70965576171875 150.0783233642578 121.51271057128906" stroke-width="3.0" fill="none" stroke="rgb(0, 0, 0)" stroke-opacity="1.0" stroke-linecap="round" stroke-linejoin="round"/>
    <path d="M 145.23968505859375 109.39607238769531 C 183.76612854003906 116.65910339355469 162.00440979003906 123.9385757446289 140.1291961669922 102.39134979248047" stroke-width="3.0" fill="none" stroke="rgb(0, 0, 0)" stroke-opacity="1.0" stroke-linecap="round" stroke-linejoin="round"/>
    <path d="M 136.71331787109375 165.2598419189453 C 146.569091796875 135.05697631835938 145.0825653076172 122.03196716308594 169.15069580078125 112.0242691040039" stroke-width="3.0" fill="none" stroke="rgb(0, 0, 0)" stroke-opacity="1.0" stroke-linecap="round" stroke-linejoin="round"/>
    <path d="M 138.5618896484375 146.91542053222656 C 121.2897720336914 178.66920471191406 125.90897369384766 177.53465270996094 117.35013580322266 186.5851593017578" stroke-width="3.0" fill="none" stroke="rgb(0, 0, 0)" stroke-opacity="1.0" stroke-linecap="round" stroke-linejoin="round"/>
    <path d="M 48.53638458251953 92.9132308959961 C 68.21757507324219 80.21932220458984 123.03656768798828 73.05582427978516 147.26869201660156 93.47816467285156" stroke-width="3.0" fill="none" stroke="rgb(0, 0, 0)" stroke-opacity="1.0" stroke-linecap="round" stroke-linejoin="round"/>
    <path d="M 32.57258224487305 83.43257141113281 C 53.32598876953125 85.2834243774414 75.35287475585938 75.69171905517578 106.07178497314453 79.00439453125" stroke-width="3.0" fill="none" stroke="rgb(0, 0, 0)" stroke-opacity="1.0" stroke-linecap="round" stroke-linejoin="round"/>
    <path d="M 63.20484924316406 57.2620964050293 C 60.64046859741211 55.496768951416016 81.61378479003906 77.47512817382812 109.55048370361328 74.81977844238281" stroke-width="3.0" fill="none" stroke="rgb(0, 0, 0)" stroke-opacity="1.0" stroke-linecap="round" stroke-linejoin="round"/>
    <path d="M 122.12604522705078 138.942626953125 C 114.27987670898438 155.0103759765625 104.98172760009766 151.6724090576172 133.57017517089844 138.94631958007812" stroke-width="3.0" fill="none" stroke="rgb(0, 0, 0)" stroke-opacity="1.0" stroke-linecap="round" stroke-linejoin="round"/>
    <path d="M 129.77120971679688 178.12913513183594 C 148.27589416503906 131.218505859375 144.05404663085938 142.4958038330078 129.97694396972656 130.39315795898438" stroke-width="3.0" fill="none" stroke="rgb(0, 0, 0)" stroke-opacity="1.0" stroke-linecap="round" stroke-linejoin="round"/>
    <path d="M 99.23454284667969 185.67213439941406 C 124.27239990234375 142.13404846191406 123.3116226196289 144.68418884277344 137.84686279296875 134.95912170410156" stroke-width="3.0" fill="none" stroke="rgb(0, 0, 0)" stroke-opacity="1.0" stroke-linecap="round" stroke-linejoin="round"/>
    <path d="M 126.62405395507812 169.6688232421875 C 118.27289581298828 181.87351989746094 114.69931030273438 196.0307159423828 126.08185577392578 162.35044860839844" stroke-width="3.0" fill="none" stroke="rgb(0, 0, 0)" stroke-opacity="1.0" stroke-linecap="round" stroke-linejoin="round"/>
    <path d="M 116.5022964477539 144.31214904785156 C 127.05458068847656 134.30923461914062 141.77122497558594 117.73728942871094 121.03797912597656 144.570068359375" stroke-width="3.0" fill="none" stroke="rgb(0, 0, 0)" stroke-opacity="1.0" stroke-linecap="round" stroke-linejoin="round"/>
    <path d="M 157.0420684814453 113.524658203125 C 160.89710998535156 107.47919464111328 138.0476837158203 100.37578582763672 123.97416687011719 86.4859390258789" stroke-width="3.0" fill="none" stroke="rgb(0, 0, 0)" stroke-opacity="1.0" stroke-linecap="round" stroke-linejoin="round"/>
    <path d="M 135.4675750732422 151.60391235351562 C 155.0001983642578 120.0067367553711 125.2190933227539 120.1846694946289 114.1851577758789 148.1612548828125" stroke-width="3.0" fill="none" stroke="rgb(0, 0, 0)" stroke-opacity="1.0" stroke-linecap="round" stroke-linejoin="round"/>
    <path d="M 104.48600769042969 76.04854583740234 C 60.211997985839844 95.40233612060547 105.22653198242188 66.9488525390625 151.07508850097656 105.16720581054688" stroke-width="3.0" fill="none" stroke="rgb(0, 0, 0)" stroke-opacity="1.0" stroke-linecap="round" stroke-linejoin="round"/>
    <path d="M 136.97549438476562 145.60809326171875 C 145.62120056152344 119.10283660888672 119.01956176757812 130.5840606689453 135.33953857421875 147.27587890625" stroke-width="3.0" fill="none" stroke="rgb(0, 0, 0)" stroke-opacity="1.0" stroke-linecap="round" stroke-linejoin="round"/>
    <path d="M 42.65479278564453 63.25912857055664 C 51.96103286743164 70.86470031738281 103.0486831665039 74.4520492553711 110.18082427978516 80.65838623046875" stroke-width="3.0" fill="none" stroke="rgb(0, 0, 0)" stroke-opacity="1.0" stroke-linecap="round" stroke-linejoin="round"/>
    <path d="M 105.8924560546875 187.31179809570312 C 126.29779815673828 167.9164581298828 114.42879486083984 156.59371948242188 142.50961303710938 138.30921936035156" stroke-width="3.0" fill="none" stroke="rgb(0, 0, 0)" stroke-opacity="1.0" stroke-linecap="round" stroke-linejoin="round"/>
    <path d="M 185.18084716796875 98.91679382324219 C 139.22842407226562 95.02457427978516 124.28221130371094 106.5324478149414 170.8094024658203 104.34117126464844" stroke-width="3.0" fill="none" stroke="rgb(0, 0, 0)" stroke-opacity="1.0" stroke-linecap="round" stroke-linejoin="round"/>
    <path d="M 191.40074157714844 107.14242553710938 C 183.31893920898438 98.1339111328125 184.88525390625 102.12971496582031 157.8013458251953 114.9015121459961" stroke-width="3.0" fill="none" stroke="rgb(0, 0, 0)" stroke-opacity="1.0" stroke-linecap="round" stroke-linejoin="round"/>
    <path d="M 118.15577697753906 83.25418853759766 C 155.4947967529297 79.28373718261719 133.81439208984375 100.44731903076172 179.28207397460938 94.8831787109375" stroke-width="3.0" fill="none" stroke="rgb(0, 0, 0)" stroke-opacity="1.0" stroke-linecap="round" stroke-linejoin="round"/>
    <path d="M 148.2661590576172 122.47723388671875 C 104.7386245727539 154.74935913085938 113.88575744628906 146.17652893066406 142.22894287109375 129.81198120117188" stroke-width="3.0" fill="none" stroke="rgb(0, 0, 0)" stroke-opacity="1.0" stroke-linecap="round" stroke-linejoin="round"/>
  </g>
</svg>
