<?xml version="1.0" ?>
<svg xmlns="http://www.w3.org/2000/svg" version="1.1" width="224" height="224">
  <defs/>
  <g>
    <path d="M 139.6554718017578 115.64037322998047 C 163.06044006347656 109.79712677001953 152.0633544921875 118.99932861328125 151.58242797851562 127.04988098144531" stroke-width="3.0" fill="none" stroke="rgb(0, 0, 0)" stroke-opacity="1.0" stroke-linecap="round" stroke-linejoin="round"/>
    <path d="M 141.00540161132812 149.75326538085938 C 140.40467834472656 128.61148071289062 135.29156494140625 131.56040954589844 140.3106689453125 152.00689697265625" stroke-width="3.0" fill="none" stroke="rgb(0, 0, 0)" stroke-opacity="1.0" stroke-linecap="round" stroke-linejoin="round"/>
    <path d="M 153.20730590820312 125.03030395507812 C 154.83914184570312 121.79205322265625 153.62811279296875 122.73047637939453 149.27468872070312 130.81947326660156" stroke-width="3.0" fill="none" stroke="rgb(0, 0, 0)" stroke-opacity="1.0" stroke-linecap="round" stroke-linejoin="round"/>
    <path d="M 148.78408813476562 121.69847106933594 C 150.70281982421875 127.57135009765625 147.9776153564453 133.02545166015625 152.43719482421875 125.65196228027344" stroke-width="3.0" fill="none" stroke="rgb(0, 0, 0)" stroke-opacity="1.0" stroke-linecap="round" stroke-linejoin="round"/>
    <path d="M 162.48190307617188 114.75406646728516 C 160.86447143554688 87.72991180419922 158.13067626953125 88.47901153564453 158.06024169921875 107.37081146240234" stroke-width="3.0" fill="none" stroke="rgb(0, 0, 0)" stroke-opacity="1.0" stroke-linecap="round" stroke-linejoin="round"/>
    <path d="M 137.5498504638672 120.24560546875 C 125.57953643798828 130.6613311767578 129.420654296875 137.0199737548828 134.18055725097656 125.52041625976562" stroke-width="3.0" fill="none" stroke="rgb(0, 0, 0)" stroke-opacity="1.0" stroke-linecap="round" stroke-linejoin="round"/>
    <path d="M 156.0838165283203 101.21802520751953 C 158.10012817382812 104.30442810058594 164.8484344482422 114.17860412597656 160.47219848632812 113.41651153564453" stroke-width="3.0" fill="none" stroke="rgb(0, 0, 0)" stroke-opacity="1.0" stroke-linecap="round" stroke-linejoin="round"/>
    <path d="M 124.36647033691406 164.91159057617188 C 127.9924087524414 149.9485626220703 126.23218536376953 159.905517578125 129.3217010498047 176.8882293701172" stroke-width="3.0" fill="none" stroke="rgb(0, 0, 0)" stroke-opacity="1.0" stroke-linecap="round" stroke-linejoin="round"/>
    <path d="M 115.22403717041016 167.9966278076172 C 106.741943359375 191.30809020996094 111.17668914794922 179.89813232421875 113.67082977294922 170.6225128173828" stroke-width="3.0" fill="none" stroke="rgb(0, 0, 0)" stroke-opacity="1.0" stroke-linecap="round" stroke-linejoin="round"/>
    <path d="M 155.4508514404297 105.04710388183594 C 173.34375 111.64408111572266 167.7920684814453 117.25514221191406 158.5789794921875 103.59162902832031" stroke-width="3.0" fill="none" stroke="rgb(0, 0, 0)" stroke-opacity="1.0" stroke-linecap="round" stroke-linejoin="round"/>
    <path d="M 133.2461700439453 146.259765625 C 132.07632446289062 150.76779174804688 142.7955322265625 162.34002685546875 139.53489685058594 156.52859497070312" stroke-width="3.0" fill="none" stroke="rgb(0, 0, 0)" stroke-opacity="1.0" stroke-linecap="round" stroke-linejoin="round"/>
    <path d="M 152.93482971191406 122.17633056640625 C 172.47979736328125 121.97264099121094 167.35646057128906 116.67798614501953 150.9658966064453 101.67462921142578" stroke-width="3.0" fill="none" stroke="rgb(0, 0, 0)" stroke-opacity="1.0" stroke-linecap="round" stroke-linejoin="round"/>
    <path d="M 141.55389404296875 141.07962036132812 C 140.68084716796875 130.03848266601562 146.06295776367188 120.60079193115234 154.1094970703125 119.93785095214844" stroke-width="3.0" fill="none" stroke="rgb(0, 0, 0)" stroke-opacity="1.0" stroke-linecap="round" stroke-linejoin="round"/>
    <path d="M 124.89094543457031 166.14520263671875 C 119.44342803955078 176.78150939941406 124.15446472167969 176.404052734375 117.75221252441406 177.35003662109375" stroke-width="3.0" fill="none" stroke="rgb(0, 0, 0)" stroke-opacity="1.0" stroke-linecap="round" stroke-linejoin="round"/>
    <path d="M 78.49598693847656 81.91944885253906 C 84.17936706542969 83.22650146484375 103.41339874267578 79.91836547851562 103.18194580078125 80.17748260498047" stroke-width="3.0" fill="none" stroke="rgb(0, 0, 0)" stroke-opacity="1.0" stroke-linecap="round" stroke-linejoin="round"/>
    <path d="M 44.42405319213867 92.68306732177734 C 61.1380615234375 84.58296203613281 64.7531509399414 85.5888671875 73.26378631591797 81.68184661865234" stroke-width="3.0" fill="none" stroke="rgb(0, 0, 0)" stroke-opacity="1.0" stroke-linecap="round" stroke-linejoin="round"/>
    <path d="M 43.670623779296875 69.54854583740234 C 59.03432846069336 69.28983306884766 50.48480987548828 65.18537139892578 72.15497589111328 62.5587272644043" stroke-width="3.0" fill="none" stroke="rgb(0, 0, 0)" stroke-opacity="1.0" stroke-linecap="round" stroke-linejoin="round"/>
    <path d="M 123.27793884277344 147.3670654296875 C 109.88232421875 157.69863891601562 111.614013671875 168.4335174560547 120.7367172241211 150.23240661621094" stroke-width="3.0" fill="none" stroke="rgb(0, 0, 0)" stroke-opacity="1.0" stroke-linecap="round" stroke-linejoin="round"/>
    <path d="M 138.42062377929688 161.83749389648438 C 138.8458709716797 154.9618377685547 139.20457458496094 148.97024536132812 135.1101531982422 144.3356170654297" stroke-width="3.0" fill="none" stroke="rgb(0, 0, 0)" stroke-opacity="1.0" stroke-linecap="round" stroke-linejoin="round"/>
    <path d="M 122.51809692382812 168.650390625 C 130.02679443359375 159.21542358398438 127.0669937133789 158.2351837158203 127.94136810302734 149.43435668945312" stroke-width="3.0" fill="none" stroke="rgb(0, 0, 0)" stroke-opacity="1.0" stroke-linecap="round" stroke-linejoin="round"/>
    <path d="M 118.51737976074219 172.6799774169922 C 119.51786041259766 175.16943359375 110.28074645996094 190.2766876220703 121.2272720336914 179.59649658203125" stroke-width="3.0" fill="none" stroke="rgb(0, 0, 0)" stroke-opacity="1.0" stroke-linecap="round" stroke-linejoin="round"/>
    <path d="M 134.80880737304688 169.73033142089844 C 128.59817504882812 143.93801879882812 133.41876220703125 125.68455505371094 139.34500122070312 155.32981872558594" stroke-width="3.0" fill="none" stroke="rgb(0, 0, 0)" stroke-opacity="1.0" stroke-linecap="round" stroke-linejoin="round"/>
    <path d="M 141.271240234375 111.0599594116211 C 147.454345703125 101.13134765625 138.0220489501953 109.17658233642578 128.67794799804688 93.05523681640625" stroke-width="3.0" fill="none" stroke="rgb(0, 0, 0)" stroke-opacity="1.0" stroke-linecap="round" stroke-linejoin="round"/>
    <path d="M 127.07046508789062 144.93992614746094 C 127.39681243896484 132.7562713623047 127.70497131347656 135.31600952148438 116.80517578125 149.43743896484375" stroke-width="3.0" fill="none" stroke="rgb(0, 0, 0)" stroke-opacity="1.0" stroke-linecap="round" stroke-linejoin="round"/>
    <path d="M 90.21099853515625 77.58671569824219 C 81.8055191040039 77.6843490600586 97.01718139648438 75.2492446899414 122.94729614257812 84.16172790527344" stroke-width="3.0" fill="none" stroke="rgb(0, 0, 0)" stroke-opacity="1.0" stroke-linecap="round" stroke-linejoin="round"/>
    <path d="M 141.8238525390625 127.2453842163086 C 144.74774169921875 125.12540435791016 131.3800811767578 139.6604766845703 133.22988891601562 149.1279754638672" stroke-width="3.0" fill="none" stroke="rgb(0, 0, 0)" stroke-opacity="1.0" stroke-linecap="round" stroke-linejoin="round"/>
    <path d="M 69.83674621582031 83.79277038574219 C 76.41870880126953 81.743408203125 75.08820343017578 84.09798431396484 82.91243743896484 77.68960571289062" stroke-width="3.0" fill="none" stroke="rgb(0, 0, 0)" stroke-opacity="1.0" stroke-linecap="round" stroke-linejoin="round"/>
    <path d="M 104.08064270019531 174.7672119140625 C 118.25538635253906 158.80966186523438 107.40935516357422 169.13880920410156 118.87144470214844 158.78448486328125" stroke-width="3.0" fill="none" stroke="rgb(0, 0, 0)" stroke-opacity="1.0" stroke-linecap="round" stroke-linejoin="round"/>
    <path d="M 164.74447631835938 111.17963409423828 C 160.9171600341797 89.93639373779297 159.90179443359375 95.71241760253906 158.9518585205078 106.00804138183594" stroke-width="3.0" fill="none" stroke="rgb(0, 0, 0)" stroke-opacity="1.0" stroke-linecap="round" stroke-linejoin="round"/>
    <path d="M 187.8378448486328 100.7219467163086 C 173.33741760253906 115.95509338378906 170.79544067382812 107.91834259033203 164.80899047851562 119.49224853515625" stroke-width="3.0" fill="none" stroke="rgb(0, 0, 0)" stroke-opacity="1.0" stroke-linecap="round" stroke-linejoin="round"/>
    <path d="M 127.62360382080078 81.69817352294922 C 140.42724609375 94.30550384521484 146.6907196044922 88.36397552490234 148.99288940429688 100.56291961669922" stroke-width="3.0" fill="none" stroke="rgb(0, 0, 0)" stroke-opacity="1.0" stroke-linecap="round" stroke-linejoin="round"/>
    <path d="M 123.33637237548828 140.44541931152344 C 119.99130249023438 145.0592041015625 121.88702392578125 142.1619873046875 127.56773376464844 134.1564178466797" stroke-width="3.0" fill="none" stroke="rgb(0, 0, 0)" stroke-opacity="1.0" stroke-linecap="round" stroke-linejoin="round"/>
  </g>
</svg>
