<?xml version="1.0" ?>
<svg xmlns="http://www.w3.org/2000/svg" version="1.1" width="224" height="224">
  <defs/>
  <g>
    <path d="M 137.10549926757812 106.5235824584961 C 179.47608947753906 130.21572875976562 148.6604461669922 111.239501953125 128.5048828125 130.03878784179688" stroke-width="3.0" fill="none" stroke="rgb(0, 0, 0)" stroke-opacity="1.0" stroke-linecap="round" stroke-linejoin="round"/>
    <path d="M 135.89295959472656 132.4745330810547 C 157.77078247070312 114.1003646850586 134.8494415283203 120.5068588256836 125.32058715820312 148.760498046875" stroke-width="3.0" fill="none" stroke="rgb(0, 0, 0)" stroke-opacity="1.0" stroke-linecap="round" stroke-linejoin="round"/>
    <path d="M 150.1531982421875 124.14527130126953 C 175.52523803710938 108.42223358154297 143.25221252441406 116.32237243652344 164.90577697753906 115.05597686767578" stroke-width="3.0" fill="none" stroke="rgb(0, 0, 0)" stroke-opacity="1.0" stroke-linecap="round" stroke-linejoin="round"/>
    <path d="M 164.80836486816406 116.78514862060547 C 138.217529296875 108.72388458251953 118.26789093017578 96.15251159667969 158.95077514648438 110.67374420166016" stroke-width="3.0" fill="none" stroke="rgb(0, 0, 0)" stroke-opacity="1.0" stroke-linecap="round" stroke-linejoin="round"/>
    <path d="M 157.85711669921875 118.13600158691406 C 184.2874755859375 112.99849700927734 171.60401916503906 82.79022979736328 192.74256896972656 105.85566711425781" stroke-width="3.0" fill="none" stroke="rgb(0, 0, 0)" stroke-opacity="1.0" stroke-linecap="round" stroke-linejoin="round"/>
    <path d="M 147.31805419921875 119.72379302978516 C 131.79405212402344 160.41392517089844 117.75357818603516 150.61802673339844 140.18911743164062 127.7879638671875" stroke-width="3.0" fill="none" stroke="rgb(0, 0, 0)" stroke-opacity="1.0" stroke-linecap="round" stroke-linejoin="round"/>
    <path d="M 137.81329345703125 82.90419006347656 C 167.23216247558594 103.15634155273438 208.64065551757812 97.77096557617188 158.34373474121094 92.53182983398438" stroke-width="3.0" fill="none" stroke="rgb(0, 0, 0)" stroke-opacity="1.0" stroke-linecap="round" stroke-linejoin="round"/>
    <path d="M 122.39924621582031 174.48680114746094 C 145.62521362304688 114.61605834960938 146.3129119873047 158.30892944335938 129.30276489257812 181.3251953125" stroke-width="3.0" fill="none" stroke="rgb(0, 0, 0)" stroke-opacity="1.0" stroke-linecap="round" stroke-linejoin="round"/>
    <path d="M 129.1134490966797 142.3179168701172 C 96.7590103149414 193.66732788085938 99.60187530517578 175.15086364746094 120.64755249023438 145.54913330078125" stroke-width="3.0" fill="none" stroke="rgb(0, 0, 0)" stroke-opacity="1.0" stroke-linecap="round" stroke-linejoin="round"/>
    <path d="M 128.80047607421875 89.23714447021484 C 195.1929931640625 125.31632232666016 194.2491455078125 86.54814910888672 155.65719604492188 88.36908721923828" stroke-width="3.0" fill="none" stroke="rgb(0, 0, 0)" stroke-opacity="1.0" stroke-linecap="round" stroke-linejoin="round"/>
    <path d="M 135.28582763671875 139.61392211914062 C 133.8582000732422 141.81301879882812 138.46739196777344 159.65933227539062 148.4407958984375 122.53750610351562" stroke-width="3.0" fill="none" stroke="rgb(0, 0, 0)" stroke-opacity="1.0" stroke-linecap="round" stroke-linejoin="round"/>
    <path d="M 147.72271728515625 106.57487487792969 C 184.73085021972656 111.22981262207031 158.92227172851562 124.51239776611328 139.6233673095703 99.45857238769531" stroke-width="3.0" fill="none" stroke="rgb(0, 0, 0)" stroke-opacity="1.0" stroke-linecap="round" stroke-linejoin="round"/>
    <path d="M 137.71395874023438 164.06808471679688 C 146.91590881347656 134.99227905273438 146.08468627929688 122.41722869873047 173.80380249023438 106.16580200195312" stroke-width="3.0" fill="none" stroke="rgb(0, 0, 0)" stroke-opacity="1.0" stroke-linecap="round" stroke-linejoin="round"/>
    <path d="M 136.3697967529297 141.3007354736328 C 122.81025695800781 178.71426391601562 127.4330062866211 177.00242614746094 116.3481674194336 186.18519592285156" stroke-width="3.0" fill="none" stroke="rgb(0, 0, 0)" stroke-opacity="1.0" stroke-linecap="round" stroke-linejoin="round"/>
    <path d="M 48.29572677612305 93.85025787353516 C 66.06045532226562 81.34284973144531 127.12152862548828 72.64090728759766 148.61380004882812 96.17847442626953" stroke-width="3.0" fill="none" stroke="rgb(0, 0, 0)" stroke-opacity="1.0" stroke-linecap="round" stroke-linejoin="round"/>
    <path d="M 34.16101837158203 85.1429672241211 C 50.999427795410156 83.06169891357422 80.0057144165039 76.17366027832031 106.4640121459961 76.8423080444336" stroke-width="3.0" fill="none" stroke="rgb(0, 0, 0)" stroke-opacity="1.0" stroke-linecap="round" stroke-linejoin="round"/>
    <path d="M 64.0611572265625 59.28573226928711 C 60.2791633605957 56.105892181396484 83.97056579589844 76.67857360839844 109.22307586669922 74.45121002197266" stroke-width="3.0" fill="none" stroke="rgb(0, 0, 0)" stroke-opacity="1.0" stroke-linecap="round" stroke-linejoin="round"/>
    <path d="M 123.97085571289062 140.56874084472656 C 116.48192596435547 155.64646911621094 105.95013427734375 149.21546936035156 133.62892150878906 138.63226318359375" stroke-width="3.0" fill="none" stroke="rgb(0, 0, 0)" stroke-opacity="1.0" stroke-linecap="round" stroke-linejoin="round"/>
    <path d="M 130.24349975585938 179.01638793945312 C 143.68646240234375 123.30445861816406 147.12843322753906 137.15579223632812 139.80072021484375 125.46533203125" stroke-width="3.0" fill="none" stroke="rgb(0, 0, 0)" stroke-opacity="1.0" stroke-linecap="round" stroke-linejoin="round"/>
    <path d="M 98.50849914550781 185.6364288330078 C 128.21864318847656 144.96702575683594 123.77088165283203 144.3417205810547 139.64505004882812 138.32583618164062" stroke-width="3.0" fill="none" stroke="rgb(0, 0, 0)" stroke-opacity="1.0" stroke-linecap="round" stroke-linejoin="round"/>
    <path d="M 122.5573959350586 171.69754028320312 C 119.08319854736328 184.817626953125 110.73867797851562 195.99249267578125 127.16356658935547 168.79029846191406" stroke-width="3.0" fill="none" stroke="rgb(0, 0, 0)" stroke-opacity="1.0" stroke-linecap="round" stroke-linejoin="round"/>
    <path d="M 115.95880126953125 149.54783630371094 C 127.58052825927734 135.9351348876953 144.02467346191406 121.2186279296875 120.21261596679688 142.9172821044922" stroke-width="3.0" fill="none" stroke="rgb(0, 0, 0)" stroke-opacity="1.0" stroke-linecap="round" stroke-linejoin="round"/>
    <path d="M 160.05723571777344 111.8722915649414 C 163.56298828125 105.22349548339844 136.7589569091797 101.22003173828125 126.10462188720703 87.96073913574219" stroke-width="3.0" fill="none" stroke="rgb(0, 0, 0)" stroke-opacity="1.0" stroke-linecap="round" stroke-linejoin="round"/>
    <path d="M 130.11732482910156 145.46975708007812 C 156.62954711914062 118.68856811523438 126.95877075195312 119.0029525756836 114.46018981933594 152.72389221191406" stroke-width="3.0" fill="none" stroke="rgb(0, 0, 0)" stroke-opacity="1.0" stroke-linecap="round" stroke-linejoin="round"/>
    <path d="M 106.71958923339844 77.08441925048828 C 61.43981170654297 93.5421142578125 102.56059265136719 68.81095886230469 152.55511474609375 105.5691146850586" stroke-width="3.0" fill="none" stroke="rgb(0, 0, 0)" stroke-opacity="1.0" stroke-linecap="round" stroke-linejoin="round"/>
    <path d="M 139.31063842773438 149.56581115722656 C 149.47409057617188 123.58723449707031 122.64253997802734 138.29541015625 140.59681701660156 141.9076690673828" stroke-width="3.0" fill="none" stroke="rgb(0, 0, 0)" stroke-opacity="1.0" stroke-linecap="round" stroke-linejoin="round"/>
    <path d="M 42.663631439208984 62.90549087524414 C 47.52742004394531 70.21429443359375 102.89280700683594 76.58318328857422 111.26032257080078 80.22605895996094" stroke-width="3.0" fill="none" stroke="rgb(0, 0, 0)" stroke-opacity="1.0" stroke-linecap="round" stroke-linejoin="round"/>
    <path d="M 104.96804809570312 188.3362579345703 C 126.01891326904297 168.4209747314453 115.82483673095703 154.332275390625 146.89801025390625 134.60980224609375" stroke-width="3.0" fill="none" stroke="rgb(0, 0, 0)" stroke-opacity="1.0" stroke-linecap="round" stroke-linejoin="round"/>
    <path d="M 181.3635711669922 102.0031509399414 C 140.85418701171875 104.8831787109375 124.59391784667969 109.15306854248047 170.24363708496094 106.55342102050781" stroke-width="3.0" fill="none" stroke="rgb(0, 0, 0)" stroke-opacity="1.0" stroke-linecap="round" stroke-linejoin="round"/>
    <path d="M 189.4622802734375 107.44725036621094 C 183.2412109375 100.75823974609375 183.29864501953125 105.17792510986328 155.0694580078125 110.23155212402344" stroke-width="3.0" fill="none" stroke="rgb(0, 0, 0)" stroke-opacity="1.0" stroke-linecap="round" stroke-linejoin="round"/>
    <path d="M 112.73332214355469 81.50179290771484 C 158.3583221435547 80.29228973388672 136.3281707763672 101.32533264160156 181.74215698242188 97.01302337646484" stroke-width="3.0" fill="none" stroke="rgb(0, 0, 0)" stroke-opacity="1.0" stroke-linecap="round" stroke-linejoin="round"/>
    <path d="M 146.07225036621094 125.54044342041016 C 105.35299682617188 154.7469024658203 117.8597183227539 151.9307403564453 146.18690490722656 132.02056884765625" stroke-width="3.0" fill="none" stroke="rgb(0, 0, 0)" stroke-opacity="1.0" stroke-linecap="round" stroke-linejoin="round"/>
  </g>
</svg>
