<?xml version="1.0" ?>
<svg xmlns="http://www.w3.org/2000/svg" version="1.1" width="224" height="224">
  <defs/>
  <g>
    <path d="M 138.96080017089844 105.29166412353516 C 189.79981994628906 117.92817687988281 159.05740356445312 111.01871490478516 133.5113525390625 125.32176208496094" stroke-width="3.0" fill="none" stroke="rgb(0, 0, 0)" stroke-opacity="1.0" stroke-linecap="round" stroke-linejoin="round"/>
    <path d="M 135.4297332763672 152.56712341308594 C 155.22738647460938 114.18252563476562 137.1601104736328 120.18583679199219 138.8136749267578 150.33889770507812" stroke-width="3.0" fill="none" stroke="rgb(0, 0, 0)" stroke-opacity="1.0" stroke-linecap="round" stroke-linejoin="round"/>
    <path d="M 148.36407470703125 118.41368865966797 C 161.8311767578125 110.53180694580078 140.77200317382812 114.32102966308594 147.4789276123047 110.4175796508789" stroke-width="3.0" fill="none" stroke="rgb(0, 0, 0)" stroke-opacity="1.0" stroke-linecap="round" stroke-linejoin="round"/>
    <path d="M 150.9231414794922 114.63777923583984 C 147.9493865966797 111.91899871826172 128.31802368164062 103.9828109741211 145.56777954101562 106.1148452758789" stroke-width="3.0" fill="none" stroke="rgb(0, 0, 0)" stroke-opacity="1.0" stroke-linecap="round" stroke-linejoin="round"/>
    <path d="M 165.95069885253906 115.36157989501953 C 188.2910614013672 98.09272766113281 168.33245849609375 81.0288314819336 190.58651733398438 102.74198913574219" stroke-width="3.0" fill="none" stroke="rgb(0, 0, 0)" stroke-opacity="1.0" stroke-linecap="round" stroke-linejoin="round"/>
    <path d="M 140.58255004882812 126.50383758544922 C 125.56288146972656 149.01702880859375 109.50773620605469 136.6416778564453 138.07650756835938 123.2684326171875" stroke-width="3.0" fill="none" stroke="rgb(0, 0, 0)" stroke-opacity="1.0" stroke-linecap="round" stroke-linejoin="round"/>
    <path d="M 149.2679443359375 95.24662017822266 C 164.03443908691406 100.96994018554688 197.544921875 104.45487976074219 167.71022033691406 88.72766876220703" stroke-width="3.0" fill="none" stroke="rgb(0, 0, 0)" stroke-opacity="1.0" stroke-linecap="round" stroke-linejoin="round"/>
    <path d="M 123.59679412841797 177.7252960205078 C 141.94764709472656 124.77023315429688 148.6011199951172 146.4272918701172 128.90216064453125 180.7158966064453" stroke-width="3.0" fill="none" stroke="rgb(0, 0, 0)" stroke-opacity="1.0" stroke-linecap="round" stroke-linejoin="round"/>
    <path d="M 130.13714599609375 151.55322265625 C 112.56637573242188 182.35047912597656 114.57901000976562 164.5205841064453 122.6290054321289 158.47348022460938" stroke-width="3.0" fill="none" stroke="rgb(0, 0, 0)" stroke-opacity="1.0" stroke-linecap="round" stroke-linejoin="round"/>
    <path d="M 149.48822021484375 91.8552474975586 C 186.28614807128906 112.92080688476562 179.09573364257812 82.9103012084961 152.05406188964844 89.6940689086914" stroke-width="3.0" fill="none" stroke="rgb(0, 0, 0)" stroke-opacity="1.0" stroke-linecap="round" stroke-linejoin="round"/>
    <path d="M 139.2034912109375 145.74510192871094 C 133.32286071777344 132.3817901611328 140.3860626220703 149.41506958007812 133.7880401611328 149.9348602294922" stroke-width="3.0" fill="none" stroke="rgb(0, 0, 0)" stroke-opacity="1.0" stroke-linecap="round" stroke-linejoin="round"/>
    <path d="M 149.82861328125 110.5235366821289 C 181.60914611816406 103.70817565917969 164.02210998535156 118.82305145263672 140.17080688476562 105.03182983398438" stroke-width="3.0" fill="none" stroke="rgb(0, 0, 0)" stroke-opacity="1.0" stroke-linecap="round" stroke-linejoin="round"/>
    <path d="M 136.67636108398438 163.61187744140625 C 145.24826049804688 133.86936950683594 145.41104125976562 122.80888366699219 165.29885864257812 106.8169174194336" stroke-width="3.0" fill="none" stroke="rgb(0, 0, 0)" stroke-opacity="1.0" stroke-linecap="round" stroke-linejoin="round"/>
    <path d="M 133.51138305664062 149.97515869140625 C 123.14413452148438 178.84120178222656 124.14754486083984 170.5366973876953 120.33528137207031 179.7294921875" stroke-width="3.0" fill="none" stroke="rgb(0, 0, 0)" stroke-opacity="1.0" stroke-linecap="round" stroke-linejoin="round"/>
    <path d="M 51.946842193603516 91.8442153930664 C 90.06253814697266 84.8083267211914 106.49675750732422 68.37321472167969 142.34706115722656 87.10074615478516" stroke-width="3.0" fill="none" stroke="rgb(0, 0, 0)" stroke-opacity="1.0" stroke-linecap="round" stroke-linejoin="round"/>
    <path d="M 35.706459045410156 84.42399597167969 C 57.28908920288086 78.52003479003906 73.08374786376953 77.493408203125 106.77410125732422 79.42996215820312" stroke-width="3.0" fill="none" stroke="rgb(0, 0, 0)" stroke-opacity="1.0" stroke-linecap="round" stroke-linejoin="round"/>
    <path d="M 58.15627670288086 53.47353744506836 C 58.68000030517578 53.53092575073242 73.19194030761719 71.70059204101562 104.49517822265625 75.06594848632812" stroke-width="3.0" fill="none" stroke="rgb(0, 0, 0)" stroke-opacity="1.0" stroke-linecap="round" stroke-linejoin="round"/>
    <path d="M 120.54888916015625 138.9913330078125 C 106.63614654541016 174.026611328125 97.36836242675781 169.44940185546875 126.32913970947266 143.60601806640625" stroke-width="3.0" fill="none" stroke="rgb(0, 0, 0)" stroke-opacity="1.0" stroke-linecap="round" stroke-linejoin="round"/>
    <path d="M 128.9624786376953 180.03375244140625 C 140.24575805664062 137.2921142578125 136.4658966064453 144.6158905029297 128.8734893798828 131.19776916503906" stroke-width="3.0" fill="none" stroke="rgb(0, 0, 0)" stroke-opacity="1.0" stroke-linecap="round" stroke-linejoin="round"/>
    <path d="M 101.66414642333984 178.70506286621094 C 126.11656951904297 148.10545349121094 127.4346923828125 157.24667358398438 138.2815399169922 145.48936462402344" stroke-width="3.0" fill="none" stroke="rgb(0, 0, 0)" stroke-opacity="1.0" stroke-linecap="round" stroke-linejoin="round"/>
    <path d="M 122.54610443115234 175.02603149414062 C 118.8088607788086 185.6824951171875 109.3973159790039 193.49046325683594 127.67766571044922 162.1215362548828" stroke-width="3.0" fill="none" stroke="rgb(0, 0, 0)" stroke-opacity="1.0" stroke-linecap="round" stroke-linejoin="round"/>
    <path d="M 126.67089080810547 154.7322235107422 C 127.22901916503906 131.8242950439453 136.86669921875 112.34659576416016 131.34608459472656 151.17599487304688" stroke-width="3.0" fill="none" stroke="rgb(0, 0, 0)" stroke-opacity="1.0" stroke-linecap="round" stroke-linejoin="round"/>
    <path d="M 155.41683959960938 114.83943176269531 C 152.20892333984375 110.343994140625 134.68087768554688 97.49962615966797 124.57791137695312 86.79835510253906" stroke-width="3.0" fill="none" stroke="rgb(0, 0, 0)" stroke-opacity="1.0" stroke-linecap="round" stroke-linejoin="round"/>
    <path d="M 136.99510192871094 156.6616973876953 C 144.3683624267578 122.8135757446289 123.90977478027344 122.59398651123047 109.56688690185547 155.42437744140625" stroke-width="3.0" fill="none" stroke="rgb(0, 0, 0)" stroke-opacity="1.0" stroke-linecap="round" stroke-linejoin="round"/>
    <path d="M 101.35204315185547 77.09194946289062 C 60.89727020263672 95.13255310058594 93.0042495727539 69.20606231689453 136.5763702392578 96.70382690429688" stroke-width="3.0" fill="none" stroke="rgb(0, 0, 0)" stroke-opacity="1.0" stroke-linecap="round" stroke-linejoin="round"/>
    <path d="M 135.18170166015625 136.269775390625 C 147.31300354003906 116.70632934570312 125.76131439208984 129.56764221191406 134.34619140625 147.18006896972656" stroke-width="3.0" fill="none" stroke="rgb(0, 0, 0)" stroke-opacity="1.0" stroke-linecap="round" stroke-linejoin="round"/>
    <path d="M 57.534202575683594 70.08193969726562 C 77.01595306396484 76.96856689453125 87.0560302734375 77.63697052001953 109.00848388671875 73.11797332763672" stroke-width="3.0" fill="none" stroke="rgb(0, 0, 0)" stroke-opacity="1.0" stroke-linecap="round" stroke-linejoin="round"/>
    <path d="M 101.21794891357422 186.83551025390625 C 124.53807067871094 161.96807861328125 111.44202423095703 159.9044952392578 134.33544921875 138.14498901367188" stroke-width="3.0" fill="none" stroke="rgb(0, 0, 0)" stroke-opacity="1.0" stroke-linecap="round" stroke-linejoin="round"/>
    <path d="M 184.45632934570312 96.76322937011719 C 146.76963806152344 91.26072692871094 134.94752502441406 93.88948059082031 174.37515258789062 104.84954833984375" stroke-width="3.0" fill="none" stroke="rgb(0, 0, 0)" stroke-opacity="1.0" stroke-linecap="round" stroke-linejoin="round"/>
    <path d="M 191.75189208984375 106.68840789794922 C 182.84532165527344 102.68328094482422 184.29473876953125 93.7126693725586 160.24740600585938 114.55110168457031" stroke-width="3.0" fill="none" stroke="rgb(0, 0, 0)" stroke-opacity="1.0" stroke-linecap="round" stroke-linejoin="round"/>
    <path d="M 113.89460754394531 80.96037292480469 C 152.5783233642578 77.76856994628906 134.88729858398438 94.0804443359375 177.53262329101562 91.51554107666016" stroke-width="3.0" fill="none" stroke="rgb(0, 0, 0)" stroke-opacity="1.0" stroke-linecap="round" stroke-linejoin="round"/>
    <path d="M 137.4331512451172 130.1029052734375 C 104.01211547851562 160.53770446777344 109.62476348876953 146.2171630859375 134.3917694091797 132.80389404296875" stroke-width="3.0" fill="none" stroke="rgb(0, 0, 0)" stroke-opacity="1.0" stroke-linecap="round" stroke-linejoin="round"/>
  </g>
</svg>
