<?xml version="1.0" ?>
<svg xmlns="http://www.w3.org/2000/svg" version="1.1" width="224" height="224">
  <defs/>
  <g>
    <path d="M 144.8142852783203 118.00819396972656 C 171.2917938232422 109.9068832397461 154.1129150390625 113.80846405029297 149.45205688476562 122.85456085205078" stroke-width="3.0" fill="none" stroke="rgb(0, 0, 0)" stroke-opacity="1.0" stroke-linecap="round" stroke-linejoin="round"/>
    <path d="M 139.93887329101562 154.77565002441406 C 146.71792602539062 126.29360961914062 135.73703002929688 131.23475646972656 138.31698608398438 154.04286193847656" stroke-width="3.0" fill="none" stroke="rgb(0, 0, 0)" stroke-opacity="1.0" stroke-linecap="round" stroke-linejoin="round"/>
    <path d="M 152.9303741455078 116.01364135742188 C 155.94183349609375 118.00759887695312 145.36500549316406 115.63143157958984 147.47637939453125 128.5940399169922" stroke-width="3.0" fill="none" stroke="rgb(0, 0, 0)" stroke-opacity="1.0" stroke-linecap="round" stroke-linejoin="round"/>
    <path d="M 151.08677673339844 123.97808837890625 C 150.10276794433594 121.40262603759766 144.52757263183594 129.9394989013672 148.64724731445312 122.55203247070312" stroke-width="3.0" fill="none" stroke="rgb(0, 0, 0)" stroke-opacity="1.0" stroke-linecap="round" stroke-linejoin="round"/>
    <path d="M 166.55709838867188 116.794921875 C 161.30880737304688 94.19058227539062 154.32864379882812 97.0416488647461 161.2130126953125 100.71700286865234" stroke-width="3.0" fill="none" stroke="rgb(0, 0, 0)" stroke-opacity="1.0" stroke-linecap="round" stroke-linejoin="round"/>
    <path d="M 141.3795623779297 121.63119506835938 C 122.23622131347656 133.40737915039062 125.91891479492188 139.11764526367188 137.6477508544922 125.08897399902344" stroke-width="3.0" fill="none" stroke="rgb(0, 0, 0)" stroke-opacity="1.0" stroke-linecap="round" stroke-linejoin="round"/>
    <path d="M 155.1065216064453 95.91268920898438 C 153.9921112060547 107.08724212646484 166.10487365722656 114.33353424072266 166.5683135986328 108.53620910644531" stroke-width="3.0" fill="none" stroke="rgb(0, 0, 0)" stroke-opacity="1.0" stroke-linecap="round" stroke-linejoin="round"/>
    <path d="M 124.90052032470703 163.08706665039062 C 128.45423889160156 131.24472045898438 132.38722229003906 149.3734893798828 130.67987060546875 177.04945373535156" stroke-width="3.0" fill="none" stroke="rgb(0, 0, 0)" stroke-opacity="1.0" stroke-linecap="round" stroke-linejoin="round"/>
    <path d="M 121.2483901977539 161.91464233398438 C 112.73687744140625 193.5708770751953 112.75749969482422 176.2696075439453 117.54631042480469 168.0582733154297" stroke-width="3.0" fill="none" stroke="rgb(0, 0, 0)" stroke-opacity="1.0" stroke-linecap="round" stroke-linejoin="round"/>
    <path d="M 161.61009216308594 92.6462173461914 C 183.27879333496094 112.07655334472656 175.9997100830078 112.62550354003906 159.72003173828125 100.84626007080078" stroke-width="3.0" fill="none" stroke="rgb(0, 0, 0)" stroke-opacity="1.0" stroke-linecap="round" stroke-linejoin="round"/>
    <path d="M 138.34681701660156 143.1468963623047 C 132.5324249267578 148.9989013671875 135.9060516357422 164.6062774658203 134.26681518554688 155.19935607910156" stroke-width="3.0" fill="none" stroke="rgb(0, 0, 0)" stroke-opacity="1.0" stroke-linecap="round" stroke-linejoin="round"/>
    <path d="M 151.8300018310547 116.86061096191406 C 175.3538818359375 117.8689956665039 169.2844696044922 117.49756622314453 151.312744140625 93.76360321044922" stroke-width="3.0" fill="none" stroke="rgb(0, 0, 0)" stroke-opacity="1.0" stroke-linecap="round" stroke-linejoin="round"/>
    <path d="M 140.5634307861328 151.26026916503906 C 143.91079711914062 132.62173461914062 151.85952758789062 123.4195556640625 158.56045532226562 116.3678207397461" stroke-width="3.0" fill="none" stroke="rgb(0, 0, 0)" stroke-opacity="1.0" stroke-linecap="round" stroke-linejoin="round"/>
    <path d="M 127.46748352050781 155.84400939941406 C 121.74531555175781 180.00465393066406 126.92185974121094 175.3960418701172 124.9609146118164 184.5488739013672" stroke-width="3.0" fill="none" stroke="rgb(0, 0, 0)" stroke-opacity="1.0" stroke-linecap="round" stroke-linejoin="round"/>
    <path d="M 72.97833251953125 83.55699157714844 C 80.55130004882812 81.1039047241211 104.13784790039062 78.9055404663086 111.55183410644531 80.1556625366211" stroke-width="3.0" fill="none" stroke="rgb(0, 0, 0)" stroke-opacity="1.0" stroke-linecap="round" stroke-linejoin="round"/>
    <path d="M 46.6336784362793 92.55650329589844 C 58.78915023803711 83.65469360351562 63.09280776977539 84.95878601074219 75.17947387695312 81.67618560791016" stroke-width="3.0" fill="none" stroke="rgb(0, 0, 0)" stroke-opacity="1.0" stroke-linecap="round" stroke-linejoin="round"/>
    <path d="M 42.46002197265625 62.59680938720703 C 55.090179443359375 68.72525024414062 45.809974670410156 68.04582977294922 85.67960357666016 75.34696197509766" stroke-width="3.0" fill="none" stroke="rgb(0, 0, 0)" stroke-opacity="1.0" stroke-linecap="round" stroke-linejoin="round"/>
    <path d="M 118.0667724609375 143.12692260742188 C 110.95356750488281 162.35366821289062 110.89729309082031 172.03140258789062 121.76458740234375 148.84515380859375" stroke-width="3.0" fill="none" stroke="rgb(0, 0, 0)" stroke-opacity="1.0" stroke-linecap="round" stroke-linejoin="round"/>
    <path d="M 137.17938232421875 164.3379669189453 C 141.38613891601562 146.390625 133.29518127441406 149.7406005859375 133.85379028320312 144.16766357421875" stroke-width="3.0" fill="none" stroke="rgb(0, 0, 0)" stroke-opacity="1.0" stroke-linecap="round" stroke-linejoin="round"/>
    <path d="M 116.37683868408203 165.7867889404297 C 126.47521209716797 153.4321746826172 126.69194030761719 158.1351776123047 132.7461700439453 141.1980743408203" stroke-width="3.0" fill="none" stroke="rgb(0, 0, 0)" stroke-opacity="1.0" stroke-linecap="round" stroke-linejoin="round"/>
    <path d="M 123.90885925292969 172.7736053466797 C 123.9481201171875 177.62564086914062 121.88880157470703 196.2332000732422 126.73069763183594 181.79795837402344" stroke-width="3.0" fill="none" stroke="rgb(0, 0, 0)" stroke-opacity="1.0" stroke-linecap="round" stroke-linejoin="round"/>
    <path d="M 133.63992309570312 169.9993896484375 C 131.84457397460938 138.1127471923828 135.73583984375 121.26361846923828 139.86558532714844 157.09170532226562" stroke-width="3.0" fill="none" stroke="rgb(0, 0, 0)" stroke-opacity="1.0" stroke-linecap="round" stroke-linejoin="round"/>
    <path d="M 151.3638153076172 110.20620727539062 C 154.4370574951172 93.15972137451172 144.47137451171875 102.381103515625 130.4665069580078 86.8941879272461" stroke-width="3.0" fill="none" stroke="rgb(0, 0, 0)" stroke-opacity="1.0" stroke-linecap="round" stroke-linejoin="round"/>
    <path d="M 123.77772521972656 149.02232360839844 C 132.63316345214844 126.77589416503906 125.18376159667969 129.9599609375 118.22359466552734 148.85182189941406" stroke-width="3.0" fill="none" stroke="rgb(0, 0, 0)" stroke-opacity="1.0" stroke-linecap="round" stroke-linejoin="round"/>
    <path d="M 92.88188171386719 77.09928131103516 C 71.39704895019531 74.0894775390625 97.50421905517578 71.13384246826172 127.28115844726562 81.5506362915039" stroke-width="3.0" fill="none" stroke="rgb(0, 0, 0)" stroke-opacity="1.0" stroke-linecap="round" stroke-linejoin="round"/>
    <path d="M 141.73974609375 133.3395538330078 C 147.92959594726562 128.29678344726562 138.79664611816406 144.9552001953125 138.16629028320312 151.337646484375" stroke-width="3.0" fill="none" stroke="rgb(0, 0, 0)" stroke-opacity="1.0" stroke-linecap="round" stroke-linejoin="round"/>
    <path d="M 64.0870361328125 85.03678131103516 C 70.0508041381836 78.8591079711914 75.46476745605469 84.0180435180664 86.80884552001953 77.09601593017578" stroke-width="3.0" fill="none" stroke="rgb(0, 0, 0)" stroke-opacity="1.0" stroke-linecap="round" stroke-linejoin="round"/>
    <path d="M 101.08381652832031 189.8231964111328 C 118.64507293701172 160.01905822753906 107.59935760498047 169.90737915039062 117.51229858398438 152.7869873046875" stroke-width="3.0" fill="none" stroke="rgb(0, 0, 0)" stroke-opacity="1.0" stroke-linecap="round" stroke-linejoin="round"/>
    <path d="M 164.0651092529297 113.80447387695312 C 155.7327423095703 92.90911865234375 155.63072204589844 98.01923370361328 156.62722778320312 109.61200714111328" stroke-width="3.0" fill="none" stroke="rgb(0, 0, 0)" stroke-opacity="1.0" stroke-linecap="round" stroke-linejoin="round"/>
    <path d="M 189.89964294433594 101.40234375 C 177.42079162597656 114.06935119628906 182.0984344482422 104.73599243164062 168.51072692871094 115.02349853515625" stroke-width="3.0" fill="none" stroke="rgb(0, 0, 0)" stroke-opacity="1.0" stroke-linecap="round" stroke-linejoin="round"/>
    <path d="M 125.25801849365234 82.7430191040039 C 140.2125244140625 84.46821594238281 144.17672729492188 81.894287109375 160.09532165527344 94.74407196044922" stroke-width="3.0" fill="none" stroke="rgb(0, 0, 0)" stroke-opacity="1.0" stroke-linecap="round" stroke-linejoin="round"/>
    <path d="M 131.59446716308594 138.91445922851562 C 115.07411193847656 149.87167358398438 117.11387634277344 141.34275817871094 128.62286376953125 132.29879760742188" stroke-width="3.0" fill="none" stroke="rgb(0, 0, 0)" stroke-opacity="1.0" stroke-linecap="round" stroke-linejoin="round"/>
  </g>
</svg>
