<?xml version="1.0" ?>
<svg xmlns="http://www.w3.org/2000/svg" version="1.1" width="224" height="224">
  <defs/>
  <g>
    <path d="M 139.2377471923828 84.2633056640625 C 186.84713745117188 122.51840209960938 156.63755798339844 92.22093963623047 127.94049835205078 148.2884979248047" stroke-width="3.0" fill="none" stroke="rgb(0, 0, 0)" stroke-opacity="1.0" stroke-linecap="round" stroke-linejoin="round"/>
    <path d="M 107.97769927978516 159.7082977294922 C 158.55470275878906 99.8831787109375 136.82322692871094 123.30503845214844 120.77438354492188 161.1354217529297" stroke-width="3.0" fill="none" stroke="rgb(0, 0, 0)" stroke-opacity="1.0" stroke-linecap="round" stroke-linejoin="round"/>
    <path d="M 146.47247314453125 116.61363983154297 C 203.9287567138672 107.10611724853516 114.69208526611328 127.56820678710938 173.6778106689453 108.96528625488281" stroke-width="3.0" fill="none" stroke="rgb(0, 0, 0)" stroke-opacity="1.0" stroke-linecap="round" stroke-linejoin="round"/>
    <path d="M 167.58798217773438 101.12748718261719 C 123.8124008178711 105.4513931274414 113.82115173339844 100.21131896972656 181.35809326171875 99.19479370117188" stroke-width="3.0" fill="none" stroke="rgb(0, 0, 0)" stroke-opacity="1.0" stroke-linecap="round" stroke-linejoin="round"/>
    <path d="M 137.56976318359375 106.82971954345703 C 167.3908233642578 129.8440704345703 184.43185424804688 87.5262451171875 190.19154357910156 105.0557632446289" stroke-width="3.0" fill="none" stroke="rgb(0, 0, 0)" stroke-opacity="1.0" stroke-linecap="round" stroke-linejoin="round"/>
    <path d="M 153.66322326660156 117.87505340576172 C 134.09011840820312 164.79547119140625 129.9160614013672 158.79647827148438 144.86732482910156 118.64872741699219" stroke-width="3.0" fill="none" stroke="rgb(0, 0, 0)" stroke-opacity="1.0" stroke-linecap="round" stroke-linejoin="round"/>
    <path d="M 120.26367950439453 88.68303680419922 C 160.18592834472656 115.06546783447266 215.8157501220703 97.08561706542969 157.66661071777344 89.1870346069336" stroke-width="3.0" fill="none" stroke="rgb(0, 0, 0)" stroke-opacity="1.0" stroke-linecap="round" stroke-linejoin="round"/>
    <path d="M 112.61661529541016 188.66574096679688 C 155.90487670898438 81.73131561279297 146.18252563476562 161.16905212402344 130.09954833984375 183.96331787109375" stroke-width="3.0" fill="none" stroke="rgb(0, 0, 0)" stroke-opacity="1.0" stroke-linecap="round" stroke-linejoin="round"/>
    <path d="M 132.9638671875 126.8446273803711 C 116.32862854003906 154.28404235839844 119.11053466796875 154.1079559326172 129.63406372070312 133.96127319335938" stroke-width="3.0" fill="none" stroke="rgb(0, 0, 0)" stroke-opacity="1.0" stroke-linecap="round" stroke-linejoin="round"/>
    <path d="M 132.99771118164062 81.34251403808594 C 180.5704345703125 131.79441833496094 197.46340942382812 83.5748291015625 156.4993438720703 87.64741516113281" stroke-width="3.0" fill="none" stroke="rgb(0, 0, 0)" stroke-opacity="1.0" stroke-linecap="round" stroke-linejoin="round"/>
    <path d="M 141.967041015625 119.58580780029297 C 139.856689453125 171.48583984375 127.33692932128906 172.26966857910156 153.67408752441406 115.6050033569336" stroke-width="3.0" fill="none" stroke="rgb(0, 0, 0)" stroke-opacity="1.0" stroke-linecap="round" stroke-linejoin="round"/>
    <path d="M 130.7749786376953 125.93208312988281 C 218.50621032714844 84.65357971191406 166.46900939941406 113.68366241455078 117.03739929199219 85.03128051757812" stroke-width="3.0" fill="none" stroke="rgb(0, 0, 0)" stroke-opacity="1.0" stroke-linecap="round" stroke-linejoin="round"/>
    <path d="M 120.1316146850586 186.79110717773438 C 145.64356994628906 123.75662994384766 136.33888244628906 120.86363983154297 183.9673309326172 101.31188201904297" stroke-width="3.0" fill="none" stroke="rgb(0, 0, 0)" stroke-opacity="1.0" stroke-linecap="round" stroke-linejoin="round"/>
    <path d="M 138.48883056640625 120.06716918945312 C 105.36127471923828 149.92576599121094 112.58302307128906 169.01698303222656 99.07524108886719 185.45025634765625" stroke-width="3.0" fill="none" stroke="rgb(0, 0, 0)" stroke-opacity="1.0" stroke-linecap="round" stroke-linejoin="round"/>
    <path d="M 48.257869720458984 92.8923110961914 C 71.50568389892578 79.64854431152344 117.11646270751953 69.92180633544922 149.92449951171875 113.28020477294922" stroke-width="3.0" fill="none" stroke="rgb(0, 0, 0)" stroke-opacity="1.0" stroke-linecap="round" stroke-linejoin="round"/>
    <path d="M 34.50835037231445 82.81484985351562 C 87.14891052246094 75.47135925292969 99.58839416503906 72.57383728027344 169.092041015625 99.96488189697266" stroke-width="3.0" fill="none" stroke="rgb(0, 0, 0)" stroke-opacity="1.0" stroke-linecap="round" stroke-linejoin="round"/>
    <path d="M 105.33213806152344 80.42755889892578 C 72.17493438720703 76.59362030029297 91.84073638916016 79.05500030517578 107.48674774169922 73.54157257080078" stroke-width="3.0" fill="none" stroke="rgb(0, 0, 0)" stroke-opacity="1.0" stroke-linecap="round" stroke-linejoin="round"/>
    <path d="M 142.1912384033203 138.62057495117188 C 129.45468139648438 135.63832092285156 122.59081268310547 137.00469970703125 145.92979431152344 127.72734069824219" stroke-width="3.0" fill="none" stroke="rgb(0, 0, 0)" stroke-opacity="1.0" stroke-linecap="round" stroke-linejoin="round"/>
    <path d="M 122.73446655273438 183.61154174804688 C 151.77992248535156 111.01921081542969 164.84146118164062 117.14708709716797 140.76229858398438 127.90181732177734" stroke-width="3.0" fill="none" stroke="rgb(0, 0, 0)" stroke-opacity="1.0" stroke-linecap="round" stroke-linejoin="round"/>
    <path d="M 102.27616119384766 184.7854766845703 C 127.98091125488281 160.2482147216797 111.0802993774414 132.19784545898438 160.94552612304688 113.6241683959961" stroke-width="3.0" fill="none" stroke="rgb(0, 0, 0)" stroke-opacity="1.0" stroke-linecap="round" stroke-linejoin="round"/>
    <path d="M 150.2755889892578 119.9059066772461 C 138.95501708984375 168.88807678222656 124.337646484375 200.654296875 136.498779296875 157.69985961914062" stroke-width="3.0" fill="none" stroke="rgb(0, 0, 0)" stroke-opacity="1.0" stroke-linecap="round" stroke-linejoin="round"/>
    <path d="M 116.22197723388672 162.18862915039062 C 131.3495330810547 116.43608856201172 155.98049926757812 120.17264556884766 122.32881164550781 146.994873046875" stroke-width="3.0" fill="none" stroke="rgb(0, 0, 0)" stroke-opacity="1.0" stroke-linecap="round" stroke-linejoin="round"/>
    <path d="M 177.06243896484375 101.23836517333984 C 166.74461364746094 108.09085083007812 152.624267578125 87.21778869628906 129.2919464111328 80.48272705078125" stroke-width="3.0" fill="none" stroke="rgb(0, 0, 0)" stroke-opacity="1.0" stroke-linecap="round" stroke-linejoin="round"/>
    <path d="M 133.84259033203125 140.54928588867188 C 178.3132781982422 100.91382598876953 127.57384490966797 114.56466674804688 116.06903839111328 147.1502227783203" stroke-width="3.0" fill="none" stroke="rgb(0, 0, 0)" stroke-opacity="1.0" stroke-linecap="round" stroke-linejoin="round"/>
    <path d="M 127.62506103515625 86.58080291748047 C 69.22529602050781 74.69194030761719 108.29402160644531 69.7696762084961 172.7699432373047 108.98646545410156" stroke-width="3.0" fill="none" stroke="rgb(0, 0, 0)" stroke-opacity="1.0" stroke-linecap="round" stroke-linejoin="round"/>
    <path d="M 136.53753662109375 160.38328552246094 C 146.69187927246094 117.25992584228516 111.4283447265625 138.19090270996094 144.6340789794922 123.25030517578125" stroke-width="3.0" fill="none" stroke="rgb(0, 0, 0)" stroke-opacity="1.0" stroke-linecap="round" stroke-linejoin="round"/>
    <path d="M 55.966732025146484 56.42522430419922 C 87.24588012695312 81.71591186523438 100.30004119873047 73.25647735595703 138.566650390625 87.09346771240234" stroke-width="3.0" fill="none" stroke="rgb(0, 0, 0)" stroke-opacity="1.0" stroke-linecap="round" stroke-linejoin="round"/>
    <path d="M 103.36713409423828 175.55099487304688 C 117.48902130126953 161.13021850585938 117.00398254394531 149.13192749023438 141.04788208007812 126.05923461914062" stroke-width="3.0" fill="none" stroke="rgb(0, 0, 0)" stroke-opacity="1.0" stroke-linecap="round" stroke-linejoin="round"/>
    <path d="M 177.77940368652344 101.42866516113281 C 129.5179901123047 105.81719970703125 114.91542053222656 108.53106689453125 180.5991973876953 104.94508361816406" stroke-width="3.0" fill="none" stroke="rgb(0, 0, 0)" stroke-opacity="1.0" stroke-linecap="round" stroke-linejoin="round"/>
    <path d="M 191.6177215576172 107.51570129394531 C 173.8897247314453 90.81871795654297 181.4274139404297 134.2831573486328 132.85130310058594 102.28850555419922" stroke-width="3.0" fill="none" stroke="rgb(0, 0, 0)" stroke-opacity="1.0" stroke-linecap="round" stroke-linejoin="round"/>
    <path d="M 108.3377914428711 81.29901885986328 C 157.82179260253906 75.61815643310547 136.16075134277344 98.65532684326172 180.2698974609375 96.92654418945312" stroke-width="3.0" fill="none" stroke="rgb(0, 0, 0)" stroke-opacity="1.0" stroke-linecap="round" stroke-linejoin="round"/>
    <path d="M 148.86314392089844 117.84903717041016 C 131.33758544921875 158.4462890625 115.44898986816406 131.49172973632812 145.5858154296875 120.20343017578125" stroke-width="3.0" fill="none" stroke="rgb(0, 0, 0)" stroke-opacity="1.0" stroke-linecap="round" stroke-linejoin="round"/>
  </g>
</svg>
