<?xml version="1.0" ?>
<svg xmlns="http://www.w3.org/2000/svg" version="1.1" width="224" height="224">
  <defs/>
  <g>
    <path d="M 139.2372589111328 114.8968505859375 C 159.96070861816406 114.93276977539062 151.42965698242188 122.23882293701172 150.2454071044922 127.27173614501953" stroke-width="3.0" fill="none" stroke="rgb(0, 0, 0)" stroke-opacity="1.0" stroke-linecap="round" stroke-linejoin="round"/>
    <path d="M 140.9768524169922 148.4409637451172 C 139.0502471923828 129.57994079589844 134.3231658935547 132.2062225341797 140.1581573486328 151.5772247314453" stroke-width="3.0" fill="none" stroke="rgb(0, 0, 0)" stroke-opacity="1.0" stroke-linecap="round" stroke-linejoin="round"/>
    <path d="M 154.41964721679688 126.38512420654297 C 155.443115234375 123.51353454589844 155.42552185058594 124.97786712646484 150.56378173828125 131.11346435546875" stroke-width="3.0" fill="none" stroke="rgb(0, 0, 0)" stroke-opacity="1.0" stroke-linecap="round" stroke-linejoin="round"/>
    <path d="M 148.28182983398438 121.07543182373047 C 152.16429138183594 127.83064270019531 149.8033447265625 131.2183074951172 152.0135040283203 126.19979095458984" stroke-width="3.0" fill="none" stroke="rgb(0, 0, 0)" stroke-opacity="1.0" stroke-linecap="round" stroke-linejoin="round"/>
    <path d="M 162.79981994628906 113.79763793945312 C 160.39369201660156 88.596923828125 155.89918518066406 89.40385437011719 156.49656677246094 105.93363952636719" stroke-width="3.0" fill="none" stroke="rgb(0, 0, 0)" stroke-opacity="1.0" stroke-linecap="round" stroke-linejoin="round"/>
    <path d="M 137.1259307861328 122.6811752319336 C 124.72885131835938 130.6388397216797 124.45975494384766 133.53712463378906 129.6125946044922 125.71968841552734" stroke-width="3.0" fill="none" stroke="rgb(0, 0, 0)" stroke-opacity="1.0" stroke-linecap="round" stroke-linejoin="round"/>
    <path d="M 154.7440643310547 104.56076049804688 C 155.65133666992188 106.67063903808594 164.24501037597656 113.761962890625 161.46556091308594 111.41317749023438" stroke-width="3.0" fill="none" stroke="rgb(0, 0, 0)" stroke-opacity="1.0" stroke-linecap="round" stroke-linejoin="round"/>
    <path d="M 124.52906799316406 160.22691345214844 C 125.74427032470703 149.3707275390625 124.82904052734375 161.01625061035156 129.2734375 173.55018615722656" stroke-width="3.0" fill="none" stroke="rgb(0, 0, 0)" stroke-opacity="1.0" stroke-linecap="round" stroke-linejoin="round"/>
    <path d="M 111.8041763305664 170.20787048339844 C 103.70025634765625 186.18569946289062 107.07715606689453 176.70947265625 110.8603515625 170.4873809814453" stroke-width="3.0" fill="none" stroke="rgb(0, 0, 0)" stroke-opacity="1.0" stroke-linecap="round" stroke-linejoin="round"/>
    <path d="M 156.16973876953125 103.83258056640625 C 169.8218994140625 112.87726593017578 167.77792358398438 116.01766967773438 157.92977905273438 103.58148956298828" stroke-width="3.0" fill="none" stroke="rgb(0, 0, 0)" stroke-opacity="1.0" stroke-linecap="round" stroke-linejoin="round"/>
    <path d="M 135.6202850341797 144.59967041015625 C 134.12847900390625 149.0499267578125 144.99330139160156 160.02027893066406 140.5020294189453 155.59982299804688" stroke-width="3.0" fill="none" stroke="rgb(0, 0, 0)" stroke-opacity="1.0" stroke-linecap="round" stroke-linejoin="round"/>
    <path d="M 151.818603515625 119.76077270507812 C 168.671630859375 121.13256072998047 163.44845581054688 118.20216369628906 149.08848571777344 103.0157241821289" stroke-width="3.0" fill="none" stroke="rgb(0, 0, 0)" stroke-opacity="1.0" stroke-linecap="round" stroke-linejoin="round"/>
    <path d="M 141.06849670410156 139.7078399658203 C 140.57579040527344 128.9846649169922 144.317138671875 119.45347595214844 152.20297241210938 119.72955322265625" stroke-width="3.0" fill="none" stroke="rgb(0, 0, 0)" stroke-opacity="1.0" stroke-linecap="round" stroke-linejoin="round"/>
    <path d="M 123.03569030761719 167.42283630371094 C 117.38267517089844 174.94830322265625 126.61906433105469 176.7800750732422 117.24273681640625 178.14309692382812" stroke-width="3.0" fill="none" stroke="rgb(0, 0, 0)" stroke-opacity="1.0" stroke-linecap="round" stroke-linejoin="round"/>
    <path d="M 78.68080139160156 81.4297103881836 C 82.11064147949219 81.05928802490234 98.3968276977539 78.01054382324219 102.24530029296875 81.72335052490234" stroke-width="3.0" fill="none" stroke="rgb(0, 0, 0)" stroke-opacity="1.0" stroke-linecap="round" stroke-linejoin="round"/>
    <path d="M 44.686038970947266 93.20230102539062 C 61.37290573120117 84.87554931640625 65.10662078857422 85.16679382324219 74.32803344726562 83.24208068847656" stroke-width="3.0" fill="none" stroke="rgb(0, 0, 0)" stroke-opacity="1.0" stroke-linecap="round" stroke-linejoin="round"/>
    <path d="M 42.99704360961914 69.61750030517578 C 55.60859680175781 67.34056854248047 48.857398986816406 64.276123046875 69.76451873779297 58.788875579833984" stroke-width="3.0" fill="none" stroke="rgb(0, 0, 0)" stroke-opacity="1.0" stroke-linecap="round" stroke-linejoin="round"/>
    <path d="M 123.84288024902344 149.0353546142578 C 111.0213851928711 155.18528747558594 113.69343566894531 166.66836547851562 120.7579116821289 151.42263793945312" stroke-width="3.0" fill="none" stroke="rgb(0, 0, 0)" stroke-opacity="1.0" stroke-linecap="round" stroke-linejoin="round"/>
    <path d="M 142.6561279296875 161.34812927246094 C 139.95115661621094 154.68710327148438 139.17616271972656 149.0366973876953 134.85606384277344 144.70767211914062" stroke-width="3.0" fill="none" stroke="rgb(0, 0, 0)" stroke-opacity="1.0" stroke-linecap="round" stroke-linejoin="round"/>
    <path d="M 123.20670318603516 168.76220703125 C 130.7161407470703 162.43994140625 126.08865356445312 157.2488555908203 128.70098876953125 149.7180633544922" stroke-width="3.0" fill="none" stroke="rgb(0, 0, 0)" stroke-opacity="1.0" stroke-linecap="round" stroke-linejoin="round"/>
    <path d="M 118.4371566772461 172.1678924560547 C 119.4343032836914 174.40188598632812 109.85089874267578 186.8419647216797 120.33179473876953 178.61148071289062" stroke-width="3.0" fill="none" stroke="rgb(0, 0, 0)" stroke-opacity="1.0" stroke-linecap="round" stroke-linejoin="round"/>
    <path d="M 136.2096405029297 169.57754516601562 C 129.44822692871094 147.16973876953125 135.33045959472656 129.670654296875 142.26535034179688 151.84768676757812" stroke-width="3.0" fill="none" stroke="rgb(0, 0, 0)" stroke-opacity="1.0" stroke-linecap="round" stroke-linejoin="round"/>
    <path d="M 139.58126831054688 111.23429107666016 C 142.90675354003906 104.69232177734375 137.79345703125 110.88163757324219 131.0213165283203 95.46067810058594" stroke-width="3.0" fill="none" stroke="rgb(0, 0, 0)" stroke-opacity="1.0" stroke-linecap="round" stroke-linejoin="round"/>
    <path d="M 124.70555114746094 144.98709106445312 C 122.87675476074219 134.7947235107422 126.34773254394531 135.04319763183594 117.57909393310547 148.8270263671875" stroke-width="3.0" fill="none" stroke="rgb(0, 0, 0)" stroke-opacity="1.0" stroke-linecap="round" stroke-linejoin="round"/>
    <path d="M 89.2092514038086 75.665283203125 C 82.40812683105469 77.29331970214844 96.25189208984375 75.51376342773438 123.4845199584961 84.48221588134766" stroke-width="3.0" fill="none" stroke="rgb(0, 0, 0)" stroke-opacity="1.0" stroke-linecap="round" stroke-linejoin="round"/>
    <path d="M 141.57237243652344 127.22047424316406 C 144.74380493164062 125.20907592773438 130.01426696777344 137.86676025390625 134.3618621826172 147.5411834716797" stroke-width="3.0" fill="none" stroke="rgb(0, 0, 0)" stroke-opacity="1.0" stroke-linecap="round" stroke-linejoin="round"/>
    <path d="M 70.24571990966797 83.4372787475586 C 76.18805694580078 80.81764221191406 75.00849151611328 83.1895523071289 81.95006561279297 79.3727798461914" stroke-width="3.0" fill="none" stroke="rgb(0, 0, 0)" stroke-opacity="1.0" stroke-linecap="round" stroke-linejoin="round"/>
    <path d="M 104.58984375 172.81776428222656 C 115.60260772705078 158.2303009033203 106.6481704711914 169.88119506835938 116.9223403930664 159.41954040527344" stroke-width="3.0" fill="none" stroke="rgb(0, 0, 0)" stroke-opacity="1.0" stroke-linecap="round" stroke-linejoin="round"/>
    <path d="M 163.67816162109375 107.82989501953125 C 160.9277801513672 94.59366607666016 159.69236755371094 97.13739013671875 156.09336853027344 105.3302993774414" stroke-width="3.0" fill="none" stroke="rgb(0, 0, 0)" stroke-opacity="1.0" stroke-linecap="round" stroke-linejoin="round"/>
    <path d="M 189.57968139648438 100.91509246826172 C 172.49722290039062 116.28105926513672 168.16470336914062 109.05351257324219 161.3331756591797 118.0947036743164" stroke-width="3.0" fill="none" stroke="rgb(0, 0, 0)" stroke-opacity="1.0" stroke-linecap="round" stroke-linejoin="round"/>
    <path d="M 128.25146484375 82.63002014160156 C 141.61245727539062 96.18122100830078 149.37109375 89.06452178955078 147.63226318359375 101.26502990722656" stroke-width="3.0" fill="none" stroke="rgb(0, 0, 0)" stroke-opacity="1.0" stroke-linecap="round" stroke-linejoin="round"/>
    <path d="M 123.93929290771484 140.904052734375 C 121.57218933105469 145.5656280517578 121.91443634033203 142.07150268554688 127.55796813964844 133.94528198242188" stroke-width="3.0" fill="none" stroke="rgb(0, 0, 0)" stroke-opacity="1.0" stroke-linecap="round" stroke-linejoin="round"/>
  </g>
</svg>
