<?xml version="1.0" ?>
<svg xmlns="http://www.w3.org/2000/svg" version="1.1" width="224" height="224">
  <defs/>
  <g>
    <path d="M 130.97962951660156 88.9901351928711 C 183.8867950439453 119.47607421875 154.33575439453125 89.11431884765625 138.4383544921875 141.51280212402344" stroke-width="3.0" fill="none" stroke="rgb(0, 0, 0)" stroke-opacity="1.0" stroke-linecap="round" stroke-linejoin="round"/>
    <path d="M 109.08799743652344 163.28831481933594 C 159.92739868164062 100.26586151123047 149.13096618652344 128.87713623046875 126.21939849853516 170.70494079589844" stroke-width="3.0" fill="none" stroke="rgb(0, 0, 0)" stroke-opacity="1.0" stroke-linecap="round" stroke-linejoin="round"/>
    <path d="M 145.63436889648438 121.955078125 C 202.6009979248047 91.40042114257812 94.81722259521484 112.09223175048828 162.13746643066406 108.67720794677734" stroke-width="3.0" fill="none" stroke="rgb(0, 0, 0)" stroke-opacity="1.0" stroke-linecap="round" stroke-linejoin="round"/>
    <path d="M 173.457763671875 107.8583755493164 C 126.67073822021484 110.6456069946289 111.8360595703125 103.91632843017578 184.46722412109375 101.53874206542969" stroke-width="3.0" fill="none" stroke="rgb(0, 0, 0)" stroke-opacity="1.0" stroke-linecap="round" stroke-linejoin="round"/>
    <path d="M 135.55657958984375 107.54885864257812 C 173.38450622558594 130.51829528808594 183.55169677734375 89.71023559570312 189.70916748046875 105.31436920166016" stroke-width="3.0" fill="none" stroke="rgb(0, 0, 0)" stroke-opacity="1.0" stroke-linecap="round" stroke-linejoin="round"/>
    <path d="M 149.24998474121094 118.20474243164062 C 122.96056365966797 153.1455078125 123.9708023071289 152.87794494628906 143.06455993652344 125.89827728271484" stroke-width="3.0" fill="none" stroke="rgb(0, 0, 0)" stroke-opacity="1.0" stroke-linecap="round" stroke-linejoin="round"/>
    <path d="M 126.00161743164062 84.89849090576172 C 161.65029907226562 113.3254623413086 218.35641479492188 94.93468475341797 153.98167419433594 86.4172592163086" stroke-width="3.0" fill="none" stroke="rgb(0, 0, 0)" stroke-opacity="1.0" stroke-linecap="round" stroke-linejoin="round"/>
    <path d="M 108.97592163085938 188.28012084960938 C 166.1556396484375 82.11898803710938 145.86529541015625 161.9455108642578 130.0216827392578 182.4599609375" stroke-width="3.0" fill="none" stroke="rgb(0, 0, 0)" stroke-opacity="1.0" stroke-linecap="round" stroke-linejoin="round"/>
    <path d="M 133.62985229492188 129.8611602783203 C 112.22926330566406 148.43338012695312 116.42892456054688 150.3130340576172 129.05203247070312 129.44387817382812" stroke-width="3.0" fill="none" stroke="rgb(0, 0, 0)" stroke-opacity="1.0" stroke-linecap="round" stroke-linejoin="round"/>
    <path d="M 121.45299530029297 83.79269409179688 C 188.88247680664062 131.3648681640625 203.3233642578125 87.32414245605469 161.86351013183594 89.47428894042969" stroke-width="3.0" fill="none" stroke="rgb(0, 0, 0)" stroke-opacity="1.0" stroke-linecap="round" stroke-linejoin="round"/>
    <path d="M 142.71853637695312 130.22434997558594 C 140.50120544433594 178.98240661621094 130.05801391601562 172.56922912597656 152.54112243652344 109.7367935180664" stroke-width="3.0" fill="none" stroke="rgb(0, 0, 0)" stroke-opacity="1.0" stroke-linecap="round" stroke-linejoin="round"/>
    <path d="M 133.59901428222656 125.32014465332031 C 228.28651428222656 73.8604507446289 169.73858642578125 111.94606018066406 121.54426574707031 86.80424499511719" stroke-width="3.0" fill="none" stroke="rgb(0, 0, 0)" stroke-opacity="1.0" stroke-linecap="round" stroke-linejoin="round"/>
    <path d="M 121.6148910522461 185.5203857421875 C 150.5260467529297 130.052001953125 140.1145782470703 121.30562591552734 181.83688354492188 99.70995330810547" stroke-width="3.0" fill="none" stroke="rgb(0, 0, 0)" stroke-opacity="1.0" stroke-linecap="round" stroke-linejoin="round"/>
    <path d="M 141.46400451660156 129.10862731933594 C 110.88619995117188 152.92178344726562 116.84992980957031 159.02603149414062 102.09452819824219 174.8360137939453" stroke-width="3.0" fill="none" stroke="rgb(0, 0, 0)" stroke-opacity="1.0" stroke-linecap="round" stroke-linejoin="round"/>
    <path d="M 50.21470642089844 94.182861328125 C 81.73733520507812 80.36140441894531 113.78749084472656 68.96510314941406 147.2200927734375 110.95647430419922" stroke-width="3.0" fill="none" stroke="rgb(0, 0, 0)" stroke-opacity="1.0" stroke-linecap="round" stroke-linejoin="round"/>
    <path d="M 34.88333511352539 82.30126953125 C 83.17725372314453 72.86962127685547 107.06590270996094 73.80316162109375 164.52859497070312 110.74688720703125" stroke-width="3.0" fill="none" stroke="rgb(0, 0, 0)" stroke-opacity="1.0" stroke-linecap="round" stroke-linejoin="round"/>
    <path d="M 97.14594268798828 77.96611022949219 C 68.30204010009766 73.84326171875 89.03533935546875 79.12737274169922 110.23760986328125 73.3869400024414" stroke-width="3.0" fill="none" stroke="rgb(0, 0, 0)" stroke-opacity="1.0" stroke-linecap="round" stroke-linejoin="round"/>
    <path d="M 142.39300537109375 138.4002685546875 C 130.99484252929688 138.47584533691406 123.15251159667969 135.2746124267578 149.3487548828125 121.87622833251953" stroke-width="3.0" fill="none" stroke="rgb(0, 0, 0)" stroke-opacity="1.0" stroke-linecap="round" stroke-linejoin="round"/>
    <path d="M 119.34368133544922 186.00714111328125 C 150.58290100097656 108.65499114990234 167.85183715820312 120.65718078613281 141.71095275878906 128.45547485351562" stroke-width="3.0" fill="none" stroke="rgb(0, 0, 0)" stroke-opacity="1.0" stroke-linecap="round" stroke-linejoin="round"/>
    <path d="M 100.0504150390625 186.03036499023438 C 130.8002166748047 157.38626098632812 121.60203552246094 132.82998657226562 162.8062286376953 106.89099884033203" stroke-width="3.0" fill="none" stroke="rgb(0, 0, 0)" stroke-opacity="1.0" stroke-linecap="round" stroke-linejoin="round"/>
    <path d="M 157.69137573242188 114.40906524658203 C 134.63282775878906 163.5719451904297 126.44031524658203 201.205078125 138.03611755371094 161.58485412597656" stroke-width="3.0" fill="none" stroke="rgb(0, 0, 0)" stroke-opacity="1.0" stroke-linecap="round" stroke-linejoin="round"/>
    <path d="M 110.64448547363281 160.51820373535156 C 130.8081817626953 104.57398223876953 156.26609802246094 119.15437316894531 125.689453125 144.79150390625" stroke-width="3.0" fill="none" stroke="rgb(0, 0, 0)" stroke-opacity="1.0" stroke-linecap="round" stroke-linejoin="round"/>
    <path d="M 181.07481384277344 98.7209701538086 C 162.07492065429688 114.1787109375 154.6798095703125 79.9995346069336 115.31029510498047 83.89665222167969" stroke-width="3.0" fill="none" stroke="rgb(0, 0, 0)" stroke-opacity="1.0" stroke-linecap="round" stroke-linejoin="round"/>
    <path d="M 130.99359130859375 141.75991821289062 C 178.23428344726562 111.12622833251953 130.86117553710938 117.96408081054688 114.62029266357422 145.80421447753906" stroke-width="3.0" fill="none" stroke="rgb(0, 0, 0)" stroke-opacity="1.0" stroke-linecap="round" stroke-linejoin="round"/>
    <path d="M 141.55487060546875 89.65953063964844 C 68.13050079345703 68.55073547363281 103.4473648071289 76.09767150878906 159.3933563232422 111.64793395996094" stroke-width="3.0" fill="none" stroke="rgb(0, 0, 0)" stroke-opacity="1.0" stroke-linecap="round" stroke-linejoin="round"/>
    <path d="M 138.12551879882812 163.2252197265625 C 158.88247680664062 116.85700988769531 116.13239288330078 142.54244995117188 145.79258728027344 126.75340270996094" stroke-width="3.0" fill="none" stroke="rgb(0, 0, 0)" stroke-opacity="1.0" stroke-linecap="round" stroke-linejoin="round"/>
    <path d="M 54.3441276550293 56.304771423339844 C 88.09801483154297 83.7461929321289 110.95785522460938 73.38705444335938 155.24156188964844 91.57416534423828" stroke-width="3.0" fill="none" stroke="rgb(0, 0, 0)" stroke-opacity="1.0" stroke-linecap="round" stroke-linejoin="round"/>
    <path d="M 103.58379364013672 172.29222106933594 C 118.97735595703125 157.3258819580078 117.61927795410156 146.19076538085938 139.83364868164062 122.34233856201172" stroke-width="3.0" fill="none" stroke="rgb(0, 0, 0)" stroke-opacity="1.0" stroke-linecap="round" stroke-linejoin="round"/>
    <path d="M 175.8729248046875 91.5293960571289 C 128.2045440673828 91.74236297607422 114.9863052368164 108.0970230102539 174.4368438720703 102.24604034423828" stroke-width="3.0" fill="none" stroke="rgb(0, 0, 0)" stroke-opacity="1.0" stroke-linecap="round" stroke-linejoin="round"/>
    <path d="M 192.3754425048828 108.28897094726562 C 173.44786071777344 92.22149658203125 172.7511749267578 128.65200805664062 138.0137481689453 95.98206329345703" stroke-width="3.0" fill="none" stroke="rgb(0, 0, 0)" stroke-opacity="1.0" stroke-linecap="round" stroke-linejoin="round"/>
    <path d="M 118.48253631591797 86.59805297851562 C 159.44874572753906 81.77888488769531 135.26364135742188 102.62443542480469 177.8307342529297 101.38054656982422" stroke-width="3.0" fill="none" stroke="rgb(0, 0, 0)" stroke-opacity="1.0" stroke-linecap="round" stroke-linejoin="round"/>
    <path d="M 142.98411560058594 120.85387420654297 C 127.53865051269531 144.58447265625 120.1483383178711 130.16644287109375 149.0202178955078 124.7279052734375" stroke-width="3.0" fill="none" stroke="rgb(0, 0, 0)" stroke-opacity="1.0" stroke-linecap="round" stroke-linejoin="round"/>
  </g>
</svg>
