<?xml version="1.0" ?>
<svg xmlns="http://www.w3.org/2000/svg" version="1.1" width="224" height="224">
  <defs/>
  <g>
    <path d="M 139.06442260742188 84.253173828125 C 188.52090454101562 119.84236907958984 157.11782836914062 91.25486755371094 127.39188385009766 149.38140869140625" stroke-width="3.0" fill="none" stroke="rgb(0, 0, 0)" stroke-opacity="1.0" stroke-linecap="round" stroke-linejoin="round"/>
    <path d="M 108.88410949707031 160.7948760986328 C 159.44747924804688 100.5798568725586 139.64451599121094 125.03618621826172 123.97240447998047 164.86038208007812" stroke-width="3.0" fill="none" stroke="rgb(0, 0, 0)" stroke-opacity="1.0" stroke-linecap="round" stroke-linejoin="round"/>
    <path d="M 148.28695678710938 118.84737396240234 C 205.4357452392578 108.19356536865234 115.41661834716797 126.90983581542969 174.0488739013672 108.83145141601562" stroke-width="3.0" fill="none" stroke="rgb(0, 0, 0)" stroke-opacity="1.0" stroke-linecap="round" stroke-linejoin="round"/>
    <path d="M 167.67530822753906 100.93809509277344 C 124.24717712402344 105.65727996826172 114.52890014648438 101.64730834960938 182.488525390625 99.18734741210938" stroke-width="3.0" fill="none" stroke="rgb(0, 0, 0)" stroke-opacity="1.0" stroke-linecap="round" stroke-linejoin="round"/>
    <path d="M 137.59007263183594 107.06071472167969 C 167.5518035888672 129.6444549560547 183.19723510742188 86.97059631347656 190.19346618652344 105.37430572509766" stroke-width="3.0" fill="none" stroke="rgb(0, 0, 0)" stroke-opacity="1.0" stroke-linecap="round" stroke-linejoin="round"/>
    <path d="M 152.9652099609375 117.07842254638672 C 134.0595245361328 165.7492218017578 130.13510131835938 159.9105224609375 145.01869201660156 119.15361785888672" stroke-width="3.0" fill="none" stroke="rgb(0, 0, 0)" stroke-opacity="1.0" stroke-linecap="round" stroke-linejoin="round"/>
    <path d="M 120.25712585449219 89.12249755859375 C 162.12698364257812 116.51273345947266 222.33937072753906 96.9508285522461 160.12081909179688 87.90847778320312" stroke-width="3.0" fill="none" stroke="rgb(0, 0, 0)" stroke-opacity="1.0" stroke-linecap="round" stroke-linejoin="round"/>
    <path d="M 112.5892562866211 188.34405517578125 C 157.6511993408203 83.08351135253906 145.48851013183594 161.16934204101562 129.37152099609375 179.9038848876953" stroke-width="3.0" fill="none" stroke="rgb(0, 0, 0)" stroke-opacity="1.0" stroke-linecap="round" stroke-linejoin="round"/>
    <path d="M 132.5301055908203 126.43297576904297 C 116.18421173095703 154.12477111816406 119.20361328125 154.1738739013672 129.67984008789062 133.9707794189453" stroke-width="3.0" fill="none" stroke="rgb(0, 0, 0)" stroke-opacity="1.0" stroke-linecap="round" stroke-linejoin="round"/>
    <path d="M 133.96014404296875 81.39134979248047 C 180.9754638671875 131.53311157226562 197.44410705566406 84.11102294921875 156.7190704345703 86.94136047363281" stroke-width="3.0" fill="none" stroke="rgb(0, 0, 0)" stroke-opacity="1.0" stroke-linecap="round" stroke-linejoin="round"/>
    <path d="M 143.10882568359375 120.35944366455078 C 142.83738708496094 173.42356872558594 128.52310180664062 172.2964324951172 153.11851501464844 114.6618881225586" stroke-width="3.0" fill="none" stroke="rgb(0, 0, 0)" stroke-opacity="1.0" stroke-linecap="round" stroke-linejoin="round"/>
    <path d="M 133.5412139892578 126.89653015136719 C 218.93540954589844 83.1402587890625 167.81874084472656 111.5941162109375 117.872314453125 83.55902099609375" stroke-width="3.0" fill="none" stroke="rgb(0, 0, 0)" stroke-opacity="1.0" stroke-linecap="round" stroke-linejoin="round"/>
    <path d="M 119.51910400390625 184.48013305664062 C 147.61769104003906 125.34706115722656 137.3568878173828 119.78730010986328 183.3096160888672 99.61434936523438" stroke-width="3.0" fill="none" stroke="rgb(0, 0, 0)" stroke-opacity="1.0" stroke-linecap="round" stroke-linejoin="round"/>
    <path d="M 138.77227783203125 121.5077896118164 C 104.5324478149414 148.8599395751953 113.01244354248047 169.3271026611328 99.82610321044922 185.65249633789062" stroke-width="3.0" fill="none" stroke="rgb(0, 0, 0)" stroke-opacity="1.0" stroke-linecap="round" stroke-linejoin="round"/>
    <path d="M 49.13212203979492 94.2166976928711 C 73.79133605957031 81.38224029541016 115.58177947998047 70.93901062011719 150.95797729492188 113.51399993896484" stroke-width="3.0" fill="none" stroke="rgb(0, 0, 0)" stroke-opacity="1.0" stroke-linecap="round" stroke-linejoin="round"/>
    <path d="M 34.928688049316406 82.27851104736328 C 87.67579650878906 76.57075500488281 100.4520034790039 73.0849838256836 169.10073852539062 100.02601623535156" stroke-width="3.0" fill="none" stroke="rgb(0, 0, 0)" stroke-opacity="1.0" stroke-linecap="round" stroke-linejoin="round"/>
    <path d="M 105.36547088623047 80.54461669921875 C 71.97773742675781 73.27558135986328 91.50428771972656 77.5963363647461 106.49836730957031 75.1960220336914" stroke-width="3.0" fill="none" stroke="rgb(0, 0, 0)" stroke-opacity="1.0" stroke-linecap="round" stroke-linejoin="round"/>
    <path d="M 142.23129272460938 138.5150604248047 C 129.50668334960938 135.4626007080078 122.68978881835938 137.12892150878906 146.1223907470703 128.12391662597656" stroke-width="3.0" fill="none" stroke="rgb(0, 0, 0)" stroke-opacity="1.0" stroke-linecap="round" stroke-linejoin="round"/>
    <path d="M 122.56494140625 182.4244842529297 C 151.39788818359375 110.36776733398438 163.12339782714844 115.51640319824219 139.8707733154297 127.4067153930664" stroke-width="3.0" fill="none" stroke="rgb(0, 0, 0)" stroke-opacity="1.0" stroke-linecap="round" stroke-linejoin="round"/>
    <path d="M 103.60980987548828 188.2490234375 C 129.54013061523438 160.99851989746094 112.33770751953125 132.71609497070312 161.1115264892578 113.494873046875" stroke-width="3.0" fill="none" stroke="rgb(0, 0, 0)" stroke-opacity="1.0" stroke-linecap="round" stroke-linejoin="round"/>
    <path d="M 151.3603973388672 120.29225158691406 C 135.91192626953125 166.01844787597656 122.30016326904297 200.55242919921875 140.66148376464844 160.36094665527344" stroke-width="3.0" fill="none" stroke="rgb(0, 0, 0)" stroke-opacity="1.0" stroke-linecap="round" stroke-linejoin="round"/>
    <path d="M 118.64962005615234 158.9164581298828 C 133.48362731933594 117.83037567138672 156.34030151367188 120.46562957763672 122.58345031738281 146.19972229003906" stroke-width="3.0" fill="none" stroke="rgb(0, 0, 0)" stroke-opacity="1.0" stroke-linecap="round" stroke-linejoin="round"/>
    <path d="M 177.07827758789062 101.22785949707031 C 167.271728515625 107.7636489868164 154.07003784179688 86.12461853027344 130.55581665039062 81.53321075439453" stroke-width="3.0" fill="none" stroke="rgb(0, 0, 0)" stroke-opacity="1.0" stroke-linecap="round" stroke-linejoin="round"/>
    <path d="M 132.3916015625 140.27291870117188 C 176.556884765625 102.31709289550781 126.9183349609375 114.85924530029297 116.05192565917969 147.85289001464844" stroke-width="3.0" fill="none" stroke="rgb(0, 0, 0)" stroke-opacity="1.0" stroke-linecap="round" stroke-linejoin="round"/>
    <path d="M 126.47602844238281 89.0941162109375 C 68.03103637695312 75.60865783691406 107.82177734375 70.29059600830078 172.74179077148438 109.0580825805664" stroke-width="3.0" fill="none" stroke="rgb(0, 0, 0)" stroke-opacity="1.0" stroke-linecap="round" stroke-linejoin="round"/>
    <path d="M 138.7078094482422 163.7133331298828 C 147.0430908203125 117.60686492919922 111.25752258300781 138.22035217285156 144.62315368652344 123.2437973022461" stroke-width="3.0" fill="none" stroke="rgb(0, 0, 0)" stroke-opacity="1.0" stroke-linecap="round" stroke-linejoin="round"/>
    <path d="M 55.98978042602539 58.07221221923828 C 86.07510375976562 82.30896759033203 100.26081848144531 73.25787353515625 139.15921020507812 86.62699127197266" stroke-width="3.0" fill="none" stroke="rgb(0, 0, 0)" stroke-opacity="1.0" stroke-linecap="round" stroke-linejoin="round"/>
    <path d="M 103.3929214477539 174.41172790527344 C 118.42417907714844 161.89784240722656 117.28469848632812 149.3510284423828 141.02438354492188 126.01593017578125" stroke-width="3.0" fill="none" stroke="rgb(0, 0, 0)" stroke-opacity="1.0" stroke-linecap="round" stroke-linejoin="round"/>
    <path d="M 178.103515625 102.2827377319336 C 129.60116577148438 105.76377868652344 115.13749694824219 109.98035430908203 178.00872802734375 106.73141479492188" stroke-width="3.0" fill="none" stroke="rgb(0, 0, 0)" stroke-opacity="1.0" stroke-linecap="round" stroke-linejoin="round"/>
    <path d="M 191.5767059326172 107.6368637084961 C 174.61241149902344 90.77816772460938 181.99876403808594 134.54986572265625 134.16729736328125 102.46536254882812" stroke-width="3.0" fill="none" stroke="rgb(0, 0, 0)" stroke-opacity="1.0" stroke-linecap="round" stroke-linejoin="round"/>
    <path d="M 109.64866638183594 81.37892150878906 C 159.91217041015625 74.25970458984375 137.42489624023438 96.47805786132812 182.67294311523438 96.42294311523438" stroke-width="3.0" fill="none" stroke="rgb(0, 0, 0)" stroke-opacity="1.0" stroke-linecap="round" stroke-linejoin="round"/>
    <path d="M 148.90362548828125 117.80780029296875 C 131.24717712402344 158.19140625 115.3971939086914 131.3726043701172 145.5807647705078 120.19490051269531" stroke-width="3.0" fill="none" stroke="rgb(0, 0, 0)" stroke-opacity="1.0" stroke-linecap="round" stroke-linejoin="round"/>
  </g>
</svg>
