<?xml version="1.0" ?>
<svg xmlns="http://www.w3.org/2000/svg" version="1.1" width="224" height="224">
  <defs/>
  <g>
    <path d="M 132.072509765625 85.10991668701172 C 183.01332092285156 116.02001190185547 158.197509765625 92.16624450683594 142.20077514648438 145.9503631591797" stroke-width="3.0" fill="none" stroke="rgb(0, 0, 0)" stroke-opacity="1.0" stroke-linecap="round" stroke-linejoin="round"/>
    <path d="M 107.699951171875 161.12025451660156 C 162.4698944091797 90.29580688476562 148.7166290283203 121.80990600585938 126.4621810913086 169.2467803955078" stroke-width="3.0" fill="none" stroke="rgb(0, 0, 0)" stroke-opacity="1.0" stroke-linecap="round" stroke-linejoin="round"/>
    <path d="M 146.65753173828125 119.1111831665039 C 209.08935546875 90.10762786865234 94.09716033935547 117.97814178466797 163.15829467773438 110.57463836669922" stroke-width="3.0" fill="none" stroke="rgb(0, 0, 0)" stroke-opacity="1.0" stroke-linecap="round" stroke-linejoin="round"/>
    <path d="M 171.19422912597656 111.24315643310547 C 133.11297607421875 115.47689819335938 114.93868255615234 100.40149688720703 181.71322631835938 97.5398941040039" stroke-width="3.0" fill="none" stroke="rgb(0, 0, 0)" stroke-opacity="1.0" stroke-linecap="round" stroke-linejoin="round"/>
    <path d="M 139.85275268554688 109.5575942993164 C 172.93406677246094 135.40289306640625 180.5244903564453 84.6282730102539 190.36351013183594 105.17356872558594" stroke-width="3.0" fill="none" stroke="rgb(0, 0, 0)" stroke-opacity="1.0" stroke-linecap="round" stroke-linejoin="round"/>
    <path d="M 149.94752502441406 121.05660247802734 C 126.75586700439453 162.1653594970703 121.6036148071289 151.8732147216797 139.5873260498047 123.64442443847656" stroke-width="3.0" fill="none" stroke="rgb(0, 0, 0)" stroke-opacity="1.0" stroke-linecap="round" stroke-linejoin="round"/>
    <path d="M 126.63282775878906 84.17760467529297 C 157.67929077148438 115.88740539550781 214.5738067626953 94.76150512695312 156.1453399658203 86.46107482910156" stroke-width="3.0" fill="none" stroke="rgb(0, 0, 0)" stroke-opacity="1.0" stroke-linecap="round" stroke-linejoin="round"/>
    <path d="M 108.3626937866211 188.13565063476562 C 166.55780029296875 87.18352508544922 139.92015075683594 163.90748596191406 128.53604125976562 181.2873992919922" stroke-width="3.0" fill="none" stroke="rgb(0, 0, 0)" stroke-opacity="1.0" stroke-linecap="round" stroke-linejoin="round"/>
    <path d="M 140.6682586669922 129.72372436523438 C 116.25353240966797 153.41217041015625 116.65010833740234 151.9061737060547 128.87086486816406 130.98451232910156" stroke-width="3.0" fill="none" stroke="rgb(0, 0, 0)" stroke-opacity="1.0" stroke-linecap="round" stroke-linejoin="round"/>
    <path d="M 118.26362609863281 84.06597137451172 C 184.7036895751953 130.05972290039062 202.5267791748047 84.33966827392578 152.8264923095703 88.1615219116211" stroke-width="3.0" fill="none" stroke="rgb(0, 0, 0)" stroke-opacity="1.0" stroke-linecap="round" stroke-linejoin="round"/>
    <path d="M 146.82688903808594 135.97206115722656 C 135.76107788085938 173.74539184570312 130.8831329345703 171.74851989746094 156.3241729736328 108.69548034667969" stroke-width="3.0" fill="none" stroke="rgb(0, 0, 0)" stroke-opacity="1.0" stroke-linecap="round" stroke-linejoin="round"/>
    <path d="M 138.6898651123047 128.9680938720703 C 226.71856689453125 72.85437774658203 160.92132568359375 107.15576934814453 119.94644165039062 86.66561126708984" stroke-width="3.0" fill="none" stroke="rgb(0, 0, 0)" stroke-opacity="1.0" stroke-linecap="round" stroke-linejoin="round"/>
    <path d="M 121.02094268798828 182.48411560058594 C 147.27195739746094 128.10302734375 137.5087432861328 119.69873809814453 184.32241821289062 99.21188354492188" stroke-width="3.0" fill="none" stroke="rgb(0, 0, 0)" stroke-opacity="1.0" stroke-linecap="round" stroke-linejoin="round"/>
    <path d="M 143.17184448242188 131.34190368652344 C 113.42566680908203 155.9298858642578 118.15968322753906 160.6823272705078 102.07670593261719 179.11790466308594" stroke-width="3.0" fill="none" stroke="rgb(0, 0, 0)" stroke-opacity="1.0" stroke-linecap="round" stroke-linejoin="round"/>
    <path d="M 47.94279861450195 94.8829116821289 C 74.567138671875 82.79736328125 123.40311431884766 70.70763397216797 156.87881469726562 107.12157440185547" stroke-width="3.0" fill="none" stroke="rgb(0, 0, 0)" stroke-opacity="1.0" stroke-linecap="round" stroke-linejoin="round"/>
    <path d="M 37.5147590637207 82.66089630126953 C 83.08830261230469 73.45267486572266 103.82481384277344 75.32563018798828 165.38262939453125 114.41551971435547" stroke-width="3.0" fill="none" stroke="rgb(0, 0, 0)" stroke-opacity="1.0" stroke-linecap="round" stroke-linejoin="round"/>
    <path d="M 99.3272705078125 81.19580841064453 C 73.51177978515625 64.50599670410156 92.73751831054688 77.0354995727539 114.7645492553711 73.15294647216797" stroke-width="3.0" fill="none" stroke="rgb(0, 0, 0)" stroke-opacity="1.0" stroke-linecap="round" stroke-linejoin="round"/>
    <path d="M 142.1947479248047 136.54141235351562 C 131.97154235839844 140.69033813476562 130.816162109375 146.6216583251953 150.0931396484375 123.78932189941406" stroke-width="3.0" fill="none" stroke="rgb(0, 0, 0)" stroke-opacity="1.0" stroke-linecap="round" stroke-linejoin="round"/>
    <path d="M 118.9281234741211 184.81387329101562 C 153.25779724121094 112.52981567382812 165.6197967529297 117.24714660644531 139.94573974609375 130.79759216308594" stroke-width="3.0" fill="none" stroke="rgb(0, 0, 0)" stroke-opacity="1.0" stroke-linecap="round" stroke-linejoin="round"/>
    <path d="M 99.71633911132812 187.01333618164062 C 132.1718292236328 157.8817596435547 124.30355834960938 134.73545837402344 169.73336791992188 107.49150848388672" stroke-width="3.0" fill="none" stroke="rgb(0, 0, 0)" stroke-opacity="1.0" stroke-linecap="round" stroke-linejoin="round"/>
    <path d="M 158.13705444335938 115.94854736328125 C 131.76722717285156 160.9033966064453 125.31539154052734 196.36907958984375 138.4005889892578 161.3419952392578" stroke-width="3.0" fill="none" stroke="rgb(0, 0, 0)" stroke-opacity="1.0" stroke-linecap="round" stroke-linejoin="round"/>
    <path d="M 112.07133483886719 156.4007568359375 C 133.7459259033203 110.97278594970703 159.3577423095703 126.2386703491211 123.86578369140625 141.58538818359375" stroke-width="3.0" fill="none" stroke="rgb(0, 0, 0)" stroke-opacity="1.0" stroke-linecap="round" stroke-linejoin="round"/>
    <path d="M 177.54563903808594 98.6137924194336 C 158.60166931152344 115.13433074951172 151.5434112548828 80.63458251953125 110.86649322509766 82.42182159423828" stroke-width="3.0" fill="none" stroke="rgb(0, 0, 0)" stroke-opacity="1.0" stroke-linecap="round" stroke-linejoin="round"/>
    <path d="M 130.97235107421875 144.99476623535156 C 173.06631469726562 110.2394027709961 127.29173278808594 114.53221893310547 112.99465942382812 153.6136474609375" stroke-width="3.0" fill="none" stroke="rgb(0, 0, 0)" stroke-opacity="1.0" stroke-linecap="round" stroke-linejoin="round"/>
    <path d="M 135.49954223632812 85.91133117675781 C 76.38936614990234 64.50237274169922 108.28314208984375 72.9449462890625 156.4734649658203 113.46918487548828" stroke-width="3.0" fill="none" stroke="rgb(0, 0, 0)" stroke-opacity="1.0" stroke-linecap="round" stroke-linejoin="round"/>
    <path d="M 137.30889892578125 163.04983520507812 C 154.69747924804688 120.87813568115234 116.47012329101562 156.38645935058594 146.83493041992188 131.2270050048828" stroke-width="3.0" fill="none" stroke="rgb(0, 0, 0)" stroke-opacity="1.0" stroke-linecap="round" stroke-linejoin="round"/>
    <path d="M 53.85388946533203 56.06035232543945 C 94.27034759521484 85.98133850097656 128.16639709472656 67.29190826416016 152.37979125976562 94.32259368896484" stroke-width="3.0" fill="none" stroke="rgb(0, 0, 0)" stroke-opacity="1.0" stroke-linecap="round" stroke-linejoin="round"/>
    <path d="M 106.10797119140625 170.60446166992188 C 119.73037719726562 156.29103088378906 119.9227294921875 148.08859252929688 141.90859985351562 122.60758209228516" stroke-width="3.0" fill="none" stroke="rgb(0, 0, 0)" stroke-opacity="1.0" stroke-linecap="round" stroke-linejoin="round"/>
    <path d="M 177.82249450683594 97.2923583984375 C 130.02320861816406 92.63980865478516 117.78499603271484 102.8650131225586 179.07652282714844 99.44237518310547" stroke-width="3.0" fill="none" stroke="rgb(0, 0, 0)" stroke-opacity="1.0" stroke-linecap="round" stroke-linejoin="round"/>
    <path d="M 191.68125915527344 107.34724426269531 C 178.07595825195312 89.56672668457031 172.0576629638672 126.0826187133789 137.667236328125 94.2638931274414" stroke-width="3.0" fill="none" stroke="rgb(0, 0, 0)" stroke-opacity="1.0" stroke-linecap="round" stroke-linejoin="round"/>
    <path d="M 122.95236206054688 88.87537384033203 C 164.75975036621094 82.22115325927734 138.5630340576172 106.63261413574219 176.653564453125 106.96907806396484" stroke-width="3.0" fill="none" stroke="rgb(0, 0, 0)" stroke-opacity="1.0" stroke-linecap="round" stroke-linejoin="round"/>
    <path d="M 141.93580627441406 123.10546112060547 C 125.55014038085938 145.198486328125 120.8687515258789 129.58819580078125 147.79830932617188 121.56446075439453" stroke-width="3.0" fill="none" stroke="rgb(0, 0, 0)" stroke-opacity="1.0" stroke-linecap="round" stroke-linejoin="round"/>
  </g>
</svg>
