<?xml version="1.0" ?>
<svg xmlns="http://www.w3.org/2000/svg" version="1.1" width="224" height="224">
  <defs/>
  <g>
    <path d="M 135.6666259765625 93.92041015625 C 177.13851928710938 122.99076843261719 154.0206298828125 103.07080841064453 135.61062622070312 142.2155303955078" stroke-width="3.0" fill="none" stroke="rgb(0, 0, 0)" stroke-opacity="1.0" stroke-linecap="round" stroke-linejoin="round"/>
    <path d="M 129.8228759765625 132.483642578125 C 164.13909912109375 114.81855773925781 131.3427734375 115.04896545410156 121.05976104736328 142.6662139892578" stroke-width="3.0" fill="none" stroke="rgb(0, 0, 0)" stroke-opacity="1.0" stroke-linecap="round" stroke-linejoin="round"/>
    <path d="M 151.9046630859375 118.31791687011719 C 209.8145294189453 106.63087463378906 102.03276824951172 107.69751739501953 156.35867309570312 105.28034973144531" stroke-width="3.0" fill="none" stroke="rgb(0, 0, 0)" stroke-opacity="1.0" stroke-linecap="round" stroke-linejoin="round"/>
    <path d="M 170.74136352539062 110.77828979492188 C 142.42469787597656 105.6666488647461 129.74269104003906 86.53160095214844 176.5439453125 102.23150634765625" stroke-width="3.0" fill="none" stroke="rgb(0, 0, 0)" stroke-opacity="1.0" stroke-linecap="round" stroke-linejoin="round"/>
    <path d="M 150.32325744628906 107.23802185058594 C 171.2161407470703 117.35338592529297 188.11643981933594 88.32107543945312 190.62338256835938 105.60640716552734" stroke-width="3.0" fill="none" stroke="rgb(0, 0, 0)" stroke-opacity="1.0" stroke-linecap="round" stroke-linejoin="round"/>
    <path d="M 145.97982788085938 121.40435028076172 C 128.52145385742188 167.2371826171875 128.1166534423828 158.50491333007812 142.95584106445312 118.86915588378906" stroke-width="3.0" fill="none" stroke="rgb(0, 0, 0)" stroke-opacity="1.0" stroke-linecap="round" stroke-linejoin="round"/>
    <path d="M 124.40766906738281 82.55818939208984 C 171.70924377441406 100.9913558959961 208.97157287597656 96.15798950195312 156.0021209716797 87.74581146240234" stroke-width="3.0" fill="none" stroke="rgb(0, 0, 0)" stroke-opacity="1.0" stroke-linecap="round" stroke-linejoin="round"/>
    <path d="M 120.35581970214844 186.00296020507812 C 143.97674560546875 85.96021270751953 153.66905212402344 157.34442138671875 128.66226196289062 181.4384765625" stroke-width="3.0" fill="none" stroke="rgb(0, 0, 0)" stroke-opacity="1.0" stroke-linecap="round" stroke-linejoin="round"/>
    <path d="M 130.04624938964844 131.58526611328125 C 110.11259460449219 156.8557891845703 114.95750427246094 151.5581817626953 123.66869354248047 138.24880981445312" stroke-width="3.0" fill="none" stroke="rgb(0, 0, 0)" stroke-opacity="1.0" stroke-linecap="round" stroke-linejoin="round"/>
    <path d="M 128.55618286132812 80.3543701171875 C 188.09686279296875 134.97772216796875 196.93455505371094 78.81134033203125 153.67506408691406 87.3149642944336" stroke-width="3.0" fill="none" stroke="rgb(0, 0, 0)" stroke-opacity="1.0" stroke-linecap="round" stroke-linejoin="round"/>
    <path d="M 135.2447052001953 122.79890441894531 C 128.78431701660156 182.77615356445312 125.56967163085938 188.60699462890625 138.8022918701172 125.88087463378906" stroke-width="3.0" fill="none" stroke="rgb(0, 0, 0)" stroke-opacity="1.0" stroke-linecap="round" stroke-linejoin="round"/>
    <path d="M 138.18724060058594 122.73541259765625 C 205.27552795410156 94.53717803955078 155.47906494140625 107.39893341064453 128.2039031982422 85.29497528076172" stroke-width="3.0" fill="none" stroke="rgb(0, 0, 0)" stroke-opacity="1.0" stroke-linecap="round" stroke-linejoin="round"/>
    <path d="M 126.60065460205078 150.74893188476562 C 148.92300415039062 129.27862548828125 144.33140563964844 124.20413208007812 180.39971923828125 97.67403411865234" stroke-width="3.0" fill="none" stroke="rgb(0, 0, 0)" stroke-opacity="1.0" stroke-linecap="round" stroke-linejoin="round"/>
    <path d="M 137.0189971923828 133.01454162597656 C 117.3548812866211 167.8573455810547 121.220947265625 176.2856903076172 105.94263458251953 188.898681640625" stroke-width="3.0" fill="none" stroke="rgb(0, 0, 0)" stroke-opacity="1.0" stroke-linecap="round" stroke-linejoin="round"/>
    <path d="M 49.755836486816406 92.68682861328125 C 62.314605712890625 79.25147247314453 127.12191772460938 70.74486541748047 144.8721923828125 107.5823745727539" stroke-width="3.0" fill="none" stroke="rgb(0, 0, 0)" stroke-opacity="1.0" stroke-linecap="round" stroke-linejoin="round"/>
    <path d="M 34.73332214355469 82.934814453125 C 57.733924865722656 76.06365203857422 105.17201232910156 69.04464721679688 132.94273376464844 97.17753601074219" stroke-width="3.0" fill="none" stroke="rgb(0, 0, 0)" stroke-opacity="1.0" stroke-linecap="round" stroke-linejoin="round"/>
    <path d="M 99.66068267822266 75.47349548339844 C 71.98468780517578 77.32734680175781 100.3098373413086 78.81954193115234 112.16085052490234 74.903564453125" stroke-width="3.0" fill="none" stroke="rgb(0, 0, 0)" stroke-opacity="1.0" stroke-linecap="round" stroke-linejoin="round"/>
    <path d="M 132.3888397216797 132.83241271972656 C 119.09589385986328 141.83056640625 111.7146987915039 139.51217651367188 144.47549438476562 135.39556884765625" stroke-width="3.0" fill="none" stroke="rgb(0, 0, 0)" stroke-opacity="1.0" stroke-linecap="round" stroke-linejoin="round"/>
    <path d="M 126.78372192382812 183.29383850097656 C 151.9261932373047 111.28870391845703 160.08157348632812 110.895751953125 149.3011016845703 120.0375747680664" stroke-width="3.0" fill="none" stroke="rgb(0, 0, 0)" stroke-opacity="1.0" stroke-linecap="round" stroke-linejoin="round"/>
    <path d="M 99.90265655517578 183.4029998779297 C 126.5507583618164 139.0323944091797 114.5762939453125 130.2407684326172 141.32041931152344 125.03364562988281" stroke-width="3.0" fill="none" stroke="rgb(0, 0, 0)" stroke-opacity="1.0" stroke-linecap="round" stroke-linejoin="round"/>
    <path d="M 137.01580810546875 130.9975128173828 C 136.1324462890625 174.42221069335938 125.00341033935547 185.3039093017578 138.540771484375 155.2322235107422" stroke-width="3.0" fill="none" stroke="rgb(0, 0, 0)" stroke-opacity="1.0" stroke-linecap="round" stroke-linejoin="round"/>
    <path d="M 121.81403350830078 144.9442901611328 C 133.51954650878906 130.06536865234375 138.5315399169922 108.94618225097656 124.17189025878906 151.9500732421875" stroke-width="3.0" fill="none" stroke="rgb(0, 0, 0)" stroke-opacity="1.0" stroke-linecap="round" stroke-linejoin="round"/>
    <path d="M 187.5920867919922 101.66732788085938 C 171.44369506835938 99.02091217041016 145.78021240234375 96.53385162353516 116.2342758178711 81.78950500488281" stroke-width="3.0" fill="none" stroke="rgb(0, 0, 0)" stroke-opacity="1.0" stroke-linecap="round" stroke-linejoin="round"/>
    <path d="M 133.518310546875 143.9181365966797 C 176.43617248535156 102.7353286743164 125.64786529541016 115.46083068847656 118.67378997802734 146.3577880859375" stroke-width="3.0" fill="none" stroke="rgb(0, 0, 0)" stroke-opacity="1.0" stroke-linecap="round" stroke-linejoin="round"/>
    <path d="M 108.46034240722656 81.06671905517578 C 72.9061050415039 84.31272888183594 116.42110443115234 67.28290557861328 169.94590759277344 99.9266128540039" stroke-width="3.0" fill="none" stroke="rgb(0, 0, 0)" stroke-opacity="1.0" stroke-linecap="round" stroke-linejoin="round"/>
    <path d="M 127.74794006347656 135.41429138183594 C 156.48928833007812 106.07978820800781 124.72451782226562 139.17025756835938 141.3014678955078 125.31267547607422" stroke-width="3.0" fill="none" stroke="rgb(0, 0, 0)" stroke-opacity="1.0" stroke-linecap="round" stroke-linejoin="round"/>
    <path d="M 55.12042236328125 54.66964340209961 C 81.13026428222656 76.21886444091797 111.40624237060547 76.51016998291016 114.48506927490234 81.9515151977539" stroke-width="3.0" fill="none" stroke="rgb(0, 0, 0)" stroke-opacity="1.0" stroke-linecap="round" stroke-linejoin="round"/>
    <path d="M 108.04508209228516 185.09161376953125 C 117.34467315673828 171.8544464111328 115.90917205810547 150.6005401611328 140.93080139160156 124.3284912109375" stroke-width="3.0" fill="none" stroke="rgb(0, 0, 0)" stroke-opacity="1.0" stroke-linecap="round" stroke-linejoin="round"/>
    <path d="M 189.09317016601562 102.19598388671875 C 126.16438293457031 102.39347076416016 111.02436828613281 94.16117095947266 177.68585205078125 98.65261840820312" stroke-width="3.0" fill="none" stroke="rgb(0, 0, 0)" stroke-opacity="1.0" stroke-linecap="round" stroke-linejoin="round"/>
    <path d="M 191.55882263183594 107.87709045410156 C 170.4154052734375 90.0110092163086 176.51336669921875 134.03094482421875 134.7635498046875 105.91586303710938" stroke-width="3.0" fill="none" stroke="rgb(0, 0, 0)" stroke-opacity="1.0" stroke-linecap="round" stroke-linejoin="round"/>
    <path d="M 111.26834869384766 80.05313110351562 C 155.84255981445312 75.82107543945312 141.8604278564453 97.79337310791016 178.12326049804688 96.99897766113281" stroke-width="3.0" fill="none" stroke="rgb(0, 0, 0)" stroke-opacity="1.0" stroke-linecap="round" stroke-linejoin="round"/>
    <path d="M 152.42672729492188 122.03633880615234 C 128.93052673339844 157.15272521972656 124.27312469482422 139.9511260986328 151.50389099121094 120.68302154541016" stroke-width="3.0" fill="none" stroke="rgb(0, 0, 0)" stroke-opacity="1.0" stroke-linecap="round" stroke-linejoin="round"/>
  </g>
</svg>
