<?xml version="1.0" ?>
<svg xmlns="http://www.w3.org/2000/svg" version="1.1" width="224" height="224">
  <defs/>
  <g>
    <path d="M 133.4920196533203 85.56438446044922 C 185.66648864746094 121.58116912841797 161.19268798828125 92.8973388671875 144.1879119873047 146.65870666503906" stroke-width="3.0" fill="none" stroke="rgb(0, 0, 0)" stroke-opacity="1.0" stroke-linecap="round" stroke-linejoin="round"/>
    <path d="M 108.36408233642578 160.17819213867188 C 156.29299926757812 96.862548828125 141.69178771972656 124.52078247070312 127.41455078125 169.6111602783203" stroke-width="3.0" fill="none" stroke="rgb(0, 0, 0)" stroke-opacity="1.0" stroke-linecap="round" stroke-linejoin="round"/>
    <path d="M 147.50030517578125 119.61878204345703 C 192.13906860351562 94.61219024658203 101.1865005493164 109.69861602783203 165.99020385742188 110.05420684814453" stroke-width="3.0" fill="none" stroke="rgb(0, 0, 0)" stroke-opacity="1.0" stroke-linecap="round" stroke-linejoin="round"/>
    <path d="M 170.51028442382812 107.02297973632812 C 127.40261840820312 110.1773681640625 114.19793701171875 105.57469177246094 182.53677368164062 100.44503021240234" stroke-width="3.0" fill="none" stroke="rgb(0, 0, 0)" stroke-opacity="1.0" stroke-linecap="round" stroke-linejoin="round"/>
    <path d="M 135.026123046875 107.5337905883789 C 165.35076904296875 126.79458618164062 187.50576782226562 86.51437377929688 190.44422912597656 106.05633544921875" stroke-width="3.0" fill="none" stroke="rgb(0, 0, 0)" stroke-opacity="1.0" stroke-linecap="round" stroke-linejoin="round"/>
    <path d="M 148.68246459960938 120.20185089111328 C 122.32044219970703 150.78164672851562 124.12051391601562 151.0076446533203 142.04591369628906 119.73920440673828" stroke-width="3.0" fill="none" stroke="rgb(0, 0, 0)" stroke-opacity="1.0" stroke-linecap="round" stroke-linejoin="round"/>
    <path d="M 122.56288146972656 83.01992797851562 C 160.6405487060547 113.33741760253906 220.28135681152344 96.94145965576172 156.79278564453125 85.91548156738281" stroke-width="3.0" fill="none" stroke="rgb(0, 0, 0)" stroke-opacity="1.0" stroke-linecap="round" stroke-linejoin="round"/>
    <path d="M 108.34130096435547 188.89675903320312 C 162.35104370117188 81.01856231689453 145.05665588378906 160.57791137695312 128.5210723876953 182.76766967773438" stroke-width="3.0" fill="none" stroke="rgb(0, 0, 0)" stroke-opacity="1.0" stroke-linecap="round" stroke-linejoin="round"/>
    <path d="M 135.1710968017578 134.31407165527344 C 110.85867309570312 148.79725646972656 115.91033172607422 149.5900115966797 129.23475646972656 129.22927856445312" stroke-width="3.0" fill="none" stroke="rgb(0, 0, 0)" stroke-opacity="1.0" stroke-linecap="round" stroke-linejoin="round"/>
    <path d="M 119.13626861572266 85.3774185180664 C 188.0575714111328 128.8638458251953 205.56539916992188 82.67755126953125 158.2735595703125 89.52825164794922" stroke-width="3.0" fill="none" stroke="rgb(0, 0, 0)" stroke-opacity="1.0" stroke-linecap="round" stroke-linejoin="round"/>
    <path d="M 144.90280151367188 120.88168334960938 C 139.91151428222656 172.04164123535156 129.34678649902344 171.0484619140625 153.00157165527344 110.50785827636719" stroke-width="3.0" fill="none" stroke="rgb(0, 0, 0)" stroke-opacity="1.0" stroke-linecap="round" stroke-linejoin="round"/>
    <path d="M 138.76878356933594 128.7412872314453 C 227.37606811523438 75.39386749267578 171.82595825195312 111.83454132080078 119.21179962158203 87.70974731445312" stroke-width="3.0" fill="none" stroke="rgb(0, 0, 0)" stroke-opacity="1.0" stroke-linecap="round" stroke-linejoin="round"/>
    <path d="M 120.41846466064453 183.10406494140625 C 146.4353485107422 125.25050354003906 136.56112670898438 119.24150848388672 180.96810913085938 98.95679473876953" stroke-width="3.0" fill="none" stroke="rgb(0, 0, 0)" stroke-opacity="1.0" stroke-linecap="round" stroke-linejoin="round"/>
    <path d="M 141.4205322265625 129.69691467285156 C 109.1104507446289 151.65484619140625 118.38684844970703 162.80711364746094 103.28861236572266 175.46302795410156" stroke-width="3.0" fill="none" stroke="rgb(0, 0, 0)" stroke-opacity="1.0" stroke-linecap="round" stroke-linejoin="round"/>
    <path d="M 48.53892135620117 94.55664825439453 C 75.7653579711914 81.7073974609375 111.54505920410156 71.9317626953125 150.20945739746094 112.03387451171875" stroke-width="3.0" fill="none" stroke="rgb(0, 0, 0)" stroke-opacity="1.0" stroke-linecap="round" stroke-linejoin="round"/>
    <path d="M 35.168975830078125 84.47306823730469 C 87.24897766113281 73.34181213378906 106.74736785888672 72.60990142822266 166.3724365234375 109.03622436523438" stroke-width="3.0" fill="none" stroke="rgb(0, 0, 0)" stroke-opacity="1.0" stroke-linecap="round" stroke-linejoin="round"/>
    <path d="M 97.54069519042969 79.4672622680664 C 70.02520751953125 73.40463256835938 88.80455017089844 77.82266998291016 106.37540435791016 73.51933288574219" stroke-width="3.0" fill="none" stroke="rgb(0, 0, 0)" stroke-opacity="1.0" stroke-linecap="round" stroke-linejoin="round"/>
    <path d="M 142.1020965576172 138.7877655029297 C 129.34869384765625 135.9856719970703 120.97057342529297 133.19203186035156 141.5923614501953 118.24081420898438" stroke-width="3.0" fill="none" stroke="rgb(0, 0, 0)" stroke-opacity="1.0" stroke-linecap="round" stroke-linejoin="round"/>
    <path d="M 116.88544464111328 186.38519287109375 C 151.04335021972656 107.74995422363281 163.98129272460938 116.28323364257812 140.81668090820312 127.94027709960938" stroke-width="3.0" fill="none" stroke="rgb(0, 0, 0)" stroke-opacity="1.0" stroke-linecap="round" stroke-linejoin="round"/>
    <path d="M 99.46583557128906 184.83660888671875 C 129.61378479003906 156.87881469726562 120.34076690673828 134.48497009277344 162.98622131347656 110.94393920898438" stroke-width="3.0" fill="none" stroke="rgb(0, 0, 0)" stroke-opacity="1.0" stroke-linecap="round" stroke-linejoin="round"/>
    <path d="M 156.12750244140625 112.4518814086914 C 130.99716186523438 158.06094360351562 125.71907043457031 202.17794799804688 137.48158264160156 160.35772705078125" stroke-width="3.0" fill="none" stroke="rgb(0, 0, 0)" stroke-opacity="1.0" stroke-linecap="round" stroke-linejoin="round"/>
    <path d="M 110.10601043701172 157.8480224609375 C 129.90467834472656 108.2712631225586 157.68682861328125 123.89857482910156 127.40337371826172 142.9344024658203" stroke-width="3.0" fill="none" stroke="rgb(0, 0, 0)" stroke-opacity="1.0" stroke-linecap="round" stroke-linejoin="round"/>
    <path d="M 182.20066833496094 101.02169799804688 C 168.51907348632812 111.3386001586914 162.697021484375 77.96693420410156 128.56277465820312 80.02607727050781" stroke-width="3.0" fill="none" stroke="rgb(0, 0, 0)" stroke-opacity="1.0" stroke-linecap="round" stroke-linejoin="round"/>
    <path d="M 133.18663024902344 143.943359375 C 179.93104553222656 102.54588317871094 129.57644653320312 111.22854614257812 120.69502258300781 149.65199279785156" stroke-width="3.0" fill="none" stroke="rgb(0, 0, 0)" stroke-opacity="1.0" stroke-linecap="round" stroke-linejoin="round"/>
    <path d="M 147.6954345703125 92.98941802978516 C 64.53129577636719 69.57769012451172 100.86531066894531 77.6812973022461 171.64796447753906 110.23821258544922" stroke-width="3.0" fill="none" stroke="rgb(0, 0, 0)" stroke-opacity="1.0" stroke-linecap="round" stroke-linejoin="round"/>
    <path d="M 136.50650024414062 163.56756591796875 C 156.86436462402344 116.51332092285156 115.68124389648438 142.5606231689453 145.77769470214844 126.7596435546875" stroke-width="3.0" fill="none" stroke="rgb(0, 0, 0)" stroke-opacity="1.0" stroke-linecap="round" stroke-linejoin="round"/>
    <path d="M 54.77060317993164 56.48569869995117 C 81.93560791015625 80.5934829711914 106.37449645996094 69.19182586669922 151.69178771972656 88.35818481445312" stroke-width="3.0" fill="none" stroke="rgb(0, 0, 0)" stroke-opacity="1.0" stroke-linecap="round" stroke-linejoin="round"/>
    <path d="M 105.1568374633789 171.59925842285156 C 116.85704803466797 154.67938232421875 117.59859466552734 146.58738708496094 142.2617645263672 125.6664047241211" stroke-width="3.0" fill="none" stroke="rgb(0, 0, 0)" stroke-opacity="1.0" stroke-linecap="round" stroke-linejoin="round"/>
    <path d="M 175.13990783691406 89.61141204833984 C 133.7291259765625 92.7110366821289 118.47660064697266 103.43513488769531 175.43832397460938 99.12247467041016" stroke-width="3.0" fill="none" stroke="rgb(0, 0, 0)" stroke-opacity="1.0" stroke-linecap="round" stroke-linejoin="round"/>
    <path d="M 191.3736114501953 108.8015365600586 C 171.9703826904297 90.0185775756836 174.5279998779297 130.55584716796875 136.9347686767578 100.95687103271484" stroke-width="3.0" fill="none" stroke="rgb(0, 0, 0)" stroke-opacity="1.0" stroke-linecap="round" stroke-linejoin="round"/>
    <path d="M 112.98303985595703 85.85287475585938 C 153.5231170654297 83.7460708618164 129.79739379882812 103.6996078491211 175.94296264648438 96.477294921875" stroke-width="3.0" fill="none" stroke="rgb(0, 0, 0)" stroke-opacity="1.0" stroke-linecap="round" stroke-linejoin="round"/>
    <path d="M 145.4245147705078 117.92810821533203 C 133.45799255371094 147.14112854003906 122.49128723144531 131.56072998046875 149.73208618164062 125.16487121582031" stroke-width="3.0" fill="none" stroke="rgb(0, 0, 0)" stroke-opacity="1.0" stroke-linecap="round" stroke-linejoin="round"/>
  </g>
</svg>
