<?xml version="1.0" ?>
<svg xmlns="http://www.w3.org/2000/svg" version="1.1" width="224" height="224">
  <defs/>
  <g>
    <path d="M 133.83615112304688 94.47390747070312 C 174.20474243164062 126.31820678710938 153.0778045654297 105.69441223144531 134.70887756347656 141.802978515625" stroke-width="3.0" fill="none" stroke="rgb(0, 0, 0)" stroke-opacity="1.0" stroke-linecap="round" stroke-linejoin="round"/>
    <path d="M 129.4360809326172 132.60946655273438 C 163.30563354492188 116.0564956665039 131.09390258789062 115.99786376953125 121.23158264160156 142.853515625" stroke-width="3.0" fill="none" stroke="rgb(0, 0, 0)" stroke-opacity="1.0" stroke-linecap="round" stroke-linejoin="round"/>
    <path d="M 148.00930786132812 119.02536010742188 C 205.10751342773438 107.89906311035156 101.70928192138672 105.9669189453125 158.5458221435547 103.04842376708984" stroke-width="3.0" fill="none" stroke="rgb(0, 0, 0)" stroke-opacity="1.0" stroke-linecap="round" stroke-linejoin="round"/>
    <path d="M 169.41787719726562 108.5433120727539 C 141.3385467529297 106.87911987304688 128.5236053466797 87.07323455810547 178.02317810058594 104.59951782226562" stroke-width="3.0" fill="none" stroke="rgb(0, 0, 0)" stroke-opacity="1.0" stroke-linecap="round" stroke-linejoin="round"/>
    <path d="M 151.60549926757812 109.10404205322266 C 171.63587951660156 119.83650207519531 186.38552856445312 92.86988067626953 190.2256622314453 108.27467346191406" stroke-width="3.0" fill="none" stroke="rgb(0, 0, 0)" stroke-opacity="1.0" stroke-linecap="round" stroke-linejoin="round"/>
    <path d="M 145.6132354736328 120.47412109375 C 135.29737854003906 171.65756225585938 125.32755279541016 159.1199493408203 144.58399963378906 123.41413879394531" stroke-width="3.0" fill="none" stroke="rgb(0, 0, 0)" stroke-opacity="1.0" stroke-linecap="round" stroke-linejoin="round"/>
    <path d="M 124.39344787597656 83.92964935302734 C 171.01828002929688 104.27417755126953 209.50352478027344 99.66462707519531 152.495361328125 86.9441146850586" stroke-width="3.0" fill="none" stroke="rgb(0, 0, 0)" stroke-opacity="1.0" stroke-linecap="round" stroke-linejoin="round"/>
    <path d="M 119.59519958496094 185.71109008789062 C 141.7327117919922 88.23565673828125 145.54347229003906 154.98406982421875 130.4644775390625 181.4373779296875" stroke-width="3.0" fill="none" stroke="rgb(0, 0, 0)" stroke-opacity="1.0" stroke-linecap="round" stroke-linejoin="round"/>
    <path d="M 130.6147003173828 132.45921325683594 C 112.53892517089844 159.79078674316406 115.90050506591797 151.96922302246094 121.4310073852539 136.20010375976562" stroke-width="3.0" fill="none" stroke="rgb(0, 0, 0)" stroke-opacity="1.0" stroke-linecap="round" stroke-linejoin="round"/>
    <path d="M 126.85690307617188 81.7615966796875 C 187.92762756347656 137.22377014160156 195.4652557373047 81.59659576416016 153.67539978027344 86.89543151855469" stroke-width="3.0" fill="none" stroke="rgb(0, 0, 0)" stroke-opacity="1.0" stroke-linecap="round" stroke-linejoin="round"/>
    <path d="M 148.641845703125 132.25656127929688 C 137.8047332763672 183.4286346435547 120.54743194580078 185.17832946777344 135.9437713623047 123.4762191772461" stroke-width="3.0" fill="none" stroke="rgb(0, 0, 0)" stroke-opacity="1.0" stroke-linecap="round" stroke-linejoin="round"/>
    <path d="M 136.72268676757812 122.48861694335938 C 204.23794555664062 97.98145294189453 154.09237670898438 109.48966979980469 125.98152923583984 88.95350646972656" stroke-width="3.0" fill="none" stroke="rgb(0, 0, 0)" stroke-opacity="1.0" stroke-linecap="round" stroke-linejoin="round"/>
    <path d="M 134.28431701660156 158.63710021972656 C 148.70555114746094 126.95490264892578 141.34556579589844 120.89261627197266 180.40814208984375 96.39552307128906" stroke-width="3.0" fill="none" stroke="rgb(0, 0, 0)" stroke-opacity="1.0" stroke-linecap="round" stroke-linejoin="round"/>
    <path d="M 135.9921112060547 132.35353088378906 C 116.22581481933594 166.8342742919922 121.11786651611328 174.6668243408203 107.6806411743164 189.0100555419922" stroke-width="3.0" fill="none" stroke="rgb(0, 0, 0)" stroke-opacity="1.0" stroke-linecap="round" stroke-linejoin="round"/>
    <path d="M 48.777618408203125 93.28411102294922 C 72.4582748413086 82.09285736083984 130.83401489257812 68.14346313476562 143.78466796875 104.74449920654297" stroke-width="3.0" fill="none" stroke="rgb(0, 0, 0)" stroke-opacity="1.0" stroke-linecap="round" stroke-linejoin="round"/>
    <path d="M 34.955955505371094 81.59749603271484 C 58.92396545410156 78.47513580322266 100.65733337402344 70.88739776611328 132.6021270751953 96.07745361328125" stroke-width="3.0" fill="none" stroke="rgb(0, 0, 0)" stroke-opacity="1.0" stroke-linecap="round" stroke-linejoin="round"/>
    <path d="M 98.77397918701172 82.3412094116211 C 71.44657135009766 76.42515563964844 99.5977783203125 78.1715316772461 111.44993591308594 74.51762390136719" stroke-width="3.0" fill="none" stroke="rgb(0, 0, 0)" stroke-opacity="1.0" stroke-linecap="round" stroke-linejoin="round"/>
    <path d="M 133.01205444335938 134.7758331298828 C 119.66687774658203 142.85836791992188 111.5991439819336 138.3865966796875 145.06564331054688 138.04937744140625" stroke-width="3.0" fill="none" stroke="rgb(0, 0, 0)" stroke-opacity="1.0" stroke-linecap="round" stroke-linejoin="round"/>
    <path d="M 127.8006362915039 184.18576049804688 C 155.44935607910156 117.23136901855469 161.3062286376953 116.36064147949219 148.3509063720703 120.53072357177734" stroke-width="3.0" fill="none" stroke="rgb(0, 0, 0)" stroke-opacity="1.0" stroke-linecap="round" stroke-linejoin="round"/>
    <path d="M 100.215087890625 186.46905517578125 C 126.84519958496094 139.04592895507812 114.52754974365234 130.4345245361328 140.89303588867188 124.8473129272461" stroke-width="3.0" fill="none" stroke="rgb(0, 0, 0)" stroke-opacity="1.0" stroke-linecap="round" stroke-linejoin="round"/>
    <path d="M 133.23733520507812 130.31883239746094 C 130.21368408203125 175.45216369628906 121.75756072998047 192.15594482421875 140.20103454589844 157.91978454589844" stroke-width="3.0" fill="none" stroke="rgb(0, 0, 0)" stroke-opacity="1.0" stroke-linecap="round" stroke-linejoin="round"/>
    <path d="M 120.67045593261719 143.07754516601562 C 131.00604248046875 127.10694122314453 140.90391540527344 109.10710906982422 128.8588409423828 153.6442413330078" stroke-width="3.0" fill="none" stroke="rgb(0, 0, 0)" stroke-opacity="1.0" stroke-linecap="round" stroke-linejoin="round"/>
    <path d="M 185.32467651367188 100.38894653320312 C 171.1501007080078 95.65213775634766 143.91860961914062 98.50198364257812 113.9549331665039 83.6344985961914" stroke-width="3.0" fill="none" stroke="rgb(0, 0, 0)" stroke-opacity="1.0" stroke-linecap="round" stroke-linejoin="round"/>
    <path d="M 134.2173309326172 142.83798217773438 C 180.99403381347656 106.04041290283203 124.67675018310547 115.70796203613281 118.05363464355469 145.08721923828125" stroke-width="3.0" fill="none" stroke="rgb(0, 0, 0)" stroke-opacity="1.0" stroke-linecap="round" stroke-linejoin="round"/>
    <path d="M 109.04296112060547 77.79924774169922 C 74.38044738769531 84.84981536865234 116.08683013916016 67.11674499511719 167.86781311035156 101.48595428466797" stroke-width="3.0" fill="none" stroke="rgb(0, 0, 0)" stroke-opacity="1.0" stroke-linecap="round" stroke-linejoin="round"/>
    <path d="M 128.3857421875 134.16375732421875 C 156.5004425048828 106.08399200439453 124.72937774658203 139.17205810546875 141.4799346923828 124.20137023925781" stroke-width="3.0" fill="none" stroke="rgb(0, 0, 0)" stroke-opacity="1.0" stroke-linecap="round" stroke-linejoin="round"/>
    <path d="M 55.6328010559082 56.152618408203125 C 76.85100555419922 76.62568664550781 111.5287094116211 77.02210998535156 111.97850799560547 81.53573608398438" stroke-width="3.0" fill="none" stroke="rgb(0, 0, 0)" stroke-opacity="1.0" stroke-linecap="round" stroke-linejoin="round"/>
    <path d="M 107.25176239013672 188.73606872558594 C 116.63310241699219 171.2145538330078 115.84898376464844 150.33094787597656 140.44171142578125 123.9822769165039" stroke-width="3.0" fill="none" stroke="rgb(0, 0, 0)" stroke-opacity="1.0" stroke-linecap="round" stroke-linejoin="round"/>
    <path d="M 188.2964630126953 105.38086700439453 C 126.67200469970703 101.60568237304688 111.39997863769531 93.04556274414062 180.11239624023438 96.07306671142578" stroke-width="3.0" fill="none" stroke="rgb(0, 0, 0)" stroke-opacity="1.0" stroke-linecap="round" stroke-linejoin="round"/>
    <path d="M 190.8936767578125 111.1427001953125 C 171.5367889404297 92.17198181152344 174.0025177001953 132.5491180419922 139.7550048828125 106.27025604248047" stroke-width="3.0" fill="none" stroke="rgb(0, 0, 0)" stroke-opacity="1.0" stroke-linecap="round" stroke-linejoin="round"/>
    <path d="M 110.79371643066406 79.30289459228516 C 152.0543212890625 76.80442810058594 140.29656982421875 100.99012756347656 180.29649353027344 101.62161254882812" stroke-width="3.0" fill="none" stroke="rgb(0, 0, 0)" stroke-opacity="1.0" stroke-linecap="round" stroke-linejoin="round"/>
    <path d="M 152.56106567382812 122.26683044433594 C 127.3147964477539 156.26547241210938 122.08064270019531 138.0467071533203 150.4109344482422 119.95277404785156" stroke-width="3.0" fill="none" stroke="rgb(0, 0, 0)" stroke-opacity="1.0" stroke-linecap="round" stroke-linejoin="round"/>
  </g>
</svg>
