<?xml version="1.0" ?>
<svg xmlns="http://www.w3.org/2000/svg" version="1.1" width="224" height="224">
  <defs/>
  <g>
    <path d="M 141.93287658691406 115.67863464355469 C 170.0703125 101.74591064453125 155.33322143554688 117.13099670410156 142.8148651123047 121.83294677734375" stroke-width="3.0" fill="none" stroke="rgb(0, 0, 0)" stroke-opacity="1.0" stroke-linecap="round" stroke-linejoin="round"/>
    <path d="M 136.8948211669922 156.05775451660156 C 149.80015563964844 117.31396484375 137.6507110595703 125.76178741455078 137.3820037841797 149.3072967529297" stroke-width="3.0" fill="none" stroke="rgb(0, 0, 0)" stroke-opacity="1.0" stroke-linecap="round" stroke-linejoin="round"/>
    <path d="M 150.32504272460938 114.81513214111328 C 159.6619873046875 117.29888153076172 139.76199340820312 111.69825744628906 145.20547485351562 120.11959075927734" stroke-width="3.0" fill="none" stroke="rgb(0, 0, 0)" stroke-opacity="1.0" stroke-linecap="round" stroke-linejoin="round"/>
    <path d="M 154.01708984375 122.64251708984375 C 149.14410400390625 124.1944580078125 144.96661376953125 134.5800018310547 150.29025268554688 115.86710357666016" stroke-width="3.0" fill="none" stroke="rgb(0, 0, 0)" stroke-opacity="1.0" stroke-linecap="round" stroke-linejoin="round"/>
    <path d="M 161.9072723388672 117.27741241455078 C 177.01788330078125 87.8682632446289 173.34190368652344 89.0964126586914 183.7028350830078 101.39743041992188" stroke-width="3.0" fill="none" stroke="rgb(0, 0, 0)" stroke-opacity="1.0" stroke-linecap="round" stroke-linejoin="round"/>
    <path d="M 138.99911499023438 123.09244537353516 C 116.59119415283203 137.017822265625 118.73523712158203 146.6973876953125 139.2674102783203 130.8179931640625" stroke-width="3.0" fill="none" stroke="rgb(0, 0, 0)" stroke-opacity="1.0" stroke-linecap="round" stroke-linejoin="round"/>
    <path d="M 160.87901306152344 95.63964080810547 C 161.7622528076172 103.96420288085938 175.20346069335938 108.56310272216797 161.69000244140625 90.45674133300781" stroke-width="3.0" fill="none" stroke="rgb(0, 0, 0)" stroke-opacity="1.0" stroke-linecap="round" stroke-linejoin="round"/>
    <path d="M 121.75277709960938 177.84756469726562 C 133.02964782714844 133.55474853515625 143.5433807373047 153.16615295410156 128.09951782226562 178.99929809570312" stroke-width="3.0" fill="none" stroke="rgb(0, 0, 0)" stroke-opacity="1.0" stroke-linecap="round" stroke-linejoin="round"/>
    <path d="M 125.38433837890625 157.43197631835938 C 107.15199279785156 192.49746704101562 110.33329010009766 176.96102905273438 119.90170288085938 165.39537048339844" stroke-width="3.0" fill="none" stroke="rgb(0, 0, 0)" stroke-opacity="1.0" stroke-linecap="round" stroke-linejoin="round"/>
    <path d="M 147.89422607421875 91.34788513183594 C 186.13304138183594 91.77528381347656 171.76473999023438 91.44462585449219 145.25296020507812 89.11991882324219" stroke-width="3.0" fill="none" stroke="rgb(0, 0, 0)" stroke-opacity="1.0" stroke-linecap="round" stroke-linejoin="round"/>
    <path d="M 135.49009704589844 145.23675537109375 C 128.14089965820312 145.35708618164062 137.75538635253906 161.2342529296875 134.22474670410156 152.02513122558594" stroke-width="3.0" fill="none" stroke="rgb(0, 0, 0)" stroke-opacity="1.0" stroke-linecap="round" stroke-linejoin="round"/>
    <path d="M 150.90748596191406 112.12335205078125 C 170.6235809326172 111.17350006103516 165.95188903808594 119.26425170898438 133.71034240722656 96.1041030883789" stroke-width="3.0" fill="none" stroke="rgb(0, 0, 0)" stroke-opacity="1.0" stroke-linecap="round" stroke-linejoin="round"/>
    <path d="M 136.7193603515625 161.59243774414062 C 146.46728515625 131.45492553710938 144.62478637695312 121.32041931152344 160.72412109375 118.83647155761719" stroke-width="3.0" fill="none" stroke="rgb(0, 0, 0)" stroke-opacity="1.0" stroke-linecap="round" stroke-linejoin="round"/>
    <path d="M 133.77142333984375 155.85897827148438 C 121.70365142822266 176.1451873779297 130.3486328125 172.1723175048828 118.84907531738281 179.50730895996094" stroke-width="3.0" fill="none" stroke="rgb(0, 0, 0)" stroke-opacity="1.0" stroke-linecap="round" stroke-linejoin="round"/>
    <path d="M 66.86483764648438 84.6575927734375 C 78.30756378173828 82.32938385009766 106.56561279296875 78.05438995361328 116.92327117919922 82.5221939086914" stroke-width="3.0" fill="none" stroke="rgb(0, 0, 0)" stroke-opacity="1.0" stroke-linecap="round" stroke-linejoin="round"/>
    <path d="M 44.60590744018555 93.16058349609375 C 61.65613555908203 86.91046905517578 66.98114776611328 80.9410629272461 81.53553771972656 80.52154541015625" stroke-width="3.0" fill="none" stroke="rgb(0, 0, 0)" stroke-opacity="1.0" stroke-linecap="round" stroke-linejoin="round"/>
    <path d="M 43.865966796875 61.04132843017578 C 48.7982177734375 63.80113220214844 54.372528076171875 66.00162506103516 95.65258026123047 76.24109649658203" stroke-width="3.0" fill="none" stroke="rgb(0, 0, 0)" stroke-opacity="1.0" stroke-linecap="round" stroke-linejoin="round"/>
    <path d="M 120.1350326538086 145.77931213378906 C 112.18521118164062 160.06417846679688 113.5162124633789 172.0894775390625 126.48322296142578 148.4862823486328" stroke-width="3.0" fill="none" stroke="rgb(0, 0, 0)" stroke-opacity="1.0" stroke-linecap="round" stroke-linejoin="round"/>
    <path d="M 134.56985473632812 166.9599609375 C 143.35748291015625 140.13905334472656 140.40054321289062 148.5380401611328 120.44949340820312 146.15977478027344" stroke-width="3.0" fill="none" stroke="rgb(0, 0, 0)" stroke-opacity="1.0" stroke-linecap="round" stroke-linejoin="round"/>
    <path d="M 114.89009857177734 169.1017303466797 C 123.48379516601562 147.62379455566406 125.22979736328125 155.9809112548828 135.75875854492188 140.2584991455078" stroke-width="3.0" fill="none" stroke="rgb(0, 0, 0)" stroke-opacity="1.0" stroke-linecap="round" stroke-linejoin="round"/>
    <path d="M 123.19866943359375 177.53700256347656 C 119.28427124023438 181.7416229248047 116.00050354003906 193.0096893310547 128.81834411621094 168.4519805908203" stroke-width="3.0" fill="none" stroke="rgb(0, 0, 0)" stroke-opacity="1.0" stroke-linecap="round" stroke-linejoin="round"/>
    <path d="M 127.80622100830078 165.713134765625 C 129.7378387451172 129.530517578125 136.1576690673828 108.80579376220703 136.0802001953125 153.7701416015625" stroke-width="3.0" fill="none" stroke="rgb(0, 0, 0)" stroke-opacity="1.0" stroke-linecap="round" stroke-linejoin="round"/>
    <path d="M 151.0648956298828 112.94074249267578 C 150.91456604003906 105.36900329589844 136.35423278808594 95.48353576660156 131.48638916015625 84.84414672851562" stroke-width="3.0" fill="none" stroke="rgb(0, 0, 0)" stroke-opacity="1.0" stroke-linecap="round" stroke-linejoin="round"/>
    <path d="M 121.15892028808594 153.59703063964844 C 138.66131591796875 125.86480712890625 127.02641296386719 129.88577270507812 116.09614562988281 152.46218872070312" stroke-width="3.0" fill="none" stroke="rgb(0, 0, 0)" stroke-opacity="1.0" stroke-linecap="round" stroke-linejoin="round"/>
    <path d="M 108.63826751708984 74.16926574707031 C 56.5428352355957 73.24189758300781 92.9184799194336 63.12693405151367 132.9718475341797 88.22559356689453" stroke-width="3.0" fill="none" stroke="rgb(0, 0, 0)" stroke-opacity="1.0" stroke-linecap="round" stroke-linejoin="round"/>
    <path d="M 139.8797607421875 136.59927368164062 C 146.2664794921875 129.50270080566406 135.2452392578125 144.124267578125 127.80266571044922 153.74952697753906" stroke-width="3.0" fill="none" stroke="rgb(0, 0, 0)" stroke-opacity="1.0" stroke-linecap="round" stroke-linejoin="round"/>
    <path d="M 59.31340789794922 87.75261688232422 C 77.8395767211914 85.0625 76.51807403564453 76.23011779785156 103.37033081054688 77.06857299804688" stroke-width="3.0" fill="none" stroke="rgb(0, 0, 0)" stroke-opacity="1.0" stroke-linecap="round" stroke-linejoin="round"/>
    <path d="M 101.37796020507812 187.34271240234375 C 118.70661926269531 162.5552978515625 104.90564727783203 161.70196533203125 124.73400115966797 149.198486328125" stroke-width="3.0" fill="none" stroke="rgb(0, 0, 0)" stroke-opacity="1.0" stroke-linecap="round" stroke-linejoin="round"/>
    <path d="M 172.73304748535156 100.5964584350586 C 158.37620544433594 85.32722473144531 157.0939178466797 89.22102355957031 166.47808837890625 105.72273254394531" stroke-width="3.0" fill="none" stroke="rgb(0, 0, 0)" stroke-opacity="1.0" stroke-linecap="round" stroke-linejoin="round"/>
    <path d="M 190.66204833984375 111.83425903320312 C 183.76597595214844 109.35535430908203 180.5723114013672 93.97877502441406 165.16737365722656 113.76262664794922" stroke-width="3.0" fill="none" stroke="rgb(0, 0, 0)" stroke-opacity="1.0" stroke-linecap="round" stroke-linejoin="round"/>
    <path d="M 114.05024719238281 79.14897155761719 C 149.0394287109375 77.39530181884766 145.44418334960938 82.84896850585938 165.60008239746094 102.39777374267578" stroke-width="3.0" fill="none" stroke="rgb(0, 0, 0)" stroke-opacity="1.0" stroke-linecap="round" stroke-linejoin="round"/>
    <path d="M 141.14027404785156 134.10565185546875 C 111.3757095336914 154.5158233642578 112.9320297241211 145.11805725097656 131.4389190673828 128.36868286132812" stroke-width="3.0" fill="none" stroke="rgb(0, 0, 0)" stroke-opacity="1.0" stroke-linecap="round" stroke-linejoin="round"/>
  </g>
</svg>
