<?xml version="1.0" ?>
<svg xmlns="http://www.w3.org/2000/svg" version="1.1" width="224" height="224">
  <defs/>
  <g>
    <path d="M 140.66136169433594 110.40949249267578 C 187.03738403320312 124.01095581054688 150.02134704589844 110.97085571289062 130.0706024169922 129.47198486328125" stroke-width="3.0" fill="none" stroke="rgb(0, 0, 0)" stroke-opacity="1.0" stroke-linecap="round" stroke-linejoin="round"/>
    <path d="M 135.26316833496094 132.33970642089844 C 155.3681640625 115.66722106933594 132.6536865234375 121.88836669921875 127.64094543457031 152.4835205078125" stroke-width="3.0" fill="none" stroke="rgb(0, 0, 0)" stroke-opacity="1.0" stroke-linecap="round" stroke-linejoin="round"/>
    <path d="M 149.47271728515625 124.01314544677734 C 172.91799926757812 107.43775939941406 145.245361328125 118.55236053466797 164.20680236816406 110.23124694824219" stroke-width="3.0" fill="none" stroke="rgb(0, 0, 0)" stroke-opacity="1.0" stroke-linecap="round" stroke-linejoin="round"/>
    <path d="M 161.59829711914062 109.99996185302734 C 138.39389038085938 113.8639144897461 120.51963806152344 86.23369598388672 154.59202575683594 108.5409927368164" stroke-width="3.0" fill="none" stroke="rgb(0, 0, 0)" stroke-opacity="1.0" stroke-linecap="round" stroke-linejoin="round"/>
    <path d="M 163.0174560546875 117.20779418945312 C 184.5281982421875 109.6296157836914 171.88504028320312 80.81073760986328 190.56393432617188 105.64351654052734" stroke-width="3.0" fill="none" stroke="rgb(0, 0, 0)" stroke-opacity="1.0" stroke-linecap="round" stroke-linejoin="round"/>
    <path d="M 148.28265380859375 122.78028106689453 C 127.52147674560547 158.73912048339844 118.75550842285156 152.28173828125 143.25184631347656 131.5704345703125" stroke-width="3.0" fill="none" stroke="rgb(0, 0, 0)" stroke-opacity="1.0" stroke-linecap="round" stroke-linejoin="round"/>
    <path d="M 142.68923950195312 84.52629852294922 C 167.66209411621094 100.92135620117188 207.7748260498047 98.04048919677734 163.1171112060547 99.9118423461914" stroke-width="3.0" fill="none" stroke="rgb(0, 0, 0)" stroke-opacity="1.0" stroke-linecap="round" stroke-linejoin="round"/>
    <path d="M 123.26749420166016 174.63925170898438 C 140.6845245361328 113.29273986816406 147.57052612304688 157.12791442871094 129.49424743652344 181.59896850585938" stroke-width="3.0" fill="none" stroke="rgb(0, 0, 0)" stroke-opacity="1.0" stroke-linecap="round" stroke-linejoin="round"/>
    <path d="M 127.99115753173828 141.1538848876953 C 102.1037368774414 188.44459533691406 104.27800750732422 168.0948028564453 119.46720886230469 144.14686584472656" stroke-width="3.0" fill="none" stroke="rgb(0, 0, 0)" stroke-opacity="1.0" stroke-linecap="round" stroke-linejoin="round"/>
    <path d="M 132.43777465820312 85.02161407470703 C 200.54541015625 120.0919418334961 188.36595153808594 85.55860137939453 158.35679626464844 88.18604278564453" stroke-width="3.0" fill="none" stroke="rgb(0, 0, 0)" stroke-opacity="1.0" stroke-linecap="round" stroke-linejoin="round"/>
    <path d="M 134.7084197998047 140.1162872314453 C 131.43142700195312 138.34312438964844 141.31927490234375 156.11119079589844 149.82073974609375 120.83523559570312" stroke-width="3.0" fill="none" stroke="rgb(0, 0, 0)" stroke-opacity="1.0" stroke-linecap="round" stroke-linejoin="round"/>
    <path d="M 143.5395965576172 109.57801055908203 C 184.11114501953125 116.050537109375 162.75341796875 122.69734954833984 137.80967712402344 103.50550842285156" stroke-width="3.0" fill="none" stroke="rgb(0, 0, 0)" stroke-opacity="1.0" stroke-linecap="round" stroke-linejoin="round"/>
    <path d="M 136.46292114257812 165.1988067626953 C 145.00120544433594 134.35618591308594 145.4083709716797 123.89260864257812 168.5686492919922 112.21511840820312" stroke-width="3.0" fill="none" stroke="rgb(0, 0, 0)" stroke-opacity="1.0" stroke-linecap="round" stroke-linejoin="round"/>
    <path d="M 139.93374633789062 148.5272979736328 C 121.86698150634766 179.57931518554688 126.5827407836914 178.83633422851562 118.9365463256836 186.64556884765625" stroke-width="3.0" fill="none" stroke="rgb(0, 0, 0)" stroke-opacity="1.0" stroke-linecap="round" stroke-linejoin="round"/>
    <path d="M 48.546775817871094 92.50576782226562 C 72.7911376953125 80.91932678222656 123.59687805175781 71.57952880859375 148.4977264404297 92.5363998413086" stroke-width="3.0" fill="none" stroke="rgb(0, 0, 0)" stroke-opacity="1.0" stroke-linecap="round" stroke-linejoin="round"/>
    <path d="M 33.422950744628906 83.90953063964844 C 53.29899597167969 83.6711654663086 75.20201873779297 76.14114379882812 106.67011260986328 79.07012176513672" stroke-width="3.0" fill="none" stroke="rgb(0, 0, 0)" stroke-opacity="1.0" stroke-linecap="round" stroke-linejoin="round"/>
    <path d="M 62.55044937133789 57.39345169067383 C 60.79457473754883 55.86184310913086 79.64395141601562 77.27363586425781 105.56963348388672 75.45475006103516" stroke-width="3.0" fill="none" stroke="rgb(0, 0, 0)" stroke-opacity="1.0" stroke-linecap="round" stroke-linejoin="round"/>
    <path d="M 120.5050048828125 137.21055603027344 C 114.09512329101562 153.98275756835938 103.88341522216797 150.45315551757812 133.47056579589844 139.0951690673828" stroke-width="3.0" fill="none" stroke="rgb(0, 0, 0)" stroke-opacity="1.0" stroke-linecap="round" stroke-linejoin="round"/>
    <path d="M 130.38909912109375 178.31881713867188 C 148.49244689941406 131.573486328125 143.9831085205078 142.38143920898438 129.1478729248047 130.49098205566406" stroke-width="3.0" fill="none" stroke="rgb(0, 0, 0)" stroke-opacity="1.0" stroke-linecap="round" stroke-linejoin="round"/>
    <path d="M 99.331787109375 186.6568145751953 C 124.94329071044922 142.67564392089844 123.25687408447266 144.63619995117188 137.47023010253906 135.27359008789062" stroke-width="3.0" fill="none" stroke="rgb(0, 0, 0)" stroke-opacity="1.0" stroke-linecap="round" stroke-linejoin="round"/>
    <path d="M 125.18574523925781 168.98158264160156 C 116.12425231933594 180.01968383789062 117.36912536621094 197.482421875 126.72871398925781 163.67453002929688" stroke-width="3.0" fill="none" stroke="rgb(0, 0, 0)" stroke-opacity="1.0" stroke-linecap="round" stroke-linejoin="round"/>
    <path d="M 115.90653991699219 143.90003967285156 C 127.24061584472656 135.1798095703125 141.46046447753906 117.323974609375 120.69184875488281 144.0263671875" stroke-width="3.0" fill="none" stroke="rgb(0, 0, 0)" stroke-opacity="1.0" stroke-linecap="round" stroke-linejoin="round"/>
    <path d="M 156.74986267089844 113.59394836425781 C 160.76217651367188 107.28246307373047 138.47996520996094 99.7494888305664 125.12853240966797 85.72891998291016" stroke-width="3.0" fill="none" stroke="rgb(0, 0, 0)" stroke-opacity="1.0" stroke-linecap="round" stroke-linejoin="round"/>
    <path d="M 135.77565002441406 151.72975158691406 C 154.6005096435547 120.37908172607422 124.94373321533203 120.50291442871094 115.80118560791016 149.00694274902344" stroke-width="3.0" fill="none" stroke="rgb(0, 0, 0)" stroke-opacity="1.0" stroke-linecap="round" stroke-linejoin="round"/>
    <path d="M 103.7520523071289 75.58943939208984 C 59.95462417602539 92.65557861328125 106.78535461425781 64.73029327392578 152.49627685546875 103.57894897460938" stroke-width="3.0" fill="none" stroke="rgb(0, 0, 0)" stroke-opacity="1.0" stroke-linecap="round" stroke-linejoin="round"/>
    <path d="M 136.35874938964844 144.59654235839844 C 146.4575958251953 119.5114974975586 119.44500732421875 130.67979431152344 134.66636657714844 146.44647216796875" stroke-width="3.0" fill="none" stroke="rgb(0, 0, 0)" stroke-opacity="1.0" stroke-linecap="round" stroke-linejoin="round"/>
    <path d="M 43.00112533569336 63.001346588134766 C 52.41457748413086 71.26219940185547 102.83409881591797 74.01933288574219 109.1290054321289 83.12809753417969" stroke-width="3.0" fill="none" stroke="rgb(0, 0, 0)" stroke-opacity="1.0" stroke-linecap="round" stroke-linejoin="round"/>
    <path d="M 105.90056610107422 188.18475341796875 C 125.15412139892578 165.76461791992188 114.8985824584961 157.14169311523438 142.6849365234375 138.82635498046875" stroke-width="3.0" fill="none" stroke="rgb(0, 0, 0)" stroke-opacity="1.0" stroke-linecap="round" stroke-linejoin="round"/>
    <path d="M 185.2395477294922 97.97180938720703 C 138.482177734375 93.23571014404297 123.8111343383789 104.8485107421875 170.77999877929688 108.47956848144531" stroke-width="3.0" fill="none" stroke="rgb(0, 0, 0)" stroke-opacity="1.0" stroke-linecap="round" stroke-linejoin="round"/>
    <path d="M 190.18002319335938 107.71078491210938 C 183.30030822753906 100.86187744140625 184.22537231445312 102.95730590820312 157.3455352783203 114.56974792480469" stroke-width="3.0" fill="none" stroke="rgb(0, 0, 0)" stroke-opacity="1.0" stroke-linecap="round" stroke-linejoin="round"/>
    <path d="M 119.32551574707031 83.41664123535156 C 157.5688934326172 77.24852752685547 135.28326416015625 98.35332489013672 179.9254150390625 95.43511199951172" stroke-width="3.0" fill="none" stroke="rgb(0, 0, 0)" stroke-opacity="1.0" stroke-linecap="round" stroke-linejoin="round"/>
    <path d="M 151.1187286376953 124.7214126586914 C 105.37689971923828 155.6490936279297 113.67301940917969 145.92369079589844 141.39312744140625 129.0889892578125" stroke-width="3.0" fill="none" stroke="rgb(0, 0, 0)" stroke-opacity="1.0" stroke-linecap="round" stroke-linejoin="round"/>
  </g>
</svg>
