<?xml version="1.0" ?>
<svg xmlns="http://www.w3.org/2000/svg" version="1.1" width="224" height="224">
  <defs/>
  <g>
    <path d="M 133.1265106201172 86.22801971435547 C 182.78990173339844 119.30135345458984 154.45745849609375 88.88697814941406 138.5738525390625 148.30984497070312" stroke-width="3.0" fill="none" stroke="rgb(0, 0, 0)" stroke-opacity="1.0" stroke-linecap="round" stroke-linejoin="round"/>
    <path d="M 108.14576721191406 156.5813751220703 C 156.30667114257812 97.34297180175781 138.1313018798828 123.51194763183594 122.89634704589844 165.9709014892578" stroke-width="3.0" fill="none" stroke="rgb(0, 0, 0)" stroke-opacity="1.0" stroke-linecap="round" stroke-linejoin="round"/>
    <path d="M 147.17910766601562 118.4364013671875 C 198.99005126953125 101.76158905029297 115.00032043457031 123.2442626953125 166.54681396484375 108.95927429199219" stroke-width="3.0" fill="none" stroke="rgb(0, 0, 0)" stroke-opacity="1.0" stroke-linecap="round" stroke-linejoin="round"/>
    <path d="M 170.113037109375 109.59860229492188 C 127.08139038085938 113.1746826171875 117.0978775024414 105.90696716308594 185.5181884765625 99.67916870117188" stroke-width="3.0" fill="none" stroke="rgb(0, 0, 0)" stroke-opacity="1.0" stroke-linecap="round" stroke-linejoin="round"/>
    <path d="M 135.7272186279297 108.2952651977539 C 167.20733642578125 127.14229583740234 186.50323486328125 87.91041564941406 191.11119079589844 106.05668640136719" stroke-width="3.0" fill="none" stroke="rgb(0, 0, 0)" stroke-opacity="1.0" stroke-linecap="round" stroke-linejoin="round"/>
    <path d="M 151.29432678222656 119.55606842041016 C 132.18353271484375 166.1256866455078 125.56419372558594 158.8444366455078 143.06015014648438 120.10213470458984" stroke-width="3.0" fill="none" stroke="rgb(0, 0, 0)" stroke-opacity="1.0" stroke-linecap="round" stroke-linejoin="round"/>
    <path d="M 124.05681610107422 85.06095123291016 C 159.8065948486328 115.37431335449219 218.0963897705078 96.209716796875 158.34837341308594 88.77679443359375" stroke-width="3.0" fill="none" stroke="rgb(0, 0, 0)" stroke-opacity="1.0" stroke-linecap="round" stroke-linejoin="round"/>
    <path d="M 110.14122009277344 187.9224395751953 C 158.9724884033203 84.80361938476562 143.76947021484375 163.63058471679688 129.70999145507812 182.40277099609375" stroke-width="3.0" fill="none" stroke="rgb(0, 0, 0)" stroke-opacity="1.0" stroke-linecap="round" stroke-linejoin="round"/>
    <path d="M 132.381591796875 129.7335968017578 C 109.31767272949219 147.24473571777344 115.53377532958984 149.6988983154297 126.08081817626953 130.38450622558594" stroke-width="3.0" fill="none" stroke="rgb(0, 0, 0)" stroke-opacity="1.0" stroke-linecap="round" stroke-linejoin="round"/>
    <path d="M 124.81808471679688 88.91798400878906 C 181.2921905517578 136.78134155273438 199.94189453125 83.61534118652344 153.7548370361328 87.81655883789062" stroke-width="3.0" fill="none" stroke="rgb(0, 0, 0)" stroke-opacity="1.0" stroke-linecap="round" stroke-linejoin="round"/>
    <path d="M 141.95738220214844 122.68476867675781 C 141.9374237060547 173.69198608398438 131.1393280029297 173.9612579345703 155.44053649902344 114.9950180053711" stroke-width="3.0" fill="none" stroke="rgb(0, 0, 0)" stroke-opacity="1.0" stroke-linecap="round" stroke-linejoin="round"/>
    <path d="M 132.77078247070312 125.37313079833984 C 214.83575439453125 78.92610931396484 166.6659698486328 111.45569610595703 118.5487060546875 82.13931274414062" stroke-width="3.0" fill="none" stroke="rgb(0, 0, 0)" stroke-opacity="1.0" stroke-linecap="round" stroke-linejoin="round"/>
    <path d="M 123.33364868164062 178.0646209716797 C 148.56275939941406 126.3499755859375 139.01564025878906 121.48595428466797 184.505615234375 97.87747955322266" stroke-width="3.0" fill="none" stroke="rgb(0, 0, 0)" stroke-opacity="1.0" stroke-linecap="round" stroke-linejoin="round"/>
    <path d="M 138.53131103515625 124.88070678710938 C 102.95875549316406 145.27735900878906 115.23912811279297 167.2808837890625 100.89958190917969 179.488525390625" stroke-width="3.0" fill="none" stroke="rgb(0, 0, 0)" stroke-opacity="1.0" stroke-linecap="round" stroke-linejoin="round"/>
    <path d="M 49.64234161376953 94.973876953125 C 77.498779296875 83.05720520019531 111.73052978515625 72.19568634033203 150.89402770996094 113.36138153076172" stroke-width="3.0" fill="none" stroke="rgb(0, 0, 0)" stroke-opacity="1.0" stroke-linecap="round" stroke-linejoin="round"/>
    <path d="M 34.391510009765625 85.1221694946289 C 81.64847564697266 75.40154266357422 98.62818145751953 76.63163757324219 168.56234741210938 106.63668823242188" stroke-width="3.0" fill="none" stroke="rgb(0, 0, 0)" stroke-opacity="1.0" stroke-linecap="round" stroke-linejoin="round"/>
    <path d="M 106.40388488769531 81.26995849609375 C 74.30184936523438 78.86239624023438 92.591552734375 80.64128112792969 108.55492401123047 74.65132141113281" stroke-width="3.0" fill="none" stroke="rgb(0, 0, 0)" stroke-opacity="1.0" stroke-linecap="round" stroke-linejoin="round"/>
    <path d="M 142.22010803222656 138.6424102783203 C 129.51296997070312 135.40457153320312 122.67923736572266 137.0880126953125 144.9860382080078 125.90609741210938" stroke-width="3.0" fill="none" stroke="rgb(0, 0, 0)" stroke-opacity="1.0" stroke-linecap="round" stroke-linejoin="round"/>
    <path d="M 121.00350189208984 186.66876220703125 C 146.18788146972656 102.52149200439453 160.80120849609375 113.69520568847656 140.38327026367188 127.72512817382812" stroke-width="3.0" fill="none" stroke="rgb(0, 0, 0)" stroke-opacity="1.0" stroke-linecap="round" stroke-linejoin="round"/>
    <path d="M 101.68505859375 188.5262451171875 C 128.3144073486328 158.15830993652344 116.94840240478516 135.1151123046875 162.198974609375 111.12555694580078" stroke-width="3.0" fill="none" stroke="rgb(0, 0, 0)" stroke-opacity="1.0" stroke-linecap="round" stroke-linejoin="round"/>
    <path d="M 155.69970703125 110.365234375 C 132.426513671875 159.57052612304688 127.67395782470703 201.81756591796875 137.509765625 160.31369018554688" stroke-width="3.0" fill="none" stroke="rgb(0, 0, 0)" stroke-opacity="1.0" stroke-linecap="round" stroke-linejoin="round"/>
    <path d="M 118.6993637084961 151.58877563476562 C 133.50823974609375 117.63848114013672 157.2477264404297 123.45067596435547 126.47969055175781 152.59173583984375" stroke-width="3.0" fill="none" stroke="rgb(0, 0, 0)" stroke-opacity="1.0" stroke-linecap="round" stroke-linejoin="round"/>
    <path d="M 180.29190063476562 98.39525604248047 C 166.69456481933594 108.81819915771484 151.70938110351562 87.03739929199219 127.50093078613281 82.72319793701172" stroke-width="3.0" fill="none" stroke="rgb(0, 0, 0)" stroke-opacity="1.0" stroke-linecap="round" stroke-linejoin="round"/>
    <path d="M 133.07054138183594 142.22488403320312 C 176.0901336669922 104.41452026367188 126.12635040283203 112.40434265136719 117.39105224609375 146.76710510253906" stroke-width="3.0" fill="none" stroke="rgb(0, 0, 0)" stroke-opacity="1.0" stroke-linecap="round" stroke-linejoin="round"/>
    <path d="M 140.57672119140625 86.08842468261719 C 62.177188873291016 78.59402465820312 106.44319152832031 73.2998275756836 175.16485595703125 107.28848266601562" stroke-width="3.0" fill="none" stroke="rgb(0, 0, 0)" stroke-opacity="1.0" stroke-linecap="round" stroke-linejoin="round"/>
    <path d="M 135.29798889160156 162.8236083984375 C 154.7876434326172 116.52670288085938 112.39038848876953 135.63185119628906 144.35482788085938 122.36734771728516" stroke-width="3.0" fill="none" stroke="rgb(0, 0, 0)" stroke-opacity="1.0" stroke-linecap="round" stroke-linejoin="round"/>
    <path d="M 53.73335266113281 55.90746307373047 C 84.37212371826172 81.7808837890625 101.75077819824219 72.5676498413086 146.5980224609375 90.90631103515625" stroke-width="3.0" fill="none" stroke="rgb(0, 0, 0)" stroke-opacity="1.0" stroke-linecap="round" stroke-linejoin="round"/>
    <path d="M 105.31856536865234 172.5057830810547 C 116.52978515625 159.08551025390625 119.01620483398438 151.25425720214844 142.96273803710938 127.86861419677734" stroke-width="3.0" fill="none" stroke="rgb(0, 0, 0)" stroke-opacity="1.0" stroke-linecap="round" stroke-linejoin="round"/>
    <path d="M 178.87017822265625 98.29518127441406 C 127.91114807128906 100.00389099121094 113.6860122680664 107.5398941040039 176.88719177246094 104.57797241210938" stroke-width="3.0" fill="none" stroke="rgb(0, 0, 0)" stroke-opacity="1.0" stroke-linecap="round" stroke-linejoin="round"/>
    <path d="M 191.68389892578125 109.42599487304688 C 174.1984405517578 89.54029083251953 181.47756958007812 132.7498779296875 132.9052734375 105.90595245361328" stroke-width="3.0" fill="none" stroke="rgb(0, 0, 0)" stroke-opacity="1.0" stroke-linecap="round" stroke-linejoin="round"/>
    <path d="M 107.67816162109375 82.69622039794922 C 159.46217346191406 75.64485168457031 135.2235107421875 100.12480926513672 181.091552734375 97.29400634765625" stroke-width="3.0" fill="none" stroke="rgb(0, 0, 0)" stroke-opacity="1.0" stroke-linecap="round" stroke-linejoin="round"/>
    <path d="M 144.85450744628906 118.82493591308594 C 129.6634979248047 158.76405334472656 115.03301239013672 132.41575622558594 145.91195678710938 120.69733428955078" stroke-width="3.0" fill="none" stroke="rgb(0, 0, 0)" stroke-opacity="1.0" stroke-linecap="round" stroke-linejoin="round"/>
  </g>
</svg>
