<?xml version="1.0" ?>
<svg xmlns="http://www.w3.org/2000/svg" version="1.1" width="224" height="224">
  <defs/>
  <g>
    <path d="M 135.5880584716797 92.05386352539062 C 179.93972778320312 125.7188949584961 161.5448760986328 93.96463012695312 139.7928924560547 149.0335235595703" stroke-width="3.0" fill="none" stroke="rgb(0, 0, 0)" stroke-opacity="1.0" stroke-linecap="round" stroke-linejoin="round"/>
    <path d="M 126.82628631591797 146.16319274902344 C 169.17425537109375 115.04785919189453 145.10826110839844 130.54949951171875 118.2838134765625 155.6429901123047" stroke-width="3.0" fill="none" stroke="rgb(0, 0, 0)" stroke-opacity="1.0" stroke-linecap="round" stroke-linejoin="round"/>
    <path d="M 144.29078674316406 120.55523681640625 C 211.216064453125 106.18711853027344 108.3275146484375 118.60859680175781 176.58631896972656 109.27457427978516" stroke-width="3.0" fill="none" stroke="rgb(0, 0, 0)" stroke-opacity="1.0" stroke-linecap="round" stroke-linejoin="round"/>
    <path d="M 164.0797119140625 99.05474853515625 C 129.6680450439453 106.66561889648438 120.01303100585938 102.79207611083984 172.2177734375 101.65868377685547" stroke-width="3.0" fill="none" stroke="rgb(0, 0, 0)" stroke-opacity="1.0" stroke-linecap="round" stroke-linejoin="round"/>
    <path d="M 141.6491241455078 103.63448333740234 C 159.05274963378906 116.67788696289062 176.636474609375 83.65251159667969 191.54391479492188 106.49160766601562" stroke-width="3.0" fill="none" stroke="rgb(0, 0, 0)" stroke-opacity="1.0" stroke-linecap="round" stroke-linejoin="round"/>
    <path d="M 143.31324768066406 120.47846221923828 C 131.04872131347656 159.66015625 141.92481994628906 158.25750732421875 152.43539428710938 120.85122680664062" stroke-width="3.0" fill="none" stroke="rgb(0, 0, 0)" stroke-opacity="1.0" stroke-linecap="round" stroke-linejoin="round"/>
    <path d="M 126.18016815185547 83.98851776123047 C 166.27609252929688 115.83129119873047 211.93502807617188 96.00509643554688 159.2997283935547 92.58517456054688" stroke-width="3.0" fill="none" stroke="rgb(0, 0, 0)" stroke-opacity="1.0" stroke-linecap="round" stroke-linejoin="round"/>
    <path d="M 114.08030700683594 187.92127990722656 C 154.76551818847656 85.98463439941406 147.6494903564453 163.54136657714844 130.60775756835938 184.1781768798828" stroke-width="3.0" fill="none" stroke="rgb(0, 0, 0)" stroke-opacity="1.0" stroke-linecap="round" stroke-linejoin="round"/>
    <path d="M 136.8670196533203 135.5024871826172 C 112.61425018310547 155.51365661621094 113.41845703125 146.09637451171875 125.86088562011719 138.69570922851562" stroke-width="3.0" fill="none" stroke="rgb(0, 0, 0)" stroke-opacity="1.0" stroke-linecap="round" stroke-linejoin="round"/>
    <path d="M 127.11228942871094 85.21127319335938 C 179.64915466308594 136.8892059326172 206.18653869628906 85.24673461914062 155.76177978515625 88.01730346679688" stroke-width="3.0" fill="none" stroke="rgb(0, 0, 0)" stroke-opacity="1.0" stroke-linecap="round" stroke-linejoin="round"/>
    <path d="M 147.15513610839844 120.54145812988281 C 137.77589416503906 174.24020385742188 127.22126007080078 178.04148864746094 148.48399353027344 127.56834411621094" stroke-width="3.0" fill="none" stroke="rgb(0, 0, 0)" stroke-opacity="1.0" stroke-linecap="round" stroke-linejoin="round"/>
    <path d="M 142.5313262939453 125.23844909667969 C 221.80511474609375 82.40766143798828 168.9553680419922 102.70785522460938 121.36040496826172 84.61466979980469" stroke-width="3.0" fill="none" stroke="rgb(0, 0, 0)" stroke-opacity="1.0" stroke-linecap="round" stroke-linejoin="round"/>
    <path d="M 122.8370590209961 183.74029541015625 C 140.60838317871094 121.84080505371094 140.20555114746094 124.24263763427734 183.13858032226562 101.34929656982422" stroke-width="3.0" fill="none" stroke="rgb(0, 0, 0)" stroke-opacity="1.0" stroke-linecap="round" stroke-linejoin="round"/>
    <path d="M 137.8665771484375 126.22310638427734 C 116.5185546875 163.72384643554688 118.34345245361328 173.921630859375 105.54524230957031 185.08218383789062" stroke-width="3.0" fill="none" stroke="rgb(0, 0, 0)" stroke-opacity="1.0" stroke-linecap="round" stroke-linejoin="round"/>
    <path d="M 48.843929290771484 95.61262512207031 C 71.09062194824219 79.54057312011719 117.2294921875 70.19200897216797 148.56857299804688 110.48617553710938" stroke-width="3.0" fill="none" stroke="rgb(0, 0, 0)" stroke-opacity="1.0" stroke-linecap="round" stroke-linejoin="round"/>
    <path d="M 33.14383316040039 84.93872833251953 C 71.28402709960938 77.5355453491211 100.663330078125 72.30977630615234 158.2556915283203 94.91570281982422" stroke-width="3.0" fill="none" stroke="rgb(0, 0, 0)" stroke-opacity="1.0" stroke-linecap="round" stroke-linejoin="round"/>
    <path d="M 105.9312744140625 82.69862365722656 C 77.93510437011719 68.94915008544922 96.73137664794922 80.58558654785156 112.30241394042969 74.7340316772461" stroke-width="3.0" fill="none" stroke="rgb(0, 0, 0)" stroke-opacity="1.0" stroke-linecap="round" stroke-linejoin="round"/>
    <path d="M 138.3360137939453 144.84771728515625 C 126.30307006835938 144.53334045410156 118.2660903930664 127.7621078491211 145.49765014648438 121.76444244384766" stroke-width="3.0" fill="none" stroke="rgb(0, 0, 0)" stroke-opacity="1.0" stroke-linecap="round" stroke-linejoin="round"/>
    <path d="M 131.82630920410156 179.9575653076172 C 148.72726440429688 103.68234252929688 162.36647033691406 111.27825164794922 146.1696014404297 129.78451538085938" stroke-width="3.0" fill="none" stroke="rgb(0, 0, 0)" stroke-opacity="1.0" stroke-linecap="round" stroke-linejoin="round"/>
    <path d="M 98.90261840820312 186.40985107421875 C 121.66139221191406 152.68199157714844 106.86393737792969 124.219482421875 158.13194274902344 116.16123962402344" stroke-width="3.0" fill="none" stroke="rgb(0, 0, 0)" stroke-opacity="1.0" stroke-linecap="round" stroke-linejoin="round"/>
    <path d="M 147.88169860839844 128.08250427246094 C 137.0041961669922 163.0902862548828 126.97486877441406 187.4144744873047 137.91845703125 158.35179138183594" stroke-width="3.0" fill="none" stroke="rgb(0, 0, 0)" stroke-opacity="1.0" stroke-linecap="round" stroke-linejoin="round"/>
    <path d="M 116.14431762695312 147.7731170654297 C 133.69326782226562 122.65100860595703 144.203125 111.41708374023438 120.61122131347656 146.67288208007812" stroke-width="3.0" fill="none" stroke="rgb(0, 0, 0)" stroke-opacity="1.0" stroke-linecap="round" stroke-linejoin="round"/>
    <path d="M 176.025146484375 104.40972900390625 C 173.456787109375 99.51641845703125 152.64488220214844 89.6622314453125 117.72651672363281 79.87225341796875" stroke-width="3.0" fill="none" stroke="rgb(0, 0, 0)" stroke-opacity="1.0" stroke-linecap="round" stroke-linejoin="round"/>
    <path d="M 136.55616760253906 141.752685546875 C 178.12281799316406 101.1761703491211 126.46160125732422 116.34245300292969 117.92476654052734 145.263671875" stroke-width="3.0" fill="none" stroke="rgb(0, 0, 0)" stroke-opacity="1.0" stroke-linecap="round" stroke-linejoin="round"/>
    <path d="M 115.05503845214844 83.1330337524414 C 70.16197967529297 82.18058776855469 117.77507781982422 66.20329284667969 169.74929809570312 102.91765594482422" stroke-width="3.0" fill="none" stroke="rgb(0, 0, 0)" stroke-opacity="1.0" stroke-linecap="round" stroke-linejoin="round"/>
    <path d="M 139.3500213623047 156.329345703125 C 145.38433837890625 111.89346313476562 125.06805419921875 147.88211059570312 140.70944213867188 126.908203125" stroke-width="3.0" fill="none" stroke="rgb(0, 0, 0)" stroke-opacity="1.0" stroke-linecap="round" stroke-linejoin="round"/>
    <path d="M 53.921165466308594 56.13251495361328 C 83.22783660888672 84.24041748046875 106.74093627929688 71.97596740722656 122.37492370605469 87.79556274414062" stroke-width="3.0" fill="none" stroke="rgb(0, 0, 0)" stroke-opacity="1.0" stroke-linecap="round" stroke-linejoin="round"/>
    <path d="M 101.72665405273438 177.2430877685547 C 115.93844604492188 164.3278045654297 116.51754760742188 150.2982177734375 140.8065643310547 122.49505615234375" stroke-width="3.0" fill="none" stroke="rgb(0, 0, 0)" stroke-opacity="1.0" stroke-linecap="round" stroke-linejoin="round"/>
    <path d="M 181.64691162109375 101.59005737304688 C 121.94551086425781 108.5624008178711 109.21541595458984 101.53402709960938 180.67478942871094 96.29844665527344" stroke-width="3.0" fill="none" stroke="rgb(0, 0, 0)" stroke-opacity="1.0" stroke-linecap="round" stroke-linejoin="round"/>
    <path d="M 192.03604125976562 109.07484436035156 C 174.831787109375 90.69242858886719 179.66017150878906 130.2342987060547 137.86648559570312 105.19422912597656" stroke-width="3.0" fill="none" stroke="rgb(0, 0, 0)" stroke-opacity="1.0" stroke-linecap="round" stroke-linejoin="round"/>
    <path d="M 109.71363067626953 80.68182373046875 C 158.8896026611328 76.21438598632812 139.628662109375 100.28234100341797 177.8525848388672 94.04652404785156" stroke-width="3.0" fill="none" stroke="rgb(0, 0, 0)" stroke-opacity="1.0" stroke-linecap="round" stroke-linejoin="round"/>
    <path d="M 154.3754119873047 119.11347961425781 C 130.1531982421875 162.0985870361328 119.46076202392578 138.44583129882812 150.3634490966797 120.00023651123047" stroke-width="3.0" fill="none" stroke="rgb(0, 0, 0)" stroke-opacity="1.0" stroke-linecap="round" stroke-linejoin="round"/>
  </g>
</svg>
