<?xml version="1.0" ?>
<svg xmlns="http://www.w3.org/2000/svg" version="1.1" width="224" height="224">
  <defs/>
  <g>
    <path d="M 139.02413940429688 84.86339569091797 C 173.16943359375 124.68318939208984 152.98403930664062 93.0755615234375 135.7197723388672 147.0701446533203" stroke-width="3.0" fill="none" stroke="rgb(0, 0, 0)" stroke-opacity="1.0" stroke-linecap="round" stroke-linejoin="round"/>
    <path d="M 112.36602020263672 153.11068725585938 C 166.2682647705078 110.96125793457031 140.75486755371094 128.03155517578125 119.4877700805664 161.66651916503906" stroke-width="3.0" fill="none" stroke="rgb(0, 0, 0)" stroke-opacity="1.0" stroke-linecap="round" stroke-linejoin="round"/>
    <path d="M 143.14749145507812 118.09530639648438 C 209.20045471191406 109.0895767211914 110.85755157470703 126.68477630615234 165.32037353515625 111.55846405029297" stroke-width="3.0" fill="none" stroke="rgb(0, 0, 0)" stroke-opacity="1.0" stroke-linecap="round" stroke-linejoin="round"/>
    <path d="M 163.06173706054688 96.82414245605469 C 128.28912353515625 103.73775482177734 119.53273010253906 103.00386047363281 174.19451904296875 102.23787689208984" stroke-width="3.0" fill="none" stroke="rgb(0, 0, 0)" stroke-opacity="1.0" stroke-linecap="round" stroke-linejoin="round"/>
    <path d="M 140.299560546875 105.30049133300781 C 155.3933868408203 117.74301147460938 176.5757598876953 86.5469970703125 191.2584686279297 107.47991180419922" stroke-width="3.0" fill="none" stroke="rgb(0, 0, 0)" stroke-opacity="1.0" stroke-linecap="round" stroke-linejoin="round"/>
    <path d="M 146.2560577392578 120.63751220703125 C 135.49685668945312 163.58094787597656 137.5283203125 159.7842559814453 151.3627471923828 120.47225189208984" stroke-width="3.0" fill="none" stroke="rgb(0, 0, 0)" stroke-opacity="1.0" stroke-linecap="round" stroke-linejoin="round"/>
    <path d="M 123.41687774658203 86.3450698852539 C 156.88088989257812 116.19235229492188 204.20469665527344 90.80372619628906 158.4560089111328 92.18230438232422" stroke-width="3.0" fill="none" stroke="rgb(0, 0, 0)" stroke-opacity="1.0" stroke-linecap="round" stroke-linejoin="round"/>
    <path d="M 112.25759887695312 188.0642852783203 C 154.9568634033203 82.65990447998047 148.03720092773438 160.48489379882812 128.80282592773438 181.31524658203125" stroke-width="3.0" fill="none" stroke="rgb(0, 0, 0)" stroke-opacity="1.0" stroke-linecap="round" stroke-linejoin="round"/>
    <path d="M 135.01339721679688 128.38072204589844 C 112.89386749267578 149.72276306152344 115.47025299072266 145.56744384765625 126.58428955078125 139.39439392089844" stroke-width="3.0" fill="none" stroke="rgb(0, 0, 0)" stroke-opacity="1.0" stroke-linecap="round" stroke-linejoin="round"/>
    <path d="M 129.40402221679688 83.57250213623047 C 184.63088989257812 136.42034912109375 208.33743286132812 85.34214782714844 151.55247497558594 85.45156860351562" stroke-width="3.0" fill="none" stroke="rgb(0, 0, 0)" stroke-opacity="1.0" stroke-linecap="round" stroke-linejoin="round"/>
    <path d="M 144.84976196289062 119.20845031738281 C 139.2994842529297 175.14959716796875 129.29046630859375 179.28170776367188 149.16574096679688 127.8009262084961" stroke-width="3.0" fill="none" stroke="rgb(0, 0, 0)" stroke-opacity="1.0" stroke-linecap="round" stroke-linejoin="round"/>
    <path d="M 137.3992156982422 126.2542724609375 C 221.87905883789062 78.64430236816406 169.58399963378906 104.34587097167969 121.79545593261719 82.16376495361328" stroke-width="3.0" fill="none" stroke="rgb(0, 0, 0)" stroke-opacity="1.0" stroke-linecap="round" stroke-linejoin="round"/>
    <path d="M 119.75446319580078 183.55177307128906 C 144.02027893066406 124.2603759765625 139.9339141845703 124.57475280761719 184.86082458496094 100.24125671386719" stroke-width="3.0" fill="none" stroke="rgb(0, 0, 0)" stroke-opacity="1.0" stroke-linecap="round" stroke-linejoin="round"/>
    <path d="M 141.72976684570312 125.43214416503906 C 115.92566680908203 164.43653869628906 116.82117462158203 173.45101928710938 101.57843017578125 183.46578979492188" stroke-width="3.0" fill="none" stroke="rgb(0, 0, 0)" stroke-opacity="1.0" stroke-linecap="round" stroke-linejoin="round"/>
    <path d="M 47.36793899536133 93.80206298828125 C 71.57965850830078 81.98751068115234 119.13601684570312 71.37626647949219 149.99583435058594 110.29100036621094" stroke-width="3.0" fill="none" stroke="rgb(0, 0, 0)" stroke-opacity="1.0" stroke-linecap="round" stroke-linejoin="round"/>
    <path d="M 35.786190032958984 80.49525451660156 C 69.3727035522461 70.91543579101562 96.19071197509766 73.56867218017578 168.53965759277344 96.77642822265625" stroke-width="3.0" fill="none" stroke="rgb(0, 0, 0)" stroke-opacity="1.0" stroke-linecap="round" stroke-linejoin="round"/>
    <path d="M 104.92967224121094 83.80357360839844 C 75.77587127685547 68.75293731689453 97.84504699707031 77.54750061035156 107.7031021118164 73.3149185180664" stroke-width="3.0" fill="none" stroke="rgb(0, 0, 0)" stroke-opacity="1.0" stroke-linecap="round" stroke-linejoin="round"/>
    <path d="M 139.57789611816406 141.8642120361328 C 127.15206146240234 141.35560607910156 119.02017211914062 130.31448364257812 147.61961364746094 125.5229721069336" stroke-width="3.0" fill="none" stroke="rgb(0, 0, 0)" stroke-opacity="1.0" stroke-linecap="round" stroke-linejoin="round"/>
    <path d="M 130.2649688720703 178.48402404785156 C 148.35093688964844 103.23188781738281 162.25274658203125 111.26563262939453 146.96144104003906 130.24142456054688" stroke-width="3.0" fill="none" stroke="rgb(0, 0, 0)" stroke-opacity="1.0" stroke-linecap="round" stroke-linejoin="round"/>
    <path d="M 100.75251770019531 185.41018676757812 C 124.21572875976562 157.39535522460938 108.40160369873047 127.28155517578125 157.43460083007812 116.70167541503906" stroke-width="3.0" fill="none" stroke="rgb(0, 0, 0)" stroke-opacity="1.0" stroke-linecap="round" stroke-linejoin="round"/>
    <path d="M 148.4770965576172 128.76162719726562 C 139.26918029785156 166.2783203125 128.72203063964844 190.38966369628906 137.52481079101562 158.46238708496094" stroke-width="3.0" fill="none" stroke="rgb(0, 0, 0)" stroke-opacity="1.0" stroke-linecap="round" stroke-linejoin="round"/>
    <path d="M 116.02860260009766 148.8305206298828 C 136.7310791015625 125.15320587158203 153.50494384765625 119.39803314208984 117.50296783447266 144.14097595214844" stroke-width="3.0" fill="none" stroke="rgb(0, 0, 0)" stroke-opacity="1.0" stroke-linecap="round" stroke-linejoin="round"/>
    <path d="M 182.82037353515625 99.58880615234375 C 174.28712463378906 100.73713684082031 152.55172729492188 88.32308959960938 119.47965240478516 79.54120635986328" stroke-width="3.0" fill="none" stroke="rgb(0, 0, 0)" stroke-opacity="1.0" stroke-linecap="round" stroke-linejoin="round"/>
    <path d="M 136.2956085205078 140.90017700195312 C 177.04873657226562 98.45695495605469 126.19715881347656 113.74897766113281 120.28704071044922 145.9171142578125" stroke-width="3.0" fill="none" stroke="rgb(0, 0, 0)" stroke-opacity="1.0" stroke-linecap="round" stroke-linejoin="round"/>
    <path d="M 117.23878479003906 85.54611206054688 C 69.23950958251953 79.36112976074219 115.62146759033203 66.33845520019531 171.69302368164062 107.50615692138672" stroke-width="3.0" fill="none" stroke="rgb(0, 0, 0)" stroke-opacity="1.0" stroke-linecap="round" stroke-linejoin="round"/>
    <path d="M 139.0483856201172 160.10633850097656 C 144.018310546875 116.9518814086914 120.02570343017578 147.8673858642578 142.00390625 126.49604034423828" stroke-width="3.0" fill="none" stroke="rgb(0, 0, 0)" stroke-opacity="1.0" stroke-linecap="round" stroke-linejoin="round"/>
    <path d="M 58.48063659667969 53.947975158691406 C 89.33319091796875 81.53266906738281 103.00562286376953 72.85594940185547 121.00580596923828 90.49639892578125" stroke-width="3.0" fill="none" stroke="rgb(0, 0, 0)" stroke-opacity="1.0" stroke-linecap="round" stroke-linejoin="round"/>
    <path d="M 104.11420440673828 173.61862182617188 C 114.66505432128906 161.85556030273438 117.22372436523438 150.84024047851562 140.27993774414062 124.5793685913086" stroke-width="3.0" fill="none" stroke="rgb(0, 0, 0)" stroke-opacity="1.0" stroke-linecap="round" stroke-linejoin="round"/>
    <path d="M 182.89559936523438 105.46916198730469 C 126.05247497558594 108.55994415283203 110.95587158203125 97.41648864746094 182.1854705810547 104.84954833984375" stroke-width="3.0" fill="none" stroke="rgb(0, 0, 0)" stroke-opacity="1.0" stroke-linecap="round" stroke-linejoin="round"/>
    <path d="M 191.30511474609375 109.72492980957031 C 171.8159637451172 92.23086547851562 180.0387725830078 128.6567840576172 134.7537078857422 104.62335968017578" stroke-width="3.0" fill="none" stroke="rgb(0, 0, 0)" stroke-opacity="1.0" stroke-linecap="round" stroke-linejoin="round"/>
    <path d="M 111.21114349365234 81.40101623535156 C 161.38040161132812 75.39897155761719 142.5728302001953 101.70369720458984 178.13381958007812 97.11804962158203" stroke-width="3.0" fill="none" stroke="rgb(0, 0, 0)" stroke-opacity="1.0" stroke-linecap="round" stroke-linejoin="round"/>
    <path d="M 148.89950561523438 116.04824829101562 C 129.3017578125 163.18084716796875 115.79867553710938 136.45973205566406 147.04135131835938 116.38037872314453" stroke-width="3.0" fill="none" stroke="rgb(0, 0, 0)" stroke-opacity="1.0" stroke-linecap="round" stroke-linejoin="round"/>
  </g>
</svg>
