<?xml version="1.0" ?>
<svg xmlns="http://www.w3.org/2000/svg" version="1.1" width="224" height="224">
  <defs/>
  <g>
    <path d="M 145.00021362304688 119.00000762939453 C 150.85733032226562 123.8848648071289 149.967529296875 121.18856811523438 150.09283447265625 120.12419891357422" stroke-width="3.0" fill="none" stroke="rgb(0, 0, 0)" stroke-opacity="1.0" stroke-linecap="round" stroke-linejoin="round"/>
    <path d="M 138.99998474121094 141.99996948242188 C 140.17864990234375 137.797119140625 139.91665649414062 138.7310028076172 144.4873046875 140.78346252441406" stroke-width="3.0" fill="none" stroke="rgb(0, 0, 0)" stroke-opacity="1.0" stroke-linecap="round" stroke-linejoin="round"/>
    <path d="M 150.00010681152344 127.99996185302734 C 149.55645751953125 128.8651580810547 150.8822784423828 126.07071685791016 155.47146606445312 131.4779510498047" stroke-width="3.0" fill="none" stroke="rgb(0, 0, 0)" stroke-opacity="1.0" stroke-linecap="round" stroke-linejoin="round"/>
    <path d="M 151.99998474121094 118.00004577636719 C 153.4745330810547 124.50396728515625 151.34820556640625 127.0782699584961 155.81507873535156 127.1390151977539" stroke-width="3.0" fill="none" stroke="rgb(0, 0, 0)" stroke-opacity="1.0" stroke-linecap="round" stroke-linejoin="round"/>
    <path d="M 153.99986267089844 104.00153350830078 C 153.68756103515625 101.52523803710938 152.9419403076172 102.76836395263672 155.57994079589844 105.99613189697266" stroke-width="3.0" fill="none" stroke="rgb(0, 0, 0)" stroke-opacity="1.0" stroke-linecap="round" stroke-linejoin="round"/>
    <path d="M 129.0000762939453 132.00003051757812 C 128.74267578125 136.0918426513672 128.0448760986328 139.5084686279297 128.60537719726562 134.06509399414062" stroke-width="3.0" fill="none" stroke="rgb(0, 0, 0)" stroke-opacity="1.0" stroke-linecap="round" stroke-linejoin="round"/>
    <path d="M 153.99888610839844 106.99650573730469 C 156.2135467529297 105.8304672241211 160.049072265625 107.74414825439453 154.48721313476562 107.67533874511719" stroke-width="3.0" fill="none" stroke="rgb(0, 0, 0)" stroke-opacity="1.0" stroke-linecap="round" stroke-linejoin="round"/>
    <path d="M 122.00005340576172 164.00003051757812 C 126.11919403076172 161.13287353515625 126.15830993652344 167.28036499023438 122.69841766357422 168.0371551513672" stroke-width="3.0" fill="none" stroke="rgb(0, 0, 0)" stroke-opacity="1.0" stroke-linecap="round" stroke-linejoin="round"/>
    <path d="M 114.00006103515625 175.00003051757812 C 113.07243347167969 182.23622131347656 116.46790313720703 181.65345764160156 109.76915740966797 179.63829040527344" stroke-width="3.0" fill="none" stroke="rgb(0, 0, 0)" stroke-opacity="1.0" stroke-linecap="round" stroke-linejoin="round"/>
    <path d="M 163.0000457763672 101.00005340576172 C 165.08863830566406 105.85192108154297 160.71014404296875 108.42122650146484 161.0238800048828 106.9538803100586" stroke-width="3.0" fill="none" stroke="rgb(0, 0, 0)" stroke-opacity="1.0" stroke-linecap="round" stroke-linejoin="round"/>
    <path d="M 138.99551391601562 151.99978637695312 C 140.5631866455078 150.45240783691406 147.71466064453125 151.60714721679688 146.6988525390625 152.99050903320312" stroke-width="3.0" fill="none" stroke="rgb(0, 0, 0)" stroke-opacity="1.0" stroke-linecap="round" stroke-linejoin="round"/>
    <path d="M 153.00257873535156 114.99996948242188 C 156.07827758789062 111.71149444580078 156.9256134033203 109.36300659179688 151.44692993164062 107.85367584228516" stroke-width="3.0" fill="none" stroke="rgb(0, 0, 0)" stroke-opacity="1.0" stroke-linecap="round" stroke-linejoin="round"/>
    <path d="M 141.0017852783203 123.99990844726562 C 142.26510620117188 125.75431060791016 142.0011444091797 121.15936279296875 146.8845672607422 123.3804702758789" stroke-width="3.0" fill="none" stroke="rgb(0, 0, 0)" stroke-opacity="1.0" stroke-linecap="round" stroke-linejoin="round"/>
    <path d="M 115.0 170.99990844726562 C 117.74229431152344 174.83517456054688 124.20108795166016 177.5743408203125 124.65608978271484 176.35667419433594" stroke-width="3.0" fill="none" stroke="rgb(0, 0, 0)" stroke-opacity="1.0" stroke-linecap="round" stroke-linejoin="round"/>
    <path d="M 81.99996185302734 78.99995422363281 C 84.29887390136719 76.487060546875 87.78911590576172 80.40113067626953 92.21356964111328 81.40702056884766" stroke-width="3.0" fill="none" stroke="rgb(0, 0, 0)" stroke-opacity="1.0" stroke-linecap="round" stroke-linejoin="round"/>
    <path d="M 56.00003433227539 80.9999008178711 C 61.037479400634766 81.89250946044922 62.483585357666016 81.68746185302734 68.04173278808594 86.35711669921875" stroke-width="3.0" fill="none" stroke="rgb(0, 0, 0)" stroke-opacity="1.0" stroke-linecap="round" stroke-linejoin="round"/>
    <path d="M 45.99987030029297 67.99998474121094 C 49.285194396972656 63.32253646850586 50.548336029052734 63.17064666748047 52.00604248046875 67.03558349609375" stroke-width="3.0" fill="none" stroke="rgb(0, 0, 0)" stroke-opacity="1.0" stroke-linecap="round" stroke-linejoin="round"/>
    <path d="M 120.00007629394531 156.00015258789062 C 117.12216186523438 158.5935821533203 112.83995819091797 157.46168518066406 118.13319396972656 155.58590698242188" stroke-width="3.0" fill="none" stroke="rgb(0, 0, 0)" stroke-opacity="1.0" stroke-linecap="round" stroke-linejoin="round"/>
    <path d="M 143.99996948242188 149.9999542236328 C 147.5379638671875 145.5266571044922 143.57675170898438 147.74053955078125 138.48390197753906 146.56805419921875" stroke-width="3.0" fill="none" stroke="rgb(0, 0, 0)" stroke-opacity="1.0" stroke-linecap="round" stroke-linejoin="round"/>
    <path d="M 122.00006103515625 162.9999237060547 C 126.59248352050781 161.38314819335938 128.61566162109375 156.08248901367188 130.12681579589844 157.2730255126953" stroke-width="3.0" fill="none" stroke="rgb(0, 0, 0)" stroke-opacity="1.0" stroke-linecap="round" stroke-linejoin="round"/>
    <path d="M 124.99951171875 179.9996337890625 C 125.85045623779297 178.78138732910156 122.39640045166016 184.16326904296875 119.20381164550781 178.80563354492188" stroke-width="3.0" fill="none" stroke="rgb(0, 0, 0)" stroke-opacity="1.0" stroke-linecap="round" stroke-linejoin="round"/>
    <path d="M 136.0000457763672 152.9999237060547 C 143.1631622314453 149.47125244140625 138.94911193847656 146.22744750976562 142.29075622558594 151.0855255126953" stroke-width="3.0" fill="none" stroke="rgb(0, 0, 0)" stroke-opacity="1.0" stroke-linecap="round" stroke-linejoin="round"/>
    <path d="M 142.00001525878906 108.99996948242188 C 138.65505981445312 106.1669692993164 134.1918487548828 105.4776611328125 129.06565856933594 107.1235580444336" stroke-width="3.0" fill="none" stroke="rgb(0, 0, 0)" stroke-opacity="1.0" stroke-linecap="round" stroke-linejoin="round"/>
    <path d="M 124.99996948242188 149.00003051757812 C 123.32316589355469 145.41973876953125 123.36368560791016 140.2607421875 116.89441680908203 147.72882080078125" stroke-width="3.0" fill="none" stroke="rgb(0, 0, 0)" stroke-opacity="1.0" stroke-linecap="round" stroke-linejoin="round"/>
    <path d="M 91.00292205810547 82.99785614013672 C 87.63343811035156 79.41687774658203 90.22704315185547 83.20521545410156 96.91356658935547 79.50276947021484" stroke-width="3.0" fill="none" stroke="rgb(0, 0, 0)" stroke-opacity="1.0" stroke-linecap="round" stroke-linejoin="round"/>
    <path d="M 137.00006103515625 132.9999542236328 C 140.933349609375 136.22555541992188 133.98387145996094 138.19895935058594 139.8524627685547 136.43276977539062" stroke-width="3.0" fill="none" stroke="rgb(0, 0, 0)" stroke-opacity="1.0" stroke-linecap="round" stroke-linejoin="round"/>
    <path d="M 79.00004577636719 83.0000991821289 C 76.20802307128906 84.08609771728516 77.561279296875 82.43885040283203 77.2437973022461 81.43291473388672" stroke-width="3.0" fill="none" stroke="rgb(0, 0, 0)" stroke-opacity="1.0" stroke-linecap="round" stroke-linejoin="round"/>
    <path d="M 107.00003814697266 172.00010681152344 C 109.77397155761719 174.09571838378906 107.66218566894531 172.4962158203125 109.44408416748047 167.70745849609375" stroke-width="3.0" fill="none" stroke="rgb(0, 0, 0)" stroke-opacity="1.0" stroke-linecap="round" stroke-linejoin="round"/>
    <path d="M 157.9998779296875 112.0000991821289 C 156.6787567138672 106.53946685791016 159.3843994140625 104.70179748535156 154.29620361328125 104.24742126464844" stroke-width="3.0" fill="none" stroke="rgb(0, 0, 0)" stroke-opacity="1.0" stroke-linecap="round" stroke-linejoin="round"/>
    <path d="M 171.99989318847656 104.99996948242188 C 169.0891876220703 110.07460021972656 165.43441772460938 105.69932556152344 163.8574981689453 110.70465087890625" stroke-width="3.0" fill="none" stroke="rgb(0, 0, 0)" stroke-opacity="1.0" stroke-linecap="round" stroke-linejoin="round"/>
    <path d="M 141.99989318847656 92.00003051757812 C 141.49856567382812 95.35592651367188 143.91323852539062 94.10173034667969 144.95411682128906 95.79115295410156" stroke-width="3.0" fill="none" stroke="rgb(0, 0, 0)" stroke-opacity="1.0" stroke-linecap="round" stroke-linejoin="round"/>
    <path d="M 129.99996948242188 149.99856567382812 C 122.4173355102539 146.5537872314453 122.56232452392578 143.6350555419922 124.1011962890625 142.27371215820312" stroke-width="3.0" fill="none" stroke="rgb(0, 0, 0)" stroke-opacity="1.0" stroke-linecap="round" stroke-linejoin="round"/>
  </g>
</svg>
