<?xml version="1.0" ?>
<svg xmlns="http://www.w3.org/2000/svg" version="1.1" width="224" height="224">
  <defs/>
  <g>
    <path d="M 138.68125915527344 88.16260528564453 C 176.58901977539062 124.43192291259766 156.1847686767578 92.697509765625 138.13990783691406 147.94830322265625" stroke-width="3.0" fill="none" stroke="rgb(0, 0, 0)" stroke-opacity="1.0" stroke-linecap="round" stroke-linejoin="round"/>
    <path d="M 118.6886978149414 148.5591583251953 C 168.4606475830078 113.80148315429688 146.88760375976562 132.8191680908203 125.25562286376953 164.5244598388672" stroke-width="3.0" fill="none" stroke="rgb(0, 0, 0)" stroke-opacity="1.0" stroke-linecap="round" stroke-linejoin="round"/>
    <path d="M 143.82655334472656 120.48699188232422 C 210.7965087890625 109.53191375732422 109.25557708740234 124.14241027832031 173.8844757080078 116.2214126586914" stroke-width="3.0" fill="none" stroke="rgb(0, 0, 0)" stroke-opacity="1.0" stroke-linecap="round" stroke-linejoin="round"/>
    <path d="M 164.1463165283203 98.48558044433594 C 129.03517150878906 105.14089965820312 119.61259460449219 101.80735778808594 172.07992553710938 101.1786117553711" stroke-width="3.0" fill="none" stroke="rgb(0, 0, 0)" stroke-opacity="1.0" stroke-linecap="round" stroke-linejoin="round"/>
    <path d="M 140.55421447753906 103.42095947265625 C 156.22952270507812 116.73323822021484 176.23883056640625 88.64276123046875 191.30520629882812 108.6120834350586" stroke-width="3.0" fill="none" stroke="rgb(0, 0, 0)" stroke-opacity="1.0" stroke-linecap="round" stroke-linejoin="round"/>
    <path d="M 145.14962768554688 121.21104431152344 C 133.53021240234375 161.6697998046875 141.5619659423828 159.76849365234375 151.75270080566406 120.69476318359375" stroke-width="3.0" fill="none" stroke="rgb(0, 0, 0)" stroke-opacity="1.0" stroke-linecap="round" stroke-linejoin="round"/>
    <path d="M 126.27898406982422 82.82938385009766 C 164.1812286376953 112.21155548095703 208.56594848632812 90.83612823486328 159.13221740722656 92.75072479248047" stroke-width="3.0" fill="none" stroke="rgb(0, 0, 0)" stroke-opacity="1.0" stroke-linecap="round" stroke-linejoin="round"/>
    <path d="M 111.97138977050781 189.03781127929688 C 154.3938446044922 83.54991149902344 148.9982452392578 163.1904296875 129.1236114501953 180.8583984375" stroke-width="3.0" fill="none" stroke="rgb(0, 0, 0)" stroke-opacity="1.0" stroke-linecap="round" stroke-linejoin="round"/>
    <path d="M 136.22637939453125 132.0569305419922 C 111.63691711425781 150.228759765625 113.00310516357422 142.76377868652344 125.87505340576172 138.42715454101562" stroke-width="3.0" fill="none" stroke="rgb(0, 0, 0)" stroke-opacity="1.0" stroke-linecap="round" stroke-linejoin="round"/>
    <path d="M 128.09764099121094 83.71726989746094 C 181.35049438476562 134.57252502441406 207.71054077148438 82.77549743652344 156.0924835205078 86.66338348388672" stroke-width="3.0" fill="none" stroke="rgb(0, 0, 0)" stroke-opacity="1.0" stroke-linecap="round" stroke-linejoin="round"/>
    <path d="M 145.451416015625 119.3195571899414 C 136.1881103515625 172.76963806152344 127.16728973388672 177.86976623535156 148.74563598632812 127.7052001953125" stroke-width="3.0" fill="none" stroke="rgb(0, 0, 0)" stroke-opacity="1.0" stroke-linecap="round" stroke-linejoin="round"/>
    <path d="M 141.05950927734375 124.63903045654297 C 223.74789428710938 80.41415405273438 170.33840942382812 103.49176025390625 121.08033752441406 85.7424087524414" stroke-width="3.0" fill="none" stroke="rgb(0, 0, 0)" stroke-opacity="1.0" stroke-linecap="round" stroke-linejoin="round"/>
    <path d="M 123.16629028320312 183.8916473388672 C 143.51406860351562 123.61702728271484 140.5754852294922 123.82560729980469 186.30630493164062 100.85984802246094" stroke-width="3.0" fill="none" stroke="rgb(0, 0, 0)" stroke-opacity="1.0" stroke-linecap="round" stroke-linejoin="round"/>
    <path d="M 138.66102600097656 124.9053955078125 C 114.84211730957031 162.30247497558594 116.02936553955078 171.652099609375 105.15611267089844 183.77117919921875" stroke-width="3.0" fill="none" stroke="rgb(0, 0, 0)" stroke-opacity="1.0" stroke-linecap="round" stroke-linejoin="round"/>
    <path d="M 47.84943389892578 93.41470336914062 C 72.49658966064453 81.39098358154297 117.24519348144531 71.19426727294922 148.46060180664062 110.97611236572266" stroke-width="3.0" fill="none" stroke="rgb(0, 0, 0)" stroke-opacity="1.0" stroke-linecap="round" stroke-linejoin="round"/>
    <path d="M 35.55126190185547 83.21316528320312 C 70.40593719482422 79.22209167480469 95.3637466430664 76.20413970947266 160.76748657226562 97.1836929321289" stroke-width="3.0" fill="none" stroke="rgb(0, 0, 0)" stroke-opacity="1.0" stroke-linecap="round" stroke-linejoin="round"/>
    <path d="M 105.9601058959961 82.58781433105469 C 78.94793701171875 67.013427734375 97.72702026367188 79.11455535888672 111.95729064941406 73.95814514160156" stroke-width="3.0" fill="none" stroke="rgb(0, 0, 0)" stroke-opacity="1.0" stroke-linecap="round" stroke-linejoin="round"/>
    <path d="M 138.7389373779297 144.86614990234375 C 127.48636627197266 144.0430450439453 119.45325469970703 128.03367614746094 145.84889221191406 121.6265640258789" stroke-width="3.0" fill="none" stroke="rgb(0, 0, 0)" stroke-opacity="1.0" stroke-linecap="round" stroke-linejoin="round"/>
    <path d="M 130.7692108154297 178.75299072265625 C 146.79635620117188 102.1761703491211 161.61167907714844 110.92101287841797 146.2677001953125 129.8971710205078" stroke-width="3.0" fill="none" stroke="rgb(0, 0, 0)" stroke-opacity="1.0" stroke-linecap="round" stroke-linejoin="round"/>
    <path d="M 98.73760986328125 185.6892852783203 C 122.50762176513672 154.52212524414062 107.10843658447266 125.51787567138672 157.0123291015625 115.66744995117188" stroke-width="3.0" fill="none" stroke="rgb(0, 0, 0)" stroke-opacity="1.0" stroke-linecap="round" stroke-linejoin="round"/>
    <path d="M 147.75965881347656 127.91602325439453 C 136.34637451171875 162.2711944580078 126.51729583740234 187.01718139648438 136.72340393066406 156.82919311523438" stroke-width="3.0" fill="none" stroke="rgb(0, 0, 0)" stroke-opacity="1.0" stroke-linecap="round" stroke-linejoin="round"/>
    <path d="M 116.59142303466797 148.94192504882812 C 133.8131103515625 122.6646499633789 145.8438262939453 112.9504165649414 120.6346206665039 147.91651916503906" stroke-width="3.0" fill="none" stroke="rgb(0, 0, 0)" stroke-opacity="1.0" stroke-linecap="round" stroke-linejoin="round"/>
    <path d="M 179.73500061035156 102.0631103515625 C 175.27723693847656 99.2136001586914 152.8434295654297 89.1633529663086 118.80208587646484 79.96302795410156" stroke-width="3.0" fill="none" stroke="rgb(0, 0, 0)" stroke-opacity="1.0" stroke-linecap="round" stroke-linejoin="round"/>
    <path d="M 137.00645446777344 142.09188842773438 C 178.9945526123047 101.8951416015625 127.18614959716797 116.87163543701172 119.04689025878906 145.80589294433594" stroke-width="3.0" fill="none" stroke="rgb(0, 0, 0)" stroke-opacity="1.0" stroke-linecap="round" stroke-linejoin="round"/>
    <path d="M 115.48005676269531 84.7899169921875 C 69.93865203857422 81.81494903564453 117.88536071777344 65.88482666015625 169.38458251953125 106.01188659667969" stroke-width="3.0" fill="none" stroke="rgb(0, 0, 0)" stroke-opacity="1.0" stroke-linecap="round" stroke-linejoin="round"/>
    <path d="M 139.17279052734375 157.57315063476562 C 145.4167938232422 115.28648376464844 124.5675277709961 150.74366760253906 141.64857482910156 128.92002868652344" stroke-width="3.0" fill="none" stroke="rgb(0, 0, 0)" stroke-opacity="1.0" stroke-linecap="round" stroke-linejoin="round"/>
    <path d="M 52.08990478515625 56.33735656738281 C 86.0389633178711 83.80904388427734 105.83351135253906 72.43756866455078 124.28134155273438 88.2770004272461" stroke-width="3.0" fill="none" stroke="rgb(0, 0, 0)" stroke-opacity="1.0" stroke-linecap="round" stroke-linejoin="round"/>
    <path d="M 101.0423812866211 174.15338134765625 C 113.79435729980469 161.89183044433594 114.27462005615234 148.0403594970703 138.4918670654297 121.2527847290039" stroke-width="3.0" fill="none" stroke="rgb(0, 0, 0)" stroke-opacity="1.0" stroke-linecap="round" stroke-linejoin="round"/>
    <path d="M 181.72567749023438 102.40011596679688 C 122.00408935546875 108.6827392578125 108.43570709228516 99.81554412841797 181.00547790527344 97.23545837402344" stroke-width="3.0" fill="none" stroke="rgb(0, 0, 0)" stroke-opacity="1.0" stroke-linecap="round" stroke-linejoin="round"/>
    <path d="M 191.07896423339844 108.00119018554688 C 175.64971923828125 89.99279022216797 182.3599090576172 128.76480102539062 135.8783416748047 104.99385833740234" stroke-width="3.0" fill="none" stroke="rgb(0, 0, 0)" stroke-opacity="1.0" stroke-linecap="round" stroke-linejoin="round"/>
    <path d="M 110.26395416259766 81.47259521484375 C 159.44715881347656 76.26280212402344 139.9916534423828 100.91880798339844 177.99656677246094 95.23503112792969" stroke-width="3.0" fill="none" stroke="rgb(0, 0, 0)" stroke-opacity="1.0" stroke-linecap="round" stroke-linejoin="round"/>
    <path d="M 155.73114013671875 119.91615295410156 C 128.27731323242188 161.6599884033203 118.05908203125 138.90087890625 151.062744140625 121.25016021728516" stroke-width="3.0" fill="none" stroke="rgb(0, 0, 0)" stroke-opacity="1.0" stroke-linecap="round" stroke-linejoin="round"/>
  </g>
</svg>
