<?xml version="1.0" ?>
<svg xmlns="http://www.w3.org/2000/svg" version="1.1" width="224" height="224">
  <defs/>
  <g>
    <path d="M 127.77893829345703 96.19330596923828 C 179.92897033691406 124.7986831665039 160.38967895507812 96.42951202392578 141.67739868164062 149.94308471679688" stroke-width="3.0" fill="none" stroke="rgb(0, 0, 0)" stroke-opacity="1.0" stroke-linecap="round" stroke-linejoin="round"/>
    <path d="M 130.19668579101562 142.69430541992188 C 166.67491149902344 110.05300903320312 141.0511932373047 122.51641845703125 118.59383392333984 151.55136108398438" stroke-width="3.0" fill="none" stroke="rgb(0, 0, 0)" stroke-opacity="1.0" stroke-linecap="round" stroke-linejoin="round"/>
    <path d="M 146.99803161621094 120.78778839111328 C 215.93295288085938 103.25152587890625 111.42461395263672 114.42366790771484 170.61329650878906 107.04188537597656" stroke-width="3.0" fill="none" stroke="rgb(0, 0, 0)" stroke-opacity="1.0" stroke-linecap="round" stroke-linejoin="round"/>
    <path d="M 167.73890686035156 97.7652359008789 C 130.06253051757812 103.85968017578125 122.5401611328125 100.41944885253906 176.18397521972656 107.19389343261719" stroke-width="3.0" fill="none" stroke="rgb(0, 0, 0)" stroke-opacity="1.0" stroke-linecap="round" stroke-linejoin="round"/>
    <path d="M 146.32859802246094 105.73210906982422 C 167.4017333984375 123.72620391845703 182.79074096679688 90.9896469116211 190.59156799316406 105.8264389038086" stroke-width="3.0" fill="none" stroke="rgb(0, 0, 0)" stroke-opacity="1.0" stroke-linecap="round" stroke-linejoin="round"/>
    <path d="M 143.57147216796875 120.88597869873047 C 130.630859375 158.47857666015625 139.81492614746094 155.88340759277344 151.31292724609375 120.08128356933594" stroke-width="3.0" fill="none" stroke="rgb(0, 0, 0)" stroke-opacity="1.0" stroke-linecap="round" stroke-linejoin="round"/>
    <path d="M 123.60563659667969 86.26077270507812 C 163.43751525878906 117.06993865966797 211.54969787597656 97.33257293701172 158.22076416015625 88.29349517822266" stroke-width="3.0" fill="none" stroke="rgb(0, 0, 0)" stroke-opacity="1.0" stroke-linecap="round" stroke-linejoin="round"/>
    <path d="M 118.99870300292969 186.13742065429688 C 157.4413604736328 88.2696762084961 146.95700073242188 158.93533325195312 127.2916259765625 182.51461791992188" stroke-width="3.0" fill="none" stroke="rgb(0, 0, 0)" stroke-opacity="1.0" stroke-linecap="round" stroke-linejoin="round"/>
    <path d="M 132.95738220214844 133.42218017578125 C 112.0880355834961 156.1781768798828 113.7755126953125 147.62109375 125.71266174316406 139.15020751953125" stroke-width="3.0" fill="none" stroke="rgb(0, 0, 0)" stroke-opacity="1.0" stroke-linecap="round" stroke-linejoin="round"/>
    <path d="M 130.7144317626953 83.54011535644531 C 179.40966796875 136.82354736328125 203.08648681640625 84.4295883178711 154.29098510742188 86.05880737304688" stroke-width="3.0" fill="none" stroke="rgb(0, 0, 0)" stroke-opacity="1.0" stroke-linecap="round" stroke-linejoin="round"/>
    <path d="M 146.6232452392578 120.23748779296875 C 137.11798095703125 173.79534912109375 125.8696517944336 177.1358184814453 147.87423706054688 127.22981262207031" stroke-width="3.0" fill="none" stroke="rgb(0, 0, 0)" stroke-opacity="1.0" stroke-linecap="round" stroke-linejoin="round"/>
    <path d="M 142.91018676757812 126.31226348876953 C 219.99363708496094 86.06338500976562 166.3040008544922 102.872802734375 120.43376159667969 88.28534698486328" stroke-width="3.0" fill="none" stroke="rgb(0, 0, 0)" stroke-opacity="1.0" stroke-linecap="round" stroke-linejoin="round"/>
    <path d="M 121.26768493652344 184.0708770751953 C 141.62107849121094 123.76537322998047 142.9348602294922 125.02823638916016 183.67431640625 102.96110534667969" stroke-width="3.0" fill="none" stroke="rgb(0, 0, 0)" stroke-opacity="1.0" stroke-linecap="round" stroke-linejoin="round"/>
    <path d="M 138.76266479492188 130.51991271972656 C 118.77068328857422 165.73573303222656 118.5974349975586 172.47665405273438 106.37645721435547 187.28863525390625" stroke-width="3.0" fill="none" stroke="rgb(0, 0, 0)" stroke-opacity="1.0" stroke-linecap="round" stroke-linejoin="round"/>
    <path d="M 48.537750244140625 94.63792419433594 C 73.22203826904297 83.40715789794922 120.67743682861328 71.8778305053711 146.4910888671875 110.28323364257812" stroke-width="3.0" fill="none" stroke="rgb(0, 0, 0)" stroke-opacity="1.0" stroke-linecap="round" stroke-linejoin="round"/>
    <path d="M 34.22504425048828 83.29862213134766 C 64.34063720703125 78.15400695800781 105.43413543701172 74.4474105834961 150.44183349609375 95.0142593383789" stroke-width="3.0" fill="none" stroke="rgb(0, 0, 0)" stroke-opacity="1.0" stroke-linecap="round" stroke-linejoin="round"/>
    <path d="M 104.99312591552734 81.95880889892578 C 74.76129913330078 70.29377746582031 96.59234619140625 76.33540344238281 110.17681121826172 73.98368072509766" stroke-width="3.0" fill="none" stroke="rgb(0, 0, 0)" stroke-opacity="1.0" stroke-linecap="round" stroke-linejoin="round"/>
    <path d="M 138.78753662109375 143.6078643798828 C 127.81685638427734 141.4738311767578 117.73509216308594 126.63825988769531 144.97779846191406 124.54165649414062" stroke-width="3.0" fill="none" stroke="rgb(0, 0, 0)" stroke-opacity="1.0" stroke-linecap="round" stroke-linejoin="round"/>
    <path d="M 129.4038543701172 180.45355224609375 C 147.31353759765625 102.9043197631836 161.4405517578125 108.15306091308594 141.04359436035156 124.8314437866211" stroke-width="3.0" fill="none" stroke="rgb(0, 0, 0)" stroke-opacity="1.0" stroke-linecap="round" stroke-linejoin="round"/>
    <path d="M 99.07280731201172 186.96226501464844 C 122.76212310791016 151.4901123046875 112.3016357421875 124.72361755371094 154.5420379638672 118.16844177246094" stroke-width="3.0" fill="none" stroke="rgb(0, 0, 0)" stroke-opacity="1.0" stroke-linecap="round" stroke-linejoin="round"/>
    <path d="M 149.65179443359375 130.14291381835938 C 139.5854949951172 165.60690307617188 126.8958511352539 186.6493377685547 138.29611206054688 158.63333129882812" stroke-width="3.0" fill="none" stroke="rgb(0, 0, 0)" stroke-opacity="1.0" stroke-linecap="round" stroke-linejoin="round"/>
    <path d="M 116.83584594726562 148.26019287109375 C 138.105712890625 128.35069274902344 143.47911071777344 110.35232543945312 119.95479583740234 145.60293579101562" stroke-width="3.0" fill="none" stroke="rgb(0, 0, 0)" stroke-opacity="1.0" stroke-linecap="round" stroke-linejoin="round"/>
    <path d="M 172.6822052001953 106.89250946044922 C 170.5336456298828 99.74490356445312 152.27520751953125 90.75471496582031 116.59911346435547 82.25531768798828" stroke-width="3.0" fill="none" stroke="rgb(0, 0, 0)" stroke-opacity="1.0" stroke-linecap="round" stroke-linejoin="round"/>
    <path d="M 136.2059783935547 141.37147521972656 C 179.36622619628906 100.44458770751953 127.70694732666016 117.5218276977539 118.05414581298828 146.61532592773438" stroke-width="3.0" fill="none" stroke="rgb(0, 0, 0)" stroke-opacity="1.0" stroke-linecap="round" stroke-linejoin="round"/>
    <path d="M 110.468505859375 79.89192199707031 C 70.97457885742188 84.89427185058594 117.35011291503906 68.4415512084961 171.51473999023438 101.94279479980469" stroke-width="3.0" fill="none" stroke="rgb(0, 0, 0)" stroke-opacity="1.0" stroke-linecap="round" stroke-linejoin="round"/>
    <path d="M 139.8212127685547 155.4978790283203 C 145.9931182861328 108.70562744140625 124.10145568847656 144.4627227783203 138.9647674560547 127.67337799072266" stroke-width="3.0" fill="none" stroke="rgb(0, 0, 0)" stroke-opacity="1.0" stroke-linecap="round" stroke-linejoin="round"/>
    <path d="M 55.99374008178711 54.69921112060547 C 88.32857513427734 79.59049987792969 108.94501495361328 73.05980682373047 120.4395751953125 85.31803894042969" stroke-width="3.0" fill="none" stroke="rgb(0, 0, 0)" stroke-opacity="1.0" stroke-linecap="round" stroke-linejoin="round"/>
    <path d="M 101.5108871459961 175.80474853515625 C 117.01177978515625 165.89730834960938 119.33446502685547 153.57005310058594 141.9424591064453 121.11438751220703" stroke-width="3.0" fill="none" stroke="rgb(0, 0, 0)" stroke-opacity="1.0" stroke-linecap="round" stroke-linejoin="round"/>
    <path d="M 185.18214416503906 100.76500701904297 C 125.92273712158203 103.28942108154297 112.4305191040039 95.23981475830078 180.0968017578125 97.19845581054688" stroke-width="3.0" fill="none" stroke="rgb(0, 0, 0)" stroke-opacity="1.0" stroke-linecap="round" stroke-linejoin="round"/>
    <path d="M 189.94747924804688 109.85746002197266 C 175.95196533203125 89.19749450683594 174.8064727783203 133.72232055664062 137.13973999023438 106.77481079101562" stroke-width="3.0" fill="none" stroke="rgb(0, 0, 0)" stroke-opacity="1.0" stroke-linecap="round" stroke-linejoin="round"/>
    <path d="M 107.71829223632812 81.40999603271484 C 158.58604431152344 79.52277374267578 141.52767944335938 102.57767486572266 176.23402404785156 95.18431091308594" stroke-width="3.0" fill="none" stroke="rgb(0, 0, 0)" stroke-opacity="1.0" stroke-linecap="round" stroke-linejoin="round"/>
    <path d="M 154.25271606445312 119.22054290771484 C 132.60205078125 163.9957275390625 124.16803741455078 142.15911865234375 153.33030700683594 122.3260269165039" stroke-width="3.0" fill="none" stroke="rgb(0, 0, 0)" stroke-opacity="1.0" stroke-linecap="round" stroke-linejoin="round"/>
  </g>
</svg>
