<?xml version="1.0" ?>
<svg xmlns="http://www.w3.org/2000/svg" version="1.1" width="224" height="224">
  <defs/>
  <g>
    <path d="M 129.38525390625 94.37718200683594 C 180.423583984375 123.50275421142578 160.1856689453125 97.35134887695312 141.86819458007812 149.5023651123047" stroke-width="3.0" fill="none" stroke="rgb(0, 0, 0)" stroke-opacity="1.0" stroke-linecap="round" stroke-linejoin="round"/>
    <path d="M 128.72718811035156 140.87217712402344 C 165.99423217773438 110.01221466064453 140.396240234375 122.09906005859375 115.85014343261719 148.6075897216797" stroke-width="3.0" fill="none" stroke="rgb(0, 0, 0)" stroke-opacity="1.0" stroke-linecap="round" stroke-linejoin="round"/>
    <path d="M 146.70314025878906 119.48594665527344 C 216.7648162841797 101.64482879638672 112.23865509033203 112.35820007324219 165.8860321044922 106.4622573852539" stroke-width="3.0" fill="none" stroke="rgb(0, 0, 0)" stroke-opacity="1.0" stroke-linecap="round" stroke-linejoin="round"/>
    <path d="M 167.28221130371094 96.66498565673828 C 130.49078369140625 102.75757598876953 124.46916198730469 95.39305114746094 176.9973907470703 104.72969818115234" stroke-width="3.0" fill="none" stroke="rgb(0, 0, 0)" stroke-opacity="1.0" stroke-linecap="round" stroke-linejoin="round"/>
    <path d="M 144.94627380371094 107.17562866210938 C 167.86215209960938 122.9026107788086 185.2889862060547 90.16985321044922 189.10179138183594 105.57030487060547" stroke-width="3.0" fill="none" stroke="rgb(0, 0, 0)" stroke-opacity="1.0" stroke-linecap="round" stroke-linejoin="round"/>
    <path d="M 143.4906005859375 120.87053680419922 C 130.3508758544922 158.3356170654297 139.7008514404297 155.7767791748047 151.33094787597656 120.08255004882812" stroke-width="3.0" fill="none" stroke="rgb(0, 0, 0)" stroke-opacity="1.0" stroke-linecap="round" stroke-linejoin="round"/>
    <path d="M 123.1885757446289 86.84481811523438 C 163.6470489501953 118.08902740478516 210.43714904785156 99.6512451171875 159.1691131591797 87.37101745605469" stroke-width="3.0" fill="none" stroke="rgb(0, 0, 0)" stroke-opacity="1.0" stroke-linecap="round" stroke-linejoin="round"/>
    <path d="M 117.72106170654297 186.62098693847656 C 157.57894897460938 87.9098129272461 148.80177307128906 158.66688537597656 126.7142105102539 183.916015625" stroke-width="3.0" fill="none" stroke="rgb(0, 0, 0)" stroke-opacity="1.0" stroke-linecap="round" stroke-linejoin="round"/>
    <path d="M 131.76158142089844 130.6210174560547 C 111.03436279296875 154.71961975097656 113.75137329101562 147.6442108154297 125.49999237060547 139.3018341064453" stroke-width="3.0" fill="none" stroke="rgb(0, 0, 0)" stroke-opacity="1.0" stroke-linecap="round" stroke-linejoin="round"/>
    <path d="M 130.44674682617188 83.95620727539062 C 178.93057250976562 136.46371459960938 204.9061279296875 82.08892059326172 152.49087524414062 85.45597076416016" stroke-width="3.0" fill="none" stroke="rgb(0, 0, 0)" stroke-opacity="1.0" stroke-linecap="round" stroke-linejoin="round"/>
    <path d="M 146.0890655517578 120.03278350830078 C 136.37913513183594 173.09400939941406 125.45330810546875 176.7500762939453 147.78016662597656 127.1590576171875" stroke-width="3.0" fill="none" stroke="rgb(0, 0, 0)" stroke-opacity="1.0" stroke-linecap="round" stroke-linejoin="round"/>
    <path d="M 142.7070770263672 126.54596710205078 C 220.55088806152344 87.78282165527344 166.6201171875 102.39978790283203 121.03484344482422 86.90143585205078" stroke-width="3.0" fill="none" stroke="rgb(0, 0, 0)" stroke-opacity="1.0" stroke-linecap="round" stroke-linejoin="round"/>
    <path d="M 121.23226165771484 182.41038513183594 C 142.32980346679688 124.23950958251953 143.2567596435547 124.52348327636719 182.69430541992188 101.91700744628906" stroke-width="3.0" fill="none" stroke="rgb(0, 0, 0)" stroke-opacity="1.0" stroke-linecap="round" stroke-linejoin="round"/>
    <path d="M 138.4761199951172 130.21878051757812 C 119.49291229248047 166.57127380371094 119.92534637451172 174.0959930419922 105.15380096435547 188.52874755859375" stroke-width="3.0" fill="none" stroke="rgb(0, 0, 0)" stroke-opacity="1.0" stroke-linecap="round" stroke-linejoin="round"/>
    <path d="M 49.95992660522461 94.24954223632812 C 73.96068572998047 82.68953704833984 119.66901397705078 71.26859283447266 144.20372009277344 110.3260269165039" stroke-width="3.0" fill="none" stroke="rgb(0, 0, 0)" stroke-opacity="1.0" stroke-linecap="round" stroke-linejoin="round"/>
    <path d="M 33.81269454956055 84.12138366699219 C 62.89085388183594 79.20646667480469 104.55654907226562 76.15998077392578 148.24612426757812 97.23409271240234" stroke-width="3.0" fill="none" stroke="rgb(0, 0, 0)" stroke-opacity="1.0" stroke-linecap="round" stroke-linejoin="round"/>
    <path d="M 104.6033706665039 79.30140686035156 C 75.66426849365234 69.47148895263672 97.26758575439453 77.99111938476562 111.28082275390625 73.2614974975586" stroke-width="3.0" fill="none" stroke="rgb(0, 0, 0)" stroke-opacity="1.0" stroke-linecap="round" stroke-linejoin="round"/>
    <path d="M 138.75819396972656 142.0637664794922 C 127.41914367675781 139.58876037597656 116.18103790283203 125.32279968261719 144.32908630371094 124.40148162841797" stroke-width="3.0" fill="none" stroke="rgb(0, 0, 0)" stroke-opacity="1.0" stroke-linecap="round" stroke-linejoin="round"/>
    <path d="M 128.28077697753906 181.56845092773438 C 149.7884521484375 105.50621032714844 163.9982147216797 108.76087188720703 140.37374877929688 124.05201721191406" stroke-width="3.0" fill="none" stroke="rgb(0, 0, 0)" stroke-opacity="1.0" stroke-linecap="round" stroke-linejoin="round"/>
    <path d="M 101.8768310546875 184.8777618408203 C 122.64772033691406 150.80172729492188 112.48686981201172 124.64871978759766 153.87644958496094 117.17064666748047" stroke-width="3.0" fill="none" stroke="rgb(0, 0, 0)" stroke-opacity="1.0" stroke-linecap="round" stroke-linejoin="round"/>
    <path d="M 148.42613220214844 129.23626708984375 C 139.41012573242188 165.424560546875 126.54547119140625 186.10379028320312 138.71107482910156 159.01217651367188" stroke-width="3.0" fill="none" stroke="rgb(0, 0, 0)" stroke-opacity="1.0" stroke-linecap="round" stroke-linejoin="round"/>
    <path d="M 119.31205749511719 147.7782745361328 C 139.91236877441406 130.63697814941406 143.2269287109375 109.11387634277344 119.1344985961914 145.1480255126953" stroke-width="3.0" fill="none" stroke="rgb(0, 0, 0)" stroke-opacity="1.0" stroke-linecap="round" stroke-linejoin="round"/>
    <path d="M 174.8022918701172 107.03799438476562 C 169.8272247314453 100.73381042480469 150.07130432128906 93.60930633544922 115.49534606933594 84.06358337402344" stroke-width="3.0" fill="none" stroke="rgb(0, 0, 0)" stroke-opacity="1.0" stroke-linecap="round" stroke-linejoin="round"/>
    <path d="M 135.47267150878906 142.02052307128906 C 179.61810302734375 101.38324737548828 127.97885131835938 118.2721176147461 118.09073638916016 146.75106811523438" stroke-width="3.0" fill="none" stroke="rgb(0, 0, 0)" stroke-opacity="1.0" stroke-linecap="round" stroke-linejoin="round"/>
    <path d="M 106.08158111572266 80.95820617675781 C 70.5732650756836 87.8426284790039 117.05159759521484 70.16699981689453 173.23916625976562 101.0291748046875" stroke-width="3.0" fill="none" stroke="rgb(0, 0, 0)" stroke-opacity="1.0" stroke-linecap="round" stroke-linejoin="round"/>
    <path d="M 140.54225158691406 155.17715454101562 C 146.33270263671875 108.79710388183594 124.13020324707031 144.43263244628906 137.6188507080078 128.81378173828125" stroke-width="3.0" fill="none" stroke="rgb(0, 0, 0)" stroke-opacity="1.0" stroke-linecap="round" stroke-linejoin="round"/>
    <path d="M 56.15220642089844 56.464229583740234 C 88.3013916015625 79.95183563232422 109.55189514160156 73.07908630371094 121.7140121459961 84.31748962402344" stroke-width="3.0" fill="none" stroke="rgb(0, 0, 0)" stroke-opacity="1.0" stroke-linecap="round" stroke-linejoin="round"/>
    <path d="M 103.93103790283203 177.02166748046875 C 117.73481750488281 166.91287231445312 119.90946197509766 154.21177673339844 143.72036743164062 122.9650650024414" stroke-width="3.0" fill="none" stroke="rgb(0, 0, 0)" stroke-opacity="1.0" stroke-linecap="round" stroke-linejoin="round"/>
    <path d="M 181.67613220214844 98.60580444335938 C 125.8011703491211 103.85076904296875 112.46723175048828 96.25039672851562 179.7888641357422 96.89177703857422" stroke-width="3.0" fill="none" stroke="rgb(0, 0, 0)" stroke-opacity="1.0" stroke-linecap="round" stroke-linejoin="round"/>
    <path d="M 192.14723205566406 108.57373809814453 C 178.03550720214844 90.9784164428711 178.3494110107422 134.1786346435547 135.46420288085938 106.83831024169922" stroke-width="3.0" fill="none" stroke="rgb(0, 0, 0)" stroke-opacity="1.0" stroke-linecap="round" stroke-linejoin="round"/>
    <path d="M 110.42756652832031 80.31756591796875 C 158.6986541748047 78.01895904541016 141.2836151123047 102.35112762451172 175.47218322753906 94.59307098388672" stroke-width="3.0" fill="none" stroke="rgb(0, 0, 0)" stroke-opacity="1.0" stroke-linecap="round" stroke-linejoin="round"/>
    <path d="M 154.25877380371094 119.178955078125 C 132.55555725097656 163.72926330566406 124.13655853271484 142.01637268066406 153.3618927001953 122.32323455810547" stroke-width="3.0" fill="none" stroke="rgb(0, 0, 0)" stroke-opacity="1.0" stroke-linecap="round" stroke-linejoin="round"/>
  </g>
</svg>
