<?xml version="1.0" ?>
<svg xmlns="http://www.w3.org/2000/svg" version="1.1" width="224" height="224">
  <defs/>
  <g>
    <path d="M 137.74900817871094 105.14108276367188 C 187.24488830566406 124.10700988769531 149.1436767578125 110.49225616455078 131.29812622070312 131.89991760253906" stroke-width="3.0" fill="none" stroke="rgb(0, 0, 0)" stroke-opacity="1.0" stroke-linecap="round" stroke-linejoin="round"/>
    <path d="M 137.31695556640625 132.2001953125 C 160.78594970703125 118.85444641113281 133.28517150878906 118.76490783691406 126.63839721679688 148.93499755859375" stroke-width="3.0" fill="none" stroke="rgb(0, 0, 0)" stroke-opacity="1.0" stroke-linecap="round" stroke-linejoin="round"/>
    <path d="M 144.3933868408203 125.78016662597656 C 180.13037109375 111.24678802490234 141.69691467285156 115.83563232421875 164.60597229003906 112.93451690673828" stroke-width="3.0" fill="none" stroke="rgb(0, 0, 0)" stroke-opacity="1.0" stroke-linecap="round" stroke-linejoin="round"/>
    <path d="M 163.9766387939453 116.10479736328125 C 134.00567626953125 110.81017303466797 117.0098648071289 91.35992431640625 161.41098022460938 111.02088928222656" stroke-width="3.0" fill="none" stroke="rgb(0, 0, 0)" stroke-opacity="1.0" stroke-linecap="round" stroke-linejoin="round"/>
    <path d="M 158.6513214111328 116.8100814819336 C 181.1201171875 114.88411712646484 172.01571655273438 87.23284912109375 191.87368774414062 104.57293701171875" stroke-width="3.0" fill="none" stroke="rgb(0, 0, 0)" stroke-opacity="1.0" stroke-linecap="round" stroke-linejoin="round"/>
    <path d="M 151.5644073486328 123.48008728027344 C 134.84703063964844 161.94955444335938 120.25767517089844 150.93421936035156 141.29368591308594 126.80472564697266" stroke-width="3.0" fill="none" stroke="rgb(0, 0, 0)" stroke-opacity="1.0" stroke-linecap="round" stroke-linejoin="round"/>
    <path d="M 131.67640686035156 85.58839416503906 C 164.23768615722656 105.71241760253906 204.63543701171875 94.41020202636719 153.5530548095703 95.38893127441406" stroke-width="3.0" fill="none" stroke="rgb(0, 0, 0)" stroke-opacity="1.0" stroke-linecap="round" stroke-linejoin="round"/>
    <path d="M 125.08025360107422 177.29666137695312 C 146.61373901367188 114.19532775878906 144.8224639892578 158.36341857910156 128.98849487304688 184.3285675048828" stroke-width="3.0" fill="none" stroke="rgb(0, 0, 0)" stroke-opacity="1.0" stroke-linecap="round" stroke-linejoin="round"/>
    <path d="M 127.64559173583984 140.6415252685547 C 93.13520050048828 191.35391235351562 100.92218780517578 178.8142852783203 120.57405853271484 144.8600311279297" stroke-width="3.0" fill="none" stroke="rgb(0, 0, 0)" stroke-opacity="1.0" stroke-linecap="round" stroke-linejoin="round"/>
    <path d="M 122.08251190185547 91.56151580810547 C 197.08111572265625 127.40200805664062 204.88246154785156 82.62592315673828 149.1441192626953 87.56977844238281" stroke-width="3.0" fill="none" stroke="rgb(0, 0, 0)" stroke-opacity="1.0" stroke-linecap="round" stroke-linejoin="round"/>
    <path d="M 135.35836791992188 140.1333770751953 C 135.66986083984375 146.34205627441406 140.46395874023438 164.85044860839844 147.73699951171875 121.21332550048828" stroke-width="3.0" fill="none" stroke="rgb(0, 0, 0)" stroke-opacity="1.0" stroke-linecap="round" stroke-linejoin="round"/>
    <path d="M 150.86138916015625 107.3307876586914 C 191.7017059326172 104.41861724853516 158.6357879638672 118.0330581665039 133.44076538085938 102.82697296142578" stroke-width="3.0" fill="none" stroke="rgb(0, 0, 0)" stroke-opacity="1.0" stroke-linecap="round" stroke-linejoin="round"/>
    <path d="M 135.18605041503906 164.8170928955078 C 147.69615173339844 134.68154907226562 147.1761932373047 121.6852035522461 178.003662109375 106.4919204711914" stroke-width="3.0" fill="none" stroke="rgb(0, 0, 0)" stroke-opacity="1.0" stroke-linecap="round" stroke-linejoin="round"/>
    <path d="M 138.35472106933594 141.709716796875 C 122.44924926757812 176.7352752685547 122.1562728881836 172.97508239746094 121.11283111572266 186.6804656982422" stroke-width="3.0" fill="none" stroke="rgb(0, 0, 0)" stroke-opacity="1.0" stroke-linecap="round" stroke-linejoin="round"/>
    <path d="M 48.647953033447266 93.18486022949219 C 63.92406463623047 81.52336120605469 129.4235076904297 72.38719177246094 160.44647216796875 95.05368041992188" stroke-width="3.0" fill="none" stroke="rgb(0, 0, 0)" stroke-opacity="1.0" stroke-linecap="round" stroke-linejoin="round"/>
    <path d="M 34.79678726196289 84.69625854492188 C 52.746150970458984 81.26366424560547 84.04228973388672 76.58943939208984 117.28974914550781 79.40589141845703" stroke-width="3.0" fill="none" stroke="rgb(0, 0, 0)" stroke-opacity="1.0" stroke-linecap="round" stroke-linejoin="round"/>
    <path d="M 65.48483276367188 60.739662170410156 C 61.27355194091797 57.46843338012695 85.6111831665039 79.92555236816406 107.29959106445312 75.35230255126953" stroke-width="3.0" fill="none" stroke="rgb(0, 0, 0)" stroke-opacity="1.0" stroke-linecap="round" stroke-linejoin="round"/>
    <path d="M 123.25304412841797 139.67930603027344 C 115.48619079589844 153.68064880371094 106.79193878173828 148.78172302246094 133.33253479003906 137.38796997070312" stroke-width="3.0" fill="none" stroke="rgb(0, 0, 0)" stroke-opacity="1.0" stroke-linecap="round" stroke-linejoin="round"/>
    <path d="M 130.30531311035156 179.0104522705078 C 144.84603881835938 122.52616119384766 145.9098358154297 131.18699645996094 139.62127685546875 124.34903717041016" stroke-width="3.0" fill="none" stroke="rgb(0, 0, 0)" stroke-opacity="1.0" stroke-linecap="round" stroke-linejoin="round"/>
    <path d="M 99.90412902832031 187.14735412597656 C 133.99661254882812 149.74569702148438 121.48578643798828 141.2592315673828 137.80979919433594 135.1886444091797" stroke-width="3.0" fill="none" stroke="rgb(0, 0, 0)" stroke-opacity="1.0" stroke-linecap="round" stroke-linejoin="round"/>
    <path d="M 124.78170776367188 177.84017944335938 C 121.45863342285156 187.39381408691406 112.25486755371094 195.97279357910156 127.05155181884766 168.17056274414062" stroke-width="3.0" fill="none" stroke="rgb(0, 0, 0)" stroke-opacity="1.0" stroke-linecap="round" stroke-linejoin="round"/>
    <path d="M 117.43568420410156 149.3186798095703 C 127.6912841796875 135.21148681640625 143.35098266601562 117.26097106933594 120.25338745117188 142.4566192626953" stroke-width="3.0" fill="none" stroke="rgb(0, 0, 0)" stroke-opacity="1.0" stroke-linecap="round" stroke-linejoin="round"/>
    <path d="M 166.39146423339844 111.69775390625 C 163.9126739501953 105.7528076171875 136.7511444091797 104.07787322998047 119.51331329345703 88.25791931152344" stroke-width="3.0" fill="none" stroke="rgb(0, 0, 0)" stroke-opacity="1.0" stroke-linecap="round" stroke-linejoin="round"/>
    <path d="M 130.5802001953125 145.6188201904297 C 157.3979949951172 117.59630584716797 127.31871795654297 116.8092041015625 108.99967193603516 157.42758178710938" stroke-width="3.0" fill="none" stroke="rgb(0, 0, 0)" stroke-opacity="1.0" stroke-linecap="round" stroke-linejoin="round"/>
    <path d="M 104.382080078125 75.4459228515625 C 59.88545227050781 92.64414978027344 101.2133560180664 69.79188537597656 153.92025756835938 105.80386352539062" stroke-width="3.0" fill="none" stroke="rgb(0, 0, 0)" stroke-opacity="1.0" stroke-linecap="round" stroke-linejoin="round"/>
    <path d="M 136.69435119628906 147.87863159179688 C 150.86085510253906 126.39723205566406 122.29083251953125 142.68270874023438 144.0237274169922 140.87890625" stroke-width="3.0" fill="none" stroke="rgb(0, 0, 0)" stroke-opacity="1.0" stroke-linecap="round" stroke-linejoin="round"/>
    <path d="M 41.41836929321289 63.64517593383789 C 48.75735092163086 70.0564956665039 103.34951782226562 77.44470977783203 115.11457824707031 80.509033203125" stroke-width="3.0" fill="none" stroke="rgb(0, 0, 0)" stroke-opacity="1.0" stroke-linecap="round" stroke-linejoin="round"/>
    <path d="M 108.32006072998047 189.45187377929688 C 127.38490295410156 169.5782470703125 119.09732818603516 154.75022888183594 146.09579467773438 132.7600860595703" stroke-width="3.0" fill="none" stroke="rgb(0, 0, 0)" stroke-opacity="1.0" stroke-linecap="round" stroke-linejoin="round"/>
    <path d="M 183.78768920898438 99.62958526611328 C 139.07818603515625 95.7802963256836 123.11389923095703 96.9155044555664 169.0225830078125 96.57212829589844" stroke-width="3.0" fill="none" stroke="rgb(0, 0, 0)" stroke-opacity="1.0" stroke-linecap="round" stroke-linejoin="round"/>
    <path d="M 190.46334838867188 107.32288360595703 C 177.55210876464844 100.37468719482422 176.3612518310547 100.54491424560547 149.44024658203125 103.91973876953125" stroke-width="3.0" fill="none" stroke="rgb(0, 0, 0)" stroke-opacity="1.0" stroke-linecap="round" stroke-linejoin="round"/>
    <path d="M 111.86703491210938 80.49772644042969 C 154.6605682373047 81.10860443115234 133.64788818359375 98.93419647216797 176.92759704589844 92.94580841064453" stroke-width="3.0" fill="none" stroke="rgb(0, 0, 0)" stroke-opacity="1.0" stroke-linecap="round" stroke-linejoin="round"/>
    <path d="M 149.5809783935547 127.41566467285156 C 104.80348205566406 152.06031799316406 117.70002746582031 149.01016235351562 144.31785583496094 132.20716857910156" stroke-width="3.0" fill="none" stroke="rgb(0, 0, 0)" stroke-opacity="1.0" stroke-linecap="round" stroke-linejoin="round"/>
  </g>
</svg>
