<?xml version="1.0" ?>
<svg xmlns="http://www.w3.org/2000/svg" version="1.1" width="224" height="224">
  <defs/>
  <g>
    <path d="M 133.70059204101562 85.7057113647461 C 182.5722198486328 120.55010986328125 156.1449432373047 89.18487548828125 140.0584716796875 147.271484375" stroke-width="3.0" fill="none" stroke="rgb(0, 0, 0)" stroke-opacity="1.0" stroke-linecap="round" stroke-linejoin="round"/>
    <path d="M 109.12464904785156 158.15391540527344 C 160.14907836914062 101.53678131103516 140.89520263671875 124.85783386230469 127.4674301147461 170.71603393554688" stroke-width="3.0" fill="none" stroke="rgb(0, 0, 0)" stroke-opacity="1.0" stroke-linecap="round" stroke-linejoin="round"/>
    <path d="M 147.5568389892578 118.35519409179688 C 198.18060302734375 98.81466674804688 110.5924301147461 117.46954345703125 164.32260131835938 106.96189880371094" stroke-width="3.0" fill="none" stroke="rgb(0, 0, 0)" stroke-opacity="1.0" stroke-linecap="round" stroke-linejoin="round"/>
    <path d="M 170.7515869140625 107.12986755371094 C 128.897216796875 109.99766540527344 117.12938690185547 100.77226257324219 186.82794189453125 101.1037368774414" stroke-width="3.0" fill="none" stroke="rgb(0, 0, 0)" stroke-opacity="1.0" stroke-linecap="round" stroke-linejoin="round"/>
    <path d="M 135.6233673095703 106.04257202148438 C 166.68368530273438 127.31970977783203 180.99545288085938 86.7335433959961 189.41299438476562 108.84477996826172" stroke-width="3.0" fill="none" stroke="rgb(0, 0, 0)" stroke-opacity="1.0" stroke-linecap="round" stroke-linejoin="round"/>
    <path d="M 149.79098510742188 118.02835845947266 C 128.53794860839844 163.0077667236328 121.38789367675781 155.73646545410156 140.6873016357422 120.91473388671875" stroke-width="3.0" fill="none" stroke="rgb(0, 0, 0)" stroke-opacity="1.0" stroke-linecap="round" stroke-linejoin="round"/>
    <path d="M 123.04451751708984 86.62809753417969 C 156.31185913085938 117.71318817138672 216.70709228515625 98.34452056884766 152.08529663085938 88.52086639404297" stroke-width="3.0" fill="none" stroke="rgb(0, 0, 0)" stroke-opacity="1.0" stroke-linecap="round" stroke-linejoin="round"/>
    <path d="M 109.06473541259766 187.5806121826172 C 159.91998291015625 82.6341552734375 143.806884765625 162.11273193359375 129.4068145751953 182.79202270507812" stroke-width="3.0" fill="none" stroke="rgb(0, 0, 0)" stroke-opacity="1.0" stroke-linecap="round" stroke-linejoin="round"/>
    <path d="M 135.8241729736328 136.27239990234375 C 112.06576538085938 151.25473022460938 117.20323944091797 151.56985473632812 128.31004333496094 132.6310577392578" stroke-width="3.0" fill="none" stroke="rgb(0, 0, 0)" stroke-opacity="1.0" stroke-linecap="round" stroke-linejoin="round"/>
    <path d="M 119.19995880126953 88.85868072509766 C 184.51043701171875 131.87501525878906 202.53944396972656 84.27085876464844 152.49676513671875 86.51679229736328" stroke-width="3.0" fill="none" stroke="rgb(0, 0, 0)" stroke-opacity="1.0" stroke-linecap="round" stroke-linejoin="round"/>
    <path d="M 139.939697265625 121.98202514648438 C 138.30125427246094 173.0367431640625 132.06336975097656 175.846923828125 156.88504028320312 115.13262176513672" stroke-width="3.0" fill="none" stroke="rgb(0, 0, 0)" stroke-opacity="1.0" stroke-linecap="round" stroke-linejoin="round"/>
    <path d="M 132.73260498046875 126.67445373535156 C 214.0167236328125 80.5680160522461 167.9522247314453 112.93565368652344 119.97227478027344 85.47335052490234" stroke-width="3.0" fill="none" stroke="rgb(0, 0, 0)" stroke-opacity="1.0" stroke-linecap="round" stroke-linejoin="round"/>
    <path d="M 120.9273681640625 183.8243408203125 C 148.23388671875 125.1549072265625 137.39608764648438 119.87738800048828 180.74563598632812 100.98342895507812" stroke-width="3.0" fill="none" stroke="rgb(0, 0, 0)" stroke-opacity="1.0" stroke-linecap="round" stroke-linejoin="round"/>
    <path d="M 139.5443115234375 126.38260650634766 C 105.3145523071289 147.25177001953125 115.06863403320312 162.45724487304688 104.53612518310547 175.59010314941406" stroke-width="3.0" fill="none" stroke="rgb(0, 0, 0)" stroke-opacity="1.0" stroke-linecap="round" stroke-linejoin="round"/>
    <path d="M 49.94276428222656 94.94770050048828 C 69.50469970703125 80.26378631591797 113.64662170410156 72.0948257446289 152.71383666992188 112.03693389892578" stroke-width="3.0" fill="none" stroke="rgb(0, 0, 0)" stroke-opacity="1.0" stroke-linecap="round" stroke-linejoin="round"/>
    <path d="M 35.097103118896484 83.64059448242188 C 81.62237548828125 73.63404846191406 102.81880950927734 75.31629180908203 165.70480346679688 109.66679382324219" stroke-width="3.0" fill="none" stroke="rgb(0, 0, 0)" stroke-opacity="1.0" stroke-linecap="round" stroke-linejoin="round"/>
    <path d="M 105.67709350585938 77.35771179199219 C 74.2452621459961 77.26097869873047 91.09104919433594 80.22279357910156 107.22785949707031 76.77140808105469" stroke-width="3.0" fill="none" stroke="rgb(0, 0, 0)" stroke-opacity="1.0" stroke-linecap="round" stroke-linejoin="round"/>
    <path d="M 142.34295654296875 138.1519317626953 C 129.94264221191406 133.61367797851562 123.2579345703125 137.41392517089844 145.14013671875 126.0282974243164" stroke-width="3.0" fill="none" stroke="rgb(0, 0, 0)" stroke-opacity="1.0" stroke-linecap="round" stroke-linejoin="round"/>
    <path d="M 117.00579071044922 186.9628143310547 C 148.4464111328125 104.27836608886719 161.66175842285156 114.18090057373047 140.4837188720703 127.76276397705078" stroke-width="3.0" fill="none" stroke="rgb(0, 0, 0)" stroke-opacity="1.0" stroke-linecap="round" stroke-linejoin="round"/>
    <path d="M 99.9340591430664 186.82923889160156 C 129.76809692382812 158.0774688720703 116.40096282958984 133.1887969970703 162.70675659179688 113.09351348876953" stroke-width="3.0" fill="none" stroke="rgb(0, 0, 0)" stroke-opacity="1.0" stroke-linecap="round" stroke-linejoin="round"/>
    <path d="M 157.19561767578125 114.20714569091797 C 130.60015869140625 158.4316864013672 124.7416763305664 200.46311950683594 137.3248291015625 160.35885620117188" stroke-width="3.0" fill="none" stroke="rgb(0, 0, 0)" stroke-opacity="1.0" stroke-linecap="round" stroke-linejoin="round"/>
    <path d="M 115.1080322265625 152.81289672851562 C 132.19741821289062 115.41822814941406 158.41847229003906 125.86712646484375 127.77224731445312 145.8969268798828" stroke-width="3.0" fill="none" stroke="rgb(0, 0, 0)" stroke-opacity="1.0" stroke-linecap="round" stroke-linejoin="round"/>
    <path d="M 180.2421417236328 101.57283782958984 C 161.36097717285156 114.42459869384766 152.4044647216797 86.74554443359375 128.3737335205078 82.25096893310547" stroke-width="3.0" fill="none" stroke="rgb(0, 0, 0)" stroke-opacity="1.0" stroke-linecap="round" stroke-linejoin="round"/>
    <path d="M 132.71922302246094 141.5704803466797 C 176.8009796142578 103.3927001953125 128.6997833251953 113.73064422607422 117.02143096923828 146.29469299316406" stroke-width="3.0" fill="none" stroke="rgb(0, 0, 0)" stroke-opacity="1.0" stroke-linecap="round" stroke-linejoin="round"/>
    <path d="M 146.25511169433594 87.7863998413086 C 56.73106384277344 78.9556884765625 102.05567169189453 77.62396240234375 175.44163513183594 106.64218139648438" stroke-width="3.0" fill="none" stroke="rgb(0, 0, 0)" stroke-opacity="1.0" stroke-linecap="round" stroke-linejoin="round"/>
    <path d="M 136.78810119628906 164.10740661621094 C 151.4002227783203 115.53594207763672 112.59844207763672 138.82518005371094 144.91294860839844 124.85800170898438" stroke-width="3.0" fill="none" stroke="rgb(0, 0, 0)" stroke-opacity="1.0" stroke-linecap="round" stroke-linejoin="round"/>
    <path d="M 54.44788360595703 56.340511322021484 C 85.21111297607422 81.83995819091797 100.07039642333984 74.5638427734375 146.33221435546875 94.94091796875" stroke-width="3.0" fill="none" stroke="rgb(0, 0, 0)" stroke-opacity="1.0" stroke-linecap="round" stroke-linejoin="round"/>
    <path d="M 106.28688049316406 172.65423583984375 C 115.4194107055664 154.3914794921875 117.0816650390625 147.38623046875 143.40028381347656 128.16212463378906" stroke-width="3.0" fill="none" stroke="rgb(0, 0, 0)" stroke-opacity="1.0" stroke-linecap="round" stroke-linejoin="round"/>
    <path d="M 178.49024963378906 97.5856704711914 C 125.27462005615234 98.85231018066406 111.63335418701172 108.37593841552734 176.60435485839844 105.50756072998047" stroke-width="3.0" fill="none" stroke="rgb(0, 0, 0)" stroke-opacity="1.0" stroke-linecap="round" stroke-linejoin="round"/>
    <path d="M 190.77127075195312 110.29312133789062 C 172.55908203125 91.38807678222656 174.1201629638672 132.85833740234375 140.47720336914062 104.85670471191406" stroke-width="3.0" fill="none" stroke="rgb(0, 0, 0)" stroke-opacity="1.0" stroke-linecap="round" stroke-linejoin="round"/>
    <path d="M 105.09426879882812 83.18226623535156 C 158.7208709716797 77.52189636230469 133.6940460205078 99.7666015625 181.07716369628906 94.94422912597656" stroke-width="3.0" fill="none" stroke="rgb(0, 0, 0)" stroke-opacity="1.0" stroke-linecap="round" stroke-linejoin="round"/>
    <path d="M 147.5995635986328 120.06138610839844 C 133.84561157226562 147.7418670654297 120.10408020019531 127.56524658203125 147.49244689941406 120.94779968261719" stroke-width="3.0" fill="none" stroke="rgb(0, 0, 0)" stroke-opacity="1.0" stroke-linecap="round" stroke-linejoin="round"/>
  </g>
</svg>
