<?xml version="1.0" ?>
<svg xmlns="http://www.w3.org/2000/svg" version="1.1" width="224" height="224">
  <defs/>
  <g>
    <path d="M 129.67051696777344 86.95085144042969 C 184.2248992919922 115.64971160888672 161.52420043945312 93.23408508300781 144.5111846923828 146.81532287597656" stroke-width="3.0" fill="none" stroke="rgb(0, 0, 0)" stroke-opacity="1.0" stroke-linecap="round" stroke-linejoin="round"/>
    <path d="M 107.68750762939453 160.20352172851562 C 158.34194946289062 92.1832504272461 144.95928955078125 122.87609100341797 125.1141128540039 170.5978240966797" stroke-width="3.0" fill="none" stroke="rgb(0, 0, 0)" stroke-opacity="1.0" stroke-linecap="round" stroke-linejoin="round"/>
    <path d="M 145.38978576660156 120.76406860351562 C 209.23028564453125 91.41805267333984 89.61336517333984 113.54097747802734 162.35000610351562 106.8476791381836" stroke-width="3.0" fill="none" stroke="rgb(0, 0, 0)" stroke-opacity="1.0" stroke-linecap="round" stroke-linejoin="round"/>
    <path d="M 172.05197143554688 110.77315521240234 C 141.5838165283203 117.62101745605469 125.5657958984375 100.49346923828125 181.4875946044922 95.84590148925781" stroke-width="3.0" fill="none" stroke="rgb(0, 0, 0)" stroke-opacity="1.0" stroke-linecap="round" stroke-linejoin="round"/>
    <path d="M 137.7340850830078 106.4720458984375 C 174.27957153320312 134.07113647460938 185.01121520996094 83.60865020751953 190.46853637695312 104.56048583984375" stroke-width="3.0" fill="none" stroke="rgb(0, 0, 0)" stroke-opacity="1.0" stroke-linecap="round" stroke-linejoin="round"/>
    <path d="M 152.3629150390625 119.65008544921875 C 127.21170806884766 162.5995635986328 120.22745513916016 150.43463134765625 138.67185974121094 126.04759216308594" stroke-width="3.0" fill="none" stroke="rgb(0, 0, 0)" stroke-opacity="1.0" stroke-linecap="round" stroke-linejoin="round"/>
    <path d="M 125.07625579833984 85.00718688964844 C 157.4199981689453 116.4751205444336 214.38363647460938 94.79999542236328 157.97691345214844 87.51434326171875" stroke-width="3.0" fill="none" stroke="rgb(0, 0, 0)" stroke-opacity="1.0" stroke-linecap="round" stroke-linejoin="round"/>
    <path d="M 108.27568817138672 188.6708526611328 C 167.00633239746094 88.2985610961914 137.70066833496094 162.49871826171875 130.0693359375 180.60015869140625" stroke-width="3.0" fill="none" stroke="rgb(0, 0, 0)" stroke-opacity="1.0" stroke-linecap="round" stroke-linejoin="round"/>
    <path d="M 142.7997589111328 132.94049072265625 C 121.77986907958984 162.6236572265625 120.27001190185547 158.1112060546875 131.77847290039062 128.61524963378906" stroke-width="3.0" fill="none" stroke="rgb(0, 0, 0)" stroke-opacity="1.0" stroke-linecap="round" stroke-linejoin="round"/>
    <path d="M 117.2682876586914 83.49552917480469 C 183.34942626953125 129.74072265625 202.91305541992188 83.27793884277344 152.60015869140625 85.9112777709961" stroke-width="3.0" fill="none" stroke="rgb(0, 0, 0)" stroke-opacity="1.0" stroke-linecap="round" stroke-linejoin="round"/>
    <path d="M 145.77261352539062 134.1904754638672 C 137.4862060546875 176.88711547851562 132.30711364746094 173.1364288330078 156.26722717285156 115.10836791992188" stroke-width="3.0" fill="none" stroke="rgb(0, 0, 0)" stroke-opacity="1.0" stroke-linecap="round" stroke-linejoin="round"/>
    <path d="M 136.4504852294922 127.85880279541016 C 231.1923828125 79.29936981201172 163.39393615722656 107.07280731201172 119.64705657958984 83.48490142822266" stroke-width="3.0" fill="none" stroke="rgb(0, 0, 0)" stroke-opacity="1.0" stroke-linecap="round" stroke-linejoin="round"/>
    <path d="M 120.33488464355469 183.62396240234375 C 149.3193359375 131.23028564453125 139.18624877929688 121.63140869140625 186.21682739257812 100.53165435791016" stroke-width="3.0" fill="none" stroke="rgb(0, 0, 0)" stroke-opacity="1.0" stroke-linecap="round" stroke-linejoin="round"/>
    <path d="M 142.2384796142578 129.64840698242188 C 112.76350402832031 154.3251953125 117.92715454101562 159.46517944335938 101.833740234375 177.86172485351562" stroke-width="3.0" fill="none" stroke="rgb(0, 0, 0)" stroke-opacity="1.0" stroke-linecap="round" stroke-linejoin="round"/>
    <path d="M 46.12771224975586 93.80036926269531 C 66.63208770751953 79.42282104492188 128.35107421875 69.28109741210938 160.4132537841797 103.31415557861328" stroke-width="3.0" fill="none" stroke="rgb(0, 0, 0)" stroke-opacity="1.0" stroke-linecap="round" stroke-linejoin="round"/>
    <path d="M 34.69083023071289 81.68502807617188 C 94.1296615600586 69.67877197265625 113.7301025390625 70.99563598632812 156.84945678710938 114.53287506103516" stroke-width="3.0" fill="none" stroke="rgb(0, 0, 0)" stroke-opacity="1.0" stroke-linecap="round" stroke-linejoin="round"/>
    <path d="M 100.97667694091797 80.10220336914062 C 70.0019760131836 70.56143951416016 88.75366973876953 81.31681823730469 110.705810546875 73.21904754638672" stroke-width="3.0" fill="none" stroke="rgb(0, 0, 0)" stroke-opacity="1.0" stroke-linecap="round" stroke-linejoin="round"/>
    <path d="M 142.1944580078125 136.53916931152344 C 131.96578979492188 140.68533325195312 130.79254150390625 146.60977172851562 149.686279296875 123.55297088623047" stroke-width="3.0" fill="none" stroke="rgb(0, 0, 0)" stroke-opacity="1.0" stroke-linecap="round" stroke-linejoin="round"/>
    <path d="M 118.07272338867188 186.27980041503906 C 151.55877685546875 110.51093292236328 164.7366943359375 116.50882720947266 139.83819580078125 131.4992218017578" stroke-width="3.0" fill="none" stroke="rgb(0, 0, 0)" stroke-opacity="1.0" stroke-linecap="round" stroke-linejoin="round"/>
    <path d="M 100.0837631225586 186.11212158203125 C 130.83067321777344 156.88311767578125 123.58616638183594 134.25250244140625 170.03236389160156 107.5533676147461" stroke-width="3.0" fill="none" stroke="rgb(0, 0, 0)" stroke-opacity="1.0" stroke-linecap="round" stroke-linejoin="round"/>
    <path d="M 156.11474609375 112.98389434814453 C 131.64894104003906 161.76402282714844 128.06039428710938 201.12220764160156 138.5428466796875 162.49005126953125" stroke-width="3.0" fill="none" stroke="rgb(0, 0, 0)" stroke-opacity="1.0" stroke-linecap="round" stroke-linejoin="round"/>
    <path d="M 112.24991607666016 156.42575073242188 C 135.41607666015625 113.3001937866211 160.15965270996094 126.11852264404297 125.4865951538086 137.3744354248047" stroke-width="3.0" fill="none" stroke="rgb(0, 0, 0)" stroke-opacity="1.0" stroke-linecap="round" stroke-linejoin="round"/>
    <path d="M 177.0163116455078 101.19905090332031 C 159.86587524414062 114.29930114746094 154.2786102294922 78.94795227050781 112.32009887695312 82.10272216796875" stroke-width="3.0" fill="none" stroke="rgb(0, 0, 0)" stroke-opacity="1.0" stroke-linecap="round" stroke-linejoin="round"/>
    <path d="M 130.9578094482422 144.03907775878906 C 172.6338653564453 107.01322937011719 127.89727020263672 112.35342407226562 111.8667984008789 156.19979858398438" stroke-width="3.0" fill="none" stroke="rgb(0, 0, 0)" stroke-opacity="1.0" stroke-linecap="round" stroke-linejoin="round"/>
    <path d="M 131.74522399902344 92.33544921875 C 67.65354919433594 69.22087860107422 105.32191467285156 74.21964263916016 160.11807250976562 111.35272979736328" stroke-width="3.0" fill="none" stroke="rgb(0, 0, 0)" stroke-opacity="1.0" stroke-linecap="round" stroke-linejoin="round"/>
    <path d="M 138.24234008789062 166.04397583007812 C 152.82972717285156 121.09213256835938 115.97370147705078 156.71670532226562 147.33587646484375 131.90989685058594" stroke-width="3.0" fill="none" stroke="rgb(0, 0, 0)" stroke-opacity="1.0" stroke-linecap="round" stroke-linejoin="round"/>
    <path d="M 55.625980377197266 56.427894592285156 C 97.59994506835938 90.03742218017578 130.31739807128906 69.51007843017578 154.60531616210938 94.40008544921875" stroke-width="3.0" fill="none" stroke="rgb(0, 0, 0)" stroke-opacity="1.0" stroke-linecap="round" stroke-linejoin="round"/>
    <path d="M 105.67655181884766 170.91281127929688 C 121.03585052490234 157.22935485839844 121.04752349853516 148.91629028320312 143.47613525390625 120.95088195800781" stroke-width="3.0" fill="none" stroke="rgb(0, 0, 0)" stroke-opacity="1.0" stroke-linecap="round" stroke-linejoin="round"/>
    <path d="M 178.12745666503906 97.57120513916016 C 129.453857421875 93.32081604003906 116.94049072265625 104.05425262451172 179.0359649658203 98.95616149902344" stroke-width="3.0" fill="none" stroke="rgb(0, 0, 0)" stroke-opacity="1.0" stroke-linecap="round" stroke-linejoin="round"/>
    <path d="M 191.45558166503906 108.09329986572266 C 181.586669921875 92.72013092041016 174.73306274414062 124.92366027832031 139.9747772216797 91.22620391845703" stroke-width="3.0" fill="none" stroke="rgb(0, 0, 0)" stroke-opacity="1.0" stroke-linecap="round" stroke-linejoin="round"/>
    <path d="M 120.85095977783203 89.3978500366211 C 162.91925048828125 84.2879409790039 138.20521545410156 107.75797271728516 175.89578247070312 106.84661102294922" stroke-width="3.0" fill="none" stroke="rgb(0, 0, 0)" stroke-opacity="1.0" stroke-linecap="round" stroke-linejoin="round"/>
    <path d="M 141.52804565429688 122.2951431274414 C 127.42110443115234 147.36000061035156 124.65398406982422 134.35321044921875 149.71453857421875 122.30181884765625" stroke-width="3.0" fill="none" stroke="rgb(0, 0, 0)" stroke-opacity="1.0" stroke-linecap="round" stroke-linejoin="round"/>
  </g>
</svg>
