<?xml version="1.0" ?>
<svg xmlns="http://www.w3.org/2000/svg" version="1.1" width="224" height="224">
  <defs/>
  <g>
    <path d="M 135.51473999023438 105.03541564941406 C 179.59011840820312 129.50570678710938 149.4326934814453 105.19278717041016 125.11556243896484 131.5804901123047" stroke-width="3.0" fill="none" stroke="rgb(0, 0, 0)" stroke-opacity="1.0" stroke-linecap="round" stroke-linejoin="round"/>
    <path d="M 134.4872283935547 140.91062927246094 C 165.73550415039062 122.90599822998047 129.569091796875 115.77735900878906 120.62366485595703 140.7177276611328" stroke-width="3.0" fill="none" stroke="rgb(0, 0, 0)" stroke-opacity="1.0" stroke-linecap="round" stroke-linejoin="round"/>
    <path d="M 143.67880249023438 119.01961517333984 C 197.6021270751953 115.97410583496094 118.53545379638672 111.57019805908203 165.05325317382812 102.1610107421875" stroke-width="3.0" fill="none" stroke="rgb(0, 0, 0)" stroke-opacity="1.0" stroke-linecap="round" stroke-linejoin="round"/>
    <path d="M 168.04046630859375 109.0703353881836 C 135.43577575683594 106.039306640625 124.8462142944336 87.37857055664062 178.25680541992188 101.95332336425781" stroke-width="3.0" fill="none" stroke="rgb(0, 0, 0)" stroke-opacity="1.0" stroke-linecap="round" stroke-linejoin="round"/>
    <path d="M 152.84555053710938 103.9966049194336 C 170.73953247070312 110.5752182006836 184.60215759277344 85.1748275756836 193.02142333984375 109.01576232910156" stroke-width="3.0" fill="none" stroke="rgb(0, 0, 0)" stroke-opacity="1.0" stroke-linecap="round" stroke-linejoin="round"/>
    <path d="M 143.407470703125 122.15857696533203 C 134.10678100585938 170.7323455810547 127.74637603759766 158.85763549804688 147.06239318847656 132.2508087158203" stroke-width="3.0" fill="none" stroke="rgb(0, 0, 0)" stroke-opacity="1.0" stroke-linecap="round" stroke-linejoin="round"/>
    <path d="M 128.62985229492188 83.96404266357422 C 165.92343139648438 107.9544448852539 211.7903289794922 95.62609100341797 154.61148071289062 89.75338745117188" stroke-width="3.0" fill="none" stroke="rgb(0, 0, 0)" stroke-opacity="1.0" stroke-linecap="round" stroke-linejoin="round"/>
    <path d="M 124.74443054199219 179.24334716796875 C 148.63583374023438 99.49954223632812 143.99203491210938 159.35890197753906 132.25808715820312 178.3311309814453" stroke-width="3.0" fill="none" stroke="rgb(0, 0, 0)" stroke-opacity="1.0" stroke-linecap="round" stroke-linejoin="round"/>
    <path d="M 128.82882690429688 130.82508850097656 C 111.68356323242188 159.75660705566406 116.90975189208984 153.16700744628906 123.23058319091797 136.41946411132812" stroke-width="3.0" fill="none" stroke="rgb(0, 0, 0)" stroke-opacity="1.0" stroke-linecap="round" stroke-linejoin="round"/>
    <path d="M 122.26351928710938 81.12088775634766 C 186.5717010498047 137.14413452148438 198.5942840576172 79.3605728149414 151.4030303955078 89.38613891601562" stroke-width="3.0" fill="none" stroke="rgb(0, 0, 0)" stroke-opacity="1.0" stroke-linecap="round" stroke-linejoin="round"/>
    <path d="M 142.31480407714844 124.89412689208984 C 140.79660034179688 183.4268341064453 124.33316040039062 184.72256469726562 141.9991455078125 125.8316421508789" stroke-width="3.0" fill="none" stroke="rgb(0, 0, 0)" stroke-opacity="1.0" stroke-linecap="round" stroke-linejoin="round"/>
    <path d="M 140.31552124023438 124.24182891845703 C 206.64886474609375 101.04237365722656 157.8226318359375 107.0533218383789 134.51271057128906 92.87283325195312" stroke-width="3.0" fill="none" stroke="rgb(0, 0, 0)" stroke-opacity="1.0" stroke-linecap="round" stroke-linejoin="round"/>
    <path d="M 134.45404052734375 166.67742919921875 C 151.1635284423828 126.409423828125 140.51797485351562 117.22247314453125 184.7591094970703 103.41734313964844" stroke-width="3.0" fill="none" stroke="rgb(0, 0, 0)" stroke-opacity="1.0" stroke-linecap="round" stroke-linejoin="round"/>
    <path d="M 135.0432586669922 131.83486938476562 C 121.01617431640625 172.561767578125 122.23806762695312 175.51214599609375 115.76870727539062 185.3867645263672" stroke-width="3.0" fill="none" stroke="rgb(0, 0, 0)" stroke-opacity="1.0" stroke-linecap="round" stroke-linejoin="round"/>
    <path d="M 50.31524658203125 95.5049819946289 C 77.41791534423828 83.11448669433594 121.51204681396484 70.03068542480469 147.159912109375 109.90758514404297" stroke-width="3.0" fill="none" stroke="rgb(0, 0, 0)" stroke-opacity="1.0" stroke-linecap="round" stroke-linejoin="round"/>
    <path d="M 34.11225509643555 84.94075012207031 C 55.51873779296875 79.54608154296875 98.08851623535156 75.67633056640625 128.31341552734375 88.59540557861328" stroke-width="3.0" fill="none" stroke="rgb(0, 0, 0)" stroke-opacity="1.0" stroke-linecap="round" stroke-linejoin="round"/>
    <path d="M 87.32281494140625 76.08460998535156 C 75.1133041381836 68.14266967773438 98.60399627685547 78.2125473022461 106.8379898071289 73.31283569335938" stroke-width="3.0" fill="none" stroke="rgb(0, 0, 0)" stroke-opacity="1.0" stroke-linecap="round" stroke-linejoin="round"/>
    <path d="M 132.16587829589844 133.53482055664062 C 118.564453125 141.6050567626953 111.618408203125 141.7954864501953 140.5308837890625 135.7277374267578" stroke-width="3.0" fill="none" stroke="rgb(0, 0, 0)" stroke-opacity="1.0" stroke-linecap="round" stroke-linejoin="round"/>
    <path d="M 130.9777069091797 179.66795349121094 C 151.21934509277344 114.93272399902344 158.5406036376953 120.0284194946289 152.36997985839844 120.17620849609375" stroke-width="3.0" fill="none" stroke="rgb(0, 0, 0)" stroke-opacity="1.0" stroke-linecap="round" stroke-linejoin="round"/>
    <path d="M 99.94210815429688 185.32041931152344 C 125.86431121826172 136.48348999023438 123.86561584472656 136.9672393798828 141.30247497558594 124.21857452392578" stroke-width="3.0" fill="none" stroke="rgb(0, 0, 0)" stroke-opacity="1.0" stroke-linecap="round" stroke-linejoin="round"/>
    <path d="M 131.4604034423828 132.07073974609375 C 129.61264038085938 181.2886962890625 130.74752807617188 189.0970001220703 132.0731201171875 156.43502807617188" stroke-width="3.0" fill="none" stroke="rgb(0, 0, 0)" stroke-opacity="1.0" stroke-linecap="round" stroke-linejoin="round"/>
    <path d="M 121.91007232666016 145.66726684570312 C 129.95237731933594 121.87550354003906 151.95660400390625 109.26244354248047 135.4725341796875 142.49786376953125" stroke-width="3.0" fill="none" stroke="rgb(0, 0, 0)" stroke-opacity="1.0" stroke-linecap="round" stroke-linejoin="round"/>
    <path d="M 187.1993865966797 100.36775207519531 C 168.91514587402344 100.81099700927734 141.26190185546875 99.44023132324219 114.49293518066406 84.54049682617188" stroke-width="3.0" fill="none" stroke="rgb(0, 0, 0)" stroke-opacity="1.0" stroke-linecap="round" stroke-linejoin="round"/>
    <path d="M 130.67189025878906 137.43238830566406 C 179.769287109375 105.19244384765625 126.5027084350586 114.08583068847656 116.96724700927734 144.71905517578125" stroke-width="3.0" fill="none" stroke="rgb(0, 0, 0)" stroke-opacity="1.0" stroke-linecap="round" stroke-linejoin="round"/>
    <path d="M 101.19098663330078 78.90204620361328 C 70.49100494384766 79.04267120361328 108.01282501220703 66.502197265625 167.0084228515625 102.18963623046875" stroke-width="3.0" fill="none" stroke="rgb(0, 0, 0)" stroke-opacity="1.0" stroke-linecap="round" stroke-linejoin="round"/>
    <path d="M 129.1415557861328 134.26463317871094 C 166.23715209960938 110.15227508544922 134.00689697265625 145.76710510253906 143.30117797851562 128.3487548828125" stroke-width="3.0" fill="none" stroke="rgb(0, 0, 0)" stroke-opacity="1.0" stroke-linecap="round" stroke-linejoin="round"/>
    <path d="M 48.954261779785156 57.46432876586914 C 69.28223419189453 74.28591918945312 108.67081451416016 81.32996368408203 113.07868957519531 82.02718353271484" stroke-width="3.0" fill="none" stroke="rgb(0, 0, 0)" stroke-opacity="1.0" stroke-linecap="round" stroke-linejoin="round"/>
    <path d="M 106.06208801269531 187.33114624023438 C 120.4837646484375 174.96621704101562 115.73788452148438 150.383056640625 140.96934509277344 126.32855224609375" stroke-width="3.0" fill="none" stroke="rgb(0, 0, 0)" stroke-opacity="1.0" stroke-linecap="round" stroke-linejoin="round"/>
    <path d="M 188.84378051757812 103.16622924804688 C 136.30946350097656 88.80889129638672 116.14137268066406 94.47134399414062 179.5706329345703 102.07332611083984" stroke-width="3.0" fill="none" stroke="rgb(0, 0, 0)" stroke-opacity="1.0" stroke-linecap="round" stroke-linejoin="round"/>
    <path d="M 190.39508056640625 107.61846923828125 C 169.15899658203125 95.85819244384766 170.53746032714844 115.43732452392578 135.94227600097656 107.19273376464844" stroke-width="3.0" fill="none" stroke="rgb(0, 0, 0)" stroke-opacity="1.0" stroke-linecap="round" stroke-linejoin="round"/>
    <path d="M 105.0675048828125 81.07990264892578 C 159.46005249023438 79.31090545654297 143.5469512939453 102.4694595336914 175.60513305664062 105.23211669921875" stroke-width="3.0" fill="none" stroke="rgb(0, 0, 0)" stroke-opacity="1.0" stroke-linecap="round" stroke-linejoin="round"/>
    <path d="M 148.06167602539062 117.21429443359375 C 123.27568817138672 153.1719512939453 121.13968658447266 136.59947204589844 147.65257263183594 124.18126678466797" stroke-width="3.0" fill="none" stroke="rgb(0, 0, 0)" stroke-opacity="1.0" stroke-linecap="round" stroke-linejoin="round"/>
  </g>
</svg>
