<?xml version="1.0" ?>
<svg xmlns="http://www.w3.org/2000/svg" version="1.1" width="224" height="224">
  <defs/>
  <g>
    <path d="M 139.57247924804688 108.98419189453125 C 195.0276336669922 121.7186050415039 154.83709716796875 112.62895965576172 130.7152862548828 128.35386657714844" stroke-width="3.0" fill="none" stroke="rgb(0, 0, 0)" stroke-opacity="1.0" stroke-linecap="round" stroke-linejoin="round"/>
    <path d="M 136.93533325195312 136.25750732421875 C 153.77967834472656 115.93108367919922 131.33590698242188 119.63582611083984 129.2466583251953 149.5577850341797" stroke-width="3.0" fill="none" stroke="rgb(0, 0, 0)" stroke-opacity="1.0" stroke-linecap="round" stroke-linejoin="round"/>
    <path d="M 149.79502868652344 121.69099426269531 C 168.03297424316406 108.47932434082031 142.7899169921875 120.58224487304688 156.66726684570312 105.91004943847656" stroke-width="3.0" fill="none" stroke="rgb(0, 0, 0)" stroke-opacity="1.0" stroke-linecap="round" stroke-linejoin="round"/>
    <path d="M 161.3595428466797 109.0707778930664 C 146.06085205078125 111.72840881347656 127.65628814697266 82.18270874023438 155.24668884277344 108.2262191772461" stroke-width="3.0" fill="none" stroke="rgb(0, 0, 0)" stroke-opacity="1.0" stroke-linecap="round" stroke-linejoin="round"/>
    <path d="M 162.9011993408203 116.82091522216797 C 187.0709228515625 109.57674407958984 173.13658142089844 80.35354614257812 190.8227996826172 105.07904815673828" stroke-width="3.0" fill="none" stroke="rgb(0, 0, 0)" stroke-opacity="1.0" stroke-linecap="round" stroke-linejoin="round"/>
    <path d="M 149.68670654296875 118.67926788330078 C 132.22035217285156 161.1605682373047 114.80107116699219 148.1694793701172 145.0481719970703 133.0856475830078" stroke-width="3.0" fill="none" stroke="rgb(0, 0, 0)" stroke-opacity="1.0" stroke-linecap="round" stroke-linejoin="round"/>
    <path d="M 143.9176483154297 86.23178100585938 C 165.7990264892578 104.88734436035156 206.86697387695312 99.11502075195312 165.57286071777344 97.0792007446289" stroke-width="3.0" fill="none" stroke="rgb(0, 0, 0)" stroke-opacity="1.0" stroke-linecap="round" stroke-linejoin="round"/>
    <path d="M 123.18062591552734 175.8771514892578 C 139.0663604736328 120.1349868774414 145.08456420898438 160.97315979003906 130.02313232421875 181.95550537109375" stroke-width="3.0" fill="none" stroke="rgb(0, 0, 0)" stroke-opacity="1.0" stroke-linecap="round" stroke-linejoin="round"/>
    <path d="M 128.50424194335938 142.38218688964844 C 102.00775146484375 187.47854614257812 103.15447998046875 166.50718688964844 119.4404525756836 144.77040100097656" stroke-width="3.0" fill="none" stroke="rgb(0, 0, 0)" stroke-opacity="1.0" stroke-linecap="round" stroke-linejoin="round"/>
    <path d="M 131.04693603515625 86.46768188476562 C 202.12338256835938 120.32777404785156 190.69351196289062 85.9580307006836 156.99801635742188 87.63471984863281" stroke-width="3.0" fill="none" stroke="rgb(0, 0, 0)" stroke-opacity="1.0" stroke-linecap="round" stroke-linejoin="round"/>
    <path d="M 134.61480712890625 143.43997192382812 C 130.5909423828125 142.22938537597656 139.5105438232422 158.64157104492188 146.93707275390625 124.42813110351562" stroke-width="3.0" fill="none" stroke="rgb(0, 0, 0)" stroke-opacity="1.0" stroke-linecap="round" stroke-linejoin="round"/>
    <path d="M 141.6182861328125 106.23228454589844 C 186.06752014160156 111.6721420288086 164.60894775390625 119.83389282226562 138.13433837890625 106.68329620361328" stroke-width="3.0" fill="none" stroke="rgb(0, 0, 0)" stroke-opacity="1.0" stroke-linecap="round" stroke-linejoin="round"/>
    <path d="M 137.48553466796875 165.2052764892578 C 145.95297241210938 135.4578857421875 146.2683563232422 124.68731689453125 164.1015625 109.47150421142578" stroke-width="3.0" fill="none" stroke="rgb(0, 0, 0)" stroke-opacity="1.0" stroke-linecap="round" stroke-linejoin="round"/>
    <path d="M 138.21791076660156 147.38951110839844 C 123.23748016357422 180.67678833007812 126.9653091430664 177.4344940185547 118.26526641845703 186.31900024414062" stroke-width="3.0" fill="none" stroke="rgb(0, 0, 0)" stroke-opacity="1.0" stroke-linecap="round" stroke-linejoin="round"/>
    <path d="M 48.33685302734375 92.81153869628906 C 75.54718017578125 80.5589828491211 115.9755630493164 71.60319519042969 150.7571563720703 92.94831085205078" stroke-width="3.0" fill="none" stroke="rgb(0, 0, 0)" stroke-opacity="1.0" stroke-linecap="round" stroke-linejoin="round"/>
    <path d="M 34.02367401123047 84.7855224609375 C 53.10340881347656 83.53871154785156 75.71573638916016 80.25812530517578 106.1121826171875 79.19713592529297" stroke-width="3.0" fill="none" stroke="rgb(0, 0, 0)" stroke-opacity="1.0" stroke-linecap="round" stroke-linejoin="round"/>
    <path d="M 62.69192886352539 57.655921936035156 C 61.849220275878906 56.50238800048828 74.51978302001953 75.10701751708984 105.29923248291016 75.03460693359375" stroke-width="3.0" fill="none" stroke="rgb(0, 0, 0)" stroke-opacity="1.0" stroke-linecap="round" stroke-linejoin="round"/>
    <path d="M 120.90082550048828 137.26414489746094 C 114.3197250366211 155.43576049804688 102.07617950439453 149.7107696533203 132.8659210205078 139.4705352783203" stroke-width="3.0" fill="none" stroke="rgb(0, 0, 0)" stroke-opacity="1.0" stroke-linecap="round" stroke-linejoin="round"/>
    <path d="M 131.2598876953125 179.4654083251953 C 143.2492218017578 126.996826171875 142.08358764648438 142.15538024902344 126.54285430908203 131.33580017089844" stroke-width="3.0" fill="none" stroke="rgb(0, 0, 0)" stroke-opacity="1.0" stroke-linecap="round" stroke-linejoin="round"/>
    <path d="M 99.34972381591797 185.32321166992188 C 126.83964538574219 144.4448699951172 122.82855987548828 144.53094482421875 134.0735626220703 138.50653076171875" stroke-width="3.0" fill="none" stroke="rgb(0, 0, 0)" stroke-opacity="1.0" stroke-linecap="round" stroke-linejoin="round"/>
    <path d="M 126.87921905517578 170.25225830078125 C 117.7247085571289 180.16444396972656 119.41545867919922 197.59556579589844 126.76544189453125 164.7160186767578" stroke-width="3.0" fill="none" stroke="rgb(0, 0, 0)" stroke-opacity="1.0" stroke-linecap="round" stroke-linejoin="round"/>
    <path d="M 115.97188568115234 144.4232177734375 C 126.99742126464844 134.95260620117188 141.29086303710938 117.90074920654297 120.46929931640625 143.89564514160156" stroke-width="3.0" fill="none" stroke="rgb(0, 0, 0)" stroke-opacity="1.0" stroke-linecap="round" stroke-linejoin="round"/>
    <path d="M 156.9438934326172 113.59552001953125 C 160.65968322753906 106.9187240600586 137.0444793701172 100.46778106689453 126.11494445800781 86.96314239501953" stroke-width="3.0" fill="none" stroke="rgb(0, 0, 0)" stroke-opacity="1.0" stroke-linecap="round" stroke-linejoin="round"/>
    <path d="M 138.3037109375 152.564208984375 C 155.21438598632812 117.81917572021484 127.28417205810547 121.01569366455078 112.82357788085938 148.39617919921875" stroke-width="3.0" fill="none" stroke="rgb(0, 0, 0)" stroke-opacity="1.0" stroke-linecap="round" stroke-linejoin="round"/>
    <path d="M 99.81100463867188 76.17442321777344 C 59.982391357421875 91.9690933227539 104.12187957763672 66.33402252197266 152.015625 103.78492736816406" stroke-width="3.0" fill="none" stroke="rgb(0, 0, 0)" stroke-opacity="1.0" stroke-linecap="round" stroke-linejoin="round"/>
    <path d="M 136.75534057617188 147.10302734375 C 143.8435821533203 117.36375427246094 119.08795166015625 126.2138671875 133.72787475585938 147.22702026367188" stroke-width="3.0" fill="none" stroke="rgb(0, 0, 0)" stroke-opacity="1.0" stroke-linecap="round" stroke-linejoin="round"/>
    <path d="M 42.932193756103516 62.98808670043945 C 53.01463317871094 71.89752197265625 101.01361846923828 73.80440521240234 108.94490814208984 83.59842681884766" stroke-width="3.0" fill="none" stroke="rgb(0, 0, 0)" stroke-opacity="1.0" stroke-linecap="round" stroke-linejoin="round"/>
    <path d="M 106.02576446533203 187.79949951171875 C 125.75366973876953 164.21351623535156 116.17436981201172 157.94529724121094 141.45330810546875 138.11207580566406" stroke-width="3.0" fill="none" stroke="rgb(0, 0, 0)" stroke-opacity="1.0" stroke-linecap="round" stroke-linejoin="round"/>
    <path d="M 184.8720245361328 98.1675796508789 C 141.80831909179688 91.4555892944336 128.0843505859375 101.66860961914062 172.7275390625 107.08904266357422" stroke-width="3.0" fill="none" stroke="rgb(0, 0, 0)" stroke-opacity="1.0" stroke-linecap="round" stroke-linejoin="round"/>
    <path d="M 191.73414611816406 106.78058624267578 C 184.19931030273438 100.22969055175781 183.8464813232422 102.28892517089844 157.22483825683594 115.05691528320312" stroke-width="3.0" fill="none" stroke="rgb(0, 0, 0)" stroke-opacity="1.0" stroke-linecap="round" stroke-linejoin="round"/>
    <path d="M 117.83073425292969 82.38719177246094 C 158.0346221923828 78.67512512207031 135.44268798828125 98.02867126464844 180.18533325195312 94.40338134765625" stroke-width="3.0" fill="none" stroke="rgb(0, 0, 0)" stroke-opacity="1.0" stroke-linecap="round" stroke-linejoin="round"/>
    <path d="M 151.14088439941406 122.7409439086914 C 106.40782165527344 156.69264221191406 114.75690460205078 147.0142364501953 140.70639038085938 129.33905029296875" stroke-width="3.0" fill="none" stroke="rgb(0, 0, 0)" stroke-opacity="1.0" stroke-linecap="round" stroke-linejoin="round"/>
  </g>
</svg>
