<?xml version="1.0" ?>
<svg xmlns="http://www.w3.org/2000/svg" version="1.1" width="224" height="224">
  <defs/>
  <g>
    <path d="M 132.74314880371094 85.00039672851562 C 184.6290283203125 120.91165924072266 158.61074829101562 91.96885681152344 143.78758239746094 146.63917541503906" stroke-width="3.0" fill="none" stroke="rgb(0, 0, 0)" stroke-opacity="1.0" stroke-linecap="round" stroke-linejoin="round"/>
    <path d="M 106.66134643554688 161.40277099609375 C 158.4772491455078 99.25363159179688 141.03182983398438 124.4629898071289 124.8354263305664 168.4345703125" stroke-width="3.0" fill="none" stroke="rgb(0, 0, 0)" stroke-opacity="1.0" stroke-linecap="round" stroke-linejoin="round"/>
    <path d="M 151.16358947753906 121.38912963867188 C 193.44305419921875 96.05448150634766 103.04264831542969 111.29267883300781 166.44302368164062 110.91321563720703" stroke-width="3.0" fill="none" stroke="rgb(0, 0, 0)" stroke-opacity="1.0" stroke-linecap="round" stroke-linejoin="round"/>
    <path d="M 170.2637176513672 106.80511474609375 C 127.22758483886719 110.67073822021484 114.28942108154297 106.01002502441406 183.0781707763672 102.29228973388672" stroke-width="3.0" fill="none" stroke="rgb(0, 0, 0)" stroke-opacity="1.0" stroke-linecap="round" stroke-linejoin="round"/>
    <path d="M 135.26754760742188 107.25527954101562 C 166.2125701904297 126.63752746582031 185.36709594726562 87.52001190185547 191.7785186767578 107.09578704833984" stroke-width="3.0" fill="none" stroke="rgb(0, 0, 0)" stroke-opacity="1.0" stroke-linecap="round" stroke-linejoin="round"/>
    <path d="M 149.5957794189453 121.11450958251953 C 124.202880859375 152.4053192138672 124.42820739746094 150.98800659179688 142.24009704589844 120.50975036621094" stroke-width="3.0" fill="none" stroke="rgb(0, 0, 0)" stroke-opacity="1.0" stroke-linecap="round" stroke-linejoin="round"/>
    <path d="M 123.07078552246094 82.02265930175781 C 161.8428192138672 114.39281463623047 219.53594970703125 100.14299011230469 155.06227111816406 85.42914581298828" stroke-width="3.0" fill="none" stroke="rgb(0, 0, 0)" stroke-opacity="1.0" stroke-linecap="round" stroke-linejoin="round"/>
    <path d="M 109.05384826660156 188.40496826171875 C 162.57667541503906 81.82221984863281 144.5187225341797 160.39617919921875 127.66141510009766 182.86129760742188" stroke-width="3.0" fill="none" stroke="rgb(0, 0, 0)" stroke-opacity="1.0" stroke-linecap="round" stroke-linejoin="round"/>
    <path d="M 135.4238739013672 134.782470703125 C 111.69977569580078 149.9898681640625 118.26294708251953 152.44314575195312 130.7800750732422 130.72410583496094" stroke-width="3.0" fill="none" stroke="rgb(0, 0, 0)" stroke-opacity="1.0" stroke-linecap="round" stroke-linejoin="round"/>
    <path d="M 119.02006530761719 87.02725219726562 C 187.22354125976562 132.419921875 204.63665771484375 84.7867202758789 156.1859588623047 88.34357452392578" stroke-width="3.0" fill="none" stroke="rgb(0, 0, 0)" stroke-opacity="1.0" stroke-linecap="round" stroke-linejoin="round"/>
    <path d="M 142.81639099121094 121.96451568603516 C 139.88401794433594 172.1103973388672 128.98536682128906 170.7261505126953 150.27598571777344 108.4736557006836" stroke-width="3.0" fill="none" stroke="rgb(0, 0, 0)" stroke-opacity="1.0" stroke-linecap="round" stroke-linejoin="round"/>
    <path d="M 139.24822998046875 129.1753692626953 C 226.77102661132812 76.64570617675781 172.60462951660156 113.70280456542969 119.0613784790039 88.82518005371094" stroke-width="3.0" fill="none" stroke="rgb(0, 0, 0)" stroke-opacity="1.0" stroke-linecap="round" stroke-linejoin="round"/>
    <path d="M 121.30207061767578 184.57626342773438 C 147.4944610595703 126.1859359741211 137.81578063964844 120.51081848144531 181.85821533203125 100.16207885742188" stroke-width="3.0" fill="none" stroke="rgb(0, 0, 0)" stroke-opacity="1.0" stroke-linecap="round" stroke-linejoin="round"/>
    <path d="M 141.30638122558594 129.68264770507812 C 108.4620361328125 151.07464599609375 117.81876373291016 162.53802490234375 103.99154663085938 174.617919921875" stroke-width="3.0" fill="none" stroke="rgb(0, 0, 0)" stroke-opacity="1.0" stroke-linecap="round" stroke-linejoin="round"/>
    <path d="M 48.53824996948242 93.31727600097656 C 76.47798156738281 79.37982177734375 113.02808380126953 69.46121215820312 149.2478485107422 111.73417663574219" stroke-width="3.0" fill="none" stroke="rgb(0, 0, 0)" stroke-opacity="1.0" stroke-linecap="round" stroke-linejoin="round"/>
    <path d="M 34.919071197509766 83.43405151367188 C 84.91731262207031 72.55345153808594 105.02787780761719 73.3010025024414 165.92538452148438 109.4167251586914" stroke-width="3.0" fill="none" stroke="rgb(0, 0, 0)" stroke-opacity="1.0" stroke-linecap="round" stroke-linejoin="round"/>
    <path d="M 97.92951965332031 79.57684326171875 C 70.81195831298828 74.0865249633789 88.41912078857422 76.71603393554688 107.62277221679688 73.06651306152344" stroke-width="3.0" fill="none" stroke="rgb(0, 0, 0)" stroke-opacity="1.0" stroke-linecap="round" stroke-linejoin="round"/>
    <path d="M 141.96795654296875 138.1829071044922 C 126.71446990966797 131.74940490722656 117.00101470947266 131.72752380371094 142.53170776367188 122.89067840576172" stroke-width="3.0" fill="none" stroke="rgb(0, 0, 0)" stroke-opacity="1.0" stroke-linecap="round" stroke-linejoin="round"/>
    <path d="M 118.38484954833984 186.1808319091797 C 150.8987579345703 107.44217681884766 163.54837036132812 115.8753433227539 140.75253295898438 127.9047622680664" stroke-width="3.0" fill="none" stroke="rgb(0, 0, 0)" stroke-opacity="1.0" stroke-linecap="round" stroke-linejoin="round"/>
    <path d="M 99.80093383789062 186.2779998779297 C 129.80894470214844 157.2135772705078 119.90385437011719 134.52606201171875 162.5396728515625 110.6512451171875" stroke-width="3.0" fill="none" stroke="rgb(0, 0, 0)" stroke-opacity="1.0" stroke-linecap="round" stroke-linejoin="round"/>
    <path d="M 156.35614013671875 112.58097839355469 C 131.40980529785156 158.37074279785156 125.7495346069336 201.08030700683594 137.6036376953125 160.08355712890625" stroke-width="3.0" fill="none" stroke="rgb(0, 0, 0)" stroke-opacity="1.0" stroke-linecap="round" stroke-linejoin="round"/>
    <path d="M 109.3421401977539 156.35414123535156 C 130.96832275390625 111.38203430175781 158.3619842529297 124.86579895019531 126.758544921875 141.77725219726562" stroke-width="3.0" fill="none" stroke="rgb(0, 0, 0)" stroke-opacity="1.0" stroke-linecap="round" stroke-linejoin="round"/>
    <path d="M 180.43716430664062 102.50623321533203 C 162.39613342285156 114.59744262695312 157.15139770507812 81.883544921875 129.66807556152344 82.1975326538086" stroke-width="3.0" fill="none" stroke="rgb(0, 0, 0)" stroke-opacity="1.0" stroke-linecap="round" stroke-linejoin="round"/>
    <path d="M 132.83253479003906 143.61412048339844 C 178.8911895751953 104.00379180908203 128.30418395996094 111.78395080566406 118.44343566894531 148.16192626953125" stroke-width="3.0" fill="none" stroke="rgb(0, 0, 0)" stroke-opacity="1.0" stroke-linecap="round" stroke-linejoin="round"/>
    <path d="M 143.40354919433594 89.42094421386719 C 67.03014373779297 67.86527252197266 103.27497100830078 75.75697326660156 175.47921752929688 105.9766616821289" stroke-width="3.0" fill="none" stroke="rgb(0, 0, 0)" stroke-opacity="1.0" stroke-linecap="round" stroke-linejoin="round"/>
    <path d="M 137.4075927734375 165.21592712402344 C 154.42303466796875 116.15579223632812 115.14666748046875 142.46212768554688 145.76419067382812 126.75138854980469" stroke-width="3.0" fill="none" stroke="rgb(0, 0, 0)" stroke-opacity="1.0" stroke-linecap="round" stroke-linejoin="round"/>
    <path d="M 56.11433792114258 54.81435775756836 C 83.03646087646484 79.68156433105469 101.0870361328125 73.69921112060547 151.51548767089844 91.43060302734375" stroke-width="3.0" fill="none" stroke="rgb(0, 0, 0)" stroke-opacity="1.0" stroke-linecap="round" stroke-linejoin="round"/>
    <path d="M 105.67156219482422 172.1519775390625 C 117.51910400390625 155.58154296875 117.71871948242188 146.79298400878906 142.2694549560547 125.70377349853516" stroke-width="3.0" fill="none" stroke="rgb(0, 0, 0)" stroke-opacity="1.0" stroke-linecap="round" stroke-linejoin="round"/>
    <path d="M 176.98516845703125 91.81265258789062 C 134.58761596679688 94.7713851928711 118.38814544677734 101.22201538085938 176.71922302246094 97.80084991455078" stroke-width="3.0" fill="none" stroke="rgb(0, 0, 0)" stroke-opacity="1.0" stroke-linecap="round" stroke-linejoin="round"/>
    <path d="M 191.29010009765625 108.08881378173828 C 174.5364227294922 87.63116455078125 175.8914337158203 131.0221710205078 139.0858612060547 102.87394714355469" stroke-width="3.0" fill="none" stroke="rgb(0, 0, 0)" stroke-opacity="1.0" stroke-linecap="round" stroke-linejoin="round"/>
    <path d="M 110.86297607421875 85.59326171875 C 154.79806518554688 82.5818862915039 130.7839813232422 102.10514068603516 176.4668731689453 91.99153900146484" stroke-width="3.0" fill="none" stroke="rgb(0, 0, 0)" stroke-opacity="1.0" stroke-linecap="round" stroke-linejoin="round"/>
    <path d="M 146.8004608154297 119.24549865722656 C 132.1820068359375 145.9955291748047 119.8472900390625 128.7316131591797 148.51780700683594 123.80953979492188" stroke-width="3.0" fill="none" stroke="rgb(0, 0, 0)" stroke-opacity="1.0" stroke-linecap="round" stroke-linejoin="round"/>
  </g>
</svg>
