<?xml version="1.0" ?>
<svg xmlns="http://www.w3.org/2000/svg" version="1.1" width="224" height="224">
  <defs/>
  <g>
    <path d="M 139.5600128173828 137.32257080078125 C 111.84587860107422 168.0655059814453 148.19287109375 134.85879516601562 134.02268981933594 144.03660583496094" stroke-width="3.0" fill="none" stroke="rgb(0, 0, 0)" stroke-opacity="1.0" stroke-linecap="round" stroke-linejoin="round"/>
    <path d="M 139.4051513671875 146.45742797851562 C 156.7554473876953 173.6792755126953 163.7787322998047 129.4224090576172 151.3849334716797 153.60118103027344" stroke-width="3.0" fill="none" stroke="rgb(0, 0, 0)" stroke-opacity="1.0" stroke-linecap="round" stroke-linejoin="round"/>
    <path d="M 144.56626892089844 133.51316833496094 C 127.62535858154297 155.24110412597656 171.34849548339844 112.35887908935547 138.1580352783203 159.718505859375" stroke-width="3.0" fill="none" stroke="rgb(0, 0, 0)" stroke-opacity="1.0" stroke-linecap="round" stroke-linejoin="round"/>
    <path d="M 115.29812622070312 159.2667999267578 C 157.2324981689453 152.89047241210938 87.57611846923828 166.7758026123047 154.29945373535156 163.17588806152344" stroke-width="3.0" fill="none" stroke="rgb(0, 0, 0)" stroke-opacity="1.0" stroke-linecap="round" stroke-linejoin="round"/>
    <path d="M 150.41403198242188 161.03163146972656 C 145.91848754882812 119.49134826660156 100.98399353027344 127.299072265625 153.1659698486328 144.1013641357422" stroke-width="3.0" fill="none" stroke="rgb(0, 0, 0)" stroke-opacity="1.0" stroke-linecap="round" stroke-linejoin="round"/>
    <path d="M 154.736572265625 154.98280334472656 C 144.954833984375 132.3941650390625 115.57120513916016 172.0299072265625 160.87094116210938 156.03636169433594" stroke-width="3.0" fill="none" stroke="rgb(0, 0, 0)" stroke-opacity="1.0" stroke-linecap="round" stroke-linejoin="round"/>
    <path d="M 59.10865783691406 156.27943420410156 C 161.97335815429688 182.74501037597656 113.4246597290039 210.48406982421875 121.31068420410156 145.3269805908203" stroke-width="3.0" fill="none" stroke="rgb(0, 0, 0)" stroke-opacity="1.0" stroke-linecap="round" stroke-linejoin="round"/>
    <path d="M 159.79354858398438 145.9310302734375 C 139.81600952148438 212.022216796875 135.19296264648438 205.90548706054688 150.83522033691406 142.6024169921875" stroke-width="3.0" fill="none" stroke="rgb(0, 0, 0)" stroke-opacity="1.0" stroke-linecap="round" stroke-linejoin="round"/>
    <path d="M 123.85820007324219 186.92132568359375 C 111.56788635253906 136.36422729492188 116.50506591796875 123.6620864868164 125.7845458984375 185.7646026611328" stroke-width="3.0" fill="none" stroke="rgb(0, 0, 0)" stroke-opacity="1.0" stroke-linecap="round" stroke-linejoin="round"/>
    <path d="M 149.1347198486328 138.38426208496094 C 121.19448852539062 139.0225067138672 120.05215454101562 129.2202911376953 155.06915283203125 154.4136199951172" stroke-width="3.0" fill="none" stroke="rgb(0, 0, 0)" stroke-opacity="1.0" stroke-linecap="round" stroke-linejoin="round"/>
    <path d="M 127.15082550048828 150.0618896484375 C 99.17025756835938 202.65914916992188 150.48886108398438 190.20037841796875 145.79576110839844 191.5261993408203" stroke-width="3.0" fill="none" stroke="rgb(0, 0, 0)" stroke-opacity="1.0" stroke-linecap="round" stroke-linejoin="round"/>
    <path d="M 135.85374450683594 128.0023193359375 C 93.77865600585938 161.66346740722656 138.95513916015625 146.00244140625 135.29473876953125 133.4108123779297" stroke-width="3.0" fill="none" stroke="rgb(0, 0, 0)" stroke-opacity="1.0" stroke-linecap="round" stroke-linejoin="round"/>
    <path d="M 119.171142578125 140.89932250976562 C 160.35494995117188 144.7723388671875 137.19960021972656 171.24436950683594 123.2776870727539 133.66659545898438" stroke-width="3.0" fill="none" stroke="rgb(0, 0, 0)" stroke-opacity="1.0" stroke-linecap="round" stroke-linejoin="round"/>
    <path d="M 145.60316467285156 187.6889190673828 C 142.95700073242188 186.18783569335938 153.1540985107422 189.8655242919922 145.87767028808594 183.94371032714844" stroke-width="3.0" fill="none" stroke="rgb(0, 0, 0)" stroke-opacity="1.0" stroke-linecap="round" stroke-linejoin="round"/>
    <path d="M 92.49256134033203 60.89113235473633 C 119.42054748535156 22.8155574798584 125.83177947998047 36.582313537597656 140.79299926757812 40.09873962402344" stroke-width="3.0" fill="none" stroke="rgb(0, 0, 0)" stroke-opacity="1.0" stroke-linecap="round" stroke-linejoin="round"/>
    <path d="M 128.22073364257812 38.53839111328125 C 78.25720977783203 93.40858459472656 112.16333770751953 25.82937240600586 58.46892166137695 125.89781951904297" stroke-width="3.0" fill="none" stroke="rgb(0, 0, 0)" stroke-opacity="1.0" stroke-linecap="round" stroke-linejoin="round"/>
  </g>
</svg>
