<?xml version="1.0" ?>
<svg xmlns="http://www.w3.org/2000/svg" version="1.1" width="224" height="224">
  <defs/>
  <g>
    <path d="M 133.42678833007812 161.12779235839844 C 139.72250366210938 164.19647216796875 138.67593383789062 157.367431640625 144.5341339111328 152.2602996826172" stroke-width="3.0" fill="none" stroke="rgb(0, 0, 0)" stroke-opacity="1.0" stroke-linecap="round" stroke-linejoin="round"/>
    <path d="M 141.52447509765625 162.88894653320312 C 140.4056396484375 168.4071502685547 142.17929077148438 153.6552276611328 144.66311645507812 167.033447265625" stroke-width="3.0" fill="none" stroke="rgb(0, 0, 0)" stroke-opacity="1.0" stroke-linecap="round" stroke-linejoin="round"/>
    <path d="M 154.4556884765625 160.05072021484375 C 160.33148193359375 167.0251007080078 154.3321990966797 164.828369140625 159.49647521972656 155.2410430908203" stroke-width="3.0" fill="none" stroke="rgb(0, 0, 0)" stroke-opacity="1.0" stroke-linecap="round" stroke-linejoin="round"/>
    <path d="M 116.13774108886719 155.8599090576172 C 123.24112701416016 157.012451171875 122.67505645751953 156.870849609375 136.30760192871094 165.46420288085938" stroke-width="3.0" fill="none" stroke="rgb(0, 0, 0)" stroke-opacity="1.0" stroke-linecap="round" stroke-linejoin="round"/>
    <path d="M 134.357177734375 154.01858520507812 C 128.16534423828125 138.10537719726562 120.95838165283203 146.73272705078125 130.18551635742188 149.89564514160156" stroke-width="3.0" fill="none" stroke="rgb(0, 0, 0)" stroke-opacity="1.0" stroke-linecap="round" stroke-linejoin="round"/>
    <path d="M 151.67422485351562 154.1624755859375 C 146.36422729492188 151.23081970214844 136.77024841308594 160.52027893066406 150.90731811523438 153.4800262451172" stroke-width="3.0" fill="none" stroke="rgb(0, 0, 0)" stroke-opacity="1.0" stroke-linecap="round" stroke-linejoin="round"/>
    <path d="M 102.49696350097656 136.72483825683594 C 114.10375213623047 149.5315704345703 110.4647216796875 163.18763732910156 112.48970031738281 146.77145385742188" stroke-width="3.0" fill="none" stroke="rgb(0, 0, 0)" stroke-opacity="1.0" stroke-linecap="round" stroke-linejoin="round"/>
    <path d="M 145.6671600341797 171.10618591308594 C 158.0073699951172 177.21116638183594 150.26722717285156 179.7222900390625 143.08091735839844 168.7481231689453" stroke-width="3.0" fill="none" stroke="rgb(0, 0, 0)" stroke-opacity="1.0" stroke-linecap="round" stroke-linejoin="round"/>
    <path d="M 127.97762298583984 175.87841796875 C 112.4881820678711 186.21841430664062 118.52257537841797 173.259033203125 121.45523071289062 181.3903045654297" stroke-width="3.0" fill="none" stroke="rgb(0, 0, 0)" stroke-opacity="1.0" stroke-linecap="round" stroke-linejoin="round"/>
    <path d="M 157.34518432617188 149.6857452392578 C 149.00428771972656 153.9772491455078 146.48025512695312 139.86639404296875 146.9137725830078 149.3031005859375" stroke-width="3.0" fill="none" stroke="rgb(0, 0, 0)" stroke-opacity="1.0" stroke-linecap="round" stroke-linejoin="round"/>
    <path d="M 128.52638244628906 165.41680908203125 C 129.25057983398438 166.03753662109375 142.92401123046875 169.40771484375 144.1402587890625 168.65670776367188" stroke-width="3.0" fill="none" stroke="rgb(0, 0, 0)" stroke-opacity="1.0" stroke-linecap="round" stroke-linejoin="round"/>
    <path d="M 142.0264129638672 142.2610321044922 C 137.07461547851562 165.56243896484375 131.13575744628906 161.0284423828125 125.1720199584961 140.14910888671875" stroke-width="3.0" fill="none" stroke="rgb(0, 0, 0)" stroke-opacity="1.0" stroke-linecap="round" stroke-linejoin="round"/>
    <path d="M 123.74634552001953 153.5994110107422 C 137.30386352539062 160.37364196777344 136.91693115234375 150.45887756347656 131.22381591796875 160.10972595214844" stroke-width="3.0" fill="none" stroke="rgb(0, 0, 0)" stroke-opacity="1.0" stroke-linecap="round" stroke-linejoin="round"/>
    <path d="M 145.3619384765625 171.64559936523438 C 150.95201110839844 178.82826232910156 150.62362670898438 189.8125762939453 143.66412353515625 174.091064453125" stroke-width="3.0" fill="none" stroke="rgb(0, 0, 0)" stroke-opacity="1.0" stroke-linecap="round" stroke-linejoin="round"/>
    <path d="M 117.44915771484375 41.03268814086914 C 129.0517578125 42.02505111694336 129.9989776611328 44.9829216003418 133.45510864257812 44.351497650146484" stroke-width="3.0" fill="none" stroke="rgb(0, 0, 0)" stroke-opacity="1.0" stroke-linecap="round" stroke-linejoin="round"/>
    <path d="M 92.43409729003906 53.80122375488281 C 103.67650604248047 64.34575653076172 102.8214111328125 65.05232238769531 108.49762725830078 71.22235870361328" stroke-width="3.0" fill="none" stroke="rgb(0, 0, 0)" stroke-opacity="1.0" stroke-linecap="round" stroke-linejoin="round"/>
  </g>
</svg>
