<?xml version="1.0" ?>
<svg xmlns="http://www.w3.org/2000/svg" version="1.1" width="224" height="224">
  <defs/>
  <g>
    <path d="M 131.4286651611328 160.38780212402344 C 137.39944458007812 162.3732147216797 136.65896606445312 155.99966430664062 144.3643798828125 148.78781127929688" stroke-width="3.0" fill="none" stroke="rgb(0, 0, 0)" stroke-opacity="1.0" stroke-linecap="round" stroke-linejoin="round"/>
    <path d="M 139.46290588378906 160.88192749023438 C 143.66445922851562 171.9371795654297 146.34593200683594 154.6825714111328 144.7961883544922 165.94720458984375" stroke-width="3.0" fill="none" stroke="rgb(0, 0, 0)" stroke-opacity="1.0" stroke-linecap="round" stroke-linejoin="round"/>
    <path d="M 153.7941436767578 157.88514709472656 C 161.33309936523438 165.005859375 152.82272338867188 161.09326171875 158.826171875 155.45504760742188" stroke-width="3.0" fill="none" stroke="rgb(0, 0, 0)" stroke-opacity="1.0" stroke-linecap="round" stroke-linejoin="round"/>
    <path d="M 115.14726257324219 157.11370849609375 C 122.79486083984375 157.0468292236328 122.64295959472656 156.3285369873047 136.59915161132812 164.81675720214844" stroke-width="3.0" fill="none" stroke="rgb(0, 0, 0)" stroke-opacity="1.0" stroke-linecap="round" stroke-linejoin="round"/>
    <path d="M 133.93093872070312 155.3924560546875 C 130.04063415527344 138.1363525390625 120.46611785888672 147.9804229736328 130.02664184570312 147.22137451171875" stroke-width="3.0" fill="none" stroke="rgb(0, 0, 0)" stroke-opacity="1.0" stroke-linecap="round" stroke-linejoin="round"/>
    <path d="M 151.2196502685547 152.5627899169922 C 148.3119659423828 150.14097595214844 136.6492919921875 163.3136749267578 152.68038940429688 152.94566345214844" stroke-width="3.0" fill="none" stroke="rgb(0, 0, 0)" stroke-opacity="1.0" stroke-linecap="round" stroke-linejoin="round"/>
    <path d="M 98.86682891845703 136.4111328125 C 115.4522705078125 148.69679260253906 110.37970733642578 161.2061004638672 116.45735168457031 147.73568725585938" stroke-width="3.0" fill="none" stroke="rgb(0, 0, 0)" stroke-opacity="1.0" stroke-linecap="round" stroke-linejoin="round"/>
    <path d="M 144.96083068847656 172.1660614013672 C 162.01846313476562 177.1971435546875 151.1190643310547 181.01690673828125 142.87042236328125 168.66802978515625" stroke-width="3.0" fill="none" stroke="rgb(0, 0, 0)" stroke-opacity="1.0" stroke-linecap="round" stroke-linejoin="round"/>
    <path d="M 126.69999694824219 175.6136932373047 C 111.64566040039062 183.09494018554688 118.96786499023438 170.9635009765625 124.5059585571289 180.1032257080078" stroke-width="3.0" fill="none" stroke="rgb(0, 0, 0)" stroke-opacity="1.0" stroke-linecap="round" stroke-linejoin="round"/>
    <path d="M 159.4194793701172 149.48876953125 C 149.4370574951172 153.63589477539062 145.18128967285156 137.6645965576172 147.06358337402344 152.05364990234375" stroke-width="3.0" fill="none" stroke="rgb(0, 0, 0)" stroke-opacity="1.0" stroke-linecap="round" stroke-linejoin="round"/>
    <path d="M 124.64716339111328 168.99449157714844 C 126.28253936767578 167.4811553955078 142.0166473388672 169.62896728515625 143.26553344726562 168.34071350097656" stroke-width="3.0" fill="none" stroke="rgb(0, 0, 0)" stroke-opacity="1.0" stroke-linecap="round" stroke-linejoin="round"/>
    <path d="M 141.40380859375 144.36671447753906 C 136.83094787597656 169.4171905517578 132.4168701171875 164.6077880859375 125.59744262695312 138.7972412109375" stroke-width="3.0" fill="none" stroke="rgb(0, 0, 0)" stroke-opacity="1.0" stroke-linecap="round" stroke-linejoin="round"/>
    <path d="M 124.08906555175781 150.90628051757812 C 132.95497131347656 164.82115173339844 138.28814697265625 153.65069580078125 133.18017578125 162.0823516845703" stroke-width="3.0" fill="none" stroke="rgb(0, 0, 0)" stroke-opacity="1.0" stroke-linecap="round" stroke-linejoin="round"/>
    <path d="M 144.9361114501953 171.4720458984375 C 150.2384033203125 180.3210906982422 148.16864013671875 193.85665893554688 143.2576446533203 173.17446899414062" stroke-width="3.0" fill="none" stroke="rgb(0, 0, 0)" stroke-opacity="1.0" stroke-linecap="round" stroke-linejoin="round"/>
    <path d="M 116.34766387939453 38.57550811767578 C 131.17013549804688 40.53370666503906 131.06407165527344 44.03071212768555 138.54981994628906 45.509559631347656" stroke-width="3.0" fill="none" stroke="rgb(0, 0, 0)" stroke-opacity="1.0" stroke-linecap="round" stroke-linejoin="round"/>
    <path d="M 91.71772003173828 51.38371658325195 C 99.28804016113281 68.46576690673828 100.40777587890625 67.50157165527344 106.0843276977539 76.7677230834961" stroke-width="3.0" fill="none" stroke="rgb(0, 0, 0)" stroke-opacity="1.0" stroke-linecap="round" stroke-linejoin="round"/>
  </g>
</svg>
