<?xml version="1.0" ?>
<svg xmlns="http://www.w3.org/2000/svg" version="1.1" width="224" height="224">
  <defs/>
  <g>
    <path d="M 149.66441345214844 131.9438934326172 C 106.07667541503906 183.6030731201172 159.31016540527344 146.48519897460938 136.55084228515625 164.5463409423828" stroke-width="3.0" fill="none" stroke="rgb(0, 0, 0)" stroke-opacity="1.0" stroke-linecap="round" stroke-linejoin="round"/>
    <path d="M 139.7512969970703 132.4596405029297 C 158.3990936279297 167.392822265625 162.4258575439453 127.62667846679688 140.8955841064453 153.39376831054688" stroke-width="3.0" fill="none" stroke="rgb(0, 0, 0)" stroke-opacity="1.0" stroke-linecap="round" stroke-linejoin="round"/>
    <path d="M 146.76951599121094 129.89410400390625 C 117.546142578125 153.80374145507812 179.32308959960938 111.48695373535156 130.02838134765625 159.74227905273438" stroke-width="3.0" fill="none" stroke="rgb(0, 0, 0)" stroke-opacity="1.0" stroke-linecap="round" stroke-linejoin="round"/>
    <path d="M 115.5957260131836 155.05384826660156 C 167.23208618164062 146.14071655273438 89.14591217041016 173.8933563232422 151.28822326660156 164.9521026611328" stroke-width="3.0" fill="none" stroke="rgb(0, 0, 0)" stroke-opacity="1.0" stroke-linecap="round" stroke-linejoin="round"/>
    <path d="M 137.34036254882812 163.05740356445312 C 139.3912353515625 131.03709411621094 104.29251098632812 123.39567565917969 145.86489868164062 158.4631805419922" stroke-width="3.0" fill="none" stroke="rgb(0, 0, 0)" stroke-opacity="1.0" stroke-linecap="round" stroke-linejoin="round"/>
    <path d="M 151.56155395507812 155.6259307861328 C 159.81881713867188 139.29261779785156 128.42433166503906 179.57052612304688 156.93194580078125 147.8212890625" stroke-width="3.0" fill="none" stroke="rgb(0, 0, 0)" stroke-opacity="1.0" stroke-linecap="round" stroke-linejoin="round"/>
    <path d="M 67.37614440917969 178.03041076660156 C 166.8093719482422 187.47169494628906 112.39346313476562 205.1416778564453 127.70123291015625 140.8361358642578" stroke-width="3.0" fill="none" stroke="rgb(0, 0, 0)" stroke-opacity="1.0" stroke-linecap="round" stroke-linejoin="round"/>
    <path d="M 151.21424865722656 141.41632080078125 C 159.051513671875 195.49522399902344 142.11770629882812 193.00277709960938 156.44866943359375 155.9983367919922" stroke-width="3.0" fill="none" stroke="rgb(0, 0, 0)" stroke-opacity="1.0" stroke-linecap="round" stroke-linejoin="round"/>
    <path d="M 126.47506713867188 184.71304321289062 C 116.47930145263672 133.3353271484375 125.6693115234375 126.88550567626953 130.3027801513672 185.78927612304688" stroke-width="3.0" fill="none" stroke="rgb(0, 0, 0)" stroke-opacity="1.0" stroke-linecap="round" stroke-linejoin="round"/>
    <path d="M 142.2383575439453 133.41140747070312 C 113.49895477294922 148.352783203125 106.3435287475586 167.6797637939453 152.13917541503906 162.9818115234375" stroke-width="3.0" fill="none" stroke="rgb(0, 0, 0)" stroke-opacity="1.0" stroke-linecap="round" stroke-linejoin="round"/>
    <path d="M 128.6683349609375 148.24114990234375 C 105.5572738647461 204.9041748046875 151.14120483398438 183.95401000976562 149.8612823486328 183.32936096191406" stroke-width="3.0" fill="none" stroke="rgb(0, 0, 0)" stroke-opacity="1.0" stroke-linecap="round" stroke-linejoin="round"/>
    <path d="M 135.63121032714844 129.7418670654297 C 89.37872314453125 159.50938415527344 152.65966796875 166.963134765625 131.9238739013672 132.74192810058594" stroke-width="3.0" fill="none" stroke="rgb(0, 0, 0)" stroke-opacity="1.0" stroke-linecap="round" stroke-linejoin="round"/>
    <path d="M 119.3133544921875 140.00721740722656 C 153.7980499267578 163.6049346923828 163.94879150390625 165.52540588378906 131.77276611328125 128.06565856933594" stroke-width="3.0" fill="none" stroke="rgb(0, 0, 0)" stroke-opacity="1.0" stroke-linecap="round" stroke-linejoin="round"/>
    <path d="M 151.4456329345703 168.22381591796875 C 144.38418579101562 188.72080993652344 153.56976318359375 186.0979461669922 151.48867797851562 179.17117309570312" stroke-width="3.0" fill="none" stroke="rgb(0, 0, 0)" stroke-opacity="1.0" stroke-linecap="round" stroke-linejoin="round"/>
    <path d="M 88.47280883789062 66.031494140625 C 98.32728576660156 29.694637298583984 126.78112030029297 31.094257354736328 138.7770538330078 38.791893005371094" stroke-width="3.0" fill="none" stroke="rgb(0, 0, 0)" stroke-opacity="1.0" stroke-linecap="round" stroke-linejoin="round"/>
    <path d="M 139.99960327148438 38.559852600097656 C 80.06362915039062 144.60235595703125 118.58782196044922 -23.842784881591797 54.518280029296875 140.54742431640625" stroke-width="3.0" fill="none" stroke="rgb(0, 0, 0)" stroke-opacity="1.0" stroke-linecap="round" stroke-linejoin="round"/>
  </g>
</svg>
