<?xml version="1.0" ?>
<svg xmlns="http://www.w3.org/2000/svg" version="1.1" width="224" height="224">
  <defs/>
  <g>
    <path d="M 153.00433349609375 155.66900634765625 C 107.07828521728516 167.58497619628906 178.55462646484375 158.1292266845703 123.7145767211914 156.3368682861328" stroke-width="3.0" fill="none" stroke="rgb(0, 0, 0)" stroke-opacity="1.0" stroke-linecap="round" stroke-linejoin="round"/>
    <path d="M 138.8115997314453 134.6663360595703 C 164.34461975097656 176.82545471191406 165.97836303710938 134.30751037597656 133.82164001464844 158.84249877929688" stroke-width="3.0" fill="none" stroke="rgb(0, 0, 0)" stroke-opacity="1.0" stroke-linecap="round" stroke-linejoin="round"/>
    <path d="M 143.95054626464844 131.17071533203125 C 114.84815216064453 161.45199584960938 173.25035095214844 105.76751708984375 131.21661376953125 163.902587890625" stroke-width="3.0" fill="none" stroke="rgb(0, 0, 0)" stroke-opacity="1.0" stroke-linecap="round" stroke-linejoin="round"/>
    <path d="M 117.8669662475586 150.52015686035156 C 158.86541748046875 145.8563232421875 84.1876220703125 177.12205505371094 150.0966796875 169.8117218017578" stroke-width="3.0" fill="none" stroke="rgb(0, 0, 0)" stroke-opacity="1.0" stroke-linecap="round" stroke-linejoin="round"/>
    <path d="M 132.44375610351562 163.59718322753906 C 139.51657104492188 137.7007293701172 110.85160064697266 117.75125122070312 132.80551147460938 160.69931030273438" stroke-width="3.0" fill="none" stroke="rgb(0, 0, 0)" stroke-opacity="1.0" stroke-linecap="round" stroke-linejoin="round"/>
    <path d="M 137.6289520263672 164.71820068359375 C 172.76242065429688 160.9588623046875 124.80557250976562 177.66854858398438 155.54580688476562 147.01893615722656" stroke-width="3.0" fill="none" stroke="rgb(0, 0, 0)" stroke-opacity="1.0" stroke-linecap="round" stroke-linejoin="round"/>
    <path d="M 64.39070892333984 179.2175750732422 C 152.46861267089844 183.4861602783203 117.16285705566406 199.55621337890625 120.32300567626953 139.61708068847656" stroke-width="3.0" fill="none" stroke="rgb(0, 0, 0)" stroke-opacity="1.0" stroke-linecap="round" stroke-linejoin="round"/>
    <path d="M 150.7144317626953 145.02508544921875 C 159.68798828125 180.67005920410156 138.58734130859375 202.9261474609375 150.80667114257812 171.90576171875" stroke-width="3.0" fill="none" stroke="rgb(0, 0, 0)" stroke-opacity="1.0" stroke-linecap="round" stroke-linejoin="round"/>
    <path d="M 121.25101470947266 175.03207397460938 C 120.86569213867188 147.54202270507812 120.76203155517578 131.72625732421875 121.92770385742188 174.8435821533203" stroke-width="3.0" fill="none" stroke="rgb(0, 0, 0)" stroke-opacity="1.0" stroke-linecap="round" stroke-linejoin="round"/>
    <path d="M 150.54544067382812 139.22122192382812 C 109.82318878173828 145.03433227539062 103.71765899658203 171.1597137451172 150.8214874267578 161.19003295898438" stroke-width="3.0" fill="none" stroke="rgb(0, 0, 0)" stroke-opacity="1.0" stroke-linecap="round" stroke-linejoin="round"/>
    <path d="M 131.13388061523438 131.60610961914062 C 106.15316009521484 203.03231811523438 139.8111572265625 183.8368682861328 145.0142364501953 185.54884338378906" stroke-width="3.0" fill="none" stroke="rgb(0, 0, 0)" stroke-opacity="1.0" stroke-linecap="round" stroke-linejoin="round"/>
    <path d="M 142.7197723388672 131.16207885742188 C 74.79133605957031 162.080322265625 159.18212890625 161.0574493408203 134.66468811035156 128.85574340820312" stroke-width="3.0" fill="none" stroke="rgb(0, 0, 0)" stroke-opacity="1.0" stroke-linecap="round" stroke-linejoin="round"/>
    <path d="M 114.70442962646484 145.06640625 C 167.0345001220703 162.33966064453125 169.952392578125 173.86752319335938 123.52959442138672 130.4375" stroke-width="3.0" fill="none" stroke="rgb(0, 0, 0)" stroke-opacity="1.0" stroke-linecap="round" stroke-linejoin="round"/>
    <path d="M 150.7278289794922 169.86412048339844 C 147.76058959960938 191.19300842285156 150.0175018310547 171.8717803955078 148.65135192871094 177.44876098632812" stroke-width="3.0" fill="none" stroke="rgb(0, 0, 0)" stroke-opacity="1.0" stroke-linecap="round" stroke-linejoin="round"/>
    <path d="M 96.25093841552734 65.81053161621094 C 87.38595581054688 55.40669631958008 112.74948120117188 19.20415496826172 138.1208953857422 37.2384147644043" stroke-width="3.0" fill="none" stroke="rgb(0, 0, 0)" stroke-opacity="1.0" stroke-linecap="round" stroke-linejoin="round"/>
    <path d="M 135.80723571777344 40.1630973815918 C 78.02349090576172 141.5780487060547 126.68427276611328 -26.333019256591797 55.32684326171875 138.95001220703125" stroke-width="3.0" fill="none" stroke="rgb(0, 0, 0)" stroke-opacity="1.0" stroke-linecap="round" stroke-linejoin="round"/>
  </g>
</svg>
