<?xml version="1.0" ?>
<svg xmlns="http://www.w3.org/2000/svg" version="1.1" width="224" height="224">
  <defs/>
  <g>
    <path d="M 159.60874938964844 154.30503845214844 C 106.5889663696289 167.80722045898438 179.51828002929688 159.2821807861328 123.91142272949219 156.05140686035156" stroke-width="3.0" fill="none" stroke="rgb(0, 0, 0)" stroke-opacity="1.0" stroke-linecap="round" stroke-linejoin="round"/>
    <path d="M 137.84396362304688 133.65672302246094 C 162.98757934570312 177.24215698242188 167.21218872070312 129.67208862304688 134.26182556152344 160.11619567871094" stroke-width="3.0" fill="none" stroke="rgb(0, 0, 0)" stroke-opacity="1.0" stroke-linecap="round" stroke-linejoin="round"/>
    <path d="M 143.10931396484375 131.38751220703125 C 114.17591857910156 159.0723876953125 174.2693634033203 103.52783203125 134.90048217773438 161.0042266845703" stroke-width="3.0" fill="none" stroke="rgb(0, 0, 0)" stroke-opacity="1.0" stroke-linecap="round" stroke-linejoin="round"/>
    <path d="M 117.27214050292969 154.34213256835938 C 158.05120849609375 149.42950439453125 83.30574798583984 177.42308044433594 149.44720458984375 167.26687622070312" stroke-width="3.0" fill="none" stroke="rgb(0, 0, 0)" stroke-opacity="1.0" stroke-linecap="round" stroke-linejoin="round"/>
    <path d="M 129.58755493164062 162.11517333984375 C 135.977783203125 137.97679138183594 110.3316421508789 116.11239624023438 127.42985534667969 163.31173706054688" stroke-width="3.0" fill="none" stroke="rgb(0, 0, 0)" stroke-opacity="1.0" stroke-linecap="round" stroke-linejoin="round"/>
    <path d="M 135.82989501953125 163.62139892578125 C 169.76622009277344 158.0721893310547 121.60823822021484 173.02175903320312 155.47547912597656 147.34288024902344" stroke-width="3.0" fill="none" stroke="rgb(0, 0, 0)" stroke-opacity="1.0" stroke-linecap="round" stroke-linejoin="round"/>
    <path d="M 67.1192398071289 178.0584716796875 C 151.23757934570312 183.23956298828125 117.35104370117188 194.43606567382812 118.49026489257812 140.96971130371094" stroke-width="3.0" fill="none" stroke="rgb(0, 0, 0)" stroke-opacity="1.0" stroke-linecap="round" stroke-linejoin="round"/>
    <path d="M 149.27880859375 140.1739959716797 C 159.1865997314453 178.38169860839844 138.97918701171875 202.63674926757812 152.51559448242188 166.17904663085938" stroke-width="3.0" fill="none" stroke="rgb(0, 0, 0)" stroke-opacity="1.0" stroke-linecap="round" stroke-linejoin="round"/>
    <path d="M 121.3184814453125 178.81246948242188 C 125.6784439086914 147.9678955078125 121.48210906982422 131.7313995361328 121.1028823852539 174.82154846191406" stroke-width="3.0" fill="none" stroke="rgb(0, 0, 0)" stroke-opacity="1.0" stroke-linecap="round" stroke-linejoin="round"/>
    <path d="M 153.2059326171875 137.81588745117188 C 110.83979797363281 148.83477783203125 102.4327621459961 172.44410705566406 148.23025512695312 159.18572998046875" stroke-width="3.0" fill="none" stroke="rgb(0, 0, 0)" stroke-opacity="1.0" stroke-linecap="round" stroke-linejoin="round"/>
    <path d="M 130.14175415039062 133.05723571777344 C 104.9410629272461 204.7506103515625 133.54100036621094 184.24839782714844 148.4576416015625 184.84864807128906" stroke-width="3.0" fill="none" stroke="rgb(0, 0, 0)" stroke-opacity="1.0" stroke-linecap="round" stroke-linejoin="round"/>
    <path d="M 140.80325317382812 132.90261840820312 C 73.45623779296875 162.60491943359375 162.67398071289062 164.33636474609375 135.33859252929688 129.26368713378906" stroke-width="3.0" fill="none" stroke="rgb(0, 0, 0)" stroke-opacity="1.0" stroke-linecap="round" stroke-linejoin="round"/>
    <path d="M 114.4004135131836 144.4101104736328 C 166.64212036132812 162.21420288085938 168.5696258544922 177.22605895996094 120.9456787109375 129.38417053222656" stroke-width="3.0" fill="none" stroke="rgb(0, 0, 0)" stroke-opacity="1.0" stroke-linecap="round" stroke-linejoin="round"/>
    <path d="M 152.65435791015625 169.78790283203125 C 147.411865234375 190.9471435546875 149.6540985107422 172.0487823486328 150.0730438232422 179.4025421142578" stroke-width="3.0" fill="none" stroke="rgb(0, 0, 0)" stroke-opacity="1.0" stroke-linecap="round" stroke-linejoin="round"/>
    <path d="M 98.70083618164062 63.36233139038086 C 81.91023254394531 61.11131286621094 111.55689239501953 20.37971305847168 137.24847412109375 37.57415008544922" stroke-width="3.0" fill="none" stroke="rgb(0, 0, 0)" stroke-opacity="1.0" stroke-linecap="round" stroke-linejoin="round"/>
    <path d="M 137.59014892578125 42.24406433105469 C 77.44801330566406 139.09519958496094 127.75059509277344 -32.22962188720703 55.06317901611328 136.8138427734375" stroke-width="3.0" fill="none" stroke="rgb(0, 0, 0)" stroke-opacity="1.0" stroke-linecap="round" stroke-linejoin="round"/>
  </g>
</svg>
