<?xml version="1.0" ?>
<svg xmlns="http://www.w3.org/2000/svg" version="1.1" width="224" height="224">
  <defs/>
  <g>
    <path d="M 125.33500671386719 151.03440856933594 C 111.96551513671875 148.3836212158203 145.3861541748047 138.8538360595703 138.7362518310547 141.04568481445312" stroke-width="3.0" fill="none" stroke="rgb(0, 0, 0)" stroke-opacity="1.0" stroke-linecap="round" stroke-linejoin="round"/>
    <path d="M 143.5722198486328 157.2823486328125 C 151.53311157226562 167.94918823242188 157.278076171875 136.88458251953125 156.13241577148438 150.41473388671875" stroke-width="3.0" fill="none" stroke="rgb(0, 0, 0)" stroke-opacity="1.0" stroke-linecap="round" stroke-linejoin="round"/>
    <path d="M 143.53282165527344 131.39080810546875 C 119.9135513305664 149.7715606689453 168.0072784423828 117.96578979492188 136.05029296875 147.30996704101562" stroke-width="3.0" fill="none" stroke="rgb(0, 0, 0)" stroke-opacity="1.0" stroke-linecap="round" stroke-linejoin="round"/>
    <path d="M 112.92181396484375 153.88064575195312 C 147.94627380371094 157.16835021972656 86.9775619506836 173.21334838867188 151.81971740722656 165.43728637695312" stroke-width="3.0" fill="none" stroke="rgb(0, 0, 0)" stroke-opacity="1.0" stroke-linecap="round" stroke-linejoin="round"/>
    <path d="M 143.26219177246094 160.64599609375 C 144.5188751220703 118.70581817626953 109.50447082519531 128.87765502929688 137.5775909423828 142.14666748046875" stroke-width="3.0" fill="none" stroke="rgb(0, 0, 0)" stroke-opacity="1.0" stroke-linecap="round" stroke-linejoin="round"/>
    <path d="M 151.74017333984375 145.84043884277344 C 147.22879028320312 133.56932067871094 123.4139633178711 165.68711853027344 158.07911682128906 150.46412658691406" stroke-width="3.0" fill="none" stroke="rgb(0, 0, 0)" stroke-opacity="1.0" stroke-linecap="round" stroke-linejoin="round"/>
    <path d="M 49.525848388671875 112.7190933227539 C 143.138916015625 193.1378936767578 117.63609313964844 226.26028442382812 119.40580749511719 140.61395263671875" stroke-width="3.0" fill="none" stroke="rgb(0, 0, 0)" stroke-opacity="1.0" stroke-linecap="round" stroke-linejoin="round"/>
    <path d="M 154.29808044433594 159.21327209472656 C 148.93527221679688 194.19888305664062 147.12062072753906 194.43507385253906 153.91151428222656 169.55714416503906" stroke-width="3.0" fill="none" stroke="rgb(0, 0, 0)" stroke-opacity="1.0" stroke-linecap="round" stroke-linejoin="round"/>
    <path d="M 132.61981201171875 188.73941040039062 C 114.55657196044922 133.96397399902344 106.85289764404297 131.38087463378906 123.23760986328125 189.59371948242188" stroke-width="3.0" fill="none" stroke="rgb(0, 0, 0)" stroke-opacity="1.0" stroke-linecap="round" stroke-linejoin="round"/>
    <path d="M 153.86915588378906 141.071044921875 C 127.34039306640625 135.83853149414062 129.10220336914062 126.77877044677734 152.4893798828125 160.6321563720703" stroke-width="3.0" fill="none" stroke="rgb(0, 0, 0)" stroke-opacity="1.0" stroke-linecap="round" stroke-linejoin="round"/>
    <path d="M 124.4561996459961 157.21856689453125 C 101.91897583007812 203.17860412597656 145.9228515625 194.2436981201172 149.49510192871094 188.52149963378906" stroke-width="3.0" fill="none" stroke="rgb(0, 0, 0)" stroke-opacity="1.0" stroke-linecap="round" stroke-linejoin="round"/>
    <path d="M 134.30686950683594 127.44868469238281 C 115.48380279541016 168.26495361328125 146.030517578125 164.63246154785156 125.6702651977539 139.21820068359375" stroke-width="3.0" fill="none" stroke="rgb(0, 0, 0)" stroke-opacity="1.0" stroke-linecap="round" stroke-linejoin="round"/>
    <path d="M 118.899658203125 141.2096710205078 C 156.85311889648438 157.3209228515625 131.6024932861328 163.78651428222656 123.59635925292969 138.5928955078125" stroke-width="3.0" fill="none" stroke="rgb(0, 0, 0)" stroke-opacity="1.0" stroke-linecap="round" stroke-linejoin="round"/>
    <path d="M 149.7397918701172 188.36614990234375 C 148.09376525878906 187.0670928955078 160.6832733154297 200.91917419433594 149.32058715820312 187.36505126953125" stroke-width="3.0" fill="none" stroke="rgb(0, 0, 0)" stroke-opacity="1.0" stroke-linecap="round" stroke-linejoin="round"/>
    <path d="M 106.00466918945312 53.42247009277344 C 120.86477661132812 43.138248443603516 116.24214172363281 49.038570404052734 141.71466064453125 40.847721099853516" stroke-width="3.0" fill="none" stroke="rgb(0, 0, 0)" stroke-opacity="1.0" stroke-linecap="round" stroke-linejoin="round"/>
    <path d="M 117.15939331054688 51.94660568237305 C 89.6176528930664 79.11590576171875 95.79142761230469 36.77509689331055 60.05402374267578 112.28413391113281" stroke-width="3.0" fill="none" stroke="rgb(0, 0, 0)" stroke-opacity="1.0" stroke-linecap="round" stroke-linejoin="round"/>
  </g>
</svg>
