<?xml version="1.0" ?>
<svg xmlns="http://www.w3.org/2000/svg" version="1.1" width="224" height="224">
  <defs/>
  <g>
    <path d="M 132.8125 156.33042907714844 C 120.0004653930664 150.33680725097656 147.56643676757812 143.75665283203125 139.48582458496094 143.01943969726562" stroke-width="3.0" fill="none" stroke="rgb(0, 0, 0)" stroke-opacity="1.0" stroke-linecap="round" stroke-linejoin="round"/>
    <path d="M 145.42295837402344 157.11404418945312 C 150.8240203857422 161.2539520263672 155.32901000976562 130.84803771972656 153.61578369140625 155.32034301757812" stroke-width="3.0" fill="none" stroke="rgb(0, 0, 0)" stroke-opacity="1.0" stroke-linecap="round" stroke-linejoin="round"/>
    <path d="M 144.47885131835938 131.04249572753906 C 120.58118438720703 149.25466918945312 164.3361358642578 117.64888000488281 139.11199951171875 152.00169372558594" stroke-width="3.0" fill="none" stroke="rgb(0, 0, 0)" stroke-opacity="1.0" stroke-linecap="round" stroke-linejoin="round"/>
    <path d="M 115.85671997070312 155.263916015625 C 151.7232208251953 154.68252563476562 90.57892608642578 167.31068420410156 153.83428955078125 162.91395568847656" stroke-width="3.0" fill="none" stroke="rgb(0, 0, 0)" stroke-opacity="1.0" stroke-linecap="round" stroke-linejoin="round"/>
    <path d="M 141.9471435546875 160.2252960205078 C 145.11244201660156 118.71796417236328 119.11653137207031 130.8883056640625 138.37237548828125 145.66058349609375" stroke-width="3.0" fill="none" stroke="rgb(0, 0, 0)" stroke-opacity="1.0" stroke-linecap="round" stroke-linejoin="round"/>
    <path d="M 151.3486328125 144.09796142578125 C 143.71493530273438 138.2502899169922 119.67355346679688 161.8472900390625 157.22903442382812 150.35687255859375" stroke-width="3.0" fill="none" stroke="rgb(0, 0, 0)" stroke-opacity="1.0" stroke-linecap="round" stroke-linejoin="round"/>
    <path d="M 52.101951599121094 112.45677947998047 C 141.58616638183594 189.181640625 118.73577880859375 223.83750915527344 121.247802734375 143.11505126953125" stroke-width="3.0" fill="none" stroke="rgb(0, 0, 0)" stroke-opacity="1.0" stroke-linecap="round" stroke-linejoin="round"/>
    <path d="M 155.83328247070312 159.6265869140625 C 146.8348846435547 189.32716369628906 148.76243591308594 192.07418823242188 152.87648010253906 169.8660888671875" stroke-width="3.0" fill="none" stroke="rgb(0, 0, 0)" stroke-opacity="1.0" stroke-linecap="round" stroke-linejoin="round"/>
    <path d="M 126.0990219116211 187.92681884765625 C 114.09624481201172 141.2381134033203 114.52531433105469 130.92849731445312 126.64684295654297 188.7944793701172" stroke-width="3.0" fill="none" stroke="rgb(0, 0, 0)" stroke-opacity="1.0" stroke-linecap="round" stroke-linejoin="round"/>
    <path d="M 149.32940673828125 138.78570556640625 C 129.4002685546875 138.4402618408203 130.12501525878906 132.20713806152344 154.21505737304688 158.8843994140625" stroke-width="3.0" fill="none" stroke="rgb(0, 0, 0)" stroke-opacity="1.0" stroke-linecap="round" stroke-linejoin="round"/>
    <path d="M 123.37567901611328 157.10446166992188 C 101.94448852539062 197.0138702392578 146.9248809814453 194.9311065673828 147.9784698486328 186.4820556640625" stroke-width="3.0" fill="none" stroke="rgb(0, 0, 0)" stroke-opacity="1.0" stroke-linecap="round" stroke-linejoin="round"/>
    <path d="M 134.2589111328125 127.9318618774414 C 118.40076446533203 165.56752014160156 142.94869995117188 164.5180206298828 123.03032684326172 141.9907684326172" stroke-width="3.0" fill="none" stroke="rgb(0, 0, 0)" stroke-opacity="1.0" stroke-linecap="round" stroke-linejoin="round"/>
    <path d="M 117.8497543334961 142.06044006347656 C 145.39413452148438 166.0489959716797 139.939208984375 161.7212371826172 125.88532257080078 134.24400329589844" stroke-width="3.0" fill="none" stroke="rgb(0, 0, 0)" stroke-opacity="1.0" stroke-linecap="round" stroke-linejoin="round"/>
    <path d="M 152.18472290039062 185.6207733154297 C 149.61862182617188 183.13778686523438 161.7324981689453 201.63894653320312 149.21136474609375 181.44229125976562" stroke-width="3.0" fill="none" stroke="rgb(0, 0, 0)" stroke-opacity="1.0" stroke-linecap="round" stroke-linejoin="round"/>
    <path d="M 107.89929962158203 48.95246505737305 C 120.13162231445312 38.19338607788086 117.30115509033203 44.04348373413086 136.1759490966797 44.8209228515625" stroke-width="3.0" fill="none" stroke="rgb(0, 0, 0)" stroke-opacity="1.0" stroke-linecap="round" stroke-linejoin="round"/>
    <path d="M 111.67044830322266 50.63334655761719 C 89.23403930664062 71.94776153564453 101.89771270751953 39.46990203857422 60.13460922241211 111.2836685180664" stroke-width="3.0" fill="none" stroke="rgb(0, 0, 0)" stroke-opacity="1.0" stroke-linecap="round" stroke-linejoin="round"/>
  </g>
</svg>
