<?xml version="1.0" ?>
<svg xmlns="http://www.w3.org/2000/svg" version="1.1" width="224" height="224">
  <defs/>
  <g>
    <path d="M 129.058349609375 150.04815673828125 C 117.96415710449219 163.96197509765625 145.64988708496094 137.74630737304688 133.78082275390625 140.08740234375" stroke-width="3.0" fill="none" stroke="rgb(0, 0, 0)" stroke-opacity="1.0" stroke-linecap="round" stroke-linejoin="round"/>
    <path d="M 143.97938537597656 154.0029754638672 C 153.468017578125 171.745361328125 158.75091552734375 135.91091918945312 151.251708984375 149.69580078125" stroke-width="3.0" fill="none" stroke="rgb(0, 0, 0)" stroke-opacity="1.0" stroke-linecap="round" stroke-linejoin="round"/>
    <path d="M 145.4111785888672 132.2384796142578 C 126.4621353149414 152.6915283203125 170.25437927246094 113.50189971923828 132.36656188964844 155.98048400878906" stroke-width="3.0" fill="none" stroke="rgb(0, 0, 0)" stroke-opacity="1.0" stroke-linecap="round" stroke-linejoin="round"/>
    <path d="M 112.88439178466797 154.22650146484375 C 148.85813903808594 157.96865844726562 78.2874984741211 166.1728057861328 154.02943420410156 163.116943359375" stroke-width="3.0" fill="none" stroke="rgb(0, 0, 0)" stroke-opacity="1.0" stroke-linecap="round" stroke-linejoin="round"/>
    <path d="M 150.1934051513672 159.91470336914062 C 144.66885375976562 126.10104370117188 109.41606140136719 121.42216491699219 147.8701171875 144.1898651123047" stroke-width="3.0" fill="none" stroke="rgb(0, 0, 0)" stroke-opacity="1.0" stroke-linecap="round" stroke-linejoin="round"/>
    <path d="M 150.78860473632812 152.7619171142578 C 150.64259338378906 136.35882568359375 125.84979248046875 168.68341064453125 156.8331756591797 149.56259155273438" stroke-width="3.0" fill="none" stroke="rgb(0, 0, 0)" stroke-opacity="1.0" stroke-linecap="round" stroke-linejoin="round"/>
    <path d="M 49.31538009643555 121.96772003173828 C 154.55075073242188 188.1306610107422 119.72309112548828 220.0145721435547 119.09767150878906 139.8685760498047" stroke-width="3.0" fill="none" stroke="rgb(0, 0, 0)" stroke-opacity="1.0" stroke-linecap="round" stroke-linejoin="round"/>
    <path d="M 155.7609100341797 161.82977294921875 C 146.50396728515625 208.32626342773438 145.30226135253906 207.33616638183594 150.23936462402344 152.60888671875" stroke-width="3.0" fill="none" stroke="rgb(0, 0, 0)" stroke-opacity="1.0" stroke-linecap="round" stroke-linejoin="round"/>
    <path d="M 121.9820327758789 190.19569396972656 C 117.53793334960938 139.90394592285156 107.88533020019531 138.9219970703125 122.33757019042969 187.31301879882812" stroke-width="3.0" fill="none" stroke="rgb(0, 0, 0)" stroke-opacity="1.0" stroke-linecap="round" stroke-linejoin="round"/>
    <path d="M 151.3737030029297 141.66737365722656 C 126.83057403564453 139.45547485351562 120.6606216430664 134.29823303222656 150.9324951171875 157.6825714111328" stroke-width="3.0" fill="none" stroke="rgb(0, 0, 0)" stroke-opacity="1.0" stroke-linecap="round" stroke-linejoin="round"/>
    <path d="M 118.87672424316406 150.55589294433594 C 104.12036895751953 204.52835083007812 151.51580810546875 194.8404541015625 147.58360290527344 187.45663452148438" stroke-width="3.0" fill="none" stroke="rgb(0, 0, 0)" stroke-opacity="1.0" stroke-linecap="round" stroke-linejoin="round"/>
    <path d="M 136.36856079101562 129.21475219726562 C 106.80810546875 166.4152069091797 139.955810546875 152.93515014648438 127.3684310913086 135.91879272460938" stroke-width="3.0" fill="none" stroke="rgb(0, 0, 0)" stroke-opacity="1.0" stroke-linecap="round" stroke-linejoin="round"/>
    <path d="M 117.97022247314453 143.59112548828125 C 152.49942016601562 155.54855346679688 129.70098876953125 175.7568359375 124.28892517089844 138.60885620117188" stroke-width="3.0" fill="none" stroke="rgb(0, 0, 0)" stroke-opacity="1.0" stroke-linecap="round" stroke-linejoin="round"/>
    <path d="M 151.0116424560547 180.56324768066406 C 148.53152465820312 181.28692626953125 154.96792602539062 202.3900604248047 149.331298828125 182.69650268554688" stroke-width="3.0" fill="none" stroke="rgb(0, 0, 0)" stroke-opacity="1.0" stroke-linecap="round" stroke-linejoin="round"/>
    <path d="M 93.80596923828125 54.082176208496094 C 120.5415267944336 31.969669342041016 107.5417251586914 49.21581268310547 138.81204223632812 37.56187057495117" stroke-width="3.0" fill="none" stroke="rgb(0, 0, 0)" stroke-opacity="1.0" stroke-linecap="round" stroke-linejoin="round"/>
    <path d="M 118.97240447998047 41.6334114074707 C 84.85691833496094 77.85682678222656 107.55389404296875 34.10933303833008 58.08182907104492 112.46672058105469" stroke-width="3.0" fill="none" stroke="rgb(0, 0, 0)" stroke-opacity="1.0" stroke-linecap="round" stroke-linejoin="round"/>
  </g>
</svg>
