<?xml version="1.0" ?>
<svg xmlns="http://www.w3.org/2000/svg" version="1.1" width="224" height="224">
  <defs/>
  <g>
    <path d="M 145.12066650390625 143.79673767089844 C 96.46238708496094 174.6570281982422 163.27415466308594 154.21029663085938 129.26136779785156 163.48309326171875" stroke-width="3.0" fill="none" stroke="rgb(0, 0, 0)" stroke-opacity="1.0" stroke-linecap="round" stroke-linejoin="round"/>
    <path d="M 140.63563537597656 130.01380920410156 C 153.97894287109375 178.39691162109375 169.29586791992188 131.8421630859375 136.97540283203125 157.8202362060547" stroke-width="3.0" fill="none" stroke="rgb(0, 0, 0)" stroke-opacity="1.0" stroke-linecap="round" stroke-linejoin="round"/>
    <path d="M 146.6803741455078 128.77560424804688 C 116.9831314086914 156.48812866210938 174.9080047607422 106.70645904541016 130.99293518066406 160.70091247558594" stroke-width="3.0" fill="none" stroke="rgb(0, 0, 0)" stroke-opacity="1.0" stroke-linecap="round" stroke-linejoin="round"/>
    <path d="M 114.05728149414062 152.59120178222656 C 159.6433868408203 147.4777374267578 83.48250579833984 174.9993133544922 150.48733520507812 173.01023864746094" stroke-width="3.0" fill="none" stroke="rgb(0, 0, 0)" stroke-opacity="1.0" stroke-linecap="round" stroke-linejoin="round"/>
    <path d="M 135.21458435058594 164.081787109375 C 141.38487243652344 132.95870971679688 102.89090728759766 119.8271713256836 137.2270965576172 160.1125946044922" stroke-width="3.0" fill="none" stroke="rgb(0, 0, 0)" stroke-opacity="1.0" stroke-linecap="round" stroke-linejoin="round"/>
    <path d="M 149.27139282226562 156.4785919189453 C 163.4373016357422 143.2037811279297 123.83032989501953 179.87171936035156 153.8586883544922 143.0159454345703" stroke-width="3.0" fill="none" stroke="rgb(0, 0, 0)" stroke-opacity="1.0" stroke-linecap="round" stroke-linejoin="round"/>
    <path d="M 70.01807403564453 176.61480712890625 C 154.8218536376953 181.43495178222656 113.65536499023438 197.71351623535156 121.11647033691406 139.0814666748047" stroke-width="3.0" fill="none" stroke="rgb(0, 0, 0)" stroke-opacity="1.0" stroke-linecap="round" stroke-linejoin="round"/>
    <path d="M 151.5411834716797 141.35296630859375 C 156.01528930664062 189.18524169921875 136.7552947998047 202.55897521972656 154.4250946044922 165.32257080078125" stroke-width="3.0" fill="none" stroke="rgb(0, 0, 0)" stroke-opacity="1.0" stroke-linecap="round" stroke-linejoin="round"/>
    <path d="M 122.12728118896484 175.96539306640625 C 116.32653045654297 147.67205810546875 121.94115447998047 134.4766387939453 122.0508041381836 181.92617797851562" stroke-width="3.0" fill="none" stroke="rgb(0, 0, 0)" stroke-opacity="1.0" stroke-linecap="round" stroke-linejoin="round"/>
    <path d="M 151.3422393798828 136.5554656982422 C 109.46395111083984 146.42800903320312 103.10310363769531 169.06710815429688 149.44146728515625 161.04360961914062" stroke-width="3.0" fill="none" stroke="rgb(0, 0, 0)" stroke-opacity="1.0" stroke-linecap="round" stroke-linejoin="round"/>
    <path d="M 129.36553955078125 141.76307678222656 C 100.07428741455078 204.72840881347656 149.1273193359375 183.21945190429688 145.49595642089844 188.38665771484375" stroke-width="3.0" fill="none" stroke="rgb(0, 0, 0)" stroke-opacity="1.0" stroke-linecap="round" stroke-linejoin="round"/>
    <path d="M 137.24188232421875 130.83621215820312 C 81.9156265258789 168.0595703125 152.9294891357422 167.85899353027344 132.46119689941406 128.02337646484375" stroke-width="3.0" fill="none" stroke="rgb(0, 0, 0)" stroke-opacity="1.0" stroke-linecap="round" stroke-linejoin="round"/>
    <path d="M 116.77989196777344 145.24615478515625 C 155.90440368652344 166.2595977783203 163.94276428222656 168.8251953125 125.99623107910156 131.7047882080078" stroke-width="3.0" fill="none" stroke="rgb(0, 0, 0)" stroke-opacity="1.0" stroke-linecap="round" stroke-linejoin="round"/>
    <path d="M 155.13116455078125 162.4927520751953 C 143.88197326660156 191.50051879882812 149.1649932861328 173.5922088623047 149.64036560058594 176.8231658935547" stroke-width="3.0" fill="none" stroke="rgb(0, 0, 0)" stroke-opacity="1.0" stroke-linecap="round" stroke-linejoin="round"/>
    <path d="M 94.47455596923828 60.34010314941406 C 93.21649932861328 42.35572814941406 115.42851257324219 25.04907989501953 140.05006408691406 37.844703674316406" stroke-width="3.0" fill="none" stroke="rgb(0, 0, 0)" stroke-opacity="1.0" stroke-linecap="round" stroke-linejoin="round"/>
    <path d="M 139.208984375 37.53697204589844 C 75.72348022460938 142.78842163085938 124.35897827148438 -30.673830032348633 54.739967346191406 139.57598876953125" stroke-width="3.0" fill="none" stroke="rgb(0, 0, 0)" stroke-opacity="1.0" stroke-linecap="round" stroke-linejoin="round"/>
  </g>
</svg>
