<?xml version="1.0" ?>
<svg xmlns="http://www.w3.org/2000/svg" version="1.1" width="224" height="224">
  <defs/>
  <g>
    <path d="M 149.4562225341797 141.6848602294922 C 101.75859069824219 170.08624267578125 175.68515014648438 160.010986328125 123.7819595336914 155.64785766601562" stroke-width="3.0" fill="none" stroke="rgb(0, 0, 0)" stroke-opacity="1.0" stroke-linecap="round" stroke-linejoin="round"/>
    <path d="M 139.78135681152344 134.37901306152344 C 160.8402557373047 178.36614990234375 169.1949462890625 135.7288360595703 138.2743377685547 159.4217071533203" stroke-width="3.0" fill="none" stroke="rgb(0, 0, 0)" stroke-opacity="1.0" stroke-linecap="round" stroke-linejoin="round"/>
    <path d="M 146.0121307373047 132.2190399169922 C 117.5322265625 160.6616973876953 175.49014282226562 105.34712982177734 133.12850952148438 160.97506713867188" stroke-width="3.0" fill="none" stroke="rgb(0, 0, 0)" stroke-opacity="1.0" stroke-linecap="round" stroke-linejoin="round"/>
    <path d="M 115.69112396240234 151.43165588378906 C 155.61892700195312 148.87014770507812 82.05180358886719 175.09146118164062 150.49488830566406 172.13372802734375" stroke-width="3.0" fill="none" stroke="rgb(0, 0, 0)" stroke-opacity="1.0" stroke-linecap="round" stroke-linejoin="round"/>
    <path d="M 135.13162231445312 161.2686767578125 C 136.98524475097656 137.57589721679688 108.55448913574219 117.06201171875 133.63262939453125 162.7179412841797" stroke-width="3.0" fill="none" stroke="rgb(0, 0, 0)" stroke-opacity="1.0" stroke-linecap="round" stroke-linejoin="round"/>
    <path d="M 141.1038055419922 158.79393005371094 C 174.24827575683594 152.48097229003906 128.8021697998047 175.086669921875 154.50909423828125 147.0325927734375" stroke-width="3.0" fill="none" stroke="rgb(0, 0, 0)" stroke-opacity="1.0" stroke-linecap="round" stroke-linejoin="round"/>
    <path d="M 65.50892639160156 173.6804962158203 C 152.74502563476562 183.74537658691406 114.73946380615234 198.4876251220703 121.02530670166016 138.51255798339844" stroke-width="3.0" fill="none" stroke="rgb(0, 0, 0)" stroke-opacity="1.0" stroke-linecap="round" stroke-linejoin="round"/>
    <path d="M 150.30682373046875 143.84523010253906 C 153.9500274658203 182.54510498046875 139.38450622558594 203.84658813476562 153.68246459960938 168.24508666992188" stroke-width="3.0" fill="none" stroke="rgb(0, 0, 0)" stroke-opacity="1.0" stroke-linecap="round" stroke-linejoin="round"/>
    <path d="M 121.1524658203125 176.34226989746094 C 119.53268432617188 148.19448852539062 121.0186996459961 131.92124938964844 121.60934448242188 176.50442504882812" stroke-width="3.0" fill="none" stroke="rgb(0, 0, 0)" stroke-opacity="1.0" stroke-linecap="round" stroke-linejoin="round"/>
    <path d="M 150.92385864257812 137.7562255859375 C 109.22212982177734 145.4503173828125 103.40605926513672 170.4537353515625 152.0352325439453 160.57875061035156" stroke-width="3.0" fill="none" stroke="rgb(0, 0, 0)" stroke-opacity="1.0" stroke-linecap="round" stroke-linejoin="round"/>
    <path d="M 130.313232421875 135.77903747558594 C 103.1347427368164 204.45648193359375 144.0287322998047 186.78817749023438 148.3006591796875 185.86895751953125" stroke-width="3.0" fill="none" stroke="rgb(0, 0, 0)" stroke-opacity="1.0" stroke-linecap="round" stroke-linejoin="round"/>
    <path d="M 139.50833129882812 130.95822143554688 C 76.62054443359375 165.34437561035156 154.93197631835938 161.8019561767578 134.04652404785156 130.05636596679688" stroke-width="3.0" fill="none" stroke="rgb(0, 0, 0)" stroke-opacity="1.0" stroke-linecap="round" stroke-linejoin="round"/>
    <path d="M 116.46556854248047 143.80316162109375 C 163.019287109375 161.28578186035156 166.8925323486328 170.8238067626953 124.74042510986328 131.5398406982422" stroke-width="3.0" fill="none" stroke="rgb(0, 0, 0)" stroke-opacity="1.0" stroke-linecap="round" stroke-linejoin="round"/>
    <path d="M 151.61325073242188 172.97744750976562 C 144.44007873535156 187.78887939453125 153.29861450195312 175.2128143310547 150.16140747070312 177.81427001953125" stroke-width="3.0" fill="none" stroke="rgb(0, 0, 0)" stroke-opacity="1.0" stroke-linecap="round" stroke-linejoin="round"/>
    <path d="M 96.38921356201172 58.6762580871582 C 90.27323150634766 53.732975006103516 113.95586395263672 18.879230499267578 138.26438903808594 37.02431869506836" stroke-width="3.0" fill="none" stroke="rgb(0, 0, 0)" stroke-opacity="1.0" stroke-linecap="round" stroke-linejoin="round"/>
    <path d="M 132.26808166503906 36.774993896484375 C 77.8720932006836 136.4951171875 123.91455841064453 -30.472639083862305 54.22981262207031 140.52308654785156" stroke-width="3.0" fill="none" stroke="rgb(0, 0, 0)" stroke-opacity="1.0" stroke-linecap="round" stroke-linejoin="round"/>
  </g>
</svg>
