<?xml version="1.0" ?>
<svg xmlns="http://www.w3.org/2000/svg" version="1.1" width="224" height="224">
  <defs/>
  <g>
    <path d="M 144.2303009033203 130.37127685546875 C 116.64922332763672 178.8811492919922 154.86570739746094 141.99745178222656 126.61909484863281 153.80055236816406" stroke-width="3.0" fill="none" stroke="rgb(0, 0, 0)" stroke-opacity="1.0" stroke-linecap="round" stroke-linejoin="round"/>
    <path d="M 139.9506072998047 128.7581024169922 C 155.91258239746094 168.58848571777344 165.71038818359375 124.60530853271484 149.1171417236328 161.57647705078125" stroke-width="3.0" fill="none" stroke="rgb(0, 0, 0)" stroke-opacity="1.0" stroke-linecap="round" stroke-linejoin="round"/>
    <path d="M 149.0602569580078 133.931640625 C 118.35631561279297 156.98069763183594 176.45291137695312 112.40544891357422 136.95095825195312 161.6777801513672" stroke-width="3.0" fill="none" stroke="rgb(0, 0, 0)" stroke-opacity="1.0" stroke-linecap="round" stroke-linejoin="round"/>
    <path d="M 114.86758422851562 146.98410034179688 C 163.83316040039062 147.90652465820312 85.30632019042969 170.3738250732422 150.59327697753906 168.864990234375" stroke-width="3.0" fill="none" stroke="rgb(0, 0, 0)" stroke-opacity="1.0" stroke-linecap="round" stroke-linejoin="round"/>
    <path d="M 149.34066772460938 160.80990600585938 C 145.9315643310547 129.39089965820312 113.8520278930664 123.67365264892578 140.9351043701172 155.34249877929688" stroke-width="3.0" fill="none" stroke="rgb(0, 0, 0)" stroke-opacity="1.0" stroke-linecap="round" stroke-linejoin="round"/>
    <path d="M 151.76075744628906 153.98526000976562 C 156.53097534179688 137.59706115722656 126.6561050415039 176.72161865234375 158.5345916748047 150.2839813232422" stroke-width="3.0" fill="none" stroke="rgb(0, 0, 0)" stroke-opacity="1.0" stroke-linecap="round" stroke-linejoin="round"/>
    <path d="M 67.8741455078125 177.0988311767578 C 154.66424560546875 170.66783142089844 108.90309143066406 196.77198791503906 128.93829345703125 139.24862670898438" stroke-width="3.0" fill="none" stroke="rgb(0, 0, 0)" stroke-opacity="1.0" stroke-linecap="round" stroke-linejoin="round"/>
    <path d="M 154.1801300048828 143.38168334960938 C 153.23326110839844 201.81991577148438 135.8763885498047 194.81346130371094 155.82765197753906 159.99217224121094" stroke-width="3.0" fill="none" stroke="rgb(0, 0, 0)" stroke-opacity="1.0" stroke-linecap="round" stroke-linejoin="round"/>
    <path d="M 123.81058502197266 184.14114379882812 C 119.77560424804688 132.35032653808594 120.85494232177734 130.93544006347656 128.48245239257812 184.40785217285156" stroke-width="3.0" fill="none" stroke="rgb(0, 0, 0)" stroke-opacity="1.0" stroke-linecap="round" stroke-linejoin="round"/>
    <path d="M 144.33140563964844 135.4738006591797 C 111.75112915039062 143.5031280517578 108.15135192871094 161.66543579101562 152.02516174316406 162.01974487304688" stroke-width="3.0" fill="none" stroke="rgb(0, 0, 0)" stroke-opacity="1.0" stroke-linecap="round" stroke-linejoin="round"/>
    <path d="M 132.34397888183594 146.07078552246094 C 98.79349517822266 202.74925231933594 151.1414031982422 185.35394287109375 147.12791442871094 186.3417205810547" stroke-width="3.0" fill="none" stroke="rgb(0, 0, 0)" stroke-opacity="1.0" stroke-linecap="round" stroke-linejoin="round"/>
    <path d="M 130.6898651123047 131.63160705566406 C 88.80571746826172 168.6634063720703 154.44049072265625 174.8321075439453 138.14743041992188 132.80409240722656" stroke-width="3.0" fill="none" stroke="rgb(0, 0, 0)" stroke-opacity="1.0" stroke-linecap="round" stroke-linejoin="round"/>
    <path d="M 121.97493743896484 139.59072875976562 C 160.2178192138672 151.44581604003906 156.19383239746094 167.79629516601562 124.30768585205078 133.93463134765625" stroke-width="3.0" fill="none" stroke="rgb(0, 0, 0)" stroke-opacity="1.0" stroke-linecap="round" stroke-linejoin="round"/>
    <path d="M 150.29698181152344 173.73916625976562 C 144.96246337890625 189.3106689453125 154.5712890625 190.09515380859375 151.9131317138672 172.07891845703125" stroke-width="3.0" fill="none" stroke="rgb(0, 0, 0)" stroke-opacity="1.0" stroke-linecap="round" stroke-linejoin="round"/>
    <path d="M 93.91797637939453 57.34526443481445 C 100.27637481689453 26.758663177490234 124.91864013671875 31.53293228149414 133.90676879882812 36.30827713012695" stroke-width="3.0" fill="none" stroke="rgb(0, 0, 0)" stroke-opacity="1.0" stroke-linecap="round" stroke-linejoin="round"/>
    <path d="M 137.4838104248047 38.139495849609375 C 76.59480285644531 137.23214721679688 127.4067153930664 -24.663326263427734 53.176658630371094 132.92385864257812" stroke-width="3.0" fill="none" stroke="rgb(0, 0, 0)" stroke-opacity="1.0" stroke-linecap="round" stroke-linejoin="round"/>
  </g>
</svg>
