<?xml version="1.0" ?>
<svg xmlns="http://www.w3.org/2000/svg" version="1.1" width="224" height="224">
  <defs/>
  <g>
    <path d="M 143.0078887939453 140.67002868652344 C 95.27276611328125 175.39675903320312 160.1197967529297 150.18899536132812 126.48342895507812 164.5650177001953" stroke-width="3.0" fill="none" stroke="rgb(0, 0, 0)" stroke-opacity="1.0" stroke-linecap="round" stroke-linejoin="round"/>
    <path d="M 139.9669647216797 134.5863037109375 C 158.89369201660156 174.71624755859375 170.65023803710938 138.92697143554688 133.64065551757812 155.56271362304688" stroke-width="3.0" fill="none" stroke="rgb(0, 0, 0)" stroke-opacity="1.0" stroke-linecap="round" stroke-linejoin="round"/>
    <path d="M 145.65525817871094 130.1142120361328 C 121.3014144897461 157.03021240234375 175.89154052734375 105.97348022460938 131.06883239746094 159.91322326660156" stroke-width="3.0" fill="none" stroke="rgb(0, 0, 0)" stroke-opacity="1.0" stroke-linecap="round" stroke-linejoin="round"/>
    <path d="M 114.64139556884766 151.2322540283203 C 159.90460205078125 150.3816375732422 86.78146362304688 172.98989868164062 148.71206665039062 173.66546630859375" stroke-width="3.0" fill="none" stroke="rgb(0, 0, 0)" stroke-opacity="1.0" stroke-linecap="round" stroke-linejoin="round"/>
    <path d="M 140.86856079101562 161.97476196289062 C 146.61155700683594 133.0201416015625 103.35862731933594 123.72753143310547 139.3187713623047 158.76414489746094" stroke-width="3.0" fill="none" stroke="rgb(0, 0, 0)" stroke-opacity="1.0" stroke-linecap="round" stroke-linejoin="round"/>
    <path d="M 152.07003784179688 155.21994018554688 C 161.71072387695312 140.4552459716797 126.95433044433594 181.3786163330078 154.00877380371094 145.89944458007812" stroke-width="3.0" fill="none" stroke="rgb(0, 0, 0)" stroke-opacity="1.0" stroke-linecap="round" stroke-linejoin="round"/>
    <path d="M 67.51080322265625 180.0480499267578 C 158.3907470703125 178.41336059570312 110.53724670410156 194.25550842285156 121.60047149658203 137.50279235839844" stroke-width="3.0" fill="none" stroke="rgb(0, 0, 0)" stroke-opacity="1.0" stroke-linecap="round" stroke-linejoin="round"/>
    <path d="M 148.9501495361328 141.37161254882812 C 155.5578155517578 188.125244140625 142.27598571777344 200.94375610351562 154.5402069091797 160.3558807373047" stroke-width="3.0" fill="none" stroke="rgb(0, 0, 0)" stroke-opacity="1.0" stroke-linecap="round" stroke-linejoin="round"/>
    <path d="M 125.20196533203125 177.36187744140625 C 117.17332458496094 148.38818359375 122.05870056152344 136.3560333251953 122.74813842773438 182.28225708007812" stroke-width="3.0" fill="none" stroke="rgb(0, 0, 0)" stroke-opacity="1.0" stroke-linecap="round" stroke-linejoin="round"/>
    <path d="M 150.18316650390625 136.319091796875 C 112.0478286743164 152.20677185058594 102.15113830566406 168.90213012695312 150.84291076660156 163.22267150878906" stroke-width="3.0" fill="none" stroke="rgb(0, 0, 0)" stroke-opacity="1.0" stroke-linecap="round" stroke-linejoin="round"/>
    <path d="M 128.5404815673828 142.49276733398438 C 103.83775329589844 209.1205596923828 149.50833129882812 183.98699951171875 149.49574279785156 186.55438232421875" stroke-width="3.0" fill="none" stroke="rgb(0, 0, 0)" stroke-opacity="1.0" stroke-linecap="round" stroke-linejoin="round"/>
    <path d="M 137.92079162597656 130.4989013671875 C 82.92037200927734 166.3673553466797 149.0527801513672 165.2323760986328 133.46640014648438 129.37413024902344" stroke-width="3.0" fill="none" stroke="rgb(0, 0, 0)" stroke-opacity="1.0" stroke-linecap="round" stroke-linejoin="round"/>
    <path d="M 118.89769744873047 142.55206298828125 C 153.81277465820312 164.02171325683594 160.84786987304688 167.52040100097656 124.33348846435547 134.68418884277344" stroke-width="3.0" fill="none" stroke="rgb(0, 0, 0)" stroke-opacity="1.0" stroke-linecap="round" stroke-linejoin="round"/>
    <path d="M 153.56529235839844 165.90000915527344 C 143.20721435546875 195.40240478515625 147.2835693359375 181.29197692871094 150.77842712402344 176.5376739501953" stroke-width="3.0" fill="none" stroke="rgb(0, 0, 0)" stroke-opacity="1.0" stroke-linecap="round" stroke-linejoin="round"/>
    <path d="M 94.38446807861328 63.954200744628906 C 93.922119140625 38.351566314697266 118.83116912841797 26.31578826904297 136.2816925048828 36.27608108520508" stroke-width="3.0" fill="none" stroke="rgb(0, 0, 0)" stroke-opacity="1.0" stroke-linecap="round" stroke-linejoin="round"/>
    <path d="M 137.28501892089844 37.050025939941406 C 80.97592163085938 142.59193420410156 125.8603744506836 -28.50760269165039 54.54808807373047 136.93365478515625" stroke-width="3.0" fill="none" stroke="rgb(0, 0, 0)" stroke-opacity="1.0" stroke-linecap="round" stroke-linejoin="round"/>
  </g>
</svg>
