<?xml version="1.0" ?>
<svg xmlns="http://www.w3.org/2000/svg" version="1.1" width="224" height="224">
  <defs/>
  <g>
    <path d="M 147.96165466308594 143.14332580566406 C 101.5633316040039 169.7095184326172 174.5464324951172 161.90438842773438 123.02317810058594 157.19049072265625" stroke-width="3.0" fill="none" stroke="rgb(0, 0, 0)" stroke-opacity="1.0" stroke-linecap="round" stroke-linejoin="round"/>
    <path d="M 139.78030395507812 133.2171173095703 C 160.94825744628906 175.74574279785156 169.08766174316406 133.6155548095703 140.5300750732422 156.5167694091797" stroke-width="3.0" fill="none" stroke="rgb(0, 0, 0)" stroke-opacity="1.0" stroke-linecap="round" stroke-linejoin="round"/>
    <path d="M 145.90280151367188 130.3946075439453 C 116.2113265991211 160.18836975097656 174.95208740234375 105.67919158935547 132.70449829101562 160.91433715820312" stroke-width="3.0" fill="none" stroke="rgb(0, 0, 0)" stroke-opacity="1.0" stroke-linecap="round" stroke-linejoin="round"/>
    <path d="M 114.99801635742188 151.85829162597656 C 157.31781005859375 151.12843322753906 82.63107299804688 176.04832458496094 150.1888885498047 173.12948608398438" stroke-width="3.0" fill="none" stroke="rgb(0, 0, 0)" stroke-opacity="1.0" stroke-linecap="round" stroke-linejoin="round"/>
    <path d="M 134.5204620361328 160.88352966308594 C 137.506591796875 136.23919677734375 109.00450897216797 115.97606658935547 132.38296508789062 162.97474670410156" stroke-width="3.0" fill="none" stroke="rgb(0, 0, 0)" stroke-opacity="1.0" stroke-linecap="round" stroke-linejoin="round"/>
    <path d="M 142.670166015625 157.15042114257812 C 174.80503845214844 151.71839904785156 129.7246551513672 174.1554412841797 156.13880920410156 146.83287048339844" stroke-width="3.0" fill="none" stroke="rgb(0, 0, 0)" stroke-opacity="1.0" stroke-linecap="round" stroke-linejoin="round"/>
    <path d="M 69.9292221069336 174.6080780029297 C 152.87530517578125 181.01712036132812 113.40583038330078 196.897216796875 121.2137451171875 140.8024444580078" stroke-width="3.0" fill="none" stroke="rgb(0, 0, 0)" stroke-opacity="1.0" stroke-linecap="round" stroke-linejoin="round"/>
    <path d="M 151.89784240722656 144.0471649169922 C 156.79580688476562 183.4052276611328 138.62042236328125 202.61221313476562 153.66310119628906 169.07286071777344" stroke-width="3.0" fill="none" stroke="rgb(0, 0, 0)" stroke-opacity="1.0" stroke-linecap="round" stroke-linejoin="round"/>
    <path d="M 123.0013656616211 176.426025390625 C 121.1507339477539 147.73655700683594 121.05110931396484 131.9176788330078 120.72409057617188 176.9829559326172" stroke-width="3.0" fill="none" stroke="rgb(0, 0, 0)" stroke-opacity="1.0" stroke-linecap="round" stroke-linejoin="round"/>
    <path d="M 150.71868896484375 137.58755493164062 C 109.1323471069336 147.4766082763672 102.41336059570312 172.9250030517578 150.96633911132812 161.52500915527344" stroke-width="3.0" fill="none" stroke="rgb(0, 0, 0)" stroke-opacity="1.0" stroke-linecap="round" stroke-linejoin="round"/>
    <path d="M 129.953369140625 136.02870178222656 C 101.66415405273438 204.5050048828125 142.83953857421875 186.52365112304688 149.92630004882812 185.74143981933594" stroke-width="3.0" fill="none" stroke="rgb(0, 0, 0)" stroke-opacity="1.0" stroke-linecap="round" stroke-linejoin="round"/>
    <path d="M 139.5694580078125 131.12205505371094 C 77.61672973632812 166.30209350585938 155.62547302246094 162.16131591796875 134.3877716064453 128.772705078125" stroke-width="3.0" fill="none" stroke="rgb(0, 0, 0)" stroke-opacity="1.0" stroke-linecap="round" stroke-linejoin="round"/>
    <path d="M 117.85091400146484 143.1387176513672 C 164.1653289794922 159.23704528808594 167.19947814941406 169.7509307861328 127.56729125976562 132.26828002929688" stroke-width="3.0" fill="none" stroke="rgb(0, 0, 0)" stroke-opacity="1.0" stroke-linecap="round" stroke-linejoin="round"/>
    <path d="M 152.1512451171875 173.46612548828125 C 143.8822021484375 187.06565856933594 152.921875 174.66842651367188 150.18008422851562 177.7969970703125" stroke-width="3.0" fill="none" stroke="rgb(0, 0, 0)" stroke-opacity="1.0" stroke-linecap="round" stroke-linejoin="round"/>
    <path d="M 96.73914337158203 58.06735610961914 C 90.48397827148438 53.007015228271484 114.16899108886719 18.692720413208008 140.30421447753906 38.9749870300293" stroke-width="3.0" fill="none" stroke="rgb(0, 0, 0)" stroke-opacity="1.0" stroke-linecap="round" stroke-linejoin="round"/>
    <path d="M 134.50270080566406 39.070045471191406 C 76.88137817382812 137.6857147216797 125.27304077148438 -28.688467025756836 54.75526428222656 139.46937561035156" stroke-width="3.0" fill="none" stroke="rgb(0, 0, 0)" stroke-opacity="1.0" stroke-linecap="round" stroke-linejoin="round"/>
  </g>
</svg>
