<?xml version="1.0" ?>
<svg xmlns="http://www.w3.org/2000/svg" version="1.1" width="224" height="224">
  <defs/>
  <g>
    <path d="M 143.06497192382812 140.2968292236328 C 94.76834869384766 174.34803771972656 159.35379028320312 148.38754272460938 126.19277954101562 163.10472106933594" stroke-width="3.0" fill="none" stroke="rgb(0, 0, 0)" stroke-opacity="1.0" stroke-linecap="round" stroke-linejoin="round"/>
    <path d="M 139.773681640625 133.83990478515625 C 159.08949279785156 173.53128051757812 170.27337646484375 136.90093994140625 133.16384887695312 151.17916870117188" stroke-width="3.0" fill="none" stroke="rgb(0, 0, 0)" stroke-opacity="1.0" stroke-linecap="round" stroke-linejoin="round"/>
    <path d="M 144.282470703125 130.9126434326172 C 119.15076446533203 156.89540100097656 174.13282775878906 105.97515106201172 130.3169403076172 159.6416473388672" stroke-width="3.0" fill="none" stroke="rgb(0, 0, 0)" stroke-opacity="1.0" stroke-linecap="round" stroke-linejoin="round"/>
    <path d="M 113.96882629394531 150.60911560058594 C 160.8504180908203 151.2462615966797 84.97173309326172 171.99957275390625 145.64295959472656 173.95684814453125" stroke-width="3.0" fill="none" stroke="rgb(0, 0, 0)" stroke-opacity="1.0" stroke-linecap="round" stroke-linejoin="round"/>
    <path d="M 139.34971618652344 163.82974243164062 C 145.93373107910156 132.668701171875 103.12787628173828 124.79354858398438 140.06649780273438 158.51844787597656" stroke-width="3.0" fill="none" stroke="rgb(0, 0, 0)" stroke-opacity="1.0" stroke-linecap="round" stroke-linejoin="round"/>
    <path d="M 153.9109344482422 156.7029571533203 C 160.2895965576172 139.3993682861328 127.04658508300781 181.31634521484375 155.29444885253906 146.35055541992188" stroke-width="3.0" fill="none" stroke="rgb(0, 0, 0)" stroke-opacity="1.0" stroke-linecap="round" stroke-linejoin="round"/>
    <path d="M 68.1201171875 181.82684326171875 C 162.1597900390625 177.14234924316406 111.8326416015625 191.210205078125 121.43666076660156 138.06195068359375" stroke-width="3.0" fill="none" stroke="rgb(0, 0, 0)" stroke-opacity="1.0" stroke-linecap="round" stroke-linejoin="round"/>
    <path d="M 148.35528564453125 140.38845825195312 C 156.40676879882812 189.3641815185547 143.0992431640625 200.62359619140625 154.36289978027344 161.13307189941406" stroke-width="3.0" fill="none" stroke="rgb(0, 0, 0)" stroke-opacity="1.0" stroke-linecap="round" stroke-linejoin="round"/>
    <path d="M 125.25830078125 177.7209930419922 C 117.92648315429688 148.57408142089844 124.90699005126953 136.36744689941406 123.02584838867188 183.23541259765625" stroke-width="3.0" fill="none" stroke="rgb(0, 0, 0)" stroke-opacity="1.0" stroke-linecap="round" stroke-linejoin="round"/>
    <path d="M 148.73497009277344 135.3368682861328 C 110.35722351074219 152.7816925048828 99.73930358886719 168.6641387939453 150.0179901123047 162.14495849609375" stroke-width="3.0" fill="none" stroke="rgb(0, 0, 0)" stroke-opacity="1.0" stroke-linecap="round" stroke-linejoin="round"/>
    <path d="M 128.7572021484375 144.30845642089844 C 106.31350708007812 209.0702667236328 151.45156860351562 184.4722442626953 150.13314819335938 185.48377990722656" stroke-width="3.0" fill="none" stroke="rgb(0, 0, 0)" stroke-opacity="1.0" stroke-linecap="round" stroke-linejoin="round"/>
    <path d="M 137.79937744140625 132.47586059570312 C 84.28153991699219 163.3248291015625 149.9712371826172 163.25772094726562 132.95741271972656 130.35403442382812" stroke-width="3.0" fill="none" stroke="rgb(0, 0, 0)" stroke-opacity="1.0" stroke-linecap="round" stroke-linejoin="round"/>
    <path d="M 117.64860534667969 142.86207580566406 C 153.5007781982422 162.42445373535156 156.9258575439453 169.2535858154297 125.46510314941406 131.2460479736328" stroke-width="3.0" fill="none" stroke="rgb(0, 0, 0)" stroke-opacity="1.0" stroke-linecap="round" stroke-linejoin="round"/>
    <path d="M 149.93551635742188 166.82833862304688 C 145.10440063476562 196.0968017578125 148.2273406982422 181.47067260742188 150.7784423828125 176.04916381835938" stroke-width="3.0" fill="none" stroke="rgb(0, 0, 0)" stroke-opacity="1.0" stroke-linecap="round" stroke-linejoin="round"/>
    <path d="M 93.51119995117188 64.4205551147461 C 95.50817108154297 38.27724075317383 120.06376647949219 26.84855079650879 136.31297302246094 36.28914260864258" stroke-width="3.0" fill="none" stroke="rgb(0, 0, 0)" stroke-opacity="1.0" stroke-linecap="round" stroke-linejoin="round"/>
    <path d="M 137.03607177734375 35.48223876953125 C 81.98268127441406 143.07638549804688 126.06389617919922 -27.998981475830078 55.57597351074219 139.31224060058594" stroke-width="3.0" fill="none" stroke="rgb(0, 0, 0)" stroke-opacity="1.0" stroke-linecap="round" stroke-linejoin="round"/>
  </g>
</svg>
