<?xml version="1.0" ?>
<svg xmlns="http://www.w3.org/2000/svg" version="1.1" width="224" height="224">
  <defs/>
  <g>
    <path d="M 144.1532440185547 136.68385314941406 C 118.14131927490234 172.3530731201172 154.59814453125 140.75904846191406 125.64810180664062 147.34515380859375" stroke-width="3.0" fill="none" stroke="rgb(0, 0, 0)" stroke-opacity="1.0" stroke-linecap="round" stroke-linejoin="round"/>
    <path d="M 140.89764404296875 130.34512329101562 C 150.11654663085938 176.55897521972656 166.13316345214844 133.58255004882812 149.6208953857422 162.81459045410156" stroke-width="3.0" fill="none" stroke="rgb(0, 0, 0)" stroke-opacity="1.0" stroke-linecap="round" stroke-linejoin="round"/>
    <path d="M 148.57296752929688 136.05862426757812 C 120.55585479736328 158.0519561767578 175.78643798828125 116.7703857421875 135.4189453125 158.62841796875" stroke-width="3.0" fill="none" stroke="rgb(0, 0, 0)" stroke-opacity="1.0" stroke-linecap="round" stroke-linejoin="round"/>
    <path d="M 118.32817077636719 152.7377166748047 C 167.2725830078125 158.46278381347656 90.7603530883789 171.03770446777344 151.0652313232422 168.57730102539062" stroke-width="3.0" fill="none" stroke="rgb(0, 0, 0)" stroke-opacity="1.0" stroke-linecap="round" stroke-linejoin="round"/>
    <path d="M 149.79006958007812 162.54737854003906 C 137.557861328125 128.71412658691406 101.61058807373047 121.71990966796875 149.10452270507812 149.88270568847656" stroke-width="3.0" fill="none" stroke="rgb(0, 0, 0)" stroke-opacity="1.0" stroke-linecap="round" stroke-linejoin="round"/>
    <path d="M 158.76385498046875 153.21775817871094 C 150.56436157226562 136.96725463867188 125.12146759033203 170.50450134277344 156.58795166015625 153.3662109375" stroke-width="3.0" fill="none" stroke="rgb(0, 0, 0)" stroke-opacity="1.0" stroke-linecap="round" stroke-linejoin="round"/>
    <path d="M 61.14238739013672 177.1133270263672 C 156.99057006835938 171.4544677734375 110.4403305053711 191.6999969482422 126.6966552734375 149.69708251953125" stroke-width="3.0" fill="none" stroke="rgb(0, 0, 0)" stroke-opacity="1.0" stroke-linecap="round" stroke-linejoin="round"/>
    <path d="M 153.2912139892578 144.7268524169922 C 151.42445373535156 204.082275390625 142.73829650878906 196.6689910888672 157.46636962890625 151.0989532470703" stroke-width="3.0" fill="none" stroke="rgb(0, 0, 0)" stroke-opacity="1.0" stroke-linecap="round" stroke-linejoin="round"/>
    <path d="M 125.27220916748047 183.9003143310547 C 120.91636657714844 132.1717529296875 117.98698425292969 133.14385986328125 125.94465637207031 185.2423553466797" stroke-width="3.0" fill="none" stroke="rgb(0, 0, 0)" stroke-opacity="1.0" stroke-linecap="round" stroke-linejoin="round"/>
    <path d="M 147.97361755371094 132.2539825439453 C 113.21127319335938 151.03536987304688 105.98039245605469 153.7515411376953 152.69912719726562 163.34849548339844" stroke-width="3.0" fill="none" stroke="rgb(0, 0, 0)" stroke-opacity="1.0" stroke-linecap="round" stroke-linejoin="round"/>
    <path d="M 130.22482299804688 149.9593963623047 C 105.44133758544922 203.36602783203125 153.52423095703125 186.73890686035156 149.3319091796875 185.11619567871094" stroke-width="3.0" fill="none" stroke="rgb(0, 0, 0)" stroke-opacity="1.0" stroke-linecap="round" stroke-linejoin="round"/>
    <path d="M 132.00132751464844 131.70547485351562 C 94.95305633544922 171.2115936279297 141.2493438720703 162.35008239746094 138.03082275390625 134.88182067871094" stroke-width="3.0" fill="none" stroke="rgb(0, 0, 0)" stroke-opacity="1.0" stroke-linecap="round" stroke-linejoin="round"/>
    <path d="M 116.82618713378906 146.26870727539062 C 154.8959503173828 154.20880126953125 151.70358276367188 170.39535522460938 123.70386505126953 136.81845092773438" stroke-width="3.0" fill="none" stroke="rgb(0, 0, 0)" stroke-opacity="1.0" stroke-linecap="round" stroke-linejoin="round"/>
    <path d="M 151.6876220703125 174.4272003173828 C 144.03439331054688 187.56002807617188 149.50045776367188 187.98997497558594 152.0900115966797 172.75755310058594" stroke-width="3.0" fill="none" stroke="rgb(0, 0, 0)" stroke-opacity="1.0" stroke-linecap="round" stroke-linejoin="round"/>
    <path d="M 94.52401733398438 67.22130584716797 C 102.87549591064453 25.623937606811523 130.10581970214844 33.14430618286133 139.5014190673828 37.68667984008789" stroke-width="3.0" fill="none" stroke="rgb(0, 0, 0)" stroke-opacity="1.0" stroke-linecap="round" stroke-linejoin="round"/>
    <path d="M 137.84390258789062 42.856258392333984 C 75.92581939697266 131.235595703125 127.98902893066406 -5.351228713989258 56.98720932006836 128.86668395996094" stroke-width="3.0" fill="none" stroke="rgb(0, 0, 0)" stroke-opacity="1.0" stroke-linecap="round" stroke-linejoin="round"/>
  </g>
</svg>
