<?xml version="1.0" ?>
<svg xmlns="http://www.w3.org/2000/svg" version="1.1" width="224" height="224">
  <defs/>
  <g>
    <path d="M 141.57537841796875 137.63296508789062 C 117.687744140625 169.9261474609375 153.96548461914062 142.32786560058594 124.63319396972656 145.49705505371094" stroke-width="3.0" fill="none" stroke="rgb(0, 0, 0)" stroke-opacity="1.0" stroke-linecap="round" stroke-linejoin="round"/>
    <path d="M 140.7869110107422 126.69232940673828 C 148.5908660888672 180.18309020996094 167.72476196289062 140.6395721435547 149.46165466308594 162.26226806640625" stroke-width="3.0" fill="none" stroke="rgb(0, 0, 0)" stroke-opacity="1.0" stroke-linecap="round" stroke-linejoin="round"/>
    <path d="M 148.4132080078125 133.9153594970703 C 120.95565032958984 156.51719665527344 177.0839385986328 116.647705078125 136.64352416992188 156.64096069335938" stroke-width="3.0" fill="none" stroke="rgb(0, 0, 0)" stroke-opacity="1.0" stroke-linecap="round" stroke-linejoin="round"/>
    <path d="M 117.45565032958984 154.55416870117188 C 165.07069396972656 160.8660125732422 88.43682098388672 166.63021850585938 148.59983825683594 166.7483367919922" stroke-width="3.0" fill="none" stroke="rgb(0, 0, 0)" stroke-opacity="1.0" stroke-linecap="round" stroke-linejoin="round"/>
    <path d="M 149.4468536376953 163.88511657714844 C 135.2180633544922 130.914794921875 99.99958801269531 124.75096893310547 153.042724609375 142.72093200683594" stroke-width="3.0" fill="none" stroke="rgb(0, 0, 0)" stroke-opacity="1.0" stroke-linecap="round" stroke-linejoin="round"/>
    <path d="M 159.35037231445312 151.70382690429688 C 154.3023681640625 139.7894744873047 123.62835693359375 173.811767578125 156.50173950195312 154.2777557373047" stroke-width="3.0" fill="none" stroke="rgb(0, 0, 0)" stroke-opacity="1.0" stroke-linecap="round" stroke-linejoin="round"/>
    <path d="M 61.26521682739258 172.37229919433594 C 156.25677490234375 168.8347930908203 110.30992126464844 192.01576232910156 128.2362823486328 151.38034057617188" stroke-width="3.0" fill="none" stroke="rgb(0, 0, 0)" stroke-opacity="1.0" stroke-linecap="round" stroke-linejoin="round"/>
    <path d="M 155.57666015625 146.26646423339844 C 148.84646606445312 208.27035522460938 139.7276611328125 198.5594940185547 157.67613220214844 152.0582275390625" stroke-width="3.0" fill="none" stroke="rgb(0, 0, 0)" stroke-opacity="1.0" stroke-linecap="round" stroke-linejoin="round"/>
    <path d="M 123.43009185791016 184.5655059814453 C 117.2394027709961 130.4183807373047 124.69239807128906 123.02178955078125 130.07492065429688 189.90493774414062" stroke-width="3.0" fill="none" stroke="rgb(0, 0, 0)" stroke-opacity="1.0" stroke-linecap="round" stroke-linejoin="round"/>
    <path d="M 143.2280731201172 130.8016815185547 C 112.5163803100586 149.83035278320312 107.80683898925781 146.00994873046875 151.4256591796875 164.31204223632812" stroke-width="3.0" fill="none" stroke="rgb(0, 0, 0)" stroke-opacity="1.0" stroke-linecap="round" stroke-linejoin="round"/>
    <path d="M 127.86820220947266 149.00360107421875 C 104.63640594482422 205.41561889648438 154.6967010498047 190.5919189453125 146.8260955810547 186.60507202148438" stroke-width="3.0" fill="none" stroke="rgb(0, 0, 0)" stroke-opacity="1.0" stroke-linecap="round" stroke-linejoin="round"/>
    <path d="M 131.06689453125 129.88031005859375 C 92.33631896972656 172.81658935546875 139.69903564453125 160.3356475830078 133.98233032226562 131.86741638183594" stroke-width="3.0" fill="none" stroke="rgb(0, 0, 0)" stroke-opacity="1.0" stroke-linecap="round" stroke-linejoin="round"/>
    <path d="M 117.1645736694336 146.27915954589844 C 155.99163818359375 152.0069122314453 149.55442810058594 170.31472778320312 122.56510925292969 136.74456787109375" stroke-width="3.0" fill="none" stroke="rgb(0, 0, 0)" stroke-opacity="1.0" stroke-linecap="round" stroke-linejoin="round"/>
    <path d="M 149.34100341796875 175.4056396484375 C 143.61593627929688 185.84234619140625 151.40013122558594 187.73805236816406 151.48443603515625 169.63925170898438" stroke-width="3.0" fill="none" stroke="rgb(0, 0, 0)" stroke-opacity="1.0" stroke-linecap="round" stroke-linejoin="round"/>
    <path d="M 94.36603546142578 61.9992790222168 C 101.64138793945312 23.602861404418945 136.5936737060547 31.51303482055664 141.25575256347656 40.17765426635742" stroke-width="3.0" fill="none" stroke="rgb(0, 0, 0)" stroke-opacity="1.0" stroke-linecap="round" stroke-linejoin="round"/>
    <path d="M 136.9246368408203 43.337005615234375 C 76.10429382324219 119.06401824951172 129.36383056640625 -10.523995399475098 53.131290435791016 121.76338958740234" stroke-width="3.0" fill="none" stroke="rgb(0, 0, 0)" stroke-opacity="1.0" stroke-linecap="round" stroke-linejoin="round"/>
  </g>
</svg>
