<?xml version="1.0" ?>
<svg xmlns="http://www.w3.org/2000/svg" version="1.1" width="224" height="224">
  <defs/>
  <g>
    <path d="M 136.44677734375 158.6446075439453 C 133.308349609375 157.88356018066406 146.79774475097656 162.3296356201172 145.75701904296875 147.00343322753906" stroke-width="3.0" fill="none" stroke="rgb(0, 0, 0)" stroke-opacity="1.0" stroke-linecap="round" stroke-linejoin="round"/>
    <path d="M 149.41322326660156 160.69723510742188 C 155.0229949951172 186.39413452148438 156.1066131591797 146.59422302246094 151.3238983154297 159.69113159179688" stroke-width="3.0" fill="none" stroke="rgb(0, 0, 0)" stroke-opacity="1.0" stroke-linecap="round" stroke-linejoin="round"/>
    <path d="M 143.4027862548828 136.90216064453125 C 144.63421630859375 147.67715454101562 144.42044067382812 132.63864135742188 138.8700408935547 152.27426147460938" stroke-width="3.0" fill="none" stroke="rgb(0, 0, 0)" stroke-opacity="1.0" stroke-linecap="round" stroke-linejoin="round"/>
    <path d="M 117.00816345214844 152.62503051757812 C 133.87069702148438 157.7870330810547 109.59354400634766 165.61184692382812 144.82102966308594 162.5347900390625" stroke-width="3.0" fill="none" stroke="rgb(0, 0, 0)" stroke-opacity="1.0" stroke-linecap="round" stroke-linejoin="round"/>
    <path d="M 137.6973114013672 157.61529541015625 C 141.3626251220703 123.6591796875 115.12471008300781 132.837890625 133.412109375 138.404541015625" stroke-width="3.0" fill="none" stroke="rgb(0, 0, 0)" stroke-opacity="1.0" stroke-linecap="round" stroke-linejoin="round"/>
    <path d="M 154.7401123046875 152.740234375 C 147.77565002441406 144.66868591308594 131.06118774414062 170.38446044921875 156.1339111328125 156.33474731445312" stroke-width="3.0" fill="none" stroke="rgb(0, 0, 0)" stroke-opacity="1.0" stroke-linecap="round" stroke-linejoin="round"/>
    <path d="M 57.83077621459961 108.50132751464844 C 121.1253890991211 188.97625732421875 111.4027099609375 218.8465576171875 119.94649505615234 150.63560485839844" stroke-width="3.0" fill="none" stroke="rgb(0, 0, 0)" stroke-opacity="1.0" stroke-linecap="round" stroke-linejoin="round"/>
    <path d="M 153.54380798339844 166.6807098388672 C 148.49513244628906 189.00714111328125 148.79931640625 190.01678466796875 151.88494873046875 174.28570556640625" stroke-width="3.0" fill="none" stroke="rgb(0, 0, 0)" stroke-opacity="1.0" stroke-linecap="round" stroke-linejoin="round"/>
    <path d="M 124.1192398071289 192.21983337402344 C 116.35491180419922 156.6795654296875 115.52738952636719 147.69073486328125 125.10027313232422 197.99374389648438" stroke-width="3.0" fill="none" stroke="rgb(0, 0, 0)" stroke-opacity="1.0" stroke-linecap="round" stroke-linejoin="round"/>
    <path d="M 157.80999755859375 147.25543212890625 C 145.5036163330078 156.68551635742188 143.34353637695312 140.31875610351562 153.18455505371094 152.947265625" stroke-width="3.0" fill="none" stroke="rgb(0, 0, 0)" stroke-opacity="1.0" stroke-linecap="round" stroke-linejoin="round"/>
    <path d="M 128.2371368408203 159.8790740966797 C 89.66818237304688 173.99240112304688 146.76507568359375 175.732177734375 152.28977966308594 169.71925354003906" stroke-width="3.0" fill="none" stroke="rgb(0, 0, 0)" stroke-opacity="1.0" stroke-linecap="round" stroke-linejoin="round"/>
    <path d="M 140.52285766601562 129.2741241455078 C 130.18341064453125 178.5299530029297 140.73138427734375 169.3752899169922 123.61255645751953 138.54307556152344" stroke-width="3.0" fill="none" stroke="rgb(0, 0, 0)" stroke-opacity="1.0" stroke-linecap="round" stroke-linejoin="round"/>
    <path d="M 123.4293212890625 148.5352020263672 C 150.2404022216797 160.02743530273438 137.5888214111328 152.67269897460938 130.97921752929688 144.006103515625" stroke-width="3.0" fill="none" stroke="rgb(0, 0, 0)" stroke-opacity="1.0" stroke-linecap="round" stroke-linejoin="round"/>
    <path d="M 151.71368408203125 166.40817260742188 C 147.1875 193.17335510253906 148.74404907226562 228.59402465820312 149.9871368408203 175.93812561035156" stroke-width="3.0" fill="none" stroke="rgb(0, 0, 0)" stroke-opacity="1.0" stroke-linecap="round" stroke-linejoin="round"/>
    <path d="M 116.64490509033203 38.60950469970703 C 128.4891815185547 43.04365158081055 125.41434478759766 45.382755279541016 138.88340759277344 52.99949645996094" stroke-width="3.0" fill="none" stroke="rgb(0, 0, 0)" stroke-opacity="1.0" stroke-linecap="round" stroke-linejoin="round"/>
    <path d="M 92.71299743652344 54.542205810546875 C 89.19025421142578 67.13785552978516 94.22154235839844 64.68900299072266 92.17105102539062 85.81428527832031" stroke-width="3.0" fill="none" stroke="rgb(0, 0, 0)" stroke-opacity="1.0" stroke-linecap="round" stroke-linejoin="round"/>
  </g>
</svg>
