<?xml version="1.0" ?>
<svg xmlns="http://www.w3.org/2000/svg" version="1.1" width="224" height="224">
  <defs/>
  <g>
    <path d="M 134.61563110351562 158.90354919433594 C 134.7305450439453 158.20709228515625 150.03216552734375 163.6928253173828 144.7666778564453 145.8749542236328" stroke-width="3.0" fill="none" stroke="rgb(0, 0, 0)" stroke-opacity="1.0" stroke-linecap="round" stroke-linejoin="round"/>
    <path d="M 150.0002899169922 158.79640197753906 C 156.61831665039062 177.52444458007812 157.18707275390625 141.6997833251953 153.3126983642578 163.7324981689453" stroke-width="3.0" fill="none" stroke="rgb(0, 0, 0)" stroke-opacity="1.0" stroke-linecap="round" stroke-linejoin="round"/>
    <path d="M 146.23593139648438 131.31138610839844 C 130.4293670654297 148.5728759765625 151.83737182617188 130.11160278320312 138.57754516601562 152.43560791015625" stroke-width="3.0" fill="none" stroke="rgb(0, 0, 0)" stroke-opacity="1.0" stroke-linecap="round" stroke-linejoin="round"/>
    <path d="M 114.69405364990234 150.39381408691406 C 134.81846618652344 162.04440307617188 104.7859878540039 161.28773498535156 151.2866973876953 163.10243225097656" stroke-width="3.0" fill="none" stroke="rgb(0, 0, 0)" stroke-opacity="1.0" stroke-linecap="round" stroke-linejoin="round"/>
    <path d="M 136.8295440673828 160.6767578125 C 139.06434631347656 127.32564544677734 122.16532135009766 138.85348510742188 132.6705322265625 138.8142547607422" stroke-width="3.0" fill="none" stroke="rgb(0, 0, 0)" stroke-opacity="1.0" stroke-linecap="round" stroke-linejoin="round"/>
    <path d="M 152.93417358398438 151.96810913085938 C 147.74351501464844 140.4664306640625 131.18894958496094 167.84405517578125 157.35714721679688 155.63275146484375" stroke-width="3.0" fill="none" stroke="rgb(0, 0, 0)" stroke-opacity="1.0" stroke-linecap="round" stroke-linejoin="round"/>
    <path d="M 54.40243148803711 111.84933471679688 C 127.79975128173828 189.8948974609375 113.28280639648438 224.69705200195312 118.12310791015625 147.19073486328125" stroke-width="3.0" fill="none" stroke="rgb(0, 0, 0)" stroke-opacity="1.0" stroke-linecap="round" stroke-linejoin="round"/>
    <path d="M 155.5962677001953 164.58546447753906 C 148.2664337158203 189.3330535888672 150.92105102539062 190.46304321289062 150.73883056640625 170.4365997314453" stroke-width="3.0" fill="none" stroke="rgb(0, 0, 0)" stroke-opacity="1.0" stroke-linecap="round" stroke-linejoin="round"/>
    <path d="M 123.36538696289062 192.0373077392578 C 114.45511627197266 160.23776245117188 116.25010681152344 150.1847686767578 122.83802795410156 188.09774780273438" stroke-width="3.0" fill="none" stroke="rgb(0, 0, 0)" stroke-opacity="1.0" stroke-linecap="round" stroke-linejoin="round"/>
    <path d="M 150.74130249023438 143.0972900390625 C 140.69171142578125 151.02308654785156 139.68568420410156 140.22952270507812 150.06878662109375 152.4069366455078" stroke-width="3.0" fill="none" stroke="rgb(0, 0, 0)" stroke-opacity="1.0" stroke-linecap="round" stroke-linejoin="round"/>
    <path d="M 125.3795394897461 158.11318969726562 C 89.36837005615234 179.2742919921875 147.7751922607422 186.63067626953125 152.360107421875 178.3045196533203" stroke-width="3.0" fill="none" stroke="rgb(0, 0, 0)" stroke-opacity="1.0" stroke-linecap="round" stroke-linejoin="round"/>
    <path d="M 141.74058532714844 130.60386657714844 C 127.5343017578125 173.4427490234375 135.51771545410156 168.0803985595703 125.6927719116211 140.1957550048828" stroke-width="3.0" fill="none" stroke="rgb(0, 0, 0)" stroke-opacity="1.0" stroke-linecap="round" stroke-linejoin="round"/>
    <path d="M 121.24584197998047 142.86949157714844 C 153.04696655273438 156.5917510986328 138.66082763671875 157.61932373046875 128.9580841064453 139.4591522216797" stroke-width="3.0" fill="none" stroke="rgb(0, 0, 0)" stroke-opacity="1.0" stroke-linecap="round" stroke-linejoin="round"/>
    <path d="M 154.2283935546875 171.46580505371094 C 146.27163696289062 186.50796508789062 149.59490966796875 221.99774169921875 150.08636474609375 184.84800720214844" stroke-width="3.0" fill="none" stroke="rgb(0, 0, 0)" stroke-opacity="1.0" stroke-linecap="round" stroke-linejoin="round"/>
    <path d="M 115.63462829589844 36.22989273071289 C 123.28593444824219 47.08308792114258 125.6321029663086 46.776798248291016 131.52749633789062 59.53379821777344" stroke-width="3.0" fill="none" stroke="rgb(0, 0, 0)" stroke-opacity="1.0" stroke-linecap="round" stroke-linejoin="round"/>
    <path d="M 95.54009246826172 56.82766342163086 C 90.47793579101562 72.19886016845703 100.63595581054688 53.292236328125 74.78152465820312 95.46829223632812" stroke-width="3.0" fill="none" stroke="rgb(0, 0, 0)" stroke-opacity="1.0" stroke-linecap="round" stroke-linejoin="round"/>
  </g>
</svg>
