<?xml version="1.0" ?>
<svg xmlns="http://www.w3.org/2000/svg" version="1.1" width="224" height="224">
  <defs/>
  <g>
    <path d="M 139.505126953125 137.34033203125 C 111.90818786621094 168.9110870361328 149.06980895996094 136.16314697265625 134.6527557373047 144.2830352783203" stroke-width="3.0" fill="none" stroke="rgb(0, 0, 0)" stroke-opacity="1.0" stroke-linecap="round" stroke-linejoin="round"/>
    <path d="M 139.0601348876953 146.17630004882812 C 155.91586303710938 174.34312438964844 163.1451416015625 130.51980590820312 151.19668579101562 154.33416748046875" stroke-width="3.0" fill="none" stroke="rgb(0, 0, 0)" stroke-opacity="1.0" stroke-linecap="round" stroke-linejoin="round"/>
    <path d="M 143.6610107421875 133.85240173339844 C 125.76702117919922 153.70223999023438 169.80010986328125 111.28694915771484 138.723876953125 158.7185516357422" stroke-width="3.0" fill="none" stroke="rgb(0, 0, 0)" stroke-opacity="1.0" stroke-linecap="round" stroke-linejoin="round"/>
    <path d="M 118.01847839355469 156.70870971679688 C 159.5922088623047 153.03665161132812 89.69258880615234 166.94354248046875 153.47784423828125 162.63304138183594" stroke-width="3.0" fill="none" stroke="rgb(0, 0, 0)" stroke-opacity="1.0" stroke-linecap="round" stroke-linejoin="round"/>
    <path d="M 152.18463134765625 160.9635772705078 C 145.8281707763672 120.96294403076172 101.22606658935547 128.73190307617188 154.10325622558594 144.5445556640625" stroke-width="3.0" fill="none" stroke="rgb(0, 0, 0)" stroke-opacity="1.0" stroke-linecap="round" stroke-linejoin="round"/>
    <path d="M 154.6264190673828 155.41635131835938 C 144.87791442871094 131.6036834716797 116.45342254638672 173.7357940673828 159.2541046142578 155.85589599609375" stroke-width="3.0" fill="none" stroke="rgb(0, 0, 0)" stroke-opacity="1.0" stroke-linecap="round" stroke-linejoin="round"/>
    <path d="M 58.644203186035156 158.9092254638672 C 160.9683380126953 184.3494110107422 112.9310073852539 211.07608032226562 123.05172729492188 144.80027770996094" stroke-width="3.0" fill="none" stroke="rgb(0, 0, 0)" stroke-opacity="1.0" stroke-linecap="round" stroke-linejoin="round"/>
    <path d="M 159.28878784179688 146.08924865722656 C 140.75804138183594 210.99378967285156 136.84515380859375 205.42994689941406 152.56930541992188 139.5164794921875" stroke-width="3.0" fill="none" stroke="rgb(0, 0, 0)" stroke-opacity="1.0" stroke-linecap="round" stroke-linejoin="round"/>
    <path d="M 125.46485137939453 185.6614227294922 C 114.58351135253906 134.04580688476562 118.50035858154297 122.51934051513672 125.1104965209961 184.8446807861328" stroke-width="3.0" fill="none" stroke="rgb(0, 0, 0)" stroke-opacity="1.0" stroke-linecap="round" stroke-linejoin="round"/>
    <path d="M 148.6717071533203 137.1990203857422 C 121.35700988769531 142.4129180908203 121.0794677734375 129.88755798339844 155.21900939941406 154.1082000732422" stroke-width="3.0" fill="none" stroke="rgb(0, 0, 0)" stroke-opacity="1.0" stroke-linecap="round" stroke-linejoin="round"/>
    <path d="M 128.40167236328125 151.51260375976562 C 101.8871841430664 203.09539794921875 152.41925048828125 191.57530212402344 144.15414428710938 190.7280731201172" stroke-width="3.0" fill="none" stroke="rgb(0, 0, 0)" stroke-opacity="1.0" stroke-linecap="round" stroke-linejoin="round"/>
    <path d="M 136.2493896484375 128.36810302734375 C 94.89283752441406 165.784912109375 139.5078125 148.73146057128906 136.52285766601562 133.33396911621094" stroke-width="3.0" fill="none" stroke="rgb(0, 0, 0)" stroke-opacity="1.0" stroke-linecap="round" stroke-linejoin="round"/>
    <path d="M 119.45526123046875 140.6101531982422 C 156.45013427734375 147.50933837890625 135.32557678222656 173.2706756591797 122.29043579101562 136.4712371826172" stroke-width="3.0" fill="none" stroke="rgb(0, 0, 0)" stroke-opacity="1.0" stroke-linecap="round" stroke-linejoin="round"/>
    <path d="M 145.5441436767578 187.56344604492188 C 142.32261657714844 187.54290771484375 151.26547241210938 185.8968963623047 149.94178771972656 180.50350952148438" stroke-width="3.0" fill="none" stroke="rgb(0, 0, 0)" stroke-opacity="1.0" stroke-linecap="round" stroke-linejoin="round"/>
    <path d="M 92.49486541748047 58.78020095825195 C 121.71047973632812 23.58236312866211 124.47820281982422 36.636817932128906 138.349853515625 39.486663818359375" stroke-width="3.0" fill="none" stroke="rgb(0, 0, 0)" stroke-opacity="1.0" stroke-linecap="round" stroke-linejoin="round"/>
    <path d="M 128.31784057617188 39.101680755615234 C 79.29395294189453 94.67033386230469 112.1429672241211 26.274682998657227 57.34640884399414 125.39016723632812" stroke-width="3.0" fill="none" stroke="rgb(0, 0, 0)" stroke-opacity="1.0" stroke-linecap="round" stroke-linejoin="round"/>
  </g>
</svg>
