<?xml version="1.0" ?>
<svg xmlns="http://www.w3.org/2000/svg" version="1.1" width="224" height="224">
  <defs/>
  <g>
    <path d="M 148.71888732910156 142.15057373046875 C 116.54644775390625 172.31793212890625 154.1266632080078 141.36178588867188 135.85208129882812 148.04367065429688" stroke-width="3.0" fill="none" stroke="rgb(0, 0, 0)" stroke-opacity="1.0" stroke-linecap="round" stroke-linejoin="round"/>
    <path d="M 141.19712829589844 143.4268798828125 C 158.6605682373047 181.09706115722656 167.1131134033203 137.91029357910156 150.27598571777344 154.54917907714844" stroke-width="3.0" fill="none" stroke="rgb(0, 0, 0)" stroke-opacity="1.0" stroke-linecap="round" stroke-linejoin="round"/>
    <path d="M 144.94549560546875 132.70530700683594 C 129.50637817382812 157.78469848632812 172.6691436767578 114.77344512939453 139.91363525390625 159.30450439453125" stroke-width="3.0" fill="none" stroke="rgb(0, 0, 0)" stroke-opacity="1.0" stroke-linecap="round" stroke-linejoin="round"/>
    <path d="M 116.6212158203125 154.45433044433594 C 163.06060791015625 153.06661987304688 90.19609069824219 165.1999969482422 154.42041015625 161.52908325195312" stroke-width="3.0" fill="none" stroke="rgb(0, 0, 0)" stroke-opacity="1.0" stroke-linecap="round" stroke-linejoin="round"/>
    <path d="M 149.80047607421875 162.73440551757812 C 141.5639190673828 125.13228607177734 99.22533416748047 128.9641571044922 154.49526977539062 145.37899780273438" stroke-width="3.0" fill="none" stroke="rgb(0, 0, 0)" stroke-opacity="1.0" stroke-linecap="round" stroke-linejoin="round"/>
    <path d="M 154.54127502441406 154.9224090576172 C 146.54916381835938 131.12078857421875 119.4600601196289 175.85728454589844 160.68597412109375 155.67604064941406" stroke-width="3.0" fill="none" stroke="rgb(0, 0, 0)" stroke-opacity="1.0" stroke-linecap="round" stroke-linejoin="round"/>
    <path d="M 60.54090118408203 161.03538513183594 C 161.41921997070312 183.2803955078125 113.1137466430664 208.4977569580078 124.81229400634766 143.98910522460938" stroke-width="3.0" fill="none" stroke="rgb(0, 0, 0)" stroke-opacity="1.0" stroke-linecap="round" stroke-linejoin="round"/>
    <path d="M 158.71543884277344 151.6901092529297 C 141.20933532714844 206.56820678710938 140.42214965820312 203.7149200439453 150.99008178710938 138.623291015625" stroke-width="3.0" fill="none" stroke="rgb(0, 0, 0)" stroke-opacity="1.0" stroke-linecap="round" stroke-linejoin="round"/>
    <path d="M 123.68061828613281 187.47023010253906 C 118.15924072265625 131.07969665527344 120.6624526977539 121.01734924316406 125.15768432617188 183.22048950195312" stroke-width="3.0" fill="none" stroke="rgb(0, 0, 0)" stroke-opacity="1.0" stroke-linecap="round" stroke-linejoin="round"/>
    <path d="M 149.54144287109375 134.10081481933594 C 118.99901580810547 141.45574951171875 120.58980560302734 130.85609436035156 155.75350952148438 154.06661987304688" stroke-width="3.0" fill="none" stroke="rgb(0, 0, 0)" stroke-opacity="1.0" stroke-linecap="round" stroke-linejoin="round"/>
    <path d="M 129.15457153320312 151.34445190429688 C 104.40956115722656 202.95855712890625 151.48016357421875 188.3342742919922 147.43238830566406 187.74046325683594" stroke-width="3.0" fill="none" stroke="rgb(0, 0, 0)" stroke-opacity="1.0" stroke-linecap="round" stroke-linejoin="round"/>
    <path d="M 136.16368103027344 133.69129943847656 C 91.37474060058594 172.41799926757812 137.05531311035156 152.0297393798828 137.70697021484375 134.20672607421875" stroke-width="3.0" fill="none" stroke="rgb(0, 0, 0)" stroke-opacity="1.0" stroke-linecap="round" stroke-linejoin="round"/>
    <path d="M 119.13823699951172 142.7161102294922 C 153.62022399902344 150.3601837158203 138.31036376953125 170.6040496826172 122.59171295166016 137.33506774902344" stroke-width="3.0" fill="none" stroke="rgb(0, 0, 0)" stroke-opacity="1.0" stroke-linecap="round" stroke-linejoin="round"/>
    <path d="M 146.12405395507812 188.87887573242188 C 142.8487548828125 191.2691650390625 148.17152404785156 182.67787170410156 151.6641845703125 175.66580200195312" stroke-width="3.0" fill="none" stroke="rgb(0, 0, 0)" stroke-opacity="1.0" stroke-linecap="round" stroke-linejoin="round"/>
    <path d="M 96.20387268066406 59.39535140991211 C 119.51548767089844 21.25445556640625 121.55319213867188 34.45567321777344 136.25167846679688 40.6526985168457" stroke-width="3.0" fill="none" stroke="rgb(0, 0, 0)" stroke-opacity="1.0" stroke-linecap="round" stroke-linejoin="round"/>
    <path d="M 128.7497100830078 39.678836822509766 C 80.60196685791016 97.96070861816406 112.0547866821289 26.1329288482666 58.009037017822266 119.8379898071289" stroke-width="3.0" fill="none" stroke="rgb(0, 0, 0)" stroke-opacity="1.0" stroke-linecap="round" stroke-linejoin="round"/>
  </g>
</svg>
