<?xml version="1.0" ?>
<svg xmlns="http://www.w3.org/2000/svg" version="1.1" width="224" height="224">
  <defs/>
  <g>
    <path d="M 146.01382446289062 135.8184356689453 C 103.43844604492188 176.6993408203125 161.49452209472656 148.2118682861328 136.73687744140625 161.8802490234375" stroke-width="3.0" fill="none" stroke="rgb(0, 0, 0)" stroke-opacity="1.0" stroke-linecap="round" stroke-linejoin="round"/>
    <path d="M 136.08702087402344 132.25259399414062 C 157.86758422851562 168.76571655273438 166.07252502441406 130.96798706054688 139.39585876464844 151.7105712890625" stroke-width="3.0" fill="none" stroke="rgb(0, 0, 0)" stroke-opacity="1.0" stroke-linecap="round" stroke-linejoin="round"/>
    <path d="M 149.22119140625 132.6483612060547 C 121.61994171142578 160.7066192626953 174.3977508544922 111.44796752929688 130.19705200195312 164.1773223876953" stroke-width="3.0" fill="none" stroke="rgb(0, 0, 0)" stroke-opacity="1.0" stroke-linecap="round" stroke-linejoin="round"/>
    <path d="M 116.67730712890625 153.16778564453125 C 168.42762756347656 145.76443481445312 98.0948715209961 166.90174865722656 153.27093505859375 160.17431640625" stroke-width="3.0" fill="none" stroke="rgb(0, 0, 0)" stroke-opacity="1.0" stroke-linecap="round" stroke-linejoin="round"/>
    <path d="M 134.34707641601562 156.94668579101562 C 141.15078735351562 129.08363342285156 102.626953125 123.15998840332031 144.3282470703125 158.8127899169922" stroke-width="3.0" fill="none" stroke="rgb(0, 0, 0)" stroke-opacity="1.0" stroke-linecap="round" stroke-linejoin="round"/>
    <path d="M 152.5834197998047 155.0010528564453 C 160.1598663330078 139.35037231445312 127.58111572265625 180.9212646484375 149.69515991210938 146.30474853515625" stroke-width="3.0" fill="none" stroke="rgb(0, 0, 0)" stroke-opacity="1.0" stroke-linecap="round" stroke-linejoin="round"/>
    <path d="M 67.95463562011719 178.82809448242188 C 169.8522186279297 179.16725158691406 110.85590362548828 191.30796813964844 122.59312438964844 134.0192108154297" stroke-width="3.0" fill="none" stroke="rgb(0, 0, 0)" stroke-opacity="1.0" stroke-linecap="round" stroke-linejoin="round"/>
    <path d="M 153.06008911132812 140.69740295410156 C 158.98170471191406 191.9716796875 139.00033569335938 190.099853515625 156.73629760742188 157.1469268798828" stroke-width="3.0" fill="none" stroke="rgb(0, 0, 0)" stroke-opacity="1.0" stroke-linecap="round" stroke-linejoin="round"/>
    <path d="M 124.77788543701172 184.5470428466797 C 121.57393646240234 141.94276428222656 128.6380615234375 136.69273376464844 129.71119689941406 186.96066284179688" stroke-width="3.0" fill="none" stroke="rgb(0, 0, 0)" stroke-opacity="1.0" stroke-linecap="round" stroke-linejoin="round"/>
    <path d="M 147.38650512695312 133.99395751953125 C 115.98939514160156 153.8436279296875 103.85343170166016 163.60610961914062 151.91648864746094 155.21951293945312" stroke-width="3.0" fill="none" stroke="rgb(0, 0, 0)" stroke-opacity="1.0" stroke-linecap="round" stroke-linejoin="round"/>
    <path d="M 130.73110961914062 148.45700073242188 C 107.49620819091797 206.39321899414062 150.9488983154297 183.26206970214844 151.6322479248047 180.14198303222656" stroke-width="3.0" fill="none" stroke="rgb(0, 0, 0)" stroke-opacity="1.0" stroke-linecap="round" stroke-linejoin="round"/>
    <path d="M 136.80043029785156 134.44808959960938 C 84.96234130859375 159.86264038085938 148.7230987548828 167.05831909179688 131.9208526611328 130.4348602294922" stroke-width="3.0" fill="none" stroke="rgb(0, 0, 0)" stroke-opacity="1.0" stroke-linecap="round" stroke-linejoin="round"/>
    <path d="M 118.14153289794922 140.37901306152344 C 156.44834899902344 161.5294952392578 160.61378479003906 167.7962188720703 126.25345611572266 129.75318908691406" stroke-width="3.0" fill="none" stroke="rgb(0, 0, 0)" stroke-opacity="1.0" stroke-linecap="round" stroke-linejoin="round"/>
    <path d="M 149.40847778320312 175.014892578125 C 144.71812438964844 185.85107421875 153.5369873046875 182.4371337890625 151.18466186523438 177.41441345214844" stroke-width="3.0" fill="none" stroke="rgb(0, 0, 0)" stroke-opacity="1.0" stroke-linecap="round" stroke-linejoin="round"/>
    <path d="M 94.3536605834961 64.29993438720703 C 94.04252624511719 33.403411865234375 125.2491683959961 31.937711715698242 133.97000122070312 38.281124114990234" stroke-width="3.0" fill="none" stroke="rgb(0, 0, 0)" stroke-opacity="1.0" stroke-linecap="round" stroke-linejoin="round"/>
    <path d="M 136.7290802001953 38.0003547668457 C 83.17167663574219 141.2715606689453 121.41632080078125 -29.116241455078125 56.21472930908203 133.0436553955078" stroke-width="3.0" fill="none" stroke="rgb(0, 0, 0)" stroke-opacity="1.0" stroke-linecap="round" stroke-linejoin="round"/>
  </g>
</svg>
