<?xml version="1.0" ?>
<svg xmlns="http://www.w3.org/2000/svg" version="1.1" width="224" height="224">
  <defs/>
  <g>
    <path d="M 141.37100219726562 129.45059204101562 C 119.70573425292969 173.7565155029297 157.1211395263672 140.0980224609375 125.47411346435547 149.25320434570312" stroke-width="3.0" fill="none" stroke="rgb(0, 0, 0)" stroke-opacity="1.0" stroke-linecap="round" stroke-linejoin="round"/>
    <path d="M 140.87619018554688 128.94900512695312 C 152.23728942871094 174.6107177734375 164.4586181640625 129.3888397216797 152.77490234375 162.08599853515625" stroke-width="3.0" fill="none" stroke="rgb(0, 0, 0)" stroke-opacity="1.0" stroke-linecap="round" stroke-linejoin="round"/>
    <path d="M 150.6072235107422 135.0995635986328 C 119.58570098876953 159.5763702392578 174.4486846923828 114.88864135742188 136.14085388183594 158.2759552001953" stroke-width="3.0" fill="none" stroke="rgb(0, 0, 0)" stroke-opacity="1.0" stroke-linecap="round" stroke-linejoin="round"/>
    <path d="M 116.2614517211914 150.8942413330078 C 160.7426300048828 150.9073028564453 87.1470947265625 167.95150756835938 153.3634490966797 169.48236083984375" stroke-width="3.0" fill="none" stroke="rgb(0, 0, 0)" stroke-opacity="1.0" stroke-linecap="round" stroke-linejoin="round"/>
    <path d="M 147.54510498046875 162.72805786132812 C 142.80166625976562 130.63685607910156 112.17790222167969 122.29032897949219 146.0849609375 153.72369384765625" stroke-width="3.0" fill="none" stroke="rgb(0, 0, 0)" stroke-opacity="1.0" stroke-linecap="round" stroke-linejoin="round"/>
    <path d="M 150.5502471923828 152.586181640625 C 154.37351989746094 135.908935546875 125.06216430664062 172.4683837890625 157.98443603515625 153.18609619140625" stroke-width="3.0" fill="none" stroke="rgb(0, 0, 0)" stroke-opacity="1.0" stroke-linecap="round" stroke-linejoin="round"/>
    <path d="M 66.91902160644531 186.3065948486328 C 155.63368225097656 176.32371520996094 111.13546752929688 197.928466796875 127.6433334350586 138.60647583007812" stroke-width="3.0" fill="none" stroke="rgb(0, 0, 0)" stroke-opacity="1.0" stroke-linecap="round" stroke-linejoin="round"/>
    <path d="M 154.85888671875 144.74462890625 C 154.7900848388672 206.37802124023438 134.02877807617188 192.1479949951172 157.75717163085938 157.5587921142578" stroke-width="3.0" fill="none" stroke="rgb(0, 0, 0)" stroke-opacity="1.0" stroke-linecap="round" stroke-linejoin="round"/>
    <path d="M 125.35005187988281 183.01571655273438 C 118.8484878540039 132.8949432373047 119.98602294921875 131.47950744628906 126.29208374023438 183.83969116210938" stroke-width="3.0" fill="none" stroke="rgb(0, 0, 0)" stroke-opacity="1.0" stroke-linecap="round" stroke-linejoin="round"/>
    <path d="M 145.95436096191406 132.51626586914062 C 115.33788299560547 147.07861328125 108.95247650146484 159.9639434814453 151.97547912597656 159.88014221191406" stroke-width="3.0" fill="none" stroke="rgb(0, 0, 0)" stroke-opacity="1.0" stroke-linecap="round" stroke-linejoin="round"/>
    <path d="M 131.9119110107422 145.222412109375 C 101.86027526855469 204.3228302001953 152.22305297851562 186.80352783203125 150.76463317871094 186.34100341796875" stroke-width="3.0" fill="none" stroke="rgb(0, 0, 0)" stroke-opacity="1.0" stroke-linecap="round" stroke-linejoin="round"/>
    <path d="M 131.26449584960938 130.75778198242188 C 92.10749816894531 168.69029235839844 154.46688842773438 172.94654846191406 136.70889282226562 130.68206787109375" stroke-width="3.0" fill="none" stroke="rgb(0, 0, 0)" stroke-opacity="1.0" stroke-linecap="round" stroke-linejoin="round"/>
    <path d="M 120.50753784179688 140.9151611328125 C 159.00132751464844 151.54107666015625 155.6233673095703 168.44940185546875 125.61016845703125 134.4755096435547" stroke-width="3.0" fill="none" stroke="rgb(0, 0, 0)" stroke-opacity="1.0" stroke-linecap="round" stroke-linejoin="round"/>
    <path d="M 150.37123107910156 175.3751678466797 C 144.8057098388672 191.71002197265625 150.9118194580078 191.6969451904297 151.9080047607422 171.12640380859375" stroke-width="3.0" fill="none" stroke="rgb(0, 0, 0)" stroke-opacity="1.0" stroke-linecap="round" stroke-linejoin="round"/>
    <path d="M 92.57939147949219 61.538658142089844 C 102.5446548461914 27.771915435791016 126.26073455810547 33.001827239990234 136.33441162109375 37.341285705566406" stroke-width="3.0" fill="none" stroke="rgb(0, 0, 0)" stroke-opacity="1.0" stroke-linecap="round" stroke-linejoin="round"/>
    <path d="M 138.61109924316406 42.19112777709961 C 75.99301147460938 138.34205627441406 128.25201416015625 -22.227764129638672 54.93041229248047 134.34767150878906" stroke-width="3.0" fill="none" stroke="rgb(0, 0, 0)" stroke-opacity="1.0" stroke-linecap="round" stroke-linejoin="round"/>
  </g>
</svg>
