<?xml version="1.0" ?>
<svg xmlns="http://www.w3.org/2000/svg" version="1.1" width="224" height="224">
  <defs/>
  <g>
    <path d="M 152.2323455810547 147.83419799804688 C 104.00847625732422 171.6278076171875 175.63015747070312 160.14865112304688 123.48239135742188 154.8910675048828" stroke-width="3.0" fill="none" stroke="rgb(0, 0, 0)" stroke-opacity="1.0" stroke-linecap="round" stroke-linejoin="round"/>
    <path d="M 139.22982788085938 134.10140991210938 C 162.79660034179688 178.0028533935547 166.36976623535156 137.41433715820312 134.5875701904297 159.8396759033203" stroke-width="3.0" fill="none" stroke="rgb(0, 0, 0)" stroke-opacity="1.0" stroke-linecap="round" stroke-linejoin="round"/>
    <path d="M 146.70187377929688 130.12083435058594 C 116.34286499023438 159.53578186035156 176.0836944580078 105.02891540527344 133.28549194335938 161.98277282714844" stroke-width="3.0" fill="none" stroke="rgb(0, 0, 0)" stroke-opacity="1.0" stroke-linecap="round" stroke-linejoin="round"/>
    <path d="M 116.71702575683594 148.93618774414062 C 157.2182159423828 148.165283203125 84.55838012695312 179.17347717285156 150.6485595703125 173.26771545410156" stroke-width="3.0" fill="none" stroke="rgb(0, 0, 0)" stroke-opacity="1.0" stroke-linecap="round" stroke-linejoin="round"/>
    <path d="M 135.94436645507812 162.5353546142578 C 137.5604705810547 137.5049591064453 108.34225463867188 117.36748504638672 130.24542236328125 163.87399291992188" stroke-width="3.0" fill="none" stroke="rgb(0, 0, 0)" stroke-opacity="1.0" stroke-linecap="round" stroke-linejoin="round"/>
    <path d="M 138.01121520996094 159.9333038330078 C 173.53025817871094 153.09613037109375 128.9222412109375 176.00552368164062 153.40423583984375 146.8814239501953" stroke-width="3.0" fill="none" stroke="rgb(0, 0, 0)" stroke-opacity="1.0" stroke-linecap="round" stroke-linejoin="round"/>
    <path d="M 64.80377960205078 180.58827209472656 C 153.0845184326172 186.63658142089844 118.30438995361328 196.7103271484375 119.41572570800781 138.436767578125" stroke-width="3.0" fill="none" stroke="rgb(0, 0, 0)" stroke-opacity="1.0" stroke-linecap="round" stroke-linejoin="round"/>
    <path d="M 150.8762969970703 142.70675659179688 C 154.57125854492188 182.20530700683594 140.74530029296875 203.9569854736328 152.20736694335938 171.58291625976562" stroke-width="3.0" fill="none" stroke="rgb(0, 0, 0)" stroke-opacity="1.0" stroke-linecap="round" stroke-linejoin="round"/>
    <path d="M 121.69959259033203 176.0088348388672 C 119.08975219726562 148.29368591308594 119.97211456298828 132.04876708984375 122.04862976074219 175.95347595214844" stroke-width="3.0" fill="none" stroke="rgb(0, 0, 0)" stroke-opacity="1.0" stroke-linecap="round" stroke-linejoin="round"/>
    <path d="M 151.1608428955078 137.48468017578125 C 110.10956573486328 147.94851684570312 102.40093231201172 170.8690643310547 153.2222442626953 161.40267944335938" stroke-width="3.0" fill="none" stroke="rgb(0, 0, 0)" stroke-opacity="1.0" stroke-linecap="round" stroke-linejoin="round"/>
    <path d="M 131.65487670898438 131.67359924316406 C 101.55935668945312 204.41189575195312 141.6062469482422 185.74752807617188 145.44793701171875 187.88121032714844" stroke-width="3.0" fill="none" stroke="rgb(0, 0, 0)" stroke-opacity="1.0" stroke-linecap="round" stroke-linejoin="round"/>
    <path d="M 141.9457550048828 131.27215576171875 C 77.89865112304688 165.5833740234375 154.08982849121094 160.89495849609375 134.52627563476562 129.20924377441406" stroke-width="3.0" fill="none" stroke="rgb(0, 0, 0)" stroke-opacity="1.0" stroke-linecap="round" stroke-linejoin="round"/>
    <path d="M 117.9041519165039 142.27845764160156 C 163.90931701660156 163.41812133789062 169.53179931640625 171.33544921875 122.59925842285156 132.49400329589844" stroke-width="3.0" fill="none" stroke="rgb(0, 0, 0)" stroke-opacity="1.0" stroke-linecap="round" stroke-linejoin="round"/>
    <path d="M 150.7086639404297 171.8320770263672 C 143.58609008789062 185.5914306640625 151.1282958984375 172.35519409179688 150.096435546875 177.9097900390625" stroke-width="3.0" fill="none" stroke="rgb(0, 0, 0)" stroke-opacity="1.0" stroke-linecap="round" stroke-linejoin="round"/>
    <path d="M 92.15692901611328 61.47068405151367 C 91.65052795410156 55.148780822753906 110.8969955444336 20.113115310668945 137.79452514648438 36.796756744384766" stroke-width="3.0" fill="none" stroke="rgb(0, 0, 0)" stroke-opacity="1.0" stroke-linecap="round" stroke-linejoin="round"/>
    <path d="M 140.0447235107422 39.43013000488281 C 81.50146484375 140.36151123046875 125.86095428466797 -27.007450103759766 52.9958381652832 139.05039978027344" stroke-width="3.0" fill="none" stroke="rgb(0, 0, 0)" stroke-opacity="1.0" stroke-linecap="round" stroke-linejoin="round"/>
  </g>
</svg>
