<?xml version="1.0" ?>
<svg xmlns="http://www.w3.org/2000/svg" version="1.1" width="224" height="224">
  <defs/>
  <g>
    <path d="M 140.9167938232422 130.4456787109375 C 115.76805877685547 172.7122802734375 154.8623809814453 139.42845153808594 124.91463470458984 148.88392639160156" stroke-width="3.0" fill="none" stroke="rgb(0, 0, 0)" stroke-opacity="1.0" stroke-linecap="round" stroke-linejoin="round"/>
    <path d="M 142.89505004882812 128.89305114746094 C 151.85986328125 176.59271240234375 164.51071166992188 131.84500122070312 151.00411987304688 158.79039001464844" stroke-width="3.0" fill="none" stroke="rgb(0, 0, 0)" stroke-opacity="1.0" stroke-linecap="round" stroke-linejoin="round"/>
    <path d="M 151.89683532714844 132.96896362304688 C 121.78060150146484 159.65628051757812 176.93577575683594 115.22801971435547 137.20394897460938 158.67225646972656" stroke-width="3.0" fill="none" stroke="rgb(0, 0, 0)" stroke-opacity="1.0" stroke-linecap="round" stroke-linejoin="round"/>
    <path d="M 115.64623260498047 151.22860717773438 C 158.97784423828125 151.68385314941406 83.75797271728516 169.39805603027344 151.6060028076172 168.97647094726562" stroke-width="3.0" fill="none" stroke="rgb(0, 0, 0)" stroke-opacity="1.0" stroke-linecap="round" stroke-linejoin="round"/>
    <path d="M 148.5785675048828 162.124267578125 C 142.21881103515625 131.6338653564453 112.46031188964844 121.99761199951172 147.74342346191406 152.03875732421875" stroke-width="3.0" fill="none" stroke="rgb(0, 0, 0)" stroke-opacity="1.0" stroke-linecap="round" stroke-linejoin="round"/>
    <path d="M 150.66351318359375 152.81228637695312 C 151.552001953125 135.3192596435547 123.77359771728516 173.69009399414062 156.88418579101562 154.58067321777344" stroke-width="3.0" fill="none" stroke="rgb(0, 0, 0)" stroke-opacity="1.0" stroke-linecap="round" stroke-linejoin="round"/>
    <path d="M 66.77127075195312 187.7268829345703 C 155.66693115234375 177.61363220214844 111.83905792236328 198.72744750976562 126.64576721191406 139.42054748535156" stroke-width="3.0" fill="none" stroke="rgb(0, 0, 0)" stroke-opacity="1.0" stroke-linecap="round" stroke-linejoin="round"/>
    <path d="M 153.68963623046875 141.2277069091797 C 154.06277465820312 207.385009765625 134.9314422607422 194.2305450439453 160.76023864746094 156.23822021484375" stroke-width="3.0" fill="none" stroke="rgb(0, 0, 0)" stroke-opacity="1.0" stroke-linecap="round" stroke-linejoin="round"/>
    <path d="M 125.92682647705078 183.44760131835938 C 118.3159408569336 133.01321411132812 118.91363525390625 131.90359497070312 125.82196807861328 184.15863037109375" stroke-width="3.0" fill="none" stroke="rgb(0, 0, 0)" stroke-opacity="1.0" stroke-linecap="round" stroke-linejoin="round"/>
    <path d="M 146.751953125 132.5633544921875 C 117.47368621826172 149.27310180664062 109.43401336669922 158.79283142089844 152.30726623535156 163.08364868164062" stroke-width="3.0" fill="none" stroke="rgb(0, 0, 0)" stroke-opacity="1.0" stroke-linecap="round" stroke-linejoin="round"/>
    <path d="M 130.231201171875 144.4815216064453 C 101.47600555419922 202.97952270507812 152.8734130859375 186.18763732910156 150.26577758789062 185.33364868164062" stroke-width="3.0" fill="none" stroke="rgb(0, 0, 0)" stroke-opacity="1.0" stroke-linecap="round" stroke-linejoin="round"/>
    <path d="M 132.17098999023438 132.7684783935547 C 91.9590072631836 171.78684997558594 153.7176513671875 173.6877899169922 136.26548767089844 133.27029418945312" stroke-width="3.0" fill="none" stroke="rgb(0, 0, 0)" stroke-opacity="1.0" stroke-linecap="round" stroke-linejoin="round"/>
    <path d="M 119.53892517089844 143.92764282226562 C 159.5374298095703 151.96310424804688 157.97833251953125 165.97340393066406 126.84931945800781 132.0163116455078" stroke-width="3.0" fill="none" stroke="rgb(0, 0, 0)" stroke-opacity="1.0" stroke-linecap="round" stroke-linejoin="round"/>
    <path d="M 150.42202758789062 175.4331512451172 C 144.72735595703125 191.99874877929688 150.3138885498047 191.70669555664062 151.69358825683594 170.535400390625" stroke-width="3.0" fill="none" stroke="rgb(0, 0, 0)" stroke-opacity="1.0" stroke-linecap="round" stroke-linejoin="round"/>
    <path d="M 92.57090759277344 61.83104705810547 C 102.39655303955078 28.123750686645508 125.80953979492188 34.346580505371094 137.2024688720703 37.8951530456543" stroke-width="3.0" fill="none" stroke="rgb(0, 0, 0)" stroke-opacity="1.0" stroke-linecap="round" stroke-linejoin="round"/>
    <path d="M 139.9776611328125 42.03523635864258 C 77.16497039794922 137.59547424316406 128.23760986328125 -19.818031311035156 53.32013702392578 135.40899658203125" stroke-width="3.0" fill="none" stroke="rgb(0, 0, 0)" stroke-opacity="1.0" stroke-linecap="round" stroke-linejoin="round"/>
  </g>
</svg>
