<?xml version="1.0" ?>
<svg xmlns="http://www.w3.org/2000/svg" version="1.1" width="224" height="224">
  <defs/>
  <g>
    <path d="M 144.78912353515625 130.8662872314453 C 109.22900390625 177.2721405029297 158.9722900390625 137.4330291748047 132.7566680908203 155.8289794921875" stroke-width="3.0" fill="none" stroke="rgb(0, 0, 0)" stroke-opacity="1.0" stroke-linecap="round" stroke-linejoin="round"/>
    <path d="M 139.5391387939453 133.0803985595703 C 157.47714233398438 171.0096435546875 163.2393035888672 123.98551177978516 143.3688507080078 154.88072204589844" stroke-width="3.0" fill="none" stroke="rgb(0, 0, 0)" stroke-opacity="1.0" stroke-linecap="round" stroke-linejoin="round"/>
    <path d="M 149.1576385498047 133.77723693847656 C 123.80509185791016 160.78683471679688 180.1888885498047 113.87884521484375 132.7948455810547 160.26832580566406" stroke-width="3.0" fill="none" stroke="rgb(0, 0, 0)" stroke-opacity="1.0" stroke-linecap="round" stroke-linejoin="round"/>
    <path d="M 114.7030258178711 147.45501708984375 C 165.61790466308594 143.01258850097656 82.76522064208984 173.21533203125 151.70741271972656 167.64215087890625" stroke-width="3.0" fill="none" stroke="rgb(0, 0, 0)" stroke-opacity="1.0" stroke-linecap="round" stroke-linejoin="round"/>
    <path d="M 147.47250366210938 158.6739501953125 C 145.9722900390625 129.9383087158203 110.85877990722656 124.72895812988281 142.6655731201172 160.6172637939453" stroke-width="3.0" fill="none" stroke="rgb(0, 0, 0)" stroke-opacity="1.0" stroke-linecap="round" stroke-linejoin="round"/>
    <path d="M 151.36529541015625 152.6118927001953 C 154.89825439453125 135.26866149902344 125.91075897216797 178.2161865234375 158.15548706054688 148.6832275390625" stroke-width="3.0" fill="none" stroke="rgb(0, 0, 0)" stroke-opacity="1.0" stroke-linecap="round" stroke-linejoin="round"/>
    <path d="M 67.41204071044922 180.52493286132812 C 155.03221130371094 180.09022521972656 106.76282501220703 201.88331604003906 130.13983154296875 140.4040985107422" stroke-width="3.0" fill="none" stroke="rgb(0, 0, 0)" stroke-opacity="1.0" stroke-linecap="round" stroke-linejoin="round"/>
    <path d="M 152.00083923339844 141.5024871826172 C 156.14004516601562 199.9604034423828 140.7919921875 199.30908203125 155.50701904296875 159.09654235839844" stroke-width="3.0" fill="none" stroke="rgb(0, 0, 0)" stroke-opacity="1.0" stroke-linecap="round" stroke-linejoin="round"/>
    <path d="M 126.05108642578125 184.8919219970703 C 121.57041931152344 132.61001586914062 121.18523406982422 130.71339416503906 130.96253967285156 186.35482788085938" stroke-width="3.0" fill="none" stroke="rgb(0, 0, 0)" stroke-opacity="1.0" stroke-linecap="round" stroke-linejoin="round"/>
    <path d="M 146.98013305664062 132.88470458984375 C 110.96623992919922 146.445556640625 105.61663055419922 164.07115173339844 152.44679260253906 160.6851806640625" stroke-width="3.0" fill="none" stroke="rgb(0, 0, 0)" stroke-opacity="1.0" stroke-linecap="round" stroke-linejoin="round"/>
    <path d="M 130.63043212890625 148.95233154296875 C 102.0435562133789 201.38037109375 155.01182556152344 185.21656799316406 148.06275939941406 187.2125244140625" stroke-width="3.0" fill="none" stroke="rgb(0, 0, 0)" stroke-opacity="1.0" stroke-linecap="round" stroke-linejoin="round"/>
    <path d="M 132.750732421875 130.91798400878906 C 86.91212463378906 166.79196166992188 157.08505249023438 174.23358154296875 136.19769287109375 133.33642578125" stroke-width="3.0" fill="none" stroke="rgb(0, 0, 0)" stroke-opacity="1.0" stroke-linecap="round" stroke-linejoin="round"/>
    <path d="M 119.19206237792969 141.16278076171875 C 158.69821166992188 154.4459991455078 157.85684204101562 167.121337890625 126.20460510253906 133.1826934814453" stroke-width="3.0" fill="none" stroke="rgb(0, 0, 0)" stroke-opacity="1.0" stroke-linecap="round" stroke-linejoin="round"/>
    <path d="M 150.6690216064453 175.73818969726562 C 142.6607666015625 187.59226989746094 155.7893829345703 188.50445556640625 149.61721801757812 178.76492309570312" stroke-width="3.0" fill="none" stroke="rgb(0, 0, 0)" stroke-opacity="1.0" stroke-linecap="round" stroke-linejoin="round"/>
    <path d="M 92.73621368408203 64.60260009765625 C 100.31590270996094 29.089088439941406 127.83779907226562 32.19691848754883 136.1841278076172 36.58815002441406" stroke-width="3.0" fill="none" stroke="rgb(0, 0, 0)" stroke-opacity="1.0" stroke-linecap="round" stroke-linejoin="round"/>
    <path d="M 138.64865112304688 38.59432601928711 C 78.42120361328125 143.11215209960938 123.70169067382812 -21.549983978271484 59.25788497924805 140.65084838867188" stroke-width="3.0" fill="none" stroke="rgb(0, 0, 0)" stroke-opacity="1.0" stroke-linecap="round" stroke-linejoin="round"/>
  </g>
</svg>
