<?xml version="1.0" ?>
<svg xmlns="http://www.w3.org/2000/svg" version="1.1" width="224" height="224">
  <defs/>
  <g>
    <path d="M 148.45343017578125 141.48814392089844 C 117.4587173461914 172.80899047851562 155.7340087890625 142.24058532714844 135.57679748535156 148.50103759765625" stroke-width="3.0" fill="none" stroke="rgb(0, 0, 0)" stroke-opacity="1.0" stroke-linecap="round" stroke-linejoin="round"/>
    <path d="M 141.08155822753906 142.82638549804688 C 158.59280395507812 179.87490844726562 167.69322204589844 138.74197387695312 154.07666015625 161.05596923828125" stroke-width="3.0" fill="none" stroke="rgb(0, 0, 0)" stroke-opacity="1.0" stroke-linecap="round" stroke-linejoin="round"/>
    <path d="M 144.8318328857422 131.6865234375 C 127.44852447509766 157.84808349609375 173.35594177246094 114.9449691772461 140.0943145751953 158.99546813964844" stroke-width="3.0" fill="none" stroke="rgb(0, 0, 0)" stroke-opacity="1.0" stroke-linecap="round" stroke-linejoin="round"/>
    <path d="M 118.08518981933594 155.31369018554688 C 161.55419921875 153.65151977539062 87.79324340820312 163.74334716796875 154.8048858642578 162.29449462890625" stroke-width="3.0" fill="none" stroke="rgb(0, 0, 0)" stroke-opacity="1.0" stroke-linecap="round" stroke-linejoin="round"/>
    <path d="M 148.00250244140625 163.04916381835938 C 140.90982055664062 124.77388000488281 99.81012725830078 127.00959777832031 153.69541931152344 146.1024932861328" stroke-width="3.0" fill="none" stroke="rgb(0, 0, 0)" stroke-opacity="1.0" stroke-linecap="round" stroke-linejoin="round"/>
    <path d="M 155.76266479492188 155.64112854003906 C 149.61761474609375 133.77069091796875 121.11539459228516 177.7989959716797 162.3486328125 153.97808837890625" stroke-width="3.0" fill="none" stroke="rgb(0, 0, 0)" stroke-opacity="1.0" stroke-linecap="round" stroke-linejoin="round"/>
    <path d="M 61.04267120361328 161.16818237304688 C 161.59490966796875 183.82901000976562 114.20758056640625 205.82101440429688 127.0435562133789 144.20843505859375" stroke-width="3.0" fill="none" stroke="rgb(0, 0, 0)" stroke-opacity="1.0" stroke-linecap="round" stroke-linejoin="round"/>
    <path d="M 159.631103515625 152.6794891357422 C 141.7417449951172 204.51036071777344 141.3743133544922 201.7622528076172 151.07212829589844 146.5811309814453" stroke-width="3.0" fill="none" stroke="rgb(0, 0, 0)" stroke-opacity="1.0" stroke-linecap="round" stroke-linejoin="round"/>
    <path d="M 123.9557113647461 188.18865966796875 C 117.51443481445312 130.96502685546875 120.65577697753906 120.92951202392578 123.64485168457031 183.1387481689453" stroke-width="3.0" fill="none" stroke="rgb(0, 0, 0)" stroke-opacity="1.0" stroke-linecap="round" stroke-linejoin="round"/>
    <path d="M 146.57571411132812 136.39105224609375 C 118.71072387695312 143.8158721923828 118.9368667602539 133.71859741210938 155.2655029296875 155.82545471191406" stroke-width="3.0" fill="none" stroke="rgb(0, 0, 0)" stroke-opacity="1.0" stroke-linecap="round" stroke-linejoin="round"/>
    <path d="M 129.81089782714844 152.22483825683594 C 104.03733825683594 205.04180908203125 149.9374542236328 189.5530242919922 147.7052001953125 188.55374145507812" stroke-width="3.0" fill="none" stroke="rgb(0, 0, 0)" stroke-opacity="1.0" stroke-linecap="round" stroke-linejoin="round"/>
    <path d="M 134.2732696533203 131.75772094726562 C 90.26396942138672 173.73243713378906 137.68804931640625 155.63735961914062 137.78530883789062 135.95794677734375" stroke-width="3.0" fill="none" stroke="rgb(0, 0, 0)" stroke-opacity="1.0" stroke-linecap="round" stroke-linejoin="round"/>
    <path d="M 117.62276458740234 143.601318359375 C 154.02679443359375 149.98980712890625 139.0642547607422 171.35426330566406 125.85867309570312 136.038330078125" stroke-width="3.0" fill="none" stroke="rgb(0, 0, 0)" stroke-opacity="1.0" stroke-linecap="round" stroke-linejoin="round"/>
    <path d="M 146.33103942871094 189.0928497314453 C 143.55226135253906 192.8108367919922 149.0098114013672 184.11920166015625 150.90493774414062 175.23727416992188" stroke-width="3.0" fill="none" stroke="rgb(0, 0, 0)" stroke-opacity="1.0" stroke-linecap="round" stroke-linejoin="round"/>
    <path d="M 95.22515869140625 59.73500061035156 C 113.6591567993164 20.251266479492188 121.89627838134766 34.715633392333984 136.34393310546875 39.36772155761719" stroke-width="3.0" fill="none" stroke="rgb(0, 0, 0)" stroke-opacity="1.0" stroke-linecap="round" stroke-linejoin="round"/>
    <path d="M 130.09756469726562 40.28370666503906 C 81.19883728027344 99.11933135986328 113.7470703125 24.971210479736328 56.599708557128906 119.33314514160156" stroke-width="3.0" fill="none" stroke="rgb(0, 0, 0)" stroke-opacity="1.0" stroke-linecap="round" stroke-linejoin="round"/>
  </g>
</svg>
