<?xml version="1.0" ?>
<svg xmlns="http://www.w3.org/2000/svg" version="1.1" width="224" height="224">
  <defs/>
  <g>
    <path d="M 136.6307830810547 159.77061462402344 C 131.94952392578125 159.11904907226562 141.1982879638672 159.95901489257812 142.46835327148438 147.93991088867188" stroke-width="3.0" fill="none" stroke="rgb(0, 0, 0)" stroke-opacity="1.0" stroke-linecap="round" stroke-linejoin="round"/>
    <path d="M 150.83859252929688 158.58348083496094 C 150.78973388671875 186.37155151367188 157.32913208007812 146.4163055419922 152.51417541503906 160.21678161621094" stroke-width="3.0" fill="none" stroke="rgb(0, 0, 0)" stroke-opacity="1.0" stroke-linecap="round" stroke-linejoin="round"/>
    <path d="M 148.80715942382812 144.55812072753906 C 155.1928253173828 144.3846435546875 147.179931640625 139.27642822265625 138.54403686523438 152.6765899658203" stroke-width="3.0" fill="none" stroke="rgb(0, 0, 0)" stroke-opacity="1.0" stroke-linecap="round" stroke-linejoin="round"/>
    <path d="M 117.6975326538086 158.02325439453125 C 131.7550811767578 155.6208953857422 117.92092895507812 161.37962341308594 143.67620849609375 160.36087036132812" stroke-width="3.0" fill="none" stroke="rgb(0, 0, 0)" stroke-opacity="1.0" stroke-linecap="round" stroke-linejoin="round"/>
    <path d="M 136.51922607421875 158.33648681640625 C 139.0306854248047 125.7340316772461 110.37218475341797 132.5438232421875 131.0064697265625 142.0076141357422" stroke-width="3.0" fill="none" stroke="rgb(0, 0, 0)" stroke-opacity="1.0" stroke-linecap="round" stroke-linejoin="round"/>
    <path d="M 158.4237060546875 152.9208984375 C 146.90444946289062 145.86915588378906 129.68829345703125 170.33670043945312 156.65711975097656 154.21896362304688" stroke-width="3.0" fill="none" stroke="rgb(0, 0, 0)" stroke-opacity="1.0" stroke-linecap="round" stroke-linejoin="round"/>
    <path d="M 56.46630859375 102.93064880371094 C 117.53935241699219 168.79942321777344 104.16291046142578 194.71051025390625 118.10503387451172 152.1634063720703" stroke-width="3.0" fill="none" stroke="rgb(0, 0, 0)" stroke-opacity="1.0" stroke-linecap="round" stroke-linejoin="round"/>
    <path d="M 153.45179748535156 166.4856414794922 C 146.58782958984375 188.19369506835938 148.44888305664062 190.62889099121094 149.91954040527344 172.61830139160156" stroke-width="3.0" fill="none" stroke="rgb(0, 0, 0)" stroke-opacity="1.0" stroke-linecap="round" stroke-linejoin="round"/>
    <path d="M 125.75460052490234 193.92835998535156 C 117.35250091552734 156.28138732910156 114.13175964355469 148.75375366210938 126.64299774169922 196.73464965820312" stroke-width="3.0" fill="none" stroke="rgb(0, 0, 0)" stroke-opacity="1.0" stroke-linecap="round" stroke-linejoin="round"/>
    <path d="M 159.100341796875 150.2351531982422 C 144.0066375732422 154.26414489746094 139.00515747070312 142.6591796875 156.71343994140625 154.6771240234375" stroke-width="3.0" fill="none" stroke="rgb(0, 0, 0)" stroke-opacity="1.0" stroke-linecap="round" stroke-linejoin="round"/>
    <path d="M 129.58790588378906 156.4560089111328 C 97.2119140625 175.67636108398438 147.65748596191406 172.57839965820312 151.8860321044922 171.939208984375" stroke-width="3.0" fill="none" stroke="rgb(0, 0, 0)" stroke-opacity="1.0" stroke-linecap="round" stroke-linejoin="round"/>
    <path d="M 142.5950469970703 130.26454162597656 C 127.88766479492188 175.85096740722656 146.43801879882812 163.1075897216797 120.49474334716797 139.77597045898438" stroke-width="3.0" fill="none" stroke="rgb(0, 0, 0)" stroke-opacity="1.0" stroke-linecap="round" stroke-linejoin="round"/>
    <path d="M 124.5743637084961 149.0947723388672 C 143.3216094970703 165.15628051757812 134.83116149902344 156.2054443359375 141.69822692871094 155.457275390625" stroke-width="3.0" fill="none" stroke="rgb(0, 0, 0)" stroke-opacity="1.0" stroke-linecap="round" stroke-linejoin="round"/>
    <path d="M 151.59083557128906 158.90957641601562 C 146.90411376953125 195.43508911132812 145.85995483398438 232.04356384277344 147.8411865234375 176.75332641601562" stroke-width="3.0" fill="none" stroke="rgb(0, 0, 0)" stroke-opacity="1.0" stroke-linecap="round" stroke-linejoin="round"/>
    <path d="M 109.49251556396484 39.034912109375 C 129.40615844726562 43.1480827331543 127.83494567871094 44.641780853271484 140.11277770996094 49.334049224853516" stroke-width="3.0" fill="none" stroke="rgb(0, 0, 0)" stroke-opacity="1.0" stroke-linecap="round" stroke-linejoin="round"/>
    <path d="M 91.17110443115234 55.10115432739258 C 92.55819702148438 64.41075134277344 96.82915496826172 65.64559173583984 101.2452163696289 76.07928466796875" stroke-width="3.0" fill="none" stroke="rgb(0, 0, 0)" stroke-opacity="1.0" stroke-linecap="round" stroke-linejoin="round"/>
  </g>
</svg>
