<?xml version="1.0" ?>
<svg xmlns="http://www.w3.org/2000/svg" version="1.1" width="224" height="224">
  <defs/>
  <g>
    <path d="M 143.53468322753906 141.1322784423828 C 112.5832290649414 163.62782287597656 149.0257110595703 136.62408447265625 134.20945739746094 136.46551513671875" stroke-width="3.0" fill="none" stroke="rgb(0, 0, 0)" stroke-opacity="1.0" stroke-linecap="round" stroke-linejoin="round"/>
    <path d="M 137.66470336914062 153.3427276611328 C 153.80482482910156 177.54092407226562 160.7349853515625 133.60122680664062 150.8205108642578 153.5287322998047" stroke-width="3.0" fill="none" stroke="rgb(0, 0, 0)" stroke-opacity="1.0" stroke-linecap="round" stroke-linejoin="round"/>
    <path d="M 143.3068084716797 130.9674530029297 C 126.59413146972656 150.99378967285156 170.65536499023438 110.28746795654297 133.32284545898438 161.9565887451172" stroke-width="3.0" fill="none" stroke="rgb(0, 0, 0)" stroke-opacity="1.0" stroke-linecap="round" stroke-linejoin="round"/>
    <path d="M 113.77757263183594 156.78231811523438 C 153.5071563720703 152.58070373535156 84.16194152832031 168.58230590820312 151.39825439453125 165.60604858398438" stroke-width="3.0" fill="none" stroke="rgb(0, 0, 0)" stroke-opacity="1.0" stroke-linecap="round" stroke-linejoin="round"/>
    <path d="M 148.0183868408203 157.37710571289062 C 146.8840789794922 120.02863311767578 103.39437866210938 124.93701171875 153.00404357910156 144.75765991210938" stroke-width="3.0" fill="none" stroke="rgb(0, 0, 0)" stroke-opacity="1.0" stroke-linecap="round" stroke-linejoin="round"/>
    <path d="M 156.61788940429688 151.2699432373047 C 147.9603271484375 136.53077697753906 114.56303405761719 167.2959442138672 160.15142822265625 148.9557647705078" stroke-width="3.0" fill="none" stroke="rgb(0, 0, 0)" stroke-opacity="1.0" stroke-linecap="round" stroke-linejoin="round"/>
    <path d="M 52.248023986816406 136.23944091796875 C 154.61822509765625 190.0511016845703 115.58818817138672 216.67901611328125 122.861572265625 141.76876831054688" stroke-width="3.0" fill="none" stroke="rgb(0, 0, 0)" stroke-opacity="1.0" stroke-linecap="round" stroke-linejoin="round"/>
    <path d="M 154.76901245117188 162.2741241455078 C 140.13674926757812 201.46743774414062 143.53732299804688 203.53395080566406 150.9417724609375 145.71002197265625" stroke-width="3.0" fill="none" stroke="rgb(0, 0, 0)" stroke-opacity="1.0" stroke-linecap="round" stroke-linejoin="round"/>
    <path d="M 124.48828125 186.69845581054688 C 112.4731674194336 143.3364715576172 111.08878326416016 133.759033203125 125.30286407470703 187.47079467773438" stroke-width="3.0" fill="none" stroke="rgb(0, 0, 0)" stroke-opacity="1.0" stroke-linecap="round" stroke-linejoin="round"/>
    <path d="M 151.1703643798828 138.3893280029297 C 124.54286193847656 139.82748413085938 120.20279693603516 132.07394409179688 150.1881866455078 158.2691650390625" stroke-width="3.0" fill="none" stroke="rgb(0, 0, 0)" stroke-opacity="1.0" stroke-linecap="round" stroke-linejoin="round"/>
    <path d="M 125.39987182617188 152.44606018066406 C 103.73726654052734 203.2273406982422 149.96116638183594 189.43006896972656 149.05496215820312 187.6361846923828" stroke-width="3.0" fill="none" stroke="rgb(0, 0, 0)" stroke-opacity="1.0" stroke-linecap="round" stroke-linejoin="round"/>
    <path d="M 136.9663543701172 128.2212371826172 C 94.31166076660156 168.52127075195312 137.74642944335938 153.91940307617188 126.72154235839844 134.11029052734375" stroke-width="3.0" fill="none" stroke="rgb(0, 0, 0)" stroke-opacity="1.0" stroke-linecap="round" stroke-linejoin="round"/>
    <path d="M 117.21437072753906 146.80374145507812 C 162.17376708984375 150.64559936523438 137.2113800048828 175.07379150390625 118.6957015991211 143.1622314453125" stroke-width="3.0" fill="none" stroke="rgb(0, 0, 0)" stroke-opacity="1.0" stroke-linecap="round" stroke-linejoin="round"/>
    <path d="M 147.12974548339844 181.14279174804688 C 147.6792755126953 181.75538635253906 154.05938720703125 200.97325134277344 149.14149475097656 182.65957641601562" stroke-width="3.0" fill="none" stroke="rgb(0, 0, 0)" stroke-opacity="1.0" stroke-linecap="round" stroke-linejoin="round"/>
    <path d="M 95.04358673095703 57.031150817871094 C 120.4299087524414 23.055959701538086 112.77128601074219 46.28458023071289 139.11944580078125 35.552886962890625" stroke-width="3.0" fill="none" stroke="rgb(0, 0, 0)" stroke-opacity="1.0" stroke-linecap="round" stroke-linejoin="round"/>
    <path d="M 125.73929595947266 42.02939987182617 C 82.43746948242188 82.95852661132812 110.3526840209961 26.52284812927246 59.11383056640625 119.48402404785156" stroke-width="3.0" fill="none" stroke="rgb(0, 0, 0)" stroke-opacity="1.0" stroke-linecap="round" stroke-linejoin="round"/>
  </g>
</svg>
