<?xml version="1.0" ?>
<svg xmlns="http://www.w3.org/2000/svg" version="1.1" width="224" height="224">
  <defs/>
  <g>
    <path d="M 144.7086181640625 134.3705596923828 C 114.58013153076172 173.1287078857422 153.88497924804688 142.27133178710938 125.64813232421875 153.00222778320312" stroke-width="3.0" fill="none" stroke="rgb(0, 0, 0)" stroke-opacity="1.0" stroke-linecap="round" stroke-linejoin="round"/>
    <path d="M 145.69921875 130.2724609375 C 149.9289093017578 181.01028442382812 165.2456817626953 136.5000457763672 149.83572387695312 157.402099609375" stroke-width="3.0" fill="none" stroke="rgb(0, 0, 0)" stroke-opacity="1.0" stroke-linecap="round" stroke-linejoin="round"/>
    <path d="M 150.5862579345703 135.50099182128906 C 123.80533599853516 160.1460418701172 176.47579956054688 115.21441650390625 137.22987365722656 158.986572265625" stroke-width="3.0" fill="none" stroke="rgb(0, 0, 0)" stroke-opacity="1.0" stroke-linecap="round" stroke-linejoin="round"/>
    <path d="M 117.77326202392578 150.22286987304688 C 161.57843017578125 156.7236328125 87.36563873291016 170.33203125 151.0334930419922 165.12188720703125" stroke-width="3.0" fill="none" stroke="rgb(0, 0, 0)" stroke-opacity="1.0" stroke-linecap="round" stroke-linejoin="round"/>
    <path d="M 151.37786865234375 158.69400024414062 C 140.6689453125 132.64852905273438 106.560546875 126.4240493774414 146.24465942382812 152.6679229736328" stroke-width="3.0" fill="none" stroke="rgb(0, 0, 0)" stroke-opacity="1.0" stroke-linecap="round" stroke-linejoin="round"/>
    <path d="M 154.13804626464844 151.17332458496094 C 153.79335021972656 135.03179931640625 127.06888580322266 172.6352081298828 156.8022918701172 153.0618896484375" stroke-width="3.0" fill="none" stroke="rgb(0, 0, 0)" stroke-opacity="1.0" stroke-linecap="round" stroke-linejoin="round"/>
    <path d="M 65.79097747802734 174.8776092529297 C 155.07017517089844 166.9733428955078 111.63903045654297 196.67135620117188 127.04805755615234 145.22312927246094" stroke-width="3.0" fill="none" stroke="rgb(0, 0, 0)" stroke-opacity="1.0" stroke-linecap="round" stroke-linejoin="round"/>
    <path d="M 153.59298706054688 145.6977996826172 C 153.32337951660156 204.16368103027344 137.39515686035156 190.8334197998047 158.11297607421875 152.55239868164062" stroke-width="3.0" fill="none" stroke="rgb(0, 0, 0)" stroke-opacity="1.0" stroke-linecap="round" stroke-linejoin="round"/>
    <path d="M 126.17080688476562 183.26409912109375 C 122.3380126953125 130.98959350585938 116.6978530883789 133.28048706054688 124.71344757080078 184.7444610595703" stroke-width="3.0" fill="none" stroke="rgb(0, 0, 0)" stroke-opacity="1.0" stroke-linecap="round" stroke-linejoin="round"/>
    <path d="M 149.47100830078125 131.90733337402344 C 118.80364990234375 150.3189239501953 110.8816146850586 153.6117401123047 154.82894897460938 158.70623779296875" stroke-width="3.0" fill="none" stroke="rgb(0, 0, 0)" stroke-opacity="1.0" stroke-linecap="round" stroke-linejoin="round"/>
    <path d="M 130.78553771972656 150.19850158691406 C 101.21664428710938 203.95285034179688 151.62705993652344 187.57191467285156 148.35694885253906 184.1322021484375" stroke-width="3.0" fill="none" stroke="rgb(0, 0, 0)" stroke-opacity="1.0" stroke-linecap="round" stroke-linejoin="round"/>
    <path d="M 133.61814880371094 131.1192626953125 C 93.02314758300781 173.7946014404297 147.98114013671875 169.27359008789062 136.95704650878906 133.60939025878906" stroke-width="3.0" fill="none" stroke="rgb(0, 0, 0)" stroke-opacity="1.0" stroke-linecap="round" stroke-linejoin="round"/>
    <path d="M 118.4980697631836 143.07554626464844 C 155.8571319580078 152.95050048828125 151.56768798828125 171.0056915283203 124.49707794189453 134.4934539794922" stroke-width="3.0" fill="none" stroke="rgb(0, 0, 0)" stroke-opacity="1.0" stroke-linecap="round" stroke-linejoin="round"/>
    <path d="M 151.66995239257812 175.6854705810547 C 143.09286499023438 191.43746948242188 148.489990234375 191.2303466796875 151.84857177734375 169.9796142578125" stroke-width="3.0" fill="none" stroke="rgb(0, 0, 0)" stroke-opacity="1.0" stroke-linecap="round" stroke-linejoin="round"/>
    <path d="M 93.5085220336914 61.93609619140625 C 98.99691772460938 23.749021530151367 133.09596252441406 28.025651931762695 137.80873107910156 36.73174285888672" stroke-width="3.0" fill="none" stroke="rgb(0, 0, 0)" stroke-opacity="1.0" stroke-linecap="round" stroke-linejoin="round"/>
    <path d="M 134.59205627441406 39.93832015991211 C 75.90326690673828 133.72776794433594 126.53545379638672 -15.473044395446777 53.67788314819336 132.9153289794922" stroke-width="3.0" fill="none" stroke="rgb(0, 0, 0)" stroke-opacity="1.0" stroke-linecap="round" stroke-linejoin="round"/>
  </g>
</svg>
