<?xml version="1.0" ?>
<svg xmlns="http://www.w3.org/2000/svg" version="1.1" width="224" height="224">
  <defs/>
  <g>
    <path d="M 142.99972534179688 141.0281982421875 C 95.4983139038086 174.79522705078125 161.82125854492188 152.8848419189453 128.75112915039062 163.5578155517578" stroke-width="3.0" fill="none" stroke="rgb(0, 0, 0)" stroke-opacity="1.0" stroke-linecap="round" stroke-linejoin="round"/>
    <path d="M 142.73321533203125 131.26943969726562 C 157.91224670410156 176.93142700195312 170.89089965820312 137.69944763183594 134.1971893310547 158.89932250976562" stroke-width="3.0" fill="none" stroke="rgb(0, 0, 0)" stroke-opacity="1.0" stroke-linecap="round" stroke-linejoin="round"/>
    <path d="M 147.60787963867188 130.96400451660156 C 117.448486328125 154.7555694580078 176.09170532226562 105.40203857421875 131.45663452148438 160.1326446533203" stroke-width="3.0" fill="none" stroke="rgb(0, 0, 0)" stroke-opacity="1.0" stroke-linecap="round" stroke-linejoin="round"/>
    <path d="M 113.37876892089844 151.25926208496094 C 162.03631591796875 150.7591552734375 84.55406951904297 175.77597045898438 148.36160278320312 173.04583740234375" stroke-width="3.0" fill="none" stroke="rgb(0, 0, 0)" stroke-opacity="1.0" stroke-linecap="round" stroke-linejoin="round"/>
    <path d="M 139.81080627441406 161.0522003173828 C 145.9108123779297 131.52603149414062 102.55085754394531 121.43384552001953 140.2412872314453 159.01300048828125" stroke-width="3.0" fill="none" stroke="rgb(0, 0, 0)" stroke-opacity="1.0" stroke-linecap="round" stroke-linejoin="round"/>
    <path d="M 152.08840942382812 157.37472534179688 C 162.52061462402344 141.85604858398438 127.78650665283203 182.6556854248047 154.43731689453125 148.60678100585938" stroke-width="3.0" fill="none" stroke="rgb(0, 0, 0)" stroke-opacity="1.0" stroke-linecap="round" stroke-linejoin="round"/>
    <path d="M 71.53914642333984 179.6792755126953 C 158.02992248535156 184.37550354003906 114.70960235595703 198.15008544921875 121.31824493408203 137.6455841064453" stroke-width="3.0" fill="none" stroke="rgb(0, 0, 0)" stroke-opacity="1.0" stroke-linecap="round" stroke-linejoin="round"/>
    <path d="M 150.83285522460938 141.23159790039062 C 154.85006713867188 187.12847900390625 140.6870880126953 201.5847625732422 153.53152465820312 164.0878448486328" stroke-width="3.0" fill="none" stroke="rgb(0, 0, 0)" stroke-opacity="1.0" stroke-linecap="round" stroke-linejoin="round"/>
    <path d="M 123.61491394042969 176.15667724609375 C 117.84049224853516 147.5462646484375 121.31829071044922 135.91075134277344 122.59546661376953 181.93487548828125" stroke-width="3.0" fill="none" stroke="rgb(0, 0, 0)" stroke-opacity="1.0" stroke-linecap="round" stroke-linejoin="round"/>
    <path d="M 152.24374389648438 136.375 C 109.72534942626953 150.9776611328125 100.42218017578125 170.9459686279297 149.9207763671875 162.02906799316406" stroke-width="3.0" fill="none" stroke="rgb(0, 0, 0)" stroke-opacity="1.0" stroke-linecap="round" stroke-linejoin="round"/>
    <path d="M 129.596923828125 141.29615783691406 C 103.7469711303711 205.5885772705078 151.224365234375 182.5476531982422 144.05616760253906 185.5906524658203" stroke-width="3.0" fill="none" stroke="rgb(0, 0, 0)" stroke-opacity="1.0" stroke-linecap="round" stroke-linejoin="round"/>
    <path d="M 138.32864379882812 128.750244140625 C 83.87815856933594 170.76535034179688 152.99449157714844 169.03201293945312 133.29656982421875 127.14617156982422" stroke-width="3.0" fill="none" stroke="rgb(0, 0, 0)" stroke-opacity="1.0" stroke-linecap="round" stroke-linejoin="round"/>
    <path d="M 117.76655578613281 141.56671142578125 C 153.1069793701172 167.27044677734375 164.00563049316406 167.15628051757812 126.77145385742188 132.00198364257812" stroke-width="3.0" fill="none" stroke="rgb(0, 0, 0)" stroke-opacity="1.0" stroke-linecap="round" stroke-linejoin="round"/>
    <path d="M 153.61953735351562 163.06365966796875 C 142.8717498779297 195.10568237304688 145.1901092529297 178.02960205078125 148.7602081298828 176.1679229736328" stroke-width="3.0" fill="none" stroke="rgb(0, 0, 0)" stroke-opacity="1.0" stroke-linecap="round" stroke-linejoin="round"/>
    <path d="M 95.20987701416016 60.34799575805664 C 95.87066650390625 42.67812728881836 118.93280792236328 28.787870407104492 136.38906860351562 38.10006332397461" stroke-width="3.0" fill="none" stroke="rgb(0, 0, 0)" stroke-opacity="1.0" stroke-linecap="round" stroke-linejoin="round"/>
    <path d="M 139.4979248046875 38.68772888183594 C 80.46728515625 146.56845092773438 126.35470581054688 -27.27411460876465 53.72200393676758 136.21624755859375" stroke-width="3.0" fill="none" stroke="rgb(0, 0, 0)" stroke-opacity="1.0" stroke-linecap="round" stroke-linejoin="round"/>
  </g>
</svg>
