<?xml version="1.0" ?>
<svg xmlns="http://www.w3.org/2000/svg" version="1.1" width="224" height="224">
  <defs/>
  <g>
    <path d="M 147.19300842285156 143.97518920898438 C 96.25105285644531 173.3749542236328 163.40264892578125 153.85140991210938 129.14486694335938 159.1378631591797" stroke-width="3.0" fill="none" stroke="rgb(0, 0, 0)" stroke-opacity="1.0" stroke-linecap="round" stroke-linejoin="round"/>
    <path d="M 141.22593688964844 131.62796020507812 C 154.07872009277344 176.7205352783203 167.89947509765625 129.82601928710938 136.1068572998047 156.20199584960938" stroke-width="3.0" fill="none" stroke="rgb(0, 0, 0)" stroke-opacity="1.0" stroke-linecap="round" stroke-linejoin="round"/>
    <path d="M 144.64308166503906 130.46473693847656 C 117.10659790039062 156.74484252929688 174.4004669189453 106.2507553100586 131.25852966308594 160.94822692871094" stroke-width="3.0" fill="none" stroke="rgb(0, 0, 0)" stroke-opacity="1.0" stroke-linecap="round" stroke-linejoin="round"/>
    <path d="M 113.90648651123047 152.9886474609375 C 158.61917114257812 145.7556915283203 82.58386993408203 174.3014678955078 149.13648986816406 173.34434509277344" stroke-width="3.0" fill="none" stroke="rgb(0, 0, 0)" stroke-opacity="1.0" stroke-linecap="round" stroke-linejoin="round"/>
    <path d="M 136.8812713623047 162.550048828125 C 143.73988342285156 131.64649963378906 105.64192199707031 118.06230163574219 135.99862670898438 160.15028381347656" stroke-width="3.0" fill="none" stroke="rgb(0, 0, 0)" stroke-opacity="1.0" stroke-linecap="round" stroke-linejoin="round"/>
    <path d="M 149.77499389648438 157.12330627441406 C 165.29052734375 145.2029266357422 124.09906768798828 180.40513610839844 156.25674438476562 143.7677001953125" stroke-width="3.0" fill="none" stroke="rgb(0, 0, 0)" stroke-opacity="1.0" stroke-linecap="round" stroke-linejoin="round"/>
    <path d="M 70.19660949707031 176.7728729248047 C 155.40000915527344 182.95339965820312 114.60816192626953 197.60897827148438 121.3224105834961 142.30252075195312" stroke-width="3.0" fill="none" stroke="rgb(0, 0, 0)" stroke-opacity="1.0" stroke-linecap="round" stroke-linejoin="round"/>
    <path d="M 150.1897735595703 143.9228057861328 C 156.9087371826172 188.78750610351562 136.53273010253906 202.27023315429688 155.96461486816406 164.04222106933594" stroke-width="3.0" fill="none" stroke="rgb(0, 0, 0)" stroke-opacity="1.0" stroke-linecap="round" stroke-linejoin="round"/>
    <path d="M 123.30022430419922 175.6616668701172 C 118.31586456298828 146.63902282714844 122.17240905761719 133.6990203857422 120.98416137695312 181.91090393066406" stroke-width="3.0" fill="none" stroke="rgb(0, 0, 0)" stroke-opacity="1.0" stroke-linecap="round" stroke-linejoin="round"/>
    <path d="M 150.57901000976562 138.4383087158203 C 110.46686553955078 148.030029296875 103.32435607910156 170.33543395996094 149.9065704345703 160.71200561523438" stroke-width="3.0" fill="none" stroke="rgb(0, 0, 0)" stroke-opacity="1.0" stroke-linecap="round" stroke-linejoin="round"/>
    <path d="M 128.80479431152344 140.4080047607422 C 101.85334014892578 204.7767791748047 150.30960083007812 184.74554443359375 144.75433349609375 186.2625732421875" stroke-width="3.0" fill="none" stroke="rgb(0, 0, 0)" stroke-opacity="1.0" stroke-linecap="round" stroke-linejoin="round"/>
    <path d="M 136.72634887695312 131.6556396484375 C 81.56803894042969 168.70826721191406 152.11782836914062 168.0137176513672 132.73260498046875 127.88988494873047" stroke-width="3.0" fill="none" stroke="rgb(0, 0, 0)" stroke-opacity="1.0" stroke-linecap="round" stroke-linejoin="round"/>
    <path d="M 115.081298828125 144.7810821533203 C 157.0909423828125 165.1327362060547 163.0737762451172 169.9468231201172 126.3426742553711 131.50851440429688" stroke-width="3.0" fill="none" stroke="rgb(0, 0, 0)" stroke-opacity="1.0" stroke-linecap="round" stroke-linejoin="round"/>
    <path d="M 152.84017944335938 162.27001953125 C 145.01553344726562 192.55975341796875 150.9774932861328 174.37046813964844 149.89923095703125 176.8317108154297" stroke-width="3.0" fill="none" stroke="rgb(0, 0, 0)" stroke-opacity="1.0" stroke-linecap="round" stroke-linejoin="round"/>
    <path d="M 93.586669921875 60.17939758300781 C 93.80557250976562 43.52425765991211 116.66249084472656 24.003347396850586 138.50296020507812 38.03303527832031" stroke-width="3.0" fill="none" stroke="rgb(0, 0, 0)" stroke-opacity="1.0" stroke-linecap="round" stroke-linejoin="round"/>
    <path d="M 138.64878845214844 37.59316635131836 C 79.24415588378906 141.62860107421875 125.87003326416016 -32.54378890991211 55.96175765991211 141.85655212402344" stroke-width="3.0" fill="none" stroke="rgb(0, 0, 0)" stroke-opacity="1.0" stroke-linecap="round" stroke-linejoin="round"/>
  </g>
</svg>
