<?xml version="1.0" ?>
<svg xmlns="http://www.w3.org/2000/svg" version="1.1" width="224" height="224">
  <defs/>
  <g>
    <path d="M 129.464111328125 154.50979614257812 C 116.4356460571289 148.9715118408203 146.85606384277344 142.24208068847656 139.30067443847656 143.4540252685547" stroke-width="3.0" fill="none" stroke="rgb(0, 0, 0)" stroke-opacity="1.0" stroke-linecap="round" stroke-linejoin="round"/>
    <path d="M 141.7380828857422 155.87767028808594 C 148.81492614746094 161.44772338867188 155.78761291503906 134.13893127441406 155.36920166015625 151.21676635742188" stroke-width="3.0" fill="none" stroke="rgb(0, 0, 0)" stroke-opacity="1.0" stroke-linecap="round" stroke-linejoin="round"/>
    <path d="M 144.53582763671875 130.94882202148438 C 119.7354736328125 150.34072875976562 166.23646545410156 118.90081787109375 137.7551727294922 150.9098663330078" stroke-width="3.0" fill="none" stroke="rgb(0, 0, 0)" stroke-opacity="1.0" stroke-linecap="round" stroke-linejoin="round"/>
    <path d="M 114.51466369628906 154.24786376953125 C 151.9792022705078 157.69888305664062 89.2800521850586 172.78477478027344 151.64495849609375 165.6662139892578" stroke-width="3.0" fill="none" stroke="rgb(0, 0, 0)" stroke-opacity="1.0" stroke-linecap="round" stroke-linejoin="round"/>
    <path d="M 141.82786560058594 159.0947265625 C 146.85255432128906 116.61004638671875 113.74008178710938 129.1422576904297 137.7842559814453 142.31369018554688" stroke-width="3.0" fill="none" stroke="rgb(0, 0, 0)" stroke-opacity="1.0" stroke-linecap="round" stroke-linejoin="round"/>
    <path d="M 150.15467834472656 144.40350341796875 C 146.24107360839844 135.2578887939453 123.08138275146484 165.79721069335938 160.16575622558594 150.63465881347656" stroke-width="3.0" fill="none" stroke="rgb(0, 0, 0)" stroke-opacity="1.0" stroke-linecap="round" stroke-linejoin="round"/>
    <path d="M 51.24665451049805 112.19178771972656 C 145.1826171875 189.99700927734375 120.00605773925781 225.10861206054688 120.4058837890625 141.97537231445312" stroke-width="3.0" fill="none" stroke="rgb(0, 0, 0)" stroke-opacity="1.0" stroke-linecap="round" stroke-linejoin="round"/>
    <path d="M 155.36563110351562 161.05992126464844 C 146.74700927734375 191.76150512695312 147.21505737304688 193.83033752441406 153.37757873535156 169.13388061523438" stroke-width="3.0" fill="none" stroke="rgb(0, 0, 0)" stroke-opacity="1.0" stroke-linecap="round" stroke-linejoin="round"/>
    <path d="M 130.43894958496094 189.64173889160156 C 113.05905151367188 137.65940856933594 110.69127655029297 130.00860595703125 125.66291809082031 188.01931762695312" stroke-width="3.0" fill="none" stroke="rgb(0, 0, 0)" stroke-opacity="1.0" stroke-linecap="round" stroke-linejoin="round"/>
    <path d="M 152.1422119140625 140.2720489501953 C 126.77935791015625 138.3370361328125 130.50799560546875 127.40266418457031 152.9485626220703 158.1823272705078" stroke-width="3.0" fill="none" stroke="rgb(0, 0, 0)" stroke-opacity="1.0" stroke-linecap="round" stroke-linejoin="round"/>
    <path d="M 123.34475708007812 156.2388916015625 C 102.77033233642578 199.24562072753906 148.67970275878906 192.1424560546875 150.23568725585938 188.0872802734375" stroke-width="3.0" fill="none" stroke="rgb(0, 0, 0)" stroke-opacity="1.0" stroke-linecap="round" stroke-linejoin="round"/>
    <path d="M 133.4754180908203 127.2550277709961 C 116.67243194580078 167.03634643554688 143.9996795654297 163.6654510498047 125.25454711914062 140.17568969726562" stroke-width="3.0" fill="none" stroke="rgb(0, 0, 0)" stroke-opacity="1.0" stroke-linecap="round" stroke-linejoin="round"/>
    <path d="M 119.4731674194336 140.620361328125 C 152.32688903808594 161.0819854736328 133.74375915527344 162.95001220703125 126.0210189819336 139.10116577148438" stroke-width="3.0" fill="none" stroke="rgb(0, 0, 0)" stroke-opacity="1.0" stroke-linecap="round" stroke-linejoin="round"/>
    <path d="M 149.9501190185547 188.9006805419922 C 148.8483123779297 185.34011840820312 160.14105224609375 203.7540740966797 148.6623992919922 187.2022705078125" stroke-width="3.0" fill="none" stroke="rgb(0, 0, 0)" stroke-opacity="1.0" stroke-linecap="round" stroke-linejoin="round"/>
    <path d="M 106.96728515625 51.981285095214844 C 121.34822845458984 42.78988265991211 116.8360595703125 48.905853271484375 142.2541961669922 43.3647575378418" stroke-width="3.0" fill="none" stroke="rgb(0, 0, 0)" stroke-opacity="1.0" stroke-linecap="round" stroke-linejoin="round"/>
    <path d="M 116.3565673828125 51.55074691772461 C 88.41608428955078 77.49144744873047 96.4173355102539 36.454010009765625 60.59111022949219 110.98894500732422" stroke-width="3.0" fill="none" stroke="rgb(0, 0, 0)" stroke-opacity="1.0" stroke-linecap="round" stroke-linejoin="round"/>
  </g>
</svg>
