<?xml version="1.0" ?>
<svg xmlns="http://www.w3.org/2000/svg" version="1.1" width="224" height="224">
  <defs/>
  <g>
    <path d="M 125.64813232421875 89.36439514160156 C 134.51991271972656 104.49769592285156 122.19271850585938 99.30309295654297 129.77780151367188 94.96114349365234" stroke-width="3.0" fill="none" stroke="rgb(0, 0, 0)" stroke-opacity="1.0" stroke-linecap="round" stroke-linejoin="round"/>
    <path d="M 129.9851837158203 88.42842102050781 C 146.9217529296875 134.19155883789062 113.531494140625 103.29833221435547 134.36842346191406 104.43687438964844" stroke-width="3.0" fill="none" stroke="rgb(0, 0, 0)" stroke-opacity="1.0" stroke-linecap="round" stroke-linejoin="round"/>
    <path d="M 117.9203872680664 75.4737319946289 C 86.97447967529297 37.118751525878906 47.79977035522461 114.72196197509766 89.97770690917969 146.87770080566406" stroke-width="3.0" fill="none" stroke="rgb(0, 0, 0)" stroke-opacity="1.0" stroke-linecap="round" stroke-linejoin="round"/>
    <path d="M 113.21812438964844 93.3454818725586 C 123.28160858154297 139.12326049804688 86.87826538085938 110.00605773925781 112.48969268798828 92.89591217041016" stroke-width="3.0" fill="none" stroke="rgb(0, 0, 0)" stroke-opacity="1.0" stroke-linecap="round" stroke-linejoin="round"/>
    <path d="M 128.63961791992188 89.82073211669922 C 136.46026611328125 89.53466796875 144.34596252441406 118.93151092529297 127.3560562133789 132.8038330078125" stroke-width="3.0" fill="none" stroke="rgb(0, 0, 0)" stroke-opacity="1.0" stroke-linecap="round" stroke-linejoin="round"/>
    <path d="M 107.11395263671875 104.99122619628906 C 130.4783935546875 49.83390426635742 114.99497985839844 115.56776428222656 121.88955688476562 128.06024169921875" stroke-width="3.0" fill="none" stroke="rgb(0, 0, 0)" stroke-opacity="1.0" stroke-linecap="round" stroke-linejoin="round"/>
    <path d="M 105.28691864013672 99.4815902709961 C 120.7848129272461 133.58763122558594 96.64097595214844 80.757568359375 108.32347869873047 111.51347351074219" stroke-width="3.0" fill="none" stroke="rgb(0, 0, 0)" stroke-opacity="1.0" stroke-linecap="round" stroke-linejoin="round"/>
    <path d="M 110.60847473144531 147.07920837402344 C 131.56703186035156 99.39920806884766 121.87028503417969 156.91531372070312 129.05140686035156 150.8865203857422" stroke-width="3.0" fill="none" stroke="rgb(0, 0, 0)" stroke-opacity="1.0" stroke-linecap="round" stroke-linejoin="round"/>
    <path d="M 172.96469116210938 111.12535095214844 C 170.45962524414062 130.92286682128906 149.2378692626953 154.34783935546875 130.20741271972656 151.32369995117188" stroke-width="3.0" fill="none" stroke="rgb(0, 0, 0)" stroke-opacity="1.0" stroke-linecap="round" stroke-linejoin="round"/>
    <path d="M 129.81097412109375 109.9251708984375 C 143.7159423828125 103.3620376586914 107.67452239990234 58.34068298339844 113.9438705444336 113.0292739868164" stroke-width="3.0" fill="none" stroke="rgb(0, 0, 0)" stroke-opacity="1.0" stroke-linecap="round" stroke-linejoin="round"/>
    <path d="M 127.43024444580078 94.4388198852539 C 120.87135314941406 146.33348083496094 121.21661376953125 116.86317443847656 118.2205810546875 149.5917205810547" stroke-width="3.0" fill="none" stroke="rgb(0, 0, 0)" stroke-opacity="1.0" stroke-linecap="round" stroke-linejoin="round"/>
    <path d="M 127.71483612060547 85.281982421875 C 141.06492614746094 93.4830551147461 130.97564697265625 110.23058319091797 117.18746185302734 63.42512893676758" stroke-width="3.0" fill="none" stroke="rgb(0, 0, 0)" stroke-opacity="1.0" stroke-linecap="round" stroke-linejoin="round"/>
    <path d="M 118.23876953125 75.4522933959961 C 134.57058715820312 109.15577697753906 134.1658935546875 77.25650787353516 134.09393310546875 106.57872009277344" stroke-width="3.0" fill="none" stroke="rgb(0, 0, 0)" stroke-opacity="1.0" stroke-linecap="round" stroke-linejoin="round"/>
    <path d="M 87.05744934082031 146.3138885498047 C 104.25347900390625 162.43365478515625 93.57323455810547 144.43194580078125 132.25534057617188 152.4348907470703" stroke-width="3.0" fill="none" stroke="rgb(0, 0, 0)" stroke-opacity="1.0" stroke-linecap="round" stroke-linejoin="round"/>
    <path d="M 122.39131164550781 98.6836929321289 C 105.4317626953125 27.997262954711914 182.88551330566406 68.87366485595703 172.33135986328125 112.86360931396484" stroke-width="3.0" fill="none" stroke="rgb(0, 0, 0)" stroke-opacity="1.0" stroke-linecap="round" stroke-linejoin="round"/>
    <path d="M 110.50536346435547 41.55183792114258 C 120.89614868164062 62.748435974121094 101.68281555175781 70.86180114746094 127.06233978271484 61.81351089477539" stroke-width="3.0" fill="none" stroke="rgb(0, 0, 0)" stroke-opacity="1.0" stroke-linecap="round" stroke-linejoin="round"/>
  </g>
</svg>
