<?xml version="1.0" ?>
<svg xmlns="http://www.w3.org/2000/svg" version="1.1" width="224" height="224">
  <defs/>
  <g>
    <path d="M 111.38379669189453 93.26163482666016 C 135.23721313476562 112.66336059570312 121.92694854736328 117.92957305908203 125.66218566894531 92.28305053710938" stroke-width="3.0" fill="none" stroke="rgb(0, 0, 0)" stroke-opacity="1.0" stroke-linecap="round" stroke-linejoin="round"/>
    <path d="M 123.45711517333984 95.99698638916016 C 136.18478393554688 118.01019287109375 111.65886688232422 114.73882293701172 130.00006103515625 99.80799865722656" stroke-width="3.0" fill="none" stroke="rgb(0, 0, 0)" stroke-opacity="1.0" stroke-linecap="round" stroke-linejoin="round"/>
    <path d="M 113.6300048828125 71.90769958496094 C 82.74250030517578 42.665401458740234 49.10312271118164 117.29410552978516 90.78179168701172 147.0867156982422" stroke-width="3.0" fill="none" stroke="rgb(0, 0, 0)" stroke-opacity="1.0" stroke-linecap="round" stroke-linejoin="round"/>
    <path d="M 115.78397369384766 127.02049255371094 C 119.63314056396484 116.06440734863281 111.35273742675781 137.1924591064453 103.1550064086914 110.32953643798828" stroke-width="3.0" fill="none" stroke="rgb(0, 0, 0)" stroke-opacity="1.0" stroke-linecap="round" stroke-linejoin="round"/>
    <path d="M 124.88526153564453 87.58716583251953 C 131.1615753173828 100.00192260742188 138.11004638671875 104.25692749023438 123.35620880126953 130.0226287841797" stroke-width="3.0" fill="none" stroke="rgb(0, 0, 0)" stroke-opacity="1.0" stroke-linecap="round" stroke-linejoin="round"/>
    <path d="M 111.68925476074219 83.6258773803711 C 102.98635864257812 91.36262512207031 102.93099975585938 124.13758850097656 120.37467193603516 131.5438690185547" stroke-width="3.0" fill="none" stroke="rgb(0, 0, 0)" stroke-opacity="1.0" stroke-linecap="round" stroke-linejoin="round"/>
    <path d="M 114.85237884521484 127.73409271240234 C 116.34605407714844 108.49381256103516 111.92328643798828 84.91018676757812 115.12252807617188 114.38935852050781" stroke-width="3.0" fill="none" stroke="rgb(0, 0, 0)" stroke-opacity="1.0" stroke-linecap="round" stroke-linejoin="round"/>
    <path d="M 110.87632751464844 149.21591186523438 C 138.77786254882812 122.20277404785156 101.78154754638672 152.8540802001953 144.06765747070312 149.52845764160156" stroke-width="3.0" fill="none" stroke="rgb(0, 0, 0)" stroke-opacity="1.0" stroke-linecap="round" stroke-linejoin="round"/>
    <path d="M 171.21530151367188 115.94086456298828 C 169.66310119628906 131.4019775390625 151.7628936767578 148.9752960205078 138.61940002441406 150.23329162597656" stroke-width="3.0" fill="none" stroke="rgb(0, 0, 0)" stroke-opacity="1.0" stroke-linecap="round" stroke-linejoin="round"/>
    <path d="M 114.80060577392578 128.35101318359375 C 112.02456665039062 102.21940612792969 135.88458251953125 84.8529052734375 105.23773956298828 105.39168548583984" stroke-width="3.0" fill="none" stroke="rgb(0, 0, 0)" stroke-opacity="1.0" stroke-linecap="round" stroke-linejoin="round"/>
    <path d="M 117.697021484375 109.5786361694336 C 119.89423370361328 135.29403686523438 124.96710205078125 136.9692840576172 128.71583557128906 147.8052978515625" stroke-width="3.0" fill="none" stroke="rgb(0, 0, 0)" stroke-opacity="1.0" stroke-linecap="round" stroke-linejoin="round"/>
    <path d="M 111.1867904663086 87.44043731689453 C 117.07779693603516 111.47783660888672 136.7816162109375 97.94701385498047 119.10055541992188 83.311767578125" stroke-width="3.0" fill="none" stroke="rgb(0, 0, 0)" stroke-opacity="1.0" stroke-linecap="round" stroke-linejoin="round"/>
    <path d="M 106.80372619628906 96.46853637695312 C 114.09925842285156 112.28929901123047 103.9789810180664 70.7967758178711 105.483642578125 111.26041412353516" stroke-width="3.0" fill="none" stroke="rgb(0, 0, 0)" stroke-opacity="1.0" stroke-linecap="round" stroke-linejoin="round"/>
    <path d="M 91.37737274169922 147.82113647460938 C 99.78916931152344 157.5304412841797 103.01567840576172 147.46163940429688 125.5219955444336 148.35678100585938" stroke-width="3.0" fill="none" stroke="rgb(0, 0, 0)" stroke-opacity="1.0" stroke-linecap="round" stroke-linejoin="round"/>
    <path d="M 115.34172821044922 89.32786560058594 C 99.73542785644531 35.20509719848633 183.257568359375 61.04539489746094 171.6362762451172 115.40412139892578" stroke-width="3.0" fill="none" stroke="rgb(0, 0, 0)" stroke-opacity="1.0" stroke-linecap="round" stroke-linejoin="round"/>
    <path d="M 109.0914077758789 43.73734664916992 C 127.14907836914062 68.385498046875 104.91938781738281 81.51197814941406 126.82569122314453 61.51800537109375" stroke-width="3.0" fill="none" stroke="rgb(0, 0, 0)" stroke-opacity="1.0" stroke-linecap="round" stroke-linejoin="round"/>
  </g>
</svg>
