<?xml version="1.0" ?>
<svg xmlns="http://www.w3.org/2000/svg" version="1.1" width="224" height="224">
  <defs/>
  <g>
    <path d="M 119.53327178955078 84.38462829589844 C 142.59075927734375 98.4377670288086 120.77001953125 101.26551055908203 125.13323211669922 92.10729217529297" stroke-width="3.0" fill="none" stroke="rgb(0, 0, 0)" stroke-opacity="1.0" stroke-linecap="round" stroke-linejoin="round"/>
    <path d="M 122.12186431884766 95.7474136352539 C 142.34059143066406 135.55918884277344 115.0103759765625 112.12689971923828 129.60743713378906 97.59916687011719" stroke-width="3.0" fill="none" stroke="rgb(0, 0, 0)" stroke-opacity="1.0" stroke-linecap="round" stroke-linejoin="round"/>
    <path d="M 117.19679260253906 73.21317291259766 C 83.33148193359375 39.370323181152344 47.141090393066406 113.97514343261719 91.5739517211914 148.88479614257812" stroke-width="3.0" fill="none" stroke="rgb(0, 0, 0)" stroke-opacity="1.0" stroke-linecap="round" stroke-linejoin="round"/>
    <path d="M 128.10060119628906 129.38034057617188 C 125.32565307617188 125.17879486083984 101.56208038330078 129.0244598388672 100.49870300292969 102.44037628173828" stroke-width="3.0" fill="none" stroke="rgb(0, 0, 0)" stroke-opacity="1.0" stroke-linecap="round" stroke-linejoin="round"/>
    <path d="M 127.52977752685547 92.93248748779297 C 130.39834594726562 88.19764709472656 137.44097900390625 115.66268920898438 125.72834014892578 131.93812561035156" stroke-width="3.0" fill="none" stroke="rgb(0, 0, 0)" stroke-opacity="1.0" stroke-linecap="round" stroke-linejoin="round"/>
    <path d="M 106.5584716796875 96.67073059082031 C 118.7213134765625 85.20460510253906 118.82391357421875 125.69720458984375 124.7793960571289 127.823486328125" stroke-width="3.0" fill="none" stroke="rgb(0, 0, 0)" stroke-opacity="1.0" stroke-linecap="round" stroke-linejoin="round"/>
    <path d="M 107.44934844970703 108.8668212890625 C 121.14580535888672 112.58997344970703 110.10253143310547 80.90568542480469 106.16624450683594 107.71996307373047" stroke-width="3.0" fill="none" stroke="rgb(0, 0, 0)" stroke-opacity="1.0" stroke-linecap="round" stroke-linejoin="round"/>
    <path d="M 114.50228118896484 149.5711212158203 C 136.17495727539062 107.90031433105469 101.7255859375 159.32821655273438 144.0563507080078 150.92617797851562" stroke-width="3.0" fill="none" stroke="rgb(0, 0, 0)" stroke-opacity="1.0" stroke-linecap="round" stroke-linejoin="round"/>
    <path d="M 171.85971069335938 115.14974212646484 C 168.9361114501953 131.26927185058594 153.14572143554688 149.31886291503906 138.1896209716797 150.5116729736328" stroke-width="3.0" fill="none" stroke="rgb(0, 0, 0)" stroke-opacity="1.0" stroke-linecap="round" stroke-linejoin="round"/>
    <path d="M 114.921142578125 124.3095474243164 C 118.49064636230469 96.62055969238281 133.1657257080078 64.67489624023438 106.68466186523438 100.88666534423828" stroke-width="3.0" fill="none" stroke="rgb(0, 0, 0)" stroke-opacity="1.0" stroke-linecap="round" stroke-linejoin="round"/>
    <path d="M 119.32703399658203 100.32571411132812 C 119.30654907226562 138.16481018066406 126.12846374511719 131.39297485351562 128.8554229736328 151.25608825683594" stroke-width="3.0" fill="none" stroke="rgb(0, 0, 0)" stroke-opacity="1.0" stroke-linecap="round" stroke-linejoin="round"/>
    <path d="M 120.57073974609375 80.63221740722656 C 129.46676635742188 103.54170989990234 127.69216918945312 105.64751434326172 118.67928314208984 76.57400512695312" stroke-width="3.0" fill="none" stroke="rgb(0, 0, 0)" stroke-opacity="1.0" stroke-linecap="round" stroke-linejoin="round"/>
    <path d="M 109.10042572021484 98.01263427734375 C 121.54004669189453 116.67716217041016 103.94114685058594 83.90791320800781 109.73152160644531 107.39347076416016" stroke-width="3.0" fill="none" stroke="rgb(0, 0, 0)" stroke-opacity="1.0" stroke-linecap="round" stroke-linejoin="round"/>
    <path d="M 90.44746398925781 147.73646545410156 C 104.7977294921875 158.7600860595703 103.01121520996094 145.51220703125 127.49051666259766 150.24742126464844" stroke-width="3.0" fill="none" stroke="rgb(0, 0, 0)" stroke-opacity="1.0" stroke-linecap="round" stroke-linejoin="round"/>
    <path d="M 123.66394805908203 93.67333984375 C 102.7623062133789 30.292198181152344 181.71475219726562 63.469337463378906 172.33685302734375 113.63432312011719" stroke-width="3.0" fill="none" stroke="rgb(0, 0, 0)" stroke-opacity="1.0" stroke-linecap="round" stroke-linejoin="round"/>
    <path d="M 113.1453628540039 43.62749099731445 C 121.75382995605469 68.40080261230469 103.21332550048828 73.6496353149414 120.49179077148438 64.48998260498047" stroke-width="3.0" fill="none" stroke="rgb(0, 0, 0)" stroke-opacity="1.0" stroke-linecap="round" stroke-linejoin="round"/>
  </g>
</svg>
