<?xml version="1.0" ?>
<svg xmlns="http://www.w3.org/2000/svg" version="1.1" width="224" height="224">
  <defs/>
  <g>
    <path d="M 119.5858154296875 90.35580444335938 C 133.23336791992188 105.3772964477539 123.068603515625 98.4566421508789 129.52972412109375 93.61631774902344" stroke-width="3.0" fill="none" stroke="rgb(0, 0, 0)" stroke-opacity="1.0" stroke-linecap="round" stroke-linejoin="round"/>
    <path d="M 129.204345703125 90.09236145019531 C 148.8955078125 135.59857177734375 113.7994613647461 104.73117065429688 133.69068908691406 107.67765808105469" stroke-width="3.0" fill="none" stroke="rgb(0, 0, 0)" stroke-opacity="1.0" stroke-linecap="round" stroke-linejoin="round"/>
    <path d="M 115.76033020019531 73.15141296386719 C 82.87905883789062 37.86104202270508 46.14408493041992 112.24775695800781 90.01209259033203 146.14723205566406" stroke-width="3.0" fill="none" stroke="rgb(0, 0, 0)" stroke-opacity="1.0" stroke-linecap="round" stroke-linejoin="round"/>
    <path d="M 113.61126708984375 93.67024993896484 C 123.3526840209961 136.95266723632812 92.01142120361328 108.89342498779297 111.1132583618164 88.35484313964844" stroke-width="3.0" fill="none" stroke="rgb(0, 0, 0)" stroke-opacity="1.0" stroke-linecap="round" stroke-linejoin="round"/>
    <path d="M 126.5182876586914 92.2997817993164 C 136.40814208984375 87.1323471069336 140.50601196289062 113.4768295288086 124.73532104492188 133.04466247558594" stroke-width="3.0" fill="none" stroke="rgb(0, 0, 0)" stroke-opacity="1.0" stroke-linecap="round" stroke-linejoin="round"/>
    <path d="M 107.32183837890625 102.16979217529297 C 134.33494567871094 52.32283401489258 118.30390167236328 116.39834594726562 123.58248138427734 127.08059692382812" stroke-width="3.0" fill="none" stroke="rgb(0, 0, 0)" stroke-opacity="1.0" stroke-linecap="round" stroke-linejoin="round"/>
    <path d="M 109.95817565917969 94.28118133544922 C 121.24493408203125 133.66751098632812 94.97360229492188 82.63279724121094 110.41349792480469 108.1650390625" stroke-width="3.0" fill="none" stroke="rgb(0, 0, 0)" stroke-opacity="1.0" stroke-linecap="round" stroke-linejoin="round"/>
    <path d="M 109.11209869384766 151.26565551757812 C 129.66944885253906 105.08113861083984 122.40289306640625 160.34088134765625 132.56507873535156 150.10923767089844" stroke-width="3.0" fill="none" stroke="rgb(0, 0, 0)" stroke-opacity="1.0" stroke-linecap="round" stroke-linejoin="round"/>
    <path d="M 175.0224609375 113.62081909179688 C 170.41082763671875 130.7644500732422 148.4242401123047 157.86074829101562 132.95098876953125 151.41647338867188" stroke-width="3.0" fill="none" stroke="rgb(0, 0, 0)" stroke-opacity="1.0" stroke-linecap="round" stroke-linejoin="round"/>
    <path d="M 131.30337524414062 116.17343139648438 C 145.98184204101562 103.74286651611328 105.7723388671875 55.80441665649414 115.38304901123047 111.2226791381836" stroke-width="3.0" fill="none" stroke="rgb(0, 0, 0)" stroke-opacity="1.0" stroke-linecap="round" stroke-linejoin="round"/>
    <path d="M 124.0191879272461 94.52609252929688 C 121.56546783447266 147.56158447265625 122.0855941772461 117.77230072021484 121.26959228515625 150.8336181640625" stroke-width="3.0" fill="none" stroke="rgb(0, 0, 0)" stroke-opacity="1.0" stroke-linecap="round" stroke-linejoin="round"/>
    <path d="M 125.4523696899414 86.6552505493164 C 140.03192138671875 95.97855377197266 132.95172119140625 109.20685577392578 115.82978057861328 62.84023666381836" stroke-width="3.0" fill="none" stroke="rgb(0, 0, 0)" stroke-opacity="1.0" stroke-linecap="round" stroke-linejoin="round"/>
    <path d="M 118.00604248046875 79.72920227050781 C 134.75567626953125 108.69627380371094 131.19357299804688 76.77880096435547 137.0164337158203 106.68737030029297" stroke-width="3.0" fill="none" stroke="rgb(0, 0, 0)" stroke-opacity="1.0" stroke-linecap="round" stroke-linejoin="round"/>
    <path d="M 87.3695068359375 145.62799072265625 C 106.05856323242188 158.69615173339844 95.27162170410156 148.16909790039062 132.61447143554688 152.1085662841797" stroke-width="3.0" fill="none" stroke="rgb(0, 0, 0)" stroke-opacity="1.0" stroke-linecap="round" stroke-linejoin="round"/>
    <path d="M 123.09833526611328 95.91190338134766 C 104.79930114746094 28.2397518157959 181.88673400878906 70.4822769165039 175.0293426513672 112.8665771484375" stroke-width="3.0" fill="none" stroke="rgb(0, 0, 0)" stroke-opacity="1.0" stroke-linecap="round" stroke-linejoin="round"/>
    <path d="M 109.50935363769531 42.826263427734375 C 123.10633850097656 59.92656326293945 102.6291275024414 66.05384826660156 127.76469421386719 62.10212707519531" stroke-width="3.0" fill="none" stroke="rgb(0, 0, 0)" stroke-opacity="1.0" stroke-linecap="round" stroke-linejoin="round"/>
  </g>
</svg>
