<?xml version="1.0" ?>
<svg xmlns="http://www.w3.org/2000/svg" version="1.1" width="224" height="224">
  <defs/>
  <g>
    <path d="M 119.50621795654297 84.13081359863281 C 137.38421630859375 101.70428466796875 121.59651947021484 95.25628662109375 124.0436019897461 90.7302017211914" stroke-width="3.0" fill="none" stroke="rgb(0, 0, 0)" stroke-opacity="1.0" stroke-linecap="round" stroke-linejoin="round"/>
    <path d="M 118.95046997070312 93.36461639404297 C 139.40122985839844 140.205078125 115.47623443603516 103.69851684570312 131.99647521972656 101.90289306640625" stroke-width="3.0" fill="none" stroke="rgb(0, 0, 0)" stroke-opacity="1.0" stroke-linecap="round" stroke-linejoin="round"/>
    <path d="M 116.35639953613281 74.59141540527344 C 84.3128890991211 41.75464630126953 47.81214141845703 114.74214935302734 90.51834869384766 147.11964416503906" stroke-width="3.0" fill="none" stroke="rgb(0, 0, 0)" stroke-opacity="1.0" stroke-linecap="round" stroke-linejoin="round"/>
    <path d="M 112.91691589355469 100.25502014160156 C 119.46116638183594 131.33676147460938 86.75530242919922 114.25218200683594 111.44684600830078 93.6679458618164" stroke-width="3.0" fill="none" stroke="rgb(0, 0, 0)" stroke-opacity="1.0" stroke-linecap="round" stroke-linejoin="round"/>
    <path d="M 124.96580505371094 89.49896240234375 C 137.44789123535156 87.13919830322266 144.33384704589844 121.99720001220703 126.10859680175781 127.18083953857422" stroke-width="3.0" fill="none" stroke="rgb(0, 0, 0)" stroke-opacity="1.0" stroke-linecap="round" stroke-linejoin="round"/>
    <path d="M 108.00885772705078 103.18551635742188 C 121.39604949951172 72.58956146240234 119.73719024658203 125.3564453125 117.89347839355469 123.07672882080078" stroke-width="3.0" fill="none" stroke="rgb(0, 0, 0)" stroke-opacity="1.0" stroke-linecap="round" stroke-linejoin="round"/>
    <path d="M 108.54256439208984 96.07061004638672 C 123.71947479248047 129.05694580078125 97.03816223144531 94.55032348632812 109.76536560058594 118.08048248291016" stroke-width="3.0" fill="none" stroke="rgb(0, 0, 0)" stroke-opacity="1.0" stroke-linecap="round" stroke-linejoin="round"/>
    <path d="M 111.18470764160156 147.61083984375 C 138.7510223388672 110.03937530517578 108.30502319335938 151.96231079101562 137.50390625 147.81492614746094" stroke-width="3.0" fill="none" stroke="rgb(0, 0, 0)" stroke-opacity="1.0" stroke-linecap="round" stroke-linejoin="round"/>
    <path d="M 172.36819458007812 111.32858276367188 C 172.98092651367188 130.0679168701172 149.6313018798828 152.67869567871094 132.976318359375 149.2541961669922" stroke-width="3.0" fill="none" stroke="rgb(0, 0, 0)" stroke-opacity="1.0" stroke-linecap="round" stroke-linejoin="round"/>
    <path d="M 128.7891082763672 114.35063934326172 C 143.15232849121094 99.14979553222656 111.09208679199219 59.79074478149414 109.79090118408203 117.41934204101562" stroke-width="3.0" fill="none" stroke="rgb(0, 0, 0)" stroke-opacity="1.0" stroke-linecap="round" stroke-linejoin="round"/>
    <path d="M 122.723388671875 102.74044036865234 C 106.85271453857422 137.5126495361328 114.37921142578125 115.89417266845703 135.01634216308594 147.80105590820312" stroke-width="3.0" fill="none" stroke="rgb(0, 0, 0)" stroke-opacity="1.0" stroke-linecap="round" stroke-linejoin="round"/>
    <path d="M 124.34024047851562 87.2149429321289 C 121.56439208984375 106.80950927734375 128.0105743408203 106.29216003417969 116.6141357421875 63.31034851074219" stroke-width="3.0" fill="none" stroke="rgb(0, 0, 0)" stroke-opacity="1.0" stroke-linecap="round" stroke-linejoin="round"/>
    <path d="M 115.43973541259766 92.06006622314453 C 124.50199127197266 115.81885528564453 109.8848876953125 73.14881134033203 108.65576171875 106.07809448242188" stroke-width="3.0" fill="none" stroke="rgb(0, 0, 0)" stroke-opacity="1.0" stroke-linecap="round" stroke-linejoin="round"/>
    <path d="M 89.06785583496094 148.3649444580078 C 104.11463165283203 159.71463012695312 99.86470794677734 143.88882446289062 134.78607177734375 147.9982147216797" stroke-width="3.0" fill="none" stroke="rgb(0, 0, 0)" stroke-opacity="1.0" stroke-linecap="round" stroke-linejoin="round"/>
    <path d="M 124.44014739990234 96.97233581542969 C 102.14790344238281 27.2845516204834 181.55377197265625 65.63931274414062 172.5322265625 113.06216430664062" stroke-width="3.0" fill="none" stroke="rgb(0, 0, 0)" stroke-opacity="1.0" stroke-linecap="round" stroke-linejoin="round"/>
    <path d="M 111.45111846923828 40.435367584228516 C 123.5985336303711 59.457340240478516 98.9719467163086 74.12960815429688 124.25971221923828 62.62296676635742" stroke-width="3.0" fill="none" stroke="rgb(0, 0, 0)" stroke-opacity="1.0" stroke-linecap="round" stroke-linejoin="round"/>
  </g>
</svg>
