<?xml version="1.0" ?>
<svg xmlns="http://www.w3.org/2000/svg" version="1.1" width="224" height="224">
  <defs/>
  <g>
    <path d="M 103.93578338623047 98.17909240722656 C 125.49720001220703 114.20551300048828 134.3750762939453 114.35211181640625 130.47210693359375 104.01261138916016" stroke-width="3.0" fill="none" stroke="rgb(0, 0, 0)" stroke-opacity="1.0" stroke-linecap="round" stroke-linejoin="round"/>
    <path d="M 136.36729431152344 113.68022155761719 C 126.00769805908203 124.99858093261719 122.03023529052734 126.14727783203125 115.86717224121094 126.19612121582031" stroke-width="3.0" fill="none" stroke="rgb(0, 0, 0)" stroke-opacity="1.0" stroke-linecap="round" stroke-linejoin="round"/>
    <path d="M 87.2772445678711 70.46527862548828 C 61.101112365722656 92.94440460205078 72.0762939453125 136.1737823486328 87.91724395751953 145.39724731445312" stroke-width="3.0" fill="none" stroke="rgb(0, 0, 0)" stroke-opacity="1.0" stroke-linecap="round" stroke-linejoin="round"/>
    <path d="M 114.27120971679688 115.55280303955078 C 102.76861572265625 95.05055236816406 105.56922149658203 101.68036651611328 127.04931640625 113.00535583496094" stroke-width="3.0" fill="none" stroke="rgb(0, 0, 0)" stroke-opacity="1.0" stroke-linecap="round" stroke-linejoin="round"/>
    <path d="M 170.65499877929688 106.46293640136719 C 142.82278442382812 106.62867736816406 141.77017211914062 107.91492462158203 135.72122192382812 115.59679412841797" stroke-width="3.0" fill="none" stroke="rgb(0, 0, 0)" stroke-opacity="1.0" stroke-linecap="round" stroke-linejoin="round"/>
    <path d="M 103.24801635742188 106.86128997802734 C 103.38846588134766 113.99329376220703 101.8084945678711 119.10430145263672 117.70574188232422 130.28550720214844" stroke-width="3.0" fill="none" stroke="rgb(0, 0, 0)" stroke-opacity="1.0" stroke-linecap="round" stroke-linejoin="round"/>
    <path d="M 113.01919555664062 110.43235778808594 C 127.92339324951172 114.07754516601562 111.06227111816406 81.25354766845703 109.8740463256836 110.4776840209961" stroke-width="3.0" fill="none" stroke="rgb(0, 0, 0)" stroke-opacity="1.0" stroke-linecap="round" stroke-linejoin="round"/>
    <path d="M 116.37360382080078 146.8572998046875 C 118.58223724365234 120.6571044921875 116.64987182617188 158.01153564453125 144.34255981445312 148.5704345703125" stroke-width="3.0" fill="none" stroke="rgb(0, 0, 0)" stroke-opacity="1.0" stroke-linecap="round" stroke-linejoin="round"/>
    <path d="M 170.6031494140625 108.74451446533203 C 162.0813446044922 141.19577026367188 153.046142578125 137.7152862548828 146.17825317382812 147.0046844482422" stroke-width="3.0" fill="none" stroke="rgb(0, 0, 0)" stroke-opacity="1.0" stroke-linecap="round" stroke-linejoin="round"/>
    <path d="M 121.15691375732422 127.0594482421875 C 111.67909240722656 101.31819152832031 133.92880249023438 84.63452911376953 122.45263671875 103.08374786376953" stroke-width="3.0" fill="none" stroke="rgb(0, 0, 0)" stroke-opacity="1.0" stroke-linecap="round" stroke-linejoin="round"/>
    <path d="M 122.71408081054688 131.47706604003906 C 120.28532409667969 136.99267578125 129.59078979492188 143.21920776367188 133.15492248535156 147.39495849609375" stroke-width="3.0" fill="none" stroke="rgb(0, 0, 0)" stroke-opacity="1.0" stroke-linecap="round" stroke-linejoin="round"/>
    <path d="M 120.09270477294922 109.15623474121094 C 138.1654052734375 123.80733489990234 138.5428009033203 95.04464721679688 126.58499908447266 97.07803344726562" stroke-width="3.0" fill="none" stroke="rgb(0, 0, 0)" stroke-opacity="1.0" stroke-linecap="round" stroke-linejoin="round"/>
    <path d="M 112.19965362548828 110.41173553466797 C 123.57530975341797 104.14830780029297 123.72303009033203 94.1102066040039 124.0401382446289 111.2034912109375" stroke-width="3.0" fill="none" stroke="rgb(0, 0, 0)" stroke-opacity="1.0" stroke-linecap="round" stroke-linejoin="round"/>
    <path d="M 88.51293182373047 145.46766662597656 C 106.7628402709961 154.4485626220703 101.0915298461914 157.3169708251953 120.67974090576172 138.0499267578125" stroke-width="3.0" fill="none" stroke="rgb(0, 0, 0)" stroke-opacity="1.0" stroke-linecap="round" stroke-linejoin="round"/>
    <path d="M 127.44620513916016 63.72727966308594 C 134.48597717285156 56.135074615478516 168.31851196289062 60.42719268798828 170.32273864746094 107.63147735595703" stroke-width="3.0" fill="none" stroke="rgb(0, 0, 0)" stroke-opacity="1.0" stroke-linecap="round" stroke-linejoin="round"/>
    <path d="M 113.78108215332031 42.820831298828125 C 129.42897033691406 65.67555236816406 117.6527099609375 81.12706756591797 123.70712280273438 57.68450927734375" stroke-width="3.0" fill="none" stroke="rgb(0, 0, 0)" stroke-opacity="1.0" stroke-linecap="round" stroke-linejoin="round"/>
  </g>
</svg>
