<?xml version="1.0" ?>
<svg xmlns="http://www.w3.org/2000/svg" version="1.1" width="224" height="224">
  <defs/>
  <g>
    <path d="M 119.63085174560547 91.97844696044922 C 136.67575073242188 96.99439239501953 125.07805633544922 93.14581298828125 131.23171997070312 98.68251037597656" stroke-width="3.0" fill="none" stroke="rgb(0, 0, 0)" stroke-opacity="1.0" stroke-linecap="round" stroke-linejoin="round"/>
    <path d="M 122.32157135009766 94.0755615234375 C 137.00534057617188 126.26656341552734 111.95991516113281 101.1548843383789 132.76556396484375 101.35055541992188" stroke-width="3.0" fill="none" stroke="rgb(0, 0, 0)" stroke-opacity="1.0" stroke-linecap="round" stroke-linejoin="round"/>
    <path d="M 117.08332061767578 72.89942169189453 C 83.86347961425781 37.45514678955078 46.02113723754883 113.25240325927734 89.69721984863281 148.34588623046875" stroke-width="3.0" fill="none" stroke="rgb(0, 0, 0)" stroke-opacity="1.0" stroke-linecap="round" stroke-linejoin="round"/>
    <path d="M 111.51702117919922 85.71327209472656 C 126.90554809570312 145.31809997558594 83.90277099609375 109.20283508300781 109.74491119384766 89.2709732055664" stroke-width="3.0" fill="none" stroke="rgb(0, 0, 0)" stroke-opacity="1.0" stroke-linecap="round" stroke-linejoin="round"/>
    <path d="M 129.9786376953125 96.43782806396484 C 136.72952270507812 88.78269958496094 140.88177490234375 115.36663055419922 127.6767807006836 128.78770446777344" stroke-width="3.0" fill="none" stroke="rgb(0, 0, 0)" stroke-opacity="1.0" stroke-linecap="round" stroke-linejoin="round"/>
    <path d="M 115.6132583618164 107.40863037109375 C 121.82298278808594 49.41861343383789 101.35816192626953 111.0534896850586 115.49369049072266 116.95763397216797" stroke-width="3.0" fill="none" stroke="rgb(0, 0, 0)" stroke-opacity="1.0" stroke-linecap="round" stroke-linejoin="round"/>
    <path d="M 110.3439712524414 91.3825454711914 C 124.46710968017578 131.87066650390625 98.23412322998047 84.23326873779297 115.91574096679688 116.42298889160156" stroke-width="3.0" fill="none" stroke="rgb(0, 0, 0)" stroke-opacity="1.0" stroke-linecap="round" stroke-linejoin="round"/>
    <path d="M 113.05839538574219 148.9359893798828 C 130.5535888671875 114.1299057006836 129.92755126953125 156.52313232421875 137.7026824951172 150.68106079101562" stroke-width="3.0" fill="none" stroke="rgb(0, 0, 0)" stroke-opacity="1.0" stroke-linecap="round" stroke-linejoin="round"/>
    <path d="M 171.98953247070312 106.74930572509766 C 171.43487548828125 128.45620727539062 146.4155731201172 155.72378540039062 133.017333984375 149.95997619628906" stroke-width="3.0" fill="none" stroke="rgb(0, 0, 0)" stroke-opacity="1.0" stroke-linecap="round" stroke-linejoin="round"/>
    <path d="M 131.2604217529297 118.41738891601562 C 140.9013671875 110.0240478515625 103.40270233154297 69.55976104736328 101.33140563964844 114.26167297363281" stroke-width="3.0" fill="none" stroke="rgb(0, 0, 0)" stroke-opacity="1.0" stroke-linecap="round" stroke-linejoin="round"/>
    <path d="M 119.51393127441406 86.09004974365234 C 117.62484741210938 142.08201599121094 128.3583526611328 112.99077606201172 122.45082092285156 145.82171630859375" stroke-width="3.0" fill="none" stroke="rgb(0, 0, 0)" stroke-opacity="1.0" stroke-linecap="round" stroke-linejoin="round"/>
    <path d="M 123.42958068847656 85.5846939086914 C 140.59591674804688 96.30117797851562 123.13806915283203 110.41731262207031 117.78622436523438 52.30650329589844" stroke-width="3.0" fill="none" stroke="rgb(0, 0, 0)" stroke-opacity="1.0" stroke-linecap="round" stroke-linejoin="round"/>
    <path d="M 114.67911529541016 78.50895690917969 C 123.25275421142578 117.01150512695312 132.6952362060547 80.14639282226562 132.110595703125 100.77486419677734" stroke-width="3.0" fill="none" stroke="rgb(0, 0, 0)" stroke-opacity="1.0" stroke-linecap="round" stroke-linejoin="round"/>
    <path d="M 84.54383087158203 142.25930786132812 C 105.79737854003906 161.9142303466797 96.21449279785156 143.9924774169922 135.07684326171875 150.56134033203125" stroke-width="3.0" fill="none" stroke="rgb(0, 0, 0)" stroke-opacity="1.0" stroke-linecap="round" stroke-linejoin="round"/>
    <path d="M 125.54330444335938 95.72977447509766 C 103.85763549804688 28.499603271484375 180.89434814453125 67.7890396118164 171.86376953125 113.1072006225586" stroke-width="3.0" fill="none" stroke="rgb(0, 0, 0)" stroke-opacity="1.0" stroke-linecap="round" stroke-linejoin="round"/>
    <path d="M 109.2008056640625 43.11890411376953 C 122.36714935302734 62.776817321777344 100.01750946044922 65.96405792236328 127.25961303710938 61.24977111816406" stroke-width="3.0" fill="none" stroke="rgb(0, 0, 0)" stroke-opacity="1.0" stroke-linecap="round" stroke-linejoin="round"/>
  </g>
</svg>
