<?xml version="1.0" ?>
<svg xmlns="http://www.w3.org/2000/svg" version="1.1" width="224" height="224">
  <defs/>
  <g>
    <path d="M 114.09640502929688 110.61031341552734 C 117.2474136352539 114.97834777832031 123.36112213134766 111.63986206054688 118.39064025878906 112.29965209960938" stroke-width="3.0" fill="none" stroke="rgb(0, 0, 0)" stroke-opacity="1.0" stroke-linecap="round" stroke-linejoin="round"/>
    <path d="M 122.81574249267578 118.55340576171875 C 122.62849426269531 123.08605194091797 120.96989440917969 125.55438232421875 131.53945922851562 126.8768310546875" stroke-width="3.0" fill="none" stroke="rgb(0, 0, 0)" stroke-opacity="1.0" stroke-linecap="round" stroke-linejoin="round"/>
    <path d="M 94.2122802734375 106.27587890625 C 90.04183959960938 113.7972183227539 99.09923553466797 114.70232391357422 100.17459869384766 124.75785064697266" stroke-width="3.0" fill="none" stroke="rgb(0, 0, 0)" stroke-opacity="1.0" stroke-linecap="round" stroke-linejoin="round"/>
    <path d="M 110.35135650634766 120.01200103759766 C 117.25485229492188 115.62716674804688 110.30998992919922 115.73847198486328 124.84953308105469 118.66560363769531" stroke-width="3.0" fill="none" stroke="rgb(0, 0, 0)" stroke-opacity="1.0" stroke-linecap="round" stroke-linejoin="round"/>
    <path d="M 140.19720458984375 103.88581085205078 C 137.36422729492188 97.3504867553711 137.79962158203125 97.45000457763672 132.39337158203125 106.6025619506836" stroke-width="3.0" fill="none" stroke="rgb(0, 0, 0)" stroke-opacity="1.0" stroke-linecap="round" stroke-linejoin="round"/>
    <path d="M 100.15937042236328 119.58692932128906 C 96.60567474365234 116.08223724365234 101.23163604736328 118.73157501220703 103.76663970947266 120.3729248046875" stroke-width="3.0" fill="none" stroke="rgb(0, 0, 0)" stroke-opacity="1.0" stroke-linecap="round" stroke-linejoin="round"/>
    <path d="M 119.0158462524414 111.99234771728516 C 118.87809753417969 98.32060241699219 118.6092300415039 99.67012786865234 115.10453796386719 109.1562728881836" stroke-width="3.0" fill="none" stroke="rgb(0, 0, 0)" stroke-opacity="1.0" stroke-linecap="round" stroke-linejoin="round"/>
    <path d="M 126.76516723632812 143.82162475585938 C 125.39227294921875 137.13046264648438 123.07145690917969 138.869873046875 128.08482360839844 138.68539428710938" stroke-width="3.0" fill="none" stroke="rgb(0, 0, 0)" stroke-opacity="1.0" stroke-linecap="round" stroke-linejoin="round"/>
    <path d="M 147.83863830566406 142.5282745361328 C 139.64950561523438 151.3884735107422 147.18630981445312 146.86236572265625 142.89404296875 145.44581604003906" stroke-width="3.0" fill="none" stroke="rgb(0, 0, 0)" stroke-opacity="1.0" stroke-linecap="round" stroke-linejoin="round"/>
    <path d="M 124.53495788574219 108.13064575195312 C 123.58847045898438 102.53331756591797 120.42372131347656 103.98307037353516 124.36624145507812 104.18489837646484" stroke-width="3.0" fill="none" stroke="rgb(0, 0, 0)" stroke-opacity="1.0" stroke-linecap="round" stroke-linejoin="round"/>
    <path d="M 121.64871978759766 134.5753173828125 C 125.08472442626953 136.82176208496094 131.6102294921875 140.4807586669922 127.04218292236328 140.11514282226562" stroke-width="3.0" fill="none" stroke="rgb(0, 0, 0)" stroke-opacity="1.0" stroke-linecap="round" stroke-linejoin="round"/>
    <path d="M 126.32400512695312 115.37727355957031 C 124.94119262695312 110.4224853515625 127.78018188476562 104.15502166748047 126.27001190185547 99.23934936523438" stroke-width="3.0" fill="none" stroke="rgb(0, 0, 0)" stroke-opacity="1.0" stroke-linecap="round" stroke-linejoin="round"/>
    <path d="M 110.76652526855469 112.94735717773438 C 116.52891540527344 114.26653289794922 114.88984680175781 106.40949249267578 119.45307922363281 109.44902801513672" stroke-width="3.0" fill="none" stroke="rgb(0, 0, 0)" stroke-opacity="1.0" stroke-linecap="round" stroke-linejoin="round"/>
    <path d="M 102.35945892333984 146.8681182861328 C 114.76947784423828 148.80767822265625 113.55364227294922 152.391357421875 124.08129119873047 146.74676513671875" stroke-width="3.0" fill="none" stroke="rgb(0, 0, 0)" stroke-opacity="1.0" stroke-linecap="round" stroke-linejoin="round"/>
    <path d="M 149.2220916748047 63.53932189941406 C 141.66787719726562 63.775184631347656 148.3990020751953 64.06962585449219 153.66038513183594 72.94869232177734" stroke-width="3.0" fill="none" stroke="rgb(0, 0, 0)" stroke-opacity="1.0" stroke-linecap="round" stroke-linejoin="round"/>
    <path d="M 120.00270080566406 65.65599822998047 C 129.6824188232422 58.80807876586914 123.9661865234375 66.14818572998047 129.26443481445312 70.25831604003906" stroke-width="3.0" fill="none" stroke="rgb(0, 0, 0)" stroke-opacity="1.0" stroke-linecap="round" stroke-linejoin="round"/>
  </g>
</svg>
