<?xml version="1.0" ?>
<svg xmlns="http://www.w3.org/2000/svg" version="1.1" width="224" height="224">
  <defs/>
  <g>
    <path d="M 122.80047607421875 83.63072204589844 C 141.85585021972656 100.55049133300781 125.97640991210938 99.77616119384766 128.41273498535156 92.65240478515625" stroke-width="3.0" fill="none" stroke="rgb(0, 0, 0)" stroke-opacity="1.0" stroke-linecap="round" stroke-linejoin="round"/>
    <path d="M 125.0904312133789 93.39352416992188 C 134.7217559814453 139.26336669921875 114.0322494506836 97.75736236572266 131.75146484375 102.78742980957031" stroke-width="3.0" fill="none" stroke="rgb(0, 0, 0)" stroke-opacity="1.0" stroke-linecap="round" stroke-linejoin="round"/>
    <path d="M 116.98775482177734 72.15150451660156 C 84.40390014648438 39.12583923339844 45.09741973876953 114.81902313232422 91.98384857177734 149.3976593017578" stroke-width="3.0" fill="none" stroke="rgb(0, 0, 0)" stroke-opacity="1.0" stroke-linecap="round" stroke-linejoin="round"/>
    <path d="M 110.21847534179688 104.37266540527344 C 118.3779296875 129.96348571777344 95.61808013916016 120.86830139160156 108.7216567993164 92.11698913574219" stroke-width="3.0" fill="none" stroke="rgb(0, 0, 0)" stroke-opacity="1.0" stroke-linecap="round" stroke-linejoin="round"/>
    <path d="M 126.1103744506836 88.95159912109375 C 132.76910400390625 90.57952117919922 141.74197387695312 115.9153823852539 123.627197265625 126.78290557861328" stroke-width="3.0" fill="none" stroke="rgb(0, 0, 0)" stroke-opacity="1.0" stroke-linecap="round" stroke-linejoin="round"/>
    <path d="M 110.42576599121094 96.08403015136719 C 121.5426254272461 76.10761260986328 119.0929183959961 125.0823974609375 118.88494873046875 122.8800277709961" stroke-width="3.0" fill="none" stroke="rgb(0, 0, 0)" stroke-opacity="1.0" stroke-linecap="round" stroke-linejoin="round"/>
    <path d="M 111.92223358154297 98.15850067138672 C 120.5605239868164 121.60630798339844 103.81771087646484 90.9269790649414 110.238037109375 115.7402114868164" stroke-width="3.0" fill="none" stroke="rgb(0, 0, 0)" stroke-opacity="1.0" stroke-linecap="round" stroke-linejoin="round"/>
    <path d="M 114.80839538574219 148.50445556640625 C 132.83126831054688 105.23902130126953 103.4151382446289 154.98143005371094 138.60765075683594 151.24156188964844" stroke-width="3.0" fill="none" stroke="rgb(0, 0, 0)" stroke-opacity="1.0" stroke-linecap="round" stroke-linejoin="round"/>
    <path d="M 172.14559936523438 111.50993347167969 C 171.18124389648438 128.82159423828125 148.36041259765625 155.06512451171875 135.58045959472656 150.68331909179688" stroke-width="3.0" fill="none" stroke="rgb(0, 0, 0)" stroke-opacity="1.0" stroke-linecap="round" stroke-linejoin="round"/>
    <path d="M 127.77876281738281 117.691650390625 C 136.6007080078125 95.0677719116211 119.66069030761719 58.696876525878906 116.29826354980469 120.85498809814453" stroke-width="3.0" fill="none" stroke="rgb(0, 0, 0)" stroke-opacity="1.0" stroke-linecap="round" stroke-linejoin="round"/>
    <path d="M 117.79788970947266 97.22551727294922 C 104.81491088867188 138.0968780517578 117.7772445678711 118.70389556884766 127.90345764160156 150.03692626953125" stroke-width="3.0" fill="none" stroke="rgb(0, 0, 0)" stroke-opacity="1.0" stroke-linecap="round" stroke-linejoin="round"/>
    <path d="M 121.55958557128906 86.05567932128906 C 130.47557067871094 103.30207061767578 122.7447280883789 106.4392318725586 115.64337921142578 61.49818801879883" stroke-width="3.0" fill="none" stroke="rgb(0, 0, 0)" stroke-opacity="1.0" stroke-linecap="round" stroke-linejoin="round"/>
    <path d="M 108.64605712890625 87.37994384765625 C 118.74739837646484 112.60993957519531 111.33499145507812 65.23780822753906 103.47798919677734 110.9005126953125" stroke-width="3.0" fill="none" stroke="rgb(0, 0, 0)" stroke-opacity="1.0" stroke-linecap="round" stroke-linejoin="round"/>
    <path d="M 92.55449676513672 150.48768615722656 C 107.26785278320312 156.55093383789062 105.31719207763672 146.11691284179688 136.9022979736328 151.15444946289062" stroke-width="3.0" fill="none" stroke="rgb(0, 0, 0)" stroke-opacity="1.0" stroke-linecap="round" stroke-linejoin="round"/>
    <path d="M 122.40444946289062 95.58842468261719 C 101.64348602294922 30.511289596557617 181.88661193847656 60.8409309387207 171.0468292236328 119.53695678710938" stroke-width="3.0" fill="none" stroke="rgb(0, 0, 0)" stroke-opacity="1.0" stroke-linecap="round" stroke-linejoin="round"/>
    <path d="M 110.11060333251953 38.29331970214844 C 119.9545669555664 63.167945861816406 100.08419036865234 61.14894485473633 121.42638397216797 61.436038970947266" stroke-width="3.0" fill="none" stroke="rgb(0, 0, 0)" stroke-opacity="1.0" stroke-linecap="round" stroke-linejoin="round"/>
  </g>
</svg>
