<?xml version="1.0" ?>
<svg xmlns="http://www.w3.org/2000/svg" version="1.1" width="224" height="224">
  <defs/>
  <g>
    <path d="M 124.0546875 84.71295166015625 C 134.30615234375 106.84270477294922 117.61360168457031 100.66273498535156 123.19567108154297 93.24088287353516" stroke-width="3.0" fill="none" stroke="rgb(0, 0, 0)" stroke-opacity="1.0" stroke-linecap="round" stroke-linejoin="round"/>
    <path d="M 122.28897094726562 94.02061462402344 C 138.65916442871094 143.38563537597656 111.43573760986328 106.50794219970703 130.2509307861328 107.72796630859375" stroke-width="3.0" fill="none" stroke="rgb(0, 0, 0)" stroke-opacity="1.0" stroke-linecap="round" stroke-linejoin="round"/>
    <path d="M 114.93572998046875 75.36841583251953 C 85.52159118652344 38.266422271728516 47.14140701293945 117.2890853881836 91.5636215209961 147.72190856933594" stroke-width="3.0" fill="none" stroke="rgb(0, 0, 0)" stroke-opacity="1.0" stroke-linecap="round" stroke-linejoin="round"/>
    <path d="M 115.4360122680664 102.19345092773438 C 123.90245819091797 139.76536560058594 89.24118041992188 113.12528228759766 110.0882568359375 90.54698181152344" stroke-width="3.0" fill="none" stroke="rgb(0, 0, 0)" stroke-opacity="1.0" stroke-linecap="round" stroke-linejoin="round"/>
    <path d="M 120.82089233398438 90.1329116821289 C 134.5257568359375 85.95880126953125 140.90553283691406 119.85147857666016 128.41522216796875 132.62142944335938" stroke-width="3.0" fill="none" stroke="rgb(0, 0, 0)" stroke-opacity="1.0" stroke-linecap="round" stroke-linejoin="round"/>
    <path d="M 103.47085571289062 104.508544921875 C 126.68889617919922 64.05353546142578 124.73260498046875 120.64140319824219 127.6477279663086 126.71629333496094" stroke-width="3.0" fill="none" stroke="rgb(0, 0, 0)" stroke-opacity="1.0" stroke-linecap="round" stroke-linejoin="round"/>
    <path d="M 111.8087387084961 91.20555877685547 C 125.03270721435547 134.1171875 98.04139709472656 93.28292846679688 113.00374603271484 122.16080474853516" stroke-width="3.0" fill="none" stroke="rgb(0, 0, 0)" stroke-opacity="1.0" stroke-linecap="round" stroke-linejoin="round"/>
    <path d="M 108.51417541503906 147.91702270507812 C 132.47337341308594 110.52066802978516 103.54534912109375 153.6570587158203 128.46119689941406 151.59027099609375" stroke-width="3.0" fill="none" stroke="rgb(0, 0, 0)" stroke-opacity="1.0" stroke-linecap="round" stroke-linejoin="round"/>
    <path d="M 171.7333221435547 109.78864288330078 C 172.02853393554688 126.88391876220703 146.57391357421875 154.50042724609375 135.2598876953125 151.5240020751953" stroke-width="3.0" fill="none" stroke="rgb(0, 0, 0)" stroke-opacity="1.0" stroke-linecap="round" stroke-linejoin="round"/>
    <path d="M 125.21227264404297 123.55516052246094 C 147.32177734375 93.06746673583984 110.67369079589844 52.45738983154297 111.75037384033203 114.75452423095703" stroke-width="3.0" fill="none" stroke="rgb(0, 0, 0)" stroke-opacity="1.0" stroke-linecap="round" stroke-linejoin="round"/>
    <path d="M 121.30171966552734 96.8259048461914 C 114.18245697021484 140.486572265625 117.42271423339844 114.98809051513672 131.1057586669922 149.999267578125" stroke-width="3.0" fill="none" stroke="rgb(0, 0, 0)" stroke-opacity="1.0" stroke-linecap="round" stroke-linejoin="round"/>
    <path d="M 122.77259826660156 90.76849365234375 C 128.9820098876953 104.42892456054688 136.14833068847656 106.75260162353516 110.97408294677734 63.840293884277344" stroke-width="3.0" fill="none" stroke="rgb(0, 0, 0)" stroke-opacity="1.0" stroke-linecap="round" stroke-linejoin="round"/>
    <path d="M 120.41307830810547 82.95233917236328 C 132.12442016601562 112.03649139404297 116.36942291259766 77.34877014160156 117.98886108398438 105.14010620117188" stroke-width="3.0" fill="none" stroke="rgb(0, 0, 0)" stroke-opacity="1.0" stroke-linecap="round" stroke-linejoin="round"/>
    <path d="M 88.43354797363281 145.7872314453125 C 105.01049041748047 159.3555450439453 95.39015197753906 144.76625061035156 132.57797241210938 151.78565979003906" stroke-width="3.0" fill="none" stroke="rgb(0, 0, 0)" stroke-opacity="1.0" stroke-linecap="round" stroke-linejoin="round"/>
    <path d="M 122.55062103271484 101.28111267089844 C 107.66712188720703 29.563377380371094 179.55442810058594 67.73551177978516 172.50088500976562 110.85816955566406" stroke-width="3.0" fill="none" stroke="rgb(0, 0, 0)" stroke-opacity="1.0" stroke-linecap="round" stroke-linejoin="round"/>
    <path d="M 108.48937225341797 41.89247512817383 C 119.69363403320312 57.187644958496094 106.30934143066406 66.6691665649414 128.77349853515625 61.725608825683594" stroke-width="3.0" fill="none" stroke="rgb(0, 0, 0)" stroke-opacity="1.0" stroke-linecap="round" stroke-linejoin="round"/>
  </g>
</svg>
