<?xml version="1.0" ?>
<svg xmlns="http://www.w3.org/2000/svg" version="1.1" width="224" height="224">
  <defs/>
  <g>
    <path d="M 109.0666275024414 95.90596771240234 C 127.34954833984375 119.89790344238281 123.96315002441406 124.61016845703125 120.22724914550781 99.1262435913086" stroke-width="3.0" fill="none" stroke="rgb(0, 0, 0)" stroke-opacity="1.0" stroke-linecap="round" stroke-linejoin="round"/>
    <path d="M 125.63105010986328 106.18852233886719 C 128.37649536132812 124.80677032470703 102.82852172851562 130.5384979248047 124.08721160888672 106.593505859375" stroke-width="3.0" fill="none" stroke="rgb(0, 0, 0)" stroke-opacity="1.0" stroke-linecap="round" stroke-linejoin="round"/>
    <path d="M 113.65298461914062 74.34912109375 C 69.67481994628906 45.56103515625 55.209434509277344 124.21251678466797 87.88712310791016 147.56771850585938" stroke-width="3.0" fill="none" stroke="rgb(0, 0, 0)" stroke-opacity="1.0" stroke-linecap="round" stroke-linejoin="round"/>
    <path d="M 117.43924713134766 122.29475402832031 C 121.48628997802734 109.43331146240234 106.6548843383789 129.22283935546875 123.27223205566406 118.11823272705078" stroke-width="3.0" fill="none" stroke="rgb(0, 0, 0)" stroke-opacity="1.0" stroke-linecap="round" stroke-linejoin="round"/>
    <path d="M 135.2800750732422 103.71504211425781 C 128.93865966796875 103.13629150390625 136.4137420654297 106.24301147460938 126.51785278320312 131.74783325195312" stroke-width="3.0" fill="none" stroke="rgb(0, 0, 0)" stroke-opacity="1.0" stroke-linecap="round" stroke-linejoin="round"/>
    <path d="M 113.38768005371094 84.07847595214844 C 98.38639068603516 103.99304962158203 104.0528793334961 118.39224243164062 121.4970703125 126.9959716796875" stroke-width="3.0" fill="none" stroke="rgb(0, 0, 0)" stroke-opacity="1.0" stroke-linecap="round" stroke-linejoin="round"/>
    <path d="M 126.49500274658203 126.44001770019531 C 123.05402374267578 103.28900909423828 105.523681640625 79.6638412475586 107.92559051513672 116.73075866699219" stroke-width="3.0" fill="none" stroke="rgb(0, 0, 0)" stroke-opacity="1.0" stroke-linecap="round" stroke-linejoin="round"/>
    <path d="M 113.3411865234375 149.54888916015625 C 138.58689880371094 124.40141296386719 110.64287567138672 156.2091064453125 144.34056091308594 149.6980438232422" stroke-width="3.0" fill="none" stroke="rgb(0, 0, 0)" stroke-opacity="1.0" stroke-linecap="round" stroke-linejoin="round"/>
    <path d="M 172.16400146484375 110.53758239746094 C 169.1339111328125 130.95899963378906 152.4652099609375 148.3166046142578 139.57752990722656 150.40235900878906" stroke-width="3.0" fill="none" stroke="rgb(0, 0, 0)" stroke-opacity="1.0" stroke-linecap="round" stroke-linejoin="round"/>
    <path d="M 120.04171752929688 124.21990203857422 C 104.06124114990234 86.74567413330078 145.50611877441406 75.82551574707031 131.9812469482422 110.25807189941406" stroke-width="3.0" fill="none" stroke="rgb(0, 0, 0)" stroke-opacity="1.0" stroke-linecap="round" stroke-linejoin="round"/>
    <path d="M 123.51882934570312 119.36502075195312 C 117.9619369506836 125.48087310791016 126.71824645996094 137.0010223388672 134.06495666503906 148.12547302246094" stroke-width="3.0" fill="none" stroke="rgb(0, 0, 0)" stroke-opacity="1.0" stroke-linecap="round" stroke-linejoin="round"/>
    <path d="M 116.72085571289062 101.48771667480469 C 120.40196990966797 124.70159149169922 140.25538635253906 96.4145736694336 125.2672119140625 85.1654281616211" stroke-width="3.0" fill="none" stroke="rgb(0, 0, 0)" stroke-opacity="1.0" stroke-linecap="round" stroke-linejoin="round"/>
    <path d="M 110.48546600341797 118.19147491455078 C 129.3647003173828 106.0920639038086 116.83485412597656 60.662227630615234 122.47974395751953 117.5029296875" stroke-width="3.0" fill="none" stroke="rgb(0, 0, 0)" stroke-opacity="1.0" stroke-linecap="round" stroke-linejoin="round"/>
    <path d="M 87.53157806396484 146.32489013671875 C 103.84378051757812 159.33372497558594 102.54515838623047 147.13458251953125 128.53456115722656 149.7513885498047" stroke-width="3.0" fill="none" stroke="rgb(0, 0, 0)" stroke-opacity="1.0" stroke-linecap="round" stroke-linejoin="round"/>
    <path d="M 119.41488647460938 85.24835205078125 C 103.72730255126953 39.568077087402344 176.05564880371094 62.03507995605469 171.41087341308594 107.95065307617188" stroke-width="3.0" fill="none" stroke="rgb(0, 0, 0)" stroke-opacity="1.0" stroke-linecap="round" stroke-linejoin="round"/>
    <path d="M 111.18975830078125 41.86601638793945 C 127.26557159423828 61.429508209228516 103.82455444335938 93.43763732910156 118.99136352539062 62.472450256347656" stroke-width="3.0" fill="none" stroke="rgb(0, 0, 0)" stroke-opacity="1.0" stroke-linecap="round" stroke-linejoin="round"/>
  </g>
</svg>
