<?xml version="1.0" ?>
<svg xmlns="http://www.w3.org/2000/svg" version="1.1" width="224" height="224">
  <defs/>
  <g>
    <path d="M 112.15937805175781 94.17339324951172 C 129.65138244628906 118.34169006347656 125.37123107910156 124.41387176513672 123.22425842285156 98.78993225097656" stroke-width="3.0" fill="none" stroke="rgb(0, 0, 0)" stroke-opacity="1.0" stroke-linecap="round" stroke-linejoin="round"/>
    <path d="M 125.27650451660156 106.78827667236328 C 129.8126678466797 127.383544921875 103.42682647705078 132.55722045898438 126.51405334472656 101.35235595703125" stroke-width="3.0" fill="none" stroke="rgb(0, 0, 0)" stroke-opacity="1.0" stroke-linecap="round" stroke-linejoin="round"/>
    <path d="M 113.93880462646484 73.06587982177734 C 73.83221435546875 44.137298583984375 55.54767608642578 122.40281677246094 89.96761322021484 147.86386108398438" stroke-width="3.0" fill="none" stroke="rgb(0, 0, 0)" stroke-opacity="1.0" stroke-linecap="round" stroke-linejoin="round"/>
    <path d="M 119.29902648925781 121.90412902832031 C 121.36113739013672 107.98393249511719 102.46243286132812 128.8277130126953 123.216064453125 118.83004760742188" stroke-width="3.0" fill="none" stroke="rgb(0, 0, 0)" stroke-opacity="1.0" stroke-linecap="round" stroke-linejoin="round"/>
    <path d="M 130.61167907714844 101.15100860595703 C 128.9885711669922 101.4461669921875 134.53826904296875 106.97210693359375 125.93258666992188 127.91251373291016" stroke-width="3.0" fill="none" stroke="rgb(0, 0, 0)" stroke-opacity="1.0" stroke-linecap="round" stroke-linejoin="round"/>
    <path d="M 112.13436126708984 85.7024917602539 C 99.28380584716797 106.26947784423828 102.1953125 122.9864273071289 120.37861633300781 127.48330688476562" stroke-width="3.0" fill="none" stroke="rgb(0, 0, 0)" stroke-opacity="1.0" stroke-linecap="round" stroke-linejoin="round"/>
    <path d="M 122.81665802001953 125.02025604248047 C 123.63871765136719 105.4057388305664 101.50199890136719 82.65222930908203 108.5312271118164 116.8123550415039" stroke-width="3.0" fill="none" stroke="rgb(0, 0, 0)" stroke-opacity="1.0" stroke-linecap="round" stroke-linejoin="round"/>
    <path d="M 109.99609375 148.42677307128906 C 135.4631805419922 115.62557220458984 109.8462905883789 156.35862731933594 141.82420349121094 148.41668701171875" stroke-width="3.0" fill="none" stroke="rgb(0, 0, 0)" stroke-opacity="1.0" stroke-linecap="round" stroke-linejoin="round"/>
    <path d="M 170.7662811279297 114.21559143066406 C 170.69366455078125 131.44482421875 151.25335693359375 145.6942901611328 139.57164001464844 148.9724884033203" stroke-width="3.0" fill="none" stroke="rgb(0, 0, 0)" stroke-opacity="1.0" stroke-linecap="round" stroke-linejoin="round"/>
    <path d="M 117.98773956298828 125.78658294677734 C 105.84673309326172 92.62593078613281 140.66348266601562 80.65194702148438 131.4942626953125 116.11885070800781" stroke-width="3.0" fill="none" stroke="rgb(0, 0, 0)" stroke-opacity="1.0" stroke-linecap="round" stroke-linejoin="round"/>
    <path d="M 123.13787841796875 120.01224517822266 C 117.78453063964844 126.87078094482422 124.12954711914062 138.67164611816406 135.88345336914062 147.8056182861328" stroke-width="3.0" fill="none" stroke="rgb(0, 0, 0)" stroke-opacity="1.0" stroke-linecap="round" stroke-linejoin="round"/>
    <path d="M 115.00276184082031 101.30655670166016 C 119.83501434326172 121.60218048095703 141.77850341796875 95.86978149414062 122.39337921142578 85.5890121459961" stroke-width="3.0" fill="none" stroke="rgb(0, 0, 0)" stroke-opacity="1.0" stroke-linecap="round" stroke-linejoin="round"/>
    <path d="M 109.27554321289062 120.1749267578125 C 124.72764587402344 105.33090209960938 114.12985229492188 61.468170166015625 123.61210632324219 117.11898803710938" stroke-width="3.0" fill="none" stroke="rgb(0, 0, 0)" stroke-opacity="1.0" stroke-linecap="round" stroke-linejoin="round"/>
    <path d="M 88.33839416503906 147.13267517089844 C 104.626953125 158.7657928466797 100.08658599853516 145.79771423339844 131.234130859375 149.68658447265625" stroke-width="3.0" fill="none" stroke="rgb(0, 0, 0)" stroke-opacity="1.0" stroke-linecap="round" stroke-linejoin="round"/>
    <path d="M 123.50030517578125 86.56443786621094 C 107.00577545166016 41.23823165893555 178.931640625 60.67939376831055 170.7635955810547 113.95126342773438" stroke-width="3.0" fill="none" stroke="rgb(0, 0, 0)" stroke-opacity="1.0" stroke-linecap="round" stroke-linejoin="round"/>
    <path d="M 110.56107330322266 39.11331558227539 C 126.54234313964844 61.68910598754883 106.20687103271484 95.74158477783203 122.569091796875 64.40767669677734" stroke-width="3.0" fill="none" stroke="rgb(0, 0, 0)" stroke-opacity="1.0" stroke-linecap="round" stroke-linejoin="round"/>
  </g>
</svg>
