<?xml version="1.0" ?>
<svg xmlns="http://www.w3.org/2000/svg" version="1.1" width="224" height="224">
  <defs/>
  <g>
    <path d="M 110.8816909790039 91.79512786865234 C 127.88247680664062 116.435546875 125.09019470214844 121.71346282958984 126.37053680419922 103.41439819335938" stroke-width="3.0" fill="none" stroke="rgb(0, 0, 0)" stroke-opacity="1.0" stroke-linecap="round" stroke-linejoin="round"/>
    <path d="M 128.0472869873047 97.55937957763672 C 130.45481872558594 126.80550384521484 98.26528930664062 129.82069396972656 124.0671615600586 95.67831420898438" stroke-width="3.0" fill="none" stroke="rgb(0, 0, 0)" stroke-opacity="1.0" stroke-linecap="round" stroke-linejoin="round"/>
    <path d="M 115.71607208251953 71.29637145996094 C 79.38691711425781 42.41888427734375 50.33003234863281 121.24623107910156 88.24838256835938 148.55923461914062" stroke-width="3.0" fill="none" stroke="rgb(0, 0, 0)" stroke-opacity="1.0" stroke-linecap="round" stroke-linejoin="round"/>
    <path d="M 116.73998260498047 123.9894027709961 C 116.85539245605469 118.92570495605469 100.63832092285156 133.97230529785156 132.32186889648438 117.80068969726562" stroke-width="3.0" fill="none" stroke="rgb(0, 0, 0)" stroke-opacity="1.0" stroke-linecap="round" stroke-linejoin="round"/>
    <path d="M 127.17289733886719 94.69386291503906 C 124.31800079345703 100.85332489013672 138.90394592285156 109.84078216552734 122.38980865478516 128.828857421875" stroke-width="3.0" fill="none" stroke="rgb(0, 0, 0)" stroke-opacity="1.0" stroke-linecap="round" stroke-linejoin="round"/>
    <path d="M 113.29744720458984 90.5645980834961 C 97.82298278808594 100.9886245727539 102.39811706542969 121.60665893554688 119.34064483642578 127.50898742675781" stroke-width="3.0" fill="none" stroke="rgb(0, 0, 0)" stroke-opacity="1.0" stroke-linecap="round" stroke-linejoin="round"/>
    <path d="M 121.59011840820312 128.27487182617188 C 126.64753723144531 108.56060028076172 109.48612213134766 88.1991958618164 114.63981628417969 108.54019165039062" stroke-width="3.0" fill="none" stroke="rgb(0, 0, 0)" stroke-opacity="1.0" stroke-linecap="round" stroke-linejoin="round"/>
    <path d="M 111.88538360595703 147.522216796875 C 132.47618103027344 114.09497833251953 103.57827758789062 154.4025115966797 142.41827392578125 149.3968048095703" stroke-width="3.0" fill="none" stroke="rgb(0, 0, 0)" stroke-opacity="1.0" stroke-linecap="round" stroke-linejoin="round"/>
    <path d="M 171.1402587890625 115.20641326904297 C 168.1937255859375 130.52609252929688 150.5466766357422 149.76231384277344 139.94168090820312 150.7034912109375" stroke-width="3.0" fill="none" stroke="rgb(0, 0, 0)" stroke-opacity="1.0" stroke-linecap="round" stroke-linejoin="round"/>
    <path d="M 114.60102081298828 129.72352600097656 C 103.02144622802734 95.25286865234375 142.6569366455078 82.4913101196289 127.78060913085938 118.0140151977539" stroke-width="3.0" fill="none" stroke="rgb(0, 0, 0)" stroke-opacity="1.0" stroke-linecap="round" stroke-linejoin="round"/>
    <path d="M 126.09949493408203 121.90164184570312 C 114.63570404052734 127.1081771850586 124.10970306396484 137.9737091064453 131.54808044433594 148.15940856933594" stroke-width="3.0" fill="none" stroke="rgb(0, 0, 0)" stroke-opacity="1.0" stroke-linecap="round" stroke-linejoin="round"/>
    <path d="M 121.31388092041016 96.09485626220703 C 112.06917572021484 124.55005645751953 143.28829956054688 99.70016479492188 119.18762969970703 85.37861633300781" stroke-width="3.0" fill="none" stroke="rgb(0, 0, 0)" stroke-opacity="1.0" stroke-linecap="round" stroke-linejoin="round"/>
    <path d="M 106.39271545410156 117.14330291748047 C 120.65950012207031 111.04759979248047 117.6642837524414 66.99815368652344 113.3466796875 119.0060806274414" stroke-width="3.0" fill="none" stroke="rgb(0, 0, 0)" stroke-opacity="1.0" stroke-linecap="round" stroke-linejoin="round"/>
    <path d="M 89.04387664794922 148.4896697998047 C 103.73043060302734 157.99130249023438 98.86486053466797 144.87376403808594 129.94686889648438 147.71730041503906" stroke-width="3.0" fill="none" stroke="rgb(0, 0, 0)" stroke-opacity="1.0" stroke-linecap="round" stroke-linejoin="round"/>
    <path d="M 119.66606903076172 89.39789581298828 C 99.89078521728516 34.91279220581055 180.02902221679688 60.00050735473633 170.69918823242188 113.29331970214844" stroke-width="3.0" fill="none" stroke="rgb(0, 0, 0)" stroke-opacity="1.0" stroke-linecap="round" stroke-linejoin="round"/>
    <path d="M 111.82151794433594 40.789424896240234 C 126.4568862915039 60.39338684082031 106.59822845458984 90.67924499511719 124.47425079345703 62.5178337097168" stroke-width="3.0" fill="none" stroke="rgb(0, 0, 0)" stroke-opacity="1.0" stroke-linecap="round" stroke-linejoin="round"/>
  </g>
</svg>
