<?xml version="1.0" ?>
<svg xmlns="http://www.w3.org/2000/svg" version="1.1" width="224" height="224">
  <defs/>
  <g>
    <path d="M 117.96997833251953 93.3954849243164 C 135.1870880126953 101.89158630371094 124.62628173828125 95.1418685913086 130.95938110351562 96.6258316040039" stroke-width="3.0" fill="none" stroke="rgb(0, 0, 0)" stroke-opacity="1.0" stroke-linecap="round" stroke-linejoin="round"/>
    <path d="M 127.87098693847656 94.32767486572266 C 141.37744140625 127.94390106201172 111.65689849853516 105.46693420410156 133.10545349121094 102.63941955566406" stroke-width="3.0" fill="none" stroke="rgb(0, 0, 0)" stroke-opacity="1.0" stroke-linecap="round" stroke-linejoin="round"/>
    <path d="M 119.18756103515625 72.48594665527344 C 85.46593475341797 38.668113708496094 45.927120208740234 114.90383911132812 91.10617065429688 147.19692993164062" stroke-width="3.0" fill="none" stroke="rgb(0, 0, 0)" stroke-opacity="1.0" stroke-linecap="round" stroke-linejoin="round"/>
    <path d="M 113.44401550292969 91.390625 C 128.05775451660156 152.3920135498047 87.15933990478516 111.23328399658203 110.14744567871094 89.67350769042969" stroke-width="3.0" fill="none" stroke="rgb(0, 0, 0)" stroke-opacity="1.0" stroke-linecap="round" stroke-linejoin="round"/>
    <path d="M 131.22610473632812 94.77061462402344 C 134.38296508789062 87.96148681640625 141.50086975097656 120.23851776123047 128.57150268554688 131.2479705810547" stroke-width="3.0" fill="none" stroke="rgb(0, 0, 0)" stroke-opacity="1.0" stroke-linecap="round" stroke-linejoin="round"/>
    <path d="M 111.4171142578125 109.7155532836914 C 122.2457046508789 49.67900848388672 101.67464447021484 111.40631866455078 112.32807922363281 116.86965942382812" stroke-width="3.0" fill="none" stroke="rgb(0, 0, 0)" stroke-opacity="1.0" stroke-linecap="round" stroke-linejoin="round"/>
    <path d="M 109.65888977050781 92.71788787841797 C 122.73748016357422 134.1017303466797 97.30792236328125 85.40740966796875 112.2164535522461 120.46658325195312" stroke-width="3.0" fill="none" stroke="rgb(0, 0, 0)" stroke-opacity="1.0" stroke-linecap="round" stroke-linejoin="round"/>
    <path d="M 116.05530548095703 149.25070190429688 C 130.78134155273438 110.09444427490234 126.0184097290039 158.10076904296875 134.4049072265625 150.77255249023438" stroke-width="3.0" fill="none" stroke="rgb(0, 0, 0)" stroke-opacity="1.0" stroke-linecap="round" stroke-linejoin="round"/>
    <path d="M 172.41366577148438 106.67413330078125 C 173.75486755371094 131.55210876464844 150.03533935546875 156.76663208007812 131.6619415283203 150.3391571044922" stroke-width="3.0" fill="none" stroke="rgb(0, 0, 0)" stroke-opacity="1.0" stroke-linecap="round" stroke-linejoin="round"/>
    <path d="M 135.84632873535156 118.3319320678711 C 142.1417236328125 102.48046112060547 103.38787841796875 58.8736572265625 101.412841796875 112.74523162841797" stroke-width="3.0" fill="none" stroke="rgb(0, 0, 0)" stroke-opacity="1.0" stroke-linecap="round" stroke-linejoin="round"/>
    <path d="M 122.04173278808594 85.74980926513672 C 116.56879425048828 143.05044555664062 125.129150390625 116.13127899169922 122.74038696289062 149.67991638183594" stroke-width="3.0" fill="none" stroke="rgb(0, 0, 0)" stroke-opacity="1.0" stroke-linecap="round" stroke-linejoin="round"/>
    <path d="M 123.54955291748047 87.49177551269531 C 139.65911865234375 94.81298065185547 125.95423889160156 109.00946044921875 113.09569549560547 52.41994094848633" stroke-width="3.0" fill="none" stroke="rgb(0, 0, 0)" stroke-opacity="1.0" stroke-linecap="round" stroke-linejoin="round"/>
    <path d="M 114.54102325439453 77.53135681152344 C 123.86099243164062 117.85913848876953 133.11029052734375 82.28331756591797 133.18353271484375 102.44058227539062" stroke-width="3.0" fill="none" stroke="rgb(0, 0, 0)" stroke-opacity="1.0" stroke-linecap="round" stroke-linejoin="round"/>
    <path d="M 84.61300659179688 142.25881958007812 C 105.42831420898438 162.33291625976562 97.46398162841797 145.20437622070312 128.76605224609375 150.92469787597656" stroke-width="3.0" fill="none" stroke="rgb(0, 0, 0)" stroke-opacity="1.0" stroke-linecap="round" stroke-linejoin="round"/>
    <path d="M 122.36814880371094 96.54772186279297 C 101.41357421875 29.103538513183594 183.13861083984375 68.00907135009766 170.9902801513672 111.34967803955078" stroke-width="3.0" fill="none" stroke="rgb(0, 0, 0)" stroke-opacity="1.0" stroke-linecap="round" stroke-linejoin="round"/>
    <path d="M 112.03863525390625 38.9654426574707 C 126.0434341430664 59.55512237548828 101.38032531738281 69.73849487304688 126.63084411621094 60.51126480102539" stroke-width="3.0" fill="none" stroke="rgb(0, 0, 0)" stroke-opacity="1.0" stroke-linecap="round" stroke-linejoin="round"/>
  </g>
</svg>
