<?xml version="1.0" ?>
<svg xmlns="http://www.w3.org/2000/svg" version="1.1" width="224" height="224">
  <defs/>
  <g>
    <path d="M 117.62477111816406 97.23812103271484 C 135.22006225585938 102.17899322509766 124.41753387451172 95.36683654785156 130.57887268066406 96.25665283203125" stroke-width="3.0" fill="none" stroke="rgb(0, 0, 0)" stroke-opacity="1.0" stroke-linecap="round" stroke-linejoin="round"/>
    <path d="M 126.30677032470703 95.61847686767578 C 140.8292694091797 128.1449432373047 110.07577514648438 99.9705581665039 129.37713623046875 98.99545288085938" stroke-width="3.0" fill="none" stroke="rgb(0, 0, 0)" stroke-opacity="1.0" stroke-linecap="round" stroke-linejoin="round"/>
    <path d="M 117.96477508544922 74.19910430908203 C 85.40522003173828 37.98047637939453 45.90938186645508 115.18396759033203 90.8648452758789 147.29066467285156" stroke-width="3.0" fill="none" stroke="rgb(0, 0, 0)" stroke-opacity="1.0" stroke-linecap="round" stroke-linejoin="round"/>
    <path d="M 110.87725830078125 92.04067993164062 C 125.42053985595703 151.53807067871094 85.51300048828125 112.19671630859375 111.59644317626953 92.05641174316406" stroke-width="3.0" fill="none" stroke="rgb(0, 0, 0)" stroke-opacity="1.0" stroke-linecap="round" stroke-linejoin="round"/>
    <path d="M 131.13568115234375 93.6622314453125 C 133.61549377441406 87.41168212890625 139.787841796875 118.76333618164062 126.63603973388672 130.76116943359375" stroke-width="3.0" fill="none" stroke="rgb(0, 0, 0)" stroke-opacity="1.0" stroke-linecap="round" stroke-linejoin="round"/>
    <path d="M 109.3289794921875 108.85955047607422 C 123.50881958007812 50.11549377441406 104.06722259521484 113.11318969726562 110.97914123535156 120.56084442138672" stroke-width="3.0" fill="none" stroke="rgb(0, 0, 0)" stroke-opacity="1.0" stroke-linecap="round" stroke-linejoin="round"/>
    <path d="M 109.19155883789062 94.39837646484375 C 122.8495864868164 133.54469299316406 97.31084442138672 84.45853424072266 114.1868667602539 118.87908172607422" stroke-width="3.0" fill="none" stroke="rgb(0, 0, 0)" stroke-opacity="1.0" stroke-linecap="round" stroke-linejoin="round"/>
    <path d="M 115.6991958618164 149.3086700439453 C 130.0192108154297 109.7220687866211 122.95246124267578 158.638427734375 131.72323608398438 150.23387145996094" stroke-width="3.0" fill="none" stroke="rgb(0, 0, 0)" stroke-opacity="1.0" stroke-linecap="round" stroke-linejoin="round"/>
    <path d="M 172.2555694580078 106.24417114257812 C 172.856689453125 130.8656005859375 149.3375701904297 155.21722412109375 129.4985809326172 150.30763244628906" stroke-width="3.0" fill="none" stroke="rgb(0, 0, 0)" stroke-opacity="1.0" stroke-linecap="round" stroke-linejoin="round"/>
    <path d="M 137.3575897216797 119.41175079345703 C 140.72499084472656 103.81037902832031 101.59320831298828 58.024009704589844 101.93407440185547 110.27289581298828" stroke-width="3.0" fill="none" stroke="rgb(0, 0, 0)" stroke-opacity="1.0" stroke-linecap="round" stroke-linejoin="round"/>
    <path d="M 122.44308471679688 87.46464538574219 C 117.12926483154297 142.500732421875 125.69654846191406 115.72975158691406 122.2018814086914 149.20375061035156" stroke-width="3.0" fill="none" stroke="rgb(0, 0, 0)" stroke-opacity="1.0" stroke-linecap="round" stroke-linejoin="round"/>
    <path d="M 123.90504455566406 89.37715148925781 C 141.76170349121094 93.63522338867188 130.48680114746094 105.57881164550781 112.84938049316406 52.3257942199707" stroke-width="3.0" fill="none" stroke="rgb(0, 0, 0)" stroke-opacity="1.0" stroke-linecap="round" stroke-linejoin="round"/>
    <path d="M 115.57648468017578 77.66973114013672 C 125.35218048095703 118.956298828125 133.81381225585938 83.94678497314453 133.00184631347656 103.90796661376953" stroke-width="3.0" fill="none" stroke="rgb(0, 0, 0)" stroke-opacity="1.0" stroke-linecap="round" stroke-linejoin="round"/>
    <path d="M 84.79924774169922 142.18475341796875 C 104.92942810058594 163.76161193847656 97.6004409790039 144.2178192138672 125.8118896484375 151.18838500976562" stroke-width="3.0" fill="none" stroke="rgb(0, 0, 0)" stroke-opacity="1.0" stroke-linecap="round" stroke-linejoin="round"/>
    <path d="M 123.91751098632812 96.19039916992188 C 103.05897521972656 29.444808959960938 184.37527465820312 68.8010482788086 171.41680908203125 111.18232727050781" stroke-width="3.0" fill="none" stroke="rgb(0, 0, 0)" stroke-opacity="1.0" stroke-linecap="round" stroke-linejoin="round"/>
    <path d="M 110.63150024414062 42.34168243408203 C 124.50856018066406 58.18052291870117 99.27361297607422 70.59091186523438 127.28517150878906 62.57814025878906" stroke-width="3.0" fill="none" stroke="rgb(0, 0, 0)" stroke-opacity="1.0" stroke-linecap="round" stroke-linejoin="round"/>
  </g>
</svg>
