<?xml version="1.0" ?>
<svg xmlns="http://www.w3.org/2000/svg" version="1.1" width="224" height="224">
  <defs/>
  <g>
    <path d="M 111.53174591064453 97.58358764648438 C 127.55612182617188 118.98889923095703 125.08966827392578 123.43264770507812 117.63014221191406 100.41412353515625" stroke-width="3.0" fill="none" stroke="rgb(0, 0, 0)" stroke-opacity="1.0" stroke-linecap="round" stroke-linejoin="round"/>
    <path d="M 134.51901245117188 105.84051513671875 C 127.89749908447266 129.8268585205078 108.48103332519531 138.10867309570312 121.78462219238281 113.77140045166016" stroke-width="3.0" fill="none" stroke="rgb(0, 0, 0)" stroke-opacity="1.0" stroke-linecap="round" stroke-linejoin="round"/>
    <path d="M 114.1363296508789 68.64039611816406 C 61.54182052612305 55.36533737182617 65.440673828125 131.5352325439453 85.52749633789062 144.75637817382812" stroke-width="3.0" fill="none" stroke="rgb(0, 0, 0)" stroke-opacity="1.0" stroke-linecap="round" stroke-linejoin="round"/>
    <path d="M 114.68550109863281 123.44978332519531 C 100.85501098632812 105.12091827392578 97.75092315673828 115.28146362304688 129.58128356933594 111.75987243652344" stroke-width="3.0" fill="none" stroke="rgb(0, 0, 0)" stroke-opacity="1.0" stroke-linecap="round" stroke-linejoin="round"/>
    <path d="M 159.71615600585938 105.2869873046875 C 137.9977569580078 98.67066192626953 141.8497772216797 95.83387756347656 127.9079818725586 115.31510162353516" stroke-width="3.0" fill="none" stroke="rgb(0, 0, 0)" stroke-opacity="1.0" stroke-linecap="round" stroke-linejoin="round"/>
    <path d="M 116.3387222290039 85.1007080078125 C 98.12267303466797 107.40855407714844 101.98407745361328 120.02250671386719 120.02812957763672 129.091064453125" stroke-width="3.0" fill="none" stroke="rgb(0, 0, 0)" stroke-opacity="1.0" stroke-linecap="round" stroke-linejoin="round"/>
    <path d="M 123.08785247802734 126.73055267333984 C 118.27751159667969 109.42228698730469 103.27721405029297 84.31583404541016 107.46613311767578 119.73551177978516" stroke-width="3.0" fill="none" stroke="rgb(0, 0, 0)" stroke-opacity="1.0" stroke-linecap="round" stroke-linejoin="round"/>
    <path d="M 112.8883285522461 146.88270568847656 C 129.4608612060547 113.68067169189453 108.61619567871094 155.79653930664062 143.8642120361328 149.169677734375" stroke-width="3.0" fill="none" stroke="rgb(0, 0, 0)" stroke-opacity="1.0" stroke-linecap="round" stroke-linejoin="round"/>
    <path d="M 169.80062866210938 111.01090240478516 C 168.86119079589844 130.85218811035156 151.94932556152344 145.6233367919922 141.8383331298828 149.09475708007812" stroke-width="3.0" fill="none" stroke="rgb(0, 0, 0)" stroke-opacity="1.0" stroke-linecap="round" stroke-linejoin="round"/>
    <path d="M 115.9708251953125 127.1679458618164 C 106.04216766357422 94.318603515625 134.63189697265625 90.36555480957031 121.88652801513672 103.46614074707031" stroke-width="3.0" fill="none" stroke="rgb(0, 0, 0)" stroke-opacity="1.0" stroke-linecap="round" stroke-linejoin="round"/>
    <path d="M 116.83167266845703 118.72547912597656 C 113.16047668457031 122.89317321777344 125.93698120117188 139.1562957763672 131.88441467285156 147.922119140625" stroke-width="3.0" fill="none" stroke="rgb(0, 0, 0)" stroke-opacity="1.0" stroke-linecap="round" stroke-linejoin="round"/>
    <path d="M 127.47821044921875 102.86328125 C 129.5574951171875 129.8951873779297 142.5531005859375 93.2121810913086 121.13861083984375 96.89086151123047" stroke-width="3.0" fill="none" stroke="rgb(0, 0, 0)" stroke-opacity="1.0" stroke-linecap="round" stroke-linejoin="round"/>
    <path d="M 112.52169036865234 120.89473724365234 C 135.1394500732422 111.197998046875 127.51075744628906 81.52288818359375 124.48285675048828 112.23128509521484" stroke-width="3.0" fill="none" stroke="rgb(0, 0, 0)" stroke-opacity="1.0" stroke-linecap="round" stroke-linejoin="round"/>
    <path d="M 86.37460327148438 145.8724822998047 C 105.6466064453125 160.1068115234375 99.93008422851562 146.10223388671875 130.4364471435547 149.3677215576172" stroke-width="3.0" fill="none" stroke="rgb(0, 0, 0)" stroke-opacity="1.0" stroke-linecap="round" stroke-linejoin="round"/>
    <path d="M 118.92528533935547 71.47126770019531 C 121.42113494873047 49.988739013671875 173.0948486328125 63.88800811767578 169.6376953125 108.50175476074219" stroke-width="3.0" fill="none" stroke="rgb(0, 0, 0)" stroke-opacity="1.0" stroke-linecap="round" stroke-linejoin="round"/>
    <path d="M 112.05393981933594 40.918792724609375 C 125.19884490966797 64.74943542480469 106.0119857788086 89.24275207519531 119.04412841796875 62.58282470703125" stroke-width="3.0" fill="none" stroke="rgb(0, 0, 0)" stroke-opacity="1.0" stroke-linecap="round" stroke-linejoin="round"/>
  </g>
</svg>
