<?xml version="1.0" ?>
<svg xmlns="http://www.w3.org/2000/svg" version="1.1" width="224" height="224">
  <defs/>
  <g>
    <path d="M 104.07791900634766 109.52704620361328 C 122.80460357666016 116.74239349365234 127.98210144042969 118.73118591308594 123.02777862548828 110.80878448486328" stroke-width="3.0" fill="none" stroke="rgb(0, 0, 0)" stroke-opacity="1.0" stroke-linecap="round" stroke-linejoin="round"/>
    <path d="M 123.6914291381836 115.99529266357422 C 120.88530731201172 124.30464172363281 120.89898681640625 124.60479736328125 127.85335540771484 131.67343139648438" stroke-width="3.0" fill="none" stroke="rgb(0, 0, 0)" stroke-opacity="1.0" stroke-linecap="round" stroke-linejoin="round"/>
    <path d="M 74.74794006347656 85.11492156982422 C 75.6563949584961 107.22538757324219 92.04415893554688 111.47474670410156 90.9101791381836 124.16313171386719" stroke-width="3.0" fill="none" stroke="rgb(0, 0, 0)" stroke-opacity="1.0" stroke-linecap="round" stroke-linejoin="round"/>
    <path d="M 109.51176452636719 113.73649597167969 C 107.36292266845703 109.86392974853516 107.92032623291016 113.28023529052734 127.5809555053711 110.36956787109375" stroke-width="3.0" fill="none" stroke="rgb(0, 0, 0)" stroke-opacity="1.0" stroke-linecap="round" stroke-linejoin="round"/>
    <path d="M 155.31912231445312 100.75601959228516 C 143.54481506347656 112.90516662597656 146.57708740234375 107.42459106445312 141.09669494628906 108.94458770751953" stroke-width="3.0" fill="none" stroke="rgb(0, 0, 0)" stroke-opacity="1.0" stroke-linecap="round" stroke-linejoin="round"/>
    <path d="M 93.1649398803711 114.21788024902344 C 94.22134399414062 114.0170669555664 95.7203598022461 121.22319030761719 105.94910430908203 126.68758392333984" stroke-width="3.0" fill="none" stroke="rgb(0, 0, 0)" stroke-opacity="1.0" stroke-linecap="round" stroke-linejoin="round"/>
    <path d="M 109.53226470947266 112.72932434082031 C 114.03965759277344 105.80473327636719 114.48223876953125 99.43414306640625 115.67630767822266 110.77043914794922" stroke-width="3.0" fill="none" stroke="rgb(0, 0, 0)" stroke-opacity="1.0" stroke-linecap="round" stroke-linejoin="round"/>
    <path d="M 115.27172088623047 151.1275634765625 C 122.0737075805664 143.74917602539062 114.21273040771484 154.8983154296875 139.6898651123047 151.82020568847656" stroke-width="3.0" fill="none" stroke="rgb(0, 0, 0)" stroke-opacity="1.0" stroke-linecap="round" stroke-linejoin="round"/>
    <path d="M 156.51321411132812 130.9221649169922 C 138.48426818847656 150.50491333007812 153.5006103515625 139.72955322265625 151.05287170410156 139.16671752929688" stroke-width="3.0" fill="none" stroke="rgb(0, 0, 0)" stroke-opacity="1.0" stroke-linecap="round" stroke-linejoin="round"/>
    <path d="M 128.68719482421875 113.80818939208984 C 114.5272216796875 106.66800689697266 122.54025268554688 90.44815826416016 125.43272399902344 103.56263732910156" stroke-width="3.0" fill="none" stroke="rgb(0, 0, 0)" stroke-opacity="1.0" stroke-linecap="round" stroke-linejoin="round"/>
    <path d="M 119.01527404785156 128.56524658203125 C 125.59058380126953 138.16165161132812 128.63453674316406 145.5322265625 128.91966247558594 144.66128540039062" stroke-width="3.0" fill="none" stroke="rgb(0, 0, 0)" stroke-opacity="1.0" stroke-linecap="round" stroke-linejoin="round"/>
    <path d="M 122.66921997070312 116.59662628173828 C 135.85818481445312 117.37179565429688 138.86643981933594 100.92803192138672 122.01905059814453 97.64582824707031" stroke-width="3.0" fill="none" stroke="rgb(0, 0, 0)" stroke-opacity="1.0" stroke-linecap="round" stroke-linejoin="round"/>
    <path d="M 116.07496643066406 111.2127685546875 C 118.20803833007812 111.55245971679688 121.01111602783203 104.85704040527344 121.91756439208984 115.17698669433594" stroke-width="3.0" fill="none" stroke="rgb(0, 0, 0)" stroke-opacity="1.0" stroke-linecap="round" stroke-linejoin="round"/>
    <path d="M 91.62456512451172 151.75328063964844 C 108.3824234008789 154.36721801757812 94.64628601074219 152.09446716308594 119.58336639404297 146.91136169433594" stroke-width="3.0" fill="none" stroke="rgb(0, 0, 0)" stroke-opacity="1.0" stroke-linecap="round" stroke-linejoin="round"/>
    <path d="M 138.89089965820312 65.91643524169922 C 133.5581817626953 65.1312026977539 151.47789001464844 64.11444854736328 157.34634399414062 85.5351333618164" stroke-width="3.0" fill="none" stroke="rgb(0, 0, 0)" stroke-opacity="1.0" stroke-linecap="round" stroke-linejoin="round"/>
    <path d="M 98.87124633789062 57.3359489440918 C 116.58607482910156 57.20185470581055 111.51262664794922 68.99161529541016 120.7841796875 59.742149353027344" stroke-width="3.0" fill="none" stroke="rgb(0, 0, 0)" stroke-opacity="1.0" stroke-linecap="round" stroke-linejoin="round"/>
  </g>
</svg>
