<?xml version="1.0" ?>
<svg xmlns="http://www.w3.org/2000/svg" version="1.1" width="224" height="224">
  <defs/>
  <g>
    <path d="M 109.05259704589844 94.2640609741211 C 130.3962860107422 117.86186218261719 127.60546875 123.9820785522461 124.32260131835938 97.02803802490234" stroke-width="3.0" fill="none" stroke="rgb(0, 0, 0)" stroke-opacity="1.0" stroke-linecap="round" stroke-linejoin="round"/>
    <path d="M 126.9926986694336 105.24412536621094 C 130.00315856933594 126.73751831054688 99.48692321777344 129.5565185546875 121.68838500976562 96.26415252685547" stroke-width="3.0" fill="none" stroke="rgb(0, 0, 0)" stroke-opacity="1.0" stroke-linecap="round" stroke-linejoin="round"/>
    <path d="M 114.71328735351562 73.03807830810547 C 75.0191650390625 45.250877380371094 52.56702423095703 122.2137680053711 88.7614517211914 147.77293395996094" stroke-width="3.0" fill="none" stroke="rgb(0, 0, 0)" stroke-opacity="1.0" stroke-linecap="round" stroke-linejoin="round"/>
    <path d="M 119.3880844116211 124.29637908935547 C 120.36122131347656 112.33792877197266 100.74192810058594 131.7238311767578 120.92802429199219 118.57366943359375" stroke-width="3.0" fill="none" stroke="rgb(0, 0, 0)" stroke-opacity="1.0" stroke-linecap="round" stroke-linejoin="round"/>
    <path d="M 130.5043487548828 100.49837493896484 C 128.7356414794922 99.92034149169922 133.88552856445312 106.84882354736328 127.32392883300781 128.92576599121094" stroke-width="3.0" fill="none" stroke="rgb(0, 0, 0)" stroke-opacity="1.0" stroke-linecap="round" stroke-linejoin="round"/>
    <path d="M 113.41793823242188 90.16123962402344 C 97.96572875976562 105.0977783203125 101.2617416381836 122.11479187011719 119.3624496459961 128.59027099609375" stroke-width="3.0" fill="none" stroke="rgb(0, 0, 0)" stroke-opacity="1.0" stroke-linecap="round" stroke-linejoin="round"/>
    <path d="M 125.22296905517578 125.17310333251953 C 126.7694320678711 105.7003173828125 101.15589141845703 85.53706359863281 108.12989807128906 113.31502532958984" stroke-width="3.0" fill="none" stroke="rgb(0, 0, 0)" stroke-opacity="1.0" stroke-linecap="round" stroke-linejoin="round"/>
    <path d="M 110.61013793945312 150.38531494140625 C 136.1839141845703 114.70416259765625 108.3912582397461 157.82872009277344 140.80386352539062 149.4510955810547" stroke-width="3.0" fill="none" stroke="rgb(0, 0, 0)" stroke-opacity="1.0" stroke-linecap="round" stroke-linejoin="round"/>
    <path d="M 172.5845489501953 115.88214111328125 C 167.29737854003906 131.23011779785156 153.60789489746094 151.52439880371094 139.63458251953125 149.40553283691406" stroke-width="3.0" fill="none" stroke="rgb(0, 0, 0)" stroke-opacity="1.0" stroke-linecap="round" stroke-linejoin="round"/>
    <path d="M 115.14645385742188 123.58757781982422 C 102.65205383300781 99.08907318115234 142.3978729248047 90.51553344726562 131.19000244140625 116.80543518066406" stroke-width="3.0" fill="none" stroke="rgb(0, 0, 0)" stroke-opacity="1.0" stroke-linecap="round" stroke-linejoin="round"/>
    <path d="M 123.4610366821289 119.64340209960938 C 119.49852752685547 126.31891632080078 125.13689422607422 138.4816131591797 136.84182739257812 148.22430419921875" stroke-width="3.0" fill="none" stroke="rgb(0, 0, 0)" stroke-opacity="1.0" stroke-linecap="round" stroke-linejoin="round"/>
    <path d="M 114.48250579833984 102.16345977783203 C 116.4189224243164 121.87269592285156 139.79002380371094 96.38565826416016 116.26554870605469 83.72173309326172" stroke-width="3.0" fill="none" stroke="rgb(0, 0, 0)" stroke-opacity="1.0" stroke-linecap="round" stroke-linejoin="round"/>
    <path d="M 109.98487854003906 119.98934173583984 C 126.49671936035156 107.55039978027344 116.5988998413086 65.4580307006836 119.29286193847656 118.80332946777344" stroke-width="3.0" fill="none" stroke="rgb(0, 0, 0)" stroke-opacity="1.0" stroke-linecap="round" stroke-linejoin="round"/>
    <path d="M 89.06791687011719 147.2245635986328 C 104.71532440185547 158.7328643798828 98.36096954345703 147.18382263183594 133.1556396484375 148.93145751953125" stroke-width="3.0" fill="none" stroke="rgb(0, 0, 0)" stroke-opacity="1.0" stroke-linecap="round" stroke-linejoin="round"/>
    <path d="M 121.32131958007812 85.18733978271484 C 101.79174041748047 40.394508361816406 180.8811492919922 60.34267807006836 172.2581329345703 115.85041046142578" stroke-width="3.0" fill="none" stroke="rgb(0, 0, 0)" stroke-opacity="1.0" stroke-linecap="round" stroke-linejoin="round"/>
    <path d="M 110.90689086914062 40.0516471862793 C 126.498779296875 61.513572692871094 104.8801040649414 92.9112548828125 122.91686248779297 65.64083099365234" stroke-width="3.0" fill="none" stroke="rgb(0, 0, 0)" stroke-opacity="1.0" stroke-linecap="round" stroke-linejoin="round"/>
  </g>
</svg>
