<?xml version="1.0" ?>
<svg xmlns="http://www.w3.org/2000/svg" version="1.1" width="224" height="224">
  <defs/>
  <g>
    <path d="M 106.82189178466797 104.49373626708984 C 122.35401153564453 120.1240463256836 129.61923217773438 120.72662353515625 119.71444702148438 103.3668212890625" stroke-width="3.0" fill="none" stroke="rgb(0, 0, 0)" stroke-opacity="1.0" stroke-linecap="round" stroke-linejoin="round"/>
    <path d="M 129.20091247558594 103.36383056640625 C 123.50785064697266 127.96256256103516 113.01156616210938 134.2672576904297 122.22120666503906 112.40980529785156" stroke-width="3.0" fill="none" stroke="rgb(0, 0, 0)" stroke-opacity="1.0" stroke-linecap="round" stroke-linejoin="round"/>
    <path d="M 113.72644805908203 65.66180419921875 C 58.06083679199219 59.98014450073242 66.6123046875 134.54669189453125 87.2320327758789 144.94924926757812" stroke-width="3.0" fill="none" stroke="rgb(0, 0, 0)" stroke-opacity="1.0" stroke-linecap="round" stroke-linejoin="round"/>
    <path d="M 112.53217315673828 119.98513793945312 C 98.82203674316406 99.58251190185547 95.37416076660156 110.38219451904297 129.88742065429688 109.94780731201172" stroke-width="3.0" fill="none" stroke="rgb(0, 0, 0)" stroke-opacity="1.0" stroke-linecap="round" stroke-linejoin="round"/>
    <path d="M 160.99545288085938 110.50187683105469 C 140.24801635742188 100.27696228027344 136.16310119628906 96.92174530029297 124.30553436279297 107.49088287353516" stroke-width="3.0" fill="none" stroke="rgb(0, 0, 0)" stroke-opacity="1.0" stroke-linecap="round" stroke-linejoin="round"/>
    <path d="M 112.079833984375 94.07805633544922 C 96.30644989013672 102.16509246826172 103.47312927246094 119.32200622558594 117.20048522949219 126.82929992675781" stroke-width="3.0" fill="none" stroke="rgb(0, 0, 0)" stroke-opacity="1.0" stroke-linecap="round" stroke-linejoin="round"/>
    <path d="M 116.95909118652344 116.36419677734375 C 123.92350769042969 107.18208312988281 102.7719955444336 84.1943588256836 109.19417572021484 117.0678482055664" stroke-width="3.0" fill="none" stroke="rgb(0, 0, 0)" stroke-opacity="1.0" stroke-linecap="round" stroke-linejoin="round"/>
    <path d="M 112.71346282958984 146.73492431640625 C 129.22067260742188 120.78266906738281 107.52765655517578 156.07553100585938 144.51145935058594 148.64479064941406" stroke-width="3.0" fill="none" stroke="rgb(0, 0, 0)" stroke-opacity="1.0" stroke-linecap="round" stroke-linejoin="round"/>
    <path d="M 172.07034301757812 108.4760513305664 C 169.0480499267578 132.44532775878906 151.0011444091797 144.15219116210938 141.6425323486328 149.2388153076172" stroke-width="3.0" fill="none" stroke="rgb(0, 0, 0)" stroke-opacity="1.0" stroke-linecap="round" stroke-linejoin="round"/>
    <path d="M 115.6107406616211 125.0207748413086 C 106.73716735839844 97.41228485107422 135.8028106689453 97.28595733642578 121.85645294189453 103.54541015625" stroke-width="3.0" fill="none" stroke="rgb(0, 0, 0)" stroke-opacity="1.0" stroke-linecap="round" stroke-linejoin="round"/>
    <path d="M 121.17707824707031 122.61078643798828 C 114.94192504882812 124.60953521728516 124.925048828125 142.36029052734375 135.30789184570312 149.36135864257812" stroke-width="3.0" fill="none" stroke="rgb(0, 0, 0)" stroke-opacity="1.0" stroke-linecap="round" stroke-linejoin="round"/>
    <path d="M 126.62450408935547 104.59133911132812 C 134.17144775390625 129.49598693847656 141.72994995117188 91.03607177734375 120.8836441040039 97.44178009033203" stroke-width="3.0" fill="none" stroke="rgb(0, 0, 0)" stroke-opacity="1.0" stroke-linecap="round" stroke-linejoin="round"/>
    <path d="M 107.86087799072266 112.49440002441406 C 124.05924224853516 101.9891357421875 125.31505584716797 80.52580261230469 121.85706329345703 108.82894134521484" stroke-width="3.0" fill="none" stroke="rgb(0, 0, 0)" stroke-opacity="1.0" stroke-linecap="round" stroke-linejoin="round"/>
    <path d="M 86.60842895507812 144.50498962402344 C 104.20394897460938 158.749755859375 100.72842407226562 143.1903533935547 130.03550720214844 144.64645385742188" stroke-width="3.0" fill="none" stroke="rgb(0, 0, 0)" stroke-opacity="1.0" stroke-linecap="round" stroke-linejoin="round"/>
    <path d="M 118.51648712158203 67.99288177490234 C 123.81346130371094 52.46387481689453 176.94790649414062 69.79277801513672 171.19149780273438 108.56291198730469" stroke-width="3.0" fill="none" stroke="rgb(0, 0, 0)" stroke-opacity="1.0" stroke-linecap="round" stroke-linejoin="round"/>
    <path d="M 113.21734619140625 41.47987365722656 C 122.69744873046875 60.75947570800781 100.22526550292969 82.01675415039062 118.68602752685547 60.24652862548828" stroke-width="3.0" fill="none" stroke="rgb(0, 0, 0)" stroke-opacity="1.0" stroke-linecap="round" stroke-linejoin="round"/>
  </g>
</svg>
