<?xml version="1.0" ?>
<svg xmlns="http://www.w3.org/2000/svg" version="1.1" width="224" height="224">
  <defs/>
  <g>
    <path d="M 103.28630065917969 103.5501937866211 C 122.03889465332031 121.6734390258789 134.03562927246094 121.16617584228516 126.04765319824219 101.33126831054688" stroke-width="3.0" fill="none" stroke="rgb(0, 0, 0)" stroke-opacity="1.0" stroke-linecap="round" stroke-linejoin="round"/>
    <path d="M 136.0921630859375 109.62881469726562 C 123.90486145019531 128.86566162109375 115.87610626220703 136.01722717285156 119.35248565673828 118.97218322753906" stroke-width="3.0" fill="none" stroke="rgb(0, 0, 0)" stroke-opacity="1.0" stroke-linecap="round" stroke-linejoin="round"/>
    <path d="M 107.99485778808594 64.80772399902344 C 56.464176177978516 62.594764709472656 70.18341064453125 134.83522033691406 86.97919464111328 144.02964782714844" stroke-width="3.0" fill="none" stroke="rgb(0, 0, 0)" stroke-opacity="1.0" stroke-linecap="round" stroke-linejoin="round"/>
    <path d="M 108.63982391357422 114.34556579589844 C 104.06978607177734 93.10855865478516 111.6009750366211 99.23311614990234 134.10093688964844 111.45792388916016" stroke-width="3.0" fill="none" stroke="rgb(0, 0, 0)" stroke-opacity="1.0" stroke-linecap="round" stroke-linejoin="round"/>
    <path d="M 160.48513793945312 110.1778564453125 C 144.27032470703125 103.42192840576172 141.0007781982422 103.7457275390625 132.16915893554688 116.4013442993164" stroke-width="3.0" fill="none" stroke="rgb(0, 0, 0)" stroke-opacity="1.0" stroke-linecap="round" stroke-linejoin="round"/>
    <path d="M 104.47530364990234 99.15699005126953 C 100.00791931152344 109.83018493652344 100.01319885253906 124.8596420288086 115.60095977783203 131.8785858154297" stroke-width="3.0" fill="none" stroke="rgb(0, 0, 0)" stroke-opacity="1.0" stroke-linecap="round" stroke-linejoin="round"/>
    <path d="M 113.79466247558594 112.70018768310547 C 121.94041442871094 104.61492156982422 101.81781005859375 78.72931671142578 107.86492919921875 117.12264251708984" stroke-width="3.0" fill="none" stroke="rgb(0, 0, 0)" stroke-opacity="1.0" stroke-linecap="round" stroke-linejoin="round"/>
    <path d="M 113.61913299560547 145.56820678710938 C 129.27418518066406 118.89179992675781 114.71807098388672 155.86517333984375 145.81906127929688 149.3211669921875" stroke-width="3.0" fill="none" stroke="rgb(0, 0, 0)" stroke-opacity="1.0" stroke-linecap="round" stroke-linejoin="round"/>
    <path d="M 173.10536193847656 109.35309600830078 C 169.908935546875 133.6209259033203 152.41783142089844 146.8997344970703 140.8389892578125 150.09918212890625" stroke-width="3.0" fill="none" stroke="rgb(0, 0, 0)" stroke-opacity="1.0" stroke-linecap="round" stroke-linejoin="round"/>
    <path d="M 121.75180053710938 126.86017608642578 C 107.55071258544922 97.83842468261719 134.8260955810547 92.96736145019531 121.60444641113281 97.97928619384766" stroke-width="3.0" fill="none" stroke="rgb(0, 0, 0)" stroke-opacity="1.0" stroke-linecap="round" stroke-linejoin="round"/>
    <path d="M 117.4743423461914 128.90579223632812 C 111.63690948486328 129.29434204101562 133.6414031982422 133.5030975341797 129.81939697265625 149.03680419921875" stroke-width="3.0" fill="none" stroke="rgb(0, 0, 0)" stroke-opacity="1.0" stroke-linecap="round" stroke-linejoin="round"/>
    <path d="M 123.54424285888672 102.10649871826172 C 137.18556213378906 121.78046417236328 140.8660430908203 91.6890869140625 123.42123413085938 96.09963989257812" stroke-width="3.0" fill="none" stroke="rgb(0, 0, 0)" stroke-opacity="1.0" stroke-linecap="round" stroke-linejoin="round"/>
    <path d="M 111.59371185302734 116.75604248046875 C 123.18647766113281 105.07054901123047 117.1384506225586 89.88886260986328 125.04727172851562 112.56526184082031" stroke-width="3.0" fill="none" stroke="rgb(0, 0, 0)" stroke-opacity="1.0" stroke-linecap="round" stroke-linejoin="round"/>
    <path d="M 85.18133544921875 144.80569458007812 C 103.25355529785156 157.33851623535156 95.61164093017578 149.2383270263672 128.87950134277344 148.11439514160156" stroke-width="3.0" fill="none" stroke="rgb(0, 0, 0)" stroke-opacity="1.0" stroke-linecap="round" stroke-linejoin="round"/>
    <path d="M 121.0610122680664 64.56851959228516 C 131.1785430908203 50.673274993896484 171.90415954589844 65.23664855957031 173.0498046875 109.38130187988281" stroke-width="3.0" fill="none" stroke="rgb(0, 0, 0)" stroke-opacity="1.0" stroke-linecap="round" stroke-linejoin="round"/>
    <path d="M 109.03373718261719 41.080833435058594 C 130.09188842773438 74.64159393310547 104.85010528564453 82.77698516845703 118.1010971069336 59.032318115234375" stroke-width="3.0" fill="none" stroke="rgb(0, 0, 0)" stroke-opacity="1.0" stroke-linecap="round" stroke-linejoin="round"/>
  </g>
</svg>
