<?xml version="1.0" ?>
<svg xmlns="http://www.w3.org/2000/svg" version="1.1" width="224" height="224">
  <defs/>
  <g>
    <path d="M 122.14446258544922 86.3673095703125 C 146.9374542236328 103.22251892089844 122.64085388183594 109.13787078857422 120.41058349609375 90.81876373291016" stroke-width="3.0" fill="none" stroke="rgb(0, 0, 0)" stroke-opacity="1.0" stroke-linecap="round" stroke-linejoin="round"/>
    <path d="M 120.86087799072266 91.96564483642578 C 143.06434631347656 130.8238525390625 114.58402252197266 104.271728515625 128.1020965576172 93.34928131103516" stroke-width="3.0" fill="none" stroke="rgb(0, 0, 0)" stroke-opacity="1.0" stroke-linecap="round" stroke-linejoin="round"/>
    <path d="M 118.12727355957031 74.62986755371094 C 83.91888427734375 39.054874420166016 47.152099609375 114.7199478149414 91.50072479248047 149.78244018554688" stroke-width="3.0" fill="none" stroke="rgb(0, 0, 0)" stroke-opacity="1.0" stroke-linecap="round" stroke-linejoin="round"/>
    <path d="M 124.09613800048828 132.4176025390625 C 124.46614074707031 119.02902221679688 105.56047821044922 126.9641342163086 103.6097640991211 105.28756713867188" stroke-width="3.0" fill="none" stroke="rgb(0, 0, 0)" stroke-opacity="1.0" stroke-linecap="round" stroke-linejoin="round"/>
    <path d="M 125.41698455810547 95.04154968261719 C 132.9522705078125 93.05767059326172 142.0290069580078 112.82108306884766 124.47569274902344 132.32925415039062" stroke-width="3.0" fill="none" stroke="rgb(0, 0, 0)" stroke-opacity="1.0" stroke-linecap="round" stroke-linejoin="round"/>
    <path d="M 113.38534545898438 96.24340057373047 C 117.3305435180664 82.88275146484375 114.78363037109375 124.92082977294922 128.5452880859375 129.78472900390625" stroke-width="3.0" fill="none" stroke="rgb(0, 0, 0)" stroke-opacity="1.0" stroke-linecap="round" stroke-linejoin="round"/>
    <path d="M 113.5218734741211 119.51751708984375 C 116.38273620605469 107.29216766357422 114.44242858886719 81.41056823730469 107.57914733886719 110.06449127197266" stroke-width="3.0" fill="none" stroke="rgb(0, 0, 0)" stroke-opacity="1.0" stroke-linecap="round" stroke-linejoin="round"/>
    <path d="M 110.17124938964844 145.5778350830078 C 134.8793487548828 113.31282043457031 98.23971557617188 159.82855224609375 141.46405029296875 149.44534301757812" stroke-width="3.0" fill="none" stroke="rgb(0, 0, 0)" stroke-opacity="1.0" stroke-linecap="round" stroke-linejoin="round"/>
    <path d="M 169.96324157714844 114.41134643554688 C 168.70513916015625 131.68154907226562 153.0316925048828 146.9324951171875 137.6760711669922 150.1738739013672" stroke-width="3.0" fill="none" stroke="rgb(0, 0, 0)" stroke-opacity="1.0" stroke-linecap="round" stroke-linejoin="round"/>
    <path d="M 118.1703872680664 124.5394287109375 C 116.62388610839844 97.09075164794922 129.1985321044922 64.11270904541016 109.0053939819336 98.47653198242188" stroke-width="3.0" fill="none" stroke="rgb(0, 0, 0)" stroke-opacity="1.0" stroke-linecap="round" stroke-linejoin="round"/>
    <path d="M 117.69697570800781 100.24834442138672 C 122.00331115722656 137.12393188476562 124.00395202636719 134.5051727294922 130.58216857910156 149.23733520507812" stroke-width="3.0" fill="none" stroke="rgb(0, 0, 0)" stroke-opacity="1.0" stroke-linecap="round" stroke-linejoin="round"/>
    <path d="M 122.17318725585938 82.39996337890625 C 128.20169067382812 102.83988189697266 131.28378295898438 101.40751647949219 118.48641204833984 74.03004455566406" stroke-width="3.0" fill="none" stroke="rgb(0, 0, 0)" stroke-opacity="1.0" stroke-linecap="round" stroke-linejoin="round"/>
    <path d="M 107.19046783447266 98.08216857910156 C 120.23893737792969 110.59502410888672 101.01014709472656 76.93827819824219 105.72614288330078 110.53034210205078" stroke-width="3.0" fill="none" stroke="rgb(0, 0, 0)" stroke-opacity="1.0" stroke-linecap="round" stroke-linejoin="round"/>
    <path d="M 88.64347839355469 147.5955047607422 C 100.66034698486328 154.87989807128906 98.65771484375 146.95001220703125 126.10873413085938 150.45883178710938" stroke-width="3.0" fill="none" stroke="rgb(0, 0, 0)" stroke-opacity="1.0" stroke-linecap="round" stroke-linejoin="round"/>
    <path d="M 123.03193664550781 93.8455581665039 C 103.57063293457031 31.663963317871094 181.9952392578125 61.35753631591797 169.20343017578125 113.68916320800781" stroke-width="3.0" fill="none" stroke="rgb(0, 0, 0)" stroke-opacity="1.0" stroke-linecap="round" stroke-linejoin="round"/>
    <path d="M 108.99954223632812 42.7578010559082 C 123.2130126953125 66.0597915649414 104.00639343261719 66.37162780761719 124.34001159667969 64.49778747558594" stroke-width="3.0" fill="none" stroke="rgb(0, 0, 0)" stroke-opacity="1.0" stroke-linecap="round" stroke-linejoin="round"/>
  </g>
</svg>
