<?xml version="1.0" ?>
<svg xmlns="http://www.w3.org/2000/svg" version="1.1" width="224" height="224">
  <defs/>
  <g>
    <path d="M 119.68350219726562 83.78350067138672 C 142.10667419433594 109.75833892822266 125.08961486816406 119.49800109863281 123.29271697998047 91.6736068725586" stroke-width="3.0" fill="none" stroke="rgb(0, 0, 0)" stroke-opacity="1.0" stroke-linecap="round" stroke-linejoin="round"/>
    <path d="M 118.35629272460938 92.89229583740234 C 138.33547973632812 118.49717712402344 110.49369049072266 104.38667297363281 130.49024963378906 99.76708984375" stroke-width="3.0" fill="none" stroke="rgb(0, 0, 0)" stroke-opacity="1.0" stroke-linecap="round" stroke-linejoin="round"/>
    <path d="M 116.31613159179688 72.40139770507812 C 85.29400634765625 45.20038604736328 48.0403938293457 117.23663330078125 89.67230987548828 148.20712280273438" stroke-width="3.0" fill="none" stroke="rgb(0, 0, 0)" stroke-opacity="1.0" stroke-linecap="round" stroke-linejoin="round"/>
    <path d="M 118.1823959350586 128.0852813720703 C 120.92131805419922 117.31360626220703 106.66081237792969 138.0624237060547 105.66415405273438 107.58705139160156" stroke-width="3.0" fill="none" stroke="rgb(0, 0, 0)" stroke-opacity="1.0" stroke-linecap="round" stroke-linejoin="round"/>
    <path d="M 123.77984619140625 89.99360656738281 C 133.44161987304688 101.97990417480469 142.6488037109375 104.15556335449219 123.47250366210938 129.6834259033203" stroke-width="3.0" fill="none" stroke="rgb(0, 0, 0)" stroke-opacity="1.0" stroke-linecap="round" stroke-linejoin="round"/>
    <path d="M 108.275634765625 86.10398864746094 C 103.92740631103516 89.8768310546875 103.16653442382812 124.52761840820312 123.6095199584961 130.2185516357422" stroke-width="3.0" fill="none" stroke="rgb(0, 0, 0)" stroke-opacity="1.0" stroke-linecap="round" stroke-linejoin="round"/>
    <path d="M 111.49231719970703 123.97203063964844 C 114.18030548095703 108.62057495117188 112.3738021850586 85.17046356201172 110.76974487304688 113.97797393798828" stroke-width="3.0" fill="none" stroke="rgb(0, 0, 0)" stroke-opacity="1.0" stroke-linecap="round" stroke-linejoin="round"/>
    <path d="M 108.52381134033203 149.42771911621094 C 136.3494110107422 117.8121566772461 103.00604248046875 153.94581604003906 140.7149658203125 148.98193359375" stroke-width="3.0" fill="none" stroke="rgb(0, 0, 0)" stroke-opacity="1.0" stroke-linecap="round" stroke-linejoin="round"/>
    <path d="M 169.60435485839844 115.66767120361328 C 167.6254119873047 130.39654541015625 151.6299591064453 147.17604064941406 140.3184814453125 149.65576171875" stroke-width="3.0" fill="none" stroke="rgb(0, 0, 0)" stroke-opacity="1.0" stroke-linecap="round" stroke-linejoin="round"/>
    <path d="M 117.07335662841797 123.04132843017578 C 110.83000946044922 99.01690673828125 132.01828002929688 75.92369079589844 105.55437469482422 100.03334045410156" stroke-width="3.0" fill="none" stroke="rgb(0, 0, 0)" stroke-opacity="1.0" stroke-linecap="round" stroke-linejoin="round"/>
    <path d="M 118.07693481445312 103.56707000732422 C 120.04924011230469 134.5301055908203 126.56918334960938 135.6103515625 129.8185577392578 149.11239624023438" stroke-width="3.0" fill="none" stroke="rgb(0, 0, 0)" stroke-opacity="1.0" stroke-linecap="round" stroke-linejoin="round"/>
    <path d="M 113.86569213867188 81.61079406738281 C 117.47488403320312 110.41605377197266 137.05662536621094 96.12531280517578 115.93099212646484 82.13827514648438" stroke-width="3.0" fill="none" stroke="rgb(0, 0, 0)" stroke-opacity="1.0" stroke-linecap="round" stroke-linejoin="round"/>
    <path d="M 109.8406982421875 96.14358520507812 C 117.0680160522461 115.1913833618164 103.05741882324219 75.50914001464844 105.20494079589844 114.49393463134766" stroke-width="3.0" fill="none" stroke="rgb(0, 0, 0)" stroke-opacity="1.0" stroke-linecap="round" stroke-linejoin="round"/>
    <path d="M 91.99264526367188 149.2234344482422 C 100.02216339111328 157.99497985839844 101.1783676147461 145.1193084716797 128.4745635986328 147.3889617919922" stroke-width="3.0" fill="none" stroke="rgb(0, 0, 0)" stroke-opacity="1.0" stroke-linecap="round" stroke-linejoin="round"/>
    <path d="M 119.58267974853516 95.1718978881836 C 104.83496856689453 37.04459762573242 179.59690856933594 61.118438720703125 169.50518798828125 116.77245330810547" stroke-width="3.0" fill="none" stroke="rgb(0, 0, 0)" stroke-opacity="1.0" stroke-linecap="round" stroke-linejoin="round"/>
    <path d="M 109.79536437988281 40.097530364990234 C 128.70516967773438 66.30673217773438 105.03376007080078 80.58255767822266 125.32620239257812 60.844215393066406" stroke-width="3.0" fill="none" stroke="rgb(0, 0, 0)" stroke-opacity="1.0" stroke-linecap="round" stroke-linejoin="round"/>
  </g>
</svg>
