<?xml version="1.0" ?>
<svg xmlns="http://www.w3.org/2000/svg" version="1.1" width="224" height="224">
  <defs/>
  <g>
    <path d="M 125.93569946289062 90.01032257080078 C 135.18734741210938 104.03807067871094 122.565185546875 99.05104064941406 130.05169677734375 95.3603515625" stroke-width="3.0" fill="none" stroke="rgb(0, 0, 0)" stroke-opacity="1.0" stroke-linecap="round" stroke-linejoin="round"/>
    <path d="M 129.08349609375 89.636474609375 C 144.7762451171875 133.91184997558594 115.60199737548828 102.80453491210938 136.31764221191406 101.8798828125" stroke-width="3.0" fill="none" stroke="rgb(0, 0, 0)" stroke-opacity="1.0" stroke-linecap="round" stroke-linejoin="round"/>
    <path d="M 117.9825668334961 75.51948547363281 C 86.63180541992188 37.137969970703125 46.056365966796875 114.09004211425781 89.33405303955078 147.84567260742188" stroke-width="3.0" fill="none" stroke="rgb(0, 0, 0)" stroke-opacity="1.0" stroke-linecap="round" stroke-linejoin="round"/>
    <path d="M 111.43041229248047 95.42242431640625 C 127.04511260986328 140.60523986816406 87.40371704101562 109.5223159790039 112.80895233154297 91.66232299804688" stroke-width="3.0" fill="none" stroke="rgb(0, 0, 0)" stroke-opacity="1.0" stroke-linecap="round" stroke-linejoin="round"/>
    <path d="M 129.1648712158203 89.25802612304688 C 134.4665069580078 88.60972595214844 141.58184814453125 118.08515167236328 126.28324127197266 131.9157257080078" stroke-width="3.0" fill="none" stroke="rgb(0, 0, 0)" stroke-opacity="1.0" stroke-linecap="round" stroke-linejoin="round"/>
    <path d="M 109.47830200195312 107.6321029663086 C 131.37631225585938 51.362396240234375 114.28309631347656 116.01776885986328 121.88902282714844 127.57569122314453" stroke-width="3.0" fill="none" stroke="rgb(0, 0, 0)" stroke-opacity="1.0" stroke-linecap="round" stroke-linejoin="round"/>
    <path d="M 106.29338836669922 99.0750503540039 C 121.17547607421875 133.74159240722656 96.08209228515625 81.08992767333984 109.92570495605469 113.91109466552734" stroke-width="3.0" fill="none" stroke="rgb(0, 0, 0)" stroke-opacity="1.0" stroke-linecap="round" stroke-linejoin="round"/>
    <path d="M 112.0380859375 150.03497314453125 C 129.3609619140625 100.47046661376953 119.01679229736328 156.91355895996094 128.88192749023438 151.94529724121094" stroke-width="3.0" fill="none" stroke="rgb(0, 0, 0)" stroke-opacity="1.0" stroke-linecap="round" stroke-linejoin="round"/>
    <path d="M 170.79747009277344 109.41201782226562 C 170.4857177734375 131.34877014160156 150.0028533935547 154.8429718017578 128.6071319580078 151.46742248535156" stroke-width="3.0" fill="none" stroke="rgb(0, 0, 0)" stroke-opacity="1.0" stroke-linecap="round" stroke-linejoin="round"/>
    <path d="M 129.55642700195312 106.17321014404297 C 144.07327270507812 103.32496643066406 108.87800598144531 60.00682067871094 110.67572021484375 115.16670989990234" stroke-width="3.0" fill="none" stroke="rgb(0, 0, 0)" stroke-opacity="1.0" stroke-linecap="round" stroke-linejoin="round"/>
    <path d="M 127.24127197265625 93.78152465820312 C 118.78267669677734 144.8727264404297 120.98795318603516 116.44807434082031 118.04658508300781 149.50184631347656" stroke-width="3.0" fill="none" stroke="rgb(0, 0, 0)" stroke-opacity="1.0" stroke-linecap="round" stroke-linejoin="round"/>
    <path d="M 127.51960754394531 87.12135314941406 C 141.34129333496094 93.29109954833984 129.76138305664062 111.20072937011719 115.96665954589844 61.692020416259766" stroke-width="3.0" fill="none" stroke="rgb(0, 0, 0)" stroke-opacity="1.0" stroke-linecap="round" stroke-linejoin="round"/>
    <path d="M 121.8581314086914 72.6468505859375 C 135.5456085205078 108.08406066894531 134.99557495117188 77.34552764892578 134.0505828857422 107.06675720214844" stroke-width="3.0" fill="none" stroke="rgb(0, 0, 0)" stroke-opacity="1.0" stroke-linecap="round" stroke-linejoin="round"/>
    <path d="M 84.9526138305664 146.94239807128906 C 105.81394958496094 162.89134216308594 96.14553833007812 144.11199951171875 132.439453125 152.58676147460938" stroke-width="3.0" fill="none" stroke="rgb(0, 0, 0)" stroke-opacity="1.0" stroke-linecap="round" stroke-linejoin="round"/>
    <path d="M 123.97882080078125 97.75193786621094 C 103.96178436279297 26.482397079467773 180.47567749023438 67.99252319335938 170.4814910888672 113.9543228149414" stroke-width="3.0" fill="none" stroke="rgb(0, 0, 0)" stroke-opacity="1.0" stroke-linecap="round" stroke-linejoin="round"/>
    <path d="M 110.35533905029297 39.87186050415039 C 123.07334899902344 62.00323486328125 102.68763732910156 71.86103057861328 126.3677978515625 61.876216888427734" stroke-width="3.0" fill="none" stroke="rgb(0, 0, 0)" stroke-opacity="1.0" stroke-linecap="round" stroke-linejoin="round"/>
  </g>
</svg>
