<?xml version="1.0" ?>
<svg xmlns="http://www.w3.org/2000/svg" version="1.1" width="224" height="224">
  <defs/>
  <g>
    <path d="M 107.51063537597656 101.91152954101562 C 122.82829284667969 120.33363342285156 128.14596557617188 122.13817596435547 117.88505554199219 103.40845489501953" stroke-width="3.0" fill="none" stroke="rgb(0, 0, 0)" stroke-opacity="1.0" stroke-linecap="round" stroke-linejoin="round"/>
    <path d="M 131.75604248046875 104.5167236328125 C 130.05990600585938 133.68328857421875 116.41504669189453 139.52401733398438 123.0164794921875 112.95232391357422" stroke-width="3.0" fill="none" stroke="rgb(0, 0, 0)" stroke-opacity="1.0" stroke-linecap="round" stroke-linejoin="round"/>
    <path d="M 113.59381866455078 66.21011352539062 C 59.213340759277344 56.72652816772461 65.85773468017578 132.59332275390625 85.89163208007812 146.34078979492188" stroke-width="3.0" fill="none" stroke="rgb(0, 0, 0)" stroke-opacity="1.0" stroke-linecap="round" stroke-linejoin="round"/>
    <path d="M 112.2857894897461 123.5179672241211 C 98.01388549804688 101.86412048339844 95.49225616455078 112.50923919677734 131.46969604492188 112.4637451171875" stroke-width="3.0" fill="none" stroke="rgb(0, 0, 0)" stroke-opacity="1.0" stroke-linecap="round" stroke-linejoin="round"/>
    <path d="M 164.44883728027344 106.19931030273438 C 138.9933624267578 100.52485656738281 136.71719360351562 97.16266632080078 127.7814712524414 113.69075775146484" stroke-width="3.0" fill="none" stroke="rgb(0, 0, 0)" stroke-opacity="1.0" stroke-linecap="round" stroke-linejoin="round"/>
    <path d="M 109.60075378417969 87.07942199707031 C 93.44620513916016 102.32026672363281 101.74000549316406 118.60539245605469 118.5169448852539 128.88157653808594" stroke-width="3.0" fill="none" stroke="rgb(0, 0, 0)" stroke-opacity="1.0" stroke-linecap="round" stroke-linejoin="round"/>
    <path d="M 119.87164306640625 122.65921783447266 C 119.2838363647461 109.10497283935547 103.35305786132812 84.09200286865234 108.66768646240234 118.59671783447266" stroke-width="3.0" fill="none" stroke="rgb(0, 0, 0)" stroke-opacity="1.0" stroke-linecap="round" stroke-linejoin="round"/>
    <path d="M 113.75392150878906 147.9251251220703 C 131.1171112060547 120.43704223632812 107.58216094970703 156.20298767089844 144.48318481445312 149.49009704589844" stroke-width="3.0" fill="none" stroke="rgb(0, 0, 0)" stroke-opacity="1.0" stroke-linecap="round" stroke-linejoin="round"/>
    <path d="M 169.7257843017578 110.05720520019531 C 169.05441284179688 131.5277862548828 152.1781005859375 146.48715209960938 142.018798828125 150.75892639160156" stroke-width="3.0" fill="none" stroke="rgb(0, 0, 0)" stroke-opacity="1.0" stroke-linecap="round" stroke-linejoin="round"/>
    <path d="M 114.24689483642578 122.8875732421875 C 105.83797454833984 93.52915954589844 134.68556213378906 92.6389389038086 123.22531127929688 98.62875366210938" stroke-width="3.0" fill="none" stroke="rgb(0, 0, 0)" stroke-opacity="1.0" stroke-linecap="round" stroke-linejoin="round"/>
    <path d="M 119.7054214477539 120.19271850585938 C 112.27391815185547 125.82410430908203 123.48397064208984 140.82672119140625 133.07916259765625 150.11697387695312" stroke-width="3.0" fill="none" stroke="rgb(0, 0, 0)" stroke-opacity="1.0" stroke-linecap="round" stroke-linejoin="round"/>
    <path d="M 125.881103515625 105.27794647216797 C 130.71424865722656 132.1817169189453 138.92942810058594 94.0606918334961 120.90013885498047 97.15487670898438" stroke-width="3.0" fill="none" stroke="rgb(0, 0, 0)" stroke-opacity="1.0" stroke-linecap="round" stroke-linejoin="round"/>
    <path d="M 109.51597595214844 114.0048828125 C 130.64828491210938 107.37359619140625 124.64035034179688 80.62714385986328 119.29266357421875 109.6270980834961" stroke-width="3.0" fill="none" stroke="rgb(0, 0, 0)" stroke-opacity="1.0" stroke-linecap="round" stroke-linejoin="round"/>
    <path d="M 85.42671966552734 147.02505493164062 C 104.32958984375 160.18980407714844 99.03340148925781 146.01087951660156 128.67041015625 149.1804962158203" stroke-width="3.0" fill="none" stroke="rgb(0, 0, 0)" stroke-opacity="1.0" stroke-linecap="round" stroke-linejoin="round"/>
    <path d="M 121.10565185546875 68.2045669555664 C 124.7669906616211 49.6256217956543 174.81234741210938 65.32164764404297 170.27183532714844 108.43643951416016" stroke-width="3.0" fill="none" stroke="rgb(0, 0, 0)" stroke-opacity="1.0" stroke-linecap="round" stroke-linejoin="round"/>
    <path d="M 111.7619400024414 42.77877426147461 C 122.97110748291016 66.8062515258789 104.93499755859375 88.36490631103516 120.30264282226562 59.255950927734375" stroke-width="3.0" fill="none" stroke="rgb(0, 0, 0)" stroke-opacity="1.0" stroke-linecap="round" stroke-linejoin="round"/>
  </g>
</svg>
