<?xml version="1.0" ?>
<svg xmlns="http://www.w3.org/2000/svg" version="1.1" width="224" height="224">
  <defs/>
  <g>
    <path d="M 130.19036865234375 130.39828491210938 C 165.70481872558594 105.71324157714844 130.28094482421875 91.55396270751953 145.66311645507812 84.44432067871094" stroke-width="3.0" fill="none" stroke="rgb(0, 0, 0)" stroke-opacity="1.0" stroke-linecap="round" stroke-linejoin="round"/>
    <path d="M 26.386962890625 139.68739318847656 C 2.869586229324341 114.22272491455078 25.0366153717041 110.76702880859375 20.366249084472656 135.57012939453125" stroke-width="3.0" fill="none" stroke="rgb(0, 0, 0)" stroke-opacity="1.0" stroke-linecap="round" stroke-linejoin="round"/>
    <path d="M 124.40141296386719 95.73475646972656 C 67.12298583984375 79.42381286621094 89.11170196533203 159.69931030273438 115.39929962158203 108.70865631103516" stroke-width="3.0" fill="none" stroke="rgb(0, 0, 0)" stroke-opacity="1.0" stroke-linecap="round" stroke-linejoin="round"/>
    <path d="M 46.02885437011719 73.81134033203125 C 116.041259765625 42.648006439208984 73.5346450805664 167.58111572265625 44.266448974609375 115.0615234375" stroke-width="3.0" fill="none" stroke="rgb(0, 0, 0)" stroke-opacity="1.0" stroke-linecap="round" stroke-linejoin="round"/>
    <path d="M 150.6124725341797 66.51396942138672 C 201.0422821044922 82.54945373535156 157.39427185058594 124.59521484375 159.0924072265625 108.40544128417969" stroke-width="3.0" fill="none" stroke="rgb(0, 0, 0)" stroke-opacity="1.0" stroke-linecap="round" stroke-linejoin="round"/>
    <path d="M 116.65896606445312 106.37865447998047 C 106.9268798828125 113.8348159790039 106.3722915649414 123.69750213623047 133.96290588378906 86.40303802490234" stroke-width="3.0" fill="none" stroke="rgb(0, 0, 0)" stroke-opacity="1.0" stroke-linecap="round" stroke-linejoin="round"/>
    <path d="M 6.917858123779297 81.1197509765625 C 4.920758247375488 76.26236724853516 16.792993545532227 97.70942687988281 7.871155261993408 108.21743774414062" stroke-width="3.0" fill="none" stroke="rgb(0, 0, 0)" stroke-opacity="1.0" stroke-linecap="round" stroke-linejoin="round"/>
    <path d="M 80.05076599121094 162.6199493408203 C 69.32929229736328 143.76339721679688 75.65272521972656 164.55752563476562 83.49996948242188 149.7642822265625" stroke-width="3.0" fill="none" stroke="rgb(0, 0, 0)" stroke-opacity="1.0" stroke-linecap="round" stroke-linejoin="round"/>
    <path d="M 58.17072296142578 156.94247436523438 C 73.47672271728516 162.1811981201172 81.71781921386719 166.8186492919922 54.019493103027344 199.60435485839844" stroke-width="3.0" fill="none" stroke="rgb(0, 0, 0)" stroke-opacity="1.0" stroke-linecap="round" stroke-linejoin="round"/>
    <path d="M 48.702476501464844 103.4598159790039 C 71.18536376953125 43.03422164916992 -29.610811233520508 90.0697021484375 42.46733093261719 115.64004516601562" stroke-width="3.0" fill="none" stroke="rgb(0, 0, 0)" stroke-opacity="1.0" stroke-linecap="round" stroke-linejoin="round"/>
    <path d="M 90.75434875488281 141.2184600830078 C 102.36743927001953 124.93083190917969 88.90132904052734 130.3809051513672 90.4622573852539 140.85537719726562" stroke-width="3.0" fill="none" stroke="rgb(0, 0, 0)" stroke-opacity="1.0" stroke-linecap="round" stroke-linejoin="round"/>
    <path d="M 92.85639190673828 73.79204559326172 C 96.9408187866211 92.38248443603516 106.61050415039062 92.31721496582031 95.00289916992188 76.1833267211914" stroke-width="3.0" fill="none" stroke="rgb(0, 0, 0)" stroke-opacity="1.0" stroke-linecap="round" stroke-linejoin="round"/>
    <path d="M 8.204572677612305 111.44554138183594 C 26.016923904418945 122.2482681274414 -12.249297142028809 80.56881713867188 23.7675838470459 142.41314697265625" stroke-width="3.0" fill="none" stroke="rgb(0, 0, 0)" stroke-opacity="1.0" stroke-linecap="round" stroke-linejoin="round"/>
    <path d="M 62.80207824707031 181.09225463867188 C 99.71314239501953 155.28834533691406 57.797977447509766 145.8099365234375 48.2776985168457 176.03221130371094" stroke-width="3.0" fill="none" stroke="rgb(0, 0, 0)" stroke-opacity="1.0" stroke-linecap="round" stroke-linejoin="round"/>
    <path d="M 129.97816467285156 58.90247344970703 C 151.35394287109375 70.52362060546875 167.362060546875 44.32858657836914 149.28382873535156 64.96942901611328" stroke-width="3.0" fill="none" stroke="rgb(0, 0, 0)" stroke-opacity="1.0" stroke-linecap="round" stroke-linejoin="round"/>
    <path d="M -5.982725143432617 62.68925476074219 C 19.277055740356445 57.445640563964844 43.652740478515625 46.274131774902344 68.57776641845703 52.67816925048828" stroke-width="3.0" fill="none" stroke="rgb(0, 0, 0)" stroke-opacity="1.0" stroke-linecap="round" stroke-linejoin="round"/>
    <path d="M -2.4944210052490234 74.4187240600586 C 56.672855377197266 55.42161560058594 89.57356262207031 57.77314376831055 135.6569366455078 72.07411193847656" stroke-width="3.0" fill="none" stroke="rgb(0, 0, 0)" stroke-opacity="1.0" stroke-linecap="round" stroke-linejoin="round"/>
    <path d="M 42.450782775878906 169.19998168945312 C 29.663288116455078 156.9947052001953 14.872529029846191 122.7899169921875 34.678096771240234 164.34384155273438" stroke-width="3.0" fill="none" stroke="rgb(0, 0, 0)" stroke-opacity="1.0" stroke-linecap="round" stroke-linejoin="round"/>
    <path d="M 108.04210662841797 173.80299377441406 C 135.1682586669922 108.11913299560547 114.24259948730469 147.30975341796875 125.31502532958984 136.84381103515625" stroke-width="3.0" fill="none" stroke="rgb(0, 0, 0)" stroke-opacity="1.0" stroke-linecap="round" stroke-linejoin="round"/>
    <path d="M 39.11647033691406 160.090087890625 C 50.72956466674805 180.8099365234375 69.40691375732422 140.98338317871094 35.489051818847656 148.74388122558594" stroke-width="3.0" fill="none" stroke="rgb(0, 0, 0)" stroke-opacity="1.0" stroke-linecap="round" stroke-linejoin="round"/>
    <path d="M 121.92208862304688 150.69815063476562 C 88.22793579101562 192.14244079589844 104.60855865478516 202.44219970703125 131.38186645507812 153.65069580078125" stroke-width="3.0" fill="none" stroke="rgb(0, 0, 0)" stroke-opacity="1.0" stroke-linecap="round" stroke-linejoin="round"/>
    <path d="M 74.80084991455078 164.06349182128906 C 116.61687469482422 107.07015991210938 105.27558135986328 133.7899932861328 94.17593383789062 119.03524780273438" stroke-width="3.0" fill="none" stroke="rgb(0, 0, 0)" stroke-opacity="1.0" stroke-linecap="round" stroke-linejoin="round"/>
    <path d="M 141.22198486328125 79.88789367675781 C 135.7930908203125 72.35625457763672 137.91897583007812 94.457275390625 144.38685607910156 68.9686508178711" stroke-width="3.0" fill="none" stroke="rgb(0, 0, 0)" stroke-opacity="1.0" stroke-linecap="round" stroke-linejoin="round"/>
    <path d="M 24.781469345092773 143.92628479003906 C 74.2334213256836 133.0217742919922 -0.668558657169342 85.99724578857422 22.612783432006836 137.384033203125" stroke-width="3.0" fill="none" stroke="rgb(0, 0, 0)" stroke-opacity="1.0" stroke-linecap="round" stroke-linejoin="round"/>
    <path d="M 136.8458709716797 67.04285430908203 C 139.62832641601562 45.27458572387695 209.18260192871094 74.08161926269531 189.42474365234375 83.16670989990234" stroke-width="3.0" fill="none" stroke="rgb(0, 0, 0)" stroke-opacity="1.0" stroke-linecap="round" stroke-linejoin="round"/>
    <path d="M 138.11407470703125 79.78614807128906 C 123.42819213867188 114.16584777832031 119.87157440185547 102.94622802734375 126.54016876220703 102.86202239990234" stroke-width="3.0" fill="none" stroke="rgb(0, 0, 0)" stroke-opacity="1.0" stroke-linecap="round" stroke-linejoin="round"/>
    <path d="M 67.85973358154297 54.06706619262695 C 142.8916015625 48.209144592285156 148.1137237548828 70.45452880859375 86.3485336303711 52.802581787109375" stroke-width="3.0" fill="none" stroke="rgb(0, 0, 0)" stroke-opacity="1.0" stroke-linecap="round" stroke-linejoin="round"/>
    <path d="M 52.788909912109375 194.96240234375 C 43.92831039428711 164.19065856933594 29.025665283203125 170.35595703125 35.160606384277344 148.34848022460938" stroke-width="3.0" fill="none" stroke="rgb(0, 0, 0)" stroke-opacity="1.0" stroke-linecap="round" stroke-linejoin="round"/>
    <path d="M 121.1133041381836 166.4197235107422 C 186.19924926757812 90.67524719238281 162.99856567382812 108.24983978271484 181.46458435058594 88.9894027709961" stroke-width="3.0" fill="none" stroke="rgb(0, 0, 0)" stroke-opacity="1.0" stroke-linecap="round" stroke-linejoin="round"/>
    <path d="M 156.95553588867188 56.357200622558594 C 212.0039825439453 92.84648132324219 185.12725830078125 70.60781860351562 138.85569763183594 144.03211975097656" stroke-width="3.0" fill="none" stroke="rgb(0, 0, 0)" stroke-opacity="1.0" stroke-linecap="round" stroke-linejoin="round"/>
    <path d="M 28.369647979736328 65.1527099609375 C -6.913926124572754 66.74946594238281 -2.286167621612549 67.31266021728516 17.81504249572754 65.79835510253906" stroke-width="3.0" fill="none" stroke="rgb(0, 0, 0)" stroke-opacity="1.0" stroke-linecap="round" stroke-linejoin="round"/>
    <path d="M 68.46852111816406 150.6270751953125 C 78.31318664550781 135.1686553955078 57.52962112426758 144.796142578125 70.7126693725586 129.62615966796875" stroke-width="3.0" fill="none" stroke="rgb(0, 0, 0)" stroke-opacity="1.0" stroke-linecap="round" stroke-linejoin="round"/>
  </g>
</svg>
