<?xml version="1.0" ?>
<svg xmlns="http://www.w3.org/2000/svg" version="1.1" width="224" height="224">
  <defs/>
  <g>
    <path d="M 131.54693603515625 125.15078735351562 C 164.70384216308594 101.4110336303711 127.80261993408203 92.69725799560547 148.2942657470703 73.6378173828125" stroke-width="3.0" fill="none" stroke="rgb(0, 0, 0)" stroke-opacity="1.0" stroke-linecap="round" stroke-linejoin="round"/>
    <path d="M 25.74350929260254 138.8972930908203 C 3.4502763748168945 117.63544464111328 28.731678009033203 114.17224884033203 18.373525619506836 133.1502685546875" stroke-width="3.0" fill="none" stroke="rgb(0, 0, 0)" stroke-opacity="1.0" stroke-linecap="round" stroke-linejoin="round"/>
    <path d="M 122.65105438232422 96.55453491210938 C 65.60114288330078 77.80923461914062 94.23230743408203 163.48348999023438 116.21805572509766 108.85099792480469" stroke-width="3.0" fill="none" stroke="rgb(0, 0, 0)" stroke-opacity="1.0" stroke-linecap="round" stroke-linejoin="round"/>
    <path d="M 43.56150436401367 75.43750762939453 C 114.29590606689453 46.19643783569336 71.45941925048828 171.29205322265625 47.697303771972656 110.57587432861328" stroke-width="3.0" fill="none" stroke="rgb(0, 0, 0)" stroke-opacity="1.0" stroke-linecap="round" stroke-linejoin="round"/>
    <path d="M 151.5333251953125 63.15922546386719 C 201.40733337402344 83.75035095214844 151.507080078125 124.10120391845703 158.0016326904297 103.07686614990234" stroke-width="3.0" fill="none" stroke="rgb(0, 0, 0)" stroke-opacity="1.0" stroke-linecap="round" stroke-linejoin="round"/>
    <path d="M 118.87779235839844 106.72787475585938 C 110.12471771240234 112.0816650390625 108.99212646484375 127.96269226074219 138.8653564453125 81.45272827148438" stroke-width="3.0" fill="none" stroke="rgb(0, 0, 0)" stroke-opacity="1.0" stroke-linecap="round" stroke-linejoin="round"/>
    <path d="M 7.872482776641846 88.90204620361328 C 3.6426355838775635 85.51042175292969 19.32090187072754 94.74588775634766 7.3521904945373535 109.69654846191406" stroke-width="3.0" fill="none" stroke="rgb(0, 0, 0)" stroke-opacity="1.0" stroke-linecap="round" stroke-linejoin="round"/>
    <path d="M 75.50044250488281 166.98745727539062 C 69.04437255859375 147.88787841796875 75.3267822265625 160.0630340576172 85.96368408203125 145.17825317382812" stroke-width="3.0" fill="none" stroke="rgb(0, 0, 0)" stroke-opacity="1.0" stroke-linecap="round" stroke-linejoin="round"/>
    <path d="M 56.086334228515625 160.77352905273438 C 73.58641815185547 155.2879180908203 83.48250579833984 167.31488037109375 54.661407470703125 197.3722381591797" stroke-width="3.0" fill="none" stroke="rgb(0, 0, 0)" stroke-opacity="1.0" stroke-linecap="round" stroke-linejoin="round"/>
    <path d="M 51.456363677978516 111.31398010253906 C 69.90448760986328 45.939205169677734 -29.30941390991211 95.28551483154297 50.58638381958008 112.93310546875" stroke-width="3.0" fill="none" stroke="rgb(0, 0, 0)" stroke-opacity="1.0" stroke-linecap="round" stroke-linejoin="round"/>
    <path d="M 85.9053955078125 143.9652099609375 C 108.66587829589844 131.52259826660156 87.90113830566406 120.06002807617188 87.02606201171875 130.33258056640625" stroke-width="3.0" fill="none" stroke="rgb(0, 0, 0)" stroke-opacity="1.0" stroke-linecap="round" stroke-linejoin="round"/>
    <path d="M 91.44054412841797 82.14128112792969 C 91.61009979248047 87.0339584350586 96.53351593017578 90.41914367675781 92.07109069824219 84.09374237060547" stroke-width="3.0" fill="none" stroke="rgb(0, 0, 0)" stroke-opacity="1.0" stroke-linecap="round" stroke-linejoin="round"/>
    <path d="M 13.182671546936035 107.96257019042969 C 23.135059356689453 128.5211181640625 -11.225958824157715 80.34550476074219 24.4373722076416 144.06153869628906" stroke-width="3.0" fill="none" stroke="rgb(0, 0, 0)" stroke-opacity="1.0" stroke-linecap="round" stroke-linejoin="round"/>
    <path d="M 64.42523193359375 179.1645965576172 C 101.31941223144531 153.1228790283203 54.788997650146484 151.44056701660156 54.163475036621094 178.14170837402344" stroke-width="3.0" fill="none" stroke="rgb(0, 0, 0)" stroke-opacity="1.0" stroke-linecap="round" stroke-linejoin="round"/>
    <path d="M 136.48635864257812 61.60816955566406 C 149.99969482421875 71.50760650634766 161.8534393310547 40.30794143676758 151.5189208984375 62.092262268066406" stroke-width="3.0" fill="none" stroke="rgb(0, 0, 0)" stroke-opacity="1.0" stroke-linecap="round" stroke-linejoin="round"/>
    <path d="M -5.783950328826904 65.34199523925781 C 18.044265747070312 57.20014190673828 38.345985412597656 47.71546173095703 63.56645202636719 54.6023063659668" stroke-width="3.0" fill="none" stroke="rgb(0, 0, 0)" stroke-opacity="1.0" stroke-linecap="round" stroke-linejoin="round"/>
    <path d="M -3.136293411254883 76.85042572021484 C 54.68195343017578 59.46714401245117 98.4666976928711 60.323974609375 136.55145263671875 74.2878646850586" stroke-width="3.0" fill="none" stroke="rgb(0, 0, 0)" stroke-opacity="1.0" stroke-linecap="round" stroke-linejoin="round"/>
    <path d="M 43.70667266845703 170.93199157714844 C 29.5773983001709 157.17758178710938 15.781425476074219 120.6499252319336 34.67340087890625 164.36288452148438" stroke-width="3.0" fill="none" stroke="rgb(0, 0, 0)" stroke-opacity="1.0" stroke-linecap="round" stroke-linejoin="round"/>
    <path d="M 109.88825988769531 171.4852752685547 C 115.67546081542969 110.47755432128906 98.74946594238281 146.42616271972656 125.13018035888672 125.89649963378906" stroke-width="3.0" fill="none" stroke="rgb(0, 0, 0)" stroke-opacity="1.0" stroke-linecap="round" stroke-linejoin="round"/>
    <path d="M 37.361263275146484 162.97450256347656 C 47.895233154296875 184.2543182373047 75.26560974121094 143.7420654296875 36.567237854003906 150.15841674804688" stroke-width="3.0" fill="none" stroke="rgb(0, 0, 0)" stroke-opacity="1.0" stroke-linecap="round" stroke-linejoin="round"/>
    <path d="M 120.8463134765625 141.29913330078125 C 92.76826477050781 195.08889770507812 105.24019622802734 201.07843017578125 132.1358642578125 151.04928588867188" stroke-width="3.0" fill="none" stroke="rgb(0, 0, 0)" stroke-opacity="1.0" stroke-linecap="round" stroke-linejoin="round"/>
    <path d="M 72.84977722167969 165.77850341796875 C 119.28900909423828 105.41525268554688 105.3290023803711 139.91397094726562 88.9006118774414 115.0382080078125" stroke-width="3.0" fill="none" stroke="rgb(0, 0, 0)" stroke-opacity="1.0" stroke-linecap="round" stroke-linejoin="round"/>
    <path d="M 134.5807647705078 86.1065902709961 C 144.13568115234375 74.82080841064453 135.04244995117188 91.89937591552734 145.51559448242188 63.023075103759766" stroke-width="3.0" fill="none" stroke="rgb(0, 0, 0)" stroke-opacity="1.0" stroke-linecap="round" stroke-linejoin="round"/>
    <path d="M 25.181621551513672 143.61007690429688 C 73.05998229980469 129.17372131347656 -0.8918389081954956 87.34228515625 22.311710357666016 135.42755126953125" stroke-width="3.0" fill="none" stroke="rgb(0, 0, 0)" stroke-opacity="1.0" stroke-linecap="round" stroke-linejoin="round"/>
    <path d="M 143.11907958984375 65.26150512695312 C 146.52462768554688 42.7220573425293 206.2500457763672 76.86395263671875 188.70831298828125 81.73294067382812" stroke-width="3.0" fill="none" stroke="rgb(0, 0, 0)" stroke-opacity="1.0" stroke-linecap="round" stroke-linejoin="round"/>
    <path d="M 139.93722534179688 84.68280029296875 C 130.42214965820312 120.71749114990234 129.06617736816406 102.43380737304688 132.1240997314453 101.25774383544922" stroke-width="3.0" fill="none" stroke="rgb(0, 0, 0)" stroke-opacity="1.0" stroke-linecap="round" stroke-linejoin="round"/>
    <path d="M 57.756126403808594 53.0462760925293 C 152.01368713378906 50.326534271240234 179.85398864746094 73.06033325195312 72.51849365234375 52.15018844604492" stroke-width="3.0" fill="none" stroke="rgb(0, 0, 0)" stroke-opacity="1.0" stroke-linecap="round" stroke-linejoin="round"/>
    <path d="M 52.906585693359375 193.58534240722656 C 43.71170425415039 168.01248168945312 31.69119644165039 171.4007568359375 35.13350296020508 151.05880737304688" stroke-width="3.0" fill="none" stroke="rgb(0, 0, 0)" stroke-opacity="1.0" stroke-linecap="round" stroke-linejoin="round"/>
    <path d="M 120.29694366455078 166.30284118652344 C 186.9176788330078 92.29512023925781 161.53408813476562 106.2928237915039 177.7702178955078 91.37322235107422" stroke-width="3.0" fill="none" stroke="rgb(0, 0, 0)" stroke-opacity="1.0" stroke-linecap="round" stroke-linejoin="round"/>
    <path d="M 155.5857696533203 53.48279571533203 C 213.509521484375 93.76007843017578 183.091064453125 67.05573272705078 136.34873962402344 145.8043975830078" stroke-width="3.0" fill="none" stroke="rgb(0, 0, 0)" stroke-opacity="1.0" stroke-linecap="round" stroke-linejoin="round"/>
    <path d="M 29.447647094726562 68.36796569824219 C -5.99166202545166 84.86260986328125 -5.666051864624023 76.35285186767578 18.181943893432617 71.83611297607422" stroke-width="3.0" fill="none" stroke="rgb(0, 0, 0)" stroke-opacity="1.0" stroke-linecap="round" stroke-linejoin="round"/>
    <path d="M 65.95054626464844 154.88442993164062 C 74.36088562011719 138.2273406982422 59.01841354370117 145.64285278320312 74.32159423828125 131.3059539794922" stroke-width="3.0" fill="none" stroke="rgb(0, 0, 0)" stroke-opacity="1.0" stroke-linecap="round" stroke-linejoin="round"/>
  </g>
</svg>
