<?xml version="1.0" ?>
<svg xmlns="http://www.w3.org/2000/svg" version="1.1" width="224" height="224">
  <defs/>
  <g>
    <path d="M 139.7057342529297 97.87828826904297 C 147.08761596679688 102.63829040527344 143.53900146484375 97.13783264160156 137.31985473632812 100.0179672241211" stroke-width="3.0" fill="none" stroke="rgb(0, 0, 0)" stroke-opacity="1.0" stroke-linecap="round" stroke-linejoin="round"/>
    <path d="M 22.735958099365234 127.722412109375 C 30.080461502075195 126.51235961914062 31.53215217590332 129.8582000732422 22.49225425720215 131.12060546875" stroke-width="3.0" fill="none" stroke="rgb(0, 0, 0)" stroke-opacity="1.0" stroke-linecap="round" stroke-linejoin="round"/>
    <path d="M 94.41608428955078 108.11707305908203 C 90.5740966796875 113.33541107177734 92.81236267089844 114.18315887451172 93.99037170410156 119.87015533447266" stroke-width="3.0" fill="none" stroke="rgb(0, 0, 0)" stroke-opacity="1.0" stroke-linecap="round" stroke-linejoin="round"/>
    <path d="M 58.513206481933594 107.53272247314453 C 71.12335205078125 105.34220886230469 66.20532989501953 113.97013092041016 60.34666061401367 110.21782684326172" stroke-width="3.0" fill="none" stroke="rgb(0, 0, 0)" stroke-opacity="1.0" stroke-linecap="round" stroke-linejoin="round"/>
    <path d="M 139.28207397460938 92.46907043457031 C 135.35678100585938 84.52987670898438 142.93893432617188 82.31698608398438 141.8351287841797 88.47557067871094" stroke-width="3.0" fill="none" stroke="rgb(0, 0, 0)" stroke-opacity="1.0" stroke-linecap="round" stroke-linejoin="round"/>
    <path d="M 100.81109619140625 120.73448181152344 C 100.71543884277344 120.68954467773438 97.04371643066406 127.04943084716797 102.92366027832031 119.2175064086914" stroke-width="3.0" fill="none" stroke="rgb(0, 0, 0)" stroke-opacity="1.0" stroke-linecap="round" stroke-linejoin="round"/>
    <path d="M 12.381182670593262 95.32130432128906 C 12.968960762023926 92.4333724975586 22.39958381652832 94.66740417480469 7.374853134155273 100.62744140625" stroke-width="3.0" fill="none" stroke="rgb(0, 0, 0)" stroke-opacity="1.0" stroke-linecap="round" stroke-linejoin="round"/>
    <path d="M 78.26031494140625 159.57545471191406 C 84.28838348388672 161.97509765625 82.31808471679688 163.9795379638672 76.74871826171875 155.64813232421875" stroke-width="3.0" fill="none" stroke="rgb(0, 0, 0)" stroke-opacity="1.0" stroke-linecap="round" stroke-linejoin="round"/>
    <path d="M 76.95177459716797 176.9552001953125 C 77.01754760742188 181.22189331054688 78.08782196044922 177.44146728515625 65.61299896240234 179.27044677734375" stroke-width="3.0" fill="none" stroke="rgb(0, 0, 0)" stroke-opacity="1.0" stroke-linecap="round" stroke-linejoin="round"/>
    <path d="M 46.716129302978516 90.14637756347656 C 52.26445770263672 95.94939422607422 38.04794692993164 91.75006103515625 39.67149353027344 92.104248046875" stroke-width="3.0" fill="none" stroke="rgb(0, 0, 0)" stroke-opacity="1.0" stroke-linecap="round" stroke-linejoin="round"/>
    <path d="M 93.71796417236328 141.38365173339844 C 102.38690948486328 140.82339477539062 109.3867416381836 138.45863342285156 97.19999694824219 141.09901428222656" stroke-width="3.0" fill="none" stroke="rgb(0, 0, 0)" stroke-opacity="1.0" stroke-linecap="round" stroke-linejoin="round"/>
    <path d="M 103.50308990478516 103.7754135131836 C 105.76287078857422 104.77783203125 102.37027740478516 102.96809387207031 109.5354232788086 90.26859283447266" stroke-width="3.0" fill="none" stroke="rgb(0, 0, 0)" stroke-opacity="1.0" stroke-linecap="round" stroke-linejoin="round"/>
    <path d="M 10.731366157531738 106.03679656982422 C 13.120509147644043 103.6195068359375 6.8291473388671875 105.9019775390625 14.532304763793945 111.26532745361328" stroke-width="3.0" fill="none" stroke="rgb(0, 0, 0)" stroke-opacity="1.0" stroke-linecap="round" stroke-linejoin="round"/>
    <path d="M 61.12446594238281 172.3773193359375 C 79.51044464111328 165.48208618164062 77.49077606201172 175.5824737548828 74.2221450805664 176.92503356933594" stroke-width="3.0" fill="none" stroke="rgb(0, 0, 0)" stroke-opacity="1.0" stroke-linecap="round" stroke-linejoin="round"/>
    <path d="M 121.32839965820312 54.95186996459961 C 116.82587432861328 55.837345123291016 125.095703125 56.38621520996094 129.6149139404297 58.249961853027344" stroke-width="3.0" fill="none" stroke="rgb(0, 0, 0)" stroke-opacity="1.0" stroke-linecap="round" stroke-linejoin="round"/>
    <path d="M 7.328315258026123 64.9748764038086 C 22.94098663330078 60.201175689697266 18.02345848083496 60.804840087890625 27.006752014160156 58.14780044555664" stroke-width="3.0" fill="none" stroke="rgb(0, 0, 0)" stroke-opacity="1.0" stroke-linecap="round" stroke-linejoin="round"/>
    <path d="M 55.012691497802734 52.37661361694336 C 65.66101837158203 49.113525390625 69.01251983642578 51.33827590942383 69.81232452392578 50.217220306396484" stroke-width="3.0" fill="none" stroke="rgb(0, 0, 0)" stroke-opacity="1.0" stroke-linecap="round" stroke-linejoin="round"/>
    <path d="M 53.0380859375 151.0384063720703 C 44.37582778930664 147.08892822265625 38.97393798828125 148.07872009277344 45.665489196777344 151.74557495117188" stroke-width="3.0" fill="none" stroke="rgb(0, 0, 0)" stroke-opacity="1.0" stroke-linecap="round" stroke-linejoin="round"/>
    <path d="M 122.71022033691406 149.41041564941406 C 133.14964294433594 140.72506713867188 132.077880859375 140.8466033935547 126.42678833007812 141.6237335205078" stroke-width="3.0" fill="none" stroke="rgb(0, 0, 0)" stroke-opacity="1.0" stroke-linecap="round" stroke-linejoin="round"/>
    <path d="M 43.94014358520508 157.2265167236328 C 55.96573257446289 163.5052947998047 48.758628845214844 150.38429260253906 47.7317008972168 151.9263458251953" stroke-width="3.0" fill="none" stroke="rgb(0, 0, 0)" stroke-opacity="1.0" stroke-linecap="round" stroke-linejoin="round"/>
    <path d="M 110.54904174804688 175.0922393798828 C 106.72212982177734 179.88795471191406 103.89812469482422 185.76611328125 108.62100219726562 180.1426239013672" stroke-width="3.0" fill="none" stroke="rgb(0, 0, 0)" stroke-opacity="1.0" stroke-linecap="round" stroke-linejoin="round"/>
    <path d="M 91.20418548583984 138.25099182128906 C 91.65570068359375 132.9205322265625 86.97616577148438 133.7991485595703 97.0717544555664 134.93603515625" stroke-width="3.0" fill="none" stroke="rgb(0, 0, 0)" stroke-opacity="1.0" stroke-linecap="round" stroke-linejoin="round"/>
    <path d="M 133.24351501464844 97.50235748291016 C 124.40300750732422 92.43983459472656 119.88619232177734 90.8875961303711 118.51824188232422 98.16622924804688" stroke-width="3.0" fill="none" stroke="rgb(0, 0, 0)" stroke-opacity="1.0" stroke-linecap="round" stroke-linejoin="round"/>
    <path d="M 28.154499053955078 138.14736938476562 C 37.59439468383789 135.00732421875 34.22620391845703 128.02394104003906 26.7244873046875 134.87408447265625" stroke-width="3.0" fill="none" stroke="rgb(0, 0, 0)" stroke-opacity="1.0" stroke-linecap="round" stroke-linejoin="round"/>
    <path d="M 171.18296813964844 59.08280563354492 C 168.20668029785156 60.17815017700195 168.06358337402344 59.65876388549805 171.49038696289062 59.60107421875" stroke-width="3.0" fill="none" stroke="rgb(0, 0, 0)" stroke-opacity="1.0" stroke-linecap="round" stroke-linejoin="round"/>
    <path d="M 124.9469985961914 122.64644622802734 C 124.1259536743164 114.40397644042969 118.10686492919922 118.94022369384766 122.05675506591797 115.09164428710938" stroke-width="3.0" fill="none" stroke="rgb(0, 0, 0)" stroke-opacity="1.0" stroke-linecap="round" stroke-linejoin="round"/>
    <path d="M 110.08699035644531 62.632789611816406 C 113.93113708496094 62.951927185058594 111.7302474975586 60.57943344116211 109.83840942382812 59.63815689086914" stroke-width="3.0" fill="none" stroke="rgb(0, 0, 0)" stroke-opacity="1.0" stroke-linecap="round" stroke-linejoin="round"/>
    <path d="M 53.814720153808594 175.29049682617188 C 49.8455810546875 166.77963256835938 45.83308792114258 165.1670379638672 52.76177215576172 161.10400390625" stroke-width="3.0" fill="none" stroke="rgb(0, 0, 0)" stroke-opacity="1.0" stroke-linecap="round" stroke-linejoin="round"/>
    <path d="M 154.17501831054688 108.65326690673828 C 160.6722869873047 92.00618743896484 164.62481689453125 96.81684875488281 155.3069305419922 88.60258483886719" stroke-width="3.0" fill="none" stroke="rgb(0, 0, 0)" stroke-opacity="1.0" stroke-linecap="round" stroke-linejoin="round"/>
    <path d="M 153.61488342285156 84.43611907958984 C 156.26690673828125 92.33175659179688 156.21926879882812 96.38489532470703 155.9093475341797 100.86373901367188" stroke-width="3.0" fill="none" stroke="rgb(0, 0, 0)" stroke-opacity="1.0" stroke-linecap="round" stroke-linejoin="round"/>
    <path d="M 17.40119171142578 75.27887725830078 C 27.752105712890625 76.23013305664062 28.840883255004883 76.74552154541016 23.289995193481445 77.10914611816406" stroke-width="3.0" fill="none" stroke="rgb(0, 0, 0)" stroke-opacity="1.0" stroke-linecap="round" stroke-linejoin="round"/>
    <path d="M 51.81348419189453 142.36044311523438 C 49.471397399902344 135.79635620117188 48.87385940551758 136.33697509765625 52.90447998046875 133.32569885253906" stroke-width="3.0" fill="none" stroke="rgb(0, 0, 0)" stroke-opacity="1.0" stroke-linecap="round" stroke-linejoin="round"/>
  </g>
</svg>
