<?xml version="1.0" ?>
<svg xmlns="http://www.w3.org/2000/svg" version="1.1" width="224" height="224">
  <defs/>
  <g>
    <path d="M 124.87569427490234 136.28541564941406 C 142.43246459960938 92.5589370727539 156.1011505126953 51.04759216308594 169.3799591064453 69.51368713378906" stroke-width="3.0" fill="none" stroke="rgb(0, 0, 0)" stroke-opacity="1.0" stroke-linecap="round" stroke-linejoin="round"/>
    <path d="M 30.290971755981445 143.5350341796875 C 4.700514316558838 125.23854064941406 27.924114227294922 107.62934875488281 16.51729965209961 128.9083251953125" stroke-width="3.0" fill="none" stroke="rgb(0, 0, 0)" stroke-opacity="1.0" stroke-linecap="round" stroke-linejoin="round"/>
    <path d="M 128.0540313720703 87.8176498413086 C 90.77114868164062 33.959659576416016 69.60514831542969 167.40994262695312 116.37281036376953 108.9840316772461" stroke-width="3.0" fill="none" stroke="rgb(0, 0, 0)" stroke-opacity="1.0" stroke-linecap="round" stroke-linejoin="round"/>
    <path d="M 43.77301025390625 77.47087097167969 C 109.7530517578125 33.81520080566406 73.4865493774414 166.21688842773438 47.13740921020508 111.2417984008789" stroke-width="3.0" fill="none" stroke="rgb(0, 0, 0)" stroke-opacity="1.0" stroke-linecap="round" stroke-linejoin="round"/>
    <path d="M 147.99288940429688 72.80133819580078 C 189.90174865722656 77.27176666259766 147.0336151123047 123.1634750366211 163.90121459960938 94.34211730957031" stroke-width="3.0" fill="none" stroke="rgb(0, 0, 0)" stroke-opacity="1.0" stroke-linecap="round" stroke-linejoin="round"/>
    <path d="M 132.27552795410156 89.9014663696289 C 109.13187408447266 117.25335693359375 103.78279113769531 121.70426177978516 153.6843719482422 61.85226821899414" stroke-width="3.0" fill="none" stroke="rgb(0, 0, 0)" stroke-opacity="1.0" stroke-linecap="round" stroke-linejoin="round"/>
    <path d="M 13.976364135742188 90.47106170654297 C 1.469905972480774 73.0787124633789 19.374351501464844 97.36693572998047 5.549551963806152 110.03006744384766" stroke-width="3.0" fill="none" stroke="rgb(0, 0, 0)" stroke-opacity="1.0" stroke-linecap="round" stroke-linejoin="round"/>
    <path d="M 88.0193862915039 145.2115478515625 C 66.8260726928711 137.36569213867188 88.81526947021484 122.45938873291016 69.92145538330078 119.48058319091797" stroke-width="3.0" fill="none" stroke="rgb(0, 0, 0)" stroke-opacity="1.0" stroke-linecap="round" stroke-linejoin="round"/>
    <path d="M 67.53985595703125 148.6839599609375 C 76.68341827392578 150.69195556640625 86.4798355102539 156.4400177001953 55.00242233276367 199.87167358398438" stroke-width="3.0" fill="none" stroke="rgb(0, 0, 0)" stroke-opacity="1.0" stroke-linecap="round" stroke-linejoin="round"/>
    <path d="M 49.840450286865234 118.41509246826172 C 64.25809478759766 36.06313705444336 -26.127092361450195 110.3345718383789 48.71347427368164 112.18122863769531" stroke-width="3.0" fill="none" stroke="rgb(0, 0, 0)" stroke-opacity="1.0" stroke-linecap="round" stroke-linejoin="round"/>
    <path d="M 97.69389343261719 116.42230224609375 C 118.09693908691406 136.5922393798828 80.74806213378906 89.87584686279297 92.27070617675781 95.12982940673828" stroke-width="3.0" fill="none" stroke="rgb(0, 0, 0)" stroke-opacity="1.0" stroke-linecap="round" stroke-linejoin="round"/>
    <path d="M 76.69322204589844 68.22525024414062 C 109.95091247558594 76.67884826660156 76.8585205078125 91.47782897949219 89.7320327758789 76.91230010986328" stroke-width="3.0" fill="none" stroke="rgb(0, 0, 0)" stroke-opacity="1.0" stroke-linecap="round" stroke-linejoin="round"/>
    <path d="M 12.961530685424805 110.88317108154297 C 28.994943618774414 135.48895263671875 -22.359329223632812 71.35718536376953 34.99203109741211 160.4884490966797" stroke-width="3.0" fill="none" stroke="rgb(0, 0, 0)" stroke-opacity="1.0" stroke-linecap="round" stroke-linejoin="round"/>
    <path d="M 58.329769134521484 185.8837890625 C 129.79273986816406 142.1808624267578 13.426589965820312 152.63088989257812 67.662841796875 181.7760772705078" stroke-width="3.0" fill="none" stroke="rgb(0, 0, 0)" stroke-opacity="1.0" stroke-linecap="round" stroke-linejoin="round"/>
    <path d="M 153.75454711914062 88.22301483154297 C 152.09237670898438 109.21745300292969 147.1822967529297 39.55023193359375 160.21241760253906 64.21324920654297" stroke-width="3.0" fill="none" stroke="rgb(0, 0, 0)" stroke-opacity="1.0" stroke-linecap="round" stroke-linejoin="round"/>
    <path d="M -9.759561538696289 72.03617858886719 C 7.5750322341918945 61.598567962646484 33.511756896972656 45.35192108154297 75.98994445800781 51.84944152832031" stroke-width="3.0" fill="none" stroke="rgb(0, 0, 0)" stroke-opacity="1.0" stroke-linecap="round" stroke-linejoin="round"/>
    <path d="M -0.8518782258033752 83.43102264404297 C 91.97543334960938 47.94083023071289 71.39710998535156 62.18527603149414 140.6714324951172 71.22606658935547" stroke-width="3.0" fill="none" stroke="rgb(0, 0, 0)" stroke-opacity="1.0" stroke-linecap="round" stroke-linejoin="round"/>
    <path d="M 51.440185546875 173.8902587890625 C 29.01906394958496 169.5305633544922 21.104158401489258 129.21023559570312 35.6241340637207 164.02731323242188" stroke-width="3.0" fill="none" stroke="rgb(0, 0, 0)" stroke-opacity="1.0" stroke-linecap="round" stroke-linejoin="round"/>
    <path d="M 114.78955841064453 168.04869079589844 C 133.20948791503906 84.41481018066406 139.20127868652344 124.78115844726562 131.99952697753906 139.96017456054688" stroke-width="3.0" fill="none" stroke="rgb(0, 0, 0)" stroke-opacity="1.0" stroke-linecap="round" stroke-linejoin="round"/>
    <path d="M 39.687068939208984 159.4187774658203 C 47.89292907714844 186.07781982421875 66.76522064208984 139.0863494873047 35.03173065185547 149.069091796875" stroke-width="3.0" fill="none" stroke="rgb(0, 0, 0)" stroke-opacity="1.0" stroke-linecap="round" stroke-linejoin="round"/>
    <path d="M 134.13673400878906 133.13394165039062 C 86.57368469238281 205.22412109375 109.81342315673828 194.87554931640625 132.5843963623047 151.2803955078125" stroke-width="3.0" fill="none" stroke="rgb(0, 0, 0)" stroke-opacity="1.0" stroke-linecap="round" stroke-linejoin="round"/>
    <path d="M 70.90363311767578 169.13314819335938 C 145.3849639892578 71.8034439086914 89.60771942138672 133.10296630859375 97.01602172851562 87.13603210449219" stroke-width="3.0" fill="none" stroke="rgb(0, 0, 0)" stroke-opacity="1.0" stroke-linecap="round" stroke-linejoin="round"/>
    <path d="M 123.6025619506836 96.5108871459961 C 117.20550537109375 56.93238067626953 133.37966918945312 99.6534652709961 141.07559204101562 64.95045471191406" stroke-width="3.0" fill="none" stroke="rgb(0, 0, 0)" stroke-opacity="1.0" stroke-linecap="round" stroke-linejoin="round"/>
    <path d="M 26.923852920532227 148.25811767578125 C 68.60437774658203 123.38521575927734 9.796895027160645 97.59025573730469 33.56813049316406 143.6479034423828" stroke-width="3.0" fill="none" stroke="rgb(0, 0, 0)" stroke-opacity="1.0" stroke-linecap="round" stroke-linejoin="round"/>
    <path d="M 164.54287719726562 63.77342987060547 C 124.5438232421875 46.82892608642578 210.7571563720703 71.53972625732422 181.86036682128906 84.28430938720703" stroke-width="3.0" fill="none" stroke="rgb(0, 0, 0)" stroke-opacity="1.0" stroke-linecap="round" stroke-linejoin="round"/>
    <path d="M 157.48739624023438 81.28511047363281 C 122.6889419555664 96.11332702636719 162.61184692382812 90.62720489501953 141.87460327148438 121.68799591064453" stroke-width="3.0" fill="none" stroke="rgb(0, 0, 0)" stroke-opacity="1.0" stroke-linecap="round" stroke-linejoin="round"/>
    <path d="M 72.9909439086914 52.22178649902344 C 134.55836486816406 45.470401763916016 191.2689208984375 83.98038482666016 92.23216247558594 51.785343170166016" stroke-width="3.0" fill="none" stroke="rgb(0, 0, 0)" stroke-opacity="1.0" stroke-linecap="round" stroke-linejoin="round"/>
    <path d="M 54.29132843017578 198.60231018066406 C 43.95580291748047 169.9264373779297 34.48057556152344 164.5579071044922 34.46360397338867 151.5800323486328" stroke-width="3.0" fill="none" stroke="rgb(0, 0, 0)" stroke-opacity="1.0" stroke-linecap="round" stroke-linejoin="round"/>
    <path d="M 121.71011352539062 164.07867431640625 C 195.0411376953125 86.11615753173828 172.02996826171875 79.7347640991211 163.872802734375 85.22364807128906" stroke-width="3.0" fill="none" stroke="rgb(0, 0, 0)" stroke-opacity="1.0" stroke-linecap="round" stroke-linejoin="round"/>
    <path d="M 154.34515380859375 56.56875228881836 C 209.31993103027344 86.8176040649414 173.53306579589844 79.00579833984375 138.8635711669922 144.8848114013672" stroke-width="3.0" fill="none" stroke="rgb(0, 0, 0)" stroke-opacity="1.0" stroke-linecap="round" stroke-linejoin="round"/>
    <path d="M 67.06188201904297 51.78085708618164 C -50.31416320800781 71.83131408691406 -33.13845443725586 85.25047302246094 40.54705810546875 68.84597778320312" stroke-width="3.0" fill="none" stroke="rgb(0, 0, 0)" stroke-opacity="1.0" stroke-linecap="round" stroke-linejoin="round"/>
    <path d="M 65.6208724975586 141.70584106445312 C 78.03077697753906 124.3681640625 56.636898040771484 135.29701232910156 75.38794708251953 134.50047302246094" stroke-width="3.0" fill="none" stroke="rgb(0, 0, 0)" stroke-opacity="1.0" stroke-linecap="round" stroke-linejoin="round"/>
  </g>
</svg>
