<?xml version="1.0" ?>
<svg xmlns="http://www.w3.org/2000/svg" version="1.1" width="224" height="224">
  <defs/>
  <g>
    <path d="M 131.013427734375 130.30340576171875 C 169.8787078857422 108.30561828613281 135.23733520507812 93.55014038085938 145.37213134765625 81.50597381591797" stroke-width="3.0" fill="none" stroke="rgb(0, 0, 0)" stroke-opacity="1.0" stroke-linecap="round" stroke-linejoin="round"/>
    <path d="M 23.075403213500977 137.6719512939453 C 6.979111671447754 118.34699249267578 30.12907600402832 116.2363510131836 19.930191040039062 135.1505584716797" stroke-width="3.0" fill="none" stroke="rgb(0, 0, 0)" stroke-opacity="1.0" stroke-linecap="round" stroke-linejoin="round"/>
    <path d="M 121.51598358154297 100.30451202392578 C 66.47515106201172 86.43672943115234 91.59971618652344 155.60592651367188 113.04803466796875 112.02210998535156" stroke-width="3.0" fill="none" stroke="rgb(0, 0, 0)" stroke-opacity="1.0" stroke-linecap="round" stroke-linejoin="round"/>
    <path d="M 49.82860565185547 78.4600601196289 C 114.98424530029297 58.33390808105469 78.05596923828125 165.275146484375 43.089813232421875 114.82723999023438" stroke-width="3.0" fill="none" stroke="rgb(0, 0, 0)" stroke-opacity="1.0" stroke-linecap="round" stroke-linejoin="round"/>
    <path d="M 143.70199584960938 69.99441528320312 C 196.7941131591797 79.57195281982422 156.5500030517578 116.77338409423828 160.96929931640625 95.58020782470703" stroke-width="3.0" fill="none" stroke="rgb(0, 0, 0)" stroke-opacity="1.0" stroke-linecap="round" stroke-linejoin="round"/>
    <path d="M 112.9311294555664 109.63046264648438 C 104.60569763183594 113.85973358154297 106.5473861694336 121.00102233886719 131.6538543701172 93.43794250488281" stroke-width="3.0" fill="none" stroke="rgb(0, 0, 0)" stroke-opacity="1.0" stroke-linecap="round" stroke-linejoin="round"/>
    <path d="M 4.096751689910889 79.85826110839844 C 5.688260555267334 80.35400390625 20.69734001159668 94.66690826416016 5.907163619995117 104.04318237304688" stroke-width="3.0" fill="none" stroke="rgb(0, 0, 0)" stroke-opacity="1.0" stroke-linecap="round" stroke-linejoin="round"/>
    <path d="M 76.07811737060547 164.6637725830078 C 66.4088134765625 147.44297790527344 73.51334381103516 165.22027587890625 83.02023315429688 153.14234924316406" stroke-width="3.0" fill="none" stroke="rgb(0, 0, 0)" stroke-opacity="1.0" stroke-linecap="round" stroke-linejoin="round"/>
    <path d="M 55.574256896972656 160.85385131835938 C 76.05802154541016 159.7417449951172 80.58972930908203 162.56668090820312 55.601619720458984 199.60137939453125" stroke-width="3.0" fill="none" stroke="rgb(0, 0, 0)" stroke-opacity="1.0" stroke-linecap="round" stroke-linejoin="round"/>
    <path d="M 55.37678146362305 107.42660522460938 C 73.04325866699219 51.53376007080078 -26.463380813598633 91.1694107055664 43.922542572021484 116.23341369628906" stroke-width="3.0" fill="none" stroke="rgb(0, 0, 0)" stroke-opacity="1.0" stroke-linecap="round" stroke-linejoin="round"/>
    <path d="M 90.71424865722656 140.4041290283203 C 100.30070495605469 127.58689880371094 87.90129852294922 130.9884033203125 90.14301300048828 143.88929748535156" stroke-width="3.0" fill="none" stroke="rgb(0, 0, 0)" stroke-opacity="1.0" stroke-linecap="round" stroke-linejoin="round"/>
    <path d="M 92.0254135131836 80.91007232666016 C 96.56493377685547 87.88107299804688 105.42321014404297 89.56074523925781 93.8386001586914 80.76956176757812" stroke-width="3.0" fill="none" stroke="rgb(0, 0, 0)" stroke-opacity="1.0" stroke-linecap="round" stroke-linejoin="round"/>
    <path d="M 10.372770309448242 111.17349243164062 C 24.274311065673828 119.9654769897461 -11.081779479980469 79.03594970703125 21.90203857421875 138.318603515625" stroke-width="3.0" fill="none" stroke="rgb(0, 0, 0)" stroke-opacity="1.0" stroke-linecap="round" stroke-linejoin="round"/>
    <path d="M 63.51995086669922 177.78466796875 C 101.36771392822266 157.80731201171875 60.634368896484375 145.29873657226562 46.21013259887695 176.00160217285156" stroke-width="3.0" fill="none" stroke="rgb(0, 0, 0)" stroke-opacity="1.0" stroke-linecap="round" stroke-linejoin="round"/>
    <path d="M 124.2150650024414 55.73228073120117 C 135.81301879882812 61.952999114990234 160.1617889404297 40.408836364746094 147.5069580078125 68.42706298828125" stroke-width="3.0" fill="none" stroke="rgb(0, 0, 0)" stroke-opacity="1.0" stroke-linecap="round" stroke-linejoin="round"/>
    <path d="M -4.514126300811768 64.1821060180664 C 21.57959747314453 58.693328857421875 39.988704681396484 46.215946197509766 67.29191589355469 52.6888542175293" stroke-width="3.0" fill="none" stroke="rgb(0, 0, 0)" stroke-opacity="1.0" stroke-linecap="round" stroke-linejoin="round"/>
    <path d="M 2.432438373565674 73.2075424194336 C 60.06370544433594 56.29950714111328 92.41217041015625 57.29511260986328 134.7098846435547 68.8104019165039" stroke-width="3.0" fill="none" stroke="rgb(0, 0, 0)" stroke-opacity="1.0" stroke-linecap="round" stroke-linejoin="round"/>
    <path d="M 42.775508880615234 165.9937286376953 C 29.5577335357666 156.1085968017578 16.083120346069336 121.12662506103516 34.64706802368164 164.23582458496094" stroke-width="3.0" fill="none" stroke="rgb(0, 0, 0)" stroke-opacity="1.0" stroke-linecap="round" stroke-linejoin="round"/>
    <path d="M 110.9313735961914 176.8280792236328 C 143.26280212402344 112.45052337646484 116.14453887939453 140.66880798339844 125.21199035644531 146.6663055419922" stroke-width="3.0" fill="none" stroke="rgb(0, 0, 0)" stroke-opacity="1.0" stroke-linecap="round" stroke-linejoin="round"/>
    <path d="M 35.946128845214844 158.0152130126953 C 57.84512710571289 176.51116943359375 70.21965789794922 139.4548797607422 37.526424407958984 145.931396484375" stroke-width="3.0" fill="none" stroke="rgb(0, 0, 0)" stroke-opacity="1.0" stroke-linecap="round" stroke-linejoin="round"/>
    <path d="M 125.2010269165039 154.88983154296875 C 90.56282806396484 188.6320037841797 104.21070861816406 198.84371948242188 130.94076538085938 154.78700256347656" stroke-width="3.0" fill="none" stroke="rgb(0, 0, 0)" stroke-opacity="1.0" stroke-linecap="round" stroke-linejoin="round"/>
    <path d="M 79.55139923095703 159.84573364257812 C 116.09196472167969 106.0915756225586 104.47380065917969 132.1522216796875 85.46471405029297 118.46456146240234" stroke-width="3.0" fill="none" stroke="rgb(0, 0, 0)" stroke-opacity="1.0" stroke-linecap="round" stroke-linejoin="round"/>
    <path d="M 138.91490173339844 78.33394622802734 C 135.10211181640625 78.64553833007812 137.18289184570312 96.52719116210938 145.68975830078125 65.90192413330078" stroke-width="3.0" fill="none" stroke="rgb(0, 0, 0)" stroke-opacity="1.0" stroke-linecap="round" stroke-linejoin="round"/>
    <path d="M 24.210296630859375 141.67617797851562 C 74.75238037109375 131.67604064941406 6.032649040222168 90.69387817382812 21.822410583496094 139.15171813964844" stroke-width="3.0" fill="none" stroke="rgb(0, 0, 0)" stroke-opacity="1.0" stroke-linecap="round" stroke-linejoin="round"/>
    <path d="M 134.46258544921875 60.21650695800781 C 133.75697326660156 45.97160720825195 202.7069549560547 71.84330749511719 188.0927276611328 79.22695922851562" stroke-width="3.0" fill="none" stroke="rgb(0, 0, 0)" stroke-opacity="1.0" stroke-linecap="round" stroke-linejoin="round"/>
    <path d="M 138.34115600585938 81.61467742919922 C 124.60665130615234 113.81826782226562 128.2652587890625 107.32838439941406 125.30430603027344 107.2392349243164" stroke-width="3.0" fill="none" stroke="rgb(0, 0, 0)" stroke-opacity="1.0" stroke-linecap="round" stroke-linejoin="round"/>
    <path d="M 62.93806076049805 52.01246643066406 C 151.7982940673828 51.1451301574707 142.04815673828125 65.1463394165039 85.4809799194336 50.99573516845703" stroke-width="3.0" fill="none" stroke="rgb(0, 0, 0)" stroke-opacity="1.0" stroke-linecap="round" stroke-linejoin="round"/>
    <path d="M 52.78744888305664 196.35296630859375 C 41.945838928222656 164.46743774414062 29.874011993408203 167.41973876953125 35.40614318847656 147.4363555908203" stroke-width="3.0" fill="none" stroke="rgb(0, 0, 0)" stroke-opacity="1.0" stroke-linecap="round" stroke-linejoin="round"/>
    <path d="M 121.47300720214844 168.72691345214844 C 182.83551025390625 86.49298858642578 165.8929443359375 111.00807189941406 179.25851440429688 87.75741577148438" stroke-width="3.0" fill="none" stroke="rgb(0, 0, 0)" stroke-opacity="1.0" stroke-linecap="round" stroke-linejoin="round"/>
    <path d="M 154.9039764404297 61.16838455200195 C 213.4723358154297 94.47250366210938 183.63644409179688 61.84128952026367 142.29931640625 137.57806396484375" stroke-width="3.0" fill="none" stroke="rgb(0, 0, 0)" stroke-opacity="1.0" stroke-linecap="round" stroke-linejoin="round"/>
    <path d="M 23.615638732910156 68.89710998535156 C -2.1322596073150635 72.13868713378906 -1.0865672826766968 69.52883911132812 18.714826583862305 68.7596664428711" stroke-width="3.0" fill="none" stroke="rgb(0, 0, 0)" stroke-opacity="1.0" stroke-linecap="round" stroke-linejoin="round"/>
    <path d="M 68.93061065673828 150.7969970703125 C 77.65399169921875 136.50247192382812 61.97453308105469 139.7898712158203 73.9869155883789 130.49737548828125" stroke-width="3.0" fill="none" stroke="rgb(0, 0, 0)" stroke-opacity="1.0" stroke-linecap="round" stroke-linejoin="round"/>
  </g>
</svg>
