<?xml version="1.0" ?>
<svg xmlns="http://www.w3.org/2000/svg" version="1.1" width="224" height="224">
  <defs/>
  <g>
    <path d="M 126.64697265625 128.17721557617188 C 146.22743225097656 106.05448913574219 138.16246032714844 88.89920806884766 154.31741333007812 73.0822982788086" stroke-width="3.0" fill="none" stroke="rgb(0, 0, 0)" stroke-opacity="1.0" stroke-linecap="round" stroke-linejoin="round"/>
    <path d="M 29.78118133544922 144.5150604248047 C 2.305062770843506 119.66322326660156 17.787185668945312 122.44928741455078 26.633752822875977 136.12625122070312" stroke-width="3.0" fill="none" stroke="rgb(0, 0, 0)" stroke-opacity="1.0" stroke-linecap="round" stroke-linejoin="round"/>
    <path d="M 128.0480499267578 88.34757995605469 C 74.4996109008789 72.89527130126953 85.06417846679688 167.19090270996094 113.51036834716797 108.35172271728516" stroke-width="3.0" fill="none" stroke="rgb(0, 0, 0)" stroke-opacity="1.0" stroke-linecap="round" stroke-linejoin="round"/>
    <path d="M 42.45570755004883 76.20530700683594 C 102.73486328125 48.40590286254883 72.57077026367188 170.65025329589844 46.177635192871094 110.38904571533203" stroke-width="3.0" fill="none" stroke="rgb(0, 0, 0)" stroke-opacity="1.0" stroke-linecap="round" stroke-linejoin="round"/>
    <path d="M 153.50128173828125 63.4805793762207 C 199.11611938476562 82.92655944824219 132.6044464111328 116.08930206298828 159.51925659179688 95.93009185791016" stroke-width="3.0" fill="none" stroke="rgb(0, 0, 0)" stroke-opacity="1.0" stroke-linecap="round" stroke-linejoin="round"/>
    <path d="M 119.82186126708984 102.4592056274414 C 99.82688903808594 113.2840805053711 106.4430923461914 122.98165893554688 144.5750732421875 74.515380859375" stroke-width="3.0" fill="none" stroke="rgb(0, 0, 0)" stroke-opacity="1.0" stroke-linecap="round" stroke-linejoin="round"/>
    <path d="M 16.477916717529297 94.17928314208984 C 6.179089546203613 83.70110321044922 20.7981014251709 99.13688659667969 5.403618812561035 104.53695678710938" stroke-width="3.0" fill="none" stroke="rgb(0, 0, 0)" stroke-opacity="1.0" stroke-linecap="round" stroke-linejoin="round"/>
    <path d="M 74.21693420410156 166.9578399658203 C 79.58635711669922 151.01974487304688 88.47773742675781 155.5795440673828 79.26863861083984 145.33473205566406" stroke-width="3.0" fill="none" stroke="rgb(0, 0, 0)" stroke-opacity="1.0" stroke-linecap="round" stroke-linejoin="round"/>
    <path d="M 52.19514465332031 165.5922088623047 C 71.81279754638672 161.0901641845703 81.61780548095703 167.09780883789062 54.10429763793945 199.54635620117188" stroke-width="3.0" fill="none" stroke="rgb(0, 0, 0)" stroke-opacity="1.0" stroke-linecap="round" stroke-linejoin="round"/>
    <path d="M 47.57951736450195 111.7204360961914 C 67.44908905029297 41.67995834350586 -29.60127830505371 94.64407348632812 45.54338073730469 111.16954803466797" stroke-width="3.0" fill="none" stroke="rgb(0, 0, 0)" stroke-opacity="1.0" stroke-linecap="round" stroke-linejoin="round"/>
    <path d="M 82.25828552246094 134.460693359375 C 96.06471252441406 129.11732482910156 85.08244323730469 117.58807373046875 91.24676513671875 128.0604248046875" stroke-width="3.0" fill="none" stroke="rgb(0, 0, 0)" stroke-opacity="1.0" stroke-linecap="round" stroke-linejoin="round"/>
    <path d="M 84.23948669433594 82.48715209960938 C 89.35633850097656 92.0457763671875 97.77323150634766 89.52494812011719 88.03263092041016 84.520263671875" stroke-width="3.0" fill="none" stroke="rgb(0, 0, 0)" stroke-opacity="1.0" stroke-linecap="round" stroke-linejoin="round"/>
    <path d="M 11.66969108581543 111.87003326416016 C 21.297203063964844 129.5585479736328 -17.305200576782227 78.6749267578125 26.086009979248047 146.5663299560547" stroke-width="3.0" fill="none" stroke="rgb(0, 0, 0)" stroke-opacity="1.0" stroke-linecap="round" stroke-linejoin="round"/>
    <path d="M 58.71268081665039 187.69017028808594 C 107.06981658935547 144.28648376464844 54.44752883911133 158.59800720214844 58.18172836303711 179.1893310546875" stroke-width="3.0" fill="none" stroke="rgb(0, 0, 0)" stroke-opacity="1.0" stroke-linecap="round" stroke-linejoin="round"/>
    <path d="M 150.1691436767578 72.44760131835938 C 139.4921417236328 92.02408599853516 159.23353576660156 45.30509948730469 152.3809051513672 62.08652877807617" stroke-width="3.0" fill="none" stroke="rgb(0, 0, 0)" stroke-opacity="1.0" stroke-linecap="round" stroke-linejoin="round"/>
    <path d="M -5.456264495849609 66.59203338623047 C 12.042312622070312 54.6123161315918 46.96692657470703 45.43265151977539 58.882774353027344 51.74087142944336" stroke-width="3.0" fill="none" stroke="rgb(0, 0, 0)" stroke-opacity="1.0" stroke-linecap="round" stroke-linejoin="round"/>
    <path d="M -5.793278694152832 73.1373519897461 C 40.59297561645508 56.835838317871094 111.74071502685547 59.540645599365234 135.05862426757812 77.5271987915039" stroke-width="3.0" fill="none" stroke="rgb(0, 0, 0)" stroke-opacity="1.0" stroke-linecap="round" stroke-linejoin="round"/>
    <path d="M 43.40485382080078 173.2940216064453 C 29.146259307861328 158.75975036621094 16.135639190673828 120.16765594482422 34.66630554199219 167.0916290283203" stroke-width="3.0" fill="none" stroke="rgb(0, 0, 0)" stroke-opacity="1.0" stroke-linecap="round" stroke-linejoin="round"/>
    <path d="M 108.62771606445312 177.442626953125 C 133.95375061035156 98.31488037109375 128.06887817382812 128.884033203125 131.26666259765625 142.69329833984375" stroke-width="3.0" fill="none" stroke="rgb(0, 0, 0)" stroke-opacity="1.0" stroke-linecap="round" stroke-linejoin="round"/>
    <path d="M 36.657066345214844 165.28427124023438 C 44.584571838378906 187.5619354248047 72.79525756835938 142.98062133789062 34.64463806152344 150.40467834472656" stroke-width="3.0" fill="none" stroke="rgb(0, 0, 0)" stroke-opacity="1.0" stroke-linecap="round" stroke-linejoin="round"/>
    <path d="M 127.78203582763672 144.23873901367188 C 87.515869140625 192.4960174560547 107.21723175048828 198.3336944580078 132.63201904296875 149.28904724121094" stroke-width="3.0" fill="none" stroke="rgb(0, 0, 0)" stroke-opacity="1.0" stroke-linecap="round" stroke-linejoin="round"/>
    <path d="M 73.24444580078125 168.0143280029297 C 121.95341491699219 92.4856948852539 97.89680480957031 137.24217224121094 91.90104675292969 109.31220245361328" stroke-width="3.0" fill="none" stroke="rgb(0, 0, 0)" stroke-opacity="1.0" stroke-linecap="round" stroke-linejoin="round"/>
    <path d="M 130.36407470703125 83.53262329101562 C 145.7945556640625 77.94918060302734 134.99502563476562 91.00270080566406 145.9832763671875 67.34806060791016" stroke-width="3.0" fill="none" stroke="rgb(0, 0, 0)" stroke-opacity="1.0" stroke-linecap="round" stroke-linejoin="round"/>
    <path d="M 27.910247802734375 145.83746337890625 C 70.62247467041016 124.27825164794922 4.847080230712891 98.8224868774414 19.903247833251953 135.35655212402344" stroke-width="3.0" fill="none" stroke="rgb(0, 0, 0)" stroke-opacity="1.0" stroke-linecap="round" stroke-linejoin="round"/>
    <path d="M 159.83383178710938 57.76912307739258 C 134.64732360839844 47.21620559692383 210.832275390625 76.24201202392578 184.02352905273438 86.82132720947266" stroke-width="3.0" fill="none" stroke="rgb(0, 0, 0)" stroke-opacity="1.0" stroke-linecap="round" stroke-linejoin="round"/>
    <path d="M 148.1973114013672 83.93629455566406 C 131.01568603515625 113.36874389648438 136.2403106689453 86.41294860839844 138.7959747314453 97.80748748779297" stroke-width="3.0" fill="none" stroke="rgb(0, 0, 0)" stroke-opacity="1.0" stroke-linecap="round" stroke-linejoin="round"/>
    <path d="M 56.07085037231445 52.4600830078125 C 154.73080444335938 53.174903869628906 191.92440795898438 85.01414489746094 64.5185775756836 52.010520935058594" stroke-width="3.0" fill="none" stroke="rgb(0, 0, 0)" stroke-opacity="1.0" stroke-linecap="round" stroke-linejoin="round"/>
    <path d="M 54.72681427001953 197.3915252685547 C 40.169281005859375 170.8217315673828 32.91245651245117 172.30238342285156 34.52366638183594 150.77987670898438" stroke-width="3.0" fill="none" stroke="rgb(0, 0, 0)" stroke-opacity="1.0" stroke-linecap="round" stroke-linejoin="round"/>
    <path d="M 119.71856689453125 164.04444885253906 C 189.5892333984375 91.43949127197266 159.55633544921875 99.10587310791016 176.3845672607422 91.8126449584961" stroke-width="3.0" fill="none" stroke="rgb(0, 0, 0)" stroke-opacity="1.0" stroke-linecap="round" stroke-linejoin="round"/>
    <path d="M 153.92013549804688 58.56864929199219 C 206.40853881835938 100.7145767211914 175.53659057617188 74.88886260986328 138.71722412109375 143.2951202392578" stroke-width="3.0" fill="none" stroke="rgb(0, 0, 0)" stroke-opacity="1.0" stroke-linecap="round" stroke-linejoin="round"/>
    <path d="M 36.96060562133789 63.29472351074219 C -16.767192840576172 89.4421157836914 -22.884647369384766 71.52632141113281 15.761103630065918 68.75129699707031" stroke-width="3.0" fill="none" stroke="rgb(0, 0, 0)" stroke-opacity="1.0" stroke-linecap="round" stroke-linejoin="round"/>
    <path d="M 71.51439666748047 148.82296752929688 C 74.28474426269531 132.30564880371094 66.28052520751953 145.8699188232422 70.84994506835938 129.3120574951172" stroke-width="3.0" fill="none" stroke="rgb(0, 0, 0)" stroke-opacity="1.0" stroke-linecap="round" stroke-linejoin="round"/>
  </g>
</svg>
