<?xml version="1.0" ?>
<svg xmlns="http://www.w3.org/2000/svg" version="1.1" width="224" height="224">
  <defs/>
  <g>
    <path d="M 133.7006072998047 127.64520263671875 C 166.71307373046875 104.84849548339844 128.79727172851562 94.62500762939453 150.34512329101562 73.29803466796875" stroke-width="3.0" fill="none" stroke="rgb(0, 0, 0)" stroke-opacity="1.0" stroke-linecap="round" stroke-linejoin="round"/>
    <path d="M 25.667804718017578 138.75021362304688 C 4.5545806884765625 117.60919952392578 27.787620544433594 113.65196228027344 17.941221237182617 133.44580078125" stroke-width="3.0" fill="none" stroke="rgb(0, 0, 0)" stroke-opacity="1.0" stroke-linecap="round" stroke-linejoin="round"/>
    <path d="M 123.2047119140625 96.31549835205078 C 63.71833801269531 79.15762329101562 93.10440826416016 162.99481201171875 113.79844665527344 108.6219711303711" stroke-width="3.0" fill="none" stroke="rgb(0, 0, 0)" stroke-opacity="1.0" stroke-linecap="round" stroke-linejoin="round"/>
    <path d="M 44.28200149536133 78.26131439208984 C 116.10187530517578 46.82733917236328 73.71705627441406 170.71946716308594 47.98084259033203 110.75566864013672" stroke-width="3.0" fill="none" stroke="rgb(0, 0, 0)" stroke-opacity="1.0" stroke-linecap="round" stroke-linejoin="round"/>
    <path d="M 151.787109375 61.84560012817383 C 202.7162628173828 84.15675354003906 151.17498779296875 127.52725219726562 156.95175170898438 102.07835388183594" stroke-width="3.0" fill="none" stroke="rgb(0, 0, 0)" stroke-opacity="1.0" stroke-linecap="round" stroke-linejoin="round"/>
    <path d="M 119.79278564453125 106.68798828125 C 110.47590637207031 109.88837432861328 109.54034423828125 127.83062744140625 137.00555419921875 80.03607177734375" stroke-width="3.0" fill="none" stroke="rgb(0, 0, 0)" stroke-opacity="1.0" stroke-linecap="round" stroke-linejoin="round"/>
    <path d="M 8.066171646118164 88.93726348876953 C 4.59605598449707 85.5684814453125 21.642051696777344 95.4250259399414 6.108451843261719 109.0411148071289" stroke-width="3.0" fill="none" stroke="rgb(0, 0, 0)" stroke-opacity="1.0" stroke-linecap="round" stroke-linejoin="round"/>
    <path d="M 76.75593566894531 165.90724182128906 C 67.83412170410156 147.9825897216797 74.85730743408203 161.4934844970703 86.3202896118164 145.2152099609375" stroke-width="3.0" fill="none" stroke="rgb(0, 0, 0)" stroke-opacity="1.0" stroke-linecap="round" stroke-linejoin="round"/>
    <path d="M 55.812591552734375 158.5501708984375 C 72.60018157958984 151.08033752441406 82.32215881347656 166.2113494873047 54.431396484375 197.5432891845703" stroke-width="3.0" fill="none" stroke="rgb(0, 0, 0)" stroke-opacity="1.0" stroke-linecap="round" stroke-linejoin="round"/>
    <path d="M 49.23290252685547 111.75952911376953 C 70.9414291381836 44.82251739501953 -28.98966407775879 95.93757629394531 50.41789627075195 113.43140411376953" stroke-width="3.0" fill="none" stroke="rgb(0, 0, 0)" stroke-opacity="1.0" stroke-linecap="round" stroke-linejoin="round"/>
    <path d="M 86.76327514648438 142.4368133544922 C 113.21235656738281 134.82298278808594 87.80918884277344 121.5799789428711 86.94099426269531 128.05291748046875" stroke-width="3.0" fill="none" stroke="rgb(0, 0, 0)" stroke-opacity="1.0" stroke-linecap="round" stroke-linejoin="round"/>
    <path d="M 91.03392791748047 82.03196716308594 C 91.28997039794922 87.49957275390625 95.87996673583984 90.85018920898438 91.40088653564453 83.87680053710938" stroke-width="3.0" fill="none" stroke="rgb(0, 0, 0)" stroke-opacity="1.0" stroke-linecap="round" stroke-linejoin="round"/>
    <path d="M 8.565696716308594 108.450439453125 C 22.09944725036621 128.79025268554688 -11.872072219848633 80.74081420898438 24.9542293548584 143.94261169433594" stroke-width="3.0" fill="none" stroke="rgb(0, 0, 0)" stroke-opacity="1.0" stroke-linecap="round" stroke-linejoin="round"/>
    <path d="M 62.84477996826172 178.63674926757812 C 102.18180847167969 153.29701232910156 55.314266204833984 153.39498901367188 55.501853942871094 177.423828125" stroke-width="3.0" fill="none" stroke="rgb(0, 0, 0)" stroke-opacity="1.0" stroke-linecap="round" stroke-linejoin="round"/>
    <path d="M 137.30133056640625 62.31428146362305 C 149.625244140625 71.47500610351562 161.52345275878906 40.197898864746094 152.13658142089844 62.80978012084961" stroke-width="3.0" fill="none" stroke="rgb(0, 0, 0)" stroke-opacity="1.0" stroke-linecap="round" stroke-linejoin="round"/>
    <path d="M -5.6411638259887695 65.52818298339844 C 16.92214012145996 55.23677062988281 36.472496032714844 45.498294830322266 65.67986297607422 53.15015411376953" stroke-width="3.0" fill="none" stroke="rgb(0, 0, 0)" stroke-opacity="1.0" stroke-linecap="round" stroke-linejoin="round"/>
    <path d="M -2.123288154602051 78.28885650634766 C 56.40621566772461 59.825626373291016 102.13407897949219 59.01942825317383 138.83758544921875 75.25988006591797" stroke-width="3.0" fill="none" stroke="rgb(0, 0, 0)" stroke-opacity="1.0" stroke-linecap="round" stroke-linejoin="round"/>
    <path d="M 44.1184196472168 172.61070251464844 C 29.180419921875 157.3695526123047 16.011207580566406 120.53783416748047 35.371089935302734 164.1434783935547" stroke-width="3.0" fill="none" stroke="rgb(0, 0, 0)" stroke-opacity="1.0" stroke-linecap="round" stroke-linejoin="round"/>
    <path d="M 113.74490356445312 171.75656127929688 C 121.21418762207031 107.39221954345703 100.50438690185547 136.4716033935547 124.95499420166016 125.0789794921875" stroke-width="3.0" fill="none" stroke="rgb(0, 0, 0)" stroke-opacity="1.0" stroke-linecap="round" stroke-linejoin="round"/>
    <path d="M 38.66814041137695 162.89260864257812 C 46.57844543457031 184.16517639160156 73.24262237548828 144.7117919921875 36.00271224975586 150.27154541015625" stroke-width="3.0" fill="none" stroke="rgb(0, 0, 0)" stroke-opacity="1.0" stroke-linecap="round" stroke-linejoin="round"/>
    <path d="M 123.78333282470703 144.22412109375 C 94.54268646240234 194.06996154785156 106.1750259399414 198.89984130859375 130.4777069091797 149.6843719482422" stroke-width="3.0" fill="none" stroke="rgb(0, 0, 0)" stroke-opacity="1.0" stroke-linecap="round" stroke-linejoin="round"/>
    <path d="M 74.0572738647461 166.956787109375 C 119.4860610961914 104.76750183105469 101.45584869384766 140.4005889892578 89.46791076660156 115.88639068603516" stroke-width="3.0" fill="none" stroke="rgb(0, 0, 0)" stroke-opacity="1.0" stroke-linecap="round" stroke-linejoin="round"/>
    <path d="M 134.8302459716797 87.80428314208984 C 141.8383026123047 72.7890396118164 134.85069274902344 92.11426544189453 148.45480346679688 64.45249938964844" stroke-width="3.0" fill="none" stroke="rgb(0, 0, 0)" stroke-opacity="1.0" stroke-linecap="round" stroke-linejoin="round"/>
    <path d="M 25.76511001586914 143.05104064941406 C 74.442138671875 130.10784912109375 -1.5718281269073486 89.53221893310547 21.573972702026367 135.9163055419922" stroke-width="3.0" fill="none" stroke="rgb(0, 0, 0)" stroke-opacity="1.0" stroke-linecap="round" stroke-linejoin="round"/>
    <path d="M 147.73016357421875 66.48495483398438 C 149.82545471191406 42.79505157470703 205.86273193359375 77.54248046875 188.53482055664062 82.37263488769531" stroke-width="3.0" fill="none" stroke="rgb(0, 0, 0)" stroke-opacity="1.0" stroke-linecap="round" stroke-linejoin="round"/>
    <path d="M 144.48268127441406 88.43802642822266 C 130.90341186523438 120.51959228515625 132.14561462402344 102.32825469970703 137.0808563232422 102.81458282470703" stroke-width="3.0" fill="none" stroke="rgb(0, 0, 0)" stroke-opacity="1.0" stroke-linecap="round" stroke-linejoin="round"/>
    <path d="M 57.31357192993164 51.78662872314453 C 157.84144592285156 47.78327560424805 184.80929565429688 73.75265502929688 70.97940826416016 52.60477066040039" stroke-width="3.0" fill="none" stroke="rgb(0, 0, 0)" stroke-opacity="1.0" stroke-linecap="round" stroke-linejoin="round"/>
    <path d="M 53.32933044433594 193.64132690429688 C 43.440025329589844 168.30641174316406 32.475040435791016 171.18235778808594 33.81241226196289 151.60794067382812" stroke-width="3.0" fill="none" stroke="rgb(0, 0, 0)" stroke-opacity="1.0" stroke-linecap="round" stroke-linejoin="round"/>
    <path d="M 119.56236267089844 165.78863525390625 C 187.55706787109375 92.71360778808594 162.75425720214844 107.31159210205078 176.70724487304688 90.73502349853516" stroke-width="3.0" fill="none" stroke="rgb(0, 0, 0)" stroke-opacity="1.0" stroke-linecap="round" stroke-linejoin="round"/>
    <path d="M 156.81027221679688 53.1937255859375 C 211.87107849121094 94.14302062988281 182.3662109375 67.32373809814453 137.72848510742188 145.6157684326172" stroke-width="3.0" fill="none" stroke="rgb(0, 0, 0)" stroke-opacity="1.0" stroke-linecap="round" stroke-linejoin="round"/>
    <path d="M 27.359092712402344 67.64395141601562 C -4.212045669555664 84.52863311767578 -5.328238487243652 72.81932830810547 17.43364715576172 70.9292984008789" stroke-width="3.0" fill="none" stroke="rgb(0, 0, 0)" stroke-opacity="1.0" stroke-linecap="round" stroke-linejoin="round"/>
    <path d="M 68.14278411865234 151.89712524414062 C 74.7866439819336 136.9158935546875 60.070369720458984 145.04530334472656 71.2210464477539 127.05964660644531" stroke-width="3.0" fill="none" stroke="rgb(0, 0, 0)" stroke-opacity="1.0" stroke-linecap="round" stroke-linejoin="round"/>
  </g>
</svg>
