<?xml version="1.0" ?>
<svg xmlns="http://www.w3.org/2000/svg" version="1.1" width="224" height="224">
  <defs/>
  <g>
    <path d="M 126.62625122070312 137.3782196044922 C 141.6358642578125 90.74517822265625 152.56590270996094 50.272823333740234 168.34869384765625 68.57508087158203" stroke-width="3.0" fill="none" stroke="rgb(0, 0, 0)" stroke-opacity="1.0" stroke-linecap="round" stroke-linejoin="round"/>
    <path d="M 27.772172927856445 140.912109375 C 7.6569318771362305 124.7345962524414 29.106321334838867 108.80374145507812 24.66395378112793 133.52911376953125" stroke-width="3.0" fill="none" stroke="rgb(0, 0, 0)" stroke-opacity="1.0" stroke-linecap="round" stroke-linejoin="round"/>
    <path d="M 128.46795654296875 89.08003997802734 C 93.32511901855469 31.608076095581055 73.03814697265625 171.28346252441406 114.36273956298828 107.11151123046875" stroke-width="3.0" fill="none" stroke="rgb(0, 0, 0)" stroke-opacity="1.0" stroke-linecap="round" stroke-linejoin="round"/>
    <path d="M 41.832061767578125 79.53255462646484 C 109.22159576416016 31.712926864624023 76.0270004272461 166.245361328125 45.50783920288086 108.69400787353516" stroke-width="3.0" fill="none" stroke="rgb(0, 0, 0)" stroke-opacity="1.0" stroke-linecap="round" stroke-linejoin="round"/>
    <path d="M 151.58876037597656 69.97410583496094 C 193.71112060546875 78.2797622680664 148.83819580078125 123.33897399902344 165.92124938964844 93.35089111328125" stroke-width="3.0" fill="none" stroke="rgb(0, 0, 0)" stroke-opacity="1.0" stroke-linecap="round" stroke-linejoin="round"/>
    <path d="M 125.14646911621094 91.78411102294922 C 102.57946014404297 116.7242660522461 104.60034942626953 126.28502655029297 151.01336669921875 57.58396911621094" stroke-width="3.0" fill="none" stroke="rgb(0, 0, 0)" stroke-opacity="1.0" stroke-linecap="round" stroke-linejoin="round"/>
    <path d="M 9.017313003540039 98.04354095458984 C -3.1137876510620117 82.0880126953125 19.121280670166016 96.21426391601562 5.188715934753418 103.55851745605469" stroke-width="3.0" fill="none" stroke="rgb(0, 0, 0)" stroke-opacity="1.0" stroke-linecap="round" stroke-linejoin="round"/>
    <path d="M 85.14108276367188 147.8121795654297 C 68.07855224609375 136.55056762695312 89.93273162841797 130.6683807373047 69.66752624511719 122.66069030761719" stroke-width="3.0" fill="none" stroke="rgb(0, 0, 0)" stroke-opacity="1.0" stroke-linecap="round" stroke-linejoin="round"/>
    <path d="M 67.30289459228516 152.69500732421875 C 72.9525375366211 156.61302185058594 84.75125885009766 158.37783813476562 55.019004821777344 199.2570343017578" stroke-width="3.0" fill="none" stroke="rgb(0, 0, 0)" stroke-opacity="1.0" stroke-linecap="round" stroke-linejoin="round"/>
    <path d="M 47.07260513305664 114.27159118652344 C 68.83573150634766 37.633522033691406 -24.909196853637695 110.24913024902344 46.575706481933594 110.32383728027344" stroke-width="3.0" fill="none" stroke="rgb(0, 0, 0)" stroke-opacity="1.0" stroke-linecap="round" stroke-linejoin="round"/>
    <path d="M 100.71952056884766 116.26406860351562 C 118.39309692382812 137.77447509765625 83.6211929321289 91.77739715576172 93.27140045166016 87.83352661132812" stroke-width="3.0" fill="none" stroke="rgb(0, 0, 0)" stroke-opacity="1.0" stroke-linecap="round" stroke-linejoin="round"/>
    <path d="M 73.72063446044922 66.2841796875 C 105.81119537353516 78.06568145751953 73.55391693115234 85.36638641357422 97.48196411132812 77.4862289428711" stroke-width="3.0" fill="none" stroke="rgb(0, 0, 0)" stroke-opacity="1.0" stroke-linecap="round" stroke-linejoin="round"/>
    <path d="M 9.227151870727539 115.6961898803711 C 25.981006622314453 130.42689514160156 -21.89781379699707 66.31378936767578 34.726226806640625 159.3917694091797" stroke-width="3.0" fill="none" stroke="rgb(0, 0, 0)" stroke-opacity="1.0" stroke-linecap="round" stroke-linejoin="round"/>
    <path d="M 58.658233642578125 181.5552978515625 C 129.68743896484375 140.56982421875 8.967069625854492 154.1099395751953 65.61040496826172 182.39964294433594" stroke-width="3.0" fill="none" stroke="rgb(0, 0, 0)" stroke-opacity="1.0" stroke-linecap="round" stroke-linejoin="round"/>
    <path d="M 155.02935791015625 88.27699279785156 C 152.83201599121094 106.3978271484375 144.81607055664062 41.883750915527344 163.0012969970703 63.30915451049805" stroke-width="3.0" fill="none" stroke="rgb(0, 0, 0)" stroke-opacity="1.0" stroke-linecap="round" stroke-linejoin="round"/>
    <path d="M -8.7058687210083 73.00350189208984 C 10.185978889465332 62.2271728515625 36.45271301269531 43.25633239746094 79.25794982910156 52.25840377807617" stroke-width="3.0" fill="none" stroke="rgb(0, 0, 0)" stroke-opacity="1.0" stroke-linecap="round" stroke-linejoin="round"/>
    <path d="M -4.966889381408691 78.74011993408203 C 94.44231414794922 47.81899642944336 67.65489196777344 61.161781311035156 137.43646240234375 74.46630096435547" stroke-width="3.0" fill="none" stroke="rgb(0, 0, 0)" stroke-opacity="1.0" stroke-linecap="round" stroke-linejoin="round"/>
    <path d="M 48.881561279296875 179.4742889404297 C 30.460391998291016 165.68328857421875 21.81635856628418 126.25532531738281 35.441558837890625 164.04051208496094" stroke-width="3.0" fill="none" stroke="rgb(0, 0, 0)" stroke-opacity="1.0" stroke-linecap="round" stroke-linejoin="round"/>
    <path d="M 115.35210418701172 169.36801147460938 C 131.2301025390625 93.44974517822266 136.64833068847656 134.98846435546875 132.48068237304688 138.97557067871094" stroke-width="3.0" fill="none" stroke="rgb(0, 0, 0)" stroke-opacity="1.0" stroke-linecap="round" stroke-linejoin="round"/>
    <path d="M 35.424930572509766 161.34107971191406 C 41.617095947265625 188.71873474121094 61.85359573364258 146.11627197265625 30.83596420288086 155.09544372558594" stroke-width="3.0" fill="none" stroke="rgb(0, 0, 0)" stroke-opacity="1.0" stroke-linecap="round" stroke-linejoin="round"/>
    <path d="M 135.39634704589844 133.26443481445312 C 85.19670867919922 205.116943359375 107.61158752441406 194.5655975341797 134.03956604003906 153.4388885498047" stroke-width="3.0" fill="none" stroke="rgb(0, 0, 0)" stroke-opacity="1.0" stroke-linecap="round" stroke-linejoin="round"/>
    <path d="M 70.4582748413086 172.59471130371094 C 145.13014221191406 73.33999633789062 87.1303482055664 132.13563537597656 96.63330078125 85.15141296386719" stroke-width="3.0" fill="none" stroke="rgb(0, 0, 0)" stroke-opacity="1.0" stroke-linecap="round" stroke-linejoin="round"/>
    <path d="M 126.44853210449219 96.4819107055664 C 124.61709594726562 55.495967864990234 135.0666961669922 94.53428649902344 142.72787475585938 64.41803741455078" stroke-width="3.0" fill="none" stroke="rgb(0, 0, 0)" stroke-opacity="1.0" stroke-linecap="round" stroke-linejoin="round"/>
    <path d="M 28.280475616455078 150.19253540039062 C 66.2929916381836 127.48967742919922 0.3087734878063202 97.28781127929688 26.885141372680664 143.1824188232422" stroke-width="3.0" fill="none" stroke="rgb(0, 0, 0)" stroke-opacity="1.0" stroke-linecap="round" stroke-linejoin="round"/>
    <path d="M 162.38194274902344 64.195068359375 C 124.16649627685547 47.857521057128906 211.88829040527344 74.1390609741211 184.88497924804688 82.82564544677734" stroke-width="3.0" fill="none" stroke="rgb(0, 0, 0)" stroke-opacity="1.0" stroke-linecap="round" stroke-linejoin="round"/>
    <path d="M 158.57522583007812 76.64681243896484 C 124.0517578125 90.0498275756836 161.9373779296875 94.69203186035156 140.11390686035156 125.9200668334961" stroke-width="3.0" fill="none" stroke="rgb(0, 0, 0)" stroke-opacity="1.0" stroke-linecap="round" stroke-linejoin="round"/>
    <path d="M 60.38428497314453 51.86589431762695 C 130.08876037597656 45.48197555541992 187.0373077392578 83.4579086303711 92.43405151367188 51.95201110839844" stroke-width="3.0" fill="none" stroke="rgb(0, 0, 0)" stroke-opacity="1.0" stroke-linecap="round" stroke-linejoin="round"/>
    <path d="M 52.706024169921875 197.49908447265625 C 44.435340881347656 170.65077209472656 36.32575988769531 164.30125427246094 35.4715690612793 150.63919067382812" stroke-width="3.0" fill="none" stroke="rgb(0, 0, 0)" stroke-opacity="1.0" stroke-linecap="round" stroke-linejoin="round"/>
    <path d="M 122.55062866210938 164.1475067138672 C 194.67750549316406 87.09072875976562 169.22288513183594 78.46483612060547 165.71963500976562 82.51042938232422" stroke-width="3.0" fill="none" stroke="rgb(0, 0, 0)" stroke-opacity="1.0" stroke-linecap="round" stroke-linejoin="round"/>
    <path d="M 154.92318725585938 60.064788818359375 C 212.6713104248047 90.32164001464844 173.53652954101562 77.50608825683594 140.06048583984375 145.17787170410156" stroke-width="3.0" fill="none" stroke="rgb(0, 0, 0)" stroke-opacity="1.0" stroke-linecap="round" stroke-linejoin="round"/>
    <path d="M 55.384891510009766 49.87407302856445 C -48.95515060424805 74.2643051147461 -30.758451461791992 90.10562133789062 38.92795944213867 66.4913558959961" stroke-width="3.0" fill="none" stroke="rgb(0, 0, 0)" stroke-opacity="1.0" stroke-linecap="round" stroke-linejoin="round"/>
    <path d="M 64.53910827636719 146.68026733398438 C 73.80175018310547 125.6966781616211 59.79335403442383 147.87445068359375 78.26299285888672 134.395263671875" stroke-width="3.0" fill="none" stroke="rgb(0, 0, 0)" stroke-opacity="1.0" stroke-linecap="round" stroke-linejoin="round"/>
  </g>
</svg>
