<?xml version="1.0" ?>
<svg xmlns="http://www.w3.org/2000/svg" version="1.1" width="224" height="224">
  <defs/>
  <g>
    <path d="M 127.239501953125 128.47486877441406 C 145.96035766601562 105.32965850830078 136.87481689453125 86.62517547607422 155.08734130859375 70.36632537841797" stroke-width="3.0" fill="none" stroke="rgb(0, 0, 0)" stroke-opacity="1.0" stroke-linecap="round" stroke-linejoin="round"/>
    <path d="M 28.04608154296875 142.4481658935547 C 0.9642355442047119 124.43025207519531 22.915788650512695 120.49403381347656 27.619762420654297 133.89927673339844" stroke-width="3.0" fill="none" stroke="rgb(0, 0, 0)" stroke-opacity="1.0" stroke-linecap="round" stroke-linejoin="round"/>
    <path d="M 125.01590728759766 88.40223693847656 C 72.06350708007812 76.30587005615234 83.4527587890625 165.5498046875 113.3324203491211 107.51995849609375" stroke-width="3.0" fill="none" stroke="rgb(0, 0, 0)" stroke-opacity="1.0" stroke-linecap="round" stroke-linejoin="round"/>
    <path d="M 43.336238861083984 78.18108367919922 C 104.034423828125 52.07850646972656 73.20610046386719 175.56483459472656 44.09690856933594 113.36331939697266" stroke-width="3.0" fill="none" stroke="rgb(0, 0, 0)" stroke-opacity="1.0" stroke-linecap="round" stroke-linejoin="round"/>
    <path d="M 153.82534790039062 62.51397705078125 C 195.38143920898438 81.63545227050781 129.40696716308594 114.25569915771484 156.00787353515625 94.31629943847656" stroke-width="3.0" fill="none" stroke="rgb(0, 0, 0)" stroke-opacity="1.0" stroke-linecap="round" stroke-linejoin="round"/>
    <path d="M 118.5592041015625 102.52293395996094 C 99.92595672607422 111.16382598876953 110.12493133544922 126.31196594238281 141.33619689941406 71.722900390625" stroke-width="3.0" fill="none" stroke="rgb(0, 0, 0)" stroke-opacity="1.0" stroke-linecap="round" stroke-linejoin="round"/>
    <path d="M 13.673519134521484 91.27600860595703 C 7.985062122344971 82.70787811279297 20.91183853149414 96.04618072509766 6.208716869354248 108.84126281738281" stroke-width="3.0" fill="none" stroke="rgb(0, 0, 0)" stroke-opacity="1.0" stroke-linecap="round" stroke-linejoin="round"/>
    <path d="M 72.69971466064453 165.42202758789062 C 77.4161605834961 145.66683959960938 92.27266693115234 155.0730743408203 77.80447387695312 141.80078125" stroke-width="3.0" fill="none" stroke="rgb(0, 0, 0)" stroke-opacity="1.0" stroke-linecap="round" stroke-linejoin="round"/>
    <path d="M 55.07420349121094 167.0761260986328 C 73.32270812988281 160.05758666992188 82.84165954589844 166.90968322753906 54.785465240478516 198.81988525390625" stroke-width="3.0" fill="none" stroke="rgb(0, 0, 0)" stroke-opacity="1.0" stroke-linecap="round" stroke-linejoin="round"/>
    <path d="M 46.990074157714844 114.5329818725586 C 71.84912109375 46.86210250854492 -25.547473907470703 98.76673889160156 46.24006652832031 113.12364196777344" stroke-width="3.0" fill="none" stroke="rgb(0, 0, 0)" stroke-opacity="1.0" stroke-linecap="round" stroke-linejoin="round"/>
    <path d="M 82.11389923095703 135.58407592773438 C 97.32902526855469 131.53530883789062 85.3233871459961 117.40389251708984 91.91735076904297 128.4630889892578" stroke-width="3.0" fill="none" stroke="rgb(0, 0, 0)" stroke-opacity="1.0" stroke-linecap="round" stroke-linejoin="round"/>
    <path d="M 85.51045989990234 83.44194030761719 C 89.47998809814453 93.49698638916016 101.51802062988281 87.033203125 86.98395538330078 84.45233154296875" stroke-width="3.0" fill="none" stroke="rgb(0, 0, 0)" stroke-opacity="1.0" stroke-linecap="round" stroke-linejoin="round"/>
    <path d="M 12.053194999694824 111.92206573486328 C 21.80539321899414 129.75881958007812 -15.855839729309082 77.8424301147461 27.216291427612305 146.1991424560547" stroke-width="3.0" fill="none" stroke="rgb(0, 0, 0)" stroke-opacity="1.0" stroke-linecap="round" stroke-linejoin="round"/>
    <path d="M 60.24884796142578 187.0406036376953 C 106.48443603515625 144.99034118652344 52.35221862792969 154.441650390625 58.0346565246582 178.3253936767578" stroke-width="3.0" fill="none" stroke="rgb(0, 0, 0)" stroke-opacity="1.0" stroke-linecap="round" stroke-linejoin="round"/>
    <path d="M 148.85842895507812 74.65115356445312 C 138.5409698486328 91.8146743774414 156.10330200195312 43.814456939697266 152.34405517578125 60.98102951049805" stroke-width="3.0" fill="none" stroke="rgb(0, 0, 0)" stroke-opacity="1.0" stroke-linecap="round" stroke-linejoin="round"/>
    <path d="M -4.211791515350342 68.35560607910156 C 15.61107063293457 55.153465270996094 44.79348373413086 43.046409606933594 60.547889709472656 50.401039123535156" stroke-width="3.0" fill="none" stroke="rgb(0, 0, 0)" stroke-opacity="1.0" stroke-linecap="round" stroke-linejoin="round"/>
    <path d="M -4.676065444946289 73.46280670166016 C 38.278804779052734 55.817657470703125 107.6439208984375 61.17581558227539 134.04237365722656 77.32759857177734" stroke-width="3.0" fill="none" stroke="rgb(0, 0, 0)" stroke-opacity="1.0" stroke-linecap="round" stroke-linejoin="round"/>
    <path d="M 43.419960021972656 172.28726196289062 C 29.092090606689453 159.17901611328125 17.871397018432617 118.63416290283203 34.801883697509766 164.56297302246094" stroke-width="3.0" fill="none" stroke="rgb(0, 0, 0)" stroke-opacity="1.0" stroke-linecap="round" stroke-linejoin="round"/>
    <path d="M 112.11943817138672 173.81173706054688 C 137.42227172851562 100.79924011230469 125.19623565673828 131.6665802001953 130.66250610351562 142.62115478515625" stroke-width="3.0" fill="none" stroke="rgb(0, 0, 0)" stroke-opacity="1.0" stroke-linecap="round" stroke-linejoin="round"/>
    <path d="M 37.480552673339844 165.4462127685547 C 45.0515022277832 189.02877807617188 72.3935317993164 142.02378845214844 34.37845230102539 151.62985229492188" stroke-width="3.0" fill="none" stroke="rgb(0, 0, 0)" stroke-opacity="1.0" stroke-linecap="round" stroke-linejoin="round"/>
    <path d="M 126.27030944824219 147.86038208007812 C 90.14373779296875 192.82736206054688 107.13693237304688 196.61386108398438 131.0419464111328 150.6683807373047" stroke-width="3.0" fill="none" stroke="rgb(0, 0, 0)" stroke-opacity="1.0" stroke-linecap="round" stroke-linejoin="round"/>
    <path d="M 73.35600280761719 167.1997833251953 C 121.71699523925781 95.13411712646484 95.16976928710938 142.63333129882812 87.86534118652344 113.61378479003906" stroke-width="3.0" fill="none" stroke="rgb(0, 0, 0)" stroke-opacity="1.0" stroke-linecap="round" stroke-linejoin="round"/>
    <path d="M 132.23072814941406 87.13884735107422 C 144.03646850585938 76.46622467041016 133.01620483398438 90.36771392822266 144.08682250976562 65.88337707519531" stroke-width="3.0" fill="none" stroke="rgb(0, 0, 0)" stroke-opacity="1.0" stroke-linecap="round" stroke-linejoin="round"/>
    <path d="M 25.690832138061523 145.58436584472656 C 71.06887817382812 126.01167297363281 5.733214378356934 97.00862884521484 23.131942749023438 132.99606323242188" stroke-width="3.0" fill="none" stroke="rgb(0, 0, 0)" stroke-opacity="1.0" stroke-linecap="round" stroke-linejoin="round"/>
    <path d="M 158.05963134765625 58.29566192626953 C 139.35508728027344 44.12166976928711 207.96737670898438 79.04066467285156 185.01002502441406 83.85664367675781" stroke-width="3.0" fill="none" stroke="rgb(0, 0, 0)" stroke-opacity="1.0" stroke-linecap="round" stroke-linejoin="round"/>
    <path d="M 148.72166442871094 86.26678466796875 C 130.50030517578125 113.82823181152344 137.5365753173828 88.86605834960938 138.9199981689453 96.56330108642578" stroke-width="3.0" fill="none" stroke="rgb(0, 0, 0)" stroke-opacity="1.0" stroke-linecap="round" stroke-linejoin="round"/>
    <path d="M 53.09028244018555 50.00255584716797 C 149.92332458496094 52.86460494995117 190.15782165527344 83.63720703125 73.60734558105469 49.70289993286133" stroke-width="3.0" fill="none" stroke="rgb(0, 0, 0)" stroke-opacity="1.0" stroke-linecap="round" stroke-linejoin="round"/>
    <path d="M 54.0550537109375 197.51817321777344 C 40.24445343017578 170.8788299560547 33.53324508666992 171.03273010253906 35.889991760253906 152.52377319335938" stroke-width="3.0" fill="none" stroke="rgb(0, 0, 0)" stroke-opacity="1.0" stroke-linecap="round" stroke-linejoin="round"/>
    <path d="M 121.28410339355469 163.66587829589844 C 190.05006408691406 90.3214340209961 161.56161499023438 99.5378189086914 175.33651733398438 93.53720092773438" stroke-width="3.0" fill="none" stroke="rgb(0, 0, 0)" stroke-opacity="1.0" stroke-linecap="round" stroke-linejoin="round"/>
    <path d="M 154.2923126220703 54.28169631958008 C 209.4862823486328 96.59477996826172 176.789306640625 74.20059204101562 138.8398895263672 144.26358032226562" stroke-width="3.0" fill="none" stroke="rgb(0, 0, 0)" stroke-opacity="1.0" stroke-linecap="round" stroke-linejoin="round"/>
    <path d="M 36.01393508911133 62.565155029296875 C -18.42452621459961 86.55265808105469 -21.339191436767578 73.70277404785156 16.319087982177734 67.62950897216797" stroke-width="3.0" fill="none" stroke="rgb(0, 0, 0)" stroke-opacity="1.0" stroke-linecap="round" stroke-linejoin="round"/>
    <path d="M 70.6585464477539 150.51878356933594 C 71.9010009765625 136.4015655517578 64.90543365478516 144.72315979003906 70.66197967529297 131.67840576171875" stroke-width="3.0" fill="none" stroke="rgb(0, 0, 0)" stroke-opacity="1.0" stroke-linecap="round" stroke-linejoin="round"/>
  </g>
</svg>
