<?xml version="1.0" ?>
<svg xmlns="http://www.w3.org/2000/svg" version="1.1" width="224" height="224">
  <defs/>
  <g>
    <path d="M 125.64795684814453 128.4842529296875 C 138.18077087402344 95.89865112304688 139.55445861816406 80.46173858642578 152.62774658203125 72.84774017333984" stroke-width="3.0" fill="none" stroke="rgb(0, 0, 0)" stroke-opacity="1.0" stroke-linecap="round" stroke-linejoin="round"/>
    <path d="M 30.064407348632812 142.54673767089844 C -2.339573621749878 117.19583892822266 19.438817977905273 105.29439544677734 25.408138275146484 134.66250610351562" stroke-width="3.0" fill="none" stroke="rgb(0, 0, 0)" stroke-opacity="1.0" stroke-linecap="round" stroke-linejoin="round"/>
    <path d="M 132.29263305664062 84.58436584472656 C 78.14617919921875 43.8369026184082 78.852783203125 166.32455444335938 116.31560516357422 108.87470245361328" stroke-width="3.0" fill="none" stroke="rgb(0, 0, 0)" stroke-opacity="1.0" stroke-linecap="round" stroke-linejoin="round"/>
    <path d="M 39.30866241455078 75.2459716796875 C 97.06805419921875 47.307838439941406 82.03355407714844 170.37583923339844 46.8108024597168 112.2164535522461" stroke-width="3.0" fill="none" stroke="rgb(0, 0, 0)" stroke-opacity="1.0" stroke-linecap="round" stroke-linejoin="round"/>
    <path d="M 151.10484313964844 61.509552001953125 C 201.3892059326172 79.03619384765625 139.5702362060547 118.89739227294922 164.34292602539062 93.27108764648438" stroke-width="3.0" fill="none" stroke="rgb(0, 0, 0)" stroke-opacity="1.0" stroke-linecap="round" stroke-linejoin="round"/>
    <path d="M 123.6310806274414 99.62360382080078 C 98.11414337158203 108.51689910888672 109.60669708251953 128.6703643798828 145.71939086914062 68.98880767822266" stroke-width="3.0" fill="none" stroke="rgb(0, 0, 0)" stroke-opacity="1.0" stroke-linecap="round" stroke-linejoin="round"/>
    <path d="M 10.65437126159668 89.88652801513672 C -8.665764808654785 66.09880065917969 15.126336097717285 92.373046875 4.160685062408447 106.97528076171875" stroke-width="3.0" fill="none" stroke="rgb(0, 0, 0)" stroke-opacity="1.0" stroke-linecap="round" stroke-linejoin="round"/>
    <path d="M 72.93405151367188 162.72946166992188 C 68.35455322265625 147.3862762451172 84.42311096191406 157.73890686035156 82.84101104736328 138.2208709716797" stroke-width="3.0" fill="none" stroke="rgb(0, 0, 0)" stroke-opacity="1.0" stroke-linecap="round" stroke-linejoin="round"/>
    <path d="M 55.02070236206055 161.23606872558594 C 79.35267639160156 151.9093780517578 86.72746276855469 161.4309539794922 55.746070861816406 199.8892822265625" stroke-width="3.0" fill="none" stroke="rgb(0, 0, 0)" stroke-opacity="1.0" stroke-linecap="round" stroke-linejoin="round"/>
    <path d="M 47.5386848449707 111.308837890625 C 68.97784423828125 35.86075973510742 -30.061790466308594 93.36620330810547 41.25907897949219 111.6087875366211" stroke-width="3.0" fill="none" stroke="rgb(0, 0, 0)" stroke-opacity="1.0" stroke-linecap="round" stroke-linejoin="round"/>
    <path d="M 81.96837615966797 133.77230834960938 C 96.7911376953125 127.46016693115234 85.20262908935547 112.2182846069336 91.44123840332031 127.93305969238281" stroke-width="3.0" fill="none" stroke="rgb(0, 0, 0)" stroke-opacity="1.0" stroke-linecap="round" stroke-linejoin="round"/>
    <path d="M 86.75865173339844 69.09757232666016 C 98.71746826171875 76.07635498046875 93.31537628173828 77.1436767578125 89.05274963378906 71.48894500732422" stroke-width="3.0" fill="none" stroke="rgb(0, 0, 0)" stroke-opacity="1.0" stroke-linecap="round" stroke-linejoin="round"/>
    <path d="M 10.67635726928711 111.03234100341797 C 30.128612518310547 121.41153717041016 -20.633758544921875 70.26544952392578 25.30477523803711 146.6083526611328" stroke-width="3.0" fill="none" stroke="rgb(0, 0, 0)" stroke-opacity="1.0" stroke-linecap="round" stroke-linejoin="round"/>
    <path d="M 57.868263244628906 188.49464416503906 C 113.8369140625 142.9574432373047 37.90579605102539 152.25401306152344 55.53042221069336 180.74472045898438" stroke-width="3.0" fill="none" stroke="rgb(0, 0, 0)" stroke-opacity="1.0" stroke-linecap="round" stroke-linejoin="round"/>
    <path d="M 150.99925231933594 84.4021224975586 C 142.9976043701172 102.6054916381836 148.31094360351562 41.86936950683594 153.9400634765625 52.095558166503906" stroke-width="3.0" fill="none" stroke="rgb(0, 0, 0)" stroke-opacity="1.0" stroke-linecap="round" stroke-linejoin="round"/>
    <path d="M -3.8058013916015625 67.35169982910156 C 6.713767051696777 52.025516510009766 47.69094467163086 45.00124740600586 58.14691925048828 51.44963455200195" stroke-width="3.0" fill="none" stroke="rgb(0, 0, 0)" stroke-opacity="1.0" stroke-linecap="round" stroke-linejoin="round"/>
    <path d="M -5.22715425491333 72.23585510253906 C 37.84063720703125 49.63519287109375 103.86795043945312 56.55554962158203 139.26544189453125 74.17786407470703" stroke-width="3.0" fill="none" stroke="rgb(0, 0, 0)" stroke-opacity="1.0" stroke-linecap="round" stroke-linejoin="round"/>
    <path d="M 42.923763275146484 176.68016052246094 C 29.931774139404297 158.3972625732422 14.678110122680664 119.6265640258789 34.736331939697266 163.65524291992188" stroke-width="3.0" fill="none" stroke="rgb(0, 0, 0)" stroke-opacity="1.0" stroke-linecap="round" stroke-linejoin="round"/>
    <path d="M 109.6005859375 176.87686157226562 C 135.13031005859375 90.19889068603516 147.95191955566406 121.8210220336914 124.0153579711914 138.5284423828125" stroke-width="3.0" fill="none" stroke="rgb(0, 0, 0)" stroke-opacity="1.0" stroke-linecap="round" stroke-linejoin="round"/>
    <path d="M 36.08111572265625 164.41201782226562 C 42.81317138671875 186.7299346923828 76.94290924072266 137.84213256835938 33.81928253173828 149.2515411376953" stroke-width="3.0" fill="none" stroke="rgb(0, 0, 0)" stroke-opacity="1.0" stroke-linecap="round" stroke-linejoin="round"/>
    <path d="M 133.20751953125 141.44712829589844 C 85.75784301757812 193.6888885498047 106.52739715576172 200.11900329589844 130.511962890625 146.04103088378906" stroke-width="3.0" fill="none" stroke="rgb(0, 0, 0)" stroke-opacity="1.0" stroke-linecap="round" stroke-linejoin="round"/>
    <path d="M 71.23590087890625 171.49813842773438 C 136.53697204589844 84.15711975097656 97.62186431884766 124.85845947265625 89.91355895996094 105.30824279785156" stroke-width="3.0" fill="none" stroke="rgb(0, 0, 0)" stroke-opacity="1.0" stroke-linecap="round" stroke-linejoin="round"/>
    <path d="M 130.55625915527344 87.74586486816406 C 140.84849548339844 77.8118896484375 133.78488159179688 84.09458923339844 145.2105255126953 62.283042907714844" stroke-width="3.0" fill="none" stroke="rgb(0, 0, 0)" stroke-opacity="1.0" stroke-linecap="round" stroke-linejoin="round"/>
    <path d="M 25.617900848388672 146.1630859375 C 67.87731170654297 124.33555603027344 4.719826698303223 91.2802505493164 22.084529876708984 130.02223205566406" stroke-width="3.0" fill="none" stroke="rgb(0, 0, 0)" stroke-opacity="1.0" stroke-linecap="round" stroke-linejoin="round"/>
    <path d="M 157.8081817626953 53.91963195800781 C 130.4003448486328 44.8691520690918 212.49459838867188 72.91398620605469 181.4194793701172 84.2060775756836" stroke-width="3.0" fill="none" stroke="rgb(0, 0, 0)" stroke-opacity="1.0" stroke-linecap="round" stroke-linejoin="round"/>
    <path d="M 153.17117309570312 74.48530578613281 C 127.10152435302734 107.71466064453125 135.21568298339844 85.12458038330078 135.2765350341797 118.9080581665039" stroke-width="3.0" fill="none" stroke="rgb(0, 0, 0)" stroke-opacity="1.0" stroke-linecap="round" stroke-linejoin="round"/>
    <path d="M 51.09366989135742 48.8377685546875 C 145.70904541015625 58.2281494140625 205.44497680664062 78.09501647949219 64.884765625 47.51019287109375" stroke-width="3.0" fill="none" stroke="rgb(0, 0, 0)" stroke-opacity="1.0" stroke-linecap="round" stroke-linejoin="round"/>
    <path d="M 54.22227478027344 195.13478088378906 C 41.70070266723633 168.5115509033203 32.55577087402344 171.22386169433594 32.9212760925293 149.0432586669922" stroke-width="3.0" fill="none" stroke="rgb(0, 0, 0)" stroke-opacity="1.0" stroke-linecap="round" stroke-linejoin="round"/>
    <path d="M 118.31463623046875 162.68931579589844 C 189.41664123535156 92.73973846435547 161.7177734375 95.8473892211914 173.8990020751953 83.87541198730469" stroke-width="3.0" fill="none" stroke="rgb(0, 0, 0)" stroke-opacity="1.0" stroke-linecap="round" stroke-linejoin="round"/>
    <path d="M 153.47032165527344 58.3969841003418 C 207.65240478515625 91.06028747558594 177.8654327392578 82.52217864990234 136.6254425048828 142.24386596679688" stroke-width="3.0" fill="none" stroke="rgb(0, 0, 0)" stroke-opacity="1.0" stroke-linecap="round" stroke-linejoin="round"/>
    <path d="M 49.05479049682617 58.8875732421875 C -23.495149612426758 85.78694152832031 -23.37574005126953 76.15435028076172 16.285663604736328 62.83249282836914" stroke-width="3.0" fill="none" stroke="rgb(0, 0, 0)" stroke-opacity="1.0" stroke-linecap="round" stroke-linejoin="round"/>
    <path d="M 68.68616485595703 150.38319396972656 C 74.4565658569336 138.7956085205078 59.02068328857422 152.0010223388672 70.81178283691406 132.29183959960938" stroke-width="3.0" fill="none" stroke="rgb(0, 0, 0)" stroke-opacity="1.0" stroke-linecap="round" stroke-linejoin="round"/>
  </g>
</svg>
