<?xml version="1.0" ?>
<svg xmlns="http://www.w3.org/2000/svg" version="1.1" width="224" height="224">
  <defs/>
  <g>
    <path d="M 126.43362426757812 134.67510986328125 C 139.1240997314453 89.95037078857422 156.7069854736328 49.26133346557617 167.59133911132812 70.9820556640625" stroke-width="3.0" fill="none" stroke="rgb(0, 0, 0)" stroke-opacity="1.0" stroke-linecap="round" stroke-linejoin="round"/>
    <path d="M 30.245685577392578 142.28012084960938 C -2.301863431930542 124.28453063964844 24.986488342285156 108.00438690185547 16.5518856048584 123.0823745727539" stroke-width="3.0" fill="none" stroke="rgb(0, 0, 0)" stroke-opacity="1.0" stroke-linecap="round" stroke-linejoin="round"/>
    <path d="M 125.48193359375 86.4622802734375 C 90.87190246582031 30.578136444091797 68.51097106933594 167.67320251464844 114.61884307861328 110.79193878173828" stroke-width="3.0" fill="none" stroke="rgb(0, 0, 0)" stroke-opacity="1.0" stroke-linecap="round" stroke-linejoin="round"/>
    <path d="M 39.18682098388672 78.16456604003906 C 108.70030212402344 34.649261474609375 74.30795288085938 167.14035034179688 47.71013641357422 110.44442749023438" stroke-width="3.0" fill="none" stroke="rgb(0, 0, 0)" stroke-opacity="1.0" stroke-linecap="round" stroke-linejoin="round"/>
    <path d="M 152.67337036132812 74.21549987792969 C 188.0919647216797 79.52613830566406 147.24502563476562 126.88641357421875 164.14138793945312 94.90689086914062" stroke-width="3.0" fill="none" stroke="rgb(0, 0, 0)" stroke-opacity="1.0" stroke-linecap="round" stroke-linejoin="round"/>
    <path d="M 130.29429626464844 88.48323822021484 C 114.4727554321289 121.78115844726562 98.9611587524414 116.86239624023438 153.99822998046875 64.31824493408203" stroke-width="3.0" fill="none" stroke="rgb(0, 0, 0)" stroke-opacity="1.0" stroke-linecap="round" stroke-linejoin="round"/>
    <path d="M 15.262829780578613 88.78179931640625 C 2.4987006187438965 73.58514404296875 22.332176208496094 96.06837463378906 6.680651664733887 106.46991729736328" stroke-width="3.0" fill="none" stroke="rgb(0, 0, 0)" stroke-opacity="1.0" stroke-linecap="round" stroke-linejoin="round"/>
    <path d="M 87.87249755859375 144.89244079589844 C 67.35652923583984 136.82577514648438 87.73867797851562 122.91044616699219 72.96073150634766 119.86153411865234" stroke-width="3.0" fill="none" stroke="rgb(0, 0, 0)" stroke-opacity="1.0" stroke-linecap="round" stroke-linejoin="round"/>
    <path d="M 76.05363464355469 145.99954223632812 C 81.84635162353516 143.399658203125 89.66046142578125 156.40220642089844 57.319271087646484 195.82778930664062" stroke-width="3.0" fill="none" stroke="rgb(0, 0, 0)" stroke-opacity="1.0" stroke-linecap="round" stroke-linejoin="round"/>
    <path d="M 50.373836517333984 113.98414611816406 C 63.69647979736328 36.81842803955078 -23.763809204101562 111.67296600341797 50.42686462402344 112.07244873046875" stroke-width="3.0" fill="none" stroke="rgb(0, 0, 0)" stroke-opacity="1.0" stroke-linecap="round" stroke-linejoin="round"/>
    <path d="M 100.48760223388672 116.06243133544922 C 122.42544555664062 130.4476776123047 83.123779296875 84.9018783569336 90.316162109375 94.76461029052734" stroke-width="3.0" fill="none" stroke="rgb(0, 0, 0)" stroke-opacity="1.0" stroke-linecap="round" stroke-linejoin="round"/>
    <path d="M 75.06327056884766 67.5319595336914 C 109.04229736328125 75.77596282958984 77.11101531982422 93.7413558959961 90.31459045410156 78.8617935180664" stroke-width="3.0" fill="none" stroke="rgb(0, 0, 0)" stroke-opacity="1.0" stroke-linecap="round" stroke-linejoin="round"/>
    <path d="M 10.116416931152344 109.58323669433594 C 25.856443405151367 141.2346954345703 -19.76388168334961 67.62312316894531 32.87186813354492 162.71859741210938" stroke-width="3.0" fill="none" stroke="rgb(0, 0, 0)" stroke-opacity="1.0" stroke-linecap="round" stroke-linejoin="round"/>
    <path d="M 56.337867736816406 187.95309448242188 C 126.83544921875 143.10006713867188 13.162915229797363 155.53256225585938 64.90998840332031 183.1474609375" stroke-width="3.0" fill="none" stroke="rgb(0, 0, 0)" stroke-opacity="1.0" stroke-linecap="round" stroke-linejoin="round"/>
    <path d="M 154.25787353515625 91.0494155883789 C 150.84341430664062 109.29866027832031 147.2567596435547 35.20417785644531 157.90174865722656 63.47282409667969" stroke-width="3.0" fill="none" stroke="rgb(0, 0, 0)" stroke-opacity="1.0" stroke-linecap="round" stroke-linejoin="round"/>
    <path d="M -10.536797523498535 71.24761199951172 C 6.775233268737793 61.31547927856445 34.792701721191406 44.218284606933594 74.73233032226562 52.46823501586914" stroke-width="3.0" fill="none" stroke="rgb(0, 0, 0)" stroke-opacity="1.0" stroke-linecap="round" stroke-linejoin="round"/>
    <path d="M -5.092854976654053 80.57001495361328 C 89.78305053710938 47.443878173828125 76.22248077392578 62.228126525878906 141.93865966796875 74.86203002929688" stroke-width="3.0" fill="none" stroke="rgb(0, 0, 0)" stroke-opacity="1.0" stroke-linecap="round" stroke-linejoin="round"/>
    <path d="M 48.63041305541992 180.15866088867188 C 31.62059211730957 171.4052276611328 26.479846954345703 126.78926086425781 35.92581558227539 161.4607391357422" stroke-width="3.0" fill="none" stroke="rgb(0, 0, 0)" stroke-opacity="1.0" stroke-linecap="round" stroke-linejoin="round"/>
    <path d="M 113.39140319824219 168.93194580078125 C 134.99838256835938 84.3625259399414 138.62313842773438 123.25952911376953 130.29872131347656 138.39341735839844" stroke-width="3.0" fill="none" stroke="rgb(0, 0, 0)" stroke-opacity="1.0" stroke-linecap="round" stroke-linejoin="round"/>
    <path d="M 36.58388137817383 160.66152954101562 C 50.11224365234375 186.09947204589844 68.07428741455078 140.1375732421875 31.018917083740234 151.6208953857422" stroke-width="3.0" fill="none" stroke="rgb(0, 0, 0)" stroke-opacity="1.0" stroke-linecap="round" stroke-linejoin="round"/>
    <path d="M 132.77426147460938 132.85997009277344 C 84.71353912353516 204.23580932617188 110.17449951171875 195.8967742919922 133.35873413085938 151.321533203125" stroke-width="3.0" fill="none" stroke="rgb(0, 0, 0)" stroke-opacity="1.0" stroke-linecap="round" stroke-linejoin="round"/>
    <path d="M 71.01344299316406 171.33631896972656 C 142.88986206054688 73.29019927978516 87.49082946777344 133.46368408203125 96.46854400634766 81.999755859375" stroke-width="3.0" fill="none" stroke="rgb(0, 0, 0)" stroke-opacity="1.0" stroke-linecap="round" stroke-linejoin="round"/>
    <path d="M 123.15960693359375 94.004150390625 C 111.23565673828125 44.54001235961914 136.72808837890625 97.62928009033203 143.4890899658203 63.66330337524414" stroke-width="3.0" fill="none" stroke="rgb(0, 0, 0)" stroke-opacity="1.0" stroke-linecap="round" stroke-linejoin="round"/>
    <path d="M 26.965919494628906 143.43710327148438 C 63.37200164794922 125.7862548828125 1.5587396621704102 100.7705307006836 31.0029296875 141.32611083984375" stroke-width="3.0" fill="none" stroke="rgb(0, 0, 0)" stroke-opacity="1.0" stroke-linecap="round" stroke-linejoin="round"/>
    <path d="M 165.72837829589844 64.42827606201172 C 124.6797103881836 46.99513244628906 214.74424743652344 71.99649047851562 183.06141662597656 84.18895721435547" stroke-width="3.0" fill="none" stroke="rgb(0, 0, 0)" stroke-opacity="1.0" stroke-linecap="round" stroke-linejoin="round"/>
    <path d="M 158.350341796875 77.98983001708984 C 120.6752700805664 94.05677795410156 161.659912109375 89.28353118896484 141.4008026123047 123.41197967529297" stroke-width="3.0" fill="none" stroke="rgb(0, 0, 0)" stroke-opacity="1.0" stroke-linecap="round" stroke-linejoin="round"/>
    <path d="M 69.4327392578125 51.9935417175293 C 129.4918670654297 49.58551025390625 188.2799072265625 84.54234313964844 92.08464813232422 51.48954391479492" stroke-width="3.0" fill="none" stroke="rgb(0, 0, 0)" stroke-opacity="1.0" stroke-linecap="round" stroke-linejoin="round"/>
    <path d="M 55.196224212646484 200.3890380859375 C 42.27529525756836 171.75289916992188 32.05120086669922 167.12010192871094 33.225990295410156 150.81089782714844" stroke-width="3.0" fill="none" stroke="rgb(0, 0, 0)" stroke-opacity="1.0" stroke-linecap="round" stroke-linejoin="round"/>
    <path d="M 121.99872589111328 163.64381408691406 C 194.2144012451172 89.14494323730469 166.5041961669922 84.2675552368164 160.40029907226562 87.88103485107422" stroke-width="3.0" fill="none" stroke="rgb(0, 0, 0)" stroke-opacity="1.0" stroke-linecap="round" stroke-linejoin="round"/>
    <path d="M 152.9122314453125 57.6606559753418 C 210.8248748779297 91.80903625488281 174.71304321289062 79.66059112548828 139.02745056152344 144.54660034179688" stroke-width="3.0" fill="none" stroke="rgb(0, 0, 0)" stroke-opacity="1.0" stroke-linecap="round" stroke-linejoin="round"/>
    <path d="M 66.2032241821289 51.40629959106445 C -49.026710510253906 72.57344818115234 -33.09900665283203 84.63630676269531 42.0130500793457 63.85340118408203" stroke-width="3.0" fill="none" stroke="rgb(0, 0, 0)" stroke-opacity="1.0" stroke-linecap="round" stroke-linejoin="round"/>
    <path d="M 74.25089263916016 139.5603485107422 C 75.88648223876953 124.95648956298828 54.62167739868164 130.65191650390625 77.88384246826172 132.88560485839844" stroke-width="3.0" fill="none" stroke="rgb(0, 0, 0)" stroke-opacity="1.0" stroke-linecap="round" stroke-linejoin="round"/>
  </g>
</svg>
