<?xml version="1.0" ?>
<svg xmlns="http://www.w3.org/2000/svg" version="1.1" width="224" height="224">
  <defs/>
  <g>
    <path d="M 125.2596206665039 127.63066101074219 C 139.83213806152344 94.19184875488281 144.02230834960938 75.89501953125 157.8496551513672 72.00035858154297" stroke-width="3.0" fill="none" stroke="rgb(0, 0, 0)" stroke-opacity="1.0" stroke-linecap="round" stroke-linejoin="round"/>
    <path d="M 30.260417938232422 139.98818969726562 C 0.525213360786438 119.93299865722656 21.323036193847656 113.31854248046875 26.75078010559082 139.87985229492188" stroke-width="3.0" fill="none" stroke="rgb(0, 0, 0)" stroke-opacity="1.0" stroke-linecap="round" stroke-linejoin="round"/>
    <path d="M 129.9425811767578 88.35809326171875 C 95.18547058105469 30.522062301635742 74.51729583740234 169.1929931640625 111.57933044433594 109.5167465209961" stroke-width="3.0" fill="none" stroke="rgb(0, 0, 0)" stroke-opacity="1.0" stroke-linecap="round" stroke-linejoin="round"/>
    <path d="M 42.40117263793945 79.73055267333984 C 100.07555389404297 38.39959716796875 80.60846710205078 164.92782592773438 50.480003356933594 107.08341979980469" stroke-width="3.0" fill="none" stroke="rgb(0, 0, 0)" stroke-opacity="1.0" stroke-linecap="round" stroke-linejoin="round"/>
    <path d="M 153.5934295654297 68.947021484375 C 194.70314025878906 80.36239624023438 143.36343383789062 115.2232894897461 171.9214324951172 89.91512298583984" stroke-width="3.0" fill="none" stroke="rgb(0, 0, 0)" stroke-opacity="1.0" stroke-linecap="round" stroke-linejoin="round"/>
    <path d="M 122.82252502441406 97.43498229980469 C 104.46663665771484 113.67499542236328 106.15492248535156 128.51858520507812 152.1735076904297 53.47498321533203" stroke-width="3.0" fill="none" stroke="rgb(0, 0, 0)" stroke-opacity="1.0" stroke-linecap="round" stroke-linejoin="round"/>
    <path d="M 10.84396743774414 95.55301666259766 C -4.600119113922119 72.72813415527344 21.117679595947266 90.80706024169922 5.835743427276611 106.89434814453125" stroke-width="3.0" fill="none" stroke="rgb(0, 0, 0)" stroke-opacity="1.0" stroke-linecap="round" stroke-linejoin="round"/>
    <path d="M 79.81439971923828 157.23721313476562 C 73.3359146118164 147.55215454101562 93.49758911132812 134.34483337402344 78.62432098388672 125.07263946533203" stroke-width="3.0" fill="none" stroke="rgb(0, 0, 0)" stroke-opacity="1.0" stroke-linecap="round" stroke-linejoin="round"/>
    <path d="M 65.7289047241211 157.73448181152344 C 79.40544891357422 156.04388427734375 86.48362731933594 158.31077575683594 53.93446731567383 200.4814910888672" stroke-width="3.0" fill="none" stroke="rgb(0, 0, 0)" stroke-opacity="1.0" stroke-linecap="round" stroke-linejoin="round"/>
    <path d="M 52.73384475708008 111.36959075927734 C 63.759674072265625 40.130035400390625 -22.243106842041016 110.67718505859375 50.23110580444336 112.229248046875" stroke-width="3.0" fill="none" stroke="rgb(0, 0, 0)" stroke-opacity="1.0" stroke-linecap="round" stroke-linejoin="round"/>
    <path d="M 93.23287200927734 117.08596801757812 C 107.37265014648438 128.1240692138672 77.44962310791016 95.02871704101562 95.30695343017578 94.98309326171875" stroke-width="3.0" fill="none" stroke="rgb(0, 0, 0)" stroke-opacity="1.0" stroke-linecap="round" stroke-linejoin="round"/>
    <path d="M 75.9677963256836 72.81084442138672 C 98.61836242675781 82.61653137207031 83.74573516845703 92.06370544433594 84.96121978759766 78.39928436279297" stroke-width="3.0" fill="none" stroke="rgb(0, 0, 0)" stroke-opacity="1.0" stroke-linecap="round" stroke-linejoin="round"/>
    <path d="M 10.886820793151855 112.51029968261719 C 28.187685012817383 125.1751708984375 -22.567584991455078 69.18962097167969 31.758943557739258 155.5401611328125" stroke-width="3.0" fill="none" stroke="rgb(0, 0, 0)" stroke-opacity="1.0" stroke-linecap="round" stroke-linejoin="round"/>
    <path d="M 54.55365753173828 191.6512908935547 C 120.30442810058594 140.34889221191406 18.601890563964844 160.8392791748047 66.17408752441406 183.59628295898438" stroke-width="3.0" fill="none" stroke="rgb(0, 0, 0)" stroke-opacity="1.0" stroke-linecap="round" stroke-linejoin="round"/>
    <path d="M 153.66770935058594 87.86707305908203 C 150.0856170654297 107.48918151855469 154.6869354248047 45.066192626953125 163.27993774414062 63.878150939941406" stroke-width="3.0" fill="none" stroke="rgb(0, 0, 0)" stroke-opacity="1.0" stroke-linecap="round" stroke-linejoin="round"/>
    <path d="M -7.731355667114258 70.9294662475586 C 4.594705581665039 56.96442413330078 40.875343322753906 43.919532775878906 68.56944274902344 52.10388946533203" stroke-width="3.0" fill="none" stroke="rgb(0, 0, 0)" stroke-opacity="1.0" stroke-linecap="round" stroke-linejoin="round"/>
    <path d="M -3.7481954097747803 77.95085144042969 C 76.57556915283203 49.90432357788086 71.95124816894531 55.397647857666016 140.89569091796875 72.23233032226562" stroke-width="3.0" fill="none" stroke="rgb(0, 0, 0)" stroke-opacity="1.0" stroke-linecap="round" stroke-linejoin="round"/>
    <path d="M 50.220088958740234 183.30026245117188 C 34.29893112182617 158.39242553710938 16.458942413330078 127.3468017578125 34.650489807128906 163.3158416748047" stroke-width="3.0" fill="none" stroke="rgb(0, 0, 0)" stroke-opacity="1.0" stroke-linecap="round" stroke-linejoin="round"/>
    <path d="M 115.43916320800781 166.59405517578125 C 131.1305694580078 92.6851577758789 134.17543029785156 129.73147583007812 128.69252014160156 126.96022033691406" stroke-width="3.0" fill="none" stroke="rgb(0, 0, 0)" stroke-opacity="1.0" stroke-linecap="round" stroke-linejoin="round"/>
    <path d="M 34.584434509277344 163.12448120117188 C 40.49267578125 184.4295654296875 79.51683044433594 137.19847106933594 29.78743553161621 149.53770446777344" stroke-width="3.0" fill="none" stroke="rgb(0, 0, 0)" stroke-opacity="1.0" stroke-linecap="round" stroke-linejoin="round"/>
    <path d="M 132.40536499023438 134.82839965820312 C 87.5408935546875 202.4276123046875 107.75740051269531 196.7653045654297 134.7864990234375 151.02755737304688" stroke-width="3.0" fill="none" stroke="rgb(0, 0, 0)" stroke-opacity="1.0" stroke-linecap="round" stroke-linejoin="round"/>
    <path d="M 70.81612396240234 172.3235321044922 C 140.49993896484375 75.27307891845703 88.5261001586914 123.7232437133789 96.52147674560547 84.52337646484375" stroke-width="3.0" fill="none" stroke="rgb(0, 0, 0)" stroke-opacity="1.0" stroke-linecap="round" stroke-linejoin="round"/>
    <path d="M 121.64778137207031 99.30484008789062 C 124.46125793457031 62.89632797241211 136.12429809570312 100.28235626220703 143.3402862548828 64.69734954833984" stroke-width="3.0" fill="none" stroke="rgb(0, 0, 0)" stroke-opacity="1.0" stroke-linecap="round" stroke-linejoin="round"/>
    <path d="M 28.045473098754883 146.69326782226562 C 72.50045013427734 123.75919342041016 -1.8752654790878296 92.62129974365234 22.68141746520996 136.96844482421875" stroke-width="3.0" fill="none" stroke="rgb(0, 0, 0)" stroke-opacity="1.0" stroke-linecap="round" stroke-linejoin="round"/>
    <path d="M 160.7545623779297 59.44243240356445 C 128.58416748046875 40.93565368652344 209.1553192138672 75.94918823242188 185.44326782226562 82.70157623291016" stroke-width="3.0" fill="none" stroke="rgb(0, 0, 0)" stroke-opacity="1.0" stroke-linecap="round" stroke-linejoin="round"/>
    <path d="M 156.0487060546875 84.54949951171875 C 128.05999755859375 97.20330047607422 163.58123779296875 96.6229248046875 138.52755737304688 127.0301742553711" stroke-width="3.0" fill="none" stroke="rgb(0, 0, 0)" stroke-opacity="1.0" stroke-linecap="round" stroke-linejoin="round"/>
    <path d="M 64.32286071777344 52.33156967163086 C 125.58431243896484 42.96676254272461 198.37982177734375 80.13101959228516 90.88424682617188 51.80278015136719" stroke-width="3.0" fill="none" stroke="rgb(0, 0, 0)" stroke-opacity="1.0" stroke-linecap="round" stroke-linejoin="round"/>
    <path d="M 52.785030364990234 197.64852905273438 C 46.633033752441406 166.13922119140625 29.495052337646484 168.2314453125 34.392738342285156 148.2161102294922" stroke-width="3.0" fill="none" stroke="rgb(0, 0, 0)" stroke-opacity="1.0" stroke-linecap="round" stroke-linejoin="round"/>
    <path d="M 123.37361907958984 163.72222900390625 C 194.12049865722656 86.13441467285156 167.43565368652344 79.75343322753906 164.1724853515625 83.44969940185547" stroke-width="3.0" fill="none" stroke="rgb(0, 0, 0)" stroke-opacity="1.0" stroke-linecap="round" stroke-linejoin="round"/>
    <path d="M 159.32058715820312 56.10395050048828 C 211.67747497558594 92.4971923828125 174.28445434570312 73.58696746826172 139.8980712890625 143.14646911621094" stroke-width="3.0" fill="none" stroke="rgb(0, 0, 0)" stroke-opacity="1.0" stroke-linecap="round" stroke-linejoin="round"/>
    <path d="M 61.80353546142578 49.379119873046875 C -50.90193557739258 71.19989013671875 -21.948673248291016 89.94660186767578 45.74695587158203 64.23263549804688" stroke-width="3.0" fill="none" stroke="rgb(0, 0, 0)" stroke-opacity="1.0" stroke-linecap="round" stroke-linejoin="round"/>
    <path d="M 81.38825225830078 150.65689086914062 C 88.2733154296875 138.86744689941406 64.72429656982422 150.3501739501953 65.49506378173828 145.12681579589844" stroke-width="3.0" fill="none" stroke="rgb(0, 0, 0)" stroke-opacity="1.0" stroke-linecap="round" stroke-linejoin="round"/>
  </g>
</svg>
