<?xml version="1.0" ?>
<svg xmlns="http://www.w3.org/2000/svg" version="1.1" width="224" height="224">
  <defs/>
  <g>
    <path d="M 151.49374389648438 118.8484115600586 C 159.4924774169922 95.87420654296875 145.29888916015625 95.71519470214844 146.64068603515625 87.06526947021484" stroke-width="3.0" fill="none" stroke="rgb(0, 0, 0)" stroke-opacity="1.0" stroke-linecap="round" stroke-linejoin="round"/>
    <path d="M 21.581026077270508 134.92333984375 C 16.581233978271484 113.70259857177734 33.78217697143555 123.93534851074219 21.294639587402344 132.47457885742188" stroke-width="3.0" fill="none" stroke="rgb(0, 0, 0)" stroke-opacity="1.0" stroke-linecap="round" stroke-linejoin="round"/>
    <path d="M 113.65657806396484 103.65152740478516 C 71.92478942871094 89.87533569335938 85.8604736328125 147.87989807128906 111.88481140136719 116.95225524902344" stroke-width="3.0" fill="none" stroke="rgb(0, 0, 0)" stroke-opacity="1.0" stroke-linecap="round" stroke-linejoin="round"/>
    <path d="M 58.796180725097656 96.51219940185547 C 87.88214111328125 83.32359313964844 79.19011688232422 139.87005615234375 53.34211349487305 98.02641296386719" stroke-width="3.0" fill="none" stroke="rgb(0, 0, 0)" stroke-opacity="1.0" stroke-linecap="round" stroke-linejoin="round"/>
    <path d="M 150.8825225830078 65.99093627929688 C 189.4206085205078 79.20846557617188 169.7589111328125 89.27349853515625 167.05718994140625 98.46807861328125" stroke-width="3.0" fill="none" stroke="rgb(0, 0, 0)" stroke-opacity="1.0" stroke-linecap="round" stroke-linejoin="round"/>
    <path d="M 113.73812866210938 111.88322448730469 C 113.25838470458984 122.0701904296875 105.20647430419922 115.930419921875 124.35836791992188 102.38151550292969" stroke-width="3.0" fill="none" stroke="rgb(0, 0, 0)" stroke-opacity="1.0" stroke-linecap="round" stroke-linejoin="round"/>
    <path d="M 6.411168575286865 80.27503967285156 C 7.694331169128418 93.07878875732422 16.008535385131836 93.29889678955078 6.914410591125488 109.31092834472656" stroke-width="3.0" fill="none" stroke="rgb(0, 0, 0)" stroke-opacity="1.0" stroke-linecap="round" stroke-linejoin="round"/>
    <path d="M 80.14209747314453 155.3975830078125 C 75.24880981445312 144.95738220214844 83.58466339111328 157.4272918701172 84.4717788696289 150.4459228515625" stroke-width="3.0" fill="none" stroke="rgb(0, 0, 0)" stroke-opacity="1.0" stroke-linecap="round" stroke-linejoin="round"/>
    <path d="M 56.00169372558594 161.15419006347656 C 73.66162872314453 160.07843017578125 80.09527587890625 164.85594177246094 55.71669387817383 199.67758178710938" stroke-width="3.0" fill="none" stroke="rgb(0, 0, 0)" stroke-opacity="1.0" stroke-linecap="round" stroke-linejoin="round"/>
    <path d="M 46.63203048706055 99.95286560058594 C 62.29401779174805 86.50180053710938 5.08204460144043 89.15547943115234 35.077003479003906 96.27962493896484" stroke-width="3.0" fill="none" stroke="rgb(0, 0, 0)" stroke-opacity="1.0" stroke-linecap="round" stroke-linejoin="round"/>
    <path d="M 92.40408325195312 129.75875854492188 C 101.41910552978516 132.20938110351562 89.66151428222656 116.34415435791016 92.31949615478516 139.70333862304688" stroke-width="3.0" fill="none" stroke="rgb(0, 0, 0)" stroke-opacity="1.0" stroke-linecap="round" stroke-linejoin="round"/>
    <path d="M 89.33870697021484 83.26509857177734 C 87.97166442871094 94.56770324707031 90.25540161132812 87.60285949707031 91.95650482177734 83.90727996826172" stroke-width="3.0" fill="none" stroke="rgb(0, 0, 0)" stroke-opacity="1.0" stroke-linecap="round" stroke-linejoin="round"/>
    <path d="M 11.284746170043945 106.82417297363281 C 24.9747257232666 124.90888977050781 -3.8547439575195312 92.5128402709961 20.644254684448242 131.4363250732422" stroke-width="3.0" fill="none" stroke="rgb(0, 0, 0)" stroke-opacity="1.0" stroke-linecap="round" stroke-linejoin="round"/>
    <path d="M 58.08416748046875 186.4801483154297 C 97.77436828613281 155.3116455078125 73.43035888671875 148.74078369140625 42.467803955078125 171.7784881591797" stroke-width="3.0" fill="none" stroke="rgb(0, 0, 0)" stroke-opacity="1.0" stroke-linecap="round" stroke-linejoin="round"/>
    <path d="M 130.26820373535156 53.65378189086914 C 117.53677368164062 54.70779800415039 173.4395294189453 48.99209213256836 145.0167694091797 75.42901611328125" stroke-width="3.0" fill="none" stroke="rgb(0, 0, 0)" stroke-opacity="1.0" stroke-linecap="round" stroke-linejoin="round"/>
    <path d="M 2.006720542907715 65.04179382324219 C 16.317258834838867 57.0263671875 39.66343307495117 51.08647537231445 75.12025451660156 55.309696197509766" stroke-width="3.0" fill="none" stroke="rgb(0, 0, 0)" stroke-opacity="1.0" stroke-linecap="round" stroke-linejoin="round"/>
    <path d="M 28.144804000854492 61.162391662597656 C 74.4679946899414 50.81352996826172 83.67314910888672 54.24640655517578 107.51604461669922 53.43103790283203" stroke-width="3.0" fill="none" stroke="rgb(0, 0, 0)" stroke-opacity="1.0" stroke-linecap="round" stroke-linejoin="round"/>
    <path d="M 37.70768737792969 169.30213928222656 C 30.231830596923828 155.94796752929688 19.983306884765625 124.52570343017578 37.114166259765625 165.5983123779297" stroke-width="3.0" fill="none" stroke="rgb(0, 0, 0)" stroke-opacity="1.0" stroke-linecap="round" stroke-linejoin="round"/>
    <path d="M 109.8730697631836 172.27357482910156 C 145.04031372070312 124.39238739013672 124.775634765625 127.32152557373047 121.27688598632812 156.54714965820312" stroke-width="3.0" fill="none" stroke="rgb(0, 0, 0)" stroke-opacity="1.0" stroke-linecap="round" stroke-linejoin="round"/>
    <path d="M 38.06772994995117 166.16693115234375 C 59.74444580078125 177.92422485351562 57.13664627075195 147.90939331054688 34.023162841796875 150.73997497558594" stroke-width="3.0" fill="none" stroke="rgb(0, 0, 0)" stroke-opacity="1.0" stroke-linecap="round" stroke-linejoin="round"/>
    <path d="M 126.0604476928711 154.00363159179688 C 92.35906982421875 181.73727416992188 97.85086059570312 200.51553344726562 127.9575424194336 161.79591369628906" stroke-width="3.0" fill="none" stroke="rgb(0, 0, 0)" stroke-opacity="1.0" stroke-linecap="round" stroke-linejoin="round"/>
    <path d="M 85.78247833251953 146.25706481933594 C 118.47733306884766 106.0757827758789 96.60934448242188 136.05799865722656 89.20760345458984 123.26355743408203" stroke-width="3.0" fill="none" stroke="rgb(0, 0, 0)" stroke-opacity="1.0" stroke-linecap="round" stroke-linejoin="round"/>
    <path d="M 136.0345458984375 86.08528900146484 C 125.27889251708984 91.66297912597656 135.14378356933594 104.97420501708984 144.0782470703125 68.51071166992188" stroke-width="3.0" fill="none" stroke="rgb(0, 0, 0)" stroke-opacity="1.0" stroke-linecap="round" stroke-linejoin="round"/>
    <path d="M 25.364713668823242 141.7112579345703 C 67.71846008300781 137.22776794433594 15.515299797058105 99.2786865234375 23.449522018432617 138.85906982421875" stroke-width="3.0" fill="none" stroke="rgb(0, 0, 0)" stroke-opacity="1.0" stroke-linecap="round" stroke-linejoin="round"/>
    <path d="M 132.2994842529297 50.310977935791016 C 130.86253356933594 43.9085807800293 185.1843719482422 64.70940399169922 191.00411987304688 72.7728500366211" stroke-width="3.0" fill="none" stroke="rgb(0, 0, 0)" stroke-opacity="1.0" stroke-linecap="round" stroke-linejoin="round"/>
    <path d="M 132.50157165527344 88.84407806396484 C 126.05728149414062 111.41361236572266 122.0408706665039 102.43041229248047 128.28916931152344 99.3998794555664" stroke-width="3.0" fill="none" stroke="rgb(0, 0, 0)" stroke-opacity="1.0" stroke-linecap="round" stroke-linejoin="round"/>
    <path d="M 96.34855651855469 53.90528869628906 C 136.6282196044922 59.39596939086914 132.76162719726562 52.66514587402344 86.62139129638672 54.455631256103516" stroke-width="3.0" fill="none" stroke="rgb(0, 0, 0)" stroke-opacity="1.0" stroke-linecap="round" stroke-linejoin="round"/>
    <path d="M 52.740394592285156 198.9536590576172 C 41.159183502197266 166.40176391601562 31.064313888549805 168.71633911132812 35.41889953613281 152.50741577148438" stroke-width="3.0" fill="none" stroke="rgb(0, 0, 0)" stroke-opacity="1.0" stroke-linecap="round" stroke-linejoin="round"/>
    <path d="M 125.64498901367188 163.93524169921875 C 176.1133575439453 81.05741882324219 174.40530395507812 110.24497985839844 176.97837829589844 83.79351806640625" stroke-width="3.0" fill="none" stroke="rgb(0, 0, 0)" stroke-opacity="1.0" stroke-linecap="round" stroke-linejoin="round"/>
    <path d="M 157.69288635253906 56.1712760925293 C 214.40606689453125 93.49395751953125 185.27545166015625 67.94303894042969 144.47776794433594 128.4038848876953" stroke-width="3.0" fill="none" stroke="rgb(0, 0, 0)" stroke-opacity="1.0" stroke-linecap="round" stroke-linejoin="round"/>
    <path d="M 18.323406219482422 81.34510040283203 C 17.869457244873047 85.7261734008789 21.122970581054688 82.98296356201172 19.202777862548828 83.85454559326172" stroke-width="3.0" fill="none" stroke="rgb(0, 0, 0)" stroke-opacity="1.0" stroke-linecap="round" stroke-linejoin="round"/>
    <path d="M 62.383995056152344 142.93963623046875 C 63.4872932434082 138.22283935546875 47.825042724609375 133.72674560546875 55.23545455932617 135.19383239746094" stroke-width="3.0" fill="none" stroke="rgb(0, 0, 0)" stroke-opacity="1.0" stroke-linecap="round" stroke-linejoin="round"/>
  </g>
</svg>
