<?xml version="1.0" ?>
<svg xmlns="http://www.w3.org/2000/svg" version="1.1" width="224" height="224">
  <defs/>
  <g>
    <path d="M 159.0297088623047 111.24407958984375 C 160.47520446777344 89.38188171386719 152.62246704101562 106.10834503173828 144.11407470703125 94.16067504882812" stroke-width="3.0" fill="none" stroke="rgb(0, 0, 0)" stroke-opacity="1.0" stroke-linecap="round" stroke-linejoin="round"/>
    <path d="M 19.49960708618164 134.6260223388672 C 17.6389102935791 114.27950286865234 31.992570877075195 127.85751342773438 20.79378318786621 133.6991424560547" stroke-width="3.0" fill="none" stroke="rgb(0, 0, 0)" stroke-opacity="1.0" stroke-linecap="round" stroke-linejoin="round"/>
    <path d="M 114.19718170166016 106.70059204101562 C 68.84127807617188 89.29988098144531 89.96477508544922 143.2020263671875 108.81499481201172 119.60477447509766" stroke-width="3.0" fill="none" stroke="rgb(0, 0, 0)" stroke-opacity="1.0" stroke-linecap="round" stroke-linejoin="round"/>
    <path d="M 56.38204574584961 94.16788482666016 C 94.0785903930664 81.27777862548828 79.68476867675781 128.812744140625 46.82017517089844 88.94774627685547" stroke-width="3.0" fill="none" stroke="rgb(0, 0, 0)" stroke-opacity="1.0" stroke-linecap="round" stroke-linejoin="round"/>
    <path d="M 160.0259552001953 74.60330963134766 C 183.46817016601562 82.61913299560547 171.8153839111328 87.94773864746094 171.0773468017578 91.58155059814453" stroke-width="3.0" fill="none" stroke="rgb(0, 0, 0)" stroke-opacity="1.0" stroke-linecap="round" stroke-linejoin="round"/>
    <path d="M 114.2818832397461 113.91490936279297 C 111.52477264404297 124.14579010009766 110.14186096191406 123.4659194946289 119.47673034667969 109.70451354980469" stroke-width="3.0" fill="none" stroke="rgb(0, 0, 0)" stroke-opacity="1.0" stroke-linecap="round" stroke-linejoin="round"/>
    <path d="M 9.336198806762695 89.48885345458984 C 10.406617164611816 89.71002960205078 15.568482398986816 104.11322021484375 7.149779796600342 106.54083251953125" stroke-width="3.0" fill="none" stroke="rgb(0, 0, 0)" stroke-opacity="1.0" stroke-linecap="round" stroke-linejoin="round"/>
    <path d="M 84.67801666259766 146.66998291015625 C 76.14661407470703 141.0607452392578 86.93212127685547 147.75360107421875 81.79397583007812 153.63681030273438" stroke-width="3.0" fill="none" stroke="rgb(0, 0, 0)" stroke-opacity="1.0" stroke-linecap="round" stroke-linejoin="round"/>
    <path d="M 67.48526763916016 169.7423095703125 C 75.96784973144531 145.39556884765625 81.34928894042969 160.7097930908203 59.15430450439453 197.69573974609375" stroke-width="3.0" fill="none" stroke="rgb(0, 0, 0)" stroke-opacity="1.0" stroke-linecap="round" stroke-linejoin="round"/>
    <path d="M 41.869083404541016 94.66519165039062 C 52.577392578125 88.18103790283203 14.146268844604492 87.21255493164062 35.7642707824707 92.52195739746094" stroke-width="3.0" fill="none" stroke="rgb(0, 0, 0)" stroke-opacity="1.0" stroke-linecap="round" stroke-linejoin="round"/>
    <path d="M 95.61613464355469 131.71678161621094 C 100.93146514892578 134.60092163085938 95.53639221191406 120.0031509399414 93.76653289794922 130.78753662109375" stroke-width="3.0" fill="none" stroke="rgb(0, 0, 0)" stroke-opacity="1.0" stroke-linecap="round" stroke-linejoin="round"/>
    <path d="M 91.4617919921875 87.9443130493164 C 96.4188461303711 94.02212524414062 91.19877624511719 87.23402404785156 93.64729309082031 89.0237045288086" stroke-width="3.0" fill="none" stroke="rgb(0, 0, 0)" stroke-opacity="1.0" stroke-linecap="round" stroke-linejoin="round"/>
    <path d="M 9.68228816986084 109.7141342163086 C 21.08919334411621 122.67822265625 -1.300147294998169 99.01519775390625 18.882980346679688 125.49014282226562" stroke-width="3.0" fill="none" stroke="rgb(0, 0, 0)" stroke-opacity="1.0" stroke-linecap="round" stroke-linejoin="round"/>
    <path d="M 63.282814025878906 184.22848510742188 C 91.40912628173828 154.9478302001953 77.61457824707031 150.86376953125 52.28018569946289 181.0903778076172" stroke-width="3.0" fill="none" stroke="rgb(0, 0, 0)" stroke-opacity="1.0" stroke-linecap="round" stroke-linejoin="round"/>
    <path d="M 127.2471923828125 56.41197204589844 C 102.82626342773438 59.74726104736328 158.77574157714844 55.86620330810547 149.18092346191406 71.39895629882812" stroke-width="3.0" fill="none" stroke="rgb(0, 0, 0)" stroke-opacity="1.0" stroke-linecap="round" stroke-linejoin="round"/>
    <path d="M 2.5302212238311768 62.93775939941406 C 19.290550231933594 58.139095306396484 34.74457550048828 49.56951141357422 70.17444610595703 57.15874481201172" stroke-width="3.0" fill="none" stroke="rgb(0, 0, 0)" stroke-opacity="1.0" stroke-linecap="round" stroke-linejoin="round"/>
    <path d="M 31.51655387878418 59.70686721801758 C 78.8364028930664 53.044044494628906 81.49500274658203 54.93100357055664 107.42431640625 52.99394607543945" stroke-width="3.0" fill="none" stroke="rgb(0, 0, 0)" stroke-opacity="1.0" stroke-linecap="round" stroke-linejoin="round"/>
    <path d="M 38.99925994873047 169.6830596923828 C 32.19150924682617 155.08755493164062 16.910072326660156 126.18355560302734 38.92774963378906 169.97958374023438" stroke-width="3.0" fill="none" stroke="rgb(0, 0, 0)" stroke-opacity="1.0" stroke-linecap="round" stroke-linejoin="round"/>
    <path d="M 110.06092834472656 176.56333923339844 C 138.51443481445312 129.11273193359375 123.88212585449219 121.15420532226562 121.36247253417969 160.4069061279297" stroke-width="3.0" fill="none" stroke="rgb(0, 0, 0)" stroke-opacity="1.0" stroke-linecap="round" stroke-linejoin="round"/>
    <path d="M 47.34782791137695 172.70262145996094 C 60.16091537475586 165.54466247558594 51.63823318481445 153.1044921875 46.95279312133789 151.5089874267578" stroke-width="3.0" fill="none" stroke="rgb(0, 0, 0)" stroke-opacity="1.0" stroke-linecap="round" stroke-linejoin="round"/>
    <path d="M 124.95671081542969 157.6166534423828 C 94.99063110351562 183.5391845703125 99.54808044433594 204.58982849121094 127.40737915039062 160.82618713378906" stroke-width="3.0" fill="none" stroke="rgb(0, 0, 0)" stroke-opacity="1.0" stroke-linecap="round" stroke-linejoin="round"/>
    <path d="M 89.30610656738281 140.9025421142578 C 115.25106811523438 110.57229614257812 88.07542419433594 128.84385681152344 95.85650634765625 134.82083129882812" stroke-width="3.0" fill="none" stroke="rgb(0, 0, 0)" stroke-opacity="1.0" stroke-linecap="round" stroke-linejoin="round"/>
    <path d="M 128.425048828125 83.13788604736328 C 122.96083068847656 94.12104797363281 125.61177825927734 97.16268157958984 131.54600524902344 76.54798126220703" stroke-width="3.0" fill="none" stroke="rgb(0, 0, 0)" stroke-opacity="1.0" stroke-linecap="round" stroke-linejoin="round"/>
    <path d="M 25.35392951965332 141.63780212402344 C 66.5408935546875 134.52783203125 15.160592079162598 101.0072021484375 23.166513442993164 138.8880157470703" stroke-width="3.0" fill="none" stroke="rgb(0, 0, 0)" stroke-opacity="1.0" stroke-linecap="round" stroke-linejoin="round"/>
    <path d="M 128.9440460205078 56.107391357421875 C 128.81689453125 47.979713439941406 183.39561462402344 58.25984573364258 188.99713134765625 75.88941192626953" stroke-width="3.0" fill="none" stroke="rgb(0, 0, 0)" stroke-opacity="1.0" stroke-linecap="round" stroke-linejoin="round"/>
    <path d="M 130.17221069335938 99.76331329345703 C 126.96100616455078 112.9638442993164 127.33222198486328 105.18455505371094 132.48452758789062 102.4324951171875" stroke-width="3.0" fill="none" stroke="rgb(0, 0, 0)" stroke-opacity="1.0" stroke-linecap="round" stroke-linejoin="round"/>
    <path d="M 101.97028350830078 54.339210510253906 C 135.79608154296875 59.861202239990234 131.75747680664062 51.00265884399414 87.92117309570312 55.707279205322266" stroke-width="3.0" fill="none" stroke="rgb(0, 0, 0)" stroke-opacity="1.0" stroke-linecap="round" stroke-linejoin="round"/>
    <path d="M 55.25074005126953 200.29554748535156 C 44.704097747802734 168.38148498535156 33.71763229370117 167.2342987060547 33.80028533935547 150.10914611816406" stroke-width="3.0" fill="none" stroke="rgb(0, 0, 0)" stroke-opacity="1.0" stroke-linecap="round" stroke-linejoin="round"/>
    <path d="M 127.09339904785156 162.31536865234375 C 176.02658081054688 84.28511047363281 173.13766479492188 115.09890747070312 178.84396362304688 82.50204467773438" stroke-width="3.0" fill="none" stroke="rgb(0, 0, 0)" stroke-opacity="1.0" stroke-linecap="round" stroke-linejoin="round"/>
    <path d="M 151.17498779296875 64.88654327392578 C 208.25723266601562 80.55915832519531 179.2611083984375 69.719482421875 150.56338500976562 124.2829818725586" stroke-width="3.0" fill="none" stroke="rgb(0, 0, 0)" stroke-opacity="1.0" stroke-linecap="round" stroke-linejoin="round"/>
    <path d="M 15.84896183013916 85.55430603027344 C 23.531347274780273 91.14818572998047 20.429380416870117 84.16719055175781 14.677694320678711 84.94055938720703" stroke-width="3.0" fill="none" stroke="rgb(0, 0, 0)" stroke-opacity="1.0" stroke-linecap="round" stroke-linejoin="round"/>
    <path d="M 52.79584503173828 133.1346893310547 C 63.5929069519043 138.17713928222656 55.38180160522461 140.43453979492188 59.056175231933594 136.77310180664062" stroke-width="3.0" fill="none" stroke="rgb(0, 0, 0)" stroke-opacity="1.0" stroke-linecap="round" stroke-linejoin="round"/>
  </g>
</svg>
