<?xml version="1.0" ?>
<svg xmlns="http://www.w3.org/2000/svg" version="1.1" width="224" height="224">
  <defs/>
  <g>
    <path d="M 127.40847778320312 120.54688262939453 C 149.88514709472656 106.13705444335938 131.53207397460938 82.60220336914062 154.94204711914062 68.901611328125" stroke-width="3.0" fill="none" stroke="rgb(0, 0, 0)" stroke-opacity="1.0" stroke-linecap="round" stroke-linejoin="round"/>
    <path d="M 27.226699829101562 143.70700073242188 C 2.8358771800994873 124.5018081665039 26.127788543701172 119.2431640625 21.17831802368164 134.8426055908203" stroke-width="3.0" fill="none" stroke="rgb(0, 0, 0)" stroke-opacity="1.0" stroke-linecap="round" stroke-linejoin="round"/>
    <path d="M 124.79012298583984 91.74044799804688 C 71.5671615600586 71.00621032714844 90.30535888671875 160.09962463378906 115.2211685180664 106.84227752685547" stroke-width="3.0" fill="none" stroke="rgb(0, 0, 0)" stroke-opacity="1.0" stroke-linecap="round" stroke-linejoin="round"/>
    <path d="M 46.09220504760742 79.35001373291016 C 109.71711730957031 47.711570739746094 74.7541275024414 172.10916137695312 44.51011276245117 112.8423080444336" stroke-width="3.0" fill="none" stroke="rgb(0, 0, 0)" stroke-opacity="1.0" stroke-linecap="round" stroke-linejoin="round"/>
    <path d="M 154.39540100097656 60.31714630126953 C 198.6277618408203 84.61531066894531 132.38034057617188 118.5281753540039 155.31980895996094 101.62347412109375" stroke-width="3.0" fill="none" stroke="rgb(0, 0, 0)" stroke-opacity="1.0" stroke-linecap="round" stroke-linejoin="round"/>
    <path d="M 119.27420806884766 104.86815643310547 C 103.76947021484375 109.17218017578125 111.21961975097656 126.46141052246094 143.66165161132812 71.25782775878906" stroke-width="3.0" fill="none" stroke="rgb(0, 0, 0)" stroke-opacity="1.0" stroke-linecap="round" stroke-linejoin="round"/>
    <path d="M 13.696775436401367 92.86076354980469 C 5.329452991485596 82.20503234863281 19.452796936035156 93.48589324951172 6.28894567489624 108.01612854003906" stroke-width="3.0" fill="none" stroke="rgb(0, 0, 0)" stroke-opacity="1.0" stroke-linecap="round" stroke-linejoin="round"/>
    <path d="M 76.33899688720703 163.4049072265625 C 77.97494506835938 143.97845458984375 88.22866821289062 157.2694549560547 82.37683868408203 142.9127197265625" stroke-width="3.0" fill="none" stroke="rgb(0, 0, 0)" stroke-opacity="1.0" stroke-linecap="round" stroke-linejoin="round"/>
    <path d="M 56.35590744018555 161.1769561767578 C 74.63274383544922 157.06785583496094 84.76165771484375 167.82601928710938 55.0804328918457 200.28993225097656" stroke-width="3.0" fill="none" stroke="rgb(0, 0, 0)" stroke-opacity="1.0" stroke-linecap="round" stroke-linejoin="round"/>
    <path d="M 46.03945541381836 113.84032440185547 C 72.48909759521484 42.377403259277344 -24.530559539794922 98.40637969970703 44.513736724853516 115.24272918701172" stroke-width="3.0" fill="none" stroke="rgb(0, 0, 0)" stroke-opacity="1.0" stroke-linecap="round" stroke-linejoin="round"/>
    <path d="M 82.7777099609375 133.26719665527344 C 95.06082153320312 125.61959075927734 85.56888580322266 117.97319793701172 91.80130767822266 126.84918212890625" stroke-width="3.0" fill="none" stroke="rgb(0, 0, 0)" stroke-opacity="1.0" stroke-linecap="round" stroke-linejoin="round"/>
    <path d="M 86.03377532958984 84.25817108154297 C 85.50627136230469 91.4845962524414 100.75196838378906 91.56655883789062 86.96604919433594 85.71748352050781" stroke-width="3.0" fill="none" stroke="rgb(0, 0, 0)" stroke-opacity="1.0" stroke-linecap="round" stroke-linejoin="round"/>
    <path d="M 13.336967468261719 109.86402893066406 C 20.72055435180664 129.51771545410156 -11.800219535827637 73.53221893310547 25.631935119628906 148.88636779785156" stroke-width="3.0" fill="none" stroke="rgb(0, 0, 0)" stroke-opacity="1.0" stroke-linecap="round" stroke-linejoin="round"/>
    <path d="M 61.371063232421875 185.66001892089844 C 105.08010864257812 147.76260375976562 51.665122985839844 151.7749481201172 56.6594352722168 180.03292846679688" stroke-width="3.0" fill="none" stroke="rgb(0, 0, 0)" stroke-opacity="1.0" stroke-linecap="round" stroke-linejoin="round"/>
    <path d="M 142.5342254638672 71.06948852539062 C 142.59988403320312 90.93994903564453 157.4502410888672 42.721702575683594 152.55076599121094 63.12837600708008" stroke-width="3.0" fill="none" stroke="rgb(0, 0, 0)" stroke-opacity="1.0" stroke-linecap="round" stroke-linejoin="round"/>
    <path d="M -4.645051956176758 67.04180908203125 C 11.465459823608398 52.922855377197266 40.20600128173828 45.9964599609375 60.295780181884766 53.83346939086914" stroke-width="3.0" fill="none" stroke="rgb(0, 0, 0)" stroke-opacity="1.0" stroke-linecap="round" stroke-linejoin="round"/>
    <path d="M -4.468873500823975 73.99971008300781 C 37.87995147705078 57.2132682800293 107.90512084960938 62.705257415771484 134.40338134765625 77.2059326171875" stroke-width="3.0" fill="none" stroke="rgb(0, 0, 0)" stroke-opacity="1.0" stroke-linecap="round" stroke-linejoin="round"/>
    <path d="M 41.29541015625 175.2165985107422 C 27.86005210876465 160.06666564941406 17.131860733032227 118.9371337890625 33.70501708984375 165.41275024414062" stroke-width="3.0" fill="none" stroke="rgb(0, 0, 0)" stroke-opacity="1.0" stroke-linecap="round" stroke-linejoin="round"/>
    <path d="M 111.5022201538086 171.76873779296875 C 138.13900756835938 101.06255340576172 123.77818298339844 130.1958770751953 122.0925064086914 139.25865173339844" stroke-width="3.0" fill="none" stroke="rgb(0, 0, 0)" stroke-opacity="1.0" stroke-linecap="round" stroke-linejoin="round"/>
    <path d="M 33.29479217529297 165.89259338378906 C 46.85984802246094 188.34703063964844 76.4449691772461 143.99327087402344 34.76213073730469 149.9448699951172" stroke-width="3.0" fill="none" stroke="rgb(0, 0, 0)" stroke-opacity="1.0" stroke-linecap="round" stroke-linejoin="round"/>
    <path d="M 124.1242446899414 147.1585235595703 C 90.1731185913086 192.3694610595703 108.2574691772461 197.55120849609375 132.4683837890625 152.10035705566406" stroke-width="3.0" fill="none" stroke="rgb(0, 0, 0)" stroke-opacity="1.0" stroke-linecap="round" stroke-linejoin="round"/>
    <path d="M 72.82167053222656 166.58721923828125 C 122.61561584472656 96.12779998779297 97.36231994628906 143.67039489746094 86.43745422363281 116.98457336425781" stroke-width="3.0" fill="none" stroke="rgb(0, 0, 0)" stroke-opacity="1.0" stroke-linecap="round" stroke-linejoin="round"/>
    <path d="M 132.3817596435547 90.29864501953125 C 146.23338317871094 75.5278549194336 130.85169982910156 87.61713409423828 148.96240234375 68.65889739990234" stroke-width="3.0" fill="none" stroke="rgb(0, 0, 0)" stroke-opacity="1.0" stroke-linecap="round" stroke-linejoin="round"/>
    <path d="M 26.274513244628906 144.48902893066406 C 72.71621704101562 126.34420776367188 2.3124377727508545 95.00077819824219 22.042713165283203 133.73703002929688" stroke-width="3.0" fill="none" stroke="rgb(0, 0, 0)" stroke-opacity="1.0" stroke-linecap="round" stroke-linejoin="round"/>
    <path d="M 152.9162139892578 61.98435592651367 C 145.20474243164062 43.11072540283203 206.50201416015625 79.05329895019531 187.12232971191406 83.40357971191406" stroke-width="3.0" fill="none" stroke="rgb(0, 0, 0)" stroke-opacity="1.0" stroke-linecap="round" stroke-linejoin="round"/>
    <path d="M 146.8765106201172 78.84864044189453 C 129.55699157714844 114.48502349853516 137.18466186523438 91.41436767578125 138.14688110351562 96.81523895263672" stroke-width="3.0" fill="none" stroke="rgb(0, 0, 0)" stroke-opacity="1.0" stroke-linecap="round" stroke-linejoin="round"/>
    <path d="M 53.721961975097656 52.804752349853516 C 157.21083068847656 50.504920959472656 195.40530395507812 81.36166381835938 68.15343475341797 53.676780700683594" stroke-width="3.0" fill="none" stroke="rgb(0, 0, 0)" stroke-opacity="1.0" stroke-linecap="round" stroke-linejoin="round"/>
    <path d="M 56.10417556762695 196.66172790527344 C 40.991546630859375 170.51292419433594 33.28888702392578 170.84829711914062 33.26913833618164 148.35499572753906" stroke-width="3.0" fill="none" stroke="rgb(0, 0, 0)" stroke-opacity="1.0" stroke-linecap="round" stroke-linejoin="round"/>
    <path d="M 122.97710418701172 163.1304473876953 C 189.71177673339844 88.92122650146484 162.6896209716797 97.03047180175781 175.37857055664062 93.82720947265625" stroke-width="3.0" fill="none" stroke="rgb(0, 0, 0)" stroke-opacity="1.0" stroke-linecap="round" stroke-linejoin="round"/>
    <path d="M 155.14962768554688 54.58063888549805 C 211.21005249023438 94.86246490478516 179.48434448242188 74.52297973632812 136.52391052246094 144.40286254882812" stroke-width="3.0" fill="none" stroke="rgb(0, 0, 0)" stroke-opacity="1.0" stroke-linecap="round" stroke-linejoin="round"/>
    <path d="M 37.09912109375 69.8255615234375 C -18.012819290161133 87.47330474853516 -21.100351333618164 74.98414611816406 17.70584487915039 66.3924560546875" stroke-width="3.0" fill="none" stroke="rgb(0, 0, 0)" stroke-opacity="1.0" stroke-linecap="round" stroke-linejoin="round"/>
    <path d="M 69.64915466308594 149.33135986328125 C 74.78169250488281 135.51705932617188 61.9292106628418 140.08834838867188 72.90045928955078 129.17674255371094" stroke-width="3.0" fill="none" stroke="rgb(0, 0, 0)" stroke-opacity="1.0" stroke-linecap="round" stroke-linejoin="round"/>
  </g>
</svg>
