<?xml version="1.0" ?>
<svg xmlns="http://www.w3.org/2000/svg" version="1.1" width="224" height="224">
  <defs/>
  <g>
    <path d="M 135.2429656982422 127.72769165039062 C 167.68887329101562 107.73206329345703 130.38507080078125 96.27145385742188 155.72023010253906 77.84966278076172" stroke-width="3.0" fill="none" stroke="rgb(0, 0, 0)" stroke-opacity="1.0" stroke-linecap="round" stroke-linejoin="round"/>
    <path d="M 26.087657928466797 137.7777557373047 C 3.290334463119507 117.11487579345703 26.162982940673828 112.69473266601562 20.242141723632812 132.17845153808594" stroke-width="3.0" fill="none" stroke="rgb(0, 0, 0)" stroke-opacity="1.0" stroke-linecap="round" stroke-linejoin="round"/>
    <path d="M 119.8681869506836 97.49755096435547 C 59.997554779052734 83.55888366699219 90.58761596679688 167.4314422607422 113.63896942138672 113.0339126586914" stroke-width="3.0" fill="none" stroke="rgb(0, 0, 0)" stroke-opacity="1.0" stroke-linecap="round" stroke-linejoin="round"/>
    <path d="M 43.789676666259766 79.322509765625 C 115.46076965332031 47.29366683959961 73.68193054199219 170.03904724121094 45.80802917480469 111.4809341430664" stroke-width="3.0" fill="none" stroke="rgb(0, 0, 0)" stroke-opacity="1.0" stroke-linecap="round" stroke-linejoin="round"/>
    <path d="M 152.71324157714844 61.01606750488281 C 203.49929809570312 83.37706756591797 150.18399047851562 129.43939208984375 156.79368591308594 103.29786682128906" stroke-width="3.0" fill="none" stroke="rgb(0, 0, 0)" stroke-opacity="1.0" stroke-linecap="round" stroke-linejoin="round"/>
    <path d="M 119.40999603271484 106.12501525878906 C 107.23841857910156 104.95509338378906 108.1621322631836 125.8953857421875 137.40280151367188 79.83634185791016" stroke-width="3.0" fill="none" stroke="rgb(0, 0, 0)" stroke-opacity="1.0" stroke-linecap="round" stroke-linejoin="round"/>
    <path d="M 7.393561363220215 90.86036682128906 C 3.0055837631225586 87.82088470458984 20.82811737060547 97.97390747070312 6.326244354248047 109.00654602050781" stroke-width="3.0" fill="none" stroke="rgb(0, 0, 0)" stroke-opacity="1.0" stroke-linecap="round" stroke-linejoin="round"/>
    <path d="M 78.42051696777344 165.52755737304688 C 69.32447052001953 146.6163787841797 74.99659729003906 161.93856811523438 85.99386596679688 145.31700134277344" stroke-width="3.0" fill="none" stroke="rgb(0, 0, 0)" stroke-opacity="1.0" stroke-linecap="round" stroke-linejoin="round"/>
    <path d="M 55.99392318725586 158.84268188476562 C 70.4872055053711 149.65652465820312 80.48980712890625 166.00750732421875 54.69135284423828 198.57260131835938" stroke-width="3.0" fill="none" stroke="rgb(0, 0, 0)" stroke-opacity="1.0" stroke-linecap="round" stroke-linejoin="round"/>
    <path d="M 48.39043045043945 112.09862518310547 C 72.3681640625 44.24997329711914 -30.51491355895996 97.01025390625 48.08928298950195 113.68500518798828" stroke-width="3.0" fill="none" stroke="rgb(0, 0, 0)" stroke-opacity="1.0" stroke-linecap="round" stroke-linejoin="round"/>
    <path d="M 87.32600402832031 138.2338409423828 C 112.71467590332031 135.06895446777344 85.34904479980469 121.78582000732422 87.24535369873047 123.31855010986328" stroke-width="3.0" fill="none" stroke="rgb(0, 0, 0)" stroke-opacity="1.0" stroke-linecap="round" stroke-linejoin="round"/>
    <path d="M 90.23165893554688 81.29457092285156 C 90.85144805908203 88.27013397216797 97.6475830078125 90.42522430419922 91.7206802368164 83.79954528808594" stroke-width="3.0" fill="none" stroke="rgb(0, 0, 0)" stroke-opacity="1.0" stroke-linecap="round" stroke-linejoin="round"/>
    <path d="M 8.182527542114258 107.65894317626953 C 21.396652221679688 129.2635498046875 -15.279205322265625 83.87110900878906 24.0690975189209 145.07662963867188" stroke-width="3.0" fill="none" stroke="rgb(0, 0, 0)" stroke-opacity="1.0" stroke-linecap="round" stroke-linejoin="round"/>
    <path d="M 61.90376663208008 176.9286346435547 C 102.29531860351562 152.00523376464844 55.865726470947266 154.4093475341797 55.70890426635742 174.33631896972656" stroke-width="3.0" fill="none" stroke="rgb(0, 0, 0)" stroke-opacity="1.0" stroke-linecap="round" stroke-linejoin="round"/>
    <path d="M 141.29623413085938 64.331298828125 C 154.51380920410156 74.38530731201172 161.31436157226562 40.91592025756836 153.4425506591797 63.3454475402832" stroke-width="3.0" fill="none" stroke="rgb(0, 0, 0)" stroke-opacity="1.0" stroke-linecap="round" stroke-linejoin="round"/>
    <path d="M -5.180549621582031 66.3060073852539 C 18.82392692565918 55.784847259521484 38.085411071777344 44.041465759277344 66.8659439086914 50.54873275756836" stroke-width="3.0" fill="none" stroke="rgb(0, 0, 0)" stroke-opacity="1.0" stroke-linecap="round" stroke-linejoin="round"/>
    <path d="M -4.1164422035217285 75.48139953613281 C 51.52185821533203 57.60662078857422 100.59759521484375 58.82823944091797 136.02113342285156 77.05966186523438" stroke-width="3.0" fill="none" stroke="rgb(0, 0, 0)" stroke-opacity="1.0" stroke-linecap="round" stroke-linejoin="round"/>
    <path d="M 44.57683181762695 170.96734619140625 C 29.511192321777344 156.79261779785156 15.054494857788086 121.3209228515625 35.21045684814453 164.2141876220703" stroke-width="3.0" fill="none" stroke="rgb(0, 0, 0)" stroke-opacity="1.0" stroke-linecap="round" stroke-linejoin="round"/>
    <path d="M 114.81145477294922 171.8280487060547 C 124.56761932373047 106.4371109008789 100.76719665527344 130.8991241455078 124.53656005859375 125.79588317871094" stroke-width="3.0" fill="none" stroke="rgb(0, 0, 0)" stroke-opacity="1.0" stroke-linecap="round" stroke-linejoin="round"/>
    <path d="M 37.12971115112305 164.96803283691406 C 48.001426696777344 186.56988525390625 74.46077728271484 145.26686096191406 35.798912048339844 149.6414337158203" stroke-width="3.0" fill="none" stroke="rgb(0, 0, 0)" stroke-opacity="1.0" stroke-linecap="round" stroke-linejoin="round"/>
    <path d="M 124.73836517333984 145.6172637939453 C 95.48827362060547 192.44447326660156 107.88092041015625 197.06080627441406 131.2715301513672 150.83555603027344" stroke-width="3.0" fill="none" stroke="rgb(0, 0, 0)" stroke-opacity="1.0" stroke-linecap="round" stroke-linejoin="round"/>
    <path d="M 75.20783233642578 167.73536682128906 C 121.25677490234375 103.34364318847656 101.81648254394531 137.75779724121094 91.26716613769531 114.89555358886719" stroke-width="3.0" fill="none" stroke="rgb(0, 0, 0)" stroke-opacity="1.0" stroke-linecap="round" stroke-linejoin="round"/>
    <path d="M 133.1960906982422 89.04739379882812 C 141.99948120117188 73.37999725341797 137.49234008789062 94.72026824951172 149.71397399902344 64.36868286132812" stroke-width="3.0" fill="none" stroke="rgb(0, 0, 0)" stroke-opacity="1.0" stroke-linecap="round" stroke-linejoin="round"/>
    <path d="M 25.118003845214844 141.8730926513672 C 74.07164764404297 129.66993713378906 -0.7410829067230225 90.37117004394531 22.36728858947754 135.42205810546875" stroke-width="3.0" fill="none" stroke="rgb(0, 0, 0)" stroke-opacity="1.0" stroke-linecap="round" stroke-linejoin="round"/>
    <path d="M 149.65512084960938 66.94551086425781 C 150.01783752441406 42.723121643066406 203.66741943359375 78.11698913574219 185.97311401367188 80.70755004882812" stroke-width="3.0" fill="none" stroke="rgb(0, 0, 0)" stroke-opacity="1.0" stroke-linecap="round" stroke-linejoin="round"/>
    <path d="M 148.4784698486328 90.46481323242188 C 134.1090850830078 123.61890411376953 134.5908203125 103.12760162353516 140.86236572265625 103.47843933105469" stroke-width="3.0" fill="none" stroke="rgb(0, 0, 0)" stroke-opacity="1.0" stroke-linecap="round" stroke-linejoin="round"/>
    <path d="M 55.94548034667969 50.323177337646484 C 158.96026611328125 47.608489990234375 187.26028442382812 73.92717742919922 71.92769622802734 50.508052825927734" stroke-width="3.0" fill="none" stroke="rgb(0, 0, 0)" stroke-opacity="1.0" stroke-linecap="round" stroke-linejoin="round"/>
    <path d="M 53.77619934082031 195.01084899902344 C 42.89911651611328 168.6356658935547 32.79574203491211 170.0858917236328 33.88334655761719 151.40884399414062" stroke-width="3.0" fill="none" stroke="rgb(0, 0, 0)" stroke-opacity="1.0" stroke-linecap="round" stroke-linejoin="round"/>
    <path d="M 119.73603820800781 166.66590881347656 C 186.2334747314453 91.6085433959961 161.66653442382812 106.19705963134766 177.29148864746094 92.49248504638672" stroke-width="3.0" fill="none" stroke="rgb(0, 0, 0)" stroke-opacity="1.0" stroke-linecap="round" stroke-linejoin="round"/>
    <path d="M 156.6858673095703 54.66533660888672 C 210.8118133544922 93.16626739501953 181.6226348876953 67.29102325439453 137.98460388183594 144.3798828125" stroke-width="3.0" fill="none" stroke="rgb(0, 0, 0)" stroke-opacity="1.0" stroke-linecap="round" stroke-linejoin="round"/>
    <path d="M 26.60370445251465 73.30451202392578 C -2.9719576835632324 88.18582153320312 -6.872338771820068 72.39236450195312 16.883464813232422 69.47834777832031" stroke-width="3.0" fill="none" stroke="rgb(0, 0, 0)" stroke-opacity="1.0" stroke-linecap="round" stroke-linejoin="round"/>
    <path d="M 70.57858276367188 146.7726287841797 C 78.84217834472656 134.1170654296875 64.75924682617188 143.0523223876953 71.86665344238281 126.42184448242188" stroke-width="3.0" fill="none" stroke="rgb(0, 0, 0)" stroke-opacity="1.0" stroke-linecap="round" stroke-linejoin="round"/>
  </g>
</svg>
