<?xml version="1.0" ?>
<svg xmlns="http://www.w3.org/2000/svg" version="1.1" width="224" height="224">
  <defs/>
  <g>
    <path d="M 159.82571411132812 112.10356903076172 C 170.87826538085938 88.65105438232422 142.31625366210938 96.82398986816406 141.09860229492188 94.11943817138672" stroke-width="3.0" fill="none" stroke="rgb(0, 0, 0)" stroke-opacity="1.0" stroke-linecap="round" stroke-linejoin="round"/>
    <path d="M 20.282163619995117 131.27499389648438 C 24.54079818725586 115.19052124023438 39.77824020385742 131.05908203125 22.203083038330078 133.15768432617188" stroke-width="3.0" fill="none" stroke="rgb(0, 0, 0)" stroke-opacity="1.0" stroke-linecap="round" stroke-linejoin="round"/>
    <path d="M 113.86143493652344 106.74105072021484 C 70.9474105834961 88.27484893798828 85.51786804199219 137.6608428955078 105.47467041015625 125.9153060913086" stroke-width="3.0" fill="none" stroke="rgb(0, 0, 0)" stroke-opacity="1.0" stroke-linecap="round" stroke-linejoin="round"/>
    <path d="M 61.49797439575195 92.08966064453125 C 95.91587829589844 82.95277404785156 81.16732025146484 123.83451843261719 53.468292236328125 89.82974243164062" stroke-width="3.0" fill="none" stroke="rgb(0, 0, 0)" stroke-opacity="1.0" stroke-linecap="round" stroke-linejoin="round"/>
    <path d="M 155.4827880859375 83.28477478027344 C 162.37661743164062 87.85858154296875 155.28184509277344 88.08494567871094 163.98468017578125 88.87490844726562" stroke-width="3.0" fill="none" stroke="rgb(0, 0, 0)" stroke-opacity="1.0" stroke-linecap="round" stroke-linejoin="round"/>
    <path d="M 107.269775390625 115.20280456542969 C 111.29356384277344 125.09983825683594 100.56169128417969 118.92277526855469 107.57896423339844 111.17185974121094" stroke-width="3.0" fill="none" stroke="rgb(0, 0, 0)" stroke-opacity="1.0" stroke-linecap="round" stroke-linejoin="round"/>
    <path d="M 6.666501045227051 84.7510757446289 C 6.118226051330566 83.51162719726562 12.429534912109375 96.25682067871094 5.670408725738525 102.30927276611328" stroke-width="3.0" fill="none" stroke="rgb(0, 0, 0)" stroke-opacity="1.0" stroke-linecap="round" stroke-linejoin="round"/>
    <path d="M 83.51411437988281 153.89332580566406 C 71.90017700195312 148.4583282470703 81.66492462158203 159.30999755859375 80.93919372558594 152.03712463378906" stroke-width="3.0" fill="none" stroke="rgb(0, 0, 0)" stroke-opacity="1.0" stroke-linecap="round" stroke-linejoin="round"/>
    <path d="M 65.85076904296875 160.41946411132812 C 77.83440399169922 153.5941619873047 80.73103332519531 164.9058380126953 54.022605895996094 198.30343627929688" stroke-width="3.0" fill="none" stroke="rgb(0, 0, 0)" stroke-opacity="1.0" stroke-linecap="round" stroke-linejoin="round"/>
    <path d="M 39.042213439941406 91.5000991821289 C 51.33249282836914 86.38630676269531 21.922901153564453 87.47650146484375 41.43440628051758 92.86546325683594" stroke-width="3.0" fill="none" stroke="rgb(0, 0, 0)" stroke-opacity="1.0" stroke-linecap="round" stroke-linejoin="round"/>
    <path d="M 99.98292541503906 132.12417602539062 C 103.01510620117188 135.86073303222656 99.94994354248047 118.79400634765625 93.89717864990234 128.25335693359375" stroke-width="3.0" fill="none" stroke="rgb(0, 0, 0)" stroke-opacity="1.0" stroke-linecap="round" stroke-linejoin="round"/>
    <path d="M 98.0731430053711 88.75506591796875 C 91.13030242919922 95.40654754638672 90.33905792236328 88.4853744506836 99.02108764648438 89.0195083618164" stroke-width="3.0" fill="none" stroke="rgb(0, 0, 0)" stroke-opacity="1.0" stroke-linecap="round" stroke-linejoin="round"/>
    <path d="M 8.362683296203613 106.55757141113281 C 22.23917007446289 121.51026916503906 4.529938697814941 104.6212387084961 18.5412540435791 127.58384704589844" stroke-width="3.0" fill="none" stroke="rgb(0, 0, 0)" stroke-opacity="1.0" stroke-linecap="round" stroke-linejoin="round"/>
    <path d="M 59.95087432861328 179.52574157714844 C 82.84586334228516 156.98666381835938 78.56612396240234 158.5523223876953 56.401100158691406 184.3872833251953" stroke-width="3.0" fill="none" stroke="rgb(0, 0, 0)" stroke-opacity="1.0" stroke-linecap="round" stroke-linejoin="round"/>
    <path d="M 123.45849609375 56.956016540527344 C 94.96923065185547 60.944610595703125 143.6890869140625 57.84557342529297 147.9279327392578 70.69389343261719" stroke-width="3.0" fill="none" stroke="rgb(0, 0, 0)" stroke-opacity="1.0" stroke-linecap="round" stroke-linejoin="round"/>
    <path d="M 1.646746277809143 61.717105865478516 C 17.892879486083984 59.19322967529297 29.409717559814453 53.68970489501953 59.17982482910156 56.394569396972656" stroke-width="3.0" fill="none" stroke="rgb(0, 0, 0)" stroke-opacity="1.0" stroke-linecap="round" stroke-linejoin="round"/>
    <path d="M 37.41132736206055 57.3962287902832 C 76.54793548583984 55.09934997558594 80.10242462158203 57.250057220458984 105.14258575439453 56.30967712402344" stroke-width="3.0" fill="none" stroke="rgb(0, 0, 0)" stroke-opacity="1.0" stroke-linecap="round" stroke-linejoin="round"/>
    <path d="M 42.18777084350586 167.23143005371094 C 39.77444076538086 149.73231506347656 17.296009063720703 127.90873718261719 42.51023483276367 170.52919006347656" stroke-width="3.0" fill="none" stroke="rgb(0, 0, 0)" stroke-opacity="1.0" stroke-linecap="round" stroke-linejoin="round"/>
    <path d="M 118.33074951171875 169.53662109375 C 146.03273010253906 138.49166870117188 132.08949279785156 130.14163208007812 123.34700012207031 160.1476593017578" stroke-width="3.0" fill="none" stroke="rgb(0, 0, 0)" stroke-opacity="1.0" stroke-linecap="round" stroke-linejoin="round"/>
    <path d="M 48.739463806152344 170.0743408203125 C 68.20541381835938 166.2427215576172 59.845577239990234 151.40916442871094 42.521888732910156 152.3148651123047" stroke-width="3.0" fill="none" stroke="rgb(0, 0, 0)" stroke-opacity="1.0" stroke-linecap="round" stroke-linejoin="round"/>
    <path d="M 124.33197021484375 159.689453125 C 98.7068099975586 179.8260955810547 103.67761993408203 197.1068572998047 121.7234878540039 161.7199249267578" stroke-width="3.0" fill="none" stroke="rgb(0, 0, 0)" stroke-opacity="1.0" stroke-linecap="round" stroke-linejoin="round"/>
    <path d="M 98.52226257324219 137.26536560058594 C 114.83751678466797 117.260986328125 87.58805847167969 125.86184692382812 96.3255844116211 133.07217407226562" stroke-width="3.0" fill="none" stroke="rgb(0, 0, 0)" stroke-opacity="1.0" stroke-linecap="round" stroke-linejoin="round"/>
    <path d="M 132.65940856933594 92.35944366455078 C 115.90779876708984 96.72697448730469 123.79905700683594 100.883056640625 131.94248962402344 86.24354553222656" stroke-width="3.0" fill="none" stroke="rgb(0, 0, 0)" stroke-opacity="1.0" stroke-linecap="round" stroke-linejoin="round"/>
    <path d="M 27.171756744384766 142.5865478515625 C 50.98575973510742 136.06454467773438 22.22278594970703 109.05490112304688 23.620445251464844 137.34095764160156" stroke-width="3.0" fill="none" stroke="rgb(0, 0, 0)" stroke-opacity="1.0" stroke-linecap="round" stroke-linejoin="round"/>
    <path d="M 131.85098266601562 57.846458435058594 C 134.450439453125 53.54866027832031 170.75624084472656 57.6811637878418 187.87203979492188 79.8303451538086" stroke-width="3.0" fill="none" stroke="rgb(0, 0, 0)" stroke-opacity="1.0" stroke-linecap="round" stroke-linejoin="round"/>
    <path d="M 122.07906341552734 110.81845092773438 C 118.27133178710938 108.67996215820312 120.92945861816406 103.19235229492188 126.45642852783203 108.00931549072266" stroke-width="3.0" fill="none" stroke="rgb(0, 0, 0)" stroke-opacity="1.0" stroke-linecap="round" stroke-linejoin="round"/>
    <path d="M 101.65071105957031 58.35975646972656 C 125.80572509765625 62.52744674682617 122.582763671875 54.805267333984375 93.40538024902344 58.5643424987793" stroke-width="3.0" fill="none" stroke="rgb(0, 0, 0)" stroke-opacity="1.0" stroke-linecap="round" stroke-linejoin="round"/>
    <path d="M 54.71787643432617 198.6422882080078 C 44.189353942871094 168.6151885986328 31.49112892150879 167.41734313964844 38.95210266113281 153.9807586669922" stroke-width="3.0" fill="none" stroke="rgb(0, 0, 0)" stroke-opacity="1.0" stroke-linecap="round" stroke-linejoin="round"/>
    <path d="M 126.77883911132812 155.25555419921875 C 179.25633239746094 92.64891815185547 176.5341796875 110.94556427001953 174.55738830566406 79.7237777709961" stroke-width="3.0" fill="none" stroke="rgb(0, 0, 0)" stroke-opacity="1.0" stroke-linecap="round" stroke-linejoin="round"/>
    <path d="M 149.3472900390625 69.73064422607422 C 204.83786010742188 84.44835662841797 179.1878662109375 76.66423034667969 153.42544555664062 125.65229034423828" stroke-width="3.0" fill="none" stroke="rgb(0, 0, 0)" stroke-opacity="1.0" stroke-linecap="round" stroke-linejoin="round"/>
    <path d="M 17.658000946044922 86.98834991455078 C 15.829970359802246 90.21866607666016 9.764711380004883 91.42472076416016 15.90325927734375 87.51837158203125" stroke-width="3.0" fill="none" stroke="rgb(0, 0, 0)" stroke-opacity="1.0" stroke-linecap="round" stroke-linejoin="round"/>
    <path d="M 52.39190673828125 137.0453338623047 C 52.66408157348633 134.563720703125 48.57389450073242 137.57394409179688 49.568641662597656 136.8431396484375" stroke-width="3.0" fill="none" stroke="rgb(0, 0, 0)" stroke-opacity="1.0" stroke-linecap="round" stroke-linejoin="round"/>
  </g>
</svg>
