<?xml version="1.0" ?>
<svg xmlns="http://www.w3.org/2000/svg" version="1.1" width="224" height="224">
  <defs/>
  <g>
    <path d="M 141.7327880859375 123.64361572265625 C 155.69015502929688 96.54476928710938 126.61392211914062 90.89403533935547 145.1302490234375 87.80732727050781" stroke-width="3.0" fill="none" stroke="rgb(0, 0, 0)" stroke-opacity="1.0" stroke-linecap="round" stroke-linejoin="round"/>
    <path d="M 23.196989059448242 137.2355194091797 C 14.160045623779297 112.92668914794922 34.79518127441406 124.80313110351562 21.70570945739746 133.97621154785156" stroke-width="3.0" fill="none" stroke="rgb(0, 0, 0)" stroke-opacity="1.0" stroke-linecap="round" stroke-linejoin="round"/>
    <path d="M 113.87313842773438 105.35128784179688 C 69.76119995117188 89.8765640258789 89.59298706054688 147.97390747070312 110.8798828125 116.83029174804688" stroke-width="3.0" fill="none" stroke="rgb(0, 0, 0)" stroke-opacity="1.0" stroke-linecap="round" stroke-linejoin="round"/>
    <path d="M 53.68480682373047 93.65557098388672 C 90.62435913085938 80.60698699951172 82.3384017944336 143.02780151367188 51.55478286743164 100.1058120727539" stroke-width="3.0" fill="none" stroke="rgb(0, 0, 0)" stroke-opacity="1.0" stroke-linecap="round" stroke-linejoin="round"/>
    <path d="M 149.590576171875 68.69482421875 C 188.75289916992188 84.13948059082031 166.58837890625 92.61892700195312 165.2820587158203 102.22081756591797" stroke-width="3.0" fill="none" stroke="rgb(0, 0, 0)" stroke-opacity="1.0" stroke-linecap="round" stroke-linejoin="round"/>
    <path d="M 116.34044647216797 115.05432891845703 C 111.38524627685547 119.925537109375 104.63946533203125 117.56344604492188 126.14044189453125 99.46582794189453" stroke-width="3.0" fill="none" stroke="rgb(0, 0, 0)" stroke-opacity="1.0" stroke-linecap="round" stroke-linejoin="round"/>
    <path d="M 9.321054458618164 79.85293579101562 C 2.6029562950134277 89.65885162353516 17.739906311035156 92.9144287109375 8.436653137207031 109.45142364501953" stroke-width="3.0" fill="none" stroke="rgb(0, 0, 0)" stroke-opacity="1.0" stroke-linecap="round" stroke-linejoin="round"/>
    <path d="M 78.97164154052734 157.13116455078125 C 66.6037368774414 146.16751098632812 81.08309936523438 154.8110809326172 81.95966339111328 151.09112548828125" stroke-width="3.0" fill="none" stroke="rgb(0, 0, 0)" stroke-opacity="1.0" stroke-linecap="round" stroke-linejoin="round"/>
    <path d="M 58.121986389160156 161.65017700195312 C 73.44480895996094 162.04385375976562 79.11616516113281 163.891845703125 55.273033142089844 200.27024841308594" stroke-width="3.0" fill="none" stroke="rgb(0, 0, 0)" stroke-opacity="1.0" stroke-linecap="round" stroke-linejoin="round"/>
    <path d="M 45.955806732177734 97.35956573486328 C 54.103702545166016 83.66616821289062 6.919328689575195 87.77010345458984 44.92261505126953 92.96395111083984" stroke-width="3.0" fill="none" stroke="rgb(0, 0, 0)" stroke-opacity="1.0" stroke-linecap="round" stroke-linejoin="round"/>
    <path d="M 93.496337890625 134.042236328125 C 102.1690444946289 136.73809814453125 89.18415069580078 121.98751068115234 91.34461212158203 137.48394775390625" stroke-width="3.0" fill="none" stroke="rgb(0, 0, 0)" stroke-opacity="1.0" stroke-linecap="round" stroke-linejoin="round"/>
    <path d="M 91.43049621582031 82.16381072998047 C 89.81526184082031 92.89305114746094 89.82918548583984 88.52240753173828 91.1883316040039 84.31410217285156" stroke-width="3.0" fill="none" stroke="rgb(0, 0, 0)" stroke-opacity="1.0" stroke-linecap="round" stroke-linejoin="round"/>
    <path d="M 12.477448463439941 109.60208892822266 C 20.800731658935547 130.95701599121094 -5.351219654083252 88.06861114501953 20.976072311401367 134.59800720214844" stroke-width="3.0" fill="none" stroke="rgb(0, 0, 0)" stroke-opacity="1.0" stroke-linecap="round" stroke-linejoin="round"/>
    <path d="M 57.817806243896484 182.08096313476562 C 94.55953979492188 157.9165496826172 70.52517700195312 152.41012573242188 40.3039665222168 170.5119171142578" stroke-width="3.0" fill="none" stroke="rgb(0, 0, 0)" stroke-opacity="1.0" stroke-linecap="round" stroke-linejoin="round"/>
    <path d="M 126.31232452392578 51.46876907348633 C 119.76087188720703 47.557472229003906 165.29356384277344 45.37220764160156 141.0778045654297 71.32786560058594" stroke-width="3.0" fill="none" stroke="rgb(0, 0, 0)" stroke-opacity="1.0" stroke-linecap="round" stroke-linejoin="round"/>
    <path d="M 3.20241117477417 62.1263542175293 C 20.298110961914062 58.80232620239258 43.20598220825195 49.32929229736328 72.89058685302734 55.766265869140625" stroke-width="3.0" fill="none" stroke="rgb(0, 0, 0)" stroke-opacity="1.0" stroke-linecap="round" stroke-linejoin="round"/>
    <path d="M 18.94135856628418 62.45307922363281 C 77.73119354248047 52.61381530761719 79.7276840209961 54.36161422729492 104.36373138427734 54.55929183959961" stroke-width="3.0" fill="none" stroke="rgb(0, 0, 0)" stroke-opacity="1.0" stroke-linecap="round" stroke-linejoin="round"/>
    <path d="M 39.41298294067383 170.4163818359375 C 27.812053680419922 158.80149841308594 22.913217544555664 123.65896606445312 36.97267532348633 165.46519470214844" stroke-width="3.0" fill="none" stroke="rgb(0, 0, 0)" stroke-opacity="1.0" stroke-linecap="round" stroke-linejoin="round"/>
    <path d="M 110.87395477294922 176.22412109375 C 145.29656982421875 119.3652572631836 120.1773681640625 125.49903106689453 124.7959213256836 154.78665161132812" stroke-width="3.0" fill="none" stroke="rgb(0, 0, 0)" stroke-opacity="1.0" stroke-linecap="round" stroke-linejoin="round"/>
    <path d="M 36.894657135009766 163.92100524902344 C 55.66704559326172 175.9944610595703 54.62221908569336 147.26248168945312 32.02142333984375 151.5026397705078" stroke-width="3.0" fill="none" stroke="rgb(0, 0, 0)" stroke-opacity="1.0" stroke-linecap="round" stroke-linejoin="round"/>
    <path d="M 129.8894500732422 150.47103881835938 C 92.50406646728516 183.06947326660156 97.74878692626953 199.11563110351562 130.2266387939453 158.41464233398438" stroke-width="3.0" fill="none" stroke="rgb(0, 0, 0)" stroke-opacity="1.0" stroke-linecap="round" stroke-linejoin="round"/>
    <path d="M 84.77698516845703 145.23141479492188 C 121.83070373535156 108.9190902709961 97.29283905029297 133.12872314453125 87.07109832763672 121.2672348022461" stroke-width="3.0" fill="none" stroke="rgb(0, 0, 0)" stroke-opacity="1.0" stroke-linecap="round" stroke-linejoin="round"/>
    <path d="M 140.1194305419922 81.56915283203125 C 124.03500366210938 89.04598236083984 132.51727294921875 104.35906219482422 144.38291931152344 68.30474090576172" stroke-width="3.0" fill="none" stroke="rgb(0, 0, 0)" stroke-opacity="1.0" stroke-linecap="round" stroke-linejoin="round"/>
    <path d="M 26.23915672302246 141.82814025878906 C 63.906654357910156 135.66380310058594 14.462067604064941 97.2512435913086 24.82607078552246 140.8878173828125" stroke-width="3.0" fill="none" stroke="rgb(0, 0, 0)" stroke-opacity="1.0" stroke-linecap="round" stroke-linejoin="round"/>
    <path d="M 125.94770050048828 55.89164733886719 C 121.0101547241211 51.165435791015625 189.55987548828125 64.80133056640625 189.44825744628906 76.57093048095703" stroke-width="3.0" fill="none" stroke="rgb(0, 0, 0)" stroke-opacity="1.0" stroke-linecap="round" stroke-linejoin="round"/>
    <path d="M 134.04931640625 85.47540283203125 C 122.41398620605469 112.98186492919922 121.00212097167969 102.49823760986328 126.12383270263672 99.47119903564453" stroke-width="3.0" fill="none" stroke="rgb(0, 0, 0)" stroke-opacity="1.0" stroke-linecap="round" stroke-linejoin="round"/>
    <path d="M 97.72203063964844 55.01136779785156 C 148.40679931640625 60.898624420166016 135.99839782714844 54.22758483886719 90.20134735107422 55.87854766845703" stroke-width="3.0" fill="none" stroke="rgb(0, 0, 0)" stroke-opacity="1.0" stroke-linecap="round" stroke-linejoin="round"/>
    <path d="M 54.004886627197266 196.63577270507812 C 42.89614486694336 164.58102416992188 32.38264846801758 167.08372497558594 38.476173400878906 151.73878479003906" stroke-width="3.0" fill="none" stroke="rgb(0, 0, 0)" stroke-opacity="1.0" stroke-linecap="round" stroke-linejoin="round"/>
    <path d="M 126.81330871582031 163.79811096191406 C 178.26922607421875 82.68511199951172 179.9180908203125 110.11319732666016 177.58355712890625 86.50064849853516" stroke-width="3.0" fill="none" stroke="rgb(0, 0, 0)" stroke-opacity="1.0" stroke-linecap="round" stroke-linejoin="round"/>
    <path d="M 150.9561767578125 64.49824523925781 C 206.2474365234375 97.50601196289062 185.9449005126953 67.50940704345703 144.9471893310547 132.06715393066406" stroke-width="3.0" fill="none" stroke="rgb(0, 0, 0)" stroke-opacity="1.0" stroke-linecap="round" stroke-linejoin="round"/>
    <path d="M 23.980907440185547 81.5652847290039 C 23.190534591674805 83.2594985961914 24.081193923950195 81.4998779296875 23.084800720214844 81.3196029663086" stroke-width="3.0" fill="none" stroke="rgb(0, 0, 0)" stroke-opacity="1.0" stroke-linecap="round" stroke-linejoin="round"/>
    <path d="M 68.0007553100586 149.29490661621094 C 74.937255859375 130.3778839111328 52.74064636230469 137.05564880371094 52.82646179199219 134.41490173339844" stroke-width="3.0" fill="none" stroke="rgb(0, 0, 0)" stroke-opacity="1.0" stroke-linecap="round" stroke-linejoin="round"/>
  </g>
</svg>
