<?xml version="1.0" ?>
<svg xmlns="http://www.w3.org/2000/svg" version="1.1" width="224" height="224">
  <defs/>
  <g>
    <path d="M 124.05598449707031 138.34352111816406 C 139.86439514160156 91.21895599365234 152.85015869140625 60.27516174316406 156.82168579101562 70.38451385498047" stroke-width="3.0" fill="none" stroke="rgb(0, 0, 0)" stroke-opacity="1.0" stroke-linecap="round" stroke-linejoin="round"/>
    <path d="M 33.36024475097656 139.35635375976562 C 4.711971759796143 120.38514709472656 27.555315017700195 109.53948211669922 24.54530906677246 139.00106811523438" stroke-width="3.0" fill="none" stroke="rgb(0, 0, 0)" stroke-opacity="1.0" stroke-linecap="round" stroke-linejoin="round"/>
    <path d="M 127.70343017578125 89.43303680419922 C 87.80684661865234 29.115415573120117 75.51435089111328 172.27357482910156 111.44464874267578 108.56612396240234" stroke-width="3.0" fill="none" stroke="rgb(0, 0, 0)" stroke-opacity="1.0" stroke-linecap="round" stroke-linejoin="round"/>
    <path d="M 43.324153900146484 76.50021362304688 C 104.85419464111328 32.233673095703125 79.79127502441406 169.20343017578125 44.900291442871094 116.6519775390625" stroke-width="3.0" fill="none" stroke="rgb(0, 0, 0)" stroke-opacity="1.0" stroke-linecap="round" stroke-linejoin="round"/>
    <path d="M 150.4496307373047 71.90657806396484 C 195.0899658203125 75.96143341064453 145.20082092285156 116.7572021484375 166.30120849609375 91.84817504882812" stroke-width="3.0" fill="none" stroke="rgb(0, 0, 0)" stroke-opacity="1.0" stroke-linecap="round" stroke-linejoin="round"/>
    <path d="M 123.98340606689453 94.08577728271484 C 105.19202423095703 113.52012634277344 108.35025787353516 128.18328857421875 151.35678100585938 55.309566497802734" stroke-width="3.0" fill="none" stroke="rgb(0, 0, 0)" stroke-opacity="1.0" stroke-linecap="round" stroke-linejoin="round"/>
    <path d="M 12.503775596618652 91.56993103027344 C 2.113693952560425 71.90103912353516 26.34605598449707 94.89048767089844 6.232900619506836 105.13009643554688" stroke-width="3.0" fill="none" stroke="rgb(0, 0, 0)" stroke-opacity="1.0" stroke-linecap="round" stroke-linejoin="round"/>
    <path d="M 87.83447265625 148.23097229003906 C 65.40996551513672 139.49795532226562 88.81526947021484 133.3253173828125 71.43231964111328 122.90840911865234" stroke-width="3.0" fill="none" stroke="rgb(0, 0, 0)" stroke-opacity="1.0" stroke-linecap="round" stroke-linejoin="round"/>
    <path d="M 67.84638977050781 154.7942657470703 C 71.4350814819336 155.9388885498047 85.11174011230469 161.33203125 55.61640548706055 198.04803466796875" stroke-width="3.0" fill="none" stroke="rgb(0, 0, 0)" stroke-opacity="1.0" stroke-linecap="round" stroke-linejoin="round"/>
    <path d="M 50.4705924987793 109.875 C 65.76876068115234 35.843971252441406 -25.2176570892334 110.22798919677734 50.624237060546875 113.25226593017578" stroke-width="3.0" fill="none" stroke="rgb(0, 0, 0)" stroke-opacity="1.0" stroke-linecap="round" stroke-linejoin="round"/>
    <path d="M 96.47460174560547 120.30596923828125 C 119.90882873535156 136.9456024169922 79.97796630859375 97.5330581665039 90.41983795166016 90.71603393554688" stroke-width="3.0" fill="none" stroke="rgb(0, 0, 0)" stroke-opacity="1.0" stroke-linecap="round" stroke-linejoin="round"/>
    <path d="M 73.60325622558594 69.77042388916016 C 113.30741119384766 65.04129028320312 78.09639739990234 74.24995422363281 93.11021423339844 80.73722839355469" stroke-width="3.0" fill="none" stroke="rgb(0, 0, 0)" stroke-opacity="1.0" stroke-linecap="round" stroke-linejoin="round"/>
    <path d="M 10.622415542602539 111.59114837646484 C 31.23763656616211 126.6021957397461 -23.66692543029785 71.04090118408203 30.986209869384766 154.8086700439453" stroke-width="3.0" fill="none" stroke="rgb(0, 0, 0)" stroke-opacity="1.0" stroke-linecap="round" stroke-linejoin="round"/>
    <path d="M 56.105873107910156 185.63287353515625 C 129.59580993652344 136.1527557373047 11.461980819702148 155.77699279785156 64.62374877929688 181.7778778076172" stroke-width="3.0" fill="none" stroke="rgb(0, 0, 0)" stroke-opacity="1.0" stroke-linecap="round" stroke-linejoin="round"/>
    <path d="M 152.53048706054688 87.34384155273438 C 148.78884887695312 105.38331604003906 146.95449829101562 45.98314666748047 165.393310546875 62.98482131958008" stroke-width="3.0" fill="none" stroke="rgb(0, 0, 0)" stroke-opacity="1.0" stroke-linecap="round" stroke-linejoin="round"/>
    <path d="M -9.203453063964844 70.89739990234375 C 2.2097418308258057 57.08139419555664 36.85177230834961 43.43876266479492 75.82357025146484 52.11285400390625" stroke-width="3.0" fill="none" stroke="rgb(0, 0, 0)" stroke-opacity="1.0" stroke-linecap="round" stroke-linejoin="round"/>
    <path d="M -8.426765441894531 74.83843994140625 C 88.47985076904297 52.185787200927734 77.79923248291016 60.58461380004883 139.0522003173828 70.19218444824219" stroke-width="3.0" fill="none" stroke="rgb(0, 0, 0)" stroke-opacity="1.0" stroke-linecap="round" stroke-linejoin="round"/>
    <path d="M 48.96643829345703 178.16983032226562 C 30.010780334472656 165.96572875976562 21.933120727539062 126.78009033203125 37.09819030761719 163.61875915527344" stroke-width="3.0" fill="none" stroke="rgb(0, 0, 0)" stroke-opacity="1.0" stroke-linecap="round" stroke-linejoin="round"/>
    <path d="M 114.29570770263672 170.7887420654297 C 132.5342254638672 83.41365814208984 136.10362243652344 120.7659912109375 133.95803833007812 134.12498474121094" stroke-width="3.0" fill="none" stroke="rgb(0, 0, 0)" stroke-opacity="1.0" stroke-linecap="round" stroke-linejoin="round"/>
    <path d="M 34.568790435791016 157.46658325195312 C 48.85635757446289 180.66636657714844 74.51081848144531 137.0960693359375 38.361534118652344 153.0635528564453" stroke-width="3.0" fill="none" stroke="rgb(0, 0, 0)" stroke-opacity="1.0" stroke-linecap="round" stroke-linejoin="round"/>
    <path d="M 135.4409942626953 132.98484802246094 C 86.1359634399414 199.8614044189453 113.53385162353516 195.8404998779297 131.88314819335938 151.37266540527344" stroke-width="3.0" fill="none" stroke="rgb(0, 0, 0)" stroke-opacity="1.0" stroke-linecap="round" stroke-linejoin="round"/>
    <path d="M 69.89164733886719 172.45762634277344 C 142.97120666503906 77.1879653930664 83.38990783691406 131.61407470703125 97.51425170898438 85.1703109741211" stroke-width="3.0" fill="none" stroke="rgb(0, 0, 0)" stroke-opacity="1.0" stroke-linecap="round" stroke-linejoin="round"/>
    <path d="M 123.54137420654297 92.09962463378906 C 118.53267669677734 58.78249740600586 139.36328125 98.7282485961914 146.6110382080078 62.74103546142578" stroke-width="3.0" fill="none" stroke="rgb(0, 0, 0)" stroke-opacity="1.0" stroke-linecap="round" stroke-linejoin="round"/>
    <path d="M 26.480173110961914 143.24949645996094 C 70.74980163574219 123.89411163330078 0.7707668542861938 95.96255493164062 26.50084114074707 137.97682189941406" stroke-width="3.0" fill="none" stroke="rgb(0, 0, 0)" stroke-opacity="1.0" stroke-linecap="round" stroke-linejoin="round"/>
    <path d="M 162.49607849121094 58.37064743041992 C 124.96568298339844 44.00788116455078 212.0431671142578 74.1578369140625 185.2598419189453 84.01332092285156" stroke-width="3.0" fill="none" stroke="rgb(0, 0, 0)" stroke-opacity="1.0" stroke-linecap="round" stroke-linejoin="round"/>
    <path d="M 154.46128845214844 75.53175354003906 C 129.37899780273438 98.53948211669922 157.84619140625 92.99654388427734 144.8936767578125 121.89636993408203" stroke-width="3.0" fill="none" stroke="rgb(0, 0, 0)" stroke-opacity="1.0" stroke-linecap="round" stroke-linejoin="round"/>
    <path d="M 65.60334777832031 52.96089172363281 C 131.94012451171875 45.39316177368164 194.23912048339844 86.01078033447266 91.93316650390625 51.877403259277344" stroke-width="3.0" fill="none" stroke="rgb(0, 0, 0)" stroke-opacity="1.0" stroke-linecap="round" stroke-linejoin="round"/>
    <path d="M 51.427581787109375 198.64891052246094 C 42.299560546875 171.1742401123047 30.612031936645508 170.10523986816406 38.92138671875 151.22254943847656" stroke-width="3.0" fill="none" stroke="rgb(0, 0, 0)" stroke-opacity="1.0" stroke-linecap="round" stroke-linejoin="round"/>
    <path d="M 121.674072265625 165.3264617919922 C 193.76425170898438 85.87892150878906 168.2593994140625 84.32762145996094 164.20716857910156 86.42609405517578" stroke-width="3.0" fill="none" stroke="rgb(0, 0, 0)" stroke-opacity="1.0" stroke-linecap="round" stroke-linejoin="round"/>
    <path d="M 156.4786834716797 58.150474548339844 C 213.6318359375 91.4504623413086 175.5157470703125 79.15699005126953 138.68276977539062 144.6628875732422" stroke-width="3.0" fill="none" stroke="rgb(0, 0, 0)" stroke-opacity="1.0" stroke-linecap="round" stroke-linejoin="round"/>
    <path d="M 48.772605895996094 49.94997787475586 C -52.79075622558594 71.72037506103516 -27.53725814819336 96.10198211669922 38.089351654052734 63.54059982299805" stroke-width="3.0" fill="none" stroke="rgb(0, 0, 0)" stroke-opacity="1.0" stroke-linecap="round" stroke-linejoin="round"/>
    <path d="M 83.0448226928711 151.03631591796875 C 81.48046875 135.68942260742188 61.55767059326172 151.14297485351562 79.07889556884766 139.90367126464844" stroke-width="3.0" fill="none" stroke="rgb(0, 0, 0)" stroke-opacity="1.0" stroke-linecap="round" stroke-linejoin="round"/>
  </g>
</svg>
