<?xml version="1.0" ?>
<svg xmlns="http://www.w3.org/2000/svg" version="1.1" width="224" height="224">
  <defs/>
  <g>
    <path d="M 127.9713363647461 125.13494110107422 C 140.8610382080078 95.38101196289062 143.7020263671875 76.09998321533203 156.27923583984375 65.62867736816406" stroke-width="3.0" fill="none" stroke="rgb(0, 0, 0)" stroke-opacity="1.0" stroke-linecap="round" stroke-linejoin="round"/>
    <path d="M 31.09749984741211 138.42559814453125 C 1.8539340496063232 121.51904296875 25.026939392089844 114.69928741455078 25.855560302734375 140.3688507080078" stroke-width="3.0" fill="none" stroke="rgb(0, 0, 0)" stroke-opacity="1.0" stroke-linecap="round" stroke-linejoin="round"/>
    <path d="M 125.54780578613281 85.12049102783203 C 92.73109436035156 36.56275177001953 72.5799789428711 167.39524841308594 116.14786529541016 110.30435180664062" stroke-width="3.0" fill="none" stroke="rgb(0, 0, 0)" stroke-opacity="1.0" stroke-linecap="round" stroke-linejoin="round"/>
    <path d="M 42.064971923828125 78.44242095947266 C 99.81730651855469 38.9562873840332 81.687255859375 167.5032958984375 49.47808074951172 113.10076904296875" stroke-width="3.0" fill="none" stroke="rgb(0, 0, 0)" stroke-opacity="1.0" stroke-linecap="round" stroke-linejoin="round"/>
    <path d="M 155.73974609375 71.73237609863281 C 194.34385681152344 81.02681732177734 141.73118591308594 110.5323715209961 165.1754150390625 89.279541015625" stroke-width="3.0" fill="none" stroke="rgb(0, 0, 0)" stroke-opacity="1.0" stroke-linecap="round" stroke-linejoin="round"/>
    <path d="M 124.8098373413086 98.53680419921875 C 107.79313659667969 116.017822265625 109.8156509399414 133.04580688476562 152.21556091308594 54.2447509765625" stroke-width="3.0" fill="none" stroke="rgb(0, 0, 0)" stroke-opacity="1.0" stroke-linecap="round" stroke-linejoin="round"/>
    <path d="M 10.273185729980469 93.17207336425781 C -3.1418120861053467 67.15628814697266 18.60012435913086 98.22576141357422 4.955156326293945 103.83446502685547" stroke-width="3.0" fill="none" stroke="rgb(0, 0, 0)" stroke-opacity="1.0" stroke-linecap="round" stroke-linejoin="round"/>
    <path d="M 76.80506896972656 153.57383728027344 C 69.25495910644531 144.1307830810547 90.5567626953125 137.35472106933594 77.0545654296875 127.44316864013672" stroke-width="3.0" fill="none" stroke="rgb(0, 0, 0)" stroke-opacity="1.0" stroke-linecap="round" stroke-linejoin="round"/>
    <path d="M 65.05127716064453 154.3983917236328 C 68.45343780517578 159.4041748046875 79.6484146118164 162.30181884765625 55.20649719238281 198.4207305908203" stroke-width="3.0" fill="none" stroke="rgb(0, 0, 0)" stroke-opacity="1.0" stroke-linecap="round" stroke-linejoin="round"/>
    <path d="M 50.03377151489258 115.81551361083984 C 64.79417419433594 40.199989318847656 -27.801977157592773 107.40409088134766 44.26472091674805 110.70594024658203" stroke-width="3.0" fill="none" stroke="rgb(0, 0, 0)" stroke-opacity="1.0" stroke-linecap="round" stroke-linejoin="round"/>
    <path d="M 89.5038070678711 117.55510711669922 C 106.79943084716797 126.6545639038086 75.65967559814453 101.73379516601562 95.10183715820312 96.80913543701172" stroke-width="3.0" fill="none" stroke="rgb(0, 0, 0)" stroke-opacity="1.0" stroke-linecap="round" stroke-linejoin="round"/>
    <path d="M 76.61308288574219 72.03099822998047 C 94.599365234375 82.6703109741211 80.03753662109375 91.96827697753906 84.43368530273438 83.19922637939453" stroke-width="3.0" fill="none" stroke="rgb(0, 0, 0)" stroke-opacity="1.0" stroke-linecap="round" stroke-linejoin="round"/>
    <path d="M 8.15126895904541 113.86792755126953 C 27.19685935974121 122.99732971191406 -26.126686096191406 72.20623016357422 31.976654052734375 155.4292755126953" stroke-width="3.0" fill="none" stroke="rgb(0, 0, 0)" stroke-opacity="1.0" stroke-linecap="round" stroke-linejoin="round"/>
    <path d="M 56.5482063293457 189.17630004882812 C 120.8732681274414 138.05941772460938 16.098880767822266 159.5174102783203 65.77351379394531 182.02122497558594" stroke-width="3.0" fill="none" stroke="rgb(0, 0, 0)" stroke-opacity="1.0" stroke-linecap="round" stroke-linejoin="round"/>
    <path d="M 143.8911590576172 93.52632904052734 C 141.71408081054688 107.62554931640625 148.64321899414062 41.92033386230469 152.779052734375 62.929527282714844" stroke-width="3.0" fill="none" stroke="rgb(0, 0, 0)" stroke-opacity="1.0" stroke-linecap="round" stroke-linejoin="round"/>
    <path d="M -8.135873794555664 70.47368621826172 C 5.9655938148498535 56.8989372253418 43.37405776977539 42.95092010498047 71.64077758789062 53.01768112182617" stroke-width="3.0" fill="none" stroke="rgb(0, 0, 0)" stroke-opacity="1.0" stroke-linecap="round" stroke-linejoin="round"/>
    <path d="M -1.3287973403930664 79.79644775390625 C 75.45952606201172 51.40302658081055 71.66487884521484 54.19715881347656 138.54922485351562 69.41922760009766" stroke-width="3.0" fill="none" stroke="rgb(0, 0, 0)" stroke-opacity="1.0" stroke-linecap="round" stroke-linejoin="round"/>
    <path d="M 49.71181106567383 181.62242126464844 C 35.007652282714844 157.19757080078125 15.705236434936523 126.2440185546875 34.366966247558594 164.6916961669922" stroke-width="3.0" fill="none" stroke="rgb(0, 0, 0)" stroke-opacity="1.0" stroke-linecap="round" stroke-linejoin="round"/>
    <path d="M 115.08037567138672 170.69029235839844 C 130.78431701660156 92.90672302246094 134.7057342529297 130.2993927001953 129.61363220214844 130.20114135742188" stroke-width="3.0" fill="none" stroke="rgb(0, 0, 0)" stroke-opacity="1.0" stroke-linecap="round" stroke-linejoin="round"/>
    <path d="M 37.27729415893555 161.3575439453125 C 42.92221450805664 189.30914306640625 80.21918487548828 138.3253173828125 31.82839584350586 150.6125946044922" stroke-width="3.0" fill="none" stroke="rgb(0, 0, 0)" stroke-opacity="1.0" stroke-linecap="round" stroke-linejoin="round"/>
    <path d="M 132.69142150878906 133.7317657470703 C 87.79032897949219 200.94117736816406 109.4732666015625 197.61767578125 133.4872283935547 148.4682159423828" stroke-width="3.0" fill="none" stroke="rgb(0, 0, 0)" stroke-opacity="1.0" stroke-linecap="round" stroke-linejoin="round"/>
    <path d="M 71.03126525878906 172.01791381835938 C 144.65313720703125 80.9327621459961 89.99608612060547 122.33880615234375 95.12037658691406 87.86692810058594" stroke-width="3.0" fill="none" stroke="rgb(0, 0, 0)" stroke-opacity="1.0" stroke-linecap="round" stroke-linejoin="round"/>
    <path d="M 122.69200134277344 96.83572387695312 C 121.23558807373047 60.201133728027344 133.21282958984375 95.11971282958984 144.85507202148438 66.08680725097656" stroke-width="3.0" fill="none" stroke="rgb(0, 0, 0)" stroke-opacity="1.0" stroke-linecap="round" stroke-linejoin="round"/>
    <path d="M 27.548187255859375 146.14334106445312 C 70.56639099121094 135.49403381347656 -2.17470645904541 97.1856918334961 24.15896987915039 137.2713623046875" stroke-width="3.0" fill="none" stroke="rgb(0, 0, 0)" stroke-opacity="1.0" stroke-linecap="round" stroke-linejoin="round"/>
    <path d="M 161.65139770507812 58.260833740234375 C 128.37106323242188 41.61695098876953 212.0052032470703 74.61343383789062 190.8293914794922 83.32471466064453" stroke-width="3.0" fill="none" stroke="rgb(0, 0, 0)" stroke-opacity="1.0" stroke-linecap="round" stroke-linejoin="round"/>
    <path d="M 151.93533325195312 78.10309600830078 C 122.98792266845703 95.57859802246094 161.43081665039062 103.80708312988281 137.7493133544922 125.96585083007812" stroke-width="3.0" fill="none" stroke="rgb(0, 0, 0)" stroke-opacity="1.0" stroke-linecap="round" stroke-linejoin="round"/>
    <path d="M 61.47433090209961 52.44309997558594 C 126.46974182128906 47.01054382324219 203.58721923828125 84.85923767089844 89.92416381835938 51.66410827636719" stroke-width="3.0" fill="none" stroke="rgb(0, 0, 0)" stroke-opacity="1.0" stroke-linecap="round" stroke-linejoin="round"/>
    <path d="M 53.682098388671875 198.3724365234375 C 42.56511688232422 168.99038696289062 31.502845764160156 167.34588623046875 35.48565673828125 149.3436737060547" stroke-width="3.0" fill="none" stroke="rgb(0, 0, 0)" stroke-opacity="1.0" stroke-linecap="round" stroke-linejoin="round"/>
    <path d="M 122.8858413696289 160.79776000976562 C 195.93685913085938 87.48406982421875 169.1514129638672 78.86933135986328 165.2476043701172 80.87295532226562" stroke-width="3.0" fill="none" stroke="rgb(0, 0, 0)" stroke-opacity="1.0" stroke-linecap="round" stroke-linejoin="round"/>
    <path d="M 156.24256896972656 55.27428436279297 C 212.19679260253906 94.12246704101562 176.7716064453125 75.80619812011719 137.6180419921875 144.54685974121094" stroke-width="3.0" fill="none" stroke="rgb(0, 0, 0)" stroke-opacity="1.0" stroke-linecap="round" stroke-linejoin="round"/>
    <path d="M 61.38438415527344 50.24407196044922 C -48.9686279296875 75.39205169677734 -21.43201446533203 93.70125579833984 41.96984100341797 65.41450500488281" stroke-width="3.0" fill="none" stroke="rgb(0, 0, 0)" stroke-opacity="1.0" stroke-linecap="round" stroke-linejoin="round"/>
    <path d="M 74.34030151367188 152.23777770996094 C 91.573486328125 139.45375061035156 70.78166961669922 150.28887939453125 71.06724548339844 141.1607208251953" stroke-width="3.0" fill="none" stroke="rgb(0, 0, 0)" stroke-opacity="1.0" stroke-linecap="round" stroke-linejoin="round"/>
  </g>
</svg>
