<?xml version="1.0" ?>
<svg xmlns="http://www.w3.org/2000/svg" version="1.1" width="224" height="224">
  <defs/>
  <g>
    <path d="M 126.59549713134766 134.04876708984375 C 141.70162963867188 94.39901733398438 145.82371520996094 67.1377182006836 154.97544860839844 75.66426849365234" stroke-width="3.0" fill="none" stroke="rgb(0, 0, 0)" stroke-opacity="1.0" stroke-linecap="round" stroke-linejoin="round"/>
    <path d="M 32.757080078125 140.86203002929688 C 1.2422125339508057 126.77227783203125 24.720531463623047 117.63941192626953 25.90812110900879 142.1852264404297" stroke-width="3.0" fill="none" stroke="rgb(0, 0, 0)" stroke-opacity="1.0" stroke-linecap="round" stroke-linejoin="round"/>
    <path d="M 127.97087860107422 88.64089965820312 C 92.43795776367188 26.51445960998535 76.58818054199219 167.85922241210938 115.81830596923828 111.43578338623047" stroke-width="3.0" fill="none" stroke="rgb(0, 0, 0)" stroke-opacity="1.0" stroke-linecap="round" stroke-linejoin="round"/>
    <path d="M 44.106285095214844 80.51766204833984 C 105.73389434814453 38.06922912597656 85.50308990478516 156.28855895996094 43.034095764160156 113.11102294921875" stroke-width="3.0" fill="none" stroke="rgb(0, 0, 0)" stroke-opacity="1.0" stroke-linecap="round" stroke-linejoin="round"/>
    <path d="M 148.1741943359375 71.0620346069336 C 195.5455780029297 83.64196014404297 145.14739990234375 119.63887786865234 169.0496826171875 90.87200164794922" stroke-width="3.0" fill="none" stroke="rgb(0, 0, 0)" stroke-opacity="1.0" stroke-linecap="round" stroke-linejoin="round"/>
    <path d="M 123.8902359008789 94.69544219970703 C 106.27839660644531 117.22225952148438 105.760498046875 128.32447814941406 152.72442626953125 56.103782653808594" stroke-width="3.0" fill="none" stroke="rgb(0, 0, 0)" stroke-opacity="1.0" stroke-linecap="round" stroke-linejoin="round"/>
    <path d="M 9.19630241394043 96.88761901855469 C -5.811163425445557 81.31092834472656 23.321321487426758 97.49230194091797 5.998286247253418 107.5373764038086" stroke-width="3.0" fill="none" stroke="rgb(0, 0, 0)" stroke-opacity="1.0" stroke-linecap="round" stroke-linejoin="round"/>
    <path d="M 85.74419403076172 146.9600067138672 C 68.13292694091797 138.25794982910156 83.27854919433594 127.97344207763672 76.79593658447266 121.52996063232422" stroke-width="3.0" fill="none" stroke="rgb(0, 0, 0)" stroke-opacity="1.0" stroke-linecap="round" stroke-linejoin="round"/>
    <path d="M 68.8409423828125 152.78907775878906 C 74.4817886352539 151.86428833007812 85.0635757446289 160.0393829345703 53.67777633666992 199.52169799804688" stroke-width="3.0" fill="none" stroke="rgb(0, 0, 0)" stroke-opacity="1.0" stroke-linecap="round" stroke-linejoin="round"/>
    <path d="M 49.07386779785156 115.3465347290039 C 64.5093765258789 36.62656784057617 -28.707557678222656 113.48509979248047 48.10542297363281 113.42823028564453" stroke-width="3.0" fill="none" stroke="rgb(0, 0, 0)" stroke-opacity="1.0" stroke-linecap="round" stroke-linejoin="round"/>
    <path d="M 97.55744934082031 117.97367858886719 C 113.22435760498047 132.714599609375 80.78396606445312 93.18603515625 93.41935729980469 91.1342544555664" stroke-width="3.0" fill="none" stroke="rgb(0, 0, 0)" stroke-opacity="1.0" stroke-linecap="round" stroke-linejoin="round"/>
    <path d="M 78.74684143066406 72.75569915771484 C 106.07554626464844 65.58431243896484 83.29115295410156 80.21500396728516 90.02263641357422 82.57601928710938" stroke-width="3.0" fill="none" stroke="rgb(0, 0, 0)" stroke-opacity="1.0" stroke-linecap="round" stroke-linejoin="round"/>
    <path d="M 9.48558235168457 114.98534393310547 C 27.533409118652344 130.7154083251953 -21.3868408203125 70.1509780883789 30.159385681152344 154.19976806640625" stroke-width="3.0" fill="none" stroke="rgb(0, 0, 0)" stroke-opacity="1.0" stroke-linecap="round" stroke-linejoin="round"/>
    <path d="M 56.82111358642578 188.30239868164062 C 126.03011322021484 136.75640869140625 14.407003402709961 156.9329071044922 63.41976547241211 181.25958251953125" stroke-width="3.0" fill="none" stroke="rgb(0, 0, 0)" stroke-opacity="1.0" stroke-linecap="round" stroke-linejoin="round"/>
    <path d="M 152.47434997558594 89.1187744140625 C 150.61878967285156 106.5966567993164 147.33668518066406 36.959651947021484 157.04698181152344 57.352474212646484" stroke-width="3.0" fill="none" stroke="rgb(0, 0, 0)" stroke-opacity="1.0" stroke-linecap="round" stroke-linejoin="round"/>
    <path d="M -9.210819244384766 70.9884033203125 C 6.731610298156738 60.00613784790039 40.11784362792969 45.863197326660156 77.48458862304688 54.954341888427734" stroke-width="3.0" fill="none" stroke="rgb(0, 0, 0)" stroke-opacity="1.0" stroke-linecap="round" stroke-linejoin="round"/>
    <path d="M -5.323398113250732 77.49984741210938 C 90.74153137207031 53.416316986083984 79.06932830810547 58.31230163574219 140.2152557373047 74.33375549316406" stroke-width="3.0" fill="none" stroke="rgb(0, 0, 0)" stroke-opacity="1.0" stroke-linecap="round" stroke-linejoin="round"/>
    <path d="M 48.34119415283203 174.6232147216797 C 28.934099197387695 163.9839630126953 19.304519653320312 126.28173828125 36.32184982299805 163.8109893798828" stroke-width="3.0" fill="none" stroke="rgb(0, 0, 0)" stroke-opacity="1.0" stroke-linecap="round" stroke-linejoin="round"/>
    <path d="M 113.13099670410156 172.87120056152344 C 131.62545776367188 90.7442855834961 140.89840698242188 129.96397399902344 134.18792724609375 134.21144104003906" stroke-width="3.0" fill="none" stroke="rgb(0, 0, 0)" stroke-opacity="1.0" stroke-linecap="round" stroke-linejoin="round"/>
    <path d="M 36.68943786621094 159.4342041015625 C 47.86381530761719 183.0986328125 76.00276184082031 140.96905517578125 30.716960906982422 149.71560668945312" stroke-width="3.0" fill="none" stroke="rgb(0, 0, 0)" stroke-opacity="1.0" stroke-linecap="round" stroke-linejoin="round"/>
    <path d="M 134.2817840576172 136.3488006591797 C 85.59732055664062 202.52330017089844 112.3154296875 200.22779846191406 133.00286865234375 150.40501403808594" stroke-width="3.0" fill="none" stroke="rgb(0, 0, 0)" stroke-opacity="1.0" stroke-linecap="round" stroke-linejoin="round"/>
    <path d="M 69.11332702636719 170.6546173095703 C 145.01882934570312 82.4024429321289 86.03887176513672 133.63577270507812 95.12387084960938 80.1146469116211" stroke-width="3.0" fill="none" stroke="rgb(0, 0, 0)" stroke-opacity="1.0" stroke-linecap="round" stroke-linejoin="round"/>
    <path d="M 125.80079650878906 94.68023681640625 C 119.92811584472656 55.782554626464844 138.86293029785156 98.7326431274414 144.13360595703125 64.16598510742188" stroke-width="3.0" fill="none" stroke="rgb(0, 0, 0)" stroke-opacity="1.0" stroke-linecap="round" stroke-linejoin="round"/>
    <path d="M 24.965526580810547 144.39512634277344 C 70.7669448852539 125.55009460449219 -0.35079073905944824 98.89481353759766 23.291893005371094 140.05047607421875" stroke-width="3.0" fill="none" stroke="rgb(0, 0, 0)" stroke-opacity="1.0" stroke-linecap="round" stroke-linejoin="round"/>
    <path d="M 158.8563690185547 59.544647216796875 C 126.50565338134766 41.06552505493164 211.63565063476562 77.2208480834961 186.2760009765625 81.74652862548828" stroke-width="3.0" fill="none" stroke="rgb(0, 0, 0)" stroke-opacity="1.0" stroke-linecap="round" stroke-linejoin="round"/>
    <path d="M 156.36257934570312 79.64463806152344 C 125.81294250488281 96.94756317138672 163.6208953857422 93.60559844970703 143.1622314453125 126.81722259521484" stroke-width="3.0" fill="none" stroke="rgb(0, 0, 0)" stroke-opacity="1.0" stroke-linecap="round" stroke-linejoin="round"/>
    <path d="M 66.16120910644531 55.06871032714844 C 131.09103393554688 44.01906967163086 196.93003845214844 80.34797668457031 85.88660430908203 53.7833251953125" stroke-width="3.0" fill="none" stroke="rgb(0, 0, 0)" stroke-opacity="1.0" stroke-linecap="round" stroke-linejoin="round"/>
    <path d="M 54.78911590576172 197.49664306640625 C 44.24536895751953 170.85398864746094 32.03175735473633 172.23805236816406 33.44587326049805 149.04061889648438" stroke-width="3.0" fill="none" stroke="rgb(0, 0, 0)" stroke-opacity="1.0" stroke-linecap="round" stroke-linejoin="round"/>
    <path d="M 120.5641860961914 166.03106689453125 C 193.82908630371094 85.53164672851562 168.63377380371094 91.08063507080078 164.82911682128906 86.19979858398438" stroke-width="3.0" fill="none" stroke="rgb(0, 0, 0)" stroke-opacity="1.0" stroke-linecap="round" stroke-linejoin="round"/>
    <path d="M 155.0460662841797 58.02871322631836 C 211.67359924316406 94.68498229980469 177.66867065429688 78.04219055175781 140.87890625 144.74757385253906" stroke-width="3.0" fill="none" stroke="rgb(0, 0, 0)" stroke-opacity="1.0" stroke-linecap="round" stroke-linejoin="round"/>
    <path d="M 53.62187576293945 51.08760070800781 C -45.61977767944336 77.77857971191406 -20.627656936645508 100.30725860595703 48.1277961730957 64.8880844116211" stroke-width="3.0" fill="none" stroke="rgb(0, 0, 0)" stroke-opacity="1.0" stroke-linecap="round" stroke-linejoin="round"/>
    <path d="M 82.48812103271484 151.70652770996094 C 82.99675750732422 129.91290283203125 68.44577026367188 147.89259338378906 76.3124771118164 137.32247924804688" stroke-width="3.0" fill="none" stroke="rgb(0, 0, 0)" stroke-opacity="1.0" stroke-linecap="round" stroke-linejoin="round"/>
  </g>
</svg>
