<?xml version="1.0" ?>
<svg xmlns="http://www.w3.org/2000/svg" version="1.1" width="224" height="224">
  <defs/>
  <g>
    <path d="M 143.26904296875 116.76567840576172 C 154.25718688964844 96.761474609375 135.02850341796875 93.46519470214844 146.2155303955078 87.60678100585938" stroke-width="3.0" fill="none" stroke="rgb(0, 0, 0)" stroke-opacity="1.0" stroke-linecap="round" stroke-linejoin="round"/>
    <path d="M 22.293384552001953 136.28465270996094 C 15.845942497253418 112.37860107421875 36.461273193359375 123.49017333984375 21.651235580444336 132.8732147216797" stroke-width="3.0" fill="none" stroke="rgb(0, 0, 0)" stroke-opacity="1.0" stroke-linecap="round" stroke-linejoin="round"/>
    <path d="M 113.85813903808594 105.11182403564453 C 69.14901733398438 90.7171630859375 86.1695785522461 148.74673461914062 112.39112854003906 117.87506866455078" stroke-width="3.0" fill="none" stroke="rgb(0, 0, 0)" stroke-opacity="1.0" stroke-linecap="round" stroke-linejoin="round"/>
    <path d="M 55.56312561035156 93.6701431274414 C 90.1249771118164 82.17494201660156 83.12953186035156 139.65968322753906 52.15036392211914 99.30467987060547" stroke-width="3.0" fill="none" stroke="rgb(0, 0, 0)" stroke-opacity="1.0" stroke-linecap="round" stroke-linejoin="round"/>
    <path d="M 151.2894287109375 67.83598327636719 C 188.25247192382812 84.1401596069336 166.45407104492188 90.54566192626953 165.618896484375 100.645263671875" stroke-width="3.0" fill="none" stroke="rgb(0, 0, 0)" stroke-opacity="1.0" stroke-linecap="round" stroke-linejoin="round"/>
    <path d="M 112.03077697753906 113.27508544921875 C 113.89137268066406 123.88143157958984 105.3232421875 116.95384979248047 123.98851776123047 99.88510131835938" stroke-width="3.0" fill="none" stroke="rgb(0, 0, 0)" stroke-opacity="1.0" stroke-linecap="round" stroke-linejoin="round"/>
    <path d="M 8.849268913269043 80.958984375 C 7.562416076660156 89.9047622680664 17.81163215637207 90.59404754638672 7.904644966125488 108.07413482666016" stroke-width="3.0" fill="none" stroke="rgb(0, 0, 0)" stroke-opacity="1.0" stroke-linecap="round" stroke-linejoin="round"/>
    <path d="M 79.95921325683594 155.6490020751953 C 70.22210693359375 145.20407104492188 81.54208374023438 156.538330078125 82.32300567626953 149.27732849121094" stroke-width="3.0" fill="none" stroke="rgb(0, 0, 0)" stroke-opacity="1.0" stroke-linecap="round" stroke-linejoin="round"/>
    <path d="M 58.653263092041016 162.1678466796875 C 76.16104888916016 158.91249084472656 81.77207946777344 163.31385803222656 56.13325881958008 200.71160888671875" stroke-width="3.0" fill="none" stroke="rgb(0, 0, 0)" stroke-opacity="1.0" stroke-linecap="round" stroke-linejoin="round"/>
    <path d="M 45.95692825317383 98.48292541503906 C 57.528236389160156 86.50228881835938 2.0480544567108154 90.10625457763672 39.10273742675781 96.18341827392578" stroke-width="3.0" fill="none" stroke="rgb(0, 0, 0)" stroke-opacity="1.0" stroke-linecap="round" stroke-linejoin="round"/>
    <path d="M 91.56383514404297 133.0946502685547 C 102.0589599609375 135.71771240234375 91.92442321777344 120.61044311523438 93.09255981445312 139.7677764892578" stroke-width="3.0" fill="none" stroke="rgb(0, 0, 0)" stroke-opacity="1.0" stroke-linecap="round" stroke-linejoin="round"/>
    <path d="M 93.08815002441406 82.44493865966797 C 90.48654174804688 94.24757385253906 87.15577697753906 85.87561798095703 90.68770599365234 85.07512664794922" stroke-width="3.0" fill="none" stroke="rgb(0, 0, 0)" stroke-opacity="1.0" stroke-linecap="round" stroke-linejoin="round"/>
    <path d="M 13.145424842834473 108.87064361572266 C 21.287113189697266 129.46917724609375 -3.8962152004241943 89.04881286621094 20.24747085571289 133.02743530273438" stroke-width="3.0" fill="none" stroke="rgb(0, 0, 0)" stroke-opacity="1.0" stroke-linecap="round" stroke-linejoin="round"/>
    <path d="M 55.10123062133789 186.16343688964844 C 97.42882537841797 155.43838500976562 73.09493255615234 151.09344482421875 40.867244720458984 169.9103240966797" stroke-width="3.0" fill="none" stroke="rgb(0, 0, 0)" stroke-opacity="1.0" stroke-linecap="round" stroke-linejoin="round"/>
    <path d="M 130.02427673339844 48.88001251220703 C 113.40403747558594 52.80720138549805 165.28884887695312 48.94560623168945 143.09716796875 73.84192657470703" stroke-width="3.0" fill="none" stroke="rgb(0, 0, 0)" stroke-opacity="1.0" stroke-linecap="round" stroke-linejoin="round"/>
    <path d="M 4.109136581420898 63.03108215332031 C 23.47689437866211 60.61516189575195 42.38645935058594 48.4860954284668 75.6315689086914 56.4484977722168" stroke-width="3.0" fill="none" stroke="rgb(0, 0, 0)" stroke-opacity="1.0" stroke-linecap="round" stroke-linejoin="round"/>
    <path d="M 24.508127212524414 62.786495208740234 C 79.88920593261719 53.21891784667969 83.20101928710938 52.45521926879883 104.86837768554688 53.875064849853516" stroke-width="3.0" fill="none" stroke="rgb(0, 0, 0)" stroke-opacity="1.0" stroke-linecap="round" stroke-linejoin="round"/>
    <path d="M 40.00818634033203 168.42901611328125 C 29.56732177734375 156.44973754882812 21.59421157836914 123.14714813232422 37.700172424316406 164.79368591308594" stroke-width="3.0" fill="none" stroke="rgb(0, 0, 0)" stroke-opacity="1.0" stroke-linecap="round" stroke-linejoin="round"/>
    <path d="M 109.60551452636719 174.86849975585938 C 144.9156036376953 120.63091278076172 123.00357818603516 124.62316131591797 123.94348907470703 155.60263061523438" stroke-width="3.0" fill="none" stroke="rgb(0, 0, 0)" stroke-opacity="1.0" stroke-linecap="round" stroke-linejoin="round"/>
    <path d="M 37.20559310913086 163.81292724609375 C 57.50143814086914 174.8136749267578 56.883174896240234 146.91661071777344 33.57298278808594 154.29940795898438" stroke-width="3.0" fill="none" stroke="rgb(0, 0, 0)" stroke-opacity="1.0" stroke-linecap="round" stroke-linejoin="round"/>
    <path d="M 126.25981140136719 151.51055908203125 C 92.11436462402344 182.7306671142578 97.02603912353516 199.80262756347656 127.7865219116211 160.2978973388672" stroke-width="3.0" fill="none" stroke="rgb(0, 0, 0)" stroke-opacity="1.0" stroke-linecap="round" stroke-linejoin="round"/>
    <path d="M 86.23197937011719 147.35781860351562 C 118.588623046875 106.38177490234375 97.10415649414062 135.63214111328125 87.85167694091797 122.03840637207031" stroke-width="3.0" fill="none" stroke="rgb(0, 0, 0)" stroke-opacity="1.0" stroke-linecap="round" stroke-linejoin="round"/>
    <path d="M 135.55209350585938 80.80294036865234 C 126.68775177001953 91.88825988769531 133.5927734375 105.23299407958984 142.593505859375 68.76728057861328" stroke-width="3.0" fill="none" stroke="rgb(0, 0, 0)" stroke-opacity="1.0" stroke-linecap="round" stroke-linejoin="round"/>
    <path d="M 27.196807861328125 143.81857299804688 C 64.75025939941406 137.66722106933594 13.818902969360352 98.7890853881836 24.5056209564209 140.9479522705078" stroke-width="3.0" fill="none" stroke="rgb(0, 0, 0)" stroke-opacity="1.0" stroke-linecap="round" stroke-linejoin="round"/>
    <path d="M 127.80461120605469 48.07680892944336 C 128.3854217529297 44.2940788269043 184.77874755859375 66.67182922363281 192.11158752441406 77.01538848876953" stroke-width="3.0" fill="none" stroke="rgb(0, 0, 0)" stroke-opacity="1.0" stroke-linecap="round" stroke-linejoin="round"/>
    <path d="M 133.51144409179688 88.00006866455078 C 123.55640411376953 110.97501373291016 121.216064453125 101.7440414428711 126.90421295166016 98.23719787597656" stroke-width="3.0" fill="none" stroke="rgb(0, 0, 0)" stroke-opacity="1.0" stroke-linecap="round" stroke-linejoin="round"/>
    <path d="M 97.20195770263672 55.238922119140625 C 143.72613525390625 56.3635139465332 134.76759338378906 52.89712905883789 85.93205261230469 56.209205627441406" stroke-width="3.0" fill="none" stroke="rgb(0, 0, 0)" stroke-opacity="1.0" stroke-linecap="round" stroke-linejoin="round"/>
    <path d="M 53.43986892700195 197.2913360595703 C 40.68363571166992 167.63272094726562 29.189815521240234 169.4503173828125 36.15950393676758 152.69207763671875" stroke-width="3.0" fill="none" stroke="rgb(0, 0, 0)" stroke-opacity="1.0" stroke-linecap="round" stroke-linejoin="round"/>
    <path d="M 127.10828399658203 163.66639709472656 C 176.2744903564453 80.38847351074219 177.55059814453125 109.24922943115234 175.42144775390625 86.4674072265625" stroke-width="3.0" fill="none" stroke="rgb(0, 0, 0)" stroke-opacity="1.0" stroke-linecap="round" stroke-linejoin="round"/>
    <path d="M 155.5818634033203 59.16359329223633 C 213.65524291992188 94.74156188964844 187.65045166015625 67.78179168701172 144.07540893554688 127.95952606201172" stroke-width="3.0" fill="none" stroke="rgb(0, 0, 0)" stroke-opacity="1.0" stroke-linecap="round" stroke-linejoin="round"/>
    <path d="M 26.558088302612305 82.6105728149414 C 25.44993782043457 86.1358642578125 22.38117027282715 82.29065704345703 22.329227447509766 82.81420135498047" stroke-width="3.0" fill="none" stroke="rgb(0, 0, 0)" stroke-opacity="1.0" stroke-linecap="round" stroke-linejoin="round"/>
    <path d="M 66.48236846923828 144.47454833984375 C 69.71463775634766 132.6065673828125 49.948272705078125 133.19358825683594 54.655792236328125 133.98992919921875" stroke-width="3.0" fill="none" stroke="rgb(0, 0, 0)" stroke-opacity="1.0" stroke-linecap="round" stroke-linejoin="round"/>
  </g>
</svg>
