<?xml version="1.0" ?>
<svg xmlns="http://www.w3.org/2000/svg" version="1.1" width="224" height="224">
  <defs/>
  <g>
    <path d="M 128.76385498046875 127.19277954101562 C 137.93045043945312 93.79966735839844 145.7740478515625 79.34054565429688 154.76141357421875 61.29615020751953" stroke-width="3.0" fill="none" stroke="rgb(0, 0, 0)" stroke-opacity="1.0" stroke-linecap="round" stroke-linejoin="round"/>
    <path d="M 32.607940673828125 139.1383056640625 C 2.886798143386841 119.6184310913086 23.741052627563477 111.87120819091797 22.934602737426758 138.95315551757812" stroke-width="3.0" fill="none" stroke="rgb(0, 0, 0)" stroke-opacity="1.0" stroke-linecap="round" stroke-linejoin="round"/>
    <path d="M 126.18708038330078 86.38497924804688 C 86.06239318847656 44.44626235961914 71.35330200195312 172.07159423828125 113.98653411865234 109.5257797241211" stroke-width="3.0" fill="none" stroke="rgb(0, 0, 0)" stroke-opacity="1.0" stroke-linecap="round" stroke-linejoin="round"/>
    <path d="M 40.34263610839844 77.7956314086914 C 95.96000671386719 53.321632385253906 79.68114471435547 172.879638671875 46.46076202392578 112.72152709960938" stroke-width="3.0" fill="none" stroke="rgb(0, 0, 0)" stroke-opacity="1.0" stroke-linecap="round" stroke-linejoin="round"/>
    <path d="M 152.00311279296875 64.24266052246094 C 195.4840087890625 78.7354965209961 147.0035858154297 114.99102020263672 161.9893798828125 94.86375427246094" stroke-width="3.0" fill="none" stroke="rgb(0, 0, 0)" stroke-opacity="1.0" stroke-linecap="round" stroke-linejoin="round"/>
    <path d="M 124.1808090209961 99.1126480102539 C 104.63745880126953 116.98777770996094 107.39685821533203 131.88490295410156 152.56919860839844 52.29042053222656" stroke-width="3.0" fill="none" stroke="rgb(0, 0, 0)" stroke-opacity="1.0" stroke-linecap="round" stroke-linejoin="round"/>
    <path d="M 7.308527946472168 95.50489044189453 C -0.9140278100967407 60.76361846923828 8.472383499145508 95.63434600830078 3.107517719268799 110.25275421142578" stroke-width="3.0" fill="none" stroke="rgb(0, 0, 0)" stroke-opacity="1.0" stroke-linecap="round" stroke-linejoin="round"/>
    <path d="M 76.0633316040039 154.28598022460938 C 67.29150390625 139.8850555419922 85.89872741699219 145.69796752929688 82.79159545898438 135.7736358642578" stroke-width="3.0" fill="none" stroke="rgb(0, 0, 0)" stroke-opacity="1.0" stroke-linecap="round" stroke-linejoin="round"/>
    <path d="M 67.14103698730469 157.43077087402344 C 75.61650848388672 158.7836151123047 86.15422821044922 164.01914978027344 54.870094299316406 198.9075927734375" stroke-width="3.0" fill="none" stroke="rgb(0, 0, 0)" stroke-opacity="1.0" stroke-linecap="round" stroke-linejoin="round"/>
    <path d="M 49.99519348144531 114.41725158691406 C 67.1302490234375 38.38848114013672 -33.84331512451172 108.98755645751953 50.90323257446289 110.99281311035156" stroke-width="3.0" fill="none" stroke="rgb(0, 0, 0)" stroke-opacity="1.0" stroke-linecap="round" stroke-linejoin="round"/>
    <path d="M 81.74142456054688 131.40866088867188 C 102.45893096923828 122.56761169433594 78.93782043457031 99.34320068359375 93.29154968261719 96.90727996826172" stroke-width="3.0" fill="none" stroke="rgb(0, 0, 0)" stroke-opacity="1.0" stroke-linecap="round" stroke-linejoin="round"/>
    <path d="M 84.00448608398438 72.85460662841797 C 95.36369323730469 80.62406921386719 83.99390411376953 84.60257720947266 88.82674407958984 81.6041259765625" stroke-width="3.0" fill="none" stroke="rgb(0, 0, 0)" stroke-opacity="1.0" stroke-linecap="round" stroke-linejoin="round"/>
    <path d="M 12.607089042663574 112.10665893554688 C 27.316234588623047 124.44439697265625 -21.77910041809082 67.54285430908203 31.558629989624023 154.7677001953125" stroke-width="3.0" fill="none" stroke="rgb(0, 0, 0)" stroke-opacity="1.0" stroke-linecap="round" stroke-linejoin="round"/>
    <path d="M 56.62394332885742 186.652587890625 C 120.0235366821289 137.037841796875 17.60346221923828 165.24159240722656 63.91717529296875 183.5101318359375" stroke-width="3.0" fill="none" stroke="rgb(0, 0, 0)" stroke-opacity="1.0" stroke-linecap="round" stroke-linejoin="round"/>
    <path d="M 145.1101837158203 87.51666259765625 C 148.1447296142578 108.91535186767578 151.47157287597656 44.44224548339844 156.4829559326172 60.219703674316406" stroke-width="3.0" fill="none" stroke="rgb(0, 0, 0)" stroke-opacity="1.0" stroke-linecap="round" stroke-linejoin="round"/>
    <path d="M -8.56764030456543 69.86402130126953 C 11.453707695007324 59.07760238647461 41.4432258605957 44.981510162353516 66.146728515625 54.930728912353516" stroke-width="3.0" fill="none" stroke="rgb(0, 0, 0)" stroke-opacity="1.0" stroke-linecap="round" stroke-linejoin="round"/>
    <path d="M -4.297797679901123 76.57766723632812 C 76.7634048461914 55.958335876464844 79.9438705444336 53.8018913269043 141.78782653808594 73.09674072265625" stroke-width="3.0" fill="none" stroke="rgb(0, 0, 0)" stroke-opacity="1.0" stroke-linecap="round" stroke-linejoin="round"/>
    <path d="M 48.32311248779297 176.30374145507812 C 36.27003479003906 155.99703979492188 17.186784744262695 124.58292388916016 37.28181076049805 165.53907775878906" stroke-width="3.0" fill="none" stroke="rgb(0, 0, 0)" stroke-opacity="1.0" stroke-linecap="round" stroke-linejoin="round"/>
    <path d="M 113.2848892211914 171.54063415527344 C 132.3361358642578 88.17731475830078 141.90115356445312 127.48268127441406 125.21080017089844 130.04823303222656" stroke-width="3.0" fill="none" stroke="rgb(0, 0, 0)" stroke-opacity="1.0" stroke-linecap="round" stroke-linejoin="round"/>
    <path d="M 38.04301452636719 157.76890563964844 C 45.24398422241211 188.06082153320312 79.24165344238281 139.32998657226562 29.146270751953125 144.8213348388672" stroke-width="3.0" fill="none" stroke="rgb(0, 0, 0)" stroke-opacity="1.0" stroke-linecap="round" stroke-linejoin="round"/>
    <path d="M 131.71347045898438 134.60394287109375 C 87.1913833618164 202.3880615234375 109.78472137451172 201.46255493164062 131.54847717285156 149.2169189453125" stroke-width="3.0" fill="none" stroke="rgb(0, 0, 0)" stroke-opacity="1.0" stroke-linecap="round" stroke-linejoin="round"/>
    <path d="M 71.67183685302734 168.76976013183594 C 141.61033630371094 82.71075439453125 91.06798553466797 122.48396301269531 94.37354278564453 86.13854217529297" stroke-width="3.0" fill="none" stroke="rgb(0, 0, 0)" stroke-opacity="1.0" stroke-linecap="round" stroke-linejoin="round"/>
    <path d="M 125.45541381835938 95.45580291748047 C 136.94248962402344 68.89567565917969 133.8097381591797 91.98693084716797 145.21676635742188 68.28778839111328" stroke-width="3.0" fill="none" stroke="rgb(0, 0, 0)" stroke-opacity="1.0" stroke-linecap="round" stroke-linejoin="round"/>
    <path d="M 25.470746994018555 142.59413146972656 C 72.4952621459961 126.46565246582031 1.6513755321502686 96.37665557861328 20.414146423339844 135.0704345703125" stroke-width="3.0" fill="none" stroke="rgb(0, 0, 0)" stroke-opacity="1.0" stroke-linecap="round" stroke-linejoin="round"/>
    <path d="M 160.9186553955078 57.29121780395508 C 129.98974609375 41.077022552490234 215.32107543945312 75.51994323730469 189.0150909423828 82.65623474121094" stroke-width="3.0" fill="none" stroke="rgb(0, 0, 0)" stroke-opacity="1.0" stroke-linecap="round" stroke-linejoin="round"/>
    <path d="M 155.3079833984375 76.53450012207031 C 125.31848907470703 95.38917541503906 159.75582885742188 102.44654083251953 138.164306640625 122.16166687011719" stroke-width="3.0" fill="none" stroke="rgb(0, 0, 0)" stroke-opacity="1.0" stroke-linecap="round" stroke-linejoin="round"/>
    <path d="M 63.37562561035156 53.19933319091797 C 131.2328338623047 47.323204040527344 203.1066131591797 82.38899230957031 77.59919738769531 51.866207122802734" stroke-width="3.0" fill="none" stroke="rgb(0, 0, 0)" stroke-opacity="1.0" stroke-linecap="round" stroke-linejoin="round"/>
    <path d="M 53.307064056396484 194.9511260986328 C 43.497222900390625 168.4478302001953 30.865108489990234 169.60118103027344 35.41583251953125 146.7989501953125" stroke-width="3.0" fill="none" stroke="rgb(0, 0, 0)" stroke-opacity="1.0" stroke-linecap="round" stroke-linejoin="round"/>
    <path d="M 121.25581359863281 162.42098999023438 C 196.76467895507812 86.27953338623047 172.52392578125 80.93769073486328 166.42327880859375 78.52779388427734" stroke-width="3.0" fill="none" stroke="rgb(0, 0, 0)" stroke-opacity="1.0" stroke-linecap="round" stroke-linejoin="round"/>
    <path d="M 157.5960235595703 52.623565673828125 C 215.45001220703125 92.66368865966797 178.70437622070312 75.47620391845703 136.60890197753906 144.33407592773438" stroke-width="3.0" fill="none" stroke="rgb(0, 0, 0)" stroke-opacity="1.0" stroke-linecap="round" stroke-linejoin="round"/>
    <path d="M 54.71237564086914 52.445674896240234 C -49.61247253417969 77.5462875366211 -29.329553604125977 87.30767059326172 37.01860809326172 66.2815933227539" stroke-width="3.0" fill="none" stroke="rgb(0, 0, 0)" stroke-opacity="1.0" stroke-linecap="round" stroke-linejoin="round"/>
    <path d="M 76.98641967773438 150.65621948242188 C 86.0159683227539 141.14622497558594 63.387027740478516 154.67652893066406 67.14433288574219 142.70217895507812" stroke-width="3.0" fill="none" stroke="rgb(0, 0, 0)" stroke-opacity="1.0" stroke-linecap="round" stroke-linejoin="round"/>
  </g>
</svg>
