<?xml version="1.0" ?>
<svg xmlns="http://www.w3.org/2000/svg" version="1.1" width="224" height="224">
  <defs/>
  <g>
    <path d="M 126.86161804199219 128.9193878173828 C 139.88827514648438 94.29093170166016 144.60507202148438 77.16402435302734 159.15113830566406 73.45263671875" stroke-width="3.0" fill="none" stroke="rgb(0, 0, 0)" stroke-opacity="1.0" stroke-linecap="round" stroke-linejoin="round"/>
    <path d="M 29.734004974365234 139.43748474121094 C 0.880337119102478 122.91853332519531 22.855003356933594 114.83352661132812 26.901277542114258 141.7369384765625" stroke-width="3.0" fill="none" stroke="rgb(0, 0, 0)" stroke-opacity="1.0" stroke-linecap="round" stroke-linejoin="round"/>
    <path d="M 126.77351379394531 90.60601806640625 C 94.5041275024414 30.931039810180664 75.29141235351562 167.2596435546875 112.67559051513672 108.80816650390625" stroke-width="3.0" fill="none" stroke="rgb(0, 0, 0)" stroke-opacity="1.0" stroke-linecap="round" stroke-linejoin="round"/>
    <path d="M 45.108909606933594 79.11725616455078 C 104.21062469482422 39.483280181884766 84.99964141845703 167.38392639160156 48.167022705078125 112.70551300048828" stroke-width="3.0" fill="none" stroke="rgb(0, 0, 0)" stroke-opacity="1.0" stroke-linecap="round" stroke-linejoin="round"/>
    <path d="M 154.9303741455078 68.31585693359375 C 193.35174560546875 80.74444580078125 142.5766143798828 116.01615142822266 172.59303283691406 89.51602935791016" stroke-width="3.0" fill="none" stroke="rgb(0, 0, 0)" stroke-opacity="1.0" stroke-linecap="round" stroke-linejoin="round"/>
    <path d="M 122.5432357788086 97.06282806396484 C 104.40017700195312 114.4541015625 106.13810729980469 128.7722930908203 153.89430236816406 56.1033935546875" stroke-width="3.0" fill="none" stroke="rgb(0, 0, 0)" stroke-opacity="1.0" stroke-linecap="round" stroke-linejoin="round"/>
    <path d="M 10.840511322021484 95.79733276367188 C -4.510067462921143 75.12098693847656 21.589988708496094 89.05188751220703 5.5971527099609375 106.83635711669922" stroke-width="3.0" fill="none" stroke="rgb(0, 0, 0)" stroke-opacity="1.0" stroke-linecap="round" stroke-linejoin="round"/>
    <path d="M 79.41979217529297 155.88644409179688 C 73.51981353759766 148.87525939941406 92.39280700683594 134.7847900390625 78.97083282470703 126.29302215576172" stroke-width="3.0" fill="none" stroke="rgb(0, 0, 0)" stroke-opacity="1.0" stroke-linecap="round" stroke-linejoin="round"/>
    <path d="M 65.16411590576172 157.46688842773438 C 76.17327117919922 154.43780517578125 84.23277282714844 157.9718017578125 54.59531784057617 200.1806182861328" stroke-width="3.0" fill="none" stroke="rgb(0, 0, 0)" stroke-opacity="1.0" stroke-linecap="round" stroke-linejoin="round"/>
    <path d="M 52.3759765625 110.931640625 C 64.32244873046875 40.939266204833984 -24.494457244873047 111.51361846923828 50.355735778808594 109.40755462646484" stroke-width="3.0" fill="none" stroke="rgb(0, 0, 0)" stroke-opacity="1.0" stroke-linecap="round" stroke-linejoin="round"/>
    <path d="M 93.3992691040039 119.03308868408203 C 108.00796508789062 129.65850830078125 80.12740325927734 93.28333282470703 96.7476577758789 92.90658569335938" stroke-width="3.0" fill="none" stroke="rgb(0, 0, 0)" stroke-opacity="1.0" stroke-linecap="round" stroke-linejoin="round"/>
    <path d="M 76.91509246826172 70.51019287109375 C 99.41239166259766 81.8375015258789 84.48635864257812 91.25702667236328 86.96549224853516 76.96370697021484" stroke-width="3.0" fill="none" stroke="rgb(0, 0, 0)" stroke-opacity="1.0" stroke-linecap="round" stroke-linejoin="round"/>
    <path d="M 9.217048645019531 114.12272644042969 C 25.256376266479492 128.98577880859375 -23.2252197265625 71.05328369140625 31.062091827392578 156.42437744140625" stroke-width="3.0" fill="none" stroke="rgb(0, 0, 0)" stroke-opacity="1.0" stroke-linecap="round" stroke-linejoin="round"/>
    <path d="M 55.8937873840332 192.65806579589844 C 120.48233795166016 141.53480529785156 15.258617401123047 160.24520874023438 64.52003479003906 183.05560302734375" stroke-width="3.0" fill="none" stroke="rgb(0, 0, 0)" stroke-opacity="1.0" stroke-linecap="round" stroke-linejoin="round"/>
    <path d="M 152.8854217529297 88.45193481445312 C 148.02381896972656 106.52214050292969 151.86781311035156 42.97199249267578 160.8821563720703 62.706031799316406" stroke-width="3.0" fill="none" stroke="rgb(0, 0, 0)" stroke-opacity="1.0" stroke-linecap="round" stroke-linejoin="round"/>
    <path d="M -8.767773628234863 69.9549789428711 C 2.739102363586426 56.32677459716797 38.533145904541016 45.36114501953125 70.78300476074219 52.775455474853516" stroke-width="3.0" fill="none" stroke="rgb(0, 0, 0)" stroke-opacity="1.0" stroke-linecap="round" stroke-linejoin="round"/>
    <path d="M -3.8432135581970215 78.41193389892578 C 80.8722152709961 51.8772087097168 74.43934631347656 56.74477005004883 141.88954162597656 71.07846069335938" stroke-width="3.0" fill="none" stroke="rgb(0, 0, 0)" stroke-opacity="1.0" stroke-linecap="round" stroke-linejoin="round"/>
    <path d="M 50.65214157104492 184.58428955078125 C 34.86994171142578 157.71893310546875 16.073104858398438 127.63512420654297 34.252288818359375 163.62603759765625" stroke-width="3.0" fill="none" stroke="rgb(0, 0, 0)" stroke-opacity="1.0" stroke-linecap="round" stroke-linejoin="round"/>
    <path d="M 115.43340301513672 166.72119140625 C 129.8668975830078 92.59858703613281 134.9248046875 131.308349609375 129.21170043945312 129.6994171142578" stroke-width="3.0" fill="none" stroke="rgb(0, 0, 0)" stroke-opacity="1.0" stroke-linecap="round" stroke-linejoin="round"/>
    <path d="M 37.311546325683594 162.51824951171875 C 42.254520416259766 186.67359924316406 79.443603515625 137.98553466796875 29.327533721923828 149.1233367919922" stroke-width="3.0" fill="none" stroke="rgb(0, 0, 0)" stroke-opacity="1.0" stroke-linecap="round" stroke-linejoin="round"/>
    <path d="M 132.70611572265625 135.7269287109375 C 86.63385009765625 201.8763427734375 107.42951965332031 196.53512573242188 133.61825561523438 150.42127990722656" stroke-width="3.0" fill="none" stroke="rgb(0, 0, 0)" stroke-opacity="1.0" stroke-linecap="round" stroke-linejoin="round"/>
    <path d="M 71.0665054321289 172.34535217285156 C 141.5321807861328 75.96076965332031 90.29149627685547 125.97399139404297 97.71051025390625 84.50763702392578" stroke-width="3.0" fill="none" stroke="rgb(0, 0, 0)" stroke-opacity="1.0" stroke-linecap="round" stroke-linejoin="round"/>
    <path d="M 123.49569702148438 100.31963348388672 C 125.47521209716797 64.78819274902344 140.02230834960938 101.40337371826172 146.2903289794922 65.322265625" stroke-width="3.0" fill="none" stroke="rgb(0, 0, 0)" stroke-opacity="1.0" stroke-linecap="round" stroke-linejoin="round"/>
    <path d="M 29.426054000854492 146.42027282714844 C 72.95289611816406 125.97256469726562 -3.6823761463165283 94.30879974365234 22.572978973388672 135.8976287841797" stroke-width="3.0" fill="none" stroke="rgb(0, 0, 0)" stroke-opacity="1.0" stroke-linecap="round" stroke-linejoin="round"/>
    <path d="M 159.54002380371094 60.71293258666992 C 127.16130065917969 42.39035415649414 208.59414672851562 77.09374237060547 184.0778045654297 83.48296356201172" stroke-width="3.0" fill="none" stroke="rgb(0, 0, 0)" stroke-opacity="1.0" stroke-linecap="round" stroke-linejoin="round"/>
    <path d="M 153.6353302001953 81.3408203125 C 129.10861206054688 96.20242309570312 164.22865295410156 95.14747619628906 137.50135803222656 125.3564682006836" stroke-width="3.0" fill="none" stroke="rgb(0, 0, 0)" stroke-opacity="1.0" stroke-linecap="round" stroke-linejoin="round"/>
    <path d="M 64.52035522460938 52.633731842041016 C 124.8603744506836 45.51980209350586 197.38668823242188 80.28986358642578 90.48934936523438 51.41222381591797" stroke-width="3.0" fill="none" stroke="rgb(0, 0, 0)" stroke-opacity="1.0" stroke-linecap="round" stroke-linejoin="round"/>
    <path d="M 53.515071868896484 196.63177490234375 C 46.40941619873047 166.78375244140625 28.73052406311035 168.86398315429688 34.18683624267578 148.90066528320312" stroke-width="3.0" fill="none" stroke="rgb(0, 0, 0)" stroke-opacity="1.0" stroke-linecap="round" stroke-linejoin="round"/>
    <path d="M 122.37106323242188 163.82017517089844 C 193.7263641357422 84.83556365966797 168.8566131591797 81.04795837402344 167.58413696289062 84.12393951416016" stroke-width="3.0" fill="none" stroke="rgb(0, 0, 0)" stroke-opacity="1.0" stroke-linecap="round" stroke-linejoin="round"/>
    <path d="M 157.7290496826172 57.71413040161133 C 209.0867919921875 95.35127258300781 173.9783172607422 74.4691162109375 139.82144165039062 142.78472900390625" stroke-width="3.0" fill="none" stroke="rgb(0, 0, 0)" stroke-opacity="1.0" stroke-linecap="round" stroke-linejoin="round"/>
    <path d="M 60.336631774902344 53.22140121459961 C -50.76691818237305 71.22509002685547 -21.89036750793457 89.73696899414062 46.13023376464844 60.14311981201172" stroke-width="3.0" fill="none" stroke="rgb(0, 0, 0)" stroke-opacity="1.0" stroke-linecap="round" stroke-linejoin="round"/>
    <path d="M 81.94963073730469 150.9334259033203 C 86.65986633300781 137.83140563964844 63.976863861083984 149.80062866210938 66.6888656616211 145.0850067138672" stroke-width="3.0" fill="none" stroke="rgb(0, 0, 0)" stroke-opacity="1.0" stroke-linecap="round" stroke-linejoin="round"/>
  </g>
</svg>
