<?xml version="1.0" ?>
<svg xmlns="http://www.w3.org/2000/svg" version="1.1" width="224" height="224">
  <defs/>
  <g>
    <path d="M 131.2135467529297 123.31627655029297 C 138.5772247314453 94.10012817382812 146.9126739501953 82.22473907470703 153.917724609375 64.36778259277344" stroke-width="3.0" fill="none" stroke="rgb(0, 0, 0)" stroke-opacity="1.0" stroke-linecap="round" stroke-linejoin="round"/>
    <path d="M 26.45659065246582 143.45614624023438 C 3.2063052654266357 115.58228302001953 24.013776779174805 103.19345092773438 22.14432716369629 135.2604217529297" stroke-width="3.0" fill="none" stroke="rgb(0, 0, 0)" stroke-opacity="1.0" stroke-linecap="round" stroke-linejoin="round"/>
    <path d="M 130.17529296875 87.27253723144531 C 83.73612976074219 38.25851058959961 85.59707641601562 162.62451171875 116.31916809082031 106.87761688232422" stroke-width="3.0" fill="none" stroke="rgb(0, 0, 0)" stroke-opacity="1.0" stroke-linecap="round" stroke-linejoin="round"/>
    <path d="M 38.92937088012695 78.91058349609375 C 99.97069549560547 44.002418518066406 80.29476165771484 165.24623107910156 46.1084098815918 113.5871810913086" stroke-width="3.0" fill="none" stroke="rgb(0, 0, 0)" stroke-opacity="1.0" stroke-linecap="round" stroke-linejoin="round"/>
    <path d="M 155.56268310546875 65.22547912597656 C 196.7085418701172 78.79747772216797 140.95443725585938 112.73192596435547 162.51840209960938 91.68058013916016" stroke-width="3.0" fill="none" stroke="rgb(0, 0, 0)" stroke-opacity="1.0" stroke-linecap="round" stroke-linejoin="round"/>
    <path d="M 123.20460510253906 98.09305572509766 C 98.19247436523438 109.57361602783203 106.40592956542969 129.5896759033203 151.44337463378906 61.16674041748047" stroke-width="3.0" fill="none" stroke="rgb(0, 0, 0)" stroke-opacity="1.0" stroke-linecap="round" stroke-linejoin="round"/>
    <path d="M 9.661787033081055 92.09041595458984 C -10.345109939575195 75.92793273925781 18.5664005279541 96.95233917236328 6.062467098236084 104.20183563232422" stroke-width="3.0" fill="none" stroke="rgb(0, 0, 0)" stroke-opacity="1.0" stroke-linecap="round" stroke-linejoin="round"/>
    <path d="M 74.08431243896484 161.54246520996094 C 68.57518768310547 146.68734741210938 82.79745483398438 155.43704223632812 79.43965148925781 144.12306213378906" stroke-width="3.0" fill="none" stroke="rgb(0, 0, 0)" stroke-opacity="1.0" stroke-linecap="round" stroke-linejoin="round"/>
    <path d="M 59.2196159362793 157.60801696777344 C 77.3690185546875 151.5800323486328 85.15645599365234 161.21510314941406 56.255645751953125 197.17771911621094" stroke-width="3.0" fill="none" stroke="rgb(0, 0, 0)" stroke-opacity="1.0" stroke-linecap="round" stroke-linejoin="round"/>
    <path d="M 46.765296936035156 112.38763427734375 C 66.42462921142578 36.36901092529297 -28.61397361755371 106.06278228759766 48.84935760498047 113.20048522949219" stroke-width="3.0" fill="none" stroke="rgb(0, 0, 0)" stroke-opacity="1.0" stroke-linecap="round" stroke-linejoin="round"/>
    <path d="M 81.15237426757812 138.6368408203125 C 95.70651245117188 129.7438201904297 88.4861831665039 117.5119400024414 91.40380859375 126.047607421875" stroke-width="3.0" fill="none" stroke="rgb(0, 0, 0)" stroke-opacity="1.0" stroke-linecap="round" stroke-linejoin="round"/>
    <path d="M 85.83450317382812 75.17487335205078 C 92.00119018554688 82.08732604980469 93.42655181884766 76.53790283203125 87.75508117675781 77.5683364868164" stroke-width="3.0" fill="none" stroke="rgb(0, 0, 0)" stroke-opacity="1.0" stroke-linecap="round" stroke-linejoin="round"/>
    <path d="M 8.2901611328125 112.0556869506836 C 26.909421920776367 128.4657745361328 -17.642131805419922 70.87421417236328 29.251371383666992 151.8167266845703" stroke-width="3.0" fill="none" stroke="rgb(0, 0, 0)" stroke-opacity="1.0" stroke-linecap="round" stroke-linejoin="round"/>
    <path d="M 56.18294143676758 190.5980987548828 C 112.6379623413086 140.76060485839844 34.377716064453125 161.0836181640625 56.9015998840332 180.94204711914062" stroke-width="3.0" fill="none" stroke="rgb(0, 0, 0)" stroke-opacity="1.0" stroke-linecap="round" stroke-linejoin="round"/>
    <path d="M 148.22793579101562 84.32325744628906 C 152.24620056152344 104.08293151855469 145.3301239013672 44.89347457885742 155.87301635742188 59.79340362548828" stroke-width="3.0" fill="none" stroke="rgb(0, 0, 0)" stroke-opacity="1.0" stroke-linecap="round" stroke-linejoin="round"/>
    <path d="M -3.4987587928771973 69.91361999511719 C 9.387073516845703 55.099491119384766 43.22479248046875 49.7940559387207 62.16663360595703 52.049163818359375" stroke-width="3.0" fill="none" stroke="rgb(0, 0, 0)" stroke-opacity="1.0" stroke-linecap="round" stroke-linejoin="round"/>
    <path d="M -5.304406642913818 77.03617095947266 C 53.75200653076172 53.89887619018555 97.505859375 54.69087600708008 139.9281768798828 75.6509017944336" stroke-width="3.0" fill="none" stroke="rgb(0, 0, 0)" stroke-opacity="1.0" stroke-linecap="round" stroke-linejoin="round"/>
    <path d="M 42.733680725097656 177.1826171875 C 34.164329528808594 155.1251983642578 13.296184539794922 120.09992218017578 37.425960540771484 170.45062255859375" stroke-width="3.0" fill="none" stroke="rgb(0, 0, 0)" stroke-opacity="1.0" stroke-linecap="round" stroke-linejoin="round"/>
    <path d="M 111.38459014892578 172.0506134033203 C 134.5172119140625 84.66327667236328 146.48666381835938 118.29422760009766 127.77872467041016 127.6456527709961" stroke-width="3.0" fill="none" stroke="rgb(0, 0, 0)" stroke-opacity="1.0" stroke-linecap="round" stroke-linejoin="round"/>
    <path d="M 36.744266510009766 165.2412567138672 C 44.24549865722656 191.7764892578125 78.9775390625 137.3084259033203 32.411354064941406 150.4976806640625" stroke-width="3.0" fill="none" stroke="rgb(0, 0, 0)" stroke-opacity="1.0" stroke-linecap="round" stroke-linejoin="round"/>
    <path d="M 133.01788330078125 136.62408447265625 C 82.54537200927734 195.2677001953125 109.30484008789062 203.8314208984375 133.4375762939453 152.32688903808594" stroke-width="3.0" fill="none" stroke="rgb(0, 0, 0)" stroke-opacity="1.0" stroke-linecap="round" stroke-linejoin="round"/>
    <path d="M 68.58692169189453 172.5159454345703 C 135.28956604003906 88.98942565917969 100.38911437988281 126.28618621826172 90.82841491699219 93.40434265136719" stroke-width="3.0" fill="none" stroke="rgb(0, 0, 0)" stroke-opacity="1.0" stroke-linecap="round" stroke-linejoin="round"/>
    <path d="M 127.24588012695312 93.3998031616211 C 138.98165893554688 71.73683166503906 135.23789978027344 92.13089752197266 142.9713897705078 63.69159698486328" stroke-width="3.0" fill="none" stroke="rgb(0, 0, 0)" stroke-opacity="1.0" stroke-linecap="round" stroke-linejoin="round"/>
    <path d="M 27.811233520507812 144.35125732421875 C 68.61416625976562 127.62834167480469 -3.090559959411621 94.30367279052734 23.290630340576172 131.3131561279297" stroke-width="3.0" fill="none" stroke="rgb(0, 0, 0)" stroke-opacity="1.0" stroke-linecap="round" stroke-linejoin="round"/>
    <path d="M 157.224365234375 61.310874938964844 C 131.6247100830078 37.38477325439453 213.10873413085938 77.65656280517578 182.79335021972656 85.60592651367188" stroke-width="3.0" fill="none" stroke="rgb(0, 0, 0)" stroke-opacity="1.0" stroke-linecap="round" stroke-linejoin="round"/>
    <path d="M 154.7306365966797 76.2813949584961 C 131.64479064941406 91.98983001708984 163.13824462890625 93.73922729492188 145.70468139648438 120.19718933105469" stroke-width="3.0" fill="none" stroke="rgb(0, 0, 0)" stroke-opacity="1.0" stroke-linecap="round" stroke-linejoin="round"/>
    <path d="M 57.29560852050781 52.3000602722168 C 138.1042022705078 49.63721466064453 195.93667602539062 80.38787841796875 69.24152374267578 51.27677917480469" stroke-width="3.0" fill="none" stroke="rgb(0, 0, 0)" stroke-opacity="1.0" stroke-linecap="round" stroke-linejoin="round"/>
    <path d="M 53.75265884399414 200.41917419433594 C 42.065574645996094 168.8268585205078 30.052717208862305 167.78488159179688 35.83604431152344 151.83314514160156" stroke-width="3.0" fill="none" stroke="rgb(0, 0, 0)" stroke-opacity="1.0" stroke-linecap="round" stroke-linejoin="round"/>
    <path d="M 121.53897857666016 166.86624145507812 C 194.1369171142578 87.91289520263672 170.02694702148438 83.87602233886719 165.5158233642578 80.83738708496094" stroke-width="3.0" fill="none" stroke="rgb(0, 0, 0)" stroke-opacity="1.0" stroke-linecap="round" stroke-linejoin="round"/>
    <path d="M 156.8740692138672 53.185638427734375 C 210.4065399169922 91.80288696289062 174.13339233398438 74.0337142944336 138.15988159179688 146.8060760498047" stroke-width="3.0" fill="none" stroke="rgb(0, 0, 0)" stroke-opacity="1.0" stroke-linecap="round" stroke-linejoin="round"/>
    <path d="M 51.23851776123047 62.51336669921875 C -22.99531364440918 91.55561065673828 -20.059659957885742 87.93214416503906 13.668949127197266 71.66729736328125" stroke-width="3.0" fill="none" stroke="rgb(0, 0, 0)" stroke-opacity="1.0" stroke-linecap="round" stroke-linejoin="round"/>
    <path d="M 62.96276092529297 149.11656188964844 C 76.65568542480469 140.5891571044922 59.263946533203125 147.91439819335938 73.37271881103516 140.8081512451172" stroke-width="3.0" fill="none" stroke="rgb(0, 0, 0)" stroke-opacity="1.0" stroke-linecap="round" stroke-linejoin="round"/>
  </g>
</svg>
