<?xml version="1.0" ?>
<svg xmlns="http://www.w3.org/2000/svg" version="1.1" width="224" height="224">
  <defs/>
  <g>
    <path d="M 156.7381591796875 97.90485382080078 C 155.21873474121094 97.39170837402344 145.75830078125 93.55406188964844 149.3511199951172 97.43467712402344" stroke-width="3.0" fill="none" stroke="rgb(0, 0, 0)" stroke-opacity="1.0" stroke-linecap="round" stroke-linejoin="round"/>
    <path d="M 23.73748207092285 127.9587173461914 C 35.51530838012695 122.05982971191406 38.449859619140625 125.62565612792969 22.91130256652832 131.4556427001953" stroke-width="3.0" fill="none" stroke="rgb(0, 0, 0)" stroke-opacity="1.0" stroke-linecap="round" stroke-linejoin="round"/>
    <path d="M 112.00788879394531 110.20223999023438 C 79.92511749267578 99.7428970336914 85.63529205322266 120.17893981933594 102.00702667236328 125.6894760131836" stroke-width="3.0" fill="none" stroke="rgb(0, 0, 0)" stroke-opacity="1.0" stroke-linecap="round" stroke-linejoin="round"/>
    <path d="M 55.02434158325195 95.88066864013672 C 90.4046859741211 84.8479995727539 77.50382995605469 124.31710815429688 54.68342208862305 101.76463317871094" stroke-width="3.0" fill="none" stroke="rgb(0, 0, 0)" stroke-opacity="1.0" stroke-linecap="round" stroke-linejoin="round"/>
    <path d="M 151.09178161621094 89.54412078857422 C 142.94903564453125 93.51105499267578 141.87074279785156 85.6005859375 146.2339324951172 88.48622131347656" stroke-width="3.0" fill="none" stroke="rgb(0, 0, 0)" stroke-opacity="1.0" stroke-linecap="round" stroke-linejoin="round"/>
    <path d="M 108.54619598388672 120.5151138305664 C 108.0029296875 131.97750854492188 101.6993408203125 125.3134765625 113.88841247558594 116.18035888671875" stroke-width="3.0" fill="none" stroke="rgb(0, 0, 0)" stroke-opacity="1.0" stroke-linecap="round" stroke-linejoin="round"/>
    <path d="M 5.4526495933532715 83.51107788085938 C 7.388339519500732 88.240966796875 19.647924423217773 95.9925765991211 8.752178192138672 106.66417694091797" stroke-width="3.0" fill="none" stroke="rgb(0, 0, 0)" stroke-opacity="1.0" stroke-linecap="round" stroke-linejoin="round"/>
    <path d="M 73.67887115478516 155.0163116455078 C 68.5169677734375 144.7861785888672 72.41452026367188 155.35919189453125 73.59024810791016 144.68267822265625" stroke-width="3.0" fill="none" stroke="rgb(0, 0, 0)" stroke-opacity="1.0" stroke-linecap="round" stroke-linejoin="round"/>
    <path d="M 64.21930694580078 168.7720489501953 C 69.74406433105469 163.82960510253906 76.678955078125 171.0865020751953 53.479034423828125 200.9011993408203" stroke-width="3.0" fill="none" stroke="rgb(0, 0, 0)" stroke-opacity="1.0" stroke-linecap="round" stroke-linejoin="round"/>
    <path d="M 41.4927978515625 92.600830078125 C 66.72566223144531 90.51520538330078 32.24047088623047 92.84392547607422 37.35325241088867 89.10159301757812" stroke-width="3.0" fill="none" stroke="rgb(0, 0, 0)" stroke-opacity="1.0" stroke-linecap="round" stroke-linejoin="round"/>
    <path d="M 96.58214569091797 136.79690551757812 C 102.1282958984375 146.78244018554688 92.74401092529297 134.79681396484375 95.52942657470703 136.19203186035156" stroke-width="3.0" fill="none" stroke="rgb(0, 0, 0)" stroke-opacity="1.0" stroke-linecap="round" stroke-linejoin="round"/>
    <path d="M 102.07052612304688 84.105224609375 C 112.29450225830078 84.48473358154297 98.56114196777344 89.51261138916016 104.724609375 86.23357391357422" stroke-width="3.0" fill="none" stroke="rgb(0, 0, 0)" stroke-opacity="1.0" stroke-linecap="round" stroke-linejoin="round"/>
    <path d="M 11.328653335571289 113.19000244140625 C 13.687310218811035 124.2600326538086 14.030184745788574 102.65304565429688 18.95335578918457 125.81615447998047" stroke-width="3.0" fill="none" stroke="rgb(0, 0, 0)" stroke-opacity="1.0" stroke-linecap="round" stroke-linejoin="round"/>
    <path d="M 60.479225158691406 176.7533721923828 C 80.04911804199219 153.85336303710938 81.53584289550781 159.99566650390625 59.80498504638672 185.23609924316406" stroke-width="3.0" fill="none" stroke="rgb(0, 0, 0)" stroke-opacity="1.0" stroke-linecap="round" stroke-linejoin="round"/>
    <path d="M 116.79862976074219 60.83776092529297 C 103.05028533935547 57.69148254394531 117.28316497802734 60.019737243652344 145.72842407226562 66.73600769042969" stroke-width="3.0" fill="none" stroke="rgb(0, 0, 0)" stroke-opacity="1.0" stroke-linecap="round" stroke-linejoin="round"/>
    <path d="M 4.844466686248779 64.54161834716797 C 15.692398071289062 59.064571380615234 19.498151779174805 57.789119720458984 45.683780670166016 54.565364837646484" stroke-width="3.0" fill="none" stroke="rgb(0, 0, 0)" stroke-opacity="1.0" stroke-linecap="round" stroke-linejoin="round"/>
    <path d="M 41.17373275756836 54.57130813598633 C 75.14993286132812 54.23789596557617 70.89713287353516 57.171241760253906 96.96675109863281 56.83346939086914" stroke-width="3.0" fill="none" stroke="rgb(0, 0, 0)" stroke-opacity="1.0" stroke-linecap="round" stroke-linejoin="round"/>
    <path d="M 42.863502502441406 165.77191162109375 C 38.84191131591797 147.62136840820312 18.513164520263672 135.38909912109375 42.77559280395508 167.63148498535156" stroke-width="3.0" fill="none" stroke="rgb(0, 0, 0)" stroke-opacity="1.0" stroke-linecap="round" stroke-linejoin="round"/>
    <path d="M 119.9256362915039 157.94857788085938 C 138.89332580566406 136.21192932128906 127.30165100097656 126.44583129882812 122.5070571899414 151.81016540527344" stroke-width="3.0" fill="none" stroke="rgb(0, 0, 0)" stroke-opacity="1.0" stroke-linecap="round" stroke-linejoin="round"/>
    <path d="M 46.7633171081543 166.71939086914062 C 59.76666259765625 162.77328491210938 51.83451461791992 157.53359985351562 47.8284912109375 156.48419189453125" stroke-width="3.0" fill="none" stroke="rgb(0, 0, 0)" stroke-opacity="1.0" stroke-linecap="round" stroke-linejoin="round"/>
    <path d="M 118.2621078491211 162.38299560546875 C 102.17181396484375 178.31683349609375 98.52709197998047 192.48414611816406 115.68441009521484 171.1287078857422" stroke-width="3.0" fill="none" stroke="rgb(0, 0, 0)" stroke-opacity="1.0" stroke-linecap="round" stroke-linejoin="round"/>
    <path d="M 98.01768493652344 142.14749145507812 C 104.63302612304688 135.39659118652344 90.66595458984375 137.5406951904297 97.30921936035156 138.2912139892578" stroke-width="3.0" fill="none" stroke="rgb(0, 0, 0)" stroke-opacity="1.0" stroke-linecap="round" stroke-linejoin="round"/>
    <path d="M 122.82847595214844 95.7337417602539 C 121.0809097290039 106.43698120117188 117.29755401611328 101.051513671875 123.87876892089844 100.07872772216797" stroke-width="3.0" fill="none" stroke="rgb(0, 0, 0)" stroke-opacity="1.0" stroke-linecap="round" stroke-linejoin="round"/>
    <path d="M 26.28505516052246 141.53152465820312 C 50.15428924560547 138.89532470703125 40.38298797607422 111.49729919433594 24.549610137939453 136.37205505371094" stroke-width="3.0" fill="none" stroke="rgb(0, 0, 0)" stroke-opacity="1.0" stroke-linecap="round" stroke-linejoin="round"/>
    <path d="M 148.19606018066406 63.769779205322266 C 144.12689208984375 56.21680450439453 157.73788452148438 61.11616516113281 178.81346130371094 72.80785369873047" stroke-width="3.0" fill="none" stroke="rgb(0, 0, 0)" stroke-opacity="1.0" stroke-linecap="round" stroke-linejoin="round"/>
    <path d="M 120.41987609863281 111.1957015991211 C 121.68087005615234 111.75460815429688 118.73402404785156 109.46111297607422 117.75566864013672 114.38538360595703" stroke-width="3.0" fill="none" stroke="rgb(0, 0, 0)" stroke-opacity="1.0" stroke-linecap="round" stroke-linejoin="round"/>
    <path d="M 104.59072875976562 57.81123733520508 C 118.00105285644531 61.827510833740234 117.07707977294922 59.12866973876953 88.5330810546875 57.530818939208984" stroke-width="3.0" fill="none" stroke="rgb(0, 0, 0)" stroke-opacity="1.0" stroke-linecap="round" stroke-linejoin="round"/>
    <path d="M 56.104042053222656 197.75856018066406 C 41.306678771972656 172.39248657226562 33.91360855102539 162.60008239746094 34.54521179199219 151.4530029296875" stroke-width="3.0" fill="none" stroke="rgb(0, 0, 0)" stroke-opacity="1.0" stroke-linecap="round" stroke-linejoin="round"/>
    <path d="M 138.58270263671875 137.01483154296875 C 172.39877319335938 89.8356704711914 173.26416015625 109.08038330078125 170.946533203125 89.47541809082031" stroke-width="3.0" fill="none" stroke="rgb(0, 0, 0)" stroke-opacity="1.0" stroke-linecap="round" stroke-linejoin="round"/>
    <path d="M 157.84645080566406 72.2940902709961 C 186.38475036621094 80.40996551513672 169.63636779785156 81.41505432128906 154.15432739257812 116.06729125976562" stroke-width="3.0" fill="none" stroke="rgb(0, 0, 0)" stroke-opacity="1.0" stroke-linecap="round" stroke-linejoin="round"/>
    <path d="M 21.73986053466797 86.51811981201172 C 22.281370162963867 89.88185119628906 23.062681198120117 87.08828735351562 23.070804595947266 87.51932525634766" stroke-width="3.0" fill="none" stroke="rgb(0, 0, 0)" stroke-opacity="1.0" stroke-linecap="round" stroke-linejoin="round"/>
    <path d="M 52.74707794189453 137.83384704589844 C 55.42517852783203 135.08013916015625 51.43379211425781 137.6894073486328 53.34230041503906 137.22288513183594" stroke-width="3.0" fill="none" stroke="rgb(0, 0, 0)" stroke-opacity="1.0" stroke-linecap="round" stroke-linejoin="round"/>
  </g>
</svg>
