<?xml version="1.0" ?>
<svg xmlns="http://www.w3.org/2000/svg" version="1.1" width="224" height="224">
  <defs/>
  <g>
    <path d="M 126.8641128540039 128.7822265625 C 143.97752380371094 103.9990234375 136.4828643798828 86.89556121826172 154.19168090820312 71.62360382080078" stroke-width="3.0" fill="none" stroke="rgb(0, 0, 0)" stroke-opacity="1.0" stroke-linecap="round" stroke-linejoin="round"/>
    <path d="M 29.79625129699707 142.19268798828125 C 1.766724944114685 121.52105712890625 19.444873809814453 122.27849578857422 28.375946044921875 134.43885803222656" stroke-width="3.0" fill="none" stroke="rgb(0, 0, 0)" stroke-opacity="1.0" stroke-linecap="round" stroke-linejoin="round"/>
    <path d="M 125.1742172241211 88.54838562011719 C 73.0217514038086 75.55973815917969 84.52001190185547 165.6916046142578 114.7559814453125 108.2998275756836" stroke-width="3.0" fill="none" stroke="rgb(0, 0, 0)" stroke-opacity="1.0" stroke-linecap="round" stroke-linejoin="round"/>
    <path d="M 43.64997482299805 77.919677734375 C 102.53399658203125 50.865875244140625 72.3366928100586 175.23875427246094 46.22105026245117 113.02645874023438" stroke-width="3.0" fill="none" stroke="rgb(0, 0, 0)" stroke-opacity="1.0" stroke-linecap="round" stroke-linejoin="round"/>
    <path d="M 154.0521697998047 62.12996292114258 C 197.51454162597656 82.06134796142578 131.0740509033203 115.55929565429688 157.62313842773438 94.3180160522461" stroke-width="3.0" fill="none" stroke="rgb(0, 0, 0)" stroke-opacity="1.0" stroke-linecap="round" stroke-linejoin="round"/>
    <path d="M 119.76142883300781 102.9117431640625 C 100.0580825805664 111.89337158203125 108.44090270996094 124.5444564819336 142.67877197265625 73.52362060546875" stroke-width="3.0" fill="none" stroke="rgb(0, 0, 0)" stroke-opacity="1.0" stroke-linecap="round" stroke-linejoin="round"/>
    <path d="M 16.016481399536133 92.40950775146484 C 8.15806770324707 83.29507446289062 20.897296905517578 94.66690826416016 3.6197636127471924 106.92347717285156" stroke-width="3.0" fill="none" stroke="rgb(0, 0, 0)" stroke-opacity="1.0" stroke-linecap="round" stroke-linejoin="round"/>
    <path d="M 73.65279388427734 165.39938354492188 C 77.04105377197266 147.03421020507812 89.20088195800781 154.992431640625 77.1120376586914 143.97119140625" stroke-width="3.0" fill="none" stroke="rgb(0, 0, 0)" stroke-opacity="1.0" stroke-linecap="round" stroke-linejoin="round"/>
    <path d="M 52.570491790771484 167.48277282714844 C 71.82301330566406 162.20008850097656 82.87188720703125 169.6839599609375 54.418540954589844 200.43450927734375" stroke-width="3.0" fill="none" stroke="rgb(0, 0, 0)" stroke-opacity="1.0" stroke-linecap="round" stroke-linejoin="round"/>
    <path d="M 45.41305923461914 113.48554229736328 C 66.59778594970703 43.65102767944336 -30.27096939086914 95.66779327392578 45.53105163574219 110.54756164550781" stroke-width="3.0" fill="none" stroke="rgb(0, 0, 0)" stroke-opacity="1.0" stroke-linecap="round" stroke-linejoin="round"/>
    <path d="M 81.24600219726562 136.06979370117188 C 95.3337173461914 129.14886474609375 84.53884887695312 117.18820190429688 91.65950775146484 128.07801818847656" stroke-width="3.0" fill="none" stroke="rgb(0, 0, 0)" stroke-opacity="1.0" stroke-linecap="round" stroke-linejoin="round"/>
    <path d="M 85.51593017578125 82.85736846923828 C 89.90989685058594 93.07433319091797 100.58662414550781 87.16466522216797 87.5565414428711 83.03130340576172" stroke-width="3.0" fill="none" stroke="rgb(0, 0, 0)" stroke-opacity="1.0" stroke-linecap="round" stroke-linejoin="round"/>
    <path d="M 12.156811714172363 111.99824523925781 C 21.323469161987305 130.357421875 -15.441370010375977 77.71092224121094 26.862077713012695 146.1725616455078" stroke-width="3.0" fill="none" stroke="rgb(0, 0, 0)" stroke-opacity="1.0" stroke-linecap="round" stroke-linejoin="round"/>
    <path d="M 59.119441986083984 187.91526794433594 C 107.82369232177734 145.60134887695312 54.828285217285156 157.87353515625 59.24031448364258 179.79576110839844" stroke-width="3.0" fill="none" stroke="rgb(0, 0, 0)" stroke-opacity="1.0" stroke-linecap="round" stroke-linejoin="round"/>
    <path d="M 148.97145080566406 73.1063232421875 C 139.7513427734375 92.060302734375 157.55990600585938 44.65775680541992 152.75245666503906 62.23981857299805" stroke-width="3.0" fill="none" stroke="rgb(0, 0, 0)" stroke-opacity="1.0" stroke-linecap="round" stroke-linejoin="round"/>
    <path d="M -4.583723068237305 67.85768127441406 C 14.571209907531738 55.355186462402344 46.40623092651367 44.416629791259766 58.967811584472656 52.76769256591797" stroke-width="3.0" fill="none" stroke="rgb(0, 0, 0)" stroke-opacity="1.0" stroke-linecap="round" stroke-linejoin="round"/>
    <path d="M -6.014270782470703 72.80772399902344 C 39.067481994628906 57.41082763671875 112.04803466796875 60.949642181396484 135.47927856445312 77.10921478271484" stroke-width="3.0" fill="none" stroke="rgb(0, 0, 0)" stroke-opacity="1.0" stroke-linecap="round" stroke-linejoin="round"/>
    <path d="M 44.0177116394043 171.37161254882812 C 29.061630249023438 158.92922973632812 16.890235900878906 119.57946014404297 35.07669448852539 165.78793334960938" stroke-width="3.0" fill="none" stroke="rgb(0, 0, 0)" stroke-opacity="1.0" stroke-linecap="round" stroke-linejoin="round"/>
    <path d="M 110.5680923461914 175.60208129882812 C 135.05816650390625 98.85077667236328 124.71723175048828 130.21829223632812 130.4676513671875 141.78480529785156" stroke-width="3.0" fill="none" stroke="rgb(0, 0, 0)" stroke-opacity="1.0" stroke-linecap="round" stroke-linejoin="round"/>
    <path d="M 37.17121505737305 164.9273681640625 C 45.12192153930664 187.85946655273438 73.33122253417969 143.2708740234375 34.344573974609375 150.21517944335938" stroke-width="3.0" fill="none" stroke="rgb(0, 0, 0)" stroke-opacity="1.0" stroke-linecap="round" stroke-linejoin="round"/>
    <path d="M 126.781494140625 144.34022521972656 C 89.66374206542969 193.23313903808594 107.70532989501953 197.85232543945312 131.35520935058594 149.39715576171875" stroke-width="3.0" fill="none" stroke="rgb(0, 0, 0)" stroke-opacity="1.0" stroke-linecap="round" stroke-linejoin="round"/>
    <path d="M 74.84236907958984 168.8280487060547 C 121.10371398925781 94.67682647705078 94.14630889892578 141.24813842773438 90.72958374023438 111.7530517578125" stroke-width="3.0" fill="none" stroke="rgb(0, 0, 0)" stroke-opacity="1.0" stroke-linecap="round" stroke-linejoin="round"/>
    <path d="M 130.82460021972656 84.3131103515625 C 145.66815185546875 76.623291015625 135.8335723876953 91.51927947998047 145.23854064941406 66.84661102294922" stroke-width="3.0" fill="none" stroke="rgb(0, 0, 0)" stroke-opacity="1.0" stroke-linecap="round" stroke-linejoin="round"/>
    <path d="M 27.856853485107422 146.04225158691406 C 70.9111557006836 126.6790542602539 4.693536281585693 97.89623260498047 21.964670181274414 133.835205078125" stroke-width="3.0" fill="none" stroke="rgb(0, 0, 0)" stroke-opacity="1.0" stroke-linecap="round" stroke-linejoin="round"/>
    <path d="M 159.6536407470703 58.70402145385742 C 138.5852813720703 45.34672927856445 211.0950164794922 77.03382873535156 184.46006774902344 83.3804931640625" stroke-width="3.0" fill="none" stroke="rgb(0, 0, 0)" stroke-opacity="1.0" stroke-linecap="round" stroke-linejoin="round"/>
    <path d="M 145.80027770996094 83.73709869384766 C 128.4192352294922 109.99476623535156 136.26699829101562 87.47628784179688 139.2305908203125 97.46084594726562" stroke-width="3.0" fill="none" stroke="rgb(0, 0, 0)" stroke-opacity="1.0" stroke-linecap="round" stroke-linejoin="round"/>
    <path d="M 54.919837951660156 50.278263092041016 C 154.3643035888672 51.7947883605957 193.8944091796875 81.55077362060547 69.2527847290039 49.6851692199707" stroke-width="3.0" fill="none" stroke="rgb(0, 0, 0)" stroke-opacity="1.0" stroke-linecap="round" stroke-linejoin="round"/>
    <path d="M 54.922080993652344 196.71078491210938 C 40.58316421508789 170.37135314941406 32.68889236450195 172.90676879882812 35.304786682128906 153.34280395507812" stroke-width="3.0" fill="none" stroke="rgb(0, 0, 0)" stroke-opacity="1.0" stroke-linecap="round" stroke-linejoin="round"/>
    <path d="M 121.17377471923828 163.91224670410156 C 190.6524200439453 91.57958221435547 160.1529998779297 99.18880462646484 174.9563751220703 93.46771240234375" stroke-width="3.0" fill="none" stroke="rgb(0, 0, 0)" stroke-opacity="1.0" stroke-linecap="round" stroke-linejoin="round"/>
    <path d="M 154.28257751464844 54.942970275878906 C 208.71998596191406 98.8187484741211 175.56393432617188 73.8271255493164 139.56849670410156 144.34144592285156" stroke-width="3.0" fill="none" stroke="rgb(0, 0, 0)" stroke-opacity="1.0" stroke-linecap="round" stroke-linejoin="round"/>
    <path d="M 36.427154541015625 62.080780029296875 C -17.810203552246094 87.56379699707031 -22.032424926757812 72.69658660888672 16.01711082458496 68.40213012695312" stroke-width="3.0" fill="none" stroke="rgb(0, 0, 0)" stroke-opacity="1.0" stroke-linecap="round" stroke-linejoin="round"/>
    <path d="M 72.16873931884766 149.84414672851562 C 75.506103515625 133.87774658203125 67.43659210205078 144.84048461914062 69.13977813720703 129.45753479003906" stroke-width="3.0" fill="none" stroke="rgb(0, 0, 0)" stroke-opacity="1.0" stroke-linecap="round" stroke-linejoin="round"/>
  </g>
</svg>
