<?xml version="1.0" ?>
<svg xmlns="http://www.w3.org/2000/svg" version="1.1" width="224" height="224">
  <defs/>
  <g>
    <path d="M 126.32099914550781 123.01364135742188 C 139.45008850097656 96.9670181274414 146.0347137451172 81.1897964477539 153.96363830566406 67.76587677001953" stroke-width="3.0" fill="none" stroke="rgb(0, 0, 0)" stroke-opacity="1.0" stroke-linecap="round" stroke-linejoin="round"/>
    <path d="M 26.90354347229004 145.7134246826172 C 4.824910640716553 114.82278442382812 22.483610153198242 105.16053009033203 20.971298217773438 137.41368103027344" stroke-width="3.0" fill="none" stroke="rgb(0, 0, 0)" stroke-opacity="1.0" stroke-linecap="round" stroke-linejoin="round"/>
    <path d="M 129.17063903808594 84.94303894042969 C 84.53577423095703 38.91463088989258 83.61669158935547 166.6698455810547 114.44049072265625 107.24917602539062" stroke-width="3.0" fill="none" stroke="rgb(0, 0, 0)" stroke-opacity="1.0" stroke-linecap="round" stroke-linejoin="round"/>
    <path d="M 38.94450759887695 78.20375061035156 C 112.83274841308594 41.488746643066406 89.98057556152344 166.18185424804688 46.417991638183594 117.80028533935547" stroke-width="3.0" fill="none" stroke="rgb(0, 0, 0)" stroke-opacity="1.0" stroke-linecap="round" stroke-linejoin="round"/>
    <path d="M 151.5822296142578 61.88962173461914 C 201.49583435058594 77.14244842529297 141.03851318359375 111.53592681884766 163.1926727294922 93.01603698730469" stroke-width="3.0" fill="none" stroke="rgb(0, 0, 0)" stroke-opacity="1.0" stroke-linecap="round" stroke-linejoin="round"/>
    <path d="M 121.74608612060547 103.06102752685547 C 100.2585678100586 109.37020874023438 107.78611755371094 127.5525894165039 150.8868408203125 60.607173919677734" stroke-width="3.0" fill="none" stroke="rgb(0, 0, 0)" stroke-opacity="1.0" stroke-linecap="round" stroke-linejoin="round"/>
    <path d="M 13.447696685791016 87.10542297363281 C -10.019515991210938 69.34222412109375 15.856085777282715 94.08861541748047 5.227055072784424 103.1195297241211" stroke-width="3.0" fill="none" stroke="rgb(0, 0, 0)" stroke-opacity="1.0" stroke-linecap="round" stroke-linejoin="round"/>
    <path d="M 73.02742004394531 162.0738067626953 C 68.7022476196289 147.20736694335938 82.16490173339844 161.22964477539062 81.65897369384766 145.36541748046875" stroke-width="3.0" fill="none" stroke="rgb(0, 0, 0)" stroke-opacity="1.0" stroke-linecap="round" stroke-linejoin="round"/>
    <path d="M 56.972572326660156 161.53579711914062 C 74.72463989257812 152.5663299560547 83.77013397216797 163.06497192382812 57.19636154174805 195.40579223632812" stroke-width="3.0" fill="none" stroke="rgb(0, 0, 0)" stroke-opacity="1.0" stroke-linecap="round" stroke-linejoin="round"/>
    <path d="M 46.5556526184082 117.12042236328125 C 68.8600082397461 39.56400680541992 -29.371797561645508 103.49995422363281 47.995967864990234 110.00739288330078" stroke-width="3.0" fill="none" stroke="rgb(0, 0, 0)" stroke-opacity="1.0" stroke-linecap="round" stroke-linejoin="round"/>
    <path d="M 78.11990356445312 136.0565643310547 C 92.316162109375 132.96395874023438 82.32518005371094 115.40139770507812 86.87068176269531 122.90442657470703" stroke-width="3.0" fill="none" stroke="rgb(0, 0, 0)" stroke-opacity="1.0" stroke-linecap="round" stroke-linejoin="round"/>
    <path d="M 87.69078826904297 74.87306213378906 C 94.41780853271484 83.33563995361328 94.44625854492188 79.4912109375 89.76044464111328 77.59307861328125" stroke-width="3.0" fill="none" stroke="rgb(0, 0, 0)" stroke-opacity="1.0" stroke-linecap="round" stroke-linejoin="round"/>
    <path d="M 8.946751594543457 111.4481201171875 C 26.990564346313477 124.5376968383789 -21.30060577392578 73.26010131835938 28.316307067871094 147.72694396972656" stroke-width="3.0" fill="none" stroke="rgb(0, 0, 0)" stroke-opacity="1.0" stroke-linecap="round" stroke-linejoin="round"/>
    <path d="M 52.997249603271484 185.12303161621094 C 115.55309295654297 142.18667602539062 37.794761657714844 157.93576049804688 54.87501907348633 180.65835571289062" stroke-width="3.0" fill="none" stroke="rgb(0, 0, 0)" stroke-opacity="1.0" stroke-linecap="round" stroke-linejoin="round"/>
    <path d="M 147.44537353515625 81.47948455810547 C 151.05178833007812 101.45413208007812 146.9555206298828 44.869384765625 157.18157958984375 56.830326080322266" stroke-width="3.0" fill="none" stroke="rgb(0, 0, 0)" stroke-opacity="1.0" stroke-linecap="round" stroke-linejoin="round"/>
    <path d="M -2.1359174251556396 70.58069610595703 C 10.566067695617676 54.726097106933594 47.07402420043945 46.787620544433594 62.253448486328125 52.7410774230957" stroke-width="3.0" fill="none" stroke="rgb(0, 0, 0)" stroke-opacity="1.0" stroke-linecap="round" stroke-linejoin="round"/>
    <path d="M -6.1394853591918945 76.1448745727539 C 49.6245002746582 56.107295989990234 100.56363677978516 57.66596221923828 140.83802795410156 73.43909454345703" stroke-width="3.0" fill="none" stroke="rgb(0, 0, 0)" stroke-opacity="1.0" stroke-linecap="round" stroke-linejoin="round"/>
    <path d="M 45.52244567871094 176.5730438232422 C 29.93293571472168 158.43878173828125 15.219832420349121 118.25462341308594 38.81172180175781 169.44786071777344" stroke-width="3.0" fill="none" stroke="rgb(0, 0, 0)" stroke-opacity="1.0" stroke-linecap="round" stroke-linejoin="round"/>
    <path d="M 111.55066680908203 180.60238647460938 C 134.88475036621094 86.28085327148438 146.9452667236328 113.79027557373047 127.37407684326172 125.8476333618164" stroke-width="3.0" fill="none" stroke="rgb(0, 0, 0)" stroke-opacity="1.0" stroke-linecap="round" stroke-linejoin="round"/>
    <path d="M 37.390647888183594 163.3121337890625 C 44.611507415771484 190.75027465820312 77.4421157836914 140.31040954589844 29.61176300048828 151.26678466796875" stroke-width="3.0" fill="none" stroke="rgb(0, 0, 0)" stroke-opacity="1.0" stroke-linecap="round" stroke-linejoin="round"/>
    <path d="M 137.81321716308594 137.81759643554688 C 85.05699920654297 197.62808227539062 106.92051696777344 203.1472930908203 131.0157012939453 149.2172393798828" stroke-width="3.0" fill="none" stroke="rgb(0, 0, 0)" stroke-opacity="1.0" stroke-linecap="round" stroke-linejoin="round"/>
    <path d="M 66.50672149658203 171.12257385253906 C 131.8374481201172 89.85890197753906 99.77659606933594 130.1449737548828 91.7122802734375 96.55438995361328" stroke-width="3.0" fill="none" stroke="rgb(0, 0, 0)" stroke-opacity="1.0" stroke-linecap="round" stroke-linejoin="round"/>
    <path d="M 127.79246520996094 89.2021484375 C 140.67713928222656 71.46369934082031 137.9443359375 89.00582885742188 146.3244171142578 64.55867767333984" stroke-width="3.0" fill="none" stroke="rgb(0, 0, 0)" stroke-opacity="1.0" stroke-linecap="round" stroke-linejoin="round"/>
    <path d="M 27.714948654174805 146.2171173095703 C 69.32616424560547 128.97055053710938 3.40791654586792 91.90876770019531 23.391090393066406 127.48003387451172" stroke-width="3.0" fill="none" stroke="rgb(0, 0, 0)" stroke-opacity="1.0" stroke-linecap="round" stroke-linejoin="round"/>
    <path d="M 156.75648498535156 60.56353759765625 C 132.8963623046875 39.632564544677734 207.5750732421875 77.31620788574219 183.48733520507812 82.79055786132812" stroke-width="3.0" fill="none" stroke="rgb(0, 0, 0)" stroke-opacity="1.0" stroke-linecap="round" stroke-linejoin="round"/>
    <path d="M 157.034912109375 75.94965362548828 C 128.05784606933594 94.08563232421875 157.12728881835938 91.32391357421875 142.96908569335938 116.53044128417969" stroke-width="3.0" fill="none" stroke="rgb(0, 0, 0)" stroke-opacity="1.0" stroke-linecap="round" stroke-linejoin="round"/>
    <path d="M 59.46712112426758 50.83211135864258 C 144.09947204589844 48.57429122924805 197.72134399414062 78.49252319335938 70.68976593017578 50.502525329589844" stroke-width="3.0" fill="none" stroke="rgb(0, 0, 0)" stroke-opacity="1.0" stroke-linecap="round" stroke-linejoin="round"/>
    <path d="M 54.506248474121094 198.73829650878906 C 42.039886474609375 168.53610229492188 30.92889404296875 168.41342163085938 33.938682556152344 151.33712768554688" stroke-width="3.0" fill="none" stroke="rgb(0, 0, 0)" stroke-opacity="1.0" stroke-linecap="round" stroke-linejoin="round"/>
    <path d="M 118.89727783203125 166.30136108398438 C 194.10324096679688 87.84273529052734 172.08396911621094 86.75987243652344 175.03387451171875 84.1914291381836" stroke-width="3.0" fill="none" stroke="rgb(0, 0, 0)" stroke-opacity="1.0" stroke-linecap="round" stroke-linejoin="round"/>
    <path d="M 154.5184326171875 55.84197235107422 C 211.05303955078125 89.85137176513672 177.33128356933594 75.711181640625 134.94659423828125 145.01290893554688" stroke-width="3.0" fill="none" stroke="rgb(0, 0, 0)" stroke-opacity="1.0" stroke-linecap="round" stroke-linejoin="round"/>
    <path d="M 49.131103515625 64.6692886352539 C -24.926551818847656 87.1749496459961 -23.17806053161621 80.70282745361328 15.332356452941895 69.5363540649414" stroke-width="3.0" fill="none" stroke="rgb(0, 0, 0)" stroke-opacity="1.0" stroke-linecap="round" stroke-linejoin="round"/>
    <path d="M 64.5174331665039 151.300537109375 C 71.63934326171875 137.1097869873047 60.798702239990234 147.09664916992188 71.02859497070312 133.7661895751953" stroke-width="3.0" fill="none" stroke="rgb(0, 0, 0)" stroke-opacity="1.0" stroke-linecap="round" stroke-linejoin="round"/>
  </g>
</svg>
