<?xml version="1.0" ?>
<svg xmlns="http://www.w3.org/2000/svg" version="1.1" width="224" height="224">
  <defs/>
  <g>
    <path d="M 128.02110290527344 130.42611694335938 C 145.11474609375 105.42225646972656 135.80563354492188 82.92664337158203 150.8777313232422 73.7203369140625" stroke-width="3.0" fill="none" stroke="rgb(0, 0, 0)" stroke-opacity="1.0" stroke-linecap="round" stroke-linejoin="round"/>
    <path d="M 29.326501846313477 145.41522216796875 C 0.4071756601333618 118.31974029541016 20.74811363220215 108.15785217285156 25.52129554748535 133.26016235351562" stroke-width="3.0" fill="none" stroke="rgb(0, 0, 0)" stroke-opacity="1.0" stroke-linecap="round" stroke-linejoin="round"/>
    <path d="M 130.70326232910156 81.618896484375 C 76.20977020263672 47.28316116333008 82.0317611694336 165.7115936279297 113.87989807128906 108.69715118408203" stroke-width="3.0" fill="none" stroke="rgb(0, 0, 0)" stroke-opacity="1.0" stroke-linecap="round" stroke-linejoin="round"/>
    <path d="M 41.145545959472656 76.40263366699219 C 101.30857849121094 45.250709533691406 79.48729705810547 168.690185546875 45.159690856933594 111.2420425415039" stroke-width="3.0" fill="none" stroke="rgb(0, 0, 0)" stroke-opacity="1.0" stroke-linecap="round" stroke-linejoin="round"/>
    <path d="M 148.4454345703125 67.6059799194336 C 199.80894470214844 82.803955078125 136.04148864746094 117.76454162597656 163.0323028564453 93.7545394897461" stroke-width="3.0" fill="none" stroke="rgb(0, 0, 0)" stroke-opacity="1.0" stroke-linecap="round" stroke-linejoin="round"/>
    <path d="M 125.95745849609375 96.00212860107422 C 99.36006927490234 107.95606994628906 110.6543960571289 125.43389892578125 144.67169189453125 69.88213348388672" stroke-width="3.0" fill="none" stroke="rgb(0, 0, 0)" stroke-opacity="1.0" stroke-linecap="round" stroke-linejoin="round"/>
    <path d="M 9.390950202941895 84.56214904785156 C -7.620370388031006 67.04354858398438 19.479167938232422 91.21232604980469 5.809040546417236 106.92488861083984" stroke-width="3.0" fill="none" stroke="rgb(0, 0, 0)" stroke-opacity="1.0" stroke-linecap="round" stroke-linejoin="round"/>
    <path d="M 70.60108947753906 160.7096405029297 C 67.40453338623047 147.62399291992188 86.96588897705078 154.7748260498047 80.01134490966797 139.64285278320312" stroke-width="3.0" fill="none" stroke="rgb(0, 0, 0)" stroke-opacity="1.0" stroke-linecap="round" stroke-linejoin="round"/>
    <path d="M 56.438087463378906 160.69065856933594 C 78.38850402832031 148.4641876220703 83.8556900024414 157.53070068359375 54.88656997680664 200.28463745117188" stroke-width="3.0" fill="none" stroke="rgb(0, 0, 0)" stroke-opacity="1.0" stroke-linecap="round" stroke-linejoin="round"/>
    <path d="M 43.248233795166016 109.50697326660156 C 67.24050903320312 40.70741653442383 -28.3104305267334 99.61681365966797 41.899715423583984 116.10639953613281" stroke-width="3.0" fill="none" stroke="rgb(0, 0, 0)" stroke-opacity="1.0" stroke-linecap="round" stroke-linejoin="round"/>
    <path d="M 82.79500579833984 134.39703369140625 C 94.74374389648438 130.0296173095703 87.16837310791016 111.5984115600586 94.53870391845703 126.67675018310547" stroke-width="3.0" fill="none" stroke="rgb(0, 0, 0)" stroke-opacity="1.0" stroke-linecap="round" stroke-linejoin="round"/>
    <path d="M 88.08786010742188 69.1724624633789 C 97.54854583740234 74.47016906738281 95.00455474853516 76.19038391113281 89.81156921386719 69.48042297363281" stroke-width="3.0" fill="none" stroke="rgb(0, 0, 0)" stroke-opacity="1.0" stroke-linecap="round" stroke-linejoin="round"/>
    <path d="M 8.983256340026855 114.03228759765625 C 31.097421646118164 127.52687072753906 -17.983945846557617 75.18456268310547 25.80455780029297 146.70787048339844" stroke-width="3.0" fill="none" stroke="rgb(0, 0, 0)" stroke-opacity="1.0" stroke-linecap="round" stroke-linejoin="round"/>
    <path d="M 57.23452377319336 185.85513305664062 C 112.15303039550781 140.78977966308594 47.033119201660156 151.382080078125 56.254737854003906 177.80894470214844" stroke-width="3.0" fill="none" stroke="rgb(0, 0, 0)" stroke-opacity="1.0" stroke-linecap="round" stroke-linejoin="round"/>
    <path d="M 151.96469116210938 78.75433349609375 C 140.4654998779297 99.73001861572266 151.84469604492188 41.9237174987793 155.63006591796875 52.49236297607422" stroke-width="3.0" fill="none" stroke="rgb(0, 0, 0)" stroke-opacity="1.0" stroke-linecap="round" stroke-linejoin="round"/>
    <path d="M -4.334424018859863 66.30245971679688 C 4.440784931182861 50.800865173339844 47.73417282104492 43.979496002197266 52.795631408691406 49.61357498168945" stroke-width="3.0" fill="none" stroke="rgb(0, 0, 0)" stroke-opacity="1.0" stroke-linecap="round" stroke-linejoin="round"/>
    <path d="M -6.207120895385742 70.39734649658203 C 33.84738540649414 47.4422721862793 101.24571228027344 56.553016662597656 139.93283081054688 73.52085876464844" stroke-width="3.0" fill="none" stroke="rgb(0, 0, 0)" stroke-opacity="1.0" stroke-linecap="round" stroke-linejoin="round"/>
    <path d="M 43.49712371826172 175.3273162841797 C 29.415796279907227 157.74630737304688 13.003087043762207 120.95169830322266 35.996429443359375 162.4644317626953" stroke-width="3.0" fill="none" stroke="rgb(0, 0, 0)" stroke-opacity="1.0" stroke-linecap="round" stroke-linejoin="round"/>
    <path d="M 113.31867980957031 177.4007110595703 C 135.7183380126953 90.46294403076172 150.19200134277344 121.25245666503906 131.12139892578125 140.0124969482422" stroke-width="3.0" fill="none" stroke="rgb(0, 0, 0)" stroke-opacity="1.0" stroke-linecap="round" stroke-linejoin="round"/>
    <path d="M 34.535621643066406 162.4341583251953 C 45.13913345336914 183.97402954101562 79.61197662353516 139.2371368408203 36.9153938293457 147.19204711914062" stroke-width="3.0" fill="none" stroke="rgb(0, 0, 0)" stroke-opacity="1.0" stroke-linecap="round" stroke-linejoin="round"/>
    <path d="M 136.07164001464844 141.03326416015625 C 88.52275085449219 191.75979614257812 106.86605834960938 196.3387908935547 133.8713836669922 149.82296752929688" stroke-width="3.0" fill="none" stroke="rgb(0, 0, 0)" stroke-opacity="1.0" stroke-linecap="round" stroke-linejoin="round"/>
    <path d="M 68.56192779541016 171.98646545410156 C 135.77163696289062 86.8670883178711 104.52958679199219 124.36588287353516 93.7100601196289 103.48439025878906" stroke-width="3.0" fill="none" stroke="rgb(0, 0, 0)" stroke-opacity="1.0" stroke-linecap="round" stroke-linejoin="round"/>
    <path d="M 131.98155212402344 85.60543823242188 C 139.9416046142578 79.34612274169922 131.40316772460938 83.19731140136719 148.24569702148438 68.33247375488281" stroke-width="3.0" fill="none" stroke="rgb(0, 0, 0)" stroke-opacity="1.0" stroke-linecap="round" stroke-linejoin="round"/>
    <path d="M 27.85792350769043 145.32395935058594 C 71.16692352294922 127.06096649169922 4.206900119781494 97.4635009765625 21.074636459350586 132.8948974609375" stroke-width="3.0" fill="none" stroke="rgb(0, 0, 0)" stroke-opacity="1.0" stroke-linecap="round" stroke-linejoin="round"/>
    <path d="M 158.638916015625 52.31569290161133 C 132.24989318847656 42.729583740234375 212.08053588867188 73.24878692626953 182.47007751464844 87.7647933959961" stroke-width="3.0" fill="none" stroke="rgb(0, 0, 0)" stroke-opacity="1.0" stroke-linecap="round" stroke-linejoin="round"/>
    <path d="M 150.3936004638672 75.2046127319336 C 131.26492309570312 109.14900970458984 136.7407989501953 87.02413177490234 140.89329528808594 117.76473236083984" stroke-width="3.0" fill="none" stroke="rgb(0, 0, 0)" stroke-opacity="1.0" stroke-linecap="round" stroke-linejoin="round"/>
    <path d="M 51.655303955078125 48.28877258300781 C 153.8287811279297 55.4063835144043 212.5432891845703 75.8127212524414 62.81226348876953 51.784297943115234" stroke-width="3.0" fill="none" stroke="rgb(0, 0, 0)" stroke-opacity="1.0" stroke-linecap="round" stroke-linejoin="round"/>
    <path d="M 53.39659118652344 195.26498413085938 C 42.621368408203125 168.46029663085938 35.54312515258789 169.6670379638672 34.13020324707031 148.95242309570312" stroke-width="3.0" fill="none" stroke="rgb(0, 0, 0)" stroke-opacity="1.0" stroke-linecap="round" stroke-linejoin="round"/>
    <path d="M 116.80420684814453 166.27403259277344 C 187.49951171875 94.9551773071289 155.99603271484375 101.9588394165039 173.3085174560547 88.30021667480469" stroke-width="3.0" fill="none" stroke="rgb(0, 0, 0)" stroke-opacity="1.0" stroke-linecap="round" stroke-linejoin="round"/>
    <path d="M 154.7915802001953 57.0323600769043 C 206.83140563964844 93.9508056640625 177.15335083007812 81.47813415527344 140.9328155517578 140.55067443847656" stroke-width="3.0" fill="none" stroke="rgb(0, 0, 0)" stroke-opacity="1.0" stroke-linecap="round" stroke-linejoin="round"/>
    <path d="M 47.701351165771484 56.67991256713867 C -23.04876136779785 84.65081024169922 -23.625507354736328 74.25538635253906 14.837119102478027 61.569583892822266" stroke-width="3.0" fill="none" stroke="rgb(0, 0, 0)" stroke-opacity="1.0" stroke-linecap="round" stroke-linejoin="round"/>
    <path d="M 67.02266693115234 152.32093811035156 C 77.77024841308594 139.09083557128906 59.03158950805664 147.9397735595703 74.0151596069336 131.7231903076172" stroke-width="3.0" fill="none" stroke="rgb(0, 0, 0)" stroke-opacity="1.0" stroke-linecap="round" stroke-linejoin="round"/>
  </g>
</svg>
