<?xml version="1.0" ?>
<svg xmlns="http://www.w3.org/2000/svg" version="1.1" width="224" height="224">
  <defs/>
  <g>
    <path d="M 131.4418182373047 131.69357299804688 C 171.55953979492188 106.61798858642578 138.47618103027344 91.28338623046875 146.73007202148438 84.23355865478516" stroke-width="3.0" fill="none" stroke="rgb(0, 0, 0)" stroke-opacity="1.0" stroke-linecap="round" stroke-linejoin="round"/>
    <path d="M 22.839296340942383 137.14886474609375 C 8.637190818786621 117.85259246826172 31.252023696899414 115.10304260253906 19.988981246948242 134.57823181152344" stroke-width="3.0" fill="none" stroke="rgb(0, 0, 0)" stroke-opacity="1.0" stroke-linecap="round" stroke-linejoin="round"/>
    <path d="M 115.84862518310547 101.62641906738281 C 64.9241714477539 85.39451599121094 90.15849304199219 155.58575439453125 112.97342681884766 112.17145538330078" stroke-width="3.0" fill="none" stroke="rgb(0, 0, 0)" stroke-opacity="1.0" stroke-linecap="round" stroke-linejoin="round"/>
    <path d="M 46.13924789428711 79.98490142822266 C 108.41209411621094 59.46750259399414 74.28524017333984 167.3582763671875 45.5456657409668 112.3621597290039" stroke-width="3.0" fill="none" stroke="rgb(0, 0, 0)" stroke-opacity="1.0" stroke-linecap="round" stroke-linejoin="round"/>
    <path d="M 145.38818359375 69.53099822998047 C 201.3984375 80.41239166259766 158.89352416992188 124.363525390625 157.01983642578125 96.71786499023438" stroke-width="3.0" fill="none" stroke="rgb(0, 0, 0)" stroke-opacity="1.0" stroke-linecap="round" stroke-linejoin="round"/>
    <path d="M 116.02783966064453 109.71817016601562 C 102.85527801513672 113.37393951416016 108.75515747070312 123.5807113647461 130.97589111328125 94.85521697998047" stroke-width="3.0" fill="none" stroke="rgb(0, 0, 0)" stroke-opacity="1.0" stroke-linecap="round" stroke-linejoin="round"/>
    <path d="M 4.908390522003174 81.13704681396484 C 4.738582134246826 80.31172943115234 19.415874481201172 93.31280517578125 6.222230911254883 104.560791015625" stroke-width="3.0" fill="none" stroke="rgb(0, 0, 0)" stroke-opacity="1.0" stroke-linecap="round" stroke-linejoin="round"/>
    <path d="M 79.03668212890625 163.45166015625 C 69.11136627197266 146.83041381835938 72.93769073486328 163.0277862548828 83.78508758544922 153.5176239013672" stroke-width="3.0" fill="none" stroke="rgb(0, 0, 0)" stroke-opacity="1.0" stroke-linecap="round" stroke-linejoin="round"/>
    <path d="M 57.753990173339844 161.18431091308594 C 75.04790496826172 160.27374267578125 81.61921691894531 165.2093505859375 55.717262268066406 198.4793701171875" stroke-width="3.0" fill="none" stroke="rgb(0, 0, 0)" stroke-opacity="1.0" stroke-linecap="round" stroke-linejoin="round"/>
    <path d="M 54.18024444580078 106.44654846191406 C 70.79463195800781 51.836944580078125 -29.718965530395508 88.72809600830078 44.01399612426758 113.32565307617188" stroke-width="3.0" fill="none" stroke="rgb(0, 0, 0)" stroke-opacity="1.0" stroke-linecap="round" stroke-linejoin="round"/>
    <path d="M 90.02247619628906 141.47344970703125 C 100.99175262451172 127.49601745605469 88.94027709960938 130.50177001953125 90.80477142333984 143.82615661621094" stroke-width="3.0" fill="none" stroke="rgb(0, 0, 0)" stroke-opacity="1.0" stroke-linecap="round" stroke-linejoin="round"/>
    <path d="M 92.8627700805664 83.54755401611328 C 93.02832794189453 94.71910095214844 102.29550170898438 94.84954833984375 94.90396881103516 85.71416473388672" stroke-width="3.0" fill="none" stroke="rgb(0, 0, 0)" stroke-opacity="1.0" stroke-linecap="round" stroke-linejoin="round"/>
    <path d="M 10.3569917678833 108.52731323242188 C 24.212024688720703 117.40306091308594 -13.588103294372559 79.82481384277344 21.154895782470703 138.10848999023438" stroke-width="3.0" fill="none" stroke="rgb(0, 0, 0)" stroke-opacity="1.0" stroke-linecap="round" stroke-linejoin="round"/>
    <path d="M 61.657920837402344 178.23321533203125 C 101.92522430419922 157.75698852539062 62.510292053222656 144.8751678466797 46.10797119140625 175.7016143798828" stroke-width="3.0" fill="none" stroke="rgb(0, 0, 0)" stroke-opacity="1.0" stroke-linecap="round" stroke-linejoin="round"/>
    <path d="M 123.33065795898438 55.33848190307617 C 137.76504516601562 62.645103454589844 164.0225830078125 41.932090759277344 148.2886505126953 68.37896728515625" stroke-width="3.0" fill="none" stroke="rgb(0, 0, 0)" stroke-opacity="1.0" stroke-linecap="round" stroke-linejoin="round"/>
    <path d="M -4.439620494842529 63.743717193603516 C 20.28968620300293 58.51851272583008 39.058834075927734 46.591331481933594 69.06815338134766 53.26424026489258" stroke-width="3.0" fill="none" stroke="rgb(0, 0, 0)" stroke-opacity="1.0" stroke-linecap="round" stroke-linejoin="round"/>
    <path d="M 3.207066535949707 73.0066146850586 C 57.87591552734375 54.80647277832031 86.88700103759766 58.16796875 123.33531951904297 64.17138671875" stroke-width="3.0" fill="none" stroke="rgb(0, 0, 0)" stroke-opacity="1.0" stroke-linecap="round" stroke-linejoin="round"/>
    <path d="M 41.855247497558594 169.11166381835938 C 28.822067260742188 157.43930053710938 17.870206832885742 120.26361846923828 35.62860107421875 163.39300537109375" stroke-width="3.0" fill="none" stroke="rgb(0, 0, 0)" stroke-opacity="1.0" stroke-linecap="round" stroke-linejoin="round"/>
    <path d="M 108.9920654296875 174.79612731933594 C 143.55943298339844 113.15072631835938 116.08750915527344 138.98480224609375 124.84921264648438 147.4773406982422" stroke-width="3.0" fill="none" stroke="rgb(0, 0, 0)" stroke-opacity="1.0" stroke-linecap="round" stroke-linejoin="round"/>
    <path d="M 38.265079498291016 158.07562255859375 C 57.965999603271484 176.0163116455078 68.27315521240234 140.7017059326172 36.24052429199219 148.81887817382812" stroke-width="3.0" fill="none" stroke="rgb(0, 0, 0)" stroke-opacity="1.0" stroke-linecap="round" stroke-linejoin="round"/>
    <path d="M 123.40982818603516 155.75048828125 C 88.89176177978516 185.77027893066406 102.70155334472656 197.5930938720703 129.62054443359375 155.30690002441406" stroke-width="3.0" fill="none" stroke="rgb(0, 0, 0)" stroke-opacity="1.0" stroke-linecap="round" stroke-linejoin="round"/>
    <path d="M 79.62776184082031 158.96929931640625 C 117.00514221191406 106.98124694824219 102.80548858642578 132.6654052734375 86.0347671508789 117.40530395507812" stroke-width="3.0" fill="none" stroke="rgb(0, 0, 0)" stroke-opacity="1.0" stroke-linecap="round" stroke-linejoin="round"/>
    <path d="M 139.1934814453125 79.44834899902344 C 127.71619415283203 79.06859588623047 135.427734375 101.45977020263672 145.68348693847656 68.40213775634766" stroke-width="3.0" fill="none" stroke="rgb(0, 0, 0)" stroke-opacity="1.0" stroke-linecap="round" stroke-linejoin="round"/>
    <path d="M 24.112062454223633 141.230224609375 C 72.07271575927734 131.9497833251953 7.3061017990112305 89.37132263183594 22.635440826416016 140.06640625" stroke-width="3.0" fill="none" stroke="rgb(0, 0, 0)" stroke-opacity="1.0" stroke-linecap="round" stroke-linejoin="round"/>
    <path d="M 131.43356323242188 56.34226608276367 C 132.1105499267578 45.93672180175781 201.8135223388672 69.73438262939453 192.8326873779297 78.85797882080078" stroke-width="3.0" fill="none" stroke="rgb(0, 0, 0)" stroke-opacity="1.0" stroke-linecap="round" stroke-linejoin="round"/>
    <path d="M 136.6829376220703 83.48816680908203 C 124.9186019897461 115.62775421142578 133.04067993164062 103.857177734375 125.2100830078125 102.56344604492188" stroke-width="3.0" fill="none" stroke="rgb(0, 0, 0)" stroke-opacity="1.0" stroke-linecap="round" stroke-linejoin="round"/>
    <path d="M 62.017879486083984 52.3131217956543 C 160.80039978027344 52.93863296508789 144.21290588378906 66.08494567871094 86.8336410522461 52.72004699707031" stroke-width="3.0" fill="none" stroke="rgb(0, 0, 0)" stroke-opacity="1.0" stroke-linecap="round" stroke-linejoin="round"/>
    <path d="M 54.58992004394531 198.2951202392578 C 43.47876739501953 162.42588806152344 28.343626022338867 168.8400115966797 35.18982696533203 149.64878845214844" stroke-width="3.0" fill="none" stroke="rgb(0, 0, 0)" stroke-opacity="1.0" stroke-linecap="round" stroke-linejoin="round"/>
    <path d="M 120.38666534423828 166.43141174316406 C 183.36376953125 87.48828887939453 169.8036651611328 114.03578186035156 181.03701782226562 87.46668243408203" stroke-width="3.0" fill="none" stroke="rgb(0, 0, 0)" stroke-opacity="1.0" stroke-linecap="round" stroke-linejoin="round"/>
    <path d="M 155.44363403320312 62.881431579589844 C 213.28257751464844 93.29703521728516 185.35206604003906 63.545860290527344 142.9145965576172 137.2790069580078" stroke-width="3.0" fill="none" stroke="rgb(0, 0, 0)" stroke-opacity="1.0" stroke-linecap="round" stroke-linejoin="round"/>
    <path d="M 19.186784744262695 68.70785522460938 C -1.8628816604614258 73.2216796875 -1.7535960674285889 69.61215209960938 17.598541259765625 68.54850006103516" stroke-width="3.0" fill="none" stroke="rgb(0, 0, 0)" stroke-opacity="1.0" stroke-linecap="round" stroke-linejoin="round"/>
    <path d="M 66.80140686035156 150.52691650390625 C 70.73374938964844 137.8184814453125 57.270851135253906 141.35528564453125 71.59324645996094 128.8607177734375" stroke-width="3.0" fill="none" stroke="rgb(0, 0, 0)" stroke-opacity="1.0" stroke-linecap="round" stroke-linejoin="round"/>
  </g>
</svg>
