<?xml version="1.0" ?>
<svg xmlns="http://www.w3.org/2000/svg" version="1.1" width="224" height="224">
  <defs/>
  <g>
    <path d="M 133.03500366210938 124.00193786621094 C 161.1482391357422 100.21891021728516 133.80755615234375 84.38932037353516 155.81619262695312 70.46514892578125" stroke-width="3.0" fill="none" stroke="rgb(0, 0, 0)" stroke-opacity="1.0" stroke-linecap="round" stroke-linejoin="round"/>
    <path d="M 27.947568893432617 141.93853759765625 C 5.3327226638793945 125.6322250366211 26.811853408813477 121.07364654541016 22.11917495727539 135.7346954345703" stroke-width="3.0" fill="none" stroke="rgb(0, 0, 0)" stroke-opacity="1.0" stroke-linecap="round" stroke-linejoin="round"/>
    <path d="M 123.3502426147461 95.67675018310547 C 65.02520751953125 76.76734924316406 91.19631958007812 164.0665283203125 115.9583511352539 108.78425598144531" stroke-width="3.0" fill="none" stroke="rgb(0, 0, 0)" stroke-opacity="1.0" stroke-linecap="round" stroke-linejoin="round"/>
    <path d="M 43.47240447998047 74.10336303710938 C 112.26031494140625 46.761207580566406 77.57880401611328 173.9145050048828 44.49418258666992 111.78556060791016" stroke-width="3.0" fill="none" stroke="rgb(0, 0, 0)" stroke-opacity="1.0" stroke-linecap="round" stroke-linejoin="round"/>
    <path d="M 153.85581970214844 65.5855484008789 C 206.8071746826172 85.11332702636719 142.78887939453125 128.9719696044922 159.8445281982422 108.62596130371094" stroke-width="3.0" fill="none" stroke="rgb(0, 0, 0)" stroke-opacity="1.0" stroke-linecap="round" stroke-linejoin="round"/>
    <path d="M 118.8994140625 106.26947784423828 C 102.76921081542969 110.69122314453125 108.57251739501953 127.9940414428711 141.77938842773438 72.86009979248047" stroke-width="3.0" fill="none" stroke="rgb(0, 0, 0)" stroke-opacity="1.0" stroke-linecap="round" stroke-linejoin="round"/>
    <path d="M 11.601881980895996 92.2956314086914 C 4.0646467208862305 86.04695129394531 22.260366439819336 96.02222442626953 7.147985935211182 105.38882446289062" stroke-width="3.0" fill="none" stroke="rgb(0, 0, 0)" stroke-opacity="1.0" stroke-linecap="round" stroke-linejoin="round"/>
    <path d="M 75.60230255126953 163.1249542236328 C 75.96414184570312 145.20338439941406 78.44373321533203 158.91647338867188 86.95401763916016 141.535400390625" stroke-width="3.0" fill="none" stroke="rgb(0, 0, 0)" stroke-opacity="1.0" stroke-linecap="round" stroke-linejoin="round"/>
    <path d="M 55.558753967285156 161.69668579101562 C 71.1095199584961 157.04249572753906 81.76638793945312 168.50474548339844 55.48374938964844 199.76934814453125" stroke-width="3.0" fill="none" stroke="rgb(0, 0, 0)" stroke-opacity="1.0" stroke-linecap="round" stroke-linejoin="round"/>
    <path d="M 46.77770233154297 109.90293884277344 C 68.59828186035156 41.174190521240234 -25.753684997558594 96.07135009765625 47.805233001708984 112.96990966796875" stroke-width="3.0" fill="none" stroke="rgb(0, 0, 0)" stroke-opacity="1.0" stroke-linecap="round" stroke-linejoin="round"/>
    <path d="M 81.95716094970703 135.7154541015625 C 99.31804656982422 121.75274658203125 83.37841033935547 115.55352020263672 84.44710540771484 126.42874908447266" stroke-width="3.0" fill="none" stroke="rgb(0, 0, 0)" stroke-opacity="1.0" stroke-linecap="round" stroke-linejoin="round"/>
    <path d="M 88.43291473388672 80.1059341430664 C 89.31704711914062 91.67858123779297 104.07953643798828 88.92159271240234 88.24307250976562 82.91569519042969" stroke-width="3.0" fill="none" stroke="rgb(0, 0, 0)" stroke-opacity="1.0" stroke-linecap="round" stroke-linejoin="round"/>
    <path d="M 9.365791320800781 106.69794464111328 C 19.644960403442383 125.99089813232422 -14.711651802062988 75.18513488769531 26.267457962036133 148.49334716796875" stroke-width="3.0" fill="none" stroke="rgb(0, 0, 0)" stroke-opacity="1.0" stroke-linecap="round" stroke-linejoin="round"/>
    <path d="M 61.808738708496094 183.69740295410156 C 99.07494354248047 150.6124725341797 51.489986419677734 152.598388671875 53.77725601196289 177.760498046875" stroke-width="3.0" fill="none" stroke="rgb(0, 0, 0)" stroke-opacity="1.0" stroke-linecap="round" stroke-linejoin="round"/>
    <path d="M 143.47396850585938 63.55608367919922 C 148.1891326904297 82.510498046875 157.81304931640625 40.76549530029297 152.22970581054688 61.8519401550293" stroke-width="3.0" fill="none" stroke="rgb(0, 0, 0)" stroke-opacity="1.0" stroke-linecap="round" stroke-linejoin="round"/>
    <path d="M -4.771109580993652 67.09536743164062 C 17.33963966369629 55.53281021118164 40.82166290283203 45.21159744262695 62.33578872680664 53.00000762939453" stroke-width="3.0" fill="none" stroke="rgb(0, 0, 0)" stroke-opacity="1.0" stroke-linecap="round" stroke-linejoin="round"/>
    <path d="M -4.963666915893555 73.98629760742188 C 41.376976013183594 57.22427749633789 111.44184112548828 60.735557556152344 132.69610595703125 79.43167114257812" stroke-width="3.0" fill="none" stroke="rgb(0, 0, 0)" stroke-opacity="1.0" stroke-linecap="round" stroke-linejoin="round"/>
    <path d="M 41.431678771972656 174.70535278320312 C 25.612600326538086 160.16986083984375 16.226905822753906 118.87860107421875 34.14699172973633 163.9221954345703" stroke-width="3.0" fill="none" stroke="rgb(0, 0, 0)" stroke-opacity="1.0" stroke-linecap="round" stroke-linejoin="round"/>
    <path d="M 113.2199935913086 168.7987060546875 C 139.87554931640625 102.0279312133789 115.82744598388672 117.63835144042969 126.26537322998047 131.8424530029297" stroke-width="3.0" fill="none" stroke="rgb(0, 0, 0)" stroke-opacity="1.0" stroke-linecap="round" stroke-linejoin="round"/>
    <path d="M 33.2567138671875 164.538818359375 C 47.720149993896484 183.53262329101562 74.11305236816406 143.67083740234375 34.85317611694336 150.30105590820312" stroke-width="3.0" fill="none" stroke="rgb(0, 0, 0)" stroke-opacity="1.0" stroke-linecap="round" stroke-linejoin="round"/>
    <path d="M 123.69719696044922 150.1217803955078 C 91.63944244384766 192.6501922607422 107.31466674804688 195.92735290527344 131.6434783935547 152.56427001953125" stroke-width="3.0" fill="none" stroke="rgb(0, 0, 0)" stroke-opacity="1.0" stroke-linecap="round" stroke-linejoin="round"/>
    <path d="M 73.17595672607422 165.16818237304688 C 124.1676254272461 98.98428344726562 98.6689453125 133.9352569580078 87.50469970703125 119.20849609375" stroke-width="3.0" fill="none" stroke="rgb(0, 0, 0)" stroke-opacity="1.0" stroke-linecap="round" stroke-linejoin="round"/>
    <path d="M 132.92967224121094 91.82853698730469 C 145.9631805419922 69.04036712646484 139.58380126953125 92.36043548583984 145.77346801757812 69.29428100585938" stroke-width="3.0" fill="none" stroke="rgb(0, 0, 0)" stroke-opacity="1.0" stroke-linecap="round" stroke-linejoin="round"/>
    <path d="M 26.935768127441406 146.19236755371094 C 69.91584014892578 129.74395751953125 -0.4112713634967804 91.70480346679688 21.021072387695312 135.7662811279297" stroke-width="3.0" fill="none" stroke="rgb(0, 0, 0)" stroke-opacity="1.0" stroke-linecap="round" stroke-linejoin="round"/>
    <path d="M 153.5482635498047 63.70680618286133 C 146.58465576171875 42.36222457885742 203.75326538085938 79.12603759765625 186.3972930908203 81.74881744384766" stroke-width="3.0" fill="none" stroke="rgb(0, 0, 0)" stroke-opacity="1.0" stroke-linecap="round" stroke-linejoin="round"/>
    <path d="M 150.5917510986328 77.38230895996094 C 134.52479553222656 118.53106689453125 139.7765655517578 96.01325988769531 139.71337890625 101.09623718261719" stroke-width="3.0" fill="none" stroke="rgb(0, 0, 0)" stroke-opacity="1.0" stroke-linecap="round" stroke-linejoin="round"/>
    <path d="M 51.329833984375 51.88151168823242 C 152.82318115234375 54.53120803833008 195.80780029296875 76.97895050048828 64.02249908447266 52.401344299316406" stroke-width="3.0" fill="none" stroke="rgb(0, 0, 0)" stroke-opacity="1.0" stroke-linecap="round" stroke-linejoin="round"/>
    <path d="M 56.16737747192383 197.94338989257812 C 40.90449523925781 170.43751525878906 33.17473220825195 170.585693359375 34.07211685180664 152.08091735839844" stroke-width="3.0" fill="none" stroke="rgb(0, 0, 0)" stroke-opacity="1.0" stroke-linecap="round" stroke-linejoin="round"/>
    <path d="M 121.34822845458984 163.94863891601562 C 188.86175537109375 92.36090850830078 157.35574340820312 101.80303955078125 173.18345642089844 91.45994567871094" stroke-width="3.0" fill="none" stroke="rgb(0, 0, 0)" stroke-opacity="1.0" stroke-linecap="round" stroke-linejoin="round"/>
    <path d="M 154.9524688720703 53.49262237548828 C 215.652099609375 87.62240600585938 181.1940460205078 69.16004180908203 138.44664001464844 143.9149169921875" stroke-width="3.0" fill="none" stroke="rgb(0, 0, 0)" stroke-opacity="1.0" stroke-linecap="round" stroke-linejoin="round"/>
    <path d="M 38.12083053588867 76.1900634765625 C -18.32869529724121 86.16182708740234 -21.18149185180664 75.93565368652344 19.808368682861328 69.04306030273438" stroke-width="3.0" fill="none" stroke="rgb(0, 0, 0)" stroke-opacity="1.0" stroke-linecap="round" stroke-linejoin="round"/>
    <path d="M 69.21366882324219 149.4523468017578 C 75.36358642578125 136.5785675048828 53.66836166381836 136.44639587402344 73.28410339355469 127.79371643066406" stroke-width="3.0" fill="none" stroke="rgb(0, 0, 0)" stroke-opacity="1.0" stroke-linecap="round" stroke-linejoin="round"/>
  </g>
</svg>
