<?xml version="1.0" ?>
<svg xmlns="http://www.w3.org/2000/svg" version="1.1" width="224" height="224">
  <defs/>
  <g>
    <path d="M 131.3546600341797 125.39059448242188 C 164.6916046142578 107.19757843017578 132.44845581054688 89.50066375732422 145.40805053710938 86.22015380859375" stroke-width="3.0" fill="none" stroke="rgb(0, 0, 0)" stroke-opacity="1.0" stroke-linecap="round" stroke-linejoin="round"/>
    <path d="M 23.72588348388672 137.58755493164062 C 7.607211589813232 117.6059799194336 31.975021362304688 114.71943664550781 18.96782875061035 132.48609924316406" stroke-width="3.0" fill="none" stroke="rgb(0, 0, 0)" stroke-opacity="1.0" stroke-linecap="round" stroke-linejoin="round"/>
    <path d="M 114.04853820800781 104.46279907226562 C 66.54254913330078 87.22789001464844 91.9697036743164 154.1025848388672 111.03717803955078 113.56822967529297" stroke-width="3.0" fill="none" stroke="rgb(0, 0, 0)" stroke-opacity="1.0" stroke-linecap="round" stroke-linejoin="round"/>
    <path d="M 41.45622253417969 76.3259048461914 C 106.89012145996094 58.855228424072266 73.01963806152344 168.2330322265625 42.71096420288086 110.7388916015625" stroke-width="3.0" fill="none" stroke="rgb(0, 0, 0)" stroke-opacity="1.0" stroke-linecap="round" stroke-linejoin="round"/>
    <path d="M 145.84690856933594 65.97930145263672 C 195.5627899169922 78.67337799072266 159.12875366210938 119.76172637939453 160.5024871826172 93.30551147460938" stroke-width="3.0" fill="none" stroke="rgb(0, 0, 0)" stroke-opacity="1.0" stroke-linecap="round" stroke-linejoin="round"/>
    <path d="M 118.56948852539062 107.1063003540039 C 105.00418090820312 115.25485229492188 106.56014251708984 119.85848999023438 129.74522399902344 90.42864990234375" stroke-width="3.0" fill="none" stroke="rgb(0, 0, 0)" stroke-opacity="1.0" stroke-linecap="round" stroke-linejoin="round"/>
    <path d="M 7.440096378326416 79.8200912475586 C 5.084129333496094 84.1589126586914 16.319581985473633 96.29753875732422 7.702124118804932 106.11030578613281" stroke-width="3.0" fill="none" stroke="rgb(0, 0, 0)" stroke-opacity="1.0" stroke-linecap="round" stroke-linejoin="round"/>
    <path d="M 78.5235366821289 158.74864196777344 C 67.25980377197266 148.47610473632812 71.27926635742188 159.6614227294922 82.79242706298828 151.4741668701172" stroke-width="3.0" fill="none" stroke="rgb(0, 0, 0)" stroke-opacity="1.0" stroke-linecap="round" stroke-linejoin="round"/>
    <path d="M 58.556495666503906 161.45106506347656 C 76.36962890625 157.70774841308594 82.60874938964844 164.53384399414062 53.82661437988281 198.9301300048828" stroke-width="3.0" fill="none" stroke="rgb(0, 0, 0)" stroke-opacity="1.0" stroke-linecap="round" stroke-linejoin="round"/>
    <path d="M 46.01463317871094 106.75382995605469 C 65.86697387695312 56.537445068359375 -24.361330032348633 86.74750518798828 43.28153991699219 114.34860229492188" stroke-width="3.0" fill="none" stroke="rgb(0, 0, 0)" stroke-opacity="1.0" stroke-linecap="round" stroke-linejoin="round"/>
    <path d="M 91.70812225341797 138.03469848632812 C 98.7975845336914 129.3769073486328 89.62174987792969 131.9279022216797 90.47435760498047 141.91619873046875" stroke-width="3.0" fill="none" stroke="rgb(0, 0, 0)" stroke-opacity="1.0" stroke-linecap="round" stroke-linejoin="round"/>
    <path d="M 93.70537567138672 83.16033172607422 C 101.45066833496094 89.3114242553711 98.1749496459961 96.96558380126953 95.94776153564453 85.59318542480469" stroke-width="3.0" fill="none" stroke="rgb(0, 0, 0)" stroke-opacity="1.0" stroke-linecap="round" stroke-linejoin="round"/>
    <path d="M 9.603279113769531 107.13134765625 C 22.785499572753906 118.8150634765625 -12.720682144165039 80.38763427734375 21.649761199951172 136.25218200683594" stroke-width="3.0" fill="none" stroke="rgb(0, 0, 0)" stroke-opacity="1.0" stroke-linecap="round" stroke-linejoin="round"/>
    <path d="M 62.65141296386719 177.10684204101562 C 97.49244689941406 158.8943328857422 62.53443145751953 146.1984100341797 44.885257720947266 173.01220703125" stroke-width="3.0" fill="none" stroke="rgb(0, 0, 0)" stroke-opacity="1.0" stroke-linecap="round" stroke-linejoin="round"/>
    <path d="M 119.2455062866211 58.25224685668945 C 140.18630981445312 61.19283676147461 168.92356872558594 46.79136276245117 144.2136688232422 68.81864929199219" stroke-width="3.0" fill="none" stroke="rgb(0, 0, 0)" stroke-opacity="1.0" stroke-linecap="round" stroke-linejoin="round"/>
    <path d="M -4.339208126068115 63.54016876220703 C 16.782209396362305 57.441097259521484 44.72051239013672 45.608741760253906 73.85189056396484 53.56614303588867" stroke-width="3.0" fill="none" stroke="rgb(0, 0, 0)" stroke-opacity="1.0" stroke-linecap="round" stroke-linejoin="round"/>
    <path d="M 2.693432331085205 74.2756576538086 C 52.980751037597656 52.700321197509766 78.36914825439453 59.90822982788086 116.26822662353516 62.67099380493164" stroke-width="3.0" fill="none" stroke="rgb(0, 0, 0)" stroke-opacity="1.0" stroke-linecap="round" stroke-linejoin="round"/>
    <path d="M 42.17314147949219 169.67344665527344 C 30.02077293395996 157.0852813720703 19.72808265686035 120.15010070800781 35.54216766357422 162.4874267578125" stroke-width="3.0" fill="none" stroke="rgb(0, 0, 0)" stroke-opacity="1.0" stroke-linecap="round" stroke-linejoin="round"/>
    <path d="M 112.11686706542969 175.3645477294922 C 145.5086669921875 116.82328796386719 120.66620635986328 144.12646484375 126.438720703125 145.68919372558594" stroke-width="3.0" fill="none" stroke="rgb(0, 0, 0)" stroke-opacity="1.0" stroke-linecap="round" stroke-linejoin="round"/>
    <path d="M 37.055030822753906 160.86004638671875 C 55.17928695678711 174.90350341796875 62.78166580200195 143.01614379882812 33.99860763549805 150.61968994140625" stroke-width="3.0" fill="none" stroke="rgb(0, 0, 0)" stroke-opacity="1.0" stroke-linecap="round" stroke-linejoin="round"/>
    <path d="M 127.75920104980469 155.85935974121094 C 92.65177917480469 184.93943786621094 105.9915542602539 199.8366241455078 132.44126892089844 156.55030822753906" stroke-width="3.0" fill="none" stroke="rgb(0, 0, 0)" stroke-opacity="1.0" stroke-linecap="round" stroke-linejoin="round"/>
    <path d="M 79.81869506835938 156.4539031982422 C 118.1644515991211 106.6624755859375 100.89872741699219 132.85899353027344 86.95816040039062 120.02213287353516" stroke-width="3.0" fill="none" stroke="rgb(0, 0, 0)" stroke-opacity="1.0" stroke-linecap="round" stroke-linejoin="round"/>
    <path d="M 137.9912567138672 80.65423583984375 C 124.55414581298828 83.49650573730469 132.06637573242188 105.14444732666016 142.70687866210938 67.97008514404297" stroke-width="3.0" fill="none" stroke="rgb(0, 0, 0)" stroke-opacity="1.0" stroke-linecap="round" stroke-linejoin="round"/>
    <path d="M 25.19969940185547 141.5998077392578 C 70.19589233398438 132.3978729248047 7.619056224822998 88.21549987792969 23.305463790893555 139.80723571777344" stroke-width="3.0" fill="none" stroke="rgb(0, 0, 0)" stroke-opacity="1.0" stroke-linecap="round" stroke-linejoin="round"/>
    <path d="M 129.22315979003906 59.898651123046875 C 130.2768096923828 50.41316223144531 203.75352478027344 66.89523315429688 187.97653198242188 78.27556610107422" stroke-width="3.0" fill="none" stroke="rgb(0, 0, 0)" stroke-opacity="1.0" stroke-linecap="round" stroke-linejoin="round"/>
    <path d="M 136.00941467285156 83.50638580322266 C 122.04000091552734 114.4582748413086 132.74464416503906 101.5040512084961 123.66273498535156 97.14105987548828" stroke-width="3.0" fill="none" stroke="rgb(0, 0, 0)" stroke-opacity="1.0" stroke-linecap="round" stroke-linejoin="round"/>
    <path d="M 63.817726135253906 53.651065826416016 C 171.47332763671875 54.83561706542969 143.91636657714844 67.0856704711914 93.85265350341797 52.95442581176758" stroke-width="3.0" fill="none" stroke="rgb(0, 0, 0)" stroke-opacity="1.0" stroke-linecap="round" stroke-linejoin="round"/>
    <path d="M 54.627349853515625 200.9451904296875 C 41.163787841796875 164.8544158935547 31.17801284790039 164.1111297607422 34.379669189453125 148.4084014892578" stroke-width="3.0" fill="none" stroke="rgb(0, 0, 0)" stroke-opacity="1.0" stroke-linecap="round" stroke-linejoin="round"/>
    <path d="M 122.75586700439453 168.79507446289062 C 182.38209533691406 87.00997924804688 169.8743438720703 112.4892578125 181.20310974121094 86.30680847167969" stroke-width="3.0" fill="none" stroke="rgb(0, 0, 0)" stroke-opacity="1.0" stroke-linecap="round" stroke-linejoin="round"/>
    <path d="M 157.88796997070312 63.375267028808594 C 210.35853576660156 91.10969543457031 182.5802459716797 59.75751495361328 139.74920654296875 137.154296875" stroke-width="3.0" fill="none" stroke="rgb(0, 0, 0)" stroke-opacity="1.0" stroke-linecap="round" stroke-linejoin="round"/>
    <path d="M 8.083953857421875 73.48705291748047 C -2.1418421268463135 72.81067657470703 -0.7317938208580017 75.21620178222656 18.39836311340332 69.7027816772461" stroke-width="3.0" fill="none" stroke="rgb(0, 0, 0)" stroke-opacity="1.0" stroke-linecap="round" stroke-linejoin="round"/>
    <path d="M 69.71109008789062 149.58702087402344 C 73.42990112304688 138.2847900390625 62.24188995361328 139.81736755371094 68.98677062988281 132.88255310058594" stroke-width="3.0" fill="none" stroke="rgb(0, 0, 0)" stroke-opacity="1.0" stroke-linecap="round" stroke-linejoin="round"/>
  </g>
</svg>
