<?xml version="1.0" ?>
<svg xmlns="http://www.w3.org/2000/svg" version="1.1" width="224" height="224">
  <defs/>
  <g>
    <path d="M 127.31169891357422 127.39989471435547 C 149.6341094970703 109.07815551757812 138.03643798828125 87.91625213623047 153.61695861816406 76.00560760498047" stroke-width="3.0" fill="none" stroke="rgb(0, 0, 0)" stroke-opacity="1.0" stroke-linecap="round" stroke-linejoin="round"/>
    <path d="M 29.874292373657227 145.32896423339844 C 2.6526997089385986 119.63224792480469 18.02573585510254 121.92584228515625 25.959854125976562 135.1746368408203" stroke-width="3.0" fill="none" stroke="rgb(0, 0, 0)" stroke-opacity="1.0" stroke-linecap="round" stroke-linejoin="round"/>
    <path d="M 125.09676361083984 87.31707763671875 C 72.14605712890625 68.25838470458984 83.5540542602539 168.20071411132812 114.041015625 109.4808578491211" stroke-width="3.0" fill="none" stroke="rgb(0, 0, 0)" stroke-opacity="1.0" stroke-linecap="round" stroke-linejoin="round"/>
    <path d="M 40.11355972290039 74.8718032836914 C 105.73246765136719 47.88422775268555 75.78286743164062 168.65948486328125 45.595455169677734 109.77214050292969" stroke-width="3.0" fill="none" stroke="rgb(0, 0, 0)" stroke-opacity="1.0" stroke-linecap="round" stroke-linejoin="round"/>
    <path d="M 153.3101043701172 63.91018295288086 C 200.08554077148438 83.70558166503906 133.40948486328125 114.75296783447266 160.7116241455078 96.88433074951172" stroke-width="3.0" fill="none" stroke="rgb(0, 0, 0)" stroke-opacity="1.0" stroke-linecap="round" stroke-linejoin="round"/>
    <path d="M 120.30318450927734 103.0985336303711 C 101.55255889892578 116.08228302001953 106.4103012084961 123.958740234375 143.2677001953125 72.81288146972656" stroke-width="3.0" fill="none" stroke="rgb(0, 0, 0)" stroke-opacity="1.0" stroke-linecap="round" stroke-linejoin="round"/>
    <path d="M 16.349424362182617 93.84027099609375 C 5.059220790863037 83.03707885742188 21.56026268005371 100.26809692382812 4.897393703460693 107.15552520751953" stroke-width="3.0" fill="none" stroke="rgb(0, 0, 0)" stroke-opacity="1.0" stroke-linecap="round" stroke-linejoin="round"/>
    <path d="M 72.02433013916016 167.01922607421875 C 78.61904907226562 151.8563690185547 87.29967498779297 154.32090759277344 80.0386734008789 143.96522521972656" stroke-width="3.0" fill="none" stroke="rgb(0, 0, 0)" stroke-opacity="1.0" stroke-linecap="round" stroke-linejoin="round"/>
    <path d="M 53.4571418762207 165.4693603515625 C 71.62882232666016 158.9681854248047 81.0838623046875 165.8124542236328 55.68385696411133 200.59698486328125" stroke-width="3.0" fill="none" stroke="rgb(0, 0, 0)" stroke-opacity="1.0" stroke-linecap="round" stroke-linejoin="round"/>
    <path d="M 47.499542236328125 112.05963134765625 C 67.82940673828125 43.29277420043945 -27.798599243164062 97.18648529052734 45.5579948425293 113.12322998046875" stroke-width="3.0" fill="none" stroke="rgb(0, 0, 0)" stroke-opacity="1.0" stroke-linecap="round" stroke-linejoin="round"/>
    <path d="M 85.59886932373047 134.35760498046875 C 95.8197021484375 128.2149658203125 85.88435363769531 117.37850189208984 91.9397964477539 127.95415496826172" stroke-width="3.0" fill="none" stroke="rgb(0, 0, 0)" stroke-opacity="1.0" stroke-linecap="round" stroke-linejoin="round"/>
    <path d="M 86.45198822021484 79.10456848144531 C 90.48546600341797 88.37306213378906 98.70922088623047 85.04401397705078 87.42546081542969 82.00910186767578" stroke-width="3.0" fill="none" stroke="rgb(0, 0, 0)" stroke-opacity="1.0" stroke-linecap="round" stroke-linejoin="round"/>
    <path d="M 12.816429138183594 109.56978607177734 C 20.82212257385254 129.573486328125 -16.701068878173828 77.2462387084961 27.550508499145508 144.93231201171875" stroke-width="3.0" fill="none" stroke="rgb(0, 0, 0)" stroke-opacity="1.0" stroke-linecap="round" stroke-linejoin="round"/>
    <path d="M 59.610748291015625 188.5546417236328 C 106.67878723144531 144.71575927734375 53.22467041015625 159.3788299560547 55.49129104614258 178.59710693359375" stroke-width="3.0" fill="none" stroke="rgb(0, 0, 0)" stroke-opacity="1.0" stroke-linecap="round" stroke-linejoin="round"/>
    <path d="M 153.6732177734375 72.87556457519531 C 140.50253295898438 92.0946044921875 157.97789001464844 44.87937545776367 152.17010498046875 61.611568450927734" stroke-width="3.0" fill="none" stroke="rgb(0, 0, 0)" stroke-opacity="1.0" stroke-linecap="round" stroke-linejoin="round"/>
    <path d="M -5.614472389221191 65.99675750732422 C 9.412100791931152 53.354366302490234 44.777061462402344 46.53028869628906 58.27277755737305 52.4863395690918" stroke-width="3.0" fill="none" stroke="rgb(0, 0, 0)" stroke-opacity="1.0" stroke-linecap="round" stroke-linejoin="round"/>
    <path d="M -5.541623115539551 72.95951843261719 C 38.562950134277344 55.63748550415039 102.5014419555664 61.12686538696289 132.106689453125 79.04509735107422" stroke-width="3.0" fill="none" stroke="rgb(0, 0, 0)" stroke-opacity="1.0" stroke-linecap="round" stroke-linejoin="round"/>
    <path d="M 42.949710845947266 173.94839477539062 C 30.22055435180664 157.66879272460938 16.9982967376709 119.3755874633789 37.10975646972656 165.32522583007812" stroke-width="3.0" fill="none" stroke="rgb(0, 0, 0)" stroke-opacity="1.0" stroke-linecap="round" stroke-linejoin="round"/>
    <path d="M 109.41309356689453 178.944091796875 C 132.98855590820312 98.75006866455078 131.4872283935547 129.13404846191406 129.81077575683594 142.75079345703125" stroke-width="3.0" fill="none" stroke="rgb(0, 0, 0)" stroke-opacity="1.0" stroke-linecap="round" stroke-linejoin="round"/>
    <path d="M 36.5053596496582 167.17677307128906 C 44.7586669921875 190.30209350585938 71.48745727539062 143.080322265625 34.30915451049805 149.7624053955078" stroke-width="3.0" fill="none" stroke="rgb(0, 0, 0)" stroke-opacity="1.0" stroke-linecap="round" stroke-linejoin="round"/>
    <path d="M 130.34568786621094 142.87867736816406 C 86.32714080810547 194.0594940185547 106.66209411621094 200.35806274414062 132.5548858642578 150.6002655029297" stroke-width="3.0" fill="none" stroke="rgb(0, 0, 0)" stroke-opacity="1.0" stroke-linecap="round" stroke-linejoin="round"/>
    <path d="M 73.10316467285156 169.0787811279297 C 124.7631607055664 92.58381652832031 98.41986846923828 135.80087280273438 90.58500671386719 109.6707534790039" stroke-width="3.0" fill="none" stroke="rgb(0, 0, 0)" stroke-opacity="1.0" stroke-linecap="round" stroke-linejoin="round"/>
    <path d="M 131.57139587402344 85.11016082763672 C 147.6209716796875 79.88471221923828 136.6784210205078 92.11540222167969 145.54515075683594 67.904541015625" stroke-width="3.0" fill="none" stroke="rgb(0, 0, 0)" stroke-opacity="1.0" stroke-linecap="round" stroke-linejoin="round"/>
    <path d="M 28.00298500061035 146.15469360351562 C 70.47908020019531 122.3703842163086 5.342748165130615 98.91371154785156 19.93686866760254 135.6016082763672" stroke-width="3.0" fill="none" stroke="rgb(0, 0, 0)" stroke-opacity="1.0" stroke-linecap="round" stroke-linejoin="round"/>
    <path d="M 159.61326599121094 55.84585952758789 C 132.7050323486328 48.183197021484375 212.3898162841797 74.04698944091797 182.30528259277344 87.17658996582031" stroke-width="3.0" fill="none" stroke="rgb(0, 0, 0)" stroke-opacity="1.0" stroke-linecap="round" stroke-linejoin="round"/>
    <path d="M 150.72125244140625 85.10603332519531 C 134.30662536621094 115.64261627197266 140.88804626464844 85.5537109375 140.55479431152344 97.64665222167969" stroke-width="3.0" fill="none" stroke="rgb(0, 0, 0)" stroke-opacity="1.0" stroke-linecap="round" stroke-linejoin="round"/>
    <path d="M 56.62213134765625 51.58568572998047 C 155.1991729736328 55.96356201171875 193.1202850341797 88.45895385742188 63.63297653198242 50.64771270751953" stroke-width="3.0" fill="none" stroke="rgb(0, 0, 0)" stroke-opacity="1.0" stroke-linecap="round" stroke-linejoin="round"/>
    <path d="M 54.990928649902344 197.24542236328125 C 39.495662689208984 171.76858520507812 33.78623962402344 172.15567016601562 34.790218353271484 149.52403259277344" stroke-width="3.0" fill="none" stroke="rgb(0, 0, 0)" stroke-opacity="1.0" stroke-linecap="round" stroke-linejoin="round"/>
    <path d="M 119.2472915649414 166.51890563964844 C 189.47557067871094 92.02606201171875 160.0326690673828 100.78538513183594 179.40061950683594 93.3863296508789" stroke-width="3.0" fill="none" stroke="rgb(0, 0, 0)" stroke-opacity="1.0" stroke-linecap="round" stroke-linejoin="round"/>
    <path d="M 154.4748992919922 59.00875473022461 C 206.6449432373047 102.09674835205078 177.56524658203125 78.42269897460938 139.2058868408203 144.1089324951172" stroke-width="3.0" fill="none" stroke="rgb(0, 0, 0)" stroke-opacity="1.0" stroke-linecap="round" stroke-linejoin="round"/>
    <path d="M 38.085323333740234 62.825870513916016 C -15.422940254211426 91.53046417236328 -23.114763259887695 70.99827575683594 15.372868537902832 69.11589813232422" stroke-width="3.0" fill="none" stroke="rgb(0, 0, 0)" stroke-opacity="1.0" stroke-linecap="round" stroke-linejoin="round"/>
    <path d="M 73.67520141601562 150.13702392578125 C 74.8267822265625 132.38070678710938 67.68801879882812 143.8969268798828 70.06013488769531 128.10888671875" stroke-width="3.0" fill="none" stroke="rgb(0, 0, 0)" stroke-opacity="1.0" stroke-linecap="round" stroke-linejoin="round"/>
  </g>
</svg>
