<?xml version="1.0" ?>
<svg xmlns="http://www.w3.org/2000/svg" version="1.1" width="224" height="224">
  <defs/>
  <g>
    <path d="M 152.14515686035156 109.03666687011719 C 160.723388671875 87.66822814941406 141.23768615722656 97.14424896240234 146.64468383789062 90.71661376953125" stroke-width="3.0" fill="none" stroke="rgb(0, 0, 0)" stroke-opacity="1.0" stroke-linecap="round" stroke-linejoin="round"/>
    <path d="M 21.867115020751953 130.57177734375 C 27.157678604125977 117.52359008789062 39.0225715637207 129.9854278564453 22.9876708984375 133.21783447265625" stroke-width="3.0" fill="none" stroke="rgb(0, 0, 0)" stroke-opacity="1.0" stroke-linecap="round" stroke-linejoin="round"/>
    <path d="M 107.17171478271484 106.29238891601562 C 71.84040832519531 87.81255340576172 82.73216247558594 135.44578552246094 102.4599380493164 128.6585693359375" stroke-width="3.0" fill="none" stroke="rgb(0, 0, 0)" stroke-opacity="1.0" stroke-linecap="round" stroke-linejoin="round"/>
    <path d="M 61.945308685302734 92.74327087402344 C 96.78433227539062 83.24842071533203 84.96949768066406 119.28865814208984 54.251407623291016 92.70198059082031" stroke-width="3.0" fill="none" stroke="rgb(0, 0, 0)" stroke-opacity="1.0" stroke-linecap="round" stroke-linejoin="round"/>
    <path d="M 157.77008056640625 84.61756134033203 C 161.74667358398438 90.00607299804688 157.99256896972656 85.0860366821289 156.40257263183594 84.7513198852539" stroke-width="3.0" fill="none" stroke="rgb(0, 0, 0)" stroke-opacity="1.0" stroke-linecap="round" stroke-linejoin="round"/>
    <path d="M 106.21319580078125 116.61184692382812 C 104.99939727783203 125.72481536865234 97.8951644897461 119.45919036865234 107.68959045410156 111.27316284179688" stroke-width="3.0" fill="none" stroke="rgb(0, 0, 0)" stroke-opacity="1.0" stroke-linecap="round" stroke-linejoin="round"/>
    <path d="M 6.081752300262451 83.40018463134766 C 7.3845696449279785 85.56739044189453 16.786457061767578 92.90137481689453 8.758533477783203 102.70023345947266" stroke-width="3.0" fill="none" stroke="rgb(0, 0, 0)" stroke-opacity="1.0" stroke-linecap="round" stroke-linejoin="round"/>
    <path d="M 79.41754913330078 152.29739379882812 C 69.45454406738281 144.9930877685547 76.8436279296875 163.5443115234375 76.21461486816406 154.29957580566406" stroke-width="3.0" fill="none" stroke="rgb(0, 0, 0)" stroke-opacity="1.0" stroke-linecap="round" stroke-linejoin="round"/>
    <path d="M 63.16281509399414 163.22129821777344 C 75.94428253173828 157.59629821777344 80.33989715576172 166.9295654296875 55.109256744384766 199.77024841308594" stroke-width="3.0" fill="none" stroke="rgb(0, 0, 0)" stroke-opacity="1.0" stroke-linecap="round" stroke-linejoin="round"/>
    <path d="M 44.823585510253906 91.43083190917969 C 56.98705291748047 86.34959411621094 29.313318252563477 86.7994384765625 40.229583740234375 93.02053833007812" stroke-width="3.0" fill="none" stroke="rgb(0, 0, 0)" stroke-opacity="1.0" stroke-linecap="round" stroke-linejoin="round"/>
    <path d="M 98.76937103271484 134.65252685546875 C 101.1673583984375 138.83575439453125 97.74910736083984 122.17636108398438 94.1093521118164 129.22178649902344" stroke-width="3.0" fill="none" stroke="rgb(0, 0, 0)" stroke-opacity="1.0" stroke-linecap="round" stroke-linejoin="round"/>
    <path d="M 96.30205535888672 90.64360046386719 C 96.99636840820312 89.90901947021484 93.25152587890625 85.14398193359375 102.87847900390625 88.36048889160156" stroke-width="3.0" fill="none" stroke="rgb(0, 0, 0)" stroke-opacity="1.0" stroke-linecap="round" stroke-linejoin="round"/>
    <path d="M 9.515281677246094 107.3794174194336 C 22.338708877563477 121.62260437011719 9.766254425048828 106.11321258544922 20.31510353088379 124.7466049194336" stroke-width="3.0" fill="none" stroke="rgb(0, 0, 0)" stroke-opacity="1.0" stroke-linecap="round" stroke-linejoin="round"/>
    <path d="M 60.79950714111328 180.01637268066406 C 84.20986938476562 157.62757873535156 83.61566162109375 163.65118408203125 61.22355651855469 186.07838439941406" stroke-width="3.0" fill="none" stroke="rgb(0, 0, 0)" stroke-opacity="1.0" stroke-linecap="round" stroke-linejoin="round"/>
    <path d="M 126.8199691772461 58.38325881958008 C 104.60175323486328 62.06216049194336 134.3209991455078 53.92723083496094 145.73939514160156 68.03982543945312" stroke-width="3.0" fill="none" stroke="rgb(0, 0, 0)" stroke-opacity="1.0" stroke-linecap="round" stroke-linejoin="round"/>
    <path d="M 6.15018892288208 62.2436637878418 C 18.470766067504883 59.72236251831055 28.012920379638672 53.987361907958984 51.37987518310547 57.117374420166016" stroke-width="3.0" fill="none" stroke="rgb(0, 0, 0)" stroke-opacity="1.0" stroke-linecap="round" stroke-linejoin="round"/>
    <path d="M 38.83304977416992 55.76318359375 C 75.36640930175781 54.93305206298828 78.61628723144531 56.00221252441406 98.69342041015625 55.496360778808594" stroke-width="3.0" fill="none" stroke="rgb(0, 0, 0)" stroke-opacity="1.0" stroke-linecap="round" stroke-linejoin="round"/>
    <path d="M 44.101192474365234 165.93832397460938 C 40.15053939819336 147.98004150390625 15.447124481201172 130.31460571289062 43.76626205444336 168.822021484375" stroke-width="3.0" fill="none" stroke="rgb(0, 0, 0)" stroke-opacity="1.0" stroke-linecap="round" stroke-linejoin="round"/>
    <path d="M 119.04478454589844 168.0727996826172 C 146.12652587890625 136.65347290039062 136.43316650390625 131.14051818847656 122.5020980834961 153.8403778076172" stroke-width="3.0" fill="none" stroke="rgb(0, 0, 0)" stroke-opacity="1.0" stroke-linecap="round" stroke-linejoin="round"/>
    <path d="M 47.42438507080078 171.396728515625 C 66.5061264038086 168.4337615966797 57.09040069580078 156.23582458496094 44.01300048828125 156.24533081054688" stroke-width="3.0" fill="none" stroke="rgb(0, 0, 0)" stroke-opacity="1.0" stroke-linecap="round" stroke-linejoin="round"/>
    <path d="M 121.2282943725586 162.28604125976562 C 98.85821533203125 178.09083557128906 100.88472747802734 195.45230102539062 120.725341796875 163.6123046875" stroke-width="3.0" fill="none" stroke="rgb(0, 0, 0)" stroke-opacity="1.0" stroke-linecap="round" stroke-linejoin="round"/>
    <path d="M 99.22157287597656 135.21864318847656 C 105.70858764648438 121.04531860351562 88.9651870727539 131.03895568847656 97.75836944580078 133.63693237304688" stroke-width="3.0" fill="none" stroke="rgb(0, 0, 0)" stroke-opacity="1.0" stroke-linecap="round" stroke-linejoin="round"/>
    <path d="M 129.09767150878906 97.85508728027344 C 118.15127563476562 101.65441131591797 126.83257293701172 105.13455200195312 130.9994659423828 91.43473815917969" stroke-width="3.0" fill="none" stroke="rgb(0, 0, 0)" stroke-opacity="1.0" stroke-linecap="round" stroke-linejoin="round"/>
    <path d="M 26.83174705505371 140.76715087890625 C 53.55915832519531 133.82456970214844 32.203208923339844 107.49185943603516 23.271944046020508 136.13339233398438" stroke-width="3.0" fill="none" stroke="rgb(0, 0, 0)" stroke-opacity="1.0" stroke-linecap="round" stroke-linejoin="round"/>
    <path d="M 137.26513671875 57.436805725097656 C 137.33938598632812 52.77546691894531 166.37753295898438 57.01430130004883 182.57525634765625 75.78404998779297" stroke-width="3.0" fill="none" stroke="rgb(0, 0, 0)" stroke-opacity="1.0" stroke-linecap="round" stroke-linejoin="round"/>
    <path d="M 120.98114013671875 110.56622314453125 C 120.69933319091797 112.13652801513672 119.96210479736328 105.66023254394531 123.2351303100586 107.78901672363281" stroke-width="3.0" fill="none" stroke="rgb(0, 0, 0)" stroke-opacity="1.0" stroke-linecap="round" stroke-linejoin="round"/>
    <path d="M 106.07080078125 57.3078727722168 C 125.59391784667969 59.86963653564453 123.49575805664062 56.58229064941406 92.40802001953125 58.246360778808594" stroke-width="3.0" fill="none" stroke="rgb(0, 0, 0)" stroke-opacity="1.0" stroke-linecap="round" stroke-linejoin="round"/>
    <path d="M 55.70780563354492 199.10987854003906 C 42.10825729370117 170.9413604736328 33.154300689697266 165.07357788085938 36.68788528442383 152.49664306640625" stroke-width="3.0" fill="none" stroke="rgb(0, 0, 0)" stroke-opacity="1.0" stroke-linecap="round" stroke-linejoin="round"/>
    <path d="M 127.36515808105469 150.9644012451172 C 175.40621948242188 89.837890625 175.64224243164062 112.63841247558594 172.474365234375 82.81539916992188" stroke-width="3.0" fill="none" stroke="rgb(0, 0, 0)" stroke-opacity="1.0" stroke-linecap="round" stroke-linejoin="round"/>
    <path d="M 149.4601593017578 68.95973205566406 C 195.70355224609375 89.9547348022461 171.70220947265625 74.90208435058594 148.57369995117188 119.74290466308594" stroke-width="3.0" fill="none" stroke="rgb(0, 0, 0)" stroke-opacity="1.0" stroke-linecap="round" stroke-linejoin="round"/>
    <path d="M 20.86583709716797 82.41617584228516 C 21.30181121826172 83.08209228515625 14.512053489685059 79.49205780029297 18.90872573852539 82.05718994140625" stroke-width="3.0" fill="none" stroke="rgb(0, 0, 0)" stroke-opacity="1.0" stroke-linecap="round" stroke-linejoin="round"/>
    <path d="M 51.454925537109375 135.21112060546875 C 52.926788330078125 134.95436096191406 47.19709777832031 135.04933166503906 48.059356689453125 135.3165283203125" stroke-width="3.0" fill="none" stroke="rgb(0, 0, 0)" stroke-opacity="1.0" stroke-linecap="round" stroke-linejoin="round"/>
  </g>
</svg>
