<?xml version="1.0" ?>
<svg xmlns="http://www.w3.org/2000/svg" version="1.1" width="224" height="224">
  <defs/>
  <g>
    <path d="M 135.80807495117188 128.2030487060547 C 169.03826904296875 108.01097106933594 129.34182739257812 92.85757446289062 157.94622802734375 79.40921020507812" stroke-width="3.0" fill="none" stroke="rgb(0, 0, 0)" stroke-opacity="1.0" stroke-linecap="round" stroke-linejoin="round"/>
    <path d="M 26.44728660583496 136.80001831054688 C 0.2989255487918854 117.0765609741211 24.67152214050293 111.92533874511719 22.69288444519043 132.72085571289062" stroke-width="3.0" fill="none" stroke="rgb(0, 0, 0)" stroke-opacity="1.0" stroke-linecap="round" stroke-linejoin="round"/>
    <path d="M 120.52030181884766 96.86417388916016 C 61.977203369140625 85.31764221191406 92.23521423339844 168.41416931152344 111.49996948242188 111.84919738769531" stroke-width="3.0" fill="none" stroke="rgb(0, 0, 0)" stroke-opacity="1.0" stroke-linecap="round" stroke-linejoin="round"/>
    <path d="M 43.36419677734375 79.55731201171875 C 111.67353820800781 47.98304748535156 70.89865112304688 172.5391845703125 44.69872283935547 112.47618865966797" stroke-width="3.0" fill="none" stroke="rgb(0, 0, 0)" stroke-opacity="1.0" stroke-linecap="round" stroke-linejoin="round"/>
    <path d="M 153.38145446777344 60.28193664550781 C 202.3673553466797 80.88395690917969 145.701904296875 130.8707733154297 157.9264373779297 107.6243667602539" stroke-width="3.0" fill="none" stroke="rgb(0, 0, 0)" stroke-opacity="1.0" stroke-linecap="round" stroke-linejoin="round"/>
    <path d="M 117.26891326904297 104.77487182617188 C 105.91212463378906 105.7828369140625 106.22638702392578 125.06202697753906 135.57830810546875 76.96125793457031" stroke-width="3.0" fill="none" stroke="rgb(0, 0, 0)" stroke-opacity="1.0" stroke-linecap="round" stroke-linejoin="round"/>
    <path d="M 7.623804092407227 91.58032989501953 C 3.6907572746276855 87.20670318603516 21.006389617919922 96.5456314086914 5.643767356872559 109.5367431640625" stroke-width="3.0" fill="none" stroke="rgb(0, 0, 0)" stroke-opacity="1.0" stroke-linecap="round" stroke-linejoin="round"/>
    <path d="M 78.78337097167969 164.68911743164062 C 69.95613861083984 145.4742431640625 73.89332580566406 161.78465270996094 86.14557647705078 146.2191619873047" stroke-width="3.0" fill="none" stroke="rgb(0, 0, 0)" stroke-opacity="1.0" stroke-linecap="round" stroke-linejoin="round"/>
    <path d="M 56.802677154541016 160.95303344726562 C 71.04875946044922 152.63002014160156 81.49708557128906 167.0962677001953 54.24238586425781 198.83242797851562" stroke-width="3.0" fill="none" stroke="rgb(0, 0, 0)" stroke-opacity="1.0" stroke-linecap="round" stroke-linejoin="round"/>
    <path d="M 46.645225524902344 111.22384643554688 C 73.62477111816406 44.26228332519531 -32.187599182128906 97.64017486572266 45.96268081665039 115.3361587524414" stroke-width="3.0" fill="none" stroke="rgb(0, 0, 0)" stroke-opacity="1.0" stroke-linecap="round" stroke-linejoin="round"/>
    <path d="M 86.1219253540039 140.07281494140625 C 108.69070434570312 135.6629180908203 82.43650817871094 123.3588638305664 86.35628509521484 123.55309295654297" stroke-width="3.0" fill="none" stroke="rgb(0, 0, 0)" stroke-opacity="1.0" stroke-linecap="round" stroke-linejoin="round"/>
    <path d="M 88.11997985839844 81.32588195800781 C 87.95862579345703 91.86748504638672 97.36995697021484 91.73088836669922 89.98159790039062 83.99076080322266" stroke-width="3.0" fill="none" stroke="rgb(0, 0, 0)" stroke-opacity="1.0" stroke-linecap="round" stroke-linejoin="round"/>
    <path d="M 8.037139892578125 107.30892944335938 C 22.35406494140625 128.9664764404297 -14.343147277832031 82.01789093017578 27.011056900024414 144.41424560546875" stroke-width="3.0" fill="none" stroke="rgb(0, 0, 0)" stroke-opacity="1.0" stroke-linecap="round" stroke-linejoin="round"/>
    <path d="M 62.5267448425293 179.37350463867188 C 100.34228515625 151.2469940185547 55.453094482421875 154.5750732421875 54.13860321044922 172.489013671875" stroke-width="3.0" fill="none" stroke="rgb(0, 0, 0)" stroke-opacity="1.0" stroke-linecap="round" stroke-linejoin="round"/>
    <path d="M 146.9842987060547 61.18980026245117 C 151.12176513671875 75.25418090820312 157.21824645996094 40.05052185058594 150.75634765625 62.03654861450195" stroke-width="3.0" fill="none" stroke="rgb(0, 0, 0)" stroke-opacity="1.0" stroke-linecap="round" stroke-linejoin="round"/>
    <path d="M -5.326706886291504 66.1211166381836 C 18.955671310424805 55.53281021118164 38.94347381591797 42.81338119506836 63.596920013427734 49.12373733520508" stroke-width="3.0" fill="none" stroke="rgb(0, 0, 0)" stroke-opacity="1.0" stroke-linecap="round" stroke-linejoin="round"/>
    <path d="M -4.784562110900879 74.0523910522461 C 48.00102996826172 55.24374771118164 102.17564392089844 57.70637130737305 133.2582244873047 78.5102310180664" stroke-width="3.0" fill="none" stroke="rgb(0, 0, 0)" stroke-opacity="1.0" stroke-linecap="round" stroke-linejoin="round"/>
    <path d="M 44.40581512451172 171.21841430664062 C 29.0446834564209 157.38186645507812 15.267690658569336 121.17998504638672 35.76048278808594 164.616943359375" stroke-width="3.0" fill="none" stroke="rgb(0, 0, 0)" stroke-opacity="1.0" stroke-linecap="round" stroke-linejoin="round"/>
    <path d="M 113.856689453125 170.94908142089844 C 129.10317993164062 105.02141571044922 103.13158416748047 126.5812759399414 126.4434814453125 130.1630859375" stroke-width="3.0" fill="none" stroke="rgb(0, 0, 0)" stroke-opacity="1.0" stroke-linecap="round" stroke-linejoin="round"/>
    <path d="M 36.09345245361328 164.91510009765625 C 48.68684387207031 186.17391967773438 73.97698974609375 144.51046752929688 35.22108840942383 149.3737030029297" stroke-width="3.0" fill="none" stroke="rgb(0, 0, 0)" stroke-opacity="1.0" stroke-linecap="round" stroke-linejoin="round"/>
    <path d="M 123.6407699584961 145.72279357910156 C 94.34761810302734 191.6656036376953 109.0318832397461 197.36532592773438 132.5275115966797 152.76393127441406" stroke-width="3.0" fill="none" stroke="rgb(0, 0, 0)" stroke-opacity="1.0" stroke-linecap="round" stroke-linejoin="round"/>
    <path d="M 74.56926727294922 164.6752471923828 C 122.70272827148438 101.39752960205078 99.68486022949219 136.6847686767578 90.08631896972656 117.3288803100586" stroke-width="3.0" fill="none" stroke="rgb(0, 0, 0)" stroke-opacity="1.0" stroke-linecap="round" stroke-linejoin="round"/>
    <path d="M 132.3096923828125 88.69713592529297 C 142.3003387451172 71.0071029663086 138.17762756347656 92.33241271972656 149.1367645263672 63.54928207397461" stroke-width="3.0" fill="none" stroke="rgb(0, 0, 0)" stroke-opacity="1.0" stroke-linecap="round" stroke-linejoin="round"/>
    <path d="M 26.488447189331055 143.00631713867188 C 75.59076690673828 131.2368927001953 0.1793479323387146 90.30411529541016 21.81800079345703 135.33009338378906" stroke-width="3.0" fill="none" stroke="rgb(0, 0, 0)" stroke-opacity="1.0" stroke-linecap="round" stroke-linejoin="round"/>
    <path d="M 150.41893005371094 65.51174926757812 C 149.91481018066406 40.79452133178711 205.06893920898438 77.24595642089844 186.6253662109375 80.17674255371094" stroke-width="3.0" fill="none" stroke="rgb(0, 0, 0)" stroke-opacity="1.0" stroke-linecap="round" stroke-linejoin="round"/>
    <path d="M 150.34744262695312 89.17131805419922 C 134.80442810058594 123.55763244628906 134.6418914794922 102.95519256591797 143.81607055664062 105.00362396240234" stroke-width="3.0" fill="none" stroke="rgb(0, 0, 0)" stroke-opacity="1.0" stroke-linecap="round" stroke-linejoin="round"/>
    <path d="M 57.62848663330078 47.41577911376953 C 158.70103454589844 48.97615432739258 189.24290466308594 76.77085876464844 72.2691421508789 48.84819030761719" stroke-width="3.0" fill="none" stroke="rgb(0, 0, 0)" stroke-opacity="1.0" stroke-linecap="round" stroke-linejoin="round"/>
    <path d="M 53.335548400878906 196.1663818359375 C 43.316871643066406 167.69552612304688 33.09190368652344 169.3900604248047 34.62155532836914 151.66842651367188" stroke-width="3.0" fill="none" stroke="rgb(0, 0, 0)" stroke-opacity="1.0" stroke-linecap="round" stroke-linejoin="round"/>
    <path d="M 121.43814086914062 166.32757568359375 C 185.40609741210938 91.17156982421875 160.43466186523438 105.16448974609375 176.47598266601562 91.0914535522461" stroke-width="3.0" fill="none" stroke="rgb(0, 0, 0)" stroke-opacity="1.0" stroke-linecap="round" stroke-linejoin="round"/>
    <path d="M 155.83340454101562 55.56391525268555 C 208.98348999023438 94.52005004882812 180.9540252685547 68.02244567871094 138.8386993408203 144.20933532714844" stroke-width="3.0" fill="none" stroke="rgb(0, 0, 0)" stroke-opacity="1.0" stroke-linecap="round" stroke-linejoin="round"/>
    <path d="M 25.75000762939453 74.54046630859375 C -11.599396705627441 90.16747283935547 -16.830949783325195 73.38243103027344 15.147505760192871 67.5635986328125" stroke-width="3.0" fill="none" stroke="rgb(0, 0, 0)" stroke-opacity="1.0" stroke-linecap="round" stroke-linejoin="round"/>
    <path d="M 69.83052825927734 144.1105194091797 C 76.82987213134766 135.54104614257812 64.35150909423828 141.4326171875 71.63478088378906 126.5057601928711" stroke-width="3.0" fill="none" stroke="rgb(0, 0, 0)" stroke-opacity="1.0" stroke-linecap="round" stroke-linejoin="round"/>
  </g>
</svg>
