<?xml version="1.0" ?>
<svg xmlns="http://www.w3.org/2000/svg" version="1.1" width="224" height="224">
  <defs/>
  <g>
    <path d="M 134.54299926757812 125.7459716796875 C 167.48777770996094 103.4759750366211 131.90589904785156 88.6261215209961 155.6344757080078 68.12989044189453" stroke-width="3.0" fill="none" stroke="rgb(0, 0, 0)" stroke-opacity="1.0" stroke-linecap="round" stroke-linejoin="round"/>
    <path d="M 29.25515365600586 141.12899780273438 C 3.190786361694336 125.55619049072266 25.838468551635742 121.8887710571289 21.945959091186523 135.4378204345703" stroke-width="3.0" fill="none" stroke="rgb(0, 0, 0)" stroke-opacity="1.0" stroke-linecap="round" stroke-linejoin="round"/>
    <path d="M 119.468017578125 95.16339111328125 C 63.18376922607422 80.80623626708984 92.26606750488281 166.16787719726562 113.26414489746094 109.34282684326172" stroke-width="3.0" fill="none" stroke="rgb(0, 0, 0)" stroke-opacity="1.0" stroke-linecap="round" stroke-linejoin="round"/>
    <path d="M 38.62027359008789 78.92486572265625 C 108.21295928955078 48.402793884277344 74.15669250488281 174.81777954101562 45.45735168457031 111.45154571533203" stroke-width="3.0" fill="none" stroke="rgb(0, 0, 0)" stroke-opacity="1.0" stroke-linecap="round" stroke-linejoin="round"/>
    <path d="M 158.0598602294922 63.29271697998047 C 206.6502227783203 79.13388061523438 142.7598419189453 129.31288146972656 161.53079223632812 109.35932159423828" stroke-width="3.0" fill="none" stroke="rgb(0, 0, 0)" stroke-opacity="1.0" stroke-linecap="round" stroke-linejoin="round"/>
    <path d="M 117.08795166015625 105.01448822021484 C 104.9649658203125 114.31211853027344 103.96234130859375 124.09442901611328 141.03990173339844 73.64968872070312" stroke-width="3.0" fill="none" stroke="rgb(0, 0, 0)" stroke-opacity="1.0" stroke-linecap="round" stroke-linejoin="round"/>
    <path d="M 9.332060813903809 91.62177276611328 C 5.549580097198486 84.40563201904297 20.7894287109375 91.66098022460938 6.4446940422058105 107.74189758300781" stroke-width="3.0" fill="none" stroke="rgb(0, 0, 0)" stroke-opacity="1.0" stroke-linecap="round" stroke-linejoin="round"/>
    <path d="M 79.10398864746094 161.82884216308594 C 77.66490173339844 144.0633544921875 77.49601745605469 162.91552734375 85.53361511230469 141.32559204101562" stroke-width="3.0" fill="none" stroke="rgb(0, 0, 0)" stroke-opacity="1.0" stroke-linecap="round" stroke-linejoin="round"/>
    <path d="M 55.394126892089844 162.23764038085938 C 71.43447875976562 154.8377685546875 82.25025177001953 168.9987335205078 55.27275848388672 199.84547424316406" stroke-width="3.0" fill="none" stroke="rgb(0, 0, 0)" stroke-opacity="1.0" stroke-linecap="round" stroke-linejoin="round"/>
    <path d="M 47.79279327392578 115.249755859375 C 69.70687103271484 43.657901763916016 -27.4759578704834 94.59416961669922 48.03841018676758 109.73757934570312" stroke-width="3.0" fill="none" stroke="rgb(0, 0, 0)" stroke-opacity="1.0" stroke-linecap="round" stroke-linejoin="round"/>
    <path d="M 82.07683563232422 135.81393432617188 C 101.24223327636719 125.15312194824219 82.09754943847656 121.30559539794922 82.49139404296875 126.88056945800781" stroke-width="3.0" fill="none" stroke="rgb(0, 0, 0)" stroke-opacity="1.0" stroke-linecap="round" stroke-linejoin="round"/>
    <path d="M 86.10397338867188 79.16156768798828 C 87.08939361572266 91.29995727539062 102.11627197265625 89.43094635009766 89.10537719726562 82.17977142333984" stroke-width="3.0" fill="none" stroke="rgb(0, 0, 0)" stroke-opacity="1.0" stroke-linecap="round" stroke-linejoin="round"/>
    <path d="M 8.72623348236084 107.54436492919922 C 22.83269500732422 125.2880630493164 -13.8937406539917 77.12898254394531 26.529373168945312 148.0287628173828" stroke-width="3.0" fill="none" stroke="rgb(0, 0, 0)" stroke-opacity="1.0" stroke-linecap="round" stroke-linejoin="round"/>
    <path d="M 61.93893814086914 181.47885131835938 C 98.31758117675781 151.02127075195312 55.19375991821289 153.87734985351562 54.50104522705078 176.82237243652344" stroke-width="3.0" fill="none" stroke="rgb(0, 0, 0)" stroke-opacity="1.0" stroke-linecap="round" stroke-linejoin="round"/>
    <path d="M 140.75704956054688 63.84578323364258 C 153.99929809570312 79.71617126464844 159.29986572265625 40.91978073120117 152.98556518554688 62.221435546875" stroke-width="3.0" fill="none" stroke="rgb(0, 0, 0)" stroke-opacity="1.0" stroke-linecap="round" stroke-linejoin="round"/>
    <path d="M -4.858641624450684 66.85301971435547 C 17.264347076416016 53.969322204589844 36.61036682128906 42.27666473388672 63.989383697509766 49.97806930541992" stroke-width="3.0" fill="none" stroke="rgb(0, 0, 0)" stroke-opacity="1.0" stroke-linecap="round" stroke-linejoin="round"/>
    <path d="M -5.306318283081055 73.19062042236328 C 44.637237548828125 54.29154968261719 107.58444213867188 57.42133331298828 131.3286590576172 79.08140563964844" stroke-width="3.0" fill="none" stroke="rgb(0, 0, 0)" stroke-opacity="1.0" stroke-linecap="round" stroke-linejoin="round"/>
    <path d="M 42.444820404052734 174.39073181152344 C 26.269622802734375 160.10012817382812 17.280677795410156 119.42736053466797 35.6002082824707 163.44760131835938" stroke-width="3.0" fill="none" stroke="rgb(0, 0, 0)" stroke-opacity="1.0" stroke-linecap="round" stroke-linejoin="round"/>
    <path d="M 112.47162628173828 172.5677490234375 C 137.40599060058594 102.39741516113281 110.6346206665039 115.71552276611328 125.89942169189453 129.56016540527344" stroke-width="3.0" fill="none" stroke="rgb(0, 0, 0)" stroke-opacity="1.0" stroke-linecap="round" stroke-linejoin="round"/>
    <path d="M 33.275272369384766 163.98451232910156 C 48.87847900390625 181.42764282226562 75.88628387451172 141.53431701660156 37.4472541809082 147.73338317871094" stroke-width="3.0" fill="none" stroke="rgb(0, 0, 0)" stroke-opacity="1.0" stroke-linecap="round" stroke-linejoin="round"/>
    <path d="M 124.34210205078125 150.5865478515625 C 92.04718780517578 192.0299072265625 109.09454345703125 197.545654296875 132.19969177246094 153.38861083984375" stroke-width="3.0" fill="none" stroke="rgb(0, 0, 0)" stroke-opacity="1.0" stroke-linecap="round" stroke-linejoin="round"/>
    <path d="M 73.1150131225586 163.8798370361328 C 122.37910461425781 97.82950592041016 96.314697265625 131.32057189941406 90.09004211425781 114.3402328491211" stroke-width="3.0" fill="none" stroke="rgb(0, 0, 0)" stroke-opacity="1.0" stroke-linecap="round" stroke-linejoin="round"/>
    <path d="M 132.91409301757812 92.26609802246094 C 147.6085968017578 70.27171325683594 139.4259796142578 91.63823699951172 144.23660278320312 64.78997802734375" stroke-width="3.0" fill="none" stroke="rgb(0, 0, 0)" stroke-opacity="1.0" stroke-linecap="round" stroke-linejoin="round"/>
    <path d="M 27.170684814453125 146.94346618652344 C 71.65653991699219 129.72923278808594 1.4440442323684692 89.5109634399414 21.69219207763672 135.7107696533203" stroke-width="3.0" fill="none" stroke="rgb(0, 0, 0)" stroke-opacity="1.0" stroke-linecap="round" stroke-linejoin="round"/>
    <path d="M 153.81129455566406 66.00946044921875 C 142.56985473632812 41.028289794921875 204.270263671875 78.77021789550781 187.66616821289062 83.1050033569336" stroke-width="3.0" fill="none" stroke="rgb(0, 0, 0)" stroke-opacity="1.0" stroke-linecap="round" stroke-linejoin="round"/>
    <path d="M 153.25840759277344 81.47753143310547 C 134.9524383544922 120.61231231689453 140.1494140625 99.96686553955078 141.97906494140625 103.29528045654297" stroke-width="3.0" fill="none" stroke="rgb(0, 0, 0)" stroke-opacity="1.0" stroke-linecap="round" stroke-linejoin="round"/>
    <path d="M 50.77245330810547 49.45962142944336 C 145.37889099121094 60.341339111328125 190.1912841796875 79.76270294189453 68.45484161376953 49.45071029663086" stroke-width="3.0" fill="none" stroke="rgb(0, 0, 0)" stroke-opacity="1.0" stroke-linecap="round" stroke-linejoin="round"/>
    <path d="M 55.76692199707031 196.25814819335938 C 42.907630920410156 168.11082458496094 33.188480377197266 170.3701629638672 34.53966522216797 149.2322998046875" stroke-width="3.0" fill="none" stroke="rgb(0, 0, 0)" stroke-opacity="1.0" stroke-linecap="round" stroke-linejoin="round"/>
    <path d="M 121.45356750488281 164.84011840820312 C 187.80081176757812 93.3488998413086 157.29281616210938 103.04984283447266 173.42530822753906 88.7467041015625" stroke-width="3.0" fill="none" stroke="rgb(0, 0, 0)" stroke-opacity="1.0" stroke-linecap="round" stroke-linejoin="round"/>
    <path d="M 157.44705200195312 51.45363235473633 C 213.47320556640625 89.79180145263672 180.7743682861328 66.83550262451172 138.53355407714844 142.3951416015625" stroke-width="3.0" fill="none" stroke="rgb(0, 0, 0)" stroke-opacity="1.0" stroke-linecap="round" stroke-linejoin="round"/>
    <path d="M 35.93879699707031 76.4883041381836 C -17.21888542175293 90.1127700805664 -21.749834060668945 75.3683090209961 16.990036010742188 66.8349380493164" stroke-width="3.0" fill="none" stroke="rgb(0, 0, 0)" stroke-opacity="1.0" stroke-linecap="round" stroke-linejoin="round"/>
    <path d="M 68.14683532714844 150.44180297851562 C 68.36967468261719 139.2949981689453 54.36824417114258 137.3770294189453 73.20513916015625 127.59912109375" stroke-width="3.0" fill="none" stroke="rgb(0, 0, 0)" stroke-opacity="1.0" stroke-linecap="round" stroke-linejoin="round"/>
  </g>
</svg>
