<?xml version="1.0" ?>
<svg xmlns="http://www.w3.org/2000/svg" version="1.1" width="224" height="224">
  <defs/>
  <g>
    <path d="M 131.62728881835938 124.60157012939453 C 139.3075408935547 94.05839538574219 146.42098999023438 81.06878662109375 156.66143798828125 63.414127349853516" stroke-width="3.0" fill="none" stroke="rgb(0, 0, 0)" stroke-opacity="1.0" stroke-linecap="round" stroke-linejoin="round"/>
    <path d="M 28.783143997192383 143.29193115234375 C 7.154811859130859 120.31379699707031 27.393308639526367 105.8077621459961 24.1898250579834 136.34182739257812" stroke-width="3.0" fill="none" stroke="rgb(0, 0, 0)" stroke-opacity="1.0" stroke-linecap="round" stroke-linejoin="round"/>
    <path d="M 128.18243408203125 85.98554992675781 C 85.20882415771484 37.230979919433594 81.71158599853516 165.3569793701172 115.4449234008789 110.92486572265625" stroke-width="3.0" fill="none" stroke="rgb(0, 0, 0)" stroke-opacity="1.0" stroke-linecap="round" stroke-linejoin="round"/>
    <path d="M 41.86198425292969 79.3284912109375 C 97.71920013427734 46.88420867919922 80.76185607910156 168.19654846191406 46.607608795166016 112.18122863769531" stroke-width="3.0" fill="none" stroke="rgb(0, 0, 0)" stroke-opacity="1.0" stroke-linecap="round" stroke-linejoin="round"/>
    <path d="M 153.8675994873047 67.11715698242188 C 194.03321838378906 79.96774291992188 144.7889404296875 120.74268341064453 163.700927734375 95.12337493896484" stroke-width="3.0" fill="none" stroke="rgb(0, 0, 0)" stroke-opacity="1.0" stroke-linecap="round" stroke-linejoin="round"/>
    <path d="M 124.82809448242188 101.03217315673828 C 99.6151351928711 112.68291473388672 109.22276306152344 132.96087646484375 151.9339599609375 58.68650436401367" stroke-width="3.0" fill="none" stroke="rgb(0, 0, 0)" stroke-opacity="1.0" stroke-linecap="round" stroke-linejoin="round"/>
    <path d="M 7.125629901885986 90.90211486816406 C -6.050118923187256 64.34690856933594 23.66733169555664 90.98100280761719 4.775363445281982 105.46086883544922" stroke-width="3.0" fill="none" stroke="rgb(0, 0, 0)" stroke-opacity="1.0" stroke-linecap="round" stroke-linejoin="round"/>
    <path d="M 76.20487976074219 160.46237182617188 C 70.87922668457031 144.45924377441406 89.4205551147461 155.4483184814453 78.4892349243164 143.93011474609375" stroke-width="3.0" fill="none" stroke="rgb(0, 0, 0)" stroke-opacity="1.0" stroke-linecap="round" stroke-linejoin="round"/>
    <path d="M 64.75507354736328 157.70639038085938 C 75.09613037109375 156.35610961914062 84.41773986816406 163.539306640625 55.904632568359375 200.0888214111328" stroke-width="3.0" fill="none" stroke="rgb(0, 0, 0)" stroke-opacity="1.0" stroke-linecap="round" stroke-linejoin="round"/>
    <path d="M 47.52063751220703 114.75748443603516 C 63.728485107421875 36.259559631347656 -24.191574096679688 111.29092407226562 48.770973205566406 109.50434112548828" stroke-width="3.0" fill="none" stroke="rgb(0, 0, 0)" stroke-opacity="1.0" stroke-linecap="round" stroke-linejoin="round"/>
    <path d="M 78.10314178466797 137.04949951171875 C 89.17322540283203 134.3084716796875 76.3474349975586 110.0846939086914 103.34394073486328 112.5658187866211" stroke-width="3.0" fill="none" stroke="rgb(0, 0, 0)" stroke-opacity="1.0" stroke-linecap="round" stroke-linejoin="round"/>
    <path d="M 85.0632095336914 71.03340911865234 C 95.0118408203125 76.90541076660156 92.62567901611328 78.15434265136719 88.90169525146484 75.91903686523438" stroke-width="3.0" fill="none" stroke="rgb(0, 0, 0)" stroke-opacity="1.0" stroke-linecap="round" stroke-linejoin="round"/>
    <path d="M 5.586470127105713 113.89875793457031 C 24.617462158203125 130.509765625 -20.932336807250977 74.46846771240234 28.95342445373535 152.02420043945312" stroke-width="3.0" fill="none" stroke="rgb(0, 0, 0)" stroke-opacity="1.0" stroke-linecap="round" stroke-linejoin="round"/>
    <path d="M 58.244110107421875 190.30776977539062 C 114.53076934814453 137.47515869140625 31.478897094726562 157.41644287109375 54.86723327636719 178.11898803710938" stroke-width="3.0" fill="none" stroke="rgb(0, 0, 0)" stroke-opacity="1.0" stroke-linecap="round" stroke-linejoin="round"/>
    <path d="M 144.86483764648438 86.08650207519531 C 150.33676147460938 106.9035873413086 147.02218627929688 45.9048957824707 155.66317749023438 61.19331741333008" stroke-width="3.0" fill="none" stroke="rgb(0, 0, 0)" stroke-opacity="1.0" stroke-linecap="round" stroke-linejoin="round"/>
    <path d="M -5.283113956451416 70.07864379882812 C 11.395864486694336 57.07725524902344 43.78859329223633 47.22494125366211 61.70770263671875 53.34726333618164" stroke-width="3.0" fill="none" stroke="rgb(0, 0, 0)" stroke-opacity="1.0" stroke-linecap="round" stroke-linejoin="round"/>
    <path d="M -3.020766496658325 79.32075500488281 C 51.22178268432617 55.69422912597656 92.88036346435547 58.71914291381836 139.6688690185547 74.06566619873047" stroke-width="3.0" fill="none" stroke="rgb(0, 0, 0)" stroke-opacity="1.0" stroke-linecap="round" stroke-linejoin="round"/>
    <path d="M 42.012779235839844 174.62496948242188 C 28.76728057861328 160.46484375 13.033634185791016 121.62773895263672 38.714698791503906 168.7240753173828" stroke-width="3.0" fill="none" stroke="rgb(0, 0, 0)" stroke-opacity="1.0" stroke-linecap="round" stroke-linejoin="round"/>
    <path d="M 114.79886627197266 168.36900329589844 C 133.79515075683594 86.4532241821289 143.35304260253906 124.9212417602539 127.6156234741211 129.18385314941406" stroke-width="3.0" fill="none" stroke="rgb(0, 0, 0)" stroke-opacity="1.0" stroke-linecap="round" stroke-linejoin="round"/>
    <path d="M 34.41050338745117 159.6889190673828 C 43.6910514831543 185.9207763671875 78.05036926269531 140.1473388671875 27.70972442626953 148.05877685546875" stroke-width="3.0" fill="none" stroke="rgb(0, 0, 0)" stroke-opacity="1.0" stroke-linecap="round" stroke-linejoin="round"/>
    <path d="M 132.83535766601562 132.24114990234375 C 87.99268341064453 200.58395385742188 105.92779541015625 199.33120727539062 131.89195251464844 152.12442016601562" stroke-width="3.0" fill="none" stroke="rgb(0, 0, 0)" stroke-opacity="1.0" stroke-linecap="round" stroke-linejoin="round"/>
    <path d="M 70.91981506347656 167.2310333251953 C 136.51048278808594 87.16423034667969 97.6623764038086 132.81541442871094 89.78960418701172 91.9693603515625" stroke-width="3.0" fill="none" stroke="rgb(0, 0, 0)" stroke-opacity="1.0" stroke-linecap="round" stroke-linejoin="round"/>
    <path d="M 128.6522979736328 95.10458374023438 C 138.08033752441406 73.66336059570312 135.9713897705078 93.30206298828125 144.2368927001953 59.82371520996094" stroke-width="3.0" fill="none" stroke="rgb(0, 0, 0)" stroke-opacity="1.0" stroke-linecap="round" stroke-linejoin="round"/>
    <path d="M 25.78386116027832 144.17596435546875 C 69.05831146240234 126.33779907226562 2.956373691558838 96.81260681152344 25.799083709716797 129.14169311523438" stroke-width="3.0" fill="none" stroke="rgb(0, 0, 0)" stroke-opacity="1.0" stroke-linecap="round" stroke-linejoin="round"/>
    <path d="M 152.79859924316406 62.198936462402344 C 130.3077392578125 39.35279083251953 212.9041290283203 77.13658905029297 185.7156524658203 83.67405700683594" stroke-width="3.0" fill="none" stroke="rgb(0, 0, 0)" stroke-opacity="1.0" stroke-linecap="round" stroke-linejoin="round"/>
    <path d="M 155.1920928955078 78.29757690429688 C 124.74748992919922 96.43974304199219 161.904052734375 99.36974334716797 142.32810974121094 121.71790313720703" stroke-width="3.0" fill="none" stroke="rgb(0, 0, 0)" stroke-opacity="1.0" stroke-linecap="round" stroke-linejoin="round"/>
    <path d="M 58.06333923339844 52.140743255615234 C 136.83737182617188 47.048587799072266 197.0757293701172 82.56531524658203 68.62959289550781 50.67940139770508" stroke-width="3.0" fill="none" stroke="rgb(0, 0, 0)" stroke-opacity="1.0" stroke-linecap="round" stroke-linejoin="round"/>
    <path d="M 53.95903015136719 196.4547882080078 C 43.25003433227539 169.83486938476562 34.931060791015625 168.48263549804688 35.465572357177734 148.813232421875" stroke-width="3.0" fill="none" stroke="rgb(0, 0, 0)" stroke-opacity="1.0" stroke-linecap="round" stroke-linejoin="round"/>
    <path d="M 122.27631378173828 163.240234375 C 194.92225646972656 88.22505950927734 171.05807495117188 80.3070297241211 165.88597106933594 77.93888092041016" stroke-width="3.0" fill="none" stroke="rgb(0, 0, 0)" stroke-opacity="1.0" stroke-linecap="round" stroke-linejoin="round"/>
    <path d="M 156.74273681640625 54.528846740722656 C 210.25267028808594 92.95450592041016 178.10902404785156 77.47322845458984 136.5432891845703 144.8157196044922" stroke-width="3.0" fill="none" stroke="rgb(0, 0, 0)" stroke-opacity="1.0" stroke-linecap="round" stroke-linejoin="round"/>
    <path d="M 55.56636047363281 63.31926727294922 C -21.035804748535156 94.41868591308594 -15.407649040222168 95.2143783569336 16.788747787475586 71.66934204101562" stroke-width="3.0" fill="none" stroke="rgb(0, 0, 0)" stroke-opacity="1.0" stroke-linecap="round" stroke-linejoin="round"/>
    <path d="M 63.16163635253906 145.5295867919922 C 77.31868743896484 135.6144561767578 59.07979202270508 147.1724090576172 69.0308609008789 139.64083862304688" stroke-width="3.0" fill="none" stroke="rgb(0, 0, 0)" stroke-opacity="1.0" stroke-linecap="round" stroke-linejoin="round"/>
  </g>
</svg>
