<?xml version="1.0" ?>
<svg xmlns="http://www.w3.org/2000/svg" version="1.1" width="224" height="224">
  <defs/>
  <g>
    <path d="M 132.47012329101562 125.24678802490234 C 140.25526428222656 94.28949737548828 145.38047790527344 80.57455444335938 155.2755889892578 62.543724060058594" stroke-width="3.0" fill="none" stroke="rgb(0, 0, 0)" stroke-opacity="1.0" stroke-linecap="round" stroke-linejoin="round"/>
    <path d="M 26.79771614074707 143.48484802246094 C 3.1703836917877197 120.0418701171875 26.614206314086914 105.2913818359375 21.684064865112305 135.20462036132812" stroke-width="3.0" fill="none" stroke="rgb(0, 0, 0)" stroke-opacity="1.0" stroke-linecap="round" stroke-linejoin="round"/>
    <path d="M 131.78802490234375 85.32295989990234 C 84.19735717773438 36.61345672607422 83.63236999511719 163.2189178466797 115.9468002319336 109.10433959960938" stroke-width="3.0" fill="none" stroke="rgb(0, 0, 0)" stroke-opacity="1.0" stroke-linecap="round" stroke-linejoin="round"/>
    <path d="M 41.34783172607422 76.29826354980469 C 100.30085754394531 44.272377014160156 81.87257385253906 165.71237182617188 47.5225830078125 113.3798599243164" stroke-width="3.0" fill="none" stroke="rgb(0, 0, 0)" stroke-opacity="1.0" stroke-linecap="round" stroke-linejoin="round"/>
    <path d="M 154.60472106933594 68.6588363647461 C 194.47401428222656 77.93778228759766 142.3026885986328 116.06013488769531 164.5808563232422 94.3832778930664" stroke-width="3.0" fill="none" stroke="rgb(0, 0, 0)" stroke-opacity="1.0" stroke-linecap="round" stroke-linejoin="round"/>
    <path d="M 124.73157501220703 100.98929595947266 C 100.98770141601562 114.53421783447266 109.3683853149414 133.5446319580078 149.9105224609375 58.98556137084961" stroke-width="3.0" fill="none" stroke="rgb(0, 0, 0)" stroke-opacity="1.0" stroke-linecap="round" stroke-linejoin="round"/>
    <path d="M 7.805309295654297 95.98809814453125 C -5.555972099304199 70.73638916015625 22.543201446533203 89.54989624023438 7.509418964385986 102.7608871459961" stroke-width="3.0" fill="none" stroke="rgb(0, 0, 0)" stroke-opacity="1.0" stroke-linecap="round" stroke-linejoin="round"/>
    <path d="M 75.51335906982422 160.67752075195312 C 69.45491027832031 146.3768310546875 86.07430267333984 156.38565063476562 79.06471252441406 141.62535095214844" stroke-width="3.0" fill="none" stroke="rgb(0, 0, 0)" stroke-opacity="1.0" stroke-linecap="round" stroke-linejoin="round"/>
    <path d="M 59.754398345947266 155.88525390625 C 77.49518585205078 152.40847778320312 82.82086181640625 157.79339599609375 58.51751708984375 197.4158935546875" stroke-width="3.0" fill="none" stroke="rgb(0, 0, 0)" stroke-opacity="1.0" stroke-linecap="round" stroke-linejoin="round"/>
    <path d="M 49.501895904541016 112.799560546875 C 67.38025665283203 37.38190460205078 -25.824525833129883 108.1080093383789 48.65556335449219 109.8876724243164" stroke-width="3.0" fill="none" stroke="rgb(0, 0, 0)" stroke-opacity="1.0" stroke-linecap="round" stroke-linejoin="round"/>
    <path d="M 80.11556243896484 136.91188049316406 C 95.00402069091797 131.59071350097656 87.55046844482422 114.79155731201172 98.53623962402344 123.22663879394531" stroke-width="3.0" fill="none" stroke="rgb(0, 0, 0)" stroke-opacity="1.0" stroke-linecap="round" stroke-linejoin="round"/>
    <path d="M 88.09681701660156 72.3261947631836 C 93.86473083496094 78.90863037109375 93.2259750366211 77.19647216796875 88.33898162841797 75.18306732177734" stroke-width="3.0" fill="none" stroke="rgb(0, 0, 0)" stroke-opacity="1.0" stroke-linecap="round" stroke-linejoin="round"/>
    <path d="M 8.367666244506836 111.37348937988281 C 29.282865524291992 126.54653930664062 -18.81463050842285 72.118896484375 29.8586368560791 151.0824432373047" stroke-width="3.0" fill="none" stroke="rgb(0, 0, 0)" stroke-opacity="1.0" stroke-linecap="round" stroke-linejoin="round"/>
    <path d="M 58.60127258300781 188.65655517578125 C 113.6128158569336 138.3878173828125 32.88722229003906 158.33580017089844 55.01023483276367 178.99696350097656" stroke-width="3.0" fill="none" stroke="rgb(0, 0, 0)" stroke-opacity="1.0" stroke-linecap="round" stroke-linejoin="round"/>
    <path d="M 145.96900939941406 84.60243225097656 C 150.3727569580078 105.15625762939453 147.10494995117188 45.40434646606445 156.7159423828125 61.38810348510742" stroke-width="3.0" fill="none" stroke="rgb(0, 0, 0)" stroke-opacity="1.0" stroke-linecap="round" stroke-linejoin="round"/>
    <path d="M -6.400034427642822 68.60565948486328 C 10.66909122467041 55.74624252319336 45.87390899658203 44.418426513671875 59.38482666015625 52.77291488647461" stroke-width="3.0" fill="none" stroke="rgb(0, 0, 0)" stroke-opacity="1.0" stroke-linecap="round" stroke-linejoin="round"/>
    <path d="M -5.132768154144287 76.8704605102539 C 49.39987564086914 53.37797546386719 93.35317993164062 56.530513763427734 139.16929626464844 75.6664810180664" stroke-width="3.0" fill="none" stroke="rgb(0, 0, 0)" stroke-opacity="1.0" stroke-linecap="round" stroke-linejoin="round"/>
    <path d="M 41.4004020690918 176.04507446289062 C 32.12147903442383 157.01512145996094 13.823699951171875 120.0758056640625 39.17135238647461 167.23208618164062" stroke-width="3.0" fill="none" stroke="rgb(0, 0, 0)" stroke-opacity="1.0" stroke-linecap="round" stroke-linejoin="round"/>
    <path d="M 112.69730377197266 168.64456176757812 C 135.4198760986328 85.56404876708984 145.69834899902344 121.77820587158203 127.94554901123047 128.02027893066406" stroke-width="3.0" fill="none" stroke="rgb(0, 0, 0)" stroke-opacity="1.0" stroke-linecap="round" stroke-linejoin="round"/>
    <path d="M 35.96894836425781 161.9319610595703 C 42.96141815185547 186.55079650878906 78.57495880126953 136.7194366455078 30.421485900878906 148.29452514648438" stroke-width="3.0" fill="none" stroke="rgb(0, 0, 0)" stroke-opacity="1.0" stroke-linecap="round" stroke-linejoin="round"/>
    <path d="M 133.62168884277344 133.56423950195312 C 86.09708404541016 197.85943603515625 104.45056915283203 197.64694213867188 130.73500061035156 150.8218536376953" stroke-width="3.0" fill="none" stroke="rgb(0, 0, 0)" stroke-opacity="1.0" stroke-linecap="round" stroke-linejoin="round"/>
    <path d="M 70.31436157226562 168.98838806152344 C 134.69944763183594 88.37677764892578 97.65872955322266 126.91163635253906 92.75222778320312 93.74201202392578" stroke-width="3.0" fill="none" stroke="rgb(0, 0, 0)" stroke-opacity="1.0" stroke-linecap="round" stroke-linejoin="round"/>
    <path d="M 128.3529510498047 94.2982177734375 C 136.29225158691406 70.43946838378906 135.76402282714844 92.46077728271484 142.9138946533203 62.13616180419922" stroke-width="3.0" fill="none" stroke="rgb(0, 0, 0)" stroke-opacity="1.0" stroke-linecap="round" stroke-linejoin="round"/>
    <path d="M 26.458131790161133 142.43333435058594 C 71.95269012451172 125.47772979736328 1.5480070114135742 97.24071502685547 24.384313583374023 131.1934356689453" stroke-width="3.0" fill="none" stroke="rgb(0, 0, 0)" stroke-opacity="1.0" stroke-linecap="round" stroke-linejoin="round"/>
    <path d="M 153.74932861328125 60.55485534667969 C 129.82107543945312 36.40521240234375 212.0750274658203 77.44613647460938 184.29476928710938 84.7908935546875" stroke-width="3.0" fill="none" stroke="rgb(0, 0, 0)" stroke-opacity="1.0" stroke-linecap="round" stroke-linejoin="round"/>
    <path d="M 153.60604858398438 73.82847595214844 C 126.98294830322266 94.31138610839844 158.52703857421875 96.36185455322266 140.99630737304688 123.4745101928711" stroke-width="3.0" fill="none" stroke="rgb(0, 0, 0)" stroke-opacity="1.0" stroke-linecap="round" stroke-linejoin="round"/>
    <path d="M 57.904422760009766 51.31808853149414 C 135.4275665283203 50.017913818359375 197.8505096435547 82.30400085449219 67.12116241455078 51.17066955566406" stroke-width="3.0" fill="none" stroke="rgb(0, 0, 0)" stroke-opacity="1.0" stroke-linecap="round" stroke-linejoin="round"/>
    <path d="M 54.68001174926758 196.62681579589844 C 43.141536712646484 169.0377960205078 30.543519973754883 170.0370635986328 31.61745834350586 147.1162109375" stroke-width="3.0" fill="none" stroke="rgb(0, 0, 0)" stroke-opacity="1.0" stroke-linecap="round" stroke-linejoin="round"/>
    <path d="M 119.45108032226562 164.0952606201172 C 195.54373168945312 88.59961700439453 171.60012817382812 82.36659240722656 164.95809936523438 81.42806243896484" stroke-width="3.0" fill="none" stroke="rgb(0, 0, 0)" stroke-opacity="1.0" stroke-linecap="round" stroke-linejoin="round"/>
    <path d="M 156.16253662109375 54.592411041259766 C 210.14234924316406 94.29180908203125 176.2500762939453 76.85537719726562 137.36692810058594 145.3526153564453" stroke-width="3.0" fill="none" stroke="rgb(0, 0, 0)" stroke-opacity="1.0" stroke-linecap="round" stroke-linejoin="round"/>
    <path d="M 52.07810974121094 62.9918327331543 C -23.073009490966797 92.1124267578125 -18.977739334106445 90.11393737792969 11.80642032623291 68.93964385986328" stroke-width="3.0" fill="none" stroke="rgb(0, 0, 0)" stroke-opacity="1.0" stroke-linecap="round" stroke-linejoin="round"/>
    <path d="M 62.511573791503906 149.70753479003906 C 78.3664779663086 140.80421447753906 58.38307571411133 147.24049377441406 72.01092529296875 141.82786560058594" stroke-width="3.0" fill="none" stroke="rgb(0, 0, 0)" stroke-opacity="1.0" stroke-linecap="round" stroke-linejoin="round"/>
  </g>
</svg>
