<?xml version="1.0" ?>
<svg xmlns="http://www.w3.org/2000/svg" version="1.1" width="224" height="224">
  <defs/>
  <g>
    <path d="M 96.50050354003906 158.8782196044922 C 107.74740600585938 163.31517028808594 97.02922058105469 177.10186767578125 99.53128051757812 143.986572265625" stroke-width="3.0" fill="none" stroke="rgb(0, 0, 0)" stroke-opacity="1.0" stroke-linecap="round" stroke-linejoin="round"/>
    <path d="M 102.290771484375 165.60037231445312 C 53.8244743347168 157.4486541748047 81.18932342529297 184.72683715820312 119.7321548461914 171.2347869873047" stroke-width="3.0" fill="none" stroke="rgb(0, 0, 0)" stroke-opacity="1.0" stroke-linecap="round" stroke-linejoin="round"/>
    <path d="M 128.27291870117188 176.6061248779297 C 151.9927215576172 181.1011505126953 140.80235290527344 169.74632263183594 142.3313446044922 170.61407470703125" stroke-width="3.0" fill="none" stroke="rgb(0, 0, 0)" stroke-opacity="1.0" stroke-linecap="round" stroke-linejoin="round"/>
    <path d="M 64.96793365478516 165.7541046142578 C 62.617164611816406 180.7227325439453 105.95894622802734 177.38124084472656 91.50788879394531 178.11550903320312" stroke-width="3.0" fill="none" stroke="rgb(0, 0, 0)" stroke-opacity="1.0" stroke-linecap="round" stroke-linejoin="round"/>
    <path d="M 134.5895233154297 139.7373504638672 C 128.2624969482422 156.53009033203125 137.75942993164062 148.0326690673828 132.9871063232422 170.67433166503906" stroke-width="3.0" fill="none" stroke="rgb(0, 0, 0)" stroke-opacity="1.0" stroke-linecap="round" stroke-linejoin="round"/>
    <path d="M 119.22962188720703 165.7681121826172 C 119.01517486572266 163.62973022460938 93.132080078125 168.3451690673828 71.91167449951172 167.06344604492188" stroke-width="3.0" fill="none" stroke="rgb(0, 0, 0)" stroke-opacity="1.0" stroke-linecap="round" stroke-linejoin="round"/>
    <path d="M 144.89637756347656 166.08506774902344 C 153.49822998046875 167.15928649902344 149.9517364501953 158.56500244140625 147.82713317871094 141.162841796875" stroke-width="3.0" fill="none" stroke="rgb(0, 0, 0)" stroke-opacity="1.0" stroke-linecap="round" stroke-linejoin="round"/>
    <path d="M 71.43572235107422 167.75216674804688 C 82.21688842773438 179.80178833007812 145.9835205078125 164.19593811035156 113.27607727050781 172.0004119873047" stroke-width="3.0" fill="none" stroke="rgb(0, 0, 0)" stroke-opacity="1.0" stroke-linecap="round" stroke-linejoin="round"/>
    <path d="M 132.81118774414062 169.54612731933594 C 140.80087280273438 182.06842041015625 115.04269409179688 169.99978637695312 129.18719482421875 176.4004364013672" stroke-width="3.0" fill="none" stroke="rgb(0, 0, 0)" stroke-opacity="1.0" stroke-linecap="round" stroke-linejoin="round"/>
    <path d="M 143.0982208251953 96.39242553710938 C 136.41065979003906 118.10231018066406 159.21560668945312 97.49813079833984 142.2136688232422 167.1040496826172" stroke-width="3.0" fill="none" stroke="rgb(0, 0, 0)" stroke-opacity="1.0" stroke-linecap="round" stroke-linejoin="round"/>
    <path d="M 102.72171020507812 166.87753295898438 C 121.95929718017578 107.91675567626953 117.87545013427734 104.8113021850586 126.28755950927734 176.0945281982422" stroke-width="3.0" fill="none" stroke="rgb(0, 0, 0)" stroke-opacity="1.0" stroke-linecap="round" stroke-linejoin="round"/>
    <path d="M 65.486083984375 165.3514862060547 C 71.98435974121094 144.20449829101562 129.84677124023438 166.01634216308594 80.1396484375 99.55000305175781" stroke-width="3.0" fill="none" stroke="rgb(0, 0, 0)" stroke-opacity="1.0" stroke-linecap="round" stroke-linejoin="round"/>
    <path d="M 83.82050323486328 162.2449951171875 C 102.83467864990234 157.97195434570312 108.30503845214844 146.34939575195312 74.96813201904297 163.94442749023438" stroke-width="3.0" fill="none" stroke="rgb(0, 0, 0)" stroke-opacity="1.0" stroke-linecap="round" stroke-linejoin="round"/>
    <path d="M 107.6865234375 156.38265991210938 C 82.17179870605469 157.56732177734375 96.20309448242188 158.74261474609375 120.37673950195312 168.994384765625" stroke-width="3.0" fill="none" stroke="rgb(0, 0, 0)" stroke-opacity="1.0" stroke-linecap="round" stroke-linejoin="round"/>
    <path d="M 119.58344268798828 83.8106689453125 C 117.97598266601562 95.70262908935547 134.74038696289062 92.30061340332031 118.70036315917969 80.99846649169922" stroke-width="3.0" fill="none" stroke="rgb(0, 0, 0)" stroke-opacity="1.0" stroke-linecap="round" stroke-linejoin="round"/>
    <path d="M 131.17189025878906 91.17172241210938 C 148.81463623046875 78.83675384521484 134.99330139160156 101.63904571533203 133.0924072265625 90.09175109863281" stroke-width="3.0" fill="none" stroke="rgb(0, 0, 0)" stroke-opacity="1.0" stroke-linecap="round" stroke-linejoin="round"/>
  </g>
</svg>
