<?xml version="1.0" ?>
<svg xmlns="http://www.w3.org/2000/svg" version="1.1" width="224" height="224">
  <defs/>
  <g>
    <path d="M 88.46407318115234 167.72369384765625 C 99.10301208496094 176.92527770996094 92.31609344482422 183.8206787109375 100.20989227294922 141.82571411132812" stroke-width="3.0" fill="none" stroke="rgb(0, 0, 0)" stroke-opacity="1.0" stroke-linecap="round" stroke-linejoin="round"/>
    <path d="M 92.5427474975586 166.09750366210938 C 93.95484161376953 168.3440399169922 89.62850952148438 182.59552001953125 123.82093048095703 167.5806884765625" stroke-width="3.0" fill="none" stroke="rgb(0, 0, 0)" stroke-opacity="1.0" stroke-linecap="round" stroke-linejoin="round"/>
    <path d="M 129.6417999267578 181.09878540039062 C 153.13624572753906 183.621337890625 131.46954345703125 172.11854553222656 141.9652557373047 158.57920837402344" stroke-width="3.0" fill="none" stroke="rgb(0, 0, 0)" stroke-opacity="1.0" stroke-linecap="round" stroke-linejoin="round"/>
    <path d="M 68.15288543701172 168.47775268554688 C 75.7579574584961 178.57333374023438 100.14524841308594 170.4488983154297 82.38975524902344 175.49278259277344" stroke-width="3.0" fill="none" stroke="rgb(0, 0, 0)" stroke-opacity="1.0" stroke-linecap="round" stroke-linejoin="round"/>
    <path d="M 138.02334594726562 139.45785522460938 C 132.3494415283203 149.76002502441406 135.16831970214844 136.931640625 130.87847900390625 167.38955688476562" stroke-width="3.0" fill="none" stroke="rgb(0, 0, 0)" stroke-opacity="1.0" stroke-linecap="round" stroke-linejoin="round"/>
    <path d="M 108.53446197509766 151.65550231933594 C 115.65301513671875 166.6400604248047 84.81088256835938 174.9348602294922 74.79241943359375 170.07960510253906" stroke-width="3.0" fill="none" stroke="rgb(0, 0, 0)" stroke-opacity="1.0" stroke-linecap="round" stroke-linejoin="round"/>
    <path d="M 147.7942657470703 162.75794982910156 C 150.71815490722656 161.9639892578125 150.35263061523438 150.27410888671875 149.6952667236328 160.1230010986328" stroke-width="3.0" fill="none" stroke="rgb(0, 0, 0)" stroke-opacity="1.0" stroke-linecap="round" stroke-linejoin="round"/>
    <path d="M 69.0208740234375 165.37631225585938 C 78.37561798095703 182.27040100097656 111.93254089355469 173.8086700439453 97.65523529052734 171.9263916015625" stroke-width="3.0" fill="none" stroke="rgb(0, 0, 0)" stroke-opacity="1.0" stroke-linecap="round" stroke-linejoin="round"/>
    <path d="M 130.69190979003906 164.30252075195312 C 124.98938751220703 187.9424285888672 126.65910339355469 176.43983459472656 133.3472137451172 177.19395446777344" stroke-width="3.0" fill="none" stroke="rgb(0, 0, 0)" stroke-opacity="1.0" stroke-linecap="round" stroke-linejoin="round"/>
    <path d="M 138.98570251464844 102.40377044677734 C 133.89369201660156 121.63094329833984 154.19754028320312 104.67581939697266 148.07373046875 155.23794555664062" stroke-width="3.0" fill="none" stroke="rgb(0, 0, 0)" stroke-opacity="1.0" stroke-linecap="round" stroke-linejoin="round"/>
    <path d="M 104.66079711914062 168.3294677734375 C 117.99103546142578 110.30416107177734 119.91610717773438 108.00439453125 123.42565155029297 174.1317596435547" stroke-width="3.0" fill="none" stroke="rgb(0, 0, 0)" stroke-opacity="1.0" stroke-linecap="round" stroke-linejoin="round"/>
    <path d="M 68.5528564453125 163.11964416503906 C 83.1436996459961 141.50640869140625 123.40996551513672 165.8931884765625 79.0488510131836 97.74903106689453" stroke-width="3.0" fill="none" stroke="rgb(0, 0, 0)" stroke-opacity="1.0" stroke-linecap="round" stroke-linejoin="round"/>
    <path d="M 90.46887969970703 167.7133026123047 C 98.21761322021484 168.49331665039062 101.94691467285156 151.74728393554688 87.97248077392578 163.79708862304688" stroke-width="3.0" fill="none" stroke="rgb(0, 0, 0)" stroke-opacity="1.0" stroke-linecap="round" stroke-linejoin="round"/>
    <path d="M 90.64179229736328 166.7888946533203 C 91.21051788330078 167.0334014892578 105.20599365234375 161.359619140625 110.13224792480469 168.4266815185547" stroke-width="3.0" fill="none" stroke="rgb(0, 0, 0)" stroke-opacity="1.0" stroke-linecap="round" stroke-linejoin="round"/>
    <path d="M 120.72056579589844 84.72610473632812 C 118.00214385986328 97.74295806884766 140.78311157226562 98.3350830078125 117.89686584472656 82.25205993652344" stroke-width="3.0" fill="none" stroke="rgb(0, 0, 0)" stroke-opacity="1.0" stroke-linecap="round" stroke-linejoin="round"/>
    <path d="M 134.73440551757812 96.01545715332031 C 137.851806640625 79.06310272216797 148.52967834472656 97.24130249023438 138.18508911132812 93.62644958496094" stroke-width="3.0" fill="none" stroke="rgb(0, 0, 0)" stroke-opacity="1.0" stroke-linecap="round" stroke-linejoin="round"/>
  </g>
</svg>
