<?xml version="1.0" ?>
<svg xmlns="http://www.w3.org/2000/svg" version="1.1" width="224" height="224">
  <defs/>
  <g>
    <path d="M 83.65303039550781 170.59645080566406 C 117.61468505859375 163.04493713378906 91.64202117919922 182.94171142578125 103.64037322998047 139.3214874267578" stroke-width="3.0" fill="none" stroke="rgb(0, 0, 0)" stroke-opacity="1.0" stroke-linecap="round" stroke-linejoin="round"/>
    <path d="M 122.1047134399414 167.54013061523438 C 33.98550796508789 150.87167358398438 83.41807556152344 184.71177673339844 122.31135559082031 169.60382080078125" stroke-width="3.0" fill="none" stroke="rgb(0, 0, 0)" stroke-opacity="1.0" stroke-linecap="round" stroke-linejoin="round"/>
    <path d="M 132.48251342773438 178.02151489257812 C 154.09170532226562 176.4353790283203 137.15524291992188 172.4587860107422 142.23037719726562 172.13479614257812" stroke-width="3.0" fill="none" stroke="rgb(0, 0, 0)" stroke-opacity="1.0" stroke-linecap="round" stroke-linejoin="round"/>
    <path d="M 69.70115661621094 158.605712890625 C 42.151084899902344 176.68202209472656 108.6077651977539 176.55259704589844 88.12031555175781 171.74652099609375" stroke-width="3.0" fill="none" stroke="rgb(0, 0, 0)" stroke-opacity="1.0" stroke-linecap="round" stroke-linejoin="round"/>
    <path d="M 126.53533172607422 139.26023864746094 C 129.35328674316406 160.24273681640625 127.43272399902344 151.65541076660156 128.93653869628906 178.61669921875" stroke-width="3.0" fill="none" stroke="rgb(0, 0, 0)" stroke-opacity="1.0" stroke-linecap="round" stroke-linejoin="round"/>
    <path d="M 114.88587188720703 172.51341247558594 C 109.59302520751953 170.74603271484375 98.6966323852539 173.90028381347656 86.91542053222656 174.55010986328125" stroke-width="3.0" fill="none" stroke="rgb(0, 0, 0)" stroke-opacity="1.0" stroke-linecap="round" stroke-linejoin="round"/>
    <path d="M 143.55767822265625 165.11058044433594 C 158.8321075439453 164.92276000976562 148.24655151367188 150.95970153808594 145.89170837402344 136.7382354736328" stroke-width="3.0" fill="none" stroke="rgb(0, 0, 0)" stroke-opacity="1.0" stroke-linecap="round" stroke-linejoin="round"/>
    <path d="M 75.9695053100586 165.199462890625 C 96.23757934570312 181.68605041503906 163.2099609375 158.96951293945312 79.77629852294922 160.41958618164062" stroke-width="3.0" fill="none" stroke="rgb(0, 0, 0)" stroke-opacity="1.0" stroke-linecap="round" stroke-linejoin="round"/>
    <path d="M 136.84725952148438 169.47000122070312 C 140.0896759033203 182.94070434570312 120.95515441894531 176.71047973632812 140.90997314453125 177.2545166015625" stroke-width="3.0" fill="none" stroke="rgb(0, 0, 0)" stroke-opacity="1.0" stroke-linecap="round" stroke-linejoin="round"/>
    <path d="M 150.5586395263672 82.31941223144531 C 129.9650421142578 138.59133911132812 159.08668518066406 79.04244232177734 140.6326446533203 172.28602600097656" stroke-width="3.0" fill="none" stroke="rgb(0, 0, 0)" stroke-opacity="1.0" stroke-linecap="round" stroke-linejoin="round"/>
    <path d="M 111.27398681640625 169.2228240966797 C 102.08488464355469 151.23985290527344 92.1006851196289 146.60556030273438 129.10841369628906 179.0657501220703" stroke-width="3.0" fill="none" stroke="rgb(0, 0, 0)" stroke-opacity="1.0" stroke-linecap="round" stroke-linejoin="round"/>
    <path d="M 73.25910949707031 156.3871612548828 C 67.75824737548828 158.7690887451172 137.2421875 144.82423400878906 72.47917938232422 100.01211547851562" stroke-width="3.0" fill="none" stroke="rgb(0, 0, 0)" stroke-opacity="1.0" stroke-linecap="round" stroke-linejoin="round"/>
    <path d="M 78.7601089477539 160.68276977539062 C 108.45353698730469 173.47206115722656 138.2855224609375 158.6450958251953 85.09846496582031 155.30201721191406" stroke-width="3.0" fill="none" stroke="rgb(0, 0, 0)" stroke-opacity="1.0" stroke-linecap="round" stroke-linejoin="round"/>
    <path d="M 113.49207305908203 164.39102172851562 C 49.168479919433594 177.57667541503906 77.37787628173828 155.3024444580078 112.01549530029297 161.65682983398438" stroke-width="3.0" fill="none" stroke="rgb(0, 0, 0)" stroke-opacity="1.0" stroke-linecap="round" stroke-linejoin="round"/>
    <path d="M 119.44329833984375 83.21574401855469 C 113.85111236572266 105.48091125488281 154.86813354492188 105.55427551269531 117.21041107177734 81.33424377441406" stroke-width="3.0" fill="none" stroke="rgb(0, 0, 0)" stroke-opacity="1.0" stroke-linecap="round" stroke-linejoin="round"/>
    <path d="M 117.35719299316406 93.1638412475586 C 172.83201599121094 74.75057220458984 137.13450622558594 109.05157470703125 138.2130584716797 95.52210998535156" stroke-width="3.0" fill="none" stroke="rgb(0, 0, 0)" stroke-opacity="1.0" stroke-linecap="round" stroke-linejoin="round"/>
  </g>
</svg>
