<?xml version="1.0" ?>
<svg xmlns="http://www.w3.org/2000/svg" version="1.1" width="224" height="224">
  <defs/>
  <g>
    <path d="M 86.3529281616211 166.83511352539062 C 100.54159545898438 177.63125610351562 87.25703430175781 178.10711669921875 95.45569610595703 144.79063415527344" stroke-width="3.0" fill="none" stroke="rgb(0, 0, 0)" stroke-opacity="1.0" stroke-linecap="round" stroke-linejoin="round"/>
    <path d="M 89.07373809814453 162.38446044921875 C 89.7663803100586 170.82244873046875 84.23285675048828 181.13137817382812 121.03012084960938 166.7263641357422" stroke-width="3.0" fill="none" stroke="rgb(0, 0, 0)" stroke-opacity="1.0" stroke-linecap="round" stroke-linejoin="round"/>
    <path d="M 133.4110107421875 181.55197143554688 C 149.87261962890625 183.91477966308594 131.57394409179688 168.94097900390625 144.49725341796875 162.718994140625" stroke-width="3.0" fill="none" stroke="rgb(0, 0, 0)" stroke-opacity="1.0" stroke-linecap="round" stroke-linejoin="round"/>
    <path d="M 68.74091339111328 169.32362365722656 C 73.26248931884766 179.2056121826172 99.79570007324219 170.38897705078125 81.860107421875 175.38528442382812" stroke-width="3.0" fill="none" stroke="rgb(0, 0, 0)" stroke-opacity="1.0" stroke-linecap="round" stroke-linejoin="round"/>
    <path d="M 140.3875274658203 142.53607177734375 C 136.3649139404297 149.30714416503906 139.40106201171875 138.60250854492188 132.85813903808594 171.21893310546875" stroke-width="3.0" fill="none" stroke="rgb(0, 0, 0)" stroke-opacity="1.0" stroke-linecap="round" stroke-linejoin="round"/>
    <path d="M 106.32953643798828 153.71217346191406 C 110.78268432617188 170.2005615234375 87.66657257080078 175.90431213378906 77.22962188720703 169.52345275878906" stroke-width="3.0" fill="none" stroke="rgb(0, 0, 0)" stroke-opacity="1.0" stroke-linecap="round" stroke-linejoin="round"/>
    <path d="M 145.8668975830078 162.53543090820312 C 151.22984313964844 160.38352966308594 153.7396240234375 144.49769592285156 147.92404174804688 158.60598754882812" stroke-width="3.0" fill="none" stroke="rgb(0, 0, 0)" stroke-opacity="1.0" stroke-linecap="round" stroke-linejoin="round"/>
    <path d="M 70.47766876220703 163.8614959716797 C 81.23513793945312 181.48834228515625 106.31068420410156 176.64517211914062 97.06075286865234 164.3656463623047" stroke-width="3.0" fill="none" stroke="rgb(0, 0, 0)" stroke-opacity="1.0" stroke-linecap="round" stroke-linejoin="round"/>
    <path d="M 133.776611328125 161.06056213378906 C 124.51011657714844 185.35791015625 129.57763671875 177.32867431640625 130.16424560546875 179.04843139648438" stroke-width="3.0" fill="none" stroke="rgb(0, 0, 0)" stroke-opacity="1.0" stroke-linecap="round" stroke-linejoin="round"/>
    <path d="M 138.2028350830078 111.66471862792969 C 142.0763702392578 130.05044555664062 155.03396606445312 114.2703628540039 148.8055419921875 153.2819366455078" stroke-width="3.0" fill="none" stroke="rgb(0, 0, 0)" stroke-opacity="1.0" stroke-linecap="round" stroke-linejoin="round"/>
    <path d="M 102.68011474609375 165.18121337890625 C 108.57719421386719 112.85388946533203 126.3140640258789 112.40380859375 121.24842071533203 173.44676208496094" stroke-width="3.0" fill="none" stroke="rgb(0, 0, 0)" stroke-opacity="1.0" stroke-linecap="round" stroke-linejoin="round"/>
    <path d="M 68.53524017333984 162.27767944335938 C 84.29513549804688 139.62286376953125 118.15866088867188 166.23123168945312 74.94771575927734 102.38006591796875" stroke-width="3.0" fill="none" stroke="rgb(0, 0, 0)" stroke-opacity="1.0" stroke-linecap="round" stroke-linejoin="round"/>
    <path d="M 90.42733764648438 167.66517639160156 C 94.35205841064453 165.59054565429688 103.01966094970703 156.80685424804688 87.76250457763672 165.82162475585938" stroke-width="3.0" fill="none" stroke="rgb(0, 0, 0)" stroke-opacity="1.0" stroke-linecap="round" stroke-linejoin="round"/>
    <path d="M 85.59001922607422 164.28941345214844 C 90.47283935546875 168.56153869628906 105.53797912597656 163.9321746826172 109.24652862548828 169.27499389648438" stroke-width="3.0" fill="none" stroke="rgb(0, 0, 0)" stroke-opacity="1.0" stroke-linecap="round" stroke-linejoin="round"/>
    <path d="M 119.15816497802734 87.44617462158203 C 116.18797302246094 96.70267486572266 137.85926818847656 94.80780029296875 119.35960388183594 84.72203063964844" stroke-width="3.0" fill="none" stroke="rgb(0, 0, 0)" stroke-opacity="1.0" stroke-linecap="round" stroke-linejoin="round"/>
    <path d="M 137.0985870361328 92.96077728271484 C 134.70693969726562 75.93297576904297 151.47836303710938 95.7214584350586 137.37327575683594 90.77352905273438" stroke-width="3.0" fill="none" stroke="rgb(0, 0, 0)" stroke-opacity="1.0" stroke-linecap="round" stroke-linejoin="round"/>
  </g>
</svg>
