<?xml version="1.0" ?>
<svg xmlns="http://www.w3.org/2000/svg" version="1.1" width="224" height="224">
  <defs/>
  <g>
    <path d="M 84.60626220703125 169.32655334472656 C 108.9498291015625 166.63076782226562 78.63562774658203 191.37734985351562 95.21974182128906 142.78762817382812" stroke-width="3.0" fill="none" stroke="rgb(0, 0, 0)" stroke-opacity="1.0" stroke-linecap="round" stroke-linejoin="round"/>
    <path d="M 115.77986145019531 164.8616943359375 C 38.08882141113281 162.21812438964844 78.37915802001953 189.92930603027344 120.43424224853516 175.03106689453125" stroke-width="3.0" fill="none" stroke="rgb(0, 0, 0)" stroke-opacity="1.0" stroke-linecap="round" stroke-linejoin="round"/>
    <path d="M 131.70582580566406 179.38192749023438 C 153.83804321289062 184.39474487304688 140.42398071289062 171.1283416748047 139.20541381835938 167.92913818359375" stroke-width="3.0" fill="none" stroke="rgb(0, 0, 0)" stroke-opacity="1.0" stroke-linecap="round" stroke-linejoin="round"/>
    <path d="M 65.0213851928711 164.4497833251953 C 65.02913665771484 177.2918243408203 111.17015075683594 181.06423950195312 77.8258285522461 176.5242156982422" stroke-width="3.0" fill="none" stroke="rgb(0, 0, 0)" stroke-opacity="1.0" stroke-linecap="round" stroke-linejoin="round"/>
    <path d="M 132.7720184326172 140.0181884765625 C 133.8283233642578 162.3651885986328 133.4652099609375 143.66583251953125 130.8106689453125 179.36105346679688" stroke-width="3.0" fill="none" stroke="rgb(0, 0, 0)" stroke-opacity="1.0" stroke-linecap="round" stroke-linejoin="round"/>
    <path d="M 123.81278991699219 173.7255096435547 C 112.32246398925781 164.6586151123047 107.73533630371094 174.7583465576172 91.36322021484375 173.0558624267578" stroke-width="3.0" fill="none" stroke="rgb(0, 0, 0)" stroke-opacity="1.0" stroke-linecap="round" stroke-linejoin="round"/>
    <path d="M 146.3654022216797 164.9147186279297 C 158.05859375 160.9951171875 148.5601348876953 152.3505859375 151.0615234375 133.29676818847656" stroke-width="3.0" fill="none" stroke="rgb(0, 0, 0)" stroke-opacity="1.0" stroke-linecap="round" stroke-linejoin="round"/>
    <path d="M 75.74628448486328 167.33245849609375 C 96.8589859008789 179.98782348632812 155.74667358398438 166.39071655273438 80.99565124511719 162.57879638671875" stroke-width="3.0" fill="none" stroke="rgb(0, 0, 0)" stroke-opacity="1.0" stroke-linecap="round" stroke-linejoin="round"/>
    <path d="M 131.73138427734375 177.26547241210938 C 148.77845764160156 181.81272888183594 117.89785766601562 184.2244415283203 136.87608337402344 181.78091430664062" stroke-width="3.0" fill="none" stroke="rgb(0, 0, 0)" stroke-opacity="1.0" stroke-linecap="round" stroke-linejoin="round"/>
    <path d="M 146.8389129638672 91.56510925292969 C 134.07643127441406 124.34415435791016 167.15478515625 88.90277862548828 140.27772521972656 172.0310516357422" stroke-width="3.0" fill="none" stroke="rgb(0, 0, 0)" stroke-opacity="1.0" stroke-linecap="round" stroke-linejoin="round"/>
    <path d="M 105.7705078125 171.92837524414062 C 112.44466400146484 140.9299774169922 98.50721740722656 151.76953125 127.68881225585938 182.33779907226562" stroke-width="3.0" fill="none" stroke="rgb(0, 0, 0)" stroke-opacity="1.0" stroke-linecap="round" stroke-linejoin="round"/>
    <path d="M 65.05313873291016 164.56561279296875 C 64.0881576538086 146.6015625 125.71443176269531 161.43141174316406 77.82999420166016 99.72230529785156" stroke-width="3.0" fill="none" stroke="rgb(0, 0, 0)" stroke-opacity="1.0" stroke-linecap="round" stroke-linejoin="round"/>
    <path d="M 73.59441375732422 165.83584594726562 C 101.99349212646484 166.62503051757812 124.34701538085938 176.7684783935547 78.95879364013672 168.05943298339844" stroke-width="3.0" fill="none" stroke="rgb(0, 0, 0)" stroke-opacity="1.0" stroke-linecap="round" stroke-linejoin="round"/>
    <path d="M 115.57366180419922 162.5460968017578 C 55.85756301879883 168.21087646484375 70.32565307617188 154.4787139892578 108.53213500976562 159.67074584960938" stroke-width="3.0" fill="none" stroke="rgb(0, 0, 0)" stroke-opacity="1.0" stroke-linecap="round" stroke-linejoin="round"/>
    <path d="M 117.79151916503906 88.79500579833984 C 108.59201049804688 104.44844055175781 141.97976684570312 100.3140640258789 117.74989318847656 85.33106231689453" stroke-width="3.0" fill="none" stroke="rgb(0, 0, 0)" stroke-opacity="1.0" stroke-linecap="round" stroke-linejoin="round"/>
    <path d="M 129.69862365722656 92.05927276611328 C 153.32821655273438 80.52523040771484 130.42434692382812 103.78321838378906 130.38369750976562 93.51416015625" stroke-width="3.0" fill="none" stroke="rgb(0, 0, 0)" stroke-opacity="1.0" stroke-linecap="round" stroke-linejoin="round"/>
  </g>
</svg>
