<?xml version="1.0" ?>
<svg xmlns="http://www.w3.org/2000/svg" version="1.1" width="224" height="224">
  <defs/>
  <g>
    <path d="M 77.0593032836914 165.26954650878906 C 113.76488494873047 152.8593292236328 97.39741516113281 180.517822265625 99.57806396484375 144.47915649414062" stroke-width="3.0" fill="none" stroke="rgb(0, 0, 0)" stroke-opacity="1.0" stroke-linecap="round" stroke-linejoin="round"/>
    <path d="M 110.24256134033203 163.28753662109375 C 37.64237594604492 153.80801391601562 78.48296356201172 189.1565399169922 121.8454818725586 168.98046875" stroke-width="3.0" fill="none" stroke="rgb(0, 0, 0)" stroke-opacity="1.0" stroke-linecap="round" stroke-linejoin="round"/>
    <path d="M 131.0210418701172 176.96372985839844 C 156.04067993164062 180.2872314453125 140.95401000976562 170.7112274169922 140.8922576904297 170.76007080078125" stroke-width="3.0" fill="none" stroke="rgb(0, 0, 0)" stroke-opacity="1.0" stroke-linecap="round" stroke-linejoin="round"/>
    <path d="M 64.69197082519531 166.42959594726562 C 62.07725143432617 178.3936767578125 109.57395935058594 173.8555450439453 86.92893981933594 174.82513427734375" stroke-width="3.0" fill="none" stroke="rgb(0, 0, 0)" stroke-opacity="1.0" stroke-linecap="round" stroke-linejoin="round"/>
    <path d="M 132.01165771484375 143.85293579101562 C 129.52577209472656 149.05776977539062 135.5655517578125 147.69808959960938 130.46348571777344 176.87921142578125" stroke-width="3.0" fill="none" stroke="rgb(0, 0, 0)" stroke-opacity="1.0" stroke-linecap="round" stroke-linejoin="round"/>
    <path d="M 118.96977233886719 164.9788360595703 C 121.02911376953125 163.57562255859375 96.314453125 170.2749786376953 81.22897338867188 166.82962036132812" stroke-width="3.0" fill="none" stroke="rgb(0, 0, 0)" stroke-opacity="1.0" stroke-linecap="round" stroke-linejoin="round"/>
    <path d="M 144.7703857421875 163.58267211914062 C 154.1505889892578 158.66403198242188 151.6038818359375 157.20660400390625 144.63052368164062 135.43003845214844" stroke-width="3.0" fill="none" stroke="rgb(0, 0, 0)" stroke-opacity="1.0" stroke-linecap="round" stroke-linejoin="round"/>
    <path d="M 72.64756774902344 164.06675720214844 C 94.26432800292969 177.2473602294922 151.70147705078125 166.1416015625 93.03993225097656 164.90005493164062" stroke-width="3.0" fill="none" stroke="rgb(0, 0, 0)" stroke-opacity="1.0" stroke-linecap="round" stroke-linejoin="round"/>
    <path d="M 135.79307556152344 172.3274688720703 C 145.75457763671875 182.70089721679688 110.91387176513672 175.22718811035156 129.6769561767578 176.84788513183594" stroke-width="3.0" fill="none" stroke="rgb(0, 0, 0)" stroke-opacity="1.0" stroke-linecap="round" stroke-linejoin="round"/>
    <path d="M 145.5822296142578 104.21357727050781 C 130.85153198242188 127.80290985107422 154.53750610351562 96.31285858154297 141.4405517578125 170.71075439453125" stroke-width="3.0" fill="none" stroke="rgb(0, 0, 0)" stroke-opacity="1.0" stroke-linecap="round" stroke-linejoin="round"/>
    <path d="M 109.22138977050781 167.0542755126953 C 119.55409240722656 124.05021667480469 115.98385620117188 119.97755432128906 126.60408020019531 175.1737060546875" stroke-width="3.0" fill="none" stroke="rgb(0, 0, 0)" stroke-opacity="1.0" stroke-linecap="round" stroke-linejoin="round"/>
    <path d="M 65.29875183105469 164.2928009033203 C 70.35552978515625 145.91433715820312 129.51776123046875 172.53433227539062 77.9745101928711 99.27082061767578" stroke-width="3.0" fill="none" stroke="rgb(0, 0, 0)" stroke-opacity="1.0" stroke-linecap="round" stroke-linejoin="round"/>
    <path d="M 71.4780044555664 165.72134399414062 C 100.554931640625 150.78871154785156 114.40999603271484 157.45089721679688 80.88197326660156 165.7556915283203" stroke-width="3.0" fill="none" stroke="rgb(0, 0, 0)" stroke-opacity="1.0" stroke-linecap="round" stroke-linejoin="round"/>
    <path d="M 118.2477035522461 168.18557739257812 C 74.55667877197266 161.22695922851562 84.91160583496094 154.3435821533203 111.66706085205078 149.2379150390625" stroke-width="3.0" fill="none" stroke="rgb(0, 0, 0)" stroke-opacity="1.0" stroke-linecap="round" stroke-linejoin="round"/>
    <path d="M 119.12004089355469 88.79981231689453 C 113.71275329589844 100.33629608154297 141.5928192138672 99.1465072631836 118.15652465820312 88.33724212646484" stroke-width="3.0" fill="none" stroke="rgb(0, 0, 0)" stroke-opacity="1.0" stroke-linecap="round" stroke-linejoin="round"/>
    <path d="M 131.64321899414062 94.88971710205078 C 153.87979125976562 84.1215591430664 135.06655883789062 110.86990356445312 136.6778106689453 96.90003967285156" stroke-width="3.0" fill="none" stroke="rgb(0, 0, 0)" stroke-opacity="1.0" stroke-linecap="round" stroke-linejoin="round"/>
  </g>
</svg>
