<?xml version="1.0" ?>
<svg xmlns="http://www.w3.org/2000/svg" version="1.1" width="224" height="224">
  <defs/>
  <g>
    <path d="M 81.8535385131836 173.48190307617188 C 117.2567138671875 167.60865783691406 89.32801818847656 182.77218627929688 104.66796875 143.1638641357422" stroke-width="3.0" fill="none" stroke="rgb(0, 0, 0)" stroke-opacity="1.0" stroke-linecap="round" stroke-linejoin="round"/>
    <path d="M 115.44732666015625 163.05455017089844 C 31.79999351501465 150.5645294189453 80.83171081542969 188.00863647460938 123.36238861083984 177.6258087158203" stroke-width="3.0" fill="none" stroke="rgb(0, 0, 0)" stroke-opacity="1.0" stroke-linecap="round" stroke-linejoin="round"/>
    <path d="M 134.6379852294922 178.88528442382812 C 150.10324096679688 178.80047607421875 135.60879516601562 170.1708526611328 140.01309204101562 171.32212829589844" stroke-width="3.0" fill="none" stroke="rgb(0, 0, 0)" stroke-opacity="1.0" stroke-linecap="round" stroke-linejoin="round"/>
    <path d="M 67.9301986694336 158.35110473632812 C 43.78003692626953 174.32748413085938 104.7132797241211 181.2017059326172 82.7679672241211 177.88487243652344" stroke-width="3.0" fill="none" stroke="rgb(0, 0, 0)" stroke-opacity="1.0" stroke-linecap="round" stroke-linejoin="round"/>
    <path d="M 128.31471252441406 144.45851135253906 C 131.0703582763672 160.15127563476562 129.5489044189453 148.51112365722656 128.14743041992188 176.00633239746094" stroke-width="3.0" fill="none" stroke="rgb(0, 0, 0)" stroke-opacity="1.0" stroke-linecap="round" stroke-linejoin="round"/>
    <path d="M 115.115966796875 169.57757568359375 C 108.75064086914062 168.61886596679688 99.90277862548828 173.9774627685547 85.75193786621094 173.23500061035156" stroke-width="3.0" fill="none" stroke="rgb(0, 0, 0)" stroke-opacity="1.0" stroke-linecap="round" stroke-linejoin="round"/>
    <path d="M 142.3215789794922 164.129150390625 C 159.376220703125 163.88734436035156 147.29481506347656 150.7142333984375 145.48947143554688 143.2211456298828" stroke-width="3.0" fill="none" stroke="rgb(0, 0, 0)" stroke-opacity="1.0" stroke-linecap="round" stroke-linejoin="round"/>
    <path d="M 71.30705261230469 165.8491973876953 C 92.84286499023438 183.4778594970703 160.118408203125 160.9527587890625 75.9911117553711 160.6851043701172" stroke-width="3.0" fill="none" stroke="rgb(0, 0, 0)" stroke-opacity="1.0" stroke-linecap="round" stroke-linejoin="round"/>
    <path d="M 129.5120391845703 172.2216033935547 C 143.5794677734375 177.9302215576172 116.41064453125 178.52337646484375 140.16668701171875 178.2251434326172" stroke-width="3.0" fill="none" stroke="rgb(0, 0, 0)" stroke-opacity="1.0" stroke-linecap="round" stroke-linejoin="round"/>
    <path d="M 148.68795776367188 79.16008758544922 C 122.1472396850586 136.36839294433594 157.6741485595703 79.7656478881836 141.6877899169922 168.15562438964844" stroke-width="3.0" fill="none" stroke="rgb(0, 0, 0)" stroke-opacity="1.0" stroke-linecap="round" stroke-linejoin="round"/>
    <path d="M 108.53469848632812 169.4204864501953 C 102.783935546875 155.8977508544922 90.07905578613281 156.45144653320312 127.27906036376953 177.84315490722656" stroke-width="3.0" fill="none" stroke="rgb(0, 0, 0)" stroke-opacity="1.0" stroke-linecap="round" stroke-linejoin="round"/>
    <path d="M 71.83415985107422 158.6787109375 C 64.7796401977539 155.86912536621094 134.8764190673828 145.86514282226562 74.98107147216797 101.36067199707031" stroke-width="3.0" fill="none" stroke="rgb(0, 0, 0)" stroke-opacity="1.0" stroke-linecap="round" stroke-linejoin="round"/>
    <path d="M 75.48112487792969 163.2979736328125 C 105.1644058227539 167.15823364257812 132.66282653808594 166.2908477783203 79.79816436767578 163.3577423095703" stroke-width="3.0" fill="none" stroke="rgb(0, 0, 0)" stroke-opacity="1.0" stroke-linecap="round" stroke-linejoin="round"/>
    <path d="M 114.59158325195312 168.8794403076172 C 55.33869171142578 170.5332794189453 72.07345581054688 148.583984375 108.50196838378906 164.1919708251953" stroke-width="3.0" fill="none" stroke="rgb(0, 0, 0)" stroke-opacity="1.0" stroke-linecap="round" stroke-linejoin="round"/>
    <path d="M 117.36886596679688 83.27403259277344 C 111.48673248291016 110.32386779785156 147.8191375732422 103.12047576904297 116.61632537841797 81.02193450927734" stroke-width="3.0" fill="none" stroke="rgb(0, 0, 0)" stroke-opacity="1.0" stroke-linecap="round" stroke-linejoin="round"/>
    <path d="M 120.51708984375 92.98523712158203 C 166.14254760742188 76.24006652832031 131.7757110595703 106.9541244506836 135.42413330078125 94.20760345458984" stroke-width="3.0" fill="none" stroke="rgb(0, 0, 0)" stroke-opacity="1.0" stroke-linecap="round" stroke-linejoin="round"/>
  </g>
</svg>
