<?xml version="1.0" ?>
<svg xmlns="http://www.w3.org/2000/svg" version="1.1" width="224" height="224">
  <defs/>
  <g>
    <path d="M 79.00189208984375 168.46282958984375 C 122.56439971923828 172.89808654785156 81.34550476074219 183.62437438964844 100.83303833007812 129.09666442871094" stroke-width="3.0" fill="none" stroke="rgb(0, 0, 0)" stroke-opacity="1.0" stroke-linecap="round" stroke-linejoin="round"/>
    <path d="M 123.50138854980469 170.60765075683594 C 41.53675079345703 155.8684844970703 85.58522033691406 184.5200653076172 120.78936767578125 166.52029418945312" stroke-width="3.0" fill="none" stroke="rgb(0, 0, 0)" stroke-opacity="1.0" stroke-linecap="round" stroke-linejoin="round"/>
    <path d="M 123.56637573242188 177.75430297851562 C 155.87217712402344 181.7536163330078 138.79681396484375 171.07025146484375 142.48220825195312 163.82757568359375" stroke-width="3.0" fill="none" stroke="rgb(0, 0, 0)" stroke-opacity="1.0" stroke-linecap="round" stroke-linejoin="round"/>
    <path d="M 74.75106811523438 152.9569549560547 C 34.780120849609375 181.83673095703125 127.8150863647461 183.92044067382812 124.16315460205078 165.70005798339844" stroke-width="3.0" fill="none" stroke="rgb(0, 0, 0)" stroke-opacity="1.0" stroke-linecap="round" stroke-linejoin="round"/>
    <path d="M 126.04553985595703 138.77105712890625 C 130.39276123046875 159.965087890625 128.1465301513672 155.69676208496094 128.82806396484375 175.3710479736328" stroke-width="3.0" fill="none" stroke="rgb(0, 0, 0)" stroke-opacity="1.0" stroke-linecap="round" stroke-linejoin="round"/>
    <path d="M 118.9428482055664 168.67831420898438 C 125.30156707763672 181.58090209960938 98.49369812011719 178.3762969970703 87.84544372558594 178.02305603027344" stroke-width="3.0" fill="none" stroke="rgb(0, 0, 0)" stroke-opacity="1.0" stroke-linecap="round" stroke-linejoin="round"/>
    <path d="M 143.27780151367188 166.61009216308594 C 157.70335388183594 165.40721130371094 148.29696655273438 152.64053344726562 147.07456970214844 141.070068359375" stroke-width="3.0" fill="none" stroke="rgb(0, 0, 0)" stroke-opacity="1.0" stroke-linecap="round" stroke-linejoin="round"/>
    <path d="M 78.58767700195312 165.0816192626953 C 98.85150146484375 176.32382202148438 157.41860961914062 159.9471435546875 80.53141784667969 165.09872436523438" stroke-width="3.0" fill="none" stroke="rgb(0, 0, 0)" stroke-opacity="1.0" stroke-linecap="round" stroke-linejoin="round"/>
    <path d="M 134.54006958007812 171.8721160888672 C 144.54049682617188 185.01087951660156 125.50662994384766 174.08065795898438 139.07421875 175.40615844726562" stroke-width="3.0" fill="none" stroke="rgb(0, 0, 0)" stroke-opacity="1.0" stroke-linecap="round" stroke-linejoin="round"/>
    <path d="M 148.30404663085938 82.85828399658203 C 132.20225524902344 135.24288940429688 156.65724182128906 74.67891693115234 141.78424072265625 169.38467407226562" stroke-width="3.0" fill="none" stroke="rgb(0, 0, 0)" stroke-opacity="1.0" stroke-linecap="round" stroke-linejoin="round"/>
    <path d="M 115.55866241455078 165.0238037109375 C 99.2338638305664 161.20919799804688 88.3071517944336 153.18125915527344 121.59180450439453 174.77059936523438" stroke-width="3.0" fill="none" stroke="rgb(0, 0, 0)" stroke-opacity="1.0" stroke-linecap="round" stroke-linejoin="round"/>
    <path d="M 77.71890258789062 151.44036865234375 C 64.48001098632812 159.73626708984375 133.0447998046875 132.71151733398438 75.94203186035156 98.38260650634766" stroke-width="3.0" fill="none" stroke="rgb(0, 0, 0)" stroke-opacity="1.0" stroke-linecap="round" stroke-linejoin="round"/>
    <path d="M 90.54994201660156 161.49075317382812 C 116.58184814453125 170.66851806640625 146.0666961669922 164.27783203125 85.41527557373047 162.82296752929688" stroke-width="3.0" fill="none" stroke="rgb(0, 0, 0)" stroke-opacity="1.0" stroke-linecap="round" stroke-linejoin="round"/>
    <path d="M 109.00634765625 168.40016174316406 C 50.31698226928711 175.85678100585938 74.31661987304688 153.63743591308594 114.62344360351562 169.0618133544922" stroke-width="3.0" fill="none" stroke="rgb(0, 0, 0)" stroke-opacity="1.0" stroke-linecap="round" stroke-linejoin="round"/>
    <path d="M 119.08545684814453 82.62842559814453 C 110.91754150390625 103.6771240234375 160.910400390625 107.74162292480469 116.66941833496094 81.3031234741211" stroke-width="3.0" fill="none" stroke="rgb(0, 0, 0)" stroke-opacity="1.0" stroke-linecap="round" stroke-linejoin="round"/>
    <path d="M 117.5558853149414 99.5259017944336 C 167.4726104736328 74.18185424804688 139.4467010498047 111.27154541015625 139.82530212402344 97.39443969726562" stroke-width="3.0" fill="none" stroke="rgb(0, 0, 0)" stroke-opacity="1.0" stroke-linecap="round" stroke-linejoin="round"/>
  </g>
</svg>
