<?xml version="1.0" ?>
<svg xmlns="http://www.w3.org/2000/svg" version="1.1" width="224" height="224">
  <defs/>
  <g>
    <path d="M 77.29701232910156 163.7062225341797 C 133.37445068359375 158.8909912109375 100.10042572021484 181.01686096191406 102.56886291503906 125.10894775390625" stroke-width="3.0" fill="none" stroke="rgb(0, 0, 0)" stroke-opacity="1.0" stroke-linecap="round" stroke-linejoin="round"/>
    <path d="M 117.0831298828125 169.84527587890625 C 38.94940948486328 155.97421264648438 88.16730499267578 180.4523162841797 118.43283081054688 168.13604736328125" stroke-width="3.0" fill="none" stroke="rgb(0, 0, 0)" stroke-opacity="1.0" stroke-linecap="round" stroke-linejoin="round"/>
    <path d="M 118.99181365966797 177.30996704101562 C 150.85997009277344 185.11895751953125 139.1384735107422 173.1349639892578 140.61727905273438 169.403564453125" stroke-width="3.0" fill="none" stroke="rgb(0, 0, 0)" stroke-opacity="1.0" stroke-linecap="round" stroke-linejoin="round"/>
    <path d="M 92.1353988647461 150.0785675048828 C 16.86193084716797 174.7929229736328 122.74156951904297 191.28311157226562 123.33868408203125 168.3175506591797" stroke-width="3.0" fill="none" stroke="rgb(0, 0, 0)" stroke-opacity="1.0" stroke-linecap="round" stroke-linejoin="round"/>
    <path d="M 127.23641967773438 142.20201110839844 C 129.7448272705078 157.4122772216797 127.6963882446289 147.08323669433594 129.79029846191406 176.8577423095703" stroke-width="3.0" fill="none" stroke="rgb(0, 0, 0)" stroke-opacity="1.0" stroke-linecap="round" stroke-linejoin="round"/>
    <path d="M 122.0745620727539 170.8081817626953 C 129.8109588623047 171.43508911132812 94.46617889404297 181.6103973388672 77.41648864746094 176.3566131591797" stroke-width="3.0" fill="none" stroke="rgb(0, 0, 0)" stroke-opacity="1.0" stroke-linecap="round" stroke-linejoin="round"/>
    <path d="M 142.97042846679688 165.12034606933594 C 157.3467254638672 159.59657287597656 145.1105499267578 154.26890563964844 146.8192138671875 129.14984130859375" stroke-width="3.0" fill="none" stroke="rgb(0, 0, 0)" stroke-opacity="1.0" stroke-linecap="round" stroke-linejoin="round"/>
    <path d="M 77.39200592041016 166.90354919433594 C 90.82066345214844 172.90301513671875 144.32940673828125 165.3640594482422 83.56670379638672 161.88348388671875" stroke-width="3.0" fill="none" stroke="rgb(0, 0, 0)" stroke-opacity="1.0" stroke-linecap="round" stroke-linejoin="round"/>
    <path d="M 128.22860717773438 176.19395446777344 C 135.81040954589844 182.2251434326172 128.09854125976562 175.2808380126953 136.08973693847656 175.96630859375" stroke-width="3.0" fill="none" stroke="rgb(0, 0, 0)" stroke-opacity="1.0" stroke-linecap="round" stroke-linejoin="round"/>
    <path d="M 151.9354705810547 81.6364974975586 C 126.1958999633789 145.33837890625 159.2282257080078 82.0394058227539 139.89306640625 176.80226135253906" stroke-width="3.0" fill="none" stroke="rgb(0, 0, 0)" stroke-opacity="1.0" stroke-linecap="round" stroke-linejoin="round"/>
    <path d="M 112.58895874023438 169.276123046875 C 95.18492126464844 168.2244415283203 89.18263244628906 152.53839111328125 123.61799621582031 174.2488555908203" stroke-width="3.0" fill="none" stroke="rgb(0, 0, 0)" stroke-opacity="1.0" stroke-linecap="round" stroke-linejoin="round"/>
    <path d="M 105.10677337646484 157.8052520751953 C 80.21357727050781 181.970703125 117.14383697509766 97.56663513183594 73.80171203613281 104.19861602783203" stroke-width="3.0" fill="none" stroke="rgb(0, 0, 0)" stroke-opacity="1.0" stroke-linecap="round" stroke-linejoin="round"/>
    <path d="M 92.8196029663086 162.61196899414062 C 113.9786605834961 172.07728576660156 149.20872497558594 162.99818420410156 90.8662109375 171.2497100830078" stroke-width="3.0" fill="none" stroke="rgb(0, 0, 0)" stroke-opacity="1.0" stroke-linecap="round" stroke-linejoin="round"/>
    <path d="M 108.5672378540039 165.14251708984375 C 53.05016326904297 175.44650268554688 89.49278259277344 145.12484741210938 111.94263458251953 167.07302856445312" stroke-width="3.0" fill="none" stroke="rgb(0, 0, 0)" stroke-opacity="1.0" stroke-linecap="round" stroke-linejoin="round"/>
    <path d="M 119.2685546875 82.80184936523438 C 114.59783935546875 105.0198974609375 157.60386657714844 105.61042785644531 118.07400512695312 80.35631561279297" stroke-width="3.0" fill="none" stroke="rgb(0, 0, 0)" stroke-opacity="1.0" stroke-linecap="round" stroke-linejoin="round"/>
    <path d="M 120.688232421875 100.00666046142578 C 156.3900909423828 64.81285095214844 157.3159637451172 111.83773040771484 129.40643310546875 105.46754455566406" stroke-width="3.0" fill="none" stroke="rgb(0, 0, 0)" stroke-opacity="1.0" stroke-linecap="round" stroke-linejoin="round"/>
  </g>
</svg>
