<?xml version="1.0" ?>
<svg xmlns="http://www.w3.org/2000/svg" version="1.1" width="224" height="224">
  <defs/>
  <g>
    <path d="M 76.8224868774414 163.05859375 C 134.89109802246094 160.62811279296875 100.23826599121094 179.48878479003906 106.95357513427734 125.40243530273438" stroke-width="3.0" fill="none" stroke="rgb(0, 0, 0)" stroke-opacity="1.0" stroke-linecap="round" stroke-linejoin="round"/>
    <path d="M 117.3892822265625 168.44483947753906 C 38.63629150390625 155.35853576660156 86.9404525756836 181.62330627441406 118.51215362548828 169.3369598388672" stroke-width="3.0" fill="none" stroke="rgb(0, 0, 0)" stroke-opacity="1.0" stroke-linecap="round" stroke-linejoin="round"/>
    <path d="M 117.60466003417969 176.8941192626953 C 150.00003051757812 186.25331115722656 139.3706817626953 171.53482055664062 140.45947265625 168.74111938476562" stroke-width="3.0" fill="none" stroke="rgb(0, 0, 0)" stroke-opacity="1.0" stroke-linecap="round" stroke-linejoin="round"/>
    <path d="M 92.58301544189453 150.7898712158203 C 15.16738510131836 174.59764099121094 121.94164276123047 192.04637145996094 122.9429702758789 169.6514892578125" stroke-width="3.0" fill="none" stroke="rgb(0, 0, 0)" stroke-opacity="1.0" stroke-linecap="round" stroke-linejoin="round"/>
    <path d="M 127.16178894042969 141.54603576660156 C 133.29762268066406 158.99240112304688 129.78689575195312 146.46395874023438 129.45382690429688 177.56947326660156" stroke-width="3.0" fill="none" stroke="rgb(0, 0, 0)" stroke-opacity="1.0" stroke-linecap="round" stroke-linejoin="round"/>
    <path d="M 120.33035278320312 170.42242431640625 C 130.22930908203125 172.8655548095703 96.10472106933594 183.6239471435547 78.59203338623047 177.02874755859375" stroke-width="3.0" fill="none" stroke="rgb(0, 0, 0)" stroke-opacity="1.0" stroke-linecap="round" stroke-linejoin="round"/>
    <path d="M 144.62196350097656 165.86056518554688 C 160.7078094482422 161.05929565429688 145.25582885742188 154.2301483154297 145.52496337890625 130.526611328125" stroke-width="3.0" fill="none" stroke="rgb(0, 0, 0)" stroke-opacity="1.0" stroke-linecap="round" stroke-linejoin="round"/>
    <path d="M 77.15831756591797 167.2412872314453 C 90.5464096069336 172.84451293945312 144.39561462402344 164.54347229003906 82.83780670166016 160.72633361816406" stroke-width="3.0" fill="none" stroke="rgb(0, 0, 0)" stroke-opacity="1.0" stroke-linecap="round" stroke-linejoin="round"/>
    <path d="M 127.5887222290039 178.23577880859375 C 134.9786834716797 182.03009033203125 125.96137237548828 173.35279846191406 135.30178833007812 174.59376525878906" stroke-width="3.0" fill="none" stroke="rgb(0, 0, 0)" stroke-opacity="1.0" stroke-linecap="round" stroke-linejoin="round"/>
    <path d="M 149.11048889160156 81.47283935546875 C 126.31999969482422 144.66265869140625 158.44027709960938 81.94975280761719 139.00730895996094 176.05751037597656" stroke-width="3.0" fill="none" stroke="rgb(0, 0, 0)" stroke-opacity="1.0" stroke-linecap="round" stroke-linejoin="round"/>
    <path d="M 112.6871109008789 169.0706329345703 C 95.26708221435547 167.88551330566406 89.76557922363281 150.82899475097656 124.8916244506836 173.80845642089844" stroke-width="3.0" fill="none" stroke="rgb(0, 0, 0)" stroke-opacity="1.0" stroke-linecap="round" stroke-linejoin="round"/>
    <path d="M 108.80200958251953 154.5194854736328 C 80.97167205810547 180.0450897216797 112.8509292602539 92.64234161376953 73.9107437133789 105.37478637695312" stroke-width="3.0" fill="none" stroke="rgb(0, 0, 0)" stroke-opacity="1.0" stroke-linecap="round" stroke-linejoin="round"/>
    <path d="M 92.89899444580078 162.8292694091797 C 114.40042877197266 173.96820068359375 149.66775512695312 166.0370330810547 91.38562774658203 171.26454162597656" stroke-width="3.0" fill="none" stroke="rgb(0, 0, 0)" stroke-opacity="1.0" stroke-linecap="round" stroke-linejoin="round"/>
    <path d="M 108.2832260131836 165.33767700195312 C 52.51161193847656 176.26499938964844 90.17093658447266 145.50196838378906 112.92759704589844 167.59791564941406" stroke-width="3.0" fill="none" stroke="rgb(0, 0, 0)" stroke-opacity="1.0" stroke-linecap="round" stroke-linejoin="round"/>
    <path d="M 117.70103454589844 86.51746368408203 C 113.04273986816406 104.77507019042969 159.50328063964844 106.16529846191406 116.61964416503906 81.35984802246094" stroke-width="3.0" fill="none" stroke="rgb(0, 0, 0)" stroke-opacity="1.0" stroke-linecap="round" stroke-linejoin="round"/>
    <path d="M 120.96387481689453 100.34053802490234 C 155.23028564453125 65.04254913330078 158.21412658691406 112.56731414794922 129.50100708007812 105.08213806152344" stroke-width="3.0" fill="none" stroke="rgb(0, 0, 0)" stroke-opacity="1.0" stroke-linecap="round" stroke-linejoin="round"/>
  </g>
</svg>
