<?xml version="1.0" ?>
<svg xmlns="http://www.w3.org/2000/svg" version="1.1" width="224" height="224">
  <defs/>
  <g>
    <path d="M 81.59934997558594 167.93370056152344 C 119.3056869506836 168.9316864013672 93.71598052978516 184.77137756347656 105.37904357910156 142.93505859375" stroke-width="3.0" fill="none" stroke="rgb(0, 0, 0)" stroke-opacity="1.0" stroke-linecap="round" stroke-linejoin="round"/>
    <path d="M 108.82074737548828 166.96405029296875 C 25.726390838623047 150.56272888183594 76.9516372680664 191.14842224121094 123.15711975097656 175.23272705078125" stroke-width="3.0" fill="none" stroke="rgb(0, 0, 0)" stroke-opacity="1.0" stroke-linecap="round" stroke-linejoin="round"/>
    <path d="M 132.73175048828125 176.77024841308594 C 154.6510772705078 178.92984008789062 139.8701171875 167.69168090820312 141.5431365966797 168.8041229248047" stroke-width="3.0" fill="none" stroke="rgb(0, 0, 0)" stroke-opacity="1.0" stroke-linecap="round" stroke-linejoin="round"/>
    <path d="M 68.73224639892578 162.09251403808594 C 51.922298431396484 176.36204528808594 106.84154510498047 180.07589721679688 84.48055267333984 176.64422607421875" stroke-width="3.0" fill="none" stroke="rgb(0, 0, 0)" stroke-opacity="1.0" stroke-linecap="round" stroke-linejoin="round"/>
    <path d="M 128.67965698242188 145.2949676513672 C 129.1179656982422 159.21310424804688 130.71865844726562 146.10105895996094 128.4083251953125 172.9434356689453" stroke-width="3.0" fill="none" stroke="rgb(0, 0, 0)" stroke-opacity="1.0" stroke-linecap="round" stroke-linejoin="round"/>
    <path d="M 114.09449768066406 170.01063537597656 C 107.80730438232422 169.4617919921875 100.9112777709961 173.81027221679688 94.31612396240234 172.21176147460938" stroke-width="3.0" fill="none" stroke="rgb(0, 0, 0)" stroke-opacity="1.0" stroke-linecap="round" stroke-linejoin="round"/>
    <path d="M 144.9192352294922 165.72483825683594 C 159.97735595703125 157.54750061035156 144.2538299560547 151.4657745361328 145.8604278564453 137.77366638183594" stroke-width="3.0" fill="none" stroke="rgb(0, 0, 0)" stroke-opacity="1.0" stroke-linecap="round" stroke-linejoin="round"/>
    <path d="M 71.89977264404297 167.90292358398438 C 102.13724517822266 184.78504943847656 168.3166046142578 160.9597930908203 75.92236328125 164.64732360839844" stroke-width="3.0" fill="none" stroke="rgb(0, 0, 0)" stroke-opacity="1.0" stroke-linecap="round" stroke-linejoin="round"/>
    <path d="M 128.67942810058594 170.62347412109375 C 144.73147583007812 175.8214874267578 116.03995513916016 178.46139526367188 140.09490966796875 177.72064208984375" stroke-width="3.0" fill="none" stroke="rgb(0, 0, 0)" stroke-opacity="1.0" stroke-linecap="round" stroke-linejoin="round"/>
    <path d="M 149.04708862304688 83.77935028076172 C 125.69245147705078 129.05809020996094 155.8456573486328 84.36228942871094 137.41799926757812 166.69677734375" stroke-width="3.0" fill="none" stroke="rgb(0, 0, 0)" stroke-opacity="1.0" stroke-linecap="round" stroke-linejoin="round"/>
    <path d="M 105.21529388427734 169.9705352783203 C 104.07366180419922 154.2601776123047 92.16797637939453 153.1295623779297 128.8615264892578 176.7987823486328" stroke-width="3.0" fill="none" stroke="rgb(0, 0, 0)" stroke-opacity="1.0" stroke-linecap="round" stroke-linejoin="round"/>
    <path d="M 67.16752624511719 166.0578155517578 C 65.09103393554688 155.19956970214844 133.4738006591797 148.4087371826172 73.26025390625 101.21353912353516" stroke-width="3.0" fill="none" stroke="rgb(0, 0, 0)" stroke-opacity="1.0" stroke-linecap="round" stroke-linejoin="round"/>
    <path d="M 73.50457000732422 165.17080688476562 C 106.16432189941406 172.3532257080078 132.0049285888672 175.51089477539062 77.85673522949219 163.1651153564453" stroke-width="3.0" fill="none" stroke="rgb(0, 0, 0)" stroke-opacity="1.0" stroke-linecap="round" stroke-linejoin="round"/>
    <path d="M 118.96759796142578 167.30577087402344 C 50.47930908203125 177.7612762451172 67.73265838623047 152.02639770507812 110.1928482055664 166.05027770996094" stroke-width="3.0" fill="none" stroke="rgb(0, 0, 0)" stroke-opacity="1.0" stroke-linecap="round" stroke-linejoin="round"/>
    <path d="M 118.8117904663086 79.8905029296875 C 113.08424377441406 110.44877624511719 146.80418395996094 99.02561950683594 117.70836639404297 80.10590362548828" stroke-width="3.0" fill="none" stroke="rgb(0, 0, 0)" stroke-opacity="1.0" stroke-linecap="round" stroke-linejoin="round"/>
    <path d="M 120.43280029296875 92.77108001708984 C 166.06021118164062 82.10813903808594 134.6561279296875 104.79090881347656 136.2913360595703 90.86348724365234" stroke-width="3.0" fill="none" stroke="rgb(0, 0, 0)" stroke-opacity="1.0" stroke-linecap="round" stroke-linejoin="round"/>
  </g>
</svg>
