<?xml version="1.0" ?>
<svg xmlns="http://www.w3.org/2000/svg" version="1.1" width="224" height="224">
  <defs/>
  <g>
    <path d="M 80.3849868774414 160.3173370361328 C 112.82306671142578 150.6560821533203 90.47896575927734 173.55093383789062 99.92688751220703 144.6485595703125" stroke-width="3.0" fill="none" stroke="rgb(0, 0, 0)" stroke-opacity="1.0" stroke-linecap="round" stroke-linejoin="round"/>
    <path d="M 105.95397186279297 162.99803161621094 C 36.23356246948242 153.38726806640625 75.39720916748047 189.10484313964844 123.70219421386719 170.87330627441406" stroke-width="3.0" fill="none" stroke="rgb(0, 0, 0)" stroke-opacity="1.0" stroke-linecap="round" stroke-linejoin="round"/>
    <path d="M 131.26510620117188 178.0359344482422 C 154.4654541015625 180.621826171875 142.30201721191406 168.3258514404297 143.56027221679688 170.82037353515625" stroke-width="3.0" fill="none" stroke="rgb(0, 0, 0)" stroke-opacity="1.0" stroke-linecap="round" stroke-linejoin="round"/>
    <path d="M 62.13563537597656 167.6949462890625 C 61.54719543457031 179.2353973388672 107.78009033203125 175.86178588867188 86.86356353759766 175.28627014160156" stroke-width="3.0" fill="none" stroke="rgb(0, 0, 0)" stroke-opacity="1.0" stroke-linecap="round" stroke-linejoin="round"/>
    <path d="M 129.42437744140625 145.2049102783203 C 128.58285522460938 150.7962188720703 131.04266357421875 145.9299774169922 127.54871368408203 178.20816040039062" stroke-width="3.0" fill="none" stroke="rgb(0, 0, 0)" stroke-opacity="1.0" stroke-linecap="round" stroke-linejoin="round"/>
    <path d="M 120.94507598876953 168.80148315429688 C 119.94783020019531 164.71022033691406 95.00603485107422 168.39254760742188 80.15304565429688 165.75958251953125" stroke-width="3.0" fill="none" stroke="rgb(0, 0, 0)" stroke-opacity="1.0" stroke-linecap="round" stroke-linejoin="round"/>
    <path d="M 146.34519958496094 161.99961853027344 C 153.31773376464844 154.63475036621094 149.78970336914062 161.2764892578125 146.0031280517578 139.1692657470703" stroke-width="3.0" fill="none" stroke="rgb(0, 0, 0)" stroke-opacity="1.0" stroke-linecap="round" stroke-linejoin="round"/>
    <path d="M 74.5344467163086 164.34764099121094 C 89.66437530517578 175.62728881835938 147.05731201171875 164.37472534179688 95.63475036621094 160.20738220214844" stroke-width="3.0" fill="none" stroke="rgb(0, 0, 0)" stroke-opacity="1.0" stroke-linecap="round" stroke-linejoin="round"/>
    <path d="M 135.5061798095703 173.01231384277344 C 143.32830810546875 183.8545379638672 110.68376922607422 175.9490203857422 129.2161407470703 174.460693359375" stroke-width="3.0" fill="none" stroke="rgb(0, 0, 0)" stroke-opacity="1.0" stroke-linecap="round" stroke-linejoin="round"/>
    <path d="M 146.0650634765625 103.4776840209961 C 129.0643310546875 126.09074401855469 158.06216430664062 91.84326171875 140.5916748046875 171.38670349121094" stroke-width="3.0" fill="none" stroke="rgb(0, 0, 0)" stroke-opacity="1.0" stroke-linecap="round" stroke-linejoin="round"/>
    <path d="M 113.55087280273438 169.98382568359375 C 115.14315795898438 123.2802734375 105.2257308959961 122.32524871826172 122.75395965576172 175.50628662109375" stroke-width="3.0" fill="none" stroke="rgb(0, 0, 0)" stroke-opacity="1.0" stroke-linecap="round" stroke-linejoin="round"/>
    <path d="M 63.72539138793945 165.19012451171875 C 70.76103973388672 142.1785125732422 129.9261474609375 165.7064971923828 78.06204986572266 100.71356964111328" stroke-width="3.0" fill="none" stroke="rgb(0, 0, 0)" stroke-opacity="1.0" stroke-linecap="round" stroke-linejoin="round"/>
    <path d="M 78.14939880371094 163.01649475097656 C 103.0484390258789 151.56297302246094 110.34558868408203 148.74913024902344 77.18008422851562 166.47332763671875" stroke-width="3.0" fill="none" stroke="rgb(0, 0, 0)" stroke-opacity="1.0" stroke-linecap="round" stroke-linejoin="round"/>
    <path d="M 118.18134307861328 167.9075164794922 C 74.58787536621094 159.73989868164062 86.5772476196289 156.63290405273438 113.5752944946289 161.41006469726562" stroke-width="3.0" fill="none" stroke="rgb(0, 0, 0)" stroke-opacity="1.0" stroke-linecap="round" stroke-linejoin="round"/>
    <path d="M 121.56352233886719 84.42521667480469 C 118.97511291503906 102.40193176269531 140.38438415527344 99.4506607055664 120.55561065673828 80.41641998291016" stroke-width="3.0" fill="none" stroke="rgb(0, 0, 0)" stroke-opacity="1.0" stroke-linecap="round" stroke-linejoin="round"/>
    <path d="M 132.52099609375 93.64189910888672 C 152.98703002929688 82.53018951416016 130.5811004638672 106.9630126953125 134.22364807128906 95.79691314697266" stroke-width="3.0" fill="none" stroke="rgb(0, 0, 0)" stroke-opacity="1.0" stroke-linecap="round" stroke-linejoin="round"/>
  </g>
</svg>
