<?xml version="1.0" ?>
<svg xmlns="http://www.w3.org/2000/svg" version="1.1" width="224" height="224">
  <defs/>
  <g>
    <path d="M 83.9378662109375 169.14048767089844 C 109.89749908447266 166.12527465820312 79.19268035888672 188.37083435058594 96.00027465820312 142.6819610595703" stroke-width="3.0" fill="none" stroke="rgb(0, 0, 0)" stroke-opacity="1.0" stroke-linecap="round" stroke-linejoin="round"/>
    <path d="M 115.69759368896484 167.59181213378906 C 35.595699310302734 162.111328125 79.0239028930664 187.7594757080078 121.65853118896484 176.93763732910156" stroke-width="3.0" fill="none" stroke="rgb(0, 0, 0)" stroke-opacity="1.0" stroke-linecap="round" stroke-linejoin="round"/>
    <path d="M 133.1264190673828 177.49826049804688 C 152.61875915527344 183.29371643066406 138.8195343017578 171.2760467529297 140.04493713378906 163.8959197998047" stroke-width="3.0" fill="none" stroke="rgb(0, 0, 0)" stroke-opacity="1.0" stroke-linecap="round" stroke-linejoin="round"/>
    <path d="M 65.70339965820312 164.29800415039062 C 64.78729248046875 176.5267333984375 111.49068450927734 181.4096221923828 78.42739868164062 176.5244903564453" stroke-width="3.0" fill="none" stroke="rgb(0, 0, 0)" stroke-opacity="1.0" stroke-linecap="round" stroke-linejoin="round"/>
    <path d="M 132.01124572753906 141.418701171875 C 137.49008178710938 162.51441955566406 133.7787628173828 143.38662719726562 133.52188110351562 178.39390563964844" stroke-width="3.0" fill="none" stroke="rgb(0, 0, 0)" stroke-opacity="1.0" stroke-linecap="round" stroke-linejoin="round"/>
    <path d="M 124.54362487792969 172.48190307617188 C 113.39492797851562 163.54965209960938 107.1791000366211 173.80093383789062 94.99495697021484 170.59547424316406" stroke-width="3.0" fill="none" stroke="rgb(0, 0, 0)" stroke-opacity="1.0" stroke-linecap="round" stroke-linejoin="round"/>
    <path d="M 148.68081665039062 163.2078857421875 C 157.66014099121094 159.07899475097656 147.8360137939453 151.4953155517578 149.72653198242188 131.6774139404297" stroke-width="3.0" fill="none" stroke="rgb(0, 0, 0)" stroke-opacity="1.0" stroke-linecap="round" stroke-linejoin="round"/>
    <path d="M 75.88021850585938 168.9497833251953 C 92.94338989257812 180.0494842529297 151.72393798828125 164.7315673828125 78.98515319824219 162.26353454589844" stroke-width="3.0" fill="none" stroke="rgb(0, 0, 0)" stroke-opacity="1.0" stroke-linecap="round" stroke-linejoin="round"/>
    <path d="M 132.80361938476562 175.35011291503906 C 147.9378662109375 178.2453155517578 118.02303314208984 179.0880584716797 138.61366271972656 179.65769958496094" stroke-width="3.0" fill="none" stroke="rgb(0, 0, 0)" stroke-opacity="1.0" stroke-linecap="round" stroke-linejoin="round"/>
    <path d="M 146.85400390625 89.83174896240234 C 133.4082489013672 123.9341812133789 167.38424682617188 91.3861083984375 138.9197235107422 172.30445861816406" stroke-width="3.0" fill="none" stroke="rgb(0, 0, 0)" stroke-opacity="1.0" stroke-linecap="round" stroke-linejoin="round"/>
    <path d="M 103.91846466064453 172.45089721679688 C 106.70404052734375 144.93145751953125 94.02959442138672 156.78811645507812 129.04452514648438 178.61952209472656" stroke-width="3.0" fill="none" stroke="rgb(0, 0, 0)" stroke-opacity="1.0" stroke-linecap="round" stroke-linejoin="round"/>
    <path d="M 65.34849548339844 166.14874267578125 C 65.15888214111328 148.7593231201172 125.98932647705078 162.02731323242188 77.24407196044922 101.45054626464844" stroke-width="3.0" fill="none" stroke="rgb(0, 0, 0)" stroke-opacity="1.0" stroke-linecap="round" stroke-linejoin="round"/>
    <path d="M 72.94996643066406 163.93426513671875 C 102.82677459716797 168.1388397216797 126.740478515625 173.5298309326172 78.32234191894531 169.56396484375" stroke-width="3.0" fill="none" stroke="rgb(0, 0, 0)" stroke-opacity="1.0" stroke-linecap="round" stroke-linejoin="round"/>
    <path d="M 117.0970687866211 162.63882446289062 C 56.89342498779297 172.19598388671875 72.5008316040039 159.4995574951172 108.47154998779297 164.36231994628906" stroke-width="3.0" fill="none" stroke="rgb(0, 0, 0)" stroke-opacity="1.0" stroke-linecap="round" stroke-linejoin="round"/>
    <path d="M 116.41242218017578 86.2038803100586 C 108.87322235107422 105.8001937866211 143.70602416992188 102.17377471923828 114.44070434570312 83.06265258789062" stroke-width="3.0" fill="none" stroke="rgb(0, 0, 0)" stroke-opacity="1.0" stroke-linecap="round" stroke-linejoin="round"/>
    <path d="M 128.0542449951172 91.37635803222656 C 153.53536987304688 79.5333251953125 129.646484375 103.67488098144531 133.1293487548828 92.50296783447266" stroke-width="3.0" fill="none" stroke="rgb(0, 0, 0)" stroke-opacity="1.0" stroke-linecap="round" stroke-linejoin="round"/>
  </g>
</svg>
