<?xml version="1.0" ?>
<svg xmlns="http://www.w3.org/2000/svg" version="1.1" width="224" height="224">
  <defs/>
  <g>
    <path d="M 78.92617797851562 171.02804565429688 C 116.08949279785156 166.95587158203125 92.96988677978516 193.2963104248047 101.75531005859375 138.5518341064453" stroke-width="3.0" fill="none" stroke="rgb(0, 0, 0)" stroke-opacity="1.0" stroke-linecap="round" stroke-linejoin="round"/>
    <path d="M 111.73722076416016 169.2100067138672 C 28.84531593322754 158.10214233398438 75.83992767333984 190.4845428466797 119.17674255371094 175.65194702148438" stroke-width="3.0" fill="none" stroke="rgb(0, 0, 0)" stroke-opacity="1.0" stroke-linecap="round" stroke-linejoin="round"/>
    <path d="M 132.36300659179688 179.15550231933594 C 152.93759155273438 179.02235412597656 138.84042358398438 167.2560272216797 141.56101989746094 166.9222412109375" stroke-width="3.0" fill="none" stroke="rgb(0, 0, 0)" stroke-opacity="1.0" stroke-linecap="round" stroke-linejoin="round"/>
    <path d="M 68.68645477294922 162.5255126953125 C 56.23676300048828 180.93832397460938 104.36249542236328 181.60116577148438 81.43486785888672 178.18955993652344" stroke-width="3.0" fill="none" stroke="rgb(0, 0, 0)" stroke-opacity="1.0" stroke-linecap="round" stroke-linejoin="round"/>
    <path d="M 130.46160888671875 136.8828125 C 131.2867431640625 156.06570434570312 128.1819610595703 142.85707092285156 129.35606384277344 174.8061981201172" stroke-width="3.0" fill="none" stroke="rgb(0, 0, 0)" stroke-opacity="1.0" stroke-linecap="round" stroke-linejoin="round"/>
    <path d="M 116.2843246459961 173.17660522460938 C 109.60298156738281 166.90155029296875 101.71035766601562 173.03582763671875 96.29106903076172 171.28785705566406" stroke-width="3.0" fill="none" stroke="rgb(0, 0, 0)" stroke-opacity="1.0" stroke-linecap="round" stroke-linejoin="round"/>
    <path d="M 143.9621124267578 160.1234130859375 C 158.11329650878906 154.19149780273438 145.83973693847656 154.9624481201172 146.06727600097656 128.91197204589844" stroke-width="3.0" fill="none" stroke="rgb(0, 0, 0)" stroke-opacity="1.0" stroke-linecap="round" stroke-linejoin="round"/>
    <path d="M 73.44322967529297 170.4183349609375 C 103.9804916381836 182.6393280029297 166.27590942382812 162.35760498046875 80.46978759765625 162.33779907226562" stroke-width="3.0" fill="none" stroke="rgb(0, 0, 0)" stroke-opacity="1.0" stroke-linecap="round" stroke-linejoin="round"/>
    <path d="M 129.8701934814453 173.10281372070312 C 145.62551879882812 180.98585510253906 116.04303741455078 178.5552215576172 142.85662841796875 177.8157501220703" stroke-width="3.0" fill="none" stroke="rgb(0, 0, 0)" stroke-opacity="1.0" stroke-linecap="round" stroke-linejoin="round"/>
    <path d="M 147.23854064941406 84.70331573486328 C 130.8460693359375 125.7489242553711 158.66355895996094 88.20440673828125 140.44717407226562 166.409423828125" stroke-width="3.0" fill="none" stroke="rgb(0, 0, 0)" stroke-opacity="1.0" stroke-linecap="round" stroke-linejoin="round"/>
    <path d="M 104.09439086914062 168.26040649414062 C 103.76315307617188 154.96441650390625 90.32054138183594 160.02786254882812 127.60929870605469 176.051513671875" stroke-width="3.0" fill="none" stroke="rgb(0, 0, 0)" stroke-opacity="1.0" stroke-linecap="round" stroke-linejoin="round"/>
    <path d="M 67.93576049804688 166.9007568359375 C 66.90283203125 149.70260620117188 130.28343200683594 153.89942932128906 73.96601867675781 100.80481719970703" stroke-width="3.0" fill="none" stroke="rgb(0, 0, 0)" stroke-opacity="1.0" stroke-linecap="round" stroke-linejoin="round"/>
    <path d="M 70.6285171508789 169.03883361816406 C 106.26192474365234 165.46348571777344 130.8457794189453 174.677978515625 78.35517883300781 169.7142791748047" stroke-width="3.0" fill="none" stroke="rgb(0, 0, 0)" stroke-opacity="1.0" stroke-linecap="round" stroke-linejoin="round"/>
    <path d="M 123.7884750366211 162.96226501464844 C 53.24513626098633 176.56251525878906 72.3277359008789 156.8003387451172 110.58514404296875 167.70712280273438" stroke-width="3.0" fill="none" stroke="rgb(0, 0, 0)" stroke-opacity="1.0" stroke-linecap="round" stroke-linejoin="round"/>
    <path d="M 112.78604888916016 78.72409057617188 C 109.6751708984375 107.60671997070312 145.05946350097656 99.22528076171875 114.00703430175781 80.31014251708984" stroke-width="3.0" fill="none" stroke="rgb(0, 0, 0)" stroke-opacity="1.0" stroke-linecap="round" stroke-linejoin="round"/>
    <path d="M 124.54988861083984 91.8613510131836 C 157.3831329345703 85.09452819824219 126.809326171875 101.57095336914062 130.9982147216797 93.06717681884766" stroke-width="3.0" fill="none" stroke="rgb(0, 0, 0)" stroke-opacity="1.0" stroke-linecap="round" stroke-linejoin="round"/>
  </g>
</svg>
