<?xml version="1.0" ?>
<svg xmlns="http://www.w3.org/2000/svg" version="1.1" width="224" height="224">
  <defs/>
  <g>
    <path d="M 78.22588348388672 165.21484375 C 124.89766693115234 161.71450805664062 92.57240295410156 192.2499237060547 100.74842834472656 135.8609161376953" stroke-width="3.0" fill="none" stroke="rgb(0, 0, 0)" stroke-opacity="1.0" stroke-linecap="round" stroke-linejoin="round"/>
    <path d="M 118.1594467163086 169.06495666503906 C 39.247222900390625 157.6774444580078 88.46762084960938 182.40103149414062 117.0954818725586 167.74679565429688" stroke-width="3.0" fill="none" stroke="rgb(0, 0, 0)" stroke-opacity="1.0" stroke-linecap="round" stroke-linejoin="round"/>
    <path d="M 121.24301147460938 175.9525909423828 C 151.18446350097656 181.22079467773438 139.4183807373047 173.6478729248047 141.6127166748047 169.1083984375" stroke-width="3.0" fill="none" stroke="rgb(0, 0, 0)" stroke-opacity="1.0" stroke-linecap="round" stroke-linejoin="round"/>
    <path d="M 94.37876892089844 150.41693115234375 C 13.592437744140625 175.5114288330078 122.30702209472656 190.37596130371094 125.8355941772461 165.34022521972656" stroke-width="3.0" fill="none" stroke="rgb(0, 0, 0)" stroke-opacity="1.0" stroke-linecap="round" stroke-linejoin="round"/>
    <path d="M 125.2308120727539 139.73878479003906 C 132.23133850097656 153.7906036376953 129.1374053955078 149.8842010498047 128.80125427246094 177.09414672851562" stroke-width="3.0" fill="none" stroke="rgb(0, 0, 0)" stroke-opacity="1.0" stroke-linecap="round" stroke-linejoin="round"/>
    <path d="M 121.44348907470703 172.14285278320312 C 131.3865509033203 173.24676513671875 93.72421264648438 181.0069122314453 78.34040069580078 177.0343780517578" stroke-width="3.0" fill="none" stroke="rgb(0, 0, 0)" stroke-opacity="1.0" stroke-linecap="round" stroke-linejoin="round"/>
    <path d="M 144.59915161132812 166.711181640625 C 159.50083923339844 161.1879425048828 148.21453857421875 157.9750213623047 146.59324645996094 128.45021057128906" stroke-width="3.0" fill="none" stroke="rgb(0, 0, 0)" stroke-opacity="1.0" stroke-linecap="round" stroke-linejoin="round"/>
    <path d="M 78.91407012939453 167.09857177734375 C 92.72267150878906 175.04481506347656 146.95474243164062 165.47265625 83.1418685913086 162.1831817626953" stroke-width="3.0" fill="none" stroke="rgb(0, 0, 0)" stroke-opacity="1.0" stroke-linecap="round" stroke-linejoin="round"/>
    <path d="M 129.78652954101562 174.53904724121094 C 136.45970153808594 181.33387756347656 128.21266174316406 175.19976806640625 136.3627471923828 173.03591918945312" stroke-width="3.0" fill="none" stroke="rgb(0, 0, 0)" stroke-opacity="1.0" stroke-linecap="round" stroke-linejoin="round"/>
    <path d="M 149.11590576171875 80.56106567382812 C 128.77642822265625 138.01266479492188 161.43231201171875 72.97139739990234 139.9227294921875 176.90977478027344" stroke-width="3.0" fill="none" stroke="rgb(0, 0, 0)" stroke-opacity="1.0" stroke-linecap="round" stroke-linejoin="round"/>
    <path d="M 111.60932922363281 170.52842712402344 C 95.17528533935547 168.76046752929688 89.06810760498047 153.47708129882812 123.91121673583984 172.79127502441406" stroke-width="3.0" fill="none" stroke="rgb(0, 0, 0)" stroke-opacity="1.0" stroke-linecap="round" stroke-linejoin="round"/>
    <path d="M 95.55367279052734 157.568359375 C 77.38133239746094 179.56922912597656 120.71958923339844 109.20513153076172 73.39412689208984 103.86624145507812" stroke-width="3.0" fill="none" stroke="rgb(0, 0, 0)" stroke-opacity="1.0" stroke-linecap="round" stroke-linejoin="round"/>
    <path d="M 94.08667755126953 160.50025939941406 C 114.01561737060547 171.9683837890625 148.23985290527344 164.77676391601562 88.01485443115234 173.01821899414062" stroke-width="3.0" fill="none" stroke="rgb(0, 0, 0)" stroke-opacity="1.0" stroke-linecap="round" stroke-linejoin="round"/>
    <path d="M 109.3331069946289 165.96034240722656 C 56.24882125854492 176.54554748535156 88.94825744628906 146.4974365234375 110.41786193847656 168.73965454101562" stroke-width="3.0" fill="none" stroke="rgb(0, 0, 0)" stroke-opacity="1.0" stroke-linecap="round" stroke-linejoin="round"/>
    <path d="M 120.26396179199219 83.39289093017578 C 114.09259033203125 105.08352661132812 153.5546112060547 104.77802276611328 118.82611083984375 80.09211730957031" stroke-width="3.0" fill="none" stroke="rgb(0, 0, 0)" stroke-opacity="1.0" stroke-linecap="round" stroke-linejoin="round"/>
    <path d="M 117.17346954345703 100.8233413696289 C 158.0663299560547 64.30162048339844 155.0501708984375 111.98725891113281 131.46495056152344 101.6262435913086" stroke-width="3.0" fill="none" stroke="rgb(0, 0, 0)" stroke-opacity="1.0" stroke-linecap="round" stroke-linejoin="round"/>
  </g>
</svg>
