<?xml version="1.0" ?>
<svg xmlns="http://www.w3.org/2000/svg" version="1.1" width="224" height="224">
  <defs/>
  <g>
    <path d="M 79.240478515625 162.34207153320312 C 138.573486328125 166.8074951171875 101.54654693603516 166.52748107910156 118.3033218383789 139.62950134277344" stroke-width="3.0" fill="none" stroke="rgb(0, 0, 0)" stroke-opacity="1.0" stroke-linecap="round" stroke-linejoin="round"/>
    <path d="M 117.59652709960938 167.5807342529297 C 38.03620910644531 156.1801300048828 84.05685424804688 181.54563903808594 117.4224853515625 166.80661010742188" stroke-width="3.0" fill="none" stroke="rgb(0, 0, 0)" stroke-opacity="1.0" stroke-linecap="round" stroke-linejoin="round"/>
    <path d="M 127.34563446044922 179.16680908203125 C 157.458984375 183.16427612304688 139.9917755126953 175.40196228027344 141.40516662597656 166.1179962158203" stroke-width="3.0" fill="none" stroke="rgb(0, 0, 0)" stroke-opacity="1.0" stroke-linecap="round" stroke-linejoin="round"/>
    <path d="M 94.44194793701172 148.42819213867188 C 15.349853515625 170.7640380859375 120.84992980957031 189.7281494140625 122.51852416992188 169.11935424804688" stroke-width="3.0" fill="none" stroke="rgb(0, 0, 0)" stroke-opacity="1.0" stroke-linecap="round" stroke-linejoin="round"/>
    <path d="M 127.34750366210938 144.65060424804688 C 129.061767578125 164.13458251953125 128.99588012695312 151.3571014404297 128.5307159423828 175.78530883789062" stroke-width="3.0" fill="none" stroke="rgb(0, 0, 0)" stroke-opacity="1.0" stroke-linecap="round" stroke-linejoin="round"/>
    <path d="M 120.76663970947266 167.75631713867188 C 124.78099060058594 167.63442993164062 95.15623474121094 179.4512481689453 79.65972900390625 175.4418487548828" stroke-width="3.0" fill="none" stroke="rgb(0, 0, 0)" stroke-opacity="1.0" stroke-linecap="round" stroke-linejoin="round"/>
    <path d="M 144.9466552734375 164.7144775390625 C 157.97280883789062 156.41104125976562 144.8987274169922 151.2910614013672 144.81793212890625 137.0897216796875" stroke-width="3.0" fill="none" stroke="rgb(0, 0, 0)" stroke-opacity="1.0" stroke-linecap="round" stroke-linejoin="round"/>
    <path d="M 73.9842529296875 166.56568908691406 C 88.87884521484375 172.14857482910156 140.85504150390625 164.845947265625 81.17739868164062 161.85516357421875" stroke-width="3.0" fill="none" stroke="rgb(0, 0, 0)" stroke-opacity="1.0" stroke-linecap="round" stroke-linejoin="round"/>
    <path d="M 124.71360778808594 179.23777770996094 C 121.24959564208984 176.7822265625 113.5009994506836 162.64730834960938 118.06991577148438 171.5586395263672" stroke-width="3.0" fill="none" stroke="rgb(0, 0, 0)" stroke-opacity="1.0" stroke-linecap="round" stroke-linejoin="round"/>
    <path d="M 150.8361358642578 81.60409545898438 C 121.8503646850586 139.49151611328125 159.38787841796875 74.7492904663086 139.2421875 176.3253173828125" stroke-width="3.0" fill="none" stroke="rgb(0, 0, 0)" stroke-opacity="1.0" stroke-linecap="round" stroke-linejoin="round"/>
    <path d="M 112.0851821899414 170.48696899414062 C 96.95613098144531 174.72470092773438 95.96187591552734 147.5011749267578 122.45150756835938 168.46078491210938" stroke-width="3.0" fill="none" stroke="rgb(0, 0, 0)" stroke-opacity="1.0" stroke-linecap="round" stroke-linejoin="round"/>
    <path d="M 94.87812805175781 151.50865173339844 C 92.35863494873047 194.0523681640625 104.6412124633789 82.0517807006836 71.92440795898438 103.89805603027344" stroke-width="3.0" fill="none" stroke="rgb(0, 0, 0)" stroke-opacity="1.0" stroke-linecap="round" stroke-linejoin="round"/>
    <path d="M 86.84851837158203 161.53231811523438 C 117.94448852539062 166.82666015625 150.97262573242188 166.6234893798828 87.11237335205078 172.70455932617188" stroke-width="3.0" fill="none" stroke="rgb(0, 0, 0)" stroke-opacity="1.0" stroke-linecap="round" stroke-linejoin="round"/>
    <path d="M 112.98088073730469 163.4510498046875 C 42.893707275390625 176.76480102539062 96.55409240722656 142.62484741210938 102.60871887207031 167.62095642089844" stroke-width="3.0" fill="none" stroke="rgb(0, 0, 0)" stroke-opacity="1.0" stroke-linecap="round" stroke-linejoin="round"/>
    <path d="M 117.4125747680664 84.25243377685547 C 110.70108795166016 103.45063018798828 167.12570190429688 105.51774597167969 116.21286010742188 81.64065551757812" stroke-width="3.0" fill="none" stroke="rgb(0, 0, 0)" stroke-opacity="1.0" stroke-linecap="round" stroke-linejoin="round"/>
    <path d="M 118.94178771972656 98.84602355957031 C 149.86476135253906 67.45650482177734 165.35317993164062 106.34333038330078 123.25208282470703 100.7776870727539" stroke-width="3.0" fill="none" stroke="rgb(0, 0, 0)" stroke-opacity="1.0" stroke-linecap="round" stroke-linejoin="round"/>
  </g>
</svg>
