<?xml version="1.0" ?>
<svg xmlns="http://www.w3.org/2000/svg" version="1.1" width="224" height="224">
  <defs/>
  <g>
    <path d="M 77.23233795166016 165.9192352294922 C 114.25169372558594 153.7849884033203 99.71391296386719 180.9807891845703 99.01737976074219 144.62843322753906" stroke-width="3.0" fill="none" stroke="rgb(0, 0, 0)" stroke-opacity="1.0" stroke-linecap="round" stroke-linejoin="round"/>
    <path d="M 114.52501678466797 163.41383361816406 C 34.15791320800781 153.2117462158203 76.8781967163086 186.74359130859375 123.65650177001953 169.5690155029297" stroke-width="3.0" fill="none" stroke="rgb(0, 0, 0)" stroke-opacity="1.0" stroke-linecap="round" stroke-linejoin="round"/>
    <path d="M 130.7803192138672 177.10850524902344 C 154.45538330078125 182.27090454101562 139.3126983642578 172.41018676757812 141.9532012939453 170.5902862548828" stroke-width="3.0" fill="none" stroke="rgb(0, 0, 0)" stroke-opacity="1.0" stroke-linecap="round" stroke-linejoin="round"/>
    <path d="M 65.90119171142578 166.72576904296875 C 62.408958435058594 178.9427490234375 109.86883544921875 174.6780242919922 86.8182144165039 175.9962921142578" stroke-width="3.0" fill="none" stroke="rgb(0, 0, 0)" stroke-opacity="1.0" stroke-linecap="round" stroke-linejoin="round"/>
    <path d="M 130.3159637451172 141.09658813476562 C 124.24987030029297 151.92758178710938 135.57879638671875 149.1859588623047 131.23753356933594 177.9749755859375" stroke-width="3.0" fill="none" stroke="rgb(0, 0, 0)" stroke-opacity="1.0" stroke-linecap="round" stroke-linejoin="round"/>
    <path d="M 119.30865478515625 166.0675506591797 C 120.81452941894531 163.27633666992188 96.22917938232422 170.45465087890625 79.88956451416016 167.25662231445312" stroke-width="3.0" fill="none" stroke="rgb(0, 0, 0)" stroke-opacity="1.0" stroke-linecap="round" stroke-linejoin="round"/>
    <path d="M 146.12109375 165.97840881347656 C 154.46234130859375 159.39920043945312 150.46336364746094 157.0366668701172 144.78329467773438 138.45101928710938" stroke-width="3.0" fill="none" stroke="rgb(0, 0, 0)" stroke-opacity="1.0" stroke-linecap="round" stroke-linejoin="round"/>
    <path d="M 72.29888916015625 166.76426696777344 C 91.5487289428711 176.77906799316406 150.41326904296875 163.6162872314453 91.44694519042969 167.50169372558594" stroke-width="3.0" fill="none" stroke="rgb(0, 0, 0)" stroke-opacity="1.0" stroke-linecap="round" stroke-linejoin="round"/>
    <path d="M 134.78369140625 173.88609313964844 C 144.9666290283203 185.8112030029297 111.61610412597656 176.67132568359375 129.97523498535156 177.24330139160156" stroke-width="3.0" fill="none" stroke="rgb(0, 0, 0)" stroke-opacity="1.0" stroke-linecap="round" stroke-linejoin="round"/>
    <path d="M 145.4978485107422 104.07369232177734 C 130.03724670410156 125.2807846069336 155.0555877685547 96.8797378540039 141.8497772216797 169.82736206054688" stroke-width="3.0" fill="none" stroke="rgb(0, 0, 0)" stroke-opacity="1.0" stroke-linecap="round" stroke-linejoin="round"/>
    <path d="M 107.9685287475586 166.78115844726562 C 118.99638366699219 124.8111572265625 116.96965026855469 120.71440124511719 125.1902847290039 175.73281860351562" stroke-width="3.0" fill="none" stroke="rgb(0, 0, 0)" stroke-opacity="1.0" stroke-linecap="round" stroke-linejoin="round"/>
    <path d="M 65.64008331298828 164.378173828125 C 71.31770324707031 143.3725128173828 129.82679748535156 170.32444763183594 76.96202850341797 98.69906616210938" stroke-width="3.0" fill="none" stroke="rgb(0, 0, 0)" stroke-opacity="1.0" stroke-linecap="round" stroke-linejoin="round"/>
    <path d="M 71.72016906738281 164.3785400390625 C 98.51657104492188 149.50559997558594 114.06867980957031 159.55484008789062 82.3462142944336 166.65106201171875" stroke-width="3.0" fill="none" stroke="rgb(0, 0, 0)" stroke-opacity="1.0" stroke-linecap="round" stroke-linejoin="round"/>
    <path d="M 118.96542358398438 168.8775177001953 C 75.10808563232422 162.49249267578125 86.55262756347656 154.9448699951172 112.48120880126953 150.80938720703125" stroke-width="3.0" fill="none" stroke="rgb(0, 0, 0)" stroke-opacity="1.0" stroke-linecap="round" stroke-linejoin="round"/>
    <path d="M 120.04617309570312 94.51541137695312 C 113.70963287353516 101.99190521240234 140.6508331298828 101.76455688476562 117.44668579101562 88.89434814453125" stroke-width="3.0" fill="none" stroke="rgb(0, 0, 0)" stroke-opacity="1.0" stroke-linecap="round" stroke-linejoin="round"/>
    <path d="M 133.3895721435547 97.05162811279297 C 155.77699279785156 82.66230773925781 135.3514404296875 106.59436798095703 136.26449584960938 93.52015686035156" stroke-width="3.0" fill="none" stroke="rgb(0, 0, 0)" stroke-opacity="1.0" stroke-linecap="round" stroke-linejoin="round"/>
  </g>
</svg>
