<?xml version="1.0" ?>
<svg xmlns="http://www.w3.org/2000/svg" version="1.1" width="224" height="224">
  <defs/>
  <g>
    <path d="M 79.86014556884766 169.30178833007812 C 120.67777252197266 164.48248291015625 85.43949127197266 191.0913848876953 99.70512390136719 135.0825653076172" stroke-width="3.0" fill="none" stroke="rgb(0, 0, 0)" stroke-opacity="1.0" stroke-linecap="round" stroke-linejoin="round"/>
    <path d="M 118.25012969970703 169.48464965820312 C 41.47956466674805 157.41650390625 88.54395294189453 185.73822021484375 123.54322814941406 165.370849609375" stroke-width="3.0" fill="none" stroke="rgb(0, 0, 0)" stroke-opacity="1.0" stroke-linecap="round" stroke-linejoin="round"/>
    <path d="M 123.95835876464844 177.70254516601562 C 149.8084716796875 185.6037139892578 140.31930541992188 173.12318420410156 141.0907745361328 167.06866455078125" stroke-width="3.0" fill="none" stroke="rgb(0, 0, 0)" stroke-opacity="1.0" stroke-linecap="round" stroke-linejoin="round"/>
    <path d="M 83.87236785888672 153.71441650390625 C 26.579500198364258 179.8184051513672 124.94983673095703 189.4717254638672 127.5911636352539 172.45823669433594" stroke-width="3.0" fill="none" stroke="rgb(0, 0, 0)" stroke-opacity="1.0" stroke-linecap="round" stroke-linejoin="round"/>
    <path d="M 127.49616241455078 142.113037109375 C 129.84011840820312 156.52882385253906 127.87146759033203 153.4957275390625 127.56591796875 179.4624481201172" stroke-width="3.0" fill="none" stroke="rgb(0, 0, 0)" stroke-opacity="1.0" stroke-linecap="round" stroke-linejoin="round"/>
    <path d="M 118.45387268066406 170.3921661376953 C 127.32160186767578 171.91192626953125 88.81401824951172 181.60202026367188 78.19525146484375 177.07521057128906" stroke-width="3.0" fill="none" stroke="rgb(0, 0, 0)" stroke-opacity="1.0" stroke-linecap="round" stroke-linejoin="round"/>
    <path d="M 146.54241943359375 166.4638214111328 C 157.54331970214844 158.66075134277344 150.327392578125 159.54661560058594 145.5689239501953 138.6126251220703" stroke-width="3.0" fill="none" stroke="rgb(0, 0, 0)" stroke-opacity="1.0" stroke-linecap="round" stroke-linejoin="round"/>
    <path d="M 83.25315856933594 167.46612548828125 C 97.11473846435547 177.53028869628906 151.65411376953125 166.74899291992188 82.48526763916016 164.82395935058594" stroke-width="3.0" fill="none" stroke="rgb(0, 0, 0)" stroke-opacity="1.0" stroke-linecap="round" stroke-linejoin="round"/>
    <path d="M 134.24510192871094 174.6842041015625 C 140.46319580078125 181.73907470703125 127.3275375366211 176.62210083007812 138.69529724121094 176.17982482910156" stroke-width="3.0" fill="none" stroke="rgb(0, 0, 0)" stroke-opacity="1.0" stroke-linecap="round" stroke-linejoin="round"/>
    <path d="M 148.35690307617188 79.52848052978516 C 131.74864196777344 137.12905883789062 157.7136688232422 81.91100311279297 141.8339385986328 172.67848205566406" stroke-width="3.0" fill="none" stroke="rgb(0, 0, 0)" stroke-opacity="1.0" stroke-linecap="round" stroke-linejoin="round"/>
    <path d="M 112.39330291748047 167.20529174804688 C 96.50851440429688 167.20614624023438 89.0270004272461 153.40213012695312 125.908447265625 175.63963317871094" stroke-width="3.0" fill="none" stroke="rgb(0, 0, 0)" stroke-opacity="1.0" stroke-linecap="round" stroke-linejoin="round"/>
    <path d="M 88.40506744384766 150.8782196044922 C 71.82688903808594 164.2515411376953 130.3788299560547 134.90318298339844 75.4350357055664 102.09575653076172" stroke-width="3.0" fill="none" stroke="rgb(0, 0, 0)" stroke-opacity="1.0" stroke-linecap="round" stroke-linejoin="round"/>
    <path d="M 93.50039672851562 159.55642700195312 C 112.0569076538086 176.06985473632812 145.16259765625 166.7122344970703 86.74915313720703 169.14219665527344" stroke-width="3.0" fill="none" stroke="rgb(0, 0, 0)" stroke-opacity="1.0" stroke-linecap="round" stroke-linejoin="round"/>
    <path d="M 108.9359130859375 169.0347442626953 C 56.20702362060547 180.33485412597656 82.84273529052734 147.59251403808594 110.2890625 168.34979248046875" stroke-width="3.0" fill="none" stroke="rgb(0, 0, 0)" stroke-opacity="1.0" stroke-linecap="round" stroke-linejoin="round"/>
    <path d="M 118.14462280273438 79.4478759765625 C 108.97105407714844 100.77629852294922 152.03277587890625 101.30329895019531 115.15936279296875 78.11461639404297" stroke-width="3.0" fill="none" stroke="rgb(0, 0, 0)" stroke-opacity="1.0" stroke-linecap="round" stroke-linejoin="round"/>
    <path d="M 116.4738540649414 98.92740631103516 C 160.39903259277344 61.34756851196289 145.91502380371094 113.0599365234375 130.46119689941406 101.68896484375" stroke-width="3.0" fill="none" stroke="rgb(0, 0, 0)" stroke-opacity="1.0" stroke-linecap="round" stroke-linejoin="round"/>
  </g>
</svg>
