<?xml version="1.0" ?>
<svg xmlns="http://www.w3.org/2000/svg" version="1.1" width="224" height="224">
  <defs/>
  <g>
    <path d="M 78.68058013916016 168.7562255859375 C 121.5321273803711 170.78216552734375 84.81316375732422 190.86495971679688 100.07711791992188 128.09947204589844" stroke-width="3.0" fill="none" stroke="rgb(0, 0, 0)" stroke-opacity="1.0" stroke-linecap="round" stroke-linejoin="round"/>
    <path d="M 122.07740783691406 171.6735076904297 C 41.30208969116211 158.91259765625 86.79882049560547 184.96450805664062 122.79193115234375 164.93905639648438" stroke-width="3.0" fill="none" stroke="rgb(0, 0, 0)" stroke-opacity="1.0" stroke-linecap="round" stroke-linejoin="round"/>
    <path d="M 124.59860229492188 177.0717010498047 C 155.24200439453125 181.89439392089844 138.32763671875 172.3951416015625 143.30364990234375 163.83497619628906" stroke-width="3.0" fill="none" stroke="rgb(0, 0, 0)" stroke-opacity="1.0" stroke-linecap="round" stroke-linejoin="round"/>
    <path d="M 78.89350891113281 154.29347229003906 C 31.79472541809082 183.2970733642578 126.05342864990234 184.81423950195312 125.51258850097656 169.71923828125" stroke-width="3.0" fill="none" stroke="rgb(0, 0, 0)" stroke-opacity="1.0" stroke-linecap="round" stroke-linejoin="round"/>
    <path d="M 127.2004623413086 141.95071411132812 C 130.53712463378906 157.84213256835938 127.28717041015625 153.7383575439453 128.8424835205078 175.651123046875" stroke-width="3.0" fill="none" stroke="rgb(0, 0, 0)" stroke-opacity="1.0" stroke-linecap="round" stroke-linejoin="round"/>
    <path d="M 119.9147720336914 168.82302856445312 C 128.85028076171875 175.2659454345703 91.63123321533203 179.71109008789062 78.76829528808594 177.7765350341797" stroke-width="3.0" fill="none" stroke="rgb(0, 0, 0)" stroke-opacity="1.0" stroke-linecap="round" stroke-linejoin="round"/>
    <path d="M 142.7498779296875 166.21987915039062 C 156.70706176757812 163.10784912109375 148.9037322998047 154.6873016357422 146.76028442382812 136.54978942871094" stroke-width="3.0" fill="none" stroke="rgb(0, 0, 0)" stroke-opacity="1.0" stroke-linecap="round" stroke-linejoin="round"/>
    <path d="M 81.91294860839844 166.43829345703125 C 99.71388244628906 179.32830810546875 155.06788635253906 167.79010009765625 79.4227523803711 166.7480010986328" stroke-width="3.0" fill="none" stroke="rgb(0, 0, 0)" stroke-opacity="1.0" stroke-linecap="round" stroke-linejoin="round"/>
    <path d="M 134.6974639892578 173.53958129882812 C 141.3401336669922 182.82948303222656 127.5706787109375 175.78518676757812 141.81349182128906 175.78787231445312" stroke-width="3.0" fill="none" stroke="rgb(0, 0, 0)" stroke-opacity="1.0" stroke-linecap="round" stroke-linejoin="round"/>
    <path d="M 149.67803955078125 81.80815887451172 C 128.19151306152344 138.08871459960938 159.888671875 74.54531860351562 140.77479553222656 170.82484436035156" stroke-width="3.0" fill="none" stroke="rgb(0, 0, 0)" stroke-opacity="1.0" stroke-linecap="round" stroke-linejoin="round"/>
    <path d="M 113.3841781616211 166.98260498046875 C 97.64732360839844 165.0465850830078 89.11883544921875 149.96969604492188 125.90739440917969 176.1280517578125" stroke-width="3.0" fill="none" stroke="rgb(0, 0, 0)" stroke-opacity="1.0" stroke-linecap="round" stroke-linejoin="round"/>
    <path d="M 82.92996215820312 151.66738891601562 C 69.289794921875 159.60238647460938 134.39845275878906 134.82870483398438 73.87483978271484 99.58553314208984" stroke-width="3.0" fill="none" stroke="rgb(0, 0, 0)" stroke-opacity="1.0" stroke-linecap="round" stroke-linejoin="round"/>
    <path d="M 93.49524688720703 161.81231689453125 C 113.63046264648438 175.78439331054688 147.50775146484375 165.43968200683594 86.84473419189453 164.23208618164062" stroke-width="3.0" fill="none" stroke="rgb(0, 0, 0)" stroke-opacity="1.0" stroke-linecap="round" stroke-linejoin="round"/>
    <path d="M 107.05968475341797 167.78033447265625 C 52.7675895690918 181.8689727783203 81.732421875 151.97633361816406 113.16300201416016 168.68739318847656" stroke-width="3.0" fill="none" stroke="rgb(0, 0, 0)" stroke-opacity="1.0" stroke-linecap="round" stroke-linejoin="round"/>
    <path d="M 119.98059844970703 82.8841781616211 C 109.21224212646484 101.31734466552734 157.956298828125 104.6980972290039 118.01172637939453 81.1072998046875" stroke-width="3.0" fill="none" stroke="rgb(0, 0, 0)" stroke-opacity="1.0" stroke-linecap="round" stroke-linejoin="round"/>
    <path d="M 119.45613861083984 97.96958923339844 C 170.55958557128906 65.0737075805664 145.34100341796875 108.54159545898438 138.01528930664062 99.21228790283203" stroke-width="3.0" fill="none" stroke="rgb(0, 0, 0)" stroke-opacity="1.0" stroke-linecap="round" stroke-linejoin="round"/>
  </g>
</svg>
