<?xml version="1.0" ?>
<svg xmlns="http://www.w3.org/2000/svg" version="1.1" width="224" height="224">
  <defs/>
  <g>
    <path d="M 76.11180877685547 164.4013214111328 C 112.94123840332031 150.7906494140625 98.74845123291016 181.8746795654297 99.20735168457031 144.5738067626953" stroke-width="3.0" fill="none" stroke="rgb(0, 0, 0)" stroke-opacity="1.0" stroke-linecap="round" stroke-linejoin="round"/>
    <path d="M 116.74626922607422 162.6906280517578 C 32.95140075683594 150.98194885253906 76.57940673828125 188.1119384765625 125.98545837402344 172.53158569335938" stroke-width="3.0" fill="none" stroke="rgb(0, 0, 0)" stroke-opacity="1.0" stroke-linecap="round" stroke-linejoin="round"/>
    <path d="M 129.6785430908203 177.72962951660156 C 152.3690948486328 180.05699157714844 138.52874755859375 169.37564086914062 140.96212768554688 170.5775604248047" stroke-width="3.0" fill="none" stroke="rgb(0, 0, 0)" stroke-opacity="1.0" stroke-linecap="round" stroke-linejoin="round"/>
    <path d="M 61.983638763427734 166.58203125 C 63.686832427978516 180.17141723632812 109.7683334350586 176.12005615234375 86.4686508178711 175.1481170654297" stroke-width="3.0" fill="none" stroke="rgb(0, 0, 0)" stroke-opacity="1.0" stroke-linecap="round" stroke-linejoin="round"/>
    <path d="M 128.2582244873047 139.27471923828125 C 124.91044616699219 148.47756958007812 133.9063720703125 147.87985229492188 131.49864196777344 179.26611328125" stroke-width="3.0" fill="none" stroke="rgb(0, 0, 0)" stroke-opacity="1.0" stroke-linecap="round" stroke-linejoin="round"/>
    <path d="M 119.8521499633789 166.29013061523438 C 120.34552001953125 161.8319549560547 96.5599136352539 169.92218017578125 78.34789276123047 166.38778686523438" stroke-width="3.0" fill="none" stroke="rgb(0, 0, 0)" stroke-opacity="1.0" stroke-linecap="round" stroke-linejoin="round"/>
    <path d="M 145.2896728515625 164.02146911621094 C 154.63006591796875 159.23684692382812 150.20404052734375 158.04144287109375 144.737060546875 138.04869079589844" stroke-width="3.0" fill="none" stroke="rgb(0, 0, 0)" stroke-opacity="1.0" stroke-linecap="round" stroke-linejoin="round"/>
    <path d="M 73.18732452392578 165.73696899414062 C 91.59803009033203 177.3836669921875 150.50924682617188 163.1039581298828 89.83379364013672 165.47317504882812" stroke-width="3.0" fill="none" stroke="rgb(0, 0, 0)" stroke-opacity="1.0" stroke-linecap="round" stroke-linejoin="round"/>
    <path d="M 137.8914794921875 172.07701110839844 C 145.5813446044922 185.6182861328125 112.51753997802734 176.2501220703125 130.28817749023438 177.35931396484375" stroke-width="3.0" fill="none" stroke="rgb(0, 0, 0)" stroke-opacity="1.0" stroke-linecap="round" stroke-linejoin="round"/>
    <path d="M 145.42361450195312 102.19583892822266 C 131.90150451660156 119.97915649414062 156.6506805419922 92.42181396484375 141.61241149902344 168.4205780029297" stroke-width="3.0" fill="none" stroke="rgb(0, 0, 0)" stroke-opacity="1.0" stroke-linecap="round" stroke-linejoin="round"/>
    <path d="M 107.66253662109375 166.8299560546875 C 118.1589126586914 125.45712280273438 115.74006652832031 121.8724365234375 123.2977294921875 176.64247131347656" stroke-width="3.0" fill="none" stroke="rgb(0, 0, 0)" stroke-opacity="1.0" stroke-linecap="round" stroke-linejoin="round"/>
    <path d="M 63.74752426147461 164.9197235107422 C 72.35008239746094 143.55613708496094 130.37380981445312 168.08460998535156 78.07381439208984 98.6727523803711" stroke-width="3.0" fill="none" stroke="rgb(0, 0, 0)" stroke-opacity="1.0" stroke-linecap="round" stroke-linejoin="round"/>
    <path d="M 75.82637786865234 164.72593688964844 C 94.46746063232422 151.61749267578125 109.83638000488281 163.3628387451172 82.79081726074219 169.29241943359375" stroke-width="3.0" fill="none" stroke="rgb(0, 0, 0)" stroke-opacity="1.0" stroke-linecap="round" stroke-linejoin="round"/>
    <path d="M 117.27171325683594 168.59754943847656 C 74.19412994384766 163.12625122070312 85.82270812988281 154.9820556640625 110.61988067626953 151.1263885498047" stroke-width="3.0" fill="none" stroke="rgb(0, 0, 0)" stroke-opacity="1.0" stroke-linecap="round" stroke-linejoin="round"/>
    <path d="M 120.5234146118164 94.60127258300781 C 112.71598052978516 102.7662124633789 139.7561492919922 103.58382415771484 118.05535125732422 90.82294464111328" stroke-width="3.0" fill="none" stroke="rgb(0, 0, 0)" stroke-opacity="1.0" stroke-linecap="round" stroke-linejoin="round"/>
    <path d="M 132.19534301757812 96.45885467529297 C 156.17404174804688 81.75440216064453 135.7722930908203 106.29837036132812 136.86402893066406 94.20953369140625" stroke-width="3.0" fill="none" stroke="rgb(0, 0, 0)" stroke-opacity="1.0" stroke-linecap="round" stroke-linejoin="round"/>
  </g>
</svg>
