<?xml version="1.0" ?>
<svg xmlns="http://www.w3.org/2000/svg" version="1.1" width="224" height="224">
  <defs/>
  <g>
    <path d="M 96.26133728027344 162.21182250976562 C 106.1657943725586 168.27655029296875 94.09172058105469 184.59373474121094 97.69549560546875 142.19918823242188" stroke-width="3.0" fill="none" stroke="rgb(0, 0, 0)" stroke-opacity="1.0" stroke-linecap="round" stroke-linejoin="round"/>
    <path d="M 94.4376449584961 164.08753967285156 C 72.05889129638672 169.72412109375 74.65929412841797 185.7498321533203 124.47461700439453 172.00177001953125" stroke-width="3.0" fill="none" stroke="rgb(0, 0, 0)" stroke-opacity="1.0" stroke-linecap="round" stroke-linejoin="round"/>
    <path d="M 130.9871368408203 179.95782470703125 C 158.00155639648438 174.99830627441406 129.12942504882812 178.02867126464844 137.0526885986328 162.5797576904297" stroke-width="3.0" fill="none" stroke="rgb(0, 0, 0)" stroke-opacity="1.0" stroke-linecap="round" stroke-linejoin="round"/>
    <path d="M 66.92236328125 166.09521484375 C 70.75996398925781 181.32952880859375 102.44175720214844 174.87692260742188 90.27992248535156 175.11264038085938" stroke-width="3.0" fill="none" stroke="rgb(0, 0, 0)" stroke-opacity="1.0" stroke-linecap="round" stroke-linejoin="round"/>
    <path d="M 136.13729858398438 140.60824584960938 C 132.91195678710938 155.61109924316406 133.28701782226562 140.98704528808594 132.40234375 168.39825439453125" stroke-width="3.0" fill="none" stroke="rgb(0, 0, 0)" stroke-opacity="1.0" stroke-linecap="round" stroke-linejoin="round"/>
    <path d="M 105.46156311035156 159.646484375 C 111.67454528808594 167.87167358398438 89.08165740966797 174.5839080810547 74.02415466308594 169.21017456054688" stroke-width="3.0" fill="none" stroke="rgb(0, 0, 0)" stroke-opacity="1.0" stroke-linecap="round" stroke-linejoin="round"/>
    <path d="M 144.53689575195312 170.90696716308594 C 150.00042724609375 164.157958984375 145.73007202148438 161.8517608642578 146.9822540283203 160.41961669921875" stroke-width="3.0" fill="none" stroke="rgb(0, 0, 0)" stroke-opacity="1.0" stroke-linecap="round" stroke-linejoin="round"/>
    <path d="M 70.15472412109375 165.93943786621094 C 82.62863159179688 186.6005096435547 145.74368286132812 171.16384887695312 110.81304931640625 167.74722290039062" stroke-width="3.0" fill="none" stroke="rgb(0, 0, 0)" stroke-opacity="1.0" stroke-linecap="round" stroke-linejoin="round"/>
    <path d="M 132.37353515625 169.1752471923828 C 128.97763061523438 192.44485473632812 124.19889068603516 172.16458129882812 135.17233276367188 176.64373779296875" stroke-width="3.0" fill="none" stroke="rgb(0, 0, 0)" stroke-opacity="1.0" stroke-linecap="round" stroke-linejoin="round"/>
    <path d="M 148.14865112304688 104.6861572265625 C 129.6653289794922 123.88285064697266 158.19134521484375 98.66873931884766 146.52911376953125 161.4390869140625" stroke-width="3.0" fill="none" stroke="rgb(0, 0, 0)" stroke-opacity="1.0" stroke-linecap="round" stroke-linejoin="round"/>
    <path d="M 110.42615509033203 171.22372436523438 C 118.57567596435547 112.4559555053711 119.01690673828125 109.78009033203125 126.17145538330078 177.5914306640625" stroke-width="3.0" fill="none" stroke="rgb(0, 0, 0)" stroke-opacity="1.0" stroke-linecap="round" stroke-linejoin="round"/>
    <path d="M 68.03512573242188 166.072509765625 C 74.30847930908203 137.6719207763672 126.1462631225586 167.15635681152344 78.07798767089844 98.45540618896484" stroke-width="3.0" fill="none" stroke="rgb(0, 0, 0)" stroke-opacity="1.0" stroke-linecap="round" stroke-linejoin="round"/>
    <path d="M 84.62040710449219 165.97886657714844 C 106.69780731201172 171.66311645507812 110.05854034423828 156.69729614257812 83.94459533691406 164.24977111816406" stroke-width="3.0" fill="none" stroke="rgb(0, 0, 0)" stroke-opacity="1.0" stroke-linecap="round" stroke-linejoin="round"/>
    <path d="M 92.2789306640625 164.98414611816406 C 86.72908020019531 160.52252197265625 104.1571044921875 154.6251220703125 112.45709228515625 169.4302520751953" stroke-width="3.0" fill="none" stroke="rgb(0, 0, 0)" stroke-opacity="1.0" stroke-linecap="round" stroke-linejoin="round"/>
    <path d="M 119.8453140258789 83.10306549072266 C 118.78631591796875 94.6347885131836 141.54449462890625 92.59110260009766 118.61341094970703 82.25542449951172" stroke-width="3.0" fill="none" stroke="rgb(0, 0, 0)" stroke-opacity="1.0" stroke-linecap="round" stroke-linejoin="round"/>
    <path d="M 134.9969940185547 94.8514633178711 C 146.8331298828125 79.3953628540039 146.31118774414062 104.57057189941406 138.64027404785156 92.05342102050781" stroke-width="3.0" fill="none" stroke="rgb(0, 0, 0)" stroke-opacity="1.0" stroke-linecap="round" stroke-linejoin="round"/>
  </g>
</svg>
