<?xml version="1.0" ?>
<svg xmlns="http://www.w3.org/2000/svg" version="1.1" width="224" height="224">
  <defs/>
  <g>
    <path d="M 93.86675262451172 160.13308715820312 C 108.66725158691406 162.65040588378906 95.08329772949219 175.46876525878906 99.39179992675781 142.91246032714844" stroke-width="3.0" fill="none" stroke="rgb(0, 0, 0)" stroke-opacity="1.0" stroke-linecap="round" stroke-linejoin="round"/>
    <path d="M 100.73249053955078 162.49758911132812 C 48.884033203125 158.17269897460938 75.23383331298828 185.50880432128906 122.04972076416016 171.32444763183594" stroke-width="3.0" fill="none" stroke="rgb(0, 0, 0)" stroke-opacity="1.0" stroke-linecap="round" stroke-linejoin="round"/>
    <path d="M 127.62770080566406 177.08413696289062 C 154.2026824951172 180.59640502929688 142.9072265625 169.65399169921875 143.77755737304688 170.89703369140625" stroke-width="3.0" fill="none" stroke="rgb(0, 0, 0)" stroke-opacity="1.0" stroke-linecap="round" stroke-linejoin="round"/>
    <path d="M 66.2712631225586 165.15614318847656 C 65.65089416503906 175.85400390625 108.57637786865234 172.11106872558594 92.98194885253906 169.28546142578125" stroke-width="3.0" fill="none" stroke="rgb(0, 0, 0)" stroke-opacity="1.0" stroke-linecap="round" stroke-linejoin="round"/>
    <path d="M 132.9871826171875 141.0249786376953 C 127.35698699951172 147.25192260742188 135.5110321044922 145.37579345703125 131.07447814941406 173.8250274658203" stroke-width="3.0" fill="none" stroke="rgb(0, 0, 0)" stroke-opacity="1.0" stroke-linecap="round" stroke-linejoin="round"/>
    <path d="M 117.31565856933594 164.3933563232422 C 119.5500259399414 161.84506225585938 93.02921295166016 165.25306701660156 74.69869995117188 163.87313842773438" stroke-width="3.0" fill="none" stroke="rgb(0, 0, 0)" stroke-opacity="1.0" stroke-linecap="round" stroke-linejoin="round"/>
    <path d="M 145.72023010253906 167.4705352783203 C 156.52166748046875 161.147705078125 153.51519775390625 157.54124450683594 146.5215301513672 136.9380645751953" stroke-width="3.0" fill="none" stroke="rgb(0, 0, 0)" stroke-opacity="1.0" stroke-linecap="round" stroke-linejoin="round"/>
    <path d="M 72.64885711669922 164.4082794189453 C 85.09123992919922 176.93992614746094 146.29751586914062 163.51560974121094 109.00511932373047 164.42431640625" stroke-width="3.0" fill="none" stroke="rgb(0, 0, 0)" stroke-opacity="1.0" stroke-linecap="round" stroke-linejoin="round"/>
    <path d="M 133.65182495117188 169.44317626953125 C 142.1106719970703 183.8203887939453 115.00267028808594 171.6174774169922 129.520263671875 175.69900512695312" stroke-width="3.0" fill="none" stroke="rgb(0, 0, 0)" stroke-opacity="1.0" stroke-linecap="round" stroke-linejoin="round"/>
    <path d="M 144.1674041748047 97.22747039794922 C 132.19190979003906 123.71453094482422 161.43594360351562 99.3498764038086 141.8161163330078 166.54766845703125" stroke-width="3.0" fill="none" stroke="rgb(0, 0, 0)" stroke-opacity="1.0" stroke-linecap="round" stroke-linejoin="round"/>
    <path d="M 108.43524169921875 168.67710876464844 C 123.92552947998047 111.54297637939453 116.12031555175781 108.0174560546875 126.74200439453125 174.91419982910156" stroke-width="3.0" fill="none" stroke="rgb(0, 0, 0)" stroke-opacity="1.0" stroke-linecap="round" stroke-linejoin="round"/>
    <path d="M 66.33209228515625 165.98355102539062 C 72.86885833740234 144.79225158691406 128.0242156982422 170.66221618652344 76.51538848876953 98.92391204833984" stroke-width="3.0" fill="none" stroke="rgb(0, 0, 0)" stroke-opacity="1.0" stroke-linecap="round" stroke-linejoin="round"/>
    <path d="M 82.0677490234375 161.6311798095703 C 105.4255142211914 161.43905639648438 110.37110137939453 148.61935424804688 70.99478912353516 165.61204528808594" stroke-width="3.0" fill="none" stroke="rgb(0, 0, 0)" stroke-opacity="1.0" stroke-linecap="round" stroke-linejoin="round"/>
    <path d="M 104.8793716430664 157.66693115234375 C 82.15983581542969 161.00015258789062 96.50806427001953 159.84620666503906 121.51095581054688 163.4731903076172" stroke-width="3.0" fill="none" stroke="rgb(0, 0, 0)" stroke-opacity="1.0" stroke-linecap="round" stroke-linejoin="round"/>
    <path d="M 118.21504211425781 84.69961547851562 C 115.33106994628906 100.29708862304688 138.47889709472656 97.41407012939453 115.84938049316406 82.52650451660156" stroke-width="3.0" fill="none" stroke="rgb(0, 0, 0)" stroke-opacity="1.0" stroke-linecap="round" stroke-linejoin="round"/>
    <path d="M 130.72821044921875 94.34894561767578 C 148.79652404785156 83.31275177001953 131.3936767578125 106.58964538574219 133.42132568359375 93.4903335571289" stroke-width="3.0" fill="none" stroke="rgb(0, 0, 0)" stroke-opacity="1.0" stroke-linecap="round" stroke-linejoin="round"/>
  </g>
</svg>
