<?xml version="1.0" ?>
<svg xmlns="http://www.w3.org/2000/svg" version="1.1" width="224" height="224">
  <defs/>
  <g>
    <path d="M 76.51751708984375 163.013427734375 C 143.9541473388672 164.9213409423828 101.30101013183594 167.9042205810547 118.0694351196289 144.55154418945312" stroke-width="3.0" fill="none" stroke="rgb(0, 0, 0)" stroke-opacity="1.0" stroke-linecap="round" stroke-linejoin="round"/>
    <path d="M 117.60851287841797 168.56776428222656 C 39.35792541503906 156.44534301757812 87.07140350341797 181.76803588867188 118.00697326660156 168.12359619140625" stroke-width="3.0" fill="none" stroke="rgb(0, 0, 0)" stroke-opacity="1.0" stroke-linecap="round" stroke-linejoin="round"/>
    <path d="M 125.49783325195312 178.4924774169922 C 159.03623962402344 180.43939208984375 143.81353759765625 175.8358154296875 142.94122314453125 165.66998291015625" stroke-width="3.0" fill="none" stroke="rgb(0, 0, 0)" stroke-opacity="1.0" stroke-linecap="round" stroke-linejoin="round"/>
    <path d="M 94.7594223022461 148.57676696777344 C 14.824603080749512 172.78085327148438 120.74302673339844 193.14747619628906 120.94662475585938 170.17642211914062" stroke-width="3.0" fill="none" stroke="rgb(0, 0, 0)" stroke-opacity="1.0" stroke-linecap="round" stroke-linejoin="round"/>
    <path d="M 129.32359313964844 141.65447998046875 C 133.0811767578125 163.7762908935547 130.20156860351562 153.62062072753906 130.3407745361328 176.5236053466797" stroke-width="3.0" fill="none" stroke="rgb(0, 0, 0)" stroke-opacity="1.0" stroke-linecap="round" stroke-linejoin="round"/>
    <path d="M 119.1509017944336 174.93234252929688 C 128.27935791015625 174.6555633544922 103.40576171875 185.07606506347656 81.73773956298828 178.36709594726562" stroke-width="3.0" fill="none" stroke="rgb(0, 0, 0)" stroke-opacity="1.0" stroke-linecap="round" stroke-linejoin="round"/>
    <path d="M 147.6609344482422 161.26820373535156 C 153.9033660888672 156.41571044921875 148.8187255859375 152.05233764648438 146.63404846191406 139.6405792236328" stroke-width="3.0" fill="none" stroke="rgb(0, 0, 0)" stroke-opacity="1.0" stroke-linecap="round" stroke-linejoin="round"/>
    <path d="M 74.1734848022461 165.52169799804688 C 90.5594711303711 174.51905822753906 141.99798583984375 165.1864776611328 81.6047134399414 161.6626434326172" stroke-width="3.0" fill="none" stroke="rgb(0, 0, 0)" stroke-opacity="1.0" stroke-linecap="round" stroke-linejoin="round"/>
    <path d="M 126.1356430053711 179.1064453125 C 120.03899383544922 179.02565002441406 113.68309783935547 163.38571166992188 116.31348419189453 172.68441772460938" stroke-width="3.0" fill="none" stroke="rgb(0, 0, 0)" stroke-opacity="1.0" stroke-linecap="round" stroke-linejoin="round"/>
    <path d="M 149.47718811035156 81.8564453125 C 124.15975952148438 136.1576385498047 162.58131408691406 75.50577545166016 140.03704833984375 177.8202667236328" stroke-width="3.0" fill="none" stroke="rgb(0, 0, 0)" stroke-opacity="1.0" stroke-linecap="round" stroke-linejoin="round"/>
    <path d="M 110.97168731689453 165.916015625 C 96.58623504638672 179.4163818359375 98.8777084350586 149.78334045410156 122.59971618652344 168.08560180664062" stroke-width="3.0" fill="none" stroke="rgb(0, 0, 0)" stroke-opacity="1.0" stroke-linecap="round" stroke-linejoin="round"/>
    <path d="M 95.64936828613281 154.36648559570312 C 96.95154571533203 194.7566375732422 106.6099853515625 76.5877685546875 70.86760711669922 102.34599304199219" stroke-width="3.0" fill="none" stroke="rgb(0, 0, 0)" stroke-opacity="1.0" stroke-linecap="round" stroke-linejoin="round"/>
    <path d="M 88.86268615722656 159.67568969726562 C 118.60319519042969 167.34193420410156 148.57786560058594 170.14540100097656 84.98433685302734 165.78396606445312" stroke-width="3.0" fill="none" stroke="rgb(0, 0, 0)" stroke-opacity="1.0" stroke-linecap="round" stroke-linejoin="round"/>
    <path d="M 114.27964782714844 163.1306610107422 C 40.585182189941406 178.4354248046875 99.757080078125 143.34616088867188 104.04899597167969 166.6069793701172" stroke-width="3.0" fill="none" stroke="rgb(0, 0, 0)" stroke-opacity="1.0" stroke-linecap="round" stroke-linejoin="round"/>
    <path d="M 117.00945281982422 81.21804809570312 C 108.40266418457031 104.81587982177734 163.2630615234375 105.84281158447266 114.92208099365234 80.98670196533203" stroke-width="3.0" fill="none" stroke="rgb(0, 0, 0)" stroke-opacity="1.0" stroke-linecap="round" stroke-linejoin="round"/>
    <path d="M 118.33158111572266 98.19293212890625 C 145.92466735839844 70.41121673583984 163.97909545898438 106.21708679199219 123.4241943359375 102.63099670410156" stroke-width="3.0" fill="none" stroke="rgb(0, 0, 0)" stroke-opacity="1.0" stroke-linecap="round" stroke-linejoin="round"/>
  </g>
</svg>
