<?xml version="1.0" ?>
<svg xmlns="http://www.w3.org/2000/svg" version="1.1" width="224" height="224">
  <defs/>
  <g>
    <path d="M 79.54178619384766 166.29556274414062 C 119.88850402832031 161.361083984375 84.35169219970703 190.95285034179688 99.33358001708984 141.37551879882812" stroke-width="3.0" fill="none" stroke="rgb(0, 0, 0)" stroke-opacity="1.0" stroke-linecap="round" stroke-linejoin="round"/>
    <path d="M 117.68446350097656 170.95863342285156 C 40.37778854370117 158.0723419189453 89.85649871826172 182.67173767089844 123.0356674194336 167.77267456054688" stroke-width="3.0" fill="none" stroke="rgb(0, 0, 0)" stroke-opacity="1.0" stroke-linecap="round" stroke-linejoin="round"/>
    <path d="M 123.347900390625 178.7427215576172 C 154.1533966064453 181.2340850830078 144.15576171875 172.20285034179688 141.64735412597656 171.2923583984375" stroke-width="3.0" fill="none" stroke="rgb(0, 0, 0)" stroke-opacity="1.0" stroke-linecap="round" stroke-linejoin="round"/>
    <path d="M 87.27318572998047 154.63421630859375 C 21.315229415893555 175.5120086669922 123.04924774169922 186.42588806152344 120.66840362548828 169.1529083251953" stroke-width="3.0" fill="none" stroke="rgb(0, 0, 0)" stroke-opacity="1.0" stroke-linecap="round" stroke-linejoin="round"/>
    <path d="M 128.79061889648438 138.936767578125 C 132.96258544921875 152.4073028564453 130.14988708496094 151.75137329101562 130.09889221191406 177.6014404296875" stroke-width="3.0" fill="none" stroke="rgb(0, 0, 0)" stroke-opacity="1.0" stroke-linecap="round" stroke-linejoin="round"/>
    <path d="M 119.20822143554688 173.7039794921875 C 130.42831420898438 176.37213134765625 92.04883575439453 185.52902221679688 80.60330200195312 176.3173065185547" stroke-width="3.0" fill="none" stroke="rgb(0, 0, 0)" stroke-opacity="1.0" stroke-linecap="round" stroke-linejoin="round"/>
    <path d="M 145.37246704101562 167.12646484375 C 154.01292419433594 159.3702850341797 151.36221313476562 156.02439880371094 145.5908660888672 132.87046813964844" stroke-width="3.0" fill="none" stroke="rgb(0, 0, 0)" stroke-opacity="1.0" stroke-linecap="round" stroke-linejoin="round"/>
    <path d="M 81.84651184082031 167.04820251464844 C 94.58356475830078 177.0034637451172 148.49290466308594 166.349365234375 81.81818389892578 164.046142578125" stroke-width="3.0" fill="none" stroke="rgb(0, 0, 0)" stroke-opacity="1.0" stroke-linecap="round" stroke-linejoin="round"/>
    <path d="M 131.8400115966797 172.4326171875 C 137.42538452148438 181.05447387695312 128.05996704101562 175.76950073242188 135.02964782714844 176.47262573242188" stroke-width="3.0" fill="none" stroke="rgb(0, 0, 0)" stroke-opacity="1.0" stroke-linecap="round" stroke-linejoin="round"/>
    <path d="M 149.5220184326172 80.02873992919922 C 131.9086456298828 134.8706512451172 158.65399169921875 80.96514129638672 139.78347778320312 174.80007934570312" stroke-width="3.0" fill="none" stroke="rgb(0, 0, 0)" stroke-opacity="1.0" stroke-linecap="round" stroke-linejoin="round"/>
    <path d="M 111.69061279296875 170.03604125976562 C 96.00818634033203 167.71424865722656 89.4308090209961 152.17503356933594 125.13275909423828 177.35443115234375" stroke-width="3.0" fill="none" stroke="rgb(0, 0, 0)" stroke-opacity="1.0" stroke-linecap="round" stroke-linejoin="round"/>
    <path d="M 95.97332763671875 157.20387268066406 C 76.11471557617188 173.8114471435547 126.35663604736328 130.52967834472656 75.76170349121094 102.8968505859375" stroke-width="3.0" fill="none" stroke="rgb(0, 0, 0)" stroke-opacity="1.0" stroke-linecap="round" stroke-linejoin="round"/>
    <path d="M 94.0155029296875 158.14169311523438 C 111.10388946533203 174.99002075195312 145.56707763671875 164.8892059326172 87.00133514404297 169.76519775390625" stroke-width="3.0" fill="none" stroke="rgb(0, 0, 0)" stroke-opacity="1.0" stroke-linecap="round" stroke-linejoin="round"/>
    <path d="M 107.94060516357422 166.773193359375 C 50.936065673828125 178.7521209716797 83.09524536132812 149.3131866455078 114.72513580322266 166.8895263671875" stroke-width="3.0" fill="none" stroke="rgb(0, 0, 0)" stroke-opacity="1.0" stroke-linecap="round" stroke-linejoin="round"/>
    <path d="M 117.13684844970703 83.57028198242188 C 110.71198272705078 106.82614135742188 148.05023193359375 108.54475402832031 115.02534484863281 80.5488510131836" stroke-width="3.0" fill="none" stroke="rgb(0, 0, 0)" stroke-opacity="1.0" stroke-linecap="round" stroke-linejoin="round"/>
    <path d="M 117.4093246459961 100.98353576660156 C 160.2408447265625 62.203033447265625 151.68238830566406 112.48094177246094 132.88453674316406 102.90282440185547" stroke-width="3.0" fill="none" stroke="rgb(0, 0, 0)" stroke-opacity="1.0" stroke-linecap="round" stroke-linejoin="round"/>
  </g>
</svg>
