<?xml version="1.0" ?>
<svg xmlns="http://www.w3.org/2000/svg" version="1.1" width="224" height="224">
  <defs/>
  <g>
    <path d="M 73.83341979980469 161.60580444335938 C 111.57562255859375 151.92962646484375 86.00936889648438 187.3505401611328 97.100341796875 142.6004638671875" stroke-width="3.0" fill="none" stroke="rgb(0, 0, 0)" stroke-opacity="1.0" stroke-linecap="round" stroke-linejoin="round"/>
    <path d="M 116.553466796875 161.27352905273438 C 35.05989456176758 151.36871337890625 78.59190368652344 188.97540283203125 122.108642578125 169.39891052246094" stroke-width="3.0" fill="none" stroke="rgb(0, 0, 0)" stroke-opacity="1.0" stroke-linecap="round" stroke-linejoin="round"/>
    <path d="M 130.51502990722656 176.40969848632812 C 152.3554229736328 179.44482421875 137.2213134765625 169.25570678710938 139.42886352539062 169.70338439941406" stroke-width="3.0" fill="none" stroke="rgb(0, 0, 0)" stroke-opacity="1.0" stroke-linecap="round" stroke-linejoin="round"/>
    <path d="M 64.76931762695312 165.34475708007812 C 65.98096466064453 180.04486083984375 109.26696014404297 177.09072875976562 87.2142562866211 176.29644775390625" stroke-width="3.0" fill="none" stroke="rgb(0, 0, 0)" stroke-opacity="1.0" stroke-linecap="round" stroke-linejoin="round"/>
    <path d="M 129.74563598632812 142.5236358642578 C 123.8509292602539 155.75267028808594 131.41357421875 145.6173095703125 127.86223602294922 173.84722900390625" stroke-width="3.0" fill="none" stroke="rgb(0, 0, 0)" stroke-opacity="1.0" stroke-linecap="round" stroke-linejoin="round"/>
    <path d="M 122.4568099975586 171.52700805664062 C 118.23075103759766 155.45127868652344 94.29534912109375 165.8494415283203 78.0056381225586 166.49072265625" stroke-width="3.0" fill="none" stroke="rgb(0, 0, 0)" stroke-opacity="1.0" stroke-linecap="round" stroke-linejoin="round"/>
    <path d="M 146.66165161132812 166.33181762695312 C 160.8216552734375 158.44039916992188 146.81451416015625 153.18795776367188 144.83384704589844 137.50474548339844" stroke-width="3.0" fill="none" stroke="rgb(0, 0, 0)" stroke-opacity="1.0" stroke-linecap="round" stroke-linejoin="round"/>
    <path d="M 73.59233093261719 164.8931121826172 C 89.75517272949219 178.72775268554688 148.70574951171875 163.84530639648438 90.46434783935547 165.4918975830078" stroke-width="3.0" fill="none" stroke="rgb(0, 0, 0)" stroke-opacity="1.0" stroke-linecap="round" stroke-linejoin="round"/>
    <path d="M 132.60684204101562 169.43466186523438 C 146.63169860839844 177.63836669921875 109.22569274902344 175.46914672851562 129.8910369873047 177.95103454589844" stroke-width="3.0" fill="none" stroke="rgb(0, 0, 0)" stroke-opacity="1.0" stroke-linecap="round" stroke-linejoin="round"/>
    <path d="M 143.2270050048828 106.02088165283203 C 128.80599975585938 125.26885986328125 155.55221557617188 95.22870635986328 137.7616424560547 172.11732482910156" stroke-width="3.0" fill="none" stroke="rgb(0, 0, 0)" stroke-opacity="1.0" stroke-linecap="round" stroke-linejoin="round"/>
    <path d="M 109.8564682006836 168.55935668945312 C 117.88250732421875 135.3107452392578 106.97024536132812 135.3565216064453 120.20146179199219 173.42025756835938" stroke-width="3.0" fill="none" stroke="rgb(0, 0, 0)" stroke-opacity="1.0" stroke-linecap="round" stroke-linejoin="round"/>
    <path d="M 64.62948608398438 166.50025939941406 C 66.8008804321289 147.96238708496094 128.05181884765625 161.61483764648438 75.94572448730469 99.66613006591797" stroke-width="3.0" fill="none" stroke="rgb(0, 0, 0)" stroke-opacity="1.0" stroke-linecap="round" stroke-linejoin="round"/>
    <path d="M 76.10877227783203 165.4105224609375 C 98.91498565673828 160.2014617919922 113.65782928466797 173.3775634765625 84.00506591796875 167.53700256347656" stroke-width="3.0" fill="none" stroke="rgb(0, 0, 0)" stroke-opacity="1.0" stroke-linecap="round" stroke-linejoin="round"/>
    <path d="M 112.43184661865234 167.26251220703125 C 61.90559387207031 171.64553833007812 74.47044372558594 153.59481811523438 106.8052978515625 156.81332397460938" stroke-width="3.0" fill="none" stroke="rgb(0, 0, 0)" stroke-opacity="1.0" stroke-linecap="round" stroke-linejoin="round"/>
    <path d="M 113.8907470703125 89.46553802490234 C 110.44569396972656 106.90438842773438 146.68930053710938 102.01714324951172 112.78944396972656 86.0215072631836" stroke-width="3.0" fill="none" stroke="rgb(0, 0, 0)" stroke-opacity="1.0" stroke-linecap="round" stroke-linejoin="round"/>
    <path d="M 132.29562377929688 98.69393157958984 C 154.279541015625 85.04220581054688 135.79725646972656 107.83319854736328 139.6262664794922 98.14604949951172" stroke-width="3.0" fill="none" stroke="rgb(0, 0, 0)" stroke-opacity="1.0" stroke-linecap="round" stroke-linejoin="round"/>
  </g>
</svg>
