<?xml version="1.0" ?>
<svg xmlns="http://www.w3.org/2000/svg" version="1.1" width="224" height="224">
  <defs/>
  <g>
    <path d="M 83.32091522216797 165.60052490234375 C 97.54313659667969 175.18984985351562 90.17521667480469 171.01280212402344 87.34127044677734 159.11146545410156" stroke-width="3.0" fill="none" stroke="rgb(0, 0, 0)" stroke-opacity="1.0" stroke-linecap="round" stroke-linejoin="round"/>
    <path d="M 91.40662384033203 171.02105712890625 C 86.62518310546875 171.07223510742188 83.85598754882812 175.86924743652344 109.83755493164062 176.4610595703125" stroke-width="3.0" fill="none" stroke="rgb(0, 0, 0)" stroke-opacity="1.0" stroke-linecap="round" stroke-linejoin="round"/>
    <path d="M 140.87416076660156 170.50003051757812 C 159.15284729003906 171.68472290039062 147.89495849609375 163.60372924804688 148.68734741210938 158.0616455078125" stroke-width="3.0" fill="none" stroke="rgb(0, 0, 0)" stroke-opacity="1.0" stroke-linecap="round" stroke-linejoin="round"/>
    <path d="M 68.47439575195312 165.039306640625 C 83.14855194091797 180.18624877929688 91.65064239501953 173.60035705566406 81.34505462646484 174.3083038330078" stroke-width="3.0" fill="none" stroke="rgb(0, 0, 0)" stroke-opacity="1.0" stroke-linecap="round" stroke-linejoin="round"/>
    <path d="M 140.2556610107422 149.48904418945312 C 139.04454040527344 151.54202270507812 141.5296630859375 137.23828125 135.84747314453125 166.1195831298828" stroke-width="3.0" fill="none" stroke="rgb(0, 0, 0)" stroke-opacity="1.0" stroke-linecap="round" stroke-linejoin="round"/>
    <path d="M 100.9887924194336 164.6007080078125 C 110.22879791259766 179.8178253173828 93.35919189453125 177.0582733154297 74.74874877929688 169.63233947753906" stroke-width="3.0" fill="none" stroke="rgb(0, 0, 0)" stroke-opacity="1.0" stroke-linecap="round" stroke-linejoin="round"/>
    <path d="M 149.23956298828125 152.74110412597656 C 149.81246948242188 145.13119506835938 150.9251251220703 133.71253967285156 149.0557861328125 161.3266143798828" stroke-width="3.0" fill="none" stroke="rgb(0, 0, 0)" stroke-opacity="1.0" stroke-linecap="round" stroke-linejoin="round"/>
    <path d="M 75.56083679199219 164.1225128173828 C 88.58887481689453 175.96578979492188 98.71827697753906 176.9263916015625 88.3256607055664 164.68423461914062" stroke-width="3.0" fill="none" stroke="rgb(0, 0, 0)" stroke-opacity="1.0" stroke-linecap="round" stroke-linejoin="round"/>
    <path d="M 138.07647705078125 158.6766357421875 C 121.64973449707031 187.60011291503906 126.48103332519531 185.8563690185547 130.7934112548828 186.28565979003906" stroke-width="3.0" fill="none" stroke="rgb(0, 0, 0)" stroke-opacity="1.0" stroke-linecap="round" stroke-linejoin="round"/>
    <path d="M 148.5800323486328 114.99374389648438 C 146.13687133789062 143.3016815185547 146.61160278320312 120.78746795654297 149.5949249267578 142.0108642578125" stroke-width="3.0" fill="none" stroke="rgb(0, 0, 0)" stroke-opacity="1.0" stroke-linecap="round" stroke-linejoin="round"/>
    <path d="M 101.04399108886719 164.44528198242188 C 109.41585540771484 151.6800994873047 121.1224136352539 149.762939453125 115.97782897949219 182.35374450683594" stroke-width="3.0" fill="none" stroke="rgb(0, 0, 0)" stroke-opacity="1.0" stroke-linecap="round" stroke-linejoin="round"/>
    <path d="M 75.79322814941406 160.31080627441406 C 86.88750457763672 150.49478149414062 98.93701934814453 157.00930786132812 83.57544708251953 120.54179382324219" stroke-width="3.0" fill="none" stroke="rgb(0, 0, 0)" stroke-opacity="1.0" stroke-linecap="round" stroke-linejoin="round"/>
    <path d="M 91.66252899169922 168.1730194091797 C 91.0162124633789 168.00694274902344 97.85181427001953 168.27047729492188 87.55320739746094 162.5283966064453" stroke-width="3.0" fill="none" stroke="rgb(0, 0, 0)" stroke-opacity="1.0" stroke-linecap="round" stroke-linejoin="round"/>
    <path d="M 89.9274673461914 167.23587036132812 C 92.70985412597656 170.30653381347656 100.47005462646484 169.859375 102.75715637207031 173.6692657470703" stroke-width="3.0" fill="none" stroke="rgb(0, 0, 0)" stroke-opacity="1.0" stroke-linecap="round" stroke-linejoin="round"/>
    <path d="M 119.02706909179688 82.49457550048828 C 122.98295593261719 81.67366027832031 129.38710021972656 90.72220611572266 121.71834564208984 81.7149887084961" stroke-width="3.0" fill="none" stroke="rgb(0, 0, 0)" stroke-opacity="1.0" stroke-linecap="round" stroke-linejoin="round"/>
    <path d="M 134.91769409179688 88.70993041992188 C 135.1363067626953 77.94678497314453 144.1553497314453 80.34703826904297 140.39187622070312 87.3316650390625" stroke-width="3.0" fill="none" stroke="rgb(0, 0, 0)" stroke-opacity="1.0" stroke-linecap="round" stroke-linejoin="round"/>
  </g>
</svg>
