<?xml version="1.0" ?>
<svg xmlns="http://www.w3.org/2000/svg" version="1.1" width="224" height="224">
  <defs/>
  <g>
    <path d="M 85.81181335449219 160.25550842285156 C 90.99504852294922 166.51727294921875 88.65917205810547 163.6252899169922 88.6800537109375 156.16073608398438" stroke-width="3.0" fill="none" stroke="rgb(0, 0, 0)" stroke-opacity="1.0" stroke-linecap="round" stroke-linejoin="round"/>
    <path d="M 102.18598175048828 170.44805908203125 C 99.25416564941406 166.55377197265625 101.14447021484375 166.7793731689453 102.68792724609375 169.52261352539062" stroke-width="3.0" fill="none" stroke="rgb(0, 0, 0)" stroke-opacity="1.0" stroke-linecap="round" stroke-linejoin="round"/>
    <path d="M 138.445068359375 160.8121337890625 C 140.8964080810547 163.7499237060547 143.3603057861328 159.6914825439453 142.80172729492188 160.8526153564453" stroke-width="3.0" fill="none" stroke="rgb(0, 0, 0)" stroke-opacity="1.0" stroke-linecap="round" stroke-linejoin="round"/>
    <path d="M 69.5890884399414 164.55711364746094 C 79.7435302734375 168.117919921875 81.47937774658203 169.0172119140625 82.6756591796875 170.1167449951172" stroke-width="3.0" fill="none" stroke="rgb(0, 0, 0)" stroke-opacity="1.0" stroke-linecap="round" stroke-linejoin="round"/>
    <path d="M 136.18307495117188 145.5029296875 C 129.7960662841797 144.30723571777344 132.25672912597656 141.14633178710938 133.45468139648438 155.20057678222656" stroke-width="3.0" fill="none" stroke="rgb(0, 0, 0)" stroke-opacity="1.0" stroke-linecap="round" stroke-linejoin="round"/>
    <path d="M 97.34224700927734 164.67152404785156 C 95.43846130371094 173.6610870361328 94.74500274658203 175.69288635253906 84.80050659179688 166.5122833251953" stroke-width="3.0" fill="none" stroke="rgb(0, 0, 0)" stroke-opacity="1.0" stroke-linecap="round" stroke-linejoin="round"/>
    <path d="M 144.62803649902344 143.52508544921875 C 146.2117156982422 142.3560791015625 143.8953857421875 137.87486267089844 142.83880615234375 151.02330017089844" stroke-width="3.0" fill="none" stroke="rgb(0, 0, 0)" stroke-opacity="1.0" stroke-linecap="round" stroke-linejoin="round"/>
    <path d="M 83.58061981201172 163.92999267578125 C 92.57025909423828 165.84344482421875 92.31600952148438 174.58895874023438 90.37429809570312 169.61190795898438" stroke-width="3.0" fill="none" stroke="rgb(0, 0, 0)" stroke-opacity="1.0" stroke-linecap="round" stroke-linejoin="round"/>
    <path d="M 134.19708251953125 165.465576171875 C 131.71473693847656 180.40966796875 138.7536163330078 175.39749145507812 133.6480255126953 175.89651489257812" stroke-width="3.0" fill="none" stroke="rgb(0, 0, 0)" stroke-opacity="1.0" stroke-linecap="round" stroke-linejoin="round"/>
    <path d="M 143.63368225097656 133.05519104003906 C 141.7895965576172 144.00779724121094 140.83160400390625 145.72769165039062 144.20053100585938 150.32196044921875" stroke-width="3.0" fill="none" stroke="rgb(0, 0, 0)" stroke-opacity="1.0" stroke-linecap="round" stroke-linejoin="round"/>
    <path d="M 97.72671508789062 169.69903564453125 C 108.9967269897461 162.2658233642578 113.04512786865234 160.3909149169922 114.04175567626953 171.32440185546875" stroke-width="3.0" fill="none" stroke="rgb(0, 0, 0)" stroke-opacity="1.0" stroke-linecap="round" stroke-linejoin="round"/>
    <path d="M 80.60585021972656 158.42660522460938 C 82.89776611328125 158.08761596679688 86.69527435302734 147.77239990234375 88.65131378173828 146.40750122070312" stroke-width="3.0" fill="none" stroke="rgb(0, 0, 0)" stroke-opacity="1.0" stroke-linecap="round" stroke-linejoin="round"/>
    <path d="M 92.71886444091797 166.5004425048828 C 92.5743408203125 167.7583770751953 94.85150146484375 163.47860717773438 88.6513442993164 157.98858642578125" stroke-width="3.0" fill="none" stroke="rgb(0, 0, 0)" stroke-opacity="1.0" stroke-linecap="round" stroke-linejoin="round"/>
    <path d="M 92.83590698242188 167.5731201171875 C 94.40211486816406 172.8959503173828 97.72877502441406 176.62026977539062 98.81965637207031 172.80392456054688" stroke-width="3.0" fill="none" stroke="rgb(0, 0, 0)" stroke-opacity="1.0" stroke-linecap="round" stroke-linejoin="round"/>
    <path d="M 118.44009399414062 80.3185806274414 C 123.60897827148438 82.08717346191406 128.32049560546875 88.16902923583984 125.52391815185547 88.63545989990234" stroke-width="3.0" fill="none" stroke="rgb(0, 0, 0)" stroke-opacity="1.0" stroke-linecap="round" stroke-linejoin="round"/>
    <path d="M 143.89939880371094 94.47869110107422 C 147.64598083496094 81.14730834960938 151.1000518798828 84.39044189453125 148.30841064453125 88.758544921875" stroke-width="3.0" fill="none" stroke="rgb(0, 0, 0)" stroke-opacity="1.0" stroke-linecap="round" stroke-linejoin="round"/>
  </g>
</svg>
