<?xml version="1.0" ?>
<svg xmlns="http://www.w3.org/2000/svg" version="1.1" width="224" height="224">
  <defs/>
  <g>
    <path d="M 82.56462860107422 162.41293334960938 C 112.82067108154297 155.71426391601562 91.96129608154297 176.64877319335938 100.95421600341797 145.0842742919922" stroke-width="3.0" fill="none" stroke="rgb(0, 0, 0)" stroke-opacity="1.0" stroke-linecap="round" stroke-linejoin="round"/>
    <path d="M 106.5209732055664 166.7661895751953 C 41.446964263916016 155.43441772460938 79.4598617553711 188.0924835205078 125.49126434326172 169.2696990966797" stroke-width="3.0" fill="none" stroke="rgb(0, 0, 0)" stroke-opacity="1.0" stroke-linecap="round" stroke-linejoin="round"/>
    <path d="M 131.05905151367188 178.0975341796875 C 154.1752471923828 180.80331420898438 141.9171600341797 169.0025177001953 141.64471435546875 171.52455139160156" stroke-width="3.0" fill="none" stroke="rgb(0, 0, 0)" stroke-opacity="1.0" stroke-linecap="round" stroke-linejoin="round"/>
    <path d="M 64.7331314086914 166.61546325683594 C 63.44529342651367 177.17430114746094 108.14193725585938 172.4539031982422 87.3543701171875 173.44482421875" stroke-width="3.0" fill="none" stroke="rgb(0, 0, 0)" stroke-opacity="1.0" stroke-linecap="round" stroke-linejoin="round"/>
    <path d="M 128.50698852539062 146.26185607910156 C 129.60580444335938 149.11956787109375 131.97117614746094 145.02633666992188 130.53176879882812 178.3898468017578" stroke-width="3.0" fill="none" stroke="rgb(0, 0, 0)" stroke-opacity="1.0" stroke-linecap="round" stroke-linejoin="round"/>
    <path d="M 121.13401794433594 169.83340454101562 C 119.82347106933594 166.34608459472656 95.12821197509766 168.31094360351562 79.40019989013672 166.03521728515625" stroke-width="3.0" fill="none" stroke="rgb(0, 0, 0)" stroke-opacity="1.0" stroke-linecap="round" stroke-linejoin="round"/>
    <path d="M 148.60377502441406 163.7596893310547 C 153.20411682128906 153.34884643554688 149.54132080078125 162.24050903320312 145.02581787109375 137.0051727294922" stroke-width="3.0" fill="none" stroke="rgb(0, 0, 0)" stroke-opacity="1.0" stroke-linecap="round" stroke-linejoin="round"/>
    <path d="M 75.89842987060547 165.32508850097656 C 88.36907958984375 175.75889587402344 146.05113220214844 165.55133056640625 95.41056060791016 163.708740234375" stroke-width="3.0" fill="none" stroke="rgb(0, 0, 0)" stroke-opacity="1.0" stroke-linecap="round" stroke-linejoin="round"/>
    <path d="M 135.96099853515625 173.6880340576172 C 143.99476623535156 184.18844604492188 112.24128723144531 177.29942321777344 129.4074249267578 174.90911865234375" stroke-width="3.0" fill="none" stroke="rgb(0, 0, 0)" stroke-opacity="1.0" stroke-linecap="round" stroke-linejoin="round"/>
    <path d="M 144.416015625 104.08038330078125 C 129.30030822753906 128.0890350341797 156.70794677734375 92.26124572753906 141.78378295898438 167.89894104003906" stroke-width="3.0" fill="none" stroke="rgb(0, 0, 0)" stroke-opacity="1.0" stroke-linecap="round" stroke-linejoin="round"/>
    <path d="M 115.1556167602539 170.25582885742188 C 116.75133514404297 122.88716888427734 107.53046417236328 121.058837890625 123.3268814086914 170.86264038085938" stroke-width="3.0" fill="none" stroke="rgb(0, 0, 0)" stroke-opacity="1.0" stroke-linecap="round" stroke-linejoin="round"/>
    <path d="M 64.57817077636719 164.66392517089844 C 73.92070007324219 141.85903930664062 133.58287048339844 166.23681640625 79.83735656738281 100.86400604248047" stroke-width="3.0" fill="none" stroke="rgb(0, 0, 0)" stroke-opacity="1.0" stroke-linecap="round" stroke-linejoin="round"/>
    <path d="M 78.68826293945312 162.91934204101562 C 104.03903198242188 154.14834594726562 110.34530639648438 148.94241333007812 75.4925537109375 166.07516479492188" stroke-width="3.0" fill="none" stroke="rgb(0, 0, 0)" stroke-opacity="1.0" stroke-linecap="round" stroke-linejoin="round"/>
    <path d="M 116.28781127929688 169.80682373046875 C 76.21162414550781 158.41812133789062 89.08132934570312 152.29849243164062 115.9020767211914 160.5946044921875" stroke-width="3.0" fill="none" stroke="rgb(0, 0, 0)" stroke-opacity="1.0" stroke-linecap="round" stroke-linejoin="round"/>
    <path d="M 121.45227813720703 83.29098510742188 C 119.23735046386719 100.76177215576172 140.26976013183594 99.99342346191406 119.12879180908203 80.30799102783203" stroke-width="3.0" fill="none" stroke="rgb(0, 0, 0)" stroke-opacity="1.0" stroke-linecap="round" stroke-linejoin="round"/>
    <path d="M 132.20062255859375 93.90213775634766 C 155.1057586669922 82.62652587890625 131.9882354736328 108.41754913330078 134.49647521972656 95.65486907958984" stroke-width="3.0" fill="none" stroke="rgb(0, 0, 0)" stroke-opacity="1.0" stroke-linecap="round" stroke-linejoin="round"/>
  </g>
</svg>
