<?xml version="1.0" ?>
<svg xmlns="http://www.w3.org/2000/svg" version="1.1" width="224" height="224">
  <defs/>
  <g>
    <path d="M 85.67403411865234 168.6514892578125 C 151.89768981933594 169.6028289794922 103.63056945800781 176.89053344726562 118.82159423828125 141.265625" stroke-width="3.0" fill="none" stroke="rgb(0, 0, 0)" stroke-opacity="1.0" stroke-linecap="round" stroke-linejoin="round"/>
    <path d="M 108.92581176757812 164.1038055419922 C 43.21721267700195 158.50196838378906 91.71973419189453 182.35121154785156 120.98912811279297 169.21365356445312" stroke-width="3.0" fill="none" stroke="rgb(0, 0, 0)" stroke-opacity="1.0" stroke-linecap="round" stroke-linejoin="round"/>
    <path d="M 123.57342529296875 177.35252380371094 C 155.1622772216797 180.83026123046875 140.46670532226562 176.87322998046875 141.03526306152344 166.42254638671875" stroke-width="3.0" fill="none" stroke="rgb(0, 0, 0)" stroke-opacity="1.0" stroke-linecap="round" stroke-linejoin="round"/>
    <path d="M 93.66100311279297 151.5389862060547 C 15.053359985351562 171.89308166503906 115.70004272460938 196.76466369628906 123.42536163330078 166.64654541015625" stroke-width="3.0" fill="none" stroke="rgb(0, 0, 0)" stroke-opacity="1.0" stroke-linecap="round" stroke-linejoin="round"/>
    <path d="M 128.13897705078125 143.37344360351562 C 131.04254150390625 167.3599395751953 125.2920150756836 160.67626953125 127.42985534667969 176.9871063232422" stroke-width="3.0" fill="none" stroke="rgb(0, 0, 0)" stroke-opacity="1.0" stroke-linecap="round" stroke-linejoin="round"/>
    <path d="M 124.78153991699219 178.0646514892578 C 125.40567016601562 173.10826110839844 105.45933532714844 183.74940490722656 83.04023742675781 180.4557342529297" stroke-width="3.0" fill="none" stroke="rgb(0, 0, 0)" stroke-opacity="1.0" stroke-linecap="round" stroke-linejoin="round"/>
    <path d="M 143.49246215820312 164.15530395507812 C 156.23268127441406 159.5258331298828 148.41201782226562 155.9527130126953 146.29095458984375 135.79913330078125" stroke-width="3.0" fill="none" stroke="rgb(0, 0, 0)" stroke-opacity="1.0" stroke-linecap="round" stroke-linejoin="round"/>
    <path d="M 73.38427734375 166.5767822265625 C 96.41891479492188 173.88983154296875 152.3350372314453 170.6861114501953 79.73918914794922 169.65919494628906" stroke-width="3.0" fill="none" stroke="rgb(0, 0, 0)" stroke-opacity="1.0" stroke-linecap="round" stroke-linejoin="round"/>
    <path d="M 122.18070220947266 176.39125061035156 C 121.59382629394531 178.3898468017578 118.78765869140625 160.97979736328125 118.5190658569336 168.02259826660156" stroke-width="3.0" fill="none" stroke="rgb(0, 0, 0)" stroke-opacity="1.0" stroke-linecap="round" stroke-linejoin="round"/>
    <path d="M 148.6340789794922 81.05138397216797 C 129.0829620361328 134.22265625 162.44577026367188 81.12739562988281 137.4895782470703 177.12713623046875" stroke-width="3.0" fill="none" stroke="rgb(0, 0, 0)" stroke-opacity="1.0" stroke-linecap="round" stroke-linejoin="round"/>
    <path d="M 116.43917846679688 164.92848205566406 C 96.54609680175781 175.36656188964844 99.87377166748047 147.34524536132812 116.03396606445312 170.4956817626953" stroke-width="3.0" fill="none" stroke="rgb(0, 0, 0)" stroke-opacity="1.0" stroke-linecap="round" stroke-linejoin="round"/>
    <path d="M 93.08345794677734 151.52676391601562 C 95.48058319091797 195.01246643066406 107.22602081298828 78.2393569946289 71.76168823242188 103.87125396728516" stroke-width="3.0" fill="none" stroke="rgb(0, 0, 0)" stroke-opacity="1.0" stroke-linecap="round" stroke-linejoin="round"/>
    <path d="M 96.10624694824219 159.26502990722656 C 116.3275375366211 169.9029083251953 145.5890655517578 170.5979766845703 78.31654357910156 166.56849670410156" stroke-width="3.0" fill="none" stroke="rgb(0, 0, 0)" stroke-opacity="1.0" stroke-linecap="round" stroke-linejoin="round"/>
    <path d="M 112.72737121582031 156.4736785888672 C 39.71515655517578 183.72442626953125 97.33091735839844 143.4518585205078 112.63783264160156 165.90699768066406" stroke-width="3.0" fill="none" stroke="rgb(0, 0, 0)" stroke-opacity="1.0" stroke-linecap="round" stroke-linejoin="round"/>
    <path d="M 117.189697265625 82.90194702148438 C 109.38098907470703 101.16966247558594 155.81300354003906 106.034423828125 116.31729888916016 80.25234985351562" stroke-width="3.0" fill="none" stroke="rgb(0, 0, 0)" stroke-opacity="1.0" stroke-linecap="round" stroke-linejoin="round"/>
    <path d="M 116.14154815673828 100.02361297607422 C 145.3916778564453 67.67974853515625 165.04379272460938 111.02568054199219 122.96019744873047 98.45882415771484" stroke-width="3.0" fill="none" stroke="rgb(0, 0, 0)" stroke-opacity="1.0" stroke-linecap="round" stroke-linejoin="round"/>
  </g>
</svg>
