<?xml version="1.0" ?>
<svg xmlns="http://www.w3.org/2000/svg" version="1.1" width="224" height="224">
  <defs/>
  <g>
    <path d="M 88.01757049560547 163.5724639892578 C 113.38960266113281 157.01458740234375 94.65638732910156 178.0485382080078 102.66554260253906 145.96066284179688" stroke-width="3.0" fill="none" stroke="rgb(0, 0, 0)" stroke-opacity="1.0" stroke-linecap="round" stroke-linejoin="round"/>
    <path d="M 104.65829467773438 168.4861602783203 C 42.79423141479492 153.79782104492188 80.69256591796875 188.01425170898438 126.78449249267578 168.15322875976562" stroke-width="3.0" fill="none" stroke="rgb(0, 0, 0)" stroke-opacity="1.0" stroke-linecap="round" stroke-linejoin="round"/>
    <path d="M 130.2209014892578 179.33096313476562 C 153.7439727783203 180.88877868652344 142.3418426513672 167.57821655273438 141.10757446289062 172.05435180664062" stroke-width="3.0" fill="none" stroke="rgb(0, 0, 0)" stroke-opacity="1.0" stroke-linecap="round" stroke-linejoin="round"/>
    <path d="M 65.3294906616211 166.72499084472656 C 64.14845275878906 178.9146728515625 107.14690399169922 173.38047790527344 88.11161804199219 175.1092071533203" stroke-width="3.0" fill="none" stroke="rgb(0, 0, 0)" stroke-opacity="1.0" stroke-linecap="round" stroke-linejoin="round"/>
    <path d="M 128.39462280273438 144.37342834472656 C 130.1295623779297 148.415283203125 131.42401123046875 144.5818328857422 131.36537170410156 177.93360900878906" stroke-width="3.0" fill="none" stroke="rgb(0, 0, 0)" stroke-opacity="1.0" stroke-linecap="round" stroke-linejoin="round"/>
    <path d="M 120.21837615966797 169.6868133544922 C 119.50566864013672 164.2438201904297 94.56282043457031 165.88510131835938 78.34854125976562 166.58047485351562" stroke-width="3.0" fill="none" stroke="rgb(0, 0, 0)" stroke-opacity="1.0" stroke-linecap="round" stroke-linejoin="round"/>
    <path d="M 147.06414794921875 164.40147399902344 C 153.2064208984375 152.00648498535156 150.90853881835938 161.66366577148438 146.37750244140625 135.8404083251953" stroke-width="3.0" fill="none" stroke="rgb(0, 0, 0)" stroke-opacity="1.0" stroke-linecap="round" stroke-linejoin="round"/>
    <path d="M 75.41724395751953 164.803955078125 C 88.42132568359375 172.99407958984375 146.17149353027344 165.39585876464844 96.14400482177734 164.11679077148438" stroke-width="3.0" fill="none" stroke="rgb(0, 0, 0)" stroke-opacity="1.0" stroke-linecap="round" stroke-linejoin="round"/>
    <path d="M 136.41802978515625 173.89627075195312 C 146.41952514648438 185.53598022460938 114.58866119384766 175.14260864257812 129.63870239257812 176.4927978515625" stroke-width="3.0" fill="none" stroke="rgb(0, 0, 0)" stroke-opacity="1.0" stroke-linecap="round" stroke-linejoin="round"/>
    <path d="M 144.62893676757812 102.90625 C 128.54417419433594 127.42805480957031 155.5526885986328 93.16912841796875 141.148193359375 168.7952423095703" stroke-width="3.0" fill="none" stroke="rgb(0, 0, 0)" stroke-opacity="1.0" stroke-linecap="round" stroke-linejoin="round"/>
    <path d="M 117.0063705444336 169.9622039794922 C 119.58391571044922 122.68413543701172 109.6667251586914 119.88504791259766 124.5552978515625 172.07611083984375" stroke-width="3.0" fill="none" stroke="rgb(0, 0, 0)" stroke-opacity="1.0" stroke-linecap="round" stroke-linejoin="round"/>
    <path d="M 65.44831848144531 165.3686981201172 C 72.53579711914062 141.51893615722656 130.99557495117188 166.7961883544922 77.01929473876953 101.1220703125" stroke-width="3.0" fill="none" stroke="rgb(0, 0, 0)" stroke-opacity="1.0" stroke-linecap="round" stroke-linejoin="round"/>
    <path d="M 78.02452850341797 163.5220489501953 C 105.22447204589844 158.28453063964844 109.85675811767578 148.6635284423828 74.6502685546875 166.35665893554688" stroke-width="3.0" fill="none" stroke="rgb(0, 0, 0)" stroke-opacity="1.0" stroke-linecap="round" stroke-linejoin="round"/>
    <path d="M 113.11125183105469 170.35977172851562 C 76.62910461425781 160.56787109375 89.29131317138672 155.4239044189453 115.43466186523438 163.59146118164062" stroke-width="3.0" fill="none" stroke="rgb(0, 0, 0)" stroke-opacity="1.0" stroke-linecap="round" stroke-linejoin="round"/>
    <path d="M 121.2275390625 84.36505889892578 C 117.57646179199219 100.5626220703125 139.65615844726562 100.55075073242188 117.96665954589844 80.63882446289062" stroke-width="3.0" fill="none" stroke="rgb(0, 0, 0)" stroke-opacity="1.0" stroke-linecap="round" stroke-linejoin="round"/>
    <path d="M 131.1283416748047 95.44512939453125 C 155.02719116210938 83.49898529052734 132.22413635253906 108.4112777709961 134.13778686523438 94.84202575683594" stroke-width="3.0" fill="none" stroke="rgb(0, 0, 0)" stroke-opacity="1.0" stroke-linecap="round" stroke-linejoin="round"/>
  </g>
</svg>
