<?xml version="1.0" ?>
<svg xmlns="http://www.w3.org/2000/svg" version="1.1" width="224" height="224">
  <defs/>
  <g>
    <path d="M 77.78948974609375 164.32022094726562 C 132.1021728515625 160.09548950195312 95.30859375 181.54637145996094 105.97351837158203 129.42486572265625" stroke-width="3.0" fill="none" stroke="rgb(0, 0, 0)" stroke-opacity="1.0" stroke-linecap="round" stroke-linejoin="round"/>
    <path d="M 117.20838928222656 169.88229370117188 C 38.87228012084961 156.18521118164062 87.27916717529297 181.12864685058594 118.74808502197266 169.02862548828125" stroke-width="3.0" fill="none" stroke="rgb(0, 0, 0)" stroke-opacity="1.0" stroke-linecap="round" stroke-linejoin="round"/>
    <path d="M 119.33231353759766 176.2802734375 C 151.39956665039062 189.84523010253906 140.56236267089844 174.0164031982422 141.9193572998047 169.77874755859375" stroke-width="3.0" fill="none" stroke="rgb(0, 0, 0)" stroke-opacity="1.0" stroke-linecap="round" stroke-linejoin="round"/>
    <path d="M 92.73995971679688 149.0078582763672 C 13.518531799316406 173.06927490234375 121.5912857055664 190.649169921875 123.30596160888672 168.28819274902344" stroke-width="3.0" fill="none" stroke="rgb(0, 0, 0)" stroke-opacity="1.0" stroke-linecap="round" stroke-linejoin="round"/>
    <path d="M 127.76250457763672 142.5369415283203 C 131.5618133544922 163.3350372314453 127.98384857177734 146.6892852783203 128.8243865966797 177.5843963623047" stroke-width="3.0" fill="none" stroke="rgb(0, 0, 0)" stroke-opacity="1.0" stroke-linecap="round" stroke-linejoin="round"/>
    <path d="M 119.52421569824219 168.7368621826172 C 129.65769958496094 172.61219787597656 96.3524398803711 183.28643798828125 78.92681884765625 176.94476318359375" stroke-width="3.0" fill="none" stroke="rgb(0, 0, 0)" stroke-opacity="1.0" stroke-linecap="round" stroke-linejoin="round"/>
    <path d="M 145.46974182128906 166.53607177734375 C 160.09693908691406 160.56378173828125 144.36541748046875 154.0269775390625 146.13645935058594 131.45376586914062" stroke-width="3.0" fill="none" stroke="rgb(0, 0, 0)" stroke-opacity="1.0" stroke-linecap="round" stroke-linejoin="round"/>
    <path d="M 77.09174346923828 168.2559051513672 C 90.27239990234375 173.6508026123047 145.14706420898438 163.51669311523438 82.71992492675781 161.3842315673828" stroke-width="3.0" fill="none" stroke="rgb(0, 0, 0)" stroke-opacity="1.0" stroke-linecap="round" stroke-linejoin="round"/>
    <path d="M 127.31961059570312 178.25244140625 C 135.02281188964844 180.99771118164062 123.21245574951172 168.92434692382812 133.97544860839844 170.97865295410156" stroke-width="3.0" fill="none" stroke="rgb(0, 0, 0)" stroke-opacity="1.0" stroke-linecap="round" stroke-linejoin="round"/>
    <path d="M 149.09722900390625 81.52542114257812 C 124.69995880126953 142.45884704589844 158.63584899902344 81.53191375732422 139.7788848876953 175.60934448242188" stroke-width="3.0" fill="none" stroke="rgb(0, 0, 0)" stroke-opacity="1.0" stroke-linecap="round" stroke-linejoin="round"/>
    <path d="M 112.7220687866211 168.9941864013672 C 95.30328369140625 167.7132568359375 89.97643280029297 150.1739501953125 123.4756088256836 173.2380828857422" stroke-width="3.0" fill="none" stroke="rgb(0, 0, 0)" stroke-opacity="1.0" stroke-linecap="round" stroke-linejoin="round"/>
    <path d="M 104.98389434814453 152.95127868652344 C 81.76042938232422 182.54312133789062 114.0850601196289 91.82865905761719 73.03768157958984 105.41407012939453" stroke-width="3.0" fill="none" stroke="rgb(0, 0, 0)" stroke-opacity="1.0" stroke-linecap="round" stroke-linejoin="round"/>
    <path d="M 92.92705535888672 163.13099670410156 C 114.50303649902344 175.86753845214844 149.80715942382812 168.70338439941406 89.88563537597656 171.1306610107422" stroke-width="3.0" fill="none" stroke="rgb(0, 0, 0)" stroke-opacity="1.0" stroke-linecap="round" stroke-linejoin="round"/>
    <path d="M 107.874267578125 163.45045471191406 C 51.9959716796875 174.84364318847656 92.77154541015625 144.56480407714844 113.62064361572266 167.2310791015625" stroke-width="3.0" fill="none" stroke="rgb(0, 0, 0)" stroke-opacity="1.0" stroke-linecap="round" stroke-linejoin="round"/>
    <path d="M 118.91899108886719 85.47824096679688 C 113.40852355957031 104.61685943603516 159.9207305908203 106.53713989257812 117.05218505859375 82.18843841552734" stroke-width="3.0" fill="none" stroke="rgb(0, 0, 0)" stroke-opacity="1.0" stroke-linecap="round" stroke-linejoin="round"/>
    <path d="M 116.2423095703125 99.76549530029297 C 152.28660583496094 65.43427276611328 158.17295837402344 111.88764190673828 129.3734588623047 102.2361068725586" stroke-width="3.0" fill="none" stroke="rgb(0, 0, 0)" stroke-opacity="1.0" stroke-linecap="round" stroke-linejoin="round"/>
  </g>
</svg>
