<?xml version="1.0" ?>
<svg xmlns="http://www.w3.org/2000/svg" version="1.1" width="224" height="224">
  <defs/>
  <g>
    <path d="M 84.25788879394531 171.3776397705078 C 118.55506896972656 168.08041381835938 91.07864379882812 186.743896484375 103.90403747558594 134.34019470214844" stroke-width="3.0" fill="none" stroke="rgb(0, 0, 0)" stroke-opacity="1.0" stroke-linecap="round" stroke-linejoin="round"/>
    <path d="M 116.37456512451172 170.13731384277344 C 34.972023010253906 150.4512481689453 85.4634780883789 184.56492614746094 120.75373840332031 167.52806091308594" stroke-width="3.0" fill="none" stroke="rgb(0, 0, 0)" stroke-opacity="1.0" stroke-linecap="round" stroke-linejoin="round"/>
    <path d="M 126.35574340820312 177.98426818847656 C 156.54933166503906 178.07630920410156 140.84814453125 166.5625457763672 141.5118408203125 169.1847686767578" stroke-width="3.0" fill="none" stroke="rgb(0, 0, 0)" stroke-opacity="1.0" stroke-linecap="round" stroke-linejoin="round"/>
    <path d="M 74.11062622070312 155.6017303466797 C 40.799869537353516 176.15748596191406 114.6750717163086 182.05545043945312 87.6502456665039 172.15045166015625" stroke-width="3.0" fill="none" stroke="rgb(0, 0, 0)" stroke-opacity="1.0" stroke-linecap="round" stroke-linejoin="round"/>
    <path d="M 128.76336669921875 137.58401489257812 C 131.00071716308594 156.41078186035156 130.55166625976562 151.44161987304688 128.95999145507812 177.79115295410156" stroke-width="3.0" fill="none" stroke="rgb(0, 0, 0)" stroke-opacity="1.0" stroke-linecap="round" stroke-linejoin="round"/>
    <path d="M 118.44606018066406 170.5356903076172 C 110.48430633544922 174.1830596923828 98.1972885131836 178.3609619140625 84.71644592285156 176.81993103027344" stroke-width="3.0" fill="none" stroke="rgb(0, 0, 0)" stroke-opacity="1.0" stroke-linecap="round" stroke-linejoin="round"/>
    <path d="M 143.03981018066406 165.3769073486328 C 154.87799072265625 161.57215881347656 146.03866577148438 152.2471466064453 146.236083984375 135.1905975341797" stroke-width="3.0" fill="none" stroke="rgb(0, 0, 0)" stroke-opacity="1.0" stroke-linecap="round" stroke-linejoin="round"/>
    <path d="M 75.38937377929688 164.42459106445312 C 95.09166717529297 177.9042510986328 160.83753967285156 155.27879333496094 76.08645629882812 162.5891876220703" stroke-width="3.0" fill="none" stroke="rgb(0, 0, 0)" stroke-opacity="1.0" stroke-linecap="round" stroke-linejoin="round"/>
    <path d="M 129.89418029785156 165.34886169433594 C 141.25396728515625 183.2021942138672 122.84392547607422 178.25552368164062 140.2058563232422 178.2027130126953" stroke-width="3.0" fill="none" stroke="rgb(0, 0, 0)" stroke-opacity="1.0" stroke-linecap="round" stroke-linejoin="round"/>
    <path d="M 150.36280822753906 80.9632797241211 C 127.87828063964844 140.5131378173828 159.96035766601562 78.65927124023438 140.7478485107422 170.83914184570312" stroke-width="3.0" fill="none" stroke="rgb(0, 0, 0)" stroke-opacity="1.0" stroke-linecap="round" stroke-linejoin="round"/>
    <path d="M 112.43113708496094 167.1993408203125 C 102.94007873535156 147.97821044921875 90.34335327148438 149.57135009765625 125.38066864013672 177.47967529296875" stroke-width="3.0" fill="none" stroke="rgb(0, 0, 0)" stroke-opacity="1.0" stroke-linecap="round" stroke-linejoin="round"/>
    <path d="M 73.56214904785156 155.6864013671875 C 62.73075866699219 158.7412872314453 133.15890502929688 138.11981201171875 74.72344970703125 100.89767456054688" stroke-width="3.0" fill="none" stroke="rgb(0, 0, 0)" stroke-opacity="1.0" stroke-linecap="round" stroke-linejoin="round"/>
    <path d="M 82.48540496826172 159.9518585205078 C 111.71308135986328 172.1293487548828 143.458740234375 156.55091857910156 86.73530578613281 158.1517791748047" stroke-width="3.0" fill="none" stroke="rgb(0, 0, 0)" stroke-opacity="1.0" stroke-linecap="round" stroke-linejoin="round"/>
    <path d="M 114.37584686279297 165.79469299316406 C 53.7294807434082 178.01394653320312 82.36559295654297 158.83319091796875 114.42692565917969 164.74510192871094" stroke-width="3.0" fill="none" stroke="rgb(0, 0, 0)" stroke-opacity="1.0" stroke-linecap="round" stroke-linejoin="round"/>
    <path d="M 117.88864135742188 85.54327392578125 C 113.55316925048828 102.0503921508789 161.19248962402344 108.17618560791016 118.86539459228516 80.97655487060547" stroke-width="3.0" fill="none" stroke="rgb(0, 0, 0)" stroke-opacity="1.0" stroke-linecap="round" stroke-linejoin="round"/>
    <path d="M 119.76652526855469 97.03010559082031 C 170.57894897460938 70.65544891357422 136.67640686035156 109.21471405029297 140.78785705566406 93.77485656738281" stroke-width="3.0" fill="none" stroke="rgb(0, 0, 0)" stroke-opacity="1.0" stroke-linecap="round" stroke-linejoin="round"/>
  </g>
</svg>
