<?xml version="1.0" ?>
<svg xmlns="http://www.w3.org/2000/svg" version="1.1" width="224" height="224">
  <defs/>
  <g>
    <path d="M 83.43125915527344 167.07595825195312 C 96.44627380371094 171.66983032226562 92.46385955810547 166.5115966796875 91.4452896118164 157.38633728027344" stroke-width="3.0" fill="none" stroke="rgb(0, 0, 0)" stroke-opacity="1.0" stroke-linecap="round" stroke-linejoin="round"/>
    <path d="M 93.3974838256836 173.129638671875 C 91.1182861328125 169.6544189453125 89.98950958251953 170.96791076660156 109.15586853027344 178.34727478027344" stroke-width="3.0" fill="none" stroke="rgb(0, 0, 0)" stroke-opacity="1.0" stroke-linecap="round" stroke-linejoin="round"/>
    <path d="M 141.55093383789062 168.88113403320312 C 148.46324157714844 164.32275390625 147.7830047607422 160.35745239257812 147.87109375 157.16336059570312" stroke-width="3.0" fill="none" stroke="rgb(0, 0, 0)" stroke-opacity="1.0" stroke-linecap="round" stroke-linejoin="round"/>
    <path d="M 72.82200622558594 171.07545471191406 C 77.6579360961914 177.6033172607422 86.53205871582031 168.9538116455078 82.74939727783203 171.8844757080078" stroke-width="3.0" fill="none" stroke="rgb(0, 0, 0)" stroke-opacity="1.0" stroke-linecap="round" stroke-linejoin="round"/>
    <path d="M 139.75466918945312 147.5167999267578 C 138.18597412109375 145.2661590576172 141.97836303710938 134.01748657226562 134.40733337402344 162.834228515625" stroke-width="3.0" fill="none" stroke="rgb(0, 0, 0)" stroke-opacity="1.0" stroke-linecap="round" stroke-linejoin="round"/>
    <path d="M 100.05782318115234 165.35150146484375 C 106.04683685302734 178.54779052734375 92.93487548828125 179.85626220703125 79.49361419677734 168.68264770507812" stroke-width="3.0" fill="none" stroke="rgb(0, 0, 0)" stroke-opacity="1.0" stroke-linecap="round" stroke-linejoin="round"/>
    <path d="M 146.0865478515625 146.7007293701172 C 146.25039672851562 144.2600860595703 145.9613037109375 133.55859375 147.50341796875 160.94488525390625" stroke-width="3.0" fill="none" stroke="rgb(0, 0, 0)" stroke-opacity="1.0" stroke-linecap="round" stroke-linejoin="round"/>
    <path d="M 74.42372131347656 163.51284790039062 C 91.77001190185547 169.72911071777344 93.65707397460938 176.7559814453125 88.6342544555664 165.17283630371094" stroke-width="3.0" fill="none" stroke="rgb(0, 0, 0)" stroke-opacity="1.0" stroke-linecap="round" stroke-linejoin="round"/>
    <path d="M 136.0918426513672 160.11944580078125 C 122.51187896728516 190.2492218017578 125.7239990234375 182.92007446289062 130.4269561767578 183.56906127929688" stroke-width="3.0" fill="none" stroke="rgb(0, 0, 0)" stroke-opacity="1.0" stroke-linecap="round" stroke-linejoin="round"/>
    <path d="M 148.2232208251953 126.8328628540039 C 142.31744384765625 140.1247100830078 143.4794158935547 129.06097412109375 145.67083740234375 144.99253845214844" stroke-width="3.0" fill="none" stroke="rgb(0, 0, 0)" stroke-opacity="1.0" stroke-linecap="round" stroke-linejoin="round"/>
    <path d="M 98.10462951660156 163.77871704101562 C 110.40579986572266 153.2758331298828 124.7477035522461 152.47314453125 116.05461120605469 178.41964721679688" stroke-width="3.0" fill="none" stroke="rgb(0, 0, 0)" stroke-opacity="1.0" stroke-linecap="round" stroke-linejoin="round"/>
    <path d="M 75.13264465332031 161.1153564453125 C 84.654541015625 153.7222900390625 89.35271453857422 148.91062927246094 90.25582122802734 125.80361938476562" stroke-width="3.0" fill="none" stroke="rgb(0, 0, 0)" stroke-opacity="1.0" stroke-linecap="round" stroke-linejoin="round"/>
    <path d="M 90.95577239990234 160.0628662109375 C 93.623046875 161.71737670898438 98.40655517578125 164.38461303710938 89.71783447265625 163.1680908203125" stroke-width="3.0" fill="none" stroke="rgb(0, 0, 0)" stroke-opacity="1.0" stroke-linecap="round" stroke-linejoin="round"/>
    <path d="M 95.88390350341797 165.25808715820312 C 97.56531524658203 173.0667724609375 96.17717742919922 174.2954559326172 101.55753326416016 174.47462463378906" stroke-width="3.0" fill="none" stroke="rgb(0, 0, 0)" stroke-opacity="1.0" stroke-linecap="round" stroke-linejoin="round"/>
    <path d="M 114.67022705078125 78.87752532958984 C 119.93425750732422 84.3910140991211 127.5738296508789 91.1314926147461 117.15144348144531 83.8437728881836" stroke-width="3.0" fill="none" stroke="rgb(0, 0, 0)" stroke-opacity="1.0" stroke-linecap="round" stroke-linejoin="round"/>
    <path d="M 138.1704864501953 89.02113342285156 C 142.81893920898438 81.18424987792969 145.56253051757812 80.78605651855469 141.1704559326172 92.49891662597656" stroke-width="3.0" fill="none" stroke="rgb(0, 0, 0)" stroke-opacity="1.0" stroke-linecap="round" stroke-linejoin="round"/>
  </g>
</svg>
