<?xml version="1.0" ?>
<svg xmlns="http://www.w3.org/2000/svg" version="1.1" width="224" height="224">
  <defs/>
  <g>
    <path d="M 91.05838775634766 162.70428466796875 C 113.41759490966797 157.58468627929688 95.26535034179688 176.83079528808594 100.67451477050781 143.85523986816406" stroke-width="3.0" fill="none" stroke="rgb(0, 0, 0)" stroke-opacity="1.0" stroke-linecap="round" stroke-linejoin="round"/>
    <path d="M 100.73249816894531 170.976806640625 C 41.767578125 154.19558715820312 80.14832305908203 190.16258239746094 126.53366088867188 170.59678649902344" stroke-width="3.0" fill="none" stroke="rgb(0, 0, 0)" stroke-opacity="1.0" stroke-linecap="round" stroke-linejoin="round"/>
    <path d="M 130.31739807128906 179.0970001220703 C 156.11558532714844 182.49497985839844 143.91249084472656 169.1542205810547 141.0987091064453 171.21646118164062" stroke-width="3.0" fill="none" stroke="rgb(0, 0, 0)" stroke-opacity="1.0" stroke-linecap="round" stroke-linejoin="round"/>
    <path d="M 64.96099090576172 166.155029296875 C 65.952392578125 181.04693603515625 105.58428192138672 175.6765899658203 87.50167083740234 175.13912963867188" stroke-width="3.0" fill="none" stroke="rgb(0, 0, 0)" stroke-opacity="1.0" stroke-linecap="round" stroke-linejoin="round"/>
    <path d="M 127.85900115966797 144.21340942382812 C 129.2401580810547 149.60357666015625 131.6891632080078 145.34336853027344 129.68344116210938 177.0491943359375" stroke-width="3.0" fill="none" stroke="rgb(0, 0, 0)" stroke-opacity="1.0" stroke-linecap="round" stroke-linejoin="round"/>
    <path d="M 117.59528350830078 165.82818603515625 C 119.79595184326172 161.07350158691406 94.32779693603516 163.39328002929688 79.33816528320312 166.4690704345703" stroke-width="3.0" fill="none" stroke="rgb(0, 0, 0)" stroke-opacity="1.0" stroke-linecap="round" stroke-linejoin="round"/>
    <path d="M 145.3800811767578 164.9481658935547 C 152.88143920898438 150.76007080078125 151.90994262695312 160.8912353515625 143.4929656982422 134.793212890625" stroke-width="3.0" fill="none" stroke="rgb(0, 0, 0)" stroke-opacity="1.0" stroke-linecap="round" stroke-linejoin="round"/>
    <path d="M 73.919189453125 166.7158660888672 C 87.8108139038086 174.7458038330078 145.79779052734375 169.2340087890625 97.01974487304688 165.21376037597656" stroke-width="3.0" fill="none" stroke="rgb(0, 0, 0)" stroke-opacity="1.0" stroke-linecap="round" stroke-linejoin="round"/>
    <path d="M 136.2081298828125 173.45594787597656 C 147.00672912597656 184.5953826904297 114.56836700439453 175.30535888671875 129.45631408691406 177.76089477539062" stroke-width="3.0" fill="none" stroke="rgb(0, 0, 0)" stroke-opacity="1.0" stroke-linecap="round" stroke-linejoin="round"/>
    <path d="M 144.06163024902344 99.82484436035156 C 128.20535278320312 122.69816589355469 154.42393493652344 92.2442398071289 140.92869567871094 169.90045166015625" stroke-width="3.0" fill="none" stroke="rgb(0, 0, 0)" stroke-opacity="1.0" stroke-linecap="round" stroke-linejoin="round"/>
    <path d="M 115.69611358642578 168.97825622558594 C 119.11944580078125 122.55125427246094 110.0555419921875 119.48137664794922 124.70747375488281 174.60894775390625" stroke-width="3.0" fill="none" stroke="rgb(0, 0, 0)" stroke-opacity="1.0" stroke-linecap="round" stroke-linejoin="round"/>
    <path d="M 64.99327087402344 164.9095458984375 C 73.0589599609375 142.50782775878906 131.2672576904297 170.60952758789062 76.42135620117188 100.66605377197266" stroke-width="3.0" fill="none" stroke="rgb(0, 0, 0)" stroke-opacity="1.0" stroke-linecap="round" stroke-linejoin="round"/>
    <path d="M 82.28545379638672 165.89186096191406 C 104.34012603759766 158.50875854492188 108.5837173461914 148.1664581298828 72.93054962158203 165.35784912109375" stroke-width="3.0" fill="none" stroke="rgb(0, 0, 0)" stroke-opacity="1.0" stroke-linecap="round" stroke-linejoin="round"/>
    <path d="M 110.37294006347656 168.5295867919922 C 76.58486938476562 161.0452880859375 90.11624145507812 154.77696228027344 115.16967010498047 163.9516143798828" stroke-width="3.0" fill="none" stroke="rgb(0, 0, 0)" stroke-opacity="1.0" stroke-linecap="round" stroke-linejoin="round"/>
    <path d="M 120.32220458984375 84.59038543701172 C 117.44921875 99.43758392333984 139.3232421875 100.44129180908203 118.88639831542969 81.56727600097656" stroke-width="3.0" fill="none" stroke="rgb(0, 0, 0)" stroke-opacity="1.0" stroke-linecap="round" stroke-linejoin="round"/>
    <path d="M 132.1676788330078 94.26470947265625 C 153.9341278076172 81.40573120117188 132.9502716064453 107.3224868774414 135.0437469482422 93.14712524414062" stroke-width="3.0" fill="none" stroke="rgb(0, 0, 0)" stroke-opacity="1.0" stroke-linecap="round" stroke-linejoin="round"/>
  </g>
</svg>
