<?xml version="1.0" ?>
<svg xmlns="http://www.w3.org/2000/svg" version="1.1" width="224" height="224">
  <defs/>
  <g>
    <path d="M 97.95123291015625 159.56996154785156 C 106.17281341552734 164.8108367919922 95.37244415283203 181.06216430664062 99.53401184082031 145.5261993408203" stroke-width="3.0" fill="none" stroke="rgb(0, 0, 0)" stroke-opacity="1.0" stroke-linecap="round" stroke-linejoin="round"/>
    <path d="M 94.94470977783203 165.84552001953125 C 51.502471923828125 155.6774444580078 73.11853790283203 187.25904846191406 121.5981216430664 174.2777099609375" stroke-width="3.0" fill="none" stroke="rgb(0, 0, 0)" stroke-opacity="1.0" stroke-linecap="round" stroke-linejoin="round"/>
    <path d="M 129.15237426757812 179.02468872070312 C 153.6479949951172 179.45191955566406 138.30360412597656 173.78659057617188 139.8656463623047 168.69766235351562" stroke-width="3.0" fill="none" stroke="rgb(0, 0, 0)" stroke-opacity="1.0" stroke-linecap="round" stroke-linejoin="round"/>
    <path d="M 64.38333129882812 168.65257263183594 C 64.86832427978516 182.10003662109375 105.19959259033203 178.27236938476562 91.12728118896484 178.93301391601562" stroke-width="3.0" fill="none" stroke="rgb(0, 0, 0)" stroke-opacity="1.0" stroke-linecap="round" stroke-linejoin="round"/>
    <path d="M 131.55091857910156 141.70037841796875 C 129.14566040039062 156.21678161621094 132.28233337402344 140.7163848876953 131.78028869628906 167.75941467285156" stroke-width="3.0" fill="none" stroke="rgb(0, 0, 0)" stroke-opacity="1.0" stroke-linecap="round" stroke-linejoin="round"/>
    <path d="M 115.53450012207031 164.19056701660156 C 119.02804565429688 170.20387268066406 94.84748840332031 170.5888214111328 76.4444808959961 165.27703857421875" stroke-width="3.0" fill="none" stroke="rgb(0, 0, 0)" stroke-opacity="1.0" stroke-linecap="round" stroke-linejoin="round"/>
    <path d="M 143.4639129638672 166.03709411621094 C 153.02053833007812 158.30068969726562 151.45858764648438 162.68931579589844 146.57901000976562 139.83062744140625" stroke-width="3.0" fill="none" stroke="rgb(0, 0, 0)" stroke-opacity="1.0" stroke-linecap="round" stroke-linejoin="round"/>
    <path d="M 71.22050476074219 170.03147888183594 C 80.31681060791016 183.31736755371094 147.63201904296875 168.2809600830078 114.38056945800781 171.16363525390625" stroke-width="3.0" fill="none" stroke="rgb(0, 0, 0)" stroke-opacity="1.0" stroke-linecap="round" stroke-linejoin="round"/>
    <path d="M 131.7059783935547 172.81166076660156 C 133.5479278564453 185.82525634765625 113.64820098876953 172.0737762451172 130.0829315185547 178.4845428466797" stroke-width="3.0" fill="none" stroke="rgb(0, 0, 0)" stroke-opacity="1.0" stroke-linecap="round" stroke-linejoin="round"/>
    <path d="M 141.95689392089844 100.2120590209961 C 134.2470703125 119.57894897460938 160.47669982910156 99.8853759765625 143.5951690673828 164.4676971435547" stroke-width="3.0" fill="none" stroke="rgb(0, 0, 0)" stroke-opacity="1.0" stroke-linecap="round" stroke-linejoin="round"/>
    <path d="M 99.82459259033203 168.40298461914062 C 113.83551788330078 103.67503356933594 118.2808609008789 102.29588317871094 123.07315063476562 176.78271484375" stroke-width="3.0" fill="none" stroke="rgb(0, 0, 0)" stroke-opacity="1.0" stroke-linecap="round" stroke-linejoin="round"/>
    <path d="M 66.07333374023438 165.96861267089844 C 75.00862884521484 146.3288116455078 131.0718536376953 167.9186553955078 77.9052963256836 100.1346664428711" stroke-width="3.0" fill="none" stroke="rgb(0, 0, 0)" stroke-opacity="1.0" stroke-linecap="round" stroke-linejoin="round"/>
    <path d="M 85.4547119140625 163.561767578125 C 99.54235076904297 161.8667755126953 105.45913696289062 153.66583251953125 77.48471069335938 163.04039001464844" stroke-width="3.0" fill="none" stroke="rgb(0, 0, 0)" stroke-opacity="1.0" stroke-linecap="round" stroke-linejoin="round"/>
    <path d="M 104.57794189453125 164.50914001464844 C 81.9732437133789 159.1645050048828 97.03756713867188 158.36317443847656 117.26176452636719 170.3335723876953" stroke-width="3.0" fill="none" stroke="rgb(0, 0, 0)" stroke-opacity="1.0" stroke-linecap="round" stroke-linejoin="round"/>
    <path d="M 119.1983642578125 87.01887512207031 C 114.965576171875 99.02365112304688 136.41250610351562 98.11611938476562 117.95794677734375 83.9501953125" stroke-width="3.0" fill="none" stroke="rgb(0, 0, 0)" stroke-opacity="1.0" stroke-linecap="round" stroke-linejoin="round"/>
    <path d="M 133.5049285888672 91.95015716552734 C 149.02403259277344 76.20025634765625 140.4114990234375 100.20414733886719 137.50189208984375 90.30912017822266" stroke-width="3.0" fill="none" stroke="rgb(0, 0, 0)" stroke-opacity="1.0" stroke-linecap="round" stroke-linejoin="round"/>
  </g>
</svg>
