<?xml version="1.0" ?>
<svg xmlns="http://www.w3.org/2000/svg" version="1.1" width="224" height="224">
  <defs/>
  <g>
    <path d="M 76.74435424804688 164.44412231445312 C 109.64900207519531 152.96180725097656 85.24283599853516 190.75677490234375 97.74567413330078 143.45574951171875" stroke-width="3.0" fill="none" stroke="rgb(0, 0, 0)" stroke-opacity="1.0" stroke-linecap="round" stroke-linejoin="round"/>
    <path d="M 118.97774505615234 162.4062042236328 C 35.57806396484375 154.17478942871094 79.18515014648438 191.1842498779297 123.62129211425781 169.7569580078125" stroke-width="3.0" fill="none" stroke="rgb(0, 0, 0)" stroke-opacity="1.0" stroke-linecap="round" stroke-linejoin="round"/>
    <path d="M 131.13023376464844 178.21043395996094 C 155.76010131835938 180.18069458007812 139.97767639160156 168.37442016601562 141.64743041992188 167.26315307617188" stroke-width="3.0" fill="none" stroke="rgb(0, 0, 0)" stroke-opacity="1.0" stroke-linecap="round" stroke-linejoin="round"/>
    <path d="M 65.34423065185547 165.15164184570312 C 62.50652313232422 180.2362518310547 107.3379135131836 174.82745361328125 87.09854125976562 174.77537536621094" stroke-width="3.0" fill="none" stroke="rgb(0, 0, 0)" stroke-opacity="1.0" stroke-linecap="round" stroke-linejoin="round"/>
    <path d="M 131.14645385742188 140.5706329345703 C 129.33912658691406 152.4831085205078 133.89111328125 141.48239135742188 129.4320526123047 173.05857849121094" stroke-width="3.0" fill="none" stroke="rgb(0, 0, 0)" stroke-opacity="1.0" stroke-linecap="round" stroke-linejoin="round"/>
    <path d="M 120.57755279541016 172.76318359375 C 115.15792083740234 155.3971405029297 91.66614532470703 164.3172607421875 75.97675323486328 165.9940948486328" stroke-width="3.0" fill="none" stroke="rgb(0, 0, 0)" stroke-opacity="1.0" stroke-linecap="round" stroke-linejoin="round"/>
    <path d="M 146.05645751953125 164.7453155517578 C 157.60549926757812 160.12217712402344 145.12911987304688 152.1342315673828 145.15000915527344 138.36001586914062" stroke-width="3.0" fill="none" stroke="rgb(0, 0, 0)" stroke-opacity="1.0" stroke-linecap="round" stroke-linejoin="round"/>
    <path d="M 74.58966064453125 163.345947265625 C 89.68894958496094 178.63771057128906 148.3285675048828 162.3782501220703 90.10548400878906 165.15444946289062" stroke-width="3.0" fill="none" stroke="rgb(0, 0, 0)" stroke-opacity="1.0" stroke-linecap="round" stroke-linejoin="round"/>
    <path d="M 129.46591186523438 174.95123291015625 C 145.75582885742188 176.60894775390625 109.63768768310547 173.22048950195312 132.2171630859375 176.40806579589844" stroke-width="3.0" fill="none" stroke="rgb(0, 0, 0)" stroke-opacity="1.0" stroke-linecap="round" stroke-linejoin="round"/>
    <path d="M 143.88673400878906 105.10567474365234 C 128.40904235839844 126.10421752929688 158.3978271484375 97.22358703613281 140.51724243164062 172.85125732421875" stroke-width="3.0" fill="none" stroke="rgb(0, 0, 0)" stroke-opacity="1.0" stroke-linecap="round" stroke-linejoin="round"/>
    <path d="M 108.53262329101562 167.34971618652344 C 117.92603302001953 135.32130432128906 107.73977661132812 135.8723907470703 121.5113296508789 174.1943817138672" stroke-width="3.0" fill="none" stroke="rgb(0, 0, 0)" stroke-opacity="1.0" stroke-linecap="round" stroke-linejoin="round"/>
    <path d="M 65.02814483642578 165.61288452148438 C 67.85202026367188 148.41036987304688 129.63465881347656 163.85459899902344 75.87155151367188 99.6844253540039" stroke-width="3.0" fill="none" stroke="rgb(0, 0, 0)" stroke-opacity="1.0" stroke-linecap="round" stroke-linejoin="round"/>
    <path d="M 75.10353088378906 161.79818725585938 C 99.09272766113281 156.78338623046875 113.98131561279297 173.05886840820312 83.91959381103516 166.94459533691406" stroke-width="3.0" fill="none" stroke="rgb(0, 0, 0)" stroke-opacity="1.0" stroke-linecap="round" stroke-linejoin="round"/>
    <path d="M 112.44063568115234 166.22122192382812 C 60.864444732666016 170.70411682128906 72.99188232421875 152.5203857421875 107.8661117553711 157.7769012451172" stroke-width="3.0" fill="none" stroke="rgb(0, 0, 0)" stroke-opacity="1.0" stroke-linecap="round" stroke-linejoin="round"/>
    <path d="M 114.00369262695312 86.97592163085938 C 109.71734619140625 104.91776275634766 144.32949829101562 100.86766815185547 113.50789642333984 85.73038482666016" stroke-width="3.0" fill="none" stroke="rgb(0, 0, 0)" stroke-opacity="1.0" stroke-linecap="round" stroke-linejoin="round"/>
    <path d="M 132.322021484375 96.77405548095703 C 154.86227416992188 82.88581848144531 137.42881774902344 107.71692657470703 135.4345245361328 98.0137939453125" stroke-width="3.0" fill="none" stroke="rgb(0, 0, 0)" stroke-opacity="1.0" stroke-linecap="round" stroke-linejoin="round"/>
  </g>
</svg>
