<?xml version="1.0" ?>
<svg xmlns="http://www.w3.org/2000/svg" version="1.1" width="224" height="224">
  <defs/>
  <g>
    <path d="M 79.78245544433594 167.64474487304688 C 122.17951202392578 172.06185913085938 80.74596405029297 183.67054748535156 98.16896057128906 128.5166015625" stroke-width="3.0" fill="none" stroke="rgb(0, 0, 0)" stroke-opacity="1.0" stroke-linecap="round" stroke-linejoin="round"/>
    <path d="M 121.69347381591797 170.10366821289062 C 39.09623336791992 153.125244140625 83.96379089355469 184.7493896484375 120.70237731933594 168.0084686279297" stroke-width="3.0" fill="none" stroke="rgb(0, 0, 0)" stroke-opacity="1.0" stroke-linecap="round" stroke-linejoin="round"/>
    <path d="M 122.62179565429688 177.6113739013672 C 157.5339813232422 182.62547302246094 140.33154296875 170.71347045898438 141.98358154296875 166.9756622314453" stroke-width="3.0" fill="none" stroke="rgb(0, 0, 0)" stroke-opacity="1.0" stroke-linecap="round" stroke-linejoin="round"/>
    <path d="M 74.30149841308594 153.4770050048828 C 35.70650100708008 181.68287658691406 129.12734985351562 184.74977111816406 123.01461029052734 165.634521484375" stroke-width="3.0" fill="none" stroke="rgb(0, 0, 0)" stroke-opacity="1.0" stroke-linecap="round" stroke-linejoin="round"/>
    <path d="M 125.02434539794922 138.16970825195312 C 131.10247802734375 157.51693725585938 126.96554565429688 155.0276336669922 127.7645492553711 176.28768920898438" stroke-width="3.0" fill="none" stroke="rgb(0, 0, 0)" stroke-opacity="1.0" stroke-linecap="round" stroke-linejoin="round"/>
    <path d="M 118.96382141113281 167.36865234375 C 121.89581298828125 180.80894470214844 97.38770294189453 178.41539001464844 88.98397064208984 178.0213623046875" stroke-width="3.0" fill="none" stroke="rgb(0, 0, 0)" stroke-opacity="1.0" stroke-linecap="round" stroke-linejoin="round"/>
    <path d="M 143.14202880859375 160.52003479003906 C 157.09597778320312 161.4803924560547 145.25323486328125 153.9803466796875 142.85504150390625 142.15225219726562" stroke-width="3.0" fill="none" stroke="rgb(0, 0, 0)" stroke-opacity="1.0" stroke-linecap="round" stroke-linejoin="round"/>
    <path d="M 79.03610229492188 165.6116180419922 C 98.72903442382812 176.9484405517578 157.8988800048828 159.2444610595703 79.81639862060547 164.21531677246094" stroke-width="3.0" fill="none" stroke="rgb(0, 0, 0)" stroke-opacity="1.0" stroke-linecap="round" stroke-linejoin="round"/>
    <path d="M 136.8959197998047 168.8557586669922 C 147.54087829589844 184.82571411132812 125.54573822021484 174.66722106933594 138.840087890625 176.38389587402344" stroke-width="3.0" fill="none" stroke="rgb(0, 0, 0)" stroke-opacity="1.0" stroke-linecap="round" stroke-linejoin="round"/>
    <path d="M 150.46231079101562 80.98101043701172 C 135.75987243652344 132.93658447265625 158.81910705566406 71.37718200683594 141.70944213867188 167.61830139160156" stroke-width="3.0" fill="none" stroke="rgb(0, 0, 0)" stroke-opacity="1.0" stroke-linecap="round" stroke-linejoin="round"/>
    <path d="M 114.81194305419922 166.94369506835938 C 99.81631469726562 159.86407470703125 88.16493225097656 154.06044006347656 122.0086898803711 175.1060333251953" stroke-width="3.0" fill="none" stroke="rgb(0, 0, 0)" stroke-opacity="1.0" stroke-linecap="round" stroke-linejoin="round"/>
    <path d="M 76.87638092041016 151.43447875976562 C 62.24008560180664 156.87820434570312 132.4118194580078 132.57460021972656 74.6375732421875 101.88390350341797" stroke-width="3.0" fill="none" stroke="rgb(0, 0, 0)" stroke-opacity="1.0" stroke-linecap="round" stroke-linejoin="round"/>
    <path d="M 90.57891845703125 161.03445434570312 C 116.7320556640625 168.54736328125 146.41697692871094 158.935546875 87.97947692871094 162.52011108398438" stroke-width="3.0" fill="none" stroke="rgb(0, 0, 0)" stroke-opacity="1.0" stroke-linecap="round" stroke-linejoin="round"/>
    <path d="M 110.2625732421875 171.72116088867188 C 48.527854919433594 176.18299865722656 72.61296081542969 154.30868530273438 114.64261627197266 168.59963989257812" stroke-width="3.0" fill="none" stroke="rgb(0, 0, 0)" stroke-opacity="1.0" stroke-linecap="round" stroke-linejoin="round"/>
    <path d="M 117.56361389160156 82.11697387695312 C 109.45774841308594 105.83751678466797 161.89918518066406 107.47962188720703 116.2200698852539 80.28609466552734" stroke-width="3.0" fill="none" stroke="rgb(0, 0, 0)" stroke-opacity="1.0" stroke-linecap="round" stroke-linejoin="round"/>
    <path d="M 117.45161437988281 100.78562927246094 C 163.36219787597656 72.5052261352539 136.3032989501953 110.7974624633789 140.1675262451172 95.49190521240234" stroke-width="3.0" fill="none" stroke="rgb(0, 0, 0)" stroke-opacity="1.0" stroke-linecap="round" stroke-linejoin="round"/>
  </g>
</svg>
