<?xml version="1.0" ?>
<svg xmlns="http://www.w3.org/2000/svg" version="1.1" width="224" height="224">
  <defs/>
  <g>
    <path d="M 73.59183502197266 163.97317504882812 C 112.29320526123047 159.73269653320312 93.86309051513672 190.3625030517578 97.4559555053711 142.40928649902344" stroke-width="3.0" fill="none" stroke="rgb(0, 0, 0)" stroke-opacity="1.0" stroke-linecap="round" stroke-linejoin="round"/>
    <path d="M 119.95425415039062 161.4418487548828 C 34.436180114746094 152.357421875 76.48584747314453 190.39866638183594 124.7120590209961 169.7561798095703" stroke-width="3.0" fill="none" stroke="rgb(0, 0, 0)" stroke-opacity="1.0" stroke-linecap="round" stroke-linejoin="round"/>
    <path d="M 129.83570861816406 177.52760314941406 C 153.54566955566406 179.6868133544922 139.95144653320312 167.3753204345703 141.787841796875 168.1570281982422" stroke-width="3.0" fill="none" stroke="rgb(0, 0, 0)" stroke-opacity="1.0" stroke-linecap="round" stroke-linejoin="round"/>
    <path d="M 63.19974136352539 165.0050811767578 C 66.92182922363281 178.41183471679688 109.98778533935547 174.14663696289062 85.71438598632812 175.81707763671875" stroke-width="3.0" fill="none" stroke="rgb(0, 0, 0)" stroke-opacity="1.0" stroke-linecap="round" stroke-linejoin="round"/>
    <path d="M 128.27447509765625 142.7234344482422 C 124.1436767578125 152.18614196777344 132.94573974609375 144.3314971923828 129.42294311523438 177.13670349121094" stroke-width="3.0" fill="none" stroke="rgb(0, 0, 0)" stroke-opacity="1.0" stroke-linecap="round" stroke-linejoin="round"/>
    <path d="M 122.04293060302734 165.1630401611328 C 119.00984191894531 157.92430114746094 96.6051025390625 167.9271697998047 76.97095489501953 167.57798767089844" stroke-width="3.0" fill="none" stroke="rgb(0, 0, 0)" stroke-opacity="1.0" stroke-linecap="round" stroke-linejoin="round"/>
    <path d="M 144.4878692626953 165.5343780517578 C 157.55795288085938 155.82217407226562 147.1621551513672 158.98812866210938 143.8951873779297 135.01536560058594" stroke-width="3.0" fill="none" stroke="rgb(0, 0, 0)" stroke-opacity="1.0" stroke-linecap="round" stroke-linejoin="round"/>
    <path d="M 74.6421127319336 165.76632690429688 C 90.51053619384766 178.89744567871094 150.52403259277344 164.26776123046875 91.0999526977539 166.09906005859375" stroke-width="3.0" fill="none" stroke="rgb(0, 0, 0)" stroke-opacity="1.0" stroke-linecap="round" stroke-linejoin="round"/>
    <path d="M 134.23068237304688 173.5991668701172 C 145.4754180908203 183.28421020507812 110.59812927246094 175.47744750976562 130.64012145996094 175.0096435546875" stroke-width="3.0" fill="none" stroke="rgb(0, 0, 0)" stroke-opacity="1.0" stroke-linecap="round" stroke-linejoin="round"/>
    <path d="M 146.18511962890625 104.15381622314453 C 129.63589477539062 124.0257568359375 154.11033630371094 95.53751373291016 139.9559326171875 174.8123321533203" stroke-width="3.0" fill="none" stroke="rgb(0, 0, 0)" stroke-opacity="1.0" stroke-linecap="round" stroke-linejoin="round"/>
    <path d="M 110.60391235351562 169.81057739257812 C 116.40567016601562 131.9549560546875 109.10442352294922 130.12457275390625 122.26758575439453 175.2120361328125" stroke-width="3.0" fill="none" stroke="rgb(0, 0, 0)" stroke-opacity="1.0" stroke-linecap="round" stroke-linejoin="round"/>
    <path d="M 63.51742172241211 166.3070068359375 C 69.8585205078125 146.48435974121094 128.28909301757812 162.53842163085938 78.50971984863281 100.44707489013672" stroke-width="3.0" fill="none" stroke="rgb(0, 0, 0)" stroke-opacity="1.0" stroke-linecap="round" stroke-linejoin="round"/>
    <path d="M 76.05795288085938 166.98756408691406 C 97.48896789550781 161.08724975585938 111.72222900390625 170.0364227294922 84.09510040283203 168.46444702148438" stroke-width="3.0" fill="none" stroke="rgb(0, 0, 0)" stroke-opacity="1.0" stroke-linecap="round" stroke-linejoin="round"/>
    <path d="M 114.44355773925781 168.6416778564453 C 66.6881103515625 169.84938049316406 79.90628814697266 155.48963928222656 105.50586700439453 154.8284912109375" stroke-width="3.0" fill="none" stroke="rgb(0, 0, 0)" stroke-opacity="1.0" stroke-linecap="round" stroke-linejoin="round"/>
    <path d="M 115.05745697021484 92.72471618652344 C 107.2802734375 103.07841491699219 142.8370361328125 98.24931335449219 114.34571838378906 89.99942779541016" stroke-width="3.0" fill="none" stroke="rgb(0, 0, 0)" stroke-opacity="1.0" stroke-linecap="round" stroke-linejoin="round"/>
    <path d="M 132.25375366210938 96.69822692871094 C 154.77676391601562 83.93726348876953 135.03085327148438 107.78993225097656 137.07763671875 98.04842376708984" stroke-width="3.0" fill="none" stroke="rgb(0, 0, 0)" stroke-opacity="1.0" stroke-linecap="round" stroke-linejoin="round"/>
  </g>
</svg>
