<?xml version="1.0" ?>
<svg xmlns="http://www.w3.org/2000/svg" version="1.1" width="224" height="224">
  <defs/>
  <g>
    <path d="M 86.07653045654297 161.94119262695312 C 152.31155395507812 164.8609161376953 106.21389770507812 175.79718017578125 117.71990203857422 139.43470764160156" stroke-width="3.0" fill="none" stroke="rgb(0, 0, 0)" stroke-opacity="1.0" stroke-linecap="round" stroke-linejoin="round"/>
    <path d="M 108.49711608886719 166.03187561035156 C 39.69368362426758 162.60867309570312 89.28749084472656 183.29220581054688 120.00444030761719 170.37440490722656" stroke-width="3.0" fill="none" stroke="rgb(0, 0, 0)" stroke-opacity="1.0" stroke-linecap="round" stroke-linejoin="round"/>
    <path d="M 124.01921844482422 179.80813598632812 C 154.1292266845703 183.74212646484375 141.50106811523438 173.4027099609375 142.54122924804688 168.2409210205078" stroke-width="3.0" fill="none" stroke="rgb(0, 0, 0)" stroke-opacity="1.0" stroke-linecap="round" stroke-linejoin="round"/>
    <path d="M 96.86103057861328 148.70289611816406 C 12.002952575683594 172.843017578125 116.88801574707031 195.69139099121094 125.53055572509766 169.0691375732422" stroke-width="3.0" fill="none" stroke="rgb(0, 0, 0)" stroke-opacity="1.0" stroke-linecap="round" stroke-linejoin="round"/>
    <path d="M 128.68626403808594 143.10205078125 C 133.615966796875 167.34829711914062 130.8784942626953 161.02757263183594 132.4530029296875 179.86337280273438" stroke-width="3.0" fill="none" stroke="rgb(0, 0, 0)" stroke-opacity="1.0" stroke-linecap="round" stroke-linejoin="round"/>
    <path d="M 121.0992431640625 173.30181884765625 C 125.30035400390625 172.50442504882812 102.56359100341797 182.18687438964844 82.08477783203125 179.27027893066406" stroke-width="3.0" fill="none" stroke="rgb(0, 0, 0)" stroke-opacity="1.0" stroke-linecap="round" stroke-linejoin="round"/>
    <path d="M 143.484130859375 163.36842346191406 C 155.8048553466797 158.64239501953125 147.04994201660156 158.46897888183594 146.33560180664062 134.63104248046875" stroke-width="3.0" fill="none" stroke="rgb(0, 0, 0)" stroke-opacity="1.0" stroke-linecap="round" stroke-linejoin="round"/>
    <path d="M 76.15098571777344 167.31871032714844 C 93.99590301513672 175.42811584472656 148.63868713378906 166.1337127685547 76.93750762939453 168.22593688964844" stroke-width="3.0" fill="none" stroke="rgb(0, 0, 0)" stroke-opacity="1.0" stroke-linecap="round" stroke-linejoin="round"/>
    <path d="M 123.27926635742188 177.9901885986328 C 121.25971221923828 179.2227325439453 122.6397933959961 161.01458740234375 122.56676483154297 168.31771850585938" stroke-width="3.0" fill="none" stroke="rgb(0, 0, 0)" stroke-opacity="1.0" stroke-linecap="round" stroke-linejoin="round"/>
    <path d="M 149.6021728515625 80.65022277832031 C 124.36653137207031 139.78494262695312 161.86802673339844 82.80028533935547 139.55728149414062 176.01925659179688" stroke-width="3.0" fill="none" stroke="rgb(0, 0, 0)" stroke-opacity="1.0" stroke-linecap="round" stroke-linejoin="round"/>
    <path d="M 114.04471588134766 163.0604705810547 C 96.35908508300781 175.75450134277344 98.7559814453125 148.4039764404297 117.43753051757812 169.0884246826172" stroke-width="3.0" fill="none" stroke="rgb(0, 0, 0)" stroke-opacity="1.0" stroke-linecap="round" stroke-linejoin="round"/>
    <path d="M 94.33547973632812 151.18458557128906 C 96.86422729492188 195.7021942138672 105.62139892578125 80.78865814208984 70.23927307128906 103.21843719482422" stroke-width="3.0" fill="none" stroke="rgb(0, 0, 0)" stroke-opacity="1.0" stroke-linecap="round" stroke-linejoin="round"/>
    <path d="M 94.40533447265625 158.16566467285156 C 117.80306243896484 169.38172912597656 148.16627502441406 170.44961547851562 84.0417251586914 162.14064025878906" stroke-width="3.0" fill="none" stroke="rgb(0, 0, 0)" stroke-opacity="1.0" stroke-linecap="round" stroke-linejoin="round"/>
    <path d="M 112.37097930908203 158.7699432373047 C 45.294857025146484 182.19651794433594 99.58372497558594 144.1257781982422 110.14170837402344 167.307861328125" stroke-width="3.0" fill="none" stroke="rgb(0, 0, 0)" stroke-opacity="1.0" stroke-linecap="round" stroke-linejoin="round"/>
    <path d="M 116.46305847167969 81.77515411376953 C 110.11550903320312 97.27935028076172 157.61007690429688 103.25408935546875 115.93040466308594 78.94075012207031" stroke-width="3.0" fill="none" stroke="rgb(0, 0, 0)" stroke-opacity="1.0" stroke-linecap="round" stroke-linejoin="round"/>
    <path d="M 120.05479431152344 94.62802124023438 C 147.49851989746094 67.95281219482422 167.1492462158203 109.53685760498047 122.02764892578125 99.58706665039062" stroke-width="3.0" fill="none" stroke="rgb(0, 0, 0)" stroke-opacity="1.0" stroke-linecap="round" stroke-linejoin="round"/>
  </g>
</svg>
