<?xml version="1.0" ?>
<svg xmlns="http://www.w3.org/2000/svg" version="1.1" width="224" height="224">
  <defs/>
  <g>
    <path d="M 84.08042907714844 170.55726623535156 C 125.9771728515625 170.40557861328125 87.18376922607422 183.1729278564453 104.53797912597656 135.77633666992188" stroke-width="3.0" fill="none" stroke="rgb(0, 0, 0)" stroke-opacity="1.0" stroke-linecap="round" stroke-linejoin="round"/>
    <path d="M 117.065185546875 171.78773498535156 C 36.69646453857422 151.54681396484375 84.3199234008789 185.0643768310547 122.73240661621094 170.48068237304688" stroke-width="3.0" fill="none" stroke="rgb(0, 0, 0)" stroke-opacity="1.0" stroke-linecap="round" stroke-linejoin="round"/>
    <path d="M 124.40771484375 176.9799346923828 C 154.30796813964844 180.76422119140625 138.64942932128906 166.4556884765625 141.77296447753906 168.30751037597656" stroke-width="3.0" fill="none" stroke="rgb(0, 0, 0)" stroke-opacity="1.0" stroke-linecap="round" stroke-linejoin="round"/>
    <path d="M 71.94853210449219 156.6658172607422 C 34.318607330322266 178.28269958496094 133.7298126220703 186.54830932617188 112.97099304199219 170.67840576171875" stroke-width="3.0" fill="none" stroke="rgb(0, 0, 0)" stroke-opacity="1.0" stroke-linecap="round" stroke-linejoin="round"/>
    <path d="M 128.33995056152344 141.25975036621094 C 130.43394470214844 154.68544006347656 127.35214233398438 150.93739318847656 127.73497772216797 175.72958374023438" stroke-width="3.0" fill="none" stroke="rgb(0, 0, 0)" stroke-opacity="1.0" stroke-linecap="round" stroke-linejoin="round"/>
    <path d="M 121.88853454589844 172.76829528808594 C 118.63619995117188 178.13299560546875 95.96129608154297 178.2678680419922 91.31182861328125 178.14671325683594" stroke-width="3.0" fill="none" stroke="rgb(0, 0, 0)" stroke-opacity="1.0" stroke-linecap="round" stroke-linejoin="round"/>
    <path d="M 144.0630340576172 165.0886688232422 C 157.11782836914062 158.93975830078125 146.1770477294922 150.68878173828125 146.9615478515625 136.1125030517578" stroke-width="3.0" fill="none" stroke="rgb(0, 0, 0)" stroke-opacity="1.0" stroke-linecap="round" stroke-linejoin="round"/>
    <path d="M 76.50523376464844 163.667236328125 C 98.30181884765625 178.3746795654297 158.23558044433594 156.97633361816406 79.5560302734375 164.61883544921875" stroke-width="3.0" fill="none" stroke="rgb(0, 0, 0)" stroke-opacity="1.0" stroke-linecap="round" stroke-linejoin="round"/>
    <path d="M 129.12815856933594 165.0448760986328 C 140.10623168945312 177.90789794921875 117.67713165283203 173.20729064941406 139.37054443359375 176.00177001953125" stroke-width="3.0" fill="none" stroke="rgb(0, 0, 0)" stroke-opacity="1.0" stroke-linecap="round" stroke-linejoin="round"/>
    <path d="M 150.68690490722656 84.70619201660156 C 129.95242309570312 140.9152069091797 157.1399688720703 80.02285766601562 141.9870147705078 167.81301879882812" stroke-width="3.0" fill="none" stroke="rgb(0, 0, 0)" stroke-opacity="1.0" stroke-linecap="round" stroke-linejoin="round"/>
    <path d="M 113.9304428100586 164.57484436035156 C 102.8136978149414 151.88038635253906 89.7608413696289 151.35845947265625 124.87635040283203 174.84783935546875" stroke-width="3.0" fill="none" stroke="rgb(0, 0, 0)" stroke-opacity="1.0" stroke-linecap="round" stroke-linejoin="round"/>
    <path d="M 75.61634063720703 154.7897491455078 C 64.20365905761719 158.97946166992188 134.64581298828125 134.58848571777344 74.62430572509766 101.57179260253906" stroke-width="3.0" fill="none" stroke="rgb(0, 0, 0)" stroke-opacity="1.0" stroke-linecap="round" stroke-linejoin="round"/>
    <path d="M 85.28355407714844 161.63661193847656 C 114.33602905273438 172.2281951904297 145.7664794921875 157.4124298095703 87.83806610107422 163.87591552734375" stroke-width="3.0" fill="none" stroke="rgb(0, 0, 0)" stroke-opacity="1.0" stroke-linecap="round" stroke-linejoin="round"/>
    <path d="M 110.52143859863281 166.60049438476562 C 50.97105026245117 177.65541076660156 77.9225082397461 154.1535186767578 114.61825561523438 159.84938049316406" stroke-width="3.0" fill="none" stroke="rgb(0, 0, 0)" stroke-opacity="1.0" stroke-linecap="round" stroke-linejoin="round"/>
    <path d="M 116.54624938964844 81.87073516845703 C 109.75292205810547 98.95641326904297 159.4893035888672 105.12654113769531 116.16426849365234 79.41608428955078" stroke-width="3.0" fill="none" stroke="rgb(0, 0, 0)" stroke-opacity="1.0" stroke-linecap="round" stroke-linejoin="round"/>
    <path d="M 118.06716918945312 96.31868743896484 C 171.47613525390625 67.47179412841797 137.9339599609375 111.0167007446289 139.3828887939453 96.25423431396484" stroke-width="3.0" fill="none" stroke="rgb(0, 0, 0)" stroke-opacity="1.0" stroke-linecap="round" stroke-linejoin="round"/>
  </g>
</svg>
