<?xml version="1.0" ?>
<svg xmlns="http://www.w3.org/2000/svg" version="1.1" width="224" height="224">
  <defs/>
  <g>
    <path d="M 78.10981750488281 163.3809356689453 C 138.56361389160156 152.17857360839844 97.50679016113281 165.6185760498047 109.20146942138672 141.5843963623047" stroke-width="3.0" fill="none" stroke="rgb(0, 0, 0)" stroke-opacity="1.0" stroke-linecap="round" stroke-linejoin="round"/>
    <path d="M 117.526611328125 167.8808135986328 C 37.85409164428711 153.82545471191406 84.91498565673828 181.21023559570312 118.45221710205078 168.3204345703125" stroke-width="3.0" fill="none" stroke="rgb(0, 0, 0)" stroke-opacity="1.0" stroke-linecap="round" stroke-linejoin="round"/>
    <path d="M 121.74956512451172 176.10321044921875 C 153.13485717773438 187.32090759277344 142.42916870117188 171.34555053710938 141.36517333984375 166.03245544433594" stroke-width="3.0" fill="none" stroke="rgb(0, 0, 0)" stroke-opacity="1.0" stroke-linecap="round" stroke-linejoin="round"/>
    <path d="M 92.85665130615234 145.85946655273438 C 12.584060668945312 173.6526641845703 117.85077667236328 189.01541137695312 124.77001953125 167.4710693359375" stroke-width="3.0" fill="none" stroke="rgb(0, 0, 0)" stroke-opacity="1.0" stroke-linecap="round" stroke-linejoin="round"/>
    <path d="M 125.06893157958984 139.80224609375 C 131.2875518798828 161.6627655029297 129.2007293701172 147.6167755126953 131.5399169921875 174.66065979003906" stroke-width="3.0" fill="none" stroke="rgb(0, 0, 0)" stroke-opacity="1.0" stroke-linecap="round" stroke-linejoin="round"/>
    <path d="M 123.35620880126953 167.0225372314453 C 131.7647705078125 172.8496856689453 98.87384796142578 181.9349365234375 77.8388900756836 175.59165954589844" stroke-width="3.0" fill="none" stroke="rgb(0, 0, 0)" stroke-opacity="1.0" stroke-linecap="round" stroke-linejoin="round"/>
    <path d="M 145.65701293945312 166.8118438720703 C 156.96505737304688 162.7981414794922 147.98501586914062 149.45950317382812 145.82557678222656 131.89968872070312" stroke-width="3.0" fill="none" stroke="rgb(0, 0, 0)" stroke-opacity="1.0" stroke-linecap="round" stroke-linejoin="round"/>
    <path d="M 77.15886688232422 164.68426513671875 C 88.52892303466797 170.85595703125 142.22193908691406 162.21536254882812 83.49456024169922 162.47650146484375" stroke-width="3.0" fill="none" stroke="rgb(0, 0, 0)" stroke-opacity="1.0" stroke-linecap="round" stroke-linejoin="round"/>
    <path d="M 127.54862976074219 174.98910522460938 C 132.92967224121094 181.6013641357422 124.46476745605469 163.0240020751953 124.39580535888672 165.57052612304688" stroke-width="3.0" fill="none" stroke="rgb(0, 0, 0)" stroke-opacity="1.0" stroke-linecap="round" stroke-linejoin="round"/>
    <path d="M 147.71664428710938 81.40308380126953 C 126.16182708740234 135.99267578125 158.5970916748047 77.91483306884766 139.7269287109375 175.0405731201172" stroke-width="3.0" fill="none" stroke="rgb(0, 0, 0)" stroke-opacity="1.0" stroke-linecap="round" stroke-linejoin="round"/>
    <path d="M 112.20144653320312 170.14804077148438 C 94.03398132324219 168.5896453857422 90.24230194091797 146.5592041015625 123.55148315429688 172.30625915527344" stroke-width="3.0" fill="none" stroke="rgb(0, 0, 0)" stroke-opacity="1.0" stroke-linecap="round" stroke-linejoin="round"/>
    <path d="M 97.19503784179688 151.29933166503906 C 87.06061553955078 188.88345336914062 109.70951843261719 91.53538513183594 74.1788558959961 104.75747680664062" stroke-width="3.0" fill="none" stroke="rgb(0, 0, 0)" stroke-opacity="1.0" stroke-linecap="round" stroke-linejoin="round"/>
    <path d="M 90.08700561523438 163.84991455078125 C 116.22655487060547 170.7938995361328 150.9268798828125 163.77647399902344 89.2809829711914 170.1856231689453" stroke-width="3.0" fill="none" stroke="rgb(0, 0, 0)" stroke-opacity="1.0" stroke-linecap="round" stroke-linejoin="round"/>
    <path d="M 106.3799819946289 165.44268798828125 C 44.433170318603516 177.3028564453125 91.78838348388672 141.5933837890625 106.84123229980469 166.6592254638672" stroke-width="3.0" fill="none" stroke="rgb(0, 0, 0)" stroke-opacity="1.0" stroke-linecap="round" stroke-linejoin="round"/>
    <path d="M 119.23965454101562 83.13526916503906 C 112.6904525756836 101.33755493164062 162.4087677001953 103.35282135009766 117.94171905517578 81.01092529296875" stroke-width="3.0" fill="none" stroke="rgb(0, 0, 0)" stroke-opacity="1.0" stroke-linecap="round" stroke-linejoin="round"/>
    <path d="M 116.664306640625 101.7179183959961 C 150.17088317871094 70.38864135742188 158.2857666015625 107.78722381591797 124.84967041015625 100.10320281982422" stroke-width="3.0" fill="none" stroke="rgb(0, 0, 0)" stroke-opacity="1.0" stroke-linecap="round" stroke-linejoin="round"/>
  </g>
</svg>
