<?xml version="1.0" ?>
<svg xmlns="http://www.w3.org/2000/svg" version="1.1" width="224" height="224">
  <defs/>
  <g>
    <path d="M 76.58657836914062 166.20460510253906 C 113.48181915283203 152.99212646484375 95.98161315917969 180.15272521972656 99.40668487548828 143.8541259765625" stroke-width="3.0" fill="none" stroke="rgb(0, 0, 0)" stroke-opacity="1.0" stroke-linecap="round" stroke-linejoin="round"/>
    <path d="M 106.03828430175781 165.1684112548828 C 36.509883880615234 151.002685546875 79.80171203613281 188.84783935546875 123.3572769165039 171.92984008789062" stroke-width="3.0" fill="none" stroke="rgb(0, 0, 0)" stroke-opacity="1.0" stroke-linecap="round" stroke-linejoin="round"/>
    <path d="M 131.1268768310547 177.44992065429688 C 154.0408935546875 180.22433471679688 140.3192901611328 168.95884704589844 143.63563537597656 170.10447692871094" stroke-width="3.0" fill="none" stroke="rgb(0, 0, 0)" stroke-opacity="1.0" stroke-linecap="round" stroke-linejoin="round"/>
    <path d="M 65.24308776855469 166.2180633544922 C 62.62066650390625 179.20704650878906 109.25082397460938 175.57362365722656 86.88294219970703 175.708251953125" stroke-width="3.0" fill="none" stroke="rgb(0, 0, 0)" stroke-opacity="1.0" stroke-linecap="round" stroke-linejoin="round"/>
    <path d="M 130.6366729736328 144.80360412597656 C 129.10203552246094 148.5355987548828 131.40945434570312 147.6409149169922 130.8972625732422 175.94020080566406" stroke-width="3.0" fill="none" stroke="rgb(0, 0, 0)" stroke-opacity="1.0" stroke-linecap="round" stroke-linejoin="round"/>
    <path d="M 119.28817749023438 166.0568389892578 C 121.01505279541016 163.6931610107422 96.37963104248047 169.78778076171875 82.56526947021484 165.7266082763672" stroke-width="3.0" fill="none" stroke="rgb(0, 0, 0)" stroke-opacity="1.0" stroke-linecap="round" stroke-linejoin="round"/>
    <path d="M 144.81875610351562 161.62982177734375 C 153.94480895996094 157.9690399169922 150.83689880371094 160.73403930664062 146.0362548828125 137.1974639892578" stroke-width="3.0" fill="none" stroke="rgb(0, 0, 0)" stroke-opacity="1.0" stroke-linecap="round" stroke-linejoin="round"/>
    <path d="M 71.03731536865234 165.4849853515625 C 94.38751983642578 176.17723083496094 152.66128540039062 164.42262268066406 97.36723327636719 157.08639526367188" stroke-width="3.0" fill="none" stroke="rgb(0, 0, 0)" stroke-opacity="1.0" stroke-linecap="round" stroke-linejoin="round"/>
    <path d="M 135.7344970703125 170.4514617919922 C 143.83966064453125 181.01759338378906 110.4765853881836 173.71847534179688 129.72958374023438 175.68743896484375" stroke-width="3.0" fill="none" stroke="rgb(0, 0, 0)" stroke-opacity="1.0" stroke-linecap="round" stroke-linejoin="round"/>
    <path d="M 143.07492065429688 103.77559661865234 C 130.95465087890625 129.0106658935547 155.77426147460938 94.27408599853516 142.5724334716797 169.93142700195312" stroke-width="3.0" fill="none" stroke="rgb(0, 0, 0)" stroke-opacity="1.0" stroke-linecap="round" stroke-linejoin="round"/>
    <path d="M 110.32563018798828 167.1475830078125 C 120.06961822509766 123.29595947265625 113.22451782226562 119.94982147216797 123.98403930664062 175.84278869628906" stroke-width="3.0" fill="none" stroke="rgb(0, 0, 0)" stroke-opacity="1.0" stroke-linecap="round" stroke-linejoin="round"/>
    <path d="M 64.86056518554688 166.0200958251953 C 70.59323120117188 145.8880615234375 129.8430938720703 170.65232849121094 78.29998779296875 98.5826644897461" stroke-width="3.0" fill="none" stroke="rgb(0, 0, 0)" stroke-opacity="1.0" stroke-linecap="round" stroke-linejoin="round"/>
    <path d="M 71.82355499267578 165.3251495361328 C 100.46867370605469 149.08192443847656 113.7656021118164 155.50857543945312 78.4676513671875 169.14468383789062" stroke-width="3.0" fill="none" stroke="rgb(0, 0, 0)" stroke-opacity="1.0" stroke-linecap="round" stroke-linejoin="round"/>
    <path d="M 118.49433135986328 165.3271026611328 C 74.53459167480469 160.4352264404297 85.04589080810547 155.20611572265625 111.81903076171875 150.32398986816406" stroke-width="3.0" fill="none" stroke="rgb(0, 0, 0)" stroke-opacity="1.0" stroke-linecap="round" stroke-linejoin="round"/>
    <path d="M 120.5247802734375 87.50353240966797 C 114.40184783935547 104.10009765625 142.10227966308594 98.8063735961914 118.12358856201172 84.79197692871094" stroke-width="3.0" fill="none" stroke="rgb(0, 0, 0)" stroke-opacity="1.0" stroke-linecap="round" stroke-linejoin="round"/>
    <path d="M 133.67486572265625 96.37307739257812 C 154.1402130126953 82.91983032226562 133.04376220703125 108.51819610595703 135.8035430908203 96.83295440673828" stroke-width="3.0" fill="none" stroke="rgb(0, 0, 0)" stroke-opacity="1.0" stroke-linecap="round" stroke-linejoin="round"/>
  </g>
</svg>
