<?xml version="1.0" ?>
<svg xmlns="http://www.w3.org/2000/svg" version="1.1" width="224" height="224">
  <defs/>
  <g>
    <path d="M 95.52882385253906 160.9459686279297 C 108.60696411132812 163.3612060546875 96.94277954101562 176.150146484375 100.22320556640625 142.9108123779297" stroke-width="3.0" fill="none" stroke="rgb(0, 0, 0)" stroke-opacity="1.0" stroke-linecap="round" stroke-linejoin="round"/>
    <path d="M 102.90113830566406 163.65530395507812 C 53.46235656738281 156.66116333007812 81.01898956298828 184.28256225585938 120.87980651855469 171.57826232910156" stroke-width="3.0" fill="none" stroke="rgb(0, 0, 0)" stroke-opacity="1.0" stroke-linecap="round" stroke-linejoin="round"/>
    <path d="M 127.95526123046875 176.27914428710938 C 153.50460815429688 180.55372619628906 142.03115844726562 170.1577606201172 142.2766571044922 171.3601531982422" stroke-width="3.0" fill="none" stroke="rgb(0, 0, 0)" stroke-opacity="1.0" stroke-linecap="round" stroke-linejoin="round"/>
    <path d="M 66.28681182861328 164.87210083007812 C 65.15181732177734 177.0264129638672 108.13231658935547 174.1980438232422 92.56694793701172 173.53123474121094" stroke-width="3.0" fill="none" stroke="rgb(0, 0, 0)" stroke-opacity="1.0" stroke-linecap="round" stroke-linejoin="round"/>
    <path d="M 134.41246032714844 140.68682861328125 C 125.0611343383789 152.13987731933594 136.07327270507812 148.29067993164062 131.59336853027344 173.43052673339844" stroke-width="3.0" fill="none" stroke="rgb(0, 0, 0)" stroke-opacity="1.0" stroke-linecap="round" stroke-linejoin="round"/>
    <path d="M 118.02709197998047 165.9369659423828 C 119.43255615234375 163.8981170654297 93.04207611083984 167.28187561035156 72.241455078125 164.95452880859375" stroke-width="3.0" fill="none" stroke="rgb(0, 0, 0)" stroke-opacity="1.0" stroke-linecap="round" stroke-linejoin="round"/>
    <path d="M 145.39512634277344 168.4971466064453 C 155.5690155029297 165.59658813476562 152.69247436523438 156.9097137451172 146.9054718017578 140.32675170898438" stroke-width="3.0" fill="none" stroke="rgb(0, 0, 0)" stroke-opacity="1.0" stroke-linecap="round" stroke-linejoin="round"/>
    <path d="M 72.41846466064453 166.18380737304688 C 84.36736297607422 180.2607421875 146.15003967285156 165.1827392578125 112.5603256225586 169.06982421875" stroke-width="3.0" fill="none" stroke="rgb(0, 0, 0)" stroke-opacity="1.0" stroke-linecap="round" stroke-linejoin="round"/>
    <path d="M 133.5226593017578 169.9697265625 C 141.7584686279297 184.41201782226562 114.88615417480469 172.1233367919922 129.31201171875 175.9014434814453" stroke-width="3.0" fill="none" stroke="rgb(0, 0, 0)" stroke-opacity="1.0" stroke-linecap="round" stroke-linejoin="round"/>
    <path d="M 143.67701721191406 97.61962127685547 C 134.04486083984375 121.64237976074219 161.78700256347656 97.56517028808594 142.59786987304688 165.1457061767578" stroke-width="3.0" fill="none" stroke="rgb(0, 0, 0)" stroke-opacity="1.0" stroke-linecap="round" stroke-linejoin="round"/>
    <path d="M 104.54637145996094 167.75633239746094 C 122.6574478149414 108.80354309082031 116.82848358154297 105.63155364990234 126.25338745117188 176.04855346679688" stroke-width="3.0" fill="none" stroke="rgb(0, 0, 0)" stroke-opacity="1.0" stroke-linecap="round" stroke-linejoin="round"/>
    <path d="M 65.87159729003906 166.16102600097656 C 73.32064056396484 144.89996337890625 129.61260986328125 167.8798370361328 79.43002319335938 98.81886291503906" stroke-width="3.0" fill="none" stroke="rgb(0, 0, 0)" stroke-opacity="1.0" stroke-linecap="round" stroke-linejoin="round"/>
    <path d="M 82.75627136230469 162.48731994628906 C 103.6465835571289 158.54283142089844 108.26435089111328 145.14532470703125 72.22461700439453 164.88572692871094" stroke-width="3.0" fill="none" stroke="rgb(0, 0, 0)" stroke-opacity="1.0" stroke-linecap="round" stroke-linejoin="round"/>
    <path d="M 106.97346496582031 157.14602661132812 C 82.97734069824219 157.1359100341797 98.55728149414062 156.49688720703125 121.47876739501953 164.62777709960938" stroke-width="3.0" fill="none" stroke="rgb(0, 0, 0)" stroke-opacity="1.0" stroke-linecap="round" stroke-linejoin="round"/>
    <path d="M 118.59646606445312 84.7151107788086 C 115.99378967285156 99.23916625976562 135.65924072265625 95.94916534423828 117.50894927978516 81.95592498779297" stroke-width="3.0" fill="none" stroke="rgb(0, 0, 0)" stroke-opacity="1.0" stroke-linecap="round" stroke-linejoin="round"/>
    <path d="M 130.79241943359375 93.53520202636719 C 149.34840393066406 81.16160583496094 133.23538208007812 103.70306396484375 133.22586059570312 91.63245391845703" stroke-width="3.0" fill="none" stroke="rgb(0, 0, 0)" stroke-opacity="1.0" stroke-linecap="round" stroke-linejoin="round"/>
  </g>
</svg>
