<?xml version="1.0" ?>
<svg xmlns="http://www.w3.org/2000/svg" version="1.1" width="224" height="224">
  <defs/>
  <g>
    <path d="M 78.1312484741211 162.2286376953125 C 112.3667984008789 150.84945678710938 92.51095581054688 177.4104461669922 99.39886474609375 143.32118225097656" stroke-width="3.0" fill="none" stroke="rgb(0, 0, 0)" stroke-opacity="1.0" stroke-linecap="round" stroke-linejoin="round"/>
    <path d="M 106.53067779541016 164.83779907226562 C 38.3866081237793 153.03167724609375 79.65928649902344 189.7307891845703 125.76848602294922 171.88694763183594" stroke-width="3.0" fill="none" stroke="rgb(0, 0, 0)" stroke-opacity="1.0" stroke-linecap="round" stroke-linejoin="round"/>
    <path d="M 130.83119201660156 176.51107788085938 C 154.84130859375 176.85231018066406 142.38429260253906 168.2620849609375 143.45567321777344 172.436767578125" stroke-width="3.0" fill="none" stroke="rgb(0, 0, 0)" stroke-opacity="1.0" stroke-linecap="round" stroke-linejoin="round"/>
    <path d="M 62.16094970703125 167.23544311523438 C 60.902854919433594 180.6678466796875 108.31307983398438 177.69830322265625 87.1271743774414 176.51551818847656" stroke-width="3.0" fill="none" stroke="rgb(0, 0, 0)" stroke-opacity="1.0" stroke-linecap="round" stroke-linejoin="round"/>
    <path d="M 129.13099670410156 145.21815490722656 C 129.95680236816406 149.75987243652344 130.69960021972656 145.92173767089844 127.95532989501953 177.65719604492188" stroke-width="3.0" fill="none" stroke="rgb(0, 0, 0)" stroke-opacity="1.0" stroke-linecap="round" stroke-linejoin="round"/>
    <path d="M 119.203369140625 167.79673767089844 C 120.24165344238281 162.25503540039062 94.96517181396484 167.20462036132812 82.69575500488281 165.50799560546875" stroke-width="3.0" fill="none" stroke="rgb(0, 0, 0)" stroke-opacity="1.0" stroke-linecap="round" stroke-linejoin="round"/>
    <path d="M 147.5989227294922 162.49598693847656 C 153.97132873535156 156.658935546875 151.00466918945312 160.0509796142578 145.6907958984375 139.80624389648438" stroke-width="3.0" fill="none" stroke="rgb(0, 0, 0)" stroke-opacity="1.0" stroke-linecap="round" stroke-linejoin="round"/>
    <path d="M 72.41899108886719 165.1409149169922 C 93.1292495727539 176.66531372070312 149.76258850097656 165.8686981201172 96.47306823730469 157.89529418945312" stroke-width="3.0" fill="none" stroke="rgb(0, 0, 0)" stroke-opacity="1.0" stroke-linecap="round" stroke-linejoin="round"/>
    <path d="M 133.72264099121094 170.46258544921875 C 141.30429077148438 182.18832397460938 109.74807739257812 174.8096923828125 129.6025390625 176.91378784179688" stroke-width="3.0" fill="none" stroke="rgb(0, 0, 0)" stroke-opacity="1.0" stroke-linecap="round" stroke-linejoin="round"/>
    <path d="M 145.3893280029297 102.40198516845703 C 130.8056640625 127.0370864868164 156.90773010253906 91.37107849121094 141.116943359375 172.11709594726562" stroke-width="3.0" fill="none" stroke="rgb(0, 0, 0)" stroke-opacity="1.0" stroke-linecap="round" stroke-linejoin="round"/>
    <path d="M 109.52523040771484 167.49575805664062 C 113.84354400634766 122.98946380615234 106.8565902709961 121.42988586425781 122.28765869140625 177.45252990722656" stroke-width="3.0" fill="none" stroke="rgb(0, 0, 0)" stroke-opacity="1.0" stroke-linecap="round" stroke-linejoin="round"/>
    <path d="M 62.53901672363281 166.44500732421875 C 70.76260375976562 144.51290893554688 129.1638641357422 168.2403106689453 78.55886840820312 101.0476303100586" stroke-width="3.0" fill="none" stroke="rgb(0, 0, 0)" stroke-opacity="1.0" stroke-linecap="round" stroke-linejoin="round"/>
    <path d="M 75.72168731689453 166.00633239746094 C 104.21815490722656 152.970458984375 112.90225219726562 151.8927459716797 80.2476577758789 165.86819458007812" stroke-width="3.0" fill="none" stroke="rgb(0, 0, 0)" stroke-opacity="1.0" stroke-linecap="round" stroke-linejoin="round"/>
    <path d="M 118.54554748535156 163.05889892578125 C 74.36261749267578 159.64068603515625 85.48509979248047 158.83251953125 111.94735717773438 158.8401336669922" stroke-width="3.0" fill="none" stroke="rgb(0, 0, 0)" stroke-opacity="1.0" stroke-linecap="round" stroke-linejoin="round"/>
    <path d="M 121.05078125 84.5206298828125 C 118.37893676757812 103.72503662109375 140.56826782226562 100.944091796875 119.18265533447266 82.6349868774414" stroke-width="3.0" fill="none" stroke="rgb(0, 0, 0)" stroke-opacity="1.0" stroke-linecap="round" stroke-linejoin="round"/>
    <path d="M 132.6859130859375 95.94558715820312 C 153.3963623046875 84.3594970703125 131.87240600585938 108.07677459716797 135.57037353515625 96.30998992919922" stroke-width="3.0" fill="none" stroke="rgb(0, 0, 0)" stroke-opacity="1.0" stroke-linecap="round" stroke-linejoin="round"/>
  </g>
</svg>
