<?xml version="1.0" ?>
<svg xmlns="http://www.w3.org/2000/svg" version="1.1" width="224" height="224">
  <defs/>
  <g>
    <path d="M 77.49411010742188 162.6797332763672 C 135.80224609375 155.01925659179688 95.72464752197266 173.42529296875 107.21928405761719 138.1762237548828" stroke-width="3.0" fill="none" stroke="rgb(0, 0, 0)" stroke-opacity="1.0" stroke-linecap="round" stroke-linejoin="round"/>
    <path d="M 118.33573150634766 167.845703125 C 37.94791030883789 154.46937561035156 85.6562728881836 180.78244018554688 118.51111602783203 168.27786254882812" stroke-width="3.0" fill="none" stroke="rgb(0, 0, 0)" stroke-opacity="1.0" stroke-linecap="round" stroke-linejoin="round"/>
    <path d="M 121.12743377685547 176.13644409179688 C 152.51084899902344 186.73097229003906 141.81143188476562 171.37933349609375 142.1689453125 167.24830627441406" stroke-width="3.0" fill="none" stroke="rgb(0, 0, 0)" stroke-opacity="1.0" stroke-linecap="round" stroke-linejoin="round"/>
    <path d="M 91.09428405761719 148.9215087890625 C 15.708610534667969 172.9005584716797 121.39552307128906 189.40625 123.93875885009766 166.51266479492188" stroke-width="3.0" fill="none" stroke="rgb(0, 0, 0)" stroke-opacity="1.0" stroke-linecap="round" stroke-linejoin="round"/>
    <path d="M 124.48975372314453 141.5847625732422 C 130.22549438476562 163.63145446777344 127.71707153320312 148.8876953125 131.04150390625 177.14683532714844" stroke-width="3.0" fill="none" stroke="rgb(0, 0, 0)" stroke-opacity="1.0" stroke-linecap="round" stroke-linejoin="round"/>
    <path d="M 121.50650024414062 167.5045166015625 C 131.36915588378906 173.12030029296875 98.9403305053711 181.82008361816406 78.1994857788086 175.33558654785156" stroke-width="3.0" fill="none" stroke="rgb(0, 0, 0)" stroke-opacity="1.0" stroke-linecap="round" stroke-linejoin="round"/>
    <path d="M 146.03097534179688 166.74472045898438 C 155.58119201660156 162.98712158203125 145.3587646484375 151.81716918945312 146.26568603515625 131.0496368408203" stroke-width="3.0" fill="none" stroke="rgb(0, 0, 0)" stroke-opacity="1.0" stroke-linecap="round" stroke-linejoin="round"/>
    <path d="M 76.84461975097656 165.27432250976562 C 88.420166015625 170.55470275878906 142.22030639648438 161.53302001953125 83.38272857666016 160.94345092773438" stroke-width="3.0" fill="none" stroke="rgb(0, 0, 0)" stroke-opacity="1.0" stroke-linecap="round" stroke-linejoin="round"/>
    <path d="M 127.13509368896484 175.49188232421875 C 133.5846405029297 181.7866973876953 123.068603515625 165.32928466796875 131.80113220214844 168.5547637939453" stroke-width="3.0" fill="none" stroke="rgb(0, 0, 0)" stroke-opacity="1.0" stroke-linecap="round" stroke-linejoin="round"/>
    <path d="M 147.64024353027344 81.28715515136719 C 124.87248992919922 136.77830505371094 159.3549346923828 78.27818298339844 139.30740356445312 174.13919067382812" stroke-width="3.0" fill="none" stroke="rgb(0, 0, 0)" stroke-opacity="1.0" stroke-linecap="round" stroke-linejoin="round"/>
    <path d="M 112.43241119384766 169.77931213378906 C 94.59696960449219 169.25784301757812 89.95469665527344 150.12535095214844 124.02667999267578 171.78515625" stroke-width="3.0" fill="none" stroke="rgb(0, 0, 0)" stroke-opacity="1.0" stroke-linecap="round" stroke-linejoin="round"/>
    <path d="M 102.3838882446289 152.11395263671875 C 87.54097747802734 187.59750366210938 111.7062759399414 92.4186782836914 74.6970443725586 105.37265014648438" stroke-width="3.0" fill="none" stroke="rgb(0, 0, 0)" stroke-opacity="1.0" stroke-linecap="round" stroke-linejoin="round"/>
    <path d="M 91.03913116455078 164.44583129882812 C 115.13783264160156 174.3048095703125 150.42189025878906 165.26609802246094 89.34844970703125 169.7988739013672" stroke-width="3.0" fill="none" stroke="rgb(0, 0, 0)" stroke-opacity="1.0" stroke-linecap="round" stroke-linejoin="round"/>
    <path d="M 106.3578872680664 167.10084533691406 C 47.79662322998047 177.9374542236328 93.68289947509766 140.5609893798828 110.39183044433594 164.8954315185547" stroke-width="3.0" fill="none" stroke="rgb(0, 0, 0)" stroke-opacity="1.0" stroke-linecap="round" stroke-linejoin="round"/>
    <path d="M 119.05303955078125 82.99066925048828 C 113.98499298095703 102.19304656982422 161.9403076171875 104.19621276855469 117.71391296386719 82.3545913696289" stroke-width="3.0" fill="none" stroke="rgb(0, 0, 0)" stroke-opacity="1.0" stroke-linecap="round" stroke-linejoin="round"/>
    <path d="M 115.63341522216797 101.10099029541016 C 150.71673583984375 69.28153228759766 157.78863525390625 108.84458923339844 127.33502197265625 98.94463348388672" stroke-width="3.0" fill="none" stroke="rgb(0, 0, 0)" stroke-opacity="1.0" stroke-linecap="round" stroke-linejoin="round"/>
  </g>
</svg>
