<?xml version="1.0" ?>
<svg xmlns="http://www.w3.org/2000/svg" version="1.1" width="224" height="224">
  <defs/>
  <g>
    <path d="M 87.37589263916016 165.80728149414062 C 99.43900299072266 176.1963653564453 93.38265228271484 184.156982421875 99.92440795898438 142.12547302246094" stroke-width="3.0" fill="none" stroke="rgb(0, 0, 0)" stroke-opacity="1.0" stroke-linecap="round" stroke-linejoin="round"/>
    <path d="M 94.51473999023438 166.3620147705078 C 93.08734130859375 167.8070068359375 89.2738037109375 182.4727020263672 121.28970336914062 168.862548828125" stroke-width="3.0" fill="none" stroke="rgb(0, 0, 0)" stroke-opacity="1.0" stroke-linecap="round" stroke-linejoin="round"/>
    <path d="M 128.3580322265625 179.2985076904297 C 153.2389678955078 179.40464782714844 132.64585876464844 174.87750244140625 141.46798706054688 158.59376525878906" stroke-width="3.0" fill="none" stroke="rgb(0, 0, 0)" stroke-opacity="1.0" stroke-linecap="round" stroke-linejoin="round"/>
    <path d="M 69.2472152709961 168.22816467285156 C 75.86490631103516 180.16990661621094 99.60343933105469 171.2284393310547 82.35620880126953 176.01011657714844" stroke-width="3.0" fill="none" stroke="rgb(0, 0, 0)" stroke-opacity="1.0" stroke-linecap="round" stroke-linejoin="round"/>
    <path d="M 137.79478454589844 139.12396240234375 C 131.88189697265625 151.5256805419922 134.04638671875 137.7610321044922 130.8036651611328 168.10975646972656" stroke-width="3.0" fill="none" stroke="rgb(0, 0, 0)" stroke-opacity="1.0" stroke-linecap="round" stroke-linejoin="round"/>
    <path d="M 108.30403137207031 151.90562438964844 C 114.7648696899414 166.89669799804688 84.51231384277344 175.27565002441406 75.68082427978516 169.35060119628906" stroke-width="3.0" fill="none" stroke="rgb(0, 0, 0)" stroke-opacity="1.0" stroke-linecap="round" stroke-linejoin="round"/>
    <path d="M 147.9691925048828 163.97671508789062 C 151.83453369140625 164.06707763671875 149.04505920410156 152.76849365234375 149.92613220214844 159.89999389648438" stroke-width="3.0" fill="none" stroke="rgb(0, 0, 0)" stroke-opacity="1.0" stroke-linecap="round" stroke-linejoin="round"/>
    <path d="M 70.30760192871094 164.74542236328125 C 79.57450103759766 181.6097869873047 115.64012145996094 174.14320373535156 99.1977767944336 171.328369140625" stroke-width="3.0" fill="none" stroke="rgb(0, 0, 0)" stroke-opacity="1.0" stroke-linecap="round" stroke-linejoin="round"/>
    <path d="M 130.4893035888672 165.20184326171875 C 124.0916519165039 187.66748046875 125.23548126220703 174.83316040039062 132.62777709960938 176.99957275390625" stroke-width="3.0" fill="none" stroke="rgb(0, 0, 0)" stroke-opacity="1.0" stroke-linecap="round" stroke-linejoin="round"/>
    <path d="M 140.04095458984375 102.65778350830078 C 131.6735382080078 123.06591796875 152.8252716064453 104.50109100341797 148.93173217773438 155.9156951904297" stroke-width="3.0" fill="none" stroke="rgb(0, 0, 0)" stroke-opacity="1.0" stroke-linecap="round" stroke-linejoin="round"/>
    <path d="M 105.27146911621094 169.08419799804688 C 118.98016357421875 110.2053451538086 117.9559326171875 107.72557067871094 123.52754211425781 174.49879455566406" stroke-width="3.0" fill="none" stroke="rgb(0, 0, 0)" stroke-opacity="1.0" stroke-linecap="round" stroke-linejoin="round"/>
    <path d="M 69.27945709228516 163.4142303466797 C 81.90978240966797 140.29049682617188 123.31575012207031 166.37376403808594 78.97420501708984 99.64733123779297" stroke-width="3.0" fill="none" stroke="rgb(0, 0, 0)" stroke-opacity="1.0" stroke-linecap="round" stroke-linejoin="round"/>
    <path d="M 90.98206329345703 169.96621704101562 C 100.59598541259766 168.1813201904297 104.07593536376953 150.00025939941406 87.48428344726562 163.7535858154297" stroke-width="3.0" fill="none" stroke="rgb(0, 0, 0)" stroke-opacity="1.0" stroke-linecap="round" stroke-linejoin="round"/>
    <path d="M 90.59756469726562 166.0176544189453 C 91.14892578125 164.51943969726562 104.62026977539062 158.4786834716797 108.98137664794922 169.0043487548828" stroke-width="3.0" fill="none" stroke="rgb(0, 0, 0)" stroke-opacity="1.0" stroke-linecap="round" stroke-linejoin="round"/>
    <path d="M 123.46160125732422 84.5575180053711 C 120.29290771484375 97.85507202148438 141.57652282714844 96.9317398071289 121.11035919189453 81.44673919677734" stroke-width="3.0" fill="none" stroke="rgb(0, 0, 0)" stroke-opacity="1.0" stroke-linecap="round" stroke-linejoin="round"/>
    <path d="M 133.6669921875 95.16397857666016 C 141.2547607421875 81.77395629882812 146.81893920898438 97.34578704833984 137.1016387939453 93.11349487304688" stroke-width="3.0" fill="none" stroke="rgb(0, 0, 0)" stroke-opacity="1.0" stroke-linecap="round" stroke-linejoin="round"/>
  </g>
</svg>
