<?xml version="1.0" ?>
<svg xmlns="http://www.w3.org/2000/svg" version="1.1" width="224" height="224">
  <defs/>
  <g>
    <path d="M 87.09091186523438 165.15554809570312 C 151.58627319335938 169.82728576660156 105.60093688964844 178.95037841796875 117.13484191894531 141.3419189453125" stroke-width="3.0" fill="none" stroke="rgb(0, 0, 0)" stroke-opacity="1.0" stroke-linecap="round" stroke-linejoin="round"/>
    <path d="M 107.68243408203125 163.99432373046875 C 40.400062561035156 159.02093505859375 88.89698791503906 183.39015197753906 119.2876968383789 168.677001953125" stroke-width="3.0" fill="none" stroke="rgb(0, 0, 0)" stroke-opacity="1.0" stroke-linecap="round" stroke-linejoin="round"/>
    <path d="M 124.76370239257812 179.2497100830078 C 153.69190979003906 179.34231567382812 140.69772338867188 174.35531616210938 140.77687072753906 165.33023071289062" stroke-width="3.0" fill="none" stroke="rgb(0, 0, 0)" stroke-opacity="1.0" stroke-linecap="round" stroke-linejoin="round"/>
    <path d="M 94.90896606445312 152.40296936035156 C 15.994711875915527 172.0446319580078 118.07923126220703 196.39651489257812 123.1008071899414 167.32420349121094" stroke-width="3.0" fill="none" stroke="rgb(0, 0, 0)" stroke-opacity="1.0" stroke-linecap="round" stroke-linejoin="round"/>
    <path d="M 127.84284973144531 143.32418823242188 C 131.96484375 168.14215087890625 128.02874755859375 163.0025634765625 128.44134521484375 178.9065704345703" stroke-width="3.0" fill="none" stroke="rgb(0, 0, 0)" stroke-opacity="1.0" stroke-linecap="round" stroke-linejoin="round"/>
    <path d="M 124.44393920898438 176.41822814941406 C 126.18858337402344 173.65711975097656 105.3609390258789 183.9261016845703 83.16669464111328 179.09324645996094" stroke-width="3.0" fill="none" stroke="rgb(0, 0, 0)" stroke-opacity="1.0" stroke-linecap="round" stroke-linejoin="round"/>
    <path d="M 143.0948486328125 162.85267639160156 C 156.05516052246094 159.68934631347656 148.37051391601562 155.96786499023438 145.96617126464844 135.38970947265625" stroke-width="3.0" fill="none" stroke="rgb(0, 0, 0)" stroke-opacity="1.0" stroke-linecap="round" stroke-linejoin="round"/>
    <path d="M 74.23576354980469 167.78579711914062 C 96.0892562866211 173.66598510742188 152.0537567138672 169.34144592285156 80.61506652832031 168.87396240234375" stroke-width="3.0" fill="none" stroke="rgb(0, 0, 0)" stroke-opacity="1.0" stroke-linecap="round" stroke-linejoin="round"/>
    <path d="M 122.54487609863281 177.04116821289062 C 123.78977966308594 178.03965759277344 120.82014465332031 160.63401794433594 118.97136688232422 167.92047119140625" stroke-width="3.0" fill="none" stroke="rgb(0, 0, 0)" stroke-opacity="1.0" stroke-linecap="round" stroke-linejoin="round"/>
    <path d="M 148.6426544189453 80.80199432373047 C 127.49552917480469 136.2675323486328 161.49929809570312 82.50077056884766 137.8717041015625 177.6356964111328" stroke-width="3.0" fill="none" stroke="rgb(0, 0, 0)" stroke-opacity="1.0" stroke-linecap="round" stroke-linejoin="round"/>
    <path d="M 116.1635971069336 164.86802673339844 C 96.76612854003906 174.99945068359375 99.9219741821289 146.82090759277344 116.14070129394531 170.1083526611328" stroke-width="3.0" fill="none" stroke="rgb(0, 0, 0)" stroke-opacity="1.0" stroke-linecap="round" stroke-linejoin="round"/>
    <path d="M 94.53938293457031 150.5120086669922 C 95.96638488769531 194.9559783935547 106.8535385131836 78.77474975585938 72.90486907958984 103.84017944335938" stroke-width="3.0" fill="none" stroke="rgb(0, 0, 0)" stroke-opacity="1.0" stroke-linecap="round" stroke-linejoin="round"/>
    <path d="M 96.26578521728516 157.11831665039062 C 118.79815673828125 168.1801300048828 147.74688720703125 169.23486328125 82.301025390625 164.715576171875" stroke-width="3.0" fill="none" stroke="rgb(0, 0, 0)" stroke-opacity="1.0" stroke-linecap="round" stroke-linejoin="round"/>
    <path d="M 111.24793243408203 156.91619873046875 C 40.092254638671875 184.5295867919922 95.65862274169922 144.02420043945312 111.2472152709961 167.02528381347656" stroke-width="3.0" fill="none" stroke="rgb(0, 0, 0)" stroke-opacity="1.0" stroke-linecap="round" stroke-linejoin="round"/>
    <path d="M 116.97620391845703 82.28765106201172 C 109.39195251464844 99.36834716796875 155.7479248046875 105.03679656982422 116.21931457519531 79.6341552734375" stroke-width="3.0" fill="none" stroke="rgb(0, 0, 0)" stroke-opacity="1.0" stroke-linecap="round" stroke-linejoin="round"/>
    <path d="M 118.33252716064453 98.40690612792969 C 147.114990234375 66.02275848388672 166.96511840820312 110.2714614868164 121.83106231689453 98.10897827148438" stroke-width="3.0" fill="none" stroke="rgb(0, 0, 0)" stroke-opacity="1.0" stroke-linecap="round" stroke-linejoin="round"/>
  </g>
</svg>
