<?xml version="1.0" ?>
<svg xmlns="http://www.w3.org/2000/svg" version="1.1" width="224" height="224">
  <defs/>
  <g>
    <path d="M 84.95800018310547 164.9249725341797 C 95.97370147705078 177.604248046875 86.13166046142578 174.1836395263672 89.9052505493164 156.9310302734375" stroke-width="3.0" fill="none" stroke="rgb(0, 0, 0)" stroke-opacity="1.0" stroke-linecap="round" stroke-linejoin="round"/>
    <path d="M 92.10566711425781 168.3121795654297 C 88.07222747802734 167.95599365234375 85.24430084228516 173.07241821289062 114.56237030029297 174.65818786621094" stroke-width="3.0" fill="none" stroke="rgb(0, 0, 0)" stroke-opacity="1.0" stroke-linecap="round" stroke-linejoin="round"/>
    <path d="M 139.3905487060547 176.8690643310547 C 158.2256622314453 174.44874572753906 147.32652282714844 161.85260009765625 149.3281707763672 158.50537109375" stroke-width="3.0" fill="none" stroke="rgb(0, 0, 0)" stroke-opacity="1.0" stroke-linecap="round" stroke-linejoin="round"/>
    <path d="M 68.99596405029297 166.888671875 C 83.12902069091797 178.21884155273438 95.8032455444336 170.83880615234375 81.84339904785156 172.96347045898438" stroke-width="3.0" fill="none" stroke="rgb(0, 0, 0)" stroke-opacity="1.0" stroke-linecap="round" stroke-linejoin="round"/>
    <path d="M 139.3191680908203 145.64584350585938 C 139.27804565429688 153.9424591064453 142.92681884765625 139.54791259765625 135.65859985351562 163.8341064453125" stroke-width="3.0" fill="none" stroke="rgb(0, 0, 0)" stroke-opacity="1.0" stroke-linecap="round" stroke-linejoin="round"/>
    <path d="M 102.11166381835938 162.39561462402344 C 110.2779312133789 178.07594299316406 91.28190612792969 177.601806640625 73.79297637939453 169.8808135986328" stroke-width="3.0" fill="none" stroke="rgb(0, 0, 0)" stroke-opacity="1.0" stroke-linecap="round" stroke-linejoin="round"/>
    <path d="M 148.81820678710938 159.32427978515625 C 150.30259704589844 150.14822387695312 151.88095092773438 135.2293701171875 147.67909240722656 162.18336486816406" stroke-width="3.0" fill="none" stroke="rgb(0, 0, 0)" stroke-opacity="1.0" stroke-linecap="round" stroke-linejoin="round"/>
    <path d="M 73.03826141357422 164.6983642578125 C 85.85482025146484 177.6742706298828 100.63134765625 175.54452514648438 85.64801788330078 162.7984161376953" stroke-width="3.0" fill="none" stroke="rgb(0, 0, 0)" stroke-opacity="1.0" stroke-linecap="round" stroke-linejoin="round"/>
    <path d="M 138.54611206054688 158.72193908691406 C 120.09468841552734 184.84901428222656 126.05101776123047 184.9862518310547 131.08419799804688 184.24781799316406" stroke-width="3.0" fill="none" stroke="rgb(0, 0, 0)" stroke-opacity="1.0" stroke-linecap="round" stroke-linejoin="round"/>
    <path d="M 148.09593200683594 111.66352844238281 C 144.51930236816406 136.92242431640625 149.69735717773438 108.96849822998047 150.5147247314453 145.25636291503906" stroke-width="3.0" fill="none" stroke="rgb(0, 0, 0)" stroke-opacity="1.0" stroke-linecap="round" stroke-linejoin="round"/>
    <path d="M 100.57476806640625 162.86949157714844 C 107.27960205078125 141.33897399902344 127.13041687011719 141.20541381835938 117.7153549194336 179.069580078125" stroke-width="3.0" fill="none" stroke="rgb(0, 0, 0)" stroke-opacity="1.0" stroke-linecap="round" stroke-linejoin="round"/>
    <path d="M 73.05701446533203 162.22732543945312 C 90.30919647216797 155.38397216796875 109.38569641113281 163.77407836914062 88.47937774658203 111.23368835449219" stroke-width="3.0" fill="none" stroke="rgb(0, 0, 0)" stroke-opacity="1.0" stroke-linecap="round" stroke-linejoin="round"/>
    <path d="M 91.59490203857422 169.7292938232422 C 92.92611694335938 168.2897186279297 101.26197052001953 165.8020782470703 85.14777374267578 163.8433837890625" stroke-width="3.0" fill="none" stroke="rgb(0, 0, 0)" stroke-opacity="1.0" stroke-linecap="round" stroke-linejoin="round"/>
    <path d="M 89.19048309326172 166.5646514892578 C 92.04512023925781 165.88990783691406 103.7862777709961 165.57098388671875 107.25920104980469 170.84483337402344" stroke-width="3.0" fill="none" stroke="rgb(0, 0, 0)" stroke-opacity="1.0" stroke-linecap="round" stroke-linejoin="round"/>
    <path d="M 116.67976379394531 86.02371978759766 C 118.00654602050781 88.28231811523438 127.89642333984375 94.67720031738281 120.20753479003906 82.14270782470703" stroke-width="3.0" fill="none" stroke="rgb(0, 0, 0)" stroke-opacity="1.0" stroke-linecap="round" stroke-linejoin="round"/>
    <path d="M 135.706787109375 88.88756561279297 C 134.9866943359375 81.24089813232422 147.6265411376953 85.34996795654297 135.93577575683594 87.28720092773438" stroke-width="3.0" fill="none" stroke="rgb(0, 0, 0)" stroke-opacity="1.0" stroke-linecap="round" stroke-linejoin="round"/>
  </g>
</svg>
