<?xml version="1.0" ?>
<svg xmlns="http://www.w3.org/2000/svg" version="1.1" width="224" height="224">
  <defs/>
  <g>
    <path d="M 96.99002838134766 161.06674194335938 C 104.05592346191406 167.11862182617188 91.21438598632812 184.82925415039062 99.69645690917969 143.44627380371094" stroke-width="3.0" fill="none" stroke="rgb(0, 0, 0)" stroke-opacity="1.0" stroke-linecap="round" stroke-linejoin="round"/>
    <path d="M 95.07710266113281 166.63560485839844 C 65.24894714355469 166.54393005371094 72.47041320800781 187.48658752441406 123.57406616210938 173.38394165039062" stroke-width="3.0" fill="none" stroke="rgb(0, 0, 0)" stroke-opacity="1.0" stroke-linecap="round" stroke-linejoin="round"/>
    <path d="M 130.7127227783203 181.143798828125 C 157.6682586669922 175.23593139648438 131.92507934570312 179.27587890625 138.11318969726562 161.10995483398438" stroke-width="3.0" fill="none" stroke="rgb(0, 0, 0)" stroke-opacity="1.0" stroke-linecap="round" stroke-linejoin="round"/>
    <path d="M 66.88732147216797 168.0347900390625 C 68.05937194824219 182.17247009277344 102.48170471191406 176.23175048828125 90.62139129638672 175.37335205078125" stroke-width="3.0" fill="none" stroke="rgb(0, 0, 0)" stroke-opacity="1.0" stroke-linecap="round" stroke-linejoin="round"/>
    <path d="M 135.88583374023438 141.10287475585938 C 129.52757263183594 153.12399291992188 132.45899963378906 140.5954132080078 132.0708770751953 169.29556274414062" stroke-width="3.0" fill="none" stroke="rgb(0, 0, 0)" stroke-opacity="1.0" stroke-linecap="round" stroke-linejoin="round"/>
    <path d="M 106.50248718261719 158.1455078125 C 111.33209991455078 169.92552185058594 91.18155670166016 175.16775512695312 74.04878234863281 167.758544921875" stroke-width="3.0" fill="none" stroke="rgb(0, 0, 0)" stroke-opacity="1.0" stroke-linecap="round" stroke-linejoin="round"/>
    <path d="M 144.33416748046875 169.46676635742188 C 149.8230743408203 166.9361114501953 145.66424560546875 162.38702392578125 146.59963989257812 160.44772338867188" stroke-width="3.0" fill="none" stroke="rgb(0, 0, 0)" stroke-opacity="1.0" stroke-linecap="round" stroke-linejoin="round"/>
    <path d="M 70.45255279541016 165.66775512695312 C 82.93930053710938 186.6022186279297 148.2334442138672 172.03614807128906 112.32268524169922 166.37098693847656" stroke-width="3.0" fill="none" stroke="rgb(0, 0, 0)" stroke-opacity="1.0" stroke-linecap="round" stroke-linejoin="round"/>
    <path d="M 131.1097869873047 170.081787109375 C 129.11607360839844 192.43850708007812 121.28250122070312 172.85806274414062 132.78607177734375 177.57217407226562" stroke-width="3.0" fill="none" stroke="rgb(0, 0, 0)" stroke-opacity="1.0" stroke-linecap="round" stroke-linejoin="round"/>
    <path d="M 147.8861083984375 105.56246948242188 C 131.3651580810547 123.17178344726562 159.77207946777344 99.07617950439453 144.2791290283203 160.13775634765625" stroke-width="3.0" fill="none" stroke="rgb(0, 0, 0)" stroke-opacity="1.0" stroke-linecap="round" stroke-linejoin="round"/>
    <path d="M 109.4508056640625 170.4552764892578 C 120.0644760131836 112.85734558105469 119.65665435791016 110.16063690185547 124.94908905029297 178.1376495361328" stroke-width="3.0" fill="none" stroke="rgb(0, 0, 0)" stroke-opacity="1.0" stroke-linecap="round" stroke-linejoin="round"/>
    <path d="M 65.96146392822266 165.41026306152344 C 75.01578521728516 140.73757934570312 126.77277374267578 170.83346557617188 77.15927124023438 99.246826171875" stroke-width="3.0" fill="none" stroke="rgb(0, 0, 0)" stroke-opacity="1.0" stroke-linecap="round" stroke-linejoin="round"/>
    <path d="M 83.07842254638672 169.8265838623047 C 107.06995391845703 172.56781005859375 111.10741424560547 157.6246337890625 83.9990463256836 163.8876190185547" stroke-width="3.0" fill="none" stroke="rgb(0, 0, 0)" stroke-opacity="1.0" stroke-linecap="round" stroke-linejoin="round"/>
    <path d="M 91.67595672607422 163.92672729492188 C 84.87588500976562 159.89608764648438 102.702392578125 155.15103149414062 112.40684509277344 171.36512756347656" stroke-width="3.0" fill="none" stroke="rgb(0, 0, 0)" stroke-opacity="1.0" stroke-linecap="round" stroke-linejoin="round"/>
    <path d="M 119.71869659423828 84.55661010742188 C 117.73670959472656 95.93588256835938 142.30596923828125 93.6681137084961 117.63179016113281 81.06876373291016" stroke-width="3.0" fill="none" stroke="rgb(0, 0, 0)" stroke-opacity="1.0" stroke-linecap="round" stroke-linejoin="round"/>
    <path d="M 135.09738159179688 94.63404846191406 C 147.97525024414062 80.67816162109375 146.53036499023438 105.43399047851562 138.4781494140625 91.49592590332031" stroke-width="3.0" fill="none" stroke="rgb(0, 0, 0)" stroke-opacity="1.0" stroke-linecap="round" stroke-linejoin="round"/>
  </g>
</svg>
