<?xml version="1.0" ?>
<svg xmlns="http://www.w3.org/2000/svg" version="1.1" width="224" height="224">
  <defs/>
  <g>
    <path d="M 83.7650146484375 170.4917449951172 C 116.60872650146484 162.87452697753906 90.86236572265625 184.16778564453125 104.27886962890625 137.77572631835938" stroke-width="3.0" fill="none" stroke="rgb(0, 0, 0)" stroke-opacity="1.0" stroke-linecap="round" stroke-linejoin="round"/>
    <path d="M 119.96299743652344 170.51487731933594 C 36.00461959838867 152.3963165283203 86.23087310791016 185.61032104492188 120.9875717163086 169.4789581298828" stroke-width="3.0" fill="none" stroke="rgb(0, 0, 0)" stroke-opacity="1.0" stroke-linecap="round" stroke-linejoin="round"/>
    <path d="M 131.00680541992188 178.1116485595703 C 153.28286743164062 177.9458465576172 136.4027862548828 173.17431640625 141.24591064453125 171.6046905517578" stroke-width="3.0" fill="none" stroke="rgb(0, 0, 0)" stroke-opacity="1.0" stroke-linecap="round" stroke-linejoin="round"/>
    <path d="M 72.3113784790039 157.39431762695312 C 38.9300422668457 176.1649932861328 108.04582214355469 175.8440399169922 85.81433868408203 170.43997192382812" stroke-width="3.0" fill="none" stroke="rgb(0, 0, 0)" stroke-opacity="1.0" stroke-linecap="round" stroke-linejoin="round"/>
    <path d="M 127.55390167236328 138.603515625 C 132.33172607421875 157.9547882080078 127.99327850341797 150.77664184570312 129.18341064453125 178.7928466796875" stroke-width="3.0" fill="none" stroke="rgb(0, 0, 0)" stroke-opacity="1.0" stroke-linecap="round" stroke-linejoin="round"/>
    <path d="M 114.57857513427734 172.33348083496094 C 110.61659240722656 175.06094360351562 100.37366485595703 176.7321319580078 87.4072494506836 174.65127563476562" stroke-width="3.0" fill="none" stroke="rgb(0, 0, 0)" stroke-opacity="1.0" stroke-linecap="round" stroke-linejoin="round"/>
    <path d="M 142.83921813964844 162.0489044189453 C 158.1660614013672 161.5313720703125 147.04693603515625 152.20985412597656 145.82470703125 136.69960021972656" stroke-width="3.0" fill="none" stroke="rgb(0, 0, 0)" stroke-opacity="1.0" stroke-linecap="round" stroke-linejoin="round"/>
    <path d="M 75.56051635742188 165.0216522216797 C 94.74739837646484 179.63784790039062 162.7118682861328 155.82339477539062 80.92237854003906 158.54803466796875" stroke-width="3.0" fill="none" stroke="rgb(0, 0, 0)" stroke-opacity="1.0" stroke-linecap="round" stroke-linejoin="round"/>
    <path d="M 131.7576141357422 168.9701690673828 C 139.71458435058594 183.74586486816406 122.33233642578125 176.5841827392578 140.5074462890625 177.22935485839844" stroke-width="3.0" fill="none" stroke="rgb(0, 0, 0)" stroke-opacity="1.0" stroke-linecap="round" stroke-linejoin="round"/>
    <path d="M 148.4125213623047 82.10726928710938 C 128.66925048828125 136.89683532714844 159.8750457763672 78.4327621459961 140.90924072265625 173.68492126464844" stroke-width="3.0" fill="none" stroke="rgb(0, 0, 0)" stroke-opacity="1.0" stroke-linecap="round" stroke-linejoin="round"/>
    <path d="M 111.90789794921875 168.70448303222656 C 101.64286041259766 150.8782958984375 91.05520629882812 148.02938842773438 127.9580307006836 178.17340087890625" stroke-width="3.0" fill="none" stroke="rgb(0, 0, 0)" stroke-opacity="1.0" stroke-linecap="round" stroke-linejoin="round"/>
    <path d="M 74.07324981689453 157.2859344482422 C 66.21956634521484 158.1550750732422 136.32809448242188 142.3365936279297 74.80518341064453 98.79157257080078" stroke-width="3.0" fill="none" stroke="rgb(0, 0, 0)" stroke-opacity="1.0" stroke-linecap="round" stroke-linejoin="round"/>
    <path d="M 82.83250427246094 157.88624572753906 C 111.91326904296875 172.73397827148438 140.7170867919922 161.03131103515625 85.15089416503906 156.45864868164062" stroke-width="3.0" fill="none" stroke="rgb(0, 0, 0)" stroke-opacity="1.0" stroke-linecap="round" stroke-linejoin="round"/>
    <path d="M 114.14531707763672 166.505615234375 C 49.82881546020508 179.59617614746094 78.55735778808594 156.5869598388672 112.79537963867188 162.29864501953125" stroke-width="3.0" fill="none" stroke="rgb(0, 0, 0)" stroke-opacity="1.0" stroke-linecap="round" stroke-linejoin="round"/>
    <path d="M 117.52947235107422 82.23542785644531 C 113.79673767089844 103.19915771484375 154.35340881347656 105.97359466552734 117.93012237548828 80.6863784790039" stroke-width="3.0" fill="none" stroke="rgb(0, 0, 0)" stroke-opacity="1.0" stroke-linecap="round" stroke-linejoin="round"/>
    <path d="M 117.91313171386719 96.57356262207031 C 172.94802856445312 75.14241027832031 136.84201049804688 108.32894134521484 139.52056884765625 95.04645538330078" stroke-width="3.0" fill="none" stroke="rgb(0, 0, 0)" stroke-opacity="1.0" stroke-linecap="round" stroke-linejoin="round"/>
  </g>
</svg>
