<?xml version="1.0" ?>
<svg xmlns="http://www.w3.org/2000/svg" version="1.1" width="224" height="224">
  <defs/>
  <g>
    <path d="M 84.22908782958984 169.40455627441406 C 125.16757202148438 167.86204528808594 94.19773864746094 182.5502166748047 104.37496948242188 134.87928771972656" stroke-width="3.0" fill="none" stroke="rgb(0, 0, 0)" stroke-opacity="1.0" stroke-linecap="round" stroke-linejoin="round"/>
    <path d="M 115.53630065917969 172.15667724609375 C 35.844058990478516 152.22488403320312 86.48587036132812 184.3922576904297 118.45750427246094 167.69610595703125" stroke-width="3.0" fill="none" stroke="rgb(0, 0, 0)" stroke-opacity="1.0" stroke-linecap="round" stroke-linejoin="round"/>
    <path d="M 126.10633850097656 177.0791473388672 C 156.4373779296875 181.7835693359375 139.43704223632812 168.90802001953125 141.0609130859375 168.75949096679688" stroke-width="3.0" fill="none" stroke="rgb(0, 0, 0)" stroke-opacity="1.0" stroke-linecap="round" stroke-linejoin="round"/>
    <path d="M 73.87590789794922 156.5977783203125 C 38.609466552734375 176.02748107910156 117.2417984008789 183.6190185546875 92.82476806640625 170.20742797851562" stroke-width="3.0" fill="none" stroke="rgb(0, 0, 0)" stroke-opacity="1.0" stroke-linecap="round" stroke-linejoin="round"/>
    <path d="M 130.4639434814453 136.9904327392578 C 131.36578369140625 156.06307983398438 131.87477111816406 152.44448852539062 129.42787170410156 177.95367431640625" stroke-width="3.0" fill="none" stroke="rgb(0, 0, 0)" stroke-opacity="1.0" stroke-linecap="round" stroke-linejoin="round"/>
    <path d="M 118.63446807861328 169.67210388183594 C 111.24073791503906 174.77268981933594 97.46147155761719 178.8092498779297 86.55528259277344 175.71343994140625" stroke-width="3.0" fill="none" stroke="rgb(0, 0, 0)" stroke-opacity="1.0" stroke-linecap="round" stroke-linejoin="round"/>
    <path d="M 143.73838806152344 166.06170654296875 C 156.56600952148438 161.11996459960938 147.21986389160156 151.39974975585938 145.99607849121094 134.2648468017578" stroke-width="3.0" fill="none" stroke="rgb(0, 0, 0)" stroke-opacity="1.0" stroke-linecap="round" stroke-linejoin="round"/>
    <path d="M 72.72782135009766 164.5360565185547 C 96.872802734375 176.7530059814453 161.43373107910156 155.0910186767578 75.49348449707031 161.4986572265625" stroke-width="3.0" fill="none" stroke="rgb(0, 0, 0)" stroke-opacity="1.0" stroke-linecap="round" stroke-linejoin="round"/>
    <path d="M 130.59640502929688 165.09230041503906 C 141.5988006591797 180.927490234375 120.83108520507812 176.28067016601562 138.8759765625 175.99191284179688" stroke-width="3.0" fill="none" stroke="rgb(0, 0, 0)" stroke-opacity="1.0" stroke-linecap="round" stroke-linejoin="round"/>
    <path d="M 150.59860229492188 81.95777893066406 C 127.88729095458984 140.2368621826172 159.69351196289062 76.68360900878906 141.4657440185547 168.55636596679688" stroke-width="3.0" fill="none" stroke="rgb(0, 0, 0)" stroke-opacity="1.0" stroke-linecap="round" stroke-linejoin="round"/>
    <path d="M 112.46234130859375 166.7217254638672 C 102.25605010986328 149.28269958496094 90.02041625976562 149.7948760986328 124.1336441040039 177.3348846435547" stroke-width="3.0" fill="none" stroke="rgb(0, 0, 0)" stroke-opacity="1.0" stroke-linecap="round" stroke-linejoin="round"/>
    <path d="M 73.60781860351562 155.65560913085938 C 63.25602722167969 159.67218017578125 133.84475708007812 136.74212646484375 72.63401794433594 100.50908660888672" stroke-width="3.0" fill="none" stroke="rgb(0, 0, 0)" stroke-opacity="1.0" stroke-linecap="round" stroke-linejoin="round"/>
    <path d="M 84.6385498046875 160.66876220703125 C 111.62821197509766 171.11668395996094 144.15611267089844 153.54989624023438 86.45731353759766 161.1322021484375" stroke-width="3.0" fill="none" stroke="rgb(0, 0, 0)" stroke-opacity="1.0" stroke-linecap="round" stroke-linejoin="round"/>
    <path d="M 113.29637908935547 166.3356475830078 C 53.51842498779297 178.237060546875 82.050048828125 159.11770629882812 114.75933074951172 164.58230590820312" stroke-width="3.0" fill="none" stroke="rgb(0, 0, 0)" stroke-opacity="1.0" stroke-linecap="round" stroke-linejoin="round"/>
    <path d="M 118.07670593261719 83.990478515625 C 112.82776641845703 101.95315551757812 160.18016052246094 108.53668975830078 117.82243347167969 80.41395568847656" stroke-width="3.0" fill="none" stroke="rgb(0, 0, 0)" stroke-opacity="1.0" stroke-linecap="round" stroke-linejoin="round"/>
    <path d="M 120.0107192993164 97.71893310546875 C 171.90452575683594 69.79605865478516 138.3226318359375 109.81587982177734 142.62379455566406 93.04122161865234" stroke-width="3.0" fill="none" stroke="rgb(0, 0, 0)" stroke-opacity="1.0" stroke-linecap="round" stroke-linejoin="round"/>
  </g>
</svg>
