<?xml version="1.0" ?>
<svg xmlns="http://www.w3.org/2000/svg" version="1.1" width="224" height="224">
  <defs/>
  <g>
    <path d="M 97.51995849609375 160.27835083007812 C 104.05083465576172 165.3536834716797 91.02174377441406 182.3463134765625 99.32884216308594 146.45884704589844" stroke-width="3.0" fill="none" stroke="rgb(0, 0, 0)" stroke-opacity="1.0" stroke-linecap="round" stroke-linejoin="round"/>
    <path d="M 94.70115661621094 167.78164672851562 C 60.41593551635742 158.73843383789062 74.35690307617188 187.74794006347656 121.84945678710938 173.61599731445312" stroke-width="3.0" fill="none" stroke="rgb(0, 0, 0)" stroke-opacity="1.0" stroke-linecap="round" stroke-linejoin="round"/>
    <path d="M 127.93766021728516 180.78872680664062 C 155.38934326171875 179.96412658691406 136.65037536621094 179.72195434570312 138.916259765625 162.43487548828125" stroke-width="3.0" fill="none" stroke="rgb(0, 0, 0)" stroke-opacity="1.0" stroke-linecap="round" stroke-linejoin="round"/>
    <path d="M 67.70347595214844 168.1783447265625 C 69.73416900634766 180.71743774414062 105.24383544921875 177.93386840820312 90.70127868652344 177.5236358642578" stroke-width="3.0" fill="none" stroke="rgb(0, 0, 0)" stroke-opacity="1.0" stroke-linecap="round" stroke-linejoin="round"/>
    <path d="M 134.25430297851562 141.6168975830078 C 127.35517120361328 150.65065002441406 131.48866271972656 138.39210510253906 131.96949768066406 168.64280700683594" stroke-width="3.0" fill="none" stroke="rgb(0, 0, 0)" stroke-opacity="1.0" stroke-linecap="round" stroke-linejoin="round"/>
    <path d="M 111.11302947998047 159.73521423339844 C 115.611083984375 169.05227661132812 93.17253875732422 172.64724731445312 74.83092498779297 167.82015991210938" stroke-width="3.0" fill="none" stroke="rgb(0, 0, 0)" stroke-opacity="1.0" stroke-linecap="round" stroke-linejoin="round"/>
    <path d="M 142.7579803466797 169.20494079589844 C 151.14437866210938 167.46730041503906 148.39805603027344 159.90785217285156 146.10638427734375 151.02978515625" stroke-width="3.0" fill="none" stroke="rgb(0, 0, 0)" stroke-opacity="1.0" stroke-linecap="round" stroke-linejoin="round"/>
    <path d="M 74.03620147705078 168.8661346435547 C 80.2414321899414 184.1671142578125 149.506103515625 168.25120544433594 113.5958251953125 168.84075927734375" stroke-width="3.0" fill="none" stroke="rgb(0, 0, 0)" stroke-opacity="1.0" stroke-linecap="round" stroke-linejoin="round"/>
    <path d="M 130.23907470703125 173.2368621826172 C 129.385986328125 190.67755126953125 116.29641723632812 173.697021484375 132.6500701904297 177.85609436035156" stroke-width="3.0" fill="none" stroke="rgb(0, 0, 0)" stroke-opacity="1.0" stroke-linecap="round" stroke-linejoin="round"/>
    <path d="M 144.90541076660156 103.66209411621094 C 130.9495086669922 124.50347137451172 154.4538116455078 105.10743713378906 142.1102752685547 163.48867797851562" stroke-width="3.0" fill="none" stroke="rgb(0, 0, 0)" stroke-opacity="1.0" stroke-linecap="round" stroke-linejoin="round"/>
    <path d="M 102.5614242553711 167.5443115234375 C 118.13668060302734 108.66817474365234 121.01178741455078 106.51487731933594 123.54442596435547 179.84202575683594" stroke-width="3.0" fill="none" stroke="rgb(0, 0, 0)" stroke-opacity="1.0" stroke-linecap="round" stroke-linejoin="round"/>
    <path d="M 68.34050750732422 166.41041564941406 C 74.54725646972656 143.443115234375 128.55799865722656 167.44374084472656 76.87864685058594 98.75823211669922" stroke-width="3.0" fill="none" stroke="rgb(0, 0, 0)" stroke-opacity="1.0" stroke-linecap="round" stroke-linejoin="round"/>
    <path d="M 82.00372314453125 162.47482299804688 C 99.37754821777344 166.5445556640625 105.180908203125 155.5799560546875 80.84259033203125 165.91848754882812" stroke-width="3.0" fill="none" stroke="rgb(0, 0, 0)" stroke-opacity="1.0" stroke-linecap="round" stroke-linejoin="round"/>
    <path d="M 102.60374450683594 168.28506469726562 C 85.32935333251953 159.33253479003906 103.80796813964844 154.46389770507812 118.20570373535156 168.40859985351562" stroke-width="3.0" fill="none" stroke="rgb(0, 0, 0)" stroke-opacity="1.0" stroke-linecap="round" stroke-linejoin="round"/>
    <path d="M 121.42729187011719 83.37735748291016 C 118.25978088378906 97.62772369384766 141.5675048828125 97.38916778564453 118.74140930175781 81.2542495727539" stroke-width="3.0" fill="none" stroke="rgb(0, 0, 0)" stroke-opacity="1.0" stroke-linecap="round" stroke-linejoin="round"/>
    <path d="M 135.14340209960938 95.38773345947266 C 147.92262268066406 78.66088104248047 144.26956176757812 102.2057876586914 139.93475341796875 91.89523315429688" stroke-width="3.0" fill="none" stroke="rgb(0, 0, 0)" stroke-opacity="1.0" stroke-linecap="round" stroke-linejoin="round"/>
  </g>
</svg>
