<?xml version="1.0" ?>
<svg xmlns="http://www.w3.org/2000/svg" version="1.1" width="224" height="224">
  <defs/>
  <g>
    <path d="M 80.16934204101562 169.70660400390625 C 120.09489440917969 163.92298889160156 84.25657653808594 191.37779235839844 99.93730926513672 139.16015625" stroke-width="3.0" fill="none" stroke="rgb(0, 0, 0)" stroke-opacity="1.0" stroke-linecap="round" stroke-linejoin="round"/>
    <path d="M 117.37591552734375 169.11041259765625 C 40.45372772216797 156.2389678955078 88.85917663574219 184.85948181152344 121.73795318603516 167.61502075195312" stroke-width="3.0" fill="none" stroke="rgb(0, 0, 0)" stroke-opacity="1.0" stroke-linecap="round" stroke-linejoin="round"/>
    <path d="M 122.51339721679688 177.424072265625 C 153.01315307617188 180.2589874267578 143.20875549316406 172.274169921875 142.44342041015625 171.14845275878906" stroke-width="3.0" fill="none" stroke="rgb(0, 0, 0)" stroke-opacity="1.0" stroke-linecap="round" stroke-linejoin="round"/>
    <path d="M 87.56177520751953 157.08938598632812 C 26.00410270690918 175.6533203125 125.25927734375 185.8600311279297 120.96491241455078 169.20199584960938" stroke-width="3.0" fill="none" stroke="rgb(0, 0, 0)" stroke-opacity="1.0" stroke-linecap="round" stroke-linejoin="round"/>
    <path d="M 128.68968200683594 139.52610778808594 C 131.6573944091797 155.89732360839844 129.9942626953125 152.72483825683594 127.78626251220703 178.2535400390625" stroke-width="3.0" fill="none" stroke="rgb(0, 0, 0)" stroke-opacity="1.0" stroke-linecap="round" stroke-linejoin="round"/>
    <path d="M 119.09284210205078 173.8179931640625 C 130.2370147705078 175.1165313720703 89.58493041992188 183.91970825195312 77.53388214111328 177.19349670410156" stroke-width="3.0" fill="none" stroke="rgb(0, 0, 0)" stroke-opacity="1.0" stroke-linecap="round" stroke-linejoin="round"/>
    <path d="M 145.46319580078125 166.63763427734375 C 153.39739990234375 158.41607666015625 150.635009765625 156.7035675048828 144.58163452148438 135.4634246826172" stroke-width="3.0" fill="none" stroke="rgb(0, 0, 0)" stroke-opacity="1.0" stroke-linecap="round" stroke-linejoin="round"/>
    <path d="M 82.884033203125 167.84300231933594 C 95.40316772460938 177.23744201660156 150.1519317626953 165.5272979736328 82.94181060791016 163.55581665039062" stroke-width="3.0" fill="none" stroke="rgb(0, 0, 0)" stroke-opacity="1.0" stroke-linecap="round" stroke-linejoin="round"/>
    <path d="M 131.63487243652344 173.7852783203125 C 138.0489044189453 181.43177795410156 127.44970703125 176.14988708496094 134.96966552734375 176.8842315673828" stroke-width="3.0" fill="none" stroke="rgb(0, 0, 0)" stroke-opacity="1.0" stroke-linecap="round" stroke-linejoin="round"/>
    <path d="M 149.10577392578125 79.839599609375 C 132.56076049804688 134.9010467529297 159.17481994628906 80.28499603271484 140.25079345703125 172.80307006835938" stroke-width="3.0" fill="none" stroke="rgb(0, 0, 0)" stroke-opacity="1.0" stroke-linecap="round" stroke-linejoin="round"/>
    <path d="M 111.7521743774414 169.7561798095703 C 95.9539794921875 167.94212341308594 88.78032684326172 153.94107055664062 125.13690185546875 177.82632446289062" stroke-width="3.0" fill="none" stroke="rgb(0, 0, 0)" stroke-opacity="1.0" stroke-linecap="round" stroke-linejoin="round"/>
    <path d="M 92.8609848022461 153.95574951171875 C 74.49375915527344 171.37217712402344 126.1390151977539 134.61509704589844 76.7776107788086 106.52861785888672" stroke-width="3.0" fill="none" stroke="rgb(0, 0, 0)" stroke-opacity="1.0" stroke-linecap="round" stroke-linejoin="round"/>
    <path d="M 93.11250305175781 160.21249389648438 C 111.41044616699219 175.44578552246094 145.23353576660156 165.64134216308594 86.84683227539062 169.28463745117188" stroke-width="3.0" fill="none" stroke="rgb(0, 0, 0)" stroke-opacity="1.0" stroke-linecap="round" stroke-linejoin="round"/>
    <path d="M 107.9972152709961 168.04095458984375 C 52.63116455078125 180.85765075683594 83.69708251953125 149.44436645507812 113.81610870361328 167.28997802734375" stroke-width="3.0" fill="none" stroke="rgb(0, 0, 0)" stroke-opacity="1.0" stroke-linecap="round" stroke-linejoin="round"/>
    <path d="M 117.70264434814453 81.37565612792969 C 108.79208374023438 108.24395751953125 148.71517944335938 107.93264770507812 116.39421081542969 80.92417907714844" stroke-width="3.0" fill="none" stroke="rgb(0, 0, 0)" stroke-opacity="1.0" stroke-linecap="round" stroke-linejoin="round"/>
    <path d="M 116.94739532470703 99.53838348388672 C 161.17637634277344 63.67692184448242 151.30589294433594 114.79417419433594 132.1031951904297 103.56243896484375" stroke-width="3.0" fill="none" stroke="rgb(0, 0, 0)" stroke-opacity="1.0" stroke-linecap="round" stroke-linejoin="round"/>
  </g>
</svg>
