<?xml version="1.0" ?>
<svg xmlns="http://www.w3.org/2000/svg" version="1.1" width="224" height="224">
  <defs/>
  <g>
    <path d="M 87.19264221191406 162.4082794189453 C 92.59123229980469 167.8162841796875 88.84752655029297 165.88279724121094 86.76520538330078 156.65016174316406" stroke-width="3.0" fill="none" stroke="rgb(0, 0, 0)" stroke-opacity="1.0" stroke-linecap="round" stroke-linejoin="round"/>
    <path d="M 100.59651947021484 169.9073028564453 C 98.30500030517578 167.12611389160156 96.4390869140625 167.85609436035156 105.27243041992188 172.68673706054688" stroke-width="3.0" fill="none" stroke="rgb(0, 0, 0)" stroke-opacity="1.0" stroke-linecap="round" stroke-linejoin="round"/>
    <path d="M 136.91893005371094 165.21348571777344 C 140.40403747558594 161.85720825195312 143.5157470703125 159.3167266845703 144.3199462890625 158.150390625" stroke-width="3.0" fill="none" stroke="rgb(0, 0, 0)" stroke-opacity="1.0" stroke-linecap="round" stroke-linejoin="round"/>
    <path d="M 68.39662170410156 164.35308837890625 C 77.68549346923828 171.61927795410156 81.50959777832031 169.3561248779297 83.03995513916016 170.7395477294922" stroke-width="3.0" fill="none" stroke="rgb(0, 0, 0)" stroke-opacity="1.0" stroke-linecap="round" stroke-linejoin="round"/>
    <path d="M 137.420166015625 147.37136840820312 C 132.6768035888672 144.72337341308594 138.19622802734375 137.10101318359375 134.3255615234375 159.54397583007812" stroke-width="3.0" fill="none" stroke="rgb(0, 0, 0)" stroke-opacity="1.0" stroke-linecap="round" stroke-linejoin="round"/>
    <path d="M 97.62957000732422 166.59344482421875 C 96.04584503173828 174.92056274414062 93.45391845703125 178.49232482910156 83.00475311279297 166.6904754638672" stroke-width="3.0" fill="none" stroke="rgb(0, 0, 0)" stroke-opacity="1.0" stroke-linecap="round" stroke-linejoin="round"/>
    <path d="M 142.09129333496094 145.33338928222656 C 142.4838104248047 141.4040069580078 143.62155151367188 135.12405395507812 142.54977416992188 155.4958953857422" stroke-width="3.0" fill="none" stroke="rgb(0, 0, 0)" stroke-opacity="1.0" stroke-linecap="round" stroke-linejoin="round"/>
    <path d="M 78.05233764648438 163.47860717773438 C 91.93567657470703 166.35675048828125 91.4980239868164 176.4458770751953 90.29141235351562 168.7156524658203" stroke-width="3.0" fill="none" stroke="rgb(0, 0, 0)" stroke-opacity="1.0" stroke-linecap="round" stroke-linejoin="round"/>
    <path d="M 133.27871704101562 160.17593383789062 C 129.824951171875 185.73373413085938 133.07179260253906 176.84884643554688 130.8485870361328 177.9661407470703" stroke-width="3.0" fill="none" stroke="rgb(0, 0, 0)" stroke-opacity="1.0" stroke-linecap="round" stroke-linejoin="round"/>
    <path d="M 145.72695922851562 133.7040557861328 C 142.81773376464844 145.42013549804688 141.67335510253906 143.67214965820312 142.48138427734375 148.52064514160156" stroke-width="3.0" fill="none" stroke="rgb(0, 0, 0)" stroke-opacity="1.0" stroke-linecap="round" stroke-linejoin="round"/>
    <path d="M 96.7980728149414 167.28761291503906 C 112.45227813720703 158.14349365234375 117.60936737060547 155.33277893066406 117.92952728271484 170.5249481201172" stroke-width="3.0" fill="none" stroke="rgb(0, 0, 0)" stroke-opacity="1.0" stroke-linecap="round" stroke-linejoin="round"/>
    <path d="M 80.070556640625 160.33909606933594 C 86.02365112304688 161.0315399169922 89.81551361083984 149.98892211914062 90.58818817138672 139.62155151367188" stroke-width="3.0" fill="none" stroke="rgb(0, 0, 0)" stroke-opacity="1.0" stroke-linecap="round" stroke-linejoin="round"/>
    <path d="M 92.67498016357422 164.80064392089844 C 93.19650268554688 163.79833984375 96.73487091064453 162.63278198242188 93.12091827392578 156.22096252441406" stroke-width="3.0" fill="none" stroke="rgb(0, 0, 0)" stroke-opacity="1.0" stroke-linecap="round" stroke-linejoin="round"/>
    <path d="M 94.07162475585938 165.898193359375 C 92.55127716064453 173.88926696777344 93.15131378173828 174.42723083496094 101.58181762695312 175.50747680664062" stroke-width="3.0" fill="none" stroke="rgb(0, 0, 0)" stroke-opacity="1.0" stroke-linecap="round" stroke-linejoin="round"/>
    <path d="M 116.05953979492188 78.47027587890625 C 120.51115417480469 83.61222076416016 126.44403076171875 90.43050384521484 122.0890884399414 86.617431640625" stroke-width="3.0" fill="none" stroke="rgb(0, 0, 0)" stroke-opacity="1.0" stroke-linecap="round" stroke-linejoin="round"/>
    <path d="M 140.24693298339844 95.55648040771484 C 146.63986206054688 81.30323028564453 152.81338500976562 85.35220336914062 146.2710723876953 88.51764678955078" stroke-width="3.0" fill="none" stroke="rgb(0, 0, 0)" stroke-opacity="1.0" stroke-linecap="round" stroke-linejoin="round"/>
  </g>
</svg>
