<?xml version="1.0" ?>
<svg xmlns="http://www.w3.org/2000/svg" version="1.1" width="224" height="224">
  <defs/>
  <g>
    <path d="M 79.13165283203125 164.84901428222656 C 119.90511322021484 160.69415283203125 84.89625549316406 191.07362365722656 100.43638610839844 142.0089111328125" stroke-width="3.0" fill="none" stroke="rgb(0, 0, 0)" stroke-opacity="1.0" stroke-linecap="round" stroke-linejoin="round"/>
    <path d="M 118.24136352539062 170.5072021484375 C 40.46186828613281 158.26622009277344 90.86231994628906 183.04281616210938 121.41458129882812 168.64404296875" stroke-width="3.0" fill="none" stroke="rgb(0, 0, 0)" stroke-opacity="1.0" stroke-linecap="round" stroke-linejoin="round"/>
    <path d="M 128.14895629882812 177.20152282714844 C 151.4346466064453 182.0089111328125 140.6807403564453 172.8771514892578 140.9180450439453 169.74667358398438" stroke-width="3.0" fill="none" stroke="rgb(0, 0, 0)" stroke-opacity="1.0" stroke-linecap="round" stroke-linejoin="round"/>
    <path d="M 90.26434326171875 150.94461059570312 C 19.894710540771484 173.4953155517578 123.84217071533203 186.1186981201172 123.93952178955078 169.0049591064453" stroke-width="3.0" fill="none" stroke="rgb(0, 0, 0)" stroke-opacity="1.0" stroke-linecap="round" stroke-linejoin="round"/>
    <path d="M 128.47657775878906 138.73153686523438 C 132.69895935058594 151.0170135498047 129.89157104492188 151.63262939453125 131.9091796875 177.21762084960938" stroke-width="3.0" fill="none" stroke="rgb(0, 0, 0)" stroke-opacity="1.0" stroke-linecap="round" stroke-linejoin="round"/>
    <path d="M 119.49554443359375 172.68312072753906 C 130.4127960205078 173.4346923828125 93.53672790527344 180.78317260742188 81.50249481201172 174.47056579589844" stroke-width="3.0" fill="none" stroke="rgb(0, 0, 0)" stroke-opacity="1.0" stroke-linecap="round" stroke-linejoin="round"/>
    <path d="M 143.67466735839844 167.0194854736328 C 155.53224182128906 159.4725341796875 148.8719024658203 159.17999267578125 144.97096252441406 131.94590759277344" stroke-width="3.0" fill="none" stroke="rgb(0, 0, 0)" stroke-opacity="1.0" stroke-linecap="round" stroke-linejoin="round"/>
    <path d="M 81.12018585205078 167.17138671875 C 93.99488067626953 177.0092315673828 148.22091674804688 166.34059143066406 81.21752166748047 163.5952911376953" stroke-width="3.0" fill="none" stroke="rgb(0, 0, 0)" stroke-opacity="1.0" stroke-linecap="round" stroke-linejoin="round"/>
    <path d="M 130.8533477783203 172.43280029296875 C 137.0870819091797 181.35609436035156 128.7884521484375 175.9650421142578 132.67874145507812 175.73439025878906" stroke-width="3.0" fill="none" stroke="rgb(0, 0, 0)" stroke-opacity="1.0" stroke-linecap="round" stroke-linejoin="round"/>
    <path d="M 149.0693359375 81.47321319580078 C 129.73587036132812 134.12362670898438 157.95242309570312 78.81271362304688 139.70639038085938 175.6031951904297" stroke-width="3.0" fill="none" stroke="rgb(0, 0, 0)" stroke-opacity="1.0" stroke-linecap="round" stroke-linejoin="round"/>
    <path d="M 111.63355255126953 170.19493103027344 C 95.83757019042969 167.9767608642578 89.75286102294922 151.4345245361328 125.10366821289062 176.2919158935547" stroke-width="3.0" fill="none" stroke="rgb(0, 0, 0)" stroke-opacity="1.0" stroke-linecap="round" stroke-linejoin="round"/>
    <path d="M 95.93292999267578 158.7471923828125 C 76.03549194335938 174.40341186523438 127.97957611083984 123.18496704101562 76.33244323730469 100.06867980957031" stroke-width="3.0" fill="none" stroke="rgb(0, 0, 0)" stroke-opacity="1.0" stroke-linecap="round" stroke-linejoin="round"/>
    <path d="M 95.74483489990234 156.48219299316406 C 111.22747039794922 175.98434448242188 145.36627197265625 166.56756591796875 86.94889831542969 170.9228515625" stroke-width="3.0" fill="none" stroke="rgb(0, 0, 0)" stroke-opacity="1.0" stroke-linecap="round" stroke-linejoin="round"/>
    <path d="M 108.13968658447266 166.6480712890625 C 51.09827423095703 178.31874084472656 82.89324951171875 149.50746154785156 111.3220443725586 169.44937133789062" stroke-width="3.0" fill="none" stroke="rgb(0, 0, 0)" stroke-opacity="1.0" stroke-linecap="round" stroke-linejoin="round"/>
    <path d="M 116.93862915039062 84.36688995361328 C 111.27684783935547 103.97759246826172 149.925537109375 105.78903198242188 116.06368255615234 81.02599334716797" stroke-width="3.0" fill="none" stroke="rgb(0, 0, 0)" stroke-opacity="1.0" stroke-linecap="round" stroke-linejoin="round"/>
    <path d="M 117.52485656738281 101.16850280761719 C 159.03033447265625 63.32362365722656 151.74424743652344 111.80290222167969 133.1940155029297 101.4103775024414" stroke-width="3.0" fill="none" stroke="rgb(0, 0, 0)" stroke-opacity="1.0" stroke-linecap="round" stroke-linejoin="round"/>
  </g>
</svg>
