<?xml version="1.0" ?>
<svg xmlns="http://www.w3.org/2000/svg" version="1.1" width="224" height="224">
  <defs/>
  <g>
    <path d="M 85.02593231201172 165.87664794921875 C 155.0720672607422 170.57015991210938 101.32324981689453 179.5924835205078 114.89571380615234 115.90853118896484" stroke-width="3.0" fill="none" stroke="rgb(0, 0, 0)" stroke-opacity="1.0" stroke-linecap="round" stroke-linejoin="round"/>
    <path d="M 112.83736419677734 156.6334991455078 C 41.203670501708984 160.30599975585938 90.0463638305664 181.72195434570312 118.9835433959961 168.91329956054688" stroke-width="3.0" fill="none" stroke="rgb(0, 0, 0)" stroke-opacity="1.0" stroke-linecap="round" stroke-linejoin="round"/>
    <path d="M 125.22105407714844 178.206787109375 C 153.8303985595703 178.33836364746094 140.311767578125 174.95091247558594 142.56541442871094 163.15684509277344" stroke-width="3.0" fill="none" stroke="rgb(0, 0, 0)" stroke-opacity="1.0" stroke-linecap="round" stroke-linejoin="round"/>
    <path d="M 91.64149475097656 147.49586486816406 C 17.077510833740234 171.9604949951172 122.05958557128906 191.4249725341797 121.78732299804688 167.91148376464844" stroke-width="3.0" fill="none" stroke="rgb(0, 0, 0)" stroke-opacity="1.0" stroke-linecap="round" stroke-linejoin="round"/>
    <path d="M 128.68405151367188 145.4259033203125 C 132.28778076171875 165.5537109375 129.04605102539062 165.77890014648438 130.5695343017578 176.73519897460938" stroke-width="3.0" fill="none" stroke="rgb(0, 0, 0)" stroke-opacity="1.0" stroke-linecap="round" stroke-linejoin="round"/>
    <path d="M 120.51995849609375 172.7301788330078 C 125.89167022705078 169.48521423339844 109.28848266601562 182.65733337402344 82.377685546875 176.4349822998047" stroke-width="3.0" fill="none" stroke="rgb(0, 0, 0)" stroke-opacity="1.0" stroke-linecap="round" stroke-linejoin="round"/>
    <path d="M 141.63153076171875 167.75775146484375 C 153.7480926513672 163.6696014404297 148.38552856445312 155.64198303222656 144.81788635253906 138.5631561279297" stroke-width="3.0" fill="none" stroke="rgb(0, 0, 0)" stroke-opacity="1.0" stroke-linecap="round" stroke-linejoin="round"/>
    <path d="M 76.04353332519531 168.37704467773438 C 98.32917785644531 176.7566375732422 154.1536865234375 161.416259765625 79.25407409667969 164.73239135742188" stroke-width="3.0" fill="none" stroke="rgb(0, 0, 0)" stroke-opacity="1.0" stroke-linecap="round" stroke-linejoin="round"/>
    <path d="M 123.48529052734375 176.85047912597656 C 118.74361419677734 177.3123321533203 123.91546630859375 162.54885864257812 116.88773345947266 168.9359588623047" stroke-width="3.0" fill="none" stroke="rgb(0, 0, 0)" stroke-opacity="1.0" stroke-linecap="round" stroke-linejoin="round"/>
    <path d="M 144.84608459472656 82.45925903320312 C 124.0919189453125 133.91485595703125 160.012939453125 85.68034362792969 140.6403045654297 169.4491729736328" stroke-width="3.0" fill="none" stroke="rgb(0, 0, 0)" stroke-opacity="1.0" stroke-linecap="round" stroke-linejoin="round"/>
    <path d="M 117.5375747680664 169.8217010498047 C 100.17076873779297 178.5506134033203 103.88957214355469 151.70436096191406 116.08277130126953 169.79736328125" stroke-width="3.0" fill="none" stroke="rgb(0, 0, 0)" stroke-opacity="1.0" stroke-linecap="round" stroke-linejoin="round"/>
    <path d="M 93.8678970336914 155.02674865722656 C 95.37166595458984 194.4425048828125 104.21055603027344 78.74869537353516 70.75807189941406 104.26686096191406" stroke-width="3.0" fill="none" stroke="rgb(0, 0, 0)" stroke-opacity="1.0" stroke-linecap="round" stroke-linejoin="round"/>
    <path d="M 90.74850463867188 164.6415252685547 C 112.939697265625 164.2899627685547 140.90750122070312 169.32174682617188 81.54216003417969 166.24609375" stroke-width="3.0" fill="none" stroke="rgb(0, 0, 0)" stroke-opacity="1.0" stroke-linecap="round" stroke-linejoin="round"/>
    <path d="M 113.91661834716797 155.21046447753906 C 39.746646881103516 179.41012573242188 103.4762954711914 145.1671905517578 112.60306549072266 167.80686950683594" stroke-width="3.0" fill="none" stroke="rgb(0, 0, 0)" stroke-opacity="1.0" stroke-linecap="round" stroke-linejoin="round"/>
    <path d="M 118.50618743896484 82.1405029296875 C 110.02787780761719 105.79469299316406 156.08921813964844 108.4813461303711 116.3196792602539 79.77002716064453" stroke-width="3.0" fill="none" stroke="rgb(0, 0, 0)" stroke-opacity="1.0" stroke-linecap="round" stroke-linejoin="round"/>
    <path d="M 115.98719024658203 102.94796752929688 C 132.18075561523438 69.25778198242188 168.3762664794922 108.80193328857422 120.64433288574219 100.9205322265625" stroke-width="3.0" fill="none" stroke="rgb(0, 0, 0)" stroke-opacity="1.0" stroke-linecap="round" stroke-linejoin="round"/>
  </g>
</svg>
