<?xml version="1.0" ?>
<svg xmlns="http://www.w3.org/2000/svg" version="1.1" width="224" height="224">
  <defs/>
  <g>
    <path d="M 82.93617248535156 170.81060791015625 C 125.4266128540039 170.67630004882812 85.89633178710938 183.28262329101562 102.86204528808594 132.8437042236328" stroke-width="3.0" fill="none" stroke="rgb(0, 0, 0)" stroke-opacity="1.0" stroke-linecap="round" stroke-linejoin="round"/>
    <path d="M 116.10990905761719 174.05111694335938 C 36.6649055480957 152.95114135742188 83.61833953857422 184.06051635742188 121.76456451416016 168.322265625" stroke-width="3.0" fill="none" stroke="rgb(0, 0, 0)" stroke-opacity="1.0" stroke-linecap="round" stroke-linejoin="round"/>
    <path d="M 123.04443359375 178.19752502441406 C 152.24867248535156 183.10321044921875 137.561767578125 165.47927856445312 142.00311279296875 168.02088928222656" stroke-width="3.0" fill="none" stroke="rgb(0, 0, 0)" stroke-opacity="1.0" stroke-linecap="round" stroke-linejoin="round"/>
    <path d="M 71.29537963867188 154.9449005126953 C 36.89458084106445 180.00941467285156 132.4783477783203 186.301513671875 115.71855926513672 169.03318786621094" stroke-width="3.0" fill="none" stroke="rgb(0, 0, 0)" stroke-opacity="1.0" stroke-linecap="round" stroke-linejoin="round"/>
    <path d="M 126.29418182373047 139.95606994628906 C 128.34449768066406 153.74139404296875 125.14864349365234 149.49913024902344 129.5816650390625 176.01333618164062" stroke-width="3.0" fill="none" stroke="rgb(0, 0, 0)" stroke-opacity="1.0" stroke-linecap="round" stroke-linejoin="round"/>
    <path d="M 121.51914978027344 172.1433868408203 C 118.9457015991211 179.0977325439453 96.07801055908203 178.38650512695312 90.37075805664062 178.24053955078125" stroke-width="3.0" fill="none" stroke="rgb(0, 0, 0)" stroke-opacity="1.0" stroke-linecap="round" stroke-linejoin="round"/>
    <path d="M 144.00900268554688 164.6543731689453 C 157.7440185546875 159.0004119873047 145.42308044433594 150.6961669921875 144.81448364257812 136.18301391601562" stroke-width="3.0" fill="none" stroke="rgb(0, 0, 0)" stroke-opacity="1.0" stroke-linecap="round" stroke-linejoin="round"/>
    <path d="M 78.42659759521484 166.37371826171875 C 98.71137237548828 178.54959106445312 159.1086883544922 159.09719848632812 79.8089599609375 165.62669372558594" stroke-width="3.0" fill="none" stroke="rgb(0, 0, 0)" stroke-opacity="1.0" stroke-linecap="round" stroke-linejoin="round"/>
    <path d="M 130.74880981445312 164.16720581054688 C 142.67161560058594 177.06976318359375 119.2431411743164 171.6440887451172 139.3220672607422 176.77516174316406" stroke-width="3.0" fill="none" stroke="rgb(0, 0, 0)" stroke-opacity="1.0" stroke-linecap="round" stroke-linejoin="round"/>
    <path d="M 149.91673278808594 81.25572967529297 C 129.62893676757812 139.35765075683594 156.51950073242188 79.16582489013672 141.63209533691406 167.65631103515625" stroke-width="3.0" fill="none" stroke="rgb(0, 0, 0)" stroke-opacity="1.0" stroke-linecap="round" stroke-linejoin="round"/>
    <path d="M 114.08628845214844 165.51254272460938 C 101.62149810791016 153.7714080810547 88.9076919555664 152.07830810546875 123.94965362548828 174.202880859375" stroke-width="3.0" fill="none" stroke="rgb(0, 0, 0)" stroke-opacity="1.0" stroke-linecap="round" stroke-linejoin="round"/>
    <path d="M 75.39736938476562 152.46815490722656 C 63.80788803100586 157.66722106933594 135.08038330078125 132.70263671875 72.79569244384766 101.14439392089844" stroke-width="3.0" fill="none" stroke="rgb(0, 0, 0)" stroke-opacity="1.0" stroke-linecap="round" stroke-linejoin="round"/>
    <path d="M 88.53449249267578 159.0248565673828 C 116.52543640136719 166.1672821044922 146.82058715820312 151.71749877929688 89.51075744628906 162.38319396972656" stroke-width="3.0" fill="none" stroke="rgb(0, 0, 0)" stroke-opacity="1.0" stroke-linecap="round" stroke-linejoin="round"/>
    <path d="M 111.41047668457031 166.77786254882812 C 52.09831619262695 175.13880920410156 77.5479507446289 153.666748046875 114.47415924072266 162.74713134765625" stroke-width="3.0" fill="none" stroke="rgb(0, 0, 0)" stroke-opacity="1.0" stroke-linecap="round" stroke-linejoin="round"/>
    <path d="M 115.26272583007812 82.65636444091797 C 108.21468353271484 99.66447448730469 160.1245574951172 104.4083023071289 115.12889862060547 79.7154312133789" stroke-width="3.0" fill="none" stroke="rgb(0, 0, 0)" stroke-opacity="1.0" stroke-linecap="round" stroke-linejoin="round"/>
    <path d="M 118.6063232421875 95.73711395263672 C 167.43505859375 67.87932586669922 137.2124481201172 110.86641693115234 138.29322814941406 94.87691497802734" stroke-width="3.0" fill="none" stroke="rgb(0, 0, 0)" stroke-opacity="1.0" stroke-linecap="round" stroke-linejoin="round"/>
  </g>
</svg>
