<?xml version="1.0" ?>
<svg xmlns="http://www.w3.org/2000/svg" version="1.1" width="224" height="224">
  <defs/>
  <g>
    <path d="M 79.39344024658203 164.0232391357422 C 127.92628479003906 160.36378479003906 94.42278289794922 189.016845703125 98.26155853271484 130.79571533203125" stroke-width="3.0" fill="none" stroke="rgb(0, 0, 0)" stroke-opacity="1.0" stroke-linecap="round" stroke-linejoin="round"/>
    <path d="M 117.81670379638672 169.16920471191406 C 39.66421890258789 156.37718200683594 89.44239044189453 181.73365783691406 118.22055053710938 168.55831909179688" stroke-width="3.0" fill="none" stroke="rgb(0, 0, 0)" stroke-opacity="1.0" stroke-linecap="round" stroke-linejoin="round"/>
    <path d="M 119.32023620605469 175.75657653808594 C 151.26812744140625 181.2898712158203 138.9966278076172 172.8899383544922 141.10098266601562 169.21514892578125" stroke-width="3.0" fill="none" stroke="rgb(0, 0, 0)" stroke-opacity="1.0" stroke-linecap="round" stroke-linejoin="round"/>
    <path d="M 92.53384399414062 149.32408142089844 C 15.709177017211914 175.19776916503906 123.02738189697266 191.26976013183594 125.29891967773438 166.41091918945312" stroke-width="3.0" fill="none" stroke="rgb(0, 0, 0)" stroke-opacity="1.0" stroke-linecap="round" stroke-linejoin="round"/>
    <path d="M 125.73128509521484 140.41357421875 C 131.1610870361328 155.2062225341797 128.05377197265625 147.84193420410156 129.63845825195312 176.51968383789062" stroke-width="3.0" fill="none" stroke="rgb(0, 0, 0)" stroke-opacity="1.0" stroke-linecap="round" stroke-linejoin="round"/>
    <path d="M 121.62303161621094 171.16429138183594 C 130.30235290527344 171.92535400390625 93.90792846679688 181.11903381347656 77.31758880615234 175.5479278564453" stroke-width="3.0" fill="none" stroke="rgb(0, 0, 0)" stroke-opacity="1.0" stroke-linecap="round" stroke-linejoin="round"/>
    <path d="M 143.68765258789062 166.304931640625 C 157.60182189941406 159.3570556640625 147.6129608154297 153.76150512695312 147.01817321777344 128.29531860351562" stroke-width="3.0" fill="none" stroke="rgb(0, 0, 0)" stroke-opacity="1.0" stroke-linecap="round" stroke-linejoin="round"/>
    <path d="M 77.93973541259766 167.3450927734375 C 92.26651000976562 174.2598876953125 146.4425811767578 165.01303100585938 84.07466125488281 161.83900451660156" stroke-width="3.0" fill="none" stroke="rgb(0, 0, 0)" stroke-opacity="1.0" stroke-linecap="round" stroke-linejoin="round"/>
    <path d="M 130.26673889160156 173.3942413330078 C 136.62728881835938 181.16905212402344 127.78643035888672 174.38465881347656 135.96188354492188 175.65631103515625" stroke-width="3.0" fill="none" stroke="rgb(0, 0, 0)" stroke-opacity="1.0" stroke-linecap="round" stroke-linejoin="round"/>
    <path d="M 150.82888793945312 80.7597885131836 C 127.25739288330078 141.62986755371094 160.9815216064453 78.4088363647461 139.95413208007812 177.21705627441406" stroke-width="3.0" fill="none" stroke="rgb(0, 0, 0)" stroke-opacity="1.0" stroke-linecap="round" stroke-linejoin="round"/>
    <path d="M 112.31632232666016 169.8300323486328 C 95.18074035644531 168.37974548339844 89.08413696289062 152.9788818359375 122.6597671508789 173.0355224609375" stroke-width="3.0" fill="none" stroke="rgb(0, 0, 0)" stroke-opacity="1.0" stroke-linecap="round" stroke-linejoin="round"/>
    <path d="M 100.24102020263672 156.9439239501953 C 80.05632019042969 180.58189392089844 121.6063003540039 102.97830200195312 74.51139831542969 104.37998962402344" stroke-width="3.0" fill="none" stroke="rgb(0, 0, 0)" stroke-opacity="1.0" stroke-linecap="round" stroke-linejoin="round"/>
    <path d="M 93.1065444946289 162.36961364746094 C 113.74971771240234 173.10992431640625 148.76199340820312 164.66383361816406 89.62281799316406 171.95596313476562" stroke-width="3.0" fill="none" stroke="rgb(0, 0, 0)" stroke-opacity="1.0" stroke-linecap="round" stroke-linejoin="round"/>
    <path d="M 109.02943420410156 165.0363311767578 C 55.410274505615234 175.65699768066406 90.306640625 145.46322631835938 111.66484832763672 167.5106964111328" stroke-width="3.0" fill="none" stroke="rgb(0, 0, 0)" stroke-opacity="1.0" stroke-linecap="round" stroke-linejoin="round"/>
    <path d="M 120.00129699707031 82.35359191894531 C 115.22498321533203 106.62393188476562 156.79966735839844 106.09025573730469 119.71571350097656 79.11870574951172" stroke-width="3.0" fill="none" stroke="rgb(0, 0, 0)" stroke-opacity="1.0" stroke-linecap="round" stroke-linejoin="round"/>
    <path d="M 118.8277587890625 100.93010711669922 C 158.9706573486328 65.48200988769531 157.51699829101562 112.39533996582031 130.9092559814453 105.33234405517578" stroke-width="3.0" fill="none" stroke="rgb(0, 0, 0)" stroke-opacity="1.0" stroke-linecap="round" stroke-linejoin="round"/>
  </g>
</svg>
