<?xml version="1.0" ?>
<svg xmlns="http://www.w3.org/2000/svg" version="1.1" width="224" height="224">
  <defs/>
  <g>
    <path d="M 81.81778717041016 167.1884307861328 C 119.45982360839844 168.70425415039062 93.49563598632812 184.16583251953125 105.16142272949219 144.67617797851562" stroke-width="3.0" fill="none" stroke="rgb(0, 0, 0)" stroke-opacity="1.0" stroke-linecap="round" stroke-linejoin="round"/>
    <path d="M 110.14636993408203 165.62001037597656 C 26.36566162109375 151.07766723632812 76.52919006347656 191.9348907470703 123.76233673095703 176.39669799804688" stroke-width="3.0" fill="none" stroke="rgb(0, 0, 0)" stroke-opacity="1.0" stroke-linecap="round" stroke-linejoin="round"/>
    <path d="M 132.25912475585938 176.61224365234375 C 153.25845336914062 179.26925659179688 139.38040161132812 166.75184631347656 141.7919158935547 168.475341796875" stroke-width="3.0" fill="none" stroke="rgb(0, 0, 0)" stroke-opacity="1.0" stroke-linecap="round" stroke-linejoin="round"/>
    <path d="M 68.82423400878906 163.06912231445312 C 50.67548751831055 175.4378204345703 106.5661392211914 180.6533203125 83.54715728759766 177.62802124023438" stroke-width="3.0" fill="none" stroke="rgb(0, 0, 0)" stroke-opacity="1.0" stroke-linecap="round" stroke-linejoin="round"/>
    <path d="M 128.57089233398438 145.59226989746094 C 130.2839813232422 158.68763732910156 129.57814025878906 145.9566650390625 129.1692352294922 172.68511962890625" stroke-width="3.0" fill="none" stroke="rgb(0, 0, 0)" stroke-opacity="1.0" stroke-linecap="round" stroke-linejoin="round"/>
    <path d="M 115.33489227294922 170.4348907470703 C 107.89476013183594 169.5841064453125 100.9316635131836 173.834228515625 92.51355743408203 171.6826171875" stroke-width="3.0" fill="none" stroke="rgb(0, 0, 0)" stroke-opacity="1.0" stroke-linecap="round" stroke-linejoin="round"/>
    <path d="M 142.08091735839844 164.3347625732422 C 157.74029541015625 157.17425537109375 145.30796813964844 148.6334686279297 144.72396850585938 140.0604248046875" stroke-width="3.0" fill="none" stroke="rgb(0, 0, 0)" stroke-opacity="1.0" stroke-linecap="round" stroke-linejoin="round"/>
    <path d="M 72.6417236328125 166.60540771484375 C 101.71639251708984 184.6703643798828 169.93765258789062 163.18438720703125 75.64380645751953 166.04185485839844" stroke-width="3.0" fill="none" stroke="rgb(0, 0, 0)" stroke-opacity="1.0" stroke-linecap="round" stroke-linejoin="round"/>
    <path d="M 128.9246826171875 171.17478942871094 C 145.78964233398438 176.9993438720703 116.95674896240234 178.3319549560547 140.47044372558594 176.3600616455078" stroke-width="3.0" fill="none" stroke="rgb(0, 0, 0)" stroke-opacity="1.0" stroke-linecap="round" stroke-linejoin="round"/>
    <path d="M 149.930908203125 83.18171691894531 C 124.64403533935547 128.16014099121094 159.65237426757812 80.68794250488281 139.72080993652344 169.9056396484375" stroke-width="3.0" fill="none" stroke="rgb(0, 0, 0)" stroke-opacity="1.0" stroke-linecap="round" stroke-linejoin="round"/>
    <path d="M 105.96501159667969 169.70822143554688 C 104.850341796875 152.4473114013672 92.62401580810547 151.7700653076172 127.74940490722656 177.37294006347656" stroke-width="3.0" fill="none" stroke="rgb(0, 0, 0)" stroke-opacity="1.0" stroke-linecap="round" stroke-linejoin="round"/>
    <path d="M 67.57003784179688 163.48683166503906 C 67.03955841064453 156.9540252685547 136.05662536621094 149.3348846435547 74.09767150878906 101.73881530761719" stroke-width="3.0" fill="none" stroke="rgb(0, 0, 0)" stroke-opacity="1.0" stroke-linecap="round" stroke-linejoin="round"/>
    <path d="M 71.82621765136719 167.25994873046875 C 105.76163482666016 173.28890991210938 132.614501953125 174.13575744628906 78.89498138427734 162.6884307861328" stroke-width="3.0" fill="none" stroke="rgb(0, 0, 0)" stroke-opacity="1.0" stroke-linecap="round" stroke-linejoin="round"/>
    <path d="M 117.93869018554688 167.49485778808594 C 52.48288345336914 177.57553100585938 69.44571685791016 149.7888641357422 110.63020324707031 163.7935333251953" stroke-width="3.0" fill="none" stroke="rgb(0, 0, 0)" stroke-opacity="1.0" stroke-linecap="round" stroke-linejoin="round"/>
    <path d="M 117.82667541503906 81.03616333007812 C 113.58824157714844 109.8494644165039 147.51487731933594 98.93099212646484 116.978759765625 81.4032974243164" stroke-width="3.0" fill="none" stroke="rgb(0, 0, 0)" stroke-opacity="1.0" stroke-linecap="round" stroke-linejoin="round"/>
    <path d="M 121.4420166015625 93.14264678955078 C 168.6712646484375 80.57342529296875 135.9132080078125 104.48234558105469 136.1844024658203 90.92083740234375" stroke-width="3.0" fill="none" stroke="rgb(0, 0, 0)" stroke-opacity="1.0" stroke-linecap="round" stroke-linejoin="round"/>
  </g>
</svg>
