<?xml version="1.0" ?>
<svg xmlns="http://www.w3.org/2000/svg" version="1.1" width="224" height="224">
  <defs/>
  <g>
    <path d="M 98.15208435058594 159.07049560546875 C 106.26387786865234 164.26564025878906 96.43216705322266 180.120361328125 99.19721221923828 145.0181427001953" stroke-width="3.0" fill="none" stroke="rgb(0, 0, 0)" stroke-opacity="1.0" stroke-linecap="round" stroke-linejoin="round"/>
    <path d="M 98.21481323242188 163.00143432617188 C 50.60091018676758 153.15159606933594 74.97260284423828 188.48342895507812 119.92314910888672 174.04312133789062" stroke-width="3.0" fill="none" stroke="rgb(0, 0, 0)" stroke-opacity="1.0" stroke-linecap="round" stroke-linejoin="round"/>
    <path d="M 129.37718200683594 176.73818969726562 C 152.66790771484375 178.96044921875 140.38803100585938 169.67376708984375 142.35897827148438 167.99783325195312" stroke-width="3.0" fill="none" stroke="rgb(0, 0, 0)" stroke-opacity="1.0" stroke-linecap="round" stroke-linejoin="round"/>
    <path d="M 65.08551025390625 167.0633087158203 C 63.30815887451172 181.3756103515625 105.82913970947266 177.32476806640625 91.33545684814453 178.0152130126953" stroke-width="3.0" fill="none" stroke="rgb(0, 0, 0)" stroke-opacity="1.0" stroke-linecap="round" stroke-linejoin="round"/>
    <path d="M 133.0951385498047 141.99932861328125 C 129.11936950683594 157.4988250732422 134.54222106933594 143.614013671875 133.00143432617188 169.2932586669922" stroke-width="3.0" fill="none" stroke="rgb(0, 0, 0)" stroke-opacity="1.0" stroke-linecap="round" stroke-linejoin="round"/>
    <path d="M 117.96460723876953 165.1645050048828 C 119.1678695678711 169.9923095703125 94.89751434326172 170.25759887695312 75.88024139404297 166.1564178466797" stroke-width="3.0" fill="none" stroke="rgb(0, 0, 0)" stroke-opacity="1.0" stroke-linecap="round" stroke-linejoin="round"/>
    <path d="M 143.44898986816406 165.22601318359375 C 154.28025817871094 160.3053741455078 151.8121337890625 162.5379180908203 145.7837677001953 139.3994140625" stroke-width="3.0" fill="none" stroke="rgb(0, 0, 0)" stroke-opacity="1.0" stroke-linecap="round" stroke-linejoin="round"/>
    <path d="M 70.84793090820312 168.04437255859375 C 81.24098205566406 180.61868286132812 146.75184631347656 166.42373657226562 113.31458282470703 173.1564483642578" stroke-width="3.0" fill="none" stroke="rgb(0, 0, 0)" stroke-opacity="1.0" stroke-linecap="round" stroke-linejoin="round"/>
    <path d="M 132.51876831054688 171.1311492919922 C 136.14126586914062 186.1766815185547 114.27584075927734 171.89683532714844 128.8703155517578 178.58990478515625" stroke-width="3.0" fill="none" stroke="rgb(0, 0, 0)" stroke-opacity="1.0" stroke-linecap="round" stroke-linejoin="round"/>
    <path d="M 141.29808044433594 100.19576263427734 C 134.92767333984375 118.46587371826172 160.2717742919922 99.2033462524414 142.00396728515625 164.35580444335938" stroke-width="3.0" fill="none" stroke="rgb(0, 0, 0)" stroke-opacity="1.0" stroke-linecap="round" stroke-linejoin="round"/>
    <path d="M 101.99886322021484 167.48345947265625 C 118.45404052734375 106.40496063232422 121.14889526367188 103.93354797363281 125.6150131225586 175.84507751464844" stroke-width="3.0" fill="none" stroke="rgb(0, 0, 0)" stroke-opacity="1.0" stroke-linecap="round" stroke-linejoin="round"/>
    <path d="M 65.23046875 165.30752563476562 C 73.38543701171875 147.73452758789062 130.72300720214844 168.3539276123047 77.80435180664062 98.24049377441406" stroke-width="3.0" fill="none" stroke="rgb(0, 0, 0)" stroke-opacity="1.0" stroke-linecap="round" stroke-linejoin="round"/>
    <path d="M 83.60166931152344 161.78147888183594 C 100.36557006835938 157.299560546875 106.76950073242188 148.80780029296875 78.24069213867188 164.20204162597656" stroke-width="3.0" fill="none" stroke="rgb(0, 0, 0)" stroke-opacity="1.0" stroke-linecap="round" stroke-linejoin="round"/>
    <path d="M 104.6146240234375 161.5186767578125 C 81.54330444335938 159.1981964111328 96.087890625 159.09739685058594 119.68280792236328 168.7818603515625" stroke-width="3.0" fill="none" stroke="rgb(0, 0, 0)" stroke-opacity="1.0" stroke-linecap="round" stroke-linejoin="round"/>
    <path d="M 119.01324462890625 86.20111846923828 C 116.4521255493164 98.58446502685547 135.2669219970703 97.22998809814453 117.46192169189453 83.90908813476562" stroke-width="3.0" fill="none" stroke="rgb(0, 0, 0)" stroke-opacity="1.0" stroke-linecap="round" stroke-linejoin="round"/>
    <path d="M 131.05625915527344 92.17225646972656 C 147.87892150878906 76.19209289550781 137.04376220703125 99.60687255859375 136.35714721679688 88.9193115234375" stroke-width="3.0" fill="none" stroke="rgb(0, 0, 0)" stroke-opacity="1.0" stroke-linecap="round" stroke-linejoin="round"/>
  </g>
</svg>
