<?xml version="1.0" ?>
<svg xmlns="http://www.w3.org/2000/svg" version="1.1" width="224" height="224">
  <defs/>
  <g>
    <path d="M 89.52013397216797 162.91847229003906 C 102.62483215332031 171.96762084960938 94.44062042236328 181.11300659179688 97.5947494506836 143.7216796875" stroke-width="3.0" fill="none" stroke="rgb(0, 0, 0)" stroke-opacity="1.0" stroke-linecap="round" stroke-linejoin="round"/>
    <path d="M 94.91200256347656 164.47555541992188 C 87.87041473388672 167.83941650390625 85.57159423828125 182.1299285888672 119.89258575439453 169.4890594482422" stroke-width="3.0" fill="none" stroke="rgb(0, 0, 0)" stroke-opacity="1.0" stroke-linecap="round" stroke-linejoin="round"/>
    <path d="M 127.90369415283203 178.79119873046875 C 153.84288024902344 175.5934600830078 132.3680419921875 176.00987243652344 140.57781982421875 157.1952362060547" stroke-width="3.0" fill="none" stroke="rgb(0, 0, 0)" stroke-opacity="1.0" stroke-linecap="round" stroke-linejoin="round"/>
    <path d="M 68.16998291015625 167.79342651367188 C 76.0853042602539 180.64596557617188 99.52003479003906 171.7125244140625 84.28645324707031 175.13047790527344" stroke-width="3.0" fill="none" stroke="rgb(0, 0, 0)" stroke-opacity="1.0" stroke-linecap="round" stroke-linejoin="round"/>
    <path d="M 137.0440673828125 139.3105926513672 C 131.86390686035156 153.68980407714844 132.63980102539062 138.79800415039062 131.81585693359375 168.351318359375" stroke-width="3.0" fill="none" stroke="rgb(0, 0, 0)" stroke-opacity="1.0" stroke-linecap="round" stroke-linejoin="round"/>
    <path d="M 109.19158935546875 151.84786987304688 C 113.85831451416016 167.0251922607422 83.99424743652344 176.85934448242188 77.38584899902344 167.79266357421875" stroke-width="3.0" fill="none" stroke="rgb(0, 0, 0)" stroke-opacity="1.0" stroke-linecap="round" stroke-linejoin="round"/>
    <path d="M 147.12240600585938 167.47723388671875 C 152.69515991210938 163.82901000976562 148.4761199951172 153.69442749023438 148.94151306152344 159.13345336914062" stroke-width="3.0" fill="none" stroke="rgb(0, 0, 0)" stroke-opacity="1.0" stroke-linecap="round" stroke-linejoin="round"/>
    <path d="M 68.19074249267578 165.16175842285156 C 78.29901123046875 181.32655334472656 118.09141540527344 173.07568359375 96.34280395507812 168.97195434570312" stroke-width="3.0" fill="none" stroke="rgb(0, 0, 0)" stroke-opacity="1.0" stroke-linecap="round" stroke-linejoin="round"/>
    <path d="M 130.83363342285156 166.4641571044922 C 123.4375991821289 187.01290893554688 124.46280670166016 174.05274963378906 131.93896484375 177.50576782226562" stroke-width="3.0" fill="none" stroke="rgb(0, 0, 0)" stroke-opacity="1.0" stroke-linecap="round" stroke-linejoin="round"/>
    <path d="M 143.06246948242188 100.35452270507812 C 134.72572326660156 120.75598907470703 154.33425903320312 101.816162109375 147.52716064453125 158.70559692382812" stroke-width="3.0" fill="none" stroke="rgb(0, 0, 0)" stroke-opacity="1.0" stroke-linecap="round" stroke-linejoin="round"/>
    <path d="M 104.76256561279297 170.48837280273438 C 122.72867584228516 111.17533111572266 118.38969421386719 108.22985076904297 123.88704681396484 177.76365661621094" stroke-width="3.0" fill="none" stroke="rgb(0, 0, 0)" stroke-opacity="1.0" stroke-linecap="round" stroke-linejoin="round"/>
    <path d="M 69.24827575683594 163.68991088867188 C 80.62284851074219 139.3861541748047 122.35321044921875 166.75277709960938 76.88397216796875 103.48551940917969" stroke-width="3.0" fill="none" stroke="rgb(0, 0, 0)" stroke-opacity="1.0" stroke-linecap="round" stroke-linejoin="round"/>
    <path d="M 91.43209838867188 170.3164825439453 C 100.51680755615234 170.12942504882812 105.05611419677734 153.65663146972656 90.42201232910156 166.65313720703125" stroke-width="3.0" fill="none" stroke="rgb(0, 0, 0)" stroke-opacity="1.0" stroke-linecap="round" stroke-linejoin="round"/>
    <path d="M 89.57459259033203 168.15708923339844 C 91.34845733642578 165.27842712402344 106.83335876464844 158.11587524414062 109.87718200683594 168.49163818359375" stroke-width="3.0" fill="none" stroke="rgb(0, 0, 0)" stroke-opacity="1.0" stroke-linecap="round" stroke-linejoin="round"/>
    <path d="M 123.67609405517578 85.31431579589844 C 120.5584716796875 96.9122314453125 139.94097900390625 94.31793975830078 122.46781158447266 81.6540756225586" stroke-width="3.0" fill="none" stroke="rgb(0, 0, 0)" stroke-opacity="1.0" stroke-linecap="round" stroke-linejoin="round"/>
    <path d="M 133.69569396972656 95.45429229736328 C 144.84518432617188 83.38021850585938 145.8926239013672 98.47740173339844 137.33758544921875 92.27334594726562" stroke-width="3.0" fill="none" stroke="rgb(0, 0, 0)" stroke-opacity="1.0" stroke-linecap="round" stroke-linejoin="round"/>
  </g>
</svg>
