<?xml version="1.0" ?>
<svg xmlns="http://www.w3.org/2000/svg" version="1.1" width="224" height="224">
  <defs/>
  <g>
    <path d="M 86.43787384033203 167.21823120117188 C 98.9687728881836 175.91903686523438 83.26850128173828 173.64158630371094 95.29069519042969 150.92584228515625" stroke-width="3.0" fill="none" stroke="rgb(0, 0, 0)" stroke-opacity="1.0" stroke-linecap="round" stroke-linejoin="round"/>
    <path d="M 91.4034652709961 166.46913146972656 C 88.6082992553711 170.6236572265625 85.38809967041016 180.13681030273438 116.06489562988281 170.3274688720703" stroke-width="3.0" fill="none" stroke="rgb(0, 0, 0)" stroke-opacity="1.0" stroke-linecap="round" stroke-linejoin="round"/>
    <path d="M 139.2032012939453 180.42465209960938 C 159.78726196289062 178.0869903564453 142.9659423828125 165.8076934814453 147.566162109375 162.9182586669922" stroke-width="3.0" fill="none" stroke="rgb(0, 0, 0)" stroke-opacity="1.0" stroke-linecap="round" stroke-linejoin="round"/>
    <path d="M 69.00611877441406 168.50523376464844 C 77.88851165771484 178.345947265625 98.42622375488281 169.3987579345703 83.11817169189453 174.18460083007812" stroke-width="3.0" fill="none" stroke="rgb(0, 0, 0)" stroke-opacity="1.0" stroke-linecap="round" stroke-linejoin="round"/>
    <path d="M 139.0482635498047 142.31346130371094 C 136.49354553222656 150.19140625 137.6585235595703 135.57421875 133.1316375732422 167.8131103515625" stroke-width="3.0" fill="none" stroke="rgb(0, 0, 0)" stroke-opacity="1.0" stroke-linecap="round" stroke-linejoin="round"/>
    <path d="M 101.96803283691406 160.01266479492188 C 111.99876403808594 173.96263122558594 89.7100830078125 177.1717529296875 74.49449157714844 169.55979919433594" stroke-width="3.0" fill="none" stroke="rgb(0, 0, 0)" stroke-opacity="1.0" stroke-linecap="round" stroke-linejoin="round"/>
    <path d="M 147.39938354492188 161.92044067382812 C 151.46372985839844 153.39495849609375 153.52874755859375 138.95440673828125 147.275634765625 165.75636291503906" stroke-width="3.0" fill="none" stroke="rgb(0, 0, 0)" stroke-opacity="1.0" stroke-linecap="round" stroke-linejoin="round"/>
    <path d="M 72.88658905029297 164.34239196777344 C 85.5049057006836 176.82505798339844 100.93199157714844 173.1353302001953 92.4740219116211 164.35423278808594" stroke-width="3.0" fill="none" stroke="rgb(0, 0, 0)" stroke-opacity="1.0" stroke-linecap="round" stroke-linejoin="round"/>
    <path d="M 136.65380859375 155.9142303466797 C 122.57231140136719 188.36422729492188 125.93919372558594 181.6044464111328 131.53050231933594 179.30043029785156" stroke-width="3.0" fill="none" stroke="rgb(0, 0, 0)" stroke-opacity="1.0" stroke-linecap="round" stroke-linejoin="round"/>
    <path d="M 148.83457946777344 111.24935150146484 C 149.2458038330078 129.0480499267578 154.40362548828125 109.44239807128906 150.6208953857422 154.03309631347656" stroke-width="3.0" fill="none" stroke="rgb(0, 0, 0)" stroke-opacity="1.0" stroke-linecap="round" stroke-linejoin="round"/>
    <path d="M 97.29133605957031 161.11306762695312 C 107.96894836425781 127.77738952636719 134.795166015625 127.977783203125 122.51104736328125 171.9884033203125" stroke-width="3.0" fill="none" stroke="rgb(0, 0, 0)" stroke-opacity="1.0" stroke-linecap="round" stroke-linejoin="round"/>
    <path d="M 73.43235778808594 162.9101104736328 C 87.18112182617188 147.84120178222656 111.0003662109375 167.94869995117188 87.47249603271484 105.87852478027344" stroke-width="3.0" fill="none" stroke="rgb(0, 0, 0)" stroke-opacity="1.0" stroke-linecap="round" stroke-linejoin="round"/>
    <path d="M 91.2309341430664 169.03968811035156 C 94.5207748413086 168.97994995117188 103.29644775390625 165.3022003173828 88.409423828125 165.34339904785156" stroke-width="3.0" fill="none" stroke="rgb(0, 0, 0)" stroke-opacity="1.0" stroke-linecap="round" stroke-linejoin="round"/>
    <path d="M 88.885498046875 169.07286071777344 C 90.81814575195312 173.25839233398438 102.69924926757812 168.6682891845703 107.20806121826172 168.6529998779297" stroke-width="3.0" fill="none" stroke="rgb(0, 0, 0)" stroke-opacity="1.0" stroke-linecap="round" stroke-linejoin="round"/>
    <path d="M 117.35321807861328 89.35772705078125 C 113.4031982421875 94.52119445800781 133.74456787109375 98.33723449707031 115.51789093017578 84.89359283447266" stroke-width="3.0" fill="none" stroke="rgb(0, 0, 0)" stroke-opacity="1.0" stroke-linecap="round" stroke-linejoin="round"/>
    <path d="M 137.3114471435547 91.7879867553711 C 136.3930206298828 82.88973999023438 152.71221923828125 89.83831787109375 135.9202423095703 89.19508361816406" stroke-width="3.0" fill="none" stroke="rgb(0, 0, 0)" stroke-opacity="1.0" stroke-linecap="round" stroke-linejoin="round"/>
  </g>
</svg>
