<?xml version="1.0" ?>
<svg xmlns="http://www.w3.org/2000/svg" version="1.1" width="224" height="224">
  <defs/>
  <g>
    <path d="M 83.53514099121094 165.81256103515625 C 153.5472869873047 165.37098693847656 101.98191833496094 174.68630981445312 120.2070083618164 139.25843811035156" stroke-width="3.0" fill="none" stroke="rgb(0, 0, 0)" stroke-opacity="1.0" stroke-linecap="round" stroke-linejoin="round"/>
    <path d="M 110.40299224853516 164.45558166503906 C 44.46925354003906 161.25286865234375 92.26085662841797 185.11277770996094 119.88253021240234 171.7386932373047" stroke-width="3.0" fill="none" stroke="rgb(0, 0, 0)" stroke-opacity="1.0" stroke-linecap="round" stroke-linejoin="round"/>
    <path d="M 123.07549285888672 177.0428466796875 C 151.68173217773438 181.79405212402344 137.6376190185547 173.64039611816406 141.0927276611328 167.64468383789062" stroke-width="3.0" fill="none" stroke="rgb(0, 0, 0)" stroke-opacity="1.0" stroke-linecap="round" stroke-linejoin="round"/>
    <path d="M 92.97733306884766 147.694580078125 C 17.05165672302246 169.3459014892578 120.21501159667969 195.8700714111328 121.39042663574219 169.0854034423828" stroke-width="3.0" fill="none" stroke="rgb(0, 0, 0)" stroke-opacity="1.0" stroke-linecap="round" stroke-linejoin="round"/>
    <path d="M 128.9708709716797 143.00543212890625 C 131.35696411132812 166.49142456054688 129.65907287597656 161.5950469970703 130.5690460205078 177.7235107421875" stroke-width="3.0" fill="none" stroke="rgb(0, 0, 0)" stroke-opacity="1.0" stroke-linecap="round" stroke-linejoin="round"/>
    <path d="M 123.49199676513672 176.81898498535156 C 122.99193572998047 171.02786254882812 106.80821990966797 185.66281127929688 86.52386474609375 179.06199645996094" stroke-width="3.0" fill="none" stroke="rgb(0, 0, 0)" stroke-opacity="1.0" stroke-linecap="round" stroke-linejoin="round"/>
    <path d="M 144.9384765625 164.65240478515625 C 157.13613891601562 158.46145629882812 148.74664306640625 155.92295837402344 145.9438018798828 134.32322692871094" stroke-width="3.0" fill="none" stroke="rgb(0, 0, 0)" stroke-opacity="1.0" stroke-linecap="round" stroke-linejoin="round"/>
    <path d="M 76.5223388671875 167.84117126464844 C 97.22918701171875 171.4398651123047 153.47671508789062 166.5348358154297 79.38963317871094 167.83795166015625" stroke-width="3.0" fill="none" stroke="rgb(0, 0, 0)" stroke-opacity="1.0" stroke-linecap="round" stroke-linejoin="round"/>
    <path d="M 122.9853744506836 176.19297790527344 C 123.69507598876953 177.46324157714844 118.8904800415039 161.05545043945312 117.52261352539062 168.37576293945312" stroke-width="3.0" fill="none" stroke="rgb(0, 0, 0)" stroke-opacity="1.0" stroke-linecap="round" stroke-linejoin="round"/>
    <path d="M 148.52987670898438 81.335693359375 C 124.21642303466797 131.55442810058594 162.5564727783203 77.68350219726562 136.85784912109375 171.22166442871094" stroke-width="3.0" fill="none" stroke="rgb(0, 0, 0)" stroke-opacity="1.0" stroke-linecap="round" stroke-linejoin="round"/>
    <path d="M 118.18276977539062 167.15049743652344 C 99.06008911132812 172.77816772460938 101.65081787109375 149.14772033691406 117.17341613769531 170.663818359375" stroke-width="3.0" fill="none" stroke="rgb(0, 0, 0)" stroke-opacity="1.0" stroke-linecap="round" stroke-linejoin="round"/>
    <path d="M 93.75228881835938 153.85202026367188 C 96.0958023071289 195.01010131835938 106.83255767822266 77.87458801269531 71.83275604248047 104.50465393066406" stroke-width="3.0" fill="none" stroke="rgb(0, 0, 0)" stroke-opacity="1.0" stroke-linecap="round" stroke-linejoin="round"/>
    <path d="M 92.37137603759766 163.26052856445312 C 108.01277923583984 175.0956268310547 140.29469299316406 177.1275177001953 78.90557861328125 170.45123291015625" stroke-width="3.0" fill="none" stroke="rgb(0, 0, 0)" stroke-opacity="1.0" stroke-linecap="round" stroke-linejoin="round"/>
    <path d="M 111.52851104736328 159.54498291015625 C 40.39404296875 183.23809814453125 103.37124633789062 146.44068908691406 116.1928482055664 165.92559814453125" stroke-width="3.0" fill="none" stroke="rgb(0, 0, 0)" stroke-opacity="1.0" stroke-linecap="round" stroke-linejoin="round"/>
    <path d="M 118.56341552734375 83.37625885009766 C 110.9673080444336 100.2309799194336 157.2705535888672 104.4903564453125 117.37325286865234 79.90095520019531" stroke-width="3.0" fill="none" stroke="rgb(0, 0, 0)" stroke-opacity="1.0" stroke-linecap="round" stroke-linejoin="round"/>
    <path d="M 116.4953384399414 100.8265609741211 C 144.6825408935547 68.51383972167969 164.1742401123047 108.05561828613281 122.97399139404297 100.55068969726562" stroke-width="3.0" fill="none" stroke="rgb(0, 0, 0)" stroke-opacity="1.0" stroke-linecap="round" stroke-linejoin="round"/>
  </g>
</svg>
