<?xml version="1.0" ?>
<svg xmlns="http://www.w3.org/2000/svg" version="1.1" width="224" height="224">
  <defs/>
  <g>
    <path d="M 84.51203918457031 167.7499237060547 C 108.21847534179688 165.02679443359375 81.55030059814453 195.0393829345703 97.01781463623047 144.4725341796875" stroke-width="3.0" fill="none" stroke="rgb(0, 0, 0)" stroke-opacity="1.0" stroke-linecap="round" stroke-linejoin="round"/>
    <path d="M 118.21887969970703 164.24607849121094 C 41.40302276611328 159.8372802734375 81.72895050048828 190.26507568359375 120.3958511352539 174.97915649414062" stroke-width="3.0" fill="none" stroke="rgb(0, 0, 0)" stroke-opacity="1.0" stroke-linecap="round" stroke-linejoin="round"/>
    <path d="M 131.3257293701172 179.59617614746094 C 152.8052215576172 183.5592498779297 139.0960693359375 173.5870361328125 139.159423828125 168.82577514648438" stroke-width="3.0" fill="none" stroke="rgb(0, 0, 0)" stroke-opacity="1.0" stroke-linecap="round" stroke-linejoin="round"/>
    <path d="M 64.90916442871094 166.0769500732422 C 62.66817092895508 179.74429321289062 109.35256958007812 181.52658081054688 80.02830505371094 175.47535705566406" stroke-width="3.0" fill="none" stroke="rgb(0, 0, 0)" stroke-opacity="1.0" stroke-linecap="round" stroke-linejoin="round"/>
    <path d="M 130.4122772216797 143.2275390625 C 130.57223510742188 164.35433959960938 134.5611572265625 145.00299072265625 130.0182342529297 178.6501007080078" stroke-width="3.0" fill="none" stroke="rgb(0, 0, 0)" stroke-opacity="1.0" stroke-linecap="round" stroke-linejoin="round"/>
    <path d="M 122.33079528808594 171.3697509765625 C 109.66082763671875 162.78598022460938 104.43304443359375 172.66664123535156 90.20684051513672 173.38453674316406" stroke-width="3.0" fill="none" stroke="rgb(0, 0, 0)" stroke-opacity="1.0" stroke-linecap="round" stroke-linejoin="round"/>
    <path d="M 150.02749633789062 166.0201416015625 C 156.2992706298828 163.22622680664062 144.8629913330078 155.595947265625 149.42825317382812 133.9287109375" stroke-width="3.0" fill="none" stroke="rgb(0, 0, 0)" stroke-opacity="1.0" stroke-linecap="round" stroke-linejoin="round"/>
    <path d="M 73.58582305908203 168.7042694091797 C 94.44998931884766 182.12094116210938 154.97686767578125 167.3206787109375 82.29479217529297 158.7415313720703" stroke-width="3.0" fill="none" stroke="rgb(0, 0, 0)" stroke-opacity="1.0" stroke-linecap="round" stroke-linejoin="round"/>
    <path d="M 128.8328399658203 176.5703125 C 148.81546020507812 183.7482147216797 116.30071258544922 188.78005981445312 135.25042724609375 181.55052185058594" stroke-width="3.0" fill="none" stroke="rgb(0, 0, 0)" stroke-opacity="1.0" stroke-linecap="round" stroke-linejoin="round"/>
    <path d="M 146.69654846191406 94.3938980102539 C 135.9378662109375 124.00233459472656 164.9800262451172 86.36592864990234 141.3171844482422 173.389404296875" stroke-width="3.0" fill="none" stroke="rgb(0, 0, 0)" stroke-opacity="1.0" stroke-linecap="round" stroke-linejoin="round"/>
    <path d="M 109.38021087646484 170.76356506347656 C 117.32394409179688 140.5034942626953 99.68953704833984 149.50852966308594 126.40760040283203 181.69534301757812" stroke-width="3.0" fill="none" stroke="rgb(0, 0, 0)" stroke-opacity="1.0" stroke-linecap="round" stroke-linejoin="round"/>
    <path d="M 64.75818634033203 166.0130615234375 C 67.02925109863281 149.80673217773438 127.8156967163086 163.9775390625 77.83792114257812 99.6311264038086" stroke-width="3.0" fill="none" stroke="rgb(0, 0, 0)" stroke-opacity="1.0" stroke-linecap="round" stroke-linejoin="round"/>
    <path d="M 74.65977478027344 167.31614685058594 C 101.76039123535156 163.87802124023438 121.91603088378906 179.11248779296875 80.46381378173828 168.61561584472656" stroke-width="3.0" fill="none" stroke="rgb(0, 0, 0)" stroke-opacity="1.0" stroke-linecap="round" stroke-linejoin="round"/>
    <path d="M 116.12073516845703 164.1314697265625 C 57.669219970703125 169.20237731933594 73.34729766845703 156.13629150390625 109.96475219726562 160.7664031982422" stroke-width="3.0" fill="none" stroke="rgb(0, 0, 0)" stroke-opacity="1.0" stroke-linecap="round" stroke-linejoin="round"/>
    <path d="M 119.52638244628906 88.16494750976562 C 108.43800354003906 106.02273559570312 141.48207092285156 103.22298431396484 116.16578674316406 86.4656982421875" stroke-width="3.0" fill="none" stroke="rgb(0, 0, 0)" stroke-opacity="1.0" stroke-linecap="round" stroke-linejoin="round"/>
    <path d="M 129.28199768066406 93.59244537353516 C 154.03759765625 82.04024505615234 133.80201721191406 104.89545440673828 132.37164306640625 93.98765563964844" stroke-width="3.0" fill="none" stroke="rgb(0, 0, 0)" stroke-opacity="1.0" stroke-linecap="round" stroke-linejoin="round"/>
  </g>
</svg>
