<?xml version="1.0" ?>
<svg xmlns="http://www.w3.org/2000/svg" version="1.1" width="224" height="224">
  <defs/>
  <g>
    <path d="M 89.17631530761719 162.626220703125 C 153.48751831054688 166.2720489501953 107.95338439941406 175.1462860107422 117.76575469970703 139.2850799560547" stroke-width="3.0" fill="none" stroke="rgb(0, 0, 0)" stroke-opacity="1.0" stroke-linecap="round" stroke-linejoin="round"/>
    <path d="M 107.48100280761719 164.25917053222656 C 38.25236129760742 160.34384155273438 87.37036895751953 182.0558319091797 118.45272064208984 167.64329528808594" stroke-width="3.0" fill="none" stroke="rgb(0, 0, 0)" stroke-opacity="1.0" stroke-linecap="round" stroke-linejoin="round"/>
    <path d="M 124.22848510742188 179.47386169433594 C 154.30545043945312 182.04510498046875 141.90667724609375 173.93087768554688 141.56578063964844 166.22337341308594" stroke-width="3.0" fill="none" stroke="rgb(0, 0, 0)" stroke-opacity="1.0" stroke-linecap="round" stroke-linejoin="round"/>
    <path d="M 95.73574829101562 149.6968536376953 C 14.519973754882812 173.25027465820312 116.56941223144531 196.68801879882812 125.95632934570312 167.51222229003906" stroke-width="3.0" fill="none" stroke="rgb(0, 0, 0)" stroke-opacity="1.0" stroke-linecap="round" stroke-linejoin="round"/>
    <path d="M 128.70553588867188 142.63877868652344 C 132.327392578125 167.8522186279297 129.3002471923828 162.2162322998047 130.80076599121094 179.9105682373047" stroke-width="3.0" fill="none" stroke="rgb(0, 0, 0)" stroke-opacity="1.0" stroke-linecap="round" stroke-linejoin="round"/>
    <path d="M 123.64330291748047 176.13153076171875 C 126.60588073730469 174.5670166015625 105.32575988769531 184.5433349609375 82.72879028320312 179.70216369628906" stroke-width="3.0" fill="none" stroke="rgb(0, 0, 0)" stroke-opacity="1.0" stroke-linecap="round" stroke-linejoin="round"/>
    <path d="M 143.46829223632812 162.68629455566406 C 156.87451171875 159.14210510253906 148.01466369628906 157.72674560546875 146.4086151123047 135.2028350830078" stroke-width="3.0" fill="none" stroke="rgb(0, 0, 0)" stroke-opacity="1.0" stroke-linecap="round" stroke-linejoin="round"/>
    <path d="M 75.43254852294922 168.17282104492188 C 95.04489135742188 173.76504516601562 150.83164978027344 167.20425415039062 80.34461212158203 168.16680908203125" stroke-width="3.0" fill="none" stroke="rgb(0, 0, 0)" stroke-opacity="1.0" stroke-linecap="round" stroke-linejoin="round"/>
    <path d="M 122.75428009033203 178.26727294921875 C 123.75493621826172 178.37791442871094 121.01766204833984 160.79673767089844 119.74144744873047 167.9647979736328" stroke-width="3.0" fill="none" stroke="rgb(0, 0, 0)" stroke-opacity="1.0" stroke-linecap="round" stroke-linejoin="round"/>
    <path d="M 149.50718688964844 80.49931335449219 C 126.49586486816406 139.65478515625 161.8934783935547 83.94017028808594 138.74403381347656 177.860595703125" stroke-width="3.0" fill="none" stroke="rgb(0, 0, 0)" stroke-opacity="1.0" stroke-linecap="round" stroke-linejoin="round"/>
    <path d="M 115.54841613769531 165.5066680908203 C 96.79573059082031 175.0862579345703 100.11386108398438 146.0107421875 116.70401763916016 169.0589599609375" stroke-width="3.0" fill="none" stroke="rgb(0, 0, 0)" stroke-opacity="1.0" stroke-linecap="round" stroke-linejoin="round"/>
    <path d="M 95.67688751220703 150.9221954345703 C 94.77637481689453 195.4595184326172 104.87704467773438 79.3099365234375 72.24115753173828 102.77560424804688" stroke-width="3.0" fill="none" stroke="rgb(0, 0, 0)" stroke-opacity="1.0" stroke-linecap="round" stroke-linejoin="round"/>
    <path d="M 91.8134536743164 157.0249786376953 C 117.49124908447266 170.1048126220703 147.0101776123047 173.08056640625 82.36197662353516 165.59901428222656" stroke-width="3.0" fill="none" stroke="rgb(0, 0, 0)" stroke-opacity="1.0" stroke-linecap="round" stroke-linejoin="round"/>
    <path d="M 112.5789566040039 157.07456970214844 C 41.60348892211914 182.72518920898438 96.8458251953125 144.37937927246094 110.72016906738281 167.6245574951172" stroke-width="3.0" fill="none" stroke="rgb(0, 0, 0)" stroke-opacity="1.0" stroke-linecap="round" stroke-linejoin="round"/>
    <path d="M 117.77277374267578 80.41779327392578 C 112.36012268066406 96.8927001953125 157.79605102539062 103.68927764892578 116.2716064453125 79.18461608886719" stroke-width="3.0" fill="none" stroke="rgb(0, 0, 0)" stroke-opacity="1.0" stroke-linecap="round" stroke-linejoin="round"/>
    <path d="M 118.0242919921875 97.31060028076172 C 147.49435424804688 66.48701477050781 166.8842010498047 108.72931671142578 121.60245513916016 96.70516967773438" stroke-width="3.0" fill="none" stroke="rgb(0, 0, 0)" stroke-opacity="1.0" stroke-linecap="round" stroke-linejoin="round"/>
  </g>
</svg>
