<?xml version="1.0" ?>
<svg xmlns="http://www.w3.org/2000/svg" version="1.1" width="224" height="224">
  <defs/>
  <g>
    <path d="M 82.42125701904297 169.63363647460938 C 119.19967651367188 169.2071990966797 93.3669662475586 184.3573760986328 105.16551971435547 141.76123046875" stroke-width="3.0" fill="none" stroke="rgb(0, 0, 0)" stroke-opacity="1.0" stroke-linecap="round" stroke-linejoin="round"/>
    <path d="M 111.32129669189453 164.43154907226562 C 26.35255241394043 151.82191467285156 75.79571533203125 191.8367156982422 120.3381118774414 174.75730895996094" stroke-width="3.0" fill="none" stroke="rgb(0, 0, 0)" stroke-opacity="1.0" stroke-linecap="round" stroke-linejoin="round"/>
    <path d="M 132.74813842773438 176.923583984375 C 153.3404541015625 179.8528594970703 139.372802734375 166.77796936035156 142.72178649902344 167.69447326660156" stroke-width="3.0" fill="none" stroke="rgb(0, 0, 0)" stroke-opacity="1.0" stroke-linecap="round" stroke-linejoin="round"/>
    <path d="M 69.5177230834961 161.61875915527344 C 53.18766403198242 173.24462890625 109.33606719970703 180.02999877929688 82.97789001464844 178.5348663330078" stroke-width="3.0" fill="none" stroke="rgb(0, 0, 0)" stroke-opacity="1.0" stroke-linecap="round" stroke-linejoin="round"/>
    <path d="M 129.32469177246094 145.3621826171875 C 128.85975646972656 159.203125 129.32901000976562 147.1798553466797 129.98155212402344 174.04736328125" stroke-width="3.0" fill="none" stroke="rgb(0, 0, 0)" stroke-opacity="1.0" stroke-linecap="round" stroke-linejoin="round"/>
    <path d="M 114.24116516113281 171.19448852539062 C 107.77342987060547 170.07943725585938 100.44100952148438 173.21725463867188 90.76631164550781 171.365478515625" stroke-width="3.0" fill="none" stroke="rgb(0, 0, 0)" stroke-opacity="1.0" stroke-linecap="round" stroke-linejoin="round"/>
    <path d="M 142.591552734375 165.72666931152344 C 158.71055603027344 161.937255859375 146.3675079345703 149.32667541503906 145.51339721679688 140.07997131347656" stroke-width="3.0" fill="none" stroke="rgb(0, 0, 0)" stroke-opacity="1.0" stroke-linecap="round" stroke-linejoin="round"/>
    <path d="M 72.98100280761719 167.68185424804688 C 100.88892364501953 187.39971923828125 170.29466247558594 164.8106689453125 75.28704833984375 161.70179748535156" stroke-width="3.0" fill="none" stroke="rgb(0, 0, 0)" stroke-opacity="1.0" stroke-linecap="round" stroke-linejoin="round"/>
    <path d="M 129.8109588623047 172.8691864013672 C 145.80789184570312 177.89999389648438 116.8929672241211 178.4261474609375 140.57342529296875 176.5564727783203" stroke-width="3.0" fill="none" stroke="rgb(0, 0, 0)" stroke-opacity="1.0" stroke-linecap="round" stroke-linejoin="round"/>
    <path d="M 148.38796997070312 81.98621368408203 C 126.09293365478516 131.4148406982422 159.70350646972656 79.06666564941406 141.3402862548828 171.99627685546875" stroke-width="3.0" fill="none" stroke="rgb(0, 0, 0)" stroke-opacity="1.0" stroke-linecap="round" stroke-linejoin="round"/>
    <path d="M 106.50249481201172 169.63333129882812 C 104.96250915527344 152.3504180908203 92.75772857666016 151.30224609375 127.65401458740234 176.30313110351562" stroke-width="3.0" fill="none" stroke="rgb(0, 0, 0)" stroke-opacity="1.0" stroke-linecap="round" stroke-linejoin="round"/>
    <path d="M 67.06832122802734 158.6151885986328 C 65.21439361572266 153.06021118164062 136.6814422607422 147.8703155517578 76.2031021118164 99.09361267089844" stroke-width="3.0" fill="none" stroke="rgb(0, 0, 0)" stroke-opacity="1.0" stroke-linecap="round" stroke-linejoin="round"/>
    <path d="M 73.6332015991211 168.2163848876953 C 104.5927963256836 175.88369750976562 133.51438903808594 171.4596710205078 80.05580139160156 160.81396484375" stroke-width="3.0" fill="none" stroke="rgb(0, 0, 0)" stroke-opacity="1.0" stroke-linecap="round" stroke-linejoin="round"/>
    <path d="M 117.37134552001953 166.91957092285156 C 53.271480560302734 175.5687255859375 70.97509765625 149.7915802001953 110.38227081298828 163.1222381591797" stroke-width="3.0" fill="none" stroke="rgb(0, 0, 0)" stroke-opacity="1.0" stroke-linecap="round" stroke-linejoin="round"/>
    <path d="M 117.97527313232422 82.05766296386719 C 113.34502410888672 110.47427368164062 149.70086669921875 99.26673126220703 117.49522399902344 81.4518814086914" stroke-width="3.0" fill="none" stroke="rgb(0, 0, 0)" stroke-opacity="1.0" stroke-linecap="round" stroke-linejoin="round"/>
    <path d="M 120.9727554321289 90.55274200439453 C 168.34898376464844 78.47128295898438 135.44175720214844 105.46160888671875 136.5469512939453 93.35702514648438" stroke-width="3.0" fill="none" stroke="rgb(0, 0, 0)" stroke-opacity="1.0" stroke-linecap="round" stroke-linejoin="round"/>
  </g>
</svg>
