<?xml version="1.0" ?>
<svg xmlns="http://www.w3.org/2000/svg" version="1.1" width="224" height="224">
  <defs/>
  <g>
    <path d="M 79.11593627929688 168.8927001953125 C 120.9722900390625 169.0012969970703 84.45997619628906 192.40538024902344 101.7692642211914 131.22357177734375" stroke-width="3.0" fill="none" stroke="rgb(0, 0, 0)" stroke-opacity="1.0" stroke-linecap="round" stroke-linejoin="round"/>
    <path d="M 119.75225830078125 170.90838623046875 C 41.65571594238281 159.5172119140625 87.48326110839844 186.2183837890625 123.44325256347656 166.5145263671875" stroke-width="3.0" fill="none" stroke="rgb(0, 0, 0)" stroke-opacity="1.0" stroke-linecap="round" stroke-linejoin="round"/>
    <path d="M 126.20829010009766 177.73834228515625 C 154.85372924804688 180.6479949951172 139.534912109375 171.28323364257812 143.66616821289062 165.22618103027344" stroke-width="3.0" fill="none" stroke="rgb(0, 0, 0)" stroke-opacity="1.0" stroke-linecap="round" stroke-linejoin="round"/>
    <path d="M 79.73242950439453 153.9449005126953 C 27.650014877319336 182.79067993164062 124.85530853271484 187.17030334472656 128.2596435546875 169.2772216796875" stroke-width="3.0" fill="none" stroke="rgb(0, 0, 0)" stroke-opacity="1.0" stroke-linecap="round" stroke-linejoin="round"/>
    <path d="M 125.49945831298828 140.6922149658203 C 129.3241729736328 157.697509765625 128.06610107421875 153.61215209960938 128.6425018310547 175.8125457763672" stroke-width="3.0" fill="none" stroke="rgb(0, 0, 0)" stroke-opacity="1.0" stroke-linecap="round" stroke-linejoin="round"/>
    <path d="M 120.1972427368164 169.627685546875 C 130.15457153320312 176.01136779785156 91.94982147216797 180.9359130859375 78.30252075195312 177.71595764160156" stroke-width="3.0" fill="none" stroke="rgb(0, 0, 0)" stroke-opacity="1.0" stroke-linecap="round" stroke-linejoin="round"/>
    <path d="M 140.926025390625 164.0408935546875 C 154.73501586914062 158.344970703125 148.60948181152344 153.19131469726562 145.84320068359375 138.944580078125" stroke-width="3.0" fill="none" stroke="rgb(0, 0, 0)" stroke-opacity="1.0" stroke-linecap="round" stroke-linejoin="round"/>
    <path d="M 83.62340545654297 165.74049377441406 C 99.34504699707031 176.54588317871094 154.35284423828125 165.24591064453125 81.14852142333984 165.64552307128906" stroke-width="3.0" fill="none" stroke="rgb(0, 0, 0)" stroke-opacity="1.0" stroke-linecap="round" stroke-linejoin="round"/>
    <path d="M 134.00979614257812 173.10549926757812 C 141.0334014892578 182.4829559326172 127.34030151367188 175.9617462158203 142.2229461669922 175.756591796875" stroke-width="3.0" fill="none" stroke="rgb(0, 0, 0)" stroke-opacity="1.0" stroke-linecap="round" stroke-linejoin="round"/>
    <path d="M 148.4547576904297 80.4742202758789 C 128.5010223388672 138.84266662597656 159.95790100097656 77.0282211303711 140.7618408203125 169.3555450439453" stroke-width="3.0" fill="none" stroke="rgb(0, 0, 0)" stroke-opacity="1.0" stroke-linecap="round" stroke-linejoin="round"/>
    <path d="M 113.52931213378906 170.04153442382812 C 98.52284240722656 163.86920166015625 89.93810272216797 149.72023010253906 125.5959243774414 176.89967346191406" stroke-width="3.0" fill="none" stroke="rgb(0, 0, 0)" stroke-opacity="1.0" stroke-linecap="round" stroke-linejoin="round"/>
    <path d="M 84.20256042480469 151.38230895996094 C 69.30793762207031 158.9056396484375 134.21047973632812 133.6836700439453 73.9581527709961 99.7420654296875" stroke-width="3.0" fill="none" stroke="rgb(0, 0, 0)" stroke-opacity="1.0" stroke-linecap="round" stroke-linejoin="round"/>
    <path d="M 94.16021728515625 161.1980438232422 C 112.85710144042969 175.98020935058594 146.57339477539062 165.1265411376953 86.70582580566406 166.31532287597656" stroke-width="3.0" fill="none" stroke="rgb(0, 0, 0)" stroke-opacity="1.0" stroke-linecap="round" stroke-linejoin="round"/>
    <path d="M 107.74337768554688 168.60153198242188 C 54.0146598815918 181.3140411376953 81.7123031616211 150.3872833251953 111.9519271850586 168.801513671875" stroke-width="3.0" fill="none" stroke="rgb(0, 0, 0)" stroke-opacity="1.0" stroke-linecap="round" stroke-linejoin="round"/>
    <path d="M 118.6508560180664 82.93079376220703 C 109.83782196044922 100.6582260131836 158.2547607421875 104.35879516601562 118.19328308105469 80.51007843017578" stroke-width="3.0" fill="none" stroke="rgb(0, 0, 0)" stroke-opacity="1.0" stroke-linecap="round" stroke-linejoin="round"/>
    <path d="M 119.12744903564453 98.6337661743164 C 167.82461547851562 62.536067962646484 143.45848083496094 107.3210678100586 136.33982849121094 100.6257553100586" stroke-width="3.0" fill="none" stroke="rgb(0, 0, 0)" stroke-opacity="1.0" stroke-linecap="round" stroke-linejoin="round"/>
  </g>
</svg>
