<?xml version="1.0" ?>
<svg xmlns="http://www.w3.org/2000/svg" version="1.1" width="224" height="224">
  <defs/>
  <g>
    <path d="M 85.25635528564453 167.17160034179688 C 100.46845245361328 178.3240509033203 89.65666961669922 180.24923706054688 97.80059051513672 144.5045166015625" stroke-width="3.0" fill="none" stroke="rgb(0, 0, 0)" stroke-opacity="1.0" stroke-linecap="round" stroke-linejoin="round"/>
    <path d="M 87.18651580810547 164.25717163085938 C 89.14405059814453 171.50257873535156 85.50594329833984 182.2411346435547 121.77330017089844 166.26649475097656" stroke-width="3.0" fill="none" stroke="rgb(0, 0, 0)" stroke-opacity="1.0" stroke-linecap="round" stroke-linejoin="round"/>
    <path d="M 132.6711883544922 180.80560302734375 C 152.31942749023438 184.5696258544922 131.3497772216797 169.85511779785156 144.9392852783203 164.97361755371094" stroke-width="3.0" fill="none" stroke="rgb(0, 0, 0)" stroke-opacity="1.0" stroke-linecap="round" stroke-linejoin="round"/>
    <path d="M 67.69784545898438 169.86288452148438 C 72.49859619140625 179.07223510742188 99.69414520263672 170.0574188232422 82.12062072753906 175.15109252929688" stroke-width="3.0" fill="none" stroke="rgb(0, 0, 0)" stroke-opacity="1.0" stroke-linecap="round" stroke-linejoin="round"/>
    <path d="M 138.59881591796875 143.41331481933594 C 135.69940185546875 150.8179168701172 137.4888153076172 137.6157684326172 133.3549041748047 170.5599365234375" stroke-width="3.0" fill="none" stroke="rgb(0, 0, 0)" stroke-opacity="1.0" stroke-linecap="round" stroke-linejoin="round"/>
    <path d="M 106.56432342529297 152.47894287109375 C 112.7335433959961 168.96072387695312 86.23200225830078 176.23011779785156 75.27986145019531 169.58140563964844" stroke-width="3.0" fill="none" stroke="rgb(0, 0, 0)" stroke-opacity="1.0" stroke-linecap="round" stroke-linejoin="round"/>
    <path d="M 145.36476135253906 160.45033264160156 C 150.68484497070312 159.43414306640625 151.703369140625 143.62704467773438 147.38607788085938 159.18075561523438" stroke-width="3.0" fill="none" stroke="rgb(0, 0, 0)" stroke-opacity="1.0" stroke-linecap="round" stroke-linejoin="round"/>
    <path d="M 69.47726440429688 163.2386474609375 C 80.25059509277344 181.43893432617188 110.1102066040039 175.9097442626953 97.53751373291016 167.14288330078125" stroke-width="3.0" fill="none" stroke="rgb(0, 0, 0)" stroke-opacity="1.0" stroke-linecap="round" stroke-linejoin="round"/>
    <path d="M 134.9137420654297 163.11891174316406 C 125.93089294433594 186.9577178955078 130.1404266357422 177.732421875 130.60830688476562 176.82766723632812" stroke-width="3.0" fill="none" stroke="rgb(0, 0, 0)" stroke-opacity="1.0" stroke-linecap="round" stroke-linejoin="round"/>
    <path d="M 138.57351684570312 107.60213470458984 C 139.7281036376953 125.1325454711914 156.50018310546875 110.26057434082031 149.80465698242188 155.07064819335938" stroke-width="3.0" fill="none" stroke="rgb(0, 0, 0)" stroke-opacity="1.0" stroke-linecap="round" stroke-linejoin="round"/>
    <path d="M 104.22391510009766 166.48721313476562 C 113.33454895019531 112.68404388427734 124.74571228027344 111.58494567871094 121.39533233642578 174.74327087402344" stroke-width="3.0" fill="none" stroke="rgb(0, 0, 0)" stroke-opacity="1.0" stroke-linecap="round" stroke-linejoin="round"/>
    <path d="M 70.42657470703125 162.97178649902344 C 83.28024291992188 138.42242431640625 120.20901489257812 164.58004760742188 73.68875885009766 101.59090423583984" stroke-width="3.0" fill="none" stroke="rgb(0, 0, 0)" stroke-opacity="1.0" stroke-linecap="round" stroke-linejoin="round"/>
    <path d="M 90.54398345947266 167.6876983642578 C 95.43338012695312 167.4130096435547 101.43000793457031 154.2174835205078 86.52263641357422 163.58885192871094" stroke-width="3.0" fill="none" stroke="rgb(0, 0, 0)" stroke-opacity="1.0" stroke-linecap="round" stroke-linejoin="round"/>
    <path d="M 87.7842788696289 161.35708618164062 C 91.28685760498047 167.79469299316406 106.46784973144531 163.95716857910156 109.72543334960938 167.5865478515625" stroke-width="3.0" fill="none" stroke="rgb(0, 0, 0)" stroke-opacity="1.0" stroke-linecap="round" stroke-linejoin="round"/>
    <path d="M 119.7664794921875 87.20390319824219 C 117.06394958496094 95.99288940429688 136.1309051513672 96.02050018310547 116.32064056396484 80.4327392578125" stroke-width="3.0" fill="none" stroke="rgb(0, 0, 0)" stroke-opacity="1.0" stroke-linecap="round" stroke-linejoin="round"/>
    <path d="M 135.51829528808594 93.7947769165039 C 132.9014434814453 75.93482971191406 150.73330688476562 98.9697036743164 139.4563751220703 92.21906280517578" stroke-width="3.0" fill="none" stroke="rgb(0, 0, 0)" stroke-opacity="1.0" stroke-linecap="round" stroke-linejoin="round"/>
  </g>
</svg>
