<?xml version="1.0" ?>
<svg xmlns="http://www.w3.org/2000/svg" version="1.1" width="224" height="224">
  <defs/>
  <g>
    <path d="M 93.64876556396484 161.0418243408203 C 113.88856506347656 159.2433624267578 96.83042907714844 173.6702880859375 100.2997055053711 145.2059326171875" stroke-width="3.0" fill="none" stroke="rgb(0, 0, 0)" stroke-opacity="1.0" stroke-linecap="round" stroke-linejoin="round"/>
    <path d="M 100.44080352783203 169.85984802246094 C 43.953033447265625 155.3460693359375 79.39463806152344 188.09910583496094 125.71427154541016 172.29193115234375" stroke-width="3.0" fill="none" stroke="rgb(0, 0, 0)" stroke-opacity="1.0" stroke-linecap="round" stroke-linejoin="round"/>
    <path d="M 127.13867950439453 175.61505126953125 C 156.97471618652344 177.28919982910156 144.43112182617188 169.63131713867188 142.4400634765625 168.0341033935547" stroke-width="3.0" fill="none" stroke="rgb(0, 0, 0)" stroke-opacity="1.0" stroke-linecap="round" stroke-linejoin="round"/>
    <path d="M 64.99673461914062 167.09078979492188 C 62.813148498535156 181.21600341796875 105.7999496459961 175.06712341308594 88.58030700683594 175.94227600097656" stroke-width="3.0" fill="none" stroke="rgb(0, 0, 0)" stroke-opacity="1.0" stroke-linecap="round" stroke-linejoin="round"/>
    <path d="M 130.3963165283203 149.80239868164062 C 127.92573547363281 149.221923828125 131.71868896484375 146.23699951171875 129.77809143066406 176.1514892578125" stroke-width="3.0" fill="none" stroke="rgb(0, 0, 0)" stroke-opacity="1.0" stroke-linecap="round" stroke-linejoin="round"/>
    <path d="M 116.95291900634766 163.96527099609375 C 119.97102355957031 161.1494140625 94.04631805419922 162.6661376953125 78.51629638671875 164.16798400878906" stroke-width="3.0" fill="none" stroke="rgb(0, 0, 0)" stroke-opacity="1.0" stroke-linecap="round" stroke-linejoin="round"/>
    <path d="M 144.0502471923828 166.3760986328125 C 152.96075439453125 154.70608520507812 152.06320190429688 167.0516357421875 145.54742431640625 135.10629272460938" stroke-width="3.0" fill="none" stroke="rgb(0, 0, 0)" stroke-opacity="1.0" stroke-linecap="round" stroke-linejoin="round"/>
    <path d="M 70.82246398925781 166.668212890625 C 86.15494537353516 176.0078887939453 146.81106567382812 168.39071655273438 99.1648178100586 163.0381317138672" stroke-width="3.0" fill="none" stroke="rgb(0, 0, 0)" stroke-opacity="1.0" stroke-linecap="round" stroke-linejoin="round"/>
    <path d="M 134.42083740234375 170.7388916015625 C 145.65640258789062 184.80380249023438 113.9103775024414 175.91798400878906 129.6807403564453 177.59765625" stroke-width="3.0" fill="none" stroke="rgb(0, 0, 0)" stroke-opacity="1.0" stroke-linecap="round" stroke-linejoin="round"/>
    <path d="M 142.3097686767578 98.32100677490234 C 129.70721435546875 119.30089569091797 154.9554901123047 89.73490142822266 142.61363220214844 165.34646606445312" stroke-width="3.0" fill="none" stroke="rgb(0, 0, 0)" stroke-opacity="1.0" stroke-linecap="round" stroke-linejoin="round"/>
    <path d="M 116.22432708740234 167.160400390625 C 120.91140747070312 121.08665466308594 104.58251190185547 118.84591674804688 124.42918395996094 176.82199096679688" stroke-width="3.0" fill="none" stroke="rgb(0, 0, 0)" stroke-opacity="1.0" stroke-linecap="round" stroke-linejoin="round"/>
    <path d="M 63.827510833740234 168.68914794921875 C 74.23780822753906 141.982666015625 131.75987243652344 170.1593780517578 77.98746490478516 99.54930114746094" stroke-width="3.0" fill="none" stroke="rgb(0, 0, 0)" stroke-opacity="1.0" stroke-linecap="round" stroke-linejoin="round"/>
    <path d="M 82.88215637207031 162.4302978515625 C 103.75347137451172 157.2677764892578 109.448486328125 149.54946899414062 70.69075012207031 166.3792724609375" stroke-width="3.0" fill="none" stroke="rgb(0, 0, 0)" stroke-opacity="1.0" stroke-linecap="round" stroke-linejoin="round"/>
    <path d="M 108.68831634521484 168.03822326660156 C 78.8395004272461 168.9496612548828 96.90666198730469 157.01126098632812 116.83971405029297 161.22866821289062" stroke-width="3.0" fill="none" stroke="rgb(0, 0, 0)" stroke-opacity="1.0" stroke-linecap="round" stroke-linejoin="round"/>
    <path d="M 117.87385559082031 85.77533721923828 C 114.4543685913086 97.71671295166016 138.48582458496094 97.2746810913086 117.74544525146484 82.66403198242188" stroke-width="3.0" fill="none" stroke="rgb(0, 0, 0)" stroke-opacity="1.0" stroke-linecap="round" stroke-linejoin="round"/>
    <path d="M 131.3925323486328 92.01380157470703 C 153.3014373779297 80.6492691040039 133.984375 104.5304183959961 133.92605590820312 90.42263793945312" stroke-width="3.0" fill="none" stroke="rgb(0, 0, 0)" stroke-opacity="1.0" stroke-linecap="round" stroke-linejoin="round"/>
  </g>
</svg>
