<?xml version="1.0" ?>
<svg xmlns="http://www.w3.org/2000/svg" version="1.1" width="224" height="224">
  <defs/>
  <g>
    <path d="M 92.04713439941406 165.73704528808594 C 104.39593505859375 172.77581787109375 97.78523254394531 183.6113739013672 99.32201385498047 141.21580505371094" stroke-width="3.0" fill="none" stroke="rgb(0, 0, 0)" stroke-opacity="1.0" stroke-linecap="round" stroke-linejoin="round"/>
    <path d="M 92.59383392333984 162.95382690429688 C 81.3335952758789 172.01889038085938 77.69302368164062 183.1571044921875 123.18656158447266 170.21600341796875" stroke-width="3.0" fill="none" stroke="rgb(0, 0, 0)" stroke-opacity="1.0" stroke-linecap="round" stroke-linejoin="round"/>
    <path d="M 129.01187133789062 180.24143981933594 C 158.05386352539062 176.5667266845703 128.33932495117188 179.1455535888672 137.7271270751953 159.99838256835938" stroke-width="3.0" fill="none" stroke="rgb(0, 0, 0)" stroke-opacity="1.0" stroke-linecap="round" stroke-linejoin="round"/>
    <path d="M 67.41280364990234 167.93414306640625 C 75.03202056884766 179.73204040527344 102.84583282470703 174.28289794921875 88.72674560546875 176.27101135253906" stroke-width="3.0" fill="none" stroke="rgb(0, 0, 0)" stroke-opacity="1.0" stroke-linecap="round" stroke-linejoin="round"/>
    <path d="M 138.39639282226562 140.69277954101562 C 132.17852783203125 153.27256774902344 133.9810791015625 139.2565460205078 130.67039489746094 167.40463256835938" stroke-width="3.0" fill="none" stroke="rgb(0, 0, 0)" stroke-opacity="1.0" stroke-linecap="round" stroke-linejoin="round"/>
    <path d="M 104.68943786621094 157.15284729003906 C 115.85176086425781 168.20274353027344 90.6651840209961 171.86920166015625 75.858642578125 168.59088134765625" stroke-width="3.0" fill="none" stroke="rgb(0, 0, 0)" stroke-opacity="1.0" stroke-linecap="round" stroke-linejoin="round"/>
    <path d="M 145.48025512695312 166.37429809570312 C 150.65676879882812 164.8694305419922 145.85598754882812 160.49948120117188 147.11619567871094 159.92587280273438" stroke-width="3.0" fill="none" stroke="rgb(0, 0, 0)" stroke-opacity="1.0" stroke-linecap="round" stroke-linejoin="round"/>
    <path d="M 70.28006744384766 165.0188751220703 C 83.47168731689453 183.64427185058594 142.56228637695312 171.9310760498047 108.10587310791016 167.93873596191406" stroke-width="3.0" fill="none" stroke="rgb(0, 0, 0)" stroke-opacity="1.0" stroke-linecap="round" stroke-linejoin="round"/>
    <path d="M 132.3555908203125 169.41647338867188 C 126.44579315185547 189.4024658203125 124.69914245605469 173.06167602539062 134.4897918701172 177.9883270263672" stroke-width="3.0" fill="none" stroke="rgb(0, 0, 0)" stroke-opacity="1.0" stroke-linecap="round" stroke-linejoin="round"/>
    <path d="M 145.40330505371094 101.42800903320312 C 129.56651306152344 127.10948181152344 156.74893188476562 101.22979736328125 146.04896545410156 159.4290008544922" stroke-width="3.0" fill="none" stroke="rgb(0, 0, 0)" stroke-opacity="1.0" stroke-linecap="round" stroke-linejoin="round"/>
    <path d="M 109.15970611572266 169.65931701660156 C 121.25869750976562 110.59707641601562 117.5494384765625 107.227294921875 125.20712280273438 178.44593811035156" stroke-width="3.0" fill="none" stroke="rgb(0, 0, 0)" stroke-opacity="1.0" stroke-linecap="round" stroke-linejoin="round"/>
    <path d="M 65.336669921875 164.8362274169922 C 76.73904418945312 139.13189697265625 124.58075714111328 169.91921997070312 77.26752471923828 99.98115539550781" stroke-width="3.0" fill="none" stroke="rgb(0, 0, 0)" stroke-opacity="1.0" stroke-linecap="round" stroke-linejoin="round"/>
    <path d="M 87.83320617675781 165.92047119140625 C 103.74002838134766 171.56558227539062 106.21878051757812 153.78955078125 84.18883514404297 166.0061798095703" stroke-width="3.0" fill="none" stroke="rgb(0, 0, 0)" stroke-opacity="1.0" stroke-linecap="round" stroke-linejoin="round"/>
    <path d="M 93.65898895263672 169.92613220214844 C 92.11634826660156 166.2551727294922 107.3798828125 157.92623901367188 115.24468231201172 168.89353942871094" stroke-width="3.0" fill="none" stroke="rgb(0, 0, 0)" stroke-opacity="1.0" stroke-linecap="round" stroke-linejoin="round"/>
    <path d="M 122.92328643798828 84.14556121826172 C 120.48554229736328 97.77860260009766 141.7596435546875 96.3253402709961 120.58743286132812 82.78627014160156" stroke-width="3.0" fill="none" stroke="rgb(0, 0, 0)" stroke-opacity="1.0" stroke-linecap="round" stroke-linejoin="round"/>
    <path d="M 134.14369201660156 95.84796905517578 C 146.3654022216797 78.27494812011719 148.45037841796875 102.13997650146484 140.5219268798828 92.49594116210938" stroke-width="3.0" fill="none" stroke="rgb(0, 0, 0)" stroke-opacity="1.0" stroke-linecap="round" stroke-linejoin="round"/>
  </g>
</svg>
