<?xml version="1.0" ?>
<svg xmlns="http://www.w3.org/2000/svg" version="1.1" width="224" height="224">
  <defs/>
  <g>
    <path d="M 83.29642486572266 163.96734619140625 C 97.5123291015625 176.12855529785156 88.79859161376953 173.0099639892578 89.10787963867188 158.74591064453125" stroke-width="3.0" fill="none" stroke="rgb(0, 0, 0)" stroke-opacity="1.0" stroke-linecap="round" stroke-linejoin="round"/>
    <path d="M 91.9220962524414 169.682861328125 C 86.89317321777344 170.08358764648438 84.03428649902344 174.87161254882812 111.92819213867188 174.65626525878906" stroke-width="3.0" fill="none" stroke="rgb(0, 0, 0)" stroke-opacity="1.0" stroke-linecap="round" stroke-linejoin="round"/>
    <path d="M 138.77406311035156 173.74513244628906 C 159.3636474609375 172.4993896484375 148.71295166015625 161.92633056640625 149.77040100097656 158.29452514648438" stroke-width="3.0" fill="none" stroke="rgb(0, 0, 0)" stroke-opacity="1.0" stroke-linecap="round" stroke-linejoin="round"/>
    <path d="M 66.221435546875 167.81532287597656 C 83.67745208740234 177.8111572265625 94.36102294921875 171.2482147216797 81.54853820800781 172.87164306640625" stroke-width="3.0" fill="none" stroke="rgb(0, 0, 0)" stroke-opacity="1.0" stroke-linecap="round" stroke-linejoin="round"/>
    <path d="M 141.55247497558594 149.0703582763672 C 140.03973388671875 153.9619903564453 143.8986358642578 140.3585968017578 136.85513305664062 165.79689025878906" stroke-width="3.0" fill="none" stroke="rgb(0, 0, 0)" stroke-opacity="1.0" stroke-linecap="round" stroke-linejoin="round"/>
    <path d="M 101.46336364746094 166.42703247070312 C 110.40554809570312 183.2657470703125 93.60260009765625 178.63963317871094 73.53337860107422 169.6469268798828" stroke-width="3.0" fill="none" stroke="rgb(0, 0, 0)" stroke-opacity="1.0" stroke-linecap="round" stroke-linejoin="round"/>
    <path d="M 150.20538330078125 156.96066284179688 C 148.49301147460938 147.15328979492188 151.9787139892578 135.23548889160156 148.9436798095703 161.81283569335938" stroke-width="3.0" fill="none" stroke="rgb(0, 0, 0)" stroke-opacity="1.0" stroke-linecap="round" stroke-linejoin="round"/>
    <path d="M 73.26734161376953 163.2271270751953 C 86.45460510253906 178.52520751953125 99.95101928710938 177.8070831298828 87.25969696044922 165.16355895996094" stroke-width="3.0" fill="none" stroke="rgb(0, 0, 0)" stroke-opacity="1.0" stroke-linecap="round" stroke-linejoin="round"/>
    <path d="M 137.38510131835938 158.25814819335938 C 121.0933837890625 187.12188720703125 125.52294158935547 186.95660400390625 130.44520568847656 186.0788116455078" stroke-width="3.0" fill="none" stroke="rgb(0, 0, 0)" stroke-opacity="1.0" stroke-linecap="round" stroke-linejoin="round"/>
    <path d="M 149.25396728515625 110.50426483154297 C 143.96295166015625 141.53749084472656 146.0074920654297 116.37405395507812 150.42869567871094 144.43898010253906" stroke-width="3.0" fill="none" stroke="rgb(0, 0, 0)" stroke-opacity="1.0" stroke-linecap="round" stroke-linejoin="round"/>
    <path d="M 101.19337463378906 163.39915466308594 C 107.98994445800781 146.13011169433594 124.62427520751953 145.6256103515625 119.35250091552734 181.77296447753906" stroke-width="3.0" fill="none" stroke="rgb(0, 0, 0)" stroke-opacity="1.0" stroke-linecap="round" stroke-linejoin="round"/>
    <path d="M 75.03020477294922 161.02818298339844 C 88.52056884765625 153.19981384277344 104.34308624267578 158.9248809814453 86.80477142333984 115.6618423461914" stroke-width="3.0" fill="none" stroke="rgb(0, 0, 0)" stroke-opacity="1.0" stroke-linecap="round" stroke-linejoin="round"/>
    <path d="M 91.65265655517578 169.4708251953125 C 91.83519744873047 168.25283813476562 99.38520050048828 167.76461791992188 86.81197357177734 161.76629638671875" stroke-width="3.0" fill="none" stroke="rgb(0, 0, 0)" stroke-opacity="1.0" stroke-linecap="round" stroke-linejoin="round"/>
    <path d="M 89.43216705322266 166.1883087158203 C 92.62037658691406 165.2637939453125 104.09107971191406 164.91746520996094 104.90629577636719 171.85487365722656" stroke-width="3.0" fill="none" stroke="rgb(0, 0, 0)" stroke-opacity="1.0" stroke-linecap="round" stroke-linejoin="round"/>
    <path d="M 118.66731262207031 84.31861114501953 C 120.96875 84.64875030517578 126.2242660522461 94.16700744628906 123.97335815429688 82.55652618408203" stroke-width="3.0" fill="none" stroke="rgb(0, 0, 0)" stroke-opacity="1.0" stroke-linecap="round" stroke-linejoin="round"/>
    <path d="M 137.02976989746094 88.1503677368164 C 133.33859252929688 80.21749114990234 144.1191864013672 85.68942260742188 137.12847900390625 87.5999984741211" stroke-width="3.0" fill="none" stroke="rgb(0, 0, 0)" stroke-opacity="1.0" stroke-linecap="round" stroke-linejoin="round"/>
  </g>
</svg>
