<?xml version="1.0" ?>
<svg xmlns="http://www.w3.org/2000/svg" version="1.1" width="224" height="224">
  <defs/>
  <g>
    <path d="M 84.06512451171875 169.93585205078125 C 126.96185302734375 169.97824096679688 91.69613647460938 181.78407287597656 102.41140747070312 134.7730712890625" stroke-width="3.0" fill="none" stroke="rgb(0, 0, 0)" stroke-opacity="1.0" stroke-linecap="round" stroke-linejoin="round"/>
    <path d="M 114.98419952392578 173.0411834716797 C 34.49825668334961 153.35366821289062 84.77462768554688 183.9635772705078 119.69355010986328 167.8949737548828" stroke-width="3.0" fill="none" stroke="rgb(0, 0, 0)" stroke-opacity="1.0" stroke-linecap="round" stroke-linejoin="round"/>
    <path d="M 123.9041519165039 177.15399169921875 C 155.54855346679688 180.74893188476562 138.24966430664062 169.28001403808594 141.1717071533203 168.73854064941406" stroke-width="3.0" fill="none" stroke="rgb(0, 0, 0)" stroke-opacity="1.0" stroke-linecap="round" stroke-linejoin="round"/>
    <path d="M 73.91324615478516 156.83079528808594 C 37.90488815307617 175.93356323242188 122.76142883300781 184.846435546875 98.47003173828125 170.04605102539062" stroke-width="3.0" fill="none" stroke="rgb(0, 0, 0)" stroke-opacity="1.0" stroke-linecap="round" stroke-linejoin="round"/>
    <path d="M 128.48635864257812 137.5177001953125 C 130.48721313476562 155.68899536132812 129.57998657226562 151.66233825683594 127.82988739013672 176.31936645507812" stroke-width="3.0" fill="none" stroke="rgb(0, 0, 0)" stroke-opacity="1.0" stroke-linecap="round" stroke-linejoin="round"/>
    <path d="M 120.48639678955078 170.7950897216797 C 114.03184509277344 176.1925811767578 96.9739990234375 178.33441162109375 89.19400024414062 175.9917449951172" stroke-width="3.0" fill="none" stroke="rgb(0, 0, 0)" stroke-opacity="1.0" stroke-linecap="round" stroke-linejoin="round"/>
    <path d="M 144.43431091308594 166.14321899414062 C 156.9092559814453 160.8553466796875 145.91162109375 152.70260620117188 146.70550537109375 135.47377014160156" stroke-width="3.0" fill="none" stroke="rgb(0, 0, 0)" stroke-opacity="1.0" stroke-linecap="round" stroke-linejoin="round"/>
    <path d="M 74.12299346923828 164.80067443847656 C 96.91754913330078 176.38148498535156 160.11178588867188 154.76219177246094 76.95072174072266 163.52188110351562" stroke-width="3.0" fill="none" stroke="rgb(0, 0, 0)" stroke-opacity="1.0" stroke-linecap="round" stroke-linejoin="round"/>
    <path d="M 130.40969848632812 165.6735382080078 C 141.76097106933594 179.96861267089844 120.0300064086914 175.8199920654297 139.47483825683594 176.2863311767578" stroke-width="3.0" fill="none" stroke="rgb(0, 0, 0)" stroke-opacity="1.0" stroke-linecap="round" stroke-linejoin="round"/>
    <path d="M 151.1378631591797 83.00443267822266 C 130.46905517578125 142.1459503173828 158.58599853515625 78.46048736572266 141.33045959472656 167.8385772705078" stroke-width="3.0" fill="none" stroke="rgb(0, 0, 0)" stroke-opacity="1.0" stroke-linecap="round" stroke-linejoin="round"/>
    <path d="M 112.88297271728516 166.1382598876953 C 102.45096588134766 150.6448974609375 89.96356201171875 150.6621551513672 124.44780731201172 176.69921875" stroke-width="3.0" fill="none" stroke="rgb(0, 0, 0)" stroke-opacity="1.0" stroke-linecap="round" stroke-linejoin="round"/>
    <path d="M 74.01753234863281 156.09112548828125 C 64.34407043457031 160.59854125976562 134.76296997070312 136.5321807861328 73.01528930664062 100.94451141357422" stroke-width="3.0" fill="none" stroke="rgb(0, 0, 0)" stroke-opacity="1.0" stroke-linecap="round" stroke-linejoin="round"/>
    <path d="M 84.88575744628906 161.77040100097656 C 111.82076263427734 171.5145721435547 144.13766479492188 151.90701293945312 84.88671875 159.57125854492188" stroke-width="3.0" fill="none" stroke="rgb(0, 0, 0)" stroke-opacity="1.0" stroke-linecap="round" stroke-linejoin="round"/>
    <path d="M 111.13570404052734 164.4949951171875 C 52.76894760131836 176.71900939941406 80.88980865478516 156.91018676757812 114.70053100585938 162.64462280273438" stroke-width="3.0" fill="none" stroke="rgb(0, 0, 0)" stroke-opacity="1.0" stroke-linecap="round" stroke-linejoin="round"/>
    <path d="M 118.53832244873047 84.36980438232422 C 111.943359375 100.50231170654297 159.9015655517578 108.75408935546875 117.41637420654297 81.04483795166016" stroke-width="3.0" fill="none" stroke="rgb(0, 0, 0)" stroke-opacity="1.0" stroke-linecap="round" stroke-linejoin="round"/>
    <path d="M 119.12965393066406 98.15802764892578 C 173.54074096679688 68.9361343383789 139.57106018066406 111.29674530029297 140.1777801513672 96.19583892822266" stroke-width="3.0" fill="none" stroke="rgb(0, 0, 0)" stroke-opacity="1.0" stroke-linecap="round" stroke-linejoin="round"/>
  </g>
</svg>
