<?xml version="1.0" ?>
<svg xmlns="http://www.w3.org/2000/svg" version="1.1" width="224" height="224">
  <defs/>
  <g>
    <path d="M 80.17003631591797 169.22787475585938 C 113.75796508789062 164.50332641601562 86.62947845458984 188.90419006347656 99.98149108886719 141.83749389648438" stroke-width="3.0" fill="none" stroke="rgb(0, 0, 0)" stroke-opacity="1.0" stroke-linecap="round" stroke-linejoin="round"/>
    <path d="M 111.94271850585938 170.23597717285156 C 28.810060501098633 158.1256866455078 76.43640899658203 188.30091857910156 124.22423553466797 177.4241943359375" stroke-width="3.0" fill="none" stroke="rgb(0, 0, 0)" stroke-opacity="1.0" stroke-linecap="round" stroke-linejoin="round"/>
    <path d="M 135.17739868164062 178.16436767578125 C 156.28001403808594 181.76412963867188 138.7578125 172.22866821289062 143.28048706054688 165.1770782470703" stroke-width="3.0" fill="none" stroke="rgb(0, 0, 0)" stroke-opacity="1.0" stroke-linecap="round" stroke-linejoin="round"/>
    <path d="M 66.47168731689453 164.8136749267578 C 59.81309509277344 177.4671630859375 108.85240173339844 181.49888610839844 78.6329574584961 177.55764770507812" stroke-width="3.0" fill="none" stroke="rgb(0, 0, 0)" stroke-opacity="1.0" stroke-linecap="round" stroke-linejoin="round"/>
    <path d="M 134.12368774414062 136.9999237060547 C 136.8647003173828 157.07943725585938 132.1218719482422 142.8572235107422 133.4512481689453 174.51998901367188" stroke-width="3.0" fill="none" stroke="rgb(0, 0, 0)" stroke-opacity="1.0" stroke-linecap="round" stroke-linejoin="round"/>
    <path d="M 122.13300323486328 170.4964141845703 C 111.58068084716797 164.834716796875 103.07093811035156 172.9548797607422 95.89490509033203 170.89984130859375" stroke-width="3.0" fill="none" stroke="rgb(0, 0, 0)" stroke-opacity="1.0" stroke-linecap="round" stroke-linejoin="round"/>
    <path d="M 148.4539337158203 161.1737518310547 C 158.48841857910156 159.47348022460938 146.4244842529297 156.29931640625 149.2717742919922 130.06222534179688" stroke-width="3.0" fill="none" stroke="rgb(0, 0, 0)" stroke-opacity="1.0" stroke-linecap="round" stroke-linejoin="round"/>
    <path d="M 74.7144546508789 169.8877716064453 C 97.10065460205078 178.60623168945312 157.87295532226562 160.82626342773438 80.91029357910156 164.58763122558594" stroke-width="3.0" fill="none" stroke="rgb(0, 0, 0)" stroke-opacity="1.0" stroke-linecap="round" stroke-linejoin="round"/>
    <path d="M 130.6957244873047 174.22604370117188 C 145.63629150390625 177.211181640625 115.75283813476562 178.64659118652344 138.47682189941406 179.25271606445312" stroke-width="3.0" fill="none" stroke="rgb(0, 0, 0)" stroke-opacity="1.0" stroke-linecap="round" stroke-linejoin="round"/>
    <path d="M 148.7189483642578 88.528076171875 C 131.53204345703125 123.98298645019531 162.4852752685547 92.28095245361328 140.53713989257812 171.30593872070312" stroke-width="3.0" fill="none" stroke="rgb(0, 0, 0)" stroke-opacity="1.0" stroke-linecap="round" stroke-linejoin="round"/>
    <path d="M 104.02066802978516 168.69143676757812 C 104.07817840576172 152.15673828125 91.14443969726562 159.20550537109375 128.74447631835938 175.7816619873047" stroke-width="3.0" fill="none" stroke="rgb(0, 0, 0)" stroke-opacity="1.0" stroke-linecap="round" stroke-linejoin="round"/>
    <path d="M 68.12905883789062 163.82147216796875 C 67.16667938232422 147.5629425048828 128.83392333984375 160.93032836914062 75.35850524902344 101.98403930664062" stroke-width="3.0" fill="none" stroke="rgb(0, 0, 0)" stroke-opacity="1.0" stroke-linecap="round" stroke-linejoin="round"/>
    <path d="M 74.1646728515625 169.2653350830078 C 105.72702026367188 165.4153594970703 129.87823486328125 171.2751922607422 77.99580383300781 169.93934631347656" stroke-width="3.0" fill="none" stroke="rgb(0, 0, 0)" stroke-opacity="1.0" stroke-linecap="round" stroke-linejoin="round"/>
    <path d="M 120.436767578125 167.68203735351562 C 54.293479919433594 168.59805297851562 70.94951629638672 153.20327758789062 111.6086654663086 163.3470916748047" stroke-width="3.0" fill="none" stroke="rgb(0, 0, 0)" stroke-opacity="1.0" stroke-linecap="round" stroke-linejoin="round"/>
    <path d="M 112.88182830810547 80.66229248046875 C 108.79924774169922 105.89929962158203 144.6111602783203 100.05138397216797 112.91284942626953 81.85918426513672" stroke-width="3.0" fill="none" stroke="rgb(0, 0, 0)" stroke-opacity="1.0" stroke-linecap="round" stroke-linejoin="round"/>
    <path d="M 126.18724822998047 95.23526763916016 C 157.03701782226562 85.83148193359375 129.68838500976562 105.95198059082031 133.93792724609375 94.12840270996094" stroke-width="3.0" fill="none" stroke="rgb(0, 0, 0)" stroke-opacity="1.0" stroke-linecap="round" stroke-linejoin="round"/>
  </g>
</svg>
