<?xml version="1.0" ?>
<svg xmlns="http://www.w3.org/2000/svg" version="1.1" width="224" height="224">
  <defs/>
  <g>
    <path d="M 79.96424865722656 169.0858917236328 C 120.34667205810547 163.8854522705078 84.78778839111328 191.12416076660156 100.38481903076172 136.42466735839844" stroke-width="3.0" fill="none" stroke="rgb(0, 0, 0)" stroke-opacity="1.0" stroke-linecap="round" stroke-linejoin="round"/>
    <path d="M 117.63310241699219 169.32223510742188 C 40.221397399902344 156.8190155029297 87.76569366455078 185.4664764404297 122.14459991455078 165.8994598388672" stroke-width="3.0" fill="none" stroke="rgb(0, 0, 0)" stroke-opacity="1.0" stroke-linecap="round" stroke-linejoin="round"/>
    <path d="M 123.11279296875 177.7527618408203 C 151.7742919921875 182.41986083984375 143.51443481445312 171.49362182617188 145.02626037597656 169.31060791015625" stroke-width="3.0" fill="none" stroke="rgb(0, 0, 0)" stroke-opacity="1.0" stroke-linecap="round" stroke-linejoin="round"/>
    <path d="M 85.76242065429688 155.96612548828125 C 26.337554931640625 177.9925079345703 123.99898529052734 187.8146209716797 121.10118865966797 170.29542541503906" stroke-width="3.0" fill="none" stroke="rgb(0, 0, 0)" stroke-opacity="1.0" stroke-linecap="round" stroke-linejoin="round"/>
    <path d="M 126.4996566772461 142.7738494873047 C 129.7396240234375 157.69100952148438 129.3815155029297 153.71585083007812 127.95184326171875 178.5252227783203" stroke-width="3.0" fill="none" stroke="rgb(0, 0, 0)" stroke-opacity="1.0" stroke-linecap="round" stroke-linejoin="round"/>
    <path d="M 119.04627990722656 172.85667419433594 C 129.77850341796875 173.5552215576172 89.74254608154297 180.98721313476562 76.74671173095703 176.8790740966797" stroke-width="3.0" fill="none" stroke="rgb(0, 0, 0)" stroke-opacity="1.0" stroke-linecap="round" stroke-linejoin="round"/>
    <path d="M 146.0392608642578 166.3822784423828 C 157.0055694580078 158.56356811523438 150.8223419189453 159.28848266601562 146.53907775878906 136.46534729003906" stroke-width="3.0" fill="none" stroke="rgb(0, 0, 0)" stroke-opacity="1.0" stroke-linecap="round" stroke-linejoin="round"/>
    <path d="M 82.94511413574219 167.76974487304688 C 96.4598159790039 177.0381622314453 151.79556274414062 165.04266357421875 82.9766845703125 163.9180450439453" stroke-width="3.0" fill="none" stroke="rgb(0, 0, 0)" stroke-opacity="1.0" stroke-linecap="round" stroke-linejoin="round"/>
    <path d="M 132.97238159179688 173.95492553710938 C 139.13510131835938 181.9899139404297 127.10572814941406 176.86947631835938 136.53890991210938 176.38804626464844" stroke-width="3.0" fill="none" stroke="rgb(0, 0, 0)" stroke-opacity="1.0" stroke-linecap="round" stroke-linejoin="round"/>
    <path d="M 148.2661895751953 81.22103118896484 C 131.746337890625 136.53619384765625 158.6879119873047 81.15750885009766 140.6751251220703 172.46713256835938" stroke-width="3.0" fill="none" stroke="rgb(0, 0, 0)" stroke-opacity="1.0" stroke-linecap="round" stroke-linejoin="round"/>
    <path d="M 111.94245910644531 168.9045867919922 C 96.05626678466797 167.86534118652344 88.54271697998047 154.6549072265625 125.66497802734375 176.60653686523438" stroke-width="3.0" fill="none" stroke="rgb(0, 0, 0)" stroke-opacity="1.0" stroke-linecap="round" stroke-linejoin="round"/>
    <path d="M 90.63343048095703 152.1532745361328 C 73.02256774902344 168.38365173339844 127.29900360107422 136.30697631835938 74.42257690429688 105.2462158203125" stroke-width="3.0" fill="none" stroke="rgb(0, 0, 0)" stroke-opacity="1.0" stroke-linecap="round" stroke-linejoin="round"/>
    <path d="M 94.24699401855469 158.52232360839844 C 112.39328002929688 175.40528869628906 145.2080078125 166.189208984375 86.8089370727539 169.28955078125" stroke-width="3.0" fill="none" stroke="rgb(0, 0, 0)" stroke-opacity="1.0" stroke-linecap="round" stroke-linejoin="round"/>
    <path d="M 108.7916259765625 168.94253540039062 C 56.2108268737793 181.6387176513672 85.31135559082031 149.19622802734375 112.051025390625 168.1533966064453" stroke-width="3.0" fill="none" stroke="rgb(0, 0, 0)" stroke-opacity="1.0" stroke-linecap="round" stroke-linejoin="round"/>
    <path d="M 117.73381805419922 79.81316375732422 C 108.83920288085938 104.80533599853516 150.57861328125 103.97319030761719 116.75106811523438 78.34054565429688" stroke-width="3.0" fill="none" stroke="rgb(0, 0, 0)" stroke-opacity="1.0" stroke-linecap="round" stroke-linejoin="round"/>
    <path d="M 117.27623748779297 99.92972564697266 C 161.2227325439453 62.42512130737305 148.46258544921875 114.36088562011719 129.69869995117188 101.49919891357422" stroke-width="3.0" fill="none" stroke="rgb(0, 0, 0)" stroke-opacity="1.0" stroke-linecap="round" stroke-linejoin="round"/>
  </g>
</svg>
