<?xml version="1.0" ?>
<svg xmlns="http://www.w3.org/2000/svg" version="1.1" width="224" height="224">
  <defs/>
  <g>
    <path d="M 84.43336486816406 166.7867889404297 C 151.61741638183594 168.83523559570312 97.53773498535156 182.34930419921875 121.1807861328125 109.22881317138672" stroke-width="3.0" fill="none" stroke="rgb(0, 0, 0)" stroke-opacity="1.0" stroke-linecap="round" stroke-linejoin="round"/>
    <path d="M 113.95762634277344 159.41183471679688 C 43.62009811401367 159.30374145507812 91.37577056884766 181.03009033203125 118.48873138427734 167.5782470703125" stroke-width="3.0" fill="none" stroke="rgb(0, 0, 0)" stroke-opacity="1.0" stroke-linecap="round" stroke-linejoin="round"/>
    <path d="M 123.60584259033203 178.02308654785156 C 153.69517517089844 179.34170532226562 140.21966552734375 175.93878173828125 144.0235595703125 162.65328979492188" stroke-width="3.0" fill="none" stroke="rgb(0, 0, 0)" stroke-opacity="1.0" stroke-linecap="round" stroke-linejoin="round"/>
    <path d="M 92.07408142089844 150.546630859375 C 16.478866577148438 174.1352081298828 118.49478149414062 191.6036376953125 124.78311920166016 166.34146118164062" stroke-width="3.0" fill="none" stroke="rgb(0, 0, 0)" stroke-opacity="1.0" stroke-linecap="round" stroke-linejoin="round"/>
    <path d="M 128.96304321289062 144.17893981933594 C 133.1822052001953 163.60218811035156 129.94725036621094 164.0628662109375 132.01486206054688 176.87937927246094" stroke-width="3.0" fill="none" stroke="rgb(0, 0, 0)" stroke-opacity="1.0" stroke-linecap="round" stroke-linejoin="round"/>
    <path d="M 121.0547866821289 173.48231506347656 C 127.80768585205078 170.1862335205078 108.5752944946289 182.24917602539062 79.10552978515625 175.6354217529297" stroke-width="3.0" fill="none" stroke="rgb(0, 0, 0)" stroke-opacity="1.0" stroke-linecap="round" stroke-linejoin="round"/>
    <path d="M 144.06785583496094 166.33541870117188 C 156.67576599121094 165.105712890625 150.33084106445312 158.58795166015625 144.70867919921875 134.0804901123047" stroke-width="3.0" fill="none" stroke="rgb(0, 0, 0)" stroke-opacity="1.0" stroke-linecap="round" stroke-linejoin="round"/>
    <path d="M 75.12881469726562 166.74591064453125 C 99.14039611816406 176.09449768066406 156.2892608642578 159.75453186035156 78.3896484375 164.60501098632812" stroke-width="3.0" fill="none" stroke="rgb(0, 0, 0)" stroke-opacity="1.0" stroke-linecap="round" stroke-linejoin="round"/>
    <path d="M 124.64064025878906 176.92156982421875 C 116.55168914794922 176.1763916015625 123.65779876708984 162.3460235595703 116.78599548339844 168.7658233642578" stroke-width="3.0" fill="none" stroke="rgb(0, 0, 0)" stroke-opacity="1.0" stroke-linecap="round" stroke-linejoin="round"/>
    <path d="M 148.19293212890625 82.73603057861328 C 121.55923461914062 133.5971221923828 158.06959533691406 83.69078063964844 142.53294372558594 167.4673614501953" stroke-width="3.0" fill="none" stroke="rgb(0, 0, 0)" stroke-opacity="1.0" stroke-linecap="round" stroke-linejoin="round"/>
    <path d="M 118.08445739746094 170.22337341308594 C 98.72047424316406 176.89178466796875 102.84402465820312 151.39170837402344 115.94091796875 169.66708374023438" stroke-width="3.0" fill="none" stroke="rgb(0, 0, 0)" stroke-opacity="1.0" stroke-linecap="round" stroke-linejoin="round"/>
    <path d="M 94.16592407226562 156.06492614746094 C 95.65472412109375 194.22503662109375 103.48101043701172 79.19314575195312 73.09028625488281 101.73593139648438" stroke-width="3.0" fill="none" stroke="rgb(0, 0, 0)" stroke-opacity="1.0" stroke-linecap="round" stroke-linejoin="round"/>
    <path d="M 91.09129333496094 161.49705505371094 C 113.9990005493164 160.11558532714844 140.83477783203125 170.11183166503906 77.8772964477539 165.9207763671875" stroke-width="3.0" fill="none" stroke="rgb(0, 0, 0)" stroke-opacity="1.0" stroke-linecap="round" stroke-linejoin="round"/>
    <path d="M 114.81661987304688 157.33145141601562 C 42.48576736450195 184.8736572265625 103.32950592041016 145.6634979248047 112.88351440429688 167.7028045654297" stroke-width="3.0" fill="none" stroke="rgb(0, 0, 0)" stroke-opacity="1.0" stroke-linecap="round" stroke-linejoin="round"/>
    <path d="M 119.536865234375 81.05616760253906 C 112.46870422363281 105.89257049560547 159.0112762451172 108.80233764648438 117.20384979248047 80.32456970214844" stroke-width="3.0" fill="none" stroke="rgb(0, 0, 0)" stroke-opacity="1.0" stroke-linecap="round" stroke-linejoin="round"/>
    <path d="M 118.26239013671875 104.21421813964844 C 132.07276916503906 70.38941192626953 171.2542266845703 109.53889465332031 123.00263977050781 102.06658172607422" stroke-width="3.0" fill="none" stroke="rgb(0, 0, 0)" stroke-opacity="1.0" stroke-linecap="round" stroke-linejoin="round"/>
  </g>
</svg>
