<?xml version="1.0" ?>
<svg xmlns="http://www.w3.org/2000/svg" version="1.1" width="224" height="224">
  <defs/>
  <g>
    <path d="M 79.34634399414062 161.93463134765625 C 141.70396423339844 155.59487915039062 99.2585220336914 160.8993682861328 114.55697631835938 142.89817810058594" stroke-width="3.0" fill="none" stroke="rgb(0, 0, 0)" stroke-opacity="1.0" stroke-linecap="round" stroke-linejoin="round"/>
    <path d="M 115.55419158935547 169.6337127685547 C 37.48252487182617 155.1050567626953 84.26304626464844 182.15013122558594 118.3443374633789 168.5572052001953" stroke-width="3.0" fill="none" stroke="rgb(0, 0, 0)" stroke-opacity="1.0" stroke-linecap="round" stroke-linejoin="round"/>
    <path d="M 124.49508666992188 178.7880859375 C 153.18728637695312 183.2144317626953 140.40106201171875 170.5534210205078 142.2294921875 166.89031982421875" stroke-width="3.0" fill="none" stroke="rgb(0, 0, 0)" stroke-opacity="1.0" stroke-linecap="round" stroke-linejoin="round"/>
    <path d="M 94.55896759033203 148.03134155273438 C 13.63229751586914 174.0026397705078 117.81230926513672 189.2952117919922 123.16910552978516 167.99664306640625" stroke-width="3.0" fill="none" stroke="rgb(0, 0, 0)" stroke-opacity="1.0" stroke-linecap="round" stroke-linejoin="round"/>
    <path d="M 127.28035736083984 144.02621459960938 C 130.62991333007812 160.79598999023438 127.7063980102539 148.17955017089844 130.0203399658203 177.12269592285156" stroke-width="3.0" fill="none" stroke="rgb(0, 0, 0)" stroke-opacity="1.0" stroke-linecap="round" stroke-linejoin="round"/>
    <path d="M 124.73529815673828 167.7089080810547 C 131.93206787109375 172.82518005371094 100.13843536376953 181.0708465576172 78.02650451660156 174.91140747070312" stroke-width="3.0" fill="none" stroke="rgb(0, 0, 0)" stroke-opacity="1.0" stroke-linecap="round" stroke-linejoin="round"/>
    <path d="M 146.14154052734375 167.4467315673828 C 156.00816345214844 161.4425811767578 146.930908203125 149.5013427734375 145.46705627441406 133.29397583007812" stroke-width="3.0" fill="none" stroke="rgb(0, 0, 0)" stroke-opacity="1.0" stroke-linecap="round" stroke-linejoin="round"/>
    <path d="M 76.31208801269531 166.81825256347656 C 88.09730529785156 172.4834442138672 142.6560516357422 162.09512329101562 82.41343688964844 160.80075073242188" stroke-width="3.0" fill="none" stroke="rgb(0, 0, 0)" stroke-opacity="1.0" stroke-linecap="round" stroke-linejoin="round"/>
    <path d="M 123.63965606689453 177.62640380859375 C 120.45018768310547 185.1517791748047 112.84107208251953 164.9114532470703 119.78564453125 168.1846466064453" stroke-width="3.0" fill="none" stroke="rgb(0, 0, 0)" stroke-opacity="1.0" stroke-linecap="round" stroke-linejoin="round"/>
    <path d="M 149.91041564941406 82.18438720703125 C 124.61646270751953 135.7060089111328 158.82705688476562 75.89632415771484 140.9625244140625 173.13014221191406" stroke-width="3.0" fill="none" stroke="rgb(0, 0, 0)" stroke-opacity="1.0" stroke-linecap="round" stroke-linejoin="round"/>
    <path d="M 112.2076416015625 170.9637451171875 C 94.68559265136719 169.42294311523438 91.91807556152344 144.31005859375 125.49557495117188 170.27587890625" stroke-width="3.0" fill="none" stroke="rgb(0, 0, 0)" stroke-opacity="1.0" stroke-linecap="round" stroke-linejoin="round"/>
    <path d="M 92.9200668334961 151.818115234375 C 92.99833679199219 190.83799743652344 110.99089050292969 84.14364624023438 72.65653991699219 103.00605773925781" stroke-width="3.0" fill="none" stroke="rgb(0, 0, 0)" stroke-opacity="1.0" stroke-linecap="round" stroke-linejoin="round"/>
    <path d="M 89.69044494628906 161.59622192382812 C 118.27239990234375 168.0959014892578 152.2780303955078 167.0077667236328 87.62847137451172 171.21961975097656" stroke-width="3.0" fill="none" stroke="rgb(0, 0, 0)" stroke-opacity="1.0" stroke-linecap="round" stroke-linejoin="round"/>
    <path d="M 107.43095397949219 167.0138397216797 C 44.77863311767578 179.76638793945312 92.90291595458984 143.20399475097656 103.49530792236328 168.62496948242188" stroke-width="3.0" fill="none" stroke="rgb(0, 0, 0)" stroke-opacity="1.0" stroke-linecap="round" stroke-linejoin="round"/>
    <path d="M 119.70255279541016 83.5457534790039 C 113.51891326904297 102.08905029296875 166.0343475341797 104.55288696289062 117.72968292236328 81.01741027832031" stroke-width="3.0" fill="none" stroke="rgb(0, 0, 0)" stroke-opacity="1.0" stroke-linecap="round" stroke-linejoin="round"/>
    <path d="M 118.87149810791016 100.24288177490234 C 151.8868865966797 67.98118591308594 163.172119140625 105.42276000976562 125.97081756591797 100.49254608154297" stroke-width="3.0" fill="none" stroke="rgb(0, 0, 0)" stroke-opacity="1.0" stroke-linecap="round" stroke-linejoin="round"/>
  </g>
</svg>
