<?xml version="1.0" ?>
<svg xmlns="http://www.w3.org/2000/svg" version="1.1" width="224" height="224">
  <defs/>
  <g>
    <path d="M 84.23651885986328 172.4439239501953 C 116.46269989013672 165.6090545654297 90.06513214111328 185.62989807128906 102.83612823486328 135.56625366210938" stroke-width="3.0" fill="none" stroke="rgb(0, 0, 0)" stroke-opacity="1.0" stroke-linecap="round" stroke-linejoin="round"/>
    <path d="M 118.06829833984375 169.9158935546875 C 35.16148376464844 152.0830535888672 85.82176971435547 185.5275115966797 118.86647033691406 168.86769104003906" stroke-width="3.0" fill="none" stroke="rgb(0, 0, 0)" stroke-opacity="1.0" stroke-linecap="round" stroke-linejoin="round"/>
    <path d="M 127.6573715209961 178.68887329101562 C 153.88099670410156 175.9976348876953 138.33987426757812 168.596435546875 141.16246032714844 170.83969116210938" stroke-width="3.0" fill="none" stroke="rgb(0, 0, 0)" stroke-opacity="1.0" stroke-linecap="round" stroke-linejoin="round"/>
    <path d="M 73.50652313232422 155.8510284423828 C 40.08026123046875 176.5071563720703 111.97042846679688 180.3819580078125 85.96770477294922 172.3544158935547" stroke-width="3.0" fill="none" stroke="rgb(0, 0, 0)" stroke-opacity="1.0" stroke-linecap="round" stroke-linejoin="round"/>
    <path d="M 128.8949432373047 138.46005249023438 C 131.39073181152344 156.27365112304688 128.0397491455078 150.4302520751953 128.92697143554688 178.0026397705078" stroke-width="3.0" fill="none" stroke="rgb(0, 0, 0)" stroke-opacity="1.0" stroke-linecap="round" stroke-linejoin="round"/>
    <path d="M 117.81671905517578 173.27838134765625 C 110.15460205078125 173.8355712890625 98.88345336914062 177.29910278320312 85.71397399902344 175.7032012939453" stroke-width="3.0" fill="none" stroke="rgb(0, 0, 0)" stroke-opacity="1.0" stroke-linecap="round" stroke-linejoin="round"/>
    <path d="M 143.66238403320312 164.8892364501953 C 158.7755584716797 162.2662353515625 148.56488037109375 151.91946411132812 145.76466369628906 134.5745849609375" stroke-width="3.0" fill="none" stroke="rgb(0, 0, 0)" stroke-opacity="1.0" stroke-linecap="round" stroke-linejoin="round"/>
    <path d="M 76.33660888671875 164.91578674316406 C 94.73705291748047 178.8599090576172 162.1537628173828 154.6538848876953 79.42619323730469 160.30996704101562" stroke-width="3.0" fill="none" stroke="rgb(0, 0, 0)" stroke-opacity="1.0" stroke-linecap="round" stroke-linejoin="round"/>
    <path d="M 130.62904357910156 166.07740783691406 C 139.96832275390625 183.38597106933594 122.48075103759766 176.55462646484375 139.37545776367188 177.8841094970703" stroke-width="3.0" fill="none" stroke="rgb(0, 0, 0)" stroke-opacity="1.0" stroke-linecap="round" stroke-linejoin="round"/>
    <path d="M 149.5607452392578 81.33674621582031 C 127.55337524414062 137.62770080566406 159.65342712402344 78.45675659179688 139.97332763671875 171.9384307861328" stroke-width="3.0" fill="none" stroke="rgb(0, 0, 0)" stroke-opacity="1.0" stroke-linecap="round" stroke-linejoin="round"/>
    <path d="M 112.04508972167969 168.56674194335938 C 102.16133880615234 149.66993713378906 90.05105590820312 150.2316131591797 125.91598510742188 178.18038940429688" stroke-width="3.0" fill="none" stroke="rgb(0, 0, 0)" stroke-opacity="1.0" stroke-linecap="round" stroke-linejoin="round"/>
    <path d="M 73.55099487304688 155.35568237304688 C 64.41329956054688 158.7534637451172 134.58795166015625 140.4497833251953 74.97885131835938 102.64620208740234" stroke-width="3.0" fill="none" stroke="rgb(0, 0, 0)" stroke-opacity="1.0" stroke-linecap="round" stroke-linejoin="round"/>
    <path d="M 83.3782730102539 158.92442321777344 C 112.46902465820312 172.3271484375 142.28445434570312 160.00634765625 85.66169738769531 157.5724334716797" stroke-width="3.0" fill="none" stroke="rgb(0, 0, 0)" stroke-opacity="1.0" stroke-linecap="round" stroke-linejoin="round"/>
    <path d="M 114.56211853027344 166.4816436767578 C 51.89909744262695 179.24188232421875 80.97550964355469 158.51963806152344 114.02129364013672 163.79360961914062" stroke-width="3.0" fill="none" stroke="rgb(0, 0, 0)" stroke-opacity="1.0" stroke-linecap="round" stroke-linejoin="round"/>
    <path d="M 118.9860610961914 85.05492401123047 C 112.43684387207031 102.55908966064453 157.5867462158203 105.73246765136719 116.76764678955078 80.75906372070312" stroke-width="3.0" fill="none" stroke="rgb(0, 0, 0)" stroke-opacity="1.0" stroke-linecap="round" stroke-linejoin="round"/>
    <path d="M 119.8025894165039 97.45545196533203 C 170.53575134277344 72.8988265991211 135.0299072265625 108.27241516113281 138.62742614746094 95.56739044189453" stroke-width="3.0" fill="none" stroke="rgb(0, 0, 0)" stroke-opacity="1.0" stroke-linecap="round" stroke-linejoin="round"/>
  </g>
</svg>
