<?xml version="1.0" ?>
<svg xmlns="http://www.w3.org/2000/svg" version="1.1" width="224" height="224">
  <defs/>
  <g>
    <path d="M 97.09439086914062 158.51966857910156 C 106.5790023803711 163.71437072753906 96.61556243896484 178.3813018798828 99.23736572265625 144.952392578125" stroke-width="3.0" fill="none" stroke="rgb(0, 0, 0)" stroke-opacity="1.0" stroke-linecap="round" stroke-linejoin="round"/>
    <path d="M 100.03341674804688 164.16171264648438 C 50.49803924560547 154.7185821533203 76.12120819091797 185.84121704101562 117.77592468261719 169.86737060546875" stroke-width="3.0" fill="none" stroke="rgb(0, 0, 0)" stroke-opacity="1.0" stroke-linecap="round" stroke-linejoin="round"/>
    <path d="M 128.9722137451172 176.70709228515625 C 151.91171264648438 180.98683166503906 141.6981658935547 168.1207275390625 142.42645263671875 169.6654815673828" stroke-width="3.0" fill="none" stroke="rgb(0, 0, 0)" stroke-opacity="1.0" stroke-linecap="round" stroke-linejoin="round"/>
    <path d="M 65.21991729736328 165.98992919921875 C 63.0718994140625 181.03196716308594 106.36735534667969 177.9105682373047 91.5595932006836 178.12286376953125" stroke-width="3.0" fill="none" stroke="rgb(0, 0, 0)" stroke-opacity="1.0" stroke-linecap="round" stroke-linejoin="round"/>
    <path d="M 133.6208038330078 141.62319946289062 C 129.31605529785156 159.37608337402344 136.0404052734375 146.20330810546875 132.81861877441406 170.20652770996094" stroke-width="3.0" fill="none" stroke="rgb(0, 0, 0)" stroke-opacity="1.0" stroke-linecap="round" stroke-linejoin="round"/>
    <path d="M 120.23206329345703 165.6881103515625 C 119.1669921875 168.79168701171875 94.38674926757812 170.27310180664062 74.77872467041016 164.94496154785156" stroke-width="3.0" fill="none" stroke="rgb(0, 0, 0)" stroke-opacity="1.0" stroke-linecap="round" stroke-linejoin="round"/>
    <path d="M 143.7201690673828 163.9545135498047 C 152.3721923828125 161.02044677734375 150.9943084716797 157.14894104003906 148.39186096191406 140.03582763671875" stroke-width="3.0" fill="none" stroke="rgb(0, 0, 0)" stroke-opacity="1.0" stroke-linecap="round" stroke-linejoin="round"/>
    <path d="M 71.29967498779297 166.2225799560547 C 81.3703842163086 177.47998046875 146.08079528808594 162.56317138671875 113.39653778076172 173.38107299804688" stroke-width="3.0" fill="none" stroke="rgb(0, 0, 0)" stroke-opacity="1.0" stroke-linecap="round" stroke-linejoin="round"/>
    <path d="M 132.47946166992188 169.900634765625 C 137.97470092773438 183.52723693847656 114.69857788085938 170.21759033203125 129.2345733642578 176.59107971191406" stroke-width="3.0" fill="none" stroke="rgb(0, 0, 0)" stroke-opacity="1.0" stroke-linecap="round" stroke-linejoin="round"/>
    <path d="M 143.3055877685547 99.12288665771484 C 137.878173828125 116.81819152832031 161.33468627929688 97.19611358642578 143.0500030517578 165.72003173828125" stroke-width="3.0" fill="none" stroke="rgb(0, 0, 0)" stroke-opacity="1.0" stroke-linecap="round" stroke-linejoin="round"/>
    <path d="M 101.31206512451172 166.59832763671875 C 118.53345489501953 107.87635803222656 118.01484680175781 105.9053955078125 125.06562805175781 176.13687133789062" stroke-width="3.0" fill="none" stroke="rgb(0, 0, 0)" stroke-opacity="1.0" stroke-linecap="round" stroke-linejoin="round"/>
    <path d="M 65.2546157836914 165.68235778808594 C 72.17029571533203 147.21177673339844 129.62586975097656 167.7135772705078 78.4389877319336 98.82933807373047" stroke-width="3.0" fill="none" stroke="rgb(0, 0, 0)" stroke-opacity="1.0" stroke-linecap="round" stroke-linejoin="round"/>
    <path d="M 83.79955291748047 162.18756103515625 C 101.99944305419922 157.42323303222656 108.18724822998047 147.60606384277344 76.65164184570312 164.8445587158203" stroke-width="3.0" fill="none" stroke="rgb(0, 0, 0)" stroke-opacity="1.0" stroke-linecap="round" stroke-linejoin="round"/>
    <path d="M 106.3303451538086 159.1522216796875 C 80.99665832519531 159.10626220703125 93.73896026611328 160.989990234375 119.7754898071289 171.46824645996094" stroke-width="3.0" fill="none" stroke="rgb(0, 0, 0)" stroke-opacity="1.0" stroke-linecap="round" stroke-linejoin="round"/>
    <path d="M 119.9616928100586 85.08448028564453 C 116.83513641357422 96.18353271484375 134.06137084960938 92.59003448486328 117.6383285522461 82.38440704345703" stroke-width="3.0" fill="none" stroke="rgb(0, 0, 0)" stroke-opacity="1.0" stroke-linecap="round" stroke-linejoin="round"/>
    <path d="M 132.01783752441406 90.94210815429688 C 148.15493774414062 76.41001892089844 135.98724365234375 99.73725891113281 133.45614624023438 89.10502624511719" stroke-width="3.0" fill="none" stroke="rgb(0, 0, 0)" stroke-opacity="1.0" stroke-linecap="round" stroke-linejoin="round"/>
  </g>
</svg>
