<?xml version="1.0" ?>
<svg xmlns="http://www.w3.org/2000/svg" version="1.1" width="224" height="224">
  <defs/>
  <g>
    <path d="M 93.9778060913086 159.05722045898438 C 113.22744750976562 159.04978942871094 96.70165252685547 172.811279296875 100.60418701171875 146.19302368164062" stroke-width="3.0" fill="none" stroke="rgb(0, 0, 0)" stroke-opacity="1.0" stroke-linecap="round" stroke-linejoin="round"/>
    <path d="M 98.32169342041016 169.8378143310547 C 40.47927474975586 157.07220458984375 74.6083755493164 185.58851623535156 126.19283294677734 171.39181518554688" stroke-width="3.0" fill="none" stroke="rgb(0, 0, 0)" stroke-opacity="1.0" stroke-linecap="round" stroke-linejoin="round"/>
    <path d="M 127.6334228515625 178.4879913330078 C 160.72010803222656 180.91293334960938 147.57347106933594 172.6231689453125 144.2246856689453 170.2931365966797" stroke-width="3.0" fill="none" stroke="rgb(0, 0, 0)" stroke-opacity="1.0" stroke-linecap="round" stroke-linejoin="round"/>
    <path d="M 63.008399963378906 168.89784240722656 C 60.370121002197266 182.14691162109375 106.23890686035156 176.89251708984375 88.95361328125 174.84063720703125" stroke-width="3.0" fill="none" stroke="rgb(0, 0, 0)" stroke-opacity="1.0" stroke-linecap="round" stroke-linejoin="round"/>
    <path d="M 131.39794921875 149.22494506835938 C 126.28791809082031 149.32362365722656 132.4599151611328 146.5994873046875 132.07969665527344 176.2608642578125" stroke-width="3.0" fill="none" stroke="rgb(0, 0, 0)" stroke-opacity="1.0" stroke-linecap="round" stroke-linejoin="round"/>
    <path d="M 116.88667297363281 163.58094787597656 C 119.87635040283203 161.5368194580078 94.0152587890625 164.1753387451172 76.95308685302734 162.1243133544922" stroke-width="3.0" fill="none" stroke="rgb(0, 0, 0)" stroke-opacity="1.0" stroke-linecap="round" stroke-linejoin="round"/>
    <path d="M 142.9695281982422 166.44537353515625 C 154.62266540527344 153.2899932861328 153.72645568847656 165.15304565429688 145.1829376220703 138.28919982910156" stroke-width="3.0" fill="none" stroke="rgb(0, 0, 0)" stroke-opacity="1.0" stroke-linecap="round" stroke-linejoin="round"/>
    <path d="M 71.0035629272461 166.9125518798828 C 86.064208984375 175.51869201660156 147.54583740234375 166.05384826660156 100.0757827758789 161.2388153076172" stroke-width="3.0" fill="none" stroke="rgb(0, 0, 0)" stroke-opacity="1.0" stroke-linecap="round" stroke-linejoin="round"/>
    <path d="M 133.5896453857422 168.77561950683594 C 144.32992553710938 186.9978485107422 114.24882507324219 174.71627807617188 129.8128204345703 175.1880340576172" stroke-width="3.0" fill="none" stroke="rgb(0, 0, 0)" stroke-opacity="1.0" stroke-linecap="round" stroke-linejoin="round"/>
    <path d="M 142.07528686523438 98.9348373413086 C 128.17893981933594 121.99687194824219 155.10897827148438 93.1678466796875 142.72264099121094 163.30258178710938" stroke-width="3.0" fill="none" stroke="rgb(0, 0, 0)" stroke-opacity="1.0" stroke-linecap="round" stroke-linejoin="round"/>
    <path d="M 115.9564208984375 166.49061584472656 C 121.91226959228516 118.8696060180664 104.63008880615234 116.68841552734375 123.68540954589844 177.0305633544922" stroke-width="3.0" fill="none" stroke="rgb(0, 0, 0)" stroke-opacity="1.0" stroke-linecap="round" stroke-linejoin="round"/>
    <path d="M 63.03152084350586 167.3565673828125 C 74.85828399658203 143.19337463378906 131.90623474121094 170.02821350097656 77.80477905273438 98.96319580078125" stroke-width="3.0" fill="none" stroke="rgb(0, 0, 0)" stroke-opacity="1.0" stroke-linecap="round" stroke-linejoin="round"/>
    <path d="M 83.38554382324219 162.94044494628906 C 104.02925872802734 156.84890747070312 107.36083221435547 144.86468505859375 72.32511138916016 166.08778381347656" stroke-width="3.0" fill="none" stroke="rgb(0, 0, 0)" stroke-opacity="1.0" stroke-linecap="round" stroke-linejoin="round"/>
    <path d="M 109.33846282958984 166.8773193359375 C 82.23802947998047 169.93324279785156 100.8808364868164 159.20892333984375 117.4417495727539 160.56971740722656" stroke-width="3.0" fill="none" stroke="rgb(0, 0, 0)" stroke-opacity="1.0" stroke-linecap="round" stroke-linejoin="round"/>
    <path d="M 118.98249053955078 83.0127182006836 C 112.58101654052734 97.21387481689453 137.04945373535156 95.7125473022461 116.59830474853516 82.59412384033203" stroke-width="3.0" fill="none" stroke="rgb(0, 0, 0)" stroke-opacity="1.0" stroke-linecap="round" stroke-linejoin="round"/>
    <path d="M 129.68377685546875 93.45543670654297 C 152.31114196777344 80.13031768798828 131.22024536132812 102.19673156738281 135.4476318359375 91.34906768798828" stroke-width="3.0" fill="none" stroke="rgb(0, 0, 0)" stroke-opacity="1.0" stroke-linecap="round" stroke-linejoin="round"/>
  </g>
</svg>
