<?xml version="1.0" ?>
<svg xmlns="http://www.w3.org/2000/svg" version="1.1" width="224" height="224">
  <defs/>
  <g>
    <path d="M 73.55271911621094 162.29312133789062 C 112.2173080444336 155.2002716064453 89.5487060546875 188.353271484375 96.8509292602539 141.8861846923828" stroke-width="3.0" fill="none" stroke="rgb(0, 0, 0)" stroke-opacity="1.0" stroke-linecap="round" stroke-linejoin="round"/>
    <path d="M 116.8520736694336 162.30914306640625 C 33.52981185913086 152.50241088867188 76.5455093383789 189.77610778808594 123.94258880615234 170.4058074951172" stroke-width="3.0" fill="none" stroke="rgb(0, 0, 0)" stroke-opacity="1.0" stroke-linecap="round" stroke-linejoin="round"/>
    <path d="M 130.00364685058594 177.08299255371094 C 151.75 180.359619140625 136.9638214111328 169.8540802001953 139.6441192626953 170.05091857910156" stroke-width="3.0" fill="none" stroke="rgb(0, 0, 0)" stroke-opacity="1.0" stroke-linecap="round" stroke-linejoin="round"/>
    <path d="M 64.8978500366211 169.15785217285156 C 65.34246826171875 179.68502807617188 109.1036376953125 175.66575622558594 86.79271697998047 176.17095947265625" stroke-width="3.0" fill="none" stroke="rgb(0, 0, 0)" stroke-opacity="1.0" stroke-linecap="round" stroke-linejoin="round"/>
    <path d="M 129.5892791748047 142.96820068359375 C 122.90035247802734 155.91818237304688 128.38197326660156 148.25900268554688 127.96031951904297 175.7779998779297" stroke-width="3.0" fill="none" stroke="rgb(0, 0, 0)" stroke-opacity="1.0" stroke-linecap="round" stroke-linejoin="round"/>
    <path d="M 121.6781005859375 169.15859985351562 C 119.08951568603516 156.21852111816406 95.60589599609375 166.6380615234375 78.63761138916016 166.74610900878906" stroke-width="3.0" fill="none" stroke="rgb(0, 0, 0)" stroke-opacity="1.0" stroke-linecap="round" stroke-linejoin="round"/>
    <path d="M 143.2173309326172 164.7493896484375 C 158.45484924316406 154.1960906982422 146.24253845214844 154.98052978515625 143.50030517578125 137.61041259765625" stroke-width="3.0" fill="none" stroke="rgb(0, 0, 0)" stroke-opacity="1.0" stroke-linecap="round" stroke-linejoin="round"/>
    <path d="M 74.55210876464844 164.74468994140625 C 89.05438232421875 177.83900451660156 148.0604705810547 163.17291259765625 90.32535552978516 165.8278045654297" stroke-width="3.0" fill="none" stroke="rgb(0, 0, 0)" stroke-opacity="1.0" stroke-linecap="round" stroke-linejoin="round"/>
    <path d="M 135.64515686035156 170.3740997314453 C 146.41627502441406 178.39239501953125 109.34468841552734 174.10546875 130.3085174560547 175.90069580078125" stroke-width="3.0" fill="none" stroke="rgb(0, 0, 0)" stroke-opacity="1.0" stroke-linecap="round" stroke-linejoin="round"/>
    <path d="M 143.21670532226562 103.86091613769531 C 129.9669647216797 123.96387481689453 155.30722045898438 93.60585021972656 137.84622192382812 174.22445678710938" stroke-width="3.0" fill="none" stroke="rgb(0, 0, 0)" stroke-opacity="1.0" stroke-linecap="round" stroke-linejoin="round"/>
    <path d="M 108.55475616455078 169.22508239746094 C 115.07008361816406 133.5596923828125 108.04647827148438 132.81301879882812 122.00714111328125 174.21705627441406" stroke-width="3.0" fill="none" stroke="rgb(0, 0, 0)" stroke-opacity="1.0" stroke-linecap="round" stroke-linejoin="round"/>
    <path d="M 63.954254150390625 165.2247772216797 C 67.71369934082031 147.08740234375 127.48763275146484 161.8415985107422 76.17655181884766 100.92581176757812" stroke-width="3.0" fill="none" stroke="rgb(0, 0, 0)" stroke-opacity="1.0" stroke-linecap="round" stroke-linejoin="round"/>
    <path d="M 75.95500183105469 165.5255126953125 C 98.41727447509766 160.79090881347656 112.82520294189453 172.26028442382812 83.86907958984375 169.09535217285156" stroke-width="3.0" fill="none" stroke="rgb(0, 0, 0)" stroke-opacity="1.0" stroke-linecap="round" stroke-linejoin="round"/>
    <path d="M 113.17013549804688 166.5126190185547 C 65.19975280761719 170.20486450195312 78.5729751586914 154.04632568359375 105.36860656738281 154.4446563720703" stroke-width="3.0" fill="none" stroke="rgb(0, 0, 0)" stroke-opacity="1.0" stroke-linecap="round" stroke-linejoin="round"/>
    <path d="M 112.96916198730469 90.38731384277344 C 109.45757293701172 105.50103759765625 144.2857666015625 102.48980712890625 113.11079406738281 88.17550659179688" stroke-width="3.0" fill="none" stroke="rgb(0, 0, 0)" stroke-opacity="1.0" stroke-linecap="round" stroke-linejoin="round"/>
    <path d="M 132.5586700439453 97.75965118408203 C 155.12403869628906 84.30834197998047 135.98822021484375 108.24633026123047 136.29055786132812 98.58125305175781" stroke-width="3.0" fill="none" stroke="rgb(0, 0, 0)" stroke-opacity="1.0" stroke-linecap="round" stroke-linejoin="round"/>
  </g>
</svg>
