<?xml version="1.0" ?>
<svg xmlns="http://www.w3.org/2000/svg" version="1.1" width="224" height="224">
  <defs/>
  <g>
    <path d="M 83.46682739257812 174.97640991210938 C 120.65735626220703 165.43515014648438 92.27310180664062 179.29278564453125 103.15922546386719 138.71824645996094" stroke-width="3.0" fill="none" stroke="rgb(0, 0, 0)" stroke-opacity="1.0" stroke-linecap="round" stroke-linejoin="round"/>
    <path d="M 122.78142547607422 165.88864135742188 C 34.45198059082031 150.49151611328125 83.16893005371094 186.7177276611328 123.16045379638672 172.91195678710938" stroke-width="3.0" fill="none" stroke="rgb(0, 0, 0)" stroke-opacity="1.0" stroke-linecap="round" stroke-linejoin="round"/>
    <path d="M 135.1154022216797 179.0452880859375 C 155.0330047607422 179.35702514648438 139.326416015625 169.33596801757812 142.13084411621094 172.27398681640625" stroke-width="3.0" fill="none" stroke="rgb(0, 0, 0)" stroke-opacity="1.0" stroke-linecap="round" stroke-linejoin="round"/>
    <path d="M 68.74906921386719 160.39222717285156 C 49.275997161865234 174.04249572753906 110.21952819824219 179.400390625 85.98854064941406 172.382568359375" stroke-width="3.0" fill="none" stroke="rgb(0, 0, 0)" stroke-opacity="1.0" stroke-linecap="round" stroke-linejoin="round"/>
    <path d="M 128.04713439941406 141.15933227539062 C 129.99708557128906 162.5746612548828 127.72677612304688 150.9237060546875 127.03314208984375 175.0531005859375" stroke-width="3.0" fill="none" stroke="rgb(0, 0, 0)" stroke-opacity="1.0" stroke-linecap="round" stroke-linejoin="round"/>
    <path d="M 114.92872619628906 168.34494018554688 C 108.22008514404297 165.8957061767578 98.33245849609375 172.54550170898438 85.96713256835938 173.62826538085938" stroke-width="3.0" fill="none" stroke="rgb(0, 0, 0)" stroke-opacity="1.0" stroke-linecap="round" stroke-linejoin="round"/>
    <path d="M 143.06932067871094 164.54371643066406 C 158.87799072265625 164.07476806640625 145.7303466796875 153.37803649902344 144.31329345703125 140.3126678466797" stroke-width="3.0" fill="none" stroke="rgb(0, 0, 0)" stroke-opacity="1.0" stroke-linecap="round" stroke-linejoin="round"/>
    <path d="M 75.27899169921875 162.566650390625 C 97.1583251953125 180.53631591796875 164.83847045898438 159.92124938964844 80.59603118896484 164.4541015625" stroke-width="3.0" fill="none" stroke="rgb(0, 0, 0)" stroke-opacity="1.0" stroke-linecap="round" stroke-linejoin="round"/>
    <path d="M 136.40289306640625 171.46412658691406 C 146.00686645507812 182.4128875732422 119.21398162841797 178.22132873535156 138.52114868164062 178.3621063232422" stroke-width="3.0" fill="none" stroke="rgb(0, 0, 0)" stroke-opacity="1.0" stroke-linecap="round" stroke-linejoin="round"/>
    <path d="M 149.99510192871094 81.32946014404297 C 129.512451171875 135.82577514648438 155.47616577148438 79.50690460205078 141.02783203125 169.31517028808594" stroke-width="3.0" fill="none" stroke="rgb(0, 0, 0)" stroke-opacity="1.0" stroke-linecap="round" stroke-linejoin="round"/>
    <path d="M 109.7831039428711 168.26466369628906 C 102.74604034423828 152.93017578125 91.71575164794922 150.01783752441406 129.1285858154297 177.18922424316406" stroke-width="3.0" fill="none" stroke="rgb(0, 0, 0)" stroke-opacity="1.0" stroke-linecap="round" stroke-linejoin="round"/>
    <path d="M 72.46874237060547 159.0062713623047 C 66.57044219970703 157.3582763671875 137.7916259765625 142.332763671875 72.42733764648438 102.7762451171875" stroke-width="3.0" fill="none" stroke="rgb(0, 0, 0)" stroke-opacity="1.0" stroke-linecap="round" stroke-linejoin="round"/>
    <path d="M 74.8030014038086 164.56605529785156 C 105.39501190185547 167.2287139892578 132.90545654296875 163.05630493164062 80.36192321777344 161.67552185058594" stroke-width="3.0" fill="none" stroke="rgb(0, 0, 0)" stroke-opacity="1.0" stroke-linecap="round" stroke-linejoin="round"/>
    <path d="M 114.82772064208984 168.15328979492188 C 53.729469299316406 173.99855041503906 74.93570709228516 150.42909240722656 108.08438873291016 162.9363555908203" stroke-width="3.0" fill="none" stroke="rgb(0, 0, 0)" stroke-opacity="1.0" stroke-linecap="round" stroke-linejoin="round"/>
    <path d="M 118.56285095214844 83.96617889404297 C 113.03831481933594 107.13428497314453 152.78558349609375 103.14208984375 116.95360565185547 80.47979736328125" stroke-width="3.0" fill="none" stroke="rgb(0, 0, 0)" stroke-opacity="1.0" stroke-linecap="round" stroke-linejoin="round"/>
    <path d="M 119.4385757446289 92.24358367919922 C 171.17916870117188 72.85718536376953 136.1588897705078 107.7374267578125 137.92068481445312 94.78949737548828" stroke-width="3.0" fill="none" stroke="rgb(0, 0, 0)" stroke-opacity="1.0" stroke-linecap="round" stroke-linejoin="round"/>
  </g>
</svg>
