<?xml version="1.0" ?>
<svg xmlns="http://www.w3.org/2000/svg" version="1.1" width="224" height="224">
  <defs/>
  <g>
    <path d="M 84.06449890136719 174.3661651611328 C 120.61180114746094 163.40802001953125 92.72962951660156 177.97486877441406 104.75031280517578 143.43560791015625" stroke-width="3.0" fill="none" stroke="rgb(0, 0, 0)" stroke-opacity="1.0" stroke-linecap="round" stroke-linejoin="round"/>
    <path d="M 121.04558563232422 165.8943328857422 C 31.17013168334961 151.13101196289062 80.11744689941406 187.5087127685547 121.62849426269531 172.28616333007812" stroke-width="3.0" fill="none" stroke="rgb(0, 0, 0)" stroke-opacity="1.0" stroke-linecap="round" stroke-linejoin="round"/>
    <path d="M 135.17105102539062 178.40463256835938 C 156.74879455566406 180.89639282226562 139.9854278564453 170.44570922851562 143.1019287109375 172.57029724121094" stroke-width="3.0" fill="none" stroke="rgb(0, 0, 0)" stroke-opacity="1.0" stroke-linecap="round" stroke-linejoin="round"/>
    <path d="M 68.68314361572266 161.4054718017578 C 52.0244026184082 173.18980407714844 113.10406494140625 176.97877502441406 88.66429901123047 172.5439453125" stroke-width="3.0" fill="none" stroke="rgb(0, 0, 0)" stroke-opacity="1.0" stroke-linecap="round" stroke-linejoin="round"/>
    <path d="M 127.62344360351562 139.71060180664062 C 130.47964477539062 162.8486328125 127.36803436279297 151.92898559570312 127.83843994140625 175.86061096191406" stroke-width="3.0" fill="none" stroke="rgb(0, 0, 0)" stroke-opacity="1.0" stroke-linecap="round" stroke-linejoin="round"/>
    <path d="M 114.81199645996094 168.47515869140625 C 107.94993591308594 165.3585662841797 97.08247375488281 171.52572631835938 85.51133728027344 172.8907012939453" stroke-width="3.0" fill="none" stroke="rgb(0, 0, 0)" stroke-opacity="1.0" stroke-linecap="round" stroke-linejoin="round"/>
    <path d="M 142.55490112304688 167.57508850097656 C 155.8964080810547 166.3296661376953 144.76425170898438 152.04818725585938 142.76705932617188 138.8887176513672" stroke-width="3.0" fill="none" stroke="rgb(0, 0, 0)" stroke-opacity="1.0" stroke-linecap="round" stroke-linejoin="round"/>
    <path d="M 76.33134460449219 163.91510009765625 C 97.42554473876953 181.62986755371094 164.35006713867188 160.98081970214844 80.5201644897461 165.2678680419922" stroke-width="3.0" fill="none" stroke="rgb(0, 0, 0)" stroke-opacity="1.0" stroke-linecap="round" stroke-linejoin="round"/>
    <path d="M 138.12542724609375 170.12904357910156 C 143.5967559814453 182.07485961914062 118.74173736572266 178.03233337402344 139.18719482421875 178.78036499023438" stroke-width="3.0" fill="none" stroke="rgb(0, 0, 0)" stroke-opacity="1.0" stroke-linecap="round" stroke-linejoin="round"/>
    <path d="M 151.67124938964844 81.8042984008789 C 128.53895568847656 138.86143493652344 156.43321228027344 82.54349517822266 142.05955505371094 170.52938842773438" stroke-width="3.0" fill="none" stroke="rgb(0, 0, 0)" stroke-opacity="1.0" stroke-linecap="round" stroke-linejoin="round"/>
    <path d="M 109.98780059814453 168.270751953125 C 102.03717041015625 153.61363220214844 92.35033416748047 147.97943115234375 129.9169921875 178.4299774169922" stroke-width="3.0" fill="none" stroke="rgb(0, 0, 0)" stroke-opacity="1.0" stroke-linecap="round" stroke-linejoin="round"/>
    <path d="M 72.51223754882812 158.46023559570312 C 65.27214813232422 157.9864959716797 136.4425811767578 140.52203369140625 72.57110595703125 102.4463119506836" stroke-width="3.0" fill="none" stroke="rgb(0, 0, 0)" stroke-opacity="1.0" stroke-linecap="round" stroke-linejoin="round"/>
    <path d="M 75.42764282226562 163.6540069580078 C 105.9333724975586 171.123046875 133.40948486328125 164.493896484375 80.50255584716797 159.94171142578125" stroke-width="3.0" fill="none" stroke="rgb(0, 0, 0)" stroke-opacity="1.0" stroke-linecap="round" stroke-linejoin="round"/>
    <path d="M 114.43680572509766 167.62005615234375 C 51.47010803222656 175.21360778808594 74.8794174194336 149.4385223388672 108.67835998535156 159.67529296875" stroke-width="3.0" fill="none" stroke="rgb(0, 0, 0)" stroke-opacity="1.0" stroke-linecap="round" stroke-linejoin="round"/>
    <path d="M 117.92603302001953 83.3372573852539 C 113.43560791015625 106.69453430175781 152.39991760253906 104.68863677978516 117.71245574951172 80.30200958251953" stroke-width="3.0" fill="none" stroke="rgb(0, 0, 0)" stroke-opacity="1.0" stroke-linecap="round" stroke-linejoin="round"/>
    <path d="M 119.01402282714844 92.50772094726562 C 172.49624633789062 75.28669738769531 137.68736267089844 108.61711883544922 138.72174072265625 94.90397644042969" stroke-width="3.0" fill="none" stroke="rgb(0, 0, 0)" stroke-opacity="1.0" stroke-linecap="round" stroke-linejoin="round"/>
  </g>
</svg>
