<?xml version="1.0" ?>
<svg xmlns="http://www.w3.org/2000/svg" version="1.1" width="224" height="224">
  <defs/>
  <g>
    <path d="M 78.62432098388672 167.96694946289062 C 120.3072509765625 171.741455078125 81.66596984863281 188.1134490966797 101.45442199707031 128.82044982910156" stroke-width="3.0" fill="none" stroke="rgb(0, 0, 0)" stroke-opacity="1.0" stroke-linecap="round" stroke-linejoin="round"/>
    <path d="M 122.08346557617188 171.87667846679688 C 42.38309860229492 156.38009643554688 88.10431671142578 185.04400634765625 124.0927734375 167.83474731445312" stroke-width="3.0" fill="none" stroke="rgb(0, 0, 0)" stroke-opacity="1.0" stroke-linecap="round" stroke-linejoin="round"/>
    <path d="M 123.245849609375 177.9866180419922 C 154.2416534423828 181.9714813232422 138.53839111328125 170.2741241455078 141.9583282470703 162.5355224609375" stroke-width="3.0" fill="none" stroke="rgb(0, 0, 0)" stroke-opacity="1.0" stroke-linecap="round" stroke-linejoin="round"/>
    <path d="M 77.27251434326172 153.4911651611328 C 31.52506446838379 181.85208129882812 125.57176971435547 182.3308868408203 123.60577392578125 166.67623901367188" stroke-width="3.0" fill="none" stroke="rgb(0, 0, 0)" stroke-opacity="1.0" stroke-linecap="round" stroke-linejoin="round"/>
    <path d="M 129.7702178955078 140.75389099121094 C 132.20468139648438 159.1093292236328 129.46240234375 155.3255157470703 131.23033142089844 173.6341094970703" stroke-width="3.0" fill="none" stroke="rgb(0, 0, 0)" stroke-opacity="1.0" stroke-linecap="round" stroke-linejoin="round"/>
    <path d="M 117.9986801147461 169.61036682128906 C 126.95817565917969 181.8343505859375 96.49616241455078 182.03250122070312 83.79510498046875 177.48646545410156" stroke-width="3.0" fill="none" stroke="rgb(0, 0, 0)" stroke-opacity="1.0" stroke-linecap="round" stroke-linejoin="round"/>
    <path d="M 141.97549438476562 166.55245971679688 C 156.75514221191406 162.99264526367188 148.8643798828125 152.3668670654297 144.88970947265625 137.62579345703125" stroke-width="3.0" fill="none" stroke="rgb(0, 0, 0)" stroke-opacity="1.0" stroke-linecap="round" stroke-linejoin="round"/>
    <path d="M 78.50291442871094 165.65447998046875 C 98.77066802978516 177.49778747558594 156.71142578125 162.09063720703125 80.62992858886719 166.17947387695312" stroke-width="3.0" fill="none" stroke="rgb(0, 0, 0)" stroke-opacity="1.0" stroke-linecap="round" stroke-linejoin="round"/>
    <path d="M 135.65467834472656 175.35951232910156 C 141.73529052734375 182.85752868652344 126.30860900878906 173.9595489501953 140.5128631591797 176.7129364013672" stroke-width="3.0" fill="none" stroke="rgb(0, 0, 0)" stroke-opacity="1.0" stroke-linecap="round" stroke-linejoin="round"/>
    <path d="M 151.35787963867188 82.856689453125 C 127.07769775390625 136.36984252929688 157.83616638183594 76.75945281982422 141.28236389160156 170.26531982421875" stroke-width="3.0" fill="none" stroke="rgb(0, 0, 0)" stroke-opacity="1.0" stroke-linecap="round" stroke-linejoin="round"/>
    <path d="M 114.67777252197266 164.24534606933594 C 98.0958251953125 164.5988311767578 89.07807159423828 150.5413360595703 125.04925537109375 175.5937042236328" stroke-width="3.0" fill="none" stroke="rgb(0, 0, 0)" stroke-opacity="1.0" stroke-linecap="round" stroke-linejoin="round"/>
    <path d="M 81.46987915039062 151.56527709960938 C 67.42008972167969 159.04905700683594 134.97303771972656 132.1150360107422 73.51364135742188 102.25946807861328" stroke-width="3.0" fill="none" stroke="rgb(0, 0, 0)" stroke-opacity="1.0" stroke-linecap="round" stroke-linejoin="round"/>
    <path d="M 93.27677917480469 160.76695251464844 C 114.22968292236328 174.77578735351562 145.9274139404297 167.6372528076172 86.3268814086914 163.47390747070312" stroke-width="3.0" fill="none" stroke="rgb(0, 0, 0)" stroke-opacity="1.0" stroke-linecap="round" stroke-linejoin="round"/>
    <path d="M 108.08566284179688 168.20498657226562 C 54.30866622924805 179.3184051513672 78.88399505615234 150.36257934570312 114.35014343261719 167.52099609375" stroke-width="3.0" fill="none" stroke="rgb(0, 0, 0)" stroke-opacity="1.0" stroke-linecap="round" stroke-linejoin="round"/>
    <path d="M 117.7549057006836 84.49088287353516 C 110.98919677734375 99.68228912353516 157.51229858398438 107.94269561767578 117.42495727539062 80.75529479980469" stroke-width="3.0" fill="none" stroke="rgb(0, 0, 0)" stroke-opacity="1.0" stroke-linecap="round" stroke-linejoin="round"/>
    <path d="M 118.52803039550781 99.41926574707031 C 171.0382537841797 69.83390045166016 143.86412048339844 108.03994750976562 138.862548828125 94.80389404296875" stroke-width="3.0" fill="none" stroke="rgb(0, 0, 0)" stroke-opacity="1.0" stroke-linecap="round" stroke-linejoin="round"/>
  </g>
</svg>
