<?xml version="1.0" ?>
<svg xmlns="http://www.w3.org/2000/svg" version="1.1" width="224" height="224">
  <defs/>
  <g>
    <path d="M 79.39496612548828 169.5175018310547 C 114.7837142944336 164.24693298339844 89.42615509033203 190.61883544921875 101.6396713256836 141.35475158691406" stroke-width="3.0" fill="none" stroke="rgb(0, 0, 0)" stroke-opacity="1.0" stroke-linecap="round" stroke-linejoin="round"/>
    <path d="M 112.12589263916016 170.25392150878906 C 30.092538833618164 158.37318420410156 77.07462310791016 188.78819274902344 123.78238677978516 177.0748291015625" stroke-width="3.0" fill="none" stroke="rgb(0, 0, 0)" stroke-opacity="1.0" stroke-linecap="round" stroke-linejoin="round"/>
    <path d="M 132.36146545410156 179.3191375732422 C 152.7581787109375 178.7321319580078 138.09332275390625 167.98831176757812 141.69483947753906 165.8068389892578" stroke-width="3.0" fill="none" stroke="rgb(0, 0, 0)" stroke-opacity="1.0" stroke-linecap="round" stroke-linejoin="round"/>
    <path d="M 67.96375274658203 162.91004943847656 C 58.42455291748047 179.5740203857422 105.85147094726562 182.5850830078125 80.71775817871094 177.180419921875" stroke-width="3.0" fill="none" stroke="rgb(0, 0, 0)" stroke-opacity="1.0" stroke-linecap="round" stroke-linejoin="round"/>
    <path d="M 129.84751892089844 136.16661071777344 C 137.21310424804688 155.3301544189453 132.01588439941406 142.55105590820312 132.34564208984375 175.07080078125" stroke-width="3.0" fill="none" stroke="rgb(0, 0, 0)" stroke-opacity="1.0" stroke-linecap="round" stroke-linejoin="round"/>
    <path d="M 118.39221954345703 170.07667541503906 C 111.09907531738281 165.24020385742188 102.45100402832031 172.92808532714844 96.01696014404297 171.0271759033203" stroke-width="3.0" fill="none" stroke="rgb(0, 0, 0)" stroke-opacity="1.0" stroke-linecap="round" stroke-linejoin="round"/>
    <path d="M 146.64236450195312 161.14633178710938 C 157.0283966064453 152.8568572998047 145.88125610351562 153.96177673339844 147.01034545898438 128.67465209960938" stroke-width="3.0" fill="none" stroke="rgb(0, 0, 0)" stroke-opacity="1.0" stroke-linecap="round" stroke-linejoin="round"/>
    <path d="M 74.6957015991211 171.5719757080078 C 101.128662109375 181.21719360351562 163.16236877441406 162.4197540283203 83.21530151367188 164.41026306152344" stroke-width="3.0" fill="none" stroke="rgb(0, 0, 0)" stroke-opacity="1.0" stroke-linecap="round" stroke-linejoin="round"/>
    <path d="M 129.44874572753906 174.2779541015625 C 145.68682861328125 179.56703186035156 115.80792999267578 179.8267822265625 140.3387451171875 178.35337829589844" stroke-width="3.0" fill="none" stroke="rgb(0, 0, 0)" stroke-opacity="1.0" stroke-linecap="round" stroke-linejoin="round"/>
    <path d="M 147.23207092285156 86.53834533691406 C 130.1651153564453 126.01387023925781 160.1034698486328 92.27144622802734 141.30441284179688 168.29217529296875" stroke-width="3.0" fill="none" stroke="rgb(0, 0, 0)" stroke-opacity="1.0" stroke-linecap="round" stroke-linejoin="round"/>
    <path d="M 103.71736907958984 168.56109619140625 C 103.52611541748047 154.95115661621094 90.0207290649414 161.979248046875 128.01226806640625 176.6443634033203" stroke-width="3.0" fill="none" stroke="rgb(0, 0, 0)" stroke-opacity="1.0" stroke-linecap="round" stroke-linejoin="round"/>
    <path d="M 69.01466369628906 165.16213989257812 C 66.41450500488281 147.78570556640625 128.14617919921875 157.40321350097656 74.663818359375 100.91641235351562" stroke-width="3.0" fill="none" stroke="rgb(0, 0, 0)" stroke-opacity="1.0" stroke-linecap="round" stroke-linejoin="round"/>
    <path d="M 72.583740234375 169.8493194580078 C 105.99262237548828 165.25502014160156 130.2147979736328 173.2271728515625 77.73865509033203 171.5952911376953" stroke-width="3.0" fill="none" stroke="rgb(0, 0, 0)" stroke-opacity="1.0" stroke-linecap="round" stroke-linejoin="round"/>
    <path d="M 121.44547271728516 165.23052978515625 C 53.0323486328125 169.86666870117188 70.0165023803711 153.35641479492188 109.86316680908203 166.37803649902344" stroke-width="3.0" fill="none" stroke="rgb(0, 0, 0)" stroke-opacity="1.0" stroke-linecap="round" stroke-linejoin="round"/>
    <path d="M 113.33712768554688 80.16178894042969 C 108.9216079711914 107.05768585205078 143.8711700439453 99.86325073242188 113.0794906616211 81.51129913330078" stroke-width="3.0" fill="none" stroke="rgb(0, 0, 0)" stroke-opacity="1.0" stroke-linecap="round" stroke-linejoin="round"/>
    <path d="M 124.51936340332031 92.05537414550781 C 156.25613403320312 84.51073455810547 127.05814361572266 102.26687622070312 131.83087158203125 93.8329086303711" stroke-width="3.0" fill="none" stroke="rgb(0, 0, 0)" stroke-opacity="1.0" stroke-linecap="round" stroke-linejoin="round"/>
  </g>
</svg>
