<?xml version="1.0" ?>
<svg xmlns="http://www.w3.org/2000/svg" version="1.1" width="224" height="224">
  <defs/>
  <g>
    <path d="M 93.31916046142578 159.40878295898438 C 111.07478332519531 161.0812530517578 95.99634552001953 175.0194091796875 99.66261291503906 146.02764892578125" stroke-width="3.0" fill="none" stroke="rgb(0, 0, 0)" stroke-opacity="1.0" stroke-linecap="round" stroke-linejoin="round"/>
    <path d="M 98.90947723388672 167.83494567871094 C 40.07135009765625 162.5286407470703 70.6634521484375 186.18861389160156 123.21974182128906 169.08486938476562" stroke-width="3.0" fill="none" stroke="rgb(0, 0, 0)" stroke-opacity="1.0" stroke-linecap="round" stroke-linejoin="round"/>
    <path d="M 128.03118896484375 177.9462127685547 C 160.74423217773438 181.77703857421875 147.48252868652344 174.43536376953125 144.37057495117188 172.26718139648438" stroke-width="3.0" fill="none" stroke="rgb(0, 0, 0)" stroke-opacity="1.0" stroke-linecap="round" stroke-linejoin="round"/>
    <path d="M 62.20100784301758 168.53701782226562 C 61.714454650878906 177.855224609375 108.58280181884766 174.4900360107422 90.23233032226562 177.1060791015625" stroke-width="3.0" fill="none" stroke="rgb(0, 0, 0)" stroke-opacity="1.0" stroke-linecap="round" stroke-linejoin="round"/>
    <path d="M 130.21353149414062 150.6477508544922 C 128.8105010986328 148.98721313476562 134.74095153808594 144.1186065673828 131.99368286132812 175.2784423828125" stroke-width="3.0" fill="none" stroke="rgb(0, 0, 0)" stroke-opacity="1.0" stroke-linecap="round" stroke-linejoin="round"/>
    <path d="M 116.98338317871094 163.9713592529297 C 120.0589828491211 164.5978240966797 94.17633056640625 168.73236083984375 76.9091567993164 164.63043212890625" stroke-width="3.0" fill="none" stroke="rgb(0, 0, 0)" stroke-opacity="1.0" stroke-linecap="round" stroke-linejoin="round"/>
    <path d="M 144.19729614257812 169.29530334472656 C 150.0767364501953 150.7053985595703 151.2034912109375 159.36402893066406 145.92758178710938 140.15725708007812" stroke-width="3.0" fill="none" stroke="rgb(0, 0, 0)" stroke-opacity="1.0" stroke-linecap="round" stroke-linejoin="round"/>
    <path d="M 71.25199890136719 167.3815460205078 C 85.30874633789062 174.81570434570312 146.39781188964844 164.73768615722656 102.02496337890625 162.45730590820312" stroke-width="3.0" fill="none" stroke="rgb(0, 0, 0)" stroke-opacity="1.0" stroke-linecap="round" stroke-linejoin="round"/>
    <path d="M 134.32083129882812 169.3980712890625 C 143.99754333496094 186.14427185058594 114.89826965332031 174.6509246826172 130.32574462890625 175.50820922851562" stroke-width="3.0" fill="none" stroke="rgb(0, 0, 0)" stroke-opacity="1.0" stroke-linecap="round" stroke-linejoin="round"/>
    <path d="M 143.9564971923828 98.90459442138672 C 128.50747680664062 121.92670440673828 157.03741455078125 95.66451263427734 143.13047790527344 162.8074951171875" stroke-width="3.0" fill="none" stroke="rgb(0, 0, 0)" stroke-opacity="1.0" stroke-linecap="round" stroke-linejoin="round"/>
    <path d="M 112.73469543457031 165.0400390625 C 120.8843002319336 116.11149597167969 107.34192657470703 114.25439453125 122.4504623413086 174.90577697753906" stroke-width="3.0" fill="none" stroke="rgb(0, 0, 0)" stroke-opacity="1.0" stroke-linecap="round" stroke-linejoin="round"/>
    <path d="M 63.24587631225586 164.92787170410156 C 73.88252258300781 144.3733367919922 131.95494079589844 169.38426208496094 79.53560638427734 98.40770721435547" stroke-width="3.0" fill="none" stroke="rgb(0, 0, 0)" stroke-opacity="1.0" stroke-linecap="round" stroke-linejoin="round"/>
    <path d="M 82.53057098388672 160.3426971435547 C 104.58506774902344 160.1737823486328 108.3842544555664 147.87612915039062 72.84835815429688 164.69239807128906" stroke-width="3.0" fill="none" stroke="rgb(0, 0, 0)" stroke-opacity="1.0" stroke-linecap="round" stroke-linejoin="round"/>
    <path d="M 109.28524780273438 167.5549774169922 C 84.43950653076172 167.4928741455078 101.30020141601562 158.02427673339844 117.17132568359375 160.3342742919922" stroke-width="3.0" fill="none" stroke="rgb(0, 0, 0)" stroke-opacity="1.0" stroke-linecap="round" stroke-linejoin="round"/>
    <path d="M 117.99898529052734 85.45738220214844 C 113.38387298583984 98.75141906738281 136.8617706298828 96.90345764160156 116.74799346923828 81.77281951904297" stroke-width="3.0" fill="none" stroke="rgb(0, 0, 0)" stroke-opacity="1.0" stroke-linecap="round" stroke-linejoin="round"/>
    <path d="M 130.31539916992188 94.2032241821289 C 154.0219268798828 83.02287292480469 133.02981567382812 107.3720703125 133.2010498046875 93.49250030517578" stroke-width="3.0" fill="none" stroke="rgb(0, 0, 0)" stroke-opacity="1.0" stroke-linecap="round" stroke-linejoin="round"/>
  </g>
</svg>
