<?xml version="1.0" ?>
<svg xmlns="http://www.w3.org/2000/svg" version="1.1" width="224" height="224">
  <defs/>
  <g>
    <path d="M 83.77880859375 168.53671264648438 C 153.4271240234375 169.13577270507812 95.11003112792969 180.78282165527344 122.89195251464844 108.1131362915039" stroke-width="3.0" fill="none" stroke="rgb(0, 0, 0)" stroke-opacity="1.0" stroke-linecap="round" stroke-linejoin="round"/>
    <path d="M 113.73458862304688 161.23719787597656 C 44.07379150390625 159.22439575195312 91.34391021728516 181.66928100585938 118.17131805419922 167.6253204345703" stroke-width="3.0" fill="none" stroke="rgb(0, 0, 0)" stroke-opacity="1.0" stroke-linecap="round" stroke-linejoin="round"/>
    <path d="M 122.54653930664062 177.52755737304688 C 152.72706604003906 180.31565856933594 139.7830047607422 175.92999267578125 142.1768798828125 161.02587890625" stroke-width="3.0" fill="none" stroke="rgb(0, 0, 0)" stroke-opacity="1.0" stroke-linecap="round" stroke-linejoin="round"/>
    <path d="M 92.5051498413086 151.74855041503906 C 16.751283645629883 172.18370056152344 119.39439392089844 189.07418823242188 124.98548126220703 166.55712890625" stroke-width="3.0" fill="none" stroke="rgb(0, 0, 0)" stroke-opacity="1.0" stroke-linecap="round" stroke-linejoin="round"/>
    <path d="M 130.2916259765625 142.56434631347656 C 134.2195587158203 162.65711975097656 131.14422607421875 164.12704467773438 131.8805389404297 177.2678680419922" stroke-width="3.0" fill="none" stroke="rgb(0, 0, 0)" stroke-opacity="1.0" stroke-linecap="round" stroke-linejoin="round"/>
    <path d="M 121.07457733154297 173.22312927246094 C 127.26524353027344 169.1277313232422 106.7841796875 182.07510375976562 76.04033660888672 176.9361572265625" stroke-width="3.0" fill="none" stroke="rgb(0, 0, 0)" stroke-opacity="1.0" stroke-linecap="round" stroke-linejoin="round"/>
    <path d="M 143.2445831298828 166.49639892578125 C 154.86734008789062 161.82546997070312 149.76876831054688 158.0512237548828 144.75790405273438 134.6886749267578" stroke-width="3.0" fill="none" stroke="rgb(0, 0, 0)" stroke-opacity="1.0" stroke-linecap="round" stroke-linejoin="round"/>
    <path d="M 76.83281707763672 164.7322540283203 C 99.92213439941406 174.89537048339844 156.77145385742188 161.48146057128906 78.32807922363281 166.60406494140625" stroke-width="3.0" fill="none" stroke="rgb(0, 0, 0)" stroke-opacity="1.0" stroke-linecap="round" stroke-linejoin="round"/>
    <path d="M 125.62133026123047 177.73709106445312 C 117.45980834960938 174.99351501464844 123.66799926757812 162.14730834960938 116.6297607421875 168.757080078125" stroke-width="3.0" fill="none" stroke="rgb(0, 0, 0)" stroke-opacity="1.0" stroke-linecap="round" stroke-linejoin="round"/>
    <path d="M 148.24778747558594 81.99834442138672 C 124.62464904785156 135.77101135253906 159.8152313232422 85.14087677001953 141.0555419921875 166.94517517089844" stroke-width="3.0" fill="none" stroke="rgb(0, 0, 0)" stroke-opacity="1.0" stroke-linecap="round" stroke-linejoin="round"/>
    <path d="M 117.58473205566406 166.97280883789062 C 96.97959899902344 175.18255615234375 101.88355255126953 150.0135955810547 116.1533432006836 168.99395751953125" stroke-width="3.0" fill="none" stroke="rgb(0, 0, 0)" stroke-opacity="1.0" stroke-linecap="round" stroke-linejoin="round"/>
    <path d="M 95.92244720458984 156.0234832763672 C 97.68046569824219 194.64532470703125 103.24456024169922 82.10488891601562 72.36983489990234 103.21075439453125" stroke-width="3.0" fill="none" stroke="rgb(0, 0, 0)" stroke-opacity="1.0" stroke-linecap="round" stroke-linejoin="round"/>
    <path d="M 92.069091796875 160.0445098876953 C 115.32227325439453 155.66156005859375 141.08975219726562 163.54530334472656 78.38933563232422 164.17530822753906" stroke-width="3.0" fill="none" stroke="rgb(0, 0, 0)" stroke-opacity="1.0" stroke-linecap="round" stroke-linejoin="round"/>
    <path d="M 113.33629608154297 156.33145141601562 C 44.214012145996094 187.39718627929688 104.68182373046875 146.52146911621094 113.48820495605469 167.6707000732422" stroke-width="3.0" fill="none" stroke="rgb(0, 0, 0)" stroke-opacity="1.0" stroke-linecap="round" stroke-linejoin="round"/>
    <path d="M 119.04175567626953 82.64491271972656 C 111.77192687988281 106.21878051757812 159.58213806152344 108.3390121459961 118.6844253540039 79.55841827392578" stroke-width="3.0" fill="none" stroke="rgb(0, 0, 0)" stroke-opacity="1.0" stroke-linecap="round" stroke-linejoin="round"/>
    <path d="M 120.57794952392578 104.75520324707031 C 132.71615600585938 71.76710510253906 171.87457275390625 108.70327758789062 125.1202621459961 102.13803100585938" stroke-width="3.0" fill="none" stroke="rgb(0, 0, 0)" stroke-opacity="1.0" stroke-linecap="round" stroke-linejoin="round"/>
  </g>
</svg>
