<?xml version="1.0" ?>
<svg xmlns="http://www.w3.org/2000/svg" version="1.1" width="224" height="224">
  <defs/>
  <g>
    <path d="M 83.70262908935547 171.01486206054688 C 156.6540069580078 169.6150360107422 91.1226577758789 176.14706420898438 122.88868713378906 107.08267974853516" stroke-width="3.0" fill="none" stroke="rgb(0, 0, 0)" stroke-opacity="1.0" stroke-linecap="round" stroke-linejoin="round"/>
    <path d="M 116.11886596679688 159.97703552246094 C 45.193817138671875 157.52493286132812 91.80980682373047 180.2980194091797 118.39802551269531 166.54095458984375" stroke-width="3.0" fill="none" stroke="rgb(0, 0, 0)" stroke-opacity="1.0" stroke-linecap="round" stroke-linejoin="round"/>
    <path d="M 124.34144592285156 177.50784301757812 C 153.52598571777344 180.59793090820312 139.78863525390625 173.53460693359375 141.96046447753906 165.27935791015625" stroke-width="3.0" fill="none" stroke="rgb(0, 0, 0)" stroke-opacity="1.0" stroke-linecap="round" stroke-linejoin="round"/>
    <path d="M 92.11988830566406 150.83116149902344 C 15.049988746643066 172.20819091796875 119.6740951538086 187.77120971679688 122.0611801147461 167.7520751953125" stroke-width="3.0" fill="none" stroke="rgb(0, 0, 0)" stroke-opacity="1.0" stroke-linecap="round" stroke-linejoin="round"/>
    <path d="M 130.24295043945312 144.4120330810547 C 132.6699981689453 162.68951416015625 130.9453582763672 164.72604370117188 131.85267639160156 177.75234985351562" stroke-width="3.0" fill="none" stroke="rgb(0, 0, 0)" stroke-opacity="1.0" stroke-linecap="round" stroke-linejoin="round"/>
    <path d="M 120.56732940673828 171.61328125 C 126.41827392578125 168.55812072753906 104.97676849365234 183.89500427246094 75.66812133789062 174.39105224609375" stroke-width="3.0" fill="none" stroke="rgb(0, 0, 0)" stroke-opacity="1.0" stroke-linecap="round" stroke-linejoin="round"/>
    <path d="M 143.1177978515625 166.09938049316406 C 154.23898315429688 161.76564025878906 149.2751007080078 160.5326690673828 147.6293182373047 138.45140075683594" stroke-width="3.0" fill="none" stroke="rgb(0, 0, 0)" stroke-opacity="1.0" stroke-linecap="round" stroke-linejoin="round"/>
    <path d="M 77.0659408569336 165.24618530273438 C 101.47174072265625 172.5835418701172 158.23023986816406 159.00482177734375 78.86470031738281 167.48004150390625" stroke-width="3.0" fill="none" stroke="rgb(0, 0, 0)" stroke-opacity="1.0" stroke-linecap="round" stroke-linejoin="round"/>
    <path d="M 125.43742370605469 177.02854919433594 C 117.93678283691406 175.55357360839844 126.17967987060547 161.44094848632812 117.29573059082031 168.9175262451172" stroke-width="3.0" fill="none" stroke="rgb(0, 0, 0)" stroke-opacity="1.0" stroke-linecap="round" stroke-linejoin="round"/>
    <path d="M 149.08187866210938 81.40882873535156 C 128.87635803222656 133.15992736816406 160.2897186279297 82.15226745605469 140.4207000732422 170.6681671142578" stroke-width="3.0" fill="none" stroke="rgb(0, 0, 0)" stroke-opacity="1.0" stroke-linecap="round" stroke-linejoin="round"/>
    <path d="M 117.17963409423828 165.9305877685547 C 95.8349380493164 175.2769317626953 101.69902038574219 148.98220825195312 116.84165954589844 167.95831298828125" stroke-width="3.0" fill="none" stroke="rgb(0, 0, 0)" stroke-opacity="1.0" stroke-linecap="round" stroke-linejoin="round"/>
    <path d="M 94.41956329345703 155.68145751953125 C 95.178955078125 193.15321350097656 104.40020751953125 77.8391342163086 72.38538360595703 102.67547607421875" stroke-width="3.0" fill="none" stroke="rgb(0, 0, 0)" stroke-opacity="1.0" stroke-linecap="round" stroke-linejoin="round"/>
    <path d="M 94.9115219116211 157.0973358154297 C 111.06182861328125 159.27099609375 139.78329467773438 167.19873046875 80.4987564086914 163.3499298095703" stroke-width="3.0" fill="none" stroke="rgb(0, 0, 0)" stroke-opacity="1.0" stroke-linecap="round" stroke-linejoin="round"/>
    <path d="M 116.45812225341797 158.18458557128906 C 47.512447357177734 190.74853515625 106.91114807128906 147.91836547851562 113.97529602050781 167.83657836914062" stroke-width="3.0" fill="none" stroke="rgb(0, 0, 0)" stroke-opacity="1.0" stroke-linecap="round" stroke-linejoin="round"/>
    <path d="M 119.36499786376953 82.48912048339844 C 111.08517456054688 104.65650939941406 159.16851806640625 105.8750228881836 119.3525161743164 79.23670959472656" stroke-width="3.0" fill="none" stroke="rgb(0, 0, 0)" stroke-opacity="1.0" stroke-linecap="round" stroke-linejoin="round"/>
    <path d="M 120.88449096679688 103.4794692993164 C 132.9213104248047 69.80799865722656 173.6497039794922 103.15435791015625 127.32179260253906 101.36161041259766" stroke-width="3.0" fill="none" stroke="rgb(0, 0, 0)" stroke-opacity="1.0" stroke-linecap="round" stroke-linejoin="round"/>
  </g>
</svg>
