<?xml version="1.0" ?>
<svg xmlns="http://www.w3.org/2000/svg" version="1.1" width="224" height="224">
  <defs/>
  <g>
    <path d="M 76.70829010009766 164.45443725585938 C 133.4495086669922 158.96115112304688 95.7537612915039 179.7543487548828 106.68731689453125 134.01365661621094" stroke-width="3.0" fill="none" stroke="rgb(0, 0, 0)" stroke-opacity="1.0" stroke-linecap="round" stroke-linejoin="round"/>
    <path d="M 117.25555419921875 169.86647033691406 C 38.91781997680664 155.80113220214844 87.0362319946289 180.48690795898438 118.94721984863281 168.5703582763672" stroke-width="3.0" fill="none" stroke="rgb(0, 0, 0)" stroke-opacity="1.0" stroke-linecap="round" stroke-linejoin="round"/>
    <path d="M 121.20492553710938 175.70367431640625 C 152.1015625 188.2008056640625 141.723388671875 172.436767578125 143.77529907226562 169.7316436767578" stroke-width="3.0" fill="none" stroke="rgb(0, 0, 0)" stroke-opacity="1.0" stroke-linecap="round" stroke-linejoin="round"/>
    <path d="M 92.43424987792969 150.19236755371094 C 13.971217155456543 172.74298095703125 120.505615234375 188.9248046875 122.27787780761719 166.28233337402344" stroke-width="3.0" fill="none" stroke="rgb(0, 0, 0)" stroke-opacity="1.0" stroke-linecap="round" stroke-linejoin="round"/>
    <path d="M 125.46056365966797 142.70474243164062 C 130.26913452148438 165.46730041503906 129.01803588867188 147.5118408203125 130.3054656982422 178.2103271484375" stroke-width="3.0" fill="none" stroke="rgb(0, 0, 0)" stroke-opacity="1.0" stroke-linecap="round" stroke-linejoin="round"/>
    <path d="M 121.07662963867188 167.7884979248047 C 130.8558807373047 172.8513641357422 98.23090362548828 181.54507446289062 78.7767562866211 175.10337829589844" stroke-width="3.0" fill="none" stroke="rgb(0, 0, 0)" stroke-opacity="1.0" stroke-linecap="round" stroke-linejoin="round"/>
    <path d="M 146.50555419921875 167.6942901611328 C 157.54446411132812 160.9650115966797 144.86412048339844 152.3303680419922 145.9040069580078 131.38841247558594" stroke-width="3.0" fill="none" stroke="rgb(0, 0, 0)" stroke-opacity="1.0" stroke-linecap="round" stroke-linejoin="round"/>
    <path d="M 76.82884979248047 166.610595703125 C 89.3977279663086 171.6345977783203 144.07913208007812 162.17578125 83.25865936279297 161.0810089111328" stroke-width="3.0" fill="none" stroke="rgb(0, 0, 0)" stroke-opacity="1.0" stroke-linecap="round" stroke-linejoin="round"/>
    <path d="M 126.69998931884766 176.5795135498047 C 133.93685913085938 181.94454956054688 123.18793487548828 167.90496826171875 135.4436492919922 170.8457489013672" stroke-width="3.0" fill="none" stroke="rgb(0, 0, 0)" stroke-opacity="1.0" stroke-linecap="round" stroke-linejoin="round"/>
    <path d="M 149.8025665283203 82.14714813232422 C 123.63081359863281 139.64161682128906 159.5359649658203 80.64949035644531 140.2565155029297 173.91529846191406" stroke-width="3.0" fill="none" stroke="rgb(0, 0, 0)" stroke-opacity="1.0" stroke-linecap="round" stroke-linejoin="round"/>
    <path d="M 112.73367309570312 168.9623260498047 C 95.3552474975586 167.50003051757812 90.33432006835938 149.18898010253906 122.89539337158203 172.17066955566406" stroke-width="3.0" fill="none" stroke="rgb(0, 0, 0)" stroke-opacity="1.0" stroke-linecap="round" stroke-linejoin="round"/>
    <path d="M 102.1072769165039 152.30039978027344 C 83.70075225830078 185.68438720703125 112.76222229003906 92.0243148803711 72.96314239501953 104.58704376220703" stroke-width="3.0" fill="none" stroke="rgb(0, 0, 0)" stroke-opacity="1.0" stroke-linecap="round" stroke-linejoin="round"/>
    <path d="M 93.03353118896484 162.89614868164062 C 114.96527099609375 174.9887237548828 150.14768981933594 166.25970458984375 89.41693115234375 169.78260803222656" stroke-width="3.0" fill="none" stroke="rgb(0, 0, 0)" stroke-opacity="1.0" stroke-linecap="round" stroke-linejoin="round"/>
    <path d="M 106.9217529296875 166.05398559570312 C 48.81382751464844 177.3075408935547 91.85899353027344 143.14527893066406 111.43244934082031 167.01632690429688" stroke-width="3.0" fill="none" stroke="rgb(0, 0, 0)" stroke-opacity="1.0" stroke-linecap="round" stroke-linejoin="round"/>
    <path d="M 118.90678405761719 83.04557037353516 C 112.5706558227539 100.5208511352539 159.66464233398438 101.49842071533203 117.4290771484375 81.15827178955078" stroke-width="3.0" fill="none" stroke="rgb(0, 0, 0)" stroke-opacity="1.0" stroke-linecap="round" stroke-linejoin="round"/>
    <path d="M 114.51781463623047 100.6790542602539 C 149.43321228027344 67.87669372558594 156.1876220703125 110.90950775146484 127.79402160644531 101.4321517944336" stroke-width="3.0" fill="none" stroke="rgb(0, 0, 0)" stroke-opacity="1.0" stroke-linecap="round" stroke-linejoin="round"/>
  </g>
</svg>
