<?xml version="1.0" ?>
<svg xmlns="http://www.w3.org/2000/svg" version="1.1" width="224" height="224">
  <defs/>
  <g>
    <path d="M 79.53271484375 169.74855041503906 C 118.150390625 168.97116088867188 92.81822967529297 185.94908142089844 105.44392395019531 143.42723083496094" stroke-width="3.0" fill="none" stroke="rgb(0, 0, 0)" stroke-opacity="1.0" stroke-linecap="round" stroke-linejoin="round"/>
    <path d="M 107.47543334960938 169.53518676757812 C 25.141456604003906 151.6716766357422 76.39563751220703 190.28341674804688 121.7469482421875 173.626220703125" stroke-width="3.0" fill="none" stroke="rgb(0, 0, 0)" stroke-opacity="1.0" stroke-linecap="round" stroke-linejoin="round"/>
    <path d="M 132.06497192382812 177.11248779296875 C 152.77606201171875 177.73806762695312 139.0532684326172 166.51187133789062 140.7977752685547 169.20220947265625" stroke-width="3.0" fill="none" stroke="rgb(0, 0, 0)" stroke-opacity="1.0" stroke-linecap="round" stroke-linejoin="round"/>
    <path d="M 69.43547821044922 161.08680725097656 C 55.8015022277832 175.58444213867188 109.82324981689453 177.20462036132812 83.3420181274414 177.03497314453125" stroke-width="3.0" fill="none" stroke="rgb(0, 0, 0)" stroke-opacity="1.0" stroke-linecap="round" stroke-linejoin="round"/>
    <path d="M 129.80494689941406 143.4106903076172 C 128.66769409179688 159.1038360595703 128.32337951660156 145.8303985595703 128.98849487304688 171.98178100585938" stroke-width="3.0" fill="none" stroke="rgb(0, 0, 0)" stroke-opacity="1.0" stroke-linecap="round" stroke-linejoin="round"/>
    <path d="M 114.30865478515625 171.00331115722656 C 107.70630645751953 169.8260498046875 100.85195922851562 173.77423095703125 95.54533386230469 172.42967224121094" stroke-width="3.0" fill="none" stroke="rgb(0, 0, 0)" stroke-opacity="1.0" stroke-linecap="round" stroke-linejoin="round"/>
    <path d="M 147.05599975585938 166.48904418945312 C 161.3674774169922 156.57345581054688 143.12217712402344 152.81930541992188 146.13845825195312 133.26580810546875" stroke-width="3.0" fill="none" stroke="rgb(0, 0, 0)" stroke-opacity="1.0" stroke-linecap="round" stroke-linejoin="round"/>
    <path d="M 72.67105102539062 166.65065002441406 C 102.42858123779297 184.43582153320312 165.76512145996094 160.8528594970703 75.98204803466797 165.60743713378906" stroke-width="3.0" fill="none" stroke="rgb(0, 0, 0)" stroke-opacity="1.0" stroke-linecap="round" stroke-linejoin="round"/>
    <path d="M 128.73745727539062 171.4317169189453 C 143.9330291748047 177.9033203125 115.83274841308594 177.05780029296875 140.30630493164062 176.2984161376953" stroke-width="3.0" fill="none" stroke="rgb(0, 0, 0)" stroke-opacity="1.0" stroke-linecap="round" stroke-linejoin="round"/>
    <path d="M 146.31858825683594 84.32666778564453 C 129.76573181152344 129.0417938232422 157.22076416015625 87.24212646484375 139.98768615722656 166.20004272460938" stroke-width="3.0" fill="none" stroke="rgb(0, 0, 0)" stroke-opacity="1.0" stroke-linecap="round" stroke-linejoin="round"/>
    <path d="M 104.33040618896484 170.01016235351562 C 103.7390365600586 154.6421661376953 92.4149169921875 152.4852752685547 129.6376953125 177.48663330078125" stroke-width="3.0" fill="none" stroke="rgb(0, 0, 0)" stroke-opacity="1.0" stroke-linecap="round" stroke-linejoin="round"/>
    <path d="M 66.7517318725586 165.06581115722656 C 63.79450988769531 153.22329711914062 132.09719848632812 149.13916015625 72.9019546508789 100.57717895507812" stroke-width="3.0" fill="none" stroke="rgb(0, 0, 0)" stroke-opacity="1.0" stroke-linecap="round" stroke-linejoin="round"/>
    <path d="M 74.19898223876953 165.81288146972656 C 106.15636444091797 172.11683654785156 131.85552978515625 175.73858642578125 76.67131805419922 163.35643005371094" stroke-width="3.0" fill="none" stroke="rgb(0, 0, 0)" stroke-opacity="1.0" stroke-linecap="round" stroke-linejoin="round"/>
    <path d="M 121.4784927368164 166.6768798828125 C 52.35144805908203 178.29653930664062 70.37033081054688 152.4738006591797 110.21908569335938 166.35133361816406" stroke-width="3.0" fill="none" stroke="rgb(0, 0, 0)" stroke-opacity="1.0" stroke-linecap="round" stroke-linejoin="round"/>
    <path d="M 120.2415771484375 80.07951354980469 C 112.00606536865234 111.10493469238281 148.41542053222656 98.01089477539062 120.25125122070312 78.14790344238281" stroke-width="3.0" fill="none" stroke="rgb(0, 0, 0)" stroke-opacity="1.0" stroke-linecap="round" stroke-linejoin="round"/>
    <path d="M 118.80337524414062 91.49554443359375 C 163.1287078857422 83.52008056640625 132.70465087890625 108.27804565429688 135.82989501953125 93.1309585571289" stroke-width="3.0" fill="none" stroke="rgb(0, 0, 0)" stroke-opacity="1.0" stroke-linecap="round" stroke-linejoin="round"/>
  </g>
</svg>
