<?xml version="1.0" ?>
<svg xmlns="http://www.w3.org/2000/svg" version="1.1" width="224" height="224">
  <defs/>
  <g>
    <path d="M 79.364990234375 167.16539001464844 C 109.59082794189453 154.10987854003906 84.4738540649414 191.71388244628906 98.557373046875 142.5040283203125" stroke-width="3.0" fill="none" stroke="rgb(0, 0, 0)" stroke-opacity="1.0" stroke-linecap="round" stroke-linejoin="round"/>
    <path d="M 113.00140380859375 163.09246826171875 C 38.32353210449219 154.18997192382812 81.89168548583984 189.09616088867188 124.45162200927734 172.41867065429688" stroke-width="3.0" fill="none" stroke="rgb(0, 0, 0)" stroke-opacity="1.0" stroke-linecap="round" stroke-linejoin="round"/>
    <path d="M 130.34165954589844 179.5619659423828 C 153.82034301757812 182.7705535888672 141.74679565429688 171.17654418945312 140.90716552734375 167.99191284179688" stroke-width="3.0" fill="none" stroke="rgb(0, 0, 0)" stroke-opacity="1.0" stroke-linecap="round" stroke-linejoin="round"/>
    <path d="M 66.60362243652344 166.3495330810547 C 62.70186233520508 176.9862823486328 111.13221740722656 177.74148559570312 85.79063415527344 174.43869018554688" stroke-width="3.0" fill="none" stroke="rgb(0, 0, 0)" stroke-opacity="1.0" stroke-linecap="round" stroke-linejoin="round"/>
    <path d="M 125.5204849243164 143.02093505859375 C 131.06219482421875 156.6892852783203 130.35682678222656 147.12350463867188 132.37156677246094 177.4491424560547" stroke-width="3.0" fill="none" stroke="rgb(0, 0, 0)" stroke-opacity="1.0" stroke-linecap="round" stroke-linejoin="round"/>
    <path d="M 122.13981628417969 172.16482543945312 C 111.29032897949219 153.41217041015625 94.71222686767578 164.5712127685547 84.50450897216797 168.86602783203125" stroke-width="3.0" fill="none" stroke="rgb(0, 0, 0)" stroke-opacity="1.0" stroke-linecap="round" stroke-linejoin="round"/>
    <path d="M 147.7764892578125 166.88995361328125 C 155.0571746826172 159.24102783203125 144.4239044189453 150.30596923828125 144.42572021484375 136.90977478027344" stroke-width="3.0" fill="none" stroke="rgb(0, 0, 0)" stroke-opacity="1.0" stroke-linecap="round" stroke-linejoin="round"/>
    <path d="M 76.32714080810547 166.78106689453125 C 87.97549438476562 179.2604217529297 152.113525390625 160.4654541015625 87.51097869873047 166.83001708984375" stroke-width="3.0" fill="none" stroke="rgb(0, 0, 0)" stroke-opacity="1.0" stroke-linecap="round" stroke-linejoin="round"/>
    <path d="M 126.71731567382812 176.290283203125 C 145.14254760742188 180.0654296875 109.92041778564453 178.4111785888672 132.8297576904297 177.87881469726562" stroke-width="3.0" fill="none" stroke="rgb(0, 0, 0)" stroke-opacity="1.0" stroke-linecap="round" stroke-linejoin="round"/>
    <path d="M 145.7895050048828 99.4393539428711 C 128.30345153808594 127.01842498779297 156.7725067138672 90.99688720703125 139.49526977539062 176.18804931640625" stroke-width="3.0" fill="none" stroke="rgb(0, 0, 0)" stroke-opacity="1.0" stroke-linecap="round" stroke-linejoin="round"/>
    <path d="M 107.57270812988281 167.70361328125 C 121.06904602050781 137.71749877929688 107.1537857055664 140.12451171875 122.3199691772461 178.6862335205078" stroke-width="3.0" fill="none" stroke="rgb(0, 0, 0)" stroke-opacity="1.0" stroke-linecap="round" stroke-linejoin="round"/>
    <path d="M 67.20954895019531 167.33465576171875 C 68.83108520507812 148.30545043945312 128.88616943359375 163.08636474609375 77.38982391357422 99.55425262451172" stroke-width="3.0" fill="none" stroke="rgb(0, 0, 0)" stroke-opacity="1.0" stroke-linecap="round" stroke-linejoin="round"/>
    <path d="M 76.32273864746094 164.89920043945312 C 99.90829467773438 155.30868530273438 116.8065414428711 175.64500427246094 82.08766174316406 168.2057342529297" stroke-width="3.0" fill="none" stroke="rgb(0, 0, 0)" stroke-opacity="1.0" stroke-linecap="round" stroke-linejoin="round"/>
    <path d="M 114.72029113769531 167.66552734375 C 58.35487365722656 171.2392120361328 73.68403625488281 158.22311401367188 112.50431060791016 161.28079223632812" stroke-width="3.0" fill="none" stroke="rgb(0, 0, 0)" stroke-opacity="1.0" stroke-linecap="round" stroke-linejoin="round"/>
    <path d="M 117.5954818725586 88.8631820678711 C 109.47235107421875 103.57184600830078 144.98861694335938 100.90071105957031 117.3639907836914 86.36835479736328" stroke-width="3.0" fill="none" stroke="rgb(0, 0, 0)" stroke-opacity="1.0" stroke-linecap="round" stroke-linejoin="round"/>
    <path d="M 133.1812286376953 94.51901245117188 C 153.67291259765625 81.24114227294922 134.94911193847656 102.93453979492188 135.2625274658203 95.34014892578125" stroke-width="3.0" fill="none" stroke="rgb(0, 0, 0)" stroke-opacity="1.0" stroke-linecap="round" stroke-linejoin="round"/>
  </g>
</svg>
