<?xml version="1.0" ?>
<svg xmlns="http://www.w3.org/2000/svg" version="1.1" width="224" height="224">
  <defs/>
  <g>
    <path d="M 77.1737060546875 163.78013610839844 C 144.46266174316406 163.62681579589844 101.036376953125 170.2362518310547 118.28977966308594 140.85137939453125" stroke-width="3.0" fill="none" stroke="rgb(0, 0, 0)" stroke-opacity="1.0" stroke-linecap="round" stroke-linejoin="round"/>
    <path d="M 116.28850555419922 170.5324249267578 C 39.40151596069336 158.41639709472656 87.59671020507812 182.33883666992188 117.684326171875 168.2263641357422" stroke-width="3.0" fill="none" stroke="rgb(0, 0, 0)" stroke-opacity="1.0" stroke-linecap="round" stroke-linejoin="round"/>
    <path d="M 124.84778594970703 179.98001098632812 C 159.5771942138672 178.16915893554688 143.56202697753906 175.61453247070312 142.1335906982422 168.12266540527344" stroke-width="3.0" fill="none" stroke="rgb(0, 0, 0)" stroke-opacity="1.0" stroke-linecap="round" stroke-linejoin="round"/>
    <path d="M 93.70387268066406 149.35179138183594 C 14.99091911315918 174.38555908203125 122.11286926269531 195.06373596191406 124.10324096679688 171.69549560546875" stroke-width="3.0" fill="none" stroke="rgb(0, 0, 0)" stroke-opacity="1.0" stroke-linecap="round" stroke-linejoin="round"/>
    <path d="M 129.7410430908203 141.90232849121094 C 132.21047973632812 165.81947326660156 129.91958618164062 155.40731811523438 130.04690551757812 176.37393188476562" stroke-width="3.0" fill="none" stroke="rgb(0, 0, 0)" stroke-opacity="1.0" stroke-linecap="round" stroke-linejoin="round"/>
    <path d="M 119.6941909790039 174.40367126464844 C 127.76123809814453 174.90386962890625 103.363037109375 185.73907470703125 82.2803726196289 179.6502227783203" stroke-width="3.0" fill="none" stroke="rgb(0, 0, 0)" stroke-opacity="1.0" stroke-linecap="round" stroke-linejoin="round"/>
    <path d="M 147.1197052001953 161.76869201660156 C 151.8133087158203 158.93882751464844 148.3622283935547 153.1085205078125 146.41017150878906 140.550048828125" stroke-width="3.0" fill="none" stroke="rgb(0, 0, 0)" stroke-opacity="1.0" stroke-linecap="round" stroke-linejoin="round"/>
    <path d="M 76.09188079833984 165.2794189453125 C 91.10667419433594 177.15284729003906 142.5450897216797 166.81675720214844 82.3337173461914 160.87364196777344" stroke-width="3.0" fill="none" stroke="rgb(0, 0, 0)" stroke-opacity="1.0" stroke-linecap="round" stroke-linejoin="round"/>
    <path d="M 127.41160583496094 179.79087829589844 C 119.7027359008789 178.77056884765625 112.23918914794922 164.5924072265625 118.16259002685547 172.7857208251953" stroke-width="3.0" fill="none" stroke="rgb(0, 0, 0)" stroke-opacity="1.0" stroke-linecap="round" stroke-linejoin="round"/>
    <path d="M 150.10586547851562 82.632568359375 C 125.92113494873047 134.4870147705078 161.75865173339844 75.49423217773438 139.63232421875 178.3253936767578" stroke-width="3.0" fill="none" stroke="rgb(0, 0, 0)" stroke-opacity="1.0" stroke-linecap="round" stroke-linejoin="round"/>
    <path d="M 110.94034576416016 166.24046325683594 C 96.02532196044922 179.97808837890625 98.39207458496094 150.27198791503906 121.37889862060547 166.9405975341797" stroke-width="3.0" fill="none" stroke="rgb(0, 0, 0)" stroke-opacity="1.0" stroke-linecap="round" stroke-linejoin="round"/>
    <path d="M 95.65203857421875 157.1489715576172 C 95.60814666748047 194.49160766601562 106.63980865478516 74.13005065917969 72.43976593017578 101.1944580078125" stroke-width="3.0" fill="none" stroke="rgb(0, 0, 0)" stroke-opacity="1.0" stroke-linecap="round" stroke-linejoin="round"/>
    <path d="M 90.86751556396484 156.92254638671875 C 119.70511627197266 166.0459747314453 148.19190979003906 170.59494018554688 84.94369506835938 164.18118286132812" stroke-width="3.0" fill="none" stroke="rgb(0, 0, 0)" stroke-opacity="1.0" stroke-linecap="round" stroke-linejoin="round"/>
    <path d="M 113.17449188232422 161.65370178222656 C 39.00265884399414 178.72792053222656 99.48167419433594 144.2783203125 103.84242248535156 166.98501586914062" stroke-width="3.0" fill="none" stroke="rgb(0, 0, 0)" stroke-opacity="1.0" stroke-linecap="round" stroke-linejoin="round"/>
    <path d="M 117.04346466064453 82.1092529296875 C 107.47727966308594 105.01236724853516 163.4324188232422 105.22888946533203 116.66111755371094 79.37705993652344" stroke-width="3.0" fill="none" stroke="rgb(0, 0, 0)" stroke-opacity="1.0" stroke-linecap="round" stroke-linejoin="round"/>
    <path d="M 118.0571060180664 98.24987030029297 C 146.50733947753906 72.00943756103516 165.8390350341797 106.4464111328125 122.23892211914062 101.48355102539062" stroke-width="3.0" fill="none" stroke="rgb(0, 0, 0)" stroke-opacity="1.0" stroke-linecap="round" stroke-linejoin="round"/>
  </g>
</svg>
