<?xml version="1.0" ?>
<svg xmlns="http://www.w3.org/2000/svg" version="1.1" width="224" height="224">
  <defs/>
  <g>
    <path d="M 78.01963806152344 163.3357391357422 C 138.5197296142578 168.3105010986328 99.92476654052734 168.00965881347656 117.253173828125 140.0003204345703" stroke-width="3.0" fill="none" stroke="rgb(0, 0, 0)" stroke-opacity="1.0" stroke-linecap="round" stroke-linejoin="round"/>
    <path d="M 118.42607879638672 167.03610229492188 C 38.8903923034668 156.0035400390625 85.4085922241211 180.84213256835938 117.93650817871094 166.8581085205078" stroke-width="3.0" fill="none" stroke="rgb(0, 0, 0)" stroke-opacity="1.0" stroke-linecap="round" stroke-linejoin="round"/>
    <path d="M 125.54608154296875 179.71322631835938 C 155.61436462402344 181.17367553710938 139.93772888183594 172.8988037109375 141.85519409179688 166.49652099609375" stroke-width="3.0" fill="none" stroke="rgb(0, 0, 0)" stroke-opacity="1.0" stroke-linecap="round" stroke-linejoin="round"/>
    <path d="M 95.45037078857422 150.55247497558594 C 14.004534721374512 172.0801544189453 118.53050231933594 189.99545288085938 123.63790893554688 168.6451873779297" stroke-width="3.0" fill="none" stroke="rgb(0, 0, 0)" stroke-opacity="1.0" stroke-linecap="round" stroke-linejoin="round"/>
    <path d="M 129.1367950439453 144.53627014160156 C 130.07858276367188 163.8472442626953 129.8231658935547 152.10855102539062 129.37818908691406 179.14892578125" stroke-width="3.0" fill="none" stroke="rgb(0, 0, 0)" stroke-opacity="1.0" stroke-linecap="round" stroke-linejoin="round"/>
    <path d="M 120.65339660644531 172.72244262695312 C 128.30992126464844 172.19752502441406 100.32640075683594 183.3117218017578 82.01634979248047 175.809326171875" stroke-width="3.0" fill="none" stroke="rgb(0, 0, 0)" stroke-opacity="1.0" stroke-linecap="round" stroke-linejoin="round"/>
    <path d="M 146.92547607421875 162.91336059570312 C 155.650146484375 156.6414337158203 145.46458435058594 152.76675415039062 144.73193359375 136.82391357421875" stroke-width="3.0" fill="none" stroke="rgb(0, 0, 0)" stroke-opacity="1.0" stroke-linecap="round" stroke-linejoin="round"/>
    <path d="M 74.51620483398438 166.3583526611328 C 88.73078155517578 172.67410278320312 140.83712768554688 163.96031188964844 81.51289367675781 161.58944702148438" stroke-width="3.0" fill="none" stroke="rgb(0, 0, 0)" stroke-opacity="1.0" stroke-linecap="round" stroke-linejoin="round"/>
    <path d="M 125.19173431396484 180.29849243164062 C 118.81242370605469 179.63929748535156 112.57181549072266 163.0678253173828 117.32483673095703 171.92933654785156" stroke-width="3.0" fill="none" stroke="rgb(0, 0, 0)" stroke-opacity="1.0" stroke-linecap="round" stroke-linejoin="round"/>
    <path d="M 149.68707275390625 81.14187622070312 C 124.1697769165039 139.24058532714844 162.69639587402344 73.44434356689453 139.30923461914062 176.10357666015625" stroke-width="3.0" fill="none" stroke="rgb(0, 0, 0)" stroke-opacity="1.0" stroke-linecap="round" stroke-linejoin="round"/>
    <path d="M 111.73780059814453 167.78341674804688 C 96.76020812988281 173.8947296142578 96.92288208007812 145.0550079345703 121.90779876708984 168.2105712890625" stroke-width="3.0" fill="none" stroke="rgb(0, 0, 0)" stroke-opacity="1.0" stroke-linecap="round" stroke-linejoin="round"/>
    <path d="M 93.59086608886719 151.67494201660156 C 96.81310272216797 193.94212341308594 107.95121765136719 78.85485076904297 73.0617904663086 101.61920928955078" stroke-width="3.0" fill="none" stroke="rgb(0, 0, 0)" stroke-opacity="1.0" stroke-linecap="round" stroke-linejoin="round"/>
    <path d="M 86.31919860839844 158.94444274902344 C 117.80902862548828 166.55633544921875 149.87738037109375 165.42112731933594 86.85730743408203 169.03231811523438" stroke-width="3.0" fill="none" stroke="rgb(0, 0, 0)" stroke-opacity="1.0" stroke-linecap="round" stroke-linejoin="round"/>
    <path d="M 114.51679992675781 162.49705505371094 C 42.320350646972656 176.68911743164062 99.40962982177734 143.66357421875 103.641845703125 167.3754119873047" stroke-width="3.0" fill="none" stroke="rgb(0, 0, 0)" stroke-opacity="1.0" stroke-linecap="round" stroke-linejoin="round"/>
    <path d="M 116.13211059570312 84.22335815429688 C 107.65474700927734 104.1589126586914 165.5509796142578 104.33592987060547 115.87492370605469 81.31378936767578" stroke-width="3.0" fill="none" stroke="rgb(0, 0, 0)" stroke-opacity="1.0" stroke-linecap="round" stroke-linejoin="round"/>
    <path d="M 118.17560577392578 99.22322845458984 C 149.5280303955078 69.64407348632812 165.951416015625 108.49436950683594 123.46330261230469 101.35860443115234" stroke-width="3.0" fill="none" stroke="rgb(0, 0, 0)" stroke-opacity="1.0" stroke-linecap="round" stroke-linejoin="round"/>
  </g>
</svg>
