<?xml version="1.0" ?>
<svg xmlns="http://www.w3.org/2000/svg" version="1.1" width="224" height="224">
  <defs/>
  <g>
    <path d="M 85.76813507080078 168.34461975097656 C 153.16160583496094 171.0830535888672 99.76747131347656 182.16722106933594 116.60592651367188 113.25572967529297" stroke-width="3.0" fill="none" stroke="rgb(0, 0, 0)" stroke-opacity="1.0" stroke-linecap="round" stroke-linejoin="round"/>
    <path d="M 111.26226043701172 157.87548828125 C 41.18440628051758 159.62518310546875 89.90544128417969 181.24673461914062 118.57737731933594 168.1245880126953" stroke-width="3.0" fill="none" stroke="rgb(0, 0, 0)" stroke-opacity="1.0" stroke-linecap="round" stroke-linejoin="round"/>
    <path d="M 124.03063201904297 177.9165496826172 C 152.90692138671875 178.6478729248047 138.31167602539062 175.27352905273438 143.25270080566406 163.57586669921875" stroke-width="3.0" fill="none" stroke="rgb(0, 0, 0)" stroke-opacity="1.0" stroke-linecap="round" stroke-linejoin="round"/>
    <path d="M 91.81320190429688 147.30853271484375 C 17.923559188842773 172.92774963378906 120.7578125 191.38803100585938 123.84516906738281 166.24868774414062" stroke-width="3.0" fill="none" stroke="rgb(0, 0, 0)" stroke-opacity="1.0" stroke-linecap="round" stroke-linejoin="round"/>
    <path d="M 129.01577758789062 145.6839599609375 C 133.51541137695312 164.56954956054688 129.40640258789062 164.3636474609375 132.05198669433594 176.22288513183594" stroke-width="3.0" fill="none" stroke="rgb(0, 0, 0)" stroke-opacity="1.0" stroke-linecap="round" stroke-linejoin="round"/>
    <path d="M 120.72248077392578 172.85377502441406 C 126.28549194335938 169.25628662109375 108.2881851196289 182.14622497558594 82.0240249633789 176.505615234375" stroke-width="3.0" fill="none" stroke="rgb(0, 0, 0)" stroke-opacity="1.0" stroke-linecap="round" stroke-linejoin="round"/>
    <path d="M 143.48800659179688 167.63816833496094 C 155.45657348632812 165.2523193359375 150.7781524658203 155.58004760742188 144.06211853027344 137.43809509277344" stroke-width="3.0" fill="none" stroke="rgb(0, 0, 0)" stroke-opacity="1.0" stroke-linecap="round" stroke-linejoin="round"/>
    <path d="M 74.88099670410156 167.6076202392578 C 98.11296844482422 175.23703002929688 155.4158477783203 157.7116241455078 78.5373764038086 162.85055541992188" stroke-width="3.0" fill="none" stroke="rgb(0, 0, 0)" stroke-opacity="1.0" stroke-linecap="round" stroke-linejoin="round"/>
    <path d="M 123.29150390625 177.7509765625 C 116.4443130493164 178.31185913085938 124.09980773925781 162.79901123046875 116.96717071533203 168.9323272705078" stroke-width="3.0" fill="none" stroke="rgb(0, 0, 0)" stroke-opacity="1.0" stroke-linecap="round" stroke-linejoin="round"/>
    <path d="M 145.13436889648438 82.8564682006836 C 121.88969421386719 131.98516845703125 158.75912475585938 83.4997329711914 142.853759765625 168.94393920898438" stroke-width="3.0" fill="none" stroke="rgb(0, 0, 0)" stroke-opacity="1.0" stroke-linecap="round" stroke-linejoin="round"/>
    <path d="M 117.78528594970703 169.6670684814453 C 99.72087097167969 177.59664916992188 103.43717956542969 151.67742919921875 115.97579956054688 169.827392578125" stroke-width="3.0" fill="none" stroke="rgb(0, 0, 0)" stroke-opacity="1.0" stroke-linecap="round" stroke-linejoin="round"/>
    <path d="M 94.23455047607422 156.0777130126953 C 96.08136749267578 194.42166137695312 104.07823181152344 79.60845947265625 72.10955810546875 103.64034271240234" stroke-width="3.0" fill="none" stroke="rgb(0, 0, 0)" stroke-opacity="1.0" stroke-linecap="round" stroke-linejoin="round"/>
    <path d="M 90.65438842773438 164.84805297851562 C 112.94062805175781 164.43643188476562 140.81581115722656 169.81130981445312 79.7489242553711 164.4538116455078" stroke-width="3.0" fill="none" stroke="rgb(0, 0, 0)" stroke-opacity="1.0" stroke-linecap="round" stroke-linejoin="round"/>
    <path d="M 114.020751953125 155.3108367919922 C 40.2832145690918 180.89248657226562 102.4840087890625 145.23410034179688 112.1585693359375 168.14678955078125" stroke-width="3.0" fill="none" stroke="rgb(0, 0, 0)" stroke-opacity="1.0" stroke-linecap="round" stroke-linejoin="round"/>
    <path d="M 119.01829528808594 80.91633605957031 C 111.84716033935547 104.23567199707031 158.84628295898438 106.77149200439453 117.77281951904297 78.99016571044922" stroke-width="3.0" fill="none" stroke="rgb(0, 0, 0)" stroke-opacity="1.0" stroke-linecap="round" stroke-linejoin="round"/>
    <path d="M 117.65933227539062 103.9821548461914 C 130.56947326660156 70.17988586425781 168.2656707763672 109.48522186279297 121.32500457763672 101.58544158935547" stroke-width="3.0" fill="none" stroke="rgb(0, 0, 0)" stroke-opacity="1.0" stroke-linecap="round" stroke-linejoin="round"/>
  </g>
</svg>
