<?xml version="1.0" ?>
<svg xmlns="http://www.w3.org/2000/svg" version="1.1" width="224" height="224">
  <defs/>
  <g>
    <path d="M 79.34581756591797 164.40733337402344 C 137.0426483154297 155.57736206054688 94.65119171142578 170.43533325195312 110.63455963134766 143.5756378173828" stroke-width="3.0" fill="none" stroke="rgb(0, 0, 0)" stroke-opacity="1.0" stroke-linecap="round" stroke-linejoin="round"/>
    <path d="M 116.10137939453125 169.6373748779297 C 37.3693962097168 154.78237915039062 84.36709594726562 181.8634490966797 119.17295837402344 169.33932495117188" stroke-width="3.0" fill="none" stroke="rgb(0, 0, 0)" stroke-opacity="1.0" stroke-linecap="round" stroke-linejoin="round"/>
    <path d="M 124.35173034667969 176.4223175048828 C 153.19235229492188 184.3153076171875 142.1013641357422 169.73423767089844 142.10194396972656 165.94325256347656" stroke-width="3.0" fill="none" stroke="rgb(0, 0, 0)" stroke-opacity="1.0" stroke-linecap="round" stroke-linejoin="round"/>
    <path d="M 94.64797973632812 147.8031768798828 C 14.335563659667969 173.77496337890625 117.38994598388672 187.8321075439453 123.2824478149414 166.72715759277344" stroke-width="3.0" fill="none" stroke="rgb(0, 0, 0)" stroke-opacity="1.0" stroke-linecap="round" stroke-linejoin="round"/>
    <path d="M 126.36444854736328 141.96534729003906 C 130.96018981933594 161.3006134033203 128.536865234375 147.57281494140625 131.3972625732422 175.3956756591797" stroke-width="3.0" fill="none" stroke="rgb(0, 0, 0)" stroke-opacity="1.0" stroke-linecap="round" stroke-linejoin="round"/>
    <path d="M 124.90460205078125 166.46116638183594 C 131.0930938720703 171.4822540283203 98.1480484008789 180.89785766601562 78.06132507324219 174.54676818847656" stroke-width="3.0" fill="none" stroke="rgb(0, 0, 0)" stroke-opacity="1.0" stroke-linecap="round" stroke-linejoin="round"/>
    <path d="M 146.33041381835938 164.7614288330078 C 154.70423889160156 162.6981964111328 146.7580108642578 149.5104522705078 145.58071899414062 132.2764129638672" stroke-width="3.0" fill="none" stroke="rgb(0, 0, 0)" stroke-opacity="1.0" stroke-linecap="round" stroke-linejoin="round"/>
    <path d="M 77.27241516113281 165.26522827148438 C 88.44453430175781 171.80264282226562 142.39993286132812 162.16819763183594 83.47561645507812 163.20689392089844" stroke-width="3.0" fill="none" stroke="rgb(0, 0, 0)" stroke-opacity="1.0" stroke-linecap="round" stroke-linejoin="round"/>
    <path d="M 125.62275695800781 176.9002685546875 C 127.17545318603516 184.00283813476562 118.80309295654297 163.78843688964844 121.20481872558594 164.16358947753906" stroke-width="3.0" fill="none" stroke="rgb(0, 0, 0)" stroke-opacity="1.0" stroke-linecap="round" stroke-linejoin="round"/>
    <path d="M 150.09353637695312 81.7362060546875 C 124.79153442382812 136.28334045410156 157.09866333007812 78.41793823242188 140.8204345703125 174.2034149169922" stroke-width="3.0" fill="none" stroke="rgb(0, 0, 0)" stroke-opacity="1.0" stroke-linecap="round" stroke-linejoin="round"/>
    <path d="M 112.13350677490234 170.34979248046875 C 94.20465087890625 168.38417053222656 91.05481719970703 144.16220092773438 124.24111938476562 172.1172637939453" stroke-width="3.0" fill="none" stroke="rgb(0, 0, 0)" stroke-opacity="1.0" stroke-linecap="round" stroke-linejoin="round"/>
    <path d="M 92.17780303955078 151.6068115234375 C 89.32840728759766 189.66299438476562 109.98175811767578 87.4049301147461 74.20338439941406 103.82528686523438" stroke-width="3.0" fill="none" stroke="rgb(0, 0, 0)" stroke-opacity="1.0" stroke-linecap="round" stroke-linejoin="round"/>
    <path d="M 89.89299774169922 163.2362060546875 C 117.14710235595703 169.84164428710938 151.68406677246094 165.6930694580078 88.75208282470703 170.82147216796875" stroke-width="3.0" fill="none" stroke="rgb(0, 0, 0)" stroke-opacity="1.0" stroke-linecap="round" stroke-linejoin="round"/>
    <path d="M 106.6546630859375 165.7059326171875 C 43.93102264404297 178.77976989746094 92.0491943359375 142.78941345214844 104.39588928222656 168.1626434326172" stroke-width="3.0" fill="none" stroke="rgb(0, 0, 0)" stroke-opacity="1.0" stroke-linecap="round" stroke-linejoin="round"/>
    <path d="M 119.91854095458984 83.19641876220703 C 114.49895477294922 102.44293975830078 165.80172729492188 105.69572448730469 118.3146743774414 81.32169342041016" stroke-width="3.0" fill="none" stroke="rgb(0, 0, 0)" stroke-opacity="1.0" stroke-linecap="round" stroke-linejoin="round"/>
    <path d="M 118.19233703613281 100.94908905029297 C 150.7229766845703 67.74664306640625 159.66221618652344 103.98200225830078 124.07205963134766 101.44544982910156" stroke-width="3.0" fill="none" stroke="rgb(0, 0, 0)" stroke-opacity="1.0" stroke-linecap="round" stroke-linejoin="round"/>
  </g>
</svg>
