<?xml version="1.0" ?>
<svg xmlns="http://www.w3.org/2000/svg" version="1.1" width="224" height="224">
  <defs/>
  <g>
    <path d="M 79.41605377197266 169.92315673828125 C 118.3322982788086 166.3592987060547 82.81175231933594 192.06488037109375 100.54011535644531 134.81890869140625" stroke-width="3.0" fill="none" stroke="rgb(0, 0, 0)" stroke-opacity="1.0" stroke-linecap="round" stroke-linejoin="round"/>
    <path d="M 118.47527313232422 169.47076416015625 C 41.54648971557617 157.8306121826172 87.92808532714844 185.95901489257812 122.27409362792969 165.0834197998047" stroke-width="3.0" fill="none" stroke="rgb(0, 0, 0)" stroke-opacity="1.0" stroke-linecap="round" stroke-linejoin="round"/>
    <path d="M 125.99913024902344 178.12118530273438 C 149.97906494140625 184.41139221191406 140.34181213378906 172.2873077392578 141.43106079101562 165.71310424804688" stroke-width="3.0" fill="none" stroke="rgb(0, 0, 0)" stroke-opacity="1.0" stroke-linecap="round" stroke-linejoin="round"/>
    <path d="M 81.81978607177734 151.953369140625 C 25.322952270507812 179.33087158203125 123.25944519042969 187.47242736816406 128.9275665283203 170.01272583007812" stroke-width="3.0" fill="none" stroke="rgb(0, 0, 0)" stroke-opacity="1.0" stroke-linecap="round" stroke-linejoin="round"/>
    <path d="M 126.32060241699219 141.95904541015625 C 130.5396728515625 155.44688415527344 125.27725982666016 152.735595703125 127.91060638427734 177.75213623046875" stroke-width="3.0" fill="none" stroke="rgb(0, 0, 0)" stroke-opacity="1.0" stroke-linecap="round" stroke-linejoin="round"/>
    <path d="M 118.84912109375 169.79576110839844 C 128.1632537841797 174.29559326171875 90.784912109375 183.84225463867188 79.59062957763672 177.2076416015625" stroke-width="3.0" fill="none" stroke="rgb(0, 0, 0)" stroke-opacity="1.0" stroke-linecap="round" stroke-linejoin="round"/>
    <path d="M 145.56845092773438 164.84791564941406 C 156.30133056640625 157.48927307128906 150.4388427734375 155.3133544921875 145.86709594726562 139.62176513671875" stroke-width="3.0" fill="none" stroke="rgb(0, 0, 0)" stroke-opacity="1.0" stroke-linecap="round" stroke-linejoin="round"/>
    <path d="M 83.88197326660156 166.13412475585938 C 97.48770141601562 176.04176330566406 151.85470581054688 165.19126892089844 82.1673812866211 164.3732147216797" stroke-width="3.0" fill="none" stroke="rgb(0, 0, 0)" stroke-opacity="1.0" stroke-linecap="round" stroke-linejoin="round"/>
    <path d="M 134.9121551513672 175.33836364746094 C 140.7407989501953 181.74122619628906 127.09632110595703 176.67417907714844 140.11285400390625 178.38548278808594" stroke-width="3.0" fill="none" stroke="rgb(0, 0, 0)" stroke-opacity="1.0" stroke-linecap="round" stroke-linejoin="round"/>
    <path d="M 146.9988555908203 80.34550476074219 C 131.33340454101562 137.4669952392578 157.20538330078125 80.40633392333984 140.0951385498047 169.69972229003906" stroke-width="3.0" fill="none" stroke="rgb(0, 0, 0)" stroke-opacity="1.0" stroke-linecap="round" stroke-linejoin="round"/>
    <path d="M 112.85774993896484 168.6816864013672 C 97.27080535888672 166.2957763671875 89.36608123779297 152.64730834960938 125.2491683959961 176.428955078125" stroke-width="3.0" fill="none" stroke="rgb(0, 0, 0)" stroke-opacity="1.0" stroke-linecap="round" stroke-linejoin="round"/>
    <path d="M 85.85039520263672 150.0904998779297 C 68.75480651855469 160.40643310546875 131.41268920898438 132.19754028320312 77.42646789550781 101.31041717529297" stroke-width="3.0" fill="none" stroke="rgb(0, 0, 0)" stroke-opacity="1.0" stroke-linecap="round" stroke-linejoin="round"/>
    <path d="M 93.28129577636719 160.5058135986328 C 111.9661865234375 176.57681274414062 145.4215850830078 166.78634643554688 86.6400146484375 168.52175903320312" stroke-width="3.0" fill="none" stroke="rgb(0, 0, 0)" stroke-opacity="1.0" stroke-linecap="round" stroke-linejoin="round"/>
    <path d="M 108.5140151977539 169.643798828125 C 54.580753326416016 181.3883819580078 80.55442810058594 149.25515747070312 110.02195739746094 169.46026611328125" stroke-width="3.0" fill="none" stroke="rgb(0, 0, 0)" stroke-opacity="1.0" stroke-linecap="round" stroke-linejoin="round"/>
    <path d="M 116.18801879882812 82.63865661621094 C 106.8656234741211 100.93212890625 153.10513305664062 101.55318450927734 116.32875061035156 80.05631256103516" stroke-width="3.0" fill="none" stroke="rgb(0, 0, 0)" stroke-opacity="1.0" stroke-linecap="round" stroke-linejoin="round"/>
    <path d="M 117.55270385742188 97.86797332763672 C 161.84909057617188 61.10676956176758 145.47178649902344 112.25914001464844 132.98666381835938 101.9642105102539" stroke-width="3.0" fill="none" stroke="rgb(0, 0, 0)" stroke-opacity="1.0" stroke-linecap="round" stroke-linejoin="round"/>
  </g>
</svg>
