<?xml version="1.0" ?>
<svg xmlns="http://www.w3.org/2000/svg" version="1.1" width="224" height="224">
  <defs/>
  <g>
    <path d="M 75.90379333496094 166.57081604003906 C 111.67048645019531 157.25973510742188 95.85211181640625 188.64292907714844 98.26405334472656 145.0762939453125" stroke-width="3.0" fill="none" stroke="rgb(0, 0, 0)" stroke-opacity="1.0" stroke-linecap="round" stroke-linejoin="round"/>
    <path d="M 119.35960388183594 164.1623077392578 C 36.72645950317383 153.96011352539062 78.97724151611328 190.3839111328125 126.99809265136719 171.16954040527344" stroke-width="3.0" fill="none" stroke="rgb(0, 0, 0)" stroke-opacity="1.0" stroke-linecap="round" stroke-linejoin="round"/>
    <path d="M 130.2910919189453 177.46835327148438 C 154.02613830566406 180.2491455078125 140.32003784179688 167.81204223632812 141.26690673828125 169.3330841064453" stroke-width="3.0" fill="none" stroke="rgb(0, 0, 0)" stroke-opacity="1.0" stroke-linecap="round" stroke-linejoin="round"/>
    <path d="M 62.171714782714844 166.20306396484375 C 66.36137390136719 178.21559143066406 110.94059753417969 175.9858856201172 85.94245147705078 175.78567504882812" stroke-width="3.0" fill="none" stroke="rgb(0, 0, 0)" stroke-opacity="1.0" stroke-linecap="round" stroke-linejoin="round"/>
    <path d="M 128.99951171875 141.55760192871094 C 126.12628936767578 148.09291076660156 133.43626403808594 143.8775634765625 127.84618377685547 176.52572631835938" stroke-width="3.0" fill="none" stroke="rgb(0, 0, 0)" stroke-opacity="1.0" stroke-linecap="round" stroke-linejoin="round"/>
    <path d="M 120.6534423828125 164.88148498535156 C 119.88214874267578 159.91212463378906 97.13483428955078 168.45306396484375 76.95458221435547 166.57493591308594" stroke-width="3.0" fill="none" stroke="rgb(0, 0, 0)" stroke-opacity="1.0" stroke-linecap="round" stroke-linejoin="round"/>
    <path d="M 144.57118225097656 164.25018310546875 C 155.31143188476562 156.33680725097656 150.35842895507812 157.85394287109375 145.07122802734375 134.62454223632812" stroke-width="3.0" fill="none" stroke="rgb(0, 0, 0)" stroke-opacity="1.0" stroke-linecap="round" stroke-linejoin="round"/>
    <path d="M 73.0535888671875 165.04544067382812 C 90.45758819580078 177.9278564453125 150.1884307861328 162.24478149414062 90.99224853515625 165.04872131347656" stroke-width="3.0" fill="none" stroke="rgb(0, 0, 0)" stroke-opacity="1.0" stroke-linecap="round" stroke-linejoin="round"/>
    <path d="M 137.37408447265625 171.71310424804688 C 146.4156036376953 184.7720184326172 112.66329956054688 175.5491485595703 130.39817810058594 177.00289916992188" stroke-width="3.0" fill="none" stroke="rgb(0, 0, 0)" stroke-opacity="1.0" stroke-linecap="round" stroke-linejoin="round"/>
    <path d="M 145.21685791015625 99.97145080566406 C 133.01661682128906 120.49312591552734 158.21328735351562 91.45207977294922 141.01602172851562 167.89503479003906" stroke-width="3.0" fill="none" stroke="rgb(0, 0, 0)" stroke-opacity="1.0" stroke-linecap="round" stroke-linejoin="round"/>
    <path d="M 109.62886810302734 168.02635192871094 C 119.36910247802734 127.39099884033203 115.05964660644531 123.49324798583984 123.61637115478516 176.52931213378906" stroke-width="3.0" fill="none" stroke="rgb(0, 0, 0)" stroke-opacity="1.0" stroke-linecap="round" stroke-linejoin="round"/>
    <path d="M 62.0878791809082 165.16485595703125 C 71.1679916381836 144.74588012695312 128.59153747558594 167.16738891601562 78.34526824951172 98.8261489868164" stroke-width="3.0" fill="none" stroke="rgb(0, 0, 0)" stroke-opacity="1.0" stroke-linecap="round" stroke-linejoin="round"/>
    <path d="M 76.10971069335938 164.0850067138672 C 95.13412475585938 150.9972686767578 109.90977478027344 163.0314178466797 83.1968765258789 169.107177734375" stroke-width="3.0" fill="none" stroke="rgb(0, 0, 0)" stroke-opacity="1.0" stroke-linecap="round" stroke-linejoin="round"/>
    <path d="M 118.21644592285156 168.52218627929688 C 75.18924713134766 163.28909301757812 87.70404052734375 155.878662109375 110.23837280273438 152.8609161376953" stroke-width="3.0" fill="none" stroke="rgb(0, 0, 0)" stroke-opacity="1.0" stroke-linecap="round" stroke-linejoin="round"/>
    <path d="M 119.35798645019531 95.90074920654297 C 109.3163833618164 103.32225799560547 139.8800811767578 102.10881042480469 118.59831237792969 92.93434143066406" stroke-width="3.0" fill="none" stroke="rgb(0, 0, 0)" stroke-opacity="1.0" stroke-linecap="round" stroke-linejoin="round"/>
    <path d="M 133.80776977539062 97.24555969238281 C 156.74017333984375 82.4054183959961 135.65647888183594 107.08708190917969 136.270263671875 95.46296691894531" stroke-width="3.0" fill="none" stroke="rgb(0, 0, 0)" stroke-opacity="1.0" stroke-linecap="round" stroke-linejoin="round"/>
  </g>
</svg>
