<?xml version="1.0" ?>
<svg xmlns="http://www.w3.org/2000/svg" version="1.1" width="224" height="224">
  <defs/>
  <g>
    <path d="M 85.32557678222656 165.8922882080078 C 96.7369613647461 177.16690063476562 83.39265441894531 173.50592041015625 92.57146453857422 156.28163146972656" stroke-width="3.0" fill="none" stroke="rgb(0, 0, 0)" stroke-opacity="1.0" stroke-linecap="round" stroke-linejoin="round"/>
    <path d="M 91.49292755126953 167.0768280029297 C 88.01660919189453 170.037841796875 84.5065689086914 176.87644958496094 114.66837310791016 171.64271545410156" stroke-width="3.0" fill="none" stroke="rgb(0, 0, 0)" stroke-opacity="1.0" stroke-linecap="round" stroke-linejoin="round"/>
    <path d="M 137.81349182128906 178.6505584716797 C 158.97616577148438 175.2683563232422 145.28994750976562 163.78123474121094 147.93617248535156 160.19924926757812" stroke-width="3.0" fill="none" stroke="rgb(0, 0, 0)" stroke-opacity="1.0" stroke-linecap="round" stroke-linejoin="round"/>
    <path d="M 68.51045989990234 167.4778594970703 C 80.0702896118164 180.1636962890625 96.60205078125 171.13172912597656 82.52734375 174.24813842773438" stroke-width="3.0" fill="none" stroke="rgb(0, 0, 0)" stroke-opacity="1.0" stroke-linecap="round" stroke-linejoin="round"/>
    <path d="M 139.9093017578125 144.7583770751953 C 137.9436492919922 151.68113708496094 140.03468322753906 137.07400512695312 135.55784606933594 165.68145751953125" stroke-width="3.0" fill="none" stroke="rgb(0, 0, 0)" stroke-opacity="1.0" stroke-linecap="round" stroke-linejoin="round"/>
    <path d="M 101.17937469482422 161.5017852783203 C 110.94865417480469 175.83897399902344 90.25017547607422 177.3037872314453 73.55606842041016 170.50018310546875" stroke-width="3.0" fill="none" stroke="rgb(0, 0, 0)" stroke-opacity="1.0" stroke-linecap="round" stroke-linejoin="round"/>
    <path d="M 147.5215301513672 160.49249267578125 C 151.82797241210938 153.33966064453125 153.5391845703125 138.50062561035156 147.5803680419922 166.544189453125" stroke-width="3.0" fill="none" stroke="rgb(0, 0, 0)" stroke-opacity="1.0" stroke-linecap="round" stroke-linejoin="round"/>
    <path d="M 73.21800231933594 164.27279663085938 C 86.76417541503906 175.87123107910156 101.15233612060547 173.6171417236328 90.26788330078125 164.0110626220703" stroke-width="3.0" fill="none" stroke="rgb(0, 0, 0)" stroke-opacity="1.0" stroke-linecap="round" stroke-linejoin="round"/>
    <path d="M 135.74847412109375 155.3321533203125 C 119.44576263427734 184.99688720703125 123.69297790527344 180.38674926757812 133.13226318359375 178.99330139160156" stroke-width="3.0" fill="none" stroke="rgb(0, 0, 0)" stroke-opacity="1.0" stroke-linecap="round" stroke-linejoin="round"/>
    <path d="M 148.46493530273438 112.51506042480469 C 146.3711700439453 131.8968963623047 154.33892822265625 104.68311309814453 151.0475616455078 147.81080627441406" stroke-width="3.0" fill="none" stroke="rgb(0, 0, 0)" stroke-opacity="1.0" stroke-linecap="round" stroke-linejoin="round"/>
    <path d="M 97.35340881347656 161.20492553710938 C 106.7168197631836 134.9095916748047 130.4967803955078 135.32798767089844 121.27767181396484 175.28665161132812" stroke-width="3.0" fill="none" stroke="rgb(0, 0, 0)" stroke-opacity="1.0" stroke-linecap="round" stroke-linejoin="round"/>
    <path d="M 73.50715637207031 162.63681030273438 C 87.84064483642578 149.3892364501953 111.06672668457031 163.57693481445312 89.0043716430664 108.19058227539062" stroke-width="3.0" fill="none" stroke="rgb(0, 0, 0)" stroke-opacity="1.0" stroke-linecap="round" stroke-linejoin="round"/>
    <path d="M 91.39354705810547 169.31182861328125 C 94.2348403930664 168.8526153564453 102.90238952636719 164.8312225341797 86.3123550415039 165.57846069335938" stroke-width="3.0" fill="none" stroke="rgb(0, 0, 0)" stroke-opacity="1.0" stroke-linecap="round" stroke-linejoin="round"/>
    <path d="M 88.96311950683594 167.7060089111328 C 91.13977813720703 170.5225830078125 102.99417877197266 168.85438537597656 108.76021575927734 168.9525604248047" stroke-width="3.0" fill="none" stroke="rgb(0, 0, 0)" stroke-opacity="1.0" stroke-linecap="round" stroke-linejoin="round"/>
    <path d="M 116.64653015136719 88.55158996582031 C 116.15850830078125 90.49655151367188 130.9319305419922 96.1428451538086 116.7494888305664 84.26776123046875" stroke-width="3.0" fill="none" stroke="rgb(0, 0, 0)" stroke-opacity="1.0" stroke-linecap="round" stroke-linejoin="round"/>
    <path d="M 137.42404174804688 90.22081756591797 C 135.52752685546875 83.08549499511719 150.3822479248047 88.09590911865234 135.9722137451172 87.24315643310547" stroke-width="3.0" fill="none" stroke="rgb(0, 0, 0)" stroke-opacity="1.0" stroke-linecap="round" stroke-linejoin="round"/>
  </g>
</svg>
