<?xml version="1.0" ?>
<svg xmlns="http://www.w3.org/2000/svg" version="1.1" width="224" height="224">
  <defs/>
  <g>
    <path d="M 93.68521881103516 161.58761596679688 C 114.14422607421875 158.50909423828125 96.8179931640625 174.35581970214844 100.77361297607422 143.59771728515625" stroke-width="3.0" fill="none" stroke="rgb(0, 0, 0)" stroke-opacity="1.0" stroke-linecap="round" stroke-linejoin="round"/>
    <path d="M 101.49151611328125 168.95736694335938 C 42.79309844970703 155.05300903320312 79.66072082519531 189.98248291015625 124.74116516113281 171.5024871826172" stroke-width="3.0" fill="none" stroke="rgb(0, 0, 0)" stroke-opacity="1.0" stroke-linecap="round" stroke-linejoin="round"/>
    <path d="M 129.4097137451172 175.84133911132812 C 156.56190490722656 178.35488891601562 144.01084899902344 169.36427307128906 141.51963806152344 168.98397827148438" stroke-width="3.0" fill="none" stroke="rgb(0, 0, 0)" stroke-opacity="1.0" stroke-linecap="round" stroke-linejoin="round"/>
    <path d="M 66.05936431884766 167.67706298828125 C 63.2910270690918 183.11752319335938 104.0988540649414 177.1825714111328 87.71428680419922 177.98658752441406" stroke-width="3.0" fill="none" stroke="rgb(0, 0, 0)" stroke-opacity="1.0" stroke-linecap="round" stroke-linejoin="round"/>
    <path d="M 128.9839324951172 147.81614685058594 C 129.95570373535156 148.8341064453125 131.574951171875 145.02557373046875 128.34983825683594 175.9191436767578" stroke-width="3.0" fill="none" stroke="rgb(0, 0, 0)" stroke-opacity="1.0" stroke-linecap="round" stroke-linejoin="round"/>
    <path d="M 116.979248046875 165.10061645507812 C 120.1274185180664 163.09556579589844 94.73545837402344 164.86859130859375 79.38591003417969 166.82318115234375" stroke-width="3.0" fill="none" stroke="rgb(0, 0, 0)" stroke-opacity="1.0" stroke-linecap="round" stroke-linejoin="round"/>
    <path d="M 145.3175506591797 165.6658172607422 C 151.40672302246094 150.86996459960938 151.80392456054688 161.9105682373047 143.76805114746094 134.1312713623047" stroke-width="3.0" fill="none" stroke="rgb(0, 0, 0)" stroke-opacity="1.0" stroke-linecap="round" stroke-linejoin="round"/>
    <path d="M 72.50658416748047 165.50100708007812 C 86.86200714111328 175.58798217773438 145.6280517578125 169.5215301513672 97.39492797851562 165.5272979736328" stroke-width="3.0" fill="none" stroke="rgb(0, 0, 0)" stroke-opacity="1.0" stroke-linecap="round" stroke-linejoin="round"/>
    <path d="M 136.0698699951172 173.32106018066406 C 146.758544921875 183.76840209960938 114.27489471435547 175.60455322265625 129.44137573242188 178.74365234375" stroke-width="3.0" fill="none" stroke="rgb(0, 0, 0)" stroke-opacity="1.0" stroke-linecap="round" stroke-linejoin="round"/>
    <path d="M 143.81919860839844 98.93988800048828 C 129.01101684570312 121.00413513183594 154.18325805664062 91.26067352294922 141.28863525390625 168.4783935546875" stroke-width="3.0" fill="none" stroke="rgb(0, 0, 0)" stroke-opacity="1.0" stroke-linecap="round" stroke-linejoin="round"/>
    <path d="M 115.34136962890625 167.4898681640625 C 120.34637451171875 122.55730438232422 107.1002197265625 120.21444702148438 123.82843780517578 177.46742248535156" stroke-width="3.0" fill="none" stroke="rgb(0, 0, 0)" stroke-opacity="1.0" stroke-linecap="round" stroke-linejoin="round"/>
    <path d="M 67.36483764648438 166.34962463378906 C 72.9647445678711 143.01597595214844 131.1945343017578 172.7792510986328 77.74166870117188 102.86326599121094" stroke-width="3.0" fill="none" stroke="rgb(0, 0, 0)" stroke-opacity="1.0" stroke-linecap="round" stroke-linejoin="round"/>
    <path d="M 82.36236572265625 161.85150146484375 C 103.30137634277344 156.8105010986328 109.15251922607422 149.677490234375 71.8365707397461 166.99208068847656" stroke-width="3.0" fill="none" stroke="rgb(0, 0, 0)" stroke-opacity="1.0" stroke-linecap="round" stroke-linejoin="round"/>
    <path d="M 109.1787338256836 169.13575744628906 C 77.07054138183594 165.21908569335938 93.24893951416016 154.95211791992188 116.10344696044922 162.5983428955078" stroke-width="3.0" fill="none" stroke="rgb(0, 0, 0)" stroke-opacity="1.0" stroke-linecap="round" stroke-linejoin="round"/>
    <path d="M 120.133544921875 86.01406860351562 C 116.48649597167969 98.2659912109375 139.71286010742188 99.03001403808594 117.60790252685547 82.2485122680664" stroke-width="3.0" fill="none" stroke="rgb(0, 0, 0)" stroke-opacity="1.0" stroke-linecap="round" stroke-linejoin="round"/>
    <path d="M 131.95291137695312 91.25296020507812 C 152.88404846191406 80.59510803222656 133.87396240234375 106.2006607055664 134.5880126953125 91.4559555053711" stroke-width="3.0" fill="none" stroke="rgb(0, 0, 0)" stroke-opacity="1.0" stroke-linecap="round" stroke-linejoin="round"/>
  </g>
</svg>
