<?xml version="1.0" ?>
<svg xmlns="http://www.w3.org/2000/svg" version="1.1" width="224" height="224">
  <defs/>
  <g>
    <path d="M 78.86984252929688 169.24575805664062 C 118.43441772460938 168.8410186767578 82.98484802246094 193.74342346191406 100.62228393554688 133.8077392578125" stroke-width="3.0" fill="none" stroke="rgb(0, 0, 0)" stroke-opacity="1.0" stroke-linecap="round" stroke-linejoin="round"/>
    <path d="M 118.75611114501953 170.0518798828125 C 41.4173583984375 158.82305908203125 88.04602813720703 186.80015563964844 124.4452896118164 166.5707244873047" stroke-width="3.0" fill="none" stroke="rgb(0, 0, 0)" stroke-opacity="1.0" stroke-linecap="round" stroke-linejoin="round"/>
    <path d="M 127.4085464477539 179.2366180419922 C 151.79794311523438 181.6321258544922 139.63548278808594 171.068359375 143.56527709960938 166.2796173095703" stroke-width="3.0" fill="none" stroke="rgb(0, 0, 0)" stroke-opacity="1.0" stroke-linecap="round" stroke-linejoin="round"/>
    <path d="M 80.81477355957031 152.09373474121094 C 25.712303161621094 181.23619079589844 124.22354125976562 188.22113037109375 126.70718383789062 169.4947509765625" stroke-width="3.0" fill="none" stroke="rgb(0, 0, 0)" stroke-opacity="1.0" stroke-linecap="round" stroke-linejoin="round"/>
    <path d="M 126.92605590820312 140.8872528076172 C 130.59280395507812 156.21145629882812 127.97554016113281 153.11314392089844 129.3720703125 176.0922088623047" stroke-width="3.0" fill="none" stroke="rgb(0, 0, 0)" stroke-opacity="1.0" stroke-linecap="round" stroke-linejoin="round"/>
    <path d="M 118.60106658935547 169.05731201171875 C 127.34458923339844 173.4244384765625 89.27786254882812 181.11805725097656 77.53068542480469 178.14601135253906" stroke-width="3.0" fill="none" stroke="rgb(0, 0, 0)" stroke-opacity="1.0" stroke-linecap="round" stroke-linejoin="round"/>
    <path d="M 142.70115661621094 162.56236267089844 C 154.1513671875 156.839111328125 147.8173828125 154.89695739746094 145.4687957763672 140.06825256347656" stroke-width="3.0" fill="none" stroke="rgb(0, 0, 0)" stroke-opacity="1.0" stroke-linecap="round" stroke-linejoin="round"/>
    <path d="M 84.35891723632812 164.9595184326172 C 99.26045227050781 174.9705352783203 153.73423767089844 164.14215087890625 81.87593841552734 165.06065368652344" stroke-width="3.0" fill="none" stroke="rgb(0, 0, 0)" stroke-opacity="1.0" stroke-linecap="round" stroke-linejoin="round"/>
    <path d="M 134.36537170410156 175.4737091064453 C 140.91673278808594 182.0100555419922 127.23654174804688 176.22607421875 142.3634490966797 177.88760375976562" stroke-width="3.0" fill="none" stroke="rgb(0, 0, 0)" stroke-opacity="1.0" stroke-linecap="round" stroke-linejoin="round"/>
    <path d="M 148.99905395507812 81.76116180419922 C 131.56396484375 137.33856201171875 159.54090881347656 76.73038482666016 140.40789794921875 168.4481964111328" stroke-width="3.0" fill="none" stroke="rgb(0, 0, 0)" stroke-opacity="1.0" stroke-linecap="round" stroke-linejoin="round"/>
    <path d="M 113.53282928466797 171.0325469970703 C 98.1951675415039 164.6862335205078 90.3835678100586 149.60369873046875 126.09207153320312 175.72103881835938" stroke-width="3.0" fill="none" stroke="rgb(0, 0, 0)" stroke-opacity="1.0" stroke-linecap="round" stroke-linejoin="round"/>
    <path d="M 85.01651000976562 150.60243225097656 C 70.200927734375 158.9888458251953 134.7282257080078 133.0025177001953 75.6146469116211 100.97966003417969" stroke-width="3.0" fill="none" stroke="rgb(0, 0, 0)" stroke-opacity="1.0" stroke-linecap="round" stroke-linejoin="round"/>
    <path d="M 91.7249526977539 161.06808471679688 C 112.39764404296875 176.34107971191406 145.7783660888672 166.27761840820312 86.4813003540039 167.47596740722656" stroke-width="3.0" fill="none" stroke="rgb(0, 0, 0)" stroke-opacity="1.0" stroke-linecap="round" stroke-linejoin="round"/>
    <path d="M 108.27875518798828 169.82632446289062 C 55.362125396728516 181.9162139892578 82.05845642089844 149.2666015625 111.08812713623047 168.72438049316406" stroke-width="3.0" fill="none" stroke="rgb(0, 0, 0)" stroke-opacity="1.0" stroke-linecap="round" stroke-linejoin="round"/>
    <path d="M 120.44757843017578 82.94361114501953 C 111.79488372802734 101.62410736083984 159.2177276611328 104.72772979736328 116.63683319091797 81.46002960205078" stroke-width="3.0" fill="none" stroke="rgb(0, 0, 0)" stroke-opacity="1.0" stroke-linecap="round" stroke-linejoin="round"/>
    <path d="M 119.2433853149414 97.83567810058594 C 165.73382568359375 60.8544921875 145.6460418701172 110.79849243164062 135.349365234375 101.51514434814453" stroke-width="3.0" fill="none" stroke="rgb(0, 0, 0)" stroke-opacity="1.0" stroke-linecap="round" stroke-linejoin="round"/>
  </g>
</svg>
