<?xml version="1.0" ?>
<svg xmlns="http://www.w3.org/2000/svg" version="1.1" width="224" height="224">
  <defs/>
  <g>
    <path d="M 82.32196807861328 167.3577880859375 C 95.63858795166016 175.04965209960938 90.4065933227539 170.2213592529297 89.07689666748047 159.30992126464844" stroke-width="3.0" fill="none" stroke="rgb(0, 0, 0)" stroke-opacity="1.0" stroke-linecap="round" stroke-linejoin="round"/>
    <path d="M 91.3887710571289 172.4340057373047 C 88.62334442138672 168.9534149169922 86.47525787353516 173.55116271972656 110.81163787841797 178.76272583007812" stroke-width="3.0" fill="none" stroke="rgb(0, 0, 0)" stroke-opacity="1.0" stroke-linecap="round" stroke-linejoin="round"/>
    <path d="M 141.8499298095703 166.2632598876953 C 153.36642456054688 167.14434814453125 147.16452026367188 161.0458221435547 148.60023498535156 157.30966186523438" stroke-width="3.0" fill="none" stroke="rgb(0, 0, 0)" stroke-opacity="1.0" stroke-linecap="round" stroke-linejoin="round"/>
    <path d="M 72.60541534423828 166.5753631591797 C 81.48941040039062 179.81105041503906 89.88945007324219 172.14068603515625 82.24481964111328 172.86264038085938" stroke-width="3.0" fill="none" stroke="rgb(0, 0, 0)" stroke-opacity="1.0" stroke-linecap="round" stroke-linejoin="round"/>
    <path d="M 139.19847106933594 149.36715698242188 C 138.2391357421875 147.6344757080078 141.05628967285156 134.7758331298828 134.47525024414062 164.26136779785156" stroke-width="3.0" fill="none" stroke="rgb(0, 0, 0)" stroke-opacity="1.0" stroke-linecap="round" stroke-linejoin="round"/>
    <path d="M 99.65322875976562 164.1819610595703 C 108.97924041748047 178.80738830566406 91.2635269165039 180.20016479492188 76.4843978881836 172.50802612304688" stroke-width="3.0" fill="none" stroke="rgb(0, 0, 0)" stroke-opacity="1.0" stroke-linecap="round" stroke-linejoin="round"/>
    <path d="M 149.1573944091797 148.7665252685547 C 149.92384338378906 143.37437438964844 147.8155975341797 132.45626831054688 149.0526123046875 161.3110809326172" stroke-width="3.0" fill="none" stroke="rgb(0, 0, 0)" stroke-opacity="1.0" stroke-linecap="round" stroke-linejoin="round"/>
    <path d="M 75.1417236328125 162.6612548828125 C 91.71480560302734 171.25247192382812 96.63648986816406 175.02960205078125 89.6197738647461 163.6913299560547" stroke-width="3.0" fill="none" stroke="rgb(0, 0, 0)" stroke-opacity="1.0" stroke-linecap="round" stroke-linejoin="round"/>
    <path d="M 137.45298767089844 160.8958282470703 C 122.26263427734375 190.7657928466797 125.72736358642578 186.6075439453125 130.1161651611328 184.8622283935547" stroke-width="3.0" fill="none" stroke="rgb(0, 0, 0)" stroke-opacity="1.0" stroke-linecap="round" stroke-linejoin="round"/>
    <path d="M 148.9220428466797 121.04769134521484 C 144.14036560058594 141.88754272460938 145.88644409179688 123.60526275634766 148.43450927734375 140.86111450195312" stroke-width="3.0" fill="none" stroke="rgb(0, 0, 0)" stroke-opacity="1.0" stroke-linecap="round" stroke-linejoin="round"/>
    <path d="M 101.56010437011719 163.40252685546875 C 110.56822967529297 153.06854248046875 122.11575317382812 151.27932739257812 113.79602813720703 181.17755126953125" stroke-width="3.0" fill="none" stroke="rgb(0, 0, 0)" stroke-opacity="1.0" stroke-linecap="round" stroke-linejoin="round"/>
    <path d="M 75.64299011230469 161.1715545654297 C 86.57530975341797 150.9126739501953 95.42379760742188 153.7239990234375 86.85557556152344 122.44368743896484" stroke-width="3.0" fill="none" stroke="rgb(0, 0, 0)" stroke-opacity="1.0" stroke-linecap="round" stroke-linejoin="round"/>
    <path d="M 92.04253387451172 164.89349365234375 C 91.73173522949219 165.82843017578125 98.17703247070312 165.5028076171875 88.07162475585938 162.67440795898438" stroke-width="3.0" fill="none" stroke="rgb(0, 0, 0)" stroke-opacity="1.0" stroke-linecap="round" stroke-linejoin="round"/>
    <path d="M 92.37775421142578 166.8447265625 C 95.2737808227539 173.18878173828125 97.5588607788086 173.8881072998047 101.75508117675781 174.4043426513672" stroke-width="3.0" fill="none" stroke="rgb(0, 0, 0)" stroke-opacity="1.0" stroke-linecap="round" stroke-linejoin="round"/>
    <path d="M 118.59156799316406 79.95765686035156 C 121.64151763916016 83.33168029785156 129.62521362304688 90.18836975097656 117.8464584350586 82.54317474365234" stroke-width="3.0" fill="none" stroke="rgb(0, 0, 0)" stroke-opacity="1.0" stroke-linecap="round" stroke-linejoin="round"/>
    <path d="M 135.43887329101562 88.76847839355469 C 138.9752197265625 79.55042266845703 143.92417907714844 79.94367980957031 139.6913299560547 89.14657592773438" stroke-width="3.0" fill="none" stroke="rgb(0, 0, 0)" stroke-opacity="1.0" stroke-linecap="round" stroke-linejoin="round"/>
  </g>
</svg>
