<?xml version="1.0" ?>
<svg xmlns="http://www.w3.org/2000/svg" version="1.1" width="224" height="224">
  <defs/>
  <g>
    <path d="M 85.11170959472656 165.4397430419922 C 154.3565216064453 172.33839416503906 101.81755828857422 179.55421447753906 116.29248809814453 122.19853973388672" stroke-width="3.0" fill="none" stroke="rgb(0, 0, 0)" stroke-opacity="1.0" stroke-linecap="round" stroke-linejoin="round"/>
    <path d="M 111.28265380859375 157.61148071289062 C 44.71905517578125 159.82293701171875 93.29411315917969 181.2610626220703 118.31614685058594 168.38491821289062" stroke-width="3.0" fill="none" stroke="rgb(0, 0, 0)" stroke-opacity="1.0" stroke-linecap="round" stroke-linejoin="round"/>
    <path d="M 123.77081298828125 177.15025329589844 C 151.6390380859375 179.18113708496094 138.0746307373047 175.68856811523438 142.26548767089844 164.79222106933594" stroke-width="3.0" fill="none" stroke="rgb(0, 0, 0)" stroke-opacity="1.0" stroke-linecap="round" stroke-linejoin="round"/>
    <path d="M 92.31876373291016 148.8547821044922 C 13.688667297363281 168.17149353027344 122.55149841308594 189.94378662109375 121.84891510009766 166.84376525878906" stroke-width="3.0" fill="none" stroke="rgb(0, 0, 0)" stroke-opacity="1.0" stroke-linecap="round" stroke-linejoin="round"/>
    <path d="M 129.1787872314453 145.05319213867188 C 132.75445556640625 165.34030151367188 131.25550842285156 165.49658203125 131.2694091796875 177.4354248046875" stroke-width="3.0" fill="none" stroke="rgb(0, 0, 0)" stroke-opacity="1.0" stroke-linecap="round" stroke-linejoin="round"/>
    <path d="M 120.53117370605469 172.81024169921875 C 125.55462646484375 168.65643310546875 109.3327865600586 179.9037322998047 82.68692779541016 175.22467041015625" stroke-width="3.0" fill="none" stroke="rgb(0, 0, 0)" stroke-opacity="1.0" stroke-linecap="round" stroke-linejoin="round"/>
    <path d="M 141.88539123535156 164.6077423095703 C 157.8389434814453 161.565185546875 149.23455810546875 157.36231994628906 145.2557830810547 137.22357177734375" stroke-width="3.0" fill="none" stroke="rgb(0, 0, 0)" stroke-opacity="1.0" stroke-linecap="round" stroke-linejoin="round"/>
    <path d="M 76.54779052734375 168.1385955810547 C 98.27873229980469 175.69549560546875 152.9453125 162.20053100585938 80.16915130615234 166.09487915039062" stroke-width="3.0" fill="none" stroke="rgb(0, 0, 0)" stroke-opacity="1.0" stroke-linecap="round" stroke-linejoin="round"/>
    <path d="M 123.9935531616211 177.6746826171875 C 119.30984497070312 177.17706298828125 121.7699203491211 162.39149475097656 116.71675109863281 168.85325622558594" stroke-width="3.0" fill="none" stroke="rgb(0, 0, 0)" stroke-opacity="1.0" stroke-linecap="round" stroke-linejoin="round"/>
    <path d="M 145.51487731933594 82.84662628173828 C 124.73321533203125 135.97976684570312 159.90814208984375 83.45284271240234 140.7119598388672 169.182373046875" stroke-width="3.0" fill="none" stroke="rgb(0, 0, 0)" stroke-opacity="1.0" stroke-linecap="round" stroke-linejoin="round"/>
    <path d="M 117.4209213256836 168.97891235351562 C 99.61205291748047 175.2277069091797 103.33564758300781 147.26663208007812 116.23432922363281 168.6005859375" stroke-width="3.0" fill="none" stroke="rgb(0, 0, 0)" stroke-opacity="1.0" stroke-linecap="round" stroke-linejoin="round"/>
    <path d="M 94.63961029052734 156.1361541748047 C 94.42243194580078 194.4444580078125 104.95459747314453 75.84033203125 72.18877410888672 104.096435546875" stroke-width="3.0" fill="none" stroke="rgb(0, 0, 0)" stroke-opacity="1.0" stroke-linecap="round" stroke-linejoin="round"/>
    <path d="M 90.39313507080078 164.02243041992188 C 112.64608764648438 164.77207946777344 140.64938354492188 171.27630615234375 81.53750610351562 168.2332305908203" stroke-width="3.0" fill="none" stroke="rgb(0, 0, 0)" stroke-opacity="1.0" stroke-linecap="round" stroke-linejoin="round"/>
    <path d="M 115.59608459472656 156.84542846679688 C 39.704830169677734 180.769287109375 106.9106216430664 150.0866241455078 113.06925964355469 169.40968322753906" stroke-width="3.0" fill="none" stroke="rgb(0, 0, 0)" stroke-opacity="1.0" stroke-linecap="round" stroke-linejoin="round"/>
    <path d="M 118.79768371582031 84.1886978149414 C 109.38280487060547 104.03726196289062 153.20648193359375 109.08655548095703 118.14517974853516 81.1437759399414" stroke-width="3.0" fill="none" stroke="rgb(0, 0, 0)" stroke-opacity="1.0" stroke-linecap="round" stroke-linejoin="round"/>
    <path d="M 116.20355987548828 104.19507598876953 C 133.85153198242188 69.65699768066406 165.2003173828125 112.33199310302734 122.89330291748047 100.8238754272461" stroke-width="3.0" fill="none" stroke="rgb(0, 0, 0)" stroke-opacity="1.0" stroke-linecap="round" stroke-linejoin="round"/>
  </g>
</svg>
