<?xml version="1.0" ?>
<svg xmlns="http://www.w3.org/2000/svg" version="1.1" width="224" height="224">
  <defs/>
  <g>
    <path d="M 93.1656494140625 159.64491271972656 C 109.64451599121094 161.87582397460938 95.4740982055664 175.26832580566406 97.72805786132812 144.6765594482422" stroke-width="3.0" fill="none" stroke="rgb(0, 0, 0)" stroke-opacity="1.0" stroke-linecap="round" stroke-linejoin="round"/>
    <path d="M 99.03900909423828 163.45895385742188 C 42.4637451171875 161.134033203125 68.24851989746094 184.00875854492188 122.68971252441406 169.15798950195312" stroke-width="3.0" fill="none" stroke="rgb(0, 0, 0)" stroke-opacity="1.0" stroke-linecap="round" stroke-linejoin="round"/>
    <path d="M 127.47760009765625 176.22434997558594 C 153.82911682128906 180.3511962890625 142.33859252929688 169.86373901367188 143.6881561279297 171.87989807128906" stroke-width="3.0" fill="none" stroke="rgb(0, 0, 0)" stroke-opacity="1.0" stroke-linecap="round" stroke-linejoin="round"/>
    <path d="M 64.38387298583984 166.1290283203125 C 64.59506225585938 177.76295471191406 108.06747436523438 173.746826171875 91.76592254638672 169.61929321289062" stroke-width="3.0" fill="none" stroke="rgb(0, 0, 0)" stroke-opacity="1.0" stroke-linecap="round" stroke-linejoin="round"/>
    <path d="M 131.99681091308594 144.2736053466797 C 128.03138732910156 146.2623748779297 134.0647430419922 143.39874267578125 131.07308959960938 174.74868774414062" stroke-width="3.0" fill="none" stroke="rgb(0, 0, 0)" stroke-opacity="1.0" stroke-linecap="round" stroke-linejoin="round"/>
    <path d="M 117.07414245605469 163.8854217529297 C 119.59292602539062 161.92822265625 92.84595489501953 166.6709442138672 75.8416976928711 165.90576171875" stroke-width="3.0" fill="none" stroke="rgb(0, 0, 0)" stroke-opacity="1.0" stroke-linecap="round" stroke-linejoin="round"/>
    <path d="M 144.312744140625 166.80487060546875 C 151.93313598632812 159.02394104003906 149.9630889892578 157.81874084472656 144.39663696289062 137.35269165039062" stroke-width="3.0" fill="none" stroke="rgb(0, 0, 0)" stroke-opacity="1.0" stroke-linecap="round" stroke-linejoin="round"/>
    <path d="M 73.5777816772461 166.09884643554688 C 84.32151794433594 175.91464233398438 146.14279174804688 162.43429565429688 107.1092529296875 165.3448486328125" stroke-width="3.0" fill="none" stroke="rgb(0, 0, 0)" stroke-opacity="1.0" stroke-linecap="round" stroke-linejoin="round"/>
    <path d="M 133.12989807128906 170.11044311523438 C 143.13519287109375 184.87539672851562 115.16874694824219 172.3157958984375 129.49447631835938 176.13815307617188" stroke-width="3.0" fill="none" stroke="rgb(0, 0, 0)" stroke-opacity="1.0" stroke-linecap="round" stroke-linejoin="round"/>
    <path d="M 145.95155334472656 99.6031265258789 C 129.48223876953125 125.57501983642578 160.15646362304688 100.51266479492188 141.20445251464844 166.3920135498047" stroke-width="3.0" fill="none" stroke="rgb(0, 0, 0)" stroke-opacity="1.0" stroke-linecap="round" stroke-linejoin="round"/>
    <path d="M 109.31597900390625 166.2676544189453 C 122.46498107910156 113.8075942993164 113.02922821044922 110.78265380859375 125.4542236328125 175.35400390625" stroke-width="3.0" fill="none" stroke="rgb(0, 0, 0)" stroke-opacity="1.0" stroke-linecap="round" stroke-linejoin="round"/>
    <path d="M 64.56355285644531 164.49380493164062 C 71.96390533447266 146.16917419433594 127.94581604003906 172.53443908691406 76.71141052246094 99.10244750976562" stroke-width="3.0" fill="none" stroke="rgb(0, 0, 0)" stroke-opacity="1.0" stroke-linecap="round" stroke-linejoin="round"/>
    <path d="M 82.19889831542969 160.83082580566406 C 106.23702239990234 163.9650421142578 110.51235961914062 149.7130889892578 70.50572204589844 163.6076202392578" stroke-width="3.0" fill="none" stroke="rgb(0, 0, 0)" stroke-opacity="1.0" stroke-linecap="round" stroke-linejoin="round"/>
    <path d="M 104.1631088256836 160.1859588623047 C 82.1080551147461 160.8333740234375 96.61605834960938 158.07449340820312 119.6315689086914 163.2488555908203" stroke-width="3.0" fill="none" stroke="rgb(0, 0, 0)" stroke-opacity="1.0" stroke-linecap="round" stroke-linejoin="round"/>
    <path d="M 116.35075378417969 86.3844223022461 C 114.04356384277344 99.0465316772461 136.73789978027344 96.63968658447266 116.83633422851562 83.10893249511719" stroke-width="3.0" fill="none" stroke="rgb(0, 0, 0)" stroke-opacity="1.0" stroke-linecap="round" stroke-linejoin="round"/>
    <path d="M 129.80455017089844 92.81746673583984 C 149.798828125 82.0490493774414 131.6506805419922 105.93370056152344 132.9445343017578 93.45159149169922" stroke-width="3.0" fill="none" stroke="rgb(0, 0, 0)" stroke-opacity="1.0" stroke-linecap="round" stroke-linejoin="round"/>
  </g>
</svg>
