<?xml version="1.0" ?>
<svg xmlns="http://www.w3.org/2000/svg" version="1.1" width="224" height="224">
  <defs/>
  <g>
    <path d="M 79.04642486572266 164.32611083984375 C 120.72720336914062 160.42401123046875 86.29446411132812 191.35482788085938 102.61135864257812 142.80572509765625" stroke-width="3.0" fill="none" stroke="rgb(0, 0, 0)" stroke-opacity="1.0" stroke-linecap="round" stroke-linejoin="round"/>
    <path d="M 118.380859375 170.51473999023438 C 40.17926025390625 158.1251983642578 90.59325408935547 181.30091857910156 120.46076202392578 168.4014129638672" stroke-width="3.0" fill="none" stroke="rgb(0, 0, 0)" stroke-opacity="1.0" stroke-linecap="round" stroke-linejoin="round"/>
    <path d="M 128.03082275390625 178.50123596191406 C 151.7852325439453 184.27452087402344 140.67262268066406 173.79830932617188 140.84645080566406 169.82090759277344" stroke-width="3.0" fill="none" stroke="rgb(0, 0, 0)" stroke-opacity="1.0" stroke-linecap="round" stroke-linejoin="round"/>
    <path d="M 93.56230163574219 150.774658203125 C 19.29608154296875 174.32077026367188 123.00755310058594 189.11549377441406 120.49140167236328 167.1609344482422" stroke-width="3.0" fill="none" stroke="rgb(0, 0, 0)" stroke-opacity="1.0" stroke-linecap="round" stroke-linejoin="round"/>
    <path d="M 127.4684829711914 141.008056640625 C 133.0449981689453 151.3033905029297 128.4395751953125 151.77244567871094 129.76426696777344 177.4995880126953" stroke-width="3.0" fill="none" stroke="rgb(0, 0, 0)" stroke-opacity="1.0" stroke-linecap="round" stroke-linejoin="round"/>
    <path d="M 119.47772216796875 172.03465270996094 C 130.40472412109375 172.871337890625 93.17857360839844 180.30030822753906 79.98200225830078 177.21792602539062" stroke-width="3.0" fill="none" stroke="rgb(0, 0, 0)" stroke-opacity="1.0" stroke-linecap="round" stroke-linejoin="round"/>
    <path d="M 144.31353759765625 167.95213317871094 C 158.42373657226562 158.7196807861328 148.42176818847656 159.7180938720703 144.9901580810547 129.75930786132812" stroke-width="3.0" fill="none" stroke="rgb(0, 0, 0)" stroke-opacity="1.0" stroke-linecap="round" stroke-linejoin="round"/>
    <path d="M 80.55931091308594 167.96511840820312 C 92.95850372314453 177.7706756591797 147.4895782470703 166.93626403808594 80.75328063964844 163.5350799560547" stroke-width="3.0" fill="none" stroke="rgb(0, 0, 0)" stroke-opacity="1.0" stroke-linecap="round" stroke-linejoin="round"/>
    <path d="M 129.62818908691406 173.89906311035156 C 136.4534454345703 181.60986328125 128.5012664794922 176.068115234375 131.60989379882812 175.85565185546875" stroke-width="3.0" fill="none" stroke="rgb(0, 0, 0)" stroke-opacity="1.0" stroke-linecap="round" stroke-linejoin="round"/>
    <path d="M 149.2742462158203 81.7565689086914 C 128.87611389160156 133.4365234375 157.22317504882812 74.94629669189453 138.10072326660156 175.06544494628906" stroke-width="3.0" fill="none" stroke="rgb(0, 0, 0)" stroke-opacity="1.0" stroke-linecap="round" stroke-linejoin="round"/>
    <path d="M 111.57347106933594 170.2161102294922 C 95.50770568847656 167.75003051757812 89.62852478027344 150.93728637695312 125.1919937133789 176.0272979736328" stroke-width="3.0" fill="none" stroke="rgb(0, 0, 0)" stroke-opacity="1.0" stroke-linecap="round" stroke-linejoin="round"/>
    <path d="M 95.35376739501953 157.10023498535156 C 75.67107391357422 176.03366088867188 124.681396484375 117.83053588867188 75.97581481933594 100.64379119873047" stroke-width="3.0" fill="none" stroke="rgb(0, 0, 0)" stroke-opacity="1.0" stroke-linecap="round" stroke-linejoin="round"/>
    <path d="M 92.88972473144531 156.287109375 C 112.41230773925781 174.96075439453125 146.13461303710938 166.49656677246094 87.14167785644531 171.37937927246094" stroke-width="3.0" fill="none" stroke="rgb(0, 0, 0)" stroke-opacity="1.0" stroke-linecap="round" stroke-linejoin="round"/>
    <path d="M 108.5335464477539 166.03268432617188 C 52.5205078125 176.48434448242188 84.00823974609375 147.37353515625 110.08138275146484 169.36009216308594" stroke-width="3.0" fill="none" stroke="rgb(0, 0, 0)" stroke-opacity="1.0" stroke-linecap="round" stroke-linejoin="round"/>
    <path d="M 117.4559097290039 85.03433227539062 C 109.93656921386719 100.83218383789062 150.31385803222656 102.49809265136719 116.32305908203125 82.09306335449219" stroke-width="3.0" fill="none" stroke="rgb(0, 0, 0)" stroke-opacity="1.0" stroke-linecap="round" stroke-linejoin="round"/>
    <path d="M 117.4488296508789 100.62490844726562 C 158.26548767089844 63.27568817138672 152.0414581298828 110.88447570800781 133.5963897705078 101.16340637207031" stroke-width="3.0" fill="none" stroke="rgb(0, 0, 0)" stroke-opacity="1.0" stroke-linecap="round" stroke-linejoin="round"/>
  </g>
</svg>
