<?xml version="1.0" ?>
<svg xmlns="http://www.w3.org/2000/svg" version="1.1" width="224" height="224">
  <defs/>
  <g>
    <path d="M 81.82239532470703 162.334228515625 C 152.17742919921875 167.01611328125 99.00672912597656 179.08584594726562 115.0323715209961 127.3453598022461" stroke-width="3.0" fill="none" stroke="rgb(0, 0, 0)" stroke-opacity="1.0" stroke-linecap="round" stroke-linejoin="round"/>
    <path d="M 110.7352294921875 162.24807739257812 C 41.793792724609375 162.68116760253906 89.52032470703125 183.4618377685547 116.59848022460938 168.44102478027344" stroke-width="3.0" fill="none" stroke="rgb(0, 0, 0)" stroke-opacity="1.0" stroke-linecap="round" stroke-linejoin="round"/>
    <path d="M 121.54031372070312 177.67164611816406 C 152.05711364746094 181.80752563476562 141.56320190429688 173.9888153076172 143.5418243408203 166.1141815185547" stroke-width="3.0" fill="none" stroke="rgb(0, 0, 0)" stroke-opacity="1.0" stroke-linecap="round" stroke-linejoin="round"/>
    <path d="M 92.86456298828125 151.98619079589844 C 13.912925720214844 171.13095092773438 120.26929473876953 194.537841796875 125.8298110961914 165.87657165527344" stroke-width="3.0" fill="none" stroke="rgb(0, 0, 0)" stroke-opacity="1.0" stroke-linecap="round" stroke-linejoin="round"/>
    <path d="M 128.22869873046875 140.5365447998047 C 132.3184814453125 165.88470458984375 132.00302124023438 162.94253540039062 132.02757263183594 178.53244018554688" stroke-width="3.0" fill="none" stroke="rgb(0, 0, 0)" stroke-opacity="1.0" stroke-linecap="round" stroke-linejoin="round"/>
    <path d="M 120.7366714477539 174.00619506835938 C 124.82866668701172 170.09774780273438 110.88529205322266 182.68312072753906 82.61235046386719 177.1497344970703" stroke-width="3.0" fill="none" stroke="rgb(0, 0, 0)" stroke-opacity="1.0" stroke-linecap="round" stroke-linejoin="round"/>
    <path d="M 146.0796356201172 163.6499786376953 C 155.70108032226562 159.00741577148438 147.74270629882812 157.7404327392578 145.20155334472656 131.84893798828125" stroke-width="3.0" fill="none" stroke="rgb(0, 0, 0)" stroke-opacity="1.0" stroke-linecap="round" stroke-linejoin="round"/>
    <path d="M 77.77571868896484 167.39109802246094 C 99.02772521972656 176.19650268554688 154.23492431640625 169.07672119140625 74.05696105957031 170.32928466796875" stroke-width="3.0" fill="none" stroke="rgb(0, 0, 0)" stroke-opacity="1.0" stroke-linecap="round" stroke-linejoin="round"/>
    <path d="M 122.98352813720703 176.65817260742188 C 122.2791519165039 177.61749267578125 122.21158599853516 161.71969604492188 116.31310272216797 168.3811492919922" stroke-width="3.0" fill="none" stroke="rgb(0, 0, 0)" stroke-opacity="1.0" stroke-linecap="round" stroke-linejoin="round"/>
    <path d="M 148.22476196289062 82.20964050292969 C 119.24516296386719 136.980712890625 158.05514526367188 84.54283905029297 141.5476837158203 171.9186553955078" stroke-width="3.0" fill="none" stroke="rgb(0, 0, 0)" stroke-opacity="1.0" stroke-linecap="round" stroke-linejoin="round"/>
    <path d="M 118.71649932861328 167.82640075683594 C 100.48707580566406 171.54925537109375 102.83808898925781 149.15386962890625 117.34262084960938 169.6301727294922" stroke-width="3.0" fill="none" stroke="rgb(0, 0, 0)" stroke-opacity="1.0" stroke-linecap="round" stroke-linejoin="round"/>
    <path d="M 92.36478424072266 157.71571350097656 C 97.10623931884766 196.1150360107422 104.61212921142578 77.69099426269531 72.13736724853516 103.84196472167969" stroke-width="3.0" fill="none" stroke="rgb(0, 0, 0)" stroke-opacity="1.0" stroke-linecap="round" stroke-linejoin="round"/>
    <path d="M 85.97701263427734 161.27842712402344 C 112.49652099609375 165.23684692382812 141.84503173828125 166.2140350341797 82.17317199707031 165.8102569580078" stroke-width="3.0" fill="none" stroke="rgb(0, 0, 0)" stroke-opacity="1.0" stroke-linecap="round" stroke-linejoin="round"/>
    <path d="M 108.66935729980469 157.83909606933594 C 44.10725784301758 182.6630859375 109.25370788574219 148.4274139404297 113.45240783691406 167.3239288330078" stroke-width="3.0" fill="none" stroke="rgb(0, 0, 0)" stroke-opacity="1.0" stroke-linecap="round" stroke-linejoin="round"/>
    <path d="M 118.09554290771484 84.39673614501953 C 109.40247344970703 103.90849304199219 153.63998413085938 110.43787384033203 116.29925537109375 83.0757827758789" stroke-width="3.0" fill="none" stroke="rgb(0, 0, 0)" stroke-opacity="1.0" stroke-linecap="round" stroke-linejoin="round"/>
    <path d="M 118.20410919189453 102.0355224609375 C 140.0281219482422 67.5470962524414 161.47943115234375 110.9072494506836 123.56343841552734 103.12106323242188" stroke-width="3.0" fill="none" stroke="rgb(0, 0, 0)" stroke-opacity="1.0" stroke-linecap="round" stroke-linejoin="round"/>
  </g>
</svg>
