<?xml version="1.0" ?>
<svg xmlns="http://www.w3.org/2000/svg" version="1.1" width="224" height="224">
  <defs/>
  <g>
    <path d="M 86.85958099365234 168.73504638671875 C 99.52369689941406 177.77362060546875 90.821533203125 182.29718017578125 97.92091369628906 142.5989990234375" stroke-width="3.0" fill="none" stroke="rgb(0, 0, 0)" stroke-opacity="1.0" stroke-linecap="round" stroke-linejoin="round"/>
    <path d="M 90.87964630126953 164.77357482910156 C 93.3157730102539 170.41738891601562 88.61450958251953 183.10731506347656 121.9551773071289 166.15823364257812" stroke-width="3.0" fill="none" stroke="rgb(0, 0, 0)" stroke-opacity="1.0" stroke-linecap="round" stroke-linejoin="round"/>
    <path d="M 131.26222229003906 181.4138946533203 C 152.17967224121094 184.6114044189453 129.99392700195312 169.16468811035156 143.26638793945312 160.77566528320312" stroke-width="3.0" fill="none" stroke="rgb(0, 0, 0)" stroke-opacity="1.0" stroke-linecap="round" stroke-linejoin="round"/>
    <path d="M 68.1800537109375 168.54624938964844 C 74.46825408935547 179.18614196777344 100.01691436767578 170.9246063232422 82.80731201171875 174.9051971435547" stroke-width="3.0" fill="none" stroke="rgb(0, 0, 0)" stroke-opacity="1.0" stroke-linecap="round" stroke-linejoin="round"/>
    <path d="M 138.009033203125 141.98902893066406 C 134.62889099121094 149.8822784423828 137.16119384765625 137.41522216796875 131.83407592773438 168.50299072265625" stroke-width="3.0" fill="none" stroke="rgb(0, 0, 0)" stroke-opacity="1.0" stroke-linecap="round" stroke-linejoin="round"/>
    <path d="M 108.39691162109375 152.00306701660156 C 115.63756561279297 168.43603515625 86.38721466064453 175.79891967773438 74.46530151367188 169.553466796875" stroke-width="3.0" fill="none" stroke="rgb(0, 0, 0)" stroke-opacity="1.0" stroke-linecap="round" stroke-linejoin="round"/>
    <path d="M 146.66737365722656 162.6505889892578 C 151.2584228515625 159.58006286621094 151.75375366210938 147.14564514160156 147.80508422851562 159.8119354248047" stroke-width="3.0" fill="none" stroke="rgb(0, 0, 0)" stroke-opacity="1.0" stroke-linecap="round" stroke-linejoin="round"/>
    <path d="M 70.17465209960938 164.5672607421875 C 77.7174072265625 181.47654724121094 110.31979370117188 173.2443389892578 96.67521667480469 170.345703125" stroke-width="3.0" fill="none" stroke="rgb(0, 0, 0)" stroke-opacity="1.0" stroke-linecap="round" stroke-linejoin="round"/>
    <path d="M 132.80857849121094 163.8963165283203 C 125.9190902709961 188.13638305664062 129.36439514160156 178.33547973632812 132.9927520751953 176.88583374023438" stroke-width="3.0" fill="none" stroke="rgb(0, 0, 0)" stroke-opacity="1.0" stroke-linecap="round" stroke-linejoin="round"/>
    <path d="M 138.1444854736328 104.50159454345703 C 136.7772216796875 122.29776000976562 154.62911987304688 106.2119140625 148.13214111328125 155.21441650390625" stroke-width="3.0" fill="none" stroke="rgb(0, 0, 0)" stroke-opacity="1.0" stroke-linecap="round" stroke-linejoin="round"/>
    <path d="M 103.7642593383789 167.3979034423828 C 116.83698272705078 112.25713348388672 122.8185806274414 110.5226821899414 123.41621398925781 175.59231567382812" stroke-width="3.0" fill="none" stroke="rgb(0, 0, 0)" stroke-opacity="1.0" stroke-linecap="round" stroke-linejoin="round"/>
    <path d="M 69.05258178710938 162.97366333007812 C 85.11012268066406 142.07618713378906 123.11585998535156 167.49642944335938 75.66033935546875 100.28413391113281" stroke-width="3.0" fill="none" stroke="rgb(0, 0, 0)" stroke-opacity="1.0" stroke-linecap="round" stroke-linejoin="round"/>
    <path d="M 89.98912811279297 165.59666442871094 C 96.01656341552734 168.08396911621094 101.26437377929688 153.84854125976562 86.55281066894531 164.0596160888672" stroke-width="3.0" fill="none" stroke="rgb(0, 0, 0)" stroke-opacity="1.0" stroke-linecap="round" stroke-linejoin="round"/>
    <path d="M 88.88848114013672 163.7630615234375 C 91.32467651367188 166.28268432617188 106.45053100585938 161.89022827148438 109.40457916259766 167.92250061035156" stroke-width="3.0" fill="none" stroke="rgb(0, 0, 0)" stroke-opacity="1.0" stroke-linecap="round" stroke-linejoin="round"/>
    <path d="M 119.7801513671875 85.54973602294922 C 118.8203125 96.40699005126953 138.7244110107422 98.51569366455078 117.44541931152344 80.26323699951172" stroke-width="3.0" fill="none" stroke="rgb(0, 0, 0)" stroke-opacity="1.0" stroke-linecap="round" stroke-linejoin="round"/>
    <path d="M 136.4390106201172 94.6481704711914 C 135.32073974609375 78.03273010253906 150.74160766601562 99.26249694824219 139.23126220703125 94.43846893310547" stroke-width="3.0" fill="none" stroke="rgb(0, 0, 0)" stroke-opacity="1.0" stroke-linecap="round" stroke-linejoin="round"/>
  </g>
</svg>
