<?xml version="1.0" ?>
<svg xmlns="http://www.w3.org/2000/svg" version="1.1" width="224" height="224">
  <defs/>
  <g>
    <path d="M 81.47423553466797 172.93063354492188 C 118.3418197631836 168.54782104492188 90.65153503417969 184.59371948242188 105.20597076416016 141.90013122558594" stroke-width="3.0" fill="none" stroke="rgb(0, 0, 0)" stroke-opacity="1.0" stroke-linecap="round" stroke-linejoin="round"/>
    <path d="M 118.72537231445312 164.3074493408203 C 36.2785758972168 150.94464111328125 84.46133422851562 186.02781677246094 124.13519287109375 176.89883422851562" stroke-width="3.0" fill="none" stroke="rgb(0, 0, 0)" stroke-opacity="1.0" stroke-linecap="round" stroke-linejoin="round"/>
    <path d="M 134.22264099121094 178.50270080566406 C 149.62344360351562 177.67327880859375 135.5524444580078 170.23094177246094 140.14051818847656 174.04299926757812" stroke-width="3.0" fill="none" stroke="rgb(0, 0, 0)" stroke-opacity="1.0" stroke-linecap="round" stroke-linejoin="round"/>
    <path d="M 69.42009735107422 161.89453125 C 43.41415786743164 172.28729248046875 108.54427337646484 177.72805786132812 85.08243560791016 174.10589599609375" stroke-width="3.0" fill="none" stroke="rgb(0, 0, 0)" stroke-opacity="1.0" stroke-linecap="round" stroke-linejoin="round"/>
    <path d="M 128.87478637695312 143.86268615722656 C 131.25863647460938 161.92376708984375 131.33489990234375 150.4049530029297 132.17161560058594 176.8447265625" stroke-width="3.0" fill="none" stroke="rgb(0, 0, 0)" stroke-opacity="1.0" stroke-linecap="round" stroke-linejoin="round"/>
    <path d="M 115.48417663574219 167.62738037109375 C 109.21409606933594 167.81442260742188 100.16748809814453 173.95443725585938 85.09886932373047 172.20448303222656" stroke-width="3.0" fill="none" stroke="rgb(0, 0, 0)" stroke-opacity="1.0" stroke-linecap="round" stroke-linejoin="round"/>
    <path d="M 142.63075256347656 165.42282104492188 C 158.19725036621094 163.6139678955078 146.85511779785156 150.8092041015625 146.25193786621094 142.05776977539062" stroke-width="3.0" fill="none" stroke="rgb(0, 0, 0)" stroke-opacity="1.0" stroke-linecap="round" stroke-linejoin="round"/>
    <path d="M 69.53595733642578 167.02975463867188 C 93.31004333496094 184.6007537841797 161.83810424804688 162.3688507080078 78.45992279052734 162.86940002441406" stroke-width="3.0" fill="none" stroke="rgb(0, 0, 0)" stroke-opacity="1.0" stroke-linecap="round" stroke-linejoin="round"/>
    <path d="M 129.44781494140625 173.4123077392578 C 144.26194763183594 179.4056854248047 117.27136993408203 178.9537353515625 139.5723419189453 177.0144500732422" stroke-width="3.0" fill="none" stroke="rgb(0, 0, 0)" stroke-opacity="1.0" stroke-linecap="round" stroke-linejoin="round"/>
    <path d="M 147.4585418701172 81.58467102050781 C 123.97315979003906 137.67356872558594 158.5624237060547 81.0326156616211 141.6507568359375 169.22434997558594" stroke-width="3.0" fill="none" stroke="rgb(0, 0, 0)" stroke-opacity="1.0" stroke-linecap="round" stroke-linejoin="round"/>
    <path d="M 108.81344604492188 169.17247009277344 C 102.90262603759766 153.97457885742188 91.52909851074219 151.17137145996094 129.34832763671875 175.56617736816406" stroke-width="3.0" fill="none" stroke="rgb(0, 0, 0)" stroke-opacity="1.0" stroke-linecap="round" stroke-linejoin="round"/>
    <path d="M 71.19569396972656 156.99046325683594 C 66.78779602050781 158.88998413085938 136.6030731201172 145.156494140625 74.02274322509766 100.0046157836914" stroke-width="3.0" fill="none" stroke="rgb(0, 0, 0)" stroke-opacity="1.0" stroke-linecap="round" stroke-linejoin="round"/>
    <path d="M 75.15924072265625 163.7420654296875 C 105.26750183105469 165.21304321289062 132.68865966796875 163.5740509033203 80.14759063720703 162.69039916992188" stroke-width="3.0" fill="none" stroke="rgb(0, 0, 0)" stroke-opacity="1.0" stroke-linecap="round" stroke-linejoin="round"/>
    <path d="M 113.98165130615234 171.5406036376953 C 55.936058044433594 171.95172119140625 72.88666534423828 149.04879760742188 107.6497573852539 164.99813842773438" stroke-width="3.0" fill="none" stroke="rgb(0, 0, 0)" stroke-opacity="1.0" stroke-linecap="round" stroke-linejoin="round"/>
    <path d="M 117.33720397949219 83.32345581054688 C 112.7149429321289 109.24080657958984 149.51991271972656 105.04450988769531 116.5181655883789 81.03726959228516" stroke-width="3.0" fill="none" stroke="rgb(0, 0, 0)" stroke-opacity="1.0" stroke-linecap="round" stroke-linejoin="round"/>
    <path d="M 119.91639709472656 92.20468139648438 C 167.809326171875 73.53459167480469 133.46888732910156 106.68121337890625 135.4888153076172 94.73782348632812" stroke-width="3.0" fill="none" stroke="rgb(0, 0, 0)" stroke-opacity="1.0" stroke-linecap="round" stroke-linejoin="round"/>
  </g>
</svg>
