<?xml version="1.0" ?>
<svg xmlns="http://www.w3.org/2000/svg" version="1.1" width="224" height="224">
  <defs/>
  <g>
    <path d="M 84.72787475585938 162.36465454101562 C 153.1581268310547 168.41856384277344 100.50086975097656 178.99276733398438 114.90544891357422 123.15657806396484" stroke-width="3.0" fill="none" stroke="rgb(0, 0, 0)" stroke-opacity="1.0" stroke-linecap="round" stroke-linejoin="round"/>
    <path d="M 110.55941009521484 161.3350830078125 C 41.71257019042969 161.50173950195312 90.25882720947266 182.56031799316406 117.12271118164062 168.42044067382812" stroke-width="3.0" fill="none" stroke="rgb(0, 0, 0)" stroke-opacity="1.0" stroke-linecap="round" stroke-linejoin="round"/>
    <path d="M 124.66592407226562 177.15316772460938 C 151.0468292236328 180.7786865234375 140.5179443359375 172.0709228515625 142.82081604003906 165.57522583007812" stroke-width="3.0" fill="none" stroke="rgb(0, 0, 0)" stroke-opacity="1.0" stroke-linecap="round" stroke-linejoin="round"/>
    <path d="M 92.94737243652344 151.21580505371094 C 14.526002883911133 170.15907287597656 120.70216369628906 193.95162963867188 124.33338165283203 166.2521514892578" stroke-width="3.0" fill="none" stroke="rgb(0, 0, 0)" stroke-opacity="1.0" stroke-linecap="round" stroke-linejoin="round"/>
    <path d="M 129.226806640625 143.3287811279297 C 132.75367736816406 163.85491943359375 128.8281707763672 163.73851013183594 131.7506561279297 175.07896423339844" stroke-width="3.0" fill="none" stroke="rgb(0, 0, 0)" stroke-opacity="1.0" stroke-linecap="round" stroke-linejoin="round"/>
    <path d="M 121.09024810791016 174.4060821533203 C 126.16392517089844 170.3976287841797 110.81482696533203 181.4380645751953 81.1124496459961 177.92349243164062" stroke-width="3.0" fill="none" stroke="rgb(0, 0, 0)" stroke-opacity="1.0" stroke-linecap="round" stroke-linejoin="round"/>
    <path d="M 147.8264617919922 164.68527221679688 C 155.98020935058594 156.1401824951172 148.84632873535156 155.40316772460938 146.14573669433594 133.04922485351562" stroke-width="3.0" fill="none" stroke="rgb(0, 0, 0)" stroke-opacity="1.0" stroke-linecap="round" stroke-linejoin="round"/>
    <path d="M 76.58335876464844 167.06390380859375 C 98.6058120727539 175.91015625 153.49842834472656 167.10911560058594 77.11974334716797 169.57144165039062" stroke-width="3.0" fill="none" stroke="rgb(0, 0, 0)" stroke-opacity="1.0" stroke-linecap="round" stroke-linejoin="round"/>
    <path d="M 123.80839538574219 177.31935119628906 C 120.89839172363281 177.84922790527344 121.05879974365234 162.06539916992188 116.20049285888672 168.49530029296875" stroke-width="3.0" fill="none" stroke="rgb(0, 0, 0)" stroke-opacity="1.0" stroke-linecap="round" stroke-linejoin="round"/>
    <path d="M 147.5265350341797 82.70074462890625 C 121.61953735351562 135.0190887451172 159.10926818847656 83.56352233886719 141.25473022460938 170.1787109375" stroke-width="3.0" fill="none" stroke="rgb(0, 0, 0)" stroke-opacity="1.0" stroke-linecap="round" stroke-linejoin="round"/>
    <path d="M 118.0706558227539 168.1036834716797 C 100.10553741455078 172.38919067382812 103.59857940673828 146.48800659179688 117.60443115234375 169.3561248779297" stroke-width="3.0" fill="none" stroke="rgb(0, 0, 0)" stroke-opacity="1.0" stroke-linecap="round" stroke-linejoin="round"/>
    <path d="M 93.19914245605469 157.14947509765625 C 97.46097564697266 196.0986328125 104.44770812988281 77.80735778808594 72.23169708251953 103.92951965332031" stroke-width="3.0" fill="none" stroke="rgb(0, 0, 0)" stroke-opacity="1.0" stroke-linecap="round" stroke-linejoin="round"/>
    <path d="M 87.44454956054688 160.95928955078125 C 112.90216827392578 164.77439880371094 141.4233856201172 169.51905822753906 81.84265899658203 167.90542602539062" stroke-width="3.0" fill="none" stroke="rgb(0, 0, 0)" stroke-opacity="1.0" stroke-linecap="round" stroke-linejoin="round"/>
    <path d="M 110.43771362304688 157.5164031982422 C 44.72787094116211 183.310546875 110.94535064697266 149.7735595703125 114.17910766601562 167.7151641845703" stroke-width="3.0" fill="none" stroke="rgb(0, 0, 0)" stroke-opacity="1.0" stroke-linecap="round" stroke-linejoin="round"/>
    <path d="M 118.30113220214844 84.31536865234375 C 110.45050811767578 103.34099578857422 155.36343383789062 109.63360595703125 116.21501922607422 80.64131164550781" stroke-width="3.0" fill="none" stroke="rgb(0, 0, 0)" stroke-opacity="1.0" stroke-linecap="round" stroke-linejoin="round"/>
    <path d="M 118.67249298095703 104.9714584350586 C 138.7418212890625 69.8196792602539 162.0648193359375 112.56781768798828 123.3193130493164 101.29375457763672" stroke-width="3.0" fill="none" stroke="rgb(0, 0, 0)" stroke-opacity="1.0" stroke-linecap="round" stroke-linejoin="round"/>
  </g>
</svg>
