<?xml version="1.0" ?>
<svg xmlns="http://www.w3.org/2000/svg" version="1.1" width="224" height="224">
  <defs/>
  <g>
    <path d="M 81.32447814941406 172.75570678710938 C 119.47021484375 168.89532470703125 92.42562866210938 185.82371520996094 105.55819702148438 139.82852172851562" stroke-width="3.0" fill="none" stroke="rgb(0, 0, 0)" stroke-opacity="1.0" stroke-linecap="round" stroke-linejoin="round"/>
    <path d="M 122.33106231689453 165.83258056640625 C 34.17143630981445 151.96307373046875 81.67030334472656 185.95558166503906 124.47026824951172 173.58547973632812" stroke-width="3.0" fill="none" stroke="rgb(0, 0, 0)" stroke-opacity="1.0" stroke-linecap="round" stroke-linejoin="round"/>
    <path d="M 135.23426818847656 178.68333435058594 C 153.06298828125 177.90283203125 138.14744567871094 168.9936065673828 141.07997131347656 172.3937530517578" stroke-width="3.0" fill="none" stroke="rgb(0, 0, 0)" stroke-opacity="1.0" stroke-linecap="round" stroke-linejoin="round"/>
    <path d="M 68.65245056152344 160.90286254882812 C 43.599491119384766 174.03309631347656 107.72108459472656 181.3745574951172 85.51313018798828 174.37562561035156" stroke-width="3.0" fill="none" stroke="rgb(0, 0, 0)" stroke-opacity="1.0" stroke-linecap="round" stroke-linejoin="round"/>
    <path d="M 129.08934020996094 143.61398315429688 C 131.48170471191406 161.8589324951172 130.58218383789062 150.8622283935547 130.3745574951172 174.2622528076172" stroke-width="3.0" fill="none" stroke="rgb(0, 0, 0)" stroke-opacity="1.0" stroke-linecap="round" stroke-linejoin="round"/>
    <path d="M 115.27647399902344 167.71487426757812 C 108.74799346923828 166.82559204101562 99.3686294555664 173.40611267089844 85.9140625 173.57284545898438" stroke-width="3.0" fill="none" stroke="rgb(0, 0, 0)" stroke-opacity="1.0" stroke-linecap="round" stroke-linejoin="round"/>
    <path d="M 142.5806427001953 164.65667724609375 C 158.52462768554688 161.81556701660156 147.4375457763672 150.73760986328125 147.40383911132812 139.66757202148438" stroke-width="3.0" fill="none" stroke="rgb(0, 0, 0)" stroke-opacity="1.0" stroke-linecap="round" stroke-linejoin="round"/>
    <path d="M 74.0239486694336 163.8035888671875 C 96.60028076171875 182.51649475097656 165.3150634765625 160.86679077148438 80.4259033203125 163.0149383544922" stroke-width="3.0" fill="none" stroke="rgb(0, 0, 0)" stroke-opacity="1.0" stroke-linecap="round" stroke-linejoin="round"/>
    <path d="M 132.58934020996094 171.82113647460938 C 144.01266479492188 181.19497680664062 117.71736907958984 179.67623901367188 138.66439819335938 178.30575561523438" stroke-width="3.0" fill="none" stroke="rgb(0, 0, 0)" stroke-opacity="1.0" stroke-linecap="round" stroke-linejoin="round"/>
    <path d="M 147.6896209716797 81.8459243774414 C 128.7404022216797 136.5701904296875 157.39669799804688 79.5533676147461 141.31961059570312 168.84974670410156" stroke-width="3.0" fill="none" stroke="rgb(0, 0, 0)" stroke-opacity="1.0" stroke-linecap="round" stroke-linejoin="round"/>
    <path d="M 108.78638458251953 169.26589965820312 C 102.33507537841797 153.98074340820312 90.88066101074219 152.39393615722656 128.5159912109375 176.53237915039062" stroke-width="3.0" fill="none" stroke="rgb(0, 0, 0)" stroke-opacity="1.0" stroke-linecap="round" stroke-linejoin="round"/>
    <path d="M 71.39022827148438 157.92376708984375 C 65.56513214111328 156.81349182128906 136.7919921875 142.5167236328125 72.29071807861328 99.49067687988281" stroke-width="3.0" fill="none" stroke="rgb(0, 0, 0)" stroke-opacity="1.0" stroke-linecap="round" stroke-linejoin="round"/>
    <path d="M 74.93943786621094 165.69180297851562 C 105.05802917480469 166.0391387939453 132.5928192138672 162.28619384765625 80.25993347167969 162.4012908935547" stroke-width="3.0" fill="none" stroke="rgb(0, 0, 0)" stroke-opacity="1.0" stroke-linecap="round" stroke-linejoin="round"/>
    <path d="M 114.82046508789062 169.5605926513672 C 56.230995178222656 172.59426879882812 74.65497589111328 150.60604858398438 106.7481460571289 165.29019165039062" stroke-width="3.0" fill="none" stroke="rgb(0, 0, 0)" stroke-opacity="1.0" stroke-linecap="round" stroke-linejoin="round"/>
    <path d="M 116.92041778564453 83.61949157714844 C 111.6955795288086 107.0435791015625 150.4451904296875 103.15323638916016 116.31549072265625 80.41121673583984" stroke-width="3.0" fill="none" stroke="rgb(0, 0, 0)" stroke-opacity="1.0" stroke-linecap="round" stroke-linejoin="round"/>
    <path d="M 119.8708724975586 91.61978149414062 C 170.32522583007812 72.15705108642578 135.47694396972656 107.3332290649414 137.678955078125 95.37229919433594" stroke-width="3.0" fill="none" stroke="rgb(0, 0, 0)" stroke-opacity="1.0" stroke-linecap="round" stroke-linejoin="round"/>
  </g>
</svg>
