<?xml version="1.0" ?>
<svg xmlns="http://www.w3.org/2000/svg" version="1.1" width="224" height="224">
  <defs/>
  <g>
    <path d="M 97.71635437011719 160.09341430664062 C 105.25634765625 164.80564880371094 92.53739166259766 180.78758239746094 99.00072479248047 145.98995971679688" stroke-width="3.0" fill="none" stroke="rgb(0, 0, 0)" stroke-opacity="1.0" stroke-linecap="round" stroke-linejoin="round"/>
    <path d="M 94.69513702392578 165.8534393310547 C 55.32679748535156 157.7778778076172 73.17133331298828 187.9373779296875 121.989501953125 174.66293334960938" stroke-width="3.0" fill="none" stroke="rgb(0, 0, 0)" stroke-opacity="1.0" stroke-linecap="round" stroke-linejoin="round"/>
    <path d="M 128.46395874023438 179.22952270507812 C 152.723388671875 180.91163635253906 135.89280700683594 179.070556640625 138.62066650390625 166.21688842773438" stroke-width="3.0" fill="none" stroke="rgb(0, 0, 0)" stroke-opacity="1.0" stroke-linecap="round" stroke-linejoin="round"/>
    <path d="M 66.81942749023438 169.07760620117188 C 67.97286987304688 181.14356994628906 105.75506591796875 178.74070739746094 90.88401794433594 179.02081298828125" stroke-width="3.0" fill="none" stroke="rgb(0, 0, 0)" stroke-opacity="1.0" stroke-linecap="round" stroke-linejoin="round"/>
    <path d="M 133.01690673828125 142.13742065429688 C 128.5303955078125 154.32894897460938 131.23544311523438 139.58489990234375 131.84962463378906 168.16571044921875" stroke-width="3.0" fill="none" stroke="rgb(0, 0, 0)" stroke-opacity="1.0" stroke-linecap="round" stroke-linejoin="round"/>
    <path d="M 112.217041015625 160.9688720703125 C 116.95783996582031 168.51258850097656 93.28726196289062 171.54937744140625 76.50276184082031 166.4827117919922" stroke-width="3.0" fill="none" stroke="rgb(0, 0, 0)" stroke-opacity="1.0" stroke-linecap="round" stroke-linejoin="round"/>
    <path d="M 141.93035888671875 167.62057495117188 C 153.37591552734375 162.2456512451172 152.88494873046875 157.23756408691406 146.28573608398438 145.07864379882812" stroke-width="3.0" fill="none" stroke="rgb(0, 0, 0)" stroke-opacity="1.0" stroke-linecap="round" stroke-linejoin="round"/>
    <path d="M 73.4047622680664 169.39915466308594 C 79.2328109741211 182.19851684570312 148.0419464111328 165.97206115722656 114.08264923095703 169.14752197265625" stroke-width="3.0" fill="none" stroke="rgb(0, 0, 0)" stroke-opacity="1.0" stroke-linecap="round" stroke-linejoin="round"/>
    <path d="M 132.05966186523438 172.8728485107422 C 130.28863525390625 187.40028381347656 113.14020538330078 173.73472595214844 131.0023956298828 180.17640686035156" stroke-width="3.0" fill="none" stroke="rgb(0, 0, 0)" stroke-opacity="1.0" stroke-linecap="round" stroke-linejoin="round"/>
    <path d="M 143.0103759765625 100.43457794189453 C 132.1757049560547 122.35888671875 156.24012756347656 103.03851318359375 142.0064697265625 164.17315673828125" stroke-width="3.0" fill="none" stroke="rgb(0, 0, 0)" stroke-opacity="1.0" stroke-linecap="round" stroke-linejoin="round"/>
    <path d="M 100.06597900390625 169.15652465820312 C 115.03852844238281 105.50112915039062 118.0379867553711 104.04168701171875 122.85284423828125 177.82447814941406" stroke-width="3.0" fill="none" stroke="rgb(0, 0, 0)" stroke-opacity="1.0" stroke-linecap="round" stroke-linejoin="round"/>
    <path d="M 66.15184783935547 166.3022918701172 C 75.34343719482422 144.1134796142578 129.89981079101562 166.94850158691406 76.87278747558594 99.48113250732422" stroke-width="3.0" fill="none" stroke="rgb(0, 0, 0)" stroke-opacity="1.0" stroke-linecap="round" stroke-linejoin="round"/>
    <path d="M 85.14644622802734 163.15255737304688 C 99.07679748535156 164.54153442382812 104.64205169677734 155.58840942382812 78.04498291015625 163.6763458251953" stroke-width="3.0" fill="none" stroke="rgb(0, 0, 0)" stroke-opacity="1.0" stroke-linecap="round" stroke-linejoin="round"/>
    <path d="M 103.53015899658203 169.91384887695312 C 82.72953033447266 159.71644592285156 99.401123046875 156.7764434814453 116.42034912109375 170.92970275878906" stroke-width="3.0" fill="none" stroke="rgb(0, 0, 0)" stroke-opacity="1.0" stroke-linecap="round" stroke-linejoin="round"/>
    <path d="M 120.91961669921875 84.53656768798828 C 117.2569351196289 98.068115234375 138.44581604003906 98.23409271240234 118.77247619628906 83.30592346191406" stroke-width="3.0" fill="none" stroke="rgb(0, 0, 0)" stroke-opacity="1.0" stroke-linecap="round" stroke-linejoin="round"/>
    <path d="M 134.7786407470703 93.97384643554688 C 149.30177307128906 77.11660766601562 143.39968872070312 101.19257354736328 140.7784423828125 91.98822021484375" stroke-width="3.0" fill="none" stroke="rgb(0, 0, 0)" stroke-opacity="1.0" stroke-linecap="round" stroke-linejoin="round"/>
  </g>
</svg>
