<?xml version="1.0" ?>
<svg xmlns="http://www.w3.org/2000/svg" version="1.1" width="224" height="224">
  <defs/>
  <g>
    <path d="M 83.97957611083984 170.1016082763672 C 126.78494262695312 170.68849182128906 89.67971801757812 182.61077880859375 103.52239990234375 135.73927307128906" stroke-width="3.0" fill="none" stroke="rgb(0, 0, 0)" stroke-opacity="1.0" stroke-linecap="round" stroke-linejoin="round"/>
    <path d="M 115.614013671875 173.05902099609375 C 35.62510299682617 152.1815643310547 84.81372833251953 183.69540405273438 120.97281646728516 169.89466857910156" stroke-width="3.0" fill="none" stroke="rgb(0, 0, 0)" stroke-opacity="1.0" stroke-linecap="round" stroke-linejoin="round"/>
    <path d="M 123.77747344970703 176.20864868164062 C 156.40122985839844 180.8064422607422 139.4425048828125 168.8538055419922 142.00772094726562 168.753173828125" stroke-width="3.0" fill="none" stroke="rgb(0, 0, 0)" stroke-opacity="1.0" stroke-linecap="round" stroke-linejoin="round"/>
    <path d="M 72.6071548461914 157.14126586914062 C 34.73390197753906 177.36795043945312 128.71376037597656 185.4659423828125 106.6174087524414 170.19711303710938" stroke-width="3.0" fill="none" stroke="rgb(0, 0, 0)" stroke-opacity="1.0" stroke-linecap="round" stroke-linejoin="round"/>
    <path d="M 128.19874572753906 139.84913635253906 C 130.24111938476562 155.34976196289062 128.82183837890625 151.6597137451172 128.20648193359375 175.98069763183594" stroke-width="3.0" fill="none" stroke="rgb(0, 0, 0)" stroke-opacity="1.0" stroke-linecap="round" stroke-linejoin="round"/>
    <path d="M 120.54204559326172 171.35772705078125 C 116.463134765625 177.34378051757812 96.40399169921875 178.5148162841797 92.81378173828125 176.94361877441406" stroke-width="3.0" fill="none" stroke="rgb(0, 0, 0)" stroke-opacity="1.0" stroke-linecap="round" stroke-linejoin="round"/>
    <path d="M 144.0310516357422 164.43234252929688 C 157.52593994140625 159.07623291015625 145.95574951171875 151.89378356933594 146.48756408691406 136.05703735351562" stroke-width="3.0" fill="none" stroke="rgb(0, 0, 0)" stroke-opacity="1.0" stroke-linecap="round" stroke-linejoin="round"/>
    <path d="M 76.39168548583984 164.8092041015625 C 97.9190902709961 178.11537170410156 159.08206176757812 156.0399627685547 79.06966400146484 164.35011291503906" stroke-width="3.0" fill="none" stroke="rgb(0, 0, 0)" stroke-opacity="1.0" stroke-linecap="round" stroke-linejoin="round"/>
    <path d="M 129.1973114013672 165.82630920410156 C 140.60972595214844 178.70042419433594 118.5438003540039 173.4100341796875 139.23780822753906 175.69189453125" stroke-width="3.0" fill="none" stroke="rgb(0, 0, 0)" stroke-opacity="1.0" stroke-linecap="round" stroke-linejoin="round"/>
    <path d="M 151.75086975097656 84.14321899414062 C 129.78155517578125 140.32852172851562 157.75384521484375 79.48040008544922 141.6608123779297 167.8303680419922" stroke-width="3.0" fill="none" stroke="rgb(0, 0, 0)" stroke-opacity="1.0" stroke-linecap="round" stroke-linejoin="round"/>
    <path d="M 113.49507904052734 164.9619903564453 C 102.98321533203125 150.08172607421875 90.21115112304688 150.04542541503906 124.83773803710938 175.4095458984375" stroke-width="3.0" fill="none" stroke="rgb(0, 0, 0)" stroke-opacity="1.0" stroke-linecap="round" stroke-linejoin="round"/>
    <path d="M 74.63861846923828 155.5095672607422 C 66.56258392333984 162.17181396484375 136.02487182617188 137.4063262939453 74.7309341430664 103.88850402832031" stroke-width="3.0" fill="none" stroke="rgb(0, 0, 0)" stroke-opacity="1.0" stroke-linecap="round" stroke-linejoin="round"/>
    <path d="M 85.63137817382812 161.435791015625 C 113.22189331054688 172.0964813232422 144.4873046875 155.19557189941406 85.4559555053711 161.42626953125" stroke-width="3.0" fill="none" stroke="rgb(0, 0, 0)" stroke-opacity="1.0" stroke-linecap="round" stroke-linejoin="round"/>
    <path d="M 110.4960708618164 165.6357879638672 C 50.7247200012207 176.63424682617188 77.4881591796875 154.5784149169922 114.48123931884766 160.81265258789062" stroke-width="3.0" fill="none" stroke="rgb(0, 0, 0)" stroke-opacity="1.0" stroke-linecap="round" stroke-linejoin="round"/>
    <path d="M 118.0906753540039 82.89419555664062 C 110.54363250732422 99.84530639648438 158.53402709960938 107.749267578125 116.81364440917969 80.04281616210938" stroke-width="3.0" fill="none" stroke="rgb(0, 0, 0)" stroke-opacity="1.0" stroke-linecap="round" stroke-linejoin="round"/>
    <path d="M 118.7491226196289 98.45516204833984 C 173.92247009277344 67.88973999023438 139.20225524902344 111.30960083007812 140.6594696044922 97.96607208251953" stroke-width="3.0" fill="none" stroke="rgb(0, 0, 0)" stroke-opacity="1.0" stroke-linecap="round" stroke-linejoin="round"/>
  </g>
</svg>
