<?xml version="1.0" ?>
<svg xmlns="http://www.w3.org/2000/svg" version="1.1" width="224" height="224">
  <defs/>
  <g>
    <path d="M 97.36597442626953 160.47193908691406 C 102.50969696044922 166.0404510498047 89.09349060058594 184.2300262451172 98.44547271728516 145.28988647460938" stroke-width="3.0" fill="none" stroke="rgb(0, 0, 0)" stroke-opacity="1.0" stroke-linecap="round" stroke-linejoin="round"/>
    <path d="M 94.99202728271484 168.93775939941406 C 62.492923736572266 163.06210327148438 72.74784851074219 187.5203857421875 121.94982147216797 172.58343505859375" stroke-width="3.0" fill="none" stroke="rgb(0, 0, 0)" stroke-opacity="1.0" stroke-linecap="round" stroke-linejoin="round"/>
    <path d="M 127.46015930175781 181.92398071289062 C 157.25738525390625 175.68856811523438 134.68698120117188 178.50350952148438 136.6807098388672 161.71340942382812" stroke-width="3.0" fill="none" stroke="rgb(0, 0, 0)" stroke-opacity="1.0" stroke-linecap="round" stroke-linejoin="round"/>
    <path d="M 67.13654327392578 166.7041473388672 C 71.1069564819336 180.4928741455078 104.40055084228516 177.1974334716797 90.56134033203125 176.72071838378906" stroke-width="3.0" fill="none" stroke="rgb(0, 0, 0)" stroke-opacity="1.0" stroke-linecap="round" stroke-linejoin="round"/>
    <path d="M 134.74803161621094 141.03379821777344 C 128.6046142578125 149.90980529785156 133.47796630859375 139.23681640625 131.73126220703125 169.63180541992188" stroke-width="3.0" fill="none" stroke="rgb(0, 0, 0)" stroke-opacity="1.0" stroke-linecap="round" stroke-linejoin="round"/>
    <path d="M 108.5433578491211 158.62232971191406 C 113.39778137207031 171.27413940429688 93.84345245361328 174.20994567871094 72.47662353515625 166.4916229248047" stroke-width="3.0" fill="none" stroke="rgb(0, 0, 0)" stroke-opacity="1.0" stroke-linecap="round" stroke-linejoin="round"/>
    <path d="M 143.5182647705078 169.23989868164062 C 150.15379333496094 167.47824096679688 145.6082000732422 162.55447387695312 145.11167907714844 157.97555541992188" stroke-width="3.0" fill="none" stroke="rgb(0, 0, 0)" stroke-opacity="1.0" stroke-linecap="round" stroke-linejoin="round"/>
    <path d="M 73.08723449707031 167.44052124023438 C 81.4351806640625 185.21995544433594 150.7113494873047 170.06849670410156 114.07476043701172 168.7830352783203" stroke-width="3.0" fill="none" stroke="rgb(0, 0, 0)" stroke-opacity="1.0" stroke-linecap="round" stroke-linejoin="round"/>
    <path d="M 129.1460723876953 170.9753875732422 C 129.04510498046875 191.36166381835938 118.4133071899414 173.4506072998047 131.3313751220703 179.9562225341797" stroke-width="3.0" fill="none" stroke="rgb(0, 0, 0)" stroke-opacity="1.0" stroke-linecap="round" stroke-linejoin="round"/>
    <path d="M 146.83822631835938 105.76849365234375 C 133.11302185058594 123.57044982910156 158.2242431640625 101.0394287109375 143.11953735351562 161.39549255371094" stroke-width="3.0" fill="none" stroke="rgb(0, 0, 0)" stroke-opacity="1.0" stroke-linecap="round" stroke-linejoin="round"/>
    <path d="M 105.73176574707031 168.30543518066406 C 121.20183563232422 112.18212127685547 121.06912994384766 109.48189544677734 123.23603820800781 178.31405639648438" stroke-width="3.0" fill="none" stroke="rgb(0, 0, 0)" stroke-opacity="1.0" stroke-linecap="round" stroke-linejoin="round"/>
    <path d="M 67.69518280029297 167.10191345214844 C 75.18846130371094 142.4115447998047 128.14540100097656 168.85147094726562 78.77735137939453 98.64925384521484" stroke-width="3.0" fill="none" stroke="rgb(0, 0, 0)" stroke-opacity="1.0" stroke-linecap="round" stroke-linejoin="round"/>
    <path d="M 81.62266540527344 167.65768432617188 C 102.03954315185547 170.19131469726562 106.92656707763672 154.5818328857422 82.55986785888672 164.9449920654297" stroke-width="3.0" fill="none" stroke="rgb(0, 0, 0)" stroke-opacity="1.0" stroke-linecap="round" stroke-linejoin="round"/>
    <path d="M 97.89894104003906 165.74942016601562 C 85.74819946289062 159.5712127685547 103.98534393310547 154.41488647460938 116.6992416381836 169.23619079589844" stroke-width="3.0" fill="none" stroke="rgb(0, 0, 0)" stroke-opacity="1.0" stroke-linecap="round" stroke-linejoin="round"/>
    <path d="M 120.26555633544922 84.70986938476562 C 116.69271850585938 98.27198028564453 141.34274291992188 96.97293853759766 117.68124389648438 80.64993286132812" stroke-width="3.0" fill="none" stroke="rgb(0, 0, 0)" stroke-opacity="1.0" stroke-linecap="round" stroke-linejoin="round"/>
    <path d="M 134.49899291992188 95.4833984375 C 148.73480224609375 79.12176513671875 145.73910522460938 101.8433837890625 139.1004180908203 91.16499328613281" stroke-width="3.0" fill="none" stroke="rgb(0, 0, 0)" stroke-opacity="1.0" stroke-linecap="round" stroke-linejoin="round"/>
  </g>
</svg>
