<?xml version="1.0" ?>
<svg xmlns="http://www.w3.org/2000/svg" version="1.1" width="224" height="224">
  <defs/>
  <g>
    <path d="M 81.03314208984375 162.4126434326172 C 149.48526000976562 166.59210205078125 105.62652587890625 178.47174072265625 117.68029022216797 139.4691162109375" stroke-width="3.0" fill="none" stroke="rgb(0, 0, 0)" stroke-opacity="1.0" stroke-linecap="round" stroke-linejoin="round"/>
    <path d="M 109.84222412109375 165.2392120361328 C 43.8586540222168 160.51254272460938 93.64251708984375 181.24217224121094 121.2990951538086 170.63365173339844" stroke-width="3.0" fill="none" stroke="rgb(0, 0, 0)" stroke-opacity="1.0" stroke-linecap="round" stroke-linejoin="round"/>
    <path d="M 124.80742645263672 178.97821044921875 C 153.0277099609375 183.1851043701172 141.10989379882812 171.54026794433594 141.7127685546875 167.83419799804688" stroke-width="3.0" fill="none" stroke="rgb(0, 0, 0)" stroke-opacity="1.0" stroke-linecap="round" stroke-linejoin="round"/>
    <path d="M 96.76222229003906 149.04660034179688 C 13.182100296020508 172.19520568847656 116.51222229003906 193.0023956298828 123.58338928222656 167.1003875732422" stroke-width="3.0" fill="none" stroke="rgb(0, 0, 0)" stroke-opacity="1.0" stroke-linecap="round" stroke-linejoin="round"/>
    <path d="M 128.7637481689453 143.5074462890625 C 134.04273986816406 166.67141723632812 130.59298706054688 160.1510009765625 133.3949737548828 178.97015380859375" stroke-width="3.0" fill="none" stroke="rgb(0, 0, 0)" stroke-opacity="1.0" stroke-linecap="round" stroke-linejoin="round"/>
    <path d="M 121.22209930419922 173.96360778808594 C 126.06954956054688 173.1744842529297 102.2950210571289 182.80397033691406 84.71949005126953 179.4734344482422" stroke-width="3.0" fill="none" stroke="rgb(0, 0, 0)" stroke-opacity="1.0" stroke-linecap="round" stroke-linejoin="round"/>
    <path d="M 143.6941375732422 164.56109619140625 C 155.7033233642578 160.18809509277344 148.8428192138672 156.36326599121094 146.9034881591797 133.7150421142578" stroke-width="3.0" fill="none" stroke="rgb(0, 0, 0)" stroke-opacity="1.0" stroke-linecap="round" stroke-linejoin="round"/>
    <path d="M 75.81340026855469 167.71607971191406 C 93.54047393798828 176.74563598632812 147.40457153320312 165.89503479003906 72.58191680908203 169.41026306152344" stroke-width="3.0" fill="none" stroke="rgb(0, 0, 0)" stroke-opacity="1.0" stroke-linecap="round" stroke-linejoin="round"/>
    <path d="M 122.56082153320312 178.5969696044922 C 119.13566589355469 180.8476104736328 121.19568634033203 161.3827667236328 123.36915588378906 168.92735290527344" stroke-width="3.0" fill="none" stroke="rgb(0, 0, 0)" stroke-opacity="1.0" stroke-linecap="round" stroke-linejoin="round"/>
    <path d="M 149.63058471679688 81.03496551513672 C 123.55126190185547 135.1927032470703 161.694580078125 78.53620147705078 139.74929809570312 175.5018310546875" stroke-width="3.0" fill="none" stroke="rgb(0, 0, 0)" stroke-opacity="1.0" stroke-linecap="round" stroke-linejoin="round"/>
    <path d="M 112.68907165527344 160.92840576171875 C 95.91691589355469 175.15138244628906 98.15338134765625 148.11572265625 117.88106536865234 168.48109436035156" stroke-width="3.0" fill="none" stroke="rgb(0, 0, 0)" stroke-opacity="1.0" stroke-linecap="round" stroke-linejoin="round"/>
    <path d="M 93.81990051269531 151.0841827392578 C 98.50544738769531 195.35302734375 106.59215545654297 79.24727630615234 71.75173950195312 103.39129638671875" stroke-width="3.0" fill="none" stroke="rgb(0, 0, 0)" stroke-opacity="1.0" stroke-linecap="round" stroke-linejoin="round"/>
    <path d="M 93.15972137451172 158.65122985839844 C 117.91032409667969 169.2816925048828 148.20364379882812 171.80836486816406 83.94915008544922 164.7810516357422" stroke-width="3.0" fill="none" stroke="rgb(0, 0, 0)" stroke-opacity="1.0" stroke-linecap="round" stroke-linejoin="round"/>
    <path d="M 112.4232177734375 158.1741180419922 C 46.81650161743164 179.2154541015625 99.39656829833984 143.3985595703125 107.5130386352539 167.76487731933594" stroke-width="3.0" fill="none" stroke="rgb(0, 0, 0)" stroke-opacity="1.0" stroke-linecap="round" stroke-linejoin="round"/>
    <path d="M 118.31507873535156 79.93338012695312 C 111.38253021240234 97.16028594970703 160.76608276367188 101.7868423461914 116.00406646728516 79.62809753417969" stroke-width="3.0" fill="none" stroke="rgb(0, 0, 0)" stroke-opacity="1.0" stroke-linecap="round" stroke-linejoin="round"/>
    <path d="M 120.37639617919922 96.33111572265625 C 148.64559936523438 69.6718978881836 166.22122192382812 108.34403228759766 121.63345336914062 101.0949935913086" stroke-width="3.0" fill="none" stroke="rgb(0, 0, 0)" stroke-opacity="1.0" stroke-linecap="round" stroke-linejoin="round"/>
  </g>
</svg>
