<?xml version="1.0" ?>
<svg xmlns="http://www.w3.org/2000/svg" version="1.1" width="224" height="224">
  <defs/>
  <g>
    <path d="M 86.28888702392578 165.14590454101562 C 94.44239044189453 167.1016387939453 91.1517333984375 164.30587768554688 88.86428833007812 156.1013641357422" stroke-width="3.0" fill="none" stroke="rgb(0, 0, 0)" stroke-opacity="1.0" stroke-linecap="round" stroke-linejoin="round"/>
    <path d="M 97.87153625488281 171.7008056640625 C 97.27751922607422 166.6183624267578 95.37480163574219 167.48313903808594 108.02720642089844 174.6665496826172" stroke-width="3.0" fill="none" stroke="rgb(0, 0, 0)" stroke-opacity="1.0" stroke-linecap="round" stroke-linejoin="round"/>
    <path d="M 139.90504455566406 168.54676818847656 C 142.72543334960938 161.9496612548828 145.2217254638672 160.2965087890625 142.7384490966797 157.7314453125" stroke-width="3.0" fill="none" stroke="rgb(0, 0, 0)" stroke-opacity="1.0" stroke-linecap="round" stroke-linejoin="round"/>
    <path d="M 71.83332061767578 167.8843994140625 C 76.52107238769531 172.5647735595703 83.1079330444336 166.13331604003906 82.95020294189453 172.77777099609375" stroke-width="3.0" fill="none" stroke="rgb(0, 0, 0)" stroke-opacity="1.0" stroke-linecap="round" stroke-linejoin="round"/>
    <path d="M 138.6913299560547 148.44894409179688 C 136.8748016357422 144.89395141601562 143.1077880859375 135.00514221191406 134.82737731933594 161.14349365234375" stroke-width="3.0" fill="none" stroke="rgb(0, 0, 0)" stroke-opacity="1.0" stroke-linecap="round" stroke-linejoin="round"/>
    <path d="M 100.09239959716797 166.2888641357422 C 101.11573028564453 175.70896911621094 94.10462951660156 177.1241455078125 80.42549896240234 167.52462768554688" stroke-width="3.0" fill="none" stroke="rgb(0, 0, 0)" stroke-opacity="1.0" stroke-linecap="round" stroke-linejoin="round"/>
    <path d="M 144.18028259277344 145.39845275878906 C 142.88612365722656 143.9320526123047 144.05532836914062 134.7721405029297 145.60169982910156 159.7860870361328" stroke-width="3.0" fill="none" stroke="rgb(0, 0, 0)" stroke-opacity="1.0" stroke-linecap="round" stroke-linejoin="round"/>
    <path d="M 75.01336669921875 165.4408416748047 C 92.39192962646484 167.0339813232422 92.96443939208984 176.0384521484375 88.50856018066406 166.30535888671875" stroke-width="3.0" fill="none" stroke="rgb(0, 0, 0)" stroke-opacity="1.0" stroke-linecap="round" stroke-linejoin="round"/>
    <path d="M 135.9515838623047 160.88743591308594 C 123.56967163085938 187.20376586914062 126.62393188476562 177.6979217529297 130.1416778564453 179.50689697265625" stroke-width="3.0" fill="none" stroke="rgb(0, 0, 0)" stroke-opacity="1.0" stroke-linecap="round" stroke-linejoin="round"/>
    <path d="M 147.9478759765625 132.34657287597656 C 143.13511657714844 144.19720458984375 142.54791259765625 138.87777709960938 145.15728759765625 147.3608856201172" stroke-width="3.0" fill="none" stroke="rgb(0, 0, 0)" stroke-opacity="1.0" stroke-linecap="round" stroke-linejoin="round"/>
    <path d="M 95.22305297851562 165.53070068359375 C 111.8408203125 155.31651306152344 123.14447784423828 153.47003173828125 119.57734680175781 174.98057556152344" stroke-width="3.0" fill="none" stroke="rgb(0, 0, 0)" stroke-opacity="1.0" stroke-linecap="round" stroke-linejoin="round"/>
    <path d="M 78.12129211425781 160.60690307617188 C 84.64289093017578 156.93185424804688 87.2603988647461 147.34677124023438 90.3782730102539 132.89048767089844" stroke-width="3.0" fill="none" stroke="rgb(0, 0, 0)" stroke-opacity="1.0" stroke-linecap="round" stroke-linejoin="round"/>
    <path d="M 90.50825500488281 161.10015869140625 C 93.99784851074219 161.73757934570312 97.92449951171875 162.92483520507812 91.94318389892578 160.1225128173828" stroke-width="3.0" fill="none" stroke="rgb(0, 0, 0)" stroke-opacity="1.0" stroke-linecap="round" stroke-linejoin="round"/>
    <path d="M 95.6639633178711 165.7258758544922 C 95.10226440429688 173.57464599609375 94.08476257324219 172.1113739013672 102.27392578125 174.7460479736328" stroke-width="3.0" fill="none" stroke="rgb(0, 0, 0)" stroke-opacity="1.0" stroke-linecap="round" stroke-linejoin="round"/>
    <path d="M 113.51309204101562 79.0433120727539 C 120.24441528320312 83.57073974609375 126.0137939453125 91.25572967529297 119.1142578125 86.56685638427734" stroke-width="3.0" fill="none" stroke="rgb(0, 0, 0)" stroke-opacity="1.0" stroke-linecap="round" stroke-linejoin="round"/>
    <path d="M 139.381103515625 90.82791137695312 C 145.14434814453125 79.76749420166016 150.38143920898438 81.57549285888672 143.74365234375 91.96054077148438" stroke-width="3.0" fill="none" stroke="rgb(0, 0, 0)" stroke-opacity="1.0" stroke-linecap="round" stroke-linejoin="round"/>
  </g>
</svg>
