<?xml version="1.0" ?>
<svg xmlns="http://www.w3.org/2000/svg" version="1.1" width="224" height="224">
  <defs/>
  <g>
    <path d="M 77.35171508789062 166.030517578125 C 112.0757827758789 152.45472717285156 93.33927154541016 180.27365112304688 99.71980285644531 143.29037475585938" stroke-width="3.0" fill="none" stroke="rgb(0, 0, 0)" stroke-opacity="1.0" stroke-linecap="round" stroke-linejoin="round"/>
    <path d="M 105.27840423583984 165.13377380371094 C 36.130897521972656 152.29209899902344 78.4740982055664 189.59181213378906 123.42713928222656 172.27618408203125" stroke-width="3.0" fill="none" stroke="rgb(0, 0, 0)" stroke-opacity="1.0" stroke-linecap="round" stroke-linejoin="round"/>
    <path d="M 130.7681121826172 176.50604248046875 C 154.10545349121094 177.37379455566406 141.1722869873047 168.2537841796875 143.32611083984375 172.00592041015625" stroke-width="3.0" fill="none" stroke="rgb(0, 0, 0)" stroke-opacity="1.0" stroke-linecap="round" stroke-linejoin="round"/>
    <path d="M 62.657596588134766 166.03555297851562 C 62.44493103027344 178.61814880371094 110.00643920898438 176.4025115966797 87.17301177978516 176.69790649414062" stroke-width="3.0" fill="none" stroke="rgb(0, 0, 0)" stroke-opacity="1.0" stroke-linecap="round" stroke-linejoin="round"/>
    <path d="M 129.5252227783203 144.2617950439453 C 129.919189453125 149.03221130371094 132.1225128173828 146.8406982421875 130.6744842529297 175.042724609375" stroke-width="3.0" fill="none" stroke="rgb(0, 0, 0)" stroke-opacity="1.0" stroke-linecap="round" stroke-linejoin="round"/>
    <path d="M 119.22929382324219 166.5297088623047 C 120.84822082519531 163.2432403564453 95.86883544921875 169.56109619140625 83.42373657226562 167.0410919189453" stroke-width="3.0" fill="none" stroke="rgb(0, 0, 0)" stroke-opacity="1.0" stroke-linecap="round" stroke-linejoin="round"/>
    <path d="M 145.71588134765625 162.3386688232422 C 153.650390625 158.03688049316406 151.45175170898438 159.6214141845703 145.30982971191406 138.85426330566406" stroke-width="3.0" fill="none" stroke="rgb(0, 0, 0)" stroke-opacity="1.0" stroke-linecap="round" stroke-linejoin="round"/>
    <path d="M 71.14169311523438 165.0542755126953 C 94.88776397705078 175.95870971679688 151.75732421875 165.34471130371094 97.2148666381836 156.94520568847656" stroke-width="3.0" fill="none" stroke="rgb(0, 0, 0)" stroke-opacity="1.0" stroke-linecap="round" stroke-linejoin="round"/>
    <path d="M 134.45896911621094 173.21609497070312 C 143.25880432128906 184.73545837402344 110.38587188720703 176.1017608642578 129.50320434570312 177.03082275390625" stroke-width="3.0" fill="none" stroke="rgb(0, 0, 0)" stroke-opacity="1.0" stroke-linecap="round" stroke-linejoin="round"/>
    <path d="M 144.95596313476562 103.78760528564453 C 131.80308532714844 128.93081665039062 155.8031005859375 92.146484375 141.79640197753906 169.14990234375" stroke-width="3.0" fill="none" stroke="rgb(0, 0, 0)" stroke-opacity="1.0" stroke-linecap="round" stroke-linejoin="round"/>
    <path d="M 109.2216796875 166.88616943359375 C 115.76482391357422 122.67894744873047 109.29434204101562 120.46573638916016 121.56594848632812 173.83250427246094" stroke-width="3.0" fill="none" stroke="rgb(0, 0, 0)" stroke-opacity="1.0" stroke-linecap="round" stroke-linejoin="round"/>
    <path d="M 62.402320861816406 166.053466796875 C 70.63006591796875 144.45799255371094 129.88787841796875 168.29270935058594 78.49302673339844 99.13785552978516" stroke-width="3.0" fill="none" stroke="rgb(0, 0, 0)" stroke-opacity="1.0" stroke-linecap="round" stroke-linejoin="round"/>
    <path d="M 73.40191650390625 165.9019317626953 C 102.22372436523438 150.110107421875 113.35443115234375 153.20162963867188 80.3209228515625 166.43081665039062" stroke-width="3.0" fill="none" stroke="rgb(0, 0, 0)" stroke-opacity="1.0" stroke-linecap="round" stroke-linejoin="round"/>
    <path d="M 118.7361831665039 162.9701385498047 C 74.23365020751953 160.54554748535156 85.22417449951172 157.39901733398438 112.50452423095703 153.56024169921875" stroke-width="3.0" fill="none" stroke="rgb(0, 0, 0)" stroke-opacity="1.0" stroke-linecap="round" stroke-linejoin="round"/>
    <path d="M 121.32357788085938 85.71806335449219 C 117.18358612060547 104.38729095458984 142.89569091796875 100.4011001586914 118.7021255493164 84.19957733154297" stroke-width="3.0" fill="none" stroke="rgb(0, 0, 0)" stroke-opacity="1.0" stroke-linecap="round" stroke-linejoin="round"/>
    <path d="M 131.79736328125 96.57813262939453 C 153.59197998046875 83.98393249511719 132.79844665527344 108.57598876953125 136.22901916503906 97.39907836914062" stroke-width="3.0" fill="none" stroke="rgb(0, 0, 0)" stroke-opacity="1.0" stroke-linecap="round" stroke-linejoin="round"/>
  </g>
</svg>
