<?xml version="1.0" ?>
<svg xmlns="http://www.w3.org/2000/svg" version="1.1" width="224" height="224">
  <defs/>
  <g>
    <path d="M 76.08018493652344 165.00392150878906 C 111.00827026367188 159.39906311035156 93.87399291992188 191.16262817382812 96.3984375 143.46156311035156" stroke-width="3.0" fill="none" stroke="rgb(0, 0, 0)" stroke-opacity="1.0" stroke-linecap="round" stroke-linejoin="round"/>
    <path d="M 119.13839721679688 162.39060974121094 C 34.23222732543945 151.545166015625 77.54005432128906 189.26426696777344 127.44738006591797 170.12953186035156" stroke-width="3.0" fill="none" stroke="rgb(0, 0, 0)" stroke-opacity="1.0" stroke-linecap="round" stroke-linejoin="round"/>
    <path d="M 130.8734588623047 176.98052978515625 C 154.75820922851562 181.5752410888672 140.22445678710938 168.98753356933594 141.4397735595703 168.60244750976562" stroke-width="3.0" fill="none" stroke="rgb(0, 0, 0)" stroke-opacity="1.0" stroke-linecap="round" stroke-linejoin="round"/>
    <path d="M 61.53752136230469 167.45176696777344 C 64.74552917480469 180.08743286132812 109.58914947509766 176.4173126220703 85.68661499023438 176.00767517089844" stroke-width="3.0" fill="none" stroke="rgb(0, 0, 0)" stroke-opacity="1.0" stroke-linecap="round" stroke-linejoin="round"/>
    <path d="M 128.98130798339844 142.60995483398438 C 126.426025390625 149.6553497314453 135.8561248779297 142.1513214111328 128.33944702148438 175.53195190429688" stroke-width="3.0" fill="none" stroke="rgb(0, 0, 0)" stroke-opacity="1.0" stroke-linecap="round" stroke-linejoin="round"/>
    <path d="M 120.83329010009766 165.4222412109375 C 119.46187591552734 158.95445251464844 97.32730865478516 168.12547302246094 76.41667938232422 167.03158569335938" stroke-width="3.0" fill="none" stroke="rgb(0, 0, 0)" stroke-opacity="1.0" stroke-linecap="round" stroke-linejoin="round"/>
    <path d="M 144.00714111328125 164.08473205566406 C 156.52293395996094 155.72763061523438 149.6767578125 159.12591552734375 145.27426147460938 132.8013458251953" stroke-width="3.0" fill="none" stroke="rgb(0, 0, 0)" stroke-opacity="1.0" stroke-linecap="round" stroke-linejoin="round"/>
    <path d="M 74.70596313476562 167.0123291015625 C 89.43280792236328 178.2747039794922 150.30474853515625 162.4435272216797 91.148193359375 164.9712371826172" stroke-width="3.0" fill="none" stroke="rgb(0, 0, 0)" stroke-opacity="1.0" stroke-linecap="round" stroke-linejoin="round"/>
    <path d="M 134.63063049316406 173.96600341796875 C 145.77951049804688 182.12643432617188 111.78270721435547 174.23963928222656 130.2859649658203 175.94369506835938" stroke-width="3.0" fill="none" stroke="rgb(0, 0, 0)" stroke-opacity="1.0" stroke-linecap="round" stroke-linejoin="round"/>
    <path d="M 146.7677764892578 102.68513488769531 C 132.1361083984375 122.30096435546875 155.9939422607422 94.15753936767578 141.37025451660156 171.26351928710938" stroke-width="3.0" fill="none" stroke="rgb(0, 0, 0)" stroke-opacity="1.0" stroke-linecap="round" stroke-linejoin="round"/>
    <path d="M 111.4348373413086 169.45753479003906 C 119.5758056640625 130.3357391357422 111.52983856201172 127.27995300292969 123.11947631835938 175.59666442871094" stroke-width="3.0" fill="none" stroke="rgb(0, 0, 0)" stroke-opacity="1.0" stroke-linecap="round" stroke-linejoin="round"/>
    <path d="M 61.80842208862305 165.0409698486328 C 68.57782745361328 144.1182098388672 126.16172790527344 165.43499755859375 76.69767761230469 101.05892181396484" stroke-width="3.0" fill="none" stroke="rgb(0, 0, 0)" stroke-opacity="1.0" stroke-linecap="round" stroke-linejoin="round"/>
    <path d="M 75.76535034179688 166.35888671875 C 96.6883316040039 157.7365264892578 110.56916046142578 166.99533081054688 84.24138641357422 169.9257354736328" stroke-width="3.0" fill="none" stroke="rgb(0, 0, 0)" stroke-opacity="1.0" stroke-linecap="round" stroke-linejoin="round"/>
    <path d="M 118.08607482910156 167.9882354736328 C 69.80909729003906 166.16981506347656 82.17151641845703 155.4551239013672 106.48511505126953 155.52650451660156" stroke-width="3.0" fill="none" stroke="rgb(0, 0, 0)" stroke-opacity="1.0" stroke-linecap="round" stroke-linejoin="round"/>
    <path d="M 117.19910430908203 95.13385772705078 C 107.68756103515625 103.46281433105469 141.7747344970703 100.56193542480469 115.19094848632812 93.6246109008789" stroke-width="3.0" fill="none" stroke="rgb(0, 0, 0)" stroke-opacity="1.0" stroke-linecap="round" stroke-linejoin="round"/>
    <path d="M 133.4633026123047 96.1964340209961 C 154.85745239257812 83.90885925292969 134.67764282226562 107.63470458984375 136.3775177001953 97.1291275024414" stroke-width="3.0" fill="none" stroke="rgb(0, 0, 0)" stroke-opacity="1.0" stroke-linecap="round" stroke-linejoin="round"/>
  </g>
</svg>
