<?xml version="1.0" ?>
<svg xmlns="http://www.w3.org/2000/svg" version="1.1" width="224" height="224">
  <defs/>
  <g>
    <path d="M 94.36205291748047 164.2307891845703 C 107.25495147705078 170.35879516601562 98.14729309082031 182.55198669433594 98.4254379272461 141.77145385742188" stroke-width="3.0" fill="none" stroke="rgb(0, 0, 0)" stroke-opacity="1.0" stroke-linecap="round" stroke-linejoin="round"/>
    <path d="M 94.44071960449219 165.9704132080078 C 77.34934997558594 170.63609313964844 77.1572036743164 184.1566619873047 124.69004821777344 171.6673583984375" stroke-width="3.0" fill="none" stroke="rgb(0, 0, 0)" stroke-opacity="1.0" stroke-linecap="round" stroke-linejoin="round"/>
    <path d="M 130.69171142578125 180.67071533203125 C 158.16842651367188 176.0222930908203 128.44473266601562 178.5393829345703 137.71896362304688 162.2277374267578" stroke-width="3.0" fill="none" stroke="rgb(0, 0, 0)" stroke-opacity="1.0" stroke-linecap="round" stroke-linejoin="round"/>
    <path d="M 67.38249969482422 165.81195068359375 C 74.2862777709961 180.7436981201172 102.64605712890625 174.75372314453125 89.43486785888672 176.5236053466797" stroke-width="3.0" fill="none" stroke="rgb(0, 0, 0)" stroke-opacity="1.0" stroke-linecap="round" stroke-linejoin="round"/>
    <path d="M 138.04684448242188 140.0615692138672 C 132.80430603027344 155.70889282226562 132.78196716308594 139.9560089111328 130.82154846191406 167.28892517089844" stroke-width="3.0" fill="none" stroke="rgb(0, 0, 0)" stroke-opacity="1.0" stroke-linecap="round" stroke-linejoin="round"/>
    <path d="M 105.58269500732422 159.9278106689453 C 113.82231903076172 166.53089904785156 89.2732925415039 171.50917053222656 74.28104400634766 168.16802978515625" stroke-width="3.0" fill="none" stroke="rgb(0, 0, 0)" stroke-opacity="1.0" stroke-linecap="round" stroke-linejoin="round"/>
    <path d="M 144.83924865722656 169.1712188720703 C 150.48948669433594 163.24691772460938 146.17938232421875 160.7675323486328 146.8643798828125 159.8134307861328" stroke-width="3.0" fill="none" stroke="rgb(0, 0, 0)" stroke-opacity="1.0" stroke-linecap="round" stroke-linejoin="round"/>
    <path d="M 72.16613006591797 165.29994201660156 C 83.6480941772461 185.7433624267578 145.0947265625 171.87290954589844 109.69849395751953 168.38800048828125" stroke-width="3.0" fill="none" stroke="rgb(0, 0, 0)" stroke-opacity="1.0" stroke-linecap="round" stroke-linejoin="round"/>
    <path d="M 130.8817138671875 168.68011474609375 C 127.48858642578125 190.33412170410156 124.5529556274414 172.2728729248047 135.23500061035156 177.4346466064453" stroke-width="3.0" fill="none" stroke="rgb(0, 0, 0)" stroke-opacity="1.0" stroke-linecap="round" stroke-linejoin="round"/>
    <path d="M 145.37583923339844 100.90084838867188 C 129.35507202148438 127.39944458007812 156.3221435546875 100.9588851928711 145.8314971923828 160.99034118652344" stroke-width="3.0" fill="none" stroke="rgb(0, 0, 0)" stroke-opacity="1.0" stroke-linecap="round" stroke-linejoin="round"/>
    <path d="M 109.18563079833984 169.66490173339844 C 119.3986587524414 111.39472198486328 118.28203582763672 108.44140625 124.7982406616211 179.2108612060547" stroke-width="3.0" fill="none" stroke="rgb(0, 0, 0)" stroke-opacity="1.0" stroke-linecap="round" stroke-linejoin="round"/>
    <path d="M 66.54291534423828 165.62583923339844 C 74.73225402832031 137.47691345214844 125.57957458496094 167.323486328125 78.84339141845703 97.89031982421875" stroke-width="3.0" fill="none" stroke="rgb(0, 0, 0)" stroke-opacity="1.0" stroke-linecap="round" stroke-linejoin="round"/>
    <path d="M 87.17809295654297 166.861328125 C 105.61043548583984 171.9140625 108.30980682373047 154.44712829589844 82.71630096435547 166.17874145507812" stroke-width="3.0" fill="none" stroke="rgb(0, 0, 0)" stroke-opacity="1.0" stroke-linecap="round" stroke-linejoin="round"/>
    <path d="M 93.41114044189453 167.37982177734375 C 89.47203063964844 162.775146484375 105.18012237548828 155.7654571533203 113.79877471923828 169.60888671875" stroke-width="3.0" fill="none" stroke="rgb(0, 0, 0)" stroke-opacity="1.0" stroke-linecap="round" stroke-linejoin="round"/>
    <path d="M 122.1156234741211 83.68319702148438 C 119.5999526977539 97.89374542236328 140.22889709472656 96.63429260253906 120.6867904663086 80.40800476074219" stroke-width="3.0" fill="none" stroke="rgb(0, 0, 0)" stroke-opacity="1.0" stroke-linecap="round" stroke-linejoin="round"/>
    <path d="M 134.3614501953125 95.34868621826172 C 147.55223083496094 78.02728271484375 149.38397216796875 104.0975570678711 140.9571990966797 93.49919891357422" stroke-width="3.0" fill="none" stroke="rgb(0, 0, 0)" stroke-opacity="1.0" stroke-linecap="round" stroke-linejoin="round"/>
  </g>
</svg>
