<?xml version="1.0" ?>
<svg xmlns="http://www.w3.org/2000/svg" version="1.1" width="224" height="224">
  <defs/>
  <g>
    <path d="M 80.11299133300781 163.0924835205078 C 138.7586669921875 162.97201538085938 100.42877960205078 163.70530700683594 116.66783142089844 139.9544677734375" stroke-width="3.0" fill="none" stroke="rgb(0, 0, 0)" stroke-opacity="1.0" stroke-linecap="round" stroke-linejoin="round"/>
    <path d="M 116.44696807861328 168.9913330078125 C 36.95104217529297 157.01673889160156 83.07383728027344 182.138671875 117.61433410644531 167.4291229248047" stroke-width="3.0" fill="none" stroke="rgb(0, 0, 0)" stroke-opacity="1.0" stroke-linecap="round" stroke-linejoin="round"/>
    <path d="M 124.26143646240234 178.42286682128906 C 153.5503692626953 182.5640106201172 137.87037658691406 174.3053436279297 140.65237426757812 165.88096618652344" stroke-width="3.0" fill="none" stroke="rgb(0, 0, 0)" stroke-opacity="1.0" stroke-linecap="round" stroke-linejoin="round"/>
    <path d="M 95.8900146484375 150.82894897460938 C 13.903963088989258 172.0430450439453 120.09941101074219 190.56637573242188 122.33486938476562 169.98715209960938" stroke-width="3.0" fill="none" stroke="rgb(0, 0, 0)" stroke-opacity="1.0" stroke-linecap="round" stroke-linejoin="round"/>
    <path d="M 128.28257751464844 144.86416625976562 C 130.46319580078125 162.46380615234375 128.60183715820312 150.29244995117188 129.74490356445312 176.35650634765625" stroke-width="3.0" fill="none" stroke="rgb(0, 0, 0)" stroke-opacity="1.0" stroke-linecap="round" stroke-linejoin="round"/>
    <path d="M 122.79903411865234 165.78195190429688 C 126.78653717041016 168.95350646972656 96.49008178710938 179.4347686767578 78.0718002319336 175.48733520507812" stroke-width="3.0" fill="none" stroke="rgb(0, 0, 0)" stroke-opacity="1.0" stroke-linecap="round" stroke-linejoin="round"/>
    <path d="M 146.66311645507812 163.94505310058594 C 158.74029541015625 158.7382354736328 146.3916015625 149.9019012451172 147.02297973632812 136.30516052246094" stroke-width="3.0" fill="none" stroke="rgb(0, 0, 0)" stroke-opacity="1.0" stroke-linecap="round" stroke-linejoin="round"/>
    <path d="M 74.03336334228516 166.4367218017578 C 87.11437225341797 170.62501525878906 140.17588806152344 163.2726593017578 81.85446166992188 160.33383178710938" stroke-width="3.0" fill="none" stroke="rgb(0, 0, 0)" stroke-opacity="1.0" stroke-linecap="round" stroke-linejoin="round"/>
    <path d="M 125.57384490966797 177.9604949951172 C 122.52674865722656 176.1907501220703 113.94522094726562 162.68177795410156 119.45899200439453 170.82618713378906" stroke-width="3.0" fill="none" stroke="rgb(0, 0, 0)" stroke-opacity="1.0" stroke-linecap="round" stroke-linejoin="round"/>
    <path d="M 151.17645263671875 81.65497589111328 C 122.38223266601562 139.21212768554688 155.4189910888672 76.04069519042969 138.77394104003906 176.04617309570312" stroke-width="3.0" fill="none" stroke="rgb(0, 0, 0)" stroke-opacity="1.0" stroke-linecap="round" stroke-linejoin="round"/>
    <path d="M 112.04234313964844 170.4875030517578 C 96.8236083984375 174.0350341796875 95.09635162353516 148.05609130859375 122.73997497558594 168.3241729736328" stroke-width="3.0" fill="none" stroke="rgb(0, 0, 0)" stroke-opacity="1.0" stroke-linecap="round" stroke-linejoin="round"/>
    <path d="M 96.03705596923828 151.15330505371094 C 91.93212127685547 193.26609802246094 106.41658782958984 81.59060668945312 73.35197448730469 104.8661117553711" stroke-width="3.0" fill="none" stroke="rgb(0, 0, 0)" stroke-opacity="1.0" stroke-linecap="round" stroke-linejoin="round"/>
    <path d="M 87.24110412597656 161.85084533691406 C 118.2102279663086 166.146484375 151.26947021484375 166.2196044921875 86.84228515625 171.6939239501953" stroke-width="3.0" fill="none" stroke="rgb(0, 0, 0)" stroke-opacity="1.0" stroke-linecap="round" stroke-linejoin="round"/>
    <path d="M 110.15469360351562 168.80055236816406 C 44.17618179321289 179.5310821533203 94.91266632080078 141.3470458984375 103.15621185302734 167.17205810546875" stroke-width="3.0" fill="none" stroke="rgb(0, 0, 0)" stroke-opacity="1.0" stroke-linecap="round" stroke-linejoin="round"/>
    <path d="M 118.94795227050781 85.35548400878906 C 112.26626586914062 103.4760971069336 167.2093505859375 106.52538299560547 116.68621063232422 81.239990234375" stroke-width="3.0" fill="none" stroke="rgb(0, 0, 0)" stroke-opacity="1.0" stroke-linecap="round" stroke-linejoin="round"/>
    <path d="M 118.57304382324219 98.71128845214844 C 150.3844451904297 67.86369323730469 164.8045654296875 106.0394287109375 124.66371154785156 101.28430938720703" stroke-width="3.0" fill="none" stroke="rgb(0, 0, 0)" stroke-opacity="1.0" stroke-linecap="round" stroke-linejoin="round"/>
  </g>
</svg>
