<?xml version="1.0" ?>
<svg xmlns="http://www.w3.org/2000/svg" version="1.1" width="224" height="224">
  <defs/>
  <g>
    <path d="M 85.5102310180664 167.41030883789062 C 100.53495025634766 177.15147399902344 87.4132080078125 178.68577575683594 94.89596557617188 144.48094177246094" stroke-width="3.0" fill="none" stroke="rgb(0, 0, 0)" stroke-opacity="1.0" stroke-linecap="round" stroke-linejoin="round"/>
    <path d="M 90.2193603515625 165.27627563476562 C 89.29208374023438 171.9421844482422 84.08853912353516 181.51010131835938 118.16924285888672 168.0863037109375" stroke-width="3.0" fill="none" stroke="rgb(0, 0, 0)" stroke-opacity="1.0" stroke-linecap="round" stroke-linejoin="round"/>
    <path d="M 133.9744415283203 181.59857177734375 C 146.37147521972656 183.70689392089844 131.3024444580078 168.1528778076172 144.1217041015625 161.72891235351562" stroke-width="3.0" fill="none" stroke="rgb(0, 0, 0)" stroke-opacity="1.0" stroke-linecap="round" stroke-linejoin="round"/>
    <path d="M 70.14814758300781 167.4832763671875 C 75.64225769042969 178.5803985595703 100.12052154541016 170.35621643066406 82.78241729736328 175.20840454101562" stroke-width="3.0" fill="none" stroke="rgb(0, 0, 0)" stroke-opacity="1.0" stroke-linecap="round" stroke-linejoin="round"/>
    <path d="M 140.11990356445312 140.43873596191406 C 137.1341552734375 151.06919860839844 138.93463134765625 138.369140625 130.0116424560547 168.61329650878906" stroke-width="3.0" fill="none" stroke="rgb(0, 0, 0)" stroke-opacity="1.0" stroke-linecap="round" stroke-linejoin="round"/>
    <path d="M 104.54668426513672 159.13258361816406 C 111.8100357055664 173.321533203125 89.75313568115234 176.52597045898438 76.19266510009766 171.14642333984375" stroke-width="3.0" fill="none" stroke="rgb(0, 0, 0)" stroke-opacity="1.0" stroke-linecap="round" stroke-linejoin="round"/>
    <path d="M 144.99761962890625 161.05093383789062 C 150.90167236328125 158.5319366455078 154.81723022460938 145.57130432128906 147.88514709472656 157.95982360839844" stroke-width="3.0" fill="none" stroke="rgb(0, 0, 0)" stroke-opacity="1.0" stroke-linecap="round" stroke-linejoin="round"/>
    <path d="M 70.28575134277344 165.3468780517578 C 81.72915649414062 180.3212432861328 104.4002456665039 175.55906677246094 94.01985168457031 166.51539611816406" stroke-width="3.0" fill="none" stroke="rgb(0, 0, 0)" stroke-opacity="1.0" stroke-linecap="round" stroke-linejoin="round"/>
    <path d="M 133.3251953125 159.4873809814453 C 122.7052001953125 185.32081604003906 128.1834259033203 179.3300018310547 129.13470458984375 182.10833740234375" stroke-width="3.0" fill="none" stroke="rgb(0, 0, 0)" stroke-opacity="1.0" stroke-linecap="round" stroke-linejoin="round"/>
    <path d="M 141.9420623779297 111.44914245605469 C 147.0400848388672 129.7395782470703 156.1283721923828 115.29832458496094 150.4579620361328 154.70225524902344" stroke-width="3.0" fill="none" stroke="rgb(0, 0, 0)" stroke-opacity="1.0" stroke-linecap="round" stroke-linejoin="round"/>
    <path d="M 101.86944580078125 163.65750122070312 C 106.53897094726562 114.93255615234375 127.09557342529297 114.86478424072266 122.41858673095703 175.8811492919922" stroke-width="3.0" fill="none" stroke="rgb(0, 0, 0)" stroke-opacity="1.0" stroke-linecap="round" stroke-linejoin="round"/>
    <path d="M 69.68548583984375 162.64227294921875 C 85.55471801757812 142.5750732421875 115.58928680419922 166.91246032714844 77.28832244873047 99.18902587890625" stroke-width="3.0" fill="none" stroke="rgb(0, 0, 0)" stroke-opacity="1.0" stroke-linecap="round" stroke-linejoin="round"/>
    <path d="M 91.17456817626953 168.73155212402344 C 95.57456970214844 167.96620178222656 103.99313354492188 159.62451171875 89.52246856689453 166.11502075195312" stroke-width="3.0" fill="none" stroke="rgb(0, 0, 0)" stroke-opacity="1.0" stroke-linecap="round" stroke-linejoin="round"/>
    <path d="M 86.9715576171875 168.06002807617188 C 90.26990509033203 168.92852783203125 103.34288787841797 164.0179443359375 107.77083587646484 172.51963806152344" stroke-width="3.0" fill="none" stroke="rgb(0, 0, 0)" stroke-opacity="1.0" stroke-linecap="round" stroke-linejoin="round"/>
    <path d="M 121.59481811523438 87.1036148071289 C 115.9052734375 97.291748046875 142.81033325195312 93.50877380371094 118.16815185546875 86.45135498046875" stroke-width="3.0" fill="none" stroke="rgb(0, 0, 0)" stroke-opacity="1.0" stroke-linecap="round" stroke-linejoin="round"/>
    <path d="M 137.72116088867188 93.71842193603516 C 136.5362548828125 78.56903076171875 151.8804473876953 96.16746520996094 136.3235321044922 90.1635971069336" stroke-width="3.0" fill="none" stroke="rgb(0, 0, 0)" stroke-opacity="1.0" stroke-linecap="round" stroke-linejoin="round"/>
  </g>
</svg>
