<?xml version="1.0" ?>
<svg xmlns="http://www.w3.org/2000/svg" version="1.1" width="224" height="224">
  <defs/>
  <g>
    <path d="M 82.77587890625 168.29380798339844 C 111.88490295410156 165.3402557373047 82.56139373779297 187.58966064453125 98.32343292236328 144.92140197753906" stroke-width="3.0" fill="none" stroke="rgb(0, 0, 0)" stroke-opacity="1.0" stroke-linecap="round" stroke-linejoin="round"/>
    <path d="M 113.7542495727539 169.7609405517578 C 30.899843215942383 158.6168212890625 77.8076400756836 185.48838806152344 121.95350646972656 176.58175659179688" stroke-width="3.0" fill="none" stroke="rgb(0, 0, 0)" stroke-opacity="1.0" stroke-linecap="round" stroke-linejoin="round"/>
    <path d="M 134.4410858154297 176.49510192871094 C 152.74365234375 181.80313110351562 137.02099609375 172.47605895996094 142.16783142089844 163.00125122070312" stroke-width="3.0" fill="none" stroke="rgb(0, 0, 0)" stroke-opacity="1.0" stroke-linecap="round" stroke-linejoin="round"/>
    <path d="M 65.31432342529297 166.07923889160156 C 60.00188446044922 178.0726318359375 108.96562957763672 182.57183837890625 78.9515151977539 176.92526245117188" stroke-width="3.0" fill="none" stroke="rgb(0, 0, 0)" stroke-opacity="1.0" stroke-linecap="round" stroke-linejoin="round"/>
    <path d="M 136.2386932373047 139.51158142089844 C 136.8960723876953 158.8118438720703 132.65818786621094 144.24447631835938 133.5555419921875 174.83316040039062" stroke-width="3.0" fill="none" stroke="rgb(0, 0, 0)" stroke-opacity="1.0" stroke-linecap="round" stroke-linejoin="round"/>
    <path d="M 122.35619354248047 171.3348388671875 C 112.12081909179688 163.44532775878906 104.07962036132812 172.5635986328125 95.58454132080078 170.41705322265625" stroke-width="3.0" fill="none" stroke="rgb(0, 0, 0)" stroke-opacity="1.0" stroke-linecap="round" stroke-linejoin="round"/>
    <path d="M 147.904052734375 161.85133361816406 C 159.3041534423828 160.9804229736328 147.82843017578125 153.37059020996094 151.11155700683594 131.35186767578125" stroke-width="3.0" fill="none" stroke="rgb(0, 0, 0)" stroke-opacity="1.0" stroke-linecap="round" stroke-linejoin="round"/>
    <path d="M 75.9508056640625 170.5140838623047 C 93.2337875366211 180.4137725830078 153.5499267578125 162.58511352539062 80.09815979003906 160.8238983154297" stroke-width="3.0" fill="none" stroke="rgb(0, 0, 0)" stroke-opacity="1.0" stroke-linecap="round" stroke-linejoin="round"/>
    <path d="M 131.67071533203125 176.50413513183594 C 146.31484985351562 177.7695770263672 116.92225646972656 177.50985717773438 138.04188537597656 178.08770751953125" stroke-width="3.0" fill="none" stroke="rgb(0, 0, 0)" stroke-opacity="1.0" stroke-linecap="round" stroke-linejoin="round"/>
    <path d="M 147.7378692626953 88.70011901855469 C 132.90135192871094 122.94576263427734 165.07659912109375 91.05271911621094 141.28634643554688 173.31105041503906" stroke-width="3.0" fill="none" stroke="rgb(0, 0, 0)" stroke-opacity="1.0" stroke-linecap="round" stroke-linejoin="round"/>
    <path d="M 103.48894500732422 169.74017333984375 C 104.0527572631836 148.7297821044922 92.3685531616211 156.5443572998047 129.51773071289062 179.5786895751953" stroke-width="3.0" fill="none" stroke="rgb(0, 0, 0)" stroke-opacity="1.0" stroke-linecap="round" stroke-linejoin="round"/>
    <path d="M 67.29937744140625 164.8607940673828 C 67.42579650878906 149.29486083984375 128.675537109375 163.00607299804688 78.34820556640625 100.36560821533203" stroke-width="3.0" fill="none" stroke="rgb(0, 0, 0)" stroke-opacity="1.0" stroke-linecap="round" stroke-linejoin="round"/>
    <path d="M 72.16285705566406 162.80438232421875 C 104.79987335205078 166.15675354003906 129.01974487304688 170.99009704589844 78.33199310302734 171.22064208984375" stroke-width="3.0" fill="none" stroke="rgb(0, 0, 0)" stroke-opacity="1.0" stroke-linecap="round" stroke-linejoin="round"/>
    <path d="M 119.06756591796875 162.79013061523438 C 55.44150161743164 169.92837524414062 70.3424301147461 157.79840087890625 107.30471801757812 167.59335327148438" stroke-width="3.0" fill="none" stroke="rgb(0, 0, 0)" stroke-opacity="1.0" stroke-linecap="round" stroke-linejoin="round"/>
    <path d="M 113.9931411743164 83.32070922851562 C 107.53291320800781 108.3569564819336 142.1545867919922 102.7118911743164 113.4050521850586 80.55653381347656" stroke-width="3.0" fill="none" stroke="rgb(0, 0, 0)" stroke-opacity="1.0" stroke-linecap="round" stroke-linejoin="round"/>
    <path d="M 127.1978759765625 93.06694030761719 C 154.8789520263672 80.62330627441406 129.48829650878906 104.79231262207031 135.2232208251953 92.97348022460938" stroke-width="3.0" fill="none" stroke="rgb(0, 0, 0)" stroke-opacity="1.0" stroke-linecap="round" stroke-linejoin="round"/>
  </g>
</svg>
