<?xml version="1.0" ?>
<svg xmlns="http://www.w3.org/2000/svg" version="1.1" width="224" height="224">
  <defs/>
  <g>
    <path d="M 85.8292236328125 167.5116424560547 C 100.72563171386719 177.11293029785156 87.90730285644531 178.48304748535156 96.12899017333984 146.2898406982422" stroke-width="3.0" fill="none" stroke="rgb(0, 0, 0)" stroke-opacity="1.0" stroke-linecap="round" stroke-linejoin="round"/>
    <path d="M 90.09934997558594 165.5361785888672 C 88.31594848632812 170.5663604736328 83.63418579101562 179.87411499023438 119.7049331665039 171.0211944580078" stroke-width="3.0" fill="none" stroke="rgb(0, 0, 0)" stroke-opacity="1.0" stroke-linecap="round" stroke-linejoin="round"/>
    <path d="M 136.3952178955078 182.46298217773438 C 150.02320861816406 181.76487731933594 133.90756225585938 166.74195861816406 143.93215942382812 162.02220153808594" stroke-width="3.0" fill="none" stroke="rgb(0, 0, 0)" stroke-opacity="1.0" stroke-linecap="round" stroke-linejoin="round"/>
    <path d="M 70.50788116455078 167.87649536132812 C 76.63939666748047 178.01910400390625 99.91374206542969 169.4833526611328 82.63787078857422 173.13494873046875" stroke-width="3.0" fill="none" stroke="rgb(0, 0, 0)" stroke-opacity="1.0" stroke-linecap="round" stroke-linejoin="round"/>
    <path d="M 140.22561645507812 140.20326232910156 C 136.5377197265625 152.4639892578125 138.08436584472656 137.37791442871094 130.47059631347656 168.2003631591797" stroke-width="3.0" fill="none" stroke="rgb(0, 0, 0)" stroke-opacity="1.0" stroke-linecap="round" stroke-linejoin="round"/>
    <path d="M 104.0998306274414 160.2051544189453 C 112.2065200805664 174.5481414794922 90.13396453857422 177.86129760742188 75.78556060791016 171.4500274658203" stroke-width="3.0" fill="none" stroke="rgb(0, 0, 0)" stroke-opacity="1.0" stroke-linecap="round" stroke-linejoin="round"/>
    <path d="M 145.32095336914062 161.56973266601562 C 150.59429931640625 156.7738037109375 155.28009033203125 146.54156494140625 147.89866638183594 159.5088348388672" stroke-width="3.0" fill="none" stroke="rgb(0, 0, 0)" stroke-opacity="1.0" stroke-linecap="round" stroke-linejoin="round"/>
    <path d="M 71.258056640625 166.11508178710938 C 82.18246459960938 181.26759338378906 103.65826416015625 176.53884887695312 93.93418884277344 166.67030334472656" stroke-width="3.0" fill="none" stroke="rgb(0, 0, 0)" stroke-opacity="1.0" stroke-linecap="round" stroke-linejoin="round"/>
    <path d="M 132.9267578125 158.35610961914062 C 124.09823608398438 187.38133239746094 128.71795654296875 182.51950073242188 130.48046875 183.24295043945312" stroke-width="3.0" fill="none" stroke="rgb(0, 0, 0)" stroke-opacity="1.0" stroke-linecap="round" stroke-linejoin="round"/>
    <path d="M 144.04586791992188 110.59683227539062 C 150.4783172607422 128.43382263183594 155.68849182128906 114.86541748046875 149.85560607910156 156.36231994628906" stroke-width="3.0" fill="none" stroke="rgb(0, 0, 0)" stroke-opacity="1.0" stroke-linecap="round" stroke-linejoin="round"/>
    <path d="M 99.63236236572266 163.38922119140625 C 106.8004150390625 117.22178649902344 130.19142150878906 116.87138366699219 120.54451751708984 173.50462341308594" stroke-width="3.0" fill="none" stroke="rgb(0, 0, 0)" stroke-opacity="1.0" stroke-linecap="round" stroke-linejoin="round"/>
    <path d="M 71.52777862548828 163.34201049804688 C 88.22874450683594 145.83291625976562 115.10428619384766 169.10166931152344 80.75007629394531 98.17949676513672" stroke-width="3.0" fill="none" stroke="rgb(0, 0, 0)" stroke-opacity="1.0" stroke-linecap="round" stroke-linejoin="round"/>
    <path d="M 91.26374053955078 168.87074279785156 C 95.38490295410156 167.56365966796875 104.1097412109375 160.80401611328125 88.93157958984375 165.57986450195312" stroke-width="3.0" fill="none" stroke="rgb(0, 0, 0)" stroke-opacity="1.0" stroke-linecap="round" stroke-linejoin="round"/>
    <path d="M 88.63978576660156 165.11123657226562 C 89.97244262695312 171.5902862548828 101.75621795654297 167.07095336914062 107.60435485839844 171.6935577392578" stroke-width="3.0" fill="none" stroke="rgb(0, 0, 0)" stroke-opacity="1.0" stroke-linecap="round" stroke-linejoin="round"/>
    <path d="M 121.0199203491211 88.38872528076172 C 114.30155181884766 97.7620849609375 143.68740844726562 94.19672393798828 118.49000549316406 85.26875305175781" stroke-width="3.0" fill="none" stroke="rgb(0, 0, 0)" stroke-opacity="1.0" stroke-linecap="round" stroke-linejoin="round"/>
    <path d="M 137.7571258544922 93.27127075195312 C 134.56809997558594 77.49391174316406 152.6319580078125 92.731689453125 135.45263671875 90.44375610351562" stroke-width="3.0" fill="none" stroke="rgb(0, 0, 0)" stroke-opacity="1.0" stroke-linecap="round" stroke-linejoin="round"/>
  </g>
</svg>
