<?xml version="1.0" ?>
<svg xmlns="http://www.w3.org/2000/svg" version="1.1" width="224" height="224">
  <defs/>
  <g>
    <path d="M 78.1441879272461 170.76597595214844 C 116.60393524169922 169.74671936035156 91.77973175048828 188.90496826171875 103.93135070800781 139.57101440429688" stroke-width="3.0" fill="none" stroke="rgb(0, 0, 0)" stroke-opacity="1.0" stroke-linecap="round" stroke-linejoin="round"/>
    <path d="M 108.18711853027344 169.3564453125 C 25.73090934753418 152.95985412597656 76.07278442382812 191.2860870361328 121.24173736572266 175.3817596435547" stroke-width="3.0" fill="none" stroke="rgb(0, 0, 0)" stroke-opacity="1.0" stroke-linecap="round" stroke-linejoin="round"/>
    <path d="M 132.5640869140625 176.91946411132812 C 151.66122436523438 178.96192932128906 138.372802734375 166.7949676513672 139.60023498535156 169.50083923339844" stroke-width="3.0" fill="none" stroke="rgb(0, 0, 0)" stroke-opacity="1.0" stroke-linecap="round" stroke-linejoin="round"/>
    <path d="M 69.1241683959961 162.83937072753906 C 54.17528533935547 180.03041076660156 105.49478912353516 178.0164794921875 81.45093536376953 178.06875610351562" stroke-width="3.0" fill="none" stroke="rgb(0, 0, 0)" stroke-opacity="1.0" stroke-linecap="round" stroke-linejoin="round"/>
    <path d="M 126.23613739013672 140.2420654296875 C 131.78663635253906 157.10549926757812 129.15933227539062 143.74566650390625 129.65513610839844 172.3759765625" stroke-width="3.0" fill="none" stroke="rgb(0, 0, 0)" stroke-opacity="1.0" stroke-linecap="round" stroke-linejoin="round"/>
    <path d="M 113.71409606933594 171.16339111328125 C 107.82801055908203 169.32835388183594 100.73954010009766 173.5605926513672 95.56409454345703 172.27745056152344" stroke-width="3.0" fill="none" stroke="rgb(0, 0, 0)" stroke-opacity="1.0" stroke-linecap="round" stroke-linejoin="round"/>
    <path d="M 145.40036010742188 165.87940979003906 C 161.51370239257812 155.15869140625 143.70346069335938 153.64059448242188 147.68788146972656 130.57423400878906" stroke-width="3.0" fill="none" stroke="rgb(0, 0, 0)" stroke-opacity="1.0" stroke-linecap="round" stroke-linejoin="round"/>
    <path d="M 71.23674774169922 168.31935119628906 C 104.03218841552734 183.34573364257812 165.3592071533203 161.19154357910156 76.756591796875 165.7063446044922" stroke-width="3.0" fill="none" stroke="rgb(0, 0, 0)" stroke-opacity="1.0" stroke-linecap="round" stroke-linejoin="round"/>
    <path d="M 128.8260498046875 171.8026580810547 C 144.5039825439453 179.2131805419922 116.11341857910156 176.17987060546875 140.83090209960938 175.69699096679688" stroke-width="3.0" fill="none" stroke="rgb(0, 0, 0)" stroke-opacity="1.0" stroke-linecap="round" stroke-linejoin="round"/>
    <path d="M 149.6652374267578 87.15242004394531 C 132.10226440429688 128.24354553222656 158.5869140625 85.46929931640625 141.1435089111328 165.67193603515625" stroke-width="3.0" fill="none" stroke="rgb(0, 0, 0)" stroke-opacity="1.0" stroke-linecap="round" stroke-linejoin="round"/>
    <path d="M 103.6337890625 169.50682067871094 C 103.9042739868164 153.59869384765625 92.44661712646484 152.2939453125 130.2002716064453 177.48045349121094" stroke-width="3.0" fill="none" stroke="rgb(0, 0, 0)" stroke-opacity="1.0" stroke-linecap="round" stroke-linejoin="round"/>
    <path d="M 66.87481689453125 165.5781707763672 C 65.59967803955078 154.20175170898438 132.75526428222656 151.25987243652344 73.69537353515625 100.87760162353516" stroke-width="3.0" fill="none" stroke="rgb(0, 0, 0)" stroke-opacity="1.0" stroke-linecap="round" stroke-linejoin="round"/>
    <path d="M 74.75390625 167.2713623046875 C 106.2605972290039 171.18666076660156 131.67172241210938 175.82125854492188 76.47076416015625 164.88388061523438" stroke-width="3.0" fill="none" stroke="rgb(0, 0, 0)" stroke-opacity="1.0" stroke-linecap="round" stroke-linejoin="round"/>
    <path d="M 122.40286254882812 166.4485626220703 C 53.90980529785156 179.04197692871094 72.75444030761719 153.0634765625 110.4483642578125 166.3827362060547" stroke-width="3.0" fill="none" stroke="rgb(0, 0, 0)" stroke-opacity="1.0" stroke-linecap="round" stroke-linejoin="round"/>
    <path d="M 118.46440124511719 80.47879791259766 C 110.79047393798828 111.4939956665039 148.50198364257812 98.68486785888672 117.19554138183594 79.14787292480469" stroke-width="3.0" fill="none" stroke="rgb(0, 0, 0)" stroke-opacity="1.0" stroke-linecap="round" stroke-linejoin="round"/>
    <path d="M 118.82373809814453 94.36486053466797 C 159.91493225097656 88.12677764892578 129.75473022460938 110.23123931884766 134.59140014648438 95.35414123535156" stroke-width="3.0" fill="none" stroke="rgb(0, 0, 0)" stroke-opacity="1.0" stroke-linecap="round" stroke-linejoin="round"/>
  </g>
</svg>
