<?xml version="1.0" ?>
<svg xmlns="http://www.w3.org/2000/svg" version="1.1" width="224" height="224">
  <defs/>
  <g>
    <path d="M 86.25850677490234 163.1888885498047 C 155.91510009765625 170.6039276123047 102.36083221435547 179.08291625976562 115.36292266845703 120.26815032958984" stroke-width="3.0" fill="none" stroke="rgb(0, 0, 0)" stroke-opacity="1.0" stroke-linecap="round" stroke-linejoin="round"/>
    <path d="M 111.516845703125 156.65896606445312 C 43.69892120361328 159.7103271484375 92.60658264160156 181.4826202392578 119.07430267333984 169.01866149902344" stroke-width="3.0" fill="none" stroke="rgb(0, 0, 0)" stroke-opacity="1.0" stroke-linecap="round" stroke-linejoin="round"/>
    <path d="M 124.56632995605469 176.96595764160156 C 152.4746551513672 178.75257873535156 138.52801513671875 176.23585510253906 142.14222717285156 163.6149444580078" stroke-width="3.0" fill="none" stroke="rgb(0, 0, 0)" stroke-opacity="1.0" stroke-linecap="round" stroke-linejoin="round"/>
    <path d="M 90.7055892944336 148.31710815429688 C 16.04627227783203 170.28271484375 122.81631469726562 190.66212463378906 121.55613708496094 167.85443115234375" stroke-width="3.0" fill="none" stroke="rgb(0, 0, 0)" stroke-opacity="1.0" stroke-linecap="round" stroke-linejoin="round"/>
    <path d="M 128.6540985107422 145.64488220214844 C 131.88124084472656 166.5392303466797 130.8502960205078 166.17691040039062 130.91510009765625 177.28245544433594" stroke-width="3.0" fill="none" stroke="rgb(0, 0, 0)" stroke-opacity="1.0" stroke-linecap="round" stroke-linejoin="round"/>
    <path d="M 120.08570098876953 172.35256958007812 C 125.21145629882812 169.2655792236328 109.81693267822266 182.26934814453125 82.9383773803711 175.8233184814453" stroke-width="3.0" fill="none" stroke="rgb(0, 0, 0)" stroke-opacity="1.0" stroke-linecap="round" stroke-linejoin="round"/>
    <path d="M 142.2233123779297 168.4834747314453 C 156.021728515625 165.748779296875 148.41127014160156 156.8852081298828 145.07080078125 137.4480743408203" stroke-width="3.0" fill="none" stroke="rgb(0, 0, 0)" stroke-opacity="1.0" stroke-linecap="round" stroke-linejoin="round"/>
    <path d="M 77.34173583984375 168.47378540039062 C 97.87201690673828 175.95651245117188 153.0725860595703 162.18580627441406 80.66425323486328 167.01429748535156" stroke-width="3.0" fill="none" stroke="rgb(0, 0, 0)" stroke-opacity="1.0" stroke-linecap="round" stroke-linejoin="round"/>
    <path d="M 124.77690887451172 177.10125732421875 C 120.39756774902344 175.89454650878906 122.84674835205078 162.3281707763672 116.84233856201172 168.96058654785156" stroke-width="3.0" fill="none" stroke="rgb(0, 0, 0)" stroke-opacity="1.0" stroke-linecap="round" stroke-linejoin="round"/>
    <path d="M 146.3325958251953 83.12444305419922 C 124.44313049316406 134.80723571777344 160.61209106445312 84.05426788330078 140.69049072265625 169.41635131835938" stroke-width="3.0" fill="none" stroke="rgb(0, 0, 0)" stroke-opacity="1.0" stroke-linecap="round" stroke-linejoin="round"/>
    <path d="M 117.4128646850586 169.404052734375 C 100.17408752441406 178.30654907226562 103.89128875732422 151.37112426757812 116.16353607177734 169.75997924804688" stroke-width="3.0" fill="none" stroke="rgb(0, 0, 0)" stroke-opacity="1.0" stroke-linecap="round" stroke-linejoin="round"/>
    <path d="M 93.42752838134766 156.2422332763672 C 95.36244201660156 194.46145629882812 104.89509582519531 76.77230072021484 71.05545043945312 103.50592803955078" stroke-width="3.0" fill="none" stroke="rgb(0, 0, 0)" stroke-opacity="1.0" stroke-linecap="round" stroke-linejoin="round"/>
    <path d="M 90.70268249511719 164.2828369140625 C 112.86779022216797 164.3955078125 140.7415313720703 171.0671844482422 81.55687713623047 167.88067626953125" stroke-width="3.0" fill="none" stroke="rgb(0, 0, 0)" stroke-opacity="1.0" stroke-linecap="round" stroke-linejoin="round"/>
    <path d="M 114.1387939453125 155.4888153076172 C 38.95264434814453 179.6087188720703 104.96508026123047 148.5377655029297 112.9712142944336 169.28216552734375" stroke-width="3.0" fill="none" stroke="rgb(0, 0, 0)" stroke-opacity="1.0" stroke-linecap="round" stroke-linejoin="round"/>
    <path d="M 117.6977310180664 82.054443359375 C 109.51759338378906 102.96527099609375 154.0691375732422 106.6602554321289 117.52940368652344 79.60819244384766" stroke-width="3.0" fill="none" stroke="rgb(0, 0, 0)" stroke-opacity="1.0" stroke-linecap="round" stroke-linejoin="round"/>
    <path d="M 115.4128646850586 103.70278930664062 C 134.55865478515625 69.2159194946289 168.2278289794922 109.90414428710938 122.38448333740234 101.60334014892578" stroke-width="3.0" fill="none" stroke="rgb(0, 0, 0)" stroke-opacity="1.0" stroke-linecap="round" stroke-linejoin="round"/>
  </g>
</svg>
