<?xml version="1.0" ?>
<svg xmlns="http://www.w3.org/2000/svg" version="1.1" width="224" height="224">
  <defs/>
  <g>
    <path d="M 83.45174407958984 162.80401611328125 C 151.4371337890625 165.63262939453125 98.31591796875 179.9225311279297 117.19407653808594 134.4292449951172" stroke-width="3.0" fill="none" stroke="rgb(0, 0, 0)" stroke-opacity="1.0" stroke-linecap="round" stroke-linejoin="round"/>
    <path d="M 109.68006896972656 162.8134765625 C 40.82069778442383 161.600341796875 89.77516174316406 182.953369140625 118.4678726196289 169.96612548828125" stroke-width="3.0" fill="none" stroke="rgb(0, 0, 0)" stroke-opacity="1.0" stroke-linecap="round" stroke-linejoin="round"/>
    <path d="M 121.38011932373047 177.8682861328125 C 151.27658081054688 181.27597045898438 139.29852294921875 174.1654815673828 141.5601806640625 166.68284606933594" stroke-width="3.0" fill="none" stroke="rgb(0, 0, 0)" stroke-opacity="1.0" stroke-linecap="round" stroke-linejoin="round"/>
    <path d="M 95.07577514648438 153.82720947265625 C 16.473249435424805 172.1688232421875 118.1151351928711 194.03890991210938 125.476806640625 164.77149963378906" stroke-width="3.0" fill="none" stroke="rgb(0, 0, 0)" stroke-opacity="1.0" stroke-linecap="round" stroke-linejoin="round"/>
    <path d="M 127.10258483886719 139.7802734375 C 132.2299041748047 166.25546264648438 132.04388427734375 162.18580627441406 132.64686584472656 178.7530975341797" stroke-width="3.0" fill="none" stroke="rgb(0, 0, 0)" stroke-opacity="1.0" stroke-linecap="round" stroke-linejoin="round"/>
    <path d="M 120.96475219726562 173.7346649169922 C 123.89662170410156 169.63076782226562 109.56241607666016 183.1419219970703 83.0131607055664 178.7913818359375" stroke-width="3.0" fill="none" stroke="rgb(0, 0, 0)" stroke-opacity="1.0" stroke-linecap="round" stroke-linejoin="round"/>
    <path d="M 146.6504364013672 165.62535095214844 C 156.16339111328125 158.0748748779297 148.11024475097656 156.41082763671875 144.95132446289062 133.03750610351562" stroke-width="3.0" fill="none" stroke="rgb(0, 0, 0)" stroke-opacity="1.0" stroke-linecap="round" stroke-linejoin="round"/>
    <path d="M 78.10485076904297 169.7389373779297 C 98.47158813476562 174.69114685058594 154.651123046875 166.9867401123047 77.808349609375 165.69674682617188" stroke-width="3.0" fill="none" stroke="rgb(0, 0, 0)" stroke-opacity="1.0" stroke-linecap="round" stroke-linejoin="round"/>
    <path d="M 122.8040542602539 175.99171447753906 C 122.55742645263672 177.6543731689453 120.86062622070312 161.5376434326172 116.27960968017578 168.21124267578125" stroke-width="3.0" fill="none" stroke="rgb(0, 0, 0)" stroke-opacity="1.0" stroke-linecap="round" stroke-linejoin="round"/>
    <path d="M 149.337890625 80.41228485107422 C 121.52783966064453 135.989013671875 161.44769287109375 80.92874908447266 140.70693969726562 170.40431213378906" stroke-width="3.0" fill="none" stroke="rgb(0, 0, 0)" stroke-opacity="1.0" stroke-linecap="round" stroke-linejoin="round"/>
    <path d="M 118.6160659790039 167.9156951904297 C 100.07820129394531 172.20394897460938 102.33789825439453 149.8998565673828 116.95308685302734 170.4549102783203" stroke-width="3.0" fill="none" stroke="rgb(0, 0, 0)" stroke-opacity="1.0" stroke-linecap="round" stroke-linejoin="round"/>
    <path d="M 92.1519775390625 157.20529174804688 C 94.53466033935547 195.6090545654297 104.26828002929688 77.4633560180664 71.78196716308594 103.16346740722656" stroke-width="3.0" fill="none" stroke="rgb(0, 0, 0)" stroke-opacity="1.0" stroke-linecap="round" stroke-linejoin="round"/>
    <path d="M 87.89876556396484 160.62374877929688 C 111.54987335205078 167.0067596435547 141.82537841796875 169.5491485595703 82.49755859375 169.9656219482422" stroke-width="3.0" fill="none" stroke="rgb(0, 0, 0)" stroke-opacity="1.0" stroke-linecap="round" stroke-linejoin="round"/>
    <path d="M 109.33599090576172 158.79055786132812 C 42.28837966918945 180.9010772705078 104.92782592773438 144.86874389648438 111.93843078613281 166.1363067626953" stroke-width="3.0" fill="none" stroke="rgb(0, 0, 0)" stroke-opacity="1.0" stroke-linecap="round" stroke-linejoin="round"/>
    <path d="M 118.7649154663086 84.72647094726562 C 108.73126983642578 104.59732055664062 153.8394317626953 108.88546752929688 117.43517303466797 81.9870834350586" stroke-width="3.0" fill="none" stroke="rgb(0, 0, 0)" stroke-opacity="1.0" stroke-linecap="round" stroke-linejoin="round"/>
    <path d="M 120.02471160888672 102.00152587890625 C 143.31748962402344 69.16075897216797 163.51889038085938 109.86491394042969 123.28598022460938 103.76683807373047" stroke-width="3.0" fill="none" stroke="rgb(0, 0, 0)" stroke-opacity="1.0" stroke-linecap="round" stroke-linejoin="round"/>
  </g>
</svg>
