<?xml version="1.0" ?>
<svg xmlns="http://www.w3.org/2000/svg" version="1.1" width="224" height="224">
  <defs/>
  <g>
    <path d="M 78.97164916992188 167.72967529296875 C 121.98052978515625 171.3675537109375 81.15589141845703 184.61485290527344 101.04076385498047 128.8144073486328" stroke-width="3.0" fill="none" stroke="rgb(0, 0, 0)" stroke-opacity="1.0" stroke-linecap="round" stroke-linejoin="round"/>
    <path d="M 122.97699737548828 171.08737182617188 C 42.589935302734375 156.9697265625 86.98960876464844 185.17713928222656 121.01866912841797 166.87057495117188" stroke-width="3.0" fill="none" stroke="rgb(0, 0, 0)" stroke-opacity="1.0" stroke-linecap="round" stroke-linejoin="round"/>
    <path d="M 122.50028991699219 177.2279510498047 C 154.7620086669922 183.32568359375 139.32559204101562 171.135009765625 144.332763671875 162.70191955566406" stroke-width="3.0" fill="none" stroke="rgb(0, 0, 0)" stroke-opacity="1.0" stroke-linecap="round" stroke-linejoin="round"/>
    <path d="M 75.16197967529297 153.96817016601562 C 34.6185417175293 182.2527313232422 127.83905792236328 183.82293701171875 126.86961364746094 166.89553833007812" stroke-width="3.0" fill="none" stroke="rgb(0, 0, 0)" stroke-opacity="1.0" stroke-linecap="round" stroke-linejoin="round"/>
    <path d="M 127.52824401855469 141.128662109375 C 132.77198791503906 160.02601623535156 130.57080078125 155.74928283691406 130.83807373046875 173.80535888671875" stroke-width="3.0" fill="none" stroke="rgb(0, 0, 0)" stroke-opacity="1.0" stroke-linecap="round" stroke-linejoin="round"/>
    <path d="M 118.29711151123047 169.43911743164062 C 126.79425811767578 181.3292694091797 98.23780059814453 178.69032287597656 84.92778778076172 177.96218872070312" stroke-width="3.0" fill="none" stroke="rgb(0, 0, 0)" stroke-opacity="1.0" stroke-linecap="round" stroke-linejoin="round"/>
    <path d="M 142.17015075683594 169.22462463378906 C 157.21340942382812 165.62875366210938 149.6231231689453 150.93252563476562 145.7300262451172 139.67572021484375" stroke-width="3.0" fill="none" stroke="rgb(0, 0, 0)" stroke-opacity="1.0" stroke-linecap="round" stroke-linejoin="round"/>
    <path d="M 78.37330627441406 165.4961700439453 C 98.68920135498047 176.91424560546875 156.95863342285156 161.25421142578125 80.62601470947266 165.79283142089844" stroke-width="3.0" fill="none" stroke="rgb(0, 0, 0)" stroke-opacity="1.0" stroke-linecap="round" stroke-linejoin="round"/>
    <path d="M 135.10777282714844 173.33624267578125 C 142.1459503173828 183.3146209716797 125.29610443115234 173.3159637451172 139.81056213378906 175.49456787109375" stroke-width="3.0" fill="none" stroke="rgb(0, 0, 0)" stroke-opacity="1.0" stroke-linecap="round" stroke-linejoin="round"/>
    <path d="M 148.93516540527344 84.705322265625 C 127.56820678710938 136.7516326904297 156.3463897705078 78.14492797851562 142.21473693847656 170.80795288085938" stroke-width="3.0" fill="none" stroke="rgb(0, 0, 0)" stroke-opacity="1.0" stroke-linecap="round" stroke-linejoin="round"/>
    <path d="M 115.62218475341797 164.0920867919922 C 98.64622497558594 163.31626892089844 88.79267883300781 151.47787475585938 122.9101333618164 177.028076171875" stroke-width="3.0" fill="none" stroke="rgb(0, 0, 0)" stroke-opacity="1.0" stroke-linecap="round" stroke-linejoin="round"/>
    <path d="M 79.92913818359375 150.99752807617188 C 65.55743408203125 158.19007873535156 134.40841674804688 131.7826385498047 74.88409423828125 99.3372573852539" stroke-width="3.0" fill="none" stroke="rgb(0, 0, 0)" stroke-opacity="1.0" stroke-linecap="round" stroke-linejoin="round"/>
    <path d="M 92.08638000488281 160.9499053955078 C 116.10261535644531 172.07687377929688 146.17697143554688 166.43634033203125 85.08255004882812 162.59559631347656" stroke-width="3.0" fill="none" stroke="rgb(0, 0, 0)" stroke-opacity="1.0" stroke-linecap="round" stroke-linejoin="round"/>
    <path d="M 107.91552734375 167.4563446044922 C 51.337459564208984 178.13941955566406 76.39714813232422 152.9100341796875 114.75924682617188 168.47047424316406" stroke-width="3.0" fill="none" stroke="rgb(0, 0, 0)" stroke-opacity="1.0" stroke-linecap="round" stroke-linejoin="round"/>
    <path d="M 117.4607925415039 85.48020935058594 C 109.50288391113281 101.94868469238281 157.73524475097656 107.41742706298828 117.14129638671875 81.65054321289062" stroke-width="3.0" fill="none" stroke="rgb(0, 0, 0)" stroke-opacity="1.0" stroke-linecap="round" stroke-linejoin="round"/>
    <path d="M 117.60663604736328 96.48335266113281 C 169.71194458007812 71.45641326904297 142.3043212890625 110.3724136352539 137.55404663085938 96.78376007080078" stroke-width="3.0" fill="none" stroke="rgb(0, 0, 0)" stroke-opacity="1.0" stroke-linecap="round" stroke-linejoin="round"/>
  </g>
</svg>
