<?xml version="1.0" ?>
<svg xmlns="http://www.w3.org/2000/svg" version="1.1" width="224" height="224">
  <defs/>
  <g>
    <path d="M 80.65032958984375 162.33551025390625 C 149.68601989746094 166.68927001953125 105.58128356933594 177.0908203125 118.60348510742188 138.04986572265625" stroke-width="3.0" fill="none" stroke="rgb(0, 0, 0)" stroke-opacity="1.0" stroke-linecap="round" stroke-linejoin="round"/>
    <path d="M 108.3365707397461 169.5200958251953 C 44.77513122558594 160.35548400878906 95.44915008544922 180.0775146484375 121.50835418701172 170.43710327148438" stroke-width="3.0" fill="none" stroke="rgb(0, 0, 0)" stroke-opacity="1.0" stroke-linecap="round" stroke-linejoin="round"/>
    <path d="M 125.12018585205078 180.06845092773438 C 153.84226989746094 182.79983520507812 139.8075714111328 172.7610321044922 141.29141235351562 167.9658203125" stroke-width="3.0" fill="none" stroke="rgb(0, 0, 0)" stroke-opacity="1.0" stroke-linecap="round" stroke-linejoin="round"/>
    <path d="M 94.92329406738281 147.68124389648438 C 15.095726013183594 172.93984985351562 118.28545379638672 193.98687744140625 124.42699432373047 169.9374542236328" stroke-width="3.0" fill="none" stroke="rgb(0, 0, 0)" stroke-opacity="1.0" stroke-linecap="round" stroke-linejoin="round"/>
    <path d="M 129.57115173339844 142.78085327148438 C 133.5445098876953 167.52273559570312 129.53634643554688 160.39260864257812 132.1929473876953 178.98500061035156" stroke-width="3.0" fill="none" stroke="rgb(0, 0, 0)" stroke-opacity="1.0" stroke-linecap="round" stroke-linejoin="round"/>
    <path d="M 120.69078063964844 173.70777893066406 C 126.14981079101562 173.55758666992188 102.87178039550781 183.27549743652344 84.08676147460938 178.05873107910156" stroke-width="3.0" fill="none" stroke="rgb(0, 0, 0)" stroke-opacity="1.0" stroke-linecap="round" stroke-linejoin="round"/>
    <path d="M 143.56753540039062 163.18397521972656 C 155.5305633544922 161.2640838623047 150.1778106689453 154.79705810546875 145.11676025390625 133.6122283935547" stroke-width="3.0" fill="none" stroke="rgb(0, 0, 0)" stroke-opacity="1.0" stroke-linecap="round" stroke-linejoin="round"/>
    <path d="M 74.93407440185547 168.90309143066406 C 93.67733764648438 175.6888427734375 146.72967529296875 162.76246643066406 76.99065399169922 166.26039123535156" stroke-width="3.0" fill="none" stroke="rgb(0, 0, 0)" stroke-opacity="1.0" stroke-linecap="round" stroke-linejoin="round"/>
    <path d="M 123.71212768554688 179.09413146972656 C 122.1740493774414 180.53448486328125 121.11910247802734 161.26199340820312 121.52978515625 169.1238555908203" stroke-width="3.0" fill="none" stroke="rgb(0, 0, 0)" stroke-opacity="1.0" stroke-linecap="round" stroke-linejoin="round"/>
    <path d="M 149.570068359375 80.23599243164062 C 122.5412826538086 135.4288330078125 159.95773315429688 78.95777893066406 138.98907470703125 176.2560577392578" stroke-width="3.0" fill="none" stroke="rgb(0, 0, 0)" stroke-opacity="1.0" stroke-linecap="round" stroke-linejoin="round"/>
    <path d="M 109.9154281616211 158.44630432128906 C 95.70226287841797 175.78225708007812 98.20484924316406 149.01873779296875 118.58092498779297 167.9140167236328" stroke-width="3.0" fill="none" stroke="rgb(0, 0, 0)" stroke-opacity="1.0" stroke-linecap="round" stroke-linejoin="round"/>
    <path d="M 94.1058349609375 151.1006317138672 C 97.44808959960938 194.9034881591797 106.6667709350586 77.42903137207031 72.73206329345703 102.65637969970703" stroke-width="3.0" fill="none" stroke="rgb(0, 0, 0)" stroke-opacity="1.0" stroke-linecap="round" stroke-linejoin="round"/>
    <path d="M 92.890380859375 158.6231231689453 C 118.49897766113281 169.39810180664062 147.7308807373047 175.9606170654297 82.70333099365234 168.4064178466797" stroke-width="3.0" fill="none" stroke="rgb(0, 0, 0)" stroke-opacity="1.0" stroke-linecap="round" stroke-linejoin="round"/>
    <path d="M 113.24681854248047 155.5514678955078 C 43.947181701660156 178.69007873535156 98.87926483154297 145.47299194335938 104.04305267333984 168.99655151367188" stroke-width="3.0" fill="none" stroke="rgb(0, 0, 0)" stroke-opacity="1.0" stroke-linecap="round" stroke-linejoin="round"/>
    <path d="M 118.95863342285156 79.94632720947266 C 112.10202026367188 99.06736755371094 162.1006317138672 103.40750122070312 118.49696350097656 78.68706512451172" stroke-width="3.0" fill="none" stroke="rgb(0, 0, 0)" stroke-opacity="1.0" stroke-linecap="round" stroke-linejoin="round"/>
    <path d="M 118.96574401855469 96.51685333251953 C 147.32591247558594 70.09479522705078 165.37063598632812 108.80601501464844 121.45365142822266 100.00981903076172" stroke-width="3.0" fill="none" stroke="rgb(0, 0, 0)" stroke-opacity="1.0" stroke-linecap="round" stroke-linejoin="round"/>
  </g>
</svg>
