<?xml version="1.0" ?>
<svg xmlns="http://www.w3.org/2000/svg" version="1.1" width="224" height="224">
  <defs/>
  <g>
    <path d="M 93.12203216552734 159.46420288085938 C 110.25999450683594 161.3966064453125 96.44170379638672 175.33631896972656 100.00780487060547 145.97203063964844" stroke-width="3.0" fill="none" stroke="rgb(0, 0, 0)" stroke-opacity="1.0" stroke-linecap="round" stroke-linejoin="round"/>
    <path d="M 97.94188690185547 163.70394897460938 C 38.783023834228516 162.0626678466797 67.03856658935547 186.00755310058594 122.23779296875 168.70980834960938" stroke-width="3.0" fill="none" stroke="rgb(0, 0, 0)" stroke-opacity="1.0" stroke-linecap="round" stroke-linejoin="round"/>
    <path d="M 127.9063949584961 176.22113037109375 C 156.8116455078125 180.80479431152344 144.6118621826172 171.74551391601562 144.78643798828125 171.57684326171875" stroke-width="3.0" fill="none" stroke="rgb(0, 0, 0)" stroke-opacity="1.0" stroke-linecap="round" stroke-linejoin="round"/>
    <path d="M 62.855960845947266 165.44483947753906 C 65.5400619506836 177.6741943359375 109.86902618408203 174.9654083251953 92.06034851074219 171.7670135498047" stroke-width="3.0" fill="none" stroke="rgb(0, 0, 0)" stroke-opacity="1.0" stroke-linecap="round" stroke-linejoin="round"/>
    <path d="M 131.37225341796875 148.47406005859375 C 128.68661499023438 148.76864624023438 134.39431762695312 143.546142578125 131.99046325683594 175.28221130371094" stroke-width="3.0" fill="none" stroke="rgb(0, 0, 0)" stroke-opacity="1.0" stroke-linecap="round" stroke-linejoin="round"/>
    <path d="M 117.01625061035156 164.1383514404297 C 119.92720031738281 164.28009033203125 93.40672302246094 169.12664794921875 76.35686492919922 167.28665161132812" stroke-width="3.0" fill="none" stroke="rgb(0, 0, 0)" stroke-opacity="1.0" stroke-linecap="round" stroke-linejoin="round"/>
    <path d="M 143.13121032714844 168.85513305664062 C 149.3554229736328 155.034912109375 148.5272979736328 158.11407470703125 145.05332946777344 142.29644775390625" stroke-width="3.0" fill="none" stroke="rgb(0, 0, 0)" stroke-opacity="1.0" stroke-linecap="round" stroke-linejoin="round"/>
    <path d="M 71.70405578613281 167.23753356933594 C 84.40133666992188 174.53793334960938 146.03880310058594 162.06411743164062 105.61831665039062 164.7167205810547" stroke-width="3.0" fill="none" stroke="rgb(0, 0, 0)" stroke-opacity="1.0" stroke-linecap="round" stroke-linejoin="round"/>
    <path d="M 132.2543182373047 169.98135375976562 C 143.4283905029297 185.09085083007812 115.04853820800781 172.75387573242188 129.42477416992188 176.47499084472656" stroke-width="3.0" fill="none" stroke="rgb(0, 0, 0)" stroke-opacity="1.0" stroke-linecap="round" stroke-linejoin="round"/>
    <path d="M 145.59552001953125 99.74514770507812 C 127.610595703125 123.65109252929688 156.6453094482422 98.27775573730469 140.01898193359375 164.87469482421875" stroke-width="3.0" fill="none" stroke="rgb(0, 0, 0)" stroke-opacity="1.0" stroke-linecap="round" stroke-linejoin="round"/>
    <path d="M 107.70167541503906 163.95458984375 C 117.24996948242188 113.72130584716797 109.90045928955078 111.72894287109375 124.21990203857422 175.19833374023438" stroke-width="3.0" fill="none" stroke="rgb(0, 0, 0)" stroke-opacity="1.0" stroke-linecap="round" stroke-linejoin="round"/>
    <path d="M 63.24457931518555 165.17282104492188 C 72.1043472290039 146.813232421875 129.39910888671875 170.58355712890625 80.30947875976562 99.60429382324219" stroke-width="3.0" fill="none" stroke="rgb(0, 0, 0)" stroke-opacity="1.0" stroke-linecap="round" stroke-linejoin="round"/>
    <path d="M 81.88709259033203 161.90670776367188 C 106.11897277832031 164.5220184326172 109.75188446044922 148.78518676757812 72.18749237060547 164.63458251953125" stroke-width="3.0" fill="none" stroke="rgb(0, 0, 0)" stroke-opacity="1.0" stroke-linecap="round" stroke-linejoin="round"/>
    <path d="M 107.49503326416016 166.66888427734375 C 83.41544342041016 164.91317749023438 98.65768432617188 158.8501434326172 117.14083862304688 163.7572021484375" stroke-width="3.0" fill="none" stroke="rgb(0, 0, 0)" stroke-opacity="1.0" stroke-linecap="round" stroke-linejoin="round"/>
    <path d="M 117.8911361694336 86.63539123535156 C 114.77745056152344 98.71466064453125 136.74618530273438 97.18535614013672 115.1427230834961 82.8240966796875" stroke-width="3.0" fill="none" stroke="rgb(0, 0, 0)" stroke-opacity="1.0" stroke-linecap="round" stroke-linejoin="round"/>
    <path d="M 129.6985626220703 94.21713256835938 C 152.61891174316406 83.01696014404297 131.6553497314453 105.1004867553711 131.01072692871094 93.40625762939453" stroke-width="3.0" fill="none" stroke="rgb(0, 0, 0)" stroke-opacity="1.0" stroke-linecap="round" stroke-linejoin="round"/>
  </g>
</svg>
