<?xml version="1.0" ?>
<svg xmlns="http://www.w3.org/2000/svg" version="1.1" width="224" height="224">
  <defs/>
  <g>
    <path d="M 83.87372589111328 169.32754516601562 C 156.34945678710938 168.8389129638672 93.44831085205078 177.7754669189453 122.36053466796875 108.57354736328125" stroke-width="3.0" fill="none" stroke="rgb(0, 0, 0)" stroke-opacity="1.0" stroke-linecap="round" stroke-linejoin="round"/>
    <path d="M 113.11387634277344 160.69422912597656 C 41.07230758666992 158.1195068359375 88.86346435546875 181.4486083984375 117.62046813964844 167.23228454589844" stroke-width="3.0" fill="none" stroke="rgb(0, 0, 0)" stroke-opacity="1.0" stroke-linecap="round" stroke-linejoin="round"/>
    <path d="M 123.75007629394531 177.41400146484375 C 152.3649139404297 181.14601135253906 138.7607421875 175.40231323242188 143.009765625 163.19700622558594" stroke-width="3.0" fill="none" stroke="rgb(0, 0, 0)" stroke-opacity="1.0" stroke-linecap="round" stroke-linejoin="round"/>
    <path d="M 91.00312805175781 150.4405975341797 C 16.207292556762695 172.2493438720703 119.8562240600586 188.9319610595703 124.0291976928711 167.8634796142578" stroke-width="3.0" fill="none" stroke="rgb(0, 0, 0)" stroke-opacity="1.0" stroke-linecap="round" stroke-linejoin="round"/>
    <path d="M 129.8160400390625 143.7495574951172 C 131.76068115234375 163.2916717529297 130.76739501953125 164.97079467773438 131.96994018554688 177.57791137695312" stroke-width="3.0" fill="none" stroke="rgb(0, 0, 0)" stroke-opacity="1.0" stroke-linecap="round" stroke-linejoin="round"/>
    <path d="M 121.06697845458984 173.18463134765625 C 127.33358764648438 169.5739288330078 106.86734008789062 183.6317901611328 75.87036895751953 175.4772491455078" stroke-width="3.0" fill="none" stroke="rgb(0, 0, 0)" stroke-opacity="1.0" stroke-linecap="round" stroke-linejoin="round"/>
    <path d="M 142.46653747558594 165.5595703125 C 154.8022918701172 159.65675354003906 150.83914184570312 157.3013153076172 146.00950622558594 136.79364013671875" stroke-width="3.0" fill="none" stroke="rgb(0, 0, 0)" stroke-opacity="1.0" stroke-linecap="round" stroke-linejoin="round"/>
    <path d="M 78.71347045898438 164.838623046875 C 100.65076446533203 173.13018798828125 157.48829650878906 160.55381774902344 78.58341217041016 167.24920654296875" stroke-width="3.0" fill="none" stroke="rgb(0, 0, 0)" stroke-opacity="1.0" stroke-linecap="round" stroke-linejoin="round"/>
    <path d="M 126.01359558105469 178.3577880859375 C 118.9722900390625 174.54486083984375 125.95225524902344 161.59620666503906 117.05858612060547 168.6600341796875" stroke-width="3.0" fill="none" stroke="rgb(0, 0, 0)" stroke-opacity="1.0" stroke-linecap="round" stroke-linejoin="round"/>
    <path d="M 147.6422119140625 82.97429656982422 C 127.41401672363281 135.4381103515625 161.02481079101562 84.68860626220703 141.89263916015625 168.68850708007812" stroke-width="3.0" fill="none" stroke="rgb(0, 0, 0)" stroke-opacity="1.0" stroke-linecap="round" stroke-linejoin="round"/>
    <path d="M 117.31304168701172 166.01719665527344 C 96.18925476074219 174.95291137695312 101.74128723144531 149.2151641845703 116.63502502441406 168.25741577148438" stroke-width="3.0" fill="none" stroke="rgb(0, 0, 0)" stroke-opacity="1.0" stroke-linecap="round" stroke-linejoin="round"/>
    <path d="M 95.53890228271484 156.513671875 C 96.17655181884766 194.28208923339844 103.08917999267578 81.47010040283203 74.11002349853516 105.8526382446289" stroke-width="3.0" fill="none" stroke="rgb(0, 0, 0)" stroke-opacity="1.0" stroke-linecap="round" stroke-linejoin="round"/>
    <path d="M 94.94490814208984 159.02618408203125 C 112.54979705810547 156.56504821777344 139.37684631347656 164.7969970703125 79.57740020751953 164.13658142089844" stroke-width="3.0" fill="none" stroke="rgb(0, 0, 0)" stroke-opacity="1.0" stroke-linecap="round" stroke-linejoin="round"/>
    <path d="M 114.91168975830078 156.14627075195312 C 45.88859939575195 189.25230407714844 106.07083892822266 147.5404052734375 113.86882019042969 167.90997314453125" stroke-width="3.0" fill="none" stroke="rgb(0, 0, 0)" stroke-opacity="1.0" stroke-linecap="round" stroke-linejoin="round"/>
    <path d="M 120.09935760498047 81.5107650756836 C 112.26058959960938 105.44046020507812 158.2021026611328 108.05281829833984 117.78594207763672 80.4111328125" stroke-width="3.0" fill="none" stroke="rgb(0, 0, 0)" stroke-opacity="1.0" stroke-linecap="round" stroke-linejoin="round"/>
    <path d="M 121.32441711425781 103.8659896850586 C 131.5572052001953 70.78254699707031 170.9246063232422 105.94808959960938 126.52442169189453 103.46412658691406" stroke-width="3.0" fill="none" stroke="rgb(0, 0, 0)" stroke-opacity="1.0" stroke-linecap="round" stroke-linejoin="round"/>
  </g>
</svg>
