<?xml version="1.0" ?>
<svg xmlns="http://www.w3.org/2000/svg" version="1.1" width="224" height="224">
  <defs/>
  <g>
    <path d="M 78.86287689208984 165.60348510742188 C 122.39083099365234 161.9524383544922 89.22245788574219 192.52154541015625 102.75506591796875 139.4424285888672" stroke-width="3.0" fill="none" stroke="rgb(0, 0, 0)" stroke-opacity="1.0" stroke-linecap="round" stroke-linejoin="round"/>
    <path d="M 118.44190979003906 169.75070190429688 C 39.55748748779297 158.57113647460938 89.0598373413086 182.5162353515625 117.94634246826172 167.97532653808594" stroke-width="3.0" fill="none" stroke="rgb(0, 0, 0)" stroke-opacity="1.0" stroke-linecap="round" stroke-linejoin="round"/>
    <path d="M 125.04497528076172 176.4437713623047 C 149.8190460205078 179.77389526367188 139.47178649902344 170.8647003173828 141.39381408691406 169.142822265625" stroke-width="3.0" fill="none" stroke="rgb(0, 0, 0)" stroke-opacity="1.0" stroke-linecap="round" stroke-linejoin="round"/>
    <path d="M 93.22925567626953 148.6677703857422 C 14.999549865722656 175.72674560546875 122.34117889404297 191.74208068847656 121.00434875488281 166.265625" stroke-width="3.0" fill="none" stroke="rgb(0, 0, 0)" stroke-opacity="1.0" stroke-linecap="round" stroke-linejoin="round"/>
    <path d="M 124.66285705566406 140.9558563232422 C 129.32810974121094 155.8061065673828 128.58457946777344 152.9798583984375 130.35227966308594 177.75318908691406" stroke-width="3.0" fill="none" stroke="rgb(0, 0, 0)" stroke-opacity="1.0" stroke-linecap="round" stroke-linejoin="round"/>
    <path d="M 120.38601684570312 171.8673553466797 C 131.0211181640625 173.16387939453125 93.4642105102539 180.50186157226562 79.7921371459961 176.73753356933594" stroke-width="3.0" fill="none" stroke="rgb(0, 0, 0)" stroke-opacity="1.0" stroke-linecap="round" stroke-linejoin="round"/>
    <path d="M 145.39578247070312 169.06329345703125 C 158.4717254638672 160.1529998779297 146.598876953125 159.5629119873047 143.69822692871094 130.52394104003906" stroke-width="3.0" fill="none" stroke="rgb(0, 0, 0)" stroke-opacity="1.0" stroke-linecap="round" stroke-linejoin="round"/>
    <path d="M 79.78712463378906 168.01731872558594 C 92.66471099853516 177.17005920410156 147.1990966796875 166.5237579345703 80.65290832519531 162.77206420898438" stroke-width="3.0" fill="none" stroke="rgb(0, 0, 0)" stroke-opacity="1.0" stroke-linecap="round" stroke-linejoin="round"/>
    <path d="M 129.5113525390625 174.57228088378906 C 136.44140625 181.3166046142578 128.20492553710938 175.87106323242188 135.81942749023438 174.1562042236328" stroke-width="3.0" fill="none" stroke="rgb(0, 0, 0)" stroke-opacity="1.0" stroke-linecap="round" stroke-linejoin="round"/>
    <path d="M 148.89315795898438 80.69314575195312 C 128.98377990722656 135.0084686279297 160.202880859375 72.81303405761719 138.59231567382812 176.93980407714844" stroke-width="3.0" fill="none" stroke="rgb(0, 0, 0)" stroke-opacity="1.0" stroke-linecap="round" stroke-linejoin="round"/>
    <path d="M 111.55169677734375 170.26275634765625 C 95.32232666015625 168.36964416503906 89.74640655517578 151.2617950439453 126.15508270263672 172.2965087890625" stroke-width="3.0" fill="none" stroke="rgb(0, 0, 0)" stroke-opacity="1.0" stroke-linecap="round" stroke-linejoin="round"/>
    <path d="M 94.77308654785156 157.56752014160156 C 79.31526184082031 178.54232788085938 123.88494873046875 113.79464721679688 75.20806121826172 102.39937591552734" stroke-width="3.0" fill="none" stroke="rgb(0, 0, 0)" stroke-opacity="1.0" stroke-linecap="round" stroke-linejoin="round"/>
    <path d="M 94.81958770751953 157.70790100097656 C 113.45613861083984 173.36842346191406 146.95623779296875 165.43295288085938 87.19263458251953 170.40211486816406" stroke-width="3.0" fill="none" stroke="rgb(0, 0, 0)" stroke-opacity="1.0" stroke-linecap="round" stroke-linejoin="round"/>
    <path d="M 109.18065643310547 166.97482299804688 C 54.73981475830078 176.9806365966797 86.0849838256836 146.8869171142578 109.7918701171875 169.3102569580078" stroke-width="3.0" fill="none" stroke="rgb(0, 0, 0)" stroke-opacity="1.0" stroke-linecap="round" stroke-linejoin="round"/>
    <path d="M 117.82617950439453 83.44693756103516 C 110.28523254394531 101.30072784423828 150.19329833984375 101.04499053955078 116.74057006835938 82.06572723388672" stroke-width="3.0" fill="none" stroke="rgb(0, 0, 0)" stroke-opacity="1.0" stroke-linecap="round" stroke-linejoin="round"/>
    <path d="M 116.98316192626953 99.6114273071289 C 157.29782104492188 62.721893310546875 153.4857940673828 111.24811553955078 132.53172302246094 100.81816101074219" stroke-width="3.0" fill="none" stroke="rgb(0, 0, 0)" stroke-opacity="1.0" stroke-linecap="round" stroke-linejoin="round"/>
  </g>
</svg>
