<?xml version="1.0" ?>
<svg xmlns="http://www.w3.org/2000/svg" version="1.1" width="224" height="224">
  <defs/>
  <g>
    <path d="M 82.67577362060547 171.36029052734375 C 110.46814727783203 163.4805908203125 84.70918273925781 197.65017700195312 96.7711410522461 144.6594696044922" stroke-width="3.0" fill="none" stroke="rgb(0, 0, 0)" stroke-opacity="1.0" stroke-linecap="round" stroke-linejoin="round"/>
    <path d="M 113.5238037109375 162.65052795410156 C 38.759483337402344 155.69671630859375 80.60733032226562 190.27743530273438 119.59298706054688 174.34027099609375" stroke-width="3.0" fill="none" stroke="rgb(0, 0, 0)" stroke-opacity="1.0" stroke-linecap="round" stroke-linejoin="round"/>
    <path d="M 129.5231170654297 178.92910766601562 C 151.53135681152344 180.30494689941406 138.5458984375 172.57110595703125 141.49314880371094 167.60745239257812" stroke-width="3.0" fill="none" stroke="rgb(0, 0, 0)" stroke-opacity="1.0" stroke-linecap="round" stroke-linejoin="round"/>
    <path d="M 65.59700775146484 167.15513610839844 C 61.406837463378906 178.82200622558594 110.42251586914062 178.9654541015625 81.73887634277344 175.6726531982422" stroke-width="3.0" fill="none" stroke="rgb(0, 0, 0)" stroke-opacity="1.0" stroke-linecap="round" stroke-linejoin="round"/>
    <path d="M 129.71116638183594 143.76980590820312 C 129.6419677734375 164.08587646484375 131.2330322265625 145.7161865234375 130.7513427734375 179.10958862304688" stroke-width="3.0" fill="none" stroke="rgb(0, 0, 0)" stroke-opacity="1.0" stroke-linecap="round" stroke-linejoin="round"/>
    <path d="M 122.84497833251953 170.00277709960938 C 109.28107452392578 159.89659118652344 101.36579895019531 170.2096405029297 88.03048706054688 172.3988494873047" stroke-width="3.0" fill="none" stroke="rgb(0, 0, 0)" stroke-opacity="1.0" stroke-linecap="round" stroke-linejoin="round"/>
    <path d="M 147.8621826171875 165.4277801513672 C 157.20521545410156 161.0525665283203 145.7542266845703 152.9654998779297 147.384521484375 133.9142303466797" stroke-width="3.0" fill="none" stroke="rgb(0, 0, 0)" stroke-opacity="1.0" stroke-linecap="round" stroke-linejoin="round"/>
    <path d="M 74.60057830810547 166.60458374023438 C 94.00861358642578 181.7497100830078 153.3307647705078 167.67935180664062 84.38743591308594 164.0470733642578" stroke-width="3.0" fill="none" stroke="rgb(0, 0, 0)" stroke-opacity="1.0" stroke-linecap="round" stroke-linejoin="round"/>
    <path d="M 128.8235321044922 175.1724395751953 C 147.5296630859375 182.75897216796875 113.92363739013672 186.87850952148438 135.14772033691406 183.1483917236328" stroke-width="3.0" fill="none" stroke="rgb(0, 0, 0)" stroke-opacity="1.0" stroke-linecap="round" stroke-linejoin="round"/>
    <path d="M 149.0619659423828 97.46612548828125 C 136.71302795410156 123.16162109375 161.90435791015625 82.87287902832031 139.33790588378906 171.93661499023438" stroke-width="3.0" fill="none" stroke="rgb(0, 0, 0)" stroke-opacity="1.0" stroke-linecap="round" stroke-linejoin="round"/>
    <path d="M 107.8505630493164 169.18569946289062 C 116.3617935180664 140.0211181640625 101.52191925048828 145.31776428222656 124.31487274169922 178.5572509765625" stroke-width="3.0" fill="none" stroke="rgb(0, 0, 0)" stroke-opacity="1.0" stroke-linecap="round" stroke-linejoin="round"/>
    <path d="M 65.7831802368164 167.0087890625 C 67.8580551147461 148.84716796875 129.03404235839844 162.02618408203125 77.9230728149414 98.97479248046875" stroke-width="3.0" fill="none" stroke="rgb(0, 0, 0)" stroke-opacity="1.0" stroke-linecap="round" stroke-linejoin="round"/>
    <path d="M 78.89217376708984 167.49139404296875 C 101.36820983886719 159.05218505859375 119.74930572509766 177.02783203125 81.34330749511719 168.8759002685547" stroke-width="3.0" fill="none" stroke="rgb(0, 0, 0)" stroke-opacity="1.0" stroke-linecap="round" stroke-linejoin="round"/>
    <path d="M 116.15586853027344 168.58372497558594 C 60.09626388549805 170.7598876953125 76.06218719482422 155.41354370117188 114.01502227783203 158.66981506347656" stroke-width="3.0" fill="none" stroke="rgb(0, 0, 0)" stroke-opacity="1.0" stroke-linecap="round" stroke-linejoin="round"/>
    <path d="M 117.73858642578125 87.92811584472656 C 108.90572357177734 105.1199951171875 144.2119140625 103.5232162475586 116.78211975097656 86.09424591064453" stroke-width="3.0" fill="none" stroke="rgb(0, 0, 0)" stroke-opacity="1.0" stroke-linecap="round" stroke-linejoin="round"/>
    <path d="M 130.58523559570312 93.80488586425781 C 153.64903259277344 81.71753692626953 133.82275390625 102.25659942626953 135.3467254638672 95.91554260253906" stroke-width="3.0" fill="none" stroke="rgb(0, 0, 0)" stroke-opacity="1.0" stroke-linecap="round" stroke-linejoin="round"/>
  </g>
</svg>
