<?xml version="1.0" ?>
<svg xmlns="http://www.w3.org/2000/svg" version="1.1" width="224" height="224">
  <defs/>
  <g>
    <path d="M 84.62777709960938 165.59767150878906 C 154.45387268066406 172.37889099121094 101.79642486572266 179.08084106445312 115.52057647705078 122.85409545898438" stroke-width="3.0" fill="none" stroke="rgb(0, 0, 0)" stroke-opacity="1.0" stroke-linecap="round" stroke-linejoin="round"/>
    <path d="M 111.41181945800781 160.03819274902344 C 44.47214126586914 160.90318298339844 92.7083969116211 181.68917846679688 118.1063461303711 168.4766082763672" stroke-width="3.0" fill="none" stroke="rgb(0, 0, 0)" stroke-opacity="1.0" stroke-linecap="round" stroke-linejoin="round"/>
    <path d="M 125.11983489990234 177.85789489746094 C 153.16397094726562 179.9300079345703 141.81942749023438 173.0386962890625 143.31507873535156 165.6610870361328" stroke-width="3.0" fill="none" stroke="rgb(0, 0, 0)" stroke-opacity="1.0" stroke-linecap="round" stroke-linejoin="round"/>
    <path d="M 94.0637435913086 152.58712768554688 C 14.266275405883789 169.6370391845703 119.98743438720703 191.6732635498047 121.55136108398438 164.7427520751953" stroke-width="3.0" fill="none" stroke="rgb(0, 0, 0)" stroke-opacity="1.0" stroke-linecap="round" stroke-linejoin="round"/>
    <path d="M 129.65850830078125 143.94639587402344 C 134.9260711669922 163.0973663330078 130.29312133789062 163.81829833984375 131.68861389160156 175.61085510253906" stroke-width="3.0" fill="none" stroke="rgb(0, 0, 0)" stroke-opacity="1.0" stroke-linecap="round" stroke-linejoin="round"/>
    <path d="M 121.12767791748047 173.89599609375 C 126.0732650756836 169.28501892089844 109.53256225585938 179.67994689941406 82.20652770996094 176.2118682861328" stroke-width="3.0" fill="none" stroke="rgb(0, 0, 0)" stroke-opacity="1.0" stroke-linecap="round" stroke-linejoin="round"/>
    <path d="M 142.47227478027344 162.9869842529297 C 156.0848846435547 156.9988555908203 147.39735412597656 157.66131591796875 145.9541473388672 135.36279296875" stroke-width="3.0" fill="none" stroke="rgb(0, 0, 0)" stroke-opacity="1.0" stroke-linecap="round" stroke-linejoin="round"/>
    <path d="M 75.38240814208984 167.1735382080078 C 98.78485870361328 175.47898864746094 153.26622009277344 163.9397430419922 79.3233413696289 166.7925262451172" stroke-width="3.0" fill="none" stroke="rgb(0, 0, 0)" stroke-opacity="1.0" stroke-linecap="round" stroke-linejoin="round"/>
    <path d="M 123.83223724365234 176.75160217285156 C 118.7117691040039 178.15603637695312 120.61988830566406 162.45703125 116.45545959472656 168.7096405029297" stroke-width="3.0" fill="none" stroke="rgb(0, 0, 0)" stroke-opacity="1.0" stroke-linecap="round" stroke-linejoin="round"/>
    <path d="M 146.37713623046875 82.93287658691406 C 123.27456665039062 135.08692932128906 159.87474060058594 83.31939697265625 141.04885864257812 170.42233276367188" stroke-width="3.0" fill="none" stroke="rgb(0, 0, 0)" stroke-opacity="1.0" stroke-linecap="round" stroke-linejoin="round"/>
    <path d="M 117.50909423828125 168.708251953125 C 99.32050323486328 173.4891357421875 103.4581527709961 145.1334686279297 117.05216217041016 168.07034301757812" stroke-width="3.0" fill="none" stroke="rgb(0, 0, 0)" stroke-opacity="1.0" stroke-linecap="round" stroke-linejoin="round"/>
    <path d="M 93.60712432861328 155.03746032714844 C 94.95223236083984 195.16586303710938 103.98656463623047 76.81690979003906 71.5742416381836 103.50071716308594" stroke-width="3.0" fill="none" stroke="rgb(0, 0, 0)" stroke-opacity="1.0" stroke-linecap="round" stroke-linejoin="round"/>
    <path d="M 89.765625 162.59812927246094 C 112.59323120117188 164.82350158691406 140.59593200683594 171.68841552734375 81.49755859375 169.2859344482422" stroke-width="3.0" fill="none" stroke="rgb(0, 0, 0)" stroke-opacity="1.0" stroke-linecap="round" stroke-linejoin="round"/>
    <path d="M 112.17109680175781 157.18698120117188 C 41.643028259277344 181.28677368164062 109.46407318115234 149.10292053222656 114.21825408935547 167.68377685546875" stroke-width="3.0" fill="none" stroke="rgb(0, 0, 0)" stroke-opacity="1.0" stroke-linecap="round" stroke-linejoin="round"/>
    <path d="M 119.39241790771484 83.89994812011719 C 111.1265869140625 103.31488800048828 155.1002197265625 109.61212921142578 116.88150787353516 82.39830780029297" stroke-width="3.0" fill="none" stroke="rgb(0, 0, 0)" stroke-opacity="1.0" stroke-linecap="round" stroke-linejoin="round"/>
    <path d="M 117.98939514160156 104.9456558227539 C 136.16139221191406 69.36471557617188 164.07151794433594 112.74835205078125 122.8572006225586 101.70989227294922" stroke-width="3.0" fill="none" stroke="rgb(0, 0, 0)" stroke-opacity="1.0" stroke-linecap="round" stroke-linejoin="round"/>
  </g>
</svg>
