<?xml version="1.0" ?>
<svg xmlns="http://www.w3.org/2000/svg" version="1.1" width="224" height="224">
  <defs/>
  <g>
    <path d="M 79.29608154296875 167.10337829589844 C 109.2878189086914 154.20277404785156 83.89521026611328 191.4307861328125 97.83560180664062 142.8907928466797" stroke-width="3.0" fill="none" stroke="rgb(0, 0, 0)" stroke-opacity="1.0" stroke-linecap="round" stroke-linejoin="round"/>
    <path d="M 113.34862518310547 163.49490356445312 C 40.60316848754883 154.22821044921875 83.7378158569336 189.8870849609375 124.29438018798828 169.99807739257812" stroke-width="3.0" fill="none" stroke="rgb(0, 0, 0)" stroke-opacity="1.0" stroke-linecap="round" stroke-linejoin="round"/>
    <path d="M 131.89364624023438 177.32533264160156 C 155.449462890625 182.62779235839844 142.17408752441406 171.9612579345703 142.37632751464844 167.95587158203125" stroke-width="3.0" fill="none" stroke="rgb(0, 0, 0)" stroke-opacity="1.0" stroke-linecap="round" stroke-linejoin="round"/>
    <path d="M 65.7223892211914 166.34829711914062 C 60.85514450073242 178.57872009277344 108.23646545410156 177.11279296875 84.91539764404297 175.0719451904297" stroke-width="3.0" fill="none" stroke="rgb(0, 0, 0)" stroke-opacity="1.0" stroke-linecap="round" stroke-linejoin="round"/>
    <path d="M 126.23040008544922 142.40029907226562 C 129.92369079589844 153.71485900878906 128.74807739257812 146.56927490234375 127.27445220947266 175.86917114257812" stroke-width="3.0" fill="none" stroke="rgb(0, 0, 0)" stroke-opacity="1.0" stroke-linecap="round" stroke-linejoin="round"/>
    <path d="M 122.65655517578125 170.72073364257812 C 112.97355651855469 152.0546417236328 92.14239501953125 163.00265502929688 82.47648620605469 167.5931396484375" stroke-width="3.0" fill="none" stroke="rgb(0, 0, 0)" stroke-opacity="1.0" stroke-linecap="round" stroke-linejoin="round"/>
    <path d="M 145.47732543945312 167.25723266601562 C 156.06138610839844 157.95448303222656 146.61488342285156 147.7787628173828 146.03350830078125 136.1378631591797" stroke-width="3.0" fill="none" stroke="rgb(0, 0, 0)" stroke-opacity="1.0" stroke-linecap="round" stroke-linejoin="round"/>
    <path d="M 76.38214874267578 164.79656982421875 C 90.66438293457031 179.49557495117188 153.75477600097656 161.02102661132812 88.4292221069336 164.89218139648438" stroke-width="3.0" fill="none" stroke="rgb(0, 0, 0)" stroke-opacity="1.0" stroke-linecap="round" stroke-linejoin="round"/>
    <path d="M 127.46160125732422 179.2102508544922 C 145.03311157226562 179.9084014892578 109.35266876220703 178.9302215576172 133.0010528564453 177.6384735107422" stroke-width="3.0" fill="none" stroke="rgb(0, 0, 0)" stroke-opacity="1.0" stroke-linecap="round" stroke-linejoin="round"/>
    <path d="M 146.0391845703125 101.1052017211914 C 130.35028076171875 124.57816314697266 157.22549438476562 90.20633697509766 140.12408447265625 176.08062744140625" stroke-width="3.0" fill="none" stroke="rgb(0, 0, 0)" stroke-opacity="1.0" stroke-linecap="round" stroke-linejoin="round"/>
    <path d="M 107.2179946899414 167.56390380859375 C 120.47843170166016 136.9384765625 107.50110626220703 139.41673278808594 123.59060668945312 174.2112579345703" stroke-width="3.0" fill="none" stroke="rgb(0, 0, 0)" stroke-opacity="1.0" stroke-linecap="round" stroke-linejoin="round"/>
    <path d="M 64.95869445800781 166.84324645996094 C 68.18248748779297 147.7726593017578 129.23880004882812 161.82640075683594 78.37112426757812 99.37657165527344" stroke-width="3.0" fill="none" stroke="rgb(0, 0, 0)" stroke-opacity="1.0" stroke-linecap="round" stroke-linejoin="round"/>
    <path d="M 73.8996353149414 165.45106506347656 C 99.1417007446289 156.31211853027344 115.62173461914062 175.51063537597656 81.99761962890625 167.98391723632812" stroke-width="3.0" fill="none" stroke="rgb(0, 0, 0)" stroke-opacity="1.0" stroke-linecap="round" stroke-linejoin="round"/>
    <path d="M 113.65178680419922 166.10888671875 C 58.07174301147461 170.4094696044922 73.03771209716797 156.60096740722656 111.8199234008789 158.6891326904297" stroke-width="3.0" fill="none" stroke="rgb(0, 0, 0)" stroke-opacity="1.0" stroke-linecap="round" stroke-linejoin="round"/>
    <path d="M 118.64884185791016 88.0608901977539 C 110.74425506591797 103.54485321044922 145.1213836669922 102.11790466308594 116.62043762207031 86.1236343383789" stroke-width="3.0" fill="none" stroke="rgb(0, 0, 0)" stroke-opacity="1.0" stroke-linecap="round" stroke-linejoin="round"/>
    <path d="M 133.1708984375 94.37724304199219 C 154.44778442382812 81.72105407714844 137.0025177001953 104.85089874267578 136.89205932617188 95.12975311279297" stroke-width="3.0" fill="none" stroke="rgb(0, 0, 0)" stroke-opacity="1.0" stroke-linecap="round" stroke-linejoin="round"/>
  </g>
</svg>
