<?xml version="1.0" ?>
<svg xmlns="http://www.w3.org/2000/svg" version="1.1" width="224" height="224">
  <defs/>
  <g>
    <path d="M 84.00008392333984 160.9998321533203 C 89.85502624511719 163.8888702392578 88.96770477294922 161.1882781982422 87.0943832397461 158.124267578125" stroke-width="3.0" fill="none" stroke="rgb(0, 0, 0)" stroke-opacity="1.0" stroke-linecap="round" stroke-linejoin="round"/>
    <path d="M 97.99964904785156 166.99986267089844 C 99.18429565429688 164.7969970703125 100.91181182861328 165.73094177246094 103.48735809326172 165.78346252441406" stroke-width="3.0" fill="none" stroke="rgb(0, 0, 0)" stroke-opacity="1.0" stroke-linecap="round" stroke-linejoin="round"/>
    <path d="M 140.00003051757812 161.0000457763672 C 139.55628967285156 163.86534118652344 140.8822021484375 161.07078552246094 145.47125244140625 166.47793579101562" stroke-width="3.0" fill="none" stroke="rgb(0, 0, 0)" stroke-opacity="1.0" stroke-linecap="round" stroke-linejoin="round"/>
    <path d="M 78.0000228881836 160.9999237060547 C 83.47432708740234 163.50479125976562 81.34800720214844 166.07928466796875 83.81515502929688 170.13893127441406" stroke-width="3.0" fill="none" stroke="rgb(0, 0, 0)" stroke-opacity="1.0" stroke-linecap="round" stroke-linejoin="round"/>
    <path d="M 133.9999542236328 144.0000762939453 C 131.68814086914062 141.52772521972656 130.95077514648438 142.7697296142578 137.5763702392578 147.99559020996094" stroke-width="3.0" fill="none" stroke="rgb(0, 0, 0)" stroke-opacity="1.0" stroke-linecap="round" stroke-linejoin="round"/>
    <path d="M 90.99998474121094 164.9999237060547 C 90.740966796875 167.09190368652344 88.0596923828125 170.50820922851562 86.60548400878906 165.06524658203125" stroke-width="3.0" fill="none" stroke="rgb(0, 0, 0)" stroke-opacity="1.0" stroke-linecap="round" stroke-linejoin="round"/>
    <path d="M 142.99993896484375 146.00003051757812 C 143.46139526367188 144.86695861816406 147.1007843017578 146.75050354003906 141.5117950439453 148.6781768798828" stroke-width="3.0" fill="none" stroke="rgb(0, 0, 0)" stroke-opacity="1.0" stroke-linecap="round" stroke-linejoin="round"/>
    <path d="M 84.00003051757812 170.00010681152344 C 90.11676025390625 169.12643432617188 88.15743255615234 171.28143310546875 84.69937133789062 172.0372314453125" stroke-width="3.0" fill="none" stroke="rgb(0, 0, 0)" stroke-opacity="1.0" stroke-linecap="round" stroke-linejoin="round"/>
    <path d="M 136.99945068359375 174.0000762939453 C 132.07281494140625 179.23719787597656 137.4674530029297 178.65396118164062 132.76904296875 176.63833618164062" stroke-width="3.0" fill="none" stroke="rgb(0, 0, 0)" stroke-opacity="1.0" stroke-linecap="round" stroke-linejoin="round"/>
    <path d="M 142.0000457763672 137.00009155273438 C 142.08921813964844 143.84593200683594 139.7099151611328 144.4214324951172 142.023681640625 144.95321655273438" stroke-width="3.0" fill="none" stroke="rgb(0, 0, 0)" stroke-opacity="1.0" stroke-linecap="round" stroke-linejoin="round"/>
    <path d="M 96.00009155273438 168.9999237060547 C 101.52151489257812 167.4512481689453 106.71663665771484 168.60694885253906 107.69820404052734 169.9906463623047" stroke-width="3.0" fill="none" stroke="rgb(0, 0, 0)" stroke-opacity="1.0" stroke-linecap="round" stroke-linejoin="round"/>
    <path d="M 80.00013732910156 158.0000762939453 C 81.07855987548828 156.7113494873047 81.92638397216797 154.363037109375 80.44686126708984 150.85397338867188" stroke-width="3.0" fill="none" stroke="rgb(0, 0, 0)" stroke-opacity="1.0" stroke-linecap="round" stroke-linejoin="round"/>
    <path d="M 85.99750518798828 161.9986572265625 C 85.26752471923828 163.75424194335938 86.99752044677734 159.15997314453125 87.88553619384766 161.38067626953125" stroke-width="3.0" fill="none" stroke="rgb(0, 0, 0)" stroke-opacity="1.0" stroke-linecap="round" stroke-linejoin="round"/>
    <path d="M 87.99971008300781 171.00022888183594 C 92.74152374267578 174.83580017089844 97.20121765136719 179.57420349121094 97.65608978271484 178.35665893554688" stroke-width="3.0" fill="none" stroke="rgb(0, 0, 0)" stroke-opacity="1.0" stroke-linecap="round" stroke-linejoin="round"/>
    <path d="M 123.0 85.00001525878906 C 125.3028793334961 82.48712921142578 130.78927612304688 86.40138244628906 133.2138671875 89.40708923339844" stroke-width="3.0" fill="none" stroke="rgb(0, 0, 0)" stroke-opacity="1.0" stroke-linecap="round" stroke-linejoin="round"/>
    <path d="M 142.99998474121094 87.9998779296875 C 148.0372314453125 86.89269256591797 147.48362731933594 88.6873779296875 151.04177856445312 93.3571548461914" stroke-width="3.0" fill="none" stroke="rgb(0, 0, 0)" stroke-opacity="1.0" stroke-linecap="round" stroke-linejoin="round"/>
  </g>
</svg>
