<?xml version="1.0" ?>
<svg xmlns="http://www.w3.org/2000/svg" version="1.1" width="224" height="224">
  <defs/>
  <g>
    <path d="M 83.19515228271484 170.94813537597656 C 117.47306823730469 167.6404266357422 90.94672393798828 183.55294799804688 104.25922393798828 141.90565490722656" stroke-width="3.0" fill="none" stroke="rgb(0, 0, 0)" stroke-opacity="1.0" stroke-linecap="round" stroke-linejoin="round"/>
    <path d="M 111.87726593017578 165.04786682128906 C 27.163084030151367 152.5418243408203 76.06367492675781 190.867431640625 120.51617431640625 174.88262939453125" stroke-width="3.0" fill="none" stroke="rgb(0, 0, 0)" stroke-opacity="1.0" stroke-linecap="round" stroke-linejoin="round"/>
    <path d="M 135.43089294433594 177.55209350585938 C 152.8383026123047 179.759033203125 137.2974853515625 169.41671752929688 140.71646118164062 168.43450927734375" stroke-width="3.0" fill="none" stroke="rgb(0, 0, 0)" stroke-opacity="1.0" stroke-linecap="round" stroke-linejoin="round"/>
    <path d="M 68.17675018310547 160.51336669921875 C 46.663963317871094 174.8864288330078 105.11671447753906 181.6947479248047 83.41895294189453 177.21536254882812" stroke-width="3.0" fill="none" stroke="rgb(0, 0, 0)" stroke-opacity="1.0" stroke-linecap="round" stroke-linejoin="round"/>
    <path d="M 129.24868774414062 143.7777557373047 C 127.13594055175781 159.82864379882812 129.59222412109375 147.8256072998047 128.8920135498047 171.6313018798828" stroke-width="3.0" fill="none" stroke="rgb(0, 0, 0)" stroke-opacity="1.0" stroke-linecap="round" stroke-linejoin="round"/>
    <path d="M 114.13336944580078 173.41001892089844 C 107.77323150634766 170.1297607421875 99.69831085205078 173.15528869628906 88.4993667602539 172.06739807128906" stroke-width="3.0" fill="none" stroke="rgb(0, 0, 0)" stroke-opacity="1.0" stroke-linecap="round" stroke-linejoin="round"/>
    <path d="M 142.2391357421875 164.86093139648438 C 157.71385192871094 163.3594970703125 145.1661376953125 151.79393005371094 146.3466339111328 142.2346954345703" stroke-width="3.0" fill="none" stroke="rgb(0, 0, 0)" stroke-opacity="1.0" stroke-linecap="round" stroke-linejoin="round"/>
    <path d="M 73.27570343017578 168.1155548095703 C 97.75617218017578 188.02572631835938 167.1729736328125 163.22705078125 75.43274688720703 158.92881774902344" stroke-width="3.0" fill="none" stroke="rgb(0, 0, 0)" stroke-opacity="1.0" stroke-linecap="round" stroke-linejoin="round"/>
    <path d="M 130.09933471679688 172.0053253173828 C 145.00335693359375 178.2484130859375 116.94892883300781 180.62991333007812 141.0382843017578 178.7177734375" stroke-width="3.0" fill="none" stroke="rgb(0, 0, 0)" stroke-opacity="1.0" stroke-linecap="round" stroke-linejoin="round"/>
    <path d="M 148.3501434326172 79.28006744384766 C 124.44710540771484 135.02720642089844 158.16433715820312 78.50480651855469 141.26101684570312 168.41607666015625" stroke-width="3.0" fill="none" stroke="rgb(0, 0, 0)" stroke-opacity="1.0" stroke-linecap="round" stroke-linejoin="round"/>
    <path d="M 107.83219909667969 169.2640380859375 C 104.27635192871094 153.66343688964844 91.75532531738281 153.2727813720703 127.41337585449219 175.4475860595703" stroke-width="3.0" fill="none" stroke="rgb(0, 0, 0)" stroke-opacity="1.0" stroke-linecap="round" stroke-linejoin="round"/>
    <path d="M 69.60202026367188 156.30775451660156 C 63.03314208984375 151.12367248535156 135.45648193359375 145.8499755859375 76.11650848388672 99.6228256225586" stroke-width="3.0" fill="none" stroke="rgb(0, 0, 0)" stroke-opacity="1.0" stroke-linecap="round" stroke-linejoin="round"/>
    <path d="M 76.47216796875 165.9319610595703 C 104.0636978149414 175.0 132.98313903808594 170.7778778076172 79.58460998535156 161.95704650878906" stroke-width="3.0" fill="none" stroke="rgb(0, 0, 0)" stroke-opacity="1.0" stroke-linecap="round" stroke-linejoin="round"/>
    <path d="M 115.53272247314453 166.04806518554688 C 49.537784576416016 170.60421752929688 67.15025329589844 147.7771759033203 109.35344696044922 161.95541381835938" stroke-width="3.0" fill="none" stroke="rgb(0, 0, 0)" stroke-opacity="1.0" stroke-linecap="round" stroke-linejoin="round"/>
    <path d="M 118.2522201538086 82.62700653076172 C 113.1777572631836 110.53502655029297 149.03851318359375 101.34230041503906 116.65984344482422 81.10697937011719" stroke-width="3.0" fill="none" stroke="rgb(0, 0, 0)" stroke-opacity="1.0" stroke-linecap="round" stroke-linejoin="round"/>
    <path d="M 120.12501525878906 90.7666015625 C 167.15591430664062 77.04593658447266 133.23646545410156 106.42554473876953 135.43270874023438 95.64510345458984" stroke-width="3.0" fill="none" stroke="rgb(0, 0, 0)" stroke-opacity="1.0" stroke-linecap="round" stroke-linejoin="round"/>
  </g>
</svg>
