<?xml version="1.0" ?>
<svg xmlns="http://www.w3.org/2000/svg" version="1.1" width="224" height="224">
  <defs/>
  <g>
    <path d="M 79.01939392089844 166.931640625 C 109.1223373413086 154.2307891845703 84.69667053222656 192.4097900390625 97.36153411865234 142.67520141601562" stroke-width="3.0" fill="none" stroke="rgb(0, 0, 0)" stroke-opacity="1.0" stroke-linecap="round" stroke-linejoin="round"/>
    <path d="M 111.80278778076172 162.75848388671875 C 38.263065338134766 153.11422729492188 82.76426696777344 189.070556640625 124.12442016601562 169.28274536132812" stroke-width="3.0" fill="none" stroke="rgb(0, 0, 0)" stroke-opacity="1.0" stroke-linecap="round" stroke-linejoin="round"/>
    <path d="M 131.64511108398438 178.0164337158203 C 155.3530731201172 181.8166961669922 140.0138702392578 171.65634155273438 142.9990692138672 167.99232482910156" stroke-width="3.0" fill="none" stroke="rgb(0, 0, 0)" stroke-opacity="1.0" stroke-linecap="round" stroke-linejoin="round"/>
    <path d="M 65.17729187011719 165.98681640625 C 59.42485809326172 178.56338500976562 106.8967056274414 175.18174743652344 84.6086654663086 175.1676483154297" stroke-width="3.0" fill="none" stroke="rgb(0, 0, 0)" stroke-opacity="1.0" stroke-linecap="round" stroke-linejoin="round"/>
    <path d="M 127.6307144165039 144.4569549560547 C 127.14736938476562 154.22682189941406 130.13636779785156 146.31625366210938 128.85586547851562 174.57443237304688" stroke-width="3.0" fill="none" stroke="rgb(0, 0, 0)" stroke-opacity="1.0" stroke-linecap="round" stroke-linejoin="round"/>
    <path d="M 124.38691711425781 169.2933349609375 C 114.67239379882812 153.57070922851562 91.58039855957031 163.65512084960938 79.76795196533203 167.04859924316406" stroke-width="3.0" fill="none" stroke="rgb(0, 0, 0)" stroke-opacity="1.0" stroke-linecap="round" stroke-linejoin="round"/>
    <path d="M 145.0958709716797 164.68405151367188 C 157.2000732421875 159.33682250976562 146.25779724121094 149.30865478515625 145.4192657470703 136.23358154296875" stroke-width="3.0" fill="none" stroke="rgb(0, 0, 0)" stroke-opacity="1.0" stroke-linecap="round" stroke-linejoin="round"/>
    <path d="M 74.00664520263672 164.1883087158203 C 90.59541320800781 179.07823181152344 153.56149291992188 162.2913055419922 90.08403778076172 165.76309204101562" stroke-width="3.0" fill="none" stroke="rgb(0, 0, 0)" stroke-opacity="1.0" stroke-linecap="round" stroke-linejoin="round"/>
    <path d="M 128.17820739746094 177.97494506835938 C 145.13034057617188 177.443115234375 109.56090545654297 176.7769317626953 134.39939880371094 176.22470092773438" stroke-width="3.0" fill="none" stroke="rgb(0, 0, 0)" stroke-opacity="1.0" stroke-linecap="round" stroke-linejoin="round"/>
    <path d="M 144.0054168701172 100.66626739501953 C 129.8224334716797 125.89082336425781 156.8645477294922 93.5588607788086 140.26512145996094 175.5926055908203" stroke-width="3.0" fill="none" stroke="rgb(0, 0, 0)" stroke-opacity="1.0" stroke-linecap="round" stroke-linejoin="round"/>
    <path d="M 108.4983901977539 167.93553161621094 C 120.37461853027344 137.49099731445312 106.45486450195312 139.73683166503906 122.32281494140625 172.54722595214844" stroke-width="3.0" fill="none" stroke="rgb(0, 0, 0)" stroke-opacity="1.0" stroke-linecap="round" stroke-linejoin="round"/>
    <path d="M 64.58026885986328 165.15232849121094 C 68.18382263183594 145.6984405517578 130.83624267578125 161.50189208984375 78.59097290039062 98.82150268554688" stroke-width="3.0" fill="none" stroke="rgb(0, 0, 0)" stroke-opacity="1.0" stroke-linecap="round" stroke-linejoin="round"/>
    <path d="M 75.15433502197266 166.2366485595703 C 98.66514587402344 158.051513671875 114.7801513671875 175.48861694335938 82.2533950805664 167.72801208496094" stroke-width="3.0" fill="none" stroke="rgb(0, 0, 0)" stroke-opacity="1.0" stroke-linecap="round" stroke-linejoin="round"/>
    <path d="M 111.99829864501953 167.3637237548828 C 59.62308120727539 172.87574768066406 74.62515258789062 155.62319946289062 110.8580093383789 157.49961853027344" stroke-width="3.0" fill="none" stroke="rgb(0, 0, 0)" stroke-opacity="1.0" stroke-linecap="round" stroke-linejoin="round"/>
    <path d="M 117.70728302001953 87.69864654541016 C 111.30593872070312 103.6348648071289 144.07626342773438 101.4803695678711 117.90861511230469 84.16810607910156" stroke-width="3.0" fill="none" stroke="rgb(0, 0, 0)" stroke-opacity="1.0" stroke-linecap="round" stroke-linejoin="round"/>
    <path d="M 132.40748596191406 93.75877380371094 C 154.42303466796875 80.4832992553711 137.94882202148438 105.12608337402344 136.09849548339844 94.26123809814453" stroke-width="3.0" fill="none" stroke="rgb(0, 0, 0)" stroke-opacity="1.0" stroke-linecap="round" stroke-linejoin="round"/>
  </g>
</svg>
