<?xml version="1.0" ?>
<svg xmlns="http://www.w3.org/2000/svg" version="1.1" width="224" height="224">
  <defs/>
  <g>
    <path d="M 78.37466430664062 166.35963439941406 C 108.85333251953125 154.09011840820312 85.42796325683594 193.0653533935547 98.9322738647461 144.67071533203125" stroke-width="3.0" fill="none" stroke="rgb(0, 0, 0)" stroke-opacity="1.0" stroke-linecap="round" stroke-linejoin="round"/>
    <path d="M 113.95116424560547 163.0435028076172 C 35.58089065551758 152.2038116455078 81.37943267822266 188.57313537597656 125.89332580566406 170.36769104003906" stroke-width="3.0" fill="none" stroke="rgb(0, 0, 0)" stroke-opacity="1.0" stroke-linecap="round" stroke-linejoin="round"/>
    <path d="M 129.8340301513672 178.79910278320312 C 154.9933319091797 180.25582885742188 138.70718383789062 169.6115264892578 142.08670043945312 166.8291473388672" stroke-width="3.0" fill="none" stroke="rgb(0, 0, 0)" stroke-opacity="1.0" stroke-linecap="round" stroke-linejoin="round"/>
    <path d="M 65.52021026611328 165.83413696289062 C 59.90250015258789 179.26089477539062 106.5814437866211 174.95687866210938 85.02582550048828 175.7772674560547" stroke-width="3.0" fill="none" stroke="rgb(0, 0, 0)" stroke-opacity="1.0" stroke-linecap="round" stroke-linejoin="round"/>
    <path d="M 129.44615173339844 144.9095916748047 C 127.87831115722656 152.44503784179688 134.56710815429688 142.62095642089844 131.64981079101562 173.6864013671875" stroke-width="3.0" fill="none" stroke="rgb(0, 0, 0)" stroke-opacity="1.0" stroke-linecap="round" stroke-linejoin="round"/>
    <path d="M 123.05513000488281 169.894287109375 C 116.18099212646484 155.0813446044922 91.8338851928711 164.47422790527344 77.79727935791016 166.74063110351562" stroke-width="3.0" fill="none" stroke="rgb(0, 0, 0)" stroke-opacity="1.0" stroke-linecap="round" stroke-linejoin="round"/>
    <path d="M 147.3680877685547 164.94049072265625 C 156.99237060546875 159.96510314941406 144.064453125 152.12391662597656 145.083984375 137.56883239746094" stroke-width="3.0" fill="none" stroke="rgb(0, 0, 0)" stroke-opacity="1.0" stroke-linecap="round" stroke-linejoin="round"/>
    <path d="M 73.39793395996094 164.71534729003906 C 89.57515716552734 179.6977996826172 150.34739685058594 162.53138732910156 89.58719635009766 164.48257446289062" stroke-width="3.0" fill="none" stroke="rgb(0, 0, 0)" stroke-opacity="1.0" stroke-linecap="round" stroke-linejoin="round"/>
    <path d="M 128.24359130859375 175.41372680664062 C 145.2958984375 177.24742126464844 109.63469696044922 175.73068237304688 133.6046600341797 176.2787322998047" stroke-width="3.0" fill="none" stroke="rgb(0, 0, 0)" stroke-opacity="1.0" stroke-linecap="round" stroke-linejoin="round"/>
    <path d="M 144.88027954101562 102.12824249267578 C 127.65589904785156 127.16217041015625 156.53587341308594 97.19914245605469 139.19107055664062 174.47341918945312" stroke-width="3.0" fill="none" stroke="rgb(0, 0, 0)" stroke-opacity="1.0" stroke-linecap="round" stroke-linejoin="round"/>
    <path d="M 108.52239227294922 167.310546875 C 117.96524047851562 136.1918182373047 107.2964096069336 137.32339477539062 121.79405212402344 176.63270568847656" stroke-width="3.0" fill="none" stroke="rgb(0, 0, 0)" stroke-opacity="1.0" stroke-linecap="round" stroke-linejoin="round"/>
    <path d="M 66.77290344238281 166.264404296875 C 69.34166717529297 146.8005828857422 131.65924072265625 162.4182586669922 77.34716796875 100.10802459716797" stroke-width="3.0" fill="none" stroke="rgb(0, 0, 0)" stroke-opacity="1.0" stroke-linecap="round" stroke-linejoin="round"/>
    <path d="M 77.49783325195312 164.61273193359375 C 98.91149139404297 156.7763671875 114.17391967773438 173.57171630859375 83.34616088867188 167.00413513183594" stroke-width="3.0" fill="none" stroke="rgb(0, 0, 0)" stroke-opacity="1.0" stroke-linecap="round" stroke-linejoin="round"/>
    <path d="M 112.26663208007812 166.90956115722656 C 60.50060272216797 171.0610809326172 73.2586441040039 152.05824279785156 109.36274719238281 156.3021240234375" stroke-width="3.0" fill="none" stroke="rgb(0, 0, 0)" stroke-opacity="1.0" stroke-linecap="round" stroke-linejoin="round"/>
    <path d="M 117.43107604980469 86.6213607788086 C 110.34550476074219 104.51112365722656 142.7373809814453 101.18966674804688 114.65040588378906 85.6227798461914" stroke-width="3.0" fill="none" stroke="rgb(0, 0, 0)" stroke-opacity="1.0" stroke-linecap="round" stroke-linejoin="round"/>
    <path d="M 131.43202209472656 96.27906799316406 C 154.57199096679688 81.1347885131836 137.63665771484375 104.50545501708984 134.86463928222656 93.34071350097656" stroke-width="3.0" fill="none" stroke="rgb(0, 0, 0)" stroke-opacity="1.0" stroke-linecap="round" stroke-linejoin="round"/>
  </g>
</svg>
