<?xml version="1.0" ?>
<svg xmlns="http://www.w3.org/2000/svg" version="1.1" width="224" height="224">
  <defs/>
  <g>
    <path d="M 83.7696762084961 165.4304962158203 C 153.3471221923828 164.68405151367188 103.3492660522461 173.40379333496094 120.3486099243164 139.74842834472656" stroke-width="3.0" fill="none" stroke="rgb(0, 0, 0)" stroke-opacity="1.0" stroke-linecap="round" stroke-linejoin="round"/>
    <path d="M 108.80731964111328 164.13690185546875 C 42.97470474243164 158.42042541503906 92.2186279296875 183.05169677734375 121.81088256835938 170.68370056152344" stroke-width="3.0" fill="none" stroke="rgb(0, 0, 0)" stroke-opacity="1.0" stroke-linecap="round" stroke-linejoin="round"/>
    <path d="M 121.6479263305664 179.203857421875 C 151.9791259765625 181.75294494628906 137.21197509765625 174.6516571044922 140.26763916015625 167.09754943847656" stroke-width="3.0" fill="none" stroke="rgb(0, 0, 0)" stroke-opacity="1.0" stroke-linecap="round" stroke-linejoin="round"/>
    <path d="M 92.44210815429688 150.30393981933594 C 15.889101028442383 170.42738342285156 118.18949890136719 197.4473876953125 121.55018615722656 169.31646728515625" stroke-width="3.0" fill="none" stroke="rgb(0, 0, 0)" stroke-opacity="1.0" stroke-linecap="round" stroke-linejoin="round"/>
    <path d="M 128.61892700195312 143.89767456054688 C 130.45628356933594 167.13296508789062 127.4936752319336 161.5923309326172 129.11769104003906 175.9180908203125" stroke-width="3.0" fill="none" stroke="rgb(0, 0, 0)" stroke-opacity="1.0" stroke-linecap="round" stroke-linejoin="round"/>
    <path d="M 125.03022766113281 177.748046875 C 123.39753723144531 171.3065185546875 105.41091918945312 183.8778076171875 84.355712890625 179.7928466796875" stroke-width="3.0" fill="none" stroke="rgb(0, 0, 0)" stroke-opacity="1.0" stroke-linecap="round" stroke-linejoin="round"/>
    <path d="M 145.5879364013672 165.01406860351562 C 154.9500732421875 158.21070861816406 146.67376708984375 156.77149963378906 145.69996643066406 135.7115020751953" stroke-width="3.0" fill="none" stroke="rgb(0, 0, 0)" stroke-opacity="1.0" stroke-linecap="round" stroke-linejoin="round"/>
    <path d="M 75.68597412109375 168.5880889892578 C 96.77594757080078 173.6896514892578 152.71339416503906 170.06637573242188 79.34827423095703 169.68487548828125" stroke-width="3.0" fill="none" stroke="rgb(0, 0, 0)" stroke-opacity="1.0" stroke-linecap="round" stroke-linejoin="round"/>
    <path d="M 122.7190170288086 176.07313537597656 C 122.19986724853516 178.05126953125 118.1025161743164 161.14773559570312 117.83905792236328 168.0802764892578" stroke-width="3.0" fill="none" stroke="rgb(0, 0, 0)" stroke-opacity="1.0" stroke-linecap="round" stroke-linejoin="round"/>
    <path d="M 149.6060791015625 80.70539855957031 C 126.66983795166016 132.65731811523438 161.4507598876953 79.87828063964844 137.0544891357422 174.8513641357422" stroke-width="3.0" fill="none" stroke="rgb(0, 0, 0)" stroke-opacity="1.0" stroke-linecap="round" stroke-linejoin="round"/>
    <path d="M 117.63731384277344 165.39210510253906 C 98.0022964477539 172.88449096679688 100.82292938232422 147.74594116210938 116.23954772949219 170.72634887695312" stroke-width="3.0" fill="none" stroke="rgb(0, 0, 0)" stroke-opacity="1.0" stroke-linecap="round" stroke-linejoin="round"/>
    <path d="M 93.83554077148438 152.43397521972656 C 97.51473999023438 195.24063110351562 108.16371154785156 78.5533218383789 70.73228454589844 103.81324005126953" stroke-width="3.0" fill="none" stroke="rgb(0, 0, 0)" stroke-opacity="1.0" stroke-linecap="round" stroke-linejoin="round"/>
    <path d="M 95.09868621826172 161.00733947753906 C 112.9893798828125 172.61398315429688 143.06776428222656 175.10789489746094 74.66192626953125 170.5641632080078" stroke-width="3.0" fill="none" stroke="rgb(0, 0, 0)" stroke-opacity="1.0" stroke-linecap="round" stroke-linejoin="round"/>
    <path d="M 113.85438537597656 158.89657592773438 C 39.087032318115234 184.2141571044922 99.41312408447266 144.38124084472656 113.90909576416016 165.5189971923828" stroke-width="3.0" fill="none" stroke="rgb(0, 0, 0)" stroke-opacity="1.0" stroke-linecap="round" stroke-linejoin="round"/>
    <path d="M 117.75850677490234 82.80349731445312 C 109.67658233642578 101.02230834960938 155.78082275390625 105.52525329589844 115.22606658935547 81.24918365478516" stroke-width="3.0" fill="none" stroke="rgb(0, 0, 0)" stroke-opacity="1.0" stroke-linecap="round" stroke-linejoin="round"/>
    <path d="M 116.32005310058594 100.94187927246094 C 144.73793029785156 68.68428039550781 164.16368103027344 110.20822143554688 121.84960174560547 99.49164581298828" stroke-width="3.0" fill="none" stroke="rgb(0, 0, 0)" stroke-opacity="1.0" stroke-linecap="round" stroke-linejoin="round"/>
  </g>
</svg>
