<?xml version="1.0" ?>
<svg xmlns="http://www.w3.org/2000/svg" version="1.1" width="224" height="224">
  <defs/>
  <g>
    <path d="M 81.125 167.02175903320312 C 123.66320037841797 170.190673828125 82.40007781982422 183.18756103515625 99.66079711914062 131.5504913330078" stroke-width="3.0" fill="none" stroke="rgb(0, 0, 0)" stroke-opacity="1.0" stroke-linecap="round" stroke-linejoin="round"/>
    <path d="M 118.9364242553711 172.26441955566406 C 38.62849426269531 152.0014190673828 85.0042953491211 184.21852111816406 122.8482437133789 169.5366973876953" stroke-width="3.0" fill="none" stroke="rgb(0, 0, 0)" stroke-opacity="1.0" stroke-linecap="round" stroke-linejoin="round"/>
    <path d="M 121.45955657958984 177.66812133789062 C 155.1970672607422 182.91970825195312 139.5963592529297 167.52513122558594 141.97418212890625 168.62464904785156" stroke-width="3.0" fill="none" stroke="rgb(0, 0, 0)" stroke-opacity="1.0" stroke-linecap="round" stroke-linejoin="round"/>
    <path d="M 72.0408935546875 153.8799591064453 C 36.35295486450195 182.53396606445312 129.79827880859375 186.80105590820312 118.19332122802734 167.755615234375" stroke-width="3.0" fill="none" stroke="rgb(0, 0, 0)" stroke-opacity="1.0" stroke-linecap="round" stroke-linejoin="round"/>
    <path d="M 124.64734649658203 139.838134765625 C 130.369384765625 154.4390106201172 123.39599609375 152.29461669921875 127.181884765625 179.07469177246094" stroke-width="3.0" fill="none" stroke="rgb(0, 0, 0)" stroke-opacity="1.0" stroke-linecap="round" stroke-linejoin="round"/>
    <path d="M 120.4489974975586 166.689697265625 C 118.69477844238281 178.52749633789062 95.49093627929688 177.91165161132812 89.69725799560547 178.735107421875" stroke-width="3.0" fill="none" stroke="rgb(0, 0, 0)" stroke-opacity="1.0" stroke-linecap="round" stroke-linejoin="round"/>
    <path d="M 143.58377075195312 161.70616149902344 C 157.34889221191406 161.7355194091797 144.9568634033203 153.31214904785156 142.25865173339844 136.998291015625" stroke-width="3.0" fill="none" stroke="rgb(0, 0, 0)" stroke-opacity="1.0" stroke-linecap="round" stroke-linejoin="round"/>
    <path d="M 78.73263549804688 167.80172729492188 C 97.77716827392578 178.8846893310547 158.16285705566406 160.1519317626953 79.08653259277344 164.58982849121094" stroke-width="3.0" fill="none" stroke="rgb(0, 0, 0)" stroke-opacity="1.0" stroke-linecap="round" stroke-linejoin="round"/>
    <path d="M 135.16445922851562 165.7978515625 C 147.467041015625 181.01988220214844 123.72265625 173.0406951904297 139.0532684326172 177.03724670410156" stroke-width="3.0" fill="none" stroke="rgb(0, 0, 0)" stroke-opacity="1.0" stroke-linecap="round" stroke-linejoin="round"/>
    <path d="M 148.85865783691406 80.93663787841797 C 131.47872924804688 133.95864868164062 157.22654724121094 72.86824798583984 141.63043212890625 166.81556701660156" stroke-width="3.0" fill="none" stroke="rgb(0, 0, 0)" stroke-opacity="1.0" stroke-linecap="round" stroke-linejoin="round"/>
    <path d="M 114.66867065429688 166.03402709960938 C 101.23688507080078 154.71363830566406 88.69410705566406 152.1812744140625 123.41098022460938 173.992431640625" stroke-width="3.0" fill="none" stroke="rgb(0, 0, 0)" stroke-opacity="1.0" stroke-linecap="round" stroke-linejoin="round"/>
    <path d="M 75.7639389038086 151.0611114501953 C 62.87601852416992 156.30516052246094 134.09996032714844 133.07418823242188 72.48561096191406 102.2767562866211" stroke-width="3.0" fill="none" stroke="rgb(0, 0, 0)" stroke-opacity="1.0" stroke-linecap="round" stroke-linejoin="round"/>
    <path d="M 93.34844207763672 158.89356994628906 C 117.29290771484375 166.47140502929688 146.91600036621094 154.38912963867188 89.86949920654297 162.38815307617188" stroke-width="3.0" fill="none" stroke="rgb(0, 0, 0)" stroke-opacity="1.0" stroke-linecap="round" stroke-linejoin="round"/>
    <path d="M 110.7588119506836 169.26718139648438 C 49.10926818847656 176.41114807128906 74.6561279296875 155.85227966308594 115.44497680664062 166.35018920898438" stroke-width="3.0" fill="none" stroke="rgb(0, 0, 0)" stroke-opacity="1.0" stroke-linecap="round" stroke-linejoin="round"/>
    <path d="M 115.99639892578125 81.81256103515625 C 108.34201049804688 101.90167236328125 160.40037536621094 104.66368865966797 115.32373809814453 79.2684555053711" stroke-width="3.0" fill="none" stroke="rgb(0, 0, 0)" stroke-opacity="1.0" stroke-linecap="round" stroke-linejoin="round"/>
    <path d="M 116.66924285888672 97.26611328125 C 162.62005615234375 70.07975006103516 136.99708557128906 111.9165267944336 140.53582763671875 93.0230484008789" stroke-width="3.0" fill="none" stroke="rgb(0, 0, 0)" stroke-opacity="1.0" stroke-linecap="round" stroke-linejoin="round"/>
  </g>
</svg>
