<?xml version="1.0" ?>
<svg xmlns="http://www.w3.org/2000/svg" version="1.1" width="224" height="224">
  <defs/>
  <g>
    <path d="M 80.41188049316406 163.5379180908203 C 142.7679901123047 160.67672729492188 101.68850708007812 160.69287109375 116.41841888427734 140.0675048828125" stroke-width="3.0" fill="none" stroke="rgb(0, 0, 0)" stroke-opacity="1.0" stroke-linecap="round" stroke-linejoin="round"/>
    <path d="M 116.7872085571289 166.781494140625 C 37.21419906616211 155.4693145751953 83.32599639892578 183.9763641357422 118.28913879394531 169.70602416992188" stroke-width="3.0" fill="none" stroke="rgb(0, 0, 0)" stroke-opacity="1.0" stroke-linecap="round" stroke-linejoin="round"/>
    <path d="M 124.79812622070312 178.20921325683594 C 154.19577026367188 181.0110321044922 140.59364318847656 171.2930450439453 143.4417266845703 166.82498168945312" stroke-width="3.0" fill="none" stroke="rgb(0, 0, 0)" stroke-opacity="1.0" stroke-linecap="round" stroke-linejoin="round"/>
    <path d="M 94.63653564453125 148.710693359375 C 13.500502586364746 172.8000030517578 118.01207733154297 189.13014221191406 121.63108825683594 167.9661865234375" stroke-width="3.0" fill="none" stroke="rgb(0, 0, 0)" stroke-opacity="1.0" stroke-linecap="round" stroke-linejoin="round"/>
    <path d="M 127.49628448486328 145.30133056640625 C 130.59950256347656 161.14712524414062 128.18638610839844 148.49203491210938 131.19070434570312 178.7876739501953" stroke-width="3.0" fill="none" stroke="rgb(0, 0, 0)" stroke-opacity="1.0" stroke-linecap="round" stroke-linejoin="round"/>
    <path d="M 125.30757141113281 168.15858459472656 C 132.1251678466797 173.41441345214844 100.76396942138672 181.7078857421875 78.0422592163086 176.65126037597656" stroke-width="3.0" fill="none" stroke="rgb(0, 0, 0)" stroke-opacity="1.0" stroke-linecap="round" stroke-linejoin="round"/>
    <path d="M 147.27003479003906 165.4384307861328 C 157.43093872070312 162.47262573242188 146.4462432861328 151.05999755859375 146.21420288085938 135.38873291015625" stroke-width="3.0" fill="none" stroke="rgb(0, 0, 0)" stroke-opacity="1.0" stroke-linecap="round" stroke-linejoin="round"/>
    <path d="M 75.33284759521484 166.2928009033203 C 87.31786346435547 171.40042114257812 141.063232421875 162.8027801513672 82.59380340576172 160.86643981933594" stroke-width="3.0" fill="none" stroke="rgb(0, 0, 0)" stroke-opacity="1.0" stroke-linecap="round" stroke-linejoin="round"/>
    <path d="M 125.18655395507812 177.48495483398438 C 121.22022247314453 179.4684295654297 113.48509216308594 163.67384338378906 119.66010284423828 170.13919067382812" stroke-width="3.0" fill="none" stroke="rgb(0, 0, 0)" stroke-opacity="1.0" stroke-linecap="round" stroke-linejoin="round"/>
    <path d="M 151.29867553710938 81.86102294921875 C 124.69865417480469 138.32229614257812 156.78013610839844 76.72859191894531 139.00242614746094 173.28036499023438" stroke-width="3.0" fill="none" stroke="rgb(0, 0, 0)" stroke-opacity="1.0" stroke-linecap="round" stroke-linejoin="round"/>
    <path d="M 112.15554809570312 171.09910583496094 C 95.78060913085938 171.17034912109375 92.8646240234375 146.5023193359375 122.83077239990234 169.55697631835938" stroke-width="3.0" fill="none" stroke="rgb(0, 0, 0)" stroke-opacity="1.0" stroke-linecap="round" stroke-linejoin="round"/>
    <path d="M 95.03958129882812 150.9272003173828 C 93.7106704711914 192.0727996826172 109.2649154663086 80.79082489013672 73.28949737548828 102.25511932373047" stroke-width="3.0" fill="none" stroke="rgb(0, 0, 0)" stroke-opacity="1.0" stroke-linecap="round" stroke-linejoin="round"/>
    <path d="M 87.48078155517578 163.1929473876953 C 117.93484497070312 167.98899841308594 151.8806610107422 168.4525146484375 87.09140014648438 171.095458984375" stroke-width="3.0" fill="none" stroke="rgb(0, 0, 0)" stroke-opacity="1.0" stroke-linecap="round" stroke-linejoin="round"/>
    <path d="M 107.74232482910156 167.91946411132812 C 44.710243225097656 178.8560333251953 93.12963104248047 141.53231811523438 103.0346908569336 167.76893615722656" stroke-width="3.0" fill="none" stroke="rgb(0, 0, 0)" stroke-opacity="1.0" stroke-linecap="round" stroke-linejoin="round"/>
    <path d="M 118.27703857421875 82.04721069335938 C 114.23551177978516 99.9429702758789 167.0234375 103.67528533935547 117.83100128173828 80.9256820678711" stroke-width="3.0" fill="none" stroke="rgb(0, 0, 0)" stroke-opacity="1.0" stroke-linecap="round" stroke-linejoin="round"/>
    <path d="M 119.8402328491211 100.6513671875 C 151.35125732421875 68.88955688476562 164.37588500976562 106.64259338378906 125.88002014160156 98.62107849121094" stroke-width="3.0" fill="none" stroke="rgb(0, 0, 0)" stroke-opacity="1.0" stroke-linecap="round" stroke-linejoin="round"/>
  </g>
</svg>
