<?xml version="1.0" ?>
<svg xmlns="http://www.w3.org/2000/svg" version="1.1" width="224" height="224">
  <defs/>
  <g>
    <path d="M 78.09442901611328 164.1246337890625 C 145.86659240722656 163.208251953125 100.89521789550781 171.18756103515625 117.4900131225586 138.5330352783203" stroke-width="3.0" fill="none" stroke="rgb(0, 0, 0)" stroke-opacity="1.0" stroke-linecap="round" stroke-linejoin="round"/>
    <path d="M 115.65563201904297 173.62762451171875 C 41.29759216308594 160.44757080078125 91.01568603515625 181.33078002929688 119.16203308105469 169.05206298828125" stroke-width="3.0" fill="none" stroke="rgb(0, 0, 0)" stroke-opacity="1.0" stroke-linecap="round" stroke-linejoin="round"/>
    <path d="M 125.9728775024414 179.6334228515625 C 159.6317138671875 180.21533203125 141.93968200683594 178.5595245361328 140.876708984375 170.9109649658203" stroke-width="3.0" fill="none" stroke="rgb(0, 0, 0)" stroke-opacity="1.0" stroke-linecap="round" stroke-linejoin="round"/>
    <path d="M 94.55451202392578 149.57199096679688 C 14.610960960388184 174.84169006347656 119.64988708496094 193.69857788085938 120.74742126464844 170.8045196533203" stroke-width="3.0" fill="none" stroke="rgb(0, 0, 0)" stroke-opacity="1.0" stroke-linecap="round" stroke-linejoin="round"/>
    <path d="M 130.25888061523438 142.04469299316406 C 131.28988647460938 166.51510620117188 127.67259979248047 156.07362365722656 128.5425567626953 175.36846923828125" stroke-width="3.0" fill="none" stroke="rgb(0, 0, 0)" stroke-opacity="1.0" stroke-linecap="round" stroke-linejoin="round"/>
    <path d="M 120.80130767822266 174.46640014648438 C 128.07205200195312 174.06610107421875 101.88346099853516 184.32687377929688 83.587646484375 179.2095184326172" stroke-width="3.0" fill="none" stroke="rgb(0, 0, 0)" stroke-opacity="1.0" stroke-linecap="round" stroke-linejoin="round"/>
    <path d="M 144.90438842773438 165.39398193359375 C 150.58103942871094 161.01406860351562 147.0356903076172 154.64234924316406 144.03121948242188 140.76760864257812" stroke-width="3.0" fill="none" stroke="rgb(0, 0, 0)" stroke-opacity="1.0" stroke-linecap="round" stroke-linejoin="round"/>
    <path d="M 75.140380859375 165.0281982421875 C 92.47636413574219 174.91583251953125 144.02711486816406 165.62803649902344 83.0243911743164 161.05064392089844" stroke-width="3.0" fill="none" stroke="rgb(0, 0, 0)" stroke-opacity="1.0" stroke-linecap="round" stroke-linejoin="round"/>
    <path d="M 126.79983520507812 179.46298217773438 C 120.58529663085938 178.72752380371094 115.43077087402344 163.2084503173828 117.9104232788086 172.38194274902344" stroke-width="3.0" fill="none" stroke="rgb(0, 0, 0)" stroke-opacity="1.0" stroke-linecap="round" stroke-linejoin="round"/>
    <path d="M 149.14572143554688 80.74832916259766 C 126.05554962158203 133.9969940185547 161.9255828857422 77.08824157714844 139.24234008789062 178.39956665039062" stroke-width="3.0" fill="none" stroke="rgb(0, 0, 0)" stroke-opacity="1.0" stroke-linecap="round" stroke-linejoin="round"/>
    <path d="M 110.6817855834961 165.9211883544922 C 95.73798370361328 179.59054565429688 98.09083557128906 149.597412109375 119.85368347167969 167.09878540039062" stroke-width="3.0" fill="none" stroke="rgb(0, 0, 0)" stroke-opacity="1.0" stroke-linecap="round" stroke-linejoin="round"/>
    <path d="M 92.21475219726562 154.37574768066406 C 97.24051666259766 194.9358367919922 106.7929916381836 76.4627685546875 72.34925842285156 102.39276123046875" stroke-width="3.0" fill="none" stroke="rgb(0, 0, 0)" stroke-opacity="1.0" stroke-linecap="round" stroke-linejoin="round"/>
    <path d="M 91.03136444091797 158.49656677246094 C 120.22948455810547 166.71067810058594 147.81785583496094 174.9384307861328 84.49313354492188 166.48876953125" stroke-width="3.0" fill="none" stroke="rgb(0, 0, 0)" stroke-opacity="1.0" stroke-linecap="round" stroke-linejoin="round"/>
    <path d="M 112.27970886230469 159.90585327148438 C 38.6378288269043 178.43310546875 99.6606674194336 144.57315063476562 104.07624053955078 167.12672424316406" stroke-width="3.0" fill="none" stroke="rgb(0, 0, 0)" stroke-opacity="1.0" stroke-linecap="round" stroke-linejoin="round"/>
    <path d="M 117.32674407958984 80.6496810913086 C 108.93743896484375 103.3965072631836 163.16693115234375 105.94416809082031 116.50486755371094 79.60192108154297" stroke-width="3.0" fill="none" stroke="rgb(0, 0, 0)" stroke-opacity="1.0" stroke-linecap="round" stroke-linejoin="round"/>
    <path d="M 116.97129821777344 97.21330261230469 C 147.41224670410156 71.1382064819336 166.80819702148438 105.6995620727539 123.01815795898438 99.97510528564453" stroke-width="3.0" fill="none" stroke="rgb(0, 0, 0)" stroke-opacity="1.0" stroke-linecap="round" stroke-linejoin="round"/>
  </g>
</svg>
