<?xml version="1.0" ?>
<svg xmlns="http://www.w3.org/2000/svg" version="1.1" width="224" height="224">
  <defs/>
  <g>
    <path d="M 78.41385650634766 168.31700134277344 C 119.84294891357422 172.10379028320312 83.11643981933594 190.99798583984375 101.8555679321289 128.00881958007812" stroke-width="3.0" fill="none" stroke="rgb(0, 0, 0)" stroke-opacity="1.0" stroke-linecap="round" stroke-linejoin="round"/>
    <path d="M 123.28838348388672 171.9447479248047 C 41.71835708618164 157.6221923828125 87.67910766601562 185.74571228027344 123.90948486328125 166.41073608398438" stroke-width="3.0" fill="none" stroke="rgb(0, 0, 0)" stroke-opacity="1.0" stroke-linecap="round" stroke-linejoin="round"/>
    <path d="M 123.61534881591797 176.53712463378906 C 156.42921447753906 181.79383850097656 140.1991729736328 171.17428588867188 141.59432983398438 162.6807098388672" stroke-width="3.0" fill="none" stroke="rgb(0, 0, 0)" stroke-opacity="1.0" stroke-linecap="round" stroke-linejoin="round"/>
    <path d="M 78.51480102539062 154.70729064941406 C 31.167919158935547 182.79603576660156 124.015380859375 182.15591430664062 121.95401763916016 168.12176513671875" stroke-width="3.0" fill="none" stroke="rgb(0, 0, 0)" stroke-opacity="1.0" stroke-linecap="round" stroke-linejoin="round"/>
    <path d="M 128.64952087402344 141.48289489746094 C 134.15289306640625 158.27447509765625 130.09605407714844 154.75698852539062 130.4108428955078 175.6616668701172" stroke-width="3.0" fill="none" stroke="rgb(0, 0, 0)" stroke-opacity="1.0" stroke-linecap="round" stroke-linejoin="round"/>
    <path d="M 118.97234344482422 169.2351837158203 C 127.96121215820312 178.33958435058594 93.54034423828125 180.6626739501953 79.98522186279297 177.069580078125" stroke-width="3.0" fill="none" stroke="rgb(0, 0, 0)" stroke-opacity="1.0" stroke-linecap="round" stroke-linejoin="round"/>
    <path d="M 142.61175537109375 166.2765655517578 C 157.0220184326172 163.07968139648438 148.42979431152344 154.0651397705078 144.90093994140625 135.86514282226562" stroke-width="3.0" fill="none" stroke="rgb(0, 0, 0)" stroke-opacity="1.0" stroke-linecap="round" stroke-linejoin="round"/>
    <path d="M 78.82734680175781 165.73080444335938 C 98.94486999511719 179.1083221435547 155.60040283203125 165.7239532470703 79.863525390625 167.271484375" stroke-width="3.0" fill="none" stroke="rgb(0, 0, 0)" stroke-opacity="1.0" stroke-linecap="round" stroke-linejoin="round"/>
    <path d="M 136.09512329101562 174.1563720703125 C 141.572509765625 182.29441833496094 127.03119659423828 174.9641571044922 140.92999267578125 177.7030792236328" stroke-width="3.0" fill="none" stroke="rgb(0, 0, 0)" stroke-opacity="1.0" stroke-linecap="round" stroke-linejoin="round"/>
    <path d="M 150.62933349609375 81.40122985839844 C 128.20999145507812 138.36729431152344 158.66543579101562 75.54530334472656 140.6090087890625 170.03407287597656" stroke-width="3.0" fill="none" stroke="rgb(0, 0, 0)" stroke-opacity="1.0" stroke-linecap="round" stroke-linejoin="round"/>
    <path d="M 113.93215942382812 163.80795288085938 C 97.56684875488281 166.13729858398438 88.75633239746094 150.95394897460938 124.75188446044922 177.69834899902344" stroke-width="3.0" fill="none" stroke="rgb(0, 0, 0)" stroke-opacity="1.0" stroke-linecap="round" stroke-linejoin="round"/>
    <path d="M 82.61473846435547 152.54534912109375 C 68.73213195800781 160.0831756591797 134.20999145507812 134.7847900390625 72.57672882080078 102.51636505126953" stroke-width="3.0" fill="none" stroke="rgb(0, 0, 0)" stroke-opacity="1.0" stroke-linecap="round" stroke-linejoin="round"/>
    <path d="M 94.57209777832031 159.2414093017578 C 114.2802505493164 175.30384826660156 147.3098907470703 166.85504150390625 87.02210235595703 163.63031005859375" stroke-width="3.0" fill="none" stroke="rgb(0, 0, 0)" stroke-opacity="1.0" stroke-linecap="round" stroke-linejoin="round"/>
    <path d="M 107.64376068115234 168.57398986816406 C 53.9385871887207 181.22926330566406 80.48098754882812 150.8523406982422 113.80467987060547 167.88233947753906" stroke-width="3.0" fill="none" stroke="rgb(0, 0, 0)" stroke-opacity="1.0" stroke-linecap="round" stroke-linejoin="round"/>
    <path d="M 119.21685028076172 82.56500244140625 C 109.41516876220703 100.36752319335938 157.5196075439453 104.38712310791016 117.43061828613281 80.7131576538086" stroke-width="3.0" fill="none" stroke="rgb(0, 0, 0)" stroke-opacity="1.0" stroke-linecap="round" stroke-linejoin="round"/>
    <path d="M 119.32857513427734 96.99467468261719 C 171.40203857421875 66.95626831054688 145.41200256347656 108.54557800292969 137.7688446044922 97.80789947509766" stroke-width="3.0" fill="none" stroke="rgb(0, 0, 0)" stroke-opacity="1.0" stroke-linecap="round" stroke-linejoin="round"/>
  </g>
</svg>
