<?xml version="1.0" ?>
<svg xmlns="http://www.w3.org/2000/svg" version="1.1" width="224" height="224">
  <defs/>
  <g>
    <path d="M 78.32501983642578 166.50238037109375 C 145.87440490722656 168.81094360351562 102.01988983154297 175.3685302734375 117.94429016113281 137.0143280029297" stroke-width="3.0" fill="none" stroke="rgb(0, 0, 0)" stroke-opacity="1.0" stroke-linecap="round" stroke-linejoin="round"/>
    <path d="M 111.97019958496094 175.52159118652344 C 42.268943786621094 162.177001953125 93.25552368164062 179.39739990234375 120.00435638427734 168.50196838378906" stroke-width="3.0" fill="none" stroke="rgb(0, 0, 0)" stroke-opacity="1.0" stroke-linecap="round" stroke-linejoin="round"/>
    <path d="M 125.96349334716797 178.8096160888672 C 157.27340698242188 180.03533935546875 141.23699951171875 174.31707763671875 141.58914184570312 169.3017578125" stroke-width="3.0" fill="none" stroke="rgb(0, 0, 0)" stroke-opacity="1.0" stroke-linecap="round" stroke-linejoin="round"/>
    <path d="M 95.65728759765625 150.60263061523438 C 16.100461959838867 173.11593627929688 120.62120056152344 192.14114379882812 120.37813568115234 170.3634796142578" stroke-width="3.0" fill="none" stroke="rgb(0, 0, 0)" stroke-opacity="1.0" stroke-linecap="round" stroke-linejoin="round"/>
    <path d="M 127.94377136230469 142.8248291015625 C 131.26307678222656 168.29624938964844 129.84608459472656 159.2869873046875 129.5704345703125 177.98687744140625" stroke-width="3.0" fill="none" stroke="rgb(0, 0, 0)" stroke-opacity="1.0" stroke-linecap="round" stroke-linejoin="round"/>
    <path d="M 121.3544692993164 174.7949676513672 C 129.36276245117188 175.15701293945312 103.08799743652344 184.09410095214844 83.68366241455078 179.26197814941406" stroke-width="3.0" fill="none" stroke="rgb(0, 0, 0)" stroke-opacity="1.0" stroke-linecap="round" stroke-linejoin="round"/>
    <path d="M 144.6346893310547 166.50857543945312 C 153.21875 162.9383544921875 147.9016571044922 155.8577117919922 145.08885192871094 138.40162658691406" stroke-width="3.0" fill="none" stroke="rgb(0, 0, 0)" stroke-opacity="1.0" stroke-linecap="round" stroke-linejoin="round"/>
    <path d="M 75.51590728759766 166.19061279296875 C 93.72769165039062 173.52093505859375 144.8839569091797 165.72015380859375 79.52323913574219 163.06329345703125" stroke-width="3.0" fill="none" stroke="rgb(0, 0, 0)" stroke-opacity="1.0" stroke-linecap="round" stroke-linejoin="round"/>
    <path d="M 125.78414154052734 178.57977294921875 C 121.13705444335938 179.60768127441406 117.53827667236328 162.36683654785156 118.7693099975586 170.813232421875" stroke-width="3.0" fill="none" stroke="rgb(0, 0, 0)" stroke-opacity="1.0" stroke-linecap="round" stroke-linejoin="round"/>
    <path d="M 149.69180297851562 81.42189025878906 C 124.36998748779297 135.66183471679688 161.39926147460938 78.24698638916016 139.47361755371094 178.56527709960938" stroke-width="3.0" fill="none" stroke="rgb(0, 0, 0)" stroke-opacity="1.0" stroke-linecap="round" stroke-linejoin="round"/>
    <path d="M 109.59225463867188 162.239013671875 C 96.07075500488281 176.91004943847656 98.58895874023438 147.91204833984375 119.42493438720703 166.67141723632812" stroke-width="3.0" fill="none" stroke="rgb(0, 0, 0)" stroke-opacity="1.0" stroke-linecap="round" stroke-linejoin="round"/>
    <path d="M 92.42518615722656 150.98373413085938 C 95.08181762695312 195.1453094482422 104.6955337524414 77.3673095703125 71.91629791259766 102.95600128173828" stroke-width="3.0" fill="none" stroke="rgb(0, 0, 0)" stroke-opacity="1.0" stroke-linecap="round" stroke-linejoin="round"/>
    <path d="M 90.77985382080078 159.03805541992188 C 120.16924285888672 167.00230407714844 148.4096221923828 173.8544464111328 83.70579528808594 165.64366149902344" stroke-width="3.0" fill="none" stroke="rgb(0, 0, 0)" stroke-opacity="1.0" stroke-linecap="round" stroke-linejoin="round"/>
    <path d="M 110.6815414428711 157.0352783203125 C 40.9183464050293 179.06112670898438 100.85702514648438 146.2129669189453 104.7184829711914 168.1538848876953" stroke-width="3.0" fill="none" stroke="rgb(0, 0, 0)" stroke-opacity="1.0" stroke-linecap="round" stroke-linejoin="round"/>
    <path d="M 118.09310913085938 80.07660675048828 C 108.73604583740234 102.74288177490234 161.54115295410156 106.23577880859375 116.41897583007812 79.83568572998047" stroke-width="3.0" fill="none" stroke="rgb(0, 0, 0)" stroke-opacity="1.0" stroke-linecap="round" stroke-linejoin="round"/>
    <path d="M 117.8453598022461 96.79110717773438 C 146.40087890625 70.67939758300781 165.41236877441406 106.8168716430664 122.56824493408203 100.46365356445312" stroke-width="3.0" fill="none" stroke="rgb(0, 0, 0)" stroke-opacity="1.0" stroke-linecap="round" stroke-linejoin="round"/>
  </g>
</svg>
