<?xml version="1.0" ?>
<svg xmlns="http://www.w3.org/2000/svg" version="1.1" width="224" height="224">
  <defs/>
  <g>
    <path d="M 78.25794219970703 170.74673461914062 C 115.51478576660156 169.96841430664062 92.31084442138672 193.858642578125 102.1856689453125 139.1131134033203" stroke-width="3.0" fill="none" stroke="rgb(0, 0, 0)" stroke-opacity="1.0" stroke-linecap="round" stroke-linejoin="round"/>
    <path d="M 111.13186645507812 168.54678344726562 C 28.652042388916016 156.14524841308594 76.86727142333984 191.90371704101562 120.05615234375 175.3826446533203" stroke-width="3.0" fill="none" stroke="rgb(0, 0, 0)" stroke-opacity="1.0" stroke-linecap="round" stroke-linejoin="round"/>
    <path d="M 132.8348846435547 177.75714111328125 C 151.75987243652344 180.1650848388672 138.44415283203125 166.9803924560547 140.8412628173828 168.25990295410156" stroke-width="3.0" fill="none" stroke="rgb(0, 0, 0)" stroke-opacity="1.0" stroke-linecap="round" stroke-linejoin="round"/>
    <path d="M 68.1871566772461 162.7665557861328 C 53.5457878112793 180.0100860595703 105.15544128417969 177.4909210205078 80.13097381591797 178.2790985107422" stroke-width="3.0" fill="none" stroke="rgb(0, 0, 0)" stroke-opacity="1.0" stroke-linecap="round" stroke-linejoin="round"/>
    <path d="M 127.1220474243164 136.25608825683594 C 132.74012756347656 157.4748992919922 129.30563354492188 143.4312744140625 130.00877380371094 174.85845947265625" stroke-width="3.0" fill="none" stroke="rgb(0, 0, 0)" stroke-opacity="1.0" stroke-linecap="round" stroke-linejoin="round"/>
    <path d="M 114.6255874633789 170.7125244140625 C 108.53105926513672 168.5393524169922 100.96100616455078 173.44480895996094 95.70966339111328 171.9788055419922" stroke-width="3.0" fill="none" stroke="rgb(0, 0, 0)" stroke-opacity="1.0" stroke-linecap="round" stroke-linejoin="round"/>
    <path d="M 144.4298553466797 163.09140014648438 C 160.50985717773438 157.60169982910156 143.32215881347656 157.4760284423828 144.59974670410156 128.390869140625" stroke-width="3.0" fill="none" stroke="rgb(0, 0, 0)" stroke-opacity="1.0" stroke-linecap="round" stroke-linejoin="round"/>
    <path d="M 70.86151123046875 169.7676239013672 C 104.99577331542969 183.1478729248047 165.96713256835938 163.3179931640625 78.7649154663086 163.0811004638672" stroke-width="3.0" fill="none" stroke="rgb(0, 0, 0)" stroke-opacity="1.0" stroke-linecap="round" stroke-linejoin="round"/>
    <path d="M 130.77574157714844 170.2427215576172 C 146.86878967285156 180.48402404785156 117.13302612304688 178.3118133544922 142.17767333984375 176.7289276123047" stroke-width="3.0" fill="none" stroke="rgb(0, 0, 0)" stroke-opacity="1.0" stroke-linecap="round" stroke-linejoin="round"/>
    <path d="M 146.76930236816406 84.53263092041016 C 130.1009063720703 124.28791809082031 159.15005493164062 83.31491088867188 140.6911163330078 166.4741973876953" stroke-width="3.0" fill="none" stroke="rgb(0, 0, 0)" stroke-opacity="1.0" stroke-linecap="round" stroke-linejoin="round"/>
    <path d="M 103.99219512939453 168.4450225830078 C 103.85919189453125 154.11549377441406 91.35533142089844 156.116455078125 127.84588623046875 176.76947021484375" stroke-width="3.0" fill="none" stroke="rgb(0, 0, 0)" stroke-opacity="1.0" stroke-linecap="round" stroke-linejoin="round"/>
    <path d="M 66.39399719238281 165.8905487060547 C 66.40693664550781 152.7161865234375 132.73141479492188 151.74154663085938 74.27454376220703 100.65863800048828" stroke-width="3.0" fill="none" stroke="rgb(0, 0, 0)" stroke-opacity="1.0" stroke-linecap="round" stroke-linejoin="round"/>
    <path d="M 74.57943725585938 169.41436767578125 C 106.3637466430664 169.34820556640625 131.2889404296875 175.94778442382812 76.7613754272461 166.7940216064453" stroke-width="3.0" fill="none" stroke="rgb(0, 0, 0)" stroke-opacity="1.0" stroke-linecap="round" stroke-linejoin="round"/>
    <path d="M 123.0020523071289 163.5592041015625 C 53.51188659667969 179.07960510253906 72.88118743896484 156.46458435058594 110.58110809326172 167.97459411621094" stroke-width="3.0" fill="none" stroke="rgb(0, 0, 0)" stroke-opacity="1.0" stroke-linecap="round" stroke-linejoin="round"/>
    <path d="M 114.7436752319336 79.81963348388672 C 110.01242065429688 110.26827239990234 146.9300994873047 99.05140686035156 114.7905502319336 79.47843933105469" stroke-width="3.0" fill="none" stroke="rgb(0, 0, 0)" stroke-opacity="1.0" stroke-linecap="round" stroke-linejoin="round"/>
    <path d="M 122.88700103759766 93.70140838623047 C 159.37232971191406 87.55087280273438 128.6297149658203 107.5258560180664 133.4897003173828 94.80632019042969" stroke-width="3.0" fill="none" stroke="rgb(0, 0, 0)" stroke-opacity="1.0" stroke-linecap="round" stroke-linejoin="round"/>
  </g>
</svg>
