<?xml version="1.0" ?>
<svg xmlns="http://www.w3.org/2000/svg" version="1.1" width="224" height="224">
  <defs/>
  <g>
    <path d="M 84.25056457519531 171.34552001953125 C 118.96524810791016 162.91574096679688 91.49461364746094 179.97494506835938 104.26886749267578 143.38763427734375" stroke-width="3.0" fill="none" stroke="rgb(0, 0, 0)" stroke-opacity="1.0" stroke-linecap="round" stroke-linejoin="round"/>
    <path d="M 122.8469467163086 166.25843811035156 C 29.883445739746094 151.79190063476562 78.49954986572266 186.1558380126953 120.72391510009766 169.81088256835938" stroke-width="3.0" fill="none" stroke="rgb(0, 0, 0)" stroke-opacity="1.0" stroke-linecap="round" stroke-linejoin="round"/>
    <path d="M 134.68138122558594 178.82008361816406 C 156.9951171875 179.90353393554688 139.57608032226562 171.72401428222656 143.4479522705078 172.7776336669922" stroke-width="3.0" fill="none" stroke="rgb(0, 0, 0)" stroke-opacity="1.0" stroke-linecap="round" stroke-linejoin="round"/>
    <path d="M 68.50650787353516 159.4066619873047 C 49.19188690185547 174.99856567382812 111.99435424804688 176.60885620117188 90.90206146240234 172.931396484375" stroke-width="3.0" fill="none" stroke="rgb(0, 0, 0)" stroke-opacity="1.0" stroke-linecap="round" stroke-linejoin="round"/>
    <path d="M 128.29043579101562 140.01168823242188 C 131.66616821289062 162.4428253173828 127.177001953125 152.74388122558594 127.2498779296875 176.5596466064453" stroke-width="3.0" fill="none" stroke="rgb(0, 0, 0)" stroke-opacity="1.0" stroke-linecap="round" stroke-linejoin="round"/>
    <path d="M 114.73373413085938 169.75506591796875 C 108.1251449584961 166.55035400390625 97.29109191894531 172.06056213378906 86.43199920654297 174.47982788085938" stroke-width="3.0" fill="none" stroke="rgb(0, 0, 0)" stroke-opacity="1.0" stroke-linecap="round" stroke-linejoin="round"/>
    <path d="M 142.79689025878906 167.3663787841797 C 155.44337463378906 166.13389587402344 145.66004943847656 151.2855987548828 144.16226196289062 137.28497314453125" stroke-width="3.0" fill="none" stroke="rgb(0, 0, 0)" stroke-opacity="1.0" stroke-linecap="round" stroke-linejoin="round"/>
    <path d="M 77.08673858642578 164.3482666015625 C 97.3104476928711 182.3575439453125 163.4071502685547 161.0188446044922 80.20375061035156 164.39614868164062" stroke-width="3.0" fill="none" stroke="rgb(0, 0, 0)" stroke-opacity="1.0" stroke-linecap="round" stroke-linejoin="round"/>
    <path d="M 137.687744140625 171.05136108398438 C 141.3449249267578 184.57830810546875 119.1465835571289 178.75540161132812 140.10504150390625 176.7269287109375" stroke-width="3.0" fill="none" stroke="rgb(0, 0, 0)" stroke-opacity="1.0" stroke-linecap="round" stroke-linejoin="round"/>
    <path d="M 151.04530334472656 81.61346435546875 C 127.9312973022461 138.68724060058594 157.2089080810547 81.53829193115234 142.292724609375 168.85594177246094" stroke-width="3.0" fill="none" stroke="rgb(0, 0, 0)" stroke-opacity="1.0" stroke-linecap="round" stroke-linejoin="round"/>
    <path d="M 110.35607147216797 169.05859375 C 102.06949615478516 153.02906799316406 92.2132797241211 147.8106689453125 129.67308044433594 177.74514770507812" stroke-width="3.0" fill="none" stroke="rgb(0, 0, 0)" stroke-opacity="1.0" stroke-linecap="round" stroke-linejoin="round"/>
    <path d="M 72.50778198242188 157.09449768066406 C 67.12548065185547 160.41372680664062 136.62786865234375 143.7250213623047 72.5169906616211 101.5196762084961" stroke-width="3.0" fill="none" stroke="rgb(0, 0, 0)" stroke-opacity="1.0" stroke-linecap="round" stroke-linejoin="round"/>
    <path d="M 76.05590057373047 163.44810485839844 C 106.29657745361328 173.06488037109375 135.68260192871094 160.09376525878906 83.19499969482422 155.6075439453125" stroke-width="3.0" fill="none" stroke="rgb(0, 0, 0)" stroke-opacity="1.0" stroke-linecap="round" stroke-linejoin="round"/>
    <path d="M 113.99547576904297 165.4181671142578 C 49.475624084472656 175.24916076660156 75.35148620605469 152.1027374267578 110.34982299804688 160.3388214111328" stroke-width="3.0" fill="none" stroke="rgb(0, 0, 0)" stroke-opacity="1.0" stroke-linecap="round" stroke-linejoin="round"/>
    <path d="M 119.22273254394531 83.32449340820312 C 113.77999114990234 106.62673950195312 153.87794494628906 105.21556091308594 117.73247528076172 80.996337890625" stroke-width="3.0" fill="none" stroke="rgb(0, 0, 0)" stroke-opacity="1.0" stroke-linecap="round" stroke-linejoin="round"/>
    <path d="M 118.50982666015625 91.96670532226562 C 172.1196746826172 74.419189453125 136.93467712402344 108.18034362792969 138.2178955078125 95.90879821777344" stroke-width="3.0" fill="none" stroke="rgb(0, 0, 0)" stroke-opacity="1.0" stroke-linecap="round" stroke-linejoin="round"/>
  </g>
</svg>
