<?xml version="1.0" ?>
<svg xmlns="http://www.w3.org/2000/svg" version="1.1" width="224" height="224">
  <defs/>
  <g>
    <path d="M 90.95729064941406 163.9376220703125 C 103.80975341796875 171.96481323242188 97.87840270996094 181.9147491455078 98.48798370361328 141.88162231445312" stroke-width="3.0" fill="none" stroke="rgb(0, 0, 0)" stroke-opacity="1.0" stroke-linecap="round" stroke-linejoin="round"/>
    <path d="M 94.13837432861328 163.52182006835938 C 84.23880767822266 171.88473510742188 79.9443130493164 183.18597412109375 120.99971771240234 169.95533752441406" stroke-width="3.0" fill="none" stroke="rgb(0, 0, 0)" stroke-opacity="1.0" stroke-linecap="round" stroke-linejoin="round"/>
    <path d="M 130.28904724121094 179.5310516357422 C 158.3024139404297 178.03489685058594 130.10240173339844 180.05931091308594 139.07904052734375 158.1214599609375" stroke-width="3.0" fill="none" stroke="rgb(0, 0, 0)" stroke-opacity="1.0" stroke-linecap="round" stroke-linejoin="round"/>
    <path d="M 67.08416748046875 168.9314422607422 C 76.20327758789062 180.1527099609375 102.44602966308594 175.50222778320312 88.25178527832031 176.3616943359375" stroke-width="3.0" fill="none" stroke="rgb(0, 0, 0)" stroke-opacity="1.0" stroke-linecap="round" stroke-linejoin="round"/>
    <path d="M 137.2297821044922 139.9564971923828 C 132.18099975585938 153.67449951171875 134.28793334960938 139.62380981445312 132.49224853515625 167.7694854736328" stroke-width="3.0" fill="none" stroke="rgb(0, 0, 0)" stroke-opacity="1.0" stroke-linecap="round" stroke-linejoin="round"/>
    <path d="M 106.540283203125 152.9774627685547 C 114.8694839477539 167.22804260253906 88.78671264648438 172.9341583251953 75.71694946289062 171.6236114501953" stroke-width="3.0" fill="none" stroke="rgb(0, 0, 0)" stroke-opacity="1.0" stroke-linecap="round" stroke-linejoin="round"/>
    <path d="M 148.42648315429688 166.44241333007812 C 152.54647827148438 164.91624450683594 146.60340881347656 160.02020263671875 147.76356506347656 159.57713317871094" stroke-width="3.0" fill="none" stroke="rgb(0, 0, 0)" stroke-opacity="1.0" stroke-linecap="round" stroke-linejoin="round"/>
    <path d="M 67.87203979492188 163.8310089111328 C 81.04096221923828 183.8244171142578 133.0999755859375 173.8108367919922 103.30281066894531 166.68582153320312" stroke-width="3.0" fill="none" stroke="rgb(0, 0, 0)" stroke-opacity="1.0" stroke-linecap="round" stroke-linejoin="round"/>
    <path d="M 131.64608764648438 168.50128173828125 C 126.12042236328125 189.3842010498047 125.32341766357422 172.71009826660156 133.88160705566406 176.20892333984375" stroke-width="3.0" fill="none" stroke="rgb(0, 0, 0)" stroke-opacity="1.0" stroke-linecap="round" stroke-linejoin="round"/>
    <path d="M 147.6005859375 102.93566131591797 C 129.3690185546875 126.0296630859375 155.078857421875 101.94740295410156 146.15078735351562 157.3470916748047" stroke-width="3.0" fill="none" stroke="rgb(0, 0, 0)" stroke-opacity="1.0" stroke-linecap="round" stroke-linejoin="round"/>
    <path d="M 106.99934387207031 170.0006561279297 C 121.40422821044922 110.22410583496094 115.73700714111328 106.9787368774414 125.63352966308594 176.58860778808594" stroke-width="3.0" fill="none" stroke="rgb(0, 0, 0)" stroke-opacity="1.0" stroke-linecap="round" stroke-linejoin="round"/>
    <path d="M 67.4183578491211 166.44161987304688 C 80.71270751953125 139.15707397460938 125.83533477783203 166.8870391845703 78.25391387939453 99.0204849243164" stroke-width="3.0" fill="none" stroke="rgb(0, 0, 0)" stroke-opacity="1.0" stroke-linecap="round" stroke-linejoin="round"/>
    <path d="M 87.55081939697266 165.49887084960938 C 102.5250015258789 171.04696655273438 104.9762191772461 153.79344177246094 86.89379119873047 167.3985137939453" stroke-width="3.0" fill="none" stroke="rgb(0, 0, 0)" stroke-opacity="1.0" stroke-linecap="round" stroke-linejoin="round"/>
    <path d="M 92.61714172363281 168.6390838623047 C 91.46435546875 165.68800354003906 106.97950744628906 157.90118408203125 112.3240737915039 169.07496643066406" stroke-width="3.0" fill="none" stroke="rgb(0, 0, 0)" stroke-opacity="1.0" stroke-linecap="round" stroke-linejoin="round"/>
    <path d="M 122.50753784179688 86.1068115234375 C 119.70880126953125 98.42723083496094 140.90664672851562 95.5010757446289 121.50606536865234 83.18875122070312" stroke-width="3.0" fill="none" stroke="rgb(0, 0, 0)" stroke-opacity="1.0" stroke-linecap="round" stroke-linejoin="round"/>
    <path d="M 136.15509033203125 97.92832946777344 C 147.3126678466797 80.29733276367188 144.7517852783203 99.99886322021484 138.44981384277344 93.11370086669922" stroke-width="3.0" fill="none" stroke="rgb(0, 0, 0)" stroke-opacity="1.0" stroke-linecap="round" stroke-linejoin="round"/>
  </g>
</svg>
