<?xml version="1.0" ?>
<svg xmlns="http://www.w3.org/2000/svg" version="1.1" width="224" height="224">
  <defs/>
  <g>
    <path d="M 79.32414245605469 165.02293395996094 C 148.59825134277344 168.806396484375 103.17180633544922 175.07798767089844 117.00862121582031 136.30995178222656" stroke-width="3.0" fill="none" stroke="rgb(0, 0, 0)" stroke-opacity="1.0" stroke-linecap="round" stroke-linejoin="round"/>
    <path d="M 108.91209411621094 173.36709594726562 C 43.540000915527344 161.93209838867188 94.76232147216797 180.06956481933594 120.97765350341797 169.966796875" stroke-width="3.0" fill="none" stroke="rgb(0, 0, 0)" stroke-opacity="1.0" stroke-linecap="round" stroke-linejoin="round"/>
    <path d="M 125.7966079711914 178.90870666503906 C 155.17742919921875 181.7192840576172 140.66075134277344 172.36062622070312 142.19557189941406 168.12525939941406" stroke-width="3.0" fill="none" stroke="rgb(0, 0, 0)" stroke-opacity="1.0" stroke-linecap="round" stroke-linejoin="round"/>
    <path d="M 93.2302474975586 147.48304748535156 C 13.877720832824707 171.92027282714844 119.00676727294922 192.9005126953125 122.68089294433594 170.81553649902344" stroke-width="3.0" fill="none" stroke="rgb(0, 0, 0)" stroke-opacity="1.0" stroke-linecap="round" stroke-linejoin="round"/>
    <path d="M 128.79379272460938 143.9822540283203 C 131.77838134765625 168.29820251464844 129.2099609375 160.49354553222656 130.83819580078125 179.27076721191406" stroke-width="3.0" fill="none" stroke="rgb(0, 0, 0)" stroke-opacity="1.0" stroke-linecap="round" stroke-linejoin="round"/>
    <path d="M 120.39073944091797 173.71556091308594 C 127.0138931274414 173.67318725585938 102.66800689697266 182.9166717529297 82.96223449707031 178.93389892578125" stroke-width="3.0" fill="none" stroke="rgb(0, 0, 0)" stroke-opacity="1.0" stroke-linecap="round" stroke-linejoin="round"/>
    <path d="M 143.953125 163.8885040283203 C 155.01443481445312 161.4952850341797 150.16070556640625 154.105712890625 144.5603790283203 134.9606475830078" stroke-width="3.0" fill="none" stroke="rgb(0, 0, 0)" stroke-opacity="1.0" stroke-linecap="round" stroke-linejoin="round"/>
    <path d="M 76.7708969116211 167.15916442871094 C 93.45640563964844 173.3200225830078 144.97509765625 164.70333862304688 77.42158508300781 165.21954345703125" stroke-width="3.0" fill="none" stroke="rgb(0, 0, 0)" stroke-opacity="1.0" stroke-linecap="round" stroke-linejoin="round"/>
    <path d="M 124.691162109375 178.88400268554688 C 122.32166290283203 180.3979949951172 120.59545135498047 161.51095581054688 120.73500061035156 169.621826171875" stroke-width="3.0" fill="none" stroke="rgb(0, 0, 0)" stroke-opacity="1.0" stroke-linecap="round" stroke-linejoin="round"/>
    <path d="M 150.55908203125 81.92799377441406 C 122.92356872558594 137.10897827148438 159.871337890625 79.8203353881836 139.63067626953125 178.163818359375" stroke-width="3.0" fill="none" stroke="rgb(0, 0, 0)" stroke-opacity="1.0" stroke-linecap="round" stroke-linejoin="round"/>
    <path d="M 109.2073745727539 160.66734313964844 C 96.03876495361328 175.99362182617188 98.75709533691406 147.82647705078125 119.0653076171875 166.95774841308594" stroke-width="3.0" fill="none" stroke="rgb(0, 0, 0)" stroke-opacity="1.0" stroke-linecap="round" stroke-linejoin="round"/>
    <path d="M 93.12784576416016 150.99545288085938 C 95.31888580322266 195.18812561035156 104.24083709716797 76.90576171875 70.97874450683594 101.02249908447266" stroke-width="3.0" fill="none" stroke="rgb(0, 0, 0)" stroke-opacity="1.0" stroke-linecap="round" stroke-linejoin="round"/>
    <path d="M 91.28036499023438 158.5560760498047 C 119.50031280517578 167.6944122314453 148.85565185546875 171.5269775390625 82.79593658447266 165.5900115966797" stroke-width="3.0" fill="none" stroke="rgb(0, 0, 0)" stroke-opacity="1.0" stroke-linecap="round" stroke-linejoin="round"/>
    <path d="M 114.43727111816406 155.05917358398438 C 42.83081817626953 179.24948120117188 101.1847915649414 147.17283630371094 104.4352035522461 169.05030822753906" stroke-width="3.0" fill="none" stroke="rgb(0, 0, 0)" stroke-opacity="1.0" stroke-linecap="round" stroke-linejoin="round"/>
    <path d="M 119.0999526977539 80.8371353149414 C 109.21256256103516 102.21331787109375 161.5486297607422 105.2513656616211 118.14494323730469 79.56339263916016" stroke-width="3.0" fill="none" stroke="rgb(0, 0, 0)" stroke-opacity="1.0" stroke-linecap="round" stroke-linejoin="round"/>
    <path d="M 118.44440460205078 95.7622299194336 C 147.2300262451172 71.24671936035156 166.39149475097656 108.79589080810547 122.57574462890625 98.61687469482422" stroke-width="3.0" fill="none" stroke="rgb(0, 0, 0)" stroke-opacity="1.0" stroke-linecap="round" stroke-linejoin="round"/>
  </g>
</svg>
