<?xml version="1.0" ?>
<svg xmlns="http://www.w3.org/2000/svg" version="1.1" width="224" height="224">
  <defs/>
  <g>
    <path d="M 83.55683135986328 164.4103240966797 C 151.4300079345703 165.4174041748047 99.0377197265625 179.2227020263672 119.71436309814453 138.0960235595703" stroke-width="3.0" fill="none" stroke="rgb(0, 0, 0)" stroke-opacity="1.0" stroke-linecap="round" stroke-linejoin="round"/>
    <path d="M 110.60223388671875 163.6197509765625 C 43.83901596069336 160.76260375976562 92.45831298828125 182.45358276367188 118.84408569335938 169.8762664794922" stroke-width="3.0" fill="none" stroke="rgb(0, 0, 0)" stroke-opacity="1.0" stroke-linecap="round" stroke-linejoin="round"/>
    <path d="M 124.23931884765625 178.21763610839844 C 152.6342315673828 181.21527099609375 140.134033203125 173.21363830566406 141.783203125 168.24612426757812" stroke-width="3.0" fill="none" stroke="rgb(0, 0, 0)" stroke-opacity="1.0" stroke-linecap="round" stroke-linejoin="round"/>
    <path d="M 93.46337127685547 149.28355407714844 C 16.364072799682617 171.6664276123047 118.31990814208984 195.32394409179688 125.61209106445312 167.11683654785156" stroke-width="3.0" fill="none" stroke="rgb(0, 0, 0)" stroke-opacity="1.0" stroke-linecap="round" stroke-linejoin="round"/>
    <path d="M 127.21179962158203 141.02957153320312 C 132.51954650878906 166.10069274902344 132.0594940185547 161.57205200195312 132.527587890625 178.3542022705078" stroke-width="3.0" fill="none" stroke="rgb(0, 0, 0)" stroke-opacity="1.0" stroke-linecap="round" stroke-linejoin="round"/>
    <path d="M 122.09648132324219 174.8222198486328 C 124.26551818847656 170.83802795410156 109.61714935302734 184.8442840576172 84.81302642822266 178.75363159179688" stroke-width="3.0" fill="none" stroke="rgb(0, 0, 0)" stroke-opacity="1.0" stroke-linecap="round" stroke-linejoin="round"/>
    <path d="M 144.15914916992188 165.51644897460938 C 156.18800354003906 159.8756103515625 148.15956115722656 156.41302490234375 146.07510375976562 132.8009796142578" stroke-width="3.0" fill="none" stroke="rgb(0, 0, 0)" stroke-opacity="1.0" stroke-linecap="round" stroke-linejoin="round"/>
    <path d="M 78.33094787597656 169.02157592773438 C 98.10663604736328 173.6640625 154.2306365966797 168.91494750976562 79.3951644897461 169.246826171875" stroke-width="3.0" fill="none" stroke="rgb(0, 0, 0)" stroke-opacity="1.0" stroke-linecap="round" stroke-linejoin="round"/>
    <path d="M 122.54912567138672 176.29299926757812 C 122.73895263671875 177.8055877685547 119.42166900634766 161.4445037841797 116.43668365478516 168.17221069335938" stroke-width="3.0" fill="none" stroke="rgb(0, 0, 0)" stroke-opacity="1.0" stroke-linecap="round" stroke-linejoin="round"/>
    <path d="M 148.69139099121094 81.07763671875 C 123.76309967041016 135.30812072753906 163.9438018798828 79.08794403076172 139.39678955078125 169.62371826171875" stroke-width="3.0" fill="none" stroke="rgb(0, 0, 0)" stroke-opacity="1.0" stroke-linecap="round" stroke-linejoin="round"/>
    <path d="M 118.43008422851562 167.8378143310547 C 99.60850524902344 172.8961639404297 102.0395736694336 150.0675506591797 117.00067138671875 171.02268981933594" stroke-width="3.0" fill="none" stroke="rgb(0, 0, 0)" stroke-opacity="1.0" stroke-linecap="round" stroke-linejoin="round"/>
    <path d="M 94.76637268066406 155.4900360107422 C 95.09298706054688 195.3199462890625 105.09445190429688 77.40575408935547 71.19552612304688 103.31927490234375" stroke-width="3.0" fill="none" stroke="rgb(0, 0, 0)" stroke-opacity="1.0" stroke-linecap="round" stroke-linejoin="round"/>
    <path d="M 89.08206176757812 163.2537384033203 C 107.69960021972656 172.76715087890625 140.60508728027344 173.35511779785156 80.93904876708984 170.98304748535156" stroke-width="3.0" fill="none" stroke="rgb(0, 0, 0)" stroke-opacity="1.0" stroke-linecap="round" stroke-linejoin="round"/>
    <path d="M 110.6131591796875 158.15721130371094 C 39.41223907470703 180.90069580078125 101.7343978881836 145.12454223632812 113.9417495727539 166.3929443359375" stroke-width="3.0" fill="none" stroke="rgb(0, 0, 0)" stroke-opacity="1.0" stroke-linecap="round" stroke-linejoin="round"/>
    <path d="M 118.25165557861328 83.00008392333984 C 110.09656524658203 101.98255920410156 154.59446716308594 106.80059051513672 116.72408294677734 80.72962188720703" stroke-width="3.0" fill="none" stroke="rgb(0, 0, 0)" stroke-opacity="1.0" stroke-linecap="round" stroke-linejoin="round"/>
    <path d="M 117.72080993652344 101.23394012451172 C 144.53201293945312 69.64979553222656 163.99620056152344 107.70443725585938 123.13255310058594 102.34162139892578" stroke-width="3.0" fill="none" stroke="rgb(0, 0, 0)" stroke-opacity="1.0" stroke-linecap="round" stroke-linejoin="round"/>
  </g>
</svg>
