<?xml version="1.0" ?>
<svg xmlns="http://www.w3.org/2000/svg" version="1.1" width="224" height="224">
  <defs/>
  <g>
    <path d="M 85.7188720703125 166.08489990234375 C 101.19275665283203 175.974609375 86.83253479003906 176.66647338867188 97.09883880615234 147.88858032226562" stroke-width="3.0" fill="none" stroke="rgb(0, 0, 0)" stroke-opacity="1.0" stroke-linecap="round" stroke-linejoin="round"/>
    <path d="M 91.70195770263672 166.53045654296875 C 88.52130889892578 170.27418518066406 84.08674621582031 179.52566528320312 118.3266830444336 170.5982666015625" stroke-width="3.0" fill="none" stroke="rgb(0, 0, 0)" stroke-opacity="1.0" stroke-linecap="round" stroke-linejoin="round"/>
    <path d="M 138.56155395507812 183.86228942871094 C 156.75088500976562 179.58291625976562 138.32969665527344 166.06568908691406 145.21029663085938 165.35508728027344" stroke-width="3.0" fill="none" stroke="rgb(0, 0, 0)" stroke-opacity="1.0" stroke-linecap="round" stroke-linejoin="round"/>
    <path d="M 70.7142333984375 169.11380004882812 C 77.4592514038086 177.75970458984375 99.52007293701172 169.2883758544922 82.58788299560547 174.66087341308594" stroke-width="3.0" fill="none" stroke="rgb(0, 0, 0)" stroke-opacity="1.0" stroke-linecap="round" stroke-linejoin="round"/>
    <path d="M 139.08847045898438 140.3756866455078 C 134.3582763671875 148.66542053222656 136.62049865722656 134.31842041015625 132.533203125 167.74258422851562" stroke-width="3.0" fill="none" stroke="rgb(0, 0, 0)" stroke-opacity="1.0" stroke-linecap="round" stroke-linejoin="round"/>
    <path d="M 102.87647247314453 159.70066833496094 C 111.81248474121094 172.73655700683594 88.97265625 176.91427612304688 74.68601989746094 170.76524353027344" stroke-width="3.0" fill="none" stroke="rgb(0, 0, 0)" stroke-opacity="1.0" stroke-linecap="round" stroke-linejoin="round"/>
    <path d="M 146.47926330566406 163.9161376953125 C 149.95425415039062 152.36483764648438 154.66864013671875 143.12330627441406 148.2168426513672 161.89291381835938" stroke-width="3.0" fill="none" stroke="rgb(0, 0, 0)" stroke-opacity="1.0" stroke-linecap="round" stroke-linejoin="round"/>
    <path d="M 71.96977996826172 165.69241333007812 C 83.14920806884766 179.83644104003906 101.00779724121094 174.87252807617188 93.05329132080078 165.4720916748047" stroke-width="3.0" fill="none" stroke="rgb(0, 0, 0)" stroke-opacity="1.0" stroke-linecap="round" stroke-linejoin="round"/>
    <path d="M 133.40640258789062 156.79464721679688 C 123.1890640258789 187.3062744140625 128.03744506835938 183.13670349121094 131.14007568359375 183.07717895507812" stroke-width="3.0" fill="none" stroke="rgb(0, 0, 0)" stroke-opacity="1.0" stroke-linecap="round" stroke-linejoin="round"/>
    <path d="M 145.93716430664062 110.93701171875 C 152.58554077148438 126.85828399658203 156.435302734375 112.73519897460938 150.36212158203125 156.50990295410156" stroke-width="3.0" fill="none" stroke="rgb(0, 0, 0)" stroke-opacity="1.0" stroke-linecap="round" stroke-linejoin="round"/>
    <path d="M 100.58482360839844 163.87242126464844 C 109.04637908935547 120.57968139648438 134.81117248535156 119.99855041503906 120.77799224853516 172.31707763671875" stroke-width="3.0" fill="none" stroke="rgb(0, 0, 0)" stroke-opacity="1.0" stroke-linecap="round" stroke-linejoin="round"/>
    <path d="M 72.63054656982422 163.80386352539062 C 88.21353149414062 147.85610961914062 113.07964324951172 169.4694061279297 83.43213653564453 102.02136993408203" stroke-width="3.0" fill="none" stroke="rgb(0, 0, 0)" stroke-opacity="1.0" stroke-linecap="round" stroke-linejoin="round"/>
    <path d="M 90.90914154052734 168.57489013671875 C 93.66638946533203 166.01258850097656 103.06820678710938 162.14382934570312 87.45511627197266 165.06922912597656" stroke-width="3.0" fill="none" stroke="rgb(0, 0, 0)" stroke-opacity="1.0" stroke-linecap="round" stroke-linejoin="round"/>
    <path d="M 88.69400787353516 168.9134063720703 C 90.44940948486328 173.9976043701172 102.40856170654297 168.4592742919922 106.87310791015625 170.51397705078125" stroke-width="3.0" fill="none" stroke="rgb(0, 0, 0)" stroke-opacity="1.0" stroke-linecap="round" stroke-linejoin="round"/>
    <path d="M 119.67532348632812 88.82691192626953 C 113.24859619140625 97.2366714477539 136.1500701904297 100.40834045410156 115.94693756103516 87.24153137207031" stroke-width="3.0" fill="none" stroke="rgb(0, 0, 0)" stroke-opacity="1.0" stroke-linecap="round" stroke-linejoin="round"/>
    <path d="M 138.13307189941406 92.95594024658203 C 135.67979431152344 81.37268829345703 153.0367431640625 91.48968505859375 135.93463134765625 91.3055648803711" stroke-width="3.0" fill="none" stroke="rgb(0, 0, 0)" stroke-opacity="1.0" stroke-linecap="round" stroke-linejoin="round"/>
  </g>
</svg>
