<?xml version="1.0" ?>
<svg xmlns="http://www.w3.org/2000/svg" version="1.1" width="224" height="224">
  <defs/>
  <g>
    <path d="M 90.46480560302734 163.3250732421875 C 104.60733032226562 170.89024353027344 98.47737121582031 179.56199645996094 98.3760986328125 143.87232971191406" stroke-width="3.0" fill="none" stroke="rgb(0, 0, 0)" stroke-opacity="1.0" stroke-linecap="round" stroke-linejoin="round"/>
    <path d="M 95.22044372558594 164.4709930419922 C 85.68342590332031 170.18869018554688 81.94265747070312 182.68106079101562 119.74211120605469 169.2100067138672" stroke-width="3.0" fill="none" stroke="rgb(0, 0, 0)" stroke-opacity="1.0" stroke-linecap="round" stroke-linejoin="round"/>
    <path d="M 129.81275939941406 179.7958984375 C 157.14828491210938 176.82225036621094 131.5831298828125 179.82325744628906 139.76966857910156 157.83657836914062" stroke-width="3.0" fill="none" stroke="rgb(0, 0, 0)" stroke-opacity="1.0" stroke-linecap="round" stroke-linejoin="round"/>
    <path d="M 67.41751098632812 169.01039123535156 C 76.72220611572266 178.90353393554688 101.3478775024414 172.64144897460938 86.8772964477539 175.0206298828125" stroke-width="3.0" fill="none" stroke="rgb(0, 0, 0)" stroke-opacity="1.0" stroke-linecap="round" stroke-linejoin="round"/>
    <path d="M 137.33306884765625 139.44085693359375 C 131.60116577148438 154.00466918945312 132.67784118652344 139.84152221679688 132.07020568847656 168.14031982421875" stroke-width="3.0" fill="none" stroke="rgb(0, 0, 0)" stroke-opacity="1.0" stroke-linecap="round" stroke-linejoin="round"/>
    <path d="M 108.40059661865234 151.09286499023438 C 113.89351654052734 167.5268096923828 87.0474624633789 176.0348358154297 77.53031921386719 169.5016632080078" stroke-width="3.0" fill="none" stroke="rgb(0, 0, 0)" stroke-opacity="1.0" stroke-linecap="round" stroke-linejoin="round"/>
    <path d="M 147.45260620117188 167.5255584716797 C 153.05230712890625 162.8364715576172 148.06900024414062 155.25479125976562 148.5918731689453 158.35545349121094" stroke-width="3.0" fill="none" stroke="rgb(0, 0, 0)" stroke-opacity="1.0" stroke-linecap="round" stroke-linejoin="round"/>
    <path d="M 67.68989562988281 164.4677276611328 C 77.7127914428711 184.70126342773438 121.29232788085938 175.35093688964844 96.96307373046875 167.31292724609375" stroke-width="3.0" fill="none" stroke="rgb(0, 0, 0)" stroke-opacity="1.0" stroke-linecap="round" stroke-linejoin="round"/>
    <path d="M 132.2926025390625 168.2405242919922 C 125.40313720703125 189.15753173828125 124.9017105102539 172.39437866210938 132.12991333007812 176.07447814941406" stroke-width="3.0" fill="none" stroke="rgb(0, 0, 0)" stroke-opacity="1.0" stroke-linecap="round" stroke-linejoin="round"/>
    <path d="M 144.14109802246094 99.88233947753906 C 132.23687744140625 121.62272644042969 155.48866271972656 100.56116485595703 147.01303100585938 158.60731506347656" stroke-width="3.0" fill="none" stroke="rgb(0, 0, 0)" stroke-opacity="1.0" stroke-linecap="round" stroke-linejoin="round"/>
    <path d="M 105.89639282226562 169.55862426757812 C 123.60112762451172 110.98741149902344 116.9195785522461 107.77998352050781 124.25807189941406 175.78614807128906" stroke-width="3.0" fill="none" stroke="rgb(0, 0, 0)" stroke-opacity="1.0" stroke-linecap="round" stroke-linejoin="round"/>
    <path d="M 66.43788146972656 164.72796630859375 C 80.35313415527344 138.8023223876953 123.21111297607422 164.480224609375 77.63607025146484 99.39897918701172" stroke-width="3.0" fill="none" stroke="rgb(0, 0, 0)" stroke-opacity="1.0" stroke-linecap="round" stroke-linejoin="round"/>
    <path d="M 91.2110595703125 168.06326293945312 C 101.14208221435547 170.6078643798828 103.76058197021484 153.7742156982422 85.96198272705078 165.85816955566406" stroke-width="3.0" fill="none" stroke="rgb(0, 0, 0)" stroke-opacity="1.0" stroke-linecap="round" stroke-linejoin="round"/>
    <path d="M 91.42288970947266 167.75228881835938 C 91.54377746582031 165.69378662109375 108.19717407226562 157.79562377929688 111.4482650756836 168.27536010742188" stroke-width="3.0" fill="none" stroke="rgb(0, 0, 0)" stroke-opacity="1.0" stroke-linecap="round" stroke-linejoin="round"/>
    <path d="M 123.55358123779297 84.93184661865234 C 120.53620147705078 96.87411499023438 140.27203369140625 92.89354705810547 122.58549499511719 83.18199920654297" stroke-width="3.0" fill="none" stroke="rgb(0, 0, 0)" stroke-opacity="1.0" stroke-linecap="round" stroke-linejoin="round"/>
    <path d="M 134.07611083984375 95.13667297363281 C 146.98434448242188 81.66797637939453 145.56661987304688 100.12893676757812 137.64889526367188 93.26238250732422" stroke-width="3.0" fill="none" stroke="rgb(0, 0, 0)" stroke-opacity="1.0" stroke-linecap="round" stroke-linejoin="round"/>
  </g>
</svg>
