<?xml version="1.0" ?>
<svg xmlns="http://www.w3.org/2000/svg" version="1.1" width="224" height="224">
  <defs/>
  <g>
    <path d="M 75.42083740234375 164.60919189453125 C 141.4285888671875 168.7050323486328 100.82444763183594 167.87017822265625 117.64810943603516 142.92987060546875" stroke-width="3.0" fill="none" stroke="rgb(0, 0, 0)" stroke-opacity="1.0" stroke-linecap="round" stroke-linejoin="round"/>
    <path d="M 118.64908599853516 166.52276611328125 C 39.52263641357422 154.5699462890625 86.84044647216797 180.0139923095703 118.44194030761719 167.14549255371094" stroke-width="3.0" fill="none" stroke="rgb(0, 0, 0)" stroke-opacity="1.0" stroke-linecap="round" stroke-linejoin="round"/>
    <path d="M 124.68871307373047 178.94940185546875 C 154.76107788085938 181.3904266357422 140.06610107421875 173.51010131835938 141.12774658203125 166.0000762939453" stroke-width="3.0" fill="none" stroke="rgb(0, 0, 0)" stroke-opacity="1.0" stroke-linecap="round" stroke-linejoin="round"/>
    <path d="M 95.93211364746094 150.74620056152344 C 14.652790069580078 172.9635772705078 118.84939575195312 191.1421356201172 121.9791030883789 168.7703857421875" stroke-width="3.0" fill="none" stroke="rgb(0, 0, 0)" stroke-opacity="1.0" stroke-linecap="round" stroke-linejoin="round"/>
    <path d="M 128.12916564941406 143.72775268554688 C 131.1162109375 163.68690490722656 129.51303100585938 152.63430786132812 129.12867736816406 179.58335876464844" stroke-width="3.0" fill="none" stroke="rgb(0, 0, 0)" stroke-opacity="1.0" stroke-linecap="round" stroke-linejoin="round"/>
    <path d="M 120.20331573486328 174.94503784179688 C 129.57713317871094 174.3686065673828 102.85623931884766 184.4246368408203 80.10537719726562 178.26065063476562" stroke-width="3.0" fill="none" stroke="rgb(0, 0, 0)" stroke-opacity="1.0" stroke-linecap="round" stroke-linejoin="round"/>
    <path d="M 146.92730712890625 160.34280395507812 C 155.86891174316406 157.05731201171875 149.71347045898438 150.85519409179688 148.06719970703125 137.02444458007812" stroke-width="3.0" fill="none" stroke="rgb(0, 0, 0)" stroke-opacity="1.0" stroke-linecap="round" stroke-linejoin="round"/>
    <path d="M 75.2353515625 166.76776123046875 C 89.5007553100586 173.51162719726562 141.36122131347656 164.4464569091797 81.56866455078125 162.17259216308594" stroke-width="3.0" fill="none" stroke="rgb(0, 0, 0)" stroke-opacity="1.0" stroke-linecap="round" stroke-linejoin="round"/>
    <path d="M 125.47815704345703 179.2602996826172 C 119.86459350585938 179.43643188476562 114.87969207763672 162.40130615234375 116.40410614013672 172.26620483398438" stroke-width="3.0" fill="none" stroke="rgb(0, 0, 0)" stroke-opacity="1.0" stroke-linecap="round" stroke-linejoin="round"/>
    <path d="M 149.34254455566406 80.90938568115234 C 124.29425811767578 136.9765625 162.1058349609375 73.20274353027344 139.2782440185547 176.78860473632812" stroke-width="3.0" fill="none" stroke="rgb(0, 0, 0)" stroke-opacity="1.0" stroke-linecap="round" stroke-linejoin="round"/>
    <path d="M 111.28279113769531 166.32102966308594 C 96.82586669921875 176.69227600097656 98.1723403930664 147.06103515625 121.53096771240234 169.0430145263672" stroke-width="3.0" fill="none" stroke="rgb(0, 0, 0)" stroke-opacity="1.0" stroke-linecap="round" stroke-linejoin="round"/>
    <path d="M 94.01090240478516 152.44129943847656 C 96.68054962158203 194.60719299316406 106.28289031982422 76.63003540039062 71.5555191040039 102.02272033691406" stroke-width="3.0" fill="none" stroke="rgb(0, 0, 0)" stroke-opacity="1.0" stroke-linecap="round" stroke-linejoin="round"/>
    <path d="M 87.1936264038086 159.32772827148438 C 117.76583862304688 167.89373779296875 149.36993408203125 168.08372497558594 85.7989730834961 166.72897338867188" stroke-width="3.0" fill="none" stroke="rgb(0, 0, 0)" stroke-opacity="1.0" stroke-linecap="round" stroke-linejoin="round"/>
    <path d="M 115.12311553955078 163.1564178466797 C 42.81589126586914 177.76284790039062 101.61187744140625 143.70770263671875 104.8863754272461 166.6982421875" stroke-width="3.0" fill="none" stroke="rgb(0, 0, 0)" stroke-opacity="1.0" stroke-linecap="round" stroke-linejoin="round"/>
    <path d="M 116.87133026123047 81.08763122558594 C 109.52714538574219 104.25287628173828 165.7170867919922 104.18087768554688 116.04084777832031 79.26522827148438" stroke-width="3.0" fill="none" stroke="rgb(0, 0, 0)" stroke-opacity="1.0" stroke-linecap="round" stroke-linejoin="round"/>
    <path d="M 118.42527770996094 99.43653869628906 C 146.9031524658203 70.32991027832031 163.97842407226562 106.43205261230469 123.74768829345703 98.96401977539062" stroke-width="3.0" fill="none" stroke="rgb(0, 0, 0)" stroke-opacity="1.0" stroke-linecap="round" stroke-linejoin="round"/>
  </g>
</svg>
