<?xml version="1.0" ?>
<svg xmlns="http://www.w3.org/2000/svg" version="1.1" width="224" height="224">
  <defs/>
  <g>
    <path d="M 79.30668640136719 167.56399536132812 C 109.91246795654297 154.9212646484375 85.98837280273438 193.443115234375 97.7121810913086 143.6416473388672" stroke-width="3.0" fill="none" stroke="rgb(0, 0, 0)" stroke-opacity="1.0" stroke-linecap="round" stroke-linejoin="round"/>
    <path d="M 112.78157806396484 162.7800750732422 C 38.9637565612793 154.57693481445312 82.0097885131836 189.40248107910156 120.96521759033203 173.46096801757812" stroke-width="3.0" fill="none" stroke="rgb(0, 0, 0)" stroke-opacity="1.0" stroke-linecap="round" stroke-linejoin="round"/>
    <path d="M 129.08372497558594 179.45960998535156 C 153.1858367919922 181.2095947265625 140.78013610839844 171.83401489257812 143.22857666015625 168.1437530517578" stroke-width="3.0" fill="none" stroke="rgb(0, 0, 0)" stroke-opacity="1.0" stroke-linecap="round" stroke-linejoin="round"/>
    <path d="M 67.15139770507812 167.4069366455078 C 62.033897399902344 178.05299377441406 110.71170043945312 179.1238555908203 82.73341369628906 177.25682067871094" stroke-width="3.0" fill="none" stroke="rgb(0, 0, 0)" stroke-opacity="1.0" stroke-linecap="round" stroke-linejoin="round"/>
    <path d="M 127.43733978271484 143.80064392089844 C 129.90408325195312 161.84779357910156 131.327392578125 146.3977508544922 131.66629028320312 178.4399871826172" stroke-width="3.0" fill="none" stroke="rgb(0, 0, 0)" stroke-opacity="1.0" stroke-linecap="round" stroke-linejoin="round"/>
    <path d="M 124.01968383789062 172.27581787109375 C 109.33846282958984 156.3663787841797 97.54810333251953 166.9712371826172 87.21356201171875 170.94473266601562" stroke-width="3.0" fill="none" stroke="rgb(0, 0, 0)" stroke-opacity="1.0" stroke-linecap="round" stroke-linejoin="round"/>
    <path d="M 144.8113250732422 164.41026306152344 C 155.82562255859375 160.3232879638672 146.61021423339844 149.7747039794922 145.64907836914062 133.95790100097656" stroke-width="3.0" fill="none" stroke="rgb(0, 0, 0)" stroke-opacity="1.0" stroke-linecap="round" stroke-linejoin="round"/>
    <path d="M 76.09481811523438 166.8991241455078 C 91.47480010986328 181.10794067382812 153.93096923828125 164.41873168945312 87.39057159423828 168.2683563232422" stroke-width="3.0" fill="none" stroke="rgb(0, 0, 0)" stroke-opacity="1.0" stroke-linecap="round" stroke-linejoin="round"/>
    <path d="M 128.17926025390625 174.7559051513672 C 145.91854858398438 180.67440795898438 111.31209564208984 181.9256134033203 133.79937744140625 179.69813537597656" stroke-width="3.0" fill="none" stroke="rgb(0, 0, 0)" stroke-opacity="1.0" stroke-linecap="round" stroke-linejoin="round"/>
    <path d="M 145.01419067382812 95.80146789550781 C 132.37559509277344 124.12589263916016 159.320556640625 85.53633117675781 139.8871612548828 173.12417602539062" stroke-width="3.0" fill="none" stroke="rgb(0, 0, 0)" stroke-opacity="1.0" stroke-linecap="round" stroke-linejoin="round"/>
    <path d="M 107.52623748779297 167.96946716308594 C 119.41090393066406 138.22174072265625 106.47401428222656 140.70196533203125 123.32991790771484 176.59912109375" stroke-width="3.0" fill="none" stroke="rgb(0, 0, 0)" stroke-opacity="1.0" stroke-linecap="round" stroke-linejoin="round"/>
    <path d="M 66.46143341064453 165.76895141601562 C 67.25568389892578 147.1090087890625 128.73333740234375 162.5087890625 77.67921447753906 99.88632202148438" stroke-width="3.0" fill="none" stroke="rgb(0, 0, 0)" stroke-opacity="1.0" stroke-linecap="round" stroke-linejoin="round"/>
    <path d="M 78.36465454101562 165.04058837890625 C 100.82323455810547 155.32830810546875 118.06688690185547 175.18505859375 82.37303161621094 167.6317901611328" stroke-width="3.0" fill="none" stroke="rgb(0, 0, 0)" stroke-opacity="1.0" stroke-linecap="round" stroke-linejoin="round"/>
    <path d="M 115.09349060058594 169.03793334960938 C 57.4328498840332 170.74267578125 72.31461334228516 153.75210571289062 111.16580963134766 159.8174285888672" stroke-width="3.0" fill="none" stroke="rgb(0, 0, 0)" stroke-opacity="1.0" stroke-linecap="round" stroke-linejoin="round"/>
    <path d="M 118.18668365478516 88.6002426147461 C 110.06339263916016 103.0419692993164 146.54759216308594 101.0066146850586 117.11846160888672 85.26547241210938" stroke-width="3.0" fill="none" stroke="rgb(0, 0, 0)" stroke-opacity="1.0" stroke-linecap="round" stroke-linejoin="round"/>
    <path d="M 132.86880493164062 93.72880554199219 C 153.16200256347656 81.97503662109375 133.9741668701172 102.37033081054688 135.5723876953125 95.05896759033203" stroke-width="3.0" fill="none" stroke="rgb(0, 0, 0)" stroke-opacity="1.0" stroke-linecap="round" stroke-linejoin="round"/>
  </g>
</svg>
