<?xml version="1.0" ?>
<svg xmlns="http://www.w3.org/2000/svg" version="1.1" width="224" height="224">
  <defs/>
  <g>
    <path d="M 139.05113220214844 122.78564453125 C 102.826416015625 94.13663482666016 85.36497497558594 127.19941711425781 135.52476501464844 110.94114685058594" stroke-width="3.0" fill="none" stroke="rgb(0, 0, 0)" stroke-opacity="1.0" stroke-linecap="round" stroke-linejoin="round"/>
    <path d="M 157.05076599121094 110.37247467041016 C 170.5093994140625 136.39694213867188 241.93603515625 140.30348205566406 185.40594482421875 129.8102569580078" stroke-width="3.0" fill="none" stroke="rgb(0, 0, 0)" stroke-opacity="1.0" stroke-linecap="round" stroke-linejoin="round"/>
    <path d="M 131.3594512939453 134.47821044921875 C 127.09974670410156 78.50919342041016 125.52426147460938 114.05979919433594 155.27378845214844 143.889892578125" stroke-width="3.0" fill="none" stroke="rgb(0, 0, 0)" stroke-opacity="1.0" stroke-linecap="round" stroke-linejoin="round"/>
    <path d="M 124.09523010253906 135.74160766601562 C 121.19420623779297 82.91088104248047 102.70540618896484 120.75853729248047 159.5382537841797 104.13427734375" stroke-width="3.0" fill="none" stroke="rgb(0, 0, 0)" stroke-opacity="1.0" stroke-linecap="round" stroke-linejoin="round"/>
    <path d="M 106.60269927978516 126.66345977783203 C 120.50794219970703 103.10537719726562 70.14859008789062 84.79691314697266 74.60521697998047 126.68232727050781" stroke-width="3.0" fill="none" stroke="rgb(0, 0, 0)" stroke-opacity="1.0" stroke-linecap="round" stroke-linejoin="round"/>
    <path d="M 116.17393493652344 136.11146545410156 C 134.29965209960938 143.0402374267578 140.62258911132812 102.64104461669922 129.4434051513672 105.7154769897461" stroke-width="3.0" fill="none" stroke="rgb(0, 0, 0)" stroke-opacity="1.0" stroke-linecap="round" stroke-linejoin="round"/>
    <path d="M 79.16185760498047 133.70748901367188 C 52.48226547241211 119.70455932617188 112.75387573242188 90.95313262939453 51.65919494628906 86.44071197509766" stroke-width="3.0" fill="none" stroke="rgb(0, 0, 0)" stroke-opacity="1.0" stroke-linecap="round" stroke-linejoin="round"/>
    <path d="M 139.73533630371094 113.45292663574219 C 114.30488586425781 150.9225311279297 212.3756561279297 153.67535400390625 139.6692657470703 136.99093627929688" stroke-width="3.0" fill="none" stroke="rgb(0, 0, 0)" stroke-opacity="1.0" stroke-linecap="round" stroke-linejoin="round"/>
    <path d="M 176.60704040527344 162.04466247558594 C 179.79393005371094 147.51358032226562 198.7601318359375 187.7020721435547 160.9365234375 143.04734802246094" stroke-width="3.0" fill="none" stroke="rgb(0, 0, 0)" stroke-opacity="1.0" stroke-linecap="round" stroke-linejoin="round"/>
    <path d="M 134.81336975097656 139.4979248046875 C 134.3900146484375 78.65568542480469 147.15414428710938 113.28993225097656 114.27837371826172 133.54641723632812" stroke-width="3.0" fill="none" stroke="rgb(0, 0, 0)" stroke-opacity="1.0" stroke-linecap="round" stroke-linejoin="round"/>
    <path d="M 135.3618927001953 153.97940063476562 C 151.1956329345703 119.97429656982422 151.9453887939453 89.19658660888672 135.30918884277344 138.04989624023438" stroke-width="3.0" fill="none" stroke="rgb(0, 0, 0)" stroke-opacity="1.0" stroke-linecap="round" stroke-linejoin="round"/>
    <path d="M 134.720947265625 112.8593521118164 C 89.0633544921875 107.44695281982422 89.67529296875 93.60294342041016 68.15962219238281 82.6723403930664" stroke-width="3.0" fill="none" stroke="rgb(0, 0, 0)" stroke-opacity="1.0" stroke-linecap="round" stroke-linejoin="round"/>
    <path d="M 92.75116729736328 98.6774673461914 C 140.26248168945312 107.98223114013672 117.0805435180664 83.52284240722656 112.27909851074219 132.79966735839844" stroke-width="3.0" fill="none" stroke="rgb(0, 0, 0)" stroke-opacity="1.0" stroke-linecap="round" stroke-linejoin="round"/>
    <path d="M 98.74805450439453 148.5006103515625 C 145.2815704345703 146.71743774414062 137.3521270751953 81.44010162353516 131.28546142578125 155.49244689941406" stroke-width="3.0" fill="none" stroke="rgb(0, 0, 0)" stroke-opacity="1.0" stroke-linecap="round" stroke-linejoin="round"/>
    <path d="M 81.07996368408203 85.95247650146484 C 36.205631256103516 65.7553939819336 44.4124641418457 107.69145965576172 61.358665466308594 82.80986022949219" stroke-width="3.0" fill="none" stroke="rgb(0, 0, 0)" stroke-opacity="1.0" stroke-linecap="round" stroke-linejoin="round"/>
    <path d="M 55.22262954711914 69.64830780029297 C 68.13627624511719 88.84862518310547 77.37748718261719 71.66268157958984 81.81844329833984 107.48938751220703" stroke-width="3.0" fill="none" stroke="rgb(0, 0, 0)" stroke-opacity="1.0" stroke-linecap="round" stroke-linejoin="round"/>
    <path d="M 85.01978302001953 99.35970306396484 C 50.26420211791992 77.88566589355469 24.8248291015625 74.1094970703125 73.75492858886719 81.56376647949219" stroke-width="3.0" fill="none" stroke="rgb(0, 0, 0)" stroke-opacity="1.0" stroke-linecap="round" stroke-linejoin="round"/>
    <path d="M 79.75424194335938 161.8409423828125 C 41.69390869140625 120.4417495727539 72.4316177368164 150.427978515625 95.29286193847656 120.49102020263672" stroke-width="3.0" fill="none" stroke="rgb(0, 0, 0)" stroke-opacity="1.0" stroke-linecap="round" stroke-linejoin="round"/>
    <path d="M 136.58096313476562 101.51341247558594 C 153.48899841308594 143.0812225341797 157.5806884765625 87.35345458984375 107.27178192138672 108.92034912109375" stroke-width="3.0" fill="none" stroke="rgb(0, 0, 0)" stroke-opacity="1.0" stroke-linecap="round" stroke-linejoin="round"/>
    <path d="M 128.0897979736328 118.22161102294922 C 143.15054321289062 193.7159881591797 152.3990020751953 113.2619400024414 128.0904541015625 105.78925323486328" stroke-width="3.0" fill="none" stroke="rgb(0, 0, 0)" stroke-opacity="1.0" stroke-linecap="round" stroke-linejoin="round"/>
    <path d="M 98.02452850341797 148.70591735839844 C 83.21327209472656 168.96600341796875 125.27098846435547 163.131103515625 105.0534439086914 170.31056213378906" stroke-width="3.0" fill="none" stroke="rgb(0, 0, 0)" stroke-opacity="1.0" stroke-linecap="round" stroke-linejoin="round"/>
    <path d="M 78.13642883300781 124.55191040039062 C 145.44219970703125 134.17514038085938 133.78115844726562 129.3903350830078 145.44430541992188 117.72574615478516" stroke-width="3.0" fill="none" stroke="rgb(0, 0, 0)" stroke-opacity="1.0" stroke-linecap="round" stroke-linejoin="round"/>
    <path d="M 132.82420349121094 100.91284942626953 C 85.91386413574219 112.2332992553711 108.80838775634766 82.66976928710938 73.53953552246094 125.75411987304688" stroke-width="3.0" fill="none" stroke="rgb(0, 0, 0)" stroke-opacity="1.0" stroke-linecap="round" stroke-linejoin="round"/>
    <path d="M 136.21670532226562 111.35887145996094 C 147.59002685546875 119.44544982910156 117.67293548583984 148.33413696289062 148.14686584472656 140.6177978515625" stroke-width="3.0" fill="none" stroke="rgb(0, 0, 0)" stroke-opacity="1.0" stroke-linecap="round" stroke-linejoin="round"/>
    <path d="M 81.6877670288086 111.09772491455078 C 34.69626998901367 60.00639343261719 55.9232292175293 72.0226058959961 78.38204956054688 94.48238372802734" stroke-width="3.0" fill="none" stroke="rgb(0, 0, 0)" stroke-opacity="1.0" stroke-linecap="round" stroke-linejoin="round"/>
    <path d="M 74.9004135131836 125.63286590576172 C 124.78425598144531 136.4679412841797 96.6454086303711 137.7164764404297 94.04378509521484 116.06257629394531" stroke-width="3.0" fill="none" stroke="rgb(0, 0, 0)" stroke-opacity="1.0" stroke-linecap="round" stroke-linejoin="round"/>
    <path d="M 56.45891571044922 71.88780212402344 C 24.74332618713379 106.92633056640625 39.73221969604492 106.14732360839844 61.22006607055664 77.40845489501953" stroke-width="3.0" fill="none" stroke="rgb(0, 0, 0)" stroke-opacity="1.0" stroke-linecap="round" stroke-linejoin="round"/>
    <path d="M 82.22810363769531 170.27719116210938 C 91.46553802490234 148.5353546142578 30.151147842407227 144.3685760498047 92.27667236328125 126.22146606445312" stroke-width="3.0" fill="none" stroke="rgb(0, 0, 0)" stroke-opacity="1.0" stroke-linecap="round" stroke-linejoin="round"/>
    <path d="M 181.085693359375 127.36129760742188 C 167.3006591796875 119.34612274169922 165.1603240966797 87.28269958496094 150.07040405273438 109.22492980957031" stroke-width="3.0" fill="none" stroke="rgb(0, 0, 0)" stroke-opacity="1.0" stroke-linecap="round" stroke-linejoin="round"/>
    <path d="M 115.13539123535156 141.80519104003906 C 145.92129516601562 92.51445770263672 135.76063537597656 87.32585906982422 116.66866302490234 126.12994384765625" stroke-width="3.0" fill="none" stroke="rgb(0, 0, 0)" stroke-opacity="1.0" stroke-linecap="round" stroke-linejoin="round"/>
    <path d="M 55.14695739746094 76.90770721435547 C 98.0965805053711 124.46216583251953 83.30009460449219 129.99281311035156 71.13115692138672 80.02069854736328" stroke-width="3.0" fill="none" stroke="rgb(0, 0, 0)" stroke-opacity="1.0" stroke-linecap="round" stroke-linejoin="round"/>
    <path d="M 129.2340545654297 112.34468078613281 C 145.8006134033203 128.31507873535156 129.27821350097656 111.85160827636719 127.40811157226562 134.9437713623047" stroke-width="3.0" fill="none" stroke="rgb(0, 0, 0)" stroke-opacity="1.0" stroke-linecap="round" stroke-linejoin="round"/>
    <path d="M 70.10900115966797 98.17699432373047 C 116.03631591796875 105.68684387207031 97.95967102050781 88.07189178466797 69.60326385498047 97.59353637695312" stroke-width="3.0" fill="none" stroke="rgb(0, 0, 0)" stroke-opacity="1.0" stroke-linecap="round" stroke-linejoin="round"/>
    <path d="M 125.71454620361328 119.90618133544922 C 133.41232299804688 147.4591522216797 120.49473571777344 116.12447357177734 116.82864379882812 105.21285247802734" stroke-width="3.0" fill="none" stroke="rgb(0, 0, 0)" stroke-opacity="1.0" stroke-linecap="round" stroke-linejoin="round"/>
    <path d="M 78.39653778076172 83.02027893066406 C 31.027177810668945 89.72010040283203 69.936767578125 62.364410400390625 83.83058166503906 90.81806182861328" stroke-width="3.0" fill="none" stroke="rgb(0, 0, 0)" stroke-opacity="1.0" stroke-linecap="round" stroke-linejoin="round"/>
    <path d="M 109.41962432861328 104.6238021850586 C 109.10414123535156 161.48904418945312 152.16641235351562 119.13289642333984 123.41487121582031 130.4274139404297" stroke-width="3.0" fill="none" stroke="rgb(0, 0, 0)" stroke-opacity="1.0" stroke-linecap="round" stroke-linejoin="round"/>
    <path d="M 109.3992691040039 130.02877807617188 C 130.58152770996094 93.65699005126953 133.03004455566406 118.44921112060547 111.52488708496094 122.20950317382812" stroke-width="3.0" fill="none" stroke="rgb(0, 0, 0)" stroke-opacity="1.0" stroke-linecap="round" stroke-linejoin="round"/>
    <path d="M 141.33946228027344 154.06422424316406 C 141.55709838867188 131.66188049316406 162.0604705810547 106.31375122070312 134.8707275390625 109.07051086425781" stroke-width="3.0" fill="none" stroke="rgb(0, 0, 0)" stroke-opacity="1.0" stroke-linecap="round" stroke-linejoin="round"/>
    <path d="M 104.57173156738281 109.59879302978516 C 146.9327392578125 171.1780242919922 169.08090209960938 115.12980651855469 109.43074798583984 175.0240020751953" stroke-width="3.0" fill="none" stroke="rgb(0, 0, 0)" stroke-opacity="1.0" stroke-linecap="round" stroke-linejoin="round"/>
    <path d="M 201.94638061523438 130.4605255126953 C 155.4798583984375 120.4088134765625 144.78207397460938 95.42841339111328 184.3548126220703 127.29228210449219" stroke-width="3.0" fill="none" stroke="rgb(0, 0, 0)" stroke-opacity="1.0" stroke-linecap="round" stroke-linejoin="round"/>
    <path d="M 128.01837158203125 127.54176330566406 C 92.19815826416016 93.79782104492188 157.88729858398438 86.92156219482422 143.5464324951172 125.73771667480469" stroke-width="3.0" fill="none" stroke="rgb(0, 0, 0)" stroke-opacity="1.0" stroke-linecap="round" stroke-linejoin="round"/>
    <path d="M 77.61077117919922 83.20349884033203 C 41.19545364379883 59.83562088012695 72.07819366455078 85.65522003173828 80.70407104492188 131.7379150390625" stroke-width="3.0" fill="none" stroke="rgb(0, 0, 0)" stroke-opacity="1.0" stroke-linecap="round" stroke-linejoin="round"/>
    <path d="M 76.93419647216797 130.4512481689453 C 162.45681762695312 142.20892333984375 110.85160064697266 141.71029663085938 98.18144989013672 121.41493225097656" stroke-width="3.0" fill="none" stroke="rgb(0, 0, 0)" stroke-opacity="1.0" stroke-linecap="round" stroke-linejoin="round"/>
    <path d="M 56.783077239990234 72.30824279785156 C 106.95695495605469 71.60792541503906 85.78085327148438 138.21011352539062 70.41876983642578 86.30724334716797" stroke-width="3.0" fill="none" stroke="rgb(0, 0, 0)" stroke-opacity="1.0" stroke-linecap="round" stroke-linejoin="round"/>
    <path d="M 139.23751831054688 130.08700561523438 C 125.94209289550781 119.73961639404297 127.65833282470703 86.97927856445312 119.78041076660156 136.5340576171875" stroke-width="3.0" fill="none" stroke="rgb(0, 0, 0)" stroke-opacity="1.0" stroke-linecap="round" stroke-linejoin="round"/>
    <path d="M 158.4728240966797 101.709228515625 C 183.36485290527344 133.06045532226562 205.2916717529297 138.24024963378906 158.1598663330078 101.50001525878906" stroke-width="3.0" fill="none" stroke="rgb(0, 0, 0)" stroke-opacity="1.0" stroke-linecap="round" stroke-linejoin="round"/>
    <path d="M 43.644195556640625 91.00753021240234 C 62.1186408996582 104.8425064086914 55.90080642700195 63.99760055541992 84.20730590820312 98.48212432861328" stroke-width="3.0" fill="none" stroke="rgb(0, 0, 0)" stroke-opacity="1.0" stroke-linecap="round" stroke-linejoin="round"/>
    <path d="M 58.418739318847656 73.31380462646484 C 45.825923919677734 114.09648895263672 36.550533294677734 83.83809661865234 58.699527740478516 83.1006851196289" stroke-width="3.0" fill="none" stroke="rgb(0, 0, 0)" stroke-opacity="1.0" stroke-linecap="round" stroke-linejoin="round"/>
  </g>
</svg>
