<?xml version="1.0" ?>
<svg xmlns="http://www.w3.org/2000/svg" version="1.1" width="224" height="224">
  <defs/>
  <g>
    <path d="M 147.87750244140625 120.84578704833984 C 106.84947204589844 93.53288269042969 73.92610168457031 107.60816955566406 130.24073791503906 103.47369384765625" stroke-width="3.0" fill="none" stroke="rgb(0, 0, 0)" stroke-opacity="1.0" stroke-linecap="round" stroke-linejoin="round"/>
    <path d="M 160.41819763183594 103.4208755493164 C 167.61077880859375 139.2893829345703 251.40122985839844 142.67694091796875 161.8545684814453 118.40908813476562" stroke-width="3.0" fill="none" stroke="rgb(0, 0, 0)" stroke-opacity="1.0" stroke-linecap="round" stroke-linejoin="round"/>
    <path d="M 145.5254669189453 127.33936309814453 C 128.52218627929688 81.95542907714844 105.13899230957031 146.28253173828125 161.6587371826172 146.18496704101562" stroke-width="3.0" fill="none" stroke="rgb(0, 0, 0)" stroke-opacity="1.0" stroke-linecap="round" stroke-linejoin="round"/>
    <path d="M 137.1131134033203 148.49459838867188 C 111.02725982666016 72.34960174560547 131.640380859375 122.52339935302734 147.35098266601562 105.65323638916016" stroke-width="3.0" fill="none" stroke="rgb(0, 0, 0)" stroke-opacity="1.0" stroke-linecap="round" stroke-linejoin="round"/>
    <path d="M 126.82525634765625 123.92720794677734 C 129.23944091796875 92.93494415283203 55.539310455322266 98.4332046508789 72.39774322509766 129.3916473388672" stroke-width="3.0" fill="none" stroke="rgb(0, 0, 0)" stroke-opacity="1.0" stroke-linecap="round" stroke-linejoin="round"/>
    <path d="M 121.34477233886719 128.6790771484375 C 124.16584014892578 142.107177734375 126.88434600830078 104.84475708007812 111.71086883544922 105.67335510253906" stroke-width="3.0" fill="none" stroke="rgb(0, 0, 0)" stroke-opacity="1.0" stroke-linecap="round" stroke-linejoin="round"/>
    <path d="M 78.06843566894531 120.2628402709961 C 46.052642822265625 131.1702423095703 127.73319244384766 89.66101837158203 55.796695709228516 73.24981689453125" stroke-width="3.0" fill="none" stroke="rgb(0, 0, 0)" stroke-opacity="1.0" stroke-linecap="round" stroke-linejoin="round"/>
    <path d="M 148.02261352539062 109.04713439941406 C 139.8453826904297 153.39036560058594 228.97254943847656 167.3166961669922 133.820556640625 138.7891082763672" stroke-width="3.0" fill="none" stroke="rgb(0, 0, 0)" stroke-opacity="1.0" stroke-linecap="round" stroke-linejoin="round"/>
    <path d="M 181.52613830566406 162.5458221435547 C 177.68325805664062 140.926025390625 202.692138671875 191.35670471191406 164.55789184570312 143.6538848876953" stroke-width="3.0" fill="none" stroke="rgb(0, 0, 0)" stroke-opacity="1.0" stroke-linecap="round" stroke-linejoin="round"/>
    <path d="M 128.46554565429688 128.85679626464844 C 116.04503631591797 69.18392944335938 151.2759552001953 118.98690795898438 124.61122131347656 123.80638885498047" stroke-width="3.0" fill="none" stroke="rgb(0, 0, 0)" stroke-opacity="1.0" stroke-linecap="round" stroke-linejoin="round"/>
    <path d="M 135.42649841308594 152.60914611816406 C 154.61598205566406 118.38088989257812 153.43716430664062 88.49748229980469 131.63995361328125 156.70416259765625" stroke-width="3.0" fill="none" stroke="rgb(0, 0, 0)" stroke-opacity="1.0" stroke-linecap="round" stroke-linejoin="round"/>
    <path d="M 138.5967254638672 108.32573699951172 C 79.06196594238281 104.6975326538086 92.07931518554688 95.10653686523438 71.72655487060547 80.43329620361328" stroke-width="3.0" fill="none" stroke="rgb(0, 0, 0)" stroke-opacity="1.0" stroke-linecap="round" stroke-linejoin="round"/>
    <path d="M 104.97402954101562 103.74932098388672 C 146.26039123535156 100.64753723144531 138.20672607421875 95.37062072753906 141.41131591796875 141.7250213623047" stroke-width="3.0" fill="none" stroke="rgb(0, 0, 0)" stroke-opacity="1.0" stroke-linecap="round" stroke-linejoin="round"/>
    <path d="M 100.43711853027344 146.80838012695312 C 145.1315155029297 139.40060424804688 150.2008056640625 76.11669921875 133.2772674560547 154.2794952392578" stroke-width="3.0" fill="none" stroke="rgb(0, 0, 0)" stroke-opacity="1.0" stroke-linecap="round" stroke-linejoin="round"/>
    <path d="M 84.75724792480469 97.48180389404297 C 48.10960388183594 69.72554779052734 21.47759437561035 121.19847106933594 50.486732482910156 77.88843536376953" stroke-width="3.0" fill="none" stroke="rgb(0, 0, 0)" stroke-opacity="1.0" stroke-linecap="round" stroke-linejoin="round"/>
    <path d="M 54.655494689941406 70.73848724365234 C 73.16093444824219 88.0142593383789 86.17513275146484 77.69171142578125 84.98079681396484 101.4980239868164" stroke-width="3.0" fill="none" stroke="rgb(0, 0, 0)" stroke-opacity="1.0" stroke-linecap="round" stroke-linejoin="round"/>
    <path d="M 91.16763305664062 97.85033416748047 C 61.57734680175781 66.24989318847656 11.19155216217041 84.57539367675781 76.6073226928711 80.77204895019531" stroke-width="3.0" fill="none" stroke="rgb(0, 0, 0)" stroke-opacity="1.0" stroke-linecap="round" stroke-linejoin="round"/>
    <path d="M 79.19505310058594 165.19369506835938 C 35.00212860107422 117.99758911132812 77.92832946777344 153.71958923339844 94.62631225585938 116.6780776977539" stroke-width="3.0" fill="none" stroke="rgb(0, 0, 0)" stroke-opacity="1.0" stroke-linecap="round" stroke-linejoin="round"/>
    <path d="M 132.93798828125 115.8571548461914 C 154.9237060546875 159.5814208984375 159.57106018066406 77.76838684082031 110.3226089477539 105.07756805419922" stroke-width="3.0" fill="none" stroke="rgb(0, 0, 0)" stroke-opacity="1.0" stroke-linecap="round" stroke-linejoin="round"/>
    <path d="M 128.0035400390625 105.54680633544922 C 138.48875427246094 197.2314910888672 153.18753051757812 98.38751220703125 130.14410400390625 102.4677734375" stroke-width="3.0" fill="none" stroke="rgb(0, 0, 0)" stroke-opacity="1.0" stroke-linecap="round" stroke-linejoin="round"/>
    <path d="M 100.32247161865234 148.7884521484375 C 82.42353057861328 167.59036254882812 117.79102325439453 180.28041076660156 95.66764068603516 160.99551391601562" stroke-width="3.0" fill="none" stroke="rgb(0, 0, 0)" stroke-opacity="1.0" stroke-linecap="round" stroke-linejoin="round"/>
    <path d="M 75.45001983642578 126.02196502685547 C 136.8670654296875 143.1641082763672 134.06285095214844 125.66842651367188 150.5975341796875 109.35304260253906" stroke-width="3.0" fill="none" stroke="rgb(0, 0, 0)" stroke-opacity="1.0" stroke-linecap="round" stroke-linejoin="round"/>
    <path d="M 136.8073272705078 104.57888793945312 C 82.80574035644531 115.95555877685547 101.4357681274414 75.04570007324219 74.14236450195312 115.57561492919922" stroke-width="3.0" fill="none" stroke="rgb(0, 0, 0)" stroke-opacity="1.0" stroke-linecap="round" stroke-linejoin="round"/>
    <path d="M 143.77606201171875 113.84613037109375 C 168.4292449951172 110.61197662353516 121.2854995727539 149.98776245117188 150.34182739257812 131.36439514160156" stroke-width="3.0" fill="none" stroke="rgb(0, 0, 0)" stroke-opacity="1.0" stroke-linecap="round" stroke-linejoin="round"/>
    <path d="M 83.30899810791016 106.6141586303711 C 67.61685180664062 57.65620803833008 70.57646179199219 70.24516296386719 74.1885986328125 114.71160125732422" stroke-width="3.0" fill="none" stroke="rgb(0, 0, 0)" stroke-opacity="1.0" stroke-linecap="round" stroke-linejoin="round"/>
    <path d="M 73.61885070800781 122.76102447509766 C 127.87288665771484 137.34202575683594 105.1583480834961 134.00601196289062 98.71992492675781 121.53874206542969" stroke-width="3.0" fill="none" stroke="rgb(0, 0, 0)" stroke-opacity="1.0" stroke-linecap="round" stroke-linejoin="round"/>
    <path d="M 59.27042007446289 70.7101821899414 C 24.004573822021484 105.09312438964844 38.08566665649414 105.06637573242188 66.10031127929688 78.587890625" stroke-width="3.0" fill="none" stroke="rgb(0, 0, 0)" stroke-opacity="1.0" stroke-linecap="round" stroke-linejoin="round"/>
    <path d="M 82.94779968261719 172.39317321777344 C 99.08065795898438 162.1612091064453 22.607791900634766 143.44395446777344 93.15130615234375 125.83633422851562" stroke-width="3.0" fill="none" stroke="rgb(0, 0, 0)" stroke-opacity="1.0" stroke-linecap="round" stroke-linejoin="round"/>
    <path d="M 181.54270935058594 125.16126251220703 C 162.75454711914062 116.61607360839844 168.54322814941406 85.23367309570312 148.36248779296875 107.09207916259766" stroke-width="3.0" fill="none" stroke="rgb(0, 0, 0)" stroke-opacity="1.0" stroke-linecap="round" stroke-linejoin="round"/>
    <path d="M 115.24063110351562 133.8385772705078 C 179.05003356933594 114.62301635742188 142.64630126953125 90.19094848632812 117.2367172241211 132.6966094970703" stroke-width="3.0" fill="none" stroke="rgb(0, 0, 0)" stroke-opacity="1.0" stroke-linecap="round" stroke-linejoin="round"/>
    <path d="M 66.39234161376953 72.7635269165039 C 103.62831115722656 108.73894500732422 89.62123107910156 114.76847076416016 60.80710220336914 71.15363311767578" stroke-width="3.0" fill="none" stroke="rgb(0, 0, 0)" stroke-opacity="1.0" stroke-linecap="round" stroke-linejoin="round"/>
    <path d="M 135.64715576171875 112.69308471679688 C 152.575927734375 128.49790954589844 135.8431396484375 116.60525512695312 114.33097839355469 134.49148559570312" stroke-width="3.0" fill="none" stroke="rgb(0, 0, 0)" stroke-opacity="1.0" stroke-linecap="round" stroke-linejoin="round"/>
    <path d="M 69.23302459716797 81.69856262207031 C 116.47793579101562 125.82534790039062 110.48438262939453 95.37356567382812 82.65901947021484 99.91268920898438" stroke-width="3.0" fill="none" stroke="rgb(0, 0, 0)" stroke-opacity="1.0" stroke-linecap="round" stroke-linejoin="round"/>
    <path d="M 126.49114990234375 107.73790740966797 C 139.97061157226562 140.99403381347656 133.5664520263672 105.70829010009766 128.8242645263672 102.25172424316406" stroke-width="3.0" fill="none" stroke="rgb(0, 0, 0)" stroke-opacity="1.0" stroke-linecap="round" stroke-linejoin="round"/>
    <path d="M 68.70922088623047 79.89813995361328 C 17.596309661865234 107.02801513671875 69.06983947753906 57.07414627075195 80.21971893310547 106.31996154785156" stroke-width="3.0" fill="none" stroke="rgb(0, 0, 0)" stroke-opacity="1.0" stroke-linecap="round" stroke-linejoin="round"/>
    <path d="M 131.81356811523438 121.67472839355469 C 98.45389556884766 168.59548950195312 139.7933349609375 112.19430541992188 121.83666229248047 136.10169982910156" stroke-width="3.0" fill="none" stroke="rgb(0, 0, 0)" stroke-opacity="1.0" stroke-linecap="round" stroke-linejoin="round"/>
    <path d="M 116.7381591796875 134.8743896484375 C 131.47113037109375 97.1445541381836 130.7308349609375 125.28417205810547 124.7728500366211 101.41104888916016" stroke-width="3.0" fill="none" stroke="rgb(0, 0, 0)" stroke-opacity="1.0" stroke-linecap="round" stroke-linejoin="round"/>
    <path d="M 143.21510314941406 145.13233947753906 C 126.56794738769531 117.47476196289062 154.4857177734375 117.77911376953125 126.62088012695312 100.25389862060547" stroke-width="3.0" fill="none" stroke="rgb(0, 0, 0)" stroke-opacity="1.0" stroke-linecap="round" stroke-linejoin="round"/>
    <path d="M 120.6012191772461 102.6946792602539 C 140.81959533691406 173.6321563720703 158.33383178710938 130.3042755126953 110.10932159423828 176.3993377685547" stroke-width="3.0" fill="none" stroke="rgb(0, 0, 0)" stroke-opacity="1.0" stroke-linecap="round" stroke-linejoin="round"/>
    <path d="M 195.0532684326172 127.04916381835938 C 134.79388427734375 147.49571228027344 126.712890625 137.85089111328125 168.3089599609375 135.1118621826172" stroke-width="3.0" fill="none" stroke="rgb(0, 0, 0)" stroke-opacity="1.0" stroke-linecap="round" stroke-linejoin="round"/>
    <path d="M 135.9113311767578 118.19424438476562 C 99.872802734375 104.37140655517578 172.883056640625 102.23612213134766 134.06790161132812 138.0172119140625" stroke-width="3.0" fill="none" stroke="rgb(0, 0, 0)" stroke-opacity="1.0" stroke-linecap="round" stroke-linejoin="round"/>
    <path d="M 80.12344360351562 111.73255157470703 C 40.01292419433594 66.38971710205078 80.49502563476562 84.69894409179688 71.60659790039062 134.29269409179688" stroke-width="3.0" fill="none" stroke="rgb(0, 0, 0)" stroke-opacity="1.0" stroke-linecap="round" stroke-linejoin="round"/>
    <path d="M 73.96553802490234 130.270751953125 C 166.3839111328125 143.10284423828125 98.24476623535156 138.46054077148438 75.3819351196289 131.28555297851562" stroke-width="3.0" fill="none" stroke="rgb(0, 0, 0)" stroke-opacity="1.0" stroke-linecap="round" stroke-linejoin="round"/>
    <path d="M 52.460819244384766 76.32018280029297 C 112.81409454345703 59.982139587402344 90.8000259399414 145.8837127685547 64.49187469482422 84.84244537353516" stroke-width="3.0" fill="none" stroke="rgb(0, 0, 0)" stroke-opacity="1.0" stroke-linecap="round" stroke-linejoin="round"/>
    <path d="M 130.059326171875 125.64280700683594 C 118.11530303955078 97.42265319824219 167.14556884765625 90.97403717041016 148.7596893310547 136.1875" stroke-width="3.0" fill="none" stroke="rgb(0, 0, 0)" stroke-opacity="1.0" stroke-linecap="round" stroke-linejoin="round"/>
    <path d="M 160.5878448486328 102.52472686767578 C 181.4712371826172 132.644775390625 209.40274047851562 136.04209899902344 154.9868621826172 102.0683822631836" stroke-width="3.0" fill="none" stroke="rgb(0, 0, 0)" stroke-opacity="1.0" stroke-linecap="round" stroke-linejoin="round"/>
    <path d="M 58.20768356323242 76.7752456665039 C 59.5943603515625 88.55081939697266 51.47797393798828 59.900550842285156 81.78792572021484 108.59879302978516" stroke-width="3.0" fill="none" stroke="rgb(0, 0, 0)" stroke-opacity="1.0" stroke-linecap="round" stroke-linejoin="round"/>
    <path d="M 56.38833999633789 73.17375183105469 C 32.7647705078125 115.41425323486328 40.46577835083008 87.96075439453125 70.15576171875 86.2824935913086" stroke-width="3.0" fill="none" stroke="rgb(0, 0, 0)" stroke-opacity="1.0" stroke-linecap="round" stroke-linejoin="round"/>
  </g>
</svg>
