<?xml version="1.0" ?>
<svg xmlns="http://www.w3.org/2000/svg" version="1.1" width="224" height="224">
  <defs/>
  <g>
    <path d="M 120.52104187011719 104.71210479736328 C 88.66384887695312 98.67328643798828 89.15859985351562 107.92120361328125 131.53961181640625 99.13551330566406" stroke-width="3.0" fill="none" stroke="rgb(0, 0, 0)" stroke-opacity="1.0" stroke-linecap="round" stroke-linejoin="round"/>
    <path d="M 158.96047973632812 108.64510345458984 C 170.1289825439453 134.57257080078125 203.0686492919922 127.6927490234375 197.46067810058594 136.0652618408203" stroke-width="3.0" fill="none" stroke="rgb(0, 0, 0)" stroke-opacity="1.0" stroke-linecap="round" stroke-linejoin="round"/>
    <path d="M 144.73489379882812 120.51882934570312 C 127.73159790039062 99.19996643066406 127.9986572265625 111.78363800048828 156.88478088378906 140.2159881591797" stroke-width="3.0" fill="none" stroke="rgb(0, 0, 0)" stroke-opacity="1.0" stroke-linecap="round" stroke-linejoin="round"/>
    <path d="M 131.71893310546875 123.66192626953125 C 117.15459442138672 98.78665161132812 113.35635375976562 106.24118041992188 152.11099243164062 105.87712860107422" stroke-width="3.0" fill="none" stroke="rgb(0, 0, 0)" stroke-opacity="1.0" stroke-linecap="round" stroke-linejoin="round"/>
    <path d="M 136.18260192871094 113.02788543701172 C 108.65544891357422 100.46156311035156 82.3774642944336 93.3980712890625 74.1954345703125 130.1038055419922" stroke-width="3.0" fill="none" stroke="rgb(0, 0, 0)" stroke-opacity="1.0" stroke-linecap="round" stroke-linejoin="round"/>
    <path d="M 132.14732360839844 105.26720428466797 C 141.5462646484375 121.95643615722656 156.24227905273438 114.51969909667969 133.63528442382812 100.50358581542969" stroke-width="3.0" fill="none" stroke="rgb(0, 0, 0)" stroke-opacity="1.0" stroke-linecap="round" stroke-linejoin="round"/>
    <path d="M 77.38117218017578 130.68824768066406 C 61.32862854003906 105.15046691894531 99.04426574707031 121.57894897460938 65.43253326416016 81.40313720703125" stroke-width="3.0" fill="none" stroke="rgb(0, 0, 0)" stroke-opacity="1.0" stroke-linecap="round" stroke-linejoin="round"/>
    <path d="M 149.89511108398438 137.89175415039062 C 133.5407257080078 144.86685180664062 209.56578063964844 150.63027954101562 147.6030731201172 137.70384216308594" stroke-width="3.0" fill="none" stroke="rgb(0, 0, 0)" stroke-opacity="1.0" stroke-linecap="round" stroke-linejoin="round"/>
    <path d="M 184.81332397460938 166.27854919433594 C 185.08526611328125 154.97152709960938 187.57302856445312 168.9107208251953 163.4166717529297 141.9710235595703" stroke-width="3.0" fill="none" stroke="rgb(0, 0, 0)" stroke-opacity="1.0" stroke-linecap="round" stroke-linejoin="round"/>
    <path d="M 144.7901611328125 117.2899398803711 C 132.16807556152344 92.4915542602539 148.7123260498047 118.4539566040039 129.75267028808594 132.2978973388672" stroke-width="3.0" fill="none" stroke="rgb(0, 0, 0)" stroke-opacity="1.0" stroke-linecap="round" stroke-linejoin="round"/>
    <path d="M 132.8162841796875 132.39703369140625 C 150.94175720214844 115.38399505615234 156.10743713378906 105.4249267578125 146.82232666015625 141.77711486816406" stroke-width="3.0" fill="none" stroke="rgb(0, 0, 0)" stroke-opacity="1.0" stroke-linecap="round" stroke-linejoin="round"/>
    <path d="M 130.59327697753906 101.06043243408203 C 113.11803436279297 103.96414947509766 116.78851318359375 106.18132019042969 82.90692901611328 99.90398406982422" stroke-width="3.0" fill="none" stroke="rgb(0, 0, 0)" stroke-opacity="1.0" stroke-linecap="round" stroke-linejoin="round"/>
    <path d="M 118.13966369628906 104.494384765625 C 150.3967742919922 100.72859954833984 130.373779296875 92.16661834716797 123.20722198486328 135.08021545410156" stroke-width="3.0" fill="none" stroke="rgb(0, 0, 0)" stroke-opacity="1.0" stroke-linecap="round" stroke-linejoin="round"/>
    <path d="M 99.85572814941406 146.5195770263672 C 137.20899963378906 135.40988159179688 152.93588256835938 97.22077178955078 131.43093872070312 157.8816680908203" stroke-width="3.0" fill="none" stroke="rgb(0, 0, 0)" stroke-opacity="1.0" stroke-linecap="round" stroke-linejoin="round"/>
    <path d="M 80.18560028076172 93.38045501708984 C 26.13091468811035 70.03955078125 51.85608673095703 79.4567642211914 74.77639770507812 83.05845642089844" stroke-width="3.0" fill="none" stroke="rgb(0, 0, 0)" stroke-opacity="1.0" stroke-linecap="round" stroke-linejoin="round"/>
    <path d="M 53.7579231262207 70.24465942382812 C 68.33919525146484 77.77945709228516 87.57440185546875 77.29920959472656 82.2209701538086 103.1284408569336" stroke-width="3.0" fill="none" stroke="rgb(0, 0, 0)" stroke-opacity="1.0" stroke-linecap="round" stroke-linejoin="round"/>
    <path d="M 61.078102111816406 82.35975646972656 C 58.7110481262207 74.04231262207031 41.206199645996094 99.67333984375 65.64008331298828 81.56118774414062" stroke-width="3.0" fill="none" stroke="rgb(0, 0, 0)" stroke-opacity="1.0" stroke-linecap="round" stroke-linejoin="round"/>
    <path d="M 61.25687026977539 140.95455932617188 C 90.25211334228516 123.72245025634766 74.60821533203125 142.69227600097656 99.81788635253906 128.77084350585938" stroke-width="3.0" fill="none" stroke="rgb(0, 0, 0)" stroke-opacity="1.0" stroke-linecap="round" stroke-linejoin="round"/>
    <path d="M 125.01397705078125 106.65248107910156 C 157.3060760498047 131.4909210205078 156.85519409179688 106.62608337402344 122.1088638305664 105.79129791259766" stroke-width="3.0" fill="none" stroke="rgb(0, 0, 0)" stroke-opacity="1.0" stroke-linecap="round" stroke-linejoin="round"/>
    <path d="M 135.5534210205078 156.20761108398438 C 139.4427490234375 157.97412109375 119.11766815185547 138.6947784423828 148.25546264648438 116.845703125" stroke-width="3.0" fill="none" stroke="rgb(0, 0, 0)" stroke-opacity="1.0" stroke-linecap="round" stroke-linejoin="round"/>
    <path d="M 98.16889953613281 147.5285186767578 C 81.93553924560547 173.1820526123047 118.37313079833984 169.32810974121094 104.4495620727539 176.52195739746094" stroke-width="3.0" fill="none" stroke="rgb(0, 0, 0)" stroke-opacity="1.0" stroke-linecap="round" stroke-linejoin="round"/>
    <path d="M 87.34161376953125 133.70733642578125 C 127.58474731445312 128.85763549804688 131.117919921875 145.37583923339844 150.4296112060547 119.99125671386719" stroke-width="3.0" fill="none" stroke="rgb(0, 0, 0)" stroke-opacity="1.0" stroke-linecap="round" stroke-linejoin="round"/>
    <path d="M 126.435791015625 103.86481475830078 C 103.91387176513672 105.74455261230469 88.19544219970703 98.59122467041016 80.71893310546875 107.8175277709961" stroke-width="3.0" fill="none" stroke="rgb(0, 0, 0)" stroke-opacity="1.0" stroke-linecap="round" stroke-linejoin="round"/>
    <path d="M 143.13291931152344 113.08305358886719 C 142.73228454589844 154.99249267578125 125.78438568115234 141.0643310546875 140.80023193359375 128.0523223876953" stroke-width="3.0" fill="none" stroke="rgb(0, 0, 0)" stroke-opacity="1.0" stroke-linecap="round" stroke-linejoin="round"/>
    <path d="M 70.34343719482422 75.59761810302734 C 55.12380599975586 72.03755187988281 88.96862030029297 69.53292846679688 87.8691177368164 96.09154510498047" stroke-width="3.0" fill="none" stroke="rgb(0, 0, 0)" stroke-opacity="1.0" stroke-linecap="round" stroke-linejoin="round"/>
    <path d="M 93.89022827148438 122.67250061035156 C 97.35452270507812 130.7736053466797 84.22014617919922 142.39144897460938 95.41819763183594 118.25360870361328" stroke-width="3.0" fill="none" stroke="rgb(0, 0, 0)" stroke-opacity="1.0" stroke-linecap="round" stroke-linejoin="round"/>
    <path d="M 59.67594528198242 69.7560043334961 C 25.325035095214844 102.70542907714844 37.50539779663086 108.18772888183594 55.11634063720703 76.73149871826172" stroke-width="3.0" fill="none" stroke="rgb(0, 0, 0)" stroke-opacity="1.0" stroke-linecap="round" stroke-linejoin="round"/>
    <path d="M 77.56333923339844 163.7373046875 C 85.84860229492188 155.16329956054688 35.669532775878906 139.03372192382812 77.41893005371094 130.6960906982422" stroke-width="3.0" fill="none" stroke="rgb(0, 0, 0)" stroke-opacity="1.0" stroke-linecap="round" stroke-linejoin="round"/>
    <path d="M 180.0669403076172 124.28843688964844 C 160.9008331298828 117.6543197631836 168.44473266601562 88.4690170288086 145.89605712890625 108.55946350097656" stroke-width="3.0" fill="none" stroke="rgb(0, 0, 0)" stroke-opacity="1.0" stroke-linecap="round" stroke-linejoin="round"/>
    <path d="M 144.60243225097656 110.08649444580078 C 129.17282104492188 103.44835662841797 130.00718688964844 97.30271911621094 127.6669692993164 132.396484375" stroke-width="3.0" fill="none" stroke="rgb(0, 0, 0)" stroke-opacity="1.0" stroke-linecap="round" stroke-linejoin="round"/>
    <path d="M 70.07362365722656 86.66102600097656 C 103.05117797851562 107.59075927734375 64.04110717773438 120.10452270507812 95.84139251708984 96.24040985107422" stroke-width="3.0" fill="none" stroke="rgb(0, 0, 0)" stroke-opacity="1.0" stroke-linecap="round" stroke-linejoin="round"/>
    <path d="M 130.20132446289062 125.7596664428711 C 145.25137329101562 138.28469848632812 105.99007415771484 126.87525939941406 122.7276840209961 137.91294860839844" stroke-width="3.0" fill="none" stroke="rgb(0, 0, 0)" stroke-opacity="1.0" stroke-linecap="round" stroke-linejoin="round"/>
    <path d="M 90.22193145751953 94.01100158691406 C 113.2290267944336 111.94105529785156 107.77588653564453 103.03571319580078 83.27466583251953 101.46720123291016" stroke-width="3.0" fill="none" stroke="rgb(0, 0, 0)" stroke-opacity="1.0" stroke-linecap="round" stroke-linejoin="round"/>
    <path d="M 126.47237396240234 114.186767578125 C 138.6001434326172 124.58792114257812 126.39991760253906 117.67550659179688 125.09645080566406 103.61637115478516" stroke-width="3.0" fill="none" stroke="rgb(0, 0, 0)" stroke-opacity="1.0" stroke-linecap="round" stroke-linejoin="round"/>
    <path d="M 64.90628051757812 85.50135803222656 C 33.77680969238281 101.60456848144531 54.597206115722656 80.01341247558594 69.17494201660156 92.78345489501953" stroke-width="3.0" fill="none" stroke="rgb(0, 0, 0)" stroke-opacity="1.0" stroke-linecap="round" stroke-linejoin="round"/>
    <path d="M 123.09346008300781 102.66822814941406 C 135.60093688964844 132.63046264648438 160.66151428222656 122.3204116821289 140.13523864746094 138.6265869140625" stroke-width="3.0" fill="none" stroke="rgb(0, 0, 0)" stroke-opacity="1.0" stroke-linecap="round" stroke-linejoin="round"/>
    <path d="M 129.14505004882812 132.37030029296875 C 141.49658203125 107.9682388305664 132.8732452392578 128.53831481933594 112.15754699707031 132.3944549560547" stroke-width="3.0" fill="none" stroke="rgb(0, 0, 0)" stroke-opacity="1.0" stroke-linecap="round" stroke-linejoin="round"/>
    <path d="M 145.47146606445312 110.95048522949219 C 129.4337615966797 105.99918365478516 136.59078979492188 91.02497863769531 147.70828247070312 118.04743194580078" stroke-width="3.0" fill="none" stroke="rgb(0, 0, 0)" stroke-opacity="1.0" stroke-linecap="round" stroke-linejoin="round"/>
    <path d="M 127.05491638183594 117.06328582763672 C 135.111083984375 173.20216369628906 153.30416870117188 146.2393798828125 110.50727844238281 168.4232940673828" stroke-width="3.0" fill="none" stroke="rgb(0, 0, 0)" stroke-opacity="1.0" stroke-linecap="round" stroke-linejoin="round"/>
    <path d="M 196.29287719726562 134.99868774414062 C 164.18850708007812 114.04576110839844 146.09423828125 90.83149719238281 171.422119140625 121.36319732666016" stroke-width="3.0" fill="none" stroke="rgb(0, 0, 0)" stroke-opacity="1.0" stroke-linecap="round" stroke-linejoin="round"/>
    <path d="M 131.00399780273438 117.42491912841797 C 105.9202880859375 91.16744232177734 151.05722045898438 92.7554931640625 150.47975158691406 121.01953125" stroke-width="3.0" fill="none" stroke="rgb(0, 0, 0)" stroke-opacity="1.0" stroke-linecap="round" stroke-linejoin="round"/>
    <path d="M 66.23440551757812 81.46083068847656 C 51.26370620727539 75.57349395751953 82.76741790771484 98.9423828125 74.28227233886719 115.37200927734375" stroke-width="3.0" fill="none" stroke="rgb(0, 0, 0)" stroke-opacity="1.0" stroke-linecap="round" stroke-linejoin="round"/>
    <path d="M 93.63201904296875 127.12158966064453 C 116.25747680664062 133.51846313476562 97.31411743164062 130.81944274902344 95.62278747558594 121.47907257080078" stroke-width="3.0" fill="none" stroke="rgb(0, 0, 0)" stroke-opacity="1.0" stroke-linecap="round" stroke-linejoin="round"/>
    <path d="M 57.615535736083984 73.49806213378906 C 79.41001892089844 88.66516876220703 87.14887237548828 102.32025909423828 75.37183380126953 83.2653579711914" stroke-width="3.0" fill="none" stroke="rgb(0, 0, 0)" stroke-opacity="1.0" stroke-linecap="round" stroke-linejoin="round"/>
    <path d="M 147.3580322265625 120.47137451171875 C 147.38003540039062 128.94862365722656 138.01983642578125 118.1811294555664 120.14775085449219 135.9237518310547" stroke-width="3.0" fill="none" stroke="rgb(0, 0, 0)" stroke-opacity="1.0" stroke-linecap="round" stroke-linejoin="round"/>
    <path d="M 156.10784912109375 103.17914581298828 C 185.88162231445312 120.06147766113281 196.5288848876953 140.50433349609375 161.61305236816406 114.3973159790039" stroke-width="3.0" fill="none" stroke="rgb(0, 0, 0)" stroke-opacity="1.0" stroke-linecap="round" stroke-linejoin="round"/>
    <path d="M 42.5944709777832 92.71220397949219 C 57.15477752685547 96.0882797241211 50.988311767578125 92.76001739501953 67.89654541015625 82.78559112548828" stroke-width="3.0" fill="none" stroke="rgb(0, 0, 0)" stroke-opacity="1.0" stroke-linecap="round" stroke-linejoin="round"/>
    <path d="M 53.28824996948242 79.84954833984375 C 44.45893096923828 98.81443786621094 51.175838470458984 83.01841735839844 66.92611694335938 82.59230041503906" stroke-width="3.0" fill="none" stroke="rgb(0, 0, 0)" stroke-opacity="1.0" stroke-linecap="round" stroke-linejoin="round"/>
  </g>
</svg>
