<?xml version="1.0" ?>
<svg xmlns="http://www.w3.org/2000/svg" version="1.1" width="224" height="224">
  <defs/>
  <g>
    <path d="M 110.32054138183594 115.18187713623047 C 97.3792724609375 93.31946563720703 98.60710906982422 114.12093353271484 132.3863525390625 100.16840362548828" stroke-width="3.0" fill="none" stroke="rgb(0, 0, 0)" stroke-opacity="1.0" stroke-linecap="round" stroke-linejoin="round"/>
    <path d="M 162.30921936035156 110.72464752197266 C 183.15203857421875 135.0966796875 218.24134826660156 128.64080810546875 200.71746826171875 134.0945281982422" stroke-width="3.0" fill="none" stroke="rgb(0, 0, 0)" stroke-opacity="1.0" stroke-linecap="round" stroke-linejoin="round"/>
    <path d="M 132.3590087890625 120.92608642578125 C 134.07008361816406 106.55033874511719 141.1061553955078 106.65445709228516 146.77752685546875 138.7213897705078" stroke-width="3.0" fill="none" stroke="rgb(0, 0, 0)" stroke-opacity="1.0" stroke-linecap="round" stroke-linejoin="round"/>
    <path d="M 123.03482055664062 108.24980163574219 C 108.5079116821289 116.8740463256836 106.795654296875 119.26029968261719 134.32606506347656 124.0108642578125" stroke-width="3.0" fill="none" stroke="rgb(0, 0, 0)" stroke-opacity="1.0" stroke-linecap="round" stroke-linejoin="round"/>
    <path d="M 115.37389373779297 115.99072265625 C 102.704833984375 97.86408233642578 91.4259033203125 94.31302642822266 78.92475891113281 120.40913391113281" stroke-width="3.0" fill="none" stroke="rgb(0, 0, 0)" stroke-opacity="1.0" stroke-linecap="round" stroke-linejoin="round"/>
    <path d="M 141.96934509277344 114.50767517089844 C 138.62603759765625 123.67892456054688 146.33021545410156 118.35379028320312 126.38824462890625 106.19578552246094" stroke-width="3.0" fill="none" stroke="rgb(0, 0, 0)" stroke-opacity="1.0" stroke-linecap="round" stroke-linejoin="round"/>
    <path d="M 77.26542663574219 126.0684814453125 C 60.62649917602539 113.91313171386719 91.93791198730469 112.73448944091797 69.5640869140625 82.01780700683594" stroke-width="3.0" fill="none" stroke="rgb(0, 0, 0)" stroke-opacity="1.0" stroke-linecap="round" stroke-linejoin="round"/>
    <path d="M 148.46743774414062 137.08807373046875 C 143.10362243652344 145.71315002441406 196.07565307617188 147.00962829589844 139.0511016845703 136.93154907226562" stroke-width="3.0" fill="none" stroke="rgb(0, 0, 0)" stroke-opacity="1.0" stroke-linecap="round" stroke-linejoin="round"/>
    <path d="M 185.23724365234375 163.82440185546875 C 186.1819305419922 147.0022430419922 189.35293579101562 174.85153198242188 164.9115753173828 143.694580078125" stroke-width="3.0" fill="none" stroke="rgb(0, 0, 0)" stroke-opacity="1.0" stroke-linecap="round" stroke-linejoin="round"/>
    <path d="M 133.5226593017578 100.12571716308594 C 125.60983276367188 99.24278259277344 125.37410736083984 109.96206665039062 118.66158294677734 130.5384063720703" stroke-width="3.0" fill="none" stroke="rgb(0, 0, 0)" stroke-opacity="1.0" stroke-linecap="round" stroke-linejoin="round"/>
    <path d="M 134.8993682861328 132.69615173339844 C 155.4185028076172 126.36361694335938 151.96632385253906 116.12075805664062 141.4296112060547 140.73507690429688" stroke-width="3.0" fill="none" stroke="rgb(0, 0, 0)" stroke-opacity="1.0" stroke-linecap="round" stroke-linejoin="round"/>
    <path d="M 123.17772674560547 106.50334930419922 C 117.65153503417969 110.2568588256836 99.19747924804688 114.33059692382812 92.93187713623047 107.26823425292969" stroke-width="3.0" fill="none" stroke="rgb(0, 0, 0)" stroke-opacity="1.0" stroke-linecap="round" stroke-linejoin="round"/>
    <path d="M 107.16313171386719 107.97074890136719 C 135.33387756347656 105.052490234375 122.90926361083984 92.69085693359375 126.71468353271484 125.285888671875" stroke-width="3.0" fill="none" stroke="rgb(0, 0, 0)" stroke-opacity="1.0" stroke-linecap="round" stroke-linejoin="round"/>
    <path d="M 100.39155578613281 147.42588806152344 C 141.0189666748047 132.77061462402344 153.25814819335938 117.28459167480469 130.8191680908203 157.2171173095703" stroke-width="3.0" fill="none" stroke="rgb(0, 0, 0)" stroke-opacity="1.0" stroke-linecap="round" stroke-linejoin="round"/>
    <path d="M 64.43751525878906 84.53987884521484 C 41.79184341430664 62.123714447021484 61.11946105957031 75.92631530761719 81.05081176757812 90.95018005371094" stroke-width="3.0" fill="none" stroke="rgb(0, 0, 0)" stroke-opacity="1.0" stroke-linecap="round" stroke-linejoin="round"/>
    <path d="M 61.08902359008789 73.9084701538086 C 82.63092803955078 72.79613494873047 89.99884796142578 78.5382308959961 92.56304931640625 97.40684509277344" stroke-width="3.0" fill="none" stroke="rgb(0, 0, 0)" stroke-opacity="1.0" stroke-linecap="round" stroke-linejoin="round"/>
    <path d="M 52.672672271728516 76.2177734375 C 70.9535140991211 69.46773529052734 72.07176971435547 72.54627990722656 80.25701904296875 79.05680084228516" stroke-width="3.0" fill="none" stroke="rgb(0, 0, 0)" stroke-opacity="1.0" stroke-linecap="round" stroke-linejoin="round"/>
    <path d="M 68.092041015625 136.52052307128906 C 93.1689224243164 124.46632385253906 63.9171257019043 133.19482421875 99.4689712524414 130.3351593017578" stroke-width="3.0" fill="none" stroke="rgb(0, 0, 0)" stroke-opacity="1.0" stroke-linecap="round" stroke-linejoin="round"/>
    <path d="M 129.9024658203125 111.91773223876953 C 158.160400390625 135.83251953125 152.55142211914062 116.42347717285156 129.20162963867188 112.79071044921875" stroke-width="3.0" fill="none" stroke="rgb(0, 0, 0)" stroke-opacity="1.0" stroke-linecap="round" stroke-linejoin="round"/>
    <path d="M 134.3832244873047 157.5734405517578 C 138.13294982910156 144.0368194580078 126.75933074951172 129.38453674316406 144.53392028808594 121.10075378417969" stroke-width="3.0" fill="none" stroke="rgb(0, 0, 0)" stroke-opacity="1.0" stroke-linecap="round" stroke-linejoin="round"/>
    <path d="M 99.8269271850586 148.25767517089844 C 81.01455688476562 170.8981475830078 122.36587524414062 166.72230529785156 110.85075378417969 174.63453674316406" stroke-width="3.0" fill="none" stroke="rgb(0, 0, 0)" stroke-opacity="1.0" stroke-linecap="round" stroke-linejoin="round"/>
    <path d="M 91.57018280029297 131.20486450195312 C 110.2191162109375 135.86395263671875 118.57301330566406 134.58021545410156 133.35765075683594 117.22157287597656" stroke-width="3.0" fill="none" stroke="rgb(0, 0, 0)" stroke-opacity="1.0" stroke-linecap="round" stroke-linejoin="round"/>
    <path d="M 119.48621368408203 108.20672607421875 C 105.56820678710938 108.39122772216797 89.0297622680664 103.4402847290039 90.41647338867188 108.34744262695312" stroke-width="3.0" fill="none" stroke="rgb(0, 0, 0)" stroke-opacity="1.0" stroke-linecap="round" stroke-linejoin="round"/>
    <path d="M 139.57388305664062 119.64168548583984 C 146.8070831298828 151.19090270996094 134.57284545898438 135.67588806152344 138.73727416992188 131.28421020507812" stroke-width="3.0" fill="none" stroke="rgb(0, 0, 0)" stroke-opacity="1.0" stroke-linecap="round" stroke-linejoin="round"/>
    <path d="M 81.43209838867188 81.31807708740234 C 72.4190444946289 75.22657775878906 84.38236236572266 78.73711395263672 85.66902160644531 82.76274871826172" stroke-width="3.0" fill="none" stroke="rgb(0, 0, 0)" stroke-opacity="1.0" stroke-linecap="round" stroke-linejoin="round"/>
    <path d="M 97.39417266845703 117.74506378173828 C 99.88890838623047 124.87306213378906 90.27259826660156 130.2128448486328 95.98638916015625 130.1580047607422" stroke-width="3.0" fill="none" stroke="rgb(0, 0, 0)" stroke-opacity="1.0" stroke-linecap="round" stroke-linejoin="round"/>
    <path d="M 60.59638977050781 74.39063262939453 C 22.340898513793945 102.45614624023438 43.75706100463867 106.34111785888672 56.695133209228516 75.63750457763672" stroke-width="3.0" fill="none" stroke="rgb(0, 0, 0)" stroke-opacity="1.0" stroke-linecap="round" stroke-linejoin="round"/>
    <path d="M 83.65464782714844 174.3302459716797 C 68.76819610595703 142.91697692871094 46.0209846496582 149.19068908691406 78.55764770507812 126.7680892944336" stroke-width="3.0" fill="none" stroke="rgb(0, 0, 0)" stroke-opacity="1.0" stroke-linecap="round" stroke-linejoin="round"/>
    <path d="M 167.07339477539062 116.6490478515625 C 166.65673828125 118.78775787353516 166.89682006835938 89.15949249267578 150.6059112548828 106.4435806274414" stroke-width="3.0" fill="none" stroke="rgb(0, 0, 0)" stroke-opacity="1.0" stroke-linecap="round" stroke-linejoin="round"/>
    <path d="M 140.04054260253906 106.93421173095703 C 122.52643585205078 111.90326690673828 120.11898040771484 103.32147979736328 115.12428283691406 123.91666412353516" stroke-width="3.0" fill="none" stroke="rgb(0, 0, 0)" stroke-opacity="1.0" stroke-linecap="round" stroke-linejoin="round"/>
    <path d="M 80.2127456665039 89.70247650146484 C 87.72193145751953 96.61151123046875 78.3145523071289 116.07078552246094 97.8950424194336 101.9110336303711" stroke-width="3.0" fill="none" stroke="rgb(0, 0, 0)" stroke-opacity="1.0" stroke-linecap="round" stroke-linejoin="round"/>
    <path d="M 132.0791015625 126.8400650024414 C 136.11123657226562 124.04193878173828 106.46183776855469 123.95122528076172 115.72807312011719 128.3385467529297" stroke-width="3.0" fill="none" stroke="rgb(0, 0, 0)" stroke-opacity="1.0" stroke-linecap="round" stroke-linejoin="round"/>
    <path d="M 90.7491226196289 95.23008728027344 C 107.85098266601562 109.35242462158203 119.19165802001953 106.24006652832031 85.77790832519531 109.2448501586914" stroke-width="3.0" fill="none" stroke="rgb(0, 0, 0)" stroke-opacity="1.0" stroke-linecap="round" stroke-linejoin="round"/>
    <path d="M 128.97616577148438 119.37252044677734 C 142.24114990234375 118.13800811767578 136.33460998535156 103.58197021484375 130.0274200439453 102.96876525878906" stroke-width="3.0" fill="none" stroke="rgb(0, 0, 0)" stroke-opacity="1.0" stroke-linecap="round" stroke-linejoin="round"/>
    <path d="M 77.31365966796875 79.06798553466797 C 57.01409912109375 77.3861312866211 69.8406753540039 71.97007751464844 75.27523803710938 77.41166687011719" stroke-width="3.0" fill="none" stroke="rgb(0, 0, 0)" stroke-opacity="1.0" stroke-linecap="round" stroke-linejoin="round"/>
    <path d="M 132.7154998779297 102.08917999267578 C 143.8552703857422 117.3578872680664 158.5189971923828 105.7442626953125 144.4150390625 132.71917724609375" stroke-width="3.0" fill="none" stroke="rgb(0, 0, 0)" stroke-opacity="1.0" stroke-linecap="round" stroke-linejoin="round"/>
    <path d="M 125.54853057861328 110.25859832763672 C 125.32050323486328 103.67488098144531 119.82281494140625 111.04216003417969 116.3462142944336 128.23703002929688" stroke-width="3.0" fill="none" stroke="rgb(0, 0, 0)" stroke-opacity="1.0" stroke-linecap="round" stroke-linejoin="round"/>
    <path d="M 148.13540649414062 114.71321868896484 C 129.4190673828125 110.4839859008789 129.34051513671875 90.79220581054688 146.618896484375 114.03877258300781" stroke-width="3.0" fill="none" stroke="rgb(0, 0, 0)" stroke-opacity="1.0" stroke-linecap="round" stroke-linejoin="round"/>
    <path d="M 141.26882934570312 126.79287719726562 C 125.5852279663086 168.89822387695312 159.9258575439453 147.03968811035156 113.98683166503906 165.8912811279297" stroke-width="3.0" fill="none" stroke="rgb(0, 0, 0)" stroke-opacity="1.0" stroke-linecap="round" stroke-linejoin="round"/>
    <path d="M 188.5446319580078 127.98888397216797 C 166.3440704345703 112.99881744384766 146.78065490722656 96.2525405883789 168.1571807861328 118.62715148925781" stroke-width="3.0" fill="none" stroke="rgb(0, 0, 0)" stroke-opacity="1.0" stroke-linecap="round" stroke-linejoin="round"/>
    <path d="M 129.3857879638672 106.39524841308594 C 121.05142974853516 95.78980255126953 147.57794189453125 95.7857894897461 150.0531005859375 117.97630310058594" stroke-width="3.0" fill="none" stroke="rgb(0, 0, 0)" stroke-opacity="1.0" stroke-linecap="round" stroke-linejoin="round"/>
    <path d="M 67.31610107421875 88.55824279785156 C 61.99356460571289 76.50724792480469 82.87322998046875 103.36177825927734 71.93756866455078 123.32363891601562" stroke-width="3.0" fill="none" stroke="rgb(0, 0, 0)" stroke-opacity="1.0" stroke-linecap="round" stroke-linejoin="round"/>
    <path d="M 100.32264709472656 131.0868377685547 C 105.05703735351562 135.1587371826172 91.64034271240234 125.46051025390625 97.8499984741211 127.20987701416016" stroke-width="3.0" fill="none" stroke="rgb(0, 0, 0)" stroke-opacity="1.0" stroke-linecap="round" stroke-linejoin="round"/>
    <path d="M 75.37609100341797 76.64320373535156 C 80.3042984008789 78.23179626464844 88.25836944580078 86.18513488769531 81.4962158203125 81.82498168945312" stroke-width="3.0" fill="none" stroke="rgb(0, 0, 0)" stroke-opacity="1.0" stroke-linecap="round" stroke-linejoin="round"/>
    <path d="M 149.90640258789062 118.10098266601562 C 141.08851623535156 115.62295532226562 129.87228393554688 111.42972564697266 127.76432037353516 119.35519409179688" stroke-width="3.0" fill="none" stroke="rgb(0, 0, 0)" stroke-opacity="1.0" stroke-linecap="round" stroke-linejoin="round"/>
    <path d="M 155.15269470214844 101.43334197998047 C 179.85629272460938 116.36868286132812 190.37852478027344 126.97947692871094 179.01390075683594 119.30670928955078" stroke-width="3.0" fill="none" stroke="rgb(0, 0, 0)" stroke-opacity="1.0" stroke-linecap="round" stroke-linejoin="round"/>
    <path d="M 40.83625030517578 91.5912094116211 C 62.632911682128906 88.6727066040039 55.63228988647461 101.82453155517578 60.48541259765625 79.84037017822266" stroke-width="3.0" fill="none" stroke="rgb(0, 0, 0)" stroke-opacity="1.0" stroke-linecap="round" stroke-linejoin="round"/>
    <path d="M 60.038875579833984 77.53133392333984 C 52.00129318237305 93.28004455566406 49.845584869384766 74.34215545654297 49.404319763183594 75.61808776855469" stroke-width="3.0" fill="none" stroke="rgb(0, 0, 0)" stroke-opacity="1.0" stroke-linecap="round" stroke-linejoin="round"/>
  </g>
</svg>
