<?xml version="1.0" ?>
<svg xmlns="http://www.w3.org/2000/svg" version="1.1" width="224" height="224">
  <defs/>
  <g>
    <path d="M 144.323974609375 117.9658203125 C 110.19601440429688 90.4179916381836 67.54552459716797 108.31587219238281 125.46138000488281 100.80340576171875" stroke-width="3.0" fill="none" stroke="rgb(0, 0, 0)" stroke-opacity="1.0" stroke-linecap="round" stroke-linejoin="round"/>
    <path d="M 159.55320739746094 105.17330169677734 C 166.02056884765625 138.30625915527344 251.54603576660156 146.1873779296875 179.43540954589844 121.68910217285156" stroke-width="3.0" fill="none" stroke="rgb(0, 0, 0)" stroke-opacity="1.0" stroke-linecap="round" stroke-linejoin="round"/>
    <path d="M 133.26675415039062 126.34851837158203 C 120.60572052001953 81.68803405761719 116.41600036621094 123.4655532836914 160.35659790039062 142.18682861328125" stroke-width="3.0" fill="none" stroke="rgb(0, 0, 0)" stroke-opacity="1.0" stroke-linecap="round" stroke-linejoin="round"/>
    <path d="M 147.87789916992188 143.80902099609375 C 109.46502685546875 71.91114044189453 132.51951599121094 125.52545166015625 153.17654418945312 101.94155883789062" stroke-width="3.0" fill="none" stroke="rgb(0, 0, 0)" stroke-opacity="1.0" stroke-linecap="round" stroke-linejoin="round"/>
    <path d="M 128.46730041503906 124.44033813476562 C 121.56519317626953 93.24188232421875 59.82221603393555 82.3508071899414 72.1866455078125 126.54742431640625" stroke-width="3.0" fill="none" stroke="rgb(0, 0, 0)" stroke-opacity="1.0" stroke-linecap="round" stroke-linejoin="round"/>
    <path d="M 116.08509826660156 139.03115844726562 C 129.53573608398438 139.0609893798828 140.75341796875 97.0035629272461 122.82384490966797 104.98039245605469" stroke-width="3.0" fill="none" stroke="rgb(0, 0, 0)" stroke-opacity="1.0" stroke-linecap="round" stroke-linejoin="round"/>
    <path d="M 81.45658111572266 114.2741928100586 C 48.495399475097656 133.39523315429688 130.12417602539062 89.23017120361328 54.78557205200195 80.7060317993164" stroke-width="3.0" fill="none" stroke="rgb(0, 0, 0)" stroke-opacity="1.0" stroke-linecap="round" stroke-linejoin="round"/>
    <path d="M 152.20388793945312 113.97702026367188 C 123.8978271484375 154.1746826171875 213.19961547851562 150.77743530273438 137.58502197265625 143.9650115966797" stroke-width="3.0" fill="none" stroke="rgb(0, 0, 0)" stroke-opacity="1.0" stroke-linecap="round" stroke-linejoin="round"/>
    <path d="M 183.78224182128906 162.11752319335938 C 174.41465759277344 140.38619995117188 206.33297729492188 181.79832458496094 164.03958129882812 147.8670196533203" stroke-width="3.0" fill="none" stroke="rgb(0, 0, 0)" stroke-opacity="1.0" stroke-linecap="round" stroke-linejoin="round"/>
    <path d="M 130.41537475585938 131.69808959960938 C 124.00208282470703 77.36386108398438 151.75390625 124.14807891845703 116.73358154296875 131.33114624023438" stroke-width="3.0" fill="none" stroke="rgb(0, 0, 0)" stroke-opacity="1.0" stroke-linecap="round" stroke-linejoin="round"/>
    <path d="M 132.2114715576172 146.63352966308594 C 156.71347045898438 122.3717041015625 158.3282012939453 92.94868469238281 136.43165588378906 149.6912841796875" stroke-width="3.0" fill="none" stroke="rgb(0, 0, 0)" stroke-opacity="1.0" stroke-linecap="round" stroke-linejoin="round"/>
    <path d="M 144.33644104003906 104.56697082519531 C 79.8933334350586 107.38703155517578 92.18671417236328 98.29786682128906 73.61104583740234 85.08200073242188" stroke-width="3.0" fill="none" stroke="rgb(0, 0, 0)" stroke-opacity="1.0" stroke-linecap="round" stroke-linejoin="round"/>
    <path d="M 103.79373168945312 104.8360824584961 C 149.80714416503906 102.51939392089844 137.36476135253906 95.72877502441406 127.61293029785156 134.29078674316406" stroke-width="3.0" fill="none" stroke="rgb(0, 0, 0)" stroke-opacity="1.0" stroke-linecap="round" stroke-linejoin="round"/>
    <path d="M 101.1410903930664 148.75953674316406 C 147.42457580566406 141.39012145996094 150.46067810058594 79.11234283447266 129.59854125976562 159.6134796142578" stroke-width="3.0" fill="none" stroke="rgb(0, 0, 0)" stroke-opacity="1.0" stroke-linecap="round" stroke-linejoin="round"/>
    <path d="M 80.9076156616211 94.9914321899414 C 52.50896453857422 66.38548278808594 30.00860595703125 118.05513000488281 63.26752471923828 84.9732894897461" stroke-width="3.0" fill="none" stroke="rgb(0, 0, 0)" stroke-opacity="1.0" stroke-linecap="round" stroke-linejoin="round"/>
    <path d="M 57.16574478149414 69.98210144042969 C 70.11743927001953 87.56481170654297 79.03682708740234 71.87169647216797 85.77848815917969 106.66603088378906" stroke-width="3.0" fill="none" stroke="rgb(0, 0, 0)" stroke-opacity="1.0" stroke-linecap="round" stroke-linejoin="round"/>
    <path d="M 88.89212036132812 102.44868469238281 C 55.73704147338867 73.4109115600586 7.424012184143066 89.32586669921875 67.4871826171875 90.46001434326172" stroke-width="3.0" fill="none" stroke="rgb(0, 0, 0)" stroke-opacity="1.0" stroke-linecap="round" stroke-linejoin="round"/>
    <path d="M 80.34971618652344 163.24267578125 C 30.608678817749023 114.89208984375 87.7159194946289 150.48609924316406 98.34452056884766 118.66051483154297" stroke-width="3.0" fill="none" stroke="rgb(0, 0, 0)" stroke-opacity="1.0" stroke-linecap="round" stroke-linejoin="round"/>
    <path d="M 133.2018280029297 111.79293823242188 C 163.00030517578125 153.22886657714844 157.97344970703125 79.4364013671875 106.8969497680664 105.19542694091797" stroke-width="3.0" fill="none" stroke="rgb(0, 0, 0)" stroke-opacity="1.0" stroke-linecap="round" stroke-linejoin="round"/>
    <path d="M 124.88346099853516 117.296630859375 C 134.55137634277344 209.49644470214844 149.2187042236328 109.18018341064453 130.72801208496094 101.83465576171875" stroke-width="3.0" fill="none" stroke="rgb(0, 0, 0)" stroke-opacity="1.0" stroke-linecap="round" stroke-linejoin="round"/>
    <path d="M 99.0006332397461 149.8713836669922 C 85.0266342163086 166.18075561523438 118.76805114746094 176.43331909179688 99.807373046875 161.9534912109375" stroke-width="3.0" fill="none" stroke="rgb(0, 0, 0)" stroke-opacity="1.0" stroke-linecap="round" stroke-linejoin="round"/>
    <path d="M 81.83541107177734 128.82960510253906 C 127.87728881835938 139.98458862304688 136.90304565429688 120.3953857421875 144.70852661132812 113.44921875" stroke-width="3.0" fill="none" stroke="rgb(0, 0, 0)" stroke-opacity="1.0" stroke-linecap="round" stroke-linejoin="round"/>
    <path d="M 134.76641845703125 100.43849182128906 C 84.08782196044922 114.38090515136719 105.82653045654297 81.79658508300781 71.14218139648438 119.5578384399414" stroke-width="3.0" fill="none" stroke="rgb(0, 0, 0)" stroke-opacity="1.0" stroke-linecap="round" stroke-linejoin="round"/>
    <path d="M 146.636962890625 105.12958526611328 C 168.23973083496094 117.40743255615234 128.74020385742188 159.41346740722656 143.87229919433594 134.93739318847656" stroke-width="3.0" fill="none" stroke="rgb(0, 0, 0)" stroke-opacity="1.0" stroke-linecap="round" stroke-linejoin="round"/>
    <path d="M 83.87201690673828 107.08076477050781 C 57.580013275146484 56.420780181884766 54.30675506591797 77.53350830078125 77.2768783569336 110.51451873779297" stroke-width="3.0" fill="none" stroke="rgb(0, 0, 0)" stroke-opacity="1.0" stroke-linecap="round" stroke-linejoin="round"/>
    <path d="M 68.96318817138672 124.69918823242188 C 129.49032592773438 134.1333465576172 102.07273864746094 141.14260864257812 96.82389831542969 122.55179595947266" stroke-width="3.0" fill="none" stroke="rgb(0, 0, 0)" stroke-opacity="1.0" stroke-linecap="round" stroke-linejoin="round"/>
    <path d="M 64.23674774169922 82.20183563232422 C 32.92535400390625 116.13896942138672 39.16953659057617 103.9090576171875 60.60166931152344 70.65802764892578" stroke-width="3.0" fill="none" stroke="rgb(0, 0, 0)" stroke-opacity="1.0" stroke-linecap="round" stroke-linejoin="round"/>
    <path d="M 81.93717193603516 170.3302459716797 C 96.42430877685547 153.746826171875 25.553789138793945 145.13851928710938 93.33259582519531 125.23084259033203" stroke-width="3.0" fill="none" stroke="rgb(0, 0, 0)" stroke-opacity="1.0" stroke-linecap="round" stroke-linejoin="round"/>
    <path d="M 178.5203857421875 116.9379653930664 C 168.01979064941406 120.81916809082031 169.9917755126953 89.64299011230469 149.59817504882812 103.65628051757812" stroke-width="3.0" fill="none" stroke="rgb(0, 0, 0)" stroke-opacity="1.0" stroke-linecap="round" stroke-linejoin="round"/>
    <path d="M 111.78853607177734 144.97467041015625 C 169.44265747070312 101.80921173095703 147.38771057128906 92.01853942871094 113.97349548339844 140.1942138671875" stroke-width="3.0" fill="none" stroke="rgb(0, 0, 0)" stroke-opacity="1.0" stroke-linecap="round" stroke-linejoin="round"/>
    <path d="M 55.85780715942383 89.09388732910156 C 106.910400390625 107.15483856201172 94.88665771484375 109.90064239501953 61.15553665161133 83.34358978271484" stroke-width="3.0" fill="none" stroke="rgb(0, 0, 0)" stroke-opacity="1.0" stroke-linecap="round" stroke-linejoin="round"/>
    <path d="M 134.85948181152344 101.97681427001953 C 148.7941436767578 128.30967712402344 135.59698486328125 117.69412231445312 121.93055725097656 131.93692016601562" stroke-width="3.0" fill="none" stroke="rgb(0, 0, 0)" stroke-opacity="1.0" stroke-linecap="round" stroke-linejoin="round"/>
    <path d="M 70.7778549194336 85.1801528930664 C 130.26011657714844 118.59980773925781 107.22428131103516 99.58655548095703 71.34435272216797 98.40876770019531" stroke-width="3.0" fill="none" stroke="rgb(0, 0, 0)" stroke-opacity="1.0" stroke-linecap="round" stroke-linejoin="round"/>
    <path d="M 127.29426574707031 101.65393829345703 C 138.65017700195312 142.13442993164062 127.22010803222656 113.02584075927734 125.24518585205078 102.23040008544922" stroke-width="3.0" fill="none" stroke="rgb(0, 0, 0)" stroke-opacity="1.0" stroke-linecap="round" stroke-linejoin="round"/>
    <path d="M 70.88421630859375 85.64794921875 C 24.901226043701172 102.33671569824219 77.33622741699219 50.95775604248047 88.85389709472656 97.99454498291016" stroke-width="3.0" fill="none" stroke="rgb(0, 0, 0)" stroke-opacity="1.0" stroke-linecap="round" stroke-linejoin="round"/>
    <path d="M 128.37049865722656 116.27464294433594 C 102.19935607910156 169.22984313964844 142.98358154296875 113.40435791015625 121.05956268310547 137.33935546875" stroke-width="3.0" fill="none" stroke="rgb(0, 0, 0)" stroke-opacity="1.0" stroke-linecap="round" stroke-linejoin="round"/>
    <path d="M 113.07646942138672 133.8278350830078 C 141.76463317871094 106.22518920898438 129.33807373046875 127.52928924560547 119.52959442138672 105.18202209472656" stroke-width="3.0" fill="none" stroke="rgb(0, 0, 0)" stroke-opacity="1.0" stroke-linecap="round" stroke-linejoin="round"/>
    <path d="M 134.89202880859375 154.06256103515625 C 132.0122833251953 133.81362915039062 158.9853515625 122.42119598388672 121.9499740600586 113.99991607666016" stroke-width="3.0" fill="none" stroke="rgb(0, 0, 0)" stroke-opacity="1.0" stroke-linecap="round" stroke-linejoin="round"/>
    <path d="M 112.4137954711914 106.35762023925781 C 141.8182373046875 147.97079467773438 170.12120056152344 120.23110961914062 110.51606750488281 175.43240356445312" stroke-width="3.0" fill="none" stroke="rgb(0, 0, 0)" stroke-opacity="1.0" stroke-linecap="round" stroke-linejoin="round"/>
    <path d="M 200.47433471679688 130.6250457763672 C 137.89732360839844 153.80543518066406 129.5931396484375 140.9381561279297 188.5361785888672 140.2814178466797" stroke-width="3.0" fill="none" stroke="rgb(0, 0, 0)" stroke-opacity="1.0" stroke-linecap="round" stroke-linejoin="round"/>
    <path d="M 125.44166564941406 126.44236755371094 C 95.11210632324219 100.68191528320312 171.5474853515625 93.61206817626953 137.2855682373047 137.51805114746094" stroke-width="3.0" fill="none" stroke="rgb(0, 0, 0)" stroke-opacity="1.0" stroke-linecap="round" stroke-linejoin="round"/>
    <path d="M 82.37992095947266 109.54769897460938 C 50.1533317565918 57.347835540771484 76.05577850341797 77.98878479003906 73.58638000488281 130.30743408203125" stroke-width="3.0" fill="none" stroke="rgb(0, 0, 0)" stroke-opacity="1.0" stroke-linecap="round" stroke-linejoin="round"/>
    <path d="M 71.30850982666016 126.2734146118164 C 161.6502685546875 146.49720764160156 101.61345672607422 136.73638916015625 70.82660675048828 133.78085327148438" stroke-width="3.0" fill="none" stroke="rgb(0, 0, 0)" stroke-opacity="1.0" stroke-linecap="round" stroke-linejoin="round"/>
    <path d="M 53.85007095336914 71.78152465820312 C 116.46085357666016 69.48043060302734 92.84962463378906 140.56600952148438 65.26329040527344 82.43818664550781" stroke-width="3.0" fill="none" stroke="rgb(0, 0, 0)" stroke-opacity="1.0" stroke-linecap="round" stroke-linejoin="round"/>
    <path d="M 131.2392120361328 121.46778106689453 C 114.28703308105469 97.487060546875 154.8609619140625 89.69253540039062 144.09840393066406 131.3679656982422" stroke-width="3.0" fill="none" stroke="rgb(0, 0, 0)" stroke-opacity="1.0" stroke-linecap="round" stroke-linejoin="round"/>
    <path d="M 155.52658081054688 103.86149597167969 C 183.20335388183594 130.35302734375 205.03741455078125 138.19119262695312 159.1651611328125 99.88816833496094" stroke-width="3.0" fill="none" stroke="rgb(0, 0, 0)" stroke-opacity="1.0" stroke-linecap="round" stroke-linejoin="round"/>
    <path d="M 54.000526428222656 80.57221984863281 C 60.8021354675293 90.07652282714844 52.54558563232422 62.80811309814453 80.57048797607422 111.51115417480469" stroke-width="3.0" fill="none" stroke="rgb(0, 0, 0)" stroke-opacity="1.0" stroke-linecap="round" stroke-linejoin="round"/>
    <path d="M 59.12821578979492 73.32858276367188 C 34.207576751708984 129.3301544189453 30.15220832824707 83.07778930664062 59.371559143066406 72.5733413696289" stroke-width="3.0" fill="none" stroke="rgb(0, 0, 0)" stroke-opacity="1.0" stroke-linecap="round" stroke-linejoin="round"/>
  </g>
</svg>
