<?xml version="1.0" ?>
<svg xmlns="http://www.w3.org/2000/svg" version="1.1" width="224" height="224">
  <defs/>
  <g>
    <path d="M 148.83062744140625 113.25238037109375 C 131.1607208251953 93.75856018066406 81.82786560058594 111.116455078125 129.60108947753906 98.76094055175781" stroke-width="3.0" fill="none" stroke="rgb(0, 0, 0)" stroke-opacity="1.0" stroke-linecap="round" stroke-linejoin="round"/>
    <path d="M 158.56692504882812 102.79925537109375 C 155.6302490234375 135.66744995117188 252.43536376953125 152.25405883789062 175.62010192871094 126.72193908691406" stroke-width="3.0" fill="none" stroke="rgb(0, 0, 0)" stroke-opacity="1.0" stroke-linecap="round" stroke-linejoin="round"/>
    <path d="M 153.8711395263672 143.816650390625 C 132.70436096191406 82.92166900634766 110.77770233154297 136.969482421875 160.42047119140625 146.18971252441406" stroke-width="3.0" fill="none" stroke="rgb(0, 0, 0)" stroke-opacity="1.0" stroke-linecap="round" stroke-linejoin="round"/>
    <path d="M 138.8111572265625 143.57720947265625 C 111.71537780761719 70.11741638183594 131.24212646484375 133.15438842773438 144.2369842529297 108.24056243896484" stroke-width="3.0" fill="none" stroke="rgb(0, 0, 0)" stroke-opacity="1.0" stroke-linecap="round" stroke-linejoin="round"/>
    <path d="M 130.85513305664062 124.26693725585938 C 131.04986572265625 89.26363372802734 54.230247497558594 98.7463150024414 75.2499008178711 131.22958374023438" stroke-width="3.0" fill="none" stroke="rgb(0, 0, 0)" stroke-opacity="1.0" stroke-linecap="round" stroke-linejoin="round"/>
    <path d="M 111.34419250488281 143.23789978027344 C 121.68392944335938 144.60362243652344 140.45408630371094 116.15953063964844 116.13397216796875 102.19947052001953" stroke-width="3.0" fill="none" stroke="rgb(0, 0, 0)" stroke-opacity="1.0" stroke-linecap="round" stroke-linejoin="round"/>
    <path d="M 87.701171875 130.0082550048828 C 48.12131881713867 143.07359313964844 121.0550765991211 81.26266479492188 48.1519889831543 83.6583023071289" stroke-width="3.0" fill="none" stroke="rgb(0, 0, 0)" stroke-opacity="1.0" stroke-linecap="round" stroke-linejoin="round"/>
    <path d="M 147.70176696777344 108.20308685302734 C 150.35736083984375 167.24818420410156 233.89901733398438 173.78575134277344 144.9636688232422 143.18687438964844" stroke-width="3.0" fill="none" stroke="rgb(0, 0, 0)" stroke-opacity="1.0" stroke-linecap="round" stroke-linejoin="round"/>
    <path d="M 180.66897583007812 160.3992462158203 C 180.0192413330078 140.59591674804688 202.36903381347656 195.9724884033203 154.09243774414062 137.11386108398438" stroke-width="3.0" fill="none" stroke="rgb(0, 0, 0)" stroke-opacity="1.0" stroke-linecap="round" stroke-linejoin="round"/>
    <path d="M 145.04241943359375 115.87049102783203 C 109.74137878417969 69.46609497070312 139.6064910888672 115.5683822631836 115.06075286865234 137.1033172607422" stroke-width="3.0" fill="none" stroke="rgb(0, 0, 0)" stroke-opacity="1.0" stroke-linecap="round" stroke-linejoin="round"/>
    <path d="M 133.79452514648438 138.31126403808594 C 139.95664978027344 107.16027069091797 149.61753845214844 81.4173355102539 131.251953125 156.16563415527344" stroke-width="3.0" fill="none" stroke="rgb(0, 0, 0)" stroke-opacity="1.0" stroke-linecap="round" stroke-linejoin="round"/>
    <path d="M 152.05287170410156 116.72824096679688 C 79.22200775146484 94.6172103881836 85.38175964355469 92.28627014160156 65.510009765625 77.88247680664062" stroke-width="3.0" fill="none" stroke="rgb(0, 0, 0)" stroke-opacity="1.0" stroke-linecap="round" stroke-linejoin="round"/>
    <path d="M 121.29483032226562 108.59097290039062 C 142.9170379638672 90.14085388183594 146.59222412109375 107.22151184082031 131.1660614013672 130.59860229492188" stroke-width="3.0" fill="none" stroke="rgb(0, 0, 0)" stroke-opacity="1.0" stroke-linecap="round" stroke-linejoin="round"/>
    <path d="M 97.07713317871094 147.35256958007812 C 148.03741455078125 138.23403930664062 148.44154357910156 71.98676300048828 136.46897888183594 152.51075744628906" stroke-width="3.0" fill="none" stroke="rgb(0, 0, 0)" stroke-opacity="1.0" stroke-linecap="round" stroke-linejoin="round"/>
    <path d="M 88.90435028076172 89.47559356689453 C 62.545387268066406 55.1740608215332 24.78949546813965 124.1072769165039 53.775901794433594 86.29129028320312" stroke-width="3.0" fill="none" stroke="rgb(0, 0, 0)" stroke-opacity="1.0" stroke-linecap="round" stroke-linejoin="round"/>
    <path d="M 63.62717056274414 76.80613708496094 C 71.42573547363281 80.75182342529297 86.92623901367188 82.23743438720703 83.38999938964844 104.79003143310547" stroke-width="3.0" fill="none" stroke="rgb(0, 0, 0)" stroke-opacity="1.0" stroke-linecap="round" stroke-linejoin="round"/>
    <path d="M 84.04676818847656 111.14372253417969 C 58.630619049072266 64.91621398925781 10.283563613891602 84.26659393310547 79.78132629394531 91.11184692382812" stroke-width="3.0" fill="none" stroke="rgb(0, 0, 0)" stroke-opacity="1.0" stroke-linecap="round" stroke-linejoin="round"/>
    <path d="M 80.2448959350586 163.88734436035156 C 36.708587646484375 121.34852600097656 72.8069076538086 150.55038452148438 96.52571105957031 119.00125885009766" stroke-width="3.0" fill="none" stroke="rgb(0, 0, 0)" stroke-opacity="1.0" stroke-linecap="round" stroke-linejoin="round"/>
    <path d="M 125.92178344726562 112.93663787841797 C 153.96151733398438 151.99888610839844 165.35035705566406 75.23388671875 107.12110900878906 103.14761352539062" stroke-width="3.0" fill="none" stroke="rgb(0, 0, 0)" stroke-opacity="1.0" stroke-linecap="round" stroke-linejoin="round"/>
    <path d="M 132.10487365722656 106.07271575927734 C 130.44688415527344 196.9235076904297 161.0517578125 91.7061767578125 128.14576721191406 101.67832946777344" stroke-width="3.0" fill="none" stroke="rgb(0, 0, 0)" stroke-opacity="1.0" stroke-linecap="round" stroke-linejoin="round"/>
    <path d="M 97.57978057861328 147.488037109375 C 82.75670623779297 164.41268920898438 118.7035140991211 177.26226806640625 94.42416381835938 163.9788360595703" stroke-width="3.0" fill="none" stroke="rgb(0, 0, 0)" stroke-opacity="1.0" stroke-linecap="round" stroke-linejoin="round"/>
    <path d="M 74.13531494140625 125.08123016357422 C 138.28985595703125 139.29006958007812 136.97183227539062 120.80333709716797 142.51254272460938 114.29106140136719" stroke-width="3.0" fill="none" stroke="rgb(0, 0, 0)" stroke-opacity="1.0" stroke-linecap="round" stroke-linejoin="round"/>
    <path d="M 134.26834106445312 102.49102020263672 C 86.23313903808594 119.54519653320312 108.03965759277344 76.1323471069336 72.8307113647461 123.44229125976562" stroke-width="3.0" fill="none" stroke="rgb(0, 0, 0)" stroke-opacity="1.0" stroke-linecap="round" stroke-linejoin="round"/>
    <path d="M 140.75563049316406 101.14435577392578 C 167.98800659179688 115.04033660888672 126.63404846191406 141.86221313476562 160.6072540283203 137.79518127441406" stroke-width="3.0" fill="none" stroke="rgb(0, 0, 0)" stroke-opacity="1.0" stroke-linecap="round" stroke-linejoin="round"/>
    <path d="M 80.2591323852539 113.88971710205078 C 61.1195068359375 64.24583435058594 68.35539245605469 80.49992370605469 96.3073959350586 97.35017395019531" stroke-width="3.0" fill="none" stroke="rgb(0, 0, 0)" stroke-opacity="1.0" stroke-linecap="round" stroke-linejoin="round"/>
    <path d="M 72.62823486328125 122.7864990234375 C 128.5029754638672 133.36312866210938 100.2676773071289 140.31777954101562 95.16940307617188 122.23814392089844" stroke-width="3.0" fill="none" stroke="rgb(0, 0, 0)" stroke-opacity="1.0" stroke-linecap="round" stroke-linejoin="round"/>
    <path d="M 57.95905685424805 81.51202392578125 C 24.195627212524414 93.35923767089844 48.55339813232422 98.05653381347656 58.39414978027344 71.56118774414062" stroke-width="3.0" fill="none" stroke="rgb(0, 0, 0)" stroke-opacity="1.0" stroke-linecap="round" stroke-linejoin="round"/>
    <path d="M 84.84761810302734 169.3728790283203 C 105.58989715576172 164.5619354248047 21.084754943847656 137.8914794921875 96.17866516113281 124.10872650146484" stroke-width="3.0" fill="none" stroke="rgb(0, 0, 0)" stroke-opacity="1.0" stroke-linecap="round" stroke-linejoin="round"/>
    <path d="M 182.38868713378906 127.12419128417969 C 157.4715576171875 111.47447967529297 165.86981201171875 89.5552749633789 147.02267456054688 107.14270782470703" stroke-width="3.0" fill="none" stroke="rgb(0, 0, 0)" stroke-opacity="1.0" stroke-linecap="round" stroke-linejoin="round"/>
    <path d="M 116.66739654541016 140.01605224609375 C 177.13021850585938 117.44859313964844 146.226806640625 99.92547607421875 111.779541015625 143.80145263671875" stroke-width="3.0" fill="none" stroke="rgb(0, 0, 0)" stroke-opacity="1.0" stroke-linecap="round" stroke-linejoin="round"/>
    <path d="M 62.96797561645508 75.79275512695312 C 104.35317993164062 114.94638061523438 91.08586883544922 116.7578353881836 61.912010192871094 74.17755126953125" stroke-width="3.0" fill="none" stroke="rgb(0, 0, 0)" stroke-opacity="1.0" stroke-linecap="round" stroke-linejoin="round"/>
    <path d="M 126.07022857666016 114.42039489746094 C 147.5666046142578 117.0202865600586 151.6717071533203 117.91397094726562 118.48228454589844 137.0372314453125" stroke-width="3.0" fill="none" stroke="rgb(0, 0, 0)" stroke-opacity="1.0" stroke-linecap="round" stroke-linejoin="round"/>
    <path d="M 68.72224426269531 84.80475616455078 C 100.57231903076172 125.28154754638672 73.5785140991211 96.57532501220703 71.49531555175781 100.9291763305664" stroke-width="3.0" fill="none" stroke="rgb(0, 0, 0)" stroke-opacity="1.0" stroke-linecap="round" stroke-linejoin="round"/>
    <path d="M 107.06220245361328 128.43795776367188 C 117.87311553955078 159.6930389404297 134.61814880371094 108.59271240234375 127.5645751953125 102.84898376464844" stroke-width="3.0" fill="none" stroke="rgb(0, 0, 0)" stroke-opacity="1.0" stroke-linecap="round" stroke-linejoin="round"/>
    <path d="M 61.45469284057617 73.62474822998047 C 27.535795211791992 116.95343780517578 83.8846664428711 56.226131439208984 74.01152801513672 114.39314270019531" stroke-width="3.0" fill="none" stroke="rgb(0, 0, 0)" stroke-opacity="1.0" stroke-linecap="round" stroke-linejoin="round"/>
    <path d="M 135.65115356445312 121.86624145507812 C 89.18450164794922 156.62110900878906 141.01963806152344 110.39773559570312 115.13427734375 139.44924926757812" stroke-width="3.0" fill="none" stroke="rgb(0, 0, 0)" stroke-opacity="1.0" stroke-linecap="round" stroke-linejoin="round"/>
    <path d="M 121.60639190673828 138.18463134765625 C 144.79014587402344 99.07848358154297 143.2596435546875 118.14036560058594 128.8157501220703 102.08355712890625" stroke-width="3.0" fill="none" stroke="rgb(0, 0, 0)" stroke-opacity="1.0" stroke-linecap="round" stroke-linejoin="round"/>
    <path d="M 141.8976593017578 131.64471435546875 C 124.76898956298828 120.28642272949219 149.30770874023438 119.51792907714844 122.80734252929688 104.55474853515625" stroke-width="3.0" fill="none" stroke="rgb(0, 0, 0)" stroke-opacity="1.0" stroke-linecap="round" stroke-linejoin="round"/>
    <path d="M 121.80158996582031 105.34358978271484 C 145.44168090820312 186.2919158935547 149.05587768554688 138.325927734375 108.74075317382812 175.76443481445312" stroke-width="3.0" fill="none" stroke="rgb(0, 0, 0)" stroke-opacity="1.0" stroke-linecap="round" stroke-linejoin="round"/>
    <path d="M 173.1923828125 123.95268249511719 C 160.79010009765625 158.17698669433594 141.5545196533203 128.9599151611328 154.6913299560547 139.2760467529297" stroke-width="3.0" fill="none" stroke="rgb(0, 0, 0)" stroke-opacity="1.0" stroke-linecap="round" stroke-linejoin="round"/>
    <path d="M 140.1400604248047 121.24465942382812 C 104.92070007324219 103.90484619140625 179.38392639160156 96.01321411132812 139.4691619873047 127.68083190917969" stroke-width="3.0" fill="none" stroke="rgb(0, 0, 0)" stroke-opacity="1.0" stroke-linecap="round" stroke-linejoin="round"/>
    <path d="M 77.76863861083984 112.56111145019531 C 41.3193359375 56.609153747558594 75.66425323486328 95.67825317382812 74.84381103515625 122.0931396484375" stroke-width="3.0" fill="none" stroke="rgb(0, 0, 0)" stroke-opacity="1.0" stroke-linecap="round" stroke-linejoin="round"/>
    <path d="M 75.66429901123047 133.41549682617188 C 165.0128631591797 125.35041809082031 89.72474670410156 146.50363159179688 75.49916076660156 126.32762145996094" stroke-width="3.0" fill="none" stroke="rgb(0, 0, 0)" stroke-opacity="1.0" stroke-linecap="round" stroke-linejoin="round"/>
    <path d="M 58.41355514526367 74.82028198242188 C 112.83607482910156 66.30821990966797 90.47252655029297 140.52572631835938 62.32722473144531 83.88363647460938" stroke-width="3.0" fill="none" stroke="rgb(0, 0, 0)" stroke-opacity="1.0" stroke-linecap="round" stroke-linejoin="round"/>
    <path d="M 147.77801513671875 125.05752563476562 C 129.00279235839844 102.71807098388672 174.22457885742188 99.58256530761719 140.00738525390625 141.31338500976562" stroke-width="3.0" fill="none" stroke="rgb(0, 0, 0)" stroke-opacity="1.0" stroke-linecap="round" stroke-linejoin="round"/>
    <path d="M 158.06063842773438 103.35501098632812 C 178.96368408203125 140.7951202392578 217.6665802001953 141.5956268310547 157.07546997070312 103.6445083618164" stroke-width="3.0" fill="none" stroke="rgb(0, 0, 0)" stroke-opacity="1.0" stroke-linecap="round" stroke-linejoin="round"/>
    <path d="M 51.651451110839844 71.45381164550781 C 66.83314514160156 77.85697937011719 52.091835021972656 49.22386169433594 77.90091705322266 117.15084838867188" stroke-width="3.0" fill="none" stroke="rgb(0, 0, 0)" stroke-opacity="1.0" stroke-linecap="round" stroke-linejoin="round"/>
    <path d="M 57.25220489501953 69.84459686279297 C 16.62513542175293 109.95146942138672 44.61176300048828 89.00151824951172 67.7093734741211 83.7115707397461" stroke-width="3.0" fill="none" stroke="rgb(0, 0, 0)" stroke-opacity="1.0" stroke-linecap="round" stroke-linejoin="round"/>
  </g>
</svg>
