<?xml version="1.0" ?>
<svg xmlns="http://www.w3.org/2000/svg" version="1.1" width="224" height="224">
  <defs/>
  <g>
    <path d="M 136.56153869628906 113.6269302368164 C 102.1864242553711 88.19718170166016 87.5157241821289 108.69070434570312 139.6211700439453 108.30307006835938" stroke-width="3.0" fill="none" stroke="rgb(0, 0, 0)" stroke-opacity="1.0" stroke-linecap="round" stroke-linejoin="round"/>
    <path d="M 173.41876220703125 114.80372619628906 C 160.4180145263672 133.1082305908203 223.72427368164062 130.1027374267578 186.6341094970703 126.82213592529297" stroke-width="3.0" fill="none" stroke="rgb(0, 0, 0)" stroke-opacity="1.0" stroke-linecap="round" stroke-linejoin="round"/>
    <path d="M 127.4530258178711 134.01211547851562 C 120.56151580810547 84.9844741821289 122.31156921386719 113.47029113769531 156.59848022460938 144.63192749023438" stroke-width="3.0" fill="none" stroke="rgb(0, 0, 0)" stroke-opacity="1.0" stroke-linecap="round" stroke-linejoin="round"/>
    <path d="M 130.92445373535156 132.73861694335938 C 133.6360321044922 78.00979614257812 123.00030517578125 119.24087524414062 156.4989013671875 101.57260131835938" stroke-width="3.0" fill="none" stroke="rgb(0, 0, 0)" stroke-opacity="1.0" stroke-linecap="round" stroke-linejoin="round"/>
    <path d="M 127.79903411865234 123.5644760131836 C 123.79721069335938 97.94955444335938 68.86878204345703 82.24972534179688 75.1998291015625 128.0106658935547" stroke-width="3.0" fill="none" stroke="rgb(0, 0, 0)" stroke-opacity="1.0" stroke-linecap="round" stroke-linejoin="round"/>
    <path d="M 137.07521057128906 118.21133422851562 C 143.5771942138672 127.94235229492188 151.51393127441406 106.92852783203125 133.8678436279297 100.11376190185547" stroke-width="3.0" fill="none" stroke="rgb(0, 0, 0)" stroke-opacity="1.0" stroke-linecap="round" stroke-linejoin="round"/>
    <path d="M 83.7029800415039 135.46421813964844 C 48.07801818847656 113.004150390625 99.97734069824219 121.69933319091797 56.44630432128906 79.15298461914062" stroke-width="3.0" fill="none" stroke="rgb(0, 0, 0)" stroke-opacity="1.0" stroke-linecap="round" stroke-linejoin="round"/>
    <path d="M 141.8021240234375 114.41744232177734 C 93.49917602539062 142.93927001953125 213.9405517578125 157.1396942138672 142.73504638671875 139.1210479736328" stroke-width="3.0" fill="none" stroke="rgb(0, 0, 0)" stroke-opacity="1.0" stroke-linecap="round" stroke-linejoin="round"/>
    <path d="M 183.26026916503906 164.1178741455078 C 177.52474975585938 146.26022338867188 199.61447143554688 175.01065063476562 163.91015625 145.71409606933594" stroke-width="3.0" fill="none" stroke="rgb(0, 0, 0)" stroke-opacity="1.0" stroke-linecap="round" stroke-linejoin="round"/>
    <path d="M 146.0687713623047 131.1512451171875 C 145.97488403320312 80.83831024169922 148.8846435546875 117.1256103515625 116.69461059570312 142.27540588378906" stroke-width="3.0" fill="none" stroke="rgb(0, 0, 0)" stroke-opacity="1.0" stroke-linecap="round" stroke-linejoin="round"/>
    <path d="M 136.96421813964844 145.8768768310547 C 156.8579559326172 123.5177993774414 154.92431640625 105.03269958496094 139.28868103027344 141.81088256835938" stroke-width="3.0" fill="none" stroke="rgb(0, 0, 0)" stroke-opacity="1.0" stroke-linecap="round" stroke-linejoin="round"/>
    <path d="M 135.7429962158203 100.55107116699219 C 87.88272857666016 105.37101745605469 87.51252746582031 92.84269714355469 84.75157165527344 80.72660064697266" stroke-width="3.0" fill="none" stroke="rgb(0, 0, 0)" stroke-opacity="1.0" stroke-linecap="round" stroke-linejoin="round"/>
    <path d="M 109.1729507446289 103.76295471191406 C 142.948974609375 105.95906829833984 129.07257080078125 93.20406341552734 123.54702758789062 137.7632598876953" stroke-width="3.0" fill="none" stroke="rgb(0, 0, 0)" stroke-opacity="1.0" stroke-linecap="round" stroke-linejoin="round"/>
    <path d="M 99.17530822753906 149.36366271972656 C 149.9306640625 141.7472686767578 138.63662719726562 84.89654541015625 131.87220764160156 157.67111206054688" stroke-width="3.0" fill="none" stroke="rgb(0, 0, 0)" stroke-opacity="1.0" stroke-linecap="round" stroke-linejoin="round"/>
    <path d="M 75.3182373046875 88.80980682373047 C 29.404905319213867 74.08981323242188 37.66672897338867 101.66224670410156 53.692176818847656 81.02902221679688" stroke-width="3.0" fill="none" stroke="rgb(0, 0, 0)" stroke-opacity="1.0" stroke-linecap="round" stroke-linejoin="round"/>
    <path d="M 57.47439956665039 70.61602783203125 C 67.85553741455078 91.63946533203125 77.3240966796875 60.86460876464844 86.5654067993164 102.85690307617188" stroke-width="3.0" fill="none" stroke="rgb(0, 0, 0)" stroke-opacity="1.0" stroke-linecap="round" stroke-linejoin="round"/>
    <path d="M 90.31949615478516 99.96046447753906 C 59.978633880615234 69.04732513427734 34.258338928222656 80.5008773803711 82.27967834472656 96.08500671386719" stroke-width="3.0" fill="none" stroke="rgb(0, 0, 0)" stroke-opacity="1.0" stroke-linecap="round" stroke-linejoin="round"/>
    <path d="M 73.85018920898438 152.91893005371094 C 50.189186096191406 127.4233169555664 90.8874740600586 145.54400634765625 88.13443756103516 128.45480346679688" stroke-width="3.0" fill="none" stroke="rgb(0, 0, 0)" stroke-opacity="1.0" stroke-linecap="round" stroke-linejoin="round"/>
    <path d="M 127.12670135498047 103.27667999267578 C 148.42459106445312 147.14306640625 165.54808044433594 83.75418853759766 111.93156433105469 101.8559799194336" stroke-width="3.0" fill="none" stroke="rgb(0, 0, 0)" stroke-opacity="1.0" stroke-linecap="round" stroke-linejoin="round"/>
    <path d="M 128.88003540039062 123.40462493896484 C 142.62680053710938 195.5380859375 134.62664794921875 134.38815307617188 135.27578735351562 103.57914733886719" stroke-width="3.0" fill="none" stroke="rgb(0, 0, 0)" stroke-opacity="1.0" stroke-linecap="round" stroke-linejoin="round"/>
    <path d="M 97.62372589111328 149.3998565673828 C 86.64703369140625 169.1414031982422 121.49215698242188 165.2229766845703 105.23052215576172 172.03958129882812" stroke-width="3.0" fill="none" stroke="rgb(0, 0, 0)" stroke-opacity="1.0" stroke-linecap="round" stroke-linejoin="round"/>
    <path d="M 80.96793365478516 132.32606506347656 C 152.2284698486328 133.20034790039062 138.93943786621094 137.3656768798828 139.59373474121094 116.14315795898438" stroke-width="3.0" fill="none" stroke="rgb(0, 0, 0)" stroke-opacity="1.0" stroke-linecap="round" stroke-linejoin="round"/>
    <path d="M 143.03366088867188 110.51226043701172 C 88.30419921875 109.49047088623047 103.92223358154297 77.42332458496094 70.74253845214844 122.8245620727539" stroke-width="3.0" fill="none" stroke="rgb(0, 0, 0)" stroke-opacity="1.0" stroke-linecap="round" stroke-linejoin="round"/>
    <path d="M 139.02256774902344 101.39688110351562 C 154.89068603515625 139.59596252441406 122.01219940185547 152.72772216796875 141.5218963623047 122.98772430419922" stroke-width="3.0" fill="none" stroke="rgb(0, 0, 0)" stroke-opacity="1.0" stroke-linecap="round" stroke-linejoin="round"/>
    <path d="M 82.43900299072266 89.79326629638672 C 34.12179946899414 56.31509780883789 54.67130661010742 74.10472106933594 78.2686767578125 108.25988006591797" stroke-width="3.0" fill="none" stroke="rgb(0, 0, 0)" stroke-opacity="1.0" stroke-linecap="round" stroke-linejoin="round"/>
    <path d="M 75.43463897705078 134.05368041992188 C 122.44414520263672 141.3338623046875 92.0731201171875 135.7599639892578 94.31657409667969 120.79298400878906" stroke-width="3.0" fill="none" stroke="rgb(0, 0, 0)" stroke-opacity="1.0" stroke-linecap="round" stroke-linejoin="round"/>
    <path d="M 54.181724548339844 76.28450775146484 C 27.25644302368164 102.7616195678711 38.89436721801758 106.1114730834961 54.470367431640625 78.42532348632812" stroke-width="3.0" fill="none" stroke="rgb(0, 0, 0)" stroke-opacity="1.0" stroke-linecap="round" stroke-linejoin="round"/>
    <path d="M 84.56119537353516 174.20545959472656 C 96.32691955566406 158.68431091308594 32.258766174316406 139.12318420410156 78.7227783203125 129.18263244628906" stroke-width="3.0" fill="none" stroke="rgb(0, 0, 0)" stroke-opacity="1.0" stroke-linecap="round" stroke-linejoin="round"/>
    <path d="M 171.27099609375 120.88836669921875 C 169.99819946289062 110.32449340820312 159.3497772216797 89.34777069091797 152.70155334472656 107.60612487792969" stroke-width="3.0" fill="none" stroke="rgb(0, 0, 0)" stroke-opacity="1.0" stroke-linecap="round" stroke-linejoin="round"/>
    <path d="M 113.80711364746094 143.7262420654297 C 141.86378479003906 97.81646728515625 135.2862091064453 97.59190368652344 120.58911895751953 141.0275115966797" stroke-width="3.0" fill="none" stroke="rgb(0, 0, 0)" stroke-opacity="1.0" stroke-linecap="round" stroke-linejoin="round"/>
    <path d="M 55.51020431518555 78.07878112792969 C 105.14070129394531 111.17439270019531 73.52494049072266 119.19234466552734 76.63904571533203 80.342041015625" stroke-width="3.0" fill="none" stroke="rgb(0, 0, 0)" stroke-opacity="1.0" stroke-linecap="round" stroke-linejoin="round"/>
    <path d="M 135.140625 109.62420654296875 C 141.5048370361328 127.9444580078125 119.18480682373047 113.46054077148438 118.39967346191406 134.11875915527344" stroke-width="3.0" fill="none" stroke="rgb(0, 0, 0)" stroke-opacity="1.0" stroke-linecap="round" stroke-linejoin="round"/>
    <path d="M 70.52725219726562 96.8367691040039 C 117.115966796875 100.63116455078125 105.0044937133789 87.53702545166016 74.05671691894531 102.82952117919922" stroke-width="3.0" fill="none" stroke="rgb(0, 0, 0)" stroke-opacity="1.0" stroke-linecap="round" stroke-linejoin="round"/>
    <path d="M 138.9606170654297 106.73005676269531 C 162.68731689453125 137.1063995361328 138.62139892578125 118.26628112792969 129.1752471923828 100.65962219238281" stroke-width="3.0" fill="none" stroke="rgb(0, 0, 0)" stroke-opacity="1.0" stroke-linecap="round" stroke-linejoin="round"/>
    <path d="M 75.154541015625 80.84475708007812 C 24.740808486938477 108.69132995605469 56.44209289550781 77.84269714355469 76.66188049316406 91.57536315917969" stroke-width="3.0" fill="none" stroke="rgb(0, 0, 0)" stroke-opacity="1.0" stroke-linecap="round" stroke-linejoin="round"/>
    <path d="M 125.51094818115234 104.15306854248047 C 128.04327392578125 155.50326538085938 158.88839721679688 116.92108154296875 134.53408813476562 134.29440307617188" stroke-width="3.0" fill="none" stroke="rgb(0, 0, 0)" stroke-opacity="1.0" stroke-linecap="round" stroke-linejoin="round"/>
    <path d="M 121.24688720703125 143.4718780517578 C 140.0992431640625 106.57856750488281 125.07254028320312 125.63642120361328 113.1165542602539 134.1689453125" stroke-width="3.0" fill="none" stroke="rgb(0, 0, 0)" stroke-opacity="1.0" stroke-linecap="round" stroke-linejoin="round"/>
    <path d="M 138.4138946533203 135.31646728515625 C 144.81298828125 131.8439178466797 162.07640075683594 111.5286865234375 139.40367126464844 118.72272491455078" stroke-width="3.0" fill="none" stroke="rgb(0, 0, 0)" stroke-opacity="1.0" stroke-linecap="round" stroke-linejoin="round"/>
    <path d="M 121.0241470336914 101.78719329833984 C 144.10726928710938 189.214599609375 165.82618713378906 126.76480865478516 111.43556213378906 174.90318298339844" stroke-width="3.0" fill="none" stroke="rgb(0, 0, 0)" stroke-opacity="1.0" stroke-linecap="round" stroke-linejoin="round"/>
    <path d="M 201.36572265625 131.88523864746094 C 154.5169219970703 121.32697296142578 146.2443389892578 83.09950256347656 188.13064575195312 125.44524383544922" stroke-width="3.0" fill="none" stroke="rgb(0, 0, 0)" stroke-opacity="1.0" stroke-linecap="round" stroke-linejoin="round"/>
    <path d="M 142.10899353027344 118.5813217163086 C 104.15979766845703 98.04480743408203 163.490234375 98.72469329833984 148.84542846679688 123.3224105834961" stroke-width="3.0" fill="none" stroke="rgb(0, 0, 0)" stroke-opacity="1.0" stroke-linecap="round" stroke-linejoin="round"/>
    <path d="M 60.46045684814453 86.65731811523438 C 44.04730987548828 65.92845916748047 76.22820281982422 83.59843444824219 76.5830078125 134.09568786621094" stroke-width="3.0" fill="none" stroke="rgb(0, 0, 0)" stroke-opacity="1.0" stroke-linecap="round" stroke-linejoin="round"/>
    <path d="M 67.15664672851562 130.68553161621094 C 164.1180877685547 129.0501708984375 105.98340606689453 143.1939239501953 91.9219741821289 123.82146453857422" stroke-width="3.0" fill="none" stroke="rgb(0, 0, 0)" stroke-opacity="1.0" stroke-linecap="round" stroke-linejoin="round"/>
    <path d="M 61.298614501953125 73.99501037597656 C 102.85167694091797 69.5389175415039 95.67189025878906 129.26206970214844 73.26615905761719 85.2828140258789" stroke-width="3.0" fill="none" stroke="rgb(0, 0, 0)" stroke-opacity="1.0" stroke-linecap="round" stroke-linejoin="round"/>
    <path d="M 130.4264678955078 123.36241149902344 C 135.56185913085938 124.73314666748047 135.24392700195312 98.50498962402344 117.14554595947266 134.10104370117188" stroke-width="3.0" fill="none" stroke="rgb(0, 0, 0)" stroke-opacity="1.0" stroke-linecap="round" stroke-linejoin="round"/>
    <path d="M 159.6693572998047 100.95931243896484 C 186.3902130126953 127.78858184814453 200.41404724121094 142.14117431640625 157.5983428955078 100.80339813232422" stroke-width="3.0" fill="none" stroke="rgb(0, 0, 0)" stroke-opacity="1.0" stroke-linecap="round" stroke-linejoin="round"/>
    <path d="M 43.540401458740234 90.56908416748047 C 69.0398178100586 100.25704193115234 57.53059768676758 67.99917602539062 77.53422546386719 85.06168365478516" stroke-width="3.0" fill="none" stroke="rgb(0, 0, 0)" stroke-opacity="1.0" stroke-linecap="round" stroke-linejoin="round"/>
    <path d="M 61.94100570678711 71.62578582763672 C 33.759063720703125 100.9253158569336 40.317359924316406 87.69124603271484 60.83098220825195 86.59136199951172" stroke-width="3.0" fill="none" stroke="rgb(0, 0, 0)" stroke-opacity="1.0" stroke-linecap="round" stroke-linejoin="round"/>
  </g>
</svg>
