<?xml version="1.0" ?>
<svg xmlns="http://www.w3.org/2000/svg" version="1.1" width="224" height="224">
  <defs/>
  <g>
    <path d="M 154.1726837158203 107.3859634399414 C 133.79751586914062 90.03191375732422 79.82498168945312 111.68016815185547 133.58697509765625 100.76017761230469" stroke-width="3.0" fill="none" stroke="rgb(0, 0, 0)" stroke-opacity="1.0" stroke-linecap="round" stroke-linejoin="round"/>
    <path d="M 160.45603942871094 106.93319702148438 C 159.26673889160156 131.9644775390625 258.0285949707031 148.48484802246094 176.47927856445312 124.49772644042969" stroke-width="3.0" fill="none" stroke="rgb(0, 0, 0)" stroke-opacity="1.0" stroke-linecap="round" stroke-linejoin="round"/>
    <path d="M 147.5005340576172 141.25169372558594 C 126.56555938720703 83.46177673339844 103.44013977050781 146.15213012695312 161.57533264160156 147.61572265625" stroke-width="3.0" fill="none" stroke="rgb(0, 0, 0)" stroke-opacity="1.0" stroke-linecap="round" stroke-linejoin="round"/>
    <path d="M 137.04470825195312 148.89254760742188 C 112.39471435546875 75.80659484863281 131.51341247558594 138.77745056152344 142.2371063232422 104.19845581054688" stroke-width="3.0" fill="none" stroke="rgb(0, 0, 0)" stroke-opacity="1.0" stroke-linecap="round" stroke-linejoin="round"/>
    <path d="M 130.30165100097656 122.21326446533203 C 132.3958740234375 87.23458099365234 52.12120056152344 99.82099914550781 73.33309936523438 130.63601684570312" stroke-width="3.0" fill="none" stroke="rgb(0, 0, 0)" stroke-opacity="1.0" stroke-linecap="round" stroke-linejoin="round"/>
    <path d="M 95.30894470214844 143.2069091796875 C 114.57240295410156 136.98214721679688 138.82574462890625 103.95759582519531 119.90312194824219 100.85321044921875" stroke-width="3.0" fill="none" stroke="rgb(0, 0, 0)" stroke-opacity="1.0" stroke-linecap="round" stroke-linejoin="round"/>
    <path d="M 82.31361389160156 126.13689422607422 C 47.86209487915039 143.21168518066406 122.23580932617188 79.67363739013672 50.08416748046875 80.45658874511719" stroke-width="3.0" fill="none" stroke="rgb(0, 0, 0)" stroke-opacity="1.0" stroke-linecap="round" stroke-linejoin="round"/>
    <path d="M 145.38946533203125 112.3191909790039 C 147.62696838378906 167.92779541015625 242.21681213378906 171.4119415283203 146.6394805908203 142.15151977539062" stroke-width="3.0" fill="none" stroke="rgb(0, 0, 0)" stroke-opacity="1.0" stroke-linecap="round" stroke-linejoin="round"/>
    <path d="M 182.5047607421875 156.61236572265625 C 180.76327514648438 139.09239196777344 208.5518035888672 194.37982177734375 155.8233642578125 137.9188690185547" stroke-width="3.0" fill="none" stroke="rgb(0, 0, 0)" stroke-opacity="1.0" stroke-linecap="round" stroke-linejoin="round"/>
    <path d="M 138.30885314941406 123.66024017333984 C 110.7988052368164 75.40234375 152.92166137695312 124.32232666015625 116.10564422607422 133.9246368408203" stroke-width="3.0" fill="none" stroke="rgb(0, 0, 0)" stroke-opacity="1.0" stroke-linecap="round" stroke-linejoin="round"/>
    <path d="M 135.34442138671875 139.2330322265625 C 142.94760131835938 108.99990844726562 153.48997497558594 83.58223724365234 133.33175659179688 155.73696899414062" stroke-width="3.0" fill="none" stroke="rgb(0, 0, 0)" stroke-opacity="1.0" stroke-linecap="round" stroke-linejoin="round"/>
    <path d="M 149.52645874023438 111.02461242675781 C 76.14940643310547 97.96282196044922 81.87069702148438 97.37256622314453 63.57451248168945 80.52062225341797" stroke-width="3.0" fill="none" stroke="rgb(0, 0, 0)" stroke-opacity="1.0" stroke-linecap="round" stroke-linejoin="round"/>
    <path d="M 123.60575866699219 107.3718490600586 C 135.0661163330078 91.12281036376953 142.3023223876953 109.11321258544922 130.68238830566406 131.16490173339844" stroke-width="3.0" fill="none" stroke="rgb(0, 0, 0)" stroke-opacity="1.0" stroke-linecap="round" stroke-linejoin="round"/>
    <path d="M 98.3391342163086 148.11856079101562 C 149.50161743164062 141.9667205810547 152.0231475830078 73.986572265625 138.28179931640625 154.27850341796875" stroke-width="3.0" fill="none" stroke="rgb(0, 0, 0)" stroke-opacity="1.0" stroke-linecap="round" stroke-linejoin="round"/>
    <path d="M 85.576416015625 87.63993072509766 C 58.96559143066406 58.20081329345703 21.780437469482422 123.22742462158203 53.988040924072266 86.87528991699219" stroke-width="3.0" fill="none" stroke="rgb(0, 0, 0)" stroke-opacity="1.0" stroke-linecap="round" stroke-linejoin="round"/>
    <path d="M 67.1789779663086 72.32095336914062 C 73.866455078125 77.9194564819336 88.0551528930664 82.10345458984375 88.17969512939453 104.5298080444336" stroke-width="3.0" fill="none" stroke="rgb(0, 0, 0)" stroke-opacity="1.0" stroke-linecap="round" stroke-linejoin="round"/>
    <path d="M 77.02481842041016 112.38819885253906 C 54.857418060302734 62.671783447265625 8.330819129943848 81.83868408203125 87.52729034423828 94.63036346435547" stroke-width="3.0" fill="none" stroke="rgb(0, 0, 0)" stroke-opacity="1.0" stroke-linecap="round" stroke-linejoin="round"/>
    <path d="M 82.27886962890625 161.94766235351562 C 35.34018325805664 120.26770782470703 75.84467315673828 151.57359313964844 95.03087615966797 121.51958465576172" stroke-width="3.0" fill="none" stroke="rgb(0, 0, 0)" stroke-opacity="1.0" stroke-linecap="round" stroke-linejoin="round"/>
    <path d="M 130.92359924316406 122.89691162109375 C 160.9723663330078 165.82249450683594 164.10836791992188 76.33355712890625 109.79669952392578 102.210205078125" stroke-width="3.0" fill="none" stroke="rgb(0, 0, 0)" stroke-opacity="1.0" stroke-linecap="round" stroke-linejoin="round"/>
    <path d="M 134.0811004638672 102.11742401123047 C 136.58950805664062 192.6843719482422 163.05880737304688 87.7749252319336 134.6441192626953 105.07085418701172" stroke-width="3.0" fill="none" stroke="rgb(0, 0, 0)" stroke-opacity="1.0" stroke-linecap="round" stroke-linejoin="round"/>
    <path d="M 97.99249267578125 148.79981994628906 C 80.79265594482422 166.4183349609375 120.03777313232422 179.57875061035156 99.03824615478516 163.44528198242188" stroke-width="3.0" fill="none" stroke="rgb(0, 0, 0)" stroke-opacity="1.0" stroke-linecap="round" stroke-linejoin="round"/>
    <path d="M 78.07981872558594 126.34520721435547 C 132.35403442382812 145.17596435546875 136.985107421875 122.873046875 142.3708953857422 113.92155456542969" stroke-width="3.0" fill="none" stroke="rgb(0, 0, 0)" stroke-opacity="1.0" stroke-linecap="round" stroke-linejoin="round"/>
    <path d="M 130.12820434570312 102.39141845703125 C 80.8870620727539 117.45259857177734 105.61193084716797 67.74592590332031 74.42684936523438 118.7690658569336" stroke-width="3.0" fill="none" stroke="rgb(0, 0, 0)" stroke-opacity="1.0" stroke-linecap="round" stroke-linejoin="round"/>
    <path d="M 137.55014038085938 105.85283660888672 C 165.09202575683594 121.46163940429688 131.6819610595703 145.3055877685547 161.9084014892578 142.97377014160156" stroke-width="3.0" fill="none" stroke="rgb(0, 0, 0)" stroke-opacity="1.0" stroke-linecap="round" stroke-linejoin="round"/>
    <path d="M 76.47166442871094 112.8856430053711 C 50.041648864746094 66.61551666259766 68.60445404052734 77.02112579345703 93.51036071777344 101.63945770263672" stroke-width="3.0" fill="none" stroke="rgb(0, 0, 0)" stroke-opacity="1.0" stroke-linecap="round" stroke-linejoin="round"/>
    <path d="M 71.61194610595703 125.1302261352539 C 128.6151580810547 133.1388702392578 103.40557861328125 135.65673828125 94.79701232910156 123.39481353759766" stroke-width="3.0" fill="none" stroke="rgb(0, 0, 0)" stroke-opacity="1.0" stroke-linecap="round" stroke-linejoin="round"/>
    <path d="M 57.027278900146484 83.36690521240234 C 24.058853149414062 95.66587829589844 51.97563934326172 104.81193542480469 58.14731979370117 69.97379302978516" stroke-width="3.0" fill="none" stroke="rgb(0, 0, 0)" stroke-opacity="1.0" stroke-linecap="round" stroke-linejoin="round"/>
    <path d="M 82.67723083496094 169.04080200195312 C 105.92887115478516 157.06504821777344 22.097726821899414 141.93218994140625 95.2160415649414 124.82591247558594" stroke-width="3.0" fill="none" stroke="rgb(0, 0, 0)" stroke-opacity="1.0" stroke-linecap="round" stroke-linejoin="round"/>
    <path d="M 182.27587890625 127.3261947631836 C 161.43832397460938 108.66954803466797 168.3401641845703 88.17990112304688 146.37306213378906 105.48818969726562" stroke-width="3.0" fill="none" stroke="rgb(0, 0, 0)" stroke-opacity="1.0" stroke-linecap="round" stroke-linejoin="round"/>
    <path d="M 111.1734390258789 135.8256072998047 C 182.3787078857422 119.8418197631836 154.38331604003906 109.7576675415039 120.36138916015625 142.12030029296875" stroke-width="3.0" fill="none" stroke="rgb(0, 0, 0)" stroke-opacity="1.0" stroke-linecap="round" stroke-linejoin="round"/>
    <path d="M 63.178707122802734 71.97373962402344 C 95.17720031738281 123.50880432128906 87.80899810791016 120.1375961303711 58.563968658447266 74.84288024902344" stroke-width="3.0" fill="none" stroke="rgb(0, 0, 0)" stroke-opacity="1.0" stroke-linecap="round" stroke-linejoin="round"/>
    <path d="M 128.30271911621094 116.07361602783203 C 147.72752380371094 115.00799560546875 145.20787048339844 110.65727996826172 120.03411865234375 139.9254913330078" stroke-width="3.0" fill="none" stroke="rgb(0, 0, 0)" stroke-opacity="1.0" stroke-linecap="round" stroke-linejoin="round"/>
    <path d="M 74.9471664428711 82.12918090820312 C 101.35350036621094 125.15016174316406 74.37259674072266 96.42481994628906 72.43213653564453 100.87763977050781" stroke-width="3.0" fill="none" stroke="rgb(0, 0, 0)" stroke-opacity="1.0" stroke-linecap="round" stroke-linejoin="round"/>
    <path d="M 118.28912353515625 131.99880981445312 C 117.50824737548828 162.96511840820312 138.1348114013672 109.68219757080078 132.80296325683594 103.56395721435547" stroke-width="3.0" fill="none" stroke="rgb(0, 0, 0)" stroke-opacity="1.0" stroke-linecap="round" stroke-linejoin="round"/>
    <path d="M 63.63711929321289 72.04611206054688 C 31.766313552856445 111.31021118164062 82.15970611572266 56.9376106262207 77.25999450683594 117.26622009277344" stroke-width="3.0" fill="none" stroke="rgb(0, 0, 0)" stroke-opacity="1.0" stroke-linecap="round" stroke-linejoin="round"/>
    <path d="M 132.90084838867188 116.87993621826172 C 86.73316192626953 153.54962158203125 136.5882568359375 101.39937591552734 120.19088745117188 131.06613159179688" stroke-width="3.0" fill="none" stroke="rgb(0, 0, 0)" stroke-opacity="1.0" stroke-linecap="round" stroke-linejoin="round"/>
    <path d="M 122.52715301513672 135.14419555664062 C 143.0330810546875 100.43807983398438 140.00950622558594 122.75083923339844 131.30844116210938 102.28475189208984" stroke-width="3.0" fill="none" stroke="rgb(0, 0, 0)" stroke-opacity="1.0" stroke-linecap="round" stroke-linejoin="round"/>
    <path d="M 140.65570068359375 136.75523376464844 C 126.03541564941406 118.5375747680664 153.45115661621094 115.10124969482422 127.458740234375 102.03692626953125" stroke-width="3.0" fill="none" stroke="rgb(0, 0, 0)" stroke-opacity="1.0" stroke-linecap="round" stroke-linejoin="round"/>
    <path d="M 122.93049621582031 105.051025390625 C 138.61563110351562 184.74864196777344 144.16390991210938 137.86972045898438 110.8013916015625 175.576171875" stroke-width="3.0" fill="none" stroke="rgb(0, 0, 0)" stroke-opacity="1.0" stroke-linecap="round" stroke-linejoin="round"/>
    <path d="M 169.7457275390625 121.02481842041016 C 152.92233276367188 156.78628540039062 133.43270874023438 133.5997314453125 152.84352111816406 135.87939453125" stroke-width="3.0" fill="none" stroke="rgb(0, 0, 0)" stroke-opacity="1.0" stroke-linecap="round" stroke-linejoin="round"/>
    <path d="M 138.82337951660156 121.29663848876953 C 101.63826751708984 105.2530288696289 176.8508758544922 99.00348663330078 138.9561004638672 129.1206817626953" stroke-width="3.0" fill="none" stroke="rgb(0, 0, 0)" stroke-opacity="1.0" stroke-linecap="round" stroke-linejoin="round"/>
    <path d="M 81.58846282958984 110.1543197631836 C 44.15794372558594 57.90826416015625 79.14689636230469 94.57575225830078 72.33708953857422 123.3629379272461" stroke-width="3.0" fill="none" stroke="rgb(0, 0, 0)" stroke-opacity="1.0" stroke-linecap="round" stroke-linejoin="round"/>
    <path d="M 78.20732116699219 134.52687072753906 C 170.42979431152344 124.25078582763672 92.47168731689453 143.17807006835938 73.83726501464844 126.5348892211914" stroke-width="3.0" fill="none" stroke="rgb(0, 0, 0)" stroke-opacity="1.0" stroke-linecap="round" stroke-linejoin="round"/>
    <path d="M 55.25559616088867 73.67547607421875 C 112.89917755126953 66.64098358154297 93.87679290771484 139.23703002929688 65.24542236328125 81.35079193115234" stroke-width="3.0" fill="none" stroke="rgb(0, 0, 0)" stroke-opacity="1.0" stroke-linecap="round" stroke-linejoin="round"/>
    <path d="M 143.99295043945312 129.64865112304688 C 124.58181762695312 106.17847442626953 166.81898498535156 101.9579849243164 145.78782653808594 142.34718322753906" stroke-width="3.0" fill="none" stroke="rgb(0, 0, 0)" stroke-opacity="1.0" stroke-linecap="round" stroke-linejoin="round"/>
    <path d="M 159.7144775390625 103.18898010253906 C 177.2909393310547 143.3211212158203 216.38607788085938 144.66969299316406 155.13294982910156 102.04174041748047" stroke-width="3.0" fill="none" stroke="rgb(0, 0, 0)" stroke-opacity="1.0" stroke-linecap="round" stroke-linejoin="round"/>
    <path d="M 55.83810043334961 81.69288635253906 C 74.01580810546875 82.43057250976562 56.739410400390625 49.22462463378906 80.00408172607422 113.68609619140625" stroke-width="3.0" fill="none" stroke="rgb(0, 0, 0)" stroke-opacity="1.0" stroke-linecap="round" stroke-linejoin="round"/>
    <path d="M 55.73000717163086 69.62248229980469 C 17.705881118774414 111.43114471435547 49.52273941040039 95.26991271972656 67.4874038696289 82.52442169189453" stroke-width="3.0" fill="none" stroke="rgb(0, 0, 0)" stroke-opacity="1.0" stroke-linecap="round" stroke-linejoin="round"/>
  </g>
</svg>
