<?xml version="1.0" ?>
<svg xmlns="http://www.w3.org/2000/svg" version="1.1" width="224" height="224">
  <defs/>
  <g>
    <path d="M 111.10913848876953 114.01220703125 C 98.2511978149414 98.7457275390625 96.39323425292969 107.70664978027344 127.56303405761719 102.85799407958984" stroke-width="3.0" fill="none" stroke="rgb(0, 0, 0)" stroke-opacity="1.0" stroke-linecap="round" stroke-linejoin="round"/>
    <path d="M 163.22251892089844 113.66956329345703 C 180.96630859375 136.76809692382812 204.14511108398438 125.9743423461914 194.95530700683594 133.06845092773438" stroke-width="3.0" fill="none" stroke="rgb(0, 0, 0)" stroke-opacity="1.0" stroke-linecap="round" stroke-linejoin="round"/>
    <path d="M 137.10986328125 120.63553619384766 C 142.8795928955078 111.6010971069336 139.9313507080078 108.9244384765625 145.77906799316406 140.36087036132812" stroke-width="3.0" fill="none" stroke="rgb(0, 0, 0)" stroke-opacity="1.0" stroke-linecap="round" stroke-linejoin="round"/>
    <path d="M 117.94287109375 103.42034912109375 C 106.8308334350586 122.98351287841797 102.52203369140625 117.38130950927734 131.9213104248047 112.71826934814453" stroke-width="3.0" fill="none" stroke="rgb(0, 0, 0)" stroke-opacity="1.0" stroke-linecap="round" stroke-linejoin="round"/>
    <path d="M 108.4131088256836 117.56221771240234 C 103.3973159790039 94.13451385498047 94.70154571533203 93.31542205810547 77.92166137695312 115.9405288696289" stroke-width="3.0" fill="none" stroke="rgb(0, 0, 0)" stroke-opacity="1.0" stroke-linecap="round" stroke-linejoin="round"/>
    <path d="M 142.1250457763672 120.18714904785156 C 136.68370056152344 123.58943939208984 144.53550720214844 118.20113372802734 128.8567352294922 111.86772918701172" stroke-width="3.0" fill="none" stroke="rgb(0, 0, 0)" stroke-opacity="1.0" stroke-linecap="round" stroke-linejoin="round"/>
    <path d="M 84.35655975341797 123.88285827636719 C 75.8203125 115.74231719970703 87.02446746826172 110.69956970214844 73.6034164428711 85.39168548583984" stroke-width="3.0" fill="none" stroke="rgb(0, 0, 0)" stroke-opacity="1.0" stroke-linecap="round" stroke-linejoin="round"/>
    <path d="M 148.77639770507812 134.22930908203125 C 151.75233459472656 142.53392028808594 190.28970336914062 152.14718627929688 142.39540100097656 140.3164825439453" stroke-width="3.0" fill="none" stroke="rgb(0, 0, 0)" stroke-opacity="1.0" stroke-linecap="round" stroke-linejoin="round"/>
    <path d="M 188.11697387695312 161.57835388183594 C 163.6143798828125 151.01300048828125 184.35009765625 170.7662353515625 163.1443328857422 143.46998596191406" stroke-width="3.0" fill="none" stroke="rgb(0, 0, 0)" stroke-opacity="1.0" stroke-linecap="round" stroke-linejoin="round"/>
    <path d="M 137.62583923339844 103.22698211669922 C 130.2193145751953 109.1517333984375 128.9119873046875 114.88848876953125 115.96479797363281 127.85513305664062" stroke-width="3.0" fill="none" stroke="rgb(0, 0, 0)" stroke-opacity="1.0" stroke-linecap="round" stroke-linejoin="round"/>
    <path d="M 131.35595703125 138.01795959472656 C 150.40664672851562 119.13191223144531 147.21751403808594 112.85336303710938 143.1829376220703 137.92648315429688" stroke-width="3.0" fill="none" stroke="rgb(0, 0, 0)" stroke-opacity="1.0" stroke-linecap="round" stroke-linejoin="round"/>
    <path d="M 119.79475402832031 109.10926818847656 C 115.91777038574219 104.02115631103516 94.16114044189453 110.17222595214844 90.11343383789062 103.126220703125" stroke-width="3.0" fill="none" stroke="rgb(0, 0, 0)" stroke-opacity="1.0" stroke-linecap="round" stroke-linejoin="round"/>
    <path d="M 109.32404327392578 108.04363250732422 C 130.6647186279297 106.12612915039062 119.34478759765625 95.41529846191406 124.46398162841797 123.16651916503906" stroke-width="3.0" fill="none" stroke="rgb(0, 0, 0)" stroke-opacity="1.0" stroke-linecap="round" stroke-linejoin="round"/>
    <path d="M 100.54348754882812 154.85494995117188 C 130.62924194335938 146.73451232910156 142.3054962158203 139.71786499023438 125.27894592285156 160.12767028808594" stroke-width="3.0" fill="none" stroke="rgb(0, 0, 0)" stroke-opacity="1.0" stroke-linecap="round" stroke-linejoin="round"/>
    <path d="M 59.5420036315918 79.12079620361328 C 54.36524200439453 64.32842254638672 63.66067886352539 79.55033111572266 81.0328140258789 88.37223815917969" stroke-width="3.0" fill="none" stroke="rgb(0, 0, 0)" stroke-opacity="1.0" stroke-linecap="round" stroke-linejoin="round"/>
    <path d="M 66.9878158569336 75.73051452636719 C 81.69454956054688 75.5066909790039 85.05694580078125 80.02898406982422 89.65760803222656 94.09943389892578" stroke-width="3.0" fill="none" stroke="rgb(0, 0, 0)" stroke-opacity="1.0" stroke-linecap="round" stroke-linejoin="round"/>
    <path d="M 54.518348693847656 75.14319610595703 C 72.11605834960938 76.19187927246094 74.69771575927734 75.78759765625 77.31782531738281 80.25413513183594" stroke-width="3.0" fill="none" stroke="rgb(0, 0, 0)" stroke-opacity="1.0" stroke-linecap="round" stroke-linejoin="round"/>
    <path d="M 69.02863311767578 130.97872924804688 C 80.59539031982422 121.3831558227539 63.41584777832031 127.11299133300781 99.34295654296875 133.17709350585938" stroke-width="3.0" fill="none" stroke="rgb(0, 0, 0)" stroke-opacity="1.0" stroke-linecap="round" stroke-linejoin="round"/>
    <path d="M 127.0903091430664 114.71319580078125 C 155.7434539794922 137.910888671875 153.15635681152344 117.53929138183594 125.9743881225586 116.16781616210938" stroke-width="3.0" fill="none" stroke="rgb(0, 0, 0)" stroke-opacity="1.0" stroke-linecap="round" stroke-linejoin="round"/>
    <path d="M 133.06605529785156 157.0297393798828 C 135.6888427734375 140.2720184326172 126.16858673095703 127.80828094482422 143.62985229492188 125.647705078125" stroke-width="3.0" fill="none" stroke="rgb(0, 0, 0)" stroke-opacity="1.0" stroke-linecap="round" stroke-linejoin="round"/>
    <path d="M 101.65919494628906 158.01979064941406 C 91.32245635986328 166.37225341796875 127.8916244506836 178.37579345703125 98.72409057617188 171.2080841064453" stroke-width="3.0" fill="none" stroke="rgb(0, 0, 0)" stroke-opacity="1.0" stroke-linecap="round" stroke-linejoin="round"/>
    <path d="M 96.78654479980469 128.4066925048828 C 118.13934326171875 135.3057861328125 111.74976348876953 133.8841094970703 125.6915512084961 117.95897674560547" stroke-width="3.0" fill="none" stroke="rgb(0, 0, 0)" stroke-opacity="1.0" stroke-linecap="round" stroke-linejoin="round"/>
    <path d="M 109.96896362304688 111.23371124267578 C 106.3517074584961 102.95741271972656 92.19480895996094 102.86355590820312 87.73341369628906 104.82536315917969" stroke-width="3.0" fill="none" stroke="rgb(0, 0, 0)" stroke-opacity="1.0" stroke-linecap="round" stroke-linejoin="round"/>
    <path d="M 136.86434936523438 121.13272857666016 C 134.8059539794922 146.1730499267578 125.99805450439453 129.8782501220703 131.2155303955078 129.27926635742188" stroke-width="3.0" fill="none" stroke="rgb(0, 0, 0)" stroke-opacity="1.0" stroke-linecap="round" stroke-linejoin="round"/>
    <path d="M 80.43956756591797 83.291015625 C 73.22503662109375 75.10689544677734 82.01756286621094 80.7409896850586 80.91497802734375 82.2221908569336" stroke-width="3.0" fill="none" stroke="rgb(0, 0, 0)" stroke-opacity="1.0" stroke-linecap="round" stroke-linejoin="round"/>
    <path d="M 88.83915710449219 111.62166595458984 C 102.19841766357422 117.35281372070312 98.98076629638672 122.74475860595703 100.30844116210938 128.25457763671875" stroke-width="3.0" fill="none" stroke="rgb(0, 0, 0)" stroke-opacity="1.0" stroke-linecap="round" stroke-linejoin="round"/>
    <path d="M 57.24480438232422 78.2322998046875 C 24.991649627685547 104.68546295166016 41.84873580932617 103.24345397949219 64.01737213134766 76.3184585571289" stroke-width="3.0" fill="none" stroke="rgb(0, 0, 0)" stroke-opacity="1.0" stroke-linecap="round" stroke-linejoin="round"/>
    <path d="M 76.4426498413086 160.02850341796875 C 67.08921813964844 143.7306671142578 49.72069549560547 140.99017333984375 79.54998016357422 131.14031982421875" stroke-width="3.0" fill="none" stroke="rgb(0, 0, 0)" stroke-opacity="1.0" stroke-linecap="round" stroke-linejoin="round"/>
    <path d="M 167.09593200683594 116.50731658935547 C 165.2766876220703 118.05903625488281 165.436767578125 87.40110778808594 149.0797882080078 105.68053436279297" stroke-width="3.0" fill="none" stroke="rgb(0, 0, 0)" stroke-opacity="1.0" stroke-linecap="round" stroke-linejoin="round"/>
    <path d="M 138.17828369140625 106.5606918334961 C 121.77925872802734 113.30056762695312 120.03282928466797 106.457763671875 110.62385559082031 118.3490982055664" stroke-width="3.0" fill="none" stroke="rgb(0, 0, 0)" stroke-opacity="1.0" stroke-linecap="round" stroke-linejoin="round"/>
    <path d="M 83.61712646484375 89.25640106201172 C 82.92707061767578 89.19708251953125 82.48538208007812 99.74386596679688 102.16465759277344 103.30551147460938" stroke-width="3.0" fill="none" stroke="rgb(0, 0, 0)" stroke-opacity="1.0" stroke-linecap="round" stroke-linejoin="round"/>
    <path d="M 133.24957275390625 123.08942413330078 C 131.67132568359375 115.25125885009766 107.58387756347656 118.35096740722656 114.43351745605469 129.7731475830078" stroke-width="3.0" fill="none" stroke="rgb(0, 0, 0)" stroke-opacity="1.0" stroke-linecap="round" stroke-linejoin="round"/>
    <path d="M 92.45748901367188 96.54183959960938 C 101.80314636230469 112.43217468261719 107.84660339355469 116.13472747802734 85.53614807128906 106.41718292236328" stroke-width="3.0" fill="none" stroke="rgb(0, 0, 0)" stroke-opacity="1.0" stroke-linecap="round" stroke-linejoin="round"/>
    <path d="M 126.62063598632812 114.32351684570312 C 136.78041076660156 114.86750793457031 132.7789764404297 105.36394500732422 128.8567352294922 102.04688262939453" stroke-width="3.0" fill="none" stroke="rgb(0, 0, 0)" stroke-opacity="1.0" stroke-linecap="round" stroke-linejoin="round"/>
    <path d="M 80.30804443359375 80.41993713378906 C 68.76469421386719 73.28241729736328 73.0102310180664 79.32129669189453 78.07119750976562 79.4057388305664" stroke-width="3.0" fill="none" stroke="rgb(0, 0, 0)" stroke-opacity="1.0" stroke-linecap="round" stroke-linejoin="round"/>
    <path d="M 134.54620361328125 106.33382415771484 C 143.1361846923828 114.42243957519531 156.78778076171875 110.6200180053711 146.3643341064453 134.96487426757812" stroke-width="3.0" fill="none" stroke="rgb(0, 0, 0)" stroke-opacity="1.0" stroke-linecap="round" stroke-linejoin="round"/>
    <path d="M 125.15789794921875 109.17633819580078 C 125.75730895996094 103.22554016113281 121.31066131591797 111.72154235839844 114.9194564819336 124.08560180664062" stroke-width="3.0" fill="none" stroke="rgb(0, 0, 0)" stroke-opacity="1.0" stroke-linecap="round" stroke-linejoin="round"/>
    <path d="M 148.0799102783203 113.21881103515625 C 133.43096923828125 107.47817993164062 130.49795532226562 93.81612396240234 146.9932403564453 111.25127410888672" stroke-width="3.0" fill="none" stroke="rgb(0, 0, 0)" stroke-opacity="1.0" stroke-linecap="round" stroke-linejoin="round"/>
    <path d="M 142.1209716796875 132.80218505859375 C 126.82991790771484 160.8040771484375 158.7829132080078 143.9125213623047 114.62754821777344 167.16973876953125" stroke-width="3.0" fill="none" stroke="rgb(0, 0, 0)" stroke-opacity="1.0" stroke-linecap="round" stroke-linejoin="round"/>
    <path d="M 185.53457641601562 127.21686553955078 C 165.3289794921875 117.18553924560547 156.22952270507812 99.72474670410156 163.80577087402344 117.2773666381836" stroke-width="3.0" fill="none" stroke="rgb(0, 0, 0)" stroke-opacity="1.0" stroke-linecap="round" stroke-linejoin="round"/>
    <path d="M 131.3428955078125 102.25282287597656 C 128.614013671875 98.60049438476562 142.78732299804688 98.28600311279297 148.0916748046875 112.08905792236328" stroke-width="3.0" fill="none" stroke="rgb(0, 0, 0)" stroke-opacity="1.0" stroke-linecap="round" stroke-linejoin="round"/>
    <path d="M 74.11524963378906 94.78182983398438 C 65.87596130371094 84.97093963623047 84.44978332519531 101.28067779541016 72.11724090576172 122.3818359375" stroke-width="3.0" fill="none" stroke="rgb(0, 0, 0)" stroke-opacity="1.0" stroke-linecap="round" stroke-linejoin="round"/>
    <path d="M 104.59886932373047 133.55479431152344 C 109.36991119384766 135.1679229736328 95.7309341430664 131.5059814453125 102.3424072265625 124.32318115234375" stroke-width="3.0" fill="none" stroke="rgb(0, 0, 0)" stroke-opacity="1.0" stroke-linecap="round" stroke-linejoin="round"/>
    <path d="M 74.74346923828125 79.18438720703125 C 79.12281799316406 81.0688247680664 86.71601104736328 89.5416030883789 83.3895492553711 80.37975311279297" stroke-width="3.0" fill="none" stroke="rgb(0, 0, 0)" stroke-opacity="1.0" stroke-linecap="round" stroke-linejoin="round"/>
    <path d="M 148.18882751464844 118.18714141845703 C 137.339599609375 114.84292602539062 131.7770233154297 107.40363311767578 124.47399139404297 115.61930084228516" stroke-width="3.0" fill="none" stroke="rgb(0, 0, 0)" stroke-opacity="1.0" stroke-linecap="round" stroke-linejoin="round"/>
    <path d="M 156.6179656982422 103.03888702392578 C 177.1725311279297 119.63255310058594 188.77883911132812 127.82699584960938 177.72328186035156 124.80364990234375" stroke-width="3.0" fill="none" stroke="rgb(0, 0, 0)" stroke-opacity="1.0" stroke-linecap="round" stroke-linejoin="round"/>
    <path d="M 46.80029296875 90.39776611328125 C 70.9517593383789 85.65300750732422 72.08069610595703 95.76400756835938 73.47491455078125 90.79325103759766" stroke-width="3.0" fill="none" stroke="rgb(0, 0, 0)" stroke-opacity="1.0" stroke-linecap="round" stroke-linejoin="round"/>
    <path d="M 63.44136428833008 80.9455337524414 C 52.29501724243164 86.54473876953125 51.87710189819336 71.08161926269531 53.21967315673828 73.9396743774414" stroke-width="3.0" fill="none" stroke="rgb(0, 0, 0)" stroke-opacity="1.0" stroke-linecap="round" stroke-linejoin="round"/>
  </g>
</svg>
