<?xml version="1.0" ?>
<svg xmlns="http://www.w3.org/2000/svg" version="1.1" width="224" height="224">
  <defs/>
  <g>
    <path d="M 150.12423706054688 112.11080169677734 C 129.59918212890625 92.9831314086914 82.41645050048828 112.26409912109375 132.4208984375 99.83110046386719" stroke-width="3.0" fill="none" stroke="rgb(0, 0, 0)" stroke-opacity="1.0" stroke-linecap="round" stroke-linejoin="round"/>
    <path d="M 156.98829650878906 102.10816192626953 C 159.84603881835938 131.52719116210938 257.41632080078125 148.2382354736328 178.56350708007812 124.39311218261719" stroke-width="3.0" fill="none" stroke="rgb(0, 0, 0)" stroke-opacity="1.0" stroke-linecap="round" stroke-linejoin="round"/>
    <path d="M 152.53099060058594 143.70323181152344 C 132.7528839111328 82.99638366699219 109.25152587890625 138.21568298339844 162.1962127685547 143.2221221923828" stroke-width="3.0" fill="none" stroke="rgb(0, 0, 0)" stroke-opacity="1.0" stroke-linecap="round" stroke-linejoin="round"/>
    <path d="M 138.46755981445312 148.55206298828125 C 111.80303192138672 71.72125244140625 131.7917022705078 135.2762908935547 145.23484802246094 105.35905456542969" stroke-width="3.0" fill="none" stroke="rgb(0, 0, 0)" stroke-opacity="1.0" stroke-linecap="round" stroke-linejoin="round"/>
    <path d="M 130.78811645507812 123.14149475097656 C 131.0277557373047 87.58724212646484 52.27467346191406 97.63249206542969 74.69413757324219 129.21826171875" stroke-width="3.0" fill="none" stroke="rgb(0, 0, 0)" stroke-opacity="1.0" stroke-linecap="round" stroke-linejoin="round"/>
    <path d="M 110.26841735839844 144.59408569335938 C 121.46430969238281 146.2053985595703 140.76490783691406 114.52422332763672 115.72807312011719 104.8920669555664" stroke-width="3.0" fill="none" stroke="rgb(0, 0, 0)" stroke-opacity="1.0" stroke-linecap="round" stroke-linejoin="round"/>
    <path d="M 83.85310363769531 130.14669799804688 C 46.80783462524414 142.83853149414062 122.41899871826172 79.7069320678711 49.465938568115234 81.3876724243164" stroke-width="3.0" fill="none" stroke="rgb(0, 0, 0)" stroke-opacity="1.0" stroke-linecap="round" stroke-linejoin="round"/>
    <path d="M 144.6350555419922 112.5614242553711 C 146.0223846435547 171.1129150390625 237.300048828125 172.67381286621094 146.47750854492188 142.8242950439453" stroke-width="3.0" fill="none" stroke="rgb(0, 0, 0)" stroke-opacity="1.0" stroke-linecap="round" stroke-linejoin="round"/>
    <path d="M 181.66659545898438 160.91224670410156 C 181.846435546875 141.01634216308594 202.65859985351562 196.3402099609375 156.23158264160156 135.54225158691406" stroke-width="3.0" fill="none" stroke="rgb(0, 0, 0)" stroke-opacity="1.0" stroke-linecap="round" stroke-linejoin="round"/>
    <path d="M 138.2381591796875 123.65959167480469 C 108.19476318359375 73.5546646118164 146.28944396972656 112.84586334228516 112.5530014038086 131.5248260498047" stroke-width="3.0" fill="none" stroke="rgb(0, 0, 0)" stroke-opacity="1.0" stroke-linecap="round" stroke-linejoin="round"/>
    <path d="M 133.77761840820312 138.35543823242188 C 140.78982543945312 107.6694564819336 152.58851623535156 83.09392547607422 132.86021423339844 154.84739685058594" stroke-width="3.0" fill="none" stroke="rgb(0, 0, 0)" stroke-opacity="1.0" stroke-linecap="round" stroke-linejoin="round"/>
    <path d="M 149.52833557128906 114.16236114501953 C 78.28021240234375 94.51162719726562 83.48723602294922 94.25712585449219 64.64263153076172 79.03012084960938" stroke-width="3.0" fill="none" stroke="rgb(0, 0, 0)" stroke-opacity="1.0" stroke-linecap="round" stroke-linejoin="round"/>
    <path d="M 123.42240905761719 109.40767669677734 C 138.5680694580078 90.95006561279297 142.15475463867188 107.61785888671875 130.319091796875 130.56980895996094" stroke-width="3.0" fill="none" stroke="rgb(0, 0, 0)" stroke-opacity="1.0" stroke-linecap="round" stroke-linejoin="round"/>
    <path d="M 100.1858901977539 148.31158447265625 C 146.7120361328125 136.91143798828125 150.84780883789062 72.35673522949219 137.93902587890625 152.18670654296875" stroke-width="3.0" fill="none" stroke="rgb(0, 0, 0)" stroke-opacity="1.0" stroke-linecap="round" stroke-linejoin="round"/>
    <path d="M 85.29444122314453 88.91282653808594 C 63.668052673339844 55.175148010253906 26.116758346557617 124.95697784423828 55.31865310668945 87.15787506103516" stroke-width="3.0" fill="none" stroke="rgb(0, 0, 0)" stroke-opacity="1.0" stroke-linecap="round" stroke-linejoin="round"/>
    <path d="M 63.115474700927734 75.62884521484375 C 70.93437194824219 79.55645751953125 85.98345947265625 82.98686981201172 85.6451187133789 104.9173583984375" stroke-width="3.0" fill="none" stroke="rgb(0, 0, 0)" stroke-opacity="1.0" stroke-linecap="round" stroke-linejoin="round"/>
    <path d="M 83.27578735351562 110.00689697265625 C 58.05558395385742 63.50792694091797 10.057077407836914 81.28516387939453 86.95173645019531 90.4310073852539" stroke-width="3.0" fill="none" stroke="rgb(0, 0, 0)" stroke-opacity="1.0" stroke-linecap="round" stroke-linejoin="round"/>
    <path d="M 80.12879180908203 163.65602111816406 C 37.654052734375 121.30046081542969 74.1088638305664 148.87335205078125 93.69244384765625 118.3040771484375" stroke-width="3.0" fill="none" stroke="rgb(0, 0, 0)" stroke-opacity="1.0" stroke-linecap="round" stroke-linejoin="round"/>
    <path d="M 126.00542449951172 114.1462631225586 C 152.90130615234375 155.4772186279297 161.34780883789062 76.4251708984375 106.38093566894531 104.81385040283203" stroke-width="3.0" fill="none" stroke="rgb(0, 0, 0)" stroke-opacity="1.0" stroke-linecap="round" stroke-linejoin="round"/>
    <path d="M 131.2499542236328 108.7253646850586 C 132.10943603515625 202.24232482910156 161.58853149414062 95.71549224853516 129.99717712402344 99.52772521972656" stroke-width="3.0" fill="none" stroke="rgb(0, 0, 0)" stroke-opacity="1.0" stroke-linecap="round" stroke-linejoin="round"/>
    <path d="M 99.98283386230469 148.4574432373047 C 82.63045501708984 166.92405700683594 119.59130859375 179.0242156982422 98.4325942993164 163.17376708984375" stroke-width="3.0" fill="none" stroke="rgb(0, 0, 0)" stroke-opacity="1.0" stroke-linecap="round" stroke-linejoin="round"/>
    <path d="M 74.11073303222656 127.11016845703125 C 135.3374481201172 142.756591796875 136.97897338867188 121.9339599609375 142.59117126464844 114.41849517822266" stroke-width="3.0" fill="none" stroke="rgb(0, 0, 0)" stroke-opacity="1.0" stroke-linecap="round" stroke-linejoin="round"/>
    <path d="M 132.8632049560547 102.37380981445312 C 84.17012786865234 117.62512969970703 106.04795837402344 70.40293884277344 74.41325378417969 121.86373138427734" stroke-width="3.0" fill="none" stroke="rgb(0, 0, 0)" stroke-opacity="1.0" stroke-linecap="round" stroke-linejoin="round"/>
    <path d="M 139.1299591064453 104.01040649414062 C 166.19989013671875 118.24497985839844 127.65665435791016 142.9451141357422 161.0043182373047 139.04014587402344" stroke-width="3.0" fill="none" stroke="rgb(0, 0, 0)" stroke-opacity="1.0" stroke-linecap="round" stroke-linejoin="round"/>
    <path d="M 78.79090881347656 114.6670913696289 C 59.51618194580078 65.78035736083984 68.91901397705078 80.15502166748047 95.19503784179688 97.98035430908203" stroke-width="3.0" fill="none" stroke="rgb(0, 0, 0)" stroke-opacity="1.0" stroke-linecap="round" stroke-linejoin="round"/>
    <path d="M 72.6207275390625 123.41584014892578 C 129.64341735839844 131.3366241455078 102.29315185546875 138.67440795898438 95.62464904785156 121.85578155517578" stroke-width="3.0" fill="none" stroke="rgb(0, 0, 0)" stroke-opacity="1.0" stroke-linecap="round" stroke-linejoin="round"/>
    <path d="M 57.4754524230957 81.1995849609375 C 24.891237258911133 92.74627685546875 51.23609924316406 101.8070068359375 57.10143280029297 71.53970336914062" stroke-width="3.0" fill="none" stroke="rgb(0, 0, 0)" stroke-opacity="1.0" stroke-linecap="round" stroke-linejoin="round"/>
    <path d="M 82.9459228515625 170.54476928710938 C 104.59647369384766 165.86981201171875 19.18588638305664 140.84812927246094 94.85598754882812 122.84620666503906" stroke-width="3.0" fill="none" stroke="rgb(0, 0, 0)" stroke-opacity="1.0" stroke-linecap="round" stroke-linejoin="round"/>
    <path d="M 182.52874755859375 126.9678955078125 C 160.80374145507812 109.8880615234375 168.59947204589844 89.10556030273438 147.5162811279297 107.42276000976562" stroke-width="3.0" fill="none" stroke="rgb(0, 0, 0)" stroke-opacity="1.0" stroke-linecap="round" stroke-linejoin="round"/>
    <path d="M 116.21783447265625 139.7509307861328 C 176.72093200683594 117.45250701904297 148.31964111328125 103.11627197265625 113.48670196533203 141.51022338867188" stroke-width="3.0" fill="none" stroke="rgb(0, 0, 0)" stroke-opacity="1.0" stroke-linecap="round" stroke-linejoin="round"/>
    <path d="M 63.1807975769043 74.58071899414062 C 98.77770233154297 119.8079833984375 86.4207992553711 120.43924713134766 60.75605392456055 72.5909194946289" stroke-width="3.0" fill="none" stroke="rgb(0, 0, 0)" stroke-opacity="1.0" stroke-linecap="round" stroke-linejoin="round"/>
    <path d="M 126.81676483154297 114.6781997680664 C 149.41856384277344 116.2385482788086 151.74752807617188 116.04154968261719 119.35566711425781 138.29286193847656" stroke-width="3.0" fill="none" stroke="rgb(0, 0, 0)" stroke-opacity="1.0" stroke-linecap="round" stroke-linejoin="round"/>
    <path d="M 67.82120513916016 85.77813720703125 C 98.05410766601562 126.59391021728516 73.7929458618164 96.28947448730469 72.62261962890625 100.39453887939453" stroke-width="3.0" fill="none" stroke="rgb(0, 0, 0)" stroke-opacity="1.0" stroke-linecap="round" stroke-linejoin="round"/>
    <path d="M 115.37401580810547 128.40878295898438 C 119.7934799194336 161.9524383544922 140.29808044433594 110.21936798095703 133.48123168945312 103.4343032836914" stroke-width="3.0" fill="none" stroke="rgb(0, 0, 0)" stroke-opacity="1.0" stroke-linecap="round" stroke-linejoin="round"/>
    <path d="M 57.38389587402344 68.89274597167969 C 28.56887435913086 116.6657485961914 84.64566040039062 60.258087158203125 78.10712432861328 117.30313110351562" stroke-width="3.0" fill="none" stroke="rgb(0, 0, 0)" stroke-opacity="1.0" stroke-linecap="round" stroke-linejoin="round"/>
    <path d="M 134.99298095703125 120.56294250488281 C 90.81522369384766 157.13812255859375 142.28048706054688 108.06326293945312 113.5208740234375 131.65255737304688" stroke-width="3.0" fill="none" stroke="rgb(0, 0, 0)" stroke-opacity="1.0" stroke-linecap="round" stroke-linejoin="round"/>
    <path d="M 122.39671325683594 138.72015380859375 C 143.9326934814453 100.23423767089844 140.9996795654297 121.65190124511719 129.80886840820312 102.63711547851562" stroke-width="3.0" fill="none" stroke="rgb(0, 0, 0)" stroke-opacity="1.0" stroke-linecap="round" stroke-linejoin="round"/>
    <path d="M 141.3048095703125 132.94874572753906 C 126.3673324584961 118.3455581665039 156.0933380126953 112.51898956298828 129.3102569580078 100.53126525878906" stroke-width="3.0" fill="none" stroke="rgb(0, 0, 0)" stroke-opacity="1.0" stroke-linecap="round" stroke-linejoin="round"/>
    <path d="M 123.37215423583984 104.69795227050781 C 143.25914001464844 183.40370178222656 144.82431030273438 135.94956970214844 111.53901672363281 176.6627655029297" stroke-width="3.0" fill="none" stroke="rgb(0, 0, 0)" stroke-opacity="1.0" stroke-linecap="round" stroke-linejoin="round"/>
    <path d="M 172.58270263671875 123.11408233642578 C 160.27940368652344 156.67074584960938 139.4306640625 129.20223999023438 153.27151489257812 137.72535705566406" stroke-width="3.0" fill="none" stroke="rgb(0, 0, 0)" stroke-opacity="1.0" stroke-linecap="round" stroke-linejoin="round"/>
    <path d="M 140.022216796875 120.89103698730469 C 103.72477722167969 103.02198791503906 176.76243591308594 95.41798400878906 137.93247985839844 126.83177947998047" stroke-width="3.0" fill="none" stroke="rgb(0, 0, 0)" stroke-opacity="1.0" stroke-linecap="round" stroke-linejoin="round"/>
    <path d="M 79.72492218017578 115.19424438476562 C 42.03939437866211 57.734222412109375 77.05064392089844 94.58869934082031 71.96187591552734 123.8045654296875" stroke-width="3.0" fill="none" stroke="rgb(0, 0, 0)" stroke-opacity="1.0" stroke-linecap="round" stroke-linejoin="round"/>
    <path d="M 76.70892333984375 134.89735412597656 C 167.9023895263672 124.66417694091797 91.5464096069336 144.42811584472656 74.49551391601562 125.82826232910156" stroke-width="3.0" fill="none" stroke="rgb(0, 0, 0)" stroke-opacity="1.0" stroke-linecap="round" stroke-linejoin="round"/>
    <path d="M 57.19877624511719 73.34503936767578 C 113.4391098022461 68.1114273071289 92.29622650146484 144.50074768066406 61.56190490722656 86.62796020507812" stroke-width="3.0" fill="none" stroke="rgb(0, 0, 0)" stroke-opacity="1.0" stroke-linecap="round" stroke-linejoin="round"/>
    <path d="M 146.135498046875 128.0468292236328 C 128.1341552734375 105.6220703125 172.77003479003906 101.69278717041016 140.4845428466797 142.69471740722656" stroke-width="3.0" fill="none" stroke="rgb(0, 0, 0)" stroke-opacity="1.0" stroke-linecap="round" stroke-linejoin="round"/>
    <path d="M 160.95498657226562 104.28724670410156 C 181.14065551757812 140.85301208496094 217.41055297851562 143.7344512939453 157.26907348632812 99.68435668945312" stroke-width="3.0" fill="none" stroke="rgb(0, 0, 0)" stroke-opacity="1.0" stroke-linecap="round" stroke-linejoin="round"/>
    <path d="M 54.28102493286133 80.8171615600586 C 70.64898681640625 81.71749114990234 53.10465621948242 49.998085021972656 77.18317413330078 116.53780364990234" stroke-width="3.0" fill="none" stroke="rgb(0, 0, 0)" stroke-opacity="1.0" stroke-linecap="round" stroke-linejoin="round"/>
    <path d="M 56.14988327026367 70.33292388916016 C 18.59082794189453 112.66100311279297 47.589908599853516 93.27147674560547 66.81275939941406 83.1073989868164" stroke-width="3.0" fill="none" stroke="rgb(0, 0, 0)" stroke-opacity="1.0" stroke-linecap="round" stroke-linejoin="round"/>
  </g>
</svg>
