<?xml version="1.0" ?>
<svg xmlns="http://www.w3.org/2000/svg" version="1.1" width="224" height="224">
  <defs/>
  <g>
    <path d="M 141.60525512695312 112.57575988769531 C 102.06150817871094 92.49356079101562 82.32172393798828 111.43801879882812 138.97047424316406 103.19688415527344" stroke-width="3.0" fill="none" stroke="rgb(0, 0, 0)" stroke-opacity="1.0" stroke-linecap="round" stroke-linejoin="round"/>
    <path d="M 170.3432159423828 112.34918212890625 C 160.58453369140625 130.6732940673828 226.02027893066406 131.72802734375 194.04360961914062 128.95709228515625" stroke-width="3.0" fill="none" stroke="rgb(0, 0, 0)" stroke-opacity="1.0" stroke-linecap="round" stroke-linejoin="round"/>
    <path d="M 126.27552795410156 133.44908142089844 C 123.60506439208984 84.92088317871094 125.62714385986328 111.27916717529297 157.89073181152344 145.0490264892578" stroke-width="3.0" fill="none" stroke="rgb(0, 0, 0)" stroke-opacity="1.0" stroke-linecap="round" stroke-linejoin="round"/>
    <path d="M 130.7825469970703 132.6610870361328 C 134.42483520507812 81.44662475585938 117.10059356689453 123.09859466552734 155.741943359375 101.65253448486328" stroke-width="3.0" fill="none" stroke="rgb(0, 0, 0)" stroke-opacity="1.0" stroke-linecap="round" stroke-linejoin="round"/>
    <path d="M 129.77508544921875 123.49623107910156 C 125.0777359008789 100.65491485595703 71.59632873535156 85.21322631835938 71.5561294555664 130.39585876464844" stroke-width="3.0" fill="none" stroke="rgb(0, 0, 0)" stroke-opacity="1.0" stroke-linecap="round" stroke-linejoin="round"/>
    <path d="M 138.7162322998047 127.00724029541016 C 149.5871124267578 137.00169372558594 156.90830993652344 107.85697174072266 136.4620819091797 99.67649841308594" stroke-width="3.0" fill="none" stroke="rgb(0, 0, 0)" stroke-opacity="1.0" stroke-linecap="round" stroke-linejoin="round"/>
    <path d="M 78.19500732421875 133.4121856689453 C 48.44149398803711 117.57915496826172 102.99462127685547 113.89677429199219 58.20619583129883 78.18434143066406" stroke-width="3.0" fill="none" stroke="rgb(0, 0, 0)" stroke-opacity="1.0" stroke-linecap="round" stroke-linejoin="round"/>
    <path d="M 147.30120849609375 115.33773803710938 C 100.34124755859375 146.2822723388672 210.5599822998047 153.41848754882812 141.93508911132812 137.49620056152344" stroke-width="3.0" fill="none" stroke="rgb(0, 0, 0)" stroke-opacity="1.0" stroke-linecap="round" stroke-linejoin="round"/>
    <path d="M 186.198974609375 165.2065887451172 C 177.99307250976562 144.6881561279297 201.76080322265625 181.30520629882812 164.32391357421875 146.97457885742188" stroke-width="3.0" fill="none" stroke="rgb(0, 0, 0)" stroke-opacity="1.0" stroke-linecap="round" stroke-linejoin="round"/>
    <path d="M 142.9993896484375 136.03578186035156 C 140.55963134765625 79.41108703613281 146.2333526611328 113.7709732055664 109.77369689941406 140.49684143066406" stroke-width="3.0" fill="none" stroke="rgb(0, 0, 0)" stroke-opacity="1.0" stroke-linecap="round" stroke-linejoin="round"/>
    <path d="M 136.80296325683594 145.73684692382812 C 161.79112243652344 125.11953735351562 154.2499237060547 100.42034912109375 133.13621520996094 142.4553680419922" stroke-width="3.0" fill="none" stroke="rgb(0, 0, 0)" stroke-opacity="1.0" stroke-linecap="round" stroke-linejoin="round"/>
    <path d="M 133.6859130859375 101.38673400878906 C 79.7098388671875 105.16803741455078 96.3211898803711 94.81404876708984 83.87214660644531 82.4847640991211" stroke-width="3.0" fill="none" stroke="rgb(0, 0, 0)" stroke-opacity="1.0" stroke-linecap="round" stroke-linejoin="round"/>
    <path d="M 104.25812530517578 103.56512451171875 C 141.1070098876953 107.71707916259766 127.67455291748047 91.60710906982422 124.25554656982422 137.4766387939453" stroke-width="3.0" fill="none" stroke="rgb(0, 0, 0)" stroke-opacity="1.0" stroke-linecap="round" stroke-linejoin="round"/>
    <path d="M 97.57746124267578 148.77398681640625 C 147.2439422607422 142.08326721191406 135.69229125976562 83.38978576660156 130.951904296875 159.11878967285156" stroke-width="3.0" fill="none" stroke="rgb(0, 0, 0)" stroke-opacity="1.0" stroke-linecap="round" stroke-linejoin="round"/>
    <path d="M 76.72836303710938 83.997314453125 C 30.90520668029785 76.2327880859375 34.47157669067383 106.17266082763672 52.85683822631836 82.71305084228516" stroke-width="3.0" fill="none" stroke="rgb(0, 0, 0)" stroke-opacity="1.0" stroke-linecap="round" stroke-linejoin="round"/>
    <path d="M 51.98044967651367 70.17327880859375 C 67.70997619628906 91.17439270019531 75.85546112060547 64.51608276367188 85.3405532836914 106.07463836669922" stroke-width="3.0" fill="none" stroke="rgb(0, 0, 0)" stroke-opacity="1.0" stroke-linecap="round" stroke-linejoin="round"/>
    <path d="M 84.1257553100586 104.84369659423828 C 53.97705841064453 76.48701477050781 29.121540069580078 82.46886444091797 78.86883544921875 91.03923034667969" stroke-width="3.0" fill="none" stroke="rgb(0, 0, 0)" stroke-opacity="1.0" stroke-linecap="round" stroke-linejoin="round"/>
    <path d="M 78.3047103881836 161.31883239746094 C 42.674495697021484 126.99813079833984 82.68285369873047 144.98143005371094 89.97749328613281 123.52054595947266" stroke-width="3.0" fill="none" stroke="rgb(0, 0, 0)" stroke-opacity="1.0" stroke-linecap="round" stroke-linejoin="round"/>
    <path d="M 124.89288330078125 104.49830627441406 C 142.73373413085938 150.5948028564453 157.71693420410156 81.76293182373047 113.59598541259766 103.43289184570312" stroke-width="3.0" fill="none" stroke="rgb(0, 0, 0)" stroke-opacity="1.0" stroke-linecap="round" stroke-linejoin="round"/>
    <path d="M 127.2245864868164 124.11811828613281 C 143.06983947753906 198.12452697753906 138.22219848632812 134.6608428955078 130.04331970214844 103.1593017578125" stroke-width="3.0" fill="none" stroke="rgb(0, 0, 0)" stroke-opacity="1.0" stroke-linecap="round" stroke-linejoin="round"/>
    <path d="M 96.87281036376953 149.30844116210938 C 82.82502746582031 169.68072509765625 125.91231536865234 164.442626953125 103.99992370605469 169.5155792236328" stroke-width="3.0" fill="none" stroke="rgb(0, 0, 0)" stroke-opacity="1.0" stroke-linecap="round" stroke-linejoin="round"/>
    <path d="M 78.8349380493164 133.78187561035156 C 155.9964141845703 134.3989715576172 139.6404266357422 139.65159606933594 141.18133544921875 116.91069030761719" stroke-width="3.0" fill="none" stroke="rgb(0, 0, 0)" stroke-opacity="1.0" stroke-linecap="round" stroke-linejoin="round"/>
    <path d="M 144.267578125 107.99061584472656 C 85.43220520019531 108.3927001953125 98.9888687133789 75.75865936279297 72.7492446899414 125.71940612792969" stroke-width="3.0" fill="none" stroke="rgb(0, 0, 0)" stroke-opacity="1.0" stroke-linecap="round" stroke-linejoin="round"/>
    <path d="M 139.69760131835938 104.17801666259766 C 157.12918090820312 136.67420959472656 123.25040435791016 152.41993713378906 145.79513549804688 135.61009216308594" stroke-width="3.0" fill="none" stroke="rgb(0, 0, 0)" stroke-opacity="1.0" stroke-linecap="round" stroke-linejoin="round"/>
    <path d="M 90.35717010498047 101.88363647460938 C 18.17950439453125 61.786354064941406 41.89252471923828 81.18811798095703 80.55938720703125 104.49581909179688" stroke-width="3.0" fill="none" stroke="rgb(0, 0, 0)" stroke-opacity="1.0" stroke-linecap="round" stroke-linejoin="round"/>
    <path d="M 73.69984436035156 129.65188598632812 C 122.9973373413086 147.21861267089844 92.45655059814453 134.2252655029297 88.88662719726562 119.48162841796875" stroke-width="3.0" fill="none" stroke="rgb(0, 0, 0)" stroke-opacity="1.0" stroke-linecap="round" stroke-linejoin="round"/>
    <path d="M 50.24319076538086 74.37995910644531 C 28.26361846923828 102.02497100830078 36.869266510009766 103.239501953125 55.32429504394531 78.51963806152344" stroke-width="3.0" fill="none" stroke="rgb(0, 0, 0)" stroke-opacity="1.0" stroke-linecap="round" stroke-linejoin="round"/>
    <path d="M 84.00505828857422 172.5076904296875 C 92.16049194335938 158.64720153808594 30.944181442260742 144.52035522460938 77.53942108154297 128.6901397705078" stroke-width="3.0" fill="none" stroke="rgb(0, 0, 0)" stroke-opacity="1.0" stroke-linecap="round" stroke-linejoin="round"/>
    <path d="M 174.1427764892578 118.62177276611328 C 169.6874237060547 109.27056121826172 160.02024841308594 87.25093078613281 153.64996337890625 108.31591796875" stroke-width="3.0" fill="none" stroke="rgb(0, 0, 0)" stroke-opacity="1.0" stroke-linecap="round" stroke-linejoin="round"/>
    <path d="M 117.74446105957031 143.3920135498047 C 140.93394470214844 96.8868637084961 140.46328735351562 102.4242935180664 109.98829650878906 136.64242553710938" stroke-width="3.0" fill="none" stroke="rgb(0, 0, 0)" stroke-opacity="1.0" stroke-linecap="round" stroke-linejoin="round"/>
    <path d="M 54.0150032043457 77.72319030761719 C 97.90874481201172 119.49610137939453 69.50250244140625 128.25987243652344 70.77113342285156 82.54449462890625" stroke-width="3.0" fill="none" stroke="rgb(0, 0, 0)" stroke-opacity="1.0" stroke-linecap="round" stroke-linejoin="round"/>
    <path d="M 136.02413940429688 107.92858123779297 C 148.1181182861328 128.32904052734375 127.97315216064453 115.29800415039062 125.91165161132812 137.09303283691406" stroke-width="3.0" fill="none" stroke="rgb(0, 0, 0)" stroke-opacity="1.0" stroke-linecap="round" stroke-linejoin="round"/>
    <path d="M 69.2509765625 95.52693176269531 C 113.52421569824219 106.22785949707031 96.9389877319336 81.63676452636719 75.94779968261719 104.31021881103516" stroke-width="3.0" fill="none" stroke="rgb(0, 0, 0)" stroke-opacity="1.0" stroke-linecap="round" stroke-linejoin="round"/>
    <path d="M 134.62623596191406 109.31824493408203 C 164.44644165039062 134.24147033691406 140.96348571777344 115.12427520751953 127.01604461669922 100.07389831542969" stroke-width="3.0" fill="none" stroke="rgb(0, 0, 0)" stroke-opacity="1.0" stroke-linecap="round" stroke-linejoin="round"/>
    <path d="M 75.62162017822266 81.62528991699219 C 23.65455436706543 105.04227447509766 58.57581329345703 75.63422393798828 80.458984375 95.66560363769531" stroke-width="3.0" fill="none" stroke="rgb(0, 0, 0)" stroke-opacity="1.0" stroke-linecap="round" stroke-linejoin="round"/>
    <path d="M 123.78587341308594 105.51726531982422 C 125.07611846923828 160.14353942871094 159.28097534179688 122.31102752685547 135.52920532226562 136.09780883789062" stroke-width="3.0" fill="none" stroke="rgb(0, 0, 0)" stroke-opacity="1.0" stroke-linecap="round" stroke-linejoin="round"/>
    <path d="M 116.94851684570312 137.73052978515625 C 134.6083984375 106.34123229980469 128.28587341308594 131.7483673095703 118.35355377197266 136.38851928710938" stroke-width="3.0" fill="none" stroke="rgb(0, 0, 0)" stroke-opacity="1.0" stroke-linecap="round" stroke-linejoin="round"/>
    <path d="M 135.8673858642578 133.32095336914062 C 141.83456420898438 129.37066650390625 159.6481170654297 112.58431243896484 139.06944274902344 120.52706909179688" stroke-width="3.0" fill="none" stroke="rgb(0, 0, 0)" stroke-opacity="1.0" stroke-linecap="round" stroke-linejoin="round"/>
    <path d="M 119.3852310180664 104.04728698730469 C 142.7744598388672 195.39720153808594 164.15097045898438 128.35218811035156 109.07947540283203 174.7499542236328" stroke-width="3.0" fill="none" stroke="rgb(0, 0, 0)" stroke-opacity="1.0" stroke-linecap="round" stroke-linejoin="round"/>
    <path d="M 201.8188934326172 133.44773864746094 C 153.84481811523438 117.57537841796875 143.32850646972656 85.4101791381836 185.5500030517578 125.43065643310547" stroke-width="3.0" fill="none" stroke="rgb(0, 0, 0)" stroke-opacity="1.0" stroke-linecap="round" stroke-linejoin="round"/>
    <path d="M 138.70069885253906 121.19493865966797 C 101.009765625 97.09888458251953 161.36463928222656 98.52119445800781 149.64097595214844 125.76256561279297" stroke-width="3.0" fill="none" stroke="rgb(0, 0, 0)" stroke-opacity="1.0" stroke-linecap="round" stroke-linejoin="round"/>
    <path d="M 63.72545623779297 84.48291015625 C 42.686981201171875 68.7176513671875 74.72327423095703 85.33538818359375 76.00836181640625 133.58001708984375" stroke-width="3.0" fill="none" stroke="rgb(0, 0, 0)" stroke-opacity="1.0" stroke-linecap="round" stroke-linejoin="round"/>
    <path d="M 70.81343841552734 129.24832153320312 C 167.444580078125 133.96481323242188 105.45545959472656 148.16455078125 90.61480712890625 127.91484069824219" stroke-width="3.0" fill="none" stroke="rgb(0, 0, 0)" stroke-opacity="1.0" stroke-linecap="round" stroke-linejoin="round"/>
    <path d="M 55.76787567138672 72.93004608154297 C 100.02781677246094 71.53155517578125 95.25663757324219 132.3969268798828 70.9330062866211 83.80726623535156" stroke-width="3.0" fill="none" stroke="rgb(0, 0, 0)" stroke-opacity="1.0" stroke-linecap="round" stroke-linejoin="round"/>
    <path d="M 129.06625366210938 121.8555908203125 C 134.62391662597656 124.61088562011719 135.59815979003906 99.13121795654297 114.58551025390625 136.42591857910156" stroke-width="3.0" fill="none" stroke="rgb(0, 0, 0)" stroke-opacity="1.0" stroke-linecap="round" stroke-linejoin="round"/>
    <path d="M 158.9039764404297 100.14715576171875 C 190.09750366210938 125.90949249267578 201.40696716308594 142.75038146972656 157.73402404785156 104.86116027832031" stroke-width="3.0" fill="none" stroke="rgb(0, 0, 0)" stroke-opacity="1.0" stroke-linecap="round" stroke-linejoin="round"/>
    <path d="M 39.87918472290039 94.20995330810547 C 65.57019805908203 100.83502960205078 54.96225357055664 65.6541748046875 75.218994140625 89.50013732910156" stroke-width="3.0" fill="none" stroke="rgb(0, 0, 0)" stroke-opacity="1.0" stroke-linecap="round" stroke-linejoin="round"/>
    <path d="M 61.93860626220703 71.41980743408203 C 36.14711380004883 104.18902587890625 41.97374725341797 92.31112670898438 62.459877014160156 90.01559448242188" stroke-width="3.0" fill="none" stroke="rgb(0, 0, 0)" stroke-opacity="1.0" stroke-linecap="round" stroke-linejoin="round"/>
  </g>
</svg>
