<?xml version="1.0" ?>
<svg xmlns="http://www.w3.org/2000/svg" version="1.1" width="224" height="224">
  <defs/>
  <g>
    <path d="M 130.5312042236328 112.16608428955078 C 89.75358581542969 96.31117248535156 80.63038635253906 109.28448486328125 129.53836059570312 100.4039535522461" stroke-width="3.0" fill="none" stroke="rgb(0, 0, 0)" stroke-opacity="1.0" stroke-linecap="round" stroke-linejoin="round"/>
    <path d="M 162.23416137695312 107.40021514892578 C 157.532958984375 126.85728454589844 217.24029541015625 127.96094512939453 196.51588439941406 131.40113830566406" stroke-width="3.0" fill="none" stroke="rgb(0, 0, 0)" stroke-opacity="1.0" stroke-linecap="round" stroke-linejoin="round"/>
    <path d="M 130.4677734375 135.68309020996094 C 135.86349487304688 82.8115234375 127.62533569335938 109.99014282226562 153.38682556152344 143.34678649902344" stroke-width="3.0" fill="none" stroke="rgb(0, 0, 0)" stroke-opacity="1.0" stroke-linecap="round" stroke-linejoin="round"/>
    <path d="M 134.1619110107422 126.99869537353516 C 136.77532958984375 85.23209381103516 117.16830444335938 118.62683868408203 159.48281860351562 100.95720672607422" stroke-width="3.0" fill="none" stroke="rgb(0, 0, 0)" stroke-opacity="1.0" stroke-linecap="round" stroke-linejoin="round"/>
    <path d="M 126.65735626220703 119.76421356201172 C 124.674072265625 98.70526885986328 71.73054504394531 87.33720397949219 75.82318115234375 128.2265625" stroke-width="3.0" fill="none" stroke="rgb(0, 0, 0)" stroke-opacity="1.0" stroke-linecap="round" stroke-linejoin="round"/>
    <path d="M 139.42861938476562 113.2713394165039 C 152.00843811035156 117.23150634765625 157.93092346191406 110.19669342041016 129.2014617919922 100.1867446899414" stroke-width="3.0" fill="none" stroke="rgb(0, 0, 0)" stroke-opacity="1.0" stroke-linecap="round" stroke-linejoin="round"/>
    <path d="M 86.05644226074219 133.13829040527344 C 48.48188781738281 105.5708236694336 100.24494934082031 113.83650970458984 63.72065353393555 77.17544555664062" stroke-width="3.0" fill="none" stroke="rgb(0, 0, 0)" stroke-opacity="1.0" stroke-linecap="round" stroke-linejoin="round"/>
    <path d="M 144.62872314453125 129.23699951171875 C 98.17974853515625 139.07833862304688 215.38548278808594 157.5059051513672 140.6789093017578 137.45306396484375" stroke-width="3.0" fill="none" stroke="rgb(0, 0, 0)" stroke-opacity="1.0" stroke-linecap="round" stroke-linejoin="round"/>
    <path d="M 184.8007049560547 162.54270935058594 C 188.7775421142578 140.96029663085938 191.6782684326172 176.4547576904297 166.0474090576172 145.50201416015625" stroke-width="3.0" fill="none" stroke="rgb(0, 0, 0)" stroke-opacity="1.0" stroke-linecap="round" stroke-linejoin="round"/>
    <path d="M 149.05699157714844 125.31690979003906 C 135.38072204589844 79.00281524658203 143.4270477294922 115.11006164550781 119.40557861328125 142.7510986328125" stroke-width="3.0" fill="none" stroke="rgb(0, 0, 0)" stroke-opacity="1.0" stroke-linecap="round" stroke-linejoin="round"/>
    <path d="M 132.53652954101562 147.21267700195312 C 153.48146057128906 122.23424530029297 156.51979064941406 104.52001953125 144.948974609375 137.73458862304688" stroke-width="3.0" fill="none" stroke="rgb(0, 0, 0)" stroke-opacity="1.0" stroke-linecap="round" stroke-linejoin="round"/>
    <path d="M 132.0839080810547 101.24008178710938 C 93.86744689941406 111.36248016357422 99.06886291503906 91.67912292480469 86.4744873046875 95.60808563232422" stroke-width="3.0" fill="none" stroke="rgb(0, 0, 0)" stroke-opacity="1.0" stroke-linecap="round" stroke-linejoin="round"/>
    <path d="M 107.45137023925781 104.12187957763672 C 141.46450805664062 93.41096496582031 131.19525146484375 95.03421020507812 115.60063934326172 136.87197875976562" stroke-width="3.0" fill="none" stroke="rgb(0, 0, 0)" stroke-opacity="1.0" stroke-linecap="round" stroke-linejoin="round"/>
    <path d="M 97.2568359375 148.52195739746094 C 142.53726196289062 140.6168975830078 136.70999145507812 84.43326568603516 131.60069274902344 159.2806396484375" stroke-width="3.0" fill="none" stroke="rgb(0, 0, 0)" stroke-opacity="1.0" stroke-linecap="round" stroke-linejoin="round"/>
    <path d="M 72.71835327148438 89.19705200195312 C 30.06736183166504 73.39227294921875 40.193634033203125 98.51768493652344 59.554386138916016 83.02424621582031" stroke-width="3.0" fill="none" stroke="rgb(0, 0, 0)" stroke-opacity="1.0" stroke-linecap="round" stroke-linejoin="round"/>
    <path d="M 53.8265380859375 70.48941040039062 C 54.16604995727539 92.32427978515625 72.52840423583984 68.06311798095703 80.54480743408203 104.14986419677734" stroke-width="3.0" fill="none" stroke="rgb(0, 0, 0)" stroke-opacity="1.0" stroke-linecap="round" stroke-linejoin="round"/>
    <path d="M 83.74758911132812 93.3469467163086 C 68.66297149658203 55.94870376586914 38.94456100463867 89.7776870727539 73.90849304199219 80.88195037841797" stroke-width="3.0" fill="none" stroke="rgb(0, 0, 0)" stroke-opacity="1.0" stroke-linecap="round" stroke-linejoin="round"/>
    <path d="M 64.03154754638672 140.906005859375 C 74.0146713256836 127.35074615478516 82.15628051757812 152.21070861816406 92.53548431396484 126.31727600097656" stroke-width="3.0" fill="none" stroke="rgb(0, 0, 0)" stroke-opacity="1.0" stroke-linecap="round" stroke-linejoin="round"/>
    <path d="M 134.40245056152344 103.57179260253906 C 146.04476928710938 143.4609375 153.97618103027344 89.45762634277344 117.31148529052734 105.2851791381836" stroke-width="3.0" fill="none" stroke="rgb(0, 0, 0)" stroke-opacity="1.0" stroke-linecap="round" stroke-linejoin="round"/>
    <path d="M 129.3638153076172 135.3035125732422 C 149.2591094970703 192.3420867919922 129.78054809570312 136.5076141357422 137.17164611816406 101.65803527832031" stroke-width="3.0" fill="none" stroke="rgb(0, 0, 0)" stroke-opacity="1.0" stroke-linecap="round" stroke-linejoin="round"/>
    <path d="M 96.033203125 148.86328125 C 84.59003448486328 173.88584899902344 127.39002990722656 161.7347869873047 100.77299499511719 171.9009552001953" stroke-width="3.0" fill="none" stroke="rgb(0, 0, 0)" stroke-opacity="1.0" stroke-linecap="round" stroke-linejoin="round"/>
    <path d="M 70.8655776977539 136.0515594482422 C 146.17266845703125 132.71556091308594 141.3726348876953 140.63587951660156 142.34495544433594 115.41111755371094" stroke-width="3.0" fill="none" stroke="rgb(0, 0, 0)" stroke-opacity="1.0" stroke-linecap="round" stroke-linejoin="round"/>
    <path d="M 140.6433563232422 104.10623168945312 C 91.57181549072266 111.95854949951172 102.01844024658203 83.13317108154297 75.62862396240234 118.72686767578125" stroke-width="3.0" fill="none" stroke="rgb(0, 0, 0)" stroke-opacity="1.0" stroke-linecap="round" stroke-linejoin="round"/>
    <path d="M 143.45680236816406 105.48509979248047 C 152.21737670898438 139.51129150390625 123.38612365722656 138.3697967529297 137.05349731445312 120.3681869506836" stroke-width="3.0" fill="none" stroke="rgb(0, 0, 0)" stroke-opacity="1.0" stroke-linecap="round" stroke-linejoin="round"/>
    <path d="M 81.97844696044922 88.34276580810547 C 41.96590805053711 73.34622192382812 58.0324592590332 83.3323745727539 81.6707992553711 107.55530548095703" stroke-width="3.0" fill="none" stroke="rgb(0, 0, 0)" stroke-opacity="1.0" stroke-linecap="round" stroke-linejoin="round"/>
    <path d="M 75.61361694335938 134.70140075683594 C 115.9234848022461 121.34408569335938 99.73397827148438 131.4996337890625 96.96147918701172 119.04447174072266" stroke-width="3.0" fill="none" stroke="rgb(0, 0, 0)" stroke-opacity="1.0" stroke-linecap="round" stroke-linejoin="round"/>
    <path d="M 55.334754943847656 75.34973907470703 C 26.181123733520508 101.3388900756836 41.75752258300781 108.8363037109375 60.07279586791992 69.92374420166016" stroke-width="3.0" fill="none" stroke="rgb(0, 0, 0)" stroke-opacity="1.0" stroke-linecap="round" stroke-linejoin="round"/>
    <path d="M 82.82498168945312 171.48101806640625 C 92.57740020751953 157.41619873046875 37.97843551635742 142.73150634765625 75.00253295898438 130.4228057861328" stroke-width="3.0" fill="none" stroke="rgb(0, 0, 0)" stroke-opacity="1.0" stroke-linecap="round" stroke-linejoin="round"/>
    <path d="M 174.08731079101562 115.59593200683594 C 166.2254180908203 108.32112884521484 163.70118713378906 85.94729614257812 152.56398010253906 107.77555084228516" stroke-width="3.0" fill="none" stroke="rgb(0, 0, 0)" stroke-opacity="1.0" stroke-linecap="round" stroke-linejoin="round"/>
    <path d="M 114.13399505615234 142.1297149658203 C 143.48875427246094 104.39865112304688 128.83511352539062 95.71532440185547 119.15943145751953 136.6335906982422" stroke-width="3.0" fill="none" stroke="rgb(0, 0, 0)" stroke-opacity="1.0" stroke-linecap="round" stroke-linejoin="round"/>
    <path d="M 55.094234466552734 81.59114074707031 C 111.39171600341797 111.116455078125 72.71215057373047 119.93932342529297 66.15859985351562 81.71867370605469" stroke-width="3.0" fill="none" stroke="rgb(0, 0, 0)" stroke-opacity="1.0" stroke-linecap="round" stroke-linejoin="round"/>
    <path d="M 139.18447875976562 110.83292388916016 C 150.53085327148438 133.40213012695312 126.69707489013672 117.3363265991211 125.10714721679688 135.2496337890625" stroke-width="3.0" fill="none" stroke="rgb(0, 0, 0)" stroke-opacity="1.0" stroke-linecap="round" stroke-linejoin="round"/>
    <path d="M 68.45573425292969 84.1073989868164 C 122.15411376953125 107.44108581542969 104.32979583740234 92.67156982421875 74.46060180664062 106.36140441894531" stroke-width="3.0" fill="none" stroke="rgb(0, 0, 0)" stroke-opacity="1.0" stroke-linecap="round" stroke-linejoin="round"/>
    <path d="M 139.69223022460938 105.24404907226562 C 160.51158142089844 131.83567810058594 140.64666748046875 113.70982360839844 134.13282775878906 102.47032165527344" stroke-width="3.0" fill="none" stroke="rgb(0, 0, 0)" stroke-opacity="1.0" stroke-linecap="round" stroke-linejoin="round"/>
    <path d="M 60.63047790527344 78.1378402709961 C 23.647319793701172 104.96472930908203 59.44695281982422 80.00409698486328 78.47311401367188 84.03742218017578" stroke-width="3.0" fill="none" stroke="rgb(0, 0, 0)" stroke-opacity="1.0" stroke-linecap="round" stroke-linejoin="round"/>
    <path d="M 117.49122619628906 104.44107055664062 C 139.37911987304688 145.90304565429688 164.043701171875 114.15930938720703 127.0934066772461 135.61856079101562" stroke-width="3.0" fill="none" stroke="rgb(0, 0, 0)" stroke-opacity="1.0" stroke-linecap="round" stroke-linejoin="round"/>
    <path d="M 119.073974609375 143.7162322998047 C 138.53648376464844 108.23546600341797 127.14065551757812 128.13072204589844 119.45474243164062 135.68890380859375" stroke-width="3.0" fill="none" stroke="rgb(0, 0, 0)" stroke-opacity="1.0" stroke-linecap="round" stroke-linejoin="round"/>
    <path d="M 135.0056610107422 129.8843536376953 C 136.28004455566406 127.56522369384766 149.8890380859375 103.03616333007812 141.42919921875 117.12030029296875" stroke-width="3.0" fill="none" stroke="rgb(0, 0, 0)" stroke-opacity="1.0" stroke-linecap="round" stroke-linejoin="round"/>
    <path d="M 123.47392272949219 108.04013061523438 C 139.3898162841797 188.348876953125 164.9449462890625 130.30807495117188 109.21895599365234 173.5478973388672" stroke-width="3.0" fill="none" stroke="rgb(0, 0, 0)" stroke-opacity="1.0" stroke-linecap="round" stroke-linejoin="round"/>
    <path d="M 201.18516540527344 133.04360961914062 C 164.22274780273438 124.09428405761719 150.93304443359375 86.72845458984375 187.14097595214844 126.96990966796875" stroke-width="3.0" fill="none" stroke="rgb(0, 0, 0)" stroke-opacity="1.0" stroke-linecap="round" stroke-linejoin="round"/>
    <path d="M 139.945556640625 116.69679260253906 C 105.26161193847656 88.1573257446289 153.1280059814453 94.69810485839844 151.25408935546875 122.1435317993164" stroke-width="3.0" fill="none" stroke="rgb(0, 0, 0)" stroke-opacity="1.0" stroke-linecap="round" stroke-linejoin="round"/>
    <path d="M 61.800540924072266 85.72601318359375 C 44.37577438354492 72.56251525878906 76.52991485595703 85.48762512207031 73.6864242553711 121.50943756103516" stroke-width="3.0" fill="none" stroke="rgb(0, 0, 0)" stroke-opacity="1.0" stroke-linecap="round" stroke-linejoin="round"/>
    <path d="M 77.38764953613281 133.03817749023438 C 152.69285583496094 126.64491271972656 99.94361877441406 138.52389526367188 93.51000213623047 122.18328094482422" stroke-width="3.0" fill="none" stroke="rgb(0, 0, 0)" stroke-opacity="1.0" stroke-linecap="round" stroke-linejoin="round"/>
    <path d="M 56.476558685302734 72.17826080322266 C 97.76014709472656 66.4701919555664 94.91241455078125 119.5480728149414 75.72772979736328 80.86453247070312" stroke-width="3.0" fill="none" stroke="rgb(0, 0, 0)" stroke-opacity="1.0" stroke-linecap="round" stroke-linejoin="round"/>
    <path d="M 137.97218322753906 121.0079345703125 C 143.93862915039062 122.13024139404297 120.222900390625 98.46156311035156 117.89845275878906 140.97511291503906" stroke-width="3.0" fill="none" stroke="rgb(0, 0, 0)" stroke-opacity="1.0" stroke-linecap="round" stroke-linejoin="round"/>
    <path d="M 159.34571838378906 100.21216583251953 C 179.63966369628906 130.97508239746094 200.30276489257812 139.2500457763672 157.812744140625 102.25308990478516" stroke-width="3.0" fill="none" stroke="rgb(0, 0, 0)" stroke-opacity="1.0" stroke-linecap="round" stroke-linejoin="round"/>
    <path d="M 42.17118835449219 91.26153564453125 C 63.787925720214844 95.82696533203125 51.75624465942383 77.75080108642578 75.3734359741211 81.8444595336914" stroke-width="3.0" fill="none" stroke="rgb(0, 0, 0)" stroke-opacity="1.0" stroke-linecap="round" stroke-linejoin="round"/>
    <path d="M 61.664974212646484 75.60990905761719 C 43.474754333496094 104.47303009033203 42.70756530761719 80.47936248779297 54.51424026489258 81.30738830566406" stroke-width="3.0" fill="none" stroke="rgb(0, 0, 0)" stroke-opacity="1.0" stroke-linecap="round" stroke-linejoin="round"/>
  </g>
</svg>
