<?xml version="1.0" ?>
<svg xmlns="http://www.w3.org/2000/svg" version="1.1" width="224" height="224">
  <defs/>
  <g>
    <path d="M 128.95628356933594 112.71629333496094 C 94.31340026855469 100.5823974609375 98.33421325683594 107.34054565429688 136.9437713623047 100.43898010253906" stroke-width="3.0" fill="none" stroke="rgb(0, 0, 0)" stroke-opacity="1.0" stroke-linecap="round" stroke-linejoin="round"/>
    <path d="M 162.65536499023438 108.28148651123047 C 163.47750854492188 129.97703552246094 219.00985717773438 129.03424072265625 196.5154266357422 132.36656188964844" stroke-width="3.0" fill="none" stroke="rgb(0, 0, 0)" stroke-opacity="1.0" stroke-linecap="round" stroke-linejoin="round"/>
    <path d="M 145.9881134033203 128.79034423828125 C 134.57041931152344 95.06859588623047 129.33139038085938 114.24613952636719 152.7106170654297 143.94534301757812" stroke-width="3.0" fill="none" stroke="rgb(0, 0, 0)" stroke-opacity="1.0" stroke-linecap="round" stroke-linejoin="round"/>
    <path d="M 140.77735900878906 126.4259262084961 C 118.64315032958984 104.50584411621094 110.19351196289062 123.30564880371094 158.23284912109375 102.52831268310547" stroke-width="3.0" fill="none" stroke="rgb(0, 0, 0)" stroke-opacity="1.0" stroke-linecap="round" stroke-linejoin="round"/>
    <path d="M 126.37213897705078 120.10448455810547 C 115.58155059814453 95.89103698730469 87.5847396850586 92.64481353759766 71.2698974609375 128.92068481445312" stroke-width="3.0" fill="none" stroke="rgb(0, 0, 0)" stroke-opacity="1.0" stroke-linecap="round" stroke-linejoin="round"/>
    <path d="M 135.5780029296875 103.21292114257812 C 137.747802734375 121.85993194580078 154.3019561767578 112.8482666015625 133.16464233398438 105.52161407470703" stroke-width="3.0" fill="none" stroke="rgb(0, 0, 0)" stroke-opacity="1.0" stroke-linecap="round" stroke-linejoin="round"/>
    <path d="M 81.97171783447266 131.96762084960938 C 54.17191696166992 110.14576721191406 96.15802001953125 119.01419067382812 63.23835754394531 81.43766021728516" stroke-width="3.0" fill="none" stroke="rgb(0, 0, 0)" stroke-opacity="1.0" stroke-linecap="round" stroke-linejoin="round"/>
    <path d="M 151.79164123535156 141.22640991210938 C 112.03665924072266 140.60787963867188 204.1044921875 156.4646759033203 142.91268920898438 139.6444854736328" stroke-width="3.0" fill="none" stroke="rgb(0, 0, 0)" stroke-opacity="1.0" stroke-linecap="round" stroke-linejoin="round"/>
    <path d="M 184.21571350097656 162.98895263671875 C 185.4698944091797 145.40731811523438 186.5503692626953 168.79664611816406 162.02273559570312 145.67185974121094" stroke-width="3.0" fill="none" stroke="rgb(0, 0, 0)" stroke-opacity="1.0" stroke-linecap="round" stroke-linejoin="round"/>
    <path d="M 148.09091186523438 115.8087387084961 C 128.60789489746094 84.32787322998047 138.9052734375 111.80645751953125 114.75260925292969 135.56800842285156" stroke-width="3.0" fill="none" stroke="rgb(0, 0, 0)" stroke-opacity="1.0" stroke-linecap="round" stroke-linejoin="round"/>
    <path d="M 133.39781188964844 139.6966094970703 C 151.00393676757812 122.0684814453125 159.26779174804688 109.5987319946289 142.9427947998047 142.13165283203125" stroke-width="3.0" fill="none" stroke="rgb(0, 0, 0)" stroke-opacity="1.0" stroke-linecap="round" stroke-linejoin="round"/>
    <path d="M 129.06805419921875 99.53308868408203 C 105.80835723876953 102.84207153320312 118.113525390625 110.5981216430664 94.18708801269531 104.76531982421875" stroke-width="3.0" fill="none" stroke="rgb(0, 0, 0)" stroke-opacity="1.0" stroke-linecap="round" stroke-linejoin="round"/>
    <path d="M 126.57130432128906 114.09510040283203 C 158.32565307617188 103.38742065429688 135.3307342529297 101.9061050415039 118.02472686767578 143.08563232421875" stroke-width="3.0" fill="none" stroke="rgb(0, 0, 0)" stroke-opacity="1.0" stroke-linecap="round" stroke-linejoin="round"/>
    <path d="M 97.97286987304688 148.94053649902344 C 141.93763732910156 142.26954650878906 148.77369689941406 91.81696319580078 131.3981170654297 158.23361206054688" stroke-width="3.0" fill="none" stroke="rgb(0, 0, 0)" stroke-opacity="1.0" stroke-linecap="round" stroke-linejoin="round"/>
    <path d="M 79.19822692871094 83.35653686523438 C 27.245586395263672 72.43053436279297 40.06295394897461 91.35399627685547 64.88728332519531 88.46693420410156" stroke-width="3.0" fill="none" stroke="rgb(0, 0, 0)" stroke-opacity="1.0" stroke-linecap="round" stroke-linejoin="round"/>
    <path d="M 53.613800048828125 71.67796325683594 C 67.3375015258789 89.97604370117188 85.7854232788086 65.61904907226562 83.01919555664062 102.62898254394531" stroke-width="3.0" fill="none" stroke="rgb(0, 0, 0)" stroke-opacity="1.0" stroke-linecap="round" stroke-linejoin="round"/>
    <path d="M 65.39984130859375 81.45285034179688 C 55.55207824707031 65.65272521972656 41.906646728515625 97.16842651367188 61.924808502197266 88.09961700439453" stroke-width="3.0" fill="none" stroke="rgb(0, 0, 0)" stroke-opacity="1.0" stroke-linecap="round" stroke-linejoin="round"/>
    <path d="M 62.42662048339844 142.3956756591797 C 85.79161071777344 126.05632781982422 82.4292984008789 143.28866577148438 96.83808898925781 129.03372192382812" stroke-width="3.0" fill="none" stroke="rgb(0, 0, 0)" stroke-opacity="1.0" stroke-linecap="round" stroke-linejoin="round"/>
    <path d="M 127.99116516113281 102.75054931640625 C 152.54481506347656 136.49058532714844 155.0761260986328 94.55574798583984 116.28873443603516 106.63827514648438" stroke-width="3.0" fill="none" stroke="rgb(0, 0, 0)" stroke-opacity="1.0" stroke-linecap="round" stroke-linejoin="round"/>
    <path d="M 132.4167938232422 140.55075073242188 C 144.60528564453125 177.61058044433594 120.5859603881836 142.0831756591797 138.22747802734375 106.26472473144531" stroke-width="3.0" fill="none" stroke="rgb(0, 0, 0)" stroke-opacity="1.0" stroke-linecap="round" stroke-linejoin="round"/>
    <path d="M 96.59674835205078 149.98406982421875 C 84.7150650024414 170.58633422851562 114.31942749023438 163.53318786621094 101.72762298583984 170.5320587158203" stroke-width="3.0" fill="none" stroke="rgb(0, 0, 0)" stroke-opacity="1.0" stroke-linecap="round" stroke-linejoin="round"/>
    <path d="M 73.28922271728516 132.43670654296875 C 136.9856414794922 134.07093811035156 137.48681640625 141.96861267089844 143.19448852539062 117.159912109375" stroke-width="3.0" fill="none" stroke="rgb(0, 0, 0)" stroke-opacity="1.0" stroke-linecap="round" stroke-linejoin="round"/>
    <path d="M 135.51358032226562 99.66517639160156 C 94.76921844482422 108.5838851928711 94.76606750488281 92.11748504638672 77.50485229492188 110.7114486694336" stroke-width="3.0" fill="none" stroke="rgb(0, 0, 0)" stroke-opacity="1.0" stroke-linecap="round" stroke-linejoin="round"/>
    <path d="M 145.61273193359375 112.69267272949219 C 151.4794921875 141.87075805664062 135.99871826171875 124.63198852539062 147.791748046875 119.48014068603516" stroke-width="3.0" fill="none" stroke="rgb(0, 0, 0)" stroke-opacity="1.0" stroke-linecap="round" stroke-linejoin="round"/>
    <path d="M 56.09251403808594 77.72640991210938 C 41.4425163269043 81.55772399902344 75.66706848144531 74.15107727050781 102.28694915771484 104.18122863769531" stroke-width="3.0" fill="none" stroke="rgb(0, 0, 0)" stroke-opacity="1.0" stroke-linecap="round" stroke-linejoin="round"/>
    <path d="M 97.0911636352539 130.0290069580078 C 105.8233871459961 130.80398559570312 83.00013732910156 137.90318298339844 97.36099243164062 126.97789001464844" stroke-width="3.0" fill="none" stroke="rgb(0, 0, 0)" stroke-opacity="1.0" stroke-linecap="round" stroke-linejoin="round"/>
    <path d="M 57.91762924194336 70.60018920898438 C 27.408456802368164 107.35575866699219 36.1955680847168 107.00114440917969 59.19180679321289 76.93812561035156" stroke-width="3.0" fill="none" stroke="rgb(0, 0, 0)" stroke-opacity="1.0" stroke-linecap="round" stroke-linejoin="round"/>
    <path d="M 77.31988525390625 164.50323486328125 C 88.37874603271484 160.57525634765625 36.49110412597656 140.51708984375 81.83204650878906 132.1143341064453" stroke-width="3.0" fill="none" stroke="rgb(0, 0, 0)" stroke-opacity="1.0" stroke-linecap="round" stroke-linejoin="round"/>
    <path d="M 184.31515502929688 123.61770629882812 C 166.2425537109375 111.57259368896484 165.33375549316406 88.42253112792969 151.8990478515625 107.1490249633789" stroke-width="3.0" fill="none" stroke="rgb(0, 0, 0)" stroke-opacity="1.0" stroke-linecap="round" stroke-linejoin="round"/>
    <path d="M 123.44482421875 119.9645004272461 C 131.4452667236328 101.48399353027344 126.37821197509766 94.59210205078125 120.30644226074219 134.555908203125" stroke-width="3.0" fill="none" stroke="rgb(0, 0, 0)" stroke-opacity="1.0" stroke-linecap="round" stroke-linejoin="round"/>
    <path d="M 62.121826171875 82.5016098022461 C 99.33956146240234 102.06804656982422 58.454559326171875 117.59465789794922 92.36027526855469 96.5481185913086" stroke-width="3.0" fill="none" stroke="rgb(0, 0, 0)" stroke-opacity="1.0" stroke-linecap="round" stroke-linejoin="round"/>
    <path d="M 134.9434814453125 114.6250228881836 C 141.77076721191406 143.40184020996094 116.9919204711914 132.61656188964844 113.58342742919922 143.4379425048828" stroke-width="3.0" fill="none" stroke="rgb(0, 0, 0)" stroke-opacity="1.0" stroke-linecap="round" stroke-linejoin="round"/>
    <path d="M 84.12871551513672 90.96316528320312 C 119.23369598388672 120.68251037597656 113.71318817138672 103.57986450195312 85.54010772705078 90.51692962646484" stroke-width="3.0" fill="none" stroke="rgb(0, 0, 0)" stroke-opacity="1.0" stroke-linecap="round" stroke-linejoin="round"/>
    <path d="M 126.5731201171875 120.70178985595703 C 141.5644989013672 145.0478057861328 123.17185974121094 127.68238830566406 124.51262664794922 103.58161163330078" stroke-width="3.0" fill="none" stroke="rgb(0, 0, 0)" stroke-opacity="1.0" stroke-linecap="round" stroke-linejoin="round"/>
    <path d="M 62.409061431884766 81.16187286376953 C 38.37784194946289 107.41068267822266 60.496803283691406 83.2218246459961 70.7065200805664 87.24179077148438" stroke-width="3.0" fill="none" stroke="rgb(0, 0, 0)" stroke-opacity="1.0" stroke-linecap="round" stroke-linejoin="round"/>
    <path d="M 127.17106628417969 101.00337219238281 C 141.02325439453125 128.8819580078125 163.18447875976562 112.47702026367188 133.11927795410156 135.54092407226562" stroke-width="3.0" fill="none" stroke="rgb(0, 0, 0)" stroke-opacity="1.0" stroke-linecap="round" stroke-linejoin="round"/>
    <path d="M 123.65819549560547 133.1313934326172 C 149.39431762695312 115.92485809326172 136.688720703125 139.29965209960938 116.25704193115234 129.87171936035156" stroke-width="3.0" fill="none" stroke="rgb(0, 0, 0)" stroke-opacity="1.0" stroke-linecap="round" stroke-linejoin="round"/>
    <path d="M 146.62359619140625 110.76322937011719 C 126.69939422607422 116.14212799072266 139.38009643554688 99.20323944091797 148.3031005859375 124.21736145019531" stroke-width="3.0" fill="none" stroke="rgb(0, 0, 0)" stroke-opacity="1.0" stroke-linecap="round" stroke-linejoin="round"/>
    <path d="M 132.0626220703125 107.18036651611328 C 137.97723388671875 181.21511840820312 149.86343383789062 137.4324493408203 110.3607177734375 173.31932067871094" stroke-width="3.0" fill="none" stroke="rgb(0, 0, 0)" stroke-opacity="1.0" stroke-linecap="round" stroke-linejoin="round"/>
    <path d="M 200.66148376464844 134.80099487304688 C 161.20175170898438 121.3970947265625 151.64996337890625 88.51094055175781 181.74423217773438 123.63945770263672" stroke-width="3.0" fill="none" stroke="rgb(0, 0, 0)" stroke-opacity="1.0" stroke-linecap="round" stroke-linejoin="round"/>
    <path d="M 133.74244689941406 117.64189910888672 C 105.8379898071289 90.59217071533203 154.25137329101562 93.64130401611328 150.6380157470703 123.13511657714844" stroke-width="3.0" fill="none" stroke="rgb(0, 0, 0)" stroke-opacity="1.0" stroke-linecap="round" stroke-linejoin="round"/>
    <path d="M 63.262359619140625 84.98417663574219 C 44.93327713012695 76.14674377441406 78.81266784667969 85.77871704101562 73.75857543945312 123.76962280273438" stroke-width="3.0" fill="none" stroke="rgb(0, 0, 0)" stroke-opacity="1.0" stroke-linecap="round" stroke-linejoin="round"/>
    <path d="M 88.0156021118164 138.26637268066406 C 132.95468139648438 131.81173706054688 97.3809814453125 139.00672912597656 95.61312866210938 120.75574493408203" stroke-width="3.0" fill="none" stroke="rgb(0, 0, 0)" stroke-opacity="1.0" stroke-linecap="round" stroke-linejoin="round"/>
    <path d="M 56.420379638671875 72.96415710449219 C 97.96121215820312 70.28688049316406 99.51663970947266 111.93762969970703 73.9020767211914 80.77628326416016" stroke-width="3.0" fill="none" stroke="rgb(0, 0, 0)" stroke-opacity="1.0" stroke-linecap="round" stroke-linejoin="round"/>
    <path d="M 139.258544921875 118.98726654052734 C 147.70005798339844 124.14362335205078 130.2721405029297 106.40701293945312 120.5009765625 136.49302673339844" stroke-width="3.0" fill="none" stroke="rgb(0, 0, 0)" stroke-opacity="1.0" stroke-linecap="round" stroke-linejoin="round"/>
    <path d="M 158.35179138183594 101.59512329101562 C 192.0480194091797 121.26747131347656 199.35507202148438 143.4259796142578 167.75238037109375 112.95008850097656" stroke-width="3.0" fill="none" stroke="rgb(0, 0, 0)" stroke-opacity="1.0" stroke-linecap="round" stroke-linejoin="round"/>
    <path d="M 41.92231750488281 90.5780258178711 C 59.99864196777344 98.36852264404297 52.469303131103516 89.13970947265625 72.02383422851562 81.26813507080078" stroke-width="3.0" fill="none" stroke="rgb(0, 0, 0)" stroke-opacity="1.0" stroke-linecap="round" stroke-linejoin="round"/>
    <path d="M 65.52761840820312 80.4056396484375 C 44.326847076416016 104.60295104980469 47.6234016418457 83.42998504638672 67.21723937988281 74.24686431884766" stroke-width="3.0" fill="none" stroke="rgb(0, 0, 0)" stroke-opacity="1.0" stroke-linecap="round" stroke-linejoin="round"/>
  </g>
</svg>
