<?xml version="1.0" ?>
<svg xmlns="http://www.w3.org/2000/svg" version="1.1" width="224" height="224">
  <defs/>
  <g>
    <path d="M 157.33541870117188 108.93746948242188 C 130.58956909179688 92.25654602050781 79.65779113769531 110.74420166015625 133.44992065429688 99.76302337646484" stroke-width="3.0" fill="none" stroke="rgb(0, 0, 0)" stroke-opacity="1.0" stroke-linecap="round" stroke-linejoin="round"/>
    <path d="M 156.3928985595703 107.56262969970703 C 158.19688415527344 131.68682861328125 255.72579956054688 149.12149047851562 176.4449920654297 126.03071594238281" stroke-width="3.0" fill="none" stroke="rgb(0, 0, 0)" stroke-opacity="1.0" stroke-linecap="round" stroke-linejoin="round"/>
    <path d="M 147.301025390625 142.65992736816406 C 127.63397216796875 84.13463592529297 104.22443389892578 144.80625915527344 162.7592010498047 145.9171905517578" stroke-width="3.0" fill="none" stroke="rgb(0, 0, 0)" stroke-opacity="1.0" stroke-linecap="round" stroke-linejoin="round"/>
    <path d="M 139.24879455566406 149.50030517578125 C 113.93414306640625 73.77064514160156 135.34506225585938 137.51185607910156 144.75579833984375 104.57402801513672" stroke-width="3.0" fill="none" stroke="rgb(0, 0, 0)" stroke-opacity="1.0" stroke-linecap="round" stroke-linejoin="round"/>
    <path d="M 129.90748596191406 122.49869537353516 C 131.88998413085938 86.82113647460938 53.52809524536133 98.80791473388672 74.36605072021484 131.0885772705078" stroke-width="3.0" fill="none" stroke="rgb(0, 0, 0)" stroke-opacity="1.0" stroke-linecap="round" stroke-linejoin="round"/>
    <path d="M 95.73262786865234 142.5329132080078 C 116.39432525634766 136.8468780517578 142.1424560546875 106.17166137695312 121.4477767944336 101.73812103271484" stroke-width="3.0" fill="none" stroke="rgb(0, 0, 0)" stroke-opacity="1.0" stroke-linecap="round" stroke-linejoin="round"/>
    <path d="M 83.58546447753906 129.72055053710938 C 47.97358703613281 143.11212158203125 123.26009368896484 78.0025863647461 50.886104583740234 78.95765686035156" stroke-width="3.0" fill="none" stroke="rgb(0, 0, 0)" stroke-opacity="1.0" stroke-linecap="round" stroke-linejoin="round"/>
    <path d="M 145.51864624023438 112.36570739746094 C 147.357421875 169.25413513183594 240.63693237304688 172.30258178710938 144.49188232421875 144.038330078125" stroke-width="3.0" fill="none" stroke="rgb(0, 0, 0)" stroke-opacity="1.0" stroke-linecap="round" stroke-linejoin="round"/>
    <path d="M 180.86737060546875 158.97581481933594 C 179.08837890625 139.77894592285156 207.80789184570312 191.8648223876953 158.8470458984375 135.3169403076172" stroke-width="3.0" fill="none" stroke="rgb(0, 0, 0)" stroke-opacity="1.0" stroke-linecap="round" stroke-linejoin="round"/>
    <path d="M 138.57786560058594 123.48037719726562 C 110.27277374267578 75.24759674072266 151.51625061035156 121.35222625732422 114.15362548828125 131.7419891357422" stroke-width="3.0" fill="none" stroke="rgb(0, 0, 0)" stroke-opacity="1.0" stroke-linecap="round" stroke-linejoin="round"/>
    <path d="M 135.09176635742188 139.01852416992188 C 142.53085327148438 108.75813293457031 152.72793579101562 83.13339233398438 131.91127014160156 155.67123413085938" stroke-width="3.0" fill="none" stroke="rgb(0, 0, 0)" stroke-opacity="1.0" stroke-linecap="round" stroke-linejoin="round"/>
    <path d="M 150.69114685058594 110.87034606933594 C 77.35456085205078 95.40290832519531 81.64196014404297 96.75186920166016 63.08000183105469 80.83926391601562" stroke-width="3.0" fill="none" stroke="rgb(0, 0, 0)" stroke-opacity="1.0" stroke-linecap="round" stroke-linejoin="round"/>
    <path d="M 123.19569396972656 107.8270263671875 C 135.14556884765625 90.76914978027344 141.36940002441406 108.4114761352539 130.3391571044922 130.915771484375" stroke-width="3.0" fill="none" stroke="rgb(0, 0, 0)" stroke-opacity="1.0" stroke-linecap="round" stroke-linejoin="round"/>
    <path d="M 100.85527038574219 148.07513427734375 C 149.35055541992188 141.486083984375 152.3662872314453 73.9759750366211 138.63426208496094 154.09222412109375" stroke-width="3.0" fill="none" stroke="rgb(0, 0, 0)" stroke-opacity="1.0" stroke-linecap="round" stroke-linejoin="round"/>
    <path d="M 83.94269561767578 87.8853759765625 C 61.59516906738281 58.59458923339844 24.178537368774414 124.66024017333984 53.9144401550293 86.41598510742188" stroke-width="3.0" fill="none" stroke="rgb(0, 0, 0)" stroke-opacity="1.0" stroke-linecap="round" stroke-linejoin="round"/>
    <path d="M 65.2667465209961 73.50513458251953 C 71.58583068847656 79.01670837402344 85.85953521728516 83.28028106689453 86.99449920654297 105.52344512939453" stroke-width="3.0" fill="none" stroke="rgb(0, 0, 0)" stroke-opacity="1.0" stroke-linecap="round" stroke-linejoin="round"/>
    <path d="M 79.21187591552734 111.73382568359375 C 54.104591369628906 62.73544692993164 7.345809459686279 80.41063690185547 87.80862426757812 93.63207244873047" stroke-width="3.0" fill="none" stroke="rgb(0, 0, 0)" stroke-opacity="1.0" stroke-linecap="round" stroke-linejoin="round"/>
    <path d="M 81.27934265136719 162.43380737304688 C 35.02059555053711 118.84701538085938 73.1146469116211 148.85829162597656 95.26637268066406 119.00135040283203" stroke-width="3.0" fill="none" stroke="rgb(0, 0, 0)" stroke-opacity="1.0" stroke-linecap="round" stroke-linejoin="round"/>
    <path d="M 130.96287536621094 120.24750518798828 C 162.33790588378906 162.87167358398438 166.64828491210938 76.22154235839844 111.99491119384766 104.37642669677734" stroke-width="3.0" fill="none" stroke="rgb(0, 0, 0)" stroke-opacity="1.0" stroke-linecap="round" stroke-linejoin="round"/>
    <path d="M 132.59536743164062 104.8510513305664 C 134.13845825195312 196.58555603027344 161.5428466796875 92.24893188476562 131.72048950195312 105.77798461914062" stroke-width="3.0" fill="none" stroke="rgb(0, 0, 0)" stroke-opacity="1.0" stroke-linecap="round" stroke-linejoin="round"/>
    <path d="M 98.61573028564453 149.42929077148438 C 82.55692291259766 166.87588500976562 121.13497924804688 179.18560791015625 99.1961669921875 163.55645751953125" stroke-width="3.0" fill="none" stroke="rgb(0, 0, 0)" stroke-opacity="1.0" stroke-linecap="round" stroke-linejoin="round"/>
    <path d="M 76.51859283447266 126.85607147216797 C 133.776611328125 145.3771514892578 137.13232421875 123.6134262084961 142.56991577148438 114.49873352050781" stroke-width="3.0" fill="none" stroke="rgb(0, 0, 0)" stroke-opacity="1.0" stroke-linecap="round" stroke-linejoin="round"/>
    <path d="M 130.12710571289062 101.6810531616211 C 83.2302017211914 116.7171401977539 106.42948913574219 66.4431381225586 72.78135681152344 116.51097106933594" stroke-width="3.0" fill="none" stroke="rgb(0, 0, 0)" stroke-opacity="1.0" stroke-linecap="round" stroke-linejoin="round"/>
    <path d="M 137.2801513671875 104.62232208251953 C 163.6315155029297 120.794921875 130.40908813476562 142.7611541748047 161.97598266601562 144.18243408203125" stroke-width="3.0" fill="none" stroke="rgb(0, 0, 0)" stroke-opacity="1.0" stroke-linecap="round" stroke-linejoin="round"/>
    <path d="M 76.30007934570312 114.66852569580078 C 53.69508361816406 67.59464263916016 68.08673095703125 80.07456970214844 94.12158966064453 101.64447021484375" stroke-width="3.0" fill="none" stroke="rgb(0, 0, 0)" stroke-opacity="1.0" stroke-linecap="round" stroke-linejoin="round"/>
    <path d="M 71.53711700439453 124.72715759277344 C 127.2271957397461 133.9639892578125 101.19283294677734 139.4174346923828 94.31234741210938 124.45862579345703" stroke-width="3.0" fill="none" stroke="rgb(0, 0, 0)" stroke-opacity="1.0" stroke-linecap="round" stroke-linejoin="round"/>
    <path d="M 57.80018997192383 83.99635314941406 C 23.826101303100586 93.37811279296875 50.7327766418457 101.37152862548828 58.14704513549805 71.77997589111328" stroke-width="3.0" fill="none" stroke="rgb(0, 0, 0)" stroke-opacity="1.0" stroke-linecap="round" stroke-linejoin="round"/>
    <path d="M 83.43594360351562 170.8828582763672 C 107.84354400634766 159.16140747070312 22.228479385375977 141.16847229003906 94.52873992919922 124.59477233886719" stroke-width="3.0" fill="none" stroke="rgb(0, 0, 0)" stroke-opacity="1.0" stroke-linecap="round" stroke-linejoin="round"/>
    <path d="M 183.91029357910156 126.06537628173828 C 160.61500549316406 109.98359680175781 166.45262145996094 89.44514465332031 144.23660278320312 104.31745910644531" stroke-width="3.0" fill="none" stroke="rgb(0, 0, 0)" stroke-opacity="1.0" stroke-linecap="round" stroke-linejoin="round"/>
    <path d="M 112.92776489257812 136.84542846679688 C 179.53753662109375 116.78669738769531 152.65628051757812 106.33048248291016 119.06632995605469 138.7935028076172" stroke-width="3.0" fill="none" stroke="rgb(0, 0, 0)" stroke-opacity="1.0" stroke-linecap="round" stroke-linejoin="round"/>
    <path d="M 64.4574203491211 71.5851821899414 C 95.66101837158203 123.67820739746094 87.2588119506836 121.21945190429688 59.35282897949219 73.39085388183594" stroke-width="3.0" fill="none" stroke="rgb(0, 0, 0)" stroke-opacity="1.0" stroke-linecap="round" stroke-linejoin="round"/>
    <path d="M 127.96784973144531 115.77889251708984 C 148.4250030517578 115.30757904052734 146.32652282714844 111.21056365966797 116.16456604003906 134.91184997558594" stroke-width="3.0" fill="none" stroke="rgb(0, 0, 0)" stroke-opacity="1.0" stroke-linecap="round" stroke-linejoin="round"/>
    <path d="M 77.6814956665039 81.58406829833984 C 102.28450775146484 124.72624206542969 74.15185546875 96.73294830322266 71.9220199584961 101.86394500732422" stroke-width="3.0" fill="none" stroke="rgb(0, 0, 0)" stroke-opacity="1.0" stroke-linecap="round" stroke-linejoin="round"/>
    <path d="M 114.36101531982422 133.10479736328125 C 117.25973510742188 166.75732421875 140.0640411376953 111.55937957763672 133.53123474121094 103.6861801147461" stroke-width="3.0" fill="none" stroke="rgb(0, 0, 0)" stroke-opacity="1.0" stroke-linecap="round" stroke-linejoin="round"/>
    <path d="M 64.58793640136719 72.3077163696289 C 31.065004348754883 112.39524841308594 82.80120849609375 58.02552032470703 76.4024429321289 117.75379943847656" stroke-width="3.0" fill="none" stroke="rgb(0, 0, 0)" stroke-opacity="1.0" stroke-linecap="round" stroke-linejoin="round"/>
    <path d="M 133.1785125732422 117.67507934570312 C 86.2769546508789 154.03073120117188 135.34812927246094 102.27117919921875 116.31525421142578 129.79185485839844" stroke-width="3.0" fill="none" stroke="rgb(0, 0, 0)" stroke-opacity="1.0" stroke-linecap="round" stroke-linejoin="round"/>
    <path d="M 124.12435150146484 137.5867919921875 C 143.59384155273438 101.08820343017578 139.6221160888672 123.18013000488281 131.13333129882812 102.41903686523438" stroke-width="3.0" fill="none" stroke="rgb(0, 0, 0)" stroke-opacity="1.0" stroke-linecap="round" stroke-linejoin="round"/>
    <path d="M 140.1466064453125 136.58799743652344 C 125.89958190917969 118.81544494628906 153.66600036621094 114.97858428955078 127.30448913574219 101.88329315185547" stroke-width="3.0" fill="none" stroke="rgb(0, 0, 0)" stroke-opacity="1.0" stroke-linecap="round" stroke-linejoin="round"/>
    <path d="M 123.2770767211914 104.90672302246094 C 143.57093811035156 182.8692169189453 146.46031188964844 136.17662048339844 111.60265350341797 176.3419952392578" stroke-width="3.0" fill="none" stroke="rgb(0, 0, 0)" stroke-opacity="1.0" stroke-linecap="round" stroke-linejoin="round"/>
    <path d="M 169.3494110107422 120.72581481933594 C 154.39974975585938 155.40760803222656 135.31251525878906 131.15597534179688 152.40478515625 136.67840576171875" stroke-width="3.0" fill="none" stroke="rgb(0, 0, 0)" stroke-opacity="1.0" stroke-linecap="round" stroke-linejoin="round"/>
    <path d="M 139.1830291748047 120.92083740234375 C 102.03314208984375 104.39697265625 177.07164001464844 98.15866088867188 138.69070434570312 128.2056884765625" stroke-width="3.0" fill="none" stroke="rgb(0, 0, 0)" stroke-opacity="1.0" stroke-linecap="round" stroke-linejoin="round"/>
    <path d="M 78.62386322021484 115.21931457519531 C 42.550567626953125 59.76215744018555 79.10984802246094 94.07234954833984 70.80986785888672 122.59748840332031" stroke-width="3.0" fill="none" stroke="rgb(0, 0, 0)" stroke-opacity="1.0" stroke-linecap="round" stroke-linejoin="round"/>
    <path d="M 77.2862777709961 133.4954376220703 C 170.00096130371094 122.9215316772461 93.51793670654297 144.4946746826172 74.55382537841797 125.6260757446289" stroke-width="3.0" fill="none" stroke="rgb(0, 0, 0)" stroke-opacity="1.0" stroke-linecap="round" stroke-linejoin="round"/>
    <path d="M 55.88500213623047 73.75386810302734 C 113.75233459472656 65.9689712524414 94.2750015258789 139.1702117919922 64.45123291015625 81.98177337646484" stroke-width="3.0" fill="none" stroke="rgb(0, 0, 0)" stroke-opacity="1.0" stroke-linecap="round" stroke-linejoin="round"/>
    <path d="M 144.9627685546875 128.5814208984375 C 125.47752380371094 105.04390716552734 167.8858184814453 100.78170776367188 141.1620635986328 142.07655334472656" stroke-width="3.0" fill="none" stroke="rgb(0, 0, 0)" stroke-opacity="1.0" stroke-linecap="round" stroke-linejoin="round"/>
    <path d="M 159.7666778564453 104.70256805419922 C 179.5648956298828 141.69676208496094 214.9873046875 145.4317626953125 155.70774841308594 100.8628158569336" stroke-width="3.0" fill="none" stroke="rgb(0, 0, 0)" stroke-opacity="1.0" stroke-linecap="round" stroke-linejoin="round"/>
    <path d="M 56.56588363647461 81.97456359863281 C 75.0103530883789 83.15499877929688 55.55827331542969 50.134178161621094 76.8424301147461 115.28144836425781" stroke-width="3.0" fill="none" stroke="rgb(0, 0, 0)" stroke-opacity="1.0" stroke-linecap="round" stroke-linejoin="round"/>
    <path d="M 57.2684326171875 71.98768615722656 C 19.265823364257812 112.20780944824219 49.681644439697266 94.94998931884766 66.7255859375 82.72208404541016" stroke-width="3.0" fill="none" stroke="rgb(0, 0, 0)" stroke-opacity="1.0" stroke-linecap="round" stroke-linejoin="round"/>
  </g>
</svg>
