<?xml version="1.0" ?>
<svg xmlns="http://www.w3.org/2000/svg" version="1.1" width="224" height="224">
  <defs/>
  <g>
    <path d="M 129.03958129882812 112.63387298583984 C 90.66878509521484 99.41638946533203 88.31436157226562 109.52783966064453 127.15364074707031 98.68167877197266" stroke-width="3.0" fill="none" stroke="rgb(0, 0, 0)" stroke-opacity="1.0" stroke-linecap="round" stroke-linejoin="round"/>
    <path d="M 161.7180938720703 107.35324096679688 C 157.01243591308594 129.2454376220703 217.40281677246094 127.98712158203125 200.75648498535156 132.49093627929688" stroke-width="3.0" fill="none" stroke="rgb(0, 0, 0)" stroke-opacity="1.0" stroke-linecap="round" stroke-linejoin="round"/>
    <path d="M 139.36521911621094 130.69064331054688 C 136.90057373046875 83.72503662109375 125.93064880371094 111.33972930908203 156.94996643066406 139.64833068847656" stroke-width="3.0" fill="none" stroke="rgb(0, 0, 0)" stroke-opacity="1.0" stroke-linecap="round" stroke-linejoin="round"/>
    <path d="M 142.03622436523438 125.49503326416016 C 137.68914794921875 87.53695678710938 120.21951293945312 123.04450988769531 156.23684692382812 103.79412078857422" stroke-width="3.0" fill="none" stroke="rgb(0, 0, 0)" stroke-opacity="1.0" stroke-linecap="round" stroke-linejoin="round"/>
    <path d="M 131.6841583251953 113.82482147216797 C 124.95780181884766 101.41737365722656 77.89884185791016 90.81784057617188 75.43598175048828 130.80868530273438" stroke-width="3.0" fill="none" stroke="rgb(0, 0, 0)" stroke-opacity="1.0" stroke-linecap="round" stroke-linejoin="round"/>
    <path d="M 139.013671875 111.16261291503906 C 149.60137939453125 114.59085083007812 155.2812042236328 111.8078842163086 129.1710968017578 103.57323455810547" stroke-width="3.0" fill="none" stroke="rgb(0, 0, 0)" stroke-opacity="1.0" stroke-linecap="round" stroke-linejoin="round"/>
    <path d="M 84.44967651367188 130.88194274902344 C 49.26425552368164 112.38500213623047 100.6004409790039 115.34539031982422 66.10150909423828 76.25357818603516" stroke-width="3.0" fill="none" stroke="rgb(0, 0, 0)" stroke-opacity="1.0" stroke-linecap="round" stroke-linejoin="round"/>
    <path d="M 149.3985137939453 134.5509490966797 C 101.583740234375 138.325439453125 214.78953552246094 149.7493438720703 142.85580444335938 135.28150939941406" stroke-width="3.0" fill="none" stroke="rgb(0, 0, 0)" stroke-opacity="1.0" stroke-linecap="round" stroke-linejoin="round"/>
    <path d="M 185.8623504638672 162.1248321533203 C 198.7785186767578 133.41270446777344 190.73902893066406 165.06430053710938 169.10687255859375 141.6113739013672" stroke-width="3.0" fill="none" stroke="rgb(0, 0, 0)" stroke-opacity="1.0" stroke-linecap="round" stroke-linejoin="round"/>
    <path d="M 149.15716552734375 120.0010757446289 C 132.8553924560547 82.57089233398438 141.0180206298828 115.66676330566406 119.44376373291016 139.24432373046875" stroke-width="3.0" fill="none" stroke="rgb(0, 0, 0)" stroke-opacity="1.0" stroke-linecap="round" stroke-linejoin="round"/>
    <path d="M 134.34326171875 146.36338806152344 C 151.23638916015625 120.57075500488281 162.5646209716797 107.97655487060547 142.49649047851562 139.90103149414062" stroke-width="3.0" fill="none" stroke="rgb(0, 0, 0)" stroke-opacity="1.0" stroke-linecap="round" stroke-linejoin="round"/>
    <path d="M 134.54171752929688 101.06861114501953 C 94.75750732421875 107.81292724609375 96.93981170654297 96.57563018798828 87.95927429199219 103.34407806396484" stroke-width="3.0" fill="none" stroke="rgb(0, 0, 0)" stroke-opacity="1.0" stroke-linecap="round" stroke-linejoin="round"/>
    <path d="M 118.56403350830078 102.02195739746094 C 153.3312225341797 94.73731994628906 136.6151885986328 101.0461654663086 110.70352935791016 130.26145935058594" stroke-width="3.0" fill="none" stroke="rgb(0, 0, 0)" stroke-opacity="1.0" stroke-linecap="round" stroke-linejoin="round"/>
    <path d="M 98.18035125732422 146.9683074951172 C 146.4566650390625 145.83035278320312 140.63845825195312 86.27008819580078 131.78976440429688 159.3500213623047" stroke-width="3.0" fill="none" stroke="rgb(0, 0, 0)" stroke-opacity="1.0" stroke-linecap="round" stroke-linejoin="round"/>
    <path d="M 72.62852478027344 87.13882446289062 C 33.46403884887695 73.60963439941406 41.042720794677734 93.99697875976562 64.405517578125 83.74012756347656" stroke-width="3.0" fill="none" stroke="rgb(0, 0, 0)" stroke-opacity="1.0" stroke-linecap="round" stroke-linejoin="round"/>
    <path d="M 54.26806640625 70.28886413574219 C 48.46848678588867 93.77118682861328 69.1053466796875 73.21809387207031 81.56253051757812 105.63770294189453" stroke-width="3.0" fill="none" stroke="rgb(0, 0, 0)" stroke-opacity="1.0" stroke-linecap="round" stroke-linejoin="round"/>
    <path d="M 86.49227142333984 86.57640838623047 C 62.043907165527344 54.69147491455078 32.93780517578125 89.3178482055664 69.24266815185547 85.5863265991211" stroke-width="3.0" fill="none" stroke="rgb(0, 0, 0)" stroke-opacity="1.0" stroke-linecap="round" stroke-linejoin="round"/>
    <path d="M 63.18747329711914 141.3487091064453 C 74.31505584716797 125.46436309814453 77.8404769897461 151.2694549560547 93.66673278808594 124.84065246582031" stroke-width="3.0" fill="none" stroke="rgb(0, 0, 0)" stroke-opacity="1.0" stroke-linecap="round" stroke-linejoin="round"/>
    <path d="M 134.78472900390625 98.60149383544922 C 147.89576721191406 140.2345428466797 154.71446228027344 86.50487518310547 117.4214859008789 110.24859619140625" stroke-width="3.0" fill="none" stroke="rgb(0, 0, 0)" stroke-opacity="1.0" stroke-linecap="round" stroke-linejoin="round"/>
    <path d="M 131.4607696533203 136.28880310058594 C 148.85304260253906 185.7918701171875 125.95557403564453 138.19186401367188 137.94573974609375 101.95465850830078" stroke-width="3.0" fill="none" stroke="rgb(0, 0, 0)" stroke-opacity="1.0" stroke-linecap="round" stroke-linejoin="round"/>
    <path d="M 97.8919906616211 147.3818359375 C 84.34664154052734 167.44668579101562 126.5104751586914 166.0548858642578 104.32173919677734 168.40440368652344" stroke-width="3.0" fill="none" stroke="rgb(0, 0, 0)" stroke-opacity="1.0" stroke-linecap="round" stroke-linejoin="round"/>
    <path d="M 68.87683868408203 136.00967407226562 C 146.4021759033203 130.0571746826172 135.83335876464844 144.1897735595703 136.5503387451172 118.12509155273438" stroke-width="3.0" fill="none" stroke="rgb(0, 0, 0)" stroke-opacity="1.0" stroke-linecap="round" stroke-linejoin="round"/>
    <path d="M 139.33277893066406 104.79629516601562 C 81.7589111328125 113.5078125 97.92060852050781 83.875732421875 71.77688598632812 118.0755615234375" stroke-width="3.0" fill="none" stroke="rgb(0, 0, 0)" stroke-opacity="1.0" stroke-linecap="round" stroke-linejoin="round"/>
    <path d="M 146.30091857910156 103.9149169921875 C 155.3480224609375 140.1275634765625 125.69275665283203 136.09405517578125 137.74008178710938 119.11320495605469" stroke-width="3.0" fill="none" stroke="rgb(0, 0, 0)" stroke-opacity="1.0" stroke-linecap="round" stroke-linejoin="round"/>
    <path d="M 68.8536148071289 80.1138916015625 C 43.89153289794922 74.36487579345703 60.954612731933594 82.08655548095703 87.14801025390625 109.65188598632812" stroke-width="3.0" fill="none" stroke="rgb(0, 0, 0)" stroke-opacity="1.0" stroke-linecap="round" stroke-linejoin="round"/>
    <path d="M 76.14230346679688 135.52426147460938 C 113.38545989990234 120.05709075927734 89.9940185546875 131.40530395507812 95.97687530517578 121.16305541992188" stroke-width="3.0" fill="none" stroke="rgb(0, 0, 0)" stroke-opacity="1.0" stroke-linecap="round" stroke-linejoin="round"/>
    <path d="M 56.83774185180664 75.88473510742188 C 22.821054458618164 103.51028442382812 40.531856536865234 111.57716369628906 60.05103302001953 69.69361877441406" stroke-width="3.0" fill="none" stroke="rgb(0, 0, 0)" stroke-opacity="1.0" stroke-linecap="round" stroke-linejoin="round"/>
    <path d="M 84.96830749511719 174.27133178710938 C 94.2170639038086 157.1264190673828 31.437450408935547 141.1940460205078 75.18329620361328 131.12896728515625" stroke-width="3.0" fill="none" stroke="rgb(0, 0, 0)" stroke-opacity="1.0" stroke-linecap="round" stroke-linejoin="round"/>
    <path d="M 175.702880859375 112.78569793701172 C 162.166259765625 108.83631896972656 164.6901397705078 90.61639404296875 149.3954620361328 107.3202896118164" stroke-width="3.0" fill="none" stroke="rgb(0, 0, 0)" stroke-opacity="1.0" stroke-linecap="round" stroke-linejoin="round"/>
    <path d="M 112.99801635742188 144.03982543945312 C 144.01223754882812 104.45246887207031 130.50543212890625 96.47977447509766 120.7659683227539 136.5653839111328" stroke-width="3.0" fill="none" stroke="rgb(0, 0, 0)" stroke-opacity="1.0" stroke-linecap="round" stroke-linejoin="round"/>
    <path d="M 61.65265655517578 69.46804809570312 C 105.49725341796875 103.37615203857422 63.34476089477539 112.77368927001953 72.5899658203125 82.69378662109375" stroke-width="3.0" fill="none" stroke="rgb(0, 0, 0)" stroke-opacity="1.0" stroke-linecap="round" stroke-linejoin="round"/>
    <path d="M 139.23056030273438 112.0256576538086 C 149.3421630859375 139.90089416503906 125.59546661376953 125.30107116699219 123.02983093261719 138.32554626464844" stroke-width="3.0" fill="none" stroke="rgb(0, 0, 0)" stroke-opacity="1.0" stroke-linecap="round" stroke-linejoin="round"/>
    <path d="M 70.95943450927734 82.12068939208984 C 118.7742691040039 117.0875473022461 106.75875091552734 95.3001937866211 77.17174530029297 107.52137756347656" stroke-width="3.0" fill="none" stroke="rgb(0, 0, 0)" stroke-opacity="1.0" stroke-linecap="round" stroke-linejoin="round"/>
    <path d="M 145.5403289794922 102.33089447021484 C 162.90103149414062 132.76019287109375 138.50680541992188 117.6921615600586 125.45503997802734 100.22427368164062" stroke-width="3.0" fill="none" stroke="rgb(0, 0, 0)" stroke-opacity="1.0" stroke-linecap="round" stroke-linejoin="round"/>
    <path d="M 59.44548416137695 80.5506362915039 C 24.43163299560547 106.04806518554688 62.874847412109375 81.99714660644531 72.769775390625 82.88077545166016" stroke-width="3.0" fill="none" stroke="rgb(0, 0, 0)" stroke-opacity="1.0" stroke-linecap="round" stroke-linejoin="round"/>
    <path d="M 115.94104766845703 105.43199157714844 C 140.25279235839844 142.13442993164062 162.0038604736328 107.62785339355469 124.05668640136719 131.1234588623047" stroke-width="3.0" fill="none" stroke="rgb(0, 0, 0)" stroke-opacity="1.0" stroke-linecap="round" stroke-linejoin="round"/>
    <path d="M 108.56944274902344 132.36300659179688 C 141.0938262939453 106.74229431152344 133.89488220214844 132.5642852783203 116.61046600341797 136.3785858154297" stroke-width="3.0" fill="none" stroke="rgb(0, 0, 0)" stroke-opacity="1.0" stroke-linecap="round" stroke-linejoin="round"/>
    <path d="M 130.72320556640625 125.09375 C 130.76243591308594 124.00143432617188 147.0479736328125 102.1147689819336 142.6739044189453 116.90949249267578" stroke-width="3.0" fill="none" stroke="rgb(0, 0, 0)" stroke-opacity="1.0" stroke-linecap="round" stroke-linejoin="round"/>
    <path d="M 119.4780502319336 111.5436782836914 C 136.08583068847656 188.10311889648438 164.91201782226562 130.2926788330078 109.50333404541016 174.9371795654297" stroke-width="3.0" fill="none" stroke="rgb(0, 0, 0)" stroke-opacity="1.0" stroke-linecap="round" stroke-linejoin="round"/>
    <path d="M 200.5904998779297 132.44155883789062 C 166.79498291015625 125.93843841552734 153.12718200683594 86.92935943603516 185.43991088867188 128.7147674560547" stroke-width="3.0" fill="none" stroke="rgb(0, 0, 0)" stroke-opacity="1.0" stroke-linecap="round" stroke-linejoin="round"/>
    <path d="M 133.58331298828125 117.93804931640625 C 100.19507598876953 88.53192138671875 158.10487365722656 94.12459564208984 153.41908264160156 119.12174224853516" stroke-width="3.0" fill="none" stroke="rgb(0, 0, 0)" stroke-opacity="1.0" stroke-linecap="round" stroke-linejoin="round"/>
    <path d="M 62.55049133300781 86.32001495361328 C 44.91238784790039 73.14669799804688 79.94577026367188 85.60155487060547 74.37689208984375 120.6387939453125" stroke-width="3.0" fill="none" stroke="rgb(0, 0, 0)" stroke-opacity="1.0" stroke-linecap="round" stroke-linejoin="round"/>
    <path d="M 82.8304443359375 130.81153869628906 C 147.30728149414062 131.45462036132812 96.60250091552734 140.2473602294922 97.84188079833984 123.3854751586914" stroke-width="3.0" fill="none" stroke="rgb(0, 0, 0)" stroke-opacity="1.0" stroke-linecap="round" stroke-linejoin="round"/>
    <path d="M 54.01741027832031 71.97235107421875 C 100.56495666503906 67.0334701538086 101.96398162841797 120.28443908691406 69.24005889892578 82.20478057861328" stroke-width="3.0" fill="none" stroke="rgb(0, 0, 0)" stroke-opacity="1.0" stroke-linecap="round" stroke-linejoin="round"/>
    <path d="M 138.45553588867188 120.2063980102539 C 149.3069610595703 126.13294219970703 133.8581085205078 107.58609771728516 113.6048583984375 141.38246154785156" stroke-width="3.0" fill="none" stroke="rgb(0, 0, 0)" stroke-opacity="1.0" stroke-linecap="round" stroke-linejoin="round"/>
    <path d="M 155.33763122558594 102.30268096923828 C 178.22653198242188 131.58937072753906 197.90744018554688 138.882080078125 158.8202362060547 104.66905975341797" stroke-width="3.0" fill="none" stroke="rgb(0, 0, 0)" stroke-opacity="1.0" stroke-linecap="round" stroke-linejoin="round"/>
    <path d="M 41.95364761352539 90.66938781738281 C 58.22105407714844 97.15479278564453 51.79518127441406 83.98314666748047 74.93828582763672 86.84107971191406" stroke-width="3.0" fill="none" stroke="rgb(0, 0, 0)" stroke-opacity="1.0" stroke-linecap="round" stroke-linejoin="round"/>
    <path d="M 63.1779899597168 78.12811279296875 C 46.67662048339844 107.82958221435547 45.7859001159668 81.28388214111328 60.61174774169922 77.60651397705078" stroke-width="3.0" fill="none" stroke="rgb(0, 0, 0)" stroke-opacity="1.0" stroke-linecap="round" stroke-linejoin="round"/>
  </g>
</svg>
