<?xml version="1.0" ?>
<svg xmlns="http://www.w3.org/2000/svg" version="1.1" width="224" height="224">
  <defs/>
  <g>
    <path d="M 144.13275146484375 118.99577331542969 C 107.91606140136719 92.12772369384766 90.6297378540039 123.9186019897461 134.999267578125 102.9570083618164" stroke-width="3.0" fill="none" stroke="rgb(0, 0, 0)" stroke-opacity="1.0" stroke-linecap="round" stroke-linejoin="round"/>
    <path d="M 160.5736541748047 108.02439880371094 C 166.64768981933594 138.15280151367188 246.58946228027344 141.92837524414062 185.13552856445312 127.81415557861328" stroke-width="3.0" fill="none" stroke="rgb(0, 0, 0)" stroke-opacity="1.0" stroke-linecap="round" stroke-linejoin="round"/>
    <path d="M 132.69943237304688 129.07476806640625 C 126.04927062988281 77.42515563964844 125.15953826904297 114.7967300415039 155.10110473632812 144.46873474121094" stroke-width="3.0" fill="none" stroke="rgb(0, 0, 0)" stroke-opacity="1.0" stroke-linecap="round" stroke-linejoin="round"/>
    <path d="M 126.24693298339844 134.04249572753906 C 124.74015045166016 70.89476013183594 113.65390014648438 122.83961486816406 157.4906768798828 100.41671752929688" stroke-width="3.0" fill="none" stroke="rgb(0, 0, 0)" stroke-opacity="1.0" stroke-linecap="round" stroke-linejoin="round"/>
    <path d="M 110.42082977294922 123.1346664428711 C 125.02458190917969 98.41587829589844 71.82673645019531 80.46342468261719 74.2415542602539 127.4339370727539" stroke-width="3.0" fill="none" stroke="rgb(0, 0, 0)" stroke-opacity="1.0" stroke-linecap="round" stroke-linejoin="round"/>
    <path d="M 109.60517883300781 132.54046630859375 C 134.20252990722656 139.13731384277344 142.05909729003906 103.7940902709961 127.67399597167969 111.01904296875" stroke-width="3.0" fill="none" stroke="rgb(0, 0, 0)" stroke-opacity="1.0" stroke-linecap="round" stroke-linejoin="round"/>
    <path d="M 79.88695526123047 129.7523193359375 C 52.180294036865234 118.36174774169922 114.8720932006836 80.33548736572266 44.167930603027344 89.36309051513672" stroke-width="3.0" fill="none" stroke="rgb(0, 0, 0)" stroke-opacity="1.0" stroke-linecap="round" stroke-linejoin="round"/>
    <path d="M 131.57054138183594 114.03861999511719 C 109.32972717285156 153.22291564941406 209.7373809814453 146.2575225830078 143.9893035888672 139.5065460205078" stroke-width="3.0" fill="none" stroke="rgb(0, 0, 0)" stroke-opacity="1.0" stroke-linecap="round" stroke-linejoin="round"/>
    <path d="M 179.13818359375 160.75204467773438 C 180.2933807373047 149.8954620361328 201.7863006591797 185.65745544433594 164.78762817382812 144.0398712158203" stroke-width="3.0" fill="none" stroke="rgb(0, 0, 0)" stroke-opacity="1.0" stroke-linecap="round" stroke-linejoin="round"/>
    <path d="M 132.71876525878906 129.4713592529297 C 124.66587829589844 77.56444549560547 145.57254028320312 113.99427795410156 115.0621566772461 134.1528778076172" stroke-width="3.0" fill="none" stroke="rgb(0, 0, 0)" stroke-opacity="1.0" stroke-linecap="round" stroke-linejoin="round"/>
    <path d="M 134.32440185546875 156.03587341308594 C 150.15968322753906 117.1532211303711 155.94552612304688 89.49239349365234 136.60855102539062 138.2965545654297" stroke-width="3.0" fill="none" stroke="rgb(0, 0, 0)" stroke-opacity="1.0" stroke-linecap="round" stroke-linejoin="round"/>
    <path d="M 136.3885955810547 110.14996337890625 C 91.09832763671875 101.47013092041016 82.50411987304688 99.66612243652344 66.87364196777344 84.2247543334961" stroke-width="3.0" fill="none" stroke="rgb(0, 0, 0)" stroke-opacity="1.0" stroke-linecap="round" stroke-linejoin="round"/>
    <path d="M 95.0789794921875 99.8358154296875 C 136.50048828125 109.0501708984375 117.55555725097656 82.1983413696289 114.90682220458984 125.18175506591797" stroke-width="3.0" fill="none" stroke="rgb(0, 0, 0)" stroke-opacity="1.0" stroke-linecap="round" stroke-linejoin="round"/>
    <path d="M 98.12189483642578 148.64744567871094 C 146.8957061767578 143.35751342773438 142.5218963623047 82.01637268066406 129.7513885498047 155.5729217529297" stroke-width="3.0" fill="none" stroke="rgb(0, 0, 0)" stroke-opacity="1.0" stroke-linecap="round" stroke-linejoin="round"/>
    <path d="M 79.30384826660156 90.93193817138672 C 46.21736145019531 64.05430603027344 45.3854866027832 108.67656707763672 64.25181579589844 84.44361877441406" stroke-width="3.0" fill="none" stroke="rgb(0, 0, 0)" stroke-opacity="1.0" stroke-linecap="round" stroke-linejoin="round"/>
    <path d="M 57.15315246582031 72.53201293945312 C 67.68538665771484 92.8547592163086 81.794189453125 74.37077331542969 88.37065124511719 106.42107391357422" stroke-width="3.0" fill="none" stroke="rgb(0, 0, 0)" stroke-opacity="1.0" stroke-linecap="round" stroke-linejoin="round"/>
    <path d="M 82.01287078857422 103.37352752685547 C 47.64439010620117 82.86607360839844 25.003093719482422 74.00701141357422 72.85982513427734 82.29084777832031" stroke-width="3.0" fill="none" stroke="rgb(0, 0, 0)" stroke-opacity="1.0" stroke-linecap="round" stroke-linejoin="round"/>
    <path d="M 79.47176361083984 162.69033813476562 C 37.82011413574219 120.18660736083984 78.18363952636719 148.3172607421875 98.3270492553711 120.98054504394531" stroke-width="3.0" fill="none" stroke="rgb(0, 0, 0)" stroke-opacity="1.0" stroke-linecap="round" stroke-linejoin="round"/>
    <path d="M 136.775146484375 104.61618041992188 C 150.3072052001953 141.05641174316406 153.9239959716797 74.54471588134766 105.12345123291016 106.696044921875" stroke-width="3.0" fill="none" stroke="rgb(0, 0, 0)" stroke-opacity="1.0" stroke-linecap="round" stroke-linejoin="round"/>
    <path d="M 125.41957092285156 117.17645263671875 C 134.78872680664062 192.97549438476562 149.7180633544922 104.12129974365234 129.8297882080078 99.56343078613281" stroke-width="3.0" fill="none" stroke="rgb(0, 0, 0)" stroke-opacity="1.0" stroke-linecap="round" stroke-linejoin="round"/>
    <path d="M 96.47196197509766 150.20944213867188 C 86.61322784423828 167.63809204101562 125.8453369140625 169.89883422851562 101.8091812133789 170.1276092529297" stroke-width="3.0" fill="none" stroke="rgb(0, 0, 0)" stroke-opacity="1.0" stroke-linecap="round" stroke-linejoin="round"/>
    <path d="M 75.59325408935547 128.99928283691406 C 145.12644958496094 136.31126403808594 142.38885498046875 132.6399688720703 146.031005859375 119.61128997802734" stroke-width="3.0" fill="none" stroke="rgb(0, 0, 0)" stroke-opacity="1.0" stroke-linecap="round" stroke-linejoin="round"/>
    <path d="M 131.62350463867188 106.56997680664062 C 86.54762268066406 114.51908111572266 112.27368927001953 77.90267944335938 72.67305755615234 119.2334213256836" stroke-width="3.0" fill="none" stroke="rgb(0, 0, 0)" stroke-opacity="1.0" stroke-linecap="round" stroke-linejoin="round"/>
    <path d="M 142.49171447753906 106.16255187988281 C 156.50328063964844 118.39543914794922 119.74299621582031 150.888671875 145.1918182373047 141.86900329589844" stroke-width="3.0" fill="none" stroke="rgb(0, 0, 0)" stroke-opacity="1.0" stroke-linecap="round" stroke-linejoin="round"/>
    <path d="M 77.90628051757812 118.42205810546875 C 42.85100555419922 58.183048248291016 58.54433822631836 72.87134552001953 84.03599548339844 95.40767669677734" stroke-width="3.0" fill="none" stroke="rgb(0, 0, 0)" stroke-opacity="1.0" stroke-linecap="round" stroke-linejoin="round"/>
    <path d="M 78.00654602050781 124.77738189697266 C 124.73492431640625 135.52809143066406 102.17424774169922 136.6171112060547 92.51039123535156 117.95965576171875" stroke-width="3.0" fill="none" stroke="rgb(0, 0, 0)" stroke-opacity="1.0" stroke-linecap="round" stroke-linejoin="round"/>
    <path d="M 58.38726806640625 70.02696990966797 C 27.65943717956543 106.502197265625 42.96515655517578 107.4080810546875 53.35698318481445 71.22677612304688" stroke-width="3.0" fill="none" stroke="rgb(0, 0, 0)" stroke-opacity="1.0" stroke-linecap="round" stroke-linejoin="round"/>
    <path d="M 83.68559265136719 172.22938537597656 C 89.00285339355469 148.5159912109375 29.40911865234375 144.42819213867188 98.26795196533203 121.0678482055664" stroke-width="3.0" fill="none" stroke="rgb(0, 0, 0)" stroke-opacity="1.0" stroke-linecap="round" stroke-linejoin="round"/>
    <path d="M 181.17384338378906 124.0059585571289 C 169.0626983642578 118.86117553710938 163.641845703125 83.27555847167969 153.4132843017578 107.86742401123047" stroke-width="3.0" fill="none" stroke="rgb(0, 0, 0)" stroke-opacity="1.0" stroke-linecap="round" stroke-linejoin="round"/>
    <path d="M 111.7043685913086 144.30885314941406 C 156.95562744140625 95.27812194824219 142.33689880371094 88.33503723144531 117.32199096679688 128.53485107421875" stroke-width="3.0" fill="none" stroke="rgb(0, 0, 0)" stroke-opacity="1.0" stroke-linecap="round" stroke-linejoin="round"/>
    <path d="M 56.77647018432617 73.75753784179688 C 99.82489013671875 122.91011810302734 91.60003662109375 123.45751190185547 68.7064437866211 80.51891326904297" stroke-width="3.0" fill="none" stroke="rgb(0, 0, 0)" stroke-opacity="1.0" stroke-linecap="round" stroke-linejoin="round"/>
    <path d="M 129.6322021484375 111.75041198730469 C 146.31817626953125 127.99443817138672 129.52313232421875 111.87554931640625 126.89237213134766 133.4697723388672" stroke-width="3.0" fill="none" stroke="rgb(0, 0, 0)" stroke-opacity="1.0" stroke-linecap="round" stroke-linejoin="round"/>
    <path d="M 68.76592254638672 101.60884857177734 C 120.03730010986328 99.57612609863281 102.08796691894531 87.97349548339844 69.86614990234375 95.515380859375" stroke-width="3.0" fill="none" stroke="rgb(0, 0, 0)" stroke-opacity="1.0" stroke-linecap="round" stroke-linejoin="round"/>
    <path d="M 124.71959686279297 118.96194458007812 C 132.850830078125 147.53384399414062 122.13081359863281 115.50888061523438 121.1701431274414 101.8482894897461" stroke-width="3.0" fill="none" stroke="rgb(0, 0, 0)" stroke-opacity="1.0" stroke-linecap="round" stroke-linejoin="round"/>
    <path d="M 74.22007751464844 83.02098846435547 C 11.998750686645508 94.14874267578125 72.9834976196289 60.26029968261719 87.4280776977539 95.1944580078125" stroke-width="3.0" fill="none" stroke="rgb(0, 0, 0)" stroke-opacity="1.0" stroke-linecap="round" stroke-linejoin="round"/>
    <path d="M 114.46751403808594 109.60889434814453 C 103.96903228759766 165.17526245117188 146.80230712890625 117.87535095214844 120.30899047851562 131.06190490722656" stroke-width="3.0" fill="none" stroke="rgb(0, 0, 0)" stroke-opacity="1.0" stroke-linecap="round" stroke-linejoin="round"/>
    <path d="M 111.58356475830078 128.61599731445312 C 130.8463134765625 94.69200897216797 132.33969116210938 118.00936126708984 108.98263549804688 113.61431884765625" stroke-width="3.0" fill="none" stroke="rgb(0, 0, 0)" stroke-opacity="1.0" stroke-linecap="round" stroke-linejoin="round"/>
    <path d="M 137.6289825439453 148.33544921875 C 144.83348083496094 133.98135375976562 168.31224060058594 108.46244049072266 134.27685546875 102.59158325195312" stroke-width="3.0" fill="none" stroke="rgb(0, 0, 0)" stroke-opacity="1.0" stroke-linecap="round" stroke-linejoin="round"/>
    <path d="M 100.73311614990234 102.60803985595703 C 147.51881408691406 155.67788696289062 171.08990478515625 113.15277099609375 109.65750885009766 175.95367431640625" stroke-width="3.0" fill="none" stroke="rgb(0, 0, 0)" stroke-opacity="1.0" stroke-linecap="round" stroke-linejoin="round"/>
    <path d="M 202.5376434326172 130.7283172607422 C 150.3238525390625 121.32276153564453 141.79568481445312 95.56102752685547 185.2485809326172 128.23220825195312" stroke-width="3.0" fill="none" stroke="rgb(0, 0, 0)" stroke-opacity="1.0" stroke-linecap="round" stroke-linejoin="round"/>
    <path d="M 129.3691864013672 124.98995971679688 C 91.70618438720703 94.2613525390625 166.80526733398438 87.60228729248047 145.81744384765625 128.53878784179688" stroke-width="3.0" fill="none" stroke="rgb(0, 0, 0)" stroke-opacity="1.0" stroke-linecap="round" stroke-linejoin="round"/>
    <path d="M 72.72545623779297 95.29273223876953 C 43.35332107543945 65.6083755493164 72.77326202392578 83.08507537841797 76.08601379394531 129.3657989501953" stroke-width="3.0" fill="none" stroke="rgb(0, 0, 0)" stroke-opacity="1.0" stroke-linecap="round" stroke-linejoin="round"/>
    <path d="M 79.25191497802734 131.28555297851562 C 162.89219665527344 140.08609008789062 104.24261474609375 147.7158203125 97.7243423461914 119.18470001220703" stroke-width="3.0" fill="none" stroke="rgb(0, 0, 0)" stroke-opacity="1.0" stroke-linecap="round" stroke-linejoin="round"/>
    <path d="M 60.137577056884766 73.44690704345703 C 109.78348541259766 72.63082122802734 90.92938232421875 144.15618896484375 63.77016067504883 87.81491088867188" stroke-width="3.0" fill="none" stroke="rgb(0, 0, 0)" stroke-opacity="1.0" stroke-linecap="round" stroke-linejoin="round"/>
    <path d="M 149.34385681152344 123.3434829711914 C 130.91925048828125 117.06709289550781 133.351806640625 86.93995666503906 122.94152069091797 137.3165283203125" stroke-width="3.0" fill="none" stroke="rgb(0, 0, 0)" stroke-opacity="1.0" stroke-linecap="round" stroke-linejoin="round"/>
    <path d="M 157.23565673828125 101.76220703125 C 186.16419982910156 127.6620101928711 202.26002502441406 137.05877685546875 158.66287231445312 100.40846252441406" stroke-width="3.0" fill="none" stroke="rgb(0, 0, 0)" stroke-opacity="1.0" stroke-linecap="round" stroke-linejoin="round"/>
    <path d="M 51.64573669433594 87.34671783447266 C 64.77851867675781 101.39701843261719 54.864139556884766 71.21662902832031 84.62943267822266 100.08870697021484" stroke-width="3.0" fill="none" stroke="rgb(0, 0, 0)" stroke-opacity="1.0" stroke-linecap="round" stroke-linejoin="round"/>
    <path d="M 58.66718673706055 74.63436126708984 C 40.47197341918945 116.65345764160156 30.219026565551758 89.40790557861328 60.077754974365234 89.00499725341797" stroke-width="3.0" fill="none" stroke="rgb(0, 0, 0)" stroke-opacity="1.0" stroke-linecap="round" stroke-linejoin="round"/>
  </g>
</svg>
