<?xml version="1.0" ?>
<svg xmlns="http://www.w3.org/2000/svg" version="1.1" width="224" height="224">
  <defs/>
  <g>
    <path d="M 147.7731170654297 120.77973175048828 C 106.1465835571289 94.3484115600586 72.3293685913086 108.24617767333984 130.22906494140625 104.60099792480469" stroke-width="3.0" fill="none" stroke="rgb(0, 0, 0)" stroke-opacity="1.0" stroke-linecap="round" stroke-linejoin="round"/>
    <path d="M 159.75648498535156 103.60306549072266 C 167.37281799316406 141.1464080810547 253.4817352294922 143.7810516357422 166.6629638671875 118.37503051757812" stroke-width="3.0" fill="none" stroke="rgb(0, 0, 0)" stroke-opacity="1.0" stroke-linecap="round" stroke-linejoin="round"/>
    <path d="M 145.046875 128.2705841064453 C 128.35491943359375 82.32876586914062 106.22297668457031 146.25347900390625 161.48641967773438 146.58522033691406" stroke-width="3.0" fill="none" stroke="rgb(0, 0, 0)" stroke-opacity="1.0" stroke-linecap="round" stroke-linejoin="round"/>
    <path d="M 133.68377685546875 143.42739868164062 C 110.69526672363281 72.86725616455078 131.7323760986328 123.9200668334961 143.53564453125 105.20732116699219" stroke-width="3.0" fill="none" stroke="rgb(0, 0, 0)" stroke-opacity="1.0" stroke-linecap="round" stroke-linejoin="round"/>
    <path d="M 125.62306213378906 125.67699432373047 C 126.9693603515625 94.34964752197266 57.10836410522461 96.87093353271484 71.93062591552734 128.54566955566406" stroke-width="3.0" fill="none" stroke="rgb(0, 0, 0)" stroke-opacity="1.0" stroke-linecap="round" stroke-linejoin="round"/>
    <path d="M 119.217041015625 130.8692626953125 C 126.42960357666016 141.28253173828125 130.46316528320312 102.40323638916016 114.6318359375 104.5448226928711" stroke-width="3.0" fill="none" stroke="rgb(0, 0, 0)" stroke-opacity="1.0" stroke-linecap="round" stroke-linejoin="round"/>
    <path d="M 76.5385513305664 119.0524673461914 C 48.050899505615234 132.43385314941406 130.78892517089844 90.92710876464844 56.953426361083984 73.47335815429688" stroke-width="3.0" fill="none" stroke="rgb(0, 0, 0)" stroke-opacity="1.0" stroke-linecap="round" stroke-linejoin="round"/>
    <path d="M 146.69093322753906 110.34351348876953 C 138.98826599121094 152.94839477539062 230.6418914794922 163.6236572265625 133.10008239746094 137.44097900390625" stroke-width="3.0" fill="none" stroke="rgb(0, 0, 0)" stroke-opacity="1.0" stroke-linecap="round" stroke-linejoin="round"/>
    <path d="M 177.1127166748047 161.55088806152344 C 176.76390075683594 140.85081481933594 205.82237243652344 189.33348083496094 164.47018432617188 144.43580627441406" stroke-width="3.0" fill="none" stroke="rgb(0, 0, 0)" stroke-opacity="1.0" stroke-linecap="round" stroke-linejoin="round"/>
    <path d="M 129.1492919921875 129.2021942138672 C 117.65428161621094 69.94692993164062 150.9876708984375 118.873291015625 122.58872985839844 124.72201538085938" stroke-width="3.0" fill="none" stroke="rgb(0, 0, 0)" stroke-opacity="1.0" stroke-linecap="round" stroke-linejoin="round"/>
    <path d="M 133.1609649658203 151.6864776611328 C 156.9792022705078 120.89952850341797 153.54904174804688 88.5464096069336 132.0919647216797 154.6686248779297" stroke-width="3.0" fill="none" stroke="rgb(0, 0, 0)" stroke-opacity="1.0" stroke-linecap="round" stroke-linejoin="round"/>
    <path d="M 136.92758178710938 105.81663513183594 C 78.86381530761719 103.80264282226562 91.00485229492188 95.72733306884766 70.76620483398438 81.3004379272461" stroke-width="3.0" fill="none" stroke="rgb(0, 0, 0)" stroke-opacity="1.0" stroke-linecap="round" stroke-linejoin="round"/>
    <path d="M 106.0489273071289 103.86949157714844 C 149.2074737548828 99.78986358642578 139.21060180664062 92.89927673339844 140.78160095214844 141.3286590576172" stroke-width="3.0" fill="none" stroke="rgb(0, 0, 0)" stroke-opacity="1.0" stroke-linecap="round" stroke-linejoin="round"/>
    <path d="M 102.56706237792969 147.79971313476562 C 145.7047576904297 139.640869140625 145.89242553710938 75.2254867553711 133.22804260253906 156.43280029296875" stroke-width="3.0" fill="none" stroke="rgb(0, 0, 0)" stroke-opacity="1.0" stroke-linecap="round" stroke-linejoin="round"/>
    <path d="M 86.18601989746094 95.97021484375 C 48.49562072753906 69.28612518310547 21.731857299804688 120.35889434814453 49.412078857421875 76.8729476928711" stroke-width="3.0" fill="none" stroke="rgb(0, 0, 0)" stroke-opacity="1.0" stroke-linecap="round" stroke-linejoin="round"/>
    <path d="M 54.92598342895508 70.3775405883789 C 75.27603149414062 88.63803100585938 87.4649658203125 77.95265197753906 87.6846923828125 104.242431640625" stroke-width="3.0" fill="none" stroke="rgb(0, 0, 0)" stroke-opacity="1.0" stroke-linecap="round" stroke-linejoin="round"/>
    <path d="M 90.10137176513672 99.50033569335938 C 58.958866119384766 68.42265319824219 8.514575958251953 90.52287292480469 74.99455261230469 87.10720825195312" stroke-width="3.0" fill="none" stroke="rgb(0, 0, 0)" stroke-opacity="1.0" stroke-linecap="round" stroke-linejoin="round"/>
    <path d="M 82.00330352783203 164.29994201660156 C 33.2586669921875 115.09126281738281 78.19450378417969 153.1432647705078 90.42147827148438 120.4776382446289" stroke-width="3.0" fill="none" stroke="rgb(0, 0, 0)" stroke-opacity="1.0" stroke-linecap="round" stroke-linejoin="round"/>
    <path d="M 135.33340454101562 114.44551086425781 C 158.8441925048828 158.5892333984375 162.12098693847656 77.45182800292969 111.92911529541016 105.2675552368164" stroke-width="3.0" fill="none" stroke="rgb(0, 0, 0)" stroke-opacity="1.0" stroke-linecap="round" stroke-linejoin="round"/>
    <path d="M 126.55975341796875 107.16487884521484 C 140.84619140625 199.2248992919922 155.84120178222656 99.7804183959961 132.2219696044922 103.28153228759766" stroke-width="3.0" fill="none" stroke="rgb(0, 0, 0)" stroke-opacity="1.0" stroke-linecap="round" stroke-linejoin="round"/>
    <path d="M 101.83797454833984 148.04058837890625 C 83.0325698852539 168.6208953857422 121.30768585205078 179.9137725830078 95.67073059082031 160.78294372558594" stroke-width="3.0" fill="none" stroke="rgb(0, 0, 0)" stroke-opacity="1.0" stroke-linecap="round" stroke-linejoin="round"/>
    <path d="M 74.25736236572266 127.8077621459961 C 132.37892150878906 144.7120819091797 132.9896697998047 124.52351379394531 146.6301727294922 106.32520294189453" stroke-width="3.0" fill="none" stroke="rgb(0, 0, 0)" stroke-opacity="1.0" stroke-linecap="round" stroke-linejoin="round"/>
    <path d="M 138.5554962158203 105.292236328125 C 85.23394012451172 114.76872253417969 101.92141723632812 73.83736419677734 74.43598937988281 115.74688720703125" stroke-width="3.0" fill="none" stroke="rgb(0, 0, 0)" stroke-opacity="1.0" stroke-linecap="round" stroke-linejoin="round"/>
    <path d="M 143.80572509765625 116.5708999633789 C 169.27442932128906 112.45536041259766 124.15471649169922 153.3308868408203 152.38038635253906 133.51849365234375" stroke-width="3.0" fill="none" stroke="rgb(0, 0, 0)" stroke-opacity="1.0" stroke-linecap="round" stroke-linejoin="round"/>
    <path d="M 82.50897216796875 107.21675109863281 C 69.27293395996094 59.24692153930664 71.99671173095703 71.04161071777344 71.81951904296875 114.09305572509766" stroke-width="3.0" fill="none" stroke="rgb(0, 0, 0)" stroke-opacity="1.0" stroke-linecap="round" stroke-linejoin="round"/>
    <path d="M 73.69242095947266 125.54718017578125 C 127.2295150756836 136.87738037109375 103.4354476928711 136.69192504882812 97.39524841308594 124.70608520507812" stroke-width="3.0" fill="none" stroke="rgb(0, 0, 0)" stroke-opacity="1.0" stroke-linecap="round" stroke-linejoin="round"/>
    <path d="M 61.062103271484375 70.67686462402344 C 21.654783248901367 106.83301544189453 35.701602935791016 105.52896118164062 67.76075744628906 81.40413665771484" stroke-width="3.0" fill="none" stroke="rgb(0, 0, 0)" stroke-opacity="1.0" stroke-linecap="round" stroke-linejoin="round"/>
    <path d="M 84.81806945800781 173.6729278564453 C 100.84851837158203 156.15335083007812 21.913883209228516 142.24940490722656 94.16848754882812 124.53315734863281" stroke-width="3.0" fill="none" stroke="rgb(0, 0, 0)" stroke-opacity="1.0" stroke-linecap="round" stroke-linejoin="round"/>
    <path d="M 183.89695739746094 123.12692260742188 C 164.35311889648438 116.46466064453125 166.8786163330078 87.39679718017578 147.3227081298828 107.46167755126953" stroke-width="3.0" fill="none" stroke="rgb(0, 0, 0)" stroke-opacity="1.0" stroke-linecap="round" stroke-linejoin="round"/>
    <path d="M 116.59767150878906 137.737060546875 C 179.5181427001953 119.83528900146484 142.64585876464844 93.88513946533203 120.54609680175781 137.41427612304688" stroke-width="3.0" fill="none" stroke="rgb(0, 0, 0)" stroke-opacity="1.0" stroke-linecap="round" stroke-linejoin="round"/>
    <path d="M 62.8634147644043 75.99903869628906 C 102.61972045898438 109.82504272460938 89.89490509033203 114.57870483398438 62.29738998413086 71.74906158447266" stroke-width="3.0" fill="none" stroke="rgb(0, 0, 0)" stroke-opacity="1.0" stroke-linecap="round" stroke-linejoin="round"/>
    <path d="M 134.75448608398438 113.85284423828125 C 151.25961303710938 127.16522216796875 135.0557403564453 113.61067962646484 117.27843475341797 134.86288452148438" stroke-width="3.0" fill="none" stroke="rgb(0, 0, 0)" stroke-opacity="1.0" stroke-linecap="round" stroke-linejoin="round"/>
    <path d="M 69.89866638183594 80.76456451416016 C 120.46652221679688 122.97401428222656 112.45372772216797 94.59309387207031 82.50466918945312 101.52808380126953" stroke-width="3.0" fill="none" stroke="rgb(0, 0, 0)" stroke-opacity="1.0" stroke-linecap="round" stroke-linejoin="round"/>
    <path d="M 129.6669158935547 105.41592407226562 C 141.2264404296875 139.76510620117188 133.81561279296875 105.44207000732422 128.76504516601562 102.1552963256836" stroke-width="3.0" fill="none" stroke="rgb(0, 0, 0)" stroke-opacity="1.0" stroke-linecap="round" stroke-linejoin="round"/>
    <path d="M 71.04192352294922 84.69925689697266 C 17.683223724365234 109.96742248535156 66.81144714355469 58.45329666137695 81.9290771484375 106.60685729980469" stroke-width="3.0" fill="none" stroke="rgb(0, 0, 0)" stroke-opacity="1.0" stroke-linecap="round" stroke-linejoin="round"/>
    <path d="M 131.75076293945312 119.88623809814453 C 103.32311248779297 171.4175567626953 143.98973083496094 114.96180725097656 122.89127349853516 136.56161499023438" stroke-width="3.0" fill="none" stroke="rgb(0, 0, 0)" stroke-opacity="1.0" stroke-linecap="round" stroke-linejoin="round"/>
    <path d="M 117.20260620117188 135.67221069335938 C 138.6438446044922 103.38842010498047 132.17059326171875 126.59101104736328 123.89778137207031 102.44876098632812" stroke-width="3.0" fill="none" stroke="rgb(0, 0, 0)" stroke-opacity="1.0" stroke-linecap="round" stroke-linejoin="round"/>
    <path d="M 137.1127471923828 149.6051788330078 C 128.0186767578125 121.18700408935547 154.61209106445312 120.93762969970703 124.29286193847656 103.49453735351562" stroke-width="3.0" fill="none" stroke="rgb(0, 0, 0)" stroke-opacity="1.0" stroke-linecap="round" stroke-linejoin="round"/>
    <path d="M 120.82750701904297 101.25249481201172 C 139.98568725585938 168.8787078857422 160.35894775390625 127.76332092285156 110.47883605957031 176.04354858398438" stroke-width="3.0" fill="none" stroke="rgb(0, 0, 0)" stroke-opacity="1.0" stroke-linecap="round" stroke-linejoin="round"/>
    <path d="M 197.9530487060547 127.93438720703125 C 134.89944458007812 147.0581817626953 127.28002166748047 139.9552764892578 168.66831970214844 136.7964324951172" stroke-width="3.0" fill="none" stroke="rgb(0, 0, 0)" stroke-opacity="1.0" stroke-linecap="round" stroke-linejoin="round"/>
    <path d="M 136.69876098632812 115.87166595458984 C 100.61201477050781 103.62486267089844 175.28408813476562 102.37950897216797 136.24571228027344 139.33937072753906" stroke-width="3.0" fill="none" stroke="rgb(0, 0, 0)" stroke-opacity="1.0" stroke-linecap="round" stroke-linejoin="round"/>
    <path d="M 81.2598648071289 111.37399291992188 C 39.54446792602539 65.26551818847656 77.3741226196289 86.554931640625 73.73290252685547 132.35919189453125" stroke-width="3.0" fill="none" stroke="rgb(0, 0, 0)" stroke-opacity="1.0" stroke-linecap="round" stroke-linejoin="round"/>
    <path d="M 73.52371978759766 131.44873046875 C 164.90464782714844 144.41644287109375 98.42224884033203 137.94415283203125 74.91577911376953 131.65025329589844" stroke-width="3.0" fill="none" stroke="rgb(0, 0, 0)" stroke-opacity="1.0" stroke-linecap="round" stroke-linejoin="round"/>
    <path d="M 47.67304611206055 75.83541870117188 C 116.32476043701172 61.94706344604492 95.16062927246094 144.54295349121094 65.48937225341797 80.1861343383789" stroke-width="3.0" fill="none" stroke="rgb(0, 0, 0)" stroke-opacity="1.0" stroke-linecap="round" stroke-linejoin="round"/>
    <path d="M 130.18626403808594 126.52092742919922 C 119.4168930053711 99.08173370361328 163.6537322998047 90.30538940429688 149.00469970703125 132.60279846191406" stroke-width="3.0" fill="none" stroke="rgb(0, 0, 0)" stroke-opacity="1.0" stroke-linecap="round" stroke-linejoin="round"/>
    <path d="M 161.03932189941406 102.72058868408203 C 183.28306579589844 131.04222106933594 211.22523498535156 134.91127014160156 155.03456115722656 101.01207733154297" stroke-width="3.0" fill="none" stroke="rgb(0, 0, 0)" stroke-opacity="1.0" stroke-linecap="round" stroke-linejoin="round"/>
    <path d="M 58.00023651123047 78.4533920288086 C 58.35835647583008 90.83015441894531 49.06121826171875 64.07769012451172 81.73497772216797 110.51509094238281" stroke-width="3.0" fill="none" stroke="rgb(0, 0, 0)" stroke-opacity="1.0" stroke-linecap="round" stroke-linejoin="round"/>
    <path d="M 55.86546325683594 73.16040802001953 C 30.164396286010742 115.06934356689453 40.52385330200195 89.43622589111328 69.9549560546875 84.99955749511719" stroke-width="3.0" fill="none" stroke="rgb(0, 0, 0)" stroke-opacity="1.0" stroke-linecap="round" stroke-linejoin="round"/>
  </g>
</svg>
