<?xml version="1.0" ?>
<svg xmlns="http://www.w3.org/2000/svg" version="1.1" width="224" height="224">
  <defs/>
  <g>
    <path d="M 132.5869903564453 116.99304962158203 C 92.67189025878906 90.47894287109375 86.48041534423828 109.7654037475586 130.8237762451172 102.37177276611328" stroke-width="3.0" fill="none" stroke="rgb(0, 0, 0)" stroke-opacity="1.0" stroke-linecap="round" stroke-linejoin="round"/>
    <path d="M 167.75990295410156 114.6446762084961 C 157.94578552246094 127.53204345703125 217.32530212402344 127.71302795410156 190.6283416748047 126.27019500732422" stroke-width="3.0" fill="none" stroke="rgb(0, 0, 0)" stroke-opacity="1.0" stroke-linecap="round" stroke-linejoin="round"/>
    <path d="M 123.69629669189453 133.93971252441406 C 124.99589538574219 80.7188949584961 127.31995391845703 107.37376403808594 153.01300048828125 143.5691375732422" stroke-width="3.0" fill="none" stroke="rgb(0, 0, 0)" stroke-opacity="1.0" stroke-linecap="round" stroke-linejoin="round"/>
    <path d="M 129.22836303710938 126.4035415649414 C 134.97836303710938 81.78771209716797 117.30967712402344 116.23726654052734 155.48709106445312 104.76481628417969" stroke-width="3.0" fill="none" stroke="rgb(0, 0, 0)" stroke-opacity="1.0" stroke-linecap="round" stroke-linejoin="round"/>
    <path d="M 124.26405334472656 122.85584259033203 C 126.9044418334961 98.94812774658203 69.0855941772461 86.91531372070312 75.95684051513672 126.65702819824219" stroke-width="3.0" fill="none" stroke="rgb(0, 0, 0)" stroke-opacity="1.0" stroke-linecap="round" stroke-linejoin="round"/>
    <path d="M 136.99746704101562 118.47364044189453 C 148.23587036132812 126.5693130493164 156.2574920654297 111.4985122680664 128.67918395996094 100.30135345458984" stroke-width="3.0" fill="none" stroke="rgb(0, 0, 0)" stroke-opacity="1.0" stroke-linecap="round" stroke-linejoin="round"/>
    <path d="M 87.24472045898438 132.40493774414062 C 48.91334533691406 115.60376739501953 99.16081237792969 115.09783935546875 60.53989028930664 75.1781997680664" stroke-width="3.0" fill="none" stroke="rgb(0, 0, 0)" stroke-opacity="1.0" stroke-linecap="round" stroke-linejoin="round"/>
    <path d="M 139.13650512695312 118.67082977294922 C 88.50199890136719 141.39564514160156 223.32582092285156 155.28213500976562 142.85231018066406 137.419921875" stroke-width="3.0" fill="none" stroke="rgb(0, 0, 0)" stroke-opacity="1.0" stroke-linecap="round" stroke-linejoin="round"/>
    <path d="M 182.3474884033203 161.9761199951172 C 190.4020538330078 148.11341857910156 193.39990234375 175.32113647460938 165.12245178222656 144.679931640625" stroke-width="3.0" fill="none" stroke="rgb(0, 0, 0)" stroke-opacity="1.0" stroke-linecap="round" stroke-linejoin="round"/>
    <path d="M 142.48861694335938 130.4277801513672 C 139.3156280517578 81.11341094970703 145.989013671875 117.03669738769531 116.8634262084961 140.61834716796875" stroke-width="3.0" fill="none" stroke="rgb(0, 0, 0)" stroke-opacity="1.0" stroke-linecap="round" stroke-linejoin="round"/>
    <path d="M 131.77513122558594 150.0609130859375 C 150.62655639648438 118.73091125488281 158.1412811279297 106.18689727783203 143.28843688964844 138.96221923828125" stroke-width="3.0" fill="none" stroke="rgb(0, 0, 0)" stroke-opacity="1.0" stroke-linecap="round" stroke-linejoin="round"/>
    <path d="M 130.01638793945312 102.02717590332031 C 90.92086029052734 107.00794219970703 89.2356185913086 91.44017028808594 87.8848876953125 88.43611907958984" stroke-width="3.0" fill="none" stroke="rgb(0, 0, 0)" stroke-opacity="1.0" stroke-linecap="round" stroke-linejoin="round"/>
    <path d="M 106.69710540771484 103.95240783691406 C 138.5898895263672 101.00017547607422 124.97623443603516 90.81414031982422 122.24549102783203 139.89260864257812" stroke-width="3.0" fill="none" stroke="rgb(0, 0, 0)" stroke-opacity="1.0" stroke-linecap="round" stroke-linejoin="round"/>
    <path d="M 97.0250473022461 148.7736358642578 C 144.38705444335938 141.12156677246094 137.23609924316406 82.4718017578125 131.4293670654297 157.02444458007812" stroke-width="3.0" fill="none" stroke="rgb(0, 0, 0)" stroke-opacity="1.0" stroke-linecap="round" stroke-linejoin="round"/>
    <path d="M 74.19136047363281 88.5964584350586 C 30.712892532348633 79.08857727050781 38.740081787109375 101.52489471435547 49.20762252807617 78.52022552490234" stroke-width="3.0" fill="none" stroke="rgb(0, 0, 0)" stroke-opacity="1.0" stroke-linecap="round" stroke-linejoin="round"/>
    <path d="M 53.33891296386719 71.67826843261719 C 69.93010711669922 95.25432586669922 77.91170501708984 63.73068618774414 86.4009017944336 102.63285827636719" stroke-width="3.0" fill="none" stroke="rgb(0, 0, 0)" stroke-opacity="1.0" stroke-linecap="round" stroke-linejoin="round"/>
    <path d="M 83.61331939697266 105.94088745117188 C 53.8607063293457 73.69298553466797 37.841434478759766 82.73503875732422 83.472412109375 92.12474822998047" stroke-width="3.0" fill="none" stroke="rgb(0, 0, 0)" stroke-opacity="1.0" stroke-linecap="round" stroke-linejoin="round"/>
    <path d="M 65.48933410644531 146.43344116210938 C 62.7259521484375 129.17645263671875 90.50434112548828 144.52206420898438 92.608642578125 128.5941162109375" stroke-width="3.0" fill="none" stroke="rgb(0, 0, 0)" stroke-opacity="1.0" stroke-linecap="round" stroke-linejoin="round"/>
    <path d="M 123.15194702148438 105.77699279785156 C 138.09434509277344 144.33438110351562 151.35000610351562 85.72545623779297 120.52178955078125 101.2800064086914" stroke-width="3.0" fill="none" stroke="rgb(0, 0, 0)" stroke-opacity="1.0" stroke-linecap="round" stroke-linejoin="round"/>
    <path d="M 130.3008270263672 127.3001480102539 C 145.58522033691406 190.3063201904297 133.9043426513672 133.9506072998047 139.774169921875 103.24742126464844" stroke-width="3.0" fill="none" stroke="rgb(0, 0, 0)" stroke-opacity="1.0" stroke-linecap="round" stroke-linejoin="round"/>
    <path d="M 95.6461410522461 150.82725524902344 C 83.845458984375 170.39794921875 122.808837890625 164.47508239746094 101.46051025390625 170.1181640625" stroke-width="3.0" fill="none" stroke="rgb(0, 0, 0)" stroke-opacity="1.0" stroke-linecap="round" stroke-linejoin="round"/>
    <path d="M 76.04441833496094 136.62496948242188 C 146.97705078125 126.28038024902344 143.76348876953125 134.83226013183594 143.64251708984375 115.71681213378906" stroke-width="3.0" fill="none" stroke="rgb(0, 0, 0)" stroke-opacity="1.0" stroke-linecap="round" stroke-linejoin="round"/>
    <path d="M 144.3387908935547 109.27001190185547 C 88.31771850585938 110.74604797363281 105.6910629272461 77.61305236816406 75.92609405517578 122.12400817871094" stroke-width="3.0" fill="none" stroke="rgb(0, 0, 0)" stroke-opacity="1.0" stroke-linecap="round" stroke-linejoin="round"/>
    <path d="M 140.35986328125 106.12283325195312 C 156.49778747558594 147.347412109375 117.97449493408203 160.51205444335938 139.5452117919922 129.1163787841797" stroke-width="3.0" fill="none" stroke="rgb(0, 0, 0)" stroke-opacity="1.0" stroke-linecap="round" stroke-linejoin="round"/>
    <path d="M 79.51172637939453 88.81487274169922 C 31.81557273864746 69.42083740234375 56.221435546875 77.26470947265625 77.95673370361328 106.42131805419922" stroke-width="3.0" fill="none" stroke="rgb(0, 0, 0)" stroke-opacity="1.0" stroke-linecap="round" stroke-linejoin="round"/>
    <path d="M 77.81935119628906 133.90420532226562 C 120.72100830078125 130.79861450195312 94.98856353759766 132.1531219482422 89.64832305908203 127.19373321533203" stroke-width="3.0" fill="none" stroke="rgb(0, 0, 0)" stroke-opacity="1.0" stroke-linecap="round" stroke-linejoin="round"/>
    <path d="M 52.09122085571289 76.2890625 C 29.483644485473633 103.70143127441406 41.40864562988281 108.58372497558594 56.08573913574219 76.0575942993164" stroke-width="3.0" fill="none" stroke="rgb(0, 0, 0)" stroke-opacity="1.0" stroke-linecap="round" stroke-linejoin="round"/>
    <path d="M 84.25623321533203 172.78897094726562 C 97.9306869506836 159.15306091308594 31.2884464263916 142.6377410888672 75.04265594482422 130.62481689453125" stroke-width="3.0" fill="none" stroke="rgb(0, 0, 0)" stroke-opacity="1.0" stroke-linecap="round" stroke-linejoin="round"/>
    <path d="M 171.8694610595703 119.72235107421875 C 172.18252563476562 107.21641540527344 158.69224548339844 85.9336929321289 155.86671447753906 109.90514373779297" stroke-width="3.0" fill="none" stroke="rgb(0, 0, 0)" stroke-opacity="1.0" stroke-linecap="round" stroke-linejoin="round"/>
    <path d="M 110.13980102539062 143.26800537109375 C 141.12664794921875 99.60540771484375 133.03750610351562 96.41271209716797 118.55487060546875 138.37576293945312" stroke-width="3.0" fill="none" stroke="rgb(0, 0, 0)" stroke-opacity="1.0" stroke-linecap="round" stroke-linejoin="round"/>
    <path d="M 56.87017059326172 78.3220443725586 C 109.88566589355469 113.9135513305664 73.35594177246094 123.50911712646484 68.52287292480469 81.04071044921875" stroke-width="3.0" fill="none" stroke="rgb(0, 0, 0)" stroke-opacity="1.0" stroke-linecap="round" stroke-linejoin="round"/>
    <path d="M 134.79307556152344 110.53143310546875 C 143.491943359375 132.51632690429688 124.75291442871094 119.32809448242188 122.76721954345703 136.08905029296875" stroke-width="3.0" fill="none" stroke="rgb(0, 0, 0)" stroke-opacity="1.0" stroke-linecap="round" stroke-linejoin="round"/>
    <path d="M 68.38616180419922 94.31021881103516 C 118.88270568847656 109.42937469482422 104.70025634765625 93.38533782958984 72.6393051147461 101.788330078125" stroke-width="3.0" fill="none" stroke="rgb(0, 0, 0)" stroke-opacity="1.0" stroke-linecap="round" stroke-linejoin="round"/>
    <path d="M 136.4423370361328 110.37120056152344 C 153.3411102294922 143.56573486328125 134.65509033203125 122.32948303222656 133.2518310546875 104.32404327392578" stroke-width="3.0" fill="none" stroke="rgb(0, 0, 0)" stroke-opacity="1.0" stroke-linecap="round" stroke-linejoin="round"/>
    <path d="M 73.09677124023438 83.69326782226562 C 22.450294494628906 105.50830841064453 55.82964324951172 77.26335144042969 76.39124298095703 85.74730682373047" stroke-width="3.0" fill="none" stroke="rgb(0, 0, 0)" stroke-opacity="1.0" stroke-linecap="round" stroke-linejoin="round"/>
    <path d="M 131.28355407714844 101.9027099609375 C 134.28555297851562 151.1636962890625 160.4975128173828 114.19400024414062 135.2427978515625 134.31033325195312" stroke-width="3.0" fill="none" stroke="rgb(0, 0, 0)" stroke-opacity="1.0" stroke-linecap="round" stroke-linejoin="round"/>
    <path d="M 115.54368591308594 138.90777587890625 C 140.0755157470703 107.72356414794922 123.06785583496094 124.5704574584961 113.46961212158203 130.42410278320312" stroke-width="3.0" fill="none" stroke="rgb(0, 0, 0)" stroke-opacity="1.0" stroke-linecap="round" stroke-linejoin="round"/>
    <path d="M 135.63876342773438 130.0227508544922 C 138.4015655517578 127.81339263916016 153.06805419921875 103.32783508300781 140.2739715576172 118.59951782226562" stroke-width="3.0" fill="none" stroke="rgb(0, 0, 0)" stroke-opacity="1.0" stroke-linecap="round" stroke-linejoin="round"/>
    <path d="M 120.18700408935547 100.63768005371094 C 140.79061889648438 187.504638671875 167.09251403808594 129.1683349609375 109.74388885498047 173.65846252441406" stroke-width="3.0" fill="none" stroke="rgb(0, 0, 0)" stroke-opacity="1.0" stroke-linecap="round" stroke-linejoin="round"/>
    <path d="M 201.4810791015625 131.71080017089844 C 156.55438232421875 123.06280517578125 144.91065979003906 82.48471069335938 187.41358947753906 126.11125183105469" stroke-width="3.0" fill="none" stroke="rgb(0, 0, 0)" stroke-opacity="1.0" stroke-linecap="round" stroke-linejoin="round"/>
    <path d="M 145.6925048828125 111.84485626220703 C 105.03871154785156 91.46663665771484 153.6668243408203 94.87176513671875 148.01588439941406 123.54222106933594" stroke-width="3.0" fill="none" stroke="rgb(0, 0, 0)" stroke-opacity="1.0" stroke-linecap="round" stroke-linejoin="round"/>
    <path d="M 63.486080169677734 82.8277816772461 C 44.78009796142578 61.564266204833984 71.99897766113281 87.52367401123047 77.20951080322266 127.71333312988281" stroke-width="3.0" fill="none" stroke="rgb(0, 0, 0)" stroke-opacity="1.0" stroke-linecap="round" stroke-linejoin="round"/>
    <path d="M 79.47486114501953 130.6194610595703 C 159.31362915039062 132.28750610351562 103.86087799072266 141.33624267578125 98.80631256103516 121.8409652709961" stroke-width="3.0" fill="none" stroke="rgb(0, 0, 0)" stroke-opacity="1.0" stroke-linecap="round" stroke-linejoin="round"/>
    <path d="M 60.62220764160156 72.18595123291016 C 99.4749526977539 68.91262817382812 99.41107177734375 127.89942932128906 76.53515625 87.54877471923828" stroke-width="3.0" fill="none" stroke="rgb(0, 0, 0)" stroke-opacity="1.0" stroke-linecap="round" stroke-linejoin="round"/>
    <path d="M 134.27488708496094 122.12471008300781 C 133.6490936279297 124.89346313476562 123.92827606201172 96.43035888671875 120.84806823730469 142.37596130371094" stroke-width="3.0" fill="none" stroke="rgb(0, 0, 0)" stroke-opacity="1.0" stroke-linecap="round" stroke-linejoin="round"/>
    <path d="M 161.80572509765625 101.58255767822266 C 186.7841339111328 127.06690216064453 195.7091827392578 147.30149841308594 158.53530883789062 101.2203369140625" stroke-width="3.0" fill="none" stroke="rgb(0, 0, 0)" stroke-opacity="1.0" stroke-linecap="round" stroke-linejoin="round"/>
    <path d="M 43.75055694580078 92.87959289550781 C 66.58345031738281 98.60591888427734 58.26857376098633 69.7765121459961 77.9429702758789 81.54475402832031" stroke-width="3.0" fill="none" stroke="rgb(0, 0, 0)" stroke-opacity="1.0" stroke-linecap="round" stroke-linejoin="round"/>
    <path d="M 57.04287338256836 71.2596435546875 C 38.96432876586914 104.08756256103516 41.020057678222656 82.8614501953125 55.515438079833984 89.79856872558594" stroke-width="3.0" fill="none" stroke="rgb(0, 0, 0)" stroke-opacity="1.0" stroke-linecap="round" stroke-linejoin="round"/>
  </g>
</svg>
