<?xml version="1.0" ?>
<svg xmlns="http://www.w3.org/2000/svg" version="1.1" width="224" height="224">
  <defs/>
  <g>
    <path d="M 133.45980834960938 115.60598754882812 C 95.54183959960938 88.00181579589844 83.38137817382812 109.6403579711914 130.9923095703125 102.81610870361328" stroke-width="3.0" fill="none" stroke="rgb(0, 0, 0)" stroke-opacity="1.0" stroke-linecap="round" stroke-linejoin="round"/>
    <path d="M 171.47471618652344 114.93113708496094 C 159.9189910888672 130.39332580566406 217.7350311279297 132.28753662109375 189.3620147705078 128.07569885253906" stroke-width="3.0" fill="none" stroke="rgb(0, 0, 0)" stroke-opacity="1.0" stroke-linecap="round" stroke-linejoin="round"/>
    <path d="M 125.99237823486328 135.23741149902344 C 124.29619598388672 80.79827117919922 125.86182403564453 108.53265380859375 155.44097900390625 142.66429138183594" stroke-width="3.0" fill="none" stroke="rgb(0, 0, 0)" stroke-opacity="1.0" stroke-linecap="round" stroke-linejoin="round"/>
    <path d="M 131.02622985839844 127.20275115966797 C 133.97320556640625 82.78060150146484 118.05233001708984 120.52604675292969 156.7112579345703 103.33714294433594" stroke-width="3.0" fill="none" stroke="rgb(0, 0, 0)" stroke-opacity="1.0" stroke-linecap="round" stroke-linejoin="round"/>
    <path d="M 124.05341339111328 123.12376403808594 C 126.37776184082031 97.48123931884766 69.11970520019531 85.61809539794922 74.46729278564453 131.07620239257812" stroke-width="3.0" fill="none" stroke="rgb(0, 0, 0)" stroke-opacity="1.0" stroke-linecap="round" stroke-linejoin="round"/>
    <path d="M 137.3488311767578 118.23301696777344 C 148.15721130371094 126.29563903808594 155.99363708496094 111.8878173828125 128.0938262939453 100.96392822265625" stroke-width="3.0" fill="none" stroke="rgb(0, 0, 0)" stroke-opacity="1.0" stroke-linecap="round" stroke-linejoin="round"/>
    <path d="M 87.16357421875 132.34823608398438 C 47.97465515136719 114.41049194335938 96.6430435180664 118.8594741821289 56.465633392333984 77.59738159179688" stroke-width="3.0" fill="none" stroke="rgb(0, 0, 0)" stroke-opacity="1.0" stroke-linecap="round" stroke-linejoin="round"/>
    <path d="M 139.45907592773438 118.20556640625 C 88.03424072265625 141.9301300048828 217.85171508789062 157.24794006347656 142.39166259765625 137.50611877441406" stroke-width="3.0" fill="none" stroke="rgb(0, 0, 0)" stroke-opacity="1.0" stroke-linecap="round" stroke-linejoin="round"/>
    <path d="M 183.1269073486328 162.5567626953125 C 185.9449920654297 150.10848999023438 194.52191162109375 176.00758361816406 163.85055541992188 145.2510223388672" stroke-width="3.0" fill="none" stroke="rgb(0, 0, 0)" stroke-opacity="1.0" stroke-linecap="round" stroke-linejoin="round"/>
    <path d="M 141.2037353515625 130.93283081054688 C 136.28924560546875 79.17646026611328 140.39576721191406 111.15115356445312 114.59119415283203 142.34632873535156" stroke-width="3.0" fill="none" stroke="rgb(0, 0, 0)" stroke-opacity="1.0" stroke-linecap="round" stroke-linejoin="round"/>
    <path d="M 133.58326721191406 147.43028259277344 C 148.77110290527344 116.61756896972656 157.57057189941406 104.61087036132812 145.6976776123047 141.11456298828125" stroke-width="3.0" fill="none" stroke="rgb(0, 0, 0)" stroke-opacity="1.0" stroke-linecap="round" stroke-linejoin="round"/>
    <path d="M 129.76727294921875 100.71717834472656 C 91.1114273071289 106.92443084716797 88.65460205078125 91.37620544433594 87.4449691772461 86.18096160888672" stroke-width="3.0" fill="none" stroke="rgb(0, 0, 0)" stroke-opacity="1.0" stroke-linecap="round" stroke-linejoin="round"/>
    <path d="M 105.57239532470703 103.33828735351562 C 139.65953063964844 100.54039001464844 128.5855712890625 92.82637023925781 122.69141387939453 139.95692443847656" stroke-width="3.0" fill="none" stroke="rgb(0, 0, 0)" stroke-opacity="1.0" stroke-linecap="round" stroke-linejoin="round"/>
    <path d="M 98.84485626220703 150.295654296875 C 146.96739196777344 140.5288848876953 139.43373107910156 83.83345794677734 132.78562927246094 159.2393798828125" stroke-width="3.0" fill="none" stroke="rgb(0, 0, 0)" stroke-opacity="1.0" stroke-linecap="round" stroke-linejoin="round"/>
    <path d="M 75.60567474365234 89.41647338867188 C 29.11493492126465 79.44487762451172 36.52940368652344 101.02255249023438 51.822235107421875 80.26326751708984" stroke-width="3.0" fill="none" stroke="rgb(0, 0, 0)" stroke-opacity="1.0" stroke-linecap="round" stroke-linejoin="round"/>
    <path d="M 57.686195373535156 70.12348175048828 C 70.19774627685547 95.30416107177734 78.19132995605469 63.144142150878906 86.23548889160156 105.25035858154297" stroke-width="3.0" fill="none" stroke="rgb(0, 0, 0)" stroke-opacity="1.0" stroke-linecap="round" stroke-linejoin="round"/>
    <path d="M 90.5801773071289 100.58258819580078 C 59.16200637817383 70.3218994140625 38.35056686401367 81.48417663574219 82.25843048095703 92.15222930908203" stroke-width="3.0" fill="none" stroke="rgb(0, 0, 0)" stroke-opacity="1.0" stroke-linecap="round" stroke-linejoin="round"/>
    <path d="M 66.13941192626953 146.86795043945312 C 58.81496047973633 130.45094299316406 90.27095031738281 147.7379913330078 92.8609848022461 129.53294372558594" stroke-width="3.0" fill="none" stroke="rgb(0, 0, 0)" stroke-opacity="1.0" stroke-linecap="round" stroke-linejoin="round"/>
    <path d="M 123.5615234375 104.04544067382812 C 137.56321716308594 145.16319274902344 154.0699005126953 84.97948455810547 119.44220733642578 101.57088470458984" stroke-width="3.0" fill="none" stroke="rgb(0, 0, 0)" stroke-opacity="1.0" stroke-linecap="round" stroke-linejoin="round"/>
    <path d="M 129.07305908203125 129.38943481445312 C 144.88168334960938 195.70272827148438 134.77305603027344 135.119140625 138.87330627441406 103.39847564697266" stroke-width="3.0" fill="none" stroke="rgb(0, 0, 0)" stroke-opacity="1.0" stroke-linecap="round" stroke-linejoin="round"/>
    <path d="M 96.64974975585938 151.35256958007812 C 82.79163360595703 171.33724975585938 125.6307373046875 164.74935913085938 102.58031463623047 171.2243194580078" stroke-width="3.0" fill="none" stroke="rgb(0, 0, 0)" stroke-opacity="1.0" stroke-linecap="round" stroke-linejoin="round"/>
    <path d="M 75.14507293701172 136.36837768554688 C 149.7589111328125 131.8936767578125 141.14743041992188 135.74026489257812 141.21182250976562 115.47907257080078" stroke-width="3.0" fill="none" stroke="rgb(0, 0, 0)" stroke-opacity="1.0" stroke-linecap="round" stroke-linejoin="round"/>
    <path d="M 145.5170440673828 110.93373107910156 C 88.0705337524414 110.84992218017578 105.6209716796875 76.580810546875 73.80113220214844 120.5462875366211" stroke-width="3.0" fill="none" stroke="rgb(0, 0, 0)" stroke-opacity="1.0" stroke-linecap="round" stroke-linejoin="round"/>
    <path d="M 141.1927032470703 105.274658203125 C 158.36109924316406 145.93661499023438 120.08323669433594 160.5618896484375 139.06289672851562 126.5470199584961" stroke-width="3.0" fill="none" stroke="rgb(0, 0, 0)" stroke-opacity="1.0" stroke-linecap="round" stroke-linejoin="round"/>
    <path d="M 78.21540832519531 89.50386047363281 C 31.31919288635254 64.31636810302734 56.934085845947266 75.11711883544922 78.21063232421875 106.12297821044922" stroke-width="3.0" fill="none" stroke="rgb(0, 0, 0)" stroke-opacity="1.0" stroke-linecap="round" stroke-linejoin="round"/>
    <path d="M 78.99361419677734 132.6711883544922 C 119.76250457763672 131.58412170410156 92.26976776123047 135.20896911621094 91.20829010009766 123.65440368652344" stroke-width="3.0" fill="none" stroke="rgb(0, 0, 0)" stroke-opacity="1.0" stroke-linecap="round" stroke-linejoin="round"/>
    <path d="M 52.134765625 77.28560638427734 C 28.410371780395508 102.6389389038086 41.002593994140625 107.79304504394531 55.82841491699219 75.91104888916016" stroke-width="3.0" fill="none" stroke="rgb(0, 0, 0)" stroke-opacity="1.0" stroke-linecap="round" stroke-linejoin="round"/>
    <path d="M 86.87480926513672 173.0208282470703 C 96.66539001464844 159.87474060058594 31.356128692626953 142.26585388183594 76.89734649658203 128.26913452148438" stroke-width="3.0" fill="none" stroke="rgb(0, 0, 0)" stroke-opacity="1.0" stroke-linecap="round" stroke-linejoin="round"/>
    <path d="M 172.29039001464844 120.21110534667969 C 170.6414031982422 108.0715103149414 154.9978790283203 85.19816589355469 153.38705444335938 107.16160583496094" stroke-width="3.0" fill="none" stroke="rgb(0, 0, 0)" stroke-opacity="1.0" stroke-linecap="round" stroke-linejoin="round"/>
    <path d="M 113.56497192382812 144.22203063964844 C 143.51365661621094 99.40558624267578 135.4410858154297 97.82083892822266 119.17254638671875 139.9599609375" stroke-width="3.0" fill="none" stroke="rgb(0, 0, 0)" stroke-opacity="1.0" stroke-linecap="round" stroke-linejoin="round"/>
    <path d="M 56.80683517456055 78.12716674804688 C 109.27774047851562 110.23442840576172 74.26236724853516 119.92550659179688 73.2337417602539 80.95535278320312" stroke-width="3.0" fill="none" stroke="rgb(0, 0, 0)" stroke-opacity="1.0" stroke-linecap="round" stroke-linejoin="round"/>
    <path d="M 134.90606689453125 109.60314178466797 C 141.6745147705078 129.30422973632812 122.1455078125 115.70257568359375 122.18330383300781 134.9849853515625" stroke-width="3.0" fill="none" stroke="rgb(0, 0, 0)" stroke-opacity="1.0" stroke-linecap="round" stroke-linejoin="round"/>
    <path d="M 68.25828552246094 93.52159881591797 C 119.39634704589844 105.92385864257812 105.43592834472656 93.8894271850586 73.40186309814453 103.22547149658203" stroke-width="3.0" fill="none" stroke="rgb(0, 0, 0)" stroke-opacity="1.0" stroke-linecap="round" stroke-linejoin="round"/>
    <path d="M 136.2288055419922 110.24546813964844 C 152.92530822753906 144.15562438964844 133.5338592529297 123.19144439697266 133.012451171875 104.47876739501953" stroke-width="3.0" fill="none" stroke="rgb(0, 0, 0)" stroke-opacity="1.0" stroke-linecap="round" stroke-linejoin="round"/>
    <path d="M 71.79100799560547 82.46541595458984 C 22.09139060974121 101.78964233398438 57.26795196533203 76.58797454833984 76.0765151977539 85.78648376464844" stroke-width="3.0" fill="none" stroke="rgb(0, 0, 0)" stroke-opacity="1.0" stroke-linecap="round" stroke-linejoin="round"/>
    <path d="M 126.99573516845703 102.2873306274414 C 132.05792236328125 150.83444213867188 159.8507080078125 113.0374984741211 133.360107421875 131.9412384033203" stroke-width="3.0" fill="none" stroke="rgb(0, 0, 0)" stroke-opacity="1.0" stroke-linecap="round" stroke-linejoin="round"/>
    <path d="M 116.99752807617188 141.52699279785156 C 137.8057861328125 104.96489715576172 122.65879821777344 124.06452178955078 115.23493957519531 133.9235382080078" stroke-width="3.0" fill="none" stroke="rgb(0, 0, 0)" stroke-opacity="1.0" stroke-linecap="round" stroke-linejoin="round"/>
    <path d="M 137.45143127441406 134.56729125976562 C 141.7816925048828 130.24061584472656 156.69134521484375 105.1803970336914 140.39410400390625 118.5836410522461" stroke-width="3.0" fill="none" stroke="rgb(0, 0, 0)" stroke-opacity="1.0" stroke-linecap="round" stroke-linejoin="round"/>
    <path d="M 121.27772521972656 103.13304901123047 C 140.65267944335938 193.20791625976562 164.87254333496094 131.6155548095703 109.56510925292969 174.47018432617188" stroke-width="3.0" fill="none" stroke="rgb(0, 0, 0)" stroke-opacity="1.0" stroke-linecap="round" stroke-linejoin="round"/>
    <path d="M 202.0506134033203 133.43081665039062 C 155.10064697265625 125.60623931884766 145.8031768798828 81.18559265136719 186.74867248535156 127.29907989501953" stroke-width="3.0" fill="none" stroke="rgb(0, 0, 0)" stroke-opacity="1.0" stroke-linecap="round" stroke-linejoin="round"/>
    <path d="M 145.57228088378906 113.97450256347656 C 105.71357727050781 93.45973205566406 155.31373596191406 95.89166259765625 146.00743103027344 123.001708984375" stroke-width="3.0" fill="none" stroke="rgb(0, 0, 0)" stroke-opacity="1.0" stroke-linecap="round" stroke-linejoin="round"/>
    <path d="M 61.70104217529297 84.26130676269531 C 43.73727035522461 62.63671875 73.31513214111328 86.71092224121094 77.5846176147461 134.8118133544922" stroke-width="3.0" fill="none" stroke="rgb(0, 0, 0)" stroke-opacity="1.0" stroke-linecap="round" stroke-linejoin="round"/>
    <path d="M 74.14834594726562 131.41952514648438 C 158.7825469970703 132.5162353515625 101.76475524902344 144.38218688964844 96.89972686767578 124.79364776611328" stroke-width="3.0" fill="none" stroke="rgb(0, 0, 0)" stroke-opacity="1.0" stroke-linecap="round" stroke-linejoin="round"/>
    <path d="M 59.994476318359375 75.06267547607422 C 100.54986572265625 68.09999084472656 97.48468017578125 128.46966552734375 77.75444793701172 86.79752349853516" stroke-width="3.0" fill="none" stroke="rgb(0, 0, 0)" stroke-opacity="1.0" stroke-linecap="round" stroke-linejoin="round"/>
    <path d="M 134.00802612304688 122.18949127197266 C 139.63819885253906 123.70308685302734 130.08876037597656 96.31206512451172 118.22533416748047 134.031005859375" stroke-width="3.0" fill="none" stroke="rgb(0, 0, 0)" stroke-opacity="1.0" stroke-linecap="round" stroke-linejoin="round"/>
    <path d="M 158.6259307861328 102.06069946289062 C 187.43441772460938 126.33697509765625 198.47633361816406 143.7178955078125 156.55178833007812 101.63016510009766" stroke-width="3.0" fill="none" stroke="rgb(0, 0, 0)" stroke-opacity="1.0" stroke-linecap="round" stroke-linejoin="round"/>
    <path d="M 41.71347427368164 89.9642105102539 C 64.94723510742188 97.00059509277344 55.92238998413086 67.45744323730469 76.44937133789062 84.08099365234375" stroke-width="3.0" fill="none" stroke="rgb(0, 0, 0)" stroke-opacity="1.0" stroke-linecap="round" stroke-linejoin="round"/>
    <path d="M 60.86179733276367 71.55347442626953 C 37.48579406738281 103.62724304199219 40.53342819213867 86.54090881347656 59.69894790649414 86.92211151123047" stroke-width="3.0" fill="none" stroke="rgb(0, 0, 0)" stroke-opacity="1.0" stroke-linecap="round" stroke-linejoin="round"/>
  </g>
</svg>
