<?xml version="1.0" ?>
<svg xmlns="http://www.w3.org/2000/svg" version="1.1" width="224" height="224">
  <defs/>
  <g>
    <path d="M 142.9458465576172 119.90660095214844 C 109.46157836914062 90.97592163085938 68.99959564208984 104.6983871459961 127.85767364501953 102.5374755859375" stroke-width="3.0" fill="none" stroke="rgb(0, 0, 0)" stroke-opacity="1.0" stroke-linecap="round" stroke-linejoin="round"/>
    <path d="M 160.25587463378906 109.49609375 C 166.4347686767578 135.4834442138672 251.51910400390625 144.63845825195312 172.64849853515625 125.52487182617188" stroke-width="3.0" fill="none" stroke="rgb(0, 0, 0)" stroke-opacity="1.0" stroke-linecap="round" stroke-linejoin="round"/>
    <path d="M 131.9480438232422 131.38037109375 C 118.77974700927734 82.21617126464844 115.57803344726562 123.76010131835938 162.24905395507812 144.34991455078125" stroke-width="3.0" fill="none" stroke="rgb(0, 0, 0)" stroke-opacity="1.0" stroke-linecap="round" stroke-linejoin="round"/>
    <path d="M 148.59805297851562 136.29469299316406 C 112.75801849365234 68.94873809814453 136.3785858154297 124.48971557617188 158.46832275390625 104.65143585205078" stroke-width="3.0" fill="none" stroke="rgb(0, 0, 0)" stroke-opacity="1.0" stroke-linecap="round" stroke-linejoin="round"/>
    <path d="M 129.69541931152344 124.35650634765625 C 123.49415588378906 94.23728942871094 63.05117416381836 85.95084381103516 72.08789825439453 126.99817657470703" stroke-width="3.0" fill="none" stroke="rgb(0, 0, 0)" stroke-opacity="1.0" stroke-linecap="round" stroke-linejoin="round"/>
    <path d="M 115.98709106445312 139.37303161621094 C 130.33892822265625 141.11920166015625 137.6707763671875 100.148681640625 119.44458770751953 106.02313995361328" stroke-width="3.0" fill="none" stroke="rgb(0, 0, 0)" stroke-opacity="1.0" stroke-linecap="round" stroke-linejoin="round"/>
    <path d="M 81.41839599609375 117.280029296875 C 48.62075424194336 135.35397338867188 129.74072265625 89.94074249267578 57.11794662475586 74.03608703613281" stroke-width="3.0" fill="none" stroke="rgb(0, 0, 0)" stroke-opacity="1.0" stroke-linecap="round" stroke-linejoin="round"/>
    <path d="M 150.2040252685547 110.52872467041016 C 136.31106567382812 149.11988830566406 218.72210693359375 150.93728637695312 135.83767700195312 141.2753143310547" stroke-width="3.0" fill="none" stroke="rgb(0, 0, 0)" stroke-opacity="1.0" stroke-linecap="round" stroke-linejoin="round"/>
    <path d="M 180.29135131835938 160.54835510253906 C 173.94981384277344 138.18484497070312 207.18380737304688 185.280517578125 169.60472106933594 145.39926147460938" stroke-width="3.0" fill="none" stroke="rgb(0, 0, 0)" stroke-opacity="1.0" stroke-linecap="round" stroke-linejoin="round"/>
    <path d="M 121.89936828613281 132.0950469970703 C 120.07232666015625 76.83025360107422 152.08200073242188 124.23612213134766 118.57637023925781 131.11793518066406" stroke-width="3.0" fill="none" stroke="rgb(0, 0, 0)" stroke-opacity="1.0" stroke-linecap="round" stroke-linejoin="round"/>
    <path d="M 133.78382873535156 151.47776794433594 C 156.38497924804688 126.46430206298828 157.35870361328125 96.99871826171875 133.47152709960938 149.14785766601562" stroke-width="3.0" fill="none" stroke="rgb(0, 0, 0)" stroke-opacity="1.0" stroke-linecap="round" stroke-linejoin="round"/>
    <path d="M 137.7640380859375 103.69667053222656 C 76.14070129394531 103.97628784179688 87.42118072509766 99.64242553710938 71.51806640625 85.24056243896484" stroke-width="3.0" fill="none" stroke="rgb(0, 0, 0)" stroke-opacity="1.0" stroke-linecap="round" stroke-linejoin="round"/>
    <path d="M 103.64938354492188 107.03570556640625 C 150.50167846679688 102.8055648803711 137.91156005859375 94.69808959960938 129.330810546875 136.8076934814453" stroke-width="3.0" fill="none" stroke="rgb(0, 0, 0)" stroke-opacity="1.0" stroke-linecap="round" stroke-linejoin="round"/>
    <path d="M 99.97517395019531 147.3909454345703 C 148.54010009765625 140.1547088623047 146.41644287109375 77.2466812133789 130.9688720703125 156.98727416992188" stroke-width="3.0" fill="none" stroke="rgb(0, 0, 0)" stroke-opacity="1.0" stroke-linecap="round" stroke-linejoin="round"/>
    <path d="M 81.49071502685547 95.87137603759766 C 47.90761947631836 68.58260345458984 23.458343505859375 117.19734954833984 58.82966995239258 82.25248718261719" stroke-width="3.0" fill="none" stroke="rgb(0, 0, 0)" stroke-opacity="1.0" stroke-linecap="round" stroke-linejoin="round"/>
    <path d="M 57.657257080078125 72.24282836914062 C 69.55693817138672 90.20500183105469 79.84271240234375 73.70336151123047 87.1111068725586 106.26464080810547" stroke-width="3.0" fill="none" stroke="rgb(0, 0, 0)" stroke-opacity="1.0" stroke-linecap="round" stroke-linejoin="round"/>
    <path d="M 90.6253433227539 100.99347686767578 C 57.439273834228516 76.19992065429688 7.621969699859619 97.21735382080078 73.94261932373047 84.1063003540039" stroke-width="3.0" fill="none" stroke="rgb(0, 0, 0)" stroke-opacity="1.0" stroke-linecap="round" stroke-linejoin="round"/>
    <path d="M 79.57117462158203 164.87774658203125 C 32.78012466430664 114.41657257080078 88.19690704345703 151.71890258789062 92.60397338867188 117.89335632324219" stroke-width="3.0" fill="none" stroke="rgb(0, 0, 0)" stroke-opacity="1.0" stroke-linecap="round" stroke-linejoin="round"/>
    <path d="M 135.7998046875 107.24270629882812 C 163.1560516357422 149.86825561523438 158.73336791992188 79.29782104492188 108.71430206298828 105.54546356201172" stroke-width="3.0" fill="none" stroke="rgb(0, 0, 0)" stroke-opacity="1.0" stroke-linecap="round" stroke-linejoin="round"/>
    <path d="M 125.68192291259766 114.78255462646484 C 139.6437225341797 212.76748657226562 151.21214294433594 113.64389038085938 128.3575439453125 100.26774597167969" stroke-width="3.0" fill="none" stroke="rgb(0, 0, 0)" stroke-opacity="1.0" stroke-linecap="round" stroke-linejoin="round"/>
    <path d="M 98.35938262939453 147.55538940429688 C 82.55681610107422 166.3689727783203 117.81206512451172 178.52920532226562 98.52926635742188 162.19508361816406" stroke-width="3.0" fill="none" stroke="rgb(0, 0, 0)" stroke-opacity="1.0" stroke-linecap="round" stroke-linejoin="round"/>
    <path d="M 81.72920227050781 129.4213104248047 C 131.01951599121094 142.37417602539062 137.78402709960938 122.6537094116211 142.50233459472656 110.75848388671875" stroke-width="3.0" fill="none" stroke="rgb(0, 0, 0)" stroke-opacity="1.0" stroke-linecap="round" stroke-linejoin="round"/>
    <path d="M 133.38424682617188 102.33808898925781 C 80.1498794555664 115.70085906982422 99.91575622558594 80.07255554199219 70.61231994628906 118.53761291503906" stroke-width="3.0" fill="none" stroke="rgb(0, 0, 0)" stroke-opacity="1.0" stroke-linecap="round" stroke-linejoin="round"/>
    <path d="M 145.5135955810547 109.66109466552734 C 165.30618286132812 110.02922821044922 121.1095199584961 151.36605834960938 142.29385375976562 134.22764587402344" stroke-width="3.0" fill="none" stroke="rgb(0, 0, 0)" stroke-opacity="1.0" stroke-linecap="round" stroke-linejoin="round"/>
    <path d="M 84.58348083496094 99.95435333251953 C 62.28586959838867 55.17684555053711 59.51062774658203 76.3284912109375 80.65824127197266 108.14154052734375" stroke-width="3.0" fill="none" stroke="rgb(0, 0, 0)" stroke-opacity="1.0" stroke-linecap="round" stroke-linejoin="round"/>
    <path d="M 75.51835632324219 125.60604858398438 C 127.63835906982422 135.6956024169922 103.65817260742188 134.97044372558594 94.32658386230469 121.49929809570312" stroke-width="3.0" fill="none" stroke="rgb(0, 0, 0)" stroke-opacity="1.0" stroke-linecap="round" stroke-linejoin="round"/>
    <path d="M 61.670955657958984 78.58649444580078 C 30.16944122314453 109.85994720458984 38.59018325805664 101.5879898071289 60.380794525146484 72.14957427978516" stroke-width="3.0" fill="none" stroke="rgb(0, 0, 0)" stroke-opacity="1.0" stroke-linecap="round" stroke-linejoin="round"/>
    <path d="M 83.55685424804688 173.81236267089844 C 96.53080749511719 156.0781707763672 27.331279754638672 141.24925231933594 94.06487274169922 123.92015075683594" stroke-width="3.0" fill="none" stroke="rgb(0, 0, 0)" stroke-opacity="1.0" stroke-linecap="round" stroke-linejoin="round"/>
    <path d="M 179.458740234375 121.03028106689453 C 168.42324829101562 118.36141204833984 170.00506591796875 86.82324981689453 150.00628662109375 106.45818328857422" stroke-width="3.0" fill="none" stroke="rgb(0, 0, 0)" stroke-opacity="1.0" stroke-linecap="round" stroke-linejoin="round"/>
    <path d="M 113.78724670410156 140.5773162841797 C 177.00479125976562 104.11219787597656 146.97987365722656 85.15824890136719 114.41594696044922 143.81939697265625" stroke-width="3.0" fill="none" stroke="rgb(0, 0, 0)" stroke-opacity="1.0" stroke-linecap="round" stroke-linejoin="round"/>
    <path d="M 55.51396942138672 83.07166290283203 C 106.27376556396484 108.99205017089844 93.7377700805664 112.2830581665039 61.964046478271484 83.13489532470703" stroke-width="3.0" fill="none" stroke="rgb(0, 0, 0)" stroke-opacity="1.0" stroke-linecap="round" stroke-linejoin="round"/>
    <path d="M 141.4575958251953 106.27477264404297 C 155.24716186523438 127.0902328491211 136.41441345214844 117.16362762451172 124.36074829101562 135.66371154785156" stroke-width="3.0" fill="none" stroke="rgb(0, 0, 0)" stroke-opacity="1.0" stroke-linecap="round" stroke-linejoin="round"/>
    <path d="M 71.32502746582031 85.72561645507812 C 129.71728515625 118.7010498046875 109.0794677734375 97.67070770263672 71.53575897216797 98.93824768066406" stroke-width="3.0" fill="none" stroke="rgb(0, 0, 0)" stroke-opacity="1.0" stroke-linecap="round" stroke-linejoin="round"/>
    <path d="M 131.0400848388672 103.73456573486328 C 139.91172790527344 141.61154174804688 127.3673324584961 112.97981262207031 125.26518249511719 102.09027099609375" stroke-width="3.0" fill="none" stroke="rgb(0, 0, 0)" stroke-opacity="1.0" stroke-linecap="round" stroke-linejoin="round"/>
    <path d="M 74.84797668457031 88.19747924804688 C 25.612960815429688 104.934326171875 71.11597442626953 58.17330551147461 87.92132568359375 103.93489837646484" stroke-width="3.0" fill="none" stroke="rgb(0, 0, 0)" stroke-opacity="1.0" stroke-linecap="round" stroke-linejoin="round"/>
    <path d="M 131.5987091064453 118.8818130493164 C 103.33870697021484 169.39840698242188 142.1927947998047 112.43309783935547 119.80955505371094 136.26834106445312" stroke-width="3.0" fill="none" stroke="rgb(0, 0, 0)" stroke-opacity="1.0" stroke-linecap="round" stroke-linejoin="round"/>
    <path d="M 113.62835693359375 135.1572265625 C 139.0171356201172 104.13392639160156 128.78758239746094 127.74298858642578 118.41136932373047 104.58287811279297" stroke-width="3.0" fill="none" stroke="rgb(0, 0, 0)" stroke-opacity="1.0" stroke-linecap="round" stroke-linejoin="round"/>
    <path d="M 138.2760467529297 152.92929077148438 C 126.5615234375 128.94290161132812 155.5172576904297 125.23432922363281 123.84333038330078 108.93477630615234" stroke-width="3.0" fill="none" stroke="rgb(0, 0, 0)" stroke-opacity="1.0" stroke-linecap="round" stroke-linejoin="round"/>
    <path d="M 116.21665954589844 103.88703918457031 C 139.62338256835938 153.10670471191406 171.40289306640625 125.59296417236328 109.80486297607422 175.57464599609375" stroke-width="3.0" fill="none" stroke="rgb(0, 0, 0)" stroke-opacity="1.0" stroke-linecap="round" stroke-linejoin="round"/>
    <path d="M 198.07965087890625 129.4550018310547 C 135.93748474121094 147.44793701171875 129.17916870117188 141.90847778320312 179.29930114746094 135.32241821289062" stroke-width="3.0" fill="none" stroke="rgb(0, 0, 0)" stroke-opacity="1.0" stroke-linecap="round" stroke-linejoin="round"/>
    <path d="M 130.82533264160156 116.8656997680664 C 95.6072006225586 94.06643676757812 171.29295349121094 88.01282501220703 133.3882293701172 132.62600708007812" stroke-width="3.0" fill="none" stroke="rgb(0, 0, 0)" stroke-opacity="1.0" stroke-linecap="round" stroke-linejoin="round"/>
    <path d="M 78.41163635253906 109.97686004638672 C 45.71458435058594 59.628562927246094 75.52522277832031 80.1307373046875 74.15345764160156 129.5015411376953" stroke-width="3.0" fill="none" stroke="rgb(0, 0, 0)" stroke-opacity="1.0" stroke-linecap="round" stroke-linejoin="round"/>
    <path d="M 75.60486602783203 129.21009826660156 C 155.2627716064453 149.96783447265625 102.19166564941406 129.10411071777344 75.69364166259766 126.98348236083984" stroke-width="3.0" fill="none" stroke="rgb(0, 0, 0)" stroke-opacity="1.0" stroke-linecap="round" stroke-linejoin="round"/>
    <path d="M 52.873836517333984 75.00297546386719 C 118.39947509765625 69.15612030029297 96.97456359863281 138.2173309326172 63.07302474975586 81.78948211669922" stroke-width="3.0" fill="none" stroke="rgb(0, 0, 0)" stroke-opacity="1.0" stroke-linecap="round" stroke-linejoin="round"/>
    <path d="M 130.49630737304688 122.38871002197266 C 113.13644409179688 100.97477722167969 156.71705627441406 92.91985321044922 147.2440948486328 129.88302612304688" stroke-width="3.0" fill="none" stroke="rgb(0, 0, 0)" stroke-opacity="1.0" stroke-linecap="round" stroke-linejoin="round"/>
    <path d="M 157.4521942138672 102.33910369873047 C 181.89759826660156 130.19032287597656 201.83448791503906 139.02597045898438 160.11114501953125 100.05674743652344" stroke-width="3.0" fill="none" stroke="rgb(0, 0, 0)" stroke-opacity="1.0" stroke-linecap="round" stroke-linejoin="round"/>
    <path d="M 55.964481353759766 78.81990814208984 C 64.3188705444336 86.06546783447266 54.0952262878418 56.77924346923828 76.83103942871094 112.22869110107422" stroke-width="3.0" fill="none" stroke="rgb(0, 0, 0)" stroke-opacity="1.0" stroke-linecap="round" stroke-linejoin="round"/>
    <path d="M 60.689144134521484 73.13560485839844 C 32.62668991088867 126.78417205810547 34.52348709106445 87.79566192626953 61.238067626953125 74.05636596679688" stroke-width="3.0" fill="none" stroke="rgb(0, 0, 0)" stroke-opacity="1.0" stroke-linecap="round" stroke-linejoin="round"/>
  </g>
</svg>
