<?xml version="1.0" ?>
<svg xmlns="http://www.w3.org/2000/svg" version="1.1" width="224" height="224">
  <defs/>
  <g>
    <path d="M 123.0757827758789 99.12234497070312 C 96.49381256103516 109.35283660888672 100.2102279663086 118.14305877685547 131.7326202392578 102.89041900634766" stroke-width="3.0" fill="none" stroke="rgb(0, 0, 0)" stroke-opacity="1.0" stroke-linecap="round" stroke-linejoin="round"/>
    <path d="M 158.5911865234375 107.23457336425781 C 170.20199584960938 131.6439971923828 213.36976623535156 127.09893035888672 199.21644592285156 132.37193298339844" stroke-width="3.0" fill="none" stroke="rgb(0, 0, 0)" stroke-opacity="1.0" stroke-linecap="round" stroke-linejoin="round"/>
    <path d="M 149.45533752441406 120.87457275390625 C 130.25909423828125 96.48506927490234 130.4198760986328 110.6403579711914 156.5640411376953 143.91738891601562" stroke-width="3.0" fill="none" stroke="rgb(0, 0, 0)" stroke-opacity="1.0" stroke-linecap="round" stroke-linejoin="round"/>
    <path d="M 145.97113037109375 110.56362915039062 C 121.26897430419922 93.91413116455078 112.31068420410156 120.1367416381836 158.3583526611328 104.0804443359375" stroke-width="3.0" fill="none" stroke="rgb(0, 0, 0)" stroke-opacity="1.0" stroke-linecap="round" stroke-linejoin="round"/>
    <path d="M 131.0718231201172 120.8355712890625 C 106.30137634277344 96.5202407836914 82.75306701660156 89.06703186035156 71.92121887207031 132.12319946289062" stroke-width="3.0" fill="none" stroke="rgb(0, 0, 0)" stroke-opacity="1.0" stroke-linecap="round" stroke-linejoin="round"/>
    <path d="M 127.9350814819336 102.0245590209961 C 136.41990661621094 122.70833587646484 155.25442504882812 111.58010864257812 136.57211303710938 101.883056640625" stroke-width="3.0" fill="none" stroke="rgb(0, 0, 0)" stroke-opacity="1.0" stroke-linecap="round" stroke-linejoin="round"/>
    <path d="M 82.20941162109375 133.93580627441406 C 55.1011962890625 105.73930358886719 93.81057739257812 123.97895812988281 62.316261291503906 82.41083526611328" stroke-width="3.0" fill="none" stroke="rgb(0, 0, 0)" stroke-opacity="1.0" stroke-linecap="round" stroke-linejoin="round"/>
    <path d="M 149.81092834472656 136.08682250976562 C 125.1245346069336 141.9633331298828 206.16200256347656 153.17706298828125 145.58229064941406 138.8118133544922" stroke-width="3.0" fill="none" stroke="rgb(0, 0, 0)" stroke-opacity="1.0" stroke-linecap="round" stroke-linejoin="round"/>
    <path d="M 184.9725799560547 163.5295867919922 C 189.25765991210938 151.49050903320312 187.04701232910156 167.89239501953125 164.16949462890625 145.60740661621094" stroke-width="3.0" fill="none" stroke="rgb(0, 0, 0)" stroke-opacity="1.0" stroke-linecap="round" stroke-linejoin="round"/>
    <path d="M 147.39794921875 119.68672180175781 C 128.87255859375 88.17204284667969 142.1953887939453 111.96968841552734 123.23465728759766 128.614501953125" stroke-width="3.0" fill="none" stroke="rgb(0, 0, 0)" stroke-opacity="1.0" stroke-linecap="round" stroke-linejoin="round"/>
    <path d="M 131.34210205078125 130.73565673828125 C 144.74057006835938 108.6607894897461 160.83364868164062 105.95892333984375 142.68069458007812 139.31898498535156" stroke-width="3.0" fill="none" stroke="rgb(0, 0, 0)" stroke-opacity="1.0" stroke-linecap="round" stroke-linejoin="round"/>
    <path d="M 130.8627471923828 99.9015121459961 C 104.55127716064453 105.53746795654297 113.97248077392578 107.02554321289062 83.68567657470703 103.83526611328125" stroke-width="3.0" fill="none" stroke="rgb(0, 0, 0)" stroke-opacity="1.0" stroke-linecap="round" stroke-linejoin="round"/>
    <path d="M 124.8349838256836 113.8660659790039 C 156.95742797851562 103.36536407470703 136.3865966796875 101.9990005493164 116.89005279541016 136.54742431640625" stroke-width="3.0" fill="none" stroke="rgb(0, 0, 0)" stroke-opacity="1.0" stroke-linecap="round" stroke-linejoin="round"/>
    <path d="M 98.27266693115234 148.82298278808594 C 136.51893615722656 140.26983642578125 151.7152099609375 93.74478149414062 132.69187927246094 158.0896759033203" stroke-width="3.0" fill="none" stroke="rgb(0, 0, 0)" stroke-opacity="1.0" stroke-linecap="round" stroke-linejoin="round"/>
    <path d="M 79.98854064941406 95.87397766113281 C 23.895912170410156 73.50585174560547 45.657657623291016 85.08732604980469 75.11703491210938 82.0655746459961" stroke-width="3.0" fill="none" stroke="rgb(0, 0, 0)" stroke-opacity="1.0" stroke-linecap="round" stroke-linejoin="round"/>
    <path d="M 52.052734375 72.79015350341797 C 63.96446990966797 88.23587036132812 82.64329528808594 67.58781433105469 83.06855773925781 102.53433990478516" stroke-width="3.0" fill="none" stroke="rgb(0, 0, 0)" stroke-opacity="1.0" stroke-linecap="round" stroke-linejoin="round"/>
    <path d="M 61.68817138671875 86.42547607421875 C 50.34930419921875 72.7728042602539 37.905433654785156 100.22513580322266 66.11458587646484 85.91162872314453" stroke-width="3.0" fill="none" stroke="rgb(0, 0, 0)" stroke-opacity="1.0" stroke-linecap="round" stroke-linejoin="round"/>
    <path d="M 60.69376754760742 141.55186462402344 C 86.08940887451172 124.53533172607422 74.94343566894531 140.74058532714844 92.94649505615234 122.49148559570312" stroke-width="3.0" fill="none" stroke="rgb(0, 0, 0)" stroke-opacity="1.0" stroke-linecap="round" stroke-linejoin="round"/>
    <path d="M 125.6156234741211 107.3533935546875 C 148.73739624023438 136.461669921875 156.21368408203125 100.55122375488281 124.93272399902344 100.5316390991211" stroke-width="3.0" fill="none" stroke="rgb(0, 0, 0)" stroke-opacity="1.0" stroke-linecap="round" stroke-linejoin="round"/>
    <path d="M 134.6843719482422 149.9237518310547 C 140.10589599609375 165.16075134277344 121.12336730957031 143.13601684570312 149.42050170898438 117.12950134277344" stroke-width="3.0" fill="none" stroke="rgb(0, 0, 0)" stroke-opacity="1.0" stroke-linecap="round" stroke-linejoin="round"/>
    <path d="M 98.23683166503906 150.26425170898438 C 85.8330078125 170.28477478027344 120.0482406616211 165.71578979492188 106.34144592285156 174.60667419433594" stroke-width="3.0" fill="none" stroke="rgb(0, 0, 0)" stroke-opacity="1.0" stroke-linecap="round" stroke-linejoin="round"/>
    <path d="M 82.87825775146484 132.763916015625 C 134.2442626953125 128.95999145507812 134.510498046875 137.82235717773438 143.454345703125 119.8360366821289" stroke-width="3.0" fill="none" stroke="rgb(0, 0, 0)" stroke-opacity="1.0" stroke-linecap="round" stroke-linejoin="round"/>
    <path d="M 128.21511840820312 101.59931182861328 C 102.36328887939453 108.6449203491211 89.68528747558594 98.85549926757812 79.02783966064453 112.18726348876953" stroke-width="3.0" fill="none" stroke="rgb(0, 0, 0)" stroke-opacity="1.0" stroke-linecap="round" stroke-linejoin="round"/>
    <path d="M 142.9733428955078 107.52995300292969 C 145.35032653808594 145.3849334716797 126.7475814819336 133.29379272460938 146.1074676513672 122.8735122680664" stroke-width="3.0" fill="none" stroke="rgb(0, 0, 0)" stroke-opacity="1.0" stroke-linecap="round" stroke-linejoin="round"/>
    <path d="M 54.88235092163086 74.06497955322266 C 50.3835563659668 76.19159698486328 90.04058074951172 66.7603530883789 90.06784057617188 95.68046569824219" stroke-width="3.0" fill="none" stroke="rgb(0, 0, 0)" stroke-opacity="1.0" stroke-linecap="round" stroke-linejoin="round"/>
    <path d="M 99.34326934814453 125.58152770996094 C 99.1424789428711 128.92117309570312 78.99559783935547 136.70068359375 91.79285430908203 113.67378997802734" stroke-width="3.0" fill="none" stroke="rgb(0, 0, 0)" stroke-opacity="1.0" stroke-linecap="round" stroke-linejoin="round"/>
    <path d="M 58.34575271606445 72.1544418334961 C 25.818836212158203 101.27136993408203 41.19094467163086 110.87246704101562 53.46591567993164 76.14649200439453" stroke-width="3.0" fill="none" stroke="rgb(0, 0, 0)" stroke-opacity="1.0" stroke-linecap="round" stroke-linejoin="round"/>
    <path d="M 81.84181213378906 169.17897033691406 C 91.94794464111328 158.03713989257812 31.998586654663086 138.5663604736328 77.76579284667969 131.2769317626953" stroke-width="3.0" fill="none" stroke="rgb(0, 0, 0)" stroke-opacity="1.0" stroke-linecap="round" stroke-linejoin="round"/>
    <path d="M 180.5394287109375 118.58058166503906 C 163.6605987548828 113.45710754394531 168.04574584960938 87.13394927978516 147.2224884033203 104.84973907470703" stroke-width="3.0" fill="none" stroke="rgb(0, 0, 0)" stroke-opacity="1.0" stroke-linecap="round" stroke-linejoin="round"/>
    <path d="M 125.30292510986328 117.64058685302734 C 130.2691192626953 101.46724700927734 126.28829956054688 94.87329864501953 123.24785614013672 135.27244567871094" stroke-width="3.0" fill="none" stroke="rgb(0, 0, 0)" stroke-opacity="1.0" stroke-linecap="round" stroke-linejoin="round"/>
    <path d="M 69.13633728027344 82.16748046875 C 99.98567199707031 114.31587219238281 65.66554260253906 123.84317779541016 96.3842544555664 95.30005645751953" stroke-width="3.0" fill="none" stroke="rgb(0, 0, 0)" stroke-opacity="1.0" stroke-linecap="round" stroke-linejoin="round"/>
    <path d="M 131.47715759277344 123.00582122802734 C 149.63372802734375 142.6271209716797 112.3227767944336 129.96470642089844 115.57921600341797 142.67532348632812" stroke-width="3.0" fill="none" stroke="rgb(0, 0, 0)" stroke-opacity="1.0" stroke-linecap="round" stroke-linejoin="round"/>
    <path d="M 92.2551498413086 94.25505065917969 C 118.98644256591797 111.3104019165039 107.07512664794922 108.80233764648438 83.24639892578125 104.07280731201172" stroke-width="3.0" fill="none" stroke="rgb(0, 0, 0)" stroke-opacity="1.0" stroke-linecap="round" stroke-linejoin="round"/>
    <path d="M 134.92750549316406 112.94397735595703 C 140.14068603515625 127.06864166259766 127.226806640625 121.72476196289062 132.40428161621094 103.54292297363281" stroke-width="3.0" fill="none" stroke="rgb(0, 0, 0)" stroke-opacity="1.0" stroke-linecap="round" stroke-linejoin="round"/>
    <path d="M 60.88020324707031 84.59537506103516 C 34.96455764770508 106.00047302246094 54.71482467651367 76.9096908569336 71.39546203613281 86.61003875732422" stroke-width="3.0" fill="none" stroke="rgb(0, 0, 0)" stroke-opacity="1.0" stroke-linecap="round" stroke-linejoin="round"/>
    <path d="M 117.44035339355469 105.79395294189453 C 134.24380493164062 134.20516967773438 160.88339233398438 112.35031127929688 137.94969177246094 135.45066833496094" stroke-width="3.0" fill="none" stroke="rgb(0, 0, 0)" stroke-opacity="1.0" stroke-linecap="round" stroke-linejoin="round"/>
    <path d="M 129.3734588623047 132.36541748046875 C 142.55026245117188 104.05962371826172 131.14590454101562 126.32666778564453 112.79203033447266 132.07070922851562" stroke-width="3.0" fill="none" stroke="rgb(0, 0, 0)" stroke-opacity="1.0" stroke-linecap="round" stroke-linejoin="round"/>
    <path d="M 147.02232360839844 108.01742553710938 C 129.9017791748047 103.35325622558594 137.462158203125 89.35750579833984 151.02850341796875 118.39897155761719" stroke-width="3.0" fill="none" stroke="rgb(0, 0, 0)" stroke-opacity="1.0" stroke-linecap="round" stroke-linejoin="round"/>
    <path d="M 127.802978515625 115.0572280883789 C 136.78672790527344 173.93789672851562 152.4942626953125 145.00665283203125 113.87419891357422 167.8899383544922" stroke-width="3.0" fill="none" stroke="rgb(0, 0, 0)" stroke-opacity="1.0" stroke-linecap="round" stroke-linejoin="round"/>
    <path d="M 200.51123046875 134.38902282714844 C 165.78170776367188 112.92085266113281 143.09237670898438 91.0989761352539 175.7897186279297 120.50788116455078" stroke-width="3.0" fill="none" stroke="rgb(0, 0, 0)" stroke-opacity="1.0" stroke-linecap="round" stroke-linejoin="round"/>
    <path d="M 129.69479370117188 116.46095275878906 C 105.10928344726562 89.88539123535156 154.24546813964844 92.76473236083984 152.1422576904297 119.60881805419922" stroke-width="3.0" fill="none" stroke="rgb(0, 0, 0)" stroke-opacity="1.0" stroke-linecap="round" stroke-linejoin="round"/>
    <path d="M 65.666015625 80.60775756835938 C 49.1239128112793 72.40908813476562 80.2476806640625 98.72651672363281 70.1238784790039 116.80962371826172" stroke-width="3.0" fill="none" stroke="rgb(0, 0, 0)" stroke-opacity="1.0" stroke-linecap="round" stroke-linejoin="round"/>
    <path d="M 91.37322235107422 130.3082733154297 C 119.86832427978516 133.64321899414062 92.46212768554688 134.65350341796875 91.88578033447266 123.16761779785156" stroke-width="3.0" fill="none" stroke="rgb(0, 0, 0)" stroke-opacity="1.0" stroke-linecap="round" stroke-linejoin="round"/>
    <path d="M 55.20808029174805 76.27667236328125 C 82.03840637207031 81.47007751464844 85.20409393310547 95.17036437988281 61.902469635009766 85.3428955078125" stroke-width="3.0" fill="none" stroke="rgb(0, 0, 0)" stroke-opacity="1.0" stroke-linecap="round" stroke-linejoin="round"/>
    <path d="M 139.8927764892578 120.02764129638672 C 146.48773193359375 131.5513458251953 128.6366424560547 113.71591186523438 118.39118957519531 141.8895721435547" stroke-width="3.0" fill="none" stroke="rgb(0, 0, 0)" stroke-opacity="1.0" stroke-linecap="round" stroke-linejoin="round"/>
    <path d="M 157.8304443359375 99.92011260986328 C 186.49501037597656 121.21766662597656 196.87783813476562 137.6149139404297 162.74388122558594 113.0804443359375" stroke-width="3.0" fill="none" stroke="rgb(0, 0, 0)" stroke-opacity="1.0" stroke-linecap="round" stroke-linejoin="round"/>
    <path d="M 41.246578216552734 91.92706298828125 C 58.53940200805664 98.72534942626953 50.86119079589844 92.16853332519531 70.65110778808594 85.72242736816406" stroke-width="3.0" fill="none" stroke="rgb(0, 0, 0)" stroke-opacity="1.0" stroke-linecap="round" stroke-linejoin="round"/>
    <path d="M 54.70643615722656 80.7619857788086 C 47.07835006713867 103.1159439086914 53.915306091308594 87.54658508300781 68.96245574951172 86.33226013183594" stroke-width="3.0" fill="none" stroke="rgb(0, 0, 0)" stroke-opacity="1.0" stroke-linecap="round" stroke-linejoin="round"/>
  </g>
</svg>
