<?xml version="1.0" ?>
<svg xmlns="http://www.w3.org/2000/svg" version="1.1" width="224" height="224">
  <defs/>
  <g>
    <path d="M 129.1624298095703 112.08015441894531 C 97.37364959716797 95.91357421875 97.94389343261719 106.82992553710938 134.05609130859375 103.38838195800781" stroke-width="3.0" fill="none" stroke="rgb(0, 0, 0)" stroke-opacity="1.0" stroke-linecap="round" stroke-linejoin="round"/>
    <path d="M 158.22769165039062 108.92672729492188 C 155.30880737304688 128.52867126464844 222.5679168701172 126.57569885253906 195.61434936523438 131.94403076171875" stroke-width="3.0" fill="none" stroke="rgb(0, 0, 0)" stroke-opacity="1.0" stroke-linecap="round" stroke-linejoin="round"/>
    <path d="M 147.31541442871094 128.7410125732422 C 142.1385955810547 93.59534454345703 131.08544921875 117.57257843017578 151.92088317871094 144.26878356933594" stroke-width="3.0" fill="none" stroke="rgb(0, 0, 0)" stroke-opacity="1.0" stroke-linecap="round" stroke-linejoin="round"/>
    <path d="M 139.63760375976562 127.68773651123047 C 119.72303771972656 100.96632385253906 108.7030258178711 118.29387664794922 156.1148223876953 104.07180786132812" stroke-width="3.0" fill="none" stroke="rgb(0, 0, 0)" stroke-opacity="1.0" stroke-linecap="round" stroke-linejoin="round"/>
    <path d="M 127.214111328125 119.20435333251953 C 120.04149627685547 96.94338989257812 85.26895904541016 91.58972930908203 73.97796630859375 130.66310119628906" stroke-width="3.0" fill="none" stroke="rgb(0, 0, 0)" stroke-opacity="1.0" stroke-linecap="round" stroke-linejoin="round"/>
    <path d="M 135.7681427001953 104.35633850097656 C 140.67066955566406 120.37149810791016 154.37184143066406 112.01783752441406 133.09132385253906 102.86173248291016" stroke-width="3.0" fill="none" stroke="rgb(0, 0, 0)" stroke-opacity="1.0" stroke-linecap="round" stroke-linejoin="round"/>
    <path d="M 84.75257110595703 134.19412231445312 C 53.004817962646484 107.48023986816406 92.9969253540039 116.63899993896484 61.2947883605957 81.68389129638672" stroke-width="3.0" fill="none" stroke="rgb(0, 0, 0)" stroke-opacity="1.0" stroke-linecap="round" stroke-linejoin="round"/>
    <path d="M 155.23007202148438 142.5643310546875 C 105.90419006347656 138.91348266601562 204.56834411621094 152.19775390625 144.0595703125 139.49488830566406" stroke-width="3.0" fill="none" stroke="rgb(0, 0, 0)" stroke-opacity="1.0" stroke-linecap="round" stroke-linejoin="round"/>
    <path d="M 181.54742431640625 160.22654724121094 C 184.60067749023438 142.08407592773438 190.31507873535156 170.64161682128906 164.16505432128906 146.47760009765625" stroke-width="3.0" fill="none" stroke="rgb(0, 0, 0)" stroke-opacity="1.0" stroke-linecap="round" stroke-linejoin="round"/>
    <path d="M 151.20077514648438 117.26699829101562 C 131.62417602539062 85.93926239013672 134.9556884765625 110.11904907226562 118.97399139404297 130.10525512695312" stroke-width="3.0" fill="none" stroke="rgb(0, 0, 0)" stroke-opacity="1.0" stroke-linecap="round" stroke-linejoin="round"/>
    <path d="M 132.23892211914062 144.93247985839844 C 145.4270782470703 122.252197265625 158.415771484375 115.50257873535156 142.17042541503906 141.6531219482422" stroke-width="3.0" fill="none" stroke="rgb(0, 0, 0)" stroke-opacity="1.0" stroke-linecap="round" stroke-linejoin="round"/>
    <path d="M 134.7069091796875 101.66807556152344 C 104.57981872558594 100.29318237304688 112.30216979980469 103.9385757446289 84.02527618408203 108.2750015258789" stroke-width="3.0" fill="none" stroke="rgb(0, 0, 0)" stroke-opacity="1.0" stroke-linecap="round" stroke-linejoin="round"/>
    <path d="M 125.3585205078125 113.34798431396484 C 155.44570922851562 101.06199645996094 134.71807861328125 99.81575012207031 117.83680725097656 140.7921905517578" stroke-width="3.0" fill="none" stroke="rgb(0, 0, 0)" stroke-opacity="1.0" stroke-linecap="round" stroke-linejoin="round"/>
    <path d="M 99.02427673339844 148.3321075439453 C 141.00462341308594 141.01904296875 153.64768981933594 92.247314453125 132.019775390625 158.979248046875" stroke-width="3.0" fill="none" stroke="rgb(0, 0, 0)" stroke-opacity="1.0" stroke-linecap="round" stroke-linejoin="round"/>
    <path d="M 76.37793731689453 84.04763793945312 C 30.434066772460938 73.9439468383789 40.02965545654297 92.39020538330078 64.43201446533203 84.38729858398438" stroke-width="3.0" fill="none" stroke="rgb(0, 0, 0)" stroke-opacity="1.0" stroke-linecap="round" stroke-linejoin="round"/>
    <path d="M 54.49470138549805 71.14264678955078 C 63.722862243652344 87.33128356933594 80.11927032470703 66.39864349365234 82.7908706665039 103.20076751708984" stroke-width="3.0" fill="none" stroke="rgb(0, 0, 0)" stroke-opacity="1.0" stroke-linecap="round" stroke-linejoin="round"/>
    <path d="M 75.39884185791016 83.65775299072266 C 58.73073959350586 68.84393310546875 44.81333541870117 95.61722564697266 66.00894165039062 87.9275894165039" stroke-width="3.0" fill="none" stroke="rgb(0, 0, 0)" stroke-opacity="1.0" stroke-linecap="round" stroke-linejoin="round"/>
    <path d="M 61.398162841796875 144.27220153808594 C 83.9673843383789 124.0517349243164 75.4447021484375 150.78639221191406 97.31735229492188 124.35916900634766" stroke-width="3.0" fill="none" stroke="rgb(0, 0, 0)" stroke-opacity="1.0" stroke-linecap="round" stroke-linejoin="round"/>
    <path d="M 128.17486572265625 104.02090454101562 C 154.41204833984375 139.6314239501953 154.08677673339844 86.41629028320312 118.2048568725586 100.70645141601562" stroke-width="3.0" fill="none" stroke="rgb(0, 0, 0)" stroke-opacity="1.0" stroke-linecap="round" stroke-linejoin="round"/>
    <path d="M 133.21275329589844 137.83319091796875 C 145.49549865722656 183.01112365722656 120.134033203125 142.3084716796875 137.0717010498047 104.55097198486328" stroke-width="3.0" fill="none" stroke="rgb(0, 0, 0)" stroke-opacity="1.0" stroke-linecap="round" stroke-linejoin="round"/>
    <path d="M 98.1100845336914 149.18284606933594 C 81.69139099121094 163.98255920410156 120.73336029052734 166.78956604003906 102.12026977539062 167.17567443847656" stroke-width="3.0" fill="none" stroke="rgb(0, 0, 0)" stroke-opacity="1.0" stroke-linecap="round" stroke-linejoin="round"/>
    <path d="M 71.04478454589844 133.6001434326172 C 135.46615600585938 129.63796997070312 130.2042236328125 139.33360290527344 139.01104736328125 115.24463653564453" stroke-width="3.0" fill="none" stroke="rgb(0, 0, 0)" stroke-opacity="1.0" stroke-linecap="round" stroke-linejoin="round"/>
    <path d="M 139.430419921875 107.40514373779297 C 91.38896942138672 108.00470733642578 103.83885955810547 90.86177825927734 74.7731704711914 113.70462799072266" stroke-width="3.0" fill="none" stroke="rgb(0, 0, 0)" stroke-opacity="1.0" stroke-linecap="round" stroke-linejoin="round"/>
    <path d="M 142.68081665039062 110.55906677246094 C 149.85574340820312 140.77706909179688 136.16476440429688 126.41621398925781 144.224853515625 115.70624542236328" stroke-width="3.0" fill="none" stroke="rgb(0, 0, 0)" stroke-opacity="1.0" stroke-linecap="round" stroke-linejoin="round"/>
    <path d="M 59.02262496948242 79.20793914794922 C 40.15095520019531 81.9219970703125 69.92255401611328 78.24417877197266 96.48987579345703 108.88301086425781" stroke-width="3.0" fill="none" stroke="rgb(0, 0, 0)" stroke-opacity="1.0" stroke-linecap="round" stroke-linejoin="round"/>
    <path d="M 96.32736206054688 128.63201904296875 C 108.519775390625 130.71710205078125 84.97978973388672 139.28656005859375 96.102783203125 124.02476501464844" stroke-width="3.0" fill="none" stroke="rgb(0, 0, 0)" stroke-opacity="1.0" stroke-linecap="round" stroke-linejoin="round"/>
    <path d="M 59.71515655517578 71.45712280273438 C 24.195524215698242 100.70391082763672 39.98375701904297 107.70230865478516 58.941017150878906 75.24760437011719" stroke-width="3.0" fill="none" stroke="rgb(0, 0, 0)" stroke-opacity="1.0" stroke-linecap="round" stroke-linejoin="round"/>
    <path d="M 83.14167022705078 171.55465698242188 C 94.74754333496094 158.09579467773438 31.339336395263672 138.5741729736328 78.2404556274414 130.59796142578125" stroke-width="3.0" fill="none" stroke="rgb(0, 0, 0)" stroke-opacity="1.0" stroke-linecap="round" stroke-linejoin="round"/>
    <path d="M 182.56968688964844 125.07396697998047 C 166.0111846923828 113.39501953125 161.90597534179688 86.71319580078125 150.5708770751953 106.34650421142578" stroke-width="3.0" fill="none" stroke="rgb(0, 0, 0)" stroke-opacity="1.0" stroke-linecap="round" stroke-linejoin="round"/>
    <path d="M 119.5846939086914 129.55105590820312 C 135.8935546875 102.38136291503906 133.94654846191406 97.14836120605469 129.9796905517578 138.4107666015625" stroke-width="3.0" fill="none" stroke="rgb(0, 0, 0)" stroke-opacity="1.0" stroke-linecap="round" stroke-linejoin="round"/>
    <path d="M 62.31267547607422 79.0492172241211 C 97.21292877197266 105.91073608398438 59.34541702270508 119.40031433105469 93.25135040283203 99.2383041381836" stroke-width="3.0" fill="none" stroke="rgb(0, 0, 0)" stroke-opacity="1.0" stroke-linecap="round" stroke-linejoin="round"/>
    <path d="M 130.9504852294922 115.88349914550781 C 142.5663299560547 142.33984375 114.64588928222656 129.19273376464844 116.09777069091797 140.7000274658203" stroke-width="3.0" fill="none" stroke="rgb(0, 0, 0)" stroke-opacity="1.0" stroke-linecap="round" stroke-linejoin="round"/>
    <path d="M 75.49990844726562 93.04947662353516 C 129.91873168945312 117.4513168334961 118.36953735351562 107.51390075683594 86.47736358642578 89.5281753540039" stroke-width="3.0" fill="none" stroke="rgb(0, 0, 0)" stroke-opacity="1.0" stroke-linecap="round" stroke-linejoin="round"/>
    <path d="M 131.4970703125 112.71744537353516 C 144.77598571777344 147.9309844970703 127.78105163574219 130.71583557128906 126.72631072998047 104.1670150756836" stroke-width="3.0" fill="none" stroke="rgb(0, 0, 0)" stroke-opacity="1.0" stroke-linecap="round" stroke-linejoin="round"/>
    <path d="M 59.855621337890625 79.21859741210938 C 33.531455993652344 105.38156127929688 63.67892074584961 80.91706848144531 68.34808349609375 83.35990142822266" stroke-width="3.0" fill="none" stroke="rgb(0, 0, 0)" stroke-opacity="1.0" stroke-linecap="round" stroke-linejoin="round"/>
    <path d="M 121.5145492553711 105.65167236328125 C 142.58140563964844 128.07754516601562 165.8274383544922 106.75494384765625 131.56431579589844 136.5349884033203" stroke-width="3.0" fill="none" stroke="rgb(0, 0, 0)" stroke-opacity="1.0" stroke-linecap="round" stroke-linejoin="round"/>
    <path d="M 115.5091323852539 130.99900817871094 C 149.1109161376953 113.12413024902344 138.19281005859375 137.1354217529297 120.00718688964844 133.75262451171875" stroke-width="3.0" fill="none" stroke="rgb(0, 0, 0)" stroke-opacity="1.0" stroke-linecap="round" stroke-linejoin="round"/>
    <path d="M 148.08099365234375 115.50130462646484 C 127.0858154296875 116.5614242553711 140.88803100585938 98.81973266601562 149.07373046875 122.74987030029297" stroke-width="3.0" fill="none" stroke="rgb(0, 0, 0)" stroke-opacity="1.0" stroke-linecap="round" stroke-linejoin="round"/>
    <path d="M 135.16737365722656 108.26634979248047 C 134.68728637695312 185.53823852539062 152.54945373535156 137.04864501953125 110.05145263671875 174.58859252929688" stroke-width="3.0" fill="none" stroke="rgb(0, 0, 0)" stroke-opacity="1.0" stroke-linecap="round" stroke-linejoin="round"/>
    <path d="M 201.0517578125 131.892822265625 C 161.19078063964844 125.10929107666016 145.80435180664062 89.98550415039062 182.20668029785156 125.336669921875" stroke-width="3.0" fill="none" stroke="rgb(0, 0, 0)" stroke-opacity="1.0" stroke-linecap="round" stroke-linejoin="round"/>
    <path d="M 135.67494201660156 115.89580535888672 C 102.490234375 92.99430847167969 153.33624267578125 95.6812973022461 152.04974365234375 122.69343566894531" stroke-width="3.0" fill="none" stroke="rgb(0, 0, 0)" stroke-opacity="1.0" stroke-linecap="round" stroke-linejoin="round"/>
    <path d="M 63.87559509277344 83.53253936767578 C 43.929256439208984 78.11058807373047 79.92896270751953 86.7513656616211 72.8930435180664 121.64799499511719" stroke-width="3.0" fill="none" stroke="rgb(0, 0, 0)" stroke-opacity="1.0" stroke-linecap="round" stroke-linejoin="round"/>
    <path d="M 81.72813415527344 133.837646484375 C 136.39141845703125 138.1265411376953 103.83229064941406 137.6556396484375 96.4373779296875 120.95928955078125" stroke-width="3.0" fill="none" stroke="rgb(0, 0, 0)" stroke-opacity="1.0" stroke-linecap="round" stroke-linejoin="round"/>
    <path d="M 58.23810958862305 74.1352767944336 C 96.90624237060547 68.24970245361328 99.82257843017578 117.55734252929688 72.23442840576172 83.6422348022461" stroke-width="3.0" fill="none" stroke="rgb(0, 0, 0)" stroke-opacity="1.0" stroke-linecap="round" stroke-linejoin="round"/>
    <path d="M 140.2912139892578 118.55915832519531 C 151.52154541015625 127.40840911865234 144.04739379882812 113.44647979736328 120.77471923828125 136.30381774902344" stroke-width="3.0" fill="none" stroke="rgb(0, 0, 0)" stroke-opacity="1.0" stroke-linecap="round" stroke-linejoin="round"/>
    <path d="M 155.43797302246094 103.08600616455078 C 191.39126586914062 121.83793640136719 201.39657592773438 139.7105712890625 166.50978088378906 107.99683380126953" stroke-width="3.0" fill="none" stroke="rgb(0, 0, 0)" stroke-opacity="1.0" stroke-linecap="round" stroke-linejoin="round"/>
    <path d="M 40.88797378540039 91.02277374267578 C 57.11931228637695 97.39724731445312 55.73824691772461 89.35106658935547 71.47953033447266 79.98818969726562" stroke-width="3.0" fill="none" stroke="rgb(0, 0, 0)" stroke-opacity="1.0" stroke-linecap="round" stroke-linejoin="round"/>
    <path d="M 60.74357223510742 74.60686492919922 C 40.438392639160156 104.40849304199219 50.25210952758789 85.77880096435547 60.25583267211914 75.07025909423828" stroke-width="3.0" fill="none" stroke="rgb(0, 0, 0)" stroke-opacity="1.0" stroke-linecap="round" stroke-linejoin="round"/>
  </g>
</svg>
