<?xml version="1.0" ?>
<svg xmlns="http://www.w3.org/2000/svg" version="1.1" width="224" height="224">
  <defs/>
  <g>
    <path d="M 112.409912109375 109.6801528930664 C 105.9505615234375 107.36563110351562 101.79894256591797 103.8131103515625 122.5531997680664 106.39706420898438" stroke-width="3.0" fill="none" stroke="rgb(0, 0, 0)" stroke-opacity="1.0" stroke-linecap="round" stroke-linejoin="round"/>
    <path d="M 164.2577667236328 113.18546295166016 C 179.95645141601562 131.17320251464844 192.2186279296875 123.36779022216797 203.1995849609375 131.8069610595703" stroke-width="3.0" fill="none" stroke="rgb(0, 0, 0)" stroke-opacity="1.0" stroke-linecap="round" stroke-linejoin="round"/>
    <path d="M 135.61312866210938 119.10187530517578 C 139.03561401367188 115.41796112060547 140.1514129638672 113.11324310302734 149.2651824951172 134.970703125" stroke-width="3.0" fill="none" stroke="rgb(0, 0, 0)" stroke-opacity="1.0" stroke-linecap="round" stroke-linejoin="round"/>
    <path d="M 113.44141387939453 111.6530990600586 C 109.03933715820312 114.80068969726562 103.82952880859375 113.55244445800781 123.28062438964844 113.0245590209961" stroke-width="3.0" fill="none" stroke="rgb(0, 0, 0)" stroke-opacity="1.0" stroke-linecap="round" stroke-linejoin="round"/>
    <path d="M 103.723876953125 111.9424057006836 C 93.83090209960938 100.78946685791016 94.98011779785156 95.31664276123047 85.47570037841797 110.13372802734375" stroke-width="3.0" fill="none" stroke="rgb(0, 0, 0)" stroke-opacity="1.0" stroke-linecap="round" stroke-linejoin="round"/>
    <path d="M 141.7953338623047 124.163330078125 C 139.87599182128906 121.00211334228516 146.25904846191406 120.17860412597656 128.67901611328125 113.99108123779297" stroke-width="3.0" fill="none" stroke="rgb(0, 0, 0)" stroke-opacity="1.0" stroke-linecap="round" stroke-linejoin="round"/>
    <path d="M 87.8321762084961 120.69750213623047 C 82.43235778808594 99.8866958618164 78.08130645751953 109.32223510742188 75.49124145507812 91.39088439941406" stroke-width="3.0" fill="none" stroke="rgb(0, 0, 0)" stroke-opacity="1.0" stroke-linecap="round" stroke-linejoin="round"/>
    <path d="M 152.11505126953125 138.7325439453125 C 149.42825317382812 140.35716247558594 172.61415100097656 146.2643280029297 148.15133666992188 141.8284454345703" stroke-width="3.0" fill="none" stroke="rgb(0, 0, 0)" stroke-opacity="1.0" stroke-linecap="round" stroke-linejoin="round"/>
    <path d="M 188.7532501220703 164.47149658203125 C 162.70272827148438 147.9732208251953 179.71853637695312 159.86669921875 174.99099731445312 151.38385009765625" stroke-width="3.0" fill="none" stroke="rgb(0, 0, 0)" stroke-opacity="1.0" stroke-linecap="round" stroke-linejoin="round"/>
    <path d="M 139.79640197753906 104.26592254638672 C 132.1239013671875 109.28180694580078 125.02314758300781 109.64037322998047 116.05501556396484 121.69493865966797" stroke-width="3.0" fill="none" stroke="rgb(0, 0, 0)" stroke-opacity="1.0" stroke-linecap="round" stroke-linejoin="round"/>
    <path d="M 134.06134033203125 139.89157104492188 C 144.37826538085938 120.0479736328125 145.7369842529297 117.80623626708984 147.2633514404297 136.23927307128906" stroke-width="3.0" fill="none" stroke="rgb(0, 0, 0)" stroke-opacity="1.0" stroke-linecap="round" stroke-linejoin="round"/>
    <path d="M 116.25476837158203 112.77987670898438 C 111.18942260742188 104.4439926147461 102.22604370117188 103.08558654785156 95.81219482421875 102.96812438964844" stroke-width="3.0" fill="none" stroke="rgb(0, 0, 0)" stroke-opacity="1.0" stroke-linecap="round" stroke-linejoin="round"/>
    <path d="M 113.47041320800781 108.58966827392578 C 127.16979217529297 108.54309844970703 116.80001068115234 95.62468719482422 117.10931396484375 122.78888702392578" stroke-width="3.0" fill="none" stroke="rgb(0, 0, 0)" stroke-opacity="1.0" stroke-linecap="round" stroke-linejoin="round"/>
    <path d="M 90.83952331542969 147.65084838867188 C 129.68020629882812 149.97500610351562 139.12416076660156 145.27452087402344 126.58634185791016 156.1602783203125" stroke-width="3.0" fill="none" stroke="rgb(0, 0, 0)" stroke-opacity="1.0" stroke-linecap="round" stroke-linejoin="round"/>
    <path d="M 62.20073699951172 78.73210144042969 C 61.71470642089844 63.979034423828125 71.15345764160156 76.37432098388672 83.09565734863281 88.97083282470703" stroke-width="3.0" fill="none" stroke="rgb(0, 0, 0)" stroke-opacity="1.0" stroke-linecap="round" stroke-linejoin="round"/>
    <path d="M 70.62907409667969 75.57945251464844 C 84.36384582519531 78.42283630371094 84.54617309570312 78.95181274414062 90.80046081542969 88.61000061035156" stroke-width="3.0" fill="none" stroke="rgb(0, 0, 0)" stroke-opacity="1.0" stroke-linecap="round" stroke-linejoin="round"/>
    <path d="M 56.679203033447266 74.68383026123047 C 73.40754699707031 75.5328140258789 76.93081665039062 74.37564849853516 76.77095031738281 77.98606872558594" stroke-width="3.0" fill="none" stroke="rgb(0, 0, 0)" stroke-opacity="1.0" stroke-linecap="round" stroke-linejoin="round"/>
    <path d="M 69.02607727050781 129.07435607910156 C 70.15741729736328 128.93324279785156 61.37171936035156 132.89303588867188 86.25071716308594 131.88232421875" stroke-width="3.0" fill="none" stroke="rgb(0, 0, 0)" stroke-opacity="1.0" stroke-linecap="round" stroke-linejoin="round"/>
    <path d="M 123.32201385498047 117.1714096069336 C 161.21258544921875 130.4561767578125 152.99905395507812 117.67459106445312 127.58638000488281 116.58370971679688" stroke-width="3.0" fill="none" stroke="rgb(0, 0, 0)" stroke-opacity="1.0" stroke-linecap="round" stroke-linejoin="round"/>
    <path d="M 129.26016235351562 157.8731689453125 C 133.8644256591797 137.92080688476562 125.92095947265625 126.00397491455078 140.5468292236328 128.5269012451172" stroke-width="3.0" fill="none" stroke="rgb(0, 0, 0)" stroke-opacity="1.0" stroke-linecap="round" stroke-linejoin="round"/>
    <path d="M 85.0014877319336 157.01492309570312 C 83.39158630371094 165.4730682373047 108.0494613647461 172.2022247314453 87.20535278320312 172.4188995361328" stroke-width="3.0" fill="none" stroke="rgb(0, 0, 0)" stroke-opacity="1.0" stroke-linecap="round" stroke-linejoin="round"/>
    <path d="M 100.48807525634766 128.91748046875 C 118.83687591552734 126.7498550415039 106.80714416503906 132.731201171875 120.97774505615234 123.18804168701172" stroke-width="3.0" fill="none" stroke="rgb(0, 0, 0)" stroke-opacity="1.0" stroke-linecap="round" stroke-linejoin="round"/>
    <path d="M 110.39913940429688 111.3434829711914 C 102.93031311035156 104.82838439941406 93.52188110351562 100.88072967529297 90.81255340576172 101.64370727539062" stroke-width="3.0" fill="none" stroke="rgb(0, 0, 0)" stroke-opacity="1.0" stroke-linecap="round" stroke-linejoin="round"/>
    <path d="M 137.25450134277344 129.83912658691406 C 134.96102905273438 143.2929229736328 129.3666534423828 137.54258728027344 134.82229614257812 131.19801330566406" stroke-width="3.0" fill="none" stroke="rgb(0, 0, 0)" stroke-opacity="1.0" stroke-linecap="round" stroke-linejoin="round"/>
    <path d="M 82.4703598022461 80.43345642089844 C 74.01636505126953 74.41413879394531 81.0851821899414 81.24860382080078 79.62705993652344 80.35679626464844" stroke-width="3.0" fill="none" stroke="rgb(0, 0, 0)" stroke-opacity="1.0" stroke-linecap="round" stroke-linejoin="round"/>
    <path d="M 95.93179321289062 115.77667236328125 C 101.7100830078125 121.69734191894531 101.01725769042969 116.77940368652344 102.39991760253906 133.66163635253906" stroke-width="3.0" fill="none" stroke="rgb(0, 0, 0)" stroke-opacity="1.0" stroke-linecap="round" stroke-linejoin="round"/>
    <path d="M 53.85582733154297 76.80796813964844 C 38.89967346191406 97.45307922363281 41.347808837890625 89.05441284179688 67.89827728271484 77.77619171142578" stroke-width="3.0" fill="none" stroke="rgb(0, 0, 0)" stroke-opacity="1.0" stroke-linecap="round" stroke-linejoin="round"/>
    <path d="M 77.57734680175781 162.1050262451172 C 63.842689514160156 143.1566619873047 48.92873001098633 144.0255126953125 71.191162109375 129.94190979003906" stroke-width="3.0" fill="none" stroke="rgb(0, 0, 0)" stroke-opacity="1.0" stroke-linecap="round" stroke-linejoin="round"/>
    <path d="M 171.7947998046875 113.83009338378906 C 159.8839874267578 115.2570571899414 164.6913604736328 92.23667907714844 151.35855102539062 104.86774444580078" stroke-width="3.0" fill="none" stroke="rgb(0, 0, 0)" stroke-opacity="1.0" stroke-linecap="round" stroke-linejoin="round"/>
    <path d="M 134.03436279296875 107.66600799560547 C 122.70225524902344 109.97991180419922 123.12451171875 109.46851348876953 110.31428527832031 120.68472290039062" stroke-width="3.0" fill="none" stroke="rgb(0, 0, 0)" stroke-opacity="1.0" stroke-linecap="round" stroke-linejoin="round"/>
    <path d="M 80.88837432861328 89.76256561279297 C 91.38817596435547 81.11582946777344 87.24674987792969 92.30136108398438 100.42032623291016 105.9571304321289" stroke-width="3.0" fill="none" stroke="rgb(0, 0, 0)" stroke-opacity="1.0" stroke-linecap="round" stroke-linejoin="round"/>
    <path d="M 125.72880554199219 125.04218292236328 C 125.58558654785156 117.04952239990234 109.98456573486328 119.30836486816406 112.77400970458984 124.87213134765625" stroke-width="3.0" fill="none" stroke="rgb(0, 0, 0)" stroke-opacity="1.0" stroke-linecap="round" stroke-linejoin="round"/>
    <path d="M 95.3170394897461 97.77684020996094 C 93.87616729736328 105.05427551269531 102.56121063232422 109.23706817626953 90.5343017578125 105.15966796875" stroke-width="3.0" fill="none" stroke="rgb(0, 0, 0)" stroke-opacity="1.0" stroke-linecap="round" stroke-linejoin="round"/>
    <path d="M 132.23863220214844 112.09170532226562 C 138.82582092285156 112.37350463867188 137.28001403808594 106.42166137695312 126.52204895019531 104.42932891845703" stroke-width="3.0" fill="none" stroke="rgb(0, 0, 0)" stroke-opacity="1.0" stroke-linecap="round" stroke-linejoin="round"/>
    <path d="M 78.73787689208984 80.05103302001953 C 66.44943237304688 75.29197692871094 75.12407684326172 78.4167709350586 79.70714569091797 81.13983917236328" stroke-width="3.0" fill="none" stroke="rgb(0, 0, 0)" stroke-opacity="1.0" stroke-linecap="round" stroke-linejoin="round"/>
    <path d="M 132.701416015625 109.58534240722656 C 142.5646209716797 115.76689910888672 152.11630249023438 108.76155090332031 145.80010986328125 133.06141662597656" stroke-width="3.0" fill="none" stroke="rgb(0, 0, 0)" stroke-opacity="1.0" stroke-linecap="round" stroke-linejoin="round"/>
    <path d="M 123.62174987792969 106.40758514404297 C 123.87861633300781 104.94097137451172 118.34024810791016 111.8287353515625 114.45745086669922 124.60094451904297" stroke-width="3.0" fill="none" stroke="rgb(0, 0, 0)" stroke-opacity="1.0" stroke-linecap="round" stroke-linejoin="round"/>
    <path d="M 143.22964477539062 110.45896911621094 C 135.75299072265625 102.69420623779297 131.55105590820312 101.7044448852539 144.9111328125 105.57024383544922" stroke-width="3.0" fill="none" stroke="rgb(0, 0, 0)" stroke-opacity="1.0" stroke-linecap="round" stroke-linejoin="round"/>
    <path d="M 141.4002685546875 139.3075714111328 C 133.22311401367188 159.41590881347656 150.30715942382812 149.75099182128906 118.31819152832031 169.90948486328125" stroke-width="3.0" fill="none" stroke="rgb(0, 0, 0)" stroke-opacity="1.0" stroke-linecap="round" stroke-linejoin="round"/>
    <path d="M 184.72486877441406 124.49173736572266 C 169.09091186523438 118.19857025146484 163.95111083984375 103.35810852050781 162.25132751464844 114.89689636230469" stroke-width="3.0" fill="none" stroke="rgb(0, 0, 0)" stroke-opacity="1.0" stroke-linecap="round" stroke-linejoin="round"/>
    <path d="M 127.9031982421875 102.4106216430664 C 139.39320373535156 98.91656494140625 135.56251525878906 99.05753326416016 141.4435577392578 103.72866821289062" stroke-width="3.0" fill="none" stroke="rgb(0, 0, 0)" stroke-opacity="1.0" stroke-linecap="round" stroke-linejoin="round"/>
    <path d="M 70.48401641845703 94.8254623413086 C 66.44622039794922 88.04696655273438 75.3502197265625 96.26671600341797 67.97088623046875 112.47798156738281" stroke-width="3.0" fill="none" stroke="rgb(0, 0, 0)" stroke-opacity="1.0" stroke-linecap="round" stroke-linejoin="round"/>
    <path d="M 108.18933868408203 125.73597717285156 C 105.61033630371094 137.11138916015625 95.69418334960938 127.57454681396484 103.54924011230469 126.24394226074219" stroke-width="3.0" fill="none" stroke="rgb(0, 0, 0)" stroke-opacity="1.0" stroke-linecap="round" stroke-linejoin="round"/>
    <path d="M 79.47073364257812 77.68627166748047 C 78.72795867919922 80.25752258300781 85.53446960449219 84.49725341796875 83.47046661376953 81.53919219970703" stroke-width="3.0" fill="none" stroke="rgb(0, 0, 0)" stroke-opacity="1.0" stroke-linecap="round" stroke-linejoin="round"/>
    <path d="M 149.4239044189453 120.71762084960938 C 137.44895935058594 115.10802459716797 130.37744140625 105.87588500976562 120.78516387939453 113.83879852294922" stroke-width="3.0" fill="none" stroke="rgb(0, 0, 0)" stroke-opacity="1.0" stroke-linecap="round" stroke-linejoin="round"/>
    <path d="M 165.84942626953125 106.37406158447266 C 176.25868225097656 121.29641723632812 190.13600158691406 121.60675048828125 176.4116973876953 121.65778350830078" stroke-width="3.0" fill="none" stroke="rgb(0, 0, 0)" stroke-opacity="1.0" stroke-linecap="round" stroke-linejoin="round"/>
    <path d="M 49.043941497802734 81.3262939453125 C 68.80738067626953 87.97396850585938 72.04177856445312 96.76956939697266 70.5311508178711 94.06664276123047" stroke-width="3.0" fill="none" stroke="rgb(0, 0, 0)" stroke-opacity="1.0" stroke-linecap="round" stroke-linejoin="round"/>
    <path d="M 67.9220962524414 81.45503234863281 C 54.42448043823242 80.38831329345703 54.3311882019043 67.86404418945312 56.15653991699219 69.1949691772461" stroke-width="3.0" fill="none" stroke="rgb(0, 0, 0)" stroke-opacity="1.0" stroke-linecap="round" stroke-linejoin="round"/>
  </g>
</svg>
