<?xml version="1.0" ?>
<svg xmlns="http://www.w3.org/2000/svg" version="1.1" width="224" height="224">
  <defs/>
  <g>
    <path d="M 143.8164825439453 116.2328109741211 C 109.92117309570312 89.44412994384766 64.90491485595703 111.1378173828125 124.57844543457031 102.22496032714844" stroke-width="3.0" fill="none" stroke="rgb(0, 0, 0)" stroke-opacity="1.0" stroke-linecap="round" stroke-linejoin="round"/>
    <path d="M 157.86993408203125 108.14686584472656 C 164.64328002929688 137.10874938964844 246.45462036132812 146.1747283935547 175.7645721435547 124.70956420898438" stroke-width="3.0" fill="none" stroke="rgb(0, 0, 0)" stroke-opacity="1.0" stroke-linecap="round" stroke-linejoin="round"/>
    <path d="M 133.9327850341797 126.80623626708984 C 120.75724792480469 81.1843032836914 117.84513092041016 120.42820739746094 158.01934814453125 143.49908447265625" stroke-width="3.0" fill="none" stroke="rgb(0, 0, 0)" stroke-opacity="1.0" stroke-linecap="round" stroke-linejoin="round"/>
    <path d="M 145.09255981445312 143.06471252441406 C 110.75676727294922 72.53558349609375 129.8148956298828 126.74967956542969 159.19346618652344 105.0965347290039" stroke-width="3.0" fill="none" stroke="rgb(0, 0, 0)" stroke-opacity="1.0" stroke-linecap="round" stroke-linejoin="round"/>
    <path d="M 123.95355987548828 127.6451644897461 C 118.45491027832031 94.36920928955078 62.670440673828125 81.70143127441406 71.84479522705078 130.98265075683594" stroke-width="3.0" fill="none" stroke="rgb(0, 0, 0)" stroke-opacity="1.0" stroke-linecap="round" stroke-linejoin="round"/>
    <path d="M 111.8515396118164 136.08326721191406 C 126.14039611816406 135.67825317382812 139.29409790039062 95.69798278808594 122.71863555908203 104.73068237304688" stroke-width="3.0" fill="none" stroke="rgb(0, 0, 0)" stroke-opacity="1.0" stroke-linecap="round" stroke-linejoin="round"/>
    <path d="M 82.47147369384766 116.77849578857422 C 49.055686950683594 133.82997131347656 131.31765747070312 85.24809265136719 49.38120651245117 80.09141540527344" stroke-width="3.0" fill="none" stroke="rgb(0, 0, 0)" stroke-opacity="1.0" stroke-linecap="round" stroke-linejoin="round"/>
    <path d="M 147.4705810546875 115.69209289550781 C 118.97576141357422 156.13938903808594 210.86264038085938 150.8206329345703 136.8382110595703 141.742919921875" stroke-width="3.0" fill="none" stroke="rgb(0, 0, 0)" stroke-opacity="1.0" stroke-linecap="round" stroke-linejoin="round"/>
    <path d="M 184.85903930664062 165.1848907470703 C 175.5916290283203 143.56187438964844 206.8848419189453 180.4263153076172 162.9932861328125 144.9011688232422" stroke-width="3.0" fill="none" stroke="rgb(0, 0, 0)" stroke-opacity="1.0" stroke-linecap="round" stroke-linejoin="round"/>
    <path d="M 129.4161834716797 131.79849243164062 C 120.20525360107422 77.97538757324219 148.19483947753906 125.28266143798828 114.97171783447266 134.88458251953125" stroke-width="3.0" fill="none" stroke="rgb(0, 0, 0)" stroke-opacity="1.0" stroke-linecap="round" stroke-linejoin="round"/>
    <path d="M 133.59165954589844 147.98828125 C 157.02354431152344 122.8322525024414 158.8738555908203 93.0892333984375 136.1285400390625 148.6221923828125" stroke-width="3.0" fill="none" stroke="rgb(0, 0, 0)" stroke-opacity="1.0" stroke-linecap="round" stroke-linejoin="round"/>
    <path d="M 141.930908203125 103.83241271972656 C 78.08002471923828 107.42218780517578 91.17762756347656 99.6496353149414 73.68091583251953 84.90301513671875" stroke-width="3.0" fill="none" stroke="rgb(0, 0, 0)" stroke-opacity="1.0" stroke-linecap="round" stroke-linejoin="round"/>
    <path d="M 104.45895385742188 102.2662124633789 C 154.2587127685547 102.05652618408203 140.07814025878906 95.35578155517578 125.64756774902344 132.67117309570312" stroke-width="3.0" fill="none" stroke="rgb(0, 0, 0)" stroke-opacity="1.0" stroke-linecap="round" stroke-linejoin="round"/>
    <path d="M 101.96025085449219 146.2711181640625 C 145.71253967285156 138.2896270751953 149.8116912841797 80.37261199951172 131.55734252929688 159.21246337890625" stroke-width="3.0" fill="none" stroke="rgb(0, 0, 0)" stroke-opacity="1.0" stroke-linecap="round" stroke-linejoin="round"/>
    <path d="M 79.9116439819336 93.03511047363281 C 52.85884475708008 61.2479248046875 30.891788482666016 114.31533813476562 64.49915313720703 84.17833709716797" stroke-width="3.0" fill="none" stroke="rgb(0, 0, 0)" stroke-opacity="1.0" stroke-linecap="round" stroke-linejoin="round"/>
    <path d="M 60.900272369384766 70.81568145751953 C 72.01569366455078 84.43252563476562 76.8099136352539 72.41284942626953 84.78350830078125 106.54025268554688" stroke-width="3.0" fill="none" stroke="rgb(0, 0, 0)" stroke-opacity="1.0" stroke-linecap="round" stroke-linejoin="round"/>
    <path d="M 90.00340270996094 103.42650604248047 C 56.10203552246094 77.26236724853516 9.372692108154297 91.9879379272461 68.63224792480469 89.81880950927734" stroke-width="3.0" fill="none" stroke="rgb(0, 0, 0)" stroke-opacity="1.0" stroke-linecap="round" stroke-linejoin="round"/>
    <path d="M 80.29680633544922 164.07350158691406 C 31.00843620300293 117.42893981933594 85.1885986328125 153.718505859375 100.0598373413086 117.42227935791016" stroke-width="3.0" fill="none" stroke="rgb(0, 0, 0)" stroke-opacity="1.0" stroke-linecap="round" stroke-linejoin="round"/>
    <path d="M 131.16748046875 116.3943862915039 C 164.1501922607422 154.07815551757812 160.2272186279297 77.43669891357422 109.93214416503906 105.03553009033203" stroke-width="3.0" fill="none" stroke="rgb(0, 0, 0)" stroke-opacity="1.0" stroke-linecap="round" stroke-linejoin="round"/>
    <path d="M 127.94829559326172 119.21548461914062 C 134.5298614501953 211.97079467773438 152.0386962890625 111.2510986328125 131.85829162597656 101.45951843261719" stroke-width="3.0" fill="none" stroke="rgb(0, 0, 0)" stroke-opacity="1.0" stroke-linecap="round" stroke-linejoin="round"/>
    <path d="M 100.22230529785156 147.74339294433594 C 84.07994079589844 168.07472229003906 118.39913940429688 178.621826171875 99.38909912109375 163.14291381835938" stroke-width="3.0" fill="none" stroke="rgb(0, 0, 0)" stroke-opacity="1.0" stroke-linecap="round" stroke-linejoin="round"/>
    <path d="M 80.64347076416016 128.41920471191406 C 124.802490234375 139.18438720703125 135.30075073242188 118.19539642333984 143.89500427246094 112.0591049194336" stroke-width="3.0" fill="none" stroke="rgb(0, 0, 0)" stroke-opacity="1.0" stroke-linecap="round" stroke-linejoin="round"/>
    <path d="M 136.61825561523438 100.92216491699219 C 83.74176788330078 114.59696960449219 105.91429901123047 81.86210632324219 70.66228485107422 118.41504669189453" stroke-width="3.0" fill="none" stroke="rgb(0, 0, 0)" stroke-opacity="1.0" stroke-linecap="round" stroke-linejoin="round"/>
    <path d="M 140.8932342529297 108.91584014892578 C 162.40428161621094 119.60594940185547 126.15985870361328 159.08880615234375 143.3244171142578 135.13926696777344" stroke-width="3.0" fill="none" stroke="rgb(0, 0, 0)" stroke-opacity="1.0" stroke-linecap="round" stroke-linejoin="round"/>
    <path d="M 83.97290802001953 109.79449462890625 C 59.19900131225586 54.035247802734375 54.68734359741211 76.35901641845703 77.83413696289062 109.09015655517578" stroke-width="3.0" fill="none" stroke="rgb(0, 0, 0)" stroke-opacity="1.0" stroke-linecap="round" stroke-linejoin="round"/>
    <path d="M 71.67926788330078 122.0559310913086 C 135.02200317382812 128.37982177734375 103.40248107910156 136.6684112548828 97.18406677246094 120.125244140625" stroke-width="3.0" fill="none" stroke="rgb(0, 0, 0)" stroke-opacity="1.0" stroke-linecap="round" stroke-linejoin="round"/>
    <path d="M 64.08114624023438 82.24759674072266 C 31.23221778869629 109.50589752197266 37.05778503417969 99.84725952148438 59.614620208740234 71.06903076171875" stroke-width="3.0" fill="none" stroke="rgb(0, 0, 0)" stroke-opacity="1.0" stroke-linecap="round" stroke-linejoin="round"/>
    <path d="M 82.6196517944336 172.5753936767578 C 97.62393188476562 156.27017211914062 24.61104393005371 143.85873413085938 90.9585952758789 120.1421890258789" stroke-width="3.0" fill="none" stroke="rgb(0, 0, 0)" stroke-opacity="1.0" stroke-linecap="round" stroke-linejoin="round"/>
    <path d="M 179.6490936279297 116.91897583007812 C 169.1109161376953 120.97952270507812 171.71434020996094 89.65328979492188 152.26719665527344 105.17095184326172" stroke-width="3.0" fill="none" stroke="rgb(0, 0, 0)" stroke-opacity="1.0" stroke-linecap="round" stroke-linejoin="round"/>
    <path d="M 107.63172149658203 145.2002410888672 C 164.18946838378906 96.16986083984375 148.8242645263672 93.57991790771484 114.46943664550781 140.66929626464844" stroke-width="3.0" fill="none" stroke="rgb(0, 0, 0)" stroke-opacity="1.0" stroke-linecap="round" stroke-linejoin="round"/>
    <path d="M 56.024166107177734 89.34049987792969 C 107.69480895996094 104.38044738769531 96.30812072753906 107.26494598388672 62.62522888183594 81.98058319091797" stroke-width="3.0" fill="none" stroke="rgb(0, 0, 0)" stroke-opacity="1.0" stroke-linecap="round" stroke-linejoin="round"/>
    <path d="M 134.99203491210938 107.54155731201172 C 155.45382690429688 131.04920959472656 140.8118133544922 120.4221420288086 122.59205627441406 132.92654418945312" stroke-width="3.0" fill="none" stroke="rgb(0, 0, 0)" stroke-opacity="1.0" stroke-linecap="round" stroke-linejoin="round"/>
    <path d="M 71.53559875488281 85.02243041992188 C 127.00212860107422 121.90265655517578 103.359375 102.74886322021484 71.84817504882812 97.3385009765625" stroke-width="3.0" fill="none" stroke="rgb(0, 0, 0)" stroke-opacity="1.0" stroke-linecap="round" stroke-linejoin="round"/>
    <path d="M 127.2529296875 101.4260482788086 C 138.6486053466797 142.1368408203125 127.22715759277344 113.0227279663086 125.24170684814453 102.23054504394531" stroke-width="3.0" fill="none" stroke="rgb(0, 0, 0)" stroke-opacity="1.0" stroke-linecap="round" stroke-linejoin="round"/>
    <path d="M 70.47723388671875 86.94416046142578 C 22.328048706054688 103.72254943847656 73.0257568359375 54.09199905395508 90.5666732788086 99.6441650390625" stroke-width="3.0" fill="none" stroke="rgb(0, 0, 0)" stroke-opacity="1.0" stroke-linecap="round" stroke-linejoin="round"/>
    <path d="M 125.66582489013672 114.59867858886719 C 101.00393676757812 168.3318328857422 141.97225952148438 112.54690551757812 119.80107879638672 136.031005859375" stroke-width="3.0" fill="none" stroke="rgb(0, 0, 0)" stroke-opacity="1.0" stroke-linecap="round" stroke-linejoin="round"/>
    <path d="M 111.36180877685547 135.14707946777344 C 143.20814514160156 108.64277648925781 130.59800720214844 127.80937194824219 120.64457702636719 106.75827026367188" stroke-width="3.0" fill="none" stroke="rgb(0, 0, 0)" stroke-opacity="1.0" stroke-linecap="round" stroke-linejoin="round"/>
    <path d="M 136.3217010498047 152.31674194335938 C 131.66455078125 131.98574829101562 159.8054656982422 117.13105773925781 123.99247741699219 111.96792602539062" stroke-width="3.0" fill="none" stroke="rgb(0, 0, 0)" stroke-opacity="1.0" stroke-linecap="round" stroke-linejoin="round"/>
    <path d="M 114.97281646728516 102.7213134765625 C 143.81210327148438 146.3399658203125 171.69325256347656 120.30027770996094 109.76496887207031 175.5649871826172" stroke-width="3.0" fill="none" stroke="rgb(0, 0, 0)" stroke-opacity="1.0" stroke-linecap="round" stroke-linejoin="round"/>
    <path d="M 202.46046447753906 129.500732421875 C 137.5640869140625 152.40713500976562 129.04356384277344 137.727783203125 190.9031219482422 138.26449584960938" stroke-width="3.0" fill="none" stroke="rgb(0, 0, 0)" stroke-opacity="1.0" stroke-linecap="round" stroke-linejoin="round"/>
    <path d="M 125.39796447753906 127.93328857421875 C 96.55003356933594 100.42620849609375 171.3582763671875 92.73291778564453 136.42420959472656 137.68988037109375" stroke-width="3.0" fill="none" stroke="rgb(0, 0, 0)" stroke-opacity="1.0" stroke-linecap="round" stroke-linejoin="round"/>
    <path d="M 83.08533477783203 110.39640045166016 C 50.026153564453125 58.130924224853516 76.88707733154297 77.44967651367188 73.22437286376953 129.85845947265625" stroke-width="3.0" fill="none" stroke="rgb(0, 0, 0)" stroke-opacity="1.0" stroke-linecap="round" stroke-linejoin="round"/>
    <path d="M 73.15282440185547 122.79684448242188 C 167.95562744140625 142.05233764648438 102.10584259033203 138.91380310058594 72.84988403320312 130.44383239746094" stroke-width="3.0" fill="none" stroke="rgb(0, 0, 0)" stroke-opacity="1.0" stroke-linecap="round" stroke-linejoin="round"/>
    <path d="M 52.3680305480957 74.25133514404297 C 117.9736328125 68.09622955322266 91.82431030273438 143.75762939453125 65.9096908569336 85.7033920288086" stroke-width="3.0" fill="none" stroke="rgb(0, 0, 0)" stroke-opacity="1.0" stroke-linecap="round" stroke-linejoin="round"/>
    <path d="M 134.57427978515625 119.5162353515625 C 114.03187561035156 100.11329650878906 154.73471069335938 92.66575622558594 145.2509002685547 132.21543884277344" stroke-width="3.0" fill="none" stroke="rgb(0, 0, 0)" stroke-opacity="1.0" stroke-linecap="round" stroke-linejoin="round"/>
    <path d="M 156.05020141601562 103.02882385253906 C 186.99136352539062 126.3560562133789 207.16574096679688 136.6254425048828 159.32594299316406 100.91017150878906" stroke-width="3.0" fill="none" stroke="rgb(0, 0, 0)" stroke-opacity="1.0" stroke-linecap="round" stroke-linejoin="round"/>
    <path d="M 53.17094802856445 83.12503051757812 C 60.20152282714844 95.75552368164062 48.99492645263672 70.0755844116211 83.38432312011719 117.69721221923828" stroke-width="3.0" fill="none" stroke="rgb(0, 0, 0)" stroke-opacity="1.0" stroke-linecap="round" stroke-linejoin="round"/>
    <path d="M 61.114742279052734 73.2835693359375 C 27.702669143676758 124.55345916748047 27.992536544799805 83.41564178466797 66.94078826904297 77.01303100585938" stroke-width="3.0" fill="none" stroke="rgb(0, 0, 0)" stroke-opacity="1.0" stroke-linecap="round" stroke-linejoin="round"/>
  </g>
</svg>
