<?xml version="1.0" ?>
<svg xmlns="http://www.w3.org/2000/svg" version="1.1" width="224" height="224">
  <defs/>
  <g>
    <path d="M 148.23226928710938 117.22373962402344 C 120.24225616455078 92.87109375 79.17355346679688 112.43421173095703 134.15280151367188 98.884033203125" stroke-width="3.0" fill="none" stroke="rgb(0, 0, 0)" stroke-opacity="1.0" stroke-linecap="round" stroke-linejoin="round"/>
    <path d="M 161.5103302001953 105.59994506835938 C 162.96531677246094 136.02919006347656 257.2938232421875 143.28695678710938 170.726318359375 120.4571762084961" stroke-width="3.0" fill="none" stroke="rgb(0, 0, 0)" stroke-opacity="1.0" stroke-linecap="round" stroke-linejoin="round"/>
    <path d="M 142.7218475341797 135.57273864746094 C 139.97056579589844 78.05885314941406 118.78651428222656 140.9232940673828 162.4408416748047 144.18460083007812" stroke-width="3.0" fill="none" stroke="rgb(0, 0, 0)" stroke-opacity="1.0" stroke-linecap="round" stroke-linejoin="round"/>
    <path d="M 140.09799194335938 144.64389038085938 C 113.24702453613281 68.91142272949219 120.21735382080078 122.47370910644531 142.24063110351562 103.61292266845703" stroke-width="3.0" fill="none" stroke="rgb(0, 0, 0)" stroke-opacity="1.0" stroke-linecap="round" stroke-linejoin="round"/>
    <path d="M 133.14071655273438 119.31771087646484 C 134.9092254638672 88.39017486572266 57.032615661621094 100.02642822265625 74.42616271972656 128.083740234375" stroke-width="3.0" fill="none" stroke="rgb(0, 0, 0)" stroke-opacity="1.0" stroke-linecap="round" stroke-linejoin="round"/>
    <path d="M 112.10991668701172 129.23110961914062 C 114.36328887939453 130.67794799804688 136.48733520507812 103.9214859008789 114.24058532714844 103.7597427368164" stroke-width="3.0" fill="none" stroke="rgb(0, 0, 0)" stroke-opacity="1.0" stroke-linecap="round" stroke-linejoin="round"/>
    <path d="M 80.12640380859375 120.35502624511719 C 49.723228454589844 137.2650604248047 129.7344512939453 80.79500579833984 54.256103515625 76.5809097290039" stroke-width="3.0" fill="none" stroke="rgb(0, 0, 0)" stroke-opacity="1.0" stroke-linecap="round" stroke-linejoin="round"/>
    <path d="M 151.6728973388672 115.00674438476562 C 146.36402893066406 159.1777801513672 237.9187774658203 172.7383270263672 144.041748046875 141.32872009277344" stroke-width="3.0" fill="none" stroke="rgb(0, 0, 0)" stroke-opacity="1.0" stroke-linecap="round" stroke-linejoin="round"/>
    <path d="M 175.21615600585938 159.3460235595703 C 182.01002502441406 139.62899780273438 204.53712463378906 186.5306396484375 153.80679321289062 137.6514129638672" stroke-width="3.0" fill="none" stroke="rgb(0, 0, 0)" stroke-opacity="1.0" stroke-linecap="round" stroke-linejoin="round"/>
    <path d="M 133.0963134765625 125.8917465209961 C 115.56975555419922 79.64677429199219 157.08383178710938 127.02711486816406 124.16548919677734 129.27098083496094" stroke-width="3.0" fill="none" stroke="rgb(0, 0, 0)" stroke-opacity="1.0" stroke-linecap="round" stroke-linejoin="round"/>
    <path d="M 132.21107482910156 159.3133544921875 C 146.6353759765625 110.65292358398438 144.6771240234375 80.54359436035156 135.56973266601562 157.6989288330078" stroke-width="3.0" fill="none" stroke="rgb(0, 0, 0)" stroke-opacity="1.0" stroke-linecap="round" stroke-linejoin="round"/>
    <path d="M 143.96791076660156 105.74971008300781 C 80.50736999511719 102.78398895263672 89.68449401855469 95.12902069091797 63.91435241699219 80.67203521728516" stroke-width="3.0" fill="none" stroke="rgb(0, 0, 0)" stroke-opacity="1.0" stroke-linecap="round" stroke-linejoin="round"/>
    <path d="M 101.13429260253906 102.68108367919922 C 145.84693908691406 97.5028076171875 138.9216766357422 97.80809020996094 139.21559143066406 141.20083618164062" stroke-width="3.0" fill="none" stroke="rgb(0, 0, 0)" stroke-opacity="1.0" stroke-linecap="round" stroke-linejoin="round"/>
    <path d="M 99.16938781738281 147.25582885742188 C 145.93295288085938 141.3548583984375 154.5603790283203 75.93580627441406 138.53306579589844 156.5841827392578" stroke-width="3.0" fill="none" stroke="rgb(0, 0, 0)" stroke-opacity="1.0" stroke-linecap="round" stroke-linejoin="round"/>
    <path d="M 83.44237518310547 87.53966522216797 C 49.39616394042969 59.399627685546875 24.77694320678711 117.2742919921875 52.08922576904297 82.01651000976562" stroke-width="3.0" fill="none" stroke="rgb(0, 0, 0)" stroke-opacity="1.0" stroke-linecap="round" stroke-linejoin="round"/>
    <path d="M 60.18347930908203 76.51261901855469 C 69.50702667236328 90.80093383789062 85.82929229736328 80.90837860107422 88.34483337402344 101.37980651855469" stroke-width="3.0" fill="none" stroke="rgb(0, 0, 0)" stroke-opacity="1.0" stroke-linecap="round" stroke-linejoin="round"/>
    <path d="M 79.81976318359375 104.8974380493164 C 61.37765121459961 63.157005310058594 16.7659912109375 89.01459503173828 82.2872314453125 89.76348876953125" stroke-width="3.0" fill="none" stroke="rgb(0, 0, 0)" stroke-opacity="1.0" stroke-linecap="round" stroke-linejoin="round"/>
    <path d="M 79.90592956542969 161.71749877929688 C 38.21544647216797 121.97468566894531 77.04316711425781 153.45132446289062 97.22866821289062 120.41978454589844" stroke-width="3.0" fill="none" stroke="rgb(0, 0, 0)" stroke-opacity="1.0" stroke-linecap="round" stroke-linejoin="round"/>
    <path d="M 132.474365234375 120.91344451904297 C 160.71119689941406 157.38055419921875 167.9584503173828 76.59568786621094 108.64785766601562 105.10726165771484" stroke-width="3.0" fill="none" stroke="rgb(0, 0, 0)" stroke-opacity="1.0" stroke-linecap="round" stroke-linejoin="round"/>
    <path d="M 128.90232849121094 109.42411804199219 C 135.43162536621094 203.87086486816406 159.00132751464844 94.79814147949219 132.52894592285156 101.91592407226562" stroke-width="3.0" fill="none" stroke="rgb(0, 0, 0)" stroke-opacity="1.0" stroke-linecap="round" stroke-linejoin="round"/>
    <path d="M 98.87543487548828 147.57716369628906 C 80.06790161132812 164.4048309326172 123.97451782226562 183.30506896972656 98.32282257080078 162.384033203125" stroke-width="3.0" fill="none" stroke="rgb(0, 0, 0)" stroke-opacity="1.0" stroke-linecap="round" stroke-linejoin="round"/>
    <path d="M 73.32127380371094 123.78801727294922 C 144.2602996826172 140.87240600585938 139.42591857910156 125.72547912597656 142.40859985351562 113.76435852050781" stroke-width="3.0" fill="none" stroke="rgb(0, 0, 0)" stroke-opacity="1.0" stroke-linecap="round" stroke-linejoin="round"/>
    <path d="M 129.61325073242188 102.19698333740234 C 82.08418273925781 117.49102783203125 110.0905532836914 69.35273742675781 71.6524429321289 122.88378143310547" stroke-width="3.0" fill="none" stroke="rgb(0, 0, 0)" stroke-opacity="1.0" stroke-linecap="round" stroke-linejoin="round"/>
    <path d="M 138.9374542236328 114.47945404052734 C 165.0113525390625 119.51197052001953 124.46383666992188 163.90707397460938 145.41798400878906 123.56841278076172" stroke-width="3.0" fill="none" stroke="rgb(0, 0, 0)" stroke-opacity="1.0" stroke-linecap="round" stroke-linejoin="round"/>
    <path d="M 79.52386474609375 115.41273498535156 C 53.66128158569336 62.480899810791016 55.450416564941406 77.71871185302734 77.26219177246094 116.74085998535156" stroke-width="3.0" fill="none" stroke="rgb(0, 0, 0)" stroke-opacity="1.0" stroke-linecap="round" stroke-linejoin="round"/>
    <path d="M 73.13208770751953 127.73042297363281 C 129.4073486328125 140.54986572265625 106.2942886352539 133.51893615722656 95.50403594970703 124.1111831665039" stroke-width="3.0" fill="none" stroke="rgb(0, 0, 0)" stroke-opacity="1.0" stroke-linecap="round" stroke-linejoin="round"/>
    <path d="M 56.74250411987305 82.62239837646484 C 26.450578689575195 104.42716979980469 46.871158599853516 111.89301300048828 59.614776611328125 70.33771514892578" stroke-width="3.0" fill="none" stroke="rgb(0, 0, 0)" stroke-opacity="1.0" stroke-linecap="round" stroke-linejoin="round"/>
    <path d="M 84.80643463134766 168.95767211914062 C 104.55486297607422 159.6957550048828 22.831371307373047 144.94607543945312 97.38627624511719 124.56571960449219" stroke-width="3.0" fill="none" stroke="rgb(0, 0, 0)" stroke-opacity="1.0" stroke-linecap="round" stroke-linejoin="round"/>
    <path d="M 181.8908233642578 127.56818389892578 C 161.5543670654297 111.48487854003906 168.58822631835938 86.63267517089844 149.4589385986328 105.56000518798828" stroke-width="3.0" fill="none" stroke="rgb(0, 0, 0)" stroke-opacity="1.0" stroke-linecap="round" stroke-linejoin="round"/>
    <path d="M 114.06660461425781 141.36708068847656 C 180.24761962890625 117.60466766357422 147.69985961914062 101.94219207763672 116.88085174560547 140.90045166015625" stroke-width="3.0" fill="none" stroke="rgb(0, 0, 0)" stroke-opacity="1.0" stroke-linecap="round" stroke-linejoin="round"/>
    <path d="M 61.98689651489258 70.4019775390625 C 94.53739929199219 121.6968765258789 86.66121673583984 118.39978790283203 55.623817443847656 81.37700653076172" stroke-width="3.0" fill="none" stroke="rgb(0, 0, 0)" stroke-opacity="1.0" stroke-linecap="round" stroke-linejoin="round"/>
    <path d="M 131.38406372070312 112.58235931396484 C 148.6514434814453 120.97672271728516 133.9093017578125 109.98307037353516 107.46726989746094 131.41558837890625" stroke-width="3.0" fill="none" stroke="rgb(0, 0, 0)" stroke-opacity="1.0" stroke-linecap="round" stroke-linejoin="round"/>
    <path d="M 66.31947326660156 85.8410873413086 C 96.15373229980469 124.5455322265625 91.79580688476562 90.8627700805664 76.2242660522461 98.84186553955078" stroke-width="3.0" fill="none" stroke="rgb(0, 0, 0)" stroke-opacity="1.0" stroke-linecap="round" stroke-linejoin="round"/>
    <path d="M 124.55280303955078 108.52188110351562 C 137.5984344482422 143.50213623046875 136.0140838623047 104.94236755371094 132.96559143066406 102.67610931396484" stroke-width="3.0" fill="none" stroke="rgb(0, 0, 0)" stroke-opacity="1.0" stroke-linecap="round" stroke-linejoin="round"/>
    <path d="M 62.023887634277344 75.78764343261719 C 34.29573059082031 116.1556625366211 74.82847595214844 60.39414596557617 76.4521255493164 115.22272491455078" stroke-width="3.0" fill="none" stroke="rgb(0, 0, 0)" stroke-opacity="1.0" stroke-linecap="round" stroke-linejoin="round"/>
    <path d="M 135.00840759277344 125.88179016113281 C 91.99012756347656 161.98977661132812 135.947509765625 109.03775024414062 122.53949737548828 132.93536376953125" stroke-width="3.0" fill="none" stroke="rgb(0, 0, 0)" stroke-opacity="1.0" stroke-linecap="round" stroke-linejoin="round"/>
    <path d="M 122.40006256103516 136.42259216308594 C 141.59344482421875 99.59037017822266 135.79324340820312 123.90489959716797 128.90159606933594 100.50138092041016" stroke-width="3.0" fill="none" stroke="rgb(0, 0, 0)" stroke-opacity="1.0" stroke-linecap="round" stroke-linejoin="round"/>
    <path d="M 143.82095336914062 137.78233337402344 C 122.78927612304688 116.2265396118164 150.53880310058594 113.13560485839844 130.85499572753906 102.12962341308594" stroke-width="3.0" fill="none" stroke="rgb(0, 0, 0)" stroke-opacity="1.0" stroke-linecap="round" stroke-linejoin="round"/>
    <path d="M 125.57704162597656 100.09829711914062 C 143.99012756347656 186.3367919921875 148.00741577148438 138.18673706054688 109.99984741210938 177.42347717285156" stroke-width="3.0" fill="none" stroke="rgb(0, 0, 0)" stroke-opacity="1.0" stroke-linecap="round" stroke-linejoin="round"/>
    <path d="M 183.77899169921875 124.77173614501953 C 143.7745361328125 155.37657165527344 134.05702209472656 144.9849853515625 166.5897216796875 136.79530334472656" stroke-width="3.0" fill="none" stroke="rgb(0, 0, 0)" stroke-opacity="1.0" stroke-linecap="round" stroke-linejoin="round"/>
    <path d="M 140.0276336669922 115.43366241455078 C 100.6618881225586 105.73462677001953 171.05026245117188 100.45272827148438 135.62826538085938 136.74755859375" stroke-width="3.0" fill="none" stroke="rgb(0, 0, 0)" stroke-opacity="1.0" stroke-linecap="round" stroke-linejoin="round"/>
    <path d="M 81.77322387695312 109.71905517578125 C 43.925209045410156 59.55565643310547 79.8743896484375 92.63191986083984 72.55267333984375 125.2938003540039" stroke-width="3.0" fill="none" stroke="rgb(0, 0, 0)" stroke-opacity="1.0" stroke-linecap="round" stroke-linejoin="round"/>
    <path d="M 73.79804229736328 129.33860778808594 C 170.03457641601562 138.17333984375 97.19962310791016 137.08409118652344 71.81133270263672 132.25086975097656" stroke-width="3.0" fill="none" stroke="rgb(0, 0, 0)" stroke-opacity="1.0" stroke-linecap="round" stroke-linejoin="round"/>
    <path d="M 54.21918487548828 74.30097961425781 C 114.47496795654297 69.4448013305664 101.94386291503906 135.67413330078125 68.49886322021484 72.92793273925781" stroke-width="3.0" fill="none" stroke="rgb(0, 0, 0)" stroke-opacity="1.0" stroke-linecap="round" stroke-linejoin="round"/>
    <path d="M 140.07125854492188 124.09809875488281 C 117.94007873535156 100.5787582397461 162.28155517578125 99.52161407470703 147.3887481689453 131.7320098876953" stroke-width="3.0" fill="none" stroke="rgb(0, 0, 0)" stroke-opacity="1.0" stroke-linecap="round" stroke-linejoin="round"/>
    <path d="M 157.43084716796875 101.20430755615234 C 183.40431213378906 130.57937622070312 210.54481506347656 138.33299255371094 156.32276916503906 101.72101593017578" stroke-width="3.0" fill="none" stroke="rgb(0, 0, 0)" stroke-opacity="1.0" stroke-linecap="round" stroke-linejoin="round"/>
    <path d="M 48.54735565185547 74.77428436279297 C 61.49861145019531 81.81524658203125 46.41291046142578 54.41399002075195 77.04596710205078 114.74934387207031" stroke-width="3.0" fill="none" stroke="rgb(0, 0, 0)" stroke-opacity="1.0" stroke-linecap="round" stroke-linejoin="round"/>
    <path d="M 56.598506927490234 71.1532974243164 C 19.12099266052246 115.21949005126953 39.03709411621094 87.4212875366211 69.72728729248047 85.54300689697266" stroke-width="3.0" fill="none" stroke="rgb(0, 0, 0)" stroke-opacity="1.0" stroke-linecap="round" stroke-linejoin="round"/>
  </g>
</svg>
