<?xml version="1.0" ?>
<svg xmlns="http://www.w3.org/2000/svg" version="1.1" width="224" height="224">
  <defs/>
  <g>
    <path d="M 146.94290161132812 120.75651550292969 C 106.13141632080078 94.87787628173828 68.41940307617188 105.31414031982422 129.1543426513672 100.62973022460938" stroke-width="3.0" fill="none" stroke="rgb(0, 0, 0)" stroke-opacity="1.0" stroke-linecap="round" stroke-linejoin="round"/>
    <path d="M 162.3052520751953 104.79145812988281 C 169.40419006347656 138.20269775390625 252.87020874023438 146.1442413330078 171.42739868164062 122.36795806884766" stroke-width="3.0" fill="none" stroke="rgb(0, 0, 0)" stroke-opacity="1.0" stroke-linecap="round" stroke-linejoin="round"/>
    <path d="M 135.69139099121094 135.74562072753906 C 119.37437438964844 81.10273742675781 117.16984558105469 120.69376373291016 161.9306182861328 144.2458038330078" stroke-width="3.0" fill="none" stroke="rgb(0, 0, 0)" stroke-opacity="1.0" stroke-linecap="round" stroke-linejoin="round"/>
    <path d="M 144.2238311767578 143.07427978515625 C 105.63068389892578 74.8532943725586 130.213134765625 124.98045349121094 151.4550018310547 102.56526184082031" stroke-width="3.0" fill="none" stroke="rgb(0, 0, 0)" stroke-opacity="1.0" stroke-linecap="round" stroke-linejoin="round"/>
    <path d="M 129.54954528808594 126.38447570800781 C 122.5818862915039 98.44635009765625 62.144954681396484 90.5587387084961 72.75762939453125 126.505126953125" stroke-width="3.0" fill="none" stroke="rgb(0, 0, 0)" stroke-opacity="1.0" stroke-linecap="round" stroke-linejoin="round"/>
    <path d="M 114.66160583496094 135.60568237304688 C 128.7987060546875 141.933837890625 133.3737030029297 100.71964263916016 117.01123809814453 104.80207061767578" stroke-width="3.0" fill="none" stroke="rgb(0, 0, 0)" stroke-opacity="1.0" stroke-linecap="round" stroke-linejoin="round"/>
    <path d="M 79.26158905029297 122.93382263183594 C 49.23196029663086 138.08688354492188 129.4044647216797 88.99376678466797 57.482391357421875 72.58540344238281" stroke-width="3.0" fill="none" stroke="rgb(0, 0, 0)" stroke-opacity="1.0" stroke-linecap="round" stroke-linejoin="round"/>
    <path d="M 149.3458709716797 109.65863800048828 C 141.9408721923828 147.8309783935547 229.77455139160156 151.36354064941406 136.26449584960938 141.150390625" stroke-width="3.0" fill="none" stroke="rgb(0, 0, 0)" stroke-opacity="1.0" stroke-linecap="round" stroke-linejoin="round"/>
    <path d="M 177.73158264160156 162.18331909179688 C 179.158935546875 144.97750854492188 206.3505859375 191.72093200683594 166.87698364257812 146.1040802001953" stroke-width="3.0" fill="none" stroke="rgb(0, 0, 0)" stroke-opacity="1.0" stroke-linecap="round" stroke-linejoin="round"/>
    <path d="M 126.29393005371094 131.7764434814453 C 120.14045715332031 76.89521026611328 152.16378784179688 123.73945617675781 118.09545135498047 128.62014770507812" stroke-width="3.0" fill="none" stroke="rgb(0, 0, 0)" stroke-opacity="1.0" stroke-linecap="round" stroke-linejoin="round"/>
    <path d="M 133.25360107421875 153.9504852294922 C 158.14443969726562 126.86592864990234 161.4792938232422 100.35192108154297 135.35853576660156 150.8302764892578" stroke-width="3.0" fill="none" stroke="rgb(0, 0, 0)" stroke-opacity="1.0" stroke-linecap="round" stroke-linejoin="round"/>
    <path d="M 138.103759765625 103.30723571777344 C 76.37801361083984 102.0218276977539 86.40750122070312 99.16018676757812 66.73434448242188 85.34605407714844" stroke-width="3.0" fill="none" stroke="rgb(0, 0, 0)" stroke-opacity="1.0" stroke-linecap="round" stroke-linejoin="round"/>
    <path d="M 101.2903060913086 105.56324005126953 C 148.2363739013672 102.6642837524414 135.26736450195312 93.43025207519531 135.9019012451172 140.38876342773438" stroke-width="3.0" fill="none" stroke="rgb(0, 0, 0)" stroke-opacity="1.0" stroke-linecap="round" stroke-linejoin="round"/>
    <path d="M 102.40116119384766 146.97576904296875 C 147.55142211914062 140.4332275390625 141.82565307617188 75.04989624023438 130.40867614746094 159.18919372558594" stroke-width="3.0" fill="none" stroke="rgb(0, 0, 0)" stroke-opacity="1.0" stroke-linecap="round" stroke-linejoin="round"/>
    <path d="M 86.7773666381836 94.0441665649414 C 48.979888916015625 71.27397918701172 22.35080337524414 118.07682800292969 53.225318908691406 81.02435302734375" stroke-width="3.0" fill="none" stroke="rgb(0, 0, 0)" stroke-opacity="1.0" stroke-linecap="round" stroke-linejoin="round"/>
    <path d="M 56.37763595581055 70.77670288085938 C 70.2696533203125 91.39529418945312 80.78533172607422 73.43113708496094 84.44735717773438 104.53559875488281" stroke-width="3.0" fill="none" stroke="rgb(0, 0, 0)" stroke-opacity="1.0" stroke-linecap="round" stroke-linejoin="round"/>
    <path d="M 91.02593994140625 100.03156280517578 C 55.307228088378906 72.2121810913086 4.29817008972168 90.69652557373047 75.1817855834961 88.03314208984375" stroke-width="3.0" fill="none" stroke="rgb(0, 0, 0)" stroke-opacity="1.0" stroke-linecap="round" stroke-linejoin="round"/>
    <path d="M 80.50907897949219 163.2910919189453 C 31.637065887451172 115.93574523925781 87.98439025878906 154.29701232910156 95.26056671142578 116.88026428222656" stroke-width="3.0" fill="none" stroke="rgb(0, 0, 0)" stroke-opacity="1.0" stroke-linecap="round" stroke-linejoin="round"/>
    <path d="M 138.53958129882812 107.57241821289062 C 168.71824645996094 150.14564514160156 162.8999481201172 78.0490951538086 108.62850952148438 102.00785827636719" stroke-width="3.0" fill="none" stroke="rgb(0, 0, 0)" stroke-opacity="1.0" stroke-linecap="round" stroke-linejoin="round"/>
    <path d="M 128.4509735107422 111.7095947265625 C 140.24441528320312 209.44065856933594 153.072265625 108.70356750488281 131.9807586669922 101.49051666259766" stroke-width="3.0" fill="none" stroke="rgb(0, 0, 0)" stroke-opacity="1.0" stroke-linecap="round" stroke-linejoin="round"/>
    <path d="M 100.19403839111328 147.334716796875 C 81.2608413696289 164.5367889404297 120.37251281738281 178.9002685546875 100.70155334472656 162.8683624267578" stroke-width="3.0" fill="none" stroke="rgb(0, 0, 0)" stroke-opacity="1.0" stroke-linecap="round" stroke-linejoin="round"/>
    <path d="M 78.33258819580078 129.3135986328125 C 128.92662048339844 141.41683959960938 133.61795043945312 120.86646270751953 140.61923217773438 108.986083984375" stroke-width="3.0" fill="none" stroke="rgb(0, 0, 0)" stroke-opacity="1.0" stroke-linecap="round" stroke-linejoin="round"/>
    <path d="M 137.74449157714844 102.88604736328125 C 84.13397979736328 113.8643798828125 99.40904235839844 77.07550048828125 74.13605499267578 120.00843048095703" stroke-width="3.0" fill="none" stroke="rgb(0, 0, 0)" stroke-opacity="1.0" stroke-linecap="round" stroke-linejoin="round"/>
    <path d="M 145.48060607910156 111.16744995117188 C 166.97328186035156 113.65005493164062 121.96497344970703 152.6318359375 137.14505004882812 128.1793212890625" stroke-width="3.0" fill="none" stroke="rgb(0, 0, 0)" stroke-opacity="1.0" stroke-linecap="round" stroke-linejoin="round"/>
    <path d="M 82.56159210205078 101.61538696289062 C 50.896705627441406 66.6529769897461 51.30015563964844 81.42787170410156 79.84537506103516 107.89824676513672" stroke-width="3.0" fill="none" stroke="rgb(0, 0, 0)" stroke-opacity="1.0" stroke-linecap="round" stroke-linejoin="round"/>
    <path d="M 76.40279388427734 124.83069610595703 C 128.9245147705078 133.1251678466797 100.71363830566406 137.54934692382812 95.13264465332031 122.65069580078125" stroke-width="3.0" fill="none" stroke="rgb(0, 0, 0)" stroke-opacity="1.0" stroke-linecap="round" stroke-linejoin="round"/>
    <path d="M 60.892364501953125 73.6268539428711 C 24.870201110839844 103.41983032226562 28.83938980102539 93.41183471679688 54.77353286743164 70.17438507080078" stroke-width="3.0" fill="none" stroke="rgb(0, 0, 0)" stroke-opacity="1.0" stroke-linecap="round" stroke-linejoin="round"/>
    <path d="M 82.04833984375 170.6029510498047 C 95.3617172241211 158.33529663085938 25.02345085144043 145.48683166503906 95.24478149414062 125.89168548583984" stroke-width="3.0" fill="none" stroke="rgb(0, 0, 0)" stroke-opacity="1.0" stroke-linecap="round" stroke-linejoin="round"/>
    <path d="M 176.42796325683594 127.81398010253906 C 167.99008178710938 116.04326629638672 168.65809631347656 86.82183837890625 151.21578979492188 106.66742706298828" stroke-width="3.0" fill="none" stroke="rgb(0, 0, 0)" stroke-opacity="1.0" stroke-linecap="round" stroke-linejoin="round"/>
    <path d="M 111.61870574951172 138.71817016601562 C 176.4231719970703 108.7327880859375 140.7586212158203 83.92534637451172 113.59033966064453 136.74090576171875" stroke-width="3.0" fill="none" stroke="rgb(0, 0, 0)" stroke-opacity="1.0" stroke-linecap="round" stroke-linejoin="round"/>
    <path d="M 61.095985412597656 76.43843078613281 C 106.18738555908203 106.18350219726562 89.51844787597656 116.6160659790039 63.283203125 81.2759017944336" stroke-width="3.0" fill="none" stroke="rgb(0, 0, 0)" stroke-opacity="1.0" stroke-linecap="round" stroke-linejoin="round"/>
    <path d="M 141.85626220703125 108.56581115722656 C 158.52908325195312 126.09004211425781 139.07733154296875 117.67098999023438 124.42293548583984 137.4645538330078" stroke-width="3.0" fill="none" stroke="rgb(0, 0, 0)" stroke-opacity="1.0" stroke-linecap="round" stroke-linejoin="round"/>
    <path d="M 71.77861022949219 83.348876953125 C 128.90676879882812 119.48206329345703 107.95770263671875 97.79347229003906 71.17527770996094 96.465087890625" stroke-width="3.0" fill="none" stroke="rgb(0, 0, 0)" stroke-opacity="1.0" stroke-linecap="round" stroke-linejoin="round"/>
    <path d="M 141.11610412597656 102.19388580322266 C 146.0598907470703 137.54766845703125 129.6859893798828 109.8740005493164 123.56867218017578 102.23912811279297" stroke-width="3.0" fill="none" stroke="rgb(0, 0, 0)" stroke-opacity="1.0" stroke-linecap="round" stroke-linejoin="round"/>
    <path d="M 75.35581970214844 86.90058135986328 C 19.981094360351562 103.17234802246094 64.39031219482422 59.74349594116211 83.82303619384766 107.08999633789062" stroke-width="3.0" fill="none" stroke="rgb(0, 0, 0)" stroke-opacity="1.0" stroke-linecap="round" stroke-linejoin="round"/>
    <path d="M 128.48448181152344 115.46305084228516 C 98.77787780761719 167.14401245117188 140.65684509277344 111.61211395263672 121.89676666259766 137.001953125" stroke-width="3.0" fill="none" stroke="rgb(0, 0, 0)" stroke-opacity="1.0" stroke-linecap="round" stroke-linejoin="round"/>
    <path d="M 116.81676483154297 138.1603240966797 C 142.3323211669922 107.40768432617188 129.62643432617188 128.27940368652344 119.64276123046875 103.98388671875" stroke-width="3.0" fill="none" stroke="rgb(0, 0, 0)" stroke-opacity="1.0" stroke-linecap="round" stroke-linejoin="round"/>
    <path d="M 141.16314697265625 147.43995666503906 C 129.9183807373047 124.80320739746094 154.7387237548828 122.89229583740234 124.36990356445312 104.89132690429688" stroke-width="3.0" fill="none" stroke="rgb(0, 0, 0)" stroke-opacity="1.0" stroke-linecap="round" stroke-linejoin="round"/>
    <path d="M 117.0708999633789 103.07281494140625 C 135.52685546875 156.92044067382812 165.51939392089844 127.91404724121094 108.7327880859375 176.74139404296875" stroke-width="3.0" fill="none" stroke="rgb(0, 0, 0)" stroke-opacity="1.0" stroke-linecap="round" stroke-linejoin="round"/>
    <path d="M 199.9245147705078 129.91287231445312 C 136.31802368164062 148.72984313964844 127.70511627197266 140.82691955566406 175.54046630859375 137.7941131591797" stroke-width="3.0" fill="none" stroke="rgb(0, 0, 0)" stroke-opacity="1.0" stroke-linecap="round" stroke-linejoin="round"/>
    <path d="M 128.5579376220703 119.90777587890625 C 96.04773712158203 96.04998016357422 169.97506713867188 87.78724670410156 128.8925018310547 124.63053894042969" stroke-width="3.0" fill="none" stroke="rgb(0, 0, 0)" stroke-opacity="1.0" stroke-linecap="round" stroke-linejoin="round"/>
    <path d="M 79.46593475341797 107.24244689941406 C 43.57583236694336 61.30027770996094 75.3330078125 83.4045639038086 74.7204818725586 131.46795654296875" stroke-width="3.0" fill="none" stroke="rgb(0, 0, 0)" stroke-opacity="1.0" stroke-linecap="round" stroke-linejoin="round"/>
    <path d="M 73.8829116821289 132.10409545898438 C 160.8651885986328 148.21298217773438 103.42708587646484 130.27890014648438 74.5471420288086 125.23865509033203" stroke-width="3.0" fill="none" stroke="rgb(0, 0, 0)" stroke-opacity="1.0" stroke-linecap="round" stroke-linejoin="round"/>
    <path d="M 47.093997955322266 74.67933654785156 C 113.70377349853516 67.24149322509766 95.51842498779297 143.85455322265625 64.26698303222656 80.39653778076172" stroke-width="3.0" fill="none" stroke="rgb(0, 0, 0)" stroke-opacity="1.0" stroke-linecap="round" stroke-linejoin="round"/>
    <path d="M 133.9619598388672 122.5123062133789 C 118.84949493408203 102.99359893798828 158.45938110351562 91.7642593383789 155.6763458251953 131.2201385498047" stroke-width="3.0" fill="none" stroke="rgb(0, 0, 0)" stroke-opacity="1.0" stroke-linecap="round" stroke-linejoin="round"/>
    <path d="M 158.5585174560547 100.75520324707031 C 180.77975463867188 131.94149780273438 205.3552703857422 137.87286376953125 158.43112182617188 100.00847625732422" stroke-width="3.0" fill="none" stroke="rgb(0, 0, 0)" stroke-opacity="1.0" stroke-linecap="round" stroke-linejoin="round"/>
    <path d="M 56.56866455078125 80.4605941772461 C 64.13409423828125 87.48041534423828 55.973487854003906 56.6463623046875 79.85169219970703 109.93883514404297" stroke-width="3.0" fill="none" stroke="rgb(0, 0, 0)" stroke-opacity="1.0" stroke-linecap="round" stroke-linejoin="round"/>
    <path d="M 64.1609878540039 71.74401092529297 C 34.708038330078125 121.37801361083984 33.35624694824219 83.5049057006836 60.81847381591797 75.70008850097656" stroke-width="3.0" fill="none" stroke="rgb(0, 0, 0)" stroke-opacity="1.0" stroke-linecap="round" stroke-linejoin="round"/>
  </g>
</svg>
