<?xml version="1.0" ?>
<svg xmlns="http://www.w3.org/2000/svg" version="1.1" width="224" height="224">
  <defs/>
  <g>
    <path d="M 120.63395690917969 107.0022201538086 C 90.95549011230469 97.37332153320312 90.52180480957031 109.8453598022461 129.68167114257812 97.88013458251953" stroke-width="3.0" fill="none" stroke="rgb(0, 0, 0)" stroke-opacity="1.0" stroke-linecap="round" stroke-linejoin="round"/>
    <path d="M 164.05149841308594 108.99303436279297 C 179.228759765625 135.28793334960938 214.9472198486328 128.59500122070312 199.49562072753906 134.01480102539062" stroke-width="3.0" fill="none" stroke="rgb(0, 0, 0)" stroke-opacity="1.0" stroke-linecap="round" stroke-linejoin="round"/>
    <path d="M 139.5738983154297 131.53097534179688 C 123.04820251464844 103.93484497070312 126.71045684814453 114.2604751586914 153.966552734375 142.6888885498047" stroke-width="3.0" fill="none" stroke="rgb(0, 0, 0)" stroke-opacity="1.0" stroke-linecap="round" stroke-linejoin="round"/>
    <path d="M 128.4425811767578 122.73906707763672 C 113.18153381347656 107.39103698730469 113.32710266113281 108.53775024414062 140.3695068359375 116.77598571777344" stroke-width="3.0" fill="none" stroke="rgb(0, 0, 0)" stroke-opacity="1.0" stroke-linecap="round" stroke-linejoin="round"/>
    <path d="M 124.36793518066406 115.48453521728516 C 102.71585845947266 97.61383056640625 93.7138671875 92.84867858886719 76.01644897460938 127.06928253173828" stroke-width="3.0" fill="none" stroke="rgb(0, 0, 0)" stroke-opacity="1.0" stroke-linecap="round" stroke-linejoin="round"/>
    <path d="M 136.99273681640625 107.1846694946289 C 143.38818359375 124.04907989501953 153.39645385742188 115.16392517089844 130.14720153808594 100.9387435913086" stroke-width="3.0" fill="none" stroke="rgb(0, 0, 0)" stroke-opacity="1.0" stroke-linecap="round" stroke-linejoin="round"/>
    <path d="M 73.69963836669922 127.18216705322266 C 61.500003814697266 110.24083709716797 98.70232391357422 120.86026000976562 68.58808135986328 82.27755737304688" stroke-width="3.0" fill="none" stroke="rgb(0, 0, 0)" stroke-opacity="1.0" stroke-linecap="round" stroke-linejoin="round"/>
    <path d="M 147.5999755859375 139.20355224609375 C 140.3705291748047 145.61537170410156 211.60385131835938 150.5838165283203 137.48992919921875 137.15109252929688" stroke-width="3.0" fill="none" stroke="rgb(0, 0, 0)" stroke-opacity="1.0" stroke-linecap="round" stroke-linejoin="round"/>
    <path d="M 185.2692413330078 163.0925750732422 C 188.66510009765625 153.45594787597656 187.1451873779297 169.07713317871094 164.68572998046875 144.13818359375" stroke-width="3.0" fill="none" stroke="rgb(0, 0, 0)" stroke-opacity="1.0" stroke-linecap="round" stroke-linejoin="round"/>
    <path d="M 141.5841827392578 109.92943572998047 C 125.46332550048828 96.4508285522461 138.0201873779297 114.63175201416016 123.69503021240234 135.57838439941406" stroke-width="3.0" fill="none" stroke="rgb(0, 0, 0)" stroke-opacity="1.0" stroke-linecap="round" stroke-linejoin="round"/>
    <path d="M 134.05909729003906 128.0886688232422 C 151.7279815673828 118.55107116699219 156.88577270507812 113.88995361328125 140.7180938720703 139.3645477294922" stroke-width="3.0" fill="none" stroke="rgb(0, 0, 0)" stroke-opacity="1.0" stroke-linecap="round" stroke-linejoin="round"/>
    <path d="M 122.76994323730469 103.0440902709961 C 121.9795150756836 105.80765533447266 108.63419342041016 106.33971405029297 94.85692596435547 97.37782287597656" stroke-width="3.0" fill="none" stroke="rgb(0, 0, 0)" stroke-opacity="1.0" stroke-linecap="round" stroke-linejoin="round"/>
    <path d="M 113.38065338134766 103.67524719238281 C 138.21897888183594 108.0690689086914 123.75814056396484 94.17121887207031 125.78189086914062 130.43531799316406" stroke-width="3.0" fill="none" stroke="rgb(0, 0, 0)" stroke-opacity="1.0" stroke-linecap="round" stroke-linejoin="round"/>
    <path d="M 102.3247299194336 146.5223388671875 C 142.34326171875 133.35198974609375 155.30209350585938 106.46053314208984 131.22071838378906 158.41494750976562" stroke-width="3.0" fill="none" stroke="rgb(0, 0, 0)" stroke-opacity="1.0" stroke-linecap="round" stroke-linejoin="round"/>
    <path d="M 80.19607543945312 90.08157348632812 C 31.8031005859375 59.84868240356445 53.55958557128906 74.9890365600586 80.96419525146484 87.57592010498047" stroke-width="3.0" fill="none" stroke="rgb(0, 0, 0)" stroke-opacity="1.0" stroke-linecap="round" stroke-linejoin="round"/>
    <path d="M 56.77375411987305 79.34584045410156 C 68.77024841308594 65.77716827392578 86.19876098632812 81.40713500976562 89.17292785644531 97.01729583740234" stroke-width="3.0" fill="none" stroke="rgb(0, 0, 0)" stroke-opacity="1.0" stroke-linecap="round" stroke-linejoin="round"/>
    <path d="M 60.16727066040039 77.59185028076172 C 53.710899353027344 70.62395477294922 41.65109634399414 82.61548614501953 66.21813201904297 80.217041015625" stroke-width="3.0" fill="none" stroke="rgb(0, 0, 0)" stroke-opacity="1.0" stroke-linecap="round" stroke-linejoin="round"/>
    <path d="M 68.25763702392578 139.63729858398438 C 96.43172454833984 126.51127624511719 60.07857131958008 136.17245483398438 100.756103515625 129.74266052246094" stroke-width="3.0" fill="none" stroke="rgb(0, 0, 0)" stroke-opacity="1.0" stroke-linecap="round" stroke-linejoin="round"/>
    <path d="M 130.30813598632812 105.0675277709961 C 159.97528076171875 134.69651794433594 157.38638305664062 109.14620208740234 120.09859466552734 107.91417694091797" stroke-width="3.0" fill="none" stroke="rgb(0, 0, 0)" stroke-opacity="1.0" stroke-linecap="round" stroke-linejoin="round"/>
    <path d="M 134.5711212158203 156.6902618408203 C 142.67758178710938 150.50863647460938 127.52532196044922 134.89671325683594 149.74356079101562 120.17207336425781" stroke-width="3.0" fill="none" stroke="rgb(0, 0, 0)" stroke-opacity="1.0" stroke-linecap="round" stroke-linejoin="round"/>
    <path d="M 100.46600341796875 147.09548950195312 C 82.58037567138672 169.32022094726562 120.80742645263672 166.8694610595703 109.33779907226562 176.32754516601562" stroke-width="3.0" fill="none" stroke="rgb(0, 0, 0)" stroke-opacity="1.0" stroke-linecap="round" stroke-linejoin="round"/>
    <path d="M 90.12989044189453 128.57379150390625 C 118.49122619628906 129.72222900390625 123.62955474853516 135.38682556152344 144.35516357421875 120.9070053100586" stroke-width="3.0" fill="none" stroke="rgb(0, 0, 0)" stroke-opacity="1.0" stroke-linecap="round" stroke-linejoin="round"/>
    <path d="M 120.08963775634766 101.50553894042969 C 104.07183074951172 111.4365234375 92.15360260009766 99.32199096679688 79.91161346435547 107.80701446533203" stroke-width="3.0" fill="none" stroke="rgb(0, 0, 0)" stroke-opacity="1.0" stroke-linecap="round" stroke-linejoin="round"/>
    <path d="M 137.40174865722656 118.60689544677734 C 143.93675231933594 152.8147430419922 129.8134307861328 135.96705627441406 136.51657104492188 124.45838928222656" stroke-width="3.0" fill="none" stroke="rgb(0, 0, 0)" stroke-opacity="1.0" stroke-linecap="round" stroke-linejoin="round"/>
    <path d="M 78.62360382080078 80.53736114501953 C 65.75244140625 70.40982055664062 85.52716827392578 73.65628814697266 90.90840148925781 96.38558197021484" stroke-width="3.0" fill="none" stroke="rgb(0, 0, 0)" stroke-opacity="1.0" stroke-linecap="round" stroke-linejoin="round"/>
    <path d="M 98.61329650878906 120.72488403320312 C 102.56417083740234 124.0523452758789 84.14850616455078 132.8828582763672 97.00482177734375 119.8227767944336" stroke-width="3.0" fill="none" stroke="rgb(0, 0, 0)" stroke-opacity="1.0" stroke-linecap="round" stroke-linejoin="round"/>
    <path d="M 58.55916976928711 73.05043029785156 C 25.162511825561523 100.3329086303711 38.83229064941406 105.49995422363281 53.421669006347656 80.92750549316406" stroke-width="3.0" fill="none" stroke="rgb(0, 0, 0)" stroke-opacity="1.0" stroke-linecap="round" stroke-linejoin="round"/>
    <path d="M 81.04278564453125 171.99124145507812 C 82.66790008544922 151.1256103515625 37.21171569824219 144.90911865234375 78.35302734375 126.59115600585938" stroke-width="3.0" fill="none" stroke="rgb(0, 0, 0)" stroke-opacity="1.0" stroke-linecap="round" stroke-linejoin="round"/>
    <path d="M 176.59608459472656 122.80555725097656 C 167.03384399414062 114.50971984863281 166.77398681640625 87.25933837890625 149.16229248046875 106.66739654541016" stroke-width="3.0" fill="none" stroke="rgb(0, 0, 0)" stroke-opacity="1.0" stroke-linecap="round" stroke-linejoin="round"/>
    <path d="M 138.22532653808594 113.32999420166016 C 116.05528259277344 111.2533187866211 118.41395568847656 100.2883071899414 123.35591888427734 126.14981079101562" stroke-width="3.0" fill="none" stroke="rgb(0, 0, 0)" stroke-opacity="1.0" stroke-linecap="round" stroke-linejoin="round"/>
    <path d="M 76.9012680053711 88.82678985595703 C 95.45408630371094 101.9158706665039 60.30239486694336 125.68018341064453 94.51988220214844 98.91889190673828" stroke-width="3.0" fill="none" stroke="rgb(0, 0, 0)" stroke-opacity="1.0" stroke-linecap="round" stroke-linejoin="round"/>
    <path d="M 127.5939712524414 122.50051879882812 C 132.72146606445312 131.87171936035156 103.67562103271484 124.93959045410156 122.31314086914062 136.29635620117188" stroke-width="3.0" fill="none" stroke="rgb(0, 0, 0)" stroke-opacity="1.0" stroke-linecap="round" stroke-linejoin="round"/>
    <path d="M 89.78228759765625 94.70323944091797 C 110.32733154296875 115.41275024414062 116.49537658691406 105.2308120727539 78.08219146728516 107.97863006591797" stroke-width="3.0" fill="none" stroke="rgb(0, 0, 0)" stroke-opacity="1.0" stroke-linecap="round" stroke-linejoin="round"/>
    <path d="M 129.86326599121094 113.27510833740234 C 142.96237182617188 116.9897689819336 133.61729431152344 108.55940246582031 123.72895812988281 102.23262786865234" stroke-width="3.0" fill="none" stroke="rgb(0, 0, 0)" stroke-opacity="1.0" stroke-linecap="round" stroke-linejoin="round"/>
    <path d="M 63.08962631225586 86.26370239257812 C 29.49954605102539 91.81124877929688 51.65800094604492 75.2058334350586 64.42503356933594 86.91069030761719" stroke-width="3.0" fill="none" stroke="rgb(0, 0, 0)" stroke-opacity="1.0" stroke-linecap="round" stroke-linejoin="round"/>
    <path d="M 130.5373077392578 101.57749938964844 C 139.8015594482422 130.18211364746094 162.4292755126953 118.79853820800781 142.12115478515625 129.1962432861328" stroke-width="3.0" fill="none" stroke="rgb(0, 0, 0)" stroke-opacity="1.0" stroke-linecap="round" stroke-linejoin="round"/>
    <path d="M 125.00668334960938 123.34381103515625 C 131.97488403320312 105.98564147949219 127.3537826538086 121.09346771240234 114.1837387084961 128.5445098876953" stroke-width="3.0" fill="none" stroke="rgb(0, 0, 0)" stroke-opacity="1.0" stroke-linecap="round" stroke-linejoin="round"/>
    <path d="M 146.05259704589844 113.61592102050781 C 127.56419372558594 111.14013671875 134.4674835205078 92.09527587890625 146.85858154296875 112.8965835571289" stroke-width="3.0" fill="none" stroke="rgb(0, 0, 0)" stroke-opacity="1.0" stroke-linecap="round" stroke-linejoin="round"/>
    <path d="M 133.17738342285156 116.69364166259766 C 130.30125427246094 173.7224578857422 161.3777313232422 144.11398315429688 112.83375549316406 167.9445343017578" stroke-width="3.0" fill="none" stroke="rgb(0, 0, 0)" stroke-opacity="1.0" stroke-linecap="round" stroke-linejoin="round"/>
    <path d="M 196.7806854248047 133.50604248046875 C 168.6287384033203 109.69091796875 146.044677734375 93.48932647705078 169.85845947265625 120.82006072998047" stroke-width="3.0" fill="none" stroke="rgb(0, 0, 0)" stroke-opacity="1.0" stroke-linecap="round" stroke-linejoin="round"/>
    <path d="M 124.86900329589844 113.67625427246094 C 121.71083068847656 92.96248626708984 147.2096405029297 93.13004302978516 150.89064025878906 117.26962280273438" stroke-width="3.0" fill="none" stroke="rgb(0, 0, 0)" stroke-opacity="1.0" stroke-linecap="round" stroke-linejoin="round"/>
    <path d="M 68.13497161865234 83.66912078857422 C 54.12345504760742 77.5586166381836 81.65757751464844 95.16129302978516 72.00039672851562 118.16482543945312" stroke-width="3.0" fill="none" stroke="rgb(0, 0, 0)" stroke-opacity="1.0" stroke-linecap="round" stroke-linejoin="round"/>
    <path d="M 94.37016296386719 125.3613510131836 C 110.98453521728516 131.49322509765625 96.34461212158203 124.56199645996094 93.85519409179688 115.8671646118164" stroke-width="3.0" fill="none" stroke="rgb(0, 0, 0)" stroke-opacity="1.0" stroke-linecap="round" stroke-linejoin="round"/>
    <path d="M 60.20912170410156 70.21076965332031 C 81.29066467285156 75.31009674072266 90.52201080322266 85.525146484375 76.47332000732422 76.69171142578125" stroke-width="3.0" fill="none" stroke="rgb(0, 0, 0)" stroke-opacity="1.0" stroke-linecap="round" stroke-linejoin="round"/>
    <path d="M 149.56838989257812 116.42254638671875 C 140.5987091064453 117.41205596923828 131.03945922851562 113.56175994873047 121.43526458740234 126.38082885742188" stroke-width="3.0" fill="none" stroke="rgb(0, 0, 0)" stroke-opacity="1.0" stroke-linecap="round" stroke-linejoin="round"/>
    <path d="M 156.40011596679688 101.51900482177734 C 184.1341552734375 116.85905456542969 196.02438354492188 134.26979064941406 166.8189697265625 114.37786865234375" stroke-width="3.0" fill="none" stroke="rgb(0, 0, 0)" stroke-opacity="1.0" stroke-linecap="round" stroke-linejoin="round"/>
    <path d="M 41.245906829833984 91.93187713623047 C 63.62568283081055 93.1986312866211 49.16464614868164 97.99488067626953 66.26776123046875 83.98492431640625" stroke-width="3.0" fill="none" stroke="rgb(0, 0, 0)" stroke-opacity="1.0" stroke-linecap="round" stroke-linejoin="round"/>
    <path d="M 57.64543533325195 76.15961456298828 C 52.548362731933594 94.58650207519531 53.64905548095703 84.11663818359375 66.84313201904297 85.76387023925781" stroke-width="3.0" fill="none" stroke="rgb(0, 0, 0)" stroke-opacity="1.0" stroke-linecap="round" stroke-linejoin="round"/>
  </g>
</svg>
