<?xml version="1.0" ?>
<svg xmlns="http://www.w3.org/2000/svg" version="1.1" width="224" height="224">
  <defs/>
  <g>
    <path d="M 119.47953033447266 109.24571990966797 C 91.4658432006836 96.73429870605469 91.00208282470703 109.60440063476562 129.74551391601562 99.98353576660156" stroke-width="3.0" fill="none" stroke="rgb(0, 0, 0)" stroke-opacity="1.0" stroke-linecap="round" stroke-linejoin="round"/>
    <path d="M 162.21279907226562 110.53633880615234 C 178.1527557373047 135.7843780517578 212.16305541992188 127.50834655761719 195.25051879882812 133.84466552734375" stroke-width="3.0" fill="none" stroke="rgb(0, 0, 0)" stroke-opacity="1.0" stroke-linecap="round" stroke-linejoin="round"/>
    <path d="M 136.0601043701172 132.10562133789062 C 124.1555404663086 102.40177917480469 128.29409790039062 111.81163787841797 154.23477172851562 138.88079833984375" stroke-width="3.0" fill="none" stroke="rgb(0, 0, 0)" stroke-opacity="1.0" stroke-linecap="round" stroke-linejoin="round"/>
    <path d="M 128.0160675048828 122.74756622314453 C 111.13813781738281 108.6404800415039 112.50379180908203 107.9228515625 140.06884765625 117.12533569335938" stroke-width="3.0" fill="none" stroke="rgb(0, 0, 0)" stroke-opacity="1.0" stroke-linecap="round" stroke-linejoin="round"/>
    <path d="M 121.87741088867188 116.58604431152344 C 97.73585510253906 97.75293731689453 91.96586608886719 90.96100616455078 76.1974105834961 125.60659790039062" stroke-width="3.0" fill="none" stroke="rgb(0, 0, 0)" stroke-opacity="1.0" stroke-linecap="round" stroke-linejoin="round"/>
    <path d="M 139.9384307861328 106.9455337524414 C 144.98330688476562 119.83976745605469 153.69129943847656 114.36637878417969 131.0435028076172 103.7515869140625" stroke-width="3.0" fill="none" stroke="rgb(0, 0, 0)" stroke-opacity="1.0" stroke-linecap="round" stroke-linejoin="round"/>
    <path d="M 74.31090545654297 127.25216674804688 C 61.49065017700195 109.37918853759766 97.13433074951172 120.27519226074219 67.3057861328125 83.52408599853516" stroke-width="3.0" fill="none" stroke="rgb(0, 0, 0)" stroke-opacity="1.0" stroke-linecap="round" stroke-linejoin="round"/>
    <path d="M 149.05055236816406 137.60804748535156 C 145.00509643554688 144.69789123535156 213.28843688964844 153.0968475341797 137.35794067382812 136.74855041503906" stroke-width="3.0" fill="none" stroke="rgb(0, 0, 0)" stroke-opacity="1.0" stroke-linecap="round" stroke-linejoin="round"/>
    <path d="M 184.812744140625 163.6901092529297 C 189.2750701904297 151.90032958984375 185.8115234375 166.15945434570312 161.5305633544922 144.21792602539062" stroke-width="3.0" fill="none" stroke="rgb(0, 0, 0)" stroke-opacity="1.0" stroke-linecap="round" stroke-linejoin="round"/>
    <path d="M 140.68614196777344 106.33232116699219 C 124.79070281982422 93.19837951660156 133.77650451660156 112.29989624023438 122.48670959472656 131.81732177734375" stroke-width="3.0" fill="none" stroke="rgb(0, 0, 0)" stroke-opacity="1.0" stroke-linecap="round" stroke-linejoin="round"/>
    <path d="M 133.51513671875 127.18480682373047 C 149.6942901611328 118.34182739257812 152.96591186523438 113.01185607910156 144.048095703125 139.49754333496094" stroke-width="3.0" fill="none" stroke="rgb(0, 0, 0)" stroke-opacity="1.0" stroke-linecap="round" stroke-linejoin="round"/>
    <path d="M 121.84581756591797 103.6901626586914 C 120.73629760742188 108.31805419921875 108.17794799804688 108.33515930175781 95.917236328125 96.65122985839844" stroke-width="3.0" fill="none" stroke="rgb(0, 0, 0)" stroke-opacity="1.0" stroke-linecap="round" stroke-linejoin="round"/>
    <path d="M 109.24675750732422 109.7452163696289 C 130.70277404785156 107.87125396728516 120.09747314453125 93.77323913574219 127.81257629394531 128.66017150878906" stroke-width="3.0" fill="none" stroke="rgb(0, 0, 0)" stroke-opacity="1.0" stroke-linecap="round" stroke-linejoin="round"/>
    <path d="M 100.96870422363281 145.64193725585938 C 144.74053955078125 136.64944458007812 153.64889526367188 110.91897583007812 130.83624267578125 159.22235107421875" stroke-width="3.0" fill="none" stroke="rgb(0, 0, 0)" stroke-opacity="1.0" stroke-linecap="round" stroke-linejoin="round"/>
    <path d="M 81.74752807617188 91.97211456298828 C 34.997894287109375 58.410648345947266 53.97418975830078 75.88530731201172 77.60001373291016 93.30509948730469" stroke-width="3.0" fill="none" stroke="rgb(0, 0, 0)" stroke-opacity="1.0" stroke-linecap="round" stroke-linejoin="round"/>
    <path d="M 60.15641403198242 80.48088073730469 C 74.67826080322266 65.50969696044922 84.93923950195312 79.35277557373047 87.57109832763672 96.85120391845703" stroke-width="3.0" fill="none" stroke="rgb(0, 0, 0)" stroke-opacity="1.0" stroke-linecap="round" stroke-linejoin="round"/>
    <path d="M 59.28193664550781 79.3777084350586 C 51.332740783691406 72.91018676757812 39.954498291015625 80.41788482666016 67.3713150024414 76.43588256835938" stroke-width="3.0" fill="none" stroke="rgb(0, 0, 0)" stroke-opacity="1.0" stroke-linecap="round" stroke-linejoin="round"/>
    <path d="M 67.75093841552734 139.42062377929688 C 94.84285736083984 120.76781463623047 64.34170532226562 131.5012969970703 101.08174896240234 130.43499755859375" stroke-width="3.0" fill="none" stroke="rgb(0, 0, 0)" stroke-opacity="1.0" stroke-linecap="round" stroke-linejoin="round"/>
    <path d="M 130.14410400390625 106.29255676269531 C 159.78158569335938 135.4066925048828 160.0377655029297 108.43576049804688 120.43164825439453 110.40386199951172" stroke-width="3.0" fill="none" stroke="rgb(0, 0, 0)" stroke-opacity="1.0" stroke-linecap="round" stroke-linejoin="round"/>
    <path d="M 134.7123565673828 157.49366760253906 C 142.5454559326172 151.05825805664062 127.2003402709961 132.02207946777344 149.24815368652344 118.88194274902344" stroke-width="3.0" fill="none" stroke="rgb(0, 0, 0)" stroke-opacity="1.0" stroke-linecap="round" stroke-linejoin="round"/>
    <path d="M 99.89280700683594 146.5806884765625 C 81.95621490478516 170.28652954101562 120.79241180419922 168.68096923828125 105.9905776977539 172.29031372070312" stroke-width="3.0" fill="none" stroke="rgb(0, 0, 0)" stroke-opacity="1.0" stroke-linecap="round" stroke-linejoin="round"/>
    <path d="M 91.15046691894531 126.90888214111328 C 118.49453735351562 131.6317138671875 123.79569244384766 137.30538940429688 143.21017456054688 120.84381103515625" stroke-width="3.0" fill="none" stroke="rgb(0, 0, 0)" stroke-opacity="1.0" stroke-linecap="round" stroke-linejoin="round"/>
    <path d="M 121.59211730957031 102.97368621826172 C 105.88998413085938 108.23397827148438 93.81951904296875 100.2054443359375 82.75468444824219 109.0176010131836" stroke-width="3.0" fill="none" stroke="rgb(0, 0, 0)" stroke-opacity="1.0" stroke-linecap="round" stroke-linejoin="round"/>
    <path d="M 139.6539306640625 117.43527221679688 C 143.94937133789062 150.43360900878906 125.79973602294922 134.34146118164062 133.88262939453125 125.48165893554688" stroke-width="3.0" fill="none" stroke="rgb(0, 0, 0)" stroke-opacity="1.0" stroke-linecap="round" stroke-linejoin="round"/>
    <path d="M 77.92981719970703 80.119873046875 C 65.15922546386719 75.86873626708984 84.73974609375 77.20179748535156 86.11070251464844 90.67919921875" stroke-width="3.0" fill="none" stroke="rgb(0, 0, 0)" stroke-opacity="1.0" stroke-linecap="round" stroke-linejoin="round"/>
    <path d="M 97.84320068359375 123.02890014648438 C 101.81708526611328 122.53443145751953 85.65137481689453 132.3062286376953 95.82402801513672 119.92069244384766" stroke-width="3.0" fill="none" stroke="rgb(0, 0, 0)" stroke-opacity="1.0" stroke-linecap="round" stroke-linejoin="round"/>
    <path d="M 59.28193283081055 74.37725067138672 C 26.63397789001465 97.9569091796875 41.80406188964844 105.174072265625 52.52847671508789 80.36762237548828" stroke-width="3.0" fill="none" stroke="rgb(0, 0, 0)" stroke-opacity="1.0" stroke-linecap="round" stroke-linejoin="round"/>
    <path d="M 84.30835723876953 171.91455078125 C 82.65412902832031 149.40232849121094 42.7974853515625 145.709716796875 78.23310089111328 126.29358673095703" stroke-width="3.0" fill="none" stroke="rgb(0, 0, 0)" stroke-opacity="1.0" stroke-linecap="round" stroke-linejoin="round"/>
    <path d="M 176.83541870117188 122.28652954101562 C 167.0910186767578 117.14912414550781 165.6956024169922 88.708740234375 148.66253662109375 107.10839080810547" stroke-width="3.0" fill="none" stroke="rgb(0, 0, 0)" stroke-opacity="1.0" stroke-linecap="round" stroke-linejoin="round"/>
    <path d="M 138.57937622070312 112.15113830566406 C 116.4945297241211 109.82466125488281 116.16903686523438 99.98799896240234 121.1911849975586 126.38209533691406" stroke-width="3.0" fill="none" stroke="rgb(0, 0, 0)" stroke-opacity="1.0" stroke-linecap="round" stroke-linejoin="round"/>
    <path d="M 77.07251739501953 90.9713363647461 C 93.60529327392578 102.05487823486328 61.265167236328125 126.4898681640625 91.2401123046875 101.3287353515625" stroke-width="3.0" fill="none" stroke="rgb(0, 0, 0)" stroke-opacity="1.0" stroke-linecap="round" stroke-linejoin="round"/>
    <path d="M 129.85581970214844 121.23014831542969 C 133.222412109375 130.80787658691406 104.78471374511719 126.765869140625 122.11256408691406 134.6499786376953" stroke-width="3.0" fill="none" stroke="rgb(0, 0, 0)" stroke-opacity="1.0" stroke-linecap="round" stroke-linejoin="round"/>
    <path d="M 91.43155670166016 95.51911926269531 C 107.88097381591797 118.94114685058594 111.7572250366211 107.88191223144531 78.78461456298828 104.16356658935547" stroke-width="3.0" fill="none" stroke="rgb(0, 0, 0)" stroke-opacity="1.0" stroke-linecap="round" stroke-linejoin="round"/>
    <path d="M 128.61181640625 115.62708282470703 C 140.69961547851562 118.65890502929688 132.47085571289062 107.863525390625 124.95868682861328 101.28794860839844" stroke-width="3.0" fill="none" stroke="rgb(0, 0, 0)" stroke-opacity="1.0" stroke-linecap="round" stroke-linejoin="round"/>
    <path d="M 70.15609741210938 87.51790618896484 C 34.7778205871582 88.73226165771484 56.635475158691406 75.95121765136719 66.97388458251953 86.29337310791016" stroke-width="3.0" fill="none" stroke="rgb(0, 0, 0)" stroke-opacity="1.0" stroke-linecap="round" stroke-linejoin="round"/>
    <path d="M 125.31887817382812 106.08208465576172 C 140.25149536132812 128.88876342773438 162.7297821044922 117.45094299316406 141.13172912597656 128.08682250976562" stroke-width="3.0" fill="none" stroke="rgb(0, 0, 0)" stroke-opacity="1.0" stroke-linecap="round" stroke-linejoin="round"/>
    <path d="M 124.2083969116211 122.27962493896484 C 132.1382598876953 106.26054382324219 127.48431396484375 120.21757507324219 113.31432342529297 129.07919311523438" stroke-width="3.0" fill="none" stroke="rgb(0, 0, 0)" stroke-opacity="1.0" stroke-linecap="round" stroke-linejoin="round"/>
    <path d="M 147.38995361328125 113.63168334960938 C 126.7295913696289 111.72089385986328 132.11639404296875 91.13994598388672 145.6171112060547 111.11503601074219" stroke-width="3.0" fill="none" stroke="rgb(0, 0, 0)" stroke-opacity="1.0" stroke-linecap="round" stroke-linejoin="round"/>
    <path d="M 132.87193298339844 117.9113540649414 C 127.20538330078125 172.932373046875 162.2052459716797 143.97286987304688 115.41012573242188 167.33291625976562" stroke-width="3.0" fill="none" stroke="rgb(0, 0, 0)" stroke-opacity="1.0" stroke-linecap="round" stroke-linejoin="round"/>
    <path d="M 194.7170867919922 133.18490600585938 C 168.18148803710938 110.29622650146484 142.52127075195312 96.38912963867188 169.71612548828125 122.3287353515625" stroke-width="3.0" fill="none" stroke="rgb(0, 0, 0)" stroke-opacity="1.0" stroke-linecap="round" stroke-linejoin="round"/>
    <path d="M 121.07439422607422 113.15998077392578 C 121.3915786743164 94.1695327758789 149.4835205078125 92.62422180175781 151.8074493408203 117.47340393066406" stroke-width="3.0" fill="none" stroke="rgb(0, 0, 0)" stroke-opacity="1.0" stroke-linecap="round" stroke-linejoin="round"/>
    <path d="M 69.01097869873047 83.35243225097656 C 54.29924011230469 77.86243438720703 79.55465698242188 96.9072265625 72.52938842773438 118.60250091552734" stroke-width="3.0" fill="none" stroke="rgb(0, 0, 0)" stroke-opacity="1.0" stroke-linecap="round" stroke-linejoin="round"/>
    <path d="M 92.95872497558594 124.52559661865234 C 112.68826293945312 129.88555908203125 95.4494400024414 126.15570068359375 92.843017578125 119.16065216064453" stroke-width="3.0" fill="none" stroke="rgb(0, 0, 0)" stroke-opacity="1.0" stroke-linecap="round" stroke-linejoin="round"/>
    <path d="M 62.89003372192383 74.33877563476562 C 79.19371032714844 77.18595886230469 86.86392211914062 88.35147857666016 73.69849395751953 80.1792984008789" stroke-width="3.0" fill="none" stroke="rgb(0, 0, 0)" stroke-opacity="1.0" stroke-linecap="round" stroke-linejoin="round"/>
    <path d="M 149.5467987060547 118.28520965576172 C 141.1448516845703 119.11346435546875 133.2194061279297 115.00920867919922 121.97877502441406 126.46395874023438" stroke-width="3.0" fill="none" stroke="rgb(0, 0, 0)" stroke-opacity="1.0" stroke-linecap="round" stroke-linejoin="round"/>
    <path d="M 156.74801635742188 104.5395736694336 C 182.3085479736328 116.4897232055664 193.04197692871094 131.17095947265625 166.3983154296875 115.98217010498047" stroke-width="3.0" fill="none" stroke="rgb(0, 0, 0)" stroke-opacity="1.0" stroke-linecap="round" stroke-linejoin="round"/>
    <path d="M 42.218807220458984 90.79118347167969 C 64.42525482177734 92.46307373046875 46.92782211303711 98.83708190917969 64.1832046508789 82.39746856689453" stroke-width="3.0" fill="none" stroke="rgb(0, 0, 0)" stroke-opacity="1.0" stroke-linecap="round" stroke-linejoin="round"/>
    <path d="M 59.02116012573242 77.1828842163086 C 53.29955291748047 95.54435729980469 50.93732452392578 81.8311538696289 62.029197692871094 85.66896057128906" stroke-width="3.0" fill="none" stroke="rgb(0, 0, 0)" stroke-opacity="1.0" stroke-linecap="round" stroke-linejoin="round"/>
  </g>
</svg>
