<?xml version="1.0" ?>
<svg xmlns="http://www.w3.org/2000/svg" version="1.1" width="224" height="224">
  <defs/>
  <g>
    <path d="M 112.08819580078125 115.65839385986328 C 97.2900390625 91.55873107910156 97.07426452636719 111.20878601074219 131.55340576171875 99.95411682128906" stroke-width="3.0" fill="none" stroke="rgb(0, 0, 0)" stroke-opacity="1.0" stroke-linecap="round" stroke-linejoin="round"/>
    <path d="M 163.27130126953125 110.49739074707031 C 180.68551635742188 135.68380737304688 216.01828002929688 129.6530303955078 200.170654296875 135.03280639648438" stroke-width="3.0" fill="none" stroke="rgb(0, 0, 0)" stroke-opacity="1.0" stroke-linecap="round" stroke-linejoin="round"/>
    <path d="M 132.63246154785156 123.06538391113281 C 132.02403259277344 106.42082977294922 140.57003784179688 106.96746826171875 146.24313354492188 138.23348999023438" stroke-width="3.0" fill="none" stroke="rgb(0, 0, 0)" stroke-opacity="1.0" stroke-linecap="round" stroke-linejoin="round"/>
    <path d="M 123.61585235595703 108.61628723144531 C 108.02352142333984 112.00830078125 107.74311828613281 114.73857116699219 134.6625213623047 124.06253051757812" stroke-width="3.0" fill="none" stroke="rgb(0, 0, 0)" stroke-opacity="1.0" stroke-linecap="round" stroke-linejoin="round"/>
    <path d="M 116.68122100830078 114.00035095214844 C 101.1234359741211 97.57536315917969 89.68451690673828 92.80721282958984 76.46302032470703 120.2909927368164" stroke-width="3.0" fill="none" stroke="rgb(0, 0, 0)" stroke-opacity="1.0" stroke-linecap="round" stroke-linejoin="round"/>
    <path d="M 141.24697875976562 115.59329223632812 C 139.79432678222656 122.37344360351562 149.41912841796875 116.19129180908203 129.7296600341797 103.18627166748047" stroke-width="3.0" fill="none" stroke="rgb(0, 0, 0)" stroke-opacity="1.0" stroke-linecap="round" stroke-linejoin="round"/>
    <path d="M 77.05005645751953 127.00080871582031 C 60.872955322265625 112.13579559326172 92.70649719238281 112.8359146118164 69.16484069824219 82.07634735107422" stroke-width="3.0" fill="none" stroke="rgb(0, 0, 0)" stroke-opacity="1.0" stroke-linecap="round" stroke-linejoin="round"/>
    <path d="M 146.77880859375 140.70657348632812 C 140.51588439941406 147.0723114013672 197.07742309570312 147.37655639648438 137.4196014404297 138.5067138671875" stroke-width="3.0" fill="none" stroke="rgb(0, 0, 0)" stroke-opacity="1.0" stroke-linecap="round" stroke-linejoin="round"/>
    <path d="M 185.8633575439453 161.46380615234375 C 183.04754638671875 144.4222869873047 190.45030212402344 165.2195281982422 163.21243286132812 145.43392944335938" stroke-width="3.0" fill="none" stroke="rgb(0, 0, 0)" stroke-opacity="1.0" stroke-linecap="round" stroke-linejoin="round"/>
    <path d="M 133.27081298828125 101.18612670898438 C 125.79010772705078 98.3283920288086 127.30625915527344 110.568603515625 119.75914764404297 129.97222900390625" stroke-width="3.0" fill="none" stroke="rgb(0, 0, 0)" stroke-opacity="1.0" stroke-linecap="round" stroke-linejoin="round"/>
    <path d="M 135.0105743408203 132.24951171875 C 153.79202270507812 124.18862915039062 153.6932830810547 115.9067611694336 142.05319213867188 139.91464233398438" stroke-width="3.0" fill="none" stroke="rgb(0, 0, 0)" stroke-opacity="1.0" stroke-linecap="round" stroke-linejoin="round"/>
    <path d="M 122.67431640625 106.01195526123047 C 118.73058319091797 110.60868072509766 102.0277099609375 112.67720794677734 94.44952392578125 105.18120574951172" stroke-width="3.0" fill="none" stroke="rgb(0, 0, 0)" stroke-opacity="1.0" stroke-linecap="round" stroke-linejoin="round"/>
    <path d="M 108.38343811035156 109.93640899658203 C 130.34951782226562 103.1567153930664 122.58303833007812 87.33001708984375 128.18592834472656 126.50239562988281" stroke-width="3.0" fill="none" stroke="rgb(0, 0, 0)" stroke-opacity="1.0" stroke-linecap="round" stroke-linejoin="round"/>
    <path d="M 99.4771499633789 146.93141174316406 C 140.60174560546875 132.2740936279297 153.50135803222656 115.07786560058594 130.68084716796875 159.4765625" stroke-width="3.0" fill="none" stroke="rgb(0, 0, 0)" stroke-opacity="1.0" stroke-linecap="round" stroke-linejoin="round"/>
    <path d="M 67.3686294555664 88.31302642822266 C 38.616092681884766 60.387481689453125 59.530025482177734 74.7386245727539 82.20512390136719 90.09632873535156" stroke-width="3.0" fill="none" stroke="rgb(0, 0, 0)" stroke-opacity="1.0" stroke-linecap="round" stroke-linejoin="round"/>
    <path d="M 64.12394714355469 72.28274536132812 C 79.68964385986328 72.03031921386719 89.25228118896484 81.1137924194336 89.23104095458984 98.54954528808594" stroke-width="3.0" fill="none" stroke="rgb(0, 0, 0)" stroke-opacity="1.0" stroke-linecap="round" stroke-linejoin="round"/>
    <path d="M 51.45263671875 76.42829132080078 C 69.2757797241211 69.5488052368164 66.32357025146484 73.94143676757812 79.08621215820312 80.43907928466797" stroke-width="3.0" fill="none" stroke="rgb(0, 0, 0)" stroke-opacity="1.0" stroke-linecap="round" stroke-linejoin="round"/>
    <path d="M 68.64569854736328 137.56332397460938 C 93.08238983154297 123.11416625976562 64.54200744628906 135.53749084472656 99.61796569824219 132.34378051757812" stroke-width="3.0" fill="none" stroke="rgb(0, 0, 0)" stroke-opacity="1.0" stroke-linecap="round" stroke-linejoin="round"/>
    <path d="M 129.17568969726562 110.0660171508789 C 157.5791473388672 137.44117736816406 153.10218811035156 116.32616424560547 125.86800384521484 112.82720947265625" stroke-width="3.0" fill="none" stroke="rgb(0, 0, 0)" stroke-opacity="1.0" stroke-linecap="round" stroke-linejoin="round"/>
    <path d="M 136.3896942138672 155.61473083496094 C 140.4326629638672 144.66856384277344 127.73431396484375 129.5381622314453 145.09371948242188 120.19722747802734" stroke-width="3.0" fill="none" stroke="rgb(0, 0, 0)" stroke-opacity="1.0" stroke-linecap="round" stroke-linejoin="round"/>
    <path d="M 99.17840576171875 148.4565887451172 C 78.4560775756836 173.52755737304688 123.37158966064453 166.19412231445312 110.70665740966797 175.51028442382812" stroke-width="3.0" fill="none" stroke="rgb(0, 0, 0)" stroke-opacity="1.0" stroke-linecap="round" stroke-linejoin="round"/>
    <path d="M 90.30670166015625 132.8527069091797 C 110.06177520751953 136.0376434326172 118.33531951904297 133.5470428466797 133.242919921875 116.2132568359375" stroke-width="3.0" fill="none" stroke="rgb(0, 0, 0)" stroke-opacity="1.0" stroke-linecap="round" stroke-linejoin="round"/>
    <path d="M 120.76985931396484 104.72537231445312 C 105.6790771484375 108.4571762084961 88.67037200927734 103.21328735351562 89.30427551269531 107.80455017089844" stroke-width="3.0" fill="none" stroke="rgb(0, 0, 0)" stroke-opacity="1.0" stroke-linecap="round" stroke-linejoin="round"/>
    <path d="M 139.86801147460938 118.61512756347656 C 145.4040985107422 151.9907684326172 133.50379943847656 138.927978515625 141.3210906982422 134.26759338378906" stroke-width="3.0" fill="none" stroke="rgb(0, 0, 0)" stroke-opacity="1.0" stroke-linecap="round" stroke-linejoin="round"/>
    <path d="M 81.37074279785156 80.30005645751953 C 69.82520294189453 77.66436004638672 80.08049774169922 81.98028564453125 82.83452606201172 86.0369873046875" stroke-width="3.0" fill="none" stroke="rgb(0, 0, 0)" stroke-opacity="1.0" stroke-linecap="round" stroke-linejoin="round"/>
    <path d="M 98.71513366699219 120.2868881225586 C 100.99011993408203 124.86042022705078 89.00670623779297 131.7566680908203 96.09001922607422 131.28683471679688" stroke-width="3.0" fill="none" stroke="rgb(0, 0, 0)" stroke-opacity="1.0" stroke-linecap="round" stroke-linejoin="round"/>
    <path d="M 59.28711700439453 73.45831298828125 C 21.16774559020996 101.72482299804688 41.658084869384766 106.88186645507812 53.0521240234375 74.9102554321289" stroke-width="3.0" fill="none" stroke="rgb(0, 0, 0)" stroke-opacity="1.0" stroke-linecap="round" stroke-linejoin="round"/>
    <path d="M 88.66263580322266 170.62277221679688 C 73.6031723022461 141.47975158691406 45.841575622558594 150.09156799316406 75.87020111083984 126.2369155883789" stroke-width="3.0" fill="none" stroke="rgb(0, 0, 0)" stroke-opacity="1.0" stroke-linecap="round" stroke-linejoin="round"/>
    <path d="M 169.36605834960938 116.4827880859375 C 166.95758056640625 118.8951416015625 166.46621704101562 88.31968688964844 149.15037536621094 106.1113510131836" stroke-width="3.0" fill="none" stroke="rgb(0, 0, 0)" stroke-opacity="1.0" stroke-linecap="round" stroke-linejoin="round"/>
    <path d="M 137.15939331054688 106.36117553710938 C 122.98584747314453 111.70161437988281 121.28435516357422 103.81551361083984 119.09027862548828 126.65309143066406" stroke-width="3.0" fill="none" stroke="rgb(0, 0, 0)" stroke-opacity="1.0" stroke-linecap="round" stroke-linejoin="round"/>
    <path d="M 75.58594512939453 91.7819595336914 C 83.863525390625 97.73878479003906 77.79511260986328 116.5793228149414 100.11268615722656 101.9360122680664" stroke-width="3.0" fill="none" stroke="rgb(0, 0, 0)" stroke-opacity="1.0" stroke-linecap="round" stroke-linejoin="round"/>
    <path d="M 134.338623046875 127.27477264404297 C 135.35098266601562 129.4328155517578 105.313232421875 126.55782318115234 115.66404724121094 128.51556396484375" stroke-width="3.0" fill="none" stroke="rgb(0, 0, 0)" stroke-opacity="1.0" stroke-linecap="round" stroke-linejoin="round"/>
    <path d="M 91.63092803955078 95.81884002685547 C 112.072021484375 105.17922973632812 119.74681854248047 105.50387573242188 83.93458557128906 107.28515625" stroke-width="3.0" fill="none" stroke="rgb(0, 0, 0)" stroke-opacity="1.0" stroke-linecap="round" stroke-linejoin="round"/>
    <path d="M 129.62832641601562 123.55133056640625 C 141.65957641601562 122.08814239501953 134.04913330078125 106.03512573242188 129.79248046875 102.69865417480469" stroke-width="3.0" fill="none" stroke="rgb(0, 0, 0)" stroke-opacity="1.0" stroke-linecap="round" stroke-linejoin="round"/>
    <path d="M 77.65324401855469 79.5329818725586 C 53.945274353027344 74.18000030517578 65.88787078857422 72.76605224609375 76.00018310546875 77.6834487915039" stroke-width="3.0" fill="none" stroke="rgb(0, 0, 0)" stroke-opacity="1.0" stroke-linecap="round" stroke-linejoin="round"/>
    <path d="M 130.238525390625 102.68073272705078 C 145.0062713623047 116.04316711425781 159.6555938720703 107.0626220703125 143.557861328125 132.32789611816406" stroke-width="3.0" fill="none" stroke="rgb(0, 0, 0)" stroke-opacity="1.0" stroke-linecap="round" stroke-linejoin="round"/>
    <path d="M 125.16397857666016 109.94465637207031 C 127.56787109375 104.06119537353516 121.56208801269531 112.46854400634766 114.8662338256836 129.1769256591797" stroke-width="3.0" fill="none" stroke="rgb(0, 0, 0)" stroke-opacity="1.0" stroke-linecap="round" stroke-linejoin="round"/>
    <path d="M 148.252197265625 115.1359634399414 C 127.98430633544922 111.56594848632812 130.23135375976562 90.91722869873047 148.98036193847656 112.00807189941406" stroke-width="3.0" fill="none" stroke="rgb(0, 0, 0)" stroke-opacity="1.0" stroke-linecap="round" stroke-linejoin="round"/>
    <path d="M 138.70587158203125 124.74087524414062 C 126.15740966796875 169.4197540283203 159.45375061035156 145.44406127929688 114.70061492919922 165.4188690185547" stroke-width="3.0" fill="none" stroke="rgb(0, 0, 0)" stroke-opacity="1.0" stroke-linecap="round" stroke-linejoin="round"/>
    <path d="M 189.81625366210938 129.09967041015625 C 167.1667022705078 111.99195098876953 145.45654296875 96.50342559814453 168.7157745361328 120.30017852783203" stroke-width="3.0" fill="none" stroke="rgb(0, 0, 0)" stroke-opacity="1.0" stroke-linecap="round" stroke-linejoin="round"/>
    <path d="M 127.4139633178711 107.79314422607422 C 119.87168884277344 95.12059783935547 146.91461181640625 95.27157592773438 148.30825805664062 118.57903289794922" stroke-width="3.0" fill="none" stroke="rgb(0, 0, 0)" stroke-opacity="1.0" stroke-linecap="round" stroke-linejoin="round"/>
    <path d="M 67.67745208740234 87.89933013916016 C 59.761043548583984 75.97265625 79.7002944946289 105.47879028320312 73.45537567138672 121.55921173095703" stroke-width="3.0" fill="none" stroke="rgb(0, 0, 0)" stroke-opacity="1.0" stroke-linecap="round" stroke-linejoin="round"/>
    <path d="M 100.86280059814453 129.72862243652344 C 104.7346420288086 135.7733612060547 90.63713073730469 126.5649642944336 98.63809204101562 127.95745086669922" stroke-width="3.0" fill="none" stroke="rgb(0, 0, 0)" stroke-opacity="1.0" stroke-linecap="round" stroke-linejoin="round"/>
    <path d="M 75.66629028320312 75.84359741210938 C 80.7101058959961 77.53035736083984 88.67264556884766 85.22783660888672 82.41645812988281 79.52545928955078" stroke-width="3.0" fill="none" stroke="rgb(0, 0, 0)" stroke-opacity="1.0" stroke-linecap="round" stroke-linejoin="round"/>
    <path d="M 148.99240112304688 117.8145751953125 C 141.58631896972656 115.61333465576172 129.62588500976562 112.00090789794922 127.47137451171875 121.28903198242188" stroke-width="3.0" fill="none" stroke="rgb(0, 0, 0)" stroke-opacity="1.0" stroke-linecap="round" stroke-linejoin="round"/>
    <path d="M 156.32785034179688 101.18844604492188 C 179.3465118408203 116.6954574584961 188.2389678955078 127.68421173095703 177.75177001953125 118.40229797363281" stroke-width="3.0" fill="none" stroke="rgb(0, 0, 0)" stroke-opacity="1.0" stroke-linecap="round" stroke-linejoin="round"/>
    <path d="M 39.009761810302734 92.18616485595703 C 58.94270324707031 92.81021881103516 50.04179763793945 100.69499206542969 63.32944107055664 79.31568908691406" stroke-width="3.0" fill="none" stroke="rgb(0, 0, 0)" stroke-opacity="1.0" stroke-linecap="round" stroke-linejoin="round"/>
    <path d="M 57.38093566894531 76.30903625488281 C 49.875267028808594 93.65166473388672 49.26374053955078 74.86100006103516 51.03411865234375 76.34840393066406" stroke-width="3.0" fill="none" stroke="rgb(0, 0, 0)" stroke-opacity="1.0" stroke-linecap="round" stroke-linejoin="round"/>
  </g>
</svg>
