<?xml version="1.0" ?>
<svg xmlns="http://www.w3.org/2000/svg" version="1.1" width="224" height="224">
  <defs/>
  <g>
    <path d="M 140.5430450439453 121.72491455078125 C 105.13264465332031 94.27348327636719 87.77545928955078 127.60054779052734 136.65646362304688 110.88336181640625" stroke-width="3.0" fill="none" stroke="rgb(0, 0, 0)" stroke-opacity="1.0" stroke-linecap="round" stroke-linejoin="round"/>
    <path d="M 159.22146606445312 110.23259735107422 C 170.9441375732422 136.5952911376953 246.62478637695312 143.8576202392578 187.4785919189453 128.75650024414062" stroke-width="3.0" fill="none" stroke="rgb(0, 0, 0)" stroke-opacity="1.0" stroke-linecap="round" stroke-linejoin="round"/>
    <path d="M 132.0182647705078 134.3058319091797 C 127.41929626464844 78.35842895507812 124.19078063964844 115.85908508300781 155.48794555664062 143.6685028076172" stroke-width="3.0" fill="none" stroke="rgb(0, 0, 0)" stroke-opacity="1.0" stroke-linecap="round" stroke-linejoin="round"/>
    <path d="M 123.22516632080078 134.19541931152344 C 129.16468811035156 77.64247131347656 108.97013854980469 119.00023651123047 158.870849609375 99.78642272949219" stroke-width="3.0" fill="none" stroke="rgb(0, 0, 0)" stroke-opacity="1.0" stroke-linecap="round" stroke-linejoin="round"/>
    <path d="M 108.80464172363281 122.69911193847656 C 121.84088134765625 100.4693603515625 69.5477523803711 80.9948959350586 74.70677947998047 126.85851287841797" stroke-width="3.0" fill="none" stroke="rgb(0, 0, 0)" stroke-opacity="1.0" stroke-linecap="round" stroke-linejoin="round"/>
    <path d="M 117.70223236083984 135.2615966796875 C 134.32919311523438 142.9789276123047 140.53688049316406 102.78948974609375 127.96159362792969 105.37422943115234" stroke-width="3.0" fill="none" stroke="rgb(0, 0, 0)" stroke-opacity="1.0" stroke-linecap="round" stroke-linejoin="round"/>
    <path d="M 79.5235366821289 131.2364044189453 C 52.611289978027344 118.93833923339844 112.69361877441406 85.30658721923828 51.27232360839844 83.24551391601562" stroke-width="3.0" fill="none" stroke="rgb(0, 0, 0)" stroke-opacity="1.0" stroke-linecap="round" stroke-linejoin="round"/>
    <path d="M 135.05575561523438 111.78541564941406 C 116.67150115966797 150.59796142578125 212.7149200439453 153.5016326904297 142.4191131591797 137.71527099609375" stroke-width="3.0" fill="none" stroke="rgb(0, 0, 0)" stroke-opacity="1.0" stroke-linecap="round" stroke-linejoin="round"/>
    <path d="M 180.95489501953125 161.00782775878906 C 181.20846557617188 148.67897033691406 204.88827514648438 181.46456909179688 161.60769653320312 141.55184936523438" stroke-width="3.0" fill="none" stroke="rgb(0, 0, 0)" stroke-opacity="1.0" stroke-linecap="round" stroke-linejoin="round"/>
    <path d="M 134.3603057861328 139.0581512451172 C 131.4749755859375 78.52021026611328 147.08773803710938 113.29180908203125 114.37027740478516 132.83668518066406" stroke-width="3.0" fill="none" stroke="rgb(0, 0, 0)" stroke-opacity="1.0" stroke-linecap="round" stroke-linejoin="round"/>
    <path d="M 133.32167053222656 155.2767791748047 C 151.32179260253906 119.31099700927734 154.18466186523438 90.16569519042969 135.8472137451172 138.51547241210938" stroke-width="3.0" fill="none" stroke="rgb(0, 0, 0)" stroke-opacity="1.0" stroke-linecap="round" stroke-linejoin="round"/>
    <path d="M 137.68177795410156 111.7458267211914 C 90.98648071289062 104.1461181640625 87.38249969482422 94.2253189086914 67.34346771240234 83.13716125488281" stroke-width="3.0" fill="none" stroke="rgb(0, 0, 0)" stroke-opacity="1.0" stroke-linecap="round" stroke-linejoin="round"/>
    <path d="M 94.99223327636719 101.216064453125 C 135.50469970703125 113.46233367919922 114.404296875 81.92459869384766 112.38853454589844 129.65374755859375" stroke-width="3.0" fill="none" stroke="rgb(0, 0, 0)" stroke-opacity="1.0" stroke-linecap="round" stroke-linejoin="round"/>
    <path d="M 98.47659301757812 149.22349548339844 C 145.4559783935547 146.0091094970703 135.5109405517578 81.14730072021484 132.85459899902344 156.00701904296875" stroke-width="3.0" fill="none" stroke="rgb(0, 0, 0)" stroke-opacity="1.0" stroke-linecap="round" stroke-linejoin="round"/>
    <path d="M 79.56735229492188 90.62846374511719 C 43.12334442138672 66.1479721069336 48.869300842285156 108.58006286621094 59.257080078125 81.29945373535156" stroke-width="3.0" fill="none" stroke="rgb(0, 0, 0)" stroke-opacity="1.0" stroke-linecap="round" stroke-linejoin="round"/>
    <path d="M 54.45393371582031 69.25506591796875 C 72.05619049072266 86.8304443359375 78.80066680908203 70.55067443847656 84.51563262939453 109.94937133789062" stroke-width="3.0" fill="none" stroke="rgb(0, 0, 0)" stroke-opacity="1.0" stroke-linecap="round" stroke-linejoin="round"/>
    <path d="M 88.10848236083984 96.49101257324219 C 47.9499397277832 81.22894287109375 22.302928924560547 78.96989440917969 74.84027862548828 80.71773529052734" stroke-width="3.0" fill="none" stroke="rgb(0, 0, 0)" stroke-opacity="1.0" stroke-linecap="round" stroke-linejoin="round"/>
    <path d="M 78.54488372802734 162.43186950683594 C 39.2252311706543 120.31214141845703 75.03340911865234 151.2146759033203 96.96562957763672 120.72830200195312" stroke-width="3.0" fill="none" stroke="rgb(0, 0, 0)" stroke-opacity="1.0" stroke-linecap="round" stroke-linejoin="round"/>
    <path d="M 137.1350860595703 100.18782806396484 C 148.78981018066406 143.34217834472656 152.72018432617188 87.36161041259766 101.04049682617188 106.95955657958984" stroke-width="3.0" fill="none" stroke="rgb(0, 0, 0)" stroke-opacity="1.0" stroke-linecap="round" stroke-linejoin="round"/>
    <path d="M 126.70907592773438 115.81710052490234 C 140.3283233642578 189.77198791503906 150.2367401123047 108.78169250488281 127.16885375976562 103.97659301757812" stroke-width="3.0" fill="none" stroke="rgb(0, 0, 0)" stroke-opacity="1.0" stroke-linecap="round" stroke-linejoin="round"/>
    <path d="M 98.3984603881836 150.17279052734375 C 82.34888458251953 170.50347900390625 125.1713638305664 165.63633728027344 101.99620056152344 170.8142547607422" stroke-width="3.0" fill="none" stroke="rgb(0, 0, 0)" stroke-opacity="1.0" stroke-linecap="round" stroke-linejoin="round"/>
    <path d="M 75.10491180419922 125.14160919189453 C 144.98416137695312 135.0945281982422 135.92039489746094 130.28482055664062 148.37249755859375 120.96051025390625" stroke-width="3.0" fill="none" stroke="rgb(0, 0, 0)" stroke-opacity="1.0" stroke-linecap="round" stroke-linejoin="round"/>
    <path d="M 131.67465209960938 103.13677215576172 C 85.85953521728516 115.2176513671875 109.25660705566406 83.33353424072266 72.0460433959961 123.79531860351562" stroke-width="3.0" fill="none" stroke="rgb(0, 0, 0)" stroke-opacity="1.0" stroke-linecap="round" stroke-linejoin="round"/>
    <path d="M 138.56973266601562 111.71543884277344 C 151.22312927246094 118.15718841552734 119.96250915527344 149.0842742919922 148.9462890625 141.0657958984375" stroke-width="3.0" fill="none" stroke="rgb(0, 0, 0)" stroke-opacity="1.0" stroke-linecap="round" stroke-linejoin="round"/>
    <path d="M 82.91655731201172 110.38512420654297 C 37.500450134277344 60.543514251708984 54.15966033935547 75.56685638427734 76.58675384521484 98.92356872558594" stroke-width="3.0" fill="none" stroke="rgb(0, 0, 0)" stroke-opacity="1.0" stroke-linecap="round" stroke-linejoin="round"/>
    <path d="M 75.48429107666016 120.18817138671875 C 124.8501205444336 134.7201690673828 99.16820526123047 138.33889770507812 96.37832641601562 117.50028991699219" stroke-width="3.0" fill="none" stroke="rgb(0, 0, 0)" stroke-opacity="1.0" stroke-linecap="round" stroke-linejoin="round"/>
    <path d="M 57.09691619873047 71.13175201416016 C 23.2978458404541 106.28596496582031 38.19903564453125 106.2884750366211 58.16829299926758 74.95195770263672" stroke-width="3.0" fill="none" stroke="rgb(0, 0, 0)" stroke-opacity="1.0" stroke-linecap="round" stroke-linejoin="round"/>
    <path d="M 81.57250213623047 168.5918426513672 C 90.87552642822266 152.16143798828125 29.71417808532715 145.6230010986328 92.63845825195312 123.83699035644531" stroke-width="3.0" fill="none" stroke="rgb(0, 0, 0)" stroke-opacity="1.0" stroke-linecap="round" stroke-linejoin="round"/>
    <path d="M 179.8777313232422 125.77518463134766 C 166.5277099609375 119.50360107421875 163.95318603515625 84.42251586914062 152.4788360595703 107.58255767822266" stroke-width="3.0" fill="none" stroke="rgb(0, 0, 0)" stroke-opacity="1.0" stroke-linecap="round" stroke-linejoin="round"/>
    <path d="M 111.56385040283203 142.9623565673828 C 146.90126037597656 89.82451629638672 137.83139038085938 85.39911651611328 114.3102035522461 125.48104095458984" stroke-width="3.0" fill="none" stroke="rgb(0, 0, 0)" stroke-opacity="1.0" stroke-linecap="round" stroke-linejoin="round"/>
    <path d="M 55.045135498046875 76.16503143310547 C 98.11334228515625 124.08602905273438 85.38355255126953 128.59625244140625 74.34932708740234 79.17140197753906" stroke-width="3.0" fill="none" stroke="rgb(0, 0, 0)" stroke-opacity="1.0" stroke-linecap="round" stroke-linejoin="round"/>
    <path d="M 129.3839111328125 112.15689086914062 C 145.9707794189453 128.3776397705078 129.46426391601562 111.99114990234375 127.08367156982422 134.96878051757812" stroke-width="3.0" fill="none" stroke="rgb(0, 0, 0)" stroke-opacity="1.0" stroke-linecap="round" stroke-linejoin="round"/>
    <path d="M 72.90457153320312 99.85161590576172 C 114.23178100585938 108.43406677246094 96.0988998413086 90.16454315185547 71.1801986694336 94.96589660644531" stroke-width="3.0" fill="none" stroke="rgb(0, 0, 0)" stroke-opacity="1.0" stroke-linecap="round" stroke-linejoin="round"/>
    <path d="M 125.31043243408203 119.00117492675781 C 131.65541076660156 148.84152221679688 118.08769226074219 117.64186096191406 116.13751220703125 105.80622100830078" stroke-width="3.0" fill="none" stroke="rgb(0, 0, 0)" stroke-opacity="1.0" stroke-linecap="round" stroke-linejoin="round"/>
    <path d="M 72.32846069335938 84.14779663085938 C 30.59907341003418 90.14337921142578 73.21862030029297 60.77008819580078 83.09886169433594 90.71981811523438" stroke-width="3.0" fill="none" stroke="rgb(0, 0, 0)" stroke-opacity="1.0" stroke-linecap="round" stroke-linejoin="round"/>
    <path d="M 113.53380584716797 106.32810974121094 C 103.26071166992188 166.1923828125 148.71144104003906 120.53224182128906 123.0748062133789 130.48680114746094" stroke-width="3.0" fill="none" stroke="rgb(0, 0, 0)" stroke-opacity="1.0" stroke-linecap="round" stroke-linejoin="round"/>
    <path d="M 109.9688491821289 129.62432861328125 C 131.16343688964844 93.43852996826172 132.8702392578125 117.8482666015625 110.79725646972656 121.78356170654297" stroke-width="3.0" fill="none" stroke="rgb(0, 0, 0)" stroke-opacity="1.0" stroke-linecap="round" stroke-linejoin="round"/>
    <path d="M 141.1603240966797 154.7362823486328 C 140.876708984375 131.9408416748047 163.83433532714844 108.59051513671875 134.19418334960938 106.8839111328125" stroke-width="3.0" fill="none" stroke="rgb(0, 0, 0)" stroke-opacity="1.0" stroke-linecap="round" stroke-linejoin="round"/>
    <path d="M 103.78189086914062 106.92986297607422 C 146.9254913330078 168.00514221191406 170.36276245117188 116.03439331054688 109.8584976196289 175.5985107421875" stroke-width="3.0" fill="none" stroke="rgb(0, 0, 0)" stroke-opacity="1.0" stroke-linecap="round" stroke-linejoin="round"/>
    <path d="M 199.85597229003906 129.558837890625 C 153.9900360107422 122.4422378540039 144.39503479003906 94.00894927978516 184.39219665527344 128.568115234375" stroke-width="3.0" fill="none" stroke="rgb(0, 0, 0)" stroke-opacity="1.0" stroke-linecap="round" stroke-linejoin="round"/>
    <path d="M 126.93014526367188 127.7578125 C 93.10956573486328 93.06420135498047 161.834228515625 84.67605590820312 143.66065979003906 126.4478988647461" stroke-width="3.0" fill="none" stroke="rgb(0, 0, 0)" stroke-opacity="1.0" stroke-linecap="round" stroke-linejoin="round"/>
    <path d="M 76.38192749023438 88.20853424072266 C 39.85862731933594 63.85846710205078 71.0348129272461 87.26370239257812 82.88684844970703 131.279296875" stroke-width="3.0" fill="none" stroke="rgb(0, 0, 0)" stroke-opacity="1.0" stroke-linecap="round" stroke-linejoin="round"/>
    <path d="M 73.3144760131836 129.83999633789062 C 162.4496307373047 141.06532287597656 108.17606353759766 144.41961669921875 98.89722442626953 119.86011505126953" stroke-width="3.0" fill="none" stroke="rgb(0, 0, 0)" stroke-opacity="1.0" stroke-linecap="round" stroke-linejoin="round"/>
    <path d="M 58.41775894165039 72.30924987792969 C 109.77854919433594 70.27168273925781 86.69383239746094 138.13575744628906 68.80274200439453 87.07764434814453" stroke-width="3.0" fill="none" stroke="rgb(0, 0, 0)" stroke-opacity="1.0" stroke-linecap="round" stroke-linejoin="round"/>
    <path d="M 141.74526977539062 131.5034942626953 C 124.86050415039062 120.64380645751953 129.91648864746094 87.5657730102539 120.64384460449219 136.8193359375" stroke-width="3.0" fill="none" stroke="rgb(0, 0, 0)" stroke-opacity="1.0" stroke-linecap="round" stroke-linejoin="round"/>
    <path d="M 157.43191528320312 102.84925079345703 C 183.83509826660156 132.01254272460938 204.38775634765625 138.1834259033203 157.8880615234375 102.9505615234375" stroke-width="3.0" fill="none" stroke="rgb(0, 0, 0)" stroke-opacity="1.0" stroke-linecap="round" stroke-linejoin="round"/>
    <path d="M 47.98603820800781 90.20499420166016 C 61.08808517456055 100.99788665771484 53.0006103515625 64.30641174316406 83.96024322509766 98.61184692382812" stroke-width="3.0" fill="none" stroke="rgb(0, 0, 0)" stroke-opacity="1.0" stroke-linecap="round" stroke-linejoin="round"/>
    <path d="M 60.599178314208984 75.12364959716797 C 46.527584075927734 115.19307708740234 31.87238121032715 83.93872833251953 57.6760139465332 83.98323822021484" stroke-width="3.0" fill="none" stroke="rgb(0, 0, 0)" stroke-opacity="1.0" stroke-linecap="round" stroke-linejoin="round"/>
  </g>
</svg>
