<?xml version="1.0" ?>
<svg xmlns="http://www.w3.org/2000/svg" version="1.1" width="224" height="224">
  <defs/>
  <g>
    <path d="M 129.8012237548828 107.0560302734375 C 105.27767944335938 109.34614562988281 110.49248504638672 116.24100494384766 136.26475524902344 104.57476043701172" stroke-width="3.0" fill="none" stroke="rgb(0, 0, 0)" stroke-opacity="1.0" stroke-linecap="round" stroke-linejoin="round"/>
    <path d="M 159.86172485351562 108.77798461914062 C 166.53651428222656 132.2262420654297 213.7548370361328 126.40438842773438 195.2655487060547 131.2386016845703" stroke-width="3.0" fill="none" stroke="rgb(0, 0, 0)" stroke-opacity="1.0" stroke-linecap="round" stroke-linejoin="round"/>
    <path d="M 150.6101837158203 129.6096649169922 C 132.74708557128906 95.98412322998047 132.51641845703125 110.43161010742188 154.74815368652344 145.365966796875" stroke-width="3.0" fill="none" stroke="rgb(0, 0, 0)" stroke-opacity="1.0" stroke-linecap="round" stroke-linejoin="round"/>
    <path d="M 140.9029083251953 117.02057647705078 C 120.39106750488281 100.11209106445312 110.65302276611328 120.74491119384766 157.6120147705078 103.65457153320312" stroke-width="3.0" fill="none" stroke="rgb(0, 0, 0)" stroke-opacity="1.0" stroke-linecap="round" stroke-linejoin="round"/>
    <path d="M 132.12179565429688 120.29127502441406 C 111.71009826660156 96.6932144165039 88.03459167480469 92.17198944091797 71.9358901977539 133.14263916015625" stroke-width="3.0" fill="none" stroke="rgb(0, 0, 0)" stroke-opacity="1.0" stroke-linecap="round" stroke-linejoin="round"/>
    <path d="M 137.20509338378906 100.77484893798828 C 137.84437561035156 128.9882049560547 155.21217346191406 115.7044906616211 135.44561767578125 103.16331481933594" stroke-width="3.0" fill="none" stroke="rgb(0, 0, 0)" stroke-opacity="1.0" stroke-linecap="round" stroke-linejoin="round"/>
    <path d="M 79.90997314453125 134.22128295898438 C 54.840511322021484 108.59923553466797 95.76119232177734 117.17144012451172 66.32967376708984 77.95497131347656" stroke-width="3.0" fill="none" stroke="rgb(0, 0, 0)" stroke-opacity="1.0" stroke-linecap="round" stroke-linejoin="round"/>
    <path d="M 151.88388061523438 140.42005920410156 C 119.8297119140625 143.1046142578125 204.5627899169922 151.8815155029297 143.4783172607422 139.88243103027344" stroke-width="3.0" fill="none" stroke="rgb(0, 0, 0)" stroke-opacity="1.0" stroke-linecap="round" stroke-linejoin="round"/>
    <path d="M 185.27130126953125 163.91648864746094 C 186.73361206054688 152.15733337402344 186.56211853027344 167.55950927734375 164.51841735839844 144.72134399414062" stroke-width="3.0" fill="none" stroke="rgb(0, 0, 0)" stroke-opacity="1.0" stroke-linecap="round" stroke-linejoin="round"/>
    <path d="M 152.822509765625 117.7865982055664 C 128.6511688232422 86.51105499267578 139.4154815673828 110.54359436035156 120.1056900024414 130.55003356933594" stroke-width="3.0" fill="none" stroke="rgb(0, 0, 0)" stroke-opacity="1.0" stroke-linecap="round" stroke-linejoin="round"/>
    <path d="M 129.16502380371094 131.41860961914062 C 145.6160125732422 112.29332733154297 162.47833251953125 109.55897521972656 144.03057861328125 143.6743621826172" stroke-width="3.0" fill="none" stroke="rgb(0, 0, 0)" stroke-opacity="1.0" stroke-linecap="round" stroke-linejoin="round"/>
    <path d="M 128.8500518798828 100.21485900878906 C 103.62193298339844 103.83106994628906 113.12550354003906 105.24571228027344 87.64868927001953 102.31889343261719" stroke-width="3.0" fill="none" stroke="rgb(0, 0, 0)" stroke-opacity="1.0" stroke-linecap="round" stroke-linejoin="round"/>
    <path d="M 126.88377380371094 115.29319763183594 C 159.71701049804688 104.40894317626953 139.16677856445312 108.72933197021484 115.72898864746094 138.20579528808594" stroke-width="3.0" fill="none" stroke="rgb(0, 0, 0)" stroke-opacity="1.0" stroke-linecap="round" stroke-linejoin="round"/>
    <path d="M 98.36652374267578 148.301513671875 C 137.7304229736328 140.80967712402344 150.31463623046875 93.14240264892578 130.4197998046875 158.43417358398438" stroke-width="3.0" fill="none" stroke="rgb(0, 0, 0)" stroke-opacity="1.0" stroke-linecap="round" stroke-linejoin="round"/>
    <path d="M 77.58928680419922 90.73370361328125 C 26.79813575744629 71.81060028076172 46.136112213134766 86.6843490600586 75.0955810546875 82.25260162353516" stroke-width="3.0" fill="none" stroke="rgb(0, 0, 0)" stroke-opacity="1.0" stroke-linecap="round" stroke-linejoin="round"/>
    <path d="M 51.22241973876953 71.69432067871094 C 61.779762268066406 92.68565368652344 81.67811584472656 68.65583801269531 87.3440933227539 102.89766693115234" stroke-width="3.0" fill="none" stroke="rgb(0, 0, 0)" stroke-opacity="1.0" stroke-linecap="round" stroke-linejoin="round"/>
    <path d="M 60.953758239746094 84.6721420288086 C 49.21974563598633 69.43971252441406 36.304779052734375 98.6166000366211 63.77408218383789 83.49787902832031" stroke-width="3.0" fill="none" stroke="rgb(0, 0, 0)" stroke-opacity="1.0" stroke-linecap="round" stroke-linejoin="round"/>
    <path d="M 62.77687072753906 143.1550750732422 C 83.15179443359375 125.35147857666016 79.7264404296875 143.98397827148438 91.16656494140625 122.4609146118164" stroke-width="3.0" fill="none" stroke="rgb(0, 0, 0)" stroke-opacity="1.0" stroke-linecap="round" stroke-linejoin="round"/>
    <path d="M 127.94287872314453 104.07427215576172 C 149.47669982910156 135.27029418945312 156.95248413085938 99.53113555908203 125.45862579345703 101.35686492919922" stroke-width="3.0" fill="none" stroke="rgb(0, 0, 0)" stroke-opacity="1.0" stroke-linecap="round" stroke-linejoin="round"/>
    <path d="M 134.53599548339844 150.12548828125 C 139.6705780029297 169.36895751953125 120.26997375488281 142.70423889160156 144.1005096435547 112.31951904296875" stroke-width="3.0" fill="none" stroke="rgb(0, 0, 0)" stroke-opacity="1.0" stroke-linecap="round" stroke-linejoin="round"/>
    <path d="M 97.72583770751953 151.0424346923828 C 88.13768768310547 169.0907440185547 116.05599212646484 167.46697998046875 105.58734130859375 175.1565704345703" stroke-width="3.0" fill="none" stroke="rgb(0, 0, 0)" stroke-opacity="1.0" stroke-linecap="round" stroke-linejoin="round"/>
    <path d="M 83.14470672607422 132.4188232421875 C 135.56455993652344 132.67575073242188 135.70816040039062 138.75404357910156 143.5706787109375 120.1661376953125" stroke-width="3.0" fill="none" stroke="rgb(0, 0, 0)" stroke-opacity="1.0" stroke-linecap="round" stroke-linejoin="round"/>
    <path d="M 131.59942626953125 103.48749542236328 C 105.504638671875 104.69719696044922 90.84356689453125 93.17724609375 75.8546142578125 114.9698486328125" stroke-width="3.0" fill="none" stroke="rgb(0, 0, 0)" stroke-opacity="1.0" stroke-linecap="round" stroke-linejoin="round"/>
    <path d="M 144.86514282226562 108.94361877441406 C 150.0984649658203 147.43055725097656 129.50503540039062 136.2357177734375 150.39334106445312 128.02053833007812" stroke-width="3.0" fill="none" stroke="rgb(0, 0, 0)" stroke-opacity="1.0" stroke-linecap="round" stroke-linejoin="round"/>
    <path d="M 57.508766174316406 68.8717041015625 C 54.09099197387695 77.63240814208984 89.79776000976562 62.2894401550293 93.87786865234375 97.50968170166016" stroke-width="3.0" fill="none" stroke="rgb(0, 0, 0)" stroke-opacity="1.0" stroke-linecap="round" stroke-linejoin="round"/>
    <path d="M 99.05117797851562 131.17755126953125 C 105.75921630859375 132.8080596923828 85.79779815673828 130.31549072265625 88.98347473144531 119.78974151611328" stroke-width="3.0" fill="none" stroke="rgb(0, 0, 0)" stroke-opacity="1.0" stroke-linecap="round" stroke-linejoin="round"/>
    <path d="M 58.5132942199707 69.04791259765625 C 25.231077194213867 98.61799621582031 40.86906814575195 109.44326782226562 50.76679992675781 74.39582061767578" stroke-width="3.0" fill="none" stroke="rgb(0, 0, 0)" stroke-opacity="1.0" stroke-linecap="round" stroke-linejoin="round"/>
    <path d="M 82.9501724243164 170.6344451904297 C 91.80675506591797 159.44842529296875 30.98394203186035 141.9337158203125 78.69221496582031 133.0986785888672" stroke-width="3.0" fill="none" stroke="rgb(0, 0, 0)" stroke-opacity="1.0" stroke-linecap="round" stroke-linejoin="round"/>
    <path d="M 179.52520751953125 119.41607666015625 C 162.15684509277344 112.82359313964844 168.81149291992188 87.42469024658203 149.22598266601562 107.01446533203125" stroke-width="3.0" fill="none" stroke="rgb(0, 0, 0)" stroke-opacity="1.0" stroke-linecap="round" stroke-linejoin="round"/>
    <path d="M 129.1501007080078 119.76728820800781 C 135.55296325683594 101.56185150146484 129.6251678466797 95.10966491699219 127.20932006835938 134.33139038085938" stroke-width="3.0" fill="none" stroke="rgb(0, 0, 0)" stroke-opacity="1.0" stroke-linecap="round" stroke-linejoin="round"/>
    <path d="M 70.11225891113281 83.19390106201172 C 103.0313491821289 109.38765716552734 65.34892272949219 121.87699127197266 99.17459869384766 97.917724609375" stroke-width="3.0" fill="none" stroke="rgb(0, 0, 0)" stroke-opacity="1.0" stroke-linecap="round" stroke-linejoin="round"/>
    <path d="M 133.71737670898438 119.42098236083984 C 149.69715881347656 141.46604919433594 114.40198516845703 129.00027465820312 115.39733123779297 141.98753356933594" stroke-width="3.0" fill="none" stroke="rgb(0, 0, 0)" stroke-opacity="1.0" stroke-linecap="round" stroke-linejoin="round"/>
    <path d="M 95.54722595214844 95.38320922851562 C 117.97189331054688 114.17013549804688 113.02228546142578 104.7608413696289 84.81473541259766 102.72236633300781" stroke-width="3.0" fill="none" stroke="rgb(0, 0, 0)" stroke-opacity="1.0" stroke-linecap="round" stroke-linejoin="round"/>
    <path d="M 130.21556091308594 114.01593017578125 C 137.35816955566406 128.716796875 123.23973846435547 122.47248077392578 128.35316467285156 102.2199935913086" stroke-width="3.0" fill="none" stroke="rgb(0, 0, 0)" stroke-opacity="1.0" stroke-linecap="round" stroke-linejoin="round"/>
    <path d="M 59.6298828125 84.57164001464844 C 30.436086654663086 105.25111389160156 49.709774017333984 74.11775970458984 67.8594741821289 83.29545593261719" stroke-width="3.0" fill="none" stroke="rgb(0, 0, 0)" stroke-opacity="1.0" stroke-linecap="round" stroke-linejoin="round"/>
    <path d="M 119.69783020019531 101.95752716064453 C 136.18565368652344 131.8413543701172 158.24363708496094 110.11273956298828 133.8462371826172 136.75682067871094" stroke-width="3.0" fill="none" stroke="rgb(0, 0, 0)" stroke-opacity="1.0" stroke-linecap="round" stroke-linejoin="round"/>
    <path d="M 129.149169921875 132.7378387451172 C 144.21987915039062 106.24099731445312 131.6401824951172 131.28285217285156 114.32425689697266 129.05946350097656" stroke-width="3.0" fill="none" stroke="rgb(0, 0, 0)" stroke-opacity="1.0" stroke-linecap="round" stroke-linejoin="round"/>
    <path d="M 147.2375946044922 106.53992462158203 C 127.88976287841797 110.26646423339844 139.6258544921875 95.95791625976562 149.5424346923828 119.06153106689453" stroke-width="3.0" fill="none" stroke="rgb(0, 0, 0)" stroke-opacity="1.0" stroke-linecap="round" stroke-linejoin="round"/>
    <path d="M 126.38011932373047 114.259521484375 C 137.2912139892578 171.8164825439453 150.89151000976562 143.34860229492188 112.98863220214844 168.77178955078125" stroke-width="3.0" fill="none" stroke="rgb(0, 0, 0)" stroke-opacity="1.0" stroke-linecap="round" stroke-linejoin="round"/>
    <path d="M 200.12158203125 133.12452697753906 C 163.0417938232422 116.03520202636719 142.86476135253906 91.67484283447266 176.8491973876953 120.91323852539062" stroke-width="3.0" fill="none" stroke="rgb(0, 0, 0)" stroke-opacity="1.0" stroke-linecap="round" stroke-linejoin="round"/>
    <path d="M 127.99959564208984 116.52435302734375 C 101.67851257324219 91.43125915527344 155.52232360839844 92.89954376220703 154.66529846191406 119.87773895263672" stroke-width="3.0" fill="none" stroke="rgb(0, 0, 0)" stroke-opacity="1.0" stroke-linecap="round" stroke-linejoin="round"/>
    <path d="M 65.22525787353516 78.84736633300781 C 47.93236541748047 70.3697280883789 82.02938842773438 93.82809448242188 74.02754974365234 121.88282775878906" stroke-width="3.0" fill="none" stroke="rgb(0, 0, 0)" stroke-opacity="1.0" stroke-linecap="round" stroke-linejoin="round"/>
    <path d="M 89.06759643554688 127.10480499267578 C 120.8135757446289 129.08010864257812 91.43749237060547 133.8151397705078 90.13885498046875 118.98954772949219" stroke-width="3.0" fill="none" stroke="rgb(0, 0, 0)" stroke-opacity="1.0" stroke-linecap="round" stroke-linejoin="round"/>
    <path d="M 58.027984619140625 71.59687042236328 C 91.14495086669922 79.84080505371094 97.5635757446289 95.40856170654297 65.32019805908203 82.75906372070312" stroke-width="3.0" fill="none" stroke="rgb(0, 0, 0)" stroke-opacity="1.0" stroke-linecap="round" stroke-linejoin="round"/>
    <path d="M 140.43540954589844 119.34330749511719 C 148.2474822998047 131.56004333496094 132.18478393554688 114.90007781982422 117.52544403076172 141.14268493652344" stroke-width="3.0" fill="none" stroke="rgb(0, 0, 0)" stroke-opacity="1.0" stroke-linecap="round" stroke-linejoin="round"/>
    <path d="M 156.59149169921875 101.2167739868164 C 187.4705810546875 120.12755584716797 195.5361785888672 138.3319854736328 163.29457092285156 113.85114288330078" stroke-width="3.0" fill="none" stroke="rgb(0, 0, 0)" stroke-opacity="1.0" stroke-linecap="round" stroke-linejoin="round"/>
    <path d="M 42.311466217041016 90.66082763671875 C 59.601478576660156 96.743408203125 48.55715560913086 87.86568450927734 73.46078491210938 84.4002914428711" stroke-width="3.0" fill="none" stroke="rgb(0, 0, 0)" stroke-opacity="1.0" stroke-linecap="round" stroke-linejoin="round"/>
    <path d="M 51.97991943359375 77.20027923583984 C 47.058494567871094 102.87577819824219 53.95879364013672 85.89987182617188 67.00589752197266 81.5285873413086" stroke-width="3.0" fill="none" stroke="rgb(0, 0, 0)" stroke-opacity="1.0" stroke-linecap="round" stroke-linejoin="round"/>
  </g>
</svg>
