<?xml version="1.0" ?>
<svg xmlns="http://www.w3.org/2000/svg" version="1.1" width="224" height="224">
  <defs/>
  <g>
    <path d="M 147.56455993652344 120.59246063232422 C 106.732666015625 92.96019744873047 73.81658935546875 106.97807312011719 130.6337890625 106.14727020263672" stroke-width="3.0" fill="none" stroke="rgb(0, 0, 0)" stroke-opacity="1.0" stroke-linecap="round" stroke-linejoin="round"/>
    <path d="M 153.7156982421875 106.61042785644531 C 168.80758666992188 138.7578582763672 254.4282684326172 144.15850830078125 169.48765563964844 121.90988159179688" stroke-width="3.0" fill="none" stroke="rgb(0, 0, 0)" stroke-opacity="1.0" stroke-linecap="round" stroke-linejoin="round"/>
    <path d="M 146.78421020507812 126.36135864257812 C 128.37501525878906 79.70328521728516 110.73171997070312 138.3914794921875 155.74603271484375 150.01344299316406" stroke-width="3.0" fill="none" stroke="rgb(0, 0, 0)" stroke-opacity="1.0" stroke-linecap="round" stroke-linejoin="round"/>
    <path d="M 135.8158416748047 141.4579315185547 C 107.96756744384766 74.4634017944336 130.85726928710938 124.95555114746094 142.8466033935547 105.49580383300781" stroke-width="3.0" fill="none" stroke="rgb(0, 0, 0)" stroke-opacity="1.0" stroke-linecap="round" stroke-linejoin="round"/>
    <path d="M 128.77017211914062 123.78140258789062 C 128.29302978515625 94.69332885742188 60.148075103759766 95.27421569824219 73.23551177978516 126.10755157470703" stroke-width="3.0" fill="none" stroke="rgb(0, 0, 0)" stroke-opacity="1.0" stroke-linecap="round" stroke-linejoin="round"/>
    <path d="M 119.78074645996094 129.6576385498047 C 127.4976577758789 141.16067504882812 131.17662048339844 102.0300521850586 115.24320220947266 104.8064193725586" stroke-width="3.0" fill="none" stroke="rgb(0, 0, 0)" stroke-opacity="1.0" stroke-linecap="round" stroke-linejoin="round"/>
    <path d="M 78.21053314208984 120.96092224121094 C 48.72193908691406 131.4756622314453 133.1464385986328 89.04286193847656 58.07920837402344 75.15066528320312" stroke-width="3.0" fill="none" stroke="rgb(0, 0, 0)" stroke-opacity="1.0" stroke-linecap="round" stroke-linejoin="round"/>
    <path d="M 145.0825653076172 110.82276916503906 C 138.79505920410156 153.4972381591797 228.55792236328125 164.06163024902344 132.182373046875 140.369384765625" stroke-width="3.0" fill="none" stroke="rgb(0, 0, 0)" stroke-opacity="1.0" stroke-linecap="round" stroke-linejoin="round"/>
    <path d="M 176.9712371826172 159.55850219726562 C 178.77125549316406 143.2538604736328 212.69488525390625 185.60357666015625 163.9680633544922 143.41375732421875" stroke-width="3.0" fill="none" stroke="rgb(0, 0, 0)" stroke-opacity="1.0" stroke-linecap="round" stroke-linejoin="round"/>
    <path d="M 129.40972900390625 129.67478942871094 C 118.1965103149414 71.25786590576172 149.88748168945312 119.228515625 121.31649780273438 128.3364715576172" stroke-width="3.0" fill="none" stroke="rgb(0, 0, 0)" stroke-opacity="1.0" stroke-linecap="round" stroke-linejoin="round"/>
    <path d="M 133.96490478515625 151.36111450195312 C 159.8752899169922 123.49645233154297 160.72750854492188 95.56964874267578 135.98760986328125 152.15460205078125" stroke-width="3.0" fill="none" stroke="rgb(0, 0, 0)" stroke-opacity="1.0" stroke-linecap="round" stroke-linejoin="round"/>
    <path d="M 137.51913452148438 104.03119659423828 C 78.57709503173828 101.52220153808594 89.81267547607422 96.30077362060547 70.09905242919922 81.90216827392578" stroke-width="3.0" fill="none" stroke="rgb(0, 0, 0)" stroke-opacity="1.0" stroke-linecap="round" stroke-linejoin="round"/>
    <path d="M 104.9649887084961 103.72396087646484 C 144.3231658935547 100.07170104980469 134.65342712402344 95.1664047241211 136.70787048339844 141.79989624023438" stroke-width="3.0" fill="none" stroke="rgb(0, 0, 0)" stroke-opacity="1.0" stroke-linecap="round" stroke-linejoin="round"/>
    <path d="M 101.2358169555664 147.33299255371094 C 148.82159423828125 140.36009216308594 144.94090270996094 76.42720794677734 131.96156311035156 158.0421905517578" stroke-width="3.0" fill="none" stroke="rgb(0, 0, 0)" stroke-opacity="1.0" stroke-linecap="round" stroke-linejoin="round"/>
    <path d="M 86.97481536865234 94.6640396118164 C 50.7887077331543 71.35203552246094 25.038177490234375 122.66461944580078 49.468414306640625 78.03671264648438" stroke-width="3.0" fill="none" stroke="rgb(0, 0, 0)" stroke-opacity="1.0" stroke-linecap="round" stroke-linejoin="round"/>
    <path d="M 53.18671417236328 71.513427734375 C 75.99827575683594 89.17203521728516 86.68148803710938 78.09547424316406 89.7818832397461 104.98109436035156" stroke-width="3.0" fill="none" stroke="rgb(0, 0, 0)" stroke-opacity="1.0" stroke-linecap="round" stroke-linejoin="round"/>
    <path d="M 89.76065826416016 101.65388488769531 C 58.3592643737793 73.36383819580078 9.488909721374512 94.55955505371094 75.70939636230469 88.96306610107422" stroke-width="3.0" fill="none" stroke="rgb(0, 0, 0)" stroke-opacity="1.0" stroke-linecap="round" stroke-linejoin="round"/>
    <path d="M 79.31144714355469 163.11671447753906 C 35.19035339355469 118.0227279663086 84.64530944824219 154.71241760253906 92.88839721679688 118.06010437011719" stroke-width="3.0" fill="none" stroke="rgb(0, 0, 0)" stroke-opacity="1.0" stroke-linecap="round" stroke-linejoin="round"/>
    <path d="M 136.7156524658203 112.81555938720703 C 160.7041473388672 158.2786865234375 160.93284606933594 78.26226806640625 109.0475082397461 103.81967163085938" stroke-width="3.0" fill="none" stroke="rgb(0, 0, 0)" stroke-opacity="1.0" stroke-linecap="round" stroke-linejoin="round"/>
    <path d="M 125.48103332519531 110.78153228759766 C 139.1930389404297 205.32391357421875 153.92123413085938 104.09376525878906 130.74644470214844 102.23601531982422" stroke-width="3.0" fill="none" stroke="rgb(0, 0, 0)" stroke-opacity="1.0" stroke-linecap="round" stroke-linejoin="round"/>
    <path d="M 99.94122314453125 148.15602111816406 C 81.1128921508789 163.74159240722656 127.2906494140625 175.1003875732422 98.18477630615234 159.4517364501953" stroke-width="3.0" fill="none" stroke="rgb(0, 0, 0)" stroke-opacity="1.0" stroke-linecap="round" stroke-linejoin="round"/>
    <path d="M 74.23108673095703 127.36639404296875 C 132.03369140625 142.3372802734375 134.08680725097656 122.42771911621094 142.18453979492188 105.69502258300781" stroke-width="3.0" fill="none" stroke="rgb(0, 0, 0)" stroke-opacity="1.0" stroke-linecap="round" stroke-linejoin="round"/>
    <path d="M 141.4412841796875 105.6338882446289 C 90.2811050415039 113.02062225341797 101.28120422363281 74.40851593017578 73.06858825683594 115.3287124633789" stroke-width="3.0" fill="none" stroke="rgb(0, 0, 0)" stroke-opacity="1.0" stroke-linecap="round" stroke-linejoin="round"/>
    <path d="M 143.16986083984375 114.23617553710938 C 166.32626342773438 107.4258041381836 121.00900268554688 149.44769287109375 143.2095947265625 129.9728240966797" stroke-width="3.0" fill="none" stroke="rgb(0, 0, 0)" stroke-opacity="1.0" stroke-linecap="round" stroke-linejoin="round"/>
    <path d="M 83.90794372558594 106.92562103271484 C 67.91597747802734 60.033668518066406 71.86784362792969 71.45281219482422 76.2430191040039 113.27485656738281" stroke-width="3.0" fill="none" stroke="rgb(0, 0, 0)" stroke-opacity="1.0" stroke-linecap="round" stroke-linejoin="round"/>
    <path d="M 74.7979965209961 124.97827911376953 C 129.13258361816406 133.57191467285156 104.93302917480469 134.3132781982422 99.12376403808594 123.07501220703125" stroke-width="3.0" fill="none" stroke="rgb(0, 0, 0)" stroke-opacity="1.0" stroke-linecap="round" stroke-linejoin="round"/>
    <path d="M 59.48406219482422 72.33116149902344 C 19.53459930419922 103.14715576171875 34.26477813720703 102.6994400024414 67.28347778320312 80.87178039550781" stroke-width="3.0" fill="none" stroke="rgb(0, 0, 0)" stroke-opacity="1.0" stroke-linecap="round" stroke-linejoin="round"/>
    <path d="M 82.63693237304688 170.01776123046875 C 99.32403564453125 157.5084686279297 25.493932723999023 142.90687561035156 93.66812896728516 123.7103500366211" stroke-width="3.0" fill="none" stroke="rgb(0, 0, 0)" stroke-opacity="1.0" stroke-linecap="round" stroke-linejoin="round"/>
    <path d="M 181.7985382080078 124.89158630371094 C 165.78195190429688 117.20699310302734 169.3037872314453 88.57361602783203 145.4171905517578 104.88821411132812" stroke-width="3.0" fill="none" stroke="rgb(0, 0, 0)" stroke-opacity="1.0" stroke-linecap="round" stroke-linejoin="round"/>
    <path d="M 115.36310577392578 137.88648986816406 C 175.8162078857422 117.2907485961914 137.8230743408203 91.29393768310547 119.85740661621094 140.53868103027344" stroke-width="3.0" fill="none" stroke="rgb(0, 0, 0)" stroke-opacity="1.0" stroke-linecap="round" stroke-linejoin="round"/>
    <path d="M 60.65018844604492 77.08528900146484 C 104.89543151855469 107.3187026977539 88.50161743164062 116.41967010498047 61.37568283081055 73.67459106445312" stroke-width="3.0" fill="none" stroke="rgb(0, 0, 0)" stroke-opacity="1.0" stroke-linecap="round" stroke-linejoin="round"/>
    <path d="M 135.1255340576172 113.59735870361328 C 151.7826690673828 127.39891815185547 135.89178466796875 114.55899047851562 121.42283630371094 134.2556610107422" stroke-width="3.0" fill="none" stroke="rgb(0, 0, 0)" stroke-opacity="1.0" stroke-linecap="round" stroke-linejoin="round"/>
    <path d="M 69.09559631347656 81.1017074584961 C 123.16509246826172 121.47865295410156 112.3371810913086 94.70751190185547 75.80736541748047 100.64521789550781" stroke-width="3.0" fill="none" stroke="rgb(0, 0, 0)" stroke-opacity="1.0" stroke-linecap="round" stroke-linejoin="round"/>
    <path d="M 133.42987060546875 102.62431335449219 C 141.92506408691406 139.2037353515625 134.1178436279297 105.35344696044922 128.04823303222656 101.52981567382812" stroke-width="3.0" fill="none" stroke="rgb(0, 0, 0)" stroke-opacity="1.0" stroke-linecap="round" stroke-linejoin="round"/>
    <path d="M 71.31990814208984 88.09689331054688 C 12.627984046936035 107.76070404052734 58.858760833740234 54.941829681396484 77.74678802490234 106.99143981933594" stroke-width="3.0" fill="none" stroke="rgb(0, 0, 0)" stroke-opacity="1.0" stroke-linecap="round" stroke-linejoin="round"/>
    <path d="M 131.39694213867188 119.00049591064453 C 101.45426177978516 169.16744995117188 142.31507873535156 113.02159118652344 122.71099853515625 136.35662841796875" stroke-width="3.0" fill="none" stroke="rgb(0, 0, 0)" stroke-opacity="1.0" stroke-linecap="round" stroke-linejoin="round"/>
    <path d="M 117.72771453857422 136.378173828125 C 139.949951171875 105.46524047851562 131.5302734375 126.5494613647461 122.66531372070312 102.9365234375" stroke-width="3.0" fill="none" stroke="rgb(0, 0, 0)" stroke-opacity="1.0" stroke-linecap="round" stroke-linejoin="round"/>
    <path d="M 139.1511688232422 148.69725036621094 C 129.7662811279297 122.3839111328125 156.3325958251953 120.90211486816406 125.2783432006836 102.87882232666016" stroke-width="3.0" fill="none" stroke="rgb(0, 0, 0)" stroke-opacity="1.0" stroke-linecap="round" stroke-linejoin="round"/>
    <path d="M 120.6044921875 101.77140045166016 C 139.04058837890625 167.10130310058594 164.82411193847656 129.6667938232422 109.97022247314453 176.5093536376953" stroke-width="3.0" fill="none" stroke="rgb(0, 0, 0)" stroke-opacity="1.0" stroke-linecap="round" stroke-linejoin="round"/>
    <path d="M 200.5386962890625 127.88440704345703 C 135.58657836914062 148.1072998046875 128.1424560546875 142.23899841308594 169.91976928710938 137.35272216796875" stroke-width="3.0" fill="none" stroke="rgb(0, 0, 0)" stroke-opacity="1.0" stroke-linecap="round" stroke-linejoin="round"/>
    <path d="M 135.81947326660156 115.50794219970703 C 102.1334228515625 100.36304473876953 176.43507385253906 96.60015869140625 133.07217407226562 130.31124877929688" stroke-width="3.0" fill="none" stroke="rgb(0, 0, 0)" stroke-opacity="1.0" stroke-linecap="round" stroke-linejoin="round"/>
    <path d="M 78.29206085205078 113.78013610839844 C 41.30906295776367 63.46912384033203 75.88128662109375 85.66765594482422 73.59454345703125 133.29986572265625" stroke-width="3.0" fill="none" stroke="rgb(0, 0, 0)" stroke-opacity="1.0" stroke-linecap="round" stroke-linejoin="round"/>
    <path d="M 73.44208526611328 132.65699768066406 C 164.74118041992188 145.3554229736328 100.03858184814453 134.9669189453125 72.6186752319336 127.96368408203125" stroke-width="3.0" fill="none" stroke="rgb(0, 0, 0)" stroke-opacity="1.0" stroke-linecap="round" stroke-linejoin="round"/>
    <path d="M 49.21455764770508 76.99870300292969 C 117.42584991455078 63.30192184448242 94.88912200927734 139.54139709472656 64.58712768554688 78.64057922363281" stroke-width="3.0" fill="none" stroke="rgb(0, 0, 0)" stroke-opacity="1.0" stroke-linecap="round" stroke-linejoin="round"/>
    <path d="M 129.7401123046875 127.04443359375 C 121.56206512451172 99.72078704833984 162.4650421142578 88.71268463134766 150.65945434570312 131.51226806640625" stroke-width="3.0" fill="none" stroke="rgb(0, 0, 0)" stroke-opacity="1.0" stroke-linecap="round" stroke-linejoin="round"/>
    <path d="M 156.66127014160156 104.57347106933594 C 180.5036163330078 132.2752685546875 206.34022521972656 137.9935760498047 155.08163452148438 100.90642547607422" stroke-width="3.0" fill="none" stroke="rgb(0, 0, 0)" stroke-opacity="1.0" stroke-linecap="round" stroke-linejoin="round"/>
    <path d="M 58.52143478393555 78.54021453857422 C 58.72530746459961 91.09321594238281 52.488067626953125 62.48988342285156 82.02974700927734 109.83475494384766" stroke-width="3.0" fill="none" stroke="rgb(0, 0, 0)" stroke-opacity="1.0" stroke-linecap="round" stroke-linejoin="round"/>
    <path d="M 61.45412063598633 76.6821517944336 C 33.161895751953125 117.4870834350586 39.76560974121094 87.57178497314453 67.8694839477539 80.76262664794922" stroke-width="3.0" fill="none" stroke="rgb(0, 0, 0)" stroke-opacity="1.0" stroke-linecap="round" stroke-linejoin="round"/>
  </g>
</svg>
