<?xml version="1.0" ?>
<svg xmlns="http://www.w3.org/2000/svg" version="1.1" width="224" height="224">
  <defs/>
  <g>
    <path d="M 130.32032775878906 106.07678985595703 C 96.49407196044922 103.00080871582031 99.88158416748047 112.01122283935547 137.93019104003906 103.75166320800781" stroke-width="3.0" fill="none" stroke="rgb(0, 0, 0)" stroke-opacity="1.0" stroke-linecap="round" stroke-linejoin="round"/>
    <path d="M 159.88121032714844 107.77867889404297 C 167.43588256835938 128.96189880371094 217.0341339111328 129.37257385253906 194.93182373046875 130.0667724609375" stroke-width="3.0" fill="none" stroke="rgb(0, 0, 0)" stroke-opacity="1.0" stroke-linecap="round" stroke-linejoin="round"/>
    <path d="M 148.14120483398438 127.53229522705078 C 133.27932739257812 95.66300201416016 129.5054473876953 112.98316955566406 156.1048583984375 145.0174102783203" stroke-width="3.0" fill="none" stroke="rgb(0, 0, 0)" stroke-opacity="1.0" stroke-linecap="round" stroke-linejoin="round"/>
    <path d="M 139.8048858642578 126.26373291015625 C 118.86311340332031 102.70048522949219 110.80459594726562 123.6835708618164 156.67723083496094 100.46340942382812" stroke-width="3.0" fill="none" stroke="rgb(0, 0, 0)" stroke-opacity="1.0" stroke-linecap="round" stroke-linejoin="round"/>
    <path d="M 129.5009765625 117.30937957763672 C 112.53880310058594 95.52302551269531 84.78988647460938 90.71239471435547 71.28575134277344 131.2799835205078" stroke-width="3.0" fill="none" stroke="rgb(0, 0, 0)" stroke-opacity="1.0" stroke-linecap="round" stroke-linejoin="round"/>
    <path d="M 134.82704162597656 104.4939193725586 C 137.03501892089844 126.89311981201172 153.05592346191406 116.17694091796875 134.46807861328125 99.83067321777344" stroke-width="3.0" fill="none" stroke="rgb(0, 0, 0)" stroke-opacity="1.0" stroke-linecap="round" stroke-linejoin="round"/>
    <path d="M 81.13773345947266 126.82091522216797 C 52.55476379394531 110.28607177734375 95.10478210449219 121.40176391601562 62.13151550292969 82.62920379638672" stroke-width="3.0" fill="none" stroke="rgb(0, 0, 0)" stroke-opacity="1.0" stroke-linecap="round" stroke-linejoin="round"/>
    <path d="M 152.9904022216797 140.18643188476562 C 118.23779296875 138.5630340576172 200.37796020507812 156.6520538330078 146.7440643310547 137.7688751220703" stroke-width="3.0" fill="none" stroke="rgb(0, 0, 0)" stroke-opacity="1.0" stroke-linecap="round" stroke-linejoin="round"/>
    <path d="M 184.59278869628906 163.61607360839844 C 186.77017211914062 150.20516967773438 189.63609313964844 169.50491333007812 163.57742309570312 142.81771850585938" stroke-width="3.0" fill="none" stroke="rgb(0, 0, 0)" stroke-opacity="1.0" stroke-linecap="round" stroke-linejoin="round"/>
    <path d="M 149.21839904785156 117.26393127441406 C 128.3000030517578 87.04511260986328 138.33631896972656 111.55428314208984 111.60945892333984 131.75729370117188" stroke-width="3.0" fill="none" stroke="rgb(0, 0, 0)" stroke-opacity="1.0" stroke-linecap="round" stroke-linejoin="round"/>
    <path d="M 129.71817016601562 137.41246032714844 C 150.17303466796875 117.62371826171875 159.8842010498047 105.9546890258789 142.6309051513672 138.7430877685547" stroke-width="3.0" fill="none" stroke="rgb(0, 0, 0)" stroke-opacity="1.0" stroke-linecap="round" stroke-linejoin="round"/>
    <path d="M 132.17623901367188 98.67669677734375 C 102.86052703857422 101.52183532714844 108.14452362060547 105.90565490722656 91.42474365234375 107.17259216308594" stroke-width="3.0" fill="none" stroke="rgb(0, 0, 0)" stroke-opacity="1.0" stroke-linecap="round" stroke-linejoin="round"/>
    <path d="M 128.2212371826172 115.4738540649414 C 158.98507690429688 103.97917938232422 136.4044647216797 103.54859924316406 116.48063659667969 140.82064819335938" stroke-width="3.0" fill="none" stroke="rgb(0, 0, 0)" stroke-opacity="1.0" stroke-linecap="round" stroke-linejoin="round"/>
    <path d="M 97.2135009765625 150.01138305664062 C 140.41903686523438 141.5846710205078 147.9450225830078 91.83268737792969 130.62193298339844 157.3005828857422" stroke-width="3.0" fill="none" stroke="rgb(0, 0, 0)" stroke-opacity="1.0" stroke-linecap="round" stroke-linejoin="round"/>
    <path d="M 78.69401550292969 86.37632751464844 C 28.39788246154785 71.07179260253906 43.235538482666016 89.51433563232422 66.39356994628906 91.60481262207031" stroke-width="3.0" fill="none" stroke="rgb(0, 0, 0)" stroke-opacity="1.0" stroke-linecap="round" stroke-linejoin="round"/>
    <path d="M 54.167991638183594 70.4368667602539 C 68.91191101074219 87.92765045166016 83.91810607910156 66.48639678955078 84.49089813232422 105.4281997680664" stroke-width="3.0" fill="none" stroke="rgb(0, 0, 0)" stroke-opacity="1.0" stroke-linecap="round" stroke-linejoin="round"/>
    <path d="M 66.3291015625 82.21552276611328 C 55.84932327270508 67.9939956665039 42.210166931152344 98.73169708251953 68.61506652832031 88.26214599609375" stroke-width="3.0" fill="none" stroke="rgb(0, 0, 0)" stroke-opacity="1.0" stroke-linecap="round" stroke-linejoin="round"/>
    <path d="M 62.559078216552734 140.713134765625 C 83.0217056274414 122.52324676513672 82.45757293701172 144.87510681152344 95.51900482177734 123.68895721435547" stroke-width="3.0" fill="none" stroke="rgb(0, 0, 0)" stroke-opacity="1.0" stroke-linecap="round" stroke-linejoin="round"/>
    <path d="M 129.3121337890625 100.8393325805664 C 151.88502502441406 134.5816650390625 155.070068359375 92.5080337524414 120.53137969970703 108.65679168701172" stroke-width="3.0" fill="none" stroke="rgb(0, 0, 0)" stroke-opacity="1.0" stroke-linecap="round" stroke-linejoin="round"/>
    <path d="M 133.56423950195312 140.12811279296875 C 143.88330078125 173.06716918945312 120.05906677246094 140.76011657714844 137.74783325195312 108.5816879272461" stroke-width="3.0" fill="none" stroke="rgb(0, 0, 0)" stroke-opacity="1.0" stroke-linecap="round" stroke-linejoin="round"/>
    <path d="M 95.93553924560547 150.52374267578125 C 85.36731719970703 167.74819946289062 116.63056182861328 165.5168914794922 100.15412139892578 171.90403747558594" stroke-width="3.0" fill="none" stroke="rgb(0, 0, 0)" stroke-opacity="1.0" stroke-linecap="round" stroke-linejoin="round"/>
    <path d="M 72.82093048095703 128.8772735595703 C 134.80567932128906 131.84494018554688 132.30035400390625 137.81011962890625 140.59364318847656 115.62728881835938" stroke-width="3.0" fill="none" stroke="rgb(0, 0, 0)" stroke-opacity="1.0" stroke-linecap="round" stroke-linejoin="round"/>
    <path d="M 137.45587158203125 102.96792602539062 C 96.28173065185547 107.22163391113281 91.938232421875 90.05331420898438 73.74342346191406 106.26726531982422" stroke-width="3.0" fill="none" stroke="rgb(0, 0, 0)" stroke-opacity="1.0" stroke-linecap="round" stroke-linejoin="round"/>
    <path d="M 146.5685272216797 113.58663940429688 C 152.31387329101562 143.00474548339844 136.6005096435547 126.17288208007812 147.72747802734375 118.949462890625" stroke-width="3.0" fill="none" stroke="rgb(0, 0, 0)" stroke-opacity="1.0" stroke-linecap="round" stroke-linejoin="round"/>
    <path d="M 53.95500183105469 78.83654022216797 C 43.54582214355469 83.45745849609375 80.55204772949219 71.516845703125 99.06642150878906 102.63549041748047" stroke-width="3.0" fill="none" stroke="rgb(0, 0, 0)" stroke-opacity="1.0" stroke-linecap="round" stroke-linejoin="round"/>
    <path d="M 99.65035247802734 131.4363250732422 C 106.85459899902344 133.8936309814453 85.08548736572266 138.04205322265625 91.00536346435547 121.27676391601562" stroke-width="3.0" fill="none" stroke="rgb(0, 0, 0)" stroke-opacity="1.0" stroke-linecap="round" stroke-linejoin="round"/>
    <path d="M 60.21438980102539 70.75093078613281 C 23.1881160736084 102.16486358642578 35.799293518066406 106.93164825439453 55.49974822998047 75.89604187011719" stroke-width="3.0" fill="none" stroke="rgb(0, 0, 0)" stroke-opacity="1.0" stroke-linecap="round" stroke-linejoin="round"/>
    <path d="M 78.9264144897461 164.09152221679688 C 90.76434326171875 158.0179901123047 33.692840576171875 138.37930297851562 79.13312530517578 130.36090087890625" stroke-width="3.0" fill="none" stroke="rgb(0, 0, 0)" stroke-opacity="1.0" stroke-linecap="round" stroke-linejoin="round"/>
    <path d="M 181.02346801757812 125.13147735595703 C 162.28651428222656 111.08853912353516 164.3240966796875 85.59295654296875 152.51754760742188 109.4215087890625" stroke-width="3.0" fill="none" stroke="rgb(0, 0, 0)" stroke-opacity="1.0" stroke-linecap="round" stroke-linejoin="round"/>
    <path d="M 126.84461975097656 121.18875122070312 C 129.09320068359375 101.90802764892578 127.381103515625 95.76715087890625 121.91720581054688 134.78451538085938" stroke-width="3.0" fill="none" stroke="rgb(0, 0, 0)" stroke-opacity="1.0" stroke-linecap="round" stroke-linejoin="round"/>
    <path d="M 60.98061752319336 84.58162689208984 C 97.07608795166016 105.90379333496094 58.61589050292969 120.20881652832031 93.00422668457031 97.9813003540039" stroke-width="3.0" fill="none" stroke="rgb(0, 0, 0)" stroke-opacity="1.0" stroke-linecap="round" stroke-linejoin="round"/>
    <path d="M 134.566162109375 114.67692565917969 C 142.8842315673828 140.3062744140625 118.5802001953125 130.5716552734375 115.63844299316406 143.91357421875" stroke-width="3.0" fill="none" stroke="rgb(0, 0, 0)" stroke-opacity="1.0" stroke-linecap="round" stroke-linejoin="round"/>
    <path d="M 81.68013763427734 91.73917388916016 C 114.87135314941406 121.962646484375 107.75662231445312 104.48500061035156 86.43228912353516 92.3718032836914" stroke-width="3.0" fill="none" stroke="rgb(0, 0, 0)" stroke-opacity="1.0" stroke-linecap="round" stroke-linejoin="round"/>
    <path d="M 127.54313659667969 119.85067749023438 C 139.31402587890625 144.39683532714844 119.6493911743164 128.06105041503906 124.59513092041016 101.6958999633789" stroke-width="3.0" fill="none" stroke="rgb(0, 0, 0)" stroke-opacity="1.0" stroke-linecap="round" stroke-linejoin="round"/>
    <path d="M 60.10849380493164 80.75476837158203 C 36.43806838989258 106.13396453857422 56.817047119140625 83.82179260253906 72.45418548583984 91.47509765625" stroke-width="3.0" fill="none" stroke="rgb(0, 0, 0)" stroke-opacity="1.0" stroke-linecap="round" stroke-linejoin="round"/>
    <path d="M 128.17086791992188 99.76998138427734 C 142.6173095703125 127.81059265136719 163.0558624267578 113.56362915039062 130.0098114013672 139.02767944335938" stroke-width="3.0" fill="none" stroke="rgb(0, 0, 0)" stroke-opacity="1.0" stroke-linecap="round" stroke-linejoin="round"/>
    <path d="M 125.75558471679688 133.6812286376953 C 146.81690979003906 111.12114715576172 133.58258056640625 135.06202697753906 117.4555892944336 127.72148895263672" stroke-width="3.0" fill="none" stroke="rgb(0, 0, 0)" stroke-opacity="1.0" stroke-linecap="round" stroke-linejoin="round"/>
    <path d="M 146.6196746826172 110.11595153808594 C 126.68235778808594 114.85517120361328 139.4325408935547 97.91800689697266 149.4084930419922 122.75059509277344" stroke-width="3.0" fill="none" stroke="rgb(0, 0, 0)" stroke-opacity="1.0" stroke-linecap="round" stroke-linejoin="round"/>
    <path d="M 132.48216247558594 108.89437866210938 C 137.4228973388672 176.24029541015625 149.84771728515625 141.63453674316406 113.24363708496094 170.63168334960938" stroke-width="3.0" fill="none" stroke="rgb(0, 0, 0)" stroke-opacity="1.0" stroke-linecap="round" stroke-linejoin="round"/>
    <path d="M 199.01776123046875 133.9382781982422 C 162.82418823242188 119.72254943847656 148.9918212890625 90.55108642578125 179.0805206298828 125.78706359863281" stroke-width="3.0" fill="none" stroke="rgb(0, 0, 0)" stroke-opacity="1.0" stroke-linecap="round" stroke-linejoin="round"/>
    <path d="M 132.2582244873047 117.28562927246094 C 102.46070861816406 90.20220184326172 154.1340789794922 93.85255432128906 150.1544952392578 122.42386627197266" stroke-width="3.0" fill="none" stroke="rgb(0, 0, 0)" stroke-opacity="1.0" stroke-linecap="round" stroke-linejoin="round"/>
    <path d="M 62.935543060302734 84.60469818115234 C 45.55701446533203 75.65786743164062 79.97859954833984 84.27925109863281 73.00328063964844 122.5107192993164" stroke-width="3.0" fill="none" stroke="rgb(0, 0, 0)" stroke-opacity="1.0" stroke-linecap="round" stroke-linejoin="round"/>
    <path d="M 83.48275756835938 134.63848876953125 C 130.191162109375 128.1881103515625 96.86939239501953 138.10479736328125 91.13801574707031 120.05363464355469" stroke-width="3.0" fill="none" stroke="rgb(0, 0, 0)" stroke-opacity="1.0" stroke-linecap="round" stroke-linejoin="round"/>
    <path d="M 61.865989685058594 73.26628112792969 C 95.30619812011719 70.73867797851562 97.39564514160156 111.8445816040039 73.15726470947266 80.60831451416016" stroke-width="3.0" fill="none" stroke="rgb(0, 0, 0)" stroke-opacity="1.0" stroke-linecap="round" stroke-linejoin="round"/>
    <path d="M 139.8679962158203 118.78993225097656 C 149.29266357421875 125.55677032470703 131.2515106201172 108.98786163330078 121.43008422851562 139.5210723876953" stroke-width="3.0" fill="none" stroke="rgb(0, 0, 0)" stroke-opacity="1.0" stroke-linecap="round" stroke-linejoin="round"/>
    <path d="M 155.31968688964844 103.7060317993164 C 189.14256286621094 122.11256408691406 197.19342041015625 141.96694946289062 160.6332244873047 115.43958282470703" stroke-width="3.0" fill="none" stroke="rgb(0, 0, 0)" stroke-opacity="1.0" stroke-linecap="round" stroke-linejoin="round"/>
    <path d="M 43.32929611206055 89.6028060913086 C 59.886505126953125 97.50621032714844 50.36338424682617 87.59629821777344 72.60812377929688 80.41677856445312" stroke-width="3.0" fill="none" stroke="rgb(0, 0, 0)" stroke-opacity="1.0" stroke-linecap="round" stroke-linejoin="round"/>
    <path d="M 62.37529373168945 78.14028930664062 C 46.379364013671875 103.17716979980469 49.38798141479492 82.04900360107422 68.34709930419922 75.71188354492188" stroke-width="3.0" fill="none" stroke="rgb(0, 0, 0)" stroke-opacity="1.0" stroke-linecap="round" stroke-linejoin="round"/>
  </g>
</svg>
