<?xml version="1.0" ?>
<svg xmlns="http://www.w3.org/2000/svg" version="1.1" width="224" height="224">
  <defs/>
  <g>
    <path d="M 148.66476440429688 118.88121795654297 C 112.73914337158203 91.0909423828125 77.21401977539062 107.81450653076172 134.96878051757812 101.52017211914062" stroke-width="3.0" fill="none" stroke="rgb(0, 0, 0)" stroke-opacity="1.0" stroke-linecap="round" stroke-linejoin="round"/>
    <path d="M 160.6407012939453 104.59574127197266 C 167.1693572998047 137.16574096679688 260.20208740234375 141.03367614746094 164.2670135498047 120.2052230834961" stroke-width="3.0" fill="none" stroke="rgb(0, 0, 0)" stroke-opacity="1.0" stroke-linecap="round" stroke-linejoin="round"/>
    <path d="M 147.21463012695312 124.41116333007812 C 136.4281463623047 73.55293273925781 115.0030746459961 137.20016479492188 164.53395080566406 143.9176788330078" stroke-width="3.0" fill="none" stroke="rgb(0, 0, 0)" stroke-opacity="1.0" stroke-linecap="round" stroke-linejoin="round"/>
    <path d="M 136.35501098632812 150.1787567138672 C 112.81775665283203 72.41064453125 124.90630340576172 123.29667663574219 145.66697692871094 106.32118225097656" stroke-width="3.0" fill="none" stroke="rgb(0, 0, 0)" stroke-opacity="1.0" stroke-linecap="round" stroke-linejoin="round"/>
    <path d="M 127.74372100830078 119.99684143066406 C 132.1953582763672 87.92411041259766 54.58058166503906 99.35566711425781 71.13529968261719 130.07688903808594" stroke-width="3.0" fill="none" stroke="rgb(0, 0, 0)" stroke-opacity="1.0" stroke-linecap="round" stroke-linejoin="round"/>
    <path d="M 120.79096984863281 130.1664276123047 C 119.4730453491211 139.4511260986328 131.294921875 104.88617706298828 111.92056274414062 107.32356262207031" stroke-width="3.0" fill="none" stroke="rgb(0, 0, 0)" stroke-opacity="1.0" stroke-linecap="round" stroke-linejoin="round"/>
    <path d="M 75.35908508300781 123.28575897216797 C 47.30574417114258 136.42849731445312 127.04953002929688 88.37678527832031 55.28519058227539 73.29924011230469" stroke-width="3.0" fill="none" stroke="rgb(0, 0, 0)" stroke-opacity="1.0" stroke-linecap="round" stroke-linejoin="round"/>
    <path d="M 144.46286010742188 107.47686767578125 C 143.90765380859375 152.0120391845703 227.04867553710938 172.32540893554688 135.78878784179688 139.38955688476562" stroke-width="3.0" fill="none" stroke="rgb(0, 0, 0)" stroke-opacity="1.0" stroke-linecap="round" stroke-linejoin="round"/>
    <path d="M 179.31369018554688 157.8828125 C 180.66993713378906 143.57310485839844 208.61380004882812 183.22225952148438 158.4358673095703 142.0927734375" stroke-width="3.0" fill="none" stroke="rgb(0, 0, 0)" stroke-opacity="1.0" stroke-linecap="round" stroke-linejoin="round"/>
    <path d="M 127.26815795898438 128.83152770996094 C 116.77897644042969 68.9162368774414 157.19845581054688 119.57007598876953 127.78041076660156 124.01105499267578" stroke-width="3.0" fill="none" stroke="rgb(0, 0, 0)" stroke-opacity="1.0" stroke-linecap="round" stroke-linejoin="round"/>
    <path d="M 133.82998657226562 153.6807403564453 C 152.58486938476562 115.99696350097656 148.2436065673828 83.93153381347656 131.47511291503906 157.5088653564453" stroke-width="3.0" fill="none" stroke="rgb(0, 0, 0)" stroke-opacity="1.0" stroke-linecap="round" stroke-linejoin="round"/>
    <path d="M 139.64064025878906 107.63992309570312 C 80.47334289550781 103.13753509521484 92.3761215209961 93.8643569946289 68.39220428466797 79.8254165649414" stroke-width="3.0" fill="none" stroke="rgb(0, 0, 0)" stroke-opacity="1.0" stroke-linecap="round" stroke-linejoin="round"/>
    <path d="M 107.1261978149414 106.0993423461914 C 142.1539764404297 93.65686798095703 135.54412841796875 91.38318634033203 140.37203979492188 143.07310485839844" stroke-width="3.0" fill="none" stroke="rgb(0, 0, 0)" stroke-opacity="1.0" stroke-linecap="round" stroke-linejoin="round"/>
    <path d="M 99.43153381347656 147.96734619140625 C 144.44952392578125 140.20289611816406 150.4172821044922 75.34451293945312 135.951904296875 156.82594299316406" stroke-width="3.0" fill="none" stroke="rgb(0, 0, 0)" stroke-opacity="1.0" stroke-linecap="round" stroke-linejoin="round"/>
    <path d="M 85.75540161132812 94.3367919921875 C 50.98207092285156 66.75238037109375 18.841552734375 118.8157730102539 46.56263732910156 79.00384521484375" stroke-width="3.0" fill="none" stroke="rgb(0, 0, 0)" stroke-opacity="1.0" stroke-linecap="round" stroke-linejoin="round"/>
    <path d="M 53.78352355957031 70.56460571289062 C 74.44888305664062 86.29732513427734 84.9209976196289 75.94364929199219 83.54106140136719 101.18498992919922" stroke-width="3.0" fill="none" stroke="rgb(0, 0, 0)" stroke-opacity="1.0" stroke-linecap="round" stroke-linejoin="round"/>
    <path d="M 85.08382415771484 105.18204498291016 C 57.42829132080078 74.03630065917969 11.407620429992676 94.8822250366211 75.69438171386719 87.30433654785156" stroke-width="3.0" fill="none" stroke="rgb(0, 0, 0)" stroke-opacity="1.0" stroke-linecap="round" stroke-linejoin="round"/>
    <path d="M 78.91439056396484 162.8208465576172 C 35.061771392822266 118.13059997558594 76.9806900024414 151.2245635986328 96.60285949707031 120.04950714111328" stroke-width="3.0" fill="none" stroke="rgb(0, 0, 0)" stroke-opacity="1.0" stroke-linecap="round" stroke-linejoin="round"/>
    <path d="M 133.9921417236328 118.34137725830078 C 159.766845703125 161.131591796875 164.7837677001953 77.09358215332031 111.02111053466797 104.12550354003906" stroke-width="3.0" fill="none" stroke="rgb(0, 0, 0)" stroke-opacity="1.0" stroke-linecap="round" stroke-linejoin="round"/>
    <path d="M 127.51390075683594 106.1678237915039 C 134.3283233642578 196.63821411132812 152.52774047851562 92.25288391113281 135.07928466796875 105.38081359863281" stroke-width="3.0" fill="none" stroke="rgb(0, 0, 0)" stroke-opacity="1.0" stroke-linecap="round" stroke-linejoin="round"/>
    <path d="M 98.31998443603516 147.9015655517578 C 82.40348052978516 167.55050659179688 122.58061218261719 181.1165313720703 96.54109191894531 161.39181518554688" stroke-width="3.0" fill="none" stroke="rgb(0, 0, 0)" stroke-opacity="1.0" stroke-linecap="round" stroke-linejoin="round"/>
    <path d="M 72.33570098876953 125.13136291503906 C 147.52708435058594 140.515869140625 142.4437255859375 127.7850341796875 150.30816650390625 116.37344360351562" stroke-width="3.0" fill="none" stroke="rgb(0, 0, 0)" stroke-opacity="1.0" stroke-linecap="round" stroke-linejoin="round"/>
    <path d="M 132.53701782226562 100.77821350097656 C 83.05335998535156 114.37802124023438 103.9420394897461 69.21566009521484 74.73973846435547 113.19342041015625" stroke-width="3.0" fill="none" stroke="rgb(0, 0, 0)" stroke-opacity="1.0" stroke-linecap="round" stroke-linejoin="round"/>
    <path d="M 141.4249725341797 115.89752197265625 C 169.2144012451172 118.38388061523438 124.47808837890625 155.92796325683594 147.84759521484375 124.4209213256836" stroke-width="3.0" fill="none" stroke="rgb(0, 0, 0)" stroke-opacity="1.0" stroke-linecap="round" stroke-linejoin="round"/>
    <path d="M 81.47864532470703 108.35787200927734 C 61.39169692993164 58.65409469604492 68.92777252197266 70.41170501708984 82.05516052246094 112.30159759521484" stroke-width="3.0" fill="none" stroke="rgb(0, 0, 0)" stroke-opacity="1.0" stroke-linecap="round" stroke-linejoin="round"/>
    <path d="M 70.83384704589844 127.4850845336914 C 128.8383026123047 137.55360412597656 100.8515625 135.67567443847656 96.10316467285156 124.78142547607422" stroke-width="3.0" fill="none" stroke="rgb(0, 0, 0)" stroke-opacity="1.0" stroke-linecap="round" stroke-linejoin="round"/>
    <path d="M 54.657615661621094 71.30242919921875 C 27.449268341064453 107.20030975341797 40.23789596557617 107.21820831298828 66.53842163085938 77.83525085449219" stroke-width="3.0" fill="none" stroke="rgb(0, 0, 0)" stroke-opacity="1.0" stroke-linecap="round" stroke-linejoin="round"/>
    <path d="M 81.71174621582031 168.58555603027344 C 99.03187561035156 158.95028686523438 23.77760887145996 138.1560821533203 97.9451904296875 126.52954864501953" stroke-width="3.0" fill="none" stroke="rgb(0, 0, 0)" stroke-opacity="1.0" stroke-linecap="round" stroke-linejoin="round"/>
    <path d="M 182.35797119140625 124.47948455810547 C 163.4190673828125 116.62584686279297 168.41250610351562 86.18034362792969 147.15557861328125 106.67203521728516" stroke-width="3.0" fill="none" stroke="rgb(0, 0, 0)" stroke-opacity="1.0" stroke-linecap="round" stroke-linejoin="round"/>
    <path d="M 116.51087188720703 139.7187957763672 C 177.91058349609375 117.5443344116211 143.6903533935547 98.0628890991211 116.71414947509766 136.54351806640625" stroke-width="3.0" fill="none" stroke="rgb(0, 0, 0)" stroke-opacity="1.0" stroke-linecap="round" stroke-linejoin="round"/>
    <path d="M 65.37142181396484 74.68048095703125 C 103.5680923461914 108.84583282470703 87.35475158691406 117.57682800292969 63.526039123535156 75.71273040771484" stroke-width="3.0" fill="none" stroke="rgb(0, 0, 0)" stroke-opacity="1.0" stroke-linecap="round" stroke-linejoin="round"/>
    <path d="M 132.58883666992188 114.95576477050781 C 151.6757354736328 127.16728210449219 132.17083740234375 111.69966888427734 108.57816314697266 133.34054565429688" stroke-width="3.0" fill="none" stroke="rgb(0, 0, 0)" stroke-opacity="1.0" stroke-linecap="round" stroke-linejoin="round"/>
    <path d="M 67.28324890136719 81.94513702392578 C 109.08307647705078 123.16057586669922 102.95376586914062 91.76045227050781 81.1853256225586 96.72762298583984" stroke-width="3.0" fill="none" stroke="rgb(0, 0, 0)" stroke-opacity="1.0" stroke-linecap="round" stroke-linejoin="round"/>
    <path d="M 127.64381408691406 107.37007904052734 C 142.81887817382812 140.9979705810547 138.3887481689453 104.41281127929688 131.36093139648438 101.63151550292969" stroke-width="3.0" fill="none" stroke="rgb(0, 0, 0)" stroke-opacity="1.0" stroke-linecap="round" stroke-linejoin="round"/>
    <path d="M 74.460693359375 85.40290832519531 C 20.598209381103516 111.26216888427734 68.58438110351562 57.99803161621094 85.21012115478516 105.82793426513672" stroke-width="3.0" fill="none" stroke="rgb(0, 0, 0)" stroke-opacity="1.0" stroke-linecap="round" stroke-linejoin="round"/>
    <path d="M 132.852294921875 123.2531509399414 C 97.50847625732422 167.67913818359375 138.4126434326172 110.98975372314453 121.13933563232422 135.89576721191406" stroke-width="3.0" fill="none" stroke="rgb(0, 0, 0)" stroke-opacity="1.0" stroke-linecap="round" stroke-linejoin="round"/>
    <path d="M 119.93814849853516 134.26441955566406 C 138.0056915283203 99.09771728515625 132.95962524414062 124.8356704711914 125.72748565673828 101.3278579711914" stroke-width="3.0" fill="none" stroke="rgb(0, 0, 0)" stroke-opacity="1.0" stroke-linecap="round" stroke-linejoin="round"/>
    <path d="M 144.27078247070312 139.0330352783203 C 122.1863021850586 115.47241973876953 147.3515625 115.70504760742188 125.07571411132812 98.59114074707031" stroke-width="3.0" fill="none" stroke="rgb(0, 0, 0)" stroke-opacity="1.0" stroke-linecap="round" stroke-linejoin="round"/>
    <path d="M 122.9305191040039 102.51154327392578 C 139.60862731933594 184.14340209960938 151.1844024658203 136.5313720703125 110.55230712890625 175.47499084472656" stroke-width="3.0" fill="none" stroke="rgb(0, 0, 0)" stroke-opacity="1.0" stroke-linecap="round" stroke-linejoin="round"/>
    <path d="M 187.14085388183594 124.69940185546875 C 136.41819763183594 150.42088317871094 127.67276763916016 138.1316375732422 167.75189208984375 134.9088134765625" stroke-width="3.0" fill="none" stroke="rgb(0, 0, 0)" stroke-opacity="1.0" stroke-linecap="round" stroke-linejoin="round"/>
    <path d="M 141.41195678710938 109.97876739501953 C 101.12068939208984 103.51431274414062 172.91831970214844 100.58074188232422 133.3360137939453 136.84083557128906" stroke-width="3.0" fill="none" stroke="rgb(0, 0, 0)" stroke-opacity="1.0" stroke-linecap="round" stroke-linejoin="round"/>
    <path d="M 79.72872924804688 109.60125732421875 C 37.6471061706543 68.81462097167969 80.19733428955078 88.7993392944336 74.83654022216797 134.6156768798828" stroke-width="3.0" fill="none" stroke="rgb(0, 0, 0)" stroke-opacity="1.0" stroke-linecap="round" stroke-linejoin="round"/>
    <path d="M 74.47763061523438 129.93167114257812 C 167.71368408203125 147.4606170654297 99.13127136230469 138.478515625 74.51996612548828 133.40086364746094" stroke-width="3.0" fill="none" stroke="rgb(0, 0, 0)" stroke-opacity="1.0" stroke-linecap="round" stroke-linejoin="round"/>
    <path d="M 54.91276931762695 74.04756164550781 C 112.46439361572266 65.423828125 91.60086822509766 145.51007080078125 65.59507751464844 84.08194732666016" stroke-width="3.0" fill="none" stroke="rgb(0, 0, 0)" stroke-opacity="1.0" stroke-linecap="round" stroke-linejoin="round"/>
    <path d="M 129.1328582763672 125.27745056152344 C 115.54105377197266 96.70915222167969 168.37890625 92.814453125 149.41770935058594 139.60272216796875" stroke-width="3.0" fill="none" stroke="rgb(0, 0, 0)" stroke-opacity="1.0" stroke-linecap="round" stroke-linejoin="round"/>
    <path d="M 159.50198364257812 101.8139419555664 C 182.88487243652344 131.9187774658203 211.3994903564453 135.96224975585938 155.82981872558594 102.42245483398438" stroke-width="3.0" fill="none" stroke="rgb(0, 0, 0)" stroke-opacity="1.0" stroke-linecap="round" stroke-linejoin="round"/>
    <path d="M 48.6850471496582 79.50177001953125 C 63.15507888793945 87.85861206054688 52.06314468383789 58.05778503417969 76.3108139038086 112.32737731933594" stroke-width="3.0" fill="none" stroke="rgb(0, 0, 0)" stroke-opacity="1.0" stroke-linecap="round" stroke-linejoin="round"/>
    <path d="M 57.73750305175781 73.64697265625 C 33.97193908691406 114.33967590332031 38.31911849975586 83.8734359741211 73.04267120361328 86.9266586303711" stroke-width="3.0" fill="none" stroke="rgb(0, 0, 0)" stroke-opacity="1.0" stroke-linecap="round" stroke-linejoin="round"/>
  </g>
</svg>
