<?xml version="1.0" ?>
<svg xmlns="http://www.w3.org/2000/svg" version="1.1" width="224" height="224">
  <defs/>
  <g>
    <path d="M 139.40615844726562 123.28805541992188 C 104.86326599121094 96.14234924316406 87.45916748046875 127.09630584716797 135.9305877685547 110.58252716064453" stroke-width="3.0" fill="none" stroke="rgb(0, 0, 0)" stroke-opacity="1.0" stroke-linecap="round" stroke-linejoin="round"/>
    <path d="M 161.27748107910156 106.2747802734375 C 171.879638671875 138.14613342285156 239.49607849121094 143.0516815185547 185.41494750976562 128.25271606445312" stroke-width="3.0" fill="none" stroke="rgb(0, 0, 0)" stroke-opacity="1.0" stroke-linecap="round" stroke-linejoin="round"/>
    <path d="M 131.75961303710938 134.4406280517578 C 128.0492706298828 78.71228790283203 125.15365600585938 114.56867218017578 154.63259887695312 145.16326904296875" stroke-width="3.0" fill="none" stroke="rgb(0, 0, 0)" stroke-opacity="1.0" stroke-linecap="round" stroke-linejoin="round"/>
    <path d="M 123.31356811523438 135.85739135742188 C 120.06233215332031 82.81670379638672 102.80989074707031 121.27134704589844 159.20726013183594 104.12696838378906" stroke-width="3.0" fill="none" stroke="rgb(0, 0, 0)" stroke-opacity="1.0" stroke-linecap="round" stroke-linejoin="round"/>
    <path d="M 107.18899536132812 125.69229125976562 C 122.79098510742188 103.68136596679688 72.85867309570312 87.25298309326172 77.44434356689453 127.83482360839844" stroke-width="3.0" fill="none" stroke="rgb(0, 0, 0)" stroke-opacity="1.0" stroke-linecap="round" stroke-linejoin="round"/>
    <path d="M 114.95001220703125 134.786865234375 C 133.8168182373047 141.7290802001953 140.78369140625 102.11357879638672 132.58181762695312 106.43010711669922" stroke-width="3.0" fill="none" stroke="rgb(0, 0, 0)" stroke-opacity="1.0" stroke-linecap="round" stroke-linejoin="round"/>
    <path d="M 80.4958724975586 132.8414306640625 C 52.35751724243164 117.62944030761719 112.06832122802734 91.03623962402344 51.43458938598633 87.10595703125" stroke-width="3.0" fill="none" stroke="rgb(0, 0, 0)" stroke-opacity="1.0" stroke-linecap="round" stroke-linejoin="round"/>
    <path d="M 142.67715454101562 114.4993667602539 C 115.20903015136719 151.49107360839844 214.16465759277344 154.87413024902344 140.13824462890625 138.5270233154297" stroke-width="3.0" fill="none" stroke="rgb(0, 0, 0)" stroke-opacity="1.0" stroke-linecap="round" stroke-linejoin="round"/>
    <path d="M 178.09243774414062 161.50619506835938 C 181.08897399902344 148.6260223388672 201.2198944091797 188.09121704101562 163.429931640625 143.34127807617188" stroke-width="3.0" fill="none" stroke="rgb(0, 0, 0)" stroke-opacity="1.0" stroke-linecap="round" stroke-linejoin="round"/>
    <path d="M 133.63796997070312 139.50875854492188 C 133.16036987304688 78.122314453125 145.8750457763672 112.07567596435547 113.66767883300781 133.324951171875" stroke-width="3.0" fill="none" stroke="rgb(0, 0, 0)" stroke-opacity="1.0" stroke-linecap="round" stroke-linejoin="round"/>
    <path d="M 134.45542907714844 152.53350830078125 C 151.03257751464844 119.17605590820312 153.0393524169922 88.58458709716797 136.48214721679688 138.44290161132812" stroke-width="3.0" fill="none" stroke="rgb(0, 0, 0)" stroke-opacity="1.0" stroke-linecap="round" stroke-linejoin="round"/>
    <path d="M 134.43557739257812 112.6718521118164 C 90.45174407958984 107.2667465209961 92.89889526367188 91.11036682128906 69.7747573852539 81.36412811279297" stroke-width="3.0" fill="none" stroke="rgb(0, 0, 0)" stroke-opacity="1.0" stroke-linecap="round" stroke-linejoin="round"/>
    <path d="M 91.54010772705078 100.71538543701172 C 139.37269592285156 107.89152526855469 117.00707244873047 81.82056427001953 113.21613311767578 133.60459899902344" stroke-width="3.0" fill="none" stroke="rgb(0, 0, 0)" stroke-opacity="1.0" stroke-linecap="round" stroke-linejoin="round"/>
    <path d="M 99.68401336669922 148.53009033203125 C 144.20037841796875 145.9498748779297 137.75425720214844 81.21473693847656 131.86851501464844 156.488525390625" stroke-width="3.0" fill="none" stroke="rgb(0, 0, 0)" stroke-opacity="1.0" stroke-linecap="round" stroke-linejoin="round"/>
    <path d="M 80.17053985595703 86.49015045166016 C 34.5133056640625 66.97254943847656 43.36178207397461 107.54513549804688 61.47237777709961 82.9005126953125" stroke-width="3.0" fill="none" stroke="rgb(0, 0, 0)" stroke-opacity="1.0" stroke-linecap="round" stroke-linejoin="round"/>
    <path d="M 54.828765869140625 69.21326446533203 C 67.08372497558594 89.60733795166016 76.54474639892578 72.26190948486328 83.49198150634766 105.85248565673828" stroke-width="3.0" fill="none" stroke="rgb(0, 0, 0)" stroke-opacity="1.0" stroke-linecap="round" stroke-linejoin="round"/>
    <path d="M 83.16620635986328 101.52555847167969 C 51.803001403808594 76.93098449707031 25.635971069335938 75.13827514648438 72.26670837402344 82.84031677246094" stroke-width="3.0" fill="none" stroke="rgb(0, 0, 0)" stroke-opacity="1.0" stroke-linecap="round" stroke-linejoin="round"/>
    <path d="M 78.50283813476562 162.1556854248047 C 39.755027770996094 121.78155517578125 71.8965072631836 150.72084045410156 96.16468048095703 121.87625122070312" stroke-width="3.0" fill="none" stroke="rgb(0, 0, 0)" stroke-opacity="1.0" stroke-linecap="round" stroke-linejoin="round"/>
    <path d="M 135.0625457763672 102.77594757080078 C 152.6529083251953 143.73399353027344 157.61376953125 86.90682983398438 107.43550109863281 108.48808288574219" stroke-width="3.0" fill="none" stroke="rgb(0, 0, 0)" stroke-opacity="1.0" stroke-linecap="round" stroke-linejoin="round"/>
    <path d="M 126.73533630371094 120.06854248046875 C 142.6764678955078 195.6426544189453 152.09584045410156 115.47478485107422 127.53195190429688 108.37910461425781" stroke-width="3.0" fill="none" stroke="rgb(0, 0, 0)" stroke-opacity="1.0" stroke-linecap="round" stroke-linejoin="round"/>
    <path d="M 97.55867004394531 149.20057678222656 C 82.32463073730469 171.26458740234375 126.24922943115234 166.49102783203125 106.35521697998047 173.0981903076172" stroke-width="3.0" fill="none" stroke="rgb(0, 0, 0)" stroke-opacity="1.0" stroke-linecap="round" stroke-linejoin="round"/>
    <path d="M 80.16150665283203 123.88894653320312 C 145.8365020751953 134.6788787841797 134.45355224609375 130.7013702392578 146.33155822753906 118.58816528320312" stroke-width="3.0" fill="none" stroke="rgb(0, 0, 0)" stroke-opacity="1.0" stroke-linecap="round" stroke-linejoin="round"/>
    <path d="M 133.91514587402344 103.38873291015625 C 87.08641052246094 111.13290405273438 107.04662322998047 79.74805450439453 72.95135498046875 126.07345581054688" stroke-width="3.0" fill="none" stroke="rgb(0, 0, 0)" stroke-opacity="1.0" stroke-linecap="round" stroke-linejoin="round"/>
    <path d="M 135.86807250976562 110.78435516357422 C 146.1363525390625 119.8267593383789 115.27438354492188 149.53221130371094 146.3936767578125 140.76007080078125" stroke-width="3.0" fill="none" stroke="rgb(0, 0, 0)" stroke-opacity="1.0" stroke-linecap="round" stroke-linejoin="round"/>
    <path d="M 84.80094909667969 110.02761840820312 C 36.218082427978516 57.6063232421875 57.98706817626953 68.99227142333984 79.58901977539062 92.53922271728516" stroke-width="3.0" fill="none" stroke="rgb(0, 0, 0)" stroke-opacity="1.0" stroke-linecap="round" stroke-linejoin="round"/>
    <path d="M 75.05013275146484 125.76426696777344 C 125.82879638671875 136.67208862304688 96.39958953857422 135.7362823486328 94.22547912597656 116.79954528808594" stroke-width="3.0" fill="none" stroke="rgb(0, 0, 0)" stroke-opacity="1.0" stroke-linecap="round" stroke-linejoin="round"/>
    <path d="M 55.4071159362793 70.78836822509766 C 25.88388442993164 104.75360107421875 40.72624206542969 104.04651641845703 61.06892395019531 76.51560974121094" stroke-width="3.0" fill="none" stroke="rgb(0, 0, 0)" stroke-opacity="1.0" stroke-linecap="round" stroke-linejoin="round"/>
    <path d="M 81.59800720214844 168.8831787109375 C 92.34172821044922 151.34034729003906 32.28348159790039 146.7277069091797 91.62527465820312 124.97525787353516" stroke-width="3.0" fill="none" stroke="rgb(0, 0, 0)" stroke-opacity="1.0" stroke-linecap="round" stroke-linejoin="round"/>
    <path d="M 181.2788848876953 125.28652954101562 C 168.63221740722656 118.62385559082031 166.76153564453125 87.61345672607422 152.40328979492188 108.27909851074219" stroke-width="3.0" fill="none" stroke="rgb(0, 0, 0)" stroke-opacity="1.0" stroke-linecap="round" stroke-linejoin="round"/>
    <path d="M 116.55670928955078 142.77975463867188 C 146.3748321533203 92.32701110839844 134.9254913330078 85.90216064453125 114.80738830566406 124.81846618652344" stroke-width="3.0" fill="none" stroke="rgb(0, 0, 0)" stroke-opacity="1.0" stroke-linecap="round" stroke-linejoin="round"/>
    <path d="M 57.84862518310547 75.76168060302734 C 100.53462982177734 122.38282775878906 85.04070281982422 129.01976013183594 70.84223175048828 79.5267562866211" stroke-width="3.0" fill="none" stroke="rgb(0, 0, 0)" stroke-opacity="1.0" stroke-linecap="round" stroke-linejoin="round"/>
    <path d="M 128.93795776367188 112.79307556152344 C 145.6886749267578 128.25543212890625 128.999267578125 111.70699310302734 127.23297882080078 134.84263610839844" stroke-width="3.0" fill="none" stroke="rgb(0, 0, 0)" stroke-opacity="1.0" stroke-linecap="round" stroke-linejoin="round"/>
    <path d="M 70.38159942626953 96.70137786865234 C 115.17320251464844 104.81407928466797 96.75364685058594 87.90190124511719 69.6220474243164 97.99297332763672" stroke-width="3.0" fill="none" stroke="rgb(0, 0, 0)" stroke-opacity="1.0" stroke-linecap="round" stroke-linejoin="round"/>
    <path d="M 123.70673370361328 120.65880584716797 C 134.21768188476562 147.11257934570312 122.09843444824219 115.34697723388672 117.4444580078125 104.37763977050781" stroke-width="3.0" fill="none" stroke="rgb(0, 0, 0)" stroke-opacity="1.0" stroke-linecap="round" stroke-linejoin="round"/>
    <path d="M 78.10881805419922 85.51265716552734 C 31.49945068359375 89.16405487060547 69.47906494140625 62.10041809082031 84.3740234375 90.03147888183594" stroke-width="3.0" fill="none" stroke="rgb(0, 0, 0)" stroke-opacity="1.0" stroke-linecap="round" stroke-linejoin="round"/>
    <path d="M 109.38653564453125 105.45663452148438 C 108.96249389648438 162.00941467285156 152.5528106689453 119.95767974853516 123.51366424560547 130.6094512939453" stroke-width="3.0" fill="none" stroke="rgb(0, 0, 0)" stroke-opacity="1.0" stroke-linecap="round" stroke-linejoin="round"/>
    <path d="M 110.21954345703125 131.5560760498047 C 132.13037109375 95.15836334228516 135.2196502685547 120.59990692138672 112.87399291992188 123.67420196533203" stroke-width="3.0" fill="none" stroke="rgb(0, 0, 0)" stroke-opacity="1.0" stroke-linecap="round" stroke-linejoin="round"/>
    <path d="M 140.3878936767578 150.99497985839844 C 143.58282470703125 133.92205810546875 161.44955444335938 110.59519958496094 133.58670043945312 111.67133331298828" stroke-width="3.0" fill="none" stroke="rgb(0, 0, 0)" stroke-opacity="1.0" stroke-linecap="round" stroke-linejoin="round"/>
    <path d="M 106.32479095458984 109.57984924316406 C 147.8942108154297 171.6342315673828 169.52667236328125 115.50281524658203 111.90934753417969 173.31704711914062" stroke-width="3.0" fill="none" stroke="rgb(0, 0, 0)" stroke-opacity="1.0" stroke-linecap="round" stroke-linejoin="round"/>
    <path d="M 201.01080322265625 131.18043518066406 C 153.7786865234375 124.07550048828125 144.02212524414062 97.1923828125 183.04049682617188 128.2546844482422" stroke-width="3.0" fill="none" stroke="rgb(0, 0, 0)" stroke-opacity="1.0" stroke-linecap="round" stroke-linejoin="round"/>
    <path d="M 128.3339385986328 127.13939666748047 C 91.29696655273438 93.9955825805664 157.1016845703125 88.16898345947266 143.3280792236328 123.0877456665039" stroke-width="3.0" fill="none" stroke="rgb(0, 0, 0)" stroke-opacity="1.0" stroke-linecap="round" stroke-linejoin="round"/>
    <path d="M 75.73212432861328 83.53528594970703 C 40.404232025146484 60.47471237182617 71.67391967773438 86.28448486328125 79.98377227783203 132.2725067138672" stroke-width="3.0" fill="none" stroke="rgb(0, 0, 0)" stroke-opacity="1.0" stroke-linecap="round" stroke-linejoin="round"/>
    <path d="M 74.87142181396484 130.04470825195312 C 160.43145751953125 144.3927001953125 111.67318725585938 142.09927368164062 98.48486328125 121.56938171386719" stroke-width="3.0" fill="none" stroke="rgb(0, 0, 0)" stroke-opacity="1.0" stroke-linecap="round" stroke-linejoin="round"/>
    <path d="M 59.07202911376953 73.13272094726562 C 112.15082550048828 70.19192504882812 89.03466796875 135.96893310546875 70.4797134399414 86.4855728149414" stroke-width="3.0" fill="none" stroke="rgb(0, 0, 0)" stroke-opacity="1.0" stroke-linecap="round" stroke-linejoin="round"/>
    <path d="M 137.0569610595703 132.31216430664062 C 124.62198638916016 119.98558807373047 126.03214263916016 87.07599639892578 120.72071838378906 136.65203857421875" stroke-width="3.0" fill="none" stroke="rgb(0, 0, 0)" stroke-opacity="1.0" stroke-linecap="round" stroke-linejoin="round"/>
    <path d="M 156.90647888183594 101.53938293457031 C 183.8765411376953 132.59930419921875 206.51873779296875 136.92115783691406 157.9795379638672 101.21623229980469" stroke-width="3.0" fill="none" stroke="rgb(0, 0, 0)" stroke-opacity="1.0" stroke-linecap="round" stroke-linejoin="round"/>
    <path d="M 39.58043670654297 90.80384063720703 C 62.921165466308594 106.59899139404297 56.60948944091797 62.94107437133789 87.24993896484375 95.52001953125" stroke-width="3.0" fill="none" stroke="rgb(0, 0, 0)" stroke-opacity="1.0" stroke-linecap="round" stroke-linejoin="round"/>
    <path d="M 59.462711334228516 71.98067474365234 C 43.89530944824219 113.33853912353516 36.55222702026367 84.17631530761719 59.04057693481445 83.5263671875" stroke-width="3.0" fill="none" stroke="rgb(0, 0, 0)" stroke-opacity="1.0" stroke-linecap="round" stroke-linejoin="round"/>
  </g>
</svg>
