<?xml version="1.0" ?>
<svg xmlns="http://www.w3.org/2000/svg" version="1.1" width="224" height="224">
  <defs/>
  <g>
    <path d="M 127.79366302490234 115.015869140625 C 89.88017272949219 102.96663665771484 93.23304748535156 106.05103302001953 134.36813354492188 101.98527526855469" stroke-width="3.0" fill="none" stroke="rgb(0, 0, 0)" stroke-opacity="1.0" stroke-linecap="round" stroke-linejoin="round"/>
    <path d="M 162.44915771484375 108.8373031616211 C 158.6090545654297 129.04144287109375 221.9764862060547 126.84359741210938 195.2386474609375 131.36643981933594" stroke-width="3.0" fill="none" stroke="rgb(0, 0, 0)" stroke-opacity="1.0" stroke-linecap="round" stroke-linejoin="round"/>
    <path d="M 144.46424865722656 127.64561462402344 C 137.57554626464844 94.46662902832031 126.92659759521484 117.37491607666016 152.22470092773438 143.5454864501953" stroke-width="3.0" fill="none" stroke="rgb(0, 0, 0)" stroke-opacity="1.0" stroke-linecap="round" stroke-linejoin="round"/>
    <path d="M 137.20362854003906 129.7879180908203 C 123.04826354980469 96.90583801269531 112.73150634765625 118.99557495117188 159.46524047851562 104.41667938232422" stroke-width="3.0" fill="none" stroke="rgb(0, 0, 0)" stroke-opacity="1.0" stroke-linecap="round" stroke-linejoin="round"/>
    <path d="M 130.825439453125 116.7154312133789 C 126.53826904296875 101.62110137939453 83.3547134399414 96.20393371582031 71.234130859375 130.090087890625" stroke-width="3.0" fill="none" stroke="rgb(0, 0, 0)" stroke-opacity="1.0" stroke-linecap="round" stroke-linejoin="round"/>
    <path d="M 134.2754669189453 104.72810363769531 C 142.38104248046875 116.685791015625 154.39169311523438 110.94176483154297 132.22459411621094 102.01272583007812" stroke-width="3.0" fill="none" stroke="rgb(0, 0, 0)" stroke-opacity="1.0" stroke-linecap="round" stroke-linejoin="round"/>
    <path d="M 83.65652465820312 132.44386291503906 C 51.99469757080078 113.88685607910156 93.24040985107422 119.17423248291016 60.58684158325195 82.6581802368164" stroke-width="3.0" fill="none" stroke="rgb(0, 0, 0)" stroke-opacity="1.0" stroke-linecap="round" stroke-linejoin="round"/>
    <path d="M 152.39466857910156 141.9500274658203 C 106.12833404541016 140.55096435546875 213.6276092529297 156.8551788330078 142.55767822265625 140.2165069580078" stroke-width="3.0" fill="none" stroke="rgb(0, 0, 0)" stroke-opacity="1.0" stroke-linecap="round" stroke-linejoin="round"/>
    <path d="M 181.41671752929688 161.58766174316406 C 188.5938720703125 142.50286865234375 190.9381866455078 174.727294921875 163.42611694335938 144.91604614257812" stroke-width="3.0" fill="none" stroke="rgb(0, 0, 0)" stroke-opacity="1.0" stroke-linecap="round" stroke-linejoin="round"/>
    <path d="M 145.76004028320312 119.15386199951172 C 126.40448760986328 90.98038482666016 133.9451904296875 112.82032775878906 118.24674987792969 134.7427978515625" stroke-width="3.0" fill="none" stroke="rgb(0, 0, 0)" stroke-opacity="1.0" stroke-linecap="round" stroke-linejoin="round"/>
    <path d="M 129.89859008789062 142.92271423339844 C 141.96124267578125 116.7928695678711 160.98927307128906 114.27896881103516 144.33602905273438 136.60003662109375" stroke-width="3.0" fill="none" stroke="rgb(0, 0, 0)" stroke-opacity="1.0" stroke-linecap="round" stroke-linejoin="round"/>
    <path d="M 136.6535186767578 104.8540267944336 C 102.59407806396484 103.8033676147461 105.8871078491211 101.15560913085938 83.035400390625 104.68289184570312" stroke-width="3.0" fill="none" stroke="rgb(0, 0, 0)" stroke-opacity="1.0" stroke-linecap="round" stroke-linejoin="round"/>
    <path d="M 125.52692413330078 112.77035522460938 C 154.52011108398438 99.91525268554688 133.52716064453125 98.87870025634766 117.86691284179688 140.48190307617188" stroke-width="3.0" fill="none" stroke="rgb(0, 0, 0)" stroke-opacity="1.0" stroke-linecap="round" stroke-linejoin="round"/>
    <path d="M 100.29793548583984 149.4369354248047 C 140.83734130859375 141.2833251953125 155.30416870117188 92.1602554321289 129.83047485351562 159.290283203125" stroke-width="3.0" fill="none" stroke="rgb(0, 0, 0)" stroke-opacity="1.0" stroke-linecap="round" stroke-linejoin="round"/>
    <path d="M 75.91541290283203 85.13146209716797 C 30.96316146850586 72.7055892944336 39.35932159423828 94.7137680053711 64.28821563720703 85.46990966796875" stroke-width="3.0" fill="none" stroke="rgb(0, 0, 0)" stroke-opacity="1.0" stroke-linecap="round" stroke-linejoin="round"/>
    <path d="M 54.29390335083008 70.62770080566406 C 60.62764358520508 89.41191101074219 74.32774353027344 67.68318176269531 80.05697631835938 106.10655212402344" stroke-width="3.0" fill="none" stroke="rgb(0, 0, 0)" stroke-opacity="1.0" stroke-linecap="round" stroke-linejoin="round"/>
    <path d="M 77.21988677978516 84.83712768554688 C 57.12417221069336 70.67276000976562 42.785377502441406 92.3530502319336 65.19598388671875 82.96508026123047" stroke-width="3.0" fill="none" stroke="rgb(0, 0, 0)" stroke-opacity="1.0" stroke-linecap="round" stroke-linejoin="round"/>
    <path d="M 63.17010498046875 140.23843383789062 C 86.16368865966797 115.30242919921875 82.82598114013672 142.9890594482422 97.57097625732422 122.98353576660156" stroke-width="3.0" fill="none" stroke="rgb(0, 0, 0)" stroke-opacity="1.0" stroke-linecap="round" stroke-linejoin="round"/>
    <path d="M 129.45050048828125 102.88068389892578 C 154.59976196289062 141.71530151367188 154.7718505859375 87.44987487792969 115.76573944091797 103.03707122802734" stroke-width="3.0" fill="none" stroke="rgb(0, 0, 0)" stroke-opacity="1.0" stroke-linecap="round" stroke-linejoin="round"/>
    <path d="M 132.64801025390625 135.57521057128906 C 145.90911865234375 179.7935333251953 118.85863494873047 139.8721160888672 132.1557159423828 103.92581176757812" stroke-width="3.0" fill="none" stroke="rgb(0, 0, 0)" stroke-opacity="1.0" stroke-linecap="round" stroke-linejoin="round"/>
    <path d="M 99.41170501708984 149.3739013671875 C 87.65918731689453 163.31973266601562 129.55686950683594 168.93797302246094 100.87872314453125 168.73599243164062" stroke-width="3.0" fill="none" stroke="rgb(0, 0, 0)" stroke-opacity="1.0" stroke-linecap="round" stroke-linejoin="round"/>
    <path d="M 69.36734008789062 139.9086151123047 C 140.50241088867188 132.95236206054688 132.049560546875 141.87057495117188 138.38616943359375 116.3077163696289" stroke-width="3.0" fill="none" stroke="rgb(0, 0, 0)" stroke-opacity="1.0" stroke-linecap="round" stroke-linejoin="round"/>
    <path d="M 138.5436553955078 110.29100036621094 C 83.30072784423828 110.08665466308594 101.26554870605469 86.38085174560547 74.35536193847656 112.3294677734375" stroke-width="3.0" fill="none" stroke="rgb(0, 0, 0)" stroke-opacity="1.0" stroke-linecap="round" stroke-linejoin="round"/>
    <path d="M 144.5059356689453 110.82723236083984 C 153.53439331054688 140.8935546875 134.85316467285156 126.17111206054688 140.8273162841797 113.8145980834961" stroke-width="3.0" fill="none" stroke="rgb(0, 0, 0)" stroke-opacity="1.0" stroke-linecap="round" stroke-linejoin="round"/>
    <path d="M 58.220550537109375 76.45602416992188 C 41.51256561279297 79.92847442626953 71.21224212646484 76.44649505615234 96.91290283203125 106.92234802246094" stroke-width="3.0" fill="none" stroke="rgb(0, 0, 0)" stroke-opacity="1.0" stroke-linecap="round" stroke-linejoin="round"/>
    <path d="M 93.66629028320312 138.08233642578125 C 113.51962280273438 128.44908142089844 90.78031158447266 132.7256317138672 96.28361511230469 127.30622100830078" stroke-width="3.0" fill="none" stroke="rgb(0, 0, 0)" stroke-opacity="1.0" stroke-linecap="round" stroke-linejoin="round"/>
    <path d="M 59.842185974121094 69.5536880493164 C 22.383724212646484 101.8641586303711 36.02851486206055 108.50175476074219 55.25454330444336 71.43206787109375" stroke-width="3.0" fill="none" stroke="rgb(0, 0, 0)" stroke-opacity="1.0" stroke-linecap="round" stroke-linejoin="round"/>
    <path d="M 83.28651428222656 167.81927490234375 C 95.71097564697266 158.76751708984375 31.791183471679688 139.4888916015625 79.40959167480469 128.6813201904297" stroke-width="3.0" fill="none" stroke="rgb(0, 0, 0)" stroke-opacity="1.0" stroke-linecap="round" stroke-linejoin="round"/>
    <path d="M 183.05043029785156 120.85144805908203 C 165.69027709960938 110.90380859375 163.4253692626953 87.85227966308594 147.80943298339844 105.05561065673828" stroke-width="3.0" fill="none" stroke="rgb(0, 0, 0)" stroke-opacity="1.0" stroke-linecap="round" stroke-linejoin="round"/>
    <path d="M 120.54103088378906 139.2395782470703 C 138.25872802734375 103.40836334228516 132.96934509277344 97.10028076171875 127.94849395751953 137.94671630859375" stroke-width="3.0" fill="none" stroke="rgb(0, 0, 0)" stroke-opacity="1.0" stroke-linecap="round" stroke-linejoin="round"/>
    <path d="M 63.812744140625 79.43958282470703 C 101.6275405883789 103.9594497680664 60.49325180053711 114.60103607177734 86.86034393310547 93.6373291015625" stroke-width="3.0" fill="none" stroke="rgb(0, 0, 0)" stroke-opacity="1.0" stroke-linecap="round" stroke-linejoin="round"/>
    <path d="M 131.3515625 117.07588195800781 C 144.5205535888672 144.72607421875 121.6002197265625 133.6525421142578 116.37574005126953 145.354736328125" stroke-width="3.0" fill="none" stroke="rgb(0, 0, 0)" stroke-opacity="1.0" stroke-linecap="round" stroke-linejoin="round"/>
    <path d="M 76.21710968017578 85.89203643798828 C 131.63412475585938 113.83905792236328 113.39803314208984 110.6169204711914 73.19631958007812 106.73377227783203" stroke-width="3.0" fill="none" stroke="rgb(0, 0, 0)" stroke-opacity="1.0" stroke-linecap="round" stroke-linejoin="round"/>
    <path d="M 131.94198608398438 112.82947540283203 C 146.91619873046875 148.4998321533203 127.30867767333984 131.29241943359375 123.17008972167969 104.4947738647461" stroke-width="3.0" fill="none" stroke="rgb(0, 0, 0)" stroke-opacity="1.0" stroke-linecap="round" stroke-linejoin="round"/>
    <path d="M 58.78815460205078 78.34620666503906 C 31.09784698486328 104.72882843017578 66.48180389404297 83.1670150756836 70.00858306884766 85.58468627929688" stroke-width="3.0" fill="none" stroke="rgb(0, 0, 0)" stroke-opacity="1.0" stroke-linecap="round" stroke-linejoin="round"/>
    <path d="M 122.9122314453125 103.47793579101562 C 141.920654296875 127.61119842529297 164.5767364501953 105.39864349365234 129.9301300048828 134.8470001220703" stroke-width="3.0" fill="none" stroke="rgb(0, 0, 0)" stroke-opacity="1.0" stroke-linecap="round" stroke-linejoin="round"/>
    <path d="M 120.68756866455078 141.76327514648438 C 151.5129852294922 119.7142562866211 137.47610473632812 131.8773956298828 118.92987823486328 126.69718933105469" stroke-width="3.0" fill="none" stroke="rgb(0, 0, 0)" stroke-opacity="1.0" stroke-linecap="round" stroke-linejoin="round"/>
    <path d="M 146.69033813476562 121.11149597167969 C 129.723388671875 121.40861511230469 143.3562774658203 102.48738098144531 144.61367797851562 119.0038833618164" stroke-width="3.0" fill="none" stroke="rgb(0, 0, 0)" stroke-opacity="1.0" stroke-linecap="round" stroke-linejoin="round"/>
    <path d="M 131.8271026611328 107.89686584472656 C 135.22634887695312 185.52056884765625 157.9951629638672 131.89869689941406 108.82548522949219 174.1116180419922" stroke-width="3.0" fill="none" stroke="rgb(0, 0, 0)" stroke-opacity="1.0" stroke-linecap="round" stroke-linejoin="round"/>
    <path d="M 201.9288787841797 131.63641357421875 C 163.3213348388672 125.19220733642578 143.56105041503906 90.7123031616211 184.48831176757812 122.81352996826172" stroke-width="3.0" fill="none" stroke="rgb(0, 0, 0)" stroke-opacity="1.0" stroke-linecap="round" stroke-linejoin="round"/>
    <path d="M 138.2696533203125 115.94398498535156 C 106.85554504394531 93.71949768066406 154.989990234375 95.99585723876953 149.8639678955078 122.41499328613281" stroke-width="3.0" fill="none" stroke="rgb(0, 0, 0)" stroke-opacity="1.0" stroke-linecap="round" stroke-linejoin="round"/>
    <path d="M 63.883697509765625 83.62687683105469 C 44.342891693115234 76.732177734375 79.48123168945312 86.232177734375 73.93766784667969 120.58154296875" stroke-width="3.0" fill="none" stroke="rgb(0, 0, 0)" stroke-opacity="1.0" stroke-linecap="round" stroke-linejoin="round"/>
    <path d="M 75.48544311523438 134.78944396972656 C 135.7823486328125 142.09722900390625 97.98397827148438 144.5853271484375 96.35340881347656 118.978515625" stroke-width="3.0" fill="none" stroke="rgb(0, 0, 0)" stroke-opacity="1.0" stroke-linecap="round" stroke-linejoin="round"/>
    <path d="M 60.483123779296875 71.8910140991211 C 97.06603240966797 67.3154067993164 101.27759552001953 120.2179183959961 81.57384490966797 81.45469665527344" stroke-width="3.0" fill="none" stroke="rgb(0, 0, 0)" stroke-opacity="1.0" stroke-linecap="round" stroke-linejoin="round"/>
    <path d="M 138.8439178466797 119.88294219970703 C 150.18838500976562 127.43726348876953 140.5166015625 112.59100341796875 114.86282348632812 132.29701232910156" stroke-width="3.0" fill="none" stroke="rgb(0, 0, 0)" stroke-opacity="1.0" stroke-linecap="round" stroke-linejoin="round"/>
    <path d="M 155.835693359375 101.6321029663086 C 186.45933532714844 127.34656524658203 199.8328094482422 141.616943359375 167.125732421875 105.11238861083984" stroke-width="3.0" fill="none" stroke="rgb(0, 0, 0)" stroke-opacity="1.0" stroke-linecap="round" stroke-linejoin="round"/>
    <path d="M 43.12928771972656 92.45547485351562 C 51.71595764160156 101.09530639648438 50.80632400512695 87.5712661743164 70.29391479492188 79.44264221191406" stroke-width="3.0" fill="none" stroke="rgb(0, 0, 0)" stroke-opacity="1.0" stroke-linecap="round" stroke-linejoin="round"/>
    <path d="M 63.1701545715332 73.96881103515625 C 46.84178161621094 109.41946411132812 49.98551940917969 86.0855484008789 61.40602493286133 76.11653137207031" stroke-width="3.0" fill="none" stroke="rgb(0, 0, 0)" stroke-opacity="1.0" stroke-linecap="round" stroke-linejoin="round"/>
  </g>
</svg>
