<?xml version="1.0" ?>
<svg xmlns="http://www.w3.org/2000/svg" version="1.1" width="224" height="224">
  <defs/>
  <g>
    <path d="M 135.44406127929688 114.5615005493164 C 100.06752014160156 88.32722473144531 86.05879974365234 108.91922760009766 135.5501251220703 105.01607513427734" stroke-width="3.0" fill="none" stroke="rgb(0, 0, 0)" stroke-opacity="1.0" stroke-linecap="round" stroke-linejoin="round"/>
    <path d="M 173.04019165039062 116.35717010498047 C 159.3411407470703 132.47447204589844 222.79208374023438 129.23915100097656 188.70970153808594 124.082275390625" stroke-width="3.0" fill="none" stroke="rgb(0, 0, 0)" stroke-opacity="1.0" stroke-linecap="round" stroke-linejoin="round"/>
    <path d="M 126.80247497558594 136.75372314453125 C 119.39004516601562 83.10626983642578 124.33438110351562 109.9446792602539 157.56980895996094 143.32501220703125" stroke-width="3.0" fill="none" stroke="rgb(0, 0, 0)" stroke-opacity="1.0" stroke-linecap="round" stroke-linejoin="round"/>
    <path d="M 130.30413818359375 134.8955841064453 C 132.00164794921875 82.2369613647461 119.52830505371094 123.02381896972656 156.8572998046875 103.96109008789062" stroke-width="3.0" fill="none" stroke="rgb(0, 0, 0)" stroke-opacity="1.0" stroke-linecap="round" stroke-linejoin="round"/>
    <path d="M 128.2352752685547 122.79955291748047 C 126.24752044677734 97.78268432617188 68.97611999511719 83.82969665527344 75.22712707519531 130.21597290039062" stroke-width="3.0" fill="none" stroke="rgb(0, 0, 0)" stroke-opacity="1.0" stroke-linecap="round" stroke-linejoin="round"/>
    <path d="M 137.26495361328125 117.76060485839844 C 145.95330810546875 126.47994995117188 155.00498962402344 106.51644134521484 133.52651977539062 100.70892333984375" stroke-width="3.0" fill="none" stroke="rgb(0, 0, 0)" stroke-opacity="1.0" stroke-linecap="round" stroke-linejoin="round"/>
    <path d="M 86.58985900878906 134.072021484375 C 48.74885177612305 112.45953369140625 101.30924224853516 118.08513641357422 58.48521041870117 77.26847839355469" stroke-width="3.0" fill="none" stroke="rgb(0, 0, 0)" stroke-opacity="1.0" stroke-linecap="round" stroke-linejoin="round"/>
    <path d="M 142.41810607910156 114.9359359741211 C 94.58232116699219 140.4005889892578 213.6360626220703 156.10340881347656 143.40225219726562 137.131591796875" stroke-width="3.0" fill="none" stroke="rgb(0, 0, 0)" stroke-opacity="1.0" stroke-linecap="round" stroke-linejoin="round"/>
    <path d="M 184.78732299804688 163.73724365234375 C 182.73822021484375 145.9330596923828 197.2794647216797 176.4876708984375 164.46388244628906 145.70135498046875" stroke-width="3.0" fill="none" stroke="rgb(0, 0, 0)" stroke-opacity="1.0" stroke-linecap="round" stroke-linejoin="round"/>
    <path d="M 144.9568328857422 131.04615783691406 C 142.8233184814453 79.26455688476562 144.1527862548828 112.12542724609375 116.25899505615234 143.01394653320312" stroke-width="3.0" fill="none" stroke="rgb(0, 0, 0)" stroke-opacity="1.0" stroke-linecap="round" stroke-linejoin="round"/>
    <path d="M 136.90333557128906 146.62208557128906 C 157.71559143066406 121.84991455078125 157.704833984375 105.57080841064453 141.42181396484375 139.2119903564453" stroke-width="3.0" fill="none" stroke="rgb(0, 0, 0)" stroke-opacity="1.0" stroke-linecap="round" stroke-linejoin="round"/>
    <path d="M 135.26171875 100.6490707397461 C 90.04388427734375 105.14883422851562 84.12313079833984 92.0756607055664 85.7000961303711 83.41446685791016" stroke-width="3.0" fill="none" stroke="rgb(0, 0, 0)" stroke-opacity="1.0" stroke-linecap="round" stroke-linejoin="round"/>
    <path d="M 107.73089599609375 103.46759796142578 C 140.24876403808594 105.17501831054688 128.11790466308594 94.01923370361328 123.64578247070312 138.0370330810547" stroke-width="3.0" fill="none" stroke="rgb(0, 0, 0)" stroke-opacity="1.0" stroke-linecap="round" stroke-linejoin="round"/>
    <path d="M 98.70056915283203 148.29379272460938 C 151.94676208496094 142.72357177734375 139.2717742919922 85.851318359375 135.15626525878906 156.92372131347656" stroke-width="3.0" fill="none" stroke="rgb(0, 0, 0)" stroke-opacity="1.0" stroke-linecap="round" stroke-linejoin="round"/>
    <path d="M 75.9110107421875 89.0781478881836 C 30.60248565673828 77.82112884521484 38.166561126708984 101.85794067382812 52.992679595947266 79.65298461914062" stroke-width="3.0" fill="none" stroke="rgb(0, 0, 0)" stroke-opacity="1.0" stroke-linecap="round" stroke-linejoin="round"/>
    <path d="M 56.86335372924805 70.88369750976562 C 70.62986755371094 93.44808197021484 77.6428451538086 60.44319534301758 84.67141723632812 102.86323547363281" stroke-width="3.0" fill="none" stroke="rgb(0, 0, 0)" stroke-opacity="1.0" stroke-linecap="round" stroke-linejoin="round"/>
    <path d="M 90.59847259521484 100.0804443359375 C 60.804500579833984 68.54936981201172 37.247886657714844 79.68018341064453 79.02034759521484 94.05628204345703" stroke-width="3.0" fill="none" stroke="rgb(0, 0, 0)" stroke-opacity="1.0" stroke-linecap="round" stroke-linejoin="round"/>
    <path d="M 72.656005859375 148.44332885742188 C 63.287994384765625 130.75184631347656 94.40961456298828 148.02830505371094 89.63494873046875 130.6172332763672" stroke-width="3.0" fill="none" stroke="rgb(0, 0, 0)" stroke-opacity="1.0" stroke-linecap="round" stroke-linejoin="round"/>
    <path d="M 126.0633544921875 103.50102233886719 C 146.42965698242188 146.75543212890625 164.55459594726562 86.41365051269531 112.42204284667969 101.23711395263672" stroke-width="3.0" fill="none" stroke="rgb(0, 0, 0)" stroke-opacity="1.0" stroke-linecap="round" stroke-linejoin="round"/>
    <path d="M 127.37334442138672 125.3344497680664 C 145.94375610351562 194.57730102539062 136.6644744873047 134.29444885253906 137.31288146972656 102.95311737060547" stroke-width="3.0" fill="none" stroke="rgb(0, 0, 0)" stroke-opacity="1.0" stroke-linecap="round" stroke-linejoin="round"/>
    <path d="M 97.46058654785156 148.9560546875 C 85.28658294677734 170.18966674804688 122.50111389160156 167.13433837890625 106.90562438964844 173.622802734375" stroke-width="3.0" fill="none" stroke="rgb(0, 0, 0)" stroke-opacity="1.0" stroke-linecap="round" stroke-linejoin="round"/>
    <path d="M 79.39732360839844 135.5267791748047 C 153.90240478515625 135.09104919433594 142.390380859375 138.6479034423828 142.55587768554688 116.16160583496094" stroke-width="3.0" fill="none" stroke="rgb(0, 0, 0)" stroke-opacity="1.0" stroke-linecap="round" stroke-linejoin="round"/>
    <path d="M 146.2272491455078 110.14839935302734 C 91.46282196044922 109.01167297363281 105.041015625 76.610107421875 71.7994384765625 119.9712905883789" stroke-width="3.0" fill="none" stroke="rgb(0, 0, 0)" stroke-opacity="1.0" stroke-linecap="round" stroke-linejoin="round"/>
    <path d="M 138.99327087402344 103.50627899169922 C 154.4160919189453 139.4813690185547 122.02464294433594 153.33843994140625 141.38197326660156 123.00084686279297" stroke-width="3.0" fill="none" stroke="rgb(0, 0, 0)" stroke-opacity="1.0" stroke-linecap="round" stroke-linejoin="round"/>
    <path d="M 78.91571044921875 89.20514678955078 C 34.20419692993164 58.58451843261719 57.91224670410156 72.72574615478516 77.27591705322266 108.4807357788086" stroke-width="3.0" fill="none" stroke="rgb(0, 0, 0)" stroke-opacity="1.0" stroke-linecap="round" stroke-linejoin="round"/>
    <path d="M 76.55067443847656 135.3592987060547 C 120.92139434814453 139.59947204589844 94.5815658569336 133.6936492919922 90.58796691894531 124.92446899414062" stroke-width="3.0" fill="none" stroke="rgb(0, 0, 0)" stroke-opacity="1.0" stroke-linecap="round" stroke-linejoin="round"/>
    <path d="M 53.369728088378906 78.10299682617188 C 27.962129592895508 102.00602722167969 41.39694595336914 107.00775146484375 54.720489501953125 78.54625701904297" stroke-width="3.0" fill="none" stroke="rgb(0, 0, 0)" stroke-opacity="1.0" stroke-linecap="round" stroke-linejoin="round"/>
    <path d="M 82.75691223144531 172.36920166015625 C 92.77892303466797 156.95985412597656 28.505815505981445 139.50515747070312 76.43111419677734 129.32748413085938" stroke-width="3.0" fill="none" stroke="rgb(0, 0, 0)" stroke-opacity="1.0" stroke-linecap="round" stroke-linejoin="round"/>
    <path d="M 172.92807006835938 120.21127319335938 C 171.74478149414062 109.08169555664062 156.6190948486328 87.77130126953125 153.32875061035156 108.60961151123047" stroke-width="3.0" fill="none" stroke="rgb(0, 0, 0)" stroke-opacity="1.0" stroke-linecap="round" stroke-linejoin="round"/>
    <path d="M 113.14037322998047 143.9840545654297 C 143.74215698242188 98.9577407836914 136.55442810058594 98.62479400634766 120.59544372558594 141.38552856445312" stroke-width="3.0" fill="none" stroke="rgb(0, 0, 0)" stroke-opacity="1.0" stroke-linecap="round" stroke-linejoin="round"/>
    <path d="M 54.544517517089844 80.10889434814453 C 106.4326400756836 109.97837829589844 73.29167175292969 116.60443878173828 73.90481567382812 80.32228088378906" stroke-width="3.0" fill="none" stroke="rgb(0, 0, 0)" stroke-opacity="1.0" stroke-linecap="round" stroke-linejoin="round"/>
    <path d="M 135.09764099121094 109.61807250976562 C 141.3150177001953 128.05616760253906 119.1878890991211 113.47295379638672 120.128173828125 133.89720153808594" stroke-width="3.0" fill="none" stroke="rgb(0, 0, 0)" stroke-opacity="1.0" stroke-linecap="round" stroke-linejoin="round"/>
    <path d="M 70.42830657958984 96.5818862915039 C 118.45556640625 103.20585632324219 105.8851547241211 91.116455078125 73.25518798828125 103.08885192871094" stroke-width="3.0" fill="none" stroke="rgb(0, 0, 0)" stroke-opacity="1.0" stroke-linecap="round" stroke-linejoin="round"/>
    <path d="M 138.2417755126953 108.53643798828125 C 159.94189453125 139.89332580566406 135.98876953125 121.12281799316406 131.7206268310547 101.61345672607422" stroke-width="3.0" fill="none" stroke="rgb(0, 0, 0)" stroke-opacity="1.0" stroke-linecap="round" stroke-linejoin="round"/>
    <path d="M 73.2796630859375 81.22001647949219 C 24.168941497802734 107.58568572998047 55.46249771118164 76.48291778564453 77.1524658203125 88.886474609375" stroke-width="3.0" fill="none" stroke="rgb(0, 0, 0)" stroke-opacity="1.0" stroke-linecap="round" stroke-linejoin="round"/>
    <path d="M 124.81642150878906 103.41449737548828 C 128.0760498046875 152.322021484375 158.44595336914062 113.19185638427734 132.88417053222656 131.59381103515625" stroke-width="3.0" fill="none" stroke="rgb(0, 0, 0)" stroke-opacity="1.0" stroke-linecap="round" stroke-linejoin="round"/>
    <path d="M 117.94713592529297 141.92465209960938 C 139.67413330078125 106.42903900146484 125.50116729736328 126.47821044921875 113.5133285522461 132.24960327148438" stroke-width="3.0" fill="none" stroke="rgb(0, 0, 0)" stroke-opacity="1.0" stroke-linecap="round" stroke-linejoin="round"/>
    <path d="M 139.14517211914062 136.1693878173828 C 143.2683563232422 129.93617248535156 160.51708984375 105.08662414550781 140.48226928710938 117.59190368652344" stroke-width="3.0" fill="none" stroke="rgb(0, 0, 0)" stroke-opacity="1.0" stroke-linecap="round" stroke-linejoin="round"/>
    <path d="M 120.10531616210938 102.73624420166016 C 142.94223022460938 188.5138397216797 166.68096923828125 127.23094940185547 112.40340423583984 174.93765258789062" stroke-width="3.0" fill="none" stroke="rgb(0, 0, 0)" stroke-opacity="1.0" stroke-linecap="round" stroke-linejoin="round"/>
    <path d="M 202.37518310546875 131.30982971191406 C 152.76292419433594 123.2544174194336 144.3112030029297 82.86884307861328 188.6163787841797 128.75926208496094" stroke-width="3.0" fill="none" stroke="rgb(0, 0, 0)" stroke-opacity="1.0" stroke-linecap="round" stroke-linejoin="round"/>
    <path d="M 143.3995361328125 116.75520324707031 C 104.66658020019531 97.06734466552734 160.21434020996094 97.84141540527344 146.12246704101562 122.9404296875" stroke-width="3.0" fill="none" stroke="rgb(0, 0, 0)" stroke-opacity="1.0" stroke-linecap="round" stroke-linejoin="round"/>
    <path d="M 59.594459533691406 86.4676742553711 C 44.589115142822266 65.37467956542969 77.93846893310547 82.91563415527344 76.85216522216797 135.11534118652344" stroke-width="3.0" fill="none" stroke="rgb(0, 0, 0)" stroke-opacity="1.0" stroke-linecap="round" stroke-linejoin="round"/>
    <path d="M 69.70317840576172 132.77220153808594 C 162.53675842285156 131.8600311279297 105.0440444946289 145.57447814941406 90.32154083251953 127.57559204101562" stroke-width="3.0" fill="none" stroke="rgb(0, 0, 0)" stroke-opacity="1.0" stroke-linecap="round" stroke-linejoin="round"/>
    <path d="M 61.032588958740234 73.03539276123047 C 100.4012680053711 69.17420196533203 95.99764251708984 130.1505584716797 76.6470718383789 84.00763702392578" stroke-width="3.0" fill="none" stroke="rgb(0, 0, 0)" stroke-opacity="1.0" stroke-linecap="round" stroke-linejoin="round"/>
    <path d="M 133.57249450683594 124.92017364501953 C 139.41140747070312 124.67411804199219 134.33407592773438 97.78807830810547 116.2274398803711 132.97853088378906" stroke-width="3.0" fill="none" stroke="rgb(0, 0, 0)" stroke-opacity="1.0" stroke-linecap="round" stroke-linejoin="round"/>
    <path d="M 160.0474395751953 101.79729461669922 C 186.11448669433594 128.0239715576172 198.12820434570312 144.34156799316406 155.80474853515625 102.71633911132812" stroke-width="3.0" fill="none" stroke="rgb(0, 0, 0)" stroke-opacity="1.0" stroke-linecap="round" stroke-linejoin="round"/>
    <path d="M 42.63230895996094 91.08911895751953 C 67.5688705444336 99.4973373413086 56.80015182495117 67.46514129638672 76.92610168457031 83.64886474609375" stroke-width="3.0" fill="none" stroke="rgb(0, 0, 0)" stroke-opacity="1.0" stroke-linecap="round" stroke-linejoin="round"/>
    <path d="M 61.63482666015625 71.14910125732422 C 34.86128616333008 101.84068298339844 40.32632827758789 87.46577453613281 60.721343994140625 86.43158721923828" stroke-width="3.0" fill="none" stroke="rgb(0, 0, 0)" stroke-opacity="1.0" stroke-linecap="round" stroke-linejoin="round"/>
  </g>
</svg>
