<?xml version="1.0" ?>
<svg xmlns="http://www.w3.org/2000/svg" version="1.1" width="224" height="224">
  <defs/>
  <g>
    <path d="M 128.82296752929688 112.6984634399414 C 96.76969909667969 95.9655990600586 97.9576187133789 105.40383911132812 134.34596252441406 103.23358917236328" stroke-width="3.0" fill="none" stroke="rgb(0, 0, 0)" stroke-opacity="1.0" stroke-linecap="round" stroke-linejoin="round"/>
    <path d="M 162.244140625 106.8515853881836 C 157.84046936035156 128.73243713378906 221.5556182861328 128.07896423339844 195.74705505371094 130.5882110595703" stroke-width="3.0" fill="none" stroke="rgb(0, 0, 0)" stroke-opacity="1.0" stroke-linecap="round" stroke-linejoin="round"/>
    <path d="M 142.37200927734375 128.51161193847656 C 137.80039978027344 94.87854766845703 126.40569305419922 119.99388122558594 150.65785217285156 144.70510864257812" stroke-width="3.0" fill="none" stroke="rgb(0, 0, 0)" stroke-opacity="1.0" stroke-linecap="round" stroke-linejoin="round"/>
    <path d="M 138.21685791015625 129.2339630126953 C 121.65570831298828 98.39278411865234 110.43868255615234 117.10375213623047 157.19432067871094 104.05146789550781" stroke-width="3.0" fill="none" stroke="rgb(0, 0, 0)" stroke-opacity="1.0" stroke-linecap="round" stroke-linejoin="round"/>
    <path d="M 127.65630340576172 118.54633331298828 C 120.87165832519531 96.63108825683594 83.83358764648438 90.74330139160156 73.05223846435547 130.29922485351562" stroke-width="3.0" fill="none" stroke="rgb(0, 0, 0)" stroke-opacity="1.0" stroke-linecap="round" stroke-linejoin="round"/>
    <path d="M 134.75682067871094 105.49778747558594 C 140.837158203125 119.97467041015625 153.89236450195312 112.1594009399414 132.1651611328125 102.66927337646484" stroke-width="3.0" fill="none" stroke="rgb(0, 0, 0)" stroke-opacity="1.0" stroke-linecap="round" stroke-linejoin="round"/>
    <path d="M 82.5701904296875 134.66583251953125 C 51.52450180053711 110.3755111694336 94.71595001220703 117.71959686279297 61.771461486816406 82.45648193359375" stroke-width="3.0" fill="none" stroke="rgb(0, 0, 0)" stroke-opacity="1.0" stroke-linecap="round" stroke-linejoin="round"/>
    <path d="M 155.2554931640625 141.8780975341797 C 104.94657135009766 140.4576416015625 202.6563262939453 153.734130859375 143.1712188720703 139.44900512695312" stroke-width="3.0" fill="none" stroke="rgb(0, 0, 0)" stroke-opacity="1.0" stroke-linecap="round" stroke-linejoin="round"/>
    <path d="M 179.2099151611328 161.7752227783203 C 185.2998046875 142.31568908691406 188.87039184570312 171.6429443359375 163.35154724121094 145.78822326660156" stroke-width="3.0" fill="none" stroke="rgb(0, 0, 0)" stroke-opacity="1.0" stroke-linecap="round" stroke-linejoin="round"/>
    <path d="M 152.56329345703125 112.8912582397461 C 132.3638153076172 85.08539581298828 134.40994262695312 109.84333038330078 118.30748748779297 128.1290283203125" stroke-width="3.0" fill="none" stroke="rgb(0, 0, 0)" stroke-opacity="1.0" stroke-linecap="round" stroke-linejoin="round"/>
    <path d="M 132.06869506835938 143.32359313964844 C 144.02880859375 120.172607421875 159.6111602783203 114.65982055664062 139.49319458007812 137.10711669921875" stroke-width="3.0" fill="none" stroke="rgb(0, 0, 0)" stroke-opacity="1.0" stroke-linecap="round" stroke-linejoin="round"/>
    <path d="M 135.83778381347656 103.18849182128906 C 103.0992202758789 100.90826416015625 110.19338989257812 102.80475616455078 84.35834503173828 108.59673309326172" stroke-width="3.0" fill="none" stroke="rgb(0, 0, 0)" stroke-opacity="1.0" stroke-linecap="round" stroke-linejoin="round"/>
    <path d="M 125.18292999267578 113.23363494873047 C 155.28358459472656 100.84693908691406 135.03558349609375 99.97441101074219 119.23371124267578 142.17999267578125" stroke-width="3.0" fill="none" stroke="rgb(0, 0, 0)" stroke-opacity="1.0" stroke-linecap="round" stroke-linejoin="round"/>
    <path d="M 100.07881927490234 149.8143768310547 C 141.90237426757812 142.38046264648438 153.20343017578125 92.13331604003906 129.8943328857422 157.25225830078125" stroke-width="3.0" fill="none" stroke="rgb(0, 0, 0)" stroke-opacity="1.0" stroke-linecap="round" stroke-linejoin="round"/>
    <path d="M 76.4417953491211 84.26851654052734 C 30.07480812072754 73.73692321777344 39.526912689208984 91.93086242675781 64.3783187866211 83.9288558959961" stroke-width="3.0" fill="none" stroke="rgb(0, 0, 0)" stroke-opacity="1.0" stroke-linecap="round" stroke-linejoin="round"/>
    <path d="M 55.55332565307617 70.82787322998047 C 63.28324890136719 86.99739074707031 78.86402893066406 66.1457290649414 83.59732055664062 103.75856018066406" stroke-width="3.0" fill="none" stroke="rgb(0, 0, 0)" stroke-opacity="1.0" stroke-linecap="round" stroke-linejoin="round"/>
    <path d="M 74.28170776367188 84.72013854980469 C 57.72489547729492 70.5721206665039 44.32063293457031 94.2042007446289 65.78565216064453 85.38034057617188" stroke-width="3.0" fill="none" stroke="rgb(0, 0, 0)" stroke-opacity="1.0" stroke-linecap="round" stroke-linejoin="round"/>
    <path d="M 63.98432159423828 142.34625244140625 C 84.45455932617188 120.58773803710938 77.06970977783203 148.93948364257812 96.82879638671875 122.9347152709961" stroke-width="3.0" fill="none" stroke="rgb(0, 0, 0)" stroke-opacity="1.0" stroke-linecap="round" stroke-linejoin="round"/>
    <path d="M 130.81625366210938 102.27631378173828 C 156.17724609375 139.02752685546875 155.5559844970703 86.63038635253906 117.05850982666016 102.11412048339844" stroke-width="3.0" fill="none" stroke="rgb(0, 0, 0)" stroke-opacity="1.0" stroke-linecap="round" stroke-linejoin="round"/>
    <path d="M 131.5918731689453 136.87188720703125 C 143.95053100585938 184.0681610107422 120.14017486572266 142.71139526367188 137.41087341308594 104.39425659179688" stroke-width="3.0" fill="none" stroke="rgb(0, 0, 0)" stroke-opacity="1.0" stroke-linecap="round" stroke-linejoin="round"/>
    <path d="M 98.06707763671875 149.49905395507812 C 82.51739501953125 163.8115692138672 123.38076782226562 165.68467712402344 99.38430786132812 168.51751708984375" stroke-width="3.0" fill="none" stroke="rgb(0, 0, 0)" stroke-opacity="1.0" stroke-linecap="round" stroke-linejoin="round"/>
    <path d="M 69.95220184326172 131.97410583496094 C 137.02557373046875 127.97997283935547 130.70680236816406 139.60585021972656 138.58319091796875 115.49512481689453" stroke-width="3.0" fill="none" stroke="rgb(0, 0, 0)" stroke-opacity="1.0" stroke-linecap="round" stroke-linejoin="round"/>
    <path d="M 140.05177307128906 107.36360931396484 C 89.46156311035156 107.33035278320312 101.09945678710938 88.49797058105469 73.62918090820312 111.7293930053711" stroke-width="3.0" fill="none" stroke="rgb(0, 0, 0)" stroke-opacity="1.0" stroke-linecap="round" stroke-linejoin="round"/>
    <path d="M 142.94232177734375 110.49031829833984 C 150.31036376953125 140.47113037109375 135.82469177246094 125.5787353515625 143.16680908203125 114.88800048828125" stroke-width="3.0" fill="none" stroke="rgb(0, 0, 0)" stroke-opacity="1.0" stroke-linecap="round" stroke-linejoin="round"/>
    <path d="M 59.26689147949219 77.75650787353516 C 40.577796936035156 81.07025909423828 69.85237884521484 77.90186309814453 94.8519058227539 108.63102722167969" stroke-width="3.0" fill="none" stroke="rgb(0, 0, 0)" stroke-opacity="1.0" stroke-linecap="round" stroke-linejoin="round"/>
    <path d="M 95.15544891357422 128.68402099609375 C 110.7295150756836 128.3020782470703 89.66674041748047 136.444091796875 99.64572143554688 124.54287719726562" stroke-width="3.0" fill="none" stroke="rgb(0, 0, 0)" stroke-opacity="1.0" stroke-linecap="round" stroke-linejoin="round"/>
    <path d="M 61.19343948364258 72.09566497802734 C 23.854097366333008 101.28102111816406 36.00535583496094 105.20913696289062 57.113529205322266 72.85992431640625" stroke-width="3.0" fill="none" stroke="rgb(0, 0, 0)" stroke-opacity="1.0" stroke-linecap="round" stroke-linejoin="round"/>
    <path d="M 83.83567810058594 174.72100830078125 C 95.87185668945312 155.89491271972656 30.707733154296875 141.10784912109375 78.42211151123047 130.56915283203125" stroke-width="3.0" fill="none" stroke="rgb(0, 0, 0)" stroke-opacity="1.0" stroke-linecap="round" stroke-linejoin="round"/>
    <path d="M 182.76486206054688 124.18427276611328 C 162.07803344726562 117.91706848144531 158.9261474609375 90.9630355834961 148.41659545898438 107.25067901611328" stroke-width="3.0" fill="none" stroke="rgb(0, 0, 0)" stroke-opacity="1.0" stroke-linecap="round" stroke-linejoin="round"/>
    <path d="M 121.88823699951172 132.39218139648438 C 139.27029418945312 103.6306381225586 133.95761108398438 97.33721923828125 130.3928680419922 137.9905242919922" stroke-width="3.0" fill="none" stroke="rgb(0, 0, 0)" stroke-opacity="1.0" stroke-linecap="round" stroke-linejoin="round"/>
    <path d="M 62.24512481689453 78.02594757080078 C 95.00881958007812 105.00617980957031 56.119266510009766 117.3072509765625 92.2959213256836 98.15863800048828" stroke-width="3.0" fill="none" stroke="rgb(0, 0, 0)" stroke-opacity="1.0" stroke-linecap="round" stroke-linejoin="round"/>
    <path d="M 131.2115020751953 116.62732696533203 C 143.5409393310547 143.9204864501953 116.62084197998047 131.67250061035156 117.59297943115234 142.4082489013672" stroke-width="3.0" fill="none" stroke="rgb(0, 0, 0)" stroke-opacity="1.0" stroke-linecap="round" stroke-linejoin="round"/>
    <path d="M 75.52875518798828 93.52734375 C 130.56912231445312 119.10747528076172 118.5586929321289 108.92532348632812 87.14193725585938 91.47941589355469" stroke-width="3.0" fill="none" stroke="rgb(0, 0, 0)" stroke-opacity="1.0" stroke-linecap="round" stroke-linejoin="round"/>
    <path d="M 130.42198181152344 112.85706329345703 C 144.33163452148438 148.00233459472656 127.68668365478516 130.77101135253906 126.06673431396484 104.19741821289062" stroke-width="3.0" fill="none" stroke="rgb(0, 0, 0)" stroke-opacity="1.0" stroke-linecap="round" stroke-linejoin="round"/>
    <path d="M 61.41025924682617 79.7684555053711 C 35.5149040222168 107.23550415039062 65.61268615722656 82.30419921875 68.7222671508789 83.73531341552734" stroke-width="3.0" fill="none" stroke="rgb(0, 0, 0)" stroke-opacity="1.0" stroke-linecap="round" stroke-linejoin="round"/>
    <path d="M 120.61705017089844 106.58699035644531 C 142.53575134277344 128.0552215576172 166.60870361328125 107.1823501586914 131.8453369140625 136.8310546875" stroke-width="3.0" fill="none" stroke="rgb(0, 0, 0)" stroke-opacity="1.0" stroke-linecap="round" stroke-linejoin="round"/>
    <path d="M 114.7078628540039 129.87828063964844 C 149.37136840820312 112.80133819580078 137.92454528808594 134.3192901611328 118.80526733398438 131.44288635253906" stroke-width="3.0" fill="none" stroke="rgb(0, 0, 0)" stroke-opacity="1.0" stroke-linecap="round" stroke-linejoin="round"/>
    <path d="M 150.2239227294922 117.57926940917969 C 127.21663665771484 117.13124084472656 141.8645782470703 98.62466430664062 153.13243103027344 120.32345581054688" stroke-width="3.0" fill="none" stroke="rgb(0, 0, 0)" stroke-opacity="1.0" stroke-linecap="round" stroke-linejoin="round"/>
    <path d="M 133.77809143066406 108.92897033691406 C 133.3569793701172 184.9203338623047 152.83518981933594 134.123779296875 108.44161987304688 175.49404907226562" stroke-width="3.0" fill="none" stroke="rgb(0, 0, 0)" stroke-opacity="1.0" stroke-linecap="round" stroke-linejoin="round"/>
    <path d="M 201.720947265625 133.27378845214844 C 162.5954132080078 125.47811889648438 145.33592224121094 90.53233337402344 180.49899291992188 127.02909088134766" stroke-width="3.0" fill="none" stroke="rgb(0, 0, 0)" stroke-opacity="1.0" stroke-linecap="round" stroke-linejoin="round"/>
    <path d="M 136.09153747558594 115.9859848022461 C 103.50772094726562 93.23588562011719 155.18624877929688 95.58024597167969 151.54507446289062 124.04617309570312" stroke-width="3.0" fill="none" stroke="rgb(0, 0, 0)" stroke-opacity="1.0" stroke-linecap="round" stroke-linejoin="round"/>
    <path d="M 63.77893829345703 83.57902526855469 C 43.16468048095703 78.54395294189453 79.00479888916016 88.17647552490234 73.99038696289062 122.4730224609375" stroke-width="3.0" fill="none" stroke="rgb(0, 0, 0)" stroke-opacity="1.0" stroke-linecap="round" stroke-linejoin="round"/>
    <path d="M 81.41754150390625 134.81500244140625 C 137.3064727783203 135.64920043945312 102.20240783691406 137.9853515625 94.55531311035156 121.74292755126953" stroke-width="3.0" fill="none" stroke="rgb(0, 0, 0)" stroke-opacity="1.0" stroke-linecap="round" stroke-linejoin="round"/>
    <path d="M 58.621376037597656 73.65735626220703 C 97.17060852050781 68.33743286132812 101.45659637451172 120.30786895751953 72.9862289428711 84.4719467163086" stroke-width="3.0" fill="none" stroke="rgb(0, 0, 0)" stroke-opacity="1.0" stroke-linecap="round" stroke-linejoin="round"/>
    <path d="M 139.37069702148438 119.60285186767578 C 150.37571716308594 127.01215362548828 140.69715881347656 111.0135269165039 115.39286041259766 132.32574462890625" stroke-width="3.0" fill="none" stroke="rgb(0, 0, 0)" stroke-opacity="1.0" stroke-linecap="round" stroke-linejoin="round"/>
    <path d="M 154.23007202148438 104.28434753417969 C 190.5583953857422 122.7568130493164 200.5196533203125 140.11082458496094 167.35556030273438 107.38493347167969" stroke-width="3.0" fill="none" stroke="rgb(0, 0, 0)" stroke-opacity="1.0" stroke-linecap="round" stroke-linejoin="round"/>
    <path d="M 41.44379806518555 91.39102935791016 C 55.24069595336914 97.92375946044922 53.63545608520508 87.89283752441406 69.52587890625 78.87532806396484" stroke-width="3.0" fill="none" stroke="rgb(0, 0, 0)" stroke-opacity="1.0" stroke-linecap="round" stroke-linejoin="round"/>
    <path d="M 60.788753509521484 73.72587585449219 C 39.48802185058594 103.87330627441406 50.570926666259766 86.02560424804688 61.14082336425781 76.33484649658203" stroke-width="3.0" fill="none" stroke="rgb(0, 0, 0)" stroke-opacity="1.0" stroke-linecap="round" stroke-linejoin="round"/>
  </g>
</svg>
