<?xml version="1.0" ?>
<svg xmlns="http://www.w3.org/2000/svg" version="1.1" width="224" height="224">
  <defs/>
  <g>
    <path d="M 141.13368225097656 119.67251586914062 C 105.18323516845703 91.23847198486328 86.59886169433594 128.60992431640625 137.58868408203125 110.7868423461914" stroke-width="3.0" fill="none" stroke="rgb(0, 0, 0)" stroke-opacity="1.0" stroke-linecap="round" stroke-linejoin="round"/>
    <path d="M 161.0133819580078 108.04785919189453 C 170.43788146972656 136.91033935546875 246.4361572265625 144.2131805419922 186.00985717773438 128.6331787109375" stroke-width="3.0" fill="none" stroke="rgb(0, 0, 0)" stroke-opacity="1.0" stroke-linecap="round" stroke-linejoin="round"/>
    <path d="M 130.57888793945312 134.72183227539062 C 124.95438385009766 79.5343246459961 121.90819549560547 117.79849243164062 155.814697265625 142.62518310546875" stroke-width="3.0" fill="none" stroke="rgb(0, 0, 0)" stroke-opacity="1.0" stroke-linecap="round" stroke-linejoin="round"/>
    <path d="M 124.60107421875 133.72731018066406 C 130.267578125 74.40255737304688 114.32050323486328 120.8372573852539 159.6751251220703 102.58028411865234" stroke-width="3.0" fill="none" stroke="rgb(0, 0, 0)" stroke-opacity="1.0" stroke-linecap="round" stroke-linejoin="round"/>
    <path d="M 108.6544189453125 123.99982452392578 C 120.4273681640625 102.48409271240234 71.05463409423828 82.99797821044922 76.3650131225586 127.9697265625" stroke-width="3.0" fill="none" stroke="rgb(0, 0, 0)" stroke-opacity="1.0" stroke-linecap="round" stroke-linejoin="round"/>
    <path d="M 115.33952331542969 133.04470825195312 C 134.26499938964844 140.70001220703125 141.54986572265625 102.41421508789062 128.35252380371094 105.33273315429688" stroke-width="3.0" fill="none" stroke="rgb(0, 0, 0)" stroke-opacity="1.0" stroke-linecap="round" stroke-linejoin="round"/>
    <path d="M 81.13127899169922 130.46719360351562 C 51.624637603759766 115.53970336914062 111.55328369140625 85.50116729736328 49.959693908691406 84.81194305419922" stroke-width="3.0" fill="none" stroke="rgb(0, 0, 0)" stroke-opacity="1.0" stroke-linecap="round" stroke-linejoin="round"/>
    <path d="M 134.5574493408203 111.61959838867188 C 116.16866302490234 150.49476623535156 210.6169891357422 152.22837829589844 141.89466857910156 138.2825164794922" stroke-width="3.0" fill="none" stroke="rgb(0, 0, 0)" stroke-opacity="1.0" stroke-linecap="round" stroke-linejoin="round"/>
    <path d="M 180.6325225830078 162.10159301757812 C 182.34182739257812 148.6219024658203 203.2763671875 184.4991455078125 160.1265106201172 141.8074951171875" stroke-width="3.0" fill="none" stroke="rgb(0, 0, 0)" stroke-opacity="1.0" stroke-linecap="round" stroke-linejoin="round"/>
    <path d="M 133.7259979248047 138.49497985839844 C 130.0763397216797 78.25657653808594 146.48318481445312 112.85345458984375 114.31964874267578 132.92523193359375" stroke-width="3.0" fill="none" stroke="rgb(0, 0, 0)" stroke-opacity="1.0" stroke-linecap="round" stroke-linejoin="round"/>
    <path d="M 134.63539123535156 155.1052703857422 C 152.90020751953125 120.1160888671875 156.1640625 91.4236831665039 136.19737243652344 138.8007354736328" stroke-width="3.0" fill="none" stroke="rgb(0, 0, 0)" stroke-opacity="1.0" stroke-linecap="round" stroke-linejoin="round"/>
    <path d="M 139.79136657714844 111.67928314208984 C 90.8275146484375 104.109375 86.17023468017578 95.26917266845703 67.18038940429688 82.83596801757812" stroke-width="3.0" fill="none" stroke="rgb(0, 0, 0)" stroke-opacity="1.0" stroke-linecap="round" stroke-linejoin="round"/>
    <path d="M 96.66412353515625 99.24237060546875 C 135.4795684814453 112.64790344238281 114.82672882080078 81.11333465576172 114.1521987915039 129.28799438476562" stroke-width="3.0" fill="none" stroke="rgb(0, 0, 0)" stroke-opacity="1.0" stroke-linecap="round" stroke-linejoin="round"/>
    <path d="M 97.78971099853516 149.4578399658203 C 144.2253875732422 143.7509765625 136.54830932617188 80.65167236328125 132.2441864013672 155.72628784179688" stroke-width="3.0" fill="none" stroke="rgb(0, 0, 0)" stroke-opacity="1.0" stroke-linecap="round" stroke-linejoin="round"/>
    <path d="M 80.47932434082031 90.68783569335938 C 45.50347900390625 67.49342346191406 50.00517654418945 110.09818267822266 59.02185821533203 81.62702941894531" stroke-width="3.0" fill="none" stroke="rgb(0, 0, 0)" stroke-opacity="1.0" stroke-linecap="round" stroke-linejoin="round"/>
    <path d="M 56.225772857666016 70.90780639648438 C 73.55582427978516 86.42860412597656 80.15080261230469 70.35112762451172 86.1222152709961 109.18306732177734" stroke-width="3.0" fill="none" stroke="rgb(0, 0, 0)" stroke-opacity="1.0" stroke-linecap="round" stroke-linejoin="round"/>
    <path d="M 87.3807144165039 98.08157348632812 C 48.00260925292969 80.78211212158203 22.210689544677734 77.46559143066406 74.9584732055664 80.17577362060547" stroke-width="3.0" fill="none" stroke="rgb(0, 0, 0)" stroke-opacity="1.0" stroke-linecap="round" stroke-linejoin="round"/>
    <path d="M 78.33055877685547 162.6974334716797 C 38.09408950805664 119.38385772705078 76.1092529296875 149.25961303710938 99.10882568359375 121.32676696777344" stroke-width="3.0" fill="none" stroke="rgb(0, 0, 0)" stroke-opacity="1.0" stroke-linecap="round" stroke-linejoin="round"/>
    <path d="M 137.70819091796875 100.31586456298828 C 150.26519775390625 142.29116821289062 152.52442932128906 87.05941009521484 101.30888366699219 106.15670013427734" stroke-width="3.0" fill="none" stroke="rgb(0, 0, 0)" stroke-opacity="1.0" stroke-linecap="round" stroke-linejoin="round"/>
    <path d="M 126.24136352539062 114.73180389404297 C 140.077880859375 187.75404357910156 150.56292724609375 107.25184631347656 126.92852783203125 103.85042572021484" stroke-width="3.0" fill="none" stroke="rgb(0, 0, 0)" stroke-opacity="1.0" stroke-linecap="round" stroke-linejoin="round"/>
    <path d="M 97.83716583251953 149.28512573242188 C 83.85321044921875 170.6009979248047 126.6957015991211 166.71311950683594 101.6825180053711 171.26170349121094" stroke-width="3.0" fill="none" stroke="rgb(0, 0, 0)" stroke-opacity="1.0" stroke-linecap="round" stroke-linejoin="round"/>
    <path d="M 74.02352142333984 127.14103698730469 C 145.36231994628906 135.73468017578125 138.10745239257812 131.51229858398438 150.4835205078125 123.6200180053711" stroke-width="3.0" fill="none" stroke="rgb(0, 0, 0)" stroke-opacity="1.0" stroke-linecap="round" stroke-linejoin="round"/>
    <path d="M 131.4962921142578 104.50890350341797 C 84.04350280761719 114.6872787475586 107.4130630493164 80.27570343017578 72.135009765625 121.74283599853516" stroke-width="3.0" fill="none" stroke="rgb(0, 0, 0)" stroke-opacity="1.0" stroke-linecap="round" stroke-linejoin="round"/>
    <path d="M 138.78334045410156 111.06495666503906 C 151.05679321289062 116.4291763305664 119.75939178466797 149.37741088867188 148.85057067871094 140.8435516357422" stroke-width="3.0" fill="none" stroke="rgb(0, 0, 0)" stroke-opacity="1.0" stroke-linecap="round" stroke-linejoin="round"/>
    <path d="M 81.05596160888672 111.70610046386719 C 38.2865104675293 60.28046417236328 56.411434173583984 74.10295104980469 77.58671569824219 98.19145202636719" stroke-width="3.0" fill="none" stroke="rgb(0, 0, 0)" stroke-opacity="1.0" stroke-linecap="round" stroke-linejoin="round"/>
    <path d="M 73.49166107177734 120.73585510253906 C 123.38203430175781 135.95497131347656 99.09553527832031 139.75921630859375 95.93037414550781 119.95924377441406" stroke-width="3.0" fill="none" stroke="rgb(0, 0, 0)" stroke-opacity="1.0" stroke-linecap="round" stroke-linejoin="round"/>
    <path d="M 57.188777923583984 72.06710052490234 C 23.90131378173828 106.34272003173828 41.50173568725586 108.86978149414062 58.530250549316406 75.65108489990234" stroke-width="3.0" fill="none" stroke="rgb(0, 0, 0)" stroke-opacity="1.0" stroke-linecap="round" stroke-linejoin="round"/>
    <path d="M 81.6706771850586 168.19558715820312 C 90.0612564086914 153.9633026123047 29.270544052124023 147.3055877685547 93.19152069091797 122.34441375732422" stroke-width="3.0" fill="none" stroke="rgb(0, 0, 0)" stroke-opacity="1.0" stroke-linecap="round" stroke-linejoin="round"/>
    <path d="M 181.41383361816406 124.64771270751953 C 169.9806365966797 118.50358581542969 164.8462371826172 85.09188079833984 151.0857391357422 107.72032165527344" stroke-width="3.0" fill="none" stroke="rgb(0, 0, 0)" stroke-opacity="1.0" stroke-linecap="round" stroke-linejoin="round"/>
    <path d="M 112.19062042236328 147.55813598632812 C 152.1174774169922 92.17024230957031 141.38442993164062 87.45728302001953 116.21643829345703 127.1641616821289" stroke-width="3.0" fill="none" stroke="rgb(0, 0, 0)" stroke-opacity="1.0" stroke-linecap="round" stroke-linejoin="round"/>
    <path d="M 57.08985900878906 74.0227279663086 C 98.59691619873047 123.30747985839844 86.60883331298828 127.71406555175781 75.54366302490234 78.95034790039062" stroke-width="3.0" fill="none" stroke="rgb(0, 0, 0)" stroke-opacity="1.0" stroke-linecap="round" stroke-linejoin="round"/>
    <path d="M 129.37840270996094 112.16787719726562 C 145.96141052246094 128.4080047607422 129.47523498535156 112.01593780517578 126.9044189453125 134.9601287841797" stroke-width="3.0" fill="none" stroke="rgb(0, 0, 0)" stroke-opacity="1.0" stroke-linecap="round" stroke-linejoin="round"/>
    <path d="M 73.09156799316406 100.09638214111328 C 115.13521575927734 106.7979736328125 97.23136901855469 89.88859558105469 71.20271301269531 93.06790161132812" stroke-width="3.0" fill="none" stroke="rgb(0, 0, 0)" stroke-opacity="1.0" stroke-linecap="round" stroke-linejoin="round"/>
    <path d="M 125.39202880859375 118.73828125 C 132.24972534179688 148.00726318359375 118.98892974853516 116.98235321044922 116.9416732788086 105.55377197265625" stroke-width="3.0" fill="none" stroke="rgb(0, 0, 0)" stroke-opacity="1.0" stroke-linecap="round" stroke-linejoin="round"/>
    <path d="M 72.22907257080078 84.34089660644531 C 26.83539390563965 88.03343963623047 71.37418365478516 57.9965934753418 86.36126708984375 91.69983673095703" stroke-width="3.0" fill="none" stroke="rgb(0, 0, 0)" stroke-opacity="1.0" stroke-linecap="round" stroke-linejoin="round"/>
    <path d="M 113.88487243652344 105.74653625488281 C 101.49944305419922 167.71041870117188 147.1489715576172 120.75436401367188 122.78604125976562 130.3213348388672" stroke-width="3.0" fill="none" stroke="rgb(0, 0, 0)" stroke-opacity="1.0" stroke-linecap="round" stroke-linejoin="round"/>
    <path d="M 107.62382507324219 125.88664245605469 C 130.9415283203125 93.5709457397461 133.574462890625 118.43560028076172 110.77776336669922 121.76126098632812" stroke-width="3.0" fill="none" stroke="rgb(0, 0, 0)" stroke-opacity="1.0" stroke-linecap="round" stroke-linejoin="round"/>
    <path d="M 139.03929138183594 150.09262084960938 C 145.67312622070312 134.47607421875 168.419189453125 110.37850952148438 134.89683532714844 106.03327941894531" stroke-width="3.0" fill="none" stroke="rgb(0, 0, 0)" stroke-opacity="1.0" stroke-linecap="round" stroke-linejoin="round"/>
    <path d="M 102.59393310546875 107.22522735595703 C 145.70542907714844 167.02969360351562 169.77137756347656 116.10710906982422 109.88412475585938 174.2761688232422" stroke-width="3.0" fill="none" stroke="rgb(0, 0, 0)" stroke-opacity="1.0" stroke-linecap="round" stroke-linejoin="round"/>
    <path d="M 199.99595642089844 130.21078491210938 C 153.5318603515625 122.60108947753906 144.7982635498047 92.78773498535156 184.7960205078125 128.6533660888672" stroke-width="3.0" fill="none" stroke="rgb(0, 0, 0)" stroke-opacity="1.0" stroke-linecap="round" stroke-linejoin="round"/>
    <path d="M 126.84603118896484 127.24263763427734 C 92.07299041748047 94.19212341308594 162.6313934326172 85.499755859375 143.0370330810547 126.75459289550781" stroke-width="3.0" fill="none" stroke="rgb(0, 0, 0)" stroke-opacity="1.0" stroke-linecap="round" stroke-linejoin="round"/>
    <path d="M 74.21652221679688 92.44293975830078 C 39.70653533935547 67.22221374511719 71.45502471923828 86.7496109008789 82.7217788696289 131.59088134765625" stroke-width="3.0" fill="none" stroke="rgb(0, 0, 0)" stroke-opacity="1.0" stroke-linecap="round" stroke-linejoin="round"/>
    <path d="M 73.69993591308594 130.03656005859375 C 162.8878631591797 139.88951110839844 106.79672241210938 145.15878295898438 97.82600402832031 120.5135269165039" stroke-width="3.0" fill="none" stroke="rgb(0, 0, 0)" stroke-opacity="1.0" stroke-linecap="round" stroke-linejoin="round"/>
    <path d="M 59.054542541503906 72.40100860595703 C 110.11000061035156 70.43479919433594 87.2721176147461 139.08389282226562 65.64140319824219 86.67030334472656" stroke-width="3.0" fill="none" stroke="rgb(0, 0, 0)" stroke-opacity="1.0" stroke-linecap="round" stroke-linejoin="round"/>
    <path d="M 142.93646240234375 130.98529052734375 C 125.5661392211914 120.22738647460938 129.89796447753906 87.53874206542969 121.41796112060547 137.00790405273438" stroke-width="3.0" fill="none" stroke="rgb(0, 0, 0)" stroke-opacity="1.0" stroke-linecap="round" stroke-linejoin="round"/>
    <path d="M 157.22030639648438 102.68675994873047 C 186.00657653808594 129.66519165039062 204.83905029296875 137.63868713378906 158.97622680664062 101.71440887451172" stroke-width="3.0" fill="none" stroke="rgb(0, 0, 0)" stroke-opacity="1.0" stroke-linecap="round" stroke-linejoin="round"/>
    <path d="M 50.80756378173828 88.20589447021484 C 62.01019287109375 100.45160675048828 51.7661018371582 67.35820770263672 84.31887817382812 99.70899963378906" stroke-width="3.0" fill="none" stroke="rgb(0, 0, 0)" stroke-opacity="1.0" stroke-linecap="round" stroke-linejoin="round"/>
    <path d="M 59.60354232788086 74.7146987915039 C 44.88714599609375 114.75639343261719 31.8513240814209 85.48326873779297 58.5596809387207 84.98497009277344" stroke-width="3.0" fill="none" stroke="rgb(0, 0, 0)" stroke-opacity="1.0" stroke-linecap="round" stroke-linejoin="round"/>
  </g>
</svg>
