<?xml version="1.0" ?>
<svg xmlns="http://www.w3.org/2000/svg" version="1.1" width="224" height="224">
  <defs/>
  <g>
    <path d="M 143.90335083007812 123.90929412841797 C 110.47843170166016 99.76436614990234 99.01081848144531 132.09786987304688 141.8156280517578 105.80734252929688" stroke-width="3.0" fill="none" stroke="rgb(0, 0, 0)" stroke-opacity="1.0" stroke-linecap="round" stroke-linejoin="round"/>
    <path d="M 153.13406372070312 106.81143188476562 C 166.1126251220703 139.73114013671875 248.60214233398438 143.73361206054688 178.70065307617188 127.7347183227539" stroke-width="3.0" fill="none" stroke="rgb(0, 0, 0)" stroke-opacity="1.0" stroke-linecap="round" stroke-linejoin="round"/>
    <path d="M 139.37506103515625 128.1585693359375 C 128.1373748779297 77.5057144165039 114.40401458740234 124.08794403076172 159.82217407226562 144.6261749267578" stroke-width="3.0" fill="none" stroke="rgb(0, 0, 0)" stroke-opacity="1.0" stroke-linecap="round" stroke-linejoin="round"/>
    <path d="M 132.70895385742188 135.27896118164062 C 114.68309020996094 72.35152435302734 115.40376281738281 122.89073181152344 151.42800903320312 101.89614868164062" stroke-width="3.0" fill="none" stroke="rgb(0, 0, 0)" stroke-opacity="1.0" stroke-linecap="round" stroke-linejoin="round"/>
    <path d="M 117.18965911865234 125.25457000732422 C 114.49857330322266 97.86415100097656 67.55018615722656 78.21650695800781 75.78130340576172 133.8963623046875" stroke-width="3.0" fill="none" stroke="rgb(0, 0, 0)" stroke-opacity="1.0" stroke-linecap="round" stroke-linejoin="round"/>
    <path d="M 102.33445739746094 131.45326232910156 C 117.2815933227539 122.57689666748047 139.77146911621094 92.30620574951172 123.2920150756836 100.24718475341797" stroke-width="3.0" fill="none" stroke="rgb(0, 0, 0)" stroke-opacity="1.0" stroke-linecap="round" stroke-linejoin="round"/>
    <path d="M 80.88119506835938 127.10701751708984 C 51.09336471557617 128.49131774902344 124.10370635986328 80.75211334228516 47.73651885986328 78.74419403076172" stroke-width="3.0" fill="none" stroke="rgb(0, 0, 0)" stroke-opacity="1.0" stroke-linecap="round" stroke-linejoin="round"/>
    <path d="M 143.14007568359375 118.13605499267578 C 109.67789459228516 155.7865447998047 212.41000366210938 144.7856903076172 141.25360107421875 139.46502685546875" stroke-width="3.0" fill="none" stroke="rgb(0, 0, 0)" stroke-opacity="1.0" stroke-linecap="round" stroke-linejoin="round"/>
    <path d="M 176.13198852539062 159.6363067626953 C 183.5952606201172 150.4239501953125 199.3357391357422 181.4397735595703 166.07273864746094 146.4190673828125" stroke-width="3.0" fill="none" stroke="rgb(0, 0, 0)" stroke-opacity="1.0" stroke-linecap="round" stroke-linejoin="round"/>
    <path d="M 127.137939453125 130.98390197753906 C 123.580078125 79.7879867553711 150.612060546875 124.38609313964844 117.00347137451172 135.98257446289062" stroke-width="3.0" fill="none" stroke="rgb(0, 0, 0)" stroke-opacity="1.0" stroke-linecap="round" stroke-linejoin="round"/>
    <path d="M 135.9670867919922 155.44969177246094 C 151.14730834960938 121.07952117919922 145.26318359375 83.57742309570312 138.17440795898438 136.75494384765625" stroke-width="3.0" fill="none" stroke="rgb(0, 0, 0)" stroke-opacity="1.0" stroke-linecap="round" stroke-linejoin="round"/>
    <path d="M 136.95455932617188 110.825439453125 C 83.52135467529297 107.48408508300781 87.83708190917969 100.05619049072266 70.7834243774414 87.08208465576172" stroke-width="3.0" fill="none" stroke="rgb(0, 0, 0)" stroke-opacity="1.0" stroke-linecap="round" stroke-linejoin="round"/>
    <path d="M 95.93386840820312 103.18423461914062 C 145.3924560546875 102.1770248413086 132.7748565673828 96.12657928466797 126.49496459960938 135.95556640625" stroke-width="3.0" fill="none" stroke="rgb(0, 0, 0)" stroke-opacity="1.0" stroke-linecap="round" stroke-linejoin="round"/>
    <path d="M 97.56832122802734 150.06195068359375 C 144.5276336669922 143.79891967773438 141.7371826171875 78.77445983886719 132.37460327148438 154.37890625" stroke-width="3.0" fill="none" stroke="rgb(0, 0, 0)" stroke-opacity="1.0" stroke-linecap="round" stroke-linejoin="round"/>
    <path d="M 79.49339294433594 83.27538299560547 C 54.049720764160156 55.21816635131836 33.00596237182617 112.35343933105469 64.16409301757812 84.07341766357422" stroke-width="3.0" fill="none" stroke="rgb(0, 0, 0)" stroke-opacity="1.0" stroke-linecap="round" stroke-linejoin="round"/>
    <path d="M 56.8910026550293 72.88655090332031 C 63.564247131347656 93.81053161621094 77.40796661376953 71.95793151855469 78.12469482421875 104.70956420898438" stroke-width="3.0" fill="none" stroke="rgb(0, 0, 0)" stroke-opacity="1.0" stroke-linecap="round" stroke-linejoin="round"/>
    <path d="M 89.25104522705078 100.11617279052734 C 60.64890670776367 66.11759948730469 21.447153091430664 74.0016098022461 73.83920288085938 86.66377258300781" stroke-width="3.0" fill="none" stroke="rgb(0, 0, 0)" stroke-opacity="1.0" stroke-linecap="round" stroke-linejoin="round"/>
    <path d="M 80.38367462158203 164.15086364746094 C 32.49551010131836 113.70451354980469 84.25003051757812 157.88539123535156 98.3837661743164 120.89795684814453" stroke-width="3.0" fill="none" stroke="rgb(0, 0, 0)" stroke-opacity="1.0" stroke-linecap="round" stroke-linejoin="round"/>
    <path d="M 138.70297241210938 101.20753479003906 C 156.03964233398438 141.3589630126953 157.1254425048828 76.8904800415039 105.15697479248047 106.09308624267578" stroke-width="3.0" fill="none" stroke="rgb(0, 0, 0)" stroke-opacity="1.0" stroke-linecap="round" stroke-linejoin="round"/>
    <path d="M 132.65150451660156 113.48847198486328 C 131.8102569580078 198.53810119628906 150.01670837402344 104.73416900634766 131.4170684814453 98.8608169555664" stroke-width="3.0" fill="none" stroke="rgb(0, 0, 0)" stroke-opacity="1.0" stroke-linecap="round" stroke-linejoin="round"/>
    <path d="M 98.0317611694336 151.04818725585938 C 84.91134643554688 167.2760772705078 129.54345703125 160.45263671875 99.28113555908203 165.1240692138672" stroke-width="3.0" fill="none" stroke="rgb(0, 0, 0)" stroke-opacity="1.0" stroke-linecap="round" stroke-linejoin="round"/>
    <path d="M 79.0217514038086 134.39833068847656 C 126.7124252319336 137.3873291015625 137.34829711914062 118.66889953613281 146.06546020507812 112.62715148925781" stroke-width="3.0" fill="none" stroke="rgb(0, 0, 0)" stroke-opacity="1.0" stroke-linecap="round" stroke-linejoin="round"/>
    <path d="M 133.9566650390625 102.1575698852539 C 88.46875 116.15933227539062 105.530517578125 79.37191009521484 73.58011627197266 121.1421890258789" stroke-width="3.0" fill="none" stroke="rgb(0, 0, 0)" stroke-opacity="1.0" stroke-linecap="round" stroke-linejoin="round"/>
    <path d="M 145.13641357421875 104.95756530761719 C 161.74156188964844 112.72773742675781 118.22704315185547 151.4214630126953 143.343994140625 138.777587890625" stroke-width="3.0" fill="none" stroke="rgb(0, 0, 0)" stroke-opacity="1.0" stroke-linecap="round" stroke-linejoin="round"/>
    <path d="M 77.14720153808594 116.05276489257812 C 51.787052154541016 57.601383209228516 55.51826858520508 77.42189025878906 81.53648376464844 103.83296966552734" stroke-width="3.0" fill="none" stroke="rgb(0, 0, 0)" stroke-opacity="1.0" stroke-linecap="round" stroke-linejoin="round"/>
    <path d="M 77.5179672241211 121.69364166259766 C 126.26353454589844 140.55374145507812 107.75699615478516 133.6193084716797 94.40605926513672 121.06707763671875" stroke-width="3.0" fill="none" stroke="rgb(0, 0, 0)" stroke-opacity="1.0" stroke-linecap="round" stroke-linejoin="round"/>
    <path d="M 63.05362319946289 81.0152587890625 C 27.473041534423828 104.83683776855469 33.37278366088867 97.48371124267578 57.866241455078125 71.17474365234375" stroke-width="3.0" fill="none" stroke="rgb(0, 0, 0)" stroke-opacity="1.0" stroke-linecap="round" stroke-linejoin="round"/>
    <path d="M 85.60773468017578 173.1211395263672 C 98.27053833007812 153.61241149902344 28.124786376953125 150.6755828857422 92.89649200439453 123.06993103027344" stroke-width="3.0" fill="none" stroke="rgb(0, 0, 0)" stroke-opacity="1.0" stroke-linecap="round" stroke-linejoin="round"/>
    <path d="M 177.36619567871094 122.91970825195312 C 168.1365966796875 125.67646789550781 159.9498291015625 86.55582427978516 147.1181182861328 104.70820617675781" stroke-width="3.0" fill="none" stroke="rgb(0, 0, 0)" stroke-opacity="1.0" stroke-linecap="round" stroke-linejoin="round"/>
    <path d="M 112.50083923339844 140.40850830078125 C 166.37596130371094 107.67110443115234 146.33526611328125 98.90925598144531 114.74764251708984 139.7926788330078" stroke-width="3.0" fill="none" stroke="rgb(0, 0, 0)" stroke-opacity="1.0" stroke-linecap="round" stroke-linejoin="round"/>
    <path d="M 52.55948257446289 76.82149505615234 C 106.97911834716797 109.339599609375 94.5365219116211 115.40192413330078 64.00977325439453 82.5333023071289" stroke-width="3.0" fill="none" stroke="rgb(0, 0, 0)" stroke-opacity="1.0" stroke-linecap="round" stroke-linejoin="round"/>
    <path d="M 131.93807983398438 106.3526840209961 C 146.3969268798828 134.66607666015625 136.49244689941406 117.98564147949219 143.4098358154297 135.34767150878906" stroke-width="3.0" fill="none" stroke="rgb(0, 0, 0)" stroke-opacity="1.0" stroke-linecap="round" stroke-linejoin="round"/>
    <path d="M 70.80989837646484 99.26036834716797 C 130.86192321777344 112.51161193847656 109.65848541259766 97.30216979980469 79.18189239501953 107.52606201171875" stroke-width="3.0" fill="none" stroke="rgb(0, 0, 0)" stroke-opacity="1.0" stroke-linecap="round" stroke-linejoin="round"/>
    <path d="M 113.87429809570312 102.27754974365234 C 128.9149932861328 148.08999633789062 120.82017517089844 115.04302215576172 120.67388916015625 104.60421752929688" stroke-width="3.0" fill="none" stroke="rgb(0, 0, 0)" stroke-opacity="1.0" stroke-linecap="round" stroke-linejoin="round"/>
    <path d="M 75.30501556396484 81.85379791259766 C 19.080459594726562 100.05915832519531 74.68263244628906 60.58501052856445 86.71927642822266 99.59188842773438" stroke-width="3.0" fill="none" stroke="rgb(0, 0, 0)" stroke-opacity="1.0" stroke-linecap="round" stroke-linejoin="round"/>
    <path d="M 118.96286010742188 111.15108489990234 C 96.50804138183594 161.87918090820312 141.08712768554688 111.11507415771484 121.65487670898438 137.60629272460938" stroke-width="3.0" fill="none" stroke="rgb(0, 0, 0)" stroke-opacity="1.0" stroke-linecap="round" stroke-linejoin="round"/>
    <path d="M 108.81886291503906 131.23345947265625 C 137.46658325195312 101.89849090576172 130.22592163085938 126.10205841064453 109.87858581542969 110.26486206054688" stroke-width="3.0" fill="none" stroke="rgb(0, 0, 0)" stroke-opacity="1.0" stroke-linecap="round" stroke-linejoin="round"/>
    <path d="M 134.39193725585938 145.47679138183594 C 138.90211486816406 131.89752197265625 160.70578002929688 117.46208190917969 126.19755554199219 112.48685455322266" stroke-width="3.0" fill="none" stroke="rgb(0, 0, 0)" stroke-opacity="1.0" stroke-linecap="round" stroke-linejoin="round"/>
    <path d="M 104.53443908691406 102.52579498291016 C 145.57119750976562 151.43055725097656 172.94921875 116.28114318847656 108.54092407226562 176.7801055908203" stroke-width="3.0" fill="none" stroke="rgb(0, 0, 0)" stroke-opacity="1.0" stroke-linecap="round" stroke-linejoin="round"/>
    <path d="M 202.29464721679688 130.6021270751953 C 147.5194549560547 121.56428527832031 139.7124786376953 105.29864501953125 191.81924438476562 129.55831909179688" stroke-width="3.0" fill="none" stroke="rgb(0, 0, 0)" stroke-opacity="1.0" stroke-linecap="round" stroke-linejoin="round"/>
    <path d="M 119.78572082519531 134.59486389160156 C 85.2008285522461 98.79513549804688 175.4918670654297 92.80036926269531 145.93548583984375 130.0024871826172" stroke-width="3.0" fill="none" stroke="rgb(0, 0, 0)" stroke-opacity="1.0" stroke-linecap="round" stroke-linejoin="round"/>
    <path d="M 75.04620361328125 106.69772338867188 C 43.69192886352539 62.40829086303711 73.23936462402344 85.9764633178711 78.81709289550781 127.01720428466797" stroke-width="3.0" fill="none" stroke="rgb(0, 0, 0)" stroke-opacity="1.0" stroke-linecap="round" stroke-linejoin="round"/>
    <path d="M 73.76444244384766 128.07861328125 C 166.38584899902344 141.2703857421875 101.16700744628906 148.50794982910156 88.35773468017578 122.13994598388672" stroke-width="3.0" fill="none" stroke="rgb(0, 0, 0)" stroke-opacity="1.0" stroke-linecap="round" stroke-linejoin="round"/>
    <path d="M 54.86711883544922 72.27606201171875 C 113.92184448242188 74.42302703857422 87.85830688476562 144.3933868408203 67.27159118652344 85.96036529541016" stroke-width="3.0" fill="none" stroke="rgb(0, 0, 0)" stroke-opacity="1.0" stroke-linecap="round" stroke-linejoin="round"/>
    <path d="M 142.86572265625 122.38475799560547 C 141.12899780273438 110.83706665039062 148.9873504638672 87.2884521484375 146.09751892089844 135.06924438476562" stroke-width="3.0" fill="none" stroke="rgb(0, 0, 0)" stroke-opacity="1.0" stroke-linecap="round" stroke-linejoin="round"/>
    <path d="M 154.9604034423828 103.0221176147461 C 180.57716369628906 128.57757568359375 196.3047332763672 138.5725555419922 158.14230346679688 98.92142486572266" stroke-width="3.0" fill="none" stroke="rgb(0, 0, 0)" stroke-opacity="1.0" stroke-linecap="round" stroke-linejoin="round"/>
    <path d="M 41.42274475097656 88.55191802978516 C 58.016170501708984 99.1138687133789 53.30432891845703 71.43108367919922 81.46234130859375 108.1968765258789" stroke-width="3.0" fill="none" stroke="rgb(0, 0, 0)" stroke-opacity="1.0" stroke-linecap="round" stroke-linejoin="round"/>
    <path d="M 64.28748321533203 70.55718231201172 C 39.279937744140625 119.58549499511719 27.608915328979492 81.90889739990234 64.87641143798828 83.97037506103516" stroke-width="3.0" fill="none" stroke="rgb(0, 0, 0)" stroke-opacity="1.0" stroke-linecap="round" stroke-linejoin="round"/>
  </g>
</svg>
