<?xml version="1.0" ?>
<svg xmlns="http://www.w3.org/2000/svg" version="1.1" width="224" height="224">
  <defs/>
  <g>
    <path d="M 142.96884155273438 122.34615325927734 C 109.64741516113281 96.80583190917969 95.34772491455078 128.76498413085938 134.02391052246094 102.6521224975586" stroke-width="3.0" fill="none" stroke="rgb(0, 0, 0)" stroke-opacity="1.0" stroke-linecap="round" stroke-linejoin="round"/>
    <path d="M 159.12879943847656 102.767578125 C 167.94631958007812 140.3873291015625 249.0050048828125 143.74588012695312 180.30856323242188 126.6008071899414" stroke-width="3.0" fill="none" stroke="rgb(0, 0, 0)" stroke-opacity="1.0" stroke-linecap="round" stroke-linejoin="round"/>
    <path d="M 145.70709228515625 125.20980834960938 C 133.90489196777344 75.61026000976562 119.44465637207031 123.16452026367188 159.4933624267578 144.71609497070312" stroke-width="3.0" fill="none" stroke="rgb(0, 0, 0)" stroke-opacity="1.0" stroke-linecap="round" stroke-linejoin="round"/>
    <path d="M 127.16028594970703 138.9912872314453 C 119.75827026367188 70.90573120117188 119.29487609863281 121.60990905761719 155.0467529296875 101.39494323730469" stroke-width="3.0" fill="none" stroke="rgb(0, 0, 0)" stroke-opacity="1.0" stroke-linecap="round" stroke-linejoin="round"/>
    <path d="M 118.04267120361328 125.14437866210938 C 113.77487182617188 93.19956970214844 64.62002563476562 72.42790222167969 75.55127716064453 130.64535522460938" stroke-width="3.0" fill="none" stroke="rgb(0, 0, 0)" stroke-opacity="1.0" stroke-linecap="round" stroke-linejoin="round"/>
    <path d="M 103.73473358154297 133.45541381835938 C 121.60612487792969 126.91756439208984 141.16375732421875 100.50419616699219 121.36614990234375 100.14993286132812" stroke-width="3.0" fill="none" stroke="rgb(0, 0, 0)" stroke-opacity="1.0" stroke-linecap="round" stroke-linejoin="round"/>
    <path d="M 79.79216003417969 127.72782897949219 C 49.40080261230469 125.17166137695312 119.6842269897461 78.60842895507812 46.7477912902832 75.69043731689453" stroke-width="3.0" fill="none" stroke="rgb(0, 0, 0)" stroke-opacity="1.0" stroke-linecap="round" stroke-linejoin="round"/>
    <path d="M 143.61773681640625 117.28857421875 C 110.90797424316406 152.94554138183594 210.96514892578125 146.97325134277344 140.539794921875 141.27491760253906" stroke-width="3.0" fill="none" stroke="rgb(0, 0, 0)" stroke-opacity="1.0" stroke-linecap="round" stroke-linejoin="round"/>
    <path d="M 176.0775146484375 158.8383331298828 C 183.91769409179688 151.84959411621094 198.94142150878906 183.384033203125 163.5308837890625 142.86123657226562" stroke-width="3.0" fill="none" stroke="rgb(0, 0, 0)" stroke-opacity="1.0" stroke-linecap="round" stroke-linejoin="round"/>
    <path d="M 125.7724838256836 130.5523223876953 C 123.4145736694336 77.79501342773438 148.2934112548828 119.45298767089844 116.17681121826172 136.99034118652344" stroke-width="3.0" fill="none" stroke="rgb(0, 0, 0)" stroke-opacity="1.0" stroke-linecap="round" stroke-linejoin="round"/>
    <path d="M 130.84677124023438 156.92152404785156 C 148.91961669921875 118.12368774414062 146.86257934570312 84.05199432373047 137.0705108642578 136.38299560546875" stroke-width="3.0" fill="none" stroke="rgb(0, 0, 0)" stroke-opacity="1.0" stroke-linecap="round" stroke-linejoin="round"/>
    <path d="M 133.6678009033203 111.41931915283203 C 85.59371185302734 106.54351806640625 90.07475280761719 97.1363296508789 72.30775451660156 85.5771713256836" stroke-width="3.0" fill="none" stroke="rgb(0, 0, 0)" stroke-opacity="1.0" stroke-linecap="round" stroke-linejoin="round"/>
    <path d="M 96.8244400024414 100.9836654663086 C 150.49945068359375 103.39119720458984 133.83570861816406 94.1150131225586 125.320556640625 134.98825073242188" stroke-width="3.0" fill="none" stroke="rgb(0, 0, 0)" stroke-opacity="1.0" stroke-linecap="round" stroke-linejoin="round"/>
    <path d="M 97.99681091308594 148.93994140625 C 146.094970703125 142.50967407226562 139.27877807617188 79.57389831542969 132.15579223632812 155.56439208984375" stroke-width="3.0" fill="none" stroke="rgb(0, 0, 0)" stroke-opacity="1.0" stroke-linecap="round" stroke-linejoin="round"/>
    <path d="M 82.4688720703125 78.37374877929688 C 54.568809509277344 57.171592712402344 37.81534194946289 111.0383071899414 66.36930847167969 83.87828063964844" stroke-width="3.0" fill="none" stroke="rgb(0, 0, 0)" stroke-opacity="1.0" stroke-linecap="round" stroke-linejoin="round"/>
    <path d="M 56.54276657104492 73.79373931884766 C 63.114227294921875 94.40487670898438 80.95169067382812 71.66087341308594 83.20953369140625 102.74241638183594" stroke-width="3.0" fill="none" stroke="rgb(0, 0, 0)" stroke-opacity="1.0" stroke-linecap="round" stroke-linejoin="round"/>
    <path d="M 90.97765350341797 99.30778503417969 C 55.880157470703125 70.26419067382812 14.421944618225098 74.31307220458984 72.37763977050781 84.61076354980469" stroke-width="3.0" fill="none" stroke="rgb(0, 0, 0)" stroke-opacity="1.0" stroke-linecap="round" stroke-linejoin="round"/>
    <path d="M 80.13069915771484 161.8071746826172 C 34.632049560546875 119.6236343383789 83.67023468017578 156.68310546875 95.1282958984375 115.24337005615234" stroke-width="3.0" fill="none" stroke="rgb(0, 0, 0)" stroke-opacity="1.0" stroke-linecap="round" stroke-linejoin="round"/>
    <path d="M 135.39425659179688 104.43042755126953 C 154.4209747314453 141.89907836914062 157.41363525390625 74.95818328857422 101.63467407226562 108.51728820800781" stroke-width="3.0" fill="none" stroke="rgb(0, 0, 0)" stroke-opacity="1.0" stroke-linecap="round" stroke-linejoin="round"/>
    <path d="M 130.804443359375 111.68133544921875 C 130.36485290527344 194.23898315429688 147.231689453125 102.7671127319336 129.860595703125 100.7780990600586" stroke-width="3.0" fill="none" stroke="rgb(0, 0, 0)" stroke-opacity="1.0" stroke-linecap="round" stroke-linejoin="round"/>
    <path d="M 97.56846618652344 149.79872131347656 C 81.5261001586914 170.1143035888672 122.17378997802734 166.640380859375 101.08273315429688 169.6798553466797" stroke-width="3.0" fill="none" stroke="rgb(0, 0, 0)" stroke-opacity="1.0" stroke-linecap="round" stroke-linejoin="round"/>
    <path d="M 72.29232788085938 133.8011474609375 C 133.8033447265625 137.25575256347656 139.91818237304688 122.98014068603516 146.3367156982422 113.9295654296875" stroke-width="3.0" fill="none" stroke="rgb(0, 0, 0)" stroke-opacity="1.0" stroke-linecap="round" stroke-linejoin="round"/>
    <path d="M 133.30923461914062 100.97571563720703 C 86.9723129272461 115.34235382080078 107.17290496826172 81.90833282470703 74.58233642578125 121.57308959960938" stroke-width="3.0" fill="none" stroke="rgb(0, 0, 0)" stroke-opacity="1.0" stroke-linecap="round" stroke-linejoin="round"/>
    <path d="M 143.65696716308594 104.51559448242188 C 162.8572235107422 116.78376770019531 124.1727066040039 154.3302764892578 146.96267700195312 142.89878845214844" stroke-width="3.0" fill="none" stroke="rgb(0, 0, 0)" stroke-opacity="1.0" stroke-linecap="round" stroke-linejoin="round"/>
    <path d="M 82.07890319824219 112.25450134277344 C 53.45277786254883 55.642215728759766 60.44097137451172 73.56046295166016 85.4052963256836 99.68649291992188" stroke-width="3.0" fill="none" stroke="rgb(0, 0, 0)" stroke-opacity="1.0" stroke-linecap="round" stroke-linejoin="round"/>
    <path d="M 77.88412475585938 124.36299133300781 C 123.505859375 142.13990783691406 108.40140533447266 131.65835571289062 93.29769134521484 117.99369049072266" stroke-width="3.0" fill="none" stroke="rgb(0, 0, 0)" stroke-opacity="1.0" stroke-linecap="round" stroke-linejoin="round"/>
    <path d="M 62.211280822753906 79.5668716430664 C 27.93301010131836 106.27085876464844 35.369144439697266 99.72151184082031 53.69131851196289 70.78623962402344" stroke-width="3.0" fill="none" stroke="rgb(0, 0, 0)" stroke-opacity="1.0" stroke-linecap="round" stroke-linejoin="round"/>
    <path d="M 82.78501892089844 172.12432861328125 C 96.700439453125 151.24359130859375 28.779481887817383 149.45785522460938 92.49429321289062 123.97505950927734" stroke-width="3.0" fill="none" stroke="rgb(0, 0, 0)" stroke-opacity="1.0" stroke-linecap="round" stroke-linejoin="round"/>
    <path d="M 178.01400756835938 122.07859802246094 C 171.05453491210938 123.06832122802734 164.94627380371094 84.74309539794922 152.2410125732422 109.09424591064453" stroke-width="3.0" fill="none" stroke="rgb(0, 0, 0)" stroke-opacity="1.0" stroke-linecap="round" stroke-linejoin="round"/>
    <path d="M 115.42851257324219 139.8466796875 C 169.14837646484375 113.60166931152344 143.6005859375 95.194580078125 110.3179702758789 134.63201904296875" stroke-width="3.0" fill="none" stroke="rgb(0, 0, 0)" stroke-opacity="1.0" stroke-linecap="round" stroke-linejoin="round"/>
    <path d="M 50.328086853027344 75.64126586914062 C 104.30375671386719 116.06944274902344 92.84050750732422 121.17350006103516 67.04744720458984 79.9238510131836" stroke-width="3.0" fill="none" stroke="rgb(0, 0, 0)" stroke-opacity="1.0" stroke-linecap="round" stroke-linejoin="round"/>
    <path d="M 131.39398193359375 108.69342803955078 C 145.66912841796875 134.94769287109375 135.54446411132812 118.52006530761719 146.2656707763672 132.44252014160156" stroke-width="3.0" fill="none" stroke="rgb(0, 0, 0)" stroke-opacity="1.0" stroke-linecap="round" stroke-linejoin="round"/>
    <path d="M 73.3970718383789 93.88452911376953 C 132.5623016357422 107.03559112548828 111.25371551513672 91.12940216064453 76.21033477783203 103.88397979736328" stroke-width="3.0" fill="none" stroke="rgb(0, 0, 0)" stroke-opacity="1.0" stroke-linecap="round" stroke-linejoin="round"/>
    <path d="M 117.43753814697266 102.61395263671875 C 126.43545532226562 149.65672302246094 117.03430938720703 116.17953491210938 115.08263397216797 102.16078186035156" stroke-width="3.0" fill="none" stroke="rgb(0, 0, 0)" stroke-opacity="1.0" stroke-linecap="round" stroke-linejoin="round"/>
    <path d="M 77.12196350097656 82.05574798583984 C 19.683921813964844 97.05601501464844 74.42250061035156 54.35708236694336 84.97352600097656 96.78868103027344" stroke-width="3.0" fill="none" stroke="rgb(0, 0, 0)" stroke-opacity="1.0" stroke-linecap="round" stroke-linejoin="round"/>
    <path d="M 115.18245697021484 106.83436584472656 C 95.8602294921875 156.7503204345703 139.13479614257812 103.81613159179688 122.2349853515625 136.42384338378906" stroke-width="3.0" fill="none" stroke="rgb(0, 0, 0)" stroke-opacity="1.0" stroke-linecap="round" stroke-linejoin="round"/>
    <path d="M 107.7177963256836 124.1282730102539 C 139.94424438476562 109.06775665283203 132.71131896972656 124.55866241455078 112.02410888671875 108.41934204101562" stroke-width="3.0" fill="none" stroke="rgb(0, 0, 0)" stroke-opacity="1.0" stroke-linecap="round" stroke-linejoin="round"/>
    <path d="M 140.92898559570312 151.30703735351562 C 140.14932250976562 131.310546875 162.1250457763672 111.19263458251953 129.53817749023438 106.02791595458984" stroke-width="3.0" fill="none" stroke="rgb(0, 0, 0)" stroke-opacity="1.0" stroke-linecap="round" stroke-linejoin="round"/>
    <path d="M 104.43755340576172 102.42568969726562 C 147.9452362060547 157.0450439453125 174.2543182373047 116.11854553222656 110.0760269165039 175.03512573242188" stroke-width="3.0" fill="none" stroke="rgb(0, 0, 0)" stroke-opacity="1.0" stroke-linecap="round" stroke-linejoin="round"/>
    <path d="M 199.73069763183594 130.64926147460938 C 151.06007385253906 115.8271713256836 141.02589416503906 102.70378112792969 193.20034790039062 126.97496032714844" stroke-width="3.0" fill="none" stroke="rgb(0, 0, 0)" stroke-opacity="1.0" stroke-linecap="round" stroke-linejoin="round"/>
    <path d="M 120.05824279785156 131.29971313476562 C 79.22512817382812 97.99700927734375 169.32510375976562 96.38179016113281 144.5274200439453 132.09677124023438" stroke-width="3.0" fill="none" stroke="rgb(0, 0, 0)" stroke-opacity="1.0" stroke-linecap="round" stroke-linejoin="round"/>
    <path d="M 73.31239318847656 102.9300537109375 C 45.00411605834961 61.327674865722656 72.73866271972656 86.78448486328125 77.79415130615234 127.5650634765625" stroke-width="3.0" fill="none" stroke="rgb(0, 0, 0)" stroke-opacity="1.0" stroke-linecap="round" stroke-linejoin="round"/>
    <path d="M 76.53728485107422 129.909912109375 C 170.5287628173828 140.84820556640625 103.60189819335938 146.49827575683594 90.50965881347656 122.09150695800781" stroke-width="3.0" fill="none" stroke="rgb(0, 0, 0)" stroke-opacity="1.0" stroke-linecap="round" stroke-linejoin="round"/>
    <path d="M 56.31010437011719 71.91632080078125 C 116.20014190673828 75.65666198730469 88.33789825439453 136.58419799804688 63.41358947753906 85.66244506835938" stroke-width="3.0" fill="none" stroke="rgb(0, 0, 0)" stroke-opacity="1.0" stroke-linecap="round" stroke-linejoin="round"/>
    <path d="M 146.43177795410156 122.18424224853516 C 146.87548828125 108.34292602539062 142.69357299804688 83.04719543457031 137.67100524902344 133.75347900390625" stroke-width="3.0" fill="none" stroke="rgb(0, 0, 0)" stroke-opacity="1.0" stroke-linecap="round" stroke-linejoin="round"/>
    <path d="M 156.84530639648438 101.57524108886719 C 181.528076171875 127.63565826416016 199.50827026367188 134.6321258544922 159.6925048828125 100.5779037475586" stroke-width="3.0" fill="none" stroke="rgb(0, 0, 0)" stroke-opacity="1.0" stroke-linecap="round" stroke-linejoin="round"/>
    <path d="M 45.733455657958984 83.73036193847656 C 58.57058334350586 96.62301635742188 50.645137786865234 72.87825012207031 83.8310775756836 107.37141418457031" stroke-width="3.0" fill="none" stroke="rgb(0, 0, 0)" stroke-opacity="1.0" stroke-linecap="round" stroke-linejoin="round"/>
    <path d="M 60.322532653808594 72.53781127929688 C 34.75439453125 118.94322967529297 27.261703491210938 86.8849868774414 66.36598205566406 83.37130737304688" stroke-width="3.0" fill="none" stroke="rgb(0, 0, 0)" stroke-opacity="1.0" stroke-linecap="round" stroke-linejoin="round"/>
  </g>
</svg>
