<?xml version="1.0" ?>
<svg xmlns="http://www.w3.org/2000/svg" version="1.1" width="224" height="224">
  <defs/>
  <g>
    <path d="M 141.9523468017578 123.25534057617188 C 108.5915756225586 96.31787109375 91.43973541259766 125.57530975341797 131.224853515625 100.53553009033203" stroke-width="3.0" fill="none" stroke="rgb(0, 0, 0)" stroke-opacity="1.0" stroke-linecap="round" stroke-linejoin="round"/>
    <path d="M 158.14967346191406 103.00274658203125 C 168.475341796875 140.4927215576172 250.44305419921875 142.1749725341797 182.9906005859375 128.02618408203125" stroke-width="3.0" fill="none" stroke="rgb(0, 0, 0)" stroke-opacity="1.0" stroke-linecap="round" stroke-linejoin="round"/>
    <path d="M 142.50985717773438 125.86408233642578 C 135.47679138183594 73.06941223144531 126.44757080078125 117.24529266357422 157.71421813964844 144.68687438964844" stroke-width="3.0" fill="none" stroke="rgb(0, 0, 0)" stroke-opacity="1.0" stroke-linecap="round" stroke-linejoin="round"/>
    <path d="M 126.65046691894531 145.52259826660156 C 125.3397445678711 66.57746124267578 124.80016326904297 117.85124969482422 159.95399475097656 101.95983123779297" stroke-width="3.0" fill="none" stroke="rgb(0, 0, 0)" stroke-opacity="1.0" stroke-linecap="round" stroke-linejoin="round"/>
    <path d="M 113.49551391601562 126.69728088378906 C 111.81950378417969 93.0272445678711 65.25033569335938 72.0714111328125 76.43125915527344 129.14065551757812" stroke-width="3.0" fill="none" stroke="rgb(0, 0, 0)" stroke-opacity="1.0" stroke-linecap="round" stroke-linejoin="round"/>
    <path d="M 103.00927734375 131.00108337402344 C 121.59329223632812 126.4378890991211 140.67922973632812 101.00901794433594 128.13272094726562 102.4923095703125" stroke-width="3.0" fill="none" stroke="rgb(0, 0, 0)" stroke-opacity="1.0" stroke-linecap="round" stroke-linejoin="round"/>
    <path d="M 82.40675354003906 126.75875854492188 C 52.581565856933594 122.0545425415039 119.91417694091797 74.110595703125 47.5106201171875 76.79650115966797" stroke-width="3.0" fill="none" stroke="rgb(0, 0, 0)" stroke-opacity="1.0" stroke-linecap="round" stroke-linejoin="round"/>
    <path d="M 143.7728271484375 117.11112213134766 C 112.6767807006836 153.91563415527344 214.0802001953125 149.9949493408203 142.61033630371094 139.92770385742188" stroke-width="3.0" fill="none" stroke="rgb(0, 0, 0)" stroke-opacity="1.0" stroke-linecap="round" stroke-linejoin="round"/>
    <path d="M 177.0012664794922 160.58285522460938 C 182.22752380371094 150.9920196533203 198.9905242919922 182.72036743164062 163.3323974609375 144.6565399169922" stroke-width="3.0" fill="none" stroke="rgb(0, 0, 0)" stroke-opacity="1.0" stroke-linecap="round" stroke-linejoin="round"/>
    <path d="M 132.19796752929688 129.5659637451172 C 126.20127868652344 76.88565063476562 146.90660095214844 117.45030975341797 115.88187408447266 139.4189910888672" stroke-width="3.0" fill="none" stroke="rgb(0, 0, 0)" stroke-opacity="1.0" stroke-linecap="round" stroke-linejoin="round"/>
    <path d="M 132.7113800048828 156.3266143798828 C 149.6100616455078 117.61178588867188 149.34097290039062 84.87538146972656 135.5472412109375 135.8772735595703" stroke-width="3.0" fill="none" stroke="rgb(0, 0, 0)" stroke-opacity="1.0" stroke-linecap="round" stroke-linejoin="round"/>
    <path d="M 135.02122497558594 109.31221008300781 C 88.20191192626953 103.301513671875 89.36735534667969 96.19464111328125 72.22806549072266 84.73635864257812" stroke-width="3.0" fill="none" stroke="rgb(0, 0, 0)" stroke-opacity="1.0" stroke-linecap="round" stroke-linejoin="round"/>
    <path d="M 95.89842224121094 98.82294464111328 C 146.08743286132812 111.74283599853516 131.70318603515625 99.30934143066406 123.53572082519531 133.88409423828125" stroke-width="3.0" fill="none" stroke="rgb(0, 0, 0)" stroke-opacity="1.0" stroke-linecap="round" stroke-linejoin="round"/>
    <path d="M 98.9098129272461 148.92637634277344 C 148.50460815429688 144.4258270263672 139.65338134765625 80.48628234863281 133.7682647705078 154.32411193847656" stroke-width="3.0" fill="none" stroke="rgb(0, 0, 0)" stroke-opacity="1.0" stroke-linecap="round" stroke-linejoin="round"/>
    <path d="M 81.5726089477539 77.69465637207031 C 52.14537811279297 56.49022674560547 38.17579650878906 108.63494110107422 66.22331237792969 82.75530242919922" stroke-width="3.0" fill="none" stroke="rgb(0, 0, 0)" stroke-opacity="1.0" stroke-linecap="round" stroke-linejoin="round"/>
    <path d="M 58.833885192871094 74.49352264404297 C 62.868568420410156 95.79310607910156 81.55265808105469 73.78374481201172 87.0203857421875 102.21039581298828" stroke-width="3.0" fill="none" stroke="rgb(0, 0, 0)" stroke-opacity="1.0" stroke-linecap="round" stroke-linejoin="round"/>
    <path d="M 90.92143249511719 99.48869323730469 C 55.1175537109375 72.15877532958984 16.67162322998047 73.32274627685547 70.89289855957031 87.3550796508789" stroke-width="3.0" fill="none" stroke="rgb(0, 0, 0)" stroke-opacity="1.0" stroke-linecap="round" stroke-linejoin="round"/>
    <path d="M 79.67530059814453 163.32516479492188 C 34.89479446411133 120.76690673828125 80.20040130615234 153.05621337890625 96.96511840820312 117.65589904785156" stroke-width="3.0" fill="none" stroke="rgb(0, 0, 0)" stroke-opacity="1.0" stroke-linecap="round" stroke-linejoin="round"/>
    <path d="M 136.26658630371094 103.97843933105469 C 152.92257690429688 144.31509399414062 154.41976928710938 77.34403228759766 103.89728546142578 107.60526275634766" stroke-width="3.0" fill="none" stroke="rgb(0, 0, 0)" stroke-opacity="1.0" stroke-linecap="round" stroke-linejoin="round"/>
    <path d="M 133.9433135986328 111.47449493408203 C 132.49205017089844 193.60623168945312 146.669677734375 101.83190155029297 130.14627075195312 101.6110610961914" stroke-width="3.0" fill="none" stroke="rgb(0, 0, 0)" stroke-opacity="1.0" stroke-linecap="round" stroke-linejoin="round"/>
    <path d="M 98.83641815185547 148.68148803710938 C 80.48031616210938 168.9326629638672 119.67296600341797 166.68638610839844 104.40825653076172 171.40562438964844" stroke-width="3.0" fill="none" stroke="rgb(0, 0, 0)" stroke-opacity="1.0" stroke-linecap="round" stroke-linejoin="round"/>
    <path d="M 72.71964263916016 133.11965942382812 C 142.04913330078125 137.00120544433594 144.06532287597656 128.7533721923828 146.9835662841797 116.432861328125" stroke-width="3.0" fill="none" stroke="rgb(0, 0, 0)" stroke-opacity="1.0" stroke-linecap="round" stroke-linejoin="round"/>
    <path d="M 135.00900268554688 102.96002960205078 C 84.42796325683594 114.87909698486328 102.71116638183594 79.56309509277344 74.81812286376953 120.81146240234375" stroke-width="3.0" fill="none" stroke="rgb(0, 0, 0)" stroke-opacity="1.0" stroke-linecap="round" stroke-linejoin="round"/>
    <path d="M 143.8562469482422 108.74734497070312 C 165.39939880371094 119.90223693847656 125.165771484375 155.2224884033203 145.26316833496094 144.953125" stroke-width="3.0" fill="none" stroke="rgb(0, 0, 0)" stroke-opacity="1.0" stroke-linecap="round" stroke-linejoin="round"/>
    <path d="M 82.32515716552734 112.24217987060547 C 51.60792541503906 55.98479080200195 58.905887603759766 74.21728515625 83.85411834716797 100.53411102294922" stroke-width="3.0" fill="none" stroke="rgb(0, 0, 0)" stroke-opacity="1.0" stroke-linecap="round" stroke-linejoin="round"/>
    <path d="M 79.07523345947266 123.58445739746094 C 123.38126373291016 141.09840393066406 107.14505767822266 132.7205352783203 91.49343872070312 120.38349914550781" stroke-width="3.0" fill="none" stroke="rgb(0, 0, 0)" stroke-opacity="1.0" stroke-linecap="round" stroke-linejoin="round"/>
    <path d="M 61.93330001831055 79.0849609375 C 27.908456802368164 108.96067810058594 33.29830551147461 99.89839172363281 52.62626647949219 70.08851623535156" stroke-width="3.0" fill="none" stroke="rgb(0, 0, 0)" stroke-opacity="1.0" stroke-linecap="round" stroke-linejoin="round"/>
    <path d="M 83.72541809082031 171.2822723388672 C 97.01091766357422 152.29483032226562 29.069717407226562 150.8408660888672 90.57662200927734 121.71392059326172" stroke-width="3.0" fill="none" stroke="rgb(0, 0, 0)" stroke-opacity="1.0" stroke-linecap="round" stroke-linejoin="round"/>
    <path d="M 178.7041778564453 121.51512908935547 C 171.12484741210938 122.07709503173828 167.5704345703125 85.09078979492188 149.658203125 105.94625091552734" stroke-width="3.0" fill="none" stroke="rgb(0, 0, 0)" stroke-opacity="1.0" stroke-linecap="round" stroke-linejoin="round"/>
    <path d="M 116.04115295410156 141.33998107910156 C 169.7420196533203 113.71090698242188 143.61585998535156 92.75431060791016 106.1138687133789 133.86668395996094" stroke-width="3.0" fill="none" stroke="rgb(0, 0, 0)" stroke-opacity="1.0" stroke-linecap="round" stroke-linejoin="round"/>
    <path d="M 52.44717025756836 73.9200210571289 C 105.2892074584961 116.41004180908203 94.1189193725586 121.89013671875 64.28042602539062 83.21918487548828" stroke-width="3.0" fill="none" stroke="rgb(0, 0, 0)" stroke-opacity="1.0" stroke-linecap="round" stroke-linejoin="round"/>
    <path d="M 132.56088256835938 108.95140075683594 C 146.74807739257812 135.00555419921875 134.95835876464844 119.83956146240234 146.92713928222656 135.0186004638672" stroke-width="3.0" fill="none" stroke="rgb(0, 0, 0)" stroke-opacity="1.0" stroke-linecap="round" stroke-linejoin="round"/>
    <path d="M 74.58167266845703 90.76752471923828 C 133.48757934570312 99.15374755859375 112.81462097167969 83.11434936523438 75.97522735595703 101.55845642089844" stroke-width="3.0" fill="none" stroke="rgb(0, 0, 0)" stroke-opacity="1.0" stroke-linecap="round" stroke-linejoin="round"/>
    <path d="M 119.32015991210938 107.77297973632812 C 130.4927978515625 148.70376586914062 121.14839935302734 116.41387939453125 123.66666412353516 100.8006362915039" stroke-width="3.0" fill="none" stroke="rgb(0, 0, 0)" stroke-opacity="1.0" stroke-linecap="round" stroke-linejoin="round"/>
    <path d="M 75.32229614257812 85.15115356445312 C 9.44404411315918 98.16266632080078 66.25293731689453 53.91743469238281 81.94376373291016 97.364990234375" stroke-width="3.0" fill="none" stroke="rgb(0, 0, 0)" stroke-opacity="1.0" stroke-linecap="round" stroke-linejoin="round"/>
    <path d="M 115.65752410888672 106.00122833251953 C 102.22583770751953 159.27259826660156 142.9970703125 107.49954986572266 117.99852752685547 132.0145263671875" stroke-width="3.0" fill="none" stroke="rgb(0, 0, 0)" stroke-opacity="1.0" stroke-linecap="round" stroke-linejoin="round"/>
    <path d="M 109.17630004882812 126.04655456542969 C 140.1874542236328 106.45203399658203 133.72198486328125 117.21656036376953 112.38228607177734 111.13121795654297" stroke-width="3.0" fill="none" stroke="rgb(0, 0, 0)" stroke-opacity="1.0" stroke-linecap="round" stroke-linejoin="round"/>
    <path d="M 139.09689331054688 147.7346954345703 C 140.08151245117188 130.86196899414062 162.69171142578125 110.52772521972656 129.9315185546875 105.79300689697266" stroke-width="3.0" fill="none" stroke="rgb(0, 0, 0)" stroke-opacity="1.0" stroke-linecap="round" stroke-linejoin="round"/>
    <path d="M 104.78529357910156 100.95499420166016 C 147.13015747070312 156.5957794189453 173.1595001220703 118.57140350341797 108.57886505126953 175.09117126464844" stroke-width="3.0" fill="none" stroke="rgb(0, 0, 0)" stroke-opacity="1.0" stroke-linecap="round" stroke-linejoin="round"/>
    <path d="M 201.33819580078125 129.07933044433594 C 150.6169891357422 117.41667175292969 139.73858642578125 104.61353302001953 191.06285095214844 127.82316589355469" stroke-width="3.0" fill="none" stroke="rgb(0, 0, 0)" stroke-opacity="1.0" stroke-linecap="round" stroke-linejoin="round"/>
    <path d="M 117.60893249511719 124.67713165283203 C 74.44609832763672 98.3412857055664 168.2366180419922 96.50556182861328 145.96060180664062 128.3550262451172" stroke-width="3.0" fill="none" stroke="rgb(0, 0, 0)" stroke-opacity="1.0" stroke-linecap="round" stroke-linejoin="round"/>
    <path d="M 74.44730377197266 97.22172546386719 C 41.700321197509766 65.02656555175781 72.27669525146484 87.60369873046875 77.27002716064453 127.6421890258789" stroke-width="3.0" fill="none" stroke="rgb(0, 0, 0)" stroke-opacity="1.0" stroke-linecap="round" stroke-linejoin="round"/>
    <path d="M 82.46371459960938 129.71499633789062 C 171.30551147460938 140.50735473632812 103.69412231445312 144.3761444091797 90.08397674560547 119.71867370605469" stroke-width="3.0" fill="none" stroke="rgb(0, 0, 0)" stroke-opacity="1.0" stroke-linecap="round" stroke-linejoin="round"/>
    <path d="M 56.47856140136719 70.51081085205078 C 114.3616943359375 78.24850463867188 88.00740814208984 140.41282653808594 63.174766540527344 87.61508178710938" stroke-width="3.0" fill="none" stroke="rgb(0, 0, 0)" stroke-opacity="1.0" stroke-linecap="round" stroke-linejoin="round"/>
    <path d="M 144.399169921875 122.29832458496094 C 143.26953125 107.61695861816406 135.9490966796875 80.93953704833984 127.24825286865234 131.5154266357422" stroke-width="3.0" fill="none" stroke="rgb(0, 0, 0)" stroke-opacity="1.0" stroke-linecap="round" stroke-linejoin="round"/>
    <path d="M 156.8916473388672 101.38182830810547 C 184.00225830078125 125.7745132446289 201.72805786132812 133.02630615234375 159.5630645751953 101.05564880371094" stroke-width="3.0" fill="none" stroke="rgb(0, 0, 0)" stroke-opacity="1.0" stroke-linecap="round" stroke-linejoin="round"/>
    <path d="M 48.34519577026367 83.64612579345703 C 59.911983489990234 95.54132080078125 52.79363250732422 69.72343444824219 86.49141693115234 104.58126068115234" stroke-width="3.0" fill="none" stroke="rgb(0, 0, 0)" stroke-opacity="1.0" stroke-linecap="round" stroke-linejoin="round"/>
    <path d="M 61.52909469604492 73.55608367919922 C 33.88267517089844 121.99360656738281 28.14470100402832 90.71613311767578 66.91360473632812 81.5308609008789" stroke-width="3.0" fill="none" stroke="rgb(0, 0, 0)" stroke-opacity="1.0" stroke-linecap="round" stroke-linejoin="round"/>
  </g>
</svg>
