<?xml version="1.0" ?>
<svg xmlns="http://www.w3.org/2000/svg" version="1.1" width="224" height="224">
  <defs/>
  <g>
    <path d="M 148.02716064453125 117.59113311767578 C 119.02747344970703 89.7357406616211 78.69708251953125 109.59677124023438 135.3924102783203 100.58515167236328" stroke-width="3.0" fill="none" stroke="rgb(0, 0, 0)" stroke-opacity="1.0" stroke-linecap="round" stroke-linejoin="round"/>
    <path d="M 161.40293884277344 103.9060287475586 C 165.78396606445312 139.60479736328125 262.64324951171875 146.41067504882812 167.16583251953125 122.72262573242188" stroke-width="3.0" fill="none" stroke="rgb(0, 0, 0)" stroke-opacity="1.0" stroke-linecap="round" stroke-linejoin="round"/>
    <path d="M 144.3961944580078 134.91159057617188 C 139.85838317871094 77.93864440917969 117.99816131591797 142.09963989257812 162.78416442871094 143.9615478515625" stroke-width="3.0" fill="none" stroke="rgb(0, 0, 0)" stroke-opacity="1.0" stroke-linecap="round" stroke-linejoin="round"/>
    <path d="M 140.2579345703125 144.5447540283203 C 113.36791229248047 69.734619140625 118.71346282958984 123.72301483154297 146.6964111328125 104.95618438720703" stroke-width="3.0" fill="none" stroke="rgb(0, 0, 0)" stroke-opacity="1.0" stroke-linecap="round" stroke-linejoin="round"/>
    <path d="M 133.07040405273438 120.6689224243164 C 134.0877685546875 90.50723266601562 54.83757400512695 100.86331176757812 73.63876342773438 125.5271224975586" stroke-width="3.0" fill="none" stroke="rgb(0, 0, 0)" stroke-opacity="1.0" stroke-linecap="round" stroke-linejoin="round"/>
    <path d="M 119.82102966308594 131.94781494140625 C 119.69606018066406 136.04530334472656 137.12844848632812 105.07378387451172 112.923095703125 100.31456756591797" stroke-width="3.0" fill="none" stroke="rgb(0, 0, 0)" stroke-opacity="1.0" stroke-linecap="round" stroke-linejoin="round"/>
    <path d="M 80.4533462524414 121.93032836914062 C 48.36152648925781 135.1383514404297 129.1832275390625 77.14531707763672 52.319793701171875 74.95357513427734" stroke-width="3.0" fill="none" stroke="rgb(0, 0, 0)" stroke-opacity="1.0" stroke-linecap="round" stroke-linejoin="round"/>
    <path d="M 154.1715850830078 113.18559265136719 C 143.24234008789062 159.6884002685547 236.63417053222656 172.47474670410156 143.61151123046875 141.22213745117188" stroke-width="3.0" fill="none" stroke="rgb(0, 0, 0)" stroke-opacity="1.0" stroke-linecap="round" stroke-linejoin="round"/>
    <path d="M 181.0073699951172 163.27943420410156 C 181.62677001953125 143.84036254882812 203.44052124023438 185.2008514404297 154.92239379882812 137.54977416992188" stroke-width="3.0" fill="none" stroke="rgb(0, 0, 0)" stroke-opacity="1.0" stroke-linecap="round" stroke-linejoin="round"/>
    <path d="M 133.3208770751953 125.73478698730469 C 115.9248275756836 79.28266143798828 157.22654724121094 126.69802856445312 129.02423095703125 125.01194763183594" stroke-width="3.0" fill="none" stroke="rgb(0, 0, 0)" stroke-opacity="1.0" stroke-linecap="round" stroke-linejoin="round"/>
    <path d="M 130.07078552246094 160.19696044921875 C 148.46141052246094 111.82501220703125 144.82553100585938 80.48332977294922 135.50831604003906 158.188232421875" stroke-width="3.0" fill="none" stroke="rgb(0, 0, 0)" stroke-opacity="1.0" stroke-linecap="round" stroke-linejoin="round"/>
    <path d="M 142.9644012451172 102.91409301757812 C 80.03357696533203 101.14457702636719 88.00341796875 96.3665771484375 63.45000457763672 81.1843032836914" stroke-width="3.0" fill="none" stroke="rgb(0, 0, 0)" stroke-opacity="1.0" stroke-linecap="round" stroke-linejoin="round"/>
    <path d="M 102.12696838378906 101.20233154296875 C 145.9254913330078 99.03302001953125 138.59095764160156 98.41312408447266 139.1102294921875 140.9386444091797" stroke-width="3.0" fill="none" stroke="rgb(0, 0, 0)" stroke-opacity="1.0" stroke-linecap="round" stroke-linejoin="round"/>
    <path d="M 100.5832748413086 148.16168212890625 C 144.98828125 140.30433654785156 153.6116943359375 75.52943420410156 137.35824584960938 158.1567840576172" stroke-width="3.0" fill="none" stroke="rgb(0, 0, 0)" stroke-opacity="1.0" stroke-linecap="round" stroke-linejoin="round"/>
    <path d="M 85.92578887939453 90.5057601928711 C 43.77264404296875 61.092323303222656 23.120519638061523 115.89847564697266 53.500118255615234 77.80132293701172" stroke-width="3.0" fill="none" stroke="rgb(0, 0, 0)" stroke-opacity="1.0" stroke-linecap="round" stroke-linejoin="round"/>
    <path d="M 59.836177825927734 75.18572235107422 C 70.2026138305664 88.55667114257812 84.05175018310547 79.86974334716797 86.2376708984375 102.4897232055664" stroke-width="3.0" fill="none" stroke="rgb(0, 0, 0)" stroke-opacity="1.0" stroke-linecap="round" stroke-linejoin="round"/>
    <path d="M 79.9023208618164 104.66912078857422 C 60.31547164916992 64.57072448730469 15.432366371154785 88.92180633544922 77.53321075439453 88.63076782226562" stroke-width="3.0" fill="none" stroke="rgb(0, 0, 0)" stroke-opacity="1.0" stroke-linecap="round" stroke-linejoin="round"/>
    <path d="M 76.22318267822266 160.61502075195312 C 38.837677001953125 119.7475357055664 74.51039123535156 149.82394409179688 94.90438842773438 117.72685241699219" stroke-width="3.0" fill="none" stroke="rgb(0, 0, 0)" stroke-opacity="1.0" stroke-linecap="round" stroke-linejoin="round"/>
    <path d="M 131.41908264160156 120.42887878417969 C 155.7836151123047 158.7913055419922 161.81336975097656 75.95257568359375 111.05094909667969 104.80914306640625" stroke-width="3.0" fill="none" stroke="rgb(0, 0, 0)" stroke-opacity="1.0" stroke-linecap="round" stroke-linejoin="round"/>
    <path d="M 129.29110717773438 107.6544189453125 C 136.1627960205078 201.02487182617188 159.2037811279297 91.7674331665039 134.91665649414062 102.80738067626953" stroke-width="3.0" fill="none" stroke="rgb(0, 0, 0)" stroke-opacity="1.0" stroke-linecap="round" stroke-linejoin="round"/>
    <path d="M 99.26957702636719 148.81495666503906 C 80.61335754394531 165.11329650878906 120.67837524414062 182.8070526123047 97.33537292480469 162.2281494140625" stroke-width="3.0" fill="none" stroke="rgb(0, 0, 0)" stroke-opacity="1.0" stroke-linecap="round" stroke-linejoin="round"/>
    <path d="M 74.0389633178711 122.9412841796875 C 146.17771911621094 139.6641845703125 140.2731475830078 125.63997650146484 145.20443725585938 113.78898620605469" stroke-width="3.0" fill="none" stroke="rgb(0, 0, 0)" stroke-opacity="1.0" stroke-linecap="round" stroke-linejoin="round"/>
    <path d="M 130.15469360351562 101.00556945800781 C 81.82049560546875 115.72087097167969 110.60133361816406 67.87239074707031 72.3543701171875 118.66880798339844" stroke-width="3.0" fill="none" stroke="rgb(0, 0, 0)" stroke-opacity="1.0" stroke-linecap="round" stroke-linejoin="round"/>
    <path d="M 138.96151733398438 116.03414154052734 C 166.44703674316406 121.59220123291016 125.6773452758789 164.23968505859375 145.49485778808594 123.4857177734375" stroke-width="3.0" fill="none" stroke="rgb(0, 0, 0)" stroke-opacity="1.0" stroke-linecap="round" stroke-linejoin="round"/>
    <path d="M 84.58325958251953 108.30230712890625 C 55.814117431640625 61.4452018737793 62.42625045776367 73.90734100341797 81.75154876708984 112.73031616210938" stroke-width="3.0" fill="none" stroke="rgb(0, 0, 0)" stroke-opacity="1.0" stroke-linecap="round" stroke-linejoin="round"/>
    <path d="M 74.29341888427734 125.92908477783203 C 129.66380310058594 138.65933227539062 102.94354248046875 137.5790252685547 95.95967102050781 121.98641967773438" stroke-width="3.0" fill="none" stroke="rgb(0, 0, 0)" stroke-opacity="1.0" stroke-linecap="round" stroke-linejoin="round"/>
    <path d="M 54.771854400634766 79.49237060546875 C 25.204490661621094 104.28186798095703 44.36090850830078 111.57588195800781 60.29718017578125 71.55841064453125" stroke-width="3.0" fill="none" stroke="rgb(0, 0, 0)" stroke-opacity="1.0" stroke-linecap="round" stroke-linejoin="round"/>
    <path d="M 83.66110229492188 171.77841186523438 C 104.63646697998047 160.67977905273438 23.679052352905273 142.5254364013672 96.13055419921875 124.83992767333984" stroke-width="3.0" fill="none" stroke="rgb(0, 0, 0)" stroke-opacity="1.0" stroke-linecap="round" stroke-linejoin="round"/>
    <path d="M 183.32545471191406 124.35546875 C 161.44281005859375 113.06570434570312 166.9322509765625 87.89705657958984 147.9449920654297 107.58226776123047" stroke-width="3.0" fill="none" stroke="rgb(0, 0, 0)" stroke-opacity="1.0" stroke-linecap="round" stroke-linejoin="round"/>
    <path d="M 114.44608306884766 143.1528778076172 C 179.5201873779297 115.33545684814453 146.82252502441406 99.65394592285156 118.551025390625 139.40260314941406" stroke-width="3.0" fill="none" stroke="rgb(0, 0, 0)" stroke-opacity="1.0" stroke-linecap="round" stroke-linejoin="round"/>
    <path d="M 58.434547424316406 76.80644989013672 C 94.81763458251953 119.56507873535156 87.20923614501953 115.88509368896484 55.32051467895508 81.482177734375" stroke-width="3.0" fill="none" stroke="rgb(0, 0, 0)" stroke-opacity="1.0" stroke-linecap="round" stroke-linejoin="round"/>
    <path d="M 131.43016052246094 113.10260772705078 C 149.82901000976562 124.80987548828125 135.37924194335938 115.05095672607422 107.02847290039062 133.7814483642578" stroke-width="3.0" fill="none" stroke="rgb(0, 0, 0)" stroke-opacity="1.0" stroke-linecap="round" stroke-linejoin="round"/>
    <path d="M 69.27745819091797 79.8480224609375 C 102.26777648925781 121.72179412841797 95.64260864257812 88.77173614501953 77.1153335571289 96.58683776855469" stroke-width="3.0" fill="none" stroke="rgb(0, 0, 0)" stroke-opacity="1.0" stroke-linecap="round" stroke-linejoin="round"/>
    <path d="M 124.76589965820312 109.53048706054688 C 136.82247924804688 144.77789306640625 135.79429626464844 105.24369049072266 131.26751708984375 100.96934509277344" stroke-width="3.0" fill="none" stroke="rgb(0, 0, 0)" stroke-opacity="1.0" stroke-linecap="round" stroke-linejoin="round"/>
    <path d="M 67.40643310546875 77.36206817626953 C 34.24313735961914 117.61531829833984 73.17477416992188 63.938568115234375 69.95419311523438 114.79228210449219" stroke-width="3.0" fill="none" stroke="rgb(0, 0, 0)" stroke-opacity="1.0" stroke-linecap="round" stroke-linejoin="round"/>
    <path d="M 135.30088806152344 127.01392364501953 C 93.82029724121094 163.9567413330078 135.7259063720703 109.26305389404297 125.95852661132812 131.4982452392578" stroke-width="3.0" fill="none" stroke="rgb(0, 0, 0)" stroke-opacity="1.0" stroke-linecap="round" stroke-linejoin="round"/>
    <path d="M 119.93458557128906 134.64044189453125 C 140.49935913085938 98.98124694824219 136.01487731933594 123.89662170410156 129.06105041503906 100.1625747680664" stroke-width="3.0" fill="none" stroke="rgb(0, 0, 0)" stroke-opacity="1.0" stroke-linecap="round" stroke-linejoin="round"/>
    <path d="M 144.23956298828125 139.2005157470703 C 122.8201675415039 116.30186462402344 150.53770446777344 113.2626953125 130.79434204101562 102.18367767333984" stroke-width="3.0" fill="none" stroke="rgb(0, 0, 0)" stroke-opacity="1.0" stroke-linecap="round" stroke-linejoin="round"/>
    <path d="M 128.25149536132812 99.7460708618164 C 145.5021209716797 188.32508850097656 148.87753295898438 139.15005493164062 111.10566711425781 174.38967895507812" stroke-width="3.0" fill="none" stroke="rgb(0, 0, 0)" stroke-opacity="1.0" stroke-linecap="round" stroke-linejoin="round"/>
    <path d="M 182.31846618652344 124.0743179321289 C 142.3770294189453 155.6988067626953 134.84262084960938 147.20936584472656 167.2117462158203 135.4514923095703" stroke-width="3.0" fill="none" stroke="rgb(0, 0, 0)" stroke-opacity="1.0" stroke-linecap="round" stroke-linejoin="round"/>
    <path d="M 140.17767333984375 114.93685913085938 C 99.95980834960938 106.79078674316406 170.6675262451172 102.33145904541016 135.383056640625 137.34962463378906" stroke-width="3.0" fill="none" stroke="rgb(0, 0, 0)" stroke-opacity="1.0" stroke-linecap="round" stroke-linejoin="round"/>
    <path d="M 77.1729507446289 113.06790924072266 C 41.115230560302734 62.96434783935547 80.58486938476562 93.14533233642578 73.41230773925781 134.5147705078125" stroke-width="3.0" fill="none" stroke="rgb(0, 0, 0)" stroke-opacity="1.0" stroke-linecap="round" stroke-linejoin="round"/>
    <path d="M 76.07962036132812 125.83614349365234 C 173.18870544433594 137.94288635253906 98.61122131347656 137.0196075439453 73.48812103271484 130.35256958007812" stroke-width="3.0" fill="none" stroke="rgb(0, 0, 0)" stroke-opacity="1.0" stroke-linecap="round" stroke-linejoin="round"/>
    <path d="M 55.86792755126953 74.08843231201172 C 113.71007537841797 68.67931365966797 97.27245330810547 139.72300720214844 64.67681121826172 77.18363952636719" stroke-width="3.0" fill="none" stroke="rgb(0, 0, 0)" stroke-opacity="1.0" stroke-linecap="round" stroke-linejoin="round"/>
    <path d="M 139.60781860351562 123.15333557128906 C 118.41734313964844 97.10859680175781 162.100830078125 95.98392486572266 147.5003662109375 133.65138244628906" stroke-width="3.0" fill="none" stroke="rgb(0, 0, 0)" stroke-opacity="1.0" stroke-linecap="round" stroke-linejoin="round"/>
    <path d="M 156.3957977294922 102.86997985839844 C 181.5710906982422 132.6253204345703 209.548095703125 138.83233642578125 155.41029357910156 101.12108612060547" stroke-width="3.0" fill="none" stroke="rgb(0, 0, 0)" stroke-opacity="1.0" stroke-linecap="round" stroke-linejoin="round"/>
    <path d="M 51.05416488647461 74.2317886352539 C 62.858097076416016 83.56654357910156 47.93075180053711 54.01626968383789 79.44775390625 115.21005249023438" stroke-width="3.0" fill="none" stroke="rgb(0, 0, 0)" stroke-opacity="1.0" stroke-linecap="round" stroke-linejoin="round"/>
    <path d="M 57.92878723144531 69.78755187988281 C 19.846086502075195 113.06111145019531 37.55152893066406 84.82750701904297 69.75200653076172 86.05309295654297" stroke-width="3.0" fill="none" stroke="rgb(0, 0, 0)" stroke-opacity="1.0" stroke-linecap="round" stroke-linejoin="round"/>
  </g>
</svg>
