<?xml version="1.0" ?>
<svg xmlns="http://www.w3.org/2000/svg" version="1.1" width="224" height="224">
  <defs/>
  <g>
    <path d="M 111.66029357910156 111.71280670166016 C 103.43041229248047 103.01000213623047 98.9529037475586 106.93706512451172 125.52715301513672 102.8428726196289" stroke-width="3.0" fill="none" stroke="rgb(0, 0, 0)" stroke-opacity="1.0" stroke-linecap="round" stroke-linejoin="round"/>
    <path d="M 163.67984008789062 113.77942657470703 C 183.49891662597656 132.2921142578125 201.74197387695312 124.94092559814453 196.24356079101562 133.67872619628906" stroke-width="3.0" fill="none" stroke="rgb(0, 0, 0)" stroke-opacity="1.0" stroke-linecap="round" stroke-linejoin="round"/>
    <path d="M 135.2020263671875 121.10034942626953 C 141.79078674316406 115.80291748046875 139.77120971679688 112.32511138916016 149.14845275878906 136.1658172607422" stroke-width="3.0" fill="none" stroke="rgb(0, 0, 0)" stroke-opacity="1.0" stroke-linecap="round" stroke-linejoin="round"/>
    <path d="M 114.64937591552734 110.52345275878906 C 109.03850555419922 122.03467559814453 103.37560272216797 115.53585052490234 128.2517852783203 113.64344787597656" stroke-width="3.0" fill="none" stroke="rgb(0, 0, 0)" stroke-opacity="1.0" stroke-linecap="round" stroke-linejoin="round"/>
    <path d="M 105.14681243896484 112.91240692138672 C 97.36793518066406 97.14363861083984 89.71986389160156 92.2618637084961 83.8406753540039 112.1870346069336" stroke-width="3.0" fill="none" stroke="rgb(0, 0, 0)" stroke-opacity="1.0" stroke-linecap="round" stroke-linejoin="round"/>
    <path d="M 138.65855407714844 127.87568664550781 C 134.15345764160156 123.31304168701172 142.31146240234375 119.76541137695312 129.23654174804688 111.27796936035156" stroke-width="3.0" fill="none" stroke="rgb(0, 0, 0)" stroke-opacity="1.0" stroke-linecap="round" stroke-linejoin="round"/>
    <path d="M 87.48428344726562 124.2017822265625 C 78.20013427734375 106.477783203125 78.53972625732422 112.16560363769531 76.08594512939453 87.3178939819336" stroke-width="3.0" fill="none" stroke="rgb(0, 0, 0)" stroke-opacity="1.0" stroke-linecap="round" stroke-linejoin="round"/>
    <path d="M 151.60643005371094 138.04991149902344 C 151.70843505859375 139.88235473632812 177.96629333496094 151.5886688232422 143.75393676757812 141.75210571289062" stroke-width="3.0" fill="none" stroke="rgb(0, 0, 0)" stroke-opacity="1.0" stroke-linecap="round" stroke-linejoin="round"/>
    <path d="M 182.9346160888672 164.08827209472656 C 160.0035400390625 150.08880615234375 181.7461395263672 164.83363342285156 161.03076171875 140.3496856689453" stroke-width="3.0" fill="none" stroke="rgb(0, 0, 0)" stroke-opacity="1.0" stroke-linecap="round" stroke-linejoin="round"/>
    <path d="M 137.86959838867188 101.27731323242188 C 132.3684539794922 110.63949584960938 131.20887756347656 115.4671859741211 115.50269317626953 123.9625015258789" stroke-width="3.0" fill="none" stroke="rgb(0, 0, 0)" stroke-opacity="1.0" stroke-linecap="round" stroke-linejoin="round"/>
    <path d="M 134.23390197753906 141.5743865966797 C 148.1888427734375 118.32086944580078 143.2633514404297 112.5702133178711 142.6497344970703 134.9671630859375" stroke-width="3.0" fill="none" stroke="rgb(0, 0, 0)" stroke-opacity="1.0" stroke-linecap="round" stroke-linejoin="round"/>
    <path d="M 119.37615966796875 109.95027160644531 C 114.80549621582031 102.54366302490234 98.37086486816406 103.92162322998047 92.00528717041016 101.13831329345703" stroke-width="3.0" fill="none" stroke="rgb(0, 0, 0)" stroke-opacity="1.0" stroke-linecap="round" stroke-linejoin="round"/>
    <path d="M 111.2176284790039 106.94253540039062 C 128.41201782226562 107.19918823242188 116.05010223388672 94.58794403076172 121.3896484375 122.65965270996094" stroke-width="3.0" fill="none" stroke="rgb(0, 0, 0)" stroke-opacity="1.0" stroke-linecap="round" stroke-linejoin="round"/>
    <path d="M 95.68912506103516 155.77503967285156 C 134.45338439941406 151.68179321289062 147.37924194335938 148.52748107910156 128.20083618164062 160.4525146484375" stroke-width="3.0" fill="none" stroke="rgb(0, 0, 0)" stroke-opacity="1.0" stroke-linecap="round" stroke-linejoin="round"/>
    <path d="M 58.8306770324707 78.85271453857422 C 57.82476806640625 64.95245361328125 70.79779052734375 76.54490661621094 80.62176513671875 88.58422088623047" stroke-width="3.0" fill="none" stroke="rgb(0, 0, 0)" stroke-opacity="1.0" stroke-linecap="round" stroke-linejoin="round"/>
    <path d="M 69.16009521484375 74.78931427001953 C 81.70982360839844 78.17532348632812 83.48831176757812 80.77747344970703 90.60113525390625 90.70557403564453" stroke-width="3.0" fill="none" stroke="rgb(0, 0, 0)" stroke-opacity="1.0" stroke-linecap="round" stroke-linejoin="round"/>
    <path d="M 55.29795455932617 74.2514419555664 C 73.36065673828125 76.67928314208984 78.25466918945312 75.33280181884766 77.9464111328125 79.39525604248047" stroke-width="3.0" fill="none" stroke="rgb(0, 0, 0)" stroke-opacity="1.0" stroke-linecap="round" stroke-linejoin="round"/>
    <path d="M 72.39779663085938 129.10598754882812 C 74.79300689697266 121.25509643554688 65.562255859375 126.54456329345703 94.60956573486328 130.8529052734375" stroke-width="3.0" fill="none" stroke="rgb(0, 0, 0)" stroke-opacity="1.0" stroke-linecap="round" stroke-linejoin="round"/>
    <path d="M 125.18487548828125 117.32632446289062 C 160.2147674560547 133.09503173828125 153.36094665527344 119.93190002441406 125.47132873535156 118.58360290527344" stroke-width="3.0" fill="none" stroke="rgb(0, 0, 0)" stroke-opacity="1.0" stroke-linecap="round" stroke-linejoin="round"/>
    <path d="M 129.81427001953125 158.65628051757812 C 135.19573974609375 139.4973907470703 126.60770416259766 127.39642333984375 143.32521057128906 127.07212829589844" stroke-width="3.0" fill="none" stroke="rgb(0, 0, 0)" stroke-opacity="1.0" stroke-linecap="round" stroke-linejoin="round"/>
    <path d="M 94.9997787475586 158.22935485839844 C 83.08854675292969 167.4950408935547 105.80472564697266 182.90768432617188 89.88174438476562 172.03689575195312" stroke-width="3.0" fill="none" stroke="rgb(0, 0, 0)" stroke-opacity="1.0" stroke-linecap="round" stroke-linejoin="round"/>
    <path d="M 99.98448181152344 127.79914855957031 C 119.33737182617188 132.7229766845703 103.88282012939453 131.87147521972656 126.1822280883789 122.34232330322266" stroke-width="3.0" fill="none" stroke="rgb(0, 0, 0)" stroke-opacity="1.0" stroke-linecap="round" stroke-linejoin="round"/>
    <path d="M 110.45443725585938 112.44717407226562 C 105.55947875976562 101.55152893066406 93.85407257080078 100.79279327392578 89.555419921875 102.05175018310547" stroke-width="3.0" fill="none" stroke="rgb(0, 0, 0)" stroke-opacity="1.0" stroke-linecap="round" stroke-linejoin="round"/>
    <path d="M 136.6461181640625 127.10404205322266 C 132.7291717529297 144.34381103515625 127.8650131225586 134.6457061767578 132.47828674316406 127.82347869873047" stroke-width="3.0" fill="none" stroke="rgb(0, 0, 0)" stroke-opacity="1.0" stroke-linecap="round" stroke-linejoin="round"/>
    <path d="M 82.4863052368164 81.96260833740234 C 73.8358154296875 74.52144622802734 81.23421478271484 81.16535186767578 81.21598815917969 79.6846694946289" stroke-width="3.0" fill="none" stroke="rgb(0, 0, 0)" stroke-opacity="1.0" stroke-linecap="round" stroke-linejoin="round"/>
    <path d="M 94.99054718017578 111.97624206542969 C 105.1756820678711 119.0433120727539 103.03659057617188 118.13249206542969 100.71419525146484 133.12168884277344" stroke-width="3.0" fill="none" stroke="rgb(0, 0, 0)" stroke-opacity="1.0" stroke-linecap="round" stroke-linejoin="round"/>
    <path d="M 54.72528839111328 74.49256896972656 C 29.286996841430664 102.13787078857422 37.80791473388672 95.61559295654297 63.410438537597656 77.11248016357422" stroke-width="3.0" fill="none" stroke="rgb(0, 0, 0)" stroke-opacity="1.0" stroke-linecap="round" stroke-linejoin="round"/>
    <path d="M 75.41350555419922 159.16261291503906 C 68.98759460449219 142.74322509765625 51.5872802734375 144.1216583251953 74.197509765625 128.8610076904297" stroke-width="3.0" fill="none" stroke="rgb(0, 0, 0)" stroke-opacity="1.0" stroke-linecap="round" stroke-linejoin="round"/>
    <path d="M 168.25418090820312 117.05548858642578 C 163.27015686035156 118.89270782470703 166.09291076660156 86.90731048583984 150.39801025390625 106.59426879882812" stroke-width="3.0" fill="none" stroke="rgb(0, 0, 0)" stroke-opacity="1.0" stroke-linecap="round" stroke-linejoin="round"/>
    <path d="M 135.84205627441406 107.17998504638672 C 121.66529083251953 111.82970428466797 119.94795989990234 106.15120697021484 109.97570037841797 121.16218566894531" stroke-width="3.0" fill="none" stroke="rgb(0, 0, 0)" stroke-opacity="1.0" stroke-linecap="round" stroke-linejoin="round"/>
    <path d="M 80.88832092285156 90.14757537841797 C 86.80223846435547 84.14143371582031 86.75502014160156 94.87596130371094 101.96813201904297 104.42295837402344" stroke-width="3.0" fill="none" stroke="rgb(0, 0, 0)" stroke-opacity="1.0" stroke-linecap="round" stroke-linejoin="round"/>
    <path d="M 128.38206481933594 122.92160034179688 C 129.31381225585938 115.91310119628906 108.4914779663086 116.38858795166016 113.85991668701172 125.70114135742188" stroke-width="3.0" fill="none" stroke="rgb(0, 0, 0)" stroke-opacity="1.0" stroke-linecap="round" stroke-linejoin="round"/>
    <path d="M 93.42736053466797 95.42127227783203 C 98.35880279541016 104.67884826660156 106.55514526367188 106.76077270507812 87.65664672851562 105.75479125976562" stroke-width="3.0" fill="none" stroke="rgb(0, 0, 0)" stroke-opacity="1.0" stroke-linecap="round" stroke-linejoin="round"/>
    <path d="M 128.48275756835938 116.95091247558594 C 139.9559326171875 115.25860595703125 139.04718017578125 100.71456909179688 128.8232421875 101.65833282470703" stroke-width="3.0" fill="none" stroke="rgb(0, 0, 0)" stroke-opacity="1.0" stroke-linecap="round" stroke-linejoin="round"/>
    <path d="M 78.55734252929688 80.93003845214844 C 67.45164489746094 73.77066040039062 76.17461395263672 77.48616790771484 78.395751953125 78.26840209960938" stroke-width="3.0" fill="none" stroke="rgb(0, 0, 0)" stroke-opacity="1.0" stroke-linecap="round" stroke-linejoin="round"/>
    <path d="M 132.8452606201172 110.0743637084961 C 143.732666015625 115.00614929199219 157.08213806152344 108.9510498046875 144.2542724609375 133.7260284423828" stroke-width="3.0" fill="none" stroke="rgb(0, 0, 0)" stroke-opacity="1.0" stroke-linecap="round" stroke-linejoin="round"/>
    <path d="M 126.83491516113281 108.43730163574219 C 124.96935272216797 104.03572845458984 118.79178619384766 109.98480224609375 115.49113464355469 128.57745361328125" stroke-width="3.0" fill="none" stroke="rgb(0, 0, 0)" stroke-opacity="1.0" stroke-linecap="round" stroke-linejoin="round"/>
    <path d="M 148.67428588867188 114.01368713378906 C 133.7556915283203 108.458984375 130.60870361328125 97.3600845336914 147.63372802734375 111.20887756347656" stroke-width="3.0" fill="none" stroke="rgb(0, 0, 0)" stroke-opacity="1.0" stroke-linecap="round" stroke-linejoin="round"/>
    <path d="M 141.318115234375 134.82318115234375 C 129.5487823486328 158.44198608398438 157.16392517089844 143.37451171875 115.44324493408203 170.1349639892578" stroke-width="3.0" fill="none" stroke="rgb(0, 0, 0)" stroke-opacity="1.0" stroke-linecap="round" stroke-linejoin="round"/>
    <path d="M 186.24705505371094 123.50635528564453 C 168.4201202392578 116.43269348144531 160.50723266601562 99.30073547363281 163.29957580566406 115.1744384765625" stroke-width="3.0" fill="none" stroke="rgb(0, 0, 0)" stroke-opacity="1.0" stroke-linecap="round" stroke-linejoin="round"/>
    <path d="M 128.99649047851562 102.32971954345703 C 130.84375 98.33961486816406 139.96133422851562 99.9630355834961 147.3422393798828 108.97550964355469" stroke-width="3.0" fill="none" stroke="rgb(0, 0, 0)" stroke-opacity="1.0" stroke-linecap="round" stroke-linejoin="round"/>
    <path d="M 70.33981323242188 93.61036682128906 C 64.37432098388672 87.24378204345703 80.50301361083984 99.7569580078125 72.5151596069336 119.86402130126953" stroke-width="3.0" fill="none" stroke="rgb(0, 0, 0)" stroke-opacity="1.0" stroke-linecap="round" stroke-linejoin="round"/>
    <path d="M 105.92443084716797 128.7928924560547 C 111.71773529052734 139.7533721923828 99.30363464355469 128.77792358398438 102.25756072998047 122.84910583496094" stroke-width="3.0" fill="none" stroke="rgb(0, 0, 0)" stroke-opacity="1.0" stroke-linecap="round" stroke-linejoin="round"/>
    <path d="M 77.47737884521484 78.44413757324219 C 77.20389556884766 82.72421264648438 85.1935043334961 89.127197265625 83.070556640625 82.45198059082031" stroke-width="3.0" fill="none" stroke="rgb(0, 0, 0)" stroke-opacity="1.0" stroke-linecap="round" stroke-linejoin="round"/>
    <path d="M 145.1338653564453 115.36805725097656 C 138.46044921875 113.85807800292969 130.19110107421875 106.51854705810547 122.80726623535156 114.46171569824219" stroke-width="3.0" fill="none" stroke="rgb(0, 0, 0)" stroke-opacity="1.0" stroke-linecap="round" stroke-linejoin="round"/>
    <path d="M 161.23619079589844 102.46057891845703 C 176.882568359375 119.23185729980469 187.80455017089844 124.10880279541016 174.59344482421875 122.1164779663086" stroke-width="3.0" fill="none" stroke="rgb(0, 0, 0)" stroke-opacity="1.0" stroke-linecap="round" stroke-linejoin="round"/>
    <path d="M 43.95376205444336 81.52252960205078 C 69.36534881591797 88.611572265625 72.32221221923828 96.1178970336914 72.94552612304688 93.51213836669922" stroke-width="3.0" fill="none" stroke="rgb(0, 0, 0)" stroke-opacity="1.0" stroke-linecap="round" stroke-linejoin="round"/>
    <path d="M 65.24349212646484 79.77869415283203 C 53.00736999511719 82.09280395507812 51.676856994628906 68.8642578125 51.993629455566406 72.8046875" stroke-width="3.0" fill="none" stroke="rgb(0, 0, 0)" stroke-opacity="1.0" stroke-linecap="round" stroke-linejoin="round"/>
  </g>
</svg>
