<?xml version="1.0" ?>
<svg xmlns="http://www.w3.org/2000/svg" version="1.1" width="224" height="224">
  <defs/>
  <g>
    <path d="M 148.97125244140625 111.75462341308594 C 109.65412902832031 89.51813507080078 68.70323181152344 115.77852630615234 120.94732666015625 99.74485778808594" stroke-width="3.0" fill="none" stroke="rgb(0, 0, 0)" stroke-opacity="1.0" stroke-linecap="round" stroke-linejoin="round"/>
    <path d="M 156.1907196044922 111.39468383789062 C 165.0581817626953 138.129150390625 249.26332092285156 141.7273406982422 182.84092712402344 127.60396575927734" stroke-width="3.0" fill="none" stroke="rgb(0, 0, 0)" stroke-opacity="1.0" stroke-linecap="round" stroke-linejoin="round"/>
    <path d="M 138.07411193847656 125.73599243164062 C 125.36978149414062 77.68412780761719 118.86740112304688 119.34857177734375 159.3931884765625 144.89598083496094" stroke-width="3.0" fill="none" stroke="rgb(0, 0, 0)" stroke-opacity="1.0" stroke-linecap="round" stroke-linejoin="round"/>
    <path d="M 134.8048553466797 148.91433715820312 C 103.66825866699219 73.27067565917969 122.8220443725586 121.2885971069336 158.37364196777344 102.39773559570312" stroke-width="3.0" fill="none" stroke="rgb(0, 0, 0)" stroke-opacity="1.0" stroke-linecap="round" stroke-linejoin="round"/>
    <path d="M 123.89627075195312 128.500732421875 C 116.83071899414062 95.2050552368164 62.40906524658203 81.8842544555664 74.68629455566406 132.47003173828125" stroke-width="3.0" fill="none" stroke="rgb(0, 0, 0)" stroke-opacity="1.0" stroke-linecap="round" stroke-linejoin="round"/>
    <path d="M 109.28713989257812 134.6278839111328 C 117.72896575927734 126.30751037597656 136.66769409179688 92.72472381591797 123.65235900878906 102.71141052246094" stroke-width="3.0" fill="none" stroke="rgb(0, 0, 0)" stroke-opacity="1.0" stroke-linecap="round" stroke-linejoin="round"/>
    <path d="M 84.57991027832031 119.76702880859375 C 52.55565643310547 137.48251342773438 134.56704711914062 86.19695281982422 48.00349044799805 86.21356201171875" stroke-width="3.0" fill="none" stroke="rgb(0, 0, 0)" stroke-opacity="1.0" stroke-linecap="round" stroke-linejoin="round"/>
    <path d="M 143.76132202148438 115.17113494873047 C 116.34867858886719 157.72393798828125 215.04556274414062 147.15652465820312 132.64007568359375 138.9307098388672" stroke-width="3.0" fill="none" stroke="rgb(0, 0, 0)" stroke-opacity="1.0" stroke-linecap="round" stroke-linejoin="round"/>
    <path d="M 182.54177856445312 162.85214233398438 C 180.9055633544922 145.54347229003906 202.1133575439453 180.92234802246094 162.81724548339844 144.2994384765625" stroke-width="3.0" fill="none" stroke="rgb(0, 0, 0)" stroke-opacity="1.0" stroke-linecap="round" stroke-linejoin="round"/>
    <path d="M 134.32284545898438 131.54025268554688 C 117.72977447509766 77.81835174560547 146.7715301513672 124.20783996582031 116.24177551269531 133.08900451660156" stroke-width="3.0" fill="none" stroke="rgb(0, 0, 0)" stroke-opacity="1.0" stroke-linecap="round" stroke-linejoin="round"/>
    <path d="M 138.7117462158203 151.31349182128906 C 149.90594482421875 118.90675354003906 151.32131958007812 85.08210754394531 130.563232421875 135.52542114257812" stroke-width="3.0" fill="none" stroke="rgb(0, 0, 0)" stroke-opacity="1.0" stroke-linecap="round" stroke-linejoin="round"/>
    <path d="M 143.45228576660156 106.78321838378906 C 81.73048400878906 107.0264892578125 90.58297729492188 99.38223266601562 73.22549438476562 80.93937683105469" stroke-width="3.0" fill="none" stroke="rgb(0, 0, 0)" stroke-opacity="1.0" stroke-linecap="round" stroke-linejoin="round"/>
    <path d="M 104.09266662597656 101.56157684326172 C 145.8021240234375 100.91898345947266 131.76853942871094 89.95230865478516 121.29056549072266 129.82009887695312" stroke-width="3.0" fill="none" stroke="rgb(0, 0, 0)" stroke-opacity="1.0" stroke-linecap="round" stroke-linejoin="round"/>
    <path d="M 98.50761413574219 149.8829345703125 C 148.87777709960938 143.57379150390625 138.94970703125 79.95628356933594 131.45018005371094 156.3270263671875" stroke-width="3.0" fill="none" stroke="rgb(0, 0, 0)" stroke-opacity="1.0" stroke-linecap="round" stroke-linejoin="round"/>
    <path d="M 81.29685974121094 89.21996307373047 C 52.34909439086914 58.65129470825195 30.247600555419922 113.85710906982422 67.2361068725586 87.43758392333984" stroke-width="3.0" fill="none" stroke="rgb(0, 0, 0)" stroke-opacity="1.0" stroke-linecap="round" stroke-linejoin="round"/>
    <path d="M 55.458038330078125 69.28949737548828 C 62.97639465332031 88.76592254638672 75.67886352539062 72.49313354492188 82.13890075683594 106.93611907958984" stroke-width="3.0" fill="none" stroke="rgb(0, 0, 0)" stroke-opacity="1.0" stroke-linecap="round" stroke-linejoin="round"/>
    <path d="M 91.38793182373047 101.3092041015625 C 57.040199279785156 71.83706665039062 12.83450698852539 89.3740005493164 68.88904571533203 90.83047485351562" stroke-width="3.0" fill="none" stroke="rgb(0, 0, 0)" stroke-opacity="1.0" stroke-linecap="round" stroke-linejoin="round"/>
    <path d="M 80.64925384521484 165.27931213378906 C 34.36371994018555 116.9891586303711 82.4363021850586 154.21612548828125 94.96922302246094 117.43444061279297" stroke-width="3.0" fill="none" stroke="rgb(0, 0, 0)" stroke-opacity="1.0" stroke-linecap="round" stroke-linejoin="round"/>
    <path d="M 131.25836181640625 113.7496337890625 C 162.55860900878906 150.22433471679688 160.83505249023438 77.42794036865234 109.81513977050781 104.964599609375" stroke-width="3.0" fill="none" stroke="rgb(0, 0, 0)" stroke-opacity="1.0" stroke-linecap="round" stroke-linejoin="round"/>
    <path d="M 131.70428466796875 117.6595230102539 C 132.15853881835938 207.2834014892578 154.00306701660156 107.15486907958984 134.49012756347656 100.03861236572266" stroke-width="3.0" fill="none" stroke="rgb(0, 0, 0)" stroke-opacity="1.0" stroke-linecap="round" stroke-linejoin="round"/>
    <path d="M 96.3072738647461 150.95555114746094 C 85.70597076416016 171.25547790527344 115.95836639404297 174.674560546875 94.56997680664062 160.70213317871094" stroke-width="3.0" fill="none" stroke="rgb(0, 0, 0)" stroke-opacity="1.0" stroke-linecap="round" stroke-linejoin="round"/>
    <path d="M 81.61878204345703 130.0685577392578 C 126.88900756835938 139.51783752441406 136.8896942138672 119.71369171142578 149.11424255371094 116.4153060913086" stroke-width="3.0" fill="none" stroke="rgb(0, 0, 0)" stroke-opacity="1.0" stroke-linecap="round" stroke-linejoin="round"/>
    <path d="M 134.91995239257812 100.403076171875 C 87.04705810546875 109.9229736328125 106.55522918701172 80.35076141357422 75.44696044921875 115.5411148071289" stroke-width="3.0" fill="none" stroke="rgb(0, 0, 0)" stroke-opacity="1.0" stroke-linecap="round" stroke-linejoin="round"/>
    <path d="M 140.585205078125 110.11846923828125 C 164.35337829589844 122.6234130859375 127.52812194824219 157.72216796875 143.13291931152344 136.4121551513672" stroke-width="3.0" fill="none" stroke="rgb(0, 0, 0)" stroke-opacity="1.0" stroke-linecap="round" stroke-linejoin="round"/>
    <path d="M 81.4249038696289 112.81993865966797 C 49.78428649902344 59.67982482910156 49.74958038330078 79.70489501953125 84.09685516357422 102.7536392211914" stroke-width="3.0" fill="none" stroke="rgb(0, 0, 0)" stroke-opacity="1.0" stroke-linecap="round" stroke-linejoin="round"/>
    <path d="M 76.95366668701172 119.98432922363281 C 130.55447387695312 136.01332092285156 107.44723510742188 133.87501525878906 98.18510437011719 122.80599975585938" stroke-width="3.0" fill="none" stroke="rgb(0, 0, 0)" stroke-opacity="1.0" stroke-linecap="round" stroke-linejoin="round"/>
    <path d="M 64.07037353515625 83.03535461425781 C 28.37192726135254 107.56343078613281 33.98896789550781 98.5433578491211 57.23252868652344 75.46949768066406" stroke-width="3.0" fill="none" stroke="rgb(0, 0, 0)" stroke-opacity="1.0" stroke-linecap="round" stroke-linejoin="round"/>
    <path d="M 81.83451843261719 169.3995819091797 C 96.78120422363281 158.33468627929688 23.387922286987305 141.31768798828125 98.40775299072266 122.73211669921875" stroke-width="3.0" fill="none" stroke="rgb(0, 0, 0)" stroke-opacity="1.0" stroke-linecap="round" stroke-linejoin="round"/>
    <path d="M 176.89178466796875 121.35295867919922 C 161.35589599609375 123.6612319946289 169.68446350097656 87.21401977539062 152.51376342773438 107.35816955566406" stroke-width="3.0" fill="none" stroke="rgb(0, 0, 0)" stroke-opacity="1.0" stroke-linecap="round" stroke-linejoin="round"/>
    <path d="M 110.14567565917969 145.05335998535156 C 166.73695373535156 102.78175354003906 142.49652099609375 88.25071716308594 116.18392944335938 143.55711364746094" stroke-width="3.0" fill="none" stroke="rgb(0, 0, 0)" stroke-opacity="1.0" stroke-linecap="round" stroke-linejoin="round"/>
    <path d="M 56.56261444091797 87.21141815185547 C 107.29045867919922 105.2617416381836 95.84320831298828 109.33175659179688 63.486106872558594 81.44110107421875" stroke-width="3.0" fill="none" stroke="rgb(0, 0, 0)" stroke-opacity="1.0" stroke-linecap="round" stroke-linejoin="round"/>
    <path d="M 139.1151885986328 103.01757049560547 C 153.31832885742188 132.91793823242188 140.21719360351562 120.73251342773438 128.1272735595703 133.0531463623047" stroke-width="3.0" fill="none" stroke="rgb(0, 0, 0)" stroke-opacity="1.0" stroke-linecap="round" stroke-linejoin="round"/>
    <path d="M 75.13623046875 88.58507537841797 C 125.77220153808594 121.2406234741211 102.2917251586914 102.68911743164062 77.08916473388672 104.25234985351562" stroke-width="3.0" fill="none" stroke="rgb(0, 0, 0)" stroke-opacity="1.0" stroke-linecap="round" stroke-linejoin="round"/>
    <path d="M 125.63648986816406 99.6347885131836 C 138.41641235351562 142.37449645996094 127.4898681640625 112.94429016113281 125.3320541381836 102.17042541503906" stroke-width="3.0" fill="none" stroke="rgb(0, 0, 0)" stroke-opacity="1.0" stroke-linecap="round" stroke-linejoin="round"/>
    <path d="M 69.13565826416016 88.01020812988281 C 18.492563247680664 104.51549530029297 77.51853942871094 55.17197036743164 88.1104507446289 98.86444091796875" stroke-width="3.0" fill="none" stroke="rgb(0, 0, 0)" stroke-opacity="1.0" stroke-linecap="round" stroke-linejoin="round"/>
    <path d="M 130.0214080810547 118.52698516845703 C 105.29212951660156 169.6522216796875 140.4222412109375 113.0213394165039 118.62944030761719 135.82025146484375" stroke-width="3.0" fill="none" stroke="rgb(0, 0, 0)" stroke-opacity="1.0" stroke-linecap="round" stroke-linejoin="round"/>
    <path d="M 109.23117065429688 132.66531372070312 C 145.81524658203125 111.81470489501953 134.02557373046875 126.79127502441406 109.57280731201172 109.81633758544922" stroke-width="3.0" fill="none" stroke="rgb(0, 0, 0)" stroke-opacity="1.0" stroke-linecap="round" stroke-linejoin="round"/>
    <path d="M 140.0620574951172 148.169677734375 C 134.15660095214844 129.596923828125 160.8275604248047 117.41986083984375 125.39417266845703 113.25981903076172" stroke-width="3.0" fill="none" stroke="rgb(0, 0, 0)" stroke-opacity="1.0" stroke-linecap="round" stroke-linejoin="round"/>
    <path d="M 114.61262512207031 102.47154235839844 C 146.28598022460938 146.9505157470703 172.2705535888672 117.31400299072266 110.75605773925781 176.36154174804688" stroke-width="3.0" fill="none" stroke="rgb(0, 0, 0)" stroke-opacity="1.0" stroke-linecap="round" stroke-linejoin="round"/>
    <path d="M 204.0387725830078 131.82440185546875 C 138.53944396972656 136.70472717285156 131.56622314453125 126.18653869628906 193.79420471191406 131.72061157226562" stroke-width="3.0" fill="none" stroke="rgb(0, 0, 0)" stroke-opacity="1.0" stroke-linecap="round" stroke-linejoin="round"/>
    <path d="M 124.97752380371094 138.00442504882812 C 91.28763580322266 99.99102020263672 169.44680786132812 93.08415985107422 138.31466674804688 139.0686492919922" stroke-width="3.0" fill="none" stroke="rgb(0, 0, 0)" stroke-opacity="1.0" stroke-linecap="round" stroke-linejoin="round"/>
    <path d="M 81.93370056152344 109.18498992919922 C 47.160888671875 61.2940788269043 80.62322998046875 79.14582824707031 79.88927459716797 123.75713348388672" stroke-width="3.0" fill="none" stroke="rgb(0, 0, 0)" stroke-opacity="1.0" stroke-linecap="round" stroke-linejoin="round"/>
    <path d="M 75.38011932373047 126.68402099609375 C 172.30458068847656 139.5909423828125 104.06748962402344 138.7031707763672 75.46611022949219 129.94375610351562" stroke-width="3.0" fill="none" stroke="rgb(0, 0, 0)" stroke-opacity="1.0" stroke-linecap="round" stroke-linejoin="round"/>
    <path d="M 53.070308685302734 72.62702941894531 C 121.18376159667969 73.77374267578125 92.39368438720703 146.0177001953125 64.4074478149414 88.78483581542969" stroke-width="3.0" fill="none" stroke="rgb(0, 0, 0)" stroke-opacity="1.0" stroke-linecap="round" stroke-linejoin="round"/>
    <path d="M 136.91812133789062 118.50569152832031 C 118.89889526367188 105.22444152832031 155.99134826660156 90.59522247314453 144.27890014648438 131.94700622558594" stroke-width="3.0" fill="none" stroke="rgb(0, 0, 0)" stroke-opacity="1.0" stroke-linecap="round" stroke-linejoin="round"/>
    <path d="M 154.973876953125 102.24300384521484 C 183.70997619628906 128.8890380859375 202.39688110351562 139.7926788330078 158.4720458984375 102.79519653320312" stroke-width="3.0" fill="none" stroke="rgb(0, 0, 0)" stroke-opacity="1.0" stroke-linecap="round" stroke-linejoin="round"/>
    <path d="M 53.910430908203125 83.35003662109375 C 65.20039367675781 94.81317138671875 55.75856399536133 66.81224060058594 77.32782745361328 116.317138671875" stroke-width="3.0" fill="none" stroke="rgb(0, 0, 0)" stroke-opacity="1.0" stroke-linecap="round" stroke-linejoin="round"/>
    <path d="M 65.2458724975586 75.6181869506836 C 36.34178924560547 122.87083435058594 29.92288589477539 82.54154968261719 67.2426986694336 81.8138198852539" stroke-width="3.0" fill="none" stroke="rgb(0, 0, 0)" stroke-opacity="1.0" stroke-linecap="round" stroke-linejoin="round"/>
  </g>
</svg>
