<?xml version="1.0" ?>
<svg xmlns="http://www.w3.org/2000/svg" version="1.1" width="224" height="224">
  <defs/>
  <g>
    <path d="M 61.15873336791992 98.7359848022461 C 74.86316680908203 127.64371490478516 51.32490539550781 138.42279052734375 92.30592346191406 150.9591827392578" stroke-width="3.0" fill="none" stroke="rgb(0, 0, 0)" stroke-opacity="1.0" stroke-linecap="round" stroke-linejoin="round"/>
    <path d="M 158.45986938476562 173.93202209472656 C 185.4636993408203 145.17066955566406 191.99085998535156 150.26756286621094 164.7461395263672 170.1888427734375" stroke-width="3.0" fill="none" stroke="rgb(0, 0, 0)" stroke-opacity="1.0" stroke-linecap="round" stroke-linejoin="round"/>
    <path d="M 79.33676147460938 138.1064910888672 C 114.49565887451172 168.4172821044922 99.43839263916016 145.47860717773438 132.9727325439453 144.92628479003906" stroke-width="3.0" fill="none" stroke="rgb(0, 0, 0)" stroke-opacity="1.0" stroke-linecap="round" stroke-linejoin="round"/>
    <path d="M 114.43975067138672 61.65130615234375 C 170.93309020996094 95.7894287109375 156.83726501464844 145.82345581054688 121.53002166748047 146.21163940429688" stroke-width="3.0" fill="none" stroke="rgb(0, 0, 0)" stroke-opacity="1.0" stroke-linecap="round" stroke-linejoin="round"/>
    <path d="M 169.03785705566406 59.869686126708984 C 201.5459747314453 87.45942687988281 178.81602478027344 82.28596496582031 189.88027954101562 112.09024810791016" stroke-width="3.0" fill="none" stroke="rgb(0, 0, 0)" stroke-opacity="1.0" stroke-linecap="round" stroke-linejoin="round"/>
    <path d="M 162.0814971923828 75.40276336669922 C 186.65045166015625 76.79734802246094 171.0990447998047 137.1575469970703 149.5406951904297 144.64773559570312" stroke-width="3.0" fill="none" stroke="rgb(0, 0, 0)" stroke-opacity="1.0" stroke-linecap="round" stroke-linejoin="round"/>
    <path d="M 47.318267822265625 141.87522888183594 C 36.150306701660156 107.82843017578125 41.73640823364258 153.5878143310547 43.79511642456055 159.0610809326172" stroke-width="3.0" fill="none" stroke="rgb(0, 0, 0)" stroke-opacity="1.0" stroke-linecap="round" stroke-linejoin="round"/>
    <path d="M 150.343017578125 169.0607147216797 C 193.76060485839844 163.07693481445312 184.11569213867188 149.31126403808594 155.2396240234375 172.7475128173828" stroke-width="3.0" fill="none" stroke="rgb(0, 0, 0)" stroke-opacity="1.0" stroke-linecap="round" stroke-linejoin="round"/>
    <path d="M 123.96247863769531 193.83775329589844 C 95.31011962890625 189.07571411132812 110.28861236572266 199.6420440673828 114.55176544189453 191.9620361328125" stroke-width="3.0" fill="none" stroke="rgb(0, 0, 0)" stroke-opacity="1.0" stroke-linecap="round" stroke-linejoin="round"/>
    <path d="M 128.57130432128906 49.14451217651367 C 205.87733459472656 96.95220947265625 177.43338012695312 117.96973419189453 185.2209014892578 138.20533752441406" stroke-width="3.0" fill="none" stroke="rgb(0, 0, 0)" stroke-opacity="1.0" stroke-linecap="round" stroke-linejoin="round"/>
    <path d="M 92.80997467041016 183.2393341064453 C 52.833534240722656 178.22076416015625 71.24038696289062 187.01087951660156 61.781349182128906 174.95762634277344" stroke-width="3.0" fill="none" stroke="rgb(0, 0, 0)" stroke-opacity="1.0" stroke-linecap="round" stroke-linejoin="round"/>
    <path d="M 114.82732391357422 135.5911865234375 C 78.06945037841797 145.99269104003906 53.703433990478516 110.18464660644531 79.86185455322266 74.96160888671875" stroke-width="3.0" fill="none" stroke="rgb(0, 0, 0)" stroke-opacity="1.0" stroke-linecap="round" stroke-linejoin="round"/>
    <path d="M 52.05710220336914 148.14007568359375 C 52.00513458251953 142.79954528808594 36.950748443603516 132.54672241210938 48.93708419799805 141.59536743164062" stroke-width="3.0" fill="none" stroke="rgb(0, 0, 0)" stroke-opacity="1.0" stroke-linecap="round" stroke-linejoin="round"/>
    <path d="M 92.49099731445312 182.9558563232422 C 100.6843032836914 197.2641143798828 151.2716827392578 202.49501037597656 96.34944915771484 186.29013061523438" stroke-width="3.0" fill="none" stroke="rgb(0, 0, 0)" stroke-opacity="1.0" stroke-linecap="round" stroke-linejoin="round"/>
    <path d="M 70.8725357055664 40.3288688659668 C 99.68749237060547 54.50991439819336 68.56935119628906 15.722484588623047 140.75628662109375 45.167442321777344" stroke-width="3.0" fill="none" stroke="rgb(0, 0, 0)" stroke-opacity="1.0" stroke-linecap="round" stroke-linejoin="round"/>
    <path d="M 101.05103302001953 30.817325592041016 C 135.24623107910156 48.44786071777344 96.15984344482422 35.509578704833984 151.97181701660156 62.35908126831055" stroke-width="3.0" fill="none" stroke="rgb(0, 0, 0)" stroke-opacity="1.0" stroke-linecap="round" stroke-linejoin="round"/>
    <path d="M 127.89899444580078 39.726688385009766 C 158.8677215576172 57.7889518737793 147.56861877441406 26.065298080444336 180.17784118652344 89.02206420898438" stroke-width="3.0" fill="none" stroke="rgb(0, 0, 0)" stroke-opacity="1.0" stroke-linecap="round" stroke-linejoin="round"/>
    <path d="M 65.42533111572266 179.6101837158203 C 54.70458984375 163.9536895751953 44.97714614868164 178.33245849609375 40.1908073425293 130.34661865234375" stroke-width="3.0" fill="none" stroke="rgb(0, 0, 0)" stroke-opacity="1.0" stroke-linecap="round" stroke-linejoin="round"/>
    <path d="M 77.6490478515625 166.42835998535156 C 120.16551208496094 166.1490020751953 104.03411865234375 164.59317016601562 127.65320587158203 157.83355712890625" stroke-width="3.0" fill="none" stroke="rgb(0, 0, 0)" stroke-opacity="1.0" stroke-linecap="round" stroke-linejoin="round"/>
    <path d="M 160.7145233154297 174.71847534179688 C 172.22865295410156 162.47019958496094 135.17999267578125 174.21774291992188 160.84127807617188 168.80355834960938" stroke-width="3.0" fill="none" stroke="rgb(0, 0, 0)" stroke-opacity="1.0" stroke-linecap="round" stroke-linejoin="round"/>
    <path d="M 150.42373657226562 189.1268310546875 C 129.6288604736328 196.54624938964844 142.30435180664062 193.4475555419922 114.17864990234375 191.9704132080078" stroke-width="3.0" fill="none" stroke="rgb(0, 0, 0)" stroke-opacity="1.0" stroke-linecap="round" stroke-linejoin="round"/>
    <path d="M 49.709144592285156 143.50894165039062 C 62.1944580078125 149.40066528320312 54.49652099609375 168.36669921875 89.5506591796875 166.4428253173828" stroke-width="3.0" fill="none" stroke="rgb(0, 0, 0)" stroke-opacity="1.0" stroke-linecap="round" stroke-linejoin="round"/>
    <path d="M 44.61141586303711 136.2545166015625 C 28.226980209350586 65.0326156616211 26.684738159179688 110.10243225097656 37.31626892089844 67.30136108398438" stroke-width="3.0" fill="none" stroke="rgb(0, 0, 0)" stroke-opacity="1.0" stroke-linecap="round" stroke-linejoin="round"/>
    <path d="M 83.5703125 169.61639404296875 C 115.24755096435547 159.94723510742188 129.4387664794922 160.35650634765625 147.45423889160156 145.82186889648438" stroke-width="3.0" fill="none" stroke="rgb(0, 0, 0)" stroke-opacity="1.0" stroke-linecap="round" stroke-linejoin="round"/>
    <path d="M 37.16353988647461 76.24308013916016 C 34.665870666503906 34.87507629394531 68.58924102783203 49.57781982421875 67.37953186035156 39.35486602783203" stroke-width="3.0" fill="none" stroke="rgb(0, 0, 0)" stroke-opacity="1.0" stroke-linecap="round" stroke-linejoin="round"/>
    <path d="M 190.0701141357422 114.18103790283203 C 190.88563537597656 106.98719787597656 179.85057067871094 178.29759216308594 183.1500701904297 147.62330627441406" stroke-width="3.0" fill="none" stroke="rgb(0, 0, 0)" stroke-opacity="1.0" stroke-linecap="round" stroke-linejoin="round"/>
    <path d="M 61.052284240722656 55.46181869506836 C 79.11377716064453 41.949039459228516 80.21481323242188 43.37368392944336 131.3847198486328 50.48616409301758" stroke-width="3.0" fill="none" stroke="rgb(0, 0, 0)" stroke-opacity="1.0" stroke-linecap="round" stroke-linejoin="round"/>
    <path d="M 149.4245147705078 189.56015014648438 C 166.1971893310547 176.68783569335938 152.9809112548828 196.5522918701172 171.94503784179688 160.83897399902344" stroke-width="3.0" fill="none" stroke="rgb(0, 0, 0)" stroke-opacity="1.0" stroke-linecap="round" stroke-linejoin="round"/>
    <path d="M 103.8104019165039 124.10942840576172 C 88.87694549560547 73.47492218017578 61.477821350097656 112.4004898071289 102.1756820678711 136.828857421875" stroke-width="3.0" fill="none" stroke="rgb(0, 0, 0)" stroke-opacity="1.0" stroke-linecap="round" stroke-linejoin="round"/>
    <path d="M 117.3359603881836 88.70403289794922 C 64.7806396484375 78.64139556884766 92.14607238769531 105.17140197753906 89.11131286621094 125.28740692138672" stroke-width="3.0" fill="none" stroke="rgb(0, 0, 0)" stroke-opacity="1.0" stroke-linecap="round" stroke-linejoin="round"/>
    <path d="M 65.36651611328125 50.969451904296875 C 53.259239196777344 64.25735473632812 50.242923736572266 67.07022857666016 46.30720138549805 83.64804077148438" stroke-width="3.0" fill="none" stroke="rgb(0, 0, 0)" stroke-opacity="1.0" stroke-linecap="round" stroke-linejoin="round"/>
    <path d="M 159.92401123046875 177.13565063476562 C 129.02394104003906 158.7122802734375 155.8855743408203 178.7539825439453 168.85914611816406 124.88684844970703" stroke-width="3.0" fill="none" stroke="rgb(0, 0, 0)" stroke-opacity="1.0" stroke-linecap="round" stroke-linejoin="round"/>
  </g>
</svg>
