<?xml version="1.0" ?>
<svg xmlns="http://www.w3.org/2000/svg" version="1.1" width="224" height="224">
  <defs/>
  <g>
    <path d="M 59.9345817565918 97.88709259033203 C 74.55604553222656 130.00015258789062 49.96137619018555 153.04843139648438 105.27582550048828 146.3259735107422" stroke-width="3.0" fill="none" stroke="rgb(0, 0, 0)" stroke-opacity="1.0" stroke-linecap="round" stroke-linejoin="round"/>
    <path d="M 160.35411071777344 174.2880859375 C 192.35169982910156 152.56442260742188 189.3176727294922 148.99925231933594 168.30052185058594 168.45486450195312" stroke-width="3.0" fill="none" stroke="rgb(0, 0, 0)" stroke-opacity="1.0" stroke-linecap="round" stroke-linejoin="round"/>
    <path d="M 81.9358139038086 132.49671936035156 C 114.709228515625 157.44432067871094 116.72203063964844 138.10275268554688 130.17710876464844 136.8917694091797" stroke-width="3.0" fill="none" stroke="rgb(0, 0, 0)" stroke-opacity="1.0" stroke-linecap="round" stroke-linejoin="round"/>
    <path d="M 115.5627212524414 58.445491790771484 C 173.669921875 103.25354766845703 156.89309692382812 137.28807067871094 118.5566635131836 141.57640075683594" stroke-width="3.0" fill="none" stroke="rgb(0, 0, 0)" stroke-opacity="1.0" stroke-linecap="round" stroke-linejoin="round"/>
    <path d="M 170.21031188964844 62.160606384277344 C 198.67454528808594 85.79475402832031 187.40274047851562 75.53309631347656 187.5168914794922 106.92896270751953" stroke-width="3.0" fill="none" stroke="rgb(0, 0, 0)" stroke-opacity="1.0" stroke-linecap="round" stroke-linejoin="round"/>
    <path d="M 161.3492431640625 73.26326751708984 C 184.1840057373047 78.77619934082031 168.39353942871094 137.5278778076172 151.6698455810547 158.06922912597656" stroke-width="3.0" fill="none" stroke="rgb(0, 0, 0)" stroke-opacity="1.0" stroke-linecap="round" stroke-linejoin="round"/>
    <path d="M 40.86362075805664 130.50694274902344 C 31.782896041870117 100.3796615600586 33.976619720458984 135.5022430419922 39.80641555786133 150.47412109375" stroke-width="3.0" fill="none" stroke="rgb(0, 0, 0)" stroke-opacity="1.0" stroke-linecap="round" stroke-linejoin="round"/>
    <path d="M 165.0167999267578 167.51914978027344 C 193.47128295898438 158.96011352539062 187.08294677734375 156.28431701660156 158.58119201660156 172.36221313476562" stroke-width="3.0" fill="none" stroke="rgb(0, 0, 0)" stroke-opacity="1.0" stroke-linecap="round" stroke-linejoin="round"/>
    <path d="M 105.38472747802734 195.3391571044922 C 89.77267456054688 185.0947265625 108.44805908203125 197.0387725830078 125.92902374267578 195.43234252929688" stroke-width="3.0" fill="none" stroke="rgb(0, 0, 0)" stroke-opacity="1.0" stroke-linecap="round" stroke-linejoin="round"/>
    <path d="M 130.63961791992188 51.0141716003418 C 195.1790771484375 97.23371124267578 175.98159790039062 88.04610443115234 188.0902862548828 134.54310607910156" stroke-width="3.0" fill="none" stroke="rgb(0, 0, 0)" stroke-opacity="1.0" stroke-linecap="round" stroke-linejoin="round"/>
    <path d="M 92.80549621582031 181.08677673339844 C 58.72821044921875 182.70916748046875 70.2905044555664 173.9968719482422 56.54429626464844 170.57196044921875" stroke-width="3.0" fill="none" stroke="rgb(0, 0, 0)" stroke-opacity="1.0" stroke-linecap="round" stroke-linejoin="round"/>
    <path d="M 114.15872955322266 144.32257080078125 C 71.54957580566406 139.04344177246094 55.71001434326172 113.3389663696289 88.93788146972656 78.42304229736328" stroke-width="3.0" fill="none" stroke="rgb(0, 0, 0)" stroke-opacity="1.0" stroke-linecap="round" stroke-linejoin="round"/>
    <path d="M 51.20273971557617 149.83230590820312 C 40.67958068847656 139.2415313720703 35.15420150756836 127.06055450439453 49.88286209106445 149.39645385742188" stroke-width="3.0" fill="none" stroke="rgb(0, 0, 0)" stroke-opacity="1.0" stroke-linecap="round" stroke-linejoin="round"/>
    <path d="M 82.91625213623047 180.19427490234375 C 103.94213104248047 194.85772705078125 141.72531127929688 195.24586486816406 107.43746948242188 195.56739807128906" stroke-width="3.0" fill="none" stroke="rgb(0, 0, 0)" stroke-opacity="1.0" stroke-linecap="round" stroke-linejoin="round"/>
    <path d="M 69.7857666015625 40.59817886352539 C 104.76002502441406 39.98893737792969 86.9527359008789 17.24440574645996 131.92303466796875 40.5011100769043" stroke-width="3.0" fill="none" stroke="rgb(0, 0, 0)" stroke-opacity="1.0" stroke-linecap="round" stroke-linejoin="round"/>
    <path d="M 103.22703552246094 31.07621955871582 C 133.2188720703125 56.63609313964844 99.9324951171875 44.96393585205078 130.3521728515625 52.34621810913086" stroke-width="3.0" fill="none" stroke="rgb(0, 0, 0)" stroke-opacity="1.0" stroke-linecap="round" stroke-linejoin="round"/>
    <path d="M 134.92161560058594 39.253684997558594 C 151.4500732421875 54.92777633666992 149.78965759277344 28.220245361328125 187.55821228027344 96.22209167480469" stroke-width="3.0" fill="none" stroke="rgb(0, 0, 0)" stroke-opacity="1.0" stroke-linecap="round" stroke-linejoin="round"/>
    <path d="M 66.29034423828125 179.14222717285156 C 59.921165466308594 163.4237518310547 46.14679718017578 179.44357299804688 37.00721740722656 144.77244567871094" stroke-width="3.0" fill="none" stroke="rgb(0, 0, 0)" stroke-opacity="1.0" stroke-linecap="round" stroke-linejoin="round"/>
    <path d="M 79.84091186523438 169.46803283691406 C 115.88854217529297 168.11886596679688 108.15482330322266 157.6896209716797 124.96654510498047 158.16404724121094" stroke-width="3.0" fill="none" stroke="rgb(0, 0, 0)" stroke-opacity="1.0" stroke-linecap="round" stroke-linejoin="round"/>
    <path d="M 161.22503662109375 177.2847442626953 C 179.5709991455078 155.94483947753906 154.5885467529297 187.2743682861328 162.89125061035156 171.70803833007812" stroke-width="3.0" fill="none" stroke="rgb(0, 0, 0)" stroke-opacity="1.0" stroke-linecap="round" stroke-linejoin="round"/>
    <path d="M 148.58055114746094 190.5674285888672 C 132.4942169189453 200.60385131835938 132.77935791015625 189.15191650390625 115.95203399658203 197.24229431152344" stroke-width="3.0" fill="none" stroke="rgb(0, 0, 0)" stroke-opacity="1.0" stroke-linecap="round" stroke-linejoin="round"/>
    <path d="M 48.53001403808594 150.09756469726562 C 48.112510681152344 143.9339599609375 58.632240295410156 172.72457885742188 83.95137786865234 168.5579376220703" stroke-width="3.0" fill="none" stroke="rgb(0, 0, 0)" stroke-opacity="1.0" stroke-linecap="round" stroke-linejoin="round"/>
    <path d="M 36.759769439697266 145.3885955810547 C 34.954063415527344 69.68865203857422 22.886722564697266 105.3871078491211 32.01178741455078 74.55848693847656" stroke-width="3.0" fill="none" stroke="rgb(0, 0, 0)" stroke-opacity="1.0" stroke-linecap="round" stroke-linejoin="round"/>
    <path d="M 90.8747329711914 171.88143920898438 C 116.31665802001953 163.1682891845703 128.50814819335938 158.8952178955078 141.59437561035156 141.97354125976562" stroke-width="3.0" fill="none" stroke="rgb(0, 0, 0)" stroke-opacity="1.0" stroke-linecap="round" stroke-linejoin="round"/>
    <path d="M 31.471494674682617 82.59000396728516 C 34.94078826904297 32.43501281738281 68.33660888671875 50.21824264526367 68.81349182128906 41.63507843017578" stroke-width="3.0" fill="none" stroke="rgb(0, 0, 0)" stroke-opacity="1.0" stroke-linecap="round" stroke-linejoin="round"/>
    <path d="M 188.20867919921875 107.876220703125 C 196.12701416015625 127.34809875488281 179.28109741210938 172.81724548339844 183.54476928710938 156.274658203125" stroke-width="3.0" fill="none" stroke="rgb(0, 0, 0)" stroke-opacity="1.0" stroke-linecap="round" stroke-linejoin="round"/>
    <path d="M 57.664085388183594 62.05167007446289 C 66.42064666748047 56.328041076660156 79.1944351196289 46.87453079223633 118.18338775634766 49.935604095458984" stroke-width="3.0" fill="none" stroke="rgb(0, 0, 0)" stroke-opacity="1.0" stroke-linecap="round" stroke-linejoin="round"/>
    <path d="M 150.77452087402344 190.49050903320312 C 162.8539581298828 177.47048950195312 154.8628692626953 193.10733032226562 170.81442260742188 165.6824188232422" stroke-width="3.0" fill="none" stroke="rgb(0, 0, 0)" stroke-opacity="1.0" stroke-linecap="round" stroke-linejoin="round"/>
    <path d="M 99.8256607055664 130.52793884277344 C 84.2459487915039 77.2595443725586 65.40228271484375 106.89762115478516 100.99545288085938 141.82679748535156" stroke-width="3.0" fill="none" stroke="rgb(0, 0, 0)" stroke-opacity="1.0" stroke-linecap="round" stroke-linejoin="round"/>
    <path d="M 112.29752349853516 88.39595794677734 C 74.12992858886719 85.57776641845703 88.37491607666016 104.81171417236328 87.78439331054688 124.59809875488281" stroke-width="3.0" fill="none" stroke="rgb(0, 0, 0)" stroke-opacity="1.0" stroke-linecap="round" stroke-linejoin="round"/>
    <path d="M 62.78508377075195 59.06332015991211 C 58.38653564453125 64.04041290283203 51.92793655395508 65.63179016113281 45.410709381103516 81.03961181640625" stroke-width="3.0" fill="none" stroke="rgb(0, 0, 0)" stroke-opacity="1.0" stroke-linecap="round" stroke-linejoin="round"/>
    <path d="M 162.33004760742188 173.936767578125 C 141.77005004882812 160.5709228515625 157.40667724609375 156.3595428466797 147.12472534179688 138.97750854492188" stroke-width="3.0" fill="none" stroke="rgb(0, 0, 0)" stroke-opacity="1.0" stroke-linecap="round" stroke-linejoin="round"/>
  </g>
</svg>
