<?xml version="1.0" ?>
<svg xmlns="http://www.w3.org/2000/svg" version="1.1" width="224" height="224">
  <defs/>
  <g>
    <path d="M 57.770843505859375 98.87644958496094 C 70.62409973144531 127.97460174560547 53.97577667236328 139.075927734375 84.07440185546875 145.45425415039062" stroke-width="3.0" fill="none" stroke="rgb(0, 0, 0)" stroke-opacity="1.0" stroke-linecap="round" stroke-linejoin="round"/>
    <path d="M 154.69485473632812 173.31222534179688 C 186.45144653320312 144.2847137451172 190.2724151611328 142.697998046875 166.1383514404297 168.6380615234375" stroke-width="3.0" fill="none" stroke="rgb(0, 0, 0)" stroke-opacity="1.0" stroke-linecap="round" stroke-linejoin="round"/>
    <path d="M 78.05199432373047 138.2127685546875 C 114.97853088378906 167.2207794189453 104.0319595336914 146.15655517578125 134.01112365722656 143.13546752929688" stroke-width="3.0" fill="none" stroke="rgb(0, 0, 0)" stroke-opacity="1.0" stroke-linecap="round" stroke-linejoin="round"/>
    <path d="M 117.48625183105469 62.76564407348633 C 170.42709350585938 95.42218780517578 155.88607788085938 147.4670867919922 124.73043823242188 144.96209716796875" stroke-width="3.0" fill="none" stroke="rgb(0, 0, 0)" stroke-opacity="1.0" stroke-linecap="round" stroke-linejoin="round"/>
    <path d="M 169.88613891601562 60.83060836791992 C 199.40869140625 85.4113540649414 180.2361602783203 81.86699676513672 189.29708862304688 113.5764389038086" stroke-width="3.0" fill="none" stroke="rgb(0, 0, 0)" stroke-opacity="1.0" stroke-linecap="round" stroke-linejoin="round"/>
    <path d="M 160.52772521972656 73.30075073242188 C 188.38775634765625 74.1647720336914 172.16397094726562 137.7305450439453 149.188720703125 145.2988739013672" stroke-width="3.0" fill="none" stroke="rgb(0, 0, 0)" stroke-opacity="1.0" stroke-linecap="round" stroke-linejoin="round"/>
    <path d="M 43.399784088134766 142.9961700439453 C 30.05207633972168 107.7774429321289 35.622554779052734 148.3060302734375 41.80564498901367 156.60623168945312" stroke-width="3.0" fill="none" stroke="rgb(0, 0, 0)" stroke-opacity="1.0" stroke-linecap="round" stroke-linejoin="round"/>
    <path d="M 146.12896728515625 169.51217651367188 C 196.81515502929688 163.2193145751953 181.96456909179688 147.8993377685547 154.40089416503906 171.85012817382812" stroke-width="3.0" fill="none" stroke="rgb(0, 0, 0)" stroke-opacity="1.0" stroke-linecap="round" stroke-linejoin="round"/>
    <path d="M 125.82649230957031 194.23681640625 C 98.5127182006836 189.54107666015625 114.29765319824219 199.46119689941406 117.68401336669922 193.5469970703125" stroke-width="3.0" fill="none" stroke="rgb(0, 0, 0)" stroke-opacity="1.0" stroke-linecap="round" stroke-linejoin="round"/>
    <path d="M 131.5665283203125 51.704654693603516 C 204.33364868164062 94.61260986328125 177.5804901123047 120.8526840209961 184.14154052734375 138.21234130859375" stroke-width="3.0" fill="none" stroke="rgb(0, 0, 0)" stroke-opacity="1.0" stroke-linecap="round" stroke-linejoin="round"/>
    <path d="M 91.71664428710938 182.44183349609375 C 55.312381744384766 170.97975158691406 74.10932922363281 185.27078247070312 62.55668640136719 172.89039611816406" stroke-width="3.0" fill="none" stroke="rgb(0, 0, 0)" stroke-opacity="1.0" stroke-linecap="round" stroke-linejoin="round"/>
    <path d="M 115.89543151855469 136.15794372558594 C 73.85533905029297 144.47943115234375 52.781715393066406 116.15984344482422 78.74607849121094 76.83308410644531" stroke-width="3.0" fill="none" stroke="rgb(0, 0, 0)" stroke-opacity="1.0" stroke-linecap="round" stroke-linejoin="round"/>
    <path d="M 48.66326904296875 148.56431579589844 C 48.08699035644531 147.09010314941406 36.61388397216797 135.13311767578125 46.794925689697266 147.70166015625" stroke-width="3.0" fill="none" stroke="rgb(0, 0, 0)" stroke-opacity="1.0" stroke-linecap="round" stroke-linejoin="round"/>
    <path d="M 93.54178619384766 181.83872985839844 C 105.65001678466797 197.59234619140625 153.00135803222656 199.29806518554688 98.88528442382812 187.4550323486328" stroke-width="3.0" fill="none" stroke="rgb(0, 0, 0)" stroke-opacity="1.0" stroke-linecap="round" stroke-linejoin="round"/>
    <path d="M 69.2913818359375 38.042171478271484 C 99.16352081298828 52.953853607177734 72.87935638427734 15.062848091125488 141.7255859375 41.90480422973633" stroke-width="3.0" fill="none" stroke="rgb(0, 0, 0)" stroke-opacity="1.0" stroke-linecap="round" stroke-linejoin="round"/>
    <path d="M 101.19123077392578 28.77851676940918 C 124.38495635986328 45.423728942871094 88.01660919189453 35.610164642333984 144.06112670898438 57.4482536315918" stroke-width="3.0" fill="none" stroke="rgb(0, 0, 0)" stroke-opacity="1.0" stroke-linecap="round" stroke-linejoin="round"/>
    <path d="M 126.9182357788086 35.55888366699219 C 162.6502227783203 55.46406555175781 148.34420776367188 26.194236755371094 187.537841796875 91.07211303710938" stroke-width="3.0" fill="none" stroke="rgb(0, 0, 0)" stroke-opacity="1.0" stroke-linecap="round" stroke-linejoin="round"/>
    <path d="M 67.37509155273438 176.75340270996094 C 54.84492874145508 164.16595458984375 45.401039123535156 178.36514282226562 37.57286071777344 134.740478515625" stroke-width="3.0" fill="none" stroke="rgb(0, 0, 0)" stroke-opacity="1.0" stroke-linecap="round" stroke-linejoin="round"/>
    <path d="M 78.24571990966797 166.50634765625 C 129.66201782226562 166.36215209960938 104.8388442993164 159.58572387695312 128.56385803222656 157.34246826171875" stroke-width="3.0" fill="none" stroke="rgb(0, 0, 0)" stroke-opacity="1.0" stroke-linecap="round" stroke-linejoin="round"/>
    <path d="M 158.38485717773438 173.4568328857422 C 177.371337890625 161.35089111328125 138.32675170898438 170.3522491455078 161.5886688232422 172.26414489746094" stroke-width="3.0" fill="none" stroke="rgb(0, 0, 0)" stroke-opacity="1.0" stroke-linecap="round" stroke-linejoin="round"/>
    <path d="M 150.86874389648438 190.62074279785156 C 134.3224334716797 195.79876708984375 140.1278076171875 192.57432556152344 115.87141418457031 192.22665405273438" stroke-width="3.0" fill="none" stroke="rgb(0, 0, 0)" stroke-opacity="1.0" stroke-linecap="round" stroke-linejoin="round"/>
    <path d="M 50.04584503173828 149.71302795410156 C 53.72404098510742 146.13247680664062 54.06801986694336 169.88961791992188 89.01627349853516 165.05335998535156" stroke-width="3.0" fill="none" stroke="rgb(0, 0, 0)" stroke-opacity="1.0" stroke-linecap="round" stroke-linejoin="round"/>
    <path d="M 38.089046478271484 140.1676483154297 C 30.97977638244629 66.83466339111328 23.36537742614746 103.3104248046875 34.40900802612305 68.19453430175781" stroke-width="3.0" fill="none" stroke="rgb(0, 0, 0)" stroke-opacity="1.0" stroke-linecap="round" stroke-linejoin="round"/>
    <path d="M 77.41943359375 168.8322296142578 C 117.9000473022461 162.80902099609375 127.38875579833984 160.06051635742188 147.32095336914062 146.2436065673828" stroke-width="3.0" fill="none" stroke="rgb(0, 0, 0)" stroke-opacity="1.0" stroke-linecap="round" stroke-linejoin="round"/>
    <path d="M 34.64653015136719 74.2156982421875 C 34.828033447265625 32.54916000366211 69.62682342529297 46.224090576171875 68.13542938232422 39.836002349853516" stroke-width="3.0" fill="none" stroke="rgb(0, 0, 0)" stroke-opacity="1.0" stroke-linecap="round" stroke-linejoin="round"/>
    <path d="M 190.09498596191406 113.8061294555664 C 192.31312561035156 109.6004867553711 173.30316162109375 177.37652587890625 181.89744567871094 148.18753051757812" stroke-width="3.0" fill="none" stroke="rgb(0, 0, 0)" stroke-opacity="1.0" stroke-linecap="round" stroke-linejoin="round"/>
    <path d="M 63.015472412109375 55.528873443603516 C 79.77281951904297 45.204097747802734 74.21063232421875 42.58490753173828 129.6046600341797 50.96879196166992" stroke-width="3.0" fill="none" stroke="rgb(0, 0, 0)" stroke-opacity="1.0" stroke-linecap="round" stroke-linejoin="round"/>
    <path d="M 151.80589294433594 190.04690551757812 C 166.90081787109375 174.4543914794922 157.74180603027344 195.8302001953125 168.63877868652344 159.6510772705078" stroke-width="3.0" fill="none" stroke="rgb(0, 0, 0)" stroke-opacity="1.0" stroke-linecap="round" stroke-linejoin="round"/>
    <path d="M 106.01644897460938 122.81441497802734 C 95.64195251464844 73.7558364868164 61.47921371459961 111.95211029052734 106.59599304199219 136.34469604492188" stroke-width="3.0" fill="none" stroke="rgb(0, 0, 0)" stroke-opacity="1.0" stroke-linecap="round" stroke-linejoin="round"/>
    <path d="M 123.03337097167969 90.4872817993164 C 64.64925384521484 79.9061279296875 94.44482421875 102.26393127441406 90.59208679199219 124.4768295288086" stroke-width="3.0" fill="none" stroke="rgb(0, 0, 0)" stroke-opacity="1.0" stroke-linecap="round" stroke-linejoin="round"/>
    <path d="M 68.6148910522461 50.844478607177734 C 53.16022491455078 65.81795501708984 52.33475875854492 67.23294067382812 46.721038818359375 81.36771392822266" stroke-width="3.0" fill="none" stroke="rgb(0, 0, 0)" stroke-opacity="1.0" stroke-linecap="round" stroke-linejoin="round"/>
    <path d="M 159.3898162841797 175.8198699951172 C 124.33106231689453 158.85447692871094 150.2913360595703 182.17979431152344 160.42860412597656 134.65432739257812" stroke-width="3.0" fill="none" stroke="rgb(0, 0, 0)" stroke-opacity="1.0" stroke-linecap="round" stroke-linejoin="round"/>
  </g>
</svg>
