<?xml version="1.0" ?>
<svg xmlns="http://www.w3.org/2000/svg" version="1.1" width="224" height="224">
  <defs/>
  <g>
    <path d="M 58.42862319946289 94.01238250732422 C 71.04291534423828 123.62296295166016 40.45560073852539 153.77615356445312 110.28396606445312 154.7071075439453" stroke-width="3.0" fill="none" stroke="rgb(0, 0, 0)" stroke-opacity="1.0" stroke-linecap="round" stroke-linejoin="round"/>
    <path d="M 137.9727020263672 175.31675720214844 C 182.8556365966797 166.1890411376953 172.41481018066406 157.14089965820312 127.59488677978516 183.70187377929688" stroke-width="3.0" fill="none" stroke="rgb(0, 0, 0)" stroke-opacity="1.0" stroke-linecap="round" stroke-linejoin="round"/>
    <path d="M 75.82884216308594 133.1593017578125 C 116.44550323486328 177.5255889892578 110.42208099365234 141.52401733398438 139.14962768554688 132.16616821289062" stroke-width="3.0" fill="none" stroke="rgb(0, 0, 0)" stroke-opacity="1.0" stroke-linecap="round" stroke-linejoin="round"/>
    <path d="M 118.43958282470703 66.23115539550781 C 167.6432342529297 94.22081756591797 150.90769958496094 133.26028442382812 125.53397369384766 155.73611450195312" stroke-width="3.0" fill="none" stroke="rgb(0, 0, 0)" stroke-opacity="1.0" stroke-linecap="round" stroke-linejoin="round"/>
    <path d="M 169.31817626953125 61.14255905151367 C 200.65890502929688 86.45820617675781 178.52349853515625 81.58171081542969 187.81593322753906 113.8804702758789" stroke-width="3.0" fill="none" stroke="rgb(0, 0, 0)" stroke-opacity="1.0" stroke-linecap="round" stroke-linejoin="round"/>
    <path d="M 166.24639892578125 75.02338409423828 C 185.10311889648438 99.15630340576172 150.9154815673828 117.01249694824219 151.22923278808594 138.32864379882812" stroke-width="3.0" fill="none" stroke="rgb(0, 0, 0)" stroke-opacity="1.0" stroke-linecap="round" stroke-linejoin="round"/>
    <path d="M 47.888301849365234 145.46617126464844 C 24.924848556518555 96.23495483398438 44.981563568115234 127.3641586303711 42.280494689941406 160.30580139160156" stroke-width="3.0" fill="none" stroke="rgb(0, 0, 0)" stroke-opacity="1.0" stroke-linecap="round" stroke-linejoin="round"/>
    <path d="M 156.58551025390625 171.03968811035156 C 197.81570434570312 150.1057891845703 184.49630737304688 145.28704833984375 156.41903686523438 170.94276428222656" stroke-width="3.0" fill="none" stroke="rgb(0, 0, 0)" stroke-opacity="1.0" stroke-linecap="round" stroke-linejoin="round"/>
    <path d="M 144.69236755371094 196.53567504882812 C 96.72051239013672 194.58987426757812 115.0572509765625 200.90504455566406 120.9183120727539 194.51309204101562" stroke-width="3.0" fill="none" stroke="rgb(0, 0, 0)" stroke-opacity="1.0" stroke-linecap="round" stroke-linejoin="round"/>
    <path d="M 141.1742401123047 55.37591552734375 C 201.75003051757812 101.62020111083984 191.06715393066406 134.93040466308594 180.13272094726562 156.19451904296875" stroke-width="3.0" fill="none" stroke="rgb(0, 0, 0)" stroke-opacity="1.0" stroke-linecap="round" stroke-linejoin="round"/>
    <path d="M 92.15374755859375 181.8998260498047 C 63.8474235534668 178.60107421875 80.44999694824219 178.5220184326172 66.52457427978516 180.11785888671875" stroke-width="3.0" fill="none" stroke="rgb(0, 0, 0)" stroke-opacity="1.0" stroke-linecap="round" stroke-linejoin="round"/>
    <path d="M 128.53176879882812 121.91455841064453 C 106.37701416015625 169.7388916015625 39.764686584472656 117.3304443359375 79.51988220214844 77.68013763427734" stroke-width="3.0" fill="none" stroke="rgb(0, 0, 0)" stroke-opacity="1.0" stroke-linecap="round" stroke-linejoin="round"/>
    <path d="M 50.05337142944336 147.9832763671875 C 48.113731384277344 147.27597045898438 42.40874481201172 136.541015625 53.611793518066406 151.70849609375" stroke-width="3.0" fill="none" stroke="rgb(0, 0, 0)" stroke-opacity="1.0" stroke-linecap="round" stroke-linejoin="round"/>
    <path d="M 93.22422790527344 182.42703247070312 C 98.20355224609375 198.41122436523438 159.33692932128906 200.11886596679688 101.88387298583984 192.91217041015625" stroke-width="3.0" fill="none" stroke="rgb(0, 0, 0)" stroke-opacity="1.0" stroke-linecap="round" stroke-linejoin="round"/>
    <path d="M 69.33448791503906 38.52815628051758 C 99.97757720947266 51.65256881713867 70.61673736572266 16.859851837158203 138.5321502685547 39.50347900390625" stroke-width="3.0" fill="none" stroke="rgb(0, 0, 0)" stroke-opacity="1.0" stroke-linecap="round" stroke-linejoin="round"/>
    <path d="M 98.67646026611328 29.105607986450195 C 122.82784271240234 48.836822509765625 78.75128173828125 30.576271057128906 154.375 62.57210922241211" stroke-width="3.0" fill="none" stroke="rgb(0, 0, 0)" stroke-opacity="1.0" stroke-linecap="round" stroke-linejoin="round"/>
    <path d="M 133.5166778564453 37.43456268310547 C 165.5100555419922 55.48296356201172 157.8277587890625 33.17850875854492 176.5623321533203 85.05689239501953" stroke-width="3.0" fill="none" stroke="rgb(0, 0, 0)" stroke-opacity="1.0" stroke-linecap="round" stroke-linejoin="round"/>
    <path d="M 65.32125091552734 179.24859619140625 C 59.94346618652344 168.21246337890625 43.874977111816406 180.1175079345703 37.17737579345703 132.12603759765625" stroke-width="3.0" fill="none" stroke="rgb(0, 0, 0)" stroke-opacity="1.0" stroke-linecap="round" stroke-linejoin="round"/>
    <path d="M 83.44422912597656 167.88348388671875 C 126.36883544921875 165.16761779785156 103.18208312988281 159.8150634765625 128.54502868652344 155.6116943359375" stroke-width="3.0" fill="none" stroke="rgb(0, 0, 0)" stroke-opacity="1.0" stroke-linecap="round" stroke-linejoin="round"/>
    <path d="M 137.9142608642578 174.15625 C 163.74147033691406 158.766845703125 152.16763305664062 182.11683654785156 137.2960205078125 176.2372589111328" stroke-width="3.0" fill="none" stroke="rgb(0, 0, 0)" stroke-opacity="1.0" stroke-linecap="round" stroke-linejoin="round"/>
    <path d="M 160.5110626220703 168.0818634033203 C 124.94326782226562 161.89785766601562 149.9227294921875 189.6433563232422 96.25678253173828 184.65853881835938" stroke-width="3.0" fill="none" stroke="rgb(0, 0, 0)" stroke-opacity="1.0" stroke-linecap="round" stroke-linejoin="round"/>
    <path d="M 51.64391326904297 148.81829833984375 C 55.421775817871094 162.0029296875 58.94999313354492 175.5909423828125 97.10767364501953 167.23709106445312" stroke-width="3.0" fill="none" stroke="rgb(0, 0, 0)" stroke-opacity="1.0" stroke-linecap="round" stroke-linejoin="round"/>
    <path d="M 37.04773712158203 141.72682189941406 C 34.32643127441406 59.03175735473633 24.038291931152344 115.06774139404297 33.15654373168945 63.64064025878906" stroke-width="3.0" fill="none" stroke="rgb(0, 0, 0)" stroke-opacity="1.0" stroke-linecap="round" stroke-linejoin="round"/>
    <path d="M 85.31130981445312 168.2686004638672 C 108.4190444946289 165.917724609375 128.07810974121094 160.85009765625 150.26014709472656 138.89126586914062" stroke-width="3.0" fill="none" stroke="rgb(0, 0, 0)" stroke-opacity="1.0" stroke-linecap="round" stroke-linejoin="round"/>
    <path d="M 32.335716247558594 67.92986297607422 C 51.95207595825195 25.801074981689453 59.00177001953125 48.14076614379883 68.46569061279297 40.9466552734375" stroke-width="3.0" fill="none" stroke="rgb(0, 0, 0)" stroke-opacity="1.0" stroke-linecap="round" stroke-linejoin="round"/>
    <path d="M 186.82791137695312 131.3167724609375 C 196.54319763183594 100.21401977539062 183.20480346679688 122.47583770751953 185.96397399902344 89.75440979003906" stroke-width="3.0" fill="none" stroke="rgb(0, 0, 0)" stroke-opacity="1.0" stroke-linecap="round" stroke-linejoin="round"/>
    <path d="M 60.19784164428711 59.331722259521484 C 76.11003875732422 38.613914489746094 100.41718292236328 49.960479736328125 127.81898498535156 50.117061614990234" stroke-width="3.0" fill="none" stroke="rgb(0, 0, 0)" stroke-opacity="1.0" stroke-linecap="round" stroke-linejoin="round"/>
    <path d="M 121.62887573242188 194.24143981933594 C 146.6483154296875 197.5843048095703 168.94119262695312 194.53421020507812 173.09449768066406 160.5194549560547" stroke-width="3.0" fill="none" stroke="rgb(0, 0, 0)" stroke-opacity="1.0" stroke-linecap="round" stroke-linejoin="round"/>
    <path d="M 113.40933227539062 130.09027099609375 C 82.1335220336914 58.12002182006836 59.521820068359375 127.5810546875 106.92285919189453 139.698974609375" stroke-width="3.0" fill="none" stroke="rgb(0, 0, 0)" stroke-opacity="1.0" stroke-linecap="round" stroke-linejoin="round"/>
    <path d="M 120.58625030517578 83.68048095703125 C 51.005802154541016 79.83100128173828 94.757080078125 108.92301940917969 92.32040405273438 123.90977478027344" stroke-width="3.0" fill="none" stroke="rgb(0, 0, 0)" stroke-opacity="1.0" stroke-linecap="round" stroke-linejoin="round"/>
    <path d="M 61.578426361083984 55.985328674316406 C 56.99100875854492 67.82146453857422 51.78655242919922 60.36818313598633 59.2375373840332 100.27599334716797" stroke-width="3.0" fill="none" stroke="rgb(0, 0, 0)" stroke-opacity="1.0" stroke-linecap="round" stroke-linejoin="round"/>
    <path d="M 160.63897705078125 168.15354919433594 C 116.51004791259766 175.5477294921875 156.0048370361328 175.8856658935547 175.75265502929688 101.92598724365234" stroke-width="3.0" fill="none" stroke="rgb(0, 0, 0)" stroke-opacity="1.0" stroke-linecap="round" stroke-linejoin="round"/>
  </g>
</svg>
