<?xml version="1.0" ?>
<svg xmlns="http://www.w3.org/2000/svg" version="1.1" width="224" height="224">
  <defs/>
  <g>
    <path d="M 58.718177795410156 96.67031860351562 C 71.6117935180664 126.07359313964844 38.372127532958984 153.7923126220703 113.24767303466797 153.5613250732422" stroke-width="3.0" fill="none" stroke="rgb(0, 0, 0)" stroke-opacity="1.0" stroke-linecap="round" stroke-linejoin="round"/>
    <path d="M 137.93438720703125 176.4740447998047 C 181.91441345214844 166.61207580566406 170.6591339111328 155.41213989257812 127.75341796875 183.0923309326172" stroke-width="3.0" fill="none" stroke="rgb(0, 0, 0)" stroke-opacity="1.0" stroke-linecap="round" stroke-linejoin="round"/>
    <path d="M 77.34314727783203 132.63717651367188 C 113.13607025146484 180.04513549804688 110.71843719482422 142.52452087402344 131.90499877929688 131.6571044921875" stroke-width="3.0" fill="none" stroke="rgb(0, 0, 0)" stroke-opacity="1.0" stroke-linecap="round" stroke-linejoin="round"/>
    <path d="M 117.66878509521484 64.23176574707031 C 167.64517211914062 91.38652801513672 151.76336669921875 135.56529235839844 127.15319061279297 156.61952209472656" stroke-width="3.0" fill="none" stroke="rgb(0, 0, 0)" stroke-opacity="1.0" stroke-linecap="round" stroke-linejoin="round"/>
    <path d="M 171.16419982910156 59.56472396850586 C 202.41323852539062 87.47207641601562 181.22378540039062 78.66860961914062 188.0527801513672 115.68389892578125" stroke-width="3.0" fill="none" stroke="rgb(0, 0, 0)" stroke-opacity="1.0" stroke-linecap="round" stroke-linejoin="round"/>
    <path d="M 166.3534698486328 74.81768035888672 C 184.6382598876953 98.9775161743164 151.6568145751953 116.63243865966797 151.27102661132812 138.4813995361328" stroke-width="3.0" fill="none" stroke="rgb(0, 0, 0)" stroke-opacity="1.0" stroke-linecap="round" stroke-linejoin="round"/>
    <path d="M 49.74882888793945 143.7015838623047 C 25.31012725830078 94.45201110839844 42.363731384277344 127.78602600097656 47.02984619140625 164.26181030273438" stroke-width="3.0" fill="none" stroke="rgb(0, 0, 0)" stroke-opacity="1.0" stroke-linecap="round" stroke-linejoin="round"/>
    <path d="M 156.15460205078125 170.0818634033203 C 196.0892333984375 149.14077758789062 186.2918243408203 146.29229736328125 158.26129150390625 168.77809143066406" stroke-width="3.0" fill="none" stroke="rgb(0, 0, 0)" stroke-opacity="1.0" stroke-linecap="round" stroke-linejoin="round"/>
    <path d="M 142.41714477539062 197.41824340820312 C 96.4444580078125 193.03713989257812 112.80823516845703 201.3434600830078 116.94025421142578 196.03216552734375" stroke-width="3.0" fill="none" stroke="rgb(0, 0, 0)" stroke-opacity="1.0" stroke-linecap="round" stroke-linejoin="round"/>
    <path d="M 141.56207275390625 56.89932632446289 C 203.22569274902344 98.7934341430664 192.3932342529297 136.55487060546875 181.99485778808594 156.3028106689453" stroke-width="3.0" fill="none" stroke="rgb(0, 0, 0)" stroke-opacity="1.0" stroke-linecap="round" stroke-linejoin="round"/>
    <path d="M 91.04399871826172 183.44195556640625 C 64.35647583007812 178.44691467285156 80.98149108886719 176.8710174560547 65.66609954833984 179.56747436523438" stroke-width="3.0" fill="none" stroke="rgb(0, 0, 0)" stroke-opacity="1.0" stroke-linecap="round" stroke-linejoin="round"/>
    <path d="M 125.30073547363281 121.54039764404297 C 109.210205078125 171.19793701171875 40.140926361083984 115.2155990600586 76.89751434326172 73.7759017944336" stroke-width="3.0" fill="none" stroke="rgb(0, 0, 0)" stroke-opacity="1.0" stroke-linecap="round" stroke-linejoin="round"/>
    <path d="M 50.982872009277344 146.80520629882812 C 49.66107177734375 144.02786254882812 41.29926300048828 135.88818359375 52.899627685546875 149.6416015625" stroke-width="3.0" fill="none" stroke="rgb(0, 0, 0)" stroke-opacity="1.0" stroke-linecap="round" stroke-linejoin="round"/>
    <path d="M 91.65840148925781 184.80838012695312 C 96.58441925048828 197.53382873535156 158.52786254882812 202.38528442382812 106.69843292236328 191.92649841308594" stroke-width="3.0" fill="none" stroke="rgb(0, 0, 0)" stroke-opacity="1.0" stroke-linecap="round" stroke-linejoin="round"/>
    <path d="M 68.66265106201172 38.79617691040039 C 99.7278823852539 54.08229446411133 63.60118103027344 19.476760864257812 140.6568145751953 41.079227447509766" stroke-width="3.0" fill="none" stroke="rgb(0, 0, 0)" stroke-opacity="1.0" stroke-linecap="round" stroke-linejoin="round"/>
    <path d="M 96.08535766601562 32.693817138671875 C 114.76122283935547 50.825279235839844 74.90294647216797 31.942359924316406 153.79293823242188 60.92379379272461" stroke-width="3.0" fill="none" stroke="rgb(0, 0, 0)" stroke-opacity="1.0" stroke-linecap="round" stroke-linejoin="round"/>
    <path d="M 134.3188934326172 39.26871871948242 C 165.7227783203125 57.0955810546875 158.03823852539062 33.8636360168457 179.1305694580078 85.14126586914062" stroke-width="3.0" fill="none" stroke="rgb(0, 0, 0)" stroke-opacity="1.0" stroke-linecap="round" stroke-linejoin="round"/>
    <path d="M 63.93000030517578 178.67185974121094 C 62.9791374206543 166.56005859375 45.230064392089844 180.32167053222656 37.44866943359375 131.93719482421875" stroke-width="3.0" fill="none" stroke="rgb(0, 0, 0)" stroke-opacity="1.0" stroke-linecap="round" stroke-linejoin="round"/>
    <path d="M 86.33610534667969 169.4207000732422 C 126.10489654541016 165.01036071777344 102.61437225341797 160.02024841308594 128.8397979736328 155.9498748779297" stroke-width="3.0" fill="none" stroke="rgb(0, 0, 0)" stroke-opacity="1.0" stroke-linecap="round" stroke-linejoin="round"/>
    <path d="M 138.09609985351562 174.1056671142578 C 163.09619140625 157.99334716796875 151.45726013183594 181.50343322753906 137.59005737304688 176.6263885498047" stroke-width="3.0" fill="none" stroke="rgb(0, 0, 0)" stroke-opacity="1.0" stroke-linecap="round" stroke-linejoin="round"/>
    <path d="M 162.42259216308594 167.49790954589844 C 125.57624816894531 163.18649291992188 146.19557189941406 190.11520385742188 94.03392791748047 181.65110778808594" stroke-width="3.0" fill="none" stroke="rgb(0, 0, 0)" stroke-opacity="1.0" stroke-linecap="round" stroke-linejoin="round"/>
    <path d="M 53.21186828613281 148.61253356933594 C 57.31595230102539 158.86993408203125 63.79137420654297 175.07907104492188 97.21177673339844 168.9189453125" stroke-width="3.0" fill="none" stroke="rgb(0, 0, 0)" stroke-opacity="1.0" stroke-linecap="round" stroke-linejoin="round"/>
    <path d="M 38.66886901855469 142.58885192871094 C 31.824472427368164 58.97161865234375 22.954072952270508 114.76863098144531 33.25383377075195 64.30792999267578" stroke-width="3.0" fill="none" stroke="rgb(0, 0, 0)" stroke-opacity="1.0" stroke-linecap="round" stroke-linejoin="round"/>
    <path d="M 84.82355499267578 168.27662658691406 C 108.71985626220703 166.25047302246094 129.8729248046875 162.10269165039062 149.9878692626953 138.89453125" stroke-width="3.0" fill="none" stroke="rgb(0, 0, 0)" stroke-opacity="1.0" stroke-linecap="round" stroke-linejoin="round"/>
    <path d="M 32.720252990722656 66.36219024658203 C 55.27889633178711 24.62784767150879 63.39801025390625 45.305206298828125 67.16010284423828 39.733856201171875" stroke-width="3.0" fill="none" stroke="rgb(0, 0, 0)" stroke-opacity="1.0" stroke-linecap="round" stroke-linejoin="round"/>
    <path d="M 187.50994873046875 137.15975952148438 C 197.6074981689453 99.11166381835938 182.6241912841797 125.38999938964844 187.83740234375 89.84424591064453" stroke-width="3.0" fill="none" stroke="rgb(0, 0, 0)" stroke-opacity="1.0" stroke-linecap="round" stroke-linejoin="round"/>
    <path d="M 60.866275787353516 57.778743743896484 C 77.36125946044922 37.80088424682617 103.60525512695312 49.17136001586914 127.38038635253906 51.62510299682617" stroke-width="3.0" fill="none" stroke="rgb(0, 0, 0)" stroke-opacity="1.0" stroke-linecap="round" stroke-linejoin="round"/>
    <path d="M 123.43160247802734 195.94346618652344 C 146.27320861816406 203.0362548828125 167.11753845214844 195.54135131835938 172.1529541015625 163.98814392089844" stroke-width="3.0" fill="none" stroke="rgb(0, 0, 0)" stroke-opacity="1.0" stroke-linecap="round" stroke-linejoin="round"/>
    <path d="M 115.10045623779297 127.19414520263672 C 81.2963638305664 52.89226150512695 58.28644561767578 123.50454711914062 106.49160766601562 140.0202178955078" stroke-width="3.0" fill="none" stroke="rgb(0, 0, 0)" stroke-opacity="1.0" stroke-linecap="round" stroke-linejoin="round"/>
    <path d="M 120.52847290039062 82.7360610961914 C 55.4188346862793 78.26902770996094 98.11978149414062 103.87673950195312 94.33628845214844 126.16571807861328" stroke-width="3.0" fill="none" stroke="rgb(0, 0, 0)" stroke-opacity="1.0" stroke-linecap="round" stroke-linejoin="round"/>
    <path d="M 61.30317687988281 55.7756462097168 C 59.106544494628906 69.8715591430664 51.92402267456055 60.6388053894043 58.42127227783203 98.73895263671875" stroke-width="3.0" fill="none" stroke="rgb(0, 0, 0)" stroke-opacity="1.0" stroke-linecap="round" stroke-linejoin="round"/>
    <path d="M 161.2529754638672 169.75502014160156 C 115.06704711914062 176.5935821533203 154.43075561523438 173.65902709960938 175.575439453125 102.39081573486328" stroke-width="3.0" fill="none" stroke="rgb(0, 0, 0)" stroke-opacity="1.0" stroke-linecap="round" stroke-linejoin="round"/>
  </g>
</svg>
