<?xml version="1.0" ?>
<svg xmlns="http://www.w3.org/2000/svg" version="1.1" width="224" height="224">
  <defs/>
  <g>
    <path d="M 67.66500091552734 108.90402221679688 C 70.2860107421875 124.13851165771484 53.55492401123047 134.67654418945312 82.69033813476562 144.07608032226562" stroke-width="3.0" fill="none" stroke="rgb(0, 0, 0)" stroke-opacity="1.0" stroke-linecap="round" stroke-linejoin="round"/>
    <path d="M 161.4885711669922 174.67657470703125 C 182.84002685546875 147.4407196044922 180.72972106933594 135.12054443359375 177.108642578125 160.5614776611328" stroke-width="3.0" fill="none" stroke="rgb(0, 0, 0)" stroke-opacity="1.0" stroke-linecap="round" stroke-linejoin="round"/>
    <path d="M 90.46395874023438 129.36306762695312 C 112.06099700927734 149.77781677246094 100.58301544189453 137.77890014648438 114.86991882324219 142.78158569335938" stroke-width="3.0" fill="none" stroke="rgb(0, 0, 0)" stroke-opacity="1.0" stroke-linecap="round" stroke-linejoin="round"/>
    <path d="M 141.3114471435547 86.3248062133789 C 151.06793212890625 118.37733459472656 145.6069793701172 136.0341796875 121.43852996826172 140.26766967773438" stroke-width="3.0" fill="none" stroke="rgb(0, 0, 0)" stroke-opacity="1.0" stroke-linecap="round" stroke-linejoin="round"/>
    <path d="M 165.9003448486328 59.919368743896484 C 205.55429077148438 85.73804473876953 181.3400115966797 82.00338745117188 190.47044372558594 115.39042663574219" stroke-width="3.0" fill="none" stroke="rgb(0, 0, 0)" stroke-opacity="1.0" stroke-linecap="round" stroke-linejoin="round"/>
    <path d="M 148.36260986328125 96.68338775634766 C 155.03758239746094 109.20772552490234 153.16790771484375 141.35540771484375 144.3294677734375 159.99351501464844" stroke-width="3.0" fill="none" stroke="rgb(0, 0, 0)" stroke-opacity="1.0" stroke-linecap="round" stroke-linejoin="round"/>
    <path d="M 37.71202087402344 118.24555206298828 C 31.61262321472168 96.24681854248047 40.37432098388672 119.21878814697266 39.21567916870117 114.90624237060547" stroke-width="3.0" fill="none" stroke="rgb(0, 0, 0)" stroke-opacity="1.0" stroke-linecap="round" stroke-linejoin="round"/>
    <path d="M 158.02584838867188 173.512939453125 C 186.18788146972656 158.62802124023438 184.15792846679688 152.6699676513672 150.34832763671875 170.44589233398438" stroke-width="3.0" fill="none" stroke="rgb(0, 0, 0)" stroke-opacity="1.0" stroke-linecap="round" stroke-linejoin="round"/>
    <path d="M 96.5798568725586 183.59317016601562 C 94.47216796875 178.1182861328125 103.47354125976562 193.33474731445312 98.78087615966797 186.22125244140625" stroke-width="3.0" fill="none" stroke="rgb(0, 0, 0)" stroke-opacity="1.0" stroke-linecap="round" stroke-linejoin="round"/>
    <path d="M 122.10369110107422 61.30564498901367 C 156.1525421142578 91.03021240234375 151.90670776367188 96.04793548583984 169.01812744140625 134.7945556640625" stroke-width="3.0" fill="none" stroke="rgb(0, 0, 0)" stroke-opacity="1.0" stroke-linecap="round" stroke-linejoin="round"/>
    <path d="M 86.87981414794922 177.51956176757812 C 65.63880920410156 171.4429931640625 41.85234832763672 176.846435546875 63.90070343017578 166.472412109375" stroke-width="3.0" fill="none" stroke="rgb(0, 0, 0)" stroke-opacity="1.0" stroke-linecap="round" stroke-linejoin="round"/>
    <path d="M 100.50940704345703 143.69766235351562 C 73.72789001464844 138.8915557861328 66.25257110595703 109.11048889160156 83.35568237304688 80.36416625976562" stroke-width="3.0" fill="none" stroke="rgb(0, 0, 0)" stroke-opacity="1.0" stroke-linecap="round" stroke-linejoin="round"/>
    <path d="M 47.40585708618164 153.2970733642578 C 36.658321380615234 145.55613708496094 33.41154861450195 134.67410278320312 45.356788635253906 154.68836975097656" stroke-width="3.0" fill="none" stroke="rgb(0, 0, 0)" stroke-opacity="1.0" stroke-linecap="round" stroke-linejoin="round"/>
    <path d="M 84.53457641601562 174.23231506347656 C 91.86331939697266 185.6724090576172 118.14132690429688 187.20916748046875 104.15422821044922 189.6631622314453" stroke-width="3.0" fill="none" stroke="rgb(0, 0, 0)" stroke-opacity="1.0" stroke-linecap="round" stroke-linejoin="round"/>
    <path d="M 68.03779602050781 40.68125915527344 C 110.0392074584961 40.24787521362305 88.28064727783203 14.973573684692383 133.53237915039062 40.01259231567383" stroke-width="3.0" fill="none" stroke="rgb(0, 0, 0)" stroke-opacity="1.0" stroke-linecap="round" stroke-linejoin="round"/>
    <path d="M 81.97828674316406 48.32520294189453 C 103.09419250488281 51.71141052246094 102.01220703125 50.80046081542969 121.59657287597656 59.85258865356445" stroke-width="3.0" fill="none" stroke="rgb(0, 0, 0)" stroke-opacity="1.0" stroke-linecap="round" stroke-linejoin="round"/>
    <path d="M 134.6173553466797 40.449825286865234 C 136.36672973632812 49.661376953125 163.14805603027344 31.971817016601562 179.942138671875 86.4859390258789" stroke-width="3.0" fill="none" stroke="rgb(0, 0, 0)" stroke-opacity="1.0" stroke-linecap="round" stroke-linejoin="round"/>
    <path d="M 59.934444427490234 168.53591918945312 C 54.374481201171875 159.4827880859375 54.912593841552734 168.86643981933594 49.200828552246094 155.01661682128906" stroke-width="3.0" fill="none" stroke="rgb(0, 0, 0)" stroke-opacity="1.0" stroke-linecap="round" stroke-linejoin="round"/>
    <path d="M 88.30204772949219 158.9169158935547 C 90.89424896240234 155.00741577148438 77.46570587158203 162.16293334960938 106.73392486572266 156.0191650390625" stroke-width="3.0" fill="none" stroke="rgb(0, 0, 0)" stroke-opacity="1.0" stroke-linecap="round" stroke-linejoin="round"/>
    <path d="M 162.79843139648438 169.12266540527344 C 183.74923706054688 159.2005615234375 143.96556091308594 174.4783935546875 158.1114959716797 172.35205078125" stroke-width="3.0" fill="none" stroke="rgb(0, 0, 0)" stroke-opacity="1.0" stroke-linecap="round" stroke-linejoin="round"/>
    <path d="M 141.71261596679688 191.31784057617188 C 97.130859375 195.68194580078125 132.43875122070312 187.41342163085938 105.02669525146484 190.96417236328125" stroke-width="3.0" fill="none" stroke="rgb(0, 0, 0)" stroke-opacity="1.0" stroke-linecap="round" stroke-linejoin="round"/>
    <path d="M 71.13493347167969 167.80368041992188 C 47.44612121582031 165.80496215820312 54.665279388427734 174.08871459960938 85.30476379394531 158.97105407714844" stroke-width="3.0" fill="none" stroke="rgb(0, 0, 0)" stroke-opacity="1.0" stroke-linecap="round" stroke-linejoin="round"/>
    <path d="M 37.87071990966797 142.52516174316406 C 36.292930603027344 89.06253051757812 23.30832862854004 92.16409301757812 37.428672790527344 82.13074493408203" stroke-width="3.0" fill="none" stroke="rgb(0, 0, 0)" stroke-opacity="1.0" stroke-linecap="round" stroke-linejoin="round"/>
    <path d="M 100.33250427246094 158.94873046875 C 109.70012664794922 158.2130889892578 110.06444549560547 154.1394805908203 116.91802215576172 149.01123046875" stroke-width="3.0" fill="none" stroke="rgb(0, 0, 0)" stroke-opacity="1.0" stroke-linecap="round" stroke-linejoin="round"/>
    <path d="M 37.315093994140625 83.58634185791016 C 39.087039947509766 38.86707305908203 57.2849235534668 47.17943572998047 67.78999328613281 40.86943054199219" stroke-width="3.0" fill="none" stroke="rgb(0, 0, 0)" stroke-opacity="1.0" stroke-linecap="round" stroke-linejoin="round"/>
    <path d="M 190.4593048095703 111.94123840332031 C 189.9325408935547 142.80955505371094 171.1474151611328 151.87266540527344 177.26025390625 154.7162628173828" stroke-width="3.0" fill="none" stroke="rgb(0, 0, 0)" stroke-opacity="1.0" stroke-linecap="round" stroke-linejoin="round"/>
    <path d="M 69.00003814697266 54.556854248046875 C 72.63117980957031 48.0167121887207 72.44232177734375 40.20374298095703 84.69631958007812 49.346954345703125" stroke-width="3.0" fill="none" stroke="rgb(0, 0, 0)" stroke-opacity="1.0" stroke-linecap="round" stroke-linejoin="round"/>
    <path d="M 136.20379638671875 191.21754455566406 C 157.411376953125 182.6843719482422 154.4634552001953 187.72877502441406 162.98191833496094 175.1224365234375" stroke-width="3.0" fill="none" stroke="rgb(0, 0, 0)" stroke-opacity="1.0" stroke-linecap="round" stroke-linejoin="round"/>
    <path d="M 94.78279113769531 125.3552017211914 C 95.40013885498047 108.37564849853516 77.8380355834961 107.1645278930664 100.85421752929688 132.5088653564453" stroke-width="3.0" fill="none" stroke="rgb(0, 0, 0)" stroke-opacity="1.0" stroke-linecap="round" stroke-linejoin="round"/>
    <path d="M 107.83526611328125 97.3764419555664 C 75.48148345947266 93.60499572753906 88.67291259765625 103.88093566894531 88.50355529785156 127.9458236694336" stroke-width="3.0" fill="none" stroke="rgb(0, 0, 0)" stroke-opacity="1.0" stroke-linecap="round" stroke-linejoin="round"/>
    <path d="M 71.6258544921875 54.02125549316406 C 57.74073791503906 61.186248779296875 48.21297836303711 73.62144470214844 45.26874923706055 82.27546691894531" stroke-width="3.0" fill="none" stroke="rgb(0, 0, 0)" stroke-opacity="1.0" stroke-linecap="round" stroke-linejoin="round"/>
    <path d="M 148.14605712890625 170.1875 C 131.39662170410156 161.76998901367188 130.4506072998047 140.84555053710938 119.80604553222656 146.46189880371094" stroke-width="3.0" fill="none" stroke="rgb(0, 0, 0)" stroke-opacity="1.0" stroke-linecap="round" stroke-linejoin="round"/>
  </g>
</svg>
