<?xml version="1.0" ?>
<svg xmlns="http://www.w3.org/2000/svg" version="1.1" width="224" height="224">
  <defs/>
  <g>
    <path d="M 61.99980926513672 98.22631072998047 C 71.04846954345703 123.69356536865234 48.75273132324219 138.9408416748047 89.93765258789062 149.07064819335938" stroke-width="3.0" fill="none" stroke="rgb(0, 0, 0)" stroke-opacity="1.0" stroke-linecap="round" stroke-linejoin="round"/>
    <path d="M 158.74057006835938 175.16481018066406 C 186.5923614501953 146.74009704589844 192.9178466796875 150.7008056640625 168.6805877685547 170.2232208251953" stroke-width="3.0" fill="none" stroke="rgb(0, 0, 0)" stroke-opacity="1.0" stroke-linecap="round" stroke-linejoin="round"/>
    <path d="M 79.8790283203125 137.7604522705078 C 115.7330322265625 169.05259704589844 98.49334716796875 146.9209442138672 134.23831176757812 143.03048706054688" stroke-width="3.0" fill="none" stroke="rgb(0, 0, 0)" stroke-opacity="1.0" stroke-linecap="round" stroke-linejoin="round"/>
    <path d="M 114.88375091552734 62.76579666137695 C 168.55401611328125 93.96751403808594 153.42303466796875 143.85769653320312 122.967529296875 146.6463623046875" stroke-width="3.0" fill="none" stroke="rgb(0, 0, 0)" stroke-opacity="1.0" stroke-linecap="round" stroke-linejoin="round"/>
    <path d="M 168.93402099609375 62.267662048339844 C 201.21136474609375 83.09764099121094 179.9484100341797 84.38560485839844 190.73582458496094 112.53174591064453" stroke-width="3.0" fill="none" stroke="rgb(0, 0, 0)" stroke-opacity="1.0" stroke-linecap="round" stroke-linejoin="round"/>
    <path d="M 161.7124786376953 74.177490234375 C 185.3076934814453 82.33597564697266 170.67323303222656 134.03271484375 147.585205078125 144.3836669921875" stroke-width="3.0" fill="none" stroke="rgb(0, 0, 0)" stroke-opacity="1.0" stroke-linecap="round" stroke-linejoin="round"/>
    <path d="M 43.99321365356445 141.14556884765625 C 31.857372283935547 102.84374237060547 35.34101867675781 151.69175720214844 41.263694763183594 157.74505615234375" stroke-width="3.0" fill="none" stroke="rgb(0, 0, 0)" stroke-opacity="1.0" stroke-linecap="round" stroke-linejoin="round"/>
    <path d="M 148.4857635498047 170.18931579589844 C 193.0948028564453 163.66954040527344 186.10977172851562 152.19610595703125 155.09246826171875 173.58963012695312" stroke-width="3.0" fill="none" stroke="rgb(0, 0, 0)" stroke-opacity="1.0" stroke-linecap="round" stroke-linejoin="round"/>
    <path d="M 121.52302551269531 194.24102783203125 C 98.66486358642578 189.6464385986328 115.44560241699219 200.00079345703125 117.9421615600586 193.84324645996094" stroke-width="3.0" fill="none" stroke="rgb(0, 0, 0)" stroke-opacity="1.0" stroke-linecap="round" stroke-linejoin="round"/>
    <path d="M 129.7854461669922 49.6396598815918 C 204.3006591796875 96.50492095947266 178.59259033203125 120.9301986694336 186.80465698242188 138.59303283691406" stroke-width="3.0" fill="none" stroke="rgb(0, 0, 0)" stroke-opacity="1.0" stroke-linecap="round" stroke-linejoin="round"/>
    <path d="M 92.8873519897461 181.16842651367188 C 50.944271087646484 175.5386199951172 68.89759826660156 189.09527587890625 62.615142822265625 175.5062713623047" stroke-width="3.0" fill="none" stroke="rgb(0, 0, 0)" stroke-opacity="1.0" stroke-linecap="round" stroke-linejoin="round"/>
    <path d="M 112.3280029296875 138.70419311523438 C 77.587158203125 143.56581115722656 55.93810272216797 110.98193359375 81.20084381103516 76.10344696044922" stroke-width="3.0" fill="none" stroke="rgb(0, 0, 0)" stroke-opacity="1.0" stroke-linecap="round" stroke-linejoin="round"/>
    <path d="M 50.880859375 146.1986846923828 C 47.09332275390625 146.8319549560547 37.08625793457031 133.57493591308594 48.73688507080078 145.1728973388672" stroke-width="3.0" fill="none" stroke="rgb(0, 0, 0)" stroke-opacity="1.0" stroke-linecap="round" stroke-linejoin="round"/>
    <path d="M 91.95590209960938 182.5430450439453 C 101.6961898803711 197.7096710205078 148.843505859375 198.2819366455078 95.36634826660156 187.08932495117188" stroke-width="3.0" fill="none" stroke="rgb(0, 0, 0)" stroke-opacity="1.0" stroke-linecap="round" stroke-linejoin="round"/>
    <path d="M 72.34159088134766 38.402069091796875 C 100.08293914794922 53.90869140625 73.3297119140625 16.698396682739258 142.69580078125 44.173484802246094" stroke-width="3.0" fill="none" stroke="rgb(0, 0, 0)" stroke-opacity="1.0" stroke-linecap="round" stroke-linejoin="round"/>
    <path d="M 100.39215850830078 31.019451141357422 C 128.7928009033203 47.437294006347656 91.66166687011719 35.74419021606445 147.76148986816406 59.644073486328125" stroke-width="3.0" fill="none" stroke="rgb(0, 0, 0)" stroke-opacity="1.0" stroke-linecap="round" stroke-linejoin="round"/>
    <path d="M 129.78231811523438 40.028175354003906 C 157.89720153808594 53.868408203125 144.96084594726562 28.02213478088379 179.30052185058594 87.2198715209961" stroke-width="3.0" fill="none" stroke="rgb(0, 0, 0)" stroke-opacity="1.0" stroke-linecap="round" stroke-linejoin="round"/>
    <path d="M 70.23068237304688 179.4026336669922 C 52.51531982421875 167.64808654785156 48.45750427246094 180.09405517578125 35.551448822021484 135.26513671875" stroke-width="3.0" fill="none" stroke="rgb(0, 0, 0)" stroke-opacity="1.0" stroke-linecap="round" stroke-linejoin="round"/>
    <path d="M 77.49925994873047 165.49398803710938 C 124.50659942626953 165.225830078125 103.21195220947266 159.8048095703125 127.98095703125 157.91854858398438" stroke-width="3.0" fill="none" stroke="rgb(0, 0, 0)" stroke-opacity="1.0" stroke-linecap="round" stroke-linejoin="round"/>
    <path d="M 159.68832397460938 175.1330108642578 C 176.76109313964844 167.46096801757812 137.90182495117188 178.23226928710938 161.6086883544922 166.9253692626953" stroke-width="3.0" fill="none" stroke="rgb(0, 0, 0)" stroke-opacity="1.0" stroke-linecap="round" stroke-linejoin="round"/>
    <path d="M 151.77845764160156 191.65362548828125 C 134.85498046875 197.48875427246094 140.25747680664062 194.83299255371094 112.92431640625 191.3324737548828" stroke-width="3.0" fill="none" stroke="rgb(0, 0, 0)" stroke-opacity="1.0" stroke-linecap="round" stroke-linejoin="round"/>
    <path d="M 49.532623291015625 144.90399169921875 C 55.02972412109375 148.1624755859375 53.422950744628906 166.48863220214844 89.3611068725586 166.5537109375" stroke-width="3.0" fill="none" stroke="rgb(0, 0, 0)" stroke-opacity="1.0" stroke-linecap="round" stroke-linejoin="round"/>
    <path d="M 38.73311996459961 138.25450134277344 C 29.588329315185547 63.470985412597656 25.757349014282227 107.12574768066406 35.514984130859375 67.24224853515625" stroke-width="3.0" fill="none" stroke="rgb(0, 0, 0)" stroke-opacity="1.0" stroke-linecap="round" stroke-linejoin="round"/>
    <path d="M 87.05823516845703 169.19461059570312 C 116.79071807861328 161.6697540283203 128.34544372558594 160.811279296875 147.63958740234375 144.72491455078125" stroke-width="3.0" fill="none" stroke="rgb(0, 0, 0)" stroke-opacity="1.0" stroke-linecap="round" stroke-linejoin="round"/>
    <path d="M 34.54509353637695 79.82833862304688 C 34.38442611694336 32.67388916015625 71.8248062133789 46.62089157104492 69.13552856445312 39.457115173339844" stroke-width="3.0" fill="none" stroke="rgb(0, 0, 0)" stroke-opacity="1.0" stroke-linecap="round" stroke-linejoin="round"/>
    <path d="M 190.91612243652344 114.87080383300781 C 192.74969482421875 109.05917358398438 179.2377166748047 179.72503662109375 184.82252502441406 145.53746032714844" stroke-width="3.0" fill="none" stroke="rgb(0, 0, 0)" stroke-opacity="1.0" stroke-linecap="round" stroke-linejoin="round"/>
    <path d="M 60.707359313964844 53.59308624267578 C 82.19791412353516 43.44769287109375 76.37458038330078 43.81569290161133 128.84779357910156 52.53191375732422" stroke-width="3.0" fill="none" stroke="rgb(0, 0, 0)" stroke-opacity="1.0" stroke-linecap="round" stroke-linejoin="round"/>
    <path d="M 152.55726623535156 189.72181701660156 C 168.67031860351562 177.35250854492188 156.3513946533203 196.40794372558594 173.36912536621094 161.9172821044922" stroke-width="3.0" fill="none" stroke="rgb(0, 0, 0)" stroke-opacity="1.0" stroke-linecap="round" stroke-linejoin="round"/>
    <path d="M 109.40412139892578 123.50460052490234 C 95.14081573486328 72.3910140991211 61.80989074707031 112.7307357788086 104.60104370117188 135.8156280517578" stroke-width="3.0" fill="none" stroke="rgb(0, 0, 0)" stroke-opacity="1.0" stroke-linecap="round" stroke-linejoin="round"/>
    <path d="M 122.5431900024414 88.22050476074219 C 64.76697540283203 75.88192749023438 91.40086364746094 102.86717224121094 90.77213287353516 124.14237213134766" stroke-width="3.0" fill="none" stroke="rgb(0, 0, 0)" stroke-opacity="1.0" stroke-linecap="round" stroke-linejoin="round"/>
    <path d="M 65.75792694091797 50.3449592590332 C 51.32948684692383 61.29642105102539 48.72099685668945 67.01997375488281 44.87129592895508 80.22067260742188" stroke-width="3.0" fill="none" stroke="rgb(0, 0, 0)" stroke-opacity="1.0" stroke-linecap="round" stroke-linejoin="round"/>
    <path d="M 160.91519165039062 176.42127990722656 C 129.09027099609375 159.40756225585938 155.96554565429688 180.84523010253906 163.95738220214844 127.83907318115234" stroke-width="3.0" fill="none" stroke="rgb(0, 0, 0)" stroke-opacity="1.0" stroke-linecap="round" stroke-linejoin="round"/>
  </g>
</svg>
