<?xml version="1.0" ?>
<svg xmlns="http://www.w3.org/2000/svg" version="1.1" width="224" height="224">
  <defs/>
  <g>
    <path d="M 67.70581817626953 108.81441497802734 C 69.61459350585938 125.41653442382812 53.3956184387207 134.53634643554688 82.04940795898438 143.2419891357422" stroke-width="3.0" fill="none" stroke="rgb(0, 0, 0)" stroke-opacity="1.0" stroke-linecap="round" stroke-linejoin="round"/>
    <path d="M 162.1138916015625 175.16748046875 C 184.28646850585938 149.94284057617188 181.37469482421875 135.93345642089844 177.7519073486328 160.77877807617188" stroke-width="3.0" fill="none" stroke="rgb(0, 0, 0)" stroke-opacity="1.0" stroke-linecap="round" stroke-linejoin="round"/>
    <path d="M 92.02179718017578 130.3791046142578 C 114.61280822753906 146.7317657470703 101.5811996459961 137.68104553222656 115.17461395263672 143.63690185546875" stroke-width="3.0" fill="none" stroke="rgb(0, 0, 0)" stroke-opacity="1.0" stroke-linecap="round" stroke-linejoin="round"/>
    <path d="M 141.75819396972656 86.36682891845703 C 151.02642822265625 122.01634216308594 147.87742614746094 138.7376708984375 122.22978973388672 140.9208984375" stroke-width="3.0" fill="none" stroke="rgb(0, 0, 0)" stroke-opacity="1.0" stroke-linecap="round" stroke-linejoin="round"/>
    <path d="M 166.29586791992188 60.16225051879883 C 205.72686767578125 86.0260009765625 182.42906188964844 80.9177017211914 190.3509521484375 115.67314147949219" stroke-width="3.0" fill="none" stroke="rgb(0, 0, 0)" stroke-opacity="1.0" stroke-linecap="round" stroke-linejoin="round"/>
    <path d="M 147.4290771484375 98.04066467285156 C 155.21653747558594 110.68896484375 151.79237365722656 139.06723022460938 142.3028564453125 157.35350036621094" stroke-width="3.0" fill="none" stroke="rgb(0, 0, 0)" stroke-opacity="1.0" stroke-linecap="round" stroke-linejoin="round"/>
    <path d="M 36.48746871948242 119.2414779663086 C 29.02458953857422 98.96048736572266 39.19174575805664 120.6390151977539 38.608253479003906 115.20085906982422" stroke-width="3.0" fill="none" stroke="rgb(0, 0, 0)" stroke-opacity="1.0" stroke-linecap="round" stroke-linejoin="round"/>
    <path d="M 159.226806640625 172.30960083007812 C 185.81613159179688 159.81655883789062 185.36354064941406 156.30902099609375 151.01890563964844 171.51260375976562" stroke-width="3.0" fill="none" stroke="rgb(0, 0, 0)" stroke-opacity="1.0" stroke-linecap="round" stroke-linejoin="round"/>
    <path d="M 100.54732513427734 182.75990295410156 C 95.24658203125 176.7118682861328 103.01181030273438 192.78639221191406 97.51117706298828 185.88763427734375" stroke-width="3.0" fill="none" stroke="rgb(0, 0, 0)" stroke-opacity="1.0" stroke-linecap="round" stroke-linejoin="round"/>
    <path d="M 122.71810150146484 61.13424301147461 C 156.1489715576172 90.22417449951172 151.34300231933594 95.5740966796875 170.23382568359375 135.01004028320312" stroke-width="3.0" fill="none" stroke="rgb(0, 0, 0)" stroke-opacity="1.0" stroke-linecap="round" stroke-linejoin="round"/>
    <path d="M 87.09571838378906 178.9364776611328 C 64.25778198242188 178.4192352294922 42.03666687011719 184.04348754882812 65.23784637451172 166.47232055664062" stroke-width="3.0" fill="none" stroke="rgb(0, 0, 0)" stroke-opacity="1.0" stroke-linecap="round" stroke-linejoin="round"/>
    <path d="M 99.63861846923828 145.009521484375 C 73.27389526367188 137.1731719970703 65.57150268554688 109.62564849853516 82.9728012084961 78.71448516845703" stroke-width="3.0" fill="none" stroke="rgb(0, 0, 0)" stroke-opacity="1.0" stroke-linecap="round" stroke-linejoin="round"/>
    <path d="M 46.523658752441406 153.91546630859375 C 36.139076232910156 147.46905517578125 35.12648010253906 134.705810546875 45.08005142211914 154.57479858398438" stroke-width="3.0" fill="none" stroke="rgb(0, 0, 0)" stroke-opacity="1.0" stroke-linecap="round" stroke-linejoin="round"/>
    <path d="M 83.37034606933594 174.98915100097656 C 92.2176513671875 186.53439331054688 118.98857116699219 186.5106658935547 100.12905883789062 188.8570098876953" stroke-width="3.0" fill="none" stroke="rgb(0, 0, 0)" stroke-opacity="1.0" stroke-linecap="round" stroke-linejoin="round"/>
    <path d="M 66.16476440429688 39.93989562988281 C 110.68183898925781 39.847373962402344 92.57642364501953 18.17122459411621 132.78761291503906 39.346336364746094" stroke-width="3.0" fill="none" stroke="rgb(0, 0, 0)" stroke-opacity="1.0" stroke-linecap="round" stroke-linejoin="round"/>
    <path d="M 81.76427459716797 48.06337356567383 C 102.16246032714844 52.73982620239258 100.614990234375 52.262672424316406 121.63134002685547 60.36452865600586" stroke-width="3.0" fill="none" stroke="rgb(0, 0, 0)" stroke-opacity="1.0" stroke-linecap="round" stroke-linejoin="round"/>
    <path d="M 135.51039123535156 40.90618896484375 C 137.93174743652344 46.74789047241211 163.95498657226562 29.638202667236328 178.8524627685547 85.76824951171875" stroke-width="3.0" fill="none" stroke="rgb(0, 0, 0)" stroke-opacity="1.0" stroke-linecap="round" stroke-linejoin="round"/>
    <path d="M 60.73348617553711 170.305908203125 C 53.86501693725586 158.3901824951172 53.38188171386719 170.01828002929688 47.64447021484375 154.7764434814453" stroke-width="3.0" fill="none" stroke="rgb(0, 0, 0)" stroke-opacity="1.0" stroke-linecap="round" stroke-linejoin="round"/>
    <path d="M 88.37726593017578 159.957275390625 C 91.31089782714844 156.91786193847656 77.34099578857422 163.28201293945312 105.46866607666016 156.53668212890625" stroke-width="3.0" fill="none" stroke="rgb(0, 0, 0)" stroke-opacity="1.0" stroke-linecap="round" stroke-linejoin="round"/>
    <path d="M 162.88441467285156 169.2152099609375 C 184.35189819335938 160.1442413330078 144.2059783935547 175.99514770507812 157.31582641601562 171.58493041992188" stroke-width="3.0" fill="none" stroke="rgb(0, 0, 0)" stroke-opacity="1.0" stroke-linecap="round" stroke-linejoin="round"/>
    <path d="M 142.18048095703125 191.4291229248047 C 97.4028091430664 193.65960693359375 132.9977569580078 186.9432830810547 104.48993682861328 192.92774963378906" stroke-width="3.0" fill="none" stroke="rgb(0, 0, 0)" stroke-opacity="1.0" stroke-linecap="round" stroke-linejoin="round"/>
    <path d="M 69.53368377685547 165.57321166992188 C 50.06678771972656 163.0205535888672 58.44200134277344 175.08694458007812 86.9698486328125 160.98184204101562" stroke-width="3.0" fill="none" stroke="rgb(0, 0, 0)" stroke-opacity="1.0" stroke-linecap="round" stroke-linejoin="round"/>
    <path d="M 38.42824935913086 142.33285522460938 C 34.73554229736328 90.67292785644531 20.92014503479004 92.14289093017578 37.71350860595703 81.5448989868164" stroke-width="3.0" fill="none" stroke="rgb(0, 0, 0)" stroke-opacity="1.0" stroke-linecap="round" stroke-linejoin="round"/>
    <path d="M 100.80941009521484 157.380615234375 C 110.05553436279297 160.43995666503906 107.22501373291016 151.86474609375 115.30546569824219 150.5751495361328" stroke-width="3.0" fill="none" stroke="rgb(0, 0, 0)" stroke-opacity="1.0" stroke-linecap="round" stroke-linejoin="round"/>
    <path d="M 37.798465728759766 82.65172576904297 C 38.24238586425781 35.90211486816406 54.60099792480469 47.436283111572266 68.47054290771484 41.422889709472656" stroke-width="3.0" fill="none" stroke="rgb(0, 0, 0)" stroke-opacity="1.0" stroke-linecap="round" stroke-linejoin="round"/>
    <path d="M 190.4363555908203 111.86997985839844 C 189.8484649658203 143.61676025390625 172.2429656982422 153.2005615234375 176.74945068359375 155.17372131347656" stroke-width="3.0" fill="none" stroke="rgb(0, 0, 0)" stroke-opacity="1.0" stroke-linecap="round" stroke-linejoin="round"/>
    <path d="M 69.15511322021484 55.00587844848633 C 75.88150787353516 47.71327209472656 71.09928131103516 40.4977912902832 84.38133239746094 50.648773193359375" stroke-width="3.0" fill="none" stroke="rgb(0, 0, 0)" stroke-opacity="1.0" stroke-linecap="round" stroke-linejoin="round"/>
    <path d="M 136.8097686767578 190.5533905029297 C 157.31871032714844 181.9484405517578 155.05409240722656 188.95506286621094 162.4585723876953 176.01190185546875" stroke-width="3.0" fill="none" stroke="rgb(0, 0, 0)" stroke-opacity="1.0" stroke-linecap="round" stroke-linejoin="round"/>
    <path d="M 94.8697280883789 125.89698028564453 C 95.05628967285156 108.01818084716797 79.20209503173828 106.80037689208984 99.96591186523438 134.48379516601562" stroke-width="3.0" fill="none" stroke="rgb(0, 0, 0)" stroke-opacity="1.0" stroke-linecap="round" stroke-linejoin="round"/>
    <path d="M 108.13925170898438 95.13218688964844 C 74.07217407226562 94.0902328491211 86.57760620117188 104.90975189208984 87.93973541259766 127.92974853515625" stroke-width="3.0" fill="none" stroke="rgb(0, 0, 0)" stroke-opacity="1.0" stroke-linecap="round" stroke-linejoin="round"/>
    <path d="M 69.86347961425781 53.826820373535156 C 57.007442474365234 60.40519332885742 49.670284271240234 73.89527893066406 47.206504821777344 82.78215789794922" stroke-width="3.0" fill="none" stroke="rgb(0, 0, 0)" stroke-opacity="1.0" stroke-linecap="round" stroke-linejoin="round"/>
    <path d="M 147.9570770263672 170.32687377929688 C 131.6181640625 160.50177001953125 130.80801391601562 141.7384490966797 117.4056396484375 146.78256225585938" stroke-width="3.0" fill="none" stroke="rgb(0, 0, 0)" stroke-opacity="1.0" stroke-linecap="round" stroke-linejoin="round"/>
  </g>
</svg>
