<?xml version="1.0" ?>
<svg xmlns="http://www.w3.org/2000/svg" version="1.1" width="224" height="224">
  <defs/>
  <g>
    <path d="M 59.7895622253418 95.22026824951172 C 70.16822052001953 127.76261901855469 40.34217834472656 153.24583435058594 105.43829345703125 153.28689575195312" stroke-width="3.0" fill="none" stroke="rgb(0, 0, 0)" stroke-opacity="1.0" stroke-linecap="round" stroke-linejoin="round"/>
    <path d="M 137.8816680908203 175.13800048828125 C 182.7396240234375 166.6304168701172 171.57760620117188 156.66342163085938 129.32012939453125 181.7864532470703" stroke-width="3.0" fill="none" stroke="rgb(0, 0, 0)" stroke-opacity="1.0" stroke-linecap="round" stroke-linejoin="round"/>
    <path d="M 78.01338195800781 135.67926025390625 C 110.99466705322266 176.7308349609375 106.19757843017578 142.5001983642578 135.05393981933594 134.09580993652344" stroke-width="3.0" fill="none" stroke="rgb(0, 0, 0)" stroke-opacity="1.0" stroke-linecap="round" stroke-linejoin="round"/>
    <path d="M 118.02814483642578 63.278350830078125 C 170.47120666503906 96.19766235351562 152.0905303955078 129.9193115234375 124.45529174804688 152.39308166503906" stroke-width="3.0" fill="none" stroke="rgb(0, 0, 0)" stroke-opacity="1.0" stroke-linecap="round" stroke-linejoin="round"/>
    <path d="M 168.975830078125 62.09380340576172 C 201.92327880859375 84.55200958251953 177.04977416992188 83.19795989990234 189.37908935546875 113.89027404785156" stroke-width="3.0" fill="none" stroke="rgb(0, 0, 0)" stroke-opacity="1.0" stroke-linecap="round" stroke-linejoin="round"/>
    <path d="M 166.5518341064453 72.58827209472656 C 189.08729553222656 96.53622436523438 152.89682006835938 119.24932098388672 150.10577392578125 139.80474853515625" stroke-width="3.0" fill="none" stroke="rgb(0, 0, 0)" stroke-opacity="1.0" stroke-linecap="round" stroke-linejoin="round"/>
    <path d="M 48.000091552734375 145.68310546875 C 21.795509338378906 102.30168151855469 44.23945236206055 131.86412048339844 41.6649055480957 155.28089904785156" stroke-width="3.0" fill="none" stroke="rgb(0, 0, 0)" stroke-opacity="1.0" stroke-linecap="round" stroke-linejoin="round"/>
    <path d="M 154.82041931152344 169.0798797607422 C 198.95989990234375 151.3553009033203 183.0353546142578 145.85421752929688 153.86968994140625 170.85813903808594" stroke-width="3.0" fill="none" stroke="rgb(0, 0, 0)" stroke-opacity="1.0" stroke-linecap="round" stroke-linejoin="round"/>
    <path d="M 143.73757934570312 197.6765594482422 C 97.19093322753906 189.55593872070312 118.12828063964844 203.9732208251953 119.57240295410156 194.0305938720703" stroke-width="3.0" fill="none" stroke="rgb(0, 0, 0)" stroke-opacity="1.0" stroke-linecap="round" stroke-linejoin="round"/>
    <path d="M 142.4601287841797 56.3533935546875 C 204.8362274169922 101.1113510131836 194.8810272216797 134.3495330810547 179.95465087890625 154.56228637695312" stroke-width="3.0" fill="none" stroke="rgb(0, 0, 0)" stroke-opacity="1.0" stroke-linecap="round" stroke-linejoin="round"/>
    <path d="M 95.65485382080078 184.0113067626953 C 61.36551284790039 179.20535278320312 75.32132720947266 178.55255126953125 64.88024139404297 180.3798065185547" stroke-width="3.0" fill="none" stroke="rgb(0, 0, 0)" stroke-opacity="1.0" stroke-linecap="round" stroke-linejoin="round"/>
    <path d="M 125.4733657836914 121.8219223022461 C 103.06132507324219 166.2377471923828 43.31428909301758 118.41739654541016 78.16883850097656 75.70586395263672" stroke-width="3.0" fill="none" stroke="rgb(0, 0, 0)" stroke-opacity="1.0" stroke-linecap="round" stroke-linejoin="round"/>
    <path d="M 50.15007019042969 149.9746856689453 C 49.53560256958008 148.1219024658203 44.02351760864258 140.15577697753906 52.422760009765625 149.3472442626953" stroke-width="3.0" fill="none" stroke="rgb(0, 0, 0)" stroke-opacity="1.0" stroke-linecap="round" stroke-linejoin="round"/>
    <path d="M 92.5362777709961 184.9115447998047 C 100.93067932128906 198.7000732421875 161.41078186035156 198.56411743164062 102.9842758178711 194.0390167236328" stroke-width="3.0" fill="none" stroke="rgb(0, 0, 0)" stroke-opacity="1.0" stroke-linecap="round" stroke-linejoin="round"/>
    <path d="M 64.82129669189453 40.79759216308594 C 100.86793518066406 52.34315872192383 65.36080932617188 19.986379623413086 139.9686279296875 41.99637222290039" stroke-width="3.0" fill="none" stroke="rgb(0, 0, 0)" stroke-opacity="1.0" stroke-linecap="round" stroke-linejoin="round"/>
    <path d="M 100.70990753173828 31.703323364257812 C 127.83406829833984 50.42692947387695 83.68074035644531 30.11446189880371 153.3542938232422 63.55028533935547" stroke-width="3.0" fill="none" stroke="rgb(0, 0, 0)" stroke-opacity="1.0" stroke-linecap="round" stroke-linejoin="round"/>
    <path d="M 129.54058837890625 38.97161102294922 C 162.52996826171875 55.8228645324707 157.62692260742188 33.38447952270508 178.10928344726562 85.55268096923828" stroke-width="3.0" fill="none" stroke="rgb(0, 0, 0)" stroke-opacity="1.0" stroke-linecap="round" stroke-linejoin="round"/>
    <path d="M 63.29058837890625 177.93946838378906 C 57.434329986572266 165.22976684570312 43.72259521484375 183.87387084960938 38.043949127197266 131.3921356201172" stroke-width="3.0" fill="none" stroke="rgb(0, 0, 0)" stroke-opacity="1.0" stroke-linecap="round" stroke-linejoin="round"/>
    <path d="M 80.73187255859375 168.09716796875 C 129.765625 163.271240234375 103.73345947265625 156.76629638671875 123.28813934326172 156.44642639160156" stroke-width="3.0" fill="none" stroke="rgb(0, 0, 0)" stroke-opacity="1.0" stroke-linecap="round" stroke-linejoin="round"/>
    <path d="M 138.3611297607422 174.78338623046875 C 166.07131958007812 158.7491912841797 151.8209686279297 178.8009796142578 137.86004638671875 175.57510375976562" stroke-width="3.0" fill="none" stroke="rgb(0, 0, 0)" stroke-opacity="1.0" stroke-linecap="round" stroke-linejoin="round"/>
    <path d="M 162.23748779296875 165.87193298339844 C 124.53395080566406 165.68907165527344 152.7070770263672 189.09388732910156 95.04369354248047 185.62301635742188" stroke-width="3.0" fill="none" stroke="rgb(0, 0, 0)" stroke-opacity="1.0" stroke-linecap="round" stroke-linejoin="round"/>
    <path d="M 47.8990364074707 148.41331481933594 C 59.687400817871094 160.90589904785156 55.78535461425781 171.81578063964844 95.50656127929688 166.00515747070312" stroke-width="3.0" fill="none" stroke="rgb(0, 0, 0)" stroke-opacity="1.0" stroke-linecap="round" stroke-linejoin="round"/>
    <path d="M 36.624595642089844 137.81759643554688 C 31.486482620239258 59.393348693847656 22.856529235839844 111.269287109375 34.87435531616211 63.97106170654297" stroke-width="3.0" fill="none" stroke="rgb(0, 0, 0)" stroke-opacity="1.0" stroke-linecap="round" stroke-linejoin="round"/>
    <path d="M 81.05632781982422 167.62744140625 C 108.32363891601562 164.85226440429688 127.80088806152344 160.67013549804688 150.1551055908203 140.28526306152344" stroke-width="3.0" fill="none" stroke="rgb(0, 0, 0)" stroke-opacity="1.0" stroke-linecap="round" stroke-linejoin="round"/>
    <path d="M 33.230308532714844 68.21050262451172 C 50.62998962402344 28.31302833557129 60.60039520263672 47.57138442993164 63.519561767578125 41.258087158203125" stroke-width="3.0" fill="none" stroke="rgb(0, 0, 0)" stroke-opacity="1.0" stroke-linecap="round" stroke-linejoin="round"/>
    <path d="M 190.3943634033203 126.09620666503906 C 195.8369140625 101.00325012207031 184.84210205078125 117.19738006591797 186.46038818359375 91.5238037109375" stroke-width="3.0" fill="none" stroke="rgb(0, 0, 0)" stroke-opacity="1.0" stroke-linecap="round" stroke-linejoin="round"/>
    <path d="M 61.412410736083984 57.88017272949219 C 77.95057678222656 40.31476974487305 98.34632873535156 50.19227600097656 127.37621307373047 50.492576599121094" stroke-width="3.0" fill="none" stroke="rgb(0, 0, 0)" stroke-opacity="1.0" stroke-linecap="round" stroke-linejoin="round"/>
    <path d="M 120.67411041259766 192.96536254882812 C 147.1613311767578 201.95294189453125 168.0996551513672 196.53802490234375 171.91822814941406 159.42877197265625" stroke-width="3.0" fill="none" stroke="rgb(0, 0, 0)" stroke-opacity="1.0" stroke-linecap="round" stroke-linejoin="round"/>
    <path d="M 114.48184967041016 126.81934356689453 C 84.94921112060547 54.181278228759766 59.94779586791992 128.55770874023438 106.63346099853516 138.4512176513672" stroke-width="3.0" fill="none" stroke="rgb(0, 0, 0)" stroke-opacity="1.0" stroke-linecap="round" stroke-linejoin="round"/>
    <path d="M 121.67991638183594 82.0312271118164 C 53.058990478515625 79.23188781738281 96.0568618774414 110.42305755615234 92.41223907470703 123.63986206054688" stroke-width="3.0" fill="none" stroke="rgb(0, 0, 0)" stroke-opacity="1.0" stroke-linecap="round" stroke-linejoin="round"/>
    <path d="M 60.37095260620117 56.63642120361328 C 57.991607666015625 69.54132080078125 51.66435623168945 61.9312629699707 60.69752883911133 99.42250061035156" stroke-width="3.0" fill="none" stroke="rgb(0, 0, 0)" stroke-opacity="1.0" stroke-linecap="round" stroke-linejoin="round"/>
    <path d="M 160.7930450439453 167.77615356445312 C 118.96821594238281 178.30377197265625 154.8101043701172 176.90476989746094 176.58616638183594 100.60165405273438" stroke-width="3.0" fill="none" stroke="rgb(0, 0, 0)" stroke-opacity="1.0" stroke-linecap="round" stroke-linejoin="round"/>
  </g>
</svg>
