<?xml version="1.0" ?>
<svg xmlns="http://www.w3.org/2000/svg" version="1.1" width="224" height="224">
  <defs/>
  <g>
    <path d="M 55.071380615234375 93.97420501708984 C 77.12559509277344 131.20155334472656 49.502784729003906 145.14515686035156 105.4787826538086 151.26918029785156" stroke-width="3.0" fill="none" stroke="rgb(0, 0, 0)" stroke-opacity="1.0" stroke-linecap="round" stroke-linejoin="round"/>
    <path d="M 142.09117126464844 176.99375915527344 C 177.9261016845703 162.30807495117188 171.41720581054688 157.24114990234375 133.96194458007812 179.96578979492188" stroke-width="3.0" fill="none" stroke="rgb(0, 0, 0)" stroke-opacity="1.0" stroke-linecap="round" stroke-linejoin="round"/>
    <path d="M 78.9439468383789 135.76235961914062 C 105.6019058227539 170.93936157226562 102.18576049804688 145.83665466308594 134.75457763671875 137.41525268554688" stroke-width="3.0" fill="none" stroke="rgb(0, 0, 0)" stroke-opacity="1.0" stroke-linecap="round" stroke-linejoin="round"/>
    <path d="M 112.64091491699219 63.57232666015625 C 168.19876098632812 86.33533477783203 151.99127197265625 136.90518188476562 123.97543334960938 150.8899383544922" stroke-width="3.0" fill="none" stroke="rgb(0, 0, 0)" stroke-opacity="1.0" stroke-linecap="round" stroke-linejoin="round"/>
    <path d="M 169.02053833007812 60.726951599121094 C 205.017333984375 85.72126770019531 178.57635498046875 89.20063018798828 190.26165771484375 113.78941345214844" stroke-width="3.0" fill="none" stroke="rgb(0, 0, 0)" stroke-opacity="1.0" stroke-linecap="round" stroke-linejoin="round"/>
    <path d="M 163.59877014160156 72.91739654541016 C 191.71441650390625 95.57134246826172 154.7593231201172 118.44677734375 151.32086181640625 140.86697387695312" stroke-width="3.0" fill="none" stroke="rgb(0, 0, 0)" stroke-opacity="1.0" stroke-linecap="round" stroke-linejoin="round"/>
    <path d="M 43.206878662109375 143.76576232910156 C 23.545515060424805 104.65489196777344 38.627845764160156 148.62290954589844 45.404300689697266 157.7714385986328" stroke-width="3.0" fill="none" stroke="rgb(0, 0, 0)" stroke-opacity="1.0" stroke-linecap="round" stroke-linejoin="round"/>
    <path d="M 155.70968627929688 170.00474548339844 C 193.32785034179688 147.93080139160156 181.63380432128906 144.3404083251953 152.71170043945312 169.76194763183594" stroke-width="3.0" fill="none" stroke="rgb(0, 0, 0)" stroke-opacity="1.0" stroke-linecap="round" stroke-linejoin="round"/>
    <path d="M 141.37257385253906 193.90513610839844 C 95.00524139404297 190.7752227783203 120.33077239990234 199.5841827392578 121.8134994506836 191.2577667236328" stroke-width="3.0" fill="none" stroke="rgb(0, 0, 0)" stroke-opacity="1.0" stroke-linecap="round" stroke-linejoin="round"/>
    <path d="M 145.90682983398438 54.9426155090332 C 203.44627380371094 101.42322540283203 193.05099487304688 133.86158752441406 179.5170135498047 155.77642822265625" stroke-width="3.0" fill="none" stroke="rgb(0, 0, 0)" stroke-opacity="1.0" stroke-linecap="round" stroke-linejoin="round"/>
    <path d="M 91.62163543701172 182.5728302001953 C 58.28793716430664 176.70394897460938 69.60704040527344 184.78219604492188 63.945011138916016 178.72882080078125" stroke-width="3.0" fill="none" stroke="rgb(0, 0, 0)" stroke-opacity="1.0" stroke-linecap="round" stroke-linejoin="round"/>
    <path d="M 117.58980560302734 118.61164855957031 C 99.49336242675781 168.28817749023438 54.157623291015625 118.89057922363281 81.3416748046875 76.97298431396484" stroke-width="3.0" fill="none" stroke="rgb(0, 0, 0)" stroke-opacity="1.0" stroke-linecap="round" stroke-linejoin="round"/>
    <path d="M 50.52407455444336 150.49598693847656 C 43.68048095703125 148.62644958496094 41.87248611450195 139.77096557617188 46.65723419189453 147.2331085205078" stroke-width="3.0" fill="none" stroke="rgb(0, 0, 0)" stroke-opacity="1.0" stroke-linecap="round" stroke-linejoin="round"/>
    <path d="M 92.5703125 182.45550537109375 C 100.8343276977539 197.41380310058594 169.2409210205078 193.93536376953125 98.97566223144531 189.143798828125" stroke-width="3.0" fill="none" stroke="rgb(0, 0, 0)" stroke-opacity="1.0" stroke-linecap="round" stroke-linejoin="round"/>
    <path d="M 64.01374053955078 39.36846923828125 C 104.33087158203125 53.8846549987793 72.61308288574219 16.635913848876953 138.68121337890625 41.350860595703125" stroke-width="3.0" fill="none" stroke="rgb(0, 0, 0)" stroke-opacity="1.0" stroke-linecap="round" stroke-linejoin="round"/>
    <path d="M 103.34774780273438 30.632347106933594 C 137.20094299316406 51.90559387207031 87.77176666259766 32.38002395629883 155.53912353515625 60.61220932006836" stroke-width="3.0" fill="none" stroke="rgb(0, 0, 0)" stroke-opacity="1.0" stroke-linecap="round" stroke-linejoin="round"/>
    <path d="M 127.17225646972656 38.74991226196289 C 166.65789794921875 55.59083938598633 153.90628051757812 33.05855941772461 180.5364227294922 84.40921020507812" stroke-width="3.0" fill="none" stroke="rgb(0, 0, 0)" stroke-opacity="1.0" stroke-linecap="round" stroke-linejoin="round"/>
    <path d="M 64.28636932373047 178.4047393798828 C 62.630802154541016 169.35372924804688 44.625328063964844 181.48829650878906 35.39345932006836 136.16551208496094" stroke-width="3.0" fill="none" stroke="rgb(0, 0, 0)" stroke-opacity="1.0" stroke-linecap="round" stroke-linejoin="round"/>
    <path d="M 76.6945571899414 173.60084533691406 C 133.0289306640625 161.51388549804688 103.35547637939453 161.48989868164062 124.60139465332031 157.18287658691406" stroke-width="3.0" fill="none" stroke="rgb(0, 0, 0)" stroke-opacity="1.0" stroke-linecap="round" stroke-linejoin="round"/>
    <path d="M 147.7025909423828 172.6475830078125 C 174.58006286621094 156.6119842529297 147.96786499023438 181.88937377929688 137.0481414794922 177.38858032226562" stroke-width="3.0" fill="none" stroke="rgb(0, 0, 0)" stroke-opacity="1.0" stroke-linecap="round" stroke-linejoin="round"/>
    <path d="M 158.33604431152344 163.92010498046875 C 125.50582885742188 182.305419921875 139.5549774169922 184.97154235839844 92.7291259765625 183.34544372558594" stroke-width="3.0" fill="none" stroke="rgb(0, 0, 0)" stroke-opacity="1.0" stroke-linecap="round" stroke-linejoin="round"/>
    <path d="M 46.488338470458984 147.33685302734375 C 60.34238815307617 153.892822265625 57.03681182861328 170.2789764404297 94.52427673339844 168.16763305664062" stroke-width="3.0" fill="none" stroke="rgb(0, 0, 0)" stroke-opacity="1.0" stroke-linecap="round" stroke-linejoin="round"/>
    <path d="M 34.318931579589844 137.69039916992188 C 31.43331527709961 66.13418579101562 22.632272720336914 106.67158508300781 36.643531799316406 61.594234466552734" stroke-width="3.0" fill="none" stroke="rgb(0, 0, 0)" stroke-opacity="1.0" stroke-linecap="round" stroke-linejoin="round"/>
    <path d="M 81.51551055908203 166.3897705078125 C 111.34487915039062 166.4509735107422 125.01703643798828 160.8926544189453 152.13296508789062 138.28343200683594" stroke-width="3.0" fill="none" stroke="rgb(0, 0, 0)" stroke-opacity="1.0" stroke-linecap="round" stroke-linejoin="round"/>
    <path d="M 34.59130096435547 69.8512191772461 C 38.858943939208984 40.43267059326172 63.87322998046875 45.99036407470703 60.65433883666992 40.6601676940918" stroke-width="3.0" fill="none" stroke="rgb(0, 0, 0)" stroke-opacity="1.0" stroke-linecap="round" stroke-linejoin="round"/>
    <path d="M 187.01687622070312 131.16029357910156 C 197.2239532470703 96.90099334716797 188.01724243164062 123.64200592041016 187.4583740234375 94.63911437988281" stroke-width="3.0" fill="none" stroke="rgb(0, 0, 0)" stroke-opacity="1.0" stroke-linecap="round" stroke-linejoin="round"/>
    <path d="M 60.74714660644531 55.29831314086914 C 79.87227630615234 36.885658264160156 96.10030364990234 46.481143951416016 132.24667358398438 49.16293716430664" stroke-width="3.0" fill="none" stroke="rgb(0, 0, 0)" stroke-opacity="1.0" stroke-linecap="round" stroke-linejoin="round"/>
    <path d="M 129.12078857421875 193.2252197265625 C 155.5991668701172 189.2030029296875 161.305908203125 196.81581115722656 170.85643005371094 161.7041778564453" stroke-width="3.0" fill="none" stroke="rgb(0, 0, 0)" stroke-opacity="1.0" stroke-linecap="round" stroke-linejoin="round"/>
    <path d="M 108.81169891357422 118.82726287841797 C 85.70439147949219 59.088016510009766 58.236488342285156 123.20862579345703 106.57360076904297 134.49490356445312" stroke-width="3.0" fill="none" stroke="rgb(0, 0, 0)" stroke-opacity="1.0" stroke-linecap="round" stroke-linejoin="round"/>
    <path d="M 121.1323013305664 84.2281265258789 C 62.11454772949219 74.7712631225586 94.63673400878906 101.74401092529297 89.87417602539062 125.57164001464844" stroke-width="3.0" fill="none" stroke="rgb(0, 0, 0)" stroke-opacity="1.0" stroke-linecap="round" stroke-linejoin="round"/>
    <path d="M 61.67955780029297 54.37136459350586 C 56.0213508605957 68.23609161376953 49.35763168334961 61.72972106933594 56.236915588378906 95.46675872802734" stroke-width="3.0" fill="none" stroke="rgb(0, 0, 0)" stroke-opacity="1.0" stroke-linecap="round" stroke-linejoin="round"/>
    <path d="M 163.45957946777344 169.26638793945312 C 127.24246978759766 172.90579223632812 154.3410186767578 177.27796936035156 172.9819793701172 107.42938232421875" stroke-width="3.0" fill="none" stroke="rgb(0, 0, 0)" stroke-opacity="1.0" stroke-linecap="round" stroke-linejoin="round"/>
  </g>
</svg>
