<?xml version="1.0" ?>
<svg xmlns="http://www.w3.org/2000/svg" version="1.1" width="224" height="224">
  <defs/>
  <g>
    <path d="M 67.40449523925781 106.86266326904297 C 70.39234924316406 123.6817398071289 50.99214553833008 147.48780822753906 98.95938110351562 147.56024169921875" stroke-width="3.0" fill="none" stroke="rgb(0, 0, 0)" stroke-opacity="1.0" stroke-linecap="round" stroke-linejoin="round"/>
    <path d="M 157.12567138671875 176.15061950683594 C 187.2255859375 150.14071655273438 187.11610412597656 148.53683471679688 178.5644073486328 160.22996520996094" stroke-width="3.0" fill="none" stroke="rgb(0, 0, 0)" stroke-opacity="1.0" stroke-linecap="round" stroke-linejoin="round"/>
    <path d="M 86.8824691772461 127.22374725341797 C 107.41210174560547 154.5144500732422 103.01676177978516 139.10586547851562 122.1090087890625 139.53363037109375" stroke-width="3.0" fill="none" stroke="rgb(0, 0, 0)" stroke-opacity="1.0" stroke-linecap="round" stroke-linejoin="round"/>
    <path d="M 125.07723236083984 70.99064636230469 C 159.3037109375 110.47674560546875 146.7519073486328 130.60833740234375 121.83268737792969 141.1407012939453" stroke-width="3.0" fill="none" stroke="rgb(0, 0, 0)" stroke-opacity="1.0" stroke-linecap="round" stroke-linejoin="round"/>
    <path d="M 166.96426391601562 58.73067092895508 C 200.5778045654297 76.33995056152344 181.56362915039062 84.76702880859375 191.6482696533203 115.21586608886719" stroke-width="3.0" fill="none" stroke="rgb(0, 0, 0)" stroke-opacity="1.0" stroke-linecap="round" stroke-linejoin="round"/>
    <path d="M 146.41192626953125 82.24527740478516 C 163.5457000732422 105.912109375 165.79652404785156 135.11802673339844 147.40219116210938 164.42788696289062" stroke-width="3.0" fill="none" stroke="rgb(0, 0, 0)" stroke-opacity="1.0" stroke-linecap="round" stroke-linejoin="round"/>
    <path d="M 41.71548080444336 123.3243408203125 C 25.19351577758789 100.58802795410156 47.16856384277344 118.04155731201172 37.679443359375 130.12527465820312" stroke-width="3.0" fill="none" stroke="rgb(0, 0, 0)" stroke-opacity="1.0" stroke-linecap="round" stroke-linejoin="round"/>
    <path d="M 162.49070739746094 168.67872619628906 C 190.1798858642578 158.8258819580078 186.20912170410156 150.24337768554688 150.94329833984375 175.36349487304688" stroke-width="3.0" fill="none" stroke="rgb(0, 0, 0)" stroke-opacity="1.0" stroke-linecap="round" stroke-linejoin="round"/>
    <path d="M 101.49433135986328 188.841796875 C 94.11885070800781 177.61460876464844 101.67030334472656 198.4102325439453 104.4072265625 189.30589294433594" stroke-width="3.0" fill="none" stroke="rgb(0, 0, 0)" stroke-opacity="1.0" stroke-linecap="round" stroke-linejoin="round"/>
    <path d="M 122.85140991210938 61.33401870727539 C 171.1151885986328 97.79519653320312 155.45712280273438 83.94210815429688 169.524658203125 134.7982635498047" stroke-width="3.0" fill="none" stroke="rgb(0, 0, 0)" stroke-opacity="1.0" stroke-linecap="round" stroke-linejoin="round"/>
    <path d="M 80.83172607421875 176.83641052246094 C 68.79302978515625 176.0270233154297 47.594730377197266 171.30953979492188 46.46200942993164 160.91717529296875" stroke-width="3.0" fill="none" stroke="rgb(0, 0, 0)" stroke-opacity="1.0" stroke-linecap="round" stroke-linejoin="round"/>
    <path d="M 102.21544647216797 145.42181396484375 C 75.44149780273438 139.0121307373047 60.89649200439453 108.82897186279297 84.29964447021484 77.41582489013672" stroke-width="3.0" fill="none" stroke="rgb(0, 0, 0)" stroke-opacity="1.0" stroke-linecap="round" stroke-linejoin="round"/>
    <path d="M 55.27231216430664 159.78387451171875 C 32.24907302856445 137.4788055419922 36.57716369628906 127.74095153808594 43.10881042480469 154.70162963867188" stroke-width="3.0" fill="none" stroke="rgb(0, 0, 0)" stroke-opacity="1.0" stroke-linecap="round" stroke-linejoin="round"/>
    <path d="M 78.88951110839844 173.51141357421875 C 95.41810607910156 187.07525634765625 136.55746459960938 190.93865966796875 103.66314697265625 191.0961151123047" stroke-width="3.0" fill="none" stroke="rgb(0, 0, 0)" stroke-opacity="1.0" stroke-linecap="round" stroke-linejoin="round"/>
    <path d="M 67.9046859741211 39.785400390625 C 113.37171936035156 38.819976806640625 83.35342407226562 17.760374069213867 141.42047119140625 41.04353713989258" stroke-width="3.0" fill="none" stroke="rgb(0, 0, 0)" stroke-opacity="1.0" stroke-linecap="round" stroke-linejoin="round"/>
    <path d="M 85.6270523071289 41.46353530883789 C 103.86042022705078 57.352230072021484 102.43330383300781 51.98457336425781 122.03093719482422 60.293701171875" stroke-width="3.0" fill="none" stroke="rgb(0, 0, 0)" stroke-opacity="1.0" stroke-linecap="round" stroke-linejoin="round"/>
    <path d="M 142.80331420898438 40.54638671875 C 148.79129028320312 54.09951400756836 146.41395568847656 31.0645751953125 187.41732788085938 95.71365356445312" stroke-width="3.0" fill="none" stroke="rgb(0, 0, 0)" stroke-opacity="1.0" stroke-linecap="round" stroke-linejoin="round"/>
    <path d="M 60.647254943847656 172.83958435058594 C 53.01515579223633 159.81138610839844 43.9796028137207 171.78634643554688 47.30759811401367 153.9239044189453" stroke-width="3.0" fill="none" stroke="rgb(0, 0, 0)" stroke-opacity="1.0" stroke-linecap="round" stroke-linejoin="round"/>
    <path d="M 77.04029083251953 160.56983947753906 C 108.87361907958984 162.76210021972656 95.821044921875 160.08209228515625 111.9877700805664 156.55764770507812" stroke-width="3.0" fill="none" stroke="rgb(0, 0, 0)" stroke-opacity="1.0" stroke-linecap="round" stroke-linejoin="round"/>
    <path d="M 159.3667449951172 169.718994140625 C 177.87550354003906 161.60397338867188 140.2397918701172 183.0506591796875 157.98342895507812 169.7781982421875" stroke-width="3.0" fill="none" stroke="rgb(0, 0, 0)" stroke-opacity="1.0" stroke-linecap="round" stroke-linejoin="round"/>
    <path d="M 143.56031799316406 191.65257263183594 C 105.9058609008789 190.76219177246094 135.0428466796875 190.0453643798828 100.92945861816406 187.75198364257812" stroke-width="3.0" fill="none" stroke="rgb(0, 0, 0)" stroke-opacity="1.0" stroke-linecap="round" stroke-linejoin="round"/>
    <path d="M 51.20625305175781 159.02842712402344 C 40.89672088623047 153.77073669433594 55.30970764160156 170.03118896484375 80.3685302734375 161.77711486816406" stroke-width="3.0" fill="none" stroke="rgb(0, 0, 0)" stroke-opacity="1.0" stroke-linecap="round" stroke-linejoin="round"/>
    <path d="M 38.157508850097656 138.7877197265625 C 35.762332916259766 76.45099639892578 23.538000106811523 94.52484893798828 32.91836166381836 81.0746841430664" stroke-width="3.0" fill="none" stroke="rgb(0, 0, 0)" stroke-opacity="1.0" stroke-linecap="round" stroke-linejoin="round"/>
    <path d="M 90.93498992919922 160.237548828125 C 117.49910736083984 157.84710693359375 111.86576843261719 152.4879608154297 127.22772216796875 148.26104736328125" stroke-width="3.0" fill="none" stroke="rgb(0, 0, 0)" stroke-opacity="1.0" stroke-linecap="round" stroke-linejoin="round"/>
    <path d="M 33.27103805541992 80.12312316894531 C 36.98641586303711 37.08043670654297 61.064117431640625 45.662960052490234 67.16203308105469 40.74006271362305" stroke-width="3.0" fill="none" stroke="rgb(0, 0, 0)" stroke-opacity="1.0" stroke-linecap="round" stroke-linejoin="round"/>
    <path d="M 192.77194213867188 117.03604125976562 C 188.6749267578125 140.70486450195312 181.38113403320312 165.8474884033203 176.1050567626953 162.3712921142578" stroke-width="3.0" fill="none" stroke="rgb(0, 0, 0)" stroke-opacity="1.0" stroke-linecap="round" stroke-linejoin="round"/>
    <path d="M 65.6015396118164 51.825775146484375 C 70.15582275390625 51.50347900390625 65.8183364868164 45.342411041259766 100.7411117553711 52.990692138671875" stroke-width="3.0" fill="none" stroke="rgb(0, 0, 0)" stroke-opacity="1.0" stroke-linecap="round" stroke-linejoin="round"/>
    <path d="M 144.09130859375 192.4704132080078 C 158.4280548095703 181.56590270996094 151.79844665527344 193.99171447753906 166.7714080810547 166.22946166992188" stroke-width="3.0" fill="none" stroke="rgb(0, 0, 0)" stroke-opacity="1.0" stroke-linecap="round" stroke-linejoin="round"/>
    <path d="M 96.1522216796875 127.12608337402344 C 90.47490692138672 101.40548706054688 77.18069458007812 118.34394073486328 104.83281707763672 134.01675415039062" stroke-width="3.0" fill="none" stroke="rgb(0, 0, 0)" stroke-opacity="1.0" stroke-linecap="round" stroke-linejoin="round"/>
    <path d="M 114.08679962158203 90.44441223144531 C 71.2653579711914 85.95701599121094 88.42709350585938 106.34757232666016 85.85104370117188 126.41462707519531" stroke-width="3.0" fill="none" stroke="rgb(0, 0, 0)" stroke-opacity="1.0" stroke-linecap="round" stroke-linejoin="round"/>
    <path d="M 64.44014739990234 53.055179595947266 C 53.96216583251953 55.71128463745117 42.68281173706055 69.0897445678711 40.802528381347656 78.46043395996094" stroke-width="3.0" fill="none" stroke="rgb(0, 0, 0)" stroke-opacity="1.0" stroke-linecap="round" stroke-linejoin="round"/>
    <path d="M 147.0291748046875 171.4016571044922 C 136.48605346679688 166.30470275878906 139.23086547851562 152.22256469726562 132.54718017578125 146.57708740234375" stroke-width="3.0" fill="none" stroke="rgb(0, 0, 0)" stroke-opacity="1.0" stroke-linecap="round" stroke-linejoin="round"/>
  </g>
</svg>
