<?xml version="1.0" ?>
<svg xmlns="http://www.w3.org/2000/svg" version="1.1" width="224" height="224">
  <defs/>
  <g>
    <path d="M 56.04047393798828 90.85716247558594 C 79.45465087890625 132.7921600341797 49.61068344116211 145.08204650878906 98.59712219238281 152.37490844726562" stroke-width="3.0" fill="none" stroke="rgb(0, 0, 0)" stroke-opacity="1.0" stroke-linecap="round" stroke-linejoin="round"/>
    <path d="M 155.77938842773438 168.9691619873047 C 175.7954559326172 153.44712829589844 175.922607421875 156.4884490966797 146.10479736328125 185.00038146972656" stroke-width="3.0" fill="none" stroke="rgb(0, 0, 0)" stroke-opacity="1.0" stroke-linecap="round" stroke-linejoin="round"/>
    <path d="M 77.1520004272461 133.13694763183594 C 104.7326431274414 173.521240234375 100.02971649169922 147.15830993652344 139.5348358154297 139.90414428710938" stroke-width="3.0" fill="none" stroke="rgb(0, 0, 0)" stroke-opacity="1.0" stroke-linecap="round" stroke-linejoin="round"/>
    <path d="M 115.70059204101562 62.96403503417969 C 169.00550842285156 88.00926971435547 156.4668731689453 146.45249938964844 124.60607147216797 145.33677673339844" stroke-width="3.0" fill="none" stroke="rgb(0, 0, 0)" stroke-opacity="1.0" stroke-linecap="round" stroke-linejoin="round"/>
    <path d="M 167.865478515625 61.883060455322266 C 203.8489532470703 90.2304458618164 179.56344604492188 85.92295837402344 188.59918212890625 114.72911834716797" stroke-width="3.0" fill="none" stroke="rgb(0, 0, 0)" stroke-opacity="1.0" stroke-linecap="round" stroke-linejoin="round"/>
    <path d="M 163.45628356933594 76.74146270751953 C 190.64109802246094 99.8613052368164 157.70924377441406 118.610595703125 152.2572479248047 139.49606323242188" stroke-width="3.0" fill="none" stroke="rgb(0, 0, 0)" stroke-opacity="1.0" stroke-linecap="round" stroke-linejoin="round"/>
    <path d="M 43.6029052734375 143.72959899902344 C 27.270986557006836 106.9697265625 41.10495376586914 146.68368530273438 42.80174255371094 158.1585235595703" stroke-width="3.0" fill="none" stroke="rgb(0, 0, 0)" stroke-opacity="1.0" stroke-linecap="round" stroke-linejoin="round"/>
    <path d="M 156.37037658691406 173.047119140625 C 192.15135192871094 150.2185821533203 178.6055908203125 146.52377319335938 157.10275268554688 179.93682861328125" stroke-width="3.0" fill="none" stroke="rgb(0, 0, 0)" stroke-opacity="1.0" stroke-linecap="round" stroke-linejoin="round"/>
    <path d="M 127.5641098022461 188.73707580566406 C 96.3094482421875 186.10006713867188 121.21973419189453 197.8804931640625 122.66045379638672 190.60313415527344" stroke-width="3.0" fill="none" stroke="rgb(0, 0, 0)" stroke-opacity="1.0" stroke-linecap="round" stroke-linejoin="round"/>
    <path d="M 138.66368103027344 54.297767639160156 C 200.57147216796875 108.14617156982422 186.51766967773438 127.67843627929688 180.85989379882812 155.219482421875" stroke-width="3.0" fill="none" stroke="rgb(0, 0, 0)" stroke-opacity="1.0" stroke-linecap="round" stroke-linejoin="round"/>
    <path d="M 91.74058532714844 181.24598693847656 C 55.96794509887695 176.7835235595703 66.67506408691406 183.5831756591797 64.02783203125 176.0226287841797" stroke-width="3.0" fill="none" stroke="rgb(0, 0, 0)" stroke-opacity="1.0" stroke-linecap="round" stroke-linejoin="round"/>
    <path d="M 117.91259002685547 121.4652099609375 C 92.93663024902344 159.27938842773438 54.54308319091797 115.20807647705078 81.79136657714844 73.55024719238281" stroke-width="3.0" fill="none" stroke="rgb(0, 0, 0)" stroke-opacity="1.0" stroke-linecap="round" stroke-linejoin="round"/>
    <path d="M 49.0128288269043 144.7547607421875 C 45.12814712524414 145.78265380859375 41.78950881958008 138.12742614746094 46.992069244384766 143.4583740234375" stroke-width="3.0" fill="none" stroke="rgb(0, 0, 0)" stroke-opacity="1.0" stroke-linecap="round" stroke-linejoin="round"/>
    <path d="M 91.50267791748047 180.47695922851562 C 102.3431625366211 192.51988220214844 161.14474487304688 197.7098388671875 95.13953399658203 184.99642944335938" stroke-width="3.0" fill="none" stroke="rgb(0, 0, 0)" stroke-opacity="1.0" stroke-linecap="round" stroke-linejoin="round"/>
    <path d="M 68.14193725585938 39.167449951171875 C 97.60758972167969 50.557979583740234 71.94091796875 16.31539535522461 140.9385986328125 44.739402770996094" stroke-width="3.0" fill="none" stroke="rgb(0, 0, 0)" stroke-opacity="1.0" stroke-linecap="round" stroke-linejoin="round"/>
    <path d="M 103.98887634277344 30.366409301757812 C 129.92115783691406 50.37066650390625 87.40708923339844 29.734033584594727 151.43072509765625 63.189456939697266" stroke-width="3.0" fill="none" stroke="rgb(0, 0, 0)" stroke-opacity="1.0" stroke-linecap="round" stroke-linejoin="round"/>
    <path d="M 127.19615173339844 42.20246505737305 C 157.9770965576172 54.66990280151367 154.66363525390625 34.75186538696289 178.3905029296875 91.64215850830078" stroke-width="3.0" fill="none" stroke="rgb(0, 0, 0)" stroke-opacity="1.0" stroke-linecap="round" stroke-linejoin="round"/>
    <path d="M 66.09180450439453 176.31939697265625 C 58.649593353271484 167.6884765625 42.49561309814453 181.7928009033203 35.74821090698242 133.8140411376953" stroke-width="3.0" fill="none" stroke="rgb(0, 0, 0)" stroke-opacity="1.0" stroke-linecap="round" stroke-linejoin="round"/>
    <path d="M 84.19165802001953 174.96945190429688 C 124.95303344726562 163.8180694580078 98.74089050292969 163.8926544189453 124.6332015991211 160.66085815429688" stroke-width="3.0" fill="none" stroke="rgb(0, 0, 0)" stroke-opacity="1.0" stroke-linecap="round" stroke-linejoin="round"/>
    <path d="M 159.48414611816406 176.8330841064453 C 176.5208740234375 156.57044982910156 148.88223266601562 182.34414672851562 150.14431762695312 184.169189453125" stroke-width="3.0" fill="none" stroke="rgb(0, 0, 0)" stroke-opacity="1.0" stroke-linecap="round" stroke-linejoin="round"/>
    <path d="M 154.2491455078125 182.00210571289062 C 131.58673095703125 193.45347595214844 141.31338500976562 187.85984802246094 102.6563949584961 188.6710662841797" stroke-width="3.0" fill="none" stroke="rgb(0, 0, 0)" stroke-opacity="1.0" stroke-linecap="round" stroke-linejoin="round"/>
    <path d="M 46.00458908081055 144.70152282714844 C 57.61873245239258 155.56463623046875 59.99362564086914 170.85865783691406 91.2934799194336 167.9900360107422" stroke-width="3.0" fill="none" stroke="rgb(0, 0, 0)" stroke-opacity="1.0" stroke-linecap="round" stroke-linejoin="round"/>
    <path d="M 35.370174407958984 136.36729431152344 C 32.39818572998047 68.17089080810547 22.24168586730957 106.57076263427734 36.10630798339844 60.61835479736328" stroke-width="3.0" fill="none" stroke="rgb(0, 0, 0)" stroke-opacity="1.0" stroke-linecap="round" stroke-linejoin="round"/>
    <path d="M 84.1468734741211 169.285888671875 C 113.0948257446289 167.26976013183594 130.38973999023438 164.8518524169922 151.60430908203125 138.9045867919922" stroke-width="3.0" fill="none" stroke="rgb(0, 0, 0)" stroke-opacity="1.0" stroke-linecap="round" stroke-linejoin="round"/>
    <path d="M 36.18307876586914 68.94457244873047 C 35.36717224121094 32.461185455322266 69.30631256103516 44.00299072265625 65.95570373535156 40.6377067565918" stroke-width="3.0" fill="none" stroke="rgb(0, 0, 0)" stroke-opacity="1.0" stroke-linecap="round" stroke-linejoin="round"/>
    <path d="M 187.6315155029297 127.23088073730469 C 192.00421142578125 97.35301971435547 183.6035919189453 135.42066955566406 186.2842559814453 100.61865997314453" stroke-width="3.0" fill="none" stroke="rgb(0, 0, 0)" stroke-opacity="1.0" stroke-linecap="round" stroke-linejoin="round"/>
    <path d="M 61.76218032836914 54.59428024291992 C 82.41831970214844 38.63250732421875 93.42108154296875 46.67749786376953 134.59059143066406 53.51175308227539" stroke-width="3.0" fill="none" stroke="rgb(0, 0, 0)" stroke-opacity="1.0" stroke-linecap="round" stroke-linejoin="round"/>
    <path d="M 138.55914306640625 193.78802490234375 C 173.3303680419922 182.5982666015625 145.95538330078125 194.446044921875 172.17628479003906 159.4016876220703" stroke-width="3.0" fill="none" stroke="rgb(0, 0, 0)" stroke-opacity="1.0" stroke-linecap="round" stroke-linejoin="round"/>
    <path d="M 106.4966812133789 119.54026794433594 C 88.23914337158203 68.99850463867188 64.25564575195312 115.5234375 106.61406707763672 130.29013061523438" stroke-width="3.0" fill="none" stroke="rgb(0, 0, 0)" stroke-opacity="1.0" stroke-linecap="round" stroke-linejoin="round"/>
    <path d="M 120.22306060791016 81.84597778320312 C 65.71623229980469 78.78209686279297 92.9081039428711 99.71275329589844 92.53845977783203 120.64818572998047" stroke-width="3.0" fill="none" stroke="rgb(0, 0, 0)" stroke-opacity="1.0" stroke-linecap="round" stroke-linejoin="round"/>
    <path d="M 63.007015228271484 51.344356536865234 C 57.83062744140625 65.97035217285156 53.3173828125 62.08262634277344 57.28450012207031 90.03855895996094" stroke-width="3.0" fill="none" stroke="rgb(0, 0, 0)" stroke-opacity="1.0" stroke-linecap="round" stroke-linejoin="round"/>
    <path d="M 165.4354705810547 164.39743041992188 C 123.69862365722656 165.74046325683594 154.89500427246094 181.92684936523438 177.05624389648438 107.31669616699219" stroke-width="3.0" fill="none" stroke="rgb(0, 0, 0)" stroke-opacity="1.0" stroke-linecap="round" stroke-linejoin="round"/>
  </g>
</svg>
