<?xml version="1.0" ?>
<svg xmlns="http://www.w3.org/2000/svg" version="1.1" width="224" height="224">
  <defs/>
  <g>
    <path d="M 61.7296142578125 115.16790008544922 C 64.98686981201172 125.41217803955078 51.47876739501953 137.09548950195312 67.18536376953125 147.77330017089844" stroke-width="3.0" fill="none" stroke="rgb(0, 0, 0)" stroke-opacity="1.0" stroke-linecap="round" stroke-linejoin="round"/>
    <path d="M 167.8921356201172 170.29244995117188 C 184.5756378173828 157.34925842285156 176.47494506835938 132.76556396484375 175.35040283203125 159.27928161621094" stroke-width="3.0" fill="none" stroke="rgb(0, 0, 0)" stroke-opacity="1.0" stroke-linecap="round" stroke-linejoin="round"/>
    <path d="M 89.0528564453125 134.20187377929688 C 111.35577392578125 140.82762145996094 81.30286407470703 140.94468688964844 117.74445343017578 139.252197265625" stroke-width="3.0" fill="none" stroke="rgb(0, 0, 0)" stroke-opacity="1.0" stroke-linecap="round" stroke-linejoin="round"/>
    <path d="M 151.64773559570312 102.11219024658203 C 139.39222717285156 131.36741638183594 153.16134643554688 126.0154037475586 128.50282287597656 144.9898681640625" stroke-width="3.0" fill="none" stroke="rgb(0, 0, 0)" stroke-opacity="1.0" stroke-linecap="round" stroke-linejoin="round"/>
    <path d="M 171.64039611816406 64.79676055908203 C 196.02720642089844 87.08409118652344 183.9132843017578 83.09297943115234 185.4288787841797 102.80728912353516" stroke-width="3.0" fill="none" stroke="rgb(0, 0, 0)" stroke-opacity="1.0" stroke-linecap="round" stroke-linejoin="round"/>
    <path d="M 146.69842529296875 109.8277587890625 C 149.6302947998047 125.67040252685547 147.28683471679688 133.43917846679688 138.04469299316406 150.1708984375" stroke-width="3.0" fill="none" stroke="rgb(0, 0, 0)" stroke-opacity="1.0" stroke-linecap="round" stroke-linejoin="round"/>
    <path d="M 38.63019561767578 108.37078857421875 C 31.771387100219727 98.5296630859375 44.29103088378906 113.5003890991211 39.38523864746094 110.56891632080078" stroke-width="3.0" fill="none" stroke="rgb(0, 0, 0)" stroke-opacity="1.0" stroke-linecap="round" stroke-linejoin="round"/>
    <path d="M 157.62840270996094 167.87001037597656 C 176.5814666748047 160.34646606445312 185.60157775878906 170.619384765625 149.0129852294922 167.205078125" stroke-width="3.0" fill="none" stroke="rgb(0, 0, 0)" stroke-opacity="1.0" stroke-linecap="round" stroke-linejoin="round"/>
    <path d="M 99.96887969970703 186.18820190429688 C 100.51500701904297 187.90667724609375 98.69052124023438 191.79141235351562 104.74037170410156 189.09068298339844" stroke-width="3.0" fill="none" stroke="rgb(0, 0, 0)" stroke-opacity="1.0" stroke-linecap="round" stroke-linejoin="round"/>
    <path d="M 126.22439575195312 70.05967712402344 C 162.48402404785156 95.73064422607422 150.45387268066406 94.46864318847656 166.21490478515625 124.31207275390625" stroke-width="3.0" fill="none" stroke="rgb(0, 0, 0)" stroke-opacity="1.0" stroke-linecap="round" stroke-linejoin="round"/>
    <path d="M 71.0462417602539 169.54196166992188 C 68.17045593261719 171.2735595703125 58.446956634521484 174.19198608398438 67.97105407714844 169.3932647705078" stroke-width="3.0" fill="none" stroke="rgb(0, 0, 0)" stroke-opacity="1.0" stroke-linecap="round" stroke-linejoin="round"/>
    <path d="M 88.11470794677734 139.89784240722656 C 74.1466293334961 123.0634765625 64.30377960205078 120.77169036865234 80.04003143310547 99.5260238647461" stroke-width="3.0" fill="none" stroke="rgb(0, 0, 0)" stroke-opacity="1.0" stroke-linecap="round" stroke-linejoin="round"/>
    <path d="M 40.634033203125 152.58062744140625 C 31.241987228393555 144.8883056640625 32.75032424926758 136.53294372558594 38.875 153.83827209472656" stroke-width="3.0" fill="none" stroke="rgb(0, 0, 0)" stroke-opacity="1.0" stroke-linecap="round" stroke-linejoin="round"/>
    <path d="M 83.30159759521484 173.19259643554688 C 95.49786376953125 192.79238891601562 109.95881652832031 187.43701171875 101.9399185180664 190.18113708496094" stroke-width="3.0" fill="none" stroke="rgb(0, 0, 0)" stroke-opacity="1.0" stroke-linecap="round" stroke-linejoin="round"/>
    <path d="M 93.01666259765625 35.56012725830078 C 110.97809600830078 35.88166427612305 112.49398803710938 28.5815486907959 128.35336303710938 35.395198822021484" stroke-width="3.0" fill="none" stroke="rgb(0, 0, 0)" stroke-opacity="1.0" stroke-linecap="round" stroke-linejoin="round"/>
    <path d="M 76.6047134399414 61.27243423461914 C 100.42290496826172 62.931678771972656 78.70308685302734 62.219642639160156 118.22227478027344 70.6563949584961" stroke-width="3.0" fill="none" stroke="rgb(0, 0, 0)" stroke-opacity="1.0" stroke-linecap="round" stroke-linejoin="round"/>
    <path d="M 142.77952575683594 36.74641036987305 C 133.10458374023438 39.879112243652344 156.11654663085938 29.740549087524414 173.69366455078125 73.06797790527344" stroke-width="3.0" fill="none" stroke="rgb(0, 0, 0)" stroke-opacity="1.0" stroke-linecap="round" stroke-linejoin="round"/>
    <path d="M 62.203243255615234 166.14060974121094 C 58.689701080322266 160.76495361328125 49.465301513671875 172.92149353027344 42.340999603271484 154.01516723632812" stroke-width="3.0" fill="none" stroke="rgb(0, 0, 0)" stroke-opacity="1.0" stroke-linecap="round" stroke-linejoin="round"/>
    <path d="M 92.38653564453125 163.46510314941406 C 93.29573822021484 167.99803161621094 77.4057846069336 169.7931365966797 99.53030395507812 161.87228393554688" stroke-width="3.0" fill="none" stroke="rgb(0, 0, 0)" stroke-opacity="1.0" stroke-linecap="round" stroke-linejoin="round"/>
    <path d="M 160.80564880371094 166.72445678710938 C 185.46481323242188 161.53292846679688 158.47804260253906 178.42556762695312 167.4298858642578 164.91624450683594" stroke-width="3.0" fill="none" stroke="rgb(0, 0, 0)" stroke-opacity="1.0" stroke-linecap="round" stroke-linejoin="round"/>
    <path d="M 112.86580657958984 188.93939208984375 C 108.6701889038086 191.96209716796875 117.99925994873047 196.90618896484375 97.94091796875 185.01026916503906" stroke-width="3.0" fill="none" stroke="rgb(0, 0, 0)" stroke-opacity="1.0" stroke-linecap="round" stroke-linejoin="round"/>
    <path d="M 65.26947784423828 170.25518798828125 C 61.441139221191406 164.47743225097656 58.42674255371094 167.6444854736328 85.183349609375 168.17587280273438" stroke-width="3.0" fill="none" stroke="rgb(0, 0, 0)" stroke-opacity="1.0" stroke-linecap="round" stroke-linejoin="round"/>
    <path d="M 41.48291015625 125.36766052246094 C 39.13015365600586 106.41812896728516 28.570053100585938 97.3555908203125 46.894371032714844 82.73332214355469" stroke-width="3.0" fill="none" stroke="rgb(0, 0, 0)" stroke-opacity="1.0" stroke-linecap="round" stroke-linejoin="round"/>
    <path d="M 102.9761734008789 161.52883911132812 C 107.1743392944336 151.04554748535156 114.37372589111328 148.3690643310547 109.17598724365234 153.28402709960938" stroke-width="3.0" fill="none" stroke="rgb(0, 0, 0)" stroke-opacity="1.0" stroke-linecap="round" stroke-linejoin="round"/>
    <path d="M 48.02953338623047 89.24614715576172 C 37.41484451293945 35.47361373901367 43.258819580078125 64.04725646972656 59.61204147338867 38.58769989013672" stroke-width="3.0" fill="none" stroke="rgb(0, 0, 0)" stroke-opacity="1.0" stroke-linecap="round" stroke-linejoin="round"/>
    <path d="M 187.11497497558594 124.4875717163086 C 185.81277465820312 145.82037353515625 168.13479614257812 154.96231079101562 175.5966796875 154.802734375" stroke-width="3.0" fill="none" stroke="rgb(0, 0, 0)" stroke-opacity="1.0" stroke-linecap="round" stroke-linejoin="round"/>
    <path d="M 66.54049682617188 62.76634979248047 C 59.25326156616211 63.41022491455078 62.1282958984375 62.74470520019531 74.09733581542969 64.44648742675781" stroke-width="3.0" fill="none" stroke="rgb(0, 0, 0)" stroke-opacity="1.0" stroke-linecap="round" stroke-linejoin="round"/>
    <path d="M 147.448486328125 194.39231872558594 C 153.86927795410156 189.90550231933594 150.956298828125 193.95260620117188 160.68565368652344 183.3341827392578" stroke-width="3.0" fill="none" stroke="rgb(0, 0, 0)" stroke-opacity="1.0" stroke-linecap="round" stroke-linejoin="round"/>
    <path d="M 90.29422760009766 123.95413970947266 C 92.54149627685547 110.19129943847656 78.5211410522461 101.64327239990234 88.49301147460938 132.862060546875" stroke-width="3.0" fill="none" stroke="rgb(0, 0, 0)" stroke-opacity="1.0" stroke-linecap="round" stroke-linejoin="round"/>
    <path d="M 107.00434875488281 92.98081970214844 C 75.6015625 92.73194122314453 93.04419708251953 108.87190246582031 85.74552154541016 126.64647674560547" stroke-width="3.0" fill="none" stroke="rgb(0, 0, 0)" stroke-opacity="1.0" stroke-linecap="round" stroke-linejoin="round"/>
    <path d="M 59.15806579589844 60.04912567138672 C 45.026092529296875 66.18312072753906 55.91825485229492 72.74687957763672 53.94869613647461 75.15413665771484" stroke-width="3.0" fill="none" stroke="rgb(0, 0, 0)" stroke-opacity="1.0" stroke-linecap="round" stroke-linejoin="round"/>
    <path d="M 141.726806640625 164.8852996826172 C 136.02224731445312 161.389892578125 128.27349853515625 143.0443115234375 114.18077087402344 144.84259033203125" stroke-width="3.0" fill="none" stroke="rgb(0, 0, 0)" stroke-opacity="1.0" stroke-linecap="round" stroke-linejoin="round"/>
  </g>
</svg>
