<?xml version="1.0" ?>
<svg xmlns="http://www.w3.org/2000/svg" version="1.1" width="224" height="224">
  <defs/>
  <g>
    <path d="M 56.541194915771484 94.38630676269531 C 70.71460723876953 134.22543334960938 44.83955383300781 153.87510681152344 110.77008056640625 152.4951629638672" stroke-width="3.0" fill="none" stroke="rgb(0, 0, 0)" stroke-opacity="1.0" stroke-linecap="round" stroke-linejoin="round"/>
    <path d="M 139.5250244140625 175.10899353027344 C 180.4654998779297 163.86502075195312 172.12582397460938 157.24510192871094 132.36512756347656 180.54043579101562" stroke-width="3.0" fill="none" stroke="rgb(0, 0, 0)" stroke-opacity="1.0" stroke-linecap="round" stroke-linejoin="round"/>
    <path d="M 78.39513397216797 135.86920166015625 C 109.74848175048828 175.50119018554688 105.41407012939453 146.197998046875 134.29339599609375 134.08938598632812" stroke-width="3.0" fill="none" stroke="rgb(0, 0, 0)" stroke-opacity="1.0" stroke-linecap="round" stroke-linejoin="round"/>
    <path d="M 116.35281372070312 66.0138931274414 C 170.43435668945312 97.89934539794922 152.93006896972656 130.34686279296875 124.08061218261719 151.90309143066406" stroke-width="3.0" fill="none" stroke="rgb(0, 0, 0)" stroke-opacity="1.0" stroke-linecap="round" stroke-linejoin="round"/>
    <path d="M 168.50657653808594 59.09144973754883 C 201.1811981201172 80.80628967285156 177.68441772460938 84.340087890625 189.396728515625 114.3058853149414" stroke-width="3.0" fill="none" stroke="rgb(0, 0, 0)" stroke-opacity="1.0" stroke-linecap="round" stroke-linejoin="round"/>
    <path d="M 164.78143310546875 75.00382995605469 C 192.6916961669922 89.28966522216797 152.2707977294922 116.28297424316406 150.34762573242188 138.8426513671875" stroke-width="3.0" fill="none" stroke="rgb(0, 0, 0)" stroke-opacity="1.0" stroke-linecap="round" stroke-linejoin="round"/>
    <path d="M 44.105438232421875 143.28607177734375 C 22.51504898071289 100.66002655029297 40.44755172729492 141.84710693359375 40.50788116455078 157.84814453125" stroke-width="3.0" fill="none" stroke="rgb(0, 0, 0)" stroke-opacity="1.0" stroke-linecap="round" stroke-linejoin="round"/>
    <path d="M 154.47230529785156 169.18161010742188 C 194.6841583251953 148.61163330078125 182.6653289794922 145.93045043945312 153.3728485107422 170.5449981689453" stroke-width="3.0" fill="none" stroke="rgb(0, 0, 0)" stroke-opacity="1.0" stroke-linecap="round" stroke-linejoin="round"/>
    <path d="M 146.54592895507812 193.76974487304688 C 92.4346923828125 192.07891845703125 113.87274169921875 202.4269256591797 124.3567886352539 193.2812042236328" stroke-width="3.0" fill="none" stroke="rgb(0, 0, 0)" stroke-opacity="1.0" stroke-linecap="round" stroke-linejoin="round"/>
    <path d="M 142.8271942138672 56.07333755493164 C 202.01504516601562 101.1808090209961 194.0619659423828 142.3380126953125 180.559326171875 154.99452209472656" stroke-width="3.0" fill="none" stroke="rgb(0, 0, 0)" stroke-opacity="1.0" stroke-linecap="round" stroke-linejoin="round"/>
    <path d="M 95.81660461425781 182.49732971191406 C 64.00626373291016 176.34378051757812 72.99955749511719 181.6483917236328 67.6247329711914 179.96104431152344" stroke-width="3.0" fill="none" stroke="rgb(0, 0, 0)" stroke-opacity="1.0" stroke-linecap="round" stroke-linejoin="round"/>
    <path d="M 119.4252700805664 121.6943130493164 C 100.84652709960938 169.48141479492188 50.463645935058594 117.93622589111328 77.66106414794922 77.18112182617188" stroke-width="3.0" fill="none" stroke="rgb(0, 0, 0)" stroke-opacity="1.0" stroke-linecap="round" stroke-linejoin="round"/>
    <path d="M 50.256099700927734 151.8085174560547 C 45.32527542114258 149.22738647460938 42.17021942138672 138.3488006591797 48.1347541809082 146.3285369873047" stroke-width="3.0" fill="none" stroke="rgb(0, 0, 0)" stroke-opacity="1.0" stroke-linecap="round" stroke-linejoin="round"/>
    <path d="M 92.7846908569336 185.02740478515625 C 100.9661636352539 201.6006622314453 164.80531311035156 194.1866455078125 100.28950500488281 193.2021484375" stroke-width="3.0" fill="none" stroke="rgb(0, 0, 0)" stroke-opacity="1.0" stroke-linecap="round" stroke-linejoin="round"/>
    <path d="M 68.36613464355469 38.27879333496094 C 100.3145523071289 51.35340118408203 62.018699645996094 22.375865936279297 139.07489013671875 42.432861328125" stroke-width="3.0" fill="none" stroke="rgb(0, 0, 0)" stroke-opacity="1.0" stroke-linecap="round" stroke-linejoin="round"/>
    <path d="M 100.49992370605469 32.903404235839844 C 132.89730834960938 49.2823600769043 85.59803771972656 30.041135787963867 154.22634887695312 62.58390426635742" stroke-width="3.0" fill="none" stroke="rgb(0, 0, 0)" stroke-opacity="1.0" stroke-linecap="round" stroke-linejoin="round"/>
    <path d="M 125.69955444335938 38.60553741455078 C 167.57557678222656 55.344478607177734 151.82986450195312 34.32664489746094 179.01368713378906 85.36502838134766" stroke-width="3.0" fill="none" stroke="rgb(0, 0, 0)" stroke-opacity="1.0" stroke-linecap="round" stroke-linejoin="round"/>
    <path d="M 64.94462585449219 179.53810119628906 C 62.42951965332031 168.5779571533203 44.497032165527344 179.06045532226562 33.582252502441406 135.20120239257812" stroke-width="3.0" fill="none" stroke="rgb(0, 0, 0)" stroke-opacity="1.0" stroke-linecap="round" stroke-linejoin="round"/>
    <path d="M 81.16786193847656 170.59010314941406 C 133.9442901611328 162.68431091308594 105.2493896484375 159.23704528808594 125.04881286621094 156.71710205078125" stroke-width="3.0" fill="none" stroke="rgb(0, 0, 0)" stroke-opacity="1.0" stroke-linecap="round" stroke-linejoin="round"/>
    <path d="M 140.05528259277344 171.5673370361328 C 170.69921875 153.71963500976562 153.77670288085938 179.5396270751953 136.1733856201172 176.14915466308594" stroke-width="3.0" fill="none" stroke="rgb(0, 0, 0)" stroke-opacity="1.0" stroke-linecap="round" stroke-linejoin="round"/>
    <path d="M 163.3485870361328 164.8587188720703 C 120.5926284790039 172.8248748779297 145.87957763671875 189.78404235839844 95.77788543701172 184.7349853515625" stroke-width="3.0" fill="none" stroke="rgb(0, 0, 0)" stroke-opacity="1.0" stroke-linecap="round" stroke-linejoin="round"/>
    <path d="M 46.673770904541016 148.60379028320312 C 59.78459548950195 157.45855712890625 55.98809814453125 168.8418731689453 94.12980651855469 166.26661682128906" stroke-width="3.0" fill="none" stroke="rgb(0, 0, 0)" stroke-opacity="1.0" stroke-linecap="round" stroke-linejoin="round"/>
    <path d="M 33.786197662353516 134.83787536621094 C 34.51374435424805 66.38157653808594 21.14990234375 112.71619415283203 34.899925231933594 64.50289154052734" stroke-width="3.0" fill="none" stroke="rgb(0, 0, 0)" stroke-opacity="1.0" stroke-linecap="round" stroke-linejoin="round"/>
    <path d="M 84.38079833984375 168.55551147460938 C 108.84233093261719 164.85556030273438 127.07823944091797 160.43121337890625 149.9341278076172 139.7093048095703" stroke-width="3.0" fill="none" stroke="rgb(0, 0, 0)" stroke-opacity="1.0" stroke-linecap="round" stroke-linejoin="round"/>
    <path d="M 33.277225494384766 69.52847290039062 C 44.35634994506836 35.98561096191406 61.395877838134766 46.77565002441406 66.54682922363281 39.557945251464844" stroke-width="3.0" fill="none" stroke="rgb(0, 0, 0)" stroke-opacity="1.0" stroke-linecap="round" stroke-linejoin="round"/>
    <path d="M 190.5364532470703 124.57369232177734 C 195.7020263671875 104.05775451660156 184.47557067871094 116.9761962890625 186.19912719726562 92.82567596435547" stroke-width="3.0" fill="none" stroke="rgb(0, 0, 0)" stroke-opacity="1.0" stroke-linecap="round" stroke-linejoin="round"/>
    <path d="M 59.6618766784668 57.6923942565918 C 80.23783874511719 37.60514450073242 98.84626770019531 49.48775100708008 131.2556915283203 49.170143127441406" stroke-width="3.0" fill="none" stroke="rgb(0, 0, 0)" stroke-opacity="1.0" stroke-linecap="round" stroke-linejoin="round"/>
    <path d="M 126.4173812866211 197.0426788330078 C 149.70291137695312 193.72808837890625 164.91421508789062 194.3152618408203 173.80072021484375 158.97103881835938" stroke-width="3.0" fill="none" stroke="rgb(0, 0, 0)" stroke-opacity="1.0" stroke-linecap="round" stroke-linejoin="round"/>
    <path d="M 112.7267837524414 120.74597930908203 C 82.0751953125 53.611576080322266 58.611976623535156 122.4609146118164 106.7314453125 136.6824951171875" stroke-width="3.0" fill="none" stroke="rgb(0, 0, 0)" stroke-opacity="1.0" stroke-linecap="round" stroke-linejoin="round"/>
    <path d="M 119.89551544189453 81.86197662353516 C 54.40724182128906 78.41703033447266 98.75936126708984 98.7193374633789 95.19054412841797 123.90533447265625" stroke-width="3.0" fill="none" stroke="rgb(0, 0, 0)" stroke-opacity="1.0" stroke-linecap="round" stroke-linejoin="round"/>
    <path d="M 59.54149627685547 57.77969741821289 C 56.06547546386719 70.22740936279297 51.48018264770508 61.469703674316406 58.53714370727539 99.45463562011719" stroke-width="3.0" fill="none" stroke="rgb(0, 0, 0)" stroke-opacity="1.0" stroke-linecap="round" stroke-linejoin="round"/>
    <path d="M 161.4327392578125 168.00244140625 C 119.23085021972656 172.88217163085938 153.17169189453125 175.02479553222656 176.23849487304688 99.50956726074219" stroke-width="3.0" fill="none" stroke="rgb(0, 0, 0)" stroke-opacity="1.0" stroke-linecap="round" stroke-linejoin="round"/>
  </g>
</svg>
