<?xml version="1.0" ?>
<svg xmlns="http://www.w3.org/2000/svg" version="1.1" width="224" height="224">
  <defs/>
  <g>
    <path d="M 56.21015548706055 94.27355194091797 C 76.97508239746094 128.72189331054688 49.22013473510742 141.94189453125 100.53646850585938 151.14036560058594" stroke-width="3.0" fill="none" stroke="rgb(0, 0, 0)" stroke-opacity="1.0" stroke-linecap="round" stroke-linejoin="round"/>
    <path d="M 157.7431182861328 170.92230224609375 C 176.78912353515625 157.58514404296875 172.30580139160156 154.8667449951172 142.7943115234375 181.76792907714844" stroke-width="3.0" fill="none" stroke="rgb(0, 0, 0)" stroke-opacity="1.0" stroke-linecap="round" stroke-linejoin="round"/>
    <path d="M 77.36483001708984 133.36056518554688 C 100.98775482177734 171.4100799560547 99.68142700195312 144.73358154296875 141.0301055908203 139.69619750976562" stroke-width="3.0" fill="none" stroke="rgb(0, 0, 0)" stroke-opacity="1.0" stroke-linecap="round" stroke-linejoin="round"/>
    <path d="M 115.87360382080078 61.07453536987305 C 166.9484405517578 87.58390808105469 153.72824096679688 143.87501525878906 123.85922241210938 147.41065979003906" stroke-width="3.0" fill="none" stroke="rgb(0, 0, 0)" stroke-opacity="1.0" stroke-linecap="round" stroke-linejoin="round"/>
    <path d="M 168.47508239746094 60.18785858154297 C 203.3086700439453 91.05805206298828 178.02365112304688 86.91280364990234 189.412353515625 114.59480285644531" stroke-width="3.0" fill="none" stroke="rgb(0, 0, 0)" stroke-opacity="1.0" stroke-linecap="round" stroke-linejoin="round"/>
    <path d="M 163.73094177246094 73.98960876464844 C 191.24533081054688 104.21088409423828 156.1456756591797 119.51222229003906 151.97930908203125 140.13568115234375" stroke-width="3.0" fill="none" stroke="rgb(0, 0, 0)" stroke-opacity="1.0" stroke-linecap="round" stroke-linejoin="round"/>
    <path d="M 45.08712387084961 144.06495666503906 C 22.76047706604004 110.59648895263672 42.329795837402344 145.00216674804688 43.65435791015625 157.5489044189453" stroke-width="3.0" fill="none" stroke="rgb(0, 0, 0)" stroke-opacity="1.0" stroke-linecap="round" stroke-linejoin="round"/>
    <path d="M 158.95188903808594 174.6651153564453 C 196.54176330566406 151.66000366210938 176.26890563964844 143.92135620117188 159.5042724609375 177.5425262451172" stroke-width="3.0" fill="none" stroke="rgb(0, 0, 0)" stroke-opacity="1.0" stroke-linecap="round" stroke-linejoin="round"/>
    <path d="M 133.5199737548828 189.88226318359375 C 94.566162109375 189.4701385498047 118.82300567626953 201.26487731933594 120.79977416992188 191.59579467773438" stroke-width="3.0" fill="none" stroke="rgb(0, 0, 0)" stroke-opacity="1.0" stroke-linecap="round" stroke-linejoin="round"/>
    <path d="M 140.412353515625 54.92719650268555 C 199.9273681640625 107.05651092529297 188.88465881347656 130.90481567382812 181.3455047607422 154.3062286376953" stroke-width="3.0" fill="none" stroke="rgb(0, 0, 0)" stroke-opacity="1.0" stroke-linecap="round" stroke-linejoin="round"/>
    <path d="M 91.8619613647461 181.9065704345703 C 57.47226333618164 176.05799865722656 67.19014739990234 186.1022491455078 60.730594635009766 177.29962158203125" stroke-width="3.0" fill="none" stroke="rgb(0, 0, 0)" stroke-opacity="1.0" stroke-linecap="round" stroke-linejoin="round"/>
    <path d="M 122.8753433227539 121.69302368164062 C 94.8733139038086 160.993896484375 53.41311264038086 117.84922790527344 82.38557434082031 71.68113708496094" stroke-width="3.0" fill="none" stroke="rgb(0, 0, 0)" stroke-opacity="1.0" stroke-linecap="round" stroke-linejoin="round"/>
    <path d="M 48.400062561035156 147.97665405273438 C 44.374168395996094 146.58326721191406 41.482513427734375 138.17315673828125 46.29651641845703 144.0483856201172" stroke-width="3.0" fill="none" stroke="rgb(0, 0, 0)" stroke-opacity="1.0" stroke-linecap="round" stroke-linejoin="round"/>
    <path d="M 91.28450012207031 182.66822814941406 C 102.12191772460938 195.42784118652344 162.1193084716797 201.55307006835938 95.80400848388672 185.40086364746094" stroke-width="3.0" fill="none" stroke="rgb(0, 0, 0)" stroke-opacity="1.0" stroke-linecap="round" stroke-linejoin="round"/>
    <path d="M 69.65959167480469 42.2227668762207 C 96.1982650756836 54.51220703125 74.62615966796875 14.791034698486328 142.155029296875 42.50773620605469" stroke-width="3.0" fill="none" stroke="rgb(0, 0, 0)" stroke-opacity="1.0" stroke-linecap="round" stroke-linejoin="round"/>
    <path d="M 105.16630554199219 29.934589385986328 C 134.64974975585938 49.80157470703125 88.18466186523438 29.630144119262695 153.51815795898438 62.35417938232422" stroke-width="3.0" fill="none" stroke="rgb(0, 0, 0)" stroke-opacity="1.0" stroke-linecap="round" stroke-linejoin="round"/>
    <path d="M 129.2337188720703 38.15021896362305 C 162.7511444091797 54.40847396850586 154.74098205566406 32.61985778808594 178.65452575683594 91.94652557373047" stroke-width="3.0" fill="none" stroke="rgb(0, 0, 0)" stroke-opacity="1.0" stroke-linecap="round" stroke-linejoin="round"/>
    <path d="M 63.04116439819336 179.36062622070312 C 58.52162170410156 170.0543212890625 43.839134216308594 181.98883056640625 37.946075439453125 133.58599853515625" stroke-width="3.0" fill="none" stroke="rgb(0, 0, 0)" stroke-opacity="1.0" stroke-linecap="round" stroke-linejoin="round"/>
    <path d="M 79.84483337402344 173.3536376953125 C 127.31493377685547 163.49737548828125 98.66930389404297 162.41928100585938 123.73445129394531 158.9072265625" stroke-width="3.0" fill="none" stroke="rgb(0, 0, 0)" stroke-opacity="1.0" stroke-linecap="round" stroke-linejoin="round"/>
    <path d="M 155.37362670898438 176.21261596679688 C 172.22305297851562 154.10816955566406 146.8511505126953 181.01022338867188 145.3468780517578 180.1652374267578" stroke-width="3.0" fill="none" stroke="rgb(0, 0, 0)" stroke-opacity="1.0" stroke-linecap="round" stroke-linejoin="round"/>
    <path d="M 157.4357452392578 175.82887268066406 C 122.0317611694336 189.0142364501953 141.4423370361328 185.71446228027344 98.3818130493164 190.32423400878906" stroke-width="3.0" fill="none" stroke="rgb(0, 0, 0)" stroke-opacity="1.0" stroke-linecap="round" stroke-linejoin="round"/>
    <path d="M 46.0617561340332 147.42286682128906 C 57.37113571166992 157.0753936767578 57.63591766357422 173.89678955078125 88.37950897216797 168.6245574951172" stroke-width="3.0" fill="none" stroke="rgb(0, 0, 0)" stroke-opacity="1.0" stroke-linecap="round" stroke-linejoin="round"/>
    <path d="M 36.98016357421875 136.86175537109375 C 31.132583618164062 68.91913604736328 22.65042495727539 106.40342712402344 37.935829162597656 61.16495895385742" stroke-width="3.0" fill="none" stroke="rgb(0, 0, 0)" stroke-opacity="1.0" stroke-linecap="round" stroke-linejoin="round"/>
    <path d="M 83.4477310180664 170.60020446777344 C 111.54801940917969 166.1713104248047 126.58006286621094 161.83187866210938 152.78753662109375 138.70986938476562" stroke-width="3.0" fill="none" stroke="rgb(0, 0, 0)" stroke-opacity="1.0" stroke-linecap="round" stroke-linejoin="round"/>
    <path d="M 35.91229248046875 69.9675521850586 C 38.832366943359375 38.30695343017578 71.63673400878906 49.36225891113281 68.8067626953125 43.180667877197266" stroke-width="3.0" fill="none" stroke="rgb(0, 0, 0)" stroke-opacity="1.0" stroke-linecap="round" stroke-linejoin="round"/>
    <path d="M 187.4666290283203 127.27183532714844 C 196.62103271484375 101.03434753417969 185.5213165283203 136.2726287841797 185.53033447265625 100.22669219970703" stroke-width="3.0" fill="none" stroke="rgb(0, 0, 0)" stroke-opacity="1.0" stroke-linecap="round" stroke-linejoin="round"/>
    <path d="M 62.018226623535156 55.7376594543457 C 81.24317932128906 39.78037643432617 93.14514923095703 47.56877899169922 131.21066284179688 50.27004623413086" stroke-width="3.0" fill="none" stroke="rgb(0, 0, 0)" stroke-opacity="1.0" stroke-linecap="round" stroke-linejoin="round"/>
    <path d="M 139.32113647460938 188.12496948242188 C 167.28907775878906 189.81874084472656 151.79537963867188 197.18736267089844 169.53924560546875 159.9038848876953" stroke-width="3.0" fill="none" stroke="rgb(0, 0, 0)" stroke-opacity="1.0" stroke-linecap="round" stroke-linejoin="round"/>
    <path d="M 106.53178405761719 119.20094299316406 C 87.4480972290039 66.17402648925781 62.515384674072266 117.30023193359375 106.65607452392578 130.99609375" stroke-width="3.0" fill="none" stroke="rgb(0, 0, 0)" stroke-opacity="1.0" stroke-linecap="round" stroke-linejoin="round"/>
    <path d="M 121.1080322265625 84.51686096191406 C 63.67371368408203 78.39240264892578 90.64543914794922 102.44944763183594 93.62223815917969 123.9345932006836" stroke-width="3.0" fill="none" stroke="rgb(0, 0, 0)" stroke-opacity="1.0" stroke-linecap="round" stroke-linejoin="round"/>
    <path d="M 64.76429748535156 54.65958786010742 C 57.292606353759766 66.42404174804688 53.44757843017578 59.46337890625 57.14773178100586 92.06104278564453" stroke-width="3.0" fill="none" stroke="rgb(0, 0, 0)" stroke-opacity="1.0" stroke-linecap="round" stroke-linejoin="round"/>
    <path d="M 166.152099609375 170.62814331054688 C 125.34584045410156 171.17112731933594 158.6217803955078 181.77565002441406 175.87091064453125 106.46784973144531" stroke-width="3.0" fill="none" stroke="rgb(0, 0, 0)" stroke-opacity="1.0" stroke-linecap="round" stroke-linejoin="round"/>
  </g>
</svg>
