<?xml version="1.0" ?>
<svg xmlns="http://www.w3.org/2000/svg" version="1.1" width="224" height="224">
  <defs/>
  <g>
    <path d="M 59.02561569213867 99.39598083496094 C 69.7438735961914 124.99317932128906 54.6019172668457 140.8128662109375 85.61085510253906 143.4022674560547" stroke-width="3.0" fill="none" stroke="rgb(0, 0, 0)" stroke-opacity="1.0" stroke-linecap="round" stroke-linejoin="round"/>
    <path d="M 155.86514282226562 173.60206604003906 C 191.0261688232422 149.49842834472656 192.1061553955078 146.08753967285156 165.30410766601562 168.70167541503906" stroke-width="3.0" fill="none" stroke="rgb(0, 0, 0)" stroke-opacity="1.0" stroke-linecap="round" stroke-linejoin="round"/>
    <path d="M 78.33531188964844 139.06475830078125 C 110.67926788330078 161.3627166748047 113.08844757080078 139.42410278320312 131.9773406982422 140.89630126953125" stroke-width="3.0" fill="none" stroke="rgb(0, 0, 0)" stroke-opacity="1.0" stroke-linecap="round" stroke-linejoin="round"/>
    <path d="M 114.97476959228516 60.31397247314453 C 174.70741271972656 95.26781463623047 158.66043090820312 146.76358032226562 123.99919128417969 140.2334442138672" stroke-width="3.0" fill="none" stroke="rgb(0, 0, 0)" stroke-opacity="1.0" stroke-linecap="round" stroke-linejoin="round"/>
    <path d="M 167.80062866210938 60.04912567138672 C 199.3352508544922 81.55193328857422 180.73585510253906 83.06988525390625 190.3787384033203 111.85711669921875" stroke-width="3.0" fill="none" stroke="rgb(0, 0, 0)" stroke-opacity="1.0" stroke-linecap="round" stroke-linejoin="round"/>
    <path d="M 162.54525756835938 69.58516693115234 C 185.02760314941406 77.889404296875 168.18951416015625 139.0281982421875 149.251708984375 143.4450225830078" stroke-width="3.0" fill="none" stroke="rgb(0, 0, 0)" stroke-opacity="1.0" stroke-linecap="round" stroke-linejoin="round"/>
    <path d="M 42.39324951171875 139.26947021484375 C 30.227663040161133 106.304443359375 34.78774642944336 147.2572784423828 41.34693908691406 159.9775390625" stroke-width="3.0" fill="none" stroke="rgb(0, 0, 0)" stroke-opacity="1.0" stroke-linecap="round" stroke-linejoin="round"/>
    <path d="M 145.70774841308594 169.54403686523438 C 200.4013671875 164.6999969482422 183.2648468017578 149.69712829589844 160.3764190673828 174.83375549316406" stroke-width="3.0" fill="none" stroke="rgb(0, 0, 0)" stroke-opacity="1.0" stroke-linecap="round" stroke-linejoin="round"/>
    <path d="M 130.57962036132812 196.24806213378906 C 95.07723999023438 190.24813842773438 106.80070495605469 203.02545166015625 124.75934600830078 194.96324157714844" stroke-width="3.0" fill="none" stroke="rgb(0, 0, 0)" stroke-opacity="1.0" stroke-linecap="round" stroke-linejoin="round"/>
    <path d="M 133.23007202148438 51.93083572387695 C 204.4251708984375 93.32283782958984 177.14732360839844 116.02544403076172 187.84620666503906 137.91807556152344" stroke-width="3.0" fill="none" stroke="rgb(0, 0, 0)" stroke-opacity="1.0" stroke-linecap="round" stroke-linejoin="round"/>
    <path d="M 93.76026153564453 183.6522216796875 C 61.03325653076172 175.81109619140625 79.78987121582031 184.61834716796875 61.875980377197266 171.07872009277344" stroke-width="3.0" fill="none" stroke="rgb(0, 0, 0)" stroke-opacity="1.0" stroke-linecap="round" stroke-linejoin="round"/>
    <path d="M 114.38031768798828 141.8172149658203 C 75.52933502197266 142.75660705566406 54.6645393371582 108.66085815429688 81.72067260742188 77.03057098388672" stroke-width="3.0" fill="none" stroke="rgb(0, 0, 0)" stroke-opacity="1.0" stroke-linecap="round" stroke-linejoin="round"/>
    <path d="M 51.82194900512695 147.23252868652344 C 47.46773147583008 147.0140838623047 37.18183898925781 133.50865173339844 47.96997833251953 145.18333435058594" stroke-width="3.0" fill="none" stroke="rgb(0, 0, 0)" stroke-opacity="1.0" stroke-linecap="round" stroke-linejoin="round"/>
    <path d="M 92.77818298339844 184.5751190185547 C 102.98104858398438 200.4859161376953 148.08352661132812 197.73524475097656 100.97853088378906 191.16944885253906" stroke-width="3.0" fill="none" stroke="rgb(0, 0, 0)" stroke-opacity="1.0" stroke-linecap="round" stroke-linejoin="round"/>
    <path d="M 71.85635375976562 40.97599411010742 C 94.25057220458984 49.405372619628906 78.00463104248047 19.15503692626953 138.6844024658203 41.5705451965332" stroke-width="3.0" fill="none" stroke="rgb(0, 0, 0)" stroke-opacity="1.0" stroke-linecap="round" stroke-linejoin="round"/>
    <path d="M 100.9159164428711 31.21552276611328 C 121.01053619384766 47.055179595947266 87.95269012451172 36.7745361328125 140.55624389648438 56.571903228759766" stroke-width="3.0" fill="none" stroke="rgb(0, 0, 0)" stroke-opacity="1.0" stroke-linecap="round" stroke-linejoin="round"/>
    <path d="M 124.96064758300781 39.20664978027344 C 161.40054321289062 53.16761016845703 145.37864685058594 27.899675369262695 187.38941955566406 92.88052368164062" stroke-width="3.0" fill="none" stroke="rgb(0, 0, 0)" stroke-opacity="1.0" stroke-linecap="round" stroke-linejoin="round"/>
    <path d="M 67.20087432861328 175.49745178222656 C 55.6592903137207 164.16758728027344 49.425907135009766 185.68722534179688 34.6768684387207 136.54754638671875" stroke-width="3.0" fill="none" stroke="rgb(0, 0, 0)" stroke-opacity="1.0" stroke-linecap="round" stroke-linejoin="round"/>
    <path d="M 78.2132339477539 166.20590209960938 C 132.0894775390625 167.5594940185547 109.74690246582031 153.85243225097656 131.154541015625 152.93917846679688" stroke-width="3.0" fill="none" stroke="rgb(0, 0, 0)" stroke-opacity="1.0" stroke-linecap="round" stroke-linejoin="round"/>
    <path d="M 160.52064514160156 176.01075744628906 C 174.54208374023438 154.53050231933594 141.5788116455078 177.85260009765625 160.37738037109375 174.11624145507812" stroke-width="3.0" fill="none" stroke="rgb(0, 0, 0)" stroke-opacity="1.0" stroke-linecap="round" stroke-linejoin="round"/>
    <path d="M 152.06211853027344 191.89022827148438 C 139.991455078125 199.93959045410156 138.61500549316406 196.86569213867188 115.22837829589844 196.0673065185547" stroke-width="3.0" fill="none" stroke="rgb(0, 0, 0)" stroke-opacity="1.0" stroke-linecap="round" stroke-linejoin="round"/>
    <path d="M 49.50468063354492 146.353759765625 C 49.047828674316406 143.54910278320312 62.62727355957031 168.7169647216797 90.00235748291016 167.0025177001953" stroke-width="3.0" fill="none" stroke="rgb(0, 0, 0)" stroke-opacity="1.0" stroke-linecap="round" stroke-linejoin="round"/>
    <path d="M 35.33522415161133 140.1092987060547 C 32.2928466796875 70.8633804321289 25.18442726135254 108.22815704345703 37.31037521362305 73.35491943359375" stroke-width="3.0" fill="none" stroke="rgb(0, 0, 0)" stroke-opacity="1.0" stroke-linecap="round" stroke-linejoin="round"/>
    <path d="M 84.7790756225586 170.3720703125 C 117.46411895751953 161.88436889648438 125.1929931640625 155.99728393554688 147.44253540039062 143.61685180664062" stroke-width="3.0" fill="none" stroke="rgb(0, 0, 0)" stroke-opacity="1.0" stroke-linecap="round" stroke-linejoin="round"/>
    <path d="M 39.51320266723633 79.24725341796875 C 36.52306365966797 33.000892639160156 72.64205932617188 47.20426940917969 70.59878540039062 40.474544525146484" stroke-width="3.0" fill="none" stroke="rgb(0, 0, 0)" stroke-opacity="1.0" stroke-linecap="round" stroke-linejoin="round"/>
    <path d="M 190.8718719482422 112.24378967285156 C 191.98622131347656 110.56812286376953 177.9910125732422 181.8105010986328 182.5601043701172 154.42002868652344" stroke-width="3.0" fill="none" stroke="rgb(0, 0, 0)" stroke-opacity="1.0" stroke-linecap="round" stroke-linejoin="round"/>
    <path d="M 61.15974044799805 55.15187072753906 C 79.05960845947266 46.21306228637695 70.153564453125 43.279117584228516 134.16896057128906 52.62895965576172" stroke-width="3.0" fill="none" stroke="rgb(0, 0, 0)" stroke-opacity="1.0" stroke-linecap="round" stroke-linejoin="round"/>
    <path d="M 148.18093872070312 193.71636962890625 C 164.72259521484375 176.42161560058594 159.6552276611328 193.58737182617188 171.91123962402344 162.81394958496094" stroke-width="3.0" fill="none" stroke="rgb(0, 0, 0)" stroke-opacity="1.0" stroke-linecap="round" stroke-linejoin="round"/>
    <path d="M 110.22544860839844 126.53965759277344 C 96.15750122070312 71.85482025146484 61.016746520996094 109.54815673828125 105.95843505859375 142.50021362304688" stroke-width="3.0" fill="none" stroke="rgb(0, 0, 0)" stroke-opacity="1.0" stroke-linecap="round" stroke-linejoin="round"/>
    <path d="M 119.91295623779297 87.42733764648438 C 64.92550659179688 77.52398681640625 94.77044677734375 103.13029479980469 90.44767761230469 124.8157730102539" stroke-width="3.0" fill="none" stroke="rgb(0, 0, 0)" stroke-opacity="1.0" stroke-linecap="round" stroke-linejoin="round"/>
    <path d="M 67.86607360839844 51.43815994262695 C 52.180301666259766 62.77323913574219 50.93822479248047 64.59419250488281 47.267372131347656 78.0145492553711" stroke-width="3.0" fill="none" stroke="rgb(0, 0, 0)" stroke-opacity="1.0" stroke-linecap="round" stroke-linejoin="round"/>
    <path d="M 159.7611541748047 174.26058959960938 C 113.62019348144531 155.690673828125 142.817138671875 177.40786743164062 155.726318359375 136.85665893554688" stroke-width="3.0" fill="none" stroke="rgb(0, 0, 0)" stroke-opacity="1.0" stroke-linecap="round" stroke-linejoin="round"/>
  </g>
</svg>
