<?xml version="1.0" ?>
<svg xmlns="http://www.w3.org/2000/svg" version="1.1" width="224" height="224">
  <defs/>
  <g>
    <path d="M 55.382362365722656 94.73774719238281 C 77.45304870605469 131.44778442382812 49.45267868041992 145.56813049316406 102.95943450927734 153.20274353027344" stroke-width="3.0" fill="none" stroke="rgb(0, 0, 0)" stroke-opacity="1.0" stroke-linecap="round" stroke-linejoin="round"/>
    <path d="M 143.03114318847656 177.2714080810547 C 177.7606658935547 161.16639709472656 171.89878845214844 157.16018676757812 133.96218872070312 179.42742919921875" stroke-width="3.0" fill="none" stroke="rgb(0, 0, 0)" stroke-opacity="1.0" stroke-linecap="round" stroke-linejoin="round"/>
    <path d="M 77.84327697753906 136.5675811767578 C 105.2898941040039 172.33021545410156 103.04108428955078 147.00624084472656 136.1104278564453 139.38694763183594" stroke-width="3.0" fill="none" stroke="rgb(0, 0, 0)" stroke-opacity="1.0" stroke-linecap="round" stroke-linejoin="round"/>
    <path d="M 113.87091064453125 60.88501739501953 C 168.44515991210938 86.15023803710938 153.33692932128906 138.63656616210938 126.06861877441406 152.16358947753906" stroke-width="3.0" fill="none" stroke="rgb(0, 0, 0)" stroke-opacity="1.0" stroke-linecap="round" stroke-linejoin="round"/>
    <path d="M 169.62828063964844 60.01815414428711 C 205.5172882080078 86.84210968017578 177.2255859375 89.19483947753906 190.39166259765625 114.95614624023438" stroke-width="3.0" fill="none" stroke="rgb(0, 0, 0)" stroke-opacity="1.0" stroke-linecap="round" stroke-linejoin="round"/>
    <path d="M 163.42591857910156 72.72472381591797 C 192.12391662597656 97.96611785888672 154.76638793945312 118.32322692871094 151.39715576171875 141.7334442138672" stroke-width="3.0" fill="none" stroke="rgb(0, 0, 0)" stroke-opacity="1.0" stroke-linecap="round" stroke-linejoin="round"/>
    <path d="M 43.757972717285156 143.8047332763672 C 25.28461265563965 103.53570556640625 38.9904670715332 149.1626739501953 44.000091552734375 160.79420471191406" stroke-width="3.0" fill="none" stroke="rgb(0, 0, 0)" stroke-opacity="1.0" stroke-linecap="round" stroke-linejoin="round"/>
    <path d="M 154.09947204589844 169.3085479736328 C 188.84725952148438 144.3629608154297 181.90426635742188 144.028076171875 153.52137756347656 170.39100646972656" stroke-width="3.0" fill="none" stroke="rgb(0, 0, 0)" stroke-opacity="1.0" stroke-linecap="round" stroke-linejoin="round"/>
    <path d="M 141.72360229492188 193.0488739013672 C 98.02534484863281 195.53775024414062 122.93997955322266 199.7119598388672 122.0274429321289 191.09205627441406" stroke-width="3.0" fill="none" stroke="rgb(0, 0, 0)" stroke-opacity="1.0" stroke-linecap="round" stroke-linejoin="round"/>
    <path d="M 143.22657775878906 53.69094467163086 C 202.10455322265625 103.75271606445312 192.44036865234375 133.0993194580078 177.8730010986328 152.07583618164062" stroke-width="3.0" fill="none" stroke="rgb(0, 0, 0)" stroke-opacity="1.0" stroke-linecap="round" stroke-linejoin="round"/>
    <path d="M 93.03204345703125 181.2495574951172 C 58.04294204711914 177.19778442382812 69.8758773803711 185.01417541503906 64.02883911132812 178.24708557128906" stroke-width="3.0" fill="none" stroke="rgb(0, 0, 0)" stroke-opacity="1.0" stroke-linecap="round" stroke-linejoin="round"/>
    <path d="M 118.51451873779297 119.23918151855469 C 96.5523910522461 166.8829803466797 51.459774017333984 120.29145050048828 78.6987533569336 74.91546630859375" stroke-width="3.0" fill="none" stroke="rgb(0, 0, 0)" stroke-opacity="1.0" stroke-linecap="round" stroke-linejoin="round"/>
    <path d="M 50.459468841552734 149.12063598632812 C 43.81902313232422 147.4770050048828 42.33100128173828 139.23695373535156 46.676490783691406 147.3202667236328" stroke-width="3.0" fill="none" stroke="rgb(0, 0, 0)" stroke-opacity="1.0" stroke-linecap="round" stroke-linejoin="round"/>
    <path d="M 92.04608154296875 182.47654724121094 C 100.70992279052734 196.77243041992188 170.25921630859375 193.5482177734375 95.45478057861328 187.75921630859375" stroke-width="3.0" fill="none" stroke="rgb(0, 0, 0)" stroke-opacity="1.0" stroke-linecap="round" stroke-linejoin="round"/>
    <path d="M 63.08568572998047 38.38714599609375 C 100.06163787841797 53.827693939208984 70.59290313720703 15.072208404541016 138.3197479248047 41.7126579284668" stroke-width="3.0" fill="none" stroke="rgb(0, 0, 0)" stroke-opacity="1.0" stroke-linecap="round" stroke-linejoin="round"/>
    <path d="M 102.55226135253906 30.611705780029297 C 139.72213745117188 49.11731719970703 89.25611114501953 32.63250732421875 154.86105346679688 60.99638366699219" stroke-width="3.0" fill="none" stroke="rgb(0, 0, 0)" stroke-opacity="1.0" stroke-linecap="round" stroke-linejoin="round"/>
    <path d="M 127.96958923339844 38.64251708984375 C 164.1475372314453 57.66499328613281 154.28065490722656 33.77117156982422 177.94671630859375 86.42701721191406" stroke-width="3.0" fill="none" stroke="rgb(0, 0, 0)" stroke-opacity="1.0" stroke-linecap="round" stroke-linejoin="round"/>
    <path d="M 64.36685943603516 178.38796997070312 C 61.78554153442383 169.049560546875 43.58469772338867 182.32101440429688 34.758819580078125 136.41490173339844" stroke-width="3.0" fill="none" stroke="rgb(0, 0, 0)" stroke-opacity="1.0" stroke-linecap="round" stroke-linejoin="round"/>
    <path d="M 77.1668701171875 172.8852996826172 C 129.1358184814453 160.3547821044922 101.82257080078125 161.2926483154297 125.13713836669922 159.02001953125" stroke-width="3.0" fill="none" stroke="rgb(0, 0, 0)" stroke-opacity="1.0" stroke-linecap="round" stroke-linejoin="round"/>
    <path d="M 147.7921600341797 172.64292907714844 C 175.18980407714844 156.76876831054688 147.00416564941406 180.8365020751953 135.56764221191406 178.35205078125" stroke-width="3.0" fill="none" stroke="rgb(0, 0, 0)" stroke-opacity="1.0" stroke-linecap="round" stroke-linejoin="round"/>
    <path d="M 156.1153106689453 164.8600311279297 C 125.07343292236328 182.83909606933594 141.65794372558594 185.18869018554688 94.06651306152344 182.69253540039062" stroke-width="3.0" fill="none" stroke="rgb(0, 0, 0)" stroke-opacity="1.0" stroke-linecap="round" stroke-linejoin="round"/>
    <path d="M 46.67213439941406 147.03346252441406 C 59.100589752197266 154.7932586669922 57.18674087524414 170.25469970703125 94.4276123046875 168.40663146972656" stroke-width="3.0" fill="none" stroke="rgb(0, 0, 0)" stroke-opacity="1.0" stroke-linecap="round" stroke-linejoin="round"/>
    <path d="M 34.9635009765625 138.21717834472656 C 31.668434143066406 65.84555053710938 22.057767868041992 105.39523315429688 36.20150375366211 60.530452728271484" stroke-width="3.0" fill="none" stroke="rgb(0, 0, 0)" stroke-opacity="1.0" stroke-linecap="round" stroke-linejoin="round"/>
    <path d="M 81.90713500976562 167.880615234375 C 112.1911849975586 166.36959838867188 126.38249206542969 162.32589721679688 152.43731689453125 139.00375366210938" stroke-width="3.0" fill="none" stroke="rgb(0, 0, 0)" stroke-opacity="1.0" stroke-linecap="round" stroke-linejoin="round"/>
    <path d="M 34.74673080444336 70.98663330078125 C 37.371543884277344 37.456600189208984 62.97765350341797 44.500701904296875 62.375484466552734 40.438148498535156" stroke-width="3.0" fill="none" stroke="rgb(0, 0, 0)" stroke-opacity="1.0" stroke-linecap="round" stroke-linejoin="round"/>
    <path d="M 186.99325561523438 129.3827667236328 C 196.32998657226562 99.78047943115234 186.8463897705078 128.5631866455078 186.86915588378906 95.3083724975586" stroke-width="3.0" fill="none" stroke="rgb(0, 0, 0)" stroke-opacity="1.0" stroke-linecap="round" stroke-linejoin="round"/>
    <path d="M 60.20597839355469 54.35443115234375 C 79.21440887451172 36.691566467285156 94.85103607177734 46.76722717285156 132.1405792236328 49.01841354370117" stroke-width="3.0" fill="none" stroke="rgb(0, 0, 0)" stroke-opacity="1.0" stroke-linecap="round" stroke-linejoin="round"/>
    <path d="M 129.52322387695312 191.17105102539062 C 157.37289428710938 189.6171875 161.16259765625 197.48219299316406 170.0267333984375 164.1297149658203" stroke-width="3.0" fill="none" stroke="rgb(0, 0, 0)" stroke-opacity="1.0" stroke-linecap="round" stroke-linejoin="round"/>
    <path d="M 106.02490997314453 120.99358367919922 C 84.31256103515625 61.37886047363281 58.300323486328125 122.19563293457031 106.7095718383789 135.4497528076172" stroke-width="3.0" fill="none" stroke="rgb(0, 0, 0)" stroke-opacity="1.0" stroke-linecap="round" stroke-linejoin="round"/>
    <path d="M 120.19792175292969 85.78984832763672 C 60.51921081542969 75.17927551269531 92.71035766601562 101.01480865478516 90.12895965576172 125.02823638916016" stroke-width="3.0" fill="none" stroke="rgb(0, 0, 0)" stroke-opacity="1.0" stroke-linecap="round" stroke-linejoin="round"/>
    <path d="M 59.89569854736328 54.45552444458008 C 57.41404724121094 68.20246124267578 51.51164627075195 61.9229736328125 57.09476852416992 96.08565521240234" stroke-width="3.0" fill="none" stroke="rgb(0, 0, 0)" stroke-opacity="1.0" stroke-linecap="round" stroke-linejoin="round"/>
    <path d="M 162.3030242919922 169.11155700683594 C 127.3939208984375 172.6702117919922 154.75042724609375 177.70887756347656 175.22962951660156 107.76512908935547" stroke-width="3.0" fill="none" stroke="rgb(0, 0, 0)" stroke-opacity="1.0" stroke-linecap="round" stroke-linejoin="round"/>
  </g>
</svg>
