<?xml version="1.0" ?>
<svg xmlns="http://www.w3.org/2000/svg" version="1.1" width="224" height="224">
  <defs/>
  <g>
    <path d="M 57.74717712402344 93.59022521972656 C 69.18390655517578 128.0294189453125 39.91451644897461 158.0203399658203 119.09513092041016 153.5308074951172" stroke-width="3.0" fill="none" stroke="rgb(0, 0, 0)" stroke-opacity="1.0" stroke-linecap="round" stroke-linejoin="round"/>
    <path d="M 136.66567993164062 174.09970092773438 C 182.09326171875 169.8622589111328 170.734619140625 158.63865661621094 126.60618591308594 182.42771911621094" stroke-width="3.0" fill="none" stroke="rgb(0, 0, 0)" stroke-opacity="1.0" stroke-linecap="round" stroke-linejoin="round"/>
    <path d="M 77.82057189941406 134.8428192138672 C 110.17497253417969 174.5751953125 112.55450439453125 136.36935424804688 128.1839599609375 129.2550506591797" stroke-width="3.0" fill="none" stroke="rgb(0, 0, 0)" stroke-opacity="1.0" stroke-linecap="round" stroke-linejoin="round"/>
    <path d="M 114.10116577148438 61.51155471801758 C 166.8920440673828 84.20795440673828 151.74549865722656 141.09254455566406 125.53736877441406 151.3793182373047" stroke-width="3.0" fill="none" stroke="rgb(0, 0, 0)" stroke-opacity="1.0" stroke-linecap="round" stroke-linejoin="round"/>
    <path d="M 166.6828155517578 61.71396255493164 C 202.79232788085938 87.5241470336914 182.9076385498047 81.61529541015625 188.74301147460938 113.52991485595703" stroke-width="3.0" fill="none" stroke="rgb(0, 0, 0)" stroke-opacity="1.0" stroke-linecap="round" stroke-linejoin="round"/>
    <path d="M 161.86073303222656 76.95516204833984 C 187.39964294433594 98.61872863769531 154.62767028808594 113.52787780761719 150.98707580566406 135.85780334472656" stroke-width="3.0" fill="none" stroke="rgb(0, 0, 0)" stroke-opacity="1.0" stroke-linecap="round" stroke-linejoin="round"/>
    <path d="M 47.99388885498047 146.7333984375 C 27.594038009643555 90.71908569335938 36.641334533691406 130.2112579345703 41.037696838378906 156.42974853515625" stroke-width="3.0" fill="none" stroke="rgb(0, 0, 0)" stroke-opacity="1.0" stroke-linecap="round" stroke-linejoin="round"/>
    <path d="M 155.54827880859375 169.9185028076172 C 196.75425720214844 152.60472106933594 186.29312133789062 147.28932189941406 161.86175537109375 170.04653930664062" stroke-width="3.0" fill="none" stroke="rgb(0, 0, 0)" stroke-opacity="1.0" stroke-linecap="round" stroke-linejoin="round"/>
    <path d="M 142.57803344726562 195.9126739501953 C 101.83580017089844 190.9098358154297 120.6366195678711 200.9533233642578 116.27352905273438 196.14260864257812" stroke-width="3.0" fill="none" stroke="rgb(0, 0, 0)" stroke-opacity="1.0" stroke-linecap="round" stroke-linejoin="round"/>
    <path d="M 145.0286865234375 59.71547317504883 C 202.72239685058594 98.74256134033203 191.94674682617188 136.90093994140625 181.30357360839844 158.6146697998047" stroke-width="3.0" fill="none" stroke="rgb(0, 0, 0)" stroke-opacity="1.0" stroke-linecap="round" stroke-linejoin="round"/>
    <path d="M 97.36345672607422 182.77833557128906 C 61.66926574707031 179.16207885742188 83.13529205322266 179.16224670410156 66.81472778320312 180.5157928466797" stroke-width="3.0" fill="none" stroke="rgb(0, 0, 0)" stroke-opacity="1.0" stroke-linecap="round" stroke-linejoin="round"/>
    <path d="M 123.12594604492188 116.64352416992188 C 113.86372375488281 169.51927185058594 41.72352981567383 112.04367065429688 79.53579711914062 81.53070068359375" stroke-width="3.0" fill="none" stroke="rgb(0, 0, 0)" stroke-opacity="1.0" stroke-linecap="round" stroke-linejoin="round"/>
    <path d="M 50.32514572143555 149.63356018066406 C 45.958457946777344 147.5166778564453 43.43058776855469 138.91909790039062 51.725379943847656 150.412109375" stroke-width="3.0" fill="none" stroke="rgb(0, 0, 0)" stroke-opacity="1.0" stroke-linecap="round" stroke-linejoin="round"/>
    <path d="M 91.64822387695312 183.7916259765625 C 98.11170196533203 194.72927856445312 152.9573516845703 200.62770080566406 103.07524108886719 192.6477508544922" stroke-width="3.0" fill="none" stroke="rgb(0, 0, 0)" stroke-opacity="1.0" stroke-linecap="round" stroke-linejoin="round"/>
    <path d="M 68.46292114257812 37.94889831542969 C 103.82508850097656 49.704254150390625 68.40496826171875 19.163681030273438 137.77334594726562 40.30493927001953" stroke-width="3.0" fill="none" stroke="rgb(0, 0, 0)" stroke-opacity="1.0" stroke-linecap="round" stroke-linejoin="round"/>
    <path d="M 98.57683563232422 31.31888771057129 C 123.48395538330078 49.70703125 81.10383605957031 31.731359481811523 153.81866455078125 62.238426208496094" stroke-width="3.0" fill="none" stroke="rgb(0, 0, 0)" stroke-opacity="1.0" stroke-linecap="round" stroke-linejoin="round"/>
    <path d="M 138.82254028320312 40.84441375732422 C 161.42257690429688 56.22773361206055 157.5165557861328 35.83417510986328 174.9619598388672 82.61585235595703" stroke-width="3.0" fill="none" stroke="rgb(0, 0, 0)" stroke-opacity="1.0" stroke-linecap="round" stroke-linejoin="round"/>
    <path d="M 65.7528076171875 179.5067901611328 C 62.00865936279297 169.92034912109375 40.844749450683594 180.00509643554688 33.66133117675781 123.90497589111328" stroke-width="3.0" fill="none" stroke="rgb(0, 0, 0)" stroke-opacity="1.0" stroke-linecap="round" stroke-linejoin="round"/>
    <path d="M 84.97937774658203 169.81900024414062 C 124.83963012695312 165.0158233642578 97.04283142089844 160.31161499023438 125.83917236328125 157.0674285888672" stroke-width="3.0" fill="none" stroke="rgb(0, 0, 0)" stroke-opacity="1.0" stroke-linecap="round" stroke-linejoin="round"/>
    <path d="M 139.31956481933594 174.58946228027344 C 161.8069610595703 162.4397430419922 149.01377868652344 181.0453643798828 135.5904998779297 174.96913146972656" stroke-width="3.0" fill="none" stroke="rgb(0, 0, 0)" stroke-opacity="1.0" stroke-linecap="round" stroke-linejoin="round"/>
    <path d="M 161.4595184326172 169.1741943359375 C 125.57881164550781 163.64962768554688 145.82493591308594 188.43348693847656 101.26001739501953 182.4882354736328" stroke-width="3.0" fill="none" stroke="rgb(0, 0, 0)" stroke-opacity="1.0" stroke-linecap="round" stroke-linejoin="round"/>
    <path d="M 50.53339385986328 149.02389526367188 C 62.284786224365234 159.37570190429688 59.70071792602539 174.15065002441406 95.19078063964844 166.60549926757812" stroke-width="3.0" fill="none" stroke="rgb(0, 0, 0)" stroke-opacity="1.0" stroke-linecap="round" stroke-linejoin="round"/>
    <path d="M 39.86026382446289 143.4644775390625 C 29.88722038269043 60.122562408447266 26.511016845703125 112.6747055053711 33.09511184692383 69.55303192138672" stroke-width="3.0" fill="none" stroke="rgb(0, 0, 0)" stroke-opacity="1.0" stroke-linecap="round" stroke-linejoin="round"/>
    <path d="M 84.79191589355469 168.1443634033203 C 108.37401580810547 164.76995849609375 129.33216857910156 162.25543212890625 149.80657958984375 136.3033447265625" stroke-width="3.0" fill="none" stroke="rgb(0, 0, 0)" stroke-opacity="1.0" stroke-linecap="round" stroke-linejoin="round"/>
    <path d="M 34.239646911621094 69.44019317626953 C 51.540584564208984 24.96426010131836 62.814579010009766 51.73954772949219 69.08639526367188 38.679752349853516" stroke-width="3.0" fill="none" stroke="rgb(0, 0, 0)" stroke-opacity="1.0" stroke-linecap="round" stroke-linejoin="round"/>
    <path d="M 187.57516479492188 134.97293090820312 C 197.85426330566406 99.06787872314453 184.2161102294922 125.56695556640625 188.58013916015625 86.39783477783203" stroke-width="3.0" fill="none" stroke="rgb(0, 0, 0)" stroke-opacity="1.0" stroke-linecap="round" stroke-linejoin="round"/>
    <path d="M 60.70669174194336 56.42401123046875 C 81.50316619873047 33.06224822998047 106.67327880859375 51.137264251708984 134.93255615234375 51.39047622680664" stroke-width="3.0" fill="none" stroke="rgb(0, 0, 0)" stroke-opacity="1.0" stroke-linecap="round" stroke-linejoin="round"/>
    <path d="M 132.2340087890625 194.75408935546875 C 146.71630859375 198.53756713867188 167.9791259765625 193.8997802734375 171.2378692626953 162.26675415039062" stroke-width="3.0" fill="none" stroke="rgb(0, 0, 0)" stroke-opacity="1.0" stroke-linecap="round" stroke-linejoin="round"/>
    <path d="M 129.0384063720703 120.66775512695312 C 87.28334045410156 41.51968765258789 55.7860107421875 120.20661926269531 107.5732192993164 137.39544677734375" stroke-width="3.0" fill="none" stroke="rgb(0, 0, 0)" stroke-opacity="1.0" stroke-linecap="round" stroke-linejoin="round"/>
    <path d="M 127.14239501953125 78.57697296142578 C 50.42671585083008 74.31036376953125 99.97946166992188 103.22172546386719 98.42262268066406 121.914306640625" stroke-width="3.0" fill="none" stroke="rgb(0, 0, 0)" stroke-opacity="1.0" stroke-linecap="round" stroke-linejoin="round"/>
    <path d="M 59.53123092651367 56.15058898925781 C 56.845916748046875 69.66940307617188 53.070106506347656 60.386234283447266 57.841453552246094 92.87869262695312" stroke-width="3.0" fill="none" stroke="rgb(0, 0, 0)" stroke-opacity="1.0" stroke-linecap="round" stroke-linejoin="round"/>
    <path d="M 160.65249633789062 169.55540466308594 C 115.05751037597656 175.6317138671875 156.2179718017578 173.53514099121094 176.29420471191406 101.68887329101562" stroke-width="3.0" fill="none" stroke="rgb(0, 0, 0)" stroke-opacity="1.0" stroke-linecap="round" stroke-linejoin="round"/>
  </g>
</svg>
