<?xml version="1.0" ?>
<svg xmlns="http://www.w3.org/2000/svg" version="1.1" width="224" height="224">
  <defs/>
  <g>
    <path d="M 67.19926452636719 95.88206481933594 C 74.52696228027344 121.79943084716797 51.59346008300781 148.74288940429688 102.31624603271484 146.99212646484375" stroke-width="3.0" fill="none" stroke="rgb(0, 0, 0)" stroke-opacity="1.0" stroke-linecap="round" stroke-linejoin="round"/>
    <path d="M 156.05787658691406 173.302978515625 C 186.00250244140625 145.9023895263672 183.3126220703125 146.5199432373047 172.44802856445312 161.54087829589844" stroke-width="3.0" fill="none" stroke="rgb(0, 0, 0)" stroke-opacity="1.0" stroke-linecap="round" stroke-linejoin="round"/>
    <path d="M 88.65921020507812 131.0941925048828 C 110.92027282714844 155.77894592285156 117.52823638916016 138.32484436035156 122.24480438232422 139.53306579589844" stroke-width="3.0" fill="none" stroke="rgb(0, 0, 0)" stroke-opacity="1.0" stroke-linecap="round" stroke-linejoin="round"/>
    <path d="M 121.76114654541016 68.06280517578125 C 169.59078979492188 92.2159423828125 150.84912109375 136.06480407714844 116.67977905273438 143.86611938476562" stroke-width="3.0" fill="none" stroke="rgb(0, 0, 0)" stroke-opacity="1.0" stroke-linecap="round" stroke-linejoin="round"/>
    <path d="M 169.4674072265625 60.925323486328125 C 203.7552490234375 86.18401336669922 184.71551513671875 86.6728515625 184.87399291992188 112.25260162353516" stroke-width="3.0" fill="none" stroke="rgb(0, 0, 0)" stroke-opacity="1.0" stroke-linecap="round" stroke-linejoin="round"/>
    <path d="M 154.89649963378906 78.10240173339844 C 178.18081665039062 82.07417297363281 175.13502502441406 141.80255126953125 153.19485473632812 167.6109619140625" stroke-width="3.0" fill="none" stroke="rgb(0, 0, 0)" stroke-opacity="1.0" stroke-linecap="round" stroke-linejoin="round"/>
    <path d="M 40.63864517211914 127.34408569335938 C 26.740577697753906 103.00204467773438 44.1517219543457 123.8482894897461 37.73052978515625 139.42855834960938" stroke-width="3.0" fill="none" stroke="rgb(0, 0, 0)" stroke-opacity="1.0" stroke-linecap="round" stroke-linejoin="round"/>
    <path d="M 163.19729614257812 166.25364685058594 C 190.65933227539062 153.08389282226562 179.34408569335938 145.56263732910156 154.7892303466797 173.0346221923828" stroke-width="3.0" fill="none" stroke="rgb(0, 0, 0)" stroke-opacity="1.0" stroke-linecap="round" stroke-linejoin="round"/>
    <path d="M 97.64991760253906 186.26075744628906 C 88.32764434814453 185.93434143066406 107.36944580078125 193.87843322753906 113.18804168701172 189.6129150390625" stroke-width="3.0" fill="none" stroke="rgb(0, 0, 0)" stroke-opacity="1.0" stroke-linecap="round" stroke-linejoin="round"/>
    <path d="M 130.00180053710938 53.14672088623047 C 187.8559112548828 91.7207260131836 164.35194396972656 77.89007568359375 186.02017211914062 132.7288360595703" stroke-width="3.0" fill="none" stroke="rgb(0, 0, 0)" stroke-opacity="1.0" stroke-linecap="round" stroke-linejoin="round"/>
    <path d="M 90.5101318359375 183.70108032226562 C 58.53047561645508 184.6290740966797 55.21953582763672 167.3392333984375 44.25831985473633 163.8842010498047" stroke-width="3.0" fill="none" stroke="rgb(0, 0, 0)" stroke-opacity="1.0" stroke-linecap="round" stroke-linejoin="round"/>
    <path d="M 107.18913269042969 146.0289764404297 C 76.77816009521484 143.15545654296875 60.42898178100586 102.84259033203125 85.77120971679688 73.42039489746094" stroke-width="3.0" fill="none" stroke="rgb(0, 0, 0)" stroke-opacity="1.0" stroke-linecap="round" stroke-linejoin="round"/>
    <path d="M 53.38022232055664 153.41905212402344 C 27.431081771850586 141.5880889892578 35.871952056884766 121.9433822631836 47.132747650146484 149.65321350097656" stroke-width="3.0" fill="none" stroke="rgb(0, 0, 0)" stroke-opacity="1.0" stroke-linecap="round" stroke-linejoin="round"/>
    <path d="M 81.49861145019531 175.06723022460938 C 96.9442367553711 189.9365692138672 139.22244262695312 193.37510681152344 100.68196105957031 186.73191833496094" stroke-width="3.0" fill="none" stroke="rgb(0, 0, 0)" stroke-opacity="1.0" stroke-linecap="round" stroke-linejoin="round"/>
    <path d="M 69.0857925415039 42.01689147949219 C 115.94970703125 38.96426010131836 74.2252426147461 15.859134674072266 138.77723693847656 43.41140365600586" stroke-width="3.0" fill="none" stroke="rgb(0, 0, 0)" stroke-opacity="1.0" stroke-linecap="round" stroke-linejoin="round"/>
    <path d="M 99.02680206298828 31.72945785522461 C 123.7154312133789 54.172664642333984 93.74107360839844 50.287376403808594 127.93433380126953 52.02878189086914" stroke-width="3.0" fill="none" stroke="rgb(0, 0, 0)" stroke-opacity="1.0" stroke-linecap="round" stroke-linejoin="round"/>
    <path d="M 140.1784210205078 41.47047424316406 C 157.96536254882812 55.870243072509766 151.44204711914062 28.236135482788086 185.57762145996094 101.10269927978516" stroke-width="3.0" fill="none" stroke="rgb(0, 0, 0)" stroke-opacity="1.0" stroke-linecap="round" stroke-linejoin="round"/>
    <path d="M 61.14069366455078 178.11611938476562 C 51.62092590332031 164.3942413330078 42.54465103149414 174.9877166748047 39.38489532470703 146.57501220703125" stroke-width="3.0" fill="none" stroke="rgb(0, 0, 0)" stroke-opacity="1.0" stroke-linecap="round" stroke-linejoin="round"/>
    <path d="M 75.62477111816406 165.73104858398438 C 117.61161041259766 160.17933654785156 100.08960723876953 160.3889617919922 117.92089080810547 153.24945068359375" stroke-width="3.0" fill="none" stroke="rgb(0, 0, 0)" stroke-opacity="1.0" stroke-linecap="round" stroke-linejoin="round"/>
    <path d="M 156.02210998535156 174.20997619628906 C 181.0096435546875 157.41806030273438 150.10890197753906 187.60768127441406 159.12771606445312 172.48768615722656" stroke-width="3.0" fill="none" stroke="rgb(0, 0, 0)" stroke-opacity="1.0" stroke-linecap="round" stroke-linejoin="round"/>
    <path d="M 148.5242919921875 191.26930236816406 C 118.54779052734375 198.9954071044922 140.8818359375 186.05841064453125 103.34149169921875 192.569091796875" stroke-width="3.0" fill="none" stroke="rgb(0, 0, 0)" stroke-opacity="1.0" stroke-linecap="round" stroke-linejoin="round"/>
    <path d="M 45.220401763916016 144.27244567871094 C 48.96733856201172 142.0070037841797 60.86154556274414 174.79776000976562 80.87432861328125 166.86605834960938" stroke-width="3.0" fill="none" stroke="rgb(0, 0, 0)" stroke-opacity="1.0" stroke-linecap="round" stroke-linejoin="round"/>
    <path d="M 36.36553192138672 135.25010681152344 C 33.36276626586914 73.1718978881836 20.99403953552246 98.72874450683594 33.745811462402344 77.08726501464844" stroke-width="3.0" fill="none" stroke="rgb(0, 0, 0)" stroke-opacity="1.0" stroke-linecap="round" stroke-linejoin="round"/>
    <path d="M 91.55803680419922 163.6417236328125 C 119.88394165039062 161.87164306640625 112.01590728759766 156.02182006835938 133.60064697265625 141.42462158203125" stroke-width="3.0" fill="none" stroke="rgb(0, 0, 0)" stroke-opacity="1.0" stroke-linecap="round" stroke-linejoin="round"/>
    <path d="M 33.22593688964844 80.2363052368164 C 41.9824104309082 31.332422256469727 64.30432891845703 51.36288070678711 69.73738098144531 42.20254898071289" stroke-width="3.0" fill="none" stroke="rgb(0, 0, 0)" stroke-opacity="1.0" stroke-linecap="round" stroke-linejoin="round"/>
    <path d="M 186.14222717285156 112.4292984008789 C 185.78512573242188 136.40440368652344 176.65701293945312 165.33790588378906 178.25633239746094 156.86610412597656" stroke-width="3.0" fill="none" stroke="rgb(0, 0, 0)" stroke-opacity="1.0" stroke-linecap="round" stroke-linejoin="round"/>
    <path d="M 59.03075408935547 57.807857513427734 C 70.7131118774414 54.22901916503906 67.91747283935547 50.8759765625 109.06060028076172 55.12675094604492" stroke-width="3.0" fill="none" stroke="rgb(0, 0, 0)" stroke-opacity="1.0" stroke-linecap="round" stroke-linejoin="round"/>
    <path d="M 146.847900390625 192.00265502929688 C 163.27235412597656 175.97433471679688 157.23985290527344 192.7835235595703 168.3185577392578 163.96310424804688" stroke-width="3.0" fill="none" stroke="rgb(0, 0, 0)" stroke-opacity="1.0" stroke-linecap="round" stroke-linejoin="round"/>
    <path d="M 98.40230560302734 133.1494903564453 C 88.58465576171875 93.73152160644531 74.89838409423828 117.61216735839844 100.7296371459961 143.18115234375" stroke-width="3.0" fill="none" stroke="rgb(0, 0, 0)" stroke-opacity="1.0" stroke-linecap="round" stroke-linejoin="round"/>
    <path d="M 109.56682586669922 90.25019836425781 C 72.86241912841797 89.8365478515625 90.28911590576172 104.49132537841797 88.24791717529297 131.83233642578125" stroke-width="3.0" fill="none" stroke="rgb(0, 0, 0)" stroke-opacity="1.0" stroke-linecap="round" stroke-linejoin="round"/>
    <path d="M 62.95136260986328 55.38153076171875 C 54.849586486816406 61.3779182434082 48.434417724609375 66.58334350585938 43.52685546875 79.83450317382812" stroke-width="3.0" fill="none" stroke="rgb(0, 0, 0)" stroke-opacity="1.0" stroke-linecap="round" stroke-linejoin="round"/>
    <path d="M 157.4207763671875 174.35337829589844 C 133.49937438964844 162.64878845214844 144.4973602294922 156.22865295410156 138.0016632080078 144.07313537597656" stroke-width="3.0" fill="none" stroke="rgb(0, 0, 0)" stroke-opacity="1.0" stroke-linecap="round" stroke-linejoin="round"/>
  </g>
</svg>
