<?xml version="1.0" ?>
<svg xmlns="http://www.w3.org/2000/svg" version="1.1" width="224" height="224">
  <defs/>
  <g>
    <path d="M 60.34605026245117 98.2184829711914 C 69.83385467529297 126.76831817626953 49.61617660522461 146.45260620117188 107.73074340820312 144.2535858154297" stroke-width="3.0" fill="none" stroke="rgb(0, 0, 0)" stroke-opacity="1.0" stroke-linecap="round" stroke-linejoin="round"/>
    <path d="M 160.22659301757812 175.552490234375 C 192.1457977294922 152.04421997070312 188.03659057617188 146.2255096435547 169.02825927734375 170.29867553710938" stroke-width="3.0" fill="none" stroke="rgb(0, 0, 0)" stroke-opacity="1.0" stroke-linecap="round" stroke-linejoin="round"/>
    <path d="M 82.26280975341797 133.19769287109375 C 114.61389923095703 158.69822692871094 120.95783996582031 139.0327911376953 131.20965576171875 139.038818359375" stroke-width="3.0" fill="none" stroke="rgb(0, 0, 0)" stroke-opacity="1.0" stroke-linecap="round" stroke-linejoin="round"/>
    <path d="M 114.26103210449219 58.27914047241211 C 174.1481170654297 96.80905151367188 156.51979064941406 140.3240509033203 120.58624267578125 145.14895629882812" stroke-width="3.0" fill="none" stroke="rgb(0, 0, 0)" stroke-opacity="1.0" stroke-linecap="round" stroke-linejoin="round"/>
    <path d="M 168.89260864257812 60.006980895996094 C 196.7194061279297 88.66027069091797 186.5757598876953 80.08015441894531 186.42726135253906 109.37877655029297" stroke-width="3.0" fill="none" stroke="rgb(0, 0, 0)" stroke-opacity="1.0" stroke-linecap="round" stroke-linejoin="round"/>
    <path d="M 162.97833251953125 76.35912322998047 C 186.18075561523438 78.16837310791016 166.3539276123047 132.70738220214844 151.7877655029297 156.08534240722656" stroke-width="3.0" fill="none" stroke="rgb(0, 0, 0)" stroke-opacity="1.0" stroke-linecap="round" stroke-linejoin="round"/>
    <path d="M 42.77922821044922 136.73651123046875 C 26.441625595092773 99.58984375 32.959659576416016 135.2047119140625 39.005672454833984 157.54798889160156" stroke-width="3.0" fill="none" stroke="rgb(0, 0, 0)" stroke-opacity="1.0" stroke-linecap="round" stroke-linejoin="round"/>
    <path d="M 163.35928344726562 169.06361389160156 C 193.05125427246094 158.06314086914062 186.26988220214844 156.89012145996094 159.9903106689453 173.09445190429688" stroke-width="3.0" fill="none" stroke="rgb(0, 0, 0)" stroke-opacity="1.0" stroke-linecap="round" stroke-linejoin="round"/>
    <path d="M 105.55191802978516 195.15016174316406 C 87.05840301513672 187.70236206054688 107.52210998535156 192.78109741210938 124.81161499023438 193.17135620117188" stroke-width="3.0" fill="none" stroke="rgb(0, 0, 0)" stroke-opacity="1.0" stroke-linecap="round" stroke-linejoin="round"/>
    <path d="M 130.80816650390625 53.98794937133789 C 196.1819305419922 100.34553527832031 174.7493896484375 93.26653289794922 185.9975128173828 135.34619140625" stroke-width="3.0" fill="none" stroke="rgb(0, 0, 0)" stroke-opacity="1.0" stroke-linecap="round" stroke-linejoin="round"/>
    <path d="M 89.19975280761719 183.3691864013672 C 57.08549499511719 182.44515991210938 69.98958587646484 175.30479431152344 55.57430648803711 170.94520568847656" stroke-width="3.0" fill="none" stroke="rgb(0, 0, 0)" stroke-opacity="1.0" stroke-linecap="round" stroke-linejoin="round"/>
    <path d="M 114.89871215820312 144.62628173828125 C 74.1968765258789 139.68978881835938 57.939693450927734 111.19656372070312 88.57498931884766 76.90377044677734" stroke-width="3.0" fill="none" stroke="rgb(0, 0, 0)" stroke-opacity="1.0" stroke-linecap="round" stroke-linejoin="round"/>
    <path d="M 49.315433502197266 148.66656494140625 C 41.214176177978516 142.2937774658203 39.74129867553711 125.21794891357422 49.9438591003418 147.00732421875" stroke-width="3.0" fill="none" stroke="rgb(0, 0, 0)" stroke-opacity="1.0" stroke-linecap="round" stroke-linejoin="round"/>
    <path d="M 87.75733184814453 183.86705017089844 C 104.89349365234375 196.4279327392578 146.4928741455078 192.4457550048828 105.5118408203125 195.0854949951172" stroke-width="3.0" fill="none" stroke="rgb(0, 0, 0)" stroke-opacity="1.0" stroke-linecap="round" stroke-linejoin="round"/>
    <path d="M 65.2261734008789 38.68197250366211 C 108.76561737060547 40.464900970458984 92.5882568359375 17.365243911743164 132.10073852539062 41.89754104614258" stroke-width="3.0" fill="none" stroke="rgb(0, 0, 0)" stroke-opacity="1.0" stroke-linecap="round" stroke-linejoin="round"/>
    <path d="M 102.1584243774414 29.941877365112305 C 128.6602783203125 55.582149505615234 95.2257080078125 43.27936935424805 132.74032592773438 54.79389190673828" stroke-width="3.0" fill="none" stroke="rgb(0, 0, 0)" stroke-opacity="1.0" stroke-linecap="round" stroke-linejoin="round"/>
    <path d="M 130.30264282226562 39.879573822021484 C 156.7270050048828 53.016693115234375 149.34173583984375 29.66942596435547 187.4714813232422 97.63277435302734" stroke-width="3.0" fill="none" stroke="rgb(0, 0, 0)" stroke-opacity="1.0" stroke-linecap="round" stroke-linejoin="round"/>
    <path d="M 66.86892700195312 181.2812042236328 C 60.253448486328125 164.28761291503906 45.33613204956055 178.2755889892578 34.13488006591797 143.09300231933594" stroke-width="3.0" fill="none" stroke="rgb(0, 0, 0)" stroke-opacity="1.0" stroke-linecap="round" stroke-linejoin="round"/>
    <path d="M 78.74641418457031 166.2151641845703 C 121.40283966064453 169.71102905273438 107.281982421875 159.55833435058594 120.99969482421875 157.175537109375" stroke-width="3.0" fill="none" stroke="rgb(0, 0, 0)" stroke-opacity="1.0" stroke-linecap="round" stroke-linejoin="round"/>
    <path d="M 161.79200744628906 179.1793975830078 C 179.19639587402344 155.84068298339844 153.92173767089844 187.23330688476562 162.6370391845703 172.5377197265625" stroke-width="3.0" fill="none" stroke="rgb(0, 0, 0)" stroke-opacity="1.0" stroke-linecap="round" stroke-linejoin="round"/>
    <path d="M 151.30441284179688 189.9166717529297 C 126.95366668701172 198.33480834960938 132.6727294921875 186.33721923828125 115.77808380126953 197.43563842773438" stroke-width="3.0" fill="none" stroke="rgb(0, 0, 0)" stroke-opacity="1.0" stroke-linecap="round" stroke-linejoin="round"/>
    <path d="M 49.94130325317383 150.57106018066406 C 48.666168212890625 144.3195037841797 59.10535430908203 173.47486877441406 86.63912200927734 167.8719940185547" stroke-width="3.0" fill="none" stroke="rgb(0, 0, 0)" stroke-opacity="1.0" stroke-linecap="round" stroke-linejoin="round"/>
    <path d="M 35.5804443359375 144.85667419433594 C 32.686561584472656 68.64168548583984 23.749662399291992 107.92391967773438 33.417415618896484 75.49737548828125" stroke-width="3.0" fill="none" stroke="rgb(0, 0, 0)" stroke-opacity="1.0" stroke-linecap="round" stroke-linejoin="round"/>
    <path d="M 89.17616271972656 170.56881713867188 C 115.7593994140625 162.4151611328125 129.62733459472656 158.70620727539062 142.3216094970703 141.61143493652344" stroke-width="3.0" fill="none" stroke="rgb(0, 0, 0)" stroke-opacity="1.0" stroke-linecap="round" stroke-linejoin="round"/>
    <path d="M 33.5828857421875 82.96495056152344 C 36.77170181274414 33.16952896118164 64.42741394042969 45.17393112182617 64.376953125 39.336849212646484" stroke-width="3.0" fill="none" stroke="rgb(0, 0, 0)" stroke-opacity="1.0" stroke-linecap="round" stroke-linejoin="round"/>
    <path d="M 186.88906860351562 107.68495178222656 C 195.1195068359375 123.55170440673828 177.1063690185547 173.260986328125 184.10093688964844 157.60731506347656" stroke-width="3.0" fill="none" stroke="rgb(0, 0, 0)" stroke-opacity="1.0" stroke-linecap="round" stroke-linejoin="round"/>
    <path d="M 57.947208404541016 62.019248962402344 C 67.83341979980469 53.482025146484375 75.14936828613281 43.84601974487305 119.9344711303711 52.30990219116211" stroke-width="3.0" fill="none" stroke="rgb(0, 0, 0)" stroke-opacity="1.0" stroke-linecap="round" stroke-linejoin="round"/>
    <path d="M 150.76536560058594 190.39163208007812 C 164.42840576171875 177.9918212890625 156.8616180419922 194.4043426513672 171.46292114257812 165.9237060546875" stroke-width="3.0" fill="none" stroke="rgb(0, 0, 0)" stroke-opacity="1.0" stroke-linecap="round" stroke-linejoin="round"/>
    <path d="M 107.2566146850586 131.2210235595703 C 90.13304901123047 72.50349426269531 67.69766998291016 106.06236267089844 102.93132019042969 140.43826293945312" stroke-width="3.0" fill="none" stroke="rgb(0, 0, 0)" stroke-opacity="1.0" stroke-linecap="round" stroke-linejoin="round"/>
    <path d="M 111.39484405517578 94.39842224121094 C 76.26361083984375 83.59745788574219 90.9308090209961 101.7262191772461 89.46636962890625 122.52050018310547" stroke-width="3.0" fill="none" stroke="rgb(0, 0, 0)" stroke-opacity="1.0" stroke-linecap="round" stroke-linejoin="round"/>
    <path d="M 61.027366638183594 57.742488861083984 C 58.62607192993164 65.90119934082031 50.70841598510742 63.501251220703125 43.882110595703125 80.4183578491211" stroke-width="3.0" fill="none" stroke="rgb(0, 0, 0)" stroke-opacity="1.0" stroke-linecap="round" stroke-linejoin="round"/>
    <path d="M 161.39810180664062 175.3567352294922 C 141.21499633789062 158.84335327148438 155.0126495361328 156.3629150390625 148.1160125732422 139.17428588867188" stroke-width="3.0" fill="none" stroke="rgb(0, 0, 0)" stroke-opacity="1.0" stroke-linecap="round" stroke-linejoin="round"/>
  </g>
</svg>
