<?xml version="1.0" ?>
<svg xmlns="http://www.w3.org/2000/svg" version="1.1" width="224" height="224">
  <defs/>
  <g>
    <path d="M 60.75712203979492 101.20841979980469 C 75.26271057128906 128.34642028808594 52.026893615722656 136.37408447265625 93.54208374023438 150.78990173339844" stroke-width="3.0" fill="none" stroke="rgb(0, 0, 0)" stroke-opacity="1.0" stroke-linecap="round" stroke-linejoin="round"/>
    <path d="M 158.37997436523438 173.4511260986328 C 186.03396606445312 146.4477081298828 192.3566436767578 152.09271240234375 162.5216522216797 169.11280822753906" stroke-width="3.0" fill="none" stroke="rgb(0, 0, 0)" stroke-opacity="1.0" stroke-linecap="round" stroke-linejoin="round"/>
    <path d="M 80.39996337890625 139.33937072753906 C 116.28446960449219 168.3877410888672 99.80078887939453 142.4579315185547 131.65052795410156 145.38072204589844" stroke-width="3.0" fill="none" stroke="rgb(0, 0, 0)" stroke-opacity="1.0" stroke-linecap="round" stroke-linejoin="round"/>
    <path d="M 117.71765899658203 57.28091049194336 C 169.7758026123047 91.42150115966797 155.6906280517578 148.2326202392578 121.64141082763672 144.9905548095703" stroke-width="3.0" fill="none" stroke="rgb(0, 0, 0)" stroke-opacity="1.0" stroke-linecap="round" stroke-linejoin="round"/>
    <path d="M 169.43247985839844 60.82992935180664 C 203.571533203125 84.82353210449219 177.87228393554688 84.08614349365234 189.6855926513672 111.50019836425781" stroke-width="3.0" fill="none" stroke="rgb(0, 0, 0)" stroke-opacity="1.0" stroke-linecap="round" stroke-linejoin="round"/>
    <path d="M 161.66314697265625 73.5439224243164 C 188.28570556640625 75.47579193115234 170.16854858398438 135.3131103515625 147.4638671875 146.1668243408203" stroke-width="3.0" fill="none" stroke="rgb(0, 0, 0)" stroke-opacity="1.0" stroke-linecap="round" stroke-linejoin="round"/>
    <path d="M 47.39023208618164 139.14193725585938 C 34.50802230834961 104.01592254638672 42.25177001953125 152.0900421142578 42.73927307128906 156.65174865722656" stroke-width="3.0" fill="none" stroke="rgb(0, 0, 0)" stroke-opacity="1.0" stroke-linecap="round" stroke-linejoin="round"/>
    <path d="M 148.36083984375 169.91212463378906 C 193.6057891845703 160.04092407226562 184.75376892089844 147.72311401367188 154.4601593017578 172.06065368652344" stroke-width="3.0" fill="none" stroke="rgb(0, 0, 0)" stroke-opacity="1.0" stroke-linecap="round" stroke-linejoin="round"/>
    <path d="M 129.0877685546875 193.49676513671875 C 95.1521224975586 186.386962890625 112.51673889160156 198.94371032714844 116.67250061035156 192.8636474609375" stroke-width="3.0" fill="none" stroke="rgb(0, 0, 0)" stroke-opacity="1.0" stroke-linecap="round" stroke-linejoin="round"/>
    <path d="M 129.67880249023438 49.06749725341797 C 205.70066833496094 97.29560089111328 176.7526397705078 115.70301055908203 186.15518188476562 140.04518127441406" stroke-width="3.0" fill="none" stroke="rgb(0, 0, 0)" stroke-opacity="1.0" stroke-linecap="round" stroke-linejoin="round"/>
    <path d="M 92.53643035888672 180.593017578125 C 50.528709411621094 176.06936645507812 69.21641540527344 181.88134765625 61.37367630004883 174.87326049804688" stroke-width="3.0" fill="none" stroke="rgb(0, 0, 0)" stroke-opacity="1.0" stroke-linecap="round" stroke-linejoin="round"/>
    <path d="M 115.6056900024414 133.44664001464844 C 78.82727813720703 147.73361206054688 56.74610900878906 111.47381591796875 82.71359252929688 77.44140625" stroke-width="3.0" fill="none" stroke="rgb(0, 0, 0)" stroke-opacity="1.0" stroke-linecap="round" stroke-linejoin="round"/>
    <path d="M 52.69736862182617 148.3931884765625 C 50.2116584777832 144.8003692626953 39.00784683227539 130.1192626953125 48.43802261352539 140.89144897460938" stroke-width="3.0" fill="none" stroke="rgb(0, 0, 0)" stroke-opacity="1.0" stroke-linecap="round" stroke-linejoin="round"/>
    <path d="M 92.82503509521484 182.01199340820312 C 102.10599517822266 195.76913452148438 153.40435791015625 202.1561279296875 98.0997085571289 186.19334411621094" stroke-width="3.0" fill="none" stroke="rgb(0, 0, 0)" stroke-opacity="1.0" stroke-linecap="round" stroke-linejoin="round"/>
    <path d="M 66.20624542236328 40.909908294677734 C 98.6305160522461 52.180564880371094 73.01976776123047 15.249919891357422 143.42373657226562 42.74420166015625" stroke-width="3.0" fill="none" stroke="rgb(0, 0, 0)" stroke-opacity="1.0" stroke-linecap="round" stroke-linejoin="round"/>
    <path d="M 104.49698638916016 30.610931396484375 C 139.31161499023438 46.74363327026367 96.32378387451172 35.848541259765625 153.57884216308594 62.53919982910156" stroke-width="3.0" fill="none" stroke="rgb(0, 0, 0)" stroke-opacity="1.0" stroke-linecap="round" stroke-linejoin="round"/>
    <path d="M 130.9989776611328 36.83735275268555 C 157.77037048339844 52.30680465698242 148.1593780517578 24.662614822387695 180.73577880859375 88.33219909667969" stroke-width="3.0" fill="none" stroke="rgb(0, 0, 0)" stroke-opacity="1.0" stroke-linecap="round" stroke-linejoin="round"/>
    <path d="M 66.5301742553711 179.23886108398438 C 57.135318756103516 165.7757568359375 42.46466827392578 179.2052001953125 37.7283935546875 135.41336059570312" stroke-width="3.0" fill="none" stroke="rgb(0, 0, 0)" stroke-opacity="1.0" stroke-linecap="round" stroke-linejoin="round"/>
    <path d="M 79.18692016601562 165.85829162597656 C 118.26222229003906 164.5365447998047 104.2815933227539 165.08384704589844 128.35446166992188 158.06304931640625" stroke-width="3.0" fill="none" stroke="rgb(0, 0, 0)" stroke-opacity="1.0" stroke-linecap="round" stroke-linejoin="round"/>
    <path d="M 161.50167846679688 174.92103576660156 C 173.60067749023438 160.9818572998047 136.49417114257812 175.0854949951172 161.904541015625 172.144287109375" stroke-width="3.0" fill="none" stroke="rgb(0, 0, 0)" stroke-opacity="1.0" stroke-linecap="round" stroke-linejoin="round"/>
    <path d="M 152.2954559326172 189.29025268554688 C 134.6072998046875 196.77703857421875 139.8627166748047 191.43434143066406 112.22821807861328 190.06613159179688" stroke-width="3.0" fill="none" stroke="rgb(0, 0, 0)" stroke-opacity="1.0" stroke-linecap="round" stroke-linejoin="round"/>
    <path d="M 50.693153381347656 142.2928009033203 C 60.16948699951172 150.25775146484375 52.526432037353516 168.9725799560547 90.86491394042969 165.58993530273438" stroke-width="3.0" fill="none" stroke="rgb(0, 0, 0)" stroke-opacity="1.0" stroke-linecap="round" stroke-linejoin="round"/>
    <path d="M 44.60829162597656 135.75259399414062 C 27.710384368896484 65.97581481933594 27.89697265625 108.38459777832031 36.136024475097656 66.31680297851562" stroke-width="3.0" fill="none" stroke="rgb(0, 0, 0)" stroke-opacity="1.0" stroke-linecap="round" stroke-linejoin="round"/>
    <path d="M 83.96621704101562 172.8278045654297 C 115.21175384521484 160.6239471435547 129.94822692871094 161.78733825683594 147.64202880859375 144.55796813964844" stroke-width="3.0" fill="none" stroke="rgb(0, 0, 0)" stroke-opacity="1.0" stroke-linecap="round" stroke-linejoin="round"/>
    <path d="M 36.6827278137207 75.55603790283203 C 35.928321838378906 36.258880615234375 65.55318450927734 45.79408645629883 68.81155395507812 40.10831832885742" stroke-width="3.0" fill="none" stroke="rgb(0, 0, 0)" stroke-opacity="1.0" stroke-linecap="round" stroke-linejoin="round"/>
    <path d="M 190.0663299560547 113.75589752197266 C 192.29624938964844 107.71623229980469 179.6412353515625 177.30615234375 183.5005340576172 148.350341796875" stroke-width="3.0" fill="none" stroke="rgb(0, 0, 0)" stroke-opacity="1.0" stroke-linecap="round" stroke-linejoin="round"/>
    <path d="M 58.8046989440918 56.937156677246094 C 77.92598724365234 44.281654357910156 81.63909912109375 45.29402542114258 133.28494262695312 51.00873565673828" stroke-width="3.0" fill="none" stroke="rgb(0, 0, 0)" stroke-opacity="1.0" stroke-linecap="round" stroke-linejoin="round"/>
    <path d="M 148.49081420898438 190.9468994140625 C 166.20907592773438 173.9459991455078 152.43287658691406 195.59317016601562 169.32077026367188 162.18133544921875" stroke-width="3.0" fill="none" stroke="rgb(0, 0, 0)" stroke-opacity="1.0" stroke-linecap="round" stroke-linejoin="round"/>
    <path d="M 105.58392333984375 123.83856201171875 C 90.6729736328125 73.45115661621094 64.00131225585938 111.57878112792969 103.6593017578125 135.87588500976562" stroke-width="3.0" fill="none" stroke="rgb(0, 0, 0)" stroke-opacity="1.0" stroke-linecap="round" stroke-linejoin="round"/>
    <path d="M 117.05338287353516 86.99932098388672 C 64.4238052368164 78.49097442626953 92.67528533935547 105.37300872802734 91.05570983886719 125.04788970947266" stroke-width="3.0" fill="none" stroke="rgb(0, 0, 0)" stroke-opacity="1.0" stroke-linecap="round" stroke-linejoin="round"/>
    <path d="M 65.41082000732422 52.627201080322266 C 53.8372917175293 64.84555053710938 48.678443908691406 66.47554779052734 54.295326232910156 81.89042663574219" stroke-width="3.0" fill="none" stroke="rgb(0, 0, 0)" stroke-opacity="1.0" stroke-linecap="round" stroke-linejoin="round"/>
    <path d="M 157.7521209716797 177.26226806640625 C 127.77983093261719 159.3983154296875 155.97274780273438 178.75344848632812 167.6356964111328 124.20429992675781" stroke-width="3.0" fill="none" stroke="rgb(0, 0, 0)" stroke-opacity="1.0" stroke-linecap="round" stroke-linejoin="round"/>
  </g>
</svg>
