<?xml version="1.0" ?>
<svg xmlns="http://www.w3.org/2000/svg" version="1.1" width="224" height="224">
  <defs/>
  <g>
    <path d="M 57.57881546020508 100.75846862792969 C 73.0971450805664 126.08984375 49.549171447753906 149.49131774902344 107.4283676147461 143.6070098876953" stroke-width="3.0" fill="none" stroke="rgb(0, 0, 0)" stroke-opacity="1.0" stroke-linecap="round" stroke-linejoin="round"/>
    <path d="M 157.1055145263672 170.60400390625 C 193.8325958251953 151.68601989746094 187.85455322265625 142.9250946044922 167.67982482910156 167.9002227783203" stroke-width="3.0" fill="none" stroke="rgb(0, 0, 0)" stroke-opacity="1.0" stroke-linecap="round" stroke-linejoin="round"/>
    <path d="M 81.14950561523438 134.28298950195312 C 115.86087036132812 157.76577758789062 113.60945892333984 138.038330078125 135.17381286621094 141.2623291015625" stroke-width="3.0" fill="none" stroke="rgb(0, 0, 0)" stroke-opacity="1.0" stroke-linecap="round" stroke-linejoin="round"/>
    <path d="M 111.93806457519531 61.3934326171875 C 174.031005859375 98.32428741455078 156.45278930664062 137.13345336914062 118.8206558227539 143.2642364501953" stroke-width="3.0" fill="none" stroke="rgb(0, 0, 0)" stroke-opacity="1.0" stroke-linecap="round" stroke-linejoin="round"/>
    <path d="M 168.57618713378906 58.59810256958008 C 199.7247314453125 79.67451477050781 184.61898803710938 79.55062866210938 187.9315185546875 108.3227310180664" stroke-width="3.0" fill="none" stroke="rgb(0, 0, 0)" stroke-opacity="1.0" stroke-linecap="round" stroke-linejoin="round"/>
    <path d="M 164.41246032714844 77.36363983154297 C 189.80484008789062 80.37934112548828 167.64442443847656 132.4292755126953 151.6392059326172 154.06585693359375" stroke-width="3.0" fill="none" stroke="rgb(0, 0, 0)" stroke-opacity="1.0" stroke-linecap="round" stroke-linejoin="round"/>
    <path d="M 42.78646469116211 138.964599609375 C 30.07874298095703 104.34471893310547 36.40815734863281 136.9897003173828 43.98967742919922 159.15594482421875" stroke-width="3.0" fill="none" stroke="rgb(0, 0, 0)" stroke-opacity="1.0" stroke-linecap="round" stroke-linejoin="round"/>
    <path d="M 160.54202270507812 166.8379364013672 C 194.58670043945312 159.28794860839844 185.64068603515625 157.7582244873047 155.572509765625 168.88522338867188" stroke-width="3.0" fill="none" stroke="rgb(0, 0, 0)" stroke-opacity="1.0" stroke-linecap="round" stroke-linejoin="round"/>
    <path d="M 108.2867202758789 190.9425811767578 C 85.41352844238281 189.3368682861328 105.63457489013672 195.3845672607422 127.35887908935547 191.03135681152344" stroke-width="3.0" fill="none" stroke="rgb(0, 0, 0)" stroke-opacity="1.0" stroke-linecap="round" stroke-linejoin="round"/>
    <path d="M 134.18394470214844 53.02192306518555 C 199.34060668945312 98.39286041259766 177.10279846191406 96.23980712890625 188.18350219726562 132.88845825195312" stroke-width="3.0" fill="none" stroke="rgb(0, 0, 0)" stroke-opacity="1.0" stroke-linecap="round" stroke-linejoin="round"/>
    <path d="M 92.16634368896484 183.7494659423828 C 53.776729583740234 183.66693115234375 70.32899475097656 176.7410888671875 58.146018981933594 172.4362335205078" stroke-width="3.0" fill="none" stroke="rgb(0, 0, 0)" stroke-opacity="1.0" stroke-linecap="round" stroke-linejoin="round"/>
    <path d="M 113.0624771118164 144.57899475097656 C 73.10357666015625 138.44512939453125 55.24955749511719 111.49949645996094 83.75235748291016 72.50467681884766" stroke-width="3.0" fill="none" stroke="rgb(0, 0, 0)" stroke-opacity="1.0" stroke-linecap="round" stroke-linejoin="round"/>
    <path d="M 48.05577087402344 149.341796875 C 42.855857849121094 145.13348388671875 40.20293426513672 129.45462036132812 49.88091278076172 151.20352172851562" stroke-width="3.0" fill="none" stroke="rgb(0, 0, 0)" stroke-opacity="1.0" stroke-linecap="round" stroke-linejoin="round"/>
    <path d="M 91.9130630493164 184.38563537597656 C 106.4827880859375 193.2548065185547 149.28614807128906 190.3826141357422 105.26016998291016 194.56170654296875" stroke-width="3.0" fill="none" stroke="rgb(0, 0, 0)" stroke-opacity="1.0" stroke-linecap="round" stroke-linejoin="round"/>
    <path d="M 68.61063385009766 38.55062484741211 C 104.12532806396484 40.000038146972656 91.33763885498047 15.41434383392334 134.5256805419922 41.82849884033203" stroke-width="3.0" fill="none" stroke="rgb(0, 0, 0)" stroke-opacity="1.0" stroke-linecap="round" stroke-linejoin="round"/>
    <path d="M 103.49679565429688 31.824085235595703 C 124.4752426147461 54.40547180175781 93.18712615966797 42.181495666503906 134.69729614257812 52.57504653930664" stroke-width="3.0" fill="none" stroke="rgb(0, 0, 0)" stroke-opacity="1.0" stroke-linecap="round" stroke-linejoin="round"/>
    <path d="M 128.2324981689453 39.639068603515625 C 156.64251708984375 52.86832046508789 151.71127319335938 31.877117156982422 188.2482452392578 97.53958892822266" stroke-width="3.0" fill="none" stroke="rgb(0, 0, 0)" stroke-opacity="1.0" stroke-linecap="round" stroke-linejoin="round"/>
    <path d="M 65.91241455078125 181.6543731689453 C 63.4664306640625 165.50277709960938 47.81175994873047 180.2842559814453 38.353572845458984 138.6123046875" stroke-width="3.0" fill="none" stroke="rgb(0, 0, 0)" stroke-opacity="1.0" stroke-linecap="round" stroke-linejoin="round"/>
    <path d="M 82.51170349121094 167.40692138671875 C 123.30330657958984 167.79046630859375 107.30415344238281 156.90072631835938 125.16975402832031 155.8065643310547" stroke-width="3.0" fill="none" stroke="rgb(0, 0, 0)" stroke-opacity="1.0" stroke-linecap="round" stroke-linejoin="round"/>
    <path d="M 159.27658081054688 178.20770263671875 C 176.67758178710938 153.84295654296875 152.7367401123047 184.5915985107422 161.42222595214844 170.7726593017578" stroke-width="3.0" fill="none" stroke="rgb(0, 0, 0)" stroke-opacity="1.0" stroke-linecap="round" stroke-linejoin="round"/>
    <path d="M 148.1790313720703 188.55215454101562 C 125.37055969238281 199.06472778320312 133.24261474609375 186.53643798828125 119.26698303222656 196.3037109375" stroke-width="3.0" fill="none" stroke="rgb(0, 0, 0)" stroke-opacity="1.0" stroke-linecap="round" stroke-linejoin="round"/>
    <path d="M 48.594154357910156 150.26832580566406 C 46.63374710083008 144.27212524414062 63.759891510009766 173.45263671875 80.73841094970703 166.11407470703125" stroke-width="3.0" fill="none" stroke="rgb(0, 0, 0)" stroke-opacity="1.0" stroke-linecap="round" stroke-linejoin="round"/>
    <path d="M 37.34861755371094 140.8264923095703 C 32.947959899902344 65.18572235107422 24.20443344116211 105.77911376953125 35.0692138671875 72.56542205810547" stroke-width="3.0" fill="none" stroke="rgb(0, 0, 0)" stroke-opacity="1.0" stroke-linecap="round" stroke-linejoin="round"/>
    <path d="M 85.85832977294922 172.3207550048828 C 115.69856262207031 158.8739471435547 130.90280151367188 159.02566528320312 146.0517578125 138.59991455078125" stroke-width="3.0" fill="none" stroke="rgb(0, 0, 0)" stroke-opacity="1.0" stroke-linecap="round" stroke-linejoin="round"/>
    <path d="M 35.62097930908203 79.54192352294922 C 34.48857879638672 35.005977630615234 67.56856536865234 46.10929870605469 68.97957611083984 40.0276985168457" stroke-width="3.0" fill="none" stroke="rgb(0, 0, 0)" stroke-opacity="1.0" stroke-linecap="round" stroke-linejoin="round"/>
    <path d="M 188.07264709472656 109.91214752197266 C 196.24954223632812 123.01705169677734 177.95265197753906 174.76351928710938 182.17352294921875 156.8525390625" stroke-width="3.0" fill="none" stroke="rgb(0, 0, 0)" stroke-opacity="1.0" stroke-linecap="round" stroke-linejoin="round"/>
    <path d="M 57.04539489746094 60.08960723876953 C 67.83723449707031 48.78228759765625 70.88824462890625 45.020633697509766 127.0776138305664 50.209877014160156" stroke-width="3.0" fill="none" stroke="rgb(0, 0, 0)" stroke-opacity="1.0" stroke-linecap="round" stroke-linejoin="round"/>
    <path d="M 148.90359497070312 187.7430419921875 C 165.4973907470703 175.7376251220703 157.6986541748047 194.1645965576172 169.64312744140625 164.89511108398438" stroke-width="3.0" fill="none" stroke="rgb(0, 0, 0)" stroke-opacity="1.0" stroke-linecap="round" stroke-linejoin="round"/>
    <path d="M 108.15696716308594 127.34479522705078 C 95.6209945678711 70.28983306884766 65.5140151977539 109.16632080078125 101.73885345458984 142.03912353515625" stroke-width="3.0" fill="none" stroke="rgb(0, 0, 0)" stroke-opacity="1.0" stroke-linecap="round" stroke-linejoin="round"/>
    <path d="M 111.98746490478516 91.64324951171875 C 71.00372314453125 85.21662902832031 92.40278625488281 100.06853485107422 89.1839370727539 127.3696517944336" stroke-width="3.0" fill="none" stroke="rgb(0, 0, 0)" stroke-opacity="1.0" stroke-linecap="round" stroke-linejoin="round"/>
    <path d="M 57.93660354614258 56.36514663696289 C 56.96397399902344 66.32437896728516 49.1020622253418 62.83488082885742 46.64107131958008 79.55082702636719" stroke-width="3.0" fill="none" stroke="rgb(0, 0, 0)" stroke-opacity="1.0" stroke-linecap="round" stroke-linejoin="round"/>
    <path d="M 161.02597045898438 174.9738006591797 C 134.83880615234375 154.7245635986328 154.1188507080078 152.3195343017578 151.72714233398438 136.7151336669922" stroke-width="3.0" fill="none" stroke="rgb(0, 0, 0)" stroke-opacity="1.0" stroke-linecap="round" stroke-linejoin="round"/>
  </g>
</svg>
