<?xml version="1.0" ?>
<svg xmlns="http://www.w3.org/2000/svg" version="1.1" width="224" height="224">
  <defs/>
  <g>
    <path d="M 60.6749153137207 95.4599380493164 C 72.68578338623047 125.102783203125 52.684791564941406 141.2344512939453 88.59090423583984 145.4039306640625" stroke-width="3.0" fill="none" stroke="rgb(0, 0, 0)" stroke-opacity="1.0" stroke-linecap="round" stroke-linejoin="round"/>
    <path d="M 154.5141143798828 172.41925048828125 C 191.0640869140625 149.01834106445312 192.19395446777344 146.7808074951172 167.08285522460938 169.24761962890625" stroke-width="3.0" fill="none" stroke="rgb(0, 0, 0)" stroke-opacity="1.0" stroke-linecap="round" stroke-linejoin="round"/>
    <path d="M 75.78567504882812 137.39613342285156 C 107.94701385498047 158.08346557617188 113.61164855957031 136.18511962890625 135.29122924804688 141.84934997558594" stroke-width="3.0" fill="none" stroke="rgb(0, 0, 0)" stroke-opacity="1.0" stroke-linecap="round" stroke-linejoin="round"/>
    <path d="M 114.25984954833984 59.80420684814453 C 176.0896453857422 95.03105926513672 159.67799377441406 142.98484802246094 124.0726547241211 142.77069091796875" stroke-width="3.0" fill="none" stroke="rgb(0, 0, 0)" stroke-opacity="1.0" stroke-linecap="round" stroke-linejoin="round"/>
    <path d="M 168.0496368408203 58.881370544433594 C 197.97769165039062 81.11138153076172 181.74488830566406 82.19285583496094 189.1273651123047 109.20002746582031" stroke-width="3.0" fill="none" stroke="rgb(0, 0, 0)" stroke-opacity="1.0" stroke-linecap="round" stroke-linejoin="round"/>
    <path d="M 163.57150268554688 75.93965911865234 C 183.59385681152344 78.49235534667969 167.51806640625 140.99609375 146.4206085205078 147.6560516357422" stroke-width="3.0" fill="none" stroke="rgb(0, 0, 0)" stroke-opacity="1.0" stroke-linecap="round" stroke-linejoin="round"/>
    <path d="M 43.43571853637695 138.91932678222656 C 30.80509376525879 97.73961639404297 33.21027374267578 142.17835998535156 44.27151107788086 161.28195190429688" stroke-width="3.0" fill="none" stroke="rgb(0, 0, 0)" stroke-opacity="1.0" stroke-linecap="round" stroke-linejoin="round"/>
    <path d="M 146.5670623779297 170.1772918701172 C 201.59033203125 162.82150268554688 181.8765106201172 150.86038208007812 158.10353088378906 172.79856872558594" stroke-width="3.0" fill="none" stroke="rgb(0, 0, 0)" stroke-opacity="1.0" stroke-linecap="round" stroke-linejoin="round"/>
    <path d="M 136.7877655029297 194.97396850585938 C 99.89544677734375 208.54696655273438 110.71730041503906 210.35675048828125 125.9488754272461 194.79641723632812" stroke-width="3.0" fill="none" stroke="rgb(0, 0, 0)" stroke-opacity="1.0" stroke-linecap="round" stroke-linejoin="round"/>
    <path d="M 134.6463165283203 55.39223098754883 C 201.79649353027344 99.05375671386719 180.55270385742188 113.69755554199219 187.49545288085938 135.41139221191406" stroke-width="3.0" fill="none" stroke="rgb(0, 0, 0)" stroke-opacity="1.0" stroke-linecap="round" stroke-linejoin="round"/>
    <path d="M 97.5287857055664 183.92201232910156 C 59.239356994628906 171.0390625 76.83037567138672 176.53207397460938 59.11421585083008 173.00726318359375" stroke-width="3.0" fill="none" stroke="rgb(0, 0, 0)" stroke-opacity="1.0" stroke-linecap="round" stroke-linejoin="round"/>
    <path d="M 115.22840881347656 143.7262420654297 C 75.73502349853516 142.31719970703125 56.0927619934082 108.82975006103516 79.67382049560547 73.16322326660156" stroke-width="3.0" fill="none" stroke="rgb(0, 0, 0)" stroke-opacity="1.0" stroke-linecap="round" stroke-linejoin="round"/>
    <path d="M 53.38274002075195 145.28024291992188 C 46.68955612182617 145.09153747558594 37.468101501464844 131.65882873535156 50.6526985168457 145.45550537109375" stroke-width="3.0" fill="none" stroke="rgb(0, 0, 0)" stroke-opacity="1.0" stroke-linecap="round" stroke-linejoin="round"/>
    <path d="M 95.00362396240234 181.2624969482422 C 102.18046569824219 203.0264129638672 146.7086181640625 205.42276000976562 105.00995635986328 193.248291015625" stroke-width="3.0" fill="none" stroke="rgb(0, 0, 0)" stroke-opacity="1.0" stroke-linecap="round" stroke-linejoin="round"/>
    <path d="M 69.8493881225586 38.77627944946289 C 94.30828094482422 47.56769943237305 80.53036499023438 18.760833740234375 139.06259155273438 43.590721130371094" stroke-width="3.0" fill="none" stroke="rgb(0, 0, 0)" stroke-opacity="1.0" stroke-linecap="round" stroke-linejoin="round"/>
    <path d="M 100.2179183959961 31.01138687133789 C 123.42566680908203 48.62782669067383 91.52108001708984 38.400794982910156 135.4231719970703 55.69554138183594" stroke-width="3.0" fill="none" stroke="rgb(0, 0, 0)" stroke-opacity="1.0" stroke-linecap="round" stroke-linejoin="round"/>
    <path d="M 127.93641662597656 41.57281494140625 C 160.26580810546875 55.037105560302734 147.8483123779297 30.59889030456543 186.2443084716797 91.15617370605469" stroke-width="3.0" fill="none" stroke="rgb(0, 0, 0)" stroke-opacity="1.0" stroke-linecap="round" stroke-linejoin="round"/>
    <path d="M 70.27374267578125 179.12266540527344 C 58.51262283325195 167.22976684570312 50.23434829711914 186.78518676757812 37.340206146240234 135.90890502929688" stroke-width="3.0" fill="none" stroke="rgb(0, 0, 0)" stroke-opacity="1.0" stroke-linecap="round" stroke-linejoin="round"/>
    <path d="M 82.45687866210938 165.40354919433594 C 130.14413452148438 168.58560180664062 110.95742797851562 155.54519653320312 131.0412139892578 154.3804473876953" stroke-width="3.0" fill="none" stroke="rgb(0, 0, 0)" stroke-opacity="1.0" stroke-linecap="round" stroke-linejoin="round"/>
    <path d="M 164.04759216308594 171.68226623535156 C 179.21884155273438 155.21542358398438 150.45875549316406 179.03759765625 165.10629272460938 171.714111328125" stroke-width="3.0" fill="none" stroke="rgb(0, 0, 0)" stroke-opacity="1.0" stroke-linecap="round" stroke-linejoin="round"/>
    <path d="M 151.68804931640625 190.63943481445312 C 133.21737670898438 199.01480102539062 141.01805114746094 192.5675811767578 116.94231414794922 196.42904663085938" stroke-width="3.0" fill="none" stroke="rgb(0, 0, 0)" stroke-opacity="1.0" stroke-linecap="round" stroke-linejoin="round"/>
    <path d="M 52.17409133911133 144.43072509765625 C 51.99217987060547 141.48008728027344 64.09747314453125 166.61904907226562 91.93687438964844 165.54638671875" stroke-width="3.0" fill="none" stroke="rgb(0, 0, 0)" stroke-opacity="1.0" stroke-linecap="round" stroke-linejoin="round"/>
    <path d="M 37.666259765625 139.41360473632812 C 31.42164421081543 69.46432495117188 28.293926239013672 108.85965728759766 37.4818229675293 72.69603729248047" stroke-width="3.0" fill="none" stroke="rgb(0, 0, 0)" stroke-opacity="1.0" stroke-linecap="round" stroke-linejoin="round"/>
    <path d="M 85.76012420654297 169.92636108398438 C 117.73116302490234 159.37420654296875 130.21878051757812 160.92967224121094 148.19036865234375 142.07130432128906" stroke-width="3.0" fill="none" stroke="rgb(0, 0, 0)" stroke-opacity="1.0" stroke-linecap="round" stroke-linejoin="round"/>
    <path d="M 37.63044738769531 79.5104751586914 C 34.086830139160156 32.10630798339844 68.92476654052734 47.162349700927734 68.12040710449219 40.52059555053711" stroke-width="3.0" fill="none" stroke="rgb(0, 0, 0)" stroke-opacity="1.0" stroke-linecap="round" stroke-linejoin="round"/>
    <path d="M 189.310791015625 111.83464813232422 C 194.3126220703125 114.45047760009766 178.34007263183594 179.3563690185547 183.2698974609375 151.1447296142578" stroke-width="3.0" fill="none" stroke="rgb(0, 0, 0)" stroke-opacity="1.0" stroke-linecap="round" stroke-linejoin="round"/>
    <path d="M 57.94234085083008 56.17094421386719 C 80.80268096923828 46.564430236816406 69.43915557861328 42.31084060668945 132.9108428955078 54.62336349487305" stroke-width="3.0" fill="none" stroke="rgb(0, 0, 0)" stroke-opacity="1.0" stroke-linecap="round" stroke-linejoin="round"/>
    <path d="M 149.4931640625 192.4998779296875 C 164.9932861328125 176.2937774658203 158.60272216796875 197.02825927734375 173.8594970703125 165.36790466308594" stroke-width="3.0" fill="none" stroke="rgb(0, 0, 0)" stroke-opacity="1.0" stroke-linecap="round" stroke-linejoin="round"/>
    <path d="M 109.10209655761719 128.24855041503906 C 91.7335433959961 70.54348754882812 59.40589141845703 106.4523696899414 105.49950408935547 145.2039031982422" stroke-width="3.0" fill="none" stroke="rgb(0, 0, 0)" stroke-opacity="1.0" stroke-linecap="round" stroke-linejoin="round"/>
    <path d="M 117.21487426757812 87.66607666015625 C 61.160064697265625 78.11621856689453 89.6472396850586 106.88182067871094 87.90775299072266 126.7127914428711" stroke-width="3.0" fill="none" stroke="rgb(0, 0, 0)" stroke-opacity="1.0" stroke-linecap="round" stroke-linejoin="round"/>
    <path d="M 65.7122573852539 50.67623519897461 C 52.984336853027344 62.07765197753906 49.511600494384766 65.4630126953125 46.2779541015625 77.0185317993164" stroke-width="3.0" fill="none" stroke="rgb(0, 0, 0)" stroke-opacity="1.0" stroke-linecap="round" stroke-linejoin="round"/>
    <path d="M 160.81173706054688 175.20468139648438 C 112.24725341796875 159.5177764892578 142.39431762695312 173.05706787109375 153.895751953125 134.3052978515625" stroke-width="3.0" fill="none" stroke="rgb(0, 0, 0)" stroke-opacity="1.0" stroke-linecap="round" stroke-linejoin="round"/>
  </g>
</svg>
