<?xml version="1.0" ?>
<svg xmlns="http://www.w3.org/2000/svg" version="1.1" width="224" height="224">
  <defs/>
  <g>
    <path d="M 65.94139099121094 92.94015502929688 C 74.65541076660156 124.44088745117188 52.85626983642578 149.77024841308594 104.32807922363281 148.7349090576172" stroke-width="3.0" fill="none" stroke="rgb(0, 0, 0)" stroke-opacity="1.0" stroke-linecap="round" stroke-linejoin="round"/>
    <path d="M 159.14706420898438 173.4451904296875 C 188.91275024414062 148.72718811035156 186.12355041503906 147.82347106933594 170.42372131347656 168.9651336669922" stroke-width="3.0" fill="none" stroke="rgb(0, 0, 0)" stroke-opacity="1.0" stroke-linecap="round" stroke-linejoin="round"/>
    <path d="M 88.41563415527344 133.58016967773438 C 114.90733337402344 157.85365295410156 117.75045013427734 137.08203125 121.7823715209961 136.86080932617188" stroke-width="3.0" fill="none" stroke="rgb(0, 0, 0)" stroke-opacity="1.0" stroke-linecap="round" stroke-linejoin="round"/>
    <path d="M 115.49153137207031 60.85273361206055 C 173.4882049560547 95.8084945678711 152.33055114746094 131.0371551513672 115.97161865234375 141.0388946533203" stroke-width="3.0" fill="none" stroke="rgb(0, 0, 0)" stroke-opacity="1.0" stroke-linecap="round" stroke-linejoin="round"/>
    <path d="M 167.82183837890625 60.11198806762695 C 200.32615661621094 85.04957580566406 190.0168914794922 82.19960021972656 185.88621520996094 110.95629119873047" stroke-width="3.0" fill="none" stroke="rgb(0, 0, 0)" stroke-opacity="1.0" stroke-linecap="round" stroke-linejoin="round"/>
    <path d="M 161.86195373535156 74.01475524902344 C 181.18470764160156 74.20873260498047 166.4560089111328 134.36732482910156 150.17581176757812 156.00335693359375" stroke-width="3.0" fill="none" stroke="rgb(0, 0, 0)" stroke-opacity="1.0" stroke-linecap="round" stroke-linejoin="round"/>
    <path d="M 39.86518478393555 130.85147094726562 C 27.242477416992188 99.88446807861328 41.386070251464844 125.96074676513672 40.42932891845703 143.70291137695312" stroke-width="3.0" fill="none" stroke="rgb(0, 0, 0)" stroke-opacity="1.0" stroke-linecap="round" stroke-linejoin="round"/>
    <path d="M 164.07455444335938 167.0254669189453 C 191.6223602294922 156.5685577392578 187.8653564453125 155.96405029296875 158.01206970214844 172.95790100097656" stroke-width="3.0" fill="none" stroke="rgb(0, 0, 0)" stroke-opacity="1.0" stroke-linecap="round" stroke-linejoin="round"/>
    <path d="M 99.97056579589844 185.99928283691406 C 85.35144805908203 185.59228515625 107.07147979736328 196.56369018554688 126.65635681152344 194.8191680908203" stroke-width="3.0" fill="none" stroke="rgb(0, 0, 0)" stroke-opacity="1.0" stroke-linecap="round" stroke-linejoin="round"/>
    <path d="M 129.75509643554688 53.45741653442383 C 194.6962432861328 89.7547378540039 167.93548583984375 78.98653411865234 184.9383087158203 135.8651580810547" stroke-width="3.0" fill="none" stroke="rgb(0, 0, 0)" stroke-opacity="1.0" stroke-linecap="round" stroke-linejoin="round"/>
    <path d="M 90.26459503173828 181.56057739257812 C 60.50627899169922 184.22975158691406 63.15324401855469 171.34397888183594 50.69351577758789 167.962158203125" stroke-width="3.0" fill="none" stroke="rgb(0, 0, 0)" stroke-opacity="1.0" stroke-linecap="round" stroke-linejoin="round"/>
    <path d="M 107.13812255859375 146.8450469970703 C 73.92659759521484 144.37344360351562 61.434295654296875 111.85391235351562 84.14491271972656 77.3487548828125" stroke-width="3.0" fill="none" stroke="rgb(0, 0, 0)" stroke-opacity="1.0" stroke-linecap="round" stroke-linejoin="round"/>
    <path d="M 52.3536376953125 151.26568603515625 C 30.87851905822754 141.7748260498047 33.363807678222656 121.95630645751953 46.874778747558594 147.5526123046875" stroke-width="3.0" fill="none" stroke="rgb(0, 0, 0)" stroke-opacity="1.0" stroke-linecap="round" stroke-linejoin="round"/>
    <path d="M 81.60015106201172 178.06756591796875 C 100.27405548095703 192.45919799804688 138.71363830566406 196.25216674804688 108.30067443847656 190.22450256347656" stroke-width="3.0" fill="none" stroke="rgb(0, 0, 0)" stroke-opacity="1.0" stroke-linecap="round" stroke-linejoin="round"/>
    <path d="M 71.30509185791016 41.81858825683594 C 106.63116455078125 40.076171875 73.95291900634766 24.872316360473633 131.4191131591797 39.27090835571289" stroke-width="3.0" fill="none" stroke="rgb(0, 0, 0)" stroke-opacity="1.0" stroke-linecap="round" stroke-linejoin="round"/>
    <path d="M 99.21916961669922 30.706552505493164 C 132.2369842529297 57.37422561645508 104.63324737548828 43.33849334716797 128.0421142578125 53.73826217651367" stroke-width="3.0" fill="none" stroke="rgb(0, 0, 0)" stroke-opacity="1.0" stroke-linecap="round" stroke-linejoin="round"/>
    <path d="M 132.10568237304688 41.481727600097656 C 150.1539306640625 52.00181579589844 151.39794921875 29.76752471923828 188.91952514648438 100.27688598632812" stroke-width="3.0" fill="none" stroke="rgb(0, 0, 0)" stroke-opacity="1.0" stroke-linecap="round" stroke-linejoin="round"/>
    <path d="M 65.03031921386719 180.35043334960938 C 61.438846588134766 164.65162658691406 49.9783821105957 179.85366821289062 39.23160934448242 146.90687561035156" stroke-width="3.0" fill="none" stroke="rgb(0, 0, 0)" stroke-opacity="1.0" stroke-linecap="round" stroke-linejoin="round"/>
    <path d="M 78.83330535888672 167.0878143310547 C 118.6553955078125 166.6396942138672 106.56208801269531 160.99957275390625 122.68448638916016 153.96627807617188" stroke-width="3.0" fill="none" stroke="rgb(0, 0, 0)" stroke-opacity="1.0" stroke-linecap="round" stroke-linejoin="round"/>
    <path d="M 154.7845001220703 172.17486572265625 C 178.1109619140625 154.205810546875 154.56381225585938 190.56199645996094 162.5765838623047 170.1222686767578" stroke-width="3.0" fill="none" stroke="rgb(0, 0, 0)" stroke-opacity="1.0" stroke-linecap="round" stroke-linejoin="round"/>
    <path d="M 149.66647338867188 191.70790100097656 C 126.50907135009766 198.3750762939453 137.16647338867188 186.5066680908203 114.11859893798828 196.36373901367188" stroke-width="3.0" fill="none" stroke="rgb(0, 0, 0)" stroke-opacity="1.0" stroke-linecap="round" stroke-linejoin="round"/>
    <path d="M 44.77915573120117 145.1607666015625 C 49.18407440185547 141.99635314941406 58.93665313720703 173.0325927734375 81.766845703125 167.44625854492188" stroke-width="3.0" fill="none" stroke="rgb(0, 0, 0)" stroke-opacity="1.0" stroke-linecap="round" stroke-linejoin="round"/>
    <path d="M 36.17521286010742 133.5450439453125 C 31.145286560058594 69.32926940917969 21.93653106689453 102.32194519042969 31.80828857421875 72.11510467529297" stroke-width="3.0" fill="none" stroke="rgb(0, 0, 0)" stroke-opacity="1.0" stroke-linecap="round" stroke-linejoin="round"/>
    <path d="M 89.72069549560547 166.52899169921875 C 115.73252868652344 156.6360321044922 124.80260467529297 162.15701293945312 135.56427001953125 144.00381469726562" stroke-width="3.0" fill="none" stroke="rgb(0, 0, 0)" stroke-opacity="1.0" stroke-linecap="round" stroke-linejoin="round"/>
    <path d="M 30.905410766601562 78.01204681396484 C 41.46304702758789 25.214080810546875 67.84666442871094 48.83416748046875 69.40290069580078 39.79513931274414" stroke-width="3.0" fill="none" stroke="rgb(0, 0, 0)" stroke-opacity="1.0" stroke-linecap="round" stroke-linejoin="round"/>
    <path d="M 187.4561004638672 111.77173614501953 C 191.17117309570312 133.90353393554688 175.6654510498047 167.9115447998047 181.50918579101562 159.15869140625" stroke-width="3.0" fill="none" stroke="rgb(0, 0, 0)" stroke-opacity="1.0" stroke-linecap="round" stroke-linejoin="round"/>
    <path d="M 59.62851333618164 59.70777893066406 C 67.64473724365234 50.346824645996094 71.92398071289062 43.073341369628906 111.72808074951172 54.185821533203125" stroke-width="3.0" fill="none" stroke="rgb(0, 0, 0)" stroke-opacity="1.0" stroke-linecap="round" stroke-linejoin="round"/>
    <path d="M 149.84315490722656 191.396484375 C 166.90017700195312 177.9126434326172 158.07965087890625 194.9840850830078 171.16453552246094 166.00244140625" stroke-width="3.0" fill="none" stroke="rgb(0, 0, 0)" stroke-opacity="1.0" stroke-linecap="round" stroke-linejoin="round"/>
    <path d="M 100.30426788330078 133.05075073242188 C 81.03258514404297 87.0735092163086 68.22684478759766 111.5710678100586 100.41873931884766 143.30960083007812" stroke-width="3.0" fill="none" stroke="rgb(0, 0, 0)" stroke-opacity="1.0" stroke-linecap="round" stroke-linejoin="round"/>
    <path d="M 114.74083709716797 87.97279357910156 C 76.37548828125 88.77464294433594 93.58072662353516 109.40032196044922 90.1513671875 131.57247924804688" stroke-width="3.0" fill="none" stroke="rgb(0, 0, 0)" stroke-opacity="1.0" stroke-linecap="round" stroke-linejoin="round"/>
    <path d="M 61.82237243652344 59.10568618774414 C 55.8350944519043 62.676177978515625 50.684871673583984 63.96198272705078 45.01112365722656 79.25879669189453" stroke-width="3.0" fill="none" stroke="rgb(0, 0, 0)" stroke-opacity="1.0" stroke-linecap="round" stroke-linejoin="round"/>
    <path d="M 162.3868408203125 175.1436004638672 C 134.9427947998047 165.29368591308594 151.58506774902344 157.7621612548828 140.641845703125 140.9640350341797" stroke-width="3.0" fill="none" stroke="rgb(0, 0, 0)" stroke-opacity="1.0" stroke-linecap="round" stroke-linejoin="round"/>
  </g>
</svg>
