<?xml version="1.0" ?>
<svg xmlns="http://www.w3.org/2000/svg" version="1.1" width="224" height="224">
  <defs/>
  <g>
    <path d="M 53.819828033447266 92.43608856201172 C 79.0941390991211 133.72689819335938 51.47243881225586 142.96737670898438 99.95901489257812 152.32757568359375" stroke-width="3.0" fill="none" stroke="rgb(0, 0, 0)" stroke-opacity="1.0" stroke-linecap="round" stroke-linejoin="round"/>
    <path d="M 157.11593627929688 171.3077850341797 C 177.2904052734375 151.98915100097656 180.47677612304688 158.5216827392578 146.8185272216797 184.21664428710938" stroke-width="3.0" fill="none" stroke="rgb(0, 0, 0)" stroke-opacity="1.0" stroke-linecap="round" stroke-linejoin="round"/>
    <path d="M 75.97061157226562 132.4696502685547 C 108.14749908447266 173.1288299560547 101.69563293457031 146.86569213867188 143.2598114013672 141.17953491210938" stroke-width="3.0" fill="none" stroke="rgb(0, 0, 0)" stroke-opacity="1.0" stroke-linecap="round" stroke-linejoin="round"/>
    <path d="M 115.72511291503906 62.46513748168945 C 170.7830810546875 86.6844253540039 157.5539093017578 145.45608520507812 124.89158630371094 144.88595581054688" stroke-width="3.0" fill="none" stroke="rgb(0, 0, 0)" stroke-opacity="1.0" stroke-linecap="round" stroke-linejoin="round"/>
    <path d="M 168.26290893554688 58.78334045410156 C 204.77752685546875 88.02373504638672 178.64979553222656 84.04553985595703 188.02679443359375 115.93419647216797" stroke-width="3.0" fill="none" stroke="rgb(0, 0, 0)" stroke-opacity="1.0" stroke-linecap="round" stroke-linejoin="round"/>
    <path d="M 163.26731872558594 77.61579895019531 C 189.3860626220703 95.67129516601562 156.72210693359375 114.27025604248047 154.16006469726562 139.5105438232422" stroke-width="3.0" fill="none" stroke="rgb(0, 0, 0)" stroke-opacity="1.0" stroke-linecap="round" stroke-linejoin="round"/>
    <path d="M 44.09609603881836 143.7587127685547 C 25.702463150024414 107.71843719482422 38.457984924316406 149.32583618164062 44.64021682739258 158.09239196777344" stroke-width="3.0" fill="none" stroke="rgb(0, 0, 0)" stroke-opacity="1.0" stroke-linecap="round" stroke-linejoin="round"/>
    <path d="M 159.4412384033203 175.17279052734375 C 191.70782470703125 150.8917999267578 180.97523498535156 148.41314697265625 156.87928771972656 180.7260284423828" stroke-width="3.0" fill="none" stroke="rgb(0, 0, 0)" stroke-opacity="1.0" stroke-linecap="round" stroke-linejoin="round"/>
    <path d="M 128.059326171875 189.76046752929688 C 95.62809753417969 185.654052734375 121.31106567382812 197.4646453857422 124.95214080810547 191.96096801757812" stroke-width="3.0" fill="none" stroke="rgb(0, 0, 0)" stroke-opacity="1.0" stroke-linecap="round" stroke-linejoin="round"/>
    <path d="M 137.0114288330078 54.251625061035156 C 200.8453826904297 108.9843521118164 185.64833068847656 125.56793212890625 180.79811096191406 154.64808654785156" stroke-width="3.0" fill="none" stroke="rgb(0, 0, 0)" stroke-opacity="1.0" stroke-linecap="round" stroke-linejoin="round"/>
    <path d="M 90.42205047607422 178.93470764160156 C 58.5557861328125 177.21803283691406 70.34903717041016 180.5522918701172 63.451194763183594 177.06959533691406" stroke-width="3.0" fill="none" stroke="rgb(0, 0, 0)" stroke-opacity="1.0" stroke-linecap="round" stroke-linejoin="round"/>
    <path d="M 117.68927001953125 121.52899932861328 C 92.07273864746094 158.89297485351562 55.073097229003906 114.00689697265625 80.83827209472656 73.51300811767578" stroke-width="3.0" fill="none" stroke="rgb(0, 0, 0)" stroke-opacity="1.0" stroke-linecap="round" stroke-linejoin="round"/>
    <path d="M 46.32096862792969 145.42572021484375 C 46.12103271484375 144.95278930664062 41.44975280761719 138.85189819335938 46.104976654052734 142.56126403808594" stroke-width="3.0" fill="none" stroke="rgb(0, 0, 0)" stroke-opacity="1.0" stroke-linecap="round" stroke-linejoin="round"/>
    <path d="M 91.71739196777344 179.8785400390625 C 101.82799530029297 193.52561950683594 161.5459747314453 195.94949340820312 96.1547622680664 182.6729278564453" stroke-width="3.0" fill="none" stroke="rgb(0, 0, 0)" stroke-opacity="1.0" stroke-linecap="round" stroke-linejoin="round"/>
    <path d="M 67.41081237792969 38.55723571777344 C 98.91292572021484 50.61851119995117 71.48773193359375 15.041925430297852 140.77513122558594 44.356510162353516" stroke-width="3.0" fill="none" stroke="rgb(0, 0, 0)" stroke-opacity="1.0" stroke-linecap="round" stroke-linejoin="round"/>
    <path d="M 100.53311157226562 30.43912124633789 C 127.04369354248047 53.43951416015625 87.02082061767578 32.420928955078125 152.6384735107422 62.58441162109375" stroke-width="3.0" fill="none" stroke="rgb(0, 0, 0)" stroke-opacity="1.0" stroke-linecap="round" stroke-linejoin="round"/>
    <path d="M 128.4379119873047 39.65035629272461 C 159.65199279785156 52.06147766113281 154.6505126953125 33.754913330078125 180.7427520751953 91.34059143066406" stroke-width="3.0" fill="none" stroke="rgb(0, 0, 0)" stroke-opacity="1.0" stroke-linecap="round" stroke-linejoin="round"/>
    <path d="M 66.05379486083984 178.17919921875 C 58.680179595947266 169.17686462402344 44.0836181640625 179.34991455078125 34.995887756347656 133.83575439453125" stroke-width="3.0" fill="none" stroke="rgb(0, 0, 0)" stroke-opacity="1.0" stroke-linecap="round" stroke-linejoin="round"/>
    <path d="M 83.7567138671875 174.73841857910156 C 124.6966552734375 165.62173461914062 96.38347625732422 162.51675415039062 125.1051254272461 160.76522827148438" stroke-width="3.0" fill="none" stroke="rgb(0, 0, 0)" stroke-opacity="1.0" stroke-linecap="round" stroke-linejoin="round"/>
    <path d="M 159.7484893798828 178.2549285888672 C 178.5637969970703 158.2263641357422 146.49781799316406 180.988037109375 150.21742248535156 184.57901000976562" stroke-width="3.0" fill="none" stroke="rgb(0, 0, 0)" stroke-opacity="1.0" stroke-linecap="round" stroke-linejoin="round"/>
    <path d="M 154.40151977539062 182.5236358642578 C 133.39865112304688 192.4727325439453 139.70274353027344 188.64913940429688 102.22330474853516 189.0620880126953" stroke-width="3.0" fill="none" stroke="rgb(0, 0, 0)" stroke-opacity="1.0" stroke-linecap="round" stroke-linejoin="round"/>
    <path d="M 46.39960861206055 143.23573303222656 C 57.21788024902344 156.36341857910156 58.12680435180664 171.22509765625 91.43211364746094 165.748291015625" stroke-width="3.0" fill="none" stroke="rgb(0, 0, 0)" stroke-opacity="1.0" stroke-linecap="round" stroke-linejoin="round"/>
    <path d="M 36.19872283935547 135.84498596191406 C 32.32699203491211 68.046142578125 23.704627990722656 107.42788696289062 36.56072998046875 62.39210510253906" stroke-width="3.0" fill="none" stroke="rgb(0, 0, 0)" stroke-opacity="1.0" stroke-linecap="round" stroke-linejoin="round"/>
    <path d="M 84.69864654541016 167.8153533935547 C 112.76185607910156 166.67140197753906 130.15513610839844 164.0792999267578 152.6891632080078 140.4463348388672" stroke-width="3.0" fill="none" stroke="rgb(0, 0, 0)" stroke-opacity="1.0" stroke-linecap="round" stroke-linejoin="round"/>
    <path d="M 37.08992385864258 71.16787719726562 C 35.29174041748047 33.433841705322266 70.02677154541016 45.67158508300781 65.39141845703125 40.5571174621582" stroke-width="3.0" fill="none" stroke="rgb(0, 0, 0)" stroke-opacity="1.0" stroke-linecap="round" stroke-linejoin="round"/>
    <path d="M 186.92098999023438 127.60956573486328 C 191.16844177246094 95.58345031738281 184.1930694580078 135.21505737304688 187.4629364013672 99.71575164794922" stroke-width="3.0" fill="none" stroke="rgb(0, 0, 0)" stroke-opacity="1.0" stroke-linecap="round" stroke-linejoin="round"/>
    <path d="M 60.64616012573242 53.6020393371582 C 81.00548553466797 39.554744720458984 92.9256591796875 47.408897399902344 135.92640686035156 53.122230529785156" stroke-width="3.0" fill="none" stroke="rgb(0, 0, 0)" stroke-opacity="1.0" stroke-linecap="round" stroke-linejoin="round"/>
    <path d="M 138.43963623046875 193.98997497558594 C 172.58456420898438 177.7224578857422 146.81051635742188 193.82437133789062 173.0753173828125 162.06271362304688" stroke-width="3.0" fill="none" stroke="rgb(0, 0, 0)" stroke-opacity="1.0" stroke-linecap="round" stroke-linejoin="round"/>
    <path d="M 105.294677734375 119.58811950683594 C 89.05821228027344 67.76180267333984 65.12014770507812 114.12406921386719 107.63221740722656 132.76170349121094" stroke-width="3.0" fill="none" stroke="rgb(0, 0, 0)" stroke-opacity="1.0" stroke-linecap="round" stroke-linejoin="round"/>
    <path d="M 119.40199279785156 83.44908142089844 C 66.8610610961914 80.66932678222656 93.30300903320312 100.60930633544922 91.36386108398438 121.93768310546875" stroke-width="3.0" fill="none" stroke="rgb(0, 0, 0)" stroke-opacity="1.0" stroke-linecap="round" stroke-linejoin="round"/>
    <path d="M 63.330726623535156 52.01552200317383 C 55.45816421508789 65.10794067382812 49.86398696899414 61.943931579589844 56.76110076904297 88.2357177734375" stroke-width="3.0" fill="none" stroke="rgb(0, 0, 0)" stroke-opacity="1.0" stroke-linecap="round" stroke-linejoin="round"/>
    <path d="M 165.09083557128906 167.66725158691406 C 127.04956817626953 170.70977783203125 154.11117553710938 183.96719360351562 177.09320068359375 108.9483871459961" stroke-width="3.0" fill="none" stroke="rgb(0, 0, 0)" stroke-opacity="1.0" stroke-linecap="round" stroke-linejoin="round"/>
  </g>
</svg>
