<?xml version="1.0" ?>
<svg xmlns="http://www.w3.org/2000/svg" version="1.1" width="224" height="224">
  <defs/>
  <g>
    <path d="M 69.25822448730469 111.89414978027344 C 68.7052230834961 124.22412872314453 50.24650192260742 141.77122497558594 85.21341705322266 142.4390869140625" stroke-width="3.0" fill="none" stroke="rgb(0, 0, 0)" stroke-opacity="1.0" stroke-linecap="round" stroke-linejoin="round"/>
    <path d="M 163.3735809326172 173.9563446044922 C 185.53915405273438 152.60678100585938 180.49005126953125 143.28256225585938 181.3459014892578 161.80557250976562" stroke-width="3.0" fill="none" stroke="rgb(0, 0, 0)" stroke-opacity="1.0" stroke-linecap="round" stroke-linejoin="round"/>
    <path d="M 87.11685180664062 130.61135864257812 C 111.02947235107422 149.58792114257812 103.44760131835938 142.3123779296875 118.62470245361328 143.39712524414062" stroke-width="3.0" fill="none" stroke="rgb(0, 0, 0)" stroke-opacity="1.0" stroke-linecap="round" stroke-linejoin="round"/>
    <path d="M 134.20413208007812 83.32457733154297 C 151.0227508544922 114.9216079711914 142.09722900390625 126.80753326416016 120.3843765258789 142.38626098632812" stroke-width="3.0" fill="none" stroke="rgb(0, 0, 0)" stroke-opacity="1.0" stroke-linecap="round" stroke-linejoin="round"/>
    <path d="M 167.72169494628906 59.12297821044922 C 202.2585906982422 82.87165832519531 181.18032836914062 84.44287109375 190.3747100830078 116.78681182861328" stroke-width="3.0" fill="none" stroke="rgb(0, 0, 0)" stroke-opacity="1.0" stroke-linecap="round" stroke-linejoin="round"/>
    <path d="M 147.73272705078125 95.50745391845703 C 158.2613983154297 105.76175689697266 158.40728759765625 144.54852294921875 145.488037109375 160.26376342773438" stroke-width="3.0" fill="none" stroke="rgb(0, 0, 0)" stroke-opacity="1.0" stroke-linecap="round" stroke-linejoin="round"/>
    <path d="M 39.5917854309082 121.51648712158203 C 31.83077621459961 102.82969665527344 38.52516555786133 125.06749725341797 37.21590805053711 121.03076934814453" stroke-width="3.0" fill="none" stroke="rgb(0, 0, 0)" stroke-opacity="1.0" stroke-linecap="round" stroke-linejoin="round"/>
    <path d="M 160.15382385253906 172.16928100585938 C 188.3321990966797 155.93746948242188 194.0274658203125 156.89199829101562 152.40850830078125 169.7853240966797" stroke-width="3.0" fill="none" stroke="rgb(0, 0, 0)" stroke-opacity="1.0" stroke-linecap="round" stroke-linejoin="round"/>
    <path d="M 96.16363525390625 184.830078125 C 88.11997985839844 183.198974609375 102.80691528320312 193.7701416015625 99.62821197509766 188.838623046875" stroke-width="3.0" fill="none" stroke="rgb(0, 0, 0)" stroke-opacity="1.0" stroke-linecap="round" stroke-linejoin="round"/>
    <path d="M 121.68733978271484 62.686405181884766 C 160.06158447265625 93.57019805908203 153.9094696044922 94.76457214355469 168.24853515625 136.0647430419922" stroke-width="3.0" fill="none" stroke="rgb(0, 0, 0)" stroke-opacity="1.0" stroke-linecap="round" stroke-linejoin="round"/>
    <path d="M 83.67596435546875 179.88067626953125 C 70.65702056884766 179.07460021972656 43.54399108886719 174.50755310058594 58.332828521728516 165.10504150390625" stroke-width="3.0" fill="none" stroke="rgb(0, 0, 0)" stroke-opacity="1.0" stroke-linecap="round" stroke-linejoin="round"/>
    <path d="M 98.16101837158203 146.51011657714844 C 71.90699005126953 143.88262939453125 66.60887145996094 111.65190124511719 86.41085052490234 80.72576141357422" stroke-width="3.0" fill="none" stroke="rgb(0, 0, 0)" stroke-opacity="1.0" stroke-linecap="round" stroke-linejoin="round"/>
    <path d="M 51.98048782348633 155.4672088623047 C 33.985740661621094 147.39657592773438 32.265750885009766 133.6714324951172 44.37022018432617 152.8745574951172" stroke-width="3.0" fill="none" stroke="rgb(0, 0, 0)" stroke-opacity="1.0" stroke-linecap="round" stroke-linejoin="round"/>
    <path d="M 80.15907287597656 174.0520782470703 C 89.88113403320312 187.14666748046875 119.8114013671875 189.11956787109375 95.82514953613281 187.11875915527344" stroke-width="3.0" fill="none" stroke="rgb(0, 0, 0)" stroke-opacity="1.0" stroke-linecap="round" stroke-linejoin="round"/>
    <path d="M 69.1213150024414 40.27614974975586 C 109.43047332763672 40.78232955932617 82.94058227539062 19.505874633789062 138.9146728515625 42.03205871582031" stroke-width="3.0" fill="none" stroke="rgb(0, 0, 0)" stroke-opacity="1.0" stroke-linecap="round" stroke-linejoin="round"/>
    <path d="M 82.64273834228516 48.00120544433594 C 100.33441162109375 51.77879333496094 98.79898834228516 53.407997131347656 119.27638244628906 62.25962829589844" stroke-width="3.0" fill="none" stroke="rgb(0, 0, 0)" stroke-opacity="1.0" stroke-linecap="round" stroke-linejoin="round"/>
    <path d="M 139.19679260253906 42.534664154052734 C 143.86395263671875 48.31227493286133 162.759765625 30.186948776245117 180.8452911376953 87.17475891113281" stroke-width="3.0" fill="none" stroke="rgb(0, 0, 0)" stroke-opacity="1.0" stroke-linecap="round" stroke-linejoin="round"/>
    <path d="M 53.341426849365234 170.90921020507812 C 51.59474182128906 163.62921142578125 48.578094482421875 165.30398559570312 48.38737106323242 155.5057830810547" stroke-width="3.0" fill="none" stroke="rgb(0, 0, 0)" stroke-opacity="1.0" stroke-linecap="round" stroke-linejoin="round"/>
    <path d="M 83.25100708007812 154.73904418945312 C 94.60892486572266 154.8002166748047 78.51707458496094 156.5117950439453 110.34835815429688 151.51309204101562" stroke-width="3.0" fill="none" stroke="rgb(0, 0, 0)" stroke-opacity="1.0" stroke-linecap="round" stroke-linejoin="round"/>
    <path d="M 162.4933624267578 169.32818603515625 C 182.62892150878906 157.07546997070312 143.13076782226562 173.4238739013672 162.34170532226562 169.0277557373047" stroke-width="3.0" fill="none" stroke="rgb(0, 0, 0)" stroke-opacity="1.0" stroke-linecap="round" stroke-linejoin="round"/>
    <path d="M 138.19940185546875 192.76109313964844 C 95.73756408691406 194.8510284423828 129.61801147460938 189.4806671142578 101.17878723144531 189.45135498046875" stroke-width="3.0" fill="none" stroke="rgb(0, 0, 0)" stroke-opacity="1.0" stroke-linecap="round" stroke-linejoin="round"/>
    <path d="M 64.34247589111328 162.47811889648438 C 40.98939514160156 165.18511962890625 55.33051681518555 172.66741943359375 82.50981903076172 152.96775817871094" stroke-width="3.0" fill="none" stroke="rgb(0, 0, 0)" stroke-opacity="1.0" stroke-linecap="round" stroke-linejoin="round"/>
    <path d="M 36.9350700378418 143.32138061523438 C 36.55583190917969 82.59965515136719 20.462026596069336 93.603271484375 32.489540100097656 81.65133666992188" stroke-width="3.0" fill="none" stroke="rgb(0, 0, 0)" stroke-opacity="1.0" stroke-linecap="round" stroke-linejoin="round"/>
    <path d="M 97.88484954833984 153.66392517089844 C 109.91483306884766 156.65155029296875 109.58438110351562 151.475830078125 119.38823699951172 148.2030487060547" stroke-width="3.0" fill="none" stroke="rgb(0, 0, 0)" stroke-opacity="1.0" stroke-linecap="round" stroke-linejoin="round"/>
    <path d="M 34.183929443359375 81.61785125732422 C 35.398990631103516 34.194705963134766 57.515625 45.41789627075195 68.33908081054688 39.21381759643555" stroke-width="3.0" fill="none" stroke="rgb(0, 0, 0)" stroke-opacity="1.0" stroke-linecap="round" stroke-linejoin="round"/>
    <path d="M 189.15589904785156 112.8764877319336 C 190.0957489013672 143.5216064453125 173.08282470703125 151.5113067626953 179.81700134277344 161.1851806640625" stroke-width="3.0" fill="none" stroke="rgb(0, 0, 0)" stroke-opacity="1.0" stroke-linecap="round" stroke-linejoin="round"/>
    <path d="M 65.30388641357422 50.76076889038086 C 66.7159194946289 44.5074348449707 63.51565933227539 42.6612434387207 84.30065155029297 48.44071578979492" stroke-width="3.0" fill="none" stroke="rgb(0, 0, 0)" stroke-opacity="1.0" stroke-linecap="round" stroke-linejoin="round"/>
    <path d="M 135.5282440185547 191.81192016601562 C 159.41456604003906 182.0078887939453 154.87835693359375 190.86923217773438 163.04588317871094 177.8531494140625" stroke-width="3.0" fill="none" stroke="rgb(0, 0, 0)" stroke-opacity="1.0" stroke-linecap="round" stroke-linejoin="round"/>
    <path d="M 97.62388610839844 125.38899993896484 C 95.69403076171875 107.9716567993164 75.2465591430664 106.84304809570312 103.02239227294922 131.5850830078125" stroke-width="3.0" fill="none" stroke="rgb(0, 0, 0)" stroke-opacity="1.0" stroke-linecap="round" stroke-linejoin="round"/>
    <path d="M 108.05975341796875 96.08715057373047 C 71.85118103027344 91.22357177734375 90.02537536621094 105.19075775146484 85.69229125976562 127.82268524169922" stroke-width="3.0" fill="none" stroke="rgb(0, 0, 0)" stroke-opacity="1.0" stroke-linecap="round" stroke-linejoin="round"/>
    <path d="M 64.78312683105469 51.47932052612305 C 55.96732711791992 54.39530563354492 45.637264251708984 71.65364837646484 44.6587028503418 81.18052673339844" stroke-width="3.0" fill="none" stroke="rgb(0, 0, 0)" stroke-opacity="1.0" stroke-linecap="round" stroke-linejoin="round"/>
    <path d="M 149.5093994140625 170.2727813720703 C 135.35379028320312 166.70150756835938 132.06224060058594 139.39126586914062 124.05735778808594 146.0530548095703" stroke-width="3.0" fill="none" stroke="rgb(0, 0, 0)" stroke-opacity="1.0" stroke-linecap="round" stroke-linejoin="round"/>
  </g>
</svg>
