<?xml version="1.0" ?>
<svg xmlns="http://www.w3.org/2000/svg" version="1.1" width="224" height="224">
  <defs/>
  <g>
    <path d="M 67.18011474609375 104.90505981445312 C 70.58488464355469 123.03196716308594 58.72569274902344 132.49786376953125 78.04077911376953 145.73451232910156" stroke-width="3.0" fill="none" stroke="rgb(0, 0, 0)" stroke-opacity="1.0" stroke-linecap="round" stroke-linejoin="round"/>
    <path d="M 161.44097900390625 174.54364013671875 C 184.0008087158203 154.456298828125 180.72898864746094 132.7864227294922 175.78372192382812 165.2490997314453" stroke-width="3.0" fill="none" stroke="rgb(0, 0, 0)" stroke-opacity="1.0" stroke-linecap="round" stroke-linejoin="round"/>
    <path d="M 88.34938049316406 133.6381378173828 C 108.08161163330078 148.3798065185547 85.99272155761719 145.87753295898438 111.25074005126953 148.75645446777344" stroke-width="3.0" fill="none" stroke="rgb(0, 0, 0)" stroke-opacity="1.0" stroke-linecap="round" stroke-linejoin="round"/>
    <path d="M 146.4521484375 89.7911148071289 C 149.1333770751953 123.46180725097656 147.64007568359375 128.60943603515625 122.84119415283203 143.02236938476562" stroke-width="3.0" fill="none" stroke="rgb(0, 0, 0)" stroke-opacity="1.0" stroke-linecap="round" stroke-linejoin="round"/>
    <path d="M 170.16104125976562 59.322330474853516 C 202.5333709716797 89.73159790039062 181.09336853027344 81.4412841796875 189.0025177001953 123.67903137207031" stroke-width="3.0" fill="none" stroke="rgb(0, 0, 0)" stroke-opacity="1.0" stroke-linecap="round" stroke-linejoin="round"/>
    <path d="M 148.67369079589844 104.44253540039062 C 157.37973022460938 115.99739837646484 151.4140167236328 132.97076416015625 135.20455932617188 152.95668029785156" stroke-width="3.0" fill="none" stroke="rgb(0, 0, 0)" stroke-opacity="1.0" stroke-linecap="round" stroke-linejoin="round"/>
    <path d="M 37.804443359375 113.1388931274414 C 29.9832706451416 97.95777130126953 42.38711166381836 116.00096893310547 38.54570007324219 111.32203674316406" stroke-width="3.0" fill="none" stroke="rgb(0, 0, 0)" stroke-opacity="1.0" stroke-linecap="round" stroke-linejoin="round"/>
    <path d="M 155.3679656982422 174.51156616210938 C 182.31515502929688 160.66073608398438 181.82928466796875 159.11776733398438 154.65618896484375 171.02099609375" stroke-width="3.0" fill="none" stroke="rgb(0, 0, 0)" stroke-opacity="1.0" stroke-linecap="round" stroke-linejoin="round"/>
    <path d="M 99.47421264648438 188.14064025878906 C 95.79127502441406 178.76785278320312 101.2457504272461 195.218505859375 100.4366226196289 186.70074462890625" stroke-width="3.0" fill="none" stroke="rgb(0, 0, 0)" stroke-opacity="1.0" stroke-linecap="round" stroke-linejoin="round"/>
    <path d="M 124.22071075439453 60.346946716308594 C 161.94253540039062 86.91781616210938 153.55419921875 86.7324447631836 165.014404296875 132.26190185546875" stroke-width="3.0" fill="none" stroke="rgb(0, 0, 0)" stroke-opacity="1.0" stroke-linecap="round" stroke-linejoin="round"/>
    <path d="M 85.47794342041016 177.810546875 C 74.28575897216797 175.13844299316406 60.18024444580078 182.23321533203125 69.54955291748047 169.7751922607422" stroke-width="3.0" fill="none" stroke="rgb(0, 0, 0)" stroke-opacity="1.0" stroke-linecap="round" stroke-linejoin="round"/>
    <path d="M 94.97832489013672 146.24542236328125 C 73.81267547607422 129.77603149414062 64.54063415527344 113.98344421386719 82.90673065185547 85.04583740234375" stroke-width="3.0" fill="none" stroke="rgb(0, 0, 0)" stroke-opacity="1.0" stroke-linecap="round" stroke-linejoin="round"/>
    <path d="M 44.75246810913086 154.6078643798828 C 36.29185104370117 145.2152862548828 34.51873779296875 135.4242706298828 40.66180419921875 152.96363830566406" stroke-width="3.0" fill="none" stroke="rgb(0, 0, 0)" stroke-opacity="1.0" stroke-linecap="round" stroke-linejoin="round"/>
    <path d="M 80.25212860107422 173.6615447998047 C 95.43864440917969 186.5040740966797 121.53408813476562 185.08323669433594 100.17028045654297 188.88995361328125" stroke-width="3.0" fill="none" stroke="rgb(0, 0, 0)" stroke-opacity="1.0" stroke-linecap="round" stroke-linejoin="round"/>
    <path d="M 65.75340270996094 42.6683235168457 C 106.15618133544922 32.24529266357422 95.18242645263672 20.440471649169922 134.3396453857422 41.20381164550781" stroke-width="3.0" fill="none" stroke="rgb(0, 0, 0)" stroke-opacity="1.0" stroke-linecap="round" stroke-linejoin="round"/>
    <path d="M 78.58665466308594 51.12285232543945 C 103.39310455322266 52.568565368652344 98.73127746582031 52.700538635253906 122.35230255126953 60.46111297607422" stroke-width="3.0" fill="none" stroke="rgb(0, 0, 0)" stroke-opacity="1.0" stroke-linecap="round" stroke-linejoin="round"/>
    <path d="M 134.58653259277344 42.39247512817383 C 134.4547882080078 46.89495086669922 160.91659545898438 31.814292907714844 173.81715393066406 79.15388488769531" stroke-width="3.0" fill="none" stroke="rgb(0, 0, 0)" stroke-opacity="1.0" stroke-linecap="round" stroke-linejoin="round"/>
    <path d="M 65.15779876708984 173.6147918701172 C 57.43276596069336 159.49612426757812 58.183937072753906 171.8106689453125 46.00345230102539 155.26231384277344" stroke-width="3.0" fill="none" stroke="rgb(0, 0, 0)" stroke-opacity="1.0" stroke-linecap="round" stroke-linejoin="round"/>
    <path d="M 88.6562728881836 160.99913024902344 C 90.067138671875 158.85533142089844 75.75566864013672 163.90521240234375 102.24239349365234 159.31228637695312" stroke-width="3.0" fill="none" stroke="rgb(0, 0, 0)" stroke-opacity="1.0" stroke-linecap="round" stroke-linejoin="round"/>
    <path d="M 162.7322540283203 168.1604461669922 C 183.14129638671875 158.4794921875 145.2293701171875 176.4213104248047 157.03961181640625 170.78221130371094" stroke-width="3.0" fill="none" stroke="rgb(0, 0, 0)" stroke-opacity="1.0" stroke-linecap="round" stroke-linejoin="round"/>
    <path d="M 138.93272399902344 191.55941772460938 C 105.55551147460938 189.25338745117188 134.96229553222656 190.9523162841797 99.67219543457031 185.22975158691406" stroke-width="3.0" fill="none" stroke="rgb(0, 0, 0)" stroke-opacity="1.0" stroke-linecap="round" stroke-linejoin="round"/>
    <path d="M 68.22372436523438 169.63133239746094 C 51.771141052246094 156.6758575439453 60.99854278564453 172.50621032714844 85.02497100830078 162.72219848632812" stroke-width="3.0" fill="none" stroke="rgb(0, 0, 0)" stroke-opacity="1.0" stroke-linecap="round" stroke-linejoin="round"/>
    <path d="M 39.00550079345703 132.2225799560547 C 37.10321807861328 88.14122772216797 18.806997299194336 93.17101287841797 40.150936126708984 81.77165985107422" stroke-width="3.0" fill="none" stroke="rgb(0, 0, 0)" stroke-opacity="1.0" stroke-linecap="round" stroke-linejoin="round"/>
    <path d="M 100.8875732421875 160.68212890625 C 110.835693359375 158.12686157226562 112.19364929199219 151.25857543945312 112.84342956542969 154.3839569091797" stroke-width="3.0" fill="none" stroke="rgb(0, 0, 0)" stroke-opacity="1.0" stroke-linecap="round" stroke-linejoin="round"/>
    <path d="M 38.225196838378906 80.2069091796875 C 42.436683654785156 38.173702239990234 50.369869232177734 50.130828857421875 70.22888946533203 38.0096435546875" stroke-width="3.0" fill="none" stroke="rgb(0, 0, 0)" stroke-opacity="1.0" stroke-linecap="round" stroke-linejoin="round"/>
    <path d="M 189.22964477539062 118.1827392578125 C 187.3488311767578 142.9390869140625 171.51748657226562 154.48805236816406 177.4540557861328 154.35440063476562" stroke-width="3.0" fill="none" stroke="rgb(0, 0, 0)" stroke-opacity="1.0" stroke-linecap="round" stroke-linejoin="round"/>
    <path d="M 67.39986419677734 54.200435638427734 C 66.66342163085938 52.7645149230957 68.08448791503906 48.430572509765625 81.1545181274414 53.40186309814453" stroke-width="3.0" fill="none" stroke="rgb(0, 0, 0)" stroke-opacity="1.0" stroke-linecap="round" stroke-linejoin="round"/>
    <path d="M 136.29042053222656 190.47085571289062 C 160.86524963378906 186.35137939453125 154.7788543701172 191.46762084960938 161.33509826660156 179.44969177246094" stroke-width="3.0" fill="none" stroke="rgb(0, 0, 0)" stroke-opacity="1.0" stroke-linecap="round" stroke-linejoin="round"/>
    <path d="M 92.99620056152344 123.50568389892578 C 97.0690689086914 108.69428253173828 76.16130065917969 104.07840728759766 101.70677947998047 132.9620819091797" stroke-width="3.0" fill="none" stroke="rgb(0, 0, 0)" stroke-opacity="1.0" stroke-linecap="round" stroke-linejoin="round"/>
    <path d="M 105.81157684326172 97.71431732177734 C 71.081298828125 95.33261108398438 86.96416473388672 104.58983612060547 87.68350982666016 132.3662109375" stroke-width="3.0" fill="none" stroke="rgb(0, 0, 0)" stroke-opacity="1.0" stroke-linecap="round" stroke-linejoin="round"/>
    <path d="M 67.76666259765625 53.860023498535156 C 54.337886810302734 62.35075378417969 50.28471755981445 72.5897216796875 47.814971923828125 78.16073608398438" stroke-width="3.0" fill="none" stroke="rgb(0, 0, 0)" stroke-opacity="1.0" stroke-linecap="round" stroke-linejoin="round"/>
    <path d="M 143.2469940185547 166.4154052734375 C 127.69164276123047 160.16407775878906 126.56880950927734 143.8289337158203 113.40738677978516 148.37425231933594" stroke-width="3.0" fill="none" stroke="rgb(0, 0, 0)" stroke-opacity="1.0" stroke-linecap="round" stroke-linejoin="round"/>
  </g>
</svg>
