<?xml version="1.0" ?>
<svg xmlns="http://www.w3.org/2000/svg" version="1.1" width="224" height="224">
  <defs/>
  <g>
    <path d="M 56.49507141113281 92.75196838378906 C 77.56945037841797 134.36497497558594 47.16838455200195 148.54917907714844 110.2506103515625 151.5991973876953" stroke-width="3.0" fill="none" stroke="rgb(0, 0, 0)" stroke-opacity="1.0" stroke-linecap="round" stroke-linejoin="round"/>
    <path d="M 141.91798400878906 176.993896484375 C 180.23959350585938 165.3314971923828 172.63426208496094 158.8416748046875 132.60214233398438 181.3589324951172" stroke-width="3.0" fill="none" stroke="rgb(0, 0, 0)" stroke-opacity="1.0" stroke-linecap="round" stroke-linejoin="round"/>
    <path d="M 78.89827728271484 132.97999572753906 C 108.86835479736328 169.79696655273438 103.29118347167969 143.4941864013672 135.055908203125 134.15724182128906" stroke-width="3.0" fill="none" stroke="rgb(0, 0, 0)" stroke-opacity="1.0" stroke-linecap="round" stroke-linejoin="round"/>
    <path d="M 115.31908416748047 66.43511962890625 C 171.12728881835938 89.19561004638672 150.7477264404297 128.74459838867188 124.85225677490234 152.06906127929688" stroke-width="3.0" fill="none" stroke="rgb(0, 0, 0)" stroke-opacity="1.0" stroke-linecap="round" stroke-linejoin="round"/>
    <path d="M 167.4840087890625 61.802486419677734 C 203.99618530273438 80.44580078125 181.3084259033203 86.41046905517578 190.15042114257812 115.73628234863281" stroke-width="3.0" fill="none" stroke="rgb(0, 0, 0)" stroke-opacity="1.0" stroke-linecap="round" stroke-linejoin="round"/>
    <path d="M 164.23233032226562 72.78086853027344 C 192.8153533935547 90.71150970458984 154.07981872558594 117.90684509277344 151.5334930419922 137.89073181152344" stroke-width="3.0" fill="none" stroke="rgb(0, 0, 0)" stroke-opacity="1.0" stroke-linecap="round" stroke-linejoin="round"/>
    <path d="M 43.452449798583984 142.57225036621094 C 23.739946365356445 101.2670669555664 39.832340240478516 144.82415771484375 40.70186996459961 160.34909057617188" stroke-width="3.0" fill="none" stroke="rgb(0, 0, 0)" stroke-opacity="1.0" stroke-linecap="round" stroke-linejoin="round"/>
    <path d="M 155.04518127441406 169.2589874267578 C 196.3616180419922 150.3271484375 183.14300537109375 146.23257446289062 152.93084716796875 170.06007385253906" stroke-width="3.0" fill="none" stroke="rgb(0, 0, 0)" stroke-opacity="1.0" stroke-linecap="round" stroke-linejoin="round"/>
    <path d="M 142.41712951660156 193.16253662109375 C 92.75515747070312 193.61497497558594 116.99800109863281 202.29209899902344 122.70211029052734 192.28211975097656" stroke-width="3.0" fill="none" stroke="rgb(0, 0, 0)" stroke-opacity="1.0" stroke-linecap="round" stroke-linejoin="round"/>
    <path d="M 144.63743591308594 55.51938247680664 C 204.44436645507812 100.50044250488281 194.91847229003906 137.1513214111328 179.86285400390625 154.3211212158203" stroke-width="3.0" fill="none" stroke="rgb(0, 0, 0)" stroke-opacity="1.0" stroke-linecap="round" stroke-linejoin="round"/>
    <path d="M 94.12796783447266 183.8786163330078 C 60.679420471191406 177.84617614746094 71.19091033935547 185.55294799804688 65.07772827148438 179.86744689941406" stroke-width="3.0" fill="none" stroke="rgb(0, 0, 0)" stroke-opacity="1.0" stroke-linecap="round" stroke-linejoin="round"/>
    <path d="M 119.99217987060547 119.05565643310547 C 100.5718002319336 165.84213256835938 54.38594055175781 115.35818481445312 80.13287353515625 78.18443298339844" stroke-width="3.0" fill="none" stroke="rgb(0, 0, 0)" stroke-opacity="1.0" stroke-linecap="round" stroke-linejoin="round"/>
    <path d="M 52.81154251098633 149.97552490234375 C 46.05366516113281 146.46624755859375 42.08663558959961 138.0177001953125 47.70296859741211 146.25389099121094" stroke-width="3.0" fill="none" stroke="rgb(0, 0, 0)" stroke-opacity="1.0" stroke-linecap="round" stroke-linejoin="round"/>
    <path d="M 93.97116088867188 183.4925994873047 C 99.06116485595703 200.18870544433594 166.56651306152344 193.58750915527344 99.87034606933594 192.49127197265625" stroke-width="3.0" fill="none" stroke="rgb(0, 0, 0)" stroke-opacity="1.0" stroke-linecap="round" stroke-linejoin="round"/>
    <path d="M 65.16548919677734 39.607444763183594 C 102.95633697509766 50.24214172363281 66.43121337890625 17.41676902770996 141.91305541992188 40.864662170410156" stroke-width="3.0" fill="none" stroke="rgb(0, 0, 0)" stroke-opacity="1.0" stroke-linecap="round" stroke-linejoin="round"/>
    <path d="M 101.05474090576172 29.16322898864746 C 133.14324951171875 52.883609771728516 84.46293640136719 32.34159851074219 152.2841339111328 60.501155853271484" stroke-width="3.0" fill="none" stroke="rgb(0, 0, 0)" stroke-opacity="1.0" stroke-linecap="round" stroke-linejoin="round"/>
    <path d="M 126.32548522949219 36.717105865478516 C 165.40721130371094 56.433841705322266 152.7720947265625 37.72189712524414 177.91384887695312 80.71851348876953" stroke-width="3.0" fill="none" stroke="rgb(0, 0, 0)" stroke-opacity="1.0" stroke-linecap="round" stroke-linejoin="round"/>
    <path d="M 64.5567626953125 178.16387939453125 C 61.00342559814453 169.23207092285156 44.3372688293457 180.59130859375 34.21662902832031 136.5376739501953" stroke-width="3.0" fill="none" stroke="rgb(0, 0, 0)" stroke-opacity="1.0" stroke-linecap="round" stroke-linejoin="round"/>
    <path d="M 82.17449951171875 169.9647674560547 C 130.9853973388672 158.76040649414062 102.43456268310547 158.6161346435547 125.24940490722656 157.41519165039062" stroke-width="3.0" fill="none" stroke="rgb(0, 0, 0)" stroke-opacity="1.0" stroke-linecap="round" stroke-linejoin="round"/>
    <path d="M 147.25927734375 172.0177001953125 C 171.95291137695312 155.62998962402344 150.5904998779297 184.39639282226562 138.48284912109375 176.6085662841797" stroke-width="3.0" fill="none" stroke="rgb(0, 0, 0)" stroke-opacity="1.0" stroke-linecap="round" stroke-linejoin="round"/>
    <path d="M 162.9375762939453 163.16842651367188 C 122.16140747070312 178.8845672607422 139.51463317871094 188.0699462890625 95.34510040283203 184.3739471435547" stroke-width="3.0" fill="none" stroke="rgb(0, 0, 0)" stroke-opacity="1.0" stroke-linecap="round" stroke-linejoin="round"/>
    <path d="M 48.517574310302734 146.69677734375 C 61.01969909667969 154.2635955810547 57.084774017333984 167.1827850341797 94.33393859863281 165.41795349121094" stroke-width="3.0" fill="none" stroke="rgb(0, 0, 0)" stroke-opacity="1.0" stroke-linecap="round" stroke-linejoin="round"/>
    <path d="M 33.930110931396484 135.0833740234375 C 32.67768478393555 66.56319427490234 19.625272750854492 109.53778076171875 35.192623138427734 63.383358001708984" stroke-width="3.0" fill="none" stroke="rgb(0, 0, 0)" stroke-opacity="1.0" stroke-linecap="round" stroke-linejoin="round"/>
    <path d="M 83.93904113769531 165.9628143310547 C 109.68075561523438 164.88897705078125 126.45108032226562 160.62806701660156 150.69212341308594 139.52867126464844" stroke-width="3.0" fill="none" stroke="rgb(0, 0, 0)" stroke-opacity="1.0" stroke-linecap="round" stroke-linejoin="round"/>
    <path d="M 33.233699798583984 69.71675872802734 C 40.673194885253906 41.07411575317383 64.01175689697266 47.42718505859375 63.513370513916016 39.52589416503906" stroke-width="3.0" fill="none" stroke="rgb(0, 0, 0)" stroke-opacity="1.0" stroke-linecap="round" stroke-linejoin="round"/>
    <path d="M 188.58489990234375 126.43729400634766 C 196.04180908203125 97.32951354980469 185.9502410888672 117.54486846923828 187.30758666992188 93.88751220703125" stroke-width="3.0" fill="none" stroke="rgb(0, 0, 0)" stroke-opacity="1.0" stroke-linecap="round" stroke-linejoin="round"/>
    <path d="M 61.83257293701172 59.31722640991211 C 79.00625610351562 36.69404983520508 97.53496551513672 48.06005859375 130.61643981933594 50.42158126831055" stroke-width="3.0" fill="none" stroke="rgb(0, 0, 0)" stroke-opacity="1.0" stroke-linecap="round" stroke-linejoin="round"/>
    <path d="M 129.87069702148438 193.66827392578125 C 152.9402618408203 191.01263427734375 164.01121520996094 196.4591522216797 176.84352111816406 162.19459533691406" stroke-width="3.0" fill="none" stroke="rgb(0, 0, 0)" stroke-opacity="1.0" stroke-linecap="round" stroke-linejoin="round"/>
    <path d="M 113.21421813964844 116.30757141113281 C 85.26555633544922 53.54881286621094 59.6559944152832 122.22351837158203 106.11846160888672 134.63479614257812" stroke-width="3.0" fill="none" stroke="rgb(0, 0, 0)" stroke-opacity="1.0" stroke-linecap="round" stroke-linejoin="round"/>
    <path d="M 121.06710815429688 82.15562438964844 C 59.030357360839844 78.42686462402344 97.51356506347656 99.42501068115234 90.39798736572266 125.58599853515625" stroke-width="3.0" fill="none" stroke="rgb(0, 0, 0)" stroke-opacity="1.0" stroke-linecap="round" stroke-linejoin="round"/>
    <path d="M 62.0622444152832 54.658267974853516 C 56.82921600341797 70.93709564208984 51.801109313964844 60.57426071166992 59.62307357788086 96.56572723388672" stroke-width="3.0" fill="none" stroke="rgb(0, 0, 0)" stroke-opacity="1.0" stroke-linecap="round" stroke-linejoin="round"/>
    <path d="M 162.734619140625 167.71331787109375 C 124.2687759399414 174.1526641845703 155.27125549316406 177.4182586669922 175.70281982421875 106.09684753417969" stroke-width="3.0" fill="none" stroke="rgb(0, 0, 0)" stroke-opacity="1.0" stroke-linecap="round" stroke-linejoin="round"/>
  </g>
</svg>
