<?xml version="1.0" ?>
<svg xmlns="http://www.w3.org/2000/svg" version="1.1" width="224" height="224">
  <defs/>
  <g>
    <path d="M 70.01873016357422 100.97413635253906 C 66.32249450683594 120.24726104736328 53.304931640625 136.92967224121094 74.0391845703125 143.97715759277344" stroke-width="3.0" fill="none" stroke="rgb(0, 0, 0)" stroke-opacity="1.0" stroke-linecap="round" stroke-linejoin="round"/>
    <path d="M 161.66650390625 174.14195251464844 C 183.75364685058594 156.3573455810547 179.50607299804688 131.41114807128906 175.90499877929688 165.47689819335938" stroke-width="3.0" fill="none" stroke="rgb(0, 0, 0)" stroke-opacity="1.0" stroke-linecap="round" stroke-linejoin="round"/>
    <path d="M 89.33428192138672 133.30499267578125 C 105.66044616699219 154.566650390625 89.2225570678711 144.70176696777344 111.37224578857422 148.09954833984375" stroke-width="3.0" fill="none" stroke="rgb(0, 0, 0)" stroke-opacity="1.0" stroke-linecap="round" stroke-linejoin="round"/>
    <path d="M 147.64173889160156 92.6216812133789 C 145.34100341796875 125.68704223632812 148.6339874267578 128.4689483642578 123.95226287841797 141.07464599609375" stroke-width="3.0" fill="none" stroke="rgb(0, 0, 0)" stroke-opacity="1.0" stroke-linecap="round" stroke-linejoin="round"/>
    <path d="M 166.10462951660156 59.57255554199219 C 202.61727905273438 88.42589569091797 183.73268127441406 82.08671569824219 190.1570281982422 111.35481262207031" stroke-width="3.0" fill="none" stroke="rgb(0, 0, 0)" stroke-opacity="1.0" stroke-linecap="round" stroke-linejoin="round"/>
    <path d="M 148.12210083007812 107.20699310302734 C 154.8666534423828 120.6913833618164 149.5922393798828 130.73561096191406 134.90255737304688 151.63807678222656" stroke-width="3.0" fill="none" stroke="rgb(0, 0, 0)" stroke-opacity="1.0" stroke-linecap="round" stroke-linejoin="round"/>
    <path d="M 40.51115417480469 110.48511505126953 C 30.513561248779297 99.1460189819336 42.674198150634766 116.12665557861328 39.86213684082031 110.5896224975586" stroke-width="3.0" fill="none" stroke="rgb(0, 0, 0)" stroke-opacity="1.0" stroke-linecap="round" stroke-linejoin="round"/>
    <path d="M 157.52590942382812 170.41680908203125 C 178.77444458007812 157.8651580810547 182.5252685546875 168.30068969726562 154.45761108398438 166.7585906982422" stroke-width="3.0" fill="none" stroke="rgb(0, 0, 0)" stroke-opacity="1.0" stroke-linecap="round" stroke-linejoin="round"/>
    <path d="M 99.56619262695312 186.6049041748047 C 95.8465576171875 178.5858917236328 101.54340362548828 193.8357391357422 101.33229064941406 186.12115478515625" stroke-width="3.0" fill="none" stroke="rgb(0, 0, 0)" stroke-opacity="1.0" stroke-linecap="round" stroke-linejoin="round"/>
    <path d="M 124.28378295898438 61.543521881103516 C 163.11415100097656 85.12687683105469 147.0657501220703 91.66582489013672 169.42581176757812 133.10525512695312" stroke-width="3.0" fill="none" stroke="rgb(0, 0, 0)" stroke-opacity="1.0" stroke-linecap="round" stroke-linejoin="round"/>
    <path d="M 87.19644165039062 179.40765380859375 C 70.66504669189453 175.14466857910156 54.957298278808594 183.7410430908203 68.68976593017578 169.4351806640625" stroke-width="3.0" fill="none" stroke="rgb(0, 0, 0)" stroke-opacity="1.0" stroke-linecap="round" stroke-linejoin="round"/>
    <path d="M 93.5650863647461 144.16815185546875 C 75.08782958984375 127.29584503173828 65.2603759765625 116.52911376953125 81.38468170166016 85.53787994384766" stroke-width="3.0" fill="none" stroke="rgb(0, 0, 0)" stroke-opacity="1.0" stroke-linecap="round" stroke-linejoin="round"/>
    <path d="M 43.167694091796875 156.4938201904297 C 32.5192756652832 146.75286865234375 33.56964111328125 137.36044311523438 40.344215393066406 156.00006103515625" stroke-width="3.0" fill="none" stroke="rgb(0, 0, 0)" stroke-opacity="1.0" stroke-linecap="round" stroke-linejoin="round"/>
    <path d="M 80.00006103515625 173.69723510742188 C 95.02825164794922 188.75869750976562 121.29670715332031 183.33706665039062 103.17222595214844 188.65350341796875" stroke-width="3.0" fill="none" stroke="rgb(0, 0, 0)" stroke-opacity="1.0" stroke-linecap="round" stroke-linejoin="round"/>
    <path d="M 68.00668334960938 43.430458068847656 C 103.6809310913086 31.467731475830078 98.03839111328125 23.31451988220215 136.5450439453125 42.91377639770508" stroke-width="3.0" fill="none" stroke="rgb(0, 0, 0)" stroke-opacity="1.0" stroke-linecap="round" stroke-linejoin="round"/>
    <path d="M 79.29185485839844 57.6524658203125 C 105.0810317993164 57.389678955078125 96.70962524414062 53.728389739990234 123.46344757080078 60.34451675415039" stroke-width="3.0" fill="none" stroke="rgb(0, 0, 0)" stroke-opacity="1.0" stroke-linecap="round" stroke-linejoin="round"/>
    <path d="M 135.12184143066406 41.96335220336914 C 133.7772674560547 44.217254638671875 158.08560180664062 31.458261489868164 172.60617065429688 79.02396392822266" stroke-width="3.0" fill="none" stroke="rgb(0, 0, 0)" stroke-opacity="1.0" stroke-linecap="round" stroke-linejoin="round"/>
    <path d="M 64.02556610107422 175.46343994140625 C 53.27794647216797 159.69757080078125 55.061981201171875 173.10244750976562 43.98124313354492 154.86473083496094" stroke-width="3.0" fill="none" stroke="rgb(0, 0, 0)" stroke-opacity="1.0" stroke-linecap="round" stroke-linejoin="round"/>
    <path d="M 92.14183044433594 161.62176513671875 C 91.01201629638672 164.6682891845703 75.32650756835938 162.62081909179688 100.89199829101562 160.87440490722656" stroke-width="3.0" fill="none" stroke="rgb(0, 0, 0)" stroke-opacity="1.0" stroke-linecap="round" stroke-linejoin="round"/>
    <path d="M 162.48533630371094 167.3962860107422 C 183.350830078125 160.11378479003906 145.92996215820312 180.3727569580078 159.3419952392578 166.3291778564453" stroke-width="3.0" fill="none" stroke="rgb(0, 0, 0)" stroke-opacity="1.0" stroke-linecap="round" stroke-linejoin="round"/>
    <path d="M 137.4111328125 188.83200073242188 C 106.42876434326172 186.71066284179688 134.6318817138672 191.9032745361328 99.70504760742188 186.06712341308594" stroke-width="3.0" fill="none" stroke="rgb(0, 0, 0)" stroke-opacity="1.0" stroke-linecap="round" stroke-linejoin="round"/>
    <path d="M 68.56364440917969 169.14779663085938 C 57.8231315612793 166.11167907714844 59.26350402832031 176.3870391845703 84.53824615478516 164.4495849609375" stroke-width="3.0" fill="none" stroke="rgb(0, 0, 0)" stroke-opacity="1.0" stroke-linecap="round" stroke-linejoin="round"/>
    <path d="M 39.64229202270508 130.07627868652344 C 37.68999099731445 89.24573516845703 19.774105072021484 88.08053588867188 42.78996658325195 77.39073944091797" stroke-width="3.0" fill="none" stroke="rgb(0, 0, 0)" stroke-opacity="1.0" stroke-linecap="round" stroke-linejoin="round"/>
    <path d="M 102.48987579345703 160.53280639648438 C 111.50794982910156 158.0349578857422 114.503173828125 153.4581756591797 111.02777099609375 155.77432250976562" stroke-width="3.0" fill="none" stroke="rgb(0, 0, 0)" stroke-opacity="1.0" stroke-linecap="round" stroke-linejoin="round"/>
    <path d="M 41.729042053222656 78.49945068359375 C 36.65850067138672 37.49846649169922 47.21488571166992 58.052101135253906 71.74671936035156 41.19563293457031" stroke-width="3.0" fill="none" stroke="rgb(0, 0, 0)" stroke-opacity="1.0" stroke-linecap="round" stroke-linejoin="round"/>
    <path d="M 187.7333984375 124.90174865722656 C 185.9629364013672 142.690673828125 170.44261169433594 155.32276916503906 175.1678924560547 155.27447509765625" stroke-width="3.0" fill="none" stroke="rgb(0, 0, 0)" stroke-opacity="1.0" stroke-linecap="round" stroke-linejoin="round"/>
    <path d="M 62.65930938720703 57.12845993041992 C 64.3520736694336 61.556304931640625 69.12830352783203 55.4679069519043 78.5750961303711 58.04252243041992" stroke-width="3.0" fill="none" stroke="rgb(0, 0, 0)" stroke-opacity="1.0" stroke-linecap="round" stroke-linejoin="round"/>
    <path d="M 137.39895629882812 188.76438903808594 C 160.41937255859375 185.7849578857422 152.0964813232422 190.39825439453125 163.0165252685547 178.1771240234375" stroke-width="3.0" fill="none" stroke="rgb(0, 0, 0)" stroke-opacity="1.0" stroke-linecap="round" stroke-linejoin="round"/>
    <path d="M 94.13331604003906 125.66621398925781 C 100.37399291992188 111.06086730957031 78.33904266357422 100.36458587646484 100.7538070678711 134.22439575195312" stroke-width="3.0" fill="none" stroke="rgb(0, 0, 0)" stroke-opacity="1.0" stroke-linecap="round" stroke-linejoin="round"/>
    <path d="M 108.30621337890625 93.5603256225586 C 74.27774047851562 91.36683654785156 91.25537109375 108.97509765625 89.24667358398438 131.695556640625" stroke-width="3.0" fill="none" stroke="rgb(0, 0, 0)" stroke-opacity="1.0" stroke-linecap="round" stroke-linejoin="round"/>
    <path d="M 64.3834457397461 58.38392639160156 C 53.36932373046875 63.81704330444336 50.68162536621094 73.52108764648438 49.2282829284668 77.3448257446289" stroke-width="3.0" fill="none" stroke="rgb(0, 0, 0)" stroke-opacity="1.0" stroke-linecap="round" stroke-linejoin="round"/>
    <path d="M 142.21926879882812 165.29762268066406 C 127.56778717041016 161.7417449951172 125.98637390136719 140.3941192626953 112.06261444091797 146.30467224121094" stroke-width="3.0" fill="none" stroke="rgb(0, 0, 0)" stroke-opacity="1.0" stroke-linecap="round" stroke-linejoin="round"/>
  </g>
</svg>
