<?xml version="1.0" ?>
<svg xmlns="http://www.w3.org/2000/svg" version="1.1" width="224" height="224">
  <defs/>
  <g>
    <path d="M 58.11846160888672 93.19068145751953 C 77.77786254882812 128.83677673339844 46.463714599609375 157.96194458007812 115.94901275634766 152.7495574951172" stroke-width="3.0" fill="none" stroke="rgb(0, 0, 0)" stroke-opacity="1.0" stroke-linecap="round" stroke-linejoin="round"/>
    <path d="M 136.1989288330078 172.66981506347656 C 180.3275909423828 167.82334899902344 170.6905517578125 160.57968139648438 124.16378021240234 182.572509765625" stroke-width="3.0" fill="none" stroke="rgb(0, 0, 0)" stroke-opacity="1.0" stroke-linecap="round" stroke-linejoin="round"/>
    <path d="M 76.84333038330078 131.7671356201172 C 107.5827407836914 183.53482055664062 116.5174331665039 135.2542724609375 125.61940002441406 127.563720703125" stroke-width="3.0" fill="none" stroke="rgb(0, 0, 0)" stroke-opacity="1.0" stroke-linecap="round" stroke-linejoin="round"/>
    <path d="M 112.83528137207031 62.386566162109375 C 166.9883270263672 83.22306060791016 151.8596954345703 140.2613525390625 122.63249969482422 150.8431396484375" stroke-width="3.0" fill="none" stroke="rgb(0, 0, 0)" stroke-opacity="1.0" stroke-linecap="round" stroke-linejoin="round"/>
    <path d="M 168.72195434570312 60.07011032104492 C 202.57298278808594 79.30107116699219 182.30712890625 81.27318572998047 190.7101287841797 114.6368179321289" stroke-width="3.0" fill="none" stroke="rgb(0, 0, 0)" stroke-opacity="1.0" stroke-linecap="round" stroke-linejoin="round"/>
    <path d="M 165.96241760253906 68.59163665771484 C 186.76686096191406 97.21611022949219 158.02105712890625 107.54998016357422 153.95205688476562 134.64108276367188" stroke-width="3.0" fill="none" stroke="rgb(0, 0, 0)" stroke-opacity="1.0" stroke-linecap="round" stroke-linejoin="round"/>
    <path d="M 42.99258041381836 142.9509735107422 C 29.617036819458008 99.30315399169922 33.12815856933594 138.3332977294922 42.13284683227539 159.03041076660156" stroke-width="3.0" fill="none" stroke="rgb(0, 0, 0)" stroke-opacity="1.0" stroke-linecap="round" stroke-linejoin="round"/>
    <path d="M 156.85313415527344 169.12725830078125 C 193.7088623046875 158.4949951171875 184.06918334960938 149.76300048828125 161.9829559326172 168.59564208984375" stroke-width="3.0" fill="none" stroke="rgb(0, 0, 0)" stroke-opacity="1.0" stroke-linecap="round" stroke-linejoin="round"/>
    <path d="M 143.7284393310547 197.8899688720703 C 102.72095489501953 191.3739013671875 120.05479431152344 201.79344177246094 119.8365707397461 197.00025939941406" stroke-width="3.0" fill="none" stroke="rgb(0, 0, 0)" stroke-opacity="1.0" stroke-linecap="round" stroke-linejoin="round"/>
    <path d="M 146.1402587890625 57.09990310668945 C 206.53102111816406 94.66295623779297 192.75518798828125 131.3710174560547 180.84320068359375 160.04525756835938" stroke-width="3.0" fill="none" stroke="rgb(0, 0, 0)" stroke-opacity="1.0" stroke-linecap="round" stroke-linejoin="round"/>
    <path d="M 95.56041717529297 181.65213012695312 C 60.63520431518555 178.6068115234375 84.2093505859375 178.52679443359375 66.71235656738281 180.29733276367188" stroke-width="3.0" fill="none" stroke="rgb(0, 0, 0)" stroke-opacity="1.0" stroke-linecap="round" stroke-linejoin="round"/>
    <path d="M 115.42768859863281 116.53985595703125 C 106.94984436035156 170.48965454101562 43.226688385009766 110.50581359863281 82.390380859375 75.7706069946289" stroke-width="3.0" fill="none" stroke="rgb(0, 0, 0)" stroke-opacity="1.0" stroke-linecap="round" stroke-linejoin="round"/>
    <path d="M 50.56462860107422 151.924072265625 C 47.03681945800781 146.58750915527344 40.666297912597656 137.4599151611328 49.169620513916016 150.51263427734375" stroke-width="3.0" fill="none" stroke="rgb(0, 0, 0)" stroke-opacity="1.0" stroke-linecap="round" stroke-linejoin="round"/>
    <path d="M 92.90594482421875 182.5891876220703 C 99.77235412597656 194.3001708984375 151.16217041015625 203.9507293701172 101.87812042236328 192.5597686767578" stroke-width="3.0" fill="none" stroke="rgb(0, 0, 0)" stroke-opacity="1.0" stroke-linecap="round" stroke-linejoin="round"/>
    <path d="M 68.84041595458984 40.456851959228516 C 104.12770080566406 53.487911224365234 65.69610595703125 19.241329193115234 141.59596252441406 39.733489990234375" stroke-width="3.0" fill="none" stroke="rgb(0, 0, 0)" stroke-opacity="1.0" stroke-linecap="round" stroke-linejoin="round"/>
    <path d="M 99.46292114257812 30.529020309448242 C 136.05807495117188 50.58570861816406 83.46415710449219 34.49123001098633 157.3765869140625 62.99002456665039" stroke-width="3.0" fill="none" stroke="rgb(0, 0, 0)" stroke-opacity="1.0" stroke-linecap="round" stroke-linejoin="round"/>
    <path d="M 138.99069213867188 40.65513229370117 C 161.4337921142578 55.05539321899414 153.1890411376953 37.371360778808594 177.92726135253906 81.28346252441406" stroke-width="3.0" fill="none" stroke="rgb(0, 0, 0)" stroke-opacity="1.0" stroke-linecap="round" stroke-linejoin="round"/>
    <path d="M 64.35420989990234 179.52818298339844 C 63.260520935058594 167.12010192871094 35.50422668457031 183.89869689941406 32.3673210144043 110.01773834228516" stroke-width="3.0" fill="none" stroke="rgb(0, 0, 0)" stroke-opacity="1.0" stroke-linecap="round" stroke-linejoin="round"/>
    <path d="M 82.67156219482422 165.924560546875 C 125.37763977050781 165.1029052734375 101.60762786865234 161.17282104492188 125.6439208984375 156.1841278076172" stroke-width="3.0" fill="none" stroke="rgb(0, 0, 0)" stroke-opacity="1.0" stroke-linecap="round" stroke-linejoin="round"/>
    <path d="M 138.35675048828125 170.7729034423828 C 157.0394287109375 154.3437957763672 144.8267364501953 177.29385375976562 134.07406616210938 174.7274627685547" stroke-width="3.0" fill="none" stroke="rgb(0, 0, 0)" stroke-opacity="1.0" stroke-linecap="round" stroke-linejoin="round"/>
    <path d="M 161.0703125 167.72267150878906 C 125.40624237060547 160.19583129882812 140.8238067626953 189.6081085205078 99.5973129272461 182.64614868164062" stroke-width="3.0" fill="none" stroke="rgb(0, 0, 0)" stroke-opacity="1.0" stroke-linecap="round" stroke-linejoin="round"/>
    <path d="M 50.53093338012695 150.2106170654297 C 60.564632415771484 159.41323852539062 63.26393127441406 172.5094451904297 95.41472625732422 166.1075897216797" stroke-width="3.0" fill="none" stroke="rgb(0, 0, 0)" stroke-opacity="1.0" stroke-linecap="round" stroke-linejoin="round"/>
    <path d="M 36.0399284362793 141.0562744140625 C 29.2027645111084 60.48552703857422 24.930917739868164 110.97413635253906 32.07893371582031 69.46868896484375" stroke-width="3.0" fill="none" stroke="rgb(0, 0, 0)" stroke-opacity="1.0" stroke-linecap="round" stroke-linejoin="round"/>
    <path d="M 87.53741455078125 168.55006408691406 C 109.43624877929688 164.63772583007812 125.00959777832031 161.60696411132812 153.19822692871094 136.34271240234375" stroke-width="3.0" fill="none" stroke="rgb(0, 0, 0)" stroke-opacity="1.0" stroke-linecap="round" stroke-linejoin="round"/>
    <path d="M 33.011985778808594 68.34883117675781 C 56.376190185546875 24.379968643188477 62.70451736450195 51.02070617675781 69.15808868408203 42.48100662231445" stroke-width="3.0" fill="none" stroke="rgb(0, 0, 0)" stroke-opacity="1.0" stroke-linecap="round" stroke-linejoin="round"/>
    <path d="M 188.65504455566406 142.07406616210938 C 195.93768310546875 96.0309066772461 184.5550537109375 128.64846801757812 188.95460510253906 90.64718627929688" stroke-width="3.0" fill="none" stroke="rgb(0, 0, 0)" stroke-opacity="1.0" stroke-linecap="round" stroke-linejoin="round"/>
    <path d="M 66.49083709716797 60.67976760864258 C 75.59403991699219 35.19895553588867 106.78761291503906 51.8722038269043 132.82785034179688 54.244964599609375" stroke-width="3.0" fill="none" stroke="rgb(0, 0, 0)" stroke-opacity="1.0" stroke-linecap="round" stroke-linejoin="round"/>
    <path d="M 132.2522735595703 195.5372314453125 C 145.37020874023438 200.5941162109375 166.12030029296875 189.53204345703125 169.64601135253906 164.27557373046875" stroke-width="3.0" fill="none" stroke="rgb(0, 0, 0)" stroke-opacity="1.0" stroke-linecap="round" stroke-linejoin="round"/>
    <path d="M 125.90010833740234 120.42163848876953 C 90.19320678710938 38.245933532714844 56.75983428955078 117.12995910644531 106.364501953125 134.86334228515625" stroke-width="3.0" fill="none" stroke="rgb(0, 0, 0)" stroke-opacity="1.0" stroke-linecap="round" stroke-linejoin="round"/>
    <path d="M 133.27609252929688 83.35151672363281 C 55.589996337890625 57.610748291015625 103.91638946533203 102.52934265136719 98.9513931274414 122.6467514038086" stroke-width="3.0" fill="none" stroke="rgb(0, 0, 0)" stroke-opacity="1.0" stroke-linecap="round" stroke-linejoin="round"/>
    <path d="M 66.27251434326172 60.66729736328125 C 63.91950607299805 71.64894104003906 60.183441162109375 64.40113830566406 63.42375564575195 90.44204711914062" stroke-width="3.0" fill="none" stroke="rgb(0, 0, 0)" stroke-opacity="1.0" stroke-linecap="round" stroke-linejoin="round"/>
    <path d="M 159.61093139648438 167.13394165039062 C 112.68788146972656 173.1093292236328 155.6326141357422 173.73782348632812 177.4581298828125 97.23710632324219" stroke-width="3.0" fill="none" stroke="rgb(0, 0, 0)" stroke-opacity="1.0" stroke-linecap="round" stroke-linejoin="round"/>
  </g>
</svg>
