<?xml version="1.0" ?>
<svg xmlns="http://www.w3.org/2000/svg" version="1.1" width="224" height="224">
  <defs/>
  <g>
    <path d="M 68.04425811767578 94.18480682373047 C 74.80648040771484 124.24072265625 50.81992721557617 149.1380157470703 106.39283752441406 147.44805908203125" stroke-width="3.0" fill="none" stroke="rgb(0, 0, 0)" stroke-opacity="1.0" stroke-linecap="round" stroke-linejoin="round"/>
    <path d="M 157.41311645507812 175.20176696777344 C 188.0923614501953 148.57485961914062 185.7541046142578 149.99021911621094 170.2982635498047 163.70782470703125" stroke-width="3.0" fill="none" stroke="rgb(0, 0, 0)" stroke-opacity="1.0" stroke-linecap="round" stroke-linejoin="round"/>
    <path d="M 89.89010620117188 132.43170166015625 C 114.54900360107422 156.337646484375 114.70612335205078 137.32620239257812 120.0196304321289 139.5283203125" stroke-width="3.0" fill="none" stroke="rgb(0, 0, 0)" stroke-opacity="1.0" stroke-linecap="round" stroke-linejoin="round"/>
    <path d="M 117.86512756347656 60.45590591430664 C 173.08425903320312 93.19934844970703 152.5990753173828 134.75099182128906 115.37727355957031 142.16001892089844" stroke-width="3.0" fill="none" stroke="rgb(0, 0, 0)" stroke-opacity="1.0" stroke-linecap="round" stroke-linejoin="round"/>
    <path d="M 169.83689880371094 60.75471878051758 C 204.0159149169922 85.05326843261719 185.45458984375 82.86459350585938 184.3094482421875 111.47038269042969" stroke-width="3.0" fill="none" stroke="rgb(0, 0, 0)" stroke-opacity="1.0" stroke-linecap="round" stroke-linejoin="round"/>
    <path d="M 160.61337280273438 75.7843246459961 C 178.46697998046875 74.13011169433594 172.19346618652344 141.1397247314453 150.88388061523438 163.2541046142578" stroke-width="3.0" fill="none" stroke="rgb(0, 0, 0)" stroke-opacity="1.0" stroke-linecap="round" stroke-linejoin="round"/>
    <path d="M 41.20863723754883 129.2213592529297 C 26.807212829589844 101.47232055664062 43.725460052490234 122.97227478027344 40.155113220214844 142.2726593017578" stroke-width="3.0" fill="none" stroke="rgb(0, 0, 0)" stroke-opacity="1.0" stroke-linecap="round" stroke-linejoin="round"/>
    <path d="M 163.30276489257812 166.10812377929688 C 193.94654846191406 156.6302947998047 186.7186737060547 152.37757873535156 156.81488037109375 173.9058837890625" stroke-width="3.0" fill="none" stroke="rgb(0, 0, 0)" stroke-opacity="1.0" stroke-linecap="round" stroke-linejoin="round"/>
    <path d="M 100.12199401855469 188.92303466796875 C 86.26146697998047 185.36192321777344 104.91575622558594 193.1606903076172 118.69769287109375 186.8303680419922" stroke-width="3.0" fill="none" stroke="rgb(0, 0, 0)" stroke-opacity="1.0" stroke-linecap="round" stroke-linejoin="round"/>
    <path d="M 129.3579559326172 54.352821350097656 C 191.4638671875 90.75872039794922 165.67137145996094 75.032470703125 185.20469665527344 132.93382263183594" stroke-width="3.0" fill="none" stroke="rgb(0, 0, 0)" stroke-opacity="1.0" stroke-linecap="round" stroke-linejoin="round"/>
    <path d="M 87.80403137207031 178.35658264160156 C 56.346046447753906 184.239013671875 60.30720138549805 165.9646453857422 48.46035385131836 164.26275634765625" stroke-width="3.0" fill="none" stroke="rgb(0, 0, 0)" stroke-opacity="1.0" stroke-linecap="round" stroke-linejoin="round"/>
    <path d="M 108.39551544189453 145.63809204101562 C 76.62626647949219 142.9568634033203 59.36885452270508 102.51666259765625 85.60004425048828 76.93209838867188" stroke-width="3.0" fill="none" stroke="rgb(0, 0, 0)" stroke-opacity="1.0" stroke-linecap="round" stroke-linejoin="round"/>
    <path d="M 51.7961540222168 154.2240447998047 C 32.18307876586914 136.4785614013672 31.873531341552734 120.1675033569336 45.821659088134766 147.1847686767578" stroke-width="3.0" fill="none" stroke="rgb(0, 0, 0)" stroke-opacity="1.0" stroke-linecap="round" stroke-linejoin="round"/>
    <path d="M 82.1717758178711 176.10580444335938 C 96.64783477783203 192.03713989257812 137.0166015625 199.2664794921875 105.08690643310547 192.68687438964844" stroke-width="3.0" fill="none" stroke="rgb(0, 0, 0)" stroke-opacity="1.0" stroke-linecap="round" stroke-linejoin="round"/>
    <path d="M 68.61263275146484 40.469154357910156 C 120.28156280517578 35.58401107788086 82.02771759033203 13.77221393585205 134.41046142578125 43.9998664855957" stroke-width="3.0" fill="none" stroke="rgb(0, 0, 0)" stroke-opacity="1.0" stroke-linecap="round" stroke-linejoin="round"/>
    <path d="M 101.42279815673828 29.66507339477539 C 126.00504302978516 56.25886917114258 98.86078643798828 48.68675231933594 128.41909790039062 53.239967346191406" stroke-width="3.0" fill="none" stroke="rgb(0, 0, 0)" stroke-opacity="1.0" stroke-linecap="round" stroke-linejoin="round"/>
    <path d="M 137.35049438476562 41.9768180847168 C 155.59481811523438 53.15958023071289 152.40919494628906 27.51527214050293 185.20506286621094 98.89178466796875" stroke-width="3.0" fill="none" stroke="rgb(0, 0, 0)" stroke-opacity="1.0" stroke-linecap="round" stroke-linejoin="round"/>
    <path d="M 65.0468978881836 179.50515747070312 C 55.348731994628906 163.2168426513672 47.33522033691406 176.5063934326172 38.31325912475586 146.520751953125" stroke-width="3.0" fill="none" stroke="rgb(0, 0, 0)" stroke-opacity="1.0" stroke-linecap="round" stroke-linejoin="round"/>
    <path d="M 75.36262512207031 167.62437438964844 C 120.39933776855469 160.02493286132812 102.28912353515625 161.28857421875 119.2832260131836 150.5569305419922" stroke-width="3.0" fill="none" stroke="rgb(0, 0, 0)" stroke-opacity="1.0" stroke-linecap="round" stroke-linejoin="round"/>
    <path d="M 155.45729064941406 171.56898498535156 C 177.7379913330078 155.529541015625 149.62193298339844 187.3822021484375 163.4251251220703 173.82073974609375" stroke-width="3.0" fill="none" stroke="rgb(0, 0, 0)" stroke-opacity="1.0" stroke-linecap="round" stroke-linejoin="round"/>
    <path d="M 148.46205139160156 192.2188262939453 C 121.5486068725586 198.673095703125 141.0890655517578 188.5051727294922 105.80166625976562 195.10548400878906" stroke-width="3.0" fill="none" stroke="rgb(0, 0, 0)" stroke-opacity="1.0" stroke-linecap="round" stroke-linejoin="round"/>
    <path d="M 44.269432067871094 145.1460723876953 C 47.3647575378418 142.0579071044922 61.64781188964844 173.4713134765625 84.03941345214844 167.3511505126953" stroke-width="3.0" fill="none" stroke="rgb(0, 0, 0)" stroke-opacity="1.0" stroke-linecap="round" stroke-linejoin="round"/>
    <path d="M 35.15240478515625 132.96621704101562 C 34.26274108886719 72.63336944580078 22.003110885620117 104.02132415771484 33.02436065673828 75.5352554321289" stroke-width="3.0" fill="none" stroke="rgb(0, 0, 0)" stroke-opacity="1.0" stroke-linecap="round" stroke-linejoin="round"/>
    <path d="M 91.3680648803711 164.65415954589844 C 117.74800109863281 159.1508331298828 116.52698516845703 157.10125732421875 132.0754852294922 141.6334686279297" stroke-width="3.0" fill="none" stroke="rgb(0, 0, 0)" stroke-opacity="1.0" stroke-linecap="round" stroke-linejoin="round"/>
    <path d="M 32.28689193725586 83.55925750732422 C 36.68872833251953 25.245542526245117 67.98243713378906 50.40329360961914 67.62271118164062 41.486083984375" stroke-width="3.0" fill="none" stroke="rgb(0, 0, 0)" stroke-opacity="1.0" stroke-linecap="round" stroke-linejoin="round"/>
    <path d="M 185.69003295898438 111.24748992919922 C 189.75013732910156 138.09774780273438 181.54959106445312 167.5250701904297 178.8643798828125 156.2045135498047" stroke-width="3.0" fill="none" stroke="rgb(0, 0, 0)" stroke-opacity="1.0" stroke-linecap="round" stroke-linejoin="round"/>
    <path d="M 60.09497833251953 58.282562255859375 C 70.53948974609375 56.109554290771484 67.89574432373047 50.20185089111328 113.09713745117188 57.97529602050781" stroke-width="3.0" fill="none" stroke="rgb(0, 0, 0)" stroke-opacity="1.0" stroke-linecap="round" stroke-linejoin="round"/>
    <path d="M 149.58566284179688 191.58615112304688 C 168.07962036132812 175.31454467773438 157.42311096191406 194.16195678710938 169.06686401367188 164.0413360595703" stroke-width="3.0" fill="none" stroke="rgb(0, 0, 0)" stroke-opacity="1.0" stroke-linecap="round" stroke-linejoin="round"/>
    <path d="M 101.85791015625 130.23304748535156 C 91.229248046875 89.55113983154297 72.88236999511719 117.48725128173828 99.5190658569336 144.5695037841797" stroke-width="3.0" fill="none" stroke="rgb(0, 0, 0)" stroke-opacity="1.0" stroke-linecap="round" stroke-linejoin="round"/>
    <path d="M 114.5219497680664 88.30007934570312 C 70.34928131103516 87.76854705810547 89.93626403808594 103.56346130371094 89.8948745727539 129.76344299316406" stroke-width="3.0" fill="none" stroke="rgb(0, 0, 0)" stroke-opacity="1.0" stroke-linecap="round" stroke-linejoin="round"/>
    <path d="M 62.518463134765625 56.574092864990234 C 54.74894714355469 62.23011779785156 48.401405334472656 65.15434265136719 42.6180534362793 80.5360107421875" stroke-width="3.0" fill="none" stroke="rgb(0, 0, 0)" stroke-opacity="1.0" stroke-linecap="round" stroke-linejoin="round"/>
    <path d="M 157.04180908203125 175.77645874023438 C 135.27943420410156 164.15972900390625 149.20916748046875 156.08009338378906 136.2525177001953 141.295654296875" stroke-width="3.0" fill="none" stroke="rgb(0, 0, 0)" stroke-opacity="1.0" stroke-linecap="round" stroke-linejoin="round"/>
  </g>
</svg>
