<?xml version="1.0" ?>
<svg xmlns="http://www.w3.org/2000/svg" version="1.1" width="224" height="224">
  <defs/>
  <g>
    <path d="M 56.810970306396484 89.56033325195312 C 80.82272338867188 133.14108276367188 49.47134017944336 144.1570281982422 99.19474792480469 153.39556884765625" stroke-width="3.0" fill="none" stroke="rgb(0, 0, 0)" stroke-opacity="1.0" stroke-linecap="round" stroke-linejoin="round"/>
    <path d="M 155.31642150878906 177.61570739746094 C 179.60189819335938 149.531005859375 187.4696502685547 161.40585327148438 153.6814727783203 185.22169494628906" stroke-width="3.0" fill="none" stroke="rgb(0, 0, 0)" stroke-opacity="1.0" stroke-linecap="round" stroke-linejoin="round"/>
    <path d="M 78.8345947265625 135.77047729492188 C 113.33861541748047 173.2623748779297 105.64866638183594 147.88961791992188 140.68191528320312 139.2415008544922" stroke-width="3.0" fill="none" stroke="rgb(0, 0, 0)" stroke-opacity="1.0" stroke-linecap="round" stroke-linejoin="round"/>
    <path d="M 116.60720825195312 60.16447067260742 C 167.78765869140625 85.21990203857422 153.01531982421875 143.82803344726562 127.12367248535156 144.80191040039062" stroke-width="3.0" fill="none" stroke="rgb(0, 0, 0)" stroke-opacity="1.0" stroke-linecap="round" stroke-linejoin="round"/>
    <path d="M 167.37646484375 58.34696960449219 C 206.85507202148438 87.04935455322266 178.6455078125 79.06452941894531 189.88796997070312 115.02015686035156" stroke-width="3.0" fill="none" stroke="rgb(0, 0, 0)" stroke-opacity="1.0" stroke-linecap="round" stroke-linejoin="round"/>
    <path d="M 163.42633056640625 76.83270263671875 C 189.41650390625 97.58952331542969 160.6917266845703 116.70687866210938 153.3978729248047 139.73291015625" stroke-width="3.0" fill="none" stroke="rgb(0, 0, 0)" stroke-opacity="1.0" stroke-linecap="round" stroke-linejoin="round"/>
    <path d="M 46.37921142578125 142.0257110595703 C 32.268672943115234 103.16862487792969 38.12611770629883 151.784423828125 43.93000411987305 160.03250122070312" stroke-width="3.0" fill="none" stroke="rgb(0, 0, 0)" stroke-opacity="1.0" stroke-linecap="round" stroke-linejoin="round"/>
    <path d="M 159.39749145507812 174.59849548339844 C 189.36549377441406 152.4119110107422 182.93104553222656 151.6772918701172 155.9302520751953 178.25228881835938" stroke-width="3.0" fill="none" stroke="rgb(0, 0, 0)" stroke-opacity="1.0" stroke-linecap="round" stroke-linejoin="round"/>
    <path d="M 128.61502075195312 194.55763244628906 C 96.4695816040039 184.3628387451172 120.49862670898438 199.36126708984375 121.80511474609375 194.43727111816406" stroke-width="3.0" fill="none" stroke="rgb(0, 0, 0)" stroke-opacity="1.0" stroke-linecap="round" stroke-linejoin="round"/>
    <path d="M 135.38717651367188 50.896087646484375 C 203.4236297607422 108.149658203125 184.7218475341797 118.84368133544922 180.73854064941406 151.08941650390625" stroke-width="3.0" fill="none" stroke="rgb(0, 0, 0)" stroke-opacity="1.0" stroke-linecap="round" stroke-linejoin="round"/>
    <path d="M 87.16194152832031 182.1774444580078 C 61.253597259521484 179.2214813232422 72.46153259277344 183.32162475585938 65.0895767211914 178.9008026123047" stroke-width="3.0" fill="none" stroke="rgb(0, 0, 0)" stroke-opacity="1.0" stroke-linecap="round" stroke-linejoin="round"/>
    <path d="M 118.07730102539062 123.00347900390625 C 92.51310729980469 160.4358673095703 56.015316009521484 111.9411849975586 81.65445709228516 74.40545654296875" stroke-width="3.0" fill="none" stroke="rgb(0, 0, 0)" stroke-opacity="1.0" stroke-linecap="round" stroke-linejoin="round"/>
    <path d="M 46.317604064941406 146.19937133789062 C 48.62464904785156 142.82293701171875 39.9122428894043 137.37142944335938 45.760108947753906 144.51695251464844" stroke-width="3.0" fill="none" stroke="rgb(0, 0, 0)" stroke-opacity="1.0" stroke-linecap="round" stroke-linejoin="round"/>
    <path d="M 90.77149963378906 181.9203338623047 C 103.18531799316406 191.1122589111328 158.92904663085938 199.1184539794922 96.47444915771484 186.4429931640625" stroke-width="3.0" fill="none" stroke="rgb(0, 0, 0)" stroke-opacity="1.0" stroke-linecap="round" stroke-linejoin="round"/>
    <path d="M 69.27307891845703 39.27830505371094 C 99.88923645019531 52.76691436767578 71.20377349853516 16.1744384765625 143.03164672851562 45.14899826049805" stroke-width="3.0" fill="none" stroke="rgb(0, 0, 0)" stroke-opacity="1.0" stroke-linecap="round" stroke-linejoin="round"/>
    <path d="M 105.33404541015625 30.730093002319336 C 127.26358032226562 51.84090042114258 88.13233184814453 33.61323928833008 151.9008026123047 63.243751525878906" stroke-width="3.0" fill="none" stroke="rgb(0, 0, 0)" stroke-opacity="1.0" stroke-linecap="round" stroke-linejoin="round"/>
    <path d="M 129.75460815429688 38.92496871948242 C 161.35040283203125 48.62489700317383 149.3797149658203 33.91768264770508 180.440673828125 91.19499206542969" stroke-width="3.0" fill="none" stroke="rgb(0, 0, 0)" stroke-opacity="1.0" stroke-linecap="round" stroke-linejoin="round"/>
    <path d="M 64.74349212646484 177.47215270996094 C 59.37302017211914 167.24293518066406 41.04018783569336 183.04452514648438 37.22140121459961 134.90036010742188" stroke-width="3.0" fill="none" stroke="rgb(0, 0, 0)" stroke-opacity="1.0" stroke-linecap="round" stroke-linejoin="round"/>
    <path d="M 85.17218017578125 174.99180603027344 C 122.21038055419922 163.6638641357422 99.90592193603516 165.85792541503906 124.10757446289062 160.20359802246094" stroke-width="3.0" fill="none" stroke="rgb(0, 0, 0)" stroke-opacity="1.0" stroke-linecap="round" stroke-linejoin="round"/>
    <path d="M 157.74703979492188 180.64991760253906 C 175.4752655029297 151.91693115234375 141.7181396484375 175.06971740722656 157.88746643066406 185.68978881835938" stroke-width="3.0" fill="none" stroke="rgb(0, 0, 0)" stroke-opacity="1.0" stroke-linecap="round" stroke-linejoin="round"/>
    <path d="M 151.01101684570312 184.51910400390625 C 142.5583038330078 196.76931762695312 139.2413330078125 192.45338439941406 101.126220703125 189.5851287841797" stroke-width="3.0" fill="none" stroke="rgb(0, 0, 0)" stroke-opacity="1.0" stroke-linecap="round" stroke-linejoin="round"/>
    <path d="M 45.870338439941406 142.39385986328125 C 55.22897720336914 154.11724853515625 60.01357650756836 168.19210815429688 95.0500717163086 168.88841247558594" stroke-width="3.0" fill="none" stroke="rgb(0, 0, 0)" stroke-opacity="1.0" stroke-linecap="round" stroke-linejoin="round"/>
    <path d="M 37.77248764038086 133.83619689941406 C 30.972728729248047 66.5400390625 25.628116607666016 106.96700286865234 35.059715270996094 66.62457275390625" stroke-width="3.0" fill="none" stroke="rgb(0, 0, 0)" stroke-opacity="1.0" stroke-linecap="round" stroke-linejoin="round"/>
    <path d="M 84.81852722167969 170.19200134277344 C 111.10662841796875 165.36654663085938 128.52622985839844 160.91455078125 152.44371032714844 140.51547241210938" stroke-width="3.0" fill="none" stroke="rgb(0, 0, 0)" stroke-opacity="1.0" stroke-linecap="round" stroke-linejoin="round"/>
    <path d="M 36.980857849121094 71.69677734375 C 35.03391647338867 33.55466079711914 70.99890899658203 47.68194580078125 66.16995239257812 39.599090576171875" stroke-width="3.0" fill="none" stroke="rgb(0, 0, 0)" stroke-opacity="1.0" stroke-linecap="round" stroke-linejoin="round"/>
    <path d="M 186.2960205078125 127.10494232177734 C 193.1053009033203 94.73487091064453 186.91473388671875 135.83859252929688 186.6778564453125 99.20987701416016" stroke-width="3.0" fill="none" stroke="rgb(0, 0, 0)" stroke-opacity="1.0" stroke-linecap="round" stroke-linejoin="round"/>
    <path d="M 62.90918731689453 55.012290954589844 C 80.4639892578125 39.71188735961914 91.21745300292969 48.4555549621582 134.22760009765625 51.69766616821289" stroke-width="3.0" fill="none" stroke="rgb(0, 0, 0)" stroke-opacity="1.0" stroke-linecap="round" stroke-linejoin="round"/>
    <path d="M 137.4393310546875 188.62677001953125 C 169.84519958496094 177.14906311035156 149.40834045410156 196.4123992919922 174.0966033935547 163.5072479248047" stroke-width="3.0" fill="none" stroke="rgb(0, 0, 0)" stroke-opacity="1.0" stroke-linecap="round" stroke-linejoin="round"/>
    <path d="M 105.95447540283203 119.93917083740234 C 88.26475524902344 69.6996841430664 62.12783432006836 116.08656311035156 104.04426574707031 130.64950561523438" stroke-width="3.0" fill="none" stroke="rgb(0, 0, 0)" stroke-opacity="1.0" stroke-linecap="round" stroke-linejoin="round"/>
    <path d="M 117.70755004882812 83.05204772949219 C 61.730342864990234 81.30501556396484 91.59185028076172 98.39886474609375 90.44888305664062 123.30567932128906" stroke-width="3.0" fill="none" stroke="rgb(0, 0, 0)" stroke-opacity="1.0" stroke-linecap="round" stroke-linejoin="round"/>
    <path d="M 63.29450607299805 53.90561294555664 C 57.92181396484375 65.24588775634766 50.74498748779297 65.95742797851562 54.25254440307617 87.45748901367188" stroke-width="3.0" fill="none" stroke="rgb(0, 0, 0)" stroke-opacity="1.0" stroke-linecap="round" stroke-linejoin="round"/>
    <path d="M 159.89593505859375 168.33648681640625 C 130.2954559326172 171.42340087890625 157.27947998046875 188.70004272460938 172.27481079101562 112.62975311279297" stroke-width="3.0" fill="none" stroke="rgb(0, 0, 0)" stroke-opacity="1.0" stroke-linecap="round" stroke-linejoin="round"/>
  </g>
</svg>
