<?xml version="1.0" ?>
<svg xmlns="http://www.w3.org/2000/svg" version="1.1" width="224" height="224">
  <defs/>
  <g>
    <path d="M 61.27722930908203 100.91241455078125 C 73.77913665771484 127.3088607788086 52.62957763671875 135.9815216064453 94.16909790039062 150.85232543945312" stroke-width="3.0" fill="none" stroke="rgb(0, 0, 0)" stroke-opacity="1.0" stroke-linecap="round" stroke-linejoin="round"/>
    <path d="M 157.6973419189453 173.2335968017578 C 185.9576416015625 146.11000061035156 192.48373413085938 151.26512145996094 163.5472869873047 168.50225830078125" stroke-width="3.0" fill="none" stroke="rgb(0, 0, 0)" stroke-opacity="1.0" stroke-linecap="round" stroke-linejoin="round"/>
    <path d="M 80.03157043457031 138.18003845214844 C 115.91645050048828 167.86233520507812 98.0333251953125 143.74696350097656 131.60215759277344 144.987060546875" stroke-width="3.0" fill="none" stroke="rgb(0, 0, 0)" stroke-opacity="1.0" stroke-linecap="round" stroke-linejoin="round"/>
    <path d="M 116.71278381347656 58.06199264526367 C 170.12911987304688 94.21955108642578 156.2317657470703 147.4709014892578 121.69171905517578 145.32797241210938" stroke-width="3.0" fill="none" stroke="rgb(0, 0, 0)" stroke-opacity="1.0" stroke-linecap="round" stroke-linejoin="round"/>
    <path d="M 168.7960968017578 59.753021240234375 C 204.29580688476562 85.27254486083984 179.6261749267578 82.12613677978516 189.7534942626953 112.2518539428711" stroke-width="3.0" fill="none" stroke="rgb(0, 0, 0)" stroke-opacity="1.0" stroke-linecap="round" stroke-linejoin="round"/>
    <path d="M 161.89527893066406 74.26760864257812 C 187.1643524169922 76.45858764648438 170.5338592529297 136.75973510742188 148.02159118652344 144.40232849121094" stroke-width="3.0" fill="none" stroke="rgb(0, 0, 0)" stroke-opacity="1.0" stroke-linecap="round" stroke-linejoin="round"/>
    <path d="M 47.633872985839844 140.14276123046875 C 36.40455627441406 103.74488067626953 41.999027252197266 152.08468627929688 41.4155387878418 156.47637939453125" stroke-width="3.0" fill="none" stroke="rgb(0, 0, 0)" stroke-opacity="1.0" stroke-linecap="round" stroke-linejoin="round"/>
    <path d="M 148.61087036132812 168.55128479003906 C 192.71022033691406 161.68505859375 184.02981567382812 148.84300231933594 155.8995819091797 172.33688354492188" stroke-width="3.0" fill="none" stroke="rgb(0, 0, 0)" stroke-opacity="1.0" stroke-linecap="round" stroke-linejoin="round"/>
    <path d="M 126.024169921875 194.0173797607422 C 94.59565734863281 189.477783203125 110.11650085449219 200.85147094726562 115.2033920288086 192.81185913085938" stroke-width="3.0" fill="none" stroke="rgb(0, 0, 0)" stroke-opacity="1.0" stroke-linecap="round" stroke-linejoin="round"/>
    <path d="M 129.85702514648438 47.95050048828125 C 205.69256591796875 97.31741333007812 177.3579864501953 116.85604095458984 185.6173095703125 138.92947387695312" stroke-width="3.0" fill="none" stroke="rgb(0, 0, 0)" stroke-opacity="1.0" stroke-linecap="round" stroke-linejoin="round"/>
    <path d="M 93.78400421142578 182.09739685058594 C 50.81376647949219 177.51205444335938 69.54915618896484 182.07369995117188 61.126678466796875 174.64364624023438" stroke-width="3.0" fill="none" stroke="rgb(0, 0, 0)" stroke-opacity="1.0" stroke-linecap="round" stroke-linejoin="round"/>
    <path d="M 115.59053039550781 134.34410095214844 C 77.62737274169922 148.73292541503906 55.180999755859375 112.69277954101562 82.1277084350586 77.5090103149414" stroke-width="3.0" fill="none" stroke="rgb(0, 0, 0)" stroke-opacity="1.0" stroke-linecap="round" stroke-linejoin="round"/>
    <path d="M 52.05485153198242 147.95655822753906 C 52.206085205078125 142.60218811035156 38.36960220336914 130.30165100097656 47.58454895019531 142.0750732421875" stroke-width="3.0" fill="none" stroke="rgb(0, 0, 0)" stroke-opacity="1.0" stroke-linecap="round" stroke-linejoin="round"/>
    <path d="M 93.61450958251953 181.8768310546875 C 102.29863739013672 195.33090209960938 153.447265625 201.6787872314453 96.00016021728516 186.5526123046875" stroke-width="3.0" fill="none" stroke="rgb(0, 0, 0)" stroke-opacity="1.0" stroke-linecap="round" stroke-linejoin="round"/>
    <path d="M 65.95619201660156 38.25888442993164 C 98.83550262451172 53.42619323730469 71.47345733642578 15.688420295715332 142.25144958496094 43.28376388549805" stroke-width="3.0" fill="none" stroke="rgb(0, 0, 0)" stroke-opacity="1.0" stroke-linecap="round" stroke-linejoin="round"/>
    <path d="M 101.36014556884766 29.17668914794922 C 138.4003448486328 46.84514617919922 96.16250610351562 35.742820739746094 153.01666259765625 62.14690399169922" stroke-width="3.0" fill="none" stroke="rgb(0, 0, 0)" stroke-opacity="1.0" stroke-linecap="round" stroke-linejoin="round"/>
    <path d="M 129.53353881835938 38.07107925415039 C 159.96246337890625 54.843605041503906 148.48829650878906 23.794736862182617 180.4612579345703 87.10103607177734" stroke-width="3.0" fill="none" stroke="rgb(0, 0, 0)" stroke-opacity="1.0" stroke-linecap="round" stroke-linejoin="round"/>
    <path d="M 66.44215393066406 179.2730255126953 C 55.753910064697266 165.5675048828125 42.88590621948242 179.24691772460938 39.350311279296875 134.44886779785156" stroke-width="3.0" fill="none" stroke="rgb(0, 0, 0)" stroke-opacity="1.0" stroke-linecap="round" stroke-linejoin="round"/>
    <path d="M 77.58642578125 166.69017028808594 C 118.3509521484375 165.14871215820312 104.25537872314453 164.86929321289062 128.1830291748047 157.96315002441406" stroke-width="3.0" fill="none" stroke="rgb(0, 0, 0)" stroke-opacity="1.0" stroke-linecap="round" stroke-linejoin="round"/>
    <path d="M 159.3375701904297 173.3640594482422 C 171.9986114501953 161.34165954589844 135.67091369628906 175.5860595703125 161.17469787597656 170.47471618652344" stroke-width="3.0" fill="none" stroke="rgb(0, 0, 0)" stroke-opacity="1.0" stroke-linecap="round" stroke-linejoin="round"/>
    <path d="M 150.62095642089844 188.18984985351562 C 130.97671508789062 197.0180206298828 141.6965789794922 193.1552276611328 113.58934020996094 191.2215576171875" stroke-width="3.0" fill="none" stroke="rgb(0, 0, 0)" stroke-opacity="1.0" stroke-linecap="round" stroke-linejoin="round"/>
    <path d="M 49.96502685546875 143.54103088378906 C 59.87495422363281 150.75192260742188 52.754432678222656 168.5384063720703 90.25631713867188 166.3051300048828" stroke-width="3.0" fill="none" stroke="rgb(0, 0, 0)" stroke-opacity="1.0" stroke-linecap="round" stroke-linejoin="round"/>
    <path d="M 44.94076156616211 136.27322387695312 C 28.36952781677246 66.2983627319336 28.4671630859375 109.76615142822266 35.822792053222656 66.68283081054688" stroke-width="3.0" fill="none" stroke="rgb(0, 0, 0)" stroke-opacity="1.0" stroke-linecap="round" stroke-linejoin="round"/>
    <path d="M 84.98719024658203 171.9234161376953 C 115.5094223022461 160.5446319580078 130.48863220214844 161.73226928710938 147.93487548828125 145.5448455810547" stroke-width="3.0" fill="none" stroke="rgb(0, 0, 0)" stroke-opacity="1.0" stroke-linecap="round" stroke-linejoin="round"/>
    <path d="M 37.114845275878906 76.11454772949219 C 33.241851806640625 33.660186767578125 63.90552520751953 47.44565963745117 67.56045532226562 40.27618408203125" stroke-width="3.0" fill="none" stroke="rgb(0, 0, 0)" stroke-opacity="1.0" stroke-linecap="round" stroke-linejoin="round"/>
    <path d="M 190.21176147460938 114.13164520263672 C 191.09033203125 106.98311614990234 178.2359161376953 176.9192352294922 182.09716796875 148.119384765625" stroke-width="3.0" fill="none" stroke="rgb(0, 0, 0)" stroke-opacity="1.0" stroke-linecap="round" stroke-linejoin="round"/>
    <path d="M 59.51041030883789 55.737247467041016 C 76.31959533691406 44.639122009277344 80.34017944335938 47.04366683959961 132.74496459960938 51.26080322265625" stroke-width="3.0" fill="none" stroke="rgb(0, 0, 0)" stroke-opacity="1.0" stroke-linecap="round" stroke-linejoin="round"/>
    <path d="M 149.11868286132812 190.10276794433594 C 167.22914123535156 175.24227905273438 155.20884704589844 197.69129943847656 172.1933135986328 161.78070068359375" stroke-width="3.0" fill="none" stroke="rgb(0, 0, 0)" stroke-opacity="1.0" stroke-linecap="round" stroke-linejoin="round"/>
    <path d="M 106.62149047851562 124.2921371459961 C 89.72606658935547 72.77886199951172 62.00307083129883 112.42332458496094 101.92142486572266 136.39108276367188" stroke-width="3.0" fill="none" stroke="rgb(0, 0, 0)" stroke-opacity="1.0" stroke-linecap="round" stroke-linejoin="round"/>
    <path d="M 116.70943450927734 88.91192626953125 C 63.70735549926758 78.65381622314453 91.82337188720703 104.86578369140625 90.08702087402344 126.29826354980469" stroke-width="3.0" fill="none" stroke="rgb(0, 0, 0)" stroke-opacity="1.0" stroke-linecap="round" stroke-linejoin="round"/>
    <path d="M 65.17036437988281 51.31305694580078 C 52.427772521972656 64.2546615600586 48.213958740234375 65.18982696533203 49.03608703613281 84.02407836914062" stroke-width="3.0" fill="none" stroke="rgb(0, 0, 0)" stroke-opacity="1.0" stroke-linecap="round" stroke-linejoin="round"/>
    <path d="M 160.51937866210938 173.77029418945312 C 129.46461486816406 159.91259765625 156.64151000976562 179.89471435546875 169.07681274414062 124.6632080078125" stroke-width="3.0" fill="none" stroke="rgb(0, 0, 0)" stroke-opacity="1.0" stroke-linecap="round" stroke-linejoin="round"/>
  </g>
</svg>
