<?xml version="1.0" ?>
<svg xmlns="http://www.w3.org/2000/svg" version="1.1" width="224" height="224">
  <defs/>
  <g>
    <path d="M 67.87190246582031 107.6814193725586 C 72.49139404296875 125.2801513671875 57.217594146728516 132.61105346679688 81.9786605834961 142.3111114501953" stroke-width="3.0" fill="none" stroke="rgb(0, 0, 0)" stroke-opacity="1.0" stroke-linecap="round" stroke-linejoin="round"/>
    <path d="M 162.1909637451172 175.15367126464844 C 184.0849151611328 151.39549255371094 180.28150939941406 134.26852416992188 176.4413299560547 161.2822723388672" stroke-width="3.0" fill="none" stroke="rgb(0, 0, 0)" stroke-opacity="1.0" stroke-linecap="round" stroke-linejoin="round"/>
    <path d="M 92.40013885498047 131.8592071533203 C 113.2501449584961 147.28878784179688 95.77039337158203 141.43174743652344 111.20580291748047 145.40673828125" stroke-width="3.0" fill="none" stroke="rgb(0, 0, 0)" stroke-opacity="1.0" stroke-linecap="round" stroke-linejoin="round"/>
    <path d="M 143.13624572753906 84.8934097290039 C 151.38583374023438 122.57015228271484 148.60508728027344 135.46820068359375 122.81158447265625 142.86048889160156" stroke-width="3.0" fill="none" stroke="rgb(0, 0, 0)" stroke-opacity="1.0" stroke-linecap="round" stroke-linejoin="round"/>
    <path d="M 168.4155731201172 60.1569938659668 C 202.5985565185547 89.03025817871094 182.1647491455078 81.0551528930664 190.6998748779297 116.93392944335938" stroke-width="3.0" fill="none" stroke="rgb(0, 0, 0)" stroke-opacity="1.0" stroke-linecap="round" stroke-linejoin="round"/>
    <path d="M 146.8910675048828 100.17739868164062 C 156.49720764160156 115.3943862915039 152.43008422851562 136.1990509033203 138.78823852539062 157.0120391845703" stroke-width="3.0" fill="none" stroke="rgb(0, 0, 0)" stroke-opacity="1.0" stroke-linecap="round" stroke-linejoin="round"/>
    <path d="M 36.543792724609375 116.91632080078125 C 28.701942443847656 99.08988189697266 39.73517990112305 119.07847595214844 34.98922348022461 114.491943359375" stroke-width="3.0" fill="none" stroke="rgb(0, 0, 0)" stroke-opacity="1.0" stroke-linecap="round" stroke-linejoin="round"/>
    <path d="M 160.44639587402344 172.42189025878906 C 183.40232849121094 159.2476348876953 184.67575073242188 158.49708557128906 152.55429077148438 171.55018615722656" stroke-width="3.0" fill="none" stroke="rgb(0, 0, 0)" stroke-opacity="1.0" stroke-linecap="round" stroke-linejoin="round"/>
    <path d="M 99.69009399414062 189.1077880859375 C 92.25442504882812 178.739013671875 98.81742858886719 194.06715393066406 96.87687683105469 185.94178771972656" stroke-width="3.0" fill="none" stroke="rgb(0, 0, 0)" stroke-opacity="1.0" stroke-linecap="round" stroke-linejoin="round"/>
    <path d="M 123.37995910644531 60.30719757080078 C 159.95274353027344 86.42816162109375 152.61660766601562 90.15686798095703 165.55435180664062 135.8044891357422" stroke-width="3.0" fill="none" stroke="rgb(0, 0, 0)" stroke-opacity="1.0" stroke-linecap="round" stroke-linejoin="round"/>
    <path d="M 83.26248931884766 177.2180938720703 C 71.64646911621094 174.57908630371094 51.750885009765625 179.37608337402344 71.17973327636719 165.39950561523438" stroke-width="3.0" fill="none" stroke="rgb(0, 0, 0)" stroke-opacity="1.0" stroke-linecap="round" stroke-linejoin="round"/>
    <path d="M 98.20426940917969 144.90757751464844 C 74.37995147705078 133.92062377929688 66.52777099609375 110.94386291503906 83.44287872314453 78.89554595947266" stroke-width="3.0" fill="none" stroke="rgb(0, 0, 0)" stroke-opacity="1.0" stroke-linecap="round" stroke-linejoin="round"/>
    <path d="M 46.12385559082031 155.04306030273438 C 36.57963943481445 147.67745971679688 33.49659729003906 135.33607482910156 40.043190002441406 155.20010375976562" stroke-width="3.0" fill="none" stroke="rgb(0, 0, 0)" stroke-opacity="1.0" stroke-linecap="round" stroke-linejoin="round"/>
    <path d="M 81.65254211425781 175.7755584716797 C 93.79866790771484 186.72695922851562 121.04259490966797 185.86590576171875 100.58180236816406 187.7775421142578" stroke-width="3.0" fill="none" stroke="rgb(0, 0, 0)" stroke-opacity="1.0" stroke-linecap="round" stroke-linejoin="round"/>
    <path d="M 62.94235610961914 41.57003402709961 C 104.98108673095703 34.677127838134766 94.48799896240234 22.05990982055664 133.27085876464844 41.82780456542969" stroke-width="3.0" fill="none" stroke="rgb(0, 0, 0)" stroke-opacity="1.0" stroke-linecap="round" stroke-linejoin="round"/>
    <path d="M 82.41802978515625 48.0966911315918 C 101.39320373535156 54.17390060424805 101.57256317138672 51.2133903503418 121.79796600341797 60.23097610473633" stroke-width="3.0" fill="none" stroke="rgb(0, 0, 0)" stroke-opacity="1.0" stroke-linecap="round" stroke-linejoin="round"/>
    <path d="M 132.1582794189453 42.03042221069336 C 136.26380920410156 47.30204772949219 162.01654052734375 31.411033630371094 174.9396514892578 84.62124633789062" stroke-width="3.0" fill="none" stroke="rgb(0, 0, 0)" stroke-opacity="1.0" stroke-linecap="round" stroke-linejoin="round"/>
    <path d="M 65.07952117919922 172.2028350830078 C 56.17841720581055 155.80792236328125 55.36778259277344 166.67298889160156 47.22571563720703 154.1715850830078" stroke-width="3.0" fill="none" stroke="rgb(0, 0, 0)" stroke-opacity="1.0" stroke-linecap="round" stroke-linejoin="round"/>
    <path d="M 87.3299331665039 161.07960510253906 C 91.286865234375 158.83636474609375 77.78731536865234 165.3162841796875 105.1952133178711 157.93370056152344" stroke-width="3.0" fill="none" stroke="rgb(0, 0, 0)" stroke-opacity="1.0" stroke-linecap="round" stroke-linejoin="round"/>
    <path d="M 162.72515869140625 168.52064514160156 C 182.80947875976562 158.0166778564453 143.83348083496094 175.4922637939453 156.20367431640625 170.2324676513672" stroke-width="3.0" fill="none" stroke="rgb(0, 0, 0)" stroke-opacity="1.0" stroke-linecap="round" stroke-linejoin="round"/>
    <path d="M 142.93116760253906 191.82009887695312 C 101.5709457397461 189.9014129638672 136.17440795898438 187.07244873046875 99.42816162109375 188.077392578125" stroke-width="3.0" fill="none" stroke="rgb(0, 0, 0)" stroke-opacity="1.0" stroke-linecap="round" stroke-linejoin="round"/>
    <path d="M 67.1202163696289 167.34475708007812 C 54.40780258178711 156.1350860595703 61.63324737548828 173.71339416503906 85.9814682006836 163.056884765625" stroke-width="3.0" fill="none" stroke="rgb(0, 0, 0)" stroke-opacity="1.0" stroke-linecap="round" stroke-linejoin="round"/>
    <path d="M 36.60541534423828 142.09275817871094 C 35.93290710449219 90.54618835449219 21.41855239868164 90.74896240234375 38.78346252441406 81.27481842041016" stroke-width="3.0" fill="none" stroke="rgb(0, 0, 0)" stroke-opacity="1.0" stroke-linecap="round" stroke-linejoin="round"/>
    <path d="M 99.9089126586914 159.48777770996094 C 109.51695251464844 158.8267059326172 110.18035888671875 153.03070068359375 114.29393005371094 151.57167053222656" stroke-width="3.0" fill="none" stroke="rgb(0, 0, 0)" stroke-opacity="1.0" stroke-linecap="round" stroke-linejoin="round"/>
    <path d="M 39.309967041015625 81.15032958984375 C 41.011940002441406 36.69163131713867 53.87272262573242 47.22285842895508 70.12590026855469 39.14690017700195" stroke-width="3.0" fill="none" stroke="rgb(0, 0, 0)" stroke-opacity="1.0" stroke-linecap="round" stroke-linejoin="round"/>
    <path d="M 190.431396484375 113.19322967529297 C 188.70077514648438 142.77548217773438 171.30784606933594 152.2278594970703 177.28135681152344 154.31834411621094" stroke-width="3.0" fill="none" stroke="rgb(0, 0, 0)" stroke-opacity="1.0" stroke-linecap="round" stroke-linejoin="round"/>
    <path d="M 67.79627990722656 53.066898345947266 C 68.33003997802734 47.37056350708008 64.87857818603516 42.18198776245117 82.48531341552734 49.31866455078125" stroke-width="3.0" fill="none" stroke="rgb(0, 0, 0)" stroke-opacity="1.0" stroke-linecap="round" stroke-linejoin="round"/>
    <path d="M 135.78721618652344 190.77406311035156 C 157.91139221191406 185.64959716796875 153.33013916015625 190.78106689453125 160.78013610839844 177.83163452148438" stroke-width="3.0" fill="none" stroke="rgb(0, 0, 0)" stroke-opacity="1.0" stroke-linecap="round" stroke-linejoin="round"/>
    <path d="M 95.33638763427734 125.56044006347656 C 96.19175720214844 107.16223907470703 79.34929656982422 106.12026977539062 102.57318878173828 132.95782470703125" stroke-width="3.0" fill="none" stroke="rgb(0, 0, 0)" stroke-opacity="1.0" stroke-linecap="round" stroke-linejoin="round"/>
    <path d="M 106.24208068847656 95.84038543701172 C 76.47699737548828 92.96770477294922 86.68585205078125 108.63375854492188 89.72901153564453 129.08079528808594" stroke-width="3.0" fill="none" stroke="rgb(0, 0, 0)" stroke-opacity="1.0" stroke-linecap="round" stroke-linejoin="round"/>
    <path d="M 66.54265594482422 53.52244186401367 C 55.34806823730469 60.25711441040039 48.85114288330078 72.80982208251953 46.042179107666016 81.46165466308594" stroke-width="3.0" fill="none" stroke="rgb(0, 0, 0)" stroke-opacity="1.0" stroke-linecap="round" stroke-linejoin="round"/>
    <path d="M 146.51065063476562 168.41497802734375 C 130.41395568847656 160.84927368164062 131.1155242919922 144.03384399414062 114.95880889892578 147.67800903320312" stroke-width="3.0" fill="none" stroke="rgb(0, 0, 0)" stroke-opacity="1.0" stroke-linecap="round" stroke-linejoin="round"/>
  </g>
</svg>
