<?xml version="1.0" ?>
<svg xmlns="http://www.w3.org/2000/svg" version="1.1" width="224" height="224">
  <defs/>
  <g>
    <path d="M 61.55216598510742 97.30207824707031 C 74.3049545288086 126.25358581542969 50.54824447631836 149.56582641601562 105.48023223876953 146.5266571044922" stroke-width="3.0" fill="none" stroke="rgb(0, 0, 0)" stroke-opacity="1.0" stroke-linecap="round" stroke-linejoin="round"/>
    <path d="M 159.60736083984375 174.11058044433594 C 191.10476684570312 150.613525390625 189.40406799316406 149.09872436523438 169.3917694091797 170.8745880126953" stroke-width="3.0" fill="none" stroke="rgb(0, 0, 0)" stroke-opacity="1.0" stroke-linecap="round" stroke-linejoin="round"/>
    <path d="M 82.63072967529297 132.79248046875 C 115.79153442382812 158.322265625 114.80227661132812 137.0784454345703 130.28660583496094 135.63311767578125" stroke-width="3.0" fill="none" stroke="rgb(0, 0, 0)" stroke-opacity="1.0" stroke-linecap="round" stroke-linejoin="round"/>
    <path d="M 115.06478118896484 59.167213439941406 C 172.94772338867188 104.87789916992188 156.2769012451172 136.22793579101562 118.2072525024414 141.83651733398438" stroke-width="3.0" fill="none" stroke="rgb(0, 0, 0)" stroke-opacity="1.0" stroke-linecap="round" stroke-linejoin="round"/>
    <path d="M 170.47406005859375 60.46360397338867 C 199.3623046875 84.58265686035156 187.773193359375 75.66070556640625 188.3861541748047 107.61853790283203" stroke-width="3.0" fill="none" stroke="rgb(0, 0, 0)" stroke-opacity="1.0" stroke-linecap="round" stroke-linejoin="round"/>
    <path d="M 161.30870056152344 72.45894622802734 C 181.64671325683594 77.70941162109375 165.72816467285156 135.58743286132812 150.83505249023438 158.23731994628906" stroke-width="3.0" fill="none" stroke="rgb(0, 0, 0)" stroke-opacity="1.0" stroke-linecap="round" stroke-linejoin="round"/>
    <path d="M 40.496639251708984 129.00546264648438 C 29.83504295349121 99.59452819824219 36.05182647705078 133.56991577148438 37.664306640625 149.37234497070312" stroke-width="3.0" fill="none" stroke="rgb(0, 0, 0)" stroke-opacity="1.0" stroke-linecap="round" stroke-linejoin="round"/>
    <path d="M 164.602783203125 167.26443481445312 C 193.2598876953125 158.8682403564453 187.66131591796875 156.63844299316406 157.79493713378906 172.00131225585938" stroke-width="3.0" fill="none" stroke="rgb(0, 0, 0)" stroke-opacity="1.0" stroke-linecap="round" stroke-linejoin="round"/>
    <path d="M 105.3488998413086 193.41622924804688 C 90.03226470947266 184.78225708007812 108.37393951416016 198.2375946044922 126.4061050415039 194.6692352294922" stroke-width="3.0" fill="none" stroke="rgb(0, 0, 0)" stroke-opacity="1.0" stroke-linecap="round" stroke-linejoin="round"/>
    <path d="M 129.3003387451172 51.74941635131836 C 195.1905059814453 95.70344543457031 176.13941955566406 85.11227416992188 189.88717651367188 135.2738494873047" stroke-width="3.0" fill="none" stroke="rgb(0, 0, 0)" stroke-opacity="1.0" stroke-linecap="round" stroke-linejoin="round"/>
    <path d="M 93.84980773925781 183.43124389648438 C 60.27727508544922 183.4812774658203 69.62762451171875 173.06515502929688 56.340450286865234 170.1362762451172" stroke-width="3.0" fill="none" stroke="rgb(0, 0, 0)" stroke-opacity="1.0" stroke-linecap="round" stroke-linejoin="round"/>
    <path d="M 113.11498260498047 142.37982177734375 C 71.66736602783203 137.98487854003906 55.74488830566406 112.68395233154297 87.89800262451172 78.50393676757812" stroke-width="3.0" fill="none" stroke="rgb(0, 0, 0)" stroke-opacity="1.0" stroke-linecap="round" stroke-linejoin="round"/>
    <path d="M 51.5477409362793 149.3488311767578 C 40.98855209350586 138.12921142578125 33.75788879394531 128.2151641845703 49.74634552001953 150.83172607421875" stroke-width="3.0" fill="none" stroke="rgb(0, 0, 0)" stroke-opacity="1.0" stroke-linecap="round" stroke-linejoin="round"/>
    <path d="M 83.52127075195312 178.43138122558594 C 103.36700439453125 194.2286376953125 140.90765380859375 195.3380584716797 109.61754608154297 192.50962829589844" stroke-width="3.0" fill="none" stroke="rgb(0, 0, 0)" stroke-opacity="1.0" stroke-linecap="round" stroke-linejoin="round"/>
    <path d="M 68.93170166015625 41.01178741455078 C 101.69309997558594 40.940711975097656 81.51583099365234 20.52008819580078 133.11920166015625 41.08799743652344" stroke-width="3.0" fill="none" stroke="rgb(0, 0, 0)" stroke-opacity="1.0" stroke-linecap="round" stroke-linejoin="round"/>
    <path d="M 104.16720581054688 28.765954971313477 C 135.4790496826172 57.13479995727539 102.61428833007812 44.87226486206055 129.93179321289062 51.8270378112793" stroke-width="3.0" fill="none" stroke="rgb(0, 0, 0)" stroke-opacity="1.0" stroke-linecap="round" stroke-linejoin="round"/>
    <path d="M 133.1385498046875 41.46855545043945 C 151.17613220214844 55.336822509765625 152.25453186035156 26.822891235351562 187.50148010253906 95.34324645996094" stroke-width="3.0" fill="none" stroke="rgb(0, 0, 0)" stroke-opacity="1.0" stroke-linecap="round" stroke-linejoin="round"/>
    <path d="M 65.87799072265625 180.3966522216797 C 62.53719711303711 163.43484497070312 48.70553207397461 178.8860626220703 38.233253479003906 144.96218872070312" stroke-width="3.0" fill="none" stroke="rgb(0, 0, 0)" stroke-opacity="1.0" stroke-linecap="round" stroke-linejoin="round"/>
    <path d="M 83.93466186523438 170.66586303710938 C 118.0104751586914 170.18234252929688 107.18501281738281 157.76036071777344 124.16410827636719 155.58248901367188" stroke-width="3.0" fill="none" stroke="rgb(0, 0, 0)" stroke-opacity="1.0" stroke-linecap="round" stroke-linejoin="round"/>
    <path d="M 162.280029296875 177.58480834960938 C 179.7090301513672 155.97308349609375 153.99754333496094 187.14370727539062 161.6321258544922 169.94720458984375" stroke-width="3.0" fill="none" stroke="rgb(0, 0, 0)" stroke-opacity="1.0" stroke-linecap="round" stroke-linejoin="round"/>
    <path d="M 149.0693359375 191.66734313964844 C 131.02981567382812 200.9156951904297 131.0186004638672 189.0070343017578 115.17810821533203 197.7369384765625" stroke-width="3.0" fill="none" stroke="rgb(0, 0, 0)" stroke-opacity="1.0" stroke-linecap="round" stroke-linejoin="round"/>
    <path d="M 50.568275451660156 148.24571228027344 C 49.67430114746094 142.59951782226562 58.83671951293945 170.82113647460938 84.15153503417969 167.17535400390625" stroke-width="3.0" fill="none" stroke="rgb(0, 0, 0)" stroke-opacity="1.0" stroke-linecap="round" stroke-linejoin="round"/>
    <path d="M 36.82733917236328 144.64724731445312 C 34.97089767456055 70.11984252929688 22.564184188842773 104.78243255615234 33.06108474731445 74.75154876708984" stroke-width="3.0" fill="none" stroke="rgb(0, 0, 0)" stroke-opacity="1.0" stroke-linecap="round" stroke-linejoin="round"/>
    <path d="M 90.59674072265625 168.0803985595703 C 116.16842651367188 160.7887420654297 129.81324768066406 160.7435760498047 138.38706970214844 139.84251403808594" stroke-width="3.0" fill="none" stroke="rgb(0, 0, 0)" stroke-opacity="1.0" stroke-linecap="round" stroke-linejoin="round"/>
    <path d="M 32.13856506347656 81.939208984375 C 35.11675262451172 30.98082160949707 65.53878021240234 51.771392822265625 68.06584167480469 41.675323486328125" stroke-width="3.0" fill="none" stroke="rgb(0, 0, 0)" stroke-opacity="1.0" stroke-linecap="round" stroke-linejoin="round"/>
    <path d="M 188.72146606445312 106.91771697998047 C 196.25015258789062 128.69032287597656 179.04322814941406 171.92185974121094 184.7509002685547 156.92506408691406" stroke-width="3.0" fill="none" stroke="rgb(0, 0, 0)" stroke-opacity="1.0" stroke-linecap="round" stroke-linejoin="round"/>
    <path d="M 58.42167663574219 62.32150650024414 C 65.40321350097656 55.25191879272461 80.25919342041016 44.12149429321289 115.4778060913086 50.313438415527344" stroke-width="3.0" fill="none" stroke="rgb(0, 0, 0)" stroke-opacity="1.0" stroke-linecap="round" stroke-linejoin="round"/>
    <path d="M 151.74473571777344 190.865478515625 C 165.03627014160156 177.37181091308594 158.82179260253906 196.4565887451172 172.4755401611328 167.1056671142578" stroke-width="3.0" fill="none" stroke="rgb(0, 0, 0)" stroke-opacity="1.0" stroke-linecap="round" stroke-linejoin="round"/>
    <path d="M 100.7136001586914 128.67300415039062 C 84.59101104736328 82.92359161376953 68.56964111328125 108.74586486816406 100.68817901611328 144.63111877441406" stroke-width="3.0" fill="none" stroke="rgb(0, 0, 0)" stroke-opacity="1.0" stroke-linecap="round" stroke-linejoin="round"/>
    <path d="M 112.62881469726562 89.44115447998047 C 73.29278564453125 85.53069305419922 89.2349853515625 103.38533020019531 87.89252471923828 127.25712585449219" stroke-width="3.0" fill="none" stroke="rgb(0, 0, 0)" stroke-opacity="1.0" stroke-linecap="round" stroke-linejoin="round"/>
    <path d="M 61.9749755859375 59.604888916015625 C 58.245914459228516 64.89209747314453 49.93613052368164 64.10152435302734 44.178768157958984 80.9096450805664" stroke-width="3.0" fill="none" stroke="rgb(0, 0, 0)" stroke-opacity="1.0" stroke-linecap="round" stroke-linejoin="round"/>
    <path d="M 162.1688690185547 174.00949096679688 C 141.8394775390625 160.92445373535156 157.6722412109375 156.84368896484375 146.563232421875 139.48912048339844" stroke-width="3.0" fill="none" stroke="rgb(0, 0, 0)" stroke-opacity="1.0" stroke-linecap="round" stroke-linejoin="round"/>
  </g>
</svg>
