<?xml version="1.0" ?>
<svg xmlns="http://www.w3.org/2000/svg" version="1.1" width="224" height="224">
  <defs/>
  <g>
    <path d="M 67.77021026611328 107.29354858398438 C 72.86588287353516 126.46849822998047 50.016361236572266 148.09765625 99.89015197753906 146.45278930664062" stroke-width="3.0" fill="none" stroke="rgb(0, 0, 0)" stroke-opacity="1.0" stroke-linecap="round" stroke-linejoin="round"/>
    <path d="M 157.20468139648438 176.6045684814453 C 188.24520874023438 152.09030151367188 186.19662475585938 146.39569091796875 178.96853637695312 161.57867431640625" stroke-width="3.0" fill="none" stroke="rgb(0, 0, 0)" stroke-opacity="1.0" stroke-linecap="round" stroke-linejoin="round"/>
    <path d="M 87.24108123779297 127.24139404296875 C 106.13147735595703 154.57286071777344 103.08361053466797 138.6132049560547 121.51349639892578 139.8720703125" stroke-width="3.0" fill="none" stroke="rgb(0, 0, 0)" stroke-opacity="1.0" stroke-linecap="round" stroke-linejoin="round"/>
    <path d="M 126.14786529541016 70.718017578125 C 160.5150909423828 110.61882019042969 147.02392578125 126.68537902832031 122.91411590576172 139.58203125" stroke-width="3.0" fill="none" stroke="rgb(0, 0, 0)" stroke-opacity="1.0" stroke-linecap="round" stroke-linejoin="round"/>
    <path d="M 164.9313507080078 60.336631774902344 C 200.6506805419922 75.64219665527344 181.0411376953125 83.07188415527344 192.86160278320312 118.07764434814453" stroke-width="3.0" fill="none" stroke="rgb(0, 0, 0)" stroke-opacity="1.0" stroke-linecap="round" stroke-linejoin="round"/>
    <path d="M 147.65365600585938 81.48790740966797 C 162.48898315429688 106.24581909179688 164.5352325439453 134.4342498779297 146.1982879638672 163.7392578125" stroke-width="3.0" fill="none" stroke="rgb(0, 0, 0)" stroke-opacity="1.0" stroke-linecap="round" stroke-linejoin="round"/>
    <path d="M 40.134464263916016 121.49707794189453 C 25.180442810058594 99.56645965576172 43.88812255859375 120.58091735839844 36.48297119140625 127.93692016601562" stroke-width="3.0" fill="none" stroke="rgb(0, 0, 0)" stroke-opacity="1.0" stroke-linecap="round" stroke-linejoin="round"/>
    <path d="M 157.65318298339844 168.55857849121094 C 191.2615966796875 161.34642028808594 189.704833984375 153.9559783935547 152.97125244140625 171.9921112060547" stroke-width="3.0" fill="none" stroke="rgb(0, 0, 0)" stroke-opacity="1.0" stroke-linecap="round" stroke-linejoin="round"/>
    <path d="M 102.59075164794922 187.66856384277344 C 94.49657440185547 176.60897827148438 100.92880249023438 196.66075134277344 107.61774444580078 189.44496154785156" stroke-width="3.0" fill="none" stroke="rgb(0, 0, 0)" stroke-opacity="1.0" stroke-linecap="round" stroke-linejoin="round"/>
    <path d="M 123.08314514160156 61.720924377441406 C 169.774658203125 96.95056915283203 153.28775024414062 85.656005859375 169.48098754882812 131.4565887451172" stroke-width="3.0" fill="none" stroke="rgb(0, 0, 0)" stroke-opacity="1.0" stroke-linecap="round" stroke-linejoin="round"/>
    <path d="M 84.30101776123047 177.45567321777344 C 69.00325012207031 177.75387573242188 47.63804244995117 170.53778076171875 47.21113586425781 161.1742401123047" stroke-width="3.0" fill="none" stroke="rgb(0, 0, 0)" stroke-opacity="1.0" stroke-linecap="round" stroke-linejoin="round"/>
    <path d="M 102.44794464111328 144.44927978515625 C 76.5629653930664 138.24826049804688 61.63410949707031 107.44914245605469 84.6280517578125 77.30281829833984" stroke-width="3.0" fill="none" stroke="rgb(0, 0, 0)" stroke-opacity="1.0" stroke-linecap="round" stroke-linejoin="round"/>
    <path d="M 55.32414627075195 160.26654052734375 C 29.334213256835938 142.0270233154297 33.940425872802734 129.76942443847656 43.728694915771484 155.0114288330078" stroke-width="3.0" fill="none" stroke="rgb(0, 0, 0)" stroke-opacity="1.0" stroke-linecap="round" stroke-linejoin="round"/>
    <path d="M 78.32266235351562 173.24517822265625 C 94.14894104003906 187.7889404296875 135.57301330566406 190.84690856933594 100.29377746582031 189.00677490234375" stroke-width="3.0" fill="none" stroke="rgb(0, 0, 0)" stroke-opacity="1.0" stroke-linecap="round" stroke-linejoin="round"/>
    <path d="M 69.50663757324219 40.0897102355957 C 114.51392364501953 36.816131591796875 83.4559555053711 18.07332992553711 141.29595947265625 40.203643798828125" stroke-width="3.0" fill="none" stroke="rgb(0, 0, 0)" stroke-opacity="1.0" stroke-linecap="round" stroke-linejoin="round"/>
    <path d="M 84.45924377441406 42.55278396606445 C 103.90499877929688 55.80362319946289 102.20265197753906 51.392391204833984 122.5383071899414 61.235565185546875" stroke-width="3.0" fill="none" stroke="rgb(0, 0, 0)" stroke-opacity="1.0" stroke-linecap="round" stroke-linejoin="round"/>
    <path d="M 142.86227416992188 41.342464447021484 C 151.11276245117188 53.46425247192383 149.1239776611328 30.324552536010742 187.69216918945312 94.31916809082031" stroke-width="3.0" fill="none" stroke="rgb(0, 0, 0)" stroke-opacity="1.0" stroke-linecap="round" stroke-linejoin="round"/>
    <path d="M 58.99980163574219 171.81820678710938 C 52.07733917236328 162.1417694091797 45.25208282470703 172.76278686523438 46.59103775024414 154.1004180908203" stroke-width="3.0" fill="none" stroke="rgb(0, 0, 0)" stroke-opacity="1.0" stroke-linecap="round" stroke-linejoin="round"/>
    <path d="M 77.5387954711914 160.38648986816406 C 106.38568878173828 163.64830017089844 91.35792541503906 157.738525390625 111.19701385498047 153.58233642578125" stroke-width="3.0" fill="none" stroke="rgb(0, 0, 0)" stroke-opacity="1.0" stroke-linecap="round" stroke-linejoin="round"/>
    <path d="M 159.64157104492188 170.47470092773438 C 178.94252014160156 162.5941162109375 143.2554168701172 183.0601348876953 160.50958251953125 170.9969482421875" stroke-width="3.0" fill="none" stroke="rgb(0, 0, 0)" stroke-opacity="1.0" stroke-linecap="round" stroke-linejoin="round"/>
    <path d="M 143.21641540527344 191.3603515625 C 104.50542449951172 192.8265838623047 134.47079467773438 188.74234008789062 99.25167846679688 187.75816345214844" stroke-width="3.0" fill="none" stroke="rgb(0, 0, 0)" stroke-opacity="1.0" stroke-linecap="round" stroke-linejoin="round"/>
    <path d="M 50.42275619506836 159.19827270507812 C 36.54051208496094 154.282470703125 55.15165328979492 169.11459350585938 79.30426788330078 161.62860107421875" stroke-width="3.0" fill="none" stroke="rgb(0, 0, 0)" stroke-opacity="1.0" stroke-linecap="round" stroke-linejoin="round"/>
    <path d="M 35.9345703125 140.65255737304688 C 34.82894515991211 76.25907897949219 20.30461883544922 93.47705078125 32.808311462402344 81.76049041748047" stroke-width="3.0" fill="none" stroke="rgb(0, 0, 0)" stroke-opacity="1.0" stroke-linecap="round" stroke-linejoin="round"/>
    <path d="M 90.81121826171875 160.7545623779297 C 115.06085968017578 158.15565490722656 112.3349380493164 151.2492218017578 122.13713836669922 145.57577514648438" stroke-width="3.0" fill="none" stroke="rgb(0, 0, 0)" stroke-opacity="1.0" stroke-linecap="round" stroke-linejoin="round"/>
    <path d="M 34.45181655883789 81.1621322631836 C 34.788204193115234 37.448001861572266 58.2054328918457 46.51185607910156 68.6522216796875 40.1337890625" stroke-width="3.0" fill="none" stroke="rgb(0, 0, 0)" stroke-opacity="1.0" stroke-linecap="round" stroke-linejoin="round"/>
    <path d="M 191.95643615722656 118.3382568359375 C 188.78172302246094 140.61940002441406 181.80105590820312 164.2510986328125 175.3735809326172 161.9705047607422" stroke-width="3.0" fill="none" stroke="rgb(0, 0, 0)" stroke-opacity="1.0" stroke-linecap="round" stroke-linejoin="round"/>
    <path d="M 66.75259399414062 52.41014099121094 C 70.84899139404297 49.74928283691406 66.6592788696289 43.92905807495117 99.96873474121094 51.50804138183594" stroke-width="3.0" fill="none" stroke="rgb(0, 0, 0)" stroke-opacity="1.0" stroke-linecap="round" stroke-linejoin="round"/>
    <path d="M 144.8850860595703 190.31326293945312 C 160.16744995117188 182.4716033935547 151.92355346679688 195.4650115966797 166.3294677734375 167.57395935058594" stroke-width="3.0" fill="none" stroke="rgb(0, 0, 0)" stroke-opacity="1.0" stroke-linecap="round" stroke-linejoin="round"/>
    <path d="M 97.20105743408203 124.96018981933594 C 90.91056823730469 100.64690399169922 77.15182495117188 114.43131256103516 105.14187622070312 132.18089294433594" stroke-width="3.0" fill="none" stroke="rgb(0, 0, 0)" stroke-opacity="1.0" stroke-linecap="round" stroke-linejoin="round"/>
    <path d="M 113.0516586303711 91.83412170410156 C 67.29222869873047 87.93162536621094 86.4391098022461 105.45050048828125 86.27494049072266 125.09603118896484" stroke-width="3.0" fill="none" stroke="rgb(0, 0, 0)" stroke-opacity="1.0" stroke-linecap="round" stroke-linejoin="round"/>
    <path d="M 63.98463821411133 53.48237609863281 C 55.90122604370117 56.444583892822266 43.414493560791016 71.09498596191406 42.78561782836914 79.439453125" stroke-width="3.0" fill="none" stroke="rgb(0, 0, 0)" stroke-opacity="1.0" stroke-linecap="round" stroke-linejoin="round"/>
    <path d="M 145.21775817871094 171.1304168701172 C 138.28256225585938 166.15707397460938 139.576416015625 149.47708129882812 129.8950653076172 146.0576171875" stroke-width="3.0" fill="none" stroke="rgb(0, 0, 0)" stroke-opacity="1.0" stroke-linecap="round" stroke-linejoin="round"/>
  </g>
</svg>
