<?xml version="1.0" ?>
<svg xmlns="http://www.w3.org/2000/svg" version="1.1" width="224" height="224">
  <defs/>
  <g>
    <path d="M 65.93770599365234 95.35578155517578 C 74.37342071533203 126.30784606933594 49.7122802734375 149.40052795410156 103.77317810058594 150.09072875976562" stroke-width="3.0" fill="none" stroke="rgb(0, 0, 0)" stroke-opacity="1.0" stroke-linecap="round" stroke-linejoin="round"/>
    <path d="M 156.603515625 174.4952850341797 C 185.22605895996094 145.50999450683594 182.25527954101562 146.68685913085938 174.42349243164062 157.93002319335938" stroke-width="3.0" fill="none" stroke="rgb(0, 0, 0)" stroke-opacity="1.0" stroke-linecap="round" stroke-linejoin="round"/>
    <path d="M 88.42321014404297 131.21694946289062 C 107.71105194091797 159.19371032714844 118.35383605957031 140.15077209472656 124.08490753173828 139.51144409179688" stroke-width="3.0" fill="none" stroke="rgb(0, 0, 0)" stroke-opacity="1.0" stroke-linecap="round" stroke-linejoin="round"/>
    <path d="M 125.86963653564453 67.11307525634766 C 167.56369018554688 93.57288360595703 149.95542907714844 136.45962524414062 116.81192779541016 142.20338439941406" stroke-width="3.0" fill="none" stroke="rgb(0, 0, 0)" stroke-opacity="1.0" stroke-linecap="round" stroke-linejoin="round"/>
    <path d="M 167.48550415039062 60.57965850830078 C 201.80532836914062 84.42446899414062 181.58865356445312 84.22151947021484 186.531005859375 112.85639190673828" stroke-width="3.0" fill="none" stroke="rgb(0, 0, 0)" stroke-opacity="1.0" stroke-linecap="round" stroke-linejoin="round"/>
    <path d="M 151.90081787109375 77.51263427734375 C 172.5799102783203 87.20919036865234 171.4474639892578 141.3502197265625 151.2225341796875 168.2113800048828" stroke-width="3.0" fill="none" stroke="rgb(0, 0, 0)" stroke-opacity="1.0" stroke-linecap="round" stroke-linejoin="round"/>
    <path d="M 41.422882080078125 127.2620620727539 C 27.470273971557617 101.20597839355469 44.42314529418945 125.5120849609375 36.52690124511719 137.79364013671875" stroke-width="3.0" fill="none" stroke="rgb(0, 0, 0)" stroke-opacity="1.0" stroke-linecap="round" stroke-linejoin="round"/>
    <path d="M 162.88876342773438 167.1468963623047 C 189.22494506835938 154.34910583496094 179.25143432617188 145.31549072265625 153.69435119628906 175.15362548828125" stroke-width="3.0" fill="none" stroke="rgb(0, 0, 0)" stroke-opacity="1.0" stroke-linecap="round" stroke-linejoin="round"/>
    <path d="M 101.0675048828125 185.19680786132812 C 90.83170318603516 183.3479461669922 110.12483215332031 192.13136291503906 114.17601013183594 188.5376434326172" stroke-width="3.0" fill="none" stroke="rgb(0, 0, 0)" stroke-opacity="1.0" stroke-linecap="round" stroke-linejoin="round"/>
    <path d="M 126.72309875488281 53.966712951660156 C 184.77700805664062 92.6427001953125 161.4070587158203 81.98584747314453 181.24598693847656 133.6791229248047" stroke-width="3.0" fill="none" stroke="rgb(0, 0, 0)" stroke-opacity="1.0" stroke-linecap="round" stroke-linejoin="round"/>
    <path d="M 89.4295425415039 180.14389038085938 C 59.08614730834961 181.4458770751953 54.55612564086914 167.52685546875 49.170162200927734 162.04978942871094" stroke-width="3.0" fill="none" stroke="rgb(0, 0, 0)" stroke-opacity="1.0" stroke-linecap="round" stroke-linejoin="round"/>
    <path d="M 104.73672485351562 146.7483367919922 C 75.49951934814453 140.82400512695312 59.48210144042969 105.9260482788086 86.12528991699219 75.62271118164062" stroke-width="3.0" fill="none" stroke="rgb(0, 0, 0)" stroke-opacity="1.0" stroke-linecap="round" stroke-linejoin="round"/>
    <path d="M 53.61904525756836 153.95806884765625 C 27.372100830078125 140.93235778808594 34.48040008544922 126.33736419677734 46.51280975341797 150.8648681640625" stroke-width="3.0" fill="none" stroke="rgb(0, 0, 0)" stroke-opacity="1.0" stroke-linecap="round" stroke-linejoin="round"/>
    <path d="M 80.05473327636719 173.8000030517578 C 98.70684814453125 188.0767059326172 138.66104125976562 193.59793090820312 99.18315124511719 187.14443969726562" stroke-width="3.0" fill="none" stroke="rgb(0, 0, 0)" stroke-opacity="1.0" stroke-linecap="round" stroke-linejoin="round"/>
    <path d="M 65.7374038696289 40.71443176269531 C 114.81793212890625 38.942481994628906 76.29676818847656 15.517895698547363 139.87440490722656 41.7846794128418" stroke-width="3.0" fill="none" stroke="rgb(0, 0, 0)" stroke-opacity="1.0" stroke-linecap="round" stroke-linejoin="round"/>
    <path d="M 99.07608795166016 33.23543930053711 C 125.1396484375 53.422725677490234 97.51345825195312 44.7268180847168 125.95722198486328 52.34537887573242" stroke-width="3.0" fill="none" stroke="rgb(0, 0, 0)" stroke-opacity="1.0" stroke-linecap="round" stroke-linejoin="round"/>
    <path d="M 139.85845947265625 40.54517364501953 C 154.44857788085938 57.919830322265625 149.0890350341797 30.22406005859375 186.23110961914062 101.61019897460938" stroke-width="3.0" fill="none" stroke="rgb(0, 0, 0)" stroke-opacity="1.0" stroke-linecap="round" stroke-linejoin="round"/>
    <path d="M 65.0655288696289 178.9123077392578 C 59.48721694946289 161.2022247314453 46.53327560424805 172.0480194091797 40.974430084228516 145.44741821289062" stroke-width="3.0" fill="none" stroke="rgb(0, 0, 0)" stroke-opacity="1.0" stroke-linecap="round" stroke-linejoin="round"/>
    <path d="M 77.396240234375 165.86685180664062 C 115.51112365722656 162.0522003173828 100.55278015136719 161.1108856201172 115.62356567382812 153.9923095703125" stroke-width="3.0" fill="none" stroke="rgb(0, 0, 0)" stroke-opacity="1.0" stroke-linecap="round" stroke-linejoin="round"/>
    <path d="M 155.3516082763672 176.44688415527344 C 179.873779296875 156.3154296875 147.9718780517578 186.04737854003906 161.12620544433594 173.44419860839844" stroke-width="3.0" fill="none" stroke="rgb(0, 0, 0)" stroke-opacity="1.0" stroke-linecap="round" stroke-linejoin="round"/>
    <path d="M 147.6829833984375 188.44293212890625 C 120.15668487548828 197.3745880126953 143.84860229492188 190.3068084716797 105.15020751953125 188.85781860351562" stroke-width="3.0" fill="none" stroke="rgb(0, 0, 0)" stroke-opacity="1.0" stroke-linecap="round" stroke-linejoin="round"/>
    <path d="M 41.725399017333984 146.2747802734375 C 43.13734436035156 143.46701049804688 62.23515319824219 173.68280029296875 83.97882843017578 164.3697052001953" stroke-width="3.0" fill="none" stroke="rgb(0, 0, 0)" stroke-opacity="1.0" stroke-linecap="round" stroke-linejoin="round"/>
    <path d="M 35.2726936340332 137.63429260253906 C 36.75262451171875 72.2050552368164 21.160770416259766 98.3982162475586 33.500335693359375 78.6766357421875" stroke-width="3.0" fill="none" stroke="rgb(0, 0, 0)" stroke-opacity="1.0" stroke-linecap="round" stroke-linejoin="round"/>
    <path d="M 91.34234619140625 165.17489624023438 C 119.089111328125 159.320068359375 112.02753448486328 156.12986755371094 130.0768280029297 145.13754272460938" stroke-width="3.0" fill="none" stroke="rgb(0, 0, 0)" stroke-opacity="1.0" stroke-linecap="round" stroke-linejoin="round"/>
    <path d="M 35.432090759277344 81.09928894042969 C 42.393043518066406 30.40611457824707 63.406253814697266 50.44526290893555 67.06703186035156 39.08881378173828" stroke-width="3.0" fill="none" stroke="rgb(0, 0, 0)" stroke-opacity="1.0" stroke-linecap="round" stroke-linejoin="round"/>
    <path d="M 187.82728576660156 114.0341567993164 C 186.21359252929688 137.14500427246094 176.32232666015625 164.60215759277344 178.16221618652344 156.85997009277344" stroke-width="3.0" fill="none" stroke="rgb(0, 0, 0)" stroke-opacity="1.0" stroke-linecap="round" stroke-linejoin="round"/>
    <path d="M 56.97220230102539 58.38482666015625 C 71.02949523925781 54.081077575683594 69.40986633300781 47.36360168457031 108.42815399169922 49.94480895996094" stroke-width="3.0" fill="none" stroke="rgb(0, 0, 0)" stroke-opacity="1.0" stroke-linecap="round" stroke-linejoin="round"/>
    <path d="M 142.4129638671875 190.77960205078125 C 162.7208251953125 177.4796142578125 156.6531982421875 191.3131866455078 168.06741333007812 164.3431396484375" stroke-width="3.0" fill="none" stroke="rgb(0, 0, 0)" stroke-opacity="1.0" stroke-linecap="round" stroke-linejoin="round"/>
    <path d="M 98.99797058105469 135.04092407226562 C 89.58650207519531 97.2375717163086 76.029541015625 119.2449951171875 100.67005157470703 143.49310302734375" stroke-width="3.0" fill="none" stroke="rgb(0, 0, 0)" stroke-opacity="1.0" stroke-linecap="round" stroke-linejoin="round"/>
    <path d="M 110.61935424804688 92.62313842773438 C 73.07902526855469 90.97908020019531 90.04812622070312 105.873779296875 88.32513427734375 127.7514877319336" stroke-width="3.0" fill="none" stroke="rgb(0, 0, 0)" stroke-opacity="1.0" stroke-linecap="round" stroke-linejoin="round"/>
    <path d="M 64.13278198242188 55.935203552246094 C 57.71383285522461 64.36644744873047 45.648277282714844 67.02169036865234 41.742435455322266 77.53984832763672" stroke-width="3.0" fill="none" stroke="rgb(0, 0, 0)" stroke-opacity="1.0" stroke-linecap="round" stroke-linejoin="round"/>
    <path d="M 153.81256103515625 175.31076049804688 C 134.2784423828125 160.78762817382812 146.21981811523438 154.9945831298828 136.2814483642578 143.52427673339844" stroke-width="3.0" fill="none" stroke="rgb(0, 0, 0)" stroke-opacity="1.0" stroke-linecap="round" stroke-linejoin="round"/>
  </g>
</svg>
