<?xml version="1.0" ?>
<svg xmlns="http://www.w3.org/2000/svg" version="1.1" width="224" height="224">
  <defs/>
  <g>
    <path d="M 57.08542251586914 96.60433197021484 C 69.66356658935547 129.61013793945312 43.72477722167969 149.6464385986328 110.82247161865234 151.00857543945312" stroke-width="3.0" fill="none" stroke="rgb(0, 0, 0)" stroke-opacity="1.0" stroke-linecap="round" stroke-linejoin="round"/>
    <path d="M 138.32020568847656 175.44482421875 C 181.6544952392578 165.04119873046875 172.40426635742188 157.6774139404297 131.52825927734375 182.28182983398438" stroke-width="3.0" fill="none" stroke="rgb(0, 0, 0)" stroke-opacity="1.0" stroke-linecap="round" stroke-linejoin="round"/>
    <path d="M 78.86804962158203 135.95619201660156 C 112.7591781616211 172.10757446289062 104.16960144042969 142.25009155273438 134.28407287597656 134.50819396972656" stroke-width="3.0" fill="none" stroke="rgb(0, 0, 0)" stroke-opacity="1.0" stroke-linecap="round" stroke-linejoin="round"/>
    <path d="M 118.28372192382812 61.439754486083984 C 167.666259765625 100.01091003417969 150.2456512451172 129.22398376464844 124.2086410522461 151.1725311279297" stroke-width="3.0" fill="none" stroke="rgb(0, 0, 0)" stroke-opacity="1.0" stroke-linecap="round" stroke-linejoin="round"/>
    <path d="M 169.81451416015625 61.02384567260742 C 201.2405242919922 82.01371765136719 176.76776123046875 83.20310974121094 189.26231384277344 113.95288848876953" stroke-width="3.0" fill="none" stroke="rgb(0, 0, 0)" stroke-opacity="1.0" stroke-linecap="round" stroke-linejoin="round"/>
    <path d="M 165.23251342773438 74.96929168701172 C 190.86306762695312 91.19331359863281 150.7745361328125 115.79647827148438 149.80807495117188 137.52975463867188" stroke-width="3.0" fill="none" stroke="rgb(0, 0, 0)" stroke-opacity="1.0" stroke-linecap="round" stroke-linejoin="round"/>
    <path d="M 45.05299758911133 143.33639526367188 C 21.627485275268555 104.00287628173828 42.85581970214844 139.2816925048828 40.504669189453125 155.05458068847656" stroke-width="3.0" fill="none" stroke="rgb(0, 0, 0)" stroke-opacity="1.0" stroke-linecap="round" stroke-linejoin="round"/>
    <path d="M 154.75054931640625 169.2027130126953 C 197.66758728027344 150.8586883544922 183.38619995117188 146.6865692138672 153.552001953125 170.64227294921875" stroke-width="3.0" fill="none" stroke="rgb(0, 0, 0)" stroke-opacity="1.0" stroke-linecap="round" stroke-linejoin="round"/>
    <path d="M 141.93173217773438 195.9263916015625 C 92.28398895263672 192.00868225097656 113.10954284667969 203.00909423828125 120.6227798461914 193.3768310546875" stroke-width="3.0" fill="none" stroke="rgb(0, 0, 0)" stroke-opacity="1.0" stroke-linecap="round" stroke-linejoin="round"/>
    <path d="M 141.8236083984375 55.6997184753418 C 203.9334259033203 100.89942932128906 194.38937377929688 136.27159118652344 180.1750946044922 154.5594482421875" stroke-width="3.0" fill="none" stroke="rgb(0, 0, 0)" stroke-opacity="1.0" stroke-linecap="round" stroke-linejoin="round"/>
    <path d="M 94.02002716064453 184.37222290039062 C 64.95187377929688 176.85647583007812 74.96424102783203 181.31834411621094 66.25881958007812 180.4037322998047" stroke-width="3.0" fill="none" stroke="rgb(0, 0, 0)" stroke-opacity="1.0" stroke-linecap="round" stroke-linejoin="round"/>
    <path d="M 124.01383209228516 122.83832550048828 C 103.1457748413086 165.11160278320312 47.68354034423828 113.85045623779297 78.74491882324219 77.1721420288086" stroke-width="3.0" fill="none" stroke="rgb(0, 0, 0)" stroke-opacity="1.0" stroke-linecap="round" stroke-linejoin="round"/>
    <path d="M 50.52361297607422 151.09718322753906 C 47.632835388183594 148.9508514404297 43.4009895324707 140.18118286132812 50.44475173950195 148.06063842773438" stroke-width="3.0" fill="none" stroke="rgb(0, 0, 0)" stroke-opacity="1.0" stroke-linecap="round" stroke-linejoin="round"/>
    <path d="M 93.25050354003906 185.55323791503906 C 101.41124725341797 201.56346130371094 162.92471313476562 196.9544677734375 101.40431213378906 193.2358856201172" stroke-width="3.0" fill="none" stroke="rgb(0, 0, 0)" stroke-opacity="1.0" stroke-linecap="round" stroke-linejoin="round"/>
    <path d="M 68.05958557128906 38.62396240234375 C 103.56903076171875 54.39356231689453 65.82769775390625 22.344064712524414 141.24136352539062 40.534934997558594" stroke-width="3.0" fill="none" stroke="rgb(0, 0, 0)" stroke-opacity="1.0" stroke-linecap="round" stroke-linejoin="round"/>
    <path d="M 101.2739028930664 32.162696838378906 C 132.6531219482422 50.78317642211914 82.90265655517578 32.70885467529297 154.12139892578125 64.57538604736328" stroke-width="3.0" fill="none" stroke="rgb(0, 0, 0)" stroke-opacity="1.0" stroke-linecap="round" stroke-linejoin="round"/>
    <path d="M 127.91572570800781 38.131072998046875 C 165.09344482421875 56.6223258972168 153.6953887939453 34.743343353271484 179.7488555908203 85.42459869384766" stroke-width="3.0" fill="none" stroke="rgb(0, 0, 0)" stroke-opacity="1.0" stroke-linecap="round" stroke-linejoin="round"/>
    <path d="M 67.57006072998047 179.6927490234375 C 60.871456146240234 169.56813049316406 44.048828125 183.11968994140625 35.48966979980469 133.64578247070312" stroke-width="3.0" fill="none" stroke="rgb(0, 0, 0)" stroke-opacity="1.0" stroke-linecap="round" stroke-linejoin="round"/>
    <path d="M 80.20331573486328 169.17581176757812 C 130.22230529785156 160.6029052734375 102.65918731689453 158.65057373046875 123.4413070678711 158.17808532714844" stroke-width="3.0" fill="none" stroke="rgb(0, 0, 0)" stroke-opacity="1.0" stroke-linecap="round" stroke-linejoin="round"/>
    <path d="M 139.4993133544922 174.48135375976562 C 165.76321411132812 156.10897827148438 151.90977478027344 181.63352966308594 136.98226928710938 177.66940307617188" stroke-width="3.0" fill="none" stroke="rgb(0, 0, 0)" stroke-opacity="1.0" stroke-linecap="round" stroke-linejoin="round"/>
    <path d="M 163.6057586669922 164.7230682373047 C 122.55256652832031 170.5503387451172 146.0375518798828 189.7797088623047 95.20420837402344 184.96990966796875" stroke-width="3.0" fill="none" stroke="rgb(0, 0, 0)" stroke-opacity="1.0" stroke-linecap="round" stroke-linejoin="round"/>
    <path d="M 48.256614685058594 146.08944702148438 C 59.67873001098633 158.811279296875 55.62636947631836 168.41929626464844 96.3009033203125 166.66946411132812" stroke-width="3.0" fill="none" stroke="rgb(0, 0, 0)" stroke-opacity="1.0" stroke-linecap="round" stroke-linejoin="round"/>
    <path d="M 34.2407341003418 134.16522216796875 C 33.60115051269531 63.55882263183594 21.616479873657227 112.2480697631836 34.201927185058594 64.9354248046875" stroke-width="3.0" fill="none" stroke="rgb(0, 0, 0)" stroke-opacity="1.0" stroke-linecap="round" stroke-linejoin="round"/>
    <path d="M 81.60890197753906 167.86868286132812 C 109.07738494873047 165.62359619140625 125.98176574707031 160.0482635498047 149.1180419921875 139.08169555664062" stroke-width="3.0" fill="none" stroke="rgb(0, 0, 0)" stroke-opacity="1.0" stroke-linecap="round" stroke-linejoin="round"/>
    <path d="M 32.680721282958984 69.09051513671875 C 46.70705032348633 30.99407196044922 60.96915054321289 46.90291976928711 66.25897216796875 40.80222702026367" stroke-width="3.0" fill="none" stroke="rgb(0, 0, 0)" stroke-opacity="1.0" stroke-linecap="round" stroke-linejoin="round"/>
    <path d="M 189.38662719726562 125.19660949707031 C 195.3763427734375 100.22797393798828 184.5814208984375 116.13400268554688 186.07864379882812 92.90708923339844" stroke-width="3.0" fill="none" stroke="rgb(0, 0, 0)" stroke-opacity="1.0" stroke-linecap="round" stroke-linejoin="round"/>
    <path d="M 60.29869842529297 59.24899673461914 C 80.17765045166016 42.59130096435547 100.19204711914062 50.71327590942383 127.54212951660156 50.910213470458984" stroke-width="3.0" fill="none" stroke="rgb(0, 0, 0)" stroke-opacity="1.0" stroke-linecap="round" stroke-linejoin="round"/>
    <path d="M 122.68067169189453 193.469970703125 C 150.6519012451172 200.24732971191406 167.48995971679688 198.22039794921875 172.79026794433594 158.26490783691406" stroke-width="3.0" fill="none" stroke="rgb(0, 0, 0)" stroke-opacity="1.0" stroke-linecap="round" stroke-linejoin="round"/>
    <path d="M 112.96934509277344 122.90817260742188 C 85.11449432373047 56.061824798583984 61.29697036743164 126.62728881835938 107.95923614501953 137.6109161376953" stroke-width="3.0" fill="none" stroke="rgb(0, 0, 0)" stroke-opacity="1.0" stroke-linecap="round" stroke-linejoin="round"/>
    <path d="M 121.95301055908203 83.64856719970703 C 54.24436569213867 79.80968475341797 100.12519836425781 101.73825073242188 94.76349639892578 121.9670181274414" stroke-width="3.0" fill="none" stroke="rgb(0, 0, 0)" stroke-opacity="1.0" stroke-linecap="round" stroke-linejoin="round"/>
    <path d="M 61.51565933227539 58.849430084228516 C 58.47628402709961 71.00785827636719 52.95358657836914 60.951698303222656 56.9608154296875 99.1382827758789" stroke-width="3.0" fill="none" stroke="rgb(0, 0, 0)" stroke-opacity="1.0" stroke-linecap="round" stroke-linejoin="round"/>
    <path d="M 160.29869079589844 166.13571166992188 C 119.9474105834961 175.715576171875 155.7338104248047 177.58480834960938 175.8292999267578 97.71725463867188" stroke-width="3.0" fill="none" stroke="rgb(0, 0, 0)" stroke-opacity="1.0" stroke-linecap="round" stroke-linejoin="round"/>
  </g>
</svg>
