<?xml version="1.0" ?>
<svg xmlns="http://www.w3.org/2000/svg" version="1.1" width="224" height="224">
  <defs/>
  <g>
    <path d="M 66.60555267333984 109.82968139648438 C 71.54510498046875 120.29939270019531 51.34000015258789 145.36207580566406 91.28286743164062 146.06134033203125" stroke-width="3.0" fill="none" stroke="rgb(0, 0, 0)" stroke-opacity="1.0" stroke-linecap="round" stroke-linejoin="round"/>
    <path d="M 159.0320587158203 176.77369689941406 C 188.71250915527344 153.7262725830078 188.4838104248047 153.76296997070312 180.6603546142578 162.2030029296875" stroke-width="3.0" fill="none" stroke="rgb(0, 0, 0)" stroke-opacity="1.0" stroke-linecap="round" stroke-linejoin="round"/>
    <path d="M 87.86170959472656 126.17725372314453 C 103.18395233154297 151.96388244628906 104.78810119628906 138.60035705566406 124.05630493164062 141.13597106933594" stroke-width="3.0" fill="none" stroke="rgb(0, 0, 0)" stroke-opacity="1.0" stroke-linecap="round" stroke-linejoin="round"/>
    <path d="M 126.0034408569336 69.61714172363281 C 159.6211700439453 106.6430435180664 145.10157775878906 126.78461456298828 123.31794738769531 140.1527557373047" stroke-width="3.0" fill="none" stroke="rgb(0, 0, 0)" stroke-opacity="1.0" stroke-linecap="round" stroke-linejoin="round"/>
    <path d="M 164.55418395996094 59.315738677978516 C 202.8078155517578 74.64041900634766 182.55154418945312 79.54737091064453 192.014892578125 118.65681457519531" stroke-width="3.0" fill="none" stroke="rgb(0, 0, 0)" stroke-opacity="1.0" stroke-linecap="round" stroke-linejoin="round"/>
    <path d="M 147.69003295898438 87.1380615234375 C 161.3033905029297 108.21442413330078 166.21841430664062 139.12110900878906 148.2652130126953 164.96826171875" stroke-width="3.0" fill="none" stroke="rgb(0, 0, 0)" stroke-opacity="1.0" stroke-linecap="round" stroke-linejoin="round"/>
    <path d="M 40.07764434814453 118.2378921508789 C 29.138694763183594 98.82839965820312 41.8955078125 120.8004150390625 36.97706604003906 121.49097442626953" stroke-width="3.0" fill="none" stroke="rgb(0, 0, 0)" stroke-opacity="1.0" stroke-linecap="round" stroke-linejoin="round"/>
    <path d="M 156.9632568359375 169.2810821533203 C 191.76815795898438 161.47186279296875 193.82421875 157.2105712890625 156.59991455078125 170.8251190185547" stroke-width="3.0" fill="none" stroke="rgb(0, 0, 0)" stroke-opacity="1.0" stroke-linecap="round" stroke-linejoin="round"/>
    <path d="M 101.03760528564453 188.78414916992188 C 94.20706939697266 178.5436248779297 102.18064880371094 196.08505249023438 102.85883331298828 189.14134216308594" stroke-width="3.0" fill="none" stroke="rgb(0, 0, 0)" stroke-opacity="1.0" stroke-linecap="round" stroke-linejoin="round"/>
    <path d="M 122.34770202636719 61.1357421875 C 168.06163024902344 95.15838623046875 154.89878845214844 87.68958282470703 169.0716552734375 131.28717041015625" stroke-width="3.0" fill="none" stroke="rgb(0, 0, 0)" stroke-opacity="1.0" stroke-linecap="round" stroke-linejoin="round"/>
    <path d="M 81.48373413085938 177.44764709472656 C 69.03943634033203 177.46694946289062 49.01863098144531 171.69961547851562 46.053409576416016 160.89059448242188" stroke-width="3.0" fill="none" stroke="rgb(0, 0, 0)" stroke-opacity="1.0" stroke-linecap="round" stroke-linejoin="round"/>
    <path d="M 101.51958465576172 142.27798461914062 C 73.15138244628906 140.52850341796875 62.39655303955078 109.45450592041016 84.98834228515625 78.60910034179688" stroke-width="3.0" fill="none" stroke="rgb(0, 0, 0)" stroke-opacity="1.0" stroke-linecap="round" stroke-linejoin="round"/>
    <path d="M 52.321311950683594 160.352294921875 C 32.70365905761719 143.42613220214844 33.13336944580078 130.11602783203125 42.66634750366211 153.2520751953125" stroke-width="3.0" fill="none" stroke="rgb(0, 0, 0)" stroke-opacity="1.0" stroke-linecap="round" stroke-linejoin="round"/>
    <path d="M 77.11700439453125 171.9149627685547 C 93.37860870361328 187.2425994873047 130.39175415039062 189.87110900878906 103.16416931152344 189.59591674804688" stroke-width="3.0" fill="none" stroke="rgb(0, 0, 0)" stroke-opacity="1.0" stroke-linecap="round" stroke-linejoin="round"/>
    <path d="M 70.84087371826172 39.249786376953125 C 115.69210052490234 37.8078727722168 83.47270965576172 16.804412841796875 139.38357543945312 40.706092834472656" stroke-width="3.0" fill="none" stroke="rgb(0, 0, 0)" stroke-opacity="1.0" stroke-linecap="round" stroke-linejoin="round"/>
    <path d="M 85.36444091796875 44.698848724365234 C 97.55461120605469 50.54881286621094 101.14361572265625 50.515079498291016 122.60670471191406 61.04134750366211" stroke-width="3.0" fill="none" stroke="rgb(0, 0, 0)" stroke-opacity="1.0" stroke-linecap="round" stroke-linejoin="round"/>
    <path d="M 140.958984375 41.788639068603516 C 149.7782440185547 52.87018966674805 150.5387420654297 33.52779769897461 189.27835083007812 95.78941345214844" stroke-width="3.0" fill="none" stroke="rgb(0, 0, 0)" stroke-opacity="1.0" stroke-linecap="round" stroke-linejoin="round"/>
    <path d="M 56.80321502685547 169.03134155273438 C 51.639854431152344 165.63026428222656 47.13790512084961 171.1638641357422 45.69091033935547 155.6140594482422" stroke-width="3.0" fill="none" stroke="rgb(0, 0, 0)" stroke-opacity="1.0" stroke-linecap="round" stroke-linejoin="round"/>
    <path d="M 75.87673950195312 161.79714965820312 C 100.83866882324219 162.99374389648438 88.48196411132812 158.0108642578125 109.0997543334961 153.44041442871094" stroke-width="3.0" fill="none" stroke="rgb(0, 0, 0)" stroke-opacity="1.0" stroke-linecap="round" stroke-linejoin="round"/>
    <path d="M 161.1647186279297 170.610107421875 C 181.66845703125 163.0244598388672 145.13937377929688 181.90098571777344 160.71336364746094 170.3811492919922" stroke-width="3.0" fill="none" stroke="rgb(0, 0, 0)" stroke-opacity="1.0" stroke-linecap="round" stroke-linejoin="round"/>
    <path d="M 141.86326599121094 191.7760009765625 C 105.82604217529297 192.37196350097656 135.22109985351562 189.42544555664062 100.1405258178711 187.9806365966797" stroke-width="3.0" fill="none" stroke="rgb(0, 0, 0)" stroke-opacity="1.0" stroke-linecap="round" stroke-linejoin="round"/>
    <path d="M 51.53215789794922 162.0667266845703 C 35.01102828979492 153.0811767578125 61.19625473022461 170.1948699951172 77.60999298095703 161.00982666015625" stroke-width="3.0" fill="none" stroke="rgb(0, 0, 0)" stroke-opacity="1.0" stroke-linecap="round" stroke-linejoin="round"/>
    <path d="M 36.511375427246094 140.51467895507812 C 36.360572814941406 77.26148986816406 21.13011932373047 95.29181671142578 35.45267105102539 80.08499145507812" stroke-width="3.0" fill="none" stroke="rgb(0, 0, 0)" stroke-opacity="1.0" stroke-linecap="round" stroke-linejoin="round"/>
    <path d="M 93.2688217163086 160.2186737060547 C 112.63702392578125 158.1551971435547 111.13212585449219 150.9731903076172 121.8350601196289 144.1143798828125" stroke-width="3.0" fill="none" stroke="rgb(0, 0, 0)" stroke-opacity="1.0" stroke-linecap="round" stroke-linejoin="round"/>
    <path d="M 36.43903732299805 80.77222442626953 C 34.125885009765625 37.19012451171875 57.49351501464844 45.389549255371094 68.15782928466797 39.03691482543945" stroke-width="3.0" fill="none" stroke="rgb(0, 0, 0)" stroke-opacity="1.0" stroke-linecap="round" stroke-linejoin="round"/>
    <path d="M 192.14266967773438 117.36150360107422 C 190.25567626953125 141.74221801757812 185.18524169921875 166.29823303222656 179.642822265625 164.5662841796875" stroke-width="3.0" fill="none" stroke="rgb(0, 0, 0)" stroke-opacity="1.0" stroke-linecap="round" stroke-linejoin="round"/>
    <path d="M 64.49869537353516 50.206398010253906 C 66.3246841430664 41.223506927490234 61.99272537231445 42.90202331542969 92.08751678466797 49.477603912353516" stroke-width="3.0" fill="none" stroke="rgb(0, 0, 0)" stroke-opacity="1.0" stroke-linecap="round" stroke-linejoin="round"/>
    <path d="M 138.30508422851562 193.7190399169922 C 160.82691955566406 184.8818817138672 152.19017028808594 196.9693145751953 167.20257568359375 168.6033935546875" stroke-width="3.0" fill="none" stroke="rgb(0, 0, 0)" stroke-opacity="1.0" stroke-linecap="round" stroke-linejoin="round"/>
    <path d="M 97.77182006835938 121.74739837646484 C 93.31250762939453 101.25677490234375 77.86373138427734 108.541259765625 104.63198852539062 129.56561279296875" stroke-width="3.0" fill="none" stroke="rgb(0, 0, 0)" stroke-opacity="1.0" stroke-linecap="round" stroke-linejoin="round"/>
    <path d="M 110.32041931152344 91.39761352539062 C 70.10139465332031 88.25300598144531 88.77552795410156 102.72782897949219 88.27853393554688 126.46186828613281" stroke-width="3.0" fill="none" stroke="rgb(0, 0, 0)" stroke-opacity="1.0" stroke-linecap="round" stroke-linejoin="round"/>
    <path d="M 61.127357482910156 52.156517028808594 C 54.23561477661133 50.78019714355469 42.51252365112305 70.8392562866211 41.48470687866211 78.34347534179688" stroke-width="3.0" fill="none" stroke="rgb(0, 0, 0)" stroke-opacity="1.0" stroke-linecap="round" stroke-linejoin="round"/>
    <path d="M 151.27272033691406 173.72329711914062 C 140.225341796875 167.94241333007812 134.91024780273438 148.7209930419922 126.41812896728516 146.56044006347656" stroke-width="3.0" fill="none" stroke="rgb(0, 0, 0)" stroke-opacity="1.0" stroke-linecap="round" stroke-linejoin="round"/>
  </g>
</svg>
